<svg xmlns="http://www.w3.org/2000/svg" xmlns:xlink="http://www.w3.org/1999/xlink" width="40" zoomAndPan="magnify" viewBox="0 0 30 30.000001" height="40" preserveAspectRatio="xMidYMid meet" version="1.0"><defs><clipPath id="19ec800698"><path d="M 4 1.695312 L 27.339844 1.695312 L 27.339844 25 L 4 25 Z M 4 1.695312 " clip-rule="nonzero"/></clipPath><clipPath id="120e3aea72"><path d="M 3.386719 24 L 27 24 L 27 27.097656 L 3.386719 27.097656 Z M 3.386719 24 " clip-rule="nonzero"/></clipPath></defs><g clip-path="url(#19ec800698)"><path fill="#f9e8de" d="M 26.714844 8.347656 C 26.445312 7.496094 26.070312 6.675781 25.59375 5.917969 C 24.847656 4.730469 23.851562 3.691406 22.628906 2.894531 C 21.484375 2.148438 20.035156 1.714844 18.695312 1.984375 C 18.410156 2.042969 18.140625 2.136719 17.894531 2.257812 C 17.648438 2.382812 17.417969 2.535156 17.207031 2.707031 C 16.785156 3.007812 16.503906 3.34375 16.335938 3.640625 C 16.09375 4.085938 15.925781 4.542969 15.746094 4.996094 C 16.105469 5.09375 16.578125 5.230469 17.023438 5.363281 C 17.261719 5.433594 17.492188 5.5 17.691406 5.5625 L 18.011719 5.542969 C 18.058594 5.503906 18.109375 5.449219 18.160156 5.367188 C 18.359375 5.050781 18.523438 4.695312 18.574219 4.671875 C 18.589844 4.664062 18.609375 4.660156 18.628906 4.664062 C 18.699219 4.660156 18.816406 4.699219 18.820312 4.722656 C 18.824219 4.738281 18.738281 5.171875 18.671875 5.507812 L 20.0625 5.429688 L 19.917969 5.535156 L 18.625 5.730469 C 18.613281 5.792969 18.605469 5.839844 18.597656 5.871094 C 18.652344 5.894531 18.703125 5.925781 18.746094 5.957031 L 19.425781 5.921875 L 19.382812 5.953125 L 18.820312 6.039062 C 18.832031 6.0625 18.839844 6.089844 18.839844 6.117188 C 18.839844 6.199219 18.46875 6.246094 17.949219 6.238281 C 17.269531 6.234375 16.335938 6.140625 15.660156 5.929688 C 15.578125 5.902344 15.503906 5.878906 15.433594 5.855469 L 15.363281 5.847656 C 15.246094 6.066406 15.109375 6.28125 14.949219 6.488281 C 14.339844 7.261719 13.570312 7.886719 12.714844 8.363281 C 11.863281 8.84375 10.933594 9.171875 9.996094 9.441406 C 8.671875 9.8125 7.386719 9.6875 6.324219 10.667969 C 6.210938 10.769531 6.105469 10.875 6.007812 10.988281 C 5.792969 11.226562 5.605469 11.488281 5.441406 11.765625 C 5.035156 12.445312 4.785156 13.21875 4.699219 14 C 4.671875 14.25 4.65625 14.5 4.652344 14.75 C 4.644531 15.519531 4.75 16.285156 4.949219 17.03125 C 4.957031 17.0625 4.964844 17.09375 4.972656 17.125 C 5.078125 17.503906 5.210938 17.878906 5.359375 18.242188 C 5.371094 18.273438 5.382812 18.304688 5.394531 18.332031 C 5.402344 18.347656 5.410156 18.363281 5.417969 18.378906 C 5.769531 19.210938 6.230469 20 6.761719 20.71875 C 7.042969 21.101562 7.339844 21.449219 7.65625 21.765625 C 7.894531 22.007812 8.144531 22.230469 8.402344 22.441406 C 8.941406 22.875 9.519531 23.242188 10.136719 23.558594 C 10.410156 23.699219 10.6875 23.824219 10.972656 23.945312 C 11.335938 24.097656 11.710938 24.234375 12.097656 24.359375 C 12.429688 24.464844 12.765625 24.550781 13.109375 24.613281 C 13.546875 24.695312 13.988281 24.738281 14.433594 24.746094 C 14.605469 24.75 14.777344 24.75 14.945312 24.742188 C 14.980469 24.742188 15.011719 24.742188 15.042969 24.738281 C 15.097656 24.738281 15.152344 24.734375 15.203125 24.734375 C 19.300781 24.488281 22.886719 21.84375 25.058594 18.378906 C 25.085938 18.332031 25.113281 18.289062 25.140625 18.242188 C 25.328125 17.941406 25.503906 17.632812 25.667969 17.316406 C 25.699219 17.253906 25.730469 17.1875 25.765625 17.125 C 25.878906 16.898438 25.988281 16.667969 26.089844 16.4375 C 26.101562 16.40625 26.117188 16.371094 26.132812 16.339844 C 26.144531 16.308594 26.160156 16.273438 26.171875 16.242188 C 26.183594 16.214844 26.195312 16.1875 26.207031 16.160156 C 26.230469 16.105469 26.25 16.050781 26.273438 16 C 26.304688 15.925781 26.332031 15.851562 26.359375 15.773438 C 26.4375 15.574219 26.511719 15.371094 26.578125 15.167969 C 26.710938 14.765625 26.828125 14.359375 26.921875 13.949219 C 26.960938 13.785156 26.996094 13.617188 27.027344 13.453125 C 27.339844 11.734375 27.222656 9.976562 26.714844 8.347656 Z M 23.148438 9.039062 C 22.34375 9.039062 16.433594 9.046875 16.433594 9.046875 C 16.433594 8.921875 16.988281 8.898438 17.382812 8.886719 C 17.769531 8.871094 17.984375 8.859375 17.984375 8.859375 C 17.980469 8.859375 18.164062 8.417969 18.636719 8.394531 C 19.027344 8.375 19.179688 8.578125 19.179688 8.578125 C 19.179688 8.578125 19.34375 7.980469 19.644531 7.980469 C 19.941406 7.980469 20.007812 8.464844 20.007812 8.464844 C 20.007812 8.464844 20.207031 8.199219 20.542969 8.25 C 20.816406 8.292969 20.96875 8.652344 20.96875 8.652344 C 20.96875 8.652344 21.132812 8.523438 21.28125 8.570312 C 21.535156 8.652344 21.496094 8.886719 21.496094 8.886719 C 21.496094 8.886719 21.820312 8.675781 21.980469 8.898438 C 21.980469 8.898438 24.78125 8.9375 24.78125 8.992188 C 24.777344 9.046875 23.957031 9.039062 23.148438 9.039062 Z M 23.148438 9.039062 " fill-opacity="1" fill-rule="nonzero"/></g><path fill="#e8d2c4" d="M 26.273438 16 C 25.960938 16.773438 25.582031 17.523438 25.140625 18.242188 C 25.113281 18.289062 25.085938 18.332031 25.058594 18.378906 L 5.417969 18.378906 C 5.410156 18.363281 5.402344 18.347656 5.394531 18.332031 C 5.382812 18.300781 5.371094 18.273438 5.359375 18.242188 C 5.210938 17.878906 5.078125 17.503906 4.972656 17.125 C 4.964844 17.09375 4.957031 17.0625 4.949219 17.03125 C 4.75 16.285156 4.644531 15.519531 4.652344 14.75 C 4.65625 14.5 4.671875 14.246094 4.699219 14 C 4.785156 13.21875 5.035156 12.445312 5.441406 11.765625 C 5.605469 11.488281 5.792969 11.226562 6.007812 10.988281 L 6.007812 11.558594 L 7.152344 11.558594 L 7.152344 16.632812 L 8.105469 16.632812 L 8.105469 16 L 9.367188 16 L 9.367188 16.632812 L 9.460938 16.632812 L 9.460938 13.453125 L 10.65625 13.453125 L 10.65625 12.664062 L 11.433594 12.664062 L 11.433594 13.453125 L 12.367188 13.453125 L 12.367188 11.691406 L 12.589844 11.691406 L 12.589844 10.503906 L 14.960938 10.503906 L 14.960938 11.691406 L 16.761719 11.691406 L 16.761719 14.09375 L 17.121094 14.09375 L 17.121094 13.453125 L 17.445312 13.453125 L 17.445312 12.664062 L 18.222656 12.664062 L 18.222656 13.453125 L 19.125 13.453125 L 19.125 13.015625 L 20.726562 13.015625 L 20.726562 11.558594 L 22.179688 11.558594 L 22.179688 10.601562 L 23.121094 10.601562 L 23.121094 11.558594 L 24.269531 11.558594 L 24.269531 16.632812 L 25.21875 16.632812 L 25.21875 16 Z M 26.273438 16 " fill-opacity="1" fill-rule="nonzero"/><path fill="#ffffff" d="M 22.324219 13.617188 L 22.058594 13.617188 L 22.171875 10.652344 L 22.214844 10.652344 Z M 22.324219 13.617188 " fill-opacity="1" fill-rule="nonzero"/><path fill="#ffffff" d="M 23.617188 14.550781 L 26.636719 14.355469 L 26.636719 14.523438 L 23.726562 15.117188 Z M 23.617188 14.550781 " fill-opacity="1" fill-rule="nonzero"/><path fill="#e8d2c4" d="M 24.429688 16.554688 L 24.589844 16.554688 L 24.589844 17.835938 L 24.429688 17.835938 Z M 24.429688 16.554688 " fill-opacity="1" fill-rule="nonzero"/><path fill="#e8d2c4" d="M 24.289062 17.832031 L 24.730469 17.832031 L 24.730469 17.964844 L 24.289062 17.964844 Z M 24.289062 17.832031 " fill-opacity="1" fill-rule="nonzero"/><path fill="#e8d2c4" d="M 24.785156 18.253906 C 24.726562 18.253906 24.675781 18.203125 24.675781 18.144531 L 24.675781 17.71875 C 24.675781 17.660156 24.726562 17.609375 24.785156 17.609375 C 24.847656 17.609375 24.894531 17.660156 24.894531 17.71875 L 24.894531 18.144531 C 24.894531 18.203125 24.847656 18.253906 24.785156 18.253906 Z M 24.785156 18.253906 " fill-opacity="1" fill-rule="nonzero"/><path fill="#e8d2c4" d="M 24.230469 18.253906 C 24.171875 18.253906 24.121094 18.203125 24.121094 18.144531 L 24.121094 17.71875 C 24.121094 17.660156 24.171875 17.609375 24.230469 17.609375 C 24.292969 17.609375 24.339844 17.660156 24.339844 17.71875 L 24.339844 18.144531 C 24.339844 18.203125 24.289062 18.253906 24.230469 18.253906 Z M 24.230469 18.253906 " fill-opacity="1" fill-rule="nonzero"/><path fill="#e8d2c4" d="M 24.527344 17.277344 L 24.464844 17.339844 L 23.894531 16.769531 L 23.957031 16.707031 Z M 24.527344 17.277344 " fill-opacity="1" fill-rule="nonzero"/><path fill="#ffffff" d="M 26.359375 15.773438 C 26.332031 15.851562 26.304688 15.925781 26.273438 16 C 26.25 16.050781 26.230469 16.105469 26.207031 16.160156 C 26.195312 16.1875 26.183594 16.214844 26.171875 16.242188 C 26.160156 16.273438 26.144531 16.308594 26.132812 16.339844 C 26.0625 16.34375 25.996094 16.351562 25.933594 16.359375 C 25.550781 16.398438 25.242188 16.4375 25.046875 16.484375 C 24.882812 16.519531 24.730469 16.558594 24.589844 16.597656 C 24.535156 16.613281 24.480469 16.628906 24.429688 16.644531 C 24.285156 16.6875 24.152344 16.734375 24.027344 16.777344 C 23.996094 16.789062 23.964844 16.796875 23.933594 16.808594 C 23.40625 16.996094 23.007812 17.179688 22.625 17.261719 C 22.492188 17.289062 22.359375 17.304688 22.226562 17.304688 L 22.230469 17.304688 L 22.421875 17.117188 L 22.777344 16.765625 L 23.746094 15.8125 L 23.855469 15.808594 Z M 26.359375 15.773438 " fill-opacity="1" fill-rule="nonzero"/><path fill="#e8d2c4" d="M 26.207031 16.160156 C 26.195312 16.1875 26.183594 16.214844 26.171875 16.242188 C 26.160156 16.273438 26.144531 16.308594 26.128906 16.339844 C 26.0625 16.34375 25.996094 16.351562 25.933594 16.359375 C 25.546875 16.398438 25.242188 16.4375 25.046875 16.484375 C 24.882812 16.519531 24.730469 16.558594 24.589844 16.597656 C 24.53125 16.613281 24.480469 16.628906 24.429688 16.644531 C 24.285156 16.6875 24.152344 16.734375 24.027344 16.777344 C 23.996094 16.789062 23.964844 16.796875 23.933594 16.808594 C 23.40625 16.996094 23.003906 17.179688 22.625 17.261719 C 22.613281 17.257812 22.605469 17.25 22.597656 17.246094 C 22.515625 17.207031 22.453125 17.164062 22.417969 17.117188 C 22.347656 17.015625 22.414062 16.902344 22.722656 16.785156 C 22.742188 16.777344 22.757812 16.773438 22.777344 16.765625 C 23.035156 16.667969 23.289062 16.585938 23.566406 16.519531 C 24.238281 16.351562 25.027344 16.25 26.207031 16.160156 Z M 26.207031 16.160156 " fill-opacity="1" fill-rule="nonzero"/><path fill="#e8d2c4" d="M 26.171875 16.242188 C 26.160156 16.273438 26.144531 16.308594 26.128906 16.339844 C 26.117188 16.371094 26.101562 16.40625 26.085938 16.4375 C 25.984375 16.667969 25.878906 16.898438 25.765625 17.125 C 25.730469 17.1875 25.699219 17.253906 25.667969 17.316406 C 25.625 17.21875 25.601562 17.113281 25.601562 17.003906 C 25.601562 16.738281 25.730469 16.5 25.933594 16.359375 C 26.003906 16.304688 26.085938 16.265625 26.171875 16.242188 Z M 26.171875 16.242188 " fill-opacity="1" fill-rule="nonzero"/><path fill="#ffffff" d="M 26.089844 16.4375 C 25.988281 16.667969 25.878906 16.898438 25.765625 17.125 C 25.757812 17.085938 25.753906 17.042969 25.753906 17.003906 C 25.753906 16.757812 25.886719 16.546875 26.089844 16.4375 Z M 26.089844 16.4375 " fill-opacity="1" fill-rule="nonzero"/><path fill="#ffffff" d="M 20.722656 14.550781 L 17.699219 14.355469 L 17.699219 14.523438 L 20.613281 15.117188 Z M 20.722656 14.550781 " fill-opacity="1" fill-rule="nonzero"/><path fill="#e8d2c4" d="M 19.910156 17.832031 L 19.75 17.832031 L 19.75 16.554688 L 19.910156 16.554688 Z M 19.910156 17.832031 " fill-opacity="1" fill-rule="nonzero"/><path fill="#e8d2c4" d="M 20.050781 17.964844 L 19.609375 17.964844 L 19.609375 17.835938 L 20.050781 17.835938 Z M 20.050781 17.964844 " fill-opacity="1" fill-rule="nonzero"/><path fill="#e8d2c4" d="M 19.550781 18.253906 C 19.613281 18.253906 19.660156 18.203125 19.660156 18.144531 L 19.660156 17.71875 C 19.660156 17.660156 19.613281 17.609375 19.550781 17.609375 C 19.492188 17.609375 19.441406 17.660156 19.441406 17.71875 L 19.441406 18.144531 C 19.441406 18.203125 19.492188 18.253906 19.550781 18.253906 Z M 19.550781 18.253906 " fill-opacity="1" fill-rule="nonzero"/><path fill="#e8d2c4" d="M 20.109375 18.253906 C 20.167969 18.253906 20.214844 18.203125 20.214844 18.144531 L 20.214844 17.71875 C 20.214844 17.660156 20.167969 17.609375 20.109375 17.609375 C 20.046875 17.609375 20 17.660156 20 17.71875 L 20 18.144531 C 20 18.203125 20.046875 18.253906 20.109375 18.253906 Z M 20.109375 18.253906 " fill-opacity="1" fill-rule="nonzero"/><path fill="#e8d2c4" d="M 20.378906 16.707031 L 20.441406 16.769531 L 19.871094 17.339844 L 19.808594 17.277344 Z M 20.378906 16.707031 " fill-opacity="1" fill-rule="nonzero"/><path fill="#ffffff" d="M 10.335938 15.140625 L 10.683594 15.957031 C 10.683594 15.957031 17.886719 16.167969 19.292969 16.484375 C 20.445312 16.742188 21.101562 17.132812 21.714844 17.261719 C 21.847656 17.289062 21.976562 17.304688 22.109375 17.304688 L 21.917969 17.117188 L 21.5625 16.765625 L 20.589844 15.8125 L 10.789062 15.675781 L 10.523438 15.140625 Z M 10.335938 15.140625 " fill-opacity="1" fill-rule="nonzero"/><path fill="#e8d2c4" d="M 10.683594 15.957031 C 10.683594 15.957031 17.886719 16.167969 19.292969 16.484375 C 20.445312 16.742188 21.101562 17.132812 21.714844 17.261719 C 21.808594 17.21875 21.882812 17.167969 21.917969 17.117188 C 21.988281 17.015625 21.925781 16.90625 21.613281 16.785156 C 21.597656 16.777344 21.578125 16.773438 21.5625 16.765625 C 20.425781 16.339844 19.292969 16.214844 16.484375 16.050781 C 13.632812 15.882812 10.683594 15.957031 10.683594 15.957031 Z M 10.683594 15.957031 " fill-opacity="1" fill-rule="nonzero"/><path fill="#e8d2c4" d="M 18.734375 17.003906 C 18.734375 17.222656 18.65625 17.410156 18.503906 17.5625 C 18.347656 17.71875 18.164062 17.796875 17.945312 17.796875 C 17.726562 17.796875 17.539062 17.71875 17.382812 17.5625 C 17.230469 17.410156 17.152344 17.222656 17.152344 17.003906 C 17.152344 16.785156 17.230469 16.597656 17.382812 16.441406 C 17.539062 16.289062 17.726562 16.210938 17.945312 16.210938 C 18.164062 16.210938 18.347656 16.289062 18.503906 16.441406 C 18.65625 16.597656 18.734375 16.785156 18.734375 17.003906 Z M 18.734375 17.003906 " fill-opacity="1" fill-rule="nonzero"/><path fill="#ffffff" d="M 18.585938 17.003906 C 18.585938 17.179688 18.523438 17.332031 18.398438 17.457031 C 18.273438 17.582031 18.121094 17.644531 17.945312 17.644531 C 17.765625 17.644531 17.613281 17.582031 17.488281 17.457031 C 17.363281 17.332031 17.300781 17.179688 17.300781 17.003906 C 17.300781 16.824219 17.363281 16.671875 17.488281 16.546875 C 17.613281 16.421875 17.765625 16.359375 17.945312 16.359375 C 18.121094 16.359375 18.273438 16.421875 18.398438 16.546875 C 18.523438 16.671875 18.585938 16.824219 18.585938 17.003906 Z M 18.585938 17.003906 " fill-opacity="1" fill-rule="nonzero"/><path fill="#e8d2c4" d="M 18.199219 17.003906 C 18.199219 17.074219 18.171875 17.132812 18.125 17.183594 C 18.074219 17.230469 18.015625 17.257812 17.945312 17.257812 C 17.875 17.257812 17.8125 17.230469 17.765625 17.183594 C 17.714844 17.132812 17.6875 17.074219 17.6875 17.003906 C 17.6875 16.933594 17.714844 16.871094 17.765625 16.824219 C 17.8125 16.773438 17.875 16.75 17.945312 16.75 C 18.015625 16.75 18.074219 16.773438 18.125 16.824219 C 18.171875 16.871094 18.199219 16.933594 18.199219 17.003906 Z M 18.199219 17.003906 " fill-opacity="1" fill-rule="nonzero"/><path fill="#ffffff" d="M 23.890625 15.414062 C 23.890625 16.460938 23.121094 17.304688 22.167969 17.304688 C 21.554688 17.304688 21.019531 16.957031 20.714844 16.425781 C 20.542969 16.132812 20.445312 15.789062 20.445312 15.414062 C 20.445312 14.371094 21.21875 13.523438 22.167969 13.523438 C 22.941406 13.523438 23.59375 14.082031 23.8125 14.847656 C 23.863281 15.027344 23.890625 15.21875 23.890625 15.414062 Z M 23.890625 15.414062 " fill-opacity="1" fill-rule="nonzero"/><path fill="#e8d2c4" d="M 22.839844 14.71875 L 22.207031 14.71875 L 22.207031 14.292969 L 22.742188 14.292969 Z M 22.839844 14.71875 " fill-opacity="1" fill-rule="nonzero"/><path fill="#e8d2c4" d="M 23.554688 14.839844 L 22.921875 14.71875 L 22.820312 14.292969 L 23.0625 14.292969 C 23.152344 14.292969 23.238281 14.339844 23.285156 14.417969 Z M 23.554688 14.839844 " fill-opacity="1" fill-rule="nonzero"/><path fill="#e8d2c4" d="M 21.496094 14.71875 L 22.132812 14.71875 L 22.132812 14.292969 L 21.597656 14.292969 Z M 21.496094 14.71875 " fill-opacity="1" fill-rule="nonzero"/><path fill="#e8d2c4" d="M 20.785156 14.839844 L 21.417969 14.71875 L 21.515625 14.292969 L 21.277344 14.292969 C 21.1875 14.292969 21.101562 14.339844 21.050781 14.417969 Z M 20.785156 14.839844 " fill-opacity="1" fill-rule="nonzero"/><path fill="#e8d2c4" d="M 23.890625 15.414062 C 23.890625 16.460938 23.121094 17.304688 22.167969 17.304688 C 21.554688 17.304688 21.019531 16.957031 20.714844 16.425781 C 22.792969 17.214844 23.652344 15.269531 23.8125 14.847656 C 23.863281 15.027344 23.890625 15.21875 23.890625 15.414062 Z M 23.890625 15.414062 " fill-opacity="1" fill-rule="nonzero"/><path fill="#f9e8de" d="M 25.140625 18.242188 C 24.640625 19.0625 24.058594 19.839844 23.410156 20.550781 C 23.230469 20.746094 23.046875 20.933594 22.859375 21.121094 C 22.273438 21.695312 21.644531 22.222656 20.96875 22.683594 C 20.804688 22.796875 20.632812 22.90625 20.460938 23.015625 C 19.894531 23.367188 19.296875 23.671875 18.679688 23.925781 C 18.519531 23.992188 18.359375 24.054688 18.195312 24.113281 C 17.640625 24.3125 17.070312 24.46875 16.488281 24.574219 C 16.335938 24.605469 16.179688 24.628906 16.023438 24.652344 C 15.753906 24.6875 15.480469 24.714844 15.203125 24.734375 C 15.152344 24.734375 15.097656 24.738281 15.042969 24.738281 C 15.011719 24.742188 14.980469 24.742188 14.945312 24.742188 C 14.777344 24.75 14.605469 24.75 14.433594 24.746094 C 14.417969 24.746094 14.398438 24.746094 14.378906 24.746094 C 14.230469 24.742188 14.078125 24.734375 13.929688 24.71875 C 13.65625 24.699219 13.382812 24.664062 13.109375 24.613281 C 12.851562 24.566406 12.597656 24.507812 12.347656 24.4375 C 12.265625 24.410156 12.179688 24.386719 12.09375 24.359375 C 12.035156 24.339844 11.976562 24.320312 11.917969 24.300781 C 11.59375 24.191406 11.28125 24.074219 10.972656 23.945312 C 10.777344 23.863281 10.582031 23.777344 10.394531 23.683594 C 10.308594 23.644531 10.222656 23.601562 10.136719 23.558594 C 10.082031 23.53125 10.027344 23.5 9.972656 23.472656 C 9.453125 23.195312 8.964844 22.882812 8.503906 22.519531 C 8.46875 22.492188 8.4375 22.464844 8.40625 22.441406 C 8.304688 22.359375 8.203125 22.273438 8.105469 22.1875 C 7.953125 22.054688 7.800781 21.914062 7.65625 21.765625 C 7.339844 21.445312 7.042969 21.097656 6.761719 20.71875 C 6.75 20.703125 6.742188 20.691406 6.730469 20.675781 C 6.605469 20.503906 6.480469 20.324219 6.363281 20.144531 C 5.992188 19.574219 5.660156 18.964844 5.394531 18.332031 C 5.382812 18.300781 5.371094 18.269531 5.359375 18.242188 Z M 25.140625 18.242188 " fill-opacity="1" fill-rule="nonzero"/><g clip-path="url(#120e3aea72)"><path fill="#f9e8de" d="M 26.863281 25.714844 C 26.863281 25.804688 26.789062 25.890625 26.640625 25.980469 C 26.488281 26.066406 26.265625 26.152344 25.972656 26.238281 C 25.675781 26.320312 25.316406 26.398438 24.886719 26.472656 C 24.457031 26.546875 23.972656 26.617188 23.425781 26.679688 C 22.882812 26.742188 22.289062 26.800781 21.648438 26.851562 C 21.007812 26.898438 20.332031 26.941406 19.617188 26.976562 C 18.90625 27.011719 18.171875 27.035156 17.417969 27.054688 C 16.660156 27.070312 15.898438 27.082031 15.128906 27.082031 C 14.355469 27.082031 13.59375 27.070312 12.835938 27.054688 C 12.082031 27.035156 11.347656 27.011719 10.636719 26.976562 C 9.921875 26.941406 9.246094 26.898438 8.605469 26.851562 C 7.964844 26.800781 7.371094 26.742188 6.828125 26.679688 C 6.28125 26.617188 5.796875 26.546875 5.367188 26.472656 C 4.9375 26.398438 4.578125 26.320312 4.28125 26.238281 C 3.988281 26.152344 3.765625 26.066406 3.613281 25.980469 C 3.464844 25.890625 3.390625 25.804688 3.390625 25.714844 C 3.390625 25.625 3.464844 25.535156 3.613281 25.445312 C 3.765625 25.359375 3.988281 25.273438 4.28125 25.191406 C 4.578125 25.109375 4.9375 25.027344 5.367188 24.953125 C 5.796875 24.878906 6.28125 24.808594 6.828125 24.746094 C 7.371094 24.683594 7.964844 24.628906 8.605469 24.578125 C 9.246094 24.527344 9.921875 24.484375 10.636719 24.449219 C 11.347656 24.417969 12.082031 24.390625 12.835938 24.371094 C 13.59375 24.355469 14.355469 24.347656 15.128906 24.347656 C 15.898438 24.347656 16.660156 24.355469 17.417969 24.371094 C 18.171875 24.390625 18.90625 24.417969 19.617188 24.449219 C 20.332031 24.484375 21.007812 24.527344 21.648438 24.578125 C 22.289062 24.628906 22.882812 24.683594 23.425781 24.746094 C 23.972656 24.808594 24.457031 24.878906 24.886719 24.953125 C 25.316406 25.027344 25.675781 25.109375 25.972656 25.191406 C 26.265625 25.273438 26.488281 25.359375 26.640625 25.445312 C 26.789062 25.535156 26.863281 25.625 26.863281 25.714844 Z M 26.863281 25.714844 " fill-opacity="1" fill-rule="nonzero"/></g><path fill="#efbf62" d="M 13.660156 8.550781 L 12.160156 9.332031 C 12.160156 9.332031 12.144531 9.214844 12.15625 9.050781 C 12.175781 8.792969 12.269531 8.421875 12.636719 8.28125 C 13.027344 8.132812 13.347656 8.296875 13.519531 8.425781 C 13.609375 8.496094 13.660156 8.550781 13.660156 8.550781 Z M 13.660156 8.550781 " fill-opacity="1" fill-rule="nonzero"/><path fill="#2e2943" d="M 13.660156 8.550781 L 12.160156 9.332031 C 12.160156 9.332031 12.144531 9.214844 12.15625 9.050781 C 12.367188 8.914062 12.609375 8.78125 12.875 8.664062 C 13.097656 8.566406 13.3125 8.488281 13.519531 8.425781 C 13.609375 8.496094 13.660156 8.550781 13.660156 8.550781 Z M 13.660156 8.550781 " fill-opacity="1" fill-rule="nonzero"/><path fill="#efbf62" d="M 14.984375 8.570312 C 15.019531 8.652344 15.007812 8.75 14.953125 8.863281 C 14.898438 8.980469 14.796875 9.101562 14.660156 9.234375 C 14.519531 9.363281 14.347656 9.496094 14.144531 9.621094 C 13.941406 9.75 13.722656 9.863281 13.492188 9.96875 C 13.257812 10.070312 13.023438 10.15625 12.792969 10.21875 C 12.5625 10.285156 12.355469 10.324219 12.164062 10.339844 C 11.972656 10.355469 11.816406 10.347656 11.691406 10.3125 C 11.570312 10.273438 11.488281 10.214844 11.453125 10.136719 C 11.417969 10.054688 11.425781 9.953125 11.484375 9.839844 C 11.539062 9.722656 11.636719 9.601562 11.777344 9.46875 C 11.917969 9.339844 12.089844 9.210938 12.289062 9.082031 C 12.492188 8.957031 12.710938 8.839844 12.945312 8.738281 C 13.179688 8.632812 13.410156 8.546875 13.640625 8.484375 C 13.871094 8.417969 14.082031 8.378906 14.273438 8.363281 C 14.464844 8.347656 14.621094 8.359375 14.746094 8.394531 C 14.867188 8.429688 14.945312 8.488281 14.984375 8.570312 Z M 14.984375 8.570312 " fill-opacity="1" fill-rule="nonzero"/><path fill="#2e2943" d="M 12.058594 10.257812 C 11.808594 10.257812 11.644531 10.195312 11.589844 10.074219 C 11.523438 9.925781 11.632812 9.714844 11.898438 9.472656 C 12.160156 9.234375 12.542969 9 12.976562 8.808594 C 13.410156 8.617188 13.84375 8.488281 14.195312 8.457031 C 14.550781 8.421875 14.78125 8.480469 14.847656 8.628906 C 14.910156 8.777344 14.800781 8.988281 14.535156 9.230469 C 14.273438 9.46875 13.890625 9.703125 13.457031 9.894531 C 13.023438 10.085938 12.59375 10.214844 12.242188 10.246094 C 12.175781 10.253906 12.117188 10.257812 12.058594 10.257812 Z M 14.378906 8.46875 C 14.320312 8.46875 14.261719 8.472656 14.195312 8.476562 C 13.847656 8.511719 13.417969 8.636719 12.984375 8.828125 C 12.554688 9.019531 12.175781 9.253906 11.914062 9.488281 C 11.65625 9.722656 11.550781 9.925781 11.609375 10.066406 C 11.671875 10.203125 11.894531 10.257812 12.238281 10.226562 C 12.589844 10.191406 13.019531 10.066406 13.449219 9.875 C 13.882812 9.683594 14.261719 9.449219 14.523438 9.214844 C 14.78125 8.980469 14.886719 8.777344 14.828125 8.636719 C 14.777344 8.527344 14.621094 8.46875 14.378906 8.46875 Z M 14.378906 8.46875 " fill-opacity="1" fill-rule="nonzero"/><path fill="#2e2943" d="M 12.347656 9.726562 C 12.347656 9.730469 12.347656 9.730469 12.347656 9.730469 C 12.347656 9.734375 12.347656 9.734375 12.351562 9.738281 C 12.425781 9.902344 12.871094 9.867188 13.351562 9.65625 C 13.46875 9.601562 13.574219 9.546875 13.667969 9.488281 C 13.699219 9.46875 13.726562 9.449219 13.753906 9.429688 C 13.769531 9.421875 13.78125 9.414062 13.792969 9.402344 C 13.953125 9.285156 14.0625 9.164062 14.089844 9.0625 C 14.089844 9.054688 14.09375 9.042969 14.09375 9.035156 C 14.097656 9.011719 14.09375 8.988281 14.085938 8.964844 C 14.074219 8.9375 14.050781 8.917969 14.015625 8.902344 C 13.914062 8.847656 13.722656 8.851562 13.492188 8.910156 C 13.488281 8.910156 13.480469 8.910156 13.476562 8.910156 C 13.421875 8.925781 13.363281 8.941406 13.300781 8.964844 C 13.292969 8.964844 13.289062 8.96875 13.28125 8.972656 C 13.25 8.980469 13.21875 8.992188 13.1875 9.003906 C 13.1875 9.003906 13.1875 9.003906 13.1875 9.007812 C 13.152344 9.019531 13.117188 9.035156 13.082031 9.050781 C 13.058594 9.0625 13.03125 9.074219 13.003906 9.085938 C 12.980469 9.097656 12.960938 9.109375 12.9375 9.121094 C 12.910156 9.132812 12.882812 9.148438 12.855469 9.164062 C 12.835938 9.171875 12.820312 9.183594 12.804688 9.195312 C 12.789062 9.203125 12.773438 9.210938 12.761719 9.222656 C 12.746094 9.230469 12.734375 9.238281 12.71875 9.246094 C 12.707031 9.253906 12.695312 9.261719 12.683594 9.273438 C 12.644531 9.296875 12.609375 9.324219 12.574219 9.351562 C 12.558594 9.363281 12.546875 9.378906 12.53125 9.390625 C 12.515625 9.40625 12.496094 9.421875 12.480469 9.4375 C 12.460938 9.457031 12.441406 9.480469 12.425781 9.5 C 12.394531 9.535156 12.375 9.570312 12.359375 9.605469 C 12.355469 9.609375 12.355469 9.613281 12.355469 9.617188 C 12.351562 9.617188 12.351562 9.621094 12.351562 9.621094 C 12.347656 9.628906 12.347656 9.636719 12.34375 9.644531 C 12.34375 9.644531 12.34375 9.648438 12.34375 9.648438 C 12.335938 9.675781 12.339844 9.703125 12.347656 9.726562 Z M 12.347656 9.726562 " fill-opacity="1" fill-rule="nonzero"/><path fill="#2e2943" d="M 12.394531 9.636719 C 12.394531 9.636719 12.015625 9.875 11.882812 10.277344 C 11.695312 10.867188 11.929688 11.589844 12.777344 11.539062 C 13.621094 11.492188 14.183594 11.363281 14.34375 11.03125 C 14.503906 10.699219 13.96875 9.070312 13.96875 9.070312 Z M 12.394531 9.636719 " fill-opacity="1" fill-rule="nonzero"/><path fill="#ed516f" d="M 13.296875 8.964844 C 13.324219 9.085938 13.417969 9.179688 13.535156 9.207031 C 13.550781 9.210938 13.566406 9.214844 13.582031 9.214844 C 13.59375 9.214844 13.609375 9.214844 13.625 9.214844 C 13.660156 9.214844 13.695312 9.207031 13.726562 9.191406 C 13.796875 9.164062 13.851562 9.113281 13.886719 9.050781 C 13.914062 9 13.929688 8.941406 13.925781 8.878906 C 13.925781 8.875 13.925781 8.875 13.925781 8.871094 C 13.867188 8.859375 13.789062 8.859375 13.703125 8.867188 C 13.640625 8.875 13.566406 8.886719 13.492188 8.90625 C 13.488281 8.910156 13.484375 8.910156 13.480469 8.910156 L 13.476562 8.910156 C 13.421875 8.925781 13.363281 8.941406 13.300781 8.964844 C 13.300781 8.964844 13.300781 8.964844 13.296875 8.964844 Z M 13.296875 8.964844 " fill-opacity="1" fill-rule="nonzero"/><path fill="#db8e63" d="M 13.683594 10.535156 C 13.683594 10.535156 13.933594 11.417969 13.976562 11.507812 C 14.023438 11.597656 13.261719 11.996094 13.09375 11.953125 C 12.925781 11.914062 12.648438 11.566406 12.648438 11.566406 C 12.648438 11.566406 13.011719 10.769531 12.933594 10.523438 C 12.855469 10.277344 13.683594 10.535156 13.683594 10.535156 Z M 13.683594 10.535156 " fill-opacity="1" fill-rule="nonzero"/><path fill="#db8e63" d="M 12.703125 9.835938 C 12.714844 9.933594 12.726562 10.023438 12.742188 10.109375 C 12.769531 10.238281 12.800781 10.351562 12.832031 10.421875 C 12.980469 10.761719 13.28125 11.101562 13.621094 11.039062 C 14.074219 10.957031 14.144531 10.230469 14.117188 9.867188 C 14.113281 9.804688 14.105469 9.734375 14.097656 9.65625 C 14.078125 9.519531 14.042969 9.371094 13.988281 9.230469 C 13.960938 9.167969 13.929688 9.105469 13.890625 9.050781 C 13.839844 8.976562 13.777344 8.917969 13.703125 8.867188 C 13.640625 8.875 13.570312 8.890625 13.492188 8.910156 C 13.488281 8.910156 13.484375 8.910156 13.480469 8.910156 C 13.421875 8.925781 13.363281 8.941406 13.300781 8.964844 C 13.292969 8.964844 13.289062 8.96875 13.28125 8.972656 C 13.253906 8.980469 13.222656 8.992188 13.191406 9.003906 C 13.191406 9.003906 13.1875 9.003906 13.1875 9.003906 C 13.15625 9.019531 13.121094 9.035156 13.085938 9.046875 C 13.058594 9.0625 13.03125 9.070312 13.003906 9.085938 C 12.984375 9.097656 12.960938 9.109375 12.9375 9.121094 C 12.910156 9.132812 12.882812 9.148438 12.855469 9.164062 C 12.835938 9.171875 12.820312 9.183594 12.804688 9.195312 C 12.789062 9.203125 12.777344 9.210938 12.761719 9.222656 C 12.757812 9.222656 12.753906 9.226562 12.75 9.226562 C 12.695312 9.414062 12.6875 9.632812 12.703125 9.835938 Z M 12.703125 9.835938 " fill-opacity="1" fill-rule="nonzero"/><path fill="#2e2943" d="M 13.613281 11.011719 C 13.484375 11.011719 13.308594 10.957031 13.117188 10.746094 C 13.113281 10.742188 13.113281 10.738281 13.117188 10.738281 C 13.121094 10.734375 13.121094 10.734375 13.125 10.738281 C 13.503906 11.15625 13.808594 10.953125 13.8125 10.949219 C 13.8125 10.949219 13.816406 10.949219 13.820312 10.949219 C 13.820312 10.953125 13.820312 10.957031 13.816406 10.957031 C 13.816406 10.960938 13.738281 11.011719 13.613281 11.011719 Z M 13.613281 11.011719 " fill-opacity="1" fill-rule="nonzero"/><path fill="#2e2943" d="M 13.9375 9.894531 C 13.941406 9.941406 13.925781 9.964844 13.886719 9.96875 C 13.847656 9.972656 13.828125 9.953125 13.824219 9.90625 C 13.820312 9.859375 13.839844 9.835938 13.875 9.832031 C 13.914062 9.828125 13.933594 9.851562 13.9375 9.894531 Z M 13.9375 9.894531 " fill-opacity="1" fill-rule="nonzero"/><path fill="#2e2943" d="M 13.652344 10.371094 C 13.648438 10.371094 13.640625 10.367188 13.640625 10.363281 C 13.640625 10.355469 13.644531 10.351562 13.652344 10.347656 L 13.667969 10.347656 C 13.679688 10.34375 13.695312 10.335938 13.699219 10.324219 C 13.707031 10.3125 13.710938 10.300781 13.703125 10.285156 L 13.675781 10.207031 C 13.675781 10.203125 13.675781 10.195312 13.683594 10.191406 C 13.6875 10.191406 13.695312 10.195312 13.699219 10.199219 L 13.726562 10.277344 C 13.734375 10.296875 13.730469 10.320312 13.71875 10.335938 C 13.710938 10.355469 13.691406 10.367188 13.671875 10.371094 Z M 13.652344 10.371094 " fill-opacity="1" fill-rule="nonzero"/><path fill="#2e2943" d="M 13.386719 9.785156 C 13.386719 9.785156 13.21875 9.757812 13.121094 9.867188 Z M 13.386719 9.785156 " fill-opacity="1" fill-rule="nonzero"/><path fill="#2e2943" d="M 13.757812 9.742188 C 13.757812 9.742188 13.871094 9.675781 14.011719 9.75 Z M 13.757812 9.742188 " fill-opacity="1" fill-rule="nonzero"/><path fill="#2e2943" d="M 13.851562 9.839844 C 13.851562 9.839844 13.929688 9.789062 14.011719 9.839844 C 14.011719 9.839844 13.933594 9.835938 13.890625 9.863281 Z M 13.851562 9.839844 " fill-opacity="1" fill-rule="nonzero"/><path fill="#2e2943" d="M 13.40625 10.03125 C 13.410156 10.078125 13.390625 10.105469 13.351562 10.105469 C 13.316406 10.109375 13.292969 10.089844 13.289062 10.042969 C 13.285156 9.996094 13.304688 9.972656 13.34375 9.96875 C 13.378906 9.964844 13.402344 9.988281 13.40625 10.03125 Z M 13.40625 10.03125 " fill-opacity="1" fill-rule="nonzero"/><path fill="#2e2943" d="M 13.367188 9.972656 C 13.367188 9.972656 13.28125 9.9375 13.207031 10 C 13.207031 10 13.285156 9.984375 13.332031 10 Z M 13.367188 9.972656 " fill-opacity="1" fill-rule="nonzero"/><path fill="#2e2943" d="M 12.375 9.570312 C 12.394531 9.660156 12.425781 9.746094 12.460938 9.820312 C 12.515625 9.941406 12.585938 10.042969 12.65625 10.089844 C 12.675781 10.105469 12.707031 10.109375 12.742188 10.109375 C 12.800781 10.109375 12.867188 10.101562 12.867188 10.101562 C 12.894531 10.039062 12.878906 9.886719 12.996094 9.78125 C 13.027344 9.753906 13.066406 9.730469 13.113281 9.714844 C 13.339844 9.632812 13.507812 9.359375 13.582031 9.214844 C 13.613281 9.15625 13.628906 9.121094 13.628906 9.121094 C 13.628906 9.121094 13.667969 9.140625 13.730469 9.191406 C 13.769531 9.226562 13.820312 9.273438 13.875 9.339844 C 13.945312 9.414062 14.019531 9.519531 14.097656 9.652344 C 14.097656 9.65625 14.097656 9.660156 14.101562 9.660156 C 14.101562 9.660156 14.132812 9.378906 14.066406 9.121094 C 14.042969 9.03125 14.003906 8.945312 13.949219 8.875 C 13.941406 8.871094 13.9375 8.871094 13.929688 8.871094 C 13.867188 8.859375 13.792969 8.859375 13.707031 8.867188 C 13.640625 8.875 13.570312 8.886719 13.492188 8.90625 C 13.488281 8.910156 13.484375 8.910156 13.480469 8.910156 C 13.421875 8.925781 13.363281 8.941406 13.300781 8.964844 C 13.292969 8.964844 13.289062 8.96875 13.28125 8.96875 C 13.253906 8.980469 13.222656 8.992188 13.191406 9.003906 C 13.191406 9.003906 13.191406 9.003906 13.1875 9.003906 C 13.15625 9.019531 13.121094 9.03125 13.085938 9.046875 C 13.058594 9.058594 13.03125 9.070312 13.007812 9.085938 C 12.984375 9.097656 12.960938 9.105469 12.941406 9.117188 C 12.910156 9.132812 12.882812 9.148438 12.855469 9.164062 C 12.839844 9.171875 12.824219 9.183594 12.804688 9.191406 C 12.789062 9.203125 12.777344 9.210938 12.761719 9.21875 C 12.757812 9.222656 12.753906 9.226562 12.75 9.226562 C 12.742188 9.234375 12.730469 9.238281 12.722656 9.246094 C 12.710938 9.253906 12.695312 9.261719 12.683594 9.269531 C 12.644531 9.296875 12.609375 9.324219 12.578125 9.351562 C 12.5625 9.363281 12.546875 9.378906 12.53125 9.390625 C 12.515625 9.40625 12.5 9.421875 12.484375 9.4375 C 12.460938 9.457031 12.445312 9.480469 12.425781 9.5 C 12.40625 9.523438 12.390625 9.546875 12.375 9.570312 Z M 12.375 9.570312 " fill-opacity="1" fill-rule="nonzero"/><path fill="#2e2943" d="M 12.992188 9.65625 C 13.117188 9.660156 13.242188 9.65625 13.363281 9.648438 C 13.386719 9.648438 13.410156 9.644531 13.433594 9.644531 L 13.433594 9.617188 L 13.445312 9.460938 L 13.480469 9.59375 L 13.496094 9.640625 C 13.878906 9.605469 14.183594 9.53125 14.183594 9.53125 C 14.171875 9.367188 14.125 9.21875 14.074219 9.101562 C 14.035156 9.007812 13.992188 8.929688 13.960938 8.878906 C 13.957031 8.875 13.953125 8.875 13.949219 8.875 C 13.941406 8.875 13.9375 8.871094 13.929688 8.871094 C 13.894531 8.863281 13.859375 8.863281 13.820312 8.863281 Z M 12.992188 9.65625 " fill-opacity="1" fill-rule="nonzero"/><path fill="#db8e63" d="M 12.808594 10.105469 C 12.808594 10.105469 12.574219 10.054688 12.582031 10.253906 C 12.589844 10.449219 12.917969 10.585938 12.917969 10.585938 Z M 12.808594 10.105469 " fill-opacity="1" fill-rule="nonzero"/><path fill="#2e2943" d="M 12.753906 10.226562 C 12.753906 10.226562 12.621094 10.257812 12.777344 10.398438 Z M 12.753906 10.226562 " fill-opacity="1" fill-rule="nonzero"/><path fill="#2e2943" d="M 13.828125 10.542969 C 13.828125 10.558594 13.820312 10.582031 13.8125 10.605469 C 13.796875 10.648438 13.765625 10.695312 13.730469 10.707031 C 13.707031 10.710938 13.675781 10.703125 13.648438 10.6875 C 13.609375 10.664062 13.574219 10.628906 13.5625 10.597656 C 13.558594 10.585938 13.554688 10.574219 13.558594 10.5625 C 13.578125 10.527344 13.648438 10.542969 13.695312 10.539062 C 13.738281 10.535156 13.796875 10.496094 13.824219 10.507812 C 13.832031 10.511719 13.832031 10.527344 13.828125 10.542969 Z M 13.828125 10.542969 " fill-opacity="1" fill-rule="nonzero"/><path fill="#ed516f" d="M 13.8125 10.605469 C 13.796875 10.648438 13.765625 10.695312 13.730469 10.707031 C 13.707031 10.714844 13.675781 10.703125 13.648438 10.6875 C 13.664062 10.65625 13.71875 10.574219 13.8125 10.605469 Z M 13.8125 10.605469 " fill-opacity="1" fill-rule="nonzero"/><path fill="#ffffff" d="M 13.828125 10.542969 C 13.804688 10.558594 13.757812 10.582031 13.722656 10.585938 C 13.671875 10.59375 13.589844 10.597656 13.5625 10.597656 C 13.554688 10.585938 13.554688 10.574219 13.558594 10.5625 C 13.578125 10.527344 13.648438 10.542969 13.695312 10.539062 C 13.738281 10.535156 13.792969 10.496094 13.824219 10.507812 C 13.832031 10.511719 13.832031 10.527344 13.828125 10.542969 Z M 13.828125 10.542969 " fill-opacity="1" fill-rule="nonzero"/><path fill="#db8e63" d="M 13.992188 25.398438 L 13.964844 25.578125 L 13.542969 25.570312 L 13.148438 25.03125 L 12.945312 24.539062 L 13.5625 24.582031 C 13.570312 24.683594 13.582031 24.757812 13.59375 24.777344 C 13.65625 24.878906 13.992188 25.398438 13.992188 25.398438 Z M 13.992188 25.398438 " fill-opacity="1" fill-rule="nonzero"/><path fill="#db8e63" d="M 13.5625 24.582031 L 13.640625 24.046875 L 12.914062 23.929688 L 12.945312 24.539062 L 13.367188 24.667969 Z M 13.5625 24.582031 " fill-opacity="1" fill-rule="nonzero"/><path fill="#2e2943" d="M 12.945312 24.539062 C 12.945312 24.539062 12.839844 24.613281 12.816406 24.773438 C 12.792969 24.933594 12.859375 25.265625 12.808594 25.488281 L 13.011719 25.519531 L 13.070312 25.132812 L 13.429688 25.617188 L 13.535156 25.632812 L 14.363281 25.757812 C 14.363281 25.757812 14.421875 25.722656 14.382812 25.636719 C 14.347656 25.550781 13.992188 25.394531 13.992188 25.394531 C 13.992188 25.394531 13.949219 25.496094 13.757812 25.46875 C 13.570312 25.441406 12.972656 24.578125 12.945312 24.539062 C 12.941406 24.539062 12.945312 24.539062 12.945312 24.539062 Z M 12.945312 24.539062 " fill-opacity="1" fill-rule="nonzero"/><path fill="#db8e63" d="M 14.644531 15.167969 C 14.644531 15.167969 15.027344 16.109375 14.90625 17.164062 C 14.78125 18.222656 14.335938 20.582031 14.277344 20.996094 C 14.214844 21.410156 13.640625 24.046875 13.640625 24.046875 C 13.640625 24.046875 12.925781 24.523438 12.910156 23.929688 C 12.902344 23.578125 13.203125 20.214844 13.203125 20.214844 L 13.542969 15.253906 Z M 14.644531 15.167969 " fill-opacity="1" fill-rule="nonzero"/><path fill="#db8e63" d="M 12.535156 25.207031 C 12.535156 25.207031 12.546875 25.144531 12.574219 24.976562 C 12.597656 24.804688 12.609375 24.773438 12.59375 24.644531 C 12.59375 24.640625 12.992188 23.503906 13.007812 23.421875 L 12.445312 23.34375 C 12.445312 23.417969 12.039062 24.429688 12.039062 24.480469 C 12.003906 24.628906 11.957031 24.796875 11.921875 24.90625 C 11.84375 25.148438 11.914062 25.363281 11.914062 25.363281 C 11.914062 25.363281 11.855469 25.367188 11.925781 25.441406 C 11.996094 25.519531 12.339844 25.589844 12.417969 25.566406 C 12.496094 25.542969 12.535156 25.207031 12.535156 25.207031 Z M 12.535156 25.207031 " fill-opacity="1" fill-rule="nonzero"/><path fill="#2e2943" d="M 12.539062 25.183594 C 12.539062 25.183594 12.464844 25.515625 12.234375 25.464844 C 12.140625 25.445312 12.015625 25.40625 11.960938 25.320312 C 11.886719 25.199219 12.007812 24.648438 12.023438 24.546875 C 12.023438 24.546875 11.980469 24.59375 11.957031 24.695312 C 11.929688 24.828125 11.910156 24.890625 11.875 25.023438 C 11.875 25.03125 11.839844 25.132812 11.792969 25.375 C 11.777344 25.441406 11.824219 25.671875 11.882812 25.707031 C 11.941406 25.742188 12.328125 25.863281 12.390625 25.828125 C 12.453125 25.792969 12.484375 25.613281 12.515625 25.480469 C 12.550781 25.351562 12.539062 25.183594 12.539062 25.183594 Z M 12.539062 25.183594 " fill-opacity="1" fill-rule="nonzero"/><path fill="#db8e63" d="M 12.1875 15.078125 C 12.1875 15.078125 11.859375 16.097656 12.058594 17.308594 C 12.257812 18.519531 12.78125 20.433594 12.78125 20.433594 C 12.78125 20.433594 12.605469 20.871094 12.542969 21.253906 C 12.421875 21.972656 12.023438 24.546875 12.023438 24.546875 C 12.023438 24.546875 12.207031 24.347656 12.726562 24.226562 C 12.726562 24.226562 13.847656 21.0625 13.96875 20.527344 C 14.089844 19.992188 13.695312 17.121094 13.695312 17.121094 L 13.773438 15.125 Z M 12.1875 15.078125 " fill-opacity="1" fill-rule="nonzero"/><path fill="#2e2943" d="M 12.820312 23.890625 C 12.820312 23.890625 12.820312 23.890625 12.816406 23.890625 C 12.8125 23.890625 12.8125 23.886719 12.8125 23.882812 C 12.824219 23.851562 13.839844 21.054688 13.960938 20.523438 C 14.082031 19.996094 13.691406 17.152344 13.6875 17.125 C 13.6875 17.117188 13.691406 17.113281 13.695312 17.113281 C 13.699219 17.113281 13.703125 17.117188 13.703125 17.121094 C 13.707031 17.148438 14.097656 19.996094 13.976562 20.527344 C 13.855469 21.058594 12.839844 23.859375 12.828125 23.886719 C 12.828125 23.890625 12.824219 23.890625 12.820312 23.890625 Z M 12.820312 23.890625 " fill-opacity="1" fill-rule="nonzero"/><path fill="#6e59d3" d="M 12.847656 11.058594 C 12.847656 11.058594 12.167969 11.242188 11.988281 11.582031 C 11.8125 11.921875 12.140625 12.238281 12.179688 13.253906 C 12.21875 14.265625 12.277344 14.585938 12.1875 15.078125 C 12.1875 15.078125 13.597656 15.371094 14.644531 15.167969 C 14.644531 15.167969 14.570312 14.703125 14.589844 14.085938 C 14.609375 13.46875 14.882812 13.101562 14.753906 12.636719 C 14.621094 12.171875 14.503906 11.003906 14.503906 11.003906 L 13.816406 10.984375 C 13.816406 10.984375 14.03125 11.6875 13.660156 11.714844 C 13.292969 11.742188 12.847656 11.058594 12.847656 11.058594 Z M 12.847656 11.058594 " fill-opacity="1" fill-rule="nonzero"/><path fill="#ed516f" d="M 12.226562 14.78125 C 12.226562 14.78125 12.167969 15.234375 12.0625 15.480469 C 11.882812 15.910156 11.617188 16.496094 11.648438 17.402344 C 11.675781 18.285156 11.726562 18.664062 11.714844 19.144531 C 11.695312 20.070312 11.4375 21.074219 11.4375 21.074219 L 11.933594 21.132812 C 11.933594 21.132812 11.855469 21.632812 11.894531 21.660156 C 11.933594 21.6875 14.414062 22.199219 15.367188 21.761719 C 15.367188 21.761719 15.195312 19.929688 15.296875 18.558594 C 15.363281 17.597656 14.988281 16.269531 14.800781 15.542969 C 14.71875 15.230469 14.730469 15.019531 14.730469 15.019531 C 14.730469 15.019531 13.019531 15.066406 12.226562 14.78125 Z M 12.226562 14.78125 " fill-opacity="1" fill-rule="nonzero"/><path fill="#2e2943" d="M 11.933594 21.148438 C 11.933594 21.148438 11.933594 21.148438 11.929688 21.148438 C 11.921875 21.148438 11.917969 21.140625 11.917969 21.128906 C 11.921875 21.121094 12.171875 20.023438 12.210938 19.078125 C 12.210938 19.070312 12.21875 19.0625 12.226562 19.0625 C 12.238281 19.066406 12.242188 19.074219 12.242188 19.082031 C 12.203125 20.027344 11.953125 21.125 11.949219 21.136719 C 11.949219 21.144531 11.941406 21.148438 11.933594 21.148438 Z M 11.933594 21.148438 " fill-opacity="1" fill-rule="nonzero"/><path fill="#2e2943" d="M 14.777344 21.320312 C 14.769531 21.320312 14.761719 21.3125 14.761719 21.308594 C 14.730469 21.164062 14.773438 19.730469 14.792969 19.683594 C 14.796875 19.675781 14.804688 19.671875 14.8125 19.675781 C 14.820312 19.679688 14.824219 19.6875 14.824219 19.695312 C 14.804688 19.75 14.765625 21.171875 14.792969 21.300781 C 14.796875 21.308594 14.789062 21.316406 14.78125 21.320312 C 14.78125 21.320312 14.777344 21.320312 14.777344 21.320312 Z M 14.777344 21.320312 " fill-opacity="1" fill-rule="nonzero"/><path fill="#2e2943" d="M 14.460938 20.84375 C 14.453125 20.84375 14.445312 20.835938 14.445312 20.828125 C 14.410156 20.6875 14.457031 19.253906 14.472656 19.207031 C 14.476562 19.199219 14.488281 19.195312 14.496094 19.199219 C 14.503906 19.203125 14.507812 19.210938 14.503906 19.21875 C 14.488281 19.273438 14.445312 20.695312 14.476562 20.820312 C 14.476562 20.832031 14.472656 20.839844 14.464844 20.839844 C 14.460938 20.839844 14.460938 20.84375 14.460938 20.84375 Z M 14.460938 20.84375 " fill-opacity="1" fill-rule="nonzero"/><path fill="#db8e63" d="M 11.988281 11.582031 C 11.988281 11.582031 11.671875 11.875 11.519531 12.617188 C 11.367188 13.355469 11.195312 14.402344 11.128906 14.589844 C 11.0625 14.78125 10.613281 17.03125 10.613281 17.03125 L 11.097656 17.03125 C 11.097656 17.03125 11.636719 15.871094 11.835938 14.933594 C 11.96875 14.308594 12.277344 13.121094 12.277344 13.121094 L 12.4375 11.894531 Z M 11.988281 11.582031 " fill-opacity="1" fill-rule="nonzero"/><path fill="#6e59d3" d="M 12.234375 13.433594 C 11.898438 13.539062 11.378906 13.238281 11.378906 13.238281 C 11.378906 13.238281 11.5625 11.839844 12.078125 11.46875 L 12.554688 11.742188 L 12.609375 12.328125 Z M 12.234375 13.433594 " fill-opacity="1" fill-rule="nonzero"/><path fill="#2e2943" d="M 12.238281 13.40625 C 12.238281 13.40625 12.238281 13.40625 12.234375 13.40625 C 12.226562 13.402344 12.222656 13.394531 12.222656 13.386719 L 12.386719 12.792969 C 12.386719 12.78125 12.394531 12.777344 12.40625 12.78125 C 12.414062 12.78125 12.417969 12.792969 12.417969 12.800781 L 12.253906 13.394531 C 12.253906 13.402344 12.246094 13.40625 12.238281 13.40625 Z M 12.238281 13.40625 " fill-opacity="1" fill-rule="nonzero"/><path fill="#2e2943" d="M 12.203125 14.960938 C 12.203125 14.960938 13.488281 15.355469 14.734375 15.125 L 14.789062 15.453125 C 14.789062 15.453125 13.4375 15.667969 12.128906 15.261719 Z M 12.203125 14.960938 " fill-opacity="1" fill-rule="nonzero"/><path fill="#ffffff" d="M 13.675781 15.546875 C 13.671875 15.546875 13.667969 15.546875 13.664062 15.546875 L 13.316406 15.519531 L 13.34375 15.148438 L 13.691406 15.175781 C 13.792969 15.183594 13.871094 15.273438 13.863281 15.375 C 13.855469 15.472656 13.773438 15.546875 13.675781 15.546875 Z M 13.664062 15.511719 C 13.746094 15.515625 13.820312 15.453125 13.824219 15.371094 C 13.832031 15.289062 13.769531 15.21875 13.6875 15.210938 L 13.378906 15.1875 L 13.355469 15.488281 Z M 13.664062 15.511719 " fill-opacity="1" fill-rule="nonzero"/><path fill="#ffffff" d="M 13.238281 15.351562 L 13.246094 15.296875 L 13.441406 15.316406 L 13.4375 15.371094 Z M 13.238281 15.351562 " fill-opacity="1" fill-rule="nonzero"/><path fill="#db8e63" d="M 14.476562 16.941406 C 14.476562 16.941406 14.328125 17.449219 14.339844 17.5625 C 14.351562 17.675781 14.5 18.019531 14.558594 18.058594 C 14.621094 18.097656 14.777344 18.148438 14.910156 18.148438 C 15.039062 18.152344 15.15625 18.085938 15.148438 18.0625 C 15.140625 18.035156 15.058594 17.976562 14.988281 17.980469 C 14.988281 17.980469 15.101562 17.933594 15.074219 17.882812 C 15.046875 17.832031 14.953125 17.890625 14.875 17.898438 C 14.800781 17.90625 14.667969 17.832031 14.652344 17.75 C 14.632812 17.667969 14.695312 17.472656 14.695312 17.472656 C 14.695312 17.472656 14.890625 17.414062 14.964844 17.332031 C 15.035156 17.257812 15.027344 17.082031 14.984375 16.9375 C 14.941406 16.792969 14.476562 16.941406 14.476562 16.941406 Z M 14.476562 16.941406 " fill-opacity="1" fill-rule="nonzero"/><path fill="#db8e63" d="M 14.695312 17.472656 C 14.695312 17.472656 14.757812 17.621094 14.769531 17.707031 C 14.78125 17.792969 14.800781 17.945312 14.902344 17.921875 C 15.003906 17.898438 14.984375 17.726562 14.953125 17.585938 C 14.917969 17.445312 14.984375 17.296875 14.984375 17.296875 L 14.722656 17.226562 Z M 14.695312 17.472656 " fill-opacity="1" fill-rule="nonzero"/><path fill="#2e2943" d="M 14.839844 18.007812 C 14.765625 18.007812 14.6875 17.996094 14.660156 17.945312 C 14.605469 17.847656 14.601562 17.800781 14.597656 17.800781 C 14.597656 17.792969 14.601562 17.785156 14.609375 17.785156 C 14.617188 17.785156 14.625 17.789062 14.625 17.796875 C 14.625 17.796875 14.632812 17.839844 14.683594 17.933594 C 14.722656 18.003906 14.914062 17.984375 14.984375 17.96875 C 14.992188 17.96875 15 17.972656 15 17.980469 C 15.003906 17.988281 15 17.992188 14.992188 17.996094 C 14.984375 17.996094 14.914062 18.007812 14.839844 18.007812 Z M 14.839844 18.007812 " fill-opacity="1" fill-rule="nonzero"/><path fill="#a2a2ed" d="M 14.636719 10.664062 C 14.636719 10.664062 14.367188 10.816406 14.367188 11.738281 C 14.367188 12.664062 14.441406 13.8125 14.441406 13.8125 C 14.441406 13.8125 14.394531 14.933594 14.394531 15.605469 C 14.394531 16.28125 14.484375 16.574219 14.484375 16.574219 L 14.421875 17.082031 C 14.421875 17.082031 14.804688 16.875 15.007812 17.074219 C 15.007812 17.074219 15.050781 16.765625 15.03125 16.566406 C 15.03125 16.566406 15.230469 16.355469 15.207031 15.902344 C 15.179688 15.445312 15.394531 14.21875 15.394531 14.21875 L 15.25 13.011719 L 15.074219 11.207031 Z M 14.636719 10.664062 " fill-opacity="1" fill-rule="nonzero"/><path fill="#2e2943" d="M 14.484375 16.589844 C 14.480469 16.589844 14.472656 16.585938 14.472656 16.582031 C 14.46875 16.570312 14.46875 16.5625 14.476562 16.558594 C 14.484375 16.554688 14.617188 16.492188 14.886719 16.542969 C 14.894531 16.546875 14.902344 16.554688 14.898438 16.5625 C 14.898438 16.570312 14.890625 16.578125 14.878906 16.578125 C 14.621094 16.523438 14.492188 16.585938 14.492188 16.589844 C 14.492188 16.589844 14.488281 16.589844 14.484375 16.589844 Z M 14.484375 16.589844 " fill-opacity="1" fill-rule="nonzero"/><path fill="#db8e63" d="M 15.539062 10.144531 C 15.550781 10.246094 15.78125 10.675781 16.089844 10.78125 C 16.515625 10.929688 17.058594 10.671875 17.09375 9.9375 C 17.089844 9.921875 16.585938 8.449219 16.582031 8.433594 C 16.582031 8.433594 15.984375 8.480469 15.984375 8.480469 C 15.683594 8.660156 16.140625 8.820312 15.84375 9 C 15.84375 9 15.734375 9.65625 15.734375 9.65625 C 15.734375 9.65625 15.734375 9.65625 15.734375 9.664062 C 15.738281 9.683594 15.746094 9.753906 15.738281 9.824219 C 15.738281 9.824219 15.738281 9.828125 15.738281 9.828125 C 15.734375 9.871094 15.726562 9.914062 15.703125 9.941406 C 15.691406 9.960938 15.679688 9.972656 15.667969 9.988281 C 15.601562 10.066406 15.535156 10.109375 15.539062 10.144531 Z M 15.539062 10.144531 " fill-opacity="1" fill-rule="nonzero"/><path fill="#db8e63" d="M 15.355469 8.949219 C 15.414062 9.433594 15.550781 9.929688 16.019531 9.90625 C 16.34375 9.890625 16.703125 9.480469 16.8125 9.078125 C 16.871094 8.871094 16.925781 8.691406 16.9375 8.550781 C 16.949219 8.441406 16.949219 8.375 16.949219 8.375 L 16.898438 8.125 L 16.863281 7.980469 C 16.863281 7.980469 16.769531 7.886719 16.664062 7.78125 C 16.535156 7.648438 16.292969 7.796875 16.292969 7.789062 C 16.285156 7.773438 15.652344 7.617188 15.421875 7.851562 C 15.421875 7.855469 15.421875 7.855469 15.421875 7.855469 C 15.398438 7.875 15.382812 7.898438 15.371094 7.921875 C 15.363281 7.941406 15.355469 7.960938 15.355469 7.984375 C 15.351562 8.023438 15.34375 8.082031 15.339844 8.15625 C 15.335938 8.191406 15.335938 8.226562 15.332031 8.261719 C 15.332031 8.324219 15.328125 8.390625 15.328125 8.464844 C 15.328125 8.613281 15.335938 8.78125 15.355469 8.949219 Z M 15.355469 8.949219 " fill-opacity="1" fill-rule="nonzero"/><path fill="#2e2943" d="M 15.988281 9.921875 C 15.910156 9.921875 15.839844 9.90625 15.777344 9.875 C 15.769531 9.875 15.769531 9.867188 15.769531 9.859375 C 15.773438 9.855469 15.78125 9.851562 15.785156 9.855469 C 15.855469 9.886719 15.933594 9.898438 16.019531 9.894531 C 16.214844 9.886719 16.433594 9.730469 16.609375 9.476562 C 16.613281 9.46875 16.621094 9.46875 16.625 9.472656 C 16.632812 9.476562 16.632812 9.484375 16.628906 9.488281 C 16.449219 9.75 16.222656 9.910156 16.019531 9.917969 C 16.011719 9.921875 16 9.921875 15.988281 9.921875 Z M 15.988281 9.921875 " fill-opacity="1" fill-rule="nonzero"/><path fill="#2e2943" d="M 16.859375 9.046875 C 16.855469 9.066406 17.476562 8.214844 17.300781 7.769531 C 17.125 7.320312 16.78125 7.414062 16.78125 7.414062 C 16.78125 7.414062 16.492188 6.507812 15.664062 7.164062 C 15.664062 7.164062 15.1875 7.257812 15.105469 7.648438 C 15.023438 8.039062 15.335938 8.261719 15.335938 8.261719 C 15.335938 8.261719 15.351562 7.933594 15.566406 7.9375 C 15.722656 7.945312 15.613281 8.101562 16.039062 8.039062 C 16.300781 8 16.382812 7.828125 16.527344 7.921875 C 16.671875 8.015625 16.546875 8.078125 16.632812 8.53125 C 16.683594 8.808594 16.878906 8.832031 16.859375 9.046875 Z M 16.859375 9.046875 " fill-opacity="1" fill-rule="nonzero"/><path fill="#e8d2c4" d="M 15.859375 7.878906 C 15.839844 7.878906 15.824219 7.875 15.800781 7.875 L 15.804688 7.859375 C 16.148438 7.878906 16.375 7.726562 16.445312 7.640625 L 16.453125 7.648438 C 16.453125 7.652344 16.261719 7.878906 15.859375 7.878906 Z M 15.859375 7.878906 " fill-opacity="1" fill-rule="nonzero"/><path fill="#e8d2c4" d="M 15.351562 7.828125 L 15.339844 7.820312 C 15.476562 7.683594 15.578125 7.707031 15.71875 7.742188 L 15.730469 7.746094 C 15.875 7.78125 16.222656 7.660156 16.226562 7.660156 L 16.230469 7.671875 C 16.21875 7.675781 15.878906 7.796875 15.726562 7.761719 L 15.714844 7.757812 C 15.574219 7.71875 15.480469 7.695312 15.351562 7.828125 Z M 15.351562 7.828125 " fill-opacity="1" fill-rule="nonzero"/><path fill="#e8d2c4" d="M 16.601562 7.695312 L 16.59375 7.6875 C 16.664062 7.621094 16.773438 7.410156 16.773438 7.410156 L 16.789062 7.417969 C 16.78125 7.425781 16.675781 7.628906 16.601562 7.695312 Z M 16.601562 7.695312 " fill-opacity="1" fill-rule="nonzero"/><path fill="#db8e63" d="M 16.800781 8.628906 C 16.800781 8.628906 17.09375 8.464844 17.066406 8.746094 C 17.039062 9.03125 16.761719 9.136719 16.761719 9.136719 Z M 16.800781 8.628906 " fill-opacity="1" fill-rule="nonzero"/><path fill="#2e2943" d="M 16.863281 8.726562 C 16.863281 8.726562 17.085938 8.671875 16.847656 8.964844 Z M 16.863281 8.726562 " fill-opacity="1" fill-rule="nonzero"/><path fill="#f9e8de" d="M 16.144531 9.40625 L 15.789062 9.457031 C 15.789062 9.457031 15.976562 9.703125 16.144531 9.40625 Z M 16.144531 9.40625 " fill-opacity="1" fill-rule="nonzero"/><path fill="#2e2943" d="M 15.683594 8.851562 C 15.695312 8.902344 15.683594 8.929688 15.65625 8.9375 C 15.625 8.945312 15.605469 8.921875 15.59375 8.871094 C 15.582031 8.820312 15.59375 8.792969 15.621094 8.785156 C 15.652344 8.78125 15.671875 8.800781 15.683594 8.851562 Z M 15.683594 8.851562 " fill-opacity="1" fill-rule="nonzero"/><path fill="#2e2943" d="M 16.210938 8.792969 C 16.222656 8.84375 16.214844 8.875 16.1875 8.878906 C 16.15625 8.886719 16.136719 8.863281 16.125 8.816406 C 16.113281 8.765625 16.121094 8.734375 16.152344 8.730469 C 16.179688 8.722656 16.203125 8.746094 16.210938 8.792969 Z M 16.210938 8.792969 " fill-opacity="1" fill-rule="nonzero"/><path fill="#2e2943" d="M 15.675781 8.609375 C 15.675781 8.609375 15.546875 8.515625 15.433594 8.574219 Z M 15.675781 8.609375 " fill-opacity="1" fill-rule="nonzero"/><path fill="#2e2943" d="M 16.34375 8.523438 C 16.335938 8.523438 16.167969 8.496094 16.070312 8.601562 Z M 16.34375 8.523438 " fill-opacity="1" fill-rule="nonzero"/><path fill="#2e2943" d="M 15.890625 9.199219 C 15.851562 9.199219 15.835938 9.179688 15.828125 9.167969 C 15.808594 9.128906 15.835938 9.074219 15.867188 9.050781 C 15.875 9.046875 15.882812 9.046875 15.882812 9.054688 C 15.886719 9.058594 15.886719 9.066406 15.882812 9.070312 C 15.851562 9.089844 15.835938 9.132812 15.847656 9.15625 C 15.859375 9.179688 15.894531 9.179688 15.945312 9.164062 C 15.953125 9.164062 15.957031 9.167969 15.960938 9.171875 C 15.964844 9.179688 15.960938 9.1875 15.953125 9.1875 C 15.925781 9.199219 15.90625 9.199219 15.890625 9.199219 Z M 15.890625 9.199219 " fill-opacity="1" fill-rule="nonzero"/><path fill="#2e2943" d="M 15.09375 15.382812 C 15.09375 15.382812 14.949219 16.257812 15.085938 17.207031 C 15.226562 18.15625 15.984375 21.496094 15.984375 21.496094 C 15.984375 21.496094 16.046875 22.34375 16.171875 23.191406 C 16.300781 24.039062 16.488281 24.367188 16.488281 24.367188 C 16.488281 24.367188 16.503906 24.507812 16.578125 24.761719 C 16.578125 24.761719 17.210938 25.144531 17.664062 24.84375 L 17.304688 21.179688 L 17.3125 19.917969 L 17.125 17.203125 L 16.6875 15.636719 Z M 15.09375 15.382812 " fill-opacity="1" fill-rule="nonzero"/><path fill="#2e2943" d="M 18.519531 15.671875 C 18.519531 15.671875 18.753906 16.636719 18.726562 17.597656 C 18.703125 18.558594 18.484375 20.558594 18.484375 20.558594 C 18.484375 20.558594 18.664062 21.417969 18.6875 22.46875 C 18.714844 23.519531 18.527344 24.660156 18.527344 24.660156 C 18.527344 24.660156 17.882812 24.996094 17.5 24.769531 C 17.5 24.769531 17.273438 22.050781 17.160156 21.316406 C 17.042969 20.582031 16.96875 20.050781 16.894531 19.101562 C 16.816406 18.152344 16.566406 15.625 16.566406 15.625 Z M 18.519531 15.671875 " fill-opacity="1" fill-rule="nonzero"/><path fill="#f9e8de" d="M 17.488281 24.773438 C 17.488281 24.746094 17.261719 22.042969 17.148438 21.320312 C 17.039062 20.605469 16.960938 20.070312 16.882812 19.105469 C 16.808594 18.164062 16.554688 15.648438 16.554688 15.625 L 16.578125 15.621094 C 16.578125 15.648438 16.832031 18.164062 16.90625 19.101562 C 16.984375 20.066406 17.0625 20.605469 17.171875 21.316406 C 17.285156 22.042969 17.511719 24.742188 17.511719 24.769531 Z M 17.488281 24.773438 " fill-opacity="1" fill-rule="nonzero"/><path fill="#db8e63" d="M 19.144531 14.796875 L 19.007812 15.238281 C 19.007812 15.234375 19.007812 15.234375 19.007812 15.234375 L 19.007812 15.238281 C 19.007812 15.238281 19.003906 15.238281 19.003906 15.238281 L 19.003906 15.242188 C 18.996094 15.285156 18.953125 15.453125 18.859375 15.425781 C 18.75 15.394531 18.78125 15.316406 18.804688 15.238281 C 18.824219 15.160156 18.84375 15.015625 18.882812 14.769531 C 18.898438 14.675781 18.917969 14.605469 18.9375 14.550781 Z M 19.144531 14.796875 " fill-opacity="1" fill-rule="nonzero"/><path fill="#a2a2ed" d="M 16.933594 9.445312 C 16.933594 9.445312 18.171875 9.652344 18.5625 9.839844 C 18.5625 9.839844 18.511719 11.765625 18.574219 12.878906 C 18.636719 13.992188 18.613281 14.75 18.511719 15.003906 C 18.511719 15.003906 18.652344 15.441406 18.632812 15.699219 C 18.632812 15.699219 17.25 15.757812 16.289062 15.730469 C 15.328125 15.707031 15.097656 15.382812 15.097656 15.382812 L 15.117188 14.953125 C 15.117188 14.953125 15.164062 14.648438 15.167969 14.078125 C 15.175781 13.511719 15.054688 12.984375 14.984375 12.363281 C 14.917969 11.746094 14.640625 10.664062 14.640625 10.664062 L 15.738281 9.851562 C 15.738281 9.851562 15.824219 10.605469 16.144531 10.609375 C 16.667969 10.617188 16.933594 9.445312 16.933594 9.445312 Z M 16.933594 9.445312 " fill-opacity="1" fill-rule="nonzero"/><path fill="#2e2943" d="M 15.09375 15.363281 C 15.085938 15.363281 15.078125 15.351562 15.078125 15.34375 C 15.078125 15.335938 15.144531 14.640625 15.152344 14.078125 C 15.15625 13.695312 15.070312 13.101562 14.996094 12.578125 C 14.957031 12.324219 14.921875 12.082031 14.898438 11.882812 C 14.898438 11.875 14.90625 11.863281 14.914062 11.863281 C 14.921875 11.863281 14.933594 11.871094 14.933594 11.878906 C 14.957031 12.078125 14.988281 12.320312 15.027344 12.574219 C 15.101562 13.097656 15.1875 13.691406 15.183594 14.078125 C 15.179688 14.644531 15.113281 15.339844 15.113281 15.347656 C 15.109375 15.355469 15.105469 15.363281 15.09375 15.363281 Z M 15.09375 15.363281 " fill-opacity="1" fill-rule="nonzero"/><path fill="#ffffff" d="M 15.398438 12.871094 L 15.363281 12.871094 C 15.363281 12.867188 15.390625 12.488281 15.363281 12.023438 L 15.398438 12.023438 C 15.425781 12.488281 15.398438 12.871094 15.398438 12.871094 Z M 15.398438 12.871094 " fill-opacity="1" fill-rule="nonzero"/><path fill="#ffffff" d="M 16.464844 12.976562 L 16.4375 12.953125 C 16.460938 12.929688 16.46875 12.867188 16.476562 12.765625 C 16.488281 12.609375 16.511719 12.347656 16.628906 11.925781 L 16.664062 11.933594 C 16.546875 12.351562 16.523438 12.613281 16.511719 12.769531 C 16.503906 12.882812 16.496094 12.945312 16.464844 12.976562 Z M 16.464844 12.976562 " fill-opacity="1" fill-rule="nonzero"/><path fill="#2e2943" d="M 16.644531 11.964844 C 16.644531 11.964844 16.644531 11.964844 16.640625 11.964844 C 16.621094 11.960938 16.609375 11.945312 16.609375 11.925781 C 16.6875 11.183594 16.808594 10.722656 16.894531 10.386719 C 17.003906 9.960938 17.074219 9.78125 16.925781 9.480469 C 16.917969 9.464844 16.902344 9.375 16.902344 9.375 C 16.933594 9.386719 16.957031 9.414062 16.964844 9.429688 C 17.128906 9.757812 17.070312 9.972656 16.960938 10.40625 C 16.875 10.738281 16.757812 11.195312 16.679688 11.933594 C 16.679688 11.949219 16.664062 11.964844 16.644531 11.964844 Z M 16.644531 11.964844 " fill-opacity="1" fill-rule="nonzero"/><path fill="#ffffff" d="M 15.4375 12.945312 L 15.4375 13.625 C 15.4375 13.644531 15.453125 13.660156 15.472656 13.660156 L 16.527344 13.660156 C 16.546875 13.660156 16.5625 13.644531 16.5625 13.625 L 16.5625 12.945312 C 16.5625 12.925781 16.546875 12.910156 16.527344 12.910156 L 15.472656 12.910156 C 15.453125 12.910156 15.4375 12.925781 15.4375 12.945312 Z M 15.4375 12.945312 " fill-opacity="1" fill-rule="nonzero"/><path fill="#ffffff" d="M 16.550781 12.925781 L 16.445312 12.832031 L 16.417969 12.90625 L 16.492188 12.953125 Z M 16.550781 12.925781 " fill-opacity="1" fill-rule="nonzero"/><path fill="#ffffff" d="M 15.445312 13.644531 L 15.351562 13.5625 L 15.441406 13.535156 C 15.441406 13.535156 15.484375 13.554688 15.484375 13.5625 C 15.484375 13.570312 15.445312 13.644531 15.445312 13.644531 Z M 15.445312 13.644531 " fill-opacity="1" fill-rule="nonzero"/><path fill="#ffffff" d="M 15.335938 12.859375 L 15.335938 13.539062 C 15.335938 13.558594 15.355469 13.574219 15.375 13.574219 L 16.425781 13.574219 C 16.445312 13.574219 16.460938 13.558594 16.460938 13.539062 L 16.460938 12.859375 C 16.460938 12.839844 16.445312 12.824219 16.425781 12.824219 L 15.375 12.824219 C 15.355469 12.824219 15.335938 12.839844 15.335938 12.859375 Z M 15.335938 12.859375 " fill-opacity="1" fill-rule="nonzero"/><path fill="#2e2943" d="M 16.421875 13.578125 L 15.375 13.578125 C 15.371094 13.578125 15.367188 13.574219 15.367188 13.574219 C 15.367188 13.570312 15.371094 13.566406 15.375 13.566406 L 16.421875 13.566406 C 16.441406 13.566406 16.453125 13.554688 16.453125 13.535156 L 16.453125 12.859375 C 16.453125 12.855469 16.457031 12.855469 16.460938 12.855469 C 16.460938 12.855469 16.464844 12.855469 16.464844 12.859375 L 16.464844 13.539062 C 16.464844 13.558594 16.445312 13.578125 16.421875 13.578125 Z M 16.421875 13.578125 " fill-opacity="1" fill-rule="nonzero"/><path fill="#2e2943" d="M 15.335938 13.03125 L 16.460938 13.03125 L 16.460938 13.460938 L 15.335938 13.460938 Z M 15.335938 13.03125 " fill-opacity="1" fill-rule="nonzero"/><path fill="#2e2943" d="M 16.023438 13.246094 C 16.023438 13.328125 15.996094 13.398438 15.941406 13.457031 C 15.886719 13.515625 15.820312 13.542969 15.742188 13.542969 C 15.664062 13.542969 15.597656 13.515625 15.542969 13.457031 C 15.484375 13.398438 15.457031 13.328125 15.457031 13.246094 C 15.457031 13.164062 15.484375 13.09375 15.542969 13.035156 C 15.597656 12.980469 15.664062 12.949219 15.742188 12.949219 C 15.820312 12.949219 15.886719 12.980469 15.941406 13.035156 C 15.996094 13.09375 16.023438 13.164062 16.023438 13.246094 Z M 16.023438 13.246094 " fill-opacity="1" fill-rule="nonzero"/><path fill="#ffffff" d="M 15.976562 13.246094 C 15.976562 13.316406 15.957031 13.375 15.910156 13.425781 C 15.863281 13.472656 15.804688 13.496094 15.742188 13.496094 C 15.675781 13.496094 15.617188 13.472656 15.574219 13.425781 C 15.527344 13.375 15.503906 13.316406 15.503906 13.246094 C 15.503906 13.179688 15.527344 13.121094 15.574219 13.070312 C 15.617188 13.019531 15.675781 12.996094 15.742188 12.996094 C 15.804688 12.996094 15.863281 13.019531 15.910156 13.070312 C 15.957031 13.121094 15.976562 13.179688 15.976562 13.246094 Z M 15.976562 13.246094 " fill-opacity="1" fill-rule="nonzero"/><path fill="#2e2943" d="M 15.925781 13.246094 C 15.925781 13.378906 15.863281 13.445312 15.742188 13.445312 C 15.617188 13.445312 15.554688 13.378906 15.554688 13.246094 C 15.554688 13.117188 15.617188 13.050781 15.742188 13.050781 C 15.863281 13.050781 15.925781 13.117188 15.925781 13.246094 Z M 15.925781 13.246094 " fill-opacity="1" fill-rule="nonzero"/><path fill="#ffffff" d="M 15.429688 12.925781 L 15.511719 12.925781 C 15.527344 12.925781 15.539062 12.914062 15.539062 12.898438 C 15.539062 12.882812 15.527344 12.871094 15.511719 12.871094 L 15.429688 12.871094 C 15.414062 12.871094 15.402344 12.882812 15.402344 12.898438 C 15.402344 12.914062 15.414062 12.925781 15.429688 12.925781 Z M 15.429688 12.925781 " fill-opacity="1" fill-rule="nonzero"/><path fill="#2e2943" d="M 16.347656 12.921875 C 16.347656 12.949219 16.335938 12.964844 16.308594 12.964844 C 16.28125 12.964844 16.269531 12.949219 16.269531 12.921875 C 16.269531 12.898438 16.28125 12.882812 16.308594 12.882812 C 16.335938 12.882812 16.347656 12.898438 16.347656 12.921875 Z M 16.347656 12.921875 " fill-opacity="1" fill-rule="nonzero"/><path fill="#ffffff" d="M 15.566406 12.871094 L 15.988281 12.871094 L 15.914062 12.746094 L 15.644531 12.746094 Z M 15.566406 12.871094 " fill-opacity="1" fill-rule="nonzero"/><path fill="#ffffff" d="M 15.671875 13.144531 C 15.671875 13.160156 15.667969 13.167969 15.652344 13.167969 C 15.640625 13.167969 15.632812 13.160156 15.632812 13.144531 C 15.632812 13.128906 15.640625 13.121094 15.652344 13.121094 C 15.667969 13.121094 15.671875 13.128906 15.671875 13.144531 Z M 15.671875 13.144531 " fill-opacity="1" fill-rule="nonzero"/><path fill="#2e2943" d="M 15.382812 12.058594 C 15.363281 12.058594 15.347656 12.042969 15.347656 12.023438 C 15.339844 11.90625 15.332031 11.792969 15.320312 11.683594 C 15.246094 11.042969 15.453125 10.1875 15.6875 9.804688 L 15.738281 9.84375 C 15.511719 10.214844 15.320312 11.050781 15.390625 11.675781 C 15.402344 11.785156 15.414062 11.902344 15.417969 12.023438 C 15.421875 12.042969 15.40625 12.058594 15.386719 12.058594 C 15.382812 12.058594 15.382812 12.058594 15.382812 12.058594 Z M 15.382812 12.058594 " fill-opacity="1" fill-rule="nonzero"/><path fill="#ed516f" d="M 21.457031 19.136719 C 21.457031 19.136719 21.753906 19.09375 21.898438 19.195312 C 22.039062 19.300781 22.332031 20.496094 22.304688 20.796875 L 22.355469 21.40625 C 22.355469 21.40625 22.503906 21.386719 22.539062 21.613281 C 22.578125 21.839844 22.8125 24.125 22.617188 24.476562 C 22.421875 24.824219 21.957031 24.851562 21.957031 24.851562 L 21.558594 22.445312 Z M 21.457031 19.136719 " fill-opacity="1" fill-rule="nonzero"/><path fill="#2e2943" d="M 20.625 25.617188 C 20.625 25.6875 20.601562 25.746094 20.550781 25.796875 C 20.5 25.84375 20.441406 25.871094 20.371094 25.871094 C 20.300781 25.871094 20.242188 25.84375 20.191406 25.796875 C 20.140625 25.746094 20.117188 25.6875 20.117188 25.617188 C 20.117188 25.546875 20.140625 25.484375 20.191406 25.4375 C 20.242188 25.386719 20.300781 25.363281 20.371094 25.363281 C 20.441406 25.363281 20.5 25.386719 20.550781 25.4375 C 20.601562 25.484375 20.625 25.546875 20.625 25.617188 Z M 20.625 25.617188 " fill-opacity="1" fill-rule="nonzero"/><path fill="#2e2943" d="M 20.449219 24.972656 C 20.449219 24.972656 20.441406 25.183594 20.410156 25.296875 L 20.410156 25.410156 C 20.410156 25.410156 20.527344 25.570312 20.480469 25.675781 C 20.429688 25.777344 20.132812 25.535156 20.097656 25.472656 C 20.058594 25.410156 20.035156 25.109375 20.035156 25.109375 Z M 20.449219 24.972656 " fill-opacity="1" fill-rule="nonzero"/><path fill="#2e2943" d="M 22.101562 25.578125 C 22.101562 25.648438 22.074219 25.707031 22.027344 25.757812 C 21.976562 25.808594 21.917969 25.832031 21.847656 25.832031 C 21.777344 25.832031 21.714844 25.808594 21.667969 25.757812 C 21.617188 25.707031 21.59375 25.648438 21.59375 25.578125 C 21.59375 25.507812 21.617188 25.449219 21.667969 25.398438 C 21.714844 25.347656 21.777344 25.324219 21.847656 25.324219 C 21.917969 25.324219 21.976562 25.347656 22.027344 25.398438 C 22.074219 25.449219 22.101562 25.507812 22.101562 25.578125 Z M 22.101562 25.578125 " fill-opacity="1" fill-rule="nonzero"/><path fill="#2e2943" d="M 21.925781 24.933594 C 21.925781 24.933594 21.914062 25.144531 21.882812 25.257812 L 21.882812 25.371094 C 21.882812 25.371094 22.003906 25.53125 21.957031 25.636719 C 21.90625 25.738281 21.609375 25.496094 21.574219 25.433594 C 21.535156 25.371094 21.507812 25.070312 21.507812 25.070312 Z M 21.925781 24.933594 " fill-opacity="1" fill-rule="nonzero"/><path fill="#ed516f" d="M 21.980469 24.917969 C 21.78125 25.117188 20.664062 25.277344 20.183594 25.199219 C 20.082031 25.183594 20.011719 25.160156 19.980469 25.121094 C 19.824219 24.949219 19.5 21.351562 19.457031 19.828125 C 19.457031 19.722656 19.453125 19.628906 19.453125 19.546875 C 19.453125 19.328125 19.464844 19.1875 19.488281 19.15625 C 19.546875 19.082031 19.796875 19.011719 20.101562 18.964844 C 20.613281 18.882812 21.273438 18.863281 21.375 18.964844 C 21.535156 19.125 21.570312 19.648438 21.75 21.058594 C 21.933594 22.464844 21.980469 24.917969 21.980469 24.917969 Z M 21.980469 24.917969 " fill-opacity="1" fill-rule="nonzero"/><path fill="#2e2943" d="M 21.957031 24.863281 C 21.949219 24.863281 21.941406 24.855469 21.941406 24.851562 C 21.941406 24.824219 21.917969 22.449219 21.738281 21.058594 C 21.703125 20.800781 21.675781 20.574219 21.652344 20.371094 C 21.539062 19.472656 21.492188 19.101562 21.363281 18.972656 C 21.359375 18.96875 21.359375 18.957031 21.363281 18.953125 C 21.371094 18.949219 21.378906 18.949219 21.386719 18.953125 C 21.519531 19.085938 21.566406 19.460938 21.679688 20.367188 C 21.703125 20.570312 21.734375 20.796875 21.765625 21.054688 C 21.949219 22.449219 21.96875 24.824219 21.96875 24.847656 C 21.96875 24.855469 21.964844 24.863281 21.957031 24.863281 Z M 21.957031 24.863281 " fill-opacity="1" fill-rule="nonzero"/><path fill="#2e2943" d="M 22.371094 24.308594 C 22.363281 24.308594 22.359375 24.300781 22.359375 24.292969 C 22.359375 24.28125 22.28125 22.894531 22.273438 22.222656 C 22.265625 21.550781 22.339844 21.40625 22.34375 21.402344 C 22.347656 21.394531 22.355469 21.390625 22.363281 21.394531 C 22.371094 21.398438 22.371094 21.40625 22.367188 21.414062 C 22.367188 21.417969 22.292969 21.5625 22.300781 22.222656 C 22.308594 22.894531 22.386719 24.277344 22.386719 24.292969 C 22.386719 24.300781 22.378906 24.304688 22.375 24.308594 C 22.375 24.308594 22.371094 24.308594 22.371094 24.308594 Z M 22.371094 24.308594 " fill-opacity="1" fill-rule="nonzero"/><path fill="#2e2943" d="M 20.269531 21.429688 C 20.269531 21.429688 20.125 20.660156 20.511719 20.660156 C 20.898438 20.660156 20.894531 21.324219 20.871094 21.382812 C 20.847656 21.445312 20.289062 21.574219 20.269531 21.429688 Z M 20.269531 21.429688 " fill-opacity="1" fill-rule="nonzero"/><path fill="#2e2943" d="M 20.414062 22.753906 C 20.414062 22.753906 20.429688 23.492188 20.808594 23.414062 C 21.1875 23.335938 21.050781 22.6875 21.015625 22.632812 C 20.980469 22.578125 20.402344 22.609375 20.414062 22.753906 Z M 20.414062 22.753906 " fill-opacity="1" fill-rule="nonzero"/><path fill="#2e2943" d="M 20.738281 22.992188 C 20.632812 23 20.542969 22.921875 20.53125 22.820312 L 20.390625 21.195312 C 20.378906 21.089844 20.457031 21 20.5625 20.988281 C 20.664062 20.980469 20.757812 21.058594 20.765625 21.160156 L 20.910156 22.785156 C 20.917969 22.890625 20.84375 22.980469 20.738281 22.992188 Z M 20.738281 22.992188 " fill-opacity="1" fill-rule="nonzero"/><path fill="#2e2943" d="M 19.515625 19.394531 C 19.484375 19.394531 19.457031 19.371094 19.453125 19.339844 L 19.113281 15.265625 C 19.109375 15.230469 19.132812 15.203125 19.167969 15.199219 C 19.203125 15.195312 19.230469 15.222656 19.234375 15.253906 L 19.574219 19.328125 C 19.578125 19.359375 19.554688 19.390625 19.519531 19.394531 C 19.519531 19.394531 19.515625 19.394531 19.515625 19.394531 Z M 19.515625 19.394531 " fill-opacity="1" fill-rule="nonzero"/><path fill="#2e2943" d="M 19.453125 15.085938 C 19.453125 15.164062 19.425781 15.230469 19.371094 15.285156 C 19.316406 15.339844 19.25 15.367188 19.171875 15.367188 C 19.09375 15.367188 19.03125 15.339844 18.976562 15.285156 C 18.921875 15.230469 18.894531 15.164062 18.894531 15.085938 C 18.894531 15.011719 18.921875 14.945312 18.976562 14.890625 C 19.03125 14.835938 19.09375 14.808594 19.171875 14.808594 C 19.25 14.808594 19.316406 14.835938 19.371094 14.890625 C 19.425781 14.945312 19.453125 15.011719 19.453125 15.085938 Z M 19.453125 15.085938 " fill-opacity="1" fill-rule="nonzero"/><path fill="#2e2943" d="M 20.101562 18.964844 C 20.09375 19.007812 20.035156 19.238281 19.796875 19.378906 C 19.644531 19.46875 19.527344 19.671875 19.457031 19.828125 C 19.449219 19.449219 19.457031 19.199219 19.488281 19.160156 C 19.546875 19.082031 19.800781 19.011719 20.101562 18.964844 Z M 20.101562 18.964844 " fill-opacity="1" fill-rule="nonzero"/><path fill="#db8e63" d="M 19.539062 15.410156 C 19.433594 15.589844 19.363281 15.5625 19.363281 15.5625 C 19.34375 15.625 19.125 15.71875 19.011719 15.722656 C 18.898438 15.726562 18.789062 15.632812 18.789062 15.632812 C 18.839844 15.550781 18.941406 15.570312 18.996094 15.5625 C 19.050781 15.554688 19.109375 15.46875 19.109375 15.46875 C 19.109375 15.46875 19.175781 15.351562 19.191406 15.214844 C 19.207031 15.078125 19.144531 14.796875 19.144531 14.796875 L 18.933594 14.550781 C 18.960938 14.460938 18.988281 14.414062 19.003906 14.367188 C 19.027344 14.285156 19.113281 14.152344 19.113281 14.152344 L 19.640625 14.253906 C 19.640625 14.253906 19.699219 14.707031 19.71875 14.878906 C 19.738281 15.050781 19.644531 15.230469 19.539062 15.410156 Z M 19.539062 15.410156 " fill-opacity="1" fill-rule="nonzero"/><path fill="#2e2943" d="M 19.363281 15.582031 C 19.359375 15.582031 19.355469 15.578125 19.355469 15.578125 C 19.347656 15.574219 19.34375 15.5625 19.347656 15.554688 C 19.347656 15.554688 19.457031 15.347656 19.492188 15.183594 C 19.496094 15.175781 19.503906 15.171875 19.511719 15.171875 C 19.519531 15.171875 19.527344 15.183594 19.523438 15.191406 C 19.488281 15.355469 19.382812 15.5625 19.375 15.570312 C 19.375 15.578125 19.367188 15.582031 19.363281 15.582031 Z M 19.363281 15.582031 " fill-opacity="1" fill-rule="nonzero"/><path fill="#a2a2ed" d="M 18.5625 9.839844 C 18.5625 9.839844 18.917969 10.042969 19.21875 10.5625 C 19.523438 11.082031 20.382812 12.15625 20.472656 12.484375 C 20.558594 12.8125 20.414062 13.226562 20.226562 13.546875 C 20.035156 13.871094 20.054688 14.25 19.835938 14.363281 L 19.6875 14.667969 C 19.6875 14.667969 19.574219 14.136719 19.085938 14.195312 L 19.25 13.84375 C 19.25 13.84375 19.214844 13.710938 19.328125 13.324219 C 19.441406 12.941406 19.449219 12.707031 19.449219 12.707031 C 19.449219 12.707031 18.617188 12.042969 18.335938 11.589844 C 18.054688 11.140625 18.222656 10.214844 18.222656 10.214844 Z M 18.5625 9.839844 " fill-opacity="1" fill-rule="nonzero"/><path fill="#2e2943" d="M 18.539062 11.867188 C 18.535156 11.867188 18.53125 11.867188 18.527344 11.863281 L 18.144531 11.441406 C 18.140625 11.4375 18.140625 11.425781 18.144531 11.421875 C 18.152344 11.414062 18.164062 11.414062 18.167969 11.421875 L 18.550781 11.839844 C 18.558594 11.847656 18.558594 11.859375 18.550781 11.863281 C 18.546875 11.867188 18.542969 11.867188 18.539062 11.867188 Z M 18.539062 11.867188 " fill-opacity="1" fill-rule="nonzero"/><path fill="#2e2943" d="M 19.777344 14.28125 C 19.773438 14.28125 19.765625 14.277344 19.761719 14.269531 C 19.542969 13.863281 19.253906 13.859375 19.25 13.859375 C 19.238281 13.859375 19.230469 13.851562 19.230469 13.84375 C 19.230469 13.835938 19.238281 13.828125 19.25 13.828125 C 19.261719 13.828125 19.5625 13.828125 19.792969 14.253906 C 19.796875 14.261719 19.792969 14.273438 19.785156 14.277344 C 19.78125 14.277344 19.78125 14.28125 19.777344 14.28125 Z M 19.777344 14.28125 " fill-opacity="1" fill-rule="nonzero"/><path fill="#2e2943" d="M 15.203125 25.550781 C 15.203125 25.550781 15.136719 25.933594 15.585938 25.980469 C 16.039062 26.027344 16.351562 26.003906 16.585938 25.953125 C 16.816406 25.902344 16.949219 25.828125 17.191406 25.847656 C 17.4375 25.867188 17.6875 25.96875 17.8125 25.847656 C 17.910156 25.746094 17.820312 25.464844 17.820312 25.464844 L 16.472656 25.472656 Z M 15.203125 25.550781 " fill-opacity="1" fill-rule="nonzero"/><path fill="#ed516f" d="M 16.636719 24.710938 C 16.636719 24.710938 16.09375 25.109375 15.832031 25.238281 C 15.566406 25.371094 15.226562 25.28125 15.203125 25.550781 C 15.179688 25.824219 15.921875 25.761719 16.355469 25.722656 C 16.789062 25.683594 17.09375 25.511719 17.324219 25.582031 C 17.550781 25.648438 17.804688 25.539062 17.820312 25.464844 C 17.835938 25.390625 17.726562 24.730469 17.667969 24.664062 C 17.667969 24.664062 17.636719 24.796875 17.210938 24.808594 C 16.78125 24.820312 16.636719 24.710938 16.636719 24.710938 Z M 16.636719 24.710938 " fill-opacity="1" fill-rule="nonzero"/><path fill="#2e2943" d="M 15.75 25.769531 C 15.507812 25.769531 15.316406 25.742188 15.230469 25.660156 C 15.199219 25.632812 15.1875 25.59375 15.191406 25.550781 C 15.191406 25.542969 15.195312 25.539062 15.203125 25.539062 C 15.210938 25.539062 15.214844 25.546875 15.214844 25.554688 C 15.210938 25.589844 15.222656 25.617188 15.25 25.644531 C 15.40625 25.800781 16.046875 25.742188 16.355469 25.710938 C 16.539062 25.695312 16.699219 25.65625 16.84375 25.617188 C 17.039062 25.570312 17.191406 25.53125 17.328125 25.570312 C 17.484375 25.617188 17.65625 25.578125 17.746094 25.523438 C 17.78125 25.503906 17.804688 25.480469 17.808594 25.460938 C 17.808594 25.457031 17.816406 25.453125 17.820312 25.453125 C 17.828125 25.453125 17.832031 25.460938 17.832031 25.46875 C 17.824219 25.5 17.789062 25.527344 17.761719 25.542969 C 17.664062 25.601562 17.484375 25.640625 17.320312 25.59375 C 17.191406 25.554688 17.039062 25.59375 16.847656 25.640625 C 16.707031 25.679688 16.542969 25.71875 16.355469 25.734375 C 16.144531 25.757812 15.933594 25.769531 15.75 25.769531 Z M 15.75 25.769531 " fill-opacity="1" fill-rule="nonzero"/><path fill="#ffffff" d="M 16.128906 25.28125 L 16.125 25.285156 C 16.109375 25.292969 16.09375 25.289062 16.085938 25.277344 L 16.003906 25.136719 C 16 25.125 16.003906 25.109375 16.015625 25.101562 L 16.023438 25.097656 C 16.035156 25.089844 16.050781 25.09375 16.058594 25.105469 L 16.140625 25.246094 C 16.148438 25.257812 16.144531 25.273438 16.128906 25.28125 Z M 16.128906 25.28125 " fill-opacity="1" fill-rule="nonzero"/><path fill="#ffffff" d="M 16.25 25.195312 L 16.246094 25.199219 C 16.230469 25.207031 16.214844 25.203125 16.207031 25.191406 L 16.128906 25.050781 C 16.121094 25.039062 16.125 25.023438 16.136719 25.015625 L 16.144531 25.011719 C 16.15625 25.003906 16.171875 25.007812 16.179688 25.019531 L 16.261719 25.160156 C 16.269531 25.171875 16.265625 25.1875 16.25 25.195312 Z M 16.25 25.195312 " fill-opacity="1" fill-rule="nonzero"/><path fill="#ffffff" d="M 16.394531 25.105469 L 16.386719 25.109375 C 16.375 25.113281 16.355469 25.109375 16.351562 25.097656 L 16.269531 24.960938 C 16.261719 24.949219 16.265625 24.933594 16.277344 24.925781 L 16.285156 24.921875 C 16.296875 24.914062 16.3125 24.917969 16.320312 24.929688 L 16.402344 25.066406 C 16.410156 25.082031 16.40625 25.097656 16.394531 25.105469 Z M 16.394531 25.105469 " fill-opacity="1" fill-rule="nonzero"/><path fill="#ffffff" d="M 16.53125 25.015625 L 16.527344 25.019531 C 16.511719 25.023438 16.496094 25.019531 16.488281 25.007812 L 16.410156 24.871094 C 16.402344 24.859375 16.40625 24.84375 16.417969 24.835938 L 16.425781 24.832031 C 16.4375 24.824219 16.453125 24.828125 16.460938 24.839844 L 16.542969 24.976562 C 16.550781 24.988281 16.546875 25.007812 16.53125 25.015625 Z M 16.53125 25.015625 " fill-opacity="1" fill-rule="nonzero"/><path fill="#2e2943" d="M 18.601562 25.105469 C 18.601562 25.105469 18.601562 25.730469 18.53125 25.832031 C 18.300781 26.183594 17.675781 26.15625 17.347656 26.007812 C 17.140625 25.914062 17.261719 25.476562 17.261719 25.476562 Z M 18.601562 25.105469 " fill-opacity="1" fill-rule="nonzero"/><path fill="#ed516f" d="M 17.605469 24.59375 C 17.605469 24.59375 17.421875 25.042969 17.394531 25.09375 C 17.371094 25.140625 16.9375 25.84375 17.640625 25.894531 C 18.347656 25.941406 18.488281 25.824219 18.589844 25.339844 C 18.648438 25.058594 18.503906 24.550781 18.503906 24.550781 C 18.503906 24.550781 18.460938 24.710938 18.226562 24.746094 C 17.8125 24.804688 17.667969 24.738281 17.605469 24.59375 Z M 17.605469 24.59375 " fill-opacity="1" fill-rule="nonzero"/><path fill="#2e2943" d="M 17.898438 25.914062 C 17.820312 25.914062 17.734375 25.914062 17.640625 25.90625 C 17.453125 25.890625 17.324219 25.828125 17.265625 25.722656 C 17.214844 25.625 17.191406 25.4375 17.378906 25.101562 C 17.378906 25.09375 17.382812 25.089844 17.382812 25.085938 C 17.386719 25.082031 17.394531 25.078125 17.402344 25.082031 C 17.40625 25.085938 17.410156 25.09375 17.40625 25.097656 C 17.40625 25.101562 17.402344 25.105469 17.398438 25.113281 C 17.21875 25.4375 17.238281 25.617188 17.289062 25.710938 C 17.34375 25.808594 17.460938 25.867188 17.640625 25.878906 C 18.351562 25.929688 18.476562 25.808594 18.574219 25.335938 C 18.578125 25.332031 18.582031 25.324219 18.589844 25.328125 C 18.597656 25.328125 18.601562 25.335938 18.601562 25.34375 C 18.511719 25.761719 18.398438 25.914062 17.898438 25.914062 Z M 17.898438 25.914062 " fill-opacity="1" fill-rule="nonzero"/><path fill="#ffffff" d="M 17.671875 24.902344 L 18.207031 24.90625 C 18.226562 24.90625 18.242188 24.890625 18.242188 24.871094 C 18.242188 24.851562 18.226562 24.835938 18.207031 24.835938 L 17.671875 24.828125 C 17.652344 24.828125 17.636719 24.847656 17.636719 24.867188 C 17.636719 24.886719 17.652344 24.902344 17.671875 24.902344 Z M 17.671875 24.902344 " fill-opacity="1" fill-rule="nonzero"/><path fill="#ffffff" d="M 17.65625 25.046875 L 18.191406 25.054688 C 18.210938 25.054688 18.226562 25.035156 18.226562 25.015625 C 18.226562 24.996094 18.210938 24.980469 18.191406 24.980469 L 17.660156 24.976562 C 17.640625 24.976562 17.621094 24.992188 17.621094 25.011719 C 17.621094 25.03125 17.636719 25.046875 17.65625 25.046875 Z M 17.65625 25.046875 " fill-opacity="1" fill-rule="nonzero"/><path fill="#ffffff" d="M 17.644531 25.21875 L 18.175781 25.222656 C 18.195312 25.222656 18.210938 25.207031 18.214844 25.1875 C 18.214844 25.167969 18.195312 25.152344 18.175781 25.152344 L 17.644531 25.148438 C 17.625 25.148438 17.609375 25.164062 17.609375 25.183594 C 17.609375 25.203125 17.625 25.21875 17.644531 25.21875 Z M 17.644531 25.21875 " fill-opacity="1" fill-rule="nonzero"/><path fill="#f9e8de" d="M 16.457031 17.203125 C 16.414062 17.203125 16.382812 17.199219 16.367188 17.179688 C 16.328125 17.128906 16.285156 15.964844 16.277344 15.730469 L 16.300781 15.730469 C 16.320312 16.28125 16.359375 17.121094 16.386719 17.164062 C 16.410156 17.195312 16.597656 17.167969 16.722656 17.140625 L 16.726562 17.164062 C 16.691406 17.175781 16.554688 17.203125 16.457031 17.203125 Z M 16.457031 17.203125 " fill-opacity="1" fill-rule="nonzero"/><path fill="#db8e63" d="M 10.703125 16.785156 C 10.703125 16.785156 10.339844 17.109375 10.292969 17.203125 C 10.246094 17.296875 10.199219 17.636719 10.226562 17.695312 C 10.253906 17.757812 10.351562 17.871094 10.453125 17.9375 C 10.554688 18.003906 10.675781 18.007812 10.683594 17.984375 C 10.691406 17.960938 10.65625 17.875 10.597656 17.84375 C 10.597656 17.84375 10.710938 17.863281 10.714844 17.808594 C 10.714844 17.753906 10.613281 17.757812 10.550781 17.726562 C 10.488281 17.695312 10.421875 17.570312 10.445312 17.5 C 10.472656 17.429688 10.617188 17.304688 10.617188 17.304688 C 10.617188 17.304688 10.796875 17.355469 10.894531 17.328125 C 10.988281 17.300781 11.0625 17.164062 11.097656 17.027344 C 11.136719 16.894531 10.703125 16.785156 10.703125 16.785156 Z M 10.703125 16.785156 " fill-opacity="1" fill-rule="nonzero"/><path fill="#2e2943" d="M 10.597656 17.847656 C 10.597656 17.847656 10.597656 17.847656 10.59375 17.847656 C 10.585938 17.84375 10.359375 17.761719 10.363281 17.65625 C 10.371094 17.554688 10.386719 17.515625 10.386719 17.515625 C 10.390625 17.511719 10.394531 17.507812 10.394531 17.511719 C 10.398438 17.511719 10.402344 17.515625 10.398438 17.519531 C 10.398438 17.519531 10.382812 17.558594 10.375 17.65625 C 10.371094 17.75 10.597656 17.835938 10.597656 17.835938 C 10.601562 17.839844 10.605469 17.84375 10.601562 17.84375 C 10.601562 17.847656 10.601562 17.847656 10.597656 17.847656 Z M 10.597656 17.847656 " fill-opacity="1" fill-rule="nonzero"/><path fill="#efbf62" d="M 6.328125 24.023438 L 7.042969 21.21875 C 7.125 20.925781 7.382812 20.722656 7.683594 20.699219 L 10.121094 20.539062 C 10.402344 20.519531 10.671875 20.671875 10.804688 20.921875 L 11.167969 21.710938 L 7.882812 21.945312 L 7.144531 25.300781 L 6.5 24.71875 C 6.324219 24.535156 6.257812 24.269531 6.328125 24.023438 Z M 6.328125 24.023438 " fill-opacity="1" fill-rule="nonzero"/><path fill="#2e2943" d="M 8.4375 21.914062 L 8.5 21.800781 C 8.585938 21.628906 8.753906 21.515625 8.945312 21.5 L 10.042969 21.402344 C 10.273438 21.382812 10.492188 21.507812 10.59375 21.71875 Z M 8.4375 21.914062 " fill-opacity="1" fill-rule="nonzero"/><path fill="#2e2943" d="M 7.785156 22.042969 L 7.046875 25.074219 C 7.011719 25.214844 7.121094 25.347656 7.265625 25.34375 L 10.089844 25.101562 C 10.1875 25.097656 10.269531 25.03125 10.292969 24.941406 L 11.203125 21.808594 C 11.226562 21.710938 11.152344 21.621094 11.054688 21.628906 L 7.980469 21.878906 C 7.886719 21.886719 7.808594 21.953125 7.785156 22.042969 Z M 7.785156 22.042969 " fill-opacity="1" fill-rule="nonzero"/><path fill="#2e2943" d="M 6.667969 24.632812 C 6.667969 24.632812 6.667969 24.632812 6.664062 24.632812 C 6.65625 24.628906 6.652344 24.621094 6.652344 24.613281 L 7.480469 21.480469 C 7.523438 21.332031 7.65625 21.226562 7.804688 21.214844 L 10.703125 21 C 10.710938 21 10.71875 21.007812 10.71875 21.015625 C 10.71875 21.023438 10.710938 21.03125 10.703125 21.03125 L 7.808594 21.246094 C 7.667969 21.253906 7.550781 21.351562 7.507812 21.488281 L 6.683594 24.621094 C 6.679688 24.628906 6.675781 24.632812 6.667969 24.632812 Z M 6.667969 24.632812 " fill-opacity="1" fill-rule="nonzero"/><path fill="#efbf62" d="M 10.3125 22.652344 L 8.59375 22.75 C 8.550781 22.753906 8.519531 22.722656 8.515625 22.683594 C 8.515625 22.644531 8.542969 22.609375 8.585938 22.605469 L 10.304688 22.507812 C 10.34375 22.507812 10.378906 22.539062 10.382812 22.578125 C 10.382812 22.617188 10.351562 22.652344 10.3125 22.652344 Z M 10.3125 22.652344 " fill-opacity="1" fill-rule="nonzero"/><path fill="#efbf62" d="M 10.191406 23.183594 L 8.472656 23.277344 C 8.433594 23.28125 8.398438 23.25 8.394531 23.210938 C 8.394531 23.171875 8.425781 23.136719 8.464844 23.136719 L 10.183594 23.039062 C 10.226562 23.035156 10.257812 23.066406 10.261719 23.105469 C 10.261719 23.144531 10.234375 23.179688 10.191406 23.183594 Z M 10.191406 23.183594 " fill-opacity="1" fill-rule="nonzero"/><path fill="#efbf62" d="M 10.0625 23.738281 L 8.34375 23.835938 C 8.304688 23.839844 8.269531 23.808594 8.265625 23.769531 C 8.265625 23.726562 8.296875 23.695312 8.335938 23.691406 L 10.054688 23.59375 C 10.097656 23.59375 10.128906 23.621094 10.132812 23.664062 C 10.132812 23.703125 10.105469 23.738281 10.0625 23.738281 Z M 10.0625 23.738281 " fill-opacity="1" fill-rule="nonzero"/><path fill="#efbf62" d="M 9.902344 24.320312 L 8.183594 24.417969 C 8.140625 24.421875 8.109375 24.390625 8.105469 24.351562 C 8.105469 24.308594 8.132812 24.277344 8.175781 24.273438 L 9.894531 24.175781 C 9.933594 24.175781 9.96875 24.203125 9.972656 24.246094 C 9.972656 24.285156 9.945312 24.320312 9.902344 24.320312 Z M 9.902344 24.320312 " fill-opacity="1" fill-rule="nonzero"/><path fill="#2e2943" d="M 8.773438 21.96875 C 8.769531 21.96875 8.765625 21.96875 8.757812 21.964844 C 8.726562 21.957031 8.707031 21.925781 8.714844 21.894531 L 9.679688 18.019531 C 9.757812 17.703125 10.035156 17.480469 10.359375 17.476562 C 10.582031 17.472656 10.785156 17.566406 10.921875 17.734375 C 11.058594 17.90625 11.113281 18.125 11.066406 18.339844 L 10.3125 21.691406 C 10.304688 21.726562 10.273438 21.746094 10.242188 21.738281 C 10.207031 21.730469 10.1875 21.699219 10.195312 21.667969 L 10.949219 18.3125 C 10.988281 18.136719 10.945312 17.953125 10.828125 17.8125 C 10.714844 17.671875 10.542969 17.589844 10.363281 17.59375 C 10.09375 17.597656 9.859375 17.785156 9.796875 18.046875 L 8.832031 21.921875 C 8.824219 21.949219 8.800781 21.96875 8.773438 21.96875 Z M 8.773438 21.96875 " fill-opacity="1" fill-rule="nonzero"/><path fill="#efbf62" d="M 10.941406 18.757812 C 10.933594 18.757812 10.925781 18.757812 10.914062 18.753906 C 10.851562 18.738281 10.808594 18.675781 10.824219 18.609375 L 10.886719 18.300781 C 10.925781 18.140625 10.886719 17.976562 10.78125 17.847656 C 10.679688 17.722656 10.523438 17.652344 10.363281 17.65625 C 10.121094 17.660156 9.914062 17.824219 9.855469 18.0625 L 9.757812 18.492188 C 9.742188 18.558594 9.675781 18.597656 9.613281 18.582031 C 9.546875 18.566406 9.507812 18.503906 9.523438 18.4375 L 9.621094 18.007812 C 9.703125 17.664062 10.007812 17.417969 10.359375 17.414062 C 10.363281 17.414062 10.367188 17.414062 10.371094 17.414062 C 10.605469 17.414062 10.820312 17.515625 10.96875 17.695312 C 11.117188 17.882812 11.175781 18.121094 11.125 18.351562 L 11.058594 18.660156 C 11.046875 18.71875 10.996094 18.757812 10.941406 18.757812 Z M 10.941406 18.757812 " fill-opacity="1" fill-rule="nonzero"/><path fill="#2e2943" d="M 7.664062 25.3125 C 7.671875 25.414062 7.664062 25.503906 7.640625 25.578125 C 7.621094 25.652344 7.589844 25.691406 7.546875 25.695312 C 7.507812 25.695312 7.472656 25.664062 7.4375 25.59375 C 7.402344 25.527344 7.378906 25.441406 7.371094 25.339844 C 7.363281 25.238281 7.371094 25.148438 7.390625 25.074219 C 7.414062 25 7.445312 24.960938 7.484375 24.960938 C 7.527344 24.957031 7.5625 24.988281 7.597656 25.058594 C 7.632812 25.128906 7.652344 25.210938 7.664062 25.3125 Z M 7.664062 25.3125 " fill-opacity="1" fill-rule="nonzero"/><path fill="#2e2943" d="M 7.484375 24.960938 L 7.675781 24.941406 L 7.738281 25.675781 L 7.546875 25.691406 Z M 7.484375 24.960938 " fill-opacity="1" fill-rule="nonzero"/><path fill="#2e2943" d="M 7.851562 25.296875 C 7.863281 25.398438 7.855469 25.488281 7.832031 25.5625 C 7.808594 25.636719 7.777344 25.675781 7.738281 25.675781 C 7.699219 25.679688 7.660156 25.648438 7.625 25.578125 C 7.59375 25.507812 7.570312 25.425781 7.5625 25.324219 C 7.554688 25.222656 7.558594 25.132812 7.582031 25.058594 C 7.605469 24.984375 7.636719 24.945312 7.675781 24.941406 C 7.714844 24.941406 7.753906 24.972656 7.789062 25.042969 C 7.824219 25.109375 7.84375 25.195312 7.851562 25.296875 Z M 7.851562 25.296875 " fill-opacity="1" fill-rule="nonzero"/><path fill="#2e2943" d="M 9.757812 25.136719 C 9.765625 25.238281 9.757812 25.324219 9.734375 25.398438 C 9.714844 25.472656 9.683594 25.511719 9.644531 25.515625 C 9.601562 25.519531 9.566406 25.484375 9.53125 25.417969 C 9.496094 25.347656 9.472656 25.261719 9.464844 25.160156 C 9.457031 25.058594 9.464844 24.972656 9.488281 24.898438 C 9.507812 24.824219 9.539062 24.785156 9.582031 24.78125 C 9.621094 24.777344 9.65625 24.8125 9.691406 24.878906 C 9.726562 24.949219 9.75 25.035156 9.757812 25.136719 Z M 9.757812 25.136719 " fill-opacity="1" fill-rule="nonzero"/><path fill="#2e2943" d="M 9.578125 24.78125 L 9.769531 24.765625 L 9.832031 25.5 L 9.640625 25.515625 Z M 9.578125 24.78125 " fill-opacity="1" fill-rule="nonzero"/><path fill="#2e2943" d="M 9.945312 25.121094 C 9.957031 25.222656 9.949219 25.308594 9.925781 25.382812 C 9.902344 25.457031 9.871094 25.496094 9.832031 25.5 C 9.792969 25.503906 9.753906 25.46875 9.71875 25.402344 C 9.6875 25.332031 9.664062 25.246094 9.65625 25.144531 C 9.648438 25.042969 9.652344 24.957031 9.675781 24.882812 C 9.699219 24.808594 9.730469 24.769531 9.769531 24.765625 C 9.808594 24.761719 9.847656 24.792969 9.882812 24.863281 C 9.917969 24.933594 9.9375 25.019531 9.945312 25.121094 Z M 9.945312 25.121094 " fill-opacity="1" fill-rule="nonzero"/><path fill="#db8e63" d="M 10.617188 17.304688 C 10.617188 17.304688 10.589844 17.449219 10.558594 17.523438 C 10.527344 17.597656 10.46875 17.722656 10.558594 17.753906 C 10.648438 17.785156 10.71875 17.644531 10.761719 17.519531 C 10.800781 17.390625 10.929688 17.308594 10.929688 17.308594 L 10.757812 17.128906 Z M 10.617188 17.304688 " fill-opacity="1" fill-rule="nonzero"/><path fill="#ed516f" d="M 12.695312 15.003906 L 12.804688 15.003906 L 12.804688 15.546875 L 12.695312 15.546875 Z M 12.695312 15.003906 " fill-opacity="1" fill-rule="nonzero"/><path fill="#ed516f" d="M 14.210938 15.089844 L 14.320312 15.089844 L 14.320312 15.632812 L 14.210938 15.632812 Z M 14.210938 15.089844 " fill-opacity="1" fill-rule="nonzero"/><path fill="#e8d2c4" d="M 9.355469 9.25 C 9.355469 9.769531 8.414062 11.378906 8.414062 11.378906 C 8.414062 11.378906 7.472656 9.769531 7.472656 9.25 C 7.472656 8.730469 7.894531 8.308594 8.414062 8.308594 C 8.933594 8.308594 9.355469 8.730469 9.355469 9.25 Z M 9.355469 9.25 " fill-opacity="1" fill-rule="nonzero"/><path fill="#ffffff" d="M 8.761719 9.199219 C 8.761719 9.296875 8.726562 9.378906 8.660156 9.449219 C 8.589844 9.515625 8.507812 9.550781 8.414062 9.550781 C 8.316406 9.550781 8.234375 9.515625 8.167969 9.449219 C 8.097656 9.378906 8.066406 9.296875 8.066406 9.199219 C 8.066406 9.105469 8.097656 9.023438 8.167969 8.953125 C 8.234375 8.886719 8.316406 8.851562 8.414062 8.851562 C 8.507812 8.851562 8.589844 8.886719 8.660156 8.953125 C 8.726562 9.023438 8.761719 9.105469 8.761719 9.199219 Z M 8.761719 9.199219 " fill-opacity="1" fill-rule="nonzero"/><path fill="#e8d2c4" d="M 23.566406 7.246094 C 23.566406 7.765625 22.625 9.378906 22.625 9.378906 C 22.625 9.378906 21.683594 7.765625 21.683594 7.246094 C 21.683594 6.726562 22.105469 6.304688 22.625 6.304688 C 23.144531 6.304688 23.566406 6.726562 23.566406 7.246094 Z M 23.566406 7.246094 " fill-opacity="1" fill-rule="nonzero"/><path fill="#ffffff" d="M 22.972656 7.199219 C 22.972656 7.292969 22.9375 7.375 22.871094 7.445312 C 22.800781 7.511719 22.71875 7.546875 22.625 7.546875 C 22.527344 7.546875 22.445312 7.511719 22.375 7.445312 C 22.308594 7.375 22.273438 7.292969 22.273438 7.199219 C 22.273438 7.101562 22.308594 7.019531 22.375 6.953125 C 22.445312 6.882812 22.527344 6.847656 22.625 6.847656 C 22.71875 6.847656 22.800781 6.882812 22.871094 6.953125 C 22.9375 7.019531 22.972656 7.101562 22.972656 7.199219 Z M 22.972656 7.199219 " fill-opacity="1" fill-rule="nonzero"/></svg>