<svg xmlns="http://www.w3.org/2000/svg" xmlns:xlink="http://www.w3.org/1999/xlink" width="40" zoomAndPan="magnify" viewBox="0 0 30 30.000001" height="40" preserveAspectRatio="xMidYMid meet" version="1.0"><defs><clipPath id="4aa0ab65a8"><path d="M 8 20 L 22.6875 20 L 22.6875 24.492188 L 8 24.492188 Z M 8 20 " clip-rule="nonzero"/></clipPath><clipPath id="672dda9627"><path d="M 8 17 L 22.6875 17 L 22.6875 23 L 8 23 Z M 8 17 " clip-rule="nonzero"/></clipPath><clipPath id="d5353d5c58"><path d="M 18 22 L 19 22 L 19 24.492188 L 18 24.492188 Z M 18 22 " clip-rule="nonzero"/></clipPath><clipPath id="391debf9e7"><path d="M 17 22 L 19 22 L 19 24.492188 L 17 24.492188 Z M 17 22 " clip-rule="nonzero"/></clipPath><clipPath id="8d8deb3d22"><path d="M 12 22 L 13 22 L 13 24.492188 L 12 24.492188 Z M 12 22 " clip-rule="nonzero"/></clipPath><clipPath id="e8036a96d3"><path d="M 11 22 L 13 22 L 13 24.492188 L 11 24.492188 Z M 11 22 " clip-rule="nonzero"/></clipPath><clipPath id="935275ced6"><path d="M 11 22 L 12 22 L 12 24.492188 L 11 24.492188 Z M 11 22 " clip-rule="nonzero"/></clipPath><clipPath id="fdb9465b91"><path d="M 14 22 L 15 22 L 15 24.492188 L 14 24.492188 Z M 14 22 " clip-rule="nonzero"/></clipPath><clipPath id="6f3172b37f"><path d="M 13 22 L 15 22 L 15 24.492188 L 13 24.492188 Z M 13 22 " clip-rule="nonzero"/></clipPath><clipPath id="9e455bdfe1"><path d="M 14 22 L 15 22 L 15 24.492188 L 14 24.492188 Z M 14 22 " clip-rule="nonzero"/></clipPath><clipPath id="4e6a318bf8"><path d="M 15 23 L 16 23 L 16 24.492188 L 15 24.492188 Z M 15 23 " clip-rule="nonzero"/></clipPath><clipPath id="5f7212930b"><path d="M 15 22 L 16 22 L 16 24.492188 L 15 24.492188 Z M 15 22 " clip-rule="nonzero"/></clipPath><clipPath id="73a79d8b47"><path d="M 15 22 L 17 22 L 17 24.492188 L 15 24.492188 Z M 15 22 " clip-rule="nonzero"/></clipPath><clipPath id="f954ed6702"><path d="M 16 22 L 17 22 L 17 24.492188 L 16 24.492188 Z M 16 22 " clip-rule="nonzero"/></clipPath><clipPath id="deee81d086"><path d="M 17 22 L 18 22 L 18 24.492188 L 17 24.492188 Z M 17 22 " clip-rule="nonzero"/></clipPath><clipPath id="0f10438e18"><path d="M 13 22 L 14 22 L 14 24.492188 L 13 24.492188 Z M 13 22 " clip-rule="nonzero"/></clipPath><clipPath id="c08c438315"><path d="M 12 22 L 13 22 L 13 24.492188 L 12 24.492188 Z M 12 22 " clip-rule="nonzero"/></clipPath><clipPath id="5b2f2a4253"><path d="M 8 18 L 22.6875 18 L 22.6875 23 L 8 23 Z M 8 18 " clip-rule="nonzero"/></clipPath><clipPath id="66cd6c91f9"><path d="M 8 15 L 22.6875 15 L 22.6875 21 L 8 21 Z M 8 15 " clip-rule="nonzero"/></clipPath><clipPath id="9c2c6e6aa2"><path d="M 22 19 L 22.6875 19 L 22.6875 21 L 22 21 Z M 22 19 " clip-rule="nonzero"/></clipPath><clipPath id="871fd423cf"><path d="M 7.445312 16 L 22 16 L 22 21 L 7.445312 21 Z M 7.445312 16 " clip-rule="nonzero"/></clipPath><clipPath id="08bcab04df"><path d="M 7.445312 13 L 22 13 L 22 19 L 7.445312 19 Z M 7.445312 13 " clip-rule="nonzero"/></clipPath><clipPath id="c181e6469f"><path d="M 8 13 L 22.6875 13 L 22.6875 18 L 8 18 Z M 8 13 " clip-rule="nonzero"/></clipPath><clipPath id="7ce8925cb1"><path d="M 8 11 L 22.6875 11 L 22.6875 17 L 8 17 Z M 8 11 " clip-rule="nonzero"/></clipPath><clipPath id="cc19351312"><path d="M 21 14 L 22.6875 14 L 22.6875 17 L 21 17 Z M 21 14 " clip-rule="nonzero"/></clipPath><clipPath id="0e5b01aa4f"><path d="M 22 14 L 22.6875 14 L 22.6875 16 L 22 16 Z M 22 14 " clip-rule="nonzero"/></clipPath><clipPath id="e8ff0db413"><path d="M 7.445312 11 L 22 11 L 22 16 L 7.445312 16 Z M 7.445312 11 " clip-rule="nonzero"/></clipPath><clipPath id="e78caac12c"><path d="M 7.445312 9 L 22 9 L 22 15 L 7.445312 15 Z M 7.445312 9 " clip-rule="nonzero"/></clipPath><clipPath id="0786732944"><path d="M 7.445312 12 L 8 12 L 8 14 L 7.445312 14 Z M 7.445312 12 " clip-rule="nonzero"/></clipPath><clipPath id="34f2ad8d70"><path d="M 7.445312 9 L 22 9 L 22 14 L 7.445312 14 Z M 7.445312 9 " clip-rule="nonzero"/></clipPath><clipPath id="2d60a66829"><path d="M 7.445312 7 L 22 7 L 22 13 L 7.445312 13 Z M 7.445312 7 " clip-rule="nonzero"/></clipPath><clipPath id="20435d57ab"><path d="M 8 7 L 22.6875 7 L 22.6875 12 L 8 12 Z M 8 7 " clip-rule="nonzero"/></clipPath><clipPath id="9442aa086c"><path d="M 8 4.894531 L 22.6875 4.894531 L 22.6875 10 L 8 10 Z M 8 4.894531 " clip-rule="nonzero"/></clipPath><clipPath id="295a68a097"><path d="M 21 8 L 22.6875 8 L 22.6875 10 L 21 10 Z M 21 8 " clip-rule="nonzero"/></clipPath><clipPath id="4320395a43"><path d="M 22 7 L 22.6875 7 L 22.6875 10 L 22 10 Z M 22 7 " clip-rule="nonzero"/></clipPath></defs><g clip-path="url(#4aa0ab65a8)"><path fill="#f89e19" d="M 22.136719 22.023438 L 22.136719 20.554688 L 8.25 20.554688 L 8.25 22.023438 C 8.25 23.386719 11.359375 24.492188 15.191406 24.492188 C 19.027344 24.492188 22.136719 23.386719 22.136719 22.023438 " fill-opacity="1" fill-rule="nonzero"/></g><g clip-path="url(#672dda9627)"><path fill="#f5c116" d="M 15.191406 22.910156 C 11.359375 22.910156 8.25 21.808594 8.25 20.445312 C 8.25 19.082031 11.359375 17.976562 15.191406 17.976562 C 19.027344 17.976562 22.136719 19.082031 22.136719 20.445312 C 22.136719 21.808594 19.027344 22.910156 15.191406 22.910156 " fill-opacity="1" fill-rule="nonzero"/></g><path fill="#f89e19" d="M 15.609375 21.40625 C 15.886719 21.390625 16.113281 21.34375 16.289062 21.269531 C 16.464844 21.195312 16.550781 21.109375 16.550781 21.011719 C 16.550781 20.921875 16.476562 20.847656 16.332031 20.78125 C 16.183594 20.71875 15.945312 20.667969 15.609375 20.636719 L 15.609375 21.40625 M 14.800781 19.300781 C 14.582031 19.328125 14.410156 19.371094 14.277344 19.433594 C 14.148438 19.5 14.082031 19.570312 14.082031 19.644531 C 14.082031 19.714844 14.144531 19.78125 14.261719 19.839844 C 14.378906 19.898438 14.558594 19.949219 14.800781 19.984375 L 14.800781 19.300781 M 14.800781 21.378906 L 14.800781 20.550781 C 14.074219 20.476562 13.539062 20.363281 13.199219 20.214844 C 12.859375 20.066406 12.691406 19.882812 12.691406 19.667969 C 12.691406 19.453125 12.882812 19.269531 13.265625 19.125 C 13.652344 18.976562 14.164062 18.890625 14.800781 18.871094 L 14.800781 18.671875 L 15.609375 18.671875 L 15.609375 18.871094 C 16.199219 18.894531 16.667969 18.964844 17.019531 19.085938 C 17.367188 19.203125 17.589844 19.359375 17.6875 19.558594 L 16.277344 19.625 C 16.191406 19.46875 15.96875 19.363281 15.609375 19.308594 L 15.609375 20.082031 C 16.5 20.167969 17.109375 20.277344 17.433594 20.414062 C 17.753906 20.550781 17.917969 20.726562 17.917969 20.941406 C 17.917969 21.179688 17.714844 21.378906 17.308594 21.542969 C 16.898438 21.707031 16.335938 21.808594 15.609375 21.84375 L 15.609375 22.214844 L 14.800781 22.214844 L 14.800781 21.855469 C 14.160156 21.828125 13.636719 21.742188 13.238281 21.601562 C 12.835938 21.457031 12.578125 21.257812 12.46875 20.996094 L 13.921875 20.941406 C 13.980469 21.046875 14.09375 21.136719 14.257812 21.214844 C 14.417969 21.289062 14.601562 21.347656 14.800781 21.378906 " fill-opacity="1" fill-rule="nonzero"/><path fill="#e98b1b" d="M 21.351562 23.011719 L 21.347656 23.007812 L 21.347656 21.675781 C 21.429688 21.621094 21.507812 21.5625 21.578125 21.507812 L 21.578125 22.824219 C 21.511719 22.886719 21.433594 22.953125 21.351562 23.011719 " fill-opacity="1" fill-rule="nonzero"/><path fill="#e98b1b" d="M 21.003906 23.234375 C 20.976562 23.226562 20.957031 23.214844 20.957031 23.203125 L 20.957031 21.914062 C 21.039062 21.871094 21.113281 21.824219 21.1875 21.78125 L 21.1875 23.125 C 21.128906 23.160156 21.070312 23.199219 21.003906 23.234375 " fill-opacity="1" fill-rule="nonzero"/><path fill="#e98b1b" d="M 21.742188 22.660156 L 21.742188 21.359375 C 21.832031 21.265625 21.910156 21.167969 21.972656 21.070312 L 21.972656 22.285156 C 21.921875 22.414062 21.84375 22.539062 21.742188 22.660156 " fill-opacity="1" fill-rule="nonzero"/><path fill="#e98b1b" d="M 20.625 23.429688 C 20.589844 23.421875 20.566406 23.410156 20.566406 23.394531 L 20.566406 22.101562 C 20.644531 22.066406 20.722656 22.03125 20.796875 21.992188 L 20.796875 23.347656 C 20.742188 23.375 20.683594 23.402344 20.625 23.429688 " fill-opacity="1" fill-rule="nonzero"/><path fill="#e98b1b" d="M 20.195312 23.609375 C 20.183594 23.601562 20.171875 23.59375 20.171875 23.585938 L 20.171875 22.253906 C 20.253906 22.226562 20.328125 22.195312 20.402344 22.167969 L 20.402344 23.527344 C 20.335938 23.554688 20.265625 23.582031 20.195312 23.609375 " fill-opacity="1" fill-rule="nonzero"/><path fill="#e98b1b" d="M 19.78125 23.753906 L 19.78125 22.386719 C 19.859375 22.363281 19.9375 22.339844 20.011719 22.3125 L 20.011719 23.675781 C 19.9375 23.703125 19.859375 23.730469 19.78125 23.753906 " fill-opacity="1" fill-rule="nonzero"/><path fill="#e98b1b" d="M 19.390625 23.871094 L 19.390625 22.503906 C 19.46875 22.480469 19.546875 22.460938 19.621094 22.4375 L 19.621094 23.804688 C 19.546875 23.828125 19.46875 23.847656 19.390625 23.871094 " fill-opacity="1" fill-rule="nonzero"/><path fill="#e98b1b" d="M 19 23.972656 L 19 22.601562 C 19.078125 22.582031 19.152344 22.5625 19.230469 22.542969 L 19.230469 23.914062 C 19.152344 23.933594 19.078125 23.953125 19 23.972656 " fill-opacity="1" fill-rule="nonzero"/><g clip-path="url(#d5353d5c58)"><path fill="#e98b1b" d="M 18.605469 24.058594 L 18.605469 22.6875 C 18.683594 22.667969 18.761719 22.652344 18.835938 22.636719 L 18.835938 24.007812 C 18.761719 24.023438 18.683594 24.042969 18.605469 24.058594 " fill-opacity="1" fill-rule="nonzero"/><path fill="#e98b1b" d="M 18.214844 24.132812 L 18.214844 22.757812 C 18.292969 22.746094 18.371094 22.730469 18.445312 22.71875 L 18.445312 24.089844 C 18.371094 24.105469 18.292969 24.117188 18.214844 24.132812 " fill-opacity="1" fill-rule="nonzero"/></g><g clip-path="url(#391debf9e7)"><path fill="#e98b1b" d="M 17.824219 24.195312 L 17.824219 22.820312 C 17.902344 22.808594 17.976562 22.796875 18.054688 22.785156 L 18.054688 24.160156 C 17.976562 24.171875 17.902344 24.183594 17.824219 24.195312 " fill-opacity="1" fill-rule="nonzero"/></g><g clip-path="url(#8d8deb3d22)"><path fill="#e98b1b" d="M 12.5625 24.195312 C 12.484375 24.183594 12.40625 24.171875 12.332031 24.160156 L 12.332031 22.785156 C 12.40625 22.796875 12.484375 22.808594 12.5625 22.820312 L 12.5625 24.195312 " fill-opacity="1" fill-rule="nonzero"/></g><g clip-path="url(#e8036a96d3)"><path fill="#e98b1b" d="M 12.167969 24.132812 C 12.089844 24.117188 12.015625 24.105469 11.9375 24.089844 L 11.9375 22.71875 C 12.015625 22.730469 12.089844 22.746094 12.167969 22.757812 L 12.167969 24.132812 " fill-opacity="1" fill-rule="nonzero"/></g><g clip-path="url(#935275ced6)"><path fill="#e98b1b" d="M 11.777344 24.058594 C 11.699219 24.042969 11.621094 24.023438 11.546875 24.007812 L 11.546875 22.636719 C 11.621094 22.652344 11.699219 22.667969 11.777344 22.6875 L 11.777344 24.058594 " fill-opacity="1" fill-rule="nonzero"/></g><path fill="#e98b1b" d="M 11.386719 23.972656 C 11.308594 23.953125 11.230469 23.933594 11.15625 23.914062 L 11.15625 22.542969 C 11.230469 22.5625 11.308594 22.582031 11.386719 22.601562 L 11.386719 23.972656 " fill-opacity="1" fill-rule="nonzero"/><path fill="#e98b1b" d="M 10.992188 23.871094 C 10.914062 23.847656 10.839844 23.828125 10.761719 23.804688 L 10.761719 22.4375 C 10.839844 22.460938 10.914062 22.480469 10.992188 22.503906 L 10.992188 23.871094 " fill-opacity="1" fill-rule="nonzero"/><g clip-path="url(#fdb9465b91)"><path fill="#e98b1b" d="M 14.519531 24.371094 C 14.441406 24.367188 14.367188 24.363281 14.289062 24.359375 L 14.289062 22.984375 C 14.367188 22.988281 14.441406 22.992188 14.519531 22.992188 L 14.519531 24.371094 " fill-opacity="1" fill-rule="nonzero"/></g><g clip-path="url(#6f3172b37f)"><path fill="#e98b1b" d="M 14.128906 24.351562 C 14.050781 24.347656 13.972656 24.34375 13.898438 24.339844 L 13.898438 22.960938 C 13.972656 22.964844 14.050781 22.972656 14.128906 22.976562 L 14.128906 24.351562 " fill-opacity="1" fill-rule="nonzero"/></g><g clip-path="url(#9e455bdfe1)"><path fill="#e98b1b" d="M 14.910156 24.378906 C 14.832031 24.378906 14.757812 24.375 14.679688 24.375 L 14.679688 22.996094 C 14.757812 23 14.832031 23 14.910156 23.003906 L 14.910156 24.378906 " fill-opacity="1" fill-rule="nonzero"/></g><g clip-path="url(#4e6a318bf8)"><path fill="#e98b1b" d="M 15.191406 24.382812 C 15.152344 24.382812 15.113281 24.382812 15.070312 24.382812 L 15.070312 23.003906 C 15.113281 23.003906 15.152344 23.003906 15.191406 23.003906 C 15.230469 23.003906 15.265625 23.003906 15.300781 23.003906 L 15.300781 24.382812 C 15.265625 24.382812 15.230469 24.382812 15.191406 24.382812 " fill-opacity="1" fill-rule="nonzero"/></g><g clip-path="url(#5f7212930b)"><path fill="#e98b1b" d="M 15.464844 24.378906 L 15.464844 23.003906 C 15.539062 23 15.617188 23 15.695312 22.996094 L 15.695312 24.375 C 15.617188 24.378906 15.539062 24.378906 15.464844 24.378906 " fill-opacity="1" fill-rule="nonzero"/></g><g clip-path="url(#73a79d8b47)"><path fill="#e98b1b" d="M 15.855469 24.371094 L 15.855469 22.992188 C 15.933594 22.992188 16.007812 22.988281 16.085938 22.984375 L 16.085938 24.359375 C 16.007812 24.363281 15.933594 24.367188 15.855469 24.371094 " fill-opacity="1" fill-rule="nonzero"/></g><g clip-path="url(#f954ed6702)"><path fill="#e98b1b" d="M 16.246094 24.351562 L 16.246094 22.976562 C 16.324219 22.972656 16.402344 22.96875 16.476562 22.960938 L 16.476562 24.339844 C 16.402344 24.34375 16.324219 24.347656 16.246094 24.351562 " fill-opacity="1" fill-rule="nonzero"/><path fill="#e98b1b" d="M 16.636719 24.328125 L 16.636719 22.949219 C 16.714844 22.945312 16.792969 22.9375 16.867188 22.933594 L 16.867188 24.308594 C 16.792969 24.316406 16.714844 24.320312 16.636719 24.328125 " fill-opacity="1" fill-rule="nonzero"/></g><g clip-path="url(#deee81d086)"><path fill="#e98b1b" d="M 17.03125 24.292969 L 17.03125 22.917969 C 17.109375 22.910156 17.183594 22.902344 17.261719 22.894531 L 17.261719 24.269531 C 17.183594 24.277344 17.109375 24.285156 17.03125 24.292969 " fill-opacity="1" fill-rule="nonzero"/><path fill="#e98b1b" d="M 17.421875 24.25 L 17.421875 22.875 C 17.5 22.863281 17.578125 22.855469 17.652344 22.84375 L 17.652344 24.21875 C 17.578125 24.230469 17.5 24.238281 17.421875 24.25 " fill-opacity="1" fill-rule="nonzero"/></g><g clip-path="url(#0f10438e18)"><path fill="#e98b1b" d="M 13.734375 24.328125 C 13.660156 24.320312 13.582031 24.316406 13.503906 24.308594 L 13.503906 22.929688 C 13.582031 22.9375 13.660156 22.945312 13.734375 22.949219 L 13.734375 24.328125 " fill-opacity="1" fill-rule="nonzero"/><path fill="#e98b1b" d="M 13.34375 24.292969 C 13.265625 24.285156 13.191406 24.277344 13.113281 24.269531 L 13.113281 22.890625 C 13.191406 22.902344 13.265625 22.90625 13.34375 22.914062 L 13.34375 24.292969 " fill-opacity="1" fill-rule="nonzero"/></g><g clip-path="url(#c08c438315)"><path fill="#e98b1b" d="M 12.953125 24.246094 C 12.875 24.238281 12.796875 24.230469 12.722656 24.21875 L 12.722656 22.84375 C 12.796875 22.855469 12.875 22.863281 12.953125 22.871094 L 12.953125 24.246094 " fill-opacity="1" fill-rule="nonzero"/></g><path fill="#e98b1b" d="M 10.601562 23.753906 C 10.523438 23.730469 10.445312 23.703125 10.371094 23.675781 L 10.371094 22.3125 C 10.445312 22.339844 10.523438 22.363281 10.601562 22.386719 L 10.601562 23.753906 " fill-opacity="1" fill-rule="nonzero"/><path fill="#e98b1b" d="M 10.1875 23.609375 C 10.117188 23.582031 10.046875 23.554688 9.980469 23.527344 L 9.980469 22.167969 C 10.054688 22.195312 10.132812 22.226562 10.210938 22.253906 L 10.210938 23.585938 C 10.210938 23.59375 10.199219 23.601562 10.1875 23.609375 " fill-opacity="1" fill-rule="nonzero"/><path fill="#e98b1b" d="M 9.757812 23.429688 C 9.699219 23.402344 9.644531 23.375 9.589844 23.347656 L 9.589844 21.992188 C 9.664062 22.03125 9.738281 22.066406 9.820312 22.101562 L 9.820312 23.394531 C 9.820312 23.410156 9.792969 23.421875 9.757812 23.429688 " fill-opacity="1" fill-rule="nonzero"/><path fill="#e98b1b" d="M 9.378906 23.234375 C 9.316406 23.199219 9.253906 23.160156 9.195312 23.125 L 9.195312 21.78125 C 9.269531 21.824219 9.347656 21.871094 9.425781 21.914062 L 9.425781 23.203125 C 9.425781 23.214844 9.40625 23.226562 9.378906 23.234375 " fill-opacity="1" fill-rule="nonzero"/><path fill="#e98b1b" d="M 9.035156 23.011719 C 8.949219 22.953125 8.875 22.886719 8.804688 22.824219 L 8.804688 21.507812 C 8.875 21.5625 8.953125 21.621094 9.035156 21.675781 L 9.035156 23.011719 " fill-opacity="1" fill-rule="nonzero"/><path fill="#e98b1b" d="M 8.644531 22.660156 C 8.539062 22.539062 8.464844 22.414062 8.414062 22.285156 L 8.414062 21.070312 C 8.472656 21.167969 8.550781 21.265625 8.644531 21.359375 L 8.644531 22.660156 " fill-opacity="1" fill-rule="nonzero"/><g clip-path="url(#5b2f2a4253)"><path fill="#f89e19" d="M 22.40625 19.96875 L 22.40625 18.5 L 8.519531 18.5 L 8.519531 19.96875 C 8.519531 21.332031 11.628906 22.4375 15.464844 22.4375 C 19.296875 22.4375 22.40625 21.332031 22.40625 19.96875 " fill-opacity="1" fill-rule="nonzero"/></g><g clip-path="url(#66cd6c91f9)"><path fill="#f5c116" d="M 15.464844 20.859375 C 11.628906 20.859375 8.519531 19.753906 8.519531 18.390625 C 8.519531 17.027344 11.628906 15.921875 15.464844 15.921875 C 19.296875 15.921875 22.40625 17.027344 22.40625 18.390625 C 22.40625 19.753906 19.296875 20.859375 15.464844 20.859375 " fill-opacity="1" fill-rule="nonzero"/></g><path fill="#f89e19" d="M 15.882812 19.355469 C 16.160156 19.335938 16.386719 19.289062 16.5625 19.214844 C 16.734375 19.144531 16.824219 19.058594 16.824219 18.957031 C 16.824219 18.871094 16.75 18.792969 16.601562 18.730469 C 16.457031 18.664062 16.214844 18.617188 15.882812 18.582031 L 15.882812 19.355469 M 15.074219 17.246094 C 14.855469 17.273438 14.679688 17.316406 14.550781 17.382812 C 14.421875 17.445312 14.355469 17.515625 14.355469 17.59375 C 14.355469 17.660156 14.414062 17.726562 14.535156 17.785156 C 14.652344 17.847656 14.832031 17.894531 15.074219 17.933594 L 15.074219 17.246094 M 15.074219 19.328125 L 15.074219 18.496094 C 14.347656 18.421875 13.8125 18.3125 13.472656 18.160156 C 13.132812 18.011719 12.960938 17.828125 12.960938 17.617188 C 12.960938 17.398438 13.15625 17.214844 13.539062 17.070312 C 13.921875 16.921875 14.433594 16.835938 15.074219 16.816406 L 15.074219 16.621094 L 15.882812 16.621094 L 15.882812 16.816406 C 16.472656 16.839844 16.941406 16.914062 17.292969 17.03125 C 17.640625 17.148438 17.863281 17.304688 17.960938 17.503906 L 16.550781 17.570312 C 16.464844 17.414062 16.242188 17.308594 15.882812 17.253906 L 15.882812 18.027344 C 16.773438 18.113281 17.382812 18.222656 17.703125 18.359375 C 18.027344 18.496094 18.1875 18.671875 18.1875 18.886719 C 18.1875 19.125 17.984375 19.328125 17.578125 19.488281 C 17.171875 19.652344 16.605469 19.753906 15.882812 19.792969 L 15.882812 20.160156 L 15.074219 20.160156 L 15.074219 19.800781 C 14.429688 19.773438 13.910156 19.6875 13.507812 19.546875 C 13.105469 19.402344 12.851562 19.203125 12.738281 18.941406 L 14.195312 18.886719 C 14.253906 18.992188 14.363281 19.082031 14.527344 19.160156 C 14.691406 19.234375 14.875 19.292969 15.074219 19.328125 " fill-opacity="1" fill-rule="nonzero"/><path fill="#e98b1b" d="M 21.621094 20.957031 L 21.621094 19.625 C 21.703125 19.566406 21.78125 19.511719 21.851562 19.453125 L 21.851562 20.769531 C 21.78125 20.835938 21.707031 20.898438 21.621094 20.957031 " fill-opacity="1" fill-rule="nonzero"/><path fill="#e98b1b" d="M 21.277344 21.179688 C 21.25 21.171875 21.230469 21.160156 21.230469 21.148438 L 21.230469 19.859375 C 21.308594 19.816406 21.386719 19.773438 21.460938 19.726562 L 21.460938 21.070312 C 21.402344 21.105469 21.339844 21.144531 21.277344 21.179688 " fill-opacity="1" fill-rule="nonzero"/><g clip-path="url(#9c2c6e6aa2)"><path fill="#e98b1b" d="M 22.011719 20.605469 L 22.011719 19.304688 C 22.105469 19.210938 22.183594 19.113281 22.242188 19.015625 L 22.242188 20.230469 C 22.191406 20.359375 22.117188 20.484375 22.011719 20.605469 " fill-opacity="1" fill-rule="nonzero"/></g><path fill="#e98b1b" d="M 20.894531 21.375 C 20.863281 21.367188 20.835938 21.355469 20.835938 21.339844 L 20.835938 20.046875 C 20.917969 20.011719 20.992188 19.976562 21.066406 19.941406 L 21.066406 21.292969 C 21.011719 21.320312 20.957031 21.347656 20.894531 21.375 " fill-opacity="1" fill-rule="nonzero"/><path fill="#e98b1b" d="M 20.46875 21.554688 C 20.453125 21.546875 20.445312 21.539062 20.445312 21.53125 L 20.445312 20.203125 C 20.523438 20.171875 20.601562 20.144531 20.675781 20.113281 L 20.675781 21.472656 C 20.609375 21.5 20.539062 21.527344 20.46875 21.554688 " fill-opacity="1" fill-rule="nonzero"/><path fill="#e98b1b" d="M 20.054688 21.699219 L 20.054688 20.332031 C 20.132812 20.308594 20.210938 20.285156 20.285156 20.257812 L 20.285156 21.621094 C 20.210938 21.648438 20.132812 21.675781 20.054688 21.699219 " fill-opacity="1" fill-rule="nonzero"/><path fill="#e98b1b" d="M 19.664062 21.816406 L 19.664062 20.449219 C 19.738281 20.425781 19.816406 20.40625 19.890625 20.382812 L 19.890625 21.75 C 19.816406 21.773438 19.742188 21.792969 19.664062 21.816406 " fill-opacity="1" fill-rule="nonzero"/><path fill="#e98b1b" d="M 19.269531 21.917969 L 19.269531 20.546875 C 19.347656 20.527344 19.425781 20.507812 19.5 20.492188 L 19.5 21.859375 C 19.425781 21.878906 19.347656 21.898438 19.269531 21.917969 " fill-opacity="1" fill-rule="nonzero"/><path fill="#e98b1b" d="M 18.878906 22.003906 L 18.878906 20.632812 C 18.957031 20.617188 19.035156 20.601562 19.109375 20.582031 L 19.109375 21.953125 C 19.035156 21.972656 18.957031 21.988281 18.878906 22.003906 " fill-opacity="1" fill-rule="nonzero"/><path fill="#e98b1b" d="M 18.488281 22.078125 L 18.488281 20.707031 C 18.566406 20.691406 18.640625 20.679688 18.71875 20.664062 L 18.71875 22.035156 C 18.640625 22.050781 18.566406 22.066406 18.488281 22.078125 " fill-opacity="1" fill-rule="nonzero"/><path fill="#e98b1b" d="M 18.09375 22.140625 L 18.09375 20.765625 C 18.171875 20.757812 18.25 20.742188 18.324219 20.730469 L 18.324219 22.105469 C 18.25 22.117188 18.171875 22.128906 18.09375 22.140625 " fill-opacity="1" fill-rule="nonzero"/><path fill="#e98b1b" d="M 12.832031 22.140625 C 12.753906 22.128906 12.679688 22.117188 12.601562 22.105469 L 12.601562 20.730469 C 12.679688 20.742188 12.753906 20.757812 12.832031 20.765625 L 12.832031 22.140625 " fill-opacity="1" fill-rule="nonzero"/><path fill="#e98b1b" d="M 12.441406 22.078125 C 12.363281 22.066406 12.285156 22.050781 12.210938 22.035156 L 12.210938 20.664062 C 12.285156 20.679688 12.363281 20.691406 12.441406 20.707031 L 12.441406 22.078125 " fill-opacity="1" fill-rule="nonzero"/><path fill="#e98b1b" d="M 12.046875 22.003906 C 11.972656 21.988281 11.894531 21.972656 11.820312 21.953125 L 11.820312 20.582031 C 11.894531 20.601562 11.972656 20.617188 12.046875 20.632812 L 12.046875 22.003906 " fill-opacity="1" fill-rule="nonzero"/><path fill="#e98b1b" d="M 11.65625 21.917969 C 11.578125 21.898438 11.503906 21.878906 11.425781 21.859375 L 11.425781 20.492188 C 11.503906 20.507812 11.578125 20.527344 11.65625 20.546875 L 11.65625 21.917969 " fill-opacity="1" fill-rule="nonzero"/><path fill="#e98b1b" d="M 11.265625 21.816406 C 11.1875 21.792969 11.109375 21.773438 11.035156 21.75 L 11.035156 20.382812 C 11.109375 20.40625 11.1875 20.425781 11.265625 20.449219 L 11.265625 21.816406 " fill-opacity="1" fill-rule="nonzero"/><path fill="#e98b1b" d="M 14.789062 22.316406 C 14.714844 22.3125 14.636719 22.308594 14.558594 22.304688 L 14.558594 20.929688 C 14.636719 20.933594 14.714844 20.9375 14.789062 20.9375 L 14.789062 22.316406 " fill-opacity="1" fill-rule="nonzero"/><path fill="#e98b1b" d="M 14.398438 22.300781 C 14.320312 22.292969 14.246094 22.289062 14.167969 22.285156 L 14.167969 20.90625 C 14.246094 20.914062 14.320312 20.917969 14.398438 20.921875 L 14.398438 22.300781 " fill-opacity="1" fill-rule="nonzero"/><path fill="#e98b1b" d="M 15.183594 22.324219 C 15.105469 22.324219 15.027344 22.324219 14.953125 22.320312 L 14.953125 20.945312 C 15.027344 20.945312 15.105469 20.949219 15.183594 20.949219 L 15.183594 22.324219 " fill-opacity="1" fill-rule="nonzero"/><path fill="#e98b1b" d="M 15.464844 22.328125 C 15.421875 22.328125 15.382812 22.328125 15.34375 22.328125 L 15.34375 20.949219 C 15.382812 20.949219 15.421875 20.953125 15.464844 20.953125 C 15.5 20.953125 15.539062 20.949219 15.574219 20.949219 L 15.574219 22.328125 C 15.539062 22.328125 15.5 22.328125 15.464844 22.328125 " fill-opacity="1" fill-rule="nonzero"/><path fill="#e98b1b" d="M 15.734375 22.324219 L 15.734375 20.949219 C 15.8125 20.949219 15.890625 20.945312 15.964844 20.945312 L 15.964844 22.320312 C 15.890625 22.324219 15.8125 22.324219 15.734375 22.324219 " fill-opacity="1" fill-rule="nonzero"/><path fill="#e98b1b" d="M 16.128906 22.316406 L 16.128906 20.941406 C 16.203125 20.9375 16.28125 20.933594 16.355469 20.929688 L 16.355469 22.308594 C 16.28125 22.3125 16.203125 22.3125 16.128906 22.316406 " fill-opacity="1" fill-rule="nonzero"/><path fill="#e98b1b" d="M 16.519531 22.300781 L 16.519531 20.921875 C 16.597656 20.917969 16.671875 20.914062 16.75 20.90625 L 16.75 22.285156 C 16.671875 22.289062 16.597656 22.296875 16.519531 22.300781 " fill-opacity="1" fill-rule="nonzero"/><path fill="#e98b1b" d="M 16.910156 22.273438 L 16.910156 20.898438 C 16.988281 20.890625 17.0625 20.882812 17.140625 20.878906 L 17.140625 22.253906 C 17.066406 22.261719 16.988281 22.269531 16.910156 22.273438 " fill-opacity="1" fill-rule="nonzero"/><path fill="#e98b1b" d="M 17.300781 22.238281 L 17.300781 20.863281 C 17.378906 20.855469 17.457031 20.847656 17.53125 20.839844 L 17.53125 22.214844 C 17.457031 22.222656 17.378906 22.230469 17.300781 22.238281 " fill-opacity="1" fill-rule="nonzero"/><path fill="#e98b1b" d="M 17.695312 22.195312 L 17.695312 20.820312 C 17.769531 20.8125 17.847656 20.800781 17.925781 20.789062 L 17.925781 22.164062 C 17.847656 22.175781 17.769531 22.1875 17.695312 22.195312 " fill-opacity="1" fill-rule="nonzero"/><path fill="#e98b1b" d="M 14.007812 22.273438 C 13.929688 22.265625 13.851562 22.261719 13.777344 22.253906 L 13.777344 20.878906 C 13.851562 20.882812 13.929688 20.890625 14.007812 20.894531 L 14.007812 22.273438 " fill-opacity="1" fill-rule="nonzero"/><path fill="#e98b1b" d="M 13.617188 22.238281 C 13.539062 22.230469 13.460938 22.222656 13.386719 22.214844 L 13.386719 20.839844 C 13.460938 20.847656 13.539062 20.855469 13.617188 20.863281 L 13.617188 22.238281 " fill-opacity="1" fill-rule="nonzero"/><path fill="#e98b1b" d="M 13.222656 22.195312 C 13.148438 22.183594 13.070312 22.175781 12.992188 22.164062 L 12.992188 20.789062 C 13.070312 20.800781 13.148438 20.808594 13.222656 20.820312 L 13.222656 22.195312 " fill-opacity="1" fill-rule="nonzero"/><path fill="#e98b1b" d="M 10.875 21.699219 C 10.796875 21.675781 10.71875 21.648438 10.644531 21.621094 L 10.644531 20.257812 C 10.71875 20.285156 10.796875 20.308594 10.875 20.332031 L 10.875 21.699219 " fill-opacity="1" fill-rule="nonzero"/><path fill="#e98b1b" d="M 10.460938 21.554688 C 10.390625 21.527344 10.320312 21.5 10.25 21.472656 L 10.25 20.113281 C 10.328125 20.144531 10.402344 20.171875 10.480469 20.203125 L 10.480469 21.53125 C 10.480469 21.539062 10.472656 21.546875 10.460938 21.554688 " fill-opacity="1" fill-rule="nonzero"/><path fill="#e98b1b" d="M 10.03125 21.375 C 9.972656 21.347656 9.914062 21.320312 9.859375 21.292969 L 9.859375 19.941406 C 9.933594 19.976562 10.011719 20.011719 10.089844 20.046875 L 10.089844 21.339844 C 10.089844 21.355469 10.066406 21.367188 10.03125 21.375 " fill-opacity="1" fill-rule="nonzero"/><path fill="#e98b1b" d="M 9.652344 21.179688 C 9.585938 21.144531 9.527344 21.105469 9.46875 21.070312 L 9.46875 19.726562 C 9.542969 19.773438 9.617188 19.816406 9.699219 19.859375 L 9.699219 21.148438 C 9.699219 21.160156 9.679688 21.171875 9.652344 21.179688 " fill-opacity="1" fill-rule="nonzero"/><path fill="#e98b1b" d="M 9.304688 20.957031 C 9.222656 20.898438 9.144531 20.835938 9.078125 20.769531 L 9.078125 19.453125 C 9.148438 19.511719 9.226562 19.566406 9.308594 19.625 L 9.308594 20.957031 L 9.304688 20.957031 " fill-opacity="1" fill-rule="nonzero"/><path fill="#e98b1b" d="M 8.914062 20.605469 C 8.8125 20.484375 8.734375 20.359375 8.683594 20.230469 L 8.683594 19.09375 C 8.714844 19.113281 8.75 19.132812 8.78125 19.152344 C 8.820312 19.203125 8.867188 19.253906 8.914062 19.304688 L 8.914062 20.605469 " fill-opacity="1" fill-rule="nonzero"/><g clip-path="url(#871fd423cf)"><path fill="#f89e19" d="M 21.734375 17.917969 L 21.734375 16.445312 L 7.847656 16.445312 L 7.847656 17.917969 C 7.847656 19.28125 10.957031 20.382812 14.789062 20.382812 C 18.625 20.382812 21.734375 19.28125 21.734375 17.917969 " fill-opacity="1" fill-rule="nonzero"/></g><g clip-path="url(#08bcab04df)"><path fill="#f5c116" d="M 14.789062 18.804688 C 10.957031 18.804688 7.847656 17.699219 7.847656 16.335938 C 7.847656 14.972656 10.957031 13.867188 14.789062 13.867188 C 18.625 13.867188 21.734375 14.972656 21.734375 16.335938 C 21.734375 17.699219 18.625 18.804688 14.789062 18.804688 " fill-opacity="1" fill-rule="nonzero"/></g><path fill="#f89e19" d="M 15.207031 17.300781 C 15.488281 17.28125 15.714844 17.234375 15.886719 17.164062 C 16.0625 17.089844 16.148438 17.003906 16.148438 16.902344 C 16.148438 16.816406 16.078125 16.738281 15.929688 16.675781 C 15.78125 16.613281 15.542969 16.5625 15.207031 16.527344 L 15.207031 17.300781 M 14.402344 15.191406 C 14.179688 15.21875 14.007812 15.265625 13.875 15.328125 C 13.746094 15.390625 13.683594 15.460938 13.683594 15.539062 C 13.683594 15.609375 13.742188 15.671875 13.859375 15.734375 C 13.980469 15.792969 14.160156 15.839844 14.402344 15.878906 L 14.402344 15.191406 M 14.402344 17.273438 L 14.402344 16.441406 C 13.671875 16.367188 13.140625 16.257812 12.800781 16.105469 C 12.460938 15.957031 12.289062 15.777344 12.289062 15.5625 C 12.289062 15.34375 12.480469 15.164062 12.867188 15.015625 C 13.25 14.867188 13.761719 14.785156 14.402344 14.761719 L 14.402344 14.566406 L 15.207031 14.566406 L 15.207031 14.761719 C 15.800781 14.785156 16.269531 14.859375 16.617188 14.976562 C 16.96875 15.09375 17.191406 15.253906 17.285156 15.449219 L 15.875 15.515625 C 15.792969 15.359375 15.566406 15.253906 15.207031 15.199219 L 15.207031 15.972656 C 16.101562 16.058594 16.707031 16.171875 17.03125 16.308594 C 17.351562 16.445312 17.515625 16.617188 17.515625 16.832031 C 17.515625 17.070312 17.3125 17.273438 16.90625 17.4375 C 16.5 17.601562 15.933594 17.699219 15.207031 17.738281 L 15.207031 18.109375 L 14.402344 18.109375 L 14.402344 17.746094 C 13.757812 17.71875 13.234375 17.632812 12.835938 17.492188 C 12.433594 17.347656 12.179688 17.148438 12.066406 16.886719 L 13.519531 16.832031 C 13.578125 16.9375 13.691406 17.027344 13.855469 17.105469 C 14.019531 17.183594 14.199219 17.238281 14.402344 17.273438 " fill-opacity="1" fill-rule="nonzero"/><path fill="#e98b1b" d="M 20.949219 18.90625 L 20.949219 17.570312 C 21.03125 17.511719 21.105469 17.457031 21.175781 17.398438 L 21.175781 18.71875 C 21.109375 18.78125 21.03125 18.84375 20.949219 18.90625 " fill-opacity="1" fill-rule="nonzero"/><path fill="#e98b1b" d="M 20.605469 19.125 C 20.574219 19.117188 20.554688 19.105469 20.554688 19.09375 L 20.554688 17.804688 C 20.636719 17.761719 20.710938 17.71875 20.785156 17.671875 L 20.785156 19.015625 C 20.726562 19.054688 20.667969 19.089844 20.605469 19.125 " fill-opacity="1" fill-rule="nonzero"/><path fill="#e98b1b" d="M 21.339844 18.550781 L 21.339844 17.25 C 21.433594 17.15625 21.507812 17.0625 21.570312 16.960938 L 21.570312 18.179688 C 21.519531 18.304688 21.441406 18.429688 21.339844 18.550781 " fill-opacity="1" fill-rule="nonzero"/><path fill="#e98b1b" d="M 20.222656 19.320312 C 20.1875 19.3125 20.164062 19.300781 20.164062 19.285156 L 20.164062 17.992188 C 20.242188 17.957031 20.320312 17.921875 20.394531 17.886719 L 20.394531 19.238281 C 20.339844 19.265625 20.28125 19.292969 20.222656 19.320312 " fill-opacity="1" fill-rule="nonzero"/><path fill="#e98b1b" d="M 19.792969 19.5 C 19.78125 19.496094 19.773438 19.488281 19.773438 19.480469 L 19.773438 18.148438 C 19.851562 18.117188 19.929688 18.089844 20.003906 18.058594 L 20.003906 19.417969 C 19.933594 19.445312 19.863281 19.472656 19.792969 19.5 " fill-opacity="1" fill-rule="nonzero"/><path fill="#e98b1b" d="M 19.378906 19.644531 L 19.378906 18.28125 C 19.457031 18.257812 19.535156 18.230469 19.609375 18.203125 L 19.609375 19.570312 C 19.535156 19.59375 19.460938 19.621094 19.378906 19.644531 " fill-opacity="1" fill-rule="nonzero"/><path fill="#e98b1b" d="M 18.988281 19.761719 L 18.988281 18.394531 C 19.066406 18.375 19.144531 18.351562 19.21875 18.332031 L 19.21875 19.695312 C 19.144531 19.71875 19.066406 19.742188 18.988281 19.761719 " fill-opacity="1" fill-rule="nonzero"/><path fill="#e98b1b" d="M 18.597656 19.863281 L 18.597656 18.492188 C 18.675781 18.476562 18.75 18.457031 18.828125 18.4375 L 18.828125 19.804688 C 18.75 19.824219 18.675781 19.84375 18.597656 19.863281 " fill-opacity="1" fill-rule="nonzero"/><path fill="#e98b1b" d="M 18.207031 19.949219 L 18.207031 18.578125 C 18.28125 18.5625 18.359375 18.546875 18.4375 18.53125 L 18.4375 19.898438 C 18.359375 19.917969 18.28125 19.933594 18.207031 19.949219 " fill-opacity="1" fill-rule="nonzero"/><path fill="#e98b1b" d="M 17.8125 20.023438 L 17.8125 18.652344 C 17.890625 18.636719 17.96875 18.625 18.042969 18.609375 L 18.042969 19.984375 C 17.96875 19.996094 17.890625 20.011719 17.8125 20.023438 " fill-opacity="1" fill-rule="nonzero"/><path fill="#e98b1b" d="M 17.421875 20.085938 L 17.421875 18.714844 C 17.5 18.703125 17.578125 18.691406 17.652344 18.679688 L 17.652344 20.050781 C 17.578125 20.0625 17.5 20.078125 17.421875 20.085938 " fill-opacity="1" fill-rule="nonzero"/><path fill="#e98b1b" d="M 12.160156 20.085938 C 12.082031 20.078125 12.003906 20.0625 11.929688 20.050781 L 11.929688 18.679688 C 12.003906 18.691406 12.082031 18.703125 12.160156 18.714844 L 12.160156 20.085938 " fill-opacity="1" fill-rule="nonzero"/><path fill="#e98b1b" d="M 11.765625 20.023438 C 11.691406 20.011719 11.613281 19.996094 11.535156 19.984375 L 11.535156 18.609375 C 11.613281 18.625 11.691406 18.636719 11.765625 18.652344 L 11.765625 20.023438 " fill-opacity="1" fill-rule="nonzero"/><path fill="#e98b1b" d="M 11.375 19.949219 C 11.296875 19.933594 11.222656 19.917969 11.144531 19.898438 L 11.144531 18.53125 C 11.222656 18.546875 11.296875 18.5625 11.375 18.578125 L 11.375 19.949219 " fill-opacity="1" fill-rule="nonzero"/><path fill="#e98b1b" d="M 10.984375 19.863281 C 10.90625 19.84375 10.828125 19.824219 10.753906 19.804688 L 10.753906 18.4375 C 10.828125 18.457031 10.90625 18.476562 10.984375 18.492188 L 10.984375 19.863281 " fill-opacity="1" fill-rule="nonzero"/><path fill="#e98b1b" d="M 10.59375 19.761719 C 10.515625 19.742188 10.4375 19.71875 10.363281 19.695312 L 10.363281 18.332031 C 10.4375 18.351562 10.515625 18.375 10.59375 18.394531 L 10.59375 19.761719 " fill-opacity="1" fill-rule="nonzero"/><path fill="#e98b1b" d="M 14.117188 20.261719 C 14.039062 20.261719 13.964844 20.257812 13.886719 20.253906 L 13.886719 18.875 C 13.964844 18.878906 14.039062 18.882812 14.117188 18.886719 L 14.117188 20.261719 " fill-opacity="1" fill-rule="nonzero"/><path fill="#e98b1b" d="M 13.726562 20.246094 C 13.648438 20.242188 13.570312 20.234375 13.496094 20.230469 L 13.496094 18.851562 C 13.570312 18.859375 13.648438 18.863281 13.726562 18.867188 L 13.726562 20.246094 " fill-opacity="1" fill-rule="nonzero"/><path fill="#e98b1b" d="M 14.507812 20.273438 C 14.433594 20.269531 14.355469 20.269531 14.277344 20.265625 L 14.277344 18.890625 C 14.355469 18.890625 14.433594 18.894531 14.507812 18.894531 L 14.507812 20.273438 " fill-opacity="1" fill-rule="nonzero"/><path fill="#e98b1b" d="M 14.789062 20.273438 C 14.75 20.273438 14.710938 20.273438 14.671875 20.273438 L 14.671875 18.894531 C 14.710938 18.894531 14.75 18.898438 14.789062 18.898438 C 14.828125 18.898438 14.863281 18.898438 14.902344 18.894531 L 14.902344 20.273438 C 14.863281 20.273438 14.828125 20.273438 14.789062 20.273438 " fill-opacity="1" fill-rule="nonzero"/><path fill="#e98b1b" d="M 15.0625 20.273438 L 15.0625 18.894531 C 15.140625 18.894531 15.214844 18.890625 15.292969 18.890625 L 15.292969 20.265625 C 15.214844 20.269531 15.140625 20.269531 15.0625 20.273438 " fill-opacity="1" fill-rule="nonzero"/><path fill="#e98b1b" d="M 15.453125 20.261719 L 15.453125 18.886719 C 15.53125 18.882812 15.609375 18.878906 15.683594 18.875 L 15.683594 20.253906 C 15.609375 20.257812 15.53125 20.261719 15.453125 20.261719 " fill-opacity="1" fill-rule="nonzero"/><path fill="#e98b1b" d="M 15.84375 20.246094 L 15.84375 18.867188 C 15.921875 18.863281 16 18.859375 16.074219 18.855469 L 16.074219 20.230469 C 16 20.234375 15.921875 20.242188 15.84375 20.246094 " fill-opacity="1" fill-rule="nonzero"/><path fill="#e98b1b" d="M 16.238281 20.21875 L 16.238281 18.84375 C 16.316406 18.835938 16.390625 18.832031 16.46875 18.824219 L 16.46875 20.199219 C 16.390625 20.207031 16.316406 20.214844 16.238281 20.21875 " fill-opacity="1" fill-rule="nonzero"/><path fill="#e98b1b" d="M 16.628906 20.183594 L 16.628906 18.808594 C 16.707031 18.800781 16.785156 18.792969 16.859375 18.785156 L 16.859375 20.160156 C 16.785156 20.167969 16.707031 20.175781 16.628906 20.183594 " fill-opacity="1" fill-rule="nonzero"/><path fill="#e98b1b" d="M 17.019531 20.140625 L 17.019531 18.765625 C 17.097656 18.757812 17.175781 18.746094 17.25 18.738281 L 17.25 20.113281 C 17.175781 20.121094 17.097656 20.132812 17.019531 20.140625 " fill-opacity="1" fill-rule="nonzero"/><path fill="#e98b1b" d="M 13.332031 20.21875 C 13.257812 20.210938 13.179688 20.207031 13.105469 20.199219 L 13.105469 18.824219 C 13.179688 18.832031 13.257812 18.835938 13.332031 18.84375 L 13.332031 20.21875 " fill-opacity="1" fill-rule="nonzero"/><path fill="#e98b1b" d="M 12.941406 20.183594 C 12.863281 20.175781 12.789062 20.167969 12.710938 20.160156 L 12.710938 18.785156 C 12.789062 18.792969 12.863281 18.800781 12.941406 18.808594 L 12.941406 20.183594 " fill-opacity="1" fill-rule="nonzero"/><path fill="#e98b1b" d="M 12.550781 20.140625 C 12.472656 20.128906 12.394531 20.121094 12.320312 20.109375 L 12.320312 18.734375 C 12.394531 18.746094 12.472656 18.757812 12.550781 18.765625 L 12.550781 20.140625 " fill-opacity="1" fill-rule="nonzero"/><path fill="#e98b1b" d="M 10.199219 19.644531 C 10.121094 19.621094 10.046875 19.59375 9.96875 19.570312 L 9.96875 18.203125 C 10.046875 18.230469 10.121094 18.257812 10.199219 18.28125 L 10.199219 19.644531 " fill-opacity="1" fill-rule="nonzero"/><path fill="#e98b1b" d="M 9.789062 19.5 C 9.714844 19.472656 9.644531 19.445312 9.578125 19.417969 L 9.578125 18.058594 C 9.652344 18.089844 9.730469 18.117188 9.808594 18.148438 L 9.808594 19.480469 C 9.808594 19.488281 9.800781 19.496094 9.789062 19.5 " fill-opacity="1" fill-rule="nonzero"/><path fill="#e98b1b" d="M 9.359375 19.320312 C 9.296875 19.292969 9.242188 19.265625 9.1875 19.238281 L 9.1875 17.886719 C 9.261719 17.921875 9.335938 17.957031 9.417969 17.992188 L 9.417969 19.285156 C 9.417969 19.300781 9.390625 19.3125 9.359375 19.320312 " fill-opacity="1" fill-rule="nonzero"/><path fill="#e98b1b" d="M 8.976562 19.125 C 8.914062 19.089844 8.851562 19.054688 8.796875 19.015625 L 8.796875 17.671875 C 8.867188 17.71875 8.945312 17.761719 9.027344 17.804688 L 9.027344 19.09375 C 9.027344 19.105469 9.003906 19.117188 8.976562 19.125 " fill-opacity="1" fill-rule="nonzero"/><path fill="#e98b1b" d="M 8.632812 18.90625 C 8.546875 18.84375 8.472656 18.78125 8.402344 18.71875 L 8.402344 17.398438 C 8.472656 17.457031 8.550781 17.511719 8.632812 17.570312 L 8.632812 18.90625 " fill-opacity="1" fill-rule="nonzero"/><path fill="#e98b1b" d="M 8.242188 18.550781 C 8.140625 18.429688 8.0625 18.304688 8.011719 18.179688 L 8.011719 16.960938 C 8.074219 17.0625 8.148438 17.15625 8.242188 17.25 L 8.242188 18.550781 " fill-opacity="1" fill-rule="nonzero"/><g clip-path="url(#c181e6469f)"><path fill="#f89e19" d="M 22.679688 15.355469 L 22.679688 13.882812 L 8.792969 13.882812 L 8.792969 15.355469 C 8.792969 16.71875 11.902344 17.824219 15.734375 17.824219 C 19.570312 17.824219 22.679688 16.71875 22.679688 15.355469 " fill-opacity="1" fill-rule="nonzero"/></g><g clip-path="url(#7ce8925cb1)"><path fill="#f5c116" d="M 15.734375 16.242188 C 11.902344 16.242188 8.792969 15.136719 8.792969 13.777344 C 8.792969 12.414062 11.902344 11.308594 15.734375 11.308594 C 19.570312 11.308594 22.679688 12.414062 22.679688 13.777344 C 22.679688 15.136719 19.570312 16.242188 15.734375 16.242188 " fill-opacity="1" fill-rule="nonzero"/></g><path fill="#f89e19" d="M 16.152344 14.738281 C 16.429688 14.71875 16.660156 14.675781 16.832031 14.601562 C 17.007812 14.527344 17.09375 14.441406 17.09375 14.34375 C 17.09375 14.253906 17.023438 14.179688 16.875 14.113281 C 16.726562 14.050781 16.488281 14 16.152344 13.964844 L 16.152344 14.738281 M 15.34375 12.632812 C 15.125 12.660156 14.953125 12.703125 14.820312 12.765625 C 14.691406 12.832031 14.628906 12.902344 14.628906 12.976562 C 14.628906 13.046875 14.6875 13.113281 14.804688 13.171875 C 14.925781 13.230469 15.105469 13.28125 15.34375 13.316406 L 15.34375 12.632812 M 15.34375 14.710938 L 15.34375 13.882812 C 14.617188 13.808594 14.085938 13.695312 13.742188 13.546875 C 13.40625 13.394531 13.234375 13.214844 13.234375 13 C 13.234375 12.785156 13.425781 12.601562 13.8125 12.453125 C 14.195312 12.308594 14.707031 12.222656 15.34375 12.199219 L 15.34375 12.003906 L 16.152344 12.003906 L 16.152344 12.199219 C 16.742188 12.226562 17.214844 12.296875 17.5625 12.414062 C 17.914062 12.535156 18.136719 12.691406 18.230469 12.890625 L 16.824219 12.953125 C 16.738281 12.800781 16.511719 12.695312 16.152344 12.636719 L 16.152344 13.414062 C 17.046875 13.496094 17.652344 13.609375 17.976562 13.746094 C 18.296875 13.882812 18.460938 14.058594 18.460938 14.269531 C 18.460938 14.511719 18.257812 14.710938 17.851562 14.875 C 17.445312 15.039062 16.878906 15.140625 16.152344 15.175781 L 16.152344 15.546875 L 15.34375 15.546875 L 15.34375 15.1875 C 14.703125 15.160156 14.179688 15.074219 13.78125 14.929688 C 13.378906 14.789062 13.121094 14.585938 13.011719 14.328125 L 14.464844 14.269531 C 14.523438 14.378906 14.636719 14.46875 14.800781 14.542969 C 14.960938 14.621094 15.144531 14.675781 15.34375 14.710938 " fill-opacity="1" fill-rule="nonzero"/><g clip-path="url(#cc19351312)"><path fill="#e98b1b" d="M 21.894531 16.34375 L 21.890625 16.339844 L 21.890625 15.007812 C 21.976562 14.953125 22.050781 14.894531 22.121094 14.835938 L 22.121094 16.15625 C 22.054688 16.21875 21.976562 16.28125 21.894531 16.34375 " fill-opacity="1" fill-rule="nonzero"/></g><path fill="#e98b1b" d="M 21.546875 16.566406 C 21.519531 16.558594 21.5 16.546875 21.5 16.53125 L 21.5 15.242188 C 21.582031 15.203125 21.65625 15.15625 21.730469 15.113281 L 21.730469 16.453125 C 21.671875 16.492188 21.613281 16.527344 21.546875 16.566406 " fill-opacity="1" fill-rule="nonzero"/><g clip-path="url(#0e5b01aa4f)"><path fill="#e98b1b" d="M 22.285156 15.992188 L 22.285156 14.6875 C 22.375 14.59375 22.453125 14.5 22.515625 14.402344 L 22.515625 15.617188 C 22.464844 15.746094 22.386719 15.871094 22.285156 15.992188 " fill-opacity="1" fill-rule="nonzero"/></g><path fill="#e98b1b" d="M 21.167969 16.761719 C 21.132812 16.753906 21.109375 16.742188 21.109375 16.726562 L 21.109375 15.429688 C 21.1875 15.394531 21.265625 15.359375 21.339844 15.324219 L 21.339844 16.675781 C 21.285156 16.707031 21.226562 16.734375 21.167969 16.761719 " fill-opacity="1" fill-rule="nonzero"/><path fill="#e98b1b" d="M 20.738281 16.941406 C 20.726562 16.933594 20.71875 16.925781 20.71875 16.917969 L 20.71875 15.585938 C 20.796875 15.558594 20.871094 15.527344 20.949219 15.496094 L 20.949219 16.855469 C 20.878906 16.886719 20.808594 16.914062 20.738281 16.941406 " fill-opacity="1" fill-rule="nonzero"/><path fill="#e98b1b" d="M 20.324219 17.085938 L 20.324219 15.71875 C 20.402344 15.695312 20.480469 15.667969 20.554688 15.644531 L 20.554688 17.007812 C 20.480469 17.035156 20.402344 17.058594 20.324219 17.085938 " fill-opacity="1" fill-rule="nonzero"/><path fill="#e98b1b" d="M 19.933594 17.203125 L 19.933594 15.832031 C 20.011719 15.8125 20.089844 15.792969 20.164062 15.769531 L 20.164062 17.136719 C 20.089844 17.15625 20.011719 17.179688 19.933594 17.203125 " fill-opacity="1" fill-rule="nonzero"/><path fill="#e98b1b" d="M 19.542969 17.304688 L 19.542969 15.933594 C 19.621094 15.914062 19.695312 15.894531 19.773438 15.875 L 19.773438 17.246094 C 19.695312 17.265625 19.621094 17.285156 19.542969 17.304688 " fill-opacity="1" fill-rule="nonzero"/><path fill="#e98b1b" d="M 19.152344 17.386719 L 19.152344 16.015625 C 19.226562 16 19.304688 15.984375 19.378906 15.96875 L 19.378906 17.339844 C 19.304688 17.355469 19.226562 17.371094 19.152344 17.386719 " fill-opacity="1" fill-rule="nonzero"/><path fill="#e98b1b" d="M 18.757812 17.464844 L 18.757812 16.089844 C 18.835938 16.078125 18.914062 16.0625 18.988281 16.046875 L 18.988281 17.421875 C 18.914062 17.4375 18.835938 17.449219 18.757812 17.464844 " fill-opacity="1" fill-rule="nonzero"/><path fill="#e98b1b" d="M 18.367188 17.527344 L 18.367188 16.152344 C 18.445312 16.140625 18.519531 16.128906 18.597656 16.117188 L 18.597656 17.492188 C 18.519531 17.503906 18.445312 17.515625 18.367188 17.527344 " fill-opacity="1" fill-rule="nonzero"/><path fill="#e98b1b" d="M 13.105469 17.527344 C 13.027344 17.515625 12.949219 17.503906 12.875 17.492188 L 12.875 16.117188 C 12.949219 16.128906 13.027344 16.140625 13.105469 16.152344 L 13.105469 17.527344 " fill-opacity="1" fill-rule="nonzero"/><path fill="#e98b1b" d="M 12.710938 17.464844 C 12.636719 17.449219 12.558594 17.4375 12.480469 17.421875 L 12.480469 16.046875 C 12.558594 16.0625 12.632812 16.078125 12.710938 16.089844 L 12.710938 17.464844 " fill-opacity="1" fill-rule="nonzero"/><path fill="#e98b1b" d="M 12.320312 17.386719 C 12.242188 17.371094 12.167969 17.355469 12.089844 17.339844 L 12.089844 15.96875 C 12.167969 15.984375 12.242188 16 12.320312 16.015625 L 12.320312 17.386719 " fill-opacity="1" fill-rule="nonzero"/><path fill="#e98b1b" d="M 11.929688 17.304688 C 11.851562 17.285156 11.773438 17.265625 11.699219 17.246094 L 11.699219 15.875 C 11.773438 15.894531 11.851562 15.914062 11.929688 15.933594 L 11.929688 17.304688 " fill-opacity="1" fill-rule="nonzero"/><path fill="#e98b1b" d="M 11.539062 17.203125 C 11.460938 17.179688 11.382812 17.15625 11.308594 17.136719 L 11.308594 15.769531 C 11.382812 15.792969 11.460938 15.8125 11.539062 15.832031 L 11.539062 17.203125 " fill-opacity="1" fill-rule="nonzero"/><path fill="#e98b1b" d="M 15.0625 17.703125 C 14.984375 17.699219 14.910156 17.695312 14.832031 17.691406 L 14.832031 16.316406 C 14.910156 16.316406 14.984375 16.320312 15.0625 16.324219 L 15.0625 17.703125 " fill-opacity="1" fill-rule="nonzero"/><path fill="#e98b1b" d="M 14.671875 17.683594 C 14.59375 17.679688 14.515625 17.675781 14.441406 17.667969 L 14.441406 16.292969 C 14.515625 16.296875 14.59375 16.304688 14.671875 16.308594 L 14.671875 17.683594 " fill-opacity="1" fill-rule="nonzero"/><path fill="#e98b1b" d="M 15.453125 17.710938 C 15.375 17.710938 15.300781 17.707031 15.222656 17.707031 L 15.222656 16.328125 C 15.300781 16.332031 15.375 16.332031 15.453125 16.332031 L 15.453125 17.710938 " fill-opacity="1" fill-rule="nonzero"/><path fill="#e98b1b" d="M 15.734375 17.714844 C 15.695312 17.714844 15.65625 17.710938 15.617188 17.710938 L 15.617188 16.335938 C 15.65625 16.335938 15.695312 16.335938 15.734375 16.335938 C 15.773438 16.335938 15.808594 16.335938 15.84375 16.335938 L 15.84375 17.710938 C 15.808594 17.710938 15.773438 17.714844 15.734375 17.714844 " fill-opacity="1" fill-rule="nonzero"/><path fill="#e98b1b" d="M 16.007812 17.710938 L 16.007812 16.332031 C 16.085938 16.332031 16.160156 16.332031 16.238281 16.328125 L 16.238281 17.707031 C 16.160156 17.707031 16.085938 17.710938 16.007812 17.710938 " fill-opacity="1" fill-rule="nonzero"/><path fill="#e98b1b" d="M 16.398438 17.703125 L 16.398438 16.324219 C 16.476562 16.320312 16.550781 16.320312 16.628906 16.316406 L 16.628906 17.691406 C 16.550781 17.695312 16.476562 17.699219 16.398438 17.703125 " fill-opacity="1" fill-rule="nonzero"/><path fill="#e98b1b" d="M 16.789062 17.683594 L 16.789062 16.308594 C 16.867188 16.304688 16.945312 16.296875 17.019531 16.292969 L 17.019531 17.667969 C 16.945312 17.675781 16.867188 17.679688 16.789062 17.683594 " fill-opacity="1" fill-rule="nonzero"/><path fill="#e98b1b" d="M 17.183594 17.660156 L 17.183594 16.28125 C 17.257812 16.277344 17.335938 16.269531 17.414062 16.261719 L 17.414062 17.640625 C 17.335938 17.644531 17.257812 17.652344 17.183594 17.660156 " fill-opacity="1" fill-rule="nonzero"/><path fill="#e98b1b" d="M 17.574219 17.625 L 17.574219 16.246094 C 17.652344 16.242188 17.730469 16.234375 17.804688 16.226562 L 17.804688 17.601562 C 17.730469 17.609375 17.652344 17.617188 17.574219 17.625 " fill-opacity="1" fill-rule="nonzero"/><path fill="#e98b1b" d="M 17.964844 17.582031 L 17.964844 16.207031 C 18.042969 16.195312 18.121094 16.1875 18.195312 16.175781 L 18.195312 17.550781 C 18.121094 17.5625 18.042969 17.570312 17.964844 17.582031 " fill-opacity="1" fill-rule="nonzero"/><path fill="#e98b1b" d="M 14.277344 17.65625 C 14.203125 17.652344 14.125 17.644531 14.046875 17.640625 L 14.046875 16.261719 C 14.125 16.269531 14.203125 16.273438 14.277344 16.28125 L 14.277344 17.65625 " fill-opacity="1" fill-rule="nonzero"/><path fill="#e98b1b" d="M 13.886719 17.621094 C 13.808594 17.617188 13.734375 17.609375 13.65625 17.597656 L 13.65625 16.222656 C 13.734375 16.230469 13.808594 16.238281 13.886719 16.246094 L 13.886719 17.621094 " fill-opacity="1" fill-rule="nonzero"/><path fill="#e98b1b" d="M 13.496094 17.578125 C 13.417969 17.570312 13.339844 17.558594 13.265625 17.550781 L 13.265625 16.175781 C 13.339844 16.183594 13.417969 16.195312 13.496094 16.203125 L 13.496094 17.578125 " fill-opacity="1" fill-rule="nonzero"/><path fill="#e98b1b" d="M 11.144531 17.085938 C 11.066406 17.058594 10.988281 17.035156 10.914062 17.007812 L 10.914062 15.644531 C 10.988281 15.667969 11.066406 15.695312 11.144531 15.71875 L 11.144531 17.085938 " fill-opacity="1" fill-rule="nonzero"/><path fill="#e98b1b" d="M 10.730469 16.941406 C 10.660156 16.914062 10.589844 16.886719 10.523438 16.855469 L 10.523438 15.496094 C 10.597656 15.527344 10.675781 15.558594 10.753906 15.585938 L 10.753906 16.917969 C 10.753906 16.925781 10.746094 16.933594 10.730469 16.941406 " fill-opacity="1" fill-rule="nonzero"/><path fill="#e98b1b" d="M 10.304688 16.761719 C 10.246094 16.734375 10.1875 16.707031 10.132812 16.675781 L 10.132812 15.324219 C 10.207031 15.359375 10.28125 15.394531 10.363281 15.429688 L 10.363281 16.726562 C 10.363281 16.742188 10.335938 16.753906 10.304688 16.761719 " fill-opacity="1" fill-rule="nonzero"/><path fill="#e98b1b" d="M 9.921875 16.566406 C 9.859375 16.527344 9.796875 16.492188 9.742188 16.453125 L 9.742188 15.113281 C 9.8125 15.15625 9.890625 15.203125 9.96875 15.242188 L 9.96875 16.53125 C 9.96875 16.546875 9.949219 16.558594 9.921875 16.566406 " fill-opacity="1" fill-rule="nonzero"/><path fill="#e98b1b" d="M 9.578125 16.34375 C 9.492188 16.28125 9.417969 16.21875 9.347656 16.15625 L 9.347656 14.835938 C 9.417969 14.894531 9.496094 14.953125 9.578125 15.007812 L 9.578125 16.34375 " fill-opacity="1" fill-rule="nonzero"/><path fill="#e98b1b" d="M 9.1875 15.992188 C 9.082031 15.871094 9.007812 15.746094 8.957031 15.617188 L 8.957031 14.65625 C 9.03125 14.691406 9.109375 14.722656 9.1875 14.753906 L 9.1875 15.992188 " fill-opacity="1" fill-rule="nonzero"/><g clip-path="url(#e8ff0db413)"><path fill="#f89e19" d="M 21.335938 13.125 L 21.335938 11.652344 L 7.449219 11.652344 L 7.449219 13.125 C 7.449219 14.484375 10.558594 15.589844 14.394531 15.589844 C 18.230469 15.589844 21.335938 14.484375 21.335938 13.125 " fill-opacity="1" fill-rule="nonzero"/></g><g clip-path="url(#e78caac12c)"><path fill="#f5c116" d="M 14.394531 14.011719 C 10.558594 14.011719 7.449219 12.90625 7.449219 11.542969 C 7.449219 10.179688 10.558594 9.074219 14.394531 9.074219 C 18.230469 9.074219 21.335938 10.179688 21.335938 11.542969 C 21.335938 12.90625 18.230469 14.011719 14.394531 14.011719 " fill-opacity="1" fill-rule="nonzero"/></g><path fill="#f89e19" d="M 14.8125 12.507812 C 15.089844 12.488281 15.316406 12.441406 15.492188 12.367188 C 15.664062 12.296875 15.753906 12.210938 15.753906 12.109375 C 15.753906 12.023438 15.679688 11.945312 15.535156 11.882812 C 15.386719 11.816406 15.148438 11.769531 14.8125 11.734375 L 14.8125 12.507812 M 14.003906 10.398438 C 13.785156 10.425781 13.609375 10.472656 13.480469 10.535156 C 13.351562 10.597656 13.285156 10.667969 13.285156 10.746094 C 13.285156 10.816406 13.34375 10.878906 13.464844 10.941406 C 13.582031 11 13.761719 11.046875 14.003906 11.085938 L 14.003906 10.398438 M 14.003906 12.480469 L 14.003906 11.648438 C 13.277344 11.574219 12.742188 11.464844 12.402344 11.3125 C 12.0625 11.164062 11.890625 10.980469 11.890625 10.769531 C 11.890625 10.550781 12.085938 10.371094 12.46875 10.222656 C 12.851562 10.074219 13.363281 9.992188 14.003906 9.96875 L 14.003906 9.773438 L 14.8125 9.773438 L 14.8125 9.96875 C 15.402344 9.992188 15.871094 10.066406 16.222656 10.183594 C 16.570312 10.300781 16.792969 10.457031 16.890625 10.65625 L 15.480469 10.722656 C 15.394531 10.566406 15.171875 10.460938 14.8125 10.40625 L 14.8125 11.179688 C 15.703125 11.265625 16.3125 11.378906 16.632812 11.515625 C 16.957031 11.648438 17.117188 11.824219 17.117188 12.039062 C 17.117188 12.277344 16.914062 12.480469 16.507812 12.644531 C 16.101562 12.808594 15.535156 12.90625 14.8125 12.945312 L 14.8125 13.316406 L 14.003906 13.316406 L 14.003906 12.953125 C 13.363281 12.925781 12.839844 12.839844 12.4375 12.699219 C 12.039062 12.554688 11.78125 12.355469 11.667969 12.09375 L 13.125 12.039062 C 13.183594 12.144531 13.292969 12.234375 13.457031 12.3125 C 13.621094 12.386719 13.804688 12.445312 14.003906 12.480469 " fill-opacity="1" fill-rule="nonzero"/><path fill="#e98b1b" d="M 20.550781 14.109375 L 20.550781 12.777344 C 20.632812 12.71875 20.710938 12.664062 20.78125 12.605469 L 20.78125 13.921875 C 20.710938 13.988281 20.636719 14.050781 20.550781 14.109375 " fill-opacity="1" fill-rule="nonzero"/><path fill="#e98b1b" d="M 20.207031 14.332031 C 20.179688 14.324219 20.160156 14.3125 20.160156 14.300781 L 20.160156 13.011719 C 20.238281 12.96875 20.316406 12.925781 20.390625 12.878906 L 20.390625 14.222656 C 20.332031 14.261719 20.269531 14.296875 20.207031 14.332031 " fill-opacity="1" fill-rule="nonzero"/><path fill="#e98b1b" d="M 20.941406 13.757812 L 20.941406 12.457031 C 20.988281 12.410156 21.03125 12.363281 21.066406 12.316406 C 21.105469 12.289062 21.140625 12.261719 21.171875 12.234375 L 21.171875 13.386719 C 21.121094 13.511719 21.046875 13.636719 20.941406 13.757812 " fill-opacity="1" fill-rule="nonzero"/><path fill="#e98b1b" d="M 19.828125 14.527344 C 19.792969 14.519531 19.765625 14.507812 19.765625 14.492188 L 19.765625 13.199219 C 19.847656 13.164062 19.921875 13.128906 19.996094 13.09375 L 19.996094 14.445312 C 19.941406 14.472656 19.886719 14.5 19.828125 14.527344 " fill-opacity="1" fill-rule="nonzero"/><path fill="#e98b1b" d="M 19.398438 14.707031 C 19.386719 14.703125 19.375 14.695312 19.375 14.683594 L 19.375 13.355469 C 19.453125 13.324219 19.53125 13.296875 19.605469 13.265625 L 19.605469 14.625 C 19.539062 14.652344 19.46875 14.679688 19.398438 14.707031 " fill-opacity="1" fill-rule="nonzero"/><path fill="#e98b1b" d="M 18.984375 14.851562 L 18.984375 13.488281 C 19.0625 13.460938 19.140625 13.4375 19.214844 13.410156 L 19.214844 14.777344 C 19.140625 14.800781 19.0625 14.828125 18.984375 14.851562 " fill-opacity="1" fill-rule="nonzero"/><path fill="#e98b1b" d="M 18.59375 14.96875 L 18.59375 13.601562 C 18.671875 13.578125 18.746094 13.558594 18.824219 13.535156 L 18.824219 14.902344 C 18.746094 14.925781 18.671875 14.949219 18.59375 14.96875 " fill-opacity="1" fill-rule="nonzero"/><path fill="#e98b1b" d="M 18.199219 15.070312 L 18.199219 13.699219 C 18.277344 13.679688 18.355469 13.664062 18.429688 13.644531 L 18.429688 15.011719 C 18.355469 15.03125 18.277344 15.050781 18.199219 15.070312 " fill-opacity="1" fill-rule="nonzero"/><path fill="#e98b1b" d="M 17.808594 15.15625 L 17.808594 13.785156 C 17.886719 13.769531 17.964844 13.753906 18.039062 13.738281 L 18.039062 15.105469 C 17.964844 15.125 17.886719 15.140625 17.808594 15.15625 " fill-opacity="1" fill-rule="nonzero"/><path fill="#e98b1b" d="M 17.417969 15.230469 L 17.417969 13.859375 C 17.496094 13.84375 17.570312 13.832031 17.648438 13.816406 L 17.648438 15.1875 C 17.570312 15.203125 17.496094 15.21875 17.417969 15.230469 " fill-opacity="1" fill-rule="nonzero"/><path fill="#e98b1b" d="M 17.027344 15.292969 L 17.027344 13.917969 C 17.101562 13.910156 17.179688 13.898438 17.253906 13.882812 L 17.253906 15.257812 C 17.179688 15.269531 17.101562 15.28125 17.027344 15.292969 " fill-opacity="1" fill-rule="nonzero"/><path fill="#e98b1b" d="M 11.761719 15.292969 C 11.683594 15.28125 11.609375 15.269531 11.53125 15.257812 L 11.53125 13.882812 C 11.609375 13.898438 11.683594 13.910156 11.761719 13.917969 L 11.761719 15.292969 " fill-opacity="1" fill-rule="nonzero"/><path fill="#e98b1b" d="M 11.371094 15.230469 C 11.292969 15.21875 11.214844 15.203125 11.140625 15.1875 L 11.140625 13.816406 C 11.214844 13.832031 11.292969 13.84375 11.371094 13.859375 L 11.371094 15.230469 " fill-opacity="1" fill-rule="nonzero"/><path fill="#e98b1b" d="M 10.980469 15.15625 C 10.902344 15.140625 10.824219 15.125 10.75 15.105469 L 10.75 13.738281 C 10.824219 13.753906 10.902344 13.769531 10.980469 13.785156 L 10.980469 15.15625 " fill-opacity="1" fill-rule="nonzero"/><path fill="#e98b1b" d="M 10.585938 15.070312 C 10.507812 15.050781 10.433594 15.03125 10.355469 15.011719 L 10.355469 13.644531 C 10.433594 13.664062 10.507812 13.679688 10.585938 13.699219 L 10.585938 15.070312 " fill-opacity="1" fill-rule="nonzero"/><path fill="#e98b1b" d="M 10.195312 14.96875 C 10.117188 14.949219 10.042969 14.925781 9.964844 14.902344 L 9.964844 13.535156 C 10.039062 13.558594 10.117188 13.578125 10.195312 13.601562 L 10.195312 14.96875 " fill-opacity="1" fill-rule="nonzero"/><path fill="#e98b1b" d="M 13.71875 15.46875 C 13.644531 15.464844 13.566406 15.464844 13.492188 15.460938 L 13.492188 14.082031 C 13.566406 14.085938 13.644531 14.089844 13.71875 14.09375 L 13.71875 15.46875 " fill-opacity="1" fill-rule="nonzero"/><path fill="#e98b1b" d="M 13.328125 15.453125 C 13.25 15.449219 13.175781 15.441406 13.097656 15.4375 L 13.097656 14.058594 C 13.175781 14.066406 13.25 14.070312 13.328125 14.074219 L 13.328125 15.453125 " fill-opacity="1" fill-rule="nonzero"/><path fill="#e98b1b" d="M 14.113281 15.480469 C 14.035156 15.476562 13.957031 15.476562 13.882812 15.472656 L 13.882812 14.097656 C 13.957031 14.097656 14.035156 14.101562 14.113281 14.101562 L 14.113281 15.480469 " fill-opacity="1" fill-rule="nonzero"/><path fill="#e98b1b" d="M 14.394531 15.480469 C 14.355469 15.480469 14.3125 15.480469 14.273438 15.480469 L 14.273438 14.101562 C 14.3125 14.101562 14.355469 14.105469 14.394531 14.105469 C 14.429688 14.105469 14.46875 14.101562 14.503906 14.101562 L 14.503906 15.480469 C 14.46875 15.480469 14.429688 15.480469 14.394531 15.480469 " fill-opacity="1" fill-rule="nonzero"/><path fill="#e98b1b" d="M 14.664062 15.480469 L 14.664062 14.101562 C 14.742188 14.101562 14.820312 14.097656 14.894531 14.097656 L 14.894531 15.472656 C 14.820312 15.476562 14.742188 15.476562 14.664062 15.480469 " fill-opacity="1" fill-rule="nonzero"/><path fill="#e98b1b" d="M 15.058594 15.46875 L 15.058594 14.09375 C 15.132812 14.089844 15.210938 14.085938 15.289062 14.082031 L 15.289062 15.460938 C 15.210938 15.464844 15.132812 15.46875 15.058594 15.46875 " fill-opacity="1" fill-rule="nonzero"/><path fill="#e98b1b" d="M 15.449219 15.453125 L 15.449219 14.074219 C 15.527344 14.070312 15.601562 14.066406 15.679688 14.0625 L 15.679688 15.4375 C 15.601562 15.441406 15.527344 15.449219 15.449219 15.453125 " fill-opacity="1" fill-rule="nonzero"/><path fill="#e98b1b" d="M 15.839844 15.425781 L 15.839844 14.050781 C 15.917969 14.042969 15.996094 14.039062 16.070312 14.03125 L 16.070312 15.40625 C 15.996094 15.414062 15.917969 15.421875 15.839844 15.425781 " fill-opacity="1" fill-rule="nonzero"/><path fill="#e98b1b" d="M 16.230469 15.390625 L 16.230469 14.015625 C 16.308594 14.007812 16.386719 14 16.464844 13.992188 L 16.464844 15.367188 C 16.386719 15.375 16.308594 15.382812 16.230469 15.390625 " fill-opacity="1" fill-rule="nonzero"/><path fill="#e98b1b" d="M 16.625 15.347656 L 16.625 13.972656 C 16.703125 13.964844 16.777344 13.953125 16.855469 13.945312 L 16.855469 15.320312 C 16.777344 15.328125 16.703125 15.339844 16.625 15.347656 " fill-opacity="1" fill-rule="nonzero"/><path fill="#e98b1b" d="M 12.9375 15.425781 C 12.859375 15.417969 12.785156 15.414062 12.707031 15.40625 L 12.707031 14.03125 C 12.785156 14.035156 12.859375 14.042969 12.9375 14.050781 L 12.9375 15.425781 " fill-opacity="1" fill-rule="nonzero"/><path fill="#e98b1b" d="M 12.546875 15.390625 C 12.46875 15.382812 12.390625 15.375 12.316406 15.367188 L 12.316406 13.992188 C 12.390625 14 12.46875 14.007812 12.546875 14.015625 L 12.546875 15.390625 " fill-opacity="1" fill-rule="nonzero"/><path fill="#e98b1b" d="M 12.152344 15.347656 C 12.078125 15.335938 12 15.328125 11.921875 15.316406 L 11.921875 13.941406 C 12 13.953125 12.078125 13.960938 12.152344 13.972656 L 12.152344 15.347656 " fill-opacity="1" fill-rule="nonzero"/><path fill="#e98b1b" d="M 9.804688 14.851562 C 9.726562 14.828125 9.648438 14.800781 9.574219 14.777344 L 9.574219 13.410156 C 9.648438 13.4375 9.726562 13.460938 9.804688 13.488281 L 9.804688 14.851562 " fill-opacity="1" fill-rule="nonzero"/><path fill="#e98b1b" d="M 9.390625 14.707031 C 9.320312 14.679688 9.25 14.652344 9.183594 14.625 L 9.183594 13.265625 C 9.257812 13.296875 9.332031 13.324219 9.414062 13.355469 L 9.414062 14.683594 C 9.414062 14.695312 9.402344 14.703125 9.390625 14.707031 " fill-opacity="1" fill-rule="nonzero"/><path fill="#e98b1b" d="M 8.960938 14.527344 C 8.902344 14.5 8.84375 14.472656 8.789062 14.445312 L 8.789062 13.09375 C 8.863281 13.128906 8.941406 13.164062 9.019531 13.199219 L 9.019531 14.492188 C 9.019531 14.507812 8.996094 14.519531 8.960938 14.527344 " fill-opacity="1" fill-rule="nonzero"/><path fill="#e98b1b" d="M 8.582031 14.332031 C 8.519531 14.296875 8.457031 14.261719 8.398438 14.222656 L 8.398438 12.878906 C 8.472656 12.925781 8.546875 12.96875 8.628906 13.011719 L 8.628906 14.300781 C 8.628906 14.3125 8.609375 14.324219 8.582031 14.332031 " fill-opacity="1" fill-rule="nonzero"/><path fill="#e98b1b" d="M 8.234375 14.109375 C 8.152344 14.050781 8.074219 13.988281 8.007812 13.921875 L 8.007812 12.605469 C 8.078125 12.664062 8.15625 12.71875 8.238281 12.777344 L 8.238281 14.109375 L 8.234375 14.109375 " fill-opacity="1" fill-rule="nonzero"/><g clip-path="url(#0786732944)"><path fill="#e98b1b" d="M 7.84375 13.757812 C 7.742188 13.636719 7.664062 13.511719 7.617188 13.386719 L 7.617188 12.167969 C 7.675781 12.265625 7.753906 12.363281 7.84375 12.457031 L 7.84375 13.757812 " fill-opacity="1" fill-rule="nonzero"/></g><g clip-path="url(#34f2ad8d70)"><path fill="#f89e19" d="M 21.722656 11.269531 L 21.722656 9.796875 L 7.839844 9.796875 L 7.839844 11.269531 C 7.839844 12.632812 10.945312 13.738281 14.78125 13.738281 C 18.617188 13.738281 21.722656 12.632812 21.722656 11.269531 " fill-opacity="1" fill-rule="nonzero"/></g><g clip-path="url(#2d60a66829)"><path fill="#f5c116" d="M 14.78125 12.15625 C 10.945312 12.15625 7.839844 11.050781 7.839844 9.6875 C 7.839844 8.328125 10.945312 7.222656 14.78125 7.222656 C 18.617188 7.222656 21.722656 8.328125 21.722656 9.6875 C 21.722656 11.050781 18.617188 12.15625 14.78125 12.15625 " fill-opacity="1" fill-rule="nonzero"/></g><path fill="#f89e19" d="M 15.199219 10.652344 C 15.476562 10.632812 15.703125 10.589844 15.878906 10.515625 C 16.050781 10.441406 16.140625 10.355469 16.140625 10.257812 C 16.140625 10.167969 16.066406 10.089844 15.921875 10.027344 C 15.773438 9.964844 15.535156 9.914062 15.199219 9.878906 L 15.199219 10.652344 M 14.390625 8.546875 C 14.171875 8.574219 13.996094 8.617188 13.867188 8.679688 C 13.738281 8.742188 13.671875 8.8125 13.671875 8.890625 C 13.671875 8.960938 13.730469 9.023438 13.851562 9.085938 C 13.96875 9.144531 14.148438 9.195312 14.390625 9.230469 L 14.390625 8.546875 M 14.390625 10.625 L 14.390625 9.796875 C 13.664062 9.722656 13.128906 9.609375 12.789062 9.460938 C 12.449219 9.308594 12.28125 9.128906 12.28125 8.914062 C 12.28125 8.699219 12.472656 8.515625 12.855469 8.367188 C 13.238281 8.222656 13.75 8.136719 14.390625 8.113281 L 14.390625 7.917969 L 15.199219 7.917969 L 15.199219 8.113281 C 15.789062 8.140625 16.257812 8.210938 16.609375 8.328125 C 16.957031 8.445312 17.179688 8.605469 17.277344 8.804688 L 15.867188 8.867188 C 15.78125 8.710938 15.558594 8.605469 15.199219 8.550781 L 15.199219 9.324219 C 16.089844 9.410156 16.699219 9.523438 17.019531 9.660156 C 17.34375 9.796875 17.503906 9.972656 17.503906 10.183594 C 17.503906 10.425781 17.300781 10.625 16.894531 10.789062 C 16.488281 10.953125 15.921875 11.054688 15.199219 11.089844 L 15.199219 11.460938 L 14.390625 11.460938 L 14.390625 11.101562 C 13.746094 11.070312 13.226562 10.988281 12.824219 10.84375 C 12.425781 10.703125 12.167969 10.5 12.058594 10.242188 L 13.511719 10.183594 C 13.570312 10.289062 13.679688 10.382812 13.84375 10.457031 C 14.007812 10.535156 14.191406 10.589844 14.390625 10.625 " fill-opacity="1" fill-rule="nonzero"/><path fill="#e98b1b" d="M 20.9375 12.257812 L 20.9375 10.921875 C 21.019531 10.867188 21.097656 10.808594 21.167969 10.75 L 21.167969 12.070312 C 21.097656 12.132812 21.023438 12.195312 20.9375 12.257812 " fill-opacity="1" fill-rule="nonzero"/><path fill="#e98b1b" d="M 20.59375 12.476562 C 20.566406 12.472656 20.546875 12.460938 20.546875 12.445312 L 20.546875 11.15625 C 20.625 11.113281 20.703125 11.070312 20.777344 11.027344 L 20.777344 12.367188 C 20.71875 12.40625 20.65625 12.441406 20.59375 12.476562 " fill-opacity="1" fill-rule="nonzero"/><path fill="#e98b1b" d="M 21.328125 11.90625 L 21.328125 10.601562 C 21.421875 10.507812 21.5 10.414062 21.558594 10.316406 L 21.558594 11.53125 C 21.511719 11.660156 21.433594 11.785156 21.328125 11.90625 " fill-opacity="1" fill-rule="nonzero"/><path fill="#e98b1b" d="M 20.214844 12.675781 C 20.179688 12.667969 20.152344 12.652344 20.152344 12.640625 L 20.152344 11.34375 C 20.234375 11.308594 20.308594 11.273438 20.382812 11.238281 L 20.382812 12.589844 C 20.328125 12.617188 20.273438 12.648438 20.214844 12.675781 " fill-opacity="1" fill-rule="nonzero"/><path fill="#e98b1b" d="M 19.785156 12.855469 C 19.773438 12.847656 19.761719 12.839844 19.761719 12.832031 L 19.761719 11.5 C 19.839844 11.472656 19.917969 11.441406 19.992188 11.410156 L 19.992188 12.769531 C 19.925781 12.800781 19.855469 12.828125 19.785156 12.855469 " fill-opacity="1" fill-rule="nonzero"/><path fill="#e98b1b" d="M 19.371094 13 L 19.371094 11.632812 C 19.449219 11.609375 19.527344 11.582031 19.601562 11.558594 L 19.601562 12.921875 C 19.527344 12.949219 19.449219 12.972656 19.371094 13 " fill-opacity="1" fill-rule="nonzero"/><path fill="#e98b1b" d="M 18.980469 13.113281 L 18.980469 11.746094 C 19.058594 11.726562 19.132812 11.703125 19.210938 11.683594 L 19.210938 13.046875 C 19.132812 13.070312 19.058594 13.09375 18.980469 13.113281 " fill-opacity="1" fill-rule="nonzero"/><path fill="#e98b1b" d="M 18.585938 13.214844 L 18.585938 11.84375 C 18.664062 11.828125 18.742188 11.808594 18.816406 11.789062 L 18.816406 13.160156 C 18.742188 13.179688 18.664062 13.199219 18.585938 13.214844 " fill-opacity="1" fill-rule="nonzero"/><path fill="#e98b1b" d="M 18.195312 13.300781 L 18.195312 11.929688 C 18.273438 11.914062 18.351562 11.898438 18.425781 11.882812 L 18.425781 13.253906 C 18.351562 13.269531 18.273438 13.285156 18.195312 13.300781 " fill-opacity="1" fill-rule="nonzero"/><path fill="#e98b1b" d="M 17.804688 13.375 L 17.804688 12.003906 C 17.882812 11.992188 17.957031 11.976562 18.035156 11.960938 L 18.035156 13.335938 C 17.957031 13.347656 17.882812 13.363281 17.804688 13.375 " fill-opacity="1" fill-rule="nonzero"/><path fill="#e98b1b" d="M 17.414062 13.441406 L 17.414062 12.066406 C 17.488281 12.054688 17.566406 12.042969 17.644531 12.03125 L 17.644531 13.40625 C 17.566406 13.417969 17.488281 13.429688 17.414062 13.441406 " fill-opacity="1" fill-rule="nonzero"/><path fill="#e98b1b" d="M 12.148438 13.441406 C 12.070312 13.429688 11.996094 13.417969 11.917969 13.40625 L 11.917969 12.03125 C 11.996094 12.042969 12.070312 12.054688 12.148438 12.066406 L 12.148438 13.441406 " fill-opacity="1" fill-rule="nonzero"/><path fill="#e98b1b" d="M 11.757812 13.375 C 11.679688 13.363281 11.601562 13.347656 11.527344 13.335938 L 11.527344 11.960938 C 11.601562 11.976562 11.679688 11.992188 11.757812 12.003906 L 11.757812 13.375 " fill-opacity="1" fill-rule="nonzero"/><path fill="#e98b1b" d="M 11.367188 13.300781 C 11.289062 13.285156 11.210938 13.269531 11.136719 13.253906 L 11.136719 11.882812 C 11.210938 11.898438 11.289062 11.914062 11.367188 11.929688 L 11.367188 13.300781 " fill-opacity="1" fill-rule="nonzero"/><path fill="#e98b1b" d="M 10.972656 13.214844 C 10.894531 13.199219 10.820312 13.179688 10.742188 13.160156 L 10.742188 11.789062 C 10.820312 11.808594 10.894531 11.828125 10.972656 11.84375 L 10.972656 13.214844 " fill-opacity="1" fill-rule="nonzero"/><path fill="#e98b1b" d="M 10.582031 13.113281 C 10.503906 13.09375 10.425781 13.070312 10.351562 13.046875 L 10.351562 11.683594 C 10.425781 11.703125 10.503906 11.726562 10.582031 11.746094 L 10.582031 13.113281 " fill-opacity="1" fill-rule="nonzero"/><path fill="#e98b1b" d="M 14.109375 13.613281 C 14.03125 13.613281 13.953125 13.609375 13.878906 13.605469 L 13.878906 12.226562 C 13.953125 12.230469 14.03125 12.234375 14.109375 12.238281 L 14.109375 13.613281 " fill-opacity="1" fill-rule="nonzero"/><path fill="#e98b1b" d="M 13.714844 13.597656 C 13.640625 13.59375 13.5625 13.589844 13.484375 13.582031 L 13.484375 12.207031 C 13.5625 12.210938 13.640625 12.214844 13.714844 12.222656 L 13.714844 13.597656 " fill-opacity="1" fill-rule="nonzero"/><path fill="#e98b1b" d="M 14.5 13.625 C 14.421875 13.621094 14.34375 13.621094 14.269531 13.621094 L 14.269531 12.242188 C 14.34375 12.242188 14.421875 12.246094 14.5 12.246094 L 14.5 13.625 " fill-opacity="1" fill-rule="nonzero"/><path fill="#e98b1b" d="M 14.78125 13.628906 C 14.742188 13.628906 14.699219 13.625 14.660156 13.625 L 14.660156 12.25 C 14.699219 12.25 14.742188 12.25 14.78125 12.25 C 14.816406 12.25 14.855469 12.25 14.890625 12.25 L 14.890625 13.625 C 14.855469 13.625 14.816406 13.628906 14.78125 13.628906 " fill-opacity="1" fill-rule="nonzero"/><path fill="#e98b1b" d="M 15.050781 13.625 L 15.050781 12.246094 C 15.128906 12.246094 15.207031 12.246094 15.28125 12.242188 L 15.28125 13.621094 C 15.207031 13.621094 15.128906 13.621094 15.050781 13.625 " fill-opacity="1" fill-rule="nonzero"/><path fill="#e98b1b" d="M 15.445312 13.617188 L 15.445312 12.238281 C 15.519531 12.234375 15.597656 12.230469 15.675781 12.230469 L 15.675781 13.605469 C 15.597656 13.609375 15.519531 13.613281 15.445312 13.617188 " fill-opacity="1" fill-rule="nonzero"/><path fill="#e98b1b" d="M 15.835938 13.597656 L 15.835938 12.222656 C 15.914062 12.21875 15.988281 12.210938 16.066406 12.207031 L 16.066406 13.582031 C 15.988281 13.589844 15.914062 13.59375 15.835938 13.597656 " fill-opacity="1" fill-rule="nonzero"/><path fill="#e98b1b" d="M 16.226562 13.570312 L 16.226562 12.195312 C 16.304688 12.191406 16.382812 12.183594 16.457031 12.175781 L 16.457031 13.554688 C 16.382812 13.558594 16.304688 13.566406 16.226562 13.570312 " fill-opacity="1" fill-rule="nonzero"/><path fill="#e98b1b" d="M 16.617188 13.539062 L 16.617188 12.160156 C 16.695312 12.152344 16.773438 12.148438 16.851562 12.136719 L 16.851562 13.511719 C 16.773438 13.523438 16.695312 13.53125 16.617188 13.539062 " fill-opacity="1" fill-rule="nonzero"/><path fill="#e98b1b" d="M 17.011719 13.496094 L 17.011719 12.117188 C 17.089844 12.109375 17.164062 12.097656 17.242188 12.089844 L 17.242188 13.464844 C 17.164062 13.476562 17.089844 13.484375 17.011719 13.496094 " fill-opacity="1" fill-rule="nonzero"/><path fill="#e98b1b" d="M 13.324219 13.570312 C 13.246094 13.566406 13.171875 13.558594 13.09375 13.550781 L 13.09375 12.175781 C 13.171875 12.183594 13.246094 12.1875 13.324219 12.195312 L 13.324219 13.570312 " fill-opacity="1" fill-rule="nonzero"/><path fill="#e98b1b" d="M 12.933594 13.535156 C 12.855469 13.527344 12.777344 13.519531 12.703125 13.511719 L 12.703125 12.136719 C 12.777344 12.144531 12.855469 12.152344 12.933594 12.160156 L 12.933594 13.535156 " fill-opacity="1" fill-rule="nonzero"/><path fill="#e98b1b" d="M 12.539062 13.492188 C 12.464844 13.484375 12.386719 13.472656 12.308594 13.464844 L 12.308594 12.089844 C 12.386719 12.097656 12.464844 12.109375 12.539062 12.117188 L 12.539062 13.492188 " fill-opacity="1" fill-rule="nonzero"/><path fill="#e98b1b" d="M 10.191406 13 C 10.113281 12.972656 10.035156 12.949219 9.960938 12.921875 L 9.960938 11.558594 C 10.035156 11.582031 10.113281 11.609375 10.191406 11.632812 L 10.191406 13 " fill-opacity="1" fill-rule="nonzero"/><path fill="#e98b1b" d="M 9.777344 12.855469 C 9.707031 12.828125 9.636719 12.800781 9.570312 12.769531 L 9.570312 11.410156 C 9.644531 11.441406 9.71875 11.472656 9.796875 11.5 L 9.796875 12.832031 C 9.796875 12.839844 9.789062 12.847656 9.777344 12.855469 " fill-opacity="1" fill-rule="nonzero"/><path fill="#e98b1b" d="M 9.347656 12.675781 C 9.289062 12.648438 9.234375 12.617188 9.175781 12.589844 L 9.175781 11.238281 C 9.25 11.273438 9.328125 11.308594 9.40625 11.34375 L 9.40625 12.640625 C 9.40625 12.652344 9.382812 12.667969 9.347656 12.675781 " fill-opacity="1" fill-rule="nonzero"/><path fill="#e98b1b" d="M 8.96875 12.476562 C 8.90625 12.441406 8.84375 12.40625 8.785156 12.367188 L 8.785156 11.027344 C 8.859375 11.070312 8.933594 11.113281 9.015625 11.15625 L 9.015625 12.445312 C 9.015625 12.460938 8.996094 12.472656 8.96875 12.476562 " fill-opacity="1" fill-rule="nonzero"/><path fill="#e98b1b" d="M 8.621094 12.257812 C 8.539062 12.195312 8.464844 12.132812 8.394531 12.070312 L 8.394531 10.75 C 8.464844 10.808594 8.542969 10.867188 8.625 10.921875 L 8.625 12.253906 L 8.621094 12.257812 " fill-opacity="1" fill-rule="nonzero"/><path fill="#e98b1b" d="M 8.234375 11.90625 C 8.128906 11.785156 8.050781 11.660156 8.003906 11.53125 L 8.003906 10.316406 C 8.0625 10.414062 8.140625 10.507812 8.234375 10.601562 L 8.234375 11.90625 " fill-opacity="1" fill-rule="nonzero"/><g clip-path="url(#20435d57ab)"><path fill="#f89e19" d="M 22.679688 8.945312 L 22.679688 7.472656 L 8.792969 7.472656 L 8.792969 8.945312 C 8.792969 10.308594 11.902344 11.410156 15.734375 11.410156 C 19.570312 11.410156 22.679688 10.308594 22.679688 8.945312 " fill-opacity="1" fill-rule="nonzero"/></g><g clip-path="url(#9442aa086c)"><path fill="#f5c116" d="M 15.734375 9.832031 C 11.902344 9.832031 8.792969 8.726562 8.792969 7.363281 C 8.792969 6 11.902344 4.898438 15.734375 4.898438 C 19.570312 4.898438 22.679688 6 22.679688 7.363281 C 22.679688 8.726562 19.570312 9.832031 15.734375 9.832031 " fill-opacity="1" fill-rule="nonzero"/></g><path fill="#f89e19" d="M 16.152344 8.328125 C 16.429688 8.308594 16.660156 8.261719 16.832031 8.191406 C 17.007812 8.117188 17.09375 8.03125 17.09375 7.929688 C 17.09375 7.84375 17.023438 7.765625 16.875 7.703125 C 16.726562 7.640625 16.488281 7.589844 16.152344 7.554688 Z M 15.34375 6.222656 C 15.125 6.246094 14.953125 6.292969 14.820312 6.355469 C 14.691406 6.417969 14.628906 6.488281 14.628906 6.566406 C 14.628906 6.636719 14.6875 6.699219 14.804688 6.761719 C 14.925781 6.820312 15.105469 6.867188 15.34375 6.90625 Z M 15.34375 8.300781 L 15.34375 7.46875 C 14.617188 7.394531 14.085938 7.285156 13.742188 7.132812 C 13.40625 6.984375 13.234375 6.804688 13.234375 6.589844 C 13.234375 6.371094 13.425781 6.191406 13.8125 6.042969 C 14.195312 5.894531 14.707031 5.8125 15.34375 5.789062 L 15.34375 5.59375 L 16.152344 5.59375 L 16.152344 5.789062 C 16.742188 5.8125 17.214844 5.886719 17.5625 6.003906 C 17.914062 6.121094 18.136719 6.28125 18.230469 6.476562 L 16.824219 6.542969 C 16.738281 6.386719 16.511719 6.28125 16.152344 6.226562 L 16.152344 7 C 17.046875 7.085938 17.652344 7.199219 17.976562 7.335938 C 18.296875 7.472656 18.460938 7.644531 18.460938 7.859375 C 18.460938 8.097656 18.257812 8.300781 17.851562 8.464844 C 17.445312 8.628906 16.878906 8.726562 16.152344 8.765625 L 16.152344 9.136719 L 15.34375 9.136719 L 15.34375 8.773438 C 14.703125 8.746094 14.179688 8.664062 13.78125 8.519531 C 13.378906 8.375 13.121094 8.175781 13.011719 7.914062 L 14.464844 7.859375 C 14.523438 7.964844 14.636719 8.058594 14.800781 8.132812 C 14.960938 8.210938 15.144531 8.265625 15.34375 8.300781 " fill-opacity="1" fill-rule="nonzero"/><g clip-path="url(#295a68a097)"><path fill="#e98b1b" d="M 21.894531 9.933594 L 21.890625 9.929688 L 21.890625 8.597656 C 21.976562 8.542969 22.050781 8.484375 22.121094 8.425781 L 22.121094 9.746094 C 22.054688 9.808594 21.976562 9.871094 21.894531 9.933594 " fill-opacity="1" fill-rule="nonzero"/></g><path fill="#e98b1b" d="M 21.546875 10.152344 C 21.519531 10.144531 21.5 10.136719 21.5 10.121094 L 21.5 8.832031 C 21.582031 8.789062 21.65625 8.746094 21.730469 8.703125 L 21.730469 10.042969 C 21.671875 10.082031 21.613281 10.117188 21.546875 10.152344 " fill-opacity="1" fill-rule="nonzero"/><g clip-path="url(#4320395a43)"><path fill="#e98b1b" d="M 22.285156 9.578125 L 22.285156 8.277344 C 22.375 8.183594 22.453125 8.089844 22.515625 7.992188 L 22.515625 9.207031 C 22.464844 9.332031 22.386719 9.457031 22.285156 9.578125 " fill-opacity="1" fill-rule="nonzero"/></g><path fill="#e98b1b" d="M 21.167969 10.347656 C 21.132812 10.34375 21.109375 10.328125 21.109375 10.3125 L 21.109375 9.019531 C 21.1875 8.984375 21.265625 8.949219 21.339844 8.914062 L 21.339844 10.265625 C 21.285156 10.292969 21.226562 10.320312 21.167969 10.347656 " fill-opacity="1" fill-rule="nonzero"/><path fill="#e98b1b" d="M 20.738281 10.527344 C 20.726562 10.523438 20.71875 10.515625 20.71875 10.507812 L 20.71875 9.175781 C 20.796875 9.144531 20.871094 9.117188 20.949219 9.085938 L 20.949219 10.445312 C 20.878906 10.472656 20.808594 10.5 20.738281 10.527344 " fill-opacity="1" fill-rule="nonzero"/><path fill="#e98b1b" d="M 20.324219 10.675781 L 20.324219 9.308594 C 20.402344 9.285156 20.480469 9.257812 20.554688 9.230469 L 20.554688 10.597656 C 20.480469 10.621094 20.402344 10.648438 20.324219 10.675781 " fill-opacity="1" fill-rule="nonzero"/><path fill="#e98b1b" d="M 19.933594 10.789062 L 19.933594 9.421875 C 20.011719 9.402344 20.089844 9.378906 20.164062 9.359375 L 20.164062 10.722656 C 20.089844 10.746094 20.011719 10.769531 19.933594 10.789062 " fill-opacity="1" fill-rule="nonzero"/><path fill="#e98b1b" d="M 19.542969 10.890625 L 19.542969 9.519531 C 19.621094 9.503906 19.695312 9.484375 19.773438 9.464844 L 19.773438 10.832031 C 19.695312 10.851562 19.621094 10.871094 19.542969 10.890625 " fill-opacity="1" fill-rule="nonzero"/><path fill="#e98b1b" d="M 19.152344 10.976562 L 19.152344 9.605469 C 19.226562 9.589844 19.304688 9.574219 19.378906 9.558594 L 19.378906 10.929688 C 19.304688 10.945312 19.226562 10.960938 19.152344 10.976562 " fill-opacity="1" fill-rule="nonzero"/><path fill="#e98b1b" d="M 18.757812 11.050781 L 18.757812 9.679688 C 18.835938 9.664062 18.914062 9.652344 18.988281 9.636719 L 18.988281 11.011719 C 18.914062 11.023438 18.835938 11.039062 18.757812 11.050781 " fill-opacity="1" fill-rule="nonzero"/><path fill="#e98b1b" d="M 18.367188 11.117188 L 18.367188 9.742188 C 18.445312 9.730469 18.519531 9.71875 18.597656 9.707031 L 18.597656 11.078125 C 18.519531 11.089844 18.445312 11.105469 18.367188 11.117188 " fill-opacity="1" fill-rule="nonzero"/><path fill="#e98b1b" d="M 13.105469 11.117188 C 13.027344 11.105469 12.949219 11.089844 12.875 11.078125 L 12.875 9.707031 C 12.949219 9.71875 13.027344 9.730469 13.105469 9.742188 L 13.105469 11.117188 " fill-opacity="1" fill-rule="nonzero"/><path fill="#e98b1b" d="M 12.710938 11.050781 C 12.636719 11.039062 12.558594 11.023438 12.480469 11.011719 L 12.480469 9.636719 C 12.558594 9.652344 12.632812 9.664062 12.710938 9.679688 L 12.710938 11.050781 " fill-opacity="1" fill-rule="nonzero"/><path fill="#e98b1b" d="M 12.320312 10.976562 C 12.242188 10.960938 12.167969 10.945312 12.089844 10.929688 L 12.089844 9.558594 C 12.167969 9.574219 12.242188 9.589844 12.320312 9.605469 L 12.320312 10.976562 " fill-opacity="1" fill-rule="nonzero"/><path fill="#e98b1b" d="M 11.929688 10.890625 C 11.851562 10.871094 11.773438 10.851562 11.699219 10.832031 L 11.699219 9.464844 C 11.773438 9.484375 11.851562 9.503906 11.929688 9.519531 L 11.929688 10.890625 " fill-opacity="1" fill-rule="nonzero"/><path fill="#e98b1b" d="M 11.539062 10.789062 C 11.460938 10.769531 11.382812 10.746094 11.308594 10.722656 L 11.308594 9.359375 C 11.382812 9.378906 11.460938 9.402344 11.539062 9.421875 L 11.539062 10.789062 " fill-opacity="1" fill-rule="nonzero"/><path fill="#e98b1b" d="M 15.0625 11.289062 C 14.984375 11.289062 14.910156 11.285156 14.832031 11.28125 L 14.832031 9.902344 C 14.910156 9.90625 14.984375 9.910156 15.0625 9.914062 L 15.0625 11.289062 " fill-opacity="1" fill-rule="nonzero"/><path fill="#e98b1b" d="M 14.671875 11.273438 C 14.59375 11.269531 14.515625 11.261719 14.441406 11.257812 L 14.441406 9.882812 C 14.515625 9.886719 14.59375 9.890625 14.671875 9.894531 L 14.671875 11.273438 " fill-opacity="1" fill-rule="nonzero"/><path fill="#e98b1b" d="M 15.453125 11.300781 C 15.375 11.296875 15.300781 11.296875 15.222656 11.292969 L 15.222656 9.917969 C 15.300781 9.917969 15.375 9.921875 15.453125 9.921875 L 15.453125 11.300781 " fill-opacity="1" fill-rule="nonzero"/><path fill="#e98b1b" d="M 15.734375 11.300781 C 15.695312 11.300781 15.65625 11.300781 15.617188 11.300781 L 15.617188 9.921875 C 15.65625 9.921875 15.695312 9.925781 15.734375 9.925781 C 15.773438 9.925781 15.808594 9.925781 15.84375 9.921875 L 15.84375 11.300781 C 15.808594 11.300781 15.773438 11.300781 15.734375 11.300781 " fill-opacity="1" fill-rule="nonzero"/><path fill="#e98b1b" d="M 16.007812 11.300781 L 16.007812 9.921875 C 16.085938 9.921875 16.160156 9.917969 16.238281 9.917969 L 16.238281 11.292969 C 16.160156 11.296875 16.085938 11.296875 16.007812 11.300781 " fill-opacity="1" fill-rule="nonzero"/><path fill="#e98b1b" d="M 16.398438 11.289062 L 16.398438 9.914062 C 16.476562 9.910156 16.550781 9.90625 16.628906 9.902344 L 16.628906 11.28125 C 16.550781 11.285156 16.476562 11.289062 16.398438 11.289062 " fill-opacity="1" fill-rule="nonzero"/><path fill="#e98b1b" d="M 16.789062 11.273438 L 16.789062 9.898438 C 16.867188 9.890625 16.945312 9.886719 17.019531 9.882812 L 17.019531 11.257812 C 16.945312 11.265625 16.867188 11.269531 16.789062 11.273438 " fill-opacity="1" fill-rule="nonzero"/><path fill="#e98b1b" d="M 17.183594 11.246094 L 17.183594 9.871094 C 17.257812 9.863281 17.335938 9.859375 17.414062 9.851562 L 17.414062 11.226562 C 17.335938 11.234375 17.257812 11.242188 17.183594 11.246094 " fill-opacity="1" fill-rule="nonzero"/><path fill="#e98b1b" d="M 17.574219 11.210938 L 17.574219 9.835938 C 17.652344 9.828125 17.730469 9.820312 17.804688 9.8125 L 17.804688 11.1875 C 17.730469 11.199219 17.652344 11.203125 17.574219 11.210938 " fill-opacity="1" fill-rule="nonzero"/><path fill="#e98b1b" d="M 17.964844 11.167969 L 17.964844 9.792969 C 18.042969 9.785156 18.121094 9.773438 18.195312 9.765625 L 18.195312 11.140625 C 18.121094 11.148438 18.042969 11.160156 17.964844 11.167969 " fill-opacity="1" fill-rule="nonzero"/><path fill="#e98b1b" d="M 14.277344 11.246094 C 14.203125 11.242188 14.125 11.234375 14.046875 11.226562 L 14.046875 9.851562 C 14.125 9.859375 14.203125 9.863281 14.277344 9.871094 L 14.277344 11.246094 " fill-opacity="1" fill-rule="nonzero"/><path fill="#e98b1b" d="M 13.886719 11.210938 C 13.808594 11.203125 13.734375 11.195312 13.65625 11.1875 L 13.65625 9.8125 C 13.734375 9.820312 13.808594 9.828125 13.886719 9.835938 L 13.886719 11.210938 " fill-opacity="1" fill-rule="nonzero"/><path fill="#e98b1b" d="M 13.496094 11.167969 C 13.417969 11.160156 13.339844 11.148438 13.265625 11.136719 L 13.265625 9.761719 C 13.339844 9.773438 13.417969 9.785156 13.496094 9.792969 L 13.496094 11.167969 " fill-opacity="1" fill-rule="nonzero"/><path fill="#e98b1b" d="M 11.144531 10.675781 C 11.066406 10.648438 10.988281 10.621094 10.914062 10.597656 L 10.914062 9.230469 C 10.988281 9.257812 11.066406 9.285156 11.144531 9.308594 L 11.144531 10.675781 " fill-opacity="1" fill-rule="nonzero"/><path fill="#e98b1b" d="M 10.730469 10.527344 C 10.660156 10.5 10.589844 10.472656 10.523438 10.445312 L 10.523438 9.085938 C 10.597656 9.117188 10.675781 9.144531 10.753906 9.175781 L 10.753906 10.507812 C 10.753906 10.515625 10.746094 10.523438 10.730469 10.527344 " fill-opacity="1" fill-rule="nonzero"/><path fill="#e98b1b" d="M 10.304688 10.347656 C 10.246094 10.320312 10.1875 10.292969 10.132812 10.265625 L 10.132812 8.914062 C 10.207031 8.949219 10.28125 8.984375 10.363281 9.019531 L 10.363281 10.3125 C 10.363281 10.328125 10.335938 10.34375 10.304688 10.347656 " fill-opacity="1" fill-rule="nonzero"/><path fill="#e98b1b" d="M 9.921875 10.152344 C 9.859375 10.117188 9.796875 10.082031 9.742188 10.042969 L 9.742188 8.703125 C 9.8125 8.746094 9.890625 8.789062 9.96875 8.832031 L 9.96875 10.121094 C 9.96875 10.136719 9.949219 10.144531 9.921875 10.152344 " fill-opacity="1" fill-rule="nonzero"/><path fill="#e98b1b" d="M 9.578125 9.933594 C 9.492188 9.871094 9.417969 9.808594 9.347656 9.746094 L 9.347656 8.425781 C 9.417969 8.484375 9.496094 8.542969 9.578125 8.597656 L 9.578125 9.933594 " fill-opacity="1" fill-rule="nonzero"/><path fill="#e98b1b" d="M 9.1875 9.578125 C 9.082031 9.457031 9.007812 9.332031 8.957031 9.207031 L 8.957031 7.992188 C 9.019531 8.089844 9.09375 8.183594 9.1875 8.277344 L 9.1875 9.578125 " fill-opacity="1" fill-rule="nonzero"/></svg>