<svg xmlns="http://www.w3.org/2000/svg" xmlns:xlink="http://www.w3.org/1999/xlink" width="40" zoomAndPan="magnify" viewBox="0 0 30 30.000001" height="40" preserveAspectRatio="xMidYMid meet" version="1.0"><defs><clipPath id="a22b4c5280"><path d="M 7.761719 1.960938 L 22.277344 1.960938 L 22.277344 27.363281 L 7.761719 27.363281 Z M 7.761719 1.960938 " clip-rule="nonzero"/></clipPath><clipPath id="9887a6b6a4"><path d="M 18 13 L 22.277344 13 L 22.277344 20 L 18 20 Z M 18 13 " clip-rule="nonzero"/></clipPath><clipPath id="364d7bc21e"><path d="M 7.761719 7 L 22 7 L 22 27 L 7.761719 27 Z M 7.761719 7 " clip-rule="nonzero"/></clipPath><clipPath id="4e1215a815"><path d="M 10 1.960938 L 19 1.960938 L 19 5 L 10 5 Z M 10 1.960938 " clip-rule="nonzero"/></clipPath><clipPath id="2946e76a7b"><path d="M 8 24 L 13 24 L 13 27.363281 L 8 27.363281 Z M 8 24 " clip-rule="nonzero"/></clipPath><clipPath id="7c6162e30a"><path d="M 17 24 L 21 24 L 21 27.363281 L 17 27.363281 Z M 17 24 " clip-rule="nonzero"/></clipPath></defs><g clip-path="url(#a22b4c5280)"><path stroke-linecap="butt" transform="matrix(0.0504032, 0, 0, 0.0508358, 7.752836, 1.975224)" fill-opacity="1" fill="#ffffff" fill-rule="nonzero" stroke-linejoin="miter" d="M 277.006256 227.628112 L 277.006256 155.321129 C 277.006256 149.097042 275.843756 143.103478 273.441256 137.417275 C 271.038756 131.654232 267.628755 126.582753 263.288755 122.126 C 258.871254 117.746087 253.756254 114.365102 248.021253 111.983044 C 242.286253 109.600986 236.318752 108.448377 230.041252 108.448377 L 209.58125 108.448377 C 207.87625 108.448377 206.946249 107.52629 206.946249 105.758957 L 206.946249 43.441249 C 206.946249 42.442322 207.411249 41.673916 208.26375 41.212873 C 213.84375 37.908728 216.63375 33.067772 216.63375 26.536323 L 216.63375 20.081714 C 216.63375 17.469134 216.09125 14.933395 215.08375 12.551338 C 214.07625 10.16928 212.68125 8.017743 210.89875 6.17357 C 209.03875 4.329396 206.868749 2.946265 204.466249 1.947338 C 202.063749 0.94841 199.583749 0.410526 197.026249 0.410526 L 80.543737 0.410526 C 77.908737 0.410526 75.428737 0.94841 73.026237 1.870497 C 70.623736 2.869425 68.453736 4.329396 66.671236 6.17357 C 64.811236 8.017743 63.416236 10.16928 62.408736 12.551338 C 61.401236 14.933395 60.858736 17.469134 60.858736 20.081714 L 60.858736 26.536323 C 60.858736 32.760409 63.493736 37.524525 68.763736 40.90551 C 69.538736 41.443394 69.926236 42.13496 69.926236 43.133887 L 69.926236 105.758957 C 69.926236 107.52629 69.073736 108.448377 67.291236 108.448377 L 47.451234 108.448377 C 41.173734 108.371537 35.206233 109.600986 29.471233 111.983044 C 23.736232 114.365102 18.621231 117.746087 14.203731 122.126 C 9.863731 126.582753 6.45373 131.654232 4.05123 137.417275 C 1.64873 143.103478 0.48623 149.097042 0.48623 155.321129 L 0.48623 431.793525 C 0.56373 446.777437 6.53123 458.610886 18.543731 467.524393 C 19.086232 467.908596 19.396232 468.44648 19.551232 469.138045 C 20.403732 474.132682 23.271232 477.513668 27.998732 479.357842 C 28.696232 479.665204 29.238733 480.126247 29.471233 480.817813 C 31.641233 486.196653 35.128733 490.499725 39.933734 493.80387 C 44.738734 497.031174 50.008734 498.644826 55.821235 498.644826 C 61.633736 498.644826 66.903736 497.031174 71.708737 493.80387 C 76.513737 490.499725 80.001237 486.196653 82.093738 480.817813 C 82.403738 480.126247 82.868738 479.665204 83.643738 479.357842 C 85.193738 478.743117 86.588738 477.897871 87.828738 476.745262 C 88.293738 476.361059 88.836238 476.130537 89.533738 476.130537 L 188.036248 476.130537 C 188.656248 476.130537 189.198748 476.361059 189.741248 476.745262 C 190.981248 477.897871 192.376248 478.743117 193.926248 479.357842 C 194.623748 479.665204 195.088748 480.126247 195.398748 480.817813 C 197.568749 486.196653 201.056249 490.499725 205.783749 493.80387 C 210.58875 497.031174 215.93625 498.644826 221.671251 498.644826 C 227.483751 498.644826 232.753752 497.031174 237.558752 493.80387 C 242.363753 490.499725 245.851253 486.196653 248.021253 480.817813 C 248.331253 480.126247 248.796253 479.665204 249.493754 479.357842 C 254.221254 477.513668 257.011254 474.132682 257.863754 469.138045 C 258.018754 468.44648 258.328754 467.908596 258.871254 467.524393 C 270.883756 458.687726 276.928756 446.777437 277.006256 431.793525 L 277.006256 342.197412 C 277.006256 341.352166 277.316256 340.6606 278.013756 340.199557 C 284.601257 334.820717 287.933757 327.828224 288.011257 319.29892 L 288.011257 250.526604 C 287.933757 241.9973 284.601257 235.081648 278.013756 229.702808 C 277.316256 229.164924 277.006256 228.473358 277.006256 227.628112 Z M 102.94124 43.594931 L 173.931246 43.594931 C 175.713746 43.594931 176.566247 44.440177 176.566247 46.20751 L 176.566247 108.448377 L 175.636246 108.448377 C 170.521246 103.684262 164.476245 101.379044 157.501245 101.379044 L 119.913741 101.379044 C 113.171241 101.379044 107.20374 103.607421 102.088739 108.141015 C 101.933739 108.294696 101.701239 108.371537 101.391239 108.448377 C 100.693739 108.448377 100.306239 108.064174 100.306239 107.295769 L 100.306239 46.20751 C 100.306239 44.440177 101.158739 43.594931 102.94124 43.594931 Z M 102.94124 43.594931 " stroke="#6d6e71" stroke-width="0.5" stroke-opacity="1" stroke-miterlimit="10"/></g><path fill="#eeca5c" d="M 20.050781 13.855469 L 20.914062 13.855469 C 21.148438 13.855469 21.347656 13.9375 21.515625 14.105469 C 21.679688 14.273438 21.761719 14.472656 21.761719 14.710938 L 21.761719 18.207031 C 21.761719 18.445312 21.679688 18.644531 21.515625 18.8125 C 21.347656 18.980469 21.148438 19.0625 20.914062 19.0625 L 20.050781 19.0625 C 19.816406 19.0625 19.613281 18.980469 19.449219 18.8125 C 19.285156 18.644531 19.199219 18.445312 19.199219 18.207031 L 19.199219 14.710938 C 19.199219 14.472656 19.285156 14.273438 19.449219 14.105469 C 19.613281 13.9375 19.816406 13.855469 20.050781 13.855469 Z M 20.050781 13.855469 " fill-opacity="1" fill-rule="nonzero"/><g clip-path="url(#9887a6b6a4)"><path stroke-linecap="butt" transform="matrix(0.0504032, 0, 0, 0.0508358, 7.752836, 1.975224)" fill="none" stroke-linejoin="miter" d="M 243.991253 233.698518 L 261.118755 233.698518 C 265.768755 233.698518 269.721255 235.31217 273.053756 238.616314 C 276.308756 241.920459 277.936256 245.839329 277.936256 250.526604 L 277.936256 319.29892 C 277.936256 323.986195 276.308756 327.905065 273.053756 331.20921 C 269.721255 334.513354 265.768755 336.127006 261.118755 336.127006 L 243.991253 336.127006 C 239.341253 336.127006 235.311252 334.513354 232.056252 331.20921 C 228.801252 327.905065 227.096251 323.986195 227.096251 319.29892 L 227.096251 250.526604 C 227.096251 245.839329 228.801252 241.920459 232.056252 238.616314 C 235.311252 235.31217 239.341253 233.698518 243.991253 233.698518 Z M 243.991253 233.698518 " stroke="#000000" stroke-width="1" stroke-opacity="1" stroke-miterlimit="10"/></g><path stroke-linecap="butt" transform="matrix(0.0504032, 0, 0, 0.0508358, 7.752836, 1.975224)" fill-opacity="1" fill="#eeca5c" fill-rule="nonzero" stroke-linejoin="miter" d="M 119.913741 111.368319 L 157.578745 111.368319 C 162.228745 111.368319 166.181246 112.981971 169.436246 116.286116 C 172.768746 119.590261 174.396246 123.50913 174.396246 128.196406 L 174.396246 131.193188 C 174.396246 135.880463 172.768746 139.876173 169.436246 143.103478 C 166.181246 146.407622 162.228745 148.098115 157.578745 148.098115 L 119.913741 148.098115 C 115.263741 148.098115 111.31124 146.407622 107.97874 143.103478 C 104.72374 139.876173 103.09624 135.880463 103.09624 131.193188 L 103.09624 128.196406 C 103.09624 123.50913 104.72374 119.590261 107.97874 116.286116 C 111.31124 112.981971 115.263741 111.368319 119.913741 111.368319 Z M 119.913741 111.368319 " stroke="#000000" stroke-width="1" stroke-opacity="1" stroke-miterlimit="10"/><path stroke-linecap="butt" transform="matrix(0.0504032, 0, 0, 0.0508358, 7.752836, 1.975224)" fill-opacity="1" fill="#000000" fill-rule="nonzero" stroke-linejoin="miter" d="M 79.923737 24.768989 L 90.308738 24.768989 L 90.308738 358.794977 L 79.923737 358.794977 Z M 79.923737 24.768989 " stroke="#000000" stroke-width="1" stroke-opacity="1" stroke-miterlimit="10"/><path stroke-linecap="butt" transform="matrix(0.0504032, 0, 0, 0.0508358, 7.752836, 1.975224)" fill-opacity="1" fill="#000000" fill-rule="nonzero" stroke-linejoin="miter" d="M 186.641248 24.768989 L 196.948748 24.768989 L 196.948748 358.794977 L 186.641248 358.794977 Z M 186.641248 24.768989 " stroke="#000000" stroke-width="1" stroke-opacity="1" stroke-miterlimit="10"/><path fill="#a498c3" d="M 21.210938 9.921875 L 21.210938 23.746094 C 21.210938 24 21.160156 24.246094 21.066406 24.480469 C 20.96875 24.71875 20.832031 24.925781 20.652344 25.105469 C 20.472656 25.289062 20.265625 25.425781 20.03125 25.523438 C 19.796875 25.621094 19.554688 25.671875 19.300781 25.671875 L 10.191406 25.671875 C 9.9375 25.671875 9.695312 25.621094 9.460938 25.523438 C 9.226562 25.425781 9.019531 25.289062 8.839844 25.105469 C 8.660156 24.925781 8.523438 24.71875 8.425781 24.480469 C 8.328125 24.246094 8.28125 24 8.28125 23.746094 L 8.28125 9.921875 C 8.28125 9.664062 8.328125 9.417969 8.425781 9.183594 C 8.523438 8.949219 8.660156 8.738281 8.839844 8.558594 C 9.019531 8.378906 9.226562 8.238281 9.460938 8.140625 C 9.695312 8.042969 9.9375 7.996094 10.191406 7.996094 L 19.300781 7.996094 C 19.554688 7.996094 19.796875 8.042969 20.03125 8.140625 C 20.265625 8.238281 20.472656 8.378906 20.652344 8.558594 C 20.832031 8.738281 20.96875 8.949219 21.066406 9.183594 C 21.160156 9.417969 21.210938 9.664062 21.210938 9.921875 Z M 21.210938 9.921875 " fill-opacity="1" fill-rule="nonzero"/><g clip-path="url(#364d7bc21e)"><path stroke-linecap="butt" transform="matrix(0, 0.0508358, -0.0504032, 0, 29.477129, 9.78004)" fill="none" stroke-linejoin="miter" d="M 2.790061 164.001249 L 274.728862 164.001249 C 279.7235 164.001249 284.564456 165.008749 289.174891 166.868749 C 293.862166 168.806249 297.934716 171.51875 301.469383 175.08375 C 305.08089 178.64875 307.77031 182.756251 309.691325 187.406251 C 311.612339 192.056252 312.611267 196.861252 312.611267 201.898753 L 312.611267 382.62877 C 312.611267 387.66627 311.612339 392.471271 309.691325 397.121271 C 307.77031 401.771272 305.08089 405.878772 301.469383 409.443772 C 297.934716 413.008773 293.862166 415.721273 289.174891 417.658773 C 284.564456 419.596273 279.7235 420.526273 274.728862 420.526273 L 2.790061 420.526273 C -2.281417 420.526273 -7.122373 419.596273 -11.732808 417.658773 C -16.343243 415.721273 -20.492634 413.008773 -24.0273 409.443772 C -27.561967 405.878772 -30.328228 401.771272 -32.249242 397.121271 C -34.170256 392.471271 -35.092343 387.66627 -35.092343 382.62877 L -35.092343 201.898753 C -35.092343 196.861252 -34.170256 192.056252 -32.249242 187.406251 C -30.328228 182.756251 -27.561967 178.64875 -24.0273 175.08375 C -20.492634 171.51875 -16.343243 168.806249 -11.732808 166.868749 C -7.122373 165.008749 -2.281417 164.001249 2.790061 164.001249 Z M 2.790061 164.001249 " stroke="#000000" stroke-width="1" stroke-opacity="1" stroke-miterlimit="10"/></g><path fill="#a498c3" d="M 11.679688 2.503906 L 17.8125 2.503906 C 17.910156 2.503906 17.992188 2.539062 18.0625 2.609375 C 18.132812 2.679688 18.167969 2.761719 18.167969 2.859375 L 18.167969 3.328125 C 18.167969 3.425781 18.132812 3.507812 18.0625 3.578125 C 17.992188 3.648438 17.910156 3.683594 17.8125 3.683594 L 11.679688 3.683594 C 11.582031 3.683594 11.5 3.648438 11.429688 3.578125 C 11.359375 3.507812 11.324219 3.425781 11.324219 3.328125 L 11.324219 2.859375 C 11.324219 2.761719 11.359375 2.679688 11.429688 2.609375 C 11.5 2.539062 11.582031 2.503906 11.679688 2.503906 Z M 11.679688 2.503906 " fill-opacity="1" fill-rule="nonzero"/><g clip-path="url(#4e1215a815)"><path stroke-linecap="butt" transform="matrix(0.0504032, 0, 0, 0.0508358, 7.752836, 1.975224)" fill="none" stroke-linejoin="miter" d="M 77.908737 10.399801 L 199.583749 10.399801 C 201.521249 10.399801 203.148749 11.091367 204.543749 12.474497 C 205.938749 13.857627 206.636249 15.471279 206.636249 17.392294 L 206.636249 26.613163 C 206.636249 28.534177 205.938749 30.14783 204.543749 31.53096 C 203.148749 32.91409 201.521249 33.605656 199.583749 33.605656 L 77.908737 33.605656 C 75.971237 33.605656 74.343737 32.91409 72.948737 31.53096 C 71.553737 30.14783 70.856236 28.534177 70.856236 26.613163 L 70.856236 17.392294 C 70.856236 15.471279 71.553737 13.857627 72.948737 12.474497 C 74.343737 11.091367 75.971237 10.399801 77.908737 10.399801 Z M 77.908737 10.399801 " stroke="#000000" stroke-width="1" stroke-opacity="1" stroke-miterlimit="10"/></g><path stroke-linecap="butt" transform="matrix(0.0504032, 0, 0, 0.0508358, 7.752836, 1.975224)" fill-opacity="1" fill="#a498c3" fill-rule="nonzero" stroke-linejoin="miter" d="M 78.761237 470.213813 C 79.768737 470.213813 80.621237 469.82961 81.318737 469.061204 C 81.938738 468.292799 82.248738 467.447552 82.093738 466.448625 C 81.163737 459.917176 78.141237 454.461495 73.181237 450.158422 C 68.143736 445.77851 62.331236 443.626973 55.743735 443.626973 C 49.156234 443.626973 43.343734 445.77851 38.383733 450.158422 C 33.346233 454.461495 30.401233 459.917176 29.393733 466.448625 C 29.316233 467.447552 29.548733 468.292799 30.246233 469.061204 C 30.866233 469.82961 31.718733 470.213813 32.726233 470.213813 Z M 78.761237 470.213813 " stroke="#000000" stroke-width="1" stroke-opacity="1" stroke-miterlimit="10"/><path fill="#000000" d="M 11.488281 25.878906 C 11.488281 26.136719 11.398438 26.359375 11.21875 26.539062 C 11.039062 26.722656 10.820312 26.816406 10.5625 26.816406 C 10.308594 26.816406 10.089844 26.722656 9.910156 26.539062 C 9.726562 26.359375 9.636719 26.136719 9.636719 25.878906 C 9.636719 25.621094 9.726562 25.402344 9.910156 25.21875 C 10.089844 25.035156 10.308594 24.945312 10.5625 24.945312 C 10.820312 24.945312 11.039062 25.035156 11.21875 25.21875 C 11.398438 25.402344 11.488281 25.621094 11.488281 25.878906 Z M 11.488281 25.878906 " fill-opacity="1" fill-rule="nonzero"/><g clip-path="url(#2946e76a7b)"><path stroke-linecap="butt" transform="matrix(0.0504032, 0, 0, 0.0508358, 7.752836, 1.975224)" fill="none" stroke-linejoin="miter" d="M 74.111237 470.213813 C 74.111237 475.285291 72.328737 479.665204 68.763736 483.19987 C 65.198736 486.811378 60.858736 488.655551 55.743735 488.655551 C 50.706235 488.655551 46.366234 486.811378 42.801234 483.19987 C 39.158733 479.665204 37.376233 475.285291 37.376233 470.213813 C 37.376233 465.142335 39.158733 460.839263 42.801234 457.227755 C 46.366234 453.616248 50.706235 451.848915 55.743735 451.848915 C 60.858736 451.848915 65.198736 453.616248 68.763736 457.227755 C 72.328737 460.839263 74.111237 465.142335 74.111237 470.213813 Z M 74.111237 470.213813 " stroke="#000000" stroke-width="1" stroke-opacity="1" stroke-miterlimit="10"/></g><path stroke-linecap="butt" transform="matrix(0.0504032, 0, 0, 0.0508358, 7.752836, 1.975224)" fill-opacity="1" fill="#a498c3" fill-rule="nonzero" stroke-linejoin="miter" d="M 244.766253 470.213813 C 245.773753 470.213813 246.626253 469.82961 247.246253 469.061204 C 247.943753 468.292799 248.176253 467.447552 248.021253 466.448625 C 247.091253 459.917176 244.146253 454.461495 239.108753 450.158422 C 234.148752 445.77851 228.336251 443.626973 221.748751 443.626973 C 215.08375 443.626973 209.34875 445.77851 204.311249 450.158422 C 199.351249 454.461495 196.328748 459.917176 195.398748 466.448625 C 195.243748 467.447552 195.553748 468.292799 196.173748 469.061204 C 196.871248 469.82961 197.723749 470.213813 198.731249 470.213813 Z M 244.766253 470.213813 " stroke="#000000" stroke-width="1" stroke-opacity="1" stroke-miterlimit="10"/><path fill="#000000" d="M 19.855469 25.878906 C 19.855469 26.136719 19.765625 26.359375 19.582031 26.539062 C 19.402344 26.722656 19.183594 26.816406 18.929688 26.816406 C 18.671875 26.816406 18.453125 26.722656 18.273438 26.539062 C 18.09375 26.359375 18.003906 26.136719 18.003906 25.878906 C 18.003906 25.621094 18.09375 25.402344 18.273438 25.21875 C 18.453125 25.035156 18.671875 24.945312 18.929688 24.945312 C 19.183594 24.945312 19.402344 25.035156 19.582031 25.21875 C 19.765625 25.402344 19.855469 25.621094 19.855469 25.878906 Z M 19.855469 25.878906 " fill-opacity="1" fill-rule="nonzero"/><g clip-path="url(#7c6162e30a)"><path stroke-linecap="butt" transform="matrix(0.0504032, 0, 0, 0.0508358, 7.752836, 1.975224)" fill="none" stroke-linejoin="miter" d="M 240.116253 470.213813 C 240.116253 475.285291 238.333752 479.665204 234.691252 483.19987 C 231.126252 486.811378 226.786251 488.655551 221.748751 488.655551 C 216.63375 488.655551 212.29375 486.811378 208.72875 483.19987 C 205.163749 479.665204 203.381249 475.285291 203.381249 470.213813 C 203.381249 465.142335 205.163749 460.839263 208.72875 457.227755 C 212.29375 453.616248 216.63375 451.848915 221.748751 451.848915 C 226.786251 451.848915 231.126252 453.616248 234.691252 457.227755 C 238.333752 460.839263 240.116253 465.142335 240.116253 470.213813 Z M 240.116253 470.213813 " stroke="#000000" stroke-width="1" stroke-opacity="1" stroke-miterlimit="10"/></g><path stroke-linecap="butt" transform="matrix(0.0493773, 0.0102046, -0.0101177, 0.049801, 10.289634, 1.391625)" fill-opacity="1" fill="#ffffff" fill-rule="nonzero" stroke-linejoin="miter" d="M 49.535148 184.275495 L 114.018776 184.318239 C 118.212341 184.321758 121.757055 185.791661 124.652919 188.727951 C 127.624705 191.648683 129.079241 195.272495 129.137523 199.417721 L 129.112237 285.390005 C 129.094596 289.550788 127.616602 293.147999 124.662828 296.106361 C 121.709054 299.064724 118.203595 300.48895 114.01003 300.485432 L 49.541827 300.517965 C 45.348262 300.514446 41.803548 299.044542 38.831762 296.12381 C 35.920474 293.112244 34.40544 289.579265 34.42308 285.418482 L 34.432942 199.370922 C 34.450582 195.210139 35.868079 191.703762 38.821853 188.745399 C 41.775626 185.787037 45.341583 184.271977 49.535148 184.275495 Z M 49.535148 184.275495 " stroke="#000000" stroke-width="0.5" stroke-opacity="1" stroke-miterlimit="10"/><path stroke-linecap="butt" transform="matrix(0.0493773, 0.0102046, -0.0101177, 0.049801, 10.289634, 1.391625)" fill-opacity="1" fill="#eeca5c" fill-rule="nonzero" stroke-linejoin="miter" d="M 50.319591 192.350657 L 113.207645 192.328159 C 115.501946 192.328664 117.403611 193.115557 119.003989 194.748557 C 120.680288 196.366001 121.460942 198.245405 121.452722 200.521766 L 121.45108 284.292965 C 121.442861 286.569327 120.643366 288.458766 119.06802 290.036559 C 117.432176 291.705186 115.535314 292.486051 113.241012 292.485547 L 50.261611 292.448325 C 48.058657 292.50754 46.065645 291.660927 44.480692 290.103203 C 42.880315 288.470203 42.084236 286.515522 42.092456 284.239161 L 42.109523 200.543238 C 42.117742 198.266877 42.901813 196.302161 44.477159 194.724368 C 46.052505 193.146575 48.02529 192.350152 50.319591 192.350657 Z M 50.319591 192.350657 " stroke="#000000" stroke-width="0.75" stroke-opacity="1" stroke-miterlimit="10"/><path stroke-linecap="butt" transform="matrix(0.0504032, 0, 0, 0.0508358, 7.752836, 1.975224)" fill-opacity="1" fill="#000000" fill-rule="nonzero" stroke-linejoin="miter" d="M 96.198739 291.943675 C 96.198739 291.943675 90.696238 275.422951 88.913738 271.427241 L 89.223738 271.427241 C 89.766238 271.580922 90.153738 271.427241 90.231238 270.812516 L 90.773738 268.276777 C 90.851238 267.738893 90.696238 267.431531 90.153738 267.35469 L 87.673738 266.816806 C 87.131238 263.666343 86.511238 258.979067 85.968738 254.983357 C 86.123738 254.829676 86.278738 254.675995 86.278738 254.445473 L 87.131238 250.449763 C 87.286238 249.911879 87.053738 249.604517 86.433738 249.450836 L 85.193738 249.220314 C 85.116238 248.221387 84.961238 247.452981 84.961238 247.222459 C 84.728738 246.223532 87.208738 226.398663 89.068738 212.183156 L 90.696238 211.568431 C 91.548738 211.261069 91.626238 210.800026 91.006238 210.185301 L 89.533738 208.802171 C 90.386238 202.347562 90.928738 197.813968 90.928738 197.813968 C 90.928738 197.813968 89.688738 202.270722 87.983738 208.494808 L 86.046238 209.186374 C 85.193738 209.493736 85.116238 209.954779 85.736238 210.569504 L 87.053738 211.798953 C 83.101238 225.630257 77.598737 244.763561 77.056237 245.608807 C 76.901237 245.839329 76.513737 246.454053 76.048737 247.37614 L 74.808737 247.068778 C 74.266237 246.991937 73.878737 247.222459 73.801237 247.760343 L 72.948737 251.756053 C 72.948737 251.986575 72.948737 252.217097 73.103737 252.370778 C 71.088736 255.828604 68.608736 259.901154 66.826236 262.590574 L 64.346236 262.129531 C 63.881236 261.97585 63.571236 262.206372 63.416236 262.744256 L 62.873736 265.279995 C 62.796236 265.817879 63.028736 266.125241 63.571236 266.202082 L 63.803736 266.278922 C 60.626235 269.275705 49.156234 282.261762 49.156234 282.261762 L 60.936236 284.720661 C 60.858736 283.721733 60.936236 282.722806 61.091236 281.800719 C 62.331236 275.807154 68.763736 271.965125 75.506237 273.348255 C 82.248738 274.731386 86.666238 280.724951 85.426238 286.795356 C 85.193738 287.717443 84.883738 288.63953 84.418738 289.484776 Z M 73.723737 263.973705 L 75.893737 257.672778 L 81.163737 258.748546 L 80.621237 265.433676 Z M 73.723737 263.973705 " stroke="#000000" stroke-width="1" stroke-opacity="1" stroke-miterlimit="10"/><path stroke-linecap="butt" transform="matrix(0.0504032, 0, 0, 0.0508358, 7.752836, 1.975224)" fill-opacity="1" fill="#ffffff" fill-rule="nonzero" stroke-linejoin="miter" d="M 249.028753 381.386106 C 249.028753 386.918628 248.021253 392.297468 245.851253 397.445787 C 243.758753 402.594105 240.658753 407.127699 236.783752 411.123409 C 232.831252 415.042279 228.258751 418.039061 223.143751 420.190597 C 217.951251 422.342134 212.60375 423.417902 207.023749 423.417902 C 201.443749 423.417902 196.096248 422.342134 190.903748 420.190597 C 185.788747 418.039061 181.216247 415.042279 177.263747 411.123409 C 173.388746 407.127699 170.288746 402.594105 168.196246 397.445787 C 166.026246 392.297468 165.018745 386.918628 165.018745 381.386106 C 165.018745 375.776744 166.026246 370.397904 168.196246 365.249585 C 170.288746 360.101266 173.388746 355.567672 177.263747 351.648803 C 181.216247 347.729934 185.788747 344.65631 190.903748 342.504774 C 196.096248 340.430079 201.443749 339.354311 207.023749 339.354311 C 212.60375 339.354311 217.951251 340.430079 223.143751 342.504774 C 228.258751 344.65631 232.831252 347.729934 236.783752 351.648803 C 240.658753 355.567672 243.758753 360.101266 245.851253 365.249585 C 248.021253 370.397904 249.028753 375.776744 249.028753 381.386106 Z M 249.028753 381.386106 " stroke="#000000" stroke-width="0.5" stroke-opacity="1" stroke-miterlimit="10"/><path stroke-linecap="butt" transform="matrix(0.0504032, 0, 0, 0.0508358, 7.752836, 1.975224)" fill-opacity="1" fill="#f19bb4" fill-rule="nonzero" stroke-linejoin="miter" d="M 243.448753 381.386106 C 243.448753 386.227062 242.518753 390.837497 240.736253 395.294251 C 238.876252 399.827845 236.241252 403.746714 232.831252 407.127699 C 229.343752 410.585525 225.468751 413.198105 220.973751 415.042279 C 216.47875 416.886453 211.82875 417.80854 207.023749 417.80854 C 202.218749 417.80854 197.568749 416.886453 193.073748 415.042279 C 188.578748 413.198105 184.626247 410.585525 181.216247 407.127699 C 177.806247 403.746714 175.171246 399.827845 173.311246 395.294251 C 171.451246 390.837497 170.521246 386.227062 170.598746 381.386106 C 170.521246 376.54515 171.451246 371.857875 173.311246 367.401121 C 175.171246 362.944368 177.806247 359.025498 181.216247 355.567672 C 184.626247 352.186687 188.578748 349.497267 193.073748 347.653093 C 197.568749 345.808919 202.218749 344.886832 207.023749 344.886832 C 211.82875 344.886832 216.47875 345.808919 220.973751 347.653093 C 225.468751 349.497267 229.343752 352.186687 232.831252 355.567672 C 236.241252 359.025498 238.876252 362.944368 240.736253 367.401121 C 242.518753 371.857875 243.448753 376.54515 243.448753 381.386106 Z M 243.448753 381.386106 " stroke="#000000" stroke-width="1" stroke-opacity="1" stroke-miterlimit="10"/><path stroke-linecap="butt" transform="matrix(0.0504032, 0, 0, 0.0508358, 7.752836, 1.975224)" fill-opacity="1" fill="#000000" fill-rule="nonzero" stroke-linejoin="miter" d="M 237.326252 399.904685 C 230.816252 396.5237 223.996251 394.756367 216.71125 394.449004 C 214.92875 386.457584 214.54125 378.389324 215.54875 370.244223 L 219.346251 381.001903 C 219.346251 381.155584 219.501251 381.232425 219.656251 381.232425 L 219.811251 381.232425 C 219.888751 381.232425 220.043751 381.155584 220.043751 381.078744 C 221.516251 378.389324 221.826251 375.546222 220.896251 372.703121 C 220.043751 370.628425 218.803751 368.937933 217.02125 367.708483 L 230.738752 370.935788 L 230.893752 370.935788 C 231.048752 370.935788 231.126252 370.858947 231.203752 370.782107 C 231.281252 370.628425 231.281252 370.474744 231.203752 370.321063 C 229.498752 367.401121 227.096251 365.556947 223.841251 364.63486 L 228.568752 363.405411 C 228.723752 363.328571 228.801252 363.25173 228.801252 363.021208 C 228.878752 362.867527 228.801252 362.713846 228.646252 362.637005 C 222.136251 359.563382 217.71875 362.637005 215.62625 364.788542 C 216.86625 358.871817 211.59625 355.798194 211.51875 355.798194 C 211.36375 355.721354 211.20875 355.721354 211.05375 355.798194 C 210.89875 355.875035 210.89875 356.028716 210.89875 356.182397 C 211.98375 359.793904 212.75875 362.252803 213.22375 363.866455 C 207.87625 356.797122 199.351249 360.024426 199.273749 360.024426 C 199.041249 360.101266 198.963749 360.254948 198.963749 360.408629 C 198.963749 360.63915 199.041249 360.715991 199.196249 360.792832 L 210.35625 365.480107 C 202.916249 365.095904 199.738749 372.472599 199.738749 372.54944 C 199.661249 372.703121 199.661249 372.856802 199.738749 372.933643 C 199.893749 373.087324 199.971249 373.087324 200.126249 373.087324 L 200.203749 373.087324 L 213.06875 367.939005 C 210.89875 376.775672 210.27875 385.689178 211.13125 394.679526 C 208.72875 394.986888 206.403749 395.524772 204.156249 396.370019 C 201.831249 389.608048 198.576249 383.460802 194.391248 377.774599 L 205.783749 377.544077 L 205.861249 377.544077 C 205.938749 377.544077 206.016249 377.467237 206.093749 377.313556 C 206.093749 377.159874 206.093749 377.083034 206.016249 377.006193 C 205.938749 376.929353 201.133749 372.395759 195.631248 375.085179 L 202.528749 367.939005 C 202.606249 367.862165 202.683749 367.708483 202.606249 367.554802 C 202.528749 367.401121 202.451249 367.401121 202.296249 367.401121 C 202.218749 367.401121 194.623748 367.708483 192.918748 374.777817 C 192.763748 373.394686 192.531248 371.396831 192.143748 368.246368 C 192.143748 368.169527 192.066248 368.092686 191.988748 368.015846 C 191.833748 367.939005 191.756248 368.015846 191.678748 368.092686 C 191.678748 368.092686 188.578748 372.242078 191.446248 376.314628 C 187.261248 374.393614 183.773747 375.23886 180.906247 378.927208 C 180.828747 379.004048 180.828747 379.157729 180.906247 379.311411 C 180.983747 379.388251 181.061247 379.465092 181.216247 379.465092 L 185.246247 378.850367 C 183.076247 380.6177 181.836247 382.846077 181.526247 385.535497 C 181.526247 385.689178 181.526247 385.84286 181.681247 385.9197 C 181.758747 385.9197 181.836247 385.9197 181.913747 385.9197 C 181.991247 385.9197 181.991247 385.84286 182.068747 385.84286 L 191.446248 378.927208 C 190.438748 380.464019 189.973748 382.154512 189.973748 383.998686 C 190.206248 386.534425 191.368748 388.53228 193.306248 390.069091 C 193.383748 390.145932 193.538748 390.222772 193.616248 390.145932 L 193.693748 390.145932 C 193.848748 390.069091 193.926248 389.992251 193.926248 389.83857 L 193.228748 380.464019 C 196.483748 385.996541 198.731249 391.913265 200.048749 398.214192 C 194.468748 401.134134 189.973748 405.206685 186.486247 410.431844 Z M 237.326252 399.904685 " stroke="#000000" stroke-width="1" stroke-opacity="1" stroke-miterlimit="10"/><path stroke-linecap="butt" transform="matrix(0.0187508, -0.0471871, 0.0467856, 0.0189117, 3.639918, 15.032912)" fill-opacity="1" fill="#f19bb4" fill-rule="nonzero" stroke-linejoin="miter" d="M 181.488922 188.776471 C 181.479659 194.123709 180.684311 199.368531 179.045216 204.367065 C 177.406121 209.365598 175.021929 213.744333 171.992797 217.546623 C 168.992497 221.42085 165.445909 224.345123 161.48202 226.434732 C 157.4893 228.452403 153.364582 229.521065 149.050203 229.496845 C 144.764654 229.544561 140.603578 228.456988 136.624637 226.378001 C 132.674526 224.370951 129.149358 221.358666 126.135626 217.556959 C 123.050568 213.783838 120.706091 209.379936 119.102194 204.345253 C 117.426971 199.339156 116.593991 194.162488 116.574423 188.743314 C 116.626179 183.295553 117.450358 178.122668 119.089454 173.124134 C 120.728549 168.125601 123.041415 163.775452 126.113041 159.872639 C 129.142172 156.070349 132.688761 153.146076 136.652649 151.056467 C 140.616538 148.966859 144.770088 147.970134 149.055636 147.922417 C 153.370015 147.946638 157.50226 148.962273 161.481202 151.041261 C 165.460143 153.120248 168.95648 156.060596 171.999044 159.93424 C 175.012776 163.735947 177.357253 168.139849 179.032476 173.145946 C 180.707698 178.152043 181.469353 183.357296 181.488922 188.776471 Z M 181.488922 188.776471 " stroke="#000000" stroke-width="0.5" stroke-opacity="1" stroke-miterlimit="10"/><path stroke-linecap="butt" transform="matrix(0.0187508, -0.0471871, 0.0467856, 0.0189117, 3.639918, 15.032912)" fill-opacity="1" fill="#eeca5c" fill-rule="nonzero" stroke-linejoin="miter" d="M 176.517445 188.765125 C 176.505172 193.278643 175.80697 197.733098 174.436503 201.95603 C 172.965879 206.135609 171.008135 209.92597 168.476776 213.111298 C 165.874092 216.325213 162.911771 218.848338 159.56098 220.608736 C 156.210189 222.369133 152.656074 223.209108 149.027623 223.24395 C 145.370341 223.206855 141.881531 222.350806 138.53236 220.603866 C 135.18319 218.856925 132.202805 216.377735 129.66253 213.137709 C 127.122255 209.897682 125.137416 206.18457 123.67918 201.926434 C 122.321101 197.71165 121.633783 193.31153 121.617225 188.726074 C 121.600667 184.140618 122.327699 179.758101 123.698167 175.535169 C 125.068634 171.312238 127.055209 167.593815 129.657893 164.379901 C 132.231746 161.094049 135.222899 158.642861 138.57369 156.882463 C 141.924481 155.122066 145.378439 154.238739 149.035721 154.275835 C 152.664172 154.240993 156.181813 155.168979 159.530984 156.915919 C 162.880154 158.66286 165.860539 161.14205 168.472139 164.35349 C 171.012414 167.593517 172.997254 171.306629 174.355333 175.521414 C 175.813568 179.779549 176.500887 184.179669 176.517445 188.765125 Z M 176.517445 188.765125 " stroke="#000000" stroke-width="0.75" stroke-opacity="1" stroke-miterlimit="10"/><path stroke-linecap="butt" transform="matrix(0.0504032, 0, 0, 0.0508358, 7.752836, 1.975224)" fill-opacity="1" fill="#000000" fill-rule="nonzero" stroke-linejoin="miter" d="M 164.631245 172.533418 L 162.228745 169.843998 L 142.311243 179.986954 C 134.018742 175.991244 127.043742 174.147071 126.036242 175.991244 C 125.106242 177.835418 130.376242 182.676375 138.358743 187.517331 L 140.528743 209.570576 L 144.093743 210.10846 L 147.038744 192.127766 C 150.526244 193.895099 154.168744 195.124548 157.966245 195.969794 L 159.981245 207.188519 L 161.996245 207.649562 L 163.081245 197.276084 C 165.096245 198.275012 166.878746 198.736055 167.111246 198.351852 C 167.421246 197.890809 166.026246 196.7382 164.088745 195.585591 L 172.226246 189.054142 L 170.753746 187.594171 L 160.213745 191.974084 C 157.423745 189.284664 154.323744 186.902606 150.913744 184.827911 Z M 164.631245 172.533418 " stroke="#000000" stroke-width="1" stroke-opacity="1" stroke-miterlimit="10"/><path stroke-linecap="butt" transform="matrix(0.0499812, -0.00656502, 0.00650916, 0.0504101, 6.067354, 3.298483)" fill-opacity="1" fill="#ffffff" fill-rule="nonzero" stroke-linejoin="miter" d="M 129.88193 251.985964 L 238.280363 251.99986 C 240.077706 252.001464 241.632038 252.668825 242.87643 253.915738 C 244.197673 255.172659 244.77764 256.720489 244.779957 258.503048 L 244.802466 283.535076 C 244.804783 285.317636 244.135287 286.857724 242.870829 288.165351 C 241.616295 289.39678 240.046968 290.044787 238.249625 290.043183 L 129.851192 290.029288 C 128.053849 290.027684 126.489594 289.43652 125.255125 288.11341 C 123.933882 286.856489 123.277063 285.298651 123.274747 283.516091 L 123.319165 258.570269 C 123.326772 256.711512 123.919417 255.161415 125.250803 253.939994 C 126.51526 252.632368 128.007736 251.974352 129.88193 251.985964 Z M 129.88193 251.985964 " stroke="#000000" stroke-width="0.5" stroke-opacity="1" stroke-miterlimit="10"/><path stroke-linecap="butt" transform="matrix(0.0499812, -0.00656502, 0.00650916, 0.0504101, 6.067354, 3.298483)" fill-opacity="1" fill="#f19bb4" fill-rule="nonzero" stroke-linejoin="miter" d="M 131.832538 256.811875 L 236.318955 256.858726 C 238.827805 256.798012 240.062274 258.121122 240.128983 260.609472 L 240.072543 281.446788 C 240.139252 283.935138 238.797943 285.232756 236.299017 285.217273 L 131.802676 285.246619 C 129.30375 285.231136 128.059358 283.984223 128.002572 281.419676 L 128.049089 260.658557 C 127.992303 258.09401 129.333612 256.796392 131.832538 256.811875 Z M 131.832538 256.811875 " stroke="#000000" stroke-width="1" stroke-opacity="1" stroke-miterlimit="10"/><path stroke-linecap="butt" transform="matrix(0.0500058, 0.00637141, -0.0063172, 0.0504349, 10.195885, 1.604636)" fill-opacity="1" fill="#eeca5c" fill-rule="nonzero" stroke-linejoin="miter" d="M 37.018856 361.762072 L 127.241237 361.749676 C 128.961685 361.764687 130.441992 362.352194 131.691788 363.588431 C 132.941585 364.824669 133.518643 366.300795 133.586371 368.073619 L 133.583471 394.639784 C 133.574309 396.422321 132.901884 397.901392 131.729602 399.133803 C 130.480431 400.375929 129.000438 401.027603 127.203101 401.022306 L 36.98072 401.034702 C 35.260272 401.019691 33.770334 400.35595 32.520538 399.119712 C 31.270741 397.883475 30.693683 396.407348 30.712475 394.701045 L 30.705744 368.058647 C 30.647647 366.362057 31.310442 364.806752 32.482724 363.57434 C 33.731895 362.332215 35.221519 361.756775 37.018856 361.762072 Z M 37.018856 361.762072 " stroke="#000000" stroke-width="0.5" stroke-opacity="1" stroke-miterlimit="10"/><path stroke-linecap="butt" transform="matrix(0.0500058, 0.00637141, -0.0063172, 0.0504349, 10.195885, 1.604636)" fill-opacity="1" fill="#f19bb4" fill-rule="nonzero" stroke-linejoin="miter" d="M 40.980121 367.147947 L 123.234636 367.13526 C 125.743234 367.205607 127.06992 368.432131 127.080176 370.986728 L 127.046975 391.747872 C 127.057232 394.30247 125.808062 395.544595 123.232205 395.560196 L 40.97769 395.572884 C 38.478723 395.578771 37.142406 394.276013 37.218669 391.787937 L 37.165351 370.960271 C 37.155094 368.405674 38.481153 367.153835 40.980121 367.147947 Z M 40.980121 367.147947 " stroke="#000000" stroke-width="1" stroke-opacity="1" stroke-miterlimit="10"/><path stroke-linecap="butt" transform="matrix(0.046867, -0.0187056, 0.0185465, 0.0472692, 1.720581, 5.959739)" fill-opacity="1" fill="#ffffff" fill-rule="nonzero" stroke-linejoin="miter" d="M 128.3622 321.710412 L 163.033826 321.7129 C 166.857648 321.738595 170.172531 323.050381 172.921925 325.791157 C 175.599256 328.503415 176.972205 331.773796 176.940435 335.645229 L 176.955512 370.359338 C 177.024078 374.18784 175.623117 377.517449 172.88124 380.233784 C 170.139362 382.95012 166.856512 384.29544 163.03269 384.269745 L 128.33279 384.338706 C 124.508967 384.313011 121.222359 382.929776 118.472965 380.189 C 115.795634 377.476741 114.422685 374.206361 114.354118 370.37786 L 114.411104 335.692268 C 114.370812 331.792317 115.743499 328.534157 118.485376 325.817822 C 121.155191 323.07297 124.438041 321.727649 128.3622 321.710412 Z M 128.3622 321.710412 " stroke="#000000" stroke-width="0.5" stroke-opacity="1" stroke-miterlimit="10"/><path stroke-linecap="butt" transform="matrix(0.046867, -0.0187056, 0.0185465, 0.0472692, 1.720581, 5.959739)" fill-opacity="1" fill="#eeca5c" fill-rule="nonzero" stroke-linejoin="miter" d="M 131.22845 326.893945 L 160.164342 326.857892 C 163.398903 326.898315 166.137284 327.981964 168.395 330.280255 C 170.652716 332.578546 171.834998 335.277643 171.813235 338.49193 L 171.833556 367.506062 C 171.811793 370.720349 170.70909 373.506879 168.409596 375.73717 C 166.182165 377.995977 163.401 379.126636 160.138165 379.157661 L 131.230548 379.122265 C 127.967713 379.153291 125.257606 377.998192 122.971616 375.771351 C 120.7139 373.473061 119.559892 370.702513 119.581655 367.488227 L 119.53306 338.545544 C 119.554823 335.331258 120.657526 332.544727 122.95702 330.314437 C 125.212725 327.984179 127.99389 326.853521 131.22845 326.893945 Z M 131.22845 326.893945 " stroke="#000000" stroke-width="1" stroke-opacity="1" stroke-miterlimit="10"/><path stroke-linecap="butt" transform="matrix(0.0504032, 0, 0, 0.0508358, 7.752836, 1.975224)" fill="none" stroke-linejoin="miter" d="M 154.866244 358.948658 C 155.486245 360.408629 155.486245 361.8686 154.866244 363.328571 C 154.168744 364.788542 153.161244 365.787469 151.688744 366.402194 C 150.216244 367.016918 148.743744 366.940078 147.271244 366.325353 C 145.798744 365.710628 144.791244 364.63486 144.248743 363.174889 " stroke="#000000" stroke-width="1" stroke-opacity="1" stroke-miterlimit="10"/><path stroke-linecap="butt" transform="matrix(0.0504032, 0, 0, 0.0508358, 7.752836, 1.975224)" fill-opacity="1" fill="#000000" fill-rule="nonzero" stroke-linejoin="miter" d="M 137.196243 358.103411 C 137.196243 361.100194 135.723743 362.637005 132.701242 362.637005 C 129.756242 362.637005 128.206242 361.100194 128.206242 358.103411 C 128.206242 355.183469 129.756242 353.646658 132.701242 353.646658 C 135.723743 353.646658 137.196243 355.183469 137.196243 358.103411 Z M 137.196243 358.103411 " stroke="#000000" stroke-width="1" stroke-opacity="1" stroke-miterlimit="10"/><path stroke-linecap="butt" transform="matrix(0.0504032, 0, 0, 0.0508358, 7.752836, 1.975224)" fill-opacity="1" fill="#000000" fill-rule="nonzero" stroke-linejoin="miter" d="M 163.546245 347.729934 C 163.546245 350.726716 161.996245 352.186687 159.051245 352.186687 C 156.028745 352.186687 154.556244 350.726716 154.556244 347.729934 C 154.556244 344.733151 156.028745 343.27318 159.051245 343.27318 C 161.996245 343.27318 163.546245 344.733151 163.546245 347.729934 Z M 163.546245 347.729934 " stroke="#000000" stroke-width="1" stroke-opacity="1" stroke-miterlimit="10"/></svg>