<svg xmlns="http://www.w3.org/2000/svg" xmlns:xlink="http://www.w3.org/1999/xlink" width="40" zoomAndPan="magnify" viewBox="0 0 30 30.000001" height="40" preserveAspectRatio="xMidYMid meet" version="1.0"><defs><clipPath id="cb466ab6ca"><path d="M 1.792969 2 L 27.921875 2 L 27.921875 27.753906 L 1.792969 27.753906 Z M 1.792969 2 " clip-rule="nonzero"/></clipPath><clipPath id="8dbd0544d4"><path d="M 6 10 L 19 10 L 19 27.753906 L 6 27.753906 Z M 6 10 " clip-rule="nonzero"/></clipPath><clipPath id="fbc7713289"><path d="M 2 6 L 27.921875 6 L 27.921875 27 L 2 27 Z M 2 6 " clip-rule="nonzero"/></clipPath></defs><path fill="#f2c94f" d="M 9.078125 9.183594 C 9.078125 9.183594 7.914062 8.476562 7.242188 7.488281 C 6.570312 6.496094 6.878906 4.671875 6.878906 4.671875 C 6.878906 4.671875 6.988281 3.300781 8.929688 2.464844 C 10.875 1.625 12.898438 2.511719 13.457031 2.835938 C 14.011719 3.160156 14.683594 4.351562 14.871094 5.222656 C 15.054688 6.09375 14.605469 7.203125 14.605469 7.203125 L 11.050781 8.132812 Z M 9.078125 9.183594 " fill-opacity="1" fill-rule="nonzero"/><g clip-path="url(#cb466ab6ca)"><path fill="#f9a59a" d="M 10.351562 5.601562 L 10.351562 4.660156 C 10.539062 4.679688 10.71875 4.730469 10.890625 4.808594 C 11.023438 4.867188 11.121094 4.828125 11.175781 4.6875 L 11.195312 4.632812 C 11.253906 4.496094 11.214844 4.398438 11.082031 4.335938 C 10.851562 4.230469 10.605469 4.167969 10.351562 4.15625 L 10.351562 3.769531 C 10.351562 3.683594 10.308594 3.640625 10.222656 3.640625 L 10.105469 3.640625 C 10.019531 3.640625 9.976562 3.683594 9.976562 3.769531 L 9.976562 4.164062 C 9.269531 4.234375 8.933594 4.648438 8.933594 5.125 C 8.933594 5.773438 9.472656 5.941406 9.976562 6.066406 L 9.976562 6.996094 C 9.722656 6.972656 9.480469 6.898438 9.253906 6.773438 C 9.203125 6.742188 9.148438 6.734375 9.089844 6.753906 C 9.035156 6.773438 8.996094 6.8125 8.972656 6.867188 L 8.957031 6.90625 C 8.886719 7.058594 8.925781 7.175781 9.066406 7.253906 C 9.355469 7.402344 9.65625 7.484375 9.976562 7.5 L 9.976562 7.886719 C 9.976562 7.972656 10.019531 8.015625 10.105469 8.019531 L 10.222656 8.019531 C 10.308594 8.015625 10.351562 7.972656 10.351562 7.886719 L 10.351562 7.496094 C 11.0625 7.421875 11.40625 7.011719 11.40625 6.535156 C 11.40625 5.890625 10.855469 5.726562 10.351562 5.601562 Z M 9.976562 5.503906 C 9.714844 5.421875 9.519531 5.320312 9.519531 5.097656 C 9.519531 4.890625 9.65625 4.722656 9.976562 4.671875 Z M 10.351562 6.988281 L 10.351562 6.164062 C 10.625 6.242188 10.824219 6.351562 10.824219 6.578125 C 10.824219 6.777344 10.683594 6.9375 10.351562 6.988281 Z M 27.921875 14.128906 C 27.921875 12.59375 26.65625 11.34375 25.101562 11.34375 C 24.863281 11.34375 24.628906 11.371094 24.398438 11.429688 L 23.972656 11.367188 C 23.703125 10.953125 23.40625 10.566406 23.074219 10.199219 C 23.171875 9.582031 23.574219 6.660156 22.484375 6.371094 C 21.492188 6.109375 20.472656 7.554688 20.183594 8.003906 C 19.628906 7.730469 19.058594 7.503906 18.464844 7.332031 C 18.070312 6.667969 17.558594 6.019531 16.988281 5.847656 C 16.773438 5.78125 16.4375 5.777344 16.042969 6.121094 C 15.800781 6.347656 15.597656 6.601562 15.433594 6.894531 C 15.253906 6.894531 15.074219 6.898438 14.898438 6.90625 C 14.984375 6.628906 15.039062 6.339844 15.058594 6.046875 C 15.078125 5.753906 15.0625 5.464844 15.015625 5.175781 C 14.96875 4.882812 14.890625 4.605469 14.78125 4.332031 C 14.667969 4.0625 14.527344 3.808594 14.359375 3.574219 C 14.1875 3.335938 13.996094 3.121094 13.777344 2.933594 C 13.558594 2.742188 13.320312 2.582031 13.0625 2.449219 C 12.808594 2.316406 12.539062 2.214844 12.261719 2.148438 C 11.984375 2.082031 11.699219 2.046875 11.414062 2.046875 C 11.222656 2.046875 11.035156 2.0625 10.847656 2.09375 C 10.65625 2.0625 10.46875 2.046875 10.277344 2.046875 C 9.859375 2.046875 9.449219 2.117188 9.054688 2.261719 C 8.660156 2.40625 8.296875 2.613281 7.972656 2.886719 C 7.644531 3.15625 7.375 3.476562 7.15625 3.84375 C 6.9375 4.210938 6.785156 4.605469 6.699219 5.027344 C 6.617188 5.449219 6.601562 5.871094 6.660156 6.296875 C 6.714844 6.722656 6.84375 7.128906 7.035156 7.511719 C 7.230469 7.890625 7.480469 8.230469 7.785156 8.523438 C 8.09375 8.816406 8.441406 9.046875 8.824219 9.21875 C 6.789062 10.894531 5.507812 13.324219 5.507812 16.027344 C 5.507812 16.46875 5.542969 16.90625 5.609375 17.34375 C 5.277344 17.601562 4.90625 17.695312 4.496094 17.621094 C 4.277344 16.769531 3.964844 16.261719 3.554688 16.113281 C 3.316406 16.03125 3.089844 16.0625 2.882812 16.203125 C 2.703125 16.261719 2.570312 16.417969 2.519531 16.644531 C 2.421875 17.0625 2.589844 17.777344 3.339844 18.488281 C 3.289062 18.554688 3.152344 18.707031 2.972656 18.722656 C 2.835938 18.734375 2.6875 18.652344 2.53125 18.484375 C 2.339844 18.273438 2.164062 18.203125 2.011719 18.277344 C 1.859375 18.351562 1.792969 18.535156 1.824219 18.789062 C 1.875 19.238281 2.207031 19.75 2.738281 19.855469 C 3.445312 19.996094 3.996094 19.566406 4.277344 19.273438 C 4.324219 19.226562 4.363281 19.179688 4.394531 19.144531 C 4.917969 19.296875 5.457031 19.210938 6.003906 18.890625 C 6.3125 19.742188 6.734375 20.523438 7.28125 21.238281 L 5.972656 23.917969 C 5.882812 24.109375 5.863281 24.304688 5.914062 24.507812 C 5.964844 24.710938 6.074219 24.875 6.242188 24.996094 L 7.226562 25.691406 C 7.378906 25.800781 7.546875 25.847656 7.734375 25.839844 C 7.917969 25.832031 8.082031 25.765625 8.226562 25.644531 L 10.320312 23.859375 C 10.464844 23.9375 10.613281 24.015625 10.761719 24.085938 L 11.601562 26.734375 C 11.648438 26.882812 11.734375 27.007812 11.859375 27.097656 C 11.984375 27.191406 12.125 27.238281 12.28125 27.238281 L 13.292969 27.238281 C 13.488281 27.238281 13.65625 27.167969 13.796875 27.023438 C 13.9375 26.882812 14.007812 26.710938 14.007812 26.507812 L 14.007812 25.066406 C 14.480469 25.128906 14.957031 25.160156 15.433594 25.160156 L 15.511719 25.160156 L 16.046875 27.132812 C 16.097656 27.316406 16.195312 27.46875 16.34375 27.582031 C 16.492188 27.699219 16.660156 27.753906 16.84375 27.753906 L 18.039062 27.753906 C 18.242188 27.753906 18.421875 27.683594 18.578125 27.546875 C 18.734375 27.410156 18.828125 27.238281 18.855469 27.027344 L 19.214844 24.476562 C 19.46875 24.378906 19.71875 24.273438 19.953125 24.160156 C 19.988281 24.152344 20.019531 24.140625 20.050781 24.132812 L 24.75 25.394531 C 24.800781 25.40625 24.851562 25.414062 24.902344 25.414062 C 25.125 25.414062 25.292969 25.316406 25.40625 25.125 L 25.980469 24.164062 C 26.058594 24.035156 26.082031 23.890625 26.054688 23.738281 C 26.027344 23.585938 25.957031 23.464844 25.835938 23.371094 L 24.136719 22.019531 C 26.71875 19.875 26.683594 17.3125 26.597656 16.492188 C 27.003906 16.242188 27.328125 15.910156 27.5625 15.488281 C 27.796875 15.066406 27.917969 14.613281 27.921875 14.128906 Z M 10.042969 8.363281 C 9.851562 8.351562 9.667969 8.324219 9.488281 8.269531 C 9.308594 8.21875 9.132812 8.148438 8.96875 8.054688 C 8.800781 7.964844 8.648438 7.855469 8.507812 7.730469 C 8.367188 7.601562 8.238281 7.460938 8.128906 7.304688 C 8.019531 7.148438 7.925781 6.984375 7.851562 6.804688 C 7.777344 6.628906 7.722656 6.445312 7.6875 6.257812 C 7.652344 6.066406 7.640625 5.878906 7.648438 5.683594 C 7.652344 5.492188 7.683594 5.304688 7.730469 5.117188 C 7.777344 4.929688 7.847656 4.753906 7.933594 4.582031 C 8.023438 4.410156 8.125 4.253906 8.25 4.105469 C 8.371094 3.960938 8.507812 3.828125 8.660156 3.714844 C 8.808594 3.597656 8.96875 3.503906 9.140625 3.425781 C 9.3125 3.347656 9.492188 3.289062 9.675781 3.25 C 9.863281 3.214844 10.046875 3.199219 10.234375 3.203125 C 10.421875 3.207031 10.609375 3.234375 10.789062 3.28125 C 10.972656 3.332031 11.148438 3.398438 11.316406 3.488281 C 11.480469 3.574219 11.636719 3.679688 11.78125 3.804688 C 11.925781 3.925781 12.054688 4.066406 12.167969 4.21875 C 12.285156 4.371094 12.378906 4.535156 12.457031 4.710938 C 12.535156 4.886719 12.59375 5.066406 12.632812 5.257812 C 12.671875 5.445312 12.6875 5.636719 12.6875 5.828125 C 12.683594 6.019531 12.660156 6.210938 12.613281 6.398438 C 12.570312 6.585938 12.503906 6.765625 12.421875 6.9375 C 12.335938 7.109375 12.234375 7.269531 12.117188 7.417969 C 11.390625 7.65625 10.699219 7.96875 10.042969 8.363281 Z M 14.746094 5.789062 C 14.746094 6.179688 14.679688 6.5625 14.550781 6.929688 C 14.273438 6.953125 13.996094 6.984375 13.726562 7.03125 C 13.773438 6.894531 13.808594 6.753906 13.839844 6.613281 C 13.867188 6.613281 13.898438 6.613281 13.929688 6.613281 C 14.035156 6.613281 14.175781 6.609375 14.371094 6.605469 C 14.433594 6.605469 14.464844 6.574219 14.464844 6.507812 C 14.464844 6.441406 14.429688 6.410156 14.367188 6.410156 C 14.191406 6.414062 14.003906 6.414062 13.878906 6.414062 C 13.914062 6.207031 13.929688 6 13.929688 5.789062 C 13.929688 5.746094 13.929688 5.710938 13.929688 5.671875 L 14.742188 5.671875 C 14.742188 5.710938 14.746094 5.746094 14.746094 5.789062 Z M 13.683594 3.292969 C 13.828125 3.429688 13.957031 3.582031 14.078125 3.742188 C 14.273438 4.007812 14.425781 4.296875 14.539062 4.613281 L 14.160156 4.613281 C 14.09375 4.613281 14.0625 4.644531 14.0625 4.710938 C 14.0625 4.777344 14.09375 4.808594 14.160156 4.808594 L 14.605469 4.808594 C 14.667969 5.027344 14.710938 5.246094 14.730469 5.472656 L 13.917969 5.472656 C 13.914062 5.453125 13.914062 5.433594 13.914062 5.417969 C 13.910156 5.382812 13.90625 5.347656 13.902344 5.3125 C 13.898438 5.292969 13.898438 5.277344 13.894531 5.261719 C 13.886719 5.214844 13.882812 5.171875 13.875 5.125 C 13.871094 5.121094 13.871094 5.113281 13.871094 5.109375 C 13.863281 5.058594 13.851562 5.011719 13.839844 4.960938 C 13.839844 4.945312 13.835938 4.929688 13.832031 4.914062 C 13.824219 4.878906 13.816406 4.847656 13.804688 4.8125 C 13.800781 4.792969 13.796875 4.777344 13.792969 4.757812 C 13.78125 4.726562 13.773438 4.695312 13.761719 4.660156 C 13.757812 4.644531 13.753906 4.628906 13.75 4.613281 C 13.734375 4.574219 13.722656 4.535156 13.707031 4.496094 C 13.707031 4.488281 13.703125 4.480469 13.699219 4.46875 C 13.683594 4.425781 13.664062 4.378906 13.644531 4.332031 C 13.640625 4.320312 13.636719 4.304688 13.628906 4.292969 C 13.617188 4.257812 13.601562 4.226562 13.585938 4.195312 C 13.578125 4.179688 13.570312 4.164062 13.566406 4.148438 C 13.550781 4.117188 13.535156 4.085938 13.519531 4.058594 C 13.511719 4.042969 13.503906 4.027344 13.496094 4.011719 C 13.484375 3.984375 13.46875 3.960938 13.457031 3.9375 L 13.941406 3.9375 C 14.007812 3.9375 14.039062 3.902344 14.039062 3.835938 C 14.039062 3.816406 14.035156 3.796875 14.023438 3.78125 C 14.003906 3.753906 13.976562 3.738281 13.941406 3.738281 L 13.339844 3.738281 C 13.335938 3.734375 13.332031 3.726562 13.328125 3.722656 C 13.308594 3.691406 13.289062 3.664062 13.269531 3.632812 C 13.261719 3.621094 13.25 3.605469 13.238281 3.589844 L 13.183594 3.511719 L 13.152344 3.46875 C 13.128906 3.441406 13.109375 3.414062 13.085938 3.390625 C 13.078125 3.378906 13.070312 3.367188 13.058594 3.355469 C 13.042969 3.335938 13.027344 3.316406 13.007812 3.296875 C 13.28125 3.292969 13.539062 3.292969 13.683594 3.292969 Z M 12.863281 2.714844 C 13.074219 2.820312 13.269531 2.945312 13.457031 3.09375 C 13.304688 3.09375 13.105469 3.097656 12.828125 3.101562 C 12.804688 3.078125 12.785156 3.058594 12.761719 3.039062 C 12.746094 3.023438 12.734375 3.011719 12.71875 3 C 12.695312 2.976562 12.671875 2.957031 12.648438 2.933594 C 12.632812 2.921875 12.621094 2.910156 12.609375 2.902344 C 12.574219 2.871094 12.535156 2.839844 12.5 2.8125 C 12.488281 2.804688 12.476562 2.796875 12.46875 2.789062 C 12.4375 2.765625 12.410156 2.746094 12.382812 2.722656 C 12.378906 2.722656 12.375 2.71875 12.371094 2.714844 Z M 12.363281 2.519531 L 12.09375 2.519531 C 12.082031 2.519531 12.074219 2.519531 12.066406 2.523438 C 12.03125 2.503906 11.996094 2.484375 11.960938 2.464844 C 11.953125 2.457031 11.941406 2.453125 11.929688 2.449219 C 11.902344 2.433594 11.871094 2.417969 11.84375 2.402344 C 12.019531 2.429688 12.191406 2.464844 12.363281 2.519531 Z M 6.945312 5.789062 C 6.945312 5.335938 7.03125 4.898438 7.199219 4.480469 C 7.371094 4.066406 7.609375 3.695312 7.921875 3.375 C 8.234375 3.054688 8.59375 2.808594 9.003906 2.636719 C 9.410156 2.464844 9.835938 2.375 10.277344 2.375 C 10.460938 2.375 10.640625 2.390625 10.820312 2.421875 C 11.210938 2.484375 11.578125 2.617188 11.921875 2.816406 C 12.265625 3.015625 12.566406 3.269531 12.820312 3.578125 C 13.078125 3.886719 13.273438 4.230469 13.40625 4.609375 C 13.542969 4.988281 13.609375 5.382812 13.609375 5.789062 C 13.609375 5.859375 13.605469 5.925781 13.601562 5.996094 C 13.597656 6.074219 13.589844 6.152344 13.582031 6.230469 C 13.542969 6.527344 13.46875 6.816406 13.355469 7.09375 C 13.039062 7.15625 12.730469 7.234375 12.425781 7.324219 C 12.53125 7.15625 12.621094 6.980469 12.691406 6.796875 C 12.761719 6.609375 12.8125 6.417969 12.84375 6.222656 C 12.875 6.023438 12.882812 5.828125 12.875 5.628906 C 12.863281 5.429688 12.832031 5.234375 12.777344 5.042969 C 12.726562 4.851562 12.652344 4.664062 12.5625 4.488281 C 12.472656 4.3125 12.363281 4.148438 12.238281 3.996094 C 12.113281 3.84375 11.972656 3.707031 11.816406 3.585938 C 11.664062 3.464844 11.5 3.363281 11.324219 3.277344 C 11.148438 3.191406 10.964844 3.128906 10.773438 3.082031 C 10.585938 3.039062 10.390625 3.015625 10.199219 3.011719 C 10.003906 3.011719 9.8125 3.027344 9.621094 3.070312 C 9.429688 3.109375 9.246094 3.171875 9.066406 3.25 C 8.890625 3.332031 8.722656 3.433594 8.566406 3.550781 C 8.410156 3.667969 8.265625 3.800781 8.136719 3.949219 C 8.007812 4.101562 7.894531 4.261719 7.800781 4.4375 C 7.707031 4.609375 7.628906 4.792969 7.574219 4.984375 C 7.519531 5.171875 7.480469 5.367188 7.464844 5.566406 C 7.449219 5.765625 7.457031 5.964844 7.484375 6.160156 C 7.507812 6.359375 7.554688 6.550781 7.621094 6.738281 C 7.6875 6.925781 7.773438 7.101562 7.878906 7.273438 C 7.980469 7.441406 8.101562 7.59375 8.238281 7.738281 C 8.375 7.878906 8.527344 8.003906 8.6875 8.113281 C 8.851562 8.222656 9.023438 8.3125 9.207031 8.382812 C 9.386719 8.453125 9.574219 8.503906 9.769531 8.53125 C 9.542969 8.675781 9.328125 8.828125 9.117188 8.984375 C 8.800781 8.863281 8.507812 8.695312 8.238281 8.484375 C 7.96875 8.269531 7.738281 8.019531 7.542969 7.734375 C 7.351562 7.449219 7.203125 7.140625 7.101562 6.808594 C 6.996094 6.476562 6.945312 6.136719 6.945312 5.789062 Z M 6.945312 5.789062 " fill-opacity="1" fill-rule="nonzero"/><path fill="#7c1d21" d="M 27.921875 14.128906 C 27.921875 12.59375 26.65625 11.34375 25.101562 11.34375 C 24.863281 11.34375 24.628906 11.371094 24.398438 11.429688 L 23.972656 11.367188 C 23.703125 10.953125 23.40625 10.566406 23.074219 10.199219 C 23.171875 9.582031 23.574219 6.660156 22.484375 6.371094 C 21.492188 6.109375 20.472656 7.554688 20.183594 8.003906 C 19.628906 7.730469 19.058594 7.503906 18.464844 7.332031 C 18.070312 6.667969 17.558594 6.019531 16.988281 5.847656 C 16.773438 5.78125 16.4375 5.777344 16.042969 6.121094 C 15.800781 6.347656 15.597656 6.601562 15.433594 6.894531 C 15.253906 6.894531 15.074219 6.898438 14.898438 6.90625 C 14.984375 6.628906 15.039062 6.339844 15.058594 6.046875 C 15.078125 5.753906 15.0625 5.464844 15.015625 5.175781 C 14.96875 4.882812 14.890625 4.605469 14.78125 4.332031 C 14.667969 4.0625 14.527344 3.808594 14.359375 3.574219 C 14.1875 3.335938 13.996094 3.121094 13.777344 2.933594 C 13.558594 2.742188 13.320312 2.582031 13.0625 2.449219 C 12.808594 2.316406 12.539062 2.214844 12.261719 2.148438 C 11.984375 2.082031 11.699219 2.046875 11.414062 2.046875 C 11.222656 2.046875 11.035156 2.0625 10.847656 2.09375 C 10.65625 2.0625 10.46875 2.046875 10.277344 2.046875 C 9.859375 2.046875 9.449219 2.117188 9.054688 2.261719 C 8.660156 2.40625 8.296875 2.613281 7.972656 2.886719 C 7.644531 3.15625 7.375 3.476562 7.15625 3.84375 C 6.9375 4.210938 6.785156 4.605469 6.699219 5.027344 C 6.617188 5.449219 6.601562 5.871094 6.660156 6.296875 C 6.714844 6.722656 6.84375 7.128906 7.035156 7.511719 C 7.230469 7.890625 7.480469 8.230469 7.785156 8.523438 C 8.09375 8.816406 8.441406 9.046875 8.824219 9.21875 C 6.789062 10.894531 5.507812 13.324219 5.507812 16.027344 C 5.507812 16.46875 5.542969 16.90625 5.609375 17.34375 C 5.277344 17.601562 4.90625 17.695312 4.496094 17.621094 C 4.277344 16.769531 3.964844 16.261719 3.554688 16.113281 C 3.316406 16.03125 3.089844 16.0625 2.882812 16.203125 C 2.703125 16.261719 2.570312 16.417969 2.519531 16.644531 C 2.421875 17.0625 2.589844 17.777344 3.339844 18.488281 C 3.289062 18.554688 3.152344 18.707031 2.972656 18.722656 C 2.835938 18.734375 2.6875 18.652344 2.53125 18.484375 C 2.339844 18.273438 2.164062 18.203125 2.011719 18.277344 C 1.859375 18.351562 1.792969 18.535156 1.824219 18.789062 C 1.875 19.238281 2.207031 19.75 2.738281 19.855469 C 3.445312 19.996094 3.996094 19.566406 4.277344 19.273438 C 4.324219 19.226562 4.363281 19.179688 4.394531 19.144531 C 4.917969 19.296875 5.457031 19.210938 6.003906 18.890625 C 6.3125 19.742188 6.734375 20.523438 7.28125 21.238281 L 5.972656 23.917969 C 5.882812 24.109375 5.863281 24.304688 5.914062 24.507812 C 5.964844 24.710938 6.074219 24.875 6.242188 24.996094 L 7.226562 25.691406 C 7.378906 25.800781 7.546875 25.847656 7.734375 25.839844 C 7.917969 25.832031 8.082031 25.765625 8.226562 25.644531 L 10.320312 23.859375 C 10.464844 23.9375 10.613281 24.015625 10.761719 24.085938 L 11.601562 26.734375 C 11.648438 26.882812 11.734375 27.007812 11.859375 27.097656 C 11.984375 27.191406 12.125 27.238281 12.28125 27.238281 L 13.292969 27.238281 C 13.488281 27.238281 13.65625 27.167969 13.796875 27.023438 C 13.9375 26.882812 14.007812 26.710938 14.007812 26.507812 L 14.007812 25.066406 C 14.480469 25.128906 14.957031 25.160156 15.433594 25.160156 L 15.511719 25.160156 L 16.046875 27.132812 C 16.097656 27.316406 16.195312 27.46875 16.34375 27.582031 C 16.492188 27.699219 16.660156 27.753906 16.84375 27.753906 L 18.039062 27.753906 C 18.242188 27.753906 18.421875 27.683594 18.578125 27.546875 C 18.734375 27.410156 18.828125 27.238281 18.855469 27.027344 L 19.214844 24.476562 C 19.46875 24.378906 19.71875 24.273438 19.953125 24.160156 C 19.988281 24.152344 20.019531 24.140625 20.050781 24.132812 L 24.75 25.394531 C 24.800781 25.40625 24.851562 25.414062 24.902344 25.414062 C 25.125 25.414062 25.292969 25.316406 25.40625 25.125 L 25.980469 24.164062 C 26.058594 24.035156 26.082031 23.890625 26.054688 23.738281 C 26.027344 23.585938 25.957031 23.464844 25.835938 23.371094 L 24.136719 22.019531 C 26.71875 19.875 26.683594 17.3125 26.597656 16.492188 C 27.003906 16.242188 27.328125 15.910156 27.5625 15.488281 C 27.796875 15.066406 27.917969 14.613281 27.921875 14.128906 Z M 22.402344 6.6875 C 23.003906 6.847656 22.96875 8.625 22.792969 9.902344 C 22.105469 9.203125 21.328125 8.621094 20.46875 8.15625 C 20.847656 7.574219 21.707031 6.503906 22.402344 6.6875 Z M 14.746094 5.789062 C 14.746094 6.179688 14.679688 6.5625 14.550781 6.929688 C 14.273438 6.953125 13.996094 6.984375 13.726562 7.03125 C 13.773438 6.894531 13.808594 6.753906 13.839844 6.613281 C 13.867188 6.613281 13.898438 6.613281 13.929688 6.613281 C 14.035156 6.613281 14.175781 6.609375 14.371094 6.605469 C 14.433594 6.605469 14.464844 6.574219 14.464844 6.507812 C 14.464844 6.441406 14.429688 6.410156 14.367188 6.410156 C 14.191406 6.414062 14.003906 6.414062 13.878906 6.414062 C 13.914062 6.207031 13.929688 6 13.929688 5.789062 C 13.929688 5.746094 13.929688 5.710938 13.929688 5.671875 L 14.742188 5.671875 C 14.742188 5.710938 14.746094 5.746094 14.746094 5.789062 Z M 13.683594 3.292969 C 13.828125 3.429688 13.957031 3.582031 14.078125 3.742188 C 14.273438 4.007812 14.425781 4.296875 14.539062 4.613281 L 14.160156 4.613281 C 14.09375 4.613281 14.0625 4.644531 14.0625 4.710938 C 14.0625 4.777344 14.09375 4.808594 14.160156 4.808594 L 14.605469 4.808594 C 14.667969 5.027344 14.710938 5.246094 14.730469 5.472656 L 13.917969 5.472656 C 13.914062 5.453125 13.914062 5.433594 13.914062 5.417969 C 13.910156 5.382812 13.90625 5.347656 13.902344 5.3125 C 13.898438 5.292969 13.898438 5.277344 13.894531 5.261719 C 13.886719 5.214844 13.882812 5.171875 13.875 5.125 C 13.871094 5.121094 13.871094 5.113281 13.871094 5.109375 C 13.863281 5.058594 13.851562 5.011719 13.839844 4.960938 C 13.839844 4.945312 13.835938 4.929688 13.832031 4.914062 C 13.824219 4.878906 13.816406 4.847656 13.804688 4.8125 C 13.800781 4.792969 13.796875 4.777344 13.792969 4.757812 C 13.78125 4.726562 13.773438 4.695312 13.761719 4.660156 C 13.757812 4.644531 13.753906 4.628906 13.75 4.613281 C 13.734375 4.574219 13.722656 4.535156 13.707031 4.496094 C 13.707031 4.488281 13.703125 4.480469 13.699219 4.46875 C 13.683594 4.425781 13.664062 4.378906 13.644531 4.332031 C 13.640625 4.320312 13.636719 4.304688 13.628906 4.292969 C 13.617188 4.257812 13.601562 4.226562 13.585938 4.195312 C 13.578125 4.179688 13.570312 4.164062 13.566406 4.148438 C 13.550781 4.117188 13.535156 4.085938 13.519531 4.058594 C 13.511719 4.042969 13.503906 4.027344 13.496094 4.011719 C 13.484375 3.984375 13.46875 3.960938 13.457031 3.9375 L 13.941406 3.9375 C 14.007812 3.9375 14.039062 3.902344 14.039062 3.835938 C 14.039062 3.816406 14.035156 3.796875 14.023438 3.78125 C 14.003906 3.753906 13.976562 3.738281 13.941406 3.738281 L 13.339844 3.738281 C 13.335938 3.734375 13.332031 3.726562 13.328125 3.722656 C 13.308594 3.691406 13.289062 3.664062 13.269531 3.632812 C 13.261719 3.621094 13.25 3.605469 13.238281 3.589844 L 13.183594 3.511719 L 13.152344 3.46875 C 13.128906 3.441406 13.109375 3.414062 13.085938 3.390625 C 13.078125 3.378906 13.070312 3.367188 13.058594 3.355469 C 13.042969 3.335938 13.027344 3.316406 13.007812 3.296875 C 13.28125 3.292969 13.539062 3.292969 13.683594 3.292969 Z M 12.863281 2.714844 C 13.074219 2.820312 13.269531 2.945312 13.457031 3.09375 C 13.304688 3.09375 13.105469 3.097656 12.828125 3.101562 C 12.804688 3.078125 12.785156 3.058594 12.761719 3.039062 C 12.746094 3.023438 12.734375 3.011719 12.71875 3 C 12.695312 2.976562 12.671875 2.957031 12.648438 2.933594 C 12.632812 2.921875 12.621094 2.910156 12.609375 2.902344 C 12.574219 2.871094 12.535156 2.839844 12.5 2.8125 C 12.488281 2.804688 12.476562 2.796875 12.46875 2.789062 C 12.4375 2.765625 12.410156 2.746094 12.382812 2.722656 C 12.378906 2.722656 12.375 2.71875 12.371094 2.714844 Z M 12.363281 2.519531 L 12.09375 2.519531 C 12.082031 2.519531 12.074219 2.519531 12.066406 2.523438 C 12.03125 2.503906 11.996094 2.484375 11.960938 2.464844 C 11.953125 2.457031 11.941406 2.453125 11.929688 2.449219 C 11.902344 2.433594 11.871094 2.417969 11.84375 2.402344 C 12.019531 2.429688 12.191406 2.464844 12.363281 2.519531 Z M 6.945312 5.789062 C 6.945312 5.335938 7.03125 4.898438 7.199219 4.480469 C 7.371094 4.066406 7.609375 3.695312 7.921875 3.375 C 8.234375 3.054688 8.59375 2.808594 9.003906 2.636719 C 9.410156 2.464844 9.835938 2.375 10.277344 2.375 C 10.460938 2.375 10.640625 2.390625 10.820312 2.421875 C 11.210938 2.484375 11.578125 2.617188 11.921875 2.816406 C 12.265625 3.015625 12.566406 3.269531 12.820312 3.578125 C 13.078125 3.886719 13.273438 4.230469 13.40625 4.609375 C 13.542969 4.988281 13.609375 5.382812 13.609375 5.789062 C 13.609375 5.859375 13.605469 5.925781 13.601562 5.996094 C 13.597656 6.074219 13.589844 6.152344 13.582031 6.230469 C 13.542969 6.527344 13.46875 6.816406 13.355469 7.09375 C 13.039062 7.15625 12.730469 7.234375 12.425781 7.324219 C 12.53125 7.15625 12.621094 6.980469 12.691406 6.796875 C 12.761719 6.609375 12.8125 6.417969 12.84375 6.222656 C 12.875 6.023438 12.882812 5.828125 12.875 5.628906 C 12.863281 5.429688 12.832031 5.234375 12.777344 5.042969 C 12.726562 4.851562 12.652344 4.664062 12.5625 4.488281 C 12.472656 4.3125 12.363281 4.148438 12.238281 3.996094 C 12.113281 3.84375 11.972656 3.707031 11.816406 3.585938 C 11.664062 3.464844 11.5 3.363281 11.324219 3.277344 C 11.148438 3.191406 10.964844 3.128906 10.773438 3.082031 C 10.585938 3.039062 10.390625 3.015625 10.199219 3.011719 C 10.003906 3.011719 9.8125 3.027344 9.621094 3.070312 C 9.429688 3.109375 9.246094 3.171875 9.066406 3.25 C 8.890625 3.332031 8.722656 3.433594 8.566406 3.550781 C 8.410156 3.667969 8.265625 3.800781 8.136719 3.949219 C 8.007812 4.101562 7.894531 4.261719 7.800781 4.4375 C 7.707031 4.609375 7.628906 4.792969 7.574219 4.984375 C 7.519531 5.171875 7.480469 5.367188 7.464844 5.566406 C 7.449219 5.765625 7.457031 5.964844 7.484375 6.160156 C 7.507812 6.359375 7.554688 6.550781 7.621094 6.738281 C 7.6875 6.925781 7.773438 7.101562 7.878906 7.273438 C 7.980469 7.441406 8.101562 7.59375 8.238281 7.738281 C 8.375 7.878906 8.527344 8.003906 8.6875 8.113281 C 8.851562 8.222656 9.023438 8.3125 9.207031 8.382812 C 9.386719 8.453125 9.574219 8.503906 9.769531 8.53125 C 9.542969 8.675781 9.328125 8.828125 9.117188 8.984375 C 8.800781 8.863281 8.507812 8.695312 8.238281 8.484375 C 7.96875 8.269531 7.738281 8.019531 7.542969 7.734375 C 7.351562 7.449219 7.203125 7.140625 7.101562 6.808594 C 6.996094 6.476562 6.945312 6.136719 6.945312 5.789062 Z M 12.117188 7.417969 C 11.390625 7.65625 10.699219 7.96875 10.042969 8.363281 C 9.851562 8.351562 9.667969 8.324219 9.488281 8.269531 C 9.308594 8.21875 9.132812 8.148438 8.96875 8.054688 C 8.800781 7.964844 8.648438 7.855469 8.507812 7.730469 C 8.367188 7.601562 8.238281 7.460938 8.128906 7.304688 C 8.019531 7.148438 7.925781 6.984375 7.851562 6.804688 C 7.777344 6.628906 7.722656 6.445312 7.6875 6.257812 C 7.652344 6.066406 7.640625 5.878906 7.648438 5.683594 C 7.652344 5.492188 7.683594 5.304688 7.730469 5.117188 C 7.777344 4.929688 7.847656 4.753906 7.933594 4.582031 C 8.023438 4.410156 8.125 4.253906 8.25 4.105469 C 8.371094 3.960938 8.507812 3.828125 8.660156 3.714844 C 8.808594 3.597656 8.96875 3.503906 9.140625 3.425781 C 9.3125 3.347656 9.492188 3.289062 9.675781 3.25 C 9.863281 3.214844 10.046875 3.199219 10.234375 3.203125 C 10.421875 3.207031 10.609375 3.234375 10.789062 3.28125 C 10.972656 3.332031 11.148438 3.398438 11.316406 3.488281 C 11.480469 3.574219 11.636719 3.679688 11.78125 3.804688 C 11.925781 3.925781 12.054688 4.066406 12.167969 4.21875 C 12.285156 4.371094 12.378906 4.535156 12.457031 4.710938 C 12.535156 4.886719 12.59375 5.066406 12.632812 5.257812 C 12.671875 5.445312 12.6875 5.636719 12.6875 5.828125 C 12.683594 6.019531 12.660156 6.210938 12.613281 6.398438 C 12.570312 6.585938 12.503906 6.765625 12.421875 6.9375 C 12.335938 7.109375 12.234375 7.269531 12.117188 7.417969 Z M 2.804688 19.496094 C 2.472656 19.429688 2.308594 19.136719 2.253906 19.011719 C 2.199219 18.894531 2.171875 18.773438 2.175781 18.644531 C 2.207031 18.671875 2.242188 18.699219 2.269531 18.734375 C 2.503906 18.988281 2.75 19.109375 3.007812 19.085938 C 3.183594 19.066406 3.339844 18.996094 3.472656 18.871094 C 3.59375 18.960938 3.742188 19.09375 3.796875 19.21875 C 3.550781 19.40625 3.203125 19.578125 2.804688 19.496094 Z M 3.75 18.371094 C 3.023438 17.761719 2.78125 17.09375 2.867188 16.730469 C 2.878906 16.671875 2.914062 16.566406 3 16.546875 C 3.003906 16.546875 3.007812 16.546875 3.011719 16.546875 C 3.042969 16.566406 3.105469 16.71875 3.144531 16.820312 C 3.296875 17.199219 3.527344 17.773438 4.308594 17.957031 L 4.320312 17.957031 C 4.804688 18.078125 5.257812 18 5.679688 17.730469 C 5.734375 18.003906 5.804688 18.269531 5.886719 18.535156 C 5.132812 19 4.429688 18.945312 3.75 18.371094 Z M 13.683594 26.507812 C 13.683594 26.617188 13.648438 26.714844 13.570312 26.792969 C 13.492188 26.871094 13.402344 26.910156 13.292969 26.910156 L 12.28125 26.910156 C 12.242188 26.910156 12.207031 26.902344 12.171875 26.894531 C 12.132812 26.605469 12.082031 26.027344 12.21875 25.707031 C 12.371094 25.355469 13.320312 25.160156 13.683594 25.097656 Z M 25.640625 23.628906 C 25.769531 23.730469 25.789062 23.851562 25.703125 23.996094 L 25.132812 24.953125 C 25.089844 25.023438 25.027344 25.066406 24.945312 25.082031 C 24.640625 24.847656 23.996094 24.289062 23.855469 23.65625 C 23.75 23.199219 23.8125 22.765625 24.035156 22.355469 Z M 19.851562 23.851562 C 19.84375 23.851562 19.835938 23.855469 19.832031 23.859375 C 19.570312 23.980469 19.296875 24.097656 19.015625 24.199219 C 18.953125 24.222656 18.917969 24.265625 18.910156 24.332031 L 18.539062 26.980469 C 18.519531 27.109375 18.464844 27.214844 18.371094 27.300781 C 18.273438 27.382812 18.164062 27.425781 18.039062 27.425781 L 16.84375 27.425781 C 16.589844 27.425781 16.425781 27.300781 16.355469 27.046875 L 15.789062 24.949219 C 15.765625 24.871094 15.714844 24.832031 15.632812 24.832031 L 15.597656 24.832031 C 15.542969 24.832031 15.488281 24.832031 15.433594 24.832031 C 13.636719 24.839844 11.953125 24.402344 10.378906 23.515625 C 10.316406 23.480469 10.253906 23.484375 10.199219 23.53125 L 8.019531 25.390625 C 7.824219 25.558594 7.621094 25.570312 7.410156 25.421875 L 6.425781 24.726562 C 6.324219 24.652344 6.257812 24.550781 6.226562 24.425781 C 6.195312 24.304688 6.207031 24.183594 6.261719 24.066406 L 7.613281 21.292969 C 7.644531 21.230469 7.636719 21.171875 7.59375 21.117188 C 6.441406 19.625 5.828125 17.863281 5.828125 16.027344 C 5.828125 13.558594 6.945312 11.320312 8.742188 9.71875 C 8.863281 9.828125 8.984375 9.832031 9.113281 9.726562 C 11.914062 7.429688 15.152344 7.441406 15.152344 7.441406 C 14.746094 8.339844 14.480469 9.464844 14.480469 10.425781 C 14.480469 10.601562 14.488281 10.777344 14.507812 10.953125 C 14.519531 11.050781 14.574219 11.097656 14.667969 11.097656 C 14.675781 11.097656 14.683594 11.097656 14.6875 11.097656 C 14.792969 11.082031 14.839844 11.023438 14.828125 10.914062 C 14.648438 9.429688 15.367188 7.140625 16.25 6.375 C 16.480469 6.171875 16.699219 6.101562 16.894531 6.160156 C 17.996094 6.492188 18.945312 9.082031 18.953125 9.105469 C 18.988281 9.210938 19.058594 9.246094 19.160156 9.207031 C 19.261719 9.167969 19.292969 9.097656 19.253906 8.992188 C 19.09375 8.566406 18.910156 8.15625 18.699219 7.753906 C 20.695312 8.417969 22.429688 9.679688 23.582031 11.363281 C 23.269531 11.378906 22.960938 11.425781 22.660156 11.507812 C 22.714844 11.351562 22.726562 11.195312 22.695312 11.03125 C 22.632812 10.664062 22.382812 10.402344 22.144531 10.449219 C 21.90625 10.492188 21.765625 10.828125 21.832031 11.191406 C 21.871094 11.421875 21.980469 11.609375 22.117188 11.707031 C 22.011719 11.753906 21.917969 11.8125 21.828125 11.886719 C 21.746094 11.957031 21.742188 12.035156 21.808594 12.117188 C 21.878906 12.199219 21.953125 12.207031 22.035156 12.136719 C 22.039062 12.132812 22.527344 11.722656 23.742188 11.6875 C 23.707031 11.707031 23.671875 11.726562 23.636719 11.75 C 23.632812 11.75 23.625 11.753906 23.621094 11.757812 C 23.574219 11.785156 23.527344 11.816406 23.480469 11.847656 C 23.472656 11.855469 23.464844 11.863281 23.453125 11.867188 C 23.410156 11.902344 23.363281 11.933594 23.324219 11.96875 C 23.316406 11.972656 23.308594 11.980469 23.300781 11.984375 C 23.257812 12.019531 23.21875 12.054688 23.179688 12.089844 C 23.175781 12.09375 23.171875 12.097656 23.167969 12.101562 C 23.128906 12.136719 23.089844 12.179688 23.050781 12.21875 C 23.042969 12.226562 23.035156 12.234375 23.027344 12.242188 C 22.992188 12.28125 22.957031 12.324219 22.921875 12.363281 C 22.914062 12.371094 22.910156 12.378906 22.902344 12.386719 C 22.867188 12.429688 22.835938 12.472656 22.804688 12.515625 L 22.796875 12.523438 C 22.765625 12.570312 22.734375 12.613281 22.707031 12.664062 L 22.6875 12.691406 C 22.660156 12.738281 22.632812 12.785156 22.609375 12.832031 C 22.601562 12.839844 22.597656 12.847656 22.59375 12.859375 C 22.570312 12.90625 22.542969 12.957031 22.523438 13.007812 C 22.519531 13.007812 22.519531 13.011719 22.519531 13.011719 C 22.496094 13.0625 22.476562 13.117188 22.457031 13.167969 C 22.453125 13.179688 22.449219 13.1875 22.445312 13.199219 C 22.425781 13.25 22.410156 13.300781 22.394531 13.355469 C 22.390625 13.367188 22.386719 13.375 22.386719 13.386719 C 22.371094 13.4375 22.355469 13.492188 22.34375 13.550781 C 22.332031 13.609375 22.320312 13.664062 22.3125 13.722656 C 22.3125 13.730469 22.308594 13.742188 22.308594 13.753906 C 22.300781 13.808594 22.292969 13.863281 22.289062 13.921875 C 22.289062 13.929688 22.289062 13.941406 22.289062 13.953125 C 22.285156 14.011719 22.28125 14.070312 22.28125 14.128906 C 22.28125 15.550781 23.367188 16.726562 24.761719 16.894531 C 24.425781 17.25 23.726562 17.859375 22.96875 17.765625 C 22.300781 17.6875 21.710938 17.082031 21.214844 15.964844 C 21.351562 15.890625 21.496094 15.859375 21.652344 15.875 C 21.757812 15.890625 21.816406 15.839844 21.832031 15.734375 C 21.84375 15.625 21.796875 15.5625 21.691406 15.550781 C 21.675781 15.546875 21.265625 15.496094 20.941406 15.757812 C 20.730469 15.925781 20.605469 16.179688 20.566406 16.507812 C 20.550781 16.617188 20.601562 16.679688 20.707031 16.691406 C 20.710938 16.691406 20.71875 16.691406 20.726562 16.691406 C 20.820312 16.691406 20.875 16.644531 20.882812 16.546875 C 20.894531 16.433594 20.925781 16.324219 20.976562 16.21875 C 21.511719 17.371094 22.167969 18.003906 22.929688 18.09375 C 22.992188 18.101562 23.058594 18.105469 23.121094 18.105469 C 24.136719 18.105469 24.972656 17.167969 25.179688 16.914062 C 25.210938 16.910156 25.242188 16.910156 25.273438 16.910156 C 25.292969 16.910156 25.308594 16.90625 25.328125 16.90625 C 25.367188 16.902344 25.40625 16.898438 25.441406 16.894531 C 25.464844 16.890625 25.484375 16.886719 25.507812 16.886719 C 25.542969 16.878906 25.578125 16.875 25.613281 16.867188 C 25.632812 16.863281 25.65625 16.859375 25.675781 16.855469 C 25.714844 16.847656 25.75 16.839844 25.789062 16.832031 C 25.804688 16.828125 25.824219 16.824219 25.84375 16.816406 C 25.890625 16.804688 25.941406 16.789062 25.988281 16.773438 C 25.992188 16.773438 26 16.769531 26.003906 16.769531 C 26.058594 16.75 26.109375 16.730469 26.164062 16.710938 C 26.179688 16.703125 26.195312 16.695312 26.210938 16.691406 C 26.238281 16.679688 26.265625 16.667969 26.289062 16.65625 C 26.386719 17.902344 26.164062 21.894531 19.851562 23.851562 Z M 26.347656 16.261719 C 25.960938 16.480469 25.542969 16.589844 25.101562 16.585938 C 23.726562 16.585938 22.605469 15.484375 22.605469 14.128906 C 22.605469 13.992188 22.613281 13.855469 22.636719 13.722656 C 22.648438 13.65625 22.664062 13.589844 22.679688 13.523438 C 22.792969 13.109375 22.996094 12.746094 23.292969 12.4375 C 23.589844 12.125 23.9375 11.910156 24.34375 11.789062 C 24.375 11.777344 24.410156 11.765625 24.445312 11.757812 C 24.660156 11.699219 24.878906 11.671875 25.101562 11.671875 C 26.480469 11.671875 27.601562 12.773438 27.601562 14.128906 C 27.597656 14.574219 27.484375 14.988281 27.257812 15.371094 C 27.035156 15.753906 26.730469 16.050781 26.347656 16.261719 Z M 27.03125 14.128906 C 27.03125 14.628906 26.777344 15.035156 26.464844 15.035156 C 26.152344 15.035156 25.898438 14.628906 25.898438 14.128906 C 25.898438 13.628906 26.152344 13.226562 26.464844 13.226562 C 26.777344 13.226562 27.03125 13.628906 27.03125 14.128906 Z M 25.101562 14.183594 C 25.101562 14.683594 24.847656 15.089844 24.539062 15.089844 C 24.226562 15.089844 23.972656 14.683594 23.972656 14.183594 C 23.972656 13.683594 24.226562 13.28125 24.539062 13.28125 C 24.851562 13.28125 25.101562 13.683594 25.101562 14.183594 Z M 19.789062 11.574219 C 19.859375 11.984375 19.679688 12.363281 19.386719 12.417969 C 19.089844 12.472656 18.789062 12.183594 18.71875 11.773438 C 18.644531 11.363281 18.824219 10.984375 19.121094 10.929688 C 19.417969 10.875 19.714844 11.164062 19.789062 11.574219 Z M 10.351562 5.601562 L 10.351562 4.660156 C 10.539062 4.679688 10.71875 4.730469 10.890625 4.808594 C 11.023438 4.867188 11.121094 4.828125 11.175781 4.6875 L 11.195312 4.632812 C 11.253906 4.496094 11.214844 4.398438 11.082031 4.335938 C 10.851562 4.230469 10.605469 4.167969 10.351562 4.15625 L 10.351562 3.769531 C 10.351562 3.683594 10.308594 3.640625 10.222656 3.640625 L 10.105469 3.640625 C 10.019531 3.640625 9.976562 3.683594 9.976562 3.769531 L 9.976562 4.164062 C 9.269531 4.234375 8.933594 4.648438 8.933594 5.125 C 8.933594 5.773438 9.472656 5.941406 9.976562 6.066406 L 9.976562 6.996094 C 9.722656 6.972656 9.480469 6.898438 9.253906 6.773438 C 9.203125 6.742188 9.148438 6.734375 9.089844 6.753906 C 9.035156 6.773438 8.996094 6.8125 8.972656 6.867188 L 8.957031 6.90625 C 8.886719 7.058594 8.925781 7.175781 9.066406 7.253906 C 9.355469 7.402344 9.65625 7.484375 9.976562 7.5 L 9.976562 7.886719 C 9.976562 7.972656 10.019531 8.015625 10.105469 8.019531 L 10.222656 8.019531 C 10.308594 8.015625 10.351562 7.972656 10.351562 7.886719 L 10.351562 7.496094 C 11.0625 7.421875 11.40625 7.011719 11.40625 6.535156 C 11.40625 5.890625 10.855469 5.726562 10.351562 5.601562 Z M 9.976562 5.503906 C 9.714844 5.421875 9.519531 5.320312 9.519531 5.097656 C 9.519531 4.890625 9.65625 4.722656 9.976562 4.671875 Z M 10.351562 6.988281 L 10.351562 6.164062 C 10.625 6.242188 10.824219 6.351562 10.824219 6.578125 C 10.824219 6.777344 10.683594 6.9375 10.351562 6.988281 Z M 10.351562 6.988281 " fill-opacity="1" fill-rule="nonzero"/></g><g clip-path="url(#8dbd0544d4)"><path fill="#ffc9c5" d="M 9.648438 10.574219 C 8.882812 11.515625 8.363281 12.585938 8.097656 13.78125 C 8.46875 13.570312 9.007812 13.691406 8.851562 15.550781 C 8.71875 17.117188 8.199219 16.964844 7.859375 16.675781 C 7.917969 17.902344 8.140625 19.09375 8.535156 20.25 C 4.242188 14.078125 9.648438 10.574219 9.648438 10.574219 Z M 16.796875 25.910156 C 16.46875 25.164062 16.027344 23.976562 16.027344 23.976562 C 16.027344 23.976562 16.332031 26.625 16.839844 26.988281 C 17.34375 27.355469 18.175781 27.125 18.175781 27.125 C 18.175781 27.125 17.121094 26.652344 16.796875 25.910156 Z M 6.910156 24.105469 C 7.070312 24.71875 7.847656 25.089844 7.847656 25.089844 C 7.847656 25.089844 7.339844 24.03125 7.554688 23.25 C 7.773438 22.464844 8.179688 21.265625 8.179688 21.265625 C 8.179688 21.265625 6.75 23.492188 6.910156 24.105469 Z M 6.910156 24.105469 " fill-opacity="1" fill-rule="nonzero"/></g><g clip-path="url(#fbc7713289)"><path fill="#f86c5f" d="M 25.101562 11.671875 C 24.878906 11.671875 24.660156 11.699219 24.445312 11.757812 C 24.410156 11.765625 24.375 11.777344 24.34375 11.789062 C 23.9375 11.910156 23.589844 12.125 23.292969 12.433594 C 22.996094 12.746094 22.792969 13.105469 22.679688 13.523438 C 22.664062 13.589844 22.648438 13.65625 22.636719 13.722656 C 22.613281 13.855469 22.605469 13.992188 22.605469 14.128906 C 22.605469 15.484375 23.726562 16.585938 25.101562 16.585938 C 25.542969 16.585938 25.957031 16.480469 26.347656 16.261719 C 26.730469 16.050781 27.03125 15.753906 27.257812 15.371094 C 27.484375 14.988281 27.597656 14.574219 27.601562 14.128906 C 27.601562 12.773438 26.480469 11.671875 25.101562 11.671875 Z M 24.539062 15.089844 C 24.226562 15.089844 23.972656 14.683594 23.972656 14.183594 C 23.972656 13.683594 24.226562 13.28125 24.539062 13.28125 C 24.851562 13.28125 25.101562 13.683594 25.101562 14.183594 C 25.101562 14.683594 24.847656 15.089844 24.539062 15.089844 Z M 26.464844 15.035156 C 26.152344 15.035156 25.898438 14.628906 25.898438 14.128906 C 25.898438 13.628906 26.152344 13.226562 26.464844 13.226562 C 26.777344 13.226562 27.03125 13.628906 27.03125 14.128906 C 27.03125 14.628906 26.777344 15.035156 26.464844 15.035156 Z M 24.035156 22.355469 L 25.640625 23.628906 C 25.765625 23.730469 25.789062 23.851562 25.703125 23.996094 L 25.132812 24.953125 C 25.089844 25.023438 25.027344 25.066406 24.945312 25.082031 C 24.640625 24.847656 23.996094 24.289062 23.855469 23.65625 C 23.75 23.199219 23.8125 22.765625 24.035156 22.355469 Z M 22.792969 9.902344 C 22.105469 9.203125 21.328125 8.621094 20.46875 8.15625 C 20.847656 7.574219 21.707031 6.503906 22.402344 6.6875 C 23.003906 6.847656 22.96875 8.625 22.792969 9.902344 Z M 13.683594 25.097656 L 13.683594 26.507812 C 13.683594 26.617188 13.648438 26.714844 13.570312 26.792969 C 13.492188 26.871094 13.402344 26.910156 13.292969 26.910156 L 12.28125 26.910156 C 12.242188 26.910156 12.207031 26.902344 12.171875 26.894531 C 12.132812 26.605469 12.082031 26.027344 12.21875 25.707031 C 12.371094 25.355469 13.320312 25.160156 13.683594 25.097656 Z M 5.679688 17.730469 C 5.734375 18.003906 5.804688 18.269531 5.886719 18.535156 C 5.132812 19 4.429688 18.945312 3.75 18.371094 C 3.023438 17.761719 2.78125 17.09375 2.867188 16.730469 C 2.878906 16.671875 2.914062 16.566406 3 16.546875 C 3.003906 16.546875 3.007812 16.546875 3.011719 16.546875 C 3.042969 16.566406 3.105469 16.71875 3.144531 16.820312 C 3.296875 17.199219 3.527344 17.773438 4.3125 17.957031 L 4.320312 17.957031 C 4.804688 18.078125 5.257812 18 5.679688 17.730469 Z M 3.796875 19.21875 C 3.550781 19.40625 3.203125 19.578125 2.804688 19.496094 C 2.472656 19.429688 2.308594 19.136719 2.253906 19.011719 C 2.199219 18.894531 2.171875 18.773438 2.175781 18.644531 C 2.207031 18.671875 2.242188 18.703125 2.269531 18.734375 C 2.503906 18.988281 2.75 19.109375 3.007812 19.085938 C 3.183594 19.066406 3.339844 18.996094 3.472656 18.871094 C 3.59375 18.960938 3.742188 19.09375 3.796875 19.21875 Z M 19.269531 16.515625 C 19.269531 17.726562 18.214844 18.707031 16.910156 18.707031 C 15.609375 18.707031 14.550781 17.726562 14.550781 16.515625 C 14.550781 15.304688 15.609375 14.324219 16.910156 14.324219 C 18.214844 14.324219 19.269531 15.304688 19.269531 16.515625 Z M 15.796875 10.054688 C 15.910156 9.039062 16.222656 7.089844 16.886719 7.089844 C 17.59375 7.089844 18.070312 8.550781 18.242188 9.1875 C 18.296875 9.378906 18.234375 9.515625 18.054688 9.597656 L 16.269531 10.414062 C 16.152344 10.46875 16.039062 10.457031 15.929688 10.375 C 15.824219 10.296875 15.78125 10.1875 15.796875 10.054688 Z M 15.796875 10.054688 " fill-opacity="1" fill-rule="nonzero"/></g></svg>