<svg xmlns="http://www.w3.org/2000/svg" xmlns:xlink="http://www.w3.org/1999/xlink" width="40" zoomAndPan="magnify" viewBox="0 0 30 30.000001" height="40" preserveAspectRatio="xMidYMid meet" version="1.0"><defs><clipPath id="5f80bc494a"><path d="M 25 18 L 28.652344 18 L 28.652344 25 L 25 25 Z M 25 18 " clip-rule="nonzero"/></clipPath><clipPath id="aafbb6a721"><path d="M 22.289062 24.527344 L 23.441406 24.527344 L 23.441406 26.128906 L 22.289062 26.128906 Z M 22.289062 24.527344 " clip-rule="nonzero"/></clipPath><clipPath id="6223716574"><path d="M 21 2.902344 L 24 2.902344 L 24 5 L 21 5 Z M 21 2.902344 " clip-rule="nonzero"/></clipPath><clipPath id="921a5a4e8a"><path d="M 25 2.902344 L 28 2.902344 L 28 6 L 25 6 Z M 25 2.902344 " clip-rule="nonzero"/></clipPath><clipPath id="34ebd47407"><path d="M 1.070312 24 L 3 24 L 3 25 L 1.070312 25 Z M 1.070312 24 " clip-rule="nonzero"/></clipPath><clipPath id="e83178b077"><path d="M 1.070312 18 L 6 18 L 6 25 L 1.070312 25 Z M 1.070312 18 " clip-rule="nonzero"/></clipPath><clipPath id="69f8706611"><path d="M 1.070312 19 L 4 19 L 4 24 L 1.070312 24 Z M 1.070312 19 " clip-rule="nonzero"/></clipPath></defs><path fill="#f5876d" d="M 25.328125 12.179688 C 25.589844 12.082031 25.929688 12.042969 26.097656 11.976562 C 26.273438 12.148438 26.324219 12.40625 26.367188 12.648438 C 26.59375 13.910156 26.796875 15.167969 26.730469 16.453125 C 26.726562 16.550781 26.71875 16.648438 26.730469 16.746094 C 26.777344 17.074219 27.035156 17.335938 27.082031 17.664062 C 27.089844 17.710938 27.089844 17.757812 27.078125 17.804688 C 27.042969 17.90625 26.941406 17.960938 26.84375 17.996094 C 26.664062 18.066406 26.476562 18.109375 26.28125 18.121094 C 26.246094 18.121094 26.207031 18.121094 26.179688 18.101562 C 26.148438 18.074219 26.140625 18.03125 26.136719 17.992188 C 26.089844 17.59375 26.183594 17.179688 26.121094 16.789062 C 26.058594 16.367188 25.929688 15.929688 25.835938 15.511719 C 25.617188 14.558594 25.328125 13.617188 24.992188 12.695312 C 24.894531 12.425781 25.078125 12.277344 25.328125 12.179688 " fill-opacity="1" fill-rule="nonzero"/><g clip-path="url(#5f80bc494a)"><path fill="#3a212a" d="M 26.035156 18.65625 C 25.765625 18.671875 25.457031 18.703125 25.292969 18.921875 C 25.144531 19.117188 25.171875 19.390625 25.203125 19.636719 C 25.402344 21.109375 25.597656 22.585938 25.796875 24.0625 C 25.8125 24.183594 25.832031 24.308594 25.90625 24.40625 C 26.054688 24.601562 26.34375 24.582031 26.585938 24.546875 C 27.128906 24.460938 27.675781 24.378906 28.21875 24.292969 C 28.265625 24.285156 28.316406 24.277344 28.355469 24.253906 C 28.449219 24.199219 28.472656 24.078125 28.484375 23.96875 C 28.640625 22.628906 28.492188 21.277344 28.289062 19.949219 C 28.230469 19.550781 28.265625 18.59375 27.769531 18.515625 C 27.589844 18.484375 27.3125 18.589844 27.128906 18.605469 C 26.765625 18.632812 26.398438 18.640625 26.035156 18.65625 " fill-opacity="1" fill-rule="nonzero"/></g><path fill="#522d3a" d="M 26.667969 17.898438 C 26.652344 17.828125 26.628906 17.75 26.582031 17.695312 C 26.53125 17.640625 26.441406 17.613281 26.382812 17.660156 C 26.390625 18.007812 26.398438 18.355469 26.40625 18.703125 C 26.410156 18.78125 26.410156 18.863281 26.449219 18.929688 C 26.503906 19.027344 26.628906 19.078125 26.738281 19.042969 C 27.09375 18.921875 26.730469 18.136719 26.667969 17.898438 " fill-opacity="1" fill-rule="nonzero"/><path fill="#522d3a" d="M 22.46875 24.164062 C 22.421875 23.960938 22.265625 23.765625 22.058594 23.734375 C 22.015625 23.726562 21.96875 23.726562 21.925781 23.738281 C 21.800781 23.777344 21.730469 23.90625 21.675781 24.019531 C 21.574219 24.234375 21.476562 24.453125 21.453125 24.6875 C 21.421875 24.980469 21.664062 25.679688 22.066406 25.40625 C 22.375 25.195312 22.542969 24.503906 22.46875 24.164062 " fill-opacity="1" fill-rule="nonzero"/><g clip-path="url(#aafbb6a721)"><path fill="#522d3a" d="M 23.363281 25.625 C 23.355469 25.675781 23.351562 25.730469 23.324219 25.773438 C 23.300781 25.816406 23.265625 25.847656 23.226562 25.875 C 23.015625 26.03125 22.757812 26.121094 22.496094 26.128906 C 22.445312 26.132812 22.390625 26.128906 22.355469 26.09375 C 22.320312 26.0625 22.316406 26.007812 22.316406 25.957031 C 22.3125 25.746094 22.355469 25.539062 22.40625 25.335938 C 22.445312 25.167969 22.484375 25 22.574219 24.855469 C 22.722656 24.613281 23.097656 24.441406 23.316406 24.710938 C 23.476562 24.914062 23.382812 25.390625 23.363281 25.625 " fill-opacity="1" fill-rule="nonzero"/></g><path fill="#ef5b56" d="M 21.355469 3.238281 C 21.199219 3.320312 21.066406 3.445312 20.984375 3.597656 C 20.769531 4.003906 20.839844 4.671875 21.296875 4.851562 C 21.3125 4.859375 21.332031 4.863281 21.347656 4.859375 C 21.371094 4.851562 21.382812 4.828125 21.390625 4.804688 C 21.625 4.246094 22.070312 3.867188 22.335938 3.328125 C 22.34375 3.308594 22.355469 3.285156 22.351562 3.265625 C 22.34375 3.234375 22.3125 3.21875 22.28125 3.207031 C 22.050781 3.117188 21.792969 3.09375 21.554688 3.15625 C 21.484375 3.175781 21.417969 3.203125 21.355469 3.238281 " fill-opacity="1" fill-rule="nonzero"/><path fill="#3a212a" d="M 23.269531 3.800781 C 23.40625 4.09375 23.335938 4.542969 23.082031 4.691406 C 22.949219 4.769531 22.839844 4.757812 22.742188 4.882812 C 22.636719 5.015625 22.695312 5.175781 22.5 5.277344 C 22.351562 5.347656 22.179688 5.34375 22.019531 5.308594 C 21.859375 5.277344 21.707031 5.214844 21.546875 5.175781 C 21.503906 5.164062 21.460938 5.15625 21.421875 5.128906 C 21.125 4.941406 21.277344 4.394531 21.367188 4.132812 C 21.445312 3.90625 21.546875 3.699219 21.695312 3.511719 C 21.753906 3.441406 22.210938 3.097656 22.210938 3.058594 C 22.207031 3.222656 22.160156 3.386719 22.078125 3.523438 C 22.273438 3.328125 22.519531 3.183594 22.785156 3.109375 C 22.882812 3.082031 23.007812 3.074219 23.0625 3.164062 C 22.6875 3.613281 23.089844 3.421875 23.269531 3.800781 " fill-opacity="1" fill-rule="nonzero"/><path fill="#f5876d" d="M 23.960938 5.988281 C 24.773438 6.058594 25.398438 5.628906 25.804688 4.945312 C 25.890625 4.796875 25.976562 4.640625 26.113281 4.535156 C 26.25 4.433594 26.457031 4.394531 26.589844 4.503906 C 26.632812 4.535156 26.664062 4.589844 26.652344 4.640625 C 26.648438 4.675781 26.621094 4.703125 26.597656 4.726562 C 25.875 5.515625 25.242188 6.296875 24.160156 6.550781 C 23.632812 6.675781 23.171875 6.421875 22.636719 6.375 C 22.035156 6.320312 21.550781 6.699219 21.03125 6.941406 C 20.414062 7.226562 19.695312 7.179688 19.027344 7.132812 C 18.96875 7.128906 18.898438 7.121094 18.855469 7.074219 C 18.828125 7.039062 18.816406 6.992188 18.808594 6.945312 C 18.792969 6.828125 18.78125 6.707031 18.78125 6.585938 C 18.78125 6.546875 18.785156 6.507812 18.808594 6.476562 C 18.851562 6.421875 18.9375 6.429688 19.003906 6.449219 C 19.714844 6.609375 20.5625 6.765625 21.246094 6.433594 C 21.816406 6.160156 22.320312 5.582031 22.230469 4.90625 C 22.222656 4.855469 22.214844 4.800781 22.230469 4.753906 C 22.242188 4.703125 22.292969 4.660156 22.34375 4.671875 C 22.367188 4.679688 22.386719 4.699219 22.402344 4.714844 C 22.625 4.957031 22.675781 5.316406 22.886719 5.566406 C 23.035156 5.742188 23.253906 5.851562 23.476562 5.90625 C 23.628906 5.941406 23.792969 5.972656 23.960938 5.988281 " fill-opacity="1" fill-rule="nonzero"/><path fill="#f5876d" d="M 22.804688 5.199219 C 22.726562 5.246094 22.644531 5.285156 22.558594 5.308594 C 22.300781 5.375 21.992188 5.308594 21.835938 5.078125 C 21.609375 4.746094 21.847656 4.675781 22.105469 4.476562 C 22.277344 4.339844 22.398438 4.144531 22.445312 3.929688 C 22.507812 3.605469 23.21875 4.277344 23.164062 4.652344 C 23.128906 4.875 22.992188 5.074219 22.804688 5.199219 " fill-opacity="1" fill-rule="nonzero"/><path fill="#ffffff" d="M 22.851562 4.785156 C 22.867188 4.792969 22.863281 4.8125 22.859375 4.84375 C 22.855469 4.882812 22.847656 4.914062 22.824219 4.949219 C 22.78125 5.011719 22.722656 5.066406 22.652344 5.09375 C 22.582031 5.117188 22.5 5.09375 22.433594 5.066406 C 22.40625 5.058594 22.316406 5.015625 22.324219 4.980469 C 22.328125 4.964844 22.34375 4.957031 22.355469 4.949219 C 22.457031 4.898438 22.5625 4.863281 22.671875 4.828125 C 22.722656 4.8125 22.773438 4.792969 22.824219 4.785156 C 22.835938 4.78125 22.84375 4.78125 22.851562 4.785156 " fill-opacity="1" fill-rule="nonzero"/><path fill="#f5876d" d="M 21.792969 4.710938 C 21.804688 4.675781 21.785156 4.636719 21.753906 4.621094 C 21.722656 4.605469 21.683594 4.609375 21.652344 4.625 C 21.585938 4.667969 21.5625 4.757812 21.574219 4.835938 C 21.585938 4.878906 21.601562 4.917969 21.636719 4.941406 C 21.6875 4.976562 21.765625 4.953125 21.800781 4.898438 C 21.835938 4.847656 21.835938 4.777344 21.808594 4.71875 C 21.804688 4.707031 21.796875 4.691406 21.78125 4.6875 L 21.792969 4.710938 " fill-opacity="1" fill-rule="nonzero"/><path fill="#f5876d" d="M 22.9375 4.21875 C 22.949219 4.144531 23.03125 4.050781 23.113281 4.105469 C 23.191406 4.160156 23.230469 4.320312 23.214844 4.410156 C 23.210938 4.425781 23.203125 4.441406 23.191406 4.453125 C 23.183594 4.46875 23.164062 4.472656 23.148438 4.46875 C 23.140625 4.464844 23.132812 4.460938 23.125 4.453125 C 23.058594 4.390625 22.925781 4.320312 22.9375 4.21875 " fill-opacity="1" fill-rule="nonzero"/><path fill="#ef5b56" d="M 22.019531 5.066406 C 21.988281 5.058594 21.957031 5.035156 21.941406 5.007812 C 21.914062 4.960938 21.925781 4.902344 21.957031 4.859375 C 21.996094 4.804688 22.09375 4.757812 22.15625 4.792969 C 22.242188 4.839844 22.28125 4.972656 22.207031 5.046875 C 22.164062 5.09375 22.074219 5.085938 22.019531 5.066406 " fill-opacity="1" fill-rule="nonzero"/><path fill="#ef5b56" d="M 22.816406 4.527344 C 22.824219 4.4375 22.921875 4.371094 23.003906 4.394531 C 23.101562 4.421875 23.144531 4.570312 23.085938 4.652344 C 23.050781 4.699219 22.960938 4.707031 22.910156 4.683594 C 22.855469 4.65625 22.8125 4.589844 22.816406 4.527344 " fill-opacity="1" fill-rule="nonzero"/><path fill="#3a212a" d="M 22.890625 4.316406 C 22.847656 4.320312 22.808594 4.335938 22.777344 4.363281 C 22.746094 4.386719 22.726562 4.417969 22.699219 4.449219 C 22.6875 4.460938 22.664062 4.449219 22.671875 4.433594 C 22.695312 4.34375 22.804688 4.285156 22.886719 4.273438 C 22.914062 4.269531 22.914062 4.3125 22.890625 4.316406 " fill-opacity="1" fill-rule="nonzero"/><path fill="#3a212a" d="M 22.03125 4.640625 C 22.105469 4.597656 22.214844 4.570312 22.292969 4.617188 C 22.3125 4.628906 22.300781 4.652344 22.28125 4.652344 C 22.195312 4.636719 22.128906 4.628906 22.054688 4.675781 C 22.03125 4.691406 22.007812 4.65625 22.03125 4.640625 " fill-opacity="1" fill-rule="nonzero"/><path fill="#c4313e" d="M 21.847656 5.789062 C 22.164062 5.714844 22.421875 5.605469 22.726562 5.476562 C 22.769531 5.460938 22.816406 5.441406 22.863281 5.433594 C 22.925781 5.417969 22.992188 5.425781 23.054688 5.433594 C 23.429688 5.46875 23.800781 5.507812 24.175781 5.542969 C 24.171875 5.882812 24.125 6.386719 23.910156 6.667969 C 23.878906 6.710938 23.828125 6.738281 23.800781 6.78125 C 23.773438 6.828125 23.769531 6.878906 23.769531 6.929688 C 23.757812 7.257812 23.789062 7.585938 23.863281 7.90625 C 23.878906 7.96875 23.890625 8.039062 23.851562 8.089844 C 23.824219 8.128906 23.777344 8.140625 23.730469 8.152344 C 23.1875 8.292969 22.640625 8.4375 22.097656 8.578125 C 22.070312 8.585938 22.042969 8.589844 22.015625 8.582031 C 21.980469 8.574219 21.957031 8.539062 21.9375 8.503906 C 21.726562 8.132812 21.710938 7.765625 21.589844 7.367188 C 21.46875 6.957031 21.273438 7.125 20.941406 7.234375 C 20.859375 7.261719 20.691406 6.289062 20.679688 6.214844 C 21.019531 6.074219 21.367188 5.9375 21.71875 5.824219 C 21.761719 5.8125 21.804688 5.800781 21.847656 5.789062 " fill-opacity="1" fill-rule="nonzero"/><path fill="#522d3a" d="M 21.925781 7.996094 C 22.371094 7.953125 22.816406 7.917969 23.253906 7.914062 C 23.671875 7.90625 24.175781 7.9375 24.398438 8.355469 C 24.488281 8.519531 24.523438 8.710938 24.554688 8.898438 C 24.566406 8.988281 24.578125 9.089844 24.535156 9.171875 C 24.46875 9.296875 24.304688 9.328125 24.160156 9.34375 C 23.746094 9.382812 23.335938 9.421875 22.921875 9.457031 C 22.675781 9.480469 22.433594 9.519531 22.1875 9.515625 C 22.078125 9.515625 21.992188 9.484375 21.886719 9.46875 C 21.761719 9.449219 21.625 9.457031 21.496094 9.449219 C 21.296875 9.441406 21.074219 9.417969 20.941406 9.269531 C 20.867188 9.179688 20.835938 9.058594 20.820312 8.945312 C 20.773438 8.585938 20.972656 8.328125 21.269531 8.148438 C 21.488281 8.019531 21.683594 8.019531 21.925781 7.996094 " fill-opacity="1" fill-rule="nonzero"/><path fill="#f5876d" d="M 23.488281 8.042969 C 23.460938 8.207031 23.414062 8.382812 23.375 8.589844 C 23.28125 9.132812 23.539062 9.703125 23.398438 10.238281 C 23.257812 10.773438 22.613281 10.921875 22.25 10.5 C 21.824219 10.003906 22.183594 8.910156 22.304688 8.355469 C 22.378906 8.003906 22.523438 7.375 22.878906 7.1875 C 23.375 6.921875 23.550781 7.664062 23.488281 8.042969 " fill-opacity="1" fill-rule="nonzero"/><path fill="#f5876d" d="M 23.546875 6.917969 C 23.480469 6.765625 23.402344 6.617188 23.285156 6.523438 C 23.074219 6.359375 22.773438 6.285156 22.53125 6.414062 C 21.964844 6.714844 21.96875 8.101562 22.210938 8.605469 C 22.242188 8.671875 22.28125 8.734375 22.34375 8.769531 C 22.421875 8.808594 22.519531 8.792969 22.601562 8.765625 C 22.9375 8.664062 23.140625 8.460938 23.382812 8.226562 C 23.574219 8.042969 23.824219 7.871094 23.796875 7.566406 C 23.789062 7.46875 23.746094 7.378906 23.703125 7.289062 C 23.648438 7.179688 23.601562 7.046875 23.546875 6.917969 " fill-opacity="1" fill-rule="nonzero"/><path fill="#3a212a" d="M 23.992188 7.402344 C 24.023438 7.300781 24.117188 7.226562 24.183594 7.144531 C 24.28125 7.019531 24.3125 6.773438 24.121094 6.71875 C 24.050781 6.699219 23.960938 6.707031 23.929688 6.640625 C 23.917969 6.613281 23.921875 6.582031 23.925781 6.554688 C 23.9375 6.375 23.878906 6.191406 23.765625 6.050781 C 23.671875 5.9375 23.5625 5.851562 23.5 5.714844 C 23.449219 5.597656 23.417969 5.449219 23.273438 5.414062 C 23.019531 5.351562 22.941406 5.730469 22.71875 5.714844 C 22.582031 5.707031 22.535156 5.507812 22.390625 5.480469 C 22.125 5.433594 21.679688 5.882812 21.738281 6.148438 C 21.765625 6.269531 21.851562 6.402344 21.898438 6.515625 C 21.9375 6.601562 21.972656 6.738281 22.050781 6.796875 C 22.316406 7 22.261719 6.765625 22.484375 6.613281 C 22.5 6.601562 22.515625 6.59375 22.53125 6.59375 C 22.558594 6.597656 22.578125 6.628906 22.589844 6.65625 C 22.6875 6.851562 22.921875 6.957031 23.128906 6.898438 C 23.304688 6.847656 23.421875 6.765625 23.476562 6.972656 C 23.523438 7.144531 23.433594 7.457031 23.382812 7.621094 C 23.414062 7.644531 23.457031 7.625 23.488281 7.597656 C 23.519531 7.570312 23.542969 7.535156 23.582031 7.519531 C 23.65625 7.488281 23.738281 7.582031 23.730469 7.667969 C 23.722656 7.789062 23.609375 7.875 23.546875 7.96875 C 23.46875 8.082031 23.417969 8.210938 23.394531 8.34375 C 23.386719 8.390625 23.382812 8.445312 23.402344 8.492188 C 23.402344 8.492188 23.523438 8.320312 23.53125 8.300781 C 23.582031 8.203125 23.617188 8.117188 23.699219 8.046875 C 23.785156 7.972656 23.914062 7.929688 23.96875 7.828125 C 24.03125 7.710938 23.957031 7.5625 23.984375 7.429688 C 23.984375 7.421875 23.988281 7.410156 23.992188 7.402344 " fill-opacity="1" fill-rule="nonzero"/><path fill="#ffffff" d="M 22.214844 8.109375 C 22.257812 8.238281 22.375 8.335938 22.507812 8.351562 C 22.640625 8.371094 22.78125 8.304688 22.851562 8.191406 C 22.652344 8.148438 22.453125 8.117188 22.25 8.109375 L 22.214844 8.109375 " fill-opacity="1" fill-rule="nonzero"/><path fill="#3a212a" d="M 22.304688 7.453125 C 22.234375 7.390625 22.144531 7.351562 22.050781 7.347656 C 21.996094 7.34375 21.992188 7.253906 22.046875 7.261719 C 22.167969 7.269531 22.273438 7.316406 22.359375 7.394531 C 22.394531 7.429688 22.34375 7.484375 22.304688 7.453125 " fill-opacity="1" fill-rule="nonzero"/><path fill="#3a212a" d="M 22.78125 7.472656 C 22.898438 7.449219 23.011719 7.460938 23.117188 7.511719 C 23.167969 7.539062 23.125 7.617188 23.078125 7.589844 C 22.992188 7.546875 22.898438 7.53125 22.804688 7.546875 C 22.757812 7.558594 22.730469 7.484375 22.78125 7.472656 " fill-opacity="1" fill-rule="nonzero"/><path fill="#ef5b56" d="M 23.21875 8.039062 C 23.269531 7.953125 23.253906 7.730469 23.109375 7.742188 C 23.023438 7.753906 22.9375 7.867188 22.933594 7.953125 C 22.929688 8.054688 23.039062 8.152344 23.136719 8.113281 C 23.171875 8.101562 23.199219 8.074219 23.21875 8.039062 " fill-opacity="1" fill-rule="nonzero"/><path fill="#f5876d" d="M 24.320312 20.191406 C 24.28125 20.320312 24.230469 20.453125 24.191406 20.617188 C 24.074219 21.097656 24.253906 21.636719 24.203125 22.125 C 24.15625 22.617188 23.835938 23.097656 23.628906 23.539062 C 23.476562 23.859375 23.328125 24.1875 23.160156 24.5 C 23.082031 24.636719 22.746094 25.019531 22.753906 25.136719 C 22.742188 24.859375 22.773438 24.582031 22.792969 24.304688 C 22.875 23.3125 22.863281 22.320312 22.855469 21.324219 C 22.847656 20.496094 22.773438 19.546875 23.511719 18.96875 C 23.613281 18.890625 23.738281 18.828125 23.867188 18.835938 C 24.15625 18.851562 24.320312 19.175781 24.375 19.460938 C 24.433594 19.769531 24.386719 19.972656 24.320312 20.191406 " fill-opacity="1" fill-rule="nonzero"/><path fill="#f5876d" d="M 23.183594 25.324219 C 23.175781 25.355469 23.167969 25.386719 23.15625 25.417969 C 23.152344 25.433594 23.144531 25.449219 23.132812 25.460938 C 23.113281 25.480469 23.082031 25.480469 23.050781 25.476562 C 22.890625 25.46875 22.726562 25.460938 22.578125 25.398438 C 22.566406 25.394531 22.550781 25.386719 22.542969 25.375 C 22.53125 25.367188 22.527344 25.351562 22.527344 25.335938 C 22.511719 25.257812 22.546875 25.191406 22.574219 25.121094 C 22.644531 24.921875 22.710938 24.492188 22.886719 24.363281 C 22.984375 24.285156 23.125 24.230469 23.195312 24.371094 C 23.265625 24.503906 23.257812 24.683594 23.253906 24.832031 C 23.246094 25 23.230469 25.164062 23.183594 25.324219 " fill-opacity="1" fill-rule="nonzero"/><path fill="#de7461" d="M 21.75 20.648438 C 21.859375 20.96875 21.925781 21.308594 21.984375 21.632812 C 22.050781 22.011719 22.121094 22.390625 22.171875 22.773438 C 22.191406 22.921875 22.351562 23.363281 22.304688 23.5 C 22.105469 24.085938 21.664062 23.195312 21.558594 23.019531 C 21.269531 22.527344 20.996094 22.023438 20.742188 21.511719 C 20.472656 20.964844 20.25 20.261719 20.515625 19.695312 C 20.75 19.199219 21.25 19.769531 21.4375 20.035156 C 21.574219 20.222656 21.671875 20.433594 21.75 20.648438 " fill-opacity="1" fill-rule="nonzero"/><path fill="#de7461" d="M 21.699219 24.316406 C 21.699219 24.320312 21.703125 24.320312 21.703125 24.324219 C 21.710938 24.332031 21.71875 24.335938 21.730469 24.339844 C 21.871094 24.390625 22.011719 24.445312 22.152344 24.496094 C 22.167969 24.503906 22.183594 24.507812 22.199219 24.503906 C 22.210938 24.5 22.222656 24.484375 22.226562 24.472656 C 22.3125 24.328125 22.328125 24.183594 22.34375 24.023438 C 22.359375 23.886719 22.378906 23.714844 22.308594 23.59375 C 22.277344 23.539062 22.238281 23.484375 22.1875 23.453125 C 22.042969 23.367188 21.929688 23.570312 21.875 23.671875 C 21.777344 23.859375 21.691406 24.074219 21.695312 24.289062 C 21.695312 24.296875 21.695312 24.308594 21.699219 24.316406 " fill-opacity="1" fill-rule="nonzero"/><path fill="#522d3a" d="M 23.667969 14.179688 C 23.84375 14.21875 23.953125 14.328125 24.042969 14.605469 C 24.421875 15.796875 24.570312 17.046875 24.640625 18.289062 C 24.679688 19.019531 24.742188 19.808594 24.675781 20.539062 C 24.578125 21.648438 24.203125 22.796875 23.96875 23.886719 C 23.925781 24.074219 23.882812 24.265625 23.78125 24.429688 C 23.757812 24.46875 23.726562 24.507812 23.679688 24.523438 C 23.640625 24.535156 23.601562 24.527344 23.5625 24.515625 C 23.382812 24.476562 23.203125 24.4375 23.027344 24.398438 C 22.941406 24.378906 22.851562 24.355469 22.800781 24.285156 C 22.765625 24.230469 22.761719 24.160156 22.757812 24.097656 C 22.707031 23.03125 22.714844 21.945312 22.601562 20.882812 C 22.550781 20.410156 22.492188 19.953125 22.484375 19.46875 C 22.480469 19.09375 22.328125 18.207031 22.503906 17.886719 C 22.285156 18.289062 22.195312 18.75 22.152344 19.203125 C 22.066406 20.019531 22.078125 20.839844 22.15625 21.652344 C 22.214844 22.222656 22.355469 22.773438 22.476562 23.332031 C 22.484375 23.367188 22.496094 23.40625 22.484375 23.441406 C 22.476562 23.480469 22.453125 23.515625 22.421875 23.542969 C 22.292969 23.679688 22.058594 23.847656 21.855469 23.785156 C 21.695312 23.734375 21.566406 23.609375 21.476562 23.46875 C 21.382812 23.328125 21.324219 23.171875 21.257812 23.015625 C 20.914062 22.210938 20.472656 21.457031 20.125 20.648438 C 19.71875 19.695312 20.105469 18.234375 20.253906 17.234375 C 20.367188 16.476562 20.40625 15.578125 20.847656 14.917969 C 21.082031 14.574219 21.5625 14.472656 21.929688 14.378906 C 22.382812 14.265625 22.847656 14.195312 23.3125 14.167969 C 23.457031 14.160156 23.570312 14.160156 23.667969 14.179688 " fill-opacity="1" fill-rule="nonzero"/><path fill="#f5876d" d="M 18.042969 6.617188 C 18.011719 6.410156 18.058594 6.207031 18.347656 5.980469 C 18.386719 5.953125 18.429688 5.921875 18.476562 5.917969 C 18.554688 5.910156 18.625 5.964844 18.683594 6.015625 C 19.160156 6.421875 19.234375 6.535156 18.996094 7.164062 C 18.859375 7.527344 18.773438 7.910156 18.695312 8.292969 C 18.636719 8.5625 18.585938 8.847656 18.667969 9.109375 C 18.902344 9.84375 21.472656 9.699219 21.472656 9.695312 C 21.511719 10.023438 21.484375 10.359375 21.394531 10.675781 C 21.351562 10.816406 21.289062 10.964844 21.164062 11.035156 C 21.09375 11.074219 21.007812 11.082031 20.925781 11.089844 C 19.613281 11.203125 17.433594 10.8125 17.851562 9.015625 C 17.960938 8.535156 18.074219 8.054688 18.183594 7.578125 C 18.273438 7.199219 18.082031 6.90625 18.042969 6.617188 " fill-opacity="1" fill-rule="nonzero"/><path fill="#b1bcdd" d="M 24.558594 9.332031 C 24.710938 9.363281 24.851562 9.398438 24.972656 9.425781 C 25.121094 9.460938 25.269531 9.5 25.394531 9.589844 C 25.554688 9.703125 25.65625 9.886719 25.75 10.0625 C 26.039062 10.613281 26.308594 11.179688 26.550781 11.757812 C 26.601562 11.875 26.648438 12.011719 26.582031 12.121094 C 26.539062 12.191406 26.457031 12.230469 26.382812 12.261719 C 25.96875 12.4375 25.46875 12.578125 25.117188 12.871094 C 24.730469 13.195312 24.796875 13.742188 24.765625 14.21875 C 24.726562 14.8125 24.71875 15.40625 24.738281 16 C 24.742188 16.105469 24.742188 16.222656 24.679688 16.308594 C 24.648438 16.351562 24.597656 16.382812 24.550781 16.414062 C 24.28125 16.585938 24.167969 16.679688 23.855469 16.65625 C 23.515625 16.636719 23.175781 16.585938 22.839844 16.550781 C 22.195312 16.484375 21.527344 16.351562 20.878906 16.34375 C 20.710938 16.328125 20.507812 16.285156 20.453125 16.121094 C 20.433594 16.0625 20.441406 16 20.445312 15.9375 C 20.582031 14.535156 20.664062 13.195312 20.539062 11.785156 C 20.535156 11.75 20.53125 11.710938 20.515625 11.675781 C 20.472656 11.601562 20.382812 11.578125 20.300781 11.5625 C 19.964844 11.496094 19.628906 11.429688 19.292969 11.363281 C 18.945312 11.292969 19.195312 9.734375 19.226562 9.410156 C 19.234375 9.34375 19.242188 9.273438 19.292969 9.226562 C 19.320312 9.195312 19.363281 9.183594 19.40625 9.171875 C 19.976562 9 20.574219 8.917969 21.167969 8.925781 C 21.371094 8.929688 21.8125 8.882812 21.988281 8.980469 C 22.214844 9.113281 22.082031 9.269531 22.152344 9.488281 C 22.222656 9.71875 22.492188 9.761719 22.703125 9.75 C 22.949219 9.738281 23.054688 9.535156 23.230469 9.40625 C 23.566406 9.167969 24.105469 9.234375 24.558594 9.332031 " fill-opacity="1" fill-rule="nonzero"/><path fill="#ffffff" d="M 20.894531 11.984375 C 20.882812 11.6875 20.875 11.390625 20.863281 11.09375 C 20.859375 10.980469 20.855469 10.859375 20.914062 10.761719 C 21.011719 10.601562 21.230469 10.578125 21.417969 10.574219 C 22.414062 10.558594 23.410156 10.65625 24.382812 10.871094 C 24.464844 10.890625 24.554688 10.917969 24.59375 10.996094 C 24.613281 11.042969 24.609375 11.097656 24.601562 11.148438 C 24.523438 11.855469 24.707031 13.496094 23.730469 13.597656 C 23.4375 13.628906 23.144531 13.546875 22.851562 13.515625 C 22.324219 13.464844 21.789062 13.597656 21.257812 13.539062 C 21.15625 13.527344 21.042969 13.503906 20.980469 13.421875 C 20.839844 13.230469 20.921875 12.714844 20.914062 12.5 C 20.910156 12.328125 20.902344 12.15625 20.894531 11.984375 " fill-opacity="1" fill-rule="nonzero"/><path fill="#522d3a" d="M 22.277344 11.726562 C 22.28125 11.78125 22.269531 11.878906 22.195312 11.890625 C 22.164062 11.894531 22.128906 11.882812 22.101562 11.867188 C 21.894531 11.746094 21.683594 11.328125 21.804688 11.101562 C 21.835938 11.046875 21.886719 10.996094 21.953125 10.992188 C 22.074219 10.976562 22.160156 11.113281 22.195312 11.234375 C 22.246094 11.394531 22.273438 11.558594 22.277344 11.726562 " fill-opacity="1" fill-rule="nonzero"/><path fill="#f5876d" d="M 21.550781 10.824219 C 21.671875 11.09375 21.828125 11.371094 22.085938 11.515625 C 22.082031 10.792969 22.070312 10.066406 22.046875 9.339844 C 22.039062 9.050781 21.992188 8.703125 21.734375 8.578125 C 21.613281 8.519531 21.46875 8.527344 21.335938 8.554688 C 21.238281 8.570312 21.140625 8.601562 21.066406 8.671875 C 20.726562 8.988281 21.386719 10.464844 21.550781 10.824219 " fill-opacity="1" fill-rule="nonzero"/><path fill="#522d3a" d="M 23.4375 11.644531 C 23.453125 11.660156 23.46875 11.667969 23.488281 11.667969 C 23.511719 11.664062 23.53125 11.636719 23.542969 11.617188 C 23.660156 11.410156 23.714844 11.179688 23.679688 10.945312 C 23.675781 10.902344 23.664062 10.855469 23.636719 10.824219 C 23.585938 10.769531 23.496094 10.78125 23.433594 10.824219 C 23.195312 10.984375 23.320312 11.367188 23.410156 11.597656 C 23.417969 11.613281 23.425781 11.632812 23.4375 11.644531 " fill-opacity="1" fill-rule="nonzero"/><path fill="#f5876d" d="M 23.5 9.621094 C 23.542969 9.296875 23.621094 8.933594 23.898438 8.769531 C 24.050781 8.675781 24.273438 8.679688 24.378906 8.824219 C 24.464844 8.941406 24.441406 9.105469 24.410156 9.25 C 24.253906 9.953125 23.867188 10.617188 23.566406 11.269531 C 23.558594 11.285156 23.554688 11.292969 23.539062 11.300781 C 23.335938 11.117188 23.394531 10.699219 23.410156 10.453125 C 23.425781 10.175781 23.464844 9.898438 23.5 9.621094 " fill-opacity="1" fill-rule="nonzero"/><g clip-path="url(#6223716574)"><path fill="#fcd07e" d="M 23.078125 3.191406 C 22.902344 2.902344 22.539062 2.917969 22.257812 3 C 22.144531 3.03125 22.039062 3.085938 21.941406 3.148438 C 21.726562 3.285156 21.527344 3.453125 21.417969 3.683594 C 21.378906 3.765625 21.351562 3.851562 21.328125 3.9375 C 21.273438 4.144531 21.238281 4.355469 21.257812 4.570312 C 21.253906 4.527344 21.300781 4.457031 21.320312 4.421875 C 21.347656 4.371094 21.382812 4.320312 21.417969 4.269531 C 21.492188 4.171875 21.578125 4.078125 21.667969 3.996094 C 21.796875 3.878906 21.949219 3.78125 22.113281 3.726562 C 22.285156 3.667969 22.46875 3.644531 22.652344 3.648438 C 22.832031 3.652344 23.011719 3.644531 23.1875 3.675781 C 23.1875 3.511719 23.164062 3.34375 23.082031 3.203125 C 23.082031 3.199219 23.078125 3.195312 23.078125 3.191406 " fill-opacity="1" fill-rule="nonzero"/></g><g clip-path="url(#921a5a4e8a)"><path fill="#e7e09f" d="M 26.542969 2.949219 C 26.363281 3.136719 26.1875 3.328125 26.007812 3.515625 C 25.9375 3.59375 25.863281 3.675781 25.847656 3.777344 C 25.835938 3.867188 25.871094 3.957031 25.90625 4.039062 C 26.136719 4.574219 26.367188 5.113281 26.597656 5.652344 C 26.609375 5.671875 27.230469 5.234375 27.273438 5.183594 C 27.503906 4.910156 27.457031 4.976562 27.367188 4.65625 C 27.199219 4.078125 26.804688 3.488281 26.542969 2.949219 " fill-opacity="1" fill-rule="nonzero"/></g><path fill="#94a4c9" d="M 4.613281 13.480469 C 4.609375 13.996094 4.742188 14.460938 5.136719 14.679688 C 5.5625 14.914062 6.019531 15.109375 6.503906 15.136719 C 6.988281 15.160156 7.5 14.988281 7.796875 14.605469 C 8.097656 14.214844 8.132812 13.6875 8.15625 13.191406 C 8.179688 12.714844 8.3125 12.097656 8.210938 11.628906 C 8.125 11.230469 7.957031 10.726562 7.796875 10.34375 C 7.117188 8.707031 5.335938 10.878906 4.992188 11.726562 C 4.828125 12.132812 4.617188 12.84375 4.613281 13.480469 " fill-opacity="1" fill-rule="nonzero"/><path fill="#c4313e" d="M 17.605469 18.957031 C 17.582031 19.089844 17.542969 19.238281 17.433594 19.3125 C 17.347656 19.367188 17.242188 19.371094 17.144531 19.367188 C 16.546875 19.355469 15.949219 19.253906 15.378906 19.0625 C 15.226562 19.011719 15.0625 18.945312 14.980469 18.808594 C 14.921875 18.710938 14.90625 18.597656 14.898438 18.488281 C 14.875 18.222656 14.863281 17.953125 14.863281 17.6875 C 14.863281 17.261719 14.917969 16.785156 15.238281 16.503906 C 15.511719 16.265625 15.910156 16.242188 16.269531 16.273438 C 16.582031 16.300781 16.890625 16.367188 17.191406 16.464844 C 18.257812 16.8125 17.765625 18.109375 17.605469 18.957031 " fill-opacity="1" fill-rule="nonzero"/><path fill="#fcd07e" d="M 18.058594 15.65625 C 18.394531 15.257812 18.273438 14.636719 18 14.191406 C 17.527344 13.410156 16.640625 12.902344 15.734375 12.894531 C 15.460938 12.890625 15.183594 12.933594 14.941406 13.0625 C 14.699219 13.1875 14.5 13.410156 14.4375 13.679688 C 14.378906 13.945312 14.460938 14.226562 14.609375 14.453125 C 14.757812 14.679688 14.964844 14.859375 15.179688 15.019531 C 15.871094 15.539062 17.289062 16.574219 18.058594 15.65625 " fill-opacity="1" fill-rule="nonzero"/><path fill="#3a212a" d="M 15.253906 13.984375 C 15.082031 14.210938 14.929688 14.515625 14.894531 14.804688 C 14.851562 15.125 15.007812 15.421875 14.855469 15.734375 C 14.808594 15.832031 14.738281 15.921875 14.714844 16.03125 C 14.683594 16.179688 14.75 16.332031 14.855469 16.441406 C 14.957031 16.546875 15.097656 16.609375 15.238281 16.660156 C 15.355469 16.703125 15.484375 16.738281 15.566406 16.832031 C 15.648438 16.925781 15.671875 17.058594 15.699219 17.179688 C 15.742188 17.375 15.808594 17.566406 15.941406 17.714844 C 16.148438 17.949219 16.492188 17.929688 16.777344 17.914062 C 17.160156 17.894531 17.515625 17.570312 17.53125 17.183594 C 17.542969 16.964844 17.460938 16.726562 17.582031 16.546875 C 17.628906 16.476562 17.703125 16.425781 17.746094 16.351562 C 17.8125 16.238281 17.785156 16.09375 17.722656 15.976562 C 17.660156 15.863281 17.570312 15.765625 17.496094 15.660156 C 17.292969 15.355469 17.410156 15.078125 17.300781 14.777344 C 17.261719 14.675781 17.1875 14.597656 17.113281 14.523438 C 16.824219 14.246094 16.492188 14.007812 16.140625 13.820312 C 16.027344 13.761719 15.914062 13.707031 15.789062 13.699219 C 15.597656 13.6875 15.414062 13.792969 15.289062 13.941406 C 15.277344 13.953125 15.265625 13.96875 15.253906 13.984375 " fill-opacity="1" fill-rule="nonzero"/><path fill="#3a212a" d="M 6.8125 7.242188 C 6.820312 5.382812 8.972656 5.527344 10.183594 6.195312 C 10.945312 6.613281 11.542969 7.316406 12.34375 7.652344 C 13.113281 7.976562 14.027344 7.945312 14.703125 8.433594 C 14.777344 8.488281 14.847656 8.550781 14.882812 8.636719 C 14.933594 8.761719 14.886719 8.90625 14.8125 9.019531 C 14.65625 9.261719 14.386719 9.402344 14.152344 9.574219 C 13.921875 9.746094 13.707031 10.007812 13.746094 10.296875 C 13.757812 10.410156 13.816406 10.519531 13.804688 10.632812 C 13.792969 10.804688 13.640625 10.929688 13.496094 11.019531 C 11.960938 11.964844 9.75 11.300781 8.574219 10.082031 C 7.789062 9.847656 7.3125 9.09375 7.015625 8.335938 C 6.890625 8.015625 6.808594 7.625 6.8125 7.242188 " fill-opacity="1" fill-rule="nonzero"/><path fill="#f5876d" d="M 15.777344 23.40625 C 15.742188 23.589844 15.707031 23.773438 15.671875 23.960938 C 15.640625 24.144531 15.65625 24.292969 15.742188 24.460938 C 15.765625 24.5 15.800781 24.546875 15.84375 24.539062 C 15.867188 24.535156 15.886719 24.515625 15.902344 24.496094 C 16.003906 24.371094 16.039062 24.210938 16.066406 24.058594 C 16.101562 23.863281 16.144531 23.671875 16.191406 23.480469 C 16.253906 23.242188 16.296875 22.992188 16.363281 22.753906 C 16.636719 21.742188 16.871094 20.71875 16.65625 19.703125 C 16.613281 19.492188 16.515625 19.25 16.308594 19.214844 C 16.15625 19.191406 16.007812 19.296875 15.9375 19.433594 C 15.863281 19.570312 15.855469 19.730469 15.847656 19.886719 C 15.8125 20.773438 16.007812 21.65625 15.914062 22.539062 C 15.882812 22.828125 15.832031 23.117188 15.777344 23.40625 " fill-opacity="1" fill-rule="nonzero"/><path fill="#f5876d" d="M 14.449219 21.40625 C 14.578125 21.683594 14.75 21.9375 14.914062 22.195312 C 15.074219 22.457031 15.1875 22.75 15.371094 22.992188 C 15.414062 23.050781 15.460938 23.105469 15.515625 23.148438 C 15.570312 23.109375 15.574219 23.03125 15.570312 22.960938 C 15.554688 22.746094 15.5 22.550781 15.449219 22.34375 C 15.40625 22.171875 15.367188 22 15.335938 21.828125 C 15.308594 21.664062 15.261719 21.503906 15.234375 21.339844 C 15.15625 20.796875 15.359375 20.21875 15.226562 19.691406 C 14.707031 19.898438 14.171875 20.507812 14.335938 21.101562 C 14.363281 21.207031 14.402344 21.308594 14.449219 21.40625 " fill-opacity="1" fill-rule="nonzero"/><path fill="#f5876d" d="M 6.886719 19.324219 C 6.949219 19.996094 6.722656 20.574219 6.691406 21.257812 C 6.667969 21.75 6.910156 22.273438 7.050781 22.738281 C 7.15625 23.078125 7.25 23.425781 7.375 23.761719 C 7.429688 23.910156 7.703125 24.335938 7.683594 24.453125 C 7.734375 24.179688 7.746094 23.898438 7.761719 23.625 C 7.859375 22.164062 8.152344 20.730469 8.355469 19.285156 C 8.453125 18.578125 8.53125 17.867188 8.554688 17.15625 C 8.570312 16.710938 8.566406 15.980469 8.09375 15.757812 C 7.804688 15.617188 7.441406 15.742188 7.21875 15.976562 C 6.996094 16.207031 6.890625 16.527344 6.820312 16.84375 C 6.648438 17.628906 6.726562 18.355469 6.859375 19.132812 C 6.871094 19.199219 6.878906 19.261719 6.886719 19.324219 " fill-opacity="1" fill-rule="nonzero"/><path fill="#f5876d" d="M 7.394531 24.726562 C 7.40625 24.808594 7.417969 24.894531 7.449219 24.972656 C 7.515625 25.121094 7.660156 25.222656 7.8125 25.273438 C 7.886719 25.296875 7.964844 25.3125 8.046875 25.320312 C 8.085938 25.324219 8.125 25.328125 8.167969 25.328125 C 8.199219 25.332031 8.242188 25.339844 8.273438 25.335938 C 8.300781 25.332031 8.320312 25.3125 8.332031 25.289062 C 8.347656 25.265625 8.351562 25.238281 8.347656 25.210938 C 8.34375 25.144531 8.3125 25.085938 8.285156 25.027344 C 8.253906 24.960938 8.222656 24.898438 8.195312 24.835938 C 8.136719 24.707031 8.078125 24.578125 8.019531 24.453125 C 7.929688 24.261719 7.824219 23.839844 7.640625 23.726562 C 7.089844 23.386719 7.367188 24.476562 7.394531 24.726562 " fill-opacity="1" fill-rule="nonzero"/><path fill="#de7461" d="M 9.929688 19.75 C 9.824219 20.070312 9.765625 20.410156 9.710938 20.734375 C 9.652344 21.117188 9.589844 21.496094 9.546875 21.878906 C 9.527344 22.027344 9.375 22.472656 9.425781 22.609375 C 9.636719 23.191406 10.0625 22.292969 10.160156 22.117188 C 10.441406 21.617188 10.703125 21.105469 10.949219 20.589844 C 11.210938 20.039062 11.417969 19.332031 11.144531 18.769531 C 10.902344 18.28125 10.410156 18.863281 10.226562 19.128906 C 10.097656 19.320312 10 19.53125 9.929688 19.75 " fill-opacity="1" fill-rule="nonzero"/><path fill="#de7461" d="M 10.128906 23.390625 C 10.160156 23.46875 10.195312 23.550781 10.203125 23.632812 C 10.21875 23.796875 10.144531 23.957031 10.035156 24.074219 C 9.949219 24.167969 9.925781 24.179688 9.890625 24.300781 C 9.875 24.347656 9.832031 24.394531 9.785156 24.382812 C 9.765625 24.378906 9.753906 24.363281 9.738281 24.351562 C 9.492188 24.101562 9.480469 23.796875 9.453125 23.464844 C 9.4375 23.253906 9.320312 22.835938 9.425781 22.644531 C 9.738281 22.074219 10.03125 23.160156 10.128906 23.390625 " fill-opacity="1" fill-rule="nonzero"/><path fill="#f5876d" d="M 9.558594 9.96875 C 9.484375 9.84375 9.402344 9.726562 9.300781 9.621094 C 9.222656 9.546875 9.140625 9.472656 9.042969 9.4375 C 8.941406 9.402344 8.816406 9.414062 8.746094 9.496094 C 8.644531 9.617188 8.699219 9.824219 8.695312 9.96875 C 8.691406 10.109375 8.65625 10.242188 8.671875 10.382812 C 8.703125 10.691406 8.839844 10.988281 8.984375 11.257812 C 9.527344 12.28125 10.273438 13.34375 11.0625 14.191406 C 11.253906 14.398438 11.476562 14.59375 11.707031 14.757812 C 11.804688 14.828125 11.949219 14.945312 12.078125 14.953125 C 12.304688 14.964844 12.167969 14.757812 12.074219 14.652344 C 11.640625 14.15625 11.238281 13.648438 10.917969 13.0625 C 10.546875 12.382812 10.285156 11.621094 9.980469 10.921875 C 9.84375 10.609375 9.734375 10.265625 9.558594 9.96875 " fill-opacity="1" fill-rule="nonzero"/><path fill="#3a212a" d="M 9.085938 6.558594 C 9.179688 6.542969 9.273438 6.570312 9.355469 6.613281 C 9.601562 6.742188 9.703125 7.015625 9.707031 7.285156 C 9.707031 7.742188 9.316406 8.207031 8.859375 8.253906 C 8.804688 8.257812 8.746094 8.257812 8.691406 8.25 C 8.609375 8.242188 8.527344 8.214844 8.476562 8.152344 C 8.402344 8.0625 8.414062 7.925781 8.453125 7.8125 C 8.578125 7.441406 8.585938 6.628906 9.085938 6.558594 " fill-opacity="1" fill-rule="nonzero"/><path fill="#f5876d" d="M 6.554688 10.121094 C 6.613281 10.160156 6.675781 10.1875 6.738281 10.21875 C 6.894531 10.296875 7.015625 10.378906 7.140625 10.503906 C 7.429688 10.789062 7.761719 11.046875 7.984375 11.394531 C 8.210938 11.75 8.597656 12.1875 9.070312 12.011719 C 9.472656 11.859375 9.648438 11.417969 9.675781 11.011719 C 9.710938 10.484375 9.417969 10.035156 9.105469 9.632812 C 9.019531 9.527344 8.941406 9.417969 8.839844 9.328125 C 8.738281 9.234375 8.640625 9.179688 8.589844 9.039062 C 8.578125 9.007812 8.570312 8.976562 8.566406 8.941406 C 8.550781 8.859375 8.554688 8.773438 8.566406 8.683594 C 8.597656 8.464844 8.6875 8.226562 8.738281 8.011719 C 8.753906 7.9375 8.765625 7.867188 8.769531 7.800781 C 8.789062 7.488281 8.5 6.957031 8.242188 7.429688 C 7.984375 7.894531 7.8125 8.449219 7.46875 8.859375 C 7.363281 8.984375 7.234375 9.117188 7.097656 9.203125 C 6.953125 9.289062 6.792969 9.339844 6.652344 9.429688 C 6.527344 9.511719 6.425781 9.625 6.355469 9.757812 C 6.339844 9.789062 6.324219 9.824219 6.324219 9.859375 C 6.328125 9.886719 6.339844 9.917969 6.359375 9.941406 C 6.410156 10.019531 6.476562 10.074219 6.554688 10.121094 " fill-opacity="1" fill-rule="nonzero"/><path fill="#ef5b56" d="M 8.175781 8.550781 C 8.21875 8.621094 8.269531 8.6875 8.316406 8.738281 C 8.375 8.804688 8.46875 8.886719 8.566406 8.941406 C 8.550781 8.859375 8.554688 8.773438 8.566406 8.683594 C 8.597656 8.464844 8.6875 8.226562 8.738281 8.011719 C 8.734375 8.007812 8.730469 8 8.730469 7.996094 C 8.652344 7.84375 8.546875 7.6875 8.382812 7.65625 C 8.273438 7.636719 8.160156 7.683594 8.09375 7.769531 C 7.925781 7.996094 8.023438 8.3125 8.175781 8.550781 " fill-opacity="1" fill-rule="nonzero"/><path fill="#ef5b56" d="M 9.210938 7.90625 C 9.210938 7.992188 9.257812 8.019531 9.3125 8.007812 C 9.347656 7.914062 9.378906 7.820312 9.402344 7.726562 C 9.394531 7.722656 9.390625 7.71875 9.386719 7.714844 C 9.292969 7.65625 9.207031 7.796875 9.210938 7.90625 " fill-opacity="1" fill-rule="nonzero"/><path fill="#f5876d" d="M 8.175781 8.234375 C 8.246094 8.386719 8.433594 8.710938 8.625 8.722656 C 8.691406 8.726562 8.753906 8.710938 8.8125 8.683594 C 9.019531 8.585938 9.148438 8.359375 9.246094 8.164062 C 9.253906 8.140625 9.265625 8.121094 9.273438 8.097656 C 9.289062 8.070312 9.300781 8.039062 9.3125 8.007812 C 9.339844 7.941406 9.363281 7.871094 9.382812 7.800781 C 9.386719 7.777344 9.394531 7.75 9.402344 7.726562 C 9.453125 7.527344 9.476562 7.320312 9.488281 7.109375 C 9.472656 7.351562 9.078125 7.257812 8.960938 7.203125 C 8.832031 7.144531 8.703125 7.070312 8.566406 7.078125 C 8.394531 7.085938 8.25 7.21875 8.179688 7.375 C 8.054688 7.648438 8.058594 7.964844 8.175781 8.234375 " fill-opacity="1" fill-rule="nonzero"/><path fill="#ef5b56" d="M 8.335938 7.644531 C 8.433594 7.601562 8.5 7.75 8.484375 7.855469 C 8.449219 8.089844 8.140625 7.839844 8.285156 7.683594 C 8.300781 7.664062 8.320312 7.652344 8.335938 7.644531 " fill-opacity="1" fill-rule="nonzero"/><path fill="#ef5b56" d="M 9.214844 7.984375 C 9.207031 8.054688 9.234375 8.089844 9.273438 8.097656 C 9.289062 8.070312 9.300781 8.039062 9.3125 8.007812 C 9.339844 7.941406 9.363281 7.871094 9.382812 7.800781 C 9.304688 7.78125 9.222656 7.890625 9.214844 7.984375 " fill-opacity="1" fill-rule="nonzero"/><path fill="#f6d4ec" d="M 9.570312 11.863281 C 9.75 11.25 9.65625 10.640625 9.394531 10.0625 C 9.273438 9.792969 9.09375 9.425781 8.855469 9.242188 C 8.835938 9.226562 8.707031 9.191406 8.707031 9.195312 C 8.859375 9.417969 9.0625 9.683594 8.703125 9.867188 C 8.550781 9.945312 8.375 9.941406 8.207031 9.921875 C 7.875 9.886719 7.542969 9.828125 7.253906 9.671875 C 6.972656 9.527344 6.78125 9.214844 6.449219 9.539062 C 6.371094 9.617188 6.320312 9.71875 6.273438 9.820312 C 6.042969 10.347656 6.050781 10.871094 6.386719 11.347656 C 6.683594 11.765625 7.128906 12.066406 7.246094 12.59375 C 7.3125 12.878906 7.355469 13.265625 7.605469 13.449219 C 7.792969 13.59375 8.199219 13.601562 8.402344 13.488281 C 8.578125 13.386719 8.75 13.269531 8.917969 13.148438 C 8.957031 13.117188 8.996094 13.089844 9.019531 13.046875 C 9.042969 13.007812 9.050781 12.957031 9.058594 12.910156 C 9.097656 12.65625 9.167969 12.296875 9.351562 12.109375 C 9.425781 12.03125 9.5 11.957031 9.566406 11.882812 C 9.566406 11.878906 9.570312 11.871094 9.570312 11.863281 " fill-opacity="1" fill-rule="nonzero"/><path fill="#212a4b" d="M 8.550781 7.683594 C 8.539062 7.683594 8.527344 7.6875 8.519531 7.683594 C 8.507812 7.683594 8.496094 7.671875 8.5 7.660156 C 8.5 7.652344 8.511719 7.644531 8.519531 7.640625 C 8.601562 7.597656 8.710938 7.605469 8.785156 7.664062 C 8.800781 7.675781 8.835938 7.710938 8.8125 7.734375 C 8.796875 7.75 8.757812 7.714844 8.742188 7.710938 C 8.683594 7.683594 8.613281 7.671875 8.550781 7.683594 " fill-opacity="1" fill-rule="nonzero"/><path fill="#212a4b" d="M 9.207031 7.820312 C 9.199219 7.820312 9.1875 7.824219 9.179688 7.820312 C 9.171875 7.816406 9.164062 7.808594 9.164062 7.800781 C 9.164062 7.792969 9.171875 7.789062 9.179688 7.785156 C 9.25 7.746094 9.339844 7.753906 9.402344 7.800781 C 9.414062 7.8125 9.441406 7.84375 9.425781 7.859375 C 9.410156 7.875 9.378906 7.847656 9.367188 7.839844 C 9.316406 7.816406 9.261719 7.808594 9.207031 7.820312 " fill-opacity="1" fill-rule="nonzero"/><path fill="#e4bde2" d="M 11.691406 17.824219 C 11.683594 17.792969 11.675781 17.757812 11.664062 17.730469 C 11.335938 16.6875 10.566406 15.816406 10.132812 14.8125 C 9.890625 14.253906 9.417969 13.550781 9.417969 12.933594 C 9.417969 12.574219 9.472656 12.207031 9.570312 11.863281 C 9.597656 11.777344 9.625 11.691406 9.652344 11.605469 C 9.046875 12.25 7.859375 12.101562 7.226562 11.574219 C 7.03125 11.410156 6.835938 11.1875 6.582031 11.210938 C 6.574219 11.453125 6.804688 11.851562 6.902344 12.070312 C 7.320312 12.988281 7.140625 13.992188 7.660156 14.878906 C 7.835938 15.175781 8.058594 15.441406 8.230469 15.738281 C 8.480469 16.164062 8.628906 16.644531 8.777344 17.117188 C 9.035156 17.953125 9.292969 18.796875 9.347656 19.667969 C 9.390625 20.464844 9.265625 21.265625 9.339844 22.054688 C 9.347656 22.113281 9.351562 22.167969 9.386719 22.214844 C 9.425781 22.265625 9.488281 22.289062 9.550781 22.304688 C 9.800781 22.378906 10.0625 22.417969 10.324219 22.421875 C 10.402344 22.425781 10.484375 22.421875 10.550781 22.382812 C 10.628906 22.335938 10.671875 22.253906 10.714844 22.171875 C 11.0625 21.480469 11.417969 20.78125 11.628906 20.03125 C 11.828125 19.3125 11.894531 18.539062 11.691406 17.824219 " fill-opacity="1" fill-rule="nonzero"/><path fill="#f5876d" d="M 5.117188 16.71875 C 5.242188 16.96875 5.609375 16.804688 5.832031 16.769531 C 5.984375 16.746094 6.183594 16.542969 6.191406 16.386719 C 6.207031 16.09375 5.984375 15.785156 5.933594 15.5 C 5.859375 15.078125 5.976562 14.695312 6.066406 14.28125 C 6.28125 13.300781 6.570312 12.332031 6.84375 11.363281 C 7.007812 10.78125 7.046875 10.292969 6.792969 9.71875 C 6.773438 9.671875 6.75 9.625 6.703125 9.605469 C 6.636719 9.578125 6.5625 9.621094 6.507812 9.667969 C 6.148438 9.976562 5.921875 10.414062 5.792969 10.871094 C 5.664062 11.335938 5.648438 11.804688 5.617188 12.277344 C 5.585938 12.761719 5.445312 13.234375 5.417969 13.722656 C 5.382812 14.390625 5.394531 15.054688 5.328125 15.71875 C 5.289062 16.128906 4.96875 16.429688 5.117188 16.71875 " fill-opacity="1" fill-rule="nonzero"/><path fill="#f5876d" d="M 11.902344 14.984375 C 12.164062 15.164062 12.519531 15.320312 12.835938 15.199219 C 12.878906 15.179688 13.003906 15.136719 13.003906 15.078125 C 13.003906 15.050781 12.914062 15 12.898438 14.972656 C 12.785156 14.8125 12.730469 14.558594 12.660156 14.375 C 12.648438 14.351562 12.640625 14.324219 12.621094 14.308594 C 12.59375 14.289062 12.558594 14.285156 12.527344 14.285156 C 12.292969 14.277344 12.058594 14.277344 11.820312 14.277344 C 11.703125 14.28125 11.480469 14.246094 11.414062 14.386719 C 11.328125 14.574219 11.644531 14.800781 11.765625 14.890625 C 11.8125 14.921875 11.855469 14.953125 11.902344 14.984375 " fill-opacity="1" fill-rule="nonzero"/><path fill="#f5876d" d="M 14.386719 16.292969 C 13.535156 16.347656 13.597656 15.894531 13.1875 15.164062 C 13.101562 15.007812 13.015625 14.84375 12.875 14.730469 C 12.734375 14.617188 12.519531 14.574219 12.375 14.683594 C 12.332031 14.714844 12.292969 14.769531 12.304688 14.824219 C 12.308594 14.859375 12.335938 14.890625 12.359375 14.917969 C 13.097656 15.761719 13.035156 16.582031 14.164062 16.878906 C 14.714844 17.023438 15.207031 16.765625 15.769531 16.730469 C 16.5 16.6875 17.03125 17.230469 17.671875 17.472656 C 18.128906 17.648438 18.582031 17.671875 18.925781 17.296875 C 19.164062 17.035156 19.394531 16.761719 19.652344 16.523438 C 19.738281 16.445312 19.921875 16.355469 19.976562 16.253906 C 19.996094 16.21875 20.046875 15.832031 19.953125 15.871094 C 19.832031 15.921875 19.710938 15.984375 19.589844 16.042969 C 19.554688 16.0625 19.511719 16.078125 19.472656 16.0625 C 19.4375 16.046875 19.417969 16.003906 19.382812 16 C 19.339844 15.992188 19.308594 16.035156 19.289062 16.070312 C 19.113281 16.382812 19.0625 16.777344 18.714844 16.9375 C 17.683594 17.414062 16.042969 16.421875 16.230469 15.199219 C 16.238281 15.144531 16.25 15.089844 16.238281 15.039062 C 16.222656 14.988281 16.171875 14.941406 16.121094 14.953125 C 16.09375 14.957031 16.074219 14.976562 16.054688 14.996094 C 15.816406 15.242188 15.753906 15.621094 15.523438 15.878906 C 15.363281 16.058594 15.132812 16.164062 14.898438 16.21875 C 14.734375 16.253906 14.5625 16.28125 14.386719 16.292969 " fill-opacity="1" fill-rule="nonzero"/><path fill="#e7e09f" d="M 14.089844 20.59375 C 14.179688 20.6875 14.265625 20.789062 14.355469 20.878906 C 14.667969 21.183594 15.148438 21.425781 15.519531 21.195312 C 15.722656 21.070312 15.84375 20.824219 16.070312 20.753906 C 16.269531 20.691406 16.476562 20.78125 16.675781 20.839844 C 16.976562 20.933594 17.308594 20.953125 17.597656 20.828125 C 17.886719 20.699219 18.109375 20.394531 18.074219 20.078125 C 18.015625 19.492188 17.355469 19.191406 17.191406 18.640625 C 16.984375 17.929688 16.789062 17.238281 16.703125 16.496094 C 16.6875 16.351562 16.667969 16.195312 16.570312 16.085938 C 16.214844 16.320312 15.699219 16.332031 15.378906 16.03125 C 15.328125 15.984375 15.261719 15.929688 15.203125 15.964844 C 15.164062 15.988281 15.160156 16.042969 15.15625 16.085938 C 15.105469 17.03125 14.925781 18.039062 14.207031 18.71875 C 13.886719 19.019531 13.507812 19.253906 13.175781 19.539062 C 13.097656 19.609375 13.011719 19.695312 13.023438 19.800781 C 13.042969 19.949219 13.230469 20 13.371094 20.046875 C 13.660156 20.140625 13.878906 20.363281 14.089844 20.59375 " fill-opacity="1" fill-rule="nonzero"/><path fill="#f5876d" d="M 15.625 15.492188 C 15.703125 15.546875 15.789062 15.589844 15.878906 15.613281 C 16.148438 15.691406 16.46875 15.628906 16.640625 15.390625 C 16.890625 15.046875 16.640625 14.96875 16.375 14.75 C 16.195312 14.605469 16.074219 14.394531 16.03125 14.167969 C 15.972656 13.828125 15.207031 14.511719 15.257812 14.910156 C 15.289062 15.144531 15.429688 15.359375 15.625 15.492188 " fill-opacity="1" fill-rule="nonzero"/><path fill="#ffffff" d="M 15.582031 15.058594 C 15.566406 15.0625 15.570312 15.085938 15.570312 15.117188 C 15.574219 15.160156 15.582031 15.195312 15.605469 15.230469 C 15.648438 15.300781 15.710938 15.355469 15.785156 15.386719 C 15.855469 15.414062 15.945312 15.390625 16.015625 15.363281 C 16.042969 15.355469 16.136719 15.3125 16.128906 15.273438 C 16.128906 15.257812 16.113281 15.25 16.097656 15.242188 C 15.992188 15.1875 15.882812 15.144531 15.769531 15.109375 C 15.71875 15.089844 15.664062 15.066406 15.609375 15.058594 C 15.597656 15.054688 15.589844 15.054688 15.582031 15.058594 " fill-opacity="1" fill-rule="nonzero"/><path fill="#f5876d" d="M 16.695312 15.003906 C 16.683594 14.972656 16.707031 14.929688 16.738281 14.914062 C 16.773438 14.898438 16.8125 14.902344 16.84375 14.921875 C 16.914062 14.964844 16.9375 15.0625 16.921875 15.144531 C 16.910156 15.1875 16.890625 15.230469 16.855469 15.253906 C 16.796875 15.285156 16.71875 15.261719 16.683594 15.203125 C 16.648438 15.148438 16.648438 15.074219 16.679688 15.015625 C 16.683594 15 16.691406 14.988281 16.707031 14.984375 L 16.695312 15.003906 " fill-opacity="1" fill-rule="nonzero"/><path fill="#f5876d" d="M 15.503906 14.460938 C 15.496094 14.378906 15.410156 14.28125 15.324219 14.335938 C 15.242188 14.390625 15.195312 14.558594 15.210938 14.652344 C 15.214844 14.671875 15.222656 14.6875 15.230469 14.703125 C 15.242188 14.714844 15.261719 14.722656 15.277344 14.71875 C 15.289062 14.714844 15.296875 14.707031 15.304688 14.703125 C 15.375 14.640625 15.515625 14.566406 15.503906 14.460938 " fill-opacity="1" fill-rule="nonzero"/><path fill="#ef5b56" d="M 16.449219 15.375 C 16.484375 15.363281 16.515625 15.34375 16.535156 15.3125 C 16.5625 15.265625 16.550781 15.203125 16.519531 15.160156 C 16.480469 15.101562 16.378906 15.046875 16.3125 15.082031 C 16.222656 15.128906 16.179688 15.269531 16.25 15.347656 C 16.296875 15.398438 16.390625 15.394531 16.449219 15.375 " fill-opacity="1" fill-rule="nonzero"/><path fill="#ef5b56" d="M 15.625 14.785156 C 15.617188 14.695312 15.519531 14.621094 15.429688 14.640625 C 15.328125 14.667969 15.28125 14.824219 15.339844 14.910156 C 15.378906 14.964844 15.46875 14.972656 15.523438 14.949219 C 15.582031 14.921875 15.628906 14.855469 15.625 14.785156 " fill-opacity="1" fill-rule="nonzero"/><path fill="#3a212a" d="M 15.5625 14.519531 C 15.644531 14.535156 15.757812 14.597656 15.78125 14.691406 C 15.785156 14.707031 15.761719 14.722656 15.75 14.707031 C 15.722656 14.675781 15.707031 14.640625 15.671875 14.617188 C 15.636719 14.585938 15.59375 14.570312 15.550781 14.5625 C 15.523438 14.554688 15.535156 14.515625 15.5625 14.519531 " fill-opacity="1" fill-rule="nonzero"/><path fill="#3a212a" d="M 16.425781 14.964844 C 16.386719 14.9375 16.34375 14.921875 16.296875 14.917969 C 16.257812 14.914062 16.21875 14.925781 16.179688 14.929688 C 16.164062 14.933594 16.15625 14.90625 16.171875 14.898438 C 16.253906 14.851562 16.371094 14.878906 16.445312 14.929688 C 16.46875 14.941406 16.449219 14.980469 16.425781 14.964844 " fill-opacity="1" fill-rule="nonzero"/><path fill="#ffffff" d="M 8.738281 8.480469 C 8.824219 8.496094 8.914062 8.449219 8.957031 8.371094 C 8.890625 8.367188 8.824219 8.355469 8.761719 8.339844 C 8.695312 8.324219 8.636719 8.296875 8.574219 8.28125 C 8.554688 8.378906 8.648438 8.464844 8.738281 8.480469 " fill-opacity="1" fill-rule="nonzero"/><path fill="#522d3a" d="M 7.601562 24.667969 C 7.605469 24.671875 7.613281 24.679688 7.617188 24.683594 C 7.71875 24.78125 7.851562 24.859375 7.984375 24.90625 C 8.074219 24.933594 8.074219 24.949219 8.109375 24.871094 C 8.128906 24.816406 8.121094 24.726562 8.117188 24.652344 C 8.117188 24.671875 8.15625 24.695312 8.167969 24.714844 C 8.222656 24.820312 8.253906 24.929688 8.300781 25.039062 C 8.328125 25.109375 8.355469 25.171875 8.378906 25.246094 C 8.382812 25.257812 8.386719 25.269531 8.382812 25.28125 C 8.382812 25.304688 8.359375 25.320312 8.335938 25.328125 C 8.292969 25.34375 8.261719 25.355469 8.21875 25.355469 C 8.015625 25.351562 7.804688 25.320312 7.613281 25.265625 C 7.570312 25.257812 7.527344 25.242188 7.496094 25.214844 C 7.394531 25.132812 7.417969 24.933594 7.394531 24.8125 C 7.363281 24.636719 7.324219 24.464844 7.300781 24.289062 C 7.273438 24.121094 7.261719 23.941406 7.3125 23.777344 C 7.335938 23.949219 7.367188 24.070312 7.402344 24.214844 C 7.441406 24.367188 7.492188 24.550781 7.601562 24.667969 " fill-opacity="1" fill-rule="nonzero"/><path fill="#522d3a" d="M 9.464844 23.578125 C 9.570312 23.660156 9.683594 23.738281 9.789062 23.816406 C 9.800781 23.828125 9.8125 23.835938 9.824219 23.828125 C 9.835938 23.824219 9.839844 23.816406 9.84375 23.804688 C 9.941406 23.578125 10.011719 23.328125 10.015625 23.082031 C 10.121094 23.234375 10.179688 23.414062 10.226562 23.59375 C 10.242188 23.65625 10.253906 23.71875 10.242188 23.78125 C 10.234375 23.832031 10.214844 23.878906 10.191406 23.925781 C 10.109375 24.105469 10.023438 24.292969 9.882812 24.433594 C 9.863281 24.449219 9.84375 24.464844 9.820312 24.464844 C 9.796875 24.460938 9.78125 24.445312 9.765625 24.425781 C 9.601562 24.222656 9.40625 23.851562 9.464844 23.578125 " fill-opacity="1" fill-rule="nonzero"/><path fill="#522d3a" d="M 15.167969 22.636719 C 15.210938 22.691406 15.257812 22.738281 15.316406 22.769531 C 15.34375 22.785156 15.371094 22.792969 15.398438 22.796875 C 15.566406 22.8125 15.476562 22.480469 15.460938 22.394531 C 15.480469 22.4375 15.511719 22.46875 15.527344 22.5 C 15.546875 22.539062 15.5625 22.578125 15.582031 22.617188 C 15.613281 22.695312 15.648438 22.769531 15.667969 22.851562 C 15.707031 22.996094 15.710938 23.148438 15.679688 23.292969 C 15.671875 23.316406 15.667969 23.335938 15.648438 23.351562 C 15.621094 23.371094 15.585938 23.355469 15.554688 23.34375 C 15.429688 23.273438 15.335938 23.160156 15.277344 23.03125 C 15.203125 22.875 15.144531 22.714844 15.109375 22.550781 C 15.125 22.570312 15.136719 22.589844 15.152344 22.613281 C 15.160156 22.621094 15.164062 22.628906 15.167969 22.636719 " fill-opacity="1" fill-rule="nonzero"/><path fill="#522d3a" d="M 15.707031 24.8125 C 15.710938 24.824219 15.714844 24.832031 15.722656 24.839844 C 15.738281 24.867188 15.761719 24.898438 15.792969 24.898438 C 15.820312 24.898438 15.839844 24.875 15.855469 24.851562 C 15.929688 24.75 15.996094 24.636719 16.039062 24.515625 C 16.0625 24.441406 16.070312 24.351562 16.078125 24.277344 C 16.082031 24.191406 16.078125 24.09375 16.078125 24 C 16.042969 24.078125 15.980469 24.296875 15.882812 24.316406 C 15.746094 24.34375 15.695312 24.175781 15.6875 24.074219 C 15.679688 24.003906 15.6875 23.941406 15.691406 23.863281 C 15.605469 24.171875 15.566406 24.523438 15.707031 24.8125 " fill-opacity="1" fill-rule="nonzero"/><path fill="#ef5b56" d="M 16.40625 16.226562 C 16.203125 16.886719 16.214844 17.449219 16.597656 18.039062 C 16.78125 18.320312 17.007812 18.574219 17.230469 18.824219 C 17.269531 18.867188 17.335938 18.914062 17.378906 18.875 C 17.289062 18.707031 17.199219 18.542969 17.109375 18.375 C 16.730469 17.667969 16.472656 16.964844 16.839844 16.199219 C 16.847656 16.183594 16.851562 16.167969 16.851562 16.152344 C 16.84375 16.125 16.820312 16.109375 16.792969 16.101562 C 16.742188 16.078125 16.6875 16.054688 16.632812 16.027344 C 16.601562 16.015625 16.566406 16 16.53125 16.003906 C 16.441406 16.011719 16.425781 16.15625 16.40625 16.226562 " fill-opacity="1" fill-rule="nonzero"/><path fill="#f6d4ec" d="M 8.25 23.289062 C 8.234375 23.371094 8.210938 23.457031 8.140625 23.5 C 8.085938 23.535156 8.019531 23.53125 7.953125 23.523438 C 7.511719 23.484375 7.070312 23.429688 6.628906 23.355469 C 6.570312 23.347656 6.503906 23.335938 6.464844 23.289062 C 6.417969 23.238281 6.417969 23.164062 6.417969 23.09375 C 6.445312 22.195312 6.65625 21.308594 6.652344 20.410156 C 6.648438 18.765625 6.09375 17.160156 6.183594 15.511719 C 6.226562 14.71875 6.441406 13.832031 6.953125 13.203125 C 7.234375 12.855469 7.6875 13.085938 8.097656 13.15625 C 8.589844 13.242188 9.082031 13.328125 9.5625 13.457031 C 9.589844 13.464844 9.617188 13.472656 9.628906 13.496094 C 9.644531 13.515625 9.640625 13.542969 9.636719 13.570312 C 9.472656 14.554688 9.25 15.515625 9.214844 16.511719 C 9.160156 17.972656 9.003906 19.402344 8.742188 20.839844 C 8.59375 21.660156 8.421875 22.472656 8.25 23.289062 " fill-opacity="1" fill-rule="nonzero"/><path fill="#c4313e" d="M 8.714844 9.023438 C 8.664062 8.992188 8.585938 10.648438 8.582031 10.808594 C 8.363281 10.460938 7.441406 8.820312 7.011719 9.011719 C 6.789062 9.109375 6.570312 9.210938 6.347656 9.316406 C 5.886719 9.535156 5.839844 9.988281 5.691406 10.445312 C 5.519531 10.980469 5.351562 11.515625 5.183594 12.050781 C 5.175781 12.082031 5.167969 12.113281 5.179688 12.144531 C 5.191406 12.167969 5.214844 12.183594 5.238281 12.199219 C 5.6875 12.457031 6.132812 12.71875 6.582031 12.976562 C 6.691406 12.8125 6.726562 12.570312 6.863281 12.441406 C 6.851562 12.894531 6.804688 13.347656 6.773438 13.800781 C 7.679688 13.753906 8.585938 13.710938 9.488281 13.667969 C 9.535156 13.664062 9.582031 13.660156 9.617188 13.636719 C 9.652344 13.609375 9.667969 13.5625 9.679688 13.519531 C 9.757812 13.203125 9.640625 12.832031 9.828125 12.566406 C 10.011719 12.304688 10.386719 12.089844 10.636719 11.894531 C 10.652344 11.878906 10.671875 11.863281 10.675781 11.84375 C 10.683594 11.820312 10.671875 11.796875 10.660156 11.777344 C 10.183594 10.820312 9.648438 9.613281 8.714844 9.023438 " fill-opacity="1" fill-rule="nonzero"/><path fill="#3a212a" d="M 8.761719 8.8125 C 9.101562 9.710938 9.320312 10.667969 9.386719 11.625 C 9.398438 11.757812 9.40625 11.890625 9.410156 12.023438 C 9.410156 12.09375 9.414062 12.167969 9.414062 12.238281 C 9.414062 12.304688 9.421875 12.375 9.402344 12.4375 C 9.386719 12.472656 9.335938 12.480469 9.320312 12.441406 C 9.300781 12.390625 9.304688 12.335938 9.304688 12.285156 C 9.300781 12.222656 9.300781 12.160156 9.296875 12.097656 C 9.292969 11.976562 9.285156 11.859375 9.273438 11.738281 C 9.253906 11.5 9.230469 11.261719 9.195312 11.023438 C 9.128906 10.550781 9.03125 10.082031 8.898438 9.625 C 8.824219 9.363281 8.738281 9.105469 8.644531 8.855469 C 8.617188 8.777344 8.734375 8.738281 8.761719 8.8125 " fill-opacity="1" fill-rule="nonzero"/><path fill="#3a212a" d="M 7.363281 9 C 7.675781 9.398438 7.8125 9.921875 7.957031 10.398438 C 8.121094 10.933594 8.261719 11.472656 8.378906 12.015625 C 8.414062 12.167969 8.445312 12.320312 8.472656 12.46875 C 8.503906 12.625 8.550781 12.785156 8.5625 12.941406 C 8.570312 13.019531 8.449219 13.042969 8.429688 12.96875 C 8.398438 12.839844 8.386719 12.703125 8.363281 12.574219 C 8.339844 12.4375 8.3125 12.300781 8.28125 12.164062 C 8.226562 11.894531 8.164062 11.625 8.09375 11.355469 C 7.964844 10.832031 7.816406 10.308594 7.636719 9.800781 C 7.546875 9.539062 7.433594 9.285156 7.265625 9.066406 C 7.21875 9.003906 7.316406 8.941406 7.363281 9 " fill-opacity="1" fill-rule="nonzero"/><path fill="#3a212a" d="M 8.15625 11.695312 C 8.128906 11.707031 8.097656 11.722656 8.074219 11.746094 C 7.925781 11.867188 7.941406 12.082031 7.960938 12.253906 C 7.984375 12.472656 8.011719 12.695312 8.035156 12.917969 C 8.042969 12.980469 8.058594 13.054688 8.117188 13.082031 C 8.140625 13.09375 8.167969 13.09375 8.195312 13.09375 C 8.65625 13.085938 9.117188 13.011719 9.554688 12.871094 C 9.601562 12.855469 9.640625 12.851562 9.664062 12.808594 C 9.683594 12.773438 9.691406 12.730469 9.691406 12.691406 C 9.703125 12.527344 9.707031 12.367188 9.703125 12.203125 C 9.699219 12.125 9.6875 12.042969 9.6875 11.964844 C 9.683594 11.902344 9.679688 11.839844 9.652344 11.785156 C 9.609375 11.699219 9.535156 11.660156 9.445312 11.648438 C 9.324219 11.628906 9.199219 11.625 9.078125 11.621094 C 8.832031 11.609375 8.582031 11.621094 8.339844 11.652344 C 8.277344 11.660156 8.214844 11.671875 8.15625 11.695312 " fill-opacity="1" fill-rule="nonzero"/><path fill="#ffffff" d="M 8.835938 12.101562 C 8.921875 11.941406 9.15625 11.886719 9.304688 11.992188 C 9.453125 12.09375 9.484375 12.332031 9.371094 12.476562 C 9.339844 12.519531 9.277344 12.550781 9.222656 12.5625 C 9.167969 12.578125 9.113281 12.566406 9.054688 12.558594 C 8.949219 12.539062 8.890625 12.492188 8.839844 12.390625 C 8.796875 12.304688 8.789062 12.191406 8.835938 12.101562 " fill-opacity="1" fill-rule="nonzero"/><path fill="#ffffff" d="M 7.726562 7.316406 C 7.769531 6.902344 7.855469 6.4375 8.191406 6.195312 C 8.628906 5.875 9.277344 5.933594 9.609375 6.378906 C 9.730469 6.535156 9.789062 6.746094 9.746094 6.9375 C 9.742188 6.960938 9.730469 6.984375 9.710938 6.988281 C 9.753906 6.980469 9.609375 6.710938 9.59375 6.691406 C 9.515625 6.597656 9.417969 6.542969 9.308594 6.503906 C 8.660156 6.289062 7.972656 6.699219 7.726562 7.316406 " fill-opacity="1" fill-rule="nonzero"/><path fill="#ef5b56" d="M 15.480469 15.890625 C 15.480469 15.878906 15.476562 15.871094 15.472656 15.859375 C 15.457031 15.808594 15.402344 15.78125 15.347656 15.785156 C 15.296875 15.785156 15.25 15.808594 15.203125 15.832031 C 15.1875 15.839844 15.199219 16.347656 15.191406 16.40625 C 15.167969 16.597656 15.117188 16.789062 15.074219 16.976562 C 15 17.316406 14.78125 17.613281 14.746094 17.96875 C 15.242188 17.335938 15.441406 16.730469 15.480469 15.925781 C 15.480469 15.914062 15.480469 15.902344 15.480469 15.890625 " fill-opacity="1" fill-rule="nonzero"/><path fill="#b1bcdd" d="M 7.3125 10.089844 C 7.421875 10.625 7.441406 11.183594 7.371094 11.726562 C 7.25 12.652344 7.050781 13.757812 6.402344 14.464844 C 6.335938 14.453125 6.335938 14.355469 6.359375 14.289062 C 6.515625 13.777344 6.652344 13.25 6.730469 12.714844 C 6.828125 12.039062 6.851562 11.351562 6.820312 10.667969 C 6.804688 10.328125 6.765625 9.992188 6.683594 9.664062 C 6.640625 9.480469 6.574219 9.328125 6.492188 9.15625 C 6.484375 9.144531 6.476562 9.128906 6.480469 9.113281 C 6.484375 9.085938 6.519531 9.074219 6.546875 9.066406 C 6.632812 9.050781 6.71875 9.035156 6.804688 9.015625 C 6.835938 9.007812 6.875 9.003906 6.90625 9.015625 C 6.941406 9.03125 6.960938 9.074219 6.980469 9.113281 C 7.121094 9.429688 7.246094 9.75 7.3125 10.089844 " fill-opacity="1" fill-rule="nonzero"/><path fill="#3a212a" d="M 3.617188 24.074219 C 3.628906 24.277344 3.546875 24.515625 3.371094 24.636719 C 3.195312 24.761719 2.941406 24.714844 2.898438 24.519531 C 2.871094 24.398438 2.933594 24.253906 3.019531 24.144531 C 3.113281 24.027344 3.242188 23.933594 3.378906 23.914062 C 3.515625 23.890625 3.648438 23.949219 3.703125 24.070312 C 3.71875 24.101562 3.703125 24.164062 3.671875 24.15625 L 3.617188 24.074219 " fill-opacity="1" fill-rule="nonzero"/><g clip-path="url(#34ebd47407)"><path fill="#3a212a" d="M 2.050781 24.167969 C 2.066406 24.371094 1.980469 24.609375 1.804688 24.730469 C 1.632812 24.855469 1.375 24.808594 1.335938 24.613281 C 1.308594 24.492188 1.367188 24.347656 1.453125 24.238281 C 1.546875 24.121094 1.679688 24.027344 1.8125 24.007812 C 1.949219 23.984375 2.085938 24.042969 2.136719 24.164062 C 2.152344 24.195312 2.136719 24.257812 2.105469 24.25 L 2.050781 24.167969 " fill-opacity="1" fill-rule="nonzero"/></g><g clip-path="url(#e83178b077)"><path fill="#b1bcdd" d="M 3.785156 18.777344 C 3.636719 18.789062 3.503906 18.808594 3.382812 18.832031 C 2.550781 18.996094 2.410156 19.574219 2.125 20.324219 C 1.796875 21.179688 1.507812 22.046875 1.257812 22.921875 C 1.15625 23.273438 1.136719 23.617188 1.09375 23.96875 C 1.085938 24.027344 1.078125 24.085938 1.097656 24.132812 C 1.128906 24.207031 1.210938 24.234375 1.289062 24.25 C 2.066406 24.433594 2.914062 24.417969 3.746094 24.210938 C 3.816406 24.195312 3.890625 24.171875 3.941406 24.113281 C 3.976562 24.070312 3.996094 24.019531 4.011719 23.96875 C 4.160156 23.519531 4.34375 23.09375 4.496094 22.644531 C 4.703125 22.03125 4.910156 21.414062 5.113281 20.800781 C 5.257812 20.359375 5.527344 19.792969 5.503906 19.347656 C 5.46875 18.5625 4.359375 18.730469 3.785156 18.777344 " fill-opacity="1" fill-rule="nonzero"/></g><g clip-path="url(#69f8706611)"><path fill="#94a4c9" d="M 1.953125 23.355469 C 2.375 22.507812 2.640625 21.628906 3.027344 20.769531 C 3.191406 20.398438 4.074219 19.1875 3.570312 19.019531 C 3.355469 18.949219 3.085938 19.089844 2.914062 19.292969 C 2.742188 19.5 2.644531 19.753906 2.550781 20.003906 C 2.234375 20.855469 1.914062 21.710938 1.59375 22.5625 C 1.480469 22.871094 1.363281 23.179688 1.296875 23.492188 C 1.261719 23.636719 1.25 23.808594 1.359375 23.882812 C 1.441406 23.9375 1.574219 23.898438 1.664062 23.820312 C 1.753906 23.738281 1.8125 23.628906 1.871094 23.519531 C 1.898438 23.464844 1.925781 23.410156 1.953125 23.355469 " fill-opacity="1" fill-rule="nonzero"/></g><path fill="#3a212a" d="M 5.339844 16.273438 C 5.339844 16.273438 5.339844 16.269531 5.335938 16.269531 C 5.335938 16.269531 5.335938 16.265625 5.332031 16.269531 C 5.332031 16.269531 5.328125 16.269531 5.328125 16.273438 C 5.269531 16.347656 5.230469 16.4375 5.199219 16.527344 C 5.148438 16.667969 5.101562 16.808594 5.054688 16.949219 C 4.957031 17.234375 4.859375 17.523438 4.761719 17.808594 C 4.664062 18.09375 4.566406 18.378906 4.46875 18.664062 L 4.320312 19.097656 C 4.269531 19.242188 4.207031 19.386719 4.15625 19.53125 C 4.121094 19.628906 4.269531 19.667969 4.300781 19.566406 C 4.347656 19.410156 4.386719 19.257812 4.441406 19.101562 L 4.589844 18.652344 C 4.691406 18.351562 4.792969 18.054688 4.890625 17.753906 C 4.980469 17.488281 5.070312 17.21875 5.160156 16.949219 C 5.203125 16.820312 5.246094 16.691406 5.292969 16.566406 C 5.308594 16.519531 5.328125 16.472656 5.347656 16.425781 C 5.363281 16.386719 5.359375 16.335938 5.351562 16.300781 C 5.347656 16.289062 5.347656 16.28125 5.339844 16.273438 " fill-opacity="1" fill-rule="nonzero"/><path fill="#3a212a" d="M 5.925781 16.742188 C 5.910156 16.738281 5.894531 16.742188 5.882812 16.746094 C 5.859375 16.753906 5.835938 16.765625 5.8125 16.773438 C 5.804688 16.773438 5.796875 16.777344 5.789062 16.78125 C 5.785156 16.789062 5.78125 16.796875 5.78125 16.804688 C 5.75 16.894531 5.714844 16.980469 5.683594 17.070312 C 5.597656 17.332031 5.515625 17.59375 5.429688 17.855469 C 5.253906 18.375 5.074219 18.898438 4.886719 19.414062 C 4.855469 19.507812 4.984375 19.542969 5.019531 19.449219 C 5.25 18.824219 5.472656 18.195312 5.679688 17.566406 C 5.707031 17.484375 5.964844 16.761719 5.925781 16.742188 " fill-opacity="1" fill-rule="nonzero"/></svg>