<svg xmlns="http://www.w3.org/2000/svg" xmlns:xlink="http://www.w3.org/1999/xlink" width="40" zoomAndPan="magnify" viewBox="0 0 30 30.000001" height="40" preserveAspectRatio="xMidYMid meet" version="1.0"><defs><clipPath id="85025c276d"><path d="M 0.484375 11 L 29.515625 11 L 29.515625 25 L 0.484375 25 Z M 0.484375 11 " clip-rule="nonzero"/></clipPath><clipPath id="726b69ef65"><path d="M 1 26 L 29 26 L 29 26.382812 L 1 26.382812 Z M 1 26 " clip-rule="nonzero"/></clipPath><clipPath id="b7280e797b"><path d="M 15 2.429688 L 17 2.429688 L 17 5 L 15 5 Z M 15 2.429688 " clip-rule="nonzero"/></clipPath><clipPath id="0cf77d5044"><path d="M 3 23 L 7 23 L 7 26.382812 L 3 26.382812 Z M 3 23 " clip-rule="nonzero"/></clipPath><clipPath id="63df6ffc14"><path d="M 6 24 L 10 24 L 10 26.382812 L 6 26.382812 Z M 6 24 " clip-rule="nonzero"/></clipPath><clipPath id="723cab58c4"><path d="M 6 25 L 11 25 L 11 26.382812 L 6 26.382812 Z M 6 25 " clip-rule="nonzero"/></clipPath><clipPath id="a7ab4b03af"><path d="M 15 25 L 17 25 L 17 26.382812 L 15 26.382812 Z M 15 25 " clip-rule="nonzero"/></clipPath><clipPath id="504d6ce1f0"><path d="M 15 25 L 19 25 L 19 26.382812 L 15 26.382812 Z M 15 25 " clip-rule="nonzero"/></clipPath><clipPath id="acf2ac7a4d"><path d="M 22 25 L 24 25 L 24 26.382812 L 22 26.382812 Z M 22 25 " clip-rule="nonzero"/></clipPath><clipPath id="a2c4a5ec29"><path d="M 24 25 L 28 25 L 28 26.382812 L 24 26.382812 Z M 24 25 " clip-rule="nonzero"/></clipPath></defs><g clip-path="url(#85025c276d)"><path fill="#8dc0df" d="M 0.535156 24.464844 L 0.484375 19.855469 L 1.101562 19.804688 L 1.101562 19.320312 L 1.871094 19.269531 L 1.84375 17.308594 L 2.152344 17.28125 C 2.152344 17.28125 2.050781 15.933594 2.640625 15.425781 C 2.640625 15.425781 2.566406 14.8125 2.925781 14.710938 L 2.925781 13.539062 L 3.054688 14.738281 C 3.054688 14.738281 3.335938 14.789062 3.308594 15.324219 C 3.308594 15.324219 3.796875 15.957031 3.746094 17.359375 L 4.03125 17.359375 L 4.054688 20.03125 L 9.628906 19.929688 L 9.628906 19.394531 L 14.742188 19.421875 L 14.742188 20.261719 L 15.820312 20.261719 L 15.796875 19.726562 L 17.082031 19.777344 L 17.082031 19.015625 L 21.011719 18.9375 L 21.0625 17.105469 L 22.5 17.078125 L 22.527344 16.441406 L 24.144531 16.417969 L 24.171875 18.554688 L 25.046875 18.53125 L 25.019531 15.753906 L 26.535156 15.703125 L 26.484375 11.78125 L 28.179688 11.78125 L 28.28125 14.609375 L 28.566406 14.609375 L 28.640625 16.011719 L 28.925781 16.011719 L 28.949219 13.84375 L 29.488281 13.84375 L 29.515625 24.4375 Z M 0.535156 24.464844 " fill-opacity="1" fill-rule="nonzero"/></g><g clip-path="url(#726b69ef65)"><path fill="#282828" d="M 28.707031 26.191406 C 28.707031 26.203125 28.621094 26.214844 28.449219 26.226562 C 28.277344 26.238281 28.023438 26.25 27.6875 26.261719 C 27.351562 26.273438 26.941406 26.285156 26.453125 26.296875 C 25.964844 26.304688 25.410156 26.316406 24.789062 26.324219 C 24.167969 26.332031 23.492188 26.339844 22.765625 26.347656 C 22.035156 26.351562 21.261719 26.359375 20.453125 26.363281 C 19.640625 26.367188 18.804688 26.371094 17.945312 26.375 C 17.082031 26.375 16.214844 26.378906 15.335938 26.378906 C 14.457031 26.378906 13.589844 26.375 12.726562 26.375 C 11.867188 26.371094 11.03125 26.367188 10.21875 26.363281 C 9.40625 26.359375 8.636719 26.351562 7.90625 26.347656 C 7.175781 26.339844 6.5 26.332031 5.878906 26.324219 C 5.261719 26.316406 4.707031 26.304688 4.21875 26.296875 C 3.730469 26.285156 3.320312 26.273438 2.980469 26.261719 C 2.644531 26.25 2.394531 26.238281 2.222656 26.226562 C 2.050781 26.214844 1.964844 26.203125 1.964844 26.191406 C 1.964844 26.179688 2.050781 26.167969 2.222656 26.15625 C 2.394531 26.144531 2.644531 26.132812 2.980469 26.121094 C 3.320312 26.109375 3.730469 26.097656 4.21875 26.089844 C 4.707031 26.078125 5.261719 26.070312 5.878906 26.058594 C 6.5 26.050781 7.175781 26.042969 7.90625 26.035156 C 8.636719 26.03125 9.40625 26.023438 10.21875 26.019531 C 11.03125 26.015625 11.867188 26.011719 12.726562 26.007812 C 13.589844 26.007812 14.457031 26.003906 15.335938 26.003906 C 16.214844 26.003906 17.082031 26.007812 17.945312 26.007812 C 18.804688 26.011719 19.640625 26.015625 20.453125 26.019531 C 21.261719 26.023438 22.035156 26.03125 22.765625 26.035156 C 23.492188 26.042969 24.167969 26.050781 24.789062 26.058594 C 25.410156 26.070312 25.964844 26.078125 26.453125 26.089844 C 26.941406 26.097656 27.351562 26.109375 27.6875 26.121094 C 28.023438 26.132812 28.277344 26.144531 28.449219 26.15625 C 28.621094 26.167969 28.707031 26.179688 28.707031 26.191406 Z M 28.707031 26.191406 " fill-opacity="1" fill-rule="nonzero"/></g><path fill="#8dc0df" d="M 8.910156 18.148438 L 18.519531 18.25 C 18.519531 18.25 18.109375 17.84375 17.59375 17.84375 C 17.082031 17.84375 16.257812 17.230469 15.488281 17.230469 C 14.71875 17.230469 14.921875 17.230469 14.304688 17.332031 C 13.691406 17.4375 13.484375 16.722656 12.507812 16.722656 C 11.53125 16.722656 11.019531 15.957031 10.710938 16.824219 C 10.402344 17.691406 7.421875 17.894531 8.910156 18.148438 Z M 8.910156 18.148438 " fill-opacity="1" fill-rule="nonzero"/><g clip-path="url(#b7280e797b)"><path fill="#1ba899" d="M 16.914062 4.667969 L 15.65625 3.980469 L 15.371094 2.4375 L 16.746094 2.972656 Z M 16.914062 4.667969 " fill-opacity="1" fill-rule="nonzero"/></g><path fill="#6e7ea2" d="M 24.261719 14.429688 L 24.144531 14.558594 L 24.132812 19.523438 L 24.53125 19.511719 L 24.492188 14.394531 Z M 25.339844 14.445312 L 25.378906 19.601562 L 25.765625 19.5625 L 25.777344 19.28125 L 25.699219 14.46875 Z M 25.339844 14.445312 " fill-opacity="1" fill-rule="nonzero"/><path fill="#fc8d7c" d="M 23.375 19.320312 L 27.214844 19.308594 C 27.214844 19.308594 27.511719 19.230469 27.550781 19.523438 C 27.589844 19.816406 27.484375 25.355469 27.484375 25.355469 L 23.441406 25.394531 L 23.09375 25.023438 Z M 23.375 19.320312 " fill-opacity="1" fill-rule="nonzero"/><path fill="#f5c1a8" d="M 7.324219 23.71875 L 7.304688 25.214844 L 8.214844 25.195312 L 8.214844 23.683594 Z M 4.898438 23.132812 L 5.789062 22.457031 L 6.398438 23.042969 L 6.332031 23.296875 L 5.5 23.945312 Z M 16.28125 23.457031 L 16.28125 24.566406 L 15.289062 25.058594 L 15.28125 23.324219 Z M 17.960938 23.304688 L 17.605469 24.890625 L 18.679688 25.152344 L 19.042969 23.296875 Z M 22.519531 23.808594 L 22.59375 25.160156 L 23.5 25.097656 L 23.402344 23.601562 Z M 22.519531 23.808594 " fill-opacity="1" fill-rule="nonzero"/><path fill="#f5c1a8" d="M 7.734375 6.046875 C 7.734375 6.046875 7.785156 6.460938 7.097656 7.128906 L 8.550781 7.523438 L 8.898438 6.746094 L 9.402344 6.867188 C 9.402344 6.867188 9.65625 6.882812 9.703125 6.480469 C 9.660156 6.480469 9.796875 6.175781 9.8125 6.039062 C 9.835938 5.902344 10.125 5.910156 10.113281 5.691406 C 10.109375 5.609375 9.796875 5.589844 9.757812 5.355469 C 9.820312 4.574219 9.390625 4.757812 9.105469 4.671875 L 7.867188 5.121094 C 7.867188 5.121094 7.53125 5.777344 7.734375 6.046875 Z M 14.125 7.988281 C 14.125 7.988281 14.253906 7.378906 14.175781 7.074219 C 14.175781 7.074219 14.113281 6.765625 13.742188 6.816406 C 13.742188 6.816406 12.878906 7.125 12.945312 6.421875 C 13.007812 5.722656 13.945312 5.492188 13.945312 5.492188 L 14.203125 4.652344 L 14.898438 4.640625 L 15.410156 5.097656 C 15.410156 5.097656 15.53125 5.199219 15.578125 5.417969 C 15.625 5.613281 15.601562 5.921875 15.597656 6.054688 C 15.585938 6.332031 15.539062 6.816406 15.308594 6.96875 C 15.210938 7.035156 14.921875 7.074219 14.921875 7.074219 L 14.972656 7.683594 C 14.972656 7.683594 15.191406 7.773438 15.296875 7.722656 C 15.398438 7.671875 15.589844 8.191406 15.589844 8.191406 L 15.488281 8.792969 L 14.9375 9.070312 Z M 17.75 5.214844 C 17.75 5.214844 17.480469 4.84375 17.503906 4.742188 C 17.53125 4.640625 17.441406 4.09375 17.261719 3.953125 C 17.082031 3.8125 16.824219 3.417969 16.65625 3.519531 C 16.488281 3.621094 16.386719 4.09375 16.542969 4.246094 C 16.695312 4.398438 16.914062 4.539062 16.914062 4.539062 C 16.914062 4.539062 16.976562 4.703125 16.796875 4.628906 C 16.617188 4.550781 16.335938 4.386719 16.335938 4.386719 C 16.335938 4.386719 16.21875 4.792969 16.398438 5.011719 C 16.578125 5.226562 16.644531 5.367188 16.875 5.339844 C 17.105469 5.316406 17.492188 5.441406 17.519531 5.492188 C 17.542969 5.542969 17.800781 5.214844 17.800781 5.214844 Z M 21.832031 8.15625 L 21.71875 7.453125 L 22.089844 6.15625 L 21.28125 5.722656 L 20.101562 5.214844 L 19.703125 5.367188 C 19.703125 5.367188 19.523438 5.671875 19.484375 5.914062 C 19.445312 6.15625 19.636719 7.136719 20.242188 7.390625 L 20.714844 7.632812 C 20.835938 7.878906 20.746094 8.160156 20.742188 8.320312 C 20.742188 8.320312 20.859375 8.601562 21.113281 8.5625 C 21.371094 8.523438 21.742188 8.550781 21.832031 8.15625 Z M 21.832031 8.15625 " fill-opacity="1" fill-rule="nonzero"/><path fill="#26375e" d="M 12.636719 13.03125 L 11.355469 24.015625 L 13.304688 23.828125 L 13.523438 21.003906 L 14.921875 14.6875 C 14.921875 14.6875 15.027344 14.355469 15.128906 14.738281 C 15.230469 15.117188 14.792969 23.75 14.792969 23.75 C 14.984375 23.90625 16.6875 23.960938 16.746094 23.789062 C 16.746094 23.789062 17.210938 13.820312 17.054688 13.335938 C 16.902344 12.851562 15.152344 12.675781 15.152344 12.675781 Z M 12.636719 13.03125 " fill-opacity="1" fill-rule="nonzero"/><path fill="#6e7ea2" d="M 11.140625 15.128906 L 10.992188 15.328125 L 10.976562 20.0625 L 11.429688 20.0625 L 11.410156 15.328125 Z M 12.265625 15.128906 L 12.230469 20.117188 L 12.664062 20.101562 L 12.648438 15.183594 Z M 12.265625 15.128906 " fill-opacity="1" fill-rule="nonzero"/><path fill="#fc8d7c" d="M 10.359375 19.882812 L 13.136719 19.867188 C 13.136719 19.867188 13.882812 19.757812 13.953125 20.515625 C 14.027344 21.269531 13.953125 25.484375 13.953125 25.484375 C 13.953125 25.484375 13.808594 25.789062 13.574219 25.808594 C 13.335938 25.824219 9.066406 25.773438 9.066406 25.773438 L 8.8125 25.589844 L 8.667969 25.160156 L 8.59375 22.207031 L 8.6875 20.800781 Z M 10.359375 19.882812 " fill-opacity="1" fill-rule="nonzero"/><path fill="#6f7da2" d="M 9.847656 16.191406 L 10.03125 16.695312 L 10.539062 19.378906 C 10.539062 19.378906 10.683594 19.921875 10.558594 20.171875 C 10.429688 20.425781 9.085938 21.902344 9.085938 21.902344 L 9.214844 23.953125 L 6.523438 23.863281 L 6.523438 23.628906 L 5.433594 22.207031 L 6.707031 21.234375 C 6.707031 21.234375 6.996094 19.378906 6.996094 18.660156 C 6.996094 17.941406 6.617188 15.039062 6.617188 15.039062 L 8.359375 14.445312 L 9.320312 14.625 Z M 9.847656 16.191406 " fill-opacity="1" fill-rule="nonzero"/><path fill="#26375e" d="M 9.25 14.769531 L 9.03125 19.324219 C 9.03125 19.324219 9.359375 19.273438 9.339844 19 C 9.320312 18.730469 9.160156 17.472656 9.429688 17.273438 C 9.703125 17.074219 10.085938 16.859375 10.085938 16.859375 L 9.703125 14.664062 Z M 9.25 14.769531 " fill-opacity="1" fill-rule="nonzero"/><path fill="#26375e" d="M 7.652344 14.964844 C 7.675781 14.964844 7.753906 16.648438 7.828125 18.847656 C 7.828125 18.84375 7.738281 19.011719 7.742188 19.007812 C 7.734375 19.039062 7.730469 19.066406 7.742188 19.085938 C 7.746094 19.113281 7.78125 19.132812 7.820312 19.144531 C 7.898438 19.160156 8 19.207031 8.015625 19.324219 C 8.015625 19.328125 8.015625 19.328125 8.015625 19.332031 C 8.015625 19.441406 7.984375 19.539062 7.984375 19.625 C 7.984375 19.6875 8 19.753906 7.992188 19.835938 C 7.980469 19.945312 7.933594 20.039062 7.90625 20.125 C 7.878906 20.207031 7.871094 20.300781 7.859375 20.390625 C 7.84375 20.550781 7.828125 20.714844 7.820312 20.867188 C 7.785156 21.3125 7.761719 21.769531 7.746094 22.132812 C 7.722656 22.589844 7.710938 22.867188 7.691406 23.324219 C 7.679688 23.488281 7.675781 23.617188 7.667969 23.707031 C 7.664062 23.753906 7.664062 23.789062 7.660156 23.8125 C 7.65625 23.828125 7.65625 23.835938 7.65625 23.84375 C 7.652344 23.84375 7.652344 23.847656 7.652344 23.847656 C 7.652344 23.851562 7.652344 23.851562 7.652344 23.851562 C 7.652344 23.851562 7.652344 23.851562 7.652344 23.847656 C 7.652344 23.847656 7.652344 23.84375 7.648438 23.84375 C 7.648438 23.835938 7.648438 23.824219 7.644531 23.8125 C 7.644531 23.789062 7.644531 23.753906 7.644531 23.707031 C 7.640625 23.617188 7.640625 23.484375 7.644531 23.320312 C 7.644531 23.03125 7.652344 22.613281 7.667969 22.128906 C 7.679688 21.761719 7.695312 21.3125 7.722656 20.863281 C 7.734375 20.707031 7.746094 20.542969 7.761719 20.382812 C 7.773438 20.289062 7.78125 20.191406 7.808594 20.09375 C 7.839844 19.996094 7.886719 19.910156 7.894531 19.824219 C 7.902344 19.769531 7.882812 19.703125 7.882812 19.625 C 7.886719 19.519531 7.914062 19.421875 7.917969 19.332031 C 7.917969 19.328125 7.917969 19.324219 7.917969 19.324219 C 7.933594 19.289062 7.855469 19.269531 7.792969 19.238281 C 7.734375 19.226562 7.675781 19.1875 7.648438 19.125 C 7.628906 19.070312 7.632812 19.011719 7.652344 18.96875 C 7.652344 18.964844 7.730469 18.828125 7.734375 18.824219 C 7.664062 16.644531 7.625 14.964844 7.652344 14.964844 Z M 8.1875 19.53125 C 8.191406 19.535156 8.191406 19.535156 8.195312 19.542969 C 8.195312 19.546875 8.199219 19.554688 8.199219 19.5625 C 8.199219 19.582031 8.199219 19.609375 8.195312 19.636719 C 8.191406 19.699219 8.175781 19.78125 8.144531 19.871094 C 8.136719 19.902344 8.125 19.933594 8.113281 19.96875 C 8.023438 20.203125 7.839844 20.328125 7.824219 20.308594 C 7.808594 20.285156 7.929688 20.15625 8.015625 19.933594 C 8.03125 19.902344 8.042969 19.871094 8.054688 19.839844 C 8.085938 19.753906 8.113281 19.679688 8.132812 19.625 C 8.144531 19.59375 8.15625 19.574219 8.164062 19.558594 C 8.167969 19.550781 8.171875 19.542969 8.175781 19.539062 C 8.179688 19.535156 8.183594 19.53125 8.1875 19.53125 Z M 7.515625 19.308594 C 7.496094 19.289062 7.605469 19.164062 7.757812 19.03125 C 7.910156 18.898438 8.050781 18.808594 8.070312 18.832031 C 8.085938 18.851562 7.976562 18.976562 7.824219 19.105469 C 7.671875 19.238281 7.53125 19.328125 7.515625 19.308594 Z M 6.703125 21.253906 C 6.730469 21.257812 6.714844 21.792969 6.667969 22.457031 C 6.621094 23.117188 6.5625 23.652344 6.535156 23.648438 C 6.507812 23.648438 6.523438 23.109375 6.566406 22.449219 C 6.613281 21.789062 6.671875 21.253906 6.703125 21.253906 Z M 9.140625 21.839844 C 9.113281 21.839844 9.070312 21.273438 9.046875 20.570312 C 9.023438 19.867188 9.023438 19.296875 9.050781 19.292969 C 9.078125 19.292969 9.121094 19.863281 9.148438 20.566406 C 9.171875 21.269531 9.167969 21.839844 9.140625 21.839844 Z M 9.140625 21.839844 " fill-opacity="1" fill-rule="nonzero"/><path fill="#392330" d="M 7.078125 5.652344 C 7.125 5.722656 7.140625 5.9375 7.25 5.921875 C 7.359375 5.902344 7.578125 6.28125 7.742188 6.246094 C 7.742188 6.246094 7.996094 6.226562 7.949219 6.136719 C 7.90625 6.046875 7.707031 5.605469 8.042969 5.535156 C 8.378906 5.460938 8.359375 5.804688 8.613281 5.757812 C 8.867188 5.714844 8.503906 5.589844 8.539062 5.488281 C 8.578125 5.390625 8.59375 5.316406 8.722656 5.355469 C 8.851562 5.390625 9.277344 5.34375 9.140625 5.238281 C 9.003906 5.128906 8.832031 4.921875 9.039062 5.003906 C 9.25 5.085938 9.421875 5.226562 9.53125 5.164062 C 9.640625 5.101562 9.695312 4.984375 9.804688 4.984375 C 9.914062 4.984375 10.175781 5.148438 10.175781 4.992188 C 10.175781 4.839844 10.09375 4.941406 10.128906 4.777344 C 10.167969 4.617188 10.367188 4.625 10.222656 4.507812 C 10.074219 4.390625 10.332031 4.308594 10.050781 4.265625 C 9.765625 4.21875 9.867188 4.121094 9.59375 4.015625 C 8.136719 3.425781 6.589844 4.238281 7.078125 5.652344 Z M 7.078125 5.652344 " fill-opacity="1" fill-rule="nonzero"/><path fill="#392330" d="M 14.550781 4.691406 C 14.550781 4.691406 14.472656 5.734375 13.765625 6.054688 C 13.765625 6.054688 13.484375 6.144531 13.394531 6.179688 C 13.304688 6.21875 13.097656 6.460938 13.316406 6.691406 C 13.535156 6.917969 13.726562 6.816406 13.726562 6.816406 C 13.726562 6.816406 14.125 6.742188 14.164062 7.019531 C 14.203125 7.300781 14.203125 7.402344 14.203125 7.402344 C 14.203125 7.402344 14.050781 7.035156 13.535156 7.035156 C 13.175781 7.035156 12.558594 6.652344 12.6875 6.042969 C 12.796875 5.527344 13.707031 4.089844 14.433594 4.5625 C 14.433594 4.5625 14.640625 4.375 14.753906 4.375 C 14.871094 4.375 15.402344 4.839844 15.589844 5.238281 C 15.71875 5.511719 15.65625 5.714844 15.628906 5.980469 C 15.597656 6.316406 15.566406 6.703125 15.386719 6.945312 C 15.207031 7.035156 14.96875 7.039062 14.949219 7.351562 C 14.9375 7.222656 14.832031 7.054688 14.972656 6.984375 C 14.972656 6.984375 15.308594 7.007812 15.4375 6.714844 C 15.601562 6.34375 15.539062 5.457031 15.539062 5.457031 C 15.539062 5.457031 14.808594 4.527344 14.550781 4.691406 Z M 14.550781 4.691406 " fill-opacity="1" fill-rule="nonzero"/><path fill="#493650" d="M 10.976562 15.4375 L 11.429688 15.4375 C 11.429688 15.4375 11.375 15.257812 11.519531 15.238281 C 11.664062 15.222656 12.210938 15.09375 12.265625 15.257812 C 12.320312 15.417969 12.664062 15.328125 12.664062 15.328125 L 12.703125 14.714844 C 12.703125 14.714844 11.9375 14.484375 11.71875 14.625 C 11.503906 14.769531 11.285156 14.898438 11.285156 14.898438 C 11.285156 14.898438 10.882812 14.914062 10.976562 15.4375 Z M 10.976562 15.4375 " fill-opacity="1" fill-rule="nonzero"/><path fill="#1ba899" d="M 14.191406 7.585938 L 14.203125 7.355469 C 14.203125 7.355469 13.046875 7.226562 13.066406 7.804688 C 13.066406 7.804688 12.957031 7.984375 13.171875 8 C 13.390625 8.019531 14.191406 8.9375 14.191406 8.9375 L 14.210938 13.203125 C 14.210938 13.203125 16.261719 13.796875 16.96875 13.347656 L 17.078125 13.382812 L 17.078125 13.042969 L 16.824219 8.882812 L 16.132812 7.710938 C 16.132812 7.710938 15.644531 7.132812 14.9375 7.3125 L 14.972656 7.710938 C 15.214844 7.800781 15.222656 7.742188 15.347656 7.722656 C 15.347656 7.722656 15.191406 8.21875 15.042969 8.21875 C 14.898438 8.21875 14.191406 7.585938 14.191406 7.585938 Z M 14.191406 7.585938 " fill-opacity="1" fill-rule="nonzero"/><path fill="#091634" d="M 15.886719 8.089844 C 15.886719 8.089844 16.117188 7.855469 15.972656 7.550781 C 15.972656 7.550781 16.425781 7.261719 16.933594 7.335938 C 17.441406 7.40625 17.480469 7.40625 17.898438 6.9375 C 17.898438 6.9375 17.316406 6.632812 17.496094 6.019531 C 17.496094 6.019531 17.132812 5.824219 17.207031 5.589844 C 17.277344 5.355469 17.589844 5.085938 17.589844 5.085938 C 17.589844 5.085938 17.824219 4.796875 18.042969 5.371094 L 19.367188 6.742188 C 19.367188 6.742188 19.785156 7.226562 19.277344 7.75 C 18.769531 8.269531 17.695312 9.53125 16.96875 9.925781 C 16.96875 9.925781 17.316406 11.980469 17.316406 13.023438 L 17.023438 13.132812 C 17.023438 13.132812 16.878906 11.675781 16.714844 11.207031 C 16.550781 10.738281 16.296875 9.964844 16.5 9.152344 C 16.5 8.914062 15.785156 8.15625 15.886719 8.089844 Z M 13.058594 8.015625 C 13.058594 8.015625 13.148438 7.886719 13.472656 7.898438 C 13.792969 7.914062 14.652344 8.15625 14.703125 8.664062 C 14.753906 9.171875 15.308594 10.320312 14.960938 11.542969 L 14.898438 13.527344 C 14.898438 13.527344 15.0625 13.871094 14.523438 13.808594 C 14.523438 13.808594 12.226562 13.476562 12.226562 13.335938 C 12.226562 13.195312 12.210938 12.800781 12.210938 12.800781 C 12.210938 12.800781 12.082031 12.8125 12.171875 12.382812 C 12.261719 11.949219 12.261719 11.886719 12.261719 11.886719 C 12.261719 11.886719 11.75 11.488281 11.839844 10.765625 C 11.929688 10.039062 12.261719 8.5 13.058594 8.015625 Z M 13.058594 8.015625 " fill-opacity="1" fill-rule="nonzero"/><path fill="#c63e20" d="M 14.910156 11.605469 L 14.898438 11.121094 L 16.335938 11.222656 L 16.425781 11.273438 L 16.347656 12.648438 L 16.078125 12.761719 L 14.910156 12.75 Z M 14.910156 11.605469 " fill-opacity="1" fill-rule="nonzero"/><path fill="#c63e20" d="M 10.808594 10.695312 L 10.953125 9.3125 C 10.953125 9.3125 10.945312 9.042969 11.210938 9.007812 C 11.574219 8.960938 12.445312 8.652344 12.445312 8.652344 C 12.445312 8.652344 12.648438 8.753906 12.6875 8.945312 C 12.726562 9.136719 12.59375 10.746094 12.59375 10.746094 L 12.25 10.957031 L 12.496094 10.5625 Z M 10.808594 10.695312 " fill-opacity="1" fill-rule="nonzero"/><path fill="#f5c1a8" d="M 11.367188 14.296875 L 11.550781 14.289062 C 11.550781 14.289062 12.828125 14.316406 12.855469 14.675781 C 12.882812 15.035156 12.867188 15.359375 12.773438 15.359375 C 12.683594 15.359375 12.683594 15.1875 12.675781 15.078125 C 12.667969 14.972656 12.367188 14.566406 11.804688 14.78125 C 11.804688 14.78125 12.039062 15.015625 12.121094 15.105469 C 12.203125 15.195312 12.25 15.339844 12.019531 15.261719 C 11.792969 15.179688 11.058594 14.898438 11.09375 14.585938 M 11.230469 10.550781 L 11.375 10.453125 C 11.375 10.453125 11.957031 10.433594 12.074219 10.46875 C 12.195312 10.507812 12.539062 10.433594 12.492188 10.550781 C 12.492188 10.550781 12.394531 10.703125 12.4375 10.722656 C 12.484375 10.742188 12.558594 10.742188 12.558594 10.652344 C 12.558594 10.5625 12.675781 10.460938 12.722656 10.5625 C 12.765625 10.660156 12.820312 11.117188 12.347656 11.117188 C 11.875 11.117188 11.277344 11.046875 11.277344 11.046875 Z M 11.230469 10.550781 " fill-opacity="1" fill-rule="nonzero"/><path fill="#fec05f" d="M 6.523438 6.882812 C 6.523438 6.882812 7.613281 6.792969 8.070312 6.921875 C 8.523438 7.046875 9.578125 7.480469 9.578125 7.480469 C 9.578125 7.480469 10.085938 7.75 9.832031 7.929688 C 9.578125 8.109375 9.050781 8.542969 9.050781 8.542969 L 9.011719 8.722656 L 9.648438 10.015625 L 9.867188 10.339844 L 11.300781 10.359375 L 11.539062 11.042969 C 11.539062 11.042969 11.703125 11.261719 11.574219 11.296875 C 11.449219 11.332031 11.15625 11.457031 11.03125 11.457031 C 11.03125 11.457031 10.195312 11.996094 9.941406 12.050781 L 10.230469 13.007812 L 10.667969 13.1875 L 11.101562 13.5625 C 11.101562 13.5625 11.300781 13.796875 11.285156 13.925781 L 11.558594 14.265625 L 11.085938 14.769531 L 10.828125 14.609375 C 10.828125 14.609375 10.195312 14.609375 10.101562 14.484375 L 10.085938 14.859375 L 6.46875 15.167969 C 6.46875 15.167969 6.398438 14.664062 6.433594 14.484375 C 6.46875 14.300781 6.125 13.113281 6.125 13.113281 L 5 10.753906 L 5.160156 9.277344 L 5.035156 8.398438 L 5.6875 8 C 5.6875 8 5.617188 7.425781 5.941406 7.40625 C 5.941406 7.40625 5.816406 6.867188 6.523438 6.882812 Z M 6.523438 6.882812 " fill-opacity="1" fill-rule="nonzero"/><path fill="#5780aa" d="M 4.863281 9.414062 L 4.824219 8.601562 C 4.824219 8.601562 4.75 8.117188 5.058594 8.292969 L 5.289062 9.210938 C 5.289062 9.210938 5.402344 9.3125 5.699219 9.082031 C 5.902344 8.925781 7.164062 7.300781 7.675781 7.453125 C 8.191406 7.605469 9.011719 8.292969 8.886719 10.101562 C 8.886719 10.101562 8.707031 8.117188 7.78125 7.8125 C 7.78125 7.8125 7.324219 7.875 6.957031 8.371094 C 6.449219 9.058594 5.476562 9.9375 5.582031 9.695312 C 6.199219 11.667969 6.105469 12.105469 6.367188 13.3125 L 7.371094 11.757812 L 7.804688 12.039062 L 6.574219 13.691406 C 6.574219 13.691406 6.445312 14.152344 6.523438 14.40625 L 4.59375 14.941406 C 4.59375 14.941406 3.824219 15.117188 3.695312 14.40625 C 3.566406 13.691406 3.207031 11.898438 3.207031 11.898438 L 3.179688 12.597656 C 3.179688 12.597656 2.71875 13.195312 2.820312 12.175781 C 2.890625 11.515625 2.628906 11.03125 4.144531 9.9375 Z M 4.863281 9.414062 " fill-opacity="1" fill-rule="nonzero"/><path fill="#f5c1a8" d="M 14.898438 11.566406 L 15.988281 11.601562 C 15.988281 11.601562 16.457031 11.589844 16.582031 11.695312 C 16.710938 11.804688 16.808594 12.320312 16.660156 12.359375 C 16.515625 12.394531 16.097656 12.429688 16.097656 12.429688 C 16.097656 12.429688 15.515625 12.375 15.316406 12.359375 C 15.117188 12.339844 14.808594 12.25 14.808594 12.25 Z M 14.898438 11.566406 " fill-opacity="1" fill-rule="nonzero"/><path fill="#030d22" d="M 15.171875 14.996094 C 15.171875 14.996094 15.460938 14.148438 15.707031 14.042969 C 15.953125 13.933594 15.433594 13.761719 15.035156 14.554688 C 15.035156 14.554688 15.199219 14.832031 15.171875 14.996094 Z M 12.546875 14.003906 C 12.546875 14.003906 13.28125 13.707031 13.320312 13.644531 L 12.929688 13.546875 C 12.929688 13.546875 12.59375 13.628906 12.546875 14.003906 Z M 16.617188 13.492188 C 16.617188 13.492188 17.042969 13.679688 17.0625 13.636719 C 17.078125 13.589844 17.078125 13.355469 17.078125 13.355469 C 17.078125 13.355469 16.726562 13.429688 16.617188 13.492188 Z M 16.617188 13.492188 " fill-opacity="1" fill-rule="nonzero"/><path fill="#bd3d2c" d="M 12.410156 19.867188 L 13.027344 19.882812 C 13.027344 19.882812 13.265625 19.9375 13.300781 20.476562 C 13.335938 21.019531 13.320312 25.484375 13.320312 25.484375 C 13.320312 25.484375 13.28125 25.808594 13.15625 25.808594 C 13.027344 25.808594 12.390625 25.789062 12.390625 25.789062 L 12.429688 20.28125 C 12.429688 20.28125 12.191406 19.832031 12.410156 19.867188 Z M 12.410156 19.867188 " fill-opacity="1" fill-rule="nonzero"/><path fill="#bd3d2c" d="M 9.792969 21.234375 C 9.816406 21.234375 9.851562 22.207031 9.871094 23.402344 C 9.890625 24.601562 9.890625 25.574219 9.867188 25.574219 C 9.84375 25.574219 9.808594 24.601562 9.789062 23.40625 C 9.769531 22.207031 9.773438 21.234375 9.792969 21.234375 Z M 10.613281 20.207031 C 10.636719 20.207031 10.648438 21.429688 10.644531 22.9375 C 10.640625 24.441406 10.617188 25.664062 10.59375 25.664062 C 10.570312 25.664062 10.554688 24.441406 10.5625 22.9375 C 10.566406 21.429688 10.589844 20.207031 10.613281 20.207031 Z M 11.339844 20.136719 C 11.363281 20.136719 11.375 21.390625 11.371094 22.9375 C 11.367188 24.480469 11.34375 25.734375 11.320312 25.734375 C 11.296875 25.734375 11.28125 24.480469 11.289062 22.9375 C 11.292969 21.390625 11.316406 20.136719 11.339844 20.136719 Z M 12.082031 20.046875 C 12.105469 20.046875 12.121094 21.3125 12.117188 22.871094 C 12.109375 24.433594 12.089844 25.699219 12.066406 25.699219 C 12.042969 25.699219 12.027344 24.433594 12.03125 22.871094 C 12.039062 21.3125 12.0625 20.046875 12.082031 20.046875 Z M 13.375 20.191406 C 13.394531 20.191406 13.433594 21.441406 13.460938 22.980469 C 13.484375 24.519531 13.488281 25.769531 13.464844 25.773438 C 13.441406 25.773438 13.402344 24.523438 13.378906 22.980469 C 13.351562 21.441406 13.351562 20.191406 13.375 20.191406 Z M 13.738281 20.910156 C 13.757812 20.910156 13.769531 21.839844 13.761719 22.980469 C 13.75 24.125 13.722656 25.050781 13.699219 25.050781 C 13.675781 25.050781 13.667969 24.125 13.675781 22.980469 C 13.6875 21.835938 13.714844 20.910156 13.738281 20.910156 Z M 9.269531 22.226562 C 9.289062 22.222656 9.316406 22.945312 9.328125 23.835938 C 9.335938 24.726562 9.328125 25.449219 9.304688 25.449219 C 9.28125 25.449219 9.253906 24.726562 9.246094 23.835938 C 9.234375 22.945312 9.246094 22.226562 9.269531 22.226562 Z M 9.269531 22.226562 " fill-opacity="1" fill-rule="nonzero"/><path fill="#07787b" d="M 5.160156 23.039062 C 5.160156 23.039062 5.261719 23.175781 5.199219 23.316406 C 5.132812 23.457031 5.082031 23.699219 5.210938 23.726562 C 5.339844 23.75 5.457031 23.777344 5.480469 23.863281 C 5.480469 23.863281 5.761719 23.648438 5.90625 23.726562 C 6.046875 23.800781 5.980469 24.335938 6.046875 24.476562 C 6.109375 24.617188 6.214844 25.074219 6.40625 25.238281 C 6.597656 25.40625 6.035156 25.671875 6.035156 25.671875 L 5.6875 25.53125 L 4.015625 23.902344 L 3.964844 23.597656 C 3.964844 23.597656 4.542969 22.667969 5.160156 23.039062 Z M 5.160156 23.039062 " fill-opacity="1" fill-rule="nonzero"/><g clip-path="url(#0cf77d5044)"><path fill="#37077b" d="M 3.976562 23.609375 C 3.976562 23.609375 3.746094 23.75 3.824219 23.878906 C 3.902344 24.003906 4.953125 25.214844 6.25 26.15625 C 6.25 26.15625 6.535156 26.21875 6.675781 26.117188 C 6.816406 26.015625 6.996094 25.558594 6.367188 25.214844 L 6.238281 25.050781 L 5.6875 25.429688 C 5.6875 25.429688 4.042969 23.878906 3.976562 23.609375 Z M 3.976562 23.609375 " fill-opacity="1" fill-rule="nonzero"/></g><g clip-path="url(#63df6ffc14)"><path fill="#07787b" d="M 7.355469 24.71875 C 7.355469 24.71875 7.511719 24.746094 7.5625 24.878906 C 7.609375 25.011719 7.730469 25.199219 7.832031 25.136719 C 7.933594 25.070312 8.023438 25.015625 8.097656 25.054688 C 8.097656 25.054688 8.140625 24.738281 8.285156 24.695312 C 8.425781 24.65625 8.726562 25.046875 8.859375 25.097656 C 8.992188 25.148438 9.351562 25.382812 9.582031 25.367188 C 9.816406 25.351562 9.621094 25.882812 9.621094 25.882812 L 9.304688 26.011719 L 7.167969 26.007812 L 6.9375 25.839844 C 6.9375 25.839844 6.71875 24.871094 7.355469 24.71875 Z M 7.355469 24.71875 " fill-opacity="1" fill-rule="nonzero"/></g><g clip-path="url(#723cab58c4)"><path fill="#37077b" d="M 6.957031 25.839844 C 6.957031 25.839844 6.894531 26.078125 7.027344 26.113281 C 7.160156 26.144531 8.621094 26.265625 10.074219 26.0625 C 10.074219 26.0625 10.296875 25.925781 10.324219 25.769531 C 10.351562 25.613281 10.171875 25.199219 9.542969 25.375 L 9.351562 25.347656 L 9.238281 25.945312 C 9.238281 25.945312 7.167969 25.972656 6.957031 25.839844 Z M 6.957031 25.839844 " fill-opacity="1" fill-rule="nonzero"/></g><path fill="#07787b" d="M 16.632812 25.035156 C 16.707031 24.84375 16.425781 24.589844 16.425781 24.589844 C 15.566406 24.144531 15.242188 24.820312 15.242188 24.820312 C 15.242188 24.820312 15.0625 24.566406 15.011719 24.910156 C 14.960938 25.253906 15.089844 25.863281 15.089844 25.863281 L 15.757812 25.582031 L 16.414062 25.519531 Z M 16.632812 25.035156 " fill-opacity="1" fill-rule="nonzero"/><g clip-path="url(#a7ab4b03af)"><path fill="#37077b" d="M 16.398438 26.09375 L 15.128906 26.09375 L 15.078125 25.761719 C 15.078125 25.761719 15.207031 25.75 15.28125 25.660156 C 15.359375 25.570312 15.949219 25.226562 16.21875 25.429688 C 16.488281 25.632812 16.398438 26.09375 16.398438 26.09375 Z M 16.398438 26.09375 " fill-opacity="1" fill-rule="nonzero"/></g><path fill="#3954f4" d="M 18.648438 24.808594 C 18.890625 24.742188 18.855469 25.203125 18.855469 25.203125 L 18.828125 25.941406 L 17.042969 25.773438 L 16.65625 25.546875 L 16.375 25.214844 C 16.519531 25.128906 17.207031 25.003906 17.390625 24.539062 C 17.824219 24.105469 18.03125 24.601562 18.03125 24.601562 C 18.03125 24.601562 18.132812 24.78125 18.03125 24.894531 C 17.929688 25.011719 18.289062 24.679688 18.648438 24.808594 Z M 18.648438 24.808594 " fill-opacity="1" fill-rule="nonzero"/><g clip-path="url(#504d6ce1f0)"><path fill="#a0adfa" d="M 17.285156 25.648438 L 17.953125 25.648438 C 17.953125 25.648438 18.765625 25.40625 18.828125 25.496094 C 18.890625 25.582031 18.839844 25.914062 18.839844 25.914062 C 18.839844 25.914062 18.777344 26.117188 18.546875 26.117188 L 15.9375 26.117188 C 15.9375 26.117188 15.605469 25.597656 16.027344 25.378906 C 16.453125 25.164062 16.578125 24.945312 16.746094 25.125 C 16.914062 25.304688 16.875 25.597656 17.285156 25.648438 Z M 17.285156 25.648438 " fill-opacity="1" fill-rule="nonzero"/></g><path fill="#3954f4" d="M 22.464844 25.1875 C 22.464844 25.1875 22.359375 24.667969 22.667969 24.679688 L 22.785156 24.71875 C 22.785156 24.71875 23.144531 24.398438 23.335938 24.78125 C 23.335938 24.78125 23.464844 24.515625 23.582031 24.78125 C 23.695312 25.050781 23.8125 25.839844 23.8125 25.839844 L 22.914062 25.941406 L 22.320312 25.839844 C 22.320312 25.839844 22.269531 25.445312 22.464844 25.1875 Z M 22.464844 25.1875 " fill-opacity="1" fill-rule="nonzero"/><g clip-path="url(#acf2ac7a4d)"><path fill="#a0adfa" d="M 22.308594 25.789062 C 22.308594 25.789062 23.167969 25.941406 23.785156 25.800781 C 23.785156 25.800781 23.914062 26.082031 23.8125 26.144531 C 23.710938 26.207031 22.308594 26.183594 22.308594 26.183594 C 22.308594 26.183594 22.195312 25.925781 22.308594 25.789062 Z M 22.308594 25.789062 " fill-opacity="1" fill-rule="nonzero"/></g><path fill="#392330" d="M 19.726562 5.492188 C 19.726562 5.492188 19.457031 5.863281 19.433594 6.167969 C 19.433594 6.167969 19.175781 5.441406 19.894531 5.074219 C 20.613281 4.703125 21.640625 5.277344 21.871094 5.621094 C 22.105469 5.964844 22.335938 6.003906 21.71875 7.542969 C 21.71875 7.542969 21.5 7.058594 21.667969 6.816406 C 21.667969 6.816406 22.027344 6.601562 21.9375 6.308594 C 21.847656 6.015625 21.550781 5.976562 21.472656 6.246094 C 21.472656 6.246094 21.203125 5.925781 20.894531 5.988281 C 20.585938 6.054688 19.792969 5.75 19.726562 5.492188 Z M 20.265625 7.402344 L 20.820312 7.8125 L 20.820312 7.519531 C 20.820312 7.519531 20.574219 7.542969 20.265625 7.402344 Z M 20.265625 7.402344 " fill-opacity="1" fill-rule="nonzero"/><path fill="#26375e" d="M 19.1875 13.367188 L 17.550781 23.519531 L 19.332031 23.773438 L 21.257812 14.808594 C 21.257812 14.808594 21.292969 14.664062 21.367188 15.273438 C 21.4375 15.886719 22.167969 24.0625 22.167969 24.0625 L 24.019531 23.988281 C 24.019531 23.988281 23.910156 15.3125 23 12.683594 Z M 19.1875 13.367188 " fill-opacity="1" fill-rule="nonzero"/><path fill="#4cf523" d="M 20.730469 8.066406 C 20.730469 8.066406 21.320312 8.460938 21.847656 8.027344 C 21.847656 8.027344 22.257812 8.050781 22.796875 8.242188 C 23.335938 8.433594 23.386719 8.535156 23.554688 9.351562 C 23.722656 10.167969 23.964844 11.324219 23.964844 11.324219 L 22.847656 11.515625 L 23.15625 13.285156 C 21.710938 13.628906 20.628906 13.40625 19.214844 13.375 C 19.3125 12.679688 19.460938 12.335938 19.445312 11.414062 L 18.238281 11.351562 C 18.238281 11.351562 18.3125 8.292969 20.730469 8.066406 Z M 20.730469 8.066406 " fill-opacity="1" fill-rule="nonzero"/><path fill="#030d22" d="M 21.050781 13.488281 C 21.070312 13.488281 21.082031 13.609375 21.078125 13.757812 C 21.074219 13.90625 21.054688 14.023438 21.039062 14.023438 C 21.019531 14.023438 21.007812 13.902344 21.011719 13.753906 C 21.015625 13.609375 21.03125 13.488281 21.050781 13.488281 Z M 20.332031 13.84375 C 20.339844 13.832031 20.554688 13.933594 20.835938 14.085938 C 20.878906 14.113281 20.925781 14.144531 20.96875 14.179688 C 21.054688 14.25 21.125 14.320312 21.183594 14.390625 C 21.355469 14.601562 21.347656 14.785156 21.332031 14.789062 C 21.320312 14.789062 21.296875 14.613281 21.136719 14.429688 C 21.078125 14.363281 21.011719 14.296875 20.929688 14.234375 C 20.886719 14.199219 20.84375 14.167969 20.800781 14.140625 C 20.527344 13.984375 20.324219 13.859375 20.332031 13.84375 Z M 20.28125 14.074219 C 20.285156 14.058594 20.484375 14.128906 20.722656 14.230469 C 20.960938 14.332031 21.148438 14.425781 21.140625 14.445312 C 21.132812 14.460938 20.933594 14.390625 20.695312 14.289062 C 20.460938 14.1875 20.273438 14.089844 20.28125 14.074219 Z M 22.898438 13.324219 C 22.910156 13.308594 22.988281 13.355469 23.074219 13.425781 C 23.160156 13.496094 23.21875 13.5625 23.207031 13.578125 C 23.195312 13.59375 23.117188 13.546875 23.03125 13.476562 C 22.949219 13.40625 22.886719 13.335938 22.898438 13.324219 Z M 22.808594 13.414062 C 22.824219 13.402344 22.925781 13.542969 23.039062 13.726562 C 23.148438 13.910156 23.222656 14.066406 23.207031 14.074219 C 23.191406 14.082031 23.089844 13.941406 22.980469 13.761719 C 22.871094 13.578125 22.792969 13.421875 22.808594 13.414062 Z M 23.234375 13.667969 C 23.253906 13.667969 23.386719 15.960938 23.53125 18.789062 C 23.675781 21.617188 23.777344 23.914062 23.761719 23.914062 C 23.742188 23.917969 23.609375 21.621094 23.464844 18.792969 C 23.320312 15.964844 23.214844 13.667969 23.234375 13.667969 Z M 21.140625 14.636719 C 21.15625 14.640625 20.699219 16.660156 20.113281 19.148438 C 19.527344 21.636719 19.039062 23.652344 19.019531 23.648438 C 19.003906 23.644531 19.464844 21.621094 20.046875 19.132812 C 20.632812 16.644531 21.121094 14.628906 21.140625 14.636719 Z M 21.140625 14.636719 " fill-opacity="1" fill-rule="nonzero"/><path fill="#546282" d="M 19.777344 12.535156 C 19.777344 12.535156 19.457031 12.164062 18.929688 12.507812 C 18.402344 12.851562 18.339844 13.3125 18.429688 13.425781 L 18.507812 13.527344 C 18.507812 13.527344 18.109375 14.035156 18.492188 14.417969 C 18.878906 14.800781 19.136719 14.738281 19.1875 14.6875 C 19.238281 14.636719 19.867188 12.863281 19.867188 12.863281 C 19.867188 12.863281 19.917969 12.574219 19.777344 12.535156 Z M 19.777344 12.535156 " fill-opacity="1" fill-rule="nonzero"/><path fill="#493650" d="M 24.15625 14.609375 L 25.726562 14.609375 L 25.726562 14.402344 C 25.726562 14.402344 25.273438 14.070312 24.917969 14.070312 C 24.5625 14.070312 24.027344 14.113281 24.15625 14.609375 Z M 24.15625 14.609375 " fill-opacity="1" fill-rule="nonzero"/><path fill="#394359" d="M 22.246094 8.117188 C 22.246094 8.117188 22.285156 7.976562 22.539062 8.140625 C 22.539062 8.140625 22.683594 8.957031 21.398438 10.929688 C 21.398438 10.929688 20.226562 12.636719 19.738281 13.019531 C 19.738281 13.019531 19.507812 12.96875 19.523438 12.878906 C 20.460938 11.789062 20.878906 11.21875 21.410156 10.292969 C 22.105469 9.082031 22.21875 8.5625 22.246094 8.117188 Z M 22.246094 8.117188 " fill-opacity="1" fill-rule="nonzero"/><path fill="#1caf9e" d="M 19.136719 10.101562 L 18.546875 8.980469 L 20.101562 8.550781 L 20.792969 10.304688 L 19.558594 11.007812 Z M 19.136719 10.101562 " fill-opacity="1" fill-rule="nonzero"/><path fill="#394359" d="M 18.496094 13.5 C 18.496094 13.5 18.5 13.5 18.5 13.503906 C 18.503906 13.503906 18.503906 13.507812 18.507812 13.507812 C 18.515625 13.511719 18.523438 13.519531 18.535156 13.527344 C 18.554688 13.539062 18.582031 13.558594 18.617188 13.5625 C 18.699219 13.582031 18.773438 13.515625 18.847656 13.390625 C 18.886719 13.320312 18.933594 13.242188 18.988281 13.167969 C 19.054688 13.074219 19.125 12.996094 19.199219 12.929688 C 19.425781 12.722656 19.605469 12.820312 19.59375 12.835938 C 19.59375 12.839844 19.554688 12.816406 19.488281 12.824219 C 19.414062 12.832031 19.328125 12.875 19.230469 12.960938 C 19.160156 13.027344 19.09375 13.105469 19.027344 13.195312 C 18.976562 13.269531 18.929688 13.34375 18.886719 13.414062 C 18.8125 13.550781 18.703125 13.613281 18.609375 13.589844 C 18.570312 13.578125 18.539062 13.558594 18.523438 13.539062 C 18.515625 13.53125 18.507812 13.523438 18.503906 13.515625 C 18.5 13.511719 18.5 13.507812 18.496094 13.507812 C 18.496094 13.503906 18.496094 13.503906 18.496094 13.5 Z M 19.523438 12.941406 C 19.523438 12.945312 19.523438 12.945312 19.519531 12.949219 C 19.519531 12.953125 19.515625 12.960938 19.511719 12.96875 C 19.5 12.980469 19.488281 13 19.472656 13.019531 C 19.445312 13.054688 19.394531 13.121094 19.351562 13.179688 C 19.320312 13.226562 19.277344 13.285156 19.242188 13.347656 C 19.234375 13.367188 19.222656 13.386719 19.214844 13.40625 C 19.214844 13.417969 19.210938 13.425781 19.214844 13.421875 C 19.238281 13.453125 19.273438 13.476562 19.308594 13.503906 C 19.3125 13.503906 19.3125 13.507812 19.316406 13.507812 C 19.328125 13.515625 19.339844 13.523438 19.351562 13.53125 C 19.355469 13.535156 19.355469 13.539062 19.355469 13.546875 C 19.558594 13.238281 19.730469 13 19.742188 13.007812 C 19.75 13.011719 19.585938 13.265625 19.363281 13.582031 C 19.347656 13.582031 19.335938 13.578125 19.324219 13.574219 C 19.3125 13.5625 19.300781 13.554688 19.289062 13.546875 C 19.285156 13.546875 19.285156 13.542969 19.28125 13.542969 C 19.242188 13.515625 19.207031 13.488281 19.175781 13.453125 C 19.164062 13.429688 19.164062 13.40625 19.171875 13.394531 C 19.179688 13.367188 19.191406 13.34375 19.203125 13.324219 C 19.242188 13.261719 19.285156 13.203125 19.320312 13.15625 C 19.371094 13.09375 19.417969 13.042969 19.453125 13.007812 C 19.472656 12.984375 19.488281 12.96875 19.5 12.960938 C 19.507812 12.953125 19.511719 12.949219 19.515625 12.945312 C 19.519531 12.945312 19.523438 12.941406 19.523438 12.941406 Z M 19.3125 13.644531 C 19.328125 13.648438 19.222656 14.035156 19.082031 14.507812 C 19.082031 14.507812 19.066406 14.558594 19.066406 14.558594 C 18.660156 14.339844 18.34375 14.160156 18.351562 14.148438 C 18.355469 14.140625 18.667969 14.308594 19.054688 14.53125 C 19.054688 14.535156 19.066406 14.480469 19.066406 14.480469 C 19.191406 14.015625 19.300781 13.640625 19.3125 13.644531 Z M 19.3125 13.644531 " fill-opacity="1" fill-rule="nonzero"/><path fill="#f5c1a8" d="M 18.328125 11.335938 C 18.328125 11.335938 18.367188 11.9375 18.765625 12.050781 C 19.160156 12.164062 19.40625 11.554688 19.238281 10.90625 C 19.238281 10.90625 19.214844 10.867188 19.339844 10.726562 C 19.46875 10.585938 19.558594 10.34375 19.738281 10.269531 C 19.917969 10.191406 20.0625 9.976562 20.035156 9.886719 C 20.007812 9.796875 19.597656 9.785156 19.535156 9.847656 C 19.535156 9.847656 19.703125 9.605469 19.855469 9.566406 C 20.007812 9.53125 19.785156 9.425781 19.546875 9.582031 C 19.425781 9.660156 18.945312 10.21875 18.839844 10.523438 L 18.457031 11.351562 Z M 22.929688 11.53125 C 22.929688 11.53125 23.417969 13.816406 23.875 14.121094 C 24.328125 14.429688 24.527344 14.210938 24.636719 14.210938 C 24.746094 14.210938 24.800781 14.105469 24.925781 14.230469 C 25.054688 14.355469 25.726562 14.445312 25.726562 14.375 C 25.726562 14.300781 24.925781 13.691406 24.925781 13.691406 C 24.925781 13.691406 24.128906 13.816406 24.128906 13.707031 C 24.128906 13.601562 23.820312 11.582031 23.621094 11.367188 C 23.621094 11.367188 23.09375 11.351562 22.929688 11.53125 Z M 22.929688 11.53125 " fill-opacity="1" fill-rule="nonzero"/><path fill="#eb8250" d="M 18.519531 11.757812 C 18.515625 11.757812 18.511719 11.753906 18.507812 11.75 C 18.5 11.742188 18.496094 11.734375 18.488281 11.722656 C 18.476562 11.695312 18.460938 11.664062 18.449219 11.621094 C 18.441406 11.597656 18.433594 11.574219 18.429688 11.550781 C 18.40625 11.421875 18.425781 11.324219 18.441406 11.324219 C 18.457031 11.328125 18.453125 11.421875 18.476562 11.539062 C 18.484375 11.5625 18.488281 11.585938 18.492188 11.609375 C 18.503906 11.648438 18.511719 11.683594 18.515625 11.710938 C 18.519531 11.722656 18.519531 11.734375 18.523438 11.742188 C 18.523438 11.75 18.523438 11.757812 18.519531 11.757812 Z M 19.394531 9.949219 C 19.386719 9.9375 19.417969 9.898438 19.46875 9.859375 C 19.519531 9.820312 19.566406 9.800781 19.574219 9.808594 C 19.582031 9.820312 19.546875 9.859375 19.496094 9.898438 C 19.449219 9.9375 19.402344 9.960938 19.394531 9.949219 Z M 24.929688 14 C 24.9375 13.988281 25.03125 14.054688 25.136719 14.144531 C 25.246094 14.238281 25.324219 14.320312 25.316406 14.328125 C 25.304688 14.339844 25.210938 14.273438 25.105469 14.183594 C 25 14.089844 24.921875 14.007812 24.929688 14 Z M 16.523438 4.15625 C 16.523438 4.15625 16.523438 4.152344 16.523438 4.148438 C 16.523438 4.148438 16.523438 4.140625 16.523438 4.136719 C 16.527344 4.125 16.527344 4.113281 16.535156 4.09375 C 16.546875 4.058594 16.5625 4.015625 16.589844 3.964844 C 16.59375 3.953125 16.601562 3.941406 16.609375 3.925781 C 16.671875 3.804688 16.785156 3.75 16.789062 3.761719 C 16.792969 3.773438 16.71875 3.832031 16.652344 3.949219 C 16.644531 3.964844 16.636719 3.976562 16.632812 3.988281 C 16.605469 4.035156 16.582031 4.078125 16.5625 4.105469 C 16.554688 4.121094 16.546875 4.136719 16.539062 4.144531 C 16.539062 4.148438 16.535156 4.152344 16.53125 4.152344 C 16.527344 4.15625 16.527344 4.15625 16.523438 4.15625 Z M 16.707031 4.292969 C 16.707031 4.292969 16.707031 4.289062 16.707031 4.285156 C 16.707031 4.28125 16.707031 4.277344 16.710938 4.269531 C 16.710938 4.261719 16.71875 4.246094 16.726562 4.226562 C 16.742188 4.191406 16.769531 4.144531 16.804688 4.097656 C 16.832031 4.058594 16.867188 4.007812 16.917969 3.96875 C 16.964844 3.929688 17.015625 3.910156 17.070312 3.910156 C 17.148438 3.910156 17.199219 3.917969 17.242188 3.933594 C 17.257812 3.9375 17.269531 3.941406 17.277344 3.945312 C 17.285156 3.953125 17.285156 3.957031 17.289062 3.957031 C 17.285156 3.957031 17.28125 3.957031 17.273438 3.960938 C 17.261719 3.957031 17.253906 3.957031 17.238281 3.957031 C 17.1875 3.953125 17.152344 3.953125 17.070312 3.953125 C 17.027344 3.953125 16.988281 3.972656 16.949219 4.007812 C 16.910156 4.039062 16.867188 4.089844 16.839844 4.121094 C 16.804688 4.167969 16.773438 4.210938 16.75 4.242188 C 16.738281 4.257812 16.730469 4.269531 16.722656 4.277344 C 16.71875 4.28125 16.714844 4.285156 16.714844 4.289062 C 16.710938 4.292969 16.707031 4.292969 16.707031 4.292969 Z M 17.125 4.203125 C 17.136719 4.210938 17.070312 4.300781 16.984375 4.398438 C 16.984375 4.398438 16.980469 4.402344 16.980469 4.402344 C 16.945312 4.453125 16.921875 4.480469 16.910156 4.519531 C 16.90625 4.53125 16.902344 4.539062 16.90625 4.546875 C 16.914062 4.5625 16.941406 4.566406 16.941406 4.570312 C 16.941406 4.578125 16.917969 4.597656 16.886719 4.566406 C 16.871094 4.550781 16.867188 4.527344 16.871094 4.507812 C 16.878906 4.460938 16.90625 4.417969 16.941406 4.371094 C 16.941406 4.371094 16.945312 4.371094 16.945312 4.371094 C 17.035156 4.269531 17.113281 4.191406 17.125 4.203125 Z M 13.355469 6.453125 C 13.351562 6.453125 13.351562 6.449219 13.347656 6.441406 C 13.347656 6.4375 13.347656 6.429688 13.347656 6.417969 C 13.347656 6.402344 13.355469 6.378906 13.367188 6.355469 C 13.375 6.34375 13.382812 6.335938 13.390625 6.332031 C 13.453125 6.277344 13.523438 6.328125 13.515625 6.339844 C 13.507812 6.351562 13.457031 6.335938 13.421875 6.367188 C 13.417969 6.371094 13.410156 6.375 13.410156 6.378906 C 13.398438 6.394531 13.386719 6.414062 13.378906 6.429688 C 13.375 6.4375 13.371094 6.441406 13.367188 6.449219 C 13.363281 6.453125 13.359375 6.457031 13.355469 6.453125 Z M 13.464844 6.246094 C 13.464844 6.242188 13.46875 6.242188 13.476562 6.242188 C 13.484375 6.242188 13.492188 6.246094 13.5 6.25 C 13.515625 6.253906 13.542969 6.265625 13.566406 6.289062 C 13.605469 6.320312 13.636719 6.382812 13.632812 6.457031 C 13.632812 6.46875 13.632812 6.480469 13.628906 6.492188 C 13.613281 6.5625 13.566406 6.609375 13.515625 6.621094 C 13.5 6.628906 13.488281 6.625 13.488281 6.625 C 13.472656 6.621094 13.5 6.65625 13.496094 6.660156 C 13.492188 6.660156 13.453125 6.664062 13.46875 6.613281 C 13.480469 6.597656 13.496094 6.589844 13.503906 6.589844 C 13.539062 6.578125 13.570312 6.539062 13.582031 6.480469 C 13.585938 6.472656 13.585938 6.464844 13.585938 6.453125 C 13.589844 6.394531 13.566406 6.347656 13.539062 6.3125 C 13.519531 6.292969 13.503906 6.277344 13.488281 6.269531 C 13.480469 6.261719 13.476562 6.257812 13.472656 6.253906 C 13.464844 6.25 13.464844 6.246094 13.464844 6.246094 Z M 14.339844 7.035156 C 14.339844 7.03125 14.339844 7.03125 14.34375 7.03125 C 14.347656 7.027344 14.351562 7.027344 14.359375 7.027344 C 14.371094 7.023438 14.390625 7.023438 14.410156 7.023438 C 14.453125 7.019531 14.507812 7.019531 14.574219 7.019531 C 14.59375 7.019531 14.613281 7.019531 14.632812 7.019531 C 14.796875 7.019531 14.917969 6.996094 14.921875 7.007812 C 14.925781 7.019531 14.796875 7.070312 14.632812 7.066406 C 14.613281 7.066406 14.589844 7.066406 14.574219 7.066406 C 14.507812 7.066406 14.449219 7.058594 14.410156 7.054688 C 14.386719 7.050781 14.371094 7.046875 14.359375 7.042969 C 14.351562 7.042969 14.347656 7.039062 14.34375 7.039062 C 14.339844 7.039062 14.339844 7.035156 14.339844 7.035156 Z M 8.453125 6.441406 C 8.460938 6.429688 8.570312 6.496094 8.695312 6.585938 C 8.824219 6.675781 8.917969 6.757812 8.910156 6.765625 C 8.902344 6.777344 8.792969 6.714844 8.667969 6.625 C 8.542969 6.535156 8.445312 6.453125 8.453125 6.441406 Z M 7.921875 6.058594 C 7.925781 6.058594 7.929688 6.058594 7.9375 6.0625 C 7.941406 6.066406 7.949219 6.070312 7.960938 6.074219 C 7.976562 6.085938 8 6.105469 8.027344 6.121094 C 8.039062 6.128906 8.050781 6.136719 8.0625 6.144531 C 8.136719 6.191406 8.203125 6.207031 8.203125 6.21875 C 8.203125 6.238281 8.121094 6.242188 8.035156 6.1875 C 8.023438 6.175781 8.011719 6.167969 8 6.160156 C 7.972656 6.136719 7.953125 6.117188 7.9375 6.097656 C 7.929688 6.089844 7.925781 6.082031 7.921875 6.074219 C 7.921875 6.066406 7.917969 6.0625 7.921875 6.058594 Z M 8.03125 5.714844 C 8.03125 5.71875 8.03125 5.71875 8.03125 5.71875 C 8.03125 5.726562 8.054688 5.707031 8.089844 5.722656 C 8.113281 5.722656 8.140625 5.710938 8.183594 5.71875 C 8.214844 5.730469 8.230469 5.753906 8.234375 5.78125 C 8.238281 5.792969 8.238281 5.800781 8.234375 5.8125 C 8.226562 5.867188 8.175781 5.882812 8.144531 5.878906 C 8.136719 5.886719 8.128906 5.878906 8.136719 5.875 C 8.121094 5.894531 8.152344 5.929688 8.148438 5.933594 C 8.140625 5.9375 8.101562 5.933594 8.101562 5.867188 C 8.113281 5.847656 8.132812 5.835938 8.144531 5.839844 C 8.164062 5.835938 8.195312 5.828125 8.1875 5.8125 C 8.183594 5.804688 8.183594 5.796875 8.183594 5.789062 C 8.183594 5.769531 8.179688 5.757812 8.175781 5.765625 C 8.148438 5.757812 8.117188 5.765625 8.085938 5.757812 C 8.050781 5.773438 8.019531 5.722656 8.027344 5.714844 C 8.027344 5.714844 8.03125 5.714844 8.03125 5.714844 Z M 8.03125 5.714844 " fill-opacity="1" fill-rule="nonzero"/><path fill="#ddf9f6" d="M 20.066406 6.910156 C 20.066406 6.910156 20.394531 6.6875 20.59375 6.675781 C 20.792969 6.667969 20.8125 6.820312 20.730469 6.949219 C 20.648438 7.074219 20.277344 7.335938 20.066406 6.910156 Z M 14.644531 6.273438 L 15.316406 6.136719 C 15.316406 6.136719 15.417969 6.460938 15.0625 6.496094 C 14.707031 6.535156 14.492188 6.398438 14.644531 6.273438 Z M 9.765625 6.191406 C 9.765625 6.191406 9.304688 6.011719 9.242188 5.914062 C 9.175781 5.8125 9.078125 6.253906 9.394531 6.378906 C 9.710938 6.507812 9.765625 6.390625 9.765625 6.191406 Z M 9.765625 6.191406 " fill-opacity="1" fill-rule="nonzero"/><g clip-path="url(#a2c4a5ec29)"><path fill="#000000" d="M 26.769531 25.34375 C 26.769531 25.34375 26.511719 25.941406 26.886719 26.042969 C 27.257812 26.144531 27.875 26.09375 27.503906 25.355469 Z M 24.480469 25.355469 C 24.480469 25.355469 24.222656 25.953125 24.59375 26.054688 C 24.96875 26.15625 25.585938 26.105469 25.210938 25.367188 Z M 24.480469 25.355469 " fill-opacity="1" fill-rule="nonzero"/></g><path fill="#bd3d2c" d="M 25.789062 19.394531 L 26.265625 19.394531 L 26.355469 25.378906 L 25.855469 25.367188 L 25.855469 25.289062 C 25.855469 25.289062 26.007812 25.429688 25.984375 24.363281 C 25.957031 23.292969 25.957031 19.636719 25.957031 19.636719 C 25.957031 19.636719 25.894531 19.460938 25.789062 19.394531 Z M 25.789062 19.394531 " fill-opacity="1" fill-rule="nonzero"/><path fill="#ab2513" d="M 24.648438 19.445312 C 24.660156 19.445312 24.6875 20.757812 24.710938 22.375 C 24.730469 23.992188 24.738281 25.304688 24.722656 25.304688 C 24.710938 25.304688 24.683594 23.992188 24.660156 22.375 C 24.640625 20.757812 24.632812 19.449219 24.648438 19.445312 Z M 25.445312 25.328125 C 25.429688 25.328125 25.40625 24.007812 25.394531 22.382812 C 25.378906 20.753906 25.378906 19.433594 25.390625 19.433594 C 25.40625 19.433594 25.429688 20.753906 25.441406 22.382812 C 25.457031 24.007812 25.457031 25.328125 25.445312 25.328125 Z M 26.613281 19.433594 C 26.625 19.433594 26.644531 20.765625 26.65625 22.40625 C 26.667969 24.046875 26.664062 25.378906 26.652344 25.378906 C 26.636719 25.378906 26.617188 24.046875 26.609375 22.40625 C 26.597656 20.765625 26.597656 19.433594 26.613281 19.433594 Z M 27.113281 25.316406 C 27.101562 25.316406 27.082031 23.988281 27.070312 22.351562 C 27.058594 20.710938 27.0625 19.382812 27.074219 19.382812 C 27.089844 19.382812 27.109375 20.710938 27.117188 22.351562 C 27.128906 23.988281 27.125 25.316406 27.113281 25.316406 Z M 23.941406 19.371094 C 23.953125 19.371094 23.980469 20.707031 24.003906 22.351562 C 24.023438 23.992188 24.03125 25.328125 24.019531 25.328125 C 24.003906 25.328125 23.976562 23.996094 23.953125 22.351562 C 23.933594 20.707031 23.925781 19.371094 23.941406 19.371094 Z M 23.941406 19.371094 " fill-opacity="1" fill-rule="nonzero"/><path fill="#4d330a" d="M 8.847656 8 L 9.988281 10.320312 L 9.386719 10.304688 C 9.386719 10.304688 9.410156 9.910156 9.359375 9.734375 C 9.308594 9.554688 8.757812 8.28125 8.757812 8.28125 C 8.757812 8.28125 8.667969 7.964844 8.847656 8 Z M 10.167969 11.949219 L 10.800781 13.605469 C 10.800781 13.605469 11.109375 14.050781 10.167969 14.394531 C 10.167969 14.394531 10.414062 14.035156 10.3125 13.707031 C 10.207031 13.375 9.953125 12.0625 9.953125 12.0625 Z M 8.707031 13.476562 C 8.707031 13.476562 9.230469 13.261719 9.257812 13.082031 C 9.285156 12.902344 9.335938 12.304688 9.335938 12.304688 L 9.027344 12.367188 C 9.027344 12.367188 9.195312 13.132812 8.707031 13.476562 Z M 7.226562 9.59375 L 8.472656 10.179688 C 8.472656 10.179688 8.78125 10.394531 8.410156 10.28125 C 8.039062 10.167969 7.253906 9.734375 7.226562 9.59375 Z M 7.820312 9.070312 C 7.820312 9.070312 8.28125 9.515625 8.539062 9.65625 C 8.796875 9.796875 9 10.101562 8.859375 10.0625 C 8.71875 10.027344 7.820312 9.222656 7.820312 9.070312 Z M 7.820312 9.070312 " fill-opacity="1" fill-rule="nonzero"/><path fill="#703d17" d="M 10.777344 14.589844 C 10.777344 14.585938 10.789062 14.566406 10.796875 14.5625 C 10.804688 14.546875 10.792969 14.535156 10.777344 14.492188 C 10.765625 14.46875 10.769531 14.433594 10.8125 14.402344 C 10.84375 14.386719 10.871094 14.386719 10.890625 14.382812 C 10.941406 14.375 10.988281 14.347656 11.03125 14.304688 C 11.050781 14.285156 11.066406 14.265625 11.078125 14.242188 C 11.183594 14.066406 11.257812 13.945312 11.28125 13.941406 C 11.285156 13.941406 11.285156 13.941406 11.285156 13.941406 C 11.285156 13.941406 11.285156 13.941406 11.285156 13.945312 C 11.304688 13.960938 11.257812 14.121094 11.164062 14.289062 C 11.148438 14.320312 11.128906 14.347656 11.101562 14.371094 C 11.046875 14.429688 10.976562 14.464844 10.90625 14.472656 C 10.871094 14.476562 10.851562 14.472656 10.835938 14.476562 C 10.84375 14.457031 10.847656 14.464844 10.84375 14.472656 C 10.863281 14.519531 10.847656 14.566406 10.824219 14.585938 C 10.800781 14.617188 10.777344 14.597656 10.777344 14.589844 Z M 6.488281 14.394531 C 6.488281 14.378906 6.828125 14.347656 7.363281 14.3125 C 7.53125 14.296875 7.746094 14.28125 7.945312 14.25 C 8.007812 14.238281 8.066406 14.230469 8.125 14.210938 C 8.140625 14.207031 8.152344 14.203125 8.15625 14.199219 C 8.152344 14.195312 8.152344 14.207031 8.152344 14.234375 C 8.113281 14.132812 8.070312 14.027344 8.03125 13.921875 C 8.089844 13.976562 8.148438 14.027344 8.210938 14.082031 C 8.238281 14.113281 8.269531 14.136719 8.304688 14.160156 C 8.394531 14.21875 8.496094 14.253906 8.59375 14.253906 C 8.949219 14.253906 9.261719 14.375 9.507812 14.296875 C 9.601562 14.273438 9.6875 14.292969 9.761719 14.320312 C 9.792969 14.347656 9.835938 14.289062 9.875 14.246094 C 9.933594 14.164062 9.988281 14.046875 10.027344 13.972656 C 10.03125 13.960938 10.039062 13.949219 10.046875 13.933594 C 10.046875 13.925781 10.0625 13.917969 10.09375 13.914062 C 10.117188 13.929688 10.125 13.949219 10.121094 13.953125 C 10.125 13.976562 10.125 13.996094 10.125 14.011719 C 10.132812 14.105469 10.132812 14.167969 10.128906 14.21875 C 10.128906 14.238281 10.128906 14.253906 10.128906 14.265625 C 10.125 14.277344 10.125 14.28125 10.121094 14.285156 C 10.117188 14.28125 10.117188 14.277344 10.113281 14.265625 C 10.113281 14.257812 10.109375 14.238281 10.105469 14.21875 C 10.101562 14.191406 10.089844 14.089844 10.082031 14.015625 C 10.078125 14 10.074219 13.980469 10.070312 13.964844 C 10.058594 13.953125 10.070312 13.957031 10.078125 13.964844 C 10.097656 13.960938 10.101562 13.964844 10.09375 13.964844 C 10.085938 13.972656 10.082031 13.984375 10.078125 13.996094 C 10.042969 14.070312 9.996094 14.191406 9.933594 14.285156 C 9.902344 14.34375 9.832031 14.414062 9.734375 14.394531 C 9.667969 14.371094 9.597656 14.355469 9.535156 14.378906 C 9.25 14.464844 8.917969 14.351562 8.59375 14.351562 C 8.472656 14.351562 8.347656 14.308594 8.242188 14.238281 C 8.203125 14.210938 8.167969 14.179688 8.132812 14.148438 C 8.101562 14.074219 8.066406 14 8.035156 13.925781 C 8.105469 14.015625 8.171875 14.105469 8.238281 14.191406 C 8.246094 14.234375 8.234375 14.265625 8.214844 14.273438 C 8.191406 14.289062 8.167969 14.296875 8.152344 14.300781 C 8.085938 14.320312 8.019531 14.332031 7.960938 14.339844 C 7.75 14.367188 7.539062 14.378906 7.367188 14.386719 C 6.832031 14.40625 6.488281 14.40625 6.488281 14.394531 Z M 8.632812 13.472656 C 8.648438 13.453125 8.796875 13.558594 8.964844 13.703125 C 8.980469 13.691406 8.996094 13.683594 9.011719 13.671875 C 9.058594 13.644531 9.105469 13.617188 9.148438 13.59375 C 9.210938 13.5625 9.265625 13.53125 9.308594 13.511719 C 9.378906 13.472656 9.425781 13.453125 9.429688 13.457031 C 9.445312 13.46875 9.414062 13.511719 9.347656 13.566406 C 9.304688 13.601562 9.253906 13.636719 9.191406 13.671875 C 9.140625 13.699219 9.082031 13.726562 9.019531 13.753906 C 8.996094 13.765625 8.976562 13.777344 8.953125 13.785156 C 8.75 13.625 8.613281 13.496094 8.632812 13.472656 Z M 9.285156 12.320312 C 9.289062 12.320312 9.289062 12.320312 9.296875 12.320312 C 9.300781 12.320312 9.304688 12.320312 9.3125 12.324219 C 9.328125 12.328125 9.347656 12.335938 9.371094 12.34375 C 9.410156 12.363281 9.46875 12.398438 9.527344 12.441406 C 9.578125 12.476562 9.636719 12.523438 9.683594 12.582031 C 9.71875 12.621094 9.757812 12.683594 9.753906 12.757812 C 9.75 12.765625 9.75 12.773438 9.746094 12.78125 C 9.722656 12.875 9.679688 12.957031 9.613281 13.023438 C 9.742188 12.835938 9.851562 12.722656 9.867188 12.734375 C 9.882812 12.75 9.78125 12.871094 9.613281 13.023438 C 9.648438 12.960938 9.65625 12.878906 9.652344 12.777344 C 9.652344 12.765625 9.652344 12.757812 9.652344 12.75 C 9.660156 12.71875 9.632812 12.679688 9.609375 12.640625 C 9.570312 12.589844 9.519531 12.542969 9.476562 12.503906 C 9.425781 12.453125 9.375 12.414062 9.34375 12.386719 C 9.324219 12.371094 9.308594 12.355469 9.300781 12.34375 C 9.292969 12.339844 9.289062 12.335938 9.289062 12.332031 C 9.285156 12.328125 9.285156 12.324219 9.285156 12.320312 Z M 6.453125 10.054688 C 6.460938 10.054688 6.460938 10.199219 6.453125 10.441406 C 6.476562 10.632812 6.5625 10.902344 6.808594 11.066406 C 6.929688 11.207031 7.0625 11.359375 7.203125 11.523438 C 7.371094 11.691406 7.582031 11.875 7.816406 11.960938 C 7.882812 11.980469 7.949219 11.996094 8.019531 12.003906 C 8.59375 12.046875 9 12.117188 9.335938 11.875 C 9.519531 11.746094 9.730469 11.636719 9.855469 11.570312 C 9.945312 11.519531 10.023438 11.484375 10.078125 11.457031 C 10.105469 11.445312 10.128906 11.433594 10.148438 11.429688 C 10.15625 11.425781 10.164062 11.421875 10.167969 11.421875 C 10.171875 11.421875 10.175781 11.421875 10.175781 11.421875 C 10.175781 11.421875 10.171875 11.425781 10.171875 11.429688 C 10.167969 11.433594 10.160156 11.4375 10.152344 11.441406 C 10.140625 11.453125 10.117188 11.464844 10.089844 11.484375 C 10.039062 11.515625 9.96875 11.558594 9.878906 11.613281 C 9.765625 11.683594 9.550781 11.8125 9.382812 11.9375 C 9.019531 12.203125 8.578125 12.15625 8.007812 12.101562 C 7.933594 12.09375 7.855469 12.078125 7.785156 12.050781 C 7.519531 11.957031 7.300781 11.761719 7.132812 11.589844 C 6.996094 11.425781 6.867188 11.269531 6.75 11.128906 C 6.488281 10.933594 6.410156 10.644531 6.398438 10.445312 C 6.421875 10.195312 6.441406 10.054688 6.453125 10.054688 Z M 9.285156 12.035156 C 9.289062 12.007812 9.449219 12 9.652344 12.019531 C 9.65625 12.019531 9.660156 12.019531 9.664062 12.023438 C 9.71875 12.027344 9.871094 12.039062 9.898438 12.042969 C 9.949219 12.046875 9.945312 12.046875 9.984375 12.046875 C 10.015625 12.042969 10.023438 12.046875 10.03125 12.050781 C 10.035156 12.054688 10.039062 12.085938 9.992188 12.097656 C 9.96875 12.105469 9.9375 12.113281 9.902344 12.117188 C 9.832031 12.128906 9.75 12.128906 9.65625 12.121094 C 9.652344 12.121094 9.648438 12.121094 9.640625 12.121094 C 9.441406 12.097656 9.28125 12.0625 9.285156 12.035156 Z M 10.921875 10.648438 C 10.933594 10.648438 10.933594 10.683594 10.949219 10.730469 C 10.960938 10.757812 10.988281 10.796875 11.023438 10.800781 C 11.066406 10.804688 11.121094 10.84375 11.125 10.921875 C 11.121094 10.945312 11.117188 10.964844 11.113281 10.984375 C 11.101562 11.011719 11.097656 11.039062 11.097656 11.0625 C 11.09375 11.128906 11.074219 11.21875 11.066406 11.253906 C 11.0625 11.3125 11.085938 11.335938 11.085938 11.351562 C 11.082031 11.363281 10.992188 11.34375 10.996094 11.25 C 10.992188 11.195312 11 11.128906 11 11.0625 C 11 11.023438 11.007812 10.988281 11.015625 10.957031 C 11.019531 10.9375 11.023438 10.917969 11.027344 10.902344 C 11.050781 10.910156 11.019531 10.902344 11 10.890625 C 10.917969 10.859375 10.890625 10.789062 10.886719 10.742188 C 10.886719 10.675781 10.910156 10.644531 10.921875 10.648438 Z M 7.6875 10.289062 C 7.691406 10.273438 7.8125 10.28125 7.996094 10.308594 C 8.113281 10.320312 8.300781 10.351562 8.429688 10.296875 C 8.445312 10.289062 8.460938 10.28125 8.480469 10.277344 C 8.636719 10.21875 8.792969 10.203125 8.921875 10.210938 C 9.035156 10.214844 9.132812 10.234375 9.195312 10.253906 C 9.230469 10.261719 9.257812 10.273438 9.277344 10.28125 C 9.292969 10.289062 9.304688 10.300781 9.304688 10.304688 C 9.304688 10.304688 9.304688 10.304688 9.304688 10.308594 C 9.300781 10.308594 9.289062 10.3125 9.269531 10.308594 C 9.25 10.308594 9.21875 10.304688 9.1875 10.304688 C 9.121094 10.296875 9.03125 10.289062 8.921875 10.292969 C 8.800781 10.296875 8.65625 10.316406 8.511719 10.371094 C 8.5 10.375 8.484375 10.382812 8.46875 10.386719 C 8.292969 10.457031 8.097656 10.410156 7.984375 10.386719 C 7.800781 10.339844 7.683594 10.304688 7.6875 10.289062 Z M 6.5625 9.261719 C 6.558594 9.261719 6.558594 9.257812 6.558594 9.257812 C 6.558594 9.253906 6.5625 9.25 6.5625 9.246094 C 6.566406 9.238281 6.570312 9.226562 6.574219 9.210938 C 6.585938 9.183594 6.605469 9.144531 6.632812 9.09375 C 6.679688 9.007812 6.753906 8.882812 6.855469 8.75 C 6.933594 8.644531 7.035156 8.515625 7.171875 8.414062 C 7.265625 8.335938 7.398438 8.265625 7.546875 8.277344 C 7.722656 8.296875 7.914062 8.335938 8.089844 8.414062 C 8.207031 8.464844 8.308594 8.527344 8.398438 8.605469 C 8.746094 8.917969 8.851562 9.363281 8.890625 9.636719 C 8.929688 9.929688 8.917969 10.105469 8.90625 10.109375 C 8.890625 10.109375 8.882812 9.933594 8.824219 9.648438 C 8.769531 9.382812 8.65625 8.957031 8.332031 8.679688 C 8.25 8.605469 8.15625 8.550781 8.050781 8.503906 C 7.886719 8.433594 7.703125 8.394531 7.535156 8.371094 C 7.429688 8.355469 7.316406 8.417969 7.222656 8.484375 C 7.097656 8.574219 6.992188 8.695312 6.910156 8.792969 C 6.808594 8.917969 6.722656 9.039062 6.667969 9.117188 C 6.636719 9.160156 6.613281 9.199219 6.59375 9.222656 C 6.585938 9.234375 6.578125 9.246094 6.574219 9.253906 C 6.570312 9.253906 6.566406 9.257812 6.566406 9.257812 C 6.5625 9.261719 6.5625 9.261719 6.5625 9.261719 Z M 5.941406 9.476562 C 5.972656 9.476562 6.011719 9.84375 6.039062 10.304688 C 6.0625 10.761719 6.0625 11.132812 6.035156 11.132812 C 6.007812 11.136719 5.964844 10.765625 5.9375 10.308594 C 5.914062 9.851562 5.914062 9.480469 5.941406 9.476562 Z M 8.742188 8.449219 C 8.738281 8.453125 8.734375 8.449219 8.730469 8.449219 C 8.730469 8.445312 8.726562 8.441406 8.722656 8.4375 C 8.714844 8.425781 8.707031 8.414062 8.699219 8.394531 C 8.6875 8.363281 8.671875 8.316406 8.664062 8.257812 C 8.660156 8.21875 8.660156 8.160156 8.683594 8.101562 C 8.710938 8.050781 8.761719 8.011719 8.828125 8.003906 C 8.839844 8.003906 8.855469 8.003906 8.867188 8 C 8.972656 7.992188 9.058594 7.976562 9.140625 7.964844 C 9.277344 7.933594 9.347656 7.898438 9.359375 7.910156 C 9.378906 7.929688 9.300781 8 9.160156 8.042969 C 9.078125 8.070312 8.984375 8.089844 8.878906 8.101562 C 8.863281 8.101562 8.851562 8.101562 8.835938 8.105469 C 8.808594 8.105469 8.777344 8.121094 8.769531 8.144531 C 8.75 8.175781 8.746094 8.21875 8.742188 8.257812 C 8.742188 8.304688 8.746094 8.355469 8.746094 8.382812 C 8.75 8.402344 8.75 8.417969 8.75 8.429688 C 8.746094 8.433594 8.746094 8.441406 8.746094 8.445312 C 8.746094 8.449219 8.742188 8.449219 8.742188 8.449219 Z M 6.414062 7.371094 C 6.414062 7.398438 6.3125 7.421875 6.1875 7.421875 C 6.0625 7.421875 5.960938 7.398438 5.960938 7.371094 C 5.960938 7.34375 6.0625 7.320312 6.1875 7.320312 C 6.3125 7.320312 6.414062 7.34375 6.414062 7.371094 Z M 6.234375 7.585938 C 6.25 7.601562 6.183594 7.691406 6.082031 7.800781 C 6.058594 7.820312 6.035156 7.839844 6.011719 7.863281 C 5.855469 7.992188 5.703125 8.050781 5.6875 8.019531 C 5.675781 7.992188 5.800781 7.910156 5.945312 7.789062 C 5.96875 7.765625 5.992188 7.746094 6.015625 7.730469 C 6.125 7.632812 6.21875 7.570312 6.234375 7.585938 Z M 5.886719 8.21875 C 5.890625 8.21875 5.890625 8.222656 5.886719 8.222656 C 5.886719 8.226562 5.886719 8.230469 5.882812 8.234375 C 5.878906 8.242188 5.867188 8.253906 5.855469 8.265625 C 5.832031 8.289062 5.800781 8.324219 5.757812 8.363281 C 5.683594 8.433594 5.574219 8.535156 5.476562 8.644531 C 5.464844 8.660156 5.449219 8.671875 5.4375 8.6875 C 5.355469 8.78125 5.300781 8.859375 5.269531 8.949219 C 5.253906 9 5.253906 9.039062 5.261719 9.074219 C 5.28125 9.160156 5.351562 9.195312 5.34375 9.207031 C 5.335938 9.21875 5.253906 9.210938 5.199219 9.097656 C 5.179688 9.050781 5.171875 8.992188 5.1875 8.929688 C 5.214844 8.820312 5.273438 8.71875 5.363281 8.621094 C 5.375 8.605469 5.386719 8.59375 5.402344 8.578125 C 5.507812 8.460938 5.625 8.367188 5.710938 8.308594 C 5.761719 8.273438 5.800781 8.25 5.832031 8.234375 C 5.847656 8.226562 5.859375 8.21875 5.871094 8.21875 C 5.875 8.214844 5.878906 8.214844 5.882812 8.214844 C 5.886719 8.214844 5.886719 8.214844 5.886719 8.21875 Z M 5.886719 8.21875 " fill-opacity="1" fill-rule="nonzero"/><path fill="#082147" d="M 13.597656 7.65625 C 13.613281 7.671875 13.566406 7.738281 13.488281 7.824219 C 13.46875 7.839844 13.445312 7.855469 13.417969 7.871094 C 13.261719 7.960938 13.132812 7.910156 13.136719 7.886719 C 13.140625 7.863281 13.253906 7.867188 13.375 7.800781 C 13.398438 7.789062 13.417969 7.777344 13.4375 7.761719 C 13.519531 7.691406 13.585938 7.644531 13.597656 7.65625 Z M 14.628906 8.472656 C 14.628906 8.472656 14.628906 8.46875 14.632812 8.46875 C 14.636719 8.46875 14.644531 8.46875 14.648438 8.46875 C 14.660156 8.46875 14.679688 8.46875 14.703125 8.472656 C 14.742188 8.472656 14.796875 8.480469 14.863281 8.484375 C 14.945312 8.488281 15.09375 8.507812 15.171875 8.453125 C 15.21875 8.417969 15.273438 8.402344 15.296875 8.371094 C 15.289062 8.378906 15.292969 8.386719 15.300781 8.402344 C 15.296875 8.398438 15.292969 8.398438 15.285156 8.394531 C 15.277344 8.390625 15.265625 8.390625 15.257812 8.382812 C 15.242188 8.371094 15.242188 8.355469 15.261719 8.34375 C 15.257812 8.34375 15.265625 8.34375 15.265625 8.347656 C 15.289062 8.347656 15.316406 8.347656 15.34375 8.347656 C 15.429688 8.378906 15.5 8.410156 15.546875 8.378906 C 15.753906 8.269531 15.875 8.167969 15.886719 8.179688 C 15.898438 8.191406 15.789062 8.320312 15.582031 8.441406 C 15.496094 8.484375 15.398438 8.460938 15.316406 8.425781 C 15.289062 8.402344 15.261719 8.382812 15.234375 8.351562 C 15.230469 8.347656 15.222656 8.339844 15.226562 8.335938 C 15.261719 8.320312 15.28125 8.316406 15.28125 8.304688 C 15.292969 8.308594 15.304688 8.3125 15.316406 8.316406 C 15.328125 8.324219 15.339844 8.328125 15.351562 8.339844 C 15.375 8.367188 15.375 8.398438 15.359375 8.421875 C 15.3125 8.472656 15.25 8.496094 15.214844 8.519531 C 15.089844 8.589844 14.9375 8.558594 14.855469 8.542969 C 14.789062 8.53125 14.734375 8.515625 14.695312 8.503906 C 14.671875 8.496094 14.65625 8.492188 14.644531 8.488281 C 14.640625 8.484375 14.636719 8.480469 14.632812 8.480469 C 14.628906 8.476562 14.628906 8.472656 14.628906 8.472656 Z M 15.027344 7.632812 C 15.039062 7.625 15.097656 7.652344 15.171875 7.605469 C 15.203125 7.582031 15.222656 7.535156 15.277344 7.488281 C 15.304688 7.46875 15.339844 7.46875 15.371094 7.488281 C 15.371094 7.488281 15.375 7.492188 15.378906 7.496094 C 15.414062 7.523438 15.429688 7.558594 15.445312 7.585938 C 15.535156 7.746094 15.554688 7.867188 15.539062 7.875 C 15.523438 7.882812 15.464844 7.761719 15.375 7.628906 C 15.359375 7.601562 15.34375 7.570312 15.324219 7.554688 C 15.324219 7.554688 15.320312 7.554688 15.320312 7.550781 C 15.324219 7.554688 15.320312 7.550781 15.328125 7.550781 C 15.292969 7.578125 15.261719 7.628906 15.210938 7.660156 C 15.101562 7.734375 15.015625 7.640625 15.027344 7.632812 Z M 15.320312 8.460938 C 15.324219 8.460938 15.324219 8.464844 15.324219 8.46875 C 15.324219 8.472656 15.324219 8.480469 15.320312 8.488281 C 15.320312 8.503906 15.316406 8.523438 15.308594 8.550781 C 15.296875 8.601562 15.28125 8.675781 15.269531 8.761719 C 15.25 8.886719 15.234375 9.066406 15.285156 9.226562 C 15.292969 9.246094 15.300781 9.265625 15.308594 9.285156 C 15.398438 9.484375 15.453125 9.628906 15.480469 9.773438 C 15.503906 9.90625 15.5 9.988281 15.488281 9.988281 C 15.464844 9.988281 15.398438 9.6875 15.230469 9.316406 C 15.222656 9.296875 15.214844 9.273438 15.207031 9.25 C 15.148438 9.066406 15.175781 8.878906 15.203125 8.746094 C 15.226562 8.660156 15.25 8.589844 15.273438 8.539062 C 15.285156 8.511719 15.292969 8.492188 15.300781 8.480469 C 15.304688 8.472656 15.308594 8.46875 15.3125 8.464844 C 15.316406 8.460938 15.320312 8.460938 15.320312 8.460938 Z M 15.191406 10.355469 C 15.171875 10.351562 15.210938 10.152344 15.28125 9.914062 C 15.285156 9.902344 15.289062 9.890625 15.292969 9.878906 C 15.300781 9.652344 15.324219 9.472656 15.34375 9.464844 C 15.347656 9.464844 15.347656 9.464844 15.347656 9.464844 C 15.371094 9.472656 15.378906 9.65625 15.375 9.890625 C 15.371094 9.902344 15.367188 9.914062 15.363281 9.929688 C 15.289062 10.171875 15.214844 10.363281 15.191406 10.355469 Z M 15.449219 8.421875 C 15.453125 8.421875 15.449219 8.425781 15.457031 8.4375 C 15.460938 8.449219 15.464844 8.457031 15.476562 8.480469 C 15.515625 8.5625 15.542969 8.601562 15.628906 8.738281 C 15.691406 8.828125 15.777344 8.925781 15.863281 9.046875 C 15.917969 9.121094 15.957031 9.203125 15.992188 9.296875 C 16.007812 9.339844 16.019531 9.386719 16.027344 9.429688 C 16.144531 9.921875 16.164062 10.316406 16.144531 10.320312 C 16.121094 10.320312 16.070312 9.9375 15.949219 9.449219 C 15.9375 9.40625 15.925781 9.367188 15.910156 9.324219 C 15.882812 9.238281 15.84375 9.160156 15.796875 9.089844 C 15.71875 8.972656 15.632812 8.867188 15.578125 8.769531 C 15.503906 8.640625 15.46875 8.566406 15.449219 8.492188 C 15.441406 8.46875 15.441406 8.453125 15.441406 8.4375 C 15.445312 8.425781 15.445312 8.421875 15.449219 8.421875 Z M 15.578125 8.601562 C 15.582031 8.582031 15.699219 8.589844 15.84375 8.683594 C 15.902344 8.722656 15.960938 8.773438 16.011719 8.839844 C 16.023438 8.851562 16.03125 8.863281 16.039062 8.878906 C 16.09375 8.945312 16.128906 9.027344 16.097656 9.109375 C 16 9.273438 15.867188 9.132812 15.875 9.121094 C 15.882812 9.109375 16.035156 9.175781 16.03125 9.085938 C 16.050781 9.042969 16.015625 8.992188 15.972656 8.925781 C 15.964844 8.914062 15.957031 8.902344 15.945312 8.890625 C 15.898438 8.832031 15.851562 8.78125 15.800781 8.746094 C 15.675781 8.652344 15.574219 8.617188 15.578125 8.601562 Z M 15.230469 8.652344 C 15.234375 8.652344 15.234375 8.65625 15.234375 8.664062 C 15.234375 8.667969 15.230469 8.675781 15.226562 8.683594 C 15.222656 8.703125 15.210938 8.726562 15.199219 8.757812 C 15.179688 8.8125 15.144531 8.882812 15.113281 8.964844 C 15.09375 9.019531 15.066406 9.082031 15.054688 9.140625 C 15.050781 9.152344 15.050781 9.160156 15.050781 9.167969 C 15.046875 9.191406 15.042969 9.210938 15.050781 9.226562 C 15.050781 9.230469 15.054688 9.238281 15.058594 9.238281 C 15.082031 9.242188 15.105469 9.238281 15.117188 9.222656 C 15.140625 9.207031 15.152344 9.171875 15.160156 9.144531 C 15.175781 9.054688 15.191406 8.996094 15.203125 8.996094 C 15.207031 8.996094 15.207031 8.996094 15.207031 8.996094 C 15.21875 9 15.222656 9.058594 15.21875 9.15625 C 15.214844 9.1875 15.203125 9.234375 15.171875 9.273438 C 15.140625 9.304688 15.09375 9.324219 15.042969 9.3125 C 15.007812 9.304688 14.984375 9.28125 14.972656 9.25 C 14.960938 9.214844 14.960938 9.183594 14.96875 9.15625 C 14.96875 9.144531 14.972656 9.136719 14.972656 9.125 C 14.988281 9.054688 15.015625 8.988281 15.042969 8.933594 C 15.082031 8.851562 15.125 8.78125 15.15625 8.734375 C 15.175781 8.707031 15.191406 8.683594 15.203125 8.671875 C 15.210938 8.664062 15.214844 8.65625 15.21875 8.65625 C 15.226562 8.652344 15.230469 8.648438 15.230469 8.652344 Z M 15.230469 8.652344 " fill-opacity="1" fill-rule="nonzero"/><path fill="#0d43c9" d="M 13.433594 8 C 13.433594 8 13.4375 8 13.441406 8 C 13.449219 8.003906 13.457031 8.003906 13.46875 8.007812 C 13.488281 8.011719 13.519531 8.019531 13.558594 8.035156 C 13.628906 8.058594 13.730469 8.101562 13.84375 8.167969 C 14.039062 8.285156 14.296875 8.496094 14.40625 8.820312 C 14.503906 9.125 14.621094 9.382812 14.714844 9.589844 C 14.835938 9.84375 14.917969 10.011719 14.910156 10.011719 C 14.902344 10.015625 14.8125 9.859375 14.683594 9.605469 C 14.578125 9.402344 14.460938 9.140625 14.359375 8.835938 C 14.257812 8.527344 14.015625 8.320312 13.824219 8.199219 C 13.714844 8.128906 13.617188 8.085938 13.550781 8.054688 C 13.511719 8.039062 13.484375 8.027344 13.464844 8.015625 C 13.453125 8.011719 13.445312 8.011719 13.441406 8.007812 C 13.433594 8.003906 13.433594 8.003906 13.433594 8 Z M 13.84375 9.542969 C 13.839844 9.53125 13.953125 9.472656 14.105469 9.40625 C 14.121094 9.398438 14.136719 9.390625 14.152344 9.386719 C 14.253906 9.34375 14.328125 9.320312 14.398438 9.324219 C 14.464844 9.324219 14.5 9.347656 14.5 9.351562 C 14.496094 9.359375 14.460938 9.347656 14.402344 9.355469 C 14.332031 9.367188 14.277344 9.390625 14.171875 9.429688 C 14.15625 9.4375 14.140625 9.445312 14.125 9.449219 C 13.96875 9.511719 13.847656 9.554688 13.84375 9.542969 Z M 13.175781 8.585938 C 13.183594 8.585938 13.269531 8.730469 13.40625 8.964844 C 13.480469 9.101562 13.621094 9.34375 13.625 9.582031 C 13.625 9.660156 13.613281 9.742188 13.605469 9.824219 C 13.597656 9.867188 13.59375 9.890625 13.589844 9.933594 C 13.582031 10.015625 13.582031 10.09375 13.621094 10.15625 C 13.648438 10.199219 13.691406 10.246094 13.699219 10.3125 C 13.691406 10.371094 13.628906 10.394531 13.59375 10.402344 C 13.582031 10.402344 13.578125 10.421875 13.585938 10.429688 C 13.601562 10.460938 13.632812 10.488281 13.65625 10.515625 C 13.683594 10.546875 13.710938 10.578125 13.726562 10.621094 C 13.738281 10.664062 13.714844 10.707031 13.683594 10.726562 C 13.609375 10.773438 13.539062 10.792969 13.488281 10.796875 C 13.464844 10.800781 13.445312 10.800781 13.429688 10.796875 C 13.417969 10.796875 13.410156 10.792969 13.40625 10.789062 C 13.410156 10.789062 13.417969 10.789062 13.429688 10.789062 C 13.445312 10.789062 13.460938 10.785156 13.488281 10.78125 C 13.535156 10.773438 13.597656 10.75 13.667969 10.699219 C 13.6875 10.6875 13.703125 10.65625 13.695312 10.632812 C 13.683594 10.597656 13.65625 10.574219 13.628906 10.542969 C 13.605469 10.515625 13.570312 10.488281 13.550781 10.453125 C 13.535156 10.421875 13.542969 10.382812 13.578125 10.363281 C 13.613281 10.34375 13.664062 10.332031 13.652344 10.3125 C 13.652344 10.269531 13.609375 10.234375 13.578125 10.175781 C 13.535156 10.101562 13.53125 10.015625 13.542969 9.925781 C 13.546875 9.890625 13.550781 9.855469 13.554688 9.820312 C 13.566406 9.734375 13.574219 9.660156 13.574219 9.582031 C 13.578125 9.363281 13.441406 9.121094 13.371094 8.980469 C 13.246094 8.742188 13.167969 8.589844 13.175781 8.585938 Z M 14.664062 9.707031 C 14.679688 9.707031 14.722656 10.054688 14.765625 10.488281 C 14.808594 10.921875 14.832031 11.273438 14.820312 11.273438 C 14.808594 11.273438 14.761719 10.925781 14.71875 10.492188 C 14.675781 10.0625 14.652344 9.710938 14.664062 9.707031 Z M 12.300781 12.890625 C 12.304688 12.878906 12.867188 12.945312 13.558594 13.039062 C 14.25 13.132812 14.808594 13.222656 14.808594 13.234375 C 14.804688 13.246094 14.242188 13.179688 13.550781 13.085938 C 12.859375 12.992188 12.300781 12.902344 12.300781 12.890625 Z M 14.664062 12.28125 C 14.679688 12.28125 14.691406 12.464844 14.695312 12.691406 C 14.699219 12.921875 14.691406 13.105469 14.679688 13.105469 C 14.664062 13.105469 14.652344 12.921875 14.648438 12.695312 C 14.644531 12.464844 14.652344 12.28125 14.664062 12.28125 Z M 12.558594 12.929688 C 12.554688 12.929688 12.53125 12.90625 12.519531 12.851562 C 12.515625 12.8125 12.542969 12.753906 12.609375 12.746094 C 12.679688 12.738281 12.796875 12.667969 12.765625 12.566406 C 12.753906 12.507812 12.734375 12.453125 12.710938 12.394531 C 12.710938 12.394531 12.707031 12.382812 12.707031 12.382812 C 12.699219 12.355469 12.6875 12.332031 12.679688 12.308594 C 12.683594 12.296875 12.6875 12.285156 12.691406 12.273438 C 12.691406 12.269531 12.691406 12.265625 12.691406 12.265625 C 12.691406 12.265625 12.691406 12.265625 12.695312 12.265625 C 12.695312 12.269531 12.699219 12.269531 12.703125 12.273438 C 12.710938 12.28125 12.722656 12.289062 12.734375 12.296875 C 12.75 12.324219 12.769531 12.351562 12.789062 12.375 C 12.8125 12.402344 12.832031 12.425781 12.859375 12.4375 C 12.878906 12.445312 12.90625 12.445312 12.917969 12.429688 C 12.953125 12.402344 12.976562 12.367188 12.992188 12.335938 C 13.027344 12.257812 13.082031 12.25 13.085938 12.253906 C 13.089844 12.257812 13.035156 12.277344 13.015625 12.34375 C 13.003906 12.378906 12.984375 12.421875 12.945312 12.457031 C 12.917969 12.480469 12.878906 12.488281 12.84375 12.472656 C 12.808594 12.457031 12.78125 12.433594 12.753906 12.40625 C 12.734375 12.378906 12.710938 12.351562 12.691406 12.320312 C 12.691406 12.308594 12.6875 12.296875 12.6875 12.285156 C 12.6875 12.28125 12.6875 12.277344 12.683594 12.273438 C 12.683594 12.273438 12.683594 12.273438 12.683594 12.269531 C 12.6875 12.273438 12.691406 12.273438 12.691406 12.277344 C 12.691406 12.277344 12.722656 12.289062 12.722656 12.289062 C 12.734375 12.3125 12.742188 12.339844 12.753906 12.363281 C 12.753906 12.367188 12.757812 12.375 12.757812 12.378906 C 12.78125 12.4375 12.800781 12.496094 12.8125 12.554688 C 12.835938 12.699219 12.699219 12.773438 12.613281 12.78125 C 12.566406 12.78125 12.539062 12.820312 12.542969 12.847656 C 12.546875 12.898438 12.5625 12.925781 12.558594 12.929688 Z M 16.503906 9.058594 C 16.511719 9.054688 16.582031 9.175781 16.667969 9.347656 C 16.679688 9.371094 16.710938 9.433594 16.726562 9.457031 C 16.839844 9.679688 16.949219 9.851562 16.941406 9.859375 C 16.929688 9.867188 16.800781 9.707031 16.679688 9.480469 C 16.660156 9.441406 16.640625 9.402344 16.625 9.367188 C 16.542969 9.191406 16.492188 9.0625 16.503906 9.058594 Z M 16.632812 9.566406 C 16.644531 9.566406 16.667969 9.890625 16.679688 10.285156 C 16.695312 10.683594 16.695312 11.007812 16.683594 11.007812 C 16.667969 11.007812 16.648438 10.683594 16.632812 10.289062 C 16.617188 9.890625 16.617188 9.566406 16.632812 9.566406 Z M 16.941406 12.46875 C 16.9375 12.457031 16.996094 12.4375 17.070312 12.425781 C 17.144531 12.417969 17.207031 12.417969 17.210938 12.433594 C 17.210938 12.445312 17.152344 12.464844 17.078125 12.476562 C 17.003906 12.484375 16.941406 12.484375 16.941406 12.46875 Z M 16.015625 7.671875 C 16.015625 7.671875 16.015625 7.671875 16.019531 7.671875 C 16.019531 7.671875 16.023438 7.671875 16.027344 7.671875 C 16.035156 7.671875 16.046875 7.675781 16.058594 7.679688 C 16.085938 7.6875 16.125 7.699219 16.171875 7.714844 C 16.257812 7.742188 16.378906 7.78125 16.511719 7.832031 C 16.609375 7.871094 16.734375 7.917969 16.851562 7.980469 C 16.886719 7.996094 16.925781 8.019531 16.964844 8.046875 C 16.984375 8.054688 17.007812 8.078125 17.015625 8.117188 C 17.015625 8.207031 17.015625 8.300781 17.015625 8.398438 C 17.011719 8.597656 17.007812 8.808594 17.007812 8.976562 C 17 9.4375 16.988281 9.753906 16.976562 9.757812 C 16.96875 9.753906 16.960938 9.4375 16.960938 8.976562 C 16.960938 8.792969 16.964844 8.617188 16.964844 8.398438 C 16.964844 8.300781 16.96875 8.207031 16.96875 8.117188 C 16.972656 8.109375 16.953125 8.101562 16.933594 8.082031 C 16.902344 8.058594 16.863281 8.039062 16.828125 8.019531 C 16.714844 7.960938 16.59375 7.910156 16.496094 7.867188 C 16.371094 7.816406 16.242188 7.765625 16.164062 7.734375 C 16.117188 7.71875 16.082031 7.703125 16.054688 7.691406 C 16.042969 7.6875 16.03125 7.679688 16.027344 7.679688 C 16.023438 7.675781 16.019531 7.675781 16.015625 7.671875 Z M 17.042969 8.753906 C 17.046875 8.742188 17.101562 8.753906 17.171875 8.742188 C 17.238281 8.730469 17.292969 8.703125 17.300781 8.714844 C 17.304688 8.722656 17.265625 8.773438 17.179688 8.789062 C 17.09375 8.800781 17.039062 8.765625 17.042969 8.753906 Z M 17.941406 7.746094 C 17.941406 7.734375 18.074219 7.742188 18.246094 7.765625 C 18.261719 7.765625 18.28125 7.769531 18.296875 7.769531 C 18.367188 7.777344 18.421875 7.777344 18.480469 7.78125 C 18.582031 7.78125 18.644531 7.765625 18.648438 7.773438 C 18.652344 7.78125 18.582031 7.816406 18.480469 7.820312 C 18.421875 7.824219 18.363281 7.824219 18.292969 7.816406 C 18.273438 7.816406 18.257812 7.8125 18.242188 7.8125 C 18.070312 7.785156 17.941406 7.757812 17.941406 7.746094 Z M 18.328125 7.074219 C 18.324219 7.082031 18.183594 7.042969 18.003906 6.976562 C 17.984375 6.96875 17.960938 6.957031 17.9375 6.945312 C 17.875 6.914062 17.820312 6.878906 17.777344 6.839844 C 17.664062 6.75 17.644531 6.65625 17.660156 6.652344 C 17.667969 6.648438 17.699219 6.730469 17.804688 6.808594 C 17.847656 6.839844 17.898438 6.871094 17.957031 6.902344 C 17.980469 6.914062 18.003906 6.925781 18.023438 6.933594 C 18.199219 7.003906 18.332031 7.0625 18.328125 7.074219 Z M 17.503906 5.863281 C 17.496094 5.851562 17.597656 5.757812 17.734375 5.652344 C 17.867188 5.546875 17.984375 5.46875 17.992188 5.480469 C 18 5.492188 17.898438 5.585938 17.765625 5.691406 C 17.628906 5.796875 17.511719 5.875 17.503906 5.863281 Z M 12.777344 10.816406 C 12.777344 10.816406 12.78125 10.8125 12.785156 10.8125 C 12.789062 10.8125 12.792969 10.8125 12.800781 10.8125 C 12.8125 10.8125 12.832031 10.816406 12.855469 10.816406 C 12.894531 10.820312 12.957031 10.824219 13.027344 10.832031 C 13.101562 10.839844 13.253906 10.847656 13.363281 10.902344 C 13.382812 10.914062 13.40625 10.914062 13.433594 10.917969 C 13.476562 10.921875 13.515625 10.925781 13.5625 10.925781 C 13.664062 10.933594 13.789062 10.9375 13.90625 10.949219 C 14.015625 10.964844 14.140625 10.980469 14.253906 11.03125 C 14.339844 11.066406 14.429688 11.132812 14.457031 11.234375 C 14.457031 11.289062 14.453125 11.339844 14.449219 11.394531 C 14.445312 11.492188 14.4375 11.585938 14.433594 11.683594 C 14.429688 11.75 14.425781 11.8125 14.421875 11.878906 C 14.421875 11.878906 14.414062 11.960938 14.414062 11.964844 C 14.414062 11.960938 14.410156 12.054688 14.410156 12.054688 C 14.410156 12.054688 14.398438 12.089844 14.398438 12.089844 C 14.398438 12.09375 14.398438 12.097656 14.394531 12.101562 C 14.367188 12.109375 14.339844 12.117188 14.3125 12.121094 C 14.242188 12.132812 14.171875 12.140625 14.105469 12.148438 C 13.8125 12.175781 13.535156 12.191406 13.292969 12.199219 C 12.945312 12.207031 12.683594 12.136719 12.5 12.054688 C 12.414062 12.011719 12.351562 11.972656 12.3125 11.941406 C 12.289062 11.925781 12.273438 11.910156 12.265625 11.902344 C 12.253906 11.890625 12.25 11.886719 12.25 11.886719 C 12.25 11.886719 12.25 11.886719 12.25 11.882812 C 12.253906 11.882812 12.257812 11.890625 12.269531 11.898438 C 12.28125 11.90625 12.296875 11.917969 12.316406 11.929688 C 12.363281 11.960938 12.421875 11.996094 12.507812 12.03125 C 12.691406 12.109375 12.949219 12.171875 13.289062 12.15625 C 13.53125 12.148438 13.8125 12.132812 14.101562 12.101562 C 14.167969 12.09375 14.238281 12.085938 14.308594 12.074219 C 14.328125 12.074219 14.351562 12.074219 14.371094 12.074219 C 14.371094 12.070312 14.371094 12.070312 14.371094 12.066406 C 14.371094 12.066406 14.363281 12.050781 14.363281 12.050781 C 14.363281 12.046875 14.367188 11.964844 14.367188 11.960938 C 14.367188 11.972656 14.375 11.863281 14.371094 11.875 C 14.371094 11.890625 14.386719 11.667969 14.386719 11.683594 C 14.390625 11.582031 14.398438 11.488281 14.402344 11.394531 C 14.40625 11.339844 14.410156 11.289062 14.410156 11.238281 C 14.394531 11.160156 14.3125 11.105469 14.234375 11.070312 C 14.128906 11.023438 14.011719 11.003906 13.902344 10.992188 C 13.789062 10.976562 13.660156 10.96875 13.558594 10.964844 C 13.515625 10.960938 13.472656 10.957031 13.429688 10.953125 C 13.402344 10.949219 13.375 10.945312 13.347656 10.929688 C 13.25 10.875 13.097656 10.863281 13.023438 10.851562 C 12.957031 10.84375 12.890625 10.832031 12.851562 10.828125 C 12.828125 10.824219 12.8125 10.824219 12.800781 10.820312 C 12.792969 10.820312 12.789062 10.820312 12.785156 10.816406 C 12.78125 10.816406 12.777344 10.816406 12.777344 10.816406 Z M 14.484375 11.300781 C 14.488281 11.285156 14.597656 11.296875 14.726562 11.320312 C 14.859375 11.34375 14.964844 11.375 14.960938 11.386719 C 14.957031 11.402344 14.851562 11.390625 14.71875 11.367188 C 14.589844 11.34375 14.484375 11.3125 14.484375 11.300781 Z M 14.402344 12.0625 C 14.402344 12.0625 14.40625 12.0625 14.410156 12.0625 C 14.414062 12.0625 14.417969 12.0625 14.421875 12.0625 C 14.429688 12.066406 14.445312 12.070312 14.460938 12.078125 C 14.492188 12.085938 14.53125 12.101562 14.578125 12.117188 C 14.589844 12.121094 14.601562 12.125 14.617188 12.125 C 14.734375 12.152344 14.808594 12.105469 14.820312 12.113281 C 14.839844 12.128906 14.753906 12.210938 14.605469 12.175781 C 14.589844 12.171875 14.574219 12.167969 14.5625 12.160156 C 14.515625 12.144531 14.472656 12.125 14.445312 12.105469 C 14.429688 12.09375 14.421875 12.085938 14.414062 12.078125 C 14.410156 12.074219 14.40625 12.074219 14.40625 12.070312 C 14.402344 12.066406 14.402344 12.066406 14.402344 12.0625 Z M 14.449219 11.839844 C 14.449219 11.835938 14.453125 11.835938 14.464844 11.835938 C 14.472656 11.835938 14.488281 11.835938 14.5 11.839844 C 14.53125 11.84375 14.570312 11.851562 14.613281 11.859375 C 14.621094 11.859375 14.632812 11.863281 14.640625 11.863281 C 14.75 11.886719 14.820312 11.878906 14.828125 11.890625 C 14.832031 11.902344 14.738281 11.941406 14.628906 11.914062 C 14.621094 11.910156 14.613281 11.910156 14.601562 11.90625 C 14.558594 11.894531 14.519531 11.882812 14.492188 11.871094 C 14.476562 11.863281 14.46875 11.859375 14.460938 11.855469 C 14.449219 11.847656 14.445312 11.84375 14.449219 11.839844 Z M 14.449219 11.839844 " fill-opacity="1" fill-rule="nonzero"/><path fill="#27a708" d="M 23.042969 8.980469 C 23.042969 8.980469 23.042969 8.984375 23.042969 8.988281 C 23.042969 8.992188 23.042969 9 23.042969 9.007812 C 23.042969 9.023438 23.042969 9.046875 23.039062 9.078125 C 23.035156 9.136719 23.027344 9.222656 23.015625 9.328125 C 22.992188 9.554688 22.957031 9.886719 22.933594 10.113281 C 22.9375 10.09375 22.917969 10.277344 22.917969 10.257812 C 22.890625 10.535156 22.871094 10.75 22.855469 10.964844 C 22.847656 11.109375 22.84375 11.207031 22.84375 11.304688 C 22.839844 11.445312 22.855469 11.527344 22.847656 11.527344 C 22.84375 11.53125 22.8125 11.449219 22.804688 11.304688 C 22.800781 11.210938 22.796875 11.101562 22.800781 10.964844 C 22.808594 10.75 22.828125 10.519531 22.855469 10.25 C 22.859375 10.199219 22.863281 10.152344 22.867188 10.105469 C 22.902344 9.796875 22.941406 9.523438 22.972656 9.324219 C 22.988281 9.21875 23.003906 9.132812 23.015625 9.074219 C 23.023438 9.046875 23.027344 9.023438 23.03125 9.007812 C 23.035156 9 23.035156 8.992188 23.035156 8.988281 C 23.039062 8.984375 23.039062 8.980469 23.042969 8.980469 Z M 22.824219 11.261719 C 22.820312 11.246094 22.972656 11.1875 23.179688 11.121094 C 23.214844 11.113281 23.246094 11.101562 23.28125 11.09375 C 23.546875 11.027344 23.777344 11.066406 23.773438 11.082031 C 23.769531 11.101562 23.5625 11.09375 23.300781 11.160156 C 23.265625 11.167969 23.230469 11.175781 23.199219 11.183594 C 22.988281 11.242188 22.828125 11.277344 22.824219 11.261719 Z M 18.3125 11.019531 C 18.316406 11 18.375 10.988281 18.445312 10.992188 C 18.515625 10.996094 18.570312 11.015625 18.570312 11.03125 C 18.570312 11.050781 18.511719 11.0625 18.441406 11.058594 C 18.371094 11.054688 18.3125 11.035156 18.3125 11.019531 Z M 19.46875 10.839844 C 19.488281 10.839844 19.503906 10.976562 19.503906 11.140625 C 19.503906 11.304688 19.488281 11.4375 19.46875 11.4375 C 19.453125 11.4375 19.4375 11.304688 19.4375 11.140625 C 19.4375 10.976562 19.453125 10.839844 19.46875 10.839844 Z M 19.46875 10.839844 " fill-opacity="1" fill-rule="nonzero"/><path fill="#344e67" d="M 4.488281 10.988281 C 4.464844 10.996094 4.375 10.773438 4.296875 10.488281 C 4.214844 10.207031 4.171875 9.972656 4.199219 9.964844 C 4.226562 9.957031 4.3125 10.179688 4.394531 10.464844 C 4.472656 10.746094 4.515625 10.980469 4.488281 10.988281 Z M 5.363281 9.296875 C 5.386719 9.289062 5.441406 9.390625 5.484375 9.527344 C 5.523438 9.660156 5.535156 9.777344 5.507812 9.785156 C 5.480469 9.792969 5.425781 9.6875 5.386719 9.554688 C 5.347656 9.421875 5.335938 9.304688 5.363281 9.296875 Z M 6.34375 13.332031 C 6.371094 13.328125 6.417969 13.558594 6.445312 13.847656 C 6.476562 14.136719 6.480469 14.371094 6.453125 14.375 C 6.425781 14.378906 6.378906 14.144531 6.347656 13.859375 C 6.316406 13.570312 6.316406 13.332031 6.34375 13.332031 Z M 5.996094 14.464844 C 5.996094 14.46875 5.992188 14.46875 5.988281 14.46875 C 5.984375 14.46875 5.980469 14.46875 5.972656 14.464844 C 5.964844 14.460938 5.949219 14.457031 5.9375 14.445312 C 5.910156 14.425781 5.882812 14.386719 5.882812 14.328125 C 5.886719 14.257812 5.921875 14.1875 5.992188 14.132812 C 6.164062 13.988281 6.371094 13.988281 6.378906 14.015625 C 6.382812 14.027344 6.347656 14.054688 6.285156 14.085938 C 6.21875 14.121094 6.125 14.160156 6.050781 14.207031 C 5.996094 14.246094 5.96875 14.285156 5.964844 14.335938 C 5.957031 14.359375 5.96875 14.390625 5.976562 14.410156 C 5.980469 14.421875 5.988281 14.433594 5.992188 14.445312 C 5.996094 14.449219 5.996094 14.453125 6 14.457031 C 6 14.460938 6 14.460938 5.996094 14.464844 Z M 4.851562 9.460938 C 4.835938 9.4375 4.910156 9.363281 5.015625 9.292969 C 5.121094 9.222656 5.21875 9.183594 5.234375 9.207031 C 5.25 9.230469 5.175781 9.304688 5.070312 9.375 C 4.964844 9.445312 4.867188 9.480469 4.851562 9.460938 Z M 4.851562 9.460938 " fill-opacity="1" fill-rule="nonzero"/><path fill="#344e67" d="M 3.910156 11.855469 L 3.691406 11.582031 C 3.691406 11.582031 3.78125 11.167969 4.652344 10.988281 C 5.523438 10.808594 5.214844 11.167969 5.214844 11.167969 L 4.691406 11.621094 Z M 3.910156 11.855469 " fill-opacity="1" fill-rule="nonzero"/><path fill="#fdbd64" d="M 3.707031 11.636719 C 3.707031 11.636719 5.144531 11.457031 5.253906 11.007812 L 5.761719 13.472656 C 5.851562 13.742188 4.546875 14.285156 4.144531 13.835938 Z M 3.707031 11.636719 " fill-opacity="1" fill-rule="nonzero"/><path fill="#fb7500" d="M 3.925781 12.683594 C 3.925781 12.683594 4.945312 12.773438 5.488281 12.214844 L 5.5625 12.628906 C 5.5625 12.628906 4.488281 13.292969 3.964844 12.988281 Z M 3.925781 12.683594 " fill-opacity="1" fill-rule="nonzero"/></svg>