<svg xmlns="http://www.w3.org/2000/svg" xmlns:xlink="http://www.w3.org/1999/xlink" width="40" zoomAndPan="magnify" viewBox="0 0 30 30.000001" height="40" preserveAspectRatio="xMidYMid meet" version="1.0"><defs><clipPath id="95ccad4566"><path d="M 20.261719 9.28125 L 27.15625 9.28125 L 27.15625 10.554688 L 20.261719 10.554688 Z M 20.261719 9.28125 " clip-rule="nonzero"/></clipPath><clipPath id="675d996490"><path d="M 20 10 L 26 10 L 26 27.511719 L 20 27.511719 Z M 20 10 " clip-rule="nonzero"/></clipPath><clipPath id="342e2bb9de"><path d="M 20 10 L 24 10 L 24 27.511719 L 20 27.511719 Z M 20 10 " clip-rule="nonzero"/></clipPath><clipPath id="ccabf43dca"><path d="M 2.488281 9 L 10 9 L 10 11 L 2.488281 11 Z M 2.488281 9 " clip-rule="nonzero"/></clipPath><clipPath id="3c98711099"><path d="M 3 10 L 10 10 L 10 27.511719 L 3 27.511719 Z M 3 10 " clip-rule="nonzero"/></clipPath><clipPath id="6503ef038b"><path d="M 3 10 L 7 10 L 7 27.511719 L 3 27.511719 Z M 3 10 " clip-rule="nonzero"/></clipPath><clipPath id="da2e7f4cb8"><path d="M 8 5 L 22 5 L 22 27.511719 L 8 27.511719 Z M 8 5 " clip-rule="nonzero"/></clipPath><clipPath id="a40262ed95"><path d="M 8 5 L 12 5 L 12 27.511719 L 8 27.511719 Z M 8 5 " clip-rule="nonzero"/></clipPath><clipPath id="39b524ed7e"><path d="M 13 1.382812 L 17 1.382812 L 17 5 L 13 5 Z M 13 1.382812 " clip-rule="nonzero"/></clipPath><clipPath id="59bcb93360"><path d="M 17 1.382812 L 20 1.382812 L 20 4 L 17 4 Z M 17 1.382812 " clip-rule="nonzero"/></clipPath><clipPath id="9a8ec4cbeb"><path d="M 20 1.382812 L 23 1.382812 L 23 4 L 20 4 Z M 20 1.382812 " clip-rule="nonzero"/></clipPath><clipPath id="1d4d382857"><path d="M 7 1.382812 L 10 1.382812 L 10 4 L 7 4 Z M 7 1.382812 " clip-rule="nonzero"/></clipPath><clipPath id="21cc524ca8"><path d="M 10 1.382812 L 13 1.382812 L 13 4 L 10 4 Z M 10 1.382812 " clip-rule="nonzero"/></clipPath><clipPath id="ebb2316a70"><path d="M 12 21 L 18 21 L 18 27.511719 L 12 27.511719 Z M 12 21 " clip-rule="nonzero"/></clipPath><clipPath id="f40d27399c"><path d="M 13 24 L 16 24 L 16 27.511719 L 13 27.511719 Z M 13 24 " clip-rule="nonzero"/></clipPath><clipPath id="358c0ee414"><path d="M 12 21 L 16 21 L 16 27.511719 L 12 27.511719 Z M 12 21 " clip-rule="nonzero"/></clipPath><clipPath id="e483b01c10"><path d="M 13 24 L 15 24 L 15 27.511719 L 13 27.511719 Z M 13 24 " clip-rule="nonzero"/></clipPath><clipPath id="de45d10966"><path d="M 2.488281 9 L 6 9 L 6 11 L 2.488281 11 Z M 2.488281 9 " clip-rule="nonzero"/></clipPath></defs><g clip-path="url(#95ccad4566)"><path fill="#ffd551" d="M 20.261719 10.554688 L 26.941406 10.554688 C 27.058594 10.554688 27.15625 10.457031 27.15625 10.339844 L 27.15625 9.5 C 27.15625 9.378906 27.058594 9.28125 26.941406 9.28125 L 20.261719 9.28125 L 20.261719 10.554688 " fill-opacity="1" fill-rule="nonzero"/></g><path fill="#ffc34c" d="M 23.148438 9.28125 L 20.261719 9.28125 L 20.261719 10.554688 L 23.148438 10.554688 L 23.148438 9.28125 " fill-opacity="1" fill-rule="nonzero"/><g clip-path="url(#675d996490)"><path fill="#bf6c0d" d="M 20.261719 27.511719 L 25.667969 27.511719 C 25.785156 27.511719 25.882812 27.414062 25.882812 27.292969 L 25.882812 10.554688 L 20.261719 10.554688 L 20.261719 27.511719 " fill-opacity="1" fill-rule="nonzero"/></g><g clip-path="url(#342e2bb9de)"><path fill="#a56021" d="M 20.261719 10.554688 L 20.261719 27.511719 L 23.148438 27.511719 L 23.148438 10.554688 L 20.261719 10.554688 " fill-opacity="1" fill-rule="nonzero"/></g><path fill="#ffd551" d="M 24.421875 15.304688 L 22.464844 15.304688 C 22.347656 15.304688 22.25 15.207031 22.25 15.089844 L 22.25 12.164062 C 22.25 12.046875 22.347656 11.949219 22.464844 11.949219 L 24.421875 11.949219 C 24.539062 11.949219 24.636719 12.046875 24.636719 12.164062 L 24.636719 15.089844 C 24.636719 15.207031 24.539062 15.304688 24.421875 15.304688 " fill-opacity="1" fill-rule="nonzero"/><path fill="#ffd551" d="M 24.421875 20.390625 L 22.464844 20.390625 C 22.347656 20.390625 22.25 20.296875 22.25 20.175781 L 22.25 17.253906 C 22.25 17.132812 22.347656 17.035156 22.464844 17.035156 L 24.421875 17.035156 C 24.539062 17.035156 24.636719 17.132812 24.636719 17.253906 L 24.636719 20.175781 C 24.636719 20.296875 24.539062 20.390625 24.421875 20.390625 " fill-opacity="1" fill-rule="nonzero"/><path fill="#ffd551" d="M 24.421875 25.480469 L 22.464844 25.480469 C 22.347656 25.480469 22.25 25.382812 22.25 25.261719 L 22.25 22.339844 C 22.25 22.21875 22.347656 22.121094 22.464844 22.121094 L 24.421875 22.121094 C 24.539062 22.121094 24.636719 22.21875 24.636719 22.339844 L 24.636719 25.261719 C 24.636719 25.382812 24.539062 25.480469 24.421875 25.480469 " fill-opacity="1" fill-rule="nonzero"/><path fill="#ffc34c" d="M 23.148438 22.125 L 22.464844 22.125 C 22.347656 22.125 22.25 22.21875 22.25 22.339844 L 22.25 25.261719 C 22.25 25.382812 22.347656 25.480469 22.464844 25.480469 L 23.148438 25.480469 L 23.148438 22.125 " fill-opacity="1" fill-rule="nonzero"/><path fill="#ffc34c" d="M 23.148438 17.035156 L 22.464844 17.035156 C 22.347656 17.035156 22.25 17.132812 22.25 17.253906 L 22.25 20.175781 C 22.25 20.296875 22.347656 20.390625 22.464844 20.390625 L 23.148438 20.390625 L 23.148438 17.035156 " fill-opacity="1" fill-rule="nonzero"/><path fill="#ffc34c" d="M 23.148438 11.949219 L 22.464844 11.949219 C 22.347656 11.949219 22.25 12.046875 22.25 12.164062 L 22.25 15.089844 C 22.25 15.207031 22.347656 15.304688 22.464844 15.304688 L 23.148438 15.304688 L 23.148438 11.949219 " fill-opacity="1" fill-rule="nonzero"/><g clip-path="url(#ccabf43dca)"><path fill="#ffd551" d="M 9.394531 10.554688 L 2.714844 10.554688 C 2.59375 10.554688 2.5 10.457031 2.5 10.339844 L 2.5 9.5 C 2.5 9.378906 2.59375 9.28125 2.714844 9.28125 L 9.394531 9.28125 L 9.394531 10.554688 " fill-opacity="1" fill-rule="nonzero"/></g><g clip-path="url(#3c98711099)"><path fill="#a56021" d="M 9.394531 27.511719 L 3.988281 27.511719 C 3.871094 27.511719 3.773438 27.414062 3.773438 27.292969 L 3.773438 10.554688 L 9.394531 10.554688 L 9.394531 27.511719 " fill-opacity="1" fill-rule="nonzero"/></g><g clip-path="url(#6503ef038b)"><path fill="#8c4c17" d="M 3.773438 10.554688 L 3.773438 27.292969 C 3.773438 27.414062 3.871094 27.511719 3.988281 27.511719 L 6.777344 27.511719 L 6.777344 10.554688 L 3.773438 10.554688 " fill-opacity="1" fill-rule="nonzero"/></g><g clip-path="url(#da2e7f4cb8)"><path fill="#ffa730" d="M 21.003906 27.511719 L 8.585938 27.511719 L 8.585938 5.679688 L 21.003906 5.679688 L 21.003906 27.511719 " fill-opacity="1" fill-rule="nonzero"/></g><g clip-path="url(#a40262ed95)"><path fill="#e58d23" d="M 8.585938 5.679688 L 8.585938 27.511719 L 11.585938 27.511719 L 11.585938 5.679688 L 8.585938 5.679688 " fill-opacity="1" fill-rule="nonzero"/></g><path fill="#ffdf74" d="M 7.15625 6.964844 L 7.15625 5.882812 C 7.15625 5.765625 7.253906 5.667969 7.371094 5.667969 L 21.953125 5.667969 C 22.070312 5.667969 22.167969 5.765625 22.167969 5.882812 L 22.167969 6.964844 C 22.167969 7.085938 22.070312 7.179688 21.953125 7.179688 L 7.371094 7.179688 C 7.253906 7.179688 7.15625 7.085938 7.15625 6.964844 " fill-opacity="1" fill-rule="nonzero"/><path fill="#ffdf74" d="M 19.785156 12.371094 L 17.828125 12.371094 C 17.710938 12.371094 17.617188 12.277344 17.617188 12.15625 L 17.617188 9.234375 C 17.617188 9.113281 17.710938 9.015625 17.828125 9.015625 L 19.785156 9.015625 C 19.90625 9.015625 20 9.113281 20 9.234375 L 20 12.15625 C 20 12.277344 19.90625 12.371094 19.785156 12.371094 " fill-opacity="1" fill-rule="nonzero"/><path fill="#ffdf74" d="M 15.773438 12.371094 L 13.816406 12.371094 C 13.699219 12.371094 13.601562 12.277344 13.601562 12.15625 L 13.601562 9.234375 C 13.601562 9.113281 13.699219 9.015625 13.816406 9.015625 L 15.773438 9.015625 C 15.890625 9.015625 15.988281 9.113281 15.988281 9.234375 L 15.988281 12.15625 C 15.988281 12.277344 15.890625 12.371094 15.773438 12.371094 " fill-opacity="1" fill-rule="nonzero"/><path fill="#ffdf74" d="M 19.800781 17.199219 L 17.84375 17.199219 C 17.726562 17.199219 17.628906 17.101562 17.628906 16.984375 L 17.628906 14.058594 C 17.628906 13.941406 17.726562 13.84375 17.84375 13.84375 L 19.800781 13.84375 C 19.917969 13.84375 20.015625 13.941406 20.015625 14.058594 L 20.015625 16.984375 C 20.015625 17.101562 19.917969 17.199219 19.800781 17.199219 " fill-opacity="1" fill-rule="nonzero"/><path fill="#ffdf74" d="M 15.789062 17.199219 L 13.832031 17.199219 C 13.714844 17.199219 13.617188 17.101562 13.617188 16.984375 L 13.617188 14.058594 C 13.617188 13.941406 13.714844 13.84375 13.832031 13.84375 L 15.789062 13.84375 C 15.90625 13.84375 16.003906 13.941406 16.003906 14.058594 L 16.003906 16.984375 C 16.003906 17.101562 15.90625 17.199219 15.789062 17.199219 " fill-opacity="1" fill-rule="nonzero"/><path fill="#ffdf74" d="M 19.792969 22.121094 L 17.835938 22.121094 C 17.71875 22.121094 17.621094 22.023438 17.621094 21.90625 L 17.621094 18.984375 C 17.621094 18.863281 17.71875 18.765625 17.835938 18.765625 L 19.792969 18.765625 C 19.910156 18.765625 20.007812 18.863281 20.007812 18.984375 L 20.007812 21.90625 C 20.007812 22.023438 19.910156 22.121094 19.792969 22.121094 " fill-opacity="1" fill-rule="nonzero"/><path fill="#ffdf74" d="M 15.78125 22.121094 L 13.824219 22.121094 C 13.703125 22.121094 13.609375 22.023438 13.609375 21.90625 L 13.609375 18.984375 C 13.609375 18.863281 13.703125 18.765625 13.824219 18.765625 L 15.78125 18.765625 C 15.898438 18.765625 15.992188 18.863281 15.992188 18.984375 L 15.992188 21.90625 C 15.992188 22.023438 15.898438 22.121094 15.78125 22.121094 " fill-opacity="1" fill-rule="nonzero"/><g clip-path="url(#39b524ed7e)"><path fill="#ffa730" d="M 15.351562 2.292969 L 16.15625 2.398438 C 16.257812 2.414062 16.300781 2.535156 16.230469 2.609375 L 15.65625 3.226562 C 15.628906 3.253906 15.617188 3.292969 15.621094 3.332031 L 15.777344 4.179688 C 15.796875 4.28125 15.691406 4.359375 15.597656 4.3125 L 14.882812 3.933594 C 14.84375 3.914062 14.800781 3.914062 14.761719 3.9375 L 14.0625 4.34375 C 13.972656 4.394531 13.863281 4.320312 13.878906 4.21875 L 14 3.367188 C 14.003906 3.328125 13.992188 3.289062 13.964844 3.261719 L 13.363281 2.667969 C 13.292969 2.597656 13.328125 2.476562 13.429688 2.457031 L 14.230469 2.316406 C 14.273438 2.3125 14.304688 2.285156 14.324219 2.246094 L 14.664062 1.480469 C 14.707031 1.382812 14.839844 1.378906 14.886719 1.476562 L 15.257812 2.226562 C 15.277344 2.261719 15.3125 2.289062 15.351562 2.292969 " fill-opacity="1" fill-rule="nonzero"/></g><g clip-path="url(#59bcb93360)"><path fill="#ffb74b" d="M 18.652344 2.46875 L 19.117188 2.53125 C 19.214844 2.542969 19.257812 2.664062 19.191406 2.738281 L 18.855469 3.097656 C 18.828125 3.125 18.816406 3.167969 18.824219 3.207031 L 18.914062 3.695312 C 18.929688 3.796875 18.824219 3.875 18.734375 3.828125 L 18.324219 3.613281 C 18.289062 3.59375 18.242188 3.59375 18.207031 3.613281 L 17.808594 3.847656 C 17.71875 3.898438 17.609375 3.824219 17.625 3.722656 L 17.695312 3.230469 C 17.699219 3.191406 17.6875 3.152344 17.65625 3.121094 L 17.308594 2.777344 C 17.238281 2.707031 17.273438 2.585938 17.375 2.566406 L 17.835938 2.488281 C 17.878906 2.480469 17.910156 2.453125 17.929688 2.414062 L 18.125 1.976562 C 18.164062 1.878906 18.300781 1.878906 18.347656 1.972656 L 18.558594 2.402344 C 18.574219 2.4375 18.613281 2.464844 18.652344 2.46875 " fill-opacity="1" fill-rule="nonzero"/></g><g clip-path="url(#9a8ec4cbeb)"><path fill="#ffc34c" d="M 21.609375 2.46875 L 22.074219 2.53125 C 22.175781 2.542969 22.21875 2.664062 22.148438 2.738281 L 21.8125 3.097656 C 21.785156 3.125 21.773438 3.167969 21.78125 3.207031 L 21.871094 3.695312 C 21.890625 3.796875 21.785156 3.875 21.691406 3.828125 L 21.285156 3.613281 C 21.246094 3.59375 21.203125 3.59375 21.164062 3.613281 L 20.765625 3.847656 C 20.675781 3.898438 20.566406 3.824219 20.582031 3.722656 L 20.652344 3.230469 C 20.65625 3.191406 20.644531 3.152344 20.617188 3.121094 L 20.269531 2.777344 C 20.195312 2.707031 20.234375 2.585938 20.332031 2.566406 L 20.796875 2.488281 C 20.835938 2.480469 20.871094 2.453125 20.886719 2.414062 L 21.082031 1.976562 C 21.125 1.878906 21.257812 1.878906 21.304688 1.972656 L 21.515625 2.402344 C 21.535156 2.4375 21.570312 2.464844 21.609375 2.46875 " fill-opacity="1" fill-rule="nonzero"/></g><g clip-path="url(#1d4d382857)"><path fill="#ffc34c" d="M 8.789062 2.46875 L 9.253906 2.53125 C 9.355469 2.542969 9.398438 2.664062 9.328125 2.738281 L 8.992188 3.097656 C 8.964844 3.125 8.953125 3.167969 8.960938 3.207031 L 9.050781 3.695312 C 9.070312 3.796875 8.960938 3.875 8.871094 3.828125 L 8.460938 3.613281 C 8.425781 3.59375 8.378906 3.59375 8.34375 3.613281 L 7.945312 3.847656 C 7.855469 3.898438 7.746094 3.824219 7.761719 3.722656 L 7.832031 3.230469 C 7.835938 3.191406 7.824219 3.152344 7.796875 3.121094 L 7.445312 2.777344 C 7.375 2.707031 7.414062 2.585938 7.511719 2.566406 L 7.972656 2.488281 C 8.015625 2.480469 8.046875 2.453125 8.066406 2.414062 L 8.261719 1.976562 C 8.304688 1.878906 8.4375 1.878906 8.484375 1.972656 L 8.695312 2.402344 C 8.714844 2.4375 8.75 2.464844 8.789062 2.46875 " fill-opacity="1" fill-rule="nonzero"/></g><g clip-path="url(#21cc524ca8)"><path fill="#ffb74b" d="M 11.75 2.46875 L 12.210938 2.53125 C 12.3125 2.542969 12.355469 2.664062 12.285156 2.738281 L 11.949219 3.097656 C 11.925781 3.125 11.914062 3.167969 11.917969 3.207031 L 12.007812 3.695312 C 12.027344 3.796875 11.921875 3.875 11.832031 3.828125 L 11.421875 3.613281 C 11.382812 3.59375 11.339844 3.59375 11.304688 3.613281 L 10.902344 3.847656 C 10.8125 3.898438 10.703125 3.824219 10.71875 3.722656 L 10.789062 3.230469 C 10.796875 3.191406 10.78125 3.152344 10.753906 3.121094 L 10.40625 2.777344 C 10.332031 2.707031 10.371094 2.585938 10.46875 2.566406 L 10.933594 2.488281 C 10.972656 2.480469 11.007812 2.453125 11.023438 2.414062 L 11.21875 1.976562 C 11.261719 1.878906 11.394531 1.878906 11.441406 1.972656 L 11.652344 2.402344 C 11.671875 2.4375 11.707031 2.464844 11.75 2.46875 " fill-opacity="1" fill-rule="nonzero"/></g><path fill="#ffd551" d="M 10.160156 6.964844 L 10.160156 5.882812 C 10.160156 5.765625 10.253906 5.667969 10.375 5.667969 L 7.371094 5.667969 C 7.253906 5.667969 7.15625 5.765625 7.15625 5.882812 L 7.15625 6.964844 C 7.15625 7.085938 7.253906 7.179688 7.371094 7.179688 L 10.375 7.179688 C 10.253906 7.179688 10.160156 7.085938 10.160156 6.964844 " fill-opacity="1" fill-rule="nonzero"/><path fill="#a56021" d="M 11.546875 7.433594 L 11.546875 6.75 C 11.546875 6.683594 11.492188 6.632812 11.429688 6.632812 L 10.898438 6.632812 C 10.832031 6.632812 10.78125 6.683594 10.78125 6.75 L 10.78125 7.433594 C 10.78125 7.496094 10.726562 7.550781 10.664062 7.550781 L 10.3125 7.550781 C 10.25 7.550781 10.195312 7.496094 10.195312 7.433594 L 10.195312 5.335938 C 10.195312 5.273438 10.25 5.21875 10.3125 5.21875 L 10.664062 5.21875 C 10.726562 5.21875 10.78125 5.273438 10.78125 5.335938 L 10.78125 6.003906 C 10.78125 6.066406 10.832031 6.117188 10.898438 6.117188 L 11.429688 6.117188 C 11.492188 6.117188 11.546875 6.066406 11.546875 6.003906 L 11.546875 5.335938 C 11.546875 5.273438 11.597656 5.21875 11.664062 5.21875 L 12.011719 5.21875 C 12.078125 5.21875 12.132812 5.273438 12.132812 5.335938 L 12.132812 7.433594 C 12.132812 7.496094 12.078125 7.550781 12.011719 7.550781 L 11.664062 7.550781 C 11.597656 7.550781 11.546875 7.496094 11.546875 7.433594 " fill-opacity="1" fill-rule="nonzero"/><path fill="#a56021" d="M 13.445312 5.726562 C 13.074219 5.726562 12.832031 5.984375 12.832031 6.378906 C 12.832031 6.78125 13.074219 7.039062 13.445312 7.039062 C 13.816406 7.039062 14.054688 6.78125 14.054688 6.378906 C 14.054688 5.984375 13.816406 5.726562 13.445312 5.726562 Z M 13.445312 7.570312 C 12.480469 7.570312 11.851562 6.566406 12.511719 5.503906 C 12.519531 5.492188 12.539062 5.472656 12.550781 5.464844 C 13.628906 4.808594 14.648438 5.429688 14.648438 6.378906 C 14.648438 7.058594 14.132812 7.570312 13.445312 7.570312 " fill-opacity="1" fill-rule="nonzero"/><path fill="#a56021" d="M 15.214844 7.433594 L 15.214844 5.847656 C 15.214844 5.785156 15.164062 5.734375 15.097656 5.734375 L 14.765625 5.734375 C 14.699219 5.734375 14.644531 5.679688 14.644531 5.617188 L 14.644531 5.335938 C 14.644531 5.273438 14.699219 5.21875 14.765625 5.21875 L 16.25 5.21875 C 16.316406 5.21875 16.367188 5.273438 16.367188 5.335938 L 16.367188 5.617188 C 16.367188 5.679688 16.316406 5.734375 16.25 5.734375 L 15.917969 5.734375 C 15.851562 5.734375 15.800781 5.785156 15.800781 5.847656 L 15.800781 7.433594 C 15.800781 7.496094 15.746094 7.550781 15.683594 7.550781 L 15.332031 7.550781 C 15.269531 7.550781 15.214844 7.496094 15.214844 7.433594 " fill-opacity="1" fill-rule="nonzero"/><path fill="#a56021" d="M 16.484375 7.433594 L 16.484375 5.332031 C 16.484375 5.269531 16.535156 5.214844 16.601562 5.214844 L 17.777344 5.214844 C 17.84375 5.214844 17.894531 5.269531 17.894531 5.332031 L 17.894531 5.613281 C 17.894531 5.675781 17.84375 5.730469 17.777344 5.730469 L 17.1875 5.730469 C 17.121094 5.730469 17.070312 5.78125 17.070312 5.84375 L 17.070312 5.996094 C 17.070312 6.0625 17.121094 6.113281 17.1875 6.113281 L 17.6875 6.113281 C 17.75 6.113281 17.804688 6.164062 17.804688 6.230469 L 17.804688 6.511719 C 17.804688 6.574219 17.75 6.625 17.6875 6.625 L 17.1875 6.625 C 17.121094 6.625 17.070312 6.679688 17.070312 6.742188 L 17.070312 6.921875 C 17.070312 6.984375 17.121094 7.035156 17.1875 7.035156 L 17.777344 7.035156 C 17.84375 7.035156 17.894531 7.089844 17.894531 7.152344 L 17.894531 7.433594 C 17.894531 7.496094 17.84375 7.550781 17.777344 7.550781 L 16.601562 7.550781 C 16.535156 7.550781 16.484375 7.496094 16.484375 7.433594 " fill-opacity="1" fill-rule="nonzero"/><path fill="#a56021" d="M 18.089844 7.433594 L 18.089844 5.335938 C 18.089844 5.273438 18.140625 5.21875 18.207031 5.21875 L 18.554688 5.21875 C 18.621094 5.21875 18.671875 5.273438 18.671875 5.335938 L 18.671875 6.921875 C 18.671875 6.988281 18.726562 7.039062 18.792969 7.039062 L 19.277344 7.039062 C 19.339844 7.039062 19.394531 7.09375 19.394531 7.15625 L 19.394531 7.433594 C 19.394531 7.496094 19.339844 7.550781 19.277344 7.550781 L 18.207031 7.550781 C 18.140625 7.550781 18.089844 7.496094 18.089844 7.433594 " fill-opacity="1" fill-rule="nonzero"/><path fill="#ffdf74" d="M 11.796875 12.371094 L 9.839844 12.371094 C 9.71875 12.371094 9.625 12.277344 9.625 12.15625 L 9.625 9.234375 C 9.625 9.113281 9.71875 9.015625 9.839844 9.015625 L 11.796875 9.015625 C 11.914062 9.015625 12.011719 9.113281 12.011719 9.234375 L 12.011719 12.15625 C 12.011719 12.277344 11.914062 12.371094 11.796875 12.371094 " fill-opacity="1" fill-rule="nonzero"/><path fill="#ffdf74" d="M 11.8125 17.199219 L 9.855469 17.199219 C 9.734375 17.199219 9.640625 17.101562 9.640625 16.984375 L 9.640625 14.058594 C 9.640625 13.941406 9.734375 13.84375 9.855469 13.84375 L 11.8125 13.84375 C 11.929688 13.84375 12.023438 13.941406 12.023438 14.058594 L 12.023438 16.984375 C 12.023438 17.101562 11.929688 17.199219 11.8125 17.199219 " fill-opacity="1" fill-rule="nonzero"/><path fill="#ffdf74" d="M 11.800781 22.121094 L 9.84375 22.121094 C 9.726562 22.121094 9.628906 22.023438 9.628906 21.90625 L 9.628906 18.984375 C 9.628906 18.863281 9.726562 18.765625 9.84375 18.765625 L 11.800781 18.765625 C 11.921875 18.765625 12.015625 18.863281 12.015625 18.984375 L 12.015625 21.90625 C 12.015625 22.023438 11.921875 22.121094 11.800781 22.121094 " fill-opacity="1" fill-rule="nonzero"/><path fill="#ffd551" d="M 11.585938 18.765625 L 9.84375 18.765625 C 9.726562 18.765625 9.628906 18.863281 9.628906 18.984375 L 9.628906 21.90625 C 9.628906 22.023438 9.726562 22.121094 9.84375 22.121094 L 11.585938 22.121094 L 11.585938 18.765625 " fill-opacity="1" fill-rule="nonzero"/><path fill="#ffd551" d="M 11.585938 13.84375 L 9.855469 13.84375 C 9.734375 13.84375 9.640625 13.941406 9.640625 14.058594 L 9.640625 16.984375 C 9.640625 17.101562 9.734375 17.199219 9.855469 17.199219 L 11.585938 17.199219 L 11.585938 13.84375 " fill-opacity="1" fill-rule="nonzero"/><path fill="#ffd551" d="M 11.585938 9.015625 L 9.839844 9.015625 C 9.71875 9.015625 9.625 9.113281 9.625 9.234375 L 9.625 12.15625 C 9.625 12.277344 9.71875 12.371094 9.839844 12.371094 L 11.585938 12.371094 L 11.585938 9.015625 " fill-opacity="1" fill-rule="nonzero"/><path fill="#ffd551" d="M 18.472656 12.15625 L 18.472656 9.234375 C 18.472656 9.113281 18.570312 9.015625 18.6875 9.015625 L 17.828125 9.015625 C 17.710938 9.015625 17.617188 9.113281 17.617188 9.234375 L 17.617188 12.15625 C 17.617188 12.277344 17.710938 12.371094 17.828125 12.371094 L 18.6875 12.371094 C 18.570312 12.371094 18.472656 12.277344 18.472656 12.15625 " fill-opacity="1" fill-rule="nonzero"/><path fill="#ffd551" d="M 14.460938 12.15625 L 14.460938 9.234375 C 14.460938 9.113281 14.554688 9.015625 14.675781 9.015625 L 13.816406 9.015625 C 13.699219 9.015625 13.601562 9.113281 13.601562 9.234375 L 13.601562 12.15625 C 13.601562 12.277344 13.699219 12.371094 13.816406 12.371094 L 14.675781 12.371094 C 14.554688 12.371094 14.460938 12.277344 14.460938 12.15625 " fill-opacity="1" fill-rule="nonzero"/><path fill="#ffd551" d="M 18.488281 16.984375 L 18.488281 14.058594 C 18.488281 13.941406 18.582031 13.84375 18.703125 13.84375 L 17.84375 13.84375 C 17.726562 13.84375 17.628906 13.941406 17.628906 14.058594 L 17.628906 16.984375 C 17.628906 17.101562 17.726562 17.199219 17.84375 17.199219 L 18.703125 17.199219 C 18.582031 17.199219 18.488281 17.101562 18.488281 16.984375 " fill-opacity="1" fill-rule="nonzero"/><path fill="#ffd551" d="M 14.476562 16.984375 L 14.476562 14.058594 C 14.476562 13.941406 14.570312 13.84375 14.6875 13.84375 L 13.832031 13.84375 C 13.714844 13.84375 13.617188 13.941406 13.617188 14.058594 L 13.617188 16.984375 C 13.617188 17.101562 13.714844 17.199219 13.832031 17.199219 L 14.6875 17.199219 C 14.570312 17.199219 14.476562 17.101562 14.476562 16.984375 " fill-opacity="1" fill-rule="nonzero"/><path fill="#ffd551" d="M 18.480469 21.90625 L 18.480469 18.984375 C 18.480469 18.863281 18.574219 18.765625 18.695312 18.765625 L 17.835938 18.765625 C 17.71875 18.765625 17.621094 18.863281 17.621094 18.984375 L 17.621094 21.90625 C 17.621094 22.023438 17.71875 22.121094 17.835938 22.121094 L 18.695312 22.121094 C 18.574219 22.121094 18.480469 22.023438 18.480469 21.90625 " fill-opacity="1" fill-rule="nonzero"/><path fill="#ffd551" d="M 14.464844 21.90625 L 14.464844 18.984375 C 14.464844 18.863281 14.5625 18.765625 14.679688 18.765625 L 13.824219 18.765625 C 13.703125 18.765625 13.609375 18.863281 13.609375 18.984375 L 13.609375 21.90625 C 13.609375 22.023438 13.703125 22.121094 13.824219 22.121094 L 14.679688 22.121094 C 14.5625 22.121094 14.464844 22.023438 14.464844 21.90625 " fill-opacity="1" fill-rule="nonzero"/><g clip-path="url(#ebb2316a70)"><path fill="#ffdf74" d="M 14.714844 21.695312 L 12.503906 23.75 C 12.476562 23.773438 12.460938 23.804688 12.460938 23.839844 L 12.460938 27.511719 L 17.140625 27.511719 L 17.140625 23.839844 C 17.140625 23.804688 17.125 23.773438 17.101562 23.75 L 14.886719 21.695312 C 14.839844 21.648438 14.765625 21.648438 14.714844 21.695312 " fill-opacity="1" fill-rule="nonzero"/></g><path fill="#fff4c1" d="M 16.496094 26.96875 C 16.320312 26.96875 16.175781 26.824219 16.175781 26.644531 L 16.175781 24.167969 C 16.175781 23.988281 16.320312 23.84375 16.496094 23.84375 C 16.675781 23.84375 16.816406 23.988281 16.816406 24.167969 L 16.816406 26.644531 C 16.816406 26.824219 16.675781 26.96875 16.496094 26.96875 " fill-opacity="1" fill-rule="nonzero"/><g clip-path="url(#f40d27399c)"><path fill="#f9bb32" d="M 15.792969 27.417969 L 13.863281 27.417969 L 13.863281 24.390625 C 13.863281 24.269531 13.957031 24.175781 14.078125 24.175781 L 15.578125 24.175781 C 15.695312 24.175781 15.792969 24.269531 15.792969 24.390625 L 15.792969 27.417969 " fill-opacity="1" fill-rule="nonzero"/></g><g clip-path="url(#358c0ee414)"><path fill="#ffd551" d="M 13.359375 23.75 L 15.230469 22.011719 L 14.886719 21.695312 C 14.839844 21.648438 14.765625 21.648438 14.714844 21.695312 L 12.503906 23.75 C 12.476562 23.773438 12.460938 23.804688 12.460938 23.839844 L 12.460938 27.511719 L 13.320312 27.511719 L 13.320312 23.839844 C 13.320312 23.804688 13.335938 23.773438 13.359375 23.75 " fill-opacity="1" fill-rule="nonzero"/></g><path fill="#ff624b" d="M 17.140625 24.546875 L 17.140625 23.886719 L 14.800781 21.898438 L 12.460938 23.886719 L 12.460938 24.546875 L 12.097656 24.546875 C 11.902344 24.546875 11.746094 24.394531 11.746094 24.207031 L 11.746094 23.421875 L 14.570312 21.019531 C 14.632812 20.964844 14.714844 20.933594 14.800781 20.933594 C 14.886719 20.933594 14.96875 20.964844 15.03125 21.019531 L 17.855469 23.421875 L 17.855469 24.207031 C 17.855469 24.394531 17.699219 24.546875 17.507812 24.546875 L 17.140625 24.546875 " fill-opacity="1" fill-rule="nonzero"/><path fill="#ff4b34" d="M 12.175781 24.207031 L 12.175781 23.421875 L 15 21.019531 C 15.003906 21.015625 15.011719 21.011719 15.015625 21.007812 C 14.953125 20.960938 14.878906 20.933594 14.800781 20.933594 C 14.714844 20.933594 14.632812 20.964844 14.570312 21.019531 L 11.746094 23.421875 L 11.746094 24.207031 C 11.746094 24.394531 11.902344 24.546875 12.097656 24.546875 L 12.460938 24.546875 L 12.460938 24.539062 C 12.300781 24.511719 12.175781 24.371094 12.175781 24.207031 " fill-opacity="1" fill-rule="nonzero"/><g clip-path="url(#e483b01c10)"><path fill="#db9c2e" d="M 14.933594 24.175781 L 14.078125 24.175781 C 13.957031 24.175781 13.863281 24.269531 13.863281 24.390625 L 13.863281 27.417969 L 14.71875 27.417969 L 14.71875 24.390625 C 14.71875 24.269531 14.816406 24.175781 14.933594 24.175781 " fill-opacity="1" fill-rule="nonzero"/></g><path fill="#ffc34c" d="M 10.488281 21.90625 L 10.488281 18.984375 C 10.488281 18.863281 10.585938 18.765625 10.703125 18.765625 L 9.84375 18.765625 C 9.726562 18.765625 9.628906 18.863281 9.628906 18.984375 L 9.628906 21.90625 C 9.628906 22.023438 9.726562 22.121094 9.84375 22.121094 L 10.703125 22.121094 C 10.585938 22.121094 10.488281 22.023438 10.488281 21.90625 " fill-opacity="1" fill-rule="nonzero"/><path fill="#ffc34c" d="M 10.496094 16.984375 L 10.496094 14.058594 C 10.496094 13.941406 10.59375 13.84375 10.710938 13.84375 L 9.855469 13.84375 C 9.734375 13.84375 9.640625 13.941406 9.640625 14.058594 L 9.640625 16.984375 C 9.640625 17.101562 9.734375 17.199219 9.855469 17.199219 L 10.710938 17.199219 C 10.59375 17.199219 10.496094 17.101562 10.496094 16.984375 " fill-opacity="1" fill-rule="nonzero"/><path fill="#ffc34c" d="M 10.480469 12.15625 L 10.480469 9.234375 C 10.480469 9.113281 10.578125 9.015625 10.695312 9.015625 L 9.839844 9.015625 C 9.71875 9.015625 9.625 9.113281 9.625 9.234375 L 9.625 12.15625 C 9.625 12.277344 9.71875 12.371094 9.839844 12.371094 L 10.695312 12.371094 C 10.578125 12.371094 10.480469 12.277344 10.480469 12.15625 " fill-opacity="1" fill-rule="nonzero"/><g clip-path="url(#de45d10966)"><path fill="#ffc34c" d="M 5.5 10.339844 L 5.5 9.5 C 5.5 9.378906 5.597656 9.28125 5.714844 9.28125 L 2.714844 9.28125 C 2.59375 9.28125 2.5 9.378906 2.5 9.5 L 2.5 10.339844 C 2.5 10.457031 2.59375 10.554688 2.714844 10.554688 L 5.714844 10.554688 C 5.597656 10.554688 5.5 10.457031 5.5 10.339844 " fill-opacity="1" fill-rule="nonzero"/></g><path fill="#ffd551" d="M 7.160156 15.304688 L 5.203125 15.304688 C 5.082031 15.304688 4.988281 15.207031 4.988281 15.089844 L 4.988281 12.164062 C 4.988281 12.046875 5.082031 11.949219 5.203125 11.949219 L 7.160156 11.949219 C 7.277344 11.949219 7.371094 12.046875 7.371094 12.164062 L 7.371094 15.089844 C 7.371094 15.207031 7.277344 15.304688 7.160156 15.304688 " fill-opacity="1" fill-rule="nonzero"/><path fill="#ffd551" d="M 7.160156 20.390625 L 5.203125 20.390625 C 5.082031 20.390625 4.988281 20.296875 4.988281 20.175781 L 4.988281 17.253906 C 4.988281 17.132812 5.082031 17.035156 5.203125 17.035156 L 7.160156 17.035156 C 7.277344 17.035156 7.371094 17.132812 7.371094 17.253906 L 7.371094 20.175781 C 7.371094 20.296875 7.277344 20.390625 7.160156 20.390625 " fill-opacity="1" fill-rule="nonzero"/><path fill="#ffd551" d="M 7.160156 25.480469 L 5.203125 25.480469 C 5.082031 25.480469 4.988281 25.382812 4.988281 25.261719 L 4.988281 22.339844 C 4.988281 22.21875 5.082031 22.125 5.203125 22.125 L 7.160156 22.125 C 7.277344 22.125 7.371094 22.21875 7.371094 22.339844 L 7.371094 25.261719 C 7.371094 25.382812 7.277344 25.480469 7.160156 25.480469 " fill-opacity="1" fill-rule="nonzero"/><path fill="#ffc34c" d="M 6.777344 22.125 L 5.203125 22.125 C 5.082031 22.125 4.988281 22.21875 4.988281 22.339844 L 4.988281 25.261719 C 4.988281 25.382812 5.082031 25.480469 5.203125 25.480469 L 6.777344 25.480469 L 6.777344 22.125 " fill-opacity="1" fill-rule="nonzero"/><path fill="#ffc34c" d="M 6.777344 17.035156 L 5.203125 17.035156 C 5.082031 17.035156 4.988281 17.132812 4.988281 17.253906 L 4.988281 20.175781 C 4.988281 20.296875 5.082031 20.390625 5.203125 20.390625 L 6.777344 20.390625 L 6.777344 17.035156 " fill-opacity="1" fill-rule="nonzero"/><path fill="#ffc34c" d="M 6.777344 11.949219 L 5.203125 11.949219 C 5.082031 11.949219 4.988281 12.046875 4.988281 12.164062 L 4.988281 15.089844 C 4.988281 15.207031 5.082031 15.304688 5.203125 15.304688 L 6.777344 15.304688 L 6.777344 11.949219 " fill-opacity="1" fill-rule="nonzero"/><path fill="#ffb74b" d="M 5.84375 25.261719 L 5.84375 22.339844 C 5.84375 22.21875 5.941406 22.125 6.058594 22.125 L 5.203125 22.125 C 5.082031 22.125 4.988281 22.21875 4.988281 22.339844 L 4.988281 25.261719 C 4.988281 25.382812 5.082031 25.480469 5.203125 25.480469 L 6.058594 25.480469 C 5.941406 25.480469 5.84375 25.382812 5.84375 25.261719 " fill-opacity="1" fill-rule="nonzero"/><path fill="#ffb74b" d="M 5.84375 20.175781 L 5.84375 17.253906 C 5.84375 17.132812 5.941406 17.035156 6.058594 17.035156 L 5.203125 17.035156 C 5.082031 17.035156 4.988281 17.132812 4.988281 17.253906 L 4.988281 20.175781 C 4.988281 20.296875 5.082031 20.390625 5.203125 20.390625 L 6.058594 20.390625 C 5.941406 20.390625 5.84375 20.296875 5.84375 20.175781 " fill-opacity="1" fill-rule="nonzero"/><path fill="#ffb74b" d="M 5.84375 15.089844 L 5.84375 12.164062 C 5.84375 12.046875 5.941406 11.949219 6.058594 11.949219 L 5.203125 11.949219 C 5.082031 11.949219 4.988281 12.046875 4.988281 12.164062 L 4.988281 15.089844 C 4.988281 15.207031 5.082031 15.304688 5.203125 15.304688 L 6.058594 15.304688 C 5.941406 15.304688 5.84375 15.207031 5.84375 15.089844 " fill-opacity="1" fill-rule="nonzero"/><path fill="#e58d23" d="M 19.777344 26.027344 C 19.777344 26.566406 19.347656 27 18.8125 27 C 18.28125 27 17.847656 26.566406 17.847656 26.027344 C 17.847656 25.492188 18.28125 25.054688 18.8125 25.054688 C 19.347656 25.054688 19.777344 25.492188 19.777344 26.027344 " fill-opacity="1" fill-rule="nonzero"/><path fill="#e58d23" d="M 25.238281 26.96875 C 25.058594 26.96875 24.917969 26.824219 24.917969 26.644531 L 24.917969 19.558594 C 24.917969 19.378906 25.058594 19.234375 25.238281 19.234375 C 25.414062 19.234375 25.558594 19.378906 25.558594 19.558594 L 25.558594 26.644531 C 25.558594 26.824219 25.414062 26.96875 25.238281 26.96875 " fill-opacity="1" fill-rule="nonzero"/></svg>