<svg xmlns="http://www.w3.org/2000/svg" xmlns:xlink="http://www.w3.org/1999/xlink" width="40" zoomAndPan="magnify" viewBox="0 0 30 30.000001" height="40" preserveAspectRatio="xMidYMid meet" version="1.0"><defs><clipPath id="a7d46157a7"><path d="M 8 1.730469 L 18 1.730469 L 18 11 L 8 11 Z M 8 1.730469 " clip-rule="nonzero"/></clipPath><clipPath id="f6cdf8be4a"><path d="M 0.484375 2 L 29.515625 2 L 29.515625 26.40625 L 0.484375 26.40625 Z M 0.484375 2 " clip-rule="nonzero"/></clipPath><clipPath id="c32f33a317"><path d="M 16 7 L 29.515625 7 L 29.515625 15 L 16 15 Z M 16 7 " clip-rule="nonzero"/></clipPath><clipPath id="59902b8768"><path d="M 0.484375 18 L 14 18 L 14 26.40625 L 0.484375 26.40625 Z M 0.484375 18 " clip-rule="nonzero"/></clipPath></defs><g clip-path="url(#a7d46157a7)"><path fill="#f7c571" d="M 17.054688 6.089844 C 17.054688 6.375 17.027344 6.660156 16.972656 6.941406 C 16.914062 7.222656 16.832031 7.496094 16.726562 7.757812 C 16.617188 8.023438 16.484375 8.273438 16.328125 8.511719 C 16.167969 8.75 15.992188 8.972656 15.792969 9.175781 C 15.589844 9.375 15.375 9.558594 15.136719 9.714844 C 14.902344 9.875 14.652344 10.007812 14.394531 10.121094 C 14.132812 10.230469 13.863281 10.3125 13.582031 10.367188 C 13.304688 10.421875 13.027344 10.449219 12.742188 10.449219 C 12.460938 10.449219 12.179688 10.421875 11.902344 10.367188 C 11.625 10.3125 11.355469 10.230469 11.09375 10.121094 C 10.832031 10.007812 10.582031 9.875 10.347656 9.714844 C 10.113281 9.558594 9.894531 9.375 9.695312 9.175781 C 9.496094 8.972656 9.316406 8.75 9.160156 8.511719 C 9 8.273438 8.867188 8.023438 8.761719 7.757812 C 8.652344 7.496094 8.570312 7.222656 8.515625 6.941406 C 8.460938 6.660156 8.433594 6.375 8.433594 6.089844 C 8.433594 5.804688 8.460938 5.519531 8.515625 5.238281 C 8.570312 4.957031 8.652344 4.6875 8.761719 4.421875 C 8.867188 4.15625 9 3.90625 9.160156 3.667969 C 9.316406 3.429688 9.496094 3.210938 9.695312 3.007812 C 9.894531 2.804688 10.113281 2.625 10.347656 2.464844 C 10.582031 2.304688 10.832031 2.171875 11.09375 2.0625 C 11.355469 1.953125 11.625 1.871094 11.902344 1.8125 C 12.179688 1.757812 12.460938 1.730469 12.742188 1.730469 C 13.027344 1.730469 13.304688 1.757812 13.582031 1.8125 C 13.863281 1.871094 14.132812 1.953125 14.394531 2.0625 C 14.652344 2.171875 14.902344 2.304688 15.136719 2.464844 C 15.375 2.625 15.589844 2.804688 15.792969 3.007812 C 15.992188 3.210938 16.167969 3.429688 16.328125 3.667969 C 16.484375 3.90625 16.617188 4.15625 16.726562 4.421875 C 16.832031 4.6875 16.914062 4.957031 16.972656 5.238281 C 17.027344 5.519531 17.054688 5.804688 17.054688 6.089844 Z M 17.054688 6.089844 " fill-opacity="1" fill-rule="nonzero"/></g><g clip-path="url(#f6cdf8be4a)"><path fill="#6eb68e" d="M 0.597656 3.359375 C 0.570312 9.933594 0.542969 16.507812 0.511719 23.082031 L 9.882812 25.535156 L 11.742188 26.386719 L 26.886719 26.386719 C 27.21875 26.386719 27.535156 26.324219 27.84375 26.195312 C 28.148438 26.066406 28.417969 25.886719 28.65625 25.648438 C 28.890625 25.414062 29.070312 25.140625 29.199219 24.832031 C 29.328125 24.523438 29.390625 24.199219 29.394531 23.867188 L 29.507812 3.972656 C 28.394531 3.414062 26.21875 2.523438 23.40625 2.636719 C 22.292969 2.679688 17.976562 2.851562 15.636719 5.765625 C 14.902344 6.679688 14.75 7.386719 13.863281 7.734375 C 12.355469 8.332031 10.65625 7.128906 9.449219 6.402344 C 7.578125 5.269531 4.75 3.980469 0.597656 3.359375 Z M 0.597656 3.359375 " fill-opacity="1" fill-rule="nonzero"/></g><g clip-path="url(#c32f33a317)"><path fill="#2c7c4c" d="M 16.699219 8.933594 C 16.914062 8.074219 17.667969 7.460938 18.53125 7.429688 C 19.359375 7.402344 20.121094 7.914062 20.425781 8.707031 C 20.65625 8.429688 21.058594 8.046875 21.648438 7.882812 C 22.921875 7.527344 24.523438 8.207031 24.863281 9.324219 C 24.964844 9.660156 24.9375 9.976562 24.886719 10.210938 C 24.941406 10.199219 25.144531 10.15625 25.292969 10.273438 C 25.484375 10.425781 25.523438 10.804688 25.292969 11.136719 C 25.632812 11.039062 26.257812 10.917969 26.921875 11.179688 C 27.691406 11.480469 28.457031 12.277344 28.285156 12.765625 C 28.230469 12.917969 28.097656 13.011719 27.980469 13.074219 C 28.097656 13.089844 28.515625 13.160156 28.835938 13.527344 C 29.300781 14.066406 29.136719 14.761719 29.121094 14.824219 L 18.382812 14.84375 C 18.164062 14.84375 17.953125 14.800781 17.753906 14.71875 C 17.550781 14.632812 17.371094 14.515625 17.214844 14.359375 C 17.0625 14.203125 16.941406 14.023438 16.855469 13.820312 C 16.769531 13.617188 16.726562 13.402344 16.726562 13.183594 Z M 16.699219 8.933594 " fill-opacity="1" fill-rule="nonzero"/></g><path fill="#f7c571" d="M 5.835938 14.761719 L 24.835938 14.632812 C 26.011719 16.828125 27.1875 19.023438 28.363281 21.222656 L 2.417969 21.242188 C 3.554688 19.082031 4.695312 16.921875 5.835938 14.761719 Z M 5.835938 14.761719 " fill-opacity="1" fill-rule="nonzero"/><path fill="#222350" d="M 4.90625 11.917969 C 4.828125 11.882812 4.234375 11.585938 4.148438 10.996094 C 4.085938 10.574219 4.320312 10.226562 4.449219 10.035156 C 4.753906 9.589844 4.980469 9.65625 5.292969 9.246094 C 5.628906 8.8125 5.457031 8.621094 5.769531 8.066406 C 5.90625 7.820312 6.203125 7.304688 6.789062 7.078125 C 7.253906 6.902344 7.949219 6.894531 8.433594 7.34375 C 8.820312 7.703125 8.878906 8.179688 8.886719 8.285156 C 8.921875 8.660156 8.828125 9.003906 8.605469 9.3125 C 8.675781 9.429688 8.878906 9.820312 8.800781 10.320312 C 8.683594 11.054688 8.050781 11.398438 7.976562 11.4375 " fill-opacity="1" fill-rule="nonzero"/><path fill="#95b84f" d="M 9.6875 12.488281 C 9.683594 12.367188 9.710938 12.257812 9.773438 12.15625 C 9.925781 11.921875 10.273438 11.820312 10.640625 11.917969 C 10.765625 12.140625 10.746094 12.410156 10.597656 12.597656 C 10.417969 12.816406 10.082031 12.871094 9.816406 12.707031 " fill-opacity="1" fill-rule="nonzero"/><path fill="#f57578" d="M 6.863281 10.703125 C 6.46875 10.65625 6.09375 10.710938 5.726562 10.867188 C 5.035156 11.167969 4.714844 11.738281 4.625 11.917969 C 4.351562 12.597656 4.238281 13.308594 4.277344 14.039062 C 4.300781 14.445312 4.375 14.835938 4.496094 15.222656 C 4.0625 16.335938 4.058594 17.253906 4.105469 17.785156 C 4.152344 18.347656 4.199219 18.828125 4.558594 19.230469 C 5.144531 19.882812 6.101562 19.816406 6.289062 19.796875 L 5.316406 20.871094 L 7.113281 22.601562 C 7.921875 21.820312 8.667969 21.363281 9.191406 21.089844 C 10.003906 20.664062 10.429688 20.609375 10.921875 20.082031 C 11.078125 19.914062 11.84375 19.089844 11.636719 18.242188 C 11.460938 17.539062 10.699219 17.148438 9.925781 16.753906 C 9.632812 16.609375 9.328125 16.484375 9.015625 16.382812 C 8.59375 16.242188 8.160156 16.140625 7.71875 16.078125 L 8.28125 16.207031 C 8.273438 15.960938 8.265625 15.710938 8.257812 15.464844 C 8.246094 15.257812 8.230469 15.054688 8.214844 14.851562 C 8.226562 14.894531 8.335938 15.292969 8.691406 15.417969 C 9.027344 15.539062 9.328125 15.335938 9.429688 15.265625 C 10.078125 14.828125 9.953125 13.769531 9.945312 13.710938 L 8.800781 12.398438 C 8.789062 12.28125 8.769531 12.164062 8.734375 12.046875 C 8.691406 11.886719 8.546875 11.371094 8.066406 11.042969 C 7.839844 10.890625 7.597656 10.804688 7.328125 10.777344 Z M 6.863281 10.703125 " fill-opacity="1" fill-rule="nonzero"/><path fill="#f7c571" d="M 8.648438 12.617188 C 8.679688 12.445312 8.765625 12.304688 8.910156 12.203125 C 8.933594 12.183594 9.121094 12.054688 9.339844 12.09375 C 9.464844 12.113281 9.460938 12.164062 9.710938 12.246094 C 9.828125 12.285156 9.871094 12.289062 9.925781 12.332031 C 10.019531 12.410156 10.046875 12.53125 10.054688 12.617188 Z M 8.648438 12.617188 " fill-opacity="1" fill-rule="nonzero"/><path fill="#faa686" d="M 9.253906 13.273438 C 9.136719 13.285156 9.109375 13.285156 9.058594 13.296875 C 8.980469 13.316406 8.90625 13.355469 8.84375 13.40625 C 9.019531 13.820312 9.457031 14.015625 9.796875 13.886719 C 10.039062 13.796875 10.214844 13.546875 10.25 13.253906 C 10.199219 13.25 9.75 13.234375 9.492188 13.253906 C 9.429688 13.257812 9.394531 13.261719 9.253906 13.273438 Z M 9.253906 13.273438 " fill-opacity="1" fill-rule="nonzero"/><path fill="#4f6ec1" d="M 14.082031 11.675781 C 14.074219 12.035156 14.066406 12.390625 14.058594 12.75 C 13.285156 12.636719 12.503906 12.5625 11.722656 12.53125 C 11.09375 12.503906 10.863281 12.519531 10.660156 12.683594 C 10.15625 13.089844 10.089844 14.183594 10.640625 14.828125 C 11.039062 15.300781 11.621094 15.363281 11.785156 15.375 C 12.359375 16.078125 12.921875 16.3125 13.257812 16.40625 C 14.417969 16.722656 14.851562 15.886719 16.894531 15.59375 C 17.078125 15.570312 17.414062 15.527344 17.671875 15.265625 C 18.015625 14.921875 18.007812 14.398438 17.996094 13.976562 C 17.984375 13.53125 17.894531 12.746094 17.390625 11.828125 Z M 14.082031 11.675781 " fill-opacity="1" fill-rule="nonzero"/><path fill="#222350" d="M 14.75 8 C 14.640625 8.136719 14.503906 8.238281 14.339844 8.304688 C 14.136719 8.386719 13.925781 8.402344 13.710938 8.347656 C 13.554688 8.25 13.328125 8.070312 13.238281 7.78125 C 13.175781 7.59375 13.203125 7.453125 13.257812 7.035156 C 13.363281 6.226562 13.316406 6.355469 13.367188 6.117188 C 13.492188 5.503906 13.570312 5.117188 13.886719 4.867188 C 13.984375 4.792969 14.265625 4.597656 14.792969 4.648438 C 14.863281 4.613281 14.933594 4.582031 15.011719 4.5625 C 15.53125 4.417969 16 4.75 16.070312 4.804688 C 16.429688 5.0625 16.570312 5.433594 16.632812 5.589844 C 16.726562 5.832031 16.710938 5.933594 16.851562 6.269531 C 16.925781 6.445312 16.992188 6.605469 17.109375 6.773438 C 17.398438 7.179688 17.640625 7.132812 17.933594 7.515625 C 18.023438 7.636719 18.179688 7.84375 18.214844 8.128906 C 18.277344 8.679688 17.820312 9.105469 17.738281 9.179688 Z M 14.75 8 " fill-opacity="1" fill-rule="nonzero"/><path fill="#f35c63" d="M 14.96875 7.976562 C 14.75 7.824219 14.261719 8.1875 14.1875 8.238281 C 13.945312 8.421875 13.75 8.648438 13.605469 8.917969 C 13.3125 9.460938 13.320312 9.992188 13.34375 10.253906 L 12.066406 10.496094 C 12.046875 10.78125 12.042969 11.367188 12.347656 11.894531 C 12.507812 12.167969 12.667969 12.285156 12.738281 12.332031 C 12.84375 12.402344 13.078125 12.558594 13.367188 12.507812 C 13.78125 12.433594 13.957031 11.996094 13.972656 11.960938 L 14.082031 12.003906 L 14.082031 12.179688 L 16.027344 12.203125 C 16.101562 12.289062 16.359375 12.570312 16.785156 12.640625 C 16.886719 12.65625 17.375 12.734375 17.738281 12.378906 C 18.035156 12.082031 18.039062 11.695312 18.039062 11.609375 C 18.136719 11.300781 18.378906 10.402344 17.976562 9.464844 C 17.863281 9.203125 17.683594 8.785156 17.261719 8.503906 C 16.941406 8.285156 16.554688 8.195312 15.984375 8.066406 C 15.808594 8.023438 15.65625 7.996094 15.550781 7.976562 C 15.417969 8.132812 15.253906 8.285156 15.140625 8.238281 C 15.042969 8.203125 15.074219 8.050781 14.96875 7.976562 Z M 14.96875 7.976562 " fill-opacity="1" fill-rule="nonzero"/><path fill="#f35c63" d="M 15.097656 8.042969 C 14.878906 7.890625 14.390625 8.25 14.320312 8.304688 C 14.074219 8.488281 13.878906 8.714844 13.734375 8.984375 C 13.441406 9.523438 13.449219 10.058594 13.472656 10.320312 L 12.199219 10.558594 C 12.175781 10.847656 12.171875 11.433594 12.480469 11.960938 C 12.636719 12.234375 12.796875 12.351562 12.867188 12.398438 C 12.972656 12.46875 13.207031 12.625 13.496094 12.574219 C 13.910156 12.5 14.089844 12.0625 14.101562 12.027344 L 14.210938 12.070312 L 14.210938 12.246094 L 16.15625 12.265625 C 16.230469 12.355469 16.488281 12.636719 16.914062 12.707031 C 17.015625 12.722656 17.507812 12.800781 17.867188 12.441406 C 18.164062 12.148438 18.171875 11.761719 18.171875 11.675781 C 18.269531 11.367188 18.507812 10.464844 18.105469 9.53125 C 17.992188 9.269531 17.8125 8.851562 17.390625 8.566406 C 17.070312 8.351562 16.6875 8.261719 16.113281 8.128906 C 15.9375 8.089844 15.785156 8.0625 15.679688 8.042969 C 15.546875 8.199219 15.382812 8.347656 15.269531 8.304688 C 15.171875 8.269531 15.203125 8.117188 15.097656 8.042969 Z M 15.097656 8.042969 " fill-opacity="1" fill-rule="nonzero"/><path stroke-linecap="butt" transform="matrix(0.0216392, 0, 0, 0.0218907, 0.490898, 1.729814)" fill-opacity="1" fill="#ed1e79" fill-rule="nonzero" stroke-linejoin="miter" d="M 374.993567 494.317367 L 473.916928 494.317367 C 473.916928 499.492217 473.375377 516.26587 460.919698 530.362877 C 456.587288 535.537727 451.171776 539.463476 445.034195 542.318566 C 426.621452 550.526949 404.237334 545.173655 389.976485 532.325751 C 382.936318 526.080242 378.062357 518.407188 374.993567 509.306589 Z M 374.993567 494.317367 " stroke="#333333" stroke-width="3" stroke-opacity="1" stroke-miterlimit="10"/><path fill="#f7c571" d="M 12.066406 9.75 C 12.097656 9.578125 12.1875 9.4375 12.328125 9.335938 C 12.355469 9.316406 12.539062 9.1875 12.761719 9.226562 C 12.882812 9.246094 12.878906 9.296875 13.128906 9.378906 C 13.25 9.417969 13.289062 9.421875 13.34375 9.464844 C 13.4375 9.542969 13.464844 9.664062 13.472656 9.75 Z M 12.066406 9.75 " fill-opacity="1" fill-rule="nonzero"/><path fill="#95b84f" d="M 13.105469 9.617188 C 13.101562 9.5 13.128906 9.390625 13.191406 9.289062 C 13.347656 9.054688 13.695312 8.953125 14.058594 9.050781 C 14.183594 9.273438 14.164062 9.542969 14.015625 9.726562 C 13.835938 9.949219 13.5 10.003906 13.238281 9.835938 " fill-opacity="1" fill-rule="nonzero"/><path stroke-linecap="butt" transform="matrix(0.0216392, 0, 0, 0.0218907, 0.490898, 1.729814)" fill-opacity="1" fill="#ed1e79" fill-rule="nonzero" stroke-linejoin="miter" d="M 636.923853 362.447902 L 528.072053 362.447902 C 525.364296 371.370058 526.086365 380.292214 530.05774 388.857484 C 539.083595 407.950897 560.926161 412.055089 562.911849 412.411975 C 567.063742 413.83952 597.932163 424.902994 626.995414 408.66467 C 638.909541 401.883831 647.935395 392.426346 654.072976 380.292214 Z M 636.923853 362.447902 " stroke="#333333" stroke-width="3" stroke-opacity="1" stroke-miterlimit="10"/><path fill="#222350" d="M 21.382812 10.613281 C 21.21875 10.480469 21.089844 10.320312 20.992188 10.132812 C 20.804688 9.757812 20.925781 9.5625 20.84375 8.886719 C 20.761719 8.222656 20.613281 8.128906 20.703125 7.757812 C 20.726562 7.652344 20.808594 7.328125 21.113281 7.078125 C 21.296875 6.929688 21.507812 6.84375 21.742188 6.816406 C 21.882812 6.742188 22.035156 6.691406 22.195312 6.664062 C 22.335938 6.640625 22.875 6.566406 23.34375 6.90625 C 23.769531 7.214844 23.894531 7.695312 23.925781 7.824219 C 24.03125 8.234375 23.914062 8.425781 24.097656 8.832031 C 24.160156 8.96875 24.242188 9.144531 24.425781 9.289062 C 24.71875 9.527344 24.917969 9.386719 25.289062 9.597656 C 25.382812 9.648438 25.683594 9.824219 25.832031 10.1875 C 25.882812 10.3125 25.996094 10.664062 25.832031 11.042969 C 25.632812 11.488281 25.199219 11.617188 25.136719 11.632812 Z M 21.382812 10.613281 " fill-opacity="1" fill-rule="nonzero"/><path fill="#222350" d="M 21.652344 15.308594 C 21.042969 15.253906 20.4375 15.160156 19.835938 15.027344 C 19.566406 14.964844 19.304688 14.898438 19.058594 14.828125 C 18.96875 14.816406 18.527344 14.765625 18.148438 15.070312 C 17.792969 15.355469 17.738281 15.765625 17.714844 15.921875 C 17.644531 16.449219 17.875 16.855469 18.039062 17.148438 C 18.347656 17.691406 18.769531 18.019531 19.058594 18.199219 C 19.046875 18.011719 19.050781 17.660156 19.253906 17.324219 C 19.496094 16.914062 19.886719 16.761719 20.246094 16.625 C 21.046875 16.320312 21.8125 16.34375 22.347656 16.425781 C 21.921875 16.382812 20.734375 16.300781 19.835938 16.910156 C 19.621094 17.054688 19.320312 17.261719 19.207031 17.652344 C 19.101562 18.015625 19.214844 18.34375 19.273438 18.484375 C 19.320312 18.609375 19.527344 19.113281 20.074219 19.382812 C 20.339844 19.511719 20.621094 19.5625 20.917969 19.535156 L 23.753906 19.535156 C 24.125 19.261719 24.425781 18.925781 24.660156 18.527344 C 25.367188 17.316406 25.070312 16.039062 24.988281 15.726562 Z M 21.652344 15.308594 " fill-opacity="1" fill-rule="nonzero"/><path fill="#ffffff" d="M 22.261719 10.121094 C 21.953125 10.214844 21.648438 10.324219 21.351562 10.449219 C 20.871094 10.65625 20.625 10.757812 20.398438 10.933594 C 19.882812 11.328125 19.71875 11.894531 19.511719 12.617188 C 19.195312 13.71875 19.378906 14.304688 19.425781 14.433594 C 19.566406 14.84375 19.757812 14.949219 19.835938 14.980469 C 20.035156 15.070312 20.234375 15.011719 20.335938 14.980469 C 20.855469 14.832031 21.101562 14.304688 21.15625 14.171875 L 21.417969 14.324219 C 21.378906 14.640625 21.34375 14.953125 21.308594 15.265625 C 21.539062 15.566406 21.820312 15.808594 22.152344 15.988281 C 23.464844 16.691406 24.910156 15.957031 25.09375 15.859375 L 25.222656 15.113281 C 25.375 14.984375 25.488281 14.832031 25.570312 14.652344 C 25.675781 14.417969 25.714844 14.167969 25.679688 13.910156 C 25.738281 13.4375 25.714844 12.972656 25.613281 12.507812 C 25.515625 12.066406 25.355469 11.351562 24.75 10.824219 C 24.394531 10.511719 24.03125 10.394531 23.730469 10.296875 C 23.253906 10.140625 22.761719 10.082031 22.261719 10.121094 Z M 22.261719 10.121094 " fill-opacity="1" fill-rule="nonzero"/><path fill="#f7c571" d="M 20.402344 11.058594 C 20.464844 10.886719 20.582031 10.761719 20.746094 10.683594 C 20.910156 10.605469 21.078125 10.597656 21.25 10.65625 C 21.601562 10.78125 21.691406 11.160156 21.699219 11.183594 L 20.378906 11.261719 C 20.386719 11.195312 20.394531 11.125 20.402344 11.058594 Z M 20.402344 11.058594 " fill-opacity="1" fill-rule="nonzero"/><path fill="#95b84f" d="M 21.328125 11.128906 C 21.417969 11.015625 21.527344 10.929688 21.652344 10.867188 C 21.804688 10.792969 21.9375 10.785156 22.066406 10.777344 C 22.226562 10.769531 22.382812 10.785156 22.542969 10.824219 C 22.511719 10.960938 22.484375 11.101562 22.453125 11.238281 L 21.308594 11.304688 C 21.316406 11.246094 21.324219 11.1875 21.328125 11.128906 Z M 21.328125 11.128906 " fill-opacity="1" fill-rule="nonzero"/><path stroke-linecap="butt" transform="matrix(0.0216392, 0, 0, 0.0218907, 0.490898, 1.729814)" fill-opacity="1" fill="#ed1e79" fill-rule="nonzero" stroke-linejoin="miter" d="M 923.946014 429.364072 L 1027.021268 431.326946 C 1027.201785 433.82515 1028.284887 455.59521 1010.955247 470.405989 C 997.958017 481.647905 982.794582 481.469462 979.003724 481.291019 C 967.089596 482.540121 955.71702 480.577247 945.066512 475.402396 C 936.943244 471.476648 922.862911 464.517366 919.974638 450.42036 C 918.169467 440.962874 921.960326 432.932934 923.946014 429.364072 Z M 923.946014 429.364072 " stroke="#333333" stroke-width="3" stroke-opacity="1" stroke-miterlimit="10"/><path fill="#faa686" d="M 21.652344 7.671875 C 21.523438 7.707031 21.214844 7.820312 21.070312 8.109375 C 20.984375 8.28125 20.984375 8.457031 20.984375 8.742188 C 20.984375 8.945312 20.984375 9.050781 21.027344 9.179688 C 21.117188 9.464844 21.320312 9.628906 21.4375 9.726562 C 21.550781 9.820312 21.640625 9.894531 21.785156 9.925781 C 21.917969 9.953125 22.050781 9.9375 22.179688 9.886719 C 22.304688 9.835938 22.382812 9.761719 22.390625 9.773438 C 22.398438 9.78125 22.355469 9.832031 22.171875 10.011719 L 22.171875 10.277344 C 22.191406 10.355469 22.238281 10.519531 22.367188 10.582031 C 22.5625 10.675781 22.902344 10.527344 23.105469 10.144531 C 22.96875 9.867188 22.90625 9.574219 22.910156 9.269531 C 22.984375 9.230469 23.175781 9.121094 23.277344 8.894531 C 23.316406 8.808594 23.414062 8.589844 23.296875 8.414062 C 23.210938 8.28125 23.054688 8.261719 23.039062 8.261719 C 22.886719 8.246094 22.730469 8.332031 22.648438 8.480469 C 22.542969 8.445312 22.445312 8.402344 22.347656 8.347656 C 22.054688 8.183594 21.824219 7.960938 21.652344 7.671875 Z M 21.652344 7.671875 " fill-opacity="1" fill-rule="nonzero"/><path fill="#faa686" d="M 21.914062 11.9375 C 22.0625 11.898438 22.214844 11.890625 22.367188 11.917969 C 22.542969 11.953125 22.695312 12.035156 22.824219 12.15625 C 22.949219 12.28125 23.035156 12.425781 23.082031 12.597656 L 23.40625 13.054688 L 22.886719 13.625 C 22.726562 13.554688 22.589844 13.453125 22.476562 13.316406 C 22.378906 13.199219 22.378906 13.144531 22.261719 13.035156 C 22.230469 13.003906 22.179688 12.964844 21.933594 12.816406 C 21.828125 12.75 21.738281 12.699219 21.675781 12.660156 C 21.652344 12.636719 21.644531 12.609375 21.652344 12.574219 C 21.667969 12.53125 21.726562 12.507812 21.785156 12.53125 C 21.59375 12.417969 21.558594 12.351562 21.566406 12.3125 C 21.574219 12.285156 21.597656 12.273438 21.632812 12.203125 C 21.640625 12.183594 21.644531 12.175781 21.652344 12.160156 C 21.675781 12.113281 21.703125 12.066406 21.742188 12.027344 C 21.769531 11.996094 21.8125 11.964844 21.914062 11.9375 Z M 21.914062 11.9375 " fill-opacity="1" fill-rule="nonzero"/><path fill="#faa686" d="M 19.535156 12.488281 C 19.632812 12.253906 19.660156 12.011719 19.621094 11.765625 C 19.597656 11.648438 19.5625 11.539062 19.511719 11.4375 C 19.484375 11.359375 19.457031 11.246094 19.488281 11.128906 C 19.53125 10.984375 19.621094 10.988281 19.75 10.800781 C 19.886719 10.597656 19.875 10.46875 20.007812 10.40625 C 20.058594 10.386719 20.109375 10.378906 20.160156 10.386719 C 20.417969 10.402344 20.570312 10.675781 20.59375 10.714844 C 20.613281 10.824219 20.613281 10.933594 20.59375 11.042969 C 20.578125 11.121094 20.539062 11.226562 20.464844 11.4375 L 20.441406 12.53125 Z M 19.535156 12.488281 " fill-opacity="1" fill-rule="nonzero"/><path stroke-linecap="round" transform="matrix(0.0216392, 0, 0, 0.0218907, 0.490898, 1.729814)" fill="none" stroke-linejoin="miter" d="M 975.573899 484.859881 C 981.530963 488.964073 988.210095 492.889822 995.430778 496.81557 C 1000.304739 499.492217 1004.998184 501.811978 1009.511111 503.953295 " stroke="#333333" stroke-width="3" stroke-opacity="1" stroke-miterlimit="10"/><path stroke-linecap="round" transform="matrix(0.0216392, 0, 0, 0.0218907, 0.490898, 1.729814)" fill="none" stroke-linejoin="miter" d="M 979.003724 476.294612 C 986.946475 479.506588 994.528193 483.253893 1001.929393 487.358085 C 1007.886457 490.748504 1013.301969 494.138924 1017.995413 497.3509 " stroke="#333333" stroke-width="3" stroke-opacity="1" stroke-miterlimit="10"/><path stroke-linecap="round" transform="matrix(0.0216392, 0, 0, 0.0218907, 0.490898, 1.729814)" fill="none" stroke-linejoin="miter" d="M 990.015266 469.33533 C 1004.637149 473.261079 1017.634379 480.22036 1029.006955 490.391618 " stroke="#333333" stroke-width="3" stroke-opacity="1" stroke-miterlimit="10"/><path fill="#333333" d="M 19.703125 11.179688 L 20.117188 10.90625 L 20.21875 10.839844 C 20.230469 10.828125 20.25 10.824219 20.269531 10.824219 L 20.332031 10.824219 L 20.574219 10.832031 C 20.613281 10.835938 20.613281 10.769531 20.574219 10.769531 L 20.320312 10.757812 C 20.28125 10.757812 20.238281 10.75 20.207031 10.769531 L 20.097656 10.839844 L 19.667969 11.121094 C 19.632812 11.144531 19.667969 11.203125 19.703125 11.179688 Z M 19.703125 11.179688 " fill-opacity="1" fill-rule="nonzero"/><path fill="#333333" d="M 19.886719 11.429688 L 20.191406 11.207031 C 20.242188 11.167969 20.292969 11.128906 20.34375 11.09375 C 20.363281 11.078125 20.398438 11.09375 20.421875 11.09375 L 20.519531 11.105469 C 20.558594 11.113281 20.558594 11.046875 20.519531 11.042969 L 20.425781 11.03125 L 20.375 11.023438 C 20.359375 11.019531 20.347656 11.019531 20.332031 11.023438 C 20.304688 11.039062 20.277344 11.058594 20.253906 11.078125 L 20.171875 11.140625 L 19.851562 11.375 C 19.820312 11.398438 19.851562 11.457031 19.886719 11.429688 Z M 19.886719 11.429688 " fill-opacity="1" fill-rule="nonzero"/><path fill="#333333" d="M 19.773438 10.988281 L 20.226562 10.605469 L 20.203125 10.617188 L 20.375 10.625 C 20.417969 10.628906 20.417969 10.5625 20.375 10.558594 L 20.277344 10.554688 L 20.234375 10.550781 C 20.21875 10.550781 20.203125 10.550781 20.1875 10.550781 C 20.175781 10.5625 20.160156 10.570312 20.148438 10.582031 L 20.113281 10.613281 L 20.035156 10.679688 L 19.726562 10.941406 C 19.695312 10.96875 19.742188 11.015625 19.773438 10.988281 Z M 19.773438 10.988281 " fill-opacity="1" fill-rule="nonzero"/><path fill="#333333" d="M 20.058594 11.671875 L 20.492188 11.34375 C 20.507812 11.332031 20.511719 11.316406 20.503906 11.300781 C 20.492188 11.28125 20.476562 11.277344 20.457031 11.285156 L 20.027344 11.617188 C 20.007812 11.625 20.003906 11.640625 20.015625 11.660156 C 20.023438 11.679688 20.039062 11.683594 20.058594 11.671875 Z M 20.058594 11.671875 " fill-opacity="1" fill-rule="nonzero"/><path stroke-linecap="round" transform="matrix(0.0216392, 0, 0, 0.0218907, 0.490898, 1.729814)" fill="none" stroke-linejoin="miter" d="M 943.441859 482.897007 C 941.817205 495.566469 941.095136 508.23593 941.456171 520.905391 C 941.997722 537.322158 943.802893 543.032338 944.524961 544.816769 C 949.579439 558.913776 960.04943 567.479045 966.548045 571.940123 " stroke="#333333" stroke-width="3" stroke-opacity="1" stroke-miterlimit="10"/><path stroke-linecap="round" transform="matrix(0.0216392, 0, 0, 0.0218907, 0.490898, 1.729814)" fill="none" stroke-linejoin="miter" d="M 1092.548968 462.554492 L 1092.548968 539.820362 " stroke="#333333" stroke-width="3" stroke-opacity="1" stroke-miterlimit="10"/><path stroke-linecap="round" transform="matrix(0.0216392, 0, 0, 0.0218907, 0.490898, 1.729814)" fill="none" stroke-linejoin="miter" d="M 1064.749338 521.619164 C 1069.623299 522.868266 1073.775192 525.901799 1077.566051 529.113775 C 1089.299661 539.106589 1099.589135 550.348506 1108.434472 563.017967 " stroke="#333333" stroke-width="3" stroke-opacity="1" stroke-miterlimit="10"/><path stroke-linecap="round" transform="matrix(0.0216392, 0, 0, 0.0218907, 0.490898, 1.729814)" fill="none" stroke-linejoin="miter" d="M 1037.852292 556.415572 C 1042.545737 567.657488 1047.419698 579.077848 1054.640381 588.892219 C 1070.886918 610.840723 1092.729485 622.082639 1119.987565 622.439526 C 1127.388765 622.439526 1135.512034 621.190424 1140.927546 616.015573 " stroke="#333333" stroke-width="3" stroke-opacity="1" stroke-miterlimit="10"/><path stroke-linecap="round" transform="matrix(0.0216392, 0, 0, 0.0218907, 0.490898, 1.729814)" fill="none" stroke-linejoin="miter" d="M 930.264112 439.535329 L 1025.03558 440.784431 " stroke="#333333" stroke-width="3" stroke-opacity="1" stroke-miterlimit="10"/><path stroke-linecap="round" transform="matrix(0.0216392, 0, 0, 0.0218907, 0.490898, 1.729814)" fill="none" stroke-linejoin="miter" d="M 735.666697 412.590419 C 747.21979 417.943712 756.606678 425.973652 763.827362 436.680239 " stroke="#333333" stroke-width="3" stroke-opacity="1" stroke-miterlimit="10"/><path stroke-linecap="round" transform="matrix(0.0216392, 0, 0, 0.0218907, 0.490898, 1.729814)" fill="none" stroke-linejoin="miter" d="M 617.066974 415.445508 C 615.261803 427.401197 615.622837 439.356886 618.330594 451.312575 C 618.691628 454.346108 619.77473 457.201198 621.399384 459.877845 C 623.024038 462.554492 625.731794 464.517366 628.620067 464.517366 " stroke="#333333" stroke-width="3" stroke-opacity="1" stroke-miterlimit="10"/><path stroke-linecap="round" transform="matrix(0.0216392, 0, 0, 0.0218907, 0.490898, 1.729814)" fill="none" stroke-linejoin="miter" d="M 581.324592 421.869461 C 586.920621 430.256287 593.960788 437.037126 602.625607 442.211976 " stroke="#333333" stroke-width="3" stroke-opacity="1" stroke-miterlimit="10"/><path stroke-linecap="round" transform="matrix(0.0216392, 0, 0, 0.0218907, 0.490898, 1.729814)" fill="none" stroke-linejoin="miter" d="M 540.527731 607.80719 C 553.885995 591.925752 571.396152 579.79162 589.808895 570.512578 C 608.402154 561.233536 627.897999 554.274254 647.574361 547.493416 C 664.904001 541.42635 682.233641 535.537727 700.285349 532.504194 C 718.337057 529.649104 737.291351 529.827547 754.440474 536.073056 " stroke="#333333" stroke-width="4" stroke-opacity="1" stroke-miterlimit="10"/><path stroke-linecap="round" transform="matrix(0.0216392, 0, 0, 0.0218907, 0.490898, 1.729814)" fill="none" stroke-linejoin="miter" d="M 634.938165 548.564075 C 622.121452 539.463476 606.416466 535.359284 591.253031 531.433535 L 528.25257 515.373655 " stroke="#333333" stroke-width="4" stroke-opacity="1" stroke-miterlimit="10"/><path fill="#faa686" d="M 14.40625 5.679688 C 14.246094 5.957031 14.03125 6.175781 13.753906 6.335938 C 13.722656 6.429688 13.625 6.769531 13.777344 7.144531 C 13.871094 7.375 14.023438 7.558594 14.230469 7.691406 C 14.402344 7.804688 14.589844 7.871094 14.792969 7.890625 L 14.644531 8.042969 C 14.644531 8.066406 14.636719 8.304688 14.816406 8.4375 C 14.996094 8.566406 15.21875 8.488281 15.292969 8.457031 C 15.527344 8.371094 15.632812 8.164062 15.660156 8.109375 L 15.574219 8 L 15.574219 7.101562 C 15.636719 7.070312 15.691406 7.035156 15.746094 6.992188 C 15.84375 6.914062 16.011719 6.78125 16.027344 6.574219 C 16.027344 6.5625 16.042969 6.339844 15.898438 6.246094 C 15.773438 6.167969 15.609375 6.238281 15.53125 6.269531 C 15.476562 6.292969 15.425781 6.320312 15.378906 6.355469 C 14.953125 6.28125 14.628906 6.054688 14.40625 5.679688 Z M 14.40625 5.679688 " fill-opacity="1" fill-rule="nonzero"/><path fill="#faa686" d="M 15.746094 10.429688 L 15.183594 10.996094 L 14.859375 10.691406 C 14.722656 10.734375 14.320312 10.847656 13.972656 10.648438 C 13.878906 10.59375 13.679688 10.480469 13.667969 10.296875 C 13.667969 10.234375 13.679688 10.175781 13.710938 10.121094 L 14.492188 10.035156 C 14.371094 9.933594 14.273438 9.816406 14.1875 9.683594 C 14.167969 9.652344 14.160156 9.632812 14.167969 9.617188 C 14.203125 9.550781 14.574219 9.679688 14.792969 9.773438 C 14.914062 9.824219 15.027344 9.882812 15.140625 9.945312 " fill-opacity="1" fill-rule="nonzero"/><path fill="#faa686" d="M 11.9375 10.121094 L 12.671875 10.714844 C 12.933594 10.664062 13.007812 10.683594 13.019531 10.714844 C 13.050781 10.796875 12.695312 11.15625 12.328125 11.0625 C 12.070312 11 11.957031 10.757812 11.9375 10.714844 C 11.804688 10.429688 11.917969 10.164062 11.9375 10.121094 Z M 11.9375 10.121094 " fill-opacity="1" fill-rule="nonzero"/><path stroke-linecap="round" transform="matrix(0.0216392, 0, 0, 0.0218907, 0.490898, 1.729814)" fill="none" stroke-linejoin="miter" d="M 526.808433 374.046705 L 627.897999 373.868262 " stroke="#333333" stroke-width="3" stroke-opacity="1" stroke-miterlimit="10"/><path stroke-linecap="round" transform="matrix(0.0216392, 0, 0, 0.0218907, 0.490898, 1.729814)" fill="none" stroke-linejoin="miter" d="M 397.738719 505.023954 L 471.93124 504.845511 " stroke="#333333" stroke-width="3" stroke-opacity="1" stroke-miterlimit="10"/><path stroke-linecap="round" transform="matrix(0.0216392, 0, 0, 0.0218907, 0.490898, 1.729814)" fill="none" stroke-linejoin="miter" d="M 610.568359 393.497005 C 621.399384 391.891017 632.049892 389.571256 642.7004 386.35928 " stroke="#333333" stroke-width="3" stroke-opacity="1" stroke-miterlimit="10"/><path stroke-linecap="round" transform="matrix(0.0216392, 0, 0, 0.0218907, 0.490898, 1.729814)" fill="none" stroke-linejoin="miter" d="M 616.344906 402.597604 C 627.717482 402.062275 638.36799 399.385628 648.657463 394.567664 " stroke="#333333" stroke-width="3" stroke-opacity="1" stroke-miterlimit="10"/><path stroke-linecap="round" transform="matrix(0.0216392, 0, 0, 0.0218907, 0.490898, 1.729814)" fill="none" stroke-linejoin="miter" d="M 631.147306 410.270658 C 639.270575 409.199999 647.03281 406.880239 654.43401 403.311376 " stroke="#333333" stroke-width="3" stroke-opacity="1" stroke-miterlimit="10"/><path fill="#222350" d="M 15.636719 7.453125 C 15.601562 7.667969 15.578125 7.886719 15.574219 8.109375 C 15.558594 8.628906 15.636719 8.964844 15.679688 9.289062 C 15.726562 9.640625 15.757812 10.148438 15.660156 10.800781 C 15.847656 10.792969 16.140625 10.742188 16.394531 10.539062 C 16.859375 10.167969 17.015625 9.429688 16.761719 8.699219 C 16.851562 8.789062 16.925781 8.890625 16.980469 9.003906 C 17.152344 9.367188 17.078125 9.71875 17.042969 9.835938 C 17.089844 9.769531 17.574219 8.976562 17.21875 8.285156 C 17.136719 8.128906 17.03125 7.996094 16.894531 7.890625 Z M 15.636719 7.453125 " fill-opacity="1" fill-rule="nonzero"/><path stroke-linecap="round" transform="matrix(0.0216392, 0, 0, 0.0218907, 0.490898, 1.729814)" fill="none" stroke-linejoin="miter" d="M 684.399846 426.152096 L 701.368451 455.059881 C 706.603447 463.982037 712.018959 473.261079 719.42016 480.577247 C 737.110834 498.421558 766.174084 503.953295 789.099753 493.782037 " stroke="#333333" stroke-width="3" stroke-opacity="1" stroke-miterlimit="10"/><path fill="#faa686" d="M 8.171875 8 C 7.960938 8.492188 7.59375 8.792969 7.070312 8.894531 C 7.003906 8.808594 6.917969 8.757812 6.808594 8.742188 C 6.796875 8.742188 6.625 8.726562 6.507812 8.851562 C 6.402344 8.964844 6.410156 9.109375 6.421875 9.226562 C 6.421875 9.246094 6.453125 9.621094 6.636719 9.664062 C 6.683594 9.671875 6.726562 9.664062 6.765625 9.640625 C 6.753906 9.71875 6.734375 9.839844 6.722656 9.992188 C 6.710938 10.140625 6.710938 10.191406 6.703125 10.277344 C 6.679688 10.429688 6.628906 10.578125 6.550781 10.714844 C 6.566406 10.945312 6.714844 11.136719 6.917969 11.195312 C 7.164062 11.265625 7.445312 11.117188 7.546875 10.84375 C 7.53125 10.714844 7.515625 10.582031 7.503906 10.449219 C 7.65625 10.472656 7.804688 10.464844 7.957031 10.429688 C 8.074219 10.398438 8.273438 10.351562 8.433594 10.1875 C 8.464844 10.15625 8.546875 10.0625 8.628906 9.835938 C 8.679688 9.6875 8.792969 9.359375 8.714844 8.941406 C 8.617188 8.410156 8.28125 8.09375 8.171875 8 Z M 8.171875 8 " fill-opacity="1" fill-rule="nonzero"/><path fill="#faa686" d="M 7.242188 13.558594 L 7.546875 14.019531 C 7.574219 14.007812 7.621094 13.992188 7.675781 13.976562 C 7.910156 13.898438 8.03125 13.867188 8.109375 13.84375 C 8.367188 13.761719 8.390625 13.660156 8.777344 13.449219 C 8.898438 13.382812 9.019531 13.328125 9.148438 13.273438 C 9.144531 13.226562 9.136719 13.160156 9.125 13.078125 C 9.101562 12.925781 9.089844 12.898438 9.082031 12.878906 C 9.074219 12.863281 9.015625 12.753906 8.910156 12.726562 C 8.847656 12.710938 8.816406 12.734375 8.734375 12.707031 C 8.703125 12.695312 8.675781 12.679688 8.648438 12.660156 C 8.507812 12.578125 8.265625 12.703125 8.214844 12.726562 C 8.109375 12.78125 8.035156 12.851562 7.890625 12.988281 C 7.710938 13.164062 7.679688 13.222656 7.546875 13.339844 C 7.449219 13.421875 7.351562 13.496094 7.242188 13.558594 Z M 7.242188 13.558594 " fill-opacity="1" fill-rule="nonzero"/><path stroke-linecap="round" transform="matrix(0.0216392, 0, 0, 0.0218907, 0.490898, 1.729814)" fill="none" stroke-linejoin="miter" d="M 397.738719 523.046709 C 383.838904 523.582038 371.563742 528.400002 360.732717 537.322158 " stroke="#333333" stroke-width="3" stroke-opacity="1" stroke-miterlimit="10"/><path stroke-linecap="round" transform="matrix(0.0216392, 0, 0, 0.0218907, 0.490898, 1.729814)" fill="none" stroke-linejoin="miter" d="M 395.391997 513.767667 C 381.672699 512.875451 370.119606 517.514972 360.913234 527.864673 " stroke="#333333" stroke-width="3" stroke-opacity="1" stroke-miterlimit="10"/><path stroke-linecap="round" transform="matrix(0.0216392, 0, 0, 0.0218907, 0.490898, 1.729814)" fill="none" stroke-linejoin="miter" d="M 382.033733 503.061079 C 372.646845 503.239523 364.704093 506.808385 358.024961 513.41078 " stroke="#333333" stroke-width="3" stroke-opacity="1" stroke-miterlimit="10"/><path stroke-linecap="round" transform="matrix(0.0216392, 0, 0, 0.0218907, 0.490898, 1.729814)" fill="none" stroke-linejoin="miter" d="M 392.684241 551.240721 C 387.088211 557.843117 382.755801 565.159285 379.687011 573.189225 " stroke="#333333" stroke-width="3" stroke-opacity="1" stroke-miterlimit="10"/><path stroke-linecap="round" transform="matrix(0.0216392, 0, 0, 0.0218907, 0.490898, 1.729814)" fill="none" stroke-linejoin="miter" d="M 237.259033 480.398803 L 238.883687 570.691021 L 303.328285 542.318566 " stroke="#333333" stroke-width="3" stroke-opacity="1" stroke-miterlimit="10"/><path stroke-linecap="round" transform="matrix(0.0216392, 0, 0, 0.0218907, 0.490898, 1.729814)" fill="none" stroke-linejoin="miter" d="M 352.248415 461.30539 L 352.609449 504.131738 " stroke="#333333" stroke-width="3" stroke-opacity="1" stroke-miterlimit="10"/><path stroke-linecap="round" transform="matrix(0.0216392, 0, 0, 0.0218907, 0.490898, 1.729814)" fill="none" stroke-linejoin="miter" d="M 298.454324 695.244318 C 320.116374 698.81318 342.139458 702.917372 361.996337 712.5533 C 381.672699 722.189229 399.363373 738.070666 406.764573 758.948511 " stroke="#333333" stroke-width="3" stroke-opacity="1" stroke-miterlimit="10"/><path stroke-linecap="round" transform="matrix(0.0216392, 0, 0, 0.0218907, 0.490898, 1.729814)" fill="none" stroke-linejoin="miter" d="M 334.377223 764.480248 C 315.061896 779.826356 296.82967 796.243123 279.50003 813.908992 C 268.307971 825.329351 258.199015 836.392824 248.992644 847.277855 " stroke="#333333" stroke-width="3" stroke-opacity="1" stroke-miterlimit="10"/><path stroke-linecap="round" transform="matrix(0.0216392, 0, 0, 0.0218907, 0.490898, 1.729814)" fill="none" stroke-linejoin="miter" d="M 191.588211 624.045514 C 198.267343 632.789226 209.098368 637.964077 219.929393 639.213179 C 230.940935 640.462281 241.952477 638.320963 252.241951 634.216771 C 262.531425 630.291023 272.09883 624.580843 281.305201 618.69222 C 291.594675 612.268268 301.884149 605.487429 310.729486 597.279046 C 315.061896 593.174854 319.033271 588.713776 322.643613 583.717369 C 326.073438 579.077848 329.503262 575.865872 328.059126 569.263476 C 327.337057 565.873057 325.351369 563.017967 323.185164 560.162877 L 310.910003 543.567667 " stroke="#333333" stroke-width="3" stroke-opacity="1" stroke-miterlimit="10"/><path stroke-linecap="round" transform="matrix(0.0216392, 0, 0, 0.0218907, 0.490898, 1.729814)" fill="none" stroke-linejoin="miter" d="M 396.294583 547.850302 L 390.157002 554.095811 " stroke="#333333" stroke-width="3" stroke-opacity="1" stroke-miterlimit="10"/><path stroke-linecap="round" transform="matrix(0.0216392, 0, 0, 0.0218907, 0.490898, 1.729814)" fill="none" stroke-linejoin="miter" d="M 387.81028 536.429943 C 392.323207 544.995212 399.182856 550.883835 408.389227 553.917368 C 417.595598 557.129344 426.621452 556.772458 435.466789 552.846709 " stroke="#333333" stroke-width="3" stroke-opacity="1" stroke-miterlimit="10"/><path stroke-linecap="round" transform="matrix(0.0216392, 0, 0, 0.0218907, 0.490898, 1.729814)" fill="none" stroke-linejoin="miter" d="M 375.535118 495.031139 L 473.375377 495.209582 " stroke="#333333" stroke-width="3" stroke-opacity="1" stroke-miterlimit="10"/><path fill="#fe5c5a" d="M 22.238281 19.378906 L 26.507812 19.378906 C 26.71875 19.378906 26.898438 19.457031 27.046875 19.605469 C 27.195312 19.757812 27.269531 19.9375 27.269531 20.152344 L 27.269531 22.746094 C 27.269531 22.960938 27.195312 23.140625 27.046875 23.292969 C 26.898438 23.445312 26.71875 23.519531 26.507812 23.519531 L 22.238281 23.519531 C 22.027344 23.519531 21.847656 23.445312 21.699219 23.292969 C 21.550781 23.140625 21.476562 22.960938 21.476562 22.746094 L 21.476562 20.152344 C 21.476562 19.9375 21.550781 19.757812 21.699219 19.605469 C 21.847656 19.457031 22.027344 19.378906 22.238281 19.378906 Z M 22.238281 19.378906 " fill-opacity="1" fill-rule="nonzero"/><path fill="#fe5c5a" d="M 25.417969 20.589844 L 23.324219 20.589844 C 23.183594 20.589844 23.066406 20.539062 22.964844 20.4375 C 22.867188 20.339844 22.816406 20.21875 22.816406 20.074219 L 22.816406 18.867188 C 22.816406 18.726562 22.867188 18.605469 22.964844 18.503906 C 23.066406 18.402344 23.183594 18.351562 23.324219 18.351562 L 25.417969 18.351562 C 25.558594 18.351562 25.679688 18.402344 25.777344 18.503906 C 25.875 18.605469 25.925781 18.726562 25.925781 18.867188 L 25.925781 20.074219 C 25.925781 20.21875 25.875 20.339844 25.777344 20.4375 C 25.679688 20.539062 25.558594 20.589844 25.417969 20.589844 Z M 23.324219 18.585938 C 23.25 18.585938 23.183594 18.613281 23.128906 18.667969 C 23.074219 18.722656 23.046875 18.789062 23.046875 18.867188 L 23.046875 20.074219 C 23.046875 20.152344 23.074219 20.21875 23.128906 20.273438 C 23.183594 20.328125 23.25 20.355469 23.324219 20.359375 L 25.417969 20.359375 C 25.496094 20.355469 25.5625 20.328125 25.617188 20.273438 C 25.671875 20.21875 25.699219 20.152344 25.699219 20.074219 L 25.699219 18.867188 C 25.699219 18.789062 25.671875 18.722656 25.617188 18.667969 C 25.5625 18.613281 25.496094 18.585938 25.417969 18.585938 Z M 23.324219 18.585938 " fill-opacity="1" fill-rule="nonzero"/><path stroke-linecap="round" transform="matrix(0.0216392, 0, 0, 0.0218907, 0.490898, 1.729814)" fill="none" stroke-linejoin="miter" d="M 989.293197 852.452705 L 1218.910926 853.88025 " stroke="#333333" stroke-width="3" stroke-opacity="1" stroke-miterlimit="10"/><path stroke-linecap="round" transform="matrix(0.0216392, 0, 0, 0.0218907, 0.490898, 1.729814)" fill="none" stroke-linejoin="miter" d="M 988.390612 896.528155 L 1218.00834 897.777257 " stroke="#333333" stroke-width="3" stroke-opacity="1" stroke-miterlimit="10"/><path stroke-linecap="round" transform="matrix(0.0216392, 0, 0, 0.0218907, 0.490898, 1.729814)" fill="none" stroke-linejoin="miter" d="M 987.307509 948.455103 L 1216.925238 949.882648 " stroke="#333333" stroke-width="3" stroke-opacity="1" stroke-miterlimit="10"/><g clip-path="url(#59902b8768)"><path fill="#2c7c4c" d="M 0.492188 20.125 C 0.722656 19.210938 1.519531 18.558594 2.4375 18.527344 C 3.316406 18.5 4.128906 19.042969 4.449219 19.886719 C 4.695312 19.59375 5.121094 19.183594 5.75 19.011719 C 7.101562 18.632812 8.808594 19.351562 9.167969 20.542969 C 9.277344 20.898438 9.246094 21.234375 9.191406 21.484375 C 9.25 21.46875 9.46875 21.425781 9.621094 21.550781 C 9.828125 21.710938 9.871094 22.113281 9.621094 22.46875 C 9.984375 22.363281 10.648438 22.234375 11.355469 22.511719 C 12.171875 22.832031 12.984375 23.679688 12.804688 24.199219 C 12.746094 24.359375 12.605469 24.460938 12.480469 24.527344 C 12.605469 24.542969 13.050781 24.617188 13.386719 25.007812 C 13.886719 25.582031 13.707031 26.320312 13.691406 26.386719 L 2.28125 26.40625 C 2.050781 26.40625 1.828125 26.363281 1.613281 26.273438 C 1.398438 26.183594 1.207031 26.054688 1.042969 25.890625 C 0.878906 25.726562 0.75 25.535156 0.660156 25.316406 C 0.570312 25.101562 0.523438 24.875 0.523438 24.640625 Z M 0.492188 20.125 " fill-opacity="1" fill-rule="nonzero"/></g><path stroke-linecap="round" transform="matrix(0.0216392, 0, 0, 0.0218907, 0.490898, 1.729814)" fill="none" stroke-linejoin="miter" d="M 951.745644 307.308979 C 957.341674 303.026344 963.298738 302.312571 969.797352 305.167661 " stroke="#333333" stroke-width="3" stroke-opacity="1" stroke-miterlimit="10"/><path stroke-linecap="round" transform="matrix(0.0216392, 0, 0, 0.0218907, 0.490898, 1.729814)" fill="none" stroke-linejoin="miter" d="M 993.264573 305.167661 C 998.680086 303.38323 1004.276115 303.204787 1009.872145 305.167661 " stroke="#333333" stroke-width="3" stroke-opacity="1" stroke-miterlimit="10"/><path stroke-linecap="round" transform="matrix(0.0216392, 0, 0, 0.0218907, 0.490898, 1.729814)" fill="none" stroke-linejoin="miter" d="M 978.462172 326.223949 C 976.657002 328.54371 975.032348 331.041913 973.949245 333.897003 C 973.227177 335.324548 973.04666 336.752093 973.407694 338.358081 C 974.129762 340.320956 975.573899 341.570057 977.559587 341.926944 C 979.364758 342.28383 981.350446 342.28383 983.336134 341.926944 " stroke="#333333" stroke-width="3" stroke-opacity="1" stroke-miterlimit="10"/><path fill="#333333" d="M 21.40625 8.820312 C 21.40625 8.878906 21.378906 8.90625 21.328125 8.90625 C 21.277344 8.90625 21.253906 8.878906 21.253906 8.820312 C 21.253906 8.761719 21.277344 8.730469 21.328125 8.730469 C 21.378906 8.730469 21.40625 8.761719 21.40625 8.820312 Z M 21.40625 8.820312 " fill-opacity="1" fill-rule="nonzero"/><path fill="#333333" d="M 22.261719 8.808594 C 22.261719 8.867188 22.234375 8.894531 22.183594 8.894531 C 22.132812 8.894531 22.109375 8.867188 22.109375 8.808594 C 22.109375 8.75 22.132812 8.722656 22.183594 8.722656 C 22.234375 8.722656 22.261719 8.75 22.261719 8.808594 Z M 22.261719 8.808594 " fill-opacity="1" fill-rule="nonzero"/><path fill="#ffffff" d="M 21.632812 9.367188 C 21.761719 9.402344 21.894531 9.402344 22.023438 9.367188 C 22.101562 9.347656 22.175781 9.3125 22.246094 9.269531 C 22.242188 9.300781 22.214844 9.464844 22.074219 9.566406 C 22.042969 9.589844 21.886719 9.695312 21.753906 9.617188 C 21.632812 9.542969 21.632812 9.378906 21.632812 9.367188 Z M 21.632812 9.367188 " fill-opacity="1" fill-rule="nonzero"/><path stroke-linecap="round" transform="matrix(0.0216392, 0, 0, 0.0218907, 0.490898, 1.729814)" fill="none" stroke-linejoin="miter" d="M 618.691628 222.370054 C 624.287657 218.08742 630.244721 217.373647 636.743336 220.050294 " stroke="#333333" stroke-width="3" stroke-opacity="1" stroke-miterlimit="10"/><path stroke-linecap="round" transform="matrix(0.0216392, 0, 0, 0.0218907, 0.490898, 1.729814)" fill="none" stroke-linejoin="miter" d="M 660.210557 219.158078 C 665.806586 217.373647 671.222099 217.195204 676.818128 219.158078 " stroke="#333333" stroke-width="3" stroke-opacity="1" stroke-miterlimit="10"/><path stroke-linecap="round" transform="matrix(0.0216392, 0, 0, 0.0218907, 0.490898, 1.729814)" fill="none" stroke-linejoin="miter" d="M 645.76919 233.255085 C 644.144536 235.217959 642.7004 237.53772 641.617297 240.035923 C 641.075746 241.285025 640.895229 242.534127 641.075746 243.961672 C 641.797814 245.746103 643.061434 246.816762 645.047122 247.173648 C 646.671775 247.530534 648.476946 247.530534 650.282117 247.173648 " stroke="#333333" stroke-width="3" stroke-opacity="1" stroke-miterlimit="10"/><path fill="#333333" d="M 14.199219 6.785156 C 14.199219 6.84375 14.175781 6.871094 14.125 6.871094 C 14.074219 6.871094 14.046875 6.84375 14.046875 6.785156 C 14.046875 6.726562 14.074219 6.695312 14.125 6.695312 C 14.175781 6.695312 14.199219 6.726562 14.199219 6.785156 Z M 14.199219 6.785156 " fill-opacity="1" fill-rule="nonzero"/><path fill="#333333" d="M 15.054688 6.773438 C 15.054688 6.832031 15.027344 6.859375 14.976562 6.859375 C 14.929688 6.859375 14.902344 6.832031 14.902344 6.773438 C 14.902344 6.714844 14.929688 6.683594 14.976562 6.683594 C 15.027344 6.683594 15.054688 6.714844 15.054688 6.773438 Z M 15.054688 6.773438 " fill-opacity="1" fill-rule="nonzero"/><path fill="#ffffff" d="M 14.320312 7.292969 C 14.464844 7.332031 14.609375 7.335938 14.753906 7.300781 C 14.839844 7.28125 14.921875 7.246094 15 7.195312 C 14.996094 7.234375 14.964844 7.417969 14.800781 7.523438 C 14.769531 7.546875 14.59375 7.664062 14.449219 7.570312 C 14.316406 7.488281 14.320312 7.300781 14.320312 7.292969 Z M 14.320312 7.292969 " fill-opacity="1" fill-rule="nonzero"/><path stroke-linecap="round" transform="matrix(0.0216392, 0, 0, 0.0218907, 0.490898, 1.729814)" fill="none" stroke-linejoin="miter" d="M 375.715635 324.617961 C 370.841674 321.941314 365.967713 321.762871 360.913234 324.261075 " stroke="#333333" stroke-width="3" stroke-opacity="1" stroke-miterlimit="10"/><path stroke-linecap="round" transform="matrix(0.0216392, 0, 0, 0.0218907, 0.490898, 1.729814)" fill="none" stroke-linejoin="miter" d="M 341.958941 326.937722 C 335.460326 325.510177 329.503262 326.580836 324.268267 330.506584 " stroke="#333333" stroke-width="3" stroke-opacity="1" stroke-miterlimit="10"/><path stroke-linecap="round" transform="matrix(0.0216392, 0, 0, 0.0218907, 0.490898, 1.729814)" fill="none" stroke-linejoin="miter" d="M 356.580825 345.317363 L 358.205478 349.599998 C 359.108064 351.562872 360.010649 353.882633 359.108064 356.02395 C 358.205478 357.451495 357.122376 358.522154 355.317205 358.87904 C 353.692551 359.235926 352.067897 359.414369 350.443244 359.235926 " stroke="#333333" stroke-width="3" stroke-opacity="1" stroke-miterlimit="10"/><path fill="#333333" d="M 7.871094 9.136719 C 7.871094 9.195312 7.847656 9.226562 7.804688 9.226562 C 7.761719 9.226562 7.738281 9.195312 7.738281 9.136719 C 7.738281 9.078125 7.761719 9.050781 7.804688 9.050781 C 7.847656 9.050781 7.871094 9.078125 7.871094 9.136719 Z M 7.871094 9.136719 " fill-opacity="1" fill-rule="nonzero"/><path fill="#333333" d="M 8.519531 9.0625 C 8.519531 9.113281 8.5 9.136719 8.464844 9.136719 C 8.429688 9.136719 8.410156 9.113281 8.410156 9.0625 C 8.410156 9.007812 8.429688 8.984375 8.464844 8.984375 C 8.5 8.984375 8.519531 9.007812 8.519531 9.0625 Z M 8.519531 9.0625 " fill-opacity="1" fill-rule="nonzero"/><path fill="#ffffff" d="M 7.785156 9.773438 C 7.996094 9.839844 8.203125 9.832031 8.410156 9.75 C 8.402344 9.835938 8.367188 9.910156 8.300781 9.96875 C 8.296875 9.976562 8.148438 10.101562 7.976562 10.035156 C 7.859375 9.988281 7.796875 9.898438 7.785156 9.773438 Z M 7.785156 9.773438 " fill-opacity="1" fill-rule="nonzero"/><path stroke-linecap="butt" transform="matrix(0.0216392, 0, 0, 0.0218907, 0.490898, 1.729814)" fill-opacity="1" fill="#ffffff" fill-rule="nonzero" stroke-linejoin="miter" d="M 791.085441 703.809588 C 791.085441 707.913779 787.294582 712.017971 780.073899 715.765276 C 772.853216 719.691025 762.383225 723.081444 749.024961 726.114977 C 735.48618 729.14851 719.961711 731.289828 702.451554 732.895816 C 684.941397 734.501804 666.528655 735.394019 647.574361 735.394019 C 628.620067 735.394019 610.207325 734.501804 592.697168 732.895816 C 575.006494 731.289828 559.662542 729.14851 546.123761 726.114977 C 532.765497 723.081444 522.295506 719.691025 515.074823 715.765276 C 507.673622 712.017971 504.063281 707.913779 504.063281 703.809588 C 504.063281 699.526953 507.673622 695.422761 515.074823 691.675455 C 522.295506 687.749707 532.765497 684.359288 546.123761 681.325755 C 559.662542 678.470665 575.006494 676.150904 592.697168 674.544916 C 610.207325 672.938928 628.620067 672.046712 647.574361 672.046712 C 666.528655 672.046712 684.941397 672.938928 702.451554 674.544916 C 719.961711 676.150904 735.48618 678.470665 749.024961 681.325755 C 762.383225 684.359288 772.853216 687.749707 780.073899 691.675455 C 787.294582 695.422761 791.085441 699.526953 791.085441 703.809588 Z M 791.085441 703.809588 " stroke="#ffffff" stroke-width="4" stroke-opacity="1" stroke-miterlimit="10"/><path fill="#95b84f" d="M 14.414062 16.808594 L 15.488281 15.191406 C 15.519531 15.148438 15.558594 15.125 15.613281 15.125 C 15.667969 15.125 15.710938 15.152344 15.738281 15.199219 L 16.6875 16.761719 C 16.71875 16.8125 16.71875 16.863281 16.691406 16.917969 C 16.667969 16.96875 16.621094 16.996094 16.5625 17 L 14.542969 17.054688 C 14.421875 17.054688 14.347656 16.914062 14.414062 16.808594 Z M 14.414062 16.808594 " fill-opacity="1" fill-rule="nonzero"/><path fill="#fe5c5a" d="M 14.261719 16.839844 L 15.332031 15.222656 C 15.363281 15.175781 15.402344 15.152344 15.457031 15.152344 C 15.511719 15.15625 15.554688 15.179688 15.582031 15.226562 L 16.53125 16.789062 C 16.5625 16.839844 16.566406 16.894531 16.539062 16.945312 C 16.511719 17 16.46875 17.027344 16.40625 17.03125 L 14.386719 17.082031 C 14.265625 17.085938 14.191406 16.945312 14.261719 16.839844 Z M 14.261719 16.839844 " fill-opacity="1" fill-rule="nonzero"/><path stroke-linecap="butt" transform="matrix(0.0216392, 0, 0, 0.0218907, 0.490898, 1.729814)" fill-opacity="1" fill="#ffffff" fill-rule="nonzero" stroke-linejoin="miter" d="M 623.204555 691.497012 L 672.666235 617.621561 C 674.110372 615.480244 676.09606 614.588028 678.623299 614.588028 C 681.150538 614.588028 682.955709 615.658687 684.399846 617.978448 C 698.841212 641.711382 713.463096 665.444317 728.08498 689.355695 C 729.529116 691.675455 729.709633 693.995216 728.446014 696.314977 C 727.182394 698.81318 725.196706 700.062282 722.48895 700.240725 L 629.161619 702.738929 C 623.385072 702.917372 619.955247 696.314977 623.204555 691.497012 Z M 623.204555 691.497012 " stroke="#333333" stroke-width="4" stroke-opacity="1" stroke-miterlimit="10"/><path fill="#95b84f" d="M 13.523438 16.839844 C 13.878906 16.300781 14.238281 15.761719 14.59375 15.222656 C 14.625 15.175781 14.667969 15.152344 14.722656 15.152344 C 14.777344 15.15625 14.816406 15.179688 14.84375 15.226562 C 15.160156 15.746094 15.476562 16.269531 15.792969 16.789062 C 15.824219 16.839844 15.828125 16.894531 15.800781 16.945312 C 15.773438 17 15.730469 17.027344 15.671875 17.03125 L 13.648438 17.082031 C 13.527344 17.085938 13.453125 16.945312 13.523438 16.839844 Z M 13.523438 16.839844 " fill-opacity="1" fill-rule="nonzero"/><path fill="#fe5c5a" d="M 13.367188 16.882812 L 14.4375 15.265625 C 14.46875 15.21875 14.511719 15.195312 14.566406 15.199219 C 14.621094 15.199219 14.660156 15.222656 14.6875 15.269531 L 15.636719 16.835938 C 15.667969 16.886719 15.671875 16.9375 15.644531 16.988281 C 15.617188 17.042969 15.574219 17.070312 15.515625 17.074219 L 13.496094 17.128906 C 13.371094 17.128906 13.296875 16.988281 13.367188 16.882812 Z M 13.367188 16.882812 " fill-opacity="1" fill-rule="nonzero"/><path stroke-linecap="butt" transform="matrix(0.0216392, 0, 0, 0.0218907, 0.490898, 1.729814)" fill-opacity="1" fill="#ffffff" fill-rule="nonzero" stroke-linejoin="miter" d="M 584.573899 693.459887 L 634.03558 619.762879 C 635.479716 617.621561 637.465404 616.550903 639.992643 616.550903 C 642.519883 616.729346 644.325053 617.800005 645.588673 619.941322 C 660.210557 643.674257 674.83244 667.585635 689.454324 691.318569 C 690.898461 693.63833 691.078978 695.95809 689.815358 698.456294 C 688.551739 700.776055 686.566051 702.203599 683.858294 702.203599 L 590.530963 704.701803 C 584.754416 704.880246 581.324592 698.277851 584.573899 693.459887 Z M 584.573899 693.459887 " stroke="#333333" stroke-width="4" stroke-opacity="1" stroke-miterlimit="10"/><path fill="#95b84f" d="M 12.714844 16.882812 C 13.074219 16.34375 13.429688 15.804688 13.789062 15.265625 C 13.816406 15.21875 13.859375 15.195312 13.914062 15.199219 C 13.96875 15.199219 14.007812 15.222656 14.039062 15.269531 L 14.988281 16.835938 C 15.019531 16.886719 15.019531 16.9375 14.992188 16.988281 C 14.964844 17.042969 14.921875 17.070312 14.863281 17.074219 L 12.84375 17.128906 C 12.71875 17.128906 12.644531 16.988281 12.714844 16.882812 Z M 12.714844 16.882812 " fill-opacity="1" fill-rule="nonzero"/><path fill="#fe5c5a" d="M 12.585938 16.898438 L 13.660156 15.28125 C 13.691406 15.234375 13.730469 15.210938 13.785156 15.210938 C 13.839844 15.214844 13.882812 15.238281 13.910156 15.285156 L 14.859375 16.847656 C 14.890625 16.898438 14.894531 16.949219 14.867188 17.003906 C 14.839844 17.058594 14.796875 17.085938 14.738281 17.089844 L 12.714844 17.140625 C 12.59375 17.144531 12.519531 17.003906 12.585938 16.898438 Z M 12.585938 16.898438 " fill-opacity="1" fill-rule="nonzero"/><path stroke-linecap="butt" transform="matrix(0.0216392, 0, 0, 0.0218907, 0.490898, 1.729814)" fill-opacity="1" fill="#ffffff" fill-rule="nonzero" stroke-linejoin="miter" d="M 547.206863 694.173659 C 563.814435 669.548509 580.241489 644.923359 596.849061 620.298208 C 598.11268 618.156891 600.098368 617.264675 602.625607 617.264675 C 605.152847 617.264675 606.958017 618.513777 608.402154 620.655094 L 652.267805 692.032342 C 653.711942 694.352102 653.711942 696.671863 652.448322 699.170066 C 651.184703 701.489827 649.199015 702.738929 646.491258 702.917372 L 553.163927 705.415576 C 547.38738 705.594019 543.957556 698.991623 547.206863 694.173659 Z M 547.206863 694.173659 " stroke="#333333" stroke-width="4" stroke-opacity="1" stroke-miterlimit="10"/><path stroke-linecap="round" transform="matrix(0.0216392, 0, 0, 0.0218907, 0.490898, 1.729814)" fill="none" stroke-linejoin="miter" d="M 520.670852 719.869468 C 567.424776 733.609588 615.261803 739.498211 664.001415 737.356894 C 700.8269 733.431145 729.529116 730.040726 748.48341 728.077852 C 756.787196 727.364079 764.729947 725.222762 772.311665 721.475456 C 779.893382 717.371265 786.572514 712.017971 791.988027 705.415576 " stroke="#333333" stroke-width="4" stroke-opacity="1" stroke-miterlimit="10"/><path fill="#ed1e79" d="M 16.617188 18.746094 C 16.726562 19.410156 16.839844 20.078125 16.949219 20.742188 C 17.367188 20.890625 17.785156 20.890625 18.203125 20.742188 C 18.335938 20.042969 18.46875 19.347656 18.601562 18.652344 " fill-opacity="1" fill-rule="nonzero"/><path stroke-linecap="round" transform="matrix(0.0216392, 0, 0, 0.0218907, 0.490898, 1.729814)" fill-opacity="1" fill="#ffffff" fill-rule="nonzero" stroke-linejoin="miter" d="M 836.756263 775.186835 C 836.756263 778.398811 832.062819 781.253901 823.036965 783.573661 C 813.830594 785.893422 802.819052 786.964081 789.821822 786.964081 C 776.824592 786.964081 765.81305 785.893422 756.787196 783.573661 C 747.580824 781.253901 743.067897 778.398811 743.067897 775.186835 C 743.067897 771.974859 747.580824 769.119769 756.787196 766.800008 C 765.81305 764.480248 776.824592 763.409589 789.821822 763.409589 C 802.819052 763.409589 813.830594 764.480248 823.036965 766.800008 C 832.062819 769.119769 836.756263 771.974859 836.756263 775.186835 Z M 836.756263 775.186835 " stroke="#333333" stroke-width="4" stroke-opacity="1" stroke-miterlimit="10"/><path fill="#ed1e79" d="M 14.300781 17.914062 C 14.414062 18.578125 14.523438 19.246094 14.632812 19.910156 C 15.050781 20.058594 15.46875 20.058594 15.886719 19.910156 C 16.019531 19.210938 16.15625 18.515625 16.289062 17.820312 " fill-opacity="1" fill-rule="nonzero"/><path stroke-linecap="round" transform="matrix(0.0216392, 0, 0, 0.0218907, 0.490898, 1.729814)" fill-opacity="1" fill="#ffffff" fill-rule="nonzero" stroke-linejoin="miter" d="M 729.709633 737.178451 C 729.709633 740.390427 725.196706 743.245517 715.990335 745.565277 C 706.783964 747.885038 695.772422 748.955696 682.775192 748.955696 C 669.958479 748.955696 658.946937 747.885038 649.740566 745.565277 C 640.534195 743.245517 636.021268 740.390427 636.021268 737.178451 C 636.021268 733.966475 640.534195 731.111385 649.740566 728.791624 C 658.946937 726.471864 669.958479 725.401205 682.775192 725.401205 C 695.772422 725.401205 706.783964 726.471864 715.990335 728.791624 C 725.196706 731.111385 729.709633 733.966475 729.709633 737.178451 Z M 729.709633 737.178451 " stroke="#333333" stroke-width="4" stroke-opacity="1" stroke-miterlimit="10"/><path fill="#ed1e79" d="M 12.007812 18.789062 C 12.121094 19.457031 12.230469 20.121094 12.339844 20.785156 C 12.757812 20.902344 13.175781 20.902344 13.59375 20.785156 C 13.726562 20.089844 13.859375 19.390625 13.992188 18.695312 " fill-opacity="1" fill-rule="nonzero"/><path stroke-linecap="round" transform="matrix(0.0216392, 0, 0, 0.0218907, 0.490898, 1.729814)" fill-opacity="1" fill="#ffffff" fill-rule="nonzero" stroke-linejoin="miter" d="M 623.746106 777.149709 C 623.746106 780.361685 619.052662 783.216775 610.026808 785.536536 C 600.820437 787.856296 589.808895 788.926955 576.811665 788.926955 C 563.994952 788.926955 552.802893 787.856296 543.777039 785.536536 C 534.570667 783.216775 530.05774 780.361685 530.05774 777.149709 C 530.05774 773.937733 534.570667 771.082643 543.777039 768.762883 C 552.802893 766.443122 563.994952 765.372463 576.811665 765.372463 C 589.808895 765.372463 600.820437 766.443122 610.026808 768.762883 C 619.052662 771.082643 623.746106 773.937733 623.746106 777.149709 Z M 623.746106 777.149709 " stroke="#333333" stroke-width="4" stroke-opacity="1" stroke-miterlimit="10"/></svg>