<svg xmlns="http://www.w3.org/2000/svg" xmlns:xlink="http://www.w3.org/1999/xlink" width="40" zoomAndPan="magnify" viewBox="0 0 30 30.000001" height="40" preserveAspectRatio="xMidYMid meet" version="1.0"><defs><clipPath id="9d81699275"><path d="M 15 4.5625 L 18 4.5625 L 18 7 L 15 7 Z M 15 4.5625 " clip-rule="nonzero"/></clipPath><clipPath id="811686e79f"><path d="M 1 8 L 29.515625 8 L 29.515625 24 L 1 24 Z M 1 8 " clip-rule="nonzero"/></clipPath></defs><path fill="#ffe5cc" d="M 18.78125 8.804688 C 18.78125 8.804688 19.738281 10.085938 21.304688 10.125 C 22.867188 10.164062 23.875 10.699219 23.039062 11.339844 C 22.207031 11.980469 19.382812 12.121094 18.367188 10.636719 C 17.351562 9.152344 18.582031 8.167969 18.78125 8.804688 Z M 18.78125 8.804688 " fill-opacity="1" fill-rule="evenodd"/><path fill="#382839" d="M 16.378906 5.734375 C 15.640625 4.980469 13.59375 5.351562 13.554688 6.710938 C 13.535156 7.46875 14.230469 8.226562 14.230469 8.226562 L 16.347656 8.488281 C 16.347656 8.488281 16.863281 7.773438 16.847656 7.164062 C 16.835938 6.558594 16.695312 6.179688 16.378906 5.734375 Z M 16.378906 5.734375 " fill-opacity="1" fill-rule="evenodd"/><g clip-path="url(#9d81699275)"><path fill="#382839" d="M 15.683594 5.597656 C 15.683594 5.5625 15.445312 5.15625 15.929688 4.859375 C 16.410156 4.5625 17.28125 4.972656 17.164062 5.527344 C 17.042969 6.078125 16.457031 6.257812 16.457031 6.257812 Z M 15.683594 5.597656 " fill-opacity="1" fill-rule="evenodd"/></g><g clip-path="url(#811686e79f)"><path fill="#ffe5cc" d="M 9.660156 10.371094 C 7.277344 13.523438 7.597656 13.707031 4.039062 15.375 C 0.484375 17.042969 0.929688 20.972656 5.246094 22.566406 C 9.5625 24.160156 15.214844 20.871094 19.753906 22.015625 C 24.292969 23.160156 29.515625 22.675781 29.199219 19.96875 C 28.878906 17.265625 28.007812 12.695312 24.421875 12.363281 C 22.335938 12.167969 20.882812 12.503906 19.726562 12.25 C 17.992188 11.875 13.074219 5.847656 9.660156 10.371094 Z M 9.660156 10.371094 " fill-opacity="1" fill-rule="evenodd"/></g><path fill="#61a9a3" d="M 14.949219 9.6875 C 14.746094 9.71875 14.425781 9.757812 14.210938 9.8125 C 13.894531 9.898438 13.613281 10.074219 13.226562 10.707031 C 12.835938 11.339844 12.523438 12.132812 12.523438 12.132812 L 13.695312 12.578125 L 13.859375 12.277344 C 13.953125 12.886719 13.785156 12.515625 14.300781 13.386719 C 14.457031 13.660156 14.835938 14.238281 14.882812 14.523438 C 14.992188 15.15625 14.6875 15.769531 14.6875 15.769531 C 14.6875 15.769531 15.585938 16.046875 17.25 16.078125 C 18.917969 16.109375 19.734375 15.3125 19.734375 15.3125 C 19.734375 15.3125 18.71875 14.398438 18.648438 14.199219 C 18.578125 14 18.679688 11.484375 18.640625 10.949219 C 18.601562 10.417969 18.492188 10.273438 18.269531 10.058594 C 18.050781 9.839844 16.78125 9.480469 16.628906 9.480469 C 16.335938 9.480469 15.6875 9.746094 15.328125 9.71875 C 15.234375 9.847656 15.105469 10.019531 15.105469 10.019531 Z M 14.949219 9.6875 " fill-opacity="1" fill-rule="evenodd"/><path fill="#ff9f7d" d="M 16.296875 8.199219 C 16.296875 8.199219 16.296875 8.796875 16.484375 9.300781 C 16.601562 9.617188 16.695312 9.476562 16.5 9.800781 C 16.382812 9.996094 15.414062 11.167969 15.414062 11.167969 L 15.019531 9.9375 C 15.019531 9.9375 15.117188 9.839844 15.144531 9.546875 C 15.167969 9.25 15.042969 8.8125 15.042969 8.8125 C 15.042969 8.8125 15.910156 8.945312 16.296875 8.199219 Z M 16.296875 8.199219 " fill-opacity="1" fill-rule="evenodd"/><path fill="#ed8863" d="M 16.296875 8.203125 C 16.296875 8.203125 16.304688 8.660156 16.425781 9.109375 C 16.175781 9.476562 15.734375 9.96875 15.019531 9.816406 C 15.082031 9.742188 15.132812 9.652344 15.144531 9.546875 C 15.167969 9.25 15.042969 8.8125 15.042969 8.8125 C 15.042969 8.8125 15.910156 8.953125 16.296875 8.203125 Z M 16.296875 8.203125 " fill-opacity="1" fill-rule="evenodd"/><path fill="#448684" d="M 13.941406 12.78125 C 13.972656 12.859375 14.074219 13 14.300781 13.386719 C 14.457031 13.660156 14.835938 14.238281 14.882812 14.523438 C 14.960938 14.976562 14.828125 15.421875 14.746094 15.636719 C 15.199219 15.507812 16.144531 15.238281 16.476562 15.121094 C 16.917969 14.96875 17.46875 14.796875 17.648438 14.394531 C 17.832031 13.992188 18.164062 12.660156 18.164062 12.660156 L 18.023438 12.625 L 17.316406 12.625 C 17.316406 12.625 16.410156 12.625 16.179688 12.640625 C 15.953125 12.65625 15.09375 12.90625 14.730469 12.816406 C 14.363281 12.730469 14.132812 12.757812 13.941406 12.78125 Z M 13.941406 12.78125 " fill-opacity="1" fill-rule="evenodd"/><path fill="#ffeeef" d="M 3.414062 21.597656 L 2.976562 21.007812 L 4.464844 17.816406 L 27.164062 17.800781 L 27.339844 21.007812 Z M 3.414062 21.597656 " fill-opacity="1" fill-rule="evenodd"/><path fill="#efdbdb" d="M 27.195312 18.355469 L 27.257812 19.5 C 26.980469 19.527344 26.726562 19.542969 26.539062 19.539062 C 25.730469 19.523438 25.539062 19.429688 24.714844 19.632812 C 23.890625 19.832031 22.667969 19.785156 21.113281 19.878906 C 19.554688 19.972656 17.316406 19.800781 16.445312 19.753906 C 15.574219 19.710938 15.605469 19.476562 15.082031 19.414062 C 14.558594 19.355469 13.683594 19.230469 13.792969 19.710938 C 13.90625 20.1875 14.875 21.039062 11.8125 20.871094 C 8.746094 20.699219 7.8125 20.28125 7.207031 20.203125 C 6.605469 20.128906 6.351562 19.785156 5.558594 20.050781 C 4.765625 20.3125 4.375 20.207031 4.414062 20.003906 C 4.453125 19.800781 3.726562 20.136719 3.90625 19.84375 C 4.089844 19.546875 5.097656 18.984375 5.660156 18.96875 C 6.222656 18.953125 7.410156 19.214844 7.777344 18.890625 C 8.144531 18.566406 8.769531 18.023438 8.769531 18.023438 Z M 27.195312 18.355469 " fill-opacity="1" fill-rule="evenodd"/><path fill="#ffffff" d="M 9.230469 17.914062 C 9.230469 17.914062 9.390625 18.773438 9.445312 19.082031 C 9.5 19.390625 9.175781 19.847656 8.984375 19.761719 C 8.796875 19.675781 6.160156 19.644531 5.9375 19.585938 C 5.714844 19.523438 5.558594 19.074219 5.730469 18.710938 C 5.90625 18.347656 6.230469 17.625 6.410156 17.605469 C 6.589844 17.589844 8.871094 18.160156 9.230469 17.914062 Z M 9.230469 17.914062 " fill-opacity="1" fill-rule="evenodd"/><path fill="#e6e7e8" d="M 9.230469 17.914062 C 9.230469 17.914062 9.277344 18.164062 9.328125 18.441406 C 9.21875 18.476562 9.066406 18.507812 8.871094 18.515625 C 8.40625 18.535156 8.015625 18.375 7.695312 18.289062 C 7.371094 18.203125 7.191406 18.347656 6.742188 18.21875 C 6.453125 18.136719 6.316406 17.894531 6.257812 17.730469 C 6.3125 17.65625 6.367188 17.609375 6.410156 17.605469 C 6.589844 17.589844 8.871094 18.160156 9.230469 17.914062 Z M 9.230469 17.914062 " fill-opacity="1" fill-rule="evenodd"/><path fill="#873f38" d="M 7.339844 17.902344 C 7.339844 17.902344 6.847656 18.171875 6.410156 17.605469 C 5.761719 16.769531 5.851562 16.011719 6.425781 15.179688 C 6.863281 14.542969 7.6875 14.398438 8.441406 14.542969 C 9.195312 14.691406 9.550781 15.222656 10.058594 15.542969 C 10.566406 15.859375 11.472656 15.765625 11.472656 15.765625 C 11.472656 15.765625 10.703125 17.265625 10.773438 17.816406 C 10.84375 18.363281 12.632812 18.488281 12.632812 18.488281 C 12.632812 18.488281 10.757812 18.820312 10.035156 18.542969 C 9.3125 18.265625 9.210938 18.148438 9.179688 18.078125 C 9.148438 18.007812 7.664062 17.726562 7.339844 17.902344 Z M 7.339844 17.902344 " fill-opacity="1" fill-rule="evenodd"/><path fill="#ad574f" d="M 6.335938 16.5 C 6.335938 16.5 6.375 17.46875 6.898438 17.796875 L 6.878906 17.828125 C 6.339844 17.488281 6.296875 16.503906 6.296875 16.5 Z M 8.242188 15.769531 C 8.242188 15.769531 8.644531 15.445312 8.988281 15.410156 L 8.988281 15.445312 C 8.660156 15.480469 8.265625 15.796875 8.265625 15.796875 Z M 6.425781 15.976562 C 6.433594 15.976562 8.105469 15.605469 8.535156 15.101562 L 8.5625 15.121094 C 8.125 15.636719 6.441406 16.007812 6.433594 16.011719 Z M 6.570312 16.269531 C 6.574219 16.269531 8.105469 15.875 8.664062 15.199219 L 8.691406 15.222656 C 8.125 15.90625 6.582031 16.300781 6.578125 16.304688 Z M 6.570312 16.269531 " fill-opacity="1" fill-rule="evenodd"/><path fill="#ffaf9c" d="M 9.308594 15.84375 C 9.308594 15.84375 9.296875 15.835938 10.121094 15.957031 C 10.945312 16.082031 11.257812 15.863281 11.804688 15.628906 C 12.351562 15.398438 13.351562 15.3125 14.367188 15.546875 C 15.382812 15.777344 17.335938 15.863281 17.976562 15.722656 C 18.621094 15.582031 19.40625 15.050781 20.769531 15.019531 C 22.136719 14.988281 22.851562 15.910156 23.652344 16.179688 C 24.453125 16.449219 26.945312 16.59375 27.035156 16.65625 C 27.121094 16.71875 27.609375 16.796875 27.515625 17.679688 C 27.417969 18.5625 27.632812 18.816406 27.339844 19.035156 C 27.046875 19.25 24.875 18.996094 24.554688 18.964844 C 24.238281 18.933594 19.605469 18.980469 18.367188 18.871094 C 17.128906 18.761719 16.597656 19.042969 15.796875 19.027344 C 14.992188 19.011719 13.84375 19.0625 13.511719 18.964844 C 13.175781 18.863281 13.097656 18.777344 13.097656 18.777344 C 13.097656 18.777344 13.683594 19.761719 13.519531 20.292969 C 13.351562 20.828125 12.921875 20.734375 12.050781 20.671875 C 11.175781 20.609375 9.351562 20.285156 8.597656 20.023438 C 7.84375 19.761719 7.636719 19.960938 7.035156 19.851562 C 6.429688 19.746094 6.105469 19.742188 5.945312 19.679688 C 5.789062 19.617188 5.222656 19.917969 4.929688 19.996094 C 4.636719 20.074219 4.78125 19.875 5.058594 19.660156 C 5.335938 19.449219 5.535156 19.289062 5.503906 19.261719 C 5.476562 19.234375 5.261719 19.328125 5.015625 19.492188 C 4.769531 19.65625 4.402344 19.867188 4.234375 19.84375 C 3.921875 19.796875 4.382812 19.601562 4.496094 19.460938 C 4.496094 19.460938 4.246094 19.625 4.089844 19.546875 C 3.929688 19.472656 4.167969 19.332031 4.386719 19.21875 C 4.605469 19.105469 5.054688 18.875 5.320312 18.691406 C 5.585938 18.503906 5.765625 18.503906 6.191406 18.609375 C 6.617188 18.714844 7.390625 19.011719 7.601562 19.023438 C 7.8125 19.035156 8.902344 19.148438 10.039062 19.1875 C 11.171875 19.226562 11.488281 19.195312 11.488281 19.195312 C 11.488281 19.195312 11.015625 18.785156 10.753906 18.320312 C 10.492188 17.859375 10.5 17.476562 10.5 17.476562 L 9.777344 17.421875 C 9.777344 17.421875 9.683594 16.65625 9.507812 16.464844 C 9.335938 16.269531 9.175781 15.953125 9.175781 15.953125 Z M 9.308594 15.84375 " fill-opacity="1" fill-rule="evenodd"/><path fill="#eb9681" d="M 10.191406 15.96875 C 10.964844 16.070312 11.273438 15.855469 11.804688 15.628906 C 12.351562 15.398438 13.351562 15.3125 14.367188 15.546875 C 14.519531 15.582031 14.695312 15.613281 14.882812 15.640625 C 14.65625 15.6875 14.378906 15.730469 14.097656 15.730469 C 13.425781 15.730469 13.25 15.714844 12.601562 15.96875 C 11.949219 16.226562 11.789062 16.332031 11.464844 16.332031 C 11.140625 16.332031 11.148438 16.292969 10.964844 16.242188 C 10.78125 16.1875 10.765625 16.203125 10.511719 16.164062 C 10.375 16.140625 10.257812 16.054688 10.191406 15.96875 Z M 10.191406 15.96875 " fill-opacity="1" fill-rule="evenodd"/><path fill="#eb9681" d="M 15.546875 15.71875 C 15.945312 15.757812 16.359375 15.78125 16.738281 15.789062 L 16.496094 18.914062 C 16.265625 18.945312 15.929688 19.027344 15.796875 19.027344 C 15.664062 19.023438 15.539062 19.011719 15.398438 19.023438 C 15.441406 18.667969 15.578125 18.054688 15.679688 17.445312 C 15.777344 16.839844 15.636719 16.117188 15.546875 15.71875 Z M 15.546875 15.71875 " fill-opacity="1" fill-rule="evenodd"/><path fill="#eb9681" d="M 24.480469 16.34375 C 24.859375 16.402344 25.300781 16.464844 25.730469 16.507812 C 25.601562 16.722656 25.308594 16.925781 25.320312 17.664062 C 25.332031 18.402344 25.5625 18.839844 25.542969 19.058594 C 25.082031 19.019531 24.679688 18.976562 24.554688 18.964844 L 24.550781 17.648438 Z M 24.480469 16.34375 " fill-opacity="1" fill-rule="evenodd"/><path fill="#eb9681" d="M 10.339844 17.464844 L 9.777344 17.421875 C 9.777344 17.386719 9.769531 17.351562 9.761719 17.3125 C 9.730469 17.09375 9.644531 16.613281 9.507812 16.464844 C 9.402344 16.34375 9.300781 16.179688 9.242188 16.070312 C 9.433594 16.117188 9.832031 16.261719 10.113281 16.699219 C 10.410156 17.152344 10.375 17.382812 10.339844 17.464844 Z M 10.339844 17.464844 " fill-opacity="1" fill-rule="evenodd"/><path fill="#ff9f7d" d="M 13.65625 12.5625 C 13.570312 12.828125 13.347656 13.253906 13.210938 13.476562 C 13.074219 13.699219 12.203125 14.671875 11.953125 14.839844 C 11.699219 15.003906 11.476562 15.394531 11.394531 15.472656 C 11.316406 15.550781 10.921875 15.992188 10.773438 16.066406 C 10.621094 16.140625 10.601562 16.019531 10.601562 16.019531 C 10.601562 16.019531 10.507812 16.089844 10.417969 16.058594 C 10.332031 16.027344 10.34375 15.957031 10.34375 15.957031 C 10.34375 15.957031 10.234375 16.03125 10.175781 15.996094 C 10.117188 15.960938 10.105469 15.90625 10.105469 15.90625 C 10.105469 15.90625 9.96875 15.957031 9.960938 15.847656 C 9.953125 15.738281 10.34375 14.878906 10.429688 14.792969 C 10.519531 14.707031 10.839844 14.746094 10.957031 14.648438 C 11.070312 14.554688 12.242188 13.167969 12.324219 13.035156 C 12.40625 12.902344 12.660156 12.449219 12.730469 12.210938 Z M 13.65625 12.5625 " fill-opacity="1" fill-rule="evenodd"/><path fill="#ed8863" d="M 13.65625 12.5625 C 13.632812 12.640625 13.597656 12.726562 13.554688 12.820312 L 12.648438 12.417969 C 12.683594 12.339844 12.710938 12.269531 12.730469 12.210938 Z M 13.65625 12.5625 " fill-opacity="1" fill-rule="evenodd"/><path fill="#ed8863" d="M 12.007812 14.796875 C 11.988281 14.8125 11.96875 14.828125 11.953125 14.839844 C 11.699219 15.003906 11.476562 15.394531 11.394531 15.472656 C 11.320312 15.546875 10.945312 15.964844 10.785156 16.058594 C 10.769531 16.058594 10.75 16.0625 10.726562 16.0625 C 10.636719 16.074219 10.652344 15.925781 10.652344 15.925781 C 10.769531 15.660156 11.433594 14.933594 11.652344 14.839844 C 11.703125 14.816406 11.84375 14.804688 12.007812 14.796875 Z M 12.007812 14.796875 " fill-opacity="1" fill-rule="evenodd"/><path fill="#efdbdb" d="M 2.976562 21.007812 L 27.339844 21.007812 L 27.339844 22.152344 L 2.976562 22.152344 Z M 2.976562 21.007812 " fill-opacity="1" fill-rule="evenodd"/><path fill="#ffffff" d="M 15.800781 15.511719 C 15.800781 15.511719 17.46875 15.648438 17.992188 15.511719 C 18.800781 15.292969 20.5 14.53125 21.5625 15.015625 C 21.617188 15.039062 23.789062 15.820312 23.910156 15.851562 C 24.5 15.988281 24.628906 16.117188 25 16.300781 C 25.367188 16.480469 24.960938 16.238281 24.878906 17.320312 C 24.800781 18.402344 25.207031 18.996094 24.941406 19.226562 C 24.671875 19.453125 23.132812 19.316406 22.53125 19.316406 C 21.925781 19.316406 20.546875 19.332031 19.691406 19.300781 C 18.832031 19.269531 17.722656 19.238281 16.992188 19.300781 C 16.261719 19.363281 16.101562 19.453125 15.785156 19.378906 C 15.46875 19.300781 15.929688 18.558594 15.929688 17.367188 C 15.929688 16.175781 15.453125 15.726562 15.546875 15.570312 C 15.640625 15.417969 15.800781 15.511719 15.800781 15.511719 Z M 15.800781 15.511719 " fill-opacity="1" fill-rule="evenodd"/><path fill="#e6e7e8" d="M 21.464844 15.027344 C 21.9375 15.242188 22.417969 15.453125 22.710938 15.660156 C 23 15.867188 23.253906 15.613281 23.351562 15.671875 C 23.148438 15.8125 22.917969 16.003906 22.761719 16.507812 C 22.523438 17.273438 21.386719 17.328125 21.308594 17.257812 C 21.226562 17.191406 21.625 17.035156 21.964844 16.570312 C 22.308594 16.105469 22.082031 15.960938 21.867188 15.632812 C 21.652344 15.300781 21.558594 15.203125 21.464844 15.027344 Z M 16.875 15.75 C 16.945312 15.75 17.53125 15.871094 17.742188 15.75 C 17.953125 15.628906 18.371094 16.863281 18.398438 17.367188 C 18.425781 17.867188 17.570312 16.261719 17.25 16.078125 C 16.933594 15.894531 16.738281 15.789062 16.875 15.75 Z M 19.457031 17.460938 C 19.457031 17.460938 19.785156 18.230469 20.496094 18.5625 C 21.207031 18.890625 21.40625 19.109375 21.078125 19.152344 C 20.753906 19.195312 19.984375 19.003906 19.644531 18.46875 C 19.300781 17.929688 19.320312 17.339844 19.457031 17.460938 Z M 19.457031 17.460938 " fill-opacity="1" fill-rule="evenodd"/><path fill="#ff9f7d" d="M 18.03125 12.59375 C 18.03125 12.59375 17.570312 14.085938 17.347656 14.371094 C 17.125 14.65625 15.703125 15.191406 14.972656 15.257812 C 14.242188 15.328125 13.53125 15.390625 13.457031 15.445312 C 13.386719 15.5 12.894531 15.695312 12.699219 15.71875 C 12.503906 15.742188 12.421875 15.765625 12.394531 15.777344 C 12.367188 15.789062 11.667969 16.167969 11.472656 16.234375 C 11.28125 16.300781 11.214844 16.191406 11.214844 16.191406 C 11.214844 16.191406 11.121094 16.21875 11.054688 16.160156 C 10.984375 16.101562 10.996094 16.089844 10.996094 16.089844 C 10.996094 16.089844 10.972656 16.078125 10.882812 16.089844 C 10.792969 16.101562 10.808594 15.953125 10.808594 15.953125 C 10.925781 15.6875 11.589844 14.957031 11.808594 14.867188 C 11.933594 14.8125 12.59375 14.816406 12.859375 14.800781 C 13.125 14.785156 13.308594 14.804688 13.394531 14.777344 C 13.480469 14.75 16.46875 13.699219 16.53125 13.652344 C 16.597656 13.605469 16.855469 12.328125 16.855469 12.328125 Z M 18.03125 12.59375 " fill-opacity="1" fill-rule="evenodd"/><path fill="#ed8863" d="M 18.03125 12.59375 C 18.03125 12.59375 17.996094 12.707031 17.941406 12.878906 L 16.804688 12.570312 C 16.832031 12.425781 16.855469 12.328125 16.855469 12.328125 Z M 18.03125 12.59375 " fill-opacity="1" fill-rule="evenodd"/><path fill="#7dc9c3" d="M 17.960938 9.996094 C 17.957031 9.996094 17.46875 10.011719 17.3125 10.476562 C 17.167969 10.914062 16.796875 12.070312 16.730469 12.277344 L 18.179688 12.601562 L 18.164062 12.660156 L 16.652344 12.324219 L 16.660156 12.292969 C 16.664062 12.289062 17.089844 10.957031 17.253906 10.460938 C 17.421875 9.949219 17.957031 9.933594 17.957031 9.933594 Z M 17.960938 9.996094 " fill-opacity="1" fill-rule="nonzero"/><path fill="#ed8a4c" d="M 16.902344 9.484375 L 15.550781 11.21875 L 15.445312 10.984375 L 16.609375 9.421875 Z M 16.902344 9.484375 " fill-opacity="1" fill-rule="evenodd"/><path fill="#c76e37" d="M 15.597656 11.160156 L 15.550781 11.21875 L 15.445312 10.984375 L 15.519531 10.886719 Z M 15.597656 11.160156 " fill-opacity="1" fill-rule="evenodd"/><path fill="#ed8a4c" d="M 15.011719 9.640625 L 15.609375 11.363281 C 15.609375 11.363281 15.410156 11.492188 15.40625 11.464844 C 15.402344 11.441406 14.773438 9.683594 14.773438 9.683594 Z M 15.011719 9.640625 " fill-opacity="1" fill-rule="evenodd"/><path fill="#e6e7e8" d="M 5.945312 18.4375 L 5.953125 18.4375 C 6 18.4375 6.195312 18.433594 6.558594 18.605469 C 6.742188 18.691406 7.074219 18.777344 7.429688 18.835938 C 7.785156 18.898438 8.167969 18.9375 8.453125 18.929688 C 8.542969 18.929688 8.625 18.925781 8.699219 18.925781 C 9.128906 18.914062 9.320312 18.90625 9.375 19.082031 L 9.289062 19.105469 C 9.257812 18.996094 9.085938 19 8.703125 19.011719 C 8.628906 19.011719 8.546875 19.015625 8.457031 19.019531 C 8.164062 19.023438 7.773438 18.984375 7.414062 18.921875 C 7.050781 18.859375 6.710938 18.773438 6.519531 18.683594 C 6.175781 18.519531 5.996094 18.523438 5.953125 18.523438 L 5.945312 18.523438 Z M 5.945312 18.4375 " fill-opacity="1" fill-rule="nonzero"/><path fill="#ffaf9c" d="M 6.550781 16.644531 C 6.550781 16.644531 6.597656 17.328125 7.097656 17.675781 C 7.597656 18.023438 8.4375 18.222656 8.996094 18.191406 C 9.550781 18.160156 9.8125 17.761719 9.859375 17.269531 C 9.90625 16.777344 9.277344 16.046875 9.277344 16.046875 C 9.277344 16.046875 9.378906 15.992188 9.242188 15.578125 C 9.101562 15.164062 8.824219 15.210938 8.75 15.308594 C 8.671875 15.410156 8.761719 15.625 8.855469 15.765625 C 8.949219 15.90625 9.164062 16.0625 9.15625 16.09375 C 9.148438 16.125 8.871094 16.089844 8.71875 15.9375 C 8.5625 15.78125 8.171875 15.929688 8.105469 15.9375 C 8.039062 15.945312 7.539062 16.382812 6.550781 16.644531 Z M 6.550781 16.644531 " fill-opacity="1" fill-rule="evenodd"/><path fill="#382839" d="M 8.121094 16.417969 C 8.121094 16.417969 8.242188 16.519531 8.160156 16.71875 C 8.082031 16.917969 7.921875 16.960938 7.921875 16.960938 C 7.921875 16.960938 8.117188 16.75 8.121094 16.417969 Z M 8.121094 16.417969 " fill-opacity="1" fill-rule="evenodd"/><path fill="#382839" d="M 7.753906 17.398438 C 7.753906 17.398438 7.820312 17.628906 7.734375 17.726562 C 7.644531 17.828125 7.585938 17.816406 7.585938 17.816406 C 7.585938 17.816406 7.734375 17.726562 7.753906 17.398438 Z M 7.753906 17.398438 " fill-opacity="1" fill-rule="evenodd"/><path fill="#873f38" d="M 7.523438 17.359375 C 7.5 17.359375 7.417969 17.460938 7.375 17.582031 C 7.328125 17.707031 7.359375 17.824219 7.359375 17.824219 C 7.359375 17.824219 7.277344 17.742188 7.296875 17.554688 C 7.3125 17.367188 7.511719 17.214844 7.523438 17.359375 Z M 7.523438 17.359375 " fill-opacity="1" fill-rule="evenodd"/><path fill="#873f38" d="M 7.65625 16.914062 C 7.65625 16.886719 7.613281 16.714844 7.683594 16.554688 C 7.753906 16.390625 7.902344 16.351562 7.902344 16.351562 C 7.902344 16.351562 7.800781 16.300781 7.683594 16.398438 C 7.566406 16.5 7.539062 16.601562 7.539062 16.757812 C 7.539062 16.914062 7.636719 16.96875 7.65625 16.914062 Z M 7.65625 16.914062 " fill-opacity="1" fill-rule="evenodd"/><path fill="#873f38" d="M 8.933594 17.453125 C 8.933594 17.457031 9.085938 17.835938 8.769531 18.023438 L 8.734375 17.976562 C 9.011719 17.816406 8.875 17.472656 8.875 17.472656 Z M 8.933594 17.453125 " fill-opacity="1" fill-rule="nonzero"/><path fill="#db8069" d="M 7.84375 17.441406 C 7.867188 17.441406 8.011719 17.503906 8.117188 17.585938 C 8.183594 17.632812 8.234375 17.691406 8.242188 17.75 C 8.253906 17.796875 8.265625 17.816406 8.28125 17.820312 C 8.300781 17.820312 8.332031 17.804688 8.367188 17.777344 C 8.40625 17.75 8.449219 17.703125 8.476562 17.644531 C 8.492188 17.597656 8.5 17.546875 8.484375 17.492188 L 8.542969 17.476562 C 8.566406 17.542969 8.554688 17.609375 8.535156 17.664062 C 8.503906 17.734375 8.453125 17.792969 8.402344 17.828125 C 8.359375 17.863281 8.3125 17.886719 8.273438 17.882812 C 8.226562 17.875 8.195312 17.84375 8.179688 17.757812 C 8.175781 17.71875 8.132812 17.671875 8.078125 17.632812 C 7.980469 17.558594 7.859375 17.503906 7.84375 17.503906 Z M 7.84375 17.441406 " fill-opacity="1" fill-rule="nonzero"/><path fill="#eb9681" d="M 9.019531 15.445312 C 9.019531 15.445312 8.933594 15.277344 8.859375 15.382812 C 8.78125 15.484375 8.96875 15.753906 9.050781 15.8125 C 9.136719 15.875 9.039062 15.675781 9.085938 15.679688 C 9.136719 15.679688 9.160156 15.875 9.203125 15.84375 C 9.246094 15.8125 9.179688 15.535156 9.117188 15.535156 C 9.054688 15.539062 9.03125 15.679688 9.003906 15.597656 C 8.976562 15.515625 8.914062 15.433594 8.957031 15.472656 C 9.003906 15.515625 9.058594 15.507812 9.019531 15.445312 Z M 9.019531 15.445312 " fill-opacity="1" fill-rule="evenodd"/><path fill="#e6e7e8" d="M 15.996094 15.738281 C 15.996094 15.738281 16.484375 16.515625 16.507812 17.574219 C 16.515625 18.015625 16.492188 18.289062 16.472656 18.480469 C 16.449219 18.734375 16.441406 18.820312 16.558594 18.929688 L 16.515625 18.976562 C 16.375 18.84375 16.382812 18.75 16.410156 18.472656 C 16.425781 18.285156 16.453125 18.011719 16.441406 17.578125 C 16.417969 16.535156 15.941406 15.773438 15.941406 15.769531 Z M 15.996094 15.738281 " fill-opacity="1" fill-rule="nonzero"/><path fill="#e6e7e8" d="M 23.429688 15.894531 C 23.429688 15.898438 24.082031 16.753906 23.558594 17.714844 L 23.5 17.6875 C 24.007812 16.757812 23.378906 15.933594 23.378906 15.933594 Z M 23.429688 15.894531 " fill-opacity="1" fill-rule="nonzero"/><path fill="#e6e7e8" d="M 18.585938 15.683594 C 18.585938 15.6875 19.523438 16.636719 20.019531 17.492188 C 20.261719 17.910156 20.597656 18.234375 21.011719 18.453125 C 21.429688 18.675781 21.921875 18.792969 22.464844 18.796875 L 22.464844 18.859375 C 21.910156 18.855469 21.40625 18.734375 20.980469 18.507812 C 20.558594 18.28125 20.210938 17.949219 19.960938 17.523438 C 19.472656 16.675781 18.542969 15.730469 18.539062 15.726562 Z M 18.585938 15.683594 " fill-opacity="1" fill-rule="nonzero"/><path fill="#e6e7e8" d="M 18.941406 16.765625 C 18.941406 16.769531 18.871094 18.425781 19.917969 18.941406 L 19.890625 18.996094 C 18.808594 18.460938 18.878906 16.769531 18.878906 16.761719 Z M 18.941406 16.765625 " fill-opacity="1" fill-rule="nonzero"/><path fill="#e6e7e8" d="M 24.726562 16.398438 C 24.691406 16.433594 24.464844 17.03125 24.300781 17.644531 C 24.203125 18.011719 24.128906 18.382812 24.132812 18.644531 C 24.140625 19.394531 23.351562 19.199219 23.347656 19.199219 L 23.363281 19.140625 C 23.363281 19.140625 24.078125 19.316406 24.070312 18.644531 C 24.066406 18.375 24.140625 18 24.238281 17.628906 C 24.40625 17.003906 24.644531 16.394531 24.683594 16.355469 Z M 24.726562 16.398438 " fill-opacity="1" fill-rule="nonzero"/><path fill="#e6e7e8" d="M 16.589844 16.0625 C 16.589844 16.066406 17.355469 17.203125 17.507812 18.261719 L 17.445312 18.269531 C 17.292969 17.222656 16.539062 16.097656 16.535156 16.09375 Z M 16.589844 16.0625 " fill-opacity="1" fill-rule="nonzero"/><path fill="#eb9681" d="M 12.578125 18.003906 L 13.125 18.761719 L 13.074219 18.796875 L 12.527344 18.039062 Z M 12.578125 18.003906 " fill-opacity="1" fill-rule="nonzero"/><path fill="#eb9681" d="M 10.46875 17.445312 C 10.46875 17.445312 10.464844 16.863281 11.144531 16.617188 L 11.167969 16.675781 C 10.527344 16.90625 10.53125 17.445312 10.53125 17.445312 Z M 10.46875 17.445312 " fill-opacity="1" fill-rule="nonzero"/><path fill="#e07853" d="M 11.257812 16.125 C 11.261719 16.121094 12.085938 15.511719 12.167969 15.496094 L 12.175781 15.53125 C 12.101562 15.546875 11.285156 16.152344 11.28125 16.152344 Z M 10.925781 15.898438 L 11.585938 15.222656 L 11.613281 15.25 L 10.953125 15.925781 Z M 11.039062 16.023438 C 11.0625 15.996094 11.824219 15.347656 11.824219 15.34375 L 11.851562 15.371094 C 11.847656 15.375 11.085938 16.027344 11.066406 16.046875 Z M 11.039062 16.023438 " fill-opacity="1" fill-rule="nonzero"/><path fill="#e07853" d="M 10.574219 15.015625 L 10.160156 15.816406 L 10.125 15.796875 L 10.539062 14.996094 Z M 10.660156 15.898438 L 11.175781 15.128906 L 11.207031 15.148438 L 10.691406 15.917969 Z M 10.371094 15.863281 L 10.894531 15.003906 L 10.925781 15.023438 L 10.402344 15.882812 Z M 10.371094 15.863281 " fill-opacity="1" fill-rule="nonzero"/><path fill="#eb9681" d="M 11.550781 19.199219 L 12.039062 19.605469 L 12.015625 19.632812 L 11.527344 19.226562 Z M 11.550781 19.199219 " fill-opacity="1" fill-rule="nonzero"/><path fill="#eb9681" d="M 4.542969 19.414062 L 5.253906 18.96875 L 5.289062 19.019531 L 4.578125 19.464844 Z M 4.542969 19.414062 " fill-opacity="1" fill-rule="nonzero"/><path fill="#7dc9c3" d="M 14.039062 10.351562 C 14.039062 10.355469 13.957031 11.742188 13.964844 12.152344 L 13.898438 12.152344 C 13.894531 11.742188 13.976562 10.351562 13.976562 10.347656 Z M 14.039062 10.351562 " fill-opacity="1" fill-rule="nonzero"/><path fill="#e07853" d="M 12.414062 13.0625 L 12.796875 13.191406 L 12.773438 13.25 L 12.394531 13.121094 Z M 12.414062 13.0625 " fill-opacity="1" fill-rule="nonzero"/><path fill="#e07853" d="M 16.613281 13.664062 C 16.613281 13.664062 16.742188 13.683594 16.929688 13.828125 L 16.890625 13.875 C 16.71875 13.742188 16.605469 13.726562 16.605469 13.726562 Z M 16.613281 13.664062 " fill-opacity="1" fill-rule="nonzero"/><path fill="#ff9f7d" d="M 13.898438 7.292969 C 13.898438 7.292969 13.972656 8.082031 14.363281 8.589844 C 14.75 9.09375 15.1875 9.257812 15.582031 9.175781 C 15.976562 9.09375 16.34375 8.539062 16.359375 8.292969 C 16.371094 8.042969 16.378906 7.941406 16.378906 7.941406 C 16.378906 7.941406 16.609375 7.796875 16.59375 7.488281 C 16.582031 7.175781 16.582031 7.097656 16.472656 7.023438 C 16.363281 6.949219 16.226562 6.988281 16.214844 7.183594 C 16.207031 7.378906 16.207031 7.492188 16.226562 7.621094 C 16.246094 7.75 16.277344 7.859375 16.253906 7.855469 C 16.230469 7.851562 16.125 7.589844 16.0625 7.386719 C 16 7.183594 15.820312 6.859375 15.820312 6.859375 C 15.820312 6.859375 15.367188 6.917969 14.941406 6.871094 C 14.519531 6.824219 14.199219 6.691406 14.199219 6.691406 C 14.199219 6.691406 14.078125 7.105469 13.898438 7.292969 Z M 13.898438 7.292969 " fill-opacity="1" fill-rule="evenodd"/><path fill="#382839" d="M 15.160156 7.371094 C 15.210938 7.355469 15.273438 7.394531 15.296875 7.460938 C 15.320312 7.53125 15.296875 7.597656 15.246094 7.617188 C 15.191406 7.632812 15.128906 7.59375 15.105469 7.523438 C 15.082031 7.457031 15.105469 7.386719 15.160156 7.371094 Z M 15.160156 7.371094 " fill-opacity="1" fill-rule="evenodd"/><path fill="#382839" d="M 14.28125 7.640625 C 14.332031 7.625 14.394531 7.664062 14.417969 7.730469 C 14.441406 7.800781 14.417969 7.867188 14.363281 7.886719 C 14.3125 7.902344 14.25 7.863281 14.226562 7.792969 C 14.203125 7.726562 14.226562 7.660156 14.28125 7.640625 Z M 14.28125 7.640625 " fill-opacity="1" fill-rule="evenodd"/><path fill="#382839" d="M 14.851562 7.285156 C 14.851562 7.25 14.867188 7.207031 14.894531 7.167969 C 14.917969 7.128906 14.957031 7.089844 15.003906 7.0625 C 15.054688 7.039062 15.113281 7.023438 15.179688 7.027344 C 15.25 7.03125 15.332031 7.058594 15.421875 7.113281 L 15.375 7.191406 C 15.296875 7.144531 15.230469 7.121094 15.175781 7.117188 C 15.125 7.117188 15.082031 7.125 15.050781 7.144531 C 15.015625 7.160156 14.992188 7.1875 14.972656 7.214844 C 14.957031 7.242188 14.945312 7.269531 14.945312 7.292969 Z M 14.851562 7.285156 " fill-opacity="1" fill-rule="nonzero"/><path fill="#382839" d="M 14.402344 7.410156 C 14.402344 7.410156 14.199219 7.304688 14.066406 7.535156 L 13.984375 7.492188 C 14.164062 7.179688 14.445312 7.328125 14.445312 7.328125 Z M 14.402344 7.410156 " fill-opacity="1" fill-rule="nonzero"/><path fill="#ad574f" d="M 14.65625 7.664062 C 14.65625 7.664062 14.792969 7.761719 14.730469 8.042969 C 14.703125 8.167969 14.667969 8.238281 14.644531 8.285156 C 14.625 8.324219 14.617188 8.34375 14.636719 8.363281 C 14.683594 8.417969 14.90625 8.347656 14.90625 8.347656 L 14.925781 8.410156 C 14.925781 8.410156 14.660156 8.492188 14.585938 8.40625 C 14.539062 8.351562 14.554688 8.324219 14.585938 8.257812 C 14.609375 8.214844 14.640625 8.148438 14.667969 8.03125 C 14.71875 7.789062 14.617188 7.714844 14.617188 7.714844 Z M 14.65625 7.664062 " fill-opacity="1" fill-rule="nonzero"/><path fill="#ad574f" d="M 14.777344 8.613281 C 14.78125 8.613281 14.785156 8.613281 14.792969 8.617188 C 14.847656 8.625 15.136719 8.660156 15.257812 8.414062 L 15.316406 8.441406 C 15.175781 8.730469 14.847656 8.6875 14.78125 8.679688 L 14.777344 8.679688 Z M 14.777344 8.613281 " fill-opacity="1" fill-rule="nonzero"/><path fill="#7dc9c3" d="M 18.605469 14.363281 C 18.601562 14.363281 18.210938 14.855469 17.816406 15.128906 L 17.78125 15.078125 C 18.167969 14.8125 18.554688 14.324219 18.554688 14.324219 Z M 18.605469 14.363281 " fill-opacity="1" fill-rule="nonzero"/><path fill="#7dc9c3" d="M 18.527344 11.574219 L 18.195312 12.671875 L 18.132812 12.652344 L 18.46875 11.554688 Z M 18.527344 11.574219 " fill-opacity="1" fill-rule="nonzero"/><path fill="#7dc9c3" d="M 18.234375 10.902344 C 18.230469 10.90625 17.554688 11.871094 17.042969 12.097656 L 17.015625 12.039062 C 17.511719 11.820312 18.179688 10.871094 18.179688 10.867188 Z M 18.234375 10.902344 " fill-opacity="1" fill-rule="nonzero"/><path fill="#534054" d="M 15.847656 5.445312 C 15.847656 5.445312 16.375 5.492188 16.558594 6.015625 L 16.5 6.035156 C 16.328125 5.546875 15.839844 5.507812 15.839844 5.507812 Z M 15.847656 5.445312 " fill-opacity="1" fill-rule="nonzero"/></svg>