<svg xmlns="http://www.w3.org/2000/svg" xmlns:xlink="http://www.w3.org/1999/xlink" width="40" zoomAndPan="magnify" viewBox="0 0 30 30.000001" height="40" preserveAspectRatio="xMidYMid meet" version="1.0"><defs><clipPath id="40ead35845"><path d="M 3 4 L 29 4 L 29 26.691406 L 3 26.691406 Z M 3 4 " clip-rule="nonzero"/></clipPath></defs><g clip-path="url(#40ead35845)"><path fill="#e4f0ff" d="M 6.363281 23.660156 C 6.652344 22.742188 0.484375 17.734375 6.628906 17.363281 C 9.234375 17.203125 9.042969 12.863281 8.292969 11.023438 C 6.175781 5.816406 12.511719 5.996094 15.390625 6.089844 C 19.289062 6.222656 20.886719 2.015625 23.65625 9.035156 C 25.035156 12.539062 20.492188 10.800781 26.144531 13.941406 C 29.507812 15.8125 27.535156 24.269531 27.511719 24.277344 C 23.488281 25.953125 21.21875 26.050781 16.804688 26.265625 C 13.75 26.410156 7.722656 26.6875 6.363281 23.660156 Z M 6.363281 23.660156 " fill-opacity="1" fill-rule="evenodd"/></g><path fill="#7bb9b8" d="M 10.320312 22.425781 L 11.578125 22.425781 L 11.578125 15.203125 L 12.015625 15.203125 L 12.015625 22.425781 L 13.253906 22.425781 C 13.386719 22.425781 13.492188 22.535156 13.492188 22.667969 L 13.492188 22.898438 C 13.492188 23.03125 13.386719 23.140625 13.253906 23.140625 L 10.320312 23.140625 C 10.191406 23.140625 10.082031 23.03125 10.082031 22.898438 L 10.082031 22.667969 C 10.082031 22.535156 10.191406 22.425781 10.320312 22.425781 Z M 10.320312 22.425781 " fill-opacity="1" fill-rule="evenodd"/><path fill="#7bb9b8" d="M 10.410156 8.433594 C 10.800781 8.460938 11 8.472656 11 8.472656 C 11.234375 8.535156 11.351562 8.441406 11.34375 8.1875 C 11.34375 8.1875 11.339844 8 11.328125 7.632812 C 11.910156 7.628906 12.199219 7.625 12.199219 7.625 C 12.199219 7.972656 12.199219 8.144531 12.199219 8.144531 C 12.195312 8.355469 12.292969 8.464844 12.492188 8.484375 C 12.902344 8.460938 13.109375 8.449219 13.109375 8.449219 C 13.152344 9.179688 13.175781 9.542969 13.175781 9.542969 C 11.355469 9.539062 10.445312 9.539062 10.445312 9.539062 C 10.417969 8.800781 10.410156 8.433594 10.410156 8.433594 Z M 10.410156 8.433594 " fill-opacity="1" fill-rule="evenodd"/><path fill="#b4dadd" d="M 10.242188 10.25 C 10.261719 9.835938 10.148438 9.441406 9.902344 9.054688 L 10.410156 8.433594 C 10.828125 9.042969 11.328125 9.394531 11.898438 9.488281 C 12.34375 9.414062 12.746094 9.066406 13.109375 8.449219 C 13.390625 8.597656 13.578125 8.78125 13.667969 9.007812 C 13.488281 9.445312 13.386719 9.773438 13.363281 9.984375 C 13.378906 10.671875 13.261719 11.144531 13.015625 11.402344 C 12.90625 11.996094 12.953125 12.484375 13.160156 12.871094 C 13.488281 13.671875 13.601562 14.421875 13.5 15.132812 C 12.285156 15.546875 11.136719 15.570312 10.042969 15.199219 C 10 14.25 10.113281 13.480469 10.394531 12.898438 C 10.609375 12.355469 10.628906 11.886719 10.449219 11.496094 C 10.25 11.050781 10.183594 10.632812 10.242188 10.25 Z M 10.242188 10.25 " fill-opacity="1" fill-rule="evenodd"/><path fill="#808871" d="M 7.90625 18.753906 C 7.949219 19.332031 8.234375 19.6875 8.761719 19.804688 C 8.691406 18.703125 8.226562 17.988281 7.371094 17.660156 C 7.734375 18.113281 7.914062 18.480469 7.90625 18.753906 Z M 7.90625 18.753906 " fill-opacity="1" fill-rule="evenodd"/><path fill="#808871" d="M 8.59375 17.859375 C 8.632812 18.367188 8.882812 18.675781 9.34375 18.777344 C 9.28125 17.816406 8.875 17.191406 8.128906 16.90625 C 8.445312 17.304688 8.601562 17.621094 8.59375 17.859375 Z M 8.59375 17.859375 " fill-opacity="1" fill-rule="evenodd"/><path fill="#808871" d="M 9.457031 17.0625 C 9.484375 17.496094 9.699219 17.761719 10.097656 17.851562 C 10.042969 17.023438 9.699219 16.484375 9.050781 16.238281 C 9.324219 16.582031 9.460938 16.855469 9.457031 17.0625 Z M 9.457031 17.0625 " fill-opacity="1" fill-rule="evenodd"/><path fill="#808871" d="M 10.300781 19.214844 C 9.863281 19.484375 9.464844 19.464844 9.109375 19.15625 C 9.929688 18.640625 10.679688 18.597656 11.355469 19.023438 C 10.84375 19.007812 10.492188 19.070312 10.300781 19.214844 Z M 10.300781 19.214844 " fill-opacity="1" fill-rule="evenodd"/><path fill="#808871" d="M 11.035156 18.183594 C 10.597656 18.457031 10.199219 18.4375 9.84375 18.128906 C 10.664062 17.613281 11.414062 17.570312 12.089844 17.996094 C 11.578125 17.980469 11.226562 18.042969 11.035156 18.183594 Z M 11.035156 18.183594 " fill-opacity="1" fill-rule="evenodd"/><path fill="#808871" d="M 12.027344 17.042969 C 11.628906 17.359375 11.230469 17.382812 10.839844 17.121094 C 11.597656 16.511719 12.335938 16.386719 13.054688 16.734375 C 12.546875 16.773438 12.203125 16.875 12.027344 17.042969 Z M 12.027344 17.042969 " fill-opacity="1" fill-rule="evenodd"/><path fill="#808871" d="M 10.921875 17.058594 C 10.097656 17.667969 9.476562 18.339844 9.0625 19.070312 C 8.648438 19.800781 8.433594 20.59375 8.425781 21.441406 L 8.507812 21.441406 C 8.519531 20.609375 8.726562 19.832031 9.136719 19.113281 C 9.546875 18.390625 10.160156 17.730469 10.972656 17.125 Z M 10.921875 17.058594 " fill-opacity="1" fill-rule="nonzero"/><path fill="#662370" d="M 6.574219 21.308594 L 9.675781 21.308594 L 9.675781 23.429688 C 9.675781 23.808594 9.363281 24.117188 8.980469 24.117188 L 7.265625 24.117188 C 6.882812 24.117188 6.574219 23.808594 6.574219 23.429688 Z M 6.574219 21.308594 " fill-opacity="1" fill-rule="evenodd"/><path fill="#808871" d="M 8.542969 21.351562 C 8.707031 21.03125 8.941406 20.773438 9.246094 20.578125 C 9.550781 20.382812 9.921875 20.246094 10.359375 20.175781 L 10.367188 20.222656 C 9.9375 20.296875 9.570312 20.425781 9.273438 20.617188 C 8.976562 20.808594 8.75 21.0625 8.589844 21.375 Z M 8.542969 21.351562 " fill-opacity="1" fill-rule="nonzero"/><path fill="#808871" d="M 8.859375 20.257812 C 8.765625 20.484375 8.808594 20.667969 8.984375 20.8125 C 9.164062 20.382812 9.125 20.027344 8.859375 19.746094 C 8.914062 19.984375 8.910156 20.15625 8.859375 20.257812 Z M 8.859375 20.257812 " fill-opacity="1" fill-rule="evenodd"/><path fill="#808871" d="M 9.285156 20.046875 C 9.203125 20.246094 9.242188 20.40625 9.394531 20.53125 C 9.550781 20.15625 9.515625 19.847656 9.289062 19.601562 C 9.332031 19.808594 9.332031 19.957031 9.285156 20.046875 Z M 9.285156 20.046875 " fill-opacity="1" fill-rule="evenodd"/><path fill="#808871" d="M 9.757812 19.90625 C 9.691406 20.074219 9.71875 20.210938 9.851562 20.316406 C 9.988281 20 9.957031 19.730469 9.761719 19.519531 C 9.800781 19.703125 9.800781 19.828125 9.757812 19.90625 Z M 9.757812 19.90625 " fill-opacity="1" fill-rule="evenodd"/><path fill="#808871" d="M 9.671875 20.871094 C 9.457031 20.890625 9.3125 20.8125 9.234375 20.628906 C 9.640625 20.585938 9.933594 20.707031 10.105469 20.992188 C 9.917969 20.890625 9.769531 20.847656 9.671875 20.871094 Z M 9.671875 20.871094 " fill-opacity="1" fill-rule="evenodd"/><path fill="#808871" d="M 10.140625 20.617188 C 9.925781 20.636719 9.78125 20.558594 9.703125 20.378906 C 10.109375 20.332031 10.402344 20.453125 10.574219 20.738281 C 10.386719 20.636719 10.242188 20.597656 10.140625 20.617188 Z M 10.140625 20.617188 " fill-opacity="1" fill-rule="evenodd"/><path fill="#808871" d="M 10.753906 20.375 C 10.542969 20.421875 10.390625 20.359375 10.292969 20.1875 C 10.691406 20.097656 10.992188 20.183594 11.199219 20.445312 C 11 20.367188 10.851562 20.347656 10.753906 20.375 Z M 10.753906 20.375 " fill-opacity="1" fill-rule="evenodd"/><path fill="#808871" d="M 7.714844 21.332031 C 7.582031 21.003906 7.375 20.730469 7.09375 20.507812 C 6.8125 20.289062 6.457031 20.125 6.03125 20.015625 L 6.019531 20.0625 C 6.441406 20.171875 6.789062 20.332031 7.0625 20.546875 C 7.335938 20.761719 7.539062 21.03125 7.667969 21.351562 Z M 7.714844 21.332031 " fill-opacity="1" fill-rule="nonzero"/><path fill="#808871" d="M 7.503906 20.230469 C 7.574219 20.460938 7.515625 20.636719 7.332031 20.761719 C 7.191406 20.324219 7.261719 19.980469 7.542969 19.726562 C 7.472656 19.957031 7.460938 20.125 7.503906 20.230469 Z M 7.503906 20.230469 " fill-opacity="1" fill-rule="evenodd"/><path fill="#808871" d="M 7.101562 19.984375 C 7.164062 20.1875 7.113281 20.339844 6.949219 20.449219 C 6.832031 20.070312 6.890625 19.769531 7.136719 19.546875 C 7.074219 19.746094 7.0625 19.894531 7.101562 19.984375 Z M 7.101562 19.984375 " fill-opacity="1" fill-rule="evenodd"/><path fill="#808871" d="M 6.648438 19.800781 C 6.703125 19.976562 6.660156 20.109375 6.519531 20.203125 C 6.414062 19.875 6.46875 19.617188 6.679688 19.425781 C 6.625 19.597656 6.617188 19.722656 6.648438 19.800781 Z M 6.648438 19.800781 " fill-opacity="1" fill-rule="evenodd"/><path fill="#808871" d="M 6.648438 20.757812 C 6.855469 20.800781 7.007812 20.734375 7.101562 20.5625 C 6.703125 20.484375 6.40625 20.578125 6.210938 20.84375 C 6.40625 20.757812 6.550781 20.730469 6.648438 20.757812 Z M 6.648438 20.757812 " fill-opacity="1" fill-rule="evenodd"/><path fill="#808871" d="M 6.207031 20.472656 C 6.417969 20.507812 6.566406 20.445312 6.660156 20.273438 C 6.265625 20.195312 5.964844 20.289062 5.769531 20.550781 C 5.964844 20.46875 6.113281 20.441406 6.207031 20.472656 Z M 6.207031 20.472656 " fill-opacity="1" fill-rule="evenodd"/><path fill="#808871" d="M 5.621094 20.179688 C 5.824219 20.242188 5.980469 20.195312 6.089844 20.035156 C 5.707031 19.914062 5.402344 19.972656 5.175781 20.210938 C 5.378906 20.152344 5.527344 20.140625 5.621094 20.179688 Z M 5.621094 20.179688 " fill-opacity="1" fill-rule="evenodd"/><path fill="#808871" d="M 8.515625 18.722656 C 8.472656 19.304688 8.183594 19.65625 7.65625 19.773438 C 7.726562 18.671875 8.195312 17.957031 9.054688 17.632812 C 8.6875 18.085938 8.507812 18.453125 8.515625 18.722656 Z M 8.515625 18.722656 " fill-opacity="1" fill-rule="evenodd"/><path fill="#808871" d="M 7.828125 17.832031 C 7.789062 18.335938 7.539062 18.640625 7.078125 18.746094 C 7.140625 17.78125 7.550781 17.160156 8.300781 16.875 C 7.980469 17.273438 7.824219 17.589844 7.828125 17.832031 Z M 7.828125 17.832031 " fill-opacity="1" fill-rule="evenodd"/><path fill="#808871" d="M 6.972656 17.027344 C 6.941406 17.460938 6.722656 17.722656 6.324219 17.8125 C 6.382812 16.988281 6.734375 16.453125 7.375 16.207031 C 7.105469 16.546875 6.96875 16.824219 6.972656 17.027344 Z M 6.972656 17.027344 " fill-opacity="1" fill-rule="evenodd"/><path fill="#808871" d="M 6.117188 19.175781 C 6.554688 19.445312 6.953125 19.433594 7.3125 19.125 C 6.492188 18.605469 5.742188 18.558594 5.0625 18.984375 C 5.574219 18.964844 5.929688 19.03125 6.117188 19.175781 Z M 6.117188 19.175781 " fill-opacity="1" fill-rule="evenodd"/><path fill="#808871" d="M 5.390625 18.148438 C 5.824219 18.417969 6.222656 18.398438 6.582031 18.09375 C 5.757812 17.574219 5.011719 17.527344 4.332031 17.953125 C 4.847656 17.9375 5.199219 18 5.390625 18.148438 Z M 5.390625 18.148438 " fill-opacity="1" fill-rule="evenodd"/><path fill="#808871" d="M 4.398438 16.996094 C 4.796875 17.3125 5.191406 17.34375 5.585938 17.078125 C 4.832031 16.46875 4.089844 16.335938 3.371094 16.683594 C 3.882812 16.722656 4.222656 16.828125 4.398438 16.996094 Z M 4.398438 16.996094 " fill-opacity="1" fill-rule="evenodd"/><path fill="#808871" d="M 5.507812 17.015625 C 6.324219 17.632812 6.941406 18.304688 7.355469 19.039062 C 7.773438 19.773438 7.980469 20.5625 7.984375 21.410156 L 7.902344 21.410156 C 7.894531 20.578125 7.691406 19.800781 7.28125 19.078125 C 6.875 18.359375 6.265625 17.695312 5.453125 17.085938 Z M 5.507812 17.015625 " fill-opacity="1" fill-rule="nonzero"/><path fill="#edb2ae" d="M 7.265625 24.117188 L 8.953125 24.117188 L 8.953125 24.308594 L 7.265625 24.308594 Z M 7.265625 24.117188 " fill-opacity="1" fill-rule="evenodd"/><path fill="#edb2ae" d="M 6.421875 21.308594 L 9.824219 21.308594 C 9.890625 21.308594 9.941406 21.359375 9.941406 21.421875 L 9.941406 21.503906 C 9.941406 21.570312 9.890625 21.621094 9.824219 21.621094 L 6.421875 21.621094 C 6.355469 21.621094 6.304688 21.570312 6.304688 21.503906 L 6.304688 21.421875 C 6.304688 21.359375 6.355469 21.308594 6.421875 21.308594 Z M 6.421875 21.308594 " fill-opacity="1" fill-rule="evenodd"/><path fill="#808871" d="M 9.261719 21.34375 C 9.015625 21.34375 8.851562 21.238281 8.785156 21.023438 C 9.253906 21.015625 9.574219 21.183594 9.742188 21.527344 C 9.535156 21.390625 9.375 21.332031 9.261719 21.34375 Z M 9.261719 21.34375 " fill-opacity="1" fill-rule="evenodd"/><path fill="#808871" d="M 7.011719 21.261719 C 7.253906 21.285156 7.417969 21.195312 7.507812 20.992188 C 7.046875 20.941406 6.714844 21.074219 6.519531 21.402344 C 6.734375 21.285156 6.898438 21.238281 7.011719 21.261719 Z M 7.011719 21.261719 " fill-opacity="1" fill-rule="evenodd"/><path fill="#662370" d="M 15.46875 21.914062 L 19.070312 21.914062 L 19.070312 23.234375 L 15.46875 23.234375 Z M 15.46875 21.914062 " fill-opacity="1" fill-rule="evenodd"/><path fill="#edb2ae" d="M 15.378906 21.570312 L 19.164062 21.570312 L 19.164062 21.925781 L 15.378906 21.925781 Z M 15.378906 21.570312 " fill-opacity="1" fill-rule="evenodd"/><path fill="#edb2ae" d="M 15.578125 22.738281 L 16.453125 22.738281 L 16.453125 22.984375 L 15.578125 22.984375 Z M 15.578125 22.738281 " fill-opacity="1" fill-rule="evenodd"/><path fill="#662370" d="M 19.429688 21.914062 L 23.03125 21.914062 L 23.03125 23.234375 L 19.429688 23.234375 Z M 19.429688 21.914062 " fill-opacity="1" fill-rule="evenodd"/><path fill="#edb2ae" d="M 19.335938 21.570312 L 23.125 21.570312 L 23.125 21.925781 L 19.335938 21.925781 Z M 19.335938 21.570312 " fill-opacity="1" fill-rule="evenodd"/><path fill="#edb2ae" d="M 19.539062 22.738281 L 20.414062 22.738281 L 20.414062 22.984375 L 19.539062 22.984375 Z M 19.539062 22.738281 " fill-opacity="1" fill-rule="evenodd"/><path fill="#662370" d="M 17.59375 20.253906 L 21.195312 20.253906 L 21.195312 21.574219 L 17.59375 21.574219 Z M 17.59375 20.253906 " fill-opacity="1" fill-rule="evenodd"/><path fill="#edb2ae" d="M 17.503906 19.910156 L 21.289062 19.910156 L 21.289062 20.269531 L 17.503906 20.269531 Z M 17.503906 19.910156 " fill-opacity="1" fill-rule="evenodd"/><path fill="#edb2ae" d="M 17.699219 21.078125 L 18.578125 21.078125 L 18.578125 21.328125 L 17.699219 21.328125 Z M 17.699219 21.078125 " fill-opacity="1" fill-rule="evenodd"/><path fill="#ed6907" d="M 24.632812 19.703125 C 24.613281 19.707031 24.59375 19.699219 24.585938 19.679688 C 24.582031 19.664062 24.59375 19.644531 24.613281 19.644531 C 24.652344 19.632812 24.679688 19.617188 24.695312 19.589844 C 24.710938 19.558594 24.714844 19.515625 24.703125 19.464844 C 24.546875 19.128906 24.464844 18.855469 24.464844 18.644531 C 24.464844 18.421875 24.550781 18.269531 24.726562 18.179688 L 24.730469 18.179688 C 24.742188 18.175781 24.753906 18.171875 24.765625 18.167969 C 24.914062 18.128906 25.003906 18.210938 25.136719 18.320312 C 25.261719 18.425781 25.320312 18.582031 25.433594 18.824219 C 25.484375 18.929688 25.535156 19.050781 25.582031 19.183594 C 25.652344 19.347656 25.679688 19.476562 25.667969 19.570312 C 25.65625 19.675781 25.597656 19.738281 25.488281 19.757812 C 25.46875 19.765625 25.449219 19.75 25.445312 19.738281 C 25.441406 19.71875 25.453125 19.703125 25.472656 19.699219 C 25.546875 19.683594 25.585938 19.636719 25.597656 19.566406 C 25.609375 19.480469 25.578125 19.359375 25.511719 19.203125 C 25.464844 19.070312 25.417969 18.953125 25.367188 18.847656 C 25.253906 18.613281 25.203125 18.460938 25.085938 18.363281 C 24.972656 18.273438 24.90625 18.195312 24.789062 18.226562 C 24.777344 18.230469 24.769531 18.234375 24.761719 18.234375 C 24.613281 18.3125 24.539062 18.445312 24.539062 18.644531 C 24.539062 18.847656 24.617188 19.113281 24.777344 19.445312 L 24.777344 19.453125 C 24.789062 19.519531 24.785156 19.574219 24.761719 19.617188 C 24.738281 19.660156 24.695312 19.6875 24.632812 19.703125 Z M 24.632812 19.703125 " fill-opacity="1" fill-rule="nonzero"/><path fill="#f9c92b" d="M 26.804688 23.894531 L 26.367188 19.253906 L 25.820312 19.289062 L 25.816406 19.148438 L 23.226562 19.320312 L 22.628906 23.515625 L 25.660156 24.222656 Z M 24.09375 19.453125 C 24.039062 19.453125 23.992188 19.496094 23.992188 19.550781 C 23.988281 19.605469 24.035156 19.652344 24.089844 19.652344 C 24.144531 19.652344 24.191406 19.609375 24.191406 19.554688 C 24.195312 19.5 24.148438 19.453125 24.09375 19.453125 Z M 24.917969 19.425781 C 24.863281 19.425781 24.816406 19.46875 24.8125 19.523438 C 24.8125 19.582031 24.859375 19.625 24.914062 19.628906 C 24.96875 19.628906 25.015625 19.585938 25.019531 19.53125 C 25.019531 19.476562 24.976562 19.425781 24.917969 19.425781 Z M 24.917969 19.425781 " fill-opacity="1" fill-rule="evenodd"/><path fill="#d17b04" d="M 25.820312 19.289062 L 25.847656 23.019531 L 25.660156 24.222656 L 25.816406 19.148438 Z M 25.820312 19.289062 " fill-opacity="1" fill-rule="evenodd"/><path fill="#ed6907" d="M 24.925781 19.550781 C 24.941406 19.558594 24.960938 19.546875 24.96875 19.53125 C 24.976562 19.515625 24.964844 19.496094 24.945312 19.492188 C 24.90625 19.480469 24.878906 19.460938 24.867188 19.433594 C 24.851562 19.402344 24.847656 19.363281 24.859375 19.3125 C 25.035156 18.980469 25.125 18.710938 25.132812 18.5 C 25.144531 18.28125 25.0625 18.121094 24.894531 18.027344 L 24.890625 18.027344 C 24.878906 18.023438 24.867188 18.015625 24.855469 18.015625 C 24.710938 17.96875 24.617188 18.042969 24.476562 18.148438 C 24.347656 18.25 24.308594 18.402344 24.1875 18.636719 C 24.132812 18.742188 24.078125 18.859375 24.023438 18.988281 C 23.945312 19.152344 23.910156 19.28125 23.917969 19.375 C 23.925781 19.480469 23.984375 19.546875 24.09375 19.570312 C 24.109375 19.574219 24.128906 19.566406 24.136719 19.546875 C 24.140625 19.53125 24.128906 19.515625 24.109375 19.511719 C 24.035156 19.492188 24 19.445312 23.992188 19.371094 C 23.984375 19.285156 24.019531 19.167969 24.09375 19.015625 L 24.09375 19.011719 C 24.144531 18.882812 24.199219 18.765625 24.253906 18.664062 C 24.375 18.4375 24.402344 18.289062 24.527344 18.195312 C 24.644531 18.109375 24.710938 18.035156 24.828125 18.070312 C 24.835938 18.074219 24.847656 18.078125 24.859375 18.082031 C 25 18.164062 25.070312 18.300781 25.0625 18.496094 C 25.054688 18.703125 24.960938 18.964844 24.792969 19.289062 L 24.789062 19.296875 C 24.773438 19.363281 24.777344 19.417969 24.800781 19.460938 C 24.820312 19.503906 24.863281 19.535156 24.925781 19.550781 Z M 24.925781 19.550781 " fill-opacity="1" fill-rule="nonzero"/><path fill="#ff9000" d="M 26.367188 19.253906 L 26.804688 23.894531 L 25.847656 23.019531 L 25.820312 19.289062 Z M 26.367188 19.253906 " fill-opacity="1" fill-rule="evenodd"/><path fill="#0ed8e6" d="M 22.910156 21.6875 C 22.90625 21.707031 22.890625 21.71875 22.875 21.71875 C 22.855469 21.714844 22.84375 21.699219 22.84375 21.683594 C 22.878906 21.328125 23.007812 21.09375 23.164062 20.984375 C 23.234375 20.933594 23.308594 20.914062 23.382812 20.914062 C 23.453125 20.914062 23.527344 20.941406 23.59375 20.992188 C 23.734375 21.097656 23.84375 21.332031 23.863281 21.683594 C 23.867188 21.699219 23.851562 21.714844 23.832031 21.71875 C 23.816406 21.71875 23.800781 21.707031 23.800781 21.6875 C 23.78125 21.351562 23.683594 21.140625 23.550781 21.039062 C 23.5 21 23.441406 20.976562 23.378906 20.976562 C 23.320312 20.976562 23.257812 20.996094 23.199219 21.035156 C 23.058594 21.136719 22.941406 21.355469 22.910156 21.6875 Z M 22.910156 21.6875 " fill-opacity="1" fill-rule="nonzero"/><path fill="#0ed8e6" d="M 22.261719 24.117188 L 22.542969 21.496094 L 24.394531 21.496094 L 24.710938 24.117188 Z M 22.261719 24.117188 " fill-opacity="1" fill-rule="evenodd"/><path fill="#0ed8e6" d="M 23.050781 21.683594 C 23.050781 21.699219 23.035156 21.714844 23.015625 21.710938 C 23 21.710938 22.984375 21.695312 22.988281 21.679688 C 23.019531 21.324219 23.152344 21.089844 23.308594 20.976562 C 23.375 20.929688 23.449219 20.90625 23.519531 20.90625 C 23.59375 20.90625 23.667969 20.933594 23.734375 20.984375 C 23.878906 21.09375 23.988281 21.324219 24.003906 21.679688 C 24.007812 21.695312 23.992188 21.710938 23.976562 21.710938 C 23.957031 21.714844 23.941406 21.699219 23.941406 21.679688 C 23.925781 21.347656 23.824219 21.132812 23.695312 21.035156 C 23.640625 20.992188 23.582031 20.96875 23.519531 20.96875 C 23.460938 20.96875 23.402344 20.992188 23.34375 21.03125 C 23.203125 21.128906 23.085938 21.347656 23.050781 21.683594 Z M 23.050781 21.683594 " fill-opacity="1" fill-rule="nonzero"/><path fill="#f7b382" d="M 17.773438 16.867188 C 16.652344 16.71875 16.09375 16.648438 16.09375 16.648438 C 16.269531 17.558594 16.4375 18.15625 16.597656 18.4375 C 16.128906 18.429688 15.582031 18.566406 14.960938 18.847656 C 14.925781 18.773438 14.886719 18.730469 14.839844 18.71875 C 14.796875 18.34375 14.679688 18.179688 14.488281 18.214844 C 13.554688 18.90625 13.175781 19.457031 13.355469 19.871094 C 13.546875 20.113281 13.796875 20.042969 14.101562 19.671875 C 14.285156 19.550781 14.53125 19.503906 14.84375 19.53125 C 15.171875 19.574219 15.429688 19.597656 15.621094 19.597656 C 16.429688 19.648438 16.839844 19.671875 16.839844 19.671875 C 17.351562 19.792969 17.691406 19.65625 17.855469 19.265625 C 17.800781 17.667969 17.773438 16.867188 17.773438 16.867188 Z M 17.773438 16.867188 " fill-opacity="1" fill-rule="evenodd"/><path fill="#f7b382" d="M 18.773438 17.054688 C 18.804688 17.839844 18.738281 18.632812 18.574219 19.425781 C 18.566406 19.78125 18.496094 20.011719 18.363281 20.113281 C 18.269531 20.28125 18.222656 20.503906 18.222656 20.777344 C 18.042969 21.636719 17.480469 22.914062 17.832031 23.6875 C 17.863281 24.101562 17.964844 24.371094 18.132812 24.484375 C 18.371094 24.933594 18.304688 25.152344 17.945312 25.136719 C 17.464844 24.847656 16.9375 24.277344 16.363281 23.433594 C 16.386719 23.222656 16.554688 23.089844 16.878906 23.023438 C 17.003906 22.730469 17.0625 22.507812 17.0625 22.363281 C 17.039062 21.21875 17.171875 20.453125 17.464844 20.066406 C 17.519531 19.785156 17.519531 19.601562 17.46875 19.515625 C 17.3125 18.101562 17.355469 17.113281 17.585938 16.554688 C 18.375 16.886719 18.773438 17.054688 18.773438 17.054688 Z M 18.773438 17.054688 " fill-opacity="1" fill-rule="evenodd"/><path fill="#f7b382" d="M 19.164062 11.417969 C 19.347656 10.964844 19.4375 10.738281 19.4375 10.738281 C 19.96875 10.667969 20.351562 10.648438 20.589844 10.683594 C 21.203125 9.722656 21.558594 9.074219 21.652344 8.730469 C 21.496094 8.347656 21.765625 7.78125 21.855469 7.964844 C 21.894531 8.042969 22.042969 8.371094 22.136719 8.125 C 22.417969 7.367188 22.894531 8.003906 22.300781 8.773438 C 21.753906 10 21.351562 10.808594 21.09375 11.191406 C 20.367188 11.367188 19.726562 11.445312 19.164062 11.417969 Z M 19.164062 11.417969 " fill-opacity="1" fill-rule="evenodd"/><path fill="#f7b382" d="M 15.875 12.726562 C 15.464844 12.617188 15.257812 12.566406 15.257812 12.566406 C 15.132812 12.929688 15.039062 13.222656 14.980469 13.4375 C 14.539062 13.117188 14.140625 12.808594 13.785156 12.507812 C 13.710938 11.800781 13.535156 11.476562 13.269531 11.53125 C 11.601562 11.601562 14.40625 13.925781 14.875 14.21875 C 15.328125 14.257812 15.664062 13.761719 15.875 12.726562 Z M 15.875 12.726562 " fill-opacity="1" fill-rule="evenodd"/><path fill="#2a1b1e" d="M 16.949219 8.160156 C 16.324219 8.394531 16.089844 8.792969 16.25 9.351562 C 16.394531 10.121094 16.3125 10.703125 15.996094 11.09375 C 17.109375 11.828125 17.960938 11.738281 18.546875 10.816406 C 18.46875 10.035156 18.21875 7.949219 16.949219 8.160156 Z M 16.949219 8.160156 " fill-opacity="1" fill-rule="evenodd"/><path fill="#ddc7d3" d="M 16.53125 10.761719 C 17.300781 10.6875 17.683594 10.648438 17.683594 10.648438 C 17.863281 10.6875 17.953125 10.710938 17.953125 10.710938 C 18.222656 10.554688 18.367188 10.46875 18.382812 10.460938 C 19.183594 10.59375 19.585938 10.660156 19.585938 10.660156 C 19.476562 11.28125 19.421875 11.589844 19.421875 11.589844 C 19.113281 11.582031 18.957031 11.582031 18.957031 11.582031 C 18.800781 11.609375 18.773438 11.726562 18.867188 11.929688 C 19.039062 12.210938 19.042969 12.496094 18.882812 12.769531 C 18.835938 13.152344 18.804688 13.4375 18.789062 13.621094 C 17.246094 13.625 16.476562 13.628906 16.476562 13.628906 C 16.519531 13.496094 16.453125 13.253906 16.28125 12.894531 C 16.207031 12.84375 16.148438 12.71875 16.097656 12.523438 C 16.003906 12.847656 15.957031 13.007812 15.957031 13.007812 C 15.371094 12.773438 15.078125 12.65625 15.078125 12.65625 C 15.363281 11.75 15.578125 11.269531 15.710938 11.230469 C 16.261719 10.917969 16.53125 10.761719 16.53125 10.761719 Z M 16.53125 10.761719 " fill-opacity="1" fill-rule="evenodd"/><path fill="#662370" d="M 16.550781 13.628906 C 16.5625 13.960938 16.566406 14.125 16.566406 14.125 C 16.082031 14.589844 15.859375 15.253906 15.898438 16.125 C 15.902344 16.40625 15.789062 16.613281 15.5625 16.738281 C 16.730469 17.226562 17.929688 17.433594 19.15625 17.355469 C 19.171875 16.214844 19.03125 15.265625 18.851562 14.5 C 18.738281 14.105469 18.683594 13.8125 18.691406 13.621094 C 17.265625 13.625 16.550781 13.628906 16.550781 13.628906 Z M 16.550781 13.628906 " fill-opacity="1" fill-rule="evenodd"/><path fill="#f7b382" d="M 17.84375 10.695312 C 17.507812 10.992188 17.074219 11.019531 16.539062 10.78125 C 16.714844 10.34375 16.753906 10.027344 16.65625 9.835938 C 16.425781 9.699219 16.375 9.542969 16.503906 9.371094 C 16.582031 9.351562 16.636719 9.378906 16.667969 9.445312 C 16.890625 9.265625 17.03125 9.058594 17.082031 8.816406 C 17.140625 8.617188 17.296875 8.546875 17.539062 8.609375 C 17.90625 8.703125 18.082031 8.960938 18.078125 9.375 C 18.117188 9.84375 17.992188 10.207031 17.710938 10.476562 C 17.726562 10.582031 17.769531 10.652344 17.84375 10.695312 Z M 17.84375 10.695312 " fill-opacity="1" fill-rule="evenodd"/><path fill="#ddc7d3" d="M 17.832031 23.6875 C 17.339844 23.542969 17.023438 23.320312 16.878906 23.023438 C 16.554688 23.089844 16.386719 23.222656 16.363281 23.433594 C 16.9375 24.277344 17.464844 24.847656 17.945312 25.136719 C 18.304688 25.152344 18.371094 24.933594 18.132812 24.484375 C 17.964844 24.371094 17.863281 24.101562 17.832031 23.6875 Z M 17.832031 23.6875 " fill-opacity="1" fill-rule="evenodd"/><path fill="#ddc7d3" d="M 14.101562 19.671875 C 14.1875 19.617188 14.285156 19.578125 14.394531 19.550781 C 14.132812 19.21875 14.285156 18.941406 14.839844 18.71875 C 14.796875 18.34375 14.679688 18.179688 14.488281 18.214844 C 13.554688 18.90625 13.175781 19.457031 13.355469 19.871094 C 13.546875 20.113281 13.796875 20.042969 14.101562 19.671875 Z M 14.101562 19.671875 " fill-opacity="1" fill-rule="evenodd"/><path fill="#662370" d="M 16.117188 11.167969 L 16.207031 11.347656 L 16.296875 11.375 L 16.140625 11.480469 L 16.117188 11.589844 L 16.023438 11.40625 L 15.9375 11.375 L 16.089844 11.273438 Z M 16.117188 11.167969 " fill-opacity="1" fill-rule="evenodd"/><path fill="#662370" d="M 16.675781 11.359375 L 16.765625 11.542969 L 16.855469 11.570312 L 16.703125 11.675781 L 16.675781 11.78125 L 16.585938 11.597656 L 16.496094 11.570312 L 16.652344 11.464844 Z M 16.675781 11.359375 " fill-opacity="1" fill-rule="evenodd"/><path fill="#662370" d="M 17.527344 11.367188 L 17.617188 11.550781 L 17.707031 11.582031 L 17.550781 11.6875 L 17.527344 11.789062 L 17.4375 11.609375 L 17.347656 11.582031 L 17.503906 11.476562 Z M 17.527344 11.367188 " fill-opacity="1" fill-rule="evenodd"/><path fill="#662370" d="M 18.445312 10.550781 L 18.539062 10.730469 L 18.625 10.757812 L 18.472656 10.867188 L 18.445312 10.972656 L 18.355469 10.789062 L 18.265625 10.757812 L 18.421875 10.65625 Z M 18.445312 10.550781 " fill-opacity="1" fill-rule="evenodd"/><path fill="#662370" d="M 18.09375 11.015625 L 18.1875 11.195312 L 18.273438 11.222656 L 18.121094 11.328125 L 18.09375 11.433594 L 18.003906 11.253906 L 17.914062 11.222656 L 18.070312 11.121094 Z M 18.09375 11.015625 " fill-opacity="1" fill-rule="evenodd"/><path fill="#662370" d="M 16.773438 13.09375 L 16.863281 13.273438 L 16.953125 13.304688 L 16.796875 13.410156 L 16.773438 13.515625 L 16.683594 13.332031 L 16.589844 13.304688 L 16.746094 13.199219 Z M 16.773438 13.09375 " fill-opacity="1" fill-rule="evenodd"/><path fill="#662370" d="M 17.207031 13.0625 L 17.296875 13.246094 L 17.390625 13.273438 L 17.230469 13.378906 L 17.207031 13.480469 L 17.117188 13.300781 L 17.027344 13.273438 L 17.183594 13.167969 Z M 17.207031 13.0625 " fill-opacity="1" fill-rule="evenodd"/><path fill="#662370" d="M 17.65625 13.042969 L 17.746094 13.226562 L 17.839844 13.253906 L 17.683594 13.359375 L 17.65625 13.460938 L 17.566406 13.28125 L 17.476562 13.253906 L 17.632812 13.148438 Z M 17.65625 13.042969 " fill-opacity="1" fill-rule="evenodd"/><path fill="#662370" d="M 18.097656 13.042969 L 18.191406 13.226562 L 18.28125 13.253906 L 18.125 13.359375 L 18.097656 13.464844 L 18.007812 13.28125 L 17.917969 13.253906 L 18.074219 13.148438 Z M 18.097656 13.042969 " fill-opacity="1" fill-rule="evenodd"/><path fill="#662370" d="M 18.519531 13.046875 L 18.609375 13.226562 L 18.699219 13.257812 L 18.542969 13.359375 L 18.519531 13.464844 L 18.429688 13.285156 L 18.339844 13.257812 L 18.496094 13.152344 Z M 18.519531 13.046875 " fill-opacity="1" fill-rule="evenodd"/><path fill="#0ed8e6" d="M 11.535156 17.210938 L 10.957031 14.835938 L 13.105469 13.035156 L 13.394531 13.351562 L 13.605469 13.195312 L 14.183594 15.5 L 12.351562 17.433594 Z M 11.535156 17.210938 " fill-opacity="1" fill-rule="evenodd"/><path fill="#077175" d="M 13.105469 13.035156 L 13.710938 15.296875 L 13.945312 15.398438 L 14.183594 15.5 L 13.605469 13.195312 L 13.394531 13.351562 Z M 13.105469 13.035156 " fill-opacity="1" fill-rule="evenodd"/><path fill="#068c91" d="M 13.710938 15.296875 L 11.601562 17.15625 L 12.09375 17.085938 L 13.945312 15.398438 Z M 13.710938 15.296875 " fill-opacity="1" fill-rule="evenodd"/><path fill="#0ca7ab" d="M 13.945312 15.398438 L 12.09375 17.085938 L 12.351562 17.433594 L 14.183594 15.5 Z M 13.945312 15.398438 " fill-opacity="1" fill-rule="evenodd"/><path fill="#077175" d="M 12.351562 17.433594 L 12.09375 17.085938 L 11.601562 17.15625 L 11.535156 17.210938 Z M 12.351562 17.433594 " fill-opacity="1" fill-rule="evenodd"/><path fill="#077175" d="M 13.636719 13.324219 C 13.664062 13.292969 13.6875 13.265625 13.710938 13.234375 L 13.765625 13.289062 C 13.730469 13.324219 13.695312 13.367188 13.660156 13.410156 Z M 14.179688 12.828125 C 14.277344 12.78125 14.363281 12.757812 14.449219 12.75 C 14.574219 12.734375 14.679688 12.773438 14.753906 12.855469 C 14.828125 12.9375 14.871094 13.058594 14.886719 13.210938 C 14.929688 13.664062 14.734375 14.394531 14.125 15.265625 L 14.097656 15.15625 C 14.699219 14.300781 14.855469 13.65625 14.8125 13.21875 C 14.800781 13.082031 14.761719 12.972656 14.699219 12.90625 C 14.640625 12.839844 14.558594 12.808594 14.460938 12.820312 C 14.394531 12.828125 14.324219 12.847656 14.246094 12.882812 Z M 14.179688 12.828125 " fill-opacity="1" fill-rule="nonzero"/><path fill="#0ed8e6" d="M 13.136719 13.15625 C 13.253906 13.09375 13.359375 13.039062 13.457031 12.992188 L 13.523438 13.054688 C 13.414062 13.105469 13.292969 13.167969 13.160156 13.242188 Z M 14.078125 12.746094 C 14.230469 12.707031 14.351562 12.695312 14.460938 12.699219 C 14.652344 12.703125 14.757812 12.785156 14.804688 12.917969 C 14.84375 13.042969 14.828125 13.214844 14.765625 13.410156 C 14.585938 13.984375 14.160156 14.667969 13.683594 15.199219 L 13.660156 15.101562 C 14.128906 14.578125 14.519531 13.953125 14.695312 13.390625 C 14.753906 13.207031 14.769531 13.050781 14.734375 12.941406 C 14.699219 12.835938 14.613281 12.777344 14.460938 12.769531 C 14.371094 12.765625 14.273438 12.777344 14.152344 12.808594 Z M 14.078125 12.746094 " fill-opacity="1" fill-rule="nonzero"/><path fill="#f9c92b" d="M 24.289062 12.679688 L 25.246094 10.566406 L 23.566406 8.527344 L 23.242188 8.773438 L 23.074219 8.589844 L 22.125 10.632812 L 23.492188 12.746094 Z M 24.289062 12.679688 " fill-opacity="1" fill-rule="evenodd"/><path fill="#f3ab18" d="M 23.566406 8.527344 L 22.605469 10.523438 L 22.367188 10.582031 L 22.125 10.632812 L 23.074219 8.589844 L 23.242188 8.773438 Z M 23.566406 8.527344 " fill-opacity="1" fill-rule="evenodd"/><path fill="#d17b04" d="M 22.605469 10.523438 L 24.238281 12.617188 L 23.792969 12.464844 L 22.367188 10.582031 Z M 22.605469 10.523438 " fill-opacity="1" fill-rule="evenodd"/><path fill="#e59518" d="M 22.367188 10.582031 L 23.792969 12.464844 L 23.492188 12.746094 L 22.125 10.632812 Z M 22.367188 10.582031 " fill-opacity="1" fill-rule="evenodd"/><path fill="#b3730d" d="M 23.492188 12.746094 L 23.792969 12.464844 L 24.238281 12.617188 L 24.289062 12.679688 Z M 23.492188 12.746094 " fill-opacity="1" fill-rule="evenodd"/><path fill="#f3ab18" d="M 23.011719 8.742188 C 22.851562 8.445312 22.710938 8.253906 22.582031 8.144531 L 22.566406 8.25 C 22.683594 8.363281 22.835938 8.554688 22.976562 8.816406 Z M 22.09375 8.066406 C 21.976562 8.113281 21.910156 8.273438 21.875 8.386719 C 21.757812 8.796875 21.824219 9.511719 22.238281 10.425781 L 22.277344 10.34375 C 21.867188 9.445312 21.828125 8.804688 21.941406 8.40625 C 21.972656 8.300781 22.015625 8.222656 22.066406 8.167969 Z M 22.09375 8.066406 " fill-opacity="1" fill-rule="nonzero"/><path fill="#f9c92b" d="M 23.527344 8.675781 C 23.109375 8.328125 22.800781 8.121094 22.582031 8.039062 L 22.582031 8.121094 C 22.792969 8.214844 23.082031 8.4375 23.484375 8.769531 Z M 22.222656 7.949219 C 21.953125 8.117188 21.910156 8.191406 21.957031 8.589844 C 22.023438 9.15625 22.339844 9.875 22.691406 10.453125 L 22.726562 10.375 C 22.382812 9.804688 22.089844 9.136719 22.023438 8.582031 C 22.027344 8.398438 22 8.167969 22.136719 8.125 Z M 22.222656 7.949219 " fill-opacity="1" fill-rule="nonzero"/></svg>