<svg xmlns="http://www.w3.org/2000/svg" xmlns:xlink="http://www.w3.org/1999/xlink" width="40" zoomAndPan="magnify" viewBox="0 0 30 30.000001" height="40" preserveAspectRatio="xMidYMid meet" version="1.0"><defs><clipPath id="5963cdcbf7"><path d="M 5 21 L 28 21 L 28 27.398438 L 5 27.398438 Z M 5 21 " clip-rule="nonzero"/></clipPath></defs><path fill="#e3f0ff" d="M 23.238281 25.683594 L 6.464844 25.683594 C 6.464844 25.683594 0.496094 11.605469 11.070312 8.765625 C 16.769531 7.234375 17.628906 11.679688 19.597656 14.089844 C 21.4375 16.347656 25.464844 15.074219 27.148438 17.875 C 29.503906 21.792969 26.617188 26.183594 26.617188 26.183594 Z M 23.238281 25.683594 " fill-opacity="1" fill-rule="nonzero"/><path fill="#46294e" d="M 4.789062 21.75 C 4.789062 21.75 4.851562 23.035156 5.1875 23.917969 C 5.210938 23.980469 5.722656 25.457031 5.746094 25.515625 C 6.394531 25.515625 6.015625 25.085938 6.597656 25.070312 C 6.792969 25.0625 7.3125 25.058594 7.382812 25.074219 C 7.328125 24.597656 7.101562 23.46875 6.210938 22.800781 C 5.058594 21.9375 4.789062 21.75 4.789062 21.75 Z M 4.789062 21.75 " fill-opacity="1" fill-rule="nonzero"/><path fill="#ffffff" d="M 6.648438 25.113281 C 6.632812 25.113281 6.621094 25.101562 6.613281 25.089844 C 6.253906 24.128906 5.648438 22.796875 4.824219 21.890625 C 4.808594 21.875 4.8125 21.851562 4.824219 21.839844 C 4.839844 21.828125 4.859375 21.828125 4.875 21.84375 C 5.707031 22.757812 6.316406 24.101562 6.679688 25.066406 C 6.6875 25.082031 6.675781 25.101562 6.660156 25.109375 C 6.65625 25.109375 6.652344 25.113281 6.648438 25.113281 Z M 6.648438 25.113281 " fill-opacity="1" fill-rule="nonzero"/><path fill="#55a2ff" d="M 5.347656 21.328125 C 5.925781 21.835938 5.820312 21.902344 5.796875 22.519531 C 5.792969 22.621094 5.789062 22.714844 5.78125 22.800781 C 5.753906 23.230469 5.914062 23.863281 6.308594 24.378906 C 6.625 24.792969 6.746094 24.734375 6.75 25.027344 C 6.816406 25.046875 6.882812 25.058594 6.953125 25.074219 C 7.136719 25.113281 8.335938 25.0625 8.527344 25.074219 C 8.515625 24.921875 8.425781 24.257812 8.273438 23.917969 C 8.214844 23.792969 8.164062 23.710938 8.117188 23.652344 C 8.019531 23.527344 7.9375 23.5 7.867188 23.414062 C 7.824219 23.363281 7.691406 22.605469 7.425781 21.902344 C 7.285156 21.523438 7.160156 21.296875 6.992188 21.105469 C 6.847656 20.941406 6.675781 20.8125 6.4375 20.644531 C 5.925781 20.28125 6.214844 19.449219 5.539062 19.535156 C 4.859375 19.617188 4.773438 20.816406 5.347656 21.328125 Z M 5.347656 21.328125 " fill-opacity="1" fill-rule="nonzero"/><path fill="#46294e" d="M 7.554688 25.109375 C 7.550781 25.109375 7.546875 25.109375 7.542969 25.109375 C 7.523438 25.105469 7.507812 25.082031 7.515625 25.058594 C 7.617188 24.652344 7.496094 24.253906 7.160156 23.871094 C 6.773438 23.4375 6.761719 22.976562 6.75 22.566406 C 6.742188 22.300781 6.734375 22.050781 6.625 21.847656 C 6.492188 21.601562 6.269531 21.359375 6.050781 21.121094 C 5.800781 20.851562 5.585938 20.613281 5.542969 20.417969 C 5.46875 20.0625 5.496094 19.554688 5.496094 19.53125 C 5.496094 19.507812 5.515625 19.492188 5.539062 19.492188 C 5.5625 19.492188 5.578125 19.511719 5.578125 19.535156 C 5.578125 19.539062 5.550781 20.058594 5.625 20.398438 C 5.660156 20.574219 5.878906 20.8125 6.113281 21.066406 C 6.332031 21.304688 6.558594 21.554688 6.699219 21.808594 C 6.816406 22.027344 6.824219 22.289062 6.832031 22.5625 C 6.84375 22.957031 6.855469 23.40625 7.21875 23.816406 C 7.578125 24.21875 7.703125 24.644531 7.59375 25.082031 C 7.589844 25.097656 7.574219 25.109375 7.554688 25.109375 Z M 7.554688 25.109375 " fill-opacity="1" fill-rule="nonzero"/><g clip-path="url(#5963cdcbf7)"><path fill="#ffc06e" d="M 6.058594 25.261719 C 7.378906 23.992188 9.121094 23.199219 11.265625 22.304688 C 13.410156 21.40625 14.523438 21.65625 16.59375 22.519531 C 18.664062 23.382812 18.890625 24.257812 20.097656 24.585938 C 21.304688 24.914062 21.644531 24.761719 22.542969 24.585938 C 23.441406 24.410156 23.882812 24.066406 24.832031 24.890625 C 25.78125 25.714844 29.136719 26.226562 26.75 26.863281 C 24.726562 27.398438 21.742188 27.222656 20.015625 26.90625 C 18.285156 26.589844 17.417969 26.078125 15.914062 26.410156 C 14.414062 26.742188 13.164062 27.34375 10.472656 27.335938 C 7.785156 27.332031 5.582031 26.472656 5.089844 26.089844 C 4.742188 25.828125 5.863281 25.449219 6.058594 25.261719 Z M 6.058594 25.261719 " fill-opacity="1" fill-rule="nonzero"/></g><path fill="#55a2ff" d="M 20.726562 25.046875 C 20.726562 25.046875 19.457031 24.433594 19.398438 24.355469 C 19.339844 24.273438 19.0625 22.847656 19.242188 21.917969 C 19.417969 20.988281 19.914062 18.886719 20.121094 18.730469 C 20.332031 18.570312 20.09375 18.511719 20.269531 17.996094 C 20.449219 17.480469 20.84375 16.53125 21.011719 15.886719 C 21.183594 15.246094 21.230469 15.414062 21.289062 14.808594 C 21.351562 14.203125 21.714844 13.371094 21.734375 13.164062 C 21.757812 12.957031 21.734375 12.582031 21.925781 12.253906 C 22.113281 11.925781 22.230469 11.601562 22.289062 11.472656 C 22.351562 11.34375 22.417969 11.285156 22.429688 11.203125 C 22.4375 11.125 22.714844 11.621094 22.855469 11.839844 C 22.992188 12.054688 23.132812 12.234375 23.132812 12.234375 L 23.300781 11.511719 L 23.300781 12.324219 L 23.835938 12.976562 L 24.015625 12.570312 C 24.015625 12.570312 23.945312 12.957031 24.015625 13.175781 C 24.082031 13.394531 24.667969 14.15625 24.667969 14.15625 C 24.667969 14.15625 25.023438 13.136719 24.738281 12.511719 C 24.449219 11.886719 24.332031 11.75 24.371094 11.777344 C 24.410156 11.808594 24.738281 12.105469 24.738281 12.105469 C 24.738281 12.105469 24.578125 11.710938 24.25 11.332031 C 23.925781 10.957031 23.777344 10.796875 23.777344 10.796875 C 23.777344 10.796875 24.171875 10.917969 24.332031 11.015625 C 24.488281 11.113281 24.546875 11.15625 24.546875 11.15625 L 24.390625 10.5625 L 24.777344 11.234375 C 24.777344 11.234375 24.925781 11.332031 25.082031 11.453125 L 25.242188 11.570312 L 25.242188 11.035156 L 25.449219 11.660156 L 26.222656 12.242188 C 26.222656 12.242188 25.84375 10.835938 25.507812 10.5625 C 25.171875 10.285156 24.648438 10.007812 24.785156 10.015625 C 24.925781 10.027344 25.945312 10.285156 25.945312 10.285156 C 25.945312 10.285156 24.894531 9.757812 24.785156 9.699219 C 24.675781 9.640625 23.042969 9.738281 23.042969 9.738281 C 23.042969 9.738281 23.480469 9.601562 23.628906 9.570312 C 23.777344 9.539062 23.597656 9.234375 23.597656 9.234375 L 23.933594 9.480469 C 23.933594 9.480469 25.121094 9.214844 25.101562 9.183594 C 25.082031 9.15625 24.398438 8.71875 24.398438 8.71875 L 25.410156 8.976562 C 25.410156 8.976562 24.757812 8.371094 24.113281 8.371094 C 23.46875 8.371094 22.886719 8.917969 22.886719 8.917969 C 22.886719 8.917969 23.003906 7.789062 23.003906 7.71875 C 23.003906 7.648438 22.558594 7.433594 22.28125 7.363281 C 22.003906 7.292969 21.824219 7.324219 21.667969 7.203125 C 21.507812 7.085938 20.984375 6.917969 20.933594 6.898438 C 20.882812 6.878906 19.777344 7.203125 19.777344 7.203125 C 19.777344 7.203125 20.546875 7.519531 20.585938 7.53125 C 20.628906 7.539062 20.972656 7.601562 20.972656 7.601562 L 20.757812 7.667969 L 21.289062 8.007812 L 21.835938 7.957031 C 21.835938 7.957031 21.4375 8.035156 21.488281 8.144531 C 21.539062 8.253906 21.6875 8.519531 21.6875 8.519531 C 21.6875 8.519531 20.765625 8.085938 20.597656 8.027344 C 20.429688 7.964844 19.183594 7.90625 19.183594 7.90625 L 17.804688 8.570312 L 18.785156 8.886719 L 19.4375 8.667969 L 19.210938 8.976562 C 19.210938 8.976562 20.042969 9.132812 20.171875 9.09375 C 20.300781 9.054688 20.875 8.738281 20.875 8.738281 L 20.566406 9.085938 L 21.074219 9.390625 L 19.855469 9.433594 L 20.171875 9.71875 L 19.628906 9.519531 C 19.628906 9.519531 19.074219 9.648438 19.011719 9.667969 C 18.953125 9.6875 18.546875 9.945312 18.359375 10.085938 C 18.171875 10.222656 17.945312 10.472656 17.945312 10.472656 C 17.945312 10.472656 18.359375 10.550781 18.6875 10.539062 L 19.011719 10.53125 L 19.390625 10.074219 C 19.390625 10.074219 19.203125 10.511719 19.269531 10.519531 C 19.339844 10.53125 19.757812 10.5625 20.042969 10.53125 C 20.042969 10.53125 19.695312 10.769531 19.417969 10.988281 C 19.140625 11.203125 19.140625 11.34375 19.140625 11.34375 L 19.519531 11.195312 L 19.132812 11.480469 L 18.925781 12.164062 L 19.289062 12.105469 L 18.972656 12.304688 C 18.972656 12.304688 18.894531 13.324219 18.894531 13.363281 C 18.894531 13.402344 19.546875 13.074219 19.707031 12.9375 C 19.863281 12.796875 20.011719 12.710938 20.011719 12.710938 L 20.054688 12.253906 L 20.183594 12.5 L 20.726562 12.144531 L 20.90625 11.261719 C 20.90625 11.261719 20.855469 11.964844 20.894531 11.925781 C 20.933594 11.886719 21.410156 11.460938 21.410156 11.460938 L 21.480469 11.105469 C 21.480469 11.105469 21.65625 11.441406 21.558594 11.589844 C 21.460938 11.738281 21.183594 12.964844 21.191406 13.242188 C 21.203125 13.519531 20.609375 15.105469 20.585938 15.246094 C 20.566406 15.382812 20.03125 17.285156 19.796875 17.679688 C 19.558594 18.074219 19.714844 18.453125 19.457031 18.867188 C 19.203125 19.285156 18.90625 21.007812 18.746094 21.363281 C 18.585938 21.71875 18.382812 22.570312 18.277344 22.886719 C 18.171875 23.207031 18.074219 23.839844 17.636719 24.3125 C 17.203125 24.789062 16.863281 24.828125 16.429688 24.949219 C 15.992188 25.066406 15.914062 25.226562 16.210938 25.226562 C 16.507812 25.226562 17.300781 24.886719 17.914062 24.949219 C 18.527344 25.007812 20.429688 25.304688 20.765625 25.324219 C 21.101562 25.34375 20.726562 25.046875 20.726562 25.046875 Z M 20.726562 25.046875 " fill-opacity="1" fill-rule="nonzero"/><path fill="#55a2ff" d="M 22.929688 25.304688 L 22.929688 17.621094 C 22.929688 17.621094 23.535156 17.179688 23.59375 17.128906 C 23.648438 17.082031 23.945312 17.128906 23.945312 17.128906 L 23.984375 17.515625 C 23.984375 17.515625 24.035156 17.179688 24.085938 17.1875 C 24.132812 17.195312 24.378906 17.292969 24.378906 17.292969 L 24.5625 25.304688 L 23.605469 25.570312 Z M 22.929688 25.304688 " fill-opacity="1" fill-rule="nonzero"/><path fill="#46294e" d="M 23.605469 25.605469 C 23.585938 25.605469 23.570312 25.589844 23.570312 25.570312 L 23.558594 18.609375 L 23.558594 17.128906 C 23.558594 17.109375 23.574219 17.097656 23.59375 17.097656 C 23.613281 17.097656 23.628906 17.109375 23.628906 17.128906 L 23.628906 18.609375 L 23.636719 25.570312 C 23.636719 25.589844 23.625 25.605469 23.605469 25.605469 Z M 23.605469 25.605469 " fill-opacity="1" fill-rule="nonzero"/><path fill="#46294e" d="M 23.359375 25.449219 C 23.339844 25.449219 23.324219 25.433594 23.324219 25.414062 L 23.324219 23.125 C 23.324219 23.105469 23.339844 23.089844 23.359375 23.089844 C 23.375 23.089844 23.390625 23.105469 23.390625 23.125 L 23.390625 25.414062 C 23.390625 25.433594 23.375 25.449219 23.359375 25.449219 Z M 23.359375 25.449219 " fill-opacity="1" fill-rule="nonzero"/><path fill="#46294e" d="M 23.128906 22.914062 C 23.109375 22.914062 23.09375 22.898438 23.09375 22.878906 L 23.09375 20.457031 C 23.09375 20.4375 23.109375 20.421875 23.128906 20.421875 C 23.148438 20.421875 23.164062 20.4375 23.164062 20.457031 L 23.164062 22.878906 C 23.164062 22.898438 23.148438 22.914062 23.128906 22.914062 Z M 23.128906 22.914062 " fill-opacity="1" fill-rule="nonzero"/><path fill="#46294e" d="M 23.359375 20.222656 C 23.339844 20.222656 23.324219 20.207031 23.324219 20.1875 L 23.324219 17.699219 C 23.324219 17.679688 23.339844 17.664062 23.359375 17.664062 C 23.375 17.664062 23.390625 17.679688 23.390625 17.699219 L 23.390625 20.1875 C 23.390625 20.207031 23.375 20.222656 23.359375 20.222656 Z M 23.359375 20.222656 " fill-opacity="1" fill-rule="nonzero"/><path fill="#46294e" d="M 23.046875 19.296875 C 23.027344 19.296875 23.015625 19.28125 23.015625 19.261719 L 23.015625 17.699219 C 23.015625 17.679688 23.027344 17.664062 23.046875 17.664062 C 23.066406 17.664062 23.082031 17.679688 23.082031 17.699219 L 23.082031 19.261719 C 23.082031 19.28125 23.066406 19.296875 23.046875 19.296875 Z M 23.046875 19.296875 " fill-opacity="1" fill-rule="nonzero"/><path fill="#46294e" d="M 23.984375 18.886719 C 23.96875 18.886719 23.953125 18.871094 23.953125 18.851562 L 23.953125 17.515625 C 23.953125 17.496094 23.96875 17.480469 23.984375 17.480469 C 24.003906 17.480469 24.019531 17.496094 24.019531 17.515625 L 24.019531 18.851562 C 24.019531 18.871094 24.003906 18.886719 23.984375 18.886719 Z M 23.984375 18.886719 " fill-opacity="1" fill-rule="nonzero"/><path fill="#46294e" d="M 21.921875 20.453125 L 22.324219 20.507812 L 25.390625 19.148438 L 26.386719 17.6875 L 26.386719 17.445312 L 25.253906 19.007812 Z M 21.921875 20.453125 " fill-opacity="1" fill-rule="nonzero"/><path fill="#46294e" d="M 24.171875 21.703125 C 24.152344 21.703125 24.136719 21.6875 24.136719 21.667969 L 24.136719 20.113281 C 24.136719 20.097656 24.152344 20.082031 24.171875 20.082031 C 24.191406 20.082031 24.207031 20.097656 24.207031 20.113281 L 24.207031 21.667969 C 24.207031 21.6875 24.191406 21.703125 24.171875 21.703125 Z M 24.171875 21.703125 " fill-opacity="1" fill-rule="nonzero"/><path fill="#46294e" d="M 24.171875 25.449219 C 24.152344 25.449219 24.136719 25.433594 24.136719 25.414062 L 24.136719 23.820312 C 24.136719 23.800781 24.152344 23.789062 24.171875 23.789062 C 24.191406 23.789062 24.207031 23.800781 24.207031 23.820312 L 24.207031 25.414062 C 24.207031 25.433594 24.191406 25.449219 24.171875 25.449219 Z M 24.171875 25.449219 " fill-opacity="1" fill-rule="nonzero"/><path fill="#46294e" d="M 23.605469 25.605469 C 23.601562 25.605469 23.59375 25.605469 23.589844 25.601562 L 22.917969 25.335938 C 22.902344 25.332031 22.894531 25.320312 22.894531 25.304688 L 22.894531 17.621094 C 22.894531 17.609375 22.898438 17.601562 22.910156 17.59375 C 22.914062 17.589844 23.515625 17.152344 23.570312 17.105469 C 23.636719 17.050781 23.878906 17.085938 23.949219 17.097656 C 23.964844 17.097656 23.976562 17.109375 23.980469 17.125 L 23.996094 17.285156 C 24.011719 17.226562 24.03125 17.179688 24.054688 17.164062 C 24.066406 17.15625 24.078125 17.152344 24.089844 17.152344 C 24.140625 17.164062 24.367188 17.253906 24.390625 17.261719 C 24.40625 17.265625 24.414062 17.28125 24.414062 17.292969 L 24.597656 25.304688 C 24.597656 25.320312 24.585938 25.332031 24.570312 25.339844 L 23.613281 25.605469 C 23.609375 25.605469 23.605469 25.605469 23.605469 25.605469 Z M 22.964844 25.28125 L 23.605469 25.535156 L 24.527344 25.277344 L 24.34375 17.316406 C 24.257812 17.285156 24.136719 17.238281 24.089844 17.222656 C 24.070312 17.261719 24.039062 17.402344 24.019531 17.519531 C 24.015625 17.535156 24.003906 17.550781 23.984375 17.550781 C 23.96875 17.550781 23.953125 17.535156 23.953125 17.519531 L 23.914062 17.160156 C 23.785156 17.140625 23.640625 17.132812 23.613281 17.15625 C 23.5625 17.203125 23.058594 17.570312 22.964844 17.640625 Z M 22.964844 25.28125 " fill-opacity="1" fill-rule="nonzero"/><path fill="#55a2ff" d="M 19.546875 21.070312 L 19.675781 20.992188 L 20.800781 20.292969 L 26.789062 21.144531 L 26.789062 21.757812 L 26.550781 21.824219 L 26.828125 21.871094 L 26.878906 22.742188 L 20.820312 22.164062 L 19.996094 21.515625 L 20.207031 21.277344 L 19.894531 21.367188 C 19.871094 21.375 19.546875 21.070312 19.546875 21.070312 Z M 19.546875 21.070312 " fill-opacity="1" fill-rule="nonzero"/><path fill="#55a2ff" d="M 21.441406 20.382812 C 21.441406 20.382812 21.371094 20.402344 21.359375 20.320312 C 21.34375 20.242188 21.3125 19.660156 21.3125 19.660156 L 21.464844 19.484375 L 21.3125 19.539062 L 21.3125 19.085938 L 25.144531 17.046875 L 26.386719 17.429688 L 25.25 18.996094 L 21.96875 20.457031 Z M 21.441406 20.382812 " fill-opacity="1" fill-rule="nonzero"/><path fill="#46294e" d="M 19.546875 21.070312 L 19.632812 21.152344 C 19.632812 21.152344 19.871094 21.371094 19.882812 21.371094 C 19.894531 21.367188 20.226562 21.257812 20.226562 21.257812 L 20.007812 21.492188 C 20.007812 21.492188 19.976562 21.519531 20.066406 21.574219 C 20.160156 21.625 20.820312 22.179688 20.820312 22.179688 L 26.855469 22.742188 L 26.65625 22.878906 L 20.71875 22.347656 L 19.980469 21.75 L 20 21.542969 L 19.878906 21.574219 C 19.878906 21.574219 19.863281 21.597656 19.832031 21.570312 C 19.800781 21.546875 19.539062 21.339844 19.539062 21.339844 Z M 19.546875 21.070312 " fill-opacity="1" fill-rule="nonzero"/><path fill="#ffffff" d="M 20.332031 21.773438 C 20.332031 21.773438 20.386719 21.765625 20.417969 21.777344 C 20.445312 21.789062 20.992188 21.84375 21.234375 21.84375 C 21.480469 21.839844 21.695312 21.855469 22.101562 21.753906 C 22.507812 21.648438 22.636719 21.539062 22.683594 21.503906 C 22.730469 21.472656 22.722656 21.441406 22.691406 21.445312 C 22.664062 21.453125 22.621094 21.433594 22.625 21.421875 C 22.632812 21.40625 22.636719 21.414062 22.5625 21.433594 C 22.488281 21.449219 22.421875 21.433594 22.425781 21.375 C 22.429688 21.316406 22.527344 21.246094 22.527344 21.246094 C 22.527344 21.246094 22.625 20.976562 22.878906 20.921875 C 23.128906 20.863281 23.585938 20.777344 23.878906 20.902344 C 24.171875 21.027344 24.355469 21.304688 24.355469 21.304688 C 24.355469 21.304688 24.429688 21.410156 24.453125 21.390625 C 24.476562 21.367188 24.875 21.28125 25.152344 21.363281 C 25.429688 21.445312 25.535156 21.59375 25.652344 21.765625 C 25.769531 21.941406 25.832031 22.09375 26.128906 22.222656 C 26.527344 22.390625 26.855469 22.386719 26.855469 22.386719 L 26.878906 22.742188 L 20.820312 22.164062 Z M 20.332031 21.773438 " fill-opacity="1" fill-rule="nonzero"/><path fill="#46294e" d="M 22.324219 20.542969 C 22.308594 20.542969 22.296875 20.535156 22.292969 20.523438 C 22.285156 20.503906 22.292969 20.484375 22.308594 20.476562 L 25.367188 19.121094 L 26.351562 17.675781 L 26.351562 17.453125 L 25.148438 17.085938 L 21.347656 19.109375 L 21.347656 19.488281 L 21.453125 19.453125 C 21.464844 19.449219 21.484375 19.453125 21.492188 19.464844 C 21.5 19.480469 21.5 19.496094 21.488281 19.507812 C 21.429688 19.574219 21.363281 19.648438 21.347656 19.671875 C 21.347656 19.730469 21.382812 20.113281 21.40625 20.371094 C 21.40625 20.390625 21.394531 20.40625 21.375 20.40625 C 21.355469 20.410156 21.339844 20.394531 21.335938 20.375 C 21.273438 19.675781 21.277344 19.660156 21.277344 19.652344 C 21.28125 19.644531 21.28125 19.636719 21.347656 19.5625 L 21.324219 19.570312 C 21.3125 19.574219 21.300781 19.574219 21.292969 19.566406 C 21.28125 19.558594 21.277344 19.550781 21.277344 19.539062 L 21.277344 19.085938 C 21.277344 19.074219 21.285156 19.0625 21.296875 19.058594 L 25.128906 17.019531 C 25.136719 17.015625 25.144531 17.011719 25.15625 17.015625 L 26.394531 17.394531 C 26.410156 17.402344 26.421875 17.414062 26.421875 17.429688 L 26.421875 17.6875 C 26.421875 17.695312 26.417969 17.699219 26.414062 17.707031 L 25.417969 19.167969 C 25.414062 19.175781 25.410156 19.179688 25.40625 19.179688 L 22.335938 20.539062 C 22.332031 20.542969 22.328125 20.542969 22.324219 20.542969 Z M 21.34375 19.675781 Z M 21.34375 19.675781 " fill-opacity="1" fill-rule="nonzero"/><path fill="#46294e" d="M 26.65625 22.914062 C 26.65625 22.914062 26.652344 22.914062 26.652344 22.914062 L 20.714844 22.382812 C 20.707031 22.382812 20.703125 22.378906 20.695312 22.375 L 19.957031 21.777344 C 19.949219 21.769531 19.945312 21.757812 19.945312 21.746094 L 19.964844 21.582031 L 19.859375 21.617188 C 19.851562 21.621094 19.835938 21.621094 19.828125 21.613281 L 19.523438 21.367188 C 19.515625 21.359375 19.511719 21.351562 19.511719 21.339844 L 19.511719 21.070312 C 19.511719 21.058594 19.519531 21.046875 19.527344 21.039062 L 20.78125 20.261719 C 20.789062 20.257812 20.796875 20.257812 20.804688 20.257812 L 26.792969 21.109375 C 26.808594 21.113281 26.820312 21.125 26.820312 21.144531 L 26.820312 21.757812 C 26.820312 21.773438 26.8125 21.789062 26.796875 21.792969 L 26.707031 21.816406 L 26.835938 21.839844 C 26.851562 21.84375 26.863281 21.855469 26.863281 21.871094 L 26.910156 22.738281 C 26.914062 22.75 26.90625 22.761719 26.894531 22.769531 L 26.675781 22.910156 C 26.667969 22.914062 26.664062 22.914062 26.65625 22.914062 Z M 20.730469 22.316406 L 26.648438 22.84375 L 26.84375 22.722656 L 26.796875 21.902344 L 26.542969 21.859375 C 26.527344 21.855469 26.515625 21.839844 26.515625 21.824219 C 26.515625 21.808594 26.523438 21.792969 26.539062 21.789062 L 26.753906 21.730469 L 26.753906 21.171875 L 20.808594 20.328125 L 19.582031 21.089844 L 19.582031 21.324219 L 19.855469 21.546875 L 19.992188 21.496094 C 20.003906 21.492188 20.015625 21.496094 20.027344 21.5 C 20.035156 21.507812 20.039062 21.519531 20.039062 21.53125 L 20.015625 21.734375 Z M 20.730469 22.316406 " fill-opacity="1" fill-rule="nonzero"/><path fill="#46294e" d="M 21.957031 20.492188 C 21.945312 20.492188 21.933594 20.484375 21.925781 20.46875 C 21.917969 20.453125 21.925781 20.433594 21.945312 20.425781 L 25.234375 18.960938 L 26.359375 17.410156 C 26.371094 17.394531 26.390625 17.390625 26.40625 17.402344 C 26.421875 17.414062 26.425781 17.433594 26.414062 17.449219 L 25.285156 19.007812 C 25.28125 19.015625 25.273438 19.019531 25.269531 19.019531 L 21.972656 20.488281 C 21.96875 20.488281 21.960938 20.492188 21.957031 20.492188 Z M 21.957031 20.492188 " fill-opacity="1" fill-rule="nonzero"/><path fill="#46294e" d="M 25.363281 19.195312 C 25.351562 19.195312 25.339844 19.191406 25.332031 19.179688 L 25.226562 19.007812 C 25.214844 18.992188 25.222656 18.96875 25.238281 18.960938 C 25.253906 18.949219 25.273438 18.957031 25.285156 18.972656 L 25.390625 19.144531 C 25.402344 19.160156 25.394531 19.179688 25.378906 19.191406 C 25.375 19.195312 25.367188 19.195312 25.363281 19.195312 Z M 25.363281 19.195312 " fill-opacity="1" fill-rule="nonzero"/><path fill="#46294e" d="M 25.984375 18.3125 C 25.972656 18.3125 25.960938 18.308594 25.953125 18.296875 L 25.855469 18.140625 C 25.84375 18.125 25.847656 18.105469 25.863281 18.09375 C 25.882812 18.082031 25.902344 18.089844 25.914062 18.105469 L 26.011719 18.261719 C 26.023438 18.277344 26.019531 18.296875 26 18.308594 C 25.996094 18.3125 25.988281 18.3125 25.984375 18.3125 Z M 25.984375 18.3125 " fill-opacity="1" fill-rule="nonzero"/><path fill="#46294e" d="M 25.757812 18.644531 C 25.746094 18.644531 25.738281 18.640625 25.730469 18.628906 L 25.617188 18.472656 C 25.605469 18.457031 25.609375 18.433594 25.625 18.421875 C 25.640625 18.414062 25.664062 18.417969 25.671875 18.433594 L 25.785156 18.589844 C 25.796875 18.605469 25.792969 18.625 25.777344 18.636719 C 25.773438 18.640625 25.765625 18.644531 25.757812 18.644531 Z M 25.757812 18.644531 " fill-opacity="1" fill-rule="nonzero"/><path fill="#46294e" d="M 24.671875 19.503906 C 24.660156 19.503906 24.648438 19.496094 24.644531 19.488281 L 24.53125 19.316406 C 24.523438 19.300781 24.527344 19.28125 24.542969 19.269531 C 24.558594 19.257812 24.578125 19.265625 24.589844 19.28125 L 24.699219 19.449219 C 24.710938 19.464844 24.707031 19.488281 24.691406 19.496094 C 24.683594 19.5 24.679688 19.503906 24.671875 19.503906 Z M 24.671875 19.503906 " fill-opacity="1" fill-rule="nonzero"/><path fill="#46294e" d="M 23.210938 20.148438 C 23.203125 20.148438 23.195312 20.144531 23.1875 20.140625 L 23.027344 19.996094 C 23.011719 19.984375 23.007812 19.964844 23.023438 19.949219 C 23.035156 19.933594 23.054688 19.933594 23.070312 19.945312 L 23.234375 20.089844 C 23.25 20.101562 23.25 20.125 23.238281 20.136719 C 23.230469 20.144531 23.222656 20.148438 23.210938 20.148438 Z M 23.210938 20.148438 " fill-opacity="1" fill-rule="nonzero"/><path fill="#46294e" d="M 22.636719 20.402344 C 22.628906 20.402344 22.621094 20.398438 22.613281 20.394531 L 22.457031 20.25 C 22.445312 20.234375 22.441406 20.214844 22.457031 20.199219 C 22.46875 20.1875 22.492188 20.1875 22.503906 20.199219 L 22.660156 20.34375 C 22.675781 20.355469 22.675781 20.378906 22.664062 20.390625 C 22.65625 20.398438 22.648438 20.402344 22.636719 20.402344 Z M 22.636719 20.402344 " fill-opacity="1" fill-rule="nonzero"/><path fill="#46294e" d="M 26.878906 22.777344 C 26.875 22.777344 26.875 22.773438 26.875 22.773438 L 20.816406 22.199219 C 20.808594 22.195312 20.804688 22.195312 20.796875 22.191406 C 20.507812 21.957031 20.03125 21.582031 19.992188 21.558594 C 19.976562 21.554688 19.96875 21.542969 19.964844 21.527344 C 19.960938 21.503906 19.96875 21.472656 20.085938 21.347656 C 20.089844 21.34375 20.09375 21.339844 20.097656 21.335938 L 19.878906 21.40625 C 19.867188 21.410156 19.855469 21.40625 19.847656 21.398438 L 19.523438 21.09375 C 19.507812 21.082031 19.507812 21.058594 19.519531 21.046875 C 19.535156 21.03125 19.554688 21.03125 19.570312 21.046875 L 19.878906 21.335938 L 20.214844 21.226562 C 20.230469 21.222656 20.246094 21.226562 20.253906 21.242188 C 20.265625 21.253906 20.261719 21.273438 20.25 21.285156 C 20.160156 21.367188 20.0625 21.46875 20.039062 21.507812 C 20.15625 21.585938 20.660156 21.992188 20.832031 22.128906 L 26.878906 22.707031 C 26.898438 22.707031 26.914062 22.726562 26.910156 22.746094 C 26.910156 22.761719 26.894531 22.777344 26.878906 22.777344 Z M 20.019531 21.496094 Z M 20.019531 21.496094 " fill-opacity="1" fill-rule="nonzero"/><path fill="#46294e" d="M 19.847656 21.621094 C 19.828125 21.617188 19.8125 21.601562 19.816406 21.582031 L 19.835938 21.371094 C 19.835938 21.351562 19.855469 21.335938 19.875 21.339844 C 19.890625 21.339844 19.90625 21.359375 19.902344 21.375 L 19.882812 21.589844 C 19.882812 21.605469 19.867188 21.621094 19.847656 21.621094 Z M 19.847656 21.621094 " fill-opacity="1" fill-rule="nonzero"/><path fill="#46294e" d="M 20.71875 22.382812 C 20.710938 22.382812 20.707031 22.378906 20.699219 22.378906 C 20.683594 22.367188 20.679688 22.347656 20.6875 22.332031 L 20.789062 22.148438 C 20.800781 22.128906 20.820312 22.125 20.835938 22.132812 C 20.851562 22.144531 20.859375 22.164062 20.851562 22.179688 L 20.746094 22.363281 C 20.742188 22.375 20.730469 22.382812 20.71875 22.382812 Z M 20.71875 22.382812 " fill-opacity="1" fill-rule="nonzero"/><path fill="#46294e" d="M 20.3125 22.054688 C 20.308594 22.054688 20.304688 22.054688 20.300781 22.050781 C 20.285156 22.046875 20.273438 22.027344 20.28125 22.007812 L 20.355469 21.808594 C 20.363281 21.789062 20.382812 21.78125 20.402344 21.789062 C 20.417969 21.796875 20.425781 21.816406 20.421875 21.832031 L 20.34375 22.03125 C 20.339844 22.046875 20.328125 22.054688 20.3125 22.054688 Z M 20.3125 22.054688 " fill-opacity="1" fill-rule="nonzero"/><path fill="#46294e" d="M 22.109375 22.507812 C 22.105469 22.507812 22.105469 22.507812 22.101562 22.507812 C 22.082031 22.503906 22.070312 22.484375 22.074219 22.464844 L 22.113281 22.28125 C 22.117188 22.265625 22.136719 22.253906 22.15625 22.257812 C 22.171875 22.261719 22.183594 22.277344 22.179688 22.296875 L 22.144531 22.480469 C 22.140625 22.496094 22.125 22.507812 22.109375 22.507812 Z M 22.109375 22.507812 " fill-opacity="1" fill-rule="nonzero"/><path fill="#46294e" d="M 24.410156 22.714844 C 24.410156 22.714844 24.40625 22.714844 24.40625 22.710938 C 24.386719 22.710938 24.375 22.691406 24.378906 22.671875 L 24.410156 22.503906 C 24.414062 22.484375 24.433594 22.472656 24.453125 22.476562 C 24.472656 22.480469 24.484375 22.496094 24.480469 22.515625 L 24.445312 22.6875 C 24.441406 22.703125 24.425781 22.714844 24.410156 22.714844 Z M 24.410156 22.714844 " fill-opacity="1" fill-rule="nonzero"/><path fill="#46294e" d="M 25.925781 22.847656 C 25.921875 22.847656 25.917969 22.847656 25.914062 22.847656 C 25.894531 22.839844 25.886719 22.820312 25.894531 22.800781 L 25.960938 22.644531 C 25.96875 22.625 25.988281 22.617188 26.007812 22.625 C 26.023438 22.632812 26.03125 22.652344 26.023438 22.671875 L 25.957031 22.828125 C 25.953125 22.839844 25.941406 22.847656 25.925781 22.847656 Z M 25.925781 22.847656 " fill-opacity="1" fill-rule="nonzero"/><path fill="#46294e" d="M 21.359375 20.222656 L 22.667969 18.609375 L 23.59375 18.742188 C 23.59375 18.742188 24.011719 18.207031 24.042969 18.199219 C 24.074219 18.195312 25.675781 18.410156 25.675781 18.410156 L 25.253906 18.988281 L 21.96875 20.457031 L 21.371094 20.375 Z M 21.359375 20.222656 " fill-opacity="1" fill-rule="nonzero"/><path fill="#46294e" d="M 21.328125 21.878906 C 20.820312 21.878906 20.335938 21.800781 20.308594 21.796875 C 20.289062 21.792969 20.277344 21.773438 20.28125 21.753906 C 20.28125 21.738281 20.300781 21.722656 20.320312 21.726562 C 20.328125 21.730469 21.433594 21.910156 22.0625 21.726562 C 22.632812 21.566406 22.695312 21.449219 22.695312 21.441406 C 22.699219 21.421875 22.714844 21.410156 22.734375 21.414062 C 22.753906 21.414062 22.765625 21.429688 22.765625 21.449219 C 22.761719 21.484375 22.703125 21.617188 22.082031 21.792969 C 21.863281 21.855469 21.589844 21.878906 21.328125 21.878906 Z M 22.695312 21.445312 Z M 22.695312 21.445312 Z M 22.695312 21.441406 Z M 22.695312 21.441406 " fill-opacity="1" fill-rule="nonzero"/><path fill="#46294e" d="M 23.691406 21.898438 C 23.679688 21.898438 23.667969 21.890625 23.660156 21.878906 C 23.652344 21.863281 23.660156 21.84375 23.675781 21.835938 C 23.679688 21.832031 24.0625 21.628906 23.996094 21.402344 C 23.980469 21.34375 23.9375 21.304688 23.867188 21.289062 C 23.714844 21.25 23.492188 21.328125 23.453125 21.367188 C 23.394531 21.429688 23.296875 21.460938 23.246094 21.441406 C 23.222656 21.464844 23.191406 21.488281 23.152344 21.480469 C 23.117188 21.476562 23.097656 21.449219 23.082031 21.425781 C 23.046875 21.46875 22.988281 21.535156 22.910156 21.539062 C 22.851562 21.542969 22.796875 21.523438 22.761719 21.492188 C 22.753906 21.480469 22.746094 21.472656 22.742188 21.460938 C 22.714844 21.472656 22.683594 21.488281 22.648438 21.480469 C 22.632812 21.476562 22.617188 21.464844 22.609375 21.449219 C 22.570312 21.472656 22.515625 21.484375 22.449219 21.457031 C 22.40625 21.441406 22.394531 21.414062 22.390625 21.390625 C 22.382812 21.324219 22.464844 21.25 22.5 21.222656 C 22.515625 21.171875 22.601562 20.957031 22.902344 20.878906 C 23.242188 20.789062 23.71875 20.757812 23.976562 20.910156 C 24.226562 21.058594 24.445312 21.363281 24.457031 21.375 C 24.46875 21.390625 24.464844 21.414062 24.449219 21.421875 C 24.433594 21.433594 24.410156 21.429688 24.402344 21.414062 C 24.398438 21.414062 24.179688 21.109375 23.941406 20.96875 C 23.703125 20.828125 23.246094 20.859375 22.921875 20.945312 C 22.621094 21.023438 22.5625 21.25 22.5625 21.253906 C 22.558594 21.261719 22.554688 21.265625 22.546875 21.273438 C 22.503906 21.304688 22.457031 21.359375 22.457031 21.382812 C 22.460938 21.386719 22.472656 21.394531 22.476562 21.394531 C 22.558594 21.425781 22.605469 21.363281 22.609375 21.355469 C 22.617188 21.339844 22.636719 21.335938 22.652344 21.34375 C 22.667969 21.351562 22.675781 21.371094 22.671875 21.386719 C 22.667969 21.394531 22.664062 21.410156 22.667969 21.414062 C 22.679688 21.417969 22.699219 21.40625 22.714844 21.398438 C 22.734375 21.386719 22.757812 21.375 22.78125 21.390625 C 22.785156 21.390625 22.800781 21.402344 22.800781 21.425781 C 22.800781 21.4375 22.835938 21.472656 22.90625 21.46875 C 22.960938 21.46875 23.011719 21.40625 23.035156 21.375 C 23.050781 21.355469 23.058594 21.347656 23.070312 21.34375 C 23.105469 21.324219 23.128906 21.363281 23.132812 21.378906 C 23.140625 21.390625 23.152344 21.410156 23.164062 21.414062 C 23.167969 21.414062 23.183594 21.410156 23.214844 21.375 C 23.226562 21.367188 23.246094 21.347656 23.269531 21.363281 C 23.273438 21.367188 23.277344 21.371094 23.28125 21.378906 C 23.308594 21.375 23.367188 21.359375 23.402344 21.320312 C 23.460938 21.261719 23.703125 21.179688 23.882812 21.222656 C 23.976562 21.246094 24.039062 21.300781 24.0625 21.382812 C 24.144531 21.660156 23.726562 21.886719 23.707031 21.894531 C 23.703125 21.898438 23.695312 21.898438 23.691406 21.898438 Z M 23.691406 21.898438 " fill-opacity="1" fill-rule="nonzero"/><path fill="#46294e" d="M 26.855469 22.417969 C 26.839844 22.417969 26.40625 22.417969 26.003906 22.199219 C 25.835938 22.105469 25.757812 21.988281 25.671875 21.855469 C 25.617188 21.773438 25.554688 21.683594 25.464844 21.582031 C 25.238281 21.328125 24.792969 21.339844 24.566406 21.382812 C 24.453125 21.40625 24.246094 21.546875 24.1875 21.636719 C 24.179688 21.652344 24.179688 21.660156 24.179688 21.664062 C 24.183594 21.667969 24.191406 21.671875 24.199219 21.675781 C 24.238281 21.675781 24.292969 21.632812 24.3125 21.613281 C 24.328125 21.601562 24.347656 21.601562 24.359375 21.613281 C 24.371094 21.621094 24.375 21.632812 24.371094 21.644531 C 24.375 21.652344 24.378906 21.664062 24.402344 21.6875 C 24.40625 21.6875 24.414062 21.695312 24.417969 21.695312 C 24.421875 21.695312 24.433594 21.683594 24.441406 21.675781 C 24.445312 21.664062 24.453125 21.65625 24.453125 21.652344 C 24.464844 21.640625 24.484375 21.636719 24.5 21.648438 C 24.511719 21.65625 24.519531 21.675781 24.511719 21.691406 C 24.507812 21.695312 24.503906 21.699219 24.5 21.707031 C 24.5 21.710938 24.5 21.714844 24.5 21.71875 C 24.5 21.722656 24.507812 21.726562 24.523438 21.734375 C 24.582031 21.753906 24.621094 21.664062 24.621094 21.664062 C 24.628906 21.648438 24.640625 21.640625 24.65625 21.640625 C 24.671875 21.644531 24.683594 21.652344 24.6875 21.667969 L 24.695312 21.695312 C 24.699219 21.691406 24.710938 21.6875 24.714844 21.683594 C 24.730469 21.671875 24.75 21.675781 24.761719 21.6875 C 24.773438 21.703125 24.773438 21.722656 24.761719 21.734375 C 24.746094 21.75 24.714844 21.792969 24.71875 21.828125 C 24.722656 21.839844 24.726562 21.84375 24.730469 21.84375 C 24.746094 21.851562 24.769531 21.847656 24.785156 21.835938 C 24.792969 21.832031 24.800781 21.828125 24.808594 21.820312 C 24.890625 21.761719 25.097656 21.605469 25.285156 21.679688 C 25.382812 21.71875 25.421875 21.804688 25.402344 21.914062 C 25.398438 21.9375 25.359375 22.066406 25.3125 22.066406 C 25.292969 22.066406 25.277344 22.050781 25.277344 22.03125 C 25.277344 22.019531 25.285156 22.011719 25.292969 22.003906 C 25.304688 21.988281 25.351562 21.898438 25.335938 21.828125 C 25.328125 21.789062 25.300781 21.761719 25.257812 21.746094 C 25.109375 21.683594 24.921875 21.820312 24.851562 21.875 C 24.839844 21.882812 24.832031 21.890625 24.824219 21.894531 C 24.785156 21.917969 24.738281 21.925781 24.703125 21.90625 C 24.675781 21.894531 24.65625 21.871094 24.652344 21.835938 C 24.648438 21.808594 24.652344 21.785156 24.664062 21.761719 C 24.65625 21.757812 24.652344 21.753906 24.644531 21.75 C 24.613281 21.789062 24.5625 21.820312 24.503906 21.800781 C 24.476562 21.789062 24.457031 21.777344 24.441406 21.757812 C 24.4375 21.761719 24.433594 21.761719 24.429688 21.761719 C 24.410156 21.765625 24.382812 21.761719 24.355469 21.734375 C 24.339844 21.71875 24.328125 21.707031 24.320312 21.695312 C 24.289062 21.71875 24.242188 21.746094 24.195312 21.742188 C 24.167969 21.742188 24.144531 21.726562 24.125 21.707031 C 24.117188 21.695312 24.101562 21.667969 24.117188 21.628906 C 24.15625 21.519531 24.414062 21.34375 24.554688 21.316406 C 24.796875 21.269531 25.269531 21.261719 25.515625 21.535156 C 25.609375 21.640625 25.671875 21.734375 25.726562 21.820312 C 25.8125 21.949219 25.882812 22.050781 26.039062 22.136719 C 26.421875 22.347656 26.851562 22.351562 26.855469 22.351562 C 26.875 22.351562 26.890625 22.367188 26.890625 22.386719 C 26.890625 22.402344 26.875 22.417969 26.855469 22.417969 Z M 25.3125 22 Z M 25.3125 22 Z M 25.3125 22 Z M 25.3125 22 Z M 25.3125 22 Z M 25.3125 22 Z M 25.3125 22 Z M 25.3125 22 Z M 25.3125 22 Z M 25.3125 22 Z M 24.367188 21.660156 C 24.367188 21.660156 24.363281 21.660156 24.363281 21.660156 C 24.363281 21.660156 24.363281 21.660156 24.367188 21.660156 Z M 24.367188 21.660156 Z M 24.367188 21.660156 Z M 24.367188 21.660156 " fill-opacity="1" fill-rule="nonzero"/><path fill="#46294e" d="M 23.007812 22.40625 C 22.992188 22.40625 22.976562 22.394531 22.976562 22.378906 C 22.972656 22.359375 22.984375 22.34375 23.003906 22.339844 C 23.007812 22.335938 23.488281 22.246094 23.839844 22.136719 C 24.171875 22.027344 24.304688 21.628906 24.304688 21.625 C 24.3125 21.609375 24.332031 21.597656 24.347656 21.605469 C 24.367188 21.609375 24.375 21.628906 24.371094 21.648438 C 24.363281 21.664062 24.226562 22.082031 23.859375 22.199219 C 23.507812 22.3125 23.019531 22.40625 23.015625 22.40625 C 23.011719 22.40625 23.011719 22.40625 23.007812 22.40625 Z M 23.007812 22.40625 " fill-opacity="1" fill-rule="nonzero"/><path fill="#ffffff" d="M 25.066406 17.523438 C 25.125 17.554688 25.160156 17.605469 25.171875 17.679688 C 25.183594 17.75 25.171875 17.816406 25.132812 17.882812 C 25.09375 17.949219 25.039062 17.996094 24.972656 18.019531 C 24.90625 18.046875 24.84375 18.039062 24.789062 18.007812 C 24.730469 17.976562 24.695312 17.921875 24.683594 17.851562 C 24.671875 17.78125 24.683594 17.714844 24.722656 17.648438 C 24.761719 17.578125 24.8125 17.535156 24.882812 17.511719 C 24.949219 17.484375 25.011719 17.492188 25.066406 17.523438 Z M 25.066406 17.523438 " fill-opacity="1" fill-rule="nonzero"/><path fill="#55a2ff" d="M 14.410156 16.339844 L 14.410156 24.738281 L 11.636719 26.003906 L 10.394531 25.753906 L 9.492188 25.570312 L 9.222656 25.515625 L 8.121094 25.054688 L 8.121094 16.675781 C 8.121094 16.148438 8.527344 15.707031 9.050781 15.664062 L 11.9375 15.421875 Z M 14.410156 16.339844 " fill-opacity="1" fill-rule="nonzero"/><path fill="#ffffff" d="M 12.328125 25.121094 C 12.285156 25.132812 12.242188 25.101562 12.242188 25.054688 L 12.242188 17.226562 C 12.242188 17.195312 12.261719 17.167969 12.292969 17.160156 C 12.335938 17.148438 12.378906 17.179688 12.378906 17.226562 L 12.378906 25.054688 C 12.378906 25.085938 12.359375 25.113281 12.328125 25.121094 Z M 12.328125 25.121094 " fill-opacity="1" fill-rule="nonzero"/><path fill="#ffffff" d="M 12.914062 24.890625 C 12.871094 24.902344 12.828125 24.867188 12.828125 24.824219 L 12.828125 17.078125 C 12.828125 17.046875 12.847656 17.019531 12.875 17.011719 C 12.921875 17 12.964844 17.03125 12.964844 17.078125 L 12.964844 24.824219 C 12.964844 24.855469 12.945312 24.882812 12.914062 24.890625 Z M 12.914062 24.890625 " fill-opacity="1" fill-rule="nonzero"/><path fill="#ffffff" d="M 13.5 24.609375 C 13.453125 24.621094 13.410156 24.589844 13.410156 24.546875 L 13.410156 16.929688 C 13.410156 16.898438 13.429688 16.871094 13.460938 16.863281 C 13.503906 16.851562 13.546875 16.882812 13.546875 16.929688 L 13.546875 24.546875 C 13.546875 24.574219 13.527344 24.601562 13.5 24.609375 Z M 13.5 24.609375 " fill-opacity="1" fill-rule="nonzero"/><path fill="#ffffff" d="M 14.082031 24.367188 C 14.039062 24.378906 13.996094 24.347656 13.996094 24.300781 L 13.996094 16.78125 C 13.996094 16.75 14.015625 16.722656 14.042969 16.714844 C 14.089844 16.703125 14.132812 16.734375 14.132812 16.78125 L 14.132812 24.300781 C 14.132812 24.332031 14.113281 24.359375 14.082031 24.367188 Z M 14.082031 24.367188 " fill-opacity="1" fill-rule="nonzero"/><path fill="#ffc06e" d="M 8.542969 8.957031 C 8.542969 8.957031 8.636719 10.148438 8.625 10.3125 C 8.617188 10.476562 8.867188 10.851562 8.875 11.039062 C 8.878906 11.226562 8.847656 11.71875 8.726562 12.042969 C 8.601562 12.363281 8.410156 13.171875 8.394531 13.480469 C 8.378906 13.785156 8.714844 14.511719 9.105469 14.816406 C 9.496094 15.125 10.957031 14.910156 11.105469 14.722656 C 11.253906 14.535156 11.777344 10.246094 11.007812 9.171875 C 10.238281 8.09375 9.503906 8.140625 9.308594 8.363281 C 9.109375 8.589844 8.542969 8.957031 8.542969 8.957031 Z M 8.542969 8.957031 " fill-opacity="1" fill-rule="nonzero"/><path fill="#46294e" d="M 9.609375 9.171875 C 9.609375 9.171875 8.664062 9.921875 8.597656 9.972656 C 8.527344 10.019531 8.527344 10.394531 8.597656 10.367188 C 8.664062 10.335938 9.78125 9.605469 9.78125 9.605469 Z M 9.609375 9.171875 " fill-opacity="1" fill-rule="nonzero"/><path fill="#46294e" d="M 9.570312 8.824219 C 9.398438 8.765625 8.660156 9.160156 8.707031 9.507812 C 8.75 9.851562 8.800781 10.160156 8.542969 9.875 C 8.289062 9.59375 8.101562 9.09375 8.378906 8.585938 C 8.65625 8.074219 8.765625 8.015625 9.25 7.828125 C 9.734375 7.640625 9.714844 7.242188 9.78125 7.59375 C 9.851562 7.945312 9.570312 8.824219 9.570312 8.824219 Z M 9.570312 8.824219 " fill-opacity="1" fill-rule="nonzero"/><path fill="#46294e" d="M 9.941406 11.949219 C 9.757812 11.808594 8.855469 11.988281 8.707031 12.117188 C 8.558594 12.242188 8.382812 12.589844 8.542969 12.578125 C 8.707031 12.570312 9.652344 12.222656 9.839844 12.332031 C 10.03125 12.441406 9.941406 11.949219 9.941406 11.949219 Z M 9.941406 11.949219 " fill-opacity="1" fill-rule="nonzero"/><path fill="#46294e" d="M 15.777344 23.667969 C 15.757812 23.660156 15.414062 23.613281 15.382812 23.917969 C 15.347656 24.21875 15.027344 24.890625 15.191406 25.097656 C 15.355469 25.308594 15.683594 25.417969 16.402344 25.40625 C 17.121094 25.394531 17.9375 25.511719 18.203125 25.511719 C 18.464844 25.511719 19.011719 24.917969 18.386719 24.496094 C 17.761719 24.074219 16.800781 23.917969 16.765625 23.910156 C 16.730469 23.902344 15.777344 23.667969 15.777344 23.667969 Z M 15.777344 23.667969 " fill-opacity="1" fill-rule="nonzero"/><path fill="#ffbba2" d="M 16.007812 22.710938 L 15.585938 23.96875 C 15.585938 23.96875 15.832031 24.164062 16.195312 24.152344 C 16.558594 24.136719 16.882812 24.101562 16.882812 24.101562 L 17.082031 23.109375 Z M 16.007812 22.710938 " fill-opacity="1" fill-rule="nonzero"/><path fill="#46294e" d="M 16.261719 24.1875 C 16.1875 24.1875 16.117188 24.183594 16.054688 24.175781 C 15.746094 24.136719 15.574219 24.003906 15.566406 23.996094 C 15.554688 23.988281 15.550781 23.972656 15.554688 23.957031 L 15.976562 22.699219 C 15.976562 22.691406 15.984375 22.683594 15.992188 22.679688 C 16 22.675781 16.011719 22.675781 16.019531 22.679688 L 17.097656 23.042969 C 17.113281 23.046875 17.121094 23.058594 17.121094 23.074219 C 17.121094 23.09375 17.011719 23.648438 16.917969 24.109375 C 16.914062 24.121094 16.902344 24.132812 16.890625 24.136719 C 16.871094 24.136719 16.546875 24.1875 16.261719 24.1875 Z M 15.625 23.957031 C 15.679688 23.988281 15.832031 24.078125 16.066406 24.105469 C 16.324219 24.140625 16.75 24.085938 16.855469 24.070312 C 16.925781 23.71875 17.027344 23.21875 17.050781 23.097656 L 16.03125 22.753906 Z M 15.625 23.957031 " fill-opacity="1" fill-rule="nonzero"/><path fill="#ffffff" d="M 18.023438 25.269531 C 18.019531 25.269531 18.015625 25.269531 18.011719 25.265625 C 17.742188 25.171875 17.152344 25.15625 16.582031 25.144531 C 16.429688 25.140625 16.273438 25.136719 16.125 25.132812 C 15.417969 25.109375 15.152344 24.761719 15.140625 24.75 C 15.128906 24.734375 15.132812 24.710938 15.148438 24.699219 C 15.160156 24.691406 15.183594 24.691406 15.195312 24.707031 C 15.195312 24.710938 15.457031 25.042969 16.128906 25.066406 C 16.273438 25.070312 16.433594 25.074219 16.582031 25.078125 C 17.160156 25.089844 17.753906 25.101562 18.035156 25.203125 C 18.054688 25.207031 18.0625 25.226562 18.054688 25.246094 C 18.050781 25.261719 18.039062 25.269531 18.023438 25.269531 Z M 18.023438 25.269531 " fill-opacity="1" fill-rule="nonzero"/><path fill="#46294e" d="M 17.664062 23.109375 C 17.664062 23.109375 17.648438 23.097656 17.28125 23.519531 C 16.917969 23.9375 16.660156 24.210938 16.808594 24.449219 C 16.957031 24.683594 17.332031 24.953125 17.886719 25.316406 C 18.4375 25.683594 18.617188 26.007812 19.347656 26.253906 C 20.078125 26.503906 20.5625 26.214844 20.453125 26.058594 C 20.34375 25.898438 19.960938 25.792969 19.8125 25.328125 C 19.664062 24.863281 19.515625 23.945312 19.386719 23.804688 C 19.257812 23.667969 19.070312 23.53125 19.070312 23.515625 C 19.070312 23.503906 17.589844 23.054688 17.664062 23.109375 Z M 17.664062 23.109375 " fill-opacity="1" fill-rule="nonzero"/><path fill="#ffbba2" d="M 17.699219 22.460938 L 17.667969 23.765625 C 17.667969 23.765625 17.886719 24.195312 18.40625 24.089844 C 18.921875 23.984375 19.105469 23.773438 19.105469 23.773438 L 18.925781 22.125 Z M 17.699219 22.460938 " fill-opacity="1" fill-rule="nonzero"/><path fill="#46294e" d="M 13.894531 16.324219 C 13.980469 16.371094 14.871094 17.511719 15.6875 18.089844 C 16.5 18.667969 16.5 18.683594 16.414062 18.976562 C 16.324219 19.273438 15.996094 20.917969 15.910156 21.527344 C 15.820312 22.136719 15.664062 22.730469 15.722656 22.765625 C 15.785156 22.796875 16.5 23.132812 16.816406 23.179688 C 17.132812 23.226562 17.21875 23.265625 17.21875 23.179688 C 17.21875 23.09375 17.628906 21.800781 17.628906 21.757812 C 17.628906 21.710938 18.398438 17.71875 17.507812 17.027344 C 16.621094 16.335938 13.894531 16.324219 13.894531 16.324219 Z M 13.894531 16.324219 " fill-opacity="1" fill-rule="nonzero"/><path fill="#55a2ff" d="M 12.6875 7.285156 C 12.6875 7.285156 13.960938 7.074219 14.734375 7.558594 C 15.507812 8.039062 15.960938 8.246094 16.148438 8.070312 C 16.339844 7.890625 16.40625 7.296875 16.40625 7.296875 C 16.40625 7.296875 16.738281 7.535156 16.984375 7.457031 C 17.234375 7.378906 17.367188 7.253906 17.367188 7.253906 C 17.367188 7.253906 17.835938 8.117188 17.511719 9.082031 C 17.296875 9.714844 16.207031 9.847656 15.65625 10.027344 C 15.109375 10.203125 14.398438 10.648438 13.90625 10.515625 C 13.417969 10.382812 12.1875 8.78125 12.375 8.363281 C 12.558594 7.949219 12.6875 7.285156 12.6875 7.285156 Z M 12.6875 7.285156 " fill-opacity="1" fill-rule="nonzero"/><path fill="#55a2ff" d="M 10.878906 6.304688 C 10.453125 6.503906 9.527344 6.886719 9.464844 8.28125 C 9.40625 9.675781 9.816406 10.984375 9.757812 11.808594 C 9.699219 12.632812 9.964844 13.390625 9.773438 13.746094 C 9.578125 14.101562 9.371094 14.070312 9.832031 14.589844 C 10.292969 15.109375 10.335938 15.375 10.558594 15.421875 C 10.78125 15.464844 11.65625 14.695312 12.375 14.160156 C 13.09375 13.628906 14.175781 13.507812 14.546875 13.714844 C 14.914062 13.921875 14.914062 13.523438 14.855469 13.480469 C 14.796875 13.433594 14.101562 12.546875 14.25 11.242188 C 14.398438 9.9375 14.621094 9.417969 14.410156 8.601562 C 14.203125 7.789062 13.726562 6.765625 13.46875 6.660156 C 13.210938 6.558594 10.878906 6.304688 10.878906 6.304688 Z M 10.878906 6.304688 " fill-opacity="1" fill-rule="nonzero"/><path fill="#46294e" d="M 11.816406 8.894531 C 11.816406 8.894531 11.453125 9.582031 11.117188 9.933594 C 10.847656 10.210938 10.621094 10.507812 10.632812 10.675781 C 10.640625 10.84375 10.585938 11.644531 11.15625 11.175781 C 11.832031 10.621094 12.363281 9.851562 12.519531 9.40625 C 12.675781 8.964844 11.816406 8.894531 11.816406 8.894531 Z M 11.816406 8.894531 " fill-opacity="1" fill-rule="nonzero"/><path fill="#46294e" d="M 10.765625 10.605469 C 10.765625 10.605469 10.222656 11.953125 10.011719 12.324219 C 9.800781 12.691406 9.578125 13.132812 9.609375 13.238281 C 9.644531 13.34375 9.652344 13.574219 9.757812 13.4375 C 9.863281 13.296875 10.851562 11.335938 10.910156 11.164062 C 10.96875 10.992188 10.765625 10.605469 10.765625 10.605469 Z M 10.765625 10.605469 " fill-opacity="1" fill-rule="nonzero"/><path fill="#ffc06e" d="M 10.507812 4.089844 C 10.507812 4.089844 10.527344 3.121094 10.851562 2.789062 C 11.171875 2.460938 11.746094 2.230469 11.941406 2.171875 C 12.140625 2.113281 12.746094 2.296875 12.992188 2.554688 C 13.234375 2.8125 10.613281 4.28125 10.613281 4.28125 Z M 10.507812 4.089844 " fill-opacity="1" fill-rule="nonzero"/><path fill="#46294e" d="M 10.535156 4.1875 C 10.535156 4.1875 10.460938 3.988281 10.535156 3.871094 C 10.605469 3.753906 11.546875 3.132812 11.941406 2.894531 C 12.339844 2.660156 12.847656 2.425781 12.910156 2.449219 C 12.976562 2.476562 13.089844 2.578125 13.117188 2.605469 C 13.140625 2.632812 10.535156 4.1875 10.535156 4.1875 Z M 10.535156 4.1875 " fill-opacity="1" fill-rule="nonzero"/><path fill="#ffc06e" d="M 10.660156 6.304688 C 9.984375 6.113281 9.460938 4.863281 10.882812 3.746094 C 12.308594 2.628906 13.890625 1.996094 14.457031 2.835938 C 15.019531 3.679688 14.136719 4.78125 13.03125 5.558594 C 11.921875 6.335938 11.257812 6.472656 10.660156 6.304688 Z M 10.660156 6.304688 " fill-opacity="1" fill-rule="nonzero"/><path fill="#46294e" d="M 13.46875 3.566406 C 13.585938 3.613281 14.148438 4.433594 14.011719 4.910156 C 13.875 5.386719 14.25 5.503906 14.464844 5.929688 C 14.683594 6.355469 14.902344 6.710938 14.546875 7.285156 C 14.191406 7.855469 13.207031 7.371094 12.996094 7.15625 C 12.785156 6.9375 12.65625 6.128906 12.6875 5.625 C 12.71875 5.121094 13.46875 3.566406 13.46875 3.566406 Z M 13.46875 3.566406 " fill-opacity="1" fill-rule="nonzero"/><path fill="#46294e" d="M 15.769531 5.125 C 15.78125 5.125 16.507812 5.132812 16.507812 5.132812 C 16.507812 5.132812 17.144531 5.066406 17.148438 5.039062 C 17.152344 5.015625 17.148438 4.71875 17.148438 4.71875 C 17.148438 4.71875 17.273438 4.417969 17.203125 4.003906 C 17.132812 3.589844 16.757812 3.597656 16.757812 3.597656 C 16.757812 3.597656 16.5625 3.65625 16.523438 3.597656 C 16.480469 3.539062 16.554688 3.519531 16.605469 3.515625 C 16.660156 3.507812 16.6875 3.40625 16.605469 3.3125 C 16.527344 3.222656 15.855469 3.238281 15.769531 3.242188 C 15.6875 3.246094 15.632812 3.367188 15.59375 3.398438 C 15.554688 3.433594 15.15625 3.710938 15.09375 3.984375 C 15.03125 4.253906 15.144531 4.816406 15.152344 4.839844 C 15.164062 4.859375 15.769531 5.125 15.769531 5.125 Z M 15.769531 5.125 " fill-opacity="1" fill-rule="nonzero"/><path fill="#55a2ff" d="M 17.164062 4.28125 C 17.164062 4.425781 17.136719 4.554688 17.082031 4.65625 C 17.027344 4.761719 16.960938 4.8125 16.886719 4.8125 C 16.808594 4.8125 16.742188 4.761719 16.6875 4.65625 C 16.632812 4.554688 16.605469 4.425781 16.605469 4.28125 C 16.605469 4.132812 16.632812 4.007812 16.6875 3.902344 C 16.742188 3.796875 16.808594 3.746094 16.886719 3.746094 C 16.960938 3.746094 17.027344 3.796875 17.082031 3.902344 C 17.136719 4.007812 17.164062 4.132812 17.164062 4.28125 Z M 17.164062 4.28125 " fill-opacity="1" fill-rule="nonzero"/><path fill="#ffbba2" d="M 16.40625 7.296875 C 16.40625 7.296875 16.699219 7.472656 16.984375 7.457031 C 17.273438 7.4375 17.367188 7.253906 17.367188 7.253906 L 17.113281 6.234375 C 17.113281 6.234375 17.097656 6.183594 17.144531 6.152344 C 17.195312 6.117188 17.273438 6.089844 17.371094 5.71875 C 17.46875 5.347656 17.5 5.222656 17.464844 5.179688 C 17.429688 5.132812 17.363281 5.03125 17.367188 4.964844 C 17.371094 4.898438 17.386719 4.734375 17.269531 4.710938 C 17.148438 4.683594 16.820312 4.75 16.714844 4.765625 C 16.609375 4.785156 16.546875 4.808594 16.582031 4.863281 C 16.613281 4.917969 16.722656 5.011719 16.675781 5.03125 C 16.628906 5.050781 16.523438 5.132812 16.523438 5.132812 L 16.035156 5.121094 C 16.035156 5.121094 16.039062 5.589844 16.152344 5.753906 C 16.265625 5.914062 16.378906 6.09375 16.386719 6.15625 C 16.398438 6.222656 16.40625 7.296875 16.40625 7.296875 Z M 16.40625 7.296875 " fill-opacity="1" fill-rule="nonzero"/><path fill="#ffbba2" d="M 13.46875 7.203125 C 13.46875 7.203125 13.585938 7.464844 13.855469 7.578125 C 14.121094 7.695312 14.410156 7.691406 14.410156 7.691406 C 14.410156 7.691406 14.957031 6.320312 15.117188 6.082031 C 15.277344 5.847656 15.550781 5.648438 15.640625 5.449219 C 15.730469 5.25 15.789062 5.09375 15.886719 5.039062 C 15.984375 4.984375 16.230469 4.90625 16.199219 4.84375 C 16.171875 4.78125 16.183594 4.730469 15.984375 4.714844 C 15.78125 4.695312 15.679688 4.730469 15.699219 4.71875 C 15.71875 4.703125 15.832031 4.582031 15.949219 4.617188 C 16.066406 4.65625 16.105469 4.710938 16.164062 4.648438 C 16.226562 4.589844 16.292969 4.398438 16.21875 4.34375 C 16.148438 4.289062 16.117188 4.28125 16.128906 4.210938 C 16.140625 4.140625 16.222656 3.890625 16.0625 3.800781 C 15.902344 3.714844 15.664062 3.734375 15.625 3.765625 C 15.589844 3.800781 15.273438 4.09375 15.238281 4.078125 C 15.199219 4.066406 15.636719 3.628906 15.6875 3.644531 C 15.738281 3.664062 15.941406 3.757812 15.9375 3.683594 C 15.929688 3.613281 15.933594 3.4375 15.78125 3.34375 C 15.625 3.253906 15.425781 3.394531 15.367188 3.433594 C 15.308594 3.46875 15.046875 3.632812 15.019531 3.679688 C 14.996094 3.722656 14.515625 5.3125 14.515625 5.3125 C 14.515625 5.3125 14.441406 5.636719 14.324219 5.835938 C 14.203125 6.035156 13.46875 7.203125 13.46875 7.203125 Z M 13.46875 7.203125 " fill-opacity="1" fill-rule="nonzero"/><path fill="#ffbba2" d="M 12.007812 4.050781 C 12.007812 4.050781 11.941406 3.710938 12.136719 3.597656 C 12.332031 3.488281 12.597656 3.316406 12.839844 3.273438 C 13.078125 3.226562 13.484375 3.230469 13.484375 3.230469 C 13.484375 3.230469 13.769531 4.050781 13.671875 4.773438 C 13.570312 5.496094 13.472656 5.71875 13.351562 5.824219 C 13.234375 5.933594 13.007812 6.042969 12.972656 6.128906 C 12.933594 6.214844 12.851562 6.625 12.863281 6.855469 C 12.871094 7.085938 12.929688 7.363281 12.929688 7.363281 C 12.929688 7.363281 12.847656 7.550781 12.628906 7.558594 C 12.410156 7.5625 12.214844 7.375 12.21875 7.285156 C 12.222656 7.199219 12.007812 4.050781 12.007812 4.050781 Z M 12.007812 4.050781 " fill-opacity="1" fill-rule="nonzero"/><path fill="#46294e" d="M 10.742188 5 C 10.742188 5 11.007812 4.550781 11.351562 4.175781 C 11.691406 3.796875 12.035156 3.621094 12.035156 3.621094 C 12.035156 3.621094 12.378906 4.113281 12.226562 4.695312 C 12.074219 5.273438 12.1875 5.683594 12.382812 5.878906 C 12.582031 6.078125 12.871094 6.886719 12.523438 7.191406 C 12.171875 7.496094 12.238281 7.640625 12.445312 7.980469 C 12.648438 8.324219 12.09375 8.542969 11.804688 8.171875 C 11.515625 7.804688 11.488281 7.496094 11.226562 7.390625 C 10.960938 7.285156 10.429688 7.160156 10.183594 6.796875 C 9.941406 6.433594 10.410156 5.964844 10.605469 5.6875 C 10.804688 5.414062 10.742188 5 10.742188 5 Z M 10.742188 5 " fill-opacity="1" fill-rule="nonzero"/><path fill="#46294e" d="M 12.875 6.070312 C 12.375 6.070312 12.121094 5.613281 12.117188 5.605469 C 12.109375 5.589844 12.113281 5.570312 12.132812 5.558594 C 12.148438 5.550781 12.167969 5.558594 12.175781 5.574219 C 12.1875 5.59375 12.457031 6.074219 12.992188 5.992188 C 13.519531 5.910156 13.574219 5.210938 13.625 4.59375 L 13.628906 4.546875 C 13.675781 3.976562 13.496094 3.378906 13.457031 3.261719 C 13.375 3.253906 13.046875 3.226562 12.730469 3.34375 C 12.308594 3.5 11.96875 3.75 11.964844 3.753906 C 11.949219 3.765625 11.925781 3.761719 11.914062 3.746094 C 11.90625 3.730469 11.90625 3.710938 11.921875 3.699219 C 11.925781 3.695312 12.273438 3.441406 12.707031 3.277344 C 13.085938 3.136719 13.472656 3.195312 13.488281 3.195312 C 13.503906 3.199219 13.511719 3.207031 13.515625 3.21875 C 13.519531 3.226562 13.75 3.90625 13.695312 4.550781 L 13.691406 4.601562 C 13.640625 5.242188 13.582031 5.972656 13.003906 6.058594 C 12.957031 6.066406 12.914062 6.070312 12.875 6.070312 Z M 12.875 6.070312 " fill-opacity="1" fill-rule="nonzero"/><path fill="#55a2ff" d="M 9.636719 7.691406 C 10 6.988281 10.738281 7.199219 11.3125 7.558594 C 11.882812 7.914062 12.035156 8.160156 12.140625 8.113281 C 12.246094 8.066406 12.507812 7.894531 12.847656 7.691406 C 13.1875 7.488281 13.433594 7.234375 13.4375 7.230469 C 13.441406 7.226562 13.496094 7.230469 13.53125 7.261719 C 13.5625 7.292969 13.699219 7.566406 13.886719 7.609375 C 14.070312 7.652344 14.398438 7.710938 14.398438 7.710938 C 14.398438 7.710938 14.199219 8.5625 13.9375 8.894531 C 13.675781 9.226562 13.261719 9.78125 12.539062 9.855469 C 11.816406 9.925781 11.292969 9.800781 11.03125 9.671875 C 10.769531 9.546875 10.144531 9.167969 9.847656 8.789062 C 9.550781 8.410156 9.507812 7.941406 9.636719 7.691406 Z M 9.636719 7.691406 " fill-opacity="1" fill-rule="nonzero"/><path fill="#46294e" d="M 12.613281 7.589844 C 12.488281 7.589844 12.347656 7.535156 12.199219 7.421875 C 12.183594 7.410156 12.179688 7.390625 12.191406 7.375 C 12.203125 7.359375 12.226562 7.355469 12.242188 7.367188 C 12.410156 7.496094 12.558594 7.542969 12.6875 7.515625 C 12.808594 7.484375 12.875 7.390625 12.894531 7.359375 C 12.875 7.300781 12.808594 7.074219 12.832031 6.773438 C 12.859375 6.433594 12.964844 6.019531 12.964844 6.015625 C 12.96875 6 12.988281 5.988281 13.003906 5.992188 C 13.023438 5.996094 13.035156 6.015625 13.03125 6.035156 C 13.03125 6.039062 12.925781 6.445312 12.898438 6.777344 C 12.875 7.109375 12.960938 7.347656 12.964844 7.351562 C 12.96875 7.359375 12.964844 7.371094 12.960938 7.378906 C 12.957031 7.382812 12.882812 7.539062 12.703125 7.582031 C 12.671875 7.589844 12.644531 7.589844 12.613281 7.589844 Z M 12.613281 7.589844 " fill-opacity="1" fill-rule="nonzero"/><path fill="#46294e" d="M 14.375 7.726562 C 14.296875 7.726562 14.121094 7.71875 13.90625 7.636719 C 13.613281 7.535156 13.445312 7.234375 13.4375 7.222656 C 13.433594 7.210938 13.433594 7.195312 13.4375 7.1875 C 13.449219 7.171875 14.265625 5.871094 14.355469 5.679688 C 14.40625 5.574219 14.574219 5.003906 14.722656 4.503906 C 14.890625 3.9375 14.957031 3.703125 14.980469 3.675781 C 15.027344 3.605469 15.351562 3.398438 15.480469 3.324219 C 15.636719 3.234375 15.789062 3.3125 15.796875 3.3125 C 15.9375 3.386719 15.972656 3.589844 15.972656 3.683594 C 15.972656 3.710938 15.96875 3.726562 15.964844 3.738281 C 16.035156 3.753906 16.101562 3.773438 16.136719 3.804688 C 16.234375 3.878906 16.179688 4.152344 16.15625 4.253906 C 16.191406 4.273438 16.226562 4.296875 16.246094 4.320312 C 16.324219 4.40625 16.261719 4.582031 16.191406 4.671875 C 16.175781 4.691406 16.164062 4.707031 16.148438 4.714844 C 16.160156 4.722656 16.171875 4.734375 16.183594 4.742188 C 16.210938 4.769531 16.242188 4.8125 16.234375 4.855469 C 16.222656 4.914062 16.15625 4.941406 16.058594 4.988281 C 16.027344 5.003906 15.992188 5.019531 15.949219 5.042969 C 15.832031 5.101562 15.789062 5.203125 15.734375 5.332031 C 15.703125 5.40625 15.664062 5.488281 15.609375 5.578125 C 15.53125 5.691406 15.457031 5.757812 15.386719 5.824219 C 15.308594 5.898438 15.234375 5.964844 15.152344 6.089844 C 15 6.335938 14.449219 7.691406 14.441406 7.703125 C 14.4375 7.71875 14.425781 7.726562 14.414062 7.726562 C 14.410156 7.726562 14.398438 7.726562 14.375 7.726562 Z M 13.507812 7.203125 C 13.546875 7.269531 13.699219 7.492188 13.929688 7.574219 C 14.148438 7.652344 14.328125 7.660156 14.386719 7.660156 C 14.460938 7.480469 14.945312 6.289062 15.097656 6.054688 C 15.179688 5.917969 15.261719 5.847656 15.339844 5.773438 C 15.410156 5.707031 15.480469 5.644531 15.550781 5.539062 C 15.605469 5.457031 15.636719 5.378906 15.671875 5.304688 C 15.730469 5.167969 15.777344 5.054688 15.917969 4.980469 C 15.960938 4.960938 15.996094 4.941406 16.03125 4.925781 C 16.09375 4.894531 16.160156 4.867188 16.164062 4.84375 C 16.167969 4.839844 16.164062 4.824219 16.132812 4.789062 C 16.0625 4.714844 15.796875 4.757812 15.648438 4.800781 C 15.632812 4.804688 15.617188 4.796875 15.609375 4.785156 C 15.601562 4.769531 15.605469 4.753906 15.617188 4.742188 C 15.65625 4.707031 15.867188 4.527344 15.984375 4.59375 C 16.007812 4.609375 16.023438 4.621094 16.039062 4.628906 C 16.105469 4.671875 16.105469 4.671875 16.136719 4.628906 C 16.203125 4.546875 16.238281 4.414062 16.195312 4.367188 C 16.136719 4.304688 15.953125 4.222656 15.847656 4.203125 C 15.785156 4.191406 15.628906 4.335938 15.539062 4.441406 C 15.527344 4.453125 15.503906 4.457031 15.492188 4.445312 C 15.476562 4.429688 15.476562 4.410156 15.488281 4.394531 C 15.527344 4.347656 15.738281 4.113281 15.859375 4.136719 C 15.925781 4.148438 16.015625 4.179688 16.09375 4.21875 C 16.121094 4.082031 16.140625 3.894531 16.09375 3.855469 C 16.023438 3.800781 15.78125 3.785156 15.699219 3.777344 C 15.6875 3.777344 15.675781 3.777344 15.671875 3.777344 C 15.648438 3.789062 15.585938 3.851562 15.535156 3.90625 C 15.34375 4.097656 15.277344 4.152344 15.226562 4.128906 C 15.21875 4.125 15.191406 4.105469 15.207031 4.058594 C 15.230469 3.996094 15.328125 3.875 15.414062 3.785156 C 15.542969 3.65625 15.628906 3.597656 15.679688 3.609375 C 15.726562 3.621094 15.785156 3.644531 15.835938 3.664062 C 15.859375 3.675781 15.882812 3.683594 15.902344 3.691406 C 15.90625 3.621094 15.878906 3.433594 15.765625 3.375 C 15.757812 3.375 15.636719 3.316406 15.511719 3.386719 C 15.359375 3.472656 15.070312 3.664062 15.035156 3.714844 C 15.015625 3.75 14.898438 4.140625 14.789062 4.523438 C 14.640625 5.027344 14.46875 5.597656 14.417969 5.707031 C 14.328125 5.894531 13.609375 7.039062 13.507812 7.203125 Z M 15.921875 4.648438 C 15.886719 4.648438 15.839844 4.667969 15.792969 4.695312 C 15.855469 4.6875 15.925781 4.679688 15.992188 4.679688 C 15.980469 4.671875 15.964844 4.664062 15.953125 4.65625 C 15.941406 4.652344 15.933594 4.648438 15.921875 4.648438 Z M 15.664062 3.675781 C 15.644531 3.675781 15.5625 3.730469 15.445312 3.855469 C 15.375 3.925781 15.324219 3.992188 15.296875 4.035156 C 15.351562 3.988281 15.433594 3.90625 15.484375 3.855469 C 15.613281 3.726562 15.640625 3.703125 15.671875 3.707031 C 15.675781 3.707031 15.6875 3.707031 15.703125 3.710938 C 15.730469 3.710938 15.753906 3.714844 15.777344 3.714844 C 15.738281 3.699219 15.695312 3.683594 15.664062 3.675781 Z M 15.664062 3.675781 " fill-opacity="1" fill-rule="nonzero"/><path fill="#46294e" d="M 16.832031 6.242188 C 16.820312 6.242188 16.804688 6.230469 16.800781 6.21875 C 16.792969 6.199219 16.804688 6.179688 16.820312 6.175781 C 16.828125 6.171875 16.835938 6.171875 16.855469 6.171875 C 16.921875 6.171875 17.125 6.175781 17.214844 6.046875 C 17.339844 5.871094 17.480469 5.273438 17.4375 5.195312 C 17.382812 5.109375 17.148438 4.960938 17.09375 4.945312 C 17.050781 4.933594 16.773438 5.027344 16.667969 5.0625 C 16.632812 5.074219 16.601562 5.085938 16.582031 5.09375 C 16.554688 5.101562 16.554688 5.113281 16.554688 5.121094 C 16.558594 5.152344 16.613281 5.207031 16.699219 5.21875 C 16.796875 5.230469 16.898438 5.203125 16.957031 5.1875 C 16.988281 5.179688 17.007812 5.175781 17.019531 5.175781 C 17.039062 5.175781 17.054688 5.191406 17.054688 5.207031 C 17.054688 5.226562 17.039062 5.242188 17.019531 5.242188 C 17.015625 5.242188 16.992188 5.25 16.976562 5.253906 C 16.910156 5.273438 16.804688 5.300781 16.691406 5.285156 C 16.585938 5.273438 16.496094 5.199219 16.488281 5.125 C 16.484375 5.078125 16.511719 5.042969 16.5625 5.027344 C 16.582031 5.019531 16.613281 5.011719 16.648438 5 C 16.917969 4.90625 17.066406 4.863281 17.117188 4.878906 C 17.179688 4.902344 17.429688 5.054688 17.496094 5.160156 C 17.539062 5.234375 17.488281 5.472656 17.453125 5.605469 C 17.414062 5.765625 17.339844 5.988281 17.269531 6.089844 C 17.160156 6.246094 16.929688 6.242188 16.855469 6.242188 C 16.847656 6.242188 16.84375 6.238281 16.839844 6.242188 C 16.835938 6.242188 16.835938 6.242188 16.832031 6.242188 Z M 16.84375 6.238281 Z M 16.84375 6.238281 " fill-opacity="1" fill-rule="nonzero"/><path fill="#46294e" d="M 17.078125 5.421875 C 17.078125 5.421875 17.074219 5.421875 17.070312 5.417969 C 16.9375 5.375 16.863281 5.265625 16.859375 5.257812 C 16.847656 5.242188 16.851562 5.222656 16.867188 5.210938 C 16.882812 5.203125 16.90625 5.207031 16.914062 5.222656 C 16.917969 5.222656 16.980469 5.320312 17.089844 5.355469 C 17.109375 5.359375 17.117188 5.378906 17.113281 5.398438 C 17.109375 5.410156 17.09375 5.421875 17.078125 5.421875 Z M 17.078125 5.421875 " fill-opacity="1" fill-rule="nonzero"/><path fill="#46294e" d="M 16.796875 5.65625 C 16.777344 5.65625 16.765625 5.640625 16.765625 5.625 C 16.765625 5.453125 16.976562 5.359375 16.984375 5.355469 C 17.003906 5.347656 17.023438 5.355469 17.03125 5.371094 C 17.039062 5.390625 17.03125 5.410156 17.011719 5.417969 C 17.011719 5.417969 16.832031 5.5 16.832031 5.625 C 16.832031 5.640625 16.816406 5.65625 16.796875 5.65625 Z M 16.796875 5.65625 " fill-opacity="1" fill-rule="nonzero"/><path fill="#46294e" d="M 17.367188 5.074219 C 17.363281 5.074219 17.363281 5.074219 17.363281 5.074219 C 17.34375 5.074219 17.332031 5.054688 17.332031 5.035156 C 17.34375 4.953125 17.339844 4.804688 17.296875 4.757812 C 17.289062 4.75 17.28125 4.742188 17.269531 4.742188 C 17.199219 4.742188 17.085938 4.757812 16.972656 4.773438 C 16.863281 4.785156 16.75 4.800781 16.671875 4.804688 C 16.636719 4.804688 16.617188 4.816406 16.617188 4.835938 C 16.613281 4.875 16.667969 4.949219 16.757812 4.964844 C 16.773438 4.96875 16.789062 4.988281 16.785156 5.007812 C 16.78125 5.023438 16.761719 5.039062 16.742188 5.035156 C 16.621094 5.011719 16.539062 4.90625 16.546875 4.828125 C 16.546875 4.808594 16.5625 4.738281 16.667969 4.734375 C 16.746094 4.730469 16.855469 4.71875 16.964844 4.703125 C 17.082031 4.6875 17.195312 4.675781 17.269531 4.675781 C 17.300781 4.675781 17.328125 4.6875 17.351562 4.710938 C 17.425781 4.800781 17.402344 5.019531 17.402344 5.042969 C 17.398438 5.0625 17.382812 5.074219 17.367188 5.074219 Z M 17.367188 5.074219 " fill-opacity="1" fill-rule="nonzero"/><path fill="#46294e" d="M 16.605469 5.539062 C 16.59375 5.539062 16.582031 5.53125 16.578125 5.519531 C 16.519531 5.414062 16.40625 5.230469 16.355469 5.203125 C 16.339844 5.191406 16.335938 5.171875 16.34375 5.15625 C 16.351562 5.140625 16.375 5.132812 16.390625 5.140625 C 16.46875 5.1875 16.609375 5.4375 16.636719 5.488281 C 16.644531 5.503906 16.640625 5.527344 16.625 5.535156 C 16.617188 5.539062 16.613281 5.539062 16.605469 5.539062 Z M 16.605469 5.539062 " fill-opacity="1" fill-rule="nonzero"/><path fill="#46294e" d="M 16.929688 7.492188 C 16.777344 7.492188 16.601562 7.441406 16.40625 7.335938 C 16.402344 7.332031 16.398438 7.332031 16.394531 7.332031 C 16.382812 7.324219 16.375 7.3125 16.375 7.300781 C 16.371094 7.253906 16.335938 6.164062 16.339844 6.078125 C 16.339844 6.039062 16.269531 5.964844 16.214844 5.90625 C 16.183594 5.875 16.15625 5.84375 16.132812 5.816406 C 16.058594 5.722656 16.019531 5.246094 16.011719 5.152344 C 16.007812 5.132812 16.023438 5.117188 16.042969 5.113281 C 16.058594 5.113281 16.078125 5.128906 16.078125 5.144531 C 16.09375 5.359375 16.140625 5.714844 16.1875 5.773438 C 16.207031 5.800781 16.234375 5.828125 16.265625 5.859375 C 16.335938 5.933594 16.410156 6.011719 16.40625 6.082031 C 16.40625 6.15625 16.4375 7.125 16.441406 7.277344 C 16.695312 7.414062 16.875 7.433594 16.984375 7.421875 C 17.199219 7.402344 17.300781 7.285156 17.328125 7.246094 L 17.070312 6.214844 C 17.066406 6.195312 17.078125 6.179688 17.097656 6.171875 C 17.113281 6.167969 17.132812 6.179688 17.136719 6.199219 L 17.398438 7.246094 C 17.402344 7.253906 17.402344 7.261719 17.394531 7.269531 C 17.390625 7.277344 17.28125 7.464844 16.988281 7.492188 C 16.96875 7.492188 16.949219 7.492188 16.929688 7.492188 Z M 16.394531 7.332031 C 16.394531 7.332031 16.398438 7.332031 16.398438 7.332031 C 16.398438 7.332031 16.394531 7.332031 16.394531 7.332031 Z M 16.394531 7.332031 " fill-opacity="1" fill-rule="nonzero"/><path fill="#46294e" d="M 16.625 4.53125 C 16.6875 4.773438 16.894531 4.878906 17.007812 4.679688 C 17.121094 4.480469 17.105469 4.351562 17.09375 4.3125 C 17.058594 4.171875 16.871094 4.175781 16.890625 4.34375 C 16.921875 4.597656 16.800781 4.503906 16.75 4.421875 C 16.699219 4.34375 16.746094 4.152344 16.792969 4.121094 C 16.839844 4.09375 16.757812 3.933594 16.851562 3.957031 C 16.949219 3.980469 17.027344 3.957031 16.941406 3.878906 C 16.875 3.816406 16.792969 3.835938 16.742188 3.882812 C 16.628906 3.988281 16.558594 4.292969 16.625 4.53125 Z M 16.625 4.53125 " fill-opacity="1" fill-rule="nonzero"/><path fill="#ffffff" d="M 17.019531 4.140625 C 17.015625 4.113281 16.992188 4.105469 16.964844 4.074219 C 16.929688 4.035156 16.957031 3.96875 17.011719 4.011719 C 17.09375 4.078125 17.074219 4.1875 17.054688 4.191406 C 17.035156 4.191406 17.023438 4.164062 17.019531 4.140625 Z M 17.019531 4.140625 " fill-opacity="1" fill-rule="nonzero"/><path fill="#46294e" d="M 12.375 8.015625 C 12.363281 8.015625 12.351562 8.011719 12.34375 8 C 12.335938 7.984375 12.339844 7.964844 12.355469 7.953125 C 12.765625 7.675781 13.441406 7.183594 13.449219 7.175781 C 13.464844 7.164062 13.484375 7.167969 13.496094 7.183594 C 13.507812 7.199219 13.503906 7.222656 13.488281 7.230469 C 13.480469 7.238281 12.808594 7.734375 12.394531 8.011719 C 12.386719 8.015625 12.378906 8.015625 12.375 8.015625 Z M 12.375 8.015625 " fill-opacity="1" fill-rule="nonzero"/><path fill="#46294e" d="M 12.113281 9.917969 C 11.726562 9.917969 11.410156 9.84375 11.1875 9.769531 C 10.824219 9.644531 10.621094 9.492188 10.613281 9.484375 C 10.597656 9.472656 10.59375 9.453125 10.605469 9.4375 C 10.617188 9.421875 10.636719 9.417969 10.652344 9.429688 C 10.65625 9.433594 10.859375 9.585938 11.210938 9.707031 C 11.539062 9.816406 12.066406 9.921875 12.71875 9.789062 C 13.371094 9.660156 13.785156 9.097656 14.019531 8.648438 C 14.273438 8.15625 14.375 7.691406 14.375 7.683594 C 14.378906 7.667969 14.398438 7.65625 14.417969 7.660156 C 14.4375 7.664062 14.449219 7.679688 14.445312 7.699219 C 14.441406 7.703125 14.339844 8.179688 14.082031 8.675781 C 13.734375 9.339844 13.269531 9.75 12.734375 9.855469 C 12.511719 9.902344 12.304688 9.917969 12.113281 9.917969 Z M 12.113281 9.917969 " fill-opacity="1" fill-rule="nonzero"/><path fill="#46294e" d="M 14.042969 8.707031 C 14.042969 8.707031 14.410156 9.210938 14.277344 9.953125 C 14.128906 10.773438 14.148438 11.808594 14.238281 11.808594 C 14.328125 11.808594 14.792969 10.542969 14.78125 9.960938 C 14.773438 9.378906 14.738281 8.339844 14.632812 8.054688 C 14.527344 7.769531 14.464844 7.558594 14.464844 7.558594 L 14.128906 8.488281 Z M 14.042969 8.707031 " fill-opacity="1" fill-rule="nonzero"/><path fill="#46294e" d="M 12.777344 4.25 C 12.777344 4.355469 12.738281 4.410156 12.664062 4.410156 C 12.585938 4.410156 12.550781 4.355469 12.550781 4.25 C 12.550781 4.144531 12.585938 4.09375 12.664062 4.09375 C 12.738281 4.09375 12.777344 4.144531 12.777344 4.25 Z M 12.777344 4.25 " fill-opacity="1" fill-rule="nonzero"/><path fill="#46294e" d="M 13.449219 4.230469 C 13.449219 4.335938 13.410156 4.390625 13.335938 4.390625 C 13.257812 4.390625 13.222656 4.335938 13.222656 4.230469 C 13.222656 4.125 13.257812 4.070312 13.335938 4.070312 C 13.410156 4.070312 13.449219 4.125 13.449219 4.230469 Z M 13.449219 4.230469 " fill-opacity="1" fill-rule="nonzero"/><path fill="#46294e" d="M 12.359375 4.003906 C 12.351562 4.003906 12.34375 4 12.335938 3.996094 C 12.320312 3.984375 12.320312 3.960938 12.332031 3.949219 C 12.335938 3.941406 12.460938 3.796875 12.621094 3.78125 C 12.789062 3.765625 12.851562 3.871094 12.855469 3.875 C 12.863281 3.890625 12.859375 3.914062 12.84375 3.921875 C 12.828125 3.933594 12.804688 3.925781 12.796875 3.910156 C 12.792969 3.90625 12.75 3.839844 12.628906 3.847656 C 12.496094 3.859375 12.386719 3.992188 12.382812 3.992188 C 12.378906 4 12.367188 4.003906 12.359375 4.003906 Z M 12.359375 4.003906 " fill-opacity="1" fill-rule="nonzero"/><path fill="#46294e" d="M 13.5625 3.976562 C 13.550781 3.976562 13.539062 3.96875 13.535156 3.957031 C 13.53125 3.953125 13.464844 3.828125 13.335938 3.828125 C 13.246094 3.828125 13.191406 3.929688 13.191406 3.929688 C 13.183594 3.945312 13.164062 3.953125 13.144531 3.945312 C 13.128906 3.933594 13.121094 3.914062 13.132812 3.898438 C 13.132812 3.890625 13.207031 3.761719 13.335938 3.761719 C 13.507812 3.761719 13.589844 3.917969 13.59375 3.925781 C 13.601562 3.941406 13.597656 3.960938 13.578125 3.972656 C 13.574219 3.972656 13.570312 3.976562 13.5625 3.976562 Z M 13.5625 3.976562 " fill-opacity="1" fill-rule="nonzero"/><path fill="#46294e" d="M 13.222656 5.03125 C 13.207031 5.03125 13.191406 5.019531 13.1875 5.003906 C 13.183594 4.984375 13.195312 4.96875 13.214844 4.960938 C 13.28125 4.945312 13.320312 4.917969 13.332031 4.875 C 13.367188 4.746094 13.171875 4.511719 13.089844 4.433594 C 13.078125 4.421875 13.078125 4.398438 13.089844 4.386719 C 13.105469 4.371094 13.125 4.371094 13.140625 4.382812 C 13.171875 4.417969 13.453125 4.703125 13.398438 4.894531 C 13.378906 4.960938 13.324219 5.007812 13.230469 5.03125 C 13.226562 5.03125 13.222656 5.03125 13.222656 5.03125 Z M 13.222656 5.03125 " fill-opacity="1" fill-rule="nonzero"/><path fill="#46294e" d="M 12.996094 5.355469 C 12.996094 5.355469 12.996094 5.355469 12.992188 5.355469 C 12.980469 5.355469 12.710938 5.320312 12.585938 5.214844 C 12.570312 5.203125 12.570312 5.179688 12.582031 5.167969 C 12.59375 5.152344 12.617188 5.148438 12.628906 5.164062 C 12.738281 5.253906 13 5.289062 13 5.289062 C 13.019531 5.289062 13.035156 5.308594 13.03125 5.328125 C 13.027344 5.34375 13.015625 5.355469 12.996094 5.355469 Z M 12.996094 5.355469 " fill-opacity="1" fill-rule="nonzero"/><path fill="#46294e" d="M 14.21875 13.480469 C 14.21875 13.480469 17.382812 14.921875 18.398438 15.878906 C 19.417969 16.839844 19.238281 17.5 19.269531 19.132812 C 19.296875 20.761719 19.148438 22.222656 19.148438 22.222656 C 19.148438 22.222656 18.894531 22.511719 18.449219 22.558594 C 18.003906 22.609375 17.460938 22.558594 17.460938 22.558594 C 17.460938 22.558594 17.078125 19.71875 17.113281 18.84375 C 17.144531 18.105469 17.019531 17.851562 16.746094 17.71875 C 16.472656 17.585938 14.25 16.875 13.183594 16.472656 C 12.113281 16.074219 11.65625 16.101562 11.285156 15.820312 C 10.914062 15.539062 10.394531 15.140625 10.484375 15.050781 C 10.574219 14.960938 11.878906 13.804688 12.441406 13.566406 C 13.003906 13.332031 14.21875 13.480469 14.21875 13.480469 Z M 14.21875 13.480469 " fill-opacity="1" fill-rule="nonzero"/><path fill="#ffffff" d="M 17.460938 22.59375 C 17.441406 22.59375 17.429688 22.582031 17.425781 22.5625 C 17.421875 22.542969 17.179688 20.472656 17.140625 20.035156 C 17.121094 19.820312 17.105469 19.4375 17.089844 19.066406 C 17.074219 18.671875 17.058594 18.296875 17.039062 18.160156 C 17.003906 17.910156 16.855469 17.828125 16.546875 17.675781 C 16.246094 17.527344 14.105469 16.839844 14.082031 16.832031 C 14.066406 16.824219 14.054688 16.804688 14.0625 16.789062 C 14.066406 16.769531 14.085938 16.761719 14.105469 16.765625 C 14.191406 16.792969 16.269531 17.460938 16.578125 17.613281 C 16.871094 17.757812 17.066406 17.855469 17.105469 18.148438 C 17.128906 18.289062 17.140625 18.664062 17.15625 19.0625 C 17.171875 19.433594 17.1875 19.816406 17.207031 20.027344 C 17.25 20.464844 17.492188 22.535156 17.496094 22.554688 C 17.496094 22.574219 17.484375 22.59375 17.464844 22.59375 C 17.464844 22.59375 17.460938 22.59375 17.460938 22.59375 Z M 17.460938 22.59375 " fill-opacity="1" fill-rule="nonzero"/><path fill="#46294e" d="M 18.261719 24.136719 C 18.105469 24.136719 17.96875 24.097656 17.859375 24.023438 C 17.746094 23.945312 17.6875 23.851562 17.65625 23.808594 C 17.652344 23.804688 17.648438 23.796875 17.648438 23.792969 C 17.644531 23.792969 17.644531 23.789062 17.644531 23.789062 C 17.628906 23.773438 17.621094 23.765625 17.644531 23.105469 C 17.652344 22.785156 17.667969 22.464844 17.667969 22.460938 C 17.667969 22.445312 17.675781 22.433594 17.691406 22.429688 C 17.691406 22.425781 17.992188 22.332031 18.289062 22.242188 C 18.914062 22.054688 18.929688 22.074219 18.953125 22.097656 C 18.960938 22.109375 18.964844 22.125 18.957031 22.136719 C 18.941406 22.21875 19.058594 23.179688 19.136719 23.769531 C 19.140625 23.777344 19.136719 23.785156 19.132812 23.792969 C 19.125 23.804688 18.933594 24.070312 18.375 24.128906 C 18.335938 24.132812 18.300781 24.136719 18.261719 24.136719 Z M 17.699219 23.746094 C 17.703125 23.753906 17.710938 23.761719 17.714844 23.773438 C 17.769531 23.855469 17.929688 24.109375 18.367188 24.0625 C 18.832031 24.011719 19.027344 23.808594 19.066406 23.761719 C 19.058594 23.6875 19.011719 23.335938 18.96875 22.980469 C 18.898438 22.40625 18.886719 22.21875 18.886719 22.152344 C 18.757812 22.167969 18.21875 22.328125 17.734375 22.488281 C 17.714844 22.960938 17.691406 23.652344 17.699219 23.746094 Z M 17.667969 23.800781 Z M 17.667969 23.800781 Z M 17.667969 23.800781 Z M 17.664062 23.800781 C 17.664062 23.800781 17.667969 23.800781 17.667969 23.800781 C 17.667969 23.800781 17.664062 23.800781 17.664062 23.800781 Z M 17.699219 23.753906 Z M 18.957031 22.136719 C 18.957031 22.140625 18.957031 22.140625 18.957031 22.140625 C 18.957031 22.140625 18.957031 22.140625 18.957031 22.136719 Z M 18.957031 22.136719 " fill-opacity="1" fill-rule="nonzero"/><path fill="#ffffff" d="M 19.835938 26.21875 C 19.808594 26.21875 19.773438 26.21875 19.730469 26.214844 C 19.40625 26.203125 19.15625 25.980469 18.78125 25.640625 C 18.660156 25.53125 18.523438 25.40625 18.363281 25.273438 C 17.722656 24.730469 16.886719 24.046875 16.878906 24.039062 C 16.863281 24.027344 16.863281 24.007812 16.875 23.992188 C 16.886719 23.976562 16.910156 23.976562 16.921875 23.988281 C 16.929688 23.996094 17.765625 24.679688 18.40625 25.222656 C 18.566406 25.355469 18.707031 25.480469 18.828125 25.589844 C 19.207031 25.929688 19.433594 26.136719 19.734375 26.148438 C 19.914062 26.152344 19.929688 26.144531 19.964844 26.125 C 20.023438 26.097656 20.113281 26.050781 20.589844 25.984375 C 20.605469 25.980469 20.625 25.996094 20.625 26.015625 C 20.628906 26.03125 20.617188 26.050781 20.597656 26.050781 C 20.136719 26.117188 20.046875 26.164062 20 26.1875 C 19.957031 26.207031 19.933594 26.21875 19.835938 26.21875 Z M 19.835938 26.21875 " fill-opacity="1" fill-rule="nonzero"/><path fill="#ffffff" d="M 18.511719 25.835938 C 18.503906 25.835938 18.5 25.835938 18.492188 25.828125 C 18.460938 25.804688 18.410156 25.765625 18.351562 25.71875 C 18.199219 25.597656 17.992188 25.433594 17.824219 25.316406 C 17.792969 25.296875 17.753906 25.269531 17.707031 25.238281 C 17.386719 25.019531 16.785156 24.617188 16.734375 24.351562 C 16.671875 24.046875 17.257812 23.488281 17.285156 23.464844 C 17.296875 23.453125 17.320312 23.453125 17.332031 23.464844 C 17.34375 23.480469 17.34375 23.503906 17.332031 23.515625 C 17.167969 23.667969 16.753906 24.117188 16.800781 24.339844 C 16.847656 24.578125 17.453125 24.984375 17.746094 25.179688 C 17.792969 25.210938 17.832031 25.238281 17.863281 25.261719 C 18.03125 25.378906 18.242188 25.542969 18.394531 25.664062 C 18.453125 25.710938 18.5 25.75 18.535156 25.773438 C 18.550781 25.785156 18.550781 25.808594 18.539062 25.824219 C 18.535156 25.832031 18.523438 25.835938 18.511719 25.835938 Z M 18.511719 25.835938 " fill-opacity="1" fill-rule="nonzero"/><path fill="#46294e" d="M 11.835938 15.792969 L 11.582031 15.835938 C 11.582031 15.835938 10.515625 15.894531 10.394531 16.25 C 10.28125 16.589844 10.386719 25.023438 10.394531 25.753906 L 9.492188 25.570312 L 9.492188 16.96875 C 9.492188 16.96875 9.40625 16.085938 9.90625 15.835938 C 10.40625 15.582031 11.34375 15.503906 11.34375 15.503906 Z M 11.835938 15.792969 " fill-opacity="1" fill-rule="nonzero"/><path fill="#46294e" d="M 11.121094 25.988281 C 11.035156 25.984375 10.953125 25.933594 10.910156 25.855469 C 10.75 25.578125 10.585938 25.246094 10.808594 25.234375 C 11.066406 25.222656 11.566406 25.292969 11.941406 25.167969 C 12.320312 25.042969 12.378906 24.929688 12.4375 25.167969 C 12.496094 25.40625 12.273438 25.792969 12.132812 25.925781 C 12.027344 26.027344 11.40625 26.003906 11.121094 25.988281 Z M 11.121094 25.988281 " fill-opacity="1" fill-rule="nonzero"/><path fill="#46294e" d="M 14.566406 23.851562 C 14.441406 23.945312 13.964844 24.128906 13.980469 24.285156 C 13.992188 24.445312 13.953125 24.800781 14.09375 24.761719 C 14.234375 24.722656 14.453125 24.636719 14.539062 24.425781 C 14.625 24.214844 14.566406 23.851562 14.566406 23.851562 Z M 14.566406 23.851562 " fill-opacity="1" fill-rule="nonzero"/><path fill="#46294e" d="M 9.386719 25.582031 C 9.320312 25.480469 9.222656 24.925781 9.136719 24.910156 C 9.050781 24.898438 8.195312 24.695312 8.140625 24.746094 C 8.089844 24.800781 8.136719 25.167969 8.289062 25.347656 C 8.4375 25.523438 9.386719 25.582031 9.386719 25.582031 Z M 9.386719 25.582031 " fill-opacity="1" fill-rule="nonzero"/><path fill="#46294e" d="M 11.816406 26.304688 C 11.816406 26.472656 11.78125 26.613281 11.707031 26.730469 C 11.636719 26.847656 11.546875 26.90625 11.445312 26.90625 C 11.34375 26.90625 11.257812 26.847656 11.1875 26.730469 C 11.113281 26.613281 11.078125 26.472656 11.078125 26.304688 C 11.078125 26.136719 11.113281 25.996094 11.1875 25.878906 C 11.257812 25.761719 11.34375 25.703125 11.445312 25.703125 C 11.546875 25.703125 11.636719 25.761719 11.707031 25.878906 C 11.78125 25.996094 11.816406 26.136719 11.816406 26.304688 Z M 11.816406 26.304688 " fill-opacity="1" fill-rule="nonzero"/><path fill="#46294e" d="M 12.3125 26.335938 C 12.3125 26.5 12.273438 26.644531 12.203125 26.761719 C 12.132812 26.878906 12.042969 26.9375 11.941406 26.9375 C 11.839844 26.9375 11.753906 26.878906 11.683594 26.761719 C 11.609375 26.644531 11.574219 26.5 11.574219 26.335938 C 11.574219 26.167969 11.609375 26.027344 11.683594 25.910156 C 11.753906 25.789062 11.839844 25.730469 11.941406 25.730469 C 12.042969 25.730469 12.132812 25.789062 12.203125 25.910156 C 12.273438 26.027344 12.3125 26.167969 12.3125 26.335938 Z M 12.3125 26.335938 " fill-opacity="1" fill-rule="nonzero"/><path fill="#46294e" d="M 14.113281 25.054688 C 14.113281 25.214844 14.078125 25.347656 14.011719 25.460938 C 13.941406 25.574219 13.859375 25.628906 13.761719 25.628906 C 13.664062 25.628906 13.582031 25.574219 13.515625 25.460938 C 13.445312 25.347656 13.410156 25.214844 13.410156 25.054688 C 13.410156 24.898438 13.445312 24.761719 13.515625 24.648438 C 13.582031 24.539062 13.664062 24.480469 13.761719 24.480469 C 13.859375 24.480469 13.941406 24.539062 14.011719 24.648438 C 14.078125 24.761719 14.113281 24.898438 14.113281 25.054688 Z M 14.113281 25.054688 " fill-opacity="1" fill-rule="nonzero"/><path fill="#46294e" d="M 14.585938 25.082031 C 14.585938 25.242188 14.550781 25.378906 14.480469 25.488281 C 14.414062 25.601562 14.332031 25.65625 14.234375 25.65625 C 14.136719 25.65625 14.054688 25.601562 13.988281 25.488281 C 13.917969 25.378906 13.882812 25.242188 13.882812 25.082031 C 13.882812 24.925781 13.917969 24.789062 13.988281 24.679688 C 14.054688 24.566406 14.136719 24.511719 14.234375 24.511719 C 14.332031 24.511719 14.414062 24.566406 14.480469 24.679688 C 14.550781 24.789062 14.585938 24.925781 14.585938 25.082031 Z M 14.585938 25.082031 " fill-opacity="1" fill-rule="nonzero"/><path fill="#46294e" d="M 9.101562 25.808594 C 9.101562 25.96875 9.070312 26.101562 9 26.214844 C 8.933594 26.328125 8.847656 26.382812 8.753906 26.382812 C 8.65625 26.382812 8.574219 26.328125 8.503906 26.214844 C 8.4375 26.101562 8.402344 25.96875 8.402344 25.808594 C 8.402344 25.648438 8.4375 25.515625 8.503906 25.402344 C 8.574219 25.289062 8.65625 25.234375 8.753906 25.234375 C 8.847656 25.234375 8.933594 25.289062 9 25.402344 C 9.070312 25.515625 9.101562 25.648438 9.101562 25.808594 Z M 9.101562 25.808594 " fill-opacity="1" fill-rule="nonzero"/><path fill="#46294e" d="M 9.574219 25.835938 C 9.574219 25.996094 9.539062 26.128906 9.472656 26.242188 C 9.402344 26.355469 9.320312 26.410156 9.222656 26.410156 C 9.128906 26.410156 9.046875 26.355469 8.976562 26.242188 C 8.90625 26.128906 8.875 25.996094 8.875 25.835938 C 8.875 25.679688 8.90625 25.542969 8.976562 25.429688 C 9.046875 25.320312 9.128906 25.261719 9.222656 25.261719 C 9.320312 25.261719 9.402344 25.320312 9.472656 25.429688 C 9.539062 25.542969 9.574219 25.679688 9.574219 25.835938 Z M 9.574219 25.835938 " fill-opacity="1" fill-rule="nonzero"/><path fill="#46294e" d="M 11.582031 25.617188 C 11.5625 25.617188 11.546875 25.601562 11.546875 25.582031 L 11.546875 16.988281 C 11.546875 16.582031 11.839844 16.234375 12.242188 16.167969 C 12.863281 16.0625 13.257812 16.027344 13.417969 16.0625 C 13.4375 16.070312 13.449219 16.085938 13.445312 16.105469 C 13.441406 16.125 13.421875 16.136719 13.402344 16.132812 C 13.253906 16.097656 12.855469 16.132812 12.253906 16.234375 C 11.882812 16.296875 11.613281 16.613281 11.613281 16.988281 L 11.613281 25.582031 C 11.613281 25.601562 11.601562 25.617188 11.582031 25.617188 Z M 11.582031 25.617188 " fill-opacity="1" fill-rule="nonzero"/><path fill="#46294e" d="M 8.925781 18.765625 L 8.636719 18.742188 C 8.574219 18.734375 8.527344 18.683594 8.527344 18.621094 L 8.527344 17.472656 C 8.527344 17.402344 8.589844 17.347656 8.660156 17.355469 L 8.945312 17.378906 C 9.007812 17.382812 9.054688 17.4375 9.054688 17.5 L 9.054688 18.644531 C 9.054688 18.714844 8.996094 18.773438 8.925781 18.765625 Z M 8.925781 18.765625 " fill-opacity="1" fill-rule="nonzero"/><path fill="#46294e" d="M 11.058594 18.984375 L 10.773438 18.957031 C 10.710938 18.953125 10.660156 18.898438 10.660156 18.835938 L 10.660156 17.691406 C 10.660156 17.621094 10.722656 17.566406 10.792969 17.570312 L 11.082031 17.597656 C 11.140625 17.601562 11.191406 17.65625 11.191406 17.71875 L 11.191406 18.863281 C 11.191406 18.933594 11.128906 18.988281 11.058594 18.984375 Z M 11.058594 18.984375 " fill-opacity="1" fill-rule="nonzero"/><path fill="#46294e" d="M 8.925781 24.027344 L 8.636719 24.003906 C 8.574219 24 8.527344 23.945312 8.527344 23.882812 L 8.527344 22.738281 C 8.527344 22.667969 8.589844 22.609375 8.660156 22.617188 L 8.945312 22.640625 C 9.007812 22.648438 9.054688 22.699219 9.054688 22.761719 L 9.054688 23.910156 C 9.054688 23.980469 8.996094 24.035156 8.925781 24.027344 Z M 8.925781 24.027344 " fill-opacity="1" fill-rule="nonzero"/><path fill="#46294e" d="M 11.058594 24.367188 L 10.773438 24.339844 C 10.710938 24.335938 10.660156 24.285156 10.660156 24.222656 L 10.660156 23.074219 C 10.660156 23.003906 10.722656 22.949219 10.792969 22.953125 L 11.082031 22.980469 C 11.140625 22.984375 11.191406 23.039062 11.191406 23.101562 L 11.191406 24.246094 C 11.191406 24.316406 11.128906 24.371094 11.058594 24.367188 Z M 11.058594 24.367188 " fill-opacity="1" fill-rule="nonzero"/></svg>