<svg xmlns="http://www.w3.org/2000/svg" xmlns:xlink="http://www.w3.org/1999/xlink" width="40" zoomAndPan="magnify" viewBox="0 0 30 30.000001" height="40" preserveAspectRatio="xMidYMid meet" version="1.0"><defs><clipPath id="d74fb54ff0"><path d="M 1.917969 7 L 14 7 L 14 19 L 1.917969 19 Z M 1.917969 7 " clip-rule="nonzero"/></clipPath><clipPath id="c4a0f77642"><path d="M 1.917969 11 L 7 11 L 7 13 L 1.917969 13 Z M 1.917969 11 " clip-rule="nonzero"/></clipPath><clipPath id="073f042bc7"><path d="M 8.40625 25.523438 L 10.109375 25.523438 L 10.109375 27.226562 L 8.40625 27.226562 Z M 8.40625 25.523438 " clip-rule="nonzero"/></clipPath><clipPath id="9ecc3efca8"><path d="M 22.964844 25.523438 L 24.664062 25.523438 L 24.664062 27.226562 L 22.964844 27.226562 Z M 22.964844 25.523438 " clip-rule="nonzero"/></clipPath><clipPath id="1d246b585c"><path d="M 15.269531 25.523438 L 16.96875 25.523438 L 16.96875 27.226562 L 15.269531 27.226562 Z M 15.269531 25.523438 " clip-rule="nonzero"/></clipPath><clipPath id="649820c7d2"><path d="M 14.550781 7.882812 L 28.042969 7.882812 L 28.042969 25.371094 L 14.550781 25.371094 Z M 14.550781 7.882812 " clip-rule="nonzero"/></clipPath><clipPath id="c3e019fd39"><path d="M 16.953125 25.523438 L 18.65625 25.523438 L 18.65625 27.226562 L 16.953125 27.226562 Z M 16.953125 25.523438 " clip-rule="nonzero"/></clipPath><clipPath id="e64614e6e1"><path d="M 24.613281 25.523438 L 26.316406 25.523438 L 26.316406 27.226562 L 24.613281 27.226562 Z M 24.613281 25.523438 " clip-rule="nonzero"/></clipPath><clipPath id="15957d3a10"><path d="M 19 1.824219 L 24 1.824219 L 24 3 L 19 3 Z M 19 1.824219 " clip-rule="nonzero"/></clipPath></defs><g clip-path="url(#d74fb54ff0)"><path fill="#7e9962" d="M 3.152344 16.574219 C 3 16.382812 2.859375 16.15625 2.734375 15.898438 C 3.269531 16.199219 3.921875 16.457031 4.644531 16.519531 C 5.683594 16.609375 6.902344 16.042969 6.960938 15.6875 C 7 15.445312 6.90625 15.167969 6.019531 15.820312 C 5.066406 16.523438 3.796875 16.136719 3.386719 16.023438 C 3.382812 16.019531 3.378906 16.019531 3.378906 16.019531 C 2.917969 15.890625 2.550781 15.535156 2.402344 15.078125 C 2.359375 14.953125 2.320312 14.820312 2.28125 14.6875 C 2.273438 14.660156 2.269531 14.632812 2.261719 14.605469 C 2.128906 14.113281 2.035156 13.585938 1.976562 13.042969 C 2.472656 13.429688 3.15625 13.789062 3.992188 13.851562 C 5.007812 13.925781 5.496094 13.605469 5.234375 13.367188 C 5.085938 13.230469 4.867188 13.652344 3.382812 13.5 C 3.070312 13.46875 2.785156 13.375 2.535156 13.25 C 2.171875 13.070312 1.941406 12.699219 1.925781 12.292969 C 1.921875 12.226562 1.921875 12.164062 1.921875 12.101562 C 1.921875 12.074219 1.921875 12.046875 1.921875 12.023438 C 1.914062 11.464844 1.957031 10.914062 2.046875 10.394531 C 2.609375 10.96875 3.304688 11.429688 3.804688 11.507812 C 4.175781 11.566406 4.640625 11.542969 4.554688 11.289062 C 4.503906 11.128906 4.03125 11.160156 3.566406 11.125 C 3.308594 11.109375 2.890625 10.824219 2.5625 10.570312 C 2.257812 10.339844 2.128906 9.9375 2.246094 9.574219 C 2.257812 9.542969 2.265625 9.515625 2.277344 9.484375 C 2.285156 9.460938 2.292969 9.4375 2.300781 9.414062 C 2.578125 8.238281 3.140625 7.589844 3.140625 7.589844 C 3.140625 7.589844 3.464844 7.738281 3.734375 7.628906 C 4.125 7.464844 4.332031 7.441406 4.332031 7.441406 C 4.359375 7.433594 4.382812 7.429688 4.410156 7.421875 C 4.4375 7.414062 4.46875 7.40625 4.503906 7.398438 C 5.265625 7.242188 6.03125 7.660156 6.304688 8.390625 C 6.371094 8.570312 6.414062 8.730469 6.402344 8.851562 C 6.367188 9.316406 6.265625 9.777344 6.414062 9.855469 C 6.652344 9.976562 6.742188 9.523438 6.742188 9.144531 C 6.742188 8.621094 6.363281 7.816406 5.855469 7.15625 C 6.335938 7.105469 6.804688 7.09375 7.257812 7.117188 C 7.285156 7.121094 7.3125 7.121094 7.335938 7.125 C 7.339844 7.125 7.34375 7.125 7.347656 7.125 C 7.945312 7.164062 8.464844 7.570312 8.652344 8.140625 C 8.742188 8.414062 8.789062 8.710938 8.773438 9.027344 C 8.699219 10.523438 8.25 10.675781 8.363281 10.84375 C 8.554688 11.140625 8.945312 10.703125 9.027344 9.683594 C 9.105469 8.679688 8.726562 7.832031 8.347656 7.261719 C 8.914062 7.378906 9.453125 7.566406 9.949219 7.820312 C 9.984375 7.835938 10.015625 7.851562 10.046875 7.867188 C 10.171875 7.933594 10.292969 8.003906 10.410156 8.078125 C 10.878906 8.371094 11.191406 8.859375 11.257812 9.40625 C 11.257812 9.410156 11.257812 9.414062 11.257812 9.414062 C 11.3125 9.839844 11.5 11.15625 10.660156 11.996094 C 9.882812 12.773438 10.144531 12.910156 10.386719 12.90625 C 10.746094 12.902344 11.492188 11.78125 11.5625 10.738281 C 11.613281 9.984375 11.4375 9.273438 11.210938 8.683594 C 12.78125 10.085938 13.167969 11.4375 13.121094 12.613281 C 13.117188 12.667969 13.113281 12.722656 13.109375 12.777344 C 13.085938 13.082031 13.035156 13.375 12.96875 13.652344 C 12.953125 13.707031 12.941406 13.761719 12.925781 13.816406 C 12.617188 14.863281 11.839844 15.976562 11.167969 16.378906 C 10.5 16.785156 9.890625 15.964844 9.695312 15.78125 C 9.503906 15.597656 9.085938 14.683594 8.746094 14.921875 C 8.734375 14.929688 8.722656 14.9375 8.714844 14.945312 C 8.691406 14.964844 8.675781 14.988281 8.664062 15.011719 C 8.429688 15.441406 9.855469 16.371094 9.289062 17.617188 C 8.847656 18.589844 8.242188 18.816406 7.941406 18.867188 C 7.878906 18.871094 7.820312 18.875 7.757812 18.878906 C 6.949219 18.921875 6.160156 18.734375 5.441406 18.402344 C 5.410156 18.386719 5.378906 18.371094 5.347656 18.355469 C 4.480469 17.929688 3.71875 17.289062 3.152344 16.574219 " fill-opacity="1" fill-rule="nonzero"/></g><path fill="#396332" d="M 8.308594 14.503906 C 8.308594 14.503906 8.308594 14.5 8.308594 14.5 C 8.269531 14.445312 8.230469 14.390625 8.191406 14.332031 C 8.164062 14.296875 8.140625 14.257812 8.113281 14.222656 C 7.976562 14.027344 7.835938 13.832031 7.699219 13.640625 C 7.683594 13.621094 7.667969 13.597656 7.652344 13.578125 C 7.25 13.019531 6.835938 12.460938 6.417969 11.914062 C 6.402344 11.890625 6.382812 11.871094 6.367188 11.847656 C 5.976562 11.339844 5.578125 10.832031 5.175781 10.332031 C 5.164062 10.320312 5.152344 10.308594 5.144531 10.296875 C 5.121094 10.265625 5.097656 10.238281 5.074219 10.207031 C 4.699219 9.75 4.320312 9.296875 3.929688 8.851562 C 3.898438 8.816406 3.957031 8.761719 3.984375 8.796875 C 4.316406 9.171875 4.636719 9.550781 4.953125 9.933594 C 4.972656 9.957031 4.992188 9.984375 5.015625 10.007812 C 5.480469 10.578125 5.9375 11.15625 6.382812 11.742188 C 6.398438 11.765625 6.414062 11.785156 6.429688 11.804688 C 6.613281 12.046875 6.796875 12.289062 6.980469 12.53125 C 7.234375 12.875 7.488281 13.21875 7.738281 13.566406 C 7.753906 13.585938 7.769531 13.605469 7.78125 13.628906 C 7.980469 13.898438 8.171875 14.171875 8.367188 14.445312 C 8.386719 14.476562 8.410156 14.507812 8.433594 14.539062 C 8.527344 14.675781 8.621094 14.8125 8.714844 14.945312 C 8.691406 14.964844 8.675781 14.988281 8.664062 15.011719 C 8.546875 14.839844 8.429688 14.671875 8.308594 14.503906 " fill-opacity="1" fill-rule="nonzero"/><g clip-path="url(#c4a0f77642)"><path fill="#396332" d="M 1.921875 12.101562 C 3.398438 12.421875 4.972656 12.371094 6.417969 11.914062 C 6.425781 11.910156 6.433594 11.910156 6.441406 11.90625 C 6.488281 11.890625 6.464844 11.816406 6.417969 11.832031 C 6.402344 11.835938 6.382812 11.84375 6.367188 11.847656 C 5.96875 11.972656 5.558594 12.066406 5.144531 12.128906 C 4.078125 12.289062 2.976562 12.257812 1.921875 12.023438 C 1.921875 12.046875 1.921875 12.074219 1.921875 12.101562 " fill-opacity="1" fill-rule="nonzero"/></g><path fill="#396332" d="M 2.28125 14.6875 C 3.097656 14.84375 3.929688 14.886719 4.75 14.757812 C 5.800781 14.597656 6.785156 14.175781 7.699219 13.640625 C 7.707031 13.636719 7.71875 13.628906 7.726562 13.625 C 7.726562 13.625 7.726562 13.625 7.730469 13.625 C 7.753906 13.609375 7.75 13.582031 7.734375 13.566406 C 7.726562 13.554688 7.707031 13.546875 7.6875 13.558594 C 7.675781 13.566406 7.664062 13.570312 7.652344 13.578125 C 7.105469 13.898438 6.535156 14.179688 5.9375 14.382812 C 5.050781 14.6875 4.121094 14.8125 3.1875 14.738281 C 2.875 14.710938 2.566406 14.664062 2.261719 14.605469 C 2.269531 14.632812 2.273438 14.660156 2.28125 14.6875 " fill-opacity="1" fill-rule="nonzero"/><path fill="#396332" d="M 5.347656 18.355469 C 5.378906 18.371094 5.410156 18.386719 5.441406 18.402344 C 5.558594 18.347656 5.671875 18.289062 5.78125 18.226562 C 7.195312 17.433594 8.195312 15.976562 8.191406 14.332031 C 8.191406 14.292969 8.191406 14.25 8.191406 14.210938 C 8.1875 14.160156 8.109375 14.164062 8.113281 14.214844 C 8.113281 14.214844 8.113281 14.21875 8.113281 14.222656 C 8.125 14.667969 8.066406 15.109375 7.9375 15.535156 C 7.542969 16.828125 6.542969 17.800781 5.347656 18.355469 " fill-opacity="1" fill-rule="nonzero"/><path fill="#396332" d="M 6.402344 11.824219 C 6.414062 11.816406 6.421875 11.8125 6.429688 11.804688 C 6.785156 11.546875 7.074219 11.214844 7.28125 10.832031 C 7.90625 9.671875 7.796875 8.320312 7.335938 7.125 C 7.3125 7.121094 7.285156 7.121094 7.257812 7.117188 C 7.304688 7.238281 7.347656 7.355469 7.386719 7.476562 C 7.859375 8.929688 7.710938 10.785156 6.382812 11.742188 C 6.375 11.75 6.371094 11.753906 6.363281 11.757812 C 6.320312 11.789062 6.363281 11.851562 6.402344 11.824219 " fill-opacity="1" fill-rule="nonzero"/><path fill="#396332" d="M 7.726562 13.625 C 7.742188 13.636719 7.765625 13.644531 7.78125 13.628906 C 7.785156 13.628906 7.785156 13.628906 7.785156 13.625 C 8.269531 13.164062 8.730469 12.671875 9.128906 12.128906 C 9.757812 11.269531 10.222656 10.261719 10.242188 9.179688 C 10.253906 8.734375 10.1875 8.285156 10.046875 7.867188 C 10.015625 7.851562 9.984375 7.835938 9.949219 7.820312 C 9.972656 7.882812 9.996094 7.945312 10.015625 8.011719 C 10.300781 8.96875 10.167969 10 9.765625 10.898438 C 9.304688 11.929688 8.542969 12.789062 7.738281 13.566406 C 7.738281 13.566406 7.738281 13.566406 7.734375 13.566406 C 7.734375 13.570312 7.730469 13.574219 7.726562 13.574219 C 7.710938 13.589844 7.714844 13.609375 7.726562 13.625 " fill-opacity="1" fill-rule="nonzero"/><path fill="#396332" d="M 8.332031 14.515625 C 8.363281 14.523438 8.398438 14.53125 8.433594 14.539062 C 8.851562 14.636719 9.28125 14.671875 9.710938 14.648438 C 10.550781 14.605469 11.398438 14.351562 12.09375 13.871094 C 12.511719 13.578125 12.855469 13.207031 13.109375 12.777344 C 13.113281 12.722656 13.117188 12.667969 13.121094 12.613281 C 13.03125 12.78125 12.925781 12.945312 12.804688 13.097656 C 11.792969 14.390625 9.914062 14.828125 8.367188 14.445312 C 8.359375 14.445312 8.351562 14.441406 8.347656 14.441406 C 8.308594 14.433594 8.292969 14.476562 8.308594 14.5 C 8.308594 14.5 8.308594 14.503906 8.308594 14.503906 C 8.316406 14.507812 8.320312 14.515625 8.332031 14.515625 " fill-opacity="1" fill-rule="nonzero"/><path fill="#396332" d="M 5.015625 10.007812 C 5.015625 10.003906 5.015625 10 5.019531 10 C 5.128906 9.550781 5 9.085938 4.871094 8.660156 C 4.746094 8.234375 4.585938 7.824219 4.410156 7.421875 C 4.382812 7.429688 4.359375 7.433594 4.332031 7.441406 C 4.5 7.816406 4.648438 8.199219 4.769531 8.589844 C 4.902344 9.015625 5.046875 9.488281 4.953125 9.933594 C 4.949219 9.949219 4.945312 9.964844 4.941406 9.984375 C 4.929688 10.027344 4.996094 10.042969 5.015625 10.007812 " fill-opacity="1" fill-rule="nonzero"/><path fill="#396332" d="M 2.277344 9.484375 C 3.140625 9.988281 4.152344 10.15625 5.136719 10.296875 C 5.136719 10.296875 5.140625 10.296875 5.144531 10.296875 C 5.183594 10.292969 5.195312 10.226562 5.152344 10.21875 C 5.125 10.214844 5.097656 10.210938 5.074219 10.207031 C 4.117188 10.070312 3.136719 9.90625 2.300781 9.414062 C 2.292969 9.4375 2.285156 9.460938 2.277344 9.484375 " fill-opacity="1" fill-rule="nonzero"/><g clip-path="url(#073f042bc7)"><path fill="#522839" d="M 8.410156 26.382812 C 8.410156 26.847656 8.789062 27.226562 9.253906 27.226562 C 9.71875 27.226562 10.09375 26.847656 10.09375 26.382812 C 10.09375 25.917969 9.71875 25.539062 9.253906 25.539062 C 8.789062 25.539062 8.410156 25.917969 8.410156 26.382812 " fill-opacity="1" fill-rule="nonzero"/></g><path fill="#e6c8b8" d="M 8.042969 25.363281 L 8.042969 26.171875 C 8.042969 26.171875 8.925781 26.667969 9.152344 26.742188 C 9.378906 26.816406 9.738281 26.5625 9.546875 26.199219 C 9.359375 25.835938 9.316406 25.664062 9.316406 25.664062 L 9.316406 25.363281 L 8.042969 25.363281 " fill-opacity="1" fill-rule="nonzero"/><path fill="#522839" d="M 9.128906 26.382812 C 9.128906 26.453125 9.183594 26.507812 9.253906 26.507812 C 9.320312 26.507812 9.378906 26.453125 9.378906 26.382812 C 9.378906 26.3125 9.320312 26.257812 9.253906 26.257812 C 9.183594 26.257812 9.128906 26.3125 9.128906 26.382812 " fill-opacity="1" fill-rule="nonzero"/><path fill="#f07f67" d="M 8.089844 25.363281 C 7.332031 25.363281 6.859375 24.523438 6.859375 23.386719 C 6.859375 22.246094 6.859375 12.304688 6.859375 11.671875 C 6.859375 11.039062 7.519531 10.402344 8.246094 10.402344 C 8.972656 10.402344 16.921875 10.402344 16.921875 10.402344 L 16.921875 25.363281 C 16.921875 25.363281 8.847656 25.363281 8.089844 25.363281 " fill-opacity="1" fill-rule="nonzero"/><path fill="#bd4a3a" d="M 7.324219 17.269531 C 7.324219 19.253906 7.324219 21.234375 7.324219 23.21875 C 7.324219 23.269531 7.402344 23.269531 7.402344 23.21875 C 7.402344 21.234375 7.402344 19.253906 7.402344 17.269531 C 7.402344 17.21875 7.324219 17.21875 7.324219 17.269531 " fill-opacity="1" fill-rule="nonzero"/><path fill="#bd4a3a" d="M 7.402344 11.859375 C 7.441406 11.515625 7.707031 11.253906 8.011719 11.125 C 8.355469 10.980469 8.738281 10.984375 9.105469 10.984375 C 9.152344 10.984375 9.152344 10.90625 9.105469 10.90625 C 8.699219 10.90625 8.265625 10.90625 7.894531 11.097656 C 7.597656 11.25 7.363281 11.519531 7.324219 11.859375 C 7.320312 11.910156 7.394531 11.90625 7.402344 11.859375 " fill-opacity="1" fill-rule="nonzero"/><path fill="#bd4a3a" d="M 10.320312 10.984375 C 11.480469 10.984375 12.644531 10.984375 13.808594 10.984375 C 13.859375 10.984375 13.859375 10.90625 13.808594 10.90625 C 12.644531 10.90625 11.480469 10.90625 10.320312 10.90625 C 10.269531 10.90625 10.269531 10.984375 10.320312 10.984375 " fill-opacity="1" fill-rule="nonzero"/><path fill="#874e35" d="M 9.191406 11.136719 C 9.464844 10.53125 10.109375 10.292969 10.6875 10.089844 C 10.734375 10.070312 10.714844 9.996094 10.667969 10.011719 C 10.070312 10.222656 9.40625 10.476562 9.125 11.097656 C 9.105469 11.140625 9.171875 11.179688 9.191406 11.136719 " fill-opacity="1" fill-rule="nonzero"/><path fill="#522839" d="M 8.296875 10.402344 C 8.296875 10.402344 8.339844 10.203125 8.40625 10.203125 C 8.46875 10.203125 9.410156 10.203125 9.492188 10.203125 C 9.570312 10.203125 9.714844 10.351562 9.714844 10.402344 L 8.296875 10.402344 " fill-opacity="1" fill-rule="nonzero"/><path fill="#e6c8b8" d="M 10.375 10.402344 L 10.769531 10.402344 L 10.769531 6.714844 L 10.375 6.714844 L 10.375 10.402344 " fill-opacity="1" fill-rule="nonzero"/><path fill="#e6c8b8" d="M 13.984375 10.402344 L 14.378906 10.402344 L 14.378906 6.714844 L 13.984375 6.714844 L 13.984375 10.402344 " fill-opacity="1" fill-rule="nonzero"/><path fill="#522839" d="M 14.378906 6.648438 C 14.378906 6.210938 14.023438 5.855469 13.589844 5.855469 L 11.167969 5.855469 C 10.730469 5.855469 10.375 6.210938 10.375 6.648438 L 10.375 6.714844 L 10.863281 6.714844 C 11.023438 6.792969 11.234375 6.851562 11.382812 6.820312 C 11.554688 6.785156 11.742188 6.691406 11.890625 6.78125 C 11.925781 6.800781 11.949219 6.828125 11.980469 6.847656 C 12.230469 7.003906 12.546875 6.652344 12.824219 6.738281 C 12.96875 6.78125 13.082031 6.890625 13.230469 6.890625 C 13.457031 6.890625 13.714844 6.792969 13.878906 6.714844 L 14.378906 6.714844 L 14.378906 6.648438 " fill-opacity="1" fill-rule="nonzero"/><path fill="#bd4a3a" d="M 8.570312 14.335938 L 14.84375 14.335938 L 14.84375 12.449219 L 8.570312 12.449219 C 8.050781 12.449219 7.628906 12.871094 7.628906 13.394531 C 7.628906 13.914062 8.050781 14.335938 8.570312 14.335938 " fill-opacity="1" fill-rule="nonzero"/><path fill="#bd4a3a" d="M 8.570312 18.269531 L 14.84375 18.269531 L 14.84375 16.382812 L 8.570312 16.382812 C 8.050781 16.382812 7.628906 16.804688 7.628906 17.324219 C 7.628906 17.847656 8.050781 18.269531 8.570312 18.269531 " fill-opacity="1" fill-rule="nonzero"/><path fill="#bd4a3a" d="M 8.570312 22.203125 L 14.84375 22.203125 L 14.84375 20.316406 L 8.570312 20.316406 C 8.050781 20.316406 7.628906 20.738281 7.628906 21.257812 C 7.628906 21.78125 8.050781 22.203125 8.570312 22.203125 " fill-opacity="1" fill-rule="nonzero"/><path fill="#ffd2b8" d="M 9.121094 11.214844 C 9.058594 11.214844 9.007812 11.164062 9.007812 11.101562 C 9.007812 11.039062 9.058594 10.988281 9.121094 10.988281 C 9.183594 10.988281 9.234375 11.039062 9.234375 11.101562 C 9.234375 11.164062 9.183594 11.214844 9.121094 11.214844 Z M 9.515625 11.097656 C 9.515625 11.042969 9.519531 10.988281 9.527344 10.933594 L 8.941406 10.703125 C 8.78125 10.941406 8.53125 11.117188 8.242188 11.183594 L 7.566406 12.929688 C 7.546875 12.984375 7.574219 13.042969 7.625 13.0625 L 8.914062 13.5625 C 8.964844 13.585938 9.023438 13.558594 9.046875 13.503906 L 9.722656 11.757812 C 9.59375 11.570312 9.515625 11.34375 9.515625 11.097656 " fill-opacity="1" fill-rule="nonzero"/><path fill="#874e35" d="M 10.640625 10.535156 C 10.203125 10.839844 9.546875 10.699219 9.191406 11.144531 C 9.160156 11.179688 9.105469 11.125 9.136719 11.089844 C 9.375 10.792969 9.753906 10.742188 10.101562 10.664062 C 10.320312 10.613281 10.535156 10.546875 10.699219 10.390625 C 10.765625 10.328125 10.910156 10.183594 10.875 10.078125 C 10.863281 10.035156 10.820312 10.019531 10.769531 10.019531 L 10.769531 9.945312 C 10.855469 9.949219 10.933594 9.976562 10.953125 10.066406 C 10.988281 10.25 10.773438 10.445312 10.640625 10.535156 " fill-opacity="1" fill-rule="nonzero"/><path fill="#874e35" d="M 8.441406 11.746094 C 8.703125 11.847656 8.964844 11.949219 9.226562 12.050781 C 9.273438 12.070312 9.292969 11.996094 9.25 11.976562 C 8.984375 11.875 8.722656 11.773438 8.460938 11.671875 C 8.414062 11.65625 8.394531 11.730469 8.441406 11.746094 " fill-opacity="1" fill-rule="nonzero"/><path fill="#874e35" d="M 8.289062 12.101562 C 8.550781 12.203125 8.8125 12.304688 9.074219 12.40625 C 9.121094 12.425781 9.140625 12.351562 9.09375 12.332031 C 8.832031 12.230469 8.570312 12.128906 8.308594 12.027344 C 8.261719 12.011719 8.242188 12.085938 8.289062 12.101562 " fill-opacity="1" fill-rule="nonzero"/><path fill="#874e35" d="M 8.109375 12.484375 C 8.371094 12.585938 8.636719 12.6875 8.898438 12.789062 C 8.945312 12.804688 8.964844 12.730469 8.917969 12.714844 C 8.65625 12.613281 8.394531 12.511719 8.128906 12.410156 C 8.085938 12.390625 8.0625 12.46875 8.109375 12.484375 " fill-opacity="1" fill-rule="nonzero"/><path fill="#bd4a3a" d="M 9.902344 25.363281 L 8.089844 25.363281 C 7.695312 25.363281 7.378906 25.136719 7.167969 24.761719 L 9.199219 24.761719 C 9.628906 24.761719 9.902344 25.035156 9.902344 25.363281 " fill-opacity="1" fill-rule="nonzero"/><path fill="#f7b69a" d="M 12.519531 19.21875 L 11.070312 19.507812 C 11.015625 19.519531 10.960938 19.484375 10.949219 19.429688 L 10.363281 16.484375 C 10.351562 16.429688 10.386719 16.375 10.445312 16.363281 L 11.890625 16.074219 C 11.945312 16.0625 12 16.097656 12.011719 16.15625 L 12.597656 19.097656 C 12.609375 19.15625 12.574219 19.207031 12.519531 19.21875 " fill-opacity="1" fill-rule="nonzero"/><path fill="#f7b69a" d="M 12.378906 19.121094 L 11.164062 19.367188 C 11.109375 19.375 11.054688 19.339844 11.042969 19.285156 L 10.503906 16.582031 C 10.492188 16.527344 10.527344 16.472656 10.585938 16.460938 L 11.796875 16.21875 C 11.855469 16.207031 11.910156 16.242188 11.917969 16.296875 L 12.457031 19 C 12.46875 19.058594 12.433594 19.113281 12.378906 19.121094 " fill-opacity="1" fill-rule="nonzero"/><path fill="#dc5f44" d="M 12.378906 19.121094 L 12.035156 19.191406 L 11.457031 16.285156 L 11.796875 16.21875 C 11.855469 16.207031 11.910156 16.242188 11.917969 16.296875 L 12.457031 19 C 12.46875 19.058594 12.433594 19.113281 12.378906 19.121094 " fill-opacity="1" fill-rule="nonzero"/><path fill="#75b8bd" d="M 11.488281 19.300781 L 11.164062 19.367188 C 11.109375 19.375 11.054688 19.339844 11.042969 19.285156 L 10.503906 16.582031 C 10.492188 16.527344 10.527344 16.472656 10.585938 16.460938 L 10.910156 16.394531 L 11.488281 19.300781 " fill-opacity="1" fill-rule="nonzero"/><path fill="#ffffff" d="M 11.464844 19.097656 L 11.242188 19.152344 L 11.25 18.9375 C 11.320312 18.992188 11.394531 19.042969 11.464844 19.097656 " fill-opacity="1" fill-rule="nonzero"/><path fill="#ffffff" d="M 11.261719 18.851562 C 11.335938 18.792969 11.410156 18.734375 11.488281 18.675781 C 11.464844 18.789062 11.460938 18.914062 11.460938 19 C 11.394531 18.949219 11.328125 18.902344 11.261719 18.851562 " fill-opacity="1" fill-rule="nonzero"/><path fill="#ffffff" d="M 11.273438 18.335938 C 11.359375 18.402344 11.445312 18.464844 11.535156 18.523438 C 11.53125 18.535156 11.523438 18.542969 11.519531 18.554688 C 11.433594 18.621094 11.34375 18.6875 11.257812 18.757812 L 11.273438 18.335938 " fill-opacity="1" fill-rule="nonzero"/><path fill="#ffffff" d="M 11.527344 18.1875 C 11.550781 18.277344 11.570312 18.363281 11.589844 18.453125 C 11.585938 18.457031 11.582031 18.457031 11.578125 18.460938 C 11.476562 18.394531 11.378906 18.320312 11.28125 18.246094 L 11.527344 18.1875 " fill-opacity="1" fill-rule="nonzero"/><path fill="#ffffff" d="M 11.859375 18.117188 C 11.808594 18.226562 11.757812 18.335938 11.699219 18.441406 C 11.6875 18.4375 11.675781 18.433594 11.664062 18.433594 C 11.644531 18.34375 11.625 18.257812 11.601562 18.171875 L 11.859375 18.113281 L 11.859375 18.117188 " fill-opacity="1" fill-rule="nonzero"/><path fill="#ffffff" d="M 12.0625 18.515625 C 11.96875 18.515625 11.875 18.507812 11.777344 18.496094 C 11.773438 18.492188 11.769531 18.488281 11.765625 18.484375 C 11.8125 18.390625 11.859375 18.296875 11.902344 18.203125 L 12.0625 18.515625 " fill-opacity="1" fill-rule="nonzero"/><path fill="#ffffff" d="M 12.105469 18.59375 C 12.070312 18.683594 12.03125 18.773438 11.996094 18.863281 C 11.960938 18.78125 11.90625 18.671875 11.847656 18.582031 C 11.933594 18.589844 12.019531 18.59375 12.105469 18.59375 " fill-opacity="1" fill-rule="nonzero"/><path fill="#ffffff" d="M 12.261719 18.902344 L 12.035156 18.964844 C 12.074219 18.871094 12.113281 18.777344 12.152344 18.683594 L 12.261719 18.902344 " fill-opacity="1" fill-rule="nonzero"/><path fill="#ffffff" d="M 11.300781 16.667969 C 11.269531 16.691406 11.238281 16.714844 11.210938 16.738281 L 11.203125 16.570312 C 11.199219 16.539062 11.246094 16.527344 11.257812 16.558594 L 11.300781 16.667969 " fill-opacity="1" fill-rule="nonzero"/><path fill="#ffffff" d="M 11.390625 16.910156 C 11.332031 16.890625 11.273438 16.871094 11.214844 16.847656 L 11.214844 16.832031 C 11.25 16.800781 11.289062 16.773438 11.328125 16.742188 L 11.390625 16.910156 " fill-opacity="1" fill-rule="nonzero"/><path fill="#ffffff" d="M 11.425781 17 C 11.359375 17.015625 11.292969 17.03125 11.222656 17.046875 L 11.21875 16.929688 C 11.289062 16.957031 11.359375 16.976562 11.425781 17 " fill-opacity="1" fill-rule="nonzero"/><path fill="#ffffff" d="M 11.457031 17.074219 C 11.382812 17.148438 11.308594 17.222656 11.234375 17.292969 L 11.226562 17.125 C 11.304688 17.109375 11.378906 17.089844 11.457031 17.074219 " fill-opacity="1" fill-rule="nonzero"/><path fill="#ffffff" d="M 11.597656 17.4375 C 11.476562 17.417969 11.359375 17.402344 11.242188 17.394531 C 11.324219 17.3125 11.40625 17.234375 11.484375 17.152344 L 11.597656 17.4375 " fill-opacity="1" fill-rule="nonzero"/><path fill="#ffffff" d="M 11.628906 17.523438 C 11.5 17.550781 11.375 17.578125 11.25 17.605469 L 11.242188 17.472656 C 11.371094 17.480469 11.5 17.496094 11.628906 17.523438 " fill-opacity="1" fill-rule="nonzero"/><path fill="#ffffff" d="M 11.371094 17.886719 C 11.378906 17.972656 11.382812 18.0625 11.386719 18.140625 C 11.351562 18.152344 11.3125 18.160156 11.273438 18.167969 L 11.261719 17.914062 C 11.300781 17.90625 11.335938 17.898438 11.371094 17.886719 " fill-opacity="1" fill-rule="nonzero"/><path fill="#ffffff" d="M 11.707031 17.722656 C 11.558594 17.765625 11.410156 17.800781 11.257812 17.835938 L 11.253906 17.683594 C 11.386719 17.65625 11.523438 17.625 11.65625 17.59375 L 11.707031 17.722656 " fill-opacity="1" fill-rule="nonzero"/><path fill="#ffffff" d="M 11.828125 18.042969 C 11.796875 18.050781 11.765625 18.058594 11.734375 18.066406 C 11.699219 17.984375 11.660156 17.90625 11.621094 17.828125 C 11.65625 17.816406 11.695312 17.808594 11.730469 17.796875 C 11.730469 17.796875 11.734375 17.796875 11.734375 17.796875 L 11.828125 18.042969 " fill-opacity="1" fill-rule="nonzero"/><g clip-path="url(#9ecc3efca8)"><path fill="#7a392c" d="M 24.65625 26.382812 C 24.65625 26.847656 24.28125 27.226562 23.816406 27.226562 C 23.351562 27.226562 22.972656 26.847656 22.972656 26.382812 C 22.972656 25.917969 23.351562 25.539062 23.816406 25.539062 C 24.28125 25.539062 24.65625 25.917969 24.65625 26.382812 " fill-opacity="1" fill-rule="nonzero"/></g><path fill="#bf9780" d="M 25.023438 25.363281 L 25.023438 26.171875 C 25.023438 26.171875 24.140625 26.667969 23.914062 26.742188 C 23.6875 26.816406 23.332031 26.5625 23.519531 26.199219 C 23.710938 25.835938 23.75 25.664062 23.75 25.664062 L 23.75 25.363281 L 25.023438 25.363281 " fill-opacity="1" fill-rule="nonzero"/><path fill="#e6c8b8" d="M 23.941406 26.382812 C 23.941406 26.453125 23.882812 26.507812 23.816406 26.507812 C 23.746094 26.507812 23.691406 26.453125 23.691406 26.382812 C 23.691406 26.3125 23.746094 26.257812 23.816406 26.257812 C 23.882812 26.257812 23.941406 26.3125 23.941406 26.382812 " fill-opacity="1" fill-rule="nonzero"/><g clip-path="url(#1d246b585c)"><path fill="#7a392c" d="M 16.960938 26.382812 C 16.960938 26.847656 16.582031 27.226562 16.117188 27.226562 C 15.652344 27.226562 15.277344 26.847656 15.277344 26.382812 C 15.277344 25.917969 15.652344 25.539062 16.117188 25.539062 C 16.582031 25.539062 16.960938 25.917969 16.960938 26.382812 " fill-opacity="1" fill-rule="nonzero"/></g><path fill="#bf9780" d="M 17.324219 25.363281 L 17.324219 26.171875 C 17.324219 26.171875 16.441406 26.667969 16.21875 26.742188 C 15.992188 26.816406 15.632812 26.5625 15.824219 26.199219 C 16.011719 25.835938 16.054688 25.664062 16.054688 25.664062 L 16.054688 25.363281 L 17.324219 25.363281 " fill-opacity="1" fill-rule="nonzero"/><path fill="#e6c8b8" d="M 16.242188 26.382812 C 16.242188 26.453125 16.1875 26.507812 16.117188 26.507812 C 16.050781 26.507812 15.992188 26.453125 15.992188 26.382812 C 15.992188 26.3125 16.050781 26.257812 16.117188 26.257812 C 16.1875 26.257812 16.242188 26.3125 16.242188 26.382812 " fill-opacity="1" fill-rule="nonzero"/><g clip-path="url(#649820c7d2)"><path fill="#b6dbde" d="M 26.609375 7.894531 L 15.996094 7.894531 C 15.996094 7.894531 14.5625 8.195312 14.5625 10.058594 C 14.5625 11.925781 14.5625 22.5 14.5625 23.242188 C 14.5625 23.988281 15.160156 25.363281 15.917969 25.363281 C 16.5 25.363281 26.105469 25.363281 26.6875 25.363281 C 27.445312 25.363281 28.042969 23.988281 28.042969 23.242188 C 28.042969 22.5 28.042969 11.925781 28.042969 10.058594 C 28.042969 8.195312 26.609375 7.894531 26.609375 7.894531 " fill-opacity="1" fill-rule="nonzero"/></g><g clip-path="url(#c3e019fd39)"><path fill="#7a392c" d="M 18.640625 26.382812 C 18.640625 26.847656 18.261719 27.226562 17.796875 27.226562 C 17.332031 27.226562 16.957031 26.847656 16.957031 26.382812 C 16.957031 25.917969 17.332031 25.539062 17.796875 25.539062 C 18.261719 25.539062 18.640625 25.917969 18.640625 26.382812 " fill-opacity="1" fill-rule="nonzero"/></g><path fill="#bf9780" d="M 19.007812 25.363281 L 19.007812 26.171875 C 19.007812 26.171875 18.121094 26.667969 17.898438 26.742188 C 17.671875 26.816406 17.3125 26.5625 17.503906 26.199219 C 17.691406 25.835938 17.734375 25.664062 17.734375 25.664062 L 17.734375 25.363281 L 19.007812 25.363281 " fill-opacity="1" fill-rule="nonzero"/><path fill="#e6c8b8" d="M 17.921875 26.382812 C 17.921875 26.453125 17.867188 26.507812 17.796875 26.507812 C 17.730469 26.507812 17.671875 26.453125 17.671875 26.382812 C 17.671875 26.3125 17.730469 26.257812 17.796875 26.257812 C 17.867188 26.257812 17.921875 26.3125 17.921875 26.382812 " fill-opacity="1" fill-rule="nonzero"/><g clip-path="url(#e64614e6e1)"><path fill="#7a392c" d="M 26.304688 26.382812 C 26.304688 26.847656 25.929688 27.226562 25.464844 27.226562 C 25 27.226562 24.621094 26.847656 24.621094 26.382812 C 24.621094 25.917969 25 25.539062 25.464844 25.539062 C 25.929688 25.539062 26.304688 25.917969 26.304688 26.382812 " fill-opacity="1" fill-rule="nonzero"/></g><path fill="#bf9780" d="M 26.671875 25.363281 L 26.671875 26.171875 C 26.671875 26.171875 25.789062 26.667969 25.5625 26.742188 C 25.335938 26.816406 24.980469 26.5625 25.167969 26.199219 C 25.359375 25.835938 25.398438 25.664062 25.398438 25.664062 L 25.398438 25.363281 L 26.671875 25.363281 " fill-opacity="1" fill-rule="nonzero"/><path fill="#e6c8b8" d="M 25.589844 26.382812 C 25.589844 26.453125 25.53125 26.507812 25.464844 26.507812 C 25.394531 26.507812 25.339844 26.453125 25.339844 26.382812 C 25.339844 26.3125 25.394531 26.257812 25.464844 26.257812 C 25.53125 26.257812 25.589844 26.3125 25.589844 26.382812 " fill-opacity="1" fill-rule="nonzero"/><path fill="#874e35" d="M 17.007812 7.894531 C 17.007812 7.894531 17.074219 7.695312 17.226562 7.695312 C 17.285156 7.695312 18.046875 7.695312 18.125 7.695312 C 18.199219 7.695312 18.335938 7.839844 18.335938 7.894531 L 17.007812 7.894531 " fill-opacity="1" fill-rule="nonzero"/><path fill="#874e35" d="M 24.339844 7.894531 C 24.339844 7.894531 24.410156 7.695312 24.558594 7.695312 C 24.621094 7.695312 25.382812 7.695312 25.460938 7.695312 C 25.535156 7.695312 25.671875 7.839844 25.671875 7.894531 L 24.339844 7.894531 " fill-opacity="1" fill-rule="nonzero"/><path fill="#874e35" d="M 18.4375 9.207031 C 18.441406 8.546875 18.933594 8.0625 19.378906 7.636719 C 19.417969 7.605469 19.367188 7.542969 19.332031 7.578125 C 18.871094 8.015625 18.367188 8.515625 18.363281 9.199219 C 18.363281 9.246094 18.4375 9.257812 18.4375 9.207031 " fill-opacity="1" fill-rule="nonzero"/><path fill="#e6c8b8" d="M 19.160156 7.894531 L 19.554688 7.894531 L 19.554688 2.6875 L 19.160156 2.6875 L 19.160156 7.894531 " fill-opacity="1" fill-rule="nonzero"/><path fill="#e6c8b8" d="M 22.769531 7.894531 L 23.164062 7.894531 L 23.164062 2.6875 L 22.769531 2.6875 L 22.769531 7.894531 " fill-opacity="1" fill-rule="nonzero"/><g clip-path="url(#15957d3a10)"><path fill="#7a392c" d="M 23.164062 2.617188 C 23.164062 2.179688 22.808594 1.824219 22.371094 1.824219 L 19.949219 1.824219 C 19.515625 1.824219 19.160156 2.179688 19.160156 2.617188 L 19.160156 2.6875 L 19.636719 2.6875 C 19.796875 2.765625 20.011719 2.828125 20.167969 2.796875 C 20.339844 2.761719 20.527344 2.667969 20.675781 2.757812 C 20.707031 2.777344 20.734375 2.804688 20.765625 2.824219 C 21.015625 2.976562 21.328125 2.625 21.609375 2.714844 C 21.75 2.757812 21.917969 2.839844 22.066406 2.867188 C 22.152344 2.882812 22.480469 2.765625 22.667969 2.6875 L 23.164062 2.6875 L 23.164062 2.617188 " fill-opacity="1" fill-rule="nonzero"/></g><path fill="#75b8bd" d="M 21.875 7.894531 C 21.875 7.894531 22.964844 8.304688 22.964844 9.734375 C 22.964844 11.167969 22.964844 23.179688 22.964844 23.640625 C 22.964844 24.097656 22.648438 25.363281 21.578125 25.363281 L 22.535156 25.363281 C 22.535156 25.363281 23.582031 25.214844 23.582031 23.644531 C 23.582031 23.644531 23.582031 10.570312 23.582031 9.734375 C 23.582031 8.898438 23.160156 7.894531 22.445312 7.894531 L 21.875 7.894531 " fill-opacity="1" fill-rule="nonzero"/><path fill="#75b8bd" d="M 19.222656 7.894531 C 19.222656 7.894531 20.308594 8.304688 20.308594 9.734375 C 20.308594 11.167969 20.308594 23.179688 20.308594 23.640625 C 20.308594 24.097656 19.996094 25.363281 18.921875 25.363281 L 19.878906 25.363281 C 19.878906 25.363281 20.925781 25.214844 20.925781 23.644531 C 20.925781 23.644531 20.925781 10.570312 20.925781 9.734375 C 20.925781 8.898438 20.503906 7.894531 19.789062 7.894531 L 19.222656 7.894531 " fill-opacity="1" fill-rule="nonzero"/><path fill="#75b8bd" d="M 24.636719 7.894531 C 24.636719 7.894531 25.726562 8.304688 25.726562 9.734375 C 25.726562 11.167969 25.726562 23.179688 25.726562 23.640625 C 25.726562 24.097656 25.410156 25.363281 24.335938 25.363281 L 25.296875 25.363281 C 25.296875 25.363281 26.339844 25.214844 26.339844 23.644531 C 26.339844 23.644531 26.339844 10.570312 26.339844 9.734375 C 26.339844 8.898438 25.921875 7.894531 25.203125 7.894531 L 24.636719 7.894531 " fill-opacity="1" fill-rule="nonzero"/><path fill="#af7147" d="M 16.507812 23.242188 L 16.507812 10.058594 C 16.507812 8.195312 17.941406 7.894531 17.941406 7.894531 L 17.015625 7.894531 C 16.871094 7.953125 16.679688 8.054688 16.488281 8.21875 C 16.273438 8.40625 16.101562 8.632812 15.976562 8.902344 C 15.824219 9.234375 15.746094 9.621094 15.746094 10.058594 L 15.746094 23.242188 C 15.746094 23.890625 16.195312 25.054688 16.847656 25.363281 L 17.863281 25.363281 C 17.105469 25.363281 16.507812 23.988281 16.507812 23.242188 " fill-opacity="1" fill-rule="nonzero"/><path fill="#874e35" d="M 16.179688 23.242188 L 16.179688 10.058594 C 16.179688 8.195312 17.613281 7.894531 17.613281 7.894531 L 17.371094 7.894531 C 17.230469 7.953125 17.039062 8.054688 16.847656 8.21875 C 16.628906 8.40625 16.457031 8.632812 16.332031 8.902344 C 16.179688 9.234375 16.101562 9.621094 16.101562 10.058594 L 16.101562 23.242188 C 16.101562 23.890625 16.550781 25.054688 17.207031 25.363281 L 17.535156 25.363281 C 16.777344 25.363281 16.179688 23.988281 16.179688 23.242188 " fill-opacity="1" fill-rule="nonzero"/><path fill="#ffd2b8" d="M 24.277344 12.976562 L 21.566406 14.023438 C 21.511719 14.042969 21.453125 14.015625 21.433594 13.964844 L 20.660156 11.957031 C 20.640625 11.902344 20.667969 11.84375 20.71875 11.824219 L 23.433594 10.777344 C 23.488281 10.757812 23.546875 10.78125 23.566406 10.835938 L 24.335938 12.84375 C 24.359375 12.898438 24.332031 12.957031 24.277344 12.976562 " fill-opacity="1" fill-rule="nonzero"/><path fill="#e2b540" d="M 22.5 13.023438 C 22.15625 13.023438 21.875 12.746094 21.875 12.398438 C 21.875 12.054688 22.15625 11.773438 22.5 11.773438 C 22.84375 11.773438 23.125 12.054688 23.125 12.398438 C 23.125 12.746094 22.84375 13.023438 22.5 13.023438 Z M 22.5 11.46875 C 21.988281 11.46875 21.574219 11.886719 21.574219 12.398438 C 21.574219 12.914062 21.988281 13.328125 22.5 13.328125 C 23.011719 13.328125 23.425781 12.914062 23.425781 12.398438 C 23.425781 11.886719 23.011719 11.46875 22.5 11.46875 " fill-opacity="1" fill-rule="nonzero"/><path fill="#75b8bd" d="M 23.632812 12.265625 L 21.570312 13.0625 L 21.367188 12.535156 L 23.429688 11.738281 L 23.632812 12.265625 " fill-opacity="1" fill-rule="nonzero"/><path fill="#874e35" d="M 17.183594 22.613281 C 17.035156 22.613281 16.914062 22.492188 16.914062 22.34375 L 16.914062 21.09375 C 16.914062 20.945312 17.035156 20.824219 17.183594 20.824219 C 17.328125 20.824219 17.449219 20.945312 17.449219 21.09375 L 17.449219 22.34375 C 17.449219 22.492188 17.328125 22.613281 17.183594 22.613281 " fill-opacity="1" fill-rule="nonzero"/><path fill="#874e35" d="M 15.277344 22.613281 C 15.128906 22.613281 15.007812 22.492188 15.007812 22.34375 L 15.007812 21.09375 C 15.007812 20.945312 15.128906 20.824219 15.277344 20.824219 C 15.421875 20.824219 15.542969 20.945312 15.542969 21.09375 L 15.542969 22.34375 C 15.542969 22.492188 15.421875 22.613281 15.277344 22.613281 " fill-opacity="1" fill-rule="nonzero"/><path fill="#874e35" d="M 17.183594 12.414062 C 17.035156 12.414062 16.914062 12.292969 16.914062 12.144531 L 16.914062 10.894531 C 16.914062 10.746094 17.035156 10.625 17.183594 10.625 C 17.328125 10.625 17.449219 10.746094 17.449219 10.894531 L 17.449219 12.144531 C 17.449219 12.292969 17.328125 12.414062 17.183594 12.414062 " fill-opacity="1" fill-rule="nonzero"/><path fill="#874e35" d="M 15.277344 12.414062 C 15.128906 12.414062 15.007812 12.292969 15.007812 12.144531 L 15.007812 10.894531 C 15.007812 10.746094 15.128906 10.625 15.277344 10.625 C 15.421875 10.625 15.542969 10.746094 15.542969 10.894531 L 15.542969 12.144531 C 15.542969 12.292969 15.421875 12.414062 15.277344 12.414062 " fill-opacity="1" fill-rule="nonzero"/><path fill="#ffdac5" d="M 18.503906 9.296875 C 18.445312 9.351562 18.355469 9.332031 18.320312 9.261719 C 18.300781 9.214844 18.3125 9.164062 18.351562 9.128906 C 18.40625 9.078125 18.496094 9.097656 18.527344 9.167969 C 18.550781 9.210938 18.539062 9.265625 18.503906 9.296875 Z M 18.292969 8.898438 C 18 9.023438 17.863281 9.359375 17.988281 9.652344 L 18.605469 11.105469 C 18.625 11.160156 18.6875 11.183594 18.738281 11.160156 L 19.605469 10.792969 C 19.65625 10.769531 19.683594 10.710938 19.660156 10.65625 L 19.042969 9.203125 C 19.03125 9.171875 19.015625 9.140625 18.996094 9.113281 C 18.847656 8.882812 18.550781 8.789062 18.292969 8.898438 " fill-opacity="1" fill-rule="nonzero"/><path fill="#874e35" d="M 19.519531 8.066406 C 19.242188 8.523438 18.585938 8.664062 18.441406 9.214844 C 18.429688 9.261719 18.359375 9.234375 18.371094 9.1875 C 18.464844 8.820312 18.792969 8.617188 19.078125 8.40625 C 19.257812 8.269531 19.425781 8.121094 19.515625 7.910156 C 19.546875 7.828125 19.617188 7.648438 19.554688 7.5625 L 19.554688 7.464844 C 19.574219 7.472656 19.59375 7.488281 19.613281 7.511719 C 19.722656 7.664062 19.601562 7.929688 19.519531 8.066406 " fill-opacity="1" fill-rule="nonzero"/><path fill="#ffd2b8" d="M 21 17.632812 C 21 18.5625 20.25 19.316406 19.320312 19.316406 C 18.394531 19.316406 17.640625 18.5625 17.640625 17.632812 C 17.640625 16.703125 18.394531 15.949219 19.320312 15.949219 C 20.25 15.949219 21 16.703125 21 17.632812 " fill-opacity="1" fill-rule="nonzero"/><path fill="#ffd2b8" d="M 20.84375 17.632812 C 20.84375 18.472656 20.160156 19.15625 19.320312 19.15625 C 18.480469 19.15625 17.800781 18.472656 17.800781 17.632812 C 17.800781 16.789062 18.480469 16.105469 19.320312 16.105469 C 20.160156 16.105469 20.84375 16.789062 20.84375 17.632812 " fill-opacity="1" fill-rule="nonzero"/><path fill="#dc5f44" d="M 20.84375 17.632812 C 20.84375 17.730469 20.835938 17.828125 20.816406 17.921875 L 19.515625 16.722656 L 19.796875 16.417969 L 20.820312 17.359375 C 20.820312 17.359375 20.820312 17.359375 20.820312 17.363281 C 20.835938 17.449219 20.84375 17.539062 20.84375 17.632812 " fill-opacity="1" fill-rule="nonzero"/><path fill="#dc5f44" d="M 20.730469 18.214844 C 20.675781 18.34375 20.601562 18.46875 20.515625 18.578125 L 18.914062 17.101562 L 19.195312 16.796875 L 20.730469 18.214844 " fill-opacity="1" fill-rule="nonzero"/><path fill="#75b8bd" d="M 19.984375 16.257812 L 19.078125 17.246094 L 18.285156 16.515625 C 18.554688 16.261719 18.921875 16.105469 19.320312 16.105469 C 19.558594 16.105469 19.785156 16.160156 19.984375 16.257812 " fill-opacity="1" fill-rule="nonzero"/><path fill="#dc5f44" d="M 20.328125 18.777344 C 20.21875 18.871094 20.101562 18.949219 19.96875 19.011719 L 17.894531 17.097656 C 17.945312 16.960938 18.015625 16.835938 18.097656 16.722656 L 20.328125 18.777344 " fill-opacity="1" fill-rule="nonzero"/><path fill="#dc5f44" d="M 19.667969 19.117188 C 19.554688 19.144531 19.441406 19.15625 19.320312 19.15625 C 19.238281 19.15625 19.160156 19.152344 19.078125 19.136719 L 17.84375 17.996094 C 17.8125 17.878906 17.800781 17.757812 17.800781 17.632812 C 17.800781 17.554688 17.804688 17.480469 17.816406 17.40625 L 19.667969 19.117188 " fill-opacity="1" fill-rule="nonzero"/><path fill="#ffd2b8" d="M 23.363281 21.394531 C 23.363281 22.027344 22.847656 22.542969 22.214844 22.542969 C 21.582031 22.542969 21.066406 22.027344 21.066406 21.394531 C 21.066406 20.757812 21.582031 20.242188 22.214844 20.242188 C 22.847656 20.242188 23.363281 20.757812 23.363281 21.394531 " fill-opacity="1" fill-rule="nonzero"/><path fill="#75b8bd" d="M 23.226562 21.394531 C 23.226562 21.953125 22.773438 22.40625 22.214844 22.40625 C 21.660156 22.40625 21.207031 21.953125 21.207031 21.394531 C 21.207031 20.835938 21.660156 20.382812 22.214844 20.382812 C 22.773438 20.382812 23.226562 20.835938 23.226562 21.394531 " fill-opacity="1" fill-rule="nonzero"/><path fill="#874334" d="M 21.972656 21.765625 C 21.886719 21.847656 21.820312 21.707031 21.734375 21.707031 C 21.652344 21.703125 21.59375 21.90625 21.507812 21.875 C 21.453125 21.855469 21.355469 21.808594 21.261719 21.726562 C 21.226562 21.621094 21.207031 21.511719 21.207031 21.394531 C 21.207031 21.144531 21.296875 20.914062 21.449219 20.734375 C 21.472656 20.832031 21.523438 20.929688 21.636719 20.972656 C 21.882812 21.066406 22.023438 20.988281 22.085938 21.144531 C 22.148438 21.304688 22.097656 21.292969 22.148438 21.367188 C 22.199219 21.441406 22.058594 21.679688 21.972656 21.765625 " fill-opacity="1" fill-rule="nonzero"/><path fill="#874334" d="M 23.183594 21.675781 C 23.09375 22 22.84375 22.253906 22.527344 22.355469 C 22.53125 22.269531 22.539062 22.160156 22.566406 22.09375 C 22.617188 21.980469 22.738281 22.007812 22.738281 21.964844 C 22.738281 21.820312 22.785156 21.714844 22.953125 21.664062 C 23.042969 21.640625 23.125 21.65625 23.183594 21.675781 " fill-opacity="1" fill-rule="nonzero"/><path fill="#874334" d="M 22.308594 22.402344 C 22.277344 22.40625 22.246094 22.40625 22.214844 22.40625 C 21.960938 22.40625 21.726562 22.308594 21.546875 22.152344 C 21.558594 22.148438 21.566406 22.144531 21.578125 22.140625 C 21.71875 22.097656 21.785156 22.171875 21.847656 22.238281 C 21.910156 22.304688 21.941406 22.230469 22.066406 22.238281 C 22.148438 22.242188 22.25 22.335938 22.308594 22.402344 " fill-opacity="1" fill-rule="nonzero"/><path fill="#874334" d="M 23.226562 21.394531 C 23.226562 21.46875 23.21875 21.539062 23.203125 21.609375 C 23.105469 21.617188 23.058594 21.398438 23.027344 21.289062 C 22.984375 21.152344 22.898438 21.21875 22.625 21.117188 C 22.394531 21.03125 22.386719 20.6875 22.441406 20.40625 C 22.890625 20.511719 23.226562 20.914062 23.226562 21.394531 " fill-opacity="1" fill-rule="nonzero"/><path fill="#874e35" d="M 18.300781 9.820312 C 18.515625 9.730469 18.726562 9.640625 18.941406 9.550781 C 18.988281 9.53125 18.964844 9.457031 18.917969 9.476562 C 18.703125 9.566406 18.492188 9.65625 18.277344 9.746094 C 18.234375 9.765625 18.257812 9.839844 18.300781 9.820312 " fill-opacity="1" fill-rule="nonzero"/><path fill="#874e35" d="M 18.453125 10.175781 C 18.664062 10.085938 18.878906 9.996094 19.089844 9.90625 C 19.136719 9.886719 19.113281 9.8125 19.066406 9.832031 C 18.855469 9.921875 18.640625 10.011719 18.429688 10.105469 C 18.382812 10.121094 18.40625 10.195312 18.453125 10.175781 " fill-opacity="1" fill-rule="nonzero"/><path fill="#874e35" d="M 18.613281 10.5625 C 18.828125 10.472656 19.039062 10.382812 19.253906 10.289062 C 19.296875 10.273438 19.273438 10.199219 19.230469 10.21875 C 19.015625 10.308594 18.804688 10.398438 18.589844 10.488281 C 18.546875 10.507812 18.566406 10.582031 18.613281 10.5625 " fill-opacity="1" fill-rule="nonzero"/></svg>