<svg xmlns="http://www.w3.org/2000/svg" width="40" zoomAndPan="magnify" viewBox="0 0 30 30.000001" height="40"
     preserveAspectRatio="xMidYMid meet" version="1.0"><defs><clipPath id="49de3f8864"><path d="M 3.386719 8.433594 L 7 8.433594 L 7 13 L 3.386719 13 Z M 3.386719 8.433594 " clip-rule="nonzero"/></clipPath><clipPath id="ec90bca7ce"><path d="M 5 8.433594 L 7 8.433594 L 7 13 L 5 13 Z M 5 8.433594 " clip-rule="nonzero"/></clipPath><clipPath id="b122454aae"><path d="M 3.386719 10 L 7 10 L 7 13 L 3.386719 13 Z M 3.386719 10 " clip-rule="nonzero"/></clipPath><clipPath id="fac00af131"><path d="M 3.386719 13 L 8 13 L 8 16 L 3.386719 16 Z M 3.386719 13 " clip-rule="nonzero"/></clipPath><clipPath id="94f5057be3"><path d="M 6.050781 8.710938 L 25.046875 8.710938 L 25.046875 20.773438 L 6.050781 20.773438 Z M 6.050781 8.710938 " clip-rule="nonzero"/></clipPath><clipPath id="6134d943de"><path d="M 22.328125 15.136719 L 26.585938 15.136719 L 26.585938 19.453125 L 22.328125 19.453125 Z M 22.328125 15.136719 " clip-rule="nonzero"/></clipPath><clipPath id="a7d96f05aa"><path d="M 19 8.433594 L 21 8.433594 L 21 10 L 19 10 Z M 19 8.433594 " clip-rule="nonzero"/></clipPath><clipPath id="636c23fd37"><path d="M 8 8.433594 L 12 8.433594 L 12 12 L 8 12 Z M 8 8.433594 " clip-rule="nonzero"/></clipPath></defs><path fill="#a5ad56" d="M 6.921875 15.421875 C 7.289062 15.441406 7.605469 15.347656 7.976562 15.449219 C 8.304688 15.535156 8.621094 15.761719 8.886719 15.976562 C 8.996094 16.066406 9.089844 16.1875 9.214844 16.25 C 9.242188 16.238281 9.300781 16.179688 9.316406 16.160156 C 8.800781 15.78125 8.175781 15.230469 7.503906 15.230469 C 7.339844 15.230469 7.183594 15.285156 7.019531 15.285156 L 6.921875 15.421875 " fill-opacity="1" fill-rule="nonzero"/><path fill="#a5ad56" d="M 7.824219 12.371094 C 7.914062 12.519531 7.886719 12.738281 7.929688 12.902344 C 8 13.179688 8.109375 13.476562 8.246094 13.726562 C 8.578125 14.324219 8.953125 14.902344 9.453125 15.367188 C 9.585938 15.492188 9.730469 15.589844 9.875 15.703125 C 9.894531 15.695312 9.976562 15.660156 9.996094 15.648438 C 9.59375 15.3125 9.222656 14.921875 8.933594 14.480469 C 8.628906 14.015625 8.3125 13.566406 8.21875 13 C 8.179688 12.773438 8.207031 12.578125 8.253906 12.355469 L 7.824219 12.371094 " fill-opacity="1" fill-rule="nonzero"/><path fill="#a5ad56" d="M 5.949219 12.605469 C 7 13.609375 7.78125 14.992188 9.046875 15.757812 C 9.199219 15.847656 9.429688 16.101562 9.582031 15.882812 C 9.015625 15.707031 8.492188 15.230469 8.113281 14.785156 C 7.738281 14.339844 7.328125 13.914062 6.96875 13.457031 C 6.785156 13.226562 6.65625 12.960938 6.480469 12.730469 L 5.949219 12.605469 " fill-opacity="1" fill-rule="nonzero"/><g clip-path="url(#49de3f8864)"><path fill="#a5ad56" d="M 5.914062 10.027344 C 6.058594 10.21875 6.292969 10.308594 6.394531 10.503906 C 6.507812 10.71875 6.535156 10.933594 6.59375 11.140625 C 6.664062 11.386719 6.996094 11.589844 6.984375 11.792969 C 6.964844 12.058594 6.78125 12.34375 6.609375 12.476562 C 6.441406 12.609375 6.089844 12.859375 5.835938 12.808594 C 5.636719 12.769531 5.425781 12.472656 5.207031 12.339844 C 5.027344 12.230469 4.753906 12.148438 4.578125 11.980469 C 4.417969 11.828125 4.617188 11.335938 4.472656 11.144531 C 4.328125 10.953125 3.945312 10.949219 3.84375 10.753906 C 3.730469 10.535156 3.621094 10.3125 3.5625 10.105469 C 3.492188 9.859375 3.414062 9.59375 3.429688 9.390625 C 3.445312 9.128906 3.558594 8.789062 3.730469 8.660156 C 3.898438 8.527344 4.261719 8.433594 4.519531 8.484375 C 4.714844 8.523438 4.886719 8.816406 5.101562 8.953125 C 5.285156 9.0625 5.34375 9.335938 5.519531 9.503906 C 5.679688 9.65625 5.769531 9.835938 5.914062 10.027344 " fill-opacity="1" fill-rule="nonzero"/></g><g clip-path="url(#ec90bca7ce)"><path fill="#a5ad56" d="M 5.914062 10.027344 C 6.058594 10.21875 6.292969 10.308594 6.394531 10.503906 C 6.507812 10.71875 6.78125 12.34375 6.609375 12.476562 C 6.441406 12.609375 4.886719 8.816406 5.101562 8.953125 C 5.285156 9.0625 5.34375 9.335938 5.519531 9.503906 C 5.679688 9.65625 5.769531 9.835938 5.914062 10.027344 " fill-opacity="1" fill-rule="nonzero"/></g><g clip-path="url(#b122454aae)"><path fill="#b7bf71" d="M 6.609375 12.476562 C 6.441406 12.609375 6.089844 12.859375 5.835938 12.808594 C 5.636719 12.769531 5.425781 12.472656 5.207031 12.339844 C 5.027344 12.230469 4.753906 12.148438 4.578125 11.980469 C 4.417969 11.828125 4.617188 11.335938 4.472656 11.144531 C 4.328125 10.953125 3.945312 10.949219 3.84375 10.753906 C 3.730469 10.535156 3.621094 10.3125 3.5625 10.105469 C 3.492188 9.859375 6.78125 12.34375 6.609375 12.476562 " fill-opacity="1" fill-rule="nonzero"/></g><g clip-path="url(#fac00af131)"><path fill="#a5ad56" d="M 5.703125 13.75 C 5.871094 13.839844 6.074219 13.824219 6.210938 13.933594 C 6.367188 14.050781 6.457031 14.199219 6.566406 14.328125 C 6.699219 14.484375 7.007812 14.515625 7.066406 14.667969 C 7.136719 14.867188 7.097656 15.140625 7.019531 15.292969 C 6.9375 15.445312 6.765625 15.746094 6.566406 15.796875 C 6.410156 15.835938 6.15625 15.695312 5.953125 15.671875 C 5.785156 15.652344 5.5625 15.683594 5.378906 15.625 C 5.210938 15.566406 5.195312 15.140625 5.027344 15.050781 C 4.859375 14.960938 4.578125 15.085938 4.441406 14.980469 C 4.285156 14.859375 4.132812 14.738281 4.023438 14.605469 C 3.890625 14.449219 3.746094 14.285156 3.6875 14.132812 C 3.613281 13.933594 3.585938 13.652344 3.664062 13.496094 C 3.746094 13.34375 3.980469 13.152344 4.183594 13.101562 C 4.339844 13.066406 4.558594 13.222656 4.761719 13.246094 C 4.929688 13.265625 5.058594 13.441406 5.246094 13.503906 C 5.410156 13.558594 5.535156 13.660156 5.703125 13.75 " fill-opacity="1" fill-rule="nonzero"/><path fill="#b7bf71" d="M 5.277344 14.371094 C 5.445312 14.460938 6.179688 15.039062 6.238281 15.191406 C 6.3125 15.386719 7.097656 15.140625 7.019531 15.292969 C 6.9375 15.445312 6.765625 15.746094 6.566406 15.796875 C 6.410156 15.835938 6.15625 15.695312 5.953125 15.671875 C 5.785156 15.652344 5.5625 15.683594 5.378906 15.625 C 5.210938 15.566406 5.195312 15.140625 5.027344 15.050781 C 4.859375 14.960938 4.578125 15.085938 4.441406 14.980469 C 4.285156 14.859375 4.132812 14.738281 4.023438 14.605469 C 3.890625 14.449219 3.746094 14.285156 3.6875 14.132812 C 3.613281 13.933594 3.585938 13.652344 3.664062 13.496094 C 3.746094 13.34375 4.347656 14.242188 4.550781 14.191406 C 4.707031 14.152344 5.109375 14.28125 5.277344 14.371094 " fill-opacity="1" fill-rule="nonzero"/></g><path fill="#a5ad56" d="M 6.65625 11.300781 C 6.734375 11.464844 6.714844 11.652344 6.804688 11.789062 C 6.910156 11.9375 7.042969 12.027344 7.15625 12.136719 C 7.292969 12.265625 7.316406 12.558594 7.453125 12.617188 C 7.632812 12.695312 7.882812 12.667969 8.027344 12.597656 C 8.167969 12.527344 8.453125 12.375 8.503906 12.183594 C 8.542969 12.039062 8.421875 11.796875 8.410156 11.605469 C 8.394531 11.445312 8.4375 11.234375 8.386719 11.058594 C 8.339844 10.902344 7.949219 10.871094 7.875 10.707031 C 7.796875 10.546875 7.921875 10.285156 7.828125 10.152344 C 7.722656 10 7.613281 9.851562 7.5 9.746094 C 7.363281 9.613281 7.214844 9.472656 7.078125 9.414062 C 6.898438 9.335938 6.640625 9.300781 6.496094 9.371094 C 6.351562 9.441406 6.167969 9.652344 6.117188 9.84375 C 6.078125 9.988281 6.210938 10.203125 6.226562 10.394531 C 6.238281 10.554688 6.398438 10.683594 6.449219 10.859375 C 6.492188 11.019531 6.582031 11.140625 6.65625 11.300781 " fill-opacity="1" fill-rule="nonzero"/><path fill="#a5ad56" d="M 6.496094 9.371094 C 6.640625 9.300781 6.898438 9.335938 7.078125 9.414062 C 7.214844 9.472656 7.363281 9.613281 7.5 9.746094 C 7.613281 9.851562 7.722656 10 7.828125 10.152344 C 7.921875 10.285156 7.796875 10.546875 7.875 10.707031 C 7.949219 10.871094 8.339844 10.902344 8.386719 11.058594 C 8.4375 11.234375 8.394531 11.445312 8.410156 11.605469 C 8.421875 11.796875 8.542969 12.039062 8.503906 12.183594 C 8.453125 12.375 8.167969 12.527344 8.027344 12.597656 L 6.464844 9.386719 C 6.476562 9.378906 6.488281 9.375 6.496094 9.371094 " fill-opacity="1" fill-rule="nonzero"/><g clip-path="url(#94f5057be3)"><path fill="#f3e7d0" d="M 25.035156 14.875 C 25.019531 14.070312 24.503906 13.890625 23.910156 13.34375 C 23.441406 12.90625 23.03125 12.425781 22.269531 12.03125 C 21.632812 11.71875 20.925781 11.457031 20.132812 11.152344 C 19.433594 10.890625 18.65625 10.882812 17.867188 10.65625 C 17.132812 10.445312 16.636719 9.152344 15.847656 9 C 14.640625 8.765625 13.332031 8.652344 12.277344 8.796875 C 11.066406 8.957031 10.136719 10.011719 9.242188 10.648438 C 8.449219 11.191406 8.1875 12.066406 7.734375 12.859375 C 7.230469 13.734375 6.050781 14.421875 6.066406 15.292969 C 6.085938 16.203125 6.644531 17.09375 7.179688 17.710938 C 7.660156 18.265625 8.601562 18.402344 9.414062 18.820312 C 10.335938 19.277344 11.296875 20.109375 12.527344 20.414062 C 13.585938 20.679688 14.855469 19.953125 16.058594 20.054688 C 17.273438 20.15625 18.433594 20.964844 19.492188 20.730469 C 20.691406 20.464844 21.90625 20.035156 22.792969 19.410156 C 23.546875 18.886719 23.945312 17.949219 24.394531 17.28125 C 24.945312 16.464844 25.054688 15.628906 25.035156 14.875 " fill-opacity="1" fill-rule="nonzero"/></g><path fill="#b7bf71" d="M 5.171875 15.527344 C 5.519531 15.441406 6.203125 13.996094 6.496094 13.65625 C 6.742188 13.371094 6.816406 13.046875 7.117188 13.042969 C 7.25 13.039062 7.3125 13.269531 7.460938 13.199219 C 7.582031 13.140625 7.625 12.820312 7.75 12.742188 C 7.875 12.660156 8.289062 12.648438 8.433594 12.652344 C 8.707031 12.664062 8.851562 12.785156 9.117188 12.691406 C 9.390625 12.589844 9.535156 12.59375 9.824219 12.628906 C 10.074219 12.660156 10.347656 12.457031 10.585938 12.546875 C 10.941406 12.6875 10.898438 12.992188 11.257812 12.820312 C 11.496094 12.710938 11.777344 12.660156 12.015625 12.523438 C 12.277344 12.378906 12.398438 11.988281 12.6875 12.105469 C 12.894531 12.1875 13.09375 12.566406 13.324219 12.671875 C 13.570312 12.789062 13.828125 12.777344 14.074219 12.878906 C 15.121094 13.304688 16.007812 12.535156 17.003906 12.046875 C 17.375 11.863281 17.613281 11.78125 17.988281 11.921875 C 18.546875 12.132812 18.761719 11.789062 19.285156 11.574219 C 20.039062 11.265625 21.457031 13.242188 21.835938 14.042969 C 21.941406 14.269531 22.917969 15.425781 23.046875 15.613281 L 5.171875 15.527344 " fill-opacity="1" fill-rule="nonzero"/><path fill="#a5ad56" d="M 16.328125 15.613281 C 17.25 15.578125 19.015625 15.027344 19.210938 14.195312 C 20.605469 14.175781 21.289062 13.1875 22.460938 13.160156 C 23.984375 13.128906 25.367188 14.628906 25.355469 15.613281 L 16.328125 15.613281 " fill-opacity="1" fill-rule="nonzero"/><path fill="#805a82" d="M 19.90625 14.460938 C 19.882812 13.835938 19.566406 12.710938 19.375 12.636719 C 18.863281 12.582031 16.976562 11.617188 19.195312 15.386719 C 19.199219 15.414062 19.199219 15.4375 19.203125 15.460938 C 19.417969 16.382812 20.039062 17.335938 20.324219 17.996094 C 20.335938 18.027344 20.785156 17.851562 20.785156 17.851562 C 20.703125 17.59375 19.984375 14.703125 19.90625 14.460938 " fill-opacity="1" fill-rule="nonzero"/><path fill="#43200c" d="M 21.28125 18.589844 C 21.375 18.664062 21.457031 18.636719 21.472656 18.703125 C 21.496094 18.804688 21.253906 18.835938 20.535156 18.578125 C 20.511719 18.515625 20.632812 18.351562 20.632812 18.351562 L 20.800781 18.46875 L 20.90625 18.34375 C 20.90625 18.34375 21.175781 18.503906 21.28125 18.589844 " fill-opacity="1" fill-rule="nonzero"/><path fill="#ffaa90" d="M 20.90625 18.34375 L 20.800781 18.46875 L 20.632812 18.351562 L 20.425781 17.980469 L 20.765625 17.863281 L 20.90625 18.34375 " fill-opacity="1" fill-rule="nonzero"/><path fill="#bccbd3" d="M 15.007812 14.859375 L 14.917969 14.410156 L 17.273438 14.398438 L 17.273438 14.574219 L 15.128906 14.585938 L 15.171875 14.789062 L 16.882812 17.222656 L 16.742188 17.324219 L 15.007812 14.859375 " fill-opacity="1" fill-rule="nonzero"/><g clip-path="url(#6134d943de)"><path fill="#b6a8a0" d="M 25.601562 15.773438 C 25.21875 15.476562 24.726562 15.332031 24.214844 15.402344 C 23.703125 15.476562 23.269531 15.75 22.980469 16.136719 C 22.6875 16.523438 22.546875 17.023438 22.617188 17.542969 C 22.6875 18.0625 22.957031 18.503906 23.335938 18.796875 C 23.71875 19.089844 24.210938 19.238281 24.722656 19.167969 C 25.234375 19.09375 25.667969 18.820312 25.960938 18.433594 C 26.25 18.046875 26.394531 17.546875 26.324219 17.027344 C 26.253906 16.507812 25.980469 16.066406 25.601562 15.773438 Z M 26.566406 16.992188 C 26.722656 18.167969 25.914062 19.25 24.757812 19.414062 C 23.597656 19.574219 22.53125 18.75 22.375 17.578125 C 22.214844 16.402344 23.023438 15.320312 24.183594 15.15625 C 25.339844 14.996094 26.40625 15.820312 26.566406 16.992188 " fill-opacity="1" fill-rule="nonzero"/></g><path fill="#b6a8a0" d="M 17.957031 15.773438 C 17.574219 15.476562 17.085938 15.332031 16.570312 15.402344 C 16.058594 15.476562 15.625 15.75 15.335938 16.136719 C 15.046875 16.523438 14.902344 17.023438 14.972656 17.542969 C 15.042969 18.0625 15.3125 18.503906 15.695312 18.796875 C 16.078125 19.089844 16.566406 19.238281 17.078125 19.167969 C 17.59375 19.09375 18.027344 18.820312 18.316406 18.433594 C 18.605469 18.046875 18.75 17.546875 18.679688 17.027344 C 18.609375 16.507812 18.339844 16.066406 17.957031 15.773438 Z M 18.921875 16.992188 C 19.082031 18.167969 18.269531 19.25 17.113281 19.414062 C 15.957031 19.574219 14.886719 18.75 14.730469 17.578125 C 14.570312 16.402344 15.382812 15.320312 16.539062 15.15625 C 17.695312 14.996094 18.761719 15.820312 18.921875 16.992188 " fill-opacity="1" fill-rule="nonzero"/><path fill="#bccbd3" d="M 22.625 13.234375 L 22.78125 13.160156 L 24.546875 17.25 L 24.390625 17.320312 L 22.625 13.234375 " fill-opacity="1" fill-rule="nonzero"/><path fill="#b6a8a0" d="M 23.011719 12.953125 C 22.417969 12.957031 21.652344 13.101562 21.648438 13.101562 L 21.726562 13.382812 C 21.726562 13.382812 21.773438 13.375 21.855469 13.359375 C 22.089844 13.320312 22.617188 13.242188 23.011719 13.242188 L 23.011719 12.953125 " fill-opacity="1" fill-rule="nonzero"/><path fill="#bccbd3" d="M 16.765625 17.21875 L 18.90625 15.238281 L 18.988281 15.398438 L 16.882812 17.351562 L 16.765625 17.21875 " fill-opacity="1" fill-rule="nonzero"/><path fill="#bccbd3" d="M 16.847656 17.417969 L 16.890625 17.246094 L 19.765625 17.980469 L 23.214844 14.574219 L 23.335938 14.699219 L 19.816406 18.175781 L 16.847656 17.417969 " fill-opacity="1" fill-rule="nonzero"/><path fill="#bccbd3" d="M 18.441406 13.972656 L 18.609375 13.921875 L 19.875 18.050781 L 19.710938 18.101562 L 18.441406 13.972656 " fill-opacity="1" fill-rule="nonzero"/><path fill="#b6a8a0" d="M 24.164062 17.328125 C 24.1875 17.5 24.34375 17.617188 24.511719 17.59375 C 24.679688 17.570312 24.796875 17.414062 24.773438 17.242188 C 24.75 17.070312 24.59375 16.953125 24.425781 16.976562 C 24.257812 17 24.140625 17.15625 24.164062 17.328125 " fill-opacity="1" fill-rule="nonzero"/><path fill="#b6a8a0" d="M 16.519531 17.328125 C 16.542969 17.5 16.699219 17.617188 16.867188 17.59375 C 17.035156 17.570312 17.152344 17.414062 17.128906 17.242188 C 17.105469 17.070312 16.953125 16.953125 16.785156 16.976562 C 16.617188 17 16.5 17.15625 16.519531 17.328125 " fill-opacity="1" fill-rule="nonzero"/><path fill="#b6a8a0" d="M 19.546875 18.078125 C 19.546875 17.941406 19.65625 17.828125 19.792969 17.828125 C 19.925781 17.828125 20.035156 17.941406 20.035156 18.078125 C 20.035156 18.214844 19.925781 18.324219 19.792969 18.324219 C 19.65625 18.324219 19.546875 18.214844 19.546875 18.078125 Z M 19.195312 18.078125 C 19.195312 18.410156 19.464844 18.679688 19.792969 18.679688 C 20.121094 18.679688 20.386719 18.410156 20.386719 18.078125 C 20.386719 17.742188 20.121094 17.472656 19.792969 17.472656 C 19.464844 17.472656 19.195312 17.742188 19.195312 18.078125 " fill-opacity="1" fill-rule="nonzero"/><path fill="#b6a8a0" d="M 19.652344 18.078125 C 19.652344 18.15625 19.714844 18.21875 19.792969 18.21875 C 19.867188 18.21875 19.929688 18.15625 19.929688 18.078125 C 19.929688 18 19.867188 17.933594 19.792969 17.933594 C 19.714844 17.933594 19.652344 18 19.652344 18.078125 " fill-opacity="1" fill-rule="nonzero"/><path fill="#b6a8a0" d="M 19.367188 13.90625 C 19.367188 13.992188 19.316406 14.058594 19.25 14.058594 L 17.691406 14.058594 C 17.625 14.058594 17.574219 13.992188 17.574219 13.90625 C 17.574219 13.824219 17.625 13.753906 17.691406 13.753906 L 19.25 13.753906 C 19.316406 13.753906 19.367188 13.824219 19.367188 13.90625 " fill-opacity="1" fill-rule="nonzero"/><path fill="#8e6c8f" d="M 19.6875 12.945312 C 19.640625 12.910156 19.742188 12.347656 19.589844 12.261719 C 19.0625 11.972656 18.3125 12.082031 18.25 12.175781 C 17.4375 12.746094 18.195312 13.753906 18.195312 13.753906 C 18.195312 13.753906 19.222656 14.328125 20.476562 14.328125 C 21.1875 14.105469 21.773438 14.050781 21.84375 13.832031 C 21.792969 13.507812 20.082031 12.886719 19.6875 12.945312 " fill-opacity="1" fill-rule="nonzero"/><path fill="#8e6c8f" d="M 20.539062 14.019531 C 19.945312 14.75 19.402344 16.054688 19.132812 16.617188 C 19.117188 16.644531 19.671875 17.046875 19.671875 17.046875 C 19.824219 16.820312 21.929688 14.269531 21.84375 13.832031 C 21.820312 13.714844 21.183594 13.367188 20.539062 14.019531 " fill-opacity="1" fill-rule="nonzero"/><path fill="#ffaa90" d="M 19.238281 17 L 19.140625 17.132812 L 18.898438 17 L 19.152344 16.644531 L 19.386719 16.832031 L 19.238281 17 " fill-opacity="1" fill-rule="nonzero"/><path fill="#43200c" d="M 19.625 17.234375 C 19.71875 17.300781 19.800781 17.273438 19.820312 17.335938 C 19.847656 17.4375 19.605469 17.480469 18.878906 17.253906 C 18.851562 17.191406 18.898438 17 18.898438 17 L 19.140625 17.132812 L 19.238281 17 C 19.238281 17 19.511719 17.152344 19.625 17.234375 " fill-opacity="1" fill-rule="nonzero"/><path fill="#b6a8a0" d="M 19.6875 17.476562 C 19.6875 17.5625 19.617188 17.632812 19.53125 17.632812 L 19.148438 17.632812 C 19.0625 17.632812 18.992188 17.5625 18.992188 17.476562 C 18.992188 17.390625 19.0625 17.320312 19.148438 17.320312 L 19.53125 17.320312 C 19.617188 17.320312 19.6875 17.390625 19.6875 17.476562 " fill-opacity="1" fill-rule="nonzero"/><path fill="#b6a8a0" d="M 20.753906 18.585938 C 20.753906 18.671875 20.6875 18.742188 20.601562 18.742188 L 20.214844 18.742188 C 20.128906 18.742188 20.0625 18.671875 20.0625 18.585938 C 20.0625 18.5 20.128906 18.429688 20.214844 18.429688 L 20.601562 18.429688 C 20.6875 18.429688 20.753906 18.5 20.753906 18.585938 " fill-opacity="1" fill-rule="nonzero"/><path fill="#fc8775" d="M 19.339844 10.085938 L 19.933594 10.289062 L 20.027344 9.835938 L 19.425781 9.652344 L 19.339844 10.085938 " fill-opacity="1" fill-rule="nonzero"/><path fill="#ffaa90" d="M 19.5625 9.644531 C 19.570312 9.511719 19.542969 9.296875 19.597656 9.207031 C 19.664062 9.101562 19.792969 9.09375 19.902344 9.09375 C 20.011719 9.09375 20.050781 9.148438 20.089844 9.265625 C 20.097656 9.289062 20.167969 9.390625 20.105469 9.539062 C 20.125 9.628906 20.191406 9.65625 20.203125 9.695312 C 20.210938 9.714844 20.175781 9.734375 20.132812 9.75 C 20.113281 9.757812 20.148438 9.796875 20.140625 9.8125 C 20.035156 9.871094 20.121094 10.054688 20.050781 10.113281 C 20.011719 10.144531 19.617188 9.992188 19.578125 9.960938 C 19.449219 9.851562 19.546875 9.816406 19.5625 9.644531 " fill-opacity="1" fill-rule="nonzero"/><path fill="#ffaa90" d="M 19.5625 9.511719 C 19.429688 9.425781 19.464844 9.671875 19.492188 9.726562 C 19.503906 9.746094 19.542969 9.796875 19.570312 9.800781 L 19.5625 9.511719 " fill-opacity="1" fill-rule="nonzero"/><g clip-path="url(#a7d96f05aa)"><path fill="#43200c" d="M 19.230469 9.625 C 19.332031 9.753906 19.367188 9.953125 19.367188 9.953125 L 19.386719 9.933594 C 19.460938 9.828125 19.46875 9.816406 19.511719 9.753906 C 19.480469 9.703125 19.429688 9.464844 19.5625 9.511719 C 19.59375 9.484375 19.792969 9.324219 19.792969 9.324219 C 19.792969 9.324219 19.585938 9.390625 19.757812 9.210938 C 19.859375 9.191406 20.007812 9.21875 20.085938 9.25 C 20.269531 9.324219 20.433594 8.890625 20.1875 8.90625 C 20 8.917969 19.96875 8.964844 19.804688 8.921875 C 19.164062 8.738281 19.109375 9.347656 19.230469 9.625 " fill-opacity="1" fill-rule="nonzero"/></g><path fill="#43200c" d="M 19.242188 9.160156 C 19.179688 9.289062 19.125 9.480469 19.179688 9.601562 C 19.351562 9.742188 19.367188 9.953125 19.367188 9.953125 L 19.386719 9.933594 C 19.460938 9.828125 19.46875 9.816406 19.511719 9.753906 C 19.480469 9.703125 19.429688 9.464844 19.5625 9.511719 C 19.59375 9.484375 19.792969 9.324219 19.792969 9.324219 C 19.792969 9.324219 19.746094 9.277344 19.757812 9.210938 C 19.644531 9.144531 19.34375 9.054688 19.242188 9.160156 " fill-opacity="1" fill-rule="nonzero"/><path fill="#fe764a" d="M 20.320312 10.84375 C 20.320312 10.84375 20.507812 11.460938 19.800781 12.300781 C 19.667969 12.457031 19.777344 12.878906 19.6875 12.945312 C 19.679688 12.957031 19.367188 13.117188 19.363281 13.128906 C 18.246094 12.691406 17.851562 12.527344 17.753906 12.394531 C 17.683594 12.296875 18.203125 11.632812 18.328125 11.304688 C 18.410156 11.085938 18.824219 10.378906 19.015625 10.222656 C 19.34375 9.949219 19.527344 10.050781 19.914062 10.238281 C 20.097656 10.359375 20.320312 10.84375 20.320312 10.84375 " fill-opacity="1" fill-rule="nonzero"/><path fill="#ffaa90" d="M 22.121094 13.023438 L 21.753906 12.902344 L 20.691406 11.867188 C 20.285156 11.554688 19.945312 10.476562 19.789062 10.410156 C 19.132812 10.132812 19.046875 10.851562 19.125 11.074219 C 19.265625 11.449219 20.175781 12.273438 20.515625 12.34375 C 20.667969 12.664062 21.578125 13.167969 21.578125 13.167969 L 21.847656 13.4375 L 22.042969 13.488281 L 22.207031 13.324219 C 22.207031 13.324219 22.265625 13.355469 22.328125 13.332031 L 22.371094 13.285156 L 22.121094 13.023438 " fill-opacity="1" fill-rule="nonzero"/><path fill="#ab1638" d="M 17.570312 11.070312 C 17.546875 11.121094 17.535156 11.171875 17.507812 11.21875 C 17.035156 12.003906 17.191406 12.773438 17.558594 12.890625 C 18.335938 13.144531 18.292969 12.464844 18.671875 11.632812 C 19.050781 10.796875 19.296875 10.050781 18.925781 9.875 C 18.554688 9.703125 17.914062 9.484375 17.570312 11.070312 " fill-opacity="1" fill-rule="nonzero"/><path fill="#ab1638" d="M 19.054688 10.074219 C 19.34375 10.042969 19.863281 10.054688 19.851562 10.476562 C 19.71875 10.371094 19.5625 10.3125 19.371094 10.339844 C 19.257812 10.359375 19.136719 10.449219 19.027344 10.480469 L 19.054688 10.074219 " fill-opacity="1" fill-rule="nonzero"/><path fill="#ffac27" d="M 11.539062 14.460938 C 11.515625 13.835938 11.203125 12.710938 11.007812 12.640625 C 10.496094 12.582031 8.609375 11.617188 10.832031 15.386719 C 10.832031 15.414062 10.835938 15.4375 10.839844 15.460938 C 11.050781 16.382812 11.378906 16.925781 11.664062 17.589844 C 11.675781 17.617188 12.296875 17.324219 12.296875 17.324219 C 12.210938 17.066406 11.617188 14.699219 11.539062 14.460938 " fill-opacity="1" fill-rule="nonzero"/><path fill="#8e6c8f" d="M 12.917969 18.589844 C 13.007812 18.664062 13.089844 18.636719 13.105469 18.703125 C 13.128906 18.804688 12.886719 18.835938 12.167969 18.578125 C 12.144531 18.515625 12.265625 18.347656 12.265625 18.347656 L 12.4375 18.46875 L 12.539062 18.34375 C 12.539062 18.34375 12.808594 18.503906 12.917969 18.589844 " fill-opacity="1" fill-rule="nonzero"/><path fill="#ffaa90" d="M 12.539062 18.34375 L 12.4375 18.46875 L 12.265625 18.347656 L 11.878906 17.515625 L 12.296875 17.324219 L 12.539062 18.34375 " fill-opacity="1" fill-rule="nonzero"/><path fill="#bccbd3" d="M 6.644531 14.859375 L 6.550781 14.410156 L 8.90625 14.398438 L 8.910156 14.574219 L 6.765625 14.585938 L 6.804688 14.789062 L 8.515625 17.222656 L 8.375 17.324219 L 6.644531 14.859375 " fill-opacity="1" fill-rule="nonzero"/><path fill="#b6a8a0" d="M 17.234375 15.773438 C 16.851562 15.476562 16.359375 15.332031 15.847656 15.402344 C 15.335938 15.472656 14.902344 15.75 14.613281 16.136719 C 14.324219 16.523438 14.179688 17.023438 14.25 17.542969 C 14.320312 18.0625 14.589844 18.503906 14.972656 18.796875 C 15.351562 19.089844 15.84375 19.238281 16.355469 19.164062 C 16.867188 19.09375 17.304688 18.820312 17.59375 18.433594 C 17.882812 18.046875 18.027344 17.546875 17.957031 17.027344 C 17.886719 16.507812 17.617188 16.066406 17.234375 15.773438 Z M 18.199219 16.992188 C 18.355469 18.167969 17.546875 19.25 16.390625 19.410156 C 15.230469 19.574219 14.164062 18.75 14.007812 17.574219 C 13.847656 16.402344 14.660156 15.320312 15.816406 15.15625 C 16.972656 14.996094 18.039062 15.816406 18.199219 16.992188 " fill-opacity="1" fill-rule="nonzero"/><path fill="#b6a8a0" d="M 9.59375 15.773438 C 9.210938 15.476562 8.71875 15.332031 8.207031 15.402344 C 7.695312 15.472656 7.261719 15.75 6.972656 16.136719 C 6.679688 16.523438 6.539062 17.023438 6.605469 17.542969 C 6.675781 18.0625 6.949219 18.503906 7.328125 18.796875 C 7.710938 19.089844 8.203125 19.238281 8.714844 19.164062 C 9.226562 19.09375 9.660156 18.820312 9.949219 18.433594 C 10.242188 18.046875 10.382812 17.546875 10.3125 17.027344 C 10.242188 16.507812 9.972656 16.066406 9.59375 15.773438 Z M 10.554688 16.992188 C 10.714844 18.167969 9.90625 19.25 8.746094 19.410156 C 7.589844 19.574219 6.523438 18.75 6.363281 17.574219 C 6.207031 16.402344 7.015625 15.320312 8.171875 15.15625 C 9.332031 14.996094 10.398438 15.816406 10.554688 16.992188 " fill-opacity="1" fill-rule="nonzero"/><path fill="#bccbd3" d="M 14.257812 13.234375 L 14.417969 13.160156 L 16.183594 17.25 L 16.023438 17.320312 L 14.257812 13.234375 " fill-opacity="1" fill-rule="nonzero"/><path fill="#b6a8a0" d="M 14.644531 12.953125 C 14.054688 12.957031 13.289062 13.101562 13.28125 13.101562 L 13.359375 13.382812 C 13.359375 13.382812 13.40625 13.375 13.488281 13.359375 C 13.726562 13.320312 14.253906 13.242188 14.644531 13.242188 L 14.644531 12.953125 " fill-opacity="1" fill-rule="nonzero"/><path fill="#bccbd3" d="M 8.402344 17.21875 L 10.539062 15.238281 L 10.621094 15.398438 L 8.519531 17.347656 L 8.402344 17.21875 " fill-opacity="1" fill-rule="nonzero"/><path fill="#bccbd3" d="M 8.480469 17.414062 L 8.523438 17.246094 L 11.402344 17.976562 L 14.851562 14.574219 L 14.972656 14.699219 L 11.453125 18.171875 L 8.480469 17.414062 " fill-opacity="1" fill-rule="nonzero"/><path fill="#bccbd3" d="M 10.078125 13.972656 L 10.242188 13.921875 L 11.507812 18.050781 L 11.34375 18.101562 L 10.078125 13.972656 " fill-opacity="1" fill-rule="nonzero"/><path fill="#b6a8a0" d="M 15.796875 17.328125 C 15.820312 17.496094 15.976562 17.617188 16.144531 17.59375 C 16.3125 17.570312 16.429688 17.414062 16.40625 17.242188 C 16.382812 17.070312 16.230469 16.953125 16.0625 16.976562 C 15.894531 17 15.773438 17.15625 15.796875 17.328125 " fill-opacity="1" fill-rule="nonzero"/><path fill="#b6a8a0" d="M 8.15625 17.328125 C 8.179688 17.496094 8.335938 17.617188 8.503906 17.59375 C 8.671875 17.570312 8.789062 17.414062 8.765625 17.242188 C 8.742188 17.070312 8.585938 16.953125 8.417969 16.976562 C 8.25 17 8.132812 17.15625 8.15625 17.328125 " fill-opacity="1" fill-rule="nonzero"/><path fill="#b6a8a0" d="M 11.183594 18.074219 C 11.183594 17.9375 11.292969 17.828125 11.425781 17.828125 C 11.5625 17.828125 11.671875 17.9375 11.671875 18.074219 C 11.671875 18.214844 11.5625 18.324219 11.425781 18.324219 C 11.292969 18.324219 11.183594 18.214844 11.183594 18.074219 Z M 10.832031 18.074219 C 10.832031 18.410156 11.097656 18.679688 11.425781 18.679688 C 11.753906 18.679688 12.019531 18.410156 12.019531 18.074219 C 12.019531 17.742188 11.753906 17.472656 11.425781 17.472656 C 11.097656 17.472656 10.832031 17.742188 10.832031 18.074219 " fill-opacity="1" fill-rule="nonzero"/><path fill="#b6a8a0" d="M 11.285156 18.074219 C 11.285156 18.152344 11.347656 18.21875 11.425781 18.21875 C 11.503906 18.21875 11.566406 18.152344 11.566406 18.074219 C 11.566406 17.996094 11.503906 17.933594 11.425781 17.933594 C 11.347656 17.933594 11.285156 17.996094 11.285156 18.074219 " fill-opacity="1" fill-rule="nonzero"/><path fill="#b6a8a0" d="M 11.003906 13.90625 C 11.003906 13.992188 10.949219 14.058594 10.886719 14.058594 L 9.324219 14.058594 C 9.261719 14.058594 9.207031 13.992188 9.207031 13.90625 C 9.207031 13.824219 9.261719 13.753906 9.324219 13.753906 L 10.886719 13.753906 C 10.949219 13.753906 11.003906 13.824219 11.003906 13.90625 " fill-opacity="1" fill-rule="nonzero"/><path fill="#fdbb45" d="M 11.324219 12.945312 C 11.277344 12.910156 11.355469 12.5625 11.25 12.480469 C 10.722656 12.1875 9.957031 12.070312 9.898438 12.164062 C 9.824219 12.613281 9.523438 13.03125 9.828125 13.625 C 9.992188 14.074219 10.9375 14.546875 12.238281 14.152344 C 12.953125 13.929688 13.410156 14.050781 13.480469 13.832031 C 13.429688 13.507812 11.714844 12.886719 11.324219 12.945312 " fill-opacity="1" fill-rule="nonzero"/><path fill="#fdbb45" d="M 12.34375 14.019531 C 11.75 14.75 11.375 15.5 11.105469 16.058594 C 11.089844 16.089844 11.777344 16.476562 11.777344 16.476562 C 11.925781 16.253906 13.5625 14.269531 13.480469 13.832031 C 13.457031 13.714844 12.988281 13.367188 12.34375 14.019531 " fill-opacity="1" fill-rule="nonzero"/><path fill="#ffaa90" d="M 10.875 17 L 10.773438 17.128906 L 10.53125 17 L 11.105469 16.058594 L 11.488281 16.308594 L 10.875 17 " fill-opacity="1" fill-rule="nonzero"/><path fill="#8e6c8f" d="M 11.257812 17.230469 C 11.355469 17.300781 11.433594 17.269531 11.453125 17.335938 C 11.480469 17.4375 11.238281 17.480469 10.511719 17.253906 C 10.484375 17.191406 10.53125 17 10.53125 17 L 10.773438 17.128906 L 10.875 17 C 10.875 17 11.148438 17.152344 11.257812 17.230469 " fill-opacity="1" fill-rule="nonzero"/><path fill="#fc8775" d="M 11.046875 9.820312 C 11.082031 9.78125 11.125 9.707031 11.207031 9.699219 C 11.292969 9.703125 11.464844 9.90625 11.503906 9.949219 C 11.402344 10.230469 11.539062 10.382812 11.539062 10.382812 C 11.539062 10.382812 11.398438 10.5 11.222656 10.507812 C 11.046875 10.511719 10.816406 10.378906 10.816406 10.378906 C 10.816406 10.378906 11.117188 10.105469 11.046875 9.820312 " fill-opacity="1" fill-rule="nonzero"/><path fill="#ffaa90" d="M 11.222656 9.71875 C 11.21875 9.589844 11.417969 9.273438 11.519531 9.269531 C 11.617188 9.269531 11.660156 9.269531 11.71875 9.367188 C 11.78125 9.472656 11.726562 9.542969 11.726562 9.601562 C 11.726562 9.648438 11.769531 9.710938 11.792969 9.753906 C 11.78125 9.777344 11.734375 9.808594 11.734375 9.808594 C 11.734375 9.808594 11.726562 9.851562 11.738281 9.867188 C 11.699219 9.886719 11.691406 9.910156 11.679688 9.945312 C 11.667969 9.992188 11.664062 10.058594 11.640625 10.074219 C 11.570312 10.121094 11.410156 10.035156 11.375 10.007812 C 11.253906 9.910156 11.222656 9.875 11.222656 9.71875 " fill-opacity="1" fill-rule="nonzero"/><path fill="#fcf9eb" d="M 10 12.199219 C 10.445312 12.339844 11.292969 12.742188 11.511719 12.28125 C 11.59375 12.105469 11.523438 11.757812 11.523438 11.757812 C 11.523438 11.757812 11.898438 11.378906 11.925781 11.285156 C 11.988281 11.050781 11.550781 10.386719 11.539062 10.382812 C 11.265625 10.519531 10.949219 9.925781 10.332031 10.839844 C 10.332031 10.839844 9.445312 12.027344 10 12.199219 " fill-opacity="1" fill-rule="nonzero"/><g clip-path="url(#636c23fd37)"><path fill="#43200c" d="M 10.882812 9.011719 C 10.875 9.015625 10.867188 9.027344 10.859375 9.039062 C 10.835938 9.023438 10.808594 9.011719 10.777344 9.011719 C 10.664062 9 10.523438 9.136719 10.390625 9.15625 C 10.273438 9.175781 10.132812 9.082031 10.003906 9.125 C 9.886719 9.164062 9.804688 9.335938 9.683594 9.398438 C 9.574219 9.457031 9.398438 9.414062 9.285156 9.492188 C 9.175781 9.570312 9.148438 9.75 9.058594 9.835938 C 8.957031 9.925781 8.773438 9.941406 8.691406 10.042969 C 8.605469 10.148438 8.644531 10.316406 8.582031 10.421875 C 8.519531 10.539062 8.34375 10.621094 8.3125 10.734375 C 8.273438 10.863281 8.394531 10.972656 8.402344 11.074219 C 8.414062 11.195312 8.34375 11.363281 8.421875 11.4375 C 8.496094 11.507812 8.65625 11.429688 8.773438 11.445312 C 8.871094 11.457031 8.980469 11.574219 9.097656 11.550781 C 9.195312 11.53125 9.273438 11.375 9.382812 11.332031 C 9.484375 11.296875 9.628906 11.367188 9.730469 11.316406 C 9.824219 11.269531 9.859375 11.109375 9.957031 11.050781 C 10.046875 10.996094 10.203125 11.042969 10.292969 10.980469 C 10.382812 10.917969 10.398438 10.75 10.480469 10.683594 C 10.570312 10.613281 10.730469 10.636719 10.808594 10.566406 C 10.890625 10.488281 10.875 10.324219 10.945312 10.242188 C 11.023438 10.152344 11.195312 10.136719 11.25 10.050781 C 11.3125 9.945312 11.242188 9.800781 11.265625 9.703125 C 11.28125 9.636719 11.332031 9.570312 11.363281 9.507812 C 11.394531 9.472656 11.429688 9.445312 11.464844 9.417969 C 11.609375 9.316406 11.574219 9.292969 11.640625 9.289062 C 11.664062 9.292969 11.6875 9.324219 11.710938 9.351562 C 11.910156 9.058594 11.015625 8.902344 10.882812 9.011719 " fill-opacity="1" fill-rule="nonzero"/></g><path fill="#f6eddc" d="M 11.097656 12.316406 C 10.992188 12.273438 11.105469 11.988281 11.105469 11.988281 L 10.738281 11.273438 L 11.550781 11.992188 C 11.550781 11.992188 11.21875 12.367188 11.097656 12.316406 " fill-opacity="1" fill-rule="nonzero"/><path fill="#ffaa90" d="M 13.699219 12.976562 L 13.335938 12.855469 L 12.394531 11.949219 C 11.941406 11.605469 11.355469 10.734375 11.191406 10.699219 C 10.496094 10.550781 10.738281 11.273438 10.738281 11.273438 C 11.023438 11.5 11.820312 12.324219 12.160156 12.363281 C 12.335938 12.679688 13.164062 13.117188 13.164062 13.117188 L 13.429688 13.382812 L 13.621094 13.433594 L 13.78125 13.273438 C 13.78125 13.273438 13.835938 13.300781 13.902344 13.277344 L 13.941406 13.234375 L 13.699219 12.976562 " fill-opacity="1" fill-rule="nonzero"/><path fill="#b6a8a0" d="M 11.320312 17.476562 C 11.320312 17.5625 11.253906 17.632812 11.167969 17.632812 L 10.78125 17.632812 C 10.695312 17.632812 10.628906 17.5625 10.628906 17.476562 C 10.628906 17.386719 10.695312 17.316406 10.78125 17.316406 L 11.167969 17.316406 C 11.253906 17.316406 11.320312 17.386719 11.320312 17.476562 " fill-opacity="1" fill-rule="nonzero"/><path fill="#b6a8a0" d="M 12.390625 18.585938 C 12.390625 18.671875 12.320312 18.742188 12.234375 18.742188 L 11.851562 18.742188 C 11.765625 18.742188 11.695312 18.671875 11.695312 18.585938 C 11.695312 18.5 11.765625 18.429688 11.851562 18.429688 L 12.234375 18.429688 C 12.320312 18.429688 12.390625 18.5 12.390625 18.585938 " fill-opacity="1" fill-rule="nonzero"/><path fill="#8e6c8f" d="M 9.179688 11.382812 C 9.160156 11.429688 9.144531 11.484375 9.117188 11.527344 C 8.648438 12.316406 8.800781 13.082031 9.167969 13.203125 C 9.945312 13.457031 9.90625 12.773438 10.28125 11.941406 C 10.660156 11.109375 10.910156 10.363281 10.539062 10.1875 C 10.167969 10.015625 9.523438 9.796875 9.179688 11.382812 " fill-opacity="1" fill-rule="nonzero"/><path fill="#8e6c8f" d="M 10.664062 10.386719 C 10.953125 10.355469 11.382812 10.425781 11.371094 10.847656 C 11.234375 10.71875 11.113281 10.683594 10.953125 10.683594 C 10.835938 10.683594 10.746094 10.757812 10.640625 10.792969 L 10.664062 10.386719 " fill-opacity="1" fill-rule="nonzero"/></svg>
