<svg xmlns="http://www.w3.org/2000/svg" xmlns:xlink="http://www.w3.org/1999/xlink" width="40" zoomAndPan="magnify" viewBox="0 0 30 30.000001" height="40" preserveAspectRatio="xMidYMid meet" version="1.0"><defs><clipPath id="57d7e40d6d"><path d="M 5 3 L 25.816406 3 L 25.816406 24 L 5 24 Z M 5 3 " clip-rule="nonzero"/></clipPath><clipPath id="2ba4e4ba84"><path d="M 22 14 L 25.816406 14 L 25.816406 16 L 22 16 Z M 22 14 " clip-rule="nonzero"/></clipPath><clipPath id="871b39a782"><path d="M 4.039062 23 L 25.816406 23 L 25.816406 26.128906 L 4.039062 26.128906 Z M 4.039062 23 " clip-rule="nonzero"/></clipPath></defs><g clip-path="url(#57d7e40d6d)"><path fill="#f9e8de" d="M 25.246094 8.992188 C 25.003906 8.210938 24.664062 7.460938 24.230469 6.769531 C 23.550781 5.683594 22.644531 4.734375 21.53125 4.007812 C 20.492188 3.324219 19.175781 2.929688 17.957031 3.175781 C 17.695312 3.226562 17.453125 3.3125 17.230469 3.425781 C 17.003906 3.539062 16.796875 3.675781 16.605469 3.835938 C 16.21875 4.109375 15.964844 4.414062 15.8125 4.691406 C 15.589844 5.09375 15.441406 5.511719 15.277344 5.925781 C 15.601562 6.015625 16.03125 6.140625 16.4375 6.261719 C 16.652344 6.328125 16.863281 6.390625 17.042969 6.445312 L 17.335938 6.425781 C 17.378906 6.390625 17.425781 6.339844 17.472656 6.265625 C 17.648438 5.976562 17.800781 5.652344 17.847656 5.628906 C 17.859375 5.625 17.878906 5.621094 17.898438 5.625 C 17.957031 5.617188 18.066406 5.65625 18.070312 5.675781 C 18.074219 5.691406 17.996094 6.085938 17.933594 6.394531 L 19.199219 6.324219 L 19.070312 6.421875 L 17.894531 6.597656 C 17.882812 6.65625 17.875 6.699219 17.867188 6.726562 C 17.917969 6.75 17.964844 6.773438 18.003906 6.808594 L 18.621094 6.773438 L 18.582031 6.800781 L 18.070312 6.878906 C 18.082031 6.902344 18.089844 6.925781 18.089844 6.949219 C 18.085938 7.023438 17.75 7.066406 17.28125 7.0625 C 16.660156 7.058594 15.8125 6.972656 15.195312 6.777344 C 15.125 6.753906 15.054688 6.734375 14.992188 6.710938 L 14.925781 6.707031 C 14.820312 6.90625 14.699219 7.101562 14.550781 7.292969 C 13.996094 7.996094 13.296875 8.566406 12.519531 9.003906 C 11.746094 9.441406 10.902344 9.746094 10.046875 9.988281 C 8.84375 10.328125 7.675781 10.214844 6.710938 11.109375 C 6.609375 11.203125 6.511719 11.300781 6.421875 11.402344 C 6.226562 11.621094 6.054688 11.859375 5.90625 12.113281 C 5.539062 12.734375 5.3125 13.441406 5.230469 14.152344 C 5.207031 14.382812 5.195312 14.609375 5.191406 14.839844 C 5.183594 15.542969 5.28125 16.246094 5.460938 16.925781 C 5.46875 16.953125 5.476562 16.980469 5.484375 17.007812 C 5.578125 17.355469 5.695312 17.699219 5.832031 18.03125 C 5.84375 18.058594 5.855469 18.085938 5.867188 18.113281 C 5.871094 18.128906 5.878906 18.140625 5.886719 18.15625 C 6.207031 18.917969 6.625 19.640625 7.109375 20.296875 C 7.363281 20.644531 7.632812 20.960938 7.921875 21.25 C 8.136719 21.472656 8.367188 21.675781 8.601562 21.867188 C 9.089844 22.265625 9.617188 22.601562 10.175781 22.890625 C 10.421875 23.015625 10.675781 23.132812 10.9375 23.242188 C 11.265625 23.382812 11.609375 23.507812 11.957031 23.621094 C 12.257812 23.71875 12.566406 23.796875 12.878906 23.855469 C 13.277344 23.925781 13.679688 23.964844 14.085938 23.976562 C 14.238281 23.980469 14.394531 23.980469 14.550781 23.972656 C 14.578125 23.972656 14.609375 23.972656 14.636719 23.96875 C 14.6875 23.96875 14.734375 23.964844 14.78125 23.964844 C 18.507812 23.738281 21.769531 21.320312 23.742188 18.15625 C 23.765625 18.117188 23.792969 18.074219 23.816406 18.03125 C 23.988281 17.757812 24.144531 17.472656 24.292969 17.1875 C 24.324219 17.128906 24.355469 17.070312 24.382812 17.011719 C 24.488281 16.804688 24.585938 16.59375 24.679688 16.382812 C 24.691406 16.351562 24.703125 16.324219 24.71875 16.292969 C 24.730469 16.261719 24.742188 16.234375 24.753906 16.203125 C 24.765625 16.179688 24.777344 16.152344 24.785156 16.128906 C 24.804688 16.078125 24.824219 16.03125 24.84375 15.980469 C 24.875 15.914062 24.898438 15.847656 24.925781 15.777344 C 24.996094 15.59375 25.0625 15.410156 25.121094 15.222656 C 25.246094 14.855469 25.347656 14.484375 25.4375 14.109375 C 25.472656 13.957031 25.503906 13.804688 25.53125 13.65625 C 25.816406 12.085938 25.707031 10.480469 25.246094 8.992188 Z M 22.007812 9.621094 C 21.273438 9.621094 15.898438 9.628906 15.898438 9.628906 C 15.898438 9.511719 16.40625 9.492188 16.761719 9.480469 C 17.117188 9.46875 17.3125 9.460938 17.3125 9.457031 C 17.304688 9.457031 17.472656 9.054688 17.902344 9.03125 C 18.261719 9.011719 18.398438 9.199219 18.398438 9.199219 C 18.398438 9.199219 18.546875 8.652344 18.820312 8.652344 C 19.089844 8.652344 19.148438 9.097656 19.148438 9.097656 C 19.148438 9.097656 19.332031 8.851562 19.636719 8.902344 C 19.886719 8.941406 20.027344 9.265625 20.027344 9.265625 C 20.027344 9.265625 20.171875 9.152344 20.308594 9.195312 C 20.539062 9.265625 20.503906 9.480469 20.503906 9.480469 C 20.503906 9.480469 20.796875 9.289062 20.941406 9.492188 C 20.941406 9.492188 23.488281 9.527344 23.488281 9.578125 C 23.484375 9.628906 22.738281 9.621094 22.007812 9.621094 Z M 22.007812 9.621094 " fill-opacity="1" fill-rule="nonzero"/></g><path fill="#e8d2c4" d="M 24.84375 15.980469 C 24.5625 16.6875 24.21875 17.375 23.816406 18.03125 C 23.792969 18.074219 23.765625 18.117188 23.738281 18.15625 L 5.886719 18.15625 C 5.878906 18.140625 5.871094 18.128906 5.867188 18.113281 C 5.855469 18.085938 5.84375 18.058594 5.832031 18.03125 C 5.695312 17.699219 5.578125 17.355469 5.484375 17.007812 C 5.476562 16.980469 5.46875 16.953125 5.460938 16.925781 C 5.28125 16.242188 5.183594 15.542969 5.191406 14.839844 C 5.195312 14.609375 5.207031 14.382812 5.230469 14.152344 C 5.3125 13.441406 5.539062 12.734375 5.90625 12.113281 C 6.054688 11.859375 6.226562 11.621094 6.421875 11.402344 L 6.421875 11.925781 L 7.464844 11.925781 L 7.464844 16.5625 L 8.328125 16.5625 L 8.328125 15.980469 L 9.476562 15.980469 L 9.476562 16.5625 L 9.5625 16.5625 L 9.5625 13.65625 L 10.648438 13.65625 L 10.648438 12.933594 L 11.355469 12.933594 L 11.355469 13.65625 L 12.207031 13.65625 L 12.207031 12.046875 L 12.40625 12.046875 L 12.40625 10.960938 L 14.5625 10.960938 L 14.5625 12.046875 L 16.199219 12.046875 L 16.199219 14.242188 L 16.527344 14.242188 L 16.527344 13.65625 L 16.820312 13.65625 L 16.820312 12.933594 L 17.527344 12.933594 L 17.527344 13.65625 L 18.347656 13.65625 L 18.347656 13.253906 L 19.804688 13.253906 L 19.804688 11.925781 L 21.121094 11.925781 L 21.121094 11.050781 L 21.980469 11.050781 L 21.980469 11.925781 L 23.023438 11.925781 L 23.023438 16.5625 L 23.886719 16.5625 L 23.886719 15.980469 Z M 24.84375 15.980469 " fill-opacity="1" fill-rule="nonzero"/><path fill="#ffffff" d="M 21.257812 13.804688 L 21.015625 13.804688 L 21.117188 11.097656 L 21.15625 11.097656 Z M 21.257812 13.804688 " fill-opacity="1" fill-rule="nonzero"/><g clip-path="url(#2ba4e4ba84)"><path fill="#ffffff" d="M 22.429688 14.65625 L 25.175781 14.480469 L 25.175781 14.632812 L 22.527344 15.175781 Z M 22.429688 14.65625 " fill-opacity="1" fill-rule="nonzero"/></g><path fill="#e8d2c4" d="M 23.167969 16.488281 L 23.316406 16.488281 L 23.316406 17.660156 L 23.167969 17.660156 Z M 23.167969 16.488281 " fill-opacity="1" fill-rule="nonzero"/><path fill="#e8d2c4" d="M 23.039062 17.65625 L 23.441406 17.65625 L 23.441406 17.777344 L 23.039062 17.777344 Z M 23.039062 17.65625 " fill-opacity="1" fill-rule="nonzero"/><path fill="#e8d2c4" d="M 23.492188 18.042969 C 23.4375 18.042969 23.394531 17.996094 23.394531 17.941406 L 23.394531 17.554688 C 23.394531 17.5 23.4375 17.453125 23.492188 17.453125 C 23.550781 17.453125 23.59375 17.5 23.59375 17.554688 L 23.59375 17.941406 C 23.59375 17.996094 23.550781 18.042969 23.492188 18.042969 Z M 23.492188 18.042969 " fill-opacity="1" fill-rule="nonzero"/><path fill="#e8d2c4" d="M 22.988281 18.042969 C 22.933594 18.042969 22.890625 17.996094 22.890625 17.941406 L 22.890625 17.554688 C 22.890625 17.5 22.933594 17.453125 22.988281 17.453125 C 23.042969 17.453125 23.089844 17.5 23.089844 17.554688 L 23.089844 17.941406 C 23.089844 17.996094 23.042969 18.042969 22.988281 18.042969 Z M 22.988281 18.042969 " fill-opacity="1" fill-rule="nonzero"/><path fill="#e8d2c4" d="M 23.257812 17.152344 L 23.203125 17.207031 L 22.683594 16.6875 L 22.742188 16.628906 Z M 23.257812 17.152344 " fill-opacity="1" fill-rule="nonzero"/><path fill="#ffffff" d="M 24.925781 15.777344 C 24.898438 15.847656 24.875 15.914062 24.84375 15.980469 C 24.824219 16.03125 24.804688 16.078125 24.785156 16.128906 C 24.777344 16.152344 24.765625 16.179688 24.753906 16.203125 C 24.742188 16.234375 24.730469 16.261719 24.71875 16.292969 C 24.65625 16.296875 24.59375 16.304688 24.539062 16.308594 C 24.1875 16.347656 23.910156 16.382812 23.730469 16.425781 C 23.582031 16.457031 23.445312 16.492188 23.3125 16.53125 C 23.265625 16.542969 23.214844 16.558594 23.167969 16.574219 C 23.039062 16.613281 22.917969 16.652344 22.804688 16.691406 C 22.773438 16.703125 22.746094 16.710938 22.71875 16.722656 C 22.238281 16.894531 21.875 17.058594 21.527344 17.136719 C 21.40625 17.160156 21.289062 17.175781 21.167969 17.175781 L 21.34375 17.003906 L 21.667969 16.683594 L 22.550781 15.8125 L 22.648438 15.808594 Z M 24.925781 15.777344 " fill-opacity="1" fill-rule="nonzero"/><path fill="#e8d2c4" d="M 24.785156 16.128906 C 24.773438 16.152344 24.765625 16.179688 24.753906 16.203125 C 24.742188 16.234375 24.730469 16.261719 24.714844 16.292969 C 24.65625 16.296875 24.59375 16.304688 24.535156 16.308594 C 24.1875 16.347656 23.910156 16.382812 23.730469 16.425781 C 23.582031 16.457031 23.445312 16.492188 23.3125 16.53125 C 23.265625 16.542969 23.214844 16.558594 23.167969 16.574219 C 23.039062 16.613281 22.917969 16.652344 22.804688 16.691406 C 22.773438 16.703125 22.746094 16.710938 22.71875 16.722656 C 22.238281 16.894531 21.875 17.058594 21.527344 17.136719 C 21.519531 17.128906 21.511719 17.125 21.503906 17.121094 C 21.429688 17.085938 21.375 17.046875 21.34375 17.003906 C 21.277344 16.910156 21.335938 16.808594 21.621094 16.699219 C 21.636719 16.695312 21.652344 16.6875 21.667969 16.683594 C 21.902344 16.59375 22.132812 16.519531 22.386719 16.457031 C 22.996094 16.300781 23.710938 16.210938 24.785156 16.128906 Z M 24.785156 16.128906 " fill-opacity="1" fill-rule="nonzero"/><path fill="#e8d2c4" d="M 24.753906 16.203125 C 24.742188 16.234375 24.730469 16.261719 24.714844 16.292969 C 24.703125 16.320312 24.691406 16.351562 24.675781 16.382812 C 24.585938 16.59375 24.488281 16.804688 24.382812 17.011719 C 24.355469 17.070312 24.324219 17.128906 24.292969 17.1875 C 24.257812 17.097656 24.234375 17 24.234375 16.898438 C 24.234375 16.65625 24.355469 16.441406 24.535156 16.308594 C 24.601562 16.261719 24.675781 16.226562 24.753906 16.203125 Z M 24.753906 16.203125 " fill-opacity="1" fill-rule="nonzero"/><path fill="#ffffff" d="M 24.679688 16.382812 C 24.585938 16.59375 24.488281 16.804688 24.382812 17.011719 C 24.375 16.976562 24.371094 16.9375 24.371094 16.898438 C 24.371094 16.675781 24.496094 16.484375 24.679688 16.382812 Z M 24.679688 16.382812 " fill-opacity="1" fill-rule="nonzero"/><path fill="#ffffff" d="M 19.800781 14.65625 L 17.050781 14.480469 L 17.050781 14.632812 L 19.699219 15.175781 Z M 19.800781 14.65625 " fill-opacity="1" fill-rule="nonzero"/><path fill="#e8d2c4" d="M 19.0625 17.660156 L 18.914062 17.660156 L 18.914062 16.488281 L 19.0625 16.488281 Z M 19.0625 17.660156 " fill-opacity="1" fill-rule="nonzero"/><path fill="#e8d2c4" d="M 19.1875 17.777344 L 18.789062 17.777344 L 18.789062 17.660156 L 19.1875 17.660156 Z M 19.1875 17.777344 " fill-opacity="1" fill-rule="nonzero"/><path fill="#e8d2c4" d="M 18.734375 18.042969 C 18.789062 18.042969 18.835938 17.996094 18.835938 17.941406 L 18.835938 17.554688 C 18.835938 17.5 18.789062 17.453125 18.734375 17.453125 C 18.679688 17.453125 18.636719 17.5 18.636719 17.554688 L 18.636719 17.941406 C 18.636719 17.996094 18.679688 18.042969 18.734375 18.042969 Z M 18.734375 18.042969 " fill-opacity="1" fill-rule="nonzero"/><path fill="#e8d2c4" d="M 19.242188 18.042969 C 19.296875 18.042969 19.339844 17.996094 19.339844 17.941406 L 19.339844 17.554688 C 19.339844 17.5 19.296875 17.453125 19.242188 17.453125 C 19.183594 17.453125 19.140625 17.5 19.140625 17.554688 L 19.140625 17.941406 C 19.140625 17.996094 19.183594 18.042969 19.242188 18.042969 Z M 19.242188 18.042969 " fill-opacity="1" fill-rule="nonzero"/><path fill="#e8d2c4" d="M 19.488281 16.628906 L 19.546875 16.6875 L 19.027344 17.207031 L 18.96875 17.152344 Z M 19.488281 16.628906 " fill-opacity="1" fill-rule="nonzero"/><path fill="#ffffff" d="M 10.359375 15.195312 L 10.671875 15.945312 C 10.671875 15.945312 17.222656 16.136719 18.5 16.425781 C 19.546875 16.660156 20.144531 17.015625 20.699219 17.136719 C 20.820312 17.160156 20.941406 17.175781 21.0625 17.175781 L 20.886719 17.003906 L 20.5625 16.683594 L 19.679688 15.808594 L 10.769531 15.683594 L 10.53125 15.195312 Z M 10.359375 15.195312 " fill-opacity="1" fill-rule="nonzero"/><path fill="#e8d2c4" d="M 10.671875 15.945312 C 10.671875 15.945312 17.222656 16.136719 18.5 16.425781 C 19.546875 16.660156 20.144531 17.015625 20.699219 17.136719 C 20.785156 17.09375 20.851562 17.050781 20.886719 17.003906 C 20.949219 16.910156 20.890625 16.808594 20.609375 16.699219 C 20.59375 16.695312 20.578125 16.6875 20.5625 16.683594 C 19.53125 16.292969 18.5 16.179688 15.949219 16.027344 C 13.355469 15.875 10.671875 15.945312 10.671875 15.945312 Z M 10.671875 15.945312 " fill-opacity="1" fill-rule="nonzero"/><path fill="#e8d2c4" d="M 17.992188 16.898438 C 17.992188 17.097656 17.921875 17.269531 17.78125 17.410156 C 17.640625 17.550781 17.472656 17.625 17.273438 17.625 C 17.074219 17.625 16.90625 17.550781 16.765625 17.410156 C 16.625 17.269531 16.554688 17.097656 16.554688 16.898438 C 16.554688 16.699219 16.625 16.527344 16.765625 16.386719 C 16.90625 16.246094 17.074219 16.175781 17.273438 16.175781 C 17.472656 16.175781 17.640625 16.246094 17.78125 16.386719 C 17.921875 16.527344 17.992188 16.699219 17.992188 16.898438 Z M 17.992188 16.898438 " fill-opacity="1" fill-rule="nonzero"/><path fill="#ffffff" d="M 17.855469 16.898438 C 17.855469 17.0625 17.800781 17.199219 17.6875 17.3125 C 17.570312 17.429688 17.433594 17.484375 17.273438 17.484375 C 17.113281 17.484375 16.976562 17.429688 16.859375 17.3125 C 16.746094 17.199219 16.691406 17.0625 16.691406 16.898438 C 16.691406 16.738281 16.746094 16.597656 16.859375 16.484375 C 16.976562 16.367188 17.113281 16.3125 17.273438 16.3125 C 17.433594 16.3125 17.570312 16.367188 17.6875 16.484375 C 17.800781 16.597656 17.855469 16.738281 17.855469 16.898438 Z M 17.855469 16.898438 " fill-opacity="1" fill-rule="nonzero"/><path fill="#e8d2c4" d="M 17.503906 16.898438 C 17.503906 17.054688 17.425781 17.132812 17.273438 17.132812 C 17.121094 17.132812 17.042969 17.054688 17.042969 16.898438 C 17.042969 16.742188 17.121094 16.667969 17.273438 16.667969 C 17.425781 16.667969 17.503906 16.742188 17.503906 16.898438 Z M 17.503906 16.898438 " fill-opacity="1" fill-rule="nonzero"/><path fill="#ffffff" d="M 22.679688 15.449219 C 22.679688 16.402344 21.980469 17.175781 21.113281 17.175781 C 20.558594 17.175781 20.070312 16.855469 19.792969 16.375 C 19.636719 16.105469 19.546875 15.789062 19.546875 15.449219 C 19.546875 14.496094 20.25 13.722656 21.113281 13.722656 C 21.816406 13.722656 22.410156 14.230469 22.609375 14.929688 C 22.65625 15.09375 22.679688 15.269531 22.679688 15.449219 Z M 22.679688 15.449219 " fill-opacity="1" fill-rule="nonzero"/><path fill="#e8d2c4" d="M 21.726562 14.808594 L 21.148438 14.808594 L 21.148438 14.421875 L 21.636719 14.421875 Z M 21.726562 14.808594 " fill-opacity="1" fill-rule="nonzero"/><path fill="#e8d2c4" d="M 22.375 14.925781 L 21.796875 14.8125 L 21.707031 14.421875 L 21.925781 14.421875 C 22.007812 14.421875 22.085938 14.464844 22.128906 14.535156 Z M 22.375 14.925781 " fill-opacity="1" fill-rule="nonzero"/><path fill="#e8d2c4" d="M 20.503906 14.808594 L 21.082031 14.808594 L 21.082031 14.421875 L 20.59375 14.421875 Z M 20.503906 14.808594 " fill-opacity="1" fill-rule="nonzero"/><path fill="#e8d2c4" d="M 19.855469 14.925781 L 20.433594 14.8125 L 20.523438 14.421875 L 20.304688 14.421875 C 20.222656 14.421875 20.144531 14.464844 20.097656 14.535156 Z M 19.855469 14.925781 " fill-opacity="1" fill-rule="nonzero"/><path fill="#e8d2c4" d="M 22.679688 15.449219 C 22.679688 16.402344 21.980469 17.175781 21.113281 17.175781 C 20.558594 17.175781 20.070312 16.855469 19.792969 16.375 C 21.679688 17.09375 22.464844 15.316406 22.609375 14.929688 C 22.65625 15.09375 22.679688 15.269531 22.679688 15.449219 Z M 22.679688 15.449219 " fill-opacity="1" fill-rule="nonzero"/><path fill="#f9e8de" d="M 23.816406 18.03125 C 23.359375 18.78125 22.832031 19.492188 22.242188 20.140625 C 22.082031 20.320312 21.914062 20.492188 21.742188 20.660156 C 21.210938 21.1875 20.636719 21.667969 20.027344 22.089844 C 19.875 22.195312 19.71875 22.292969 19.5625 22.390625 C 19.046875 22.714844 18.503906 22.996094 17.945312 23.226562 C 17.796875 23.285156 17.652344 23.34375 17.503906 23.394531 C 17 23.578125 16.480469 23.71875 15.953125 23.820312 C 15.8125 23.84375 15.671875 23.867188 15.527344 23.886719 C 15.28125 23.921875 15.03125 23.949219 14.78125 23.960938 C 14.734375 23.964844 14.6875 23.96875 14.636719 23.96875 C 14.609375 23.972656 14.578125 23.972656 14.546875 23.972656 C 14.394531 23.980469 14.238281 23.980469 14.082031 23.976562 C 14.066406 23.976562 14.050781 23.976562 14.035156 23.972656 C 13.898438 23.96875 13.761719 23.960938 13.625 23.949219 C 13.375 23.929688 13.125 23.898438 12.878906 23.855469 C 12.644531 23.8125 12.414062 23.757812 12.1875 23.691406 C 12.109375 23.667969 12.035156 23.644531 11.957031 23.621094 C 11.902344 23.601562 11.847656 23.585938 11.796875 23.566406 C 11.503906 23.46875 11.214844 23.359375 10.9375 23.242188 C 10.757812 23.167969 10.582031 23.089844 10.410156 23.003906 C 10.332031 22.96875 10.253906 22.929688 10.175781 22.890625 C 10.128906 22.863281 10.078125 22.835938 10.027344 22.8125 C 9.554688 22.558594 9.109375 22.269531 8.691406 21.941406 C 8.660156 21.917969 8.632812 21.890625 8.601562 21.867188 C 8.507812 21.792969 8.417969 21.714844 8.332031 21.636719 C 8.191406 21.515625 8.054688 21.386719 7.921875 21.25 C 7.632812 20.960938 7.363281 20.640625 7.109375 20.296875 C 7.097656 20.28125 7.089844 20.269531 7.078125 20.253906 C 6.964844 20.097656 6.851562 19.933594 6.746094 19.769531 C 6.40625 19.246094 6.109375 18.691406 5.867188 18.113281 C 5.855469 18.085938 5.84375 18.058594 5.832031 18.03125 Z M 23.816406 18.03125 " fill-opacity="1" fill-rule="nonzero"/><g clip-path="url(#871b39a782)"><path fill="#f9e8de" d="M 25.382812 24.859375 C 25.382812 24.941406 25.316406 25.023438 25.179688 25.101562 C 25.042969 25.183594 24.839844 25.261719 24.570312 25.335938 C 24.304688 25.414062 23.972656 25.484375 23.585938 25.554688 C 23.195312 25.621094 22.753906 25.683594 22.257812 25.742188 C 21.761719 25.800781 21.222656 25.851562 20.640625 25.898438 C 20.058594 25.941406 19.445312 25.980469 18.796875 26.011719 C 18.148438 26.042969 17.480469 26.066406 16.792969 26.085938 C 16.109375 26.101562 15.414062 26.109375 14.714844 26.109375 C 14.011719 26.109375 13.320312 26.101562 12.632812 26.085938 C 11.945312 26.066406 11.277344 26.042969 10.628906 26.011719 C 9.980469 25.980469 9.367188 25.941406 8.785156 25.898438 C 8.203125 25.851562 7.664062 25.800781 7.167969 25.742188 C 6.671875 25.683594 6.230469 25.621094 5.839844 25.554688 C 5.453125 25.484375 5.121094 25.414062 4.855469 25.335938 C 4.585938 25.261719 4.382812 25.183594 4.246094 25.101562 C 4.109375 25.023438 4.042969 24.941406 4.042969 24.859375 C 4.042969 24.777344 4.109375 24.695312 4.246094 24.617188 C 4.382812 24.535156 4.585938 24.457031 4.855469 24.382812 C 5.121094 24.304688 5.453125 24.234375 5.839844 24.164062 C 6.230469 24.097656 6.671875 24.035156 7.167969 23.976562 C 7.664062 23.917969 8.203125 23.867188 8.785156 23.820312 C 9.367188 23.773438 9.980469 23.738281 10.628906 23.707031 C 11.277344 23.675781 11.945312 23.648438 12.632812 23.632812 C 13.320312 23.617188 14.011719 23.609375 14.714844 23.609375 C 15.414062 23.609375 16.109375 23.617188 16.792969 23.632812 C 17.480469 23.648438 18.148438 23.675781 18.796875 23.707031 C 19.445312 23.738281 20.058594 23.773438 20.640625 23.820312 C 21.222656 23.867188 21.761719 23.917969 22.257812 23.976562 C 22.753906 24.035156 23.195312 24.097656 23.585938 24.164062 C 23.972656 24.234375 24.304688 24.304688 24.570312 24.382812 C 24.839844 24.457031 25.042969 24.535156 25.179688 24.617188 C 25.316406 24.695312 25.382812 24.777344 25.382812 24.859375 Z M 25.382812 24.859375 " fill-opacity="1" fill-rule="nonzero"/></g><path fill="#efbf62" d="M 13.378906 9.175781 L 12.015625 9.890625 C 12.015625 9.890625 12 9.78125 12.011719 9.632812 C 12.027344 9.394531 12.113281 9.058594 12.449219 8.929688 C 12.804688 8.792969 13.09375 8.945312 13.253906 9.0625 C 13.332031 9.125 13.378906 9.175781 13.378906 9.175781 Z M 13.378906 9.175781 " fill-opacity="1" fill-rule="nonzero"/><path fill="#2e2943" d="M 13.378906 9.175781 L 12.015625 9.890625 C 12.015625 9.890625 12 9.78125 12.011719 9.632812 C 12.203125 9.507812 12.421875 9.386719 12.664062 9.28125 C 12.867188 9.191406 13.0625 9.117188 13.253906 9.0625 C 13.332031 9.125 13.378906 9.175781 13.378906 9.175781 Z M 13.378906 9.175781 " fill-opacity="1" fill-rule="nonzero"/><path fill="#efbf62" d="M 14.582031 9.191406 C 14.613281 9.265625 14.605469 9.355469 14.554688 9.460938 C 14.503906 9.566406 14.414062 9.679688 14.289062 9.800781 C 14.160156 9.917969 14.003906 10.039062 13.820312 10.152344 C 13.636719 10.269531 13.4375 10.375 13.226562 10.46875 C 13.011719 10.566406 12.800781 10.640625 12.59375 10.699219 C 12.382812 10.761719 12.191406 10.796875 12.019531 10.8125 C 11.84375 10.824219 11.703125 10.816406 11.589844 10.785156 C 11.476562 10.75 11.40625 10.699219 11.375 10.621094 C 11.339844 10.546875 11.347656 10.457031 11.402344 10.351562 C 11.453125 10.246094 11.539062 10.136719 11.667969 10.015625 C 11.796875 9.894531 11.949219 9.777344 12.132812 9.660156 C 12.320312 9.546875 12.515625 9.441406 12.730469 9.34375 C 12.941406 9.25 13.152344 9.171875 13.363281 9.113281 C 13.570312 9.054688 13.761719 9.019531 13.9375 9.003906 C 14.109375 8.988281 14.253906 9 14.363281 9.03125 C 14.476562 9.0625 14.550781 9.117188 14.582031 9.191406 Z M 14.582031 9.191406 " fill-opacity="1" fill-rule="nonzero"/><path fill="#2e2943" d="M 11.925781 10.734375 C 11.695312 10.734375 11.546875 10.675781 11.496094 10.566406 C 11.4375 10.433594 11.539062 10.238281 11.777344 10.019531 C 12.015625 9.800781 12.363281 9.585938 12.757812 9.410156 C 13.152344 9.234375 13.546875 9.121094 13.863281 9.089844 C 14.1875 9.054688 14.398438 9.113281 14.457031 9.246094 C 14.515625 9.382812 14.417969 9.578125 14.175781 9.796875 C 13.9375 10.011719 13.589844 10.226562 13.195312 10.402344 C 12.800781 10.578125 12.410156 10.695312 12.089844 10.726562 C 12.03125 10.730469 11.976562 10.734375 11.925781 10.734375 Z M 14.03125 9.101562 C 13.980469 9.101562 13.925781 9.101562 13.867188 9.109375 C 13.550781 9.140625 13.160156 9.253906 12.765625 9.429688 C 12.375 9.605469 12.027344 9.816406 11.792969 10.035156 C 11.558594 10.246094 11.460938 10.433594 11.515625 10.558594 C 11.570312 10.683594 11.773438 10.738281 12.089844 10.707031 C 12.40625 10.675781 12.796875 10.558594 13.1875 10.386719 C 13.582031 10.210938 13.925781 9.996094 14.164062 9.78125 C 14.398438 9.566406 14.496094 9.382812 14.441406 9.253906 C 14.394531 9.152344 14.25 9.101562 14.03125 9.101562 Z M 14.03125 9.101562 " fill-opacity="1" fill-rule="nonzero"/><path fill="#2e2943" d="M 12.1875 10.25 C 12.1875 10.25 12.1875 10.25 12.1875 10.253906 C 12.1875 10.253906 12.1875 10.257812 12.1875 10.257812 C 12.253906 10.410156 12.664062 10.378906 13.097656 10.183594 C 13.203125 10.136719 13.300781 10.085938 13.386719 10.03125 C 13.414062 10.011719 13.441406 9.996094 13.464844 9.980469 C 13.476562 9.96875 13.488281 9.960938 13.5 9.953125 C 13.648438 9.84375 13.746094 9.734375 13.769531 9.644531 C 13.769531 9.636719 13.773438 9.625 13.773438 9.617188 C 13.777344 9.59375 13.773438 9.574219 13.765625 9.554688 C 13.753906 9.53125 13.734375 9.507812 13.703125 9.496094 C 13.609375 9.445312 13.4375 9.449219 13.226562 9.503906 C 13.222656 9.503906 13.21875 9.503906 13.214844 9.503906 C 13.160156 9.519531 13.109375 9.535156 13.050781 9.554688 C 13.046875 9.554688 13.039062 9.554688 13.035156 9.558594 C 13.007812 9.570312 12.980469 9.578125 12.953125 9.589844 C 12.949219 9.589844 12.949219 9.589844 12.949219 9.589844 C 12.917969 9.601562 12.886719 9.617188 12.855469 9.628906 C 12.832031 9.640625 12.808594 9.652344 12.78125 9.664062 C 12.761719 9.675781 12.742188 9.683594 12.722656 9.695312 C 12.695312 9.707031 12.671875 9.722656 12.644531 9.734375 C 12.628906 9.746094 12.617188 9.753906 12.601562 9.761719 C 12.585938 9.769531 12.574219 9.777344 12.5625 9.789062 C 12.550781 9.792969 12.535156 9.800781 12.523438 9.8125 C 12.511719 9.820312 12.503906 9.824219 12.492188 9.835938 C 12.457031 9.859375 12.421875 9.882812 12.394531 9.90625 C 12.378906 9.917969 12.367188 9.929688 12.351562 9.941406 C 12.335938 9.957031 12.320312 9.96875 12.308594 9.984375 C 12.289062 10.003906 12.273438 10.023438 12.257812 10.042969 C 12.230469 10.074219 12.210938 10.105469 12.199219 10.136719 C 12.195312 10.140625 12.195312 10.144531 12.191406 10.148438 C 12.191406 10.152344 12.191406 10.152344 12.191406 10.15625 C 12.1875 10.160156 12.1875 10.167969 12.183594 10.175781 L 12.183594 10.179688 C 12.175781 10.203125 12.175781 10.230469 12.1875 10.25 Z M 12.1875 10.25 " fill-opacity="1" fill-rule="nonzero"/><path fill="#2e2943" d="M 12.226562 10.167969 C 12.226562 10.167969 11.882812 10.386719 11.765625 10.753906 C 11.59375 11.292969 11.808594 11.953125 12.574219 11.90625 C 13.34375 11.863281 13.855469 11.746094 14.003906 11.441406 C 14.148438 11.136719 13.660156 9.652344 13.660156 9.652344 Z M 12.226562 10.167969 " fill-opacity="1" fill-rule="nonzero"/><path fill="#ed516f" d="M 13.050781 9.554688 C 13.074219 9.664062 13.15625 9.75 13.265625 9.773438 C 13.277344 9.777344 13.292969 9.78125 13.308594 9.78125 C 13.320312 9.785156 13.335938 9.785156 13.347656 9.785156 C 13.378906 9.78125 13.410156 9.773438 13.441406 9.761719 C 13.503906 9.738281 13.554688 9.691406 13.585938 9.632812 C 13.613281 9.585938 13.625 9.53125 13.621094 9.476562 C 13.621094 9.472656 13.621094 9.46875 13.621094 9.46875 C 13.566406 9.457031 13.496094 9.457031 13.417969 9.464844 C 13.359375 9.472656 13.296875 9.484375 13.226562 9.5 C 13.222656 9.503906 13.21875 9.503906 13.214844 9.503906 C 13.164062 9.515625 13.109375 9.535156 13.054688 9.550781 C 13.050781 9.554688 13.050781 9.554688 13.050781 9.554688 Z M 13.050781 9.554688 " fill-opacity="1" fill-rule="nonzero"/><path fill="#db8e63" d="M 13.402344 10.988281 C 13.402344 10.988281 13.625 11.796875 13.667969 11.878906 C 13.710938 11.960938 13.015625 12.320312 12.863281 12.285156 C 12.710938 12.246094 12.460938 11.929688 12.460938 11.929688 C 12.460938 11.929688 12.792969 11.203125 12.71875 10.976562 C 12.648438 10.753906 13.402344 10.988281 13.402344 10.988281 Z M 13.402344 10.988281 " fill-opacity="1" fill-rule="nonzero"/><path fill="#db8e63" d="M 12.511719 10.351562 C 12.519531 10.4375 12.53125 10.523438 12.546875 10.597656 C 12.570312 10.71875 12.597656 10.820312 12.628906 10.886719 C 12.761719 11.195312 13.035156 11.507812 13.34375 11.449219 C 13.753906 11.375 13.820312 10.710938 13.796875 10.375 C 13.792969 10.320312 13.785156 10.253906 13.777344 10.183594 C 13.757812 10.0625 13.730469 9.925781 13.675781 9.796875 C 13.652344 9.738281 13.621094 9.683594 13.585938 9.632812 C 13.542969 9.566406 13.488281 9.507812 13.421875 9.464844 C 13.359375 9.472656 13.296875 9.484375 13.226562 9.503906 C 13.222656 9.503906 13.21875 9.503906 13.214844 9.503906 C 13.164062 9.515625 13.109375 9.535156 13.054688 9.554688 C 13.054688 9.554688 13.050781 9.554688 13.050781 9.554688 C 13.046875 9.554688 13.042969 9.558594 13.035156 9.558594 C 13.007812 9.566406 12.980469 9.578125 12.953125 9.589844 C 12.953125 9.589844 12.953125 9.589844 12.949219 9.589844 C 12.917969 9.601562 12.886719 9.617188 12.855469 9.628906 C 12.832031 9.640625 12.808594 9.652344 12.785156 9.664062 C 12.765625 9.675781 12.742188 9.683594 12.722656 9.695312 C 12.699219 9.707031 12.671875 9.722656 12.648438 9.734375 C 12.632812 9.746094 12.617188 9.753906 12.601562 9.761719 C 12.589844 9.773438 12.574219 9.78125 12.5625 9.789062 C 12.558594 9.789062 12.554688 9.792969 12.550781 9.792969 C 12.5 9.964844 12.496094 10.164062 12.511719 10.351562 Z M 12.511719 10.351562 " fill-opacity="1" fill-rule="nonzero"/><path fill="#2e2943" d="M 13.335938 11.425781 C 13.21875 11.425781 13.0625 11.375 12.886719 11.179688 C 12.882812 11.179688 12.882812 11.175781 12.886719 11.171875 C 12.886719 11.171875 12.890625 11.171875 12.894531 11.175781 C 13.234375 11.554688 13.515625 11.371094 13.515625 11.367188 C 13.519531 11.367188 13.523438 11.367188 13.523438 11.367188 C 13.527344 11.371094 13.523438 11.375 13.523438 11.375 C 13.519531 11.375 13.449219 11.425781 13.335938 11.425781 Z M 13.335938 11.425781 " fill-opacity="1" fill-rule="nonzero"/><path fill="#2e2943" d="M 13.632812 10.40625 C 13.636719 10.445312 13.621094 10.46875 13.585938 10.472656 C 13.550781 10.476562 13.53125 10.457031 13.527344 10.414062 C 13.527344 10.371094 13.542969 10.347656 13.574219 10.347656 C 13.609375 10.34375 13.628906 10.363281 13.632812 10.40625 Z M 13.632812 10.40625 " fill-opacity="1" fill-rule="nonzero"/><path fill="#2e2943" d="M 13.371094 10.839844 C 13.367188 10.839844 13.363281 10.835938 13.363281 10.832031 C 13.359375 10.824219 13.363281 10.820312 13.371094 10.820312 L 13.386719 10.816406 C 13.398438 10.816406 13.410156 10.808594 13.417969 10.796875 C 13.421875 10.785156 13.425781 10.773438 13.417969 10.761719 L 13.394531 10.691406 C 13.390625 10.683594 13.394531 10.679688 13.402344 10.675781 C 13.40625 10.675781 13.410156 10.675781 13.414062 10.683594 L 13.441406 10.753906 C 13.445312 10.769531 13.445312 10.792969 13.433594 10.808594 C 13.425781 10.824219 13.410156 10.835938 13.390625 10.835938 L 13.375 10.839844 C 13.375 10.839844 13.371094 10.839844 13.371094 10.839844 Z M 13.371094 10.839844 " fill-opacity="1" fill-rule="nonzero"/><path fill="#2e2943" d="M 13.132812 10.300781 C 13.132812 10.300781 12.980469 10.28125 12.890625 10.378906 Z M 13.132812 10.300781 " fill-opacity="1" fill-rule="nonzero"/><path fill="#2e2943" d="M 13.46875 10.265625 C 13.46875 10.265625 13.574219 10.203125 13.699219 10.269531 Z M 13.46875 10.265625 " fill-opacity="1" fill-rule="nonzero"/><path fill="#2e2943" d="M 13.554688 10.351562 C 13.554688 10.351562 13.621094 10.308594 13.699219 10.351562 C 13.699219 10.351562 13.628906 10.351562 13.589844 10.375 Z M 13.554688 10.351562 " fill-opacity="1" fill-rule="nonzero"/><path fill="#2e2943" d="M 13.148438 10.53125 C 13.152344 10.570312 13.136719 10.59375 13.101562 10.597656 C 13.066406 10.601562 13.046875 10.582031 13.042969 10.539062 C 13.039062 10.496094 13.054688 10.472656 13.089844 10.472656 C 13.125 10.46875 13.144531 10.488281 13.148438 10.53125 Z M 13.148438 10.53125 " fill-opacity="1" fill-rule="nonzero"/><path fill="#2e2943" d="M 13.113281 10.472656 C 13.113281 10.472656 13.035156 10.441406 12.96875 10.496094 C 12.96875 10.496094 13.039062 10.484375 13.082031 10.5 Z M 13.113281 10.472656 " fill-opacity="1" fill-rule="nonzero"/><path fill="#2e2943" d="M 12.210938 10.105469 C 12.230469 10.1875 12.253906 10.265625 12.289062 10.335938 C 12.339844 10.449219 12.402344 10.539062 12.46875 10.582031 C 12.484375 10.59375 12.515625 10.597656 12.546875 10.597656 C 12.597656 10.601562 12.65625 10.589844 12.65625 10.589844 C 12.683594 10.535156 12.667969 10.394531 12.777344 10.300781 C 12.804688 10.277344 12.839844 10.253906 12.882812 10.238281 C 13.085938 10.164062 13.238281 9.914062 13.308594 9.78125 C 13.335938 9.730469 13.347656 9.695312 13.347656 9.695312 C 13.347656 9.695312 13.386719 9.714844 13.441406 9.761719 C 13.480469 9.792969 13.523438 9.835938 13.574219 9.894531 C 13.636719 9.964844 13.707031 10.058594 13.777344 10.183594 C 13.777344 10.183594 13.777344 10.1875 13.78125 10.191406 C 13.78125 10.191406 13.808594 9.933594 13.75 9.699219 C 13.726562 9.613281 13.695312 9.535156 13.644531 9.472656 C 13.636719 9.46875 13.628906 9.46875 13.621094 9.46875 C 13.566406 9.457031 13.5 9.457031 13.421875 9.464844 C 13.363281 9.472656 13.296875 9.484375 13.226562 9.5 C 13.222656 9.503906 13.21875 9.503906 13.214844 9.503906 C 13.164062 9.515625 13.109375 9.535156 13.054688 9.550781 C 13.054688 9.550781 13.050781 9.554688 13.050781 9.554688 C 13.046875 9.554688 13.042969 9.554688 13.035156 9.558594 C 13.007812 9.566406 12.980469 9.578125 12.953125 9.589844 C 12.921875 9.601562 12.890625 9.617188 12.855469 9.628906 C 12.832031 9.640625 12.808594 9.652344 12.785156 9.664062 C 12.765625 9.671875 12.742188 9.683594 12.722656 9.695312 C 12.699219 9.707031 12.671875 9.722656 12.648438 9.734375 C 12.632812 9.742188 12.617188 9.753906 12.601562 9.761719 C 12.589844 9.769531 12.578125 9.777344 12.5625 9.789062 C 12.558594 9.789062 12.554688 9.792969 12.550781 9.792969 C 12.542969 9.796875 12.535156 9.804688 12.527344 9.8125 C 12.515625 9.820312 12.503906 9.824219 12.492188 9.832031 C 12.457031 9.859375 12.425781 9.882812 12.394531 9.90625 C 12.378906 9.917969 12.367188 9.929688 12.355469 9.941406 C 12.339844 9.957031 12.324219 9.96875 12.308594 9.984375 C 12.289062 10.003906 12.273438 10.023438 12.257812 10.042969 C 12.238281 10.0625 12.222656 10.085938 12.210938 10.105469 Z M 12.210938 10.105469 " fill-opacity="1" fill-rule="nonzero"/><path fill="#2e2943" d="M 12.773438 10.183594 C 12.886719 10.1875 13 10.1875 13.109375 10.179688 C 13.132812 10.175781 13.152344 10.175781 13.171875 10.175781 L 13.175781 10.148438 L 13.183594 10.003906 L 13.21875 10.125 L 13.230469 10.167969 C 13.578125 10.136719 13.855469 10.074219 13.855469 10.074219 C 13.84375 9.921875 13.804688 9.785156 13.757812 9.679688 C 13.722656 9.59375 13.683594 9.523438 13.652344 9.472656 C 13.648438 9.472656 13.644531 9.472656 13.644531 9.472656 C 13.636719 9.46875 13.628906 9.46875 13.621094 9.46875 C 13.59375 9.460938 13.5625 9.460938 13.527344 9.460938 Z M 12.773438 10.183594 " fill-opacity="1" fill-rule="nonzero"/><path fill="#db8e63" d="M 12.605469 10.597656 C 12.605469 10.597656 12.390625 10.550781 12.398438 10.730469 C 12.40625 10.910156 12.703125 11.035156 12.703125 11.035156 Z M 12.605469 10.597656 " fill-opacity="1" fill-rule="nonzero"/><path fill="#2e2943" d="M 12.558594 10.707031 C 12.558594 10.707031 12.433594 10.734375 12.578125 10.863281 Z M 12.558594 10.707031 " fill-opacity="1" fill-rule="nonzero"/><path fill="#2e2943" d="M 13.535156 10.996094 C 13.53125 11.011719 13.527344 11.03125 13.519531 11.050781 C 13.503906 11.09375 13.472656 11.136719 13.441406 11.144531 C 13.421875 11.152344 13.394531 11.140625 13.367188 11.125 C 13.332031 11.105469 13.300781 11.074219 13.289062 11.046875 C 13.285156 11.035156 13.285156 11.023438 13.289062 11.015625 C 13.304688 10.980469 13.371094 10.996094 13.410156 10.992188 C 13.453125 10.988281 13.503906 10.953125 13.527344 10.964844 C 13.535156 10.96875 13.535156 10.980469 13.535156 10.996094 Z M 13.535156 10.996094 " fill-opacity="1" fill-rule="nonzero"/><path fill="#ed516f" d="M 13.519531 11.050781 C 13.503906 11.09375 13.472656 11.136719 13.441406 11.144531 C 13.421875 11.152344 13.394531 11.144531 13.367188 11.125 C 13.382812 11.097656 13.433594 11.023438 13.519531 11.050781 Z M 13.519531 11.050781 " fill-opacity="1" fill-rule="nonzero"/><path fill="#ffffff" d="M 13.535156 10.996094 C 13.507812 11.011719 13.46875 11.03125 13.433594 11.035156 C 13.390625 11.042969 13.316406 11.046875 13.289062 11.046875 C 13.285156 11.035156 13.285156 11.023438 13.285156 11.015625 C 13.304688 10.980469 13.371094 10.996094 13.410156 10.992188 C 13.453125 10.988281 13.5 10.953125 13.527344 10.964844 C 13.535156 10.96875 13.535156 10.980469 13.535156 10.996094 Z M 13.535156 10.996094 " fill-opacity="1" fill-rule="nonzero"/><path fill="#db8e63" d="M 13.679688 24.570312 L 13.65625 24.734375 L 13.273438 24.726562 L 12.914062 24.234375 L 12.730469 23.785156 L 13.289062 23.824219 C 13.296875 23.917969 13.308594 23.984375 13.320312 24.003906 C 13.375 24.097656 13.679688 24.570312 13.679688 24.570312 Z M 13.679688 24.570312 " fill-opacity="1" fill-rule="nonzero"/><path fill="#db8e63" d="M 13.289062 23.824219 L 13.363281 23.335938 L 12.699219 23.230469 L 12.730469 23.785156 L 13.113281 23.90625 Z M 13.289062 23.824219 " fill-opacity="1" fill-rule="nonzero"/><path fill="#2e2943" d="M 12.726562 23.785156 C 12.726562 23.785156 12.632812 23.855469 12.613281 24 C 12.589844 24.144531 12.648438 24.449219 12.605469 24.652344 L 12.792969 24.679688 L 12.84375 24.328125 L 13.167969 24.769531 L 13.265625 24.785156 L 14.019531 24.898438 C 14.019531 24.898438 14.070312 24.867188 14.039062 24.789062 C 14.003906 24.707031 13.683594 24.570312 13.683594 24.570312 C 13.683594 24.570312 13.644531 24.664062 13.46875 24.636719 C 13.296875 24.609375 12.753906 23.820312 12.730469 23.785156 C 12.726562 23.785156 12.726562 23.785156 12.726562 23.785156 Z M 12.726562 23.785156 " fill-opacity="1" fill-rule="nonzero"/><path fill="#db8e63" d="M 14.277344 15.222656 C 14.277344 15.222656 14.621094 16.082031 14.511719 17.046875 C 14.398438 18.015625 13.996094 20.171875 13.9375 20.546875 C 13.882812 20.925781 13.363281 23.335938 13.363281 23.335938 C 13.363281 23.335938 12.710938 23.769531 12.699219 23.230469 C 12.691406 22.90625 12.964844 19.835938 12.964844 19.835938 L 13.269531 15.300781 Z M 14.277344 15.222656 " fill-opacity="1" fill-rule="nonzero"/><path fill="#db8e63" d="M 12.355469 24.394531 C 12.355469 24.394531 12.367188 24.339844 12.390625 24.183594 C 12.414062 24.03125 12.421875 24 12.410156 23.882812 C 12.410156 23.878906 12.773438 22.839844 12.789062 22.765625 L 12.273438 22.691406 C 12.273438 22.761719 11.90625 23.6875 11.90625 23.730469 C 11.875 23.867188 11.832031 24.019531 11.800781 24.121094 C 11.726562 24.34375 11.789062 24.539062 11.789062 24.539062 C 11.789062 24.539062 11.738281 24.542969 11.804688 24.613281 C 11.867188 24.679688 12.175781 24.746094 12.25 24.722656 C 12.324219 24.703125 12.355469 24.394531 12.355469 24.394531 Z M 12.355469 24.394531 " fill-opacity="1" fill-rule="nonzero"/><path fill="#2e2943" d="M 12.359375 24.375 C 12.359375 24.375 12.292969 24.675781 12.085938 24.632812 C 11.996094 24.613281 11.882812 24.578125 11.835938 24.5 C 11.765625 24.386719 11.878906 23.886719 11.890625 23.792969 C 11.890625 23.792969 11.851562 23.835938 11.832031 23.929688 C 11.804688 24.050781 11.789062 24.109375 11.757812 24.230469 C 11.757812 24.234375 11.726562 24.328125 11.679688 24.546875 C 11.667969 24.609375 11.710938 24.820312 11.761719 24.851562 C 11.816406 24.886719 12.167969 24.996094 12.226562 24.964844 C 12.28125 24.933594 12.308594 24.765625 12.339844 24.648438 C 12.371094 24.527344 12.359375 24.375 12.359375 24.375 Z M 12.359375 24.375 " fill-opacity="1" fill-rule="nonzero"/><path fill="#db8e63" d="M 12.042969 15.140625 C 12.042969 15.140625 11.742188 16.074219 11.921875 17.179688 C 12.105469 18.285156 12.578125 20.035156 12.578125 20.035156 C 12.578125 20.035156 12.421875 20.433594 12.363281 20.785156 C 12.253906 21.441406 11.890625 23.792969 11.890625 23.792969 C 11.890625 23.792969 12.058594 23.613281 12.53125 23.5 C 12.53125 23.5 13.550781 20.609375 13.660156 20.117188 C 13.773438 19.628906 13.410156 17.007812 13.410156 17.007812 L 13.480469 15.183594 Z M 12.042969 15.140625 " fill-opacity="1" fill-rule="nonzero"/><path fill="#2e2943" d="M 12.617188 23.195312 C 12.613281 23.195312 12.613281 23.195312 12.613281 23.195312 C 12.609375 23.191406 12.605469 23.1875 12.609375 23.183594 C 12.617188 23.160156 13.542969 20.601562 13.652344 20.117188 C 13.761719 19.632812 13.40625 17.035156 13.402344 17.007812 C 13.402344 17.003906 13.40625 17 13.410156 17 C 13.414062 17 13.417969 17.003906 13.417969 17.007812 C 13.421875 17.035156 13.777344 19.632812 13.667969 20.121094 C 13.558594 20.605469 12.632812 23.164062 12.625 23.1875 C 12.621094 23.191406 12.621094 23.195312 12.617188 23.195312 Z M 12.617188 23.195312 " fill-opacity="1" fill-rule="nonzero"/><path fill="#6e59d3" d="M 12.640625 11.464844 C 12.640625 11.464844 12.023438 11.632812 11.859375 11.945312 C 11.699219 12.257812 12 12.546875 12.035156 13.472656 C 12.066406 14.398438 12.121094 14.691406 12.042969 15.140625 C 12.042969 15.140625 13.320312 15.40625 14.277344 15.222656 C 14.277344 15.222656 14.207031 14.800781 14.226562 14.234375 C 14.242188 13.671875 14.492188 13.332031 14.371094 12.90625 C 14.25 12.484375 14.148438 11.414062 14.148438 11.414062 L 13.519531 11.398438 C 13.519531 11.398438 13.71875 12.039062 13.378906 12.066406 C 13.042969 12.09375 12.640625 11.464844 12.640625 11.464844 Z M 12.640625 11.464844 " fill-opacity="1" fill-rule="nonzero"/><path fill="#ed516f" d="M 12.074219 14.871094 C 12.074219 14.871094 12.023438 15.28125 11.929688 15.507812 C 11.765625 15.902344 11.523438 16.4375 11.550781 17.265625 C 11.574219 18.070312 11.621094 18.417969 11.613281 18.855469 C 11.59375 19.699219 11.359375 20.621094 11.359375 20.621094 L 11.8125 20.675781 C 11.8125 20.675781 11.738281 21.132812 11.773438 21.15625 C 11.8125 21.179688 14.066406 21.648438 14.933594 21.246094 C 14.933594 21.246094 14.777344 19.574219 14.867188 18.320312 C 14.929688 17.445312 14.589844 16.230469 14.417969 15.566406 C 14.34375 15.28125 14.355469 15.085938 14.355469 15.085938 C 14.355469 15.085938 12.796875 15.128906 12.074219 14.871094 Z M 12.074219 14.871094 " fill-opacity="1" fill-rule="nonzero"/><path fill="#2e2943" d="M 11.8125 20.6875 C 11.808594 20.6875 11.808594 20.6875 11.808594 20.6875 C 11.800781 20.6875 11.792969 20.679688 11.796875 20.671875 C 11.796875 20.660156 12.027344 19.660156 12.0625 18.796875 C 12.0625 18.789062 12.070312 18.78125 12.078125 18.78125 C 12.085938 18.785156 12.089844 18.789062 12.089844 18.796875 C 12.054688 19.664062 11.828125 20.667969 11.824219 20.675781 C 11.824219 20.683594 11.816406 20.6875 11.8125 20.6875 Z M 11.8125 20.6875 " fill-opacity="1" fill-rule="nonzero"/><path fill="#2e2943" d="M 14.394531 20.84375 C 14.390625 20.84375 14.382812 20.839844 14.382812 20.832031 C 14.351562 20.703125 14.390625 19.390625 14.410156 19.351562 C 14.410156 19.34375 14.421875 19.339844 14.429688 19.339844 C 14.4375 19.34375 14.4375 19.351562 14.4375 19.359375 C 14.421875 19.410156 14.382812 20.707031 14.410156 20.824219 C 14.410156 20.832031 14.40625 20.839844 14.398438 20.84375 C 14.398438 20.84375 14.398438 20.84375 14.394531 20.84375 Z M 14.394531 20.84375 " fill-opacity="1" fill-rule="nonzero"/><path fill="#2e2943" d="M 14.105469 20.40625 C 14.097656 20.40625 14.09375 20.402344 14.089844 20.394531 C 14.0625 20.265625 14.101562 18.957031 14.121094 18.914062 C 14.121094 18.90625 14.132812 18.902344 14.140625 18.90625 C 14.148438 18.910156 14.152344 18.917969 14.148438 18.925781 C 14.132812 18.972656 14.09375 20.273438 14.121094 20.390625 C 14.121094 20.398438 14.117188 20.40625 14.109375 20.40625 C 14.109375 20.40625 14.105469 20.40625 14.105469 20.40625 Z M 14.105469 20.40625 " fill-opacity="1" fill-rule="nonzero"/><path fill="#db8e63" d="M 11.859375 11.945312 C 11.859375 11.945312 11.570312 12.214844 11.433594 12.890625 C 11.292969 13.566406 11.140625 14.519531 11.078125 14.695312 C 11.019531 14.867188 10.609375 16.921875 10.609375 16.921875 L 11.050781 16.921875 C 11.050781 16.921875 11.539062 15.863281 11.71875 15.007812 C 11.84375 14.433594 12.121094 13.351562 12.121094 13.351562 L 12.269531 12.230469 Z M 11.859375 11.945312 " fill-opacity="1" fill-rule="nonzero"/><path fill="#6e59d3" d="M 12.082031 13.636719 C 11.777344 13.734375 11.304688 13.457031 11.304688 13.457031 C 11.304688 13.457031 11.472656 12.179688 11.941406 11.839844 L 12.375 12.089844 L 12.425781 12.625 Z M 12.082031 13.636719 " fill-opacity="1" fill-rule="nonzero"/><path fill="#2e2943" d="M 12.089844 13.613281 C 12.085938 13.613281 12.085938 13.613281 12.082031 13.609375 C 12.074219 13.609375 12.070312 13.601562 12.074219 13.59375 L 12.21875 13.050781 C 12.222656 13.042969 12.230469 13.039062 12.238281 13.039062 C 12.246094 13.042969 12.25 13.050781 12.25 13.058594 L 12.101562 13.601562 C 12.101562 13.605469 12.09375 13.613281 12.089844 13.613281 Z M 12.089844 13.613281 " fill-opacity="1" fill-rule="nonzero"/><path fill="#2e2943" d="M 12.054688 15.035156 C 12.054688 15.035156 13.222656 15.394531 14.355469 15.183594 L 14.40625 15.480469 C 14.40625 15.480469 13.179688 15.679688 11.988281 15.308594 Z M 12.054688 15.035156 " fill-opacity="1" fill-rule="nonzero"/><path fill="#ffffff" d="M 13.394531 15.570312 C 13.390625 15.570312 13.386719 15.570312 13.382812 15.570312 L 13.066406 15.542969 L 13.09375 15.203125 L 13.40625 15.230469 C 13.5 15.238281 13.570312 15.320312 13.5625 15.414062 C 13.558594 15.5 13.480469 15.570312 13.394531 15.570312 Z M 13.382812 15.535156 C 13.457031 15.542969 13.523438 15.484375 13.53125 15.410156 C 13.535156 15.335938 13.480469 15.269531 13.40625 15.261719 L 13.125 15.242188 L 13.101562 15.515625 Z M 13.382812 15.535156 " fill-opacity="1" fill-rule="nonzero"/><path fill="#ffffff" d="M 12.996094 15.386719 L 13.003906 15.339844 L 13.183594 15.359375 L 13.175781 15.40625 Z M 12.996094 15.386719 " fill-opacity="1" fill-rule="nonzero"/><path fill="#db8e63" d="M 14.121094 16.84375 C 14.121094 16.84375 13.988281 17.308594 13.996094 17.410156 C 14.007812 17.515625 14.144531 17.828125 14.199219 17.863281 C 14.25 17.902344 14.394531 17.945312 14.515625 17.945312 C 14.632812 17.949219 14.738281 17.890625 14.734375 17.867188 C 14.726562 17.84375 14.652344 17.789062 14.585938 17.792969 C 14.585938 17.792969 14.691406 17.75 14.664062 17.703125 C 14.640625 17.65625 14.554688 17.710938 14.484375 17.71875 C 14.414062 17.726562 14.296875 17.65625 14.28125 17.582031 C 14.261719 17.507812 14.320312 17.328125 14.320312 17.328125 C 14.320312 17.328125 14.496094 17.273438 14.566406 17.199219 C 14.628906 17.128906 14.621094 16.972656 14.582031 16.839844 C 14.542969 16.707031 14.121094 16.84375 14.121094 16.84375 Z M 14.121094 16.84375 " fill-opacity="1" fill-rule="nonzero"/><path fill="#db8e63" d="M 14.320312 17.328125 C 14.320312 17.328125 14.375 17.464844 14.386719 17.542969 C 14.398438 17.621094 14.417969 17.757812 14.507812 17.738281 C 14.601562 17.714844 14.585938 17.5625 14.554688 17.433594 C 14.523438 17.300781 14.585938 17.167969 14.585938 17.167969 L 14.347656 17.105469 Z M 14.320312 17.328125 " fill-opacity="1" fill-rule="nonzero"/><path fill="#2e2943" d="M 14.449219 17.820312 C 14.382812 17.820312 14.3125 17.808594 14.289062 17.761719 C 14.238281 17.671875 14.234375 17.628906 14.234375 17.628906 C 14.230469 17.621094 14.238281 17.613281 14.242188 17.613281 C 14.25 17.613281 14.257812 17.617188 14.257812 17.625 C 14.257812 17.625 14.261719 17.664062 14.308594 17.75 C 14.34375 17.816406 14.519531 17.796875 14.585938 17.78125 C 14.589844 17.78125 14.597656 17.785156 14.597656 17.792969 C 14.601562 17.796875 14.597656 17.804688 14.589844 17.804688 C 14.582031 17.804688 14.519531 17.820312 14.449219 17.820312 Z M 14.449219 17.820312 " fill-opacity="1" fill-rule="nonzero"/><path fill="#a2a2ed" d="M 14.269531 11.105469 C 14.269531 11.105469 14.019531 11.246094 14.019531 12.089844 C 14.019531 12.933594 14.089844 13.984375 14.089844 13.984375 C 14.089844 13.984375 14.046875 15.007812 14.046875 15.625 C 14.046875 16.238281 14.128906 16.507812 14.128906 16.507812 L 14.074219 16.96875 C 14.074219 16.96875 14.421875 16.78125 14.605469 16.964844 C 14.605469 16.964844 14.644531 16.679688 14.628906 16.5 C 14.628906 16.5 14.808594 16.308594 14.785156 15.894531 C 14.761719 15.476562 14.957031 14.355469 14.957031 14.355469 L 14.824219 13.25 L 14.664062 11.601562 Z M 14.269531 11.105469 " fill-opacity="1" fill-rule="nonzero"/><path fill="#2e2943" d="M 14.128906 16.519531 C 14.125 16.519531 14.121094 16.519531 14.117188 16.511719 C 14.113281 16.503906 14.117188 16.496094 14.121094 16.492188 C 14.128906 16.492188 14.246094 16.429688 14.492188 16.480469 C 14.503906 16.480469 14.507812 16.488281 14.507812 16.496094 C 14.503906 16.503906 14.496094 16.511719 14.488281 16.507812 C 14.253906 16.460938 14.136719 16.519531 14.136719 16.519531 C 14.136719 16.519531 14.132812 16.519531 14.128906 16.519531 Z M 14.128906 16.519531 " fill-opacity="1" fill-rule="nonzero"/><path fill="#db8e63" d="M 15.089844 10.628906 C 15.101562 10.726562 15.308594 11.117188 15.585938 11.214844 C 15.976562 11.347656 16.46875 11.113281 16.5 10.441406 C 16.496094 10.429688 16.039062 9.082031 16.035156 9.066406 C 16.035156 9.066406 15.492188 9.113281 15.492188 9.113281 C 15.21875 9.277344 15.636719 9.421875 15.363281 9.585938 C 15.363281 9.585938 15.265625 10.183594 15.265625 10.183594 C 15.265625 10.183594 15.265625 10.1875 15.265625 10.191406 C 15.269531 10.210938 15.277344 10.277344 15.269531 10.335938 C 15.269531 10.339844 15.269531 10.339844 15.269531 10.34375 C 15.265625 10.382812 15.257812 10.421875 15.238281 10.445312 C 15.226562 10.460938 15.214844 10.476562 15.203125 10.488281 C 15.144531 10.5625 15.085938 10.597656 15.089844 10.628906 Z M 15.089844 10.628906 " fill-opacity="1" fill-rule="nonzero"/><path fill="#db8e63" d="M 14.917969 9.539062 C 14.972656 9.984375 15.101562 10.4375 15.523438 10.414062 C 15.820312 10.402344 16.144531 10.023438 16.246094 9.65625 C 16.296875 9.46875 16.347656 9.304688 16.359375 9.175781 C 16.367188 9.078125 16.371094 9.011719 16.371094 9.011719 L 16.320312 8.789062 L 16.292969 8.65625 C 16.292969 8.65625 16.207031 8.570312 16.113281 8.472656 C 15.992188 8.351562 15.773438 8.484375 15.773438 8.476562 C 15.765625 8.464844 15.191406 8.320312 14.980469 8.539062 C 14.960938 8.558594 14.945312 8.578125 14.933594 8.601562 C 14.925781 8.617188 14.921875 8.636719 14.917969 8.65625 C 14.914062 8.691406 14.910156 8.746094 14.90625 8.816406 C 14.90625 8.84375 14.902344 8.878906 14.902344 8.910156 C 14.898438 8.96875 14.898438 9.03125 14.894531 9.09375 C 14.894531 9.230469 14.902344 9.386719 14.917969 9.539062 Z M 14.917969 9.539062 " fill-opacity="1" fill-rule="nonzero"/><path fill="#2e2943" d="M 15.496094 10.425781 C 15.425781 10.425781 15.363281 10.414062 15.304688 10.386719 C 15.296875 10.382812 15.296875 10.378906 15.296875 10.371094 C 15.300781 10.367188 15.308594 10.363281 15.3125 10.367188 C 15.375 10.394531 15.445312 10.40625 15.523438 10.402344 C 15.699219 10.394531 15.902344 10.25 16.0625 10.019531 C 16.066406 10.015625 16.070312 10.011719 16.074219 10.015625 C 16.082031 10.019531 16.082031 10.027344 16.078125 10.03125 C 15.914062 10.269531 15.707031 10.417969 15.523438 10.425781 C 15.515625 10.425781 15.507812 10.425781 15.496094 10.425781 Z M 15.496094 10.425781 " fill-opacity="1" fill-rule="nonzero"/><path fill="#2e2943" d="M 16.285156 9.628906 C 16.285156 9.648438 16.847656 8.867188 16.691406 8.460938 C 16.53125 8.050781 16.21875 8.136719 16.21875 8.136719 C 16.21875 8.136719 15.953125 7.308594 15.203125 7.90625 C 15.203125 7.90625 14.769531 7.992188 14.695312 8.351562 C 14.621094 8.707031 14.902344 8.910156 14.902344 8.910156 C 14.902344 8.910156 14.914062 8.609375 15.113281 8.617188 C 15.253906 8.621094 15.15625 8.765625 15.542969 8.707031 C 15.78125 8.671875 15.855469 8.515625 15.988281 8.601562 C 16.117188 8.6875 16.003906 8.742188 16.082031 9.15625 C 16.128906 9.410156 16.308594 9.429688 16.285156 9.628906 Z M 16.285156 9.628906 " fill-opacity="1" fill-rule="nonzero"/><path fill="#e8d2c4" d="M 15.378906 8.558594 C 15.363281 8.558594 15.34375 8.558594 15.328125 8.558594 L 15.328125 8.546875 C 15.640625 8.5625 15.847656 8.421875 15.910156 8.34375 L 15.917969 8.351562 C 15.917969 8.355469 15.742188 8.558594 15.378906 8.558594 Z M 15.378906 8.558594 " fill-opacity="1" fill-rule="nonzero"/><path fill="#e8d2c4" d="M 14.917969 8.515625 L 14.90625 8.507812 C 15.03125 8.382812 15.121094 8.40625 15.25 8.4375 L 15.261719 8.441406 C 15.394531 8.472656 15.710938 8.359375 15.710938 8.359375 L 15.71875 8.371094 C 15.703125 8.378906 15.394531 8.488281 15.257812 8.453125 L 15.246094 8.449219 C 15.117188 8.417969 15.035156 8.394531 14.917969 8.515625 Z M 14.917969 8.515625 " fill-opacity="1" fill-rule="nonzero"/><path fill="#e8d2c4" d="M 16.054688 8.394531 L 16.042969 8.386719 C 16.109375 8.324219 16.210938 8.132812 16.210938 8.132812 L 16.222656 8.140625 C 16.21875 8.144531 16.121094 8.332031 16.054688 8.394531 Z M 16.054688 8.394531 " fill-opacity="1" fill-rule="nonzero"/><path fill="#db8e63" d="M 16.234375 9.246094 C 16.234375 9.246094 16.5 9.09375 16.476562 9.355469 C 16.453125 9.613281 16.199219 9.710938 16.199219 9.710938 Z M 16.234375 9.246094 " fill-opacity="1" fill-rule="nonzero"/><path fill="#2e2943" d="M 16.289062 9.335938 C 16.289062 9.335938 16.496094 9.285156 16.277344 9.550781 Z M 16.289062 9.335938 " fill-opacity="1" fill-rule="nonzero"/><path fill="#f9e8de" d="M 15.636719 9.957031 L 15.316406 10.003906 C 15.316406 10.003906 15.488281 10.230469 15.636719 9.957031 Z M 15.636719 9.957031 " fill-opacity="1" fill-rule="nonzero"/><path fill="#2e2943" d="M 15.21875 9.449219 C 15.230469 9.496094 15.21875 9.523438 15.195312 9.527344 C 15.167969 9.535156 15.148438 9.515625 15.136719 9.46875 C 15.128906 9.421875 15.136719 9.398438 15.164062 9.390625 C 15.1875 9.386719 15.207031 9.40625 15.21875 9.449219 Z M 15.21875 9.449219 " fill-opacity="1" fill-rule="nonzero"/><path fill="#2e2943" d="M 15.699219 9.398438 C 15.710938 9.445312 15.703125 9.46875 15.675781 9.476562 C 15.648438 9.484375 15.628906 9.460938 15.621094 9.417969 C 15.609375 9.371094 15.617188 9.34375 15.644531 9.339844 C 15.671875 9.332031 15.691406 9.351562 15.699219 9.398438 Z M 15.699219 9.398438 " fill-opacity="1" fill-rule="nonzero"/><path fill="#2e2943" d="M 15.214844 9.230469 C 15.214844 9.230469 15.09375 9.140625 14.992188 9.195312 Z M 15.214844 9.230469 " fill-opacity="1" fill-rule="nonzero"/><path fill="#2e2943" d="M 15.820312 9.148438 C 15.8125 9.148438 15.660156 9.125 15.570312 9.222656 Z M 15.820312 9.148438 " fill-opacity="1" fill-rule="nonzero"/><path fill="#2e2943" d="M 15.40625 9.769531 C 15.371094 9.769531 15.355469 9.75 15.347656 9.738281 C 15.332031 9.703125 15.355469 9.652344 15.386719 9.632812 C 15.390625 9.628906 15.398438 9.628906 15.402344 9.636719 C 15.40625 9.640625 15.402344 9.648438 15.398438 9.648438 C 15.375 9.667969 15.359375 9.707031 15.371094 9.730469 C 15.378906 9.75 15.410156 9.75 15.457031 9.738281 C 15.464844 9.734375 15.46875 9.738281 15.472656 9.746094 C 15.472656 9.75 15.46875 9.757812 15.464844 9.757812 C 15.441406 9.765625 15.421875 9.769531 15.40625 9.769531 Z M 15.40625 9.769531 " fill-opacity="1" fill-rule="nonzero"/><path fill="#2e2943" d="M 14.683594 15.417969 C 14.683594 15.417969 14.550781 16.214844 14.675781 17.085938 C 14.800781 17.953125 15.492188 21.003906 15.492188 21.003906 C 15.492188 21.003906 15.550781 21.777344 15.664062 22.554688 C 15.78125 23.328125 15.953125 23.628906 15.953125 23.628906 C 15.953125 23.628906 15.964844 23.757812 16.035156 23.988281 C 16.035156 23.988281 16.605469 24.339844 17.019531 24.0625 L 16.691406 20.714844 L 16.703125 19.5625 L 16.527344 17.082031 L 16.132812 15.652344 Z M 14.683594 15.417969 " fill-opacity="1" fill-rule="nonzero"/><path fill="#2e2943" d="M 17.796875 15.683594 C 17.796875 15.683594 18.007812 16.5625 17.984375 17.441406 C 17.960938 18.320312 17.765625 20.148438 17.765625 20.148438 C 17.765625 20.148438 17.925781 20.933594 17.949219 21.894531 C 17.972656 22.851562 17.804688 23.894531 17.804688 23.894531 C 17.804688 23.894531 17.21875 24.203125 16.871094 24 C 16.871094 24 16.664062 21.511719 16.558594 20.839844 C 16.457031 20.171875 16.386719 19.683594 16.320312 18.816406 C 16.25 17.949219 16.019531 15.636719 16.019531 15.636719 Z M 17.796875 15.683594 " fill-opacity="1" fill-rule="nonzero"/><path fill="#f9e8de" d="M 16.859375 24 C 16.859375 23.976562 16.652344 21.507812 16.550781 20.84375 C 16.449219 20.191406 16.378906 19.699219 16.308594 18.820312 C 16.242188 17.960938 16.011719 15.664062 16.011719 15.640625 L 16.03125 15.636719 C 16.035156 15.660156 16.261719 17.960938 16.332031 18.816406 C 16.398438 19.699219 16.472656 20.191406 16.570312 20.839844 C 16.675781 21.503906 16.878906 23.972656 16.882812 24 Z M 16.859375 24 " fill-opacity="1" fill-rule="nonzero"/><path fill="#db8e63" d="M 18.363281 14.886719 L 18.238281 15.285156 C 18.238281 15.285156 18.238281 15.285156 18.238281 15.289062 L 18.238281 15.292969 C 18.230469 15.328125 18.191406 15.480469 18.105469 15.457031 C 18.007812 15.429688 18.035156 15.355469 18.054688 15.285156 C 18.074219 15.21875 18.089844 15.085938 18.128906 14.859375 C 18.140625 14.773438 18.160156 14.707031 18.175781 14.65625 Z M 18.363281 14.886719 " fill-opacity="1" fill-rule="nonzero"/><path fill="#a2a2ed" d="M 16.355469 9.996094 C 16.355469 9.996094 17.480469 10.179688 17.835938 10.355469 C 17.835938 10.355469 17.789062 12.113281 17.847656 13.128906 C 17.90625 14.148438 17.882812 14.839844 17.789062 15.074219 C 17.789062 15.074219 17.917969 15.472656 17.898438 15.707031 C 17.898438 15.707031 16.640625 15.761719 15.769531 15.738281 C 14.894531 15.714844 14.683594 15.417969 14.683594 15.417969 L 14.703125 15.027344 C 14.703125 15.027344 14.746094 14.75 14.75 14.226562 C 14.757812 13.707031 14.648438 13.226562 14.585938 12.660156 C 14.523438 12.09375 14.269531 11.105469 14.269531 11.105469 L 15.269531 10.363281 C 15.269531 10.363281 15.347656 11.050781 15.636719 11.054688 C 16.113281 11.0625 16.355469 9.996094 16.355469 9.996094 Z M 16.355469 9.996094 " fill-opacity="1" fill-rule="nonzero"/><path fill="#2e2943" d="M 14.683594 15.398438 C 14.675781 15.398438 14.667969 15.390625 14.667969 15.382812 C 14.667969 15.378906 14.730469 14.742188 14.734375 14.226562 C 14.738281 13.878906 14.660156 13.335938 14.59375 12.855469 C 14.558594 12.625 14.527344 12.402344 14.507812 12.21875 C 14.507812 12.210938 14.511719 12.203125 14.519531 12.203125 C 14.527344 12.203125 14.535156 12.207031 14.535156 12.214844 C 14.558594 12.398438 14.589844 12.617188 14.621094 12.851562 C 14.691406 13.332031 14.769531 13.875 14.765625 14.226562 C 14.761719 14.742188 14.699219 15.378906 14.699219 15.386719 C 14.699219 15.394531 14.691406 15.398438 14.683594 15.398438 Z M 14.683594 15.398438 " fill-opacity="1" fill-rule="nonzero"/><path fill="#ffffff" d="M 14.960938 13.125 L 14.929688 13.121094 C 14.929688 13.117188 14.953125 12.773438 14.929688 12.347656 L 14.960938 12.347656 C 14.984375 12.773438 14.960938 13.121094 14.960938 13.125 Z M 14.960938 13.125 " fill-opacity="1" fill-rule="nonzero"/><path fill="#ffffff" d="M 15.925781 13.21875 L 15.90625 13.199219 C 15.925781 13.175781 15.929688 13.121094 15.9375 13.027344 C 15.949219 12.882812 15.972656 12.644531 16.078125 12.257812 L 16.109375 12.265625 C 16.003906 12.648438 15.984375 12.886719 15.972656 13.03125 C 15.964844 13.132812 15.957031 13.191406 15.925781 13.21875 Z M 15.925781 13.21875 " fill-opacity="1" fill-rule="nonzero"/><path fill="#2e2943" d="M 16.09375 12.296875 C 16.09375 12.296875 16.09375 12.296875 16.089844 12.296875 C 16.074219 12.292969 16.058594 12.277344 16.0625 12.257812 C 16.132812 11.582031 16.242188 11.160156 16.320312 10.855469 C 16.417969 10.464844 16.484375 10.300781 16.347656 10.023438 C 16.339844 10.007812 16.328125 9.929688 16.328125 9.929688 C 16.355469 9.941406 16.375 9.964844 16.382812 9.980469 C 16.53125 10.277344 16.480469 10.476562 16.378906 10.871094 C 16.304688 11.175781 16.195312 11.59375 16.125 12.265625 C 16.125 12.28125 16.109375 12.296875 16.09375 12.296875 Z M 16.09375 12.296875 " fill-opacity="1" fill-rule="nonzero"/><path fill="#ffffff" d="M 14.996094 13.191406 L 14.996094 13.8125 C 14.996094 13.828125 15.011719 13.84375 15.027344 13.84375 L 15.984375 13.84375 C 16.003906 13.84375 16.015625 13.828125 16.015625 13.8125 L 16.015625 13.191406 C 16.015625 13.171875 16.003906 13.160156 15.984375 13.160156 L 15.027344 13.160156 C 15.011719 13.160156 14.996094 13.171875 14.996094 13.191406 Z M 14.996094 13.191406 " fill-opacity="1" fill-rule="nonzero"/><path fill="#ffffff" d="M 16.007812 13.171875 L 15.914062 13.089844 L 15.886719 13.15625 L 15.953125 13.199219 Z M 16.007812 13.171875 " fill-opacity="1" fill-rule="nonzero"/><path fill="#ffffff" d="M 15 13.828125 L 14.914062 13.757812 L 15 13.730469 C 15 13.730469 15.039062 13.75 15.039062 13.753906 C 15.039062 13.761719 15 13.828125 15 13.828125 Z M 15 13.828125 " fill-opacity="1" fill-rule="nonzero"/><path fill="#ffffff" d="M 14.90625 13.113281 L 14.90625 13.730469 C 14.90625 13.75 14.917969 13.765625 14.9375 13.765625 L 15.890625 13.765625 C 15.910156 13.765625 15.925781 13.75 15.925781 13.730469 L 15.925781 13.113281 C 15.925781 13.09375 15.910156 13.082031 15.890625 13.082031 L 14.9375 13.082031 C 14.917969 13.082031 14.90625 13.09375 14.90625 13.113281 Z M 14.90625 13.113281 " fill-opacity="1" fill-rule="nonzero"/><path fill="#2e2943" d="M 15.890625 13.769531 L 14.9375 13.769531 C 14.933594 13.769531 14.929688 13.765625 14.929688 13.765625 C 14.929688 13.761719 14.933594 13.757812 14.9375 13.757812 L 15.890625 13.757812 C 15.90625 13.757812 15.917969 13.746094 15.917969 13.730469 L 15.917969 13.113281 C 15.917969 13.109375 15.921875 13.109375 15.925781 13.109375 C 15.925781 13.109375 15.929688 13.109375 15.929688 13.113281 L 15.929688 13.730469 C 15.929688 13.753906 15.910156 13.769531 15.890625 13.769531 Z M 15.890625 13.769531 " fill-opacity="1" fill-rule="nonzero"/><path fill="#2e2943" d="M 14.90625 13.269531 L 15.925781 13.269531 L 15.925781 13.664062 L 14.90625 13.664062 Z M 14.90625 13.269531 " fill-opacity="1" fill-rule="nonzero"/><path fill="#2e2943" d="M 15.527344 13.46875 C 15.527344 13.542969 15.503906 13.605469 15.453125 13.660156 C 15.402344 13.710938 15.339844 13.738281 15.269531 13.738281 C 15.199219 13.738281 15.140625 13.710938 15.089844 13.660156 C 15.039062 13.605469 15.015625 13.542969 15.015625 13.46875 C 15.015625 13.390625 15.039062 13.328125 15.089844 13.273438 C 15.140625 13.222656 15.199219 13.195312 15.269531 13.195312 C 15.339844 13.195312 15.402344 13.222656 15.453125 13.273438 C 15.503906 13.328125 15.527344 13.390625 15.527344 13.46875 Z M 15.527344 13.46875 " fill-opacity="1" fill-rule="nonzero"/><path fill="#ffffff" d="M 15.488281 13.46875 C 15.488281 13.621094 15.414062 13.695312 15.269531 13.695312 C 15.125 13.695312 15.054688 13.621094 15.054688 13.46875 C 15.054688 13.316406 15.125 13.238281 15.269531 13.238281 C 15.414062 13.238281 15.488281 13.316406 15.488281 13.46875 Z M 15.488281 13.46875 " fill-opacity="1" fill-rule="nonzero"/><path fill="#2e2943" d="M 15.441406 13.46875 C 15.441406 13.585938 15.382812 13.648438 15.269531 13.648438 C 15.15625 13.648438 15.101562 13.585938 15.101562 13.46875 C 15.101562 13.347656 15.15625 13.285156 15.269531 13.285156 C 15.382812 13.285156 15.441406 13.347656 15.441406 13.46875 Z M 15.441406 13.46875 " fill-opacity="1" fill-rule="nonzero"/><path fill="#ffffff" d="M 14.988281 13.175781 L 15.0625 13.175781 C 15.078125 13.175781 15.089844 13.164062 15.089844 13.148438 C 15.089844 13.136719 15.078125 13.125 15.0625 13.125 L 14.988281 13.125 C 14.972656 13.125 14.960938 13.136719 14.960938 13.148438 C 14.960938 13.164062 14.972656 13.175781 14.988281 13.175781 Z M 14.988281 13.175781 " fill-opacity="1" fill-rule="nonzero"/><path fill="#2e2943" d="M 15.824219 13.171875 C 15.824219 13.195312 15.8125 13.207031 15.789062 13.207031 C 15.765625 13.207031 15.75 13.195312 15.75 13.171875 C 15.75 13.148438 15.765625 13.136719 15.789062 13.136719 C 15.8125 13.136719 15.824219 13.148438 15.824219 13.171875 Z M 15.824219 13.171875 " fill-opacity="1" fill-rule="nonzero"/><path fill="#ffffff" d="M 15.113281 13.125 L 15.496094 13.125 L 15.425781 13.007812 L 15.183594 13.007812 Z M 15.113281 13.125 " fill-opacity="1" fill-rule="nonzero"/><path fill="#ffffff" d="M 15.210938 13.371094 C 15.210938 13.386719 15.203125 13.394531 15.191406 13.394531 C 15.179688 13.394531 15.171875 13.386719 15.171875 13.371094 C 15.171875 13.359375 15.179688 13.351562 15.191406 13.351562 C 15.203125 13.351562 15.210938 13.359375 15.210938 13.371094 Z M 15.210938 13.371094 " fill-opacity="1" fill-rule="nonzero"/><path fill="#2e2943" d="M 14.945312 12.378906 C 14.929688 12.378906 14.914062 12.367188 14.914062 12.351562 C 14.90625 12.242188 14.898438 12.136719 14.886719 12.039062 C 14.824219 11.453125 15.007812 10.667969 15.222656 10.320312 L 15.269531 10.355469 C 15.0625 10.695312 14.886719 11.460938 14.953125 12.03125 C 14.964844 12.132812 14.972656 12.238281 14.976562 12.347656 C 14.980469 12.363281 14.964844 12.378906 14.949219 12.382812 C 14.945312 12.378906 14.945312 12.378906 14.945312 12.378906 Z M 14.945312 12.378906 " fill-opacity="1" fill-rule="nonzero"/><path fill="#ed516f" d="M 20.46875 18.851562 C 20.46875 18.851562 20.738281 18.808594 20.867188 18.902344 C 20.996094 18.996094 21.261719 20.09375 21.238281 20.367188 L 21.285156 20.921875 C 21.285156 20.921875 21.417969 20.90625 21.453125 21.113281 C 21.488281 21.320312 21.699219 23.410156 21.519531 23.726562 C 21.34375 24.046875 20.921875 24.070312 20.921875 24.070312 L 20.558594 21.871094 Z M 20.46875 18.851562 " fill-opacity="1" fill-rule="nonzero"/><path fill="#2e2943" d="M 19.710938 24.769531 C 19.710938 24.925781 19.632812 25.003906 19.480469 25.003906 C 19.328125 25.003906 19.25 24.925781 19.25 24.769531 C 19.25 24.617188 19.328125 24.539062 19.480469 24.539062 C 19.632812 24.539062 19.710938 24.617188 19.710938 24.769531 Z M 19.710938 24.769531 " fill-opacity="1" fill-rule="nonzero"/><path fill="#2e2943" d="M 19.550781 24.183594 C 19.550781 24.183594 19.542969 24.375 19.515625 24.476562 L 19.515625 24.582031 C 19.515625 24.582031 19.625 24.730469 19.578125 24.824219 C 19.535156 24.917969 19.265625 24.699219 19.230469 24.640625 C 19.199219 24.582031 19.175781 24.308594 19.175781 24.308594 Z M 19.550781 24.183594 " fill-opacity="1" fill-rule="nonzero"/><path fill="#2e2943" d="M 21.050781 24.734375 C 21.050781 24.890625 20.976562 24.96875 20.820312 24.96875 C 20.667969 24.96875 20.589844 24.890625 20.589844 24.734375 C 20.589844 24.582031 20.667969 24.503906 20.820312 24.503906 C 20.976562 24.503906 21.050781 24.582031 21.050781 24.734375 Z M 21.050781 24.734375 " fill-opacity="1" fill-rule="nonzero"/><path fill="#2e2943" d="M 20.890625 24.144531 C 20.890625 24.144531 20.882812 24.335938 20.855469 24.441406 L 20.855469 24.546875 C 20.855469 24.546875 20.964844 24.691406 20.921875 24.789062 C 20.875 24.882812 20.605469 24.660156 20.574219 24.605469 C 20.539062 24.546875 20.515625 24.273438 20.515625 24.273438 Z M 20.890625 24.144531 " fill-opacity="1" fill-rule="nonzero"/><path fill="#ed516f" d="M 20.945312 24.132812 C 20.761719 24.3125 19.746094 24.460938 19.308594 24.390625 C 19.21875 24.375 19.152344 24.351562 19.125 24.320312 C 18.980469 24.160156 18.6875 20.875 18.652344 19.480469 C 18.648438 19.386719 18.648438 19.300781 18.648438 19.222656 C 18.648438 19.023438 18.65625 18.894531 18.675781 18.867188 C 18.730469 18.796875 18.960938 18.734375 19.234375 18.691406 C 19.703125 18.617188 20.300781 18.597656 20.394531 18.691406 C 20.539062 18.835938 20.570312 19.316406 20.734375 20.605469 C 20.902344 21.890625 20.945312 24.132812 20.945312 24.132812 Z M 20.945312 24.132812 " fill-opacity="1" fill-rule="nonzero"/><path fill="#2e2943" d="M 20.921875 24.082031 C 20.914062 24.082031 20.910156 24.078125 20.90625 24.070312 C 20.90625 24.046875 20.886719 21.878906 20.722656 20.605469 C 20.691406 20.371094 20.667969 20.160156 20.644531 19.976562 C 20.542969 19.15625 20.5 18.816406 20.382812 18.699219 C 20.378906 18.695312 20.378906 18.6875 20.382812 18.679688 C 20.390625 18.675781 20.398438 18.675781 20.402344 18.679688 C 20.523438 18.804688 20.566406 19.144531 20.667969 19.972656 C 20.691406 20.15625 20.71875 20.367188 20.75 20.601562 C 20.914062 21.875 20.933594 24.046875 20.933594 24.070312 C 20.933594 24.078125 20.929688 24.082031 20.921875 24.082031 Z M 20.921875 24.082031 " fill-opacity="1" fill-rule="nonzero"/><path fill="#2e2943" d="M 21.300781 23.574219 C 21.292969 23.574219 21.289062 23.566406 21.289062 23.5625 C 21.285156 23.550781 21.21875 22.28125 21.210938 21.671875 C 21.203125 21.054688 21.269531 20.921875 21.273438 20.917969 C 21.277344 20.910156 21.285156 20.910156 21.289062 20.914062 C 21.296875 20.917969 21.300781 20.925781 21.296875 20.929688 C 21.292969 20.933594 21.226562 21.066406 21.234375 21.667969 C 21.242188 22.28125 21.3125 23.546875 21.3125 23.558594 C 21.3125 23.566406 21.308594 23.574219 21.300781 23.574219 Z M 21.300781 23.574219 " fill-opacity="1" fill-rule="nonzero"/><path fill="#2e2943" d="M 19.390625 20.945312 C 19.390625 20.945312 19.257812 20.242188 19.609375 20.242188 C 19.960938 20.242188 19.957031 20.847656 19.933594 20.902344 C 19.914062 20.957031 19.40625 21.074219 19.390625 20.945312 Z M 19.390625 20.945312 " fill-opacity="1" fill-rule="nonzero"/><path fill="#2e2943" d="M 19.519531 22.152344 C 19.519531 22.152344 19.535156 22.828125 19.878906 22.757812 C 20.222656 22.6875 20.097656 22.09375 20.066406 22.042969 C 20.035156 21.996094 19.507812 22.023438 19.519531 22.152344 Z M 19.519531 22.152344 " fill-opacity="1" fill-rule="nonzero"/><path fill="#2e2943" d="M 19.8125 22.371094 C 19.71875 22.378906 19.636719 22.308594 19.628906 22.214844 L 19.496094 20.730469 C 19.488281 20.632812 19.558594 20.550781 19.652344 20.542969 C 19.746094 20.535156 19.832031 20.605469 19.839844 20.699219 L 19.96875 22.183594 C 19.976562 22.277344 19.910156 22.363281 19.8125 22.371094 Z M 19.8125 22.371094 " fill-opacity="1" fill-rule="nonzero"/><path fill="#2e2943" d="M 18.703125 19.085938 C 18.671875 19.085938 18.648438 19.0625 18.644531 19.035156 L 18.335938 15.3125 C 18.332031 15.28125 18.355469 15.253906 18.386719 15.25 C 18.417969 15.246094 18.445312 15.269531 18.445312 15.300781 L 18.757812 19.023438 C 18.757812 19.054688 18.738281 19.082031 18.707031 19.085938 C 18.703125 19.085938 18.703125 19.085938 18.703125 19.085938 Z M 18.703125 19.085938 " fill-opacity="1" fill-rule="nonzero"/><path fill="#2e2943" d="M 18.644531 15.148438 C 18.644531 15.21875 18.621094 15.28125 18.570312 15.328125 C 18.519531 15.378906 18.460938 15.402344 18.390625 15.402344 C 18.320312 15.402344 18.261719 15.378906 18.210938 15.328125 C 18.160156 15.28125 18.136719 15.21875 18.136719 15.148438 C 18.136719 15.078125 18.160156 15.019531 18.210938 14.96875 C 18.261719 14.917969 18.320312 14.894531 18.390625 14.894531 C 18.460938 14.894531 18.519531 14.917969 18.570312 14.96875 C 18.621094 15.019531 18.644531 15.078125 18.644531 15.148438 Z M 18.644531 15.148438 " fill-opacity="1" fill-rule="nonzero"/><path fill="#2e2943" d="M 19.234375 18.691406 C 19.226562 18.734375 19.175781 18.941406 18.957031 19.070312 C 18.820312 19.152344 18.714844 19.339844 18.652344 19.480469 C 18.640625 19.136719 18.648438 18.90625 18.675781 18.871094 C 18.730469 18.800781 18.960938 18.738281 19.234375 18.691406 Z M 19.234375 18.691406 " fill-opacity="1" fill-rule="nonzero"/><path fill="#db8e63" d="M 18.722656 15.445312 C 18.628906 15.605469 18.5625 15.582031 18.5625 15.582031 C 18.546875 15.640625 18.347656 15.722656 18.242188 15.726562 C 18.140625 15.734375 18.039062 15.648438 18.039062 15.648438 C 18.089844 15.574219 18.179688 15.589844 18.230469 15.582031 C 18.277344 15.574219 18.332031 15.496094 18.332031 15.496094 C 18.332031 15.496094 18.394531 15.390625 18.40625 15.265625 C 18.421875 15.140625 18.363281 14.886719 18.363281 14.886719 L 18.175781 14.65625 C 18.199219 14.578125 18.222656 14.535156 18.234375 14.488281 C 18.257812 14.417969 18.335938 14.296875 18.335938 14.296875 L 18.816406 14.386719 C 18.816406 14.386719 18.871094 14.800781 18.886719 14.960938 C 18.90625 15.117188 18.820312 15.28125 18.722656 15.445312 Z M 18.722656 15.445312 " fill-opacity="1" fill-rule="nonzero"/><path fill="#2e2943" d="M 18.5625 15.597656 C 18.558594 15.597656 18.558594 15.597656 18.554688 15.597656 C 18.546875 15.59375 18.546875 15.585938 18.550781 15.578125 C 18.550781 15.574219 18.648438 15.386719 18.683594 15.238281 C 18.683594 15.230469 18.691406 15.222656 18.699219 15.226562 C 18.707031 15.226562 18.714844 15.234375 18.710938 15.242188 C 18.679688 15.394531 18.582031 15.582031 18.574219 15.589844 C 18.574219 15.597656 18.566406 15.597656 18.5625 15.597656 Z M 18.5625 15.597656 " fill-opacity="1" fill-rule="nonzero"/><path fill="#a2a2ed" d="M 17.835938 10.355469 C 17.835938 10.355469 18.15625 10.539062 18.433594 11.011719 C 18.710938 11.488281 19.492188 12.46875 19.570312 12.769531 C 19.652344 13.070312 19.519531 13.449219 19.347656 13.742188 C 19.175781 14.035156 19.191406 14.382812 18.992188 14.488281 L 18.859375 14.765625 C 18.859375 14.765625 18.757812 14.28125 18.3125 14.332031 L 18.460938 14.011719 C 18.460938 14.011719 18.429688 13.890625 18.53125 13.539062 C 18.636719 13.1875 18.644531 12.972656 18.644531 12.972656 C 18.644531 12.972656 17.886719 12.367188 17.628906 11.953125 C 17.375 11.542969 17.527344 10.695312 17.527344 10.695312 Z M 17.835938 10.355469 " fill-opacity="1" fill-rule="nonzero"/><path fill="#2e2943" d="M 17.816406 12.207031 C 17.8125 12.207031 17.808594 12.207031 17.804688 12.203125 L 17.457031 11.816406 C 17.449219 11.8125 17.453125 11.800781 17.457031 11.796875 C 17.464844 11.792969 17.472656 11.792969 17.476562 11.796875 L 17.828125 12.183594 C 17.832031 12.1875 17.832031 12.199219 17.824219 12.203125 C 17.824219 12.207031 17.820312 12.207031 17.816406 12.207031 Z M 17.816406 12.207031 " fill-opacity="1" fill-rule="nonzero"/><path fill="#2e2943" d="M 18.941406 14.410156 C 18.9375 14.410156 18.929688 14.40625 18.929688 14.402344 C 18.726562 14.03125 18.464844 14.027344 18.460938 14.027344 C 18.453125 14.027344 18.445312 14.019531 18.445312 14.011719 C 18.445312 14.003906 18.453125 13.996094 18.460938 13.996094 C 18.472656 13.996094 18.746094 14 18.953125 14.386719 C 18.957031 14.394531 18.953125 14.40625 18.949219 14.410156 C 18.945312 14.410156 18.945312 14.410156 18.941406 14.410156 Z M 18.941406 14.410156 " fill-opacity="1" fill-rule="nonzero"/><path fill="#2e2943" d="M 14.78125 24.710938 C 14.78125 24.710938 14.722656 25.0625 15.132812 25.101562 C 15.539062 25.144531 15.828125 25.121094 16.039062 25.078125 C 16.25 25.03125 16.367188 24.964844 16.589844 24.980469 C 16.8125 25 17.039062 25.09375 17.152344 24.980469 C 17.246094 24.886719 17.160156 24.632812 17.160156 24.632812 L 15.933594 24.636719 Z M 14.78125 24.710938 " fill-opacity="1" fill-rule="nonzero"/><path fill="#ed516f" d="M 16.085938 23.941406 C 16.085938 23.941406 15.59375 24.308594 15.351562 24.425781 C 15.113281 24.542969 14.804688 24.460938 14.78125 24.710938 C 14.761719 24.960938 15.433594 24.90625 15.832031 24.867188 C 16.226562 24.832031 16.503906 24.675781 16.710938 24.738281 C 16.917969 24.800781 17.144531 24.699219 17.160156 24.632812 C 17.175781 24.5625 17.078125 23.960938 17.023438 23.902344 C 17.023438 23.902344 16.996094 24.019531 16.605469 24.03125 C 16.214844 24.042969 16.085938 23.941406 16.085938 23.941406 Z M 16.085938 23.941406 " fill-opacity="1" fill-rule="nonzero"/><path fill="#2e2943" d="M 15.28125 24.910156 C 15.058594 24.910156 14.882812 24.886719 14.808594 24.8125 C 14.78125 24.785156 14.769531 24.75 14.769531 24.710938 C 14.773438 24.703125 14.777344 24.699219 14.785156 24.699219 C 14.789062 24.699219 14.792969 24.707031 14.792969 24.710938 C 14.789062 24.746094 14.800781 24.773438 14.824219 24.796875 C 14.964844 24.9375 15.546875 24.882812 15.828125 24.859375 C 15.996094 24.84375 16.144531 24.804688 16.273438 24.773438 C 16.449219 24.726562 16.589844 24.691406 16.710938 24.726562 C 16.855469 24.769531 17.011719 24.734375 17.09375 24.683594 C 17.125 24.664062 17.144531 24.644531 17.148438 24.628906 C 17.152344 24.625 17.15625 24.621094 17.164062 24.621094 C 17.167969 24.621094 17.171875 24.628906 17.171875 24.632812 C 17.164062 24.664062 17.132812 24.6875 17.105469 24.703125 C 17.019531 24.757812 16.855469 24.792969 16.707031 24.75 C 16.589844 24.714844 16.453125 24.75 16.277344 24.792969 C 16.148438 24.828125 16 24.863281 15.832031 24.878906 C 15.636719 24.898438 15.445312 24.910156 15.28125 24.910156 Z M 15.28125 24.910156 " fill-opacity="1" fill-rule="nonzero"/><path fill="#ffffff" d="M 15.625 24.464844 L 15.617188 24.46875 C 15.605469 24.472656 15.59375 24.46875 15.585938 24.460938 L 15.511719 24.332031 C 15.503906 24.320312 15.507812 24.304688 15.519531 24.300781 L 15.527344 24.296875 C 15.539062 24.289062 15.550781 24.292969 15.558594 24.304688 L 15.632812 24.429688 C 15.640625 24.441406 15.636719 24.457031 15.625 24.464844 Z M 15.625 24.464844 " fill-opacity="1" fill-rule="nonzero"/><path fill="#ffffff" d="M 15.734375 24.386719 L 15.730469 24.390625 C 15.71875 24.394531 15.703125 24.390625 15.695312 24.378906 L 15.621094 24.253906 C 15.617188 24.242188 15.617188 24.226562 15.628906 24.222656 L 15.636719 24.21875 C 15.648438 24.210938 15.664062 24.214844 15.667969 24.226562 L 15.742188 24.351562 C 15.75 24.363281 15.746094 24.378906 15.734375 24.386719 Z M 15.734375 24.386719 " fill-opacity="1" fill-rule="nonzero"/><path fill="#ffffff" d="M 15.863281 24.300781 L 15.855469 24.304688 C 15.847656 24.3125 15.832031 24.308594 15.824219 24.296875 L 15.75 24.171875 C 15.742188 24.160156 15.746094 24.144531 15.757812 24.136719 L 15.765625 24.132812 C 15.777344 24.128906 15.792969 24.132812 15.796875 24.144531 L 15.871094 24.269531 C 15.878906 24.28125 15.875 24.296875 15.863281 24.300781 Z M 15.863281 24.300781 " fill-opacity="1" fill-rule="nonzero"/><path fill="#ffffff" d="M 15.992188 24.21875 L 15.984375 24.222656 C 15.972656 24.230469 15.957031 24.226562 15.953125 24.214844 L 15.878906 24.089844 C 15.871094 24.078125 15.875 24.0625 15.886719 24.054688 L 15.890625 24.050781 C 15.902344 24.046875 15.917969 24.050781 15.925781 24.058594 L 16 24.1875 C 16.003906 24.199219 16.003906 24.214844 15.992188 24.21875 Z M 15.992188 24.21875 " fill-opacity="1" fill-rule="nonzero"/><path fill="#2e2943" d="M 17.871094 24.304688 C 17.871094 24.304688 17.871094 24.875 17.808594 24.96875 C 17.597656 25.285156 17.03125 25.261719 16.730469 25.128906 C 16.542969 25.042969 16.65625 24.644531 16.65625 24.644531 Z M 17.871094 24.304688 " fill-opacity="1" fill-rule="nonzero"/><path fill="#ed516f" d="M 16.964844 23.835938 C 16.964844 23.835938 16.796875 24.246094 16.777344 24.292969 C 16.753906 24.335938 16.359375 24.976562 17 25.023438 C 17.640625 25.070312 17.769531 24.960938 17.859375 24.515625 C 17.914062 24.261719 17.78125 23.796875 17.78125 23.796875 C 17.78125 23.796875 17.742188 23.945312 17.527344 23.976562 C 17.152344 24.03125 17.023438 23.96875 16.964844 23.835938 Z M 16.964844 23.835938 " fill-opacity="1" fill-rule="nonzero"/><path fill="#2e2943" d="M 17.230469 25.042969 C 17.160156 25.042969 17.085938 25.039062 17 25.035156 C 16.828125 25.023438 16.710938 24.964844 16.660156 24.867188 C 16.609375 24.777344 16.589844 24.605469 16.757812 24.296875 C 16.761719 24.292969 16.765625 24.289062 16.765625 24.289062 C 16.769531 24.28125 16.773438 24.28125 16.78125 24.28125 C 16.785156 24.285156 16.789062 24.292969 16.785156 24.296875 C 16.785156 24.300781 16.78125 24.304688 16.777344 24.308594 C 16.613281 24.609375 16.632812 24.769531 16.679688 24.855469 C 16.726562 24.945312 16.835938 25 17 25.011719 C 17.644531 25.058594 17.757812 24.945312 17.847656 24.515625 C 17.847656 24.507812 17.855469 24.503906 17.863281 24.507812 C 17.867188 24.507812 17.871094 24.511719 17.871094 24.519531 C 17.792969 24.902344 17.6875 25.042969 17.230469 25.042969 Z M 17.230469 25.042969 " fill-opacity="1" fill-rule="nonzero"/><path fill="#ffffff" d="M 17.027344 24.117188 L 17.511719 24.121094 C 17.53125 24.121094 17.542969 24.105469 17.542969 24.089844 C 17.542969 24.070312 17.53125 24.054688 17.511719 24.054688 L 17.027344 24.050781 C 17.007812 24.050781 16.996094 24.066406 16.996094 24.085938 C 16.992188 24.101562 17.007812 24.117188 17.027344 24.117188 Z M 17.027344 24.117188 " fill-opacity="1" fill-rule="nonzero"/><path fill="#ffffff" d="M 17.015625 24.25 L 17.5 24.253906 C 17.515625 24.253906 17.53125 24.242188 17.53125 24.222656 C 17.53125 24.203125 17.515625 24.191406 17.5 24.1875 L 17.015625 24.183594 C 16.996094 24.183594 16.980469 24.199219 16.980469 24.21875 C 16.980469 24.234375 16.996094 24.25 17.015625 24.25 Z M 17.015625 24.25 " fill-opacity="1" fill-rule="nonzero"/><path fill="#ffffff" d="M 17 24.40625 L 17.484375 24.410156 C 17.503906 24.410156 17.519531 24.398438 17.519531 24.378906 C 17.519531 24.359375 17.503906 24.347656 17.484375 24.347656 L 17 24.339844 C 16.984375 24.339844 16.96875 24.355469 16.96875 24.375 C 16.96875 24.390625 16.984375 24.40625 17 24.40625 Z M 17 24.40625 " fill-opacity="1" fill-rule="nonzero"/><path fill="#f9e8de" d="M 15.921875 17.082031 C 15.882812 17.082031 15.855469 17.078125 15.839844 17.0625 C 15.804688 17.015625 15.765625 15.949219 15.757812 15.738281 L 15.777344 15.734375 C 15.796875 16.242188 15.832031 17.007812 15.859375 17.046875 C 15.878906 17.074219 16.050781 17.050781 16.164062 17.027344 L 16.167969 17.046875 C 16.136719 17.054688 16.011719 17.082031 15.921875 17.082031 Z M 15.921875 17.082031 " fill-opacity="1" fill-rule="nonzero"/><path fill="#db8e63" d="M 10.691406 16.699219 C 10.691406 16.699219 10.363281 16.996094 10.320312 17.082031 C 10.277344 17.167969 10.234375 17.480469 10.257812 17.535156 C 10.28125 17.589844 10.371094 17.691406 10.464844 17.75 C 10.558594 17.8125 10.667969 17.816406 10.675781 17.796875 C 10.679688 17.773438 10.648438 17.695312 10.59375 17.667969 C 10.59375 17.667969 10.699219 17.683594 10.699219 17.636719 C 10.703125 17.585938 10.609375 17.589844 10.554688 17.558594 C 10.496094 17.53125 10.4375 17.417969 10.457031 17.351562 C 10.480469 17.289062 10.613281 17.175781 10.613281 17.175781 C 10.613281 17.175781 10.777344 17.21875 10.863281 17.195312 C 10.949219 17.171875 11.019531 17.046875 11.050781 16.921875 C 11.085938 16.800781 10.691406 16.699219 10.691406 16.699219 Z M 10.691406 16.699219 " fill-opacity="1" fill-rule="nonzero"/><path fill="#2e2943" d="M 10.59375 17.671875 C 10.585938 17.667969 10.378906 17.589844 10.382812 17.496094 C 10.386719 17.402344 10.402344 17.367188 10.40625 17.367188 C 10.40625 17.363281 10.410156 17.363281 10.414062 17.363281 C 10.414062 17.367188 10.417969 17.367188 10.414062 17.371094 C 10.414062 17.371094 10.398438 17.40625 10.394531 17.496094 C 10.390625 17.582031 10.59375 17.660156 10.597656 17.660156 C 10.601562 17.664062 10.601562 17.664062 10.601562 17.667969 C 10.601562 17.671875 10.597656 17.671875 10.59375 17.671875 Z M 10.59375 17.671875 " fill-opacity="1" fill-rule="nonzero"/><path fill="#efbf62" d="M 6.714844 23.3125 L 7.363281 20.75 C 7.4375 20.484375 7.671875 20.296875 7.945312 20.277344 L 10.160156 20.128906 C 10.417969 20.113281 10.664062 20.25 10.78125 20.480469 L 11.113281 21.199219 L 8.128906 21.417969 L 7.457031 24.480469 L 6.871094 23.953125 C 6.710938 23.78125 6.648438 23.539062 6.714844 23.3125 Z M 6.714844 23.3125 " fill-opacity="1" fill-rule="nonzero"/><path fill="#2e2943" d="M 8.632812 21.386719 L 8.6875 21.28125 C 8.765625 21.128906 8.917969 21.023438 9.09375 21.007812 L 10.089844 20.921875 C 10.300781 20.902344 10.5 21.015625 10.589844 21.210938 Z M 8.632812 21.386719 " fill-opacity="1" fill-rule="nonzero"/><path fill="#2e2943" d="M 8.039062 21.503906 L 7.367188 24.273438 C 7.335938 24.402344 7.4375 24.527344 7.566406 24.519531 L 10.132812 24.300781 C 10.222656 24.296875 10.296875 24.238281 10.316406 24.152344 L 11.144531 21.289062 C 11.167969 21.203125 11.097656 21.121094 11.011719 21.125 L 8.214844 21.355469 C 8.128906 21.363281 8.058594 21.421875 8.039062 21.503906 Z M 8.039062 21.503906 " fill-opacity="1" fill-rule="nonzero"/><path fill="#2e2943" d="M 7.023438 23.871094 C 7.023438 23.871094 7.023438 23.871094 7.019531 23.871094 C 7.011719 23.867188 7.007812 23.859375 7.011719 23.855469 L 7.761719 20.988281 C 7.800781 20.855469 7.921875 20.757812 8.058594 20.75 L 10.691406 20.550781 C 10.699219 20.550781 10.703125 20.558594 10.703125 20.566406 C 10.707031 20.574219 10.699219 20.578125 10.691406 20.578125 L 8.058594 20.777344 C 7.933594 20.785156 7.824219 20.875 7.789062 20.996094 L 7.035156 23.859375 C 7.035156 23.867188 7.03125 23.871094 7.023438 23.871094 Z M 7.023438 23.871094 " fill-opacity="1" fill-rule="nonzero"/><path fill="#efbf62" d="M 10.335938 22.0625 L 8.773438 22.152344 C 8.734375 22.15625 8.707031 22.125 8.703125 22.089844 C 8.699219 22.054688 8.730469 22.023438 8.765625 22.019531 L 10.328125 21.929688 C 10.367188 21.929688 10.398438 21.957031 10.398438 21.992188 C 10.398438 22.03125 10.371094 22.0625 10.335938 22.0625 Z M 10.335938 22.0625 " fill-opacity="1" fill-rule="nonzero"/><path fill="#efbf62" d="M 10.226562 22.546875 L 8.664062 22.632812 C 8.625 22.636719 8.597656 22.609375 8.59375 22.570312 C 8.59375 22.535156 8.621094 22.503906 8.65625 22.503906 L 10.21875 22.414062 C 10.257812 22.410156 10.289062 22.4375 10.289062 22.476562 C 10.292969 22.511719 10.265625 22.542969 10.226562 22.546875 Z M 10.226562 22.546875 " fill-opacity="1" fill-rule="nonzero"/><path fill="#efbf62" d="M 10.109375 23.054688 L 8.546875 23.144531 C 8.507812 23.144531 8.480469 23.117188 8.476562 23.082031 C 8.476562 23.042969 8.503906 23.015625 8.539062 23.011719 L 10.101562 22.921875 C 10.140625 22.921875 10.171875 22.949219 10.171875 22.984375 C 10.175781 23.019531 10.144531 23.050781 10.109375 23.054688 Z M 10.109375 23.054688 " fill-opacity="1" fill-rule="nonzero"/><path fill="#efbf62" d="M 9.964844 23.585938 L 8.398438 23.675781 C 8.363281 23.675781 8.332031 23.648438 8.332031 23.613281 C 8.328125 23.578125 8.355469 23.546875 8.390625 23.542969 L 9.957031 23.453125 C 9.992188 23.453125 10.023438 23.480469 10.027344 23.515625 C 10.027344 23.554688 10 23.585938 9.964844 23.585938 Z M 9.964844 23.585938 " fill-opacity="1" fill-rule="nonzero"/><path fill="#2e2943" d="M 8.9375 21.4375 C 8.933594 21.4375 8.929688 21.4375 8.925781 21.433594 C 8.894531 21.425781 8.878906 21.398438 8.882812 21.367188 L 9.761719 17.828125 C 9.832031 17.539062 10.085938 17.335938 10.378906 17.332031 C 10.582031 17.328125 10.765625 17.414062 10.890625 17.570312 C 11.015625 17.722656 11.0625 17.925781 11.019531 18.121094 L 10.335938 21.183594 C 10.328125 21.214844 10.300781 21.234375 10.269531 21.226562 C 10.242188 21.21875 10.222656 21.191406 10.230469 21.160156 L 10.914062 18.09375 C 10.949219 17.933594 10.910156 17.765625 10.804688 17.636719 C 10.699219 17.507812 10.546875 17.4375 10.382812 17.441406 C 10.136719 17.445312 9.925781 17.613281 9.867188 17.855469 L 8.992188 21.394531 C 8.984375 21.417969 8.960938 21.4375 8.9375 21.4375 Z M 8.9375 21.4375 " fill-opacity="1" fill-rule="nonzero"/><path fill="#efbf62" d="M 10.90625 18.5 C 10.898438 18.5 10.890625 18.5 10.882812 18.5 C 10.824219 18.488281 10.789062 18.429688 10.800781 18.367188 L 10.859375 18.085938 C 10.890625 17.9375 10.855469 17.789062 10.761719 17.671875 C 10.667969 17.558594 10.527344 17.492188 10.382812 17.496094 C 10.160156 17.5 9.972656 17.652344 9.921875 17.867188 L 9.832031 18.261719 C 9.816406 18.320312 9.757812 18.355469 9.699219 18.34375 C 9.640625 18.328125 9.605469 18.269531 9.617188 18.210938 L 9.707031 17.816406 C 9.78125 17.503906 10.058594 17.28125 10.378906 17.273438 C 10.382812 17.273438 10.386719 17.273438 10.390625 17.273438 C 10.601562 17.273438 10.796875 17.367188 10.933594 17.535156 C 11.070312 17.703125 11.121094 17.917969 11.074219 18.132812 L 11.015625 18.414062 C 11.003906 18.464844 10.957031 18.5 10.90625 18.5 Z M 10.90625 18.5 " fill-opacity="1" fill-rule="nonzero"/><path fill="#2e2943" d="M 7.925781 24.492188 C 7.933594 24.585938 7.929688 24.667969 7.910156 24.734375 C 7.886719 24.800781 7.859375 24.835938 7.824219 24.839844 C 7.785156 24.84375 7.753906 24.8125 7.722656 24.75 C 7.691406 24.6875 7.671875 24.609375 7.664062 24.515625 C 7.65625 24.425781 7.660156 24.34375 7.679688 24.277344 C 7.703125 24.207031 7.730469 24.171875 7.765625 24.167969 C 7.804688 24.167969 7.835938 24.195312 7.867188 24.261719 C 7.898438 24.324219 7.917969 24.402344 7.925781 24.492188 Z M 7.925781 24.492188 " fill-opacity="1" fill-rule="nonzero"/><path fill="#2e2943" d="M 7.765625 24.171875 L 7.9375 24.15625 L 7.996094 24.824219 L 7.824219 24.839844 Z M 7.765625 24.171875 " fill-opacity="1" fill-rule="nonzero"/><path fill="#2e2943" d="M 8.101562 24.480469 C 8.109375 24.570312 8.101562 24.652344 8.082031 24.71875 C 8.0625 24.789062 8.03125 24.824219 7.996094 24.828125 C 7.960938 24.828125 7.925781 24.800781 7.894531 24.734375 C 7.863281 24.671875 7.84375 24.59375 7.835938 24.503906 C 7.828125 24.410156 7.835938 24.328125 7.855469 24.261719 C 7.875 24.195312 7.902344 24.160156 7.941406 24.15625 C 7.976562 24.152344 8.011719 24.183594 8.042969 24.246094 C 8.074219 24.308594 8.09375 24.386719 8.101562 24.480469 Z M 8.101562 24.480469 " fill-opacity="1" fill-rule="nonzero"/><path fill="#2e2943" d="M 9.832031 24.332031 C 9.839844 24.425781 9.832031 24.503906 9.8125 24.570312 C 9.792969 24.640625 9.761719 24.675781 9.726562 24.679688 C 9.691406 24.679688 9.65625 24.652344 9.625 24.585938 C 9.59375 24.523438 9.574219 24.445312 9.566406 24.355469 C 9.558594 24.261719 9.566406 24.179688 9.585938 24.113281 C 9.605469 24.046875 9.632812 24.011719 9.671875 24.007812 C 9.707031 24.003906 9.742188 24.035156 9.773438 24.097656 C 9.804688 24.160156 9.824219 24.238281 9.832031 24.332031 Z M 9.832031 24.332031 " fill-opacity="1" fill-rule="nonzero"/><path fill="#2e2943" d="M 9.671875 24.007812 L 9.84375 23.992188 L 9.898438 24.664062 L 9.726562 24.675781 Z M 9.671875 24.007812 " fill-opacity="1" fill-rule="nonzero"/><path fill="#2e2943" d="M 10.003906 24.316406 C 10.011719 24.410156 10.003906 24.488281 9.984375 24.558594 C 9.964844 24.625 9.9375 24.660156 9.898438 24.664062 C 9.863281 24.667969 9.828125 24.636719 9.796875 24.574219 C 9.765625 24.511719 9.746094 24.433594 9.738281 24.339844 C 9.730469 24.246094 9.738281 24.167969 9.757812 24.097656 C 9.777344 24.03125 9.808594 23.996094 9.84375 23.992188 C 9.878906 23.988281 9.914062 24.019531 9.945312 24.082031 C 9.976562 24.144531 9.996094 24.222656 10.003906 24.316406 Z M 10.003906 24.316406 " fill-opacity="1" fill-rule="nonzero"/><path fill="#db8e63" d="M 10.613281 17.175781 C 10.613281 17.175781 10.589844 17.308594 10.5625 17.375 C 10.53125 17.441406 10.476562 17.558594 10.5625 17.585938 C 10.644531 17.613281 10.707031 17.484375 10.742188 17.371094 C 10.78125 17.253906 10.894531 17.179688 10.894531 17.179688 L 10.738281 17.011719 Z M 10.613281 17.175781 " fill-opacity="1" fill-rule="nonzero"/><path fill="#ed516f" d="M 12.5 15.074219 L 12.601562 15.074219 L 12.601562 15.570312 L 12.5 15.570312 Z M 12.5 15.074219 " fill-opacity="1" fill-rule="nonzero"/><path fill="#ed516f" d="M 13.878906 15.152344 L 13.980469 15.152344 L 13.980469 15.648438 L 13.878906 15.648438 Z M 13.878906 15.152344 " fill-opacity="1" fill-rule="nonzero"/><path fill="#e8d2c4" d="M 9.464844 9.8125 C 9.464844 10.289062 8.609375 11.761719 8.609375 11.761719 C 8.609375 11.761719 7.753906 10.289062 7.753906 9.8125 C 7.753906 9.339844 8.136719 8.953125 8.609375 8.953125 C 9.082031 8.953125 9.464844 9.339844 9.464844 9.8125 Z M 9.464844 9.8125 " fill-opacity="1" fill-rule="nonzero"/><path fill="#ffffff" d="M 8.925781 9.769531 C 8.925781 9.855469 8.894531 9.933594 8.832031 9.996094 C 8.773438 10.058594 8.695312 10.089844 8.609375 10.089844 C 8.523438 10.089844 8.449219 10.058594 8.386719 9.996094 C 8.324219 9.933594 8.292969 9.855469 8.292969 9.769531 C 8.292969 9.679688 8.324219 9.605469 8.386719 9.542969 C 8.449219 9.480469 8.523438 9.449219 8.609375 9.449219 C 8.695312 9.449219 8.773438 9.480469 8.832031 9.542969 C 8.894531 9.605469 8.925781 9.679688 8.925781 9.769531 Z M 8.925781 9.769531 " fill-opacity="1" fill-rule="nonzero"/><path fill="#e8d2c4" d="M 22.382812 7.984375 C 22.382812 8.460938 21.527344 9.929688 21.527344 9.929688 C 21.527344 9.929688 20.671875 8.460938 20.671875 7.984375 C 20.671875 7.507812 21.054688 7.121094 21.527344 7.121094 C 22 7.121094 22.382812 7.507812 22.382812 7.984375 Z M 22.382812 7.984375 " fill-opacity="1" fill-rule="nonzero"/><path fill="#ffffff" d="M 21.84375 7.9375 C 21.84375 8.027344 21.8125 8.101562 21.753906 8.164062 C 21.691406 8.226562 21.617188 8.257812 21.527344 8.257812 C 21.441406 8.257812 21.367188 8.226562 21.304688 8.164062 C 21.242188 8.101562 21.210938 8.027344 21.210938 7.9375 C 21.210938 7.851562 21.242188 7.777344 21.304688 7.714844 C 21.367188 7.652344 21.441406 7.621094 21.527344 7.621094 C 21.617188 7.621094 21.691406 7.652344 21.753906 7.714844 C 21.8125 7.777344 21.84375 7.851562 21.84375 7.9375 Z M 21.84375 7.9375 " fill-opacity="1" fill-rule="nonzero"/></svg>