<svg xmlns="http://www.w3.org/2000/svg" width="40" zoomAndPan="magnify" viewBox="0 0 30 30.000001" height="40"
     preserveAspectRatio="xMidYMid meet" version="1.0"><defs><clipPath id="0574861237"><path d="M 7 3 L 23 3 L 23 26.128906 L 7 26.128906 Z M 7 3 " clip-rule="nonzero"/></clipPath><clipPath id="b73f380a9e"><path d="M 8 3.992188 L 22 3.992188 L 22 26.121094 L 8 26.121094 Z M 8 3.992188 " clip-rule="nonzero"/></clipPath><clipPath id="043e03002c"><path d="M 14.246094 3.996094 C 16.644531 4.027344 17.84375 4.042969 17.84375 4.042969 C 19.214844 4.695312 19.566406 5.164062 18.902344 5.449219 C 15.992188 6.792969 16.457031 7.402344 18.078125 8.257812 C 20.078125 9.308594 24.085938 10.710938 22 13.519531 C 17.304688 18.96875 19.269531 21.121094 22.753906 26.011719 C 12.921875 26.082031 8.003906 26.117188 8.003906 26.117188 C 5.941406 19.238281 9.496094 17.320312 14.011719 13.367188 C 15.53125 12.039062 16.09375 10.917969 12.703125 8.171875 C 11.257812 7 11.710938 6.585938 13.199219 5.941406 C 14.746094 5.273438 16.757812 4.8125 14.246094 3.996094 Z M 14.246094 3.996094 " clip-rule="evenodd"/></clipPath><clipPath id="35971baf12"><path d="M 16 3.992188 L 17 3.992188 L 17 6 L 16 6 Z M 16 3.992188 " clip-rule="nonzero"/></clipPath><clipPath id="1b1a1244d1"><path d="M 14.246094 3.996094 C 16.644531 4.027344 17.84375 4.042969 17.84375 4.042969 C 19.214844 4.695312 19.566406 5.164062 18.902344 5.449219 C 15.992188 6.792969 16.457031 7.402344 18.078125 8.257812 C 20.078125 9.308594 24.085938 10.710938 22 13.519531 C 17.304688 18.96875 19.269531 21.121094 22.753906 26.011719 C 12.921875 26.082031 8.003906 26.117188 8.003906 26.117188 C 5.941406 19.238281 9.496094 17.320312 14.011719 13.367188 C 15.53125 12.039062 16.09375 10.917969 12.703125 8.171875 C 11.257812 7 11.710938 6.585938 13.199219 5.941406 C 14.746094 5.273438 16.757812 4.8125 14.246094 3.996094 Z M 14.246094 3.996094 " clip-rule="evenodd"/></clipPath><clipPath id="7aaff78381"><path d="M 15 5 L 16 5 L 16 7 L 15 7 Z M 15 5 " clip-rule="nonzero"/></clipPath><clipPath id="c05b827e86"><path d="M 14.246094 3.996094 C 16.644531 4.027344 17.84375 4.042969 17.84375 4.042969 C 19.214844 4.695312 19.566406 5.164062 18.902344 5.449219 C 15.992188 6.792969 16.457031 7.402344 18.078125 8.257812 C 20.078125 9.308594 24.085938 10.710938 22 13.519531 C 17.304688 18.96875 19.269531 21.121094 22.753906 26.011719 C 12.921875 26.082031 8.003906 26.117188 8.003906 26.117188 C 5.941406 19.238281 9.496094 17.320312 14.011719 13.367188 C 15.53125 12.039062 16.09375 10.917969 12.703125 8.171875 C 11.257812 7 11.710938 6.585938 13.199219 5.941406 C 14.746094 5.273438 16.757812 4.8125 14.246094 3.996094 Z M 14.246094 3.996094 " clip-rule="evenodd"/></clipPath><clipPath id="23a468ae98"><path d="M 15 7 L 17 7 L 17 9 L 15 9 Z M 15 7 " clip-rule="nonzero"/></clipPath><clipPath id="ce271d20c7"><path d="M 14.246094 3.996094 C 16.644531 4.027344 17.84375 4.042969 17.84375 4.042969 C 19.214844 4.695312 19.566406 5.164062 18.902344 5.449219 C 15.992188 6.792969 16.457031 7.402344 18.078125 8.257812 C 20.078125 9.308594 24.085938 10.710938 22 13.519531 C 17.304688 18.96875 19.269531 21.121094 22.753906 26.011719 C 12.921875 26.082031 8.003906 26.117188 8.003906 26.117188 C 5.941406 19.238281 9.496094 17.320312 14.011719 13.367188 C 15.53125 12.039062 16.09375 10.917969 12.703125 8.171875 C 11.257812 7 11.710938 6.585938 13.199219 5.941406 C 14.746094 5.273438 16.757812 4.8125 14.246094 3.996094 Z M 14.246094 3.996094 " clip-rule="evenodd"/></clipPath><clipPath id="fcd4e6912a"><path d="M 17 10 L 18 10 L 18 13 L 17 13 Z M 17 10 " clip-rule="nonzero"/></clipPath><clipPath id="3cb4dc3b2f"><path d="M 14.246094 3.996094 C 16.644531 4.027344 17.84375 4.042969 17.84375 4.042969 C 19.214844 4.695312 19.566406 5.164062 18.902344 5.449219 C 15.992188 6.792969 16.457031 7.402344 18.078125 8.257812 C 20.078125 9.308594 24.085938 10.710938 22 13.519531 C 17.304688 18.96875 19.269531 21.121094 22.753906 26.011719 C 12.921875 26.082031 8.003906 26.117188 8.003906 26.117188 C 5.941406 19.238281 9.496094 17.320312 14.011719 13.367188 C 15.53125 12.039062 16.09375 10.917969 12.703125 8.171875 C 11.257812 7 11.710938 6.585938 13.199219 5.941406 C 14.746094 5.273438 16.757812 4.8125 14.246094 3.996094 Z M 14.246094 3.996094 " clip-rule="evenodd"/></clipPath><clipPath id="6bbe1c931a"><path d="M 14 14 L 17 14 L 17 19 L 14 19 Z M 14 14 " clip-rule="nonzero"/></clipPath><clipPath id="ca9f1d5ba4"><path d="M 14.246094 3.996094 C 16.644531 4.027344 17.84375 4.042969 17.84375 4.042969 C 19.214844 4.695312 19.566406 5.164062 18.902344 5.449219 C 15.992188 6.792969 16.457031 7.402344 18.078125 8.257812 C 20.078125 9.308594 24.085938 10.710938 22 13.519531 C 17.304688 18.96875 19.269531 21.121094 22.753906 26.011719 C 12.921875 26.082031 8.003906 26.117188 8.003906 26.117188 C 5.941406 19.238281 9.496094 17.320312 14.011719 13.367188 C 15.53125 12.039062 16.09375 10.917969 12.703125 8.171875 C 11.257812 7 11.710938 6.585938 13.199219 5.941406 C 14.746094 5.273438 16.757812 4.8125 14.246094 3.996094 Z M 14.246094 3.996094 " clip-rule="evenodd"/></clipPath><clipPath id="3fa43a6858"><path d="M 14 21 L 16 21 L 16 26.121094 L 14 26.121094 Z M 14 21 " clip-rule="nonzero"/></clipPath><clipPath id="944b57d985"><path d="M 14.246094 3.996094 C 16.644531 4.027344 17.84375 4.042969 17.84375 4.042969 C 19.214844 4.695312 19.566406 5.164062 18.902344 5.449219 C 15.992188 6.792969 16.457031 7.402344 18.078125 8.257812 C 20.078125 9.308594 24.085938 10.710938 22 13.519531 C 17.304688 18.96875 19.269531 21.121094 22.753906 26.011719 C 12.921875 26.082031 8.003906 26.117188 8.003906 26.117188 C 5.941406 19.238281 9.496094 17.320312 14.011719 13.367188 C 15.53125 12.039062 16.09375 10.917969 12.703125 8.171875 C 11.257812 7 11.710938 6.585938 13.199219 5.941406 C 14.746094 5.273438 16.757812 4.8125 14.246094 3.996094 Z M 14.246094 3.996094 " clip-rule="evenodd"/></clipPath><clipPath id="2549d56ea1"><path d="M 12 2.902344 L 13 2.902344 L 13 8 L 12 8 Z M 12 2.902344 " clip-rule="nonzero"/></clipPath><clipPath id="dd195689d2"><path d="M 12 2.902344 L 14 2.902344 L 14 4 L 12 4 Z M 12 2.902344 " clip-rule="nonzero"/></clipPath></defs><g clip-path="url(#0574861237)"><path fill="#666666" d="M 14.246094 3.996094 C 16.644531 4.027344 17.84375 4.042969 17.84375 4.042969 C 19.214844 4.695312 19.566406 5.164062 18.902344 5.449219 C 15.992188 6.792969 16.457031 7.402344 18.078125 8.257812 C 20.078125 9.308594 24.085938 10.710938 22 13.519531 C 17.304688 18.96875 19.269531 21.121094 22.753906 26.011719 C 12.921875 26.082031 8.003906 26.117188 8.003906 26.117188 C 5.941406 19.238281 9.496094 17.320312 14.011719 13.367188 C 15.53125 12.039062 16.09375 10.917969 12.703125 8.171875 C 11.257812 7 11.710938 6.585938 13.199219 5.941406 C 14.746094 5.273438 16.757812 4.8125 14.246094 3.996094 Z M 14.246094 3.996094 " fill-opacity="1" fill-rule="evenodd"/></g><g clip-path="url(#b73f380a9e)"><g clip-path="url(#043e03002c)"><path fill="#ffff66" d="M 14.640625 3.664062 C 16.6875 3.699219 16.710938 3.464844 16.710938 3.464844 L 16.730469 3.371094 L 16.816406 3.417969 C 17.378906 3.726562 17.875 4.105469 18.183594 4.453125 C 18.335938 4.621094 18.445312 4.789062 18.496094 4.933594 C 18.554688 5.097656 18.542969 5.242188 18.453125 5.355469 C 18.417969 5.398438 18.367188 5.4375 18.308594 5.46875 C 17.046875 6.140625 16.433594 6.671875 16.320312 7.117188 C 16.210938 7.542969 16.585938 7.90625 17.304688 8.257812 C 21.511719 10.324219 22.179688 11.3125 21.546875 12.644531 C 21.347656 13.0625 21.019531 13.511719 20.628906 14.039062 C 19.914062 15.011719 18.996094 16.253906 18.351562 18.0625 C 18.007812 19.023438 17.894531 20.011719 18.34375 21.300781 C 18.796875 22.601562 19.820312 24.207031 21.753906 26.394531 L 21.824219 26.476562 L 21.722656 26.511719 C 12.472656 29.75 9.09375 26.609375 9.082031 26.601562 L 9.066406 26.585938 L 9.0625 26.5625 C 7.488281 20.492188 9.703125 18.378906 12.898438 15.324219 C 13.414062 14.832031 13.953125 14.316406 14.503906 13.757812 C 15.164062 13.089844 15.730469 12.429688 15.769531 11.597656 C 15.804688 10.761719 15.308594 9.746094 13.835938 8.363281 C 13.183594 7.75 12.871094 7.355469 12.890625 7.015625 C 12.914062 6.667969 13.265625 6.40625 13.945312 6.066406 C 14.617188 5.730469 15.324219 5.34375 15.589844 4.949219 C 15.832031 4.585938 15.65625 4.195312 14.613281 3.804688 L 14.226562 3.660156 Z M 16.789062 3.566406 C 16.65625 3.65625 16.25 3.804688 15.003906 3.8125 C 15.863281 4.207031 15.976562 4.625 15.707031 5.03125 C 15.425781 5.453125 14.695312 5.851562 14.007812 6.195312 C 13.378906 6.511719 13.050781 6.742188 13.035156 7.023438 C 13.015625 7.308594 13.3125 7.675781 13.933594 8.257812 C 15.441406 9.671875 15.949219 10.730469 15.910156 11.605469 C 15.871094 12.484375 15.285156 13.171875 14.605469 13.859375 C 14.050781 14.421875 13.507812 14.9375 12.996094 15.429688 C 9.839844 18.445312 7.652344 20.53125 9.191406 26.507812 C 9.449219 26.726562 12.832031 29.441406 21.574219 26.410156 C 19.675781 24.25 18.664062 22.652344 18.210938 21.351562 C 17.746094 20.023438 17.863281 19.003906 18.21875 18.015625 C 18.871094 16.1875 19.792969 14.933594 20.515625 13.953125 C 20.898438 13.429688 21.226562 12.988281 21.421875 12.582031 C 22.007812 11.34375 21.34375 10.402344 17.242188 8.386719 C 16.460938 8 16.054688 7.589844 16.183594 7.082031 C 16.304688 6.59375 16.941406 6.035156 18.242188 5.339844 C 18.285156 5.316406 18.320312 5.292969 18.34375 5.261719 C 18.398438 5.195312 18.402344 5.097656 18.363281 4.984375 C 18.316406 4.855469 18.21875 4.707031 18.078125 4.546875 C 17.785156 4.222656 17.324219 3.863281 16.789062 3.566406 Z M 16.789062 3.566406 " fill-opacity="1" fill-rule="nonzero"/></g></g><g clip-path="url(#35971baf12)"><g clip-path="url(#1b1a1244d1)"><path fill="#ffffff" d="M 16.464844 3.851562 C 16.574219 4.035156 16.632812 4.230469 16.644531 4.429688 C 16.65625 4.628906 16.621094 4.835938 16.539062 5.046875 L 16.40625 4.996094 C 16.480469 4.800781 16.511719 4.617188 16.503906 4.4375 C 16.492188 4.261719 16.4375 4.089844 16.34375 3.925781 Z M 16.464844 3.851562 " fill-opacity="1" fill-rule="nonzero"/></g></g><g clip-path="url(#7aaff78381)"><g clip-path="url(#c05b827e86)"><path fill="#ffffff" d="M 15.839844 6.003906 C 15.71875 6.105469 15.621094 6.214844 15.546875 6.328125 C 15.476562 6.4375 15.433594 6.554688 15.410156 6.679688 L 15.269531 6.65625 C 15.296875 6.511719 15.347656 6.378906 15.429688 6.25 C 15.507812 6.121094 15.617188 6.003906 15.753906 5.890625 Z M 15.839844 6.003906 " fill-opacity="1" fill-rule="nonzero"/></g></g><g clip-path="url(#23a468ae98)"><g clip-path="url(#ce271d20c7)"><path fill="#ffffff" d="M 15.199219 7.484375 C 15.277344 7.777344 15.386719 8.027344 15.523438 8.242188 C 15.660156 8.453125 15.828125 8.628906 16.027344 8.765625 L 15.949219 8.882812 C 15.734375 8.738281 15.554688 8.550781 15.40625 8.320312 C 15.257812 8.09375 15.144531 7.828125 15.0625 7.523438 Z M 15.199219 7.484375 " fill-opacity="1" fill-rule="nonzero"/></g></g><g clip-path="url(#fcd4e6912a)"><g clip-path="url(#3cb4dc3b2f)"><path fill="#ffffff" d="M 17.320312 10.46875 C 17.507812 10.890625 17.589844 11.3125 17.570312 11.730469 C 17.546875 12.152344 17.425781 12.566406 17.199219 12.980469 L 17.003906 12.871094 C 17.214844 12.488281 17.328125 12.105469 17.347656 11.722656 C 17.367188 11.335938 17.289062 10.949219 17.121094 10.558594 Z M 17.320312 10.46875 " fill-opacity="1" fill-rule="nonzero"/></g></g><g clip-path="url(#6bbe1c931a)"><g clip-path="url(#ca9f1d5ba4)"><path fill="#ffffff" d="M 16.363281 14.839844 C 15.828125 15.78125 15.445312 16.582031 15.214844 17.25 C 14.988281 17.902344 14.914062 18.414062 14.984375 18.792969 L 14.765625 18.832031 C 14.6875 18.417969 14.769531 17.863281 15.007812 17.175781 C 15.242188 16.496094 15.628906 15.679688 16.171875 14.726562 Z M 16.363281 14.839844 " fill-opacity="1" fill-rule="nonzero"/></g></g><g clip-path="url(#3fa43a6858)"><g clip-path="url(#944b57d985)"><path fill="#ffffff" d="M 14.714844 21.28125 C 14.589844 22.277344 14.609375 23.199219 14.769531 24.046875 C 14.933594 24.894531 15.234375 25.667969 15.679688 26.371094 L 15.492188 26.492188 C 15.03125 25.765625 14.71875 24.964844 14.554688 24.089844 C 14.386719 23.21875 14.367188 22.273438 14.496094 21.253906 Z M 14.714844 21.28125 " fill-opacity="1" fill-rule="nonzero"/></g></g><path fill="#000000" d="M 11.398438 21.46875 L 11.753906 21.480469 C 11.910156 21.484375 11.984375 21.566406 11.980469 21.722656 L 11.9375 23 C 11.933594 23.15625 11.851562 23.234375 11.695312 23.226562 L 11.34375 23.214844 C 11.1875 23.210938 11.113281 23.132812 11.117188 22.976562 L 11.15625 21.695312 C 11.164062 21.539062 11.242188 21.464844 11.398438 21.46875 Z M 11.398438 21.46875 " fill-opacity="1" fill-rule="evenodd"/><path fill="#000000" d="M 16.382812 21.628906 L 16.734375 21.636719 C 16.890625 21.644531 16.964844 21.722656 16.960938 21.878906 L 16.921875 23.160156 C 16.914062 23.316406 16.835938 23.390625 16.679688 23.386719 L 16.328125 23.375 C 16.167969 23.371094 16.09375 23.289062 16.097656 23.132812 L 16.140625 21.855469 C 16.144531 21.699219 16.226562 21.621094 16.382812 21.628906 Z M 16.382812 21.628906 " fill-opacity="1" fill-rule="evenodd"/><path fill="#1a1a1a" d="M 11.960938 22.339844 C 11.574219 22.023438 11.371094 21.449219 11.359375 20.613281 C 11.199219 20.800781 11.144531 21.078125 11.1875 21.441406 C 11.25 22.058594 11.339844 22.460938 11.457031 22.65625 C 11.570312 22.769531 11.652344 22.855469 11.707031 22.917969 C 11.789062 23 11.917969 23.011719 12.101562 22.953125 C 12.195312 22.859375 12.355469 22.808594 12.582031 22.796875 C 14.351562 22.847656 15.234375 22.871094 15.234375 22.871094 C 15.488281 22.871094 15.71875 22.921875 15.929688 23.023438 C 16.023438 23.085938 16.128906 23.105469 16.253906 23.085938 C 16.597656 23.027344 16.820312 22.6875 16.914062 22.0625 C 17.050781 21.441406 17.03125 20.992188 16.867188 20.714844 C 16.898438 21.253906 16.851562 21.691406 16.730469 22.027344 C 16.363281 22.394531 15.871094 22.601562 15.25 22.648438 C 13.058594 22.445312 11.960938 22.339844 11.960938 22.339844 Z M 11.960938 22.339844 " fill-opacity="1" fill-rule="evenodd"/><path fill="#33cc99" d="M 11.652344 20.246094 C 11.546875 20.34375 11.457031 20.453125 11.382812 20.566406 C 11.304688 20.859375 11.300781 21.285156 11.382812 21.847656 C 11.425781 22.003906 11.445312 22.082031 11.445312 22.082031 C 11.445312 22.117188 11.460938 22.140625 11.5 22.15625 C 11.535156 22.160156 11.5625 22.191406 11.574219 22.242188 C 11.605469 22.3125 11.671875 22.359375 11.777344 22.386719 C 11.824219 22.40625 11.988281 22.433594 12.269531 22.46875 C 12.320312 22.523438 12.417969 22.5625 12.550781 22.585938 C 13.269531 22.703125 14.210938 22.742188 15.378906 22.699219 C 15.5625 22.707031 15.726562 22.664062 15.863281 22.570312 C 16.304688 22.550781 16.550781 22.460938 16.59375 22.300781 C 16.667969 22.277344 16.714844 22.199219 16.738281 22.074219 C 16.878906 21.601562 16.953125 21.140625 16.867188 20.730469 C 16.851562 20.664062 16.636719 20.398438 16.574219 20.351562 C 16.550781 20.335938 16.527344 20.320312 16.5 20.308594 C 16.492188 20.242188 16.511719 20.21875 16.5625 20.238281 C 16.773438 20.242188 16.875 20.167969 16.867188 20.023438 C 16.785156 19.871094 16.660156 19.824219 16.492188 19.882812 C 16.40625 19.929688 16.375 20 16.394531 20.085938 C 16.390625 20.195312 16.371094 20.210938 16.335938 20.136719 C 16.144531 19.609375 15.960938 19.214844 15.789062 18.945312 C 15.660156 18.855469 15.53125 18.808594 15.414062 18.808594 C 14.386719 18.675781 13.511719 18.65625 12.789062 18.757812 C 12.609375 18.777344 12.492188 18.84375 12.441406 18.953125 C 12.226562 19.269531 12.046875 19.625 11.902344 20.023438 C 11.863281 20.097656 11.835938 20.101562 11.820312 20.03125 C 11.859375 19.835938 11.804688 19.730469 11.652344 19.722656 C 11.46875 19.726562 11.367188 19.792969 11.347656 19.925781 C 11.386719 20.046875 11.484375 20.105469 11.648438 20.101562 C 11.703125 20.09375 11.726562 20.113281 11.71875 20.148438 C 11.71875 20.191406 11.695312 20.222656 11.652344 20.246094 Z M 11.652344 20.246094 " fill-opacity="1" fill-rule="evenodd"/><path fill="#ffff00" d="M 13.328125 21.796875 L 15.039062 21.851562 C 15.121094 21.851562 15.164062 21.894531 15.160156 21.976562 L 15.15625 22.113281 C 15.152344 22.195312 15.109375 22.234375 15.027344 22.234375 L 13.316406 22.179688 C 13.234375 22.175781 13.195312 22.132812 13.199219 22.050781 L 13.203125 21.914062 C 13.203125 21.832031 13.246094 21.792969 13.328125 21.796875 Z M 13.328125 21.796875 " fill-opacity="1" fill-rule="evenodd"/><path fill="#666666" d="M 16.261719 20.128906 C 15.128906 19.964844 14.015625 19.90625 12.921875 19.953125 C 12.761719 19.957031 12.585938 20.003906 12.425781 20.015625 C 12.277344 20.027344 12.148438 20.039062 12 20.015625 C 12.367188 19.261719 12.550781 18.882812 12.550781 18.882812 C 13.609375 18.824219 14.675781 18.859375 15.753906 18.984375 C 16.09375 19.75 16.261719 20.128906 16.261719 20.128906 Z M 16.261719 20.128906 " fill-opacity="1" fill-rule="evenodd"/><path fill="#000000" d="M 12.742188 21.101562 C 12.847656 21.265625 12.824219 21.339844 13.046875 21.414062 C 13.441406 21.546875 14.621094 21.679688 15.421875 21.519531 C 15.617188 21.480469 15.707031 21.351562 15.78125 21.226562 C 15.910156 21.039062 15.882812 20.933594 15.695312 20.914062 C 14.652344 20.828125 13.773438 20.804688 13.058594 20.84375 C 12.839844 20.855469 12.550781 20.796875 12.742188 21.101562 Z M 12.742188 21.101562 " fill-opacity="1" fill-rule="evenodd"/><path fill="#ffffff" d="M 16.816406 21.269531 C 16.8125 21.390625 16.765625 21.492188 16.679688 21.574219 C 16.589844 21.65625 16.484375 21.695312 16.363281 21.691406 C 16.246094 21.6875 16.140625 21.644531 16.058594 21.554688 C 15.976562 21.464844 15.9375 21.363281 15.941406 21.242188 C 15.945312 21.121094 15.992188 21.019531 16.078125 20.9375 C 16.167969 20.855469 16.273438 20.8125 16.394531 20.816406 C 16.515625 20.820312 16.617188 20.867188 16.699219 20.957031 C 16.78125 21.042969 16.820312 21.148438 16.816406 21.269531 Z M 16.816406 21.269531 " fill-opacity="1" fill-rule="nonzero"/><path fill="#ffffff" d="M 12.457031 21.132812 C 12.453125 21.253906 12.40625 21.355469 12.316406 21.4375 C 12.230469 21.519531 12.125 21.558594 12.003906 21.554688 C 11.882812 21.550781 11.78125 21.503906 11.699219 21.417969 C 11.613281 21.328125 11.574219 21.222656 11.578125 21.105469 C 11.582031 20.984375 11.628906 20.882812 11.71875 20.796875 C 11.804688 20.714844 11.910156 20.675781 12.03125 20.679688 C 12.152344 20.683594 12.253906 20.730469 12.335938 20.816406 C 12.417969 20.90625 12.460938 21.011719 12.457031 21.132812 Z M 12.457031 21.132812 " fill-opacity="1" fill-rule="nonzero"/><path fill="#ffff00" d="M 12.09375 22.144531 C 12.089844 22.269531 12.027344 22.328125 11.902344 22.324219 C 11.777344 22.320312 11.71875 22.257812 11.722656 22.132812 C 11.726562 22.007812 11.789062 21.949219 11.914062 21.953125 C 12.039062 21.957031 12.097656 22.023438 12.09375 22.144531 Z M 12.09375 22.144531 " fill-opacity="1" fill-rule="nonzero"/><path fill="#ffff00" d="M 16.554688 22.289062 C 16.550781 22.410156 16.484375 22.472656 16.363281 22.46875 C 16.238281 22.464844 16.175781 22.398438 16.179688 22.277344 C 16.183594 22.152344 16.25 22.089844 16.375 22.09375 C 16.496094 22.097656 16.558594 22.164062 16.554688 22.289062 Z M 16.554688 22.289062 " fill-opacity="1" fill-rule="nonzero"/><path fill="#000000" d="M 16.875 11.605469 L 17.078125 11.613281 C 17.167969 11.617188 17.210938 11.664062 17.207031 11.753906 L 17.183594 12.484375 C 17.183594 12.574219 17.136719 12.617188 17.046875 12.613281 L 16.84375 12.609375 C 16.753906 12.605469 16.710938 12.558594 16.714844 12.46875 L 16.738281 11.738281 C 16.742188 11.648438 16.785156 11.605469 16.875 11.605469 Z M 16.875 11.605469 " fill-opacity="1" fill-rule="evenodd"/><path fill="#000000" d="M 19.71875 11.699219 L 19.921875 11.703125 C 20.011719 11.707031 20.054688 11.753906 20.050781 11.84375 L 20.027344 12.574219 C 20.023438 12.664062 19.976562 12.707031 19.886719 12.703125 L 19.6875 12.699219 C 19.597656 12.695312 19.554688 12.648438 19.558594 12.558594 L 19.578125 11.828125 C 19.582031 11.738281 19.628906 11.695312 19.71875 11.699219 Z M 19.71875 11.699219 " fill-opacity="1" fill-rule="evenodd"/><path fill="#1a1a1a" d="M 17.234375 12.140625 C 17.011719 11.957031 16.894531 11.628906 16.886719 11.148438 C 16.796875 11.257812 16.765625 11.414062 16.789062 11.625 C 16.824219 11.976562 16.878906 12.207031 16.945312 12.320312 C 17.007812 12.382812 17.058594 12.433594 17.089844 12.46875 C 17.132812 12.515625 17.210938 12.523438 17.3125 12.488281 C 17.367188 12.4375 17.457031 12.40625 17.589844 12.398438 C 18.601562 12.429688 19.109375 12.441406 19.109375 12.441406 C 19.253906 12.441406 19.386719 12.472656 19.507812 12.53125 C 19.558594 12.5625 19.621094 12.578125 19.691406 12.566406 C 19.890625 12.53125 20.015625 12.335938 20.070312 11.980469 C 20.148438 11.625 20.136719 11.367188 20.042969 11.207031 C 20.058594 11.515625 20.035156 11.765625 19.964844 11.960938 C 19.753906 12.167969 19.472656 12.289062 19.117188 12.316406 C 17.859375 12.199219 17.234375 12.140625 17.234375 12.140625 Z M 17.234375 12.140625 " fill-opacity="1" fill-rule="evenodd"/><path fill="#ff0000" d="M 17.058594 10.9375 C 16.996094 10.996094 16.945312 11.058594 16.902344 11.121094 C 16.855469 11.289062 16.855469 11.535156 16.902344 11.855469 C 16.925781 11.945312 16.9375 11.988281 16.9375 11.988281 C 16.9375 12.011719 16.949219 12.023438 16.96875 12.03125 C 16.988281 12.035156 17.003906 12.050781 17.011719 12.082031 C 17.027344 12.121094 17.066406 12.148438 17.125 12.164062 C 17.15625 12.175781 17.25 12.191406 17.410156 12.210938 C 17.441406 12.242188 17.492188 12.265625 17.570312 12.277344 C 17.980469 12.347656 18.523438 12.367188 19.191406 12.34375 C 19.296875 12.347656 19.390625 12.324219 19.46875 12.269531 C 19.722656 12.257812 19.863281 12.207031 19.886719 12.117188 C 19.929688 12.101562 19.957031 12.058594 19.96875 11.984375 C 20.050781 11.714844 20.09375 11.453125 20.042969 11.214844 C 20.035156 11.175781 19.910156 11.027344 19.875 11 C 19.863281 10.988281 19.847656 10.980469 19.832031 10.972656 C 19.828125 10.9375 19.839844 10.921875 19.867188 10.933594 C 19.988281 10.9375 20.046875 10.894531 20.042969 10.808594 C 19.996094 10.726562 19.925781 10.699219 19.828125 10.730469 C 19.78125 10.757812 19.761719 10.796875 19.773438 10.847656 C 19.769531 10.910156 19.757812 10.917969 19.738281 10.875 C 19.628906 10.574219 19.523438 10.347656 19.425781 10.195312 C 19.351562 10.140625 19.277344 10.117188 19.210938 10.117188 C 18.621094 10.039062 18.121094 10.027344 17.707031 10.085938 C 17.605469 10.097656 17.539062 10.136719 17.507812 10.199219 C 17.386719 10.378906 17.28125 10.585938 17.199219 10.8125 C 17.175781 10.855469 17.160156 10.855469 17.152344 10.816406 C 17.175781 10.703125 17.144531 10.644531 17.058594 10.640625 C 16.953125 10.640625 16.894531 10.679688 16.878906 10.757812 C 16.902344 10.824219 16.960938 10.855469 17.054688 10.855469 C 17.085938 10.851562 17.097656 10.863281 17.09375 10.882812 C 17.09375 10.910156 17.082031 10.925781 17.058594 10.9375 Z M 17.058594 10.9375 " fill-opacity="1" fill-rule="evenodd"/><path fill="#ffff00" d="M 17.976562 11.792969 L 18.957031 11.824219 C 19.003906 11.824219 19.027344 11.851562 19.023438 11.898438 L 19.023438 11.976562 C 19.019531 12.023438 18.996094 12.046875 18.949219 12.042969 L 17.96875 12.011719 C 17.921875 12.011719 17.898438 11.988281 17.902344 11.941406 L 17.902344 11.863281 C 17.90625 11.816406 17.929688 11.792969 17.976562 11.792969 Z M 17.976562 11.792969 " fill-opacity="1" fill-rule="evenodd"/><path fill="#99ffff" d="M 19.695312 10.871094 C 19.046875 10.777344 18.410156 10.742188 17.785156 10.769531 C 17.691406 10.773438 17.589844 10.800781 17.5 10.808594 C 17.414062 10.8125 17.339844 10.820312 17.257812 10.808594 C 17.464844 10.375 17.570312 10.160156 17.570312 10.160156 C 18.175781 10.125 18.789062 10.144531 19.40625 10.21875 C 19.597656 10.652344 19.695312 10.871094 19.695312 10.871094 Z M 19.695312 10.871094 " fill-opacity="1" fill-rule="evenodd"/><path fill="#000000" d="M 17.679688 11.429688 C 17.742188 11.523438 17.726562 11.566406 17.855469 11.609375 C 18.082031 11.683594 18.757812 11.761719 19.214844 11.667969 C 19.328125 11.644531 19.378906 11.570312 19.421875 11.5 C 19.496094 11.394531 19.480469 11.332031 19.371094 11.320312 C 18.773438 11.273438 18.269531 11.257812 17.859375 11.28125 C 17.738281 11.289062 17.570312 11.253906 17.679688 11.429688 Z M 17.679688 11.429688 " fill-opacity="1" fill-rule="evenodd"/><path fill="#ffffff" d="M 19.96875 11.492188 C 19.964844 11.5625 19.9375 11.621094 19.886719 11.667969 C 19.839844 11.714844 19.777344 11.738281 19.707031 11.734375 C 19.640625 11.734375 19.582031 11.707031 19.535156 11.65625 C 19.484375 11.605469 19.464844 11.546875 19.464844 11.476562 C 19.46875 11.410156 19.496094 11.351562 19.546875 11.300781 C 19.59375 11.253906 19.65625 11.234375 19.726562 11.234375 C 19.792969 11.238281 19.851562 11.261719 19.898438 11.3125 C 19.945312 11.363281 19.96875 11.425781 19.96875 11.492188 Z M 19.96875 11.492188 " fill-opacity="1" fill-rule="nonzero"/><path fill="#ffffff" d="M 17.480469 11.414062 C 17.476562 11.484375 17.449219 11.542969 17.398438 11.589844 C 17.347656 11.636719 17.289062 11.660156 17.21875 11.65625 C 17.152344 11.65625 17.09375 11.628906 17.042969 11.578125 C 16.996094 11.527344 16.976562 11.46875 16.976562 11.398438 C 16.980469 11.328125 17.003906 11.269531 17.054688 11.222656 C 17.105469 11.175781 17.167969 11.152344 17.234375 11.15625 C 17.304688 11.160156 17.363281 11.183594 17.410156 11.234375 C 17.457031 11.285156 17.480469 11.34375 17.480469 11.414062 Z M 17.480469 11.414062 " fill-opacity="1" fill-rule="nonzero"/><path fill="#ffff00" d="M 17.300781 11.988281 C 17.296875 12.058594 17.261719 12.09375 17.191406 12.09375 C 17.117188 12.089844 17.085938 12.054688 17.085938 11.984375 C 17.089844 11.910156 17.125 11.878906 17.195312 11.878906 C 17.269531 11.882812 17.300781 11.917969 17.300781 11.988281 Z M 17.300781 11.988281 " fill-opacity="1" fill-rule="nonzero"/><path fill="#ffff00" d="M 19.84375 12.070312 C 19.84375 12.140625 19.808594 12.175781 19.734375 12.171875 C 19.664062 12.171875 19.628906 12.132812 19.632812 12.0625 C 19.632812 11.992188 19.671875 11.957031 19.742188 11.960938 C 19.8125 11.960938 19.847656 12 19.84375 12.070312 Z M 19.84375 12.070312 " fill-opacity="1" fill-rule="nonzero"/><path fill="#666666" d="M 9.046875 10.996094 C 9.101562 10.996094 9.144531 11.03125 9.183594 11.097656 C 9.21875 11.164062 9.238281 11.242188 9.238281 11.335938 L 9.238281 19.195312 C 9.238281 19.289062 9.21875 19.367188 9.183594 19.433594 C 9.144531 19.5 9.101562 19.535156 9.046875 19.535156 C 8.996094 19.535156 8.953125 19.5 8.914062 19.433594 C 8.878906 19.367188 8.859375 19.289062 8.859375 19.195312 L 8.859375 11.335938 C 8.859375 11.242188 8.878906 11.164062 8.914062 11.097656 C 8.953125 11.03125 8.996094 10.996094 9.046875 10.996094 Z M 9.046875 10.996094 " fill-opacity="1" fill-rule="evenodd"/><path fill="#ffff66" d="M 9.875 11.90625 C 9.808594 11.894531 9.757812 11.851562 9.71875 11.777344 C 9.675781 11.699219 9.660156 11.609375 9.667969 11.511719 C 9.675781 11.414062 9.707031 11.332031 9.757812 11.269531 C 9.808594 11.207031 9.863281 11.183594 9.929688 11.191406 C 9.992188 11.203125 10.046875 11.246094 10.085938 11.324219 C 10.125 11.402344 10.140625 11.488281 10.132812 11.585938 C 10.125 11.6875 10.097656 11.765625 10.046875 11.828125 C 9.996094 11.890625 9.9375 11.917969 9.875 11.90625 Z M 9.875 11.90625 " fill-opacity="1" fill-rule="nonzero"/><path fill="#999999" d="M 10.59375 11.148438 C 10.59375 11.226562 10.511719 11.296875 10.34375 11.351562 C 10.171875 11.40625 9.96875 11.433594 9.730469 11.433594 C 9.496094 11.433594 9.289062 11.40625 9.121094 11.351562 C 8.953125 11.296875 8.871094 11.226562 8.871094 11.148438 C 8.871094 11.070312 8.953125 11.003906 9.121094 10.945312 C 9.289062 10.890625 9.496094 10.863281 9.730469 10.863281 C 9.96875 10.863281 10.171875 10.890625 10.34375 10.945312 C 10.511719 11.003906 10.59375 11.070312 10.59375 11.148438 Z M 10.59375 11.148438 " fill-opacity="1" fill-rule="nonzero"/><g clip-path="url(#2549d56ea1)"><path fill="#666666" d="M 12.539062 2.992188 C 12.613281 2.992188 12.648438 3.058594 12.648438 3.1875 L 12.648438 7.734375 C 12.648438 7.867188 12.613281 7.933594 12.539062 7.933594 C 12.464844 7.933594 12.429688 7.867188 12.429688 7.734375 L 12.429688 3.1875 C 12.429688 3.058594 12.464844 2.992188 12.539062 2.992188 Z M 12.539062 2.992188 " fill-opacity="1" fill-rule="evenodd"/></g><path fill="#ffff66" d="M 13.015625 3.519531 C 12.925781 3.503906 12.886719 3.425781 12.898438 3.289062 C 12.910156 3.152344 12.960938 3.089844 13.050781 3.105469 C 13.136719 3.121094 13.179688 3.195312 13.167969 3.332031 C 13.15625 3.472656 13.105469 3.53125 13.015625 3.519531 Z M 13.015625 3.519531 " fill-opacity="1" fill-rule="nonzero"/><g clip-path="url(#dd195689d2)"><path fill="#999999" d="M 13.433594 3.078125 C 13.433594 3.125 13.386719 3.164062 13.289062 3.195312 C 13.191406 3.230469 13.074219 3.246094 12.933594 3.246094 C 12.796875 3.246094 12.679688 3.230469 12.582031 3.195312 C 12.484375 3.164062 12.4375 3.125 12.4375 3.078125 C 12.4375 3.035156 12.484375 2.996094 12.582031 2.960938 C 12.679688 2.929688 12.796875 2.914062 12.933594 2.914062 C 13.074219 2.914062 13.191406 2.929688 13.289062 2.960938 C 13.386719 2.996094 13.433594 3.035156 13.433594 3.078125 Z M 13.433594 3.078125 " fill-opacity="1" fill-rule="nonzero"/></g></svg>
