<svg xmlns="http://www.w3.org/2000/svg" xmlns:xlink="http://www.w3.org/1999/xlink" width="40" zoomAndPan="magnify" viewBox="0 0 30 30.000001" height="40" preserveAspectRatio="xMidYMid meet" version="1.0"><defs><clipPath id="7326a5cca4"><path d="M 3.386719 12 L 26.613281 12 L 26.613281 23 L 3.386719 23 Z M 3.386719 12 " clip-rule="nonzero"/></clipPath><clipPath id="8fda8f8521"><path d="M 4 24 L 26 24 L 26 24.445312 L 4 24.445312 Z M 4 24 " clip-rule="nonzero"/></clipPath><clipPath id="2c3cc5bf3c"><path d="M 15 4.847656 L 17 4.847656 L 17 7 L 15 7 Z M 15 4.847656 " clip-rule="nonzero"/></clipPath><clipPath id="11b97d694a"><path d="M 6 22 L 9 22 L 9 24.445312 L 6 24.445312 Z M 6 22 " clip-rule="nonzero"/></clipPath><clipPath id="23bb09ad6e"><path d="M 8 23 L 11 23 L 11 24.445312 L 8 24.445312 Z M 8 23 " clip-rule="nonzero"/></clipPath><clipPath id="3f555266bf"><path d="M 8 23 L 12 23 L 12 24.445312 L 8 24.445312 Z M 8 23 " clip-rule="nonzero"/></clipPath><clipPath id="f0d57fbac0"><path d="M 15 22 L 17 22 L 17 24.445312 L 15 24.445312 Z M 15 22 " clip-rule="nonzero"/></clipPath><clipPath id="4b74bd1060"><path d="M 15 23 L 17 23 L 17 24.445312 L 15 24.445312 Z M 15 23 " clip-rule="nonzero"/></clipPath><clipPath id="73a86626f0"><path d="M 16 22 L 19 22 L 19 24.445312 L 16 24.445312 Z M 16 22 " clip-rule="nonzero"/></clipPath><clipPath id="f060baa3ae"><path d="M 15 23 L 19 23 L 19 24.445312 L 15 24.445312 Z M 15 23 " clip-rule="nonzero"/></clipPath><clipPath id="cf2878c90b"><path d="M 20 22 L 23 22 L 23 24.445312 L 20 24.445312 Z M 20 22 " clip-rule="nonzero"/></clipPath><clipPath id="7578199dbc"><path d="M 20 23 L 23 23 L 23 24.445312 L 20 24.445312 Z M 20 23 " clip-rule="nonzero"/></clipPath><clipPath id="6058d6e476"><path d="M 22 23 L 26 23 L 26 24.445312 L 22 24.445312 Z M 22 23 " clip-rule="nonzero"/></clipPath></defs><g clip-path="url(#7326a5cca4)"><path fill="#8dc0df" d="M 3.429688 22.878906 L 3.386719 19.105469 L 3.878906 19.0625 L 3.878906 18.667969 L 4.496094 18.625 L 4.476562 17.023438 L 4.722656 17 C 4.722656 17 4.640625 15.894531 5.113281 15.480469 C 5.113281 15.480469 5.050781 14.980469 5.339844 14.894531 L 5.339844 13.9375 L 5.441406 14.917969 C 5.441406 14.917969 5.667969 14.957031 5.648438 15.394531 C 5.648438 15.394531 6.039062 15.917969 5.996094 17.0625 L 6.222656 17.0625 L 6.242188 19.25 L 10.703125 19.167969 L 10.703125 18.730469 L 14.792969 18.75 L 14.792969 19.4375 L 15.65625 19.4375 L 15.636719 19 L 16.664062 19.042969 L 16.664062 18.417969 L 19.808594 18.355469 L 19.851562 16.855469 L 21 16.832031 L 21.023438 16.3125 L 22.316406 16.292969 L 22.335938 18.042969 L 23.035156 18.023438 L 23.015625 15.75 L 24.226562 15.707031 L 24.1875 12.5 L 25.542969 12.5 L 25.625 14.8125 L 25.851562 14.8125 L 25.914062 15.957031 L 26.140625 15.957031 L 26.160156 14.1875 L 26.59375 14.1875 L 26.613281 22.859375 Z M 3.429688 22.878906 " fill-opacity="1" fill-rule="nonzero"/></g><g clip-path="url(#8fda8f8521)"><path fill="#282828" d="M 25.964844 24.292969 C 25.964844 24.304688 25.894531 24.3125 25.757812 24.324219 C 25.621094 24.332031 25.417969 24.34375 25.152344 24.351562 C 24.882812 24.359375 24.550781 24.371094 24.164062 24.378906 C 23.773438 24.386719 23.328125 24.394531 22.832031 24.402344 C 22.335938 24.40625 21.796875 24.414062 21.210938 24.417969 C 20.628906 24.425781 20.011719 24.429688 19.363281 24.433594 C 18.710938 24.4375 18.042969 24.441406 17.355469 24.441406 C 16.667969 24.445312 15.96875 24.445312 15.269531 24.445312 C 14.566406 24.445312 13.871094 24.445312 13.179688 24.441406 C 12.492188 24.441406 11.824219 24.4375 11.175781 24.433594 C 10.527344 24.429688 9.910156 24.425781 9.324219 24.417969 C 8.742188 24.414062 8.203125 24.40625 7.703125 24.402344 C 7.207031 24.394531 6.765625 24.386719 6.375 24.378906 C 5.984375 24.371094 5.65625 24.359375 5.386719 24.351562 C 5.117188 24.34375 4.914062 24.332031 4.777344 24.324219 C 4.640625 24.3125 4.570312 24.304688 4.570312 24.292969 C 4.570312 24.285156 4.640625 24.273438 4.777344 24.261719 C 4.914062 24.253906 5.117188 24.246094 5.386719 24.234375 C 5.65625 24.226562 5.984375 24.21875 6.375 24.207031 C 6.765625 24.199219 7.207031 24.191406 7.703125 24.183594 C 8.203125 24.179688 8.742188 24.171875 9.324219 24.167969 C 9.910156 24.160156 10.527344 24.15625 11.175781 24.152344 C 11.824219 24.148438 12.492188 24.144531 13.179688 24.144531 C 13.871094 24.140625 14.566406 24.140625 15.269531 24.140625 C 15.96875 24.140625 16.667969 24.140625 17.355469 24.144531 C 18.042969 24.144531 18.710938 24.148438 19.363281 24.152344 C 20.011719 24.15625 20.628906 24.160156 21.210938 24.167969 C 21.796875 24.171875 22.335938 24.179688 22.832031 24.183594 C 23.328125 24.191406 23.773438 24.199219 24.164062 24.207031 C 24.550781 24.21875 24.882812 24.226562 25.152344 24.234375 C 25.417969 24.246094 25.621094 24.253906 25.757812 24.261719 C 25.894531 24.273438 25.964844 24.285156 25.964844 24.292969 Z M 25.964844 24.292969 " fill-opacity="1" fill-rule="nonzero"/></g><path fill="#8dc0df" d="M 10.128906 17.710938 L 17.816406 17.792969 C 17.816406 17.792969 17.488281 17.460938 17.074219 17.460938 C 16.664062 17.460938 16.007812 16.960938 15.390625 16.960938 C 14.773438 16.960938 14.9375 16.960938 14.445312 17.042969 C 13.953125 17.125 13.789062 16.542969 13.007812 16.542969 C 12.226562 16.542969 11.8125 15.917969 11.566406 16.625 C 11.320312 17.335938 8.9375 17.5 10.128906 17.710938 Z M 10.128906 17.710938 " fill-opacity="1" fill-rule="nonzero"/><g clip-path="url(#2c3cc5bf3c)"><path fill="#1ba899" d="M 16.53125 6.671875 L 15.523438 6.109375 L 15.296875 4.847656 L 16.398438 5.285156 Z M 16.53125 6.671875 " fill-opacity="1" fill-rule="nonzero"/></g><path fill="#6e7ea2" d="M 22.410156 14.667969 L 22.316406 14.769531 L 22.304688 18.835938 L 22.625 18.824219 L 22.59375 14.636719 Z M 23.273438 14.675781 L 23.304688 18.898438 L 23.613281 18.867188 L 23.621094 18.636719 L 23.558594 14.699219 Z M 23.273438 14.675781 " fill-opacity="1" fill-rule="nonzero"/><path fill="#fc8d7c" d="M 21.699219 18.667969 L 24.773438 18.65625 C 24.773438 18.65625 25.007812 18.59375 25.039062 18.835938 C 25.070312 19.074219 24.988281 23.609375 24.988281 23.609375 L 21.75 23.640625 L 21.472656 23.335938 Z M 21.699219 18.667969 " fill-opacity="1" fill-rule="nonzero"/><path fill="#f5c1a8" d="M 8.859375 22.269531 L 8.84375 23.492188 L 9.570312 23.476562 L 9.570312 22.238281 Z M 6.917969 21.789062 L 7.632812 21.238281 L 8.117188 21.714844 L 8.066406 21.921875 L 7.398438 22.453125 Z M 16.023438 22.054688 L 16.023438 22.960938 L 15.230469 23.367188 L 15.226562 21.945312 Z M 17.367188 21.929688 L 17.085938 23.226562 L 17.941406 23.441406 L 18.234375 21.921875 Z M 21.015625 22.34375 L 21.074219 23.449219 L 21.800781 23.398438 L 21.722656 22.171875 Z M 21.015625 22.34375 " fill-opacity="1" fill-rule="nonzero"/><path fill="#f5c1a8" d="M 9.1875 7.804688 C 9.1875 7.804688 9.230469 8.144531 8.675781 8.6875 L 9.839844 9.011719 L 10.121094 8.375 L 10.523438 8.472656 C 10.523438 8.472656 10.726562 8.488281 10.761719 8.160156 C 10.726562 8.160156 10.839844 7.90625 10.851562 7.796875 C 10.867188 7.683594 11.101562 7.691406 11.09375 7.511719 C 11.089844 7.445312 10.835938 7.429688 10.804688 7.234375 C 10.855469 6.597656 10.515625 6.75 10.285156 6.675781 L 9.296875 7.042969 C 9.296875 7.042969 9.027344 7.582031 9.1875 7.804688 Z M 14.300781 9.394531 C 14.300781 9.394531 14.402344 8.894531 14.34375 8.644531 C 14.34375 8.644531 14.289062 8.390625 13.992188 8.433594 C 13.992188 8.433594 13.304688 8.683594 13.355469 8.109375 C 13.40625 7.539062 14.15625 7.351562 14.15625 7.351562 L 14.363281 6.664062 L 14.917969 6.652344 L 15.328125 7.027344 C 15.328125 7.027344 15.421875 7.109375 15.464844 7.289062 C 15.5 7.449219 15.484375 7.699219 15.476562 7.808594 C 15.46875 8.039062 15.429688 8.433594 15.246094 8.558594 C 15.167969 8.613281 14.9375 8.644531 14.9375 8.644531 L 14.980469 9.144531 C 14.980469 9.144531 15.152344 9.214844 15.234375 9.175781 C 15.320312 9.132812 15.472656 9.558594 15.472656 9.558594 L 15.390625 10.050781 L 14.949219 10.277344 Z M 17.199219 7.121094 C 17.199219 7.121094 16.984375 6.820312 17.003906 6.734375 C 17.023438 6.652344 16.953125 6.203125 16.808594 6.089844 C 16.664062 5.976562 16.460938 5.652344 16.324219 5.734375 C 16.191406 5.820312 16.109375 6.203125 16.234375 6.328125 C 16.355469 6.453125 16.53125 6.570312 16.53125 6.570312 C 16.53125 6.570312 16.582031 6.703125 16.4375 6.640625 C 16.292969 6.578125 16.070312 6.445312 16.070312 6.445312 C 16.070312 6.445312 15.976562 6.777344 16.121094 6.953125 C 16.265625 7.132812 16.316406 7.246094 16.5 7.226562 C 16.683594 7.203125 16.992188 7.308594 17.015625 7.351562 C 17.035156 7.390625 17.238281 7.121094 17.238281 7.121094 Z M 20.46875 9.527344 L 20.375 8.957031 L 20.671875 7.890625 L 20.023438 7.539062 L 19.078125 7.121094 L 18.761719 7.246094 C 18.761719 7.246094 18.617188 7.496094 18.585938 7.695312 C 18.554688 7.890625 18.710938 8.695312 19.191406 8.902344 L 19.574219 9.101562 C 19.667969 9.300781 19.597656 9.53125 19.59375 9.664062 C 19.59375 9.664062 19.6875 9.894531 19.890625 9.863281 C 20.097656 9.832031 20.394531 9.851562 20.46875 9.527344 Z M 20.46875 9.527344 " fill-opacity="1" fill-rule="nonzero"/><path fill="#26375e" d="M 13.109375 13.519531 L 12.085938 22.511719 L 13.644531 22.355469 L 13.820312 20.046875 L 14.9375 14.875 C 14.9375 14.875 15.019531 14.605469 15.101562 14.917969 C 15.183594 15.230469 14.835938 22.292969 14.835938 22.292969 C 14.988281 22.421875 16.351562 22.46875 16.398438 22.324219 C 16.398438 22.324219 16.765625 14.167969 16.644531 13.769531 C 16.519531 13.375 15.125 13.226562 15.125 13.226562 Z M 13.109375 13.519531 " fill-opacity="1" fill-rule="nonzero"/><path fill="#6e7ea2" d="M 11.910156 15.238281 L 11.792969 15.402344 L 11.78125 19.277344 L 12.144531 19.277344 L 12.128906 15.402344 Z M 12.8125 15.238281 L 12.78125 19.320312 L 13.132812 19.308594 L 13.117188 15.285156 Z M 12.8125 15.238281 " fill-opacity="1" fill-rule="nonzero"/><path fill="#fc8d7c" d="M 11.285156 19.128906 L 13.507812 19.113281 C 13.507812 19.113281 14.105469 19.027344 14.164062 19.644531 C 14.222656 20.265625 14.164062 23.714844 14.164062 23.714844 C 14.164062 23.714844 14.046875 23.964844 13.859375 23.980469 C 13.667969 23.992188 10.253906 23.949219 10.253906 23.949219 L 10.050781 23.800781 L 9.933594 23.449219 L 9.875 21.03125 L 9.949219 19.882812 Z M 11.285156 19.128906 " fill-opacity="1" fill-rule="nonzero"/><path fill="#6f7da2" d="M 10.878906 16.109375 L 11.023438 16.519531 L 11.429688 18.71875 C 11.429688 18.71875 11.546875 19.160156 11.445312 19.367188 C 11.34375 19.570312 10.269531 20.78125 10.269531 20.78125 L 10.371094 22.460938 L 8.21875 22.386719 L 8.21875 22.195312 L 7.347656 21.03125 L 8.363281 20.234375 C 8.363281 20.234375 8.597656 18.71875 8.597656 18.128906 C 8.597656 17.539062 8.292969 15.164062 8.292969 15.164062 L 9.6875 14.679688 L 10.457031 14.828125 Z M 10.878906 16.109375 " fill-opacity="1" fill-rule="nonzero"/><path fill="#26375e" d="M 10.398438 14.945312 L 10.226562 18.671875 C 10.226562 18.671875 10.488281 18.628906 10.472656 18.40625 C 10.457031 18.1875 10.328125 17.15625 10.546875 16.992188 C 10.761719 16.832031 11.066406 16.652344 11.066406 16.652344 L 10.761719 14.855469 Z M 10.398438 14.945312 " fill-opacity="1" fill-rule="nonzero"/><path fill="#26375e" d="M 9.121094 15.105469 C 9.140625 15.101562 9.203125 16.484375 9.261719 18.28125 C 9.261719 18.277344 9.191406 18.414062 9.195312 18.410156 C 9.1875 18.4375 9.183594 18.460938 9.191406 18.476562 C 9.199219 18.5 9.226562 18.511719 9.257812 18.523438 C 9.316406 18.535156 9.398438 18.578125 9.414062 18.671875 C 9.414062 18.671875 9.414062 18.675781 9.414062 18.679688 C 9.410156 18.765625 9.386719 18.847656 9.386719 18.917969 C 9.386719 18.96875 9.402344 19.023438 9.394531 19.089844 C 9.386719 19.179688 9.347656 19.257812 9.324219 19.328125 C 9.300781 19.394531 9.296875 19.46875 9.289062 19.546875 C 9.273438 19.675781 9.261719 19.808594 9.253906 19.933594 C 9.230469 20.300781 9.210938 20.671875 9.195312 20.96875 C 9.179688 21.34375 9.167969 21.570312 9.152344 21.945312 C 9.144531 22.078125 9.140625 22.183594 9.132812 22.257812 C 9.132812 22.296875 9.128906 22.328125 9.128906 22.347656 C 9.125 22.355469 9.125 22.363281 9.125 22.371094 C 9.125 22.371094 9.121094 22.375 9.121094 22.375 C 9.121094 22.378906 9.121094 22.378906 9.121094 22.378906 C 9.121094 22.378906 9.121094 22.378906 9.121094 22.375 C 9.121094 22.375 9.121094 22.371094 9.117188 22.371094 C 9.117188 22.363281 9.117188 22.355469 9.117188 22.347656 C 9.117188 22.328125 9.113281 22.296875 9.113281 22.257812 C 9.113281 22.183594 9.113281 22.078125 9.113281 21.945312 C 9.117188 21.707031 9.121094 21.363281 9.132812 20.96875 C 9.144531 20.667969 9.15625 20.300781 9.179688 19.929688 C 9.1875 19.804688 9.195312 19.671875 9.210938 19.535156 C 9.21875 19.464844 9.222656 19.382812 9.25 19.300781 C 9.273438 19.222656 9.308594 19.152344 9.316406 19.082031 C 9.320312 19.035156 9.308594 18.980469 9.308594 18.917969 C 9.308594 18.828125 9.332031 18.75 9.332031 18.675781 C 9.332031 18.675781 9.332031 18.671875 9.332031 18.671875 C 9.347656 18.640625 9.285156 18.625 9.234375 18.601562 C 9.1875 18.589844 9.140625 18.558594 9.117188 18.507812 C 9.101562 18.460938 9.109375 18.417969 9.121094 18.378906 C 9.121094 18.378906 9.183594 18.265625 9.1875 18.261719 C 9.128906 16.476562 9.101562 15.105469 9.121094 15.105469 Z M 9.550781 18.84375 C 9.550781 18.84375 9.554688 18.84375 9.554688 18.851562 C 9.558594 18.855469 9.558594 18.859375 9.558594 18.867188 C 9.558594 18.882812 9.558594 18.902344 9.558594 18.929688 C 9.550781 18.976562 9.539062 19.042969 9.515625 19.117188 C 9.507812 19.144531 9.5 19.171875 9.488281 19.199219 C 9.417969 19.390625 9.273438 19.496094 9.257812 19.476562 C 9.246094 19.457031 9.34375 19.351562 9.414062 19.171875 C 9.421875 19.144531 9.433594 19.117188 9.441406 19.09375 C 9.46875 19.023438 9.488281 18.960938 9.507812 18.917969 C 9.515625 18.894531 9.523438 18.875 9.53125 18.863281 C 9.535156 18.855469 9.539062 18.851562 9.539062 18.847656 C 9.542969 18.84375 9.546875 18.84375 9.550781 18.84375 Z M 9.011719 18.660156 C 8.996094 18.640625 9.085938 18.539062 9.207031 18.433594 C 9.328125 18.324219 9.441406 18.25 9.453125 18.269531 C 9.46875 18.285156 9.382812 18.386719 9.257812 18.492188 C 9.136719 18.601562 9.027344 18.675781 9.011719 18.660156 Z M 8.359375 20.253906 C 8.382812 20.253906 8.371094 20.695312 8.335938 21.234375 C 8.296875 21.773438 8.25 22.214844 8.226562 22.210938 C 8.207031 22.210938 8.21875 21.769531 8.253906 21.230469 C 8.292969 20.6875 8.339844 20.25 8.359375 20.253906 Z M 10.3125 20.730469 C 10.292969 20.730469 10.257812 20.265625 10.238281 19.691406 C 10.21875 19.117188 10.21875 18.648438 10.242188 18.648438 C 10.265625 18.644531 10.296875 19.113281 10.316406 19.6875 C 10.335938 20.261719 10.335938 20.730469 10.3125 20.730469 Z M 10.3125 20.730469 " fill-opacity="1" fill-rule="nonzero"/><path fill="#392330" d="M 8.664062 7.480469 C 8.699219 7.539062 8.714844 7.714844 8.800781 7.699219 C 8.886719 7.6875 9.0625 7.996094 9.191406 7.964844 C 9.191406 7.964844 9.398438 7.949219 9.359375 7.878906 C 9.324219 7.804688 9.164062 7.441406 9.433594 7.382812 C 9.703125 7.324219 9.6875 7.605469 9.890625 7.566406 C 10.09375 7.53125 9.804688 7.429688 9.832031 7.347656 C 9.863281 7.265625 9.875 7.207031 9.976562 7.234375 C 10.078125 7.265625 10.421875 7.230469 10.3125 7.140625 C 10.203125 7.050781 10.066406 6.882812 10.234375 6.949219 C 10.398438 7.015625 10.539062 7.132812 10.625 7.082031 C 10.710938 7.03125 10.753906 6.933594 10.84375 6.933594 C 10.929688 6.933594 11.140625 7.066406 11.140625 6.941406 C 11.140625 6.816406 11.074219 6.898438 11.105469 6.765625 C 11.132812 6.632812 11.292969 6.640625 11.175781 6.542969 C 11.0625 6.449219 11.265625 6.382812 11.039062 6.34375 C 10.8125 6.308594 10.894531 6.226562 10.675781 6.140625 C 9.507812 5.65625 8.273438 6.324219 8.664062 7.480469 Z M 8.664062 7.480469 " fill-opacity="1" fill-rule="nonzero"/><path fill="#392330" d="M 14.640625 6.695312 C 14.640625 6.695312 14.578125 7.546875 14.011719 7.808594 C 14.011719 7.808594 13.789062 7.882812 13.714844 7.914062 C 13.644531 7.945312 13.480469 8.140625 13.652344 8.328125 C 13.828125 8.519531 13.984375 8.433594 13.984375 8.433594 C 13.984375 8.433594 14.300781 8.371094 14.332031 8.601562 C 14.363281 8.832031 14.363281 8.914062 14.363281 8.914062 C 14.363281 8.914062 14.238281 8.613281 13.828125 8.613281 C 13.539062 8.613281 13.046875 8.296875 13.148438 7.796875 C 13.238281 7.378906 13.964844 6.199219 14.546875 6.589844 C 14.546875 6.589844 14.710938 6.433594 14.804688 6.433594 C 14.898438 6.433594 15.320312 6.8125 15.472656 7.140625 C 15.578125 7.367188 15.523438 7.53125 15.503906 7.75 C 15.476562 8.023438 15.453125 8.339844 15.308594 8.539062 C 15.167969 8.613281 14.972656 8.617188 14.957031 8.871094 C 14.949219 8.765625 14.867188 8.628906 14.980469 8.570312 C 14.980469 8.570312 15.246094 8.589844 15.347656 8.351562 C 15.480469 8.042969 15.429688 7.320312 15.429688 7.320312 C 15.429688 7.320312 14.847656 6.558594 14.640625 6.695312 Z M 14.640625 6.695312 " fill-opacity="1" fill-rule="nonzero"/><path fill="#493650" d="M 11.78125 15.488281 L 12.144531 15.488281 C 12.144531 15.488281 12.101562 15.34375 12.214844 15.328125 C 12.332031 15.3125 12.769531 15.210938 12.8125 15.34375 C 12.855469 15.476562 13.132812 15.402344 13.132812 15.402344 L 13.160156 14.898438 C 13.160156 14.898438 12.550781 14.707031 12.375 14.828125 C 12.203125 14.945312 12.027344 15.046875 12.027344 15.046875 C 12.027344 15.046875 11.707031 15.0625 11.78125 15.488281 Z M 11.78125 15.488281 " fill-opacity="1" fill-rule="nonzero"/><path fill="#1ba899" d="M 14.351562 9.0625 L 14.363281 8.875 C 14.363281 8.875 13.4375 8.769531 13.453125 9.242188 C 13.453125 9.242188 13.363281 9.386719 13.539062 9.402344 C 13.714844 9.417969 14.351562 10.167969 14.351562 10.167969 L 14.367188 13.660156 C 14.367188 13.660156 16.007812 14.148438 16.578125 13.78125 L 16.664062 13.808594 L 16.664062 13.53125 L 16.460938 10.125 L 15.90625 9.167969 C 15.90625 9.167969 15.515625 8.691406 14.949219 8.839844 L 14.976562 9.167969 C 15.171875 9.238281 15.179688 9.191406 15.277344 9.175781 C 15.277344 9.175781 15.152344 9.578125 15.035156 9.578125 C 14.917969 9.578125 14.351562 9.0625 14.351562 9.0625 Z M 14.351562 9.0625 " fill-opacity="1" fill-rule="nonzero"/><path fill="#091634" d="M 15.710938 9.476562 C 15.710938 9.476562 15.894531 9.285156 15.777344 9.035156 C 15.777344 9.035156 16.140625 8.796875 16.546875 8.859375 C 16.953125 8.917969 16.984375 8.917969 17.316406 8.535156 C 17.316406 8.535156 16.851562 8.28125 16.996094 7.78125 C 16.996094 7.78125 16.707031 7.621094 16.765625 7.429688 C 16.824219 7.234375 17.070312 7.015625 17.070312 7.015625 C 17.070312 7.015625 17.257812 6.78125 17.433594 7.25 L 18.496094 8.371094 C 18.496094 8.371094 18.828125 8.769531 18.421875 9.195312 C 18.015625 9.625 17.15625 10.65625 16.578125 10.980469 C 16.578125 10.980469 16.851562 12.660156 16.851562 13.515625 L 16.621094 13.601562 C 16.621094 13.601562 16.503906 12.410156 16.371094 12.027344 C 16.242188 11.644531 16.039062 11.007812 16.199219 10.347656 C 16.199219 10.148438 15.628906 9.53125 15.710938 9.476562 Z M 13.449219 9.414062 C 13.449219 9.414062 13.519531 9.308594 13.777344 9.320312 C 14.035156 9.332031 14.722656 9.527344 14.761719 9.945312 C 14.804688 10.363281 15.246094 11.300781 14.96875 12.300781 L 14.917969 13.925781 C 14.917969 13.925781 15.050781 14.207031 14.621094 14.15625 C 14.621094 14.15625 12.78125 13.882812 12.78125 13.769531 C 12.78125 13.65625 12.769531 13.332031 12.769531 13.332031 C 12.769531 13.332031 12.667969 13.34375 12.738281 12.988281 C 12.8125 12.632812 12.8125 12.582031 12.8125 12.582031 C 12.8125 12.582031 12.398438 12.257812 12.472656 11.664062 C 12.542969 11.070312 12.8125 9.808594 13.449219 9.414062 Z M 13.449219 9.414062 " fill-opacity="1" fill-rule="nonzero"/><path fill="#c63e20" d="M 14.929688 12.351562 L 14.917969 11.957031 L 16.070312 12.039062 L 16.140625 12.082031 L 16.078125 13.207031 L 15.863281 13.300781 L 14.929688 13.289062 Z M 14.929688 12.351562 " fill-opacity="1" fill-rule="nonzero"/><path fill="#c63e20" d="M 11.648438 11.609375 L 11.761719 10.476562 C 11.761719 10.476562 11.757812 10.253906 11.96875 10.226562 C 12.257812 10.1875 12.953125 9.933594 12.953125 9.933594 C 12.953125 9.933594 13.121094 10.019531 13.148438 10.175781 C 13.179688 10.332031 13.074219 11.652344 13.074219 11.652344 L 12.800781 11.820312 L 12.996094 11.5 Z M 11.648438 11.609375 " fill-opacity="1" fill-rule="nonzero"/><path fill="#f5c1a8" d="M 12.09375 14.554688 L 12.238281 14.550781 C 12.238281 14.550781 13.265625 14.570312 13.285156 14.867188 C 13.308594 15.160156 13.292969 15.425781 13.21875 15.425781 C 13.148438 15.425781 13.148438 15.285156 13.140625 15.199219 C 13.132812 15.109375 12.894531 14.777344 12.441406 14.953125 C 12.441406 14.953125 12.632812 15.144531 12.695312 15.21875 C 12.761719 15.292969 12.796875 15.410156 12.617188 15.34375 C 12.433594 15.277344 11.847656 15.050781 11.875 14.792969 M 11.984375 11.492188 L 12.101562 11.410156 C 12.101562 11.410156 12.566406 11.394531 12.660156 11.425781 C 12.753906 11.453125 13.03125 11.394531 12.996094 11.492188 C 12.996094 11.492188 12.914062 11.617188 12.953125 11.628906 C 12.988281 11.644531 13.046875 11.644531 13.046875 11.570312 C 13.046875 11.5 13.140625 11.417969 13.175781 11.5 C 13.214844 11.578125 13.257812 11.953125 12.878906 11.953125 C 12.5 11.953125 12.019531 11.894531 12.019531 11.894531 Z M 11.984375 11.492188 " fill-opacity="1" fill-rule="nonzero"/><path fill="#fec05f" d="M 8.21875 8.488281 C 8.21875 8.488281 9.089844 8.414062 9.453125 8.519531 C 9.816406 8.621094 10.660156 8.976562 10.660156 8.976562 C 10.660156 8.976562 11.066406 9.195312 10.863281 9.34375 C 10.660156 9.492188 10.238281 9.84375 10.238281 9.84375 L 10.210938 9.992188 L 10.71875 11.054688 L 10.894531 11.320312 L 12.042969 11.332031 L 12.230469 11.894531 C 12.230469 11.894531 12.363281 12.070312 12.261719 12.101562 C 12.15625 12.128906 11.925781 12.234375 11.824219 12.234375 C 11.824219 12.234375 11.15625 12.675781 10.953125 12.71875 L 11.183594 13.5 L 11.535156 13.648438 L 11.882812 13.957031 C 11.882812 13.957031 12.042969 14.148438 12.027344 14.25 L 12.246094 14.53125 L 11.867188 14.945312 L 11.664062 14.8125 C 11.664062 14.8125 11.15625 14.8125 11.082031 14.707031 L 11.066406 15.019531 L 8.175781 15.269531 C 8.175781 15.269531 8.117188 14.855469 8.148438 14.707031 C 8.175781 14.5625 7.898438 13.589844 7.898438 13.589844 L 7 11.65625 L 7.128906 10.449219 L 7.027344 9.726562 L 7.550781 9.402344 C 7.550781 9.402344 7.492188 8.929688 7.753906 8.917969 C 7.753906 8.917969 7.652344 8.472656 8.21875 8.488281 Z M 8.21875 8.488281 " fill-opacity="1" fill-rule="nonzero"/><path fill="#5780aa" d="M 6.890625 10.558594 L 6.859375 9.894531 C 6.859375 9.894531 6.800781 9.496094 7.046875 9.644531 L 7.230469 10.394531 C 7.230469 10.394531 7.324219 10.476562 7.558594 10.289062 C 7.722656 10.160156 8.730469 8.832031 9.140625 8.957031 C 9.554688 9.082031 10.210938 9.644531 10.109375 11.121094 C 10.109375 11.121094 9.964844 9.496094 9.222656 9.246094 C 9.222656 9.246094 8.859375 9.300781 8.566406 9.707031 C 8.15625 10.269531 7.382812 10.988281 7.46875 10.789062 C 7.960938 12.402344 7.886719 12.761719 8.09375 13.75 L 8.894531 12.476562 L 9.246094 12.707031 L 8.257812 14.0625 C 8.257812 14.0625 8.15625 14.4375 8.21875 14.644531 L 6.675781 15.082031 C 6.675781 15.082031 6.058594 15.230469 5.957031 14.644531 C 5.855469 14.0625 5.566406 12.59375 5.566406 12.59375 L 5.546875 13.164062 C 5.546875 13.164062 5.175781 13.65625 5.257812 12.820312 C 5.3125 12.277344 5.101562 11.882812 6.316406 10.988281 Z M 6.890625 10.558594 " fill-opacity="1" fill-rule="nonzero"/><path fill="#f5c1a8" d="M 14.917969 12.320312 L 15.792969 12.351562 C 15.792969 12.351562 16.164062 12.339844 16.265625 12.425781 C 16.367188 12.515625 16.445312 12.941406 16.328125 12.96875 C 16.214844 13 15.878906 13.027344 15.878906 13.027344 C 15.878906 13.027344 15.414062 12.984375 15.253906 12.96875 C 15.09375 12.953125 14.847656 12.882812 14.847656 12.882812 Z M 14.917969 12.320312 " fill-opacity="1" fill-rule="nonzero"/><path fill="#030d22" d="M 15.136719 15.128906 C 15.136719 15.128906 15.371094 14.4375 15.566406 14.347656 C 15.761719 14.257812 15.347656 14.117188 15.027344 14.765625 C 15.027344 14.765625 15.160156 14.996094 15.136719 15.128906 Z M 13.039062 14.316406 C 13.039062 14.316406 13.625 14.074219 13.65625 14.023438 L 13.34375 13.941406 C 13.34375 13.941406 13.074219 14.007812 13.039062 14.316406 Z M 16.292969 13.898438 C 16.292969 13.898438 16.632812 14.050781 16.648438 14.015625 C 16.664062 13.980469 16.664062 13.789062 16.664062 13.789062 C 16.664062 13.789062 16.378906 13.847656 16.292969 13.898438 Z M 16.292969 13.898438 " fill-opacity="1" fill-rule="nonzero"/><path fill="#bd3d2c" d="M 12.929688 19.113281 L 13.421875 19.128906 C 13.421875 19.128906 13.613281 19.175781 13.640625 19.617188 C 13.667969 20.058594 13.65625 23.714844 13.65625 23.714844 C 13.65625 23.714844 13.625 23.980469 13.523438 23.980469 C 13.421875 23.980469 12.914062 23.964844 12.914062 23.964844 L 12.941406 19.453125 C 12.941406 19.453125 12.753906 19.085938 12.929688 19.113281 Z M 12.929688 19.113281 " fill-opacity="1" fill-rule="nonzero"/><path fill="#bd3d2c" d="M 10.835938 20.234375 C 10.855469 20.234375 10.882812 21.03125 10.898438 22.011719 C 10.914062 22.992188 10.910156 23.785156 10.894531 23.789062 C 10.875 23.789062 10.847656 22.992188 10.832031 22.011719 C 10.816406 21.03125 10.816406 20.234375 10.835938 20.234375 Z M 11.488281 19.394531 C 11.507812 19.394531 11.519531 20.394531 11.515625 21.628906 C 11.511719 22.859375 11.492188 23.859375 11.476562 23.859375 C 11.457031 23.859375 11.445312 22.859375 11.449219 21.628906 C 11.453125 20.394531 11.472656 19.394531 11.488281 19.394531 Z M 12.070312 19.335938 C 12.089844 19.335938 12.101562 20.363281 12.097656 21.628906 C 12.09375 22.894531 12.074219 23.917969 12.054688 23.917969 C 12.039062 23.917969 12.027344 22.894531 12.03125 21.628906 C 12.035156 20.363281 12.050781 19.335938 12.070312 19.335938 Z M 12.667969 19.261719 C 12.683594 19.261719 12.695312 20.300781 12.691406 21.578125 C 12.6875 22.855469 12.671875 23.890625 12.652344 23.890625 C 12.632812 23.890625 12.621094 22.855469 12.625 21.578125 C 12.628906 20.300781 12.648438 19.261719 12.667969 19.261719 Z M 13.699219 19.378906 C 13.71875 19.378906 13.75 20.402344 13.769531 21.664062 C 13.789062 22.925781 13.789062 23.949219 13.769531 23.949219 C 13.753906 23.949219 13.722656 22.925781 13.703125 21.664062 C 13.683594 20.40625 13.679688 19.378906 13.699219 19.378906 Z M 13.988281 19.96875 C 14.007812 19.96875 14.015625 20.730469 14.007812 21.664062 C 14 22.601562 13.980469 23.359375 13.960938 23.359375 C 13.941406 23.359375 13.933594 22.601562 13.941406 21.664062 C 13.949219 20.730469 13.972656 19.96875 13.988281 19.96875 Z M 10.414062 21.046875 C 10.433594 21.046875 10.453125 21.636719 10.460938 22.363281 C 10.46875 23.09375 10.460938 23.683594 10.441406 23.683594 C 10.425781 23.683594 10.402344 23.09375 10.394531 22.367188 C 10.386719 21.636719 10.394531 21.046875 10.414062 21.046875 Z M 10.414062 21.046875 " fill-opacity="1" fill-rule="nonzero"/><path fill="#07787b" d="M 7.128906 21.710938 C 7.128906 21.710938 7.210938 21.824219 7.160156 21.941406 C 7.105469 22.054688 7.066406 22.253906 7.167969 22.273438 C 7.273438 22.292969 7.363281 22.316406 7.386719 22.386719 C 7.386719 22.386719 7.609375 22.210938 7.722656 22.273438 C 7.835938 22.335938 7.785156 22.773438 7.835938 22.890625 C 7.886719 23.003906 7.96875 23.378906 8.125 23.515625 C 8.277344 23.648438 7.828125 23.867188 7.828125 23.867188 L 7.550781 23.753906 L 6.214844 22.417969 L 6.171875 22.167969 C 6.171875 22.167969 6.632812 21.410156 7.128906 21.710938 Z M 7.128906 21.710938 " fill-opacity="1" fill-rule="nonzero"/><g clip-path="url(#11b97d694a)"><path fill="#37077b" d="M 6.183594 22.179688 C 6.183594 22.179688 5.996094 22.292969 6.058594 22.398438 C 6.121094 22.503906 6.964844 23.492188 8 24.265625 C 8 24.265625 8.226562 24.316406 8.339844 24.234375 C 8.453125 24.148438 8.597656 23.773438 8.09375 23.492188 L 7.992188 23.359375 L 7.550781 23.671875 C 7.550781 23.671875 6.234375 22.398438 6.183594 22.179688 Z M 6.183594 22.179688 " fill-opacity="1" fill-rule="nonzero"/></g><g clip-path="url(#23bb09ad6e)"><path fill="#07787b" d="M 8.886719 23.089844 C 8.886719 23.089844 9.011719 23.109375 9.050781 23.21875 C 9.085938 23.324219 9.183594 23.480469 9.265625 23.429688 C 9.34375 23.375 9.417969 23.328125 9.476562 23.363281 C 9.476562 23.363281 9.515625 23.101562 9.625 23.070312 C 9.738281 23.039062 9.980469 23.355469 10.085938 23.398438 C 10.191406 23.4375 10.480469 23.628906 10.667969 23.617188 C 10.851562 23.605469 10.695312 24.042969 10.695312 24.042969 L 10.441406 24.144531 L 8.734375 24.140625 L 8.550781 24.003906 C 8.550781 24.003906 8.375 23.210938 8.886719 23.089844 Z M 8.886719 23.089844 " fill-opacity="1" fill-rule="nonzero"/></g><g clip-path="url(#3f555266bf)"><path fill="#37077b" d="M 8.5625 24.003906 C 8.5625 24.003906 8.515625 24.199219 8.621094 24.226562 C 8.726562 24.253906 9.898438 24.355469 11.058594 24.1875 C 11.058594 24.1875 11.238281 24.074219 11.257812 23.945312 C 11.28125 23.820312 11.140625 23.480469 10.632812 23.625 L 10.480469 23.601562 L 10.390625 24.089844 C 10.390625 24.089844 8.734375 24.113281 8.5625 24.003906 Z M 8.5625 24.003906 " fill-opacity="1" fill-rule="nonzero"/></g><g clip-path="url(#f0d57fbac0)"><path fill="#07787b" d="M 16.304688 23.347656 C 16.367188 23.191406 16.140625 22.984375 16.140625 22.984375 C 15.453125 22.617188 15.195312 23.171875 15.195312 23.171875 C 15.195312 23.171875 15.050781 22.960938 15.011719 23.242188 C 14.96875 23.523438 15.070312 24.023438 15.070312 24.023438 L 15.605469 23.796875 L 16.128906 23.742188 Z M 16.304688 23.347656 " fill-opacity="1" fill-rule="nonzero"/></g><g clip-path="url(#4b74bd1060)"><path fill="#37077b" d="M 16.121094 24.210938 L 15.101562 24.210938 L 15.0625 23.941406 C 15.0625 23.941406 15.164062 23.929688 15.226562 23.859375 C 15.289062 23.785156 15.761719 23.503906 15.976562 23.671875 C 16.191406 23.835938 16.121094 24.210938 16.121094 24.210938 Z M 16.121094 24.210938 " fill-opacity="1" fill-rule="nonzero"/></g><g clip-path="url(#73a86626f0)"><path fill="#3954f4" d="M 17.917969 23.160156 C 18.113281 23.109375 18.082031 23.484375 18.082031 23.484375 L 18.0625 24.085938 L 16.632812 23.953125 L 16.324219 23.765625 L 16.097656 23.492188 C 16.214844 23.421875 16.765625 23.320312 16.910156 22.941406 C 17.261719 22.585938 17.425781 22.992188 17.425781 22.992188 C 17.425781 22.992188 17.507812 23.140625 17.425781 23.234375 C 17.34375 23.328125 17.628906 23.054688 17.917969 23.160156 Z M 17.917969 23.160156 " fill-opacity="1" fill-rule="nonzero"/></g><g clip-path="url(#f060baa3ae)"><path fill="#a0adfa" d="M 16.828125 23.847656 L 17.363281 23.847656 C 17.363281 23.847656 18.011719 23.648438 18.0625 23.722656 C 18.113281 23.796875 18.074219 24.066406 18.074219 24.066406 C 18.074219 24.066406 18.019531 24.234375 17.835938 24.234375 L 15.75 24.234375 C 15.75 24.234375 15.484375 23.804688 15.820312 23.628906 C 16.160156 23.453125 16.265625 23.273438 16.398438 23.421875 C 16.53125 23.566406 16.5 23.804688 16.828125 23.847656 Z M 16.828125 23.847656 " fill-opacity="1" fill-rule="nonzero"/></g><g clip-path="url(#cf2878c90b)"><path fill="#3954f4" d="M 20.96875 23.472656 C 20.96875 23.472656 20.886719 23.046875 21.136719 23.054688 L 21.226562 23.085938 C 21.226562 23.085938 21.515625 22.828125 21.667969 23.140625 C 21.667969 23.140625 21.773438 22.921875 21.863281 23.140625 C 21.957031 23.359375 22.050781 24.003906 22.050781 24.003906 L 21.332031 24.085938 L 20.859375 24.003906 C 20.859375 24.003906 20.816406 23.679688 20.96875 23.472656 Z M 20.96875 23.472656 " fill-opacity="1" fill-rule="nonzero"/></g><g clip-path="url(#7578199dbc)"><path fill="#a0adfa" d="M 20.847656 23.960938 C 20.847656 23.960938 21.535156 24.085938 22.027344 23.972656 C 22.027344 23.972656 22.132812 24.203125 22.050781 24.253906 C 21.96875 24.304688 20.847656 24.285156 20.847656 24.285156 C 20.847656 24.285156 20.753906 24.078125 20.847656 23.960938 Z M 20.847656 23.960938 " fill-opacity="1" fill-rule="nonzero"/></g><path fill="#392330" d="M 18.78125 7.351562 C 18.78125 7.351562 18.566406 7.652344 18.546875 7.902344 C 18.546875 7.902344 18.339844 7.308594 18.914062 7.007812 C 19.492188 6.703125 20.3125 7.171875 20.496094 7.453125 C 20.683594 7.734375 20.867188 7.765625 20.375 9.027344 C 20.375 9.027344 20.199219 8.632812 20.332031 8.433594 C 20.332031 8.433594 20.621094 8.257812 20.550781 8.015625 C 20.476562 7.777344 20.242188 7.746094 20.179688 7.964844 C 20.179688 7.964844 19.964844 7.703125 19.71875 7.757812 C 19.46875 7.808594 18.832031 7.558594 18.78125 7.351562 Z M 19.214844 8.914062 L 19.65625 9.246094 L 19.65625 9.007812 C 19.65625 9.007812 19.460938 9.027344 19.214844 8.914062 Z M 19.214844 8.914062 " fill-opacity="1" fill-rule="nonzero"/><path fill="#26375e" d="M 18.347656 13.792969 L 17.042969 22.105469 L 18.464844 22.3125 L 20.007812 14.972656 C 20.007812 14.972656 20.035156 14.855469 20.09375 15.355469 C 20.152344 15.859375 20.734375 22.550781 20.734375 22.550781 L 22.214844 22.488281 C 22.214844 22.488281 22.128906 15.386719 21.402344 13.234375 Z M 18.347656 13.792969 " fill-opacity="1" fill-rule="nonzero"/><path fill="#4cf523" d="M 19.582031 9.457031 C 19.582031 9.457031 20.054688 9.777344 20.476562 9.425781 C 20.476562 9.425781 20.804688 9.445312 21.238281 9.601562 C 21.667969 9.757812 21.710938 9.839844 21.84375 10.507812 C 21.976562 11.175781 22.171875 12.125 22.171875 12.125 L 21.277344 12.28125 L 21.527344 13.726562 C 20.367188 14.011719 19.503906 13.828125 18.371094 13.800781 C 18.449219 13.230469 18.566406 12.953125 18.554688 12.195312 L 17.589844 12.144531 C 17.589844 12.144531 17.652344 9.644531 19.582031 9.457031 Z M 19.582031 9.457031 " fill-opacity="1" fill-rule="nonzero"/><path fill="#030d22" d="M 19.839844 13.894531 C 19.855469 13.894531 19.863281 13.992188 19.863281 14.113281 C 19.859375 14.234375 19.84375 14.332031 19.828125 14.332031 C 19.816406 14.332031 19.804688 14.234375 19.808594 14.113281 C 19.8125 13.992188 19.824219 13.894531 19.839844 13.894531 Z M 19.265625 14.1875 C 19.269531 14.175781 19.441406 14.261719 19.667969 14.382812 C 19.703125 14.40625 19.738281 14.433594 19.773438 14.460938 C 19.84375 14.515625 19.898438 14.574219 19.945312 14.632812 C 20.082031 14.804688 20.078125 14.957031 20.066406 14.957031 C 20.054688 14.957031 20.035156 14.816406 19.910156 14.664062 C 19.863281 14.609375 19.808594 14.558594 19.742188 14.503906 C 19.710938 14.476562 19.675781 14.453125 19.640625 14.425781 C 19.421875 14.300781 19.257812 14.199219 19.265625 14.1875 Z M 19.222656 14.375 C 19.230469 14.359375 19.386719 14.417969 19.578125 14.5 C 19.769531 14.585938 19.917969 14.664062 19.914062 14.675781 C 19.90625 14.691406 19.746094 14.632812 19.558594 14.550781 C 19.367188 14.464844 19.21875 14.386719 19.222656 14.375 Z M 21.320312 13.757812 C 21.328125 13.75 21.390625 13.785156 21.460938 13.84375 C 21.527344 13.902344 21.574219 13.957031 21.566406 13.96875 C 21.558594 13.980469 21.496094 13.941406 21.425781 13.882812 C 21.359375 13.828125 21.3125 13.769531 21.320312 13.757812 Z M 21.25 13.832031 C 21.261719 13.824219 21.34375 13.941406 21.429688 14.089844 C 21.519531 14.238281 21.578125 14.367188 21.566406 14.375 C 21.554688 14.382812 21.472656 14.265625 21.386719 14.117188 C 21.296875 13.96875 21.234375 13.839844 21.25 13.832031 Z M 21.585938 14.039062 C 21.601562 14.039062 21.707031 15.917969 21.824219 18.234375 C 21.941406 20.550781 22.023438 22.429688 22.007812 22.429688 C 21.992188 22.429688 21.886719 20.550781 21.773438 18.238281 C 21.65625 15.921875 21.574219 14.042969 21.585938 14.039062 Z M 19.914062 14.832031 C 19.925781 14.835938 19.558594 16.492188 19.089844 18.527344 C 18.621094 20.566406 18.230469 22.214844 18.214844 22.210938 C 18.203125 22.207031 18.570312 20.550781 19.039062 18.515625 C 19.507812 16.480469 19.898438 14.828125 19.914062 14.832031 Z M 19.914062 14.832031 " fill-opacity="1" fill-rule="nonzero"/><path fill="#546282" d="M 18.824219 13.113281 C 18.824219 13.113281 18.566406 12.8125 18.144531 13.09375 C 17.722656 13.375 17.671875 13.75 17.742188 13.84375 L 17.804688 13.925781 C 17.804688 13.925781 17.488281 14.34375 17.796875 14.65625 C 18.101562 14.96875 18.308594 14.917969 18.351562 14.875 C 18.390625 14.832031 18.894531 13.382812 18.894531 13.382812 C 18.894531 13.382812 18.9375 13.144531 18.824219 13.113281 Z M 18.824219 13.113281 " fill-opacity="1" fill-rule="nonzero"/><path fill="#493650" d="M 22.324219 14.8125 L 23.582031 14.8125 L 23.582031 14.640625 C 23.582031 14.640625 23.21875 14.371094 22.933594 14.371094 C 22.652344 14.371094 22.222656 14.40625 22.324219 14.8125 Z M 22.324219 14.8125 " fill-opacity="1" fill-rule="nonzero"/><path fill="#394359" d="M 20.796875 9.496094 C 20.796875 9.496094 20.828125 9.382812 21.03125 9.519531 C 21.03125 9.519531 21.144531 10.183594 20.117188 11.800781 C 20.117188 11.800781 19.183594 13.195312 18.792969 13.507812 C 18.792969 13.507812 18.605469 13.46875 18.617188 13.394531 C 19.371094 12.503906 19.703125 12.039062 20.128906 11.28125 C 20.683594 10.289062 20.773438 9.863281 20.796875 9.496094 Z M 20.796875 9.496094 " fill-opacity="1" fill-rule="nonzero"/><path fill="#1caf9e" d="M 18.308594 11.121094 L 17.835938 10.207031 L 19.078125 9.851562 L 19.632812 11.289062 L 18.648438 11.863281 Z M 18.308594 11.121094 " fill-opacity="1" fill-rule="nonzero"/><path fill="#394359" d="M 17.796875 13.90625 C 17.796875 13.90625 17.800781 13.90625 17.800781 13.90625 C 17.800781 13.90625 17.804688 13.910156 17.808594 13.910156 C 17.8125 13.914062 17.820312 13.921875 17.828125 13.925781 C 17.84375 13.9375 17.867188 13.949219 17.894531 13.957031 C 17.957031 13.96875 18.019531 13.917969 18.078125 13.816406 C 18.109375 13.757812 18.148438 13.695312 18.191406 13.632812 C 18.246094 13.554688 18.300781 13.492188 18.359375 13.4375 C 18.542969 13.269531 18.683594 13.347656 18.675781 13.359375 C 18.675781 13.363281 18.644531 13.34375 18.589844 13.351562 C 18.53125 13.355469 18.460938 13.390625 18.382812 13.464844 C 18.328125 13.515625 18.277344 13.578125 18.222656 13.65625 C 18.179688 13.714844 18.144531 13.777344 18.109375 13.832031 C 18.050781 13.945312 17.964844 13.996094 17.886719 13.980469 C 17.855469 13.96875 17.832031 13.949219 17.820312 13.9375 C 17.8125 13.929688 17.804688 13.921875 17.800781 13.917969 C 17.800781 13.914062 17.796875 13.910156 17.796875 13.910156 C 17.796875 13.90625 17.796875 13.90625 17.796875 13.90625 Z M 18.617188 13.449219 C 18.617188 13.449219 18.617188 13.449219 18.617188 13.453125 C 18.613281 13.457031 18.613281 13.460938 18.609375 13.46875 C 18.601562 13.480469 18.589844 13.492188 18.578125 13.511719 C 18.558594 13.539062 18.515625 13.59375 18.480469 13.640625 C 18.457031 13.679688 18.421875 13.730469 18.394531 13.777344 C 18.386719 13.792969 18.378906 13.8125 18.375 13.828125 C 18.371094 13.835938 18.367188 13.84375 18.371094 13.839844 C 18.390625 13.867188 18.417969 13.886719 18.449219 13.90625 C 18.449219 13.910156 18.449219 13.910156 18.453125 13.910156 C 18.460938 13.917969 18.472656 13.925781 18.480469 13.929688 C 18.484375 13.933594 18.484375 13.9375 18.484375 13.941406 C 18.648438 13.6875 18.785156 13.496094 18.792969 13.5 C 18.800781 13.503906 18.667969 13.710938 18.492188 13.972656 C 18.480469 13.96875 18.46875 13.96875 18.460938 13.964844 C 18.449219 13.957031 18.441406 13.949219 18.429688 13.941406 C 18.429688 13.941406 18.425781 13.941406 18.425781 13.9375 C 18.394531 13.917969 18.367188 13.894531 18.34375 13.867188 C 18.328125 13.847656 18.332031 13.828125 18.335938 13.816406 C 18.34375 13.796875 18.351562 13.777344 18.363281 13.761719 C 18.390625 13.707031 18.429688 13.660156 18.457031 13.625 C 18.5 13.574219 18.535156 13.527344 18.5625 13.5 C 18.578125 13.484375 18.589844 13.46875 18.601562 13.460938 C 18.605469 13.457031 18.609375 13.453125 18.613281 13.449219 C 18.617188 13.449219 18.617188 13.449219 18.617188 13.449219 Z M 18.449219 14.023438 C 18.460938 14.027344 18.378906 14.34375 18.265625 14.730469 C 18.265625 14.730469 18.253906 14.769531 18.253906 14.769531 C 17.929688 14.59375 17.675781 14.445312 17.679688 14.4375 C 17.6875 14.425781 17.933594 14.566406 18.242188 14.75 C 18.242188 14.75 18.253906 14.707031 18.253906 14.707031 C 18.351562 14.328125 18.441406 14.019531 18.449219 14.023438 Z M 18.449219 14.023438 " fill-opacity="1" fill-rule="nonzero"/><path fill="#f5c1a8" d="M 17.660156 12.132812 C 17.660156 12.132812 17.691406 12.625 18.011719 12.71875 C 18.328125 12.8125 18.523438 12.3125 18.390625 11.78125 C 18.390625 11.78125 18.371094 11.75 18.472656 11.632812 C 18.574219 11.519531 18.648438 11.320312 18.792969 11.257812 C 18.9375 11.195312 19.050781 11.019531 19.027344 10.945312 C 19.007812 10.871094 18.679688 10.863281 18.628906 10.914062 C 18.628906 10.914062 18.761719 10.714844 18.882812 10.683594 C 19.007812 10.652344 18.828125 10.570312 18.636719 10.695312 C 18.539062 10.761719 18.15625 11.214844 18.074219 11.46875 L 17.765625 12.144531 Z M 21.34375 12.292969 C 21.34375 12.292969 21.734375 14.164062 22.097656 14.414062 C 22.460938 14.664062 22.621094 14.488281 22.710938 14.488281 C 22.796875 14.488281 22.839844 14.398438 22.941406 14.503906 C 23.042969 14.605469 23.582031 14.679688 23.582031 14.621094 C 23.582031 14.5625 22.941406 14.058594 22.941406 14.058594 C 22.941406 14.058594 22.300781 14.164062 22.300781 14.074219 C 22.300781 13.984375 22.054688 12.335938 21.894531 12.160156 C 21.894531 12.160156 21.472656 12.144531 21.34375 12.292969 Z M 21.34375 12.292969 " fill-opacity="1" fill-rule="nonzero"/><path fill="#eb8250" d="M 17.816406 12.476562 C 17.8125 12.480469 17.808594 12.476562 17.804688 12.46875 C 17.800781 12.464844 17.796875 12.457031 17.792969 12.449219 C 17.78125 12.429688 17.769531 12.398438 17.757812 12.367188 C 17.753906 12.347656 17.75 12.328125 17.746094 12.308594 C 17.722656 12.203125 17.742188 12.121094 17.753906 12.125 C 17.765625 12.125 17.761719 12.203125 17.78125 12.300781 C 17.785156 12.320312 17.789062 12.339844 17.792969 12.355469 C 17.800781 12.390625 17.808594 12.417969 17.8125 12.441406 C 17.816406 12.449219 17.816406 12.460938 17.816406 12.464844 C 17.816406 12.472656 17.816406 12.476562 17.816406 12.476562 Z M 18.515625 10.996094 C 18.507812 10.988281 18.535156 10.957031 18.574219 10.925781 C 18.613281 10.894531 18.652344 10.875 18.660156 10.882812 C 18.664062 10.890625 18.636719 10.925781 18.597656 10.957031 C 18.558594 10.988281 18.519531 11.007812 18.515625 10.996094 Z M 22.945312 14.3125 C 22.949219 14.304688 23.027344 14.359375 23.109375 14.433594 C 23.195312 14.507812 23.257812 14.574219 23.253906 14.582031 C 23.246094 14.589844 23.171875 14.535156 23.085938 14.460938 C 23 14.386719 22.9375 14.320312 22.945312 14.3125 Z M 16.21875 6.257812 C 16.21875 6.253906 16.21875 6.253906 16.21875 6.25 C 16.21875 6.246094 16.21875 6.246094 16.21875 6.238281 C 16.21875 6.230469 16.222656 6.21875 16.226562 6.203125 C 16.238281 6.175781 16.25 6.140625 16.273438 6.101562 C 16.277344 6.089844 16.28125 6.078125 16.289062 6.070312 C 16.339844 5.96875 16.425781 5.921875 16.429688 5.933594 C 16.433594 5.941406 16.375 5.992188 16.320312 6.085938 C 16.316406 6.097656 16.3125 6.109375 16.304688 6.117188 C 16.285156 6.15625 16.265625 6.191406 16.25 6.214844 C 16.242188 6.226562 16.238281 6.238281 16.230469 6.246094 C 16.230469 6.25 16.226562 6.253906 16.226562 6.253906 C 16.222656 6.253906 16.222656 6.257812 16.21875 6.257812 Z M 16.367188 6.367188 C 16.363281 6.367188 16.363281 6.363281 16.363281 6.359375 C 16.363281 6.359375 16.367188 6.355469 16.367188 6.351562 C 16.371094 6.339844 16.375 6.328125 16.382812 6.3125 C 16.394531 6.285156 16.414062 6.246094 16.445312 6.207031 C 16.464844 6.175781 16.496094 6.132812 16.535156 6.101562 C 16.570312 6.070312 16.613281 6.054688 16.65625 6.054688 C 16.71875 6.054688 16.761719 6.0625 16.792969 6.074219 C 16.808594 6.078125 16.816406 6.082031 16.824219 6.085938 C 16.828125 6.089844 16.828125 6.09375 16.832031 6.09375 C 16.828125 6.09375 16.824219 6.09375 16.816406 6.09375 C 16.808594 6.09375 16.804688 6.09375 16.792969 6.089844 C 16.75 6.089844 16.722656 6.089844 16.65625 6.089844 C 16.621094 6.089844 16.589844 6.105469 16.558594 6.132812 C 16.527344 6.160156 16.496094 6.199219 16.472656 6.226562 C 16.441406 6.265625 16.417969 6.300781 16.402344 6.324219 C 16.390625 6.335938 16.382812 6.347656 16.378906 6.355469 C 16.375 6.359375 16.371094 6.363281 16.371094 6.363281 C 16.367188 6.367188 16.367188 6.367188 16.367188 6.367188 Z M 16.699219 6.292969 C 16.707031 6.300781 16.65625 6.371094 16.585938 6.453125 C 16.585938 6.453125 16.585938 6.457031 16.585938 6.457031 C 16.554688 6.496094 16.539062 6.519531 16.527344 6.550781 C 16.523438 6.5625 16.523438 6.570312 16.527344 6.574219 C 16.53125 6.589844 16.554688 6.589844 16.554688 6.59375 C 16.554688 6.601562 16.535156 6.617188 16.507812 6.589844 C 16.496094 6.578125 16.492188 6.5625 16.496094 6.546875 C 16.503906 6.503906 16.523438 6.472656 16.554688 6.433594 C 16.554688 6.433594 16.554688 6.429688 16.554688 6.429688 C 16.628906 6.347656 16.691406 6.285156 16.699219 6.292969 Z M 13.683594 8.136719 C 13.683594 8.136719 13.679688 8.132812 13.679688 8.128906 C 13.675781 8.121094 13.675781 8.117188 13.679688 8.109375 C 13.679688 8.09375 13.683594 8.074219 13.695312 8.054688 C 13.699219 8.046875 13.707031 8.039062 13.714844 8.035156 C 13.765625 7.992188 13.820312 8.035156 13.8125 8.042969 C 13.808594 8.054688 13.765625 8.039062 13.738281 8.0625 C 13.734375 8.066406 13.730469 8.070312 13.726562 8.074219 C 13.71875 8.089844 13.710938 8.105469 13.703125 8.117188 C 13.699219 8.121094 13.695312 8.128906 13.695312 8.132812 C 13.691406 8.136719 13.6875 8.136719 13.683594 8.136719 Z M 13.773438 7.964844 C 13.773438 7.964844 13.777344 7.964844 13.78125 7.964844 C 13.785156 7.964844 13.792969 7.964844 13.800781 7.96875 C 13.8125 7.972656 13.832031 7.984375 13.851562 8 C 13.882812 8.027344 13.910156 8.078125 13.90625 8.136719 C 13.90625 8.148438 13.90625 8.15625 13.902344 8.167969 C 13.890625 8.226562 13.851562 8.265625 13.8125 8.273438 C 13.800781 8.28125 13.792969 8.277344 13.792969 8.277344 C 13.777344 8.273438 13.800781 8.300781 13.796875 8.304688 C 13.792969 8.304688 13.761719 8.308594 13.773438 8.265625 C 13.78125 8.253906 13.796875 8.25 13.804688 8.246094 C 13.832031 8.238281 13.855469 8.207031 13.867188 8.160156 C 13.867188 8.152344 13.867188 8.144531 13.867188 8.136719 C 13.871094 8.089844 13.851562 8.046875 13.832031 8.023438 C 13.816406 8.003906 13.800781 7.992188 13.792969 7.984375 C 13.785156 7.980469 13.78125 7.976562 13.777344 7.972656 C 13.773438 7.96875 13.769531 7.96875 13.773438 7.964844 Z M 14.46875 8.613281 C 14.472656 8.609375 14.472656 8.609375 14.476562 8.609375 C 14.476562 8.605469 14.480469 8.605469 14.488281 8.605469 C 14.496094 8.605469 14.511719 8.601562 14.527344 8.601562 C 14.5625 8.601562 14.605469 8.601562 14.660156 8.597656 C 14.675781 8.597656 14.691406 8.597656 14.707031 8.597656 C 14.835938 8.601562 14.933594 8.582031 14.9375 8.589844 C 14.941406 8.601562 14.835938 8.640625 14.707031 8.640625 C 14.6875 8.636719 14.671875 8.636719 14.660156 8.636719 C 14.605469 8.636719 14.558594 8.632812 14.527344 8.628906 C 14.511719 8.625 14.496094 8.621094 14.488281 8.621094 C 14.480469 8.617188 14.476562 8.617188 14.476562 8.617188 C 14.472656 8.613281 14.46875 8.613281 14.46875 8.613281 Z M 9.765625 8.125 C 9.769531 8.117188 9.855469 8.171875 9.957031 8.242188 C 10.058594 8.316406 10.136719 8.382812 10.128906 8.390625 C 10.121094 8.402344 10.035156 8.347656 9.933594 8.277344 C 9.835938 8.203125 9.757812 8.136719 9.765625 8.125 Z M 9.335938 7.8125 C 9.339844 7.8125 9.34375 7.8125 9.347656 7.816406 C 9.355469 7.816406 9.359375 7.820312 9.367188 7.828125 C 9.382812 7.835938 9.402344 7.851562 9.421875 7.867188 C 9.429688 7.871094 9.441406 7.878906 9.449219 7.882812 C 9.511719 7.921875 9.5625 7.933594 9.5625 7.945312 C 9.5625 7.957031 9.5 7.960938 9.429688 7.917969 C 9.417969 7.910156 9.410156 7.902344 9.402344 7.894531 C 9.378906 7.878906 9.363281 7.859375 9.351562 7.84375 C 9.34375 7.835938 9.339844 7.832031 9.339844 7.824219 C 9.335938 7.820312 9.335938 7.816406 9.335938 7.8125 Z M 9.425781 7.53125 C 9.425781 7.535156 9.425781 7.535156 9.425781 7.535156 C 9.425781 7.539062 9.441406 7.523438 9.472656 7.539062 C 9.488281 7.539062 9.511719 7.53125 9.546875 7.535156 C 9.570312 7.542969 9.582031 7.5625 9.585938 7.585938 C 9.589844 7.59375 9.589844 7.601562 9.585938 7.609375 C 9.582031 7.65625 9.542969 7.667969 9.515625 7.667969 C 9.507812 7.671875 9.503906 7.664062 9.507812 7.664062 C 9.496094 7.675781 9.523438 7.707031 9.515625 7.710938 C 9.511719 7.714844 9.480469 7.710938 9.480469 7.65625 C 9.488281 7.640625 9.503906 7.632812 9.515625 7.632812 C 9.53125 7.632812 9.554688 7.625 9.550781 7.609375 C 9.546875 7.605469 9.546875 7.597656 9.546875 7.589844 C 9.546875 7.578125 9.542969 7.566406 9.539062 7.570312 C 9.519531 7.566406 9.492188 7.570312 9.46875 7.566406 C 9.441406 7.578125 9.414062 7.539062 9.421875 7.53125 C 9.421875 7.53125 9.425781 7.53125 9.425781 7.53125 Z M 9.425781 7.53125 " fill-opacity="1" fill-rule="nonzero"/><path fill="#ddf9f6" d="M 19.054688 8.511719 C 19.054688 8.511719 19.316406 8.328125 19.476562 8.320312 C 19.636719 8.3125 19.648438 8.4375 19.585938 8.539062 C 19.519531 8.644531 19.222656 8.859375 19.054688 8.511719 Z M 14.714844 7.988281 L 15.253906 7.878906 C 15.253906 7.878906 15.332031 8.144531 15.050781 8.171875 C 14.765625 8.203125 14.59375 8.089844 14.714844 7.988281 Z M 10.8125 7.921875 C 10.8125 7.921875 10.441406 7.773438 10.390625 7.691406 C 10.339844 7.613281 10.261719 7.972656 10.515625 8.078125 C 10.769531 8.179688 10.8125 8.082031 10.8125 7.921875 Z M 10.8125 7.921875 " fill-opacity="1" fill-rule="nonzero"/><g clip-path="url(#6058d6e476)"><path fill="#000000" d="M 24.417969 23.597656 C 24.417969 23.597656 24.210938 24.089844 24.507812 24.171875 C 24.804688 24.257812 25.300781 24.214844 25 23.609375 Z M 22.585938 23.609375 C 22.585938 23.609375 22.378906 24.097656 22.675781 24.179688 C 22.972656 24.265625 23.46875 24.222656 23.167969 23.617188 Z M 22.585938 23.609375 " fill-opacity="1" fill-rule="nonzero"/></g><path fill="#bd3d2c" d="M 23.632812 18.730469 L 24.011719 18.730469 L 24.085938 23.628906 L 23.683594 23.617188 L 23.683594 23.554688 C 23.683594 23.554688 23.808594 23.671875 23.785156 22.796875 C 23.765625 21.917969 23.765625 18.929688 23.765625 18.929688 C 23.765625 18.929688 23.714844 18.78125 23.632812 18.730469 Z M 23.632812 18.730469 " fill-opacity="1" fill-rule="nonzero"/><path fill="#ab2513" d="M 22.71875 18.773438 C 22.726562 18.773438 22.75 19.847656 22.769531 21.167969 C 22.785156 22.492188 22.789062 23.566406 22.78125 23.566406 C 22.769531 23.566406 22.746094 22.492188 22.730469 21.167969 C 22.710938 19.847656 22.707031 18.773438 22.71875 18.773438 Z M 23.355469 23.585938 C 23.34375 23.585938 23.328125 22.507812 23.316406 21.175781 C 23.304688 19.84375 23.304688 18.761719 23.3125 18.761719 C 23.324219 18.761719 23.34375 19.84375 23.355469 21.175781 C 23.363281 22.507812 23.367188 23.585938 23.355469 23.585938 Z M 24.289062 18.761719 C 24.300781 18.761719 24.316406 19.851562 24.324219 21.195312 C 24.332031 22.539062 24.332031 23.628906 24.320312 23.628906 C 24.308594 23.628906 24.292969 22.539062 24.285156 21.195312 C 24.277344 19.851562 24.28125 18.761719 24.289062 18.761719 Z M 24.691406 23.578125 C 24.679688 23.578125 24.664062 22.488281 24.65625 21.148438 C 24.648438 19.808594 24.648438 18.71875 24.660156 18.71875 C 24.671875 18.71875 24.6875 19.808594 24.695312 21.148438 C 24.703125 22.488281 24.703125 23.578125 24.691406 23.578125 Z M 22.152344 18.710938 C 22.164062 18.710938 22.1875 19.800781 22.203125 21.148438 C 22.21875 22.496094 22.226562 23.585938 22.214844 23.585938 C 22.203125 23.585938 22.179688 22.496094 22.164062 21.148438 C 22.148438 19.800781 22.140625 18.710938 22.152344 18.710938 Z M 22.152344 18.710938 " fill-opacity="1" fill-rule="nonzero"/><path fill="#4d330a" d="M 10.078125 9.402344 L 10.992188 11.300781 L 10.507812 11.289062 C 10.507812 11.289062 10.53125 10.964844 10.488281 10.820312 C 10.449219 10.675781 10.003906 9.632812 10.003906 9.632812 C 10.003906 9.632812 9.933594 9.371094 10.078125 9.402344 Z M 11.136719 12.632812 L 11.640625 13.988281 C 11.640625 13.988281 11.886719 14.355469 11.136719 14.636719 C 11.136719 14.636719 11.332031 14.34375 11.25 14.070312 C 11.167969 13.800781 10.960938 12.726562 10.960938 12.726562 Z M 9.964844 13.882812 C 9.964844 13.882812 10.386719 13.707031 10.40625 13.5625 C 10.425781 13.414062 10.46875 12.925781 10.46875 12.925781 L 10.222656 12.976562 C 10.222656 12.976562 10.355469 13.601562 9.964844 13.882812 Z M 8.78125 10.707031 L 9.78125 11.183594 C 9.78125 11.183594 10.027344 11.363281 9.726562 11.269531 C 9.429688 11.175781 8.804688 10.820312 8.78125 10.707031 Z M 9.253906 10.277344 C 9.253906 10.277344 9.625 10.644531 9.832031 10.757812 C 10.035156 10.871094 10.199219 11.121094 10.085938 11.089844 C 9.972656 11.058594 9.253906 10.402344 9.253906 10.277344 Z M 9.253906 10.277344 " fill-opacity="1" fill-rule="nonzero"/><path fill="#703d17" d="M 11.621094 14.796875 C 11.621094 14.792969 11.628906 14.777344 11.636719 14.773438 C 11.644531 14.757812 11.632812 14.753906 11.621094 14.71875 C 11.613281 14.699219 11.613281 14.667969 11.648438 14.640625 C 11.675781 14.632812 11.695312 14.632812 11.714844 14.628906 C 11.753906 14.621094 11.789062 14.597656 11.824219 14.5625 C 11.839844 14.546875 11.851562 14.527344 11.863281 14.511719 C 11.945312 14.367188 12.003906 14.269531 12.023438 14.265625 C 12.027344 14.265625 12.027344 14.265625 12.027344 14.265625 C 12.027344 14.265625 12.027344 14.265625 12.03125 14.265625 C 12.042969 14.28125 12.007812 14.410156 11.929688 14.550781 C 11.917969 14.574219 11.902344 14.597656 11.882812 14.617188 C 11.835938 14.667969 11.78125 14.695312 11.722656 14.699219 C 11.695312 14.703125 11.679688 14.699219 11.671875 14.703125 C 11.675781 14.6875 11.679688 14.695312 11.675781 14.699219 C 11.691406 14.738281 11.679688 14.777344 11.660156 14.792969 C 11.640625 14.816406 11.621094 14.800781 11.621094 14.796875 Z M 8.191406 14.636719 C 8.191406 14.621094 8.460938 14.597656 8.890625 14.570312 C 9.023438 14.558594 9.195312 14.542969 9.355469 14.515625 C 9.40625 14.507812 9.453125 14.5 9.5 14.488281 C 9.511719 14.480469 9.523438 14.480469 9.527344 14.476562 C 9.519531 14.472656 9.523438 14.480469 9.523438 14.503906 C 9.488281 14.421875 9.457031 14.335938 9.425781 14.25 C 9.472656 14.292969 9.519531 14.335938 9.570312 14.382812 C 9.589844 14.40625 9.617188 14.425781 9.644531 14.445312 C 9.714844 14.492188 9.796875 14.523438 9.875 14.519531 C 10.160156 14.519531 10.40625 14.621094 10.609375 14.558594 C 10.679688 14.539062 10.75 14.550781 10.808594 14.574219 C 10.832031 14.597656 10.871094 14.550781 10.898438 14.515625 C 10.945312 14.445312 10.988281 14.351562 11.019531 14.292969 C 11.027344 14.28125 11.03125 14.269531 11.039062 14.261719 C 11.039062 14.253906 11.050781 14.246094 11.074219 14.242188 C 11.09375 14.257812 11.097656 14.269531 11.097656 14.277344 C 11.097656 14.292969 11.101562 14.308594 11.101562 14.324219 C 11.105469 14.398438 11.105469 14.453125 11.105469 14.492188 C 11.105469 14.507812 11.101562 14.523438 11.101562 14.53125 C 11.101562 14.539062 11.097656 14.542969 11.097656 14.546875 C 11.09375 14.542969 11.09375 14.539062 11.09375 14.53125 C 11.089844 14.523438 11.089844 14.507812 11.085938 14.492188 C 11.082031 14.46875 11.070312 14.386719 11.0625 14.328125 C 11.0625 14.3125 11.0625 14.296875 11.058594 14.285156 C 11.046875 14.273438 11.058594 14.277344 11.0625 14.285156 C 11.078125 14.28125 11.082031 14.285156 11.074219 14.285156 C 11.070312 14.292969 11.066406 14.300781 11.0625 14.3125 C 11.035156 14.371094 10.996094 14.46875 10.945312 14.546875 C 10.921875 14.59375 10.867188 14.652344 10.785156 14.636719 C 10.734375 14.617188 10.675781 14.605469 10.628906 14.625 C 10.402344 14.695312 10.136719 14.601562 9.875 14.601562 C 9.777344 14.601562 9.679688 14.566406 9.59375 14.507812 C 9.5625 14.488281 9.535156 14.460938 9.507812 14.433594 C 9.480469 14.371094 9.453125 14.3125 9.425781 14.253906 C 9.484375 14.328125 9.539062 14.398438 9.589844 14.46875 C 9.597656 14.507812 9.585938 14.53125 9.570312 14.539062 C 9.554688 14.550781 9.535156 14.554688 9.523438 14.558594 C 9.46875 14.578125 9.417969 14.585938 9.367188 14.589844 C 9.199219 14.613281 9.03125 14.625 8.894531 14.628906 C 8.464844 14.644531 8.191406 14.648438 8.191406 14.636719 Z M 9.90625 13.882812 C 9.921875 13.867188 10.039062 13.953125 10.171875 14.070312 C 10.183594 14.0625 10.195312 14.054688 10.210938 14.046875 C 10.25 14.019531 10.285156 14 10.316406 13.980469 C 10.367188 13.953125 10.410156 13.929688 10.445312 13.914062 C 10.503906 13.882812 10.542969 13.867188 10.546875 13.867188 C 10.554688 13.878906 10.53125 13.914062 10.476562 13.960938 C 10.445312 13.988281 10.402344 14.015625 10.355469 14.046875 C 10.3125 14.066406 10.265625 14.089844 10.214844 14.113281 C 10.199219 14.121094 10.179688 14.128906 10.164062 14.136719 C 10 14.007812 9.890625 13.902344 9.90625 13.882812 Z M 10.429688 12.941406 C 10.429688 12.9375 10.433594 12.9375 10.4375 12.9375 C 10.441406 12.9375 10.445312 12.9375 10.449219 12.941406 C 10.460938 12.945312 10.476562 12.949219 10.496094 12.960938 C 10.527344 12.976562 10.574219 13 10.625 13.039062 C 10.664062 13.066406 10.707031 13.105469 10.746094 13.152344 C 10.777344 13.183594 10.804688 13.234375 10.804688 13.296875 C 10.800781 13.304688 10.800781 13.3125 10.796875 13.316406 C 10.777344 13.390625 10.746094 13.460938 10.691406 13.515625 C 10.792969 13.359375 10.882812 13.269531 10.894531 13.277344 C 10.90625 13.289062 10.828125 13.390625 10.691406 13.515625 C 10.71875 13.464844 10.722656 13.394531 10.722656 13.3125 C 10.722656 13.304688 10.722656 13.296875 10.722656 13.289062 C 10.730469 13.265625 10.707031 13.230469 10.6875 13.199219 C 10.65625 13.15625 10.617188 13.121094 10.582031 13.089844 C 10.539062 13.046875 10.5 13.015625 10.472656 12.992188 C 10.457031 12.980469 10.445312 12.96875 10.4375 12.960938 C 10.433594 12.953125 10.433594 12.949219 10.429688 12.949219 C 10.429688 12.945312 10.425781 12.941406 10.429688 12.941406 Z M 8.160156 11.082031 C 8.167969 11.082031 8.167969 11.199219 8.160156 11.402344 C 8.179688 11.558594 8.25 11.777344 8.445312 11.914062 C 8.542969 12.027344 8.648438 12.152344 8.761719 12.285156 C 8.898438 12.421875 9.066406 12.574219 9.253906 12.644531 C 9.304688 12.660156 9.359375 12.675781 9.414062 12.679688 C 9.875 12.714844 10.199219 12.773438 10.46875 12.574219 C 10.617188 12.46875 10.785156 12.378906 10.882812 12.324219 C 10.957031 12.285156 11.019531 12.253906 11.0625 12.234375 C 11.085938 12.222656 11.105469 12.214844 11.117188 12.207031 C 11.125 12.207031 11.128906 12.203125 11.132812 12.203125 C 11.136719 12.203125 11.140625 12.203125 11.140625 12.203125 C 11.140625 12.203125 11.136719 12.203125 11.136719 12.210938 C 11.132812 12.210938 11.128906 12.214844 11.125 12.21875 C 11.113281 12.226562 11.09375 12.238281 11.074219 12.253906 C 11.03125 12.28125 10.976562 12.316406 10.902344 12.359375 C 10.8125 12.417969 10.640625 12.523438 10.503906 12.625 C 10.214844 12.84375 9.863281 12.804688 9.40625 12.757812 C 9.34375 12.753906 9.285156 12.738281 9.226562 12.71875 C 9.015625 12.640625 8.839844 12.480469 8.707031 12.339844 C 8.597656 12.207031 8.492188 12.078125 8.398438 11.960938 C 8.191406 11.804688 8.125 11.566406 8.117188 11.402344 C 8.136719 11.199219 8.152344 11.082031 8.160156 11.082031 Z M 10.429688 12.703125 C 10.429688 12.683594 10.5625 12.675781 10.722656 12.691406 C 10.722656 12.695312 10.726562 12.695312 10.730469 12.695312 C 10.773438 12.695312 10.898438 12.707031 10.917969 12.710938 C 10.960938 12.714844 10.957031 12.714844 10.988281 12.714844 C 11.011719 12.710938 11.019531 12.714844 11.023438 12.71875 C 11.027344 12.71875 11.03125 12.746094 10.996094 12.753906 C 10.976562 12.761719 10.949219 12.769531 10.921875 12.773438 C 10.863281 12.78125 10.800781 12.78125 10.726562 12.773438 C 10.722656 12.773438 10.71875 12.773438 10.714844 12.773438 C 10.554688 12.757812 10.425781 12.726562 10.429688 12.703125 Z M 11.738281 11.570312 C 11.746094 11.570312 11.746094 11.597656 11.761719 11.636719 C 11.769531 11.660156 11.789062 11.691406 11.820312 11.695312 C 11.851562 11.699219 11.898438 11.726562 11.902344 11.796875 C 11.898438 11.8125 11.894531 11.828125 11.890625 11.84375 C 11.882812 11.867188 11.878906 11.890625 11.878906 11.910156 C 11.875 11.964844 11.859375 12.039062 11.855469 12.066406 C 11.851562 12.113281 11.871094 12.132812 11.867188 12.144531 C 11.867188 12.15625 11.796875 12.140625 11.796875 12.0625 C 11.792969 12.019531 11.800781 11.960938 11.800781 11.910156 C 11.800781 11.878906 11.804688 11.851562 11.8125 11.824219 C 11.816406 11.808594 11.820312 11.792969 11.824219 11.777344 C 11.839844 11.785156 11.816406 11.777344 11.800781 11.765625 C 11.734375 11.742188 11.710938 11.683594 11.710938 11.644531 C 11.710938 11.59375 11.730469 11.566406 11.738281 11.570312 Z M 9.148438 11.273438 C 9.152344 11.261719 9.25 11.269531 9.398438 11.292969 C 9.488281 11.300781 9.640625 11.328125 9.746094 11.28125 C 9.757812 11.277344 9.769531 11.269531 9.78125 11.265625 C 9.910156 11.21875 10.03125 11.207031 10.136719 11.210938 C 10.230469 11.214844 10.304688 11.230469 10.355469 11.246094 C 10.386719 11.253906 10.40625 11.261719 10.421875 11.269531 C 10.433594 11.277344 10.441406 11.285156 10.445312 11.289062 C 10.441406 11.289062 10.441406 11.289062 10.441406 11.289062 C 10.441406 11.292969 10.429688 11.292969 10.414062 11.292969 C 10.398438 11.292969 10.375 11.289062 10.347656 11.285156 C 10.296875 11.28125 10.222656 11.277344 10.136719 11.28125 C 10.039062 11.285156 9.925781 11.300781 9.8125 11.34375 C 9.796875 11.347656 9.785156 11.351562 9.777344 11.355469 C 9.632812 11.410156 9.476562 11.375 9.386719 11.355469 C 9.238281 11.316406 9.148438 11.289062 9.148438 11.273438 Z M 8.25 10.433594 C 8.246094 10.433594 8.246094 10.433594 8.246094 10.429688 C 8.25 10.429688 8.25 10.425781 8.25 10.421875 C 8.25 10.414062 8.253906 10.40625 8.261719 10.394531 C 8.269531 10.371094 8.285156 10.339844 8.308594 10.296875 C 8.34375 10.226562 8.402344 10.125 8.484375 10.015625 C 8.546875 9.929688 8.628906 9.824219 8.738281 9.738281 C 8.8125 9.679688 8.917969 9.617188 9.039062 9.628906 C 9.179688 9.644531 9.332031 9.675781 9.472656 9.742188 C 9.5625 9.78125 9.648438 9.832031 9.71875 9.898438 C 9.996094 10.152344 10.082031 10.515625 10.113281 10.742188 C 10.144531 10.984375 10.132812 11.125 10.125 11.128906 C 10.113281 11.128906 10.105469 10.984375 10.058594 10.753906 C 10.015625 10.53125 9.925781 10.183594 9.667969 9.957031 C 9.601562 9.898438 9.527344 9.851562 9.441406 9.816406 C 9.308594 9.757812 9.164062 9.726562 9.027344 9.707031 C 8.941406 9.691406 8.851562 9.746094 8.78125 9.796875 C 8.679688 9.871094 8.59375 9.96875 8.527344 10.050781 C 8.445312 10.152344 8.378906 10.253906 8.335938 10.316406 C 8.308594 10.351562 8.289062 10.382812 8.277344 10.402344 C 8.269531 10.414062 8.261719 10.421875 8.257812 10.425781 C 8.253906 10.429688 8.253906 10.433594 8.253906 10.433594 C 8.25 10.433594 8.25 10.433594 8.25 10.433594 Z M 7.753906 10.609375 C 7.777344 10.609375 7.8125 10.914062 7.832031 11.285156 C 7.851562 11.660156 7.847656 11.964844 7.828125 11.96875 C 7.804688 11.96875 7.769531 11.664062 7.75 11.292969 C 7.730469 10.917969 7.730469 10.613281 7.753906 10.609375 Z M 9.992188 9.769531 C 9.992188 9.773438 9.988281 9.769531 9.984375 9.769531 C 9.984375 9.765625 9.980469 9.761719 9.976562 9.757812 C 9.972656 9.75 9.964844 9.738281 9.960938 9.726562 C 9.949219 9.699219 9.9375 9.660156 9.933594 9.613281 C 9.925781 9.578125 9.925781 9.535156 9.945312 9.484375 C 9.96875 9.441406 10.011719 9.410156 10.0625 9.40625 C 10.074219 9.40625 10.082031 9.40625 10.09375 9.402344 C 10.179688 9.394531 10.246094 9.382812 10.3125 9.371094 C 10.421875 9.347656 10.476562 9.320312 10.488281 9.328125 C 10.503906 9.347656 10.441406 9.402344 10.328125 9.4375 C 10.265625 9.460938 10.1875 9.476562 10.101562 9.484375 C 10.089844 9.484375 10.078125 9.488281 10.070312 9.488281 C 10.046875 9.488281 10.023438 9.503906 10.015625 9.519531 C 10 9.542969 9.996094 9.582031 9.996094 9.613281 C 9.992188 9.648438 9.996094 9.691406 10 9.714844 C 10 9.730469 10 9.746094 10 9.753906 C 10 9.757812 9.996094 9.761719 9.996094 9.765625 C 9.996094 9.769531 9.996094 9.769531 9.992188 9.769531 Z M 8.132812 8.886719 C 8.132812 8.910156 8.050781 8.925781 7.949219 8.925781 C 7.851562 8.925781 7.769531 8.910156 7.769531 8.886719 C 7.769531 8.863281 7.851562 8.847656 7.949219 8.847656 C 8.050781 8.847656 8.132812 8.863281 8.132812 8.886719 Z M 7.988281 9.0625 C 8 9.078125 7.949219 9.148438 7.863281 9.238281 C 7.847656 9.253906 7.828125 9.273438 7.808594 9.289062 C 7.6875 9.394531 7.5625 9.441406 7.550781 9.417969 C 7.542969 9.398438 7.640625 9.328125 7.757812 9.226562 C 7.773438 9.210938 7.792969 9.195312 7.8125 9.179688 C 7.902344 9.101562 7.972656 9.050781 7.988281 9.0625 Z M 7.710938 9.578125 C 7.710938 9.582031 7.710938 9.582031 7.710938 9.585938 C 7.710938 9.585938 7.707031 9.589844 7.707031 9.59375 C 7.703125 9.601562 7.695312 9.609375 7.683594 9.621094 C 7.667969 9.640625 7.640625 9.667969 7.605469 9.699219 C 7.546875 9.757812 7.460938 9.839844 7.378906 9.929688 C 7.371094 9.941406 7.359375 9.953125 7.351562 9.964844 C 7.285156 10.042969 7.238281 10.105469 7.214844 10.179688 C 7.203125 10.21875 7.203125 10.253906 7.210938 10.28125 C 7.226562 10.351562 7.28125 10.382812 7.273438 10.390625 C 7.269531 10.398438 7.203125 10.394531 7.160156 10.300781 C 7.144531 10.261719 7.136719 10.214844 7.148438 10.160156 C 7.171875 10.074219 7.21875 9.992188 7.289062 9.910156 C 7.300781 9.898438 7.308594 9.886719 7.320312 9.875 C 7.40625 9.78125 7.5 9.703125 7.570312 9.652344 C 7.609375 9.625 7.640625 9.605469 7.664062 9.59375 C 7.679688 9.585938 7.6875 9.582031 7.695312 9.578125 C 7.699219 9.578125 7.703125 9.578125 7.707031 9.578125 C 7.707031 9.578125 7.710938 9.578125 7.710938 9.578125 Z M 7.710938 9.578125 " fill-opacity="1" fill-rule="nonzero"/><path fill="#082147" d="M 13.878906 9.121094 C 13.890625 9.132812 13.851562 9.1875 13.789062 9.257812 C 13.773438 9.269531 13.757812 9.285156 13.734375 9.296875 C 13.609375 9.367188 13.507812 9.328125 13.507812 9.308594 C 13.511719 9.292969 13.601562 9.292969 13.699219 9.238281 C 13.71875 9.230469 13.734375 9.21875 13.75 9.207031 C 13.8125 9.148438 13.867188 9.113281 13.878906 9.121094 Z M 14.703125 9.789062 C 14.703125 9.789062 14.703125 9.785156 14.707031 9.785156 C 14.710938 9.785156 14.714844 9.785156 14.71875 9.785156 C 14.730469 9.785156 14.742188 9.785156 14.761719 9.789062 C 14.792969 9.789062 14.835938 9.792969 14.890625 9.796875 C 14.957031 9.800781 15.074219 9.820312 15.136719 9.773438 C 15.175781 9.746094 15.21875 9.730469 15.238281 9.703125 C 15.234375 9.714844 15.234375 9.71875 15.238281 9.730469 C 15.238281 9.730469 15.234375 9.726562 15.226562 9.726562 C 15.222656 9.722656 15.214844 9.71875 15.207031 9.714844 C 15.195312 9.707031 15.195312 9.691406 15.210938 9.683594 C 15.207031 9.683594 15.210938 9.683594 15.214844 9.683594 C 15.230469 9.6875 15.253906 9.6875 15.277344 9.6875 C 15.34375 9.710938 15.398438 9.734375 15.4375 9.710938 C 15.605469 9.625 15.699219 9.539062 15.707031 9.550781 C 15.71875 9.558594 15.632812 9.664062 15.464844 9.761719 C 15.398438 9.796875 15.320312 9.78125 15.253906 9.75 C 15.230469 9.734375 15.210938 9.714844 15.1875 9.6875 C 15.183594 9.6875 15.179688 9.679688 15.183594 9.679688 C 15.210938 9.664062 15.222656 9.660156 15.226562 9.652344 C 15.234375 9.65625 15.242188 9.65625 15.253906 9.660156 C 15.261719 9.667969 15.273438 9.671875 15.28125 9.679688 C 15.300781 9.703125 15.300781 9.726562 15.289062 9.746094 C 15.25 9.789062 15.203125 9.808594 15.171875 9.828125 C 15.070312 9.886719 14.949219 9.859375 14.886719 9.84375 C 14.832031 9.835938 14.785156 9.824219 14.757812 9.816406 C 14.738281 9.808594 14.726562 9.804688 14.714844 9.800781 C 14.710938 9.796875 14.707031 9.796875 14.707031 9.792969 C 14.703125 9.792969 14.703125 9.789062 14.703125 9.789062 Z M 15.019531 9.101562 C 15.03125 9.09375 15.078125 9.117188 15.136719 9.078125 C 15.160156 9.0625 15.175781 9.019531 15.21875 8.984375 C 15.246094 8.964844 15.273438 8.964844 15.296875 8.980469 C 15.296875 8.984375 15.300781 8.988281 15.304688 8.988281 C 15.328125 9.011719 15.34375 9.042969 15.355469 9.0625 C 15.429688 9.191406 15.445312 9.292969 15.429688 9.300781 C 15.417969 9.304688 15.371094 9.207031 15.300781 9.097656 C 15.285156 9.074219 15.273438 9.050781 15.257812 9.039062 C 15.257812 9.039062 15.257812 9.035156 15.253906 9.035156 C 15.257812 9.035156 15.257812 9.035156 15.261719 9.035156 C 15.234375 9.054688 15.210938 9.097656 15.167969 9.125 C 15.082031 9.1875 15.011719 9.109375 15.019531 9.101562 Z M 15.257812 9.777344 C 15.257812 9.777344 15.257812 9.78125 15.257812 9.785156 C 15.257812 9.789062 15.257812 9.792969 15.257812 9.800781 C 15.253906 9.8125 15.25 9.832031 15.246094 9.851562 C 15.238281 9.894531 15.226562 9.953125 15.214844 10.023438 C 15.199219 10.128906 15.1875 10.273438 15.226562 10.40625 C 15.234375 10.421875 15.238281 10.4375 15.246094 10.453125 C 15.316406 10.617188 15.359375 10.734375 15.382812 10.855469 C 15.402344 10.960938 15.398438 11.027344 15.390625 11.027344 C 15.371094 11.03125 15.320312 10.785156 15.183594 10.480469 C 15.175781 10.460938 15.171875 10.445312 15.164062 10.425781 C 15.117188 10.273438 15.140625 10.121094 15.164062 10.015625 C 15.179688 9.941406 15.199219 9.882812 15.21875 9.84375 C 15.226562 9.824219 15.234375 9.804688 15.242188 9.796875 C 15.246094 9.789062 15.246094 9.785156 15.25 9.78125 C 15.253906 9.78125 15.253906 9.777344 15.257812 9.777344 Z M 15.152344 11.332031 C 15.136719 11.324219 15.167969 11.164062 15.226562 10.96875 C 15.230469 10.960938 15.230469 10.949219 15.234375 10.941406 C 15.242188 10.753906 15.257812 10.609375 15.277344 10.601562 C 15.296875 10.609375 15.304688 10.757812 15.300781 10.949219 C 15.296875 10.960938 15.292969 10.96875 15.292969 10.980469 C 15.234375 11.179688 15.171875 11.335938 15.152344 11.332031 Z M 15.359375 9.746094 C 15.359375 9.75 15.359375 9.75 15.363281 9.757812 C 15.367188 9.769531 15.371094 9.777344 15.382812 9.796875 C 15.414062 9.863281 15.433594 9.894531 15.503906 10.003906 C 15.554688 10.078125 15.621094 10.160156 15.691406 10.257812 C 15.734375 10.320312 15.765625 10.386719 15.792969 10.464844 C 15.804688 10.5 15.816406 10.535156 15.824219 10.574219 C 15.917969 10.976562 15.929688 11.300781 15.914062 11.300781 C 15.898438 11.300781 15.855469 10.988281 15.757812 10.589844 C 15.75 10.554688 15.742188 10.519531 15.730469 10.484375 C 15.707031 10.414062 15.675781 10.351562 15.636719 10.292969 C 15.574219 10.199219 15.507812 10.113281 15.460938 10.03125 C 15.402344 9.925781 15.375 9.867188 15.359375 9.804688 C 15.355469 9.785156 15.351562 9.773438 15.351562 9.761719 C 15.355469 9.753906 15.359375 9.746094 15.359375 9.746094 Z M 15.460938 9.894531 C 15.464844 9.878906 15.558594 9.886719 15.675781 9.960938 C 15.722656 9.992188 15.769531 10.035156 15.808594 10.089844 C 15.816406 10.097656 15.824219 10.109375 15.832031 10.121094 C 15.875 10.175781 15.902344 10.242188 15.878906 10.308594 C 15.800781 10.445312 15.691406 10.332031 15.699219 10.320312 C 15.703125 10.308594 15.828125 10.363281 15.828125 10.289062 C 15.839844 10.253906 15.8125 10.214844 15.777344 10.160156 C 15.769531 10.148438 15.765625 10.140625 15.757812 10.128906 C 15.71875 10.082031 15.679688 10.042969 15.640625 10.011719 C 15.542969 9.933594 15.460938 9.90625 15.460938 9.894531 Z M 15.183594 9.933594 C 15.1875 9.9375 15.1875 9.9375 15.1875 9.945312 C 15.1875 9.949219 15.183594 9.953125 15.183594 9.960938 C 15.179688 9.976562 15.171875 9.996094 15.160156 10.023438 C 15.144531 10.066406 15.117188 10.125 15.089844 10.191406 C 15.074219 10.238281 15.054688 10.289062 15.042969 10.335938 C 15.042969 10.34375 15.039062 10.351562 15.039062 10.359375 C 15.039062 10.378906 15.035156 10.394531 15.039062 10.40625 C 15.039062 10.410156 15.046875 10.414062 15.046875 10.414062 C 15.066406 10.417969 15.085938 10.414062 15.09375 10.402344 C 15.113281 10.390625 15.121094 10.363281 15.128906 10.339844 C 15.140625 10.265625 15.15625 10.21875 15.164062 10.214844 C 15.171875 10.21875 15.175781 10.269531 15.175781 10.347656 C 15.171875 10.375 15.164062 10.410156 15.136719 10.441406 C 15.113281 10.472656 15.074219 10.484375 15.035156 10.476562 C 15.007812 10.46875 14.988281 10.449219 14.976562 10.425781 C 14.96875 10.398438 14.96875 10.371094 14.972656 10.347656 C 14.976562 10.339844 14.976562 10.332031 14.980469 10.324219 C 14.992188 10.265625 15.011719 10.210938 15.035156 10.167969 C 15.066406 10.097656 15.097656 10.042969 15.125 10.003906 C 15.140625 9.980469 15.152344 9.960938 15.164062 9.953125 C 15.167969 9.945312 15.171875 9.941406 15.175781 9.9375 C 15.179688 9.933594 15.183594 9.933594 15.183594 9.933594 Z M 15.183594 9.933594 " fill-opacity="1" fill-rule="nonzero"/><path fill="#0d43c9" d="M 13.746094 9.402344 C 13.746094 9.402344 13.75 9.402344 13.753906 9.402344 C 13.757812 9.402344 13.765625 9.40625 13.773438 9.40625 C 13.792969 9.410156 13.816406 9.417969 13.847656 9.429688 C 13.902344 9.449219 13.984375 9.484375 14.074219 9.539062 C 14.230469 9.632812 14.4375 9.808594 14.523438 10.074219 C 14.605469 10.320312 14.695312 10.535156 14.773438 10.703125 C 14.871094 10.914062 14.933594 11.046875 14.929688 11.050781 C 14.921875 11.050781 14.851562 10.925781 14.746094 10.714844 C 14.664062 10.550781 14.566406 10.335938 14.488281 10.085938 C 14.40625 9.835938 14.214844 9.664062 14.058594 9.5625 C 13.972656 9.507812 13.894531 9.472656 13.839844 9.445312 C 13.8125 9.433594 13.789062 9.421875 13.773438 9.417969 C 13.761719 9.414062 13.757812 9.410156 13.753906 9.40625 C 13.75 9.40625 13.746094 9.402344 13.746094 9.402344 Z M 14.074219 10.664062 C 14.070312 10.65625 14.164062 10.605469 14.285156 10.550781 C 14.296875 10.546875 14.308594 10.542969 14.324219 10.535156 C 14.402344 10.503906 14.460938 10.484375 14.519531 10.484375 C 14.574219 10.484375 14.601562 10.503906 14.597656 10.507812 C 14.597656 10.511719 14.566406 10.503906 14.523438 10.511719 C 14.464844 10.519531 14.421875 10.539062 14.339844 10.574219 C 14.324219 10.578125 14.3125 10.582031 14.300781 10.589844 C 14.175781 10.640625 14.078125 10.671875 14.074219 10.664062 Z M 13.539062 9.882812 C 13.546875 9.878906 13.617188 10 13.722656 10.191406 C 13.78125 10.304688 13.898438 10.5 13.898438 10.695312 C 13.898438 10.761719 13.890625 10.828125 13.882812 10.894531 C 13.878906 10.929688 13.875 10.949219 13.871094 10.984375 C 13.863281 11.050781 13.867188 11.117188 13.894531 11.164062 C 13.917969 11.203125 13.953125 11.238281 13.957031 11.292969 C 13.953125 11.34375 13.902344 11.363281 13.875 11.367188 C 13.867188 11.367188 13.863281 11.382812 13.867188 11.390625 C 13.882812 11.417969 13.90625 11.4375 13.925781 11.460938 C 13.949219 11.488281 13.96875 11.511719 13.980469 11.546875 C 13.992188 11.582031 13.972656 11.617188 13.949219 11.632812 C 13.886719 11.671875 13.832031 11.6875 13.792969 11.691406 C 13.769531 11.695312 13.753906 11.691406 13.746094 11.691406 C 13.734375 11.691406 13.726562 11.6875 13.726562 11.6875 C 13.726562 11.6875 13.726562 11.6875 13.726562 11.683594 C 13.726562 11.683594 13.734375 11.683594 13.746094 11.683594 C 13.753906 11.683594 13.769531 11.683594 13.789062 11.679688 C 13.828125 11.671875 13.878906 11.652344 13.933594 11.613281 C 13.953125 11.601562 13.964844 11.578125 13.953125 11.554688 C 13.945312 11.53125 13.925781 11.507812 13.902344 11.480469 C 13.882812 11.460938 13.859375 11.4375 13.839844 11.410156 C 13.828125 11.382812 13.835938 11.351562 13.863281 11.335938 C 13.890625 11.320312 13.929688 11.3125 13.921875 11.296875 C 13.921875 11.257812 13.886719 11.230469 13.863281 11.183594 C 13.828125 11.125 13.824219 11.050781 13.832031 10.980469 C 13.835938 10.949219 13.839844 10.921875 13.84375 10.890625 C 13.855469 10.824219 13.859375 10.757812 13.859375 10.695312 C 13.863281 10.519531 13.753906 10.320312 13.699219 10.203125 C 13.597656 10.007812 13.535156 9.886719 13.539062 9.882812 Z M 14.734375 10.800781 C 14.742188 10.800781 14.78125 11.085938 14.8125 11.4375 C 14.847656 11.792969 14.867188 12.082031 14.855469 12.082031 C 14.84375 12.082031 14.808594 11.796875 14.773438 11.441406 C 14.742188 11.089844 14.722656 10.800781 14.734375 10.800781 Z M 12.839844 13.40625 C 12.84375 13.394531 13.292969 13.449219 13.847656 13.527344 C 14.398438 13.605469 14.847656 13.675781 14.847656 13.6875 C 14.84375 13.699219 14.394531 13.644531 13.839844 13.566406 C 13.289062 13.488281 12.839844 13.417969 12.839844 13.40625 Z M 14.734375 12.90625 C 14.742188 12.90625 14.753906 13.054688 14.757812 13.242188 C 14.761719 13.429688 14.753906 13.582031 14.742188 13.582031 C 14.730469 13.582031 14.722656 13.429688 14.71875 13.242188 C 14.714844 13.058594 14.722656 12.90625 14.734375 12.90625 Z M 13.046875 13.4375 C 13.042969 13.4375 13.023438 13.417969 13.015625 13.371094 C 13.011719 13.339844 13.035156 13.292969 13.085938 13.285156 C 13.144531 13.28125 13.238281 13.222656 13.214844 13.136719 C 13.203125 13.09375 13.1875 13.046875 13.171875 13 C 13.171875 13 13.167969 12.988281 13.167969 12.988281 C 13.160156 12.96875 13.152344 12.949219 13.144531 12.929688 C 13.144531 12.917969 13.148438 12.910156 13.152344 12.902344 C 13.152344 12.898438 13.152344 12.894531 13.152344 12.890625 C 13.152344 12.894531 13.15625 12.894531 13.15625 12.894531 C 13.15625 12.894531 13.160156 12.898438 13.164062 12.898438 C 13.171875 12.90625 13.179688 12.914062 13.1875 12.917969 C 13.199219 12.941406 13.214844 12.964844 13.230469 12.984375 C 13.25 13.007812 13.265625 13.023438 13.289062 13.035156 C 13.304688 13.042969 13.324219 13.039062 13.335938 13.027344 C 13.363281 13.007812 13.382812 12.976562 13.394531 12.949219 C 13.421875 12.886719 13.464844 12.878906 13.46875 12.882812 C 13.46875 12.886719 13.429688 12.90625 13.414062 12.957031 C 13.402344 12.988281 13.386719 13.023438 13.355469 13.050781 C 13.335938 13.070312 13.300781 13.078125 13.273438 13.0625 C 13.246094 13.050781 13.222656 13.03125 13.203125 13.007812 C 13.1875 12.988281 13.167969 12.964844 13.152344 12.941406 C 13.152344 12.929688 13.152344 12.921875 13.148438 12.910156 C 13.148438 12.90625 13.148438 12.902344 13.148438 12.902344 C 13.148438 12.898438 13.148438 12.898438 13.148438 12.898438 C 13.148438 12.898438 13.152344 12.902344 13.152344 12.902344 C 13.152344 12.902344 13.179688 12.914062 13.179688 12.914062 C 13.1875 12.933594 13.195312 12.953125 13.203125 12.972656 C 13.203125 12.976562 13.207031 12.980469 13.207031 12.984375 C 13.226562 13.035156 13.242188 13.082031 13.25 13.128906 C 13.269531 13.25 13.160156 13.3125 13.089844 13.316406 C 13.050781 13.316406 13.03125 13.347656 13.035156 13.371094 C 13.035156 13.410156 13.050781 13.433594 13.046875 13.4375 Z M 16.203125 10.269531 C 16.210938 10.265625 16.265625 10.363281 16.332031 10.503906 C 16.34375 10.523438 16.371094 10.574219 16.378906 10.597656 C 16.472656 10.777344 16.558594 10.917969 16.550781 10.925781 C 16.542969 10.929688 16.4375 10.796875 16.34375 10.613281 C 16.328125 10.582031 16.3125 10.550781 16.300781 10.519531 C 16.234375 10.378906 16.195312 10.273438 16.203125 10.269531 Z M 16.304688 10.683594 C 16.316406 10.683594 16.332031 10.949219 16.34375 11.273438 C 16.355469 11.597656 16.355469 11.863281 16.347656 11.863281 C 16.335938 11.863281 16.316406 11.601562 16.304688 11.273438 C 16.292969 10.949219 16.292969 10.6875 16.304688 10.683594 Z M 16.550781 13.0625 C 16.550781 13.050781 16.597656 13.035156 16.65625 13.027344 C 16.714844 13.019531 16.765625 13.019531 16.765625 13.03125 C 16.769531 13.039062 16.722656 13.054688 16.664062 13.066406 C 16.601562 13.074219 16.554688 13.070312 16.550781 13.0625 Z M 15.8125 9.132812 C 15.8125 9.132812 15.8125 9.132812 15.816406 9.132812 C 15.816406 9.132812 15.820312 9.132812 15.820312 9.132812 C 15.828125 9.132812 15.835938 9.136719 15.847656 9.140625 C 15.871094 9.144531 15.898438 9.15625 15.9375 9.167969 C 16.003906 9.191406 16.101562 9.222656 16.210938 9.265625 C 16.289062 9.296875 16.386719 9.335938 16.480469 9.382812 C 16.507812 9.398438 16.542969 9.417969 16.570312 9.441406 C 16.585938 9.449219 16.609375 9.464844 16.613281 9.496094 C 16.613281 9.574219 16.613281 9.648438 16.609375 9.730469 C 16.609375 9.890625 16.609375 10.066406 16.605469 10.203125 C 16.597656 10.578125 16.589844 10.839844 16.582031 10.839844 C 16.574219 10.839844 16.570312 10.578125 16.570312 10.203125 C 16.570312 10.050781 16.570312 9.90625 16.574219 9.730469 C 16.574219 9.648438 16.574219 9.574219 16.574219 9.496094 C 16.578125 9.492188 16.5625 9.484375 16.546875 9.46875 C 16.523438 9.449219 16.492188 9.433594 16.464844 9.417969 C 16.371094 9.367188 16.277344 9.328125 16.199219 9.292969 C 16.097656 9.25 15.992188 9.210938 15.933594 9.1875 C 15.894531 9.171875 15.867188 9.160156 15.84375 9.148438 C 15.835938 9.144531 15.824219 9.140625 15.820312 9.136719 C 15.816406 9.136719 15.816406 9.136719 15.8125 9.132812 Z M 16.632812 10.019531 C 16.636719 10.007812 16.683594 10.019531 16.738281 10.007812 C 16.789062 10 16.832031 9.976562 16.839844 9.988281 C 16.84375 9.996094 16.8125 10.035156 16.742188 10.046875 C 16.675781 10.058594 16.628906 10.027344 16.632812 10.019531 Z M 17.351562 9.195312 C 17.355469 9.183594 17.460938 9.191406 17.597656 9.210938 C 17.609375 9.210938 17.625 9.210938 17.636719 9.214844 C 17.695312 9.21875 17.738281 9.222656 17.78125 9.222656 C 17.867188 9.222656 17.914062 9.210938 17.917969 9.214844 C 17.921875 9.222656 17.867188 9.253906 17.785156 9.253906 C 17.738281 9.257812 17.691406 9.257812 17.632812 9.253906 C 17.621094 9.25 17.605469 9.25 17.59375 9.25 C 17.457031 9.226562 17.351562 9.203125 17.351562 9.195312 Z M 17.660156 8.644531 C 17.65625 8.652344 17.546875 8.617188 17.40625 8.566406 C 17.386719 8.558594 17.367188 8.546875 17.347656 8.539062 C 17.300781 8.511719 17.257812 8.484375 17.222656 8.453125 C 17.132812 8.378906 17.117188 8.300781 17.128906 8.296875 C 17.132812 8.296875 17.160156 8.363281 17.242188 8.425781 C 17.277344 8.453125 17.316406 8.476562 17.367188 8.503906 C 17.382812 8.511719 17.402344 8.523438 17.417969 8.53125 C 17.558594 8.585938 17.664062 8.632812 17.660156 8.644531 Z M 17.003906 7.652344 C 16.996094 7.644531 17.078125 7.566406 17.1875 7.480469 C 17.292969 7.394531 17.386719 7.332031 17.394531 7.339844 C 17.402344 7.347656 17.320312 7.425781 17.210938 7.511719 C 17.101562 7.597656 17.011719 7.660156 17.003906 7.652344 Z M 13.222656 11.707031 C 13.222656 11.707031 13.222656 11.707031 13.226562 11.707031 C 13.230469 11.707031 13.234375 11.707031 13.238281 11.707031 C 13.25 11.707031 13.265625 11.707031 13.285156 11.707031 C 13.316406 11.710938 13.363281 11.714844 13.421875 11.71875 C 13.480469 11.726562 13.605469 11.730469 13.691406 11.777344 C 13.707031 11.789062 13.726562 11.789062 13.746094 11.792969 C 13.78125 11.796875 13.8125 11.796875 13.847656 11.796875 C 13.929688 11.804688 14.03125 11.808594 14.125 11.816406 C 14.214844 11.828125 14.3125 11.84375 14.402344 11.882812 C 14.472656 11.910156 14.542969 11.964844 14.566406 12.046875 C 14.566406 12.09375 14.5625 12.136719 14.558594 12.183594 C 14.554688 12.257812 14.550781 12.335938 14.546875 12.417969 C 14.542969 12.46875 14.539062 12.523438 14.535156 12.574219 C 14.535156 12.578125 14.53125 12.644531 14.53125 12.644531 C 14.53125 12.644531 14.527344 12.722656 14.527344 12.722656 C 14.527344 12.722656 14.519531 12.75 14.519531 12.75 C 14.519531 12.753906 14.515625 12.757812 14.515625 12.761719 C 14.496094 12.765625 14.472656 12.773438 14.449219 12.777344 C 14.394531 12.785156 14.339844 12.792969 14.285156 12.796875 C 14.050781 12.820312 13.828125 12.832031 13.632812 12.839844 C 13.355469 12.847656 13.148438 12.789062 13 12.71875 C 12.929688 12.6875 12.882812 12.652344 12.847656 12.628906 C 12.832031 12.613281 12.820312 12.605469 12.8125 12.597656 C 12.804688 12.589844 12.800781 12.582031 12.800781 12.582031 C 12.800781 12.582031 12.808594 12.585938 12.816406 12.59375 C 12.824219 12.597656 12.835938 12.609375 12.855469 12.621094 C 12.890625 12.644531 12.9375 12.671875 13.007812 12.703125 C 13.15625 12.765625 13.359375 12.816406 13.632812 12.804688 C 13.824219 12.796875 14.050781 12.785156 14.28125 12.757812 C 14.335938 12.753906 14.390625 12.746094 14.445312 12.738281 C 14.460938 12.738281 14.480469 12.738281 14.496094 12.738281 C 14.496094 12.734375 14.496094 12.734375 14.496094 12.730469 C 14.496094 12.730469 14.488281 12.71875 14.488281 12.71875 C 14.488281 12.714844 14.492188 12.648438 14.492188 12.644531 C 14.492188 12.652344 14.5 12.566406 14.5 12.574219 C 14.496094 12.585938 14.507812 12.402344 14.507812 12.417969 C 14.511719 12.335938 14.519531 12.257812 14.523438 12.179688 C 14.523438 12.136719 14.527344 12.09375 14.53125 12.054688 C 14.515625 11.988281 14.449219 11.941406 14.386719 11.914062 C 14.304688 11.878906 14.207031 11.863281 14.121094 11.851562 C 14.03125 11.839844 13.929688 11.832031 13.847656 11.828125 C 13.8125 11.824219 13.777344 11.824219 13.742188 11.816406 C 13.722656 11.816406 13.699219 11.8125 13.679688 11.800781 C 13.601562 11.757812 13.476562 11.746094 13.417969 11.738281 C 13.367188 11.730469 13.3125 11.722656 13.28125 11.71875 C 13.265625 11.714844 13.25 11.710938 13.238281 11.710938 C 13.234375 11.710938 13.230469 11.710938 13.226562 11.707031 C 13.222656 11.707031 13.222656 11.707031 13.222656 11.707031 Z M 14.589844 12.101562 C 14.589844 12.09375 14.675781 12.101562 14.78125 12.121094 C 14.886719 12.140625 14.972656 12.164062 14.96875 12.175781 C 14.96875 12.1875 14.878906 12.179688 14.773438 12.160156 C 14.671875 12.136719 14.585938 12.113281 14.589844 12.101562 Z M 14.523438 12.726562 C 14.523438 12.726562 14.523438 12.726562 14.527344 12.726562 C 14.53125 12.726562 14.535156 12.726562 14.539062 12.726562 C 14.546875 12.730469 14.554688 12.734375 14.570312 12.738281 C 14.59375 12.746094 14.625 12.761719 14.660156 12.773438 C 14.671875 12.773438 14.683594 12.777344 14.691406 12.78125 C 14.789062 12.800781 14.847656 12.761719 14.855469 12.769531 C 14.871094 12.78125 14.800781 12.851562 14.683594 12.820312 C 14.671875 12.816406 14.660156 12.8125 14.648438 12.808594 C 14.613281 12.796875 14.578125 12.777344 14.558594 12.761719 C 14.546875 12.753906 14.535156 12.746094 14.53125 12.742188 C 14.527344 12.738281 14.523438 12.734375 14.523438 12.734375 C 14.523438 12.730469 14.519531 12.730469 14.523438 12.726562 Z M 14.558594 12.546875 C 14.558594 12.542969 14.5625 12.542969 14.570312 12.542969 C 14.578125 12.542969 14.589844 12.542969 14.601562 12.542969 C 14.625 12.546875 14.65625 12.554688 14.691406 12.5625 C 14.699219 12.5625 14.707031 12.5625 14.714844 12.566406 C 14.800781 12.585938 14.855469 12.578125 14.859375 12.585938 C 14.867188 12.597656 14.789062 12.628906 14.703125 12.605469 C 14.695312 12.601562 14.6875 12.601562 14.683594 12.597656 C 14.648438 12.589844 14.617188 12.582031 14.59375 12.570312 C 14.582031 12.566406 14.574219 12.5625 14.566406 12.554688 C 14.5625 12.550781 14.558594 12.546875 14.558594 12.546875 Z M 14.558594 12.546875 " fill-opacity="1" fill-rule="nonzero"/><path fill="#27a708" d="M 21.433594 10.207031 C 21.433594 10.207031 21.433594 10.207031 21.433594 10.210938 C 21.433594 10.214844 21.4375 10.21875 21.433594 10.226562 C 21.433594 10.242188 21.433594 10.261719 21.433594 10.285156 C 21.429688 10.332031 21.421875 10.402344 21.414062 10.492188 C 21.394531 10.675781 21.367188 10.949219 21.347656 11.132812 C 21.347656 11.117188 21.332031 11.265625 21.335938 11.25 C 21.3125 11.476562 21.296875 11.652344 21.285156 11.832031 C 21.277344 11.945312 21.273438 12.027344 21.273438 12.109375 C 21.273438 12.222656 21.285156 12.289062 21.277344 12.289062 C 21.273438 12.292969 21.25 12.222656 21.246094 12.109375 C 21.238281 12.03125 21.238281 11.941406 21.242188 11.828125 C 21.246094 11.65625 21.261719 11.464844 21.28125 11.242188 C 21.285156 11.203125 21.289062 11.164062 21.296875 11.125 C 21.320312 10.875 21.351562 10.648438 21.378906 10.484375 C 21.390625 10.398438 21.402344 10.332031 21.414062 10.28125 C 21.417969 10.257812 21.421875 10.238281 21.425781 10.226562 C 21.425781 10.21875 21.429688 10.214844 21.429688 10.210938 C 21.429688 10.207031 21.433594 10.207031 21.433594 10.207031 Z M 21.257812 12.070312 C 21.253906 12.058594 21.378906 12.011719 21.546875 11.957031 C 21.570312 11.949219 21.597656 11.941406 21.625 11.933594 C 21.839844 11.882812 22.019531 11.910156 22.019531 11.925781 C 22.015625 11.941406 21.847656 11.933594 21.640625 11.988281 C 21.613281 11.996094 21.585938 12 21.558594 12.007812 C 21.390625 12.054688 21.261719 12.082031 21.257812 12.070312 Z M 17.652344 11.875 C 17.652344 11.859375 17.699219 11.847656 17.753906 11.851562 C 17.8125 11.855469 17.859375 11.867188 17.855469 11.882812 C 17.855469 11.898438 17.808594 11.90625 17.753906 11.90625 C 17.695312 11.902344 17.652344 11.886719 17.652344 11.875 Z M 18.574219 11.726562 C 18.589844 11.726562 18.601562 11.835938 18.601562 11.972656 C 18.601562 12.109375 18.589844 12.21875 18.574219 12.21875 C 18.5625 12.21875 18.550781 12.109375 18.550781 11.972656 C 18.550781 11.835938 18.5625 11.726562 18.574219 11.726562 Z M 18.574219 11.726562 " fill-opacity="1" fill-rule="nonzero"/><path fill="#344e67" d="M 6.59375 11.847656 C 6.570312 11.855469 6.5 11.671875 6.4375 11.441406 C 6.371094 11.207031 6.339844 11.015625 6.359375 11.007812 C 6.378906 11.003906 6.449219 11.1875 6.515625 11.417969 C 6.578125 11.648438 6.613281 11.84375 6.59375 11.847656 Z M 7.289062 10.464844 C 7.3125 10.457031 7.355469 10.542969 7.386719 10.652344 C 7.417969 10.761719 7.425781 10.855469 7.40625 10.863281 C 7.382812 10.867188 7.339844 10.785156 7.308594 10.675781 C 7.277344 10.566406 7.269531 10.46875 7.289062 10.464844 Z M 8.074219 13.765625 C 8.097656 13.761719 8.132812 13.953125 8.15625 14.1875 C 8.183594 14.425781 8.183594 14.617188 8.160156 14.621094 C 8.140625 14.621094 8.101562 14.433594 8.078125 14.195312 C 8.054688 13.960938 8.050781 13.765625 8.074219 13.765625 Z M 7.796875 14.695312 C 7.796875 14.695312 7.792969 14.695312 7.789062 14.695312 C 7.789062 14.695312 7.785156 14.695312 7.777344 14.695312 C 7.769531 14.691406 7.761719 14.6875 7.75 14.679688 C 7.730469 14.660156 7.703125 14.628906 7.707031 14.582031 C 7.710938 14.523438 7.738281 14.46875 7.792969 14.421875 C 7.929688 14.304688 8.097656 14.304688 8.101562 14.324219 C 8.105469 14.335938 8.078125 14.355469 8.027344 14.386719 C 7.976562 14.414062 7.898438 14.445312 7.839844 14.484375 C 7.796875 14.515625 7.777344 14.546875 7.769531 14.589844 C 7.765625 14.609375 7.773438 14.632812 7.78125 14.648438 C 7.785156 14.660156 7.789062 14.667969 7.796875 14.675781 C 7.796875 14.679688 7.796875 14.683594 7.800781 14.6875 C 7.800781 14.691406 7.800781 14.691406 7.796875 14.695312 Z M 6.882812 10.597656 C 6.871094 10.578125 6.929688 10.515625 7.011719 10.460938 C 7.097656 10.402344 7.175781 10.371094 7.1875 10.390625 C 7.199219 10.410156 7.140625 10.46875 7.058594 10.527344 C 6.972656 10.585938 6.894531 10.617188 6.882812 10.597656 Z M 6.882812 10.597656 " fill-opacity="1" fill-rule="nonzero"/><path fill="#344e67" d="M 6.125 12.558594 L 5.953125 12.335938 C 5.953125 12.335938 6.023438 11.996094 6.722656 11.847656 C 7.421875 11.703125 7.171875 11.996094 7.171875 11.996094 L 6.75 12.363281 Z M 6.125 12.558594 " fill-opacity="1" fill-rule="nonzero"/><path fill="#fdbd64" d="M 5.96875 12.378906 C 5.96875 12.378906 7.113281 12.234375 7.203125 11.863281 L 7.609375 13.882812 C 7.679688 14.101562 6.636719 14.546875 6.316406 14.179688 Z M 5.96875 12.378906 " fill-opacity="1" fill-rule="nonzero"/><path fill="#fb7500" d="M 6.140625 13.234375 C 6.140625 13.234375 6.957031 13.308594 7.390625 12.851562 L 7.449219 13.191406 C 7.449219 13.191406 6.59375 13.734375 6.171875 13.484375 Z M 6.140625 13.234375 " fill-opacity="1" fill-rule="nonzero"/></svg>