<svg xmlns="http://www.w3.org/2000/svg" xmlns:xlink="http://www.w3.org/1999/xlink" width="40" zoomAndPan="magnify" viewBox="0 0 30 30.000001" height="40" preserveAspectRatio="xMidYMid meet" version="1.0"><defs><clipPath id="1ef5edb45f"><path d="M 20.175781 9.925781 L 26.257812 9.925781 L 26.257812 11.058594 L 20.175781 11.058594 Z M 20.175781 9.925781 " clip-rule="nonzero"/></clipPath><clipPath id="3a52a8b3ca"><path d="M 20 11 L 26 11 L 26 26.128906 L 20 26.128906 Z M 20 11 " clip-rule="nonzero"/></clipPath><clipPath id="e67661e521"><path d="M 20 11 L 23 11 L 23 26.128906 L 20 26.128906 Z M 20 11 " clip-rule="nonzero"/></clipPath><clipPath id="eb311a2473"><path d="M 4.492188 9 L 11 9 L 11 12 L 4.492188 12 Z M 4.492188 9 " clip-rule="nonzero"/></clipPath><clipPath id="511847d37e"><path d="M 5 11 L 11 11 L 11 26.128906 L 5 26.128906 Z M 5 11 " clip-rule="nonzero"/></clipPath><clipPath id="3198a0bbfb"><path d="M 5 11 L 9 11 L 9 26.128906 L 5 26.128906 Z M 5 11 " clip-rule="nonzero"/></clipPath><clipPath id="8728114834"><path d="M 9 6 L 21 6 L 21 26.128906 L 9 26.128906 Z M 9 6 " clip-rule="nonzero"/></clipPath><clipPath id="df1dd9d9b6"><path d="M 9 6 L 13 6 L 13 26.128906 L 9 26.128906 Z M 9 6 " clip-rule="nonzero"/></clipPath><clipPath id="a8a86ebf3c"><path d="M 14 2.902344 L 17 2.902344 L 17 6 L 14 6 Z M 14 2.902344 " clip-rule="nonzero"/></clipPath><clipPath id="5dad583560"><path d="M 13 20 L 18 20 L 18 26.128906 L 13 26.128906 Z M 13 20 " clip-rule="nonzero"/></clipPath><clipPath id="04cb89aacd"><path d="M 14 23 L 17 23 L 17 26.128906 L 14 26.128906 Z M 14 23 " clip-rule="nonzero"/></clipPath><clipPath id="994b19bcbe"><path d="M 13 20 L 16 20 L 16 26.128906 L 13 26.128906 Z M 13 20 " clip-rule="nonzero"/></clipPath><clipPath id="5c6306d2d0"><path d="M 14 23 L 16 23 L 16 26.128906 L 14 26.128906 Z M 14 23 " clip-rule="nonzero"/></clipPath><clipPath id="9ab76904b2"><path d="M 4.492188 9 L 8 9 L 8 12 L 4.492188 12 Z M 4.492188 9 " clip-rule="nonzero"/></clipPath></defs><g clip-path="url(#1ef5edb45f)"><path fill="#ffd551" d="M 20.175781 11.058594 L 26.070312 11.058594 C 26.175781 11.058594 26.257812 10.972656 26.257812 10.863281 L 26.257812 10.121094 C 26.257812 10.011719 26.175781 9.925781 26.070312 9.925781 L 20.175781 9.925781 L 20.175781 11.058594 " fill-opacity="1" fill-rule="nonzero"/></g><path fill="#ffc34c" d="M 22.722656 9.925781 L 20.175781 9.925781 L 20.175781 11.058594 L 22.722656 11.058594 L 22.722656 9.925781 " fill-opacity="1" fill-rule="nonzero"/><g clip-path="url(#3a52a8b3ca)"><path fill="#bf6c0d" d="M 20.175781 26.128906 L 24.945312 26.128906 C 25.050781 26.128906 25.132812 26.042969 25.132812 25.9375 L 25.132812 11.058594 L 20.175781 11.058594 L 20.175781 26.128906 " fill-opacity="1" fill-rule="nonzero"/></g><g clip-path="url(#e67661e521)"><path fill="#a56021" d="M 20.175781 11.058594 L 20.175781 26.128906 L 22.722656 26.128906 L 22.722656 11.058594 L 20.175781 11.058594 " fill-opacity="1" fill-rule="nonzero"/></g><path fill="#ffd551" d="M 23.84375 15.28125 L 22.117188 15.28125 C 22.015625 15.28125 21.929688 15.195312 21.929688 15.089844 L 21.929688 12.488281 C 21.929688 12.382812 22.015625 12.296875 22.117188 12.296875 L 23.84375 12.296875 C 23.949219 12.296875 24.035156 12.382812 24.035156 12.488281 L 24.035156 15.089844 C 24.035156 15.195312 23.949219 15.28125 23.84375 15.28125 " fill-opacity="1" fill-rule="nonzero"/><path fill="#ffd551" d="M 23.84375 19.800781 L 22.117188 19.800781 C 22.015625 19.800781 21.929688 19.714844 21.929688 19.609375 L 21.929688 17.011719 C 21.929688 16.90625 22.015625 16.820312 22.117188 16.820312 L 23.84375 16.820312 C 23.949219 16.820312 24.035156 16.90625 24.035156 17.011719 L 24.035156 19.609375 C 24.035156 19.714844 23.949219 19.800781 23.84375 19.800781 " fill-opacity="1" fill-rule="nonzero"/><path fill="#ffd551" d="M 23.84375 24.324219 L 22.117188 24.324219 C 22.015625 24.324219 21.929688 24.238281 21.929688 24.132812 L 21.929688 21.53125 C 21.929688 21.425781 22.015625 21.339844 22.117188 21.339844 L 23.84375 21.339844 C 23.949219 21.339844 24.035156 21.425781 24.035156 21.53125 L 24.035156 24.132812 C 24.035156 24.238281 23.949219 24.324219 23.84375 24.324219 " fill-opacity="1" fill-rule="nonzero"/><path fill="#ffc34c" d="M 22.722656 21.339844 L 22.117188 21.339844 C 22.015625 21.339844 21.929688 21.425781 21.929688 21.53125 L 21.929688 24.132812 C 21.929688 24.238281 22.015625 24.324219 22.117188 24.324219 L 22.722656 24.324219 L 22.722656 21.339844 " fill-opacity="1" fill-rule="nonzero"/><path fill="#ffc34c" d="M 22.722656 16.820312 L 22.117188 16.820312 C 22.015625 16.820312 21.929688 16.90625 21.929688 17.011719 L 21.929688 19.609375 C 21.929688 19.714844 22.015625 19.800781 22.117188 19.800781 L 22.722656 19.800781 L 22.722656 16.820312 " fill-opacity="1" fill-rule="nonzero"/><path fill="#ffc34c" d="M 22.722656 12.296875 L 22.117188 12.296875 C 22.015625 12.296875 21.929688 12.382812 21.929688 12.488281 L 21.929688 15.089844 C 21.929688 15.195312 22.015625 15.28125 22.117188 15.28125 L 22.722656 15.28125 L 22.722656 12.296875 " fill-opacity="1" fill-rule="nonzero"/><g clip-path="url(#eb311a2473)"><path fill="#ffd551" d="M 10.582031 11.058594 L 4.683594 11.058594 C 4.582031 11.058594 4.496094 10.972656 4.496094 10.863281 L 4.496094 10.117188 C 4.496094 10.011719 4.582031 9.925781 4.683594 9.925781 L 10.582031 9.925781 L 10.582031 11.058594 " fill-opacity="1" fill-rule="nonzero"/></g><g clip-path="url(#511847d37e)"><path fill="#a56021" d="M 10.582031 26.128906 L 5.808594 26.128906 C 5.707031 26.128906 5.621094 26.042969 5.621094 25.9375 L 5.621094 11.058594 L 10.582031 11.058594 L 10.582031 26.128906 " fill-opacity="1" fill-rule="nonzero"/></g><g clip-path="url(#3198a0bbfb)"><path fill="#8c4c17" d="M 5.621094 11.058594 L 5.621094 25.9375 C 5.621094 26.042969 5.707031 26.128906 5.808594 26.128906 L 8.269531 26.128906 L 8.269531 11.058594 L 5.621094 11.058594 " fill-opacity="1" fill-rule="nonzero"/></g><g clip-path="url(#8728114834)"><path fill="#ffa730" d="M 20.828125 26.128906 L 9.867188 26.128906 L 9.867188 6.722656 L 20.828125 6.722656 L 20.828125 26.128906 " fill-opacity="1" fill-rule="nonzero"/></g><g clip-path="url(#df1dd9d9b6)"><path fill="#e58d23" d="M 9.867188 6.722656 L 9.867188 26.128906 L 12.515625 26.128906 L 12.515625 6.722656 L 9.867188 6.722656 " fill-opacity="1" fill-rule="nonzero"/></g><path fill="#ffdf74" d="M 8.609375 7.867188 L 8.609375 6.90625 C 8.609375 6.800781 8.691406 6.714844 8.796875 6.714844 L 21.667969 6.714844 C 21.769531 6.714844 21.855469 6.800781 21.855469 6.90625 L 21.855469 7.867188 C 21.855469 7.972656 21.769531 8.058594 21.667969 8.058594 L 8.796875 8.058594 C 8.691406 8.058594 8.609375 7.972656 8.609375 7.867188 " fill-opacity="1" fill-rule="nonzero"/><path fill="#ffdf74" d="M 19.753906 12.671875 L 18.027344 12.671875 C 17.921875 12.671875 17.839844 12.585938 17.839844 12.480469 L 17.839844 9.882812 C 17.839844 9.777344 17.921875 9.691406 18.027344 9.691406 L 19.753906 9.691406 C 19.859375 9.691406 19.945312 9.777344 19.945312 9.882812 L 19.945312 12.480469 C 19.945312 12.585938 19.859375 12.671875 19.753906 12.671875 " fill-opacity="1" fill-rule="nonzero"/><path fill="#ffdf74" d="M 16.210938 12.671875 L 14.484375 12.671875 C 14.382812 12.671875 14.296875 12.585938 14.296875 12.480469 L 14.296875 9.882812 C 14.296875 9.777344 14.382812 9.691406 14.484375 9.691406 L 16.210938 9.691406 C 16.316406 9.691406 16.402344 9.777344 16.402344 9.882812 L 16.402344 12.480469 C 16.402344 12.585938 16.316406 12.671875 16.210938 12.671875 " fill-opacity="1" fill-rule="nonzero"/><path fill="#ffdf74" d="M 19.769531 16.964844 L 18.039062 16.964844 C 17.9375 16.964844 17.851562 16.878906 17.851562 16.773438 L 17.851562 14.171875 C 17.851562 14.066406 17.9375 13.980469 18.039062 13.980469 L 19.769531 13.980469 C 19.871094 13.980469 19.957031 14.066406 19.957031 14.171875 L 19.957031 16.773438 C 19.957031 16.878906 19.871094 16.964844 19.769531 16.964844 " fill-opacity="1" fill-rule="nonzero"/><path fill="#ffdf74" d="M 16.226562 16.964844 L 14.5 16.964844 C 14.394531 16.964844 14.308594 16.878906 14.308594 16.773438 L 14.308594 14.171875 C 14.308594 14.066406 14.394531 13.980469 14.5 13.980469 L 16.226562 13.980469 C 16.332031 13.980469 16.414062 14.066406 16.414062 14.171875 L 16.414062 16.773438 C 16.414062 16.878906 16.332031 16.964844 16.226562 16.964844 " fill-opacity="1" fill-rule="nonzero"/><path fill="#ffdf74" d="M 19.761719 21.339844 L 18.03125 21.339844 C 17.929688 21.339844 17.84375 21.253906 17.84375 21.148438 L 17.84375 18.550781 C 17.84375 18.441406 17.929688 18.355469 18.03125 18.355469 L 19.761719 18.355469 C 19.863281 18.355469 19.949219 18.441406 19.949219 18.550781 L 19.949219 21.148438 C 19.949219 21.253906 19.863281 21.339844 19.761719 21.339844 " fill-opacity="1" fill-rule="nonzero"/><path fill="#ffdf74" d="M 16.21875 21.339844 L 14.492188 21.339844 C 14.386719 21.339844 14.300781 21.253906 14.300781 21.148438 L 14.300781 18.550781 C 14.300781 18.441406 14.386719 18.355469 14.492188 18.355469 L 16.21875 18.355469 C 16.324219 18.355469 16.40625 18.441406 16.40625 18.550781 L 16.40625 21.148438 C 16.40625 21.253906 16.324219 21.339844 16.21875 21.339844 " fill-opacity="1" fill-rule="nonzero"/><g clip-path="url(#a8a86ebf3c)"><path fill="#ffa730" d="M 15.839844 3.714844 L 16.550781 3.808594 C 16.640625 3.820312 16.675781 3.929688 16.617188 3.996094 L 16.105469 4.542969 C 16.082031 4.570312 16.074219 4.605469 16.078125 4.640625 L 16.214844 5.390625 C 16.230469 5.480469 16.140625 5.550781 16.058594 5.507812 L 15.425781 5.171875 C 15.390625 5.15625 15.351562 5.15625 15.320312 5.175781 L 14.703125 5.535156 C 14.621094 5.582031 14.527344 5.515625 14.539062 5.425781 L 14.648438 4.667969 C 14.652344 4.636719 14.640625 4.601562 14.617188 4.574219 L 14.085938 4.050781 C 14.023438 3.984375 14.054688 3.875 14.144531 3.859375 L 14.851562 3.734375 C 14.886719 3.730469 14.917969 3.707031 14.933594 3.671875 L 15.234375 2.992188 C 15.269531 2.90625 15.390625 2.902344 15.429688 2.988281 L 15.757812 3.65625 C 15.773438 3.6875 15.804688 3.710938 15.839844 3.714844 " fill-opacity="1" fill-rule="nonzero"/></g><path fill="#ffb74b" d="M 18.753906 3.871094 L 19.164062 3.925781 C 19.25 3.9375 19.289062 4.046875 19.226562 4.109375 L 18.933594 4.429688 C 18.910156 4.453125 18.898438 4.492188 18.90625 4.523438 L 18.984375 4.960938 C 19 5.050781 18.90625 5.121094 18.824219 5.078125 L 18.464844 4.886719 C 18.433594 4.867188 18.390625 4.871094 18.359375 4.886719 L 18.007812 5.09375 C 17.929688 5.140625 17.832031 5.074219 17.84375 4.984375 L 17.90625 4.546875 C 17.914062 4.511719 17.902344 4.476562 17.875 4.453125 L 17.566406 4.144531 C 17.503906 4.082031 17.539062 3.972656 17.625 3.957031 L 18.035156 3.886719 C 18.070312 3.878906 18.097656 3.855469 18.113281 3.824219 L 18.285156 3.433594 C 18.324219 3.347656 18.441406 3.34375 18.484375 3.429688 L 18.671875 3.8125 C 18.6875 3.84375 18.71875 3.867188 18.753906 3.871094 " fill-opacity="1" fill-rule="nonzero"/><path fill="#ffc34c" d="M 21.363281 3.871094 L 21.773438 3.925781 C 21.863281 3.9375 21.902344 4.046875 21.839844 4.109375 L 21.542969 4.429688 C 21.519531 4.453125 21.511719 4.492188 21.515625 4.523438 L 21.59375 4.960938 C 21.613281 5.050781 21.519531 5.121094 21.4375 5.078125 L 21.078125 4.886719 C 21.042969 4.867188 21.003906 4.871094 20.972656 4.886719 L 20.617188 5.09375 C 20.539062 5.140625 20.445312 5.074219 20.457031 4.984375 L 20.519531 4.546875 C 20.523438 4.511719 20.511719 4.476562 20.488281 4.453125 L 20.179688 4.144531 C 20.117188 4.082031 20.148438 3.972656 20.238281 3.957031 L 20.644531 3.886719 C 20.679688 3.878906 20.710938 3.855469 20.726562 3.824219 L 20.898438 3.433594 C 20.9375 3.347656 21.054688 3.34375 21.09375 3.429688 L 21.28125 3.8125 C 21.296875 3.84375 21.328125 3.867188 21.363281 3.871094 " fill-opacity="1" fill-rule="nonzero"/><path fill="#ffc34c" d="M 10.046875 3.871094 L 10.457031 3.925781 C 10.546875 3.9375 10.582031 4.046875 10.523438 4.109375 L 10.226562 4.429688 C 10.203125 4.453125 10.191406 4.492188 10.199219 4.523438 L 10.277344 4.960938 C 10.292969 5.050781 10.199219 5.121094 10.121094 5.078125 L 9.757812 4.886719 C 9.726562 4.867188 9.6875 4.871094 9.65625 4.886719 L 9.300781 5.09375 C 9.222656 5.140625 9.125 5.074219 9.140625 4.984375 L 9.203125 4.546875 C 9.207031 4.511719 9.195312 4.476562 9.171875 4.453125 L 8.863281 4.144531 C 8.796875 4.082031 8.832031 3.972656 8.917969 3.957031 L 9.328125 3.886719 C 9.363281 3.878906 9.394531 3.855469 9.410156 3.824219 L 9.582031 3.433594 C 9.617188 3.347656 9.738281 3.34375 9.777344 3.429688 L 9.964844 3.8125 C 9.980469 3.84375 10.011719 3.867188 10.046875 3.871094 " fill-opacity="1" fill-rule="nonzero"/><path fill="#ffb74b" d="M 12.660156 3.871094 L 13.070312 3.925781 C 13.15625 3.9375 13.195312 4.046875 13.132812 4.109375 L 12.839844 4.429688 C 12.816406 4.453125 12.804688 4.492188 12.8125 4.523438 L 12.890625 4.960938 C 12.90625 5.050781 12.8125 5.121094 12.730469 5.078125 L 12.371094 4.886719 C 12.339844 4.867188 12.296875 4.871094 12.265625 4.886719 L 11.914062 5.09375 C 11.835938 5.140625 11.738281 5.074219 11.75 4.984375 L 11.8125 4.546875 C 11.816406 4.511719 11.804688 4.476562 11.78125 4.453125 L 11.472656 4.144531 C 11.410156 4.082031 11.445312 3.972656 11.53125 3.957031 L 11.941406 3.886719 C 11.976562 3.878906 12.003906 3.855469 12.019531 3.824219 L 12.191406 3.433594 C 12.230469 3.347656 12.347656 3.34375 12.390625 3.429688 L 12.574219 3.8125 C 12.59375 3.84375 12.625 3.867188 12.660156 3.871094 " fill-opacity="1" fill-rule="nonzero"/><path fill="#ffd551" d="M 11.257812 7.867188 L 11.257812 6.90625 C 11.257812 6.800781 11.34375 6.714844 11.445312 6.714844 L 8.796875 6.714844 C 8.691406 6.714844 8.609375 6.800781 8.609375 6.90625 L 8.609375 7.867188 C 8.609375 7.972656 8.691406 8.058594 8.796875 8.058594 L 11.445312 8.058594 C 11.34375 8.058594 11.257812 7.972656 11.257812 7.867188 " fill-opacity="1" fill-rule="nonzero"/><path fill="#a56021" d="M 12.480469 8.285156 L 12.480469 7.675781 C 12.480469 7.617188 12.433594 7.570312 12.378906 7.570312 L 11.910156 7.570312 C 11.851562 7.570312 11.804688 7.617188 11.804688 7.675781 L 11.804688 8.285156 C 11.804688 8.339844 11.757812 8.386719 11.699219 8.386719 L 11.394531 8.386719 C 11.335938 8.386719 11.289062 8.339844 11.289062 8.285156 L 11.289062 6.417969 C 11.289062 6.363281 11.335938 6.316406 11.394531 6.316406 L 11.699219 6.316406 C 11.757812 6.316406 11.804688 6.363281 11.804688 6.417969 L 11.804688 7.011719 C 11.804688 7.070312 11.851562 7.113281 11.910156 7.113281 L 12.378906 7.113281 C 12.433594 7.113281 12.480469 7.070312 12.480469 7.011719 L 12.480469 6.417969 C 12.480469 6.363281 12.527344 6.316406 12.585938 6.316406 L 12.894531 6.316406 C 12.949219 6.316406 12.996094 6.363281 12.996094 6.417969 L 12.996094 8.285156 C 12.996094 8.339844 12.949219 8.386719 12.894531 8.386719 L 12.585938 8.386719 C 12.527344 8.386719 12.480469 8.339844 12.480469 8.285156 " fill-opacity="1" fill-rule="nonzero"/><path fill="#a56021" d="M 14.15625 6.765625 C 13.828125 6.765625 13.617188 6.992188 13.617188 7.347656 C 13.617188 7.703125 13.828125 7.933594 14.15625 7.933594 C 14.484375 7.933594 14.695312 7.703125 14.695312 7.347656 C 14.695312 6.992188 14.484375 6.765625 14.15625 6.765625 Z M 14.15625 8.40625 C 13.304688 8.40625 12.75 7.511719 13.332031 6.570312 C 13.339844 6.558594 13.355469 6.539062 13.367188 6.53125 C 14.320312 5.949219 15.21875 6.503906 15.21875 7.347656 C 15.21875 7.949219 14.761719 8.40625 14.15625 8.40625 " fill-opacity="1" fill-rule="nonzero"/><path fill="#a56021" d="M 15.71875 8.285156 L 15.71875 6.875 C 15.71875 6.816406 15.671875 6.769531 15.617188 6.769531 L 15.320312 6.769531 C 15.265625 6.769531 15.21875 6.726562 15.21875 6.667969 L 15.21875 6.417969 C 15.21875 6.363281 15.265625 6.316406 15.320312 6.316406 L 16.632812 6.316406 C 16.691406 6.316406 16.738281 6.363281 16.738281 6.417969 L 16.738281 6.667969 C 16.738281 6.726562 16.691406 6.769531 16.632812 6.769531 L 16.339844 6.769531 C 16.28125 6.769531 16.238281 6.816406 16.238281 6.875 L 16.238281 8.285156 C 16.238281 8.339844 16.191406 8.386719 16.132812 8.386719 L 15.824219 8.386719 C 15.765625 8.386719 15.71875 8.339844 15.71875 8.285156 " fill-opacity="1" fill-rule="nonzero"/><path fill="#a56021" d="M 16.839844 8.285156 L 16.839844 6.414062 C 16.839844 6.359375 16.886719 6.3125 16.945312 6.3125 L 17.980469 6.3125 C 18.039062 6.3125 18.085938 6.359375 18.085938 6.414062 L 18.085938 6.664062 C 18.085938 6.722656 18.039062 6.769531 17.980469 6.769531 L 17.460938 6.769531 C 17.402344 6.769531 17.355469 6.816406 17.355469 6.871094 L 17.355469 7.007812 C 17.355469 7.0625 17.402344 7.109375 17.460938 7.109375 L 17.902344 7.109375 C 17.957031 7.109375 18.003906 7.15625 18.003906 7.210938 L 18.003906 7.460938 C 18.003906 7.519531 17.957031 7.566406 17.902344 7.566406 L 17.460938 7.566406 C 17.402344 7.566406 17.355469 7.613281 17.355469 7.667969 L 17.355469 7.828125 C 17.355469 7.882812 17.402344 7.929688 17.460938 7.929688 L 17.980469 7.929688 C 18.039062 7.929688 18.085938 7.976562 18.085938 8.035156 L 18.085938 8.285156 C 18.085938 8.339844 18.039062 8.386719 17.980469 8.386719 L 16.945312 8.386719 C 16.886719 8.386719 16.839844 8.339844 16.839844 8.285156 " fill-opacity="1" fill-rule="nonzero"/><path fill="#a56021" d="M 18.257812 8.285156 L 18.257812 6.417969 C 18.257812 6.363281 18.304688 6.316406 18.359375 6.316406 L 18.667969 6.316406 C 18.726562 6.316406 18.773438 6.363281 18.773438 6.417969 L 18.773438 7.832031 C 18.773438 7.886719 18.820312 7.933594 18.875 7.933594 L 19.304688 7.933594 C 19.363281 7.933594 19.40625 7.980469 19.40625 8.035156 L 19.40625 8.285156 C 19.40625 8.339844 19.363281 8.386719 19.304688 8.386719 L 18.359375 8.386719 C 18.304688 8.386719 18.257812 8.339844 18.257812 8.285156 " fill-opacity="1" fill-rule="nonzero"/><path fill="#ffdf74" d="M 12.703125 12.671875 L 10.972656 12.671875 C 10.871094 12.671875 10.785156 12.585938 10.785156 12.480469 L 10.785156 9.882812 C 10.785156 9.777344 10.871094 9.691406 10.972656 9.691406 L 12.703125 9.691406 C 12.804688 9.691406 12.890625 9.777344 12.890625 9.882812 L 12.890625 12.480469 C 12.890625 12.585938 12.804688 12.671875 12.703125 12.671875 " fill-opacity="1" fill-rule="nonzero"/><path fill="#ffdf74" d="M 12.714844 16.964844 L 10.988281 16.964844 C 10.882812 16.964844 10.796875 16.878906 10.796875 16.773438 L 10.796875 14.171875 C 10.796875 14.066406 10.882812 13.980469 10.988281 13.980469 L 12.714844 13.980469 C 12.820312 13.980469 12.902344 14.066406 12.902344 14.171875 L 12.902344 16.773438 C 12.902344 16.878906 12.820312 16.964844 12.714844 16.964844 " fill-opacity="1" fill-rule="nonzero"/><path fill="#ffdf74" d="M 12.707031 21.339844 L 10.980469 21.339844 C 10.875 21.339844 10.789062 21.253906 10.789062 21.148438 L 10.789062 18.550781 C 10.789062 18.441406 10.875 18.355469 10.980469 18.355469 L 12.707031 18.355469 C 12.8125 18.355469 12.894531 18.441406 12.894531 18.550781 L 12.894531 21.148438 C 12.894531 21.253906 12.8125 21.339844 12.707031 21.339844 " fill-opacity="1" fill-rule="nonzero"/><path fill="#ffd551" d="M 12.515625 18.355469 L 10.980469 18.355469 C 10.875 18.355469 10.789062 18.441406 10.789062 18.550781 L 10.789062 21.148438 C 10.789062 21.253906 10.875 21.339844 10.980469 21.339844 L 12.515625 21.339844 L 12.515625 18.355469 " fill-opacity="1" fill-rule="nonzero"/><path fill="#ffd551" d="M 12.519531 13.980469 L 10.988281 13.980469 C 10.882812 13.980469 10.796875 14.066406 10.796875 14.171875 L 10.796875 16.773438 C 10.796875 16.878906 10.882812 16.964844 10.988281 16.964844 L 12.519531 16.964844 L 12.519531 13.980469 " fill-opacity="1" fill-rule="nonzero"/><path fill="#ffd551" d="M 12.519531 9.691406 L 10.972656 9.691406 C 10.871094 9.691406 10.785156 9.777344 10.785156 9.882812 L 10.785156 12.480469 C 10.785156 12.585938 10.871094 12.671875 10.972656 12.671875 L 12.519531 12.671875 L 12.519531 9.691406 " fill-opacity="1" fill-rule="nonzero"/><path fill="#ffd551" d="M 18.59375 12.480469 L 18.59375 9.882812 C 18.59375 9.777344 18.679688 9.691406 18.785156 9.691406 L 18.027344 9.691406 C 17.921875 9.691406 17.839844 9.777344 17.839844 9.882812 L 17.839844 12.480469 C 17.839844 12.585938 17.921875 12.671875 18.027344 12.671875 L 18.785156 12.671875 C 18.679688 12.671875 18.59375 12.585938 18.59375 12.480469 " fill-opacity="1" fill-rule="nonzero"/><path fill="#ffd551" d="M 15.054688 12.480469 L 15.054688 9.882812 C 15.054688 9.777344 15.136719 9.691406 15.242188 9.691406 L 14.484375 9.691406 C 14.382812 9.691406 14.296875 9.777344 14.296875 9.882812 L 14.296875 12.480469 C 14.296875 12.585938 14.382812 12.671875 14.484375 12.671875 L 15.242188 12.671875 C 15.136719 12.671875 15.054688 12.585938 15.054688 12.480469 " fill-opacity="1" fill-rule="nonzero"/><path fill="#ffd551" d="M 18.609375 16.773438 L 18.609375 14.171875 C 18.609375 14.066406 18.691406 13.980469 18.796875 13.980469 L 18.039062 13.980469 C 17.9375 13.980469 17.851562 14.066406 17.851562 14.171875 L 17.851562 16.773438 C 17.851562 16.878906 17.9375 16.964844 18.039062 16.964844 L 18.796875 16.964844 C 18.691406 16.964844 18.609375 16.878906 18.609375 16.773438 " fill-opacity="1" fill-rule="nonzero"/><path fill="#ffd551" d="M 15.066406 16.773438 L 15.066406 14.171875 C 15.066406 14.066406 15.152344 13.980469 15.253906 13.980469 L 14.5 13.980469 C 14.394531 13.980469 14.308594 14.066406 14.308594 14.171875 L 14.308594 16.773438 C 14.308594 16.878906 14.394531 16.964844 14.5 16.964844 L 15.253906 16.964844 C 15.152344 16.964844 15.066406 16.878906 15.066406 16.773438 " fill-opacity="1" fill-rule="nonzero"/><path fill="#ffd551" d="M 18.601562 21.148438 L 18.601562 18.550781 C 18.601562 18.441406 18.683594 18.355469 18.789062 18.355469 L 18.03125 18.355469 C 17.929688 18.355469 17.84375 18.441406 17.84375 18.550781 L 17.84375 21.148438 C 17.84375 21.253906 17.929688 21.339844 18.03125 21.339844 L 18.789062 21.339844 C 18.683594 21.339844 18.601562 21.253906 18.601562 21.148438 " fill-opacity="1" fill-rule="nonzero"/><path fill="#ffd551" d="M 15.058594 21.148438 L 15.058594 18.550781 C 15.058594 18.441406 15.144531 18.355469 15.246094 18.355469 L 14.492188 18.355469 C 14.386719 18.355469 14.300781 18.441406 14.300781 18.550781 L 14.300781 21.148438 C 14.300781 21.253906 14.386719 21.339844 14.492188 21.339844 L 15.246094 21.339844 C 15.144531 21.339844 15.058594 21.253906 15.058594 21.148438 " fill-opacity="1" fill-rule="nonzero"/><g clip-path="url(#5dad583560)"><path fill="#ffdf74" d="M 15.277344 20.960938 L 13.324219 22.785156 C 13.304688 22.808594 13.289062 22.835938 13.289062 22.867188 L 13.289062 26.128906 L 17.417969 26.128906 L 17.417969 22.867188 C 17.417969 22.835938 17.40625 22.808594 17.382812 22.785156 L 15.429688 20.960938 C 15.386719 20.921875 15.320312 20.921875 15.277344 20.960938 " fill-opacity="1" fill-rule="nonzero"/></g><path fill="#fff4c1" d="M 16.851562 25.648438 C 16.695312 25.648438 16.566406 25.519531 16.566406 25.359375 L 16.566406 23.15625 C 16.566406 22.996094 16.695312 22.867188 16.851562 22.867188 C 17.007812 22.867188 17.132812 22.996094 17.132812 23.15625 L 17.132812 25.359375 C 17.132812 25.519531 17.007812 25.648438 16.851562 25.648438 " fill-opacity="1" fill-rule="nonzero"/><g clip-path="url(#04cb89aacd)"><path fill="#f9bb32" d="M 16.230469 26.046875 L 14.527344 26.046875 L 14.527344 23.355469 C 14.527344 23.25 14.609375 23.164062 14.714844 23.164062 L 16.039062 23.164062 C 16.144531 23.164062 16.230469 23.25 16.230469 23.355469 L 16.230469 26.046875 " fill-opacity="1" fill-rule="nonzero"/></g><g clip-path="url(#994b19bcbe)"><path fill="#ffd551" d="M 14.082031 22.785156 L 15.734375 21.242188 L 15.429688 20.960938 C 15.386719 20.921875 15.320312 20.921875 15.277344 20.960938 L 13.324219 22.785156 C 13.304688 22.808594 13.289062 22.835938 13.289062 22.867188 L 13.289062 26.128906 L 14.046875 26.128906 L 14.046875 22.867188 C 14.046875 22.835938 14.058594 22.808594 14.082031 22.785156 " fill-opacity="1" fill-rule="nonzero"/></g><path fill="#ff624b" d="M 17.417969 23.496094 L 17.417969 22.910156 L 15.355469 21.140625 L 13.289062 22.910156 L 13.289062 23.496094 L 12.964844 23.496094 C 12.796875 23.496094 12.65625 23.359375 12.65625 23.191406 L 12.65625 22.496094 L 15.148438 20.359375 C 15.207031 20.3125 15.277344 20.285156 15.355469 20.285156 C 15.429688 20.285156 15.503906 20.3125 15.558594 20.359375 L 18.050781 22.496094 L 18.050781 23.191406 C 18.050781 23.359375 17.914062 23.496094 17.742188 23.496094 L 17.417969 23.496094 " fill-opacity="1" fill-rule="nonzero"/><path fill="#ff4b34" d="M 13.035156 23.191406 L 13.035156 22.496094 L 15.527344 20.359375 C 15.535156 20.355469 15.539062 20.351562 15.542969 20.347656 C 15.488281 20.308594 15.421875 20.285156 15.355469 20.285156 C 15.277344 20.285156 15.207031 20.3125 15.148438 20.359375 L 12.65625 22.496094 L 12.65625 23.191406 C 12.65625 23.359375 12.796875 23.496094 12.964844 23.496094 L 13.289062 23.496094 L 13.289062 23.488281 C 13.144531 23.464844 13.035156 23.339844 13.035156 23.191406 " fill-opacity="1" fill-rule="nonzero"/><g clip-path="url(#5c6306d2d0)"><path fill="#db9c2e" d="M 15.472656 23.164062 L 14.714844 23.164062 C 14.609375 23.164062 14.527344 23.25 14.527344 23.355469 L 14.527344 26.046875 L 15.28125 26.046875 L 15.28125 23.355469 C 15.28125 23.25 15.367188 23.164062 15.472656 23.164062 " fill-opacity="1" fill-rule="nonzero"/></g><path fill="#ffc34c" d="M 11.546875 21.148438 L 11.546875 18.550781 C 11.546875 18.441406 11.632812 18.355469 11.738281 18.355469 L 10.980469 18.355469 C 10.875 18.355469 10.789062 18.441406 10.789062 18.550781 L 10.789062 21.148438 C 10.789062 21.253906 10.875 21.339844 10.980469 21.339844 L 11.738281 21.339844 C 11.632812 21.339844 11.546875 21.253906 11.546875 21.148438 " fill-opacity="1" fill-rule="nonzero"/><path fill="#ffc34c" d="M 11.554688 16.773438 L 11.554688 14.171875 C 11.554688 14.066406 11.640625 13.980469 11.746094 13.980469 L 10.988281 13.980469 C 10.882812 13.980469 10.796875 14.066406 10.796875 14.171875 L 10.796875 16.773438 C 10.796875 16.878906 10.882812 16.964844 10.988281 16.964844 L 11.746094 16.964844 C 11.640625 16.964844 11.554688 16.878906 11.554688 16.773438 " fill-opacity="1" fill-rule="nonzero"/><path fill="#ffc34c" d="M 11.542969 12.480469 L 11.542969 9.882812 C 11.542969 9.777344 11.625 9.691406 11.730469 9.691406 L 10.972656 9.691406 C 10.871094 9.691406 10.785156 9.777344 10.785156 9.882812 L 10.785156 12.480469 C 10.785156 12.585938 10.871094 12.671875 10.972656 12.671875 L 11.730469 12.671875 C 11.625 12.671875 11.542969 12.585938 11.542969 12.480469 " fill-opacity="1" fill-rule="nonzero"/><g clip-path="url(#9ab76904b2)"><path fill="#ffc34c" d="M 7.144531 10.863281 L 7.144531 10.117188 C 7.144531 10.011719 7.230469 9.925781 7.335938 9.925781 L 4.683594 9.925781 C 4.582031 9.925781 4.496094 10.011719 4.496094 10.117188 L 4.496094 10.863281 C 4.496094 10.972656 4.582031 11.058594 4.683594 11.058594 L 7.335938 11.058594 C 7.230469 11.058594 7.144531 10.972656 7.144531 10.863281 " fill-opacity="1" fill-rule="nonzero"/></g><path fill="#ffd551" d="M 8.609375 15.28125 L 6.882812 15.28125 C 6.777344 15.28125 6.691406 15.195312 6.691406 15.089844 L 6.691406 12.488281 C 6.691406 12.382812 6.777344 12.296875 6.882812 12.296875 L 8.609375 12.296875 C 8.710938 12.296875 8.796875 12.382812 8.796875 12.488281 L 8.796875 15.089844 C 8.796875 15.195312 8.710938 15.28125 8.609375 15.28125 " fill-opacity="1" fill-rule="nonzero"/><path fill="#ffd551" d="M 8.609375 19.800781 L 6.882812 19.800781 C 6.777344 19.800781 6.691406 19.714844 6.691406 19.609375 L 6.691406 17.011719 C 6.691406 16.90625 6.777344 16.820312 6.882812 16.820312 L 8.609375 16.820312 C 8.710938 16.820312 8.796875 16.90625 8.796875 17.011719 L 8.796875 19.609375 C 8.796875 19.714844 8.710938 19.800781 8.609375 19.800781 " fill-opacity="1" fill-rule="nonzero"/><path fill="#ffd551" d="M 8.609375 24.324219 L 6.882812 24.324219 C 6.777344 24.324219 6.691406 24.238281 6.691406 24.132812 L 6.691406 21.53125 C 6.691406 21.425781 6.777344 21.339844 6.882812 21.339844 L 8.609375 21.339844 C 8.710938 21.339844 8.796875 21.425781 8.796875 21.53125 L 8.796875 24.132812 C 8.796875 24.238281 8.710938 24.324219 8.609375 24.324219 " fill-opacity="1" fill-rule="nonzero"/><path fill="#ffc34c" d="M 8.269531 21.339844 L 6.882812 21.339844 C 6.777344 21.339844 6.691406 21.425781 6.691406 21.53125 L 6.691406 24.132812 C 6.691406 24.238281 6.777344 24.324219 6.882812 24.324219 L 8.269531 24.324219 L 8.269531 21.339844 " fill-opacity="1" fill-rule="nonzero"/><path fill="#ffc34c" d="M 8.269531 16.820312 L 6.882812 16.820312 C 6.777344 16.820312 6.691406 16.90625 6.691406 17.011719 L 6.691406 19.609375 C 6.691406 19.714844 6.777344 19.800781 6.882812 19.800781 L 8.269531 19.800781 L 8.269531 16.820312 " fill-opacity="1" fill-rule="nonzero"/><path fill="#ffc34c" d="M 8.269531 12.296875 L 6.882812 12.296875 C 6.777344 12.296875 6.691406 12.382812 6.691406 12.488281 L 6.691406 15.089844 C 6.691406 15.195312 6.777344 15.28125 6.882812 15.28125 L 8.269531 15.28125 L 8.269531 12.296875 " fill-opacity="1" fill-rule="nonzero"/><path fill="#ffb74b" d="M 7.449219 24.132812 L 7.449219 21.53125 C 7.449219 21.425781 7.535156 21.339844 7.636719 21.339844 L 6.882812 21.339844 C 6.777344 21.339844 6.691406 21.425781 6.691406 21.53125 L 6.691406 24.132812 C 6.691406 24.238281 6.777344 24.324219 6.882812 24.324219 L 7.636719 24.324219 C 7.535156 24.324219 7.449219 24.238281 7.449219 24.132812 " fill-opacity="1" fill-rule="nonzero"/><path fill="#ffb74b" d="M 7.449219 19.609375 L 7.449219 17.011719 C 7.449219 16.90625 7.535156 16.820312 7.636719 16.820312 L 6.882812 16.820312 C 6.777344 16.820312 6.691406 16.90625 6.691406 17.011719 L 6.691406 19.609375 C 6.691406 19.714844 6.777344 19.800781 6.882812 19.800781 L 7.636719 19.800781 C 7.535156 19.800781 7.449219 19.714844 7.449219 19.609375 " fill-opacity="1" fill-rule="nonzero"/><path fill="#ffb74b" d="M 7.449219 15.089844 L 7.449219 12.488281 C 7.449219 12.382812 7.535156 12.296875 7.636719 12.296875 L 6.882812 12.296875 C 6.777344 12.296875 6.691406 12.382812 6.691406 12.488281 L 6.691406 15.089844 C 6.691406 15.195312 6.777344 15.28125 6.882812 15.28125 L 7.636719 15.28125 C 7.535156 15.28125 7.449219 15.195312 7.449219 15.089844 " fill-opacity="1" fill-rule="nonzero"/><path fill="#e58d23" d="M 19.75 24.8125 C 19.75 25.289062 19.367188 25.675781 18.894531 25.675781 C 18.425781 25.675781 18.042969 25.289062 18.042969 24.8125 C 18.042969 24.335938 18.425781 23.949219 18.894531 23.949219 C 19.367188 23.949219 19.75 24.335938 19.75 24.8125 " fill-opacity="1" fill-rule="nonzero"/><path fill="#e58d23" d="M 24.566406 25.648438 C 24.410156 25.648438 24.28125 25.519531 24.28125 25.359375 L 24.28125 19.058594 C 24.28125 18.902344 24.410156 18.769531 24.566406 18.769531 C 24.722656 18.769531 24.851562 18.902344 24.851562 19.058594 L 24.851562 25.359375 C 24.851562 25.519531 24.722656 25.648438 24.566406 25.648438 " fill-opacity="1" fill-rule="nonzero"/></svg>