<svg xmlns="http://www.w3.org/2000/svg" xmlns:xlink="http://www.w3.org/1999/xlink" width="40" zoomAndPan="magnify" viewBox="0 0 30 30.000001" height="40" preserveAspectRatio="xMidYMid meet" version="1.0"><defs><clipPath id="c9fd6f0f84"><path d="M 9 4.757812 L 17 4.757812 L 17 12 L 9 12 Z M 9 4.757812 " clip-rule="nonzero"/></clipPath><clipPath id="ec3366b23f"><path d="M 3.386719 5 L 26.613281 5 L 26.613281 24.351562 L 3.386719 24.351562 Z M 3.386719 5 " clip-rule="nonzero"/></clipPath><clipPath id="f9e30c5401"><path d="M 16 9 L 26.613281 9 L 26.613281 16 L 16 16 Z M 16 9 " clip-rule="nonzero"/></clipPath><clipPath id="881a01ce39"><path d="M 3.386719 18 L 14 18 L 14 24.351562 L 3.386719 24.351562 Z M 3.386719 18 " clip-rule="nonzero"/></clipPath></defs><g clip-path="url(#c9fd6f0f84)"><path fill="#f7c571" d="M 16.644531 8.21875 C 16.644531 8.679688 16.554688 9.121094 16.378906 9.542969 C 16.207031 9.96875 15.957031 10.34375 15.632812 10.667969 C 15.308594 10.992188 14.9375 11.242188 14.515625 11.417969 C 14.089844 11.59375 13.652344 11.683594 13.195312 11.683594 C 12.738281 11.683594 12.296875 11.59375 11.875 11.417969 C 11.453125 11.242188 11.078125 10.992188 10.753906 10.667969 C 10.433594 10.34375 10.183594 9.96875 10.007812 9.542969 C 9.832031 9.121094 9.746094 8.679688 9.746094 8.21875 C 9.746094 7.761719 9.832031 7.320312 10.007812 6.894531 C 10.183594 6.46875 10.433594 6.09375 10.753906 5.769531 C 11.078125 5.445312 11.453125 5.195312 11.875 5.019531 C 12.296875 4.84375 12.738281 4.757812 13.195312 4.757812 C 13.652344 4.757812 14.089844 4.84375 14.515625 5.019531 C 14.9375 5.195312 15.308594 5.445312 15.632812 5.769531 C 15.957031 6.09375 16.207031 6.46875 16.378906 6.894531 C 16.554688 7.320312 16.644531 7.761719 16.644531 8.21875 Z M 16.644531 8.21875 " fill-opacity="1" fill-rule="nonzero"/></g><g clip-path="url(#ec3366b23f)"><path fill="#6eb68e" d="M 3.476562 6.050781 C 3.453125 11.269531 3.433594 16.492188 3.410156 21.710938 L 10.90625 23.660156 L 12.394531 24.335938 L 24.511719 24.335938 C 24.777344 24.335938 25.03125 24.285156 25.273438 24.183594 C 25.519531 24.082031 25.738281 23.9375 25.925781 23.75 C 26.113281 23.5625 26.257812 23.347656 26.359375 23.101562 C 26.460938 22.855469 26.515625 22.601562 26.515625 22.335938 L 26.609375 6.535156 C 25.714844 6.09375 23.976562 5.386719 21.726562 5.476562 C 20.835938 5.511719 17.382812 5.648438 15.511719 7.960938 C 14.921875 8.6875 14.800781 9.25 14.089844 9.527344 C 12.882812 10 11.523438 9.046875 10.558594 8.464844 C 9.058594 7.566406 6.800781 6.542969 3.476562 6.050781 Z M 3.476562 6.050781 " fill-opacity="1" fill-rule="nonzero"/></g><g clip-path="url(#f9e30c5401)"><path fill="#2c7c4c" d="M 16.359375 10.476562 C 16.53125 9.792969 17.132812 9.304688 17.824219 9.28125 C 18.488281 9.261719 19.097656 9.667969 19.339844 10.296875 C 19.523438 10.078125 19.847656 9.773438 20.320312 9.644531 C 21.335938 9.359375 22.621094 9.898438 22.894531 10.789062 C 22.972656 11.054688 22.949219 11.304688 22.910156 11.492188 C 22.957031 11.480469 23.117188 11.449219 23.234375 11.539062 C 23.390625 11.660156 23.421875 11.964844 23.234375 12.226562 C 23.507812 12.148438 24.007812 12.054688 24.539062 12.261719 C 25.152344 12.5 25.765625 13.132812 25.628906 13.519531 C 25.585938 13.640625 25.480469 13.71875 25.386719 13.765625 C 25.480469 13.777344 25.816406 13.835938 26.070312 14.125 C 26.441406 14.554688 26.308594 15.105469 26.296875 15.15625 L 17.707031 15.171875 C 17.53125 15.171875 17.363281 15.136719 17.203125 15.070312 C 17.039062 15.003906 16.898438 14.910156 16.773438 14.785156 C 16.648438 14.660156 16.554688 14.519531 16.484375 14.355469 C 16.417969 14.195312 16.382812 14.027344 16.382812 13.851562 Z M 16.359375 10.476562 " fill-opacity="1" fill-rule="nonzero"/></g><path fill="#f7c571" d="M 7.667969 15.105469 L 22.867188 15.003906 C 23.808594 16.746094 24.75 18.492188 25.691406 20.234375 L 4.933594 20.253906 C 5.84375 18.535156 6.757812 16.820312 7.667969 15.105469 Z M 7.667969 15.105469 " fill-opacity="1" fill-rule="nonzero"/><path fill="#222350" d="M 6.921875 12.847656 C 6.863281 12.816406 6.386719 12.582031 6.316406 12.117188 C 6.265625 11.777344 6.457031 11.503906 6.558594 11.351562 C 6.800781 10.996094 6.984375 11.050781 7.234375 10.726562 C 7.5 10.378906 7.363281 10.230469 7.617188 9.785156 C 7.726562 9.59375 7.960938 9.183594 8.429688 9.003906 C 8.800781 8.863281 9.359375 8.855469 9.746094 9.214844 C 10.058594 9.5 10.101562 9.878906 10.109375 9.960938 C 10.136719 10.261719 10.0625 10.535156 9.882812 10.777344 C 9.9375 10.871094 10.105469 11.179688 10.039062 11.578125 C 9.945312 12.160156 9.441406 12.433594 9.382812 12.464844 " fill-opacity="1" fill-rule="nonzero"/><path fill="#95b84f" d="M 10.75 13.296875 C 10.746094 13.203125 10.769531 13.117188 10.820312 13.039062 C 10.941406 12.847656 11.21875 12.769531 11.511719 12.847656 C 11.613281 13.023438 11.597656 13.238281 11.476562 13.386719 C 11.332031 13.558594 11.0625 13.605469 10.851562 13.472656 " fill-opacity="1" fill-rule="nonzero"/><path fill="#f57578" d="M 8.488281 11.882812 C 8.175781 11.84375 7.871094 11.886719 7.582031 12.011719 C 7.027344 12.25 6.769531 12.707031 6.699219 12.847656 C 6.480469 13.386719 6.390625 13.949219 6.421875 14.53125 C 6.441406 14.851562 6.496094 15.164062 6.59375 15.472656 C 6.25 16.355469 6.246094 17.082031 6.28125 17.503906 C 6.320312 17.953125 6.359375 18.332031 6.644531 18.652344 C 7.117188 19.171875 7.878906 19.117188 8.03125 19.105469 L 7.253906 19.957031 L 8.6875 21.328125 C 9.339844 20.710938 9.933594 20.347656 10.351562 20.128906 C 11 19.792969 11.34375 19.75 11.738281 19.332031 C 11.863281 19.195312 12.472656 18.542969 12.308594 17.871094 C 12.167969 17.3125 11.558594 17 10.941406 16.6875 C 10.703125 16.570312 10.460938 16.472656 10.210938 16.394531 C 9.875 16.28125 9.527344 16.199219 9.175781 16.148438 L 9.625 16.253906 C 9.617188 16.058594 9.613281 15.859375 9.605469 15.664062 C 9.59375 15.5 9.582031 15.339844 9.570312 15.175781 C 9.582031 15.210938 9.667969 15.527344 9.953125 15.628906 C 10.21875 15.722656 10.460938 15.558594 10.542969 15.507812 C 11.0625 15.15625 10.964844 14.316406 10.957031 14.273438 L 10.039062 13.230469 C 10.03125 13.132812 10.011719 13.042969 9.988281 12.949219 C 9.949219 12.820312 9.835938 12.414062 9.449219 12.152344 C 9.273438 12.03125 9.078125 11.960938 8.863281 11.941406 Z M 8.488281 11.882812 " fill-opacity="1" fill-rule="nonzero"/><path fill="#f7c571" d="M 9.917969 13.402344 C 9.945312 13.265625 10.011719 13.15625 10.125 13.074219 C 10.148438 13.058594 10.296875 12.957031 10.472656 12.984375 C 10.570312 13.003906 10.566406 13.042969 10.765625 13.105469 C 10.863281 13.140625 10.898438 13.140625 10.941406 13.175781 C 11.015625 13.238281 11.035156 13.332031 11.042969 13.402344 Z M 9.917969 13.402344 " fill-opacity="1" fill-rule="nonzero"/><path fill="#faa686" d="M 10.402344 13.925781 C 10.308594 13.933594 10.285156 13.933594 10.246094 13.941406 C 10.183594 13.957031 10.125 13.988281 10.074219 14.027344 C 10.214844 14.359375 10.566406 14.511719 10.835938 14.410156 C 11.03125 14.339844 11.171875 14.140625 11.199219 13.90625 C 11.160156 13.90625 10.800781 13.890625 10.59375 13.90625 C 10.542969 13.910156 10.515625 13.914062 10.402344 13.925781 Z M 10.402344 13.925781 " fill-opacity="1" fill-rule="nonzero"/><path fill="#4f6ec1" d="M 14.265625 12.65625 C 14.257812 12.9375 14.253906 13.222656 14.246094 13.507812 C 13.625 13.417969 13.003906 13.359375 12.378906 13.332031 C 11.875 13.3125 11.691406 13.324219 11.527344 13.453125 C 11.125 13.777344 11.074219 14.644531 11.511719 15.160156 C 11.832031 15.53125 12.296875 15.582031 12.429688 15.59375 C 12.886719 16.152344 13.339844 16.335938 13.605469 16.410156 C 14.535156 16.664062 14.878906 16 16.515625 15.765625 C 16.664062 15.746094 16.933594 15.714844 17.136719 15.507812 C 17.410156 15.230469 17.40625 14.816406 17.398438 14.480469 C 17.386719 14.128906 17.316406 13.503906 16.914062 12.777344 Z M 14.265625 12.65625 " fill-opacity="1" fill-rule="nonzero"/><path fill="#222350" d="M 14.800781 9.734375 C 14.710938 9.84375 14.601562 9.925781 14.472656 9.976562 C 14.308594 10.042969 14.140625 10.054688 13.96875 10.011719 C 13.84375 9.933594 13.660156 9.789062 13.589844 9.5625 C 13.542969 9.414062 13.5625 9.300781 13.605469 8.96875 C 13.691406 8.328125 13.652344 8.429688 13.691406 8.238281 C 13.792969 7.753906 13.855469 7.445312 14.109375 7.25 C 14.1875 7.1875 14.414062 7.035156 14.835938 7.074219 C 14.890625 7.046875 14.949219 7.023438 15.007812 7.003906 C 15.425781 6.890625 15.800781 7.15625 15.855469 7.195312 C 16.140625 7.402344 16.257812 7.695312 16.308594 7.824219 C 16.382812 8.015625 16.367188 8.097656 16.480469 8.363281 C 16.539062 8.5 16.59375 8.628906 16.6875 8.761719 C 16.917969 9.082031 17.113281 9.046875 17.347656 9.351562 C 17.417969 9.445312 17.546875 9.613281 17.570312 9.839844 C 17.621094 10.273438 17.257812 10.613281 17.191406 10.671875 Z M 14.800781 9.734375 " fill-opacity="1" fill-rule="nonzero"/><path fill="#f35c63" d="M 14.972656 9.71875 C 14.800781 9.597656 14.410156 9.882812 14.351562 9.925781 C 14.15625 10.070312 14 10.25 13.882812 10.464844 C 13.648438 10.894531 13.65625 11.316406 13.675781 11.523438 L 12.652344 11.714844 C 12.636719 11.945312 12.632812 12.410156 12.878906 12.828125 C 13.003906 13.042969 13.132812 13.140625 13.191406 13.175781 C 13.273438 13.234375 13.464844 13.355469 13.691406 13.316406 C 14.023438 13.257812 14.167969 12.910156 14.175781 12.882812 L 14.265625 12.917969 L 14.265625 13.054688 L 15.824219 13.074219 C 15.882812 13.144531 16.085938 13.367188 16.429688 13.421875 C 16.507812 13.433594 16.902344 13.496094 17.191406 13.210938 C 17.425781 12.980469 17.433594 12.671875 17.433594 12.601562 C 17.511719 12.355469 17.703125 11.640625 17.378906 10.898438 C 17.289062 10.691406 17.148438 10.359375 16.808594 10.132812 C 16.550781 9.960938 16.246094 9.890625 15.789062 9.785156 C 15.644531 9.753906 15.527344 9.730469 15.441406 9.71875 C 15.332031 9.839844 15.203125 9.960938 15.113281 9.925781 C 15.035156 9.894531 15.058594 9.777344 14.972656 9.71875 Z M 14.972656 9.71875 " fill-opacity="1" fill-rule="nonzero"/><path fill="#f35c63" d="M 15.078125 9.769531 C 14.902344 9.648438 14.511719 9.9375 14.453125 9.976562 C 14.257812 10.125 14.105469 10.304688 13.988281 10.515625 C 13.753906 10.945312 13.761719 11.371094 13.78125 11.578125 L 12.757812 11.769531 C 12.742188 11.996094 12.738281 12.460938 12.984375 12.882812 C 13.109375 13.097656 13.238281 13.191406 13.292969 13.230469 C 13.378906 13.285156 13.566406 13.410156 13.796875 13.367188 C 14.128906 13.308594 14.269531 12.960938 14.28125 12.933594 L 14.367188 12.96875 L 14.367188 13.105469 L 15.925781 13.125 C 15.984375 13.195312 16.191406 13.417969 16.53125 13.472656 C 16.613281 13.484375 17.003906 13.546875 17.292969 13.265625 C 17.53125 13.03125 17.535156 12.722656 17.535156 12.65625 C 17.613281 12.410156 17.808594 11.695312 17.484375 10.953125 C 17.394531 10.746094 17.25 10.414062 16.914062 10.1875 C 16.65625 10.015625 16.347656 9.945312 15.890625 9.839844 C 15.75 9.804688 15.628906 9.785156 15.546875 9.769531 C 15.4375 9.894531 15.304688 10.011719 15.214844 9.976562 C 15.140625 9.949219 15.164062 9.828125 15.078125 9.769531 Z M 15.078125 9.769531 " fill-opacity="1" fill-rule="nonzero"/><path stroke-linecap="butt" transform="matrix(0.0173134, 0, 0, 0.0173838, 3.391369, 4.756443)" fill-opacity="1" fill="#ed1e79" fill-rule="nonzero" stroke-linejoin="miter" d="M 374.937685 494.43235 L 473.984925 494.43235 C 473.984925 499.600592 473.533685 516.228848 460.898957 530.385336 C 456.612175 535.553577 451.197291 539.598288 445.105548 542.294762 C 426.604696 550.60889 404.268303 544.991236 390.054234 532.407691 C 383.06001 526.115919 377.870747 518.251203 374.937685 509.487663 Z M 374.937685 494.43235 " stroke="#333333" stroke-width="3" stroke-opacity="1" stroke-miterlimit="10"/><path fill="#f7c571" d="M 12.652344 11.125 C 12.679688 10.988281 12.75 10.878906 12.863281 10.796875 C 12.882812 10.78125 13.03125 10.679688 13.207031 10.707031 C 13.308594 10.726562 13.304688 10.765625 13.503906 10.828125 C 13.597656 10.863281 13.632812 10.863281 13.675781 10.898438 C 13.75 10.960938 13.773438 11.054688 13.78125 11.125 Z M 12.652344 11.125 " fill-opacity="1" fill-rule="nonzero"/><path fill="#95b84f" d="M 13.484375 11.019531 C 13.480469 10.925781 13.503906 10.839844 13.554688 10.761719 C 13.675781 10.570312 13.953125 10.492188 14.246094 10.570312 C 14.347656 10.746094 14.332031 10.960938 14.210938 11.109375 C 14.070312 11.28125 13.800781 11.328125 13.589844 11.195312 " fill-opacity="1" fill-rule="nonzero"/><path stroke-linecap="butt" transform="matrix(0.0173134, 0, 0, 0.0173838, 3.391369, 4.756443)" fill-opacity="1" fill="#ed1e79" fill-rule="nonzero" stroke-linejoin="miter" d="M 637.108285 362.305128 L 527.908138 362.305128 C 525.426317 371.518081 526.103177 380.281621 529.938719 388.820455 C 538.963525 407.920479 561.074298 411.96519 563.10488 412.414602 C 567.166042 413.987545 598.076001 424.773441 626.955378 408.594597 C 638.913246 401.853412 647.938051 392.415754 654.029795 380.281621 Z M 637.108285 362.305128 " stroke="#333333" stroke-width="3" stroke-opacity="1" stroke-miterlimit="10"/><path fill="#222350" d="M 20.109375 11.8125 C 19.976562 11.707031 19.871094 11.578125 19.796875 11.429688 C 19.644531 11.128906 19.742188 10.976562 19.675781 10.4375 C 19.609375 9.914062 19.492188 9.835938 19.5625 9.542969 C 19.582031 9.460938 19.648438 9.203125 19.890625 9.003906 C 20.039062 8.886719 20.207031 8.816406 20.394531 8.796875 C 20.507812 8.738281 20.628906 8.695312 20.757812 8.675781 C 20.871094 8.65625 21.300781 8.597656 21.675781 8.867188 C 22.015625 9.113281 22.113281 9.492188 22.140625 9.597656 C 22.226562 9.921875 22.132812 10.074219 22.28125 10.394531 C 22.332031 10.503906 22.394531 10.644531 22.539062 10.761719 C 22.777344 10.949219 22.933594 10.835938 23.234375 11.003906 C 23.304688 11.046875 23.546875 11.183594 23.664062 11.472656 C 23.707031 11.574219 23.800781 11.851562 23.664062 12.152344 C 23.507812 12.503906 23.160156 12.605469 23.109375 12.621094 Z M 20.109375 11.8125 " fill-opacity="1" fill-rule="nonzero"/><path fill="#222350" d="M 20.324219 15.539062 C 19.835938 15.496094 19.347656 15.421875 18.871094 15.316406 C 18.652344 15.265625 18.445312 15.214844 18.246094 15.160156 C 18.175781 15.148438 17.820312 15.109375 17.519531 15.351562 C 17.234375 15.578125 17.191406 15.902344 17.171875 16.027344 C 17.117188 16.445312 17.300781 16.769531 17.433594 17 C 17.679688 17.433594 18.015625 17.691406 18.246094 17.835938 C 18.238281 17.683594 18.242188 17.40625 18.402344 17.140625 C 18.597656 16.816406 18.910156 16.691406 19.199219 16.585938 C 19.839844 16.34375 20.449219 16.363281 20.878906 16.425781 C 20.539062 16.390625 19.589844 16.328125 18.871094 16.808594 C 18.699219 16.925781 18.457031 17.089844 18.367188 17.402344 C 18.28125 17.6875 18.371094 17.949219 18.417969 18.0625 C 18.457031 18.160156 18.621094 18.5625 19.058594 18.773438 C 19.273438 18.878906 19.5 18.917969 19.734375 18.894531 L 22.003906 18.894531 C 22.300781 18.679688 22.542969 18.414062 22.730469 18.097656 C 23.296875 17.132812 23.054688 16.121094 22.988281 15.871094 Z M 20.324219 15.539062 " fill-opacity="1" fill-rule="nonzero"/><path fill="#ffffff" d="M 20.808594 11.421875 C 20.5625 11.496094 20.320312 11.582031 20.082031 11.683594 C 19.699219 11.84375 19.5 11.925781 19.320312 12.0625 C 18.90625 12.378906 18.777344 12.828125 18.609375 13.402344 C 18.355469 14.277344 18.503906 14.742188 18.539062 14.84375 C 18.652344 15.171875 18.808594 15.253906 18.871094 15.28125 C 19.03125 15.351562 19.1875 15.304688 19.269531 15.28125 C 19.683594 15.160156 19.878906 14.742188 19.925781 14.636719 L 20.132812 14.757812 C 20.105469 15.007812 20.074219 15.257812 20.046875 15.507812 C 20.230469 15.746094 20.457031 15.9375 20.722656 16.078125 C 21.773438 16.640625 22.929688 16.054688 23.078125 15.976562 L 23.179688 15.382812 C 23.300781 15.285156 23.390625 15.160156 23.457031 15.019531 C 23.542969 14.832031 23.570312 14.632812 23.542969 14.429688 C 23.589844 14.054688 23.574219 13.683594 23.492188 13.316406 C 23.414062 12.964844 23.285156 12.398438 22.800781 11.976562 C 22.515625 11.730469 22.226562 11.636719 21.984375 11.558594 C 21.601562 11.4375 21.210938 11.390625 20.808594 11.421875 Z M 20.808594 11.421875 " fill-opacity="1" fill-rule="nonzero"/><path fill="#f7c571" d="M 19.324219 12.164062 C 19.375 12.027344 19.464844 11.929688 19.597656 11.867188 C 19.726562 11.804688 19.863281 11.796875 20 11.84375 C 20.28125 11.945312 20.355469 12.246094 20.359375 12.265625 L 19.300781 12.324219 C 19.308594 12.273438 19.316406 12.21875 19.324219 12.164062 Z M 19.324219 12.164062 " fill-opacity="1" fill-rule="nonzero"/><path fill="#95b84f" d="M 20.0625 12.222656 C 20.132812 12.128906 20.222656 12.0625 20.324219 12.011719 C 20.445312 11.953125 20.550781 11.949219 20.652344 11.941406 C 20.78125 11.933594 20.910156 11.945312 21.035156 11.976562 C 21.011719 12.085938 20.988281 12.199219 20.964844 12.308594 L 20.046875 12.359375 C 20.050781 12.3125 20.058594 12.265625 20.0625 12.222656 Z M 20.0625 12.222656 " fill-opacity="1" fill-rule="nonzero"/><path stroke-linecap="butt" transform="matrix(0.0173134, 0, 0, 0.0173838, 3.391369, 4.756443)" fill-opacity="1" fill="#ed1e79" fill-rule="nonzero" stroke-linejoin="miter" d="M 924.097099 429.49227 L 1026.979882 431.289919 C 1027.205502 433.986393 1028.107983 455.558185 1010.960852 470.388791 C 997.874884 481.624099 982.758335 481.399393 978.922793 481.399393 C 967.190546 482.522924 955.683919 480.500568 945.079772 475.332327 C 936.957447 471.512322 922.968999 464.546431 920.035937 450.389943 C 918.005356 440.952284 922.066518 432.862862 924.097099 429.49227 Z M 924.097099 429.49227 " stroke="#333333" stroke-width="3" stroke-opacity="1" stroke-miterlimit="10"/><path fill="#faa686" d="M 20.324219 9.472656 C 20.21875 9.503906 19.972656 9.59375 19.855469 9.820312 C 19.789062 9.957031 19.789062 10.097656 19.789062 10.324219 C 19.789062 10.488281 19.789062 10.570312 19.820312 10.671875 C 19.894531 10.898438 20.054688 11.03125 20.152344 11.109375 C 20.242188 11.183594 20.3125 11.242188 20.429688 11.265625 C 20.535156 11.285156 20.640625 11.277344 20.746094 11.234375 C 20.84375 11.195312 20.90625 11.136719 20.914062 11.144531 C 20.917969 11.148438 20.886719 11.191406 20.738281 11.335938 L 20.738281 11.542969 C 20.753906 11.605469 20.792969 11.734375 20.894531 11.785156 C 21.050781 11.863281 21.324219 11.742188 21.484375 11.4375 C 21.375 11.21875 21.324219 10.988281 21.328125 10.742188 C 21.390625 10.714844 21.542969 10.628906 21.621094 10.449219 C 21.652344 10.378906 21.730469 10.203125 21.640625 10.066406 C 21.570312 9.960938 21.445312 9.945312 21.433594 9.945312 C 21.308594 9.929688 21.1875 10 21.121094 10.117188 C 21.035156 10.089844 20.957031 10.054688 20.878906 10.011719 C 20.644531 9.882812 20.460938 9.703125 20.324219 9.472656 Z M 20.324219 9.472656 " fill-opacity="1" fill-rule="nonzero"/><path fill="#faa686" d="M 20.53125 12.863281 C 20.652344 12.832031 20.773438 12.828125 20.894531 12.847656 C 21.035156 12.875 21.15625 12.9375 21.257812 13.039062 C 21.359375 13.132812 21.429688 13.25 21.464844 13.386719 L 21.726562 13.75 L 21.3125 14.203125 C 21.183594 14.148438 21.074219 14.066406 20.980469 13.960938 C 20.902344 13.863281 20.902344 13.820312 20.808594 13.734375 C 20.785156 13.710938 20.746094 13.675781 20.550781 13.558594 C 20.460938 13.507812 20.390625 13.464844 20.339844 13.4375 C 20.320312 13.417969 20.316406 13.394531 20.324219 13.367188 C 20.335938 13.335938 20.382812 13.316406 20.429688 13.332031 C 20.273438 13.246094 20.25 13.191406 20.253906 13.160156 C 20.257812 13.136719 20.277344 13.128906 20.304688 13.074219 C 20.316406 13.058594 20.316406 13.050781 20.320312 13.039062 C 20.339844 13 20.363281 12.964844 20.394531 12.933594 C 20.417969 12.910156 20.453125 12.886719 20.53125 12.863281 Z M 20.53125 12.863281 " fill-opacity="1" fill-rule="nonzero"/><path fill="#faa686" d="M 18.628906 13.296875 C 18.707031 13.113281 18.730469 12.921875 18.695312 12.726562 C 18.679688 12.632812 18.652344 12.546875 18.609375 12.464844 C 18.585938 12.402344 18.566406 12.3125 18.59375 12.222656 C 18.625 12.105469 18.695312 12.109375 18.800781 11.960938 C 18.910156 11.800781 18.898438 11.695312 19.007812 11.648438 C 19.046875 11.632812 19.085938 11.625 19.128906 11.628906 C 19.332031 11.644531 19.457031 11.859375 19.476562 11.890625 C 19.488281 11.976562 19.488281 12.0625 19.476562 12.152344 C 19.464844 12.214844 19.433594 12.300781 19.371094 12.464844 L 19.355469 13.332031 Z M 18.628906 13.296875 " fill-opacity="1" fill-rule="nonzero"/><path stroke-linecap="round" transform="matrix(0.0173134, 0, 0, 0.0173838, 3.391369, 4.756443)" fill="none" stroke-linejoin="miter" d="M 975.538491 484.769985 C 981.404614 488.814696 988.173218 492.859407 995.393063 496.904118 C 1000.356706 499.375886 1005.094729 501.847653 1009.607131 503.870009 " stroke="#333333" stroke-width="3" stroke-opacity="1" stroke-miterlimit="10"/><path stroke-linecap="round" transform="matrix(0.0173134, 0, 0, 0.0173838, 3.391369, 4.756443)" fill="none" stroke-linejoin="miter" d="M 978.922793 476.455857 C 986.819497 479.601744 994.490582 483.197042 1001.936047 487.466459 C 1007.80217 490.612345 1013.217054 493.982938 1017.955076 497.35353 " stroke="#333333" stroke-width="3" stroke-opacity="1" stroke-miterlimit="10"/><path stroke-linecap="round" transform="matrix(0.0173134, 0, 0, 0.0173838, 3.391369, 4.756443)" fill="none" stroke-linejoin="miter" d="M 989.978179 469.489966 C 1004.643488 473.309971 1017.729456 480.275862 1029.010463 490.387639 " stroke="#333333" stroke-width="3" stroke-opacity="1" stroke-miterlimit="10"/><path fill="#333333" d="M 18.761719 12.261719 L 19.09375 12.042969 L 19.175781 11.992188 C 19.1875 11.980469 19.199219 11.976562 19.214844 11.976562 L 19.265625 11.980469 L 19.457031 11.984375 C 19.492188 11.988281 19.492188 11.933594 19.457031 11.933594 L 19.257812 11.925781 C 19.226562 11.925781 19.191406 11.917969 19.167969 11.933594 L 19.078125 11.992188 L 18.734375 12.214844 C 18.707031 12.234375 18.734375 12.277344 18.761719 12.261719 Z M 18.761719 12.261719 " fill-opacity="1" fill-rule="nonzero"/><path fill="#333333" d="M 18.910156 12.460938 L 19.15625 12.28125 C 19.195312 12.25 19.234375 12.222656 19.277344 12.191406 C 19.292969 12.179688 19.320312 12.191406 19.335938 12.195312 L 19.414062 12.203125 C 19.449219 12.207031 19.449219 12.15625 19.414062 12.152344 L 19.339844 12.140625 L 19.300781 12.136719 C 19.289062 12.132812 19.277344 12.132812 19.265625 12.136719 C 19.242188 12.148438 19.222656 12.164062 19.203125 12.179688 L 19.136719 12.226562 L 18.882812 12.414062 C 18.855469 12.433594 18.882812 12.480469 18.910156 12.460938 Z M 18.910156 12.460938 " fill-opacity="1" fill-rule="nonzero"/><path fill="#333333" d="M 18.820312 12.109375 L 19.179688 11.804688 L 19.164062 11.8125 L 19.300781 11.820312 C 19.335938 11.824219 19.335938 11.769531 19.300781 11.769531 L 19.222656 11.765625 L 19.1875 11.761719 C 19.175781 11.761719 19.164062 11.761719 19.152344 11.761719 C 19.140625 11.769531 19.128906 11.777344 19.121094 11.789062 L 19.089844 11.8125 L 19.027344 11.863281 L 18.78125 12.070312 C 18.757812 12.09375 18.792969 12.128906 18.820312 12.109375 Z M 18.820312 12.109375 " fill-opacity="1" fill-rule="nonzero"/><path fill="#333333" d="M 19.046875 12.652344 L 19.394531 12.390625 C 19.40625 12.382812 19.410156 12.371094 19.402344 12.355469 C 19.394531 12.339844 19.382812 12.335938 19.367188 12.347656 L 19.019531 12.605469 C 19.007812 12.617188 19.003906 12.628906 19.011719 12.640625 C 19.019531 12.65625 19.03125 12.660156 19.046875 12.652344 Z M 19.046875 12.652344 " fill-opacity="1" fill-rule="nonzero"/><path stroke-linecap="round" transform="matrix(0.0173134, 0, 0, 0.0173838, 3.391369, 4.756443)" fill="none" stroke-linejoin="miter" d="M 943.500431 482.972336 C 941.92109 495.555881 941.24423 508.139426 941.46985 520.947677 C 941.92109 537.351227 943.951671 542.968881 944.402912 544.991236 C 949.592175 558.923018 959.970701 567.461852 966.513685 571.955975 " stroke="#333333" stroke-width="3" stroke-opacity="1" stroke-miterlimit="10"/><path stroke-linecap="round" transform="matrix(0.0173134, 0, 0, 0.0173838, 3.391369, 4.756443)" fill="none" stroke-linejoin="miter" d="M 1092.635342 462.524075 L 1092.635342 539.822994 " stroke="#333333" stroke-width="3" stroke-opacity="1" stroke-miterlimit="10"/><path stroke-linecap="round" transform="matrix(0.0173134, 0, 0, 0.0173838, 3.391369, 4.756443)" fill="none" stroke-linejoin="miter" d="M 1064.884065 521.621795 C 1069.622088 522.745326 1073.90887 525.891212 1077.518793 529.261805 C 1089.25104 539.148876 1099.629566 550.384184 1108.428752 562.967729 " stroke="#333333" stroke-width="3" stroke-opacity="1" stroke-miterlimit="10"/><path stroke-linecap="round" transform="matrix(0.0173134, 0, 0, 0.0173838, 3.391369, 4.756443)" fill="none" stroke-linejoin="miter" d="M 1037.809649 556.45125 C 1042.547671 567.686558 1047.511314 578.921866 1054.731159 588.808937 C 1070.975809 610.830141 1092.635342 622.065449 1119.935379 622.290155 C 1127.380843 622.290155 1135.503168 621.166624 1140.918051 615.998382 " stroke="#333333" stroke-width="3" stroke-opacity="1" stroke-miterlimit="10"/><path stroke-linecap="round" transform="matrix(0.0173134, 0, 0, 0.0173838, 3.391369, 4.756443)" fill="none" stroke-linejoin="miter" d="M 930.414463 439.379341 L 1025.174921 440.952284 " stroke="#333333" stroke-width="3" stroke-opacity="1" stroke-miterlimit="10"/><path stroke-linecap="round" transform="matrix(0.0173134, 0, 0, 0.0173838, 3.391369, 4.756443)" fill="none" stroke-linejoin="miter" d="M 735.704285 412.639308 C 747.210912 418.032256 756.686957 425.896971 763.906802 436.682867 " stroke="#333333" stroke-width="3" stroke-opacity="1" stroke-miterlimit="10"/><path stroke-linecap="round" transform="matrix(0.0173134, 0, 0, 0.0173838, 3.391369, 4.756443)" fill="none" stroke-linejoin="miter" d="M 617.028092 415.335782 C 615.223131 427.469915 615.674372 439.379341 618.156193 451.288767 C 618.833053 454.434654 619.735534 457.131128 621.314875 459.827602 C 623.119836 462.524075 625.601658 464.546431 628.534719 464.546431 " stroke="#333333" stroke-width="3" stroke-opacity="1" stroke-miterlimit="10"/><path stroke-linecap="round" transform="matrix(0.0173134, 0, 0, 0.0173838, 3.391369, 4.756443)" fill="none" stroke-linejoin="miter" d="M 581.380111 421.852261 C 586.794994 430.166388 594.014838 437.132279 602.588404 442.300521 " stroke="#333333" stroke-width="3" stroke-opacity="1" stroke-miterlimit="10"/><path stroke-linecap="round" transform="matrix(0.0173134, 0, 0, 0.0173838, 3.391369, 4.756443)" fill="none" stroke-linejoin="miter" d="M 540.542866 607.684255 C 553.854454 591.954823 571.452825 579.820691 589.953676 570.607738 C 608.228907 561.170079 628.083479 554.204189 647.486811 547.463004 C 664.859561 541.620644 682.232312 535.553577 700.281923 532.407691 C 718.331534 529.486511 737.283626 529.711217 754.430756 536.227696 " stroke="#333333" stroke-width="4" stroke-opacity="1" stroke-miterlimit="10"/><path stroke-linecap="round" transform="matrix(0.0173134, 0, 0, 0.0173838, 3.391369, 4.756443)" fill="none" stroke-linejoin="miter" d="M 635.077703 548.586535 C 621.991735 539.373582 606.423946 535.328871 591.081777 531.508866 L 528.133758 515.330023 " stroke="#333333" stroke-width="4" stroke-opacity="1" stroke-miterlimit="10"/><path fill="#faa686" d="M 14.523438 7.890625 C 14.398438 8.113281 14.222656 8.285156 14.003906 8.414062 C 13.980469 8.488281 13.902344 8.757812 14.023438 9.058594 C 14.097656 9.242188 14.21875 9.386719 14.386719 9.492188 C 14.523438 9.582031 14.671875 9.632812 14.835938 9.648438 L 14.714844 9.769531 C 14.714844 9.789062 14.710938 9.976562 14.851562 10.082031 C 14.996094 10.1875 15.175781 10.121094 15.234375 10.101562 C 15.421875 10.03125 15.507812 9.867188 15.527344 9.820312 L 15.457031 9.734375 L 15.457031 9.023438 C 15.507812 9 15.554688 8.96875 15.597656 8.933594 C 15.675781 8.875 15.808594 8.765625 15.824219 8.605469 C 15.824219 8.59375 15.832031 8.417969 15.71875 8.34375 C 15.621094 8.28125 15.488281 8.335938 15.425781 8.363281 C 15.378906 8.378906 15.339844 8.402344 15.304688 8.429688 C 14.960938 8.371094 14.703125 8.191406 14.523438 7.890625 Z M 14.523438 7.890625 " fill-opacity="1" fill-rule="nonzero"/><path fill="#faa686" d="M 15.597656 11.664062 L 15.148438 12.117188 L 14.886719 11.871094 C 14.777344 11.90625 14.457031 11.996094 14.175781 11.839844 C 14.101562 11.796875 13.945312 11.707031 13.933594 11.558594 C 13.933594 11.511719 13.945312 11.464844 13.96875 11.421875 L 14.59375 11.351562 C 14.5 11.269531 14.417969 11.179688 14.351562 11.074219 C 14.335938 11.050781 14.328125 11.03125 14.332031 11.019531 C 14.363281 10.96875 14.660156 11.066406 14.835938 11.144531 C 14.929688 11.183594 15.023438 11.230469 15.113281 11.28125 " fill-opacity="1" fill-rule="nonzero"/><path fill="#faa686" d="M 12.550781 11.421875 L 13.140625 11.890625 C 13.34375 11.851562 13.40625 11.867188 13.414062 11.890625 C 13.441406 11.957031 13.15625 12.242188 12.863281 12.167969 C 12.65625 12.117188 12.566406 11.925781 12.550781 11.890625 C 12.445312 11.667969 12.535156 11.453125 12.550781 11.421875 Z M 12.550781 11.421875 " fill-opacity="1" fill-rule="nonzero"/><path stroke-linecap="round" transform="matrix(0.0173134, 0, 0, 0.0173838, 3.391369, 4.756443)" fill="none" stroke-linejoin="miter" d="M 526.780037 373.989849 L 627.857859 373.989849 " stroke="#333333" stroke-width="3" stroke-opacity="1" stroke-miterlimit="10"/><path stroke-linecap="round" transform="matrix(0.0173134, 0, 0, 0.0173838, 3.391369, 4.756443)" fill="none" stroke-linejoin="miter" d="M 397.725319 504.99354 L 471.954344 504.99354 " stroke="#333333" stroke-width="3" stroke-opacity="1" stroke-miterlimit="10"/><path stroke-linecap="round" transform="matrix(0.0173134, 0, 0, 0.0173838, 3.391369, 4.756443)" fill="none" stroke-linejoin="miter" d="M 610.485108 393.539284 C 621.314875 391.966341 632.144642 389.494574 642.748788 386.348687 " stroke="#333333" stroke-width="3" stroke-opacity="1" stroke-miterlimit="10"/><path stroke-linecap="round" transform="matrix(0.0173134, 0, 0, 0.0173838, 3.391369, 4.756443)" fill="none" stroke-linejoin="miter" d="M 616.351232 402.527531 C 627.632239 402.078119 638.462005 399.381645 648.614912 394.662815 " stroke="#333333" stroke-width="3" stroke-opacity="1" stroke-miterlimit="10"/><path stroke-linecap="round" transform="matrix(0.0173134, 0, 0, 0.0173838, 3.391369, 4.756443)" fill="none" stroke-linejoin="miter" d="M 631.016541 410.392246 C 639.138866 409.268716 647.035571 406.796948 654.481035 403.201649 " stroke="#333333" stroke-width="3" stroke-opacity="1" stroke-miterlimit="10"/><path fill="#222350" d="M 15.511719 9.300781 C 15.480469 9.472656 15.464844 9.648438 15.457031 9.820312 C 15.449219 10.234375 15.511719 10.503906 15.546875 10.761719 C 15.582031 11.039062 15.605469 11.441406 15.527344 11.960938 C 15.675781 11.953125 15.910156 11.914062 16.117188 11.75 C 16.488281 11.457031 16.613281 10.871094 16.410156 10.292969 C 16.484375 10.363281 16.539062 10.445312 16.585938 10.535156 C 16.722656 10.820312 16.660156 11.097656 16.636719 11.195312 C 16.671875 11.140625 17.058594 10.511719 16.773438 9.960938 C 16.710938 9.839844 16.625 9.734375 16.515625 9.648438 Z M 15.511719 9.300781 " fill-opacity="1" fill-rule="nonzero"/><path stroke-linecap="round" transform="matrix(0.0173134, 0, 0, 0.0173838, 3.391369, 4.756443)" fill="none" stroke-linejoin="miter" d="M 684.488513 426.121678 L 701.410024 455.108772 C 706.599287 464.097019 712.01417 473.309971 719.459635 480.725274 C 737.058005 498.477061 766.163003 504.094715 789.176257 493.758232 " stroke="#333333" stroke-width="3" stroke-opacity="1" stroke-miterlimit="10"/><path fill="#faa686" d="M 9.539062 9.734375 C 9.367188 10.128906 9.074219 10.363281 8.65625 10.449219 C 8.601562 10.378906 8.535156 10.335938 8.445312 10.324219 C 8.4375 10.324219 8.300781 10.3125 8.203125 10.414062 C 8.121094 10.5 8.128906 10.617188 8.136719 10.707031 C 8.136719 10.722656 8.160156 11.023438 8.308594 11.054688 C 8.34375 11.0625 8.378906 11.058594 8.414062 11.039062 C 8.402344 11.101562 8.386719 11.199219 8.378906 11.316406 C 8.367188 11.4375 8.371094 11.476562 8.359375 11.542969 C 8.34375 11.667969 8.300781 11.78125 8.238281 11.890625 C 8.25 12.074219 8.371094 12.226562 8.535156 12.273438 C 8.730469 12.328125 8.957031 12.210938 9.035156 11.996094 C 9.023438 11.890625 9.011719 11.785156 9 11.683594 C 9.125 11.699219 9.246094 11.691406 9.363281 11.664062 C 9.460938 11.640625 9.617188 11.605469 9.746094 11.472656 C 9.769531 11.445312 9.839844 11.375 9.902344 11.195312 C 9.941406 11.078125 10.03125 10.816406 9.96875 10.480469 C 9.890625 10.0625 9.625 9.808594 9.539062 9.734375 Z M 9.539062 9.734375 " fill-opacity="1" fill-rule="nonzero"/><path fill="#faa686" d="M 8.792969 14.148438 L 9.035156 14.515625 C 9.058594 14.507812 9.09375 14.496094 9.140625 14.480469 C 9.328125 14.417969 9.421875 14.394531 9.484375 14.375 C 9.695312 14.3125 9.710938 14.230469 10.023438 14.0625 C 10.117188 14.011719 10.214844 13.964844 10.316406 13.925781 C 10.3125 13.886719 10.308594 13.832031 10.300781 13.769531 C 10.28125 13.648438 10.273438 13.625 10.265625 13.613281 C 10.257812 13.597656 10.210938 13.511719 10.125 13.488281 C 10.078125 13.476562 10.050781 13.496094 9.988281 13.472656 C 9.964844 13.464844 9.941406 13.453125 9.917969 13.4375 C 9.804688 13.371094 9.613281 13.46875 9.570312 13.488281 C 9.488281 13.53125 9.429688 13.589844 9.3125 13.699219 C 9.167969 13.835938 9.144531 13.882812 9.035156 13.976562 C 8.960938 14.042969 8.878906 14.101562 8.792969 14.148438 Z M 8.792969 14.148438 " fill-opacity="1" fill-rule="nonzero"/><path stroke-linecap="round" transform="matrix(0.0173134, 0, 0, 0.0173838, 3.391369, 4.756443)" fill="none" stroke-linejoin="miter" d="M 397.725319 523.194739 C 383.73687 523.644151 371.553383 528.36298 360.723616 537.351227 " stroke="#333333" stroke-width="3" stroke-opacity="1" stroke-miterlimit="10"/><path stroke-linecap="round" transform="matrix(0.0173134, 0, 0, 0.0173838, 3.391369, 4.756443)" fill="none" stroke-linejoin="miter" d="M 395.243497 513.75708 C 381.706289 512.858255 370.199662 517.577085 360.949236 527.688862 " stroke="#333333" stroke-width="3" stroke-opacity="1" stroke-miterlimit="10"/><path stroke-linecap="round" transform="matrix(0.0173134, 0, 0, 0.0173838, 3.391369, 4.756443)" fill="none" stroke-linejoin="miter" d="M 382.157529 502.971184 C 372.681484 503.420596 364.559159 506.791189 358.016175 513.532374 " stroke="#333333" stroke-width="3" stroke-opacity="1" stroke-miterlimit="10"/><path stroke-linecap="round" transform="matrix(0.0173134, 0, 0, 0.0173838, 3.391369, 4.756443)" fill="none" stroke-linejoin="miter" d="M 392.761676 551.283008 C 387.121172 557.799487 382.83439 565.21479 379.675708 573.304212 " stroke="#333333" stroke-width="3" stroke-opacity="1" stroke-miterlimit="10"/><path stroke-linecap="round" transform="matrix(0.0173134, 0, 0, 0.0173838, 3.391369, 4.756443)" fill="none" stroke-linejoin="miter" d="M 237.309401 480.275862 L 238.888742 570.832444 L 303.190481 542.294762 " stroke="#333333" stroke-width="3" stroke-opacity="1" stroke-miterlimit="10"/><path stroke-linecap="round" transform="matrix(0.0173134, 0, 0, 0.0173838, 3.391369, 4.756443)" fill="none" stroke-linejoin="miter" d="M 352.375671 461.175839 L 352.601291 504.094715 " stroke="#333333" stroke-width="3" stroke-opacity="1" stroke-miterlimit="10"/><path stroke-linecap="round" transform="matrix(0.0173134, 0, 0, 0.0173838, 3.391369, 4.756443)" fill="none" stroke-linejoin="miter" d="M 298.452458 695.319657 C 320.111992 698.690249 342.222765 702.959666 361.851717 712.622031 C 381.706289 722.284396 399.30466 738.238533 406.750124 758.9115 " stroke="#333333" stroke-width="3" stroke-opacity="1" stroke-miterlimit="10"/><path stroke-linecap="round" transform="matrix(0.0173134, 0, 0, 0.0173838, 3.391369, 4.756443)" fill="none" stroke-linejoin="miter" d="M 334.55168 764.529154 C 315.148349 779.809173 296.873117 796.212722 279.500367 813.964509 C 268.21936 825.199817 258.066454 836.435125 249.041648 847.445727 " stroke="#333333" stroke-width="3" stroke-opacity="1" stroke-miterlimit="10"/><path stroke-linecap="round" transform="matrix(0.0173134, 0, 0, 0.0173838, 3.391369, 4.756443)" fill="none" stroke-linejoin="miter" d="M 191.734133 624.087804 C 198.277117 632.851344 209.106884 638.019586 219.936651 639.143117 C 230.992037 640.491354 242.047424 638.244292 252.20033 634.199581 C 262.578857 630.15487 272.054902 624.537216 281.305328 618.694856 C 291.683854 612.178378 301.83676 605.437193 310.635946 597.123065 C 315.148349 593.078354 318.983891 588.584231 322.593813 583.865402 C 325.978115 579.146572 329.588037 575.77598 328.008696 569.259501 C 327.331836 565.888909 325.301255 562.967729 323.270673 560.271255 L 310.861566 543.642999 " stroke="#333333" stroke-width="3" stroke-opacity="1" stroke-miterlimit="10"/><path stroke-linecap="round" transform="matrix(0.0173134, 0, 0, 0.0173838, 3.391369, 4.756443)" fill="none" stroke-linejoin="miter" d="M 396.371598 547.912416 L 390.054234 554.204189 " stroke="#333333" stroke-width="3" stroke-opacity="1" stroke-miterlimit="10"/><path stroke-linecap="round" transform="matrix(0.0173134, 0, 0, 0.0173838, 3.391369, 4.756443)" fill="none" stroke-linejoin="miter" d="M 387.798033 536.452402 C 392.310436 544.991236 399.30466 550.833596 408.329465 553.979482 C 417.579891 557.125369 426.604696 556.900662 435.629502 552.855952 " stroke="#333333" stroke-width="3" stroke-opacity="1" stroke-miterlimit="10"/><path stroke-linecap="round" transform="matrix(0.0173134, 0, 0, 0.0173838, 3.391369, 4.756443)" fill="none" stroke-linejoin="miter" d="M 375.614545 495.106469 L 473.308065 495.106469 " stroke="#333333" stroke-width="3" stroke-opacity="1" stroke-miterlimit="10"/><path fill="#fe5c5a" d="M 20.792969 18.773438 L 24.207031 18.773438 C 24.375 18.773438 24.519531 18.832031 24.636719 18.953125 C 24.757812 19.070312 24.816406 19.214844 24.816406 19.386719 L 24.816406 21.445312 C 24.816406 21.617188 24.757812 21.761719 24.636719 21.878906 C 24.519531 22 24.375 22.058594 24.207031 22.058594 L 20.792969 22.058594 C 20.625 22.058594 20.480469 22 20.359375 21.878906 C 20.242188 21.761719 20.179688 21.617188 20.179688 21.445312 L 20.179688 19.386719 C 20.179688 19.214844 20.242188 19.070312 20.359375 18.953125 C 20.480469 18.832031 20.625 18.773438 20.792969 18.773438 Z M 20.792969 18.773438 " fill-opacity="1" fill-rule="nonzero"/><path fill="#fe5c5a" d="M 23.335938 19.734375 L 21.660156 19.734375 C 21.546875 19.734375 21.453125 19.691406 21.375 19.613281 C 21.292969 19.535156 21.253906 19.4375 21.253906 19.324219 L 21.253906 18.363281 C 21.253906 18.253906 21.292969 18.15625 21.375 18.078125 C 21.453125 17.996094 21.546875 17.957031 21.660156 17.957031 L 23.335938 17.957031 C 23.449219 17.957031 23.542969 17.996094 23.625 18.078125 C 23.703125 18.15625 23.742188 18.253906 23.742188 18.363281 L 23.742188 19.324219 C 23.742188 19.4375 23.703125 19.535156 23.625 19.613281 C 23.542969 19.691406 23.449219 19.734375 23.335938 19.734375 Z M 21.660156 18.140625 C 21.511719 18.140625 21.4375 18.214844 21.4375 18.367188 L 21.4375 19.324219 C 21.4375 19.472656 21.511719 19.546875 21.660156 19.550781 L 23.335938 19.550781 C 23.484375 19.546875 23.558594 19.472656 23.558594 19.324219 L 23.558594 18.363281 C 23.558594 18.214844 23.484375 18.140625 23.335938 18.140625 Z M 21.660156 18.140625 " fill-opacity="1" fill-rule="nonzero"/><path stroke-linecap="round" transform="matrix(0.0173134, 0, 0, 0.0173838, 3.391369, 4.756443)" fill="none" stroke-linejoin="miter" d="M 989.301319 852.389262 L 1218.982619 853.962205 " stroke="#333333" stroke-width="3" stroke-opacity="1" stroke-miterlimit="10"/><path stroke-linecap="round" transform="matrix(0.0173134, 0, 0, 0.0173838, 3.391369, 4.756443)" fill="none" stroke-linejoin="miter" d="M 988.398838 896.43167 L 1218.080138 897.779906 " stroke="#333333" stroke-width="3" stroke-opacity="1" stroke-miterlimit="10"/><path stroke-linecap="round" transform="matrix(0.0173134, 0, 0, 0.0173838, 3.391369, 4.756443)" fill="none" stroke-linejoin="miter" d="M 987.270738 948.563499 L 1216.952038 949.911735 " stroke="#333333" stroke-width="3" stroke-opacity="1" stroke-miterlimit="10"/><g clip-path="url(#881a01ce39)"><path fill="#2c7c4c" d="M 3.390625 19.367188 C 3.574219 18.640625 4.214844 18.121094 4.949219 18.097656 C 5.652344 18.074219 6.300781 18.507812 6.558594 19.175781 C 6.753906 18.941406 7.097656 18.617188 7.597656 18.480469 C 8.683594 18.179688 10.046875 18.75 10.335938 19.695312 C 10.421875 19.980469 10.394531 20.246094 10.351562 20.441406 C 10.398438 20.433594 10.574219 20.398438 10.699219 20.496094 C 10.863281 20.625 10.894531 20.945312 10.699219 21.226562 C 10.984375 21.140625 11.519531 21.039062 12.082031 21.261719 C 12.738281 21.515625 13.386719 22.1875 13.242188 22.597656 C 13.199219 22.726562 13.085938 22.808594 12.984375 22.859375 C 13.085938 22.875 13.441406 22.933594 13.710938 23.242188 C 14.109375 23.695312 13.964844 24.285156 13.953125 24.335938 L 4.824219 24.351562 C 4.636719 24.351562 4.460938 24.316406 4.289062 24.246094 C 4.117188 24.175781 3.964844 24.074219 3.832031 23.941406 C 3.699219 23.8125 3.597656 23.660156 3.527344 23.488281 C 3.453125 23.316406 3.417969 23.136719 3.417969 22.949219 Z M 3.390625 19.367188 " fill-opacity="1" fill-rule="nonzero"/></g><path stroke-linecap="round" transform="matrix(0.0173134, 0, 0, 0.0173838, 3.391369, 4.756443)" fill="none" stroke-linejoin="miter" d="M 951.848376 307.476825 C 957.263259 302.982702 963.355003 302.308584 969.672367 305.229764 " stroke="#333333" stroke-width="3" stroke-opacity="1" stroke-miterlimit="10"/><path stroke-linecap="round" transform="matrix(0.0173134, 0, 0, 0.0173838, 3.391369, 4.756443)" fill="none" stroke-linejoin="miter" d="M 993.362481 305.229764 C 998.777365 303.207408 1004.192248 303.207408 1009.832751 305.005058 " stroke="#333333" stroke-width="3" stroke-opacity="1" stroke-miterlimit="10"/><path stroke-linecap="round" transform="matrix(0.0173134, 0, 0, 0.0173838, 3.391369, 4.756443)" fill="none" stroke-linejoin="miter" d="M 978.471552 326.127437 C 976.666591 328.599204 975.08725 331.070972 973.95915 333.767446 C 973.282289 335.340389 973.056669 336.688626 973.507909 338.261569 C 974.18477 340.283925 975.538491 341.407455 977.569072 341.856868 C 979.374033 342.30628 981.404614 342.30628 983.209575 342.081574 " stroke="#333333" stroke-width="3" stroke-opacity="1" stroke-miterlimit="10"/><path fill="#333333" d="M 20.125 10.386719 C 20.125 10.433594 20.105469 10.457031 20.0625 10.457031 C 20.023438 10.457031 20.003906 10.433594 20.003906 10.386719 C 20.003906 10.339844 20.023438 10.316406 20.0625 10.316406 C 20.105469 10.316406 20.125 10.339844 20.125 10.386719 Z M 20.125 10.386719 " fill-opacity="1" fill-rule="nonzero"/><path fill="#333333" d="M 20.808594 10.378906 C 20.808594 10.425781 20.789062 10.449219 20.746094 10.449219 C 20.707031 10.449219 20.6875 10.425781 20.6875 10.378906 C 20.6875 10.332031 20.707031 10.308594 20.746094 10.308594 C 20.789062 10.308594 20.808594 10.332031 20.808594 10.378906 Z M 20.808594 10.378906 " fill-opacity="1" fill-rule="nonzero"/><path fill="#ffffff" d="M 20.304688 10.820312 C 20.410156 10.847656 20.515625 10.847656 20.621094 10.820312 C 20.683594 10.804688 20.742188 10.777344 20.796875 10.742188 C 20.792969 10.769531 20.773438 10.898438 20.660156 10.980469 C 20.636719 10.996094 20.511719 11.082031 20.40625 11.019531 C 20.304688 10.960938 20.304688 10.828125 20.304688 10.820312 Z M 20.304688 10.820312 " fill-opacity="1" fill-rule="nonzero"/><path stroke-linecap="round" transform="matrix(0.0173134, 0, 0, 0.0173838, 3.391369, 4.756443)" fill="none" stroke-linejoin="miter" d="M 618.833053 222.313191 C 624.247937 218.043774 630.33968 217.369655 636.657044 220.066129 " stroke="#333333" stroke-width="3" stroke-opacity="1" stroke-miterlimit="10"/><path stroke-linecap="round" transform="matrix(0.0173134, 0, 0, 0.0173838, 3.391369, 4.756443)" fill="none" stroke-linejoin="miter" d="M 660.347159 219.167305 C 665.762042 217.369655 671.402545 217.369655 676.817429 219.167305 " stroke="#333333" stroke-width="3" stroke-opacity="1" stroke-miterlimit="10"/><path stroke-linecap="round" transform="matrix(0.0173134, 0, 0, 0.0173838, 3.391369, 4.756443)" fill="none" stroke-linejoin="miter" d="M 645.90747 233.099087 C 644.102509 235.346148 642.748788 237.59321 641.620687 240.064978 C 640.943827 241.188508 640.943827 242.536745 641.169447 244.109688 C 641.846307 245.682632 643.200028 246.806162 645.004989 247.255575 C 646.80995 247.480281 648.389291 247.480281 650.194253 247.255575 " stroke="#333333" stroke-width="3" stroke-opacity="1" stroke-miterlimit="10"/><path fill="#333333" d="M 14.359375 8.769531 C 14.359375 8.816406 14.339844 8.839844 14.296875 8.839844 C 14.257812 8.839844 14.238281 8.816406 14.238281 8.769531 C 14.238281 8.722656 14.257812 8.699219 14.296875 8.699219 C 14.339844 8.699219 14.359375 8.722656 14.359375 8.769531 Z M 14.359375 8.769531 " fill-opacity="1" fill-rule="nonzero"/><path fill="#333333" d="M 15.042969 8.761719 C 15.042969 8.808594 15.023438 8.832031 14.984375 8.832031 C 14.941406 8.832031 14.921875 8.808594 14.921875 8.761719 C 14.921875 8.714844 14.941406 8.691406 14.984375 8.691406 C 15.023438 8.691406 15.042969 8.714844 15.042969 8.761719 Z M 15.042969 8.761719 " fill-opacity="1" fill-rule="nonzero"/><path fill="#ffffff" d="M 14.457031 9.171875 C 14.570312 9.207031 14.6875 9.207031 14.804688 9.179688 C 14.871094 9.164062 14.9375 9.136719 15 9.097656 C 14.996094 9.125 14.972656 9.273438 14.84375 9.359375 C 14.816406 9.375 14.675781 9.46875 14.558594 9.394531 C 14.453125 9.328125 14.457031 9.179688 14.457031 9.171875 Z M 14.457031 9.171875 " fill-opacity="1" fill-rule="nonzero"/><path stroke-linecap="round" transform="matrix(0.0173134, 0, 0, 0.0173838, 3.391369, 4.756443)" fill="none" stroke-linejoin="miter" d="M 375.840166 324.7792 C 370.876522 321.85802 365.912879 321.633313 360.949236 324.329787 " stroke="#333333" stroke-width="3" stroke-opacity="1" stroke-miterlimit="10"/><path stroke-linecap="round" transform="matrix(0.0173134, 0, 0, 0.0173838, 3.391369, 4.756443)" fill="none" stroke-linejoin="miter" d="M 341.997145 327.026261 C 335.454161 325.453318 329.588037 326.576849 324.173154 330.62156 " stroke="#333333" stroke-width="3" stroke-opacity="1" stroke-miterlimit="10"/><path stroke-linecap="round" transform="matrix(0.0173134, 0, 0, 0.0173838, 3.391369, 4.756443)" fill="none" stroke-linejoin="miter" d="M 356.436834 345.22746 L 358.241795 349.496877 C 359.144275 351.519233 360.046756 353.991 359.144275 356.013356 C 358.241795 357.586299 357.113694 358.485124 355.308733 358.934536 C 353.729392 359.383948 352.150051 359.383948 350.57071 359.383948 " stroke="#333333" stroke-width="3" stroke-opacity="1" stroke-miterlimit="10"/><path fill="#333333" d="M 9.296875 10.640625 C 9.296875 10.683594 9.277344 10.707031 9.242188 10.707031 C 9.207031 10.707031 9.191406 10.683594 9.191406 10.640625 C 9.191406 10.59375 9.207031 10.570312 9.242188 10.570312 C 9.277344 10.570312 9.296875 10.59375 9.296875 10.640625 Z M 9.296875 10.640625 " fill-opacity="1" fill-rule="nonzero"/><path fill="#333333" d="M 9.816406 10.578125 C 9.816406 10.617188 9.800781 10.640625 9.769531 10.640625 C 9.742188 10.640625 9.726562 10.617188 9.726562 10.578125 C 9.726562 10.539062 9.742188 10.515625 9.769531 10.515625 C 9.800781 10.515625 9.816406 10.539062 9.816406 10.578125 Z M 9.816406 10.578125 " fill-opacity="1" fill-rule="nonzero"/><path fill="#ffffff" d="M 9.226562 11.144531 C 9.394531 11.195312 9.5625 11.191406 9.726562 11.125 C 9.722656 11.195312 9.691406 11.253906 9.640625 11.300781 C 9.636719 11.304688 9.519531 11.40625 9.382812 11.351562 C 9.289062 11.3125 9.234375 11.246094 9.226562 11.144531 Z M 9.226562 11.144531 " fill-opacity="1" fill-rule="nonzero"/><path stroke-linecap="butt" transform="matrix(0.0173134, 0, 0, 0.0173838, 3.391369, 4.756443)" fill-opacity="1" fill="#ffffff" fill-rule="nonzero" stroke-linejoin="miter" d="M 790.981218 703.633785 C 790.981218 707.903202 787.371296 711.947913 780.151452 715.767917 C 772.705987 719.812628 762.327461 723.183221 749.015873 726.104401 C 735.478664 729.025581 720.136495 731.272642 702.538124 733.070292 C 684.939754 734.643235 666.664523 735.317353 647.486811 735.317353 C 628.534719 735.317353 610.259488 734.643235 592.661118 733.070292 C 575.062747 731.272642 559.494957 729.025581 546.183369 726.104401 C 532.646161 723.183221 522.267635 719.812628 515.04779 715.767917 C 507.827946 711.947913 504.218024 707.903202 504.218024 703.633785 C 504.218024 699.589074 507.827946 695.544363 515.04779 691.724358 C 522.267635 687.679647 532.646161 684.309055 546.183369 681.387875 C 559.494957 678.466695 575.062747 675.994927 592.661118 674.421984 C 610.259488 672.849041 628.534719 672.174922 647.486811 672.174922 C 666.664523 672.174922 684.939754 672.849041 702.538124 674.421984 C 720.136495 675.994927 735.478664 678.466695 749.015873 681.387875 C 762.327461 684.309055 772.705987 687.679647 780.151452 691.724358 C 787.371296 695.544363 790.981218 699.589074 790.981218 703.633785 Z M 790.981218 703.633785 " stroke="#ffffff" stroke-width="4" stroke-opacity="1" stroke-miterlimit="10"/><path fill="#95b84f" d="M 14.53125 16.730469 L 15.390625 15.449219 C 15.414062 15.410156 15.449219 15.394531 15.492188 15.394531 C 15.535156 15.394531 15.566406 15.414062 15.589844 15.453125 L 16.351562 16.691406 C 16.375 16.734375 16.375 16.773438 16.355469 16.816406 C 16.332031 16.859375 16.296875 16.878906 16.25 16.882812 L 14.632812 16.925781 C 14.535156 16.925781 14.476562 16.8125 14.53125 16.730469 Z M 14.53125 16.730469 " fill-opacity="1" fill-rule="nonzero"/><path fill="#fe5c5a" d="M 14.40625 16.753906 L 15.265625 15.46875 C 15.289062 15.433594 15.324219 15.414062 15.367188 15.417969 C 15.410156 15.417969 15.445312 15.4375 15.464844 15.472656 L 16.226562 16.714844 C 16.25 16.757812 16.25 16.796875 16.230469 16.839844 C 16.207031 16.882812 16.171875 16.902344 16.125 16.90625 L 14.511719 16.949219 C 14.410156 16.953125 14.351562 16.839844 14.40625 16.753906 Z M 14.40625 16.753906 " fill-opacity="1" fill-rule="nonzero"/><path stroke-linecap="butt" transform="matrix(0.0173134, 0, 0, 0.0173838, 3.391369, 4.756443)" fill-opacity="1" fill="#ffffff" fill-rule="nonzero" stroke-linejoin="miter" d="M 623.119836 691.499652 L 672.756266 617.571326 C 674.109987 615.54897 676.140568 614.425439 678.62239 614.650145 C 681.104211 614.650145 683.134793 615.773676 684.262893 617.796032 C 698.928202 641.614885 713.593511 665.433738 728.25882 689.25259 C 729.612541 691.499652 729.612541 693.97142 728.48444 696.443188 C 727.130719 698.914955 725.100138 700.038486 722.392696 700.263192 L 628.98596 702.73496 C 623.345456 702.959666 619.961154 696.218481 623.119836 691.499652 Z M 623.119836 691.499652 " stroke="#333333" stroke-width="4" stroke-opacity="1" stroke-miterlimit="10"/><path fill="#95b84f" d="M 13.820312 16.753906 C 14.105469 16.328125 14.390625 15.898438 14.675781 15.46875 C 14.699219 15.433594 14.734375 15.414062 14.777344 15.417969 C 14.820312 15.417969 14.855469 15.4375 14.875 15.472656 C 15.128906 15.886719 15.382812 16.300781 15.636719 16.714844 C 15.660156 16.757812 15.664062 16.796875 15.640625 16.839844 C 15.617188 16.882812 15.585938 16.902344 15.535156 16.90625 L 13.921875 16.949219 C 13.820312 16.953125 13.761719 16.839844 13.820312 16.753906 Z M 13.820312 16.753906 " fill-opacity="1" fill-rule="nonzero"/><path fill="#fe5c5a" d="M 13.691406 16.789062 L 14.550781 15.503906 C 14.574219 15.46875 14.609375 15.449219 14.652344 15.453125 C 14.695312 15.453125 14.726562 15.472656 14.75 15.507812 L 15.511719 16.75 C 15.535156 16.792969 15.539062 16.832031 15.515625 16.875 C 15.492188 16.917969 15.460938 16.9375 15.414062 16.941406 L 13.796875 16.984375 C 13.699219 16.984375 13.636719 16.871094 13.691406 16.789062 Z M 13.691406 16.789062 " fill-opacity="1" fill-rule="nonzero"/><path stroke-linecap="butt" transform="matrix(0.0173134, 0, 0, 0.0173838, 3.391369, 4.756443)" fill-opacity="1" fill="#ffffff" fill-rule="nonzero" stroke-linejoin="miter" d="M 584.538793 693.522007 L 634.175223 619.593681 C 635.528944 617.571326 637.333905 616.447795 640.041346 616.672501 C 642.523168 616.672501 644.328129 617.796032 645.68185 619.818387 C 660.347159 643.63724 675.012468 667.456093 689.452156 691.274946 C 691.031497 693.522007 691.031497 695.993775 689.903397 698.465543 C 688.549676 700.937311 686.519095 702.060842 683.811653 702.285548 L 590.404916 704.757315 C 584.764413 704.982022 581.380111 698.240837 584.538793 693.522007 Z M 584.538793 693.522007 " stroke="#333333" stroke-width="4" stroke-opacity="1" stroke-miterlimit="10"/><path fill="#95b84f" d="M 13.171875 16.789062 C 13.457031 16.363281 13.742188 15.933594 14.03125 15.503906 C 14.054688 15.46875 14.085938 15.449219 14.132812 15.453125 C 14.175781 15.453125 14.207031 15.472656 14.230469 15.507812 L 14.988281 16.75 C 15.015625 16.792969 15.015625 16.832031 14.992188 16.875 C 14.972656 16.917969 14.9375 16.9375 14.890625 16.941406 L 13.273438 16.984375 C 13.175781 16.984375 13.117188 16.871094 13.171875 16.789062 Z M 13.171875 16.789062 " fill-opacity="1" fill-rule="nonzero"/><path fill="#fe5c5a" d="M 13.070312 16.800781 L 13.925781 15.515625 C 13.953125 15.480469 13.984375 15.460938 14.027344 15.464844 C 14.074219 15.464844 14.105469 15.484375 14.128906 15.519531 L 14.886719 16.761719 C 14.914062 16.800781 14.914062 16.84375 14.890625 16.886719 C 14.871094 16.929688 14.835938 16.949219 14.789062 16.953125 L 13.171875 16.996094 C 13.074219 16.996094 13.015625 16.882812 13.070312 16.800781 Z M 13.070312 16.800781 " fill-opacity="1" fill-rule="nonzero"/><path stroke-linecap="butt" transform="matrix(0.0173134, 0, 0, 0.0173838, 3.391369, 4.756443)" fill-opacity="1" fill="#ffffff" fill-rule="nonzero" stroke-linejoin="miter" d="M 547.31147 694.196126 C 563.78174 669.703155 580.25201 644.985477 596.72228 620.267799 C 598.076001 618.245444 600.106582 617.121913 602.588404 617.346619 C 605.070225 617.346619 607.100806 618.47015 608.228907 620.492506 L 652.224834 691.949064 C 653.578555 694.196126 653.804175 696.667894 652.450454 699.139661 C 651.322353 701.611429 649.291772 702.73496 646.58433 702.959666 L 553.177593 705.431434 C 547.53709 705.431434 543.927168 698.914955 547.31147 694.196126 Z M 547.31147 694.196126 " stroke="#333333" stroke-width="4" stroke-opacity="1" stroke-miterlimit="10"/><path stroke-linecap="round" transform="matrix(0.0173134, 0, 0, 0.0173838, 3.391369, 4.756443)" fill="none" stroke-linejoin="miter" d="M 520.688294 719.812628 C 567.391662 733.74441 615.223131 739.58677 663.957081 737.339709 C 700.733163 733.294998 729.612541 729.924405 748.339012 728.126756 C 756.686957 727.452638 764.809282 725.205576 772.254747 721.385571 C 779.925832 717.565567 786.468815 712.172619 792.109319 705.431434 " stroke="#333333" stroke-width="4" stroke-opacity="1" stroke-miterlimit="10"/><path fill="#ed1e79" d="M 16.292969 18.269531 C 16.382812 18.796875 16.472656 19.324219 16.558594 19.855469 C 16.894531 19.972656 17.230469 19.972656 17.5625 19.855469 C 17.667969 19.300781 17.777344 18.746094 17.882812 18.195312 " fill-opacity="1" fill-rule="nonzero"/><path stroke-linecap="round" transform="matrix(0.0173134, 0, 0, 0.0173838, 3.391369, 4.756443)" fill-opacity="1" fill="#ffffff" fill-rule="nonzero" stroke-linejoin="miter" d="M 836.782106 775.090343 C 836.782106 778.460936 832.044083 781.15741 823.019278 783.629177 C 813.768852 785.876239 802.713465 786.99977 789.853118 786.99977 C 776.99277 786.99977 765.937383 785.876239 756.686957 783.629177 C 747.662152 781.15741 742.924129 778.460936 742.924129 775.090343 C 742.924129 771.944457 747.662152 769.023277 756.686957 766.776215 C 765.937383 764.529154 776.99277 763.405623 789.853118 763.405623 C 802.713465 763.405623 813.768852 764.529154 823.019278 766.776215 C 832.044083 769.023277 836.782106 771.944457 836.782106 775.090343 Z M 836.782106 775.090343 " stroke="#333333" stroke-width="4" stroke-opacity="1" stroke-miterlimit="10"/><path fill="#ed1e79" d="M 14.441406 17.609375 C 14.53125 18.136719 14.617188 18.664062 14.707031 19.191406 C 15.042969 19.3125 15.375 19.3125 15.710938 19.191406 C 15.816406 18.640625 15.921875 18.085938 16.03125 17.53125 " fill-opacity="1" fill-rule="nonzero"/><path stroke-linecap="round" transform="matrix(0.0173134, 0, 0, 0.0173838, 3.391369, 4.756443)" fill-opacity="1" fill="#ffffff" fill-rule="nonzero" stroke-linejoin="miter" d="M 729.612541 737.115002 C 729.612541 740.485595 725.100138 743.182069 716.075333 745.42913 C 706.824907 747.900898 695.76952 749.024429 682.909172 749.024429 C 669.823204 749.024429 658.767818 747.900898 649.743012 745.42913 C 640.492587 743.182069 635.980184 740.485595 635.980184 737.115002 C 635.980184 733.969116 640.492587 731.047936 649.743012 728.800875 C 658.767818 726.553813 669.823204 725.430282 682.909172 725.430282 C 695.76952 725.430282 706.824907 726.553813 716.075333 728.800875 C 725.100138 731.047936 729.612541 733.969116 729.612541 737.115002 Z M 729.612541 737.115002 " stroke="#333333" stroke-width="4" stroke-opacity="1" stroke-miterlimit="10"/><path fill="#ed1e79" d="M 12.605469 18.304688 C 12.695312 18.832031 12.785156 19.359375 12.871094 19.890625 C 13.207031 19.980469 13.539062 19.980469 13.875 19.890625 C 13.980469 19.335938 14.089844 18.78125 14.195312 18.230469 " fill-opacity="1" fill-rule="nonzero"/><path stroke-linecap="round" transform="matrix(0.0173134, 0, 0, 0.0173838, 3.391369, 4.756443)" fill-opacity="1" fill="#ffffff" fill-rule="nonzero" stroke-linejoin="miter" d="M 623.796696 777.112699 C 623.796696 780.483291 619.058674 783.179765 610.033868 785.426827 C 600.783442 787.898594 589.728056 789.022125 576.867708 789.022125 C 564.00736 789.022125 552.951973 787.898594 543.701548 785.426827 C 534.676742 783.179765 529.938719 780.483291 529.938719 777.112699 C 529.938719 773.966813 534.676742 771.045632 543.701548 768.798571 C 552.951973 766.551509 564.00736 765.427979 576.867708 765.427979 C 589.728056 765.427979 600.783442 766.551509 610.033868 768.798571 C 619.058674 771.045632 623.796696 773.966813 623.796696 777.112699 Z M 623.796696 777.112699 " stroke="#333333" stroke-width="4" stroke-opacity="1" stroke-miterlimit="10"/></svg>