<svg xmlns="http://www.w3.org/2000/svg" xmlns:xlink="http://www.w3.org/1999/xlink" width="40" zoomAndPan="magnify" viewBox="0 0 30 30.000001" height="40" preserveAspectRatio="xMidYMid meet" version="1.0"><defs><clipPath id="596a12e7c9"><path d="M 15 6.601562 L 17 6.601562 L 17 8 L 15 8 Z M 15 6.601562 " clip-rule="nonzero"/></clipPath></defs><path fill="#ffe5cc" d="M 17.746094 10.054688 C 17.746094 10.054688 18.492188 11.101562 19.703125 11.132812 C 20.914062 11.164062 21.695312 11.597656 21.046875 12.121094 C 20.402344 12.644531 18.214844 12.757812 17.425781 11.546875 C 16.640625 10.339844 17.59375 9.539062 17.746094 10.054688 Z M 17.746094 10.054688 " fill-opacity="1" fill-rule="evenodd"/><path fill="#382839" d="M 15.886719 7.554688 C 15.316406 6.9375 13.730469 7.242188 13.699219 8.351562 C 13.683594 8.96875 14.222656 9.585938 14.222656 9.585938 L 15.863281 9.796875 C 15.863281 9.796875 16.261719 9.214844 16.25 8.71875 C 16.242188 8.222656 16.132812 7.917969 15.886719 7.554688 Z M 15.886719 7.554688 " fill-opacity="1" fill-rule="evenodd"/><g clip-path="url(#596a12e7c9)"><path fill="#382839" d="M 15.347656 7.441406 C 15.347656 7.414062 15.164062 7.085938 15.539062 6.84375 C 15.910156 6.601562 16.585938 6.933594 16.496094 7.382812 C 16.402344 7.835938 15.945312 7.980469 15.945312 7.980469 Z M 15.347656 7.441406 " fill-opacity="1" fill-rule="evenodd"/></g><path fill="#ffe5cc" d="M 10.683594 11.332031 C 8.835938 13.902344 9.082031 14.050781 6.328125 15.410156 C 3.574219 16.769531 3.917969 19.96875 7.265625 21.269531 C 10.609375 22.566406 14.984375 19.890625 18.503906 20.820312 C 22.019531 21.753906 26.0625 21.359375 25.816406 19.152344 C 25.570312 16.949219 24.894531 13.226562 22.117188 12.953125 C 20.503906 12.796875 19.378906 13.070312 18.480469 12.863281 C 17.136719 12.558594 13.328125 7.644531 10.683594 11.332031 Z M 10.683594 11.332031 " fill-opacity="1" fill-rule="evenodd"/><path fill="#61a9a3" d="M 14.777344 10.777344 C 14.621094 10.800781 14.375 10.832031 14.207031 10.878906 C 13.960938 10.949219 13.746094 11.089844 13.445312 11.605469 C 13.144531 12.121094 12.902344 12.765625 12.902344 12.765625 L 13.808594 13.128906 L 13.933594 12.886719 C 14.007812 13.382812 13.878906 13.078125 14.277344 13.789062 C 14.398438 14.011719 14.691406 14.484375 14.730469 14.714844 C 14.8125 15.230469 14.578125 15.730469 14.578125 15.730469 C 14.578125 15.730469 15.273438 15.957031 16.5625 15.984375 C 17.855469 16.007812 18.488281 15.359375 18.488281 15.359375 C 18.488281 15.359375 17.699219 14.617188 17.644531 14.453125 C 17.589844 14.289062 17.671875 12.238281 17.640625 11.804688 C 17.609375 11.371094 17.527344 11.253906 17.351562 11.078125 C 17.179688 10.898438 16.199219 10.605469 16.082031 10.605469 C 15.855469 10.605469 15.351562 10.820312 15.070312 10.800781 C 15.003906 10.90625 14.902344 11.046875 14.902344 11.046875 Z M 14.777344 10.777344 " fill-opacity="1" fill-rule="evenodd"/><path fill="#ff9f7d" d="M 15.824219 9.5625 C 15.824219 9.5625 15.824219 10.050781 15.96875 10.457031 C 16.058594 10.71875 16.132812 10.605469 15.980469 10.867188 C 15.890625 11.027344 15.140625 11.980469 15.140625 11.980469 L 14.835938 10.976562 C 14.835938 10.976562 14.910156 10.902344 14.929688 10.660156 C 14.949219 10.417969 14.851562 10.0625 14.851562 10.0625 C 14.851562 10.0625 15.527344 10.171875 15.824219 9.5625 Z M 15.824219 9.5625 " fill-opacity="1" fill-rule="evenodd"/><path fill="#ed8863" d="M 15.824219 9.566406 C 15.824219 9.566406 15.832031 9.9375 15.921875 10.304688 C 15.730469 10.601562 15.386719 11.003906 14.835938 10.878906 C 14.882812 10.820312 14.921875 10.746094 14.929688 10.660156 C 14.949219 10.417969 14.851562 10.0625 14.851562 10.0625 C 14.851562 10.0625 15.527344 10.175781 15.824219 9.566406 Z M 15.824219 9.566406 " fill-opacity="1" fill-rule="evenodd"/><path fill="#448684" d="M 14 13.296875 C 14.023438 13.359375 14.101562 13.476562 14.277344 13.789062 C 14.398438 14.011719 14.691406 14.484375 14.730469 14.714844 C 14.789062 15.085938 14.683594 15.445312 14.621094 15.621094 C 14.972656 15.515625 15.703125 15.296875 15.960938 15.203125 C 16.304688 15.078125 16.730469 14.941406 16.871094 14.613281 C 17.011719 14.285156 17.269531 13.199219 17.269531 13.199219 L 17.160156 13.167969 L 16.613281 13.167969 C 16.613281 13.167969 15.914062 13.167969 15.734375 13.179688 C 15.554688 13.195312 14.890625 13.398438 14.609375 13.328125 C 14.328125 13.253906 14.148438 13.277344 14 13.296875 Z M 14 13.296875 " fill-opacity="1" fill-rule="evenodd"/><path fill="#ffeeef" d="M 5.84375 20.480469 L 5.503906 20 L 6.660156 17.398438 L 24.242188 17.386719 L 24.378906 20 Z M 5.84375 20.480469 " fill-opacity="1" fill-rule="evenodd"/><path fill="#efdbdb" d="M 24.265625 17.835938 L 24.316406 18.769531 C 24.101562 18.792969 23.902344 18.804688 23.757812 18.804688 C 23.132812 18.789062 22.984375 18.714844 22.34375 18.878906 C 21.707031 19.042969 20.757812 19.003906 19.554688 19.082031 C 18.347656 19.15625 16.617188 19.015625 15.9375 18.980469 C 15.261719 18.941406 15.289062 18.753906 14.882812 18.703125 C 14.476562 18.652344 13.800781 18.550781 13.886719 18.941406 C 13.972656 19.332031 14.722656 20.027344 12.347656 19.886719 C 9.976562 19.75 9.25 19.40625 8.78125 19.34375 C 8.316406 19.28125 8.117188 19.003906 7.503906 19.21875 C 6.890625 19.433594 6.585938 19.347656 6.617188 19.179688 C 6.648438 19.015625 6.085938 19.289062 6.226562 19.050781 C 6.367188 18.808594 7.148438 18.351562 7.585938 18.335938 C 8.019531 18.324219 8.941406 18.535156 9.222656 18.273438 C 9.507812 18.007812 9.992188 17.566406 9.992188 17.566406 Z M 24.265625 17.835938 " fill-opacity="1" fill-rule="evenodd"/><path fill="#ffffff" d="M 10.351562 17.476562 C 10.351562 17.476562 10.472656 18.179688 10.515625 18.429688 C 10.558594 18.683594 10.308594 19.054688 10.160156 18.984375 C 10.011719 18.914062 7.972656 18.890625 7.800781 18.839844 C 7.628906 18.789062 7.503906 18.421875 7.640625 18.128906 C 7.773438 17.832031 8.023438 17.242188 8.164062 17.226562 C 8.304688 17.214844 10.070312 17.679688 10.351562 17.476562 Z M 10.351562 17.476562 " fill-opacity="1" fill-rule="evenodd"/><path fill="#e6e7e8" d="M 10.351562 17.476562 C 10.351562 17.476562 10.386719 17.683594 10.425781 17.910156 C 10.339844 17.9375 10.222656 17.964844 10.070312 17.96875 C 9.710938 17.984375 9.40625 17.851562 9.160156 17.785156 C 8.910156 17.714844 8.769531 17.832031 8.421875 17.726562 C 8.199219 17.660156 8.09375 17.460938 8.046875 17.328125 C 8.089844 17.269531 8.128906 17.230469 8.164062 17.226562 C 8.304688 17.214844 10.070312 17.679688 10.351562 17.476562 Z M 10.351562 17.476562 " fill-opacity="1" fill-rule="evenodd"/><path fill="#873f38" d="M 8.882812 17.46875 C 8.882812 17.46875 8.503906 17.6875 8.164062 17.226562 C 7.664062 16.546875 7.730469 15.929688 8.175781 15.25 C 8.515625 14.734375 9.152344 14.613281 9.738281 14.734375 C 10.320312 14.851562 10.597656 15.285156 10.992188 15.546875 C 11.386719 15.804688 12.085938 15.726562 12.085938 15.726562 C 12.085938 15.726562 11.488281 16.949219 11.546875 17.398438 C 11.601562 17.84375 12.984375 17.945312 12.984375 17.945312 C 12.984375 17.945312 11.53125 18.21875 10.972656 17.992188 C 10.414062 17.765625 10.335938 17.667969 10.308594 17.613281 C 10.285156 17.554688 9.132812 17.328125 8.882812 17.46875 Z M 8.882812 17.46875 " fill-opacity="1" fill-rule="evenodd"/><path fill="#ad574f" d="M 8.105469 16.324219 C 8.105469 16.328125 8.136719 17.117188 8.542969 17.382812 L 8.527344 17.40625 C 8.109375 17.132812 8.078125 16.328125 8.078125 16.328125 Z M 9.582031 15.734375 C 9.585938 15.730469 9.894531 15.46875 10.160156 15.4375 L 10.164062 15.464844 C 9.90625 15.496094 9.601562 15.753906 9.601562 15.753906 Z M 8.179688 15.898438 C 8.183594 15.898438 9.476562 15.597656 9.8125 15.1875 L 9.832031 15.203125 C 9.492188 15.625 8.1875 15.925781 8.183594 15.925781 Z M 8.289062 16.140625 C 8.292969 16.136719 9.476562 15.820312 9.910156 15.269531 L 9.933594 15.285156 C 9.492188 15.84375 8.300781 16.164062 8.296875 16.167969 Z M 8.289062 16.140625 " fill-opacity="1" fill-rule="evenodd"/><path fill="#ffaf9c" d="M 10.410156 15.792969 C 10.410156 15.792969 10.402344 15.785156 11.039062 15.886719 C 11.679688 15.984375 11.917969 15.808594 12.34375 15.617188 C 12.765625 15.429688 13.542969 15.359375 14.328125 15.546875 C 15.117188 15.738281 16.628906 15.808594 17.125 15.695312 C 17.625 15.578125 18.234375 15.144531 19.289062 15.121094 C 20.347656 15.09375 20.902344 15.84375 21.523438 16.066406 C 22.144531 16.285156 24.074219 16.402344 24.140625 16.453125 C 24.210938 16.503906 24.585938 16.570312 24.515625 17.289062 C 24.441406 18.007812 24.605469 18.214844 24.378906 18.390625 C 24.152344 18.566406 22.46875 18.359375 22.222656 18.332031 C 21.976562 18.308594 18.386719 18.347656 17.425781 18.257812 C 16.46875 18.171875 16.054688 18.398438 15.433594 18.382812 C 14.816406 18.371094 13.921875 18.414062 13.664062 18.332031 C 13.40625 18.253906 13.34375 18.183594 13.34375 18.183594 C 13.34375 18.183594 13.800781 18.984375 13.671875 19.417969 C 13.542969 19.851562 13.210938 19.777344 12.535156 19.726562 C 11.855469 19.675781 10.441406 19.410156 9.859375 19.199219 C 9.273438 18.984375 9.117188 19.148438 8.648438 19.058594 C 8.179688 18.96875 7.929688 18.96875 7.804688 18.917969 C 7.683594 18.867188 7.246094 19.113281 7.019531 19.175781 C 6.789062 19.238281 6.902344 19.074219 7.117188 18.902344 C 7.332031 18.726562 7.484375 18.597656 7.464844 18.578125 C 7.441406 18.554688 7.273438 18.632812 7.085938 18.765625 C 6.894531 18.898438 6.609375 19.070312 6.480469 19.050781 C 6.238281 19.011719 6.59375 18.855469 6.683594 18.738281 C 6.683594 18.738281 6.488281 18.875 6.367188 18.808594 C 6.242188 18.746094 6.429688 18.632812 6.597656 18.542969 C 6.765625 18.449219 7.113281 18.261719 7.320312 18.109375 C 7.523438 17.960938 7.667969 17.960938 7.996094 18.046875 C 8.324219 18.128906 8.925781 18.371094 9.085938 18.382812 C 9.25 18.390625 10.097656 18.484375 10.976562 18.515625 C 11.855469 18.546875 12.101562 18.523438 12.101562 18.523438 C 12.101562 18.523438 11.730469 18.1875 11.527344 17.8125 C 11.324219 17.433594 11.335938 17.121094 11.335938 17.121094 L 10.773438 17.078125 C 10.773438 17.078125 10.699219 16.453125 10.566406 16.296875 C 10.429688 16.140625 10.308594 15.878906 10.308594 15.878906 Z M 10.410156 15.792969 " fill-opacity="1" fill-rule="evenodd"/><path fill="#eb9681" d="M 11.09375 15.894531 C 11.691406 15.976562 11.929688 15.800781 12.34375 15.617188 C 12.765625 15.429688 13.542969 15.359375 14.328125 15.546875 C 14.449219 15.578125 14.582031 15.601562 14.730469 15.625 C 14.554688 15.664062 14.339844 15.699219 14.121094 15.699219 C 13.597656 15.699219 13.464844 15.6875 12.960938 15.894531 C 12.457031 16.101562 12.332031 16.191406 12.082031 16.191406 C 11.828125 16.191406 11.835938 16.160156 11.691406 16.113281 C 11.550781 16.070312 11.539062 16.082031 11.34375 16.050781 C 11.234375 16.035156 11.148438 15.964844 11.09375 15.894531 Z M 11.09375 15.894531 " fill-opacity="1" fill-rule="evenodd"/><path fill="#eb9681" d="M 15.246094 15.691406 C 15.550781 15.722656 15.871094 15.738281 16.164062 15.746094 L 15.976562 18.292969 C 15.800781 18.320312 15.539062 18.386719 15.433594 18.382812 C 15.332031 18.382812 15.234375 18.375 15.128906 18.382812 C 15.160156 18.09375 15.269531 17.59375 15.34375 17.097656 C 15.421875 16.605469 15.3125 16.015625 15.246094 15.691406 Z M 15.246094 15.691406 " fill-opacity="1" fill-rule="evenodd"/><path fill="#eb9681" d="M 22.164062 16.199219 C 22.457031 16.246094 22.800781 16.296875 23.132812 16.332031 C 23.03125 16.507812 22.804688 16.671875 22.816406 17.273438 C 22.824219 17.875 23.003906 18.230469 22.988281 18.414062 C 22.628906 18.382812 22.316406 18.34375 22.222656 18.332031 L 22.21875 17.261719 Z M 22.164062 16.199219 " fill-opacity="1" fill-rule="evenodd"/><path fill="#eb9681" d="M 11.210938 17.113281 L 10.773438 17.078125 C 10.773438 17.050781 10.769531 17.019531 10.761719 16.988281 C 10.738281 16.8125 10.667969 16.417969 10.566406 16.296875 C 10.484375 16.199219 10.40625 16.066406 10.355469 15.976562 C 10.507812 16.015625 10.8125 16.132812 11.035156 16.488281 C 11.261719 16.859375 11.238281 17.042969 11.210938 17.113281 Z M 11.210938 17.113281 " fill-opacity="1" fill-rule="evenodd"/><path fill="#ff9f7d" d="M 13.777344 13.117188 C 13.710938 13.335938 13.539062 13.683594 13.433594 13.863281 C 13.328125 14.042969 12.652344 14.835938 12.457031 14.972656 C 12.261719 15.109375 12.089844 15.425781 12.027344 15.488281 C 11.964844 15.550781 11.660156 15.914062 11.542969 15.972656 C 11.425781 16.035156 11.410156 15.9375 11.410156 15.9375 C 11.410156 15.9375 11.335938 15.992188 11.269531 15.96875 C 11.203125 15.941406 11.210938 15.886719 11.210938 15.886719 C 11.210938 15.886719 11.128906 15.945312 11.082031 15.917969 C 11.035156 15.886719 11.027344 15.839844 11.027344 15.839844 C 11.027344 15.839844 10.921875 15.886719 10.914062 15.796875 C 10.910156 15.707031 11.210938 15.003906 11.28125 14.933594 C 11.347656 14.867188 11.597656 14.898438 11.6875 14.820312 C 11.777344 14.738281 12.683594 13.613281 12.746094 13.503906 C 12.808594 13.394531 13.007812 13.027344 13.058594 12.832031 Z M 13.777344 13.117188 " fill-opacity="1" fill-rule="evenodd"/><path fill="#ed8863" d="M 13.777344 13.117188 C 13.757812 13.179688 13.730469 13.253906 13.699219 13.328125 L 13 13 C 13.023438 12.9375 13.046875 12.878906 13.058594 12.832031 Z M 13.777344 13.117188 " fill-opacity="1" fill-rule="evenodd"/><path fill="#ed8863" d="M 12.5 14.9375 C 12.484375 14.953125 12.46875 14.964844 12.457031 14.972656 C 12.261719 15.109375 12.089844 15.425781 12.027344 15.488281 C 11.96875 15.550781 11.679688 15.890625 11.554688 15.96875 C 11.542969 15.96875 11.527344 15.96875 11.511719 15.972656 C 11.4375 15.980469 11.453125 15.859375 11.453125 15.859375 C 11.542969 15.640625 12.054688 15.046875 12.226562 14.972656 C 12.265625 14.953125 12.375 14.945312 12.5 14.9375 Z M 12.5 14.9375 " fill-opacity="1" fill-rule="evenodd"/><path fill="#efdbdb" d="M 5.503906 20 L 24.378906 20 L 24.378906 20.933594 L 5.503906 20.933594 Z M 5.503906 20 " fill-opacity="1" fill-rule="evenodd"/><path fill="#ffffff" d="M 15.441406 15.519531 C 15.441406 15.519531 16.730469 15.632812 17.136719 15.519531 C 17.765625 15.34375 19.082031 14.722656 19.902344 15.117188 C 19.945312 15.136719 21.628906 15.773438 21.722656 15.796875 C 22.179688 15.910156 22.28125 16.015625 22.566406 16.164062 C 22.851562 16.3125 22.535156 16.113281 22.472656 16.996094 C 22.410156 17.875 22.726562 18.359375 22.519531 18.546875 C 22.3125 18.734375 21.121094 18.621094 20.652344 18.621094 C 20.1875 18.621094 19.117188 18.632812 18.453125 18.609375 C 17.789062 18.582031 16.925781 18.558594 16.363281 18.609375 C 15.796875 18.65625 15.671875 18.734375 15.425781 18.671875 C 15.183594 18.609375 15.539062 18.003906 15.539062 17.03125 C 15.539062 16.0625 15.167969 15.695312 15.242188 15.570312 C 15.316406 15.445312 15.441406 15.519531 15.441406 15.519531 Z M 15.441406 15.519531 " fill-opacity="1" fill-rule="evenodd"/><path fill="#e6e7e8" d="M 19.828125 15.128906 C 20.195312 15.300781 20.566406 15.472656 20.792969 15.644531 C 21.015625 15.8125 21.214844 15.605469 21.289062 15.648438 C 21.132812 15.765625 20.953125 15.921875 20.832031 16.332031 C 20.644531 16.957031 19.765625 17 19.707031 16.945312 C 19.644531 16.886719 19.953125 16.761719 20.214844 16.382812 C 20.480469 16.007812 20.304688 15.886719 20.140625 15.617188 C 19.972656 15.351562 19.902344 15.269531 19.828125 15.128906 Z M 16.269531 15.714844 C 16.328125 15.714844 16.78125 15.8125 16.945312 15.714844 C 17.105469 15.617188 17.429688 16.621094 17.453125 17.03125 C 17.472656 17.441406 16.808594 16.132812 16.5625 15.984375 C 16.316406 15.835938 16.164062 15.746094 16.269531 15.714844 Z M 18.273438 17.109375 C 18.273438 17.109375 18.527344 17.738281 19.078125 18.003906 C 19.628906 18.273438 19.78125 18.453125 19.53125 18.488281 C 19.277344 18.523438 18.679688 18.367188 18.417969 17.929688 C 18.152344 17.492188 18.167969 17.011719 18.273438 17.109375 Z M 18.273438 17.109375 " fill-opacity="1" fill-rule="evenodd"/><path fill="#ff9f7d" d="M 17.167969 13.140625 C 17.167969 13.140625 16.808594 14.359375 16.636719 14.589844 C 16.464844 14.824219 15.363281 15.257812 14.800781 15.316406 C 14.234375 15.371094 13.679688 15.421875 13.625 15.46875 C 13.570312 15.511719 13.1875 15.671875 13.039062 15.691406 C 12.886719 15.710938 12.824219 15.730469 12.800781 15.738281 C 12.78125 15.746094 12.238281 16.054688 12.085938 16.109375 C 11.9375 16.164062 11.886719 16.074219 11.886719 16.074219 C 11.886719 16.074219 11.8125 16.097656 11.761719 16.050781 C 11.710938 16.003906 11.71875 15.992188 11.71875 15.992188 C 11.71875 15.992188 11.699219 15.984375 11.628906 15.992188 C 11.558594 16.003906 11.570312 15.878906 11.570312 15.878906 C 11.664062 15.664062 12.175781 15.070312 12.347656 14.996094 C 12.445312 14.949219 12.953125 14.953125 13.160156 14.941406 C 13.367188 14.929688 13.507812 14.945312 13.574219 14.921875 C 13.644531 14.898438 15.957031 14.042969 16.007812 14.003906 C 16.054688 13.96875 16.253906 12.925781 16.253906 12.925781 Z M 17.167969 13.140625 " fill-opacity="1" fill-rule="evenodd"/><path fill="#ed8863" d="M 17.167969 13.140625 C 17.167969 13.140625 17.140625 13.238281 17.097656 13.378906 L 16.214844 13.125 C 16.238281 13.007812 16.253906 12.925781 16.253906 12.925781 Z M 17.167969 13.140625 " fill-opacity="1" fill-rule="evenodd"/><path fill="#7dc9c3" d="M 17.113281 11.027344 C 17.109375 11.027344 16.730469 11.039062 16.613281 11.417969 C 16.5 11.777344 16.210938 12.71875 16.160156 12.886719 L 17.28125 13.148438 L 17.269531 13.199219 L 16.097656 12.921875 L 16.105469 12.898438 C 16.105469 12.894531 16.4375 11.808594 16.566406 11.40625 C 16.695312 10.988281 17.109375 10.976562 17.109375 10.976562 Z M 17.113281 11.027344 " fill-opacity="1" fill-rule="nonzero"/><path fill="#ed8a4c" d="M 16.292969 10.609375 L 15.246094 12.023438 L 15.164062 11.832031 L 16.066406 10.558594 Z M 16.292969 10.609375 " fill-opacity="1" fill-rule="evenodd"/><path fill="#c76e37" d="M 15.285156 11.972656 L 15.246094 12.023438 L 15.164062 11.832031 L 15.222656 11.75 Z M 15.285156 11.972656 " fill-opacity="1" fill-rule="evenodd"/><path fill="#ed8a4c" d="M 14.828125 10.738281 L 15.289062 12.140625 C 15.289062 12.140625 15.136719 12.246094 15.132812 12.226562 C 15.128906 12.203125 14.644531 10.769531 14.644531 10.769531 Z M 14.828125 10.738281 " fill-opacity="1" fill-rule="evenodd"/><path fill="#e6e7e8" d="M 7.804688 17.90625 L 7.808594 17.90625 C 7.847656 17.90625 7.996094 17.902344 8.28125 18.042969 C 8.421875 18.113281 8.679688 18.179688 8.953125 18.230469 C 9.230469 18.28125 9.527344 18.3125 9.75 18.308594 C 9.816406 18.304688 9.882812 18.304688 9.9375 18.300781 C 10.273438 18.292969 10.421875 18.289062 10.460938 18.429688 L 10.394531 18.449219 C 10.371094 18.359375 10.238281 18.363281 9.941406 18.371094 C 9.882812 18.375 9.820312 18.375 9.75 18.378906 C 9.523438 18.382812 9.222656 18.351562 8.941406 18.300781 C 8.660156 18.25 8.398438 18.179688 8.25 18.105469 C 7.980469 17.972656 7.84375 17.976562 7.8125 17.976562 L 7.804688 17.976562 Z M 7.804688 17.90625 " fill-opacity="1" fill-rule="nonzero"/><path fill="#ffaf9c" d="M 8.273438 16.445312 C 8.273438 16.445312 8.308594 17 8.699219 17.285156 C 9.085938 17.566406 9.738281 17.730469 10.167969 17.707031 C 10.597656 17.679688 10.800781 17.355469 10.835938 16.953125 C 10.875 16.554688 10.386719 15.957031 10.386719 15.957031 C 10.386719 15.957031 10.464844 15.910156 10.359375 15.574219 C 10.25 15.238281 10.035156 15.273438 9.976562 15.355469 C 9.917969 15.4375 9.984375 15.613281 10.058594 15.726562 C 10.132812 15.839844 10.300781 15.972656 10.292969 15.996094 C 10.285156 16.019531 10.070312 15.992188 9.953125 15.867188 C 9.832031 15.742188 9.53125 15.859375 9.476562 15.867188 C 9.425781 15.875 9.039062 16.234375 8.273438 16.445312 Z M 8.273438 16.445312 " fill-opacity="1" fill-rule="evenodd"/><path fill="#382839" d="M 9.492188 16.261719 C 9.492188 16.261719 9.582031 16.339844 9.519531 16.503906 C 9.460938 16.667969 9.335938 16.699219 9.335938 16.699219 C 9.335938 16.699219 9.488281 16.527344 9.492188 16.261719 Z M 9.492188 16.261719 " fill-opacity="1" fill-rule="evenodd"/><path fill="#382839" d="M 9.207031 17.058594 C 9.207031 17.058594 9.257812 17.246094 9.191406 17.328125 C 9.121094 17.410156 9.074219 17.398438 9.074219 17.398438 C 9.074219 17.398438 9.191406 17.328125 9.207031 17.058594 Z M 9.207031 17.058594 " fill-opacity="1" fill-rule="evenodd"/><path fill="#873f38" d="M 9.027344 17.027344 C 9.007812 17.027344 8.945312 17.109375 8.910156 17.210938 C 8.878906 17.308594 8.898438 17.40625 8.898438 17.40625 C 8.898438 17.40625 8.835938 17.339844 8.851562 17.183594 C 8.863281 17.03125 9.015625 16.910156 9.027344 17.027344 Z M 9.027344 17.027344 " fill-opacity="1" fill-rule="evenodd"/><path fill="#873f38" d="M 9.128906 16.664062 C 9.128906 16.640625 9.097656 16.5 9.152344 16.371094 C 9.203125 16.238281 9.320312 16.207031 9.320312 16.207031 C 9.320312 16.207031 9.242188 16.164062 9.152344 16.246094 C 9.0625 16.328125 9.039062 16.410156 9.039062 16.535156 C 9.039062 16.664062 9.117188 16.710938 9.128906 16.664062 Z M 9.128906 16.664062 " fill-opacity="1" fill-rule="evenodd"/><path fill="#873f38" d="M 10.121094 17.105469 C 10.121094 17.105469 10.238281 17.417969 9.992188 17.566406 L 9.964844 17.53125 C 10.179688 17.398438 10.074219 17.117188 10.074219 17.117188 Z M 10.121094 17.105469 " fill-opacity="1" fill-rule="nonzero"/><path fill="#db8069" d="M 9.277344 17.09375 C 9.292969 17.09375 9.40625 17.144531 9.488281 17.210938 C 9.539062 17.25 9.578125 17.296875 9.585938 17.34375 C 9.589844 17.382812 9.601562 17.402344 9.613281 17.402344 C 9.628906 17.402344 9.652344 17.390625 9.679688 17.367188 C 9.710938 17.34375 9.746094 17.304688 9.765625 17.257812 C 9.777344 17.222656 9.785156 17.179688 9.769531 17.136719 L 9.820312 17.121094 C 9.832031 17.175781 9.828125 17.230469 9.808594 17.277344 C 9.789062 17.332031 9.746094 17.378906 9.710938 17.410156 C 9.671875 17.4375 9.640625 17.457031 9.609375 17.453125 C 9.574219 17.449219 9.546875 17.421875 9.535156 17.351562 C 9.53125 17.320312 9.5 17.28125 9.457031 17.25 C 9.382812 17.191406 9.289062 17.144531 9.277344 17.144531 Z M 9.277344 17.09375 " fill-opacity="1" fill-rule="nonzero"/><path fill="#eb9681" d="M 10.183594 15.464844 C 10.183594 15.464844 10.121094 15.328125 10.0625 15.414062 C 10 15.5 10.148438 15.71875 10.210938 15.765625 C 10.277344 15.816406 10.203125 15.65625 10.238281 15.65625 C 10.277344 15.660156 10.296875 15.816406 10.328125 15.792969 C 10.359375 15.765625 10.3125 15.539062 10.261719 15.539062 C 10.210938 15.542969 10.195312 15.65625 10.175781 15.589844 C 10.152344 15.523438 10.105469 15.457031 10.140625 15.492188 C 10.175781 15.523438 10.21875 15.519531 10.183594 15.464844 Z M 10.183594 15.464844 " fill-opacity="1" fill-rule="evenodd"/><path fill="#e6e7e8" d="M 15.589844 15.707031 C 15.589844 15.707031 15.96875 16.339844 15.984375 17.203125 C 15.992188 17.558594 15.972656 17.785156 15.960938 17.9375 C 15.941406 18.144531 15.9375 18.214844 16.027344 18.308594 L 15.992188 18.34375 C 15.886719 18.234375 15.890625 18.160156 15.910156 17.933594 C 15.925781 17.78125 15.945312 17.558594 15.9375 17.203125 C 15.917969 16.355469 15.550781 15.734375 15.546875 15.730469 Z M 15.589844 15.707031 " fill-opacity="1" fill-rule="nonzero"/><path fill="#e6e7e8" d="M 21.347656 15.832031 C 21.351562 15.835938 21.855469 16.535156 21.449219 17.316406 L 21.40625 17.292969 C 21.796875 16.539062 21.308594 15.867188 21.308594 15.863281 Z M 21.347656 15.832031 " fill-opacity="1" fill-rule="nonzero"/><path fill="#e6e7e8" d="M 17.597656 15.660156 C 17.597656 15.664062 18.324219 16.4375 18.707031 17.132812 C 18.894531 17.476562 19.15625 17.738281 19.476562 17.917969 C 19.800781 18.101562 20.179688 18.195312 20.601562 18.199219 L 20.601562 18.25 C 20.171875 18.246094 19.78125 18.148438 19.453125 17.960938 C 19.125 17.777344 18.855469 17.507812 18.664062 17.160156 C 18.285156 16.46875 17.5625 15.699219 17.5625 15.695312 Z M 17.597656 15.660156 " fill-opacity="1" fill-rule="nonzero"/><path fill="#e6e7e8" d="M 17.875 16.542969 C 17.875 16.546875 17.820312 17.894531 18.628906 18.316406 L 18.605469 18.359375 C 17.769531 17.925781 17.824219 16.542969 17.824219 16.539062 Z M 17.875 16.542969 " fill-opacity="1" fill-rule="nonzero"/><path fill="#e6e7e8" d="M 22.355469 16.246094 C 22.328125 16.273438 22.152344 16.757812 22.023438 17.257812 C 21.949219 17.558594 21.890625 17.859375 21.894531 18.074219 C 21.902344 18.6875 21.289062 18.527344 21.285156 18.527344 L 21.296875 18.476562 C 21.300781 18.476562 21.851562 18.621094 21.84375 18.074219 C 21.84375 17.855469 21.902344 17.546875 21.976562 17.246094 C 22.105469 16.738281 22.289062 16.238281 22.320312 16.207031 Z M 22.355469 16.246094 " fill-opacity="1" fill-rule="nonzero"/><path fill="#e6e7e8" d="M 16.050781 15.96875 C 16.050781 15.972656 16.644531 16.898438 16.761719 17.761719 L 16.710938 17.769531 C 16.597656 16.917969 16.011719 16 16.007812 15.996094 Z M 16.050781 15.96875 " fill-opacity="1" fill-rule="nonzero"/><path fill="#eb9681" d="M 12.941406 17.550781 L 13.367188 18.171875 L 13.328125 18.199219 L 12.902344 17.582031 Z M 12.941406 17.550781 " fill-opacity="1" fill-rule="nonzero"/><path fill="#eb9681" d="M 11.308594 17.097656 C 11.308594 17.097656 11.304688 16.625 11.832031 16.421875 L 11.847656 16.46875 C 11.355469 16.65625 11.359375 17.097656 11.359375 17.097656 Z M 11.308594 17.097656 " fill-opacity="1" fill-rule="nonzero"/><path fill="#e07853" d="M 11.921875 16.019531 C 11.921875 16.019531 12.558594 15.523438 12.625 15.507812 L 12.628906 15.535156 C 12.574219 15.550781 11.941406 16.042969 11.9375 16.042969 Z M 11.664062 15.835938 L 12.175781 15.285156 L 12.195312 15.304688 L 11.683594 15.859375 Z M 11.75 15.9375 C 11.769531 15.917969 12.359375 15.386719 12.359375 15.382812 L 12.378906 15.40625 C 12.378906 15.410156 11.789062 15.941406 11.769531 15.957031 Z M 11.75 15.9375 " fill-opacity="1" fill-rule="nonzero"/><path fill="#e07853" d="M 11.390625 15.117188 L 11.070312 15.769531 L 11.042969 15.753906 L 11.363281 15.101562 Z M 11.457031 15.835938 L 11.855469 15.207031 L 11.878906 15.222656 L 11.480469 15.851562 Z M 11.230469 15.808594 L 11.636719 15.109375 L 11.664062 15.125 L 11.257812 15.824219 Z M 11.230469 15.808594 " fill-opacity="1" fill-rule="nonzero"/><path fill="#eb9681" d="M 12.148438 18.527344 L 12.527344 18.859375 L 12.507812 18.878906 L 12.128906 18.546875 Z M 12.148438 18.527344 " fill-opacity="1" fill-rule="nonzero"/><path fill="#eb9681" d="M 6.71875 18.699219 L 7.269531 18.335938 L 7.296875 18.378906 L 6.746094 18.742188 Z M 6.71875 18.699219 " fill-opacity="1" fill-rule="nonzero"/><path fill="#7dc9c3" d="M 14.074219 11.316406 C 14.074219 11.320312 14.011719 12.449219 14.015625 12.785156 L 13.96875 12.785156 C 13.964844 12.449219 14.023438 11.316406 14.027344 11.316406 Z M 14.074219 11.316406 " fill-opacity="1" fill-rule="nonzero"/><path fill="#e07853" d="M 12.816406 13.523438 L 13.113281 13.632812 L 13.09375 13.679688 L 12.800781 13.570312 Z M 12.816406 13.523438 " fill-opacity="1" fill-rule="nonzero"/><path fill="#e07853" d="M 16.070312 14.015625 C 16.070312 14.015625 16.171875 14.03125 16.3125 14.148438 L 16.285156 14.1875 C 16.152344 14.078125 16.0625 14.066406 16.0625 14.066406 Z M 16.070312 14.015625 " fill-opacity="1" fill-rule="nonzero"/><path fill="#ff9f7d" d="M 13.964844 8.824219 C 13.964844 8.824219 14.023438 9.46875 14.324219 9.878906 C 14.625 10.292969 14.964844 10.425781 15.269531 10.359375 C 15.578125 10.292969 15.859375 9.839844 15.871094 9.636719 C 15.882812 9.433594 15.886719 9.351562 15.886719 9.351562 C 15.886719 9.351562 16.066406 9.234375 16.054688 8.984375 C 16.042969 8.730469 16.046875 8.667969 15.960938 8.605469 C 15.875 8.546875 15.769531 8.574219 15.761719 8.734375 C 15.753906 8.894531 15.753906 8.988281 15.769531 9.09375 C 15.785156 9.199219 15.808594 9.285156 15.792969 9.28125 C 15.773438 9.28125 15.691406 9.066406 15.644531 8.898438 C 15.59375 8.734375 15.457031 8.472656 15.457031 8.472656 C 15.457031 8.472656 15.101562 8.519531 14.773438 8.480469 C 14.449219 8.441406 14.199219 8.332031 14.199219 8.332031 C 14.199219 8.332031 14.105469 8.671875 13.964844 8.824219 Z M 13.964844 8.824219 " fill-opacity="1" fill-rule="evenodd"/><path fill="#382839" d="M 14.941406 8.886719 C 14.984375 8.875 15.03125 8.90625 15.050781 8.960938 C 15.066406 9.015625 15.050781 9.074219 15.007812 9.085938 C 14.96875 9.101562 14.921875 9.066406 14.902344 9.011719 C 14.882812 8.957031 14.902344 8.902344 14.941406 8.886719 Z M 14.941406 8.886719 " fill-opacity="1" fill-rule="evenodd"/><path fill="#382839" d="M 14.261719 9.109375 C 14.300781 9.09375 14.351562 9.128906 14.367188 9.183594 C 14.386719 9.238281 14.367188 9.292969 14.328125 9.308594 C 14.285156 9.320312 14.238281 9.289062 14.21875 9.234375 C 14.203125 9.179688 14.21875 9.121094 14.261719 9.109375 Z M 14.261719 9.109375 " fill-opacity="1" fill-rule="evenodd"/><path fill="#382839" d="M 14.703125 8.820312 C 14.707031 8.789062 14.71875 8.753906 14.738281 8.722656 C 14.757812 8.6875 14.785156 8.660156 14.824219 8.636719 C 14.859375 8.617188 14.90625 8.605469 14.957031 8.609375 C 15.011719 8.613281 15.078125 8.632812 15.148438 8.679688 L 15.109375 8.742188 C 15.050781 8.703125 14.996094 8.683594 14.953125 8.683594 C 14.917969 8.679688 14.882812 8.6875 14.859375 8.703125 C 14.832031 8.71875 14.8125 8.738281 14.796875 8.761719 C 14.785156 8.78125 14.777344 8.804688 14.777344 8.824219 Z M 14.703125 8.820312 " fill-opacity="1" fill-rule="nonzero"/><path fill="#382839" d="M 14.355469 8.917969 C 14.355469 8.917969 14.199219 8.832031 14.09375 9.023438 L 14.03125 8.984375 C 14.171875 8.734375 14.390625 8.855469 14.390625 8.855469 Z M 14.355469 8.917969 " fill-opacity="1" fill-rule="nonzero"/><path fill="#ad574f" d="M 14.554688 9.125 C 14.554688 9.125 14.660156 9.207031 14.609375 9.4375 C 14.589844 9.539062 14.5625 9.59375 14.546875 9.632812 C 14.53125 9.664062 14.523438 9.679688 14.539062 9.695312 C 14.574219 9.742188 14.746094 9.683594 14.746094 9.683594 L 14.761719 9.734375 C 14.761719 9.734375 14.558594 9.800781 14.5 9.730469 C 14.464844 9.6875 14.472656 9.664062 14.5 9.609375 C 14.515625 9.574219 14.539062 9.519531 14.5625 9.425781 C 14.601562 9.226562 14.523438 9.167969 14.523438 9.167969 Z M 14.554688 9.125 " fill-opacity="1" fill-rule="nonzero"/><path fill="#ad574f" d="M 14.644531 9.902344 C 14.648438 9.902344 14.652344 9.902344 14.65625 9.902344 C 14.703125 9.910156 14.925781 9.9375 15.019531 9.738281 L 15.0625 9.757812 C 14.953125 9.996094 14.699219 9.960938 14.652344 9.953125 L 14.644531 9.953125 Z M 14.644531 9.902344 " fill-opacity="1" fill-rule="nonzero"/><path fill="#7dc9c3" d="M 17.613281 14.582031 C 17.609375 14.585938 17.308594 14.988281 17.003906 15.207031 L 16.972656 15.167969 C 17.273438 14.949219 17.570312 14.554688 17.574219 14.554688 Z M 17.613281 14.582031 " fill-opacity="1" fill-rule="nonzero"/><path fill="#7dc9c3" d="M 17.550781 12.3125 L 17.292969 13.207031 L 17.246094 13.191406 L 17.503906 12.296875 Z M 17.550781 12.3125 " fill-opacity="1" fill-rule="nonzero"/><path fill="#7dc9c3" d="M 17.324219 11.765625 C 17.320312 11.769531 16.796875 12.554688 16.402344 12.738281 L 16.378906 12.691406 C 16.765625 12.515625 17.28125 11.738281 17.28125 11.738281 Z M 17.324219 11.765625 " fill-opacity="1" fill-rule="nonzero"/><path fill="#534054" d="M 15.476562 7.320312 C 15.476562 7.320312 15.882812 7.355469 16.027344 7.785156 L 15.980469 7.800781 C 15.847656 7.402344 15.472656 7.371094 15.46875 7.371094 Z M 15.476562 7.320312 " fill-opacity="1" fill-rule="nonzero"/></svg>