<svg xmlns="http://www.w3.org/2000/svg" xmlns:xlink="http://www.w3.org/1999/xlink" width="40" zoomAndPan="magnify" viewBox="0 0 30 30.000001" height="40" preserveAspectRatio="xMidYMid meet" version="1.0"><defs><clipPath id="44eaa9e6aa"><path d="M 7 20 L 26 20 L 26 24.675781 L 7 24.675781 Z M 7 20 " clip-rule="nonzero"/></clipPath><clipPath id="6dacb198e6"><path d="M 11 4.355469 L 14 4.355469 L 14 7 L 11 7 Z M 11 4.355469 " clip-rule="nonzero"/></clipPath><clipPath id="8928029d1d"><path d="M 10 4.355469 L 15 4.355469 L 15 8 L 10 8 Z M 10 4.355469 " clip-rule="nonzero"/></clipPath><clipPath id="0cb089fb9b"><path d="M 11 23 L 13 23 L 13 24.675781 L 11 24.675781 Z M 11 23 " clip-rule="nonzero"/></clipPath><clipPath id="4d39464409"><path d="M 12 23 L 13 23 L 13 24.675781 L 12 24.675781 Z M 12 23 " clip-rule="nonzero"/></clipPath></defs><path fill="#e3f0ff" d="M 21.59375 23.304688 L 8.171875 23.304688 C 8.171875 23.304688 3.398438 12.042969 11.859375 9.769531 C 16.417969 8.542969 17.101562 12.101562 18.675781 14.03125 C 20.148438 15.835938 23.371094 14.820312 24.71875 17.058594 C 26.601562 20.191406 24.292969 23.707031 24.292969 23.707031 Z M 21.59375 23.304688 " fill-opacity="1" fill-rule="nonzero"/><path fill="#46294e" d="M 6.828125 20.160156 C 6.828125 20.160156 6.882812 21.1875 7.148438 21.894531 C 7.167969 21.941406 7.578125 23.125 7.597656 23.171875 C 8.113281 23.171875 7.8125 22.828125 8.277344 22.8125 C 8.433594 22.808594 8.851562 22.804688 8.90625 22.816406 C 8.859375 22.4375 8.683594 21.535156 7.96875 21 C 7.046875 20.308594 6.828125 20.160156 6.828125 20.160156 Z M 6.828125 20.160156 " fill-opacity="1" fill-rule="nonzero"/><path fill="#ffffff" d="M 8.316406 22.847656 C 8.304688 22.847656 8.296875 22.839844 8.292969 22.828125 C 8.003906 22.0625 7.519531 20.996094 6.859375 20.269531 C 6.847656 20.257812 6.847656 20.242188 6.859375 20.230469 C 6.871094 20.21875 6.886719 20.222656 6.898438 20.230469 C 7.566406 20.964844 8.050781 22.039062 8.34375 22.808594 C 8.347656 22.824219 8.339844 22.839844 8.328125 22.847656 C 8.324219 22.847656 8.320312 22.847656 8.316406 22.847656 Z M 8.316406 22.847656 " fill-opacity="1" fill-rule="nonzero"/><path fill="#55a2ff" d="M 7.28125 19.820312 C 7.742188 20.226562 7.65625 20.277344 7.636719 20.773438 C 7.636719 20.855469 7.628906 20.929688 7.625 21 C 7.601562 21.34375 7.730469 21.847656 8.046875 22.261719 C 8.300781 22.59375 8.394531 22.542969 8.402344 22.78125 C 8.453125 22.792969 8.507812 22.804688 8.5625 22.816406 C 8.710938 22.847656 9.671875 22.808594 9.820312 22.816406 C 9.8125 22.695312 9.742188 22.164062 9.617188 21.894531 C 9.574219 21.792969 9.53125 21.726562 9.492188 21.679688 C 9.414062 21.582031 9.347656 21.558594 9.292969 21.492188 C 9.257812 21.449219 9.152344 20.84375 8.941406 20.277344 C 8.828125 19.976562 8.726562 19.792969 8.59375 19.644531 C 8.480469 19.511719 8.339844 19.40625 8.148438 19.273438 C 7.742188 18.980469 7.972656 18.316406 7.429688 18.386719 C 6.886719 18.453125 6.820312 19.410156 7.28125 19.820312 Z M 7.28125 19.820312 " fill-opacity="1" fill-rule="nonzero"/><path fill="#46294e" d="M 9.042969 22.847656 C 9.039062 22.847656 9.039062 22.847656 9.035156 22.847656 C 9.019531 22.839844 9.007812 22.824219 9.011719 22.804688 C 9.09375 22.480469 9 22.160156 8.726562 21.855469 C 8.421875 21.507812 8.410156 21.136719 8.402344 20.8125 C 8.394531 20.597656 8.390625 20.398438 8.300781 20.234375 C 8.195312 20.039062 8.015625 19.84375 7.839844 19.65625 C 7.640625 19.4375 7.46875 19.25 7.433594 19.089844 C 7.375 18.808594 7.394531 18.402344 7.398438 18.382812 C 7.398438 18.363281 7.414062 18.351562 7.433594 18.351562 C 7.449219 18.351562 7.464844 18.367188 7.464844 18.386719 C 7.460938 18.390625 7.441406 18.804688 7.5 19.078125 C 7.527344 19.21875 7.703125 19.410156 7.890625 19.613281 C 8.066406 19.804688 8.246094 20 8.359375 20.203125 C 8.453125 20.378906 8.460938 20.589844 8.464844 20.808594 C 8.476562 21.125 8.484375 21.480469 8.777344 21.808594 C 9.0625 22.132812 9.164062 22.472656 9.074219 22.820312 C 9.070312 22.835938 9.058594 22.847656 9.042969 22.847656 Z M 9.042969 22.847656 " fill-opacity="1" fill-rule="nonzero"/><g clip-path="url(#44eaa9e6aa)"><path fill="#ffc06e" d="M 7.84375 22.96875 C 8.902344 21.953125 10.296875 21.316406 12.011719 20.601562 C 13.726562 19.882812 14.621094 20.082031 16.277344 20.773438 C 17.933594 21.464844 18.113281 22.164062 19.078125 22.425781 C 20.042969 22.691406 20.3125 22.566406 21.035156 22.425781 C 21.753906 22.289062 22.109375 22.011719 22.867188 22.671875 C 23.625 23.332031 26.308594 23.742188 24.398438 24.246094 C 22.78125 24.675781 20.394531 24.539062 19.011719 24.285156 C 17.628906 24.03125 16.933594 23.621094 15.734375 23.886719 C 14.53125 24.152344 13.53125 24.632812 11.378906 24.628906 C 9.226562 24.621094 7.464844 23.933594 7.070312 23.632812 C 6.796875 23.417969 7.691406 23.117188 7.84375 22.96875 Z M 7.84375 22.96875 " fill-opacity="1" fill-rule="nonzero"/></g><path fill="#55a2ff" d="M 19.582031 22.796875 C 19.582031 22.796875 18.566406 22.304688 18.519531 22.242188 C 18.472656 22.179688 18.25 21.039062 18.394531 20.292969 C 18.535156 19.546875 18.929688 17.867188 19.097656 17.742188 C 19.265625 17.613281 19.074219 17.566406 19.214844 17.15625 C 19.359375 16.742188 19.675781 15.984375 19.8125 15.46875 C 19.945312 14.953125 19.984375 15.089844 20.03125 14.605469 C 20.082031 14.121094 20.375 13.457031 20.390625 13.289062 C 20.40625 13.125 20.390625 12.824219 20.539062 12.5625 C 20.691406 12.300781 20.785156 12.039062 20.832031 11.933594 C 20.878906 11.832031 20.9375 11.785156 20.945312 11.722656 C 20.953125 11.65625 21.171875 12.054688 21.285156 12.226562 C 21.394531 12.402344 21.507812 12.546875 21.507812 12.546875 L 21.640625 11.96875 L 21.640625 12.617188 L 22.070312 13.140625 L 22.210938 12.816406 C 22.210938 12.816406 22.15625 13.125 22.210938 13.296875 C 22.265625 13.472656 22.734375 14.082031 22.734375 14.082031 C 22.734375 14.082031 23.019531 13.265625 22.789062 12.765625 C 22.558594 12.269531 22.464844 12.15625 22.496094 12.179688 C 22.527344 12.203125 22.789062 12.441406 22.789062 12.441406 C 22.789062 12.441406 22.664062 12.125 22.402344 11.824219 C 22.140625 11.523438 22.019531 11.398438 22.019531 11.398438 C 22.019531 11.398438 22.335938 11.492188 22.464844 11.570312 C 22.589844 11.648438 22.640625 11.683594 22.640625 11.683594 L 22.511719 11.207031 L 22.820312 11.746094 C 22.820312 11.746094 22.941406 11.824219 23.066406 11.917969 L 23.191406 12.015625 L 23.191406 11.585938 L 23.359375 12.085938 L 23.976562 12.554688 C 23.976562 12.554688 23.675781 11.429688 23.40625 11.207031 C 23.136719 10.984375 22.71875 10.761719 22.828125 10.769531 C 22.941406 10.777344 23.753906 10.984375 23.753906 10.984375 C 23.753906 10.984375 22.914062 10.566406 22.828125 10.515625 C 22.742188 10.46875 21.433594 10.550781 21.433594 10.550781 C 21.433594 10.550781 21.785156 10.4375 21.902344 10.414062 C 22.019531 10.390625 21.878906 10.144531 21.878906 10.144531 L 22.148438 10.34375 C 22.148438 10.34375 23.097656 10.128906 23.082031 10.105469 C 23.066406 10.082031 22.519531 9.734375 22.519531 9.734375 L 23.328125 9.9375 C 23.328125 9.9375 22.804688 9.457031 22.289062 9.457031 C 21.773438 9.457031 21.308594 9.890625 21.308594 9.890625 C 21.308594 9.890625 21.402344 8.988281 21.402344 8.933594 C 21.402344 8.878906 21.046875 8.703125 20.824219 8.648438 C 20.601562 8.59375 20.460938 8.617188 20.332031 8.519531 C 20.207031 8.425781 19.785156 8.292969 19.746094 8.277344 C 19.707031 8.261719 18.820312 8.519531 18.820312 8.519531 C 18.820312 8.519531 19.4375 8.773438 19.46875 8.78125 C 19.5 8.789062 19.777344 8.839844 19.777344 8.839844 L 19.605469 8.894531 L 20.03125 9.164062 L 20.46875 9.125 C 20.46875 9.125 20.152344 9.1875 20.191406 9.273438 C 20.230469 9.359375 20.347656 9.574219 20.347656 9.574219 C 20.347656 9.574219 19.613281 9.226562 19.476562 9.179688 C 19.34375 9.132812 18.34375 9.082031 18.34375 9.082031 L 17.246094 9.613281 L 18.027344 9.867188 L 18.550781 9.695312 L 18.367188 9.9375 C 18.367188 9.9375 19.035156 10.066406 19.136719 10.035156 C 19.242188 10.003906 19.699219 9.75 19.699219 9.75 L 19.453125 10.027344 L 19.859375 10.273438 L 18.882812 10.304688 L 19.136719 10.535156 L 18.703125 10.375 C 18.703125 10.375 18.257812 10.476562 18.210938 10.492188 C 18.164062 10.507812 17.839844 10.714844 17.6875 10.828125 C 17.539062 10.9375 17.355469 11.136719 17.355469 11.136719 C 17.355469 11.136719 17.6875 11.199219 17.949219 11.191406 L 18.210938 11.183594 L 18.511719 10.820312 C 18.511719 10.820312 18.359375 11.167969 18.417969 11.175781 C 18.472656 11.183594 18.804688 11.207031 19.035156 11.183594 C 19.035156 11.183594 18.757812 11.371094 18.535156 11.546875 C 18.3125 11.722656 18.3125 11.832031 18.3125 11.832031 L 18.613281 11.714844 L 18.304688 11.941406 L 18.140625 12.488281 L 18.433594 12.441406 L 18.179688 12.601562 C 18.179688 12.601562 18.117188 13.417969 18.117188 13.449219 C 18.117188 13.480469 18.636719 13.21875 18.765625 13.109375 C 18.890625 12.996094 19.011719 12.925781 19.011719 12.925781 L 19.042969 12.5625 L 19.144531 12.757812 L 19.582031 12.472656 L 19.722656 11.769531 C 19.722656 11.769531 19.683594 12.332031 19.714844 12.300781 C 19.746094 12.269531 20.128906 11.925781 20.128906 11.925781 L 20.183594 11.640625 C 20.183594 11.640625 20.324219 11.910156 20.246094 12.03125 C 20.167969 12.148438 19.945312 13.132812 19.953125 13.351562 C 19.960938 13.574219 19.484375 14.84375 19.46875 14.953125 C 19.453125 15.0625 19.027344 16.585938 18.835938 16.902344 C 18.644531 17.21875 18.773438 17.519531 18.566406 17.851562 C 18.359375 18.183594 18.125 19.5625 17.996094 19.847656 C 17.871094 20.132812 17.703125 20.816406 17.621094 21.070312 C 17.539062 21.324219 17.457031 21.828125 17.109375 22.210938 C 16.761719 22.589844 16.492188 22.621094 16.144531 22.714844 C 15.792969 22.8125 15.730469 22.9375 15.96875 22.9375 C 16.207031 22.9375 16.839844 22.667969 17.332031 22.714844 C 17.824219 22.765625 19.34375 23 19.613281 23.015625 C 19.882812 23.035156 19.582031 22.796875 19.582031 22.796875 Z M 19.582031 22.796875 " fill-opacity="1" fill-rule="nonzero"/><path fill="#55a2ff" d="M 21.34375 23.003906 L 21.34375 16.855469 C 21.34375 16.855469 21.828125 16.5 21.875 16.460938 C 21.921875 16.421875 22.15625 16.460938 22.15625 16.460938 L 22.1875 16.769531 C 22.1875 16.769531 22.226562 16.5 22.265625 16.507812 C 22.308594 16.515625 22.503906 16.59375 22.503906 16.59375 L 22.648438 23.003906 L 21.882812 23.214844 Z M 21.34375 23.003906 " fill-opacity="1" fill-rule="nonzero"/><path fill="#46294e" d="M 21.882812 23.242188 C 21.867188 23.242188 21.855469 23.230469 21.855469 23.214844 L 21.847656 17.644531 L 21.847656 16.460938 C 21.847656 16.445312 21.859375 16.433594 21.875 16.433594 C 21.890625 16.433594 21.902344 16.445312 21.902344 16.460938 L 21.902344 17.644531 L 21.910156 23.214844 C 21.910156 23.230469 21.898438 23.242188 21.882812 23.242188 Z M 21.882812 23.242188 " fill-opacity="1" fill-rule="nonzero"/><path fill="#46294e" d="M 21.6875 23.117188 C 21.671875 23.117188 21.660156 23.105469 21.660156 23.089844 L 21.660156 21.257812 C 21.660156 21.242188 21.671875 21.230469 21.6875 21.230469 C 21.703125 21.230469 21.714844 21.242188 21.714844 21.257812 L 21.714844 23.089844 C 21.714844 23.105469 21.703125 23.117188 21.6875 23.117188 Z M 21.6875 23.117188 " fill-opacity="1" fill-rule="nonzero"/><path fill="#46294e" d="M 21.503906 21.089844 C 21.488281 21.089844 21.476562 21.078125 21.476562 21.0625 L 21.476562 19.125 C 21.476562 19.109375 21.488281 19.097656 21.503906 19.097656 C 21.519531 19.097656 21.53125 19.109375 21.53125 19.125 L 21.53125 21.0625 C 21.53125 21.078125 21.519531 21.089844 21.503906 21.089844 Z M 21.503906 21.089844 " fill-opacity="1" fill-rule="nonzero"/><path fill="#46294e" d="M 21.6875 18.933594 C 21.671875 18.933594 21.660156 18.921875 21.660156 18.90625 L 21.660156 16.917969 C 21.660156 16.902344 21.671875 16.890625 21.6875 16.890625 C 21.703125 16.890625 21.714844 16.902344 21.714844 16.917969 L 21.714844 18.90625 C 21.714844 18.921875 21.703125 18.933594 21.6875 18.933594 Z M 21.6875 18.933594 " fill-opacity="1" fill-rule="nonzero"/><path fill="#46294e" d="M 21.4375 18.195312 C 21.421875 18.195312 21.410156 18.183594 21.410156 18.167969 L 21.410156 16.917969 C 21.410156 16.902344 21.421875 16.890625 21.4375 16.890625 C 21.453125 16.890625 21.464844 16.902344 21.464844 16.917969 L 21.464844 18.167969 C 21.464844 18.183594 21.453125 18.195312 21.4375 18.195312 Z M 21.4375 18.195312 " fill-opacity="1" fill-rule="nonzero"/><path fill="#46294e" d="M 22.1875 17.867188 C 22.171875 17.867188 22.160156 17.855469 22.160156 17.839844 L 22.160156 16.769531 C 22.160156 16.753906 22.171875 16.742188 22.1875 16.742188 C 22.203125 16.742188 22.214844 16.753906 22.214844 16.769531 L 22.214844 17.839844 C 22.214844 17.855469 22.203125 17.867188 22.1875 17.867188 Z M 22.1875 17.867188 " fill-opacity="1" fill-rule="nonzero"/><path fill="#46294e" d="M 20.535156 19.121094 L 20.859375 19.164062 L 23.3125 18.078125 L 24.109375 16.90625 L 24.109375 16.714844 L 23.203125 17.960938 Z M 20.535156 19.121094 " fill-opacity="1" fill-rule="nonzero"/><path fill="#46294e" d="M 22.335938 20.121094 C 22.320312 20.121094 22.308594 20.109375 22.308594 20.09375 L 22.308594 18.851562 C 22.308594 18.835938 22.320312 18.824219 22.335938 18.824219 C 22.351562 18.824219 22.363281 18.835938 22.363281 18.851562 L 22.363281 20.09375 C 22.363281 20.109375 22.351562 20.121094 22.335938 20.121094 Z M 22.335938 20.121094 " fill-opacity="1" fill-rule="nonzero"/><path fill="#46294e" d="M 22.335938 23.117188 C 22.320312 23.117188 22.308594 23.105469 22.308594 23.089844 L 22.308594 21.816406 C 22.308594 21.800781 22.320312 21.789062 22.335938 21.789062 C 22.351562 21.789062 22.363281 21.800781 22.363281 21.816406 L 22.363281 23.089844 C 22.363281 23.105469 22.351562 23.117188 22.335938 23.117188 Z M 22.335938 23.117188 " fill-opacity="1" fill-rule="nonzero"/><path fill="#46294e" d="M 21.882812 23.242188 C 21.878906 23.242188 21.875 23.242188 21.875 23.238281 L 21.332031 23.027344 C 21.324219 23.023438 21.316406 23.011719 21.316406 23.003906 L 21.316406 16.855469 C 21.316406 16.847656 21.320312 16.839844 21.328125 16.832031 C 21.332031 16.828125 21.8125 16.480469 21.855469 16.441406 C 21.90625 16.398438 22.101562 16.425781 22.160156 16.433594 C 22.171875 16.4375 22.183594 16.445312 22.183594 16.460938 L 22.195312 16.585938 C 22.210938 16.539062 22.226562 16.5 22.242188 16.488281 C 22.25 16.480469 22.261719 16.480469 22.273438 16.480469 C 22.3125 16.488281 22.492188 16.558594 22.511719 16.566406 C 22.523438 16.570312 22.53125 16.582031 22.53125 16.59375 L 22.679688 23 C 22.679688 23.015625 22.667969 23.023438 22.65625 23.027344 L 21.890625 23.242188 C 21.886719 23.242188 21.886719 23.242188 21.882812 23.242188 Z M 21.371094 22.984375 L 21.886719 23.1875 L 22.621094 22.980469 L 22.476562 16.613281 C 22.40625 16.585938 22.308594 16.546875 22.273438 16.539062 C 22.253906 16.566406 22.230469 16.679688 22.214844 16.773438 C 22.214844 16.789062 22.203125 16.796875 22.1875 16.796875 C 22.175781 16.796875 22.164062 16.785156 22.160156 16.773438 L 22.132812 16.484375 C 22.027344 16.46875 21.914062 16.464844 21.890625 16.484375 C 21.847656 16.519531 21.445312 16.816406 21.371094 16.871094 Z M 21.371094 22.984375 " fill-opacity="1" fill-rule="nonzero"/><path fill="#55a2ff" d="M 18.636719 19.613281 L 18.738281 19.550781 L 19.640625 18.992188 L 24.429688 19.671875 L 24.429688 20.164062 L 24.238281 20.21875 L 24.460938 20.257812 L 24.5 20.949219 L 19.65625 20.488281 L 18.996094 19.972656 L 19.164062 19.777344 L 18.914062 19.851562 C 18.894531 19.855469 18.636719 19.613281 18.636719 19.613281 Z M 18.636719 19.613281 " fill-opacity="1" fill-rule="nonzero"/><path fill="#55a2ff" d="M 20.152344 19.066406 C 20.152344 19.066406 20.097656 19.078125 20.085938 19.015625 C 20.074219 18.953125 20.050781 18.488281 20.050781 18.488281 L 20.171875 18.347656 L 20.050781 18.390625 L 20.050781 18.027344 L 23.117188 16.398438 L 24.109375 16.703125 L 23.199219 17.957031 L 20.574219 19.125 Z M 20.152344 19.066406 " fill-opacity="1" fill-rule="nonzero"/><path fill="#46294e" d="M 18.636719 19.613281 L 18.707031 19.679688 C 18.707031 19.679688 18.894531 19.855469 18.90625 19.851562 C 18.914062 19.851562 19.179688 19.765625 19.179688 19.765625 L 19.007812 19.953125 C 19.007812 19.953125 18.980469 19.976562 19.054688 20.015625 C 19.128906 20.058594 19.65625 20.503906 19.65625 20.503906 L 24.484375 20.953125 L 24.324219 21.0625 L 19.574219 20.636719 L 18.984375 20.15625 L 19 19.992188 L 18.902344 20.019531 C 18.902344 20.019531 18.890625 20.035156 18.863281 20.015625 C 18.839844 19.996094 18.632812 19.832031 18.632812 19.832031 Z M 18.636719 19.613281 " fill-opacity="1" fill-rule="nonzero"/><path fill="#ffffff" d="M 19.265625 20.179688 C 19.265625 20.179688 19.308594 20.167969 19.332031 20.179688 C 19.355469 20.1875 19.792969 20.234375 19.988281 20.230469 C 20.183594 20.230469 20.359375 20.242188 20.683594 20.160156 C 21.003906 20.078125 21.109375 19.988281 21.148438 19.960938 C 21.183594 19.933594 21.175781 19.910156 21.152344 19.914062 C 21.128906 19.921875 21.097656 19.90625 21.101562 19.894531 C 21.105469 19.882812 21.109375 19.890625 21.050781 19.902344 C 20.992188 19.917969 20.9375 19.90625 20.9375 19.859375 C 20.941406 19.8125 21.023438 19.753906 21.023438 19.753906 C 21.023438 19.753906 21.101562 19.539062 21.300781 19.496094 C 21.503906 19.449219 21.871094 19.378906 22.105469 19.480469 C 22.339844 19.578125 22.484375 19.800781 22.484375 19.800781 C 22.484375 19.800781 22.542969 19.886719 22.5625 19.871094 C 22.582031 19.851562 22.902344 19.785156 23.121094 19.847656 C 23.34375 19.914062 23.425781 20.035156 23.519531 20.171875 C 23.613281 20.308594 23.664062 20.433594 23.90625 20.535156 C 24.222656 20.671875 24.484375 20.664062 24.484375 20.664062 L 24.5 20.949219 L 19.65625 20.488281 Z M 19.265625 20.179688 " fill-opacity="1" fill-rule="nonzero"/><path fill="#46294e" d="M 20.859375 19.191406 C 20.847656 19.191406 20.835938 19.1875 20.832031 19.175781 C 20.828125 19.164062 20.832031 19.144531 20.847656 19.140625 L 23.292969 18.054688 L 24.082031 16.898438 L 24.082031 16.722656 L 23.117188 16.425781 L 20.078125 18.042969 L 20.078125 18.351562 L 20.160156 18.320312 C 20.171875 18.316406 20.1875 18.320312 20.191406 18.332031 C 20.199219 18.339844 20.199219 18.355469 20.191406 18.363281 C 20.144531 18.417969 20.089844 18.476562 20.078125 18.496094 C 20.078125 18.542969 20.105469 18.851562 20.125 19.054688 C 20.125 19.070312 20.113281 19.082031 20.101562 19.085938 C 20.085938 19.085938 20.070312 19.074219 20.070312 19.058594 C 20.019531 18.496094 20.019531 18.484375 20.023438 18.480469 C 20.023438 18.476562 20.027344 18.464844 20.078125 18.40625 L 20.058594 18.414062 C 20.050781 18.417969 20.039062 18.417969 20.035156 18.410156 C 20.027344 18.40625 20.023438 18.398438 20.023438 18.390625 L 20.023438 18.027344 C 20.023438 18.019531 20.027344 18.007812 20.035156 18.003906 L 23.101562 16.371094 C 23.109375 16.367188 23.117188 16.367188 23.125 16.371094 L 24.117188 16.675781 C 24.128906 16.679688 24.136719 16.6875 24.136719 16.703125 L 24.136719 16.90625 C 24.136719 16.914062 24.132812 16.917969 24.132812 16.921875 L 23.335938 18.09375 C 23.332031 18.097656 23.328125 18.101562 23.324219 18.101562 L 20.871094 19.191406 C 20.867188 19.191406 20.863281 19.191406 20.859375 19.191406 Z M 20.074219 18.5 Z M 20.074219 18.5 " fill-opacity="1" fill-rule="nonzero"/><path fill="#46294e" d="M 24.324219 21.089844 L 19.570312 20.664062 C 19.566406 20.664062 19.5625 20.660156 19.558594 20.65625 L 18.96875 20.179688 C 18.960938 20.171875 18.957031 20.164062 18.957031 20.15625 L 18.972656 20.023438 L 18.890625 20.050781 C 18.878906 20.054688 18.871094 20.054688 18.863281 20.046875 L 18.621094 19.851562 C 18.613281 19.847656 18.609375 19.839844 18.609375 19.832031 L 18.609375 19.613281 C 18.609375 19.605469 18.613281 19.597656 18.621094 19.589844 L 19.625 18.96875 C 19.628906 18.964844 19.636719 18.964844 19.644531 18.964844 L 24.433594 19.644531 C 24.445312 19.648438 24.457031 19.660156 24.457031 19.671875 L 24.457031 20.164062 C 24.457031 20.175781 24.449219 20.1875 24.4375 20.191406 L 24.363281 20.210938 L 24.46875 20.230469 C 24.480469 20.230469 24.488281 20.242188 24.488281 20.253906 L 24.527344 20.949219 C 24.53125 20.960938 24.523438 20.96875 24.515625 20.972656 L 24.339844 21.085938 C 24.335938 21.089844 24.332031 21.089844 24.324219 21.089844 Z M 19.585938 20.609375 L 24.316406 21.035156 L 24.472656 20.9375 L 24.4375 20.28125 L 24.234375 20.242188 C 24.222656 20.242188 24.214844 20.230469 24.210938 20.21875 C 24.210938 20.207031 24.21875 20.195312 24.234375 20.191406 L 24.402344 20.144531 L 24.402344 19.695312 L 19.644531 19.019531 L 18.664062 19.628906 L 18.664062 19.816406 L 18.882812 19.996094 L 18.996094 19.957031 C 19.003906 19.953125 19.011719 19.953125 19.019531 19.960938 C 19.027344 19.964844 19.03125 19.976562 19.03125 19.984375 L 19.011719 20.144531 Z M 19.585938 20.609375 " fill-opacity="1" fill-rule="nonzero"/><path fill="#46294e" d="M 20.566406 19.152344 C 20.554688 19.152344 20.546875 19.144531 20.539062 19.132812 C 20.535156 19.121094 20.542969 19.105469 20.554688 19.097656 L 23.1875 17.925781 L 24.085938 16.683594 C 24.09375 16.671875 24.113281 16.671875 24.125 16.679688 C 24.136719 16.6875 24.140625 16.707031 24.132812 16.71875 L 23.226562 17.964844 C 23.222656 17.96875 23.21875 17.972656 23.214844 17.976562 L 20.578125 19.148438 C 20.574219 19.148438 20.570312 19.152344 20.566406 19.152344 Z M 20.566406 19.152344 " fill-opacity="1" fill-rule="nonzero"/><path fill="#46294e" d="M 23.289062 18.113281 C 23.28125 18.113281 23.273438 18.109375 23.265625 18.101562 L 23.179688 17.964844 C 23.171875 17.953125 23.175781 17.933594 23.191406 17.925781 C 23.203125 17.917969 23.21875 17.921875 23.226562 17.933594 L 23.3125 18.074219 C 23.320312 18.085938 23.316406 18.101562 23.304688 18.109375 C 23.300781 18.113281 23.292969 18.113281 23.289062 18.113281 Z M 23.289062 18.113281 " fill-opacity="1" fill-rule="nonzero"/><path fill="#46294e" d="M 23.785156 17.410156 C 23.777344 17.410156 23.769531 17.402344 23.761719 17.394531 L 23.683594 17.269531 C 23.675781 17.257812 23.679688 17.242188 23.691406 17.234375 C 23.703125 17.226562 23.722656 17.230469 23.730469 17.242188 L 23.808594 17.367188 C 23.816406 17.378906 23.8125 17.394531 23.800781 17.402344 C 23.796875 17.40625 23.792969 17.410156 23.785156 17.410156 Z M 23.785156 17.410156 " fill-opacity="1" fill-rule="nonzero"/><path fill="#46294e" d="M 23.605469 17.671875 C 23.597656 17.671875 23.589844 17.667969 23.585938 17.660156 L 23.492188 17.535156 C 23.484375 17.523438 23.488281 17.503906 23.5 17.496094 C 23.511719 17.488281 23.53125 17.492188 23.539062 17.503906 L 23.628906 17.628906 C 23.636719 17.640625 23.632812 17.660156 23.621094 17.667969 C 23.617188 17.671875 23.613281 17.671875 23.605469 17.671875 Z M 23.605469 17.671875 " fill-opacity="1" fill-rule="nonzero"/><path fill="#46294e" d="M 22.738281 18.359375 C 22.726562 18.359375 22.71875 18.355469 22.714844 18.347656 L 22.625 18.210938 C 22.617188 18.199219 22.621094 18.183594 22.632812 18.171875 C 22.648438 18.164062 22.664062 18.167969 22.671875 18.183594 L 22.761719 18.316406 C 22.769531 18.332031 22.765625 18.347656 22.753906 18.355469 C 22.746094 18.359375 22.742188 18.359375 22.738281 18.359375 Z M 22.738281 18.359375 " fill-opacity="1" fill-rule="nonzero"/><path fill="#46294e" d="M 21.570312 18.878906 C 21.5625 18.878906 21.554688 18.875 21.550781 18.871094 L 21.421875 18.757812 C 21.410156 18.746094 21.40625 18.730469 21.417969 18.71875 C 21.429688 18.707031 21.445312 18.703125 21.457031 18.714844 L 21.585938 18.828125 C 21.597656 18.839844 21.601562 18.855469 21.589844 18.867188 C 21.585938 18.875 21.578125 18.878906 21.570312 18.878906 Z M 21.570312 18.878906 " fill-opacity="1" fill-rule="nonzero"/><path fill="#46294e" d="M 21.109375 19.082031 C 21.105469 19.082031 21.097656 19.078125 21.09375 19.074219 L 20.964844 18.957031 C 20.957031 18.945312 20.953125 18.929688 20.964844 18.917969 C 20.976562 18.90625 20.992188 18.90625 21.003906 18.917969 L 21.128906 19.03125 C 21.140625 19.042969 21.140625 19.0625 21.132812 19.070312 C 21.125 19.078125 21.117188 19.082031 21.109375 19.082031 Z M 21.109375 19.082031 " fill-opacity="1" fill-rule="nonzero"/><path fill="#46294e" d="M 24.5 20.976562 L 19.652344 20.515625 C 19.648438 20.515625 19.644531 20.515625 19.640625 20.511719 C 19.40625 20.324219 19.027344 20.023438 18.992188 20.007812 C 18.980469 20 18.972656 19.992188 18.972656 19.980469 C 18.96875 19.960938 18.972656 19.933594 19.066406 19.835938 C 19.070312 19.832031 19.074219 19.832031 19.078125 19.828125 L 18.90625 19.882812 C 18.894531 19.886719 18.882812 19.882812 18.878906 19.875 L 18.617188 19.632812 C 18.605469 19.625 18.605469 19.605469 18.617188 19.59375 C 18.628906 19.585938 18.644531 19.582031 18.65625 19.59375 L 18.902344 19.824219 L 19.171875 19.738281 C 19.183594 19.734375 19.199219 19.738281 19.203125 19.75 C 19.210938 19.761719 19.210938 19.777344 19.199219 19.785156 C 19.128906 19.851562 19.050781 19.933594 19.03125 19.964844 C 19.125 20.027344 19.527344 20.351562 19.667969 20.460938 L 24.503906 20.921875 C 24.519531 20.925781 24.53125 20.9375 24.527344 20.953125 C 24.527344 20.96875 24.515625 20.976562 24.5 20.976562 Z M 19.015625 19.957031 Z M 19.015625 19.957031 " fill-opacity="1" fill-rule="nonzero"/><path fill="#46294e" d="M 18.878906 20.054688 C 18.878906 20.054688 18.878906 20.054688 18.875 20.054688 C 18.863281 20.054688 18.851562 20.039062 18.851562 20.023438 L 18.867188 19.855469 C 18.871094 19.839844 18.882812 19.828125 18.898438 19.828125 C 18.914062 19.832031 18.925781 19.84375 18.921875 19.859375 L 18.90625 20.03125 C 18.90625 20.042969 18.894531 20.054688 18.878906 20.054688 Z M 18.878906 20.054688 " fill-opacity="1" fill-rule="nonzero"/><path fill="#46294e" d="M 19.574219 20.664062 C 19.570312 20.664062 19.566406 20.664062 19.5625 20.660156 C 19.546875 20.652344 19.542969 20.636719 19.550781 20.625 L 19.632812 20.476562 C 19.640625 20.460938 19.65625 20.457031 19.667969 20.464844 C 19.683594 20.472656 19.6875 20.488281 19.679688 20.503906 L 19.597656 20.648438 C 19.59375 20.660156 19.582031 20.664062 19.574219 20.664062 Z M 19.574219 20.664062 " fill-opacity="1" fill-rule="nonzero"/><path fill="#46294e" d="M 19.25 20.402344 C 19.246094 20.402344 19.242188 20.402344 19.242188 20.398438 C 19.226562 20.394531 19.21875 20.378906 19.226562 20.363281 L 19.285156 20.203125 C 19.289062 20.191406 19.304688 20.183594 19.320312 20.1875 C 19.335938 20.195312 19.34375 20.210938 19.335938 20.222656 L 19.277344 20.382812 C 19.273438 20.394531 19.261719 20.402344 19.25 20.402344 Z M 19.25 20.402344 " fill-opacity="1" fill-rule="nonzero"/><path fill="#46294e" d="M 20.6875 20.761719 C 20.683594 20.761719 20.683594 20.761719 20.679688 20.761719 C 20.667969 20.761719 20.65625 20.746094 20.660156 20.730469 L 20.691406 20.585938 C 20.695312 20.570312 20.707031 20.558594 20.722656 20.5625 C 20.738281 20.566406 20.746094 20.582031 20.746094 20.597656 L 20.714844 20.742188 C 20.710938 20.753906 20.699219 20.761719 20.6875 20.761719 Z M 20.6875 20.761719 " fill-opacity="1" fill-rule="nonzero"/><path fill="#46294e" d="M 22.527344 20.929688 C 22.527344 20.929688 22.527344 20.929688 22.523438 20.929688 C 22.507812 20.925781 22.5 20.910156 22.503906 20.894531 L 22.53125 20.761719 C 22.53125 20.746094 22.546875 20.734375 22.5625 20.738281 C 22.578125 20.742188 22.585938 20.757812 22.582031 20.769531 L 22.554688 20.90625 C 22.554688 20.917969 22.542969 20.929688 22.527344 20.929688 Z M 22.527344 20.929688 " fill-opacity="1" fill-rule="nonzero"/><path fill="#46294e" d="M 23.742188 21.039062 C 23.738281 21.039062 23.734375 21.035156 23.730469 21.035156 C 23.714844 21.03125 23.710938 21.011719 23.714844 21 L 23.769531 20.871094 C 23.777344 20.859375 23.792969 20.851562 23.804688 20.859375 C 23.820312 20.863281 23.824219 20.878906 23.820312 20.894531 L 23.765625 21.019531 C 23.761719 21.03125 23.75 21.039062 23.742188 21.039062 Z M 23.742188 21.039062 " fill-opacity="1" fill-rule="nonzero"/><path fill="#46294e" d="M 20.085938 18.9375 L 21.132812 17.644531 L 21.875 17.753906 C 21.875 17.753906 22.207031 17.324219 22.234375 17.320312 C 22.261719 17.3125 23.539062 17.488281 23.539062 17.488281 L 23.203125 17.949219 L 20.574219 19.125 L 20.097656 19.058594 Z M 20.085938 18.9375 " fill-opacity="1" fill-rule="nonzero"/><path fill="#46294e" d="M 20.0625 20.261719 C 19.65625 20.261719 19.269531 20.199219 19.246094 20.195312 C 19.230469 20.191406 19.222656 20.175781 19.222656 20.164062 C 19.226562 20.148438 19.238281 20.136719 19.253906 20.140625 C 19.265625 20.140625 20.148438 20.285156 20.652344 20.140625 C 21.105469 20.011719 21.15625 19.917969 21.15625 19.910156 C 21.160156 19.894531 21.171875 19.886719 21.1875 19.886719 C 21.203125 19.890625 21.214844 19.902344 21.210938 19.917969 C 21.210938 19.945312 21.160156 20.050781 20.667969 20.195312 C 20.488281 20.242188 20.273438 20.261719 20.0625 20.261719 Z M 21.15625 19.914062 Z M 21.15625 19.914062 Z M 21.15625 19.910156 Z M 21.15625 19.910156 " fill-opacity="1" fill-rule="nonzero"/><path fill="#46294e" d="M 21.953125 20.277344 C 21.941406 20.277344 21.933594 20.273438 21.929688 20.261719 C 21.921875 20.25 21.925781 20.234375 21.941406 20.226562 C 21.941406 20.222656 22.25 20.058594 22.199219 19.878906 C 22.183594 19.832031 22.148438 19.804688 22.09375 19.789062 C 21.96875 19.757812 21.792969 19.820312 21.761719 19.851562 C 21.714844 19.902344 21.636719 19.925781 21.597656 19.914062 C 21.578125 19.929688 21.550781 19.949219 21.523438 19.941406 C 21.492188 19.9375 21.476562 19.917969 21.464844 19.898438 C 21.4375 19.933594 21.390625 19.984375 21.328125 19.988281 C 21.28125 19.992188 21.238281 19.976562 21.210938 19.949219 C 21.203125 19.941406 21.195312 19.933594 21.191406 19.925781 C 21.171875 19.9375 21.148438 19.949219 21.121094 19.941406 C 21.105469 19.9375 21.09375 19.929688 21.085938 19.917969 C 21.054688 19.933594 21.011719 19.945312 20.960938 19.925781 C 20.925781 19.910156 20.914062 19.886719 20.914062 19.871094 C 20.90625 19.816406 20.972656 19.757812 21 19.738281 C 21.011719 19.695312 21.082031 19.523438 21.324219 19.460938 C 21.59375 19.386719 21.976562 19.367188 22.179688 19.484375 C 22.382812 19.605469 22.558594 19.847656 22.566406 19.859375 C 22.574219 19.871094 22.570312 19.886719 22.558594 19.898438 C 22.546875 19.90625 22.53125 19.902344 22.519531 19.890625 C 22.519531 19.886719 22.34375 19.648438 22.152344 19.53125 C 21.960938 19.421875 21.597656 19.445312 21.335938 19.511719 C 21.097656 19.578125 21.050781 19.757812 21.050781 19.761719 C 21.046875 19.765625 21.042969 19.773438 21.039062 19.777344 C 21.003906 19.804688 20.964844 19.847656 20.96875 19.863281 C 20.96875 19.867188 20.976562 19.871094 20.980469 19.875 C 21.046875 19.898438 21.082031 19.847656 21.085938 19.84375 C 21.09375 19.828125 21.109375 19.824219 21.125 19.832031 C 21.136719 19.839844 21.140625 19.855469 21.136719 19.867188 C 21.132812 19.875 21.132812 19.886719 21.132812 19.890625 C 21.140625 19.890625 21.160156 19.882812 21.171875 19.875 C 21.1875 19.867188 21.207031 19.859375 21.222656 19.867188 C 21.230469 19.871094 21.238281 19.878906 21.238281 19.898438 C 21.242188 19.910156 21.269531 19.9375 21.324219 19.933594 C 21.367188 19.933594 21.40625 19.882812 21.429688 19.859375 C 21.441406 19.84375 21.445312 19.835938 21.457031 19.832031 C 21.484375 19.816406 21.5 19.851562 21.507812 19.859375 C 21.515625 19.871094 21.519531 19.886719 21.53125 19.886719 C 21.535156 19.890625 21.546875 19.886719 21.574219 19.859375 C 21.578125 19.851562 21.597656 19.835938 21.617188 19.847656 C 21.617188 19.851562 21.621094 19.855469 21.625 19.859375 C 21.648438 19.859375 21.691406 19.847656 21.722656 19.816406 C 21.765625 19.769531 21.964844 19.703125 22.105469 19.734375 C 22.179688 19.753906 22.230469 19.796875 22.25 19.867188 C 22.316406 20.085938 21.980469 20.265625 21.964844 20.273438 C 21.960938 20.277344 21.957031 20.277344 21.953125 20.277344 Z M 21.953125 20.277344 " fill-opacity="1" fill-rule="nonzero"/><path fill="#46294e" d="M 24.484375 20.691406 C 24.472656 20.691406 24.125 20.691406 23.804688 20.515625 C 23.667969 20.441406 23.605469 20.351562 23.535156 20.242188 C 23.492188 20.179688 23.445312 20.105469 23.371094 20.023438 C 23.191406 19.820312 22.835938 19.828125 22.65625 19.867188 C 22.5625 19.882812 22.398438 19.996094 22.351562 20.066406 C 22.34375 20.078125 22.34375 20.085938 22.34375 20.089844 C 22.347656 20.09375 22.351562 20.097656 22.359375 20.097656 C 22.390625 20.097656 22.433594 20.066406 22.453125 20.046875 C 22.460938 20.039062 22.476562 20.039062 22.488281 20.046875 C 22.496094 20.054688 22.5 20.066406 22.496094 20.074219 C 22.5 20.078125 22.503906 20.089844 22.523438 20.109375 C 22.523438 20.109375 22.53125 20.113281 22.535156 20.113281 C 22.539062 20.113281 22.546875 20.105469 22.550781 20.097656 C 22.558594 20.089844 22.5625 20.082031 22.5625 20.082031 C 22.570312 20.070312 22.585938 20.070312 22.597656 20.074219 C 22.609375 20.082031 22.613281 20.097656 22.609375 20.113281 C 22.605469 20.113281 22.605469 20.117188 22.601562 20.125 C 22.597656 20.128906 22.597656 20.128906 22.597656 20.132812 C 22.601562 20.132812 22.605469 20.140625 22.621094 20.144531 C 22.664062 20.160156 22.699219 20.089844 22.699219 20.085938 C 22.703125 20.078125 22.714844 20.070312 22.726562 20.070312 C 22.738281 20.074219 22.746094 20.082031 22.75 20.09375 L 22.753906 20.113281 C 22.761719 20.113281 22.769531 20.109375 22.773438 20.105469 C 22.785156 20.097656 22.800781 20.097656 22.808594 20.109375 C 22.816406 20.121094 22.816406 20.136719 22.808594 20.144531 C 22.796875 20.15625 22.773438 20.191406 22.777344 20.21875 C 22.777344 20.230469 22.78125 20.234375 22.785156 20.234375 C 22.796875 20.238281 22.8125 20.234375 22.828125 20.226562 C 22.832031 20.222656 22.839844 20.21875 22.847656 20.214844 C 22.910156 20.167969 23.078125 20.042969 23.226562 20.101562 C 23.304688 20.132812 23.339844 20.199219 23.320312 20.289062 C 23.316406 20.308594 23.289062 20.410156 23.25 20.410156 C 23.234375 20.410156 23.222656 20.398438 23.222656 20.382812 C 23.222656 20.375 23.226562 20.367188 23.234375 20.363281 C 23.246094 20.347656 23.28125 20.277344 23.269531 20.21875 C 23.261719 20.1875 23.242188 20.167969 23.207031 20.152344 C 23.085938 20.105469 22.9375 20.214844 22.878906 20.257812 C 22.871094 20.265625 22.863281 20.269531 22.859375 20.273438 C 22.828125 20.292969 22.789062 20.296875 22.761719 20.285156 C 22.738281 20.273438 22.726562 20.253906 22.722656 20.226562 C 22.71875 20.207031 22.722656 20.1875 22.730469 20.167969 C 22.726562 20.164062 22.71875 20.164062 22.714844 20.160156 C 22.691406 20.1875 22.652344 20.214844 22.601562 20.195312 C 22.582031 20.191406 22.5625 20.179688 22.554688 20.164062 C 22.550781 20.167969 22.546875 20.167969 22.542969 20.167969 C 22.527344 20.171875 22.507812 20.167969 22.484375 20.144531 C 22.472656 20.132812 22.464844 20.125 22.457031 20.113281 C 22.429688 20.132812 22.394531 20.152344 22.359375 20.152344 C 22.335938 20.152344 22.316406 20.140625 22.300781 20.125 C 22.292969 20.113281 22.28125 20.09375 22.292969 20.0625 C 22.324219 19.972656 22.53125 19.835938 22.644531 19.8125 C 22.835938 19.773438 23.214844 19.765625 23.410156 19.984375 C 23.488281 20.070312 23.539062 20.144531 23.582031 20.214844 C 23.652344 20.316406 23.707031 20.398438 23.832031 20.46875 C 24.136719 20.636719 24.480469 20.636719 24.484375 20.636719 C 24.5 20.636719 24.511719 20.652344 24.511719 20.664062 C 24.511719 20.679688 24.5 20.691406 24.484375 20.691406 Z M 23.25 20.355469 Z M 23.25 20.355469 Z M 23.25 20.355469 Z M 23.25 20.355469 Z M 23.25 20.355469 Z M 23.25 20.355469 Z M 23.25 20.355469 Z M 23.25 20.355469 Z M 23.25 20.355469 Z M 23.25 20.355469 Z M 22.492188 20.085938 Z M 22.492188 20.085938 Z M 22.492188 20.085938 Z M 22.492188 20.085938 " fill-opacity="1" fill-rule="nonzero"/><path fill="#46294e" d="M 21.40625 20.683594 C 21.394531 20.683594 21.382812 20.675781 21.378906 20.660156 C 21.378906 20.644531 21.386719 20.632812 21.402344 20.628906 C 21.40625 20.628906 21.792969 20.554688 22.070312 20.464844 C 22.335938 20.378906 22.445312 20.0625 22.445312 20.058594 C 22.449219 20.046875 22.464844 20.039062 22.480469 20.042969 C 22.492188 20.046875 22.5 20.0625 22.496094 20.078125 C 22.492188 20.089844 22.378906 20.421875 22.085938 20.519531 C 21.804688 20.609375 21.414062 20.683594 21.410156 20.683594 C 21.410156 20.683594 21.410156 20.683594 21.40625 20.683594 Z M 21.40625 20.683594 " fill-opacity="1" fill-rule="nonzero"/><path fill="#ffffff" d="M 23.054688 16.777344 C 23.164062 16.839844 23.179688 16.9375 23.105469 17.066406 C 23.03125 17.195312 22.9375 17.226562 22.828125 17.164062 C 22.71875 17.101562 22.703125 17.003906 22.777344 16.875 C 22.851562 16.746094 22.945312 16.714844 23.054688 16.777344 Z M 23.054688 16.777344 " fill-opacity="1" fill-rule="nonzero"/><path fill="#55a2ff" d="M 14.53125 15.832031 L 14.53125 22.550781 L 12.308594 23.558594 L 11.316406 23.359375 L 10.378906 23.171875 L 9.496094 22.800781 L 9.496094 16.097656 C 9.496094 15.675781 9.820312 15.324219 10.242188 15.289062 L 12.550781 15.097656 Z M 14.53125 15.832031 " fill-opacity="1" fill-rule="nonzero"/><path fill="#ffffff" d="M 12.863281 22.855469 C 12.828125 22.863281 12.792969 22.839844 12.792969 22.800781 L 12.792969 16.539062 C 12.792969 16.515625 12.808594 16.492188 12.832031 16.488281 C 12.867188 16.476562 12.902344 16.503906 12.902344 16.539062 L 12.902344 22.800781 C 12.902344 22.824219 12.886719 22.847656 12.863281 22.855469 Z M 12.863281 22.855469 " fill-opacity="1" fill-rule="nonzero"/><path fill="#ffffff" d="M 13.332031 22.667969 C 13.296875 22.679688 13.261719 22.652344 13.261719 22.617188 L 13.261719 16.421875 C 13.261719 16.394531 13.277344 16.375 13.300781 16.367188 C 13.335938 16.359375 13.371094 16.382812 13.371094 16.421875 L 13.371094 22.617188 C 13.371094 22.640625 13.355469 22.664062 13.332031 22.667969 Z M 13.332031 22.667969 " fill-opacity="1" fill-rule="nonzero"/><path fill="#ffffff" d="M 13.800781 22.445312 C 13.761719 22.457031 13.726562 22.429688 13.726562 22.394531 L 13.726562 16.300781 C 13.726562 16.277344 13.746094 16.253906 13.769531 16.25 C 13.804688 16.238281 13.839844 16.265625 13.839844 16.300781 L 13.839844 22.394531 C 13.839844 22.417969 13.824219 22.4375 13.800781 22.445312 Z M 13.800781 22.445312 " fill-opacity="1" fill-rule="nonzero"/><path fill="#ffffff" d="M 14.265625 22.25 C 14.230469 22.261719 14.195312 22.234375 14.195312 22.199219 L 14.195312 16.179688 C 14.195312 16.15625 14.210938 16.136719 14.234375 16.128906 C 14.269531 16.121094 14.304688 16.144531 14.304688 16.179688 L 14.304688 22.199219 C 14.304688 22.222656 14.289062 22.246094 14.265625 22.25 Z M 14.265625 22.25 " fill-opacity="1" fill-rule="nonzero"/><path fill="#ffc06e" d="M 9.835938 9.925781 C 9.835938 9.925781 9.910156 10.878906 9.902344 11.007812 C 9.894531 11.136719 10.09375 11.4375 10.097656 11.589844 C 10.101562 11.738281 10.078125 12.132812 9.980469 12.390625 C 9.882812 12.648438 9.726562 13.296875 9.714844 13.542969 C 9.703125 13.785156 9.972656 14.367188 10.285156 14.613281 C 10.597656 14.859375 11.765625 14.6875 11.886719 14.539062 C 12.003906 14.386719 12.421875 10.957031 11.804688 10.09375 C 11.191406 9.234375 10.605469 9.273438 10.445312 9.449219 C 10.289062 9.628906 9.835938 9.925781 9.835938 9.925781 Z M 9.835938 9.925781 " fill-opacity="1" fill-rule="nonzero"/><path fill="#46294e" d="M 10.6875 10.09375 C 10.6875 10.09375 9.933594 10.695312 9.878906 10.734375 C 9.820312 10.773438 9.820312 11.074219 9.878906 11.050781 C 9.933594 11.027344 10.824219 10.441406 10.824219 10.441406 Z M 10.6875 10.09375 " fill-opacity="1" fill-rule="nonzero"/><path fill="#46294e" d="M 10.65625 9.816406 C 10.515625 9.769531 9.929688 10.085938 9.964844 10.363281 C 10 10.640625 10.042969 10.882812 9.835938 10.660156 C 9.628906 10.433594 9.480469 10.035156 9.703125 9.625 C 9.925781 9.21875 10.011719 9.167969 10.398438 9.019531 C 10.785156 8.871094 10.769531 8.550781 10.824219 8.832031 C 10.882812 9.113281 10.65625 9.816406 10.65625 9.816406 Z M 10.65625 9.816406 " fill-opacity="1" fill-rule="nonzero"/><path fill="#46294e" d="M 10.953125 12.316406 C 10.804688 12.207031 10.082031 12.347656 9.964844 12.449219 C 9.847656 12.554688 9.707031 12.828125 9.835938 12.820312 C 9.964844 12.8125 10.722656 12.539062 10.875 12.625 C 11.023438 12.710938 10.953125 12.316406 10.953125 12.316406 Z M 10.953125 12.316406 " fill-opacity="1" fill-rule="nonzero"/><path fill="#46294e" d="M 15.621094 21.691406 C 15.605469 21.6875 15.332031 21.648438 15.304688 21.890625 C 15.277344 22.132812 15.019531 22.671875 15.152344 22.835938 C 15.285156 23.003906 15.546875 23.09375 16.121094 23.082031 C 16.695312 23.070312 17.351562 23.167969 17.5625 23.167969 C 17.773438 23.167969 18.210938 22.691406 17.707031 22.355469 C 17.207031 22.019531 16.441406 21.890625 16.414062 21.886719 C 16.386719 21.882812 15.621094 21.691406 15.621094 21.691406 Z M 15.621094 21.691406 " fill-opacity="1" fill-rule="nonzero"/><path fill="#ffbba2" d="M 15.804688 20.925781 L 15.46875 21.933594 C 15.46875 21.933594 15.664062 22.089844 15.957031 22.078125 C 16.25 22.070312 16.507812 22.039062 16.507812 22.039062 L 16.664062 21.246094 Z M 15.804688 20.925781 " fill-opacity="1" fill-rule="nonzero"/><path fill="#46294e" d="M 16.011719 22.105469 C 15.953125 22.105469 15.894531 22.105469 15.84375 22.097656 C 15.597656 22.066406 15.457031 21.960938 15.453125 21.957031 C 15.441406 21.949219 15.4375 21.9375 15.441406 21.925781 L 15.78125 20.917969 C 15.78125 20.910156 15.789062 20.90625 15.792969 20.902344 C 15.800781 20.898438 15.808594 20.898438 15.816406 20.902344 L 16.679688 21.191406 C 16.691406 21.195312 16.699219 21.207031 16.699219 21.21875 C 16.699219 21.234375 16.609375 21.675781 16.535156 22.042969 C 16.53125 22.054688 16.523438 22.0625 16.511719 22.066406 C 16.496094 22.066406 16.238281 22.105469 16.011719 22.105469 Z M 15.5 21.921875 C 15.542969 21.949219 15.667969 22.019531 15.851562 22.042969 C 16.058594 22.070312 16.398438 22.027344 16.484375 22.015625 C 16.542969 21.730469 16.621094 21.332031 16.640625 21.234375 L 15.824219 20.960938 Z M 15.5 21.921875 " fill-opacity="1" fill-rule="nonzero"/><path fill="#ffffff" d="M 17.417969 22.972656 C 17.414062 22.972656 17.414062 22.972656 17.410156 22.972656 C 17.195312 22.894531 16.722656 22.882812 16.265625 22.875 C 16.144531 22.871094 16.019531 22.867188 15.898438 22.863281 C 15.335938 22.847656 15.121094 22.570312 15.113281 22.558594 C 15.101562 22.546875 15.105469 22.527344 15.117188 22.519531 C 15.128906 22.507812 15.148438 22.511719 15.15625 22.523438 C 15.15625 22.527344 15.363281 22.792969 15.902344 22.808594 C 16.019531 22.8125 16.144531 22.816406 16.265625 22.820312 C 16.726562 22.828125 17.203125 22.839844 17.429688 22.917969 C 17.441406 22.925781 17.449219 22.941406 17.445312 22.953125 C 17.441406 22.964844 17.429688 22.972656 17.417969 22.972656 Z M 17.417969 22.972656 " fill-opacity="1" fill-rule="nonzero"/><path fill="#46294e" d="M 17.128906 21.246094 C 17.128906 21.246094 17.117188 21.238281 16.824219 21.574219 C 16.535156 21.910156 16.328125 22.125 16.449219 22.316406 C 16.566406 22.503906 16.867188 22.71875 17.308594 23.011719 C 17.75 23.304688 17.894531 23.566406 18.476562 23.761719 C 19.0625 23.960938 19.449219 23.730469 19.363281 23.605469 C 19.277344 23.476562 18.96875 23.390625 18.851562 23.019531 C 18.730469 22.648438 18.613281 21.914062 18.507812 21.800781 C 18.40625 21.691406 18.257812 21.582031 18.257812 21.570312 C 18.253906 21.5625 17.070312 21.203125 17.128906 21.246094 Z M 17.128906 21.246094 " fill-opacity="1" fill-rule="nonzero"/><path fill="#ffbba2" d="M 17.160156 20.726562 L 17.132812 21.769531 C 17.132812 21.769531 17.308594 22.113281 17.722656 22.03125 C 18.136719 21.945312 18.28125 21.777344 18.28125 21.777344 L 18.140625 20.457031 Z M 17.160156 20.726562 " fill-opacity="1" fill-rule="nonzero"/><path fill="#46294e" d="M 14.113281 15.816406 C 14.1875 15.855469 14.898438 16.765625 15.550781 17.230469 C 16.203125 17.691406 16.203125 17.703125 16.128906 17.941406 C 16.058594 18.175781 15.796875 19.492188 15.726562 19.980469 C 15.65625 20.464844 15.53125 20.941406 15.578125 20.96875 C 15.628906 20.996094 16.203125 21.265625 16.453125 21.300781 C 16.707031 21.339844 16.777344 21.371094 16.777344 21.300781 C 16.777344 21.234375 17.101562 20.199219 17.101562 20.164062 C 17.101562 20.125 17.71875 16.933594 17.007812 16.378906 C 16.296875 15.824219 14.113281 15.816406 14.113281 15.816406 Z M 14.113281 15.816406 " fill-opacity="1" fill-rule="nonzero"/><path fill="#55a2ff" d="M 13.148438 8.585938 C 13.148438 8.585938 14.167969 8.417969 14.789062 8.804688 C 15.40625 9.191406 15.769531 9.355469 15.917969 9.214844 C 16.070312 9.070312 16.125 8.597656 16.125 8.597656 C 16.125 8.597656 16.390625 8.785156 16.589844 8.722656 C 16.789062 8.660156 16.894531 8.5625 16.894531 8.5625 C 16.894531 8.5625 17.269531 9.25 17.007812 10.023438 C 16.839844 10.53125 15.964844 10.636719 15.527344 10.777344 C 15.085938 10.921875 14.519531 11.277344 14.125 11.167969 C 13.734375 11.0625 12.75 9.78125 12.898438 9.449219 C 13.046875 9.117188 13.148438 8.585938 13.148438 8.585938 Z M 13.148438 8.585938 " fill-opacity="1" fill-rule="nonzero"/><path fill="#55a2ff" d="M 11.703125 7.800781 C 11.363281 7.960938 10.621094 8.269531 10.574219 9.382812 C 10.527344 10.496094 10.855469 11.546875 10.804688 12.207031 C 10.757812 12.867188 10.972656 13.46875 10.816406 13.753906 C 10.664062 14.039062 10.496094 14.015625 10.867188 14.429688 C 11.234375 14.847656 11.269531 15.058594 11.445312 15.09375 C 11.625 15.128906 12.324219 14.515625 12.898438 14.085938 C 13.472656 13.660156 14.339844 13.566406 14.636719 13.730469 C 14.933594 13.898438 14.933594 13.578125 14.886719 13.542969 C 14.835938 13.503906 14.28125 12.792969 14.398438 11.75 C 14.519531 10.707031 14.695312 10.292969 14.53125 9.640625 C 14.363281 8.988281 13.980469 8.167969 13.773438 8.085938 C 13.570312 8.003906 11.703125 7.800781 11.703125 7.800781 Z M 11.703125 7.800781 " fill-opacity="1" fill-rule="nonzero"/><path fill="#46294e" d="M 12.453125 9.875 C 12.453125 9.875 12.164062 10.425781 11.894531 10.703125 C 11.679688 10.925781 11.496094 11.164062 11.503906 11.300781 C 11.515625 11.433594 11.46875 12.074219 11.925781 11.699219 C 12.464844 11.253906 12.890625 10.640625 13.015625 10.285156 C 13.140625 9.929688 12.453125 9.875 12.453125 9.875 Z M 12.453125 9.875 " fill-opacity="1" fill-rule="nonzero"/><path fill="#46294e" d="M 11.613281 11.242188 C 11.613281 11.242188 11.179688 12.320312 11.011719 12.617188 C 10.84375 12.910156 10.664062 13.265625 10.6875 13.347656 C 10.714844 13.433594 10.71875 13.617188 10.804688 13.507812 C 10.890625 13.394531 11.679688 11.824219 11.726562 11.6875 C 11.773438 11.550781 11.613281 11.242188 11.613281 11.242188 Z M 11.613281 11.242188 " fill-opacity="1" fill-rule="nonzero"/><g clip-path="url(#6dacb198e6)"><path fill="#ffc06e" d="M 11.40625 6.03125 C 11.40625 6.03125 11.421875 5.253906 11.679688 4.992188 C 11.9375 4.726562 12.394531 4.542969 12.554688 4.496094 C 12.710938 4.449219 13.199219 4.59375 13.390625 4.800781 C 13.585938 5.007812 11.488281 6.183594 11.488281 6.183594 Z M 11.40625 6.03125 " fill-opacity="1" fill-rule="nonzero"/><path fill="#46294e" d="M 11.425781 6.105469 C 11.425781 6.105469 11.367188 5.949219 11.425781 5.855469 C 11.484375 5.761719 12.238281 5.265625 12.554688 5.074219 C 12.871094 4.886719 13.277344 4.699219 13.328125 4.71875 C 13.382812 4.738281 13.472656 4.820312 13.492188 4.84375 C 13.515625 4.863281 11.425781 6.105469 11.425781 6.105469 Z M 11.425781 6.105469 " fill-opacity="1" fill-rule="nonzero"/></g><g clip-path="url(#8928029d1d)"><path fill="#ffc06e" d="M 11.53125 7.800781 C 10.988281 7.648438 10.570312 6.648438 11.707031 5.753906 C 12.847656 4.863281 14.113281 4.355469 14.566406 5.027344 C 15.015625 5.699219 14.308594 6.582031 13.421875 7.203125 C 12.539062 7.824219 12.007812 7.9375 11.53125 7.800781 Z M 11.53125 7.800781 " fill-opacity="1" fill-rule="nonzero"/></g><path fill="#46294e" d="M 13.773438 5.613281 C 13.867188 5.648438 14.320312 6.304688 14.210938 6.6875 C 14.097656 7.066406 14.398438 7.160156 14.574219 7.5 C 14.746094 7.84375 14.921875 8.125 14.636719 8.585938 C 14.351562 9.042969 13.566406 8.65625 13.398438 8.480469 C 13.230469 8.308594 13.125 7.660156 13.148438 7.257812 C 13.171875 6.855469 13.773438 5.613281 13.773438 5.613281 Z M 13.773438 5.613281 " fill-opacity="1" fill-rule="nonzero"/><path fill="#46294e" d="M 15.617188 6.859375 C 15.625 6.859375 16.207031 6.863281 16.207031 6.863281 C 16.207031 6.863281 16.714844 6.808594 16.71875 6.789062 C 16.722656 6.769531 16.71875 6.53125 16.71875 6.53125 C 16.71875 6.53125 16.816406 6.292969 16.761719 5.960938 C 16.707031 5.628906 16.40625 5.636719 16.40625 5.636719 C 16.40625 5.636719 16.25 5.683594 16.21875 5.636719 C 16.1875 5.589844 16.242188 5.574219 16.285156 5.570312 C 16.328125 5.566406 16.351562 5.484375 16.285156 5.410156 C 16.222656 5.335938 15.683594 5.347656 15.617188 5.351562 C 15.550781 5.355469 15.503906 5.449219 15.472656 5.476562 C 15.441406 5.507812 15.125 5.726562 15.074219 5.945312 C 15.023438 6.160156 15.113281 6.613281 15.121094 6.628906 C 15.128906 6.644531 15.617188 6.859375 15.617188 6.859375 Z M 15.617188 6.859375 " fill-opacity="1" fill-rule="nonzero"/><path fill="#55a2ff" d="M 16.730469 6.183594 C 16.730469 6.300781 16.710938 6.398438 16.664062 6.484375 C 16.621094 6.566406 16.570312 6.609375 16.507812 6.609375 C 16.445312 6.609375 16.394531 6.566406 16.351562 6.484375 C 16.308594 6.398438 16.285156 6.300781 16.285156 6.183594 C 16.285156 6.0625 16.308594 5.964844 16.351562 5.878906 C 16.394531 5.796875 16.445312 5.753906 16.507812 5.753906 C 16.570312 5.753906 16.621094 5.796875 16.664062 5.878906 C 16.710938 5.964844 16.730469 6.0625 16.730469 6.183594 Z M 16.730469 6.183594 " fill-opacity="1" fill-rule="nonzero"/><path fill="#ffbba2" d="M 16.125 8.597656 C 16.125 8.597656 16.359375 8.738281 16.589844 8.722656 C 16.816406 8.707031 16.894531 8.5625 16.894531 8.5625 L 16.6875 7.746094 C 16.6875 7.746094 16.675781 7.707031 16.71875 7.679688 C 16.757812 7.652344 16.816406 7.628906 16.898438 7.332031 C 16.976562 7.035156 17 6.9375 16.972656 6.902344 C 16.941406 6.863281 16.890625 6.78125 16.894531 6.730469 C 16.894531 6.675781 16.910156 6.546875 16.8125 6.527344 C 16.71875 6.507812 16.457031 6.558594 16.371094 6.570312 C 16.289062 6.585938 16.238281 6.605469 16.265625 6.648438 C 16.289062 6.691406 16.378906 6.769531 16.339844 6.785156 C 16.300781 6.800781 16.21875 6.867188 16.21875 6.867188 L 15.828125 6.855469 C 15.828125 6.855469 15.828125 7.230469 15.921875 7.359375 C 16.011719 7.488281 16.101562 7.632812 16.109375 7.683594 C 16.117188 7.734375 16.125 8.597656 16.125 8.597656 Z M 16.125 8.597656 " fill-opacity="1" fill-rule="nonzero"/><path fill="#ffbba2" d="M 13.773438 8.523438 C 13.773438 8.523438 13.871094 8.730469 14.082031 8.820312 C 14.296875 8.914062 14.527344 8.910156 14.527344 8.910156 C 14.527344 8.910156 14.964844 7.8125 15.09375 7.625 C 15.222656 7.433594 15.441406 7.277344 15.511719 7.117188 C 15.585938 6.957031 15.632812 6.832031 15.710938 6.789062 C 15.789062 6.746094 15.984375 6.683594 15.960938 6.632812 C 15.9375 6.582031 15.945312 6.542969 15.785156 6.53125 C 15.625 6.515625 15.542969 6.542969 15.558594 6.53125 C 15.574219 6.519531 15.667969 6.421875 15.761719 6.453125 C 15.855469 6.480469 15.882812 6.527344 15.933594 6.476562 C 15.980469 6.429688 16.035156 6.277344 15.976562 6.234375 C 15.917969 6.1875 15.894531 6.183594 15.902344 6.128906 C 15.914062 6.070312 15.976562 5.871094 15.851562 5.800781 C 15.722656 5.730469 15.53125 5.746094 15.5 5.773438 C 15.472656 5.800781 15.21875 6.03125 15.1875 6.019531 C 15.160156 6.011719 15.507812 5.660156 15.550781 5.675781 C 15.589844 5.6875 15.753906 5.761719 15.75 5.707031 C 15.746094 5.648438 15.746094 5.507812 15.625 5.433594 C 15.5 5.359375 15.34375 5.472656 15.296875 5.503906 C 15.246094 5.535156 15.039062 5.664062 15.015625 5.699219 C 14.996094 5.738281 14.613281 7.007812 14.613281 7.007812 C 14.613281 7.007812 14.554688 7.269531 14.457031 7.425781 C 14.363281 7.585938 13.773438 8.523438 13.773438 8.523438 Z M 13.773438 8.523438 " fill-opacity="1" fill-rule="nonzero"/><path fill="#ffbba2" d="M 12.605469 5.996094 C 12.605469 5.996094 12.550781 5.726562 12.707031 5.636719 C 12.863281 5.546875 13.078125 5.410156 13.273438 5.375 C 13.464844 5.339844 13.789062 5.34375 13.789062 5.34375 C 13.789062 5.34375 14.015625 6 13.9375 6.578125 C 13.859375 7.152344 13.777344 7.332031 13.683594 7.417969 C 13.589844 7.503906 13.40625 7.59375 13.378906 7.664062 C 13.347656 7.730469 13.28125 8.058594 13.289062 8.242188 C 13.296875 8.425781 13.34375 8.648438 13.34375 8.648438 C 13.34375 8.648438 13.277344 8.796875 13.101562 8.804688 C 12.929688 8.808594 12.773438 8.660156 12.777344 8.585938 C 12.777344 8.515625 12.605469 5.996094 12.605469 5.996094 Z M 12.605469 5.996094 " fill-opacity="1" fill-rule="nonzero"/><path fill="#46294e" d="M 11.59375 6.757812 C 11.59375 6.757812 11.804688 6.398438 12.082031 6.097656 C 12.355469 5.796875 12.628906 5.65625 12.628906 5.65625 C 12.628906 5.65625 12.902344 6.050781 12.78125 6.515625 C 12.660156 6.976562 12.75 7.304688 12.90625 7.460938 C 13.066406 7.621094 13.296875 8.269531 13.019531 8.511719 C 12.738281 8.753906 12.792969 8.871094 12.957031 9.144531 C 13.117188 9.417969 12.675781 9.589844 12.445312 9.296875 C 12.210938 9 12.191406 8.757812 11.980469 8.671875 C 11.769531 8.585938 11.34375 8.484375 11.148438 8.195312 C 10.953125 7.90625 11.328125 7.53125 11.484375 7.308594 C 11.644531 7.089844 11.59375 6.757812 11.59375 6.757812 Z M 11.59375 6.757812 " fill-opacity="1" fill-rule="nonzero"/><path fill="#46294e" d="M 13.300781 7.613281 C 12.898438 7.613281 12.695312 7.246094 12.695312 7.242188 C 12.6875 7.230469 12.691406 7.214844 12.703125 7.207031 C 12.71875 7.199219 12.734375 7.203125 12.742188 7.21875 C 12.75 7.234375 12.964844 7.617188 13.394531 7.550781 C 13.8125 7.488281 13.859375 6.925781 13.898438 6.433594 L 13.902344 6.394531 C 13.941406 5.941406 13.796875 5.460938 13.765625 5.367188 C 13.699219 5.359375 13.4375 5.339844 13.1875 5.429688 C 12.84375 5.558594 12.574219 5.757812 12.570312 5.761719 C 12.558594 5.769531 12.542969 5.769531 12.53125 5.753906 C 12.523438 5.742188 12.527344 5.726562 12.539062 5.71875 C 12.539062 5.714844 12.820312 5.507812 13.167969 5.378906 C 13.46875 5.265625 13.777344 5.3125 13.792969 5.316406 C 13.800781 5.316406 13.808594 5.324219 13.8125 5.332031 C 13.816406 5.339844 14 5.882812 13.957031 6.398438 L 13.953125 6.4375 C 13.914062 6.953125 13.867188 7.535156 13.402344 7.605469 C 13.367188 7.609375 13.332031 7.613281 13.300781 7.613281 Z M 13.300781 7.613281 " fill-opacity="1" fill-rule="nonzero"/><path fill="#55a2ff" d="M 10.710938 8.914062 C 11 8.347656 11.589844 8.515625 12.046875 8.804688 C 12.507812 9.089844 12.628906 9.285156 12.710938 9.25 C 12.796875 9.210938 13.003906 9.074219 13.277344 8.910156 C 13.550781 8.75 13.746094 8.542969 13.75 8.542969 C 13.753906 8.539062 13.796875 8.542969 13.824219 8.566406 C 13.851562 8.59375 13.960938 8.8125 14.109375 8.847656 C 14.257812 8.878906 14.519531 8.925781 14.519531 8.925781 C 14.519531 8.925781 14.359375 9.609375 14.148438 9.875 C 13.941406 10.140625 13.609375 10.585938 13.03125 10.640625 C 12.453125 10.699219 12.035156 10.597656 11.824219 10.496094 C 11.617188 10.394531 11.113281 10.09375 10.878906 9.789062 C 10.640625 9.484375 10.609375 9.109375 10.710938 8.914062 Z M 10.710938 8.914062 " fill-opacity="1" fill-rule="nonzero"/><path fill="#46294e" d="M 13.089844 8.832031 C 12.988281 8.832031 12.878906 8.785156 12.757812 8.695312 C 12.746094 8.6875 12.746094 8.671875 12.753906 8.65625 C 12.761719 8.644531 12.78125 8.644531 12.792969 8.652344 C 12.925781 8.753906 13.046875 8.792969 13.148438 8.769531 C 13.246094 8.746094 13.296875 8.671875 13.316406 8.644531 C 13.300781 8.597656 13.246094 8.417969 13.265625 8.175781 C 13.285156 7.902344 13.371094 7.574219 13.371094 7.570312 C 13.375 7.558594 13.390625 7.546875 13.40625 7.550781 C 13.417969 7.554688 13.429688 7.570312 13.425781 7.585938 C 13.421875 7.589844 13.339844 7.914062 13.320312 8.179688 C 13.300781 8.445312 13.371094 8.636719 13.371094 8.636719 C 13.375 8.644531 13.375 8.652344 13.371094 8.660156 C 13.367188 8.664062 13.304688 8.789062 13.164062 8.824219 C 13.140625 8.828125 13.113281 8.832031 13.089844 8.832031 Z M 13.089844 8.832031 " fill-opacity="1" fill-rule="nonzero"/><path fill="#46294e" d="M 14.5 8.941406 C 14.4375 8.941406 14.296875 8.933594 14.125 8.867188 C 13.890625 8.785156 13.757812 8.546875 13.75 8.535156 C 13.746094 8.527344 13.746094 8.515625 13.75 8.507812 C 13.757812 8.496094 14.410156 7.457031 14.484375 7.300781 C 14.523438 7.214844 14.660156 6.761719 14.777344 6.359375 C 14.910156 5.90625 14.96875 5.71875 14.984375 5.699219 C 15.023438 5.640625 15.28125 5.476562 15.382812 5.417969 C 15.507812 5.347656 15.632812 5.40625 15.636719 5.410156 C 15.75 5.46875 15.777344 5.628906 15.777344 5.707031 C 15.777344 5.726562 15.773438 5.738281 15.769531 5.75 C 15.828125 5.761719 15.878906 5.777344 15.910156 5.800781 C 15.984375 5.859375 15.941406 6.082031 15.925781 6.160156 C 15.953125 6.179688 15.980469 6.195312 15.996094 6.214844 C 16.0625 6.285156 16.007812 6.421875 15.953125 6.496094 C 15.941406 6.511719 15.929688 6.523438 15.917969 6.53125 C 15.929688 6.535156 15.9375 6.542969 15.949219 6.554688 C 15.96875 6.574219 15.992188 6.605469 15.988281 6.644531 C 15.976562 6.6875 15.925781 6.710938 15.847656 6.75 C 15.820312 6.761719 15.792969 6.773438 15.761719 6.792969 C 15.664062 6.839844 15.628906 6.921875 15.585938 7.023438 C 15.5625 7.082031 15.53125 7.148438 15.488281 7.21875 C 15.425781 7.3125 15.367188 7.367188 15.308594 7.417969 C 15.246094 7.476562 15.1875 7.53125 15.125 7.628906 C 15 7.824219 14.558594 8.910156 14.554688 8.921875 C 14.550781 8.929688 14.539062 8.9375 14.53125 8.9375 C 14.527344 8.9375 14.519531 8.941406 14.5 8.941406 Z M 13.808594 8.523438 C 13.839844 8.574219 13.957031 8.75 14.140625 8.816406 C 14.320312 8.882812 14.460938 8.886719 14.507812 8.886719 C 14.566406 8.742188 14.957031 7.789062 15.078125 7.601562 C 15.144531 7.492188 15.207031 7.433594 15.273438 7.378906 C 15.328125 7.324219 15.382812 7.273438 15.441406 7.1875 C 15.484375 7.125 15.511719 7.0625 15.535156 7 C 15.582031 6.894531 15.621094 6.800781 15.734375 6.742188 C 15.769531 6.726562 15.796875 6.710938 15.824219 6.699219 C 15.875 6.675781 15.929688 6.652344 15.933594 6.632812 C 15.933594 6.628906 15.933594 6.617188 15.90625 6.589844 C 15.851562 6.53125 15.640625 6.5625 15.519531 6.597656 C 15.507812 6.601562 15.492188 6.597656 15.488281 6.585938 C 15.480469 6.574219 15.484375 6.558594 15.492188 6.550781 C 15.523438 6.523438 15.691406 6.378906 15.789062 6.433594 C 15.804688 6.445312 15.820312 6.453125 15.832031 6.460938 C 15.882812 6.496094 15.886719 6.496094 15.910156 6.460938 C 15.960938 6.394531 15.992188 6.289062 15.957031 6.25 C 15.910156 6.203125 15.761719 6.136719 15.679688 6.121094 C 15.628906 6.113281 15.503906 6.226562 15.429688 6.308594 C 15.421875 6.320312 15.40625 6.324219 15.394531 6.3125 C 15.382812 6.304688 15.378906 6.285156 15.390625 6.273438 C 15.421875 6.238281 15.589844 6.050781 15.6875 6.066406 C 15.738281 6.078125 15.8125 6.101562 15.875 6.132812 C 15.898438 6.023438 15.914062 5.875 15.875 5.84375 C 15.820312 5.796875 15.625 5.785156 15.558594 5.78125 C 15.550781 5.78125 15.542969 5.78125 15.535156 5.777344 C 15.519531 5.789062 15.46875 5.839844 15.425781 5.882812 C 15.273438 6.035156 15.21875 6.078125 15.179688 6.058594 C 15.175781 6.054688 15.152344 6.042969 15.164062 6.003906 C 15.183594 5.953125 15.261719 5.859375 15.332031 5.785156 C 15.433594 5.683594 15.503906 5.636719 15.542969 5.644531 C 15.582031 5.652344 15.628906 5.671875 15.667969 5.691406 C 15.6875 5.695312 15.707031 5.707031 15.722656 5.710938 C 15.722656 5.65625 15.703125 5.507812 15.609375 5.457031 C 15.605469 5.457031 15.511719 5.410156 15.410156 5.464844 C 15.285156 5.535156 15.058594 5.6875 15.027344 5.730469 C 15.011719 5.757812 14.921875 6.070312 14.832031 6.375 C 14.710938 6.777344 14.578125 7.234375 14.535156 7.324219 C 14.464844 7.472656 13.890625 8.390625 13.808594 8.523438 Z M 15.738281 6.476562 C 15.710938 6.476562 15.671875 6.492188 15.632812 6.515625 C 15.683594 6.507812 15.742188 6.5 15.792969 6.503906 C 15.785156 6.496094 15.773438 6.488281 15.761719 6.480469 C 15.753906 6.480469 15.746094 6.476562 15.738281 6.476562 Z M 15.53125 5.699219 C 15.515625 5.699219 15.449219 5.742188 15.355469 5.84375 C 15.300781 5.898438 15.261719 5.949219 15.238281 5.984375 C 15.28125 5.949219 15.347656 5.882812 15.386719 5.84375 C 15.492188 5.742188 15.511719 5.71875 15.535156 5.722656 C 15.539062 5.722656 15.550781 5.726562 15.5625 5.726562 C 15.582031 5.726562 15.601562 5.730469 15.625 5.730469 C 15.589844 5.71875 15.558594 5.703125 15.53125 5.699219 Z M 15.53125 5.699219 " fill-opacity="1" fill-rule="nonzero"/><path fill="#46294e" d="M 16.464844 7.75 C 16.453125 7.75 16.445312 7.742188 16.441406 7.730469 C 16.433594 7.71875 16.441406 7.703125 16.457031 7.695312 C 16.464844 7.695312 16.46875 7.695312 16.484375 7.695312 C 16.539062 7.695312 16.699219 7.699219 16.773438 7.597656 C 16.871094 7.457031 16.984375 6.976562 16.949219 6.914062 C 16.90625 6.84375 16.71875 6.726562 16.675781 6.714844 C 16.640625 6.707031 16.417969 6.78125 16.335938 6.808594 C 16.304688 6.820312 16.28125 6.828125 16.265625 6.832031 C 16.242188 6.839844 16.246094 6.847656 16.246094 6.855469 C 16.246094 6.878906 16.292969 6.925781 16.359375 6.933594 C 16.4375 6.945312 16.519531 6.921875 16.566406 6.90625 C 16.589844 6.902344 16.605469 6.898438 16.617188 6.898438 C 16.632812 6.898438 16.644531 6.910156 16.644531 6.925781 C 16.644531 6.941406 16.632812 6.953125 16.617188 6.953125 C 16.613281 6.953125 16.59375 6.957031 16.582031 6.960938 C 16.527344 6.976562 16.441406 7 16.351562 6.988281 C 16.269531 6.976562 16.195312 6.917969 16.191406 6.859375 C 16.1875 6.820312 16.207031 6.792969 16.25 6.78125 C 16.265625 6.773438 16.289062 6.765625 16.316406 6.757812 C 16.535156 6.683594 16.652344 6.648438 16.691406 6.660156 C 16.742188 6.679688 16.945312 6.800781 16.996094 6.886719 C 17.03125 6.945312 16.992188 7.136719 16.964844 7.242188 C 16.929688 7.371094 16.871094 7.550781 16.816406 7.628906 C 16.726562 7.753906 16.542969 7.75 16.484375 7.75 C 16.476562 7.75 16.472656 7.75 16.472656 7.75 C 16.46875 7.75 16.46875 7.75 16.464844 7.75 Z M 16.476562 7.75 Z M 16.476562 7.75 " fill-opacity="1" fill-rule="nonzero"/><path fill="#46294e" d="M 16.664062 7.09375 C 16.660156 7.09375 16.660156 7.09375 16.65625 7.09375 C 16.546875 7.058594 16.488281 6.96875 16.488281 6.964844 C 16.476562 6.953125 16.480469 6.9375 16.496094 6.929688 C 16.507812 6.917969 16.523438 6.921875 16.53125 6.9375 C 16.535156 6.9375 16.585938 7.011719 16.671875 7.042969 C 16.6875 7.046875 16.695312 7.0625 16.691406 7.074219 C 16.6875 7.085938 16.675781 7.09375 16.664062 7.09375 Z M 16.664062 7.09375 " fill-opacity="1" fill-rule="nonzero"/><path fill="#46294e" d="M 16.4375 7.285156 C 16.421875 7.285156 16.410156 7.273438 16.410156 7.257812 C 16.410156 7.121094 16.582031 7.046875 16.589844 7.042969 C 16.601562 7.035156 16.617188 7.042969 16.625 7.054688 C 16.632812 7.070312 16.625 7.085938 16.609375 7.09375 C 16.609375 7.09375 16.464844 7.15625 16.464844 7.257812 C 16.464844 7.273438 16.453125 7.285156 16.4375 7.285156 Z M 16.4375 7.285156 " fill-opacity="1" fill-rule="nonzero"/><path fill="#46294e" d="M 16.894531 6.816406 C 16.890625 6.816406 16.890625 6.816406 16.890625 6.816406 C 16.875 6.816406 16.863281 6.800781 16.867188 6.789062 C 16.875 6.722656 16.875 6.601562 16.839844 6.566406 C 16.832031 6.558594 16.824219 6.554688 16.8125 6.554688 C 16.757812 6.554688 16.667969 6.566406 16.578125 6.574219 C 16.492188 6.585938 16.402344 6.597656 16.335938 6.601562 C 16.308594 6.601562 16.292969 6.609375 16.292969 6.625 C 16.289062 6.660156 16.332031 6.71875 16.40625 6.730469 C 16.421875 6.734375 16.429688 6.75 16.425781 6.761719 C 16.425781 6.777344 16.410156 6.789062 16.394531 6.785156 C 16.296875 6.765625 16.234375 6.683594 16.238281 6.621094 C 16.238281 6.605469 16.25 6.546875 16.335938 6.546875 C 16.398438 6.542969 16.484375 6.53125 16.570312 6.523438 C 16.667969 6.507812 16.753906 6.5 16.8125 6.5 C 16.839844 6.5 16.863281 6.507812 16.878906 6.527344 C 16.941406 6.597656 16.921875 6.773438 16.921875 6.792969 C 16.917969 6.808594 16.90625 6.816406 16.894531 6.816406 Z M 16.894531 6.816406 " fill-opacity="1" fill-rule="nonzero"/><path fill="#46294e" d="M 16.285156 7.1875 C 16.277344 7.1875 16.265625 7.183594 16.261719 7.175781 C 16.214844 7.089844 16.125 6.941406 16.085938 6.917969 C 16.070312 6.914062 16.066406 6.894531 16.074219 6.882812 C 16.082031 6.871094 16.097656 6.863281 16.113281 6.871094 C 16.175781 6.910156 16.289062 7.109375 16.308594 7.148438 C 16.316406 7.160156 16.3125 7.179688 16.300781 7.1875 C 16.292969 7.1875 16.289062 7.1875 16.285156 7.1875 Z M 16.285156 7.1875 " fill-opacity="1" fill-rule="nonzero"/><path fill="#46294e" d="M 16.542969 8.753906 C 16.421875 8.753906 16.28125 8.710938 16.125 8.628906 C 16.121094 8.625 16.117188 8.625 16.117188 8.621094 C 16.105469 8.617188 16.097656 8.609375 16.097656 8.597656 C 16.097656 8.5625 16.070312 7.6875 16.070312 7.621094 C 16.074219 7.589844 16.015625 7.53125 15.972656 7.484375 C 15.945312 7.457031 15.921875 7.433594 15.90625 7.410156 C 15.847656 7.335938 15.8125 6.957031 15.808594 6.878906 C 15.804688 6.863281 15.816406 6.851562 15.832031 6.851562 C 15.847656 6.847656 15.859375 6.859375 15.863281 6.875 C 15.875 7.042969 15.914062 7.328125 15.949219 7.378906 C 15.964844 7.398438 15.988281 7.421875 16.011719 7.445312 C 16.070312 7.503906 16.128906 7.566406 16.125 7.625 C 16.125 7.683594 16.148438 8.457031 16.152344 8.578125 C 16.355469 8.691406 16.5 8.703125 16.585938 8.695312 C 16.761719 8.679688 16.84375 8.585938 16.863281 8.554688 L 16.65625 7.730469 C 16.652344 7.714844 16.664062 7.699219 16.675781 7.695312 C 16.691406 7.691406 16.707031 7.703125 16.710938 7.714844 L 16.917969 8.554688 C 16.921875 8.5625 16.921875 8.570312 16.917969 8.574219 C 16.914062 8.582031 16.824219 8.730469 16.589844 8.75 C 16.574219 8.75 16.558594 8.753906 16.542969 8.753906 Z M 16.117188 8.621094 Z M 16.117188 8.621094 " fill-opacity="1" fill-rule="nonzero"/><path fill="#46294e" d="M 16.300781 6.382812 C 16.351562 6.578125 16.515625 6.660156 16.605469 6.5 C 16.699219 6.339844 16.683594 6.242188 16.675781 6.207031 C 16.648438 6.09375 16.496094 6.101562 16.515625 6.230469 C 16.539062 6.433594 16.441406 6.359375 16.398438 6.296875 C 16.359375 6.234375 16.394531 6.078125 16.433594 6.054688 C 16.472656 6.03125 16.40625 5.90625 16.480469 5.921875 C 16.558594 5.941406 16.621094 5.921875 16.550781 5.859375 C 16.5 5.8125 16.433594 5.824219 16.394531 5.863281 C 16.300781 5.949219 16.25 6.191406 16.300781 6.382812 Z M 16.300781 6.382812 " fill-opacity="1" fill-rule="nonzero"/><path fill="#ffffff" d="M 16.617188 6.070312 C 16.613281 6.046875 16.59375 6.042969 16.570312 6.015625 C 16.542969 5.984375 16.566406 5.933594 16.609375 5.96875 C 16.675781 6.023438 16.65625 6.109375 16.644531 6.109375 C 16.628906 6.113281 16.621094 6.089844 16.617188 6.070312 Z M 16.617188 6.070312 " fill-opacity="1" fill-rule="nonzero"/><path fill="#46294e" d="M 12.898438 9.171875 C 12.890625 9.171875 12.882812 9.167969 12.875 9.160156 C 12.867188 9.144531 12.871094 9.128906 12.882812 9.121094 C 13.214844 8.898438 13.753906 8.503906 13.757812 8.5 C 13.769531 8.492188 13.789062 8.492188 13.796875 8.503906 C 13.804688 8.519531 13.804688 8.535156 13.789062 8.542969 C 13.785156 8.546875 13.246094 8.945312 12.914062 9.167969 C 12.910156 9.167969 12.902344 9.171875 12.898438 9.171875 Z M 12.898438 9.171875 " fill-opacity="1" fill-rule="nonzero"/><path fill="#46294e" d="M 12.691406 10.691406 C 12.382812 10.691406 12.128906 10.632812 11.949219 10.574219 C 11.65625 10.472656 11.496094 10.351562 11.488281 10.347656 C 11.476562 10.335938 11.476562 10.320312 11.484375 10.308594 C 11.492188 10.296875 11.511719 10.292969 11.523438 10.300781 C 11.523438 10.304688 11.6875 10.425781 11.96875 10.523438 C 12.230469 10.609375 12.652344 10.695312 13.175781 10.589844 C 13.695312 10.484375 14.027344 10.035156 14.214844 9.675781 C 14.417969 9.28125 14.5 8.910156 14.5 8.90625 C 14.503906 8.890625 14.519531 8.882812 14.535156 8.886719 C 14.546875 8.886719 14.558594 8.902344 14.554688 8.917969 C 14.554688 8.921875 14.472656 9.300781 14.265625 9.699219 C 13.988281 10.230469 13.617188 10.558594 13.1875 10.644531 C 13.007812 10.679688 12.84375 10.691406 12.691406 10.691406 Z M 12.691406 10.691406 " fill-opacity="1" fill-rule="nonzero"/><path fill="#46294e" d="M 14.234375 9.722656 C 14.234375 9.722656 14.53125 10.125 14.421875 10.71875 C 14.304688 11.375 14.320312 12.207031 14.390625 12.207031 C 14.460938 12.207031 14.832031 11.195312 14.824219 10.726562 C 14.816406 10.261719 14.789062 9.429688 14.707031 9.203125 C 14.621094 8.972656 14.574219 8.804688 14.574219 8.804688 L 14.304688 9.550781 Z M 14.234375 9.722656 " fill-opacity="1" fill-rule="nonzero"/><path fill="#46294e" d="M 13.222656 6.160156 C 13.222656 6.242188 13.191406 6.285156 13.128906 6.285156 C 13.070312 6.285156 13.039062 6.242188 13.039062 6.160156 C 13.039062 6.074219 13.070312 6.03125 13.128906 6.03125 C 13.191406 6.03125 13.222656 6.074219 13.222656 6.160156 Z M 13.222656 6.160156 " fill-opacity="1" fill-rule="nonzero"/><path fill="#46294e" d="M 13.757812 6.144531 C 13.757812 6.226562 13.726562 6.269531 13.667969 6.269531 C 13.605469 6.269531 13.578125 6.226562 13.578125 6.144531 C 13.578125 6.058594 13.605469 6.015625 13.667969 6.015625 C 13.726562 6.015625 13.757812 6.058594 13.757812 6.144531 Z M 13.757812 6.144531 " fill-opacity="1" fill-rule="nonzero"/><path fill="#46294e" d="M 12.886719 5.960938 C 12.878906 5.960938 12.875 5.960938 12.867188 5.957031 C 12.855469 5.945312 12.855469 5.929688 12.867188 5.917969 C 12.871094 5.910156 12.96875 5.792969 13.097656 5.78125 C 13.230469 5.769531 13.28125 5.855469 13.285156 5.859375 C 13.292969 5.871094 13.289062 5.886719 13.273438 5.894531 C 13.261719 5.902344 13.246094 5.898438 13.238281 5.886719 C 13.234375 5.882812 13.199219 5.828125 13.101562 5.835938 C 12.996094 5.847656 12.910156 5.949219 12.90625 5.953125 C 12.902344 5.957031 12.894531 5.960938 12.886719 5.960938 Z M 12.886719 5.960938 " fill-opacity="1" fill-rule="nonzero"/><path fill="#46294e" d="M 13.851562 5.9375 C 13.839844 5.9375 13.832031 5.933594 13.828125 5.921875 C 13.824219 5.917969 13.773438 5.820312 13.667969 5.820312 C 13.597656 5.820312 13.554688 5.902344 13.554688 5.902344 C 13.546875 5.914062 13.53125 5.921875 13.515625 5.914062 C 13.503906 5.90625 13.5 5.890625 13.503906 5.875 C 13.507812 5.871094 13.5625 5.765625 13.667969 5.765625 C 13.804688 5.765625 13.871094 5.890625 13.875 5.898438 C 13.882812 5.910156 13.878906 5.925781 13.863281 5.933594 C 13.859375 5.9375 13.855469 5.9375 13.851562 5.9375 Z M 13.851562 5.9375 " fill-opacity="1" fill-rule="nonzero"/><path fill="#46294e" d="M 13.578125 6.78125 C 13.566406 6.78125 13.554688 6.773438 13.550781 6.761719 C 13.546875 6.746094 13.554688 6.730469 13.570312 6.726562 C 13.625 6.714844 13.65625 6.691406 13.664062 6.65625 C 13.695312 6.554688 13.535156 6.367188 13.472656 6.304688 C 13.460938 6.292969 13.460938 6.277344 13.472656 6.265625 C 13.484375 6.253906 13.5 6.253906 13.511719 6.265625 C 13.539062 6.292969 13.761719 6.519531 13.71875 6.671875 C 13.703125 6.726562 13.65625 6.761719 13.582031 6.78125 C 13.582031 6.78125 13.578125 6.78125 13.578125 6.78125 Z M 13.578125 6.78125 " fill-opacity="1" fill-rule="nonzero"/><path fill="#46294e" d="M 13.398438 7.042969 C 13.398438 7.042969 13.394531 7.042969 13.394531 7.042969 C 13.386719 7.042969 13.167969 7.011719 13.070312 6.929688 C 13.058594 6.921875 13.054688 6.902344 13.066406 6.890625 C 13.074219 6.878906 13.09375 6.878906 13.105469 6.886719 C 13.191406 6.960938 13.398438 6.988281 13.402344 6.988281 C 13.417969 6.992188 13.425781 7.003906 13.425781 7.019531 C 13.421875 7.03125 13.410156 7.042969 13.398438 7.042969 Z M 13.398438 7.042969 " fill-opacity="1" fill-rule="nonzero"/><path fill="#46294e" d="M 14.375 13.542969 C 14.375 13.542969 16.90625 14.695312 17.71875 15.460938 C 18.535156 16.230469 18.390625 16.757812 18.414062 18.0625 C 18.4375 19.367188 18.320312 20.539062 18.320312 20.539062 C 18.320312 20.539062 18.113281 20.765625 17.757812 20.804688 C 17.402344 20.84375 16.96875 20.804688 16.96875 20.804688 C 16.96875 20.804688 16.664062 18.535156 16.691406 17.832031 C 16.714844 17.242188 16.617188 17.039062 16.398438 16.933594 C 16.175781 16.824219 14.398438 16.257812 13.546875 15.9375 C 12.691406 15.617188 12.324219 15.640625 12.027344 15.414062 C 11.730469 15.191406 11.316406 14.871094 11.386719 14.796875 C 11.457031 14.726562 12.5 13.800781 12.953125 13.613281 C 13.402344 13.421875 14.375 13.542969 14.375 13.542969 Z M 14.375 13.542969 " fill-opacity="1" fill-rule="nonzero"/><path fill="#ffffff" d="M 16.96875 20.832031 C 16.953125 20.832031 16.941406 20.824219 16.941406 20.808594 C 16.9375 20.792969 16.746094 19.136719 16.710938 18.785156 C 16.695312 18.613281 16.683594 18.308594 16.671875 18.011719 C 16.660156 17.695312 16.648438 17.394531 16.632812 17.285156 C 16.601562 17.085938 16.484375 17.019531 16.238281 16.898438 C 15.996094 16.777344 14.285156 16.230469 14.265625 16.222656 C 14.253906 16.21875 14.246094 16.203125 14.25 16.1875 C 14.253906 16.175781 14.269531 16.167969 14.285156 16.171875 C 14.355469 16.195312 16.015625 16.726562 16.261719 16.847656 C 16.496094 16.964844 16.652344 17.042969 16.6875 17.277344 C 16.703125 17.390625 16.714844 17.691406 16.726562 18.007812 C 16.738281 18.304688 16.75 18.609375 16.765625 18.78125 C 16.800781 19.128906 16.992188 20.785156 16.996094 20.804688 C 16.996094 20.816406 16.988281 20.832031 16.972656 20.832031 C 16.96875 20.832031 16.96875 20.832031 16.96875 20.832031 Z M 16.96875 20.832031 " fill-opacity="1" fill-rule="nonzero"/><path fill="#46294e" d="M 17.609375 22.066406 C 17.484375 22.066406 17.375 22.035156 17.285156 21.976562 C 17.195312 21.914062 17.148438 21.839844 17.125 21.804688 C 17.125 21.800781 17.121094 21.796875 17.117188 21.792969 C 17.117188 21.792969 17.117188 21.789062 17.113281 21.789062 C 17.101562 21.777344 17.097656 21.769531 17.113281 21.242188 C 17.121094 20.984375 17.132812 20.730469 17.132812 20.726562 C 17.132812 20.714844 17.140625 20.703125 17.152344 20.699219 C 17.15625 20.699219 17.390625 20.625 17.632812 20.550781 C 18.128906 20.402344 18.144531 20.417969 18.160156 20.4375 C 18.167969 20.445312 18.171875 20.457031 18.167969 20.46875 C 18.152344 20.53125 18.246094 21.300781 18.308594 21.773438 C 18.3125 21.777344 18.308594 21.785156 18.304688 21.792969 C 18.300781 21.800781 18.144531 22.011719 17.699219 22.0625 C 17.667969 22.066406 17.640625 22.066406 17.609375 22.066406 Z M 17.160156 21.757812 C 17.164062 21.761719 17.167969 21.769531 17.171875 21.777344 C 17.214844 21.84375 17.34375 22.042969 17.695312 22.007812 C 18.066406 21.964844 18.222656 21.804688 18.253906 21.769531 C 18.246094 21.707031 18.210938 21.425781 18.175781 21.140625 C 18.121094 20.683594 18.109375 20.535156 18.109375 20.480469 C 18.003906 20.492188 17.578125 20.621094 17.1875 20.746094 C 17.171875 21.125 17.152344 21.679688 17.160156 21.757812 Z M 17.132812 21.796875 Z M 17.132812 21.796875 Z M 17.132812 21.796875 Z M 17.128906 21.796875 C 17.132812 21.796875 17.132812 21.796875 17.132812 21.796875 C 17.132812 21.796875 17.132812 21.796875 17.128906 21.796875 Z M 17.160156 21.761719 Z M 18.167969 20.46875 C 18.167969 20.46875 18.164062 20.46875 18.164062 20.46875 C 18.164062 20.46875 18.167969 20.46875 18.167969 20.46875 Z M 18.167969 20.46875 " fill-opacity="1" fill-rule="nonzero"/><path fill="#ffffff" d="M 18.867188 23.734375 C 18.84375 23.734375 18.820312 23.730469 18.785156 23.730469 C 18.523438 23.722656 18.328125 23.542969 18.027344 23.273438 C 17.929688 23.183594 17.816406 23.085938 17.691406 22.976562 C 17.175781 22.542969 16.511719 21.996094 16.503906 21.992188 C 16.492188 21.980469 16.492188 21.964844 16.5 21.953125 C 16.507812 21.941406 16.527344 21.9375 16.539062 21.949219 C 16.546875 21.953125 17.210938 22.5 17.726562 22.933594 C 17.855469 23.042969 17.964844 23.144531 18.0625 23.230469 C 18.363281 23.503906 18.546875 23.667969 18.789062 23.675781 C 18.929688 23.679688 18.941406 23.675781 18.972656 23.660156 C 19.015625 23.636719 19.089844 23.597656 19.46875 23.546875 C 19.484375 23.542969 19.5 23.554688 19.5 23.570312 C 19.503906 23.585938 19.492188 23.597656 19.476562 23.601562 C 19.109375 23.652344 19.035156 23.6875 19 23.707031 C 18.964844 23.726562 18.945312 23.734375 18.867188 23.734375 Z M 18.867188 23.734375 " fill-opacity="1" fill-rule="nonzero"/><path fill="#ffffff" d="M 17.808594 23.425781 C 17.804688 23.425781 17.796875 23.425781 17.792969 23.421875 C 17.769531 23.402344 17.726562 23.371094 17.679688 23.332031 C 17.558594 23.238281 17.394531 23.105469 17.257812 23.011719 C 17.234375 22.996094 17.203125 22.972656 17.164062 22.949219 C 16.90625 22.773438 16.429688 22.453125 16.386719 22.238281 C 16.335938 21.996094 16.808594 21.550781 16.828125 21.53125 C 16.835938 21.519531 16.855469 21.519531 16.867188 21.53125 C 16.875 21.542969 16.875 21.558594 16.863281 21.570312 C 16.734375 21.691406 16.40625 22.050781 16.441406 22.230469 C 16.476562 22.417969 16.964844 22.746094 17.195312 22.902344 C 17.234375 22.929688 17.265625 22.949219 17.289062 22.96875 C 17.425781 23.0625 17.59375 23.195312 17.714844 23.289062 C 17.761719 23.328125 17.800781 23.359375 17.828125 23.378906 C 17.839844 23.386719 17.839844 23.40625 17.832031 23.417969 C 17.828125 23.421875 17.820312 23.425781 17.808594 23.425781 Z M 17.808594 23.425781 " fill-opacity="1" fill-rule="nonzero"/><path fill="#46294e" d="M 12.46875 15.390625 L 12.265625 15.425781 C 12.265625 15.425781 11.410156 15.472656 11.316406 15.757812 C 11.226562 16.03125 11.308594 22.777344 11.316406 23.359375 L 10.59375 23.214844 L 10.59375 16.332031 C 10.59375 16.332031 10.527344 15.628906 10.925781 15.425781 C 11.324219 15.226562 12.074219 15.160156 12.074219 15.160156 Z M 12.46875 15.390625 " fill-opacity="1" fill-rule="nonzero"/><path fill="#46294e" d="M 11.898438 23.546875 C 11.828125 23.542969 11.761719 23.503906 11.726562 23.441406 C 11.601562 23.222656 11.46875 22.953125 11.648438 22.945312 C 11.855469 22.933594 12.253906 22.992188 12.554688 22.894531 C 12.855469 22.792969 12.902344 22.703125 12.949219 22.894531 C 12.996094 23.082031 12.816406 23.394531 12.707031 23.5 C 12.621094 23.578125 12.125 23.5625 11.898438 23.546875 Z M 11.898438 23.546875 " fill-opacity="1" fill-rule="nonzero"/><path fill="#46294e" d="M 14.652344 21.839844 C 14.550781 21.914062 14.171875 22.058594 14.183594 22.1875 C 14.195312 22.3125 14.164062 22.597656 14.277344 22.566406 C 14.386719 22.535156 14.5625 22.464844 14.632812 22.296875 C 14.699219 22.128906 14.652344 21.839844 14.652344 21.839844 Z M 14.652344 21.839844 " fill-opacity="1" fill-rule="nonzero"/><path fill="#46294e" d="M 10.511719 23.226562 C 10.457031 23.140625 10.378906 22.699219 10.308594 22.6875 C 10.242188 22.675781 9.554688 22.511719 9.515625 22.554688 C 9.472656 22.597656 9.507812 22.894531 9.628906 23.035156 C 9.75 23.175781 10.511719 23.226562 10.511719 23.226562 Z M 10.511719 23.226562 " fill-opacity="1" fill-rule="nonzero"/><g clip-path="url(#0cb089fb9b)"><path fill="#46294e" d="M 12.453125 23.800781 C 12.453125 23.933594 12.421875 24.050781 12.367188 24.144531 C 12.308594 24.238281 12.238281 24.285156 12.15625 24.285156 C 12.074219 24.285156 12.007812 24.238281 11.949219 24.144531 C 11.890625 24.050781 11.863281 23.933594 11.863281 23.800781 C 11.863281 23.667969 11.890625 23.554688 11.949219 23.460938 C 12.007812 23.367188 12.074219 23.320312 12.15625 23.320312 C 12.238281 23.320312 12.308594 23.367188 12.367188 23.460938 C 12.421875 23.554688 12.453125 23.667969 12.453125 23.800781 Z M 12.453125 23.800781 " fill-opacity="1" fill-rule="nonzero"/></g><g clip-path="url(#4d39464409)"><path fill="#46294e" d="M 12.847656 23.824219 C 12.847656 23.960938 12.820312 24.074219 12.761719 24.167969 C 12.703125 24.261719 12.636719 24.308594 12.554688 24.308594 C 12.472656 24.308594 12.402344 24.261719 12.347656 24.167969 C 12.289062 24.074219 12.257812 23.960938 12.257812 23.824219 C 12.257812 23.691406 12.289062 23.578125 12.347656 23.484375 C 12.402344 23.390625 12.472656 23.34375 12.554688 23.34375 C 12.636719 23.34375 12.703125 23.390625 12.761719 23.484375 C 12.820312 23.578125 12.847656 23.691406 12.847656 23.824219 Z M 12.847656 23.824219 " fill-opacity="1" fill-rule="nonzero"/></g><path fill="#46294e" d="M 14.289062 22.800781 C 14.289062 22.929688 14.261719 23.039062 14.207031 23.128906 C 14.152344 23.214844 14.085938 23.261719 14.011719 23.261719 C 13.933594 23.261719 13.867188 23.214844 13.8125 23.128906 C 13.757812 23.039062 13.730469 22.929688 13.730469 22.800781 C 13.730469 22.675781 13.757812 22.566406 13.8125 22.476562 C 13.867188 22.386719 13.933594 22.34375 14.011719 22.34375 C 14.085938 22.34375 14.152344 22.386719 14.207031 22.476562 C 14.261719 22.566406 14.289062 22.675781 14.289062 22.800781 Z M 14.289062 22.800781 " fill-opacity="1" fill-rule="nonzero"/><path fill="#46294e" d="M 14.667969 22.824219 C 14.667969 22.953125 14.640625 23.058594 14.585938 23.148438 C 14.53125 23.238281 14.464844 23.285156 14.386719 23.285156 C 14.308594 23.285156 14.242188 23.238281 14.1875 23.148438 C 14.132812 23.058594 14.105469 22.953125 14.105469 22.824219 C 14.105469 22.699219 14.132812 22.589844 14.1875 22.5 C 14.242188 22.410156 14.308594 22.367188 14.386719 22.367188 C 14.464844 22.367188 14.53125 22.410156 14.585938 22.5 C 14.640625 22.589844 14.667969 22.699219 14.667969 22.824219 Z M 14.667969 22.824219 " fill-opacity="1" fill-rule="nonzero"/><path fill="#46294e" d="M 10.28125 23.40625 C 10.28125 23.53125 10.253906 23.640625 10.199219 23.730469 C 10.144531 23.820312 10.078125 23.863281 10.003906 23.863281 C 9.925781 23.863281 9.859375 23.820312 9.804688 23.730469 C 9.75 23.640625 9.722656 23.53125 9.722656 23.40625 C 9.722656 23.277344 9.75 23.167969 9.804688 23.082031 C 9.859375 22.992188 9.925781 22.945312 10.003906 22.945312 C 10.078125 22.945312 10.144531 22.992188 10.199219 23.082031 C 10.253906 23.167969 10.28125 23.277344 10.28125 23.40625 Z M 10.28125 23.40625 " fill-opacity="1" fill-rule="nonzero"/><path fill="#46294e" d="M 10.660156 23.425781 C 10.660156 23.554688 10.632812 23.664062 10.578125 23.753906 C 10.523438 23.839844 10.457031 23.886719 10.378906 23.886719 C 10.300781 23.886719 10.234375 23.839844 10.179688 23.753906 C 10.125 23.664062 10.097656 23.554688 10.097656 23.425781 C 10.097656 23.300781 10.125 23.191406 10.179688 23.101562 C 10.234375 23.011719 10.300781 22.96875 10.378906 22.96875 C 10.457031 22.96875 10.523438 23.011719 10.578125 23.101562 C 10.632812 23.191406 10.660156 23.300781 10.660156 23.425781 Z M 10.660156 23.425781 " fill-opacity="1" fill-rule="nonzero"/><path fill="#46294e" d="M 12.265625 23.253906 C 12.25 23.253906 12.238281 23.242188 12.238281 23.226562 L 12.238281 16.347656 C 12.238281 16.023438 12.472656 15.746094 12.792969 15.691406 C 13.289062 15.609375 13.609375 15.582031 13.734375 15.609375 C 13.75 15.613281 13.757812 15.628906 13.757812 15.640625 C 13.753906 15.65625 13.738281 15.667969 13.722656 15.664062 C 13.605469 15.636719 13.285156 15.664062 12.800781 15.746094 C 12.507812 15.796875 12.292969 16.050781 12.292969 16.347656 L 12.292969 23.226562 C 12.292969 23.242188 12.28125 23.253906 12.265625 23.253906 Z M 12.265625 23.253906 " fill-opacity="1" fill-rule="nonzero"/><path fill="#46294e" d="M 10.140625 17.769531 L 9.910156 17.75 C 9.859375 17.746094 9.820312 17.703125 9.820312 17.65625 L 9.820312 16.738281 C 9.820312 16.679688 9.871094 16.636719 9.925781 16.640625 L 10.15625 16.660156 C 10.207031 16.664062 10.246094 16.707031 10.246094 16.757812 L 10.246094 17.675781 C 10.246094 17.730469 10.195312 17.777344 10.140625 17.769531 Z M 10.140625 17.769531 " fill-opacity="1" fill-rule="nonzero"/><path fill="#46294e" d="M 11.847656 17.945312 L 11.617188 17.925781 C 11.566406 17.921875 11.53125 17.878906 11.53125 17.828125 L 11.53125 16.910156 C 11.53125 16.855469 11.578125 16.808594 11.632812 16.816406 L 11.863281 16.835938 C 11.914062 16.839844 11.953125 16.882812 11.953125 16.929688 L 11.953125 17.847656 C 11.953125 17.90625 11.902344 17.949219 11.847656 17.945312 Z M 11.847656 17.945312 " fill-opacity="1" fill-rule="nonzero"/><path fill="#46294e" d="M 10.140625 21.980469 L 9.910156 21.960938 C 9.859375 21.957031 9.820312 21.914062 9.820312 21.863281 L 9.820312 20.949219 C 9.820312 20.890625 9.871094 20.847656 9.925781 20.851562 L 10.15625 20.871094 C 10.207031 20.875 10.246094 20.917969 10.246094 20.96875 L 10.246094 21.886719 C 10.246094 21.941406 10.195312 21.984375 10.140625 21.980469 Z M 10.140625 21.980469 " fill-opacity="1" fill-rule="nonzero"/><path fill="#46294e" d="M 11.847656 22.25 L 11.617188 22.230469 C 11.566406 22.226562 11.53125 22.183594 11.53125 22.132812 L 11.53125 21.21875 C 11.53125 21.160156 11.578125 21.117188 11.632812 21.121094 L 11.863281 21.140625 C 11.914062 21.144531 11.953125 21.1875 11.953125 21.238281 L 11.953125 22.15625 C 11.953125 22.210938 11.902344 22.257812 11.847656 22.25 Z M 11.847656 22.25 " fill-opacity="1" fill-rule="nonzero"/></svg>