<svg xmlns="http://www.w3.org/2000/svg" xmlns:xlink="http://www.w3.org/1999/xlink" width="40" zoomAndPan="magnify" viewBox="0 0 30 30.000001" height="40" preserveAspectRatio="xMidYMid meet" version="1.0"><defs><clipPath id="e2aeafb759"><path d="M 3.386719 7 L 14 7 L 14 19 L 3.386719 19 Z M 3.386719 7 " clip-rule="nonzero"/></clipPath><clipPath id="32d45b12e0"><path d="M 3.386719 12 L 8 12 L 8 13 L 3.386719 13 Z M 3.386719 12 " clip-rule="nonzero"/></clipPath><clipPath id="a2f84b84a9"><path d="M 3.386719 13 L 9 13 L 9 15 L 3.386719 15 Z M 3.386719 13 " clip-rule="nonzero"/></clipPath><clipPath id="25371664d2"><path d="M 3.386719 9 L 7 9 L 7 11 L 3.386719 11 Z M 3.386719 9 " clip-rule="nonzero"/></clipPath><clipPath id="800bc7d263"><path d="M 9.160156 24.242188 L 10.671875 24.242188 L 10.671875 25.75 L 9.160156 25.75 Z M 9.160156 24.242188 " clip-rule="nonzero"/></clipPath><clipPath id="29e9700696"><path d="M 8 24 L 11 24 L 11 25.75 L 8 25.75 Z M 8 24 " clip-rule="nonzero"/></clipPath><clipPath id="415235f641"><path d="M 9 24 L 11 24 L 11 25.75 L 9 25.75 Z M 9 24 " clip-rule="nonzero"/></clipPath><clipPath id="a0cf1d060c"><path d="M 22.09375 24.242188 L 23.605469 24.242188 L 23.605469 25.75 L 22.09375 25.75 Z M 22.09375 24.242188 " clip-rule="nonzero"/></clipPath><clipPath id="4f1d8a9da8"><path d="M 22 24 L 24 24 L 24 25.75 L 22 25.75 Z M 22 24 " clip-rule="nonzero"/></clipPath><clipPath id="e47cc0cbef"><path d="M 22 24 L 23 24 L 23 25.75 L 22 25.75 Z M 22 24 " clip-rule="nonzero"/></clipPath><clipPath id="7aed1e4b50"><path d="M 15.253906 24.242188 L 16.769531 24.242188 L 16.769531 25.75 L 15.253906 25.75 Z M 15.253906 24.242188 " clip-rule="nonzero"/></clipPath><clipPath id="01aff7feab"><path d="M 15 24 L 18 24 L 18 25.75 L 15 25.75 Z M 15 24 " clip-rule="nonzero"/></clipPath><clipPath id="3e7c96da74"><path d="M 15 24 L 17 24 L 17 25.75 L 15 25.75 Z M 15 24 " clip-rule="nonzero"/></clipPath><clipPath id="8f53e34550"><path d="M 14.621094 8.617188 L 26.609375 8.617188 L 26.609375 24.105469 L 14.621094 24.105469 Z M 14.621094 8.617188 " clip-rule="nonzero"/></clipPath><clipPath id="5a3f3706f6"><path d="M 16.753906 24.242188 L 18.265625 24.242188 L 18.265625 25.75 L 16.753906 25.75 Z M 16.753906 24.242188 " clip-rule="nonzero"/></clipPath><clipPath id="dbc77f46b2"><path d="M 17 24 L 19 24 L 19 25.75 L 17 25.75 Z M 17 24 " clip-rule="nonzero"/></clipPath><clipPath id="7808b0acef"><path d="M 17 24 L 18 24 L 18 25.75 L 17 25.75 Z M 17 24 " clip-rule="nonzero"/></clipPath><clipPath id="56c297d660"><path d="M 23.558594 24.242188 L 25.074219 24.242188 L 25.074219 25.75 L 23.558594 25.75 Z M 23.558594 24.242188 " clip-rule="nonzero"/></clipPath><clipPath id="3bce5fad4d"><path d="M 24 24 L 26 24 L 26 25.75 L 24 25.75 Z M 24 24 " clip-rule="nonzero"/></clipPath><clipPath id="b154e47974"><path d="M 24 24 L 25 24 L 25 25.75 L 24 25.75 Z M 24 24 " clip-rule="nonzero"/></clipPath><clipPath id="55d34a3e10"><path d="M 18 3.25 L 23 3.25 L 23 5 L 18 5 Z M 18 3.25 " clip-rule="nonzero"/></clipPath></defs><g clip-path="url(#e2aeafb759)"><path fill="#7e9962" d="M 4.488281 16.316406 C 4.355469 16.148438 4.230469 15.945312 4.117188 15.714844 C 4.59375 15.984375 5.171875 16.214844 5.816406 16.269531 C 6.738281 16.347656 7.820312 15.84375 7.875 15.53125 C 7.910156 15.316406 7.824219 15.066406 7.039062 15.644531 C 6.191406 16.269531 5.0625 15.929688 4.695312 15.824219 C 4.695312 15.824219 4.691406 15.824219 4.691406 15.824219 C 4.28125 15.707031 3.957031 15.394531 3.824219 14.992188 C 3.785156 14.878906 3.75 14.761719 3.71875 14.644531 C 3.710938 14.621094 3.703125 14.59375 3.699219 14.570312 C 3.582031 14.136719 3.496094 13.667969 3.445312 13.1875 C 3.886719 13.53125 4.492188 13.851562 5.234375 13.902344 C 6.140625 13.96875 6.574219 13.6875 6.339844 13.476562 C 6.207031 13.351562 6.011719 13.726562 4.691406 13.59375 C 4.417969 13.5625 4.164062 13.484375 3.941406 13.371094 C 3.617188 13.210938 3.410156 12.882812 3.398438 12.523438 C 3.398438 12.464844 3.398438 12.410156 3.394531 12.351562 C 3.394531 12.328125 3.394531 12.308594 3.394531 12.285156 C 3.390625 11.789062 3.425781 11.300781 3.507812 10.84375 C 4.003906 11.347656 4.625 11.757812 5.070312 11.828125 C 5.402344 11.878906 5.808594 11.859375 5.738281 11.632812 C 5.6875 11.492188 5.269531 11.519531 4.859375 11.488281 C 4.628906 11.472656 4.253906 11.222656 3.964844 11 C 3.695312 10.792969 3.582031 10.4375 3.683594 10.113281 C 3.695312 10.089844 3.703125 10.0625 3.710938 10.035156 C 3.71875 10.015625 3.726562 9.992188 3.734375 9.972656 C 3.980469 8.933594 4.480469 8.355469 4.480469 8.355469 C 4.480469 8.355469 4.769531 8.488281 5.007812 8.390625 C 5.355469 8.246094 5.539062 8.226562 5.539062 8.226562 C 5.5625 8.21875 5.582031 8.214844 5.605469 8.207031 C 5.632812 8.203125 5.660156 8.195312 5.691406 8.191406 C 6.367188 8.046875 7.046875 8.421875 7.292969 9.066406 C 7.351562 9.222656 7.386719 9.367188 7.378906 9.476562 C 7.347656 9.886719 7.253906 10.296875 7.386719 10.363281 C 7.597656 10.472656 7.679688 10.070312 7.679688 9.734375 C 7.679688 9.269531 7.34375 8.558594 6.890625 7.976562 C 7.316406 7.929688 7.734375 7.917969 8.136719 7.941406 C 8.160156 7.941406 8.183594 7.941406 8.207031 7.945312 C 8.210938 7.945312 8.214844 7.945312 8.214844 7.945312 C 8.75 7.980469 9.210938 8.339844 9.375 8.847656 C 9.453125 9.089844 9.5 9.351562 9.484375 9.632812 C 9.417969 10.957031 9.019531 11.089844 9.117188 11.242188 C 9.292969 11.5 9.636719 11.117188 9.710938 10.214844 C 9.78125 9.324219 9.445312 8.570312 9.105469 8.066406 C 9.609375 8.171875 10.089844 8.335938 10.53125 8.558594 C 10.558594 8.574219 10.585938 8.589844 10.617188 8.605469 C 10.726562 8.664062 10.835938 8.726562 10.941406 8.792969 C 11.355469 9.050781 11.632812 9.480469 11.691406 9.964844 C 11.691406 9.96875 11.691406 9.972656 11.695312 9.976562 C 11.738281 10.351562 11.90625 11.515625 11.160156 12.257812 C 10.46875 12.949219 10.703125 13.070312 10.917969 13.066406 C 11.238281 13.0625 11.898438 12.070312 11.960938 11.148438 C 12.007812 10.476562 11.851562 9.847656 11.648438 9.324219 C 13.046875 10.566406 13.390625 11.765625 13.347656 12.804688 C 13.34375 12.855469 13.339844 12.902344 13.335938 12.953125 C 13.316406 13.222656 13.269531 13.480469 13.210938 13.726562 C 13.199219 13.777344 13.1875 13.824219 13.175781 13.875 C 12.898438 14.796875 12.207031 15.785156 11.613281 16.144531 C 11.019531 16.5 10.476562 15.777344 10.304688 15.613281 C 10.132812 15.449219 9.761719 14.640625 9.457031 14.851562 C 9.449219 14.859375 9.441406 14.867188 9.433594 14.875 C 9.414062 14.890625 9.398438 14.910156 9.386719 14.929688 C 9.175781 15.3125 10.445312 16.132812 9.941406 17.238281 C 9.550781 18.097656 9.011719 18.300781 8.746094 18.34375 C 8.691406 18.351562 8.636719 18.355469 8.582031 18.355469 C 7.863281 18.394531 7.160156 18.230469 6.523438 17.933594 C 6.496094 17.917969 6.46875 17.90625 6.441406 17.894531 C 5.667969 17.515625 4.996094 16.949219 4.488281 16.316406 " fill-opacity="1" fill-rule="nonzero"/></g><path fill="#396332" d="M 9.074219 14.480469 C 9.070312 14.480469 9.070312 14.480469 9.070312 14.476562 C 9.035156 14.429688 9.003906 14.378906 8.96875 14.332031 C 8.945312 14.296875 8.921875 14.265625 8.898438 14.230469 C 8.777344 14.058594 8.652344 13.886719 8.53125 13.71875 C 8.515625 13.699219 8.503906 13.679688 8.488281 13.660156 C 8.128906 13.164062 7.765625 12.671875 7.390625 12.1875 C 7.375 12.167969 7.363281 12.148438 7.347656 12.128906 C 7 11.675781 6.644531 11.230469 6.285156 10.789062 C 6.277344 10.777344 6.269531 10.765625 6.257812 10.753906 C 6.238281 10.726562 6.21875 10.703125 6.195312 10.675781 C 5.863281 10.269531 5.527344 9.871094 5.183594 9.476562 C 5.152344 9.441406 5.207031 9.394531 5.230469 9.425781 C 5.523438 9.757812 5.808594 10.09375 6.089844 10.433594 C 6.109375 10.457031 6.125 10.476562 6.144531 10.5 C 6.558594 11.003906 6.964844 11.519531 7.359375 12.035156 C 7.375 12.054688 7.386719 12.074219 7.402344 12.089844 C 7.566406 12.304688 7.726562 12.519531 7.890625 12.734375 C 8.117188 13.039062 8.339844 13.34375 8.5625 13.648438 C 8.578125 13.667969 8.589844 13.6875 8.605469 13.707031 C 8.777344 13.945312 8.949219 14.1875 9.121094 14.429688 C 9.140625 14.457031 9.160156 14.484375 9.179688 14.511719 L 9.179688 14.515625 C 9.265625 14.632812 9.347656 14.753906 9.433594 14.875 C 9.414062 14.890625 9.398438 14.910156 9.386719 14.929688 C 9.28125 14.78125 9.179688 14.628906 9.074219 14.480469 " fill-opacity="1" fill-rule="nonzero"/><g clip-path="url(#32d45b12e0)"><path fill="#396332" d="M 3.394531 12.351562 C 4.707031 12.636719 6.109375 12.589844 7.390625 12.1875 C 7.398438 12.183594 7.40625 12.183594 7.414062 12.179688 C 7.453125 12.167969 7.433594 12.101562 7.390625 12.117188 C 7.375 12.121094 7.363281 12.125 7.347656 12.128906 C 6.992188 12.242188 6.628906 12.324219 6.257812 12.378906 C 5.3125 12.519531 4.332031 12.492188 3.394531 12.285156 C 3.394531 12.308594 3.394531 12.328125 3.394531 12.351562 " fill-opacity="1" fill-rule="nonzero"/></g><g clip-path="url(#a2f84b84a9)"><path fill="#396332" d="M 3.71875 14.644531 C 4.441406 14.78125 5.179688 14.820312 5.910156 14.707031 C 6.84375 14.5625 7.71875 14.191406 8.53125 13.71875 C 8.539062 13.710938 8.546875 13.707031 8.554688 13.703125 C 8.578125 13.6875 8.574219 13.664062 8.5625 13.652344 C 8.550781 13.640625 8.535156 13.632812 8.519531 13.644531 C 8.507812 13.648438 8.5 13.65625 8.488281 13.660156 C 8.003906 13.945312 7.496094 14.191406 6.964844 14.375 C 6.175781 14.644531 5.347656 14.753906 4.519531 14.6875 C 4.242188 14.664062 3.96875 14.625 3.699219 14.570312 C 3.703125 14.59375 3.710938 14.621094 3.71875 14.644531 " fill-opacity="1" fill-rule="nonzero"/></g><path fill="#396332" d="M 6.441406 17.894531 C 6.46875 17.90625 6.496094 17.917969 6.523438 17.933594 C 6.625 17.882812 6.726562 17.832031 6.828125 17.777344 C 8.082031 17.074219 8.96875 15.785156 8.96875 14.332031 C 8.96875 14.292969 8.964844 14.257812 8.964844 14.222656 C 8.964844 14.175781 8.894531 14.179688 8.898438 14.222656 C 8.898438 14.226562 8.898438 14.230469 8.898438 14.230469 C 8.910156 14.625 8.855469 15.019531 8.742188 15.394531 C 8.390625 16.539062 7.503906 17.402344 6.441406 17.894531 " fill-opacity="1" fill-rule="nonzero"/><path fill="#396332" d="M 7.378906 12.109375 C 7.386719 12.101562 7.394531 12.097656 7.402344 12.089844 C 7.71875 11.863281 7.972656 11.570312 8.160156 11.226562 C 8.714844 10.203125 8.613281 9.003906 8.207031 7.945312 C 8.183594 7.941406 8.160156 7.941406 8.136719 7.941406 C 8.179688 8.046875 8.21875 8.152344 8.253906 8.257812 C 8.671875 9.546875 8.539062 11.1875 7.359375 12.035156 C 7.355469 12.039062 7.347656 12.046875 7.339844 12.050781 C 7.304688 12.074219 7.34375 12.132812 7.378906 12.109375 " fill-opacity="1" fill-rule="nonzero"/><path fill="#396332" d="M 8.554688 13.703125 C 8.566406 13.714844 8.589844 13.71875 8.605469 13.707031 C 8.605469 13.707031 8.605469 13.707031 8.605469 13.703125 C 9.035156 13.292969 9.445312 12.859375 9.800781 12.378906 C 10.359375 11.617188 10.769531 10.726562 10.789062 9.765625 C 10.796875 9.371094 10.742188 8.976562 10.617188 8.605469 C 10.585938 8.589844 10.558594 8.574219 10.53125 8.558594 C 10.550781 8.617188 10.570312 8.671875 10.585938 8.730469 C 10.839844 9.578125 10.722656 10.492188 10.367188 11.289062 C 9.957031 12.203125 9.28125 12.964844 8.5625 13.648438 C 8.5625 13.652344 8.5625 13.652344 8.5625 13.652344 C 8.558594 13.652344 8.558594 13.65625 8.554688 13.660156 C 8.539062 13.671875 8.542969 13.691406 8.554688 13.703125 " fill-opacity="1" fill-rule="nonzero"/><path fill="#396332" d="M 9.089844 14.492188 C 9.121094 14.5 9.152344 14.507812 9.179688 14.511719 L 9.179688 14.515625 C 9.554688 14.597656 9.9375 14.628906 10.320312 14.609375 C 11.066406 14.574219 11.816406 14.347656 12.433594 13.917969 C 12.808594 13.660156 13.113281 13.332031 13.335938 12.953125 C 13.339844 12.902344 13.34375 12.855469 13.347656 12.804688 C 13.265625 12.957031 13.175781 13.101562 13.066406 13.234375 C 12.164062 14.378906 10.5 14.769531 9.121094 14.429688 C 9.117188 14.429688 9.109375 14.425781 9.105469 14.425781 C 9.074219 14.417969 9.058594 14.457031 9.070312 14.476562 C 9.070312 14.480469 9.070312 14.480469 9.074219 14.480469 C 9.078125 14.484375 9.082031 14.492188 9.089844 14.492188 " fill-opacity="1" fill-rule="nonzero"/><path fill="#396332" d="M 6.144531 10.5 C 6.144531 10.496094 6.144531 10.492188 6.148438 10.492188 C 6.246094 10.097656 6.128906 9.683594 6.019531 9.304688 C 5.90625 8.929688 5.765625 8.566406 5.605469 8.207031 C 5.582031 8.214844 5.5625 8.21875 5.539062 8.226562 C 5.6875 8.558594 5.820312 8.898438 5.929688 9.246094 C 6.046875 9.621094 6.171875 10.039062 6.089844 10.433594 C 6.085938 10.449219 6.082031 10.460938 6.082031 10.476562 C 6.070312 10.515625 6.125 10.53125 6.144531 10.5 " fill-opacity="1" fill-rule="nonzero"/><g clip-path="url(#25371664d2)"><path fill="#396332" d="M 3.710938 10.035156 C 4.480469 10.484375 5.378906 10.628906 6.25 10.753906 C 6.253906 10.753906 6.257812 10.753906 6.257812 10.753906 C 6.296875 10.753906 6.304688 10.691406 6.265625 10.6875 C 6.242188 10.683594 6.21875 10.679688 6.195312 10.675781 C 5.347656 10.554688 4.476562 10.410156 3.734375 9.972656 C 3.726562 9.992188 3.71875 10.015625 3.710938 10.035156 " fill-opacity="1" fill-rule="nonzero"/></g><g clip-path="url(#800bc7d263)"><path fill="#522839" d="M 9.160156 25.003906 C 9.160156 25.414062 9.496094 25.75 9.910156 25.75 C 10.324219 25.75 10.660156 25.414062 10.660156 25.003906 C 10.660156 24.589844 10.324219 24.253906 9.910156 24.253906 C 9.496094 24.253906 9.160156 24.589844 9.160156 25.003906 " fill-opacity="1" fill-rule="nonzero"/></g><g clip-path="url(#29e9700696)"><path fill="#e6c8b8" d="M 8.835938 24.097656 L 8.835938 24.816406 C 8.835938 24.816406 9.621094 25.257812 9.820312 25.320312 C 10.023438 25.386719 10.339844 25.164062 10.171875 24.839844 C 10.003906 24.519531 9.96875 24.363281 9.96875 24.363281 L 9.96875 24.097656 L 8.835938 24.097656 " fill-opacity="1" fill-rule="nonzero"/></g><g clip-path="url(#415235f641)"><path fill="#522839" d="M 9.800781 25.003906 C 9.800781 25.0625 9.847656 25.113281 9.910156 25.113281 C 9.972656 25.113281 10.019531 25.0625 10.019531 25.003906 C 10.019531 24.941406 9.972656 24.890625 9.910156 24.890625 C 9.847656 24.890625 9.800781 24.941406 9.800781 25.003906 " fill-opacity="1" fill-rule="nonzero"/></g><path fill="#f07f67" d="M 8.875 24.097656 C 8.203125 24.097656 7.78125 23.355469 7.78125 22.347656 C 7.78125 21.339844 7.78125 12.53125 7.78125 11.972656 C 7.78125 11.414062 8.371094 10.847656 9.015625 10.847656 C 9.660156 10.847656 16.726562 10.847656 16.726562 10.847656 L 16.726562 24.097656 C 16.726562 24.097656 9.550781 24.097656 8.875 24.097656 " fill-opacity="1" fill-rule="nonzero"/><path fill="#bd4a3a" d="M 8.195312 16.929688 C 8.195312 18.6875 8.195312 20.445312 8.195312 22.203125 C 8.195312 22.246094 8.265625 22.246094 8.265625 22.203125 C 8.265625 20.445312 8.265625 18.6875 8.265625 16.929688 C 8.265625 16.886719 8.195312 16.886719 8.195312 16.929688 " fill-opacity="1" fill-rule="nonzero"/><path fill="#bd4a3a" d="M 8.265625 12.140625 C 8.300781 11.835938 8.539062 11.605469 8.808594 11.488281 C 9.113281 11.359375 9.453125 11.363281 9.777344 11.363281 C 9.820312 11.363281 9.820312 11.296875 9.777344 11.296875 C 9.417969 11.296875 9.03125 11.292969 8.703125 11.464844 C 8.4375 11.601562 8.230469 11.839844 8.195312 12.140625 C 8.191406 12.183594 8.261719 12.183594 8.265625 12.140625 " fill-opacity="1" fill-rule="nonzero"/><path fill="#bd4a3a" d="M 10.855469 11.363281 C 11.890625 11.363281 12.925781 11.363281 13.960938 11.363281 C 14.003906 11.363281 14.003906 11.296875 13.960938 11.296875 C 12.925781 11.296875 11.890625 11.296875 10.855469 11.296875 C 10.8125 11.296875 10.8125 11.363281 10.855469 11.363281 " fill-opacity="1" fill-rule="nonzero"/><path fill="#874e35" d="M 9.855469 11.5 C 10.097656 10.964844 10.671875 10.75 11.1875 10.570312 C 11.226562 10.554688 11.210938 10.488281 11.167969 10.503906 C 10.636719 10.691406 10.046875 10.914062 9.796875 11.464844 C 9.777344 11.503906 9.835938 11.539062 9.855469 11.5 " fill-opacity="1" fill-rule="nonzero"/><path fill="#522839" d="M 9.0625 10.847656 C 9.0625 10.847656 9.097656 10.671875 9.15625 10.671875 C 9.214844 10.671875 10.050781 10.671875 10.121094 10.671875 C 10.195312 10.671875 10.324219 10.800781 10.324219 10.847656 L 9.0625 10.847656 " fill-opacity="1" fill-rule="nonzero"/><path fill="#e6c8b8" d="M 10.910156 10.847656 L 11.257812 10.847656 L 11.257812 7.582031 L 10.910156 7.582031 L 10.910156 10.847656 " fill-opacity="1" fill-rule="nonzero"/><path fill="#e6c8b8" d="M 14.113281 10.847656 L 14.464844 10.847656 L 14.464844 7.582031 L 14.113281 7.582031 L 14.113281 10.847656 " fill-opacity="1" fill-rule="nonzero"/><path fill="#522839" d="M 14.464844 7.523438 C 14.464844 7.132812 14.152344 6.820312 13.761719 6.820312 L 11.609375 6.820312 C 11.222656 6.820312 10.910156 7.132812 10.910156 7.523438 L 10.910156 7.582031 L 11.34375 7.582031 C 11.484375 7.652344 11.671875 7.703125 11.804688 7.675781 C 11.957031 7.644531 12.121094 7.5625 12.253906 7.644531 C 12.285156 7.660156 12.308594 7.683594 12.335938 7.699219 C 12.558594 7.835938 12.835938 7.527344 13.085938 7.601562 C 13.210938 7.644531 13.3125 7.738281 13.445312 7.738281 C 13.644531 7.738281 13.875 7.648438 14.019531 7.582031 L 14.464844 7.582031 L 14.464844 7.523438 " fill-opacity="1" fill-rule="nonzero"/><path fill="#bd4a3a" d="M 9.304688 14.332031 L 14.878906 14.332031 L 14.878906 12.660156 L 9.304688 12.660156 C 8.84375 12.660156 8.46875 13.035156 8.46875 13.496094 C 8.46875 13.957031 8.84375 14.332031 9.304688 14.332031 " fill-opacity="1" fill-rule="nonzero"/><path fill="#bd4a3a" d="M 9.304688 17.816406 L 14.878906 17.816406 L 14.878906 16.144531 L 9.304688 16.144531 C 8.84375 16.144531 8.46875 16.519531 8.46875 16.980469 C 8.46875 17.441406 8.84375 17.816406 9.304688 17.816406 " fill-opacity="1" fill-rule="nonzero"/><path fill="#bd4a3a" d="M 9.304688 21.300781 L 14.878906 21.300781 L 14.878906 19.628906 L 9.304688 19.628906 C 8.84375 19.628906 8.46875 20.003906 8.46875 20.464844 C 8.46875 20.925781 8.84375 21.300781 9.304688 21.300781 " fill-opacity="1" fill-rule="nonzero"/><path fill="#ffd2b8" d="M 9.792969 11.570312 C 9.738281 11.570312 9.691406 11.523438 9.691406 11.46875 C 9.691406 11.414062 9.738281 11.367188 9.792969 11.367188 C 9.847656 11.367188 9.890625 11.414062 9.890625 11.46875 C 9.890625 11.523438 9.847656 11.570312 9.792969 11.570312 Z M 10.144531 11.464844 C 10.144531 11.414062 10.148438 11.367188 10.15625 11.320312 L 9.632812 11.117188 C 9.488281 11.328125 9.269531 11.480469 9.011719 11.539062 L 8.414062 13.085938 C 8.394531 13.132812 8.417969 13.1875 8.464844 13.207031 L 9.609375 13.648438 C 9.65625 13.667969 9.707031 13.644531 9.726562 13.597656 L 10.324219 12.050781 C 10.210938 11.882812 10.144531 11.683594 10.144531 11.464844 " fill-opacity="1" fill-rule="nonzero"/><path fill="#874e35" d="M 11.144531 10.964844 C 10.753906 11.234375 10.171875 11.113281 9.855469 11.503906 C 9.828125 11.539062 9.78125 11.488281 9.808594 11.457031 C 10.019531 11.195312 10.355469 11.148438 10.664062 11.082031 C 10.859375 11.035156 11.046875 10.976562 11.195312 10.835938 C 11.253906 10.785156 11.382812 10.65625 11.351562 10.5625 C 11.339844 10.523438 11.304688 10.511719 11.257812 10.511719 L 11.257812 10.445312 C 11.335938 10.449219 11.402344 10.472656 11.417969 10.554688 C 11.453125 10.714844 11.261719 10.886719 11.144531 10.964844 " fill-opacity="1" fill-rule="nonzero"/><path fill="#874e35" d="M 9.1875 12.039062 C 9.421875 12.128906 9.65625 12.21875 9.886719 12.308594 C 9.929688 12.324219 9.945312 12.257812 9.90625 12.242188 C 9.671875 12.152344 9.441406 12.0625 9.207031 11.972656 C 9.164062 11.957031 9.148438 12.023438 9.1875 12.039062 " fill-opacity="1" fill-rule="nonzero"/><path fill="#874e35" d="M 9.050781 12.355469 C 9.285156 12.445312 9.519531 12.535156 9.753906 12.625 C 9.792969 12.640625 9.8125 12.574219 9.769531 12.558594 C 9.535156 12.46875 9.304688 12.378906 9.070312 12.289062 C 9.03125 12.273438 9.011719 12.339844 9.050781 12.355469 " fill-opacity="1" fill-rule="nonzero"/><path fill="#874e35" d="M 8.894531 12.691406 C 9.128906 12.78125 9.359375 12.871094 9.59375 12.960938 C 9.636719 12.976562 9.652344 12.914062 9.613281 12.898438 C 9.378906 12.808594 9.144531 12.71875 8.914062 12.628906 C 8.871094 12.613281 8.855469 12.675781 8.894531 12.691406 " fill-opacity="1" fill-rule="nonzero"/><path fill="#bd4a3a" d="M 10.484375 24.097656 L 8.875 24.097656 C 8.527344 24.097656 8.246094 23.898438 8.058594 23.566406 L 9.863281 23.566406 C 10.246094 23.566406 10.484375 23.808594 10.484375 24.097656 " fill-opacity="1" fill-rule="nonzero"/><path fill="#f7b69a" d="M 12.8125 18.660156 L 11.527344 18.914062 C 11.476562 18.925781 11.429688 18.894531 11.417969 18.84375 L 10.898438 16.234375 C 10.886719 16.1875 10.917969 16.136719 10.96875 16.128906 L 12.253906 15.871094 C 12.304688 15.863281 12.351562 15.894531 12.363281 15.941406 L 12.882812 18.550781 C 12.894531 18.601562 12.863281 18.648438 12.8125 18.660156 " fill-opacity="1" fill-rule="nonzero"/><path fill="#f7b69a" d="M 12.6875 18.574219 L 11.609375 18.789062 C 11.558594 18.796875 11.511719 18.765625 11.5 18.714844 L 11.023438 16.320312 C 11.011719 16.273438 11.042969 16.222656 11.09375 16.214844 L 12.171875 16 C 12.222656 15.988281 12.269531 16.019531 12.28125 16.070312 L 12.757812 18.464844 C 12.769531 18.515625 12.738281 18.5625 12.6875 18.574219 " fill-opacity="1" fill-rule="nonzero"/><path fill="#dc5f44" d="M 12.6875 18.574219 L 12.382812 18.632812 L 11.867188 16.058594 L 12.171875 16 C 12.222656 15.988281 12.269531 16.019531 12.28125 16.070312 L 12.757812 18.464844 C 12.769531 18.515625 12.738281 18.5625 12.6875 18.574219 " fill-opacity="1" fill-rule="nonzero"/><path fill="#75b8bd" d="M 11.898438 18.730469 L 11.609375 18.789062 C 11.558594 18.796875 11.511719 18.765625 11.5 18.714844 L 11.023438 16.320312 C 11.011719 16.273438 11.042969 16.222656 11.09375 16.214844 L 11.382812 16.15625 L 11.898438 18.730469 " fill-opacity="1" fill-rule="nonzero"/><path fill="#ffffff" d="M 11.875 18.550781 L 11.679688 18.601562 L 11.683594 18.410156 C 11.75 18.457031 11.8125 18.503906 11.875 18.550781 " fill-opacity="1" fill-rule="nonzero"/><path fill="#ffffff" d="M 11.695312 18.332031 C 11.761719 18.28125 11.828125 18.226562 11.894531 18.175781 C 11.875 18.277344 11.871094 18.386719 11.875 18.464844 C 11.8125 18.417969 11.753906 18.375 11.695312 18.332031 " fill-opacity="1" fill-rule="nonzero"/><path fill="#ffffff" d="M 11.707031 17.878906 C 11.78125 17.933594 11.859375 17.988281 11.9375 18.042969 C 11.933594 18.050781 11.929688 18.058594 11.925781 18.070312 C 11.847656 18.128906 11.769531 18.1875 11.691406 18.246094 L 11.707031 17.878906 " fill-opacity="1" fill-rule="nonzero"/><path fill="#ffffff" d="M 11.933594 17.746094 C 11.953125 17.824219 11.96875 17.902344 11.988281 17.980469 C 11.984375 17.980469 11.980469 17.984375 11.976562 17.988281 C 11.886719 17.925781 11.796875 17.863281 11.710938 17.792969 L 11.933594 17.746094 " fill-opacity="1" fill-rule="nonzero"/><path fill="#ffffff" d="M 12.226562 17.683594 C 12.183594 17.777344 12.136719 17.875 12.085938 17.96875 C 12.074219 17.964844 12.0625 17.960938 12.054688 17.960938 C 12.035156 17.882812 12.019531 17.808594 12 17.730469 L 12.226562 17.679688 L 12.226562 17.683594 " fill-opacity="1" fill-rule="nonzero"/><path fill="#ffffff" d="M 12.410156 18.035156 C 12.324219 18.03125 12.238281 18.027344 12.152344 18.019531 C 12.148438 18.015625 12.144531 18.011719 12.140625 18.007812 C 12.183594 17.925781 12.226562 17.84375 12.265625 17.757812 L 12.410156 18.035156 " fill-opacity="1" fill-rule="nonzero"/><path fill="#ffffff" d="M 12.445312 18.105469 C 12.414062 18.183594 12.378906 18.261719 12.347656 18.339844 C 12.316406 18.269531 12.269531 18.171875 12.214844 18.09375 C 12.289062 18.097656 12.367188 18.101562 12.445312 18.101562 L 12.445312 18.105469 " fill-opacity="1" fill-rule="nonzero"/><path fill="#ffffff" d="M 12.585938 18.375 L 12.382812 18.433594 C 12.417969 18.351562 12.453125 18.265625 12.484375 18.183594 L 12.585938 18.375 " fill-opacity="1" fill-rule="nonzero"/><path fill="#ffffff" d="M 11.726562 16.398438 C 11.703125 16.417969 11.675781 16.4375 11.648438 16.460938 L 11.644531 16.3125 C 11.640625 16.28125 11.679688 16.273438 11.691406 16.300781 L 11.726562 16.398438 " fill-opacity="1" fill-rule="nonzero"/><path fill="#ffffff" d="M 11.8125 16.609375 C 11.757812 16.59375 11.703125 16.578125 11.652344 16.558594 L 11.652344 16.542969 C 11.6875 16.515625 11.71875 16.492188 11.753906 16.464844 L 11.8125 16.609375 " fill-opacity="1" fill-rule="nonzero"/><path fill="#ffffff" d="M 11.84375 16.691406 C 11.78125 16.707031 11.722656 16.71875 11.660156 16.734375 L 11.65625 16.632812 C 11.71875 16.652344 11.78125 16.671875 11.84375 16.691406 " fill-opacity="1" fill-rule="nonzero"/><path fill="#ffffff" d="M 11.867188 16.757812 C 11.804688 16.824219 11.738281 16.886719 11.671875 16.953125 L 11.664062 16.804688 C 11.730469 16.789062 11.800781 16.773438 11.867188 16.757812 " fill-opacity="1" fill-rule="nonzero"/><path fill="#ffffff" d="M 11.992188 17.082031 C 11.886719 17.0625 11.78125 17.046875 11.675781 17.039062 C 11.75 16.96875 11.824219 16.898438 11.894531 16.828125 L 11.992188 17.082031 " fill-opacity="1" fill-rule="nonzero"/><path fill="#ffffff" d="M 12.019531 17.15625 C 11.910156 17.179688 11.796875 17.203125 11.683594 17.230469 L 11.679688 17.109375 C 11.792969 17.117188 11.90625 17.132812 12.019531 17.15625 " fill-opacity="1" fill-rule="nonzero"/><path fill="#ffffff" d="M 11.792969 17.480469 C 11.796875 17.550781 11.804688 17.632812 11.808594 17.703125 C 11.773438 17.710938 11.738281 17.71875 11.707031 17.726562 L 11.695312 17.5 C 11.730469 17.492188 11.761719 17.488281 11.792969 17.480469 " fill-opacity="1" fill-rule="nonzero"/><path fill="#ffffff" d="M 12.089844 17.332031 C 11.957031 17.371094 11.828125 17.402344 11.691406 17.433594 L 11.6875 17.300781 C 11.808594 17.273438 11.925781 17.246094 12.046875 17.21875 L 12.089844 17.332031 " fill-opacity="1" fill-rule="nonzero"/><path fill="#ffffff" d="M 12.199219 17.617188 C 12.171875 17.621094 12.144531 17.628906 12.113281 17.636719 C 12.082031 17.5625 12.050781 17.492188 12.015625 17.425781 C 12.046875 17.414062 12.078125 17.40625 12.109375 17.398438 C 12.113281 17.398438 12.113281 17.398438 12.113281 17.398438 L 12.199219 17.617188 " fill-opacity="1" fill-rule="nonzero"/><g clip-path="url(#a0cf1d060c)"><path fill="#7a392c" d="M 23.597656 25.003906 C 23.597656 25.414062 23.261719 25.75 22.851562 25.75 C 22.4375 25.75 22.101562 25.414062 22.101562 25.003906 C 22.101562 24.589844 22.4375 24.253906 22.851562 24.253906 C 23.261719 24.253906 23.597656 24.589844 23.597656 25.003906 " fill-opacity="1" fill-rule="nonzero"/></g><g clip-path="url(#4f1d8a9da8)"><path fill="#bf9780" d="M 23.921875 24.097656 L 23.921875 24.816406 C 23.921875 24.816406 23.140625 25.257812 22.9375 25.320312 C 22.738281 25.386719 22.417969 25.164062 22.585938 24.839844 C 22.753906 24.519531 22.792969 24.363281 22.792969 24.363281 L 22.792969 24.097656 L 23.921875 24.097656 " fill-opacity="1" fill-rule="nonzero"/></g><g clip-path="url(#e47cc0cbef)"><path fill="#e6c8b8" d="M 22.960938 25.003906 C 22.960938 25.0625 22.910156 25.113281 22.851562 25.113281 C 22.789062 25.113281 22.738281 25.0625 22.738281 25.003906 C 22.738281 24.941406 22.789062 24.890625 22.851562 24.890625 C 22.910156 24.890625 22.960938 24.941406 22.960938 25.003906 " fill-opacity="1" fill-rule="nonzero"/></g><g clip-path="url(#7aed1e4b50)"><path fill="#7a392c" d="M 16.757812 25.003906 C 16.757812 25.414062 16.425781 25.75 16.011719 25.75 C 15.597656 25.75 15.261719 25.414062 15.261719 25.003906 C 15.261719 24.589844 15.597656 24.253906 16.011719 24.253906 C 16.425781 24.253906 16.757812 24.589844 16.757812 25.003906 " fill-opacity="1" fill-rule="nonzero"/></g><g clip-path="url(#01aff7feab)"><path fill="#bf9780" d="M 17.082031 24.097656 L 17.082031 24.816406 C 17.082031 24.816406 16.300781 25.257812 16.097656 25.320312 C 15.898438 25.386719 15.578125 25.164062 15.746094 24.839844 C 15.917969 24.519531 15.953125 24.363281 15.953125 24.363281 L 15.953125 24.097656 L 17.082031 24.097656 " fill-opacity="1" fill-rule="nonzero"/></g><g clip-path="url(#3e7c96da74)"><path fill="#e6c8b8" d="M 16.121094 25.003906 C 16.121094 25.0625 16.070312 25.113281 16.011719 25.113281 C 15.949219 25.113281 15.898438 25.0625 15.898438 25.003906 C 15.898438 24.941406 15.949219 24.890625 16.011719 24.890625 C 16.070312 24.890625 16.121094 24.941406 16.121094 25.003906 " fill-opacity="1" fill-rule="nonzero"/></g><g clip-path="url(#8f53e34550)"><path fill="#b6dbde" d="M 25.332031 8.625 L 15.902344 8.625 C 15.902344 8.625 14.628906 8.894531 14.628906 10.542969 C 14.628906 12.195312 14.628906 21.5625 14.628906 22.222656 C 14.628906 22.878906 15.160156 24.097656 15.832031 24.097656 C 16.351562 24.097656 24.886719 24.097656 25.402344 24.097656 C 26.074219 24.097656 26.609375 22.878906 26.609375 22.222656 C 26.609375 21.5625 26.609375 12.195312 26.609375 10.542969 C 26.609375 8.894531 25.332031 8.625 25.332031 8.625 " fill-opacity="1" fill-rule="nonzero"/></g><g clip-path="url(#5a3f3706f6)"><path fill="#7a392c" d="M 18.25 25.003906 C 18.25 25.414062 17.917969 25.75 17.503906 25.75 C 17.089844 25.75 16.753906 25.414062 16.753906 25.003906 C 16.753906 24.589844 17.089844 24.253906 17.503906 24.253906 C 17.917969 24.253906 18.25 24.589844 18.25 25.003906 " fill-opacity="1" fill-rule="nonzero"/></g><g clip-path="url(#dbc77f46b2)"><path fill="#bf9780" d="M 18.578125 24.097656 L 18.578125 24.816406 C 18.578125 24.816406 17.792969 25.257812 17.589844 25.320312 C 17.390625 25.386719 17.074219 25.164062 17.242188 24.839844 C 17.410156 24.519531 17.445312 24.363281 17.445312 24.363281 L 17.445312 24.097656 L 18.578125 24.097656 " fill-opacity="1" fill-rule="nonzero"/></g><g clip-path="url(#7808b0acef)"><path fill="#e6c8b8" d="M 17.613281 25.003906 C 17.613281 25.0625 17.5625 25.113281 17.503906 25.113281 C 17.441406 25.113281 17.390625 25.0625 17.390625 25.003906 C 17.390625 24.941406 17.441406 24.890625 17.503906 24.890625 C 17.5625 24.890625 17.613281 24.941406 17.613281 25.003906 " fill-opacity="1" fill-rule="nonzero"/></g><g clip-path="url(#56c297d660)"><path fill="#7a392c" d="M 25.0625 25.003906 C 25.0625 25.414062 24.726562 25.75 24.316406 25.75 C 23.902344 25.75 23.566406 25.414062 23.566406 25.003906 C 23.566406 24.589844 23.902344 24.253906 24.316406 24.253906 C 24.726562 24.253906 25.0625 24.589844 25.0625 25.003906 " fill-opacity="1" fill-rule="nonzero"/></g><g clip-path="url(#3bce5fad4d)"><path fill="#bf9780" d="M 25.386719 24.097656 L 25.386719 24.816406 C 25.386719 24.816406 24.605469 25.257812 24.402344 25.320312 C 24.203125 25.386719 23.882812 25.164062 24.050781 24.839844 C 24.21875 24.519531 24.257812 24.363281 24.257812 24.363281 L 24.257812 24.097656 L 25.386719 24.097656 " fill-opacity="1" fill-rule="nonzero"/></g><g clip-path="url(#b154e47974)"><path fill="#e6c8b8" d="M 24.425781 25.003906 C 24.425781 25.0625 24.375 25.113281 24.316406 25.113281 C 24.253906 25.113281 24.203125 25.0625 24.203125 25.003906 C 24.203125 24.941406 24.253906 24.890625 24.316406 24.890625 C 24.375 24.890625 24.425781 24.941406 24.425781 25.003906 " fill-opacity="1" fill-rule="nonzero"/></g><path fill="#874e35" d="M 16.800781 8.625 C 16.800781 8.625 16.859375 8.453125 16.996094 8.453125 C 17.050781 8.453125 17.726562 8.453125 17.792969 8.453125 C 17.859375 8.453125 17.980469 8.578125 17.980469 8.625 L 16.800781 8.625 " fill-opacity="1" fill-rule="nonzero"/><path fill="#874e35" d="M 23.316406 8.625 C 23.316406 8.625 23.378906 8.453125 23.511719 8.453125 C 23.566406 8.453125 24.242188 8.453125 24.3125 8.453125 C 24.378906 8.453125 24.5 8.578125 24.5 8.625 L 23.316406 8.625 " fill-opacity="1" fill-rule="nonzero"/><path fill="#874e35" d="M 18.074219 9.789062 C 18.074219 9.203125 18.511719 8.773438 18.910156 8.402344 C 18.941406 8.371094 18.898438 8.316406 18.867188 8.347656 C 18.457031 8.734375 18.007812 9.179688 18.003906 9.78125 C 18.003906 9.828125 18.074219 9.832031 18.074219 9.789062 " fill-opacity="1" fill-rule="nonzero"/><path fill="#e6c8b8" d="M 18.714844 8.625 L 19.0625 8.625 L 19.0625 4.015625 L 18.714844 4.015625 L 18.714844 8.625 " fill-opacity="1" fill-rule="nonzero"/><path fill="#e6c8b8" d="M 21.917969 8.625 L 22.269531 8.625 L 22.269531 4.015625 L 21.917969 4.015625 L 21.917969 8.625 " fill-opacity="1" fill-rule="nonzero"/><g clip-path="url(#55d34a3e10)"><path fill="#7a392c" d="M 22.269531 3.953125 C 22.269531 3.566406 21.957031 3.25 21.566406 3.25 L 19.414062 3.25 C 19.027344 3.25 18.714844 3.566406 18.714844 3.953125 L 18.714844 4.015625 L 19.136719 4.015625 C 19.277344 4.085938 19.472656 4.140625 19.609375 4.113281 C 19.761719 4.082031 19.925781 4 20.058594 4.078125 C 20.089844 4.097656 20.113281 4.121094 20.140625 4.136719 C 20.363281 4.273438 20.640625 3.960938 20.886719 4.039062 C 21.015625 4.078125 21.164062 4.148438 21.296875 4.175781 C 21.371094 4.1875 21.664062 4.085938 21.828125 4.015625 L 22.269531 4.015625 L 22.269531 3.953125 " fill-opacity="1" fill-rule="nonzero"/></g><path fill="#75b8bd" d="M 21.128906 8.625 C 21.128906 8.625 22.09375 8.992188 22.09375 10.257812 C 22.09375 11.523438 22.09375 22.167969 22.09375 22.574219 C 22.09375 22.980469 21.8125 24.097656 20.859375 24.097656 L 21.710938 24.097656 C 21.710938 24.097656 22.640625 23.96875 22.640625 22.578125 C 22.640625 22.578125 22.640625 10.996094 22.640625 10.257812 C 22.640625 9.519531 22.265625 8.625 21.632812 8.625 L 21.128906 8.625 " fill-opacity="1" fill-rule="nonzero"/><path fill="#75b8bd" d="M 18.769531 8.625 C 18.769531 8.625 19.734375 8.992188 19.734375 10.257812 C 19.734375 11.523438 19.734375 22.167969 19.734375 22.574219 C 19.734375 22.980469 19.453125 24.097656 18.5 24.097656 L 19.351562 24.097656 C 19.351562 24.097656 20.28125 23.96875 20.28125 22.578125 C 20.28125 22.578125 20.28125 10.996094 20.28125 10.257812 C 20.28125 9.519531 19.90625 8.625 19.273438 8.625 L 18.769531 8.625 " fill-opacity="1" fill-rule="nonzero"/><path fill="#75b8bd" d="M 23.578125 8.625 C 23.578125 8.625 24.546875 8.992188 24.546875 10.257812 C 24.546875 11.523438 24.546875 22.167969 24.546875 22.574219 C 24.546875 22.980469 24.265625 24.097656 23.3125 24.097656 L 24.164062 24.097656 C 24.164062 24.097656 25.09375 23.96875 25.09375 22.578125 C 25.09375 22.578125 25.09375 10.996094 25.09375 10.257812 C 25.09375 9.519531 24.71875 8.625 24.085938 8.625 L 23.578125 8.625 " fill-opacity="1" fill-rule="nonzero"/><path fill="#af7147" d="M 16.355469 22.222656 L 16.355469 10.546875 C 16.355469 8.894531 17.632812 8.625 17.632812 8.625 L 16.808594 8.625 C 16.679688 8.679688 16.511719 8.769531 16.339844 8.914062 C 16.148438 9.078125 15.996094 9.28125 15.882812 9.519531 C 15.746094 9.8125 15.679688 10.15625 15.679688 10.546875 L 15.679688 22.222656 C 15.679688 22.796875 16.078125 23.824219 16.660156 24.097656 L 17.5625 24.097656 C 16.890625 24.097656 16.355469 22.878906 16.355469 22.222656 " fill-opacity="1" fill-rule="nonzero"/><path fill="#874e35" d="M 16.066406 22.222656 L 16.066406 10.546875 C 16.066406 8.894531 17.339844 8.625 17.339844 8.625 L 17.125 8.625 C 17 8.679688 16.828125 8.769531 16.65625 8.914062 C 16.464844 9.078125 16.3125 9.28125 16.203125 9.519531 C 16.066406 9.8125 15.996094 10.15625 15.996094 10.546875 L 15.996094 22.222656 C 15.996094 22.796875 16.394531 23.824219 16.976562 24.097656 L 17.269531 24.097656 C 16.597656 24.097656 16.066406 22.878906 16.066406 22.222656 " fill-opacity="1" fill-rule="nonzero"/><path fill="#ffd2b8" d="M 23.261719 13.128906 L 20.851562 14.054688 C 20.804688 14.074219 20.75 14.050781 20.734375 14.003906 L 20.046875 12.226562 C 20.03125 12.179688 20.054688 12.125 20.101562 12.105469 L 22.511719 11.179688 C 22.558594 11.164062 22.609375 11.1875 22.628906 11.234375 L 23.3125 13.011719 C 23.332031 13.058594 23.308594 13.109375 23.261719 13.128906 " fill-opacity="1" fill-rule="nonzero"/><path fill="#e2b540" d="M 21.679688 13.171875 C 21.375 13.171875 21.125 12.925781 21.125 12.617188 C 21.125 12.3125 21.375 12.0625 21.679688 12.0625 C 21.988281 12.0625 22.234375 12.3125 22.234375 12.617188 C 22.234375 12.925781 21.988281 13.171875 21.679688 13.171875 Z M 21.679688 11.792969 C 21.226562 11.792969 20.855469 12.164062 20.855469 12.617188 C 20.855469 13.074219 21.226562 13.441406 21.679688 13.441406 C 22.136719 13.441406 22.503906 13.074219 22.503906 12.617188 C 22.503906 12.164062 22.136719 11.792969 21.679688 11.792969 " fill-opacity="1" fill-rule="nonzero"/><path fill="#75b8bd" d="M 22.6875 12.5 L 20.851562 13.203125 L 20.671875 12.738281 L 22.507812 12.03125 L 22.6875 12.5 " fill-opacity="1" fill-rule="nonzero"/><path fill="#874e35" d="M 16.957031 21.664062 C 16.824219 21.664062 16.71875 21.554688 16.71875 21.425781 L 16.71875 20.316406 C 16.71875 20.1875 16.824219 20.082031 16.957031 20.082031 C 17.085938 20.082031 17.191406 20.1875 17.191406 20.316406 L 17.191406 21.425781 C 17.191406 21.554688 17.085938 21.664062 16.957031 21.664062 " fill-opacity="1" fill-rule="nonzero"/><path fill="#874e35" d="M 15.261719 21.664062 C 15.132812 21.664062 15.023438 21.554688 15.023438 21.425781 L 15.023438 20.316406 C 15.023438 20.1875 15.132812 20.082031 15.261719 20.082031 C 15.390625 20.082031 15.5 20.1875 15.5 20.316406 L 15.5 21.425781 C 15.5 21.554688 15.390625 21.664062 15.261719 21.664062 " fill-opacity="1" fill-rule="nonzero"/><path fill="#874e35" d="M 16.957031 12.628906 C 16.824219 12.628906 16.71875 12.523438 16.71875 12.394531 L 16.71875 11.285156 C 16.71875 11.152344 16.824219 11.046875 16.957031 11.046875 C 17.085938 11.046875 17.191406 11.152344 17.191406 11.285156 L 17.191406 12.394531 C 17.191406 12.523438 17.085938 12.628906 16.957031 12.628906 " fill-opacity="1" fill-rule="nonzero"/><path fill="#874e35" d="M 15.261719 12.628906 C 15.132812 12.628906 15.023438 12.523438 15.023438 12.394531 L 15.023438 11.285156 C 15.023438 11.152344 15.132812 11.046875 15.261719 11.046875 C 15.390625 11.046875 15.5 11.152344 15.5 11.285156 L 15.5 12.394531 C 15.5 12.523438 15.390625 12.628906 15.261719 12.628906 " fill-opacity="1" fill-rule="nonzero"/><path fill="#ffdac5" d="M 18.128906 9.871094 C 18.078125 9.917969 17.996094 9.898438 17.96875 9.835938 C 17.953125 9.796875 17.960938 9.75 17.992188 9.722656 C 18.046875 9.675781 18.125 9.695312 18.152344 9.753906 C 18.171875 9.792969 18.160156 9.84375 18.128906 9.871094 Z M 17.941406 9.515625 C 17.683594 9.625 17.5625 9.925781 17.671875 10.183594 L 18.21875 11.472656 C 18.238281 11.519531 18.292969 11.539062 18.339844 11.519531 L 19.109375 11.195312 C 19.15625 11.175781 19.175781 11.121094 19.15625 11.074219 L 18.609375 9.785156 C 18.597656 9.757812 18.582031 9.730469 18.566406 9.707031 C 18.433594 9.503906 18.171875 9.417969 17.941406 9.515625 " fill-opacity="1" fill-rule="nonzero"/><path fill="#874e35" d="M 19.03125 8.78125 C 18.785156 9.183594 18.203125 9.308594 18.074219 9.796875 C 18.0625 9.839844 18 9.8125 18.011719 9.769531 C 18.097656 9.449219 18.386719 9.265625 18.640625 9.078125 C 18.800781 8.960938 18.949219 8.828125 19.027344 8.640625 C 19.058594 8.570312 19.117188 8.40625 19.0625 8.332031 L 19.0625 8.246094 C 19.082031 8.253906 19.101562 8.269531 19.117188 8.289062 C 19.210938 8.425781 19.105469 8.660156 19.03125 8.78125 " fill-opacity="1" fill-rule="nonzero"/><path fill="#ffd2b8" d="M 20.347656 17.25 C 20.347656 18.074219 19.679688 18.742188 18.855469 18.742188 C 18.03125 18.742188 17.363281 18.074219 17.363281 17.25 C 17.363281 16.429688 18.03125 15.761719 18.855469 15.761719 C 19.679688 15.761719 20.347656 16.429688 20.347656 17.25 " fill-opacity="1" fill-rule="nonzero"/><path fill="#ffd2b8" d="M 20.210938 17.25 C 20.210938 17.996094 19.605469 18.601562 18.855469 18.601562 C 18.109375 18.601562 17.503906 17.996094 17.503906 17.25 C 17.503906 16.503906 18.109375 15.902344 18.855469 15.902344 C 19.605469 15.902344 20.210938 16.503906 20.210938 17.25 " fill-opacity="1" fill-rule="nonzero"/><path fill="#dc5f44" d="M 20.210938 17.25 C 20.210938 17.339844 20.199219 17.425781 20.183594 17.507812 L 19.03125 16.445312 L 19.277344 16.175781 L 20.1875 17.011719 C 20.203125 17.089844 20.210938 17.171875 20.210938 17.25 " fill-opacity="1" fill-rule="nonzero"/><path fill="#dc5f44" d="M 20.109375 17.765625 C 20.058594 17.882812 19.996094 17.992188 19.917969 18.089844 L 18.496094 16.78125 L 18.742188 16.511719 L 20.109375 17.765625 " fill-opacity="1" fill-rule="nonzero"/><path fill="#75b8bd" d="M 19.445312 16.035156 L 18.640625 16.910156 L 17.933594 16.261719 C 18.175781 16.039062 18.5 15.902344 18.855469 15.902344 C 19.066406 15.902344 19.269531 15.949219 19.445312 16.035156 " fill-opacity="1" fill-rule="nonzero"/><path fill="#dc5f44" d="M 19.75 18.265625 C 19.65625 18.351562 19.550781 18.421875 19.433594 18.472656 L 17.589844 16.777344 C 17.632812 16.65625 17.695312 16.546875 17.769531 16.445312 L 19.75 18.265625 " fill-opacity="1" fill-rule="nonzero"/><path fill="#dc5f44" d="M 19.164062 18.566406 C 19.066406 18.589844 18.960938 18.601562 18.855469 18.601562 C 18.785156 18.601562 18.710938 18.597656 18.640625 18.585938 L 17.542969 17.574219 C 17.519531 17.472656 17.503906 17.363281 17.503906 17.25 C 17.503906 17.183594 17.507812 17.117188 17.519531 17.054688 L 19.164062 18.566406 " fill-opacity="1" fill-rule="nonzero"/><path fill="#ffd2b8" d="M 22.449219 20.585938 C 22.449219 21.148438 21.992188 21.601562 21.429688 21.601562 C 20.867188 21.601562 20.410156 21.148438 20.410156 20.585938 C 20.410156 20.023438 20.867188 19.566406 21.429688 19.566406 C 21.992188 19.566406 22.449219 20.023438 22.449219 20.585938 " fill-opacity="1" fill-rule="nonzero"/><path fill="#75b8bd" d="M 22.324219 20.585938 C 22.324219 21.078125 21.925781 21.480469 21.429688 21.480469 C 20.933594 21.480469 20.53125 21.078125 20.53125 20.585938 C 20.53125 20.089844 20.933594 19.6875 21.429688 19.6875 C 21.925781 19.6875 22.324219 20.089844 22.324219 20.585938 " fill-opacity="1" fill-rule="nonzero"/><path fill="#874334" d="M 21.214844 20.914062 C 21.136719 20.984375 21.074219 20.863281 21.003906 20.859375 C 20.929688 20.859375 20.878906 21.039062 20.800781 21.011719 C 20.753906 20.992188 20.664062 20.953125 20.582031 20.878906 C 20.550781 20.785156 20.53125 20.6875 20.53125 20.585938 C 20.53125 20.363281 20.613281 20.15625 20.746094 20 C 20.769531 20.085938 20.8125 20.171875 20.914062 20.210938 C 21.132812 20.292969 21.257812 20.222656 21.3125 20.363281 C 21.367188 20.503906 21.324219 20.496094 21.367188 20.5625 C 21.414062 20.628906 21.289062 20.839844 21.214844 20.914062 " fill-opacity="1" fill-rule="nonzero"/><path fill="#874334" d="M 22.289062 20.835938 C 22.207031 21.121094 21.988281 21.34375 21.707031 21.4375 C 21.707031 21.359375 21.714844 21.261719 21.738281 21.207031 C 21.785156 21.101562 21.890625 21.128906 21.890625 21.089844 C 21.890625 20.960938 21.933594 20.867188 22.085938 20.824219 C 22.164062 20.800781 22.238281 20.816406 22.289062 20.835938 " fill-opacity="1" fill-rule="nonzero"/><path fill="#874334" d="M 21.511719 21.476562 C 21.484375 21.480469 21.457031 21.480469 21.429688 21.480469 C 21.203125 21.480469 20.992188 21.394531 20.835938 21.257812 C 20.84375 21.25 20.851562 21.246094 20.859375 21.246094 C 20.988281 21.207031 21.046875 21.273438 21.101562 21.332031 C 21.15625 21.390625 21.1875 21.324219 21.296875 21.332031 C 21.371094 21.335938 21.457031 21.417969 21.511719 21.476562 " fill-opacity="1" fill-rule="nonzero"/><path fill="#874334" d="M 22.324219 20.585938 C 22.324219 20.648438 22.320312 20.710938 22.304688 20.773438 C 22.21875 20.78125 22.179688 20.585938 22.148438 20.492188 C 22.109375 20.371094 22.035156 20.429688 21.789062 20.339844 C 21.585938 20.261719 21.582031 19.957031 21.628906 19.710938 C 22.027344 19.800781 22.324219 20.160156 22.324219 20.585938 " fill-opacity="1" fill-rule="nonzero"/><path fill="#874e35" d="M 17.953125 10.335938 C 18.140625 10.253906 18.328125 10.171875 18.519531 10.09375 C 18.558594 10.078125 18.539062 10.011719 18.496094 10.027344 C 18.308594 10.109375 18.121094 10.1875 17.929688 10.269531 C 17.890625 10.285156 17.910156 10.351562 17.953125 10.335938 " fill-opacity="1" fill-rule="nonzero"/><path fill="#874e35" d="M 18.082031 10.648438 C 18.273438 10.570312 18.460938 10.488281 18.652344 10.410156 C 18.691406 10.390625 18.671875 10.328125 18.628906 10.34375 C 18.441406 10.425781 18.253906 10.503906 18.0625 10.585938 C 18.023438 10.601562 18.042969 10.667969 18.082031 10.648438 " fill-opacity="1" fill-rule="nonzero"/><path fill="#874e35" d="M 18.226562 10.992188 C 18.417969 10.910156 18.605469 10.828125 18.796875 10.75 C 18.835938 10.734375 18.816406 10.667969 18.773438 10.683594 C 18.585938 10.765625 18.394531 10.84375 18.207031 10.925781 C 18.167969 10.941406 18.1875 11.007812 18.226562 10.992188 " fill-opacity="1" fill-rule="nonzero"/></svg>