<svg xmlns="http://www.w3.org/2000/svg" xmlns:xlink="http://www.w3.org/1999/xlink" width="40" zoomAndPan="magnify" viewBox="0 0 30 30.000001" height="40" preserveAspectRatio="xMidYMid meet" version="1.0"><defs><clipPath id="2314725449"><path d="M 3.386719 5 L 26.613281 5 L 26.613281 23.804688 L 3.386719 23.804688 Z M 3.386719 5 " clip-rule="nonzero"/></clipPath></defs><g clip-path="url(#2314725449)"><path fill="#014d4e" d="M 26.429688 11.386719 C 26.359375 11.25 26.277344 11.222656 26.136719 11.214844 C 25.933594 11.203125 25.722656 11.171875 25.515625 11.179688 C 25.285156 11.183594 25.078125 11.230469 24.855469 11.148438 C 24.683594 11.085938 24.566406 10.976562 24.433594 10.863281 C 24.15625 10.621094 23.878906 10.546875 23.515625 10.523438 C 23.414062 10.519531 23.304688 10.511719 23.199219 10.519531 C 23.144531 10.523438 23.070312 10.585938 23.011719 10.566406 C 22.859375 10.523438 22.925781 10.414062 22.953125 10.296875 C 22.976562 10.175781 22.996094 10.078125 22.980469 9.957031 C 22.96875 9.832031 22.894531 9.746094 22.976562 9.632812 C 23.046875 9.539062 23.125 9.59375 23.167969 9.492188 C 23.183594 9.460938 23.144531 9.382812 23.160156 9.335938 C 23.179688 9.273438 23.21875 9.269531 23.25 9.21875 C 23.417969 8.976562 23.640625 8.824219 23.589844 8.488281 C 23.574219 8.394531 23.527344 8.257812 23.421875 8.242188 C 23.320312 8.230469 23.265625 8.347656 23.167969 8.375 C 22.96875 8.425781 22.832031 8.171875 22.636719 8.203125 C 22.371094 8.246094 22.355469 8.5 22.046875 8.296875 C 21.875 8.1875 21.726562 8.058594 21.542969 7.949219 C 21.332031 7.816406 21.265625 7.710938 21.019531 7.769531 C 20.660156 7.855469 20.328125 7.304688 19.960938 7.617188 C 19.777344 7.777344 19.761719 7.847656 19.519531 7.855469 C 19.382812 7.863281 19.125 7.886719 19.074219 8.007812 C 18.976562 8.027344 18.875 8.042969 18.773438 8.054688 C 18.679688 7.917969 18.601562 7.753906 18.527344 7.632812 C 18.355469 7.367188 18.136719 7.324219 17.839844 7.265625 C 17.601562 7.21875 17.398438 7.058594 17.191406 7.183594 C 17.023438 7.289062 16.902344 7.46875 16.679688 7.433594 C 16.578125 7.417969 16.542969 7.335938 16.414062 7.371094 C 16.339844 7.390625 16.273438 7.507812 16.203125 7.523438 C 16.089844 7.542969 15.8125 7.371094 15.710938 7.300781 C 15.605469 7.230469 15.621094 7.152344 15.484375 7.179688 C 15.390625 7.199219 15.363281 7.304688 15.292969 7.335938 C 15.253906 7.351562 15.0625 7.367188 15.011719 7.375 C 14.902344 7.390625 14.871094 7.40625 14.800781 7.296875 C 14.699219 7.136719 14.816406 6.894531 14.683594 6.757812 C 14.601562 6.675781 14.277344 6.6875 14.191406 6.699219 C 14.105469 6.683594 14.023438 6.660156 13.9375 6.648438 C 13.9375 6.648438 13.9375 6.640625 13.9375 6.640625 C 13.898438 6.503906 13.859375 6.34375 13.78125 6.226562 C 13.722656 6.136719 13.640625 6.105469 13.578125 6.015625 C 13.515625 5.917969 13.539062 5.78125 13.46875 5.679688 C 13.363281 5.53125 13.28125 5.613281 13.148438 5.589844 C 12.890625 5.542969 12.855469 5.128906 12.578125 5.117188 C 12.449219 5.113281 12.378906 5.214844 12.25 5.195312 C 12.140625 5.179688 12.070312 5.101562 11.96875 5.058594 C 11.714844 4.933594 11.421875 5.136719 11.199219 5.269531 C 10.953125 5.421875 10.757812 5.273438 10.507812 5.359375 C 10.273438 5.441406 10.269531 5.714844 10.046875 5.777344 C 9.808594 5.84375 9.570312 5.683594 9.339844 5.71875 C 9.140625 5.75 8.972656 5.851562 8.820312 5.664062 C 8.671875 5.488281 8.628906 5.273438 8.371094 5.21875 C 8.1875 5.183594 8.054688 5.296875 7.867188 5.300781 C 7.664062 5.304688 7.535156 5.332031 7.46875 5.554688 C 7.355469 5.941406 7.519531 6.273438 7.164062 6.546875 C 7.011719 6.660156 6.910156 6.707031 6.894531 6.910156 C 6.886719 7.09375 6.953125 7.253906 6.996094 7.4375 C 7.042969 7.613281 7.089844 7.761719 7.179688 7.929688 C 7.253906 8.058594 7.378906 8.195312 7.367188 8.347656 C 7.355469 8.46875 7.28125 8.65625 7.234375 8.769531 C 7.183594 8.886719 7.082031 8.941406 7.011719 9.027344 C 6.929688 9.027344 6.855469 9.03125 6.78125 9.03125 C 6.636719 9.035156 6.464844 8.976562 6.339844 9.035156 C 6.167969 9.121094 6.136719 9.40625 5.945312 9.476562 C 5.808594 9.527344 5.695312 9.394531 5.542969 9.4375 C 5.386719 9.476562 5.265625 9.628906 5.210938 9.777344 C 5.097656 10.054688 5.179688 10.605469 4.816406 10.675781 C 4.6875 10.703125 4.527344 10.625 4.445312 10.757812 C 4.40625 10.828125 4.449219 11.070312 4.460938 11.152344 C 4.511719 11.527344 4.738281 11.71875 4.976562 11.980469 C 5.144531 12.160156 5.566406 12.4375 5.246094 12.699219 C 5.113281 12.808594 4.941406 12.839844 4.808594 12.960938 C 4.699219 13.058594 4.613281 13.097656 4.480469 13.171875 C 4.355469 13.246094 4.253906 13.304688 4.199219 13.4375 C 4.15625 13.53125 4.152344 13.632812 4.113281 13.730469 C 3.996094 13.988281 3.898438 14.273438 3.761719 14.519531 C 3.664062 14.699219 3.417969 14.855469 3.433594 15.0625 C 3.457031 15.386719 3.679688 15.152344 3.777344 15.027344 C 3.914062 14.847656 3.964844 14.820312 4.1875 14.824219 C 4.386719 14.828125 4.5625 14.738281 4.699219 14.589844 C 4.839844 14.445312 4.871094 14.300781 5.109375 14.417969 C 5.269531 14.5 5.40625 14.640625 5.566406 14.738281 C 5.757812 14.855469 5.824219 14.933594 5.875 15.148438 C 5.914062 15.332031 5.878906 15.523438 5.933594 15.707031 C 5.988281 15.886719 6.125 16.003906 6.261719 16.140625 C 6.507812 16.382812 6.636719 16.640625 6.816406 16.914062 C 6.824219 16.957031 6.855469 17.042969 6.890625 17.132812 C 6.871094 17.160156 6.851562 17.183594 6.824219 17.207031 C 6.667969 17.320312 6.609375 17.460938 6.480469 17.589844 C 6.292969 17.769531 6.136719 17.691406 5.917969 17.734375 C 5.714844 17.777344 5.65625 18.078125 5.613281 18.261719 C 5.566406 18.488281 5.363281 18.589844 5.144531 18.675781 C 4.960938 18.75 4.714844 18.675781 4.496094 18.707031 C 4.210938 18.75 4.191406 18.929688 4.0625 19.136719 C 4 19.238281 3.847656 19.285156 3.800781 19.386719 C 3.726562 19.558594 3.859375 19.523438 3.976562 19.554688 C 4.101562 19.582031 4.1875 19.65625 4.324219 19.65625 C 4.457031 19.65625 4.53125 19.589844 4.664062 19.667969 C 4.839844 19.777344 5.058594 20.074219 5.105469 20.273438 C 5.167969 20.527344 4.996094 20.859375 5.113281 21.066406 C 5.199219 21.222656 5.367188 21.285156 5.378906 21.480469 C 5.382812 21.613281 5.304688 21.695312 5.261719 21.8125 C 5.179688 22 5.199219 22.085938 5.3125 22.242188 C 5.386719 22.351562 5.515625 22.433594 5.453125 22.597656 C 5.402344 22.734375 5.261719 22.792969 5.304688 22.964844 C 5.351562 23.136719 5.65625 23.25 5.8125 23.332031 C 5.960938 23.40625 6.089844 23.503906 6.238281 23.578125 C 6.449219 23.695312 6.621094 23.605469 6.832031 23.539062 C 7.054688 23.46875 7.269531 23.457031 7.472656 23.558594 C 7.601562 23.617188 7.707031 23.691406 7.859375 23.71875 C 8.191406 23.792969 8.460938 23.589844 8.769531 23.796875 C 8.941406 23.914062 9.210938 24.089844 9.429688 24.085938 C 9.542969 24.085938 9.652344 24.003906 9.761719 23.984375 C 9.882812 23.957031 10.015625 23.957031 10.136719 23.933594 C 10.410156 23.871094 10.628906 23.890625 10.902344 23.890625 C 11.054688 23.890625 11.03125 23.902344 11.183594 23.828125 C 11.304688 23.765625 11.417969 23.734375 11.542969 23.726562 C 11.660156 23.71875 11.953125 23.820312 12.035156 23.753906 C 12.238281 23.605469 11.9375 23.136719 12.050781 22.929688 C 12.097656 22.84375 12.1875 22.785156 12.253906 22.71875 C 12.292969 22.675781 12.308594 22.632812 12.347656 22.597656 C 12.375 22.574219 12.445312 22.613281 12.464844 22.585938 C 12.523438 22.511719 12.464844 22.417969 12.457031 22.328125 C 12.445312 22.214844 12.441406 22.101562 12.457031 21.984375 C 12.492188 21.734375 12.679688 21.632812 12.773438 21.421875 C 12.796875 21.488281 12.90625 21.628906 12.972656 21.660156 C 13.078125 21.707031 13.175781 21.605469 13.269531 21.679688 C 13.355469 21.75 13.335938 21.980469 13.441406 22.085938 C 13.535156 22.175781 13.644531 22.253906 13.726562 22.347656 C 13.894531 22.042969 14.0625 21.65625 14.304688 21.402344 C 14.398438 21.300781 14.523438 21.160156 14.628906 21.011719 C 14.703125 21.007812 14.785156 20.996094 14.859375 20.992188 C 14.902344 20.824219 15.492188 21.058594 15.652344 21.066406 C 15.867188 21.082031 16.015625 21.023438 16.207031 20.980469 C 16.398438 20.941406 16.476562 21.078125 16.632812 21.117188 C 16.820312 21.167969 16.933594 20.980469 17.082031 20.898438 C 17.261719 20.804688 17.402344 20.824219 17.589844 20.847656 C 17.792969 20.871094 17.917969 20.847656 18.097656 20.757812 C 18.1875 20.710938 18.273438 20.664062 18.375 20.664062 C 18.472656 20.664062 18.53125 20.726562 18.621094 20.675781 C 18.703125 20.636719 18.714844 20.511719 18.800781 20.453125 C 18.90625 20.390625 19.023438 20.429688 19.042969 20.265625 C 19.058594 20.121094 18.925781 20.023438 18.816406 19.921875 C 18.859375 19.816406 18.894531 19.707031 18.9375 19.597656 C 18.917969 19.496094 18.871094 19.304688 18.867188 19.183594 C 18.859375 19.035156 18.945312 18.828125 18.992188 18.675781 C 19.058594 18.460938 19.179688 18.277344 19.269531 18.070312 C 19.339844 17.902344 19.390625 17.714844 19.527344 17.597656 C 19.691406 17.746094 19.636719 18.019531 19.730469 18.207031 C 19.789062 18.3125 20.074219 18.585938 20.175781 18.574219 C 20.273438 18.566406 20.347656 18.429688 20.441406 18.402344 C 20.550781 18.367188 20.660156 18.414062 20.757812 18.460938 C 20.890625 18.527344 20.945312 18.632812 21.074219 18.699219 C 21.160156 18.742188 21.300781 18.789062 21.402344 18.8125 C 21.730469 18.90625 21.953125 18.804688 22.082031 18.484375 C 22.210938 18.15625 22.207031 17.957031 22.511719 17.75 C 22.621094 17.675781 22.78125 17.660156 22.875 17.59375 C 23.03125 17.488281 22.976562 17.257812 22.933594 17.101562 C 22.886719 16.941406 22.75 16.792969 22.71875 16.632812 C 22.6875 16.464844 22.796875 16.300781 22.890625 16.175781 C 23.042969 15.980469 23.164062 15.800781 23.265625 15.570312 C 23.382812 15.285156 23.382812 14.976562 23.40625 14.671875 C 23.433594 14.367188 23.492188 14.070312 23.554688 13.769531 C 23.679688 13.472656 23.796875 13.167969 24.066406 12.957031 C 24.210938 12.839844 24.375 12.601562 24.53125 12.527344 C 24.683594 12.453125 24.925781 12.511719 25.09375 12.519531 C 25.386719 12.535156 25.523438 12.496094 25.789062 12.363281 C 25.980469 12.265625 26.003906 12.1875 26.136719 12.039062 C 26.234375 11.933594 26.398438 11.929688 26.476562 11.832031 C 26.582031 11.707031 26.5 11.53125 26.429688 11.386719 Z M 26.429688 11.386719 " fill-opacity="1" fill-rule="nonzero"/></g></svg>