<svg xmlns="http://www.w3.org/2000/svg" xmlns:xlink="http://www.w3.org/1999/xlink" width="40" zoomAndPan="magnify" viewBox="0 0 30 30.000001" height="40" preserveAspectRatio="xMidYMid meet" version="1.0"><defs><clipPath id="e0d1b7a1f3"><path d="M 3.386719 4.964844 L 26.613281 4.964844 L 26.613281 23.835938 L 3.386719 23.835938 Z M 3.386719 4.964844 " clip-rule="nonzero"/></clipPath></defs><g clip-path="url(#e0d1b7a1f3)"><path fill="#014d4e" d="M 26.585938 10.53125 C 26.59375 10.621094 26.613281 10.714844 26.613281 10.808594 C 26.566406 10.808594 26.507812 10.828125 26.476562 10.855469 C 26.4375 10.890625 26.445312 10.9375 26.445312 10.988281 C 26.445312 11.09375 26.453125 11.191406 26.410156 11.285156 C 26.355469 11.296875 26.277344 11.328125 26.238281 11.367188 C 26.1875 11.417969 26.175781 11.464844 26.113281 11.5 C 26.058594 11.53125 26.011719 11.546875 25.953125 11.5625 C 25.902344 11.574219 25.828125 11.585938 25.78125 11.621094 C 25.699219 11.691406 25.726562 11.8125 25.664062 11.886719 C 25.605469 11.953125 25.546875 12.035156 25.472656 12.082031 C 25.347656 12.152344 25.082031 12.027344 25.007812 11.914062 C 24.914062 11.761719 24.929688 11.566406 24.8125 11.421875 C 24.777344 11.378906 24.757812 11.375 24.761719 11.316406 C 24.765625 11.253906 24.769531 11.222656 24.839844 11.230469 C 24.933594 11.246094 24.953125 11.40625 25.046875 11.410156 C 25.058594 11.359375 25.023438 11.300781 25.023438 11.246094 C 25.019531 11.191406 25.027344 11.132812 25.015625 11.074219 C 25.011719 11.027344 24.996094 10.992188 24.972656 10.949219 C 24.957031 10.917969 24.945312 10.867188 24.921875 10.832031 C 24.871094 10.75 24.734375 10.785156 24.652344 10.789062 C 24.441406 10.796875 24.28125 10.820312 24.128906 10.976562 C 24.066406 11.039062 24.039062 11.128906 23.984375 11.195312 C 23.953125 11.234375 23.917969 11.269531 23.898438 11.316406 C 23.863281 11.394531 23.875 11.535156 23.890625 11.621094 C 23.910156 11.71875 23.941406 11.816406 23.941406 11.917969 C 23.941406 12.015625 23.949219 12.109375 23.957031 12.207031 C 23.964844 12.257812 23.96875 12.304688 23.980469 12.351562 C 23.996094 12.402344 24.011719 12.429688 24.011719 12.484375 C 24.011719 12.527344 24.019531 12.582031 23.992188 12.625 C 23.964844 12.667969 23.925781 12.667969 23.917969 12.722656 C 23.90625 12.785156 23.914062 12.855469 23.875 12.910156 C 23.851562 12.941406 23.785156 12.957031 23.773438 12.988281 C 23.753906 13.03125 23.785156 13.097656 23.792969 13.132812 C 23.804688 13.175781 23.804688 13.226562 23.808594 13.277344 C 23.816406 13.382812 23.832031 13.476562 23.832031 13.585938 C 23.832031 13.632812 23.824219 13.695312 23.84375 13.738281 C 23.859375 13.78125 23.890625 13.800781 23.925781 13.828125 C 23.953125 13.855469 23.996094 13.882812 24.015625 13.914062 C 24.039062 13.957031 24.03125 14.003906 24.03125 14.054688 C 24.03125 14.183594 24.015625 14.257812 23.960938 14.371094 C 23.902344 14.484375 23.902344 14.570312 23.902344 14.695312 C 23.902344 14.851562 23.925781 14.886719 24.074219 14.898438 C 24.144531 14.902344 24.171875 14.929688 24.238281 14.945312 C 24.324219 14.964844 24.335938 14.910156 24.398438 14.878906 C 24.523438 14.820312 24.660156 14.855469 24.78125 14.886719 C 24.828125 15 24.863281 15.101562 24.898438 15.214844 C 24.921875 15.277344 24.925781 15.34375 24.945312 15.402344 C 24.96875 15.460938 25.023438 15.507812 25.039062 15.566406 C 25.09375 15.792969 24.855469 15.832031 24.6875 15.84375 C 24.566406 15.847656 24.472656 15.839844 24.355469 15.875 C 24.21875 15.917969 24.085938 15.960938 23.941406 15.96875 C 23.855469 15.972656 23.78125 15.992188 23.691406 15.988281 C 23.597656 15.980469 23.539062 15.941406 23.453125 15.929688 C 23.277344 15.910156 23.105469 15.980469 22.988281 16.09375 C 22.839844 16.234375 22.714844 16.285156 22.507812 16.292969 C 22.484375 16.453125 22.613281 16.515625 22.714844 16.601562 C 22.757812 16.632812 22.875 16.691406 22.902344 16.742188 C 22.933594 16.796875 22.910156 16.933594 22.910156 17 C 22.910156 17.089844 22.914062 17.183594 22.910156 17.273438 C 22.902344 17.386719 22.855469 17.429688 22.804688 17.523438 C 22.710938 17.703125 22.597656 17.847656 22.558594 18.058594 C 22.527344 18.210938 22.558594 18.453125 22.449219 18.566406 C 22.347656 18.664062 22.183594 18.792969 22.121094 18.933594 C 22.066406 19.050781 22.082031 19.242188 22.054688 19.375 C 22.027344 19.496094 22.003906 19.609375 21.960938 19.726562 C 21.8125 20.101562 21.574219 20.460938 21.4375 20.84375 C 21.40625 20.933594 21.402344 21.027344 21.378906 21.113281 C 21.351562 21.207031 21.300781 21.285156 21.28125 21.378906 C 21.242188 21.546875 21.25 21.769531 21.273438 21.941406 C 21.300781 22.132812 21.363281 22.28125 21.339844 22.488281 C 21.332031 22.578125 21.320312 22.671875 21.308594 22.765625 C 21.300781 22.839844 21.320312 22.964844 21.292969 23.03125 C 21.277344 23.074219 21.222656 23.109375 21.191406 23.140625 C 21.070312 23.257812 20.949219 23.375 20.828125 23.496094 C 20.632812 23.683594 20.4375 23.875 20.242188 24.0625 L 8.246094 21.671875 L 3.386719 15.382812 L 3.386719 14.742188 C 3.410156 14.695312 3.496094 14.726562 3.519531 14.65625 C 3.535156 14.609375 3.527344 14.539062 3.519531 14.484375 C 3.507812 14.394531 3.464844 14.304688 3.453125 14.214844 C 3.445312 14.140625 3.457031 13.996094 3.558594 14.078125 C 3.699219 14.191406 3.65625 14.417969 3.65625 14.585938 C 3.65625 14.691406 3.644531 14.828125 3.699219 14.925781 C 3.75 15.019531 3.804688 14.851562 3.8125 14.804688 C 3.820312 14.757812 3.800781 14.546875 3.898438 14.636719 C 3.929688 14.667969 3.914062 14.714844 3.925781 14.753906 C 3.933594 14.769531 3.949219 14.785156 3.953125 14.804688 C 3.960938 14.824219 3.960938 14.839844 3.964844 14.867188 C 3.980469 14.984375 4.089844 14.953125 4.105469 14.851562 C 4.109375 14.804688 4.117188 14.757812 4.125 14.710938 C 4.132812 14.671875 4.128906 14.609375 4.140625 14.574219 C 4.183594 14.46875 4.304688 14.542969 4.363281 14.582031 C 4.429688 14.621094 4.398438 14.648438 4.386719 14.710938 C 4.378906 14.753906 4.390625 14.796875 4.386719 14.839844 C 4.382812 14.886719 4.359375 14.914062 4.34375 14.949219 C 4.328125 14.988281 4.324219 15.039062 4.324219 15.082031 C 4.320312 15.125 4.324219 15.167969 4.324219 15.210938 C 4.324219 15.28125 4.335938 15.320312 4.351562 15.382812 C 4.367188 15.433594 4.363281 15.480469 4.371094 15.53125 C 4.375 15.574219 4.394531 15.617188 4.402344 15.660156 C 4.417969 15.773438 4.40625 15.894531 4.46875 15.992188 C 4.523438 16.066406 4.625 16.113281 4.714844 16.125 C 4.800781 16.140625 4.925781 16.097656 5 16.152344 C 5.03125 16.179688 5.03125 16.230469 5.058594 16.25 C 5.089844 16.277344 5.148438 16.261719 5.167969 16.226562 C 5.191406 16.179688 5.164062 16.152344 5.132812 16.128906 C 5.09375 16.101562 5.0625 16.078125 5.132812 16.070312 C 5.179688 16.066406 5.226562 16.089844 5.273438 16.097656 C 5.324219 16.101562 5.367188 16.089844 5.414062 16.085938 C 5.460938 16.082031 5.519531 16.078125 5.558594 16.101562 C 5.59375 16.121094 5.613281 16.148438 5.648438 16.164062 C 5.703125 16.195312 5.785156 16.289062 5.863281 16.257812 C 5.894531 16.242188 5.886719 16.179688 5.941406 16.179688 C 5.984375 16.179688 6.023438 16.222656 6.070312 16.230469 C 6.125 16.238281 6.199219 16.234375 6.253906 16.222656 C 6.324219 16.203125 6.402344 16.207031 6.476562 16.195312 C 6.566406 16.183594 6.636719 16.152344 6.722656 16.121094 C 6.800781 16.09375 6.894531 16.078125 6.972656 16.03125 C 7.050781 15.984375 7.160156 15.953125 7.222656 15.890625 C 7.261719 15.851562 7.285156 15.824219 7.335938 15.796875 C 7.402344 15.761719 7.472656 15.738281 7.539062 15.699219 C 7.59375 15.667969 7.625 15.632812 7.65625 15.582031 C 7.6875 15.53125 7.699219 15.53125 7.757812 15.527344 C 7.894531 15.519531 8 15.484375 8.101562 15.394531 C 8.175781 15.328125 8.1875 15.285156 8.210938 15.191406 C 8.234375 15.101562 8.265625 15.015625 8.375 15.039062 C 8.472656 15.058594 8.488281 15.148438 8.554688 15.207031 C 8.589844 15.234375 8.644531 15.285156 8.683594 15.296875 C 8.730469 15.3125 8.78125 15.289062 8.824219 15.285156 C 8.925781 15.273438 9.011719 15.316406 9.105469 15.351562 C 9.164062 15.371094 9.179688 15.355469 9.238281 15.34375 C 9.289062 15.328125 9.339844 15.332031 9.390625 15.332031 C 9.484375 15.332031 9.574219 15.355469 9.667969 15.347656 C 9.710938 15.339844 9.753906 15.324219 9.796875 15.316406 C 9.839844 15.308594 9.878906 15.3125 9.921875 15.308594 C 9.964844 15.308594 10.007812 15.300781 10.046875 15.292969 C 10.09375 15.285156 10.109375 15.257812 10.15625 15.246094 C 10.242188 15.226562 10.304688 15.300781 10.375 15.332031 C 10.472656 15.371094 10.578125 15.328125 10.675781 15.316406 C 10.710938 15.308594 10.765625 15.316406 10.804688 15.304688 C 10.871094 15.28125 10.855469 15.234375 10.867188 15.179688 C 10.894531 15.050781 10.980469 15.121094 11.058594 15.167969 C 11.144531 15.21875 11.210938 15.269531 11.277344 15.351562 C 11.308594 15.394531 11.332031 15.457031 11.375 15.492188 C 11.414062 15.523438 11.46875 15.527344 11.515625 15.535156 C 11.609375 15.546875 11.734375 15.554688 11.785156 15.457031 C 11.851562 15.453125 11.914062 15.460938 11.980469 15.445312 C 12.050781 15.425781 12.121094 15.417969 12.191406 15.402344 C 12.234375 15.390625 12.277344 15.363281 12.332031 15.363281 C 12.386719 15.359375 12.433594 15.363281 12.484375 15.394531 C 12.527344 15.421875 12.554688 15.457031 12.601562 15.476562 C 12.640625 15.492188 12.683594 15.503906 12.722656 15.519531 C 12.816406 15.554688 12.898438 15.574219 12.953125 15.65625 C 13.046875 15.792969 13.34375 15.765625 13.472656 15.710938 C 13.589844 15.65625 13.671875 15.632812 13.789062 15.699219 C 13.875 15.753906 13.996094 15.730469 14.09375 15.726562 C 14.15625 15.722656 14.195312 15.726562 14.25 15.707031 C 14.296875 15.6875 14.34375 15.679688 14.390625 15.675781 C 14.496094 15.664062 14.601562 15.632812 14.710938 15.628906 C 14.761719 15.625 14.804688 15.632812 14.851562 15.609375 C 14.898438 15.589844 14.9375 15.558594 14.984375 15.539062 C 15.097656 15.496094 15.195312 15.414062 15.3125 15.394531 C 15.375 15.382812 15.445312 15.378906 15.503906 15.351562 C 15.558594 15.324219 15.609375 15.289062 15.660156 15.257812 C 15.695312 15.234375 15.722656 15.210938 15.761719 15.195312 C 15.8125 15.175781 15.859375 15.175781 15.882812 15.121094 C 15.90625 15.066406 15.890625 15.066406 15.945312 15.039062 C 15.988281 15.015625 16.03125 15 16.019531 14.9375 C 16.003906 14.871094 15.894531 14.800781 15.84375 14.753906 C 15.785156 14.695312 15.75 14.625 15.667969 14.589844 C 15.59375 14.554688 15.476562 14.550781 15.542969 14.433594 C 15.566406 14.394531 15.605469 14.390625 15.636719 14.371094 C 15.671875 14.347656 15.710938 14.300781 15.730469 14.261719 C 15.828125 14.253906 15.839844 14.316406 15.867188 14.390625 C 15.894531 14.464844 15.945312 14.542969 15.992188 14.609375 C 16.015625 14.648438 16.050781 14.683594 16.085938 14.714844 C 16.121094 14.75 16.15625 14.785156 16.199219 14.808594 C 16.273438 14.839844 16.410156 14.84375 16.476562 14.796875 C 16.515625 14.777344 16.515625 14.734375 16.570312 14.746094 C 16.613281 14.757812 16.617188 14.796875 16.660156 14.808594 C 16.695312 14.820312 16.769531 14.816406 16.785156 14.789062 C 16.796875 14.765625 16.773438 14.738281 16.804688 14.71875 C 16.820312 14.707031 16.839844 14.71875 16.855469 14.71875 C 16.964844 14.726562 16.988281 14.605469 17.070312 14.554688 C 17.148438 14.503906 17.207031 14.445312 17.238281 14.355469 C 17.253906 14.300781 17.261719 14.25 17.285156 14.199219 C 17.308594 14.152344 17.308594 14.105469 17.324219 14.058594 C 17.335938 14.027344 17.363281 13.960938 17.390625 13.949219 C 17.421875 13.9375 17.484375 13.953125 17.519531 13.953125 C 17.527344 13.898438 17.40625 13.816406 17.359375 13.808594 C 17.320312 13.800781 17.269531 13.808594 17.234375 13.808594 C 17.183594 13.808594 17.160156 13.792969 17.117188 13.78125 C 17.074219 13.769531 17.023438 13.78125 16.984375 13.753906 C 16.957031 13.738281 16.929688 13.699219 16.894531 13.679688 C 16.816406 13.636719 16.742188 13.640625 16.660156 13.613281 C 16.652344 13.484375 16.734375 13.464844 16.820312 13.390625 C 16.855469 13.363281 16.875 13.335938 16.890625 13.296875 C 16.914062 13.246094 16.933594 13.214844 16.992188 13.226562 C 17.003906 13.296875 16.980469 13.375 16.988281 13.449219 C 16.996094 13.546875 17.054688 13.542969 17.125 13.589844 C 17.199219 13.644531 17.269531 13.632812 17.351562 13.671875 C 17.414062 13.703125 17.449219 13.753906 17.519531 13.761719 C 17.558594 13.765625 17.609375 13.753906 17.640625 13.742188 C 17.660156 13.734375 17.664062 13.726562 17.695312 13.726562 C 17.710938 13.726562 17.726562 13.734375 17.75 13.730469 C 17.800781 13.714844 17.800781 13.675781 17.828125 13.640625 C 17.855469 13.601562 17.90625 13.574219 17.925781 13.53125 C 17.972656 13.425781 17.886719 13.394531 17.816406 13.351562 C 17.773438 13.328125 17.625 13.273438 17.640625 13.226562 C 17.734375 13.21875 17.890625 13.335938 17.972656 13.238281 C 18.003906 13.203125 18.011719 13.144531 18.039062 13.105469 C 18.066406 13.066406 18.113281 13.039062 18.128906 12.988281 C 18.140625 12.949219 18.132812 12.886719 18.128906 12.84375 C 18.09375 12.847656 18.0625 12.835938 18.03125 12.828125 C 18.027344 12.816406 18.03125 12.804688 18.03125 12.796875 C 18.035156 12.710938 18.199219 12.75 18.21875 12.65625 C 18.230469 12.609375 18.1875 12.578125 18.25 12.554688 C 18.285156 12.542969 18.34375 12.574219 18.375 12.539062 C 18.398438 12.507812 18.363281 12.464844 18.347656 12.4375 C 18.324219 12.390625 18.316406 12.363281 18.316406 12.3125 C 18.316406 12.269531 18.328125 12.210938 18.316406 12.171875 C 18.300781 12.117188 18.265625 12.136719 18.214844 12.132812 C 18.210938 12.082031 18.285156 12.011719 18.320312 11.972656 C 18.375 11.914062 18.417969 11.875 18.457031 11.804688 C 18.496094 11.730469 18.535156 11.707031 18.605469 11.765625 C 18.644531 11.796875 18.6875 11.875 18.742188 11.867188 C 18.765625 11.792969 18.824219 11.738281 18.800781 11.660156 C 18.777344 11.566406 18.8125 11.558594 18.890625 11.511719 C 18.957031 11.472656 19.027344 11.460938 19.09375 11.410156 C 19.160156 11.355469 19.222656 11.304688 19.28125 11.246094 C 19.335938 11.195312 19.414062 11.15625 19.480469 11.109375 C 19.554688 11.058594 19.613281 10.996094 19.695312 10.945312 C 19.765625 10.898438 19.851562 10.875 19.933594 10.851562 C 20.007812 10.828125 20.101562 10.753906 20.152344 10.695312 C 20.179688 10.664062 20.164062 10.609375 20.203125 10.585938 C 20.238281 10.566406 20.289062 10.582031 20.324219 10.5625 C 20.363281 10.539062 20.371094 10.503906 20.398438 10.472656 C 20.425781 10.433594 20.46875 10.414062 20.496094 10.378906 C 20.5625 10.292969 20.621094 10.214844 20.699219 10.140625 C 20.773438 10.070312 20.816406 9.984375 20.875 9.902344 C 20.90625 9.855469 20.949219 9.8125 20.976562 9.761719 C 21 9.722656 21.007812 9.683594 21.035156 9.648438 C 21.09375 9.574219 21.140625 9.484375 21.207031 9.414062 C 21.269531 9.351562 21.316406 9.289062 21.394531 9.25 C 21.445312 9.226562 21.503906 9.171875 21.53125 9.121094 C 21.546875 9.097656 21.550781 9.0625 21.570312 9.042969 C 21.59375 9.019531 21.617188 9.023438 21.644531 9.011719 C 21.6875 8.988281 21.664062 8.960938 21.691406 8.921875 C 21.71875 8.878906 21.757812 8.898438 21.789062 8.871094 C 21.8125 8.847656 21.8125 8.800781 21.824219 8.769531 C 21.84375 8.730469 21.886719 8.703125 21.910156 8.660156 C 21.929688 8.625 21.945312 8.582031 21.988281 8.5625 C 22.027344 8.550781 22.078125 8.574219 22.117188 8.566406 C 22.179688 8.558594 22.152344 8.535156 22.183594 8.492188 C 22.195312 8.46875 22.230469 8.460938 22.242188 8.441406 C 22.257812 8.421875 22.25 8.40625 22.253906 8.378906 C 22.257812 8.339844 22.273438 8.300781 22.316406 8.285156 C 22.3125 8.230469 22.355469 8.199219 22.363281 8.144531 C 22.371094 8.089844 22.371094 8.027344 22.394531 7.980469 C 22.414062 7.941406 22.449219 7.917969 22.472656 7.878906 C 22.492188 7.84375 22.511719 7.808594 22.535156 7.773438 C 22.570312 7.722656 22.609375 7.582031 22.675781 7.566406 C 22.804688 7.539062 22.679688 7.699219 22.660156 7.730469 C 22.644531 7.757812 22.613281 7.8125 22.605469 7.84375 C 22.585938 7.898438 22.625 7.90625 22.660156 7.933594 C 22.699219 7.910156 22.726562 7.871094 22.765625 7.851562 C 22.808594 7.832031 22.84375 7.832031 22.894531 7.832031 C 22.941406 7.832031 22.984375 7.84375 23.015625 7.808594 C 23.035156 7.785156 23.058594 7.734375 23.070312 7.707031 C 23.140625 7.542969 23.242188 7.429688 23.386719 7.320312 C 23.527344 7.214844 23.660156 7.101562 23.789062 6.976562 C 23.863281 6.90625 23.964844 6.839844 24.0625 6.800781 C 24.136719 6.773438 24.226562 6.769531 24.292969 6.738281 C 24.363281 6.707031 24.421875 6.625 24.464844 6.566406 C 24.515625 6.503906 24.574219 6.449219 24.621094 6.382812 C 24.675781 6.304688 24.746094 6.226562 24.777344 6.132812 C 24.78125 6.117188 24.777344 6.089844 24.792969 6.074219 C 24.816406 6.050781 24.824219 6.074219 24.851562 6.058594 C 24.890625 6.042969 24.894531 6.007812 24.902344 5.960938 C 24.910156 5.914062 24.917969 5.878906 24.933594 5.835938 C 24.949219 5.796875 24.945312 5.75 24.964844 5.714844 C 24.992188 5.667969 25.039062 5.699219 25.066406 5.667969 C 25.085938 5.652344 25.078125 5.570312 25.078125 5.542969 C 25.078125 5.492188 25.097656 5.480469 25.117188 5.433594 C 25.132812 5.398438 25.140625 5.351562 25.148438 5.316406 C 25.160156 5.226562 25.171875 5.144531 25.195312 5.058594 C 25.222656 4.953125 25.277344 4.964844 25.382812 4.964844 C 25.425781 4.964844 25.488281 4.960938 25.527344 4.980469 C 25.570312 5 25.578125 5.027344 25.59375 5.070312 C 25.628906 5.15625 25.628906 5.253906 25.628906 5.351562 C 25.628906 5.464844 25.632812 5.582031 25.625 5.691406 C 25.613281 5.8125 25.570312 5.933594 25.546875 6.054688 C 25.53125 6.164062 25.492188 6.269531 25.507812 6.378906 C 25.515625 6.429688 25.535156 6.46875 25.539062 6.519531 C 25.542969 6.5625 25.535156 6.601562 25.53125 6.644531 C 25.527344 6.742188 25.53125 6.839844 25.53125 6.9375 C 25.53125 7.144531 25.59375 7.265625 25.765625 7.378906 C 25.847656 7.429688 25.902344 7.449219 25.996094 7.402344 C 26.085938 7.359375 26.152344 7.382812 26.234375 7.429688 C 26.28125 7.457031 26.304688 7.476562 26.355469 7.488281 C 26.398438 7.496094 26.429688 7.507812 26.453125 7.546875 C 26.5 7.621094 26.5 7.710938 26.515625 7.796875 C 26.535156 7.902344 26.535156 7.996094 26.523438 8.105469 C 26.511719 8.222656 26.523438 8.34375 26.527344 8.457031 C 26.53125 8.558594 26.496094 8.664062 26.511719 8.761719 C 26.53125 8.851562 26.613281 8.875 26.613281 8.964844 C 26.613281 9.179688 26.550781 9.363281 26.527344 9.570312 C 26.519531 9.664062 26.523438 9.761719 26.527344 9.855469 C 26.535156 9.976562 26.535156 10.101562 26.542969 10.226562 C 26.550781 10.28125 26.574219 10.332031 26.582031 10.390625 C 26.589844 10.433594 26.582031 10.484375 26.585938 10.53125 " fill-opacity="1" fill-rule="nonzero"/></g></svg>