<svg xmlns="http://www.w3.org/2000/svg" xmlns:xlink="http://www.w3.org/1999/xlink" width="40" zoomAndPan="magnify" viewBox="0 0 30 30.000001" height="40" preserveAspectRatio="xMidYMid meet" version="1.0"><defs><clipPath id="91e3a90bdb"><path d="M 3.386719 5.546875 L 26.613281 5.546875 L 26.613281 23.691406 L 3.386719 23.691406 Z M 3.386719 5.546875 " clip-rule="nonzero"/></clipPath></defs><g clip-path="url(#91e3a90bdb)"><path fill="#014d4e" d="M 4.011719 15.132812 C 3.90625 15.109375 3.808594 15.089844 3.703125 15.066406 C 3.675781 15.070312 3.566406 15.082031 3.523438 15.066406 C 3.4375 15.03125 3.453125 15.023438 3.449219 14.925781 C 3.445312 14.878906 3.425781 14.828125 3.449219 14.78125 C 3.496094 14.6875 3.578125 14.699219 3.5625 14.566406 C 3.546875 14.386719 3.429688 14.300781 3.457031 14.105469 C 3.480469 13.921875 3.625 13.839844 3.757812 13.742188 C 3.828125 13.695312 3.882812 13.667969 3.964844 13.664062 C 4.03125 13.664062 4.164062 13.734375 4.191406 13.648438 C 4.246094 13.503906 3.878906 13.398438 3.925781 13.246094 C 3.957031 13.160156 4.078125 13.175781 4.140625 13.136719 C 4.21875 13.085938 4.257812 13 4.296875 12.910156 C 4.347656 12.789062 4.371094 12.65625 4.433594 12.535156 C 4.472656 12.460938 4.527344 12.390625 4.550781 12.304688 C 4.597656 12.148438 4.519531 12.089844 4.515625 11.957031 C 4.507812 11.839844 4.582031 11.796875 4.636719 11.742188 C 4.683594 11.6875 4.707031 11.75 4.722656 11.621094 C 4.730469 11.554688 4.707031 11.503906 4.722656 11.441406 C 4.753906 11.304688 4.902344 11.273438 4.921875 11.136719 C 5.140625 11.175781 5.167969 11.398438 5.355469 11.464844 C 5.460938 11.503906 5.585938 11.464844 5.691406 11.480469 C 5.742188 11.484375 5.816406 11.539062 5.859375 11.53125 C 5.921875 11.523438 5.921875 11.480469 5.964844 11.457031 C 6.171875 11.351562 6.167969 11.605469 6.3125 11.699219 C 6.375 11.734375 6.441406 11.722656 6.488281 11.777344 C 6.550781 11.855469 6.511719 11.972656 6.535156 12.0625 C 6.671875 12.035156 6.71875 11.816406 6.875 11.808594 C 7.019531 11.800781 7.113281 11.953125 7.261719 11.890625 C 7.371094 11.84375 7.40625 11.683594 7.496094 11.609375 C 7.574219 11.546875 7.667969 11.53125 7.75 11.480469 C 7.78125 11.457031 7.820312 11.472656 7.839844 11.421875 C 7.875 11.34375 7.777344 11.285156 7.789062 11.214844 C 7.824219 11.0625 8.078125 11.183594 7.976562 10.96875 C 7.917969 10.855469 7.691406 10.714844 7.960938 10.675781 C 8.097656 10.65625 8.183594 10.722656 8.332031 10.652344 C 8.429688 10.605469 8.511719 10.566406 8.613281 10.527344 C 8.703125 10.5 8.804688 10.429688 8.894531 10.410156 C 8.988281 10.390625 9.101562 10.402344 9.207031 10.394531 C 9.335938 10.386719 9.34375 10.410156 9.425781 10.304688 C 9.503906 10.195312 9.550781 10.148438 9.683594 10.097656 C 9.832031 10.03125 9.988281 9.980469 10.140625 9.921875 C 10.183594 9.792969 10.230469 9.675781 10.238281 9.523438 C 10.25 9.367188 10.238281 9.15625 10.304688 9 C 10.34375 8.90625 10.433594 8.867188 10.476562 8.773438 C 10.511719 8.683594 10.503906 8.582031 10.503906 8.496094 C 10.5 8.214844 10.628906 8.175781 10.886719 8.089844 C 11.097656 8.019531 11.257812 8.015625 11.46875 7.980469 C 11.574219 7.96875 11.636719 7.933594 11.738281 7.941406 C 11.84375 7.953125 11.886719 7.992188 11.914062 7.863281 C 11.945312 7.734375 11.867188 7.65625 11.980469 7.535156 C 12.039062 7.480469 12.214844 7.367188 12.296875 7.375 C 12.398438 7.382812 12.503906 7.554688 12.59375 7.605469 C 12.71875 7.683594 12.867188 7.734375 13.003906 7.800781 C 13.1875 7.890625 13.253906 7.882812 13.433594 7.816406 C 13.597656 7.753906 13.753906 7.773438 13.917969 7.800781 C 14.097656 7.835938 14.203125 7.816406 14.320312 7.972656 C 14.386719 8.0625 14.457031 8.238281 14.566406 8.3125 C 14.578125 8.28125 14.582031 8.25 14.589844 8.21875 C 14.589844 8.21875 14.589844 8.222656 14.59375 8.222656 C 14.640625 8.15625 14.695312 8.003906 14.773438 7.972656 C 14.917969 7.910156 14.925781 8.113281 15.035156 8.097656 C 15.09375 8.09375 15.09375 7.996094 15.148438 7.992188 C 15.214844 7.980469 15.257812 8.070312 15.296875 8.109375 C 15.34375 8.160156 15.390625 8.207031 15.414062 8.269531 C 15.433594 8.320312 15.410156 8.394531 15.449219 8.4375 C 15.515625 8.527344 15.71875 8.582031 15.820312 8.625 C 15.917969 8.515625 15.953125 8.417969 16.105469 8.359375 C 16.238281 8.3125 16.371094 8.285156 16.503906 8.21875 C 16.65625 8.136719 16.816406 8.082031 16.957031 7.992188 C 17.105469 7.894531 17.199219 7.871094 17.359375 7.984375 C 17.488281 8.082031 17.59375 8.269531 17.792969 8.207031 C 17.964844 8.152344 17.84375 7.929688 17.824219 7.792969 C 17.804688 7.648438 17.824219 7.625 17.941406 7.550781 C 18.027344 7.492188 18.148438 7.367188 18.230469 7.328125 C 18.308594 7.292969 18.386719 7.332031 18.488281 7.332031 C 18.574219 7.332031 18.671875 7.269531 18.746094 7.277344 C 18.867188 7.285156 18.902344 7.441406 19.023438 7.394531 C 19.074219 7.371094 19.226562 7.148438 19.242188 7.089844 C 19.277344 6.96875 19.140625 6.949219 19.097656 6.84375 C 19.054688 6.746094 19.09375 6.628906 19.15625 6.546875 C 19.324219 6.679688 19.40625 6.378906 19.476562 6.277344 C 19.539062 6.191406 19.625 6.140625 19.683594 6.066406 C 19.765625 5.972656 19.75 5.84375 19.8125 5.746094 C 19.878906 5.640625 20.035156 5.546875 20.167969 5.550781 C 20.292969 5.558594 20.371094 5.660156 20.476562 5.707031 C 20.65625 5.792969 20.835938 5.761719 20.863281 6.011719 C 20.878906 6.140625 20.792969 6.253906 20.796875 6.378906 C 20.804688 6.476562 20.84375 6.5625 20.839844 6.65625 C 20.984375 6.59375 21.164062 6.519531 21.222656 6.5625 C 21.308594 6.621094 21.207031 6.890625 21.195312 6.957031 C 21.171875 7.089844 21.152344 7.222656 21.15625 7.355469 C 21.167969 7.53125 21.171875 7.707031 21.15625 7.882812 C 21.144531 8.027344 21.089844 8.175781 21.105469 8.320312 C 21.125 8.488281 21.246094 8.957031 21.417969 9.023438 C 21.484375 9.046875 21.703125 9.007812 21.769531 8.984375 C 21.902344 8.9375 22.023438 8.804688 22.128906 8.710938 C 22.222656 8.625 22.3125 8.511719 22.425781 8.449219 C 22.523438 8.398438 22.625 8.40625 22.726562 8.382812 C 22.886719 8.347656 22.976562 8.269531 23.050781 8.128906 C 23.125 8 23.175781 7.949219 23.292969 7.867188 C 23.515625 7.714844 23.671875 7.507812 23.941406 7.433594 C 24.207031 7.355469 24.363281 7.457031 24.625 7.457031 C 24.710938 7.457031 24.835938 7.394531 24.859375 7.507812 C 24.878906 7.601562 24.742188 7.617188 24.695312 7.6875 C 24.742188 7.730469 24.828125 7.726562 24.890625 7.710938 C 25.003906 7.6875 25.101562 7.605469 25.222656 7.574219 C 25.300781 7.554688 25.378906 7.554688 25.441406 7.507812 C 25.484375 7.472656 25.496094 7.417969 25.535156 7.382812 C 25.625 7.304688 25.65625 7.34375 25.773438 7.371094 C 25.910156 7.402344 26.054688 7.414062 26.1875 7.445312 C 26.257812 7.464844 26.613281 7.574219 26.488281 7.683594 C 26.398438 7.761719 26.183594 7.628906 26.082031 7.679688 C 25.871094 7.785156 26.085938 7.9375 26.144531 8.027344 C 26.167969 8.066406 26.226562 8.199219 26.164062 8.230469 C 26.140625 8.246094 26.015625 8.15625 25.976562 8.152344 C 25.8125 8.132812 25.804688 8.3125 25.652344 8.335938 C 25.585938 8.351562 25.507812 8.292969 25.453125 8.371094 C 25.410156 8.425781 25.476562 8.535156 25.40625 8.578125 C 25.324219 8.625 25.113281 8.441406 25.027344 8.417969 C 24.867188 8.375 24.710938 8.394531 24.546875 8.375 C 24.332031 8.347656 24.121094 8.421875 23.898438 8.441406 C 23.675781 8.464844 23.550781 8.574219 23.34375 8.648438 C 23.039062 8.765625 22.730469 8.699219 22.441406 8.890625 C 22.292969 8.984375 22.292969 9 22.222656 9.152344 C 22.15625 9.292969 22.0625 9.246094 21.933594 9.320312 C 21.8125 9.398438 21.871094 9.53125 21.773438 9.601562 C 21.652344 9.6875 21.585938 9.492188 21.480469 9.511719 C 21.304688 9.542969 21.164062 9.917969 21.03125 10.027344 C 21.011719 10.046875 20.929688 10.132812 20.863281 10.203125 C 20.945312 10.371094 21.019531 10.429688 21.1875 10.601562 C 21.308594 10.726562 21.300781 10.875 21.34375 11.039062 C 21.363281 11.109375 21.386719 11.207031 21.4375 11.261719 C 21.484375 11.316406 21.554688 11.324219 21.59375 11.386719 C 21.734375 11.605469 21.417969 11.574219 21.4375 11.734375 C 21.453125 11.867188 21.660156 11.839844 21.609375 12.019531 C 21.578125 12.109375 21.496094 12.132812 21.433594 12.195312 C 21.367188 12.261719 21.320312 12.34375 21.28125 12.425781 C 21.238281 12.523438 21.210938 12.617188 21.128906 12.6875 C 21.0625 12.75 20.984375 12.777344 20.921875 12.847656 C 20.878906 12.902344 20.796875 13.015625 20.777344 13.070312 C 20.765625 13.113281 20.746094 13.101562 20.75 13.152344 C 20.753906 13.195312 20.832031 13.21875 20.816406 13.269531 C 20.789062 13.378906 20.628906 13.3125 20.589844 13.363281 C 20.503906 13.46875 20.65625 13.550781 20.71875 13.601562 C 20.84375 13.710938 20.8125 13.832031 20.730469 13.949219 C 20.804688 14.015625 20.816406 14.09375 20.777344 14.195312 C 20.707031 14.367188 20.460938 14.410156 20.300781 14.457031 C 20.09375 14.523438 19.832031 14.566406 19.613281 14.542969 C 19.402344 14.519531 19.226562 14.363281 19.003906 14.410156 C 18.78125 14.457031 18.847656 14.589844 18.941406 14.746094 C 18.976562 14.804688 19 14.875 19.058594 14.910156 C 19.117188 14.941406 19.179688 14.921875 19.234375 14.957031 C 19.371094 15.027344 19.339844 15.179688 19.382812 15.300781 C 19.429688 15.425781 19.578125 15.535156 19.570312 15.667969 C 19.398438 15.769531 19.246094 15.859375 19.09375 15.996094 C 19.019531 16.0625 18.933594 16.136719 18.851562 16.191406 C 18.738281 16.273438 18.773438 16.226562 18.671875 16.226562 C 18.574219 16.226562 18.375 16.257812 18.304688 16.339844 C 18.261719 16.386719 18.261719 16.5 18.238281 16.554688 C 18.199219 16.65625 18.117188 16.761719 18.109375 16.867188 C 18.085938 17.074219 18.164062 17.105469 17.976562 17.242188 C 17.785156 17.375 17.851562 17.378906 17.886719 17.570312 C 17.898438 17.664062 17.859375 17.757812 17.863281 17.847656 C 17.867188 17.945312 17.898438 18.035156 17.917969 18.128906 C 17.929688 18.183594 17.980469 18.339844 17.964844 18.394531 C 17.949219 18.480469 17.933594 18.441406 17.875 18.492188 C 17.761719 18.605469 17.75 18.730469 17.660156 18.867188 C 17.585938 18.976562 17.496094 18.976562 17.375 19.015625 C 17.285156 19.042969 17.175781 19.105469 17.109375 19.03125 C 17.027344 18.949219 17.09375 18.859375 16.976562 18.785156 C 16.859375 18.714844 16.824219 18.777344 16.699219 18.816406 C 16.578125 18.851562 16.476562 18.835938 16.367188 18.796875 C 16.253906 18.757812 16.191406 18.777344 16.066406 18.796875 C 15.886719 18.820312 15.859375 18.867188 15.765625 19.007812 C 15.695312 19.117188 15.609375 19.195312 15.484375 19.230469 C 15.410156 19.253906 15.207031 19.246094 15.160156 19.296875 C 15.121094 19.335938 15.140625 19.492188 15.167969 19.527344 C 15.230469 19.605469 15.363281 19.5625 15.417969 19.644531 C 15.417969 19.648438 15.417969 19.683594 15.417969 19.6875 C 15.304688 19.824219 14.992188 19.804688 14.828125 19.832031 C 14.613281 19.871094 14.445312 20.019531 14.273438 19.875 C 14.132812 19.757812 14.101562 19.734375 13.9375 19.820312 C 13.800781 19.890625 13.675781 19.929688 13.621094 20.078125 C 13.566406 20.214844 13.554688 20.316406 13.40625 20.378906 C 13.289062 20.425781 13.164062 20.414062 13.097656 20.539062 C 13.039062 20.648438 13.046875 20.808594 13.003906 20.925781 C 12.984375 20.980469 12.9375 21.054688 12.933594 21.105469 C 12.929688 21.183594 12.953125 21.167969 12.972656 21.230469 C 13.050781 21.460938 12.964844 21.65625 12.921875 21.898438 C 12.917969 21.898438 12.914062 21.894531 12.917969 21.886719 C 12.890625 21.96875 12.867188 22.050781 12.84375 22.128906 L 13.042969 22.339844 L 12.847656 22.644531 L 10.785156 23.214844 C 9.46875 22.863281 9.222656 23.484375 9.222656 23.484375 L 8.34375 23.175781 L 6.382812 23.371094 L 3.773438 22.300781 C 3.773438 22.300781 5.324219 20.625 5.375 20.480469 C 5.429688 20.339844 5.542969 20.085938 5.488281 19.839844 C 5.4375 19.589844 5.273438 19.433594 5.273438 19.433594 L 3.851562 19.117188 C 3.832031 19.023438 3.808594 18.90625 3.800781 18.863281 C 3.75 18.679688 3.761719 18.484375 3.738281 18.300781 C 3.71875 18.128906 3.703125 18.09375 3.785156 17.949219 C 3.855469 17.820312 3.875 17.710938 3.851562 17.570312 C 3.789062 17.242188 3.714844 16.910156 3.609375 16.59375 C 3.527344 16.34375 3.386719 16.050781 3.554688 15.816406 C 3.699219 15.613281 3.890625 15.515625 3.984375 15.257812 C 3.957031 15.277344 3.984375 15.207031 4.011719 15.132812 Z M 4.011719 15.132812 " fill-opacity="1" fill-rule="nonzero"/></g></svg>