<svg xmlns="http://www.w3.org/2000/svg" xmlns:xlink="http://www.w3.org/1999/xlink" width="40" zoomAndPan="magnify" viewBox="0 0 30 30.000001" height="40" preserveAspectRatio="xMidYMid meet" version="1.0"><defs><clipPath id="fdbaac43c5"><path d="M 3.386719 9 L 23 9 L 23 21 L 3.386719 21 Z M 3.386719 9 " clip-rule="nonzero"/></clipPath><clipPath id="c2029338a3"><path d="M 23 7.433594 L 25 7.433594 L 25 8 L 23 8 Z M 23 7.433594 " clip-rule="nonzero"/></clipPath><clipPath id="5ab069e4fb"><path d="M 23 7.433594 L 26.613281 7.433594 L 26.613281 10 L 23 10 Z M 23 7.433594 " clip-rule="nonzero"/></clipPath><clipPath id="049a261fcd"><path d="M 3.386719 21 L 4 21 L 4 21.949219 L 3.386719 21.949219 Z M 3.386719 21 " clip-rule="nonzero"/></clipPath></defs><g clip-path="url(#fdbaac43c5)"><path fill="#014d4e" d="M 22.785156 9.71875 C 22.726562 9.738281 22.671875 9.777344 22.605469 9.761719 C 22.507812 9.730469 22.390625 9.773438 22.367188 9.878906 C 22.34375 9.9375 22.355469 10.007812 22.328125 10.058594 C 22.253906 10.097656 22.160156 10.136719 22.140625 10.230469 C 22.121094 10.609375 21.511719 10.449219 21.421875 10.785156 C 21.394531 10.847656 21.398438 10.953125 21.339844 10.996094 C 20.925781 10.945312 20.871094 10.820312 20.519531 11.152344 C 20.453125 11.195312 20.367188 11.195312 20.300781 11.238281 C 20.21875 11.304688 20.132812 11.367188 20.023438 11.378906 C 19.839844 11.390625 19.777344 11.519531 19.628906 11.578125 C 19.546875 11.597656 19.3125 11.664062 19.304688 11.535156 C 19.320312 11.476562 19.375 11.417969 19.355469 11.355469 C 19.4375 11.085938 19.074219 11.21875 18.9375 11.242188 C 18.769531 11.285156 18.589844 11.289062 18.433594 11.371094 C 18.339844 11.433594 18.246094 11.5 18.144531 11.550781 C 17.972656 11.609375 17.804688 11.691406 17.675781 11.820312 C 17.574219 11.859375 17.402344 11.542969 17.214844 11.570312 C 17.046875 11.589844 17.039062 11.789062 16.746094 11.894531 C 16.585938 11.96875 16.410156 12 16.238281 12.023438 C 15.996094 12.101562 15.746094 12.160156 15.492188 12.183594 C 15.34375 12.195312 15.277344 12.355469 15.179688 12.449219 C 15.035156 12.546875 14.855469 12.570312 14.703125 12.660156 C 14.546875 12.746094 14.414062 12.867188 14.269531 12.964844 C 14.097656 13.089844 13.921875 13.199219 13.738281 13.296875 C 13.613281 13.355469 13.566406 13.414062 13.558594 13.554688 C 13.3125 13.558594 13.292969 13.675781 13.179688 13.855469 C 13.128906 13.875 13.066406 13.867188 13.03125 13.910156 C 12.988281 13.960938 13.015625 14.03125 13.058594 14.070312 C 13.140625 14.132812 13.210938 14.207031 13.3125 14.230469 C 13.328125 14.292969 13.398438 14.332031 13.429688 14.386719 C 13.398438 14.460938 13.417969 14.542969 13.402344 14.617188 C 13.351562 14.824219 13.3125 14.933594 13.484375 15.097656 C 13.453125 15.175781 13.398438 15.246094 13.359375 15.320312 C 13.3125 15.398438 13.28125 15.492188 13.21875 15.554688 C 13.09375 15.617188 13.042969 15.617188 12.953125 15.738281 C 12.875 15.816406 12.765625 15.792969 12.667969 15.796875 C 12.535156 15.800781 12.429688 15.886719 12.320312 15.953125 C 12.238281 16 12.136719 15.988281 12.058594 16.042969 C 12.003906 16.078125 11.96875 16.132812 11.914062 16.167969 C 11.789062 16.230469 11.660156 16.101562 11.53125 16.140625 C 11.386719 16.199219 11.304688 16.34375 11.1875 16.441406 C 11.128906 16.5 11.039062 16.539062 11.019531 16.628906 C 11.003906 16.839844 11.398438 16.800781 11.339844 17.015625 C 11.324219 17.109375 11.269531 17.1875 11.226562 17.269531 C 11.160156 17.378906 11.101562 17.492188 11.011719 17.582031 C 10.820312 17.6875 10.542969 17.296875 10.335938 17.433594 C 10.222656 17.441406 10.121094 17.523438 10.011719 17.558594 C 9.867188 17.605469 9.714844 17.625 9.566406 17.652344 C 9.46875 17.671875 9.386719 17.730469 9.292969 17.765625 C 9.085938 17.824219 8.894531 17.65625 8.660156 17.71875 C 8.5625 17.734375 8.464844 17.769531 8.378906 17.824219 C 8.332031 17.871094 8.277344 17.910156 8.207031 17.90625 C 7.789062 17.851562 7.34375 17.925781 7.367188 18.449219 C 7.246094 18.585938 7.042969 18.570312 7.042969 18.808594 C 7.023438 18.925781 6.875 18.914062 6.789062 18.957031 C 6.738281 18.980469 6.691406 19.007812 6.640625 19.03125 C 6.488281 19.027344 6.355469 18.9375 6.246094 19.097656 C 6.175781 19.1875 6.222656 19.242188 6.09375 19.289062 C 5.808594 19.460938 5.539062 19.660156 5.277344 19.863281 C 5.269531 19.828125 5.238281 19.796875 5.191406 19.785156 C 4.929688 19.785156 4.640625 19.984375 4.621094 20.261719 C 4.554688 20.304688 4.492188 20.375 4.480469 20.457031 C 4.382812 20.511719 4.265625 20.511719 4.214844 20.636719 C 4.136719 20.667969 4.046875 20.671875 3.976562 20.71875 C 3.914062 20.769531 3.839844 20.875 3.914062 20.949219 C 4.015625 21.039062 4.316406 20.929688 4.441406 20.894531 C 4.535156 20.851562 4.722656 20.84375 4.738281 20.71875 C 4.738281 20.71875 4.742188 20.71875 4.742188 20.71875 C 5.460938 21.148438 4.652344 20.1875 5.832031 20.875 C 5.933594 20.929688 6.054688 20.890625 6.140625 20.828125 C 6.203125 20.785156 6.230469 20.71875 6.273438 20.667969 C 6.34375 20.589844 6.441406 20.515625 6.546875 20.535156 C 6.566406 20.628906 6.605469 20.71875 6.621094 20.808594 C 6.632812 20.855469 6.65625 20.898438 6.707031 20.90625 C 6.859375 20.921875 6.855469 20.644531 6.945312 20.550781 C 7.0625 20.445312 7.167969 20.332031 7.277344 20.21875 C 7.332031 20.171875 7.375 20.105469 7.445312 20.082031 C 7.722656 20.082031 8.070312 20.203125 8.285156 19.953125 C 8.324219 19.917969 8.382812 19.949219 8.429688 19.929688 C 8.539062 19.898438 8.613281 19.804688 8.675781 19.714844 C 8.742188 19.652344 8.839844 19.640625 8.917969 19.59375 C 8.984375 19.5625 9.035156 19.503906 9.089844 19.460938 C 9.308594 19.335938 9.59375 19.394531 9.820312 19.476562 C 9.859375 19.503906 9.894531 19.546875 9.9375 19.550781 C 10.058594 19.628906 10.214844 19.75 10.164062 19.914062 C 10.121094 20.003906 10.082031 20.148438 10.222656 20.171875 C 10.386719 20.195312 10.5 20.03125 10.660156 20.027344 C 10.871094 20.019531 10.746094 20.164062 10.839844 20.246094 C 11.007812 20.34375 11.15625 19.910156 11.339844 19.957031 C 11.710938 20.074219 11.601562 19.835938 11.8125 19.820312 C 12.164062 19.820312 12.179688 19.542969 12.414062 19.527344 C 12.667969 19.542969 12.558594 19.390625 12.683594 19.269531 C 12.75 19.210938 12.84375 19.183594 12.902344 19.117188 C 12.972656 19.046875 12.976562 18.945312 13.015625 18.859375 C 13.050781 18.765625 13.136719 18.710938 13.1875 18.628906 C 13.261719 18.394531 13.171875 18.375 13.417969 18.183594 C 13.46875 18.234375 13.417969 18.308594 13.441406 18.367188 C 13.527344 18.515625 13.660156 18.308594 13.746094 18.277344 C 13.855469 18.335938 14 18.351562 14.113281 18.292969 C 14.179688 18.257812 14.21875 18.175781 14.292969 18.148438 C 14.5 18.152344 14.726562 18.148438 14.890625 18 C 14.925781 17.96875 14.96875 17.960938 15.011719 17.945312 C 15.164062 17.894531 15.164062 17.714844 15.238281 17.601562 C 15.347656 17.476562 15.476562 17.375 15.605469 17.269531 C 15.832031 17.355469 16.050781 17.503906 16.214844 17.238281 C 16.558594 17.199219 16.433594 17.039062 16.484375 16.8125 C 16.503906 16.800781 16.515625 16.789062 16.523438 16.773438 C 16.609375 16.726562 16.714844 16.703125 16.804688 16.667969 C 17.070312 16.523438 17.507812 16.636719 17.632812 16.347656 C 17.785156 16.433594 17.851562 16.253906 17.957031 16.179688 C 18.082031 16.191406 18.214844 16.234375 18.3125 16.148438 C 18.464844 16.238281 18.664062 16.230469 18.636719 16.003906 C 18.632812 15.851562 18.566406 15.84375 18.4375 15.804688 C 18.496094 15.671875 18.496094 15.527344 18.546875 15.398438 C 18.769531 15.347656 18.925781 15.175781 18.863281 14.9375 C 19.046875 14.960938 19.222656 15.019531 19.394531 15.089844 C 19.449219 15.121094 19.507812 15.179688 19.578125 15.160156 C 19.675781 15.113281 19.640625 15.066406 19.769531 15.101562 C 19.949219 15.113281 20.039062 14.914062 20.128906 14.792969 C 20.238281 14.792969 20.394531 14.90625 20.433594 14.738281 C 20.519531 14.765625 20.664062 14.785156 20.683594 14.664062 C 20.699219 14.558594 20.585938 14.476562 20.625 14.375 C 20.699219 14.3125 20.785156 14.34375 20.867188 14.363281 C 20.953125 14.382812 21.078125 14.363281 21.09375 14.265625 C 21.105469 14.214844 21.0625 14.175781 21.058594 14.132812 C 21.058594 14.105469 21.085938 14.085938 21.097656 14.0625 C 21.15625 13.964844 21.070312 13.90625 20.984375 13.878906 C 21.035156 13.800781 21.078125 13.710938 21.089844 13.613281 C 21.09375 13.566406 21.089844 13.515625 21.105469 13.476562 C 21.140625 13.441406 21.195312 13.425781 21.21875 13.382812 C 21.4375 13.289062 21.769531 12.859375 21.335938 12.835938 C 21.316406 12.71875 21.183594 12.695312 21.097656 12.644531 C 21.039062 12.589844 21.023438 12.5 21.007812 12.425781 C 20.984375 12.277344 21.15625 12.234375 21.257812 12.167969 C 21.515625 12.035156 21.4375 11.769531 21.652344 11.710938 C 21.777344 11.679688 21.953125 11.65625 21.984375 11.507812 C 22 11.441406 21.964844 11.367188 21.996094 11.304688 C 22.0625 11.222656 22.164062 11.167969 22.214844 11.074219 C 22.265625 10.972656 22.3125 10.847656 22.425781 10.804688 C 22.582031 10.773438 22.886719 10.679688 22.660156 10.496094 C 22.628906 10.230469 22.839844 10.171875 22.804688 9.925781 C 22.828125 9.902344 22.855469 9.878906 22.871094 9.851562 C 22.910156 9.792969 22.855469 9.707031 22.785156 9.71875 Z M 10.402344 17.605469 C 10.410156 17.609375 10.417969 17.613281 10.425781 17.613281 C 10.417969 17.613281 10.410156 17.609375 10.402344 17.605469 Z M 10.402344 17.605469 " fill-opacity="1" fill-rule="nonzero"/></g><g clip-path="url(#c2029338a3)"><path fill="#014d4e" d="M 23.710938 7.925781 C 23.777344 7.902344 23.851562 7.855469 23.925781 7.875 C 24.003906 7.878906 24.054688 7.792969 24.089844 7.734375 C 24.140625 7.617188 24.015625 7.449219 23.886719 7.496094 C 23.828125 7.511719 23.789062 7.558594 23.773438 7.617188 C 23.757812 7.648438 23.726562 7.667969 23.71875 7.703125 C 23.644531 7.75 23.484375 7.796875 23.539062 7.910156 C 23.578125 7.976562 23.65625 7.953125 23.710938 7.925781 Z M 23.710938 7.925781 " fill-opacity="1" fill-rule="nonzero"/></g><g clip-path="url(#5ab069e4fb)"><path fill="#014d4e" d="M 26.515625 8.359375 C 26.480469 8.300781 26.410156 8.316406 26.359375 8.34375 C 26.230469 8.335938 26.09375 8.382812 25.964844 8.335938 C 25.992188 8.238281 26.125 8.019531 25.945312 8 C 25.84375 8.019531 25.800781 8.132812 25.726562 8.191406 C 25.710938 8.144531 25.667969 8.109375 25.636719 8.074219 C 25.738281 8.070312 25.8125 7.996094 25.742188 7.902344 C 25.722656 7.871094 25.710938 7.832031 25.671875 7.816406 C 25.59375 7.792969 25.523438 7.863281 25.457031 7.898438 C 25.410156 7.917969 25.367188 7.929688 25.324219 7.949219 C 25.253906 7.980469 25.183594 8.042969 25.105469 8.019531 C 25.03125 7.875 24.953125 7.941406 24.828125 7.949219 C 24.742188 7.773438 24.671875 7.78125 24.515625 7.863281 C 24.394531 7.921875 24.363281 8.058594 24.300781 8.160156 C 24.199219 8.324219 23.960938 8.214844 23.847656 8.316406 C 23.75 8.339844 23.628906 8.433594 23.652344 8.546875 C 23.167969 8.804688 24.199219 9.148438 23.347656 9.582031 C 23.28125 9.617188 23.277344 9.707031 23.335938 9.75 C 23.703125 9.917969 23.726562 9.804688 24 9.597656 C 24.085938 9.558594 24.1875 9.566406 24.269531 9.515625 C 24.414062 9.425781 24.472656 9.234375 24.414062 9.078125 C 24.414062 9.082031 24.414062 9.082031 24.414062 9.082031 C 24.414062 9.085938 24.414062 9.085938 24.414062 9.089844 C 24.378906 8.929688 24.65625 9.050781 24.742188 9.039062 C 24.816406 9.046875 24.863281 8.988281 24.914062 8.9375 C 25.015625 8.886719 25.140625 8.886719 25.253906 8.863281 C 25.355469 8.84375 25.453125 8.8125 25.554688 8.808594 C 25.632812 8.804688 25.722656 8.820312 25.773438 8.742188 C 25.808594 8.683594 25.851562 8.628906 25.925781 8.621094 C 26.035156 8.585938 26.613281 8.554688 26.511719 8.359375 Z M 26.515625 8.359375 " fill-opacity="1" fill-rule="nonzero"/></g><g clip-path="url(#049a261fcd)"><path fill="#014d4e" d="M 3.660156 21.304688 C 3.65625 21.296875 3.648438 21.292969 3.644531 21.285156 C 3.703125 21.144531 3.511719 20.980469 3.410156 21.121094 C 3.386719 21.167969 3.398438 21.222656 3.40625 21.273438 C 3.410156 21.335938 3.457031 21.382812 3.515625 21.40625 C 3.550781 21.457031 3.535156 21.550781 3.613281 21.566406 C 3.703125 21.585938 3.757812 21.472656 3.789062 21.402344 C 3.804688 21.332031 3.726562 21.269531 3.660156 21.304688 Z M 3.660156 21.304688 " fill-opacity="1" fill-rule="nonzero"/></g></svg>