<svg xmlns="http://www.w3.org/2000/svg" xmlns:xlink="http://www.w3.org/1999/xlink" width="40" zoomAndPan="magnify" viewBox="0 0 30 30.000001" height="40" preserveAspectRatio="xMidYMid meet" version="1.0"><defs><clipPath id="6bfc014e13"><path d="M 9.804688 2.902344 L 19.964844 2.902344 L 19.964844 26.128906 L 9.804688 26.128906 Z M 9.804688 2.902344 " clip-rule="nonzero"/></clipPath></defs><g clip-path="url(#6bfc014e13)"><path fill="#014d4e" d="M 10.859375 8.945312 L 10.859375 8.582031 L 10.824219 8.4375 L 10.867188 7.980469 L 10.738281 7.746094 L 10.75 7.570312 C 10.75 7.570312 10.867188 7.214844 10.851562 7.042969 C 10.828125 6.871094 10.507812 6.585938 10.488281 6.472656 C 10.46875 6.355469 10.539062 6.210938 10.777344 5.75 C 11.019531 5.289062 11.207031 5.007812 11.421875 4.761719 C 11.761719 4.375 11.8125 4.371094 11.863281 4.195312 C 11.949219 3.886719 12.011719 3.746094 12.183594 3.652344 C 12.355469 3.554688 12.359375 3.421875 12.359375 3.421875 L 12.367188 3.242188 L 12.710938 2.921875 L 12.78125 2.921875 L 12.898438 3.019531 L 13.011719 3.113281 L 13.023438 3.230469 L 12.976562 3.324219 L 12.894531 3.417969 L 12.800781 3.488281 L 12.746094 3.601562 L 12.8125 4 C 12.8125 4 13.023438 4.308594 13.0625 4.34375 C 13.105469 4.378906 13.164062 4.394531 13.257812 4.355469 C 13.351562 4.3125 13.484375 4.148438 13.484375 4.148438 L 13.554688 4.042969 L 13.609375 4 L 13.777344 3.988281 L 13.878906 3.953125 L 13.914062 3.851562 C 13.914062 3.851562 14.140625 3.886719 14.304688 3.855469 C 14.46875 3.828125 14.625 3.761719 14.652344 3.761719 C 14.679688 3.761719 15.007812 3.828125 15.007812 3.828125 L 15.21875 4.011719 L 15.351562 4.058594 L 15.488281 4.164062 L 15.488281 4.558594 C 15.488281 4.558594 15.601562 4.625 15.601562 4.683594 C 15.601562 4.742188 15.632812 4.816406 15.601562 4.847656 C 15.574219 4.875 15.535156 5.058594 15.535156 5.058594 L 15.554688 5.152344 L 15.660156 5.269531 C 15.660156 5.269531 15.707031 5.363281 15.753906 5.480469 C 15.804688 5.59375 15.929688 5.605469 15.976562 5.613281 C 16.023438 5.625 16.4375 5.710938 16.746094 6.007812 C 17.050781 6.304688 17.292969 6.527344 17.332031 6.644531 C 17.367188 6.757812 17.386719 7.105469 17.398438 7.132812 C 17.410156 7.164062 17.476562 7.496094 17.476562 7.496094 C 17.476562 7.496094 17.644531 7.945312 17.691406 8.011719 C 17.738281 8.082031 17.808594 8.195312 17.808594 8.195312 C 17.808594 8.195312 17.855469 8.332031 17.808594 8.414062 C 17.761719 8.503906 17.59375 8.570312 17.59375 8.570312 L 17.46875 8.65625 C 17.46875 8.65625 17.378906 8.710938 17.488281 8.855469 C 17.59375 9 17.457031 8.980469 17.445312 9.039062 C 17.4375 9.097656 17.363281 9.121094 17.363281 9.152344 C 17.363281 9.179688 17.402344 9.464844 17.402344 9.464844 L 17.460938 9.589844 L 17.414062 9.726562 L 17.328125 9.851562 L 17.15625 10.246094 C 17.15625 10.246094 17.214844 10.890625 17.242188 10.972656 C 17.265625 11.058594 17.285156 11.300781 17.285156 11.300781 L 17.222656 11.359375 C 17.222656 11.359375 16.777344 11.621094 16.761719 11.703125 C 16.746094 11.789062 16.878906 11.945312 16.878906 11.945312 C 16.878906 11.945312 17.242188 12.257812 17.265625 12.441406 C 17.289062 12.625 17.289062 12.960938 17.289062 12.960938 L 17.246094 13.105469 L 17.078125 13.105469 C 17.078125 13.105469 17.027344 13.003906 16.996094 13.105469 C 16.964844 13.207031 16.945312 13.589844 16.980469 13.691406 C 17.011719 13.792969 17.148438 13.941406 17.273438 14.128906 C 17.398438 14.3125 17.410156 14.816406 17.476562 14.925781 C 17.542969 15.035156 17.542969 15.136719 17.652344 15.183594 C 17.761719 15.234375 17.976562 15.152344 18.003906 15.183594 C 18.027344 15.21875 18.144531 15.488281 18.179688 15.707031 C 18.210938 15.925781 18.261719 16.257812 18.261719 16.257812 C 18.261719 16.257812 18.304688 16.601562 18.320312 16.636719 C 18.339844 16.671875 18.296875 16.746094 18.4375 16.761719 C 18.578125 16.78125 18.664062 16.847656 18.808594 16.800781 C 18.949219 16.753906 18.960938 16.738281 19.027344 16.679688 C 19.09375 16.621094 19.117188 16.488281 19.117188 16.488281 C 19.117188 16.488281 19.210938 16.519531 19.292969 16.519531 C 19.378906 16.519531 19.503906 16.488281 19.503906 16.488281 L 19.589844 16.445312 L 19.695312 16.421875 L 19.765625 16.410156 C 19.765625 16.410156 19.839844 16.691406 19.832031 16.804688 C 19.824219 16.917969 19.832031 17.394531 19.832031 17.394531 L 19.832031 17.738281 C 19.832031 17.738281 19.855469 17.929688 19.921875 17.964844 C 19.992188 17.996094 20.117188 18.007812 20.117188 18.007812 C 20.117188 18.007812 20.191406 18.007812 20.191406 18.082031 C 20.191406 18.160156 20.175781 18.410156 20.125 18.5 C 20.074219 18.59375 19.652344 19.683594 19.496094 19.785156 C 19.335938 19.886719 19.3125 19.769531 19.21875 19.785156 C 19.125 19.800781 19.007812 19.75 18.898438 19.824219 C 18.789062 19.902344 18.695312 19.953125 18.65625 20.105469 C 18.613281 20.253906 18.4375 20.757812 18.328125 20.933594 C 18.21875 21.109375 18.195312 21.230469 18.035156 21.4375 C 17.875 21.648438 17.773438 21.824219 17.714844 21.984375 C 17.65625 22.140625 17.714844 22.292969 17.699219 22.429688 C 17.683594 22.5625 17.65625 22.679688 17.65625 22.679688 C 17.65625 22.679688 17.640625 22.730469 17.53125 22.746094 C 17.421875 22.761719 17.015625 22.855469 16.984375 22.875 C 16.953125 22.890625 16.875 22.855469 16.832031 22.875 C 16.789062 22.890625 16.574219 22.878906 16.574219 22.878906 C 16.574219 22.878906 16.339844 22.980469 16.304688 23.066406 C 16.273438 23.152344 16.246094 23.351562 16.238281 23.402344 C 16.230469 23.453125 16.1875 23.585938 16.1875 23.585938 L 15.945312 23.585938 C 15.945312 23.585938 15.835938 23.628906 15.835938 23.703125 C 15.835938 23.78125 15.859375 23.964844 15.859375 23.964844 C 15.859375 23.964844 16.121094 24.417969 16.15625 24.449219 C 16.1875 24.484375 16.253906 24.578125 16.253906 24.578125 C 16.253906 24.578125 16.390625 24.6875 16.445312 24.6875 C 16.507812 24.6875 16.582031 24.746094 16.539062 24.792969 C 16.496094 24.84375 16.355469 24.945312 16.355469 24.945312 L 16.269531 24.945312 C 16.269531 24.945312 16.136719 24.953125 16.09375 24.945312 C 16.054688 24.9375 15.96875 24.917969 15.902344 24.949219 C 15.835938 24.976562 15.71875 25.0625 15.703125 25.121094 C 15.683594 25.179688 15.691406 25.414062 15.691406 25.414062 L 15.726562 25.515625 L 15.675781 25.515625 C 15.675781 25.515625 15.394531 25.757812 15.332031 25.765625 C 15.273438 25.773438 15.195312 25.773438 15.15625 25.816406 C 15.113281 25.859375 15.019531 25.960938 15.019531 25.960938 L 15.011719 26.113281 L 14.828125 26.003906 C 14.828125 26.003906 14.625 25.875 14.535156 25.8125 C 14.441406 25.742188 14.316406 25.667969 14.285156 25.660156 C 14.25 25.652344 14.039062 25.660156 14.039062 25.660156 L 13.949219 25.691406 L 13.804688 25.683594 L 13.804688 25.753906 L 13.789062 25.792969 L 13.722656 25.84375 C 13.722656 25.84375 13.578125 25.929688 13.578125 25.855469 C 13.578125 25.777344 13.5625 25.710938 13.601562 25.667969 C 13.644531 25.628906 13.6875 25.59375 13.6875 25.59375 L 13.710938 25.527344 L 13.667969 25.460938 C 13.667969 25.460938 13.578125 25.484375 13.585938 25.417969 C 13.59375 25.347656 13.570312 25.316406 13.628906 25.25 C 13.6875 25.183594 13.6875 25.183594 13.6875 25.183594 C 13.6875 25.183594 13.769531 25.132812 13.789062 25.105469 C 13.804688 25.082031 13.753906 25.007812 13.753906 25.007812 L 13.753906 24.90625 L 13.839844 24.769531 C 13.839844 24.769531 13.914062 24.671875 13.929688 24.644531 C 13.945312 24.617188 13.980469 24.578125 13.964844 24.542969 C 13.945312 24.511719 13.695312 24.335938 13.695312 24.335938 L 13.601562 24.242188 L 13.417969 24.160156 L 13.25 24.175781 L 13.183594 24.140625 C 13.183594 24.140625 13.292969 24.015625 13.3125 23.992188 C 13.328125 23.964844 13.394531 23.929688 13.402344 23.90625 C 13.410156 23.882812 13.410156 23.796875 13.410156 23.796875 C 13.410156 23.796875 13.378906 23.679688 13.351562 23.640625 C 13.328125 23.597656 13.300781 23.378906 13.300781 23.378906 L 13.277344 23.238281 L 13.183594 23.101562 C 13.183594 23.101562 12.964844 22.859375 12.789062 22.816406 C 12.789062 22.816406 12.722656 22.808594 12.648438 22.785156 C 12.570312 22.757812 12.488281 22.730469 12.488281 22.707031 C 12.488281 22.683594 12.394531 22.441406 12.335938 22.414062 C 12.277344 22.386719 12.101562 22.390625 12.078125 22.390625 C 12.050781 22.390625 11.886719 22.328125 11.859375 22.3125 C 11.832031 22.296875 11.714844 22.179688 11.714844 22.179688 L 11.511719 22.042969 L 11.414062 22 L 11.277344 21.910156 L 11.1875 21.824219 L 11.085938 21.765625 L 10.984375 21.773438 L 10.878906 21.683594 L 10.761719 21.574219 L 10.703125 21.507812 L 10.617188 21.414062 L 10.558594 21.382812 C 10.558594 21.382812 10.558594 21.296875 10.550781 21.214844 C 10.542969 21.128906 10.476562 21.070312 10.476562 21.070312 L 10.40625 20.988281 C 10.40625 20.988281 10.355469 20.910156 10.355469 20.886719 C 10.355469 20.863281 10.355469 20.578125 10.355469 20.578125 L 10.136719 20.359375 L 10.054688 20.308594 L 10.054688 20.105469 C 10.054688 20.105469 10.113281 20.046875 10.054688 20.046875 C 9.996094 20.046875 9.863281 20.023438 9.863281 20.023438 C 9.863281 20.023438 9.804688 19.996094 9.863281 19.960938 C 9.921875 19.929688 10.074219 19.785156 10.140625 19.820312 C 10.207031 19.851562 10.390625 19.996094 10.398438 20.070312 C 10.40625 20.144531 10.601562 20.375 10.601562 20.375 L 10.644531 20.515625 C 10.644531 20.515625 10.652344 20.609375 10.644531 20.652344 C 10.636719 20.695312 10.621094 20.765625 10.621094 20.765625 L 10.8125 20.785156 L 10.980469 20.714844 L 10.996094 20.632812 L 10.972656 20.496094 L 10.964844 20.421875 L 10.988281 20.355469 L 11.011719 20.246094 L 11.011719 19.875 C 11.011719 19.875 10.894531 19.804688 10.859375 19.730469 C 10.828125 19.65625 10.726562 19.554688 10.726562 19.554688 L 10.667969 19.523438 L 10.601562 19.523438 L 10.492188 19.429688 L 10.40625 19.355469 L 10.390625 19.289062 C 10.390625 19.289062 10.367188 19.234375 10.367188 19.210938 C 10.367188 19.1875 10.398438 19.113281 10.398438 19.113281 L 10.5 19.101562 C 10.5 19.101562 10.507812 19.152344 10.5 19.179688 C 10.492188 19.203125 10.484375 19.277344 10.484375 19.277344 L 10.574219 19.296875 L 10.644531 19.347656 L 10.703125 19.414062 L 10.746094 19.457031 L 10.789062 19.398438 L 10.8125 19.289062 L 10.835938 19.214844 L 10.84375 19.070312 L 10.851562 18.988281 L 10.953125 18.976562 L 11.011719 18.9375 C 11.011719 18.9375 10.9375 18.808594 10.84375 18.792969 C 10.753906 18.777344 10.726562 18.734375 10.726562 18.734375 L 10.660156 18.648438 L 10.652344 18.566406 L 10.570312 18.566406 L 10.585938 18.832031 L 10.550781 18.894531 L 10.527344 18.960938 L 10.410156 18.984375 L 10.425781 18.734375 L 10.394531 18.675781 L 10.3125 18.613281 L 10.183594 18.625 L 10.132812 18.53125 C 10.132812 18.53125 10.125 18.472656 10.117188 18.429688 C 10.109375 18.390625 10.074219 18.355469 10.074219 18.355469 L 10.066406 18.152344 C 10.066406 18.152344 10.191406 18.121094 10.257812 18.003906 C 10.324219 17.882812 10.410156 17.800781 10.410156 17.800781 L 10.417969 17.632812 L 10.359375 17.457031 L 10.292969 17.28125 L 10.300781 17.179688 C 10.300781 17.179688 10.441406 17.164062 10.492188 17.089844 C 10.542969 17.011719 10.632812 16.800781 10.632812 16.800781 L 10.644531 16.628906 L 10.609375 16.433594 L 10.550781 16.335938 L 10.625 16.257812 L 10.667969 16.183594 L 10.71875 16.152344 L 10.835938 16.175781 L 10.914062 16.226562 C 10.914062 16.226562 10.886719 16.269531 10.878906 16.292969 C 10.871094 16.320312 10.820312 16.402344 10.820312 16.402344 L 10.886719 16.453125 L 11.03125 16.386719 L 11.113281 16.300781 L 11.15625 16.277344 L 11.242188 16.210938 C 11.242188 16.210938 11.285156 16.167969 11.285156 16.144531 C 11.285156 16.117188 11.273438 15.992188 11.273438 15.992188 L 11.285156 15.75 L 11.222656 15.730469 L 11.132812 15.941406 C 11.132812 15.941406 11.046875 15.984375 11.046875 15.957031 C 11.046875 15.933594 11.03125 15.851562 11.03125 15.851562 L 11.023438 15.648438 L 11.023438 15.464844 L 10.980469 15.40625 L 10.914062 15.320312 L 10.9375 15.230469 L 10.980469 15.160156 L 10.964844 14.683594 L 10.882812 14.558594 L 10.855469 14.429688 L 10.863281 14.371094 L 11.046875 14.363281 C 11.046875 14.363281 11.117188 14.0625 11.191406 13.976562 C 11.265625 13.894531 11.34375 13.765625 11.34375 13.765625 L 11.328125 13.582031 C 11.328125 13.582031 11.328125 13.492188 11.316406 13.464844 C 11.308594 13.441406 11.257812 13.339844 11.257812 13.339844 L 11.175781 13.230469 L 10.898438 13.203125 C 10.898438 13.203125 10.863281 13.160156 10.839844 13.042969 C 10.8125 12.925781 10.769531 12.785156 10.769531 12.785156 C 10.769531 12.785156 10.671875 12.699219 10.671875 12.675781 C 10.671875 12.652344 10.644531 12.542969 10.644531 12.542969 C 10.644531 12.542969 10.695312 12.515625 10.730469 12.515625 C 10.761719 12.515625 10.828125 12.53125 10.828125 12.53125 L 10.914062 12.53125 L 11.023438 12.5 C 11.023438 12.5 11.105469 12.515625 11.066406 12.425781 C 11.023438 12.332031 11.023438 12.332031 11.023438 12.332031 C 11.023438 12.332031 10.945312 12.339844 10.996094 12.28125 C 11.046875 12.222656 11.164062 12.164062 11.164062 12.164062 L 11.242188 12.121094 L 11.292969 11.996094 L 11.359375 11.886719 L 11.441406 11.761719 L 11.417969 11.457031 L 11.25 11.433594 C 11.25 11.433594 11.089844 11.367188 11.039062 11.28125 C 10.988281 11.199219 10.972656 11.15625 10.972656 11.132812 C 10.972656 11.105469 11.046875 11.097656 11.089844 11.117188 C 11.132812 11.132812 11.207031 11.199219 11.207031 11.199219 L 11.375 11.199219 C 11.375 11.199219 11.417969 11.242188 11.472656 11.199219 C 11.535156 11.15625 11.589844 11.132812 11.589844 11.132812 L 11.640625 11.105469 L 11.710938 11.015625 L 11.75 11.058594 C 11.75 11.058594 11.761719 11.101562 11.792969 11.082031 C 11.828125 11.0625 11.828125 11.066406 11.828125 11.066406 L 11.902344 10.972656 C 11.902344 10.972656 11.902344 10.882812 11.886719 10.855469 C 11.871094 10.832031 11.8125 10.730469 11.8125 10.730469 L 11.742188 10.292969 L 11.742188 10.089844 L 11.675781 9.933594 L 11.585938 9.832031 C 11.585938 9.832031 11.515625 9.765625 11.59375 9.757812 C 11.667969 9.75 11.761719 9.699219 11.761719 9.699219 L 11.84375 9.664062 L 11.859375 9.574219 L 11.808594 9.464844 L 11.632812 9.230469 L 11.5 9.152344 L 11.429688 9.0625 L 11.265625 9.035156 L 11.195312 8.960938 C 11.195312 8.960938 11.203125 8.902344 11.171875 8.894531 C 11.140625 8.886719 11.140625 8.828125 11.140625 8.828125 L 11.078125 8.777344 L 11.070312 8.902344 L 11.003906 8.925781 L 10.921875 8.953125 Z M 10.859375 8.945312 " fill-opacity="1" fill-rule="nonzero"/></g></svg>