<svg xmlns="http://www.w3.org/2000/svg" xmlns:xlink="http://www.w3.org/1999/xlink" width="40" zoomAndPan="magnify" viewBox="0 0 30 30.000001" height="40" preserveAspectRatio="xMidYMid meet" version="1.0"><defs><clipPath id="46e9f1dec8"><path d="M 3.386719 3.875 L 26.613281 3.875 L 26.613281 24.925781 L 3.386719 24.925781 Z M 3.386719 3.875 " clip-rule="nonzero"/></clipPath></defs><g clip-path="url(#46e9f1dec8)"><path fill="#014d4e" d="M 26.113281 21.40625 L 25.789062 21.09375 L 25.835938 20.871094 L 25.566406 20.472656 L 25.132812 20.460938 L 24.925781 20.40625 L 24.609375 19.785156 L 24.773438 19.46875 L 25.113281 19.574219 L 25.238281 19.574219 L 25.34375 19.25 L 25.589844 19.425781 L 25.648438 19.46875 L 25.835938 19.296875 L 25.449219 19.015625 L 25.460938 18.910156 L 25.984375 18.652344 L 25.738281 18.5 L 25.53125 18.476562 L 25.4375 18.453125 L 25.195312 18.488281 L 25.121094 18.542969 L 24.96875 18.460938 L 24.78125 18.042969 L 24.46875 18.042969 L 24.316406 17.933594 L 23.945312 18.15625 L 23.652344 18.25 L 23.164062 18.332031 L 23.058594 18.484375 L 22.964844 18.308594 L 22.570312 18.050781 L 22.511719 18.015625 L 22.429688 17.757812 L 22.078125 17.542969 L 22.089844 17.390625 L 21.652344 16.984375 L 21.351562 16.777344 L 21 16.722656 L 20.867188 16.640625 L 20.722656 16.5625 L 20.660156 16.542969 L 20.492188 16.496094 L 20.367188 16.417969 C 20.367188 16.417969 20.300781 16.296875 20.285156 16.226562 C 20.269531 16.160156 20.160156 16.027344 20.160156 16.027344 L 20.097656 15.8125 L 20.246094 15.691406 L 20.207031 15.5625 L 20.152344 15.507812 L 20.039062 15.460938 L 19.949219 15.429688 L 19.824219 15.4375 L 19.75 15.449219 L 19.289062 15.28125 L 19.039062 15.257812 L 18.84375 15.28125 L 18.667969 15.027344 L 18.707031 14.882812 L 18.914062 14.859375 L 19.117188 14.777344 L 19.210938 14.757812 L 19.472656 14.78125 L 19.671875 14.78125 L 20.085938 14.820312 L 20.148438 14.910156 L 20.300781 15.035156 C 20.300781 15.035156 20.453125 15.054688 20.46875 14.996094 C 20.484375 14.933594 20.515625 14.847656 20.515625 14.847656 L 20.699219 14.703125 L 20.738281 14.449219 L 20.851562 14.335938 L 20.875 14.074219 L 21.234375 13.867188 L 21.386719 13.101562 L 21.277344 12.925781 L 21.039062 12.832031 L 20.925781 12.769531 L 20.910156 12.742188 L 20.910156 12.664062 L 21.152344 12.734375 L 21.199219 12.609375 L 21.097656 12.457031 L 21.03125 12.4375 L 20.882812 12.359375 L 20.722656 12.351562 L 20.648438 12.382812 L 20.5625 12.398438 L 20.527344 12.414062 L 20.457031 12.414062 L 20.214844 12.277344 L 19.992188 12.167969 L 19.800781 12.113281 L 19.699219 12.035156 L 19.484375 11.945312 L 19.316406 11.882812 L 19.171875 11.875 L 18.988281 11.875 L 18.894531 11.84375 L 18.765625 11.644531 L 18.644531 11.46875 L 18.484375 11.339844 L 18.277344 11.199219 L 18.183594 11.125 L 18.023438 10.964844 L 17.824219 10.910156 L 17.394531 10.679688 L 17.328125 10.59375 L 17.375 10.378906 L 17.4375 10.304688 L 17.476562 10.203125 L 17.484375 10.050781 L 17.484375 10.015625 L 17.296875 9.855469 L 17.007812 9.78125 L 16.886719 9.710938 L 16.832031 9.496094 L 16.722656 9.351562 L 16.789062 9.191406 L 16.90625 9.039062 L 16.996094 8.890625 C 16.996094 8.890625 17.003906 8.859375 17.027344 8.816406 C 17.046875 8.769531 17.128906 8.664062 17.128906 8.664062 L 17.585938 8.410156 L 17.824219 8.296875 L 18.03125 8.101562 L 18.246094 7.941406 L 18.359375 7.773438 L 18.359375 7.523438 L 18.339844 7.335938 L 18.179688 7.328125 L 17.816406 7.128906 L 17.742188 7.078125 L 17.671875 7.066406 L 17.558594 7.03125 L 17.484375 6.871094 L 17.40625 6.691406 L 17.359375 6.640625 L 17.261719 6.65625 L 17.144531 6.691406 L 17.023438 6.738281 L 17.003906 6.515625 L 17.09375 6.371094 L 17.171875 6.238281 L 17.054688 6.175781 L 16.949219 6.175781 L 16.800781 6.308594 L 16.691406 6.375 L 16.601562 6.40625 L 16.46875 6.421875 L 16.339844 6.421875 L 16.292969 6.382812 L 16.261719 6.273438 L 16.207031 6.175781 L 16.117188 6.191406 L 16.039062 6.207031 L 15.984375 6.292969 L 15.933594 6.355469 L 15.578125 6.160156 L 15.441406 6.078125 L 15.28125 5.976562 C 15.25 5.9375 15.15625 5.824219 15.15625 5.824219 C 15.15625 5.824219 15.121094 5.769531 15.101562 5.738281 C 15.085938 5.710938 14.972656 5.730469 14.972656 5.730469 L 14.964844 5.929688 L 14.957031 5.976562 L 14.734375 6.003906 C 14.734375 6.003906 14.601562 6.035156 14.59375 6.003906 C 14.585938 5.976562 14.550781 5.890625 14.550781 5.890625 L 14.550781 5.738281 L 14.566406 5.578125 L 14.675781 5.558594 L 14.988281 5.542969 L 15.113281 5.488281 L 15.257812 5.449219 L 15.410156 5.25 L 15.09375 4.820312 L 14.757812 4.875 L 14.496094 4.875 L 14.28125 4.808594 L 14.460938 4.632812 L 14.421875 4.425781 L 14.007812 3.984375 L 13.671875 4.023438 L 13.472656 4.023438 L 13.253906 3.929688 L 13.125 3.910156 L 12.910156 3.875 L 12.789062 4.199219 L 12.855469 4.328125 L 12.941406 4.480469 L 13.363281 4.660156 L 13.371094 4.734375 L 13.363281 4.773438 L 13.332031 4.773438 L 13.011719 4.757812 L 12.113281 4.695312 L 11.972656 4.535156 L 11.542969 4.574219 L 11.421875 4.902344 L 11.246094 4.917969 L 11.160156 4.765625 L 10.921875 4.835938 L 10.785156 5.011719 L 10.539062 5.050781 L 10.027344 4.828125 L 9.894531 4.773438 L 9.785156 4.933594 L 9.257812 4.925781 L 9.164062 4.636719 L 8.789062 4.699219 L 8.757812 5.058594 L 8.320312 5.230469 L 7.945312 5.175781 L 7.753906 5.15625 L 7.355469 5.265625 L 6.679688 5.21875 L 5.933594 5.511719 L 5.871094 5.695312 L 5.664062 5.675781 L 5.542969 5.613281 L 5.433594 5.566406 L 5.226562 5.582031 L 5.019531 5.585938 L 4.453125 5.371094 L 4.277344 5.441406 L 3.679688 5.640625 L 3.394531 5.808594 L 3.433594 6.226562 L 3.5625 6.570312 L 3.683594 6.648438 L 4.046875 6.738281 L 4.636719 7.09375 L 4.804688 7.246094 L 4.882812 7.597656 L 4.90625 7.820312 L 4.925781 8.035156 L 4.925781 8.15625 L 5.125 8.378906 L 5.144531 8.546875 L 5.261719 8.753906 L 5.328125 8.984375 L 5.335938 9.339844 L 5.328125 9.523438 L 5.289062 9.609375 L 5.136719 9.730469 L 5.007812 10.222656 L 4.777344 10.507812 L 4.578125 10.859375 L 4.1875 11.089844 L 3.898438 11.375 L 3.976562 11.503906 L 4.414062 11.773438 L 4.476562 11.859375 L 4.476562 12.15625 L 4.382812 12.21875 L 4.296875 12.5625 L 4.449219 12.808594 C 4.449219 12.808594 4.566406 12.984375 4.566406 13.015625 C 4.566406 13.046875 4.59375 13.125 4.59375 13.125 C 4.59375 13.125 4.839844 13.238281 4.863281 13.246094 C 4.886719 13.253906 4.929688 13.484375 4.929688 13.484375 L 4.738281 13.53125 L 4.785156 13.679688 L 5.015625 13.847656 C 5.015625 13.847656 5.054688 14.089844 5.03125 14.089844 C 5.011719 14.089844 4.71875 14.152344 4.71875 14.152344 L 4.625 14.359375 L 4.785156 14.628906 L 5.113281 14.777344 L 5.351562 14.851562 C 5.351562 14.851562 5.589844 14.785156 5.628906 14.828125 C 5.664062 14.875 5.925781 15.042969 5.925781 15.042969 L 6.09375 15.035156 L 6.347656 15.230469 L 6.617188 15.191406 L 7.4375 15.125 L 7.796875 15.160156 L 8.011719 15.085938 L 8.335938 15.125 L 8.902344 14.929688 L 9.242188 14.96875 L 9.871094 15.320312 L 10.175781 15.421875 L 10.714844 15.699219 L 10.976562 16.097656 C 10.976562 16.097656 11.160156 16.175781 11.160156 16.199219 C 11.160156 16.222656 11.253906 16.535156 11.253906 16.535156 L 11.429688 16.636719 L 11.542969 16.914062 L 11.8125 16.976562 L 11.980469 17.089844 L 12.167969 17.121094 L 12.1875 17.265625 L 12.339844 17.445312 L 12.355469 17.558594 L 12.523438 17.519531 L 12.609375 17.613281 L 12.570312 17.808594 L 12.765625 17.863281 L 13.023438 17.796875 C 13.023438 17.796875 13.269531 17.703125 13.292969 17.703125 C 13.316406 17.703125 13.648438 17.558594 13.648438 17.558594 L 13.839844 17.679688 L 14.5 17.449219 L 14.777344 17.074219 L 15.175781 17.089844 L 15.390625 17.304688 L 15.460938 17.519531 L 15.523438 17.648438 L 15.765625 17.972656 L 15.941406 18.140625 L 15.949219 18.402344 L 15.835938 18.855469 L 16.089844 18.847656 L 16.183594 18.609375 L 16.511719 18.460938 L 16.742188 18.601562 L 16.703125 18.816406 L 16.769531 18.992188 L 17.15625 19.191406 L 17.414062 19.226562 L 17.546875 19.496094 L 17.707031 19.566406 L 17.78125 19.726562 L 17.933594 19.617188 L 17.996094 19.402344 L 18.15625 19.328125 L 18.394531 19.066406 L 18.648438 18.890625 L 19.078125 18.871094 L 19.4375 18.558594 L 19.609375 18.519531 L 20.054688 18.757812 L 20.414062 18.933594 L 20.453125 19.425781 L 20.554688 19.71875 L 20.460938 19.878906 L 20.359375 20.359375 L 20.3125 20.585938 L 21.28125 20.953125 L 21.464844 21.066406 L 21.839844 21.226562 L 21.992188 21.46875 L 21.792969 21.644531 L 21.847656 22.136719 L 22.101562 22.320312 L 22.125 22.617188 L 22.1875 22.917969 L 22.445312 23.1875 C 22.445312 23.1875 22.597656 23.652344 22.625 23.652344 C 22.644531 23.652344 22.820312 23.90625 22.820312 23.90625 L 22.914062 24.25 L 22.980469 24.496094 L 23.097656 24.695312 L 23.148438 24.816406 L 23.167969 25.058594 L 23.355469 25.152344 L 23.660156 24.941406 L 23.917969 24.847656 L 24.125 24.660156 C 24.125 24.660156 24.160156 24.652344 24.21875 24.636719 C 24.273438 24.625 24.488281 24.582031 24.488281 24.582031 L 24.570312 24.523438 C 24.570312 24.523438 24.683594 24.441406 24.757812 24.511719 C 24.828125 24.582031 24.917969 24.710938 24.917969 24.710938 C 24.917969 24.710938 24.976562 24.675781 25.257812 24.675781 C 25.539062 24.675781 25.84375 24.664062 25.84375 24.664062 L 25.867188 24.492188 L 25.878906 23.753906 L 26.019531 23.03125 L 25.703125 22.671875 L 25.65625 22.402344 L 25.261719 22.238281 L 25.167969 21.878906 L 25.707031 21.734375 L 25.894531 22.109375 L 26.058594 22.109375 L 26.113281 21.792969 L 26.570312 21.664062 L 26.605469 21.46875 Z M 14.113281 5.816406 L 14.328125 5.796875 L 14.375 5.988281 L 14.222656 6.167969 L 13.960938 5.980469 Z M 14.195312 17.21875 L 14.09375 17.113281 L 14.136719 17.058594 L 14.191406 17.015625 L 14.261719 16.972656 L 14.375 17.039062 L 14.378906 17.113281 C 14.378906 17.113281 14.226562 17.21875 14.195312 17.21875 Z M 15.671875 6.648438 L 15.414062 6.664062 L 15.367188 6.457031 L 15.460938 6.371094 L 15.773438 6.488281 Z M 15.671875 6.648438 " fill-opacity="1" fill-rule="nonzero"/></g><path fill="#014d4e" d="M 17.84375 9.269531 L 17.734375 9.339844 L 17.613281 9.414062 L 17.546875 9.515625 L 17.546875 9.601562 L 17.609375 9.667969 L 17.628906 9.730469 L 17.769531 9.898438 C 17.796875 9.890625 17.960938 9.753906 17.960938 9.753906 L 18.109375 9.699219 L 18.152344 9.546875 L 18.152344 9.4375 L 18.136719 9.324219 L 18.039062 9.269531 Z M 17.84375 9.269531 " fill-opacity="1" fill-rule="nonzero"/></svg>