<svg xmlns="http://www.w3.org/2000/svg" xmlns:xlink="http://www.w3.org/1999/xlink" width="40" zoomAndPan="magnify" viewBox="0 0 30 30.000001" height="40" preserveAspectRatio="xMidYMid meet" version="1.0"><defs><clipPath id="643ffe1062"><path d="M 3.386719 13 L 15 13 L 15 19.929688 L 3.386719 19.929688 Z M 3.386719 13 " clip-rule="nonzero"/></clipPath><clipPath id="d6807cb6ce"><path d="M 11 9.042969 L 26 9.042969 L 26 16 L 11 16 Z M 11 9.042969 " clip-rule="nonzero"/></clipPath><clipPath id="6c908e740b"><path d="M 25 11 L 26.613281 11 L 26.613281 13 L 25 13 Z M 25 11 " clip-rule="nonzero"/></clipPath></defs><g clip-path="url(#643ffe1062)"><path fill="#014d4e" d="M 13.136719 15.558594 C 13.074219 15.558594 13.007812 15.550781 12.945312 15.546875 C 12.859375 15.550781 12.769531 15.550781 12.679688 15.570312 C 12.644531 15.589844 12.625 15.644531 12.585938 15.667969 C 12.535156 15.714844 12.460938 15.734375 12.390625 15.71875 C 12.328125 15.699219 12.3125 15.625 12.253906 15.597656 C 12.203125 15.582031 12.160156 15.554688 12.117188 15.53125 C 12.09375 15.515625 12.066406 15.5 12.058594 15.472656 C 12.054688 15.335938 12.070312 15.191406 12.082031 15.054688 C 12.09375 14.933594 12.109375 14.816406 12.097656 14.695312 C 12.09375 14.667969 12.105469 14.644531 12.125 14.628906 C 12.167969 14.585938 12.214844 14.542969 12.265625 14.507812 C 12.339844 14.453125 12.40625 14.386719 12.472656 14.324219 C 12.371094 14.195312 12.257812 14.085938 12.136719 13.972656 C 11.894531 13.71875 11.613281 13.496094 11.371094 13.238281 C 11.363281 13.230469 11.359375 13.222656 11.351562 13.214844 C 11.257812 13.296875 11.117188 13.316406 10.996094 13.34375 C 10.902344 13.382812 10.8125 13.429688 10.730469 13.484375 C 10.601562 13.621094 10.417969 13.675781 10.242188 13.601562 C 10.199219 13.585938 10.167969 13.542969 10.152344 13.503906 C 10.136719 13.453125 10.117188 13.410156 10.0625 13.398438 C 9.988281 13.371094 9.910156 13.378906 9.839844 13.34375 C 9.675781 13.25 9.675781 13.121094 9.433594 13.140625 C 9.304688 13.144531 9.199219 13.226562 9.082031 13.277344 C 9.042969 13.3125 9 13.339844 8.945312 13.335938 C 8.828125 13.347656 8.707031 13.328125 8.59375 13.355469 C 8.5 13.375 8.46875 13.480469 8.402344 13.539062 C 8.332031 13.601562 8.222656 13.59375 8.148438 13.550781 C 8.082031 13.507812 8.042969 13.433594 8.039062 13.355469 C 8.039062 13.253906 8.007812 13.097656 7.875 13.121094 C 7.785156 13.144531 7.746094 13.230469 7.667969 13.273438 C 7.574219 13.316406 7.476562 13.34375 7.386719 13.402344 C 7.28125 13.464844 7.148438 13.449219 7.035156 13.414062 C 6.960938 13.398438 6.898438 13.359375 6.835938 13.316406 C 6.792969 13.292969 6.75 13.328125 6.707031 13.34375 C 6.597656 13.402344 6.507812 13.492188 6.378906 13.519531 C 6.125 13.601562 6.039062 13.539062 5.851562 13.789062 C 5.777344 13.929688 5.667969 14.042969 5.554688 14.144531 C 5.488281 14.28125 5.390625 14.359375 5.238281 14.277344 C 5.191406 14.253906 5.15625 14.210938 5.105469 14.1875 C 5.066406 14.179688 5.019531 14.167969 4.988281 14.195312 C 4.933594 14.273438 4.902344 14.371094 4.84375 14.445312 C 4.792969 14.515625 4.726562 14.582031 4.660156 14.636719 C 4.582031 14.710938 4.503906 14.785156 4.414062 14.84375 C 4.199219 14.976562 4.214844 15.074219 4.109375 15.273438 C 4.070312 15.347656 4.019531 15.414062 3.980469 15.484375 C 3.914062 15.589844 3.847656 15.707031 3.730469 15.757812 C 3.621094 15.808594 3.480469 15.808594 3.398438 15.90625 C 3.398438 15.90625 3.402344 15.90625 3.402344 15.90625 C 3.550781 15.984375 3.722656 15.976562 3.882812 15.984375 C 4.023438 15.984375 4.164062 16.015625 4.289062 16.074219 C 4.464844 16.160156 4.59375 16.328125 4.777344 16.40625 C 4.84375 16.433594 4.917969 16.441406 4.992188 16.457031 C 5.070312 16.472656 5.144531 16.503906 5.226562 16.496094 C 5.386719 16.496094 5.542969 16.4375 5.644531 16.308594 C 5.765625 16.164062 6.074219 16 6.171875 16.25 C 6.210938 16.386719 6.199219 16.582031 6.375 16.617188 C 6.433594 16.625 6.496094 16.605469 6.554688 16.621094 C 6.625 16.632812 6.691406 16.683594 6.769531 16.675781 C 6.863281 16.648438 6.921875 16.550781 7.023438 16.523438 C 7.199219 16.476562 7.289062 16.648438 7.265625 16.800781 C 7.335938 16.808594 7.414062 16.796875 7.476562 16.839844 C 7.515625 16.859375 7.539062 16.898438 7.582031 16.914062 C 7.800781 16.964844 7.878906 17.164062 7.851562 17.371094 C 7.847656 17.417969 7.828125 17.464844 7.808594 17.503906 C 7.78125 17.558594 7.726562 17.605469 7.734375 17.671875 C 7.738281 17.75 7.792969 17.8125 7.828125 17.878906 C 7.90625 17.984375 7.945312 18.109375 7.941406 18.238281 C 7.953125 18.320312 7.949219 18.398438 7.964844 18.476562 C 8 18.570312 8.066406 18.644531 8.148438 18.699219 C 8.246094 18.785156 8.382812 18.785156 8.496094 18.839844 C 8.59375 18.875 8.648438 18.972656 8.742188 19.015625 C 8.796875 19.042969 8.859375 19.054688 8.914062 19.082031 C 8.992188 19.136719 9.046875 19.234375 9.152344 19.238281 C 9.207031 19.238281 9.25 19.1875 9.300781 19.171875 C 9.355469 19.148438 9.410156 19.128906 9.464844 19.105469 C 9.539062 19.082031 9.765625 19.011719 9.832031 19.085938 C 9.886719 19.109375 9.898438 19.179688 9.925781 19.230469 C 9.984375 19.363281 9.898438 19.519531 9.796875 19.605469 C 9.714844 19.65625 9.609375 19.660156 9.726562 19.769531 C 9.804688 19.824219 9.847656 19.921875 9.941406 19.957031 C 10.039062 19.988281 10.03125 19.824219 10.070312 19.769531 C 10.085938 19.742188 10.105469 19.71875 10.132812 19.699219 C 10.175781 19.679688 10.234375 19.648438 10.269531 19.625 C 10.308594 19.597656 10.335938 19.558594 10.375 19.53125 C 10.417969 19.484375 10.425781 19.414062 10.421875 19.351562 C 10.402344 19.285156 10.34375 19.234375 10.351562 19.160156 C 10.347656 19.101562 10.382812 19.046875 10.421875 19.003906 C 10.433594 18.976562 10.425781 18.945312 10.429688 18.917969 C 10.511719 18.679688 10.886719 18.867188 11.007812 18.980469 C 11.070312 19.03125 11.09375 19.105469 11.148438 19.15625 C 11.207031 19.210938 11.273438 19.253906 11.347656 19.273438 C 11.390625 19.277344 11.441406 19.304688 11.472656 19.265625 C 11.511719 19.214844 11.5625 19.164062 11.582031 19.101562 C 11.582031 19.019531 11.59375 18.9375 11.636719 18.867188 C 11.699219 18.683594 11.914062 18.636719 12.007812 18.480469 C 12.046875 18.414062 12.035156 18.332031 12.066406 18.261719 C 12.132812 18.128906 12.265625 18.050781 12.390625 17.988281 C 12.519531 17.890625 12.65625 17.800781 12.777344 17.695312 C 12.84375 17.625 12.863281 17.527344 12.828125 17.4375 C 12.804688 17.328125 12.832031 17.203125 12.9375 17.144531 C 13.066406 17.066406 13.222656 17.050781 13.351562 16.96875 C 13.453125 16.898438 13.53125 16.796875 13.628906 16.722656 C 13.695312 16.671875 13.769531 16.640625 13.847656 16.609375 C 13.9375 16.5625 13.976562 16.453125 14.070312 16.410156 C 14.132812 16.375 14.214844 16.359375 14.269531 16.320312 C 14.367188 16.261719 14.472656 16.207031 14.519531 16.097656 C 14.4375 16.082031 14.359375 16.132812 14.277344 16.125 C 14.171875 16.125 14.085938 16.117188 13.988281 16.113281 C 13.859375 16.085938 13.703125 16.117188 13.601562 16.011719 C 13.5625 15.980469 13.539062 15.933594 13.507812 15.894531 C 13.460938 15.859375 13.398438 15.851562 13.347656 15.816406 C 13.277344 15.773438 13.226562 15.710938 13.164062 15.652344 C 13.144531 15.628906 13.136719 15.59375 13.136719 15.558594 Z M 13.136719 15.558594 " fill-opacity="1" fill-rule="nonzero"/></g><g clip-path="url(#d6807cb6ce)"><path fill="#014d4e" d="M 25.042969 9.84375 C 25.019531 9.8125 25 9.777344 24.996094 9.738281 C 24.988281 9.664062 25.03125 9.597656 25.070312 9.539062 C 25.113281 9.464844 25.191406 9.425781 25.265625 9.398438 C 25.246094 9.371094 25.214844 9.34375 25.175781 9.339844 C 25.066406 9.34375 24.972656 9.425781 24.871094 9.457031 C 24.71875 9.507812 24.566406 9.546875 24.40625 9.550781 C 24.167969 9.550781 24.21875 9.453125 23.996094 9.628906 C 23.917969 9.683594 23.847656 9.742188 23.765625 9.785156 C 23.71875 9.8125 23.671875 9.828125 23.628906 9.855469 C 23.597656 9.898438 23.570312 9.953125 23.558594 10.003906 C 23.554688 10.15625 23.628906 10.320312 23.554688 10.46875 C 23.476562 10.597656 23.324219 10.726562 23.167969 10.632812 C 23.09375 10.601562 23.023438 10.554688 22.988281 10.480469 C 22.96875 10.417969 22.933594 10.378906 22.875 10.351562 C 22.742188 10.277344 22.585938 10.285156 22.4375 10.261719 C 22.347656 10.242188 22.253906 10.226562 22.160156 10.242188 C 21.996094 10.289062 21.816406 10.28125 21.679688 10.167969 C 21.632812 10.128906 21.609375 10.066406 21.554688 10.03125 C 21.433594 9.929688 21.257812 9.96875 21.15625 10.082031 C 21.046875 10.167969 20.917969 10.234375 20.789062 10.289062 C 20.632812 10.359375 20.464844 10.441406 20.292969 10.382812 C 20.125 10.34375 19.820312 10.195312 19.933594 9.984375 C 19.992188 9.886719 20.105469 9.847656 20.195312 9.78125 C 20.058594 9.65625 19.847656 9.679688 19.679688 9.710938 C 19.574219 9.726562 19.476562 9.679688 19.378906 9.660156 C 19.207031 9.628906 19.246094 9.804688 19.183594 9.90625 C 19.105469 10.027344 18.960938 9.960938 18.882812 9.875 C 18.796875 9.898438 18.800781 10 18.769531 10.066406 C 18.746094 10.113281 18.710938 10.15625 18.675781 10.191406 C 18.527344 10.332031 18.183594 10.40625 18.113281 10.148438 C 18.078125 10.023438 18.164062 9.90625 18.160156 9.785156 C 18.046875 9.785156 17.949219 9.859375 17.847656 9.898438 C 17.839844 9.902344 17.828125 9.910156 17.820312 9.914062 C 17.789062 9.941406 17.742188 9.9375 17.714844 9.910156 C 17.714844 9.910156 17.714844 9.910156 17.714844 9.90625 C 17.679688 9.890625 17.652344 9.863281 17.640625 9.828125 C 17.582031 9.71875 17.648438 9.597656 17.632812 9.480469 C 17.53125 9.480469 17.460938 9.5625 17.371094 9.59375 C 17.289062 9.636719 17.195312 9.621094 17.109375 9.652344 C 17.03125 9.691406 16.972656 9.765625 16.898438 9.8125 C 16.84375 9.847656 16.777344 9.875 16.710938 9.886719 C 16.460938 9.929688 16.371094 9.769531 16.457031 9.550781 C 16.484375 9.484375 16.535156 9.433594 16.566406 9.371094 C 16.617188 9.277344 16.632812 9.171875 16.667969 9.078125 C 16.648438 9.042969 16.601562 9.046875 16.566406 9.050781 C 16.421875 9.078125 16.335938 9.195312 16.230469 9.289062 C 16.140625 9.363281 16.023438 9.40625 15.964844 9.511719 C 15.882812 9.617188 15.765625 9.683594 15.660156 9.765625 C 15.492188 9.894531 15.320312 10.019531 15.113281 10.0625 C 14.949219 10.109375 14.78125 10.105469 14.617188 10.136719 C 14.480469 10.152344 14.355469 10.164062 14.34375 10.332031 C 14.328125 10.484375 14.390625 10.714844 14.242188 10.816406 C 14.164062 10.855469 14.070312 10.804688 13.992188 10.847656 C 13.773438 10.976562 13.765625 10.746094 13.550781 11.03125 C 13.511719 11.085938 13.5 11.15625 13.464844 11.210938 C 13.398438 11.320312 13.320312 11.417969 13.234375 11.511719 C 13.140625 11.625 13 11.691406 12.917969 11.816406 C 12.863281 11.894531 12.808594 11.980469 12.769531 12.070312 C 12.746094 12.136719 12.75 12.210938 12.753906 12.28125 C 12.773438 12.335938 12.820312 12.375 12.863281 12.414062 C 12.914062 12.46875 12.941406 12.535156 12.964844 12.601562 C 13.066406 12.929688 12.6875 13.078125 12.492188 12.820312 C 12.453125 12.777344 12.394531 12.777344 12.347656 12.75 C 12.28125 12.710938 12.234375 12.617188 12.148438 12.640625 C 12.050781 12.660156 11.949219 12.691406 11.867188 12.742188 C 11.8125 12.777344 11.765625 12.824219 11.707031 12.863281 C 11.636719 12.90625 11.554688 12.933594 11.496094 13 C 11.464844 13.046875 11.441406 13.097656 11.410156 13.144531 C 11.460938 13.21875 11.53125 13.273438 11.597656 13.339844 C 11.726562 13.464844 11.859375 13.589844 11.996094 13.710938 C 12.082031 13.789062 12.160156 13.878906 12.246094 13.957031 C 12.355469 14.058594 12.46875 14.164062 12.550781 14.289062 C 12.570312 14.320312 12.566406 14.367188 12.53125 14.386719 C 12.480469 14.429688 12.4375 14.480469 12.382812 14.523438 C 12.3125 14.578125 12.242188 14.628906 12.183594 14.695312 C 12.195312 14.828125 12.175781 14.960938 12.164062 15.09375 C 12.152344 15.210938 12.148438 15.324219 12.140625 15.441406 C 12.207031 15.488281 12.289062 15.503906 12.347656 15.558594 C 12.371094 15.578125 12.386719 15.613281 12.414062 15.632812 C 12.472656 15.644531 12.523438 15.609375 12.558594 15.566406 C 12.585938 15.527344 12.621094 15.488281 12.671875 15.480469 C 12.808594 15.453125 12.953125 15.453125 13.089844 15.46875 C 13.113281 15.46875 13.136719 15.464844 13.15625 15.464844 C 13.171875 15.441406 13.191406 15.417969 13.210938 15.40625 C 13.214844 15.402344 13.21875 15.402344 13.21875 15.398438 C 13.214844 15.398438 13.214844 15.402344 13.210938 15.40625 C 13.210938 15.40625 13.210938 15.40625 13.207031 15.40625 C 13.226562 15.394531 13.246094 15.386719 13.265625 15.390625 C 13.292969 15.382812 13.328125 15.390625 13.351562 15.410156 C 13.386719 15.421875 13.421875 15.433594 13.457031 15.441406 C 13.5 15.386719 13.5 15.308594 13.527344 15.242188 C 13.585938 15.09375 13.683594 15.039062 13.832031 15 C 13.902344 14.96875 13.980469 14.964844 14.054688 14.945312 C 14.148438 14.910156 14.242188 14.847656 14.347656 14.882812 C 14.503906 14.925781 14.472656 15.128906 14.4375 15.25 C 14.414062 15.339844 14.355469 15.417969 14.316406 15.5 C 14.261719 15.59375 14.144531 15.640625 14.054688 15.671875 C 14.105469 15.71875 14.175781 15.753906 14.25 15.757812 C 14.304688 15.75 14.339844 15.710938 14.367188 15.667969 C 14.441406 15.503906 14.519531 15.339844 14.59375 15.175781 C 14.628906 15.058594 14.683594 14.945312 14.734375 14.832031 C 14.769531 14.726562 14.828125 14.628906 14.902344 14.546875 C 15 14.433594 15.136719 14.367188 15.242188 14.261719 C 15.3125 14.179688 15.347656 14.0625 15.453125 14.007812 C 15.539062 13.953125 15.648438 13.941406 15.75 13.925781 C 15.914062 13.894531 16.078125 13.839844 16.207031 13.730469 C 16.414062 13.535156 16.230469 13.535156 16.097656 13.398438 C 16 13.28125 15.871094 13.089844 15.988281 12.945312 C 16.054688 12.878906 16.164062 12.886719 16.242188 12.835938 C 16.25 12.679688 16.097656 12.597656 16.039062 12.46875 C 15.996094 12.40625 16.007812 12.3125 15.941406 12.265625 C 15.738281 12.15625 15.5 12.148438 15.28125 12.070312 C 15.234375 12.050781 15.1875 12.035156 15.140625 12.011719 C 15.042969 11.964844 14.957031 11.886719 14.847656 11.890625 C 14.664062 11.898438 14.382812 12.035156 14.230469 11.898438 C 14.175781 11.84375 14.140625 11.75 14.171875 11.671875 C 14.203125 11.574219 14.308594 11.539062 14.402344 11.535156 C 14.496094 11.527344 14.589844 11.519531 14.683594 11.519531 C 14.964844 11.511719 15.242188 11.730469 15.523438 11.617188 C 15.609375 11.582031 15.65625 11.5 15.714844 11.433594 C 15.753906 11.394531 15.800781 11.359375 15.847656 11.332031 C 15.957031 11.273438 16.085938 11.277344 16.203125 11.261719 C 16.3125 11.25 16.414062 11.242188 16.523438 11.242188 C 16.617188 11.242188 16.726562 11.269531 16.816406 11.277344 C 16.910156 11.289062 17.007812 11.296875 17.097656 11.324219 C 17.523438 11.476562 17.496094 11.761719 17.347656 12.121094 C 17.332031 12.210938 17.355469 12.304688 17.378906 12.394531 C 17.414062 12.496094 17.480469 12.59375 17.46875 12.707031 C 17.46875 12.753906 17.457031 12.796875 17.445312 12.84375 C 17.4375 12.890625 17.394531 12.941406 17.40625 12.988281 C 17.480469 13.050781 17.597656 13.035156 17.6875 13.023438 C 17.808594 12.96875 17.933594 12.925781 18.066406 12.921875 C 18.25 12.898438 18.429688 12.859375 18.613281 12.816406 C 18.75 12.785156 18.898438 12.789062 19.035156 12.75 C 19.132812 12.71875 19.238281 12.675781 19.28125 12.578125 C 19.304688 12.492188 19.265625 12.402344 19.292969 12.316406 C 19.371094 12.128906 19.605469 12.210938 19.761719 12.199219 C 19.851562 12.199219 19.933594 12.140625 19.976562 12.0625 C 20.019531 11.972656 20.046875 11.867188 20.132812 11.800781 C 20.234375 11.710938 20.367188 11.671875 20.496094 11.636719 C 20.554688 11.621094 20.597656 11.574219 20.632812 11.527344 C 20.703125 11.429688 20.753906 11.316406 20.851562 11.242188 C 21.007812 11.136719 21.210938 11.144531 21.386719 11.191406 C 21.433594 11.203125 21.476562 11.214844 21.519531 11.238281 C 21.585938 11.269531 21.640625 11.320312 21.710938 11.335938 C 21.789062 11.351562 21.867188 11.347656 21.945312 11.351562 C 22.042969 11.359375 22.136719 11.398438 22.210938 11.457031 C 22.332031 11.550781 22.449219 11.699219 22.378906 11.855469 C 22.351562 11.917969 22.3125 11.996094 22.246094 12.023438 C 22.140625 12.046875 21.996094 12.039062 21.945312 12.15625 C 21.945312 12.15625 21.945312 12.152344 21.945312 12.152344 C 21.941406 12.183594 21.957031 12.21875 21.980469 12.238281 C 22.105469 12.347656 22.289062 12.339844 22.425781 12.261719 C 22.5 12.210938 22.570312 12.152344 22.648438 12.109375 C 22.78125 12.035156 22.957031 12.089844 23.070312 11.980469 C 23.144531 11.921875 23.175781 11.828125 23.234375 11.753906 C 23.316406 11.621094 23.460938 11.507812 23.628906 11.535156 C 23.769531 11.558594 23.890625 11.652344 24.035156 11.65625 C 24.078125 11.585938 24.101562 11.507812 24.15625 11.449219 C 24.261719 11.351562 24.414062 11.328125 24.550781 11.339844 C 24.613281 11.335938 24.667969 11.316406 24.722656 11.292969 C 24.789062 11.257812 24.875 11.234375 24.925781 11.179688 C 24.972656 11.046875 24.957031 10.898438 25.019531 10.769531 C 25.09375 10.554688 25.367188 10.332031 25.21875 10.097656 C 25.167969 10.011719 25.101562 9.929688 25.042969 9.84375 Z M 25.042969 9.84375 " fill-opacity="1" fill-rule="nonzero"/></g><g clip-path="url(#6c908e740b)"><path fill="#014d4e" d="M 26.089844 11.964844 C 26 11.917969 25.933594 12.019531 25.855469 12.046875 C 25.808594 12.066406 25.761719 12.082031 25.714844 12.09375 C 25.667969 12.113281 25.601562 12.113281 25.570312 12.15625 C 25.515625 12.253906 25.566406 12.363281 25.605469 12.460938 C 25.683594 12.539062 25.683594 12.710938 25.816406 12.722656 C 25.890625 12.71875 25.964844 12.707031 26.039062 12.703125 C 26.121094 12.703125 26.199219 12.734375 26.28125 12.734375 C 26.484375 12.722656 26.503906 12.707031 26.542969 12.507812 C 26.554688 12.457031 26.597656 12.414062 26.601562 12.363281 C 26.53125 12.128906 26.285156 12.054688 26.089844 11.964844 Z M 26.089844 11.964844 " fill-opacity="1" fill-rule="nonzero"/></g><path fill="#014d4e" d="M 13.214844 15.40625 C 13.21875 15.402344 13.222656 15.402344 13.222656 15.398438 C 13.21875 15.402344 13.21875 15.402344 13.214844 15.40625 Z M 13.214844 15.40625 " fill-opacity="1" fill-rule="nonzero"/></svg>