<svg xmlns="http://www.w3.org/2000/svg" xmlns:xlink="http://www.w3.org/1999/xlink" width="40" zoomAndPan="magnify" viewBox="0 0 30 30.000001" height="40" preserveAspectRatio="xMidYMid meet" version="1.0"><defs><clipPath id="bad5daf102"><path d="M 3.386719 8.507812 L 26.613281 8.507812 L 26.613281 20.84375 L 3.386719 20.84375 Z M 3.386719 8.507812 " clip-rule="nonzero"/></clipPath></defs><g clip-path="url(#bad5daf102)"><path fill="#014d4e" d="M 15.03125 19.664062 C 14.875 19.601562 13.132812 19.460938 12.96875 19.273438 C 12.957031 19.257812 12.941406 19.253906 12.921875 19.257812 C 12.488281 19.332031 12.082031 18.992188 11.761719 18.734375 C 11.746094 18.726562 11.738281 18.710938 11.738281 18.691406 C 11.738281 18.617188 11.738281 18.398438 11.738281 18.308594 C 11.738281 18.285156 11.726562 18.265625 11.707031 18.257812 L 11.339844 18.113281 C 11.320312 18.109375 11.308594 18.089844 11.308594 18.070312 C 11.28125 17.738281 11.328125 17.671875 11.535156 17.515625 C 11.578125 17.484375 11.554688 17.414062 11.5 17.417969 C 11.039062 17.449219 10.328125 17.945312 9.929688 17.902344 C 9.921875 17.902344 9.917969 17.898438 9.910156 17.898438 C 9.464844 17.65625 8.804688 17.828125 8.363281 17.984375 C 8.359375 17.988281 8.355469 17.988281 8.351562 17.988281 C 8.136719 18.011719 8.035156 18.5625 7.972656 18.765625 C 7.964844 18.789062 7.941406 18.804688 7.914062 18.800781 C 7.78125 18.792969 7.335938 18.765625 7.15625 18.753906 C 7.121094 18.75 7.097656 18.714844 7.109375 18.683594 C 7.160156 18.507812 7.007812 18.441406 6.886719 18.335938 C 6.875 18.324219 6.859375 18.320312 6.84375 18.320312 C 6.753906 18.332031 6.449219 18.363281 6.308594 18.382812 C 6.273438 18.386719 6.242188 18.351562 6.25 18.316406 C 6.304688 18.015625 6.261719 17.960938 6.03125 17.761719 C 6.007812 17.742188 5.976562 17.746094 5.957031 17.761719 C 5.828125 17.882812 5.390625 18.296875 5.285156 18.394531 C 5.269531 18.410156 5.25 18.414062 5.230469 18.40625 C 3.570312 17.863281 5.28125 17.839844 3.652344 17.503906 C 3.613281 17.496094 3.597656 17.457031 3.613281 17.421875 C 3.761719 17.15625 3.542969 16.824219 3.40625 16.589844 C 3.390625 16.570312 3.394531 16.542969 3.410156 16.523438 C 3.898438 15.996094 3.898438 16.066406 3.511719 15.539062 C 3.484375 15.507812 3.503906 15.460938 3.546875 15.453125 C 3.660156 15.4375 3.84375 15.414062 3.941406 15.402344 C 3.96875 15.398438 3.988281 15.371094 3.984375 15.34375 C 3.980469 15.242188 4.125 15.1875 4.226562 15.140625 C 4.257812 15.125 4.292969 15.144531 4.300781 15.175781 C 4.355469 15.414062 4.410156 15.359375 4.652344 15.324219 C 4.667969 15.324219 4.679688 15.328125 4.691406 15.335938 C 5.0625 15.609375 5.121094 15.671875 5.132812 16.089844 C 5.132812 16.128906 5.171875 16.152344 5.207031 16.140625 C 5.253906 16.121094 5.316406 16.097656 5.367188 16.078125 C 5.40625 16.058594 5.449219 16.097656 5.441406 16.140625 L 5.367188 16.460938 C 5.355469 16.5 5.390625 16.535156 5.429688 16.527344 C 5.820312 16.441406 5.988281 16.1875 6.210938 15.882812 C 6.21875 15.871094 6.222656 15.859375 6.21875 15.847656 C 6.210938 15.761719 6.179688 15.453125 6.164062 15.273438 C 6.15625 15.226562 6.210938 15.199219 6.25 15.226562 L 6.371094 15.316406 C 6.386719 15.328125 6.40625 15.332031 6.421875 15.324219 C 7.082031 15.082031 6.839844 15.597656 7.425781 15.335938 C 7.445312 15.328125 7.464844 15.328125 7.480469 15.339844 C 7.597656 15.425781 7.617188 15.449219 7.550781 15.5 C 7.515625 15.527344 7.523438 15.585938 7.566406 15.597656 C 7.597656 15.605469 7.625 15.613281 7.644531 15.617188 C 7.660156 15.621094 7.671875 15.632812 7.679688 15.644531 L 7.800781 15.894531 C 7.808594 15.914062 7.828125 15.925781 7.847656 15.925781 C 8.03125 15.917969 8.519531 15.761719 8.625 15.917969 C 8.644531 15.949219 8.683594 15.953125 8.710938 15.929688 C 8.828125 15.804688 8.894531 15.714844 9.042969 15.722656 C 9.089844 15.722656 9.117188 15.671875 9.089844 15.636719 C 8.945312 15.429688 9.332031 15.425781 9.566406 15.421875 C 9.597656 15.421875 9.621094 15.394531 9.617188 15.363281 C 9.585938 14.957031 11.089844 15.078125 11.429688 15.023438 C 11.460938 15.015625 11.476562 14.988281 11.472656 14.957031 C 11.460938 14.894531 11.441406 14.78125 11.429688 14.734375 C 11.425781 14.714844 11.429688 14.699219 11.441406 14.6875 L 11.589844 14.523438 C 11.621094 14.488281 11.683594 14.511719 11.683594 14.5625 L 11.683594 14.644531 C 11.683594 14.675781 11.710938 14.703125 11.746094 14.695312 L 12.226562 14.625 C 12.253906 14.621094 12.277344 14.636719 12.285156 14.660156 C 12.5 15.222656 12.621094 14.636719 13.261719 14.699219 C 13.292969 14.703125 13.316406 14.730469 13.3125 14.757812 C 13.257812 15.390625 13.414062 15.332031 13.894531 15.605469 C 13.921875 15.621094 13.957031 15.609375 13.972656 15.582031 C 14.03125 15.4375 14.1875 15.078125 14.203125 15.039062 C 14.203125 15.035156 14.207031 15.035156 14.207031 15.03125 C 14.257812 14.847656 14.203125 14.695312 14.09375 14.554688 C 14.082031 14.542969 14.066406 14.535156 14.050781 14.535156 C 13.992188 14.535156 13.855469 14.535156 13.761719 14.535156 C 13.722656 14.535156 13.695312 14.492188 13.714844 14.457031 L 13.960938 13.945312 C 13.972656 13.929688 13.96875 13.90625 13.960938 13.890625 L 13.230469 12.714844 C 13.214844 12.691406 13.222656 12.65625 13.246094 12.640625 L 13.996094 12.132812 C 14 12.128906 14.007812 12.125 14.015625 12.125 C 14.875 11.980469 15.335938 11.425781 15.507812 10.613281 C 15.515625 10.574219 15.558594 10.558594 15.589844 10.578125 C 16.511719 11.171875 16.195312 10.589844 16.503906 9.738281 C 16.515625 9.707031 16.554688 9.691406 16.582031 9.710938 C 17.785156 10.445312 16.601562 9.980469 17.226562 10.519531 C 17.238281 10.53125 17.25 10.535156 17.265625 10.535156 C 18.1875 10.492188 17.824219 11.046875 18.394531 10.296875 C 18.410156 10.277344 18.433594 10.269531 18.457031 10.28125 C 18.574219 10.332031 18.921875 10.484375 19.054688 10.542969 C 19.082031 10.554688 19.117188 10.539062 19.128906 10.511719 L 19.445312 9.710938 C 19.453125 9.691406 19.472656 9.675781 19.496094 9.675781 L 19.914062 9.699219 C 19.941406 9.703125 19.96875 9.679688 19.96875 9.648438 L 20.023438 8.652344 C 20.023438 8.621094 20.046875 8.601562 20.074219 8.601562 L 20.457031 8.601562 C 20.484375 8.601562 20.511719 8.625 20.511719 8.65625 L 20.511719 8.804688 C 20.511719 8.847656 20.558594 8.871094 20.59375 8.847656 C 21.125 8.507812 21.277344 8.875 21.792969 9.113281 C 21.800781 9.113281 21.804688 9.117188 21.808594 9.117188 C 22.230469 9.179688 22.9375 9.375 23.234375 9.730469 C 23.246094 9.742188 23.257812 9.746094 23.269531 9.75 C 23.394531 9.761719 24.015625 9.828125 24.152344 9.84375 C 24.171875 9.847656 24.1875 9.839844 24.199219 9.828125 L 24.449219 9.550781 C 24.460938 9.539062 24.476562 9.53125 24.492188 9.53125 C 25.675781 9.59375 24.550781 9.945312 25.757812 9.90625 C 25.777344 9.90625 25.792969 9.914062 25.804688 9.929688 C 25.949219 10.144531 25.984375 10.558594 25.960938 10.804688 C 25.957031 10.8125 25.953125 10.820312 25.949219 10.828125 C 25.25 11.804688 26.257812 12.0625 26.371094 12.925781 C 26.375 12.9375 26.378906 12.945312 26.382812 12.957031 C 26.417969 12.996094 26.535156 13.132812 26.589844 13.199219 C 26.605469 13.214844 26.605469 13.242188 26.59375 13.265625 L 26.175781 13.851562 C 26.164062 13.867188 26.164062 13.886719 26.171875 13.902344 C 26.449219 14.566406 26.605469 14.527344 25.839844 14.679688 C 25.808594 14.683594 25.773438 14.65625 25.777344 14.625 C 25.78125 14.359375 25.589844 14.621094 25.445312 14.691406 C 25.429688 14.703125 25.40625 14.699219 25.390625 14.6875 C 24.835938 14.238281 24.910156 14.257812 24.449219 14.699219 C 24.417969 14.726562 24.433594 14.78125 24.472656 14.789062 C 24.789062 14.878906 25.125 14.90625 25.289062 15.3125 C 25.296875 15.328125 25.292969 15.34375 25.289062 15.359375 C 25.25 15.4375 25.113281 15.710938 25.078125 15.777344 C 25.074219 15.789062 25.0625 15.796875 25.050781 15.804688 C 24.496094 16.074219 24.320312 15.601562 24.578125 16.332031 C 24.582031 16.335938 24.582031 16.34375 24.582031 16.347656 C 24.597656 16.5 24.511719 16.648438 24.402344 16.75 C 24.390625 16.761719 24.382812 16.78125 24.382812 16.796875 C 24.414062 17.070312 24.4375 17.097656 24.648438 17.117188 C 24.695312 17.121094 24.714844 17.179688 24.679688 17.210938 C 24.574219 17.308594 24.542969 17.347656 24.632812 17.464844 C 24.65625 17.5 24.632812 17.546875 24.589844 17.550781 C 24.589844 17.550781 24.589844 17.550781 24.585938 17.550781 C 24.539062 17.554688 24.519531 17.609375 24.550781 17.644531 L 24.578125 17.671875 C 24.613281 17.703125 24.589844 17.761719 24.542969 17.761719 C 23.578125 17.800781 24.203125 17.757812 23.484375 18.328125 C 23.480469 18.332031 23.476562 18.332031 23.46875 18.335938 C 23.425781 18.351562 23.222656 18.425781 23.132812 18.460938 C 23.109375 18.46875 23.09375 18.492188 23.097656 18.519531 L 23.203125 19.167969 C 23.210938 19.210938 23.164062 19.246094 23.121094 19.222656 L 22.71875 19 C 22.710938 18.996094 22.699219 18.992188 22.6875 18.992188 C 22.351562 19.03125 21.898438 19.140625 21.6875 19.425781 C 21.667969 19.453125 21.628906 19.457031 21.605469 19.433594 C 21.378906 19.203125 20.453125 19.335938 20.230469 19.320312 C 20.226562 19.320312 20.222656 19.320312 20.21875 19.320312 C 19.9375 19.351562 19.097656 20.191406 18.800781 20.488281 C 18.773438 20.515625 18.726562 20.507812 18.710938 20.472656 C 18.566406 20.132812 17.871094 20.316406 17.59375 20.269531 C 17.589844 20.265625 17.585938 20.265625 17.582031 20.265625 C 16.851562 19.960938 15.8125 19.847656 15.042969 19.667969 C 15.039062 19.664062 15.035156 19.664062 15.03125 19.664062 " fill-opacity="1" fill-rule="nonzero"/></g></svg>