<svg xmlns="http://www.w3.org/2000/svg" xmlns:xlink="http://www.w3.org/1999/xlink" width="40" zoomAndPan="magnify" viewBox="0 0 30 30.000001" height="40" preserveAspectRatio="xMidYMid meet" version="1.0"><defs><clipPath id="7a54093094"><path d="M 3.386719 4.050781 L 26.613281 4.050781 L 26.613281 25 L 3.386719 25 Z M 3.386719 4.050781 " clip-rule="nonzero"/></clipPath></defs><g clip-path="url(#7a54093094)"><path fill="#014d4e" d="M 21.789062 24.964844 C 21.558594 24.964844 21.328125 24.835938 21.023438 24.503906 C 20.894531 24.375 20.792969 24.25 20.691406 24.121094 C 20.539062 23.890625 20.511719 23.609375 20.640625 23.355469 C 20.792969 23.050781 21.152344 22.894531 21.484375 22.972656 C 21.636719 23.023438 21.761719 23 21.789062 23 C 22.09375 22.84375 22.402344 22.921875 22.554688 23.152344 C 22.683594 23.355469 22.65625 23.609375 22.503906 23.917969 C 22.453125 23.992188 22.425781 24.121094 22.402344 24.222656 C 22.324219 24.554688 22.199219 24.964844 21.789062 24.964844 Z M 21.710938 22.15625 C 21.507812 22.15625 21.304688 22.105469 21.125 22.003906 C 20.820312 21.851562 20.460938 21.796875 20.003906 21.773438 C 18.699219 21.722656 18.242188 21.3125 18.140625 20.0625 C 18.140625 20.039062 18.089844 20.011719 17.960938 19.933594 C 17.808594 19.859375 17.5 19.707031 17.550781 19.324219 C 17.296875 19.117188 17.21875 18.863281 17.21875 18.582031 L 16.632812 19.09375 C 16.53125 19.167969 16.453125 19.167969 16.378906 19.167969 C 16.300781 19.144531 16.226562 19.09375 16.199219 19.015625 C 15.792969 18.019531 14.921875 17.636719 14.132812 17.382812 C 13.953125 17.332031 13.773438 17.382812 13.597656 17.433594 C 13.519531 17.460938 13.441406 17.484375 13.339844 17.511719 C 13.136719 17.5625 12.957031 17.585938 12.753906 17.613281 C 11.886719 17.765625 11.09375 17.917969 10.507812 18.609375 C 10.277344 18.890625 9.921875 19.042969 9.539062 19.042969 L 9.488281 19.042969 C 9.332031 19.042969 9.179688 19.042969 9.054688 19.042969 C 8.441406 19.042969 8.007812 19.144531 7.726562 19.730469 C 7.574219 20.011719 7.191406 20.011719 7.0625 20.011719 C 6.527344 20.011719 5.785156 19.808594 5.480469 19.578125 C 5.402344 19.527344 5.351562 19.398438 5.378906 19.296875 C 5.734375 17.816406 5.046875 16.746094 4.304688 15.621094 C 4.179688 15.445312 4.078125 15.265625 3.949219 15.085938 C 3.847656 14.933594 3.820312 14.730469 3.898438 14.550781 C 3.949219 14.449219 4 14.347656 4.101562 14.292969 C 4.078125 14.21875 4.023438 14.117188 3.949219 14.015625 C 3.847656 13.859375 3.746094 13.707031 3.695312 13.503906 C 3.386719 12.023438 3.949219 11.230469 5.683594 10.621094 C 5.835938 10.570312 5.964844 10.515625 6.117188 10.464844 C 6.910156 10.210938 7.648438 9.980469 8.109375 9.265625 L 8.160156 9.164062 C 8.261719 9.011719 8.3125 8.960938 8.261719 8.78125 C 8.183594 8.527344 8.441406 8.296875 9.257812 7.710938 C 9.4375 7.582031 9.613281 7.453125 9.691406 7.378906 C 9.820312 7.226562 10.660156 6.28125 11.9375 6.28125 C 12.167969 6.28125 12.371094 6.304688 12.601562 6.355469 C 12.625 6 12.753906 5.667969 12.984375 5.414062 C 13.289062 5.054688 13.75 4.851562 14.261719 4.824219 C 14.335938 4.824219 14.363281 4.800781 14.363281 4.800781 C 14.589844 4.570312 15 4.441406 15.382812 4.492188 C 15.613281 4.519531 15.816406 4.546875 16.019531 4.570312 C 16.300781 4.597656 16.609375 4.648438 16.914062 4.671875 C 17.144531 4.699219 17.324219 4.851562 17.398438 5.054688 C 17.476562 5.261719 17.449219 5.488281 17.296875 5.667969 C 17.21875 5.746094 17.167969 5.847656 17.09375 5.949219 C 16.914062 6.253906 16.992188 6.664062 17.273438 6.894531 L 17.5 7.070312 C 17.984375 7.453125 18.445312 7.835938 18.980469 8.09375 C 19.007812 8.117188 19.058594 8.117188 19.082031 8.144531 C 19.160156 8.195312 19.238281 8.21875 19.289062 8.21875 C 19.289062 8.21875 19.3125 8.21875 19.339844 8.195312 L 19.464844 8.066406 C 19.621094 7.761719 19.671875 7.402344 19.746094 7.019531 C 19.773438 6.945312 19.773438 6.84375 19.796875 6.765625 C 19.824219 6.5625 19.847656 6.355469 19.875 6.152344 C 19.953125 5.4375 20.054688 4.671875 20.640625 4.058594 C 20.742188 4.136719 20.820312 4.109375 20.894531 4.109375 C 20.972656 4.109375 21.023438 4.136719 21.074219 4.1875 L 21.226562 4.339844 C 21.253906 4.367188 21.277344 4.417969 21.304688 4.46875 C 21.355469 4.671875 21.433594 4.875 21.507812 5.082031 C 21.660156 5.4375 21.816406 5.820312 21.816406 6.28125 C 21.816406 6.28125 21.816406 6.28125 21.816406 6.304688 C 22.734375 6.613281 22.757812 7.351562 22.785156 7.941406 C 22.785156 8.246094 22.808594 8.527344 22.910156 8.730469 C 22.988281 8.882812 23.039062 9.0625 23.066406 9.191406 C 23.167969 9.546875 23.21875 9.699219 23.574219 9.75 C 23.882812 9.777344 24.265625 10.109375 24.339844 10.414062 C 24.546875 11.179688 24.828125 11.667969 25.3125 12.023438 C 25.464844 12.125 25.464844 12.277344 25.464844 12.40625 C 25.464844 12.457031 25.464844 12.558594 25.488281 12.585938 C 25.488281 12.585938 25.515625 12.609375 25.515625 12.609375 L 25.667969 12.761719 C 25.667969 12.761719 25.695312 12.789062 25.695312 12.816406 C 25.769531 12.941406 25.847656 13.042969 25.949219 13.171875 C 26.253906 13.582031 26.613281 14.015625 26.535156 14.625 L 26.511719 14.804688 C 26.382812 16.105469 26.230469 17.460938 25.335938 18.632812 C 24.773438 19.375 24.238281 20.164062 23.984375 21.109375 C 23.855469 21.59375 23.625 21.695312 23.449219 21.695312 C 23.398438 21.695312 23.371094 21.695312 23.320312 21.671875 C 22.964844 21.542969 22.734375 21.644531 22.351562 21.925781 C 22.199219 22.078125 21.96875 22.15625 21.710938 22.15625 Z M 21.710938 22.15625 " fill-opacity="1" fill-rule="nonzero"/><path fill="#014d4e" d="M 21.304688 23.125 C 21.074219 23.125 20.871094 23.253906 20.769531 23.457031 C 20.667969 23.660156 20.691406 23.890625 20.820312 24.09375 C 20.894531 24.222656 20.996094 24.324219 21.125 24.453125 C 21.40625 24.734375 21.609375 24.863281 21.789062 24.863281 C 22.070312 24.863281 22.171875 24.582031 22.273438 24.222656 C 22.300781 24.09375 22.351562 23.96875 22.402344 23.890625 C 22.527344 23.636719 22.554688 23.40625 22.453125 23.253906 C 22.351562 23.074219 22.09375 23.050781 21.867188 23.152344 C 21.816406 23.175781 21.710938 23.203125 21.457031 23.152344 C 21.40625 23.125 21.355469 23.125 21.304688 23.125 Z M 17.296875 18.328125 L 17.324219 18.582031 C 17.324219 18.785156 17.375 19.042969 17.601562 19.222656 L 17.65625 19.273438 L 17.65625 19.347656 C 17.601562 19.605469 17.78125 19.730469 17.984375 19.808594 C 18.113281 19.882812 18.214844 19.933594 18.242188 20.039062 C 18.34375 21.210938 18.75 21.59375 20.003906 21.644531 C 20.488281 21.671875 20.871094 21.695312 21.203125 21.875 C 21.585938 22.078125 22.042969 22.054688 22.375 21.796875 C 22.757812 21.519531 23.039062 21.390625 23.449219 21.519531 C 23.472656 21.519531 23.5 21.542969 23.523438 21.542969 C 23.753906 21.542969 23.882812 21.261719 23.933594 21.058594 C 24.1875 20.113281 24.75 19.296875 25.3125 18.558594 C 26.179688 17.410156 26.304688 16.082031 26.460938 14.78125 L 26.484375 14.601562 C 26.535156 14.039062 26.230469 13.632812 25.921875 13.222656 C 25.820312 13.09375 25.746094 12.992188 25.667969 12.867188 C 25.667969 12.867188 25.667969 12.839844 25.644531 12.839844 L 25.488281 12.6875 C 25.414062 12.636719 25.414062 12.535156 25.386719 12.40625 C 25.386719 12.277344 25.363281 12.175781 25.285156 12.125 C 24.773438 11.769531 24.46875 11.257812 24.265625 10.441406 C 24.214844 10.1875 23.855469 9.90625 23.601562 9.855469 C 23.167969 9.804688 23.089844 9.574219 22.988281 9.191406 C 22.964844 9.039062 22.910156 8.882812 22.835938 8.757812 C 22.707031 8.527344 22.707031 8.21875 22.707031 7.914062 C 22.683594 7.328125 22.683594 6.664062 21.839844 6.410156 L 21.761719 6.382812 L 21.738281 6.253906 C 21.738281 5.847656 21.585938 5.464844 21.457031 5.105469 C 21.378906 4.902344 21.277344 4.699219 21.226562 4.492188 C 21.226562 4.46875 21.203125 4.441406 21.203125 4.441406 L 20.972656 4.265625 C 20.945312 4.238281 20.921875 4.238281 20.894531 4.238281 C 20.84375 4.238281 20.820312 4.265625 20.792969 4.289062 C 20.230469 4.875 20.15625 5.589844 20.054688 6.304688 C 20.027344 6.535156 20.003906 6.738281 19.953125 6.917969 C 19.925781 6.996094 19.925781 7.070312 19.898438 7.148438 C 19.824219 7.53125 19.773438 7.886719 19.621094 8.21875 L 19.464844 8.375 C 19.414062 8.449219 19.363281 8.449219 19.339844 8.449219 C 19.261719 8.449219 19.160156 8.398438 19.058594 8.347656 C 19.03125 8.324219 18.980469 8.296875 18.957031 8.296875 C 18.394531 8.042969 17.933594 7.660156 17.449219 7.277344 L 17.21875 7.097656 C 16.890625 6.816406 16.785156 6.355469 17.015625 5.972656 C 17.066406 5.871094 17.144531 5.769531 17.21875 5.667969 C 17.324219 5.539062 17.375 5.363281 17.296875 5.183594 C 17.21875 5.003906 17.09375 4.902344 16.914062 4.875 C 16.582031 4.824219 16.300781 4.800781 16.019531 4.773438 C 15.816406 4.75 15.585938 4.722656 15.382812 4.699219 C 15.027344 4.648438 14.667969 4.75 14.464844 4.953125 L 14.4375 4.980469 C 14.414062 4.980469 14.363281 5.003906 14.285156 5.003906 C 13.800781 5.03125 13.367188 5.207031 13.085938 5.539062 C 12.882812 5.769531 12.753906 6.078125 12.726562 6.410156 L 12.726562 6.5625 L 12.574219 6.511719 C 12.371094 6.460938 12.167969 6.433594 11.960938 6.433594 C 10.738281 6.433594 9.921875 7.378906 9.820312 7.480469 C 9.714844 7.582031 9.539062 7.683594 9.359375 7.835938 C 8.566406 8.398438 8.363281 8.578125 8.414062 8.757812 C 8.464844 8.984375 8.414062 9.0625 8.3125 9.242188 L 8.261719 9.34375 C 7.777344 10.109375 7.011719 10.339844 6.195312 10.59375 C 6.042969 10.644531 5.886719 10.695312 5.761719 10.746094 C 4.101562 11.308594 3.566406 12.050781 3.847656 13.476562 C 3.871094 13.65625 3.972656 13.808594 4.078125 13.9375 C 4.152344 14.066406 4.203125 14.140625 4.253906 14.242188 L 4.28125 14.320312 L 4.203125 14.371094 C 4.128906 14.421875 4.078125 14.5 4.050781 14.574219 C 4 14.703125 4 14.855469 4.101562 14.984375 C 4.203125 15.164062 4.332031 15.316406 4.433594 15.496094 L 4.460938 15.519531 C 5.226562 16.667969 5.914062 17.765625 5.554688 19.296875 C 5.554688 19.347656 5.554688 19.398438 5.609375 19.425781 C 5.914062 19.628906 6.628906 19.832031 7.113281 19.832031 C 7.214844 19.832031 7.546875 19.832031 7.648438 19.628906 C 7.980469 19.015625 8.464844 18.890625 9.105469 18.890625 C 9.230469 18.890625 9.386719 18.890625 9.539062 18.890625 L 9.589844 18.890625 C 9.921875 18.890625 10.253906 18.734375 10.457031 18.480469 C 11.070312 17.742188 11.910156 17.585938 12.78125 17.433594 C 12.984375 17.410156 13.164062 17.359375 13.367188 17.332031 C 13.441406 17.304688 13.519531 17.28125 13.597656 17.253906 C 13.800781 17.203125 14.003906 17.152344 14.207031 17.203125 C 15.027344 17.460938 15.917969 17.867188 16.351562 18.914062 C 16.378906 18.941406 16.402344 18.992188 16.429688 18.992188 C 16.480469 18.992188 16.503906 18.992188 16.53125 18.964844 Z M 17.296875 18.328125 " fill-opacity="1" fill-rule="nonzero"/></g></svg>