<svg xmlns="http://www.w3.org/2000/svg" xmlns:xlink="http://www.w3.org/1999/xlink" width="40" zoomAndPan="magnify" viewBox="0 0 30 30.000001" height="40" preserveAspectRatio="xMidYMid meet" version="1.0"><defs><clipPath id="f8ecf5bef6"><path d="M 4.316406 2.902344 L 25.363281 2.902344 L 25.363281 26.128906 L 4.316406 26.128906 Z M 4.316406 2.902344 " clip-rule="nonzero"/></clipPath></defs><g clip-path="url(#f8ecf5bef6)"><path fill="#014d4e" d="M 25.613281 25.175781 C 25.554688 25.148438 25.28125 24.902344 25.253906 24.863281 C 25.222656 24.824219 25.171875 24.414062 25.171875 24.414062 L 25.132812 23.625 C 25.132812 23.625 25.027344 23.457031 25.007812 23.429688 C 24.988281 23.398438 24.851562 23.273438 24.851562 23.164062 C 24.851562 23.054688 24.871094 22.929688 24.871094 22.929688 C 24.871094 22.929688 24.960938 22.859375 24.941406 22.792969 C 24.921875 22.726562 24.785156 22.617188 24.785156 22.617188 C 24.785156 22.617188 24.671875 22.464844 24.640625 22.304688 C 24.609375 22.148438 24.609375 21.933594 24.609375 21.933594 L 24.367188 21.261719 L 24.222656 20.871094 C 24.222656 20.871094 24.210938 20.871094 24.210938 20.789062 C 24.210938 20.710938 24.210938 20.605469 24.210938 20.605469 C 24.210938 20.605469 24.152344 20.664062 24.074219 20.480469 C 24.074219 20.480469 24.003906 20.203125 23.984375 20.113281 C 23.972656 20.023438 23.878906 19.824219 23.824219 19.722656 C 23.769531 19.621094 23.730469 19.519531 23.730469 19.519531 C 23.730469 19.519531 23.640625 19.257812 23.671875 19.082031 C 23.703125 18.90625 23.496094 18.464844 23.3125 18.386719 C 23.125 18.308594 22.824219 18.296875 22.824219 18.296875 C 22.824219 18.296875 22.628906 18.277344 22.546875 18.25 C 22.46875 18.21875 22.242188 18.101562 22.097656 17.800781 C 21.953125 17.496094 21.8125 17.222656 21.8125 17.222656 L 21.792969 16.96875 C 21.792969 16.96875 21.648438 16.9375 21.570312 16.753906 C 21.488281 16.570312 21.433594 16.433594 21.375 16.402344 C 21.316406 16.375 21.003906 16.277344 21.003906 16.277344 L 20.886719 16.042969 L 20.695312 16.179688 L 20.539062 15.972656 L 20.019531 15.476562 L 19.8125 15.21875 L 19.773438 15.074219 L 19.667969 15.066406 L 19.578125 15.105469 L 19.425781 14.785156 L 18.984375 14.304688 C 18.984375 14.304688 18.933594 14.167969 18.953125 14.097656 C 18.972656 14.03125 19.003906 13.882812 19.003906 13.882812 C 19.003906 13.882812 19.023438 13.71875 18.878906 13.667969 C 18.734375 13.621094 18.5 13.648438 18.5 13.648438 C 18.5 13.648438 18.304688 13.21875 18.273438 13.191406 C 18.242188 13.160156 18.019531 13.101562 17.960938 13.035156 C 17.898438 12.964844 17.746094 12.683594 17.644531 12.644531 C 17.546875 12.605469 17.359375 12.585938 17.359375 12.585938 C 17.359375 12.585938 17.390625 12.265625 17.253906 12.207031 C 17.121094 12.144531 16.925781 12.144531 16.824219 12.15625 C 16.726562 12.164062 16.511719 12.253906 16.511719 12.253906 C 16.511719 12.253906 16.121094 12.253906 16.089844 12.246094 C 16.0625 12.234375 15.875 11.863281 15.875 11.863281 L 15.847656 11.589844 C 15.847656 11.589844 15.660156 11.511719 15.582031 11.511719 C 15.503906 11.511719 15.53125 11.246094 15.308594 11.207031 C 15.082031 11.167969 15.074219 11.167969 15.015625 11.15625 C 14.953125 11.148438 14.683594 10.960938 14.683594 10.960938 C 14.683594 10.960938 14.539062 10.796875 14.3125 10.882812 C 14.3125 10.882812 14.214844 10.511719 14.136719 10.484375 C 14.058594 10.453125 14.023438 10.316406 13.707031 10.335938 C 13.707031 10.335938 13.582031 10.164062 13.503906 10.132812 C 13.425781 10.101562 13.199219 10.140625 13.132812 10.132812 C 13.0625 10.121094 12.773438 9.90625 12.753906 9.867188 C 12.734375 9.828125 12.46875 9.429688 12.4375 9.261719 C 12.410156 9.097656 12.183594 8.894531 12 8.832031 C 11.8125 8.773438 11.488281 8.492188 11.394531 8.441406 C 11.292969 8.394531 11.042969 8.148438 10.992188 8.042969 C 10.945312 7.9375 10.894531 7.664062 10.730469 7.59375 C 10.5625 7.523438 10.496094 7.476562 10.425781 7.417969 C 10.355469 7.359375 10.21875 7.183594 10.105469 7.097656 C 9.988281 7.007812 9.917969 6.980469 9.839844 6.804688 C 9.761719 6.628906 9.734375 6.433594 9.546875 6.355469 C 9.359375 6.273438 9.273438 6.058594 9.230469 5.863281 C 9.191406 5.667969 9.105469 5.308594 8.976562 5.257812 C 8.851562 5.210938 8.46875 4.917969 8.371094 4.917969 C 8.273438 4.917969 7.902344 4.714844 7.902344 4.714844 C 7.902344 4.714844 7.832031 4.558594 7.660156 4.421875 C 7.484375 4.285156 7.394531 4.144531 7.394531 4.144531 L 7.128906 4.105469 C 7.128906 4.105469 7.050781 3.960938 6.945312 3.882812 C 6.839844 3.800781 6.582031 3.636719 6.582031 3.636719 L 6.457031 3.421875 C 6.457031 3.421875 6.332031 3.070312 6.304688 3.050781 C 6.273438 3.03125 6.109375 2.945312 6.066406 2.945312 C 6.027344 2.945312 5.902344 3.0625 5.902344 3.0625 L 5.765625 2.925781 L 5.699219 2.957031 L 5.585938 2.914062 C 5.585938 2.914062 5.265625 2.925781 5.164062 3.015625 C 5.066406 3.105469 4.882812 3.34375 4.882812 3.34375 C 4.882812 3.34375 5.027344 3.519531 5.046875 3.601562 C 5.066406 3.679688 5.097656 3.816406 5.171875 3.863281 C 5.25 3.914062 5.417969 3.988281 5.417969 3.988281 L 5.40625 4.359375 C 5.40625 4.359375 5.511719 4.441406 5.582031 4.507812 C 5.652344 4.574219 5.777344 4.800781 5.855469 5.050781 C 5.9375 5.304688 6.011719 5.519531 6.011719 5.519531 L 6.03125 6.054688 C 6.03125 6.054688 6.335938 6.445312 6.347656 6.546875 C 6.355469 6.644531 6.375 7.089844 6.375 7.089844 L 6.433594 7.324219 L 6.433594 7.695312 L 6.414062 7.890625 L 6.433594 8.25 L 6.496094 8.671875 L 6.359375 8.925781 L 6.164062 8.976562 C 6.164062 8.976562 5.9375 9.035156 5.910156 9.140625 C 5.878906 9.246094 5.820312 9.394531 5.820312 9.394531 C 5.820312 9.394531 5.761719 9.335938 5.65625 9.476562 C 5.550781 9.609375 5.378906 9.84375 5.390625 9.984375 C 5.402344 10.121094 5.390625 10.414062 5.371094 10.441406 C 5.351562 10.472656 5.214844 10.726562 5.214844 10.726562 C 5.214844 10.726562 4.992188 10.980469 4.992188 11.136719 C 4.992188 11.292969 4.746094 11.46875 4.746094 11.46875 L 4.621094 11.566406 L 4.609375 11.773438 C 4.609375 11.773438 4.453125 11.871094 4.414062 11.957031 C 4.375 12.046875 4.316406 12.113281 4.40625 12.183594 C 4.496094 12.25 4.621094 12.242188 4.621094 12.242188 L 4.710938 12.242188 C 4.710938 12.242188 4.835938 12.816406 5.148438 12.945312 C 5.464844 13.070312 5.414062 12.9375 5.46875 12.996094 C 5.53125 13.054688 5.664062 13.367188 5.675781 13.394531 C 5.683594 13.425781 5.78125 13.453125 5.78125 13.453125 C 5.78125 13.453125 5.945312 13.691406 5.976562 13.699219 C 6.003906 13.710938 6.238281 13.816406 6.296875 13.863281 C 6.355469 13.914062 6.519531 14.078125 6.519531 14.078125 L 6.726562 14.316406 L 6.910156 14.3125 C 6.910156 14.3125 6.953125 14.378906 6.992188 14.433594 C 7.023438 14.488281 7.285156 14.636719 7.328125 14.636719 C 7.371094 14.640625 7.429688 14.753906 7.429688 14.753906 C 7.429688 14.753906 7.566406 14.753906 7.636719 14.851562 C 7.703125 14.953125 7.898438 15.027344 7.929688 15.128906 C 7.960938 15.226562 8.035156 15.507812 8.035156 15.507812 C 8.035156 15.507812 8.125 15.859375 8.199219 15.949219 C 8.28125 16.035156 8.53125 16.183594 8.53125 16.183594 C 8.53125 16.183594 8.796875 16.261719 8.835938 16.273438 C 8.875 16.28125 9.109375 16.320312 9.109375 16.320312 L 9.363281 16.464844 C 9.363281 16.464844 9.550781 16.566406 9.558594 16.601562 C 9.570312 16.640625 9.832031 16.921875 9.875 16.941406 C 9.914062 16.960938 9.988281 16.972656 9.988281 16.972656 C 9.988281 16.972656 10 17.078125 10.019531 17.109375 C 10.039062 17.136719 10.285156 17.28125 10.285156 17.28125 L 10.285156 17.757812 C 10.285156 17.757812 10.429688 17.925781 10.566406 17.953125 C 10.703125 17.984375 10.886719 18.160156 10.917969 18.179688 C 10.949219 18.199219 11.398438 18.558594 11.398438 18.558594 L 11.574219 18.636719 L 11.652344 18.472656 L 11.75 18.550781 C 11.75 18.550781 11.875 18.417969 12.046875 18.472656 C 12.210938 18.53125 12.75 18.863281 12.75 18.863281 C 12.75 18.863281 12.964844 19.046875 12.992188 19.078125 C 13.023438 19.109375 13.082031 19.183594 13.128906 19.183594 C 13.179688 19.183594 13.324219 19.164062 13.375 19.234375 C 13.425781 19.304688 13.480469 19.410156 13.480469 19.410156 C 13.480469 19.410156 13.550781 19.691406 13.585938 19.722656 C 13.625 19.753906 13.710938 19.78125 13.710938 19.78125 L 13.722656 19.648438 C 13.722656 19.648438 13.875 19.441406 13.90625 19.441406 C 13.9375 19.441406 14.003906 19.519531 14.003906 19.597656 C 14.003906 19.671875 13.964844 19.890625 13.964844 19.890625 C 13.964844 19.890625 14.367188 20.117188 14.414062 20.175781 C 14.464844 20.234375 14.960938 20.722656 15.019531 20.769531 C 15.082031 20.820312 15.382812 20.984375 15.382812 20.984375 C 15.382812 20.984375 15.65625 21.289062 15.703125 21.316406 C 15.75 21.347656 15.886719 21.367188 15.886719 21.367188 C 15.886719 21.367188 16.003906 21.492188 16.042969 21.601562 C 16.082031 21.710938 16.226562 21.972656 16.277344 22 C 16.328125 22.03125 16.492188 22.050781 16.492188 22.050781 L 16.636719 22.128906 C 16.636719 22.128906 16.753906 22.34375 16.902344 22.414062 C 17.046875 22.484375 17.253906 22.617188 17.410156 22.640625 C 17.566406 22.660156 17.957031 22.792969 17.957031 22.792969 L 18.4375 22.96875 L 18.671875 23.070312 C 18.671875 23.070312 18.738281 23.109375 18.855469 23.078125 C 18.972656 23.046875 19.226562 23.019531 19.296875 23.046875 C 19.363281 23.078125 19.765625 23.242188 19.765625 23.34375 C 19.765625 23.441406 19.785156 23.605469 19.734375 23.628906 C 19.683594 23.648438 19.402344 23.695312 19.355469 23.675781 C 19.304688 23.65625 18.855469 23.421875 18.855469 23.421875 L 18.394531 23.128906 L 18.054688 23.011719 L 17.726562 23.011719 L 17.695312 23.128906 C 17.695312 23.128906 17.8125 23.21875 17.839844 23.226562 C 17.871094 23.238281 17.890625 23.257812 17.976562 23.246094 C 18.066406 23.238281 18.609375 23.421875 18.609375 23.421875 L 18.777344 23.511719 L 18.890625 23.542969 L 18.929688 23.621094 L 19.105469 23.671875 C 19.105469 23.671875 19.597656 23.933594 19.683594 23.984375 C 19.769531 24.035156 20.191406 24.082031 20.257812 24.082031 C 20.324219 24.082031 20.550781 24.082031 20.667969 24.042969 C 20.78125 24.003906 20.941406 23.839844 20.980469 23.828125 C 21.019531 23.820312 21.136719 24.09375 21.214844 24.144531 C 21.296875 24.191406 21.546875 24.4375 21.800781 24.542969 C 22.054688 24.648438 22.386719 24.769531 22.386719 24.769531 L 22.582031 24.855469 L 22.6875 24.945312 C 22.6875 24.945312 22.8125 24.90625 22.890625 24.9375 C 22.972656 24.964844 23.105469 25.027344 23.125 25.113281 C 23.144531 25.199219 23.3125 25.132812 23.339844 25.171875 C 23.371094 25.210938 23.597656 25.476562 23.597656 25.511719 C 23.597656 25.546875 23.597656 25.734375 23.597656 25.734375 L 23.527344 25.804688 L 23.546875 25.972656 C 23.546875 25.972656 23.664062 26.058594 23.742188 26.03125 C 23.820312 26 24.09375 25.929688 24.09375 25.929688 C 24.09375 25.929688 24.09375 26.046875 24.238281 26.078125 C 24.382812 26.105469 24.492188 26.117188 24.597656 26.078125 C 24.703125 26.039062 25.027344 25.921875 25.027344 25.921875 L 25.292969 25.816406 C 25.292969 25.816406 25.382812 25.875 25.476562 25.863281 C 25.578125 25.855469 25.671875 25.730469 25.671875 25.730469 L 25.671875 25.464844 C 25.683594 25.441406 25.671875 25.207031 25.613281 25.175781 Z M 25.613281 25.175781 " fill-opacity="1" fill-rule="nonzero"/></g><path fill="#014d4e" d="M 17.308594 22.730469 C 17.273438 22.683594 17.101562 22.648438 17.101562 22.648438 L 17.042969 22.640625 L 16.839844 22.613281 L 16.808594 22.597656 C 16.808594 22.597656 16.695312 22.671875 16.757812 22.703125 C 16.816406 22.730469 16.863281 22.746094 16.863281 22.746094 L 17.042969 22.746094 L 17.148438 22.785156 L 17.25 22.890625 L 17.414062 22.917969 L 17.421875 22.820312 C 17.421875 22.820312 17.34375 22.773438 17.308594 22.730469 Z M 17.308594 22.730469 " fill-opacity="1" fill-rule="nonzero"/><path fill="#014d4e" d="M 16.339844 22.171875 L 16.292969 22.171875 L 16.257812 22.253906 L 16.316406 22.269531 L 16.363281 22.316406 L 16.398438 22.332031 L 16.460938 22.320312 L 16.484375 22.226562 L 16.421875 22.191406 Z M 16.339844 22.171875 " fill-opacity="1" fill-rule="nonzero"/><path fill="#014d4e" d="M 13.867188 20.144531 L 13.726562 20.140625 L 13.6875 20.1875 L 13.636719 20.191406 L 13.640625 19.988281 C 13.640625 19.988281 13.558594 19.980469 13.535156 19.992188 C 13.511719 20.011719 13.476562 20.054688 13.476562 20.054688 L 13.378906 20.046875 L 13.332031 20.03125 C 13.332031 20.03125 13.050781 19.855469 13.015625 19.78125 C 12.976562 19.707031 12.648438 19.394531 12.613281 19.367188 C 12.578125 19.335938 12.296875 19.230469 12.296875 19.230469 L 12.089844 19.152344 L 11.957031 19.160156 L 11.796875 19.0625 L 11.503906 18.933594 L 11.449219 18.910156 L 11.292969 18.722656 L 11.125 18.699219 L 10.992188 18.546875 L 10.886719 18.507812 L 10.71875 18.507812 L 10.820312 18.675781 L 11 18.734375 L 11.105469 18.769531 L 11.3125 19 L 11.53125 19.015625 L 11.613281 19.074219 L 11.671875 19.132812 L 11.761719 19.140625 L 11.832031 19.199219 L 12.140625 19.335938 L 12.292969 19.367188 L 12.382812 19.367188 C 12.382812 19.367188 12.464844 19.402344 12.59375 19.53125 C 12.722656 19.660156 12.769531 19.824219 12.769531 19.824219 L 12.828125 19.9375 L 12.917969 19.90625 L 13.039062 20.019531 L 13.121094 20.078125 L 13.191406 20.101562 L 13.304688 20.140625 C 13.304688 20.140625 13.394531 20.1875 13.417969 20.1875 C 13.441406 20.1875 13.515625 20.238281 13.515625 20.238281 L 13.5625 20.269531 L 13.660156 20.292969 L 13.707031 20.253906 L 13.746094 20.300781 L 13.855469 20.332031 L 13.902344 20.355469 L 13.933594 20.382812 L 14.003906 20.390625 L 14.039062 20.375 L 14.0625 20.335938 L 14.0625 20.226562 L 13.851562 20.25 Z M 13.867188 20.144531 " fill-opacity="1" fill-rule="nonzero"/><path fill="#014d4e" d="M 6.238281 14.1875 L 6.152344 14.1875 L 6.152344 14.25 L 6.234375 14.28125 L 6.238281 14.3125 L 6.238281 14.371094 L 6.285156 14.40625 L 6.355469 14.417969 L 6.355469 14.25 L 6.292969 14.1875 Z M 6.238281 14.1875 " fill-opacity="1" fill-rule="nonzero"/><path fill="#014d4e" d="M 6.777344 14.679688 L 6.65625 14.6875 L 6.660156 14.746094 L 6.679688 14.753906 L 6.691406 14.804688 L 6.730469 14.808594 L 6.796875 14.832031 L 6.804688 14.804688 L 6.824219 14.765625 L 6.824219 14.71875 L 6.789062 14.699219 Z M 6.777344 14.679688 " fill-opacity="1" fill-rule="nonzero"/><path fill="#014d4e" d="M 7.074219 14.960938 L 7.03125 14.917969 L 7.003906 14.894531 L 6.949219 14.878906 L 6.925781 14.863281 L 6.914062 14.917969 L 6.910156 14.96875 L 6.945312 14.988281 L 6.957031 15.027344 L 6.992188 15.050781 L 7 15.082031 L 7.035156 15.101562 L 7.042969 15.128906 L 7.078125 15.125 L 7.117188 15.105469 L 7.140625 15.082031 L 7.152344 15.023438 L 7.140625 14.980469 Z M 7.074219 14.960938 " fill-opacity="1" fill-rule="nonzero"/><path fill="#014d4e" d="M 8.066406 16.085938 L 8.023438 16.015625 L 7.984375 15.964844 L 7.917969 15.921875 L 7.878906 15.894531 L 7.859375 15.820312 L 7.863281 15.789062 L 7.832031 15.742188 L 7.832031 15.714844 L 7.875 15.664062 L 7.832031 15.585938 L 7.695312 15.480469 L 7.691406 15.527344 L 7.691406 15.582031 L 7.695312 15.625 L 7.660156 15.675781 L 7.660156 15.734375 L 7.703125 15.765625 L 7.722656 15.792969 L 7.71875 15.957031 L 7.757812 15.976562 L 7.78125 16.003906 L 7.847656 16.050781 C 7.847656 16.050781 7.867188 16.058594 7.878906 16.074219 C 7.894531 16.085938 7.917969 16.101562 7.917969 16.101562 L 7.945312 16.164062 L 7.953125 16.199219 L 7.984375 16.226562 L 8.003906 16.246094 L 8.046875 16.273438 L 8.066406 16.285156 L 8.097656 16.242188 L 8.125 16.179688 L 8.101562 16.144531 Z M 8.066406 16.085938 " fill-opacity="1" fill-rule="nonzero"/><path fill="#014d4e" d="M 10.359375 18.164062 L 10.3125 18.121094 L 10.269531 18.109375 L 10.121094 18.078125 L 10.070312 18.035156 L 9.765625 17.765625 L 9.605469 17.605469 L 9.5625 17.585938 L 9.441406 17.566406 L 9.425781 17.496094 L 9.398438 17.410156 L 9.375 17.332031 L 9.277344 17.238281 L 9.207031 17.207031 L 9.148438 17.175781 L 9.070312 17.132812 L 8.878906 16.949219 L 8.746094 16.742188 L 8.664062 16.632812 L 8.570312 16.609375 L 8.5 16.550781 L 8.433594 16.460938 L 8.40625 16.382812 L 8.394531 16.347656 L 8.253906 16.34375 L 8.234375 16.378906 C 8.234375 16.378906 8.234375 16.488281 8.238281 16.503906 C 8.246094 16.515625 8.28125 16.570312 8.28125 16.570312 L 8.308594 16.589844 L 8.367188 16.625 L 8.433594 16.636719 L 8.445312 16.679688 L 8.464844 16.703125 L 8.492188 16.765625 L 8.523438 16.792969 L 8.605469 16.859375 L 8.753906 17.03125 L 8.835938 17.089844 L 8.886719 17.132812 L 8.921875 17.167969 L 8.929688 17.222656 L 8.953125 17.230469 L 9 17.257812 L 9.058594 17.257812 L 9.085938 17.265625 L 9.121094 17.269531 L 9.144531 17.296875 L 9.214844 17.320312 L 9.25 17.53125 L 9.292969 17.585938 L 9.589844 17.808594 L 9.640625 17.820312 L 9.71875 17.859375 C 9.71875 17.859375 9.746094 17.886719 9.746094 17.898438 C 9.746094 17.90625 9.757812 17.945312 9.757812 17.945312 L 9.777344 18 C 9.777344 18 9.855469 18.011719 9.859375 18.023438 C 9.863281 18.035156 9.90625 18.070312 9.90625 18.070312 L 9.964844 18.09375 L 10.027344 18.121094 L 10.074219 18.164062 L 10.109375 18.183594 L 10.121094 18.210938 L 10.175781 18.257812 L 10.1875 18.261719 L 10.226562 18.304688 L 10.265625 18.308594 L 10.269531 18.328125 L 10.378906 18.332031 L 10.410156 18.277344 L 10.402344 18.230469 Z M 10.359375 18.164062 " fill-opacity="1" fill-rule="nonzero"/></svg>