<svg xmlns="http://www.w3.org/2000/svg" xmlns:xlink="http://www.w3.org/1999/xlink" width="40" zoomAndPan="magnify" viewBox="0 0 30 30.000001" height="40" preserveAspectRatio="xMidYMid meet" version="1.0"><defs><clipPath id="78b94a3f31"><path d="M 4 5.210938 L 26.613281 5.210938 L 26.613281 24 L 4 24 Z M 4 5.210938 " clip-rule="nonzero"/></clipPath><clipPath id="bd7cdf5da7"><path d="M 3.386719 17 L 10 17 L 10 23 L 3.386719 23 Z M 3.386719 17 " clip-rule="nonzero"/></clipPath></defs><g clip-path="url(#78b94a3f31)"><path fill="#014d4e" d="M 26.128906 12.121094 C 26.066406 12.039062 26.0625 11.941406 26.046875 11.847656 C 26.035156 11.796875 26.082031 11.730469 26.132812 11.714844 C 26.191406 11.699219 26.257812 11.726562 26.277344 11.785156 C 26.324219 11.898438 26.367188 12.011719 26.402344 12.128906 C 26.421875 12.183594 26.390625 12.226562 26.34375 12.253906 C 26.359375 12.335938 26.347656 12.351562 26.261719 12.367188 C 26.3125 12.398438 26.355469 12.4375 26.402344 12.457031 C 26.472656 12.480469 26.484375 12.535156 26.488281 12.589844 C 26.492188 12.660156 26.476562 12.730469 26.480469 12.796875 C 26.484375 12.855469 26.503906 12.917969 26.523438 12.972656 C 26.542969 13.03125 26.574219 13.078125 26.597656 13.132812 C 26.605469 13.15625 26.601562 13.191406 26.589844 13.203125 C 26.574219 13.21875 26.539062 13.222656 26.519531 13.214844 C 26.417969 13.175781 26.332031 13.117188 26.324219 12.996094 C 26.316406 12.898438 26.265625 12.84375 26.175781 12.816406 C 26.113281 12.796875 26.046875 12.773438 25.980469 12.769531 C 25.921875 12.765625 25.863281 12.792969 25.832031 12.847656 C 25.816406 12.875 25.800781 12.902344 25.769531 12.890625 C 25.738281 12.878906 25.726562 12.851562 25.730469 12.816406 C 25.734375 12.792969 25.730469 12.769531 25.730469 12.742188 C 25.6875 12.734375 25.640625 12.71875 25.597656 12.71875 C 25.527344 12.714844 25.453125 12.6875 25.382812 12.710938 C 25.347656 12.722656 25.308594 12.734375 25.277344 12.753906 C 25.203125 12.792969 25.132812 12.84375 25.054688 12.878906 C 24.96875 12.917969 24.90625 12.902344 24.882812 12.820312 C 24.855469 12.71875 24.796875 12.691406 24.703125 12.691406 C 24.609375 12.695312 24.511719 12.683594 24.417969 12.683594 C 24.34375 12.683594 24.324219 12.699219 24.328125 12.773438 C 24.332031 12.859375 24.324219 12.941406 24.285156 13.019531 C 24.273438 13.046875 24.253906 13.082031 24.230469 13.089844 C 24.128906 13.125 24.046875 13.199219 23.949219 13.242188 C 23.832031 13.300781 23.707031 13.347656 23.582031 13.394531 C 23.539062 13.414062 23.511719 13.433594 23.480469 13.472656 C 23.433594 13.539062 23.367188 13.597656 23.304688 13.652344 C 23.238281 13.707031 23.171875 13.757812 23.105469 13.8125 C 23.054688 13.859375 23.003906 13.902344 22.953125 13.949219 C 22.894531 14.007812 22.894531 14.039062 22.925781 14.109375 C 22.9375 14.144531 22.949219 14.179688 22.949219 14.214844 C 22.949219 14.269531 22.914062 14.296875 22.859375 14.300781 C 22.78125 14.304688 22.714844 14.339844 22.65625 14.382812 C 22.632812 14.402344 22.625 14.425781 22.636719 14.464844 C 22.679688 14.601562 22.75 14.710938 22.882812 14.777344 C 22.917969 14.796875 22.960938 14.824219 22.949219 14.886719 C 22.890625 14.882812 22.863281 14.917969 22.839844 14.964844 C 22.8125 15.023438 22.78125 15.082031 22.753906 15.140625 C 22.746094 15.164062 22.742188 15.191406 22.734375 15.21875 C 22.789062 15.242188 22.84375 15.265625 22.894531 15.289062 C 22.964844 15.324219 22.964844 15.355469 22.914062 15.410156 C 22.863281 15.464844 22.8125 15.523438 22.765625 15.585938 C 22.710938 15.652344 22.703125 15.742188 22.714844 15.820312 C 22.742188 15.988281 22.78125 16.152344 22.785156 16.320312 C 22.785156 16.355469 22.804688 16.386719 22.816406 16.421875 C 22.828125 16.445312 22.839844 16.472656 22.851562 16.496094 C 22.828125 16.53125 22.800781 16.542969 22.761719 16.523438 C 22.726562 16.507812 22.703125 16.523438 22.683594 16.550781 C 22.605469 16.679688 22.523438 16.804688 22.511719 16.964844 C 22.507812 17.046875 22.484375 17.128906 22.46875 17.214844 C 22.453125 17.316406 22.441406 17.421875 22.414062 17.523438 C 22.382812 17.636719 22.425781 17.703125 22.515625 17.753906 C 22.539062 17.765625 22.554688 17.785156 22.578125 17.796875 C 22.636719 17.828125 22.691406 17.871094 22.71875 17.933594 C 22.753906 18.023438 22.835938 18.046875 22.914062 18.078125 C 23.035156 18.125 23.042969 18.128906 23.003906 18.25 C 22.996094 18.28125 23 18.304688 23.019531 18.332031 C 23.074219 18.410156 23.074219 18.503906 23.089844 18.59375 C 23.09375 18.605469 23.078125 18.636719 23.066406 18.636719 C 23.042969 18.636719 23.011719 18.636719 22.988281 18.625 C 22.960938 18.609375 22.941406 18.582031 22.921875 18.554688 C 22.90625 18.535156 22.894531 18.515625 22.871094 18.5 C 22.878906 18.539062 22.890625 18.574219 22.894531 18.613281 C 22.902344 18.683594 22.894531 18.703125 22.847656 18.71875 C 22.804688 18.734375 22.757812 18.714844 22.726562 18.667969 C 22.679688 18.609375 22.636719 18.550781 22.589844 18.496094 C 22.535156 18.4375 22.386719 18.4375 22.339844 18.5 C 22.3125 18.542969 22.296875 18.601562 22.292969 18.652344 C 22.277344 18.839844 22.269531 19.027344 22.261719 19.210938 C 22.253906 19.414062 22.253906 19.613281 22.246094 19.8125 C 22.242188 19.871094 22.222656 19.925781 22.207031 19.980469 C 22.199219 20.019531 22.171875 20.039062 22.128906 20.03125 C 22.09375 20.023438 22.078125 20.003906 22.078125 19.96875 C 22.078125 19.917969 22.070312 19.867188 22.074219 19.816406 C 22.078125 19.785156 22.082031 19.753906 22.050781 19.730469 C 22.019531 19.703125 21.992188 19.671875 21.953125 19.636719 C 21.933594 19.699219 21.914062 19.75 21.898438 19.800781 C 21.875 19.867188 21.824219 19.890625 21.769531 19.914062 C 21.726562 19.929688 21.699219 19.910156 21.6875 19.875 C 21.664062 19.8125 21.664062 19.753906 21.691406 19.683594 C 21.636719 19.667969 21.585938 19.652344 21.535156 19.636719 C 21.453125 19.609375 21.453125 19.605469 21.457031 19.53125 C 21.464844 19.457031 21.457031 19.378906 21.453125 19.300781 C 21.34375 19.378906 21.242188 19.445312 21.140625 19.519531 C 21.125 19.53125 21.109375 19.554688 21.109375 19.574219 C 21.113281 19.675781 21.121094 19.78125 21.121094 19.882812 C 21.121094 19.90625 21.105469 19.929688 21.097656 19.953125 C 21.082031 20.007812 21.0625 20.0625 21.046875 20.117188 C 21.113281 20.144531 21.144531 20.179688 21.132812 20.238281 C 21.121094 20.300781 21.121094 20.355469 21.132812 20.421875 C 21.148438 20.5 21.128906 20.589844 21.121094 20.671875 C 21.117188 20.734375 21.101562 20.792969 21.097656 20.855469 C 21.089844 20.949219 21.085938 21.046875 21.082031 21.140625 C 21.082031 21.1875 21.074219 21.226562 21.023438 21.246094 C 20.996094 21.257812 20.902344 21.238281 20.882812 21.214844 C 20.875 21.203125 20.871094 21.179688 20.875 21.164062 C 20.878906 21.140625 20.890625 21.117188 20.902344 21.09375 C 20.875 21.082031 20.855469 21.070312 20.820312 21.058594 C 20.832031 21.035156 20.847656 21.015625 20.851562 20.992188 C 20.867188 20.945312 20.878906 20.898438 20.882812 20.851562 C 20.890625 20.789062 20.90625 20.730469 20.929688 20.667969 C 20.945312 20.617188 20.941406 20.554688 20.945312 20.5 C 20.933594 20.496094 20.929688 20.492188 20.925781 20.492188 C 20.890625 20.527344 20.808594 20.488281 20.800781 20.566406 C 20.792969 20.617188 20.789062 20.667969 20.785156 20.71875 C 20.78125 20.859375 20.777344 21.003906 20.773438 21.144531 C 20.769531 21.1875 20.785156 21.21875 20.816406 21.246094 C 20.839844 21.265625 20.855469 21.292969 20.871094 21.316406 C 20.945312 21.464844 20.988281 21.621094 20.980469 21.789062 C 20.976562 21.882812 21.011719 21.96875 21.027344 22.058594 C 21.042969 22.144531 21.054688 22.234375 21.066406 22.324219 C 21.078125 22.394531 21.089844 22.46875 21.101562 22.539062 C 21.121094 22.667969 21.144531 22.792969 21.164062 22.917969 C 21.175781 22.972656 21.183594 23.03125 21.191406 23.089844 C 21.207031 23.164062 21.179688 23.246094 21.09375 23.296875 C 21.011719 23.347656 20.929688 23.394531 20.847656 23.445312 C 20.792969 23.476562 20.742188 23.519531 20.726562 23.582031 C 20.695312 23.6875 20.613281 23.726562 20.515625 23.753906 C 20.445312 23.769531 20.371094 23.796875 20.296875 23.804688 C 20.265625 23.808594 20.21875 23.785156 20.1875 23.761719 C 20.109375 23.703125 20.035156 23.636719 19.964844 23.566406 C 19.933594 23.539062 19.90625 23.503906 19.886719 23.464844 C 19.851562 23.394531 19.804688 23.335938 19.738281 23.289062 C 19.675781 23.238281 19.625 23.175781 19.566406 23.117188 C 19.539062 23.089844 19.515625 23.066406 19.488281 23.039062 C 19.433594 22.980469 19.375 22.921875 19.320312 22.863281 C 19.308594 22.847656 19.296875 22.832031 19.285156 22.820312 C 19.253906 22.789062 19.222656 22.777344 19.179688 22.804688 C 19.125 22.84375 19.066406 22.875 19.007812 22.910156 C 18.953125 22.945312 18.921875 22.945312 18.871094 22.910156 C 18.792969 22.859375 18.714844 22.8125 18.636719 22.761719 C 18.621094 22.75 18.597656 22.738281 18.582031 22.722656 C 18.554688 22.691406 18.554688 22.660156 18.585938 22.632812 C 18.609375 22.609375 18.640625 22.589844 18.671875 22.578125 C 18.714844 22.558594 18.714844 22.535156 18.691406 22.503906 C 18.65625 22.460938 18.625 22.417969 18.589844 22.378906 C 18.550781 22.335938 18.503906 22.296875 18.464844 22.253906 C 18.402344 22.183594 18.320312 22.15625 18.230469 22.136719 C 18.214844 22.136719 18.195312 22.144531 18.175781 22.148438 C 18.109375 22.171875 18.050781 22.160156 17.992188 22.117188 C 17.882812 22.042969 17.777344 21.972656 17.664062 21.90625 C 17.554688 21.835938 17.4375 21.769531 17.324219 21.707031 C 17.289062 21.6875 17.265625 21.664062 17.246094 21.628906 C 17.222656 21.578125 17.183594 21.53125 17.160156 21.480469 C 17.148438 21.460938 17.148438 21.425781 17.160156 21.40625 C 17.1875 21.359375 17.226562 21.316406 17.257812 21.273438 C 17.300781 21.214844 17.347656 21.207031 17.386719 21.292969 C 17.390625 21.300781 17.390625 21.308594 17.394531 21.324219 C 17.421875 21.324219 17.445312 21.324219 17.472656 21.324219 C 17.515625 21.324219 17.546875 21.304688 17.566406 21.265625 C 17.578125 21.246094 17.59375 21.222656 17.601562 21.199219 C 17.625 21.125 17.671875 21.078125 17.753906 21.058594 C 17.941406 21.011719 18.097656 20.898438 18.257812 20.792969 C 18.273438 20.785156 18.289062 20.769531 18.304688 20.765625 C 18.40625 20.730469 18.457031 20.648438 18.511719 20.570312 C 18.550781 20.515625 18.585938 20.460938 18.628906 20.398438 C 18.613281 20.378906 18.597656 20.359375 18.574219 20.34375 C 18.457031 20.257812 18.339844 20.171875 18.222656 20.085938 C 18.199219 20.070312 18.164062 20.0625 18.140625 20.042969 C 18.113281 20.023438 18.089844 20.007812 18.085938 19.96875 C 18.085938 19.890625 18.054688 19.835938 17.96875 19.828125 C 17.949219 19.828125 17.929688 19.816406 17.910156 19.8125 C 17.734375 19.773438 17.667969 19.640625 17.625 19.488281 C 17.589844 19.375 17.644531 19.304688 17.71875 19.242188 C 17.800781 19.179688 17.863281 19.105469 17.878906 19 C 17.882812 18.964844 17.910156 18.9375 17.949219 18.933594 C 18.066406 18.933594 18.179688 18.898438 18.292969 18.867188 C 18.332031 18.859375 18.351562 18.835938 18.367188 18.804688 C 18.402344 18.746094 18.433594 18.683594 18.46875 18.613281 C 18.394531 18.546875 18.316406 18.472656 18.238281 18.402344 C 18.070312 18.25 17.90625 18.097656 17.757812 17.925781 C 17.6875 17.84375 17.609375 17.769531 17.539062 17.691406 C 17.433594 17.570312 17.332031 17.445312 17.226562 17.324219 C 17.152344 17.242188 17.078125 17.164062 17.003906 17.085938 C 16.988281 17.070312 16.960938 17.066406 16.941406 17.066406 C 16.890625 17.070312 16.839844 17.074219 16.789062 17.078125 C 16.75 17.085938 16.710938 17.089844 16.671875 17.097656 C 16.660156 17.101562 16.644531 17.117188 16.640625 17.128906 C 16.625 17.261719 16.535156 17.328125 16.417969 17.359375 C 16.328125 17.386719 16.238281 17.402344 16.144531 17.425781 C 16.140625 17.425781 16.136719 17.429688 16.132812 17.429688 C 16.023438 17.402344 15.996094 17.5 15.9375 17.554688 C 15.933594 17.558594 15.933594 17.566406 15.929688 17.574219 C 15.886719 17.699219 15.785156 17.734375 15.664062 17.742188 C 15.644531 17.742188 15.625 17.757812 15.605469 17.769531 C 15.597656 17.777344 15.589844 17.792969 15.585938 17.804688 C 15.519531 17.957031 15.375 18.011719 15.25 18.09375 C 15.144531 18.160156 15.046875 18.238281 14.949219 18.316406 C 14.921875 18.335938 14.90625 18.367188 14.882812 18.390625 C 14.867188 18.40625 14.851562 18.421875 14.832031 18.429688 C 14.722656 18.476562 14.617188 18.539062 14.5 18.566406 C 14.371094 18.597656 14.300781 18.6875 14.28125 18.8125 C 14.257812 18.988281 14.136719 19.082031 13.976562 19.117188 C 13.921875 19.128906 13.863281 19.140625 13.804688 19.160156 C 13.785156 19.167969 13.757812 19.1875 13.75 19.210938 C 13.714844 19.277344 13.691406 19.347656 13.660156 19.414062 C 13.652344 19.433594 13.632812 19.457031 13.613281 19.464844 C 13.527344 19.507812 13.4375 19.542969 13.351562 19.578125 C 13.261719 19.613281 13.261719 19.613281 13.253906 19.699219 C 13.25 19.742188 13.234375 19.785156 13.226562 19.828125 C 13.21875 19.859375 13.210938 19.890625 13.214844 19.921875 C 13.222656 19.988281 13.175781 20.019531 13.132812 20.039062 C 13.007812 20.101562 12.914062 20.207031 12.800781 20.28125 C 12.746094 20.316406 12.699219 20.359375 12.640625 20.390625 C 12.617188 20.40625 12.582031 20.40625 12.550781 20.402344 C 12.507812 20.394531 12.460938 20.382812 12.421875 20.367188 C 12.390625 20.355469 12.367188 20.359375 12.347656 20.382812 C 12.226562 20.519531 12.066406 20.605469 11.914062 20.699219 C 11.859375 20.734375 11.828125 20.777344 11.835938 20.839844 C 11.847656 20.914062 11.8125 20.957031 11.765625 21.007812 C 11.648438 21.132812 11.539062 21.269531 11.460938 21.421875 C 11.457031 21.433594 11.449219 21.441406 11.449219 21.449219 C 11.433594 21.574219 11.339844 21.640625 11.242188 21.703125 C 11.214844 21.71875 11.195312 21.746094 11.171875 21.769531 C 11.140625 21.796875 11.128906 21.789062 11.105469 21.753906 C 11.015625 21.605469 11.042969 21.457031 11.082031 21.304688 C 11.117188 21.167969 11.136719 21.027344 11.132812 20.886719 C 11.132812 20.84375 11.125 20.796875 11.121094 20.746094 C 11.027344 20.75 11 20.679688 10.992188 20.59375 C 10.992188 20.589844 10.992188 20.589844 10.992188 20.585938 C 10.964844 20.46875 10.953125 20.457031 10.832031 20.4375 C 10.800781 20.433594 10.769531 20.433594 10.742188 20.421875 C 10.71875 20.410156 10.6875 20.394531 10.671875 20.375 C 10.636719 20.328125 10.613281 20.277344 10.585938 20.226562 C 10.574219 20.203125 10.601562 20.15625 10.636719 20.144531 C 10.664062 20.136719 10.695312 20.132812 10.722656 20.128906 C 10.8125 20.117188 10.90625 20.121094 10.980469 20.050781 C 11.003906 20.027344 11.03125 20.050781 11.042969 20.074219 C 11.054688 20.105469 11.070312 20.136719 11.078125 20.171875 C 11.089844 20.226562 11.125 20.253906 11.191406 20.253906 C 11.1875 20.226562 11.183594 20.199219 11.179688 20.175781 C 11.164062 20.105469 11.1875 20.070312 11.253906 20.058594 C 11.308594 20.046875 11.363281 20.042969 11.421875 20.035156 L 11.421875 19.933594 C 11.382812 19.933594 11.335938 19.925781 11.292969 19.9375 C 11.246094 19.949219 11.21875 19.929688 11.1875 19.90625 C 11.144531 19.875 11.101562 19.839844 11.058594 19.808594 C 10.996094 19.765625 10.976562 19.722656 11 19.65625 C 11 19.644531 11.003906 19.636719 11.007812 19.628906 C 11.054688 19.574219 11.03125 19.523438 10.992188 19.476562 C 10.953125 19.429688 10.914062 19.390625 10.839844 19.394531 C 10.765625 19.402344 10.691406 19.398438 10.617188 19.398438 C 10.574219 19.398438 10.542969 19.382812 10.523438 19.34375 C 10.464844 19.238281 10.414062 19.128906 10.34375 19.035156 C 10.285156 18.957031 10.308594 18.878906 10.304688 18.800781 C 10.304688 18.757812 10.351562 18.722656 10.40625 18.722656 C 10.453125 18.726562 10.5 18.734375 10.550781 18.742188 C 10.585938 18.746094 10.625 18.75 10.667969 18.757812 C 10.667969 18.714844 10.667969 18.679688 10.671875 18.648438 C 10.675781 18.59375 10.714844 18.574219 10.761719 18.601562 C 10.816406 18.636719 10.871094 18.675781 10.921875 18.710938 C 10.964844 18.6875 11.003906 18.664062 11.046875 18.640625 C 11.023438 18.582031 10.964844 18.558594 10.910156 18.542969 C 10.832031 18.523438 10.808594 18.472656 10.796875 18.40625 C 10.785156 18.351562 10.800781 18.3125 10.851562 18.292969 C 10.890625 18.277344 10.933594 18.269531 10.976562 18.261719 C 10.996094 18.253906 11.019531 18.253906 11.046875 18.246094 C 10.984375 18.183594 10.917969 18.152344 10.832031 18.160156 C 10.785156 18.164062 10.734375 18.160156 10.6875 18.160156 C 10.609375 18.160156 10.554688 18.121094 10.527344 18.046875 C 10.519531 18.019531 10.507812 17.988281 10.496094 17.949219 C 10.46875 17.949219 10.429688 17.960938 10.402344 17.949219 C 10.378906 17.9375 10.367188 17.90625 10.347656 17.882812 C 10.144531 17.941406 9.9375 18.007812 9.726562 18.066406 C 9.691406 18.078125 9.652344 18.085938 9.613281 18.089844 C 9.5625 18.101562 9.515625 18.113281 9.476562 18.152344 C 9.453125 18.179688 9.421875 18.1875 9.386719 18.171875 C 9.355469 18.15625 9.324219 18.132812 9.289062 18.125 C 9.214844 18.109375 9.179688 18.0625 9.167969 17.996094 C 9.148438 17.90625 9.097656 17.851562 9.027344 17.800781 C 8.953125 17.746094 8.890625 17.679688 8.824219 17.613281 C 8.769531 17.558594 8.726562 17.492188 8.671875 17.441406 C 8.613281 17.382812 8.550781 17.332031 8.488281 17.28125 C 8.460938 17.257812 8.429688 17.234375 8.398438 17.207031 C 8.3125 17.25 8.234375 17.199219 8.152344 17.167969 C 8.074219 17.140625 7.996094 17.109375 7.921875 17.074219 C 7.839844 17.039062 7.804688 16.960938 7.765625 16.886719 C 7.722656 16.804688 7.699219 16.710938 7.625 16.648438 C 7.597656 16.625 7.597656 16.59375 7.628906 16.570312 C 7.65625 16.554688 7.6875 16.542969 7.714844 16.527344 C 7.726562 16.519531 7.746094 16.507812 7.746094 16.5 C 7.742188 16.484375 7.722656 16.460938 7.714844 16.460938 C 7.632812 16.476562 7.550781 16.421875 7.472656 16.476562 C 7.425781 16.503906 7.367188 16.492188 7.339844 16.445312 C 7.296875 16.367188 7.234375 16.355469 7.160156 16.363281 C 7.109375 16.367188 7.0625 16.371094 7.015625 16.378906 C 6.960938 16.382812 6.859375 16.320312 6.851562 16.261719 C 6.839844 16.199219 6.835938 16.136719 6.835938 16.074219 C 6.835938 16.023438 6.894531 15.980469 6.945312 15.988281 C 6.972656 15.988281 7 15.984375 7.023438 15.984375 C 7.042969 15.980469 7.066406 15.96875 7.085938 15.96875 C 7.199219 15.976562 7.3125 15.960938 7.414062 15.910156 C 7.519531 15.859375 7.585938 15.902344 7.660156 15.972656 C 7.714844 16.023438 7.773438 16.074219 7.832031 16.125 C 7.863281 16.082031 7.90625 16.078125 7.949219 16.066406 C 8.027344 16.050781 8.042969 16.023438 8.027344 15.949219 C 8.019531 15.925781 8.011719 15.902344 8.015625 15.878906 C 8.019531 15.859375 8.03125 15.832031 8.046875 15.828125 C 8.117188 15.804688 8.128906 15.75 8.125 15.691406 C 8.121094 15.632812 8.144531 15.585938 8.171875 15.542969 C 8.191406 15.515625 8.226562 15.492188 8.257812 15.480469 C 8.34375 15.449219 8.355469 15.46875 8.363281 15.34375 C 8.371094 15.253906 8.375 15.167969 8.382812 15.078125 C 8.386719 15.007812 8.355469 14.957031 8.296875 14.917969 C 8.261719 14.890625 8.226562 14.867188 8.179688 14.832031 C 8.226562 14.800781 8.261719 14.773438 8.304688 14.742188 C 8.261719 14.703125 8.214844 14.652344 8.160156 14.609375 C 8.148438 14.597656 8.128906 14.601562 8.113281 14.601562 C 8.09375 14.605469 8.078125 14.613281 8.0625 14.621094 C 7.925781 14.683594 7.8125 14.640625 7.710938 14.546875 C 7.625 14.472656 7.523438 14.433594 7.414062 14.410156 C 7.296875 14.386719 7.175781 14.375 7.054688 14.351562 C 7.015625 14.34375 6.976562 14.316406 6.945312 14.289062 C 6.882812 14.222656 6.816406 14.15625 6.765625 14.078125 C 6.644531 13.890625 6.453125 13.816406 6.261719 13.738281 C 6.234375 13.730469 6.203125 13.734375 6.175781 13.734375 C 6.113281 13.738281 6.074219 13.699219 6.050781 13.652344 C 6.019531 13.601562 6 13.546875 5.984375 13.503906 C 6.023438 13.441406 6.058594 13.386719 6.09375 13.332031 C 6.113281 13.304688 6.105469 13.273438 6.082031 13.261719 C 5.988281 13.214844 5.894531 13.175781 5.796875 13.132812 C 5.785156 13.0625 5.753906 12.988281 5.699219 12.929688 C 5.648438 12.875 5.652344 12.835938 5.714844 12.792969 C 5.792969 12.742188 5.8125 12.65625 5.835938 12.570312 C 5.84375 12.542969 5.84375 12.511719 5.851562 12.484375 C 5.863281 12.4375 5.886719 12.402344 5.9375 12.386719 C 6.027344 12.359375 6.109375 12.316406 6.199219 12.289062 C 6.339844 12.246094 6.421875 12.140625 6.511719 12.039062 C 6.542969 12 6.574219 11.964844 6.609375 11.929688 C 6.632812 11.90625 6.644531 11.890625 6.628906 11.859375 C 6.613281 11.824219 6.609375 11.785156 6.605469 11.761719 C 6.519531 11.707031 6.441406 11.652344 6.359375 11.597656 C 6.328125 11.578125 6.289062 11.546875 6.253906 11.546875 C 6.164062 11.550781 6.132812 11.480469 6.089844 11.425781 C 6.066406 11.394531 6.050781 11.351562 6.03125 11.3125 C 6.015625 11.316406 5.996094 11.316406 5.980469 11.320312 C 5.945312 11.335938 5.910156 11.34375 5.878906 11.3125 C 5.84375 11.277344 5.835938 11.226562 5.855469 11.1875 C 5.890625 11.132812 5.871094 11.074219 5.878906 11.019531 C 5.78125 11.027344 5.707031 11.0625 5.660156 11.148438 C 5.660156 11.152344 5.652344 11.164062 5.648438 11.164062 C 5.589844 11.167969 5.527344 11.179688 5.472656 11.175781 C 5.445312 11.171875 5.417969 11.136719 5.398438 11.109375 C 5.386719 11.089844 5.382812 11.0625 5.371094 11.039062 C 5.363281 11.019531 5.351562 10.996094 5.335938 10.964844 C 5.316406 10.996094 5.300781 11.007812 5.292969 11.027344 C 5.261719 11.097656 5.226562 11.113281 5.15625 11.082031 C 5.121094 11.066406 5.089844 11.046875 5.0625 11.027344 C 5.007812 10.992188 4.953125 10.964844 4.890625 10.96875 C 4.851562 10.96875 4.824219 10.953125 4.808594 10.917969 C 4.792969 10.886719 4.773438 10.855469 4.757812 10.828125 C 4.75 10.816406 4.742188 10.808594 4.734375 10.800781 C 4.726562 10.808594 4.714844 10.8125 4.707031 10.824219 C 4.703125 10.832031 4.699219 10.839844 4.699219 10.847656 C 4.683594 10.917969 4.671875 10.933594 4.601562 10.9375 C 4.535156 10.941406 4.46875 10.941406 4.40625 10.9375 C 4.367188 10.9375 4.351562 10.917969 4.347656 10.882812 C 4.347656 10.875 4.347656 10.867188 4.347656 10.863281 C 4.324219 10.730469 4.390625 10.65625 4.5 10.601562 C 4.566406 10.566406 4.625 10.542969 4.691406 10.585938 C 4.722656 10.609375 4.753906 10.601562 4.785156 10.574219 C 4.796875 10.5625 4.808594 10.550781 4.820312 10.542969 C 4.859375 10.519531 4.910156 10.503906 4.90625 10.445312 C 4.902344 10.375 4.882812 10.300781 4.828125 10.253906 C 4.800781 10.230469 4.738281 10.234375 4.691406 10.242188 C 4.609375 10.253906 4.53125 10.277344 4.453125 10.292969 C 4.363281 10.308594 4.273438 10.269531 4.203125 10.1875 C 4.214844 10.148438 4.226562 10.117188 4.234375 10.082031 C 4.242188 10.042969 4.207031 10.023438 4.183594 9.996094 C 4.148438 9.960938 4.109375 9.921875 4.074219 9.886719 C 4.007812 9.820312 4.007812 9.785156 4.085938 9.734375 C 4.132812 9.703125 4.183594 9.671875 4.234375 9.644531 C 4.347656 9.578125 4.433594 9.492188 4.503906 9.378906 C 4.574219 9.261719 4.644531 9.148438 4.683594 9.015625 C 4.695312 8.988281 4.710938 8.957031 4.730469 8.933594 C 4.792969 8.851562 4.878906 8.871094 4.960938 8.878906 C 4.980469 8.878906 5 8.886719 5.023438 8.890625 C 5.046875 8.828125 5.070312 8.769531 5.089844 8.710938 C 5.09375 8.691406 5.09375 8.667969 5.089844 8.648438 C 5.082031 8.589844 5.09375 8.566406 5.144531 8.566406 C 5.25 8.566406 5.34375 8.535156 5.4375 8.5 C 5.496094 8.480469 5.566406 8.507812 5.609375 8.558594 C 5.671875 8.636719 5.710938 8.664062 5.792969 8.695312 C 5.800781 8.695312 5.804688 8.699219 5.824219 8.710938 C 5.824219 8.675781 5.824219 8.648438 5.824219 8.621094 C 5.824219 8.589844 5.8125 8.558594 5.847656 8.535156 C 5.882812 8.511719 5.914062 8.523438 5.945312 8.542969 C 6.082031 8.621094 6.207031 8.722656 6.328125 8.824219 C 6.339844 8.835938 6.359375 8.839844 6.375 8.84375 C 6.566406 8.90625 6.769531 8.933594 6.957031 9.015625 C 7 9.035156 7.046875 9.058594 7.089844 9.082031 C 7.136719 9.101562 7.152344 9.136719 7.136719 9.199219 C 7.027344 9.164062 6.957031 9.238281 6.878906 9.289062 C 6.984375 9.496094 7.148438 9.609375 7.382812 9.636719 C 7.488281 9.648438 7.59375 9.695312 7.695312 9.730469 C 7.8125 9.773438 7.921875 9.828125 8.039062 9.863281 C 8.160156 9.898438 8.289062 9.902344 8.394531 9.808594 C 8.441406 9.765625 8.492188 9.722656 8.539062 9.675781 C 8.570312 9.644531 8.601562 9.628906 8.652344 9.636719 C 8.722656 9.648438 8.796875 9.636719 8.867188 9.625 C 8.949219 9.609375 9.03125 9.582031 9.113281 9.5625 C 9.148438 9.554688 9.1875 9.554688 9.214844 9.589844 C 9.25 9.632812 9.300781 9.644531 9.351562 9.660156 C 9.503906 9.71875 9.65625 9.777344 9.808594 9.84375 C 9.859375 9.863281 9.902344 9.90625 9.949219 9.945312 C 10.019531 10 10.105469 10.027344 10.191406 10.050781 C 10.246094 10.066406 10.265625 10.007812 10.300781 9.980469 C 10.316406 9.964844 10.324219 9.9375 10.332031 9.914062 C 10.355469 9.828125 10.398438 9.808594 10.472656 9.851562 C 10.5 9.867188 10.523438 9.886719 10.554688 9.910156 C 10.578125 9.886719 10.609375 9.863281 10.636719 9.839844 C 10.730469 9.765625 10.746094 9.671875 10.710938 9.566406 C 10.667969 9.4375 10.722656 9.339844 10.789062 9.238281 C 10.8125 9.203125 10.847656 9.175781 10.875 9.136719 C 10.882812 9.121094 10.894531 9.09375 10.886719 9.078125 C 10.828125 8.960938 10.769531 8.835938 10.671875 8.742188 C 10.574219 8.648438 10.457031 8.589844 10.316406 8.578125 C 10.226562 8.570312 10.132812 8.566406 10.039062 8.5625 C 9.933594 8.554688 9.851562 8.5 9.761719 8.449219 C 9.59375 8.351562 9.421875 8.253906 9.253906 8.160156 C 9.191406 8.125 9.140625 8.089844 9.132812 8.007812 C 9.132812 7.96875 9.105469 7.925781 9.078125 7.894531 C 9.023438 7.835938 9.027344 7.800781 9.097656 7.769531 C 9.136719 7.753906 9.164062 7.722656 9.183594 7.683594 C 9.066406 7.664062 8.957031 7.632812 8.84375 7.664062 C 8.820312 7.667969 8.796875 7.667969 8.773438 7.664062 C 8.730469 7.660156 8.703125 7.628906 8.71875 7.59375 C 8.75 7.511719 8.722656 7.445312 8.675781 7.382812 C 8.601562 7.277344 8.5625 7.15625 8.535156 7.035156 C 8.527344 7 8.539062 6.957031 8.554688 6.921875 C 8.589844 6.851562 8.617188 6.777344 8.621094 6.695312 C 8.621094 6.640625 8.648438 6.589844 8.695312 6.554688 C 8.726562 6.53125 8.757812 6.523438 8.796875 6.546875 C 8.828125 6.566406 8.867188 6.574219 8.90625 6.582031 C 8.960938 6.597656 9.019531 6.605469 9.078125 6.617188 C 9.09375 6.621094 9.117188 6.617188 9.128906 6.609375 C 9.257812 6.492188 9.308594 6.332031 9.359375 6.175781 C 9.378906 6.117188 9.347656 6.066406 9.316406 6.023438 C 9.359375 5.964844 9.402344 5.941406 9.472656 5.957031 C 9.523438 5.96875 9.582031 5.945312 9.636719 5.9375 C 9.703125 5.921875 9.765625 5.902344 9.832031 5.898438 C 9.871094 5.898438 9.910156 5.925781 9.949219 5.941406 C 9.992188 5.964844 10.03125 5.988281 10.074219 6.011719 C 10.136719 6.042969 10.199219 6.070312 10.257812 6.101562 C 10.28125 6.113281 10.300781 6.128906 10.28125 6.160156 C 10.257812 6.203125 10.234375 6.25 10.210938 6.292969 C 10.1875 6.332031 10.1875 6.335938 10.214844 6.367188 C 10.28125 6.335938 10.347656 6.300781 10.414062 6.269531 C 10.476562 6.238281 10.539062 6.238281 10.605469 6.273438 C 10.625 6.285156 10.648438 6.292969 10.679688 6.304688 C 10.6875 6.285156 10.699219 6.261719 10.710938 6.238281 C 10.714844 6.230469 10.710938 6.222656 10.714844 6.210938 C 10.738281 6.15625 10.933594 6.070312 10.992188 6.09375 C 11.035156 6.109375 11.039062 6.15625 11.046875 6.191406 C 11.058594 6.257812 11.046875 6.320312 11.015625 6.367188 C 11.101562 6.480469 11.183594 6.59375 11.265625 6.703125 C 11.285156 6.726562 11.308594 6.746094 11.335938 6.761719 C 11.355469 6.777344 11.378906 6.78125 11.410156 6.769531 C 11.453125 6.75 11.496094 6.746094 11.542969 6.738281 C 11.582031 6.734375 11.597656 6.746094 11.597656 6.792969 C 11.597656 6.828125 11.613281 6.867188 11.636719 6.890625 C 11.734375 6.980469 11.828125 7.074219 11.957031 7.117188 C 11.976562 7.179688 11.933594 7.214844 11.902344 7.257812 C 11.957031 7.347656 12.011719 7.441406 12.070312 7.535156 C 12.070312 7.535156 12.078125 7.539062 12.085938 7.539062 C 12.230469 7.539062 12.214844 7.554688 12.214844 7.414062 C 12.214844 7.363281 12.226562 7.351562 12.277344 7.34375 C 12.304688 7.339844 12.332031 7.332031 12.359375 7.328125 C 12.417969 7.316406 12.457031 7.328125 12.484375 7.386719 C 12.566406 7.5625 12.679688 7.726562 12.722656 7.917969 C 12.738281 7.972656 12.765625 8.019531 12.8125 8.042969 C 12.910156 8.101562 12.925781 8.195312 12.945312 8.289062 C 12.949219 8.316406 12.960938 8.347656 12.980469 8.367188 C 13.019531 8.40625 13.066406 8.4375 13.105469 8.480469 C 13.175781 8.5625 13.246094 8.652344 13.3125 8.738281 C 13.351562 8.789062 13.390625 8.839844 13.429688 8.886719 C 13.484375 8.890625 13.546875 8.898438 13.605469 8.902344 C 13.667969 8.90625 13.726562 8.90625 13.789062 8.902344 C 13.835938 8.902344 13.878906 8.890625 13.925781 8.890625 C 13.976562 8.886719 14.019531 8.882812 14.058594 8.933594 C 14.105469 8.992188 14.175781 9.035156 14.238281 9.074219 C 14.316406 9.128906 14.355469 9.113281 14.394531 9.027344 C 14.433594 8.9375 14.503906 8.902344 14.597656 8.9375 C 14.636719 8.953125 14.675781 8.972656 14.710938 8.996094 C 14.851562 9.089844 14.996094 9.082031 15.136719 8.996094 C 15.191406 8.964844 15.238281 8.925781 15.285156 8.890625 C 15.351562 8.84375 15.417969 8.820312 15.496094 8.875 C 15.546875 8.910156 15.601562 8.875 15.652344 8.859375 C 15.660156 8.859375 15.667969 8.84375 15.667969 8.832031 C 15.671875 8.824219 15.671875 8.808594 15.671875 8.800781 C 15.679688 8.769531 15.703125 8.730469 15.695312 8.707031 C 15.6875 8.6875 15.640625 8.683594 15.613281 8.671875 C 15.558594 8.648438 15.535156 8.59375 15.5625 8.527344 C 15.578125 8.492188 15.605469 8.460938 15.632812 8.4375 C 15.683594 8.398438 15.695312 8.378906 15.679688 8.3125 C 15.660156 8.242188 15.683594 8.191406 15.75 8.15625 C 15.769531 8.144531 15.792969 8.121094 15.792969 8.101562 C 15.800781 8.03125 15.84375 7.980469 15.878906 7.929688 C 15.945312 7.835938 16.027344 7.761719 16.132812 7.707031 C 16.171875 7.6875 16.171875 7.667969 16.144531 7.640625 C 16.097656 7.597656 16.097656 7.566406 16.136719 7.515625 C 16.160156 7.484375 16.179688 7.453125 16.191406 7.417969 C 16.226562 7.324219 16.304688 7.292969 16.386719 7.257812 C 16.519531 7.207031 16.652344 7.15625 16.785156 7.097656 C 16.835938 7.074219 16.878906 7.03125 16.921875 6.996094 C 16.957031 6.96875 16.984375 6.9375 17.011719 6.90625 C 17.066406 6.847656 17.128906 6.804688 17.210938 6.792969 C 17.347656 6.773438 17.433594 6.6875 17.496094 6.574219 C 17.535156 6.496094 17.570312 6.414062 17.582031 6.324219 C 17.589844 6.285156 17.617188 6.25 17.640625 6.210938 C 17.667969 6.160156 17.695312 6.113281 17.722656 6.0625 C 17.734375 6.039062 17.746094 6.015625 17.761719 5.992188 C 17.792969 5.929688 17.828125 5.863281 17.863281 5.800781 C 17.875 5.773438 17.886719 5.738281 17.910156 5.71875 C 18.035156 5.617188 18.09375 5.480469 18.144531 5.335938 C 18.148438 5.320312 18.160156 5.304688 18.167969 5.289062 C 18.214844 5.222656 18.253906 5.210938 18.335938 5.226562 C 18.441406 5.25 18.53125 5.300781 18.613281 5.371094 C 18.652344 5.410156 18.699219 5.445312 18.753906 5.46875 C 18.824219 5.496094 18.863281 5.566406 18.871094 5.640625 C 18.882812 5.703125 18.90625 5.757812 18.953125 5.800781 C 19.0625 5.902344 19.160156 6.015625 19.246094 6.144531 C 19.289062 6.210938 19.351562 6.265625 19.40625 6.324219 C 19.550781 6.46875 19.699219 6.609375 19.835938 6.757812 C 19.917969 6.847656 19.992188 6.941406 20.0625 7.039062 C 20.246094 7.292969 20.429688 7.550781 20.609375 7.808594 C 20.65625 7.882812 20.691406 7.964844 20.734375 8.042969 C 20.746094 8.070312 20.757812 8.097656 20.773438 8.121094 C 20.894531 8.304688 20.945312 8.511719 20.996094 8.722656 C 21.023438 8.839844 21.042969 8.960938 21.070312 9.078125 C 21.101562 9.21875 21.1875 9.332031 21.273438 9.441406 C 21.40625 9.609375 21.554688 9.765625 21.742188 9.878906 C 21.863281 9.949219 21.945312 10.054688 22.015625 10.171875 C 22.03125 10.199219 22.050781 10.222656 22.085938 10.226562 C 22.113281 10.234375 22.136719 10.25 22.160156 10.265625 C 22.199219 10.289062 22.242188 10.292969 22.285156 10.296875 C 22.328125 10.296875 22.371094 10.304688 22.40625 10.320312 C 22.492188 10.355469 22.574219 10.394531 22.65625 10.4375 C 22.722656 10.472656 22.742188 10.542969 22.707031 10.613281 C 22.699219 10.628906 22.6875 10.644531 22.675781 10.660156 C 22.601562 10.742188 22.601562 10.738281 22.648438 10.839844 C 22.703125 10.957031 22.757812 11.078125 22.804688 11.199219 C 22.839844 11.285156 22.882812 11.34375 22.984375 11.351562 C 23.035156 11.355469 23.082031 11.386719 23.125 11.417969 C 23.164062 11.441406 23.199219 11.449219 23.246094 11.449219 C 23.402344 11.441406 23.554688 11.476562 23.699219 11.542969 C 23.804688 11.589844 23.914062 11.632812 24.019531 11.679688 C 24.078125 11.707031 24.132812 11.699219 24.191406 11.675781 C 24.320312 11.613281 24.453125 11.554688 24.539062 11.429688 C 24.5625 11.394531 24.613281 11.394531 24.648438 11.425781 C 24.738281 11.503906 24.792969 11.507812 24.898438 11.445312 C 24.957031 11.414062 24.96875 11.410156 25.007812 11.476562 C 25.066406 11.570312 25.128906 11.664062 25.191406 11.757812 C 25.199219 11.765625 25.207031 11.773438 25.21875 11.78125 C 25.261719 11.808594 25.3125 11.828125 25.367188 11.828125 C 25.425781 11.824219 25.484375 11.824219 25.542969 11.828125 C 25.625 11.828125 25.703125 11.832031 25.785156 11.839844 C 25.839844 11.847656 25.863281 11.894531 25.882812 11.9375 C 25.898438 11.976562 25.902344 12.019531 25.914062 12.058594 C 25.941406 12.140625 25.988281 12.167969 26.070312 12.144531 C 26.089844 12.140625 26.105469 12.132812 26.125 12.121094 Z M 20.496094 15.53125 C 20.507812 15.542969 20.515625 15.550781 20.527344 15.5625 C 20.53125 15.558594 20.53125 15.554688 20.535156 15.554688 C 20.527344 15.542969 20.515625 15.53125 20.507812 15.519531 C 20.457031 15.410156 20.4375 15.289062 20.355469 15.191406 C 20.234375 15.296875 20.253906 15.417969 20.390625 15.476562 C 20.429688 15.492188 20.460938 15.511719 20.496094 15.53125 Z M 10.859375 10.035156 C 10.847656 10.042969 10.828125 10.050781 10.816406 10.058594 C 10.730469 10.128906 10.632812 10.183594 10.582031 10.289062 C 10.574219 10.304688 10.539062 10.320312 10.519531 10.320312 C 10.378906 10.324219 10.238281 10.324219 10.097656 10.324219 C 10.085938 10.324219 10.074219 10.316406 10.0625 10.3125 C 10.011719 10.300781 9.964844 10.292969 9.898438 10.277344 C 9.925781 10.308594 9.949219 10.328125 9.960938 10.351562 C 9.980469 10.386719 10.007812 10.429688 10.007812 10.46875 C 10.003906 10.558594 10.027344 10.640625 10.074219 10.714844 C 10.128906 10.804688 10.101562 10.890625 9.964844 10.898438 C 9.914062 10.902344 9.859375 10.902344 9.808594 10.914062 C 9.738281 10.929688 9.671875 10.949219 9.65625 11.039062 C 9.652344 11.070312 9.628906 11.101562 9.605469 11.125 C 9.511719 11.230469 9.378906 11.277344 9.246094 11.304688 C 9.113281 11.332031 8.980469 11.34375 8.847656 11.363281 C 8.835938 11.367188 8.820312 11.375 8.792969 11.386719 C 8.828125 11.390625 8.847656 11.390625 8.863281 11.394531 C 9.035156 11.425781 9.207031 11.457031 9.375 11.488281 C 9.511719 11.515625 9.648438 11.539062 9.785156 11.566406 C 9.824219 11.574219 9.855469 11.578125 9.886719 11.550781 C 9.945312 11.496094 10.003906 11.453125 10.0625 11.402344 C 10.160156 11.3125 10.277344 11.265625 10.40625 11.25 C 10.5 11.238281 10.59375 11.226562 10.6875 11.207031 C 10.777344 11.191406 10.863281 11.171875 10.953125 11.179688 C 11.058594 11.195312 11.160156 11.210938 11.261719 11.222656 C 11.390625 11.234375 11.507812 11.273438 11.609375 11.355469 C 11.675781 11.40625 11.742188 11.460938 11.8125 11.511719 C 11.867188 11.554688 11.933594 11.582031 12.003906 11.582031 C 12.082031 11.582031 12.164062 11.566406 12.242188 11.558594 C 12.277344 11.554688 12.3125 11.550781 12.34375 11.546875 C 12.394531 11.542969 12.449219 11.527344 12.496094 11.535156 C 12.628906 11.550781 12.757812 11.578125 12.890625 11.601562 C 12.9375 11.609375 12.988281 11.609375 13.042969 11.613281 C 13.003906 11.539062 12.949219 11.484375 12.886719 11.4375 C 12.796875 11.378906 12.695312 11.332031 12.601562 11.277344 C 12.484375 11.207031 12.367188 11.140625 12.25 11.066406 C 12.164062 11.011719 12.085938 10.945312 11.976562 10.929688 C 11.890625 10.917969 11.808594 10.875 11.71875 10.859375 C 11.472656 10.8125 11.269531 10.703125 11.089844 10.527344 C 10.980469 10.417969 10.933594 10.277344 10.882812 10.140625 C 10.871094 10.109375 10.867188 10.070312 10.859375 10.035156 Z M 6.570312 12.820312 C 6.523438 12.789062 6.496094 12.785156 6.453125 12.820312 C 6.398438 12.863281 6.351562 12.914062 6.296875 12.960938 C 6.261719 12.988281 6.246094 13.027344 6.261719 13.0625 C 6.28125 13.101562 6.324219 13.128906 6.359375 13.160156 C 6.363281 13.164062 6.378906 13.15625 6.386719 13.148438 C 6.425781 13.113281 6.46875 13.078125 6.5 13.035156 C 6.519531 13.011719 6.539062 12.976562 6.519531 12.9375 C 6.515625 12.925781 6.519531 12.90625 6.527344 12.890625 C 6.539062 12.867188 6.554688 12.84375 6.570312 12.820312 Z M 23.28125 11.949219 C 23.277344 11.957031 23.273438 11.960938 23.269531 11.964844 C 23.292969 12.015625 23.320312 12.066406 23.347656 12.113281 C 23.375 12.164062 23.414062 12.183594 23.472656 12.179688 C 23.523438 12.175781 23.535156 12.160156 23.515625 12.113281 C 23.472656 12.007812 23.375 11.980469 23.28125 11.949219 Z M 23.851562 12.105469 C 23.828125 12.179688 23.832031 12.191406 23.894531 12.191406 C 23.921875 12.191406 23.945312 12.191406 23.972656 12.191406 C 23.964844 12.125 23.820312 11.988281 23.726562 11.96875 C 23.746094 12.023438 23.765625 12.070312 23.785156 12.117188 C 23.808594 12.113281 23.828125 12.109375 23.851562 12.105469 Z M 24.578125 12.359375 C 24.527344 12.304688 24.488281 12.289062 24.363281 12.269531 C 24.34375 12.265625 24.320312 12.277344 24.296875 12.277344 C 24.324219 12.308594 24.320312 12.363281 24.371094 12.359375 C 24.4375 12.359375 24.5 12.359375 24.574219 12.359375 Z M 24.058594 11.96875 C 24.074219 12.03125 24.109375 12.070312 24.164062 12.085938 C 24.179688 12.09375 24.207031 12.078125 24.226562 12.066406 C 24.230469 12.0625 24.226562 12.03125 24.21875 12.027344 C 24.171875 11.996094 24.121094 11.96875 24.058594 11.96875 Z M 20.851562 20 C 20.863281 19.878906 20.859375 19.855469 20.804688 19.792969 C 20.75 19.871094 20.773438 19.984375 20.851562 20 Z M 20.835938 20.339844 C 20.894531 20.300781 20.914062 20.253906 20.894531 20.21875 C 20.871094 20.1875 20.832031 20.207031 20.824219 20.21875 C 20.800781 20.242188 20.796875 20.277344 20.78125 20.304688 C 20.804688 20.320312 20.820312 20.328125 20.835938 20.339844 Z M 20.835938 20.339844 " fill-opacity="1" fill-rule="nonzero"/></g><g clip-path="url(#bd7cdf5da7)"><path fill="#014d4e" d="M 5.339844 18.359375 C 5.347656 18.324219 5.355469 18.289062 5.359375 18.257812 C 5.382812 18.117188 5.476562 18.042969 5.621094 18.097656 C 5.753906 18.144531 5.796875 18.242188 5.773438 18.386719 C 5.757812 18.464844 5.746094 18.472656 5.832031 18.488281 C 5.882812 18.496094 5.9375 18.503906 5.988281 18.511719 C 6.011719 18.515625 6.03125 18.519531 6.054688 18.527344 C 6.136719 18.5625 6.191406 18.628906 6.246094 18.695312 C 6.265625 18.71875 6.269531 18.753906 6.28125 18.792969 C 6.285156 18.792969 6.292969 18.792969 6.300781 18.796875 C 6.375 18.820312 6.371094 18.816406 6.402344 18.746094 C 6.476562 18.5625 6.613281 18.449219 6.800781 18.386719 C 6.808594 18.386719 6.816406 18.386719 6.824219 18.386719 C 6.949219 18.410156 7.058594 18.347656 7.179688 18.328125 C 7.203125 18.324219 7.222656 18.292969 7.242188 18.269531 C 7.265625 18.242188 7.285156 18.210938 7.3125 18.183594 C 7.375 18.125 7.425781 18.121094 7.503906 18.160156 C 7.679688 18.246094 7.824219 18.371094 7.953125 18.515625 C 7.96875 18.53125 7.984375 18.554688 7.984375 18.574219 C 7.988281 18.65625 8.019531 18.742188 7.988281 18.828125 C 7.980469 18.855469 7.996094 18.894531 8.003906 18.925781 C 8.007812 18.941406 8.019531 18.957031 8.027344 18.96875 C 8.078125 19.082031 8.074219 19.089844 7.964844 19.148438 C 7.925781 19.167969 7.886719 19.183594 7.871094 19.234375 C 7.851562 19.28125 7.863281 19.3125 7.898438 19.328125 C 8.070312 19.398438 8.214844 19.519531 8.398438 19.5625 C 8.46875 19.578125 8.535156 19.601562 8.601562 19.621094 C 8.625 19.628906 8.648438 19.636719 8.664062 19.652344 C 8.710938 19.703125 8.761719 19.75 8.800781 19.808594 C 8.851562 19.878906 8.84375 19.957031 8.792969 20.027344 C 8.765625 20.070312 8.757812 20.097656 8.792969 20.144531 C 8.871094 20.246094 8.941406 20.355469 9.011719 20.460938 C 9.039062 20.5 9.0625 20.546875 9.082031 20.59375 C 9.089844 20.613281 9.082031 20.636719 9.082031 20.660156 C 9.082031 20.710938 9.082031 20.761719 9.109375 20.808594 C 9.183594 20.949219 9.257812 21.089844 9.332031 21.230469 C 9.390625 21.339844 9.453125 21.449219 9.511719 21.5625 C 9.523438 21.589844 9.53125 21.625 9.53125 21.652344 C 9.527344 21.722656 9.542969 21.78125 9.570312 21.839844 C 9.621094 21.933594 9.578125 21.941406 9.511719 21.941406 C 9.4375 21.945312 9.371094 21.921875 9.308594 21.890625 C 9.265625 21.871094 9.226562 21.863281 9.183594 21.882812 C 9.148438 21.894531 9.109375 21.886719 9.074219 21.898438 C 9.03125 21.914062 8.984375 21.933594 8.945312 21.960938 C 8.816406 22.046875 8.6875 22.066406 8.550781 21.984375 C 8.445312 21.921875 8.339844 21.871094 8.234375 21.816406 C 8.152344 21.773438 8.078125 21.78125 7.996094 21.820312 C 7.9375 21.851562 7.871094 21.871094 7.804688 21.882812 C 7.726562 21.898438 7.652344 21.875 7.585938 21.839844 C 7.46875 21.773438 7.34375 21.726562 7.210938 21.695312 C 7.085938 21.667969 6.964844 21.652344 6.835938 21.683594 C 6.75 21.707031 6.65625 21.710938 6.5625 21.714844 C 6.480469 21.71875 6.449219 21.679688 6.441406 21.601562 C 6.429688 21.507812 6.421875 21.417969 6.371094 21.335938 C 6.316406 21.242188 6.332031 21.15625 6.417969 21.082031 C 6.382812 21.066406 6.351562 21.058594 6.324219 21.039062 C 6.289062 21.019531 6.25 21 6.222656 20.96875 C 6.144531 20.882812 6.042969 20.828125 5.941406 20.773438 C 5.84375 20.71875 5.757812 20.648438 5.695312 20.554688 C 5.675781 20.523438 5.65625 20.492188 5.65625 20.460938 C 5.65625 20.402344 5.625 20.390625 5.582031 20.378906 C 5.476562 20.347656 5.371094 20.316406 5.269531 20.28125 C 5.230469 20.269531 5.191406 20.246094 5.152344 20.222656 C 5.101562 20.191406 5.082031 20.136719 5.054688 20.085938 C 4.980469 19.945312 4.894531 19.808594 4.8125 19.675781 C 4.742188 19.5625 4.660156 19.460938 4.550781 19.386719 C 4.511719 19.359375 4.460938 19.347656 4.414062 19.328125 C 4.386719 19.316406 4.355469 19.3125 4.324219 19.300781 C 4.203125 19.25 4.207031 19.25 4.207031 19.125 C 4.207031 19.089844 4.203125 19.050781 4.1875 19.023438 C 4.097656 18.890625 4.058594 18.730469 3.992188 18.585938 C 3.980469 18.550781 3.960938 18.511719 3.957031 18.476562 C 3.945312 18.417969 3.914062 18.382812 3.867188 18.359375 C 3.800781 18.328125 3.734375 18.304688 3.664062 18.277344 C 3.636719 18.265625 3.605469 18.257812 3.574219 18.246094 C 3.535156 18.226562 3.511719 18.199219 3.519531 18.152344 C 3.53125 18.074219 3.507812 18.007812 3.449219 17.949219 C 3.394531 17.894531 3.421875 17.828125 3.441406 17.773438 C 3.445312 17.75 3.476562 17.714844 3.511719 17.726562 C 3.585938 17.753906 3.648438 17.710938 3.71875 17.707031 C 3.832031 17.703125 3.925781 17.648438 4.023438 17.601562 C 4.078125 17.574219 4.085938 17.578125 4.117188 17.628906 C 4.15625 17.703125 4.1875 17.710938 4.261719 17.664062 C 4.304688 17.640625 4.351562 17.625 4.394531 17.601562 C 4.414062 17.589844 4.4375 17.574219 4.445312 17.554688 C 4.472656 17.453125 4.550781 17.402344 4.628906 17.347656 C 4.632812 17.347656 4.636719 17.34375 4.640625 17.34375 C 4.710938 17.257812 4.789062 17.273438 4.875 17.316406 C 4.910156 17.335938 4.949219 17.351562 4.984375 17.371094 C 5.0625 17.417969 5.082031 17.464844 5.054688 17.550781 C 5.03125 17.621094 5.019531 17.6875 5.078125 17.746094 C 5.109375 17.773438 5.140625 17.808594 5.179688 17.816406 C 5.285156 17.84375 5.300781 17.929688 5.316406 18.015625 C 5.324219 18.074219 5.308594 18.132812 5.285156 18.1875 C 5.273438 18.214844 5.261719 18.246094 5.261719 18.273438 C 5.257812 18.339844 5.261719 18.34375 5.339844 18.359375 Z M 5.339844 18.359375 " fill-opacity="1" fill-rule="nonzero"/></g><path fill="#014d4e" d="M 21.652344 20.59375 C 21.644531 20.472656 21.734375 20.414062 21.820312 20.375 C 21.914062 20.332031 21.988281 20.273438 22.054688 20.203125 C 22.089844 20.164062 22.132812 20.152344 22.183594 20.15625 C 22.230469 20.164062 22.25 20.199219 22.238281 20.242188 C 22.214844 20.332031 22.160156 20.402344 22.105469 20.472656 C 22.070312 20.519531 22.027344 20.5625 21.988281 20.605469 C 21.929688 20.667969 21.824219 20.683594 21.753906 20.640625 C 21.722656 20.621094 21.683594 20.609375 21.652344 20.59375 Z M 22.183594 20.222656 C 22.175781 20.21875 22.171875 20.214844 22.167969 20.207031 C 22.140625 20.230469 22.109375 20.25 22.082031 20.273438 C 22.019531 20.335938 21.949219 20.390625 21.863281 20.425781 C 21.816406 20.445312 21.769531 20.476562 21.734375 20.511719 C 21.699219 20.542969 21.707031 20.566406 21.75 20.59375 C 21.820312 20.632812 21.875 20.632812 21.933594 20.574219 C 21.988281 20.519531 22.03125 20.460938 22.078125 20.40625 C 22.128906 20.351562 22.15625 20.289062 22.183594 20.222656 Z M 22.183594 20.222656 " fill-opacity="1" fill-rule="nonzero"/><path fill="#014d4e" d="M 4.222656 11.011719 C 4.148438 11.011719 4.058594 10.9375 4.054688 10.882812 C 4.054688 10.859375 4.058594 10.832031 4.074219 10.816406 C 4.117188 10.765625 4.183594 10.742188 4.25 10.734375 C 4.265625 10.730469 4.289062 10.746094 4.300781 10.761719 C 4.332031 10.808594 4.3125 10.957031 4.269531 10.992188 C 4.257812 11.007812 4.230469 11.007812 4.222656 11.011719 Z M 4.222656 11.011719 " fill-opacity="1" fill-rule="nonzero"/><path fill="#014d4e" d="M 5.054688 11.304688 C 4.996094 11.316406 4.953125 11.285156 4.925781 11.230469 C 4.917969 11.207031 4.894531 11.1875 4.921875 11.160156 C 4.945312 11.140625 4.960938 11.109375 5.003906 11.132812 C 5.027344 11.148438 5.058594 11.152344 5.085938 11.152344 C 5.125 11.152344 5.140625 11.175781 5.152344 11.203125 C 5.179688 11.253906 5.15625 11.296875 5.101562 11.304688 C 5.085938 11.308594 5.070312 11.304688 5.054688 11.304688 Z M 5.054688 11.304688 " fill-opacity="1" fill-rule="nonzero"/></svg>