<svg xmlns="http://www.w3.org/2000/svg" xmlns:xlink="http://www.w3.org/1999/xlink" width="40" zoomAndPan="magnify" viewBox="0 0 30 30.000001" height="40" preserveAspectRatio="xMidYMid meet" version="1.0"><defs><clipPath id="b4249365a7"><path d="M 3.386719 3.207031 L 26.613281 3.207031 L 26.613281 25.707031 L 3.386719 25.707031 Z M 3.386719 3.207031 " clip-rule="nonzero"/></clipPath></defs><g clip-path="url(#b4249365a7)"><path fill="#014d4e" d="M 26.554688 13.414062 C 26.53125 13.335938 26.484375 13.28125 26.410156 13.25 C 26.332031 13.320312 26.449219 13.472656 26.304688 13.503906 C 26.242188 13.429688 26.234375 13.347656 26.171875 13.277344 C 26.074219 13.171875 26.089844 13.207031 25.96875 13.191406 C 25.839844 13.171875 25.878906 13.113281 25.847656 13.015625 C 25.824219 12.933594 25.792969 12.917969 25.699219 12.882812 C 25.691406 12.820312 25.816406 12.625 25.683594 12.585938 C 25.621094 12.570312 25.632812 12.625 25.59375 12.660156 C 25.550781 12.699219 25.492188 12.710938 25.449219 12.75 C 25.375 12.691406 25.367188 12.574219 25.332031 12.496094 C 25.28125 12.378906 25.242188 12.410156 25.132812 12.382812 C 25.078125 12.367188 25.046875 12.363281 25.007812 12.320312 C 24.941406 12.246094 24.992188 12.277344 24.96875 12.195312 C 24.964844 12.167969 24.984375 12.148438 24.96875 12.113281 C 24.953125 12.085938 24.890625 12.089844 24.878906 12.050781 C 24.855469 11.992188 24.910156 11.933594 24.898438 11.859375 C 24.878906 11.765625 24.792969 11.660156 24.71875 11.585938 C 24.570312 11.4375 24.4375 11.554688 24.285156 11.636719 C 24.167969 11.589844 24.199219 11.4375 24.121094 11.394531 C 24.054688 11.355469 24 11.457031 23.945312 11.476562 C 23.800781 11.523438 23.820312 11.347656 23.761719 11.25 C 23.695312 11.140625 23.65625 11.109375 23.71875 10.96875 C 23.667969 10.90625 23.605469 10.875 23.570312 10.792969 C 23.53125 10.695312 23.53125 10.554688 23.59375 10.480469 C 23.679688 10.378906 23.761719 10.398438 23.71875 10.242188 C 23.710938 10.203125 23.695312 10.15625 23.679688 10.109375 C 23.695312 10.078125 23.703125 10.050781 23.703125 10.019531 C 23.714844 9.914062 23.675781 9.785156 23.640625 9.691406 C 23.625 9.632812 23.578125 9.527344 23.652344 9.476562 C 23.714844 9.425781 23.753906 9.496094 23.820312 9.503906 C 23.84375 9.378906 23.925781 9.414062 24.007812 9.371094 C 24.117188 9.3125 24.058594 9.289062 24.042969 9.207031 C 24.019531 9.09375 24.019531 8.9375 24.1875 8.964844 C 24.191406 8.800781 24.304688 8.691406 24.375 8.5625 C 24.417969 8.484375 24.460938 8.363281 24.46875 8.277344 C 24.476562 8.246094 24.445312 8.164062 24.46875 8.136719 C 24.488281 8.117188 24.53125 8.144531 24.550781 8.128906 C 24.648438 8.066406 24.734375 7.941406 24.804688 7.855469 C 24.855469 7.800781 24.902344 7.742188 24.886719 7.660156 C 24.878906 7.621094 24.839844 7.609375 24.835938 7.554688 C 24.824219 7.449219 24.902344 7.300781 24.941406 7.207031 C 25.007812 7.039062 25.015625 6.859375 25.050781 6.683594 C 25.074219 6.558594 25.046875 6.472656 24.941406 6.390625 C 24.824219 6.304688 24.734375 6.347656 24.613281 6.34375 C 24.527344 6.339844 24.480469 6.28125 24.394531 6.273438 C 24.277344 6.261719 24.25 6.3125 24.160156 6.371094 C 24.085938 6.3125 24.105469 6.21875 23.980469 6.222656 C 23.902344 6.230469 23.800781 6.285156 23.722656 6.320312 C 23.546875 6.398438 23.414062 6.550781 23.234375 6.597656 C 23.039062 6.65625 22.8125 6.71875 22.609375 6.703125 C 22.421875 6.6875 22.199219 6.710938 22.039062 6.617188 C 21.914062 6.546875 21.769531 6.371094 21.640625 6.339844 C 21.605469 6.300781 21.574219 6.261719 21.539062 6.222656 C 21.539062 6.21875 21.539062 6.210938 21.539062 6.207031 C 21.539062 6.136719 21.5625 6.074219 21.570312 6.007812 C 21.636719 5.980469 21.726562 6.027344 21.710938 5.925781 C 21.707031 5.890625 21.65625 5.867188 21.640625 5.832031 C 21.621094 5.792969 21.625 5.769531 21.621094 5.726562 C 21.601562 5.578125 21.652344 5.339844 21.40625 5.425781 C 21.390625 5.351562 21.363281 5.289062 21.320312 5.234375 C 21.242188 5.128906 21.0625 5.109375 21.027344 5.007812 C 21.003906 4.941406 21.082031 4.851562 21.03125 4.796875 C 21.003906 4.765625 20.890625 4.753906 20.855469 4.769531 C 20.808594 4.792969 20.8125 4.871094 20.746094 4.851562 C 20.707031 4.839844 20.703125 4.746094 20.648438 4.730469 C 20.597656 4.714844 20.542969 4.769531 20.480469 4.765625 C 20.414062 4.757812 20.367188 4.734375 20.296875 4.734375 C 20.148438 4.746094 20.175781 4.832031 20.054688 4.898438 C 19.964844 4.949219 19.789062 4.925781 19.726562 4.84375 C 19.621094 4.703125 19.582031 4.597656 19.375 4.574219 C 19.246094 4.554688 19.128906 4.625 19.003906 4.589844 C 18.898438 4.5625 18.714844 4.515625 18.652344 4.433594 C 18.578125 4.332031 18.570312 4.269531 18.429688 4.300781 C 18.285156 4.332031 18.179688 4.363281 18.167969 4.503906 C 18.160156 4.652344 18.140625 4.660156 18.007812 4.691406 C 17.816406 4.746094 17.617188 4.796875 17.488281 4.601562 C 17.4375 4.519531 17.441406 4.4375 17.378906 4.363281 C 17.355469 4.332031 17.316406 4.277344 17.277344 4.261719 C 17.210938 4.234375 17.222656 4.269531 17.167969 4.285156 C 17.039062 4.320312 17.054688 4.242188 16.9375 4.21875 C 16.84375 4.199219 16.808594 4.300781 16.761719 4.367188 C 16.699219 4.453125 16.679688 4.453125 16.589844 4.496094 C 16.519531 4.53125 16.5 4.546875 16.480469 4.640625 C 16.464844 4.6875 16.441406 4.792969 16.425781 4.863281 C 16.359375 4.9375 16.320312 5.003906 16.210938 5.046875 C 16.121094 5.082031 16.058594 5.070312 15.980469 5.023438 C 15.820312 4.921875 15.679688 4.769531 15.496094 4.722656 C 15.347656 4.683594 15.320312 4.640625 15.214844 4.539062 C 15.128906 4.457031 15.042969 4.414062 14.9375 4.414062 C 14.871094 4.414062 14.855469 4.398438 14.792969 4.441406 C 14.75 4.472656 14.726562 4.535156 14.683594 4.554688 C 14.621094 4.578125 14.527344 4.546875 14.464844 4.535156 C 14.410156 4.519531 14.308594 4.449219 14.257812 4.472656 C 14.191406 4.503906 14.238281 4.589844 14.144531 4.597656 C 14.074219 4.601562 14.023438 4.535156 13.980469 4.496094 C 13.957031 4.472656 13.925781 4.429688 13.894531 4.417969 C 13.871094 4.410156 13.847656 4.433594 13.816406 4.417969 C 13.722656 4.371094 13.679688 4.183594 13.523438 4.257812 C 13.4375 4.296875 13.488281 4.320312 13.375 4.308594 C 13.300781 4.300781 13.199219 4.304688 13.132812 4.285156 C 12.988281 4.25 12.992188 4.066406 12.855469 4.03125 C 12.808594 4.015625 12.753906 4.050781 12.710938 4.035156 C 12.671875 4.027344 12.628906 3.941406 12.585938 3.9375 C 12.519531 3.929688 12.503906 3.980469 12.492188 4.042969 C 12.472656 4.140625 12.523438 4.171875 12.429688 4.203125 C 12.332031 4.242188 12.175781 4.226562 12.085938 4.199219 C 11.953125 4.15625 11.875 4.070312 11.757812 4.003906 C 11.648438 3.941406 11.503906 3.898438 11.386719 3.851562 C 11.25 3.792969 11.253906 3.757812 11.195312 3.640625 C 11.175781 3.605469 11.132812 3.539062 11.101562 3.515625 C 11.035156 3.457031 11.015625 3.496094 10.945312 3.492188 C 10.816406 3.480469 10.761719 3.378906 10.667969 3.304688 C 10.558594 3.207031 10.460938 3.28125 10.378906 3.386719 C 10.328125 3.457031 10.296875 3.597656 10.222656 3.640625 C 10.144531 3.6875 10.085938 3.632812 10.039062 3.734375 C 10.019531 3.757812 9.957031 3.859375 9.921875 3.925781 C 9.828125 3.898438 9.738281 3.878906 9.648438 3.855469 C 9.570312 3.835938 9.492188 3.773438 9.417969 3.789062 C 9.382812 3.796875 9.359375 3.839844 9.320312 3.851562 C 9.273438 3.863281 9.265625 3.84375 9.214844 3.835938 C 9.039062 3.796875 8.867188 3.738281 8.695312 3.6875 C 8.558594 3.644531 8.460938 3.625 8.335938 3.675781 C 8.214844 3.726562 8.113281 3.644531 8.023438 3.726562 C 7.9375 3.800781 7.871094 3.960938 7.835938 4.070312 C 7.800781 4.203125 7.824219 4.3125 7.6875 4.398438 C 7.601562 4.457031 7.441406 4.46875 7.367188 4.535156 C 7.304688 4.597656 7.355469 4.578125 7.371094 4.652344 C 7.402344 4.757812 7.378906 4.707031 7.324219 4.777344 C 7.257812 4.875 7.339844 4.941406 7.339844 5.042969 C 7.222656 5.117188 7.15625 5.195312 7.164062 5.332031 C 7.164062 5.359375 7.164062 5.394531 7.167969 5.433594 C 7.125 5.4375 7.082031 5.445312 7.039062 5.453125 C 6.914062 5.480469 6.777344 5.574219 6.691406 5.480469 C 6.660156 5.449219 6.664062 5.402344 6.621094 5.382812 C 6.550781 5.347656 6.582031 5.390625 6.515625 5.402344 C 6.476562 5.40625 6.425781 5.429688 6.390625 5.410156 C 6.347656 5.386719 6.351562 5.316406 6.304688 5.289062 C 6.242188 5.253906 6.167969 5.308594 6.109375 5.261719 C 6.042969 5.203125 6.082031 5.09375 6.035156 5.023438 C 5.9375 4.851562 5.785156 4.734375 5.585938 4.714844 C 5.582031 4.652344 5.605469 4.566406 5.585938 4.511719 C 5.5625 4.441406 5.476562 4.382812 5.433594 4.324219 C 5.324219 4.175781 5.332031 3.9375 5.109375 4.042969 C 5.136719 3.867188 5.15625 3.839844 5.015625 3.738281 C 4.878906 3.640625 4.847656 3.613281 4.683594 3.671875 C 4.589844 3.707031 4.632812 3.703125 4.546875 3.671875 C 4.484375 3.648438 4.472656 3.632812 4.398438 3.648438 C 4.351562 3.65625 4.292969 3.710938 4.242188 3.71875 C 4.175781 3.730469 4.121094 3.703125 4.0625 3.675781 C 4.046875 3.75 4.027344 3.78125 3.964844 3.800781 C 3.878906 3.832031 3.890625 3.789062 3.816406 3.863281 C 3.675781 4.007812 3.644531 4.148438 3.707031 4.339844 C 3.75 4.472656 3.863281 4.519531 3.75 4.625 C 3.691406 4.679688 3.632812 4.679688 3.613281 4.765625 C 3.605469 4.816406 3.632812 4.855469 3.625 4.90625 C 3.464844 4.894531 3.558594 5.210938 3.589844 5.304688 C 3.652344 5.472656 3.6875 5.558594 3.675781 5.742188 C 3.636719 5.753906 3.527344 5.730469 3.5 5.75 C 3.441406 5.789062 3.484375 5.824219 3.480469 5.875 C 3.46875 5.964844 3.441406 5.996094 3.457031 6.089844 C 3.46875 6.1875 3.488281 6.273438 3.539062 6.359375 C 3.558594 6.390625 3.605469 6.425781 3.609375 6.464844 C 3.617188 6.511719 3.574219 6.535156 3.601562 6.59375 C 3.628906 6.664062 3.710938 6.726562 3.753906 6.785156 C 3.644531 6.769531 3.625 6.875 3.558594 6.921875 C 3.488281 6.972656 3.390625 6.929688 3.390625 7.019531 C 3.390625 7.0625 3.476562 7.167969 3.496094 7.210938 C 3.527344 7.28125 3.558594 7.34375 3.601562 7.417969 C 3.652344 7.503906 3.691406 7.507812 3.773438 7.566406 C 3.84375 7.617188 3.847656 7.664062 3.886719 7.742188 C 3.910156 7.785156 3.960938 7.894531 4.003906 7.890625 C 4.078125 7.882812 4.082031 7.742188 4.132812 7.734375 C 4.175781 7.71875 4.246094 7.8125 4.300781 7.804688 C 4.351562 7.792969 4.386719 7.738281 4.410156 7.695312 C 4.414062 7.675781 4.421875 7.660156 4.429688 7.640625 C 4.476562 7.703125 4.527344 7.78125 4.535156 7.789062 C 4.539062 7.828125 4.554688 7.9375 4.585938 7.957031 C 4.644531 7.996094 4.675781 7.925781 4.734375 7.976562 C 4.773438 8.015625 4.773438 8.117188 4.789062 8.167969 C 4.816406 8.265625 4.855469 8.285156 4.9375 8.335938 C 5.09375 8.4375 5.21875 8.511719 5.25 8.71875 C 5.28125 8.914062 5.054688 8.863281 5.136719 9.078125 C 5.195312 9.230469 5.300781 9.3125 5.4375 9.390625 C 5.609375 9.484375 5.707031 9.65625 5.765625 9.84375 C 5.816406 10.003906 5.878906 10.183594 5.875 10.355469 C 5.875 10.429688 5.839844 10.476562 5.882812 10.542969 C 5.925781 10.609375 6.050781 10.664062 6.113281 10.707031 C 6.238281 10.792969 6.285156 10.820312 6.253906 10.964844 C 6.226562 11.078125 6.191406 11.203125 6.183594 11.3125 C 6.179688 11.398438 6.210938 11.535156 6.238281 11.621094 C 6.257812 11.679688 6.304688 11.722656 6.363281 11.757812 C 6.347656 11.820312 6.339844 11.882812 6.328125 11.949219 C 6.371094 11.964844 6.382812 12.070312 6.414062 12.125 C 6.472656 12.210938 6.570312 12.246094 6.636719 12.332031 C 6.6875 12.402344 6.71875 12.472656 6.769531 12.535156 C 6.835938 12.617188 6.882812 12.671875 6.894531 12.777344 C 6.910156 12.902344 6.894531 12.914062 7.019531 12.945312 C 7.144531 12.980469 7.09375 12.996094 7.136719 13.09375 C 7.222656 13.28125 7.511719 13.03125 7.570312 13.253906 C 7.59375 13.339844 7.550781 13.488281 7.609375 13.554688 C 7.6875 13.652344 7.871094 13.597656 7.972656 13.644531 C 8.085938 13.703125 8.140625 13.878906 8.175781 13.996094 C 8.21875 14.125 8.292969 14.230469 8.378906 14.335938 C 8.472656 14.449219 8.628906 14.4375 8.722656 14.566406 C 8.820312 14.699219 8.820312 14.808594 8.957031 14.90625 C 9.117188 15.015625 9.257812 15.136719 9.359375 15.300781 C 9.425781 15.417969 9.359375 15.546875 9.425781 15.652344 C 9.46875 15.71875 9.554688 15.800781 9.609375 15.863281 C 9.671875 15.933594 9.722656 15.9375 9.804688 15.976562 C 9.992188 16.0625 10.105469 16.25 10.21875 16.414062 C 10.273438 16.5 10.3125 16.59375 10.378906 16.671875 C 10.445312 16.742188 10.527344 16.796875 10.601562 16.867188 C 10.636719 16.910156 10.761719 17.050781 10.867188 17.132812 C 10.914062 17.210938 10.960938 17.300781 11.003906 17.386719 C 11.097656 17.558594 11.273438 17.535156 11.410156 17.644531 C 11.546875 17.753906 11.625 17.90625 11.773438 18.011719 C 11.855469 18.070312 11.90625 18.136719 12.011719 18.128906 C 12.117188 18.113281 12.191406 18.027344 12.292969 18.074219 C 12.46875 18.15625 12.605469 18.441406 12.621094 18.625 C 12.628906 18.753906 12.554688 18.808594 12.515625 18.917969 C 12.476562 19.027344 12.5625 19.136719 12.621094 19.234375 C 12.726562 19.410156 12.835938 19.574219 12.921875 19.761719 C 12.96875 19.871094 13.019531 20.023438 13.132812 20.074219 C 13.226562 20.117188 13.394531 20.058594 13.472656 20.136719 C 13.542969 20.214844 13.539062 20.429688 13.585938 20.53125 C 13.671875 20.710938 13.835938 20.871094 14.007812 20.972656 C 14.1875 21.078125 14.371094 21.175781 14.558594 21.28125 C 14.957031 21.507812 15.050781 21.980469 15.246094 22.371094 C 15.207031 22.402344 15.167969 22.4375 15.128906 22.46875 C 15.132812 22.464844 15.132812 22.464844 15.128906 22.460938 C 15.050781 22.523438 14.972656 22.589844 14.886719 22.632812 C 14.769531 22.695312 14.65625 22.714844 14.554688 22.804688 C 14.601562 22.921875 14.710938 23.058594 14.804688 23.144531 C 14.875 23.105469 14.886719 22.980469 14.933594 22.914062 C 15 22.824219 15.046875 22.84375 15.152344 22.863281 C 15.238281 22.875 15.34375 22.863281 15.421875 22.882812 C 15.511719 22.90625 15.535156 23.007812 15.613281 23.039062 C 15.726562 23.085938 15.660156 22.945312 15.757812 22.90625 C 15.824219 22.875 15.992188 22.992188 16.03125 23.039062 C 16.101562 23.136719 16.054688 23.265625 16.105469 23.371094 C 16.144531 23.453125 16.269531 23.480469 16.292969 23.546875 C 16.328125 23.632812 16.203125 23.722656 16.296875 23.785156 C 16.332031 23.808594 16.449219 23.796875 16.492188 23.804688 C 16.566406 23.820312 16.632812 23.84375 16.691406 23.886719 C 16.753906 23.929688 16.933594 24.039062 16.96875 24.105469 C 16.988281 24.152344 16.949219 24.199219 16.980469 24.242188 C 17 24.265625 17.101562 24.265625 17.136719 24.269531 C 17.304688 24.300781 17.292969 24.394531 17.410156 24.5 C 17.445312 24.539062 17.515625 24.558594 17.542969 24.605469 C 17.582031 24.664062 17.558594 24.734375 17.585938 24.78125 C 17.625 24.84375 17.660156 24.820312 17.71875 24.855469 C 17.792969 24.898438 17.847656 24.988281 17.902344 25.050781 C 17.992188 25.160156 18.078125 25.121094 18.183594 25.207031 C 18.351562 25.34375 18.355469 25.496094 18.582031 25.429688 C 18.832031 25.351562 19.007812 25.335938 19.214844 25.515625 C 19.304688 25.589844 19.382812 25.691406 19.476562 25.765625 C 19.558594 25.820312 19.554688 25.816406 19.628906 25.773438 C 19.691406 25.738281 19.753906 25.671875 19.78125 25.597656 C 19.839844 25.625 19.898438 25.652344 19.960938 25.679688 C 19.960938 25.679688 19.957031 25.671875 19.957031 25.671875 C 20.042969 25.6875 20.105469 25.710938 20.179688 25.730469 C 20.183594 25.726562 20.183594 25.726562 20.191406 25.722656 C 20.191406 25.578125 20 25.371094 20.09375 25.25 C 20.152344 25.183594 20.316406 25.203125 20.328125 25.140625 C 20.34375 25.066406 20.179688 24.964844 20.171875 24.863281 C 20.167969 24.761719 20.257812 24.691406 20.265625 24.601562 C 20.277344 24.449219 20.175781 24.503906 20.089844 24.480469 C 20.003906 24.457031 19.917969 24.3125 19.871094 24.242188 C 19.78125 24.105469 19.773438 23.96875 19.765625 23.808594 C 19.757812 23.695312 19.726562 23.515625 19.75 23.402344 C 19.773438 23.289062 19.886719 23.308594 19.929688 23.203125 C 19.980469 23.074219 19.90625 22.992188 19.871094 22.890625 C 19.796875 22.71875 19.820312 22.550781 19.894531 22.382812 C 19.945312 22.253906 19.976562 22.035156 20.097656 21.960938 C 20.226562 21.886719 20.472656 21.871094 20.621094 21.886719 C 20.773438 21.90625 20.847656 21.949219 20.871094 21.75 C 20.882812 21.636719 20.882812 21.507812 20.875 21.394531 C 20.859375 21.253906 20.878906 21.113281 20.878906 20.976562 C 20.875 20.816406 20.871094 20.582031 20.988281 20.460938 C 21.109375 20.335938 21.175781 20.363281 21.148438 20.167969 C 21.085938 19.742188 21.800781 19.691406 21.960938 19.375 C 21.976562 19.34375 21.992188 19.273438 22.003906 19.222656 C 22.050781 19.21875 22.097656 19.214844 22.113281 19.210938 C 22.238281 19.222656 22.347656 19.089844 22.453125 19.210938 C 22.472656 19.234375 22.472656 19.277344 22.496094 19.304688 C 22.523438 19.332031 22.558594 19.347656 22.585938 19.375 C 22.652344 19.457031 22.632812 19.496094 22.609375 19.59375 C 22.589844 19.660156 22.554688 19.730469 22.617188 19.785156 C 22.6875 19.847656 22.722656 19.773438 22.769531 19.867188 C 22.804688 19.933594 22.765625 20.023438 22.863281 20.058594 C 22.949219 20.085938 22.972656 19.957031 22.996094 19.878906 C 23.019531 19.792969 23.03125 19.664062 23.101562 19.597656 C 23.179688 19.523438 23.25 19.570312 23.34375 19.585938 C 23.375 19.476562 23.273438 19.339844 23.230469 19.234375 C 23.1875 19.117188 23.089844 19.003906 23.0625 18.882812 C 23.035156 18.753906 23.097656 18.679688 22.980469 18.566406 C 22.898438 18.488281 22.777344 18.449219 22.664062 18.410156 C 22.683594 18.308594 22.707031 18.214844 22.621094 18.140625 C 22.527344 18.066406 22.488281 18.136719 22.480469 17.980469 C 22.46875 17.8125 22.515625 17.863281 22.644531 17.832031 C 22.792969 17.792969 22.742188 17.628906 22.867188 17.585938 C 23.011719 17.535156 23.085938 17.699219 23.117188 17.800781 C 23.164062 17.984375 23.203125 17.949219 23.351562 17.863281 C 23.460938 17.796875 23.5625 17.847656 23.667969 17.78125 C 23.71875 17.75 23.773438 17.6875 23.839844 17.675781 C 23.894531 17.667969 24.035156 17.699219 24.09375 17.710938 C 24.261719 17.746094 24.347656 17.820312 24.375 17.589844 C 24.394531 17.433594 24.371094 17.1875 24.609375 17.207031 C 24.691406 17.21875 24.679688 17.265625 24.75 17.273438 C 24.804688 17.285156 24.925781 17.199219 24.96875 17.175781 C 25.035156 17.136719 25.082031 17.074219 25.160156 17.125 C 25.195312 17.152344 25.261719 17.292969 25.273438 17.34375 C 25.292969 17.402344 25.265625 17.515625 25.316406 17.5625 C 25.402344 17.640625 25.441406 17.527344 25.496094 17.476562 C 25.640625 17.328125 25.71875 17.507812 25.859375 17.433594 C 26.015625 17.351562 25.84375 17.113281 25.847656 16.996094 C 25.855469 16.910156 25.886719 16.910156 25.925781 16.839844 C 25.980469 16.742188 25.980469 16.605469 25.960938 16.503906 C 25.929688 16.371094 25.882812 16.203125 25.820312 16.078125 C 25.753906 15.9375 25.621094 15.832031 25.519531 15.71875 C 25.480469 15.675781 25.449219 15.617188 25.402344 15.585938 C 25.355469 15.546875 25.292969 15.527344 25.246094 15.484375 C 25.199219 15.4375 25.179688 15.375 25.152344 15.316406 C 25.113281 15.246094 25.054688 15.1875 25.015625 15.117188 C 24.96875 15.023438 24.949219 14.949219 24.886719 14.863281 C 24.835938 14.789062 24.78125 14.714844 24.734375 14.632812 C 24.65625 14.503906 24.558594 14.382812 24.488281 14.253906 C 24.410156 14.097656 24.410156 13.917969 24.394531 13.738281 C 24.414062 13.757812 24.433594 13.769531 24.453125 13.785156 C 24.574219 13.894531 24.71875 13.808594 24.847656 13.886719 C 24.96875 13.957031 25.136719 14.171875 25.289062 14.148438 C 25.285156 14.121094 25.304688 14.101562 25.304688 14.078125 C 25.441406 14.121094 25.535156 14.21875 25.6875 14.195312 C 25.78125 14.183594 26.03125 14.191406 26.09375 14.109375 C 26.136719 14.058594 26.09375 14.003906 26.160156 13.953125 C 26.21875 13.90625 26.308594 13.933594 26.367188 13.886719 C 26.414062 13.84375 26.398438 13.773438 26.453125 13.730469 C 26.523438 13.667969 26.589844 13.738281 26.597656 13.625 C 26.609375 13.609375 26.566406 13.472656 26.554688 13.414062 Z M 15.335938 22.511719 C 15.339844 22.519531 15.34375 22.523438 15.34375 22.53125 C 15.34375 22.527344 15.339844 22.519531 15.335938 22.511719 Z M 15.335938 22.511719 " fill-opacity="1" fill-rule="nonzero"/></g></svg>