<svg xmlns="http://www.w3.org/2000/svg" xmlns:xlink="http://www.w3.org/1999/xlink" width="40" zoomAndPan="magnify" viewBox="0 0 30 30.000001" height="40" preserveAspectRatio="xMidYMid meet" version="1.0"><defs><clipPath id="049140ffee"><path d="M 6 2.902344 L 24 2.902344 L 24 26.128906 L 6 26.128906 Z M 6 2.902344 " clip-rule="nonzero"/></clipPath></defs><g clip-path="url(#049140ffee)"><path fill="#014d4e" d="M 6.46875 8.3125 C 6.523438 8.421875 6.597656 8.53125 6.648438 8.671875 C 6.8125 9 6.777344 9.070312 6.6875 9.339844 C 6.648438 9.449219 6.597656 9.59375 6.542969 9.753906 C 6.414062 10.242188 6.542969 10.710938 6.648438 11.160156 C 6.703125 11.398438 6.777344 11.632812 6.792969 11.867188 C 6.8125 11.972656 6.832031 12.082031 6.832031 12.191406 C 6.902344 12.695312 6.9375 12.984375 6.738281 13.523438 C 6.558594 14.046875 6.722656 14.425781 6.867188 14.714844 C 6.972656 14.949219 7.027344 15.058594 6.957031 15.21875 C 6.777344 15.722656 6.902344 15.996094 7.027344 16.246094 C 7.101562 16.390625 7.171875 16.554688 7.207031 16.824219 C 7.226562 17.09375 7.191406 17.167969 7.101562 17.273438 C 6.957031 17.492188 6.832031 17.726562 6.992188 18.210938 C 7.082031 18.445312 7.066406 18.589844 7.046875 18.734375 C 7.027344 19.007812 7.027344 19.257812 7.335938 19.601562 C 7.390625 19.65625 7.425781 19.710938 7.460938 19.746094 C 7.820312 20.140625 8.019531 20.359375 7.875 20.882812 C 7.785156 21.1875 7.730469 21.476562 7.875 21.710938 C 8.019531 21.945312 8.253906 22 8.542969 22.070312 C 8.6875 22.109375 8.832031 22.144531 9.03125 22.214844 C 9.191406 22.269531 9.226562 22.34375 9.246094 22.394531 C 9.355469 22.628906 9.210938 23.027344 9.15625 23.152344 C 9.066406 23.335938 9.136719 23.53125 9.300781 23.621094 C 9.734375 23.855469 10.039062 23.894531 10.347656 23.929688 C 10.671875 23.964844 11.015625 24.019531 11.664062 24.34375 C 12.492188 24.777344 12.90625 24.703125 13.320312 24.558594 C 13.519531 24.507812 13.628906 24.46875 13.84375 24.523438 C 14.097656 24.597656 14.1875 24.757812 14.3125 25.066406 C 14.457031 25.390625 14.636719 25.785156 15.144531 26.003906 C 15.359375 26.09375 15.539062 26.128906 15.71875 26.128906 C 16.152344 26.128906 16.496094 25.914062 16.785156 25.730469 C 16.929688 25.640625 17.054688 25.550781 17.179688 25.515625 C 17.523438 25.371094 17.8125 25.046875 17.992188 24.578125 C 18.011719 24.558594 18.027344 24.542969 18.046875 24.542969 C 18.730469 24.613281 19.109375 24.054688 19.398438 23.660156 C 19.542969 23.460938 19.8125 23.351562 20.011719 23.316406 C 20.246094 23.261719 20.445312 23.136719 20.625 22.9375 C 20.660156 22.902344 20.714844 22.863281 20.769531 22.8125 C 20.984375 22.648438 21.328125 22.359375 21.328125 21.875 C 21.328125 21.746094 21.363281 21.730469 21.382812 21.710938 C 21.597656 21.601562 21.777344 21.421875 21.90625 21.1875 C 21.976562 21.042969 22.140625 20.917969 22.320312 20.792969 C 22.609375 20.574219 22.96875 20.324219 23.003906 19.816406 C 23.042969 19.277344 23.457031 18.933594 23.457031 18.933594 C 23.472656 18.917969 23.511719 18.898438 23.527344 18.863281 C 23.980469 18.25 23.796875 17.796875 23.65625 17.472656 C 23.601562 17.347656 23.5625 17.238281 23.546875 17.128906 C 23.511719 16.464844 23.023438 16.03125 22.96875 15.996094 C 22.898438 15.921875 22.789062 15.90625 22.699219 15.90625 C 22.589844 15.921875 22.5 15.976562 22.445312 16.050781 C 22.355469 16.175781 22.265625 16.191406 21.90625 16.050781 C 21.832031 16.03125 21.777344 15.996094 21.707031 15.976562 C 21.671875 15.921875 21.636719 15.851562 21.597656 15.796875 C 21.402344 15.472656 21.148438 15.019531 20.734375 14.914062 C 20.535156 14.859375 20.355469 14.894531 20.175781 15.003906 C 20.046875 15.074219 19.941406 15.09375 19.8125 15.039062 C 19.597656 14.949219 19.417969 14.695312 19.34375 14.390625 C 19.199219 13.777344 18.695312 13.757812 18.390625 13.742188 C 18.136719 13.722656 17.972656 13.703125 17.828125 13.558594 C 17.757812 13.46875 17.6875 13.378906 17.632812 13.308594 C 17.269531 12.875 17.074219 12.660156 16.171875 12.460938 C 15.46875 12.316406 15.359375 11.972656 15.144531 11.214844 L 15.089844 11.019531 C 14.925781 10.496094 14.601562 10.1875 14.351562 9.917969 C 14.117188 9.683594 13.988281 9.539062 13.953125 9.339844 C 13.898438 8.90625 13.644531 8.671875 13.464844 8.511719 C 13.285156 8.347656 13.214844 8.277344 13.230469 8.042969 C 13.269531 7.5 12.996094 7.214844 12.78125 7.015625 C 12.617188 6.835938 12.511719 6.726562 12.492188 6.472656 C 12.457031 5.914062 12.277344 5.714844 12.042969 5.554688 C 11.933594 5.480469 11.84375 5.410156 11.753906 5.191406 C 11.554688 4.761719 11.230469 4.5625 10.976562 4.398438 C 10.726562 4.253906 10.542969 4.148438 10.453125 3.859375 C 10.183594 3.046875 9.5 2.902344 9.101562 3.011719 C 8.957031 3.046875 8.851562 3.136719 8.851562 3.28125 C 8.832031 3.316406 8.722656 3.5 8.253906 3.535156 C 7.550781 3.589844 7.316406 4.003906 7.117188 4.363281 C 7.011719 4.5625 6.882812 4.777344 6.6875 4.957031 C 6.144531 5.445312 6.21875 5.859375 6.269531 6.167969 C 6.308594 6.347656 6.324219 6.472656 6.253906 6.671875 C 6.019531 7.464844 6.234375 7.878906 6.46875 8.3125 Z M 6.46875 8.3125 " fill-opacity="1" fill-rule="nonzero"/></g></svg>