<svg xmlns="http://www.w3.org/2000/svg" xmlns:xlink="http://www.w3.org/1999/xlink" width="40" zoomAndPan="magnify" viewBox="0 0 30 30.000001" height="40" preserveAspectRatio="xMidYMid meet" version="1.0"><defs><clipPath id="548efa729e"><path d="M 0.484375 0 L 29.515625 0 L 29.515625 29.03125 L 0.484375 29.03125 Z M 0.484375 0 " clip-rule="nonzero"/></clipPath><clipPath id="8690a0e747"><path d="M 6.609375 2.902344 L 23.304688 2.902344 L 23.304688 26.128906 L 6.609375 26.128906 Z M 6.609375 2.902344 " clip-rule="nonzero"/></clipPath></defs><g clip-path="url(#548efa729e)"><path fill="#ffffff" d="M 0.484375 0 L 29.515625 0 L 29.515625 29.03125 L 0.484375 29.03125 Z M 0.484375 0 " fill-opacity="1" fill-rule="nonzero"/><path fill="#ffffff" d="M 0.484375 0 L 29.515625 0 L 29.515625 29.03125 L 0.484375 29.03125 Z M 0.484375 0 " fill-opacity="1" fill-rule="nonzero"/></g><g clip-path="url(#8690a0e747)"><path fill="#014d4e" d="M 8.007812 2.964844 C 7.816406 3.183594 7.722656 3.429688 7.769531 3.597656 C 7.796875 3.6875 7.824219 3.679688 7.894531 3.5625 C 7.90625 3.542969 8.039062 3.578125 8.167969 3.628906 C 8.285156 3.679688 8.285156 3.679688 8.308594 3.777344 C 8.316406 3.820312 8.335938 3.886719 8.351562 3.925781 C 8.382812 4.011719 8.398438 3.996094 8.21875 4.03125 C 8.179688 4.035156 8.167969 4.042969 8.132812 4.082031 C 8.066406 4.15625 8.027344 4.179688 7.972656 4.179688 C 7.894531 4.179688 7.859375 4.234375 7.839844 4.394531 C 7.824219 4.527344 7.785156 4.554688 7.523438 4.644531 C 7.324219 4.710938 7.242188 4.773438 7.207031 4.902344 C 7.191406 4.953125 7.179688 4.96875 7.132812 4.992188 C 7.085938 5.015625 7.089844 5.046875 7.152344 5.140625 C 7.191406 5.195312 7.183594 5.234375 7.117188 5.289062 C 7.027344 5.367188 7.023438 5.375 7.003906 5.46875 C 6.988281 5.574219 6.972656 5.601562 6.914062 5.660156 C 6.859375 5.710938 6.855469 5.734375 6.890625 5.789062 C 6.929688 5.839844 6.941406 5.894531 6.941406 5.992188 C 6.941406 6.117188 6.976562 6.234375 7.03125 6.292969 C 7.058594 6.320312 7.074219 6.320312 7.136719 6.277344 C 7.230469 6.207031 7.347656 6.195312 7.460938 6.238281 C 7.503906 6.253906 7.527344 6.269531 7.714844 6.433594 C 7.738281 6.453125 7.765625 6.484375 7.78125 6.503906 C 7.808594 6.542969 7.96875 6.679688 8.023438 6.714844 C 8.070312 6.742188 8.082031 6.785156 8.101562 6.960938 C 8.109375 7.03125 8.117188 7.042969 8.183594 7.082031 C 8.261719 7.132812 8.300781 7.175781 8.382812 7.308594 C 8.433594 7.390625 8.476562 7.40625 8.648438 7.414062 C 8.773438 7.421875 8.785156 7.425781 8.875 7.488281 C 9.003906 7.582031 9.011719 7.582031 9.132812 7.5 C 9.160156 7.480469 9.195312 7.464844 9.226562 7.460938 C 9.253906 7.457031 9.285156 7.449219 9.304688 7.445312 C 9.324219 7.441406 9.335938 7.433594 9.34375 7.410156 L 9.359375 7.382812 L 9.390625 7.417969 C 9.453125 7.488281 9.480469 7.582031 9.472656 7.710938 L 9.46875 7.800781 L 9.503906 7.863281 C 9.519531 7.898438 9.539062 7.945312 9.546875 7.96875 C 9.558594 8.03125 9.597656 8.070312 9.675781 8.097656 C 9.707031 8.105469 9.765625 8.128906 9.804688 8.148438 C 9.878906 8.179688 9.949219 8.199219 10.03125 8.210938 C 10.082031 8.214844 10.097656 8.226562 10.097656 8.25 C 10.097656 8.273438 10.035156 8.382812 9.988281 8.441406 C 9.910156 8.546875 9.898438 8.5625 9.886719 8.597656 C 9.878906 8.621094 9.871094 8.660156 9.867188 8.6875 C 9.859375 8.777344 9.808594 8.785156 9.710938 8.710938 C 9.546875 8.585938 9.503906 8.585938 9.402344 8.707031 C 9.308594 8.816406 9.238281 8.820312 9.121094 8.726562 C 9.09375 8.707031 9.042969 8.675781 9.011719 8.65625 L 8.945312 8.628906 L 8.835938 8.628906 C 8.75 8.628906 8.703125 8.632812 8.648438 8.648438 C 8.550781 8.671875 8.550781 8.671875 8.429688 8.632812 C 8.183594 8.550781 8.097656 8.617188 8.09375 8.898438 C 8.089844 9.058594 8.085938 9.078125 8.027344 9.164062 C 7.9375 9.285156 7.871094 9.429688 7.832031 9.574219 C 7.796875 9.707031 7.761719 9.761719 7.691406 9.796875 C 7.609375 9.835938 7.46875 9.765625 7.417969 9.664062 C 7.347656 9.527344 7.304688 9.515625 7.128906 9.570312 C 6.964844 9.625 6.921875 9.675781 6.976562 9.757812 C 6.992188 9.78125 7.011719 9.808594 7.019531 9.824219 C 7.082031 9.917969 7.027344 10.042969 6.894531 10.105469 C 6.828125 10.136719 6.808594 10.164062 6.796875 10.234375 C 6.789062 10.28125 6.769531 10.308594 6.742188 10.332031 C 6.710938 10.355469 6.695312 10.386719 6.6875 10.449219 C 6.683594 10.484375 6.671875 10.507812 6.652344 10.535156 C 6.609375 10.597656 6.613281 10.625 6.671875 10.695312 C 6.746094 10.785156 6.761719 10.828125 6.800781 11.046875 C 6.847656 11.296875 6.847656 11.300781 6.964844 11.320312 C 7.148438 11.347656 7.269531 11.402344 7.484375 11.542969 C 7.527344 11.574219 7.601562 11.621094 7.640625 11.640625 C 7.71875 11.683594 7.816406 11.746094 7.902344 11.8125 C 8.082031 11.953125 8.199219 12.007812 8.382812 12.039062 C 8.535156 12.066406 8.574219 12.078125 8.65625 12.117188 C 8.75 12.160156 8.785156 12.164062 8.828125 12.125 C 8.847656 12.113281 8.871094 12.09375 8.882812 12.085938 C 8.972656 12.011719 9.121094 12.332031 9.082031 12.527344 C 9.070312 12.585938 9.070312 12.585938 9.023438 12.578125 C 8.972656 12.574219 8.96875 12.574219 8.941406 12.652344 C 8.875 12.824219 8.933594 13.085938 9.058594 13.1875 L 9.09375 13.210938 L 9.066406 13.242188 C 9.046875 13.269531 9.011719 13.347656 9.011719 13.367188 C 9.011719 13.375 9.023438 13.390625 9.039062 13.410156 C 9.054688 13.429688 9.070312 13.449219 9.070312 13.457031 C 9.070312 13.472656 8.980469 13.609375 8.964844 13.621094 C 8.953125 13.628906 8.90625 13.664062 8.863281 13.703125 L 8.78125 13.773438 L 8.71875 13.765625 C 8.605469 13.757812 8.566406 13.789062 8.566406 13.90625 C 8.566406 13.972656 8.546875 14.015625 8.492188 14.078125 C 8.4375 14.140625 8.433594 14.15625 8.453125 14.253906 L 8.46875 14.332031 L 8.441406 14.410156 C 8.378906 14.59375 8.378906 14.65625 8.441406 14.722656 L 8.476562 14.757812 L 8.472656 14.8125 C 8.460938 14.910156 8.484375 14.941406 8.589844 14.953125 C 8.691406 14.964844 8.738281 14.996094 8.75 15.066406 C 8.757812 15.109375 8.761719 15.113281 8.84375 15.167969 C 8.917969 15.21875 8.992188 15.289062 9.03125 15.347656 C 9.074219 15.410156 9.085938 15.414062 9.113281 15.382812 C 9.214844 15.265625 9.246094 15.367188 9.160156 15.542969 C 9.113281 15.636719 9.105469 15.6875 9.117188 15.753906 C 9.128906 15.808594 9.121094 15.828125 9.074219 15.859375 C 8.988281 15.914062 8.953125 15.972656 8.953125 16.0625 C 8.953125 16.242188 9.082031 16.324219 9.375 16.335938 C 9.519531 16.339844 9.550781 16.347656 9.71875 16.425781 C 9.773438 16.453125 9.824219 16.476562 9.828125 16.476562 C 9.828125 16.476562 9.851562 16.480469 9.878906 16.488281 C 9.933594 16.503906 9.929688 16.507812 9.84375 16.535156 C 9.757812 16.558594 9.742188 16.578125 9.722656 16.675781 C 9.699219 16.769531 9.652344 16.835938 9.582031 16.875 C 9.480469 16.929688 9.46875 16.953125 9.46875 17.160156 C 9.46875 17.429688 9.484375 17.488281 9.574219 17.527344 C 9.640625 17.558594 9.660156 17.585938 9.703125 17.695312 C 9.746094 17.796875 9.761719 17.820312 9.800781 17.828125 C 9.84375 17.835938 9.84375 17.8125 9.808594 18.070312 C 9.804688 18.105469 9.789062 18.136719 9.765625 18.148438 C 9.722656 18.171875 9.722656 18.277344 9.765625 18.398438 C 9.785156 18.453125 9.78125 18.488281 9.753906 18.613281 C 9.738281 18.699219 9.734375 18.722656 9.75 18.867188 L 9.757812 18.910156 L 9.695312 18.972656 C 9.59375 19.066406 9.597656 19.105469 9.714844 19.144531 C 9.804688 19.175781 9.816406 19.1875 9.855469 19.265625 C 9.910156 19.378906 9.917969 19.476562 9.882812 19.582031 C 9.839844 19.703125 9.863281 19.78125 10.117188 20.367188 C 10.246094 20.664062 10.25 20.6875 10.1875 20.761719 C 10.15625 20.796875 10.148438 20.808594 10.148438 20.835938 C 10.148438 20.886719 10.179688 21.015625 10.203125 21.058594 C 10.269531 21.191406 10.261719 21.335938 10.1875 21.445312 C 10.132812 21.523438 10.144531 21.617188 10.242188 21.882812 C 10.308594 22.066406 10.46875 22.140625 10.558594 22.035156 C 10.601562 21.984375 10.597656 21.980469 10.660156 22.175781 C 10.71875 22.367188 10.722656 22.429688 10.679688 22.523438 C 10.640625 22.597656 10.6875 22.632812 10.789062 22.609375 C 10.875 22.589844 10.929688 22.515625 10.941406 22.40625 C 10.945312 22.355469 10.949219 22.335938 10.964844 22.3125 C 11.023438 22.238281 11.035156 22.132812 11 21.992188 C 10.988281 21.941406 11 21.921875 11.035156 21.929688 C 11.082031 21.941406 11.097656 21.914062 11.089844 21.824219 C 11.082031 21.726562 11.089844 21.710938 11.164062 21.660156 C 11.230469 21.617188 11.238281 21.597656 11.230469 21.46875 C 11.226562 21.359375 11.230469 21.347656 11.265625 21.417969 C 11.328125 21.566406 11.335938 21.65625 11.296875 21.761719 C 11.242188 21.902344 11.242188 21.980469 11.289062 22.179688 C 11.324219 22.316406 11.332031 22.324219 11.398438 22.324219 C 11.488281 22.324219 11.546875 22.261719 11.558594 22.148438 C 11.566406 22.078125 11.578125 22.054688 11.632812 22.023438 C 11.667969 22.003906 11.679688 21.992188 11.683594 21.976562 C 11.6875 21.964844 11.691406 21.949219 11.691406 21.945312 C 11.695312 21.941406 11.683594 21.90625 11.671875 21.871094 C 11.644531 21.796875 11.644531 21.789062 11.691406 21.730469 C 11.726562 21.683594 11.765625 21.664062 11.824219 21.664062 C 11.867188 21.660156 11.867188 21.664062 11.863281 21.589844 C 11.863281 21.441406 11.84375 21.328125 11.800781 21.199219 L 11.773438 21.109375 L 11.796875 21.136719 C 11.855469 21.214844 11.875 21.21875 11.929688 21.175781 C 11.949219 21.160156 11.96875 21.144531 11.972656 21.144531 C 11.976562 21.144531 11.984375 21.144531 11.988281 21.144531 C 11.992188 21.140625 11.996094 21.191406 11.996094 21.25 C 11.996094 21.386719 12.003906 21.46875 12.019531 21.519531 C 12.039062 21.589844 12.039062 21.601562 11.949219 21.730469 C 11.828125 21.914062 11.816406 22.007812 11.898438 22.136719 C 11.921875 22.171875 11.921875 22.179688 11.921875 22.246094 C 11.921875 22.328125 11.929688 22.351562 11.980469 22.375 C 12.078125 22.425781 12.144531 22.359375 12.128906 22.234375 C 12.125 22.210938 12.121094 22.175781 12.117188 22.152344 L 12.113281 22.109375 L 12.148438 22.097656 C 12.199219 22.074219 12.234375 22.078125 12.304688 22.113281 C 12.515625 22.210938 12.660156 22.066406 12.457031 21.960938 C 12.300781 21.878906 12.214844 21.683594 12.285156 21.554688 L 12.300781 21.519531 L 12.3125 21.542969 C 12.332031 21.589844 12.335938 21.625 12.324219 21.691406 C 12.3125 21.777344 12.324219 21.792969 12.4375 21.855469 C 12.609375 21.949219 12.675781 21.949219 12.675781 21.851562 C 12.675781 21.816406 12.695312 21.816406 12.71875 21.84375 C 12.753906 21.886719 12.796875 21.894531 12.847656 21.878906 C 12.871094 21.871094 12.914062 21.863281 12.945312 21.855469 C 13.03125 21.84375 13.039062 21.835938 13.046875 21.753906 C 13.046875 21.730469 13.050781 21.726562 13.085938 21.71875 C 13.105469 21.714844 13.132812 21.710938 13.144531 21.710938 C 13.207031 21.695312 13.207031 21.617188 13.148438 21.515625 C 13.09375 21.425781 13.078125 21.363281 13.0625 21.195312 C 13.050781 21.074219 13.046875 21.070312 12.960938 20.984375 C 12.921875 20.945312 12.894531 20.910156 12.894531 20.90625 C 12.90625 20.898438 12.976562 20.898438 13.042969 20.90625 C 13.109375 20.914062 13.117188 20.898438 13.101562 20.808594 C 13.097656 20.777344 13.09375 20.6875 13.09375 20.609375 C 13.09375 20.511719 13.089844 20.445312 13.082031 20.40625 C 13.007812 20.074219 13.011719 20.035156 13.113281 19.917969 C 13.191406 19.828125 13.210938 19.746094 13.183594 19.628906 C 13.15625 19.515625 13.167969 19.492188 13.222656 19.558594 C 13.332031 19.683594 13.34375 19.757812 13.269531 19.910156 C 13.207031 20.042969 13.199219 20.085938 13.199219 20.324219 C 13.199219 20.421875 13.203125 20.4375 13.230469 20.539062 L 13.265625 20.648438 L 13.265625 20.832031 C 13.269531 21.105469 13.289062 21.167969 13.371094 21.191406 C 13.402344 21.199219 13.433594 21.167969 13.476562 21.101562 C 13.515625 21.03125 13.53125 21.03125 13.53125 21.097656 C 13.53125 21.207031 13.585938 21.292969 13.660156 21.289062 C 13.765625 21.285156 13.832031 21.246094 13.84375 21.179688 C 13.851562 21.136719 13.871094 21.152344 13.871094 21.199219 C 13.871094 21.296875 13.84375 21.339844 13.761719 21.367188 C 13.671875 21.398438 13.652344 21.433594 13.660156 21.5625 C 13.664062 21.671875 13.65625 21.726562 13.625 21.796875 C 13.566406 21.925781 13.71875 21.949219 13.804688 21.824219 C 13.886719 21.703125 13.929688 21.691406 13.917969 21.785156 C 13.898438 21.9375 13.914062 21.992188 13.992188 22.023438 C 14.128906 22.074219 14.203125 22.066406 14.378906 21.976562 C 14.546875 21.894531 14.550781 21.886719 14.582031 21.714844 C 14.59375 21.628906 14.605469 21.613281 14.667969 21.582031 L 14.71875 21.554688 L 14.71875 21.464844 C 14.71875 21.390625 14.734375 21.261719 14.75 21.210938 C 14.75 21.203125 14.757812 21.195312 14.769531 21.191406 C 14.777344 21.191406 14.796875 21.171875 14.808594 21.148438 C 14.84375 21.09375 14.953125 20.9375 14.988281 20.898438 C 15.035156 20.847656 15.039062 20.847656 15.089844 20.894531 C 15.195312 20.988281 15.277344 20.953125 15.34375 20.789062 C 15.40625 20.617188 15.4375 20.570312 15.546875 20.457031 C 15.773438 20.21875 15.878906 19.914062 15.882812 19.503906 C 15.882812 19.390625 15.789062 19.191406 15.660156 19.042969 C 15.589844 18.960938 15.582031 18.953125 15.511719 18.769531 C 15.457031 18.640625 15.441406 18.605469 15.386719 18.507812 C 15.371094 18.484375 15.355469 18.441406 15.351562 18.398438 C 15.332031 18.292969 15.308594 18.257812 15.214844 18.160156 C 15.082031 18.027344 15.054688 17.960938 15.09375 17.859375 L 15.105469 17.835938 L 15.132812 17.867188 C 15.179688 17.914062 15.238281 17.9375 15.328125 17.949219 C 15.589844 17.976562 15.59375 17.976562 15.710938 17.945312 C 15.859375 17.902344 16.003906 17.804688 16.101562 17.683594 C 16.144531 17.625 16.316406 17.667969 16.414062 17.757812 C 16.492188 17.828125 16.511719 17.835938 16.585938 17.828125 C 16.761719 17.804688 16.921875 17.828125 17.011719 17.886719 C 17.113281 17.953125 17.324219 18.039062 17.40625 18.050781 C 17.425781 18.054688 17.597656 18.058594 17.789062 18.0625 C 18.03125 18.0625 18.144531 18.066406 18.164062 18.074219 C 18.214844 18.089844 18.265625 18.078125 18.300781 18.042969 C 18.339844 18.007812 18.347656 18.007812 18.417969 18.070312 C 18.484375 18.125 18.511719 18.117188 18.511719 18.03125 L 18.511719 17.996094 L 18.527344 18.011719 C 18.539062 18.019531 18.566406 18.054688 18.589844 18.085938 C 18.644531 18.152344 18.664062 18.164062 18.734375 18.167969 C 18.855469 18.179688 18.914062 18.222656 19.164062 18.460938 C 19.285156 18.578125 19.390625 18.6875 19.398438 18.703125 C 19.40625 18.71875 19.421875 18.75 19.429688 18.773438 C 19.449219 18.828125 19.480469 18.871094 19.53125 18.921875 C 19.789062 19.195312 19.984375 19.621094 20.007812 19.960938 C 20.03125 20.285156 20.101562 20.355469 20.269531 20.226562 C 20.324219 20.179688 20.324219 20.1875 20.253906 20.433594 C 20.234375 20.507812 20.265625 20.664062 20.328125 20.8125 C 20.386719 20.953125 20.398438 20.992188 20.421875 21.109375 C 20.460938 21.296875 20.46875 21.34375 20.480469 21.550781 C 20.488281 21.667969 20.496094 21.796875 20.503906 21.84375 C 20.519531 21.988281 20.5 22.050781 20.390625 22.242188 C 20.285156 22.425781 20.285156 22.480469 20.394531 22.589844 C 20.464844 22.664062 20.46875 22.691406 20.414062 22.839844 C 20.363281 22.980469 20.359375 23.019531 20.382812 23.09375 C 20.414062 23.183594 20.453125 23.257812 20.480469 23.273438 C 20.511719 23.289062 20.585938 23.300781 20.585938 23.289062 C 20.585938 23.273438 20.621094 23.277344 20.660156 23.296875 C 20.8125 23.367188 20.96875 23.679688 21.003906 23.988281 C 21.042969 24.339844 21.085938 24.519531 21.140625 24.585938 C 21.164062 24.613281 21.207031 24.667969 21.238281 24.710938 C 21.269531 24.753906 21.316406 24.8125 21.339844 24.839844 C 21.363281 24.867188 21.410156 24.933594 21.441406 24.988281 C 21.472656 25.039062 21.507812 25.09375 21.519531 25.109375 C 21.546875 25.144531 21.578125 25.210938 21.617188 25.3125 C 21.695312 25.519531 21.746094 25.609375 21.851562 25.726562 C 21.902344 25.785156 21.921875 25.816406 21.980469 25.9375 C 22.058594 26.101562 22.082031 26.125 22.144531 26.089844 C 22.214844 26.054688 22.207031 25.933594 22.121094 25.761719 C 22.097656 25.714844 22.0625 25.640625 22.042969 25.597656 C 22.023438 25.550781 21.992188 25.480469 21.972656 25.441406 C 21.941406 25.386719 21.933594 25.355469 21.925781 25.300781 C 21.917969 25.257812 21.914062 25.214844 21.910156 25.199219 C 21.910156 25.1875 21.894531 25.144531 21.875 25.105469 C 21.835938 25.027344 21.835938 25.027344 21.84375 24.929688 C 21.851562 24.859375 21.839844 24.820312 21.800781 24.773438 C 21.789062 24.765625 21.773438 24.738281 21.765625 24.71875 C 21.753906 24.699219 21.730469 24.664062 21.71875 24.640625 C 21.660156 24.550781 21.644531 24.40625 21.667969 24.214844 C 21.683594 24.089844 21.683594 24.003906 21.660156 23.925781 C 21.632812 23.824219 21.648438 23.792969 21.804688 23.625 C 21.855469 23.566406 21.867188 23.546875 21.882812 23.496094 L 21.902344 23.4375 L 21.984375 23.441406 C 22.109375 23.449219 22.136719 23.4375 22.226562 23.316406 C 22.3125 23.203125 22.382812 23.25 22.453125 23.464844 C 22.515625 23.652344 22.570312 23.6875 22.769531 23.65625 C 22.902344 23.636719 22.988281 23.730469 23.03125 23.9375 C 23.054688 24.066406 23.085938 24.109375 23.148438 24.109375 C 23.226562 24.109375 23.34375 24.015625 23.367188 23.933594 L 23.382812 23.886719 L 23.347656 23.773438 C 23.328125 23.710938 23.300781 23.632812 23.289062 23.601562 C 23.09375 23.136719 23.035156 22.230469 23.167969 21.839844 C 23.214844 21.707031 23.21875 21.660156 23.203125 21.554688 C 23.191406 21.480469 23.171875 21.414062 23.066406 20.988281 C 22.992188 20.707031 22.992188 20.636719 23.0625 20.625 C 23.121094 20.613281 23.148438 20.523438 23.105469 20.480469 C 23.101562 20.476562 23.097656 20.464844 23.097656 20.457031 C 23.097656 20.449219 23.089844 20.429688 23.082031 20.410156 C 23.070312 20.394531 23.058594 20.335938 23.050781 20.277344 C 23.015625 20.023438 22.964844 19.722656 22.925781 19.546875 C 22.832031 19.117188 22.777344 18.800781 22.730469 18.367188 C 22.71875 18.273438 22.703125 18.234375 22.644531 18.1875 C 22.527344 18.089844 22.472656 17.917969 22.515625 17.796875 C 22.539062 17.730469 22.53125 17.707031 22.488281 17.679688 C 22.371094 17.597656 22.226562 17.441406 22.210938 17.382812 C 22.207031 17.363281 22.203125 17.277344 22.199219 17.191406 C 22.199219 17.003906 22.191406 16.953125 22.132812 16.828125 L 22.097656 16.746094 L 22.09375 16.625 C 22.089844 16.539062 22.09375 16.480469 22.105469 16.429688 C 22.128906 16.289062 22.15625 16.144531 22.175781 16.066406 C 22.21875 15.886719 22.1875 15.722656 22.074219 15.527344 C 21.972656 15.351562 21.898438 15.140625 21.839844 14.863281 C 21.820312 14.773438 21.796875 14.664062 21.789062 14.625 C 21.777344 14.570312 21.773438 14.527344 21.777344 14.441406 C 21.777344 14.246094 21.71875 14.257812 21.65625 14.464844 C 21.609375 14.609375 21.597656 14.613281 21.535156 14.5 C 21.4375 14.304688 21.363281 14.308594 21.136719 14.523438 C 21.0625 14.59375 21.035156 14.609375 20.980469 14.609375 C 20.871094 14.609375 20.796875 14.554688 20.648438 14.378906 L 20.628906 14.351562 L 20.609375 14.371094 C 20.59375 14.390625 20.59375 14.390625 20.589844 14.796875 C 20.585938 15.339844 20.589844 15.328125 20.425781 15.4375 C 20.242188 15.558594 20.179688 15.679688 20.144531 15.945312 C 20.140625 16 20.125 16.109375 20.113281 16.191406 C 20.082031 16.390625 20.082031 16.523438 20.113281 16.710938 C 20.136719 16.875 20.136719 16.878906 20.117188 16.902344 C 20.101562 16.925781 20.03125 16.925781 19.960938 16.90625 C 19.878906 16.882812 19.875 16.890625 19.886719 17.054688 C 19.894531 17.175781 19.894531 17.179688 19.808594 17.179688 C 19.703125 17.179688 19.613281 17.210938 19.523438 17.285156 C 19.425781 17.367188 19.367188 17.363281 19.300781 17.261719 C 19.28125 17.230469 19.242188 17.1875 19.214844 17.164062 C 19.1875 17.136719 19.148438 17.09375 19.128906 17.058594 L 19.089844 17 L 19.089844 16.628906 L 19.050781 16.554688 C 19.027344 16.511719 19 16.460938 18.988281 16.441406 C 18.945312 16.34375 18.75 16.179688 18.683594 16.179688 C 18.59375 16.179688 18.582031 16.265625 18.601562 16.671875 C 18.613281 16.957031 18.578125 17.070312 18.5 16.988281 C 18.40625 16.886719 18.367188 16.660156 18.390625 16.371094 C 18.410156 16.175781 18.402344 15.933594 18.382812 15.898438 C 18.371094 15.878906 18.367188 15.859375 18.367188 15.835938 C 18.367188 15.785156 18.34375 15.757812 18.261719 15.714844 C 18.171875 15.664062 18.15625 15.648438 18.117188 15.542969 C 18.097656 15.496094 18.054688 15.402344 18.015625 15.335938 C 17.976562 15.269531 17.9375 15.199219 17.925781 15.179688 C 17.882812 15.105469 17.871094 15.054688 17.871094 14.9375 C 17.867188 14.84375 17.863281 14.820312 17.84375 14.761719 C 17.8125 14.667969 17.816406 14.628906 17.855469 14.632812 C 17.933594 14.640625 17.9375 14.640625 17.933594 14.609375 C 17.929688 14.566406 17.902344 14.527344 17.863281 14.507812 C 17.769531 14.453125 17.777344 14.363281 17.878906 14.332031 C 17.988281 14.300781 18.015625 14.261719 18.027344 14.117188 C 18.03125 14.078125 18.046875 14.007812 18.058594 13.964844 C 18.09375 13.847656 18.105469 13.785156 18.121094 13.6875 C 18.144531 13.515625 18.152344 13.503906 18.265625 13.476562 C 18.480469 13.417969 18.570312 13.335938 18.617188 13.148438 C 18.6875 12.890625 18.722656 12.867188 19.003906 12.910156 C 19.269531 12.953125 19.417969 12.863281 19.570312 12.570312 C 19.609375 12.496094 19.597656 12.488281 19.667969 12.628906 C 19.730469 12.757812 19.738281 12.761719 19.839844 12.710938 C 19.945312 12.660156 19.972656 12.609375 19.964844 12.476562 C 19.957031 12.386719 19.964844 12.375 20.03125 12.375 C 20.105469 12.375 20.160156 12.4375 20.203125 12.578125 C 20.246094 12.714844 20.300781 12.765625 20.390625 12.765625 C 20.507812 12.765625 20.550781 12.691406 20.554688 12.472656 C 20.558594 12.398438 20.5625 12.308594 20.570312 12.277344 C 20.578125 12.238281 20.578125 12.195312 20.574219 12.136719 C 20.558594 11.964844 20.5625 11.953125 20.589844 11.949219 C 20.648438 11.941406 20.707031 11.980469 20.746094 12.054688 C 20.792969 12.140625 20.847656 12.027344 20.8125 11.925781 C 20.78125 11.84375 20.78125 11.832031 20.8125 11.824219 C 20.847656 11.808594 20.914062 11.808594 20.972656 11.820312 C 21.222656 11.871094 21.394531 11.683594 21.332031 11.421875 C 21.292969 11.261719 21.308594 11.207031 21.421875 11.085938 C 21.527344 10.976562 21.53125 10.964844 21.539062 10.792969 L 21.546875 10.652344 L 21.582031 10.570312 C 21.71875 10.273438 21.746094 10.171875 21.722656 10.027344 C 21.691406 9.835938 21.742188 9.78125 21.886719 9.859375 C 22.132812 9.988281 22.101562 9.980469 22.328125 9.949219 C 22.339844 9.949219 22.375 9.945312 22.40625 9.941406 C 22.652344 9.917969 22.679688 9.890625 22.652344 9.710938 C 22.621094 9.535156 22.527344 9.441406 22.378906 9.441406 L 22.320312 9.441406 L 22.242188 9.359375 C 22.15625 9.273438 22.125 9.25 21.949219 9.144531 C 21.773438 9.039062 21.6875 9 21.464844 8.925781 C 21.351562 8.886719 21.320312 8.867188 21.25 8.808594 C 21.152344 8.722656 21.109375 8.703125 20.917969 8.660156 C 20.75 8.625 20.199219 8.664062 19.9375 8.730469 C 19.917969 8.734375 19.890625 8.714844 19.890625 8.691406 C 19.890625 8.621094 19.832031 8.625 19.753906 8.699219 C 19.703125 8.746094 19.683594 8.757812 19.636719 8.773438 C 19.605469 8.785156 19.558594 8.808594 19.527344 8.832031 C 19.433594 8.90625 19.410156 8.902344 19.332031 8.820312 C 19.28125 8.765625 19.277344 8.761719 19.285156 8.734375 C 19.289062 8.71875 19.292969 8.691406 19.292969 8.679688 C 19.304688 8.625 19.242188 8.648438 19.136719 8.730469 C 18.984375 8.855469 18.914062 8.859375 18.621094 8.761719 C 18.578125 8.746094 18.488281 8.726562 18.425781 8.714844 C 18.300781 8.695312 18.257812 8.679688 18.171875 8.617188 C 18.085938 8.554688 18.046875 8.546875 17.980469 8.589844 C 17.898438 8.640625 17.761719 8.664062 17.527344 8.667969 C 17.429688 8.671875 17.308594 8.679688 17.261719 8.683594 C 17.214844 8.6875 17.167969 8.6875 17.152344 8.6875 C 17.136719 8.683594 17.109375 8.6875 17.074219 8.699219 C 17.035156 8.710938 16.996094 8.71875 16.957031 8.71875 C 16.910156 8.71875 16.898438 8.722656 16.898438 8.734375 C 16.894531 8.742188 16.886719 8.75 16.871094 8.75 C 16.804688 8.75 16.699219 8.761719 16.640625 8.773438 C 16.507812 8.796875 16.472656 8.789062 16.394531 8.726562 C 16.332031 8.675781 16.3125 8.679688 16.226562 8.734375 C 16.132812 8.800781 15.996094 8.796875 15.960938 8.726562 C 15.9375 8.675781 15.902344 8.671875 15.792969 8.722656 C 15.71875 8.757812 15.664062 8.761719 15.476562 8.746094 C 15.386719 8.738281 15.378906 8.738281 15.289062 8.765625 C 15.050781 8.828125 15.007812 8.828125 14.800781 8.742188 C 14.628906 8.671875 14.539062 8.640625 14.453125 8.625 C 14.414062 8.613281 14.339844 8.597656 14.289062 8.585938 C 14.238281 8.574219 14.148438 8.554688 14.09375 8.542969 C 13.769531 8.480469 13.636719 8.429688 13.425781 8.285156 C 13.257812 8.171875 13.242188 8.167969 13.167969 8.203125 C 13.09375 8.238281 13.097656 8.238281 12.96875 8.0625 C 12.914062 7.992188 12.917969 7.917969 12.988281 7.761719 C 13.046875 7.628906 13.058594 7.585938 13.074219 7.488281 C 13.082031 7.445312 13.097656 7.363281 13.113281 7.3125 C 13.164062 7.140625 13.148438 6.996094 13.050781 6.75 C 12.972656 6.550781 12.957031 6.460938 12.988281 6.347656 C 13 6.292969 13.003906 6.246094 13.003906 6.160156 L 13.007812 6.039062 L 13.050781 5.96875 C 13.109375 5.871094 13.164062 5.746094 13.15625 5.722656 C 13.152344 5.707031 13.136719 5.695312 13.097656 5.675781 C 13.027344 5.640625 13.027344 5.632812 13.09375 5.546875 L 13.140625 5.484375 L 13.121094 5.46875 C 13.109375 5.457031 13.085938 5.453125 13.066406 5.453125 C 13.003906 5.453125 12.992188 5.441406 12.96875 5.386719 C 12.957031 5.359375 12.933594 5.304688 12.914062 5.265625 C 12.878906 5.207031 12.875 5.183594 12.871094 5.132812 C 12.867188 5.066406 12.859375 5.050781 12.8125 4.972656 C 12.742188 4.859375 12.683594 4.820312 12.578125 4.800781 C 12.511719 4.792969 12.5 4.773438 12.5 4.675781 C 12.5 4.574219 12.492188 4.554688 12.457031 4.535156 C 12.378906 4.5 12.328125 4.539062 12.3125 4.648438 C 12.304688 4.699219 12.28125 4.734375 12.230469 4.769531 C 12.152344 4.828125 12.148438 4.847656 12.195312 4.914062 C 12.292969 5.050781 12.285156 5.039062 12.285156 5.089844 C 12.285156 5.148438 12.257812 5.199219 12.167969 5.292969 C 12.105469 5.359375 12.085938 5.390625 12.058594 5.496094 C 12.050781 5.527344 12.042969 5.550781 12.039062 5.550781 C 12.019531 5.550781 11.964844 5.515625 11.914062 5.472656 C 11.855469 5.421875 11.820312 5.410156 11.765625 5.425781 C 11.714844 5.441406 11.675781 5.429688 11.605469 5.382812 C 11.511719 5.324219 11.484375 5.328125 11.414062 5.402344 C 11.382812 5.433594 11.382812 5.433594 11.355469 5.425781 C 11.300781 5.410156 11.183594 5.308594 11.175781 5.269531 C 11.160156 5.199219 11.117188 5.167969 11.03125 5.15625 C 10.957031 5.148438 10.949219 5.144531 10.90625 5.070312 C 10.851562 4.976562 10.78125 4.925781 10.683594 4.90625 C 10.609375 4.890625 10.609375 4.890625 10.601562 4.695312 C 10.59375 4.515625 10.589844 4.503906 10.5625 4.410156 C 10.53125 4.316406 10.53125 4.230469 10.558594 4.203125 C 10.601562 4.152344 10.566406 4.097656 10.457031 4.058594 C 10.421875 4.042969 10.382812 4.023438 10.367188 4.007812 L 10.335938 3.980469 L 10.355469 3.941406 C 10.398438 3.867188 10.355469 3.839844 10.199219 3.828125 C 10.097656 3.820312 10.105469 3.824219 10.011719 3.738281 C 9.9375 3.664062 9.921875 3.664062 9.816406 3.714844 C 9.6875 3.777344 9.683594 3.816406 9.808594 3.929688 C 9.878906 3.996094 9.898438 4.027344 9.917969 4.109375 C 9.945312 4.21875 9.972656 4.242188 10.085938 4.238281 L 10.160156 4.234375 L 10.175781 4.261719 C 10.183594 4.277344 10.191406 4.308594 10.191406 4.328125 C 10.191406 4.359375 10.195312 4.363281 10.214844 4.375 L 10.238281 4.386719 L 10.222656 4.4375 C 10.199219 4.5 10.203125 4.496094 10.089844 4.464844 C 9.964844 4.425781 9.960938 4.425781 9.914062 4.375 C 9.808594 4.265625 9.628906 4.320312 9.605469 4.46875 C 9.601562 4.515625 9.59375 4.519531 9.550781 4.5 C 9.507812 4.484375 9.453125 4.429688 9.410156 4.367188 C 9.351562 4.277344 9.308594 4.269531 9.179688 4.320312 C 8.949219 4.414062 8.839844 4.378906 9.046875 4.28125 C 9.144531 4.230469 9.210938 4.179688 9.210938 4.144531 C 9.210938 4.097656 9.195312 4.085938 9.042969 3.988281 C 8.980469 3.949219 8.976562 3.941406 8.976562 3.894531 C 8.976562 3.828125 8.945312 3.785156 8.859375 3.746094 C 8.785156 3.707031 8.71875 3.65625 8.660156 3.589844 C 8.59375 3.515625 8.554688 3.488281 8.457031 3.464844 C 8.371094 3.441406 8.320312 3.40625 8.273438 3.339844 C 8.226562 3.265625 8.214844 3.257812 8.15625 3.234375 C 8.097656 3.210938 8.097656 3.207031 8.101562 3.144531 C 8.105469 3.101562 8.089844 2.960938 8.078125 2.941406 C 8.074219 2.9375 8.074219 2.929688 8.082031 2.929688 C 8.09375 2.917969 8.089844 2.90625 8.074219 2.90625 C 8.066406 2.90625 8.035156 2.933594 8.007812 2.964844 M 16.757812 17.988281 C 16.734375 17.996094 16.664062 18.027344 16.605469 18.058594 C 16.546875 18.089844 16.492188 18.117188 16.484375 18.117188 C 16.4375 18.117188 16.484375 18.238281 16.582031 18.375 C 16.65625 18.488281 16.664062 18.5 16.65625 18.589844 C 16.648438 18.722656 16.695312 18.773438 16.90625 18.867188 C 16.996094 18.902344 17.035156 18.933594 17.066406 18.992188 C 17.125 19.09375 17.203125 19.082031 17.394531 18.953125 C 17.511719 18.875 17.539062 18.871094 17.632812 18.917969 C 17.796875 19 17.90625 18.894531 17.820312 18.734375 C 17.789062 18.667969 17.765625 18.652344 17.703125 18.644531 C 17.628906 18.636719 17.632812 18.636719 17.632812 18.527344 C 17.632812 18.40625 17.625 18.390625 17.570312 18.390625 C 17.527344 18.390625 17.488281 18.414062 17.445312 18.460938 C 17.398438 18.519531 17.394531 18.519531 17.324219 18.449219 L 17.261719 18.386719 L 17.28125 18.347656 C 17.359375 18.167969 16.980469 17.910156 16.757812 17.988281 M 15.976562 18.03125 C 15.894531 18.066406 15.78125 18.179688 15.703125 18.296875 C 15.675781 18.335938 15.636719 18.390625 15.617188 18.414062 C 15.511719 18.539062 15.503906 18.6875 15.605469 18.632812 C 15.617188 18.628906 15.621094 18.628906 15.621094 18.636719 C 15.621094 18.644531 15.636719 18.664062 15.652344 18.679688 C 15.703125 18.730469 15.707031 18.746094 15.714844 18.855469 C 15.722656 18.992188 15.730469 19.011719 15.800781 19.046875 C 15.964844 19.132812 16.019531 19.296875 16.027344 19.6875 C 16.035156 20.011719 16.015625 20.101562 15.914062 20.265625 C 15.890625 20.304688 15.859375 20.359375 15.839844 20.386719 C 15.773438 20.5 15.808594 20.625 15.914062 20.652344 C 15.929688 20.65625 15.960938 20.664062 15.984375 20.667969 C 16.0625 20.6875 16.074219 20.734375 16.054688 20.980469 C 16.042969 21.113281 16.074219 21.152344 16.121094 21.0625 C 16.144531 21.015625 16.164062 21 16.199219 20.992188 C 16.238281 20.980469 16.289062 20.929688 16.339844 20.839844 L 16.386719 20.757812 L 16.441406 20.746094 C 16.585938 20.71875 16.648438 20.601562 16.621094 20.417969 C 16.59375 20.226562 16.605469 20.089844 16.667969 19.894531 C 16.808594 19.453125 16.824219 19.371094 16.777344 19.226562 C 16.761719 19.175781 16.75 19.15625 16.65625 19 C 16.632812 18.960938 16.582031 18.878906 16.546875 18.8125 C 16.511719 18.75 16.472656 18.683594 16.460938 18.664062 C 16.414062 18.578125 16.328125 18.332031 16.304688 18.210938 C 16.289062 18.128906 16.273438 18.105469 16.238281 18.105469 C 16.210938 18.105469 16.171875 18.089844 16.101562 18.042969 C 16.046875 18.011719 16.027344 18.007812 15.976562 18.03125 M 18.496094 18.574219 C 18.480469 18.601562 18.488281 18.625 18.515625 18.671875 C 18.597656 18.8125 18.628906 18.933594 18.625 19.121094 C 18.625 19.304688 18.625 19.308594 18.707031 19.445312 C 18.796875 19.589844 18.832031 19.632812 18.894531 19.671875 C 18.9375 19.699219 18.953125 19.726562 18.953125 19.785156 C 18.953125 20.015625 19.222656 19.757812 19.246094 19.503906 C 19.25 19.457031 19.261719 19.398438 19.269531 19.375 C 19.289062 19.320312 19.277344 19.300781 19.15625 19.179688 C 19.039062 19.058594 19.019531 19.023438 19 18.914062 C 18.972656 18.75 18.953125 18.722656 18.820312 18.648438 C 18.71875 18.589844 18.703125 18.585938 18.640625 18.601562 C 18.605469 18.609375 18.597656 18.609375 18.558594 18.589844 C 18.507812 18.566406 18.503906 18.5625 18.496094 18.574219 M 17.445312 19.199219 C 17.371094 19.226562 17.328125 19.277344 17.328125 19.339844 C 17.332031 19.378906 17.355469 19.441406 17.375 19.453125 C 17.386719 19.457031 17.386719 19.464844 17.371094 19.503906 L 17.351562 19.546875 L 17.378906 19.625 C 17.414062 19.730469 17.417969 19.769531 17.398438 19.890625 C 17.378906 20.007812 17.367188 20.105469 17.359375 20.207031 C 17.355469 20.246094 17.351562 20.289062 17.351562 20.304688 C 17.347656 20.332031 17.339844 20.457031 17.332031 20.664062 C 17.328125 20.820312 17.332031 20.828125 17.402344 20.824219 C 17.558594 20.808594 17.589844 20.773438 17.621094 20.617188 C 17.632812 20.558594 17.652344 20.539062 17.757812 20.457031 C 17.839844 20.394531 17.847656 20.386719 17.863281 20.292969 C 17.898438 20.085938 17.859375 19.863281 17.734375 19.617188 C 17.699219 19.546875 17.695312 19.507812 17.722656 19.398438 C 17.75 19.277344 17.734375 19.242188 17.652344 19.210938 C 17.597656 19.1875 17.488281 19.183594 17.445312 19.199219 " fill-opacity="1" fill-rule="evenodd"/></g></svg>