<svg xmlns="http://www.w3.org/2000/svg" xmlns:xlink="http://www.w3.org/1999/xlink" width="40" zoomAndPan="magnify" viewBox="0 0 30 30.000001" height="40" preserveAspectRatio="xMidYMid meet" version="1.0"><defs><clipPath id="ff6e5155ac"><path d="M 3.386719 5 L 26.613281 5 L 26.613281 23.835938 L 3.386719 23.835938 Z M 3.386719 5 " clip-rule="nonzero"/></clipPath></defs><g clip-path="url(#ff6e5155ac)"><path fill="#014d4e" d="M 21.023438 24.0625 C 20.832031 23.921875 20.753906 23.464844 20.734375 23.246094 C 20.6875 23.066406 20.40625 22.898438 20.25 22.828125 C 20.25 22.828125 20.03125 23.027344 20.03125 23.027344 C 20.21875 22.617188 20.042969 22.515625 19.765625 22.253906 C 19.765625 22.253906 19.175781 22.253906 19.175781 22.253906 C 18.917969 21.90625 18.300781 21.398438 17.910156 21.21875 C 17.703125 21.40625 17.554688 21.4375 17.292969 21.28125 C 17.257812 20.976562 17.3125 20.488281 17.515625 20.246094 C 17.414062 19.992188 17.160156 19.820312 16.898438 19.785156 C 17.011719 19.691406 17.109375 18.128906 17.449219 18.546875 C 17.414062 18.273438 17.5 17.894531 17.117188 17.886719 C 16.523438 18.367188 16.324219 18.5625 16.28125 19.363281 C 15.34375 19.542969 15.035156 20.316406 13.984375 19.695312 C 13.765625 19.695312 13.167969 19.84375 13.015625 19.585938 C 13.15625 19.421875 13.027344 19.296875 12.925781 19.164062 C 13.449219 18.75 13.640625 18.804688 13.300781 18.128906 C 13.101562 18.03125 12.675781 18.328125 13.035156 17.863281 C 12.988281 17.445312 13.167969 17.261719 13.476562 17.027344 C 13.257812 16.769531 13.246094 16.621094 12.96875 16.9375 C 12.917969 16.640625 12.507812 16.199219 12.285156 16.011719 C 11.082031 16.644531 11.933594 15.90625 10.632812 16.121094 C 10.304688 16.882812 10.339844 16.210938 10.082031 15.921875 C 10.214844 15.363281 10.152344 15.148438 9.773438 14.730469 C 9.773438 14.730469 9.152344 14.820312 9.152344 14.820312 C 9.257812 14.488281 9.277344 14.445312 8.933594 14.355469 C 8.933594 14.355469 8.449219 14.753906 8.449219 14.753906 L 7.875 14.464844 L 7.808594 13.652344 C 7.625 13.410156 7.640625 13.042969 7.742188 12.769531 C 7.507812 12.601562 7.015625 12.105469 6.882812 11.839844 C 6.566406 12.03125 5.519531 12.40625 5.515625 12.902344 C 5.390625 12.703125 5.101562 12.488281 4.832031 12.527344 C 4.582031 12.140625 4.554688 11.644531 3.925781 11.777344 C 3.90625 11.5 3.578125 10.667969 3.925781 10.453125 C 3.925781 10.453125 3.394531 9.128906 3.394531 9.128906 C 3.535156 8.972656 7.476562 6.785156 7.234375 6.480469 C 7.234375 6.480469 7.390625 6.769531 7.390625 6.769531 L 8.359375 6.394531 C 8.511719 6.679688 8.488281 6.816406 8.292969 7.054688 C 8.59375 7.558594 8.707031 7.640625 9.285156 7.605469 C 9.175781 7.144531 9.328125 7.167969 9.726562 7.03125 C 9.726562 7.03125 10.917969 7.539062 10.917969 7.539062 C 10.828125 8.105469 11.152344 7.933594 11.535156 8.023438 C 11.796875 7.921875 12.433594 7.542969 12.707031 7.496094 C 12.859375 7.3125 13.734375 6.628906 13.5 6.328125 C 14.59375 6.226562 14.253906 6.835938 14.734375 6.328125 C 14.589844 6.171875 14.375 5.847656 14.492188 5.597656 C 15.085938 5.511719 15.402344 4.964844 15.375 5.886719 C 16.238281 5.949219 16.234375 5.878906 16.675781 5.179688 C 16.675781 5.179688 17.160156 5.3125 17.160156 5.3125 C 17.164062 5.804688 17.253906 5.863281 16.71875 5.796875 C 16.808594 6.160156 17.246094 5.96875 17.492188 5.953125 C 17.492188 5.953125 17.691406 6.195312 17.691406 6.195312 C 17.859375 6.03125 18.308594 5.507812 18.285156 5.246094 C 18.617188 5.355469 18.746094 5.457031 18.773438 5.820312 C 18.410156 6.195312 18.617188 6.234375 18.882812 6.546875 C 18.882812 7.207031 19.191406 6.652344 19.542969 6.988281 C 19.457031 7.554688 19.753906 7.363281 20.140625 7.429688 C 20.242188 7.148438 20.488281 7.359375 20.667969 7.429688 C 20.667969 7.429688 21.023438 7.046875 21.023438 7.046875 C 21.363281 7.28125 21.570312 7.496094 21.550781 7.9375 C 21.820312 8.054688 22.40625 8.148438 22.699219 8.15625 C 22.816406 8.464844 22.769531 8.636719 23.074219 8.332031 C 23.589844 8.78125 22.785156 8.765625 22.699219 9.769531 C 22.839844 10.023438 22.640625 10.105469 22.457031 10.230469 C 22.871094 10.492188 22.335938 10.878906 22.082031 11.023438 C 21.933594 11.292969 21.960938 11.710938 22.324219 11.753906 C 22.152344 12.570312 22.296875 12.253906 22.808594 11.996094 C 23.097656 12.730469 23.335938 11.722656 23.691406 12.347656 C 23.925781 12.324219 24.519531 12.140625 24.398438 12.570312 C 24.832031 12.398438 25.070312 13.164062 25.257812 13.40625 C 25.257812 13.40625 25.808594 13.453125 25.808594 13.453125 L 25.191406 14.113281 C 25.449219 14.832031 25.503906 14.78125 26.230469 14.753906 C 26.34375 15.054688 26.542969 15.605469 26.207031 15.835938 C 26.207031 15.835938 26.605469 16.253906 26.605469 16.253906 C 26.335938 16.574219 26.320312 16.601562 25.964844 16.363281 C 25.871094 16.921875 25.730469 16.984375 25.214844 17.15625 C 25.148438 17.335938 25.464844 17.875 25.015625 17.710938 C 25 18.207031 25.007812 18.152344 24.730469 17.777344 C 24.210938 18.375 24.667969 17.457031 23.957031 17.730469 C 23.929688 18.136719 23.792969 18.257812 23.425781 18.414062 C 23.3125 18.59375 23.339844 19.335938 22.984375 19.253906 C 22.984375 19.253906 23.207031 19.5625 23.207031 19.5625 C 22.375 19.726562 23.007812 19.96875 22.523438 20.3125 C 23.0625 20.523438 22.875 20.554688 22.609375 20.953125 C 22.765625 21.269531 23.066406 22.027344 23.539062 22.054688 C 23.441406 22.242188 23.160156 22.441406 23.558594 22.472656 C 23.660156 22.675781 23.398438 22.941406 23.273438 23.070312 C 23.273438 23.070312 23.601562 23.730469 23.515625 23.710938 C 23.117188 23.722656 21.832031 23.375 21.792969 23.910156 C 21.445312 23.671875 21.277344 23.828125 21.023438 24.0625 " fill-opacity="1" fill-rule="nonzero"/></g></svg>