<svg xmlns="http://www.w3.org/2000/svg" xmlns:xlink="http://www.w3.org/1999/xlink" width="40" zoomAndPan="magnify" viewBox="0 0 30 30.000001" height="40" preserveAspectRatio="xMidYMid meet" version="1.0"><defs><clipPath id="8d95e9521d"><path d="M 0.484375 0 L 29.515625 0 L 29.515625 29.03125 L 0.484375 29.03125 Z M 0.484375 0 " clip-rule="nonzero"/></clipPath><clipPath id="ef11158587"><path d="M 3.386719 5.140625 L 26.613281 5.140625 L 26.613281 24 L 3.386719 24 Z M 3.386719 5.140625 " clip-rule="nonzero"/></clipPath></defs><g clip-path="url(#8d95e9521d)"><path fill="#ffffff" d="M 0.484375 0 L 29.515625 0 L 29.515625 29.03125 L 0.484375 29.03125 Z M 0.484375 0 " fill-opacity="1" fill-rule="nonzero"/><path fill="#ffffff" d="M 0.484375 0 L 29.515625 0 L 29.515625 29.03125 L 0.484375 29.03125 Z M 0.484375 0 " fill-opacity="1" fill-rule="nonzero"/></g><g clip-path="url(#ef11158587)"><path fill="#014d4e" d="M 23.484375 17.402344 C 23.425781 17.390625 23.378906 17.40625 23.339844 17.449219 C 23.136719 17.65625 22.914062 17.875 22.71875 18.113281 C 22.050781 18.917969 21.203125 18.992188 20.269531 18.742188 C 20.078125 18.691406 19.890625 18.617188 19.699219 18.550781 C 19.101562 18.347656 18.535156 18.296875 18.023438 18.789062 C 17.789062 19.011719 17.496094 19.078125 17.175781 18.851562 C 17.039062 18.757812 16.816406 18.769531 16.636719 18.769531 C 15.039062 18.777344 13.441406 18.792969 11.84375 18.808594 C 11.527344 18.8125 11.164062 19.4375 11.300781 19.792969 C 11.65625 20.703125 11.785156 21.644531 11.742188 22.617188 C 11.730469 22.859375 11.847656 23.113281 11.824219 23.351562 C 11.808594 23.5 11.714844 23.640625 11.632812 23.785156 C 11.585938 23.863281 11.523438 23.886719 11.4375 23.855469 C 11.3125 23.808594 11.183594 23.761719 11.109375 23.671875 C 10.832031 23.34375 10.609375 22.964844 10.335938 22.632812 C 10.238281 22.511719 10.054688 22.414062 9.90625 22.402344 C 9.203125 22.34375 8.476562 22.167969 7.820312 22.566406 C 7.613281 22.691406 7.476562 22.921875 7.289062 23.085938 C 7.195312 23.167969 7.023438 23.292969 6.953125 23.257812 C 6.390625 22.984375 5.820312 22.707031 5.296875 22.367188 C 5.105469 22.242188 5.011719 21.941406 4.910156 21.707031 C 4.738281 21.3125 4.59375 20.957031 4.046875 20.949219 C 3.570312 20.945312 3.386719 20.558594 3.480469 20.089844 C 3.574219 19.597656 3.585938 19.089844 3.667969 18.59375 C 3.703125 18.40625 3.796875 18.183594 3.941406 18.070312 C 4.320312 17.761719 4.496094 17.171875 4.28125 16.714844 C 4.179688 16.496094 4.242188 16.191406 4.007812 16.042969 C 3.941406 16.003906 3.917969 15.945312 3.933594 15.871094 C 3.957031 15.777344 3.976562 15.6875 4.03125 15.660156 C 4.554688 15.417969 5.023438 15.066406 5.667969 15.082031 C 6.226562 15.097656 6.800781 14.144531 6.652344 13.574219 C 6.460938 12.824219 6.453125 12.789062 7.105469 12.621094 C 7.1875 12.601562 7.230469 12.546875 7.226562 12.464844 C 7.226562 12.449219 7.222656 12.4375 7.214844 12.421875 C 6.847656 11.882812 7.023438 11.488281 7.496094 11.105469 C 7.703125 10.941406 7.792969 10.636719 7.957031 10.410156 C 8.003906 10.34375 8.066406 10.289062 8.144531 10.21875 C 8.191406 10.179688 8.242188 10.171875 8.300781 10.191406 C 8.359375 10.210938 8.394531 10.25 8.40625 10.308594 C 8.511719 10.800781 8.875 10.988281 9.242188 11.167969 C 9.292969 11.195312 9.34375 11.191406 9.390625 11.164062 L 9.949219 10.855469 C 10.023438 10.816406 10.046875 10.757812 10.027344 10.675781 C 9.960938 10.402344 9.886719 10.101562 9.816406 9.800781 C 9.800781 9.730469 9.769531 9.613281 9.800781 9.59375 C 9.863281 9.550781 9.964844 9.527344 10.039062 9.542969 C 10.285156 9.589844 10.523438 9.65625 10.800781 9.722656 C 10.894531 9.746094 10.960938 9.714844 10.992188 9.621094 C 11.078125 9.371094 11.152344 9.140625 11.238281 8.914062 C 11.625 7.863281 12.15625 7.617188 13.210938 8.003906 C 13.226562 8.007812 13.242188 8.011719 13.257812 8.015625 C 13.359375 8.035156 13.425781 7.996094 13.445312 7.890625 C 13.546875 7.417969 13.957031 7.289062 14.367188 7.097656 C 15.003906 6.796875 15.589844 6.375 16.183594 5.988281 C 16.457031 5.8125 16.691406 5.574219 16.96875 5.410156 C 17.175781 5.285156 17.433594 5.140625 17.652344 5.164062 C 18.339844 5.230469 19.023438 5.355469 19.699219 5.496094 C 20.152344 5.589844 20.332031 5.90625 20.246094 6.367188 C 20.152344 6.839844 20.027344 7.320312 20.558594 7.648438 C 20.625 7.6875 20.675781 7.820312 20.664062 7.898438 C 20.546875 8.585938 21.058594 9.003906 21.355469 9.507812 C 21.425781 9.628906 21.582031 9.707031 21.703125 9.792969 C 22.152344 10.105469 22.601562 10.417969 23.054688 10.726562 L 22.988281 11.1875 L 22.597656 11.320312 C 22.5 11.355469 22.464844 11.421875 22.496094 11.519531 C 22.675781 12.128906 23.449219 12.96875 24.003906 13.039062 C 24.195312 13.0625 24.414062 12.949219 24.605469 12.859375 C 24.902344 12.71875 25.238281 12.585938 25.457031 12.871094 C 25.691406 13.179688 25.824219 13.570312 25.945312 13.945312 C 25.960938 13.996094 25.792969 14.105469 25.625 14.230469 C 25.535156 14.292969 25.523438 14.371094 25.589844 14.457031 C 26.199219 15.238281 26.613281 16.074219 25.636719 16.929688 C 25.03125 17.460938 24.3125 17.554688 23.484375 17.402344 Z M 23.484375 17.402344 " fill-opacity="1" fill-rule="nonzero"/></g></svg>