<svg xmlns="http://www.w3.org/2000/svg" xmlns:xlink="http://www.w3.org/1999/xlink" width="40" zoomAndPan="magnify" viewBox="0 0 30 30.000001" height="40" preserveAspectRatio="xMidYMid meet" version="1.0"><defs><clipPath id="bcfdd73b23"><path d="M 3.394531 6.574219 L 26.605469 6.574219 L 26.605469 22.453125 L 3.394531 22.453125 Z M 3.394531 6.574219 " clip-rule="nonzero"/></clipPath></defs><g clip-path="url(#bcfdd73b23)"><path fill="#014d4e" d="M 24.480469 10.601562 L 24.253906 10.878906 L 24.300781 12.625 L 24.269531 13.539062 C 24.269531 13.539062 23.484375 13.914062 23.371094 13.964844 C 23.257812 14.011719 22.816406 14.796875 22.816406 14.796875 L 23.386719 14.78125 L 24.105469 15.203125 L 24.238281 15.839844 C 24.238281 15.839844 24.792969 15.875 25.234375 16.835938 C 25.675781 17.800781 25.019531 17.292969 25.019531 17.292969 L 23.617188 17.851562 L 22.554688 17.035156 L 21.640625 17.132812 L 20.90625 17.652344 L 20.105469 17.949219 L 19.992188 18.390625 L 19.125 18.683594 L 19.109375 19.253906 L 18.726562 19.042969 C 18.726562 19.042969 18.15625 19.253906 17.941406 19.335938 C 17.730469 19.417969 18.335938 19.757812 18.335938 19.757812 L 18.613281 20.96875 L 17.339844 21.277344 L 15.511719 22.210938 L 13.960938 21.621094 C 13.960938 21.621094 13.222656 21.492188 13.160156 21.492188 C 13.09375 21.492188 12.375 20.855469 12.328125 20.835938 C 12.277344 20.820312 11.492188 20.429688 11.492188 20.429688 C 11.492188 20.429688 9.78125 21.425781 9.730469 21.476562 C 9.683594 21.523438 8.359375 21.75 8.292969 21.71875 C 8.230469 21.6875 6.453125 22.453125 6.453125 22.453125 C 6.453125 22.453125 6.285156 21.964844 6.285156 21.785156 C 6.285156 21.605469 6.414062 20.722656 6.449219 20.660156 C 6.480469 20.59375 6.136719 19.875 6.136719 19.875 L 5.878906 18.632812 L 4.507812 18.503906 C 4.507812 18.503906 3.804688 17.488281 3.804688 17.441406 C 3.804688 17.390625 4.390625 16.414062 4.390625 16.414062 L 4.113281 15.5625 L 4.097656 14.714844 L 4.980469 14.46875 L 5.257812 13.816406 L 5.878906 12.851562 L 3.949219 11.464844 L 3.492188 10.011719 L 3.394531 8.917969 C 3.394531 8.917969 4.128906 8.460938 4.195312 8.398438 C 4.261719 8.332031 4.066406 7.742188 4.066406 7.742188 L 4.5 7.453125 L 5.632812 8.265625 L 5.125 8.96875 L 5.386719 9.410156 L 7.019531 9.410156 C 7.019531 9.410156 8.898438 9.539062 9.027344 9.570312 C 9.160156 9.605469 10.628906 9.832031 10.628906 9.832031 L 12.585938 9.539062 L 15.347656 9.621094 L 17.183594 7.726562 L 20.320312 6.574219 C 20.320312 6.574219 21.324219 6.625 21.421875 6.699219 C 21.519531 6.773438 22.328125 6.992188 22.328125 6.992188 C 22.328125 6.992188 22.890625 6.746094 22.964844 6.773438 C 23.039062 6.796875 23.746094 7.210938 23.746094 7.210938 L 24.335938 7.703125 L 26.195312 7.792969 L 26.605469 8.96875 L 26.148438 9.636719 C 26.148438 9.636719 24.808594 9.71875 24.742188 9.734375 C 24.679688 9.75 24.480469 10.601562 24.480469 10.601562 " fill-opacity="1" fill-rule="nonzero"/></g></svg>