<svg xmlns="http://www.w3.org/2000/svg" xmlns:xlink="http://www.w3.org/1999/xlink" width="40" zoomAndPan="magnify" viewBox="0 0 30 30.000001" height="40" preserveAspectRatio="xMidYMid meet" version="1.0"><defs><clipPath id="d504901c94"><path d="M 7.292969 2.902344 L 22.535156 2.902344 L 22.535156 26.128906 L 7.292969 26.128906 Z M 7.292969 2.902344 " clip-rule="nonzero"/></clipPath></defs><g clip-path="url(#d504901c94)"><path fill="#014d4e" d="M 20.050781 2.933594 C 19.9375 2.949219 19.875 2.988281 19.589844 3.226562 C 19.546875 3.261719 19.351562 3.4375 19.347656 3.445312 C 19.335938 3.457031 19.238281 3.527344 19.160156 3.582031 C 18.988281 3.699219 18.949219 3.777344 18.949219 4.011719 C 18.953125 4.417969 19.03125 4.617188 19.308594 4.9375 C 19.609375 5.285156 19.898438 5.292969 19.832031 4.949219 C 19.816406 4.882812 19.820312 4.882812 19.855469 4.839844 C 19.914062 4.773438 19.921875 4.625 19.882812 4.460938 C 19.804688 4.160156 20.09375 3.835938 20.308594 3.984375 C 20.453125 4.078125 20.378906 4.226562 20.167969 4.257812 C 20.0625 4.273438 20.027344 4.304688 19.992188 4.425781 C 19.941406 4.59375 19.960938 4.675781 20.058594 4.691406 C 20.121094 4.699219 20.1875 4.769531 20.253906 4.890625 C 20.347656 5.066406 20.492188 5.097656 20.523438 4.945312 C 20.5625 4.734375 20.78125 4.574219 20.898438 4.667969 C 20.96875 4.71875 21.050781 4.90625 21.085938 5.09375 C 21.109375 5.230469 21.121094 5.265625 21.164062 5.339844 L 21.214844 5.421875 L 21.210938 5.574219 C 21.195312 5.992188 21.203125 6.328125 21.238281 6.484375 C 21.34375 6.957031 21.644531 7.554688 21.824219 7.636719 C 22.015625 7.722656 22.140625 7.546875 22.035156 7.339844 C 22.003906 7.277344 21.964844 7.230469 21.796875 7.035156 C 21.613281 6.820312 21.558594 6.5625 21.699219 6.5625 C 21.855469 6.5625 22.046875 6.777344 22.222656 7.140625 C 22.429688 7.582031 22.703125 7.5 22.59375 7.03125 C 22.554688 6.863281 22.496094 6.792969 22.328125 6.710938 C 22.226562 6.660156 22.183594 6.632812 22.109375 6.558594 C 21.984375 6.433594 21.914062 6.402344 21.691406 6.375 C 21.570312 6.359375 21.546875 6.300781 21.550781 6.003906 C 21.5625 5.523438 21.550781 5.441406 21.46875 5.324219 L 21.433594 5.273438 L 21.441406 5.128906 C 21.46875 4.796875 21.46875 4.636719 21.449219 4.527344 C 21.417969 4.375 21.347656 4.105469 21.320312 4.035156 C 21.308594 4 21.292969 3.917969 21.285156 3.851562 C 21.25 3.558594 21.203125 3.503906 20.871094 3.386719 C 20.671875 3.316406 20.632812 3.285156 20.488281 3.097656 C 20.394531 2.96875 20.226562 2.90625 20.050781 2.933594 M 19 4.816406 C 18.972656 4.863281 18.890625 4.898438 18.785156 4.90625 C 18.679688 4.914062 18.671875 4.917969 18.582031 4.976562 C 18.515625 5.023438 18.453125 5.050781 18.363281 5.078125 C 18.160156 5.140625 18.101562 5.160156 17.929688 5.242188 C 17.292969 5.539062 17.078125 5.53125 16.574219 5.1875 C 16.457031 5.109375 16.40625 5.085938 16.34375 5.082031 C 16.316406 5.078125 16.253906 5.074219 16.203125 5.070312 C 16.046875 5.054688 15.917969 5.125 15.855469 5.25 C 15.792969 5.367188 15.71875 5.398438 15.601562 5.355469 L 15.53125 5.332031 L 15.460938 5.359375 C 15.335938 5.410156 15.21875 5.421875 15 5.390625 C 14.753906 5.363281 14.601562 5.382812 14.429688 5.46875 C 14.238281 5.566406 14.105469 5.585938 13.878906 5.5625 C 13.539062 5.527344 13.488281 5.554688 13.117188 5.929688 L 12.878906 6.171875 L 12.792969 6.164062 L 12.703125 6.15625 L 12.65625 6.203125 C 12.503906 6.351562 12.5625 6.691406 12.78125 6.921875 C 12.828125 6.972656 12.875 7.015625 12.882812 7.015625 C 12.90625 7.015625 12.902344 7.042969 12.875 7.152344 C 12.816406 7.378906 12.816406 7.492188 12.871094 7.667969 L 12.902344 7.765625 L 12.878906 7.851562 C 12.863281 7.894531 12.832031 7.992188 12.804688 8.066406 C 12.640625 8.484375 12.617188 8.882812 12.730469 9.25 C 12.820312 9.554688 12.835938 9.722656 12.777344 9.824219 C 12.675781 10 12.644531 10.144531 12.699219 10.242188 C 12.730469 10.304688 12.855469 10.285156 12.957031 10.207031 C 13 10.175781 13.027344 10.171875 13.007812 10.207031 C 12.964844 10.289062 12.988281 10.339844 13.171875 10.550781 C 13.238281 10.625 13.316406 10.726562 13.347656 10.773438 C 13.378906 10.820312 13.421875 10.878906 13.445312 10.902344 L 13.488281 10.949219 L 13.460938 11.007812 C 13.449219 11.042969 13.4375 11.078125 13.441406 11.089844 C 13.441406 11.105469 13.449219 11.136719 13.453125 11.160156 C 13.464844 11.21875 13.511719 11.273438 13.582031 11.308594 C 13.65625 11.347656 13.675781 11.371094 13.71875 11.480469 C 13.75 11.570312 13.863281 11.765625 13.929688 11.859375 C 14.09375 12.078125 14.179688 12.886719 14.0625 13.078125 C 13.960938 13.246094 13.957031 13.261719 14.027344 13.425781 C 14.074219 13.53125 14.074219 13.542969 14.070312 13.753906 C 14.066406 13.855469 14.070312 13.867188 14.121094 13.988281 C 14.242188 14.265625 14.238281 14.296875 14.097656 14.492188 C 14.089844 14.503906 14.070312 14.558594 14.054688 14.605469 C 14.042969 14.65625 14.011719 14.734375 13.984375 14.777344 C 13.960938 14.820312 13.902344 14.917969 13.859375 14.988281 C 13.730469 15.207031 13.71875 15.246094 13.710938 15.484375 C 13.691406 16.035156 13.652344 16.167969 13.40625 16.542969 C 13.261719 16.757812 13.070312 17.125 13.046875 17.230469 C 13.015625 17.355469 13.066406 17.644531 13.15625 17.859375 C 13.203125 17.972656 13.289062 18.269531 13.332031 18.464844 C 13.429688 18.910156 13.484375 18.984375 14.140625 19.507812 C 14.304688 19.636719 14.464844 19.789062 14.640625 19.988281 C 14.679688 20.027344 14.773438 20.128906 14.851562 20.210938 C 15.242188 20.628906 15.40625 20.867188 15.441406 21.070312 C 15.460938 21.179688 15.519531 21.261719 15.585938 21.261719 C 15.617188 21.261719 15.621094 21.257812 15.679688 21.0625 C 15.746094 20.839844 15.789062 20.875 15.871094 21.21875 C 15.929688 21.445312 16.109375 21.808594 16.160156 21.792969 C 16.179688 21.785156 16.207031 21.832031 16.25 21.953125 C 16.273438 22.019531 16.375 22.191406 16.535156 22.4375 C 16.566406 22.484375 16.628906 22.566406 16.679688 22.625 C 16.828125 22.800781 16.941406 23.152344 17.007812 23.648438 C 17.035156 23.867188 17.058594 23.972656 17.128906 24.222656 C 17.207031 24.503906 17.214844 24.519531 17.292969 24.625 C 17.386719 24.75 17.515625 25.09375 17.621094 25.507812 C 17.644531 25.601562 17.671875 25.707031 17.683594 25.746094 C 17.746094 25.980469 17.851562 26.125 17.929688 26.078125 C 17.96875 26.050781 17.96875 26.003906 17.925781 25.867188 C 17.847656 25.609375 17.878906 25.488281 18.125 25.109375 C 18.195312 25.003906 18.261719 24.925781 18.40625 24.78125 C 18.589844 24.59375 18.59375 24.585938 18.675781 24.433594 C 18.761719 24.265625 18.753906 24.269531 18.949219 24.144531 C 19.058594 24.074219 19.105469 24.015625 19.132812 23.917969 C 19.160156 23.824219 19.1875 23.773438 19.300781 23.605469 C 19.484375 23.332031 19.503906 23.265625 19.441406 23.089844 C 19.382812 22.914062 19.386719 22.828125 19.460938 22.609375 C 19.527344 22.410156 19.53125 22.359375 19.492188 22.179688 C 19.460938 22.035156 19.460938 21.972656 19.480469 21.660156 L 19.496094 21.421875 L 19.449219 21.28125 C 19.425781 21.203125 19.386719 21.101562 19.363281 21.058594 C 19.3125 20.960938 19.3125 20.859375 19.367188 20.796875 C 19.375 20.785156 19.390625 20.734375 19.40625 20.679688 C 19.421875 20.621094 19.449219 20.523438 19.472656 20.457031 C 19.496094 20.394531 19.53125 20.277344 19.546875 20.207031 C 19.585938 20.023438 19.613281 19.945312 19.695312 19.785156 C 19.785156 19.601562 19.792969 19.539062 19.738281 19.332031 C 19.644531 18.96875 19.65625 18.394531 19.773438 17.78125 C 19.792969 17.675781 19.820312 17.558594 19.835938 17.527344 C 19.898438 17.363281 19.914062 17.273438 19.910156 16.996094 C 19.90625 16.699219 19.914062 16.632812 19.976562 16.429688 C 20.019531 16.277344 20.023438 16.261719 19.996094 16.078125 C 19.984375 15.988281 20.039062 15.707031 20.117188 15.449219 C 20.144531 15.371094 20.148438 15.320312 20.148438 15.230469 C 20.148438 14.949219 20.214844 14.753906 20.359375 14.621094 C 20.476562 14.511719 20.476562 14.433594 20.359375 14.375 C 20.308594 14.351562 20.214844 14.269531 20.109375 14.160156 C 19.96875 14.019531 19.871094 13.738281 19.890625 13.507812 C 19.898438 13.386719 19.902344 13.316406 19.90625 13.226562 C 19.90625 13.199219 19.925781 13.171875 19.988281 13.105469 C 20.136719 12.949219 20.09375 12.820312 19.839844 12.671875 C 19.761719 12.628906 19.753906 12.601562 19.792969 12.527344 C 19.820312 12.46875 19.820312 12.460938 19.804688 12.402344 C 19.789062 12.347656 19.789062 12.339844 19.808594 12.335938 C 19.886719 12.316406 19.921875 12.175781 19.882812 12.054688 C 19.761719 11.699219 19.917969 11.34375 20.1875 11.351562 C 20.402344 11.355469 20.347656 11.183594 19.925781 10.558594 C 19.730469 10.269531 19.660156 10.042969 19.742188 9.976562 C 19.765625 9.953125 19.878906 10.070312 19.917969 10.160156 C 20.007812 10.363281 20.054688 10.453125 20.105469 10.515625 C 20.171875 10.609375 20.203125 10.664062 20.25 10.800781 C 20.308594 10.96875 20.375 11.070312 20.457031 11.121094 C 20.617188 11.21875 20.667969 11.019531 20.53125 10.84375 C 20.484375 10.78125 20.480469 10.769531 20.480469 10.703125 C 20.480469 10.660156 20.46875 10.601562 20.449219 10.550781 C 20.417969 10.464844 20.335938 10.164062 20.308594 10.042969 C 20.285156 9.945312 20.300781 9.925781 20.425781 9.859375 L 20.523438 9.8125 L 20.691406 9.808594 C 20.984375 9.808594 21.085938 9.726562 21.070312 9.511719 C 21.054688 9.285156 21.253906 9.167969 21.636719 9.171875 C 21.867188 9.179688 21.976562 9.105469 21.882812 9.011719 C 21.851562 8.980469 21.839844 8.976562 21.789062 8.980469 C 21.707031 8.992188 21.671875 8.96875 21.648438 8.902344 C 21.621094 8.820312 21.597656 8.824219 21.382812 8.929688 C 21.285156 8.976562 21.179688 9.03125 21.152344 9.050781 C 21.125 9.070312 21.070312 9.101562 21.03125 9.121094 C 20.992188 9.136719 20.917969 9.175781 20.871094 9.207031 C 20.636719 9.351562 20.539062 9.398438 20.4375 9.414062 C 20.128906 9.464844 20.097656 9.410156 20.210938 9.054688 C 20.257812 8.90625 20.257812 8.785156 20.207031 8.632812 C 20.191406 8.585938 20.171875 8.519531 20.167969 8.488281 C 20.15625 8.410156 20.113281 8.332031 20.046875 8.269531 C 19.976562 8.199219 19.96875 8.167969 19.988281 8.042969 C 20.027344 7.8125 20.019531 7.726562 19.953125 7.582031 C 19.902344 7.472656 19.953125 7.460938 19.46875 7.699219 C 19.253906 7.808594 19.1875 7.890625 19.175781 8.058594 C 19.175781 8.066406 19.15625 8.074219 19.132812 8.078125 C 19.050781 8.09375 18.96875 8.210938 18.96875 8.308594 C 18.96875 8.414062 18.996094 8.460938 19.097656 8.539062 C 19.167969 8.589844 19.179688 8.625 19.148438 8.703125 C 19.09375 8.847656 19.171875 8.984375 19.382812 9.117188 C 19.605469 9.261719 19.785156 9.457031 19.785156 9.5625 C 19.785156 9.605469 19.785156 9.605469 19.707031 9.5625 C 19.582031 9.492188 19.503906 9.472656 19.328125 9.476562 L 19.167969 9.476562 L 19.097656 9.429688 C 18.914062 9.316406 18.835938 9.378906 18.9375 9.554688 C 19.074219 9.792969 19.035156 9.792969 18.8125 9.546875 C 18.625 9.347656 18.625 9.347656 18.730469 9.25 C 18.898438 9.09375 18.785156 8.910156 18.390625 8.695312 C 18.25 8.617188 18.101562 8.492188 18.128906 8.472656 C 18.230469 8.394531 18.167969 8.308594 18 8.28125 C 17.863281 8.257812 17.820312 8.230469 17.679688 8.039062 C 17.617188 7.953125 17.613281 7.945312 17.589844 7.816406 C 17.570312 7.714844 17.554688 7.660156 17.527344 7.609375 C 17.40625 7.390625 17.398438 7.367188 17.457031 7.222656 C 17.5 7.101562 17.519531 7.078125 17.628906 7.027344 C 17.914062 6.894531 18.117188 6.902344 18.429688 7.0625 C 18.785156 7.242188 18.929688 7.261719 19.132812 7.167969 C 19.207031 7.136719 19.25 7.125 19.292969 7.125 C 19.457031 7.125 19.929688 6.726562 19.929688 6.589844 C 19.929688 6.503906 19.761719 6.429688 19.558594 6.429688 C 19.46875 6.429688 19.417969 6.40625 19.417969 6.367188 C 19.417969 6.328125 19.328125 6.257812 19.265625 6.246094 C 19.152344 6.222656 19.140625 6.199219 19.148438 6.054688 C 19.15625 5.921875 19.148438 5.90625 19.054688 5.746094 C 18.984375 5.636719 18.96875 5.550781 19.003906 5.507812 C 19.070312 5.4375 19.101562 5.292969 19.074219 5.15625 C 19.0625 5.089844 19.066406 5.070312 19.082031 5.019531 C 19.113281 4.941406 19.117188 4.898438 19.109375 4.863281 C 19.101562 4.824219 19.015625 4.789062 19 4.816406 M 10.582031 7.253906 C 10.550781 7.296875 10.558594 7.339844 10.617188 7.410156 L 10.660156 7.464844 L 10.761719 7.464844 C 10.820312 7.464844 10.882812 7.472656 10.914062 7.484375 C 11.011719 7.519531 11.136719 7.515625 11.148438 7.472656 C 11.183594 7.382812 11.117188 7.332031 10.941406 7.3125 C 10.832031 7.300781 10.796875 7.289062 10.742188 7.257812 C 10.65625 7.210938 10.617188 7.210938 10.582031 7.253906 M 21.339844 7.585938 C 21.324219 7.609375 21.316406 7.613281 21.269531 7.605469 C 21.148438 7.585938 21.125 7.652344 21.203125 7.789062 C 21.285156 7.941406 21.375 7.96875 21.425781 7.859375 C 21.480469 7.75 21.402344 7.5 21.339844 7.585938 M 18.402344 7.628906 C 18.300781 7.65625 18.261719 7.714844 18.214844 7.886719 C 18.164062 8.09375 18.179688 8.125 18.304688 8.074219 C 18.339844 8.0625 18.394531 8.046875 18.425781 8.042969 C 18.59375 8.019531 18.632812 7.898438 18.539062 7.71875 C 18.484375 7.617188 18.476562 7.609375 18.402344 7.628906 M 7.472656 7.804688 C 7.296875 7.835938 7.289062 7.851562 7.359375 8.003906 C 7.433594 8.164062 7.511719 8.207031 7.75 8.210938 C 7.933594 8.214844 7.949219 8.207031 8 8.105469 C 8.054688 7.996094 8.027344 7.914062 7.925781 7.875 C 7.890625 7.863281 7.824219 7.839844 7.78125 7.824219 C 7.695312 7.792969 7.589844 7.785156 7.472656 7.804688 M 10.53125 8.160156 C 10.5 8.179688 10.503906 8.242188 10.542969 8.324219 C 10.570312 8.390625 10.570312 8.394531 10.550781 8.414062 C 10.539062 8.425781 10.492188 8.476562 10.449219 8.523438 C 10.355469 8.632812 10.214844 8.726562 10.136719 8.738281 C 10.070312 8.75 10.042969 8.78125 10.054688 8.835938 C 10.0625 8.875 10.058594 8.875 10.011719 8.882812 C 9.945312 8.894531 9.917969 8.925781 9.902344 9.007812 C 9.890625 9.066406 9.878906 9.085938 9.832031 9.128906 C 9.730469 9.222656 9.691406 9.460938 9.753906 9.605469 C 9.769531 9.636719 9.78125 9.683594 9.78125 9.703125 C 9.777344 9.753906 9.796875 9.792969 9.84375 9.808594 L 9.878906 9.820312 L 9.871094 9.902344 C 9.859375 10.015625 9.886719 10.078125 9.96875 10.117188 C 10.042969 10.15625 10.082031 10.230469 10.046875 10.261719 C 10.011719 10.292969 10.015625 10.34375 10.0625 10.441406 C 10.09375 10.511719 10.097656 10.527344 10.085938 10.5625 C 10.019531 10.753906 10.207031 10.859375 10.480469 10.785156 C 10.511719 10.777344 10.566406 10.765625 10.597656 10.761719 C 10.625 10.757812 10.71875 10.738281 10.804688 10.722656 C 11.097656 10.664062 11.285156 10.691406 11.511719 10.828125 C 11.664062 10.921875 11.664062 10.921875 11.710938 10.898438 C 11.800781 10.855469 11.808594 10.769531 11.730469 10.671875 C 11.652344 10.566406 11.644531 10.519531 11.703125 10.367188 C 11.738281 10.277344 11.738281 10.230469 11.699219 10.195312 C 11.648438 10.148438 11.523438 9.972656 11.515625 9.941406 C 11.511719 9.925781 11.511719 9.824219 11.519531 9.714844 C 11.535156 9.449219 11.519531 9.292969 11.460938 9.160156 C 11.429688 9.089844 11.429688 9.101562 11.488281 8.957031 C 11.546875 8.808594 11.554688 8.722656 11.511719 8.554688 C 11.472656 8.398438 11.433594 8.378906 11.21875 8.421875 C 11.09375 8.445312 11.085938 8.441406 11.082031 8.378906 C 11.074219 8.320312 11.042969 8.304688 10.910156 8.304688 C 10.808594 8.304688 10.800781 8.304688 10.773438 8.273438 C 10.679688 8.15625 10.601562 8.121094 10.53125 8.160156 " fill-opacity="1" fill-rule="evenodd"/></g></svg>