<svg xmlns="http://www.w3.org/2000/svg" xmlns:xlink="http://www.w3.org/1999/xlink" width="40" zoomAndPan="magnify" viewBox="0 0 30 30.000001" height="40" preserveAspectRatio="xMidYMid meet" version="1.0"><defs><clipPath id="9eb5cdac21"><path d="M 9.296875 2.902344 L 20.90625 2.902344 L 20.90625 26.128906 L 9.296875 26.128906 Z M 9.296875 2.902344 " clip-rule="nonzero"/></clipPath></defs><g clip-path="url(#9eb5cdac21)"><path fill="#014d4e" d="M 20.699219 9.589844 L 20.695312 9.496094 L 20.679688 9.386719 L 20.644531 9.3125 L 20.597656 9.289062 L 20.546875 9.277344 L 20.496094 9.261719 L 20.464844 9.222656 L 20.429688 9.097656 L 20.410156 9.054688 L 20.382812 9.023438 L 20.351562 8.996094 L 20.320312 8.964844 L 20.300781 8.921875 L 20.304688 8.855469 L 20.386719 8.65625 L 20.390625 8.546875 L 20.3125 8.210938 L 20.3125 8.207031 L 20.277344 8.144531 L 20.25 8.074219 L 20.234375 8 L 20.234375 7.917969 L 20.269531 7.769531 L 20.242188 7.742188 L 20.210938 7.742188 L 20.207031 7.738281 L 20.171875 7.746094 L 20.140625 7.742188 L 20.050781 7.65625 L 19.386719 6.714844 L 19.332031 6.613281 L 19.324219 6.523438 L 19.398438 6.320312 L 19.421875 6.261719 L 19.46875 6.09375 L 19.726562 5.652344 L 19.804688 5.566406 L 19.78125 5.546875 L 19.746094 5.484375 L 19.714844 5.46875 L 19.703125 5.441406 L 19.695312 5.40625 L 19.679688 5.378906 L 19.660156 5.316406 L 19.648438 5.289062 L 19.632812 5.273438 L 19.609375 5.261719 L 19.585938 5.238281 L 19.460938 5.058594 L 19.433594 5.03125 L 19.390625 5.003906 L 19.257812 4.953125 L 19.089844 4.851562 L 19.046875 4.835938 L 19.007812 4.8125 L 18.964844 4.804688 L 18.914062 4.835938 L 18.863281 4.859375 L 18.8125 4.84375 L 18.765625 4.816406 L 18.734375 4.785156 L 18.683594 4.722656 L 18.597656 4.582031 L 18.570312 4.511719 L 18.550781 4.425781 L 18.542969 4.34375 L 18.53125 4.324219 L 18.480469 4.285156 L 18.46875 4.265625 L 17.832031 3.683594 L 17.683594 3.460938 L 17.644531 3.390625 L 17.632812 3.367188 L 17.601562 3.359375 L 17.476562 3.347656 L 17.433594 3.328125 L 17.394531 3.308594 L 17.363281 3.277344 L 17.339844 3.191406 L 17.3125 3.144531 L 17.273438 3.101562 L 17.199219 3.0625 L 17.019531 2.902344 L 16.976562 2.960938 L 16.890625 2.964844 L 16.851562 2.972656 L 16.777344 2.96875 L 16.738281 2.976562 L 16.699219 3.003906 L 16.640625 3.074219 L 16.605469 3.101562 L 16.566406 3.109375 L 16.527344 3.085938 L 16.488281 3.101562 L 16.46875 3.121094 L 16.457031 3.152344 L 16.449219 3.179688 L 16.4375 3.210938 L 16.386719 3.292969 L 16.351562 3.3125 L 16.222656 3.277344 L 16.195312 3.28125 L 16.152344 3.316406 L 16.128906 3.324219 L 16.109375 3.324219 L 16.078125 3.304688 L 16.066406 3.300781 L 15.933594 3.339844 L 15.914062 3.347656 L 15.882812 3.382812 L 15.859375 3.394531 L 15.832031 3.398438 L 15.820312 3.378906 L 15.816406 3.359375 L 15.804688 3.347656 L 15.761719 3.347656 L 15.726562 3.34375 L 15.703125 3.351562 L 15.683594 3.402344 L 15.664062 3.441406 L 15.644531 3.433594 L 15.625 3.410156 L 15.597656 3.40625 L 15.578125 3.417969 L 15.546875 3.460938 L 15.535156 3.472656 L 15.488281 3.476562 L 15.40625 3.472656 L 15.351562 3.480469 L 15.265625 3.519531 L 15.230469 3.585938 L 15.234375 3.671875 L 15.269531 3.882812 L 15.394531 4.238281 L 15.414062 4.277344 L 15.441406 4.308594 L 15.480469 4.339844 L 15.519531 4.355469 L 15.554688 4.363281 L 15.582031 4.382812 L 15.589844 4.429688 L 15.585938 4.496094 L 15.558594 4.5 L 15.519531 4.488281 L 15.480469 4.492188 L 15.457031 4.519531 L 15.425781 4.574219 L 15.402344 4.601562 L 15.371094 4.609375 L 15.335938 4.605469 L 15.304688 4.613281 L 15.285156 4.660156 L 15.289062 4.703125 L 15.332031 4.769531 L 15.339844 4.808594 L 15.207031 5.171875 L 15.152344 5.269531 L 15.011719 5.433594 L 14.972656 5.539062 L 14.96875 5.605469 L 14.972656 5.644531 L 14.957031 5.683594 L 14.90625 5.734375 L 14.707031 5.84375 L 14.4375 6.066406 L 13.949219 6.566406 L 13.933594 6.582031 L 13.832031 6.632812 L 13.699219 6.621094 L 13.546875 6.5625 L 13.449219 6.515625 L 13.402344 6.511719 L 13.367188 6.53125 L 13.304688 6.511719 L 13.234375 6.527344 L 13.085938 6.585938 L 13.015625 6.59375 L 12.855469 6.578125 L 12.796875 6.597656 L 12.726562 6.632812 L 12.554688 6.667969 L 12.492188 6.703125 L 12.417969 6.726562 L 12.339844 6.582031 L 12.277344 6.585938 L 12.28125 6.5625 L 12.292969 6.507812 L 12.300781 6.484375 L 11.949219 6.457031 L 11.878906 6.441406 L 11.816406 6.40625 L 11.796875 6.460938 L 11.757812 6.480469 L 11.710938 6.496094 L 11.664062 6.53125 L 11.632812 6.578125 L 11.628906 6.609375 L 11.664062 6.691406 L 11.605469 6.726562 L 11.519531 6.765625 L 11.445312 6.8125 L 11.414062 6.882812 L 11.4375 6.949219 L 11.472656 7.003906 L 11.476562 7.050781 L 11.414062 7.105469 L 11.386719 7.074219 L 11.363281 7.0625 L 11.335938 7.074219 L 11.3125 7.105469 L 11.285156 7.066406 L 11.246094 7.015625 L 11.203125 6.996094 L 11.183594 7.039062 L 11.191406 7.070312 L 11.226562 7.105469 L 11.238281 7.140625 L 11.230469 7.171875 L 11.183594 7.257812 L 11.0625 7.199219 L 11 7.183594 L 10.929688 7.179688 L 10.898438 7.1875 L 10.878906 7.199219 L 10.859375 7.207031 L 10.828125 7.207031 L 10.832031 7.191406 L 10.804688 7.144531 L 10.769531 7.117188 L 10.730469 7.175781 L 10.691406 7.214844 L 10.675781 7.261719 L 10.742188 7.375 L 10.757812 7.503906 L 10.777344 7.570312 L 10.738281 7.554688 L 10.664062 7.519531 L 10.625 7.519531 L 10.609375 7.539062 L 10.582031 7.609375 L 10.5625 7.625 L 10.441406 7.652344 L 10.421875 7.660156 L 10.425781 7.714844 L 10.4375 7.710938 L 10.460938 7.6875 L 10.496094 7.699219 L 10.5 7.714844 L 10.496094 7.761719 L 10.496094 7.777344 L 10.507812 7.785156 L 10.542969 7.800781 L 10.550781 7.800781 L 10.558594 7.847656 L 10.558594 7.886719 L 10.5625 7.929688 L 10.585938 7.96875 L 10.628906 8.011719 L 10.625 8.074219 L 10.613281 8.089844 L 10.585938 8.066406 L 10.558594 8.027344 L 10.550781 8.007812 L 10.511719 7.996094 L 10.398438 7.984375 L 10.382812 7.988281 L 10.34375 8.007812 L 10.320312 8.007812 L 10.3125 8 L 10.292969 7.964844 L 10.28125 7.957031 L 10.265625 7.949219 L 10.246094 7.929688 L 10.21875 7.914062 L 10.121094 7.894531 L 10.105469 7.898438 L 10.078125 7.933594 L 10.058594 7.980469 L 10.027344 8.027344 L 10.015625 8.035156 L 10.011719 8.074219 L 10.011719 8.117188 L 10.023438 8.148438 L 10.054688 8.164062 L 10.074219 8.183594 L 10.078125 8.230469 L 10.070312 8.273438 L 10.054688 8.292969 L 9.988281 8.292969 L 9.9375 8.285156 L 9.824219 8.222656 L 9.730469 8.453125 L 9.71875 8.53125 L 9.726562 8.570312 L 9.761719 8.648438 L 9.765625 8.6875 L 9.707031 8.800781 L 9.699219 8.839844 L 9.695312 8.925781 L 9.683594 8.964844 L 9.636719 9.035156 L 9.433594 9.226562 L 9.378906 9.351562 L 9.410156 9.691406 L 9.40625 9.839844 L 9.351562 10.050781 L 9.300781 10.4375 L 9.304688 10.523438 L 9.335938 10.582031 L 9.613281 10.769531 L 9.964844 11.003906 L 10.179688 11.148438 L 10.496094 11.359375 L 11.023438 11.714844 L 11.417969 11.976562 L 11.464844 12.101562 L 11.464844 12.132812 L 11.46875 12.410156 L 11.476562 12.820312 L 11.480469 13.113281 L 11.507812 13.285156 L 11.503906 13.332031 L 11.496094 13.371094 L 11.496094 13.445312 L 11.492188 13.484375 L 11.46875 13.53125 L 11.402344 13.632812 L 11.386719 13.683594 L 11.398438 13.757812 L 11.4375 13.851562 L 11.492188 13.90625 L 11.554688 13.875 L 11.597656 13.980469 L 11.621094 14.363281 L 11.675781 14.511719 L 11.746094 14.621094 L 11.765625 14.648438 L 12.0625 14.960938 L 12.292969 15.203125 L 12.367188 15.339844 L 12.398438 15.429688 L 12.417969 15.53125 L 12.421875 16 L 12.429688 16.410156 L 12.433594 16.757812 L 12.4375 17.257812 L 12.441406 17.371094 L 12.445312 17.414062 L 12.464844 17.457031 L 12.558594 17.578125 L 12.574219 17.613281 L 12.5625 17.679688 L 12.441406 17.882812 L 12.433594 17.914062 L 12.433594 17.980469 L 12.417969 18.070312 L 12.425781 18.085938 L 12.449219 18.09375 L 12.46875 18.128906 L 12.507812 18.449219 L 12.5 18.878906 L 12.492188 19.472656 L 12.492188 20.066406 L 12.496094 20.808594 L 12.496094 21.195312 L 12.5 21.5625 L 12.5 22.121094 L 12.503906 22.660156 L 12.507812 23.210938 L 12.4375 23.230469 L 12.160156 23.226562 L 12.230469 23.492188 L 12.273438 23.554688 L 12.28125 23.558594 L 12.335938 23.601562 L 12.367188 23.640625 L 12.375 23.691406 L 12.347656 23.851562 L 12.351562 23.914062 L 12.367188 23.976562 L 12.394531 24.054688 L 12.417969 24.144531 L 12.402344 24.203125 L 12.371094 24.242188 L 12.316406 24.3125 L 12.285156 24.398438 L 12.3125 24.441406 L 12.359375 24.480469 L 12.398438 24.554688 L 12.398438 24.582031 L 12.394531 24.613281 L 12.390625 24.648438 L 12.402344 24.6875 L 12.425781 24.71875 L 12.453125 24.746094 L 12.484375 24.773438 L 12.511719 24.789062 L 12.550781 24.792969 L 12.585938 24.789062 L 12.613281 24.800781 L 12.617188 24.84375 L 12.625 24.867188 L 12.6875 24.917969 L 12.710938 24.949219 L 12.714844 24.988281 L 12.707031 25.066406 L 12.714844 25.101562 L 12.738281 25.121094 L 12.820312 25.164062 L 12.851562 25.183594 L 12.945312 25.339844 L 13.019531 25.617188 L 13.085938 25.894531 L 13.011719 25.898438 L 12.535156 26.011719 L 12.457031 26.050781 L 12.484375 26.128906 L 13.464844 25.902344 L 13.847656 25.859375 L 14.734375 25.757812 L 15.03125 25.691406 L 15.226562 25.671875 L 15.6875 25.628906 L 16.5 25.554688 L 16.503906 25.324219 L 16.53125 25.160156 L 16.542969 25.082031 L 16.554688 25.046875 L 16.625 24.847656 L 16.632812 24.765625 L 16.601562 24.609375 L 16.601562 24.535156 L 16.644531 24.453125 L 16.710938 24.394531 L 16.757812 24.363281 L 16.777344 24.320312 L 16.765625 24.148438 L 16.757812 24.113281 L 16.734375 24.09375 L 16.691406 24.089844 L 16.652344 24.078125 L 16.621094 24.058594 L 16.589844 24.019531 L 16.574219 23.945312 L 16.585938 23.863281 L 16.625 23.707031 L 16.605469 23.550781 L 16.554688 23.410156 L 16.542969 23.273438 L 16.636719 23.136719 L 16.679688 23.117188 L 16.730469 23.105469 L 16.765625 23.082031 L 16.78125 23.042969 L 16.761719 23.007812 L 16.664062 22.929688 L 16.632812 22.886719 L 16.617188 22.839844 L 16.621094 22.8125 L 16.636719 22.789062 L 16.671875 22.71875 L 16.699219 22.679688 L 16.714844 22.644531 L 16.714844 22.59375 L 16.640625 21.675781 L 16.648438 21.632812 L 16.675781 21.617188 L 16.714844 21.617188 L 16.792969 21.632812 L 16.804688 21.625 L 16.808594 21.605469 L 16.820312 21.570312 L 16.828125 21.414062 L 16.746094 21.277344 L 16.636719 21.144531 L 16.5625 21.007812 L 16.542969 20.859375 L 16.550781 20.738281 L 16.585938 20.234375 L 16.578125 20.179688 L 16.542969 20.128906 L 16.457031 20.027344 L 16.414062 19.921875 L 16.382812 19.875 L 16.382812 19.859375 L 16.378906 19.84375 L 16.386719 19.816406 L 16.425781 19.742188 L 16.4375 19.710938 L 16.453125 19.472656 L 16.5 19.238281 L 16.507812 19.015625 L 16.519531 18.945312 L 16.546875 18.882812 L 16.585938 18.820312 L 16.613281 18.75 L 16.617188 18.667969 L 16.589844 18.589844 L 16.519531 18.433594 L 16.488281 18.351562 L 16.476562 18.261719 L 16.480469 18.191406 L 16.507812 18.035156 L 16.507812 18 L 16.5 17.929688 L 16.5 17.898438 L 16.519531 17.851562 L 16.59375 17.769531 L 16.625 17.722656 L 16.652344 17.597656 L 16.644531 17.488281 L 16.570312 16.574219 L 16.570312 16.570312 L 16.574219 16.53125 L 16.59375 16.503906 L 16.65625 16.472656 L 16.675781 16.453125 L 16.679688 16.421875 L 16.660156 16.363281 L 16.65625 16.332031 L 16.667969 16.273438 L 16.714844 16.167969 L 16.71875 16.109375 L 16.703125 16.082031 L 16.683594 16.074219 L 16.667969 16.066406 L 16.664062 16.039062 L 16.671875 16.027344 L 16.714844 15.964844 L 16.726562 15.941406 L 16.746094 15.839844 L 16.753906 15.601562 L 16.742188 15.503906 L 17.027344 15.527344 L 17.078125 15.519531 L 17.113281 15.492188 L 17.144531 15.460938 L 17.183594 15.433594 L 17.222656 15.429688 L 17.335938 15.425781 L 17.378906 15.429688 L 17.417969 15.449219 L 17.453125 15.472656 L 17.492188 15.492188 L 17.535156 15.492188 L 17.789062 15.425781 L 17.878906 15.359375 L 17.9375 15.242188 L 18.058594 14.859375 L 18.136719 14.710938 L 18.15625 14.632812 L 18.15625 14.390625 L 18.144531 14.328125 L 18.097656 14.210938 L 18.074219 14.105469 L 18.085938 14.003906 L 18.160156 13.886719 L 18.1875 13.867188 L 18.246094 13.84375 L 18.273438 13.820312 L 18.5 13.523438 L 18.503906 13.503906 L 18.484375 13.457031 L 18.480469 13.433594 L 18.507812 13.339844 L 18.566406 13.320312 L 18.640625 13.332031 L 18.703125 13.335938 L 18.824219 13.269531 L 18.851562 13.171875 L 18.820312 13.058594 L 18.777344 12.941406 L 18.761719 12.867188 L 18.769531 12.78125 L 18.804688 12.707031 L 18.863281 12.664062 L 19.132812 12.554688 L 19.273438 12.515625 L 19.5 12.539062 L 19.5625 12.476562 L 19.660156 12.296875 L 19.78125 12.152344 L 19.816406 12.082031 L 19.839844 11.757812 L 19.867188 11.699219 L 19.921875 11.644531 L 19.976562 11.617188 L 20.023438 11.582031 L 20.058594 11.5 L 20.058594 11.476562 L 20.070312 11.410156 L 20.058594 11.351562 L 20.027344 11.304688 L 19.773438 11.042969 L 19.722656 10.957031 L 19.71875 10.886719 L 19.792969 10.71875 L 19.886719 10.574219 L 19.902344 10.527344 L 19.90625 10.453125 L 19.914062 10.429688 L 19.941406 10.394531 L 20.011719 10.324219 L 20.085938 10.296875 L 20.164062 10.3125 L 20.402344 10.4375 L 20.457031 10.429688 L 20.515625 10.355469 L 20.539062 10.289062 L 20.542969 10.09375 L 20.574219 9.992188 L 20.671875 9.804688 L 20.699219 9.703125 Z M 20.699219 9.589844 " fill-opacity="1" fill-rule="nonzero"/></g></svg>