<svg xmlns="http://www.w3.org/2000/svg" xmlns:xlink="http://www.w3.org/1999/xlink" width="40" zoomAndPan="magnify" viewBox="0 0 30 30.000001" height="40" preserveAspectRatio="xMidYMid meet" version="1.0"><defs><clipPath id="87b8803c23"><path d="M 3.386719 7.578125 L 26.613281 7.578125 L 26.613281 21.367188 L 3.386719 21.367188 Z M 3.386719 7.578125 " clip-rule="nonzero"/></clipPath></defs><g clip-path="url(#87b8803c23)"><path fill="#014d4e" d="M 13.578125 21.394531 C 13.320312 21.445312 13.046875 21.398438 12.820312 21.269531 C 12.707031 21.207031 12.601562 21.121094 12.554688 21 C 12.503906 20.859375 12.535156 20.707031 12.546875 20.5625 C 12.5625 20.414062 12.542969 20.246094 12.429688 20.15625 C 12.328125 20.082031 12.179688 20.082031 12.089844 19.996094 C 12.019531 19.929688 12.003906 19.832031 11.972656 19.742188 C 11.929688 19.617188 11.84375 19.5 11.75 19.40625 C 11.453125 19.429688 11.15625 19.199219 11.109375 18.90625 C 11.089844 18.789062 11.101562 18.660156 11.027344 18.566406 C 10.980469 18.507812 10.90625 18.480469 10.851562 18.429688 C 10.597656 18.199219 10.808594 17.671875 10.515625 17.496094 C 10.371094 17.40625 10.183594 17.464844 10.011719 17.464844 C 9.578125 17.460938 9.253906 17.070312 8.996094 16.71875 C 8.902344 16.589844 8.804688 16.453125 8.769531 16.296875 C 8.730469 16.140625 8.765625 15.957031 8.898438 15.863281 C 9.125 15.699219 9.441406 15.910156 9.578125 16.15625 C 9.714844 16.398438 9.785156 16.699219 10.011719 16.863281 C 10.066406 16.902344 10.140625 16.933594 10.207031 16.921875 C 10.40625 16.878906 10.363281 16.582031 10.261719 16.410156 C 10.078125 16.109375 9.847656 15.835938 9.585938 15.605469 C 9.363281 15.40625 9.089844 15.183594 9.125 14.886719 C 9.140625 14.746094 9.226562 14.617188 9.226562 14.476562 C 9.226562 14.304688 9.09375 14.15625 8.933594 14.085938 C 8.777344 14.015625 8.601562 14.007812 8.429688 14 C 8.464844 13.808594 8.484375 13.570312 8.324219 13.460938 C 8.25 13.40625 8.152344 13.398438 8.058594 13.390625 C 7.601562 13.359375 7.144531 13.332031 6.6875 13.300781 C 6.773438 13.113281 6.671875 12.878906 6.503906 12.761719 C 6.332031 12.648438 6.109375 12.636719 5.90625 12.671875 C 5.992188 12.414062 5.652344 12.230469 5.535156 11.988281 C 5.496094 11.898438 5.484375 11.800781 5.441406 11.710938 C 5.292969 11.40625 4.875 11.382812 4.535156 11.402344 C 4.507812 11.007812 4.496094 10.609375 4.507812 10.214844 C 4.082031 10.203125 3.582031 10.144531 3.386719 9.773438 C 3.738281 9.460938 4.339844 9.648438 4.707031 9.351562 C 4.875 9.214844 4.960938 8.980469 4.917969 8.765625 C 4.878906 8.550781 4.710938 8.367188 4.5 8.300781 C 4.378906 8.265625 4.246094 8.265625 4.125 8.222656 C 4.003906 8.183594 3.890625 8.070312 3.910156 7.945312 C 4.117188 7.820312 4.332031 7.691406 4.566406 7.632812 C 4.800781 7.578125 5.070312 7.601562 5.257812 7.757812 C 5.519531 7.976562 5.539062 8.363281 5.539062 8.703125 C 5.707031 8.710938 5.816406 8.886719 5.839844 9.050781 C 5.867188 9.210938 5.835938 9.378906 5.863281 9.542969 C 5.910156 9.792969 6.128906 10.023438 6.382812 10.015625 C 6.636719 10.007812 6.847656 9.695312 6.714844 9.476562 C 6.839844 9.433594 6.96875 9.535156 7.03125 9.648438 C 7.09375 9.765625 7.113281 9.898438 7.179688 10.011719 C 7.394531 10.359375 7.910156 10.308594 8.304688 10.210938 C 8.402344 10.1875 8.503906 10.160156 8.566406 10.085938 C 8.621094 10.027344 8.640625 9.949219 8.679688 9.882812 C 8.8125 9.652344 9.117188 9.609375 9.382812 9.59375 C 9.683594 9.570312 9.984375 9.550781 10.285156 9.53125 C 10.296875 9.933594 10.332031 10.433594 10.347656 10.839844 C 10.542969 11.011719 10.84375 11.058594 11.085938 10.949219 C 11.214844 10.890625 11.367188 10.792969 11.484375 10.871094 C 11.53125 10.902344 11.558594 10.953125 11.582031 11.003906 C 11.644531 11.136719 11.6875 11.289062 11.648438 11.429688 C 11.609375 11.570312 11.460938 11.691406 11.320312 11.648438 C 11.34375 11.792969 11.371094 11.9375 11.394531 12.082031 C 11.554688 12.03125 11.726562 12.230469 11.65625 12.382812 C 11.734375 12.386719 11.816406 12.390625 11.898438 12.394531 C 11.902344 12.476562 11.90625 12.5625 11.90625 12.648438 C 12.21875 12.613281 12.601562 12.609375 12.769531 12.878906 C 12.921875 13.125 12.769531 13.464844 12.527344 13.632812 C 12.425781 13.699219 12.292969 13.808594 12.355469 13.914062 C 12.378906 13.953125 12.421875 13.972656 12.457031 13.996094 C 12.664062 14.117188 12.785156 14.347656 12.976562 14.492188 C 13.304688 14.738281 13.757812 14.691406 14.164062 14.632812 C 14.320312 14.613281 14.492188 14.578125 14.582031 14.453125 C 14.675781 14.328125 14.589844 14.089844 14.433594 14.117188 C 14.390625 13.714844 14.816406 13.4375 15.183594 13.261719 C 15.519531 13.105469 15.851562 12.945312 16.195312 12.804688 C 16.210938 13.011719 16.242188 13.226562 16.375 13.386719 C 16.503906 13.546875 16.769531 13.648438 16.921875 13.507812 C 17.128906 13.679688 17.457031 13.542969 17.625 13.332031 C 17.792969 13.121094 17.875 12.851562 18.054688 12.652344 C 18.253906 12.429688 18.558594 12.3125 18.71875 12.058594 C 18.925781 11.730469 18.820312 11.304688 18.710938 10.933594 C 18.96875 10.714844 19.222656 10.496094 19.480469 10.277344 C 19.53125 10.234375 19.59375 10.1875 19.65625 10.203125 C 19.726562 10.214844 19.761719 10.292969 19.785156 10.363281 C 19.859375 10.59375 19.890625 10.839844 19.875 11.082031 C 19.996094 11.007812 20.148438 11.101562 20.269531 11.175781 C 20.394531 11.25 20.585938 11.289062 20.652344 11.164062 C 20.671875 11.117188 20.671875 11.0625 20.707031 11.027344 C 20.761719 10.96875 20.855469 11 20.929688 10.980469 C 21.050781 10.949219 21.09375 10.804688 21.140625 10.691406 C 21.191406 10.574219 21.335938 10.464844 21.429688 10.546875 C 21.375 10.992188 21.839844 11.476562 21.574219 11.839844 C 21.421875 12.050781 21.058594 12.136719 21.066406 12.394531 C 21.066406 12.527344 21.183594 12.636719 21.3125 12.675781 C 21.441406 12.714844 21.578125 12.695312 21.710938 12.679688 C 21.726562 12.433594 21.769531 12.144531 21.988281 12.035156 C 22.074219 11.992188 22.171875 11.988281 22.261719 11.957031 C 22.429688 11.898438 22.5625 11.757812 22.734375 11.707031 C 22.910156 11.65625 23.152344 11.789062 23.089844 11.960938 C 23.070312 12.023438 23.011719 12.066406 22.960938 12.113281 C 22.757812 12.308594 22.683594 12.632812 22.785156 12.898438 C 22.984375 13.121094 23.324219 13.320312 23.5625 13.140625 C 23.742188 13.007812 23.742188 12.746094 23.785156 12.523438 C 23.832031 12.304688 24.039062 12.0625 24.242188 12.164062 C 24.320312 12.207031 24.363281 12.289062 24.40625 12.371094 C 24.558594 12.667969 24.714844 13.019531 24.582031 13.328125 C 24.546875 13.40625 24.5 13.480469 24.472656 13.5625 C 24.421875 13.738281 24.527344 13.949219 24.699219 14.015625 C 24.816406 14.128906 25.027344 14.082031 25.128906 13.953125 C 25.230469 13.828125 25.242188 13.652344 25.226562 13.488281 C 25.589844 13.394531 25.917969 13.191406 26.164062 12.910156 C 26.246094 12.8125 26.378906 12.695312 26.480469 12.773438 C 26.515625 12.796875 26.53125 12.835938 26.546875 12.875 C 26.601562 13.039062 26.589844 13.226562 26.519531 13.382812 C 26.480469 13.46875 26.421875 13.546875 26.402344 13.640625 C 26.375 13.796875 26.460938 13.949219 26.503906 14.105469 C 26.617188 14.53125 26.308594 15.015625 25.878906 15.101562 C 25.96875 15.691406 26 16.292969 25.96875 16.890625 C 25.960938 16.96875 25.957031 17.046875 25.917969 17.117188 C 25.789062 17.355469 25.425781 17.265625 25.183594 17.144531 C 25.175781 17.070312 25.160156 17.019531 25.167969 16.945312 C 25.199219 16.605469 24.917969 16.265625 24.578125 16.226562 C 24.207031 16.183594 23.878906 16.449219 23.617188 16.71875 C 23.359375 16.984375 23.089844 17.289062 22.722656 17.355469 C 22.496094 17.394531 22.253906 17.339844 22.03125 17.410156 C 21.769531 17.492188 21.589844 17.734375 21.347656 17.867188 C 21.242188 17.925781 21.117188 17.964844 21.039062 18.058594 C 20.9375 18.175781 20.9375 18.347656 20.941406 18.503906 C 20.949219 19.011719 20.960938 19.515625 20.972656 20.023438 C 20.613281 19.992188 20.433594 20.570312 20.074219 20.554688 C 19.847656 20.546875 19.710938 20.308594 19.617188 20.105469 C 19.542969 19.945312 19.472656 19.785156 19.398438 19.625 C 19.339844 19.496094 19.265625 19.359375 19.132812 19.324219 C 19.03125 19.300781 18.921875 19.34375 18.820312 19.320312 C 18.605469 19.273438 18.554688 18.96875 18.363281 18.855469 C 18.140625 18.71875 17.859375 18.898438 17.671875 19.082031 C 17.484375 19.265625 17.238281 19.472656 16.992188 19.386719 C 16.976562 19.707031 16.960938 20.027344 16.941406 20.34375 C 16.722656 20.28125 16.511719 20.175781 16.328125 20.042969 C 16.316406 20.378906 16.308594 20.71875 16.296875 21.054688 C 16.136719 21.132812 15.976562 20.960938 15.882812 20.8125 C 15.71875 20.550781 15.554688 20.289062 15.390625 20.027344 C 15.3125 19.910156 15.234375 19.785156 15.117188 19.707031 C 14.917969 19.578125 14.640625 19.613281 14.445312 19.746094 C 14.246094 19.878906 14.117188 20.09375 14.023438 20.3125 C 13.886719 20.640625 13.824219 21.003906 13.839844 21.363281 C 13.761719 21.269531 13.695312 21.371094 13.578125 21.394531 Z M 13.578125 21.394531 " fill-opacity="1" fill-rule="nonzero"/></g></svg>