<svg xmlns="http://www.w3.org/2000/svg" xmlns:xlink="http://www.w3.org/1999/xlink" width="40" zoomAndPan="magnify" viewBox="0 0 30 30.000001" height="40" preserveAspectRatio="xMidYMid meet" version="1.0"><defs><clipPath id="4e9ff96d6a"><path d="M 3.414062 6.15625 L 26.609375 6.15625 L 26.609375 22.847656 L 3.414062 22.847656 Z M 3.414062 6.15625 " clip-rule="nonzero"/></clipPath></defs><g clip-path="url(#4e9ff96d6a)"><path fill="#014d4e" d="M 7.640625 21.683594 C 7.683594 21.679688 7.714844 21.722656 7.746094 21.78125 C 7.785156 21.84375 7.648438 21.890625 7.601562 21.820312 C 7.558594 21.761719 7.503906 21.789062 7.570312 21.722656 C 7.597656 21.695312 7.617188 21.683594 7.640625 21.683594 Z M 6.132812 21.550781 C 6.171875 21.546875 6.210938 21.570312 6.246094 21.636719 C 6.304688 21.746094 6.277344 21.765625 6.132812 21.695312 C 6.054688 21.65625 6.023438 21.628906 6.089844 21.574219 C 6.101562 21.5625 6.117188 21.550781 6.132812 21.550781 Z M 8.257812 21.507812 C 8.261719 21.507812 8.265625 21.507812 8.269531 21.511719 C 8.308594 21.554688 8.308594 21.605469 8.328125 21.652344 C 8.296875 21.714844 8.195312 21.664062 8.238281 21.664062 L 8.164062 21.621094 C 8.144531 21.5625 8.171875 21.53125 8.21875 21.527344 C 8.230469 21.523438 8.242188 21.511719 8.257812 21.507812 Z M 8.484375 21.394531 C 8.605469 21.394531 8.648438 21.417969 8.632812 21.503906 C 8.625 21.574219 8.625 21.5625 8.496094 21.554688 C 8.367188 21.546875 8.382812 21.546875 8.359375 21.484375 C 8.382812 21.390625 8.414062 21.394531 8.484375 21.394531 Z M 8.871094 21.210938 C 8.929688 21.207031 8.925781 21.238281 8.902344 21.273438 C 8.878906 21.308594 8.859375 21.34375 8.769531 21.347656 C 8.707031 21.347656 8.691406 21.367188 8.628906 21.339844 C 8.566406 21.3125 8.566406 21.269531 8.636719 21.253906 C 8.660156 21.25 8.683594 21.25 8.746094 21.234375 C 8.804688 21.21875 8.84375 21.210938 8.871094 21.210938 Z M 11.535156 20.125 C 11.523438 20.125 11.515625 20.125 11.507812 20.125 C 11.488281 20.125 11.480469 20.136719 11.453125 20.160156 C 11.398438 20.21875 11.316406 20.359375 11.320312 20.421875 C 11.328125 20.496094 11.363281 20.464844 11.433594 20.40625 C 11.496094 20.351562 11.511719 20.355469 11.539062 20.304688 C 11.566406 20.253906 11.585938 20.167969 11.566406 20.140625 C 11.558594 20.128906 11.546875 20.128906 11.535156 20.125 Z M 8.367188 19.566406 C 8.464844 19.566406 8.441406 19.695312 8.398438 19.804688 C 8.367188 19.871094 8.328125 19.898438 8.273438 19.847656 C 8.253906 19.824219 8.246094 19.792969 8.246094 19.773438 C 8.246094 19.707031 8.332031 19.566406 8.367188 19.566406 Z M 9.941406 19.320312 C 9.976562 19.316406 10.003906 19.339844 10.027344 19.359375 C 10.132812 19.445312 10.136719 19.46875 10.058594 19.46875 C 10.027344 19.46875 9.964844 19.503906 9.921875 19.546875 C 9.875 19.585938 9.816406 19.621094 9.792969 19.621094 C 9.765625 19.621094 9.699219 19.648438 9.65625 19.695312 C 9.59375 19.761719 9.496094 19.824219 9.453125 19.742188 C 9.425781 19.691406 9.429688 19.671875 9.480469 19.628906 C 9.515625 19.597656 9.570312 19.574219 9.609375 19.535156 C 9.648438 19.5 9.691406 19.46875 9.707031 19.46875 C 9.71875 19.46875 9.785156 19.429688 9.835938 19.378906 C 9.878906 19.335938 9.910156 19.320312 9.941406 19.320312 Z M 9.179688 19.308594 C 9.199219 19.308594 9.214844 19.324219 9.242188 19.355469 C 9.261719 19.378906 9.285156 19.398438 9.320312 19.398438 C 9.40625 19.398438 9.453125 19.511719 9.34375 19.59375 C 9.277344 19.644531 9.253906 19.652344 9.195312 19.613281 C 9.117188 19.5625 9.050781 19.425781 9.109375 19.363281 C 9.136719 19.328125 9.160156 19.3125 9.179688 19.308594 Z M 3.898438 19.046875 C 3.9375 19.042969 3.992188 19.105469 3.992188 19.160156 C 3.992188 19.226562 3.878906 19.375 3.78125 19.320312 C 3.84375 19.246094 3.875 19.199219 3.867188 19.136719 C 3.859375 19.074219 3.875 19.046875 3.898438 19.046875 Z M 3.996094 18.484375 C 4.011719 18.480469 4.03125 18.492188 4.058594 18.511719 C 4.09375 18.53125 4.089844 18.542969 4.066406 18.585938 C 4.019531 18.660156 4.023438 18.636719 3.945312 18.605469 C 3.890625 18.585938 3.875 18.558594 3.921875 18.523438 C 3.957031 18.496094 3.976562 18.484375 3.996094 18.484375 Z M 9.71875 18.464844 C 9.746094 18.46875 9.753906 18.476562 9.785156 18.488281 C 9.898438 18.515625 9.902344 18.523438 9.902344 18.640625 C 9.902344 18.761719 9.921875 18.777344 9.851562 18.710938 C 9.78125 18.640625 9.722656 18.65625 9.6875 18.726562 C 9.671875 18.757812 9.652344 18.796875 9.609375 18.78125 C 9.578125 18.769531 9.582031 18.703125 9.558594 18.664062 C 9.523438 18.597656 9.503906 18.59375 9.539062 18.554688 C 9.589844 18.492188 9.632812 18.460938 9.71875 18.464844 Z M 11.226562 18.453125 C 11.324219 18.460938 11.371094 18.488281 11.425781 18.492188 C 11.492188 18.492188 11.515625 18.417969 11.683594 18.472656 C 11.78125 18.503906 11.738281 18.632812 11.65625 18.71875 C 11.613281 18.765625 11.523438 18.757812 11.5625 18.828125 C 11.597656 18.894531 11.492188 18.933594 11.441406 18.878906 C 11.378906 18.816406 11.375 18.816406 11.351562 18.792969 C 11.3125 18.757812 11.300781 18.707031 11.234375 18.625 C 11.140625 18.511719 11.074219 18.460938 11.109375 18.457031 C 11.15625 18.453125 11.191406 18.449219 11.226562 18.453125 Z M 9.257812 18.339844 C 9.308594 18.332031 9.480469 18.4375 9.460938 18.488281 C 9.425781 18.582031 9.414062 18.671875 9.355469 18.671875 C 9.324219 18.671875 9.261719 18.710938 9.253906 18.699219 C 9.332031 18.574219 9.21875 18.359375 9.246094 18.34375 C 9.25 18.339844 9.253906 18.339844 9.257812 18.339844 Z M 10.417969 18.296875 C 10.519531 18.296875 10.640625 18.308594 10.679688 18.367188 C 10.71875 18.425781 10.761719 18.441406 10.851562 18.441406 C 10.96875 18.4375 11.019531 18.523438 10.921875 18.648438 C 10.921875 18.648438 10.863281 18.695312 10.832031 18.691406 C 10.800781 18.683594 10.757812 18.628906 10.757812 18.628906 C 10.714844 18.59375 10.648438 18.46875 10.59375 18.492188 C 10.539062 18.523438 10.625 18.609375 10.628906 18.628906 C 10.640625 18.699219 10.628906 18.683594 10.550781 18.683594 C 10.457031 18.683594 10.417969 18.628906 10.410156 18.535156 C 10.402344 18.472656 10.453125 18.414062 10.339844 18.414062 C 10.273438 18.414062 10.246094 18.359375 10.257812 18.328125 C 10.273438 18.292969 10.335938 18.300781 10.417969 18.296875 Z M 4.167969 18.269531 C 4.148438 18.417969 4.160156 18.324219 4.203125 18.398438 C 4.183594 18.453125 4.09375 18.460938 4.070312 18.40625 C 4.050781 18.351562 4.109375 18.269531 4.167969 18.269531 Z M 10.652344 18.058594 C 10.726562 18.058594 10.859375 18.210938 10.84375 18.261719 C 10.824219 18.324219 10.769531 18.316406 10.667969 18.238281 C 10.554688 18.144531 10.550781 18.058594 10.652344 18.058594 Z M 8.765625 18.03125 C 8.789062 18.03125 8.820312 18.042969 8.855469 18.058594 C 8.882812 18.070312 8.917969 18.078125 8.925781 18.078125 C 8.933594 18.074219 8.996094 18.09375 9.0625 18.113281 C 9.226562 18.171875 9.214844 18.199219 9.070312 18.359375 C 8.964844 18.480469 8.90625 18.550781 8.851562 18.515625 C 8.835938 18.503906 8.84375 18.4375 8.835938 18.371094 C 8.824219 18.308594 8.851562 18.191406 8.769531 18.183594 C 8.699219 18.179688 8.671875 18.132812 8.695312 18.085938 C 8.714844 18.046875 8.738281 18.035156 8.765625 18.03125 Z M 10.183594 18 C 10.246094 18 10.253906 18.011719 10.257812 18.089844 C 10.265625 18.230469 9.960938 18.398438 9.558594 18.3125 C 9.382812 18.277344 9.253906 18.238281 9.320312 18.175781 C 9.34375 18.152344 9.4375 18.140625 9.617188 18.171875 C 9.777344 18.199219 9.910156 18.160156 9.988281 18.101562 C 10.039062 18.0625 10.140625 18 10.183594 18 Z M 10.914062 17.121094 C 10.929688 17.121094 10.949219 17.128906 10.96875 17.148438 C 11.011719 17.1875 10.996094 17.203125 10.996094 17.296875 C 10.992188 17.378906 10.90625 17.414062 10.890625 17.402344 C 10.851562 17.378906 10.851562 17.238281 10.871094 17.164062 C 10.878906 17.132812 10.894531 17.121094 10.914062 17.121094 Z M 10.949219 16.96875 C 10.945312 16.96875 10.945312 16.972656 10.941406 16.980469 C 10.9375 16.996094 10.910156 17.007812 10.910156 16.984375 C 10.910156 16.976562 10.910156 16.972656 10.9375 16.972656 C 10.941406 16.96875 10.945312 16.96875 10.949219 16.96875 Z M 10.925781 16.714844 C 10.933594 16.714844 10.941406 16.714844 10.949219 16.714844 C 10.972656 16.71875 10.996094 16.75 10.992188 16.761719 C 10.988281 16.765625 10.976562 16.78125 10.972656 16.785156 C 10.9375 16.839844 10.914062 16.84375 10.894531 16.8125 C 10.863281 16.75 10.875 16.71875 10.925781 16.714844 Z M 3.613281 16.289062 C 3.613281 16.289062 3.617188 16.289062 3.617188 16.289062 C 3.648438 16.292969 3.625 16.3125 3.628906 16.378906 C 3.632812 16.40625 3.601562 16.414062 3.582031 16.425781 C 3.53125 16.457031 3.476562 16.464844 3.46875 16.40625 C 3.460938 16.363281 3.570312 16.296875 3.613281 16.289062 Z M 5.09375 15.808594 C 5.140625 15.800781 5.179688 15.816406 5.210938 15.84375 C 5.269531 15.902344 5.226562 15.898438 5.132812 15.929688 C 5.082031 15.949219 5.015625 16 5.054688 16.058594 C 5.082031 16.101562 5.097656 16.097656 5.136719 16.160156 C 5.175781 16.222656 5.230469 16.308594 5.226562 16.355469 C 5.21875 16.476562 5.289062 16.457031 5.417969 16.40625 C 5.550781 16.351562 5.675781 16.34375 5.769531 16.382812 C 5.847656 16.414062 5.851562 16.425781 5.835938 16.558594 C 5.824219 16.632812 5.78125 16.714844 5.773438 16.808594 L 5.761719 17.015625 L 5.949219 17.105469 C 6.070312 17.164062 6.097656 17.160156 6.109375 17.214844 C 6.144531 17.355469 6.113281 17.367188 5.957031 17.285156 C 5.914062 17.261719 5.828125 17.222656 5.800781 17.222656 C 5.789062 17.265625 5.816406 17.304688 5.8125 17.335938 C 5.804688 17.394531 5.820312 17.367188 5.742188 17.363281 C 5.699219 17.363281 5.671875 17.367188 5.625 17.347656 C 5.625 17.398438 5.605469 17.4375 5.605469 17.464844 C 5.605469 17.503906 5.59375 17.546875 5.574219 17.558594 C 5.558594 17.566406 5.53125 17.609375 5.515625 17.648438 C 5.5 17.691406 5.464844 17.722656 5.429688 17.722656 C 5.398438 17.722656 5.355469 17.742188 5.335938 17.765625 C 5.316406 17.792969 5.296875 17.789062 5.234375 17.800781 C 5.179688 17.808594 5.121094 17.816406 5.066406 17.8125 C 5.058594 17.863281 5.082031 17.925781 5.074219 17.992188 C 5.066406 18.070312 5.003906 18.21875 4.953125 18.320312 C 4.894531 18.433594 4.863281 18.546875 4.859375 18.625 C 4.859375 18.734375 4.871094 18.753906 4.9375 18.769531 C 5.003906 18.785156 5.011719 18.800781 5 18.863281 C 4.988281 18.910156 4.996094 18.941406 5.027344 18.960938 C 5.0625 18.980469 5.066406 19.003906 5.042969 19.066406 C 5.015625 19.144531 4.914062 19.179688 4.625 19.285156 C 4.441406 19.351562 4.46875 19.375 4.414062 19.3125 C 4.347656 19.242188 4.378906 19.171875 4.480469 19.105469 C 4.519531 19.078125 4.632812 19.03125 4.558594 18.964844 C 4.523438 18.929688 4.429688 19.015625 4.363281 19.058594 C 4.121094 19.21875 4.128906 19.085938 4.320312 18.796875 C 4.40625 18.667969 4.421875 18.625 4.398438 18.578125 C 4.375 18.535156 4.382812 18.503906 4.429688 18.445312 C 4.503906 18.351562 4.460938 18.21875 4.351562 18.199219 C 4.246094 18.175781 4.292969 18.222656 4.300781 17.875 L 4.3125 17.523438 L 4.175781 17.328125 C 4.097656 17.222656 4.035156 17.113281 4.035156 17.097656 C 4.035156 17.039062 3.871094 16.730469 3.84375 16.660156 C 3.835938 16.632812 3.75 16.597656 3.738281 16.558594 C 3.722656 16.492188 3.660156 16.472656 3.726562 16.445312 C 3.832031 16.394531 3.859375 16.398438 3.929688 16.460938 C 3.960938 16.488281 4.070312 16.53125 4.171875 16.550781 C 4.34375 16.582031 4.414062 16.589844 4.550781 16.527344 C 4.65625 16.480469 4.71875 16.429688 4.757812 16.355469 C 4.8125 16.25 4.839844 16.21875 4.789062 16.140625 C 4.746094 16.078125 4.707031 16.070312 4.734375 16.011719 C 4.75 15.984375 4.820312 15.976562 4.835938 15.976562 C 4.855469 15.976562 4.847656 15.945312 4.90625 15.894531 C 4.964844 15.84375 5.035156 15.8125 5.09375 15.808594 Z M 7.0625 15.683594 C 7.074219 15.679688 7.085938 15.6875 7.101562 15.703125 C 7.125 15.722656 7.125 15.738281 7.105469 15.753906 C 7.085938 15.761719 7.0625 15.757812 7.054688 15.738281 C 7.035156 15.710938 7.042969 15.6875 7.0625 15.683594 Z M 5.351562 15.671875 C 5.363281 15.671875 5.378906 15.679688 5.394531 15.699219 C 5.40625 15.714844 5.40625 15.730469 5.390625 15.746094 C 5.375 15.765625 5.351562 15.769531 5.339844 15.757812 C 5.300781 15.707031 5.320312 15.671875 5.351562 15.671875 Z M 10.027344 15.667969 C 10.039062 15.667969 10.050781 15.667969 10.0625 15.667969 C 10.121094 15.671875 10.171875 15.761719 10.101562 15.792969 C 10.058594 15.816406 9.992188 15.832031 9.957031 15.761719 C 9.914062 15.683594 9.957031 15.667969 10.027344 15.667969 Z M 7.277344 15.660156 C 7.304688 15.660156 7.324219 15.675781 7.324219 15.710938 C 7.324219 15.761719 7.277344 15.777344 7.21875 15.738281 C 7.179688 15.710938 7.179688 15.707031 7.21875 15.679688 C 7.242188 15.667969 7.261719 15.660156 7.277344 15.660156 Z M 5.515625 15.546875 C 5.527344 15.546875 5.539062 15.550781 5.554688 15.558594 C 5.601562 15.585938 5.570312 15.660156 5.492188 15.640625 C 5.425781 15.625 5.421875 15.601562 5.472656 15.566406 C 5.492188 15.554688 5.503906 15.550781 5.515625 15.546875 Z M 6.546875 15.523438 C 6.550781 15.523438 6.550781 15.523438 6.550781 15.523438 C 6.574219 15.578125 6.546875 15.671875 6.542969 15.738281 C 6.539062 15.78125 6.601562 15.8125 6.601562 15.871094 C 6.597656 15.929688 6.507812 15.972656 6.503906 16.042969 C 6.492188 16.210938 6.316406 16.304688 6.199219 16.226562 C 6.171875 16.210938 6.136719 16.285156 6.09375 16.335938 C 6.019531 16.414062 6.035156 16.398438 6 16.363281 C 5.957031 16.320312 5.992188 16.199219 6.050781 16.148438 C 6.085938 16.117188 6.113281 16.074219 6.113281 16.054688 C 6.113281 16.035156 6.148438 16 6.175781 15.980469 C 6.203125 15.957031 6.242188 15.898438 6.269531 15.851562 C 6.339844 15.734375 6.515625 15.519531 6.546875 15.523438 Z M 19.214844 15.035156 C 19.144531 15.039062 18.976562 15.128906 18.886719 15.222656 C 18.835938 15.277344 18.808594 15.328125 18.820312 15.359375 C 18.84375 15.421875 18.890625 15.382812 18.980469 15.308594 C 19.023438 15.277344 19.074219 15.242188 19.101562 15.242188 C 19.199219 15.242188 19.3125 15.085938 19.238281 15.039062 C 19.234375 15.035156 19.226562 15.035156 19.214844 15.035156 Z M 17.207031 13.886719 C 17.214844 13.882812 17.226562 13.894531 17.265625 13.90625 C 17.320312 13.929688 17.328125 13.988281 17.277344 14.039062 C 17.253906 14.058594 17.25 14.09375 17.191406 14.035156 C 17.15625 14 17.152344 13.972656 17.175781 13.929688 C 17.191406 13.898438 17.195312 13.886719 17.207031 13.886719 Z M 8.039062 13.789062 L 8.171875 13.796875 L 8.171875 13.933594 C 8.167969 14.082031 8.144531 14.125 8.09375 14.125 C 8.050781 14.125 7.992188 14.199219 7.976562 14.3125 C 7.957031 14.425781 7.929688 14.476562 7.835938 14.558594 C 7.769531 14.617188 7.644531 14.730469 7.519531 14.847656 L 7.320312 15.027344 L 7.335938 15.308594 C 7.351562 15.617188 7.425781 15.570312 7.214844 15.585938 C 7.140625 15.589844 7.042969 15.558594 7.019531 15.589844 C 6.984375 15.636719 6.953125 15.667969 6.90625 15.660156 L 6.777344 15.636719 C 6.769531 15.628906 6.691406 15.566406 6.789062 15.421875 C 6.894531 15.253906 6.976562 15.042969 7.1875 14.808594 C 7.257812 14.730469 7.335938 14.644531 7.335938 14.625 C 7.335938 14.605469 7.367188 14.570312 7.410156 14.542969 C 7.449219 14.515625 7.484375 14.476562 7.484375 14.457031 C 7.484375 14.433594 7.511719 14.394531 7.546875 14.363281 C 7.578125 14.335938 7.605469 14.28125 7.605469 14.246094 C 7.605469 14.210938 7.660156 14.125 7.726562 14.054688 C 7.792969 13.984375 7.847656 13.90625 7.847656 13.882812 C 7.847656 13.816406 7.902344 13.808594 8.039062 13.789062 Z M 20.886719 13.390625 L 20.75 13.46875 C 20.695312 13.5 20.644531 13.53125 20.609375 13.53125 C 20.554688 13.53125 20.476562 13.558594 20.492188 13.613281 C 20.503906 13.652344 20.519531 13.78125 20.519531 13.796875 C 20.605469 13.820312 20.597656 13.816406 20.625 13.78125 C 20.65625 13.742188 20.667969 13.664062 20.710938 13.671875 C 20.957031 13.695312 20.902344 13.546875 20.910156 13.492188 C 20.925781 13.398438 20.886719 13.421875 20.886719 13.390625 Z M 21.292969 13.199219 C 21.265625 13.199219 21.234375 13.210938 21.1875 13.246094 C 21.117188 13.296875 21.117188 13.359375 21.207031 13.375 C 21.230469 13.378906 21.28125 13.382812 21.304688 13.382812 C 21.3125 13.367188 21.378906 13.320312 21.367188 13.292969 C 21.347656 13.242188 21.332031 13.199219 21.292969 13.199219 Z M 18.570312 12.8125 C 18.652344 12.8125 18.660156 12.84375 18.636719 12.90625 C 18.617188 12.957031 18.507812 12.964844 18.480469 12.917969 C 18.445312 12.859375 18.5 12.8125 18.570312 12.8125 Z M 18.9375 12.566406 C 18.957031 12.566406 18.96875 12.574219 18.972656 12.589844 C 18.980469 12.617188 18.96875 12.644531 18.945312 12.675781 C 18.90625 12.722656 18.933594 12.746094 18.953125 12.789062 C 18.980469 12.855469 18.984375 12.921875 18.894531 12.925781 C 18.828125 12.929688 18.765625 12.917969 18.757812 12.902344 C 18.75 12.890625 18.753906 12.859375 18.769531 12.839844 C 18.816406 12.816406 18.777344 12.78125 18.753906 12.753906 C 18.71875 12.722656 18.710938 12.660156 18.742188 12.664062 C 18.816406 12.675781 18.832031 12.628906 18.878906 12.589844 C 18.898438 12.574219 18.921875 12.566406 18.9375 12.566406 Z M 20.296875 12.03125 C 20.308594 12.03125 20.320312 12.03125 20.332031 12.042969 C 20.367188 12.082031 20.355469 12.097656 20.316406 12.140625 C 20.289062 12.171875 20.28125 12.230469 20.207031 12.175781 C 20.171875 12.152344 20.15625 12.117188 20.167969 12.085938 C 20.183594 12.042969 20.222656 12.042969 20.257812 12.039062 C 20.269531 12.039062 20.285156 12.03125 20.296875 12.03125 Z M 24.242188 11.972656 C 24.25 11.972656 24.257812 11.972656 24.269531 11.972656 C 24.3125 11.980469 24.328125 11.984375 24.328125 12.035156 C 24.328125 12.097656 24.308594 12.113281 24.246094 12.121094 C 24.191406 12.128906 24.179688 12.097656 24.167969 12.066406 C 24.144531 12.007812 24.179688 11.972656 24.242188 11.972656 Z M 24.160156 11.730469 C 24.171875 11.730469 24.183594 11.730469 24.195312 11.734375 C 24.253906 11.738281 24.265625 11.738281 24.265625 11.796875 C 24.265625 11.859375 24.25 11.847656 24.167969 11.855469 C 24.101562 11.863281 24.09375 11.859375 24.082031 11.824219 C 24.058594 11.765625 24.09375 11.730469 24.160156 11.730469 Z M 25.066406 10.714844 C 25.074219 10.714844 25.082031 10.714844 25.085938 10.714844 C 25.105469 10.71875 25.121094 10.722656 25.136719 10.730469 C 25.171875 10.753906 25.195312 10.746094 25.195312 10.878906 C 25.195312 11.050781 25.191406 11.046875 25.113281 11.054688 C 25.050781 11.0625 25.050781 11 25.042969 10.941406 C 25.03125 10.859375 24.945312 10.863281 24.859375 10.949219 C 24.796875 11.019531 24.746094 11.0625 24.722656 11.003906 C 24.691406 10.917969 24.71875 10.835938 24.828125 10.792969 C 24.933594 10.746094 25.011719 10.71875 25.066406 10.714844 Z M 19.71875 10.078125 C 19.746094 10.078125 19.847656 10.171875 19.929688 10.261719 C 20 10.339844 20.046875 10.390625 20.164062 10.375 C 20.269531 10.359375 20.421875 10.46875 20.46875 10.550781 C 20.5 10.609375 20.546875 10.628906 20.492188 10.6875 C 20.476562 10.703125 20.4375 10.738281 20.484375 10.773438 C 20.511719 10.792969 20.535156 10.84375 20.554688 10.878906 C 20.59375 10.949219 20.636719 11.035156 20.6875 11.035156 C 20.722656 11.035156 20.773438 11.054688 20.765625 11.160156 C 20.757812 11.207031 20.730469 11.242188 20.65625 11.273438 C 20.617188 11.289062 20.550781 11.335938 20.5625 11.378906 C 20.574219 11.421875 20.625 11.429688 20.667969 11.445312 C 20.722656 11.464844 20.730469 11.558594 20.746094 11.558594 C 20.789062 11.558594 20.882812 11.550781 20.871094 11.699219 C 20.867188 11.734375 20.871094 11.773438 20.898438 11.789062 C 20.921875 11.804688 20.972656 11.796875 21.023438 11.785156 C 21.238281 11.746094 21.285156 11.78125 21.484375 11.929688 C 21.582031 12.007812 21.734375 12.082031 21.8125 12.117188 C 21.9375 12.171875 21.988281 12.210938 22.066406 12.144531 C 22.140625 12.082031 22.179688 12.09375 22.273438 12.15625 C 22.378906 12.226562 22.355469 12.253906 22.316406 12.3125 C 22.300781 12.339844 22.242188 12.378906 22.304688 12.449219 C 22.382812 12.554688 22.246094 12.542969 22.269531 12.648438 C 22.28125 12.695312 22.308594 12.738281 22.335938 12.738281 C 22.363281 12.734375 22.394531 12.683594 22.398438 12.625 C 22.410156 12.527344 22.464844 12.570312 22.519531 12.582031 C 22.601562 12.605469 22.734375 12.625 22.730469 12.597656 C 22.726562 12.527344 22.703125 12.476562 22.714844 12.472656 C 22.746094 12.464844 22.839844 12.480469 22.878906 12.484375 C 22.933594 12.488281 23.027344 12.429688 23.09375 12.371094 C 23.144531 12.328125 23.175781 12.289062 23.195312 12.285156 C 23.21875 12.277344 23.246094 12.324219 23.28125 12.347656 C 23.371094 12.40625 23.414062 12.371094 23.59375 12.152344 C 23.679688 12.050781 23.800781 11.972656 23.839844 11.960938 C 23.929688 11.9375 23.992188 12 23.992188 12.078125 C 23.992188 12.140625 23.957031 12.175781 23.890625 12.175781 C 23.832031 12.175781 23.738281 12.246094 23.738281 12.308594 C 23.738281 12.386719 23.632812 12.460938 23.421875 12.503906 C 23.316406 12.523438 23.210938 12.492188 23.148438 12.601562 C 23.121094 12.648438 23.070312 12.664062 23.03125 12.664062 C 22.988281 12.664062 22.949219 12.699219 22.949219 12.738281 C 22.949219 12.769531 22.933594 12.792969 22.875 12.839844 C 22.78125 12.910156 22.722656 12.949219 22.625 12.914062 C 22.492188 12.867188 22.449219 12.90625 22.183594 13.050781 C 22.019531 13.132812 21.839844 13.234375 21.777344 13.273438 C 21.714844 13.3125 21.675781 13.359375 21.617188 13.355469 C 21.609375 13.355469 21.5625 13.359375 21.476562 13.480469 C 21.410156 13.570312 21.273438 13.617188 21.242188 13.617188 C 21.152344 13.617188 20.917969 13.796875 20.847656 13.898438 C 20.777344 14 20.578125 14.140625 20.488281 14.136719 C 20.429688 14.132812 20.402344 14.144531 20.414062 14.214844 C 20.417969 14.234375 20.375 14.292969 20.316406 14.347656 C 20.261719 14.40625 20.230469 14.460938 20.230469 14.476562 C 20.226562 14.5 20.226562 14.535156 20.191406 14.585938 C 20.15625 14.632812 20.128906 14.683594 20.128906 14.699219 C 20.128906 14.714844 20.109375 14.726562 20.078125 14.757812 C 20.042969 14.789062 20.015625 14.828125 20.015625 14.851562 C 20.015625 14.898438 19.96875 14.914062 19.730469 14.9375 C 19.554688 14.957031 19.484375 14.953125 19.390625 15.097656 C 19.195312 15.398438 19.03125 15.507812 18.910156 15.558594 C 18.839844 15.589844 18.785156 15.628906 18.785156 15.644531 C 18.785156 15.664062 18.738281 15.675781 18.683594 15.675781 C 18.617188 15.675781 18.550781 15.703125 18.484375 15.765625 C 18.425781 15.816406 18.363281 15.855469 18.34375 15.855469 C 18.277344 15.855469 18.011719 16.058594 17.878906 16.089844 C 17.839844 16.128906 17.816406 16.238281 17.816406 16.269531 C 17.808594 16.371094 17.734375 16.433594 17.679688 16.441406 C 17.648438 16.445312 17.628906 16.398438 17.609375 16.328125 C 17.59375 16.261719 17.476562 16.3125 17.390625 16.359375 C 17.316406 16.402344 17.292969 16.46875 17.371094 16.566406 C 17.445312 16.664062 17.46875 16.710938 17.394531 16.75 C 17.316406 16.789062 17.3125 16.734375 17.253906 16.636719 C 17.1875 16.527344 17.078125 16.5625 17.167969 16.707031 C 17.226562 16.804688 17.179688 16.839844 17.09375 16.902344 C 17.042969 16.945312 16.941406 17.019531 16.875 17.074219 C 16.785156 17.144531 16.78125 17.179688 16.734375 17.167969 C 16.722656 17.121094 16.769531 17.097656 16.769531 17.070312 C 16.769531 17.042969 16.746094 17.039062 16.710938 17.035156 C 16.660156 17.027344 16.566406 17.179688 16.507812 17.234375 C 16.46875 17.273438 16.390625 17.28125 16.378906 17.316406 C 16.339844 17.425781 16.289062 17.488281 16.273438 17.515625 C 16.230469 17.601562 16.210938 17.578125 16.148438 17.5625 C 16.097656 17.546875 16.050781 17.605469 16.011719 17.644531 C 15.980469 17.675781 15.933594 17.707031 15.90625 17.71875 C 15.875 17.730469 15.832031 17.789062 15.808594 17.847656 C 15.785156 17.90625 15.789062 17.945312 15.761719 17.953125 C 15.722656 17.964844 15.667969 17.835938 15.609375 17.886719 C 15.59375 17.902344 15.589844 17.941406 15.632812 17.984375 C 15.691406 18.03125 15.679688 18.0625 15.679688 18.070312 C 15.660156 18.136719 15.566406 18.160156 15.539062 18.179688 C 15.472656 18.222656 15.417969 18.289062 15.320312 18.339844 C 15.15625 18.421875 15.054688 18.503906 14.832031 18.933594 C 14.695312 19.199219 14.5625 19.386719 14.484375 19.421875 C 14.367188 19.472656 14.292969 19.578125 14.253906 19.648438 C 14.171875 19.796875 14.097656 19.867188 13.960938 19.929688 C 13.90625 19.953125 13.761719 20.039062 13.632812 20.121094 C 13.507812 20.207031 13.378906 20.253906 13.335938 20.253906 C 13.3125 20.253906 13.246094 20.3125 13.148438 20.359375 C 12.984375 20.441406 12.789062 20.515625 12.4375 20.644531 C 12.359375 20.671875 12.25 20.734375 12.199219 20.78125 C 12.144531 20.824219 12.0625 20.882812 12.003906 20.894531 C 11.949219 20.902344 11.824219 21.003906 11.746094 21.0625 C 11.667969 21.121094 11.582031 21.160156 11.519531 21.15625 C 11.484375 21.152344 11.359375 21.242188 11.226562 21.332031 C 11.097656 21.421875 10.933594 21.523438 10.863281 21.558594 C 10.792969 21.59375 10.671875 21.65625 10.574219 21.792969 C 10.542969 21.835938 10.398438 21.980469 10.355469 21.980469 C 10.265625 21.980469 10.230469 22.027344 10.234375 22.082031 C 10.238281 22.140625 10.203125 22.160156 10.101562 22.160156 C 9.957031 22.164062 9.757812 22.207031 9.75 22.324219 C 9.742188 22.371094 9.691406 22.433594 9.660156 22.4375 C 9.613281 22.449219 9.617188 22.417969 9.589844 22.414062 C 9.371094 22.386719 8.925781 22.53125 8.929688 22.664062 C 8.929688 22.714844 8.878906 22.699219 8.78125 22.710938 C 8.710938 22.71875 8.628906 22.726562 8.640625 22.65625 C 8.652344 22.574219 8.636719 22.578125 8.609375 22.578125 C 8.574219 22.578125 8.515625 22.640625 8.515625 22.679688 C 8.527344 22.808594 8.457031 22.875 8.335938 22.757812 C 8.277344 22.699219 8.273438 22.628906 8.199219 22.695312 C 8.175781 22.714844 8.101562 22.730469 8.035156 22.714844 C 7.976562 22.703125 7.867188 22.675781 7.765625 22.675781 C 7.667969 22.675781 7.488281 22.667969 7.398438 22.640625 C 7.328125 22.621094 7.253906 22.570312 7.207031 22.570312 C 7.160156 22.570312 7.140625 22.613281 7.070312 22.632812 C 6.980469 22.652344 6.863281 22.6875 6.808594 22.710938 C 6.777344 22.722656 6.636719 22.761719 6.527344 22.761719 C 6.429688 22.761719 6.347656 22.722656 6.167969 22.722656 C 6.070312 22.722656 5.96875 22.714844 5.945312 22.738281 C 5.882812 22.804688 5.828125 22.726562 5.832031 22.726562 L 5.480469 22.550781 C 5.15625 22.386719 5.113281 22.339844 4.769531 22.003906 C 4.476562 21.71875 4.351562 21.601562 4.277344 21.398438 C 4.183594 21.132812 4.097656 21.117188 4.097656 20.90625 C 4.101562 20.832031 4.078125 20.730469 4.054688 20.691406 C 4.03125 20.65625 3.984375 20.515625 3.949219 20.378906 C 3.917969 20.242188 3.789062 19.90625 3.664062 19.625 C 3.390625 19.007812 3.386719 19 3.4375 18.898438 C 3.515625 18.746094 3.757812 18.609375 3.820312 18.675781 C 3.875 18.730469 3.835938 18.726562 3.730469 18.792969 C 3.679688 18.828125 3.640625 18.871094 3.644531 18.894531 C 3.648438 18.914062 3.636719 18.949219 3.617188 18.972656 C 3.597656 18.996094 3.597656 19.015625 3.609375 19.015625 C 3.625 19.015625 3.6875 19.128906 3.726562 19.183594 C 3.742188 19.207031 3.75 19.226562 3.75 19.25 C 3.742188 19.378906 3.757812 19.445312 3.855469 19.542969 C 3.964844 19.695312 4.035156 19.632812 3.980469 19.535156 C 3.863281 19.460938 3.992188 19.375 4.015625 19.332031 C 4.039062 19.285156 4.0625 19.394531 4.125 19.332031 C 4.195312 19.25 4.207031 19.296875 4.230469 19.296875 C 4.25 19.296875 4.367188 19.390625 4.492188 19.507812 C 4.617188 19.625 4.628906 19.710938 4.792969 19.742188 C 4.839844 19.75 4.878906 19.730469 4.929688 19.742188 C 4.984375 19.796875 5.109375 19.816406 5.222656 19.820312 C 5.3125 19.824219 5.335938 19.871094 5.367188 19.867188 C 5.398438 19.863281 5.484375 19.828125 5.511719 19.824219 C 5.578125 19.820312 5.558594 19.867188 5.609375 19.894531 C 5.945312 20.058594 6.28125 20.054688 6.335938 19.964844 C 6.382812 19.894531 6.539062 19.914062 6.628906 19.925781 C 6.714844 19.941406 6.792969 19.976562 6.929688 19.984375 C 7.113281 19.996094 7.238281 20.03125 7.238281 20.078125 C 7.238281 20.089844 7.246094 20.121094 7.257812 20.144531 C 7.269531 20.179688 7.25 20.1875 7.191406 20.210938 C 7.140625 20.230469 7.09375 20.25 7.039062 20.273438 C 6.976562 20.300781 6.882812 20.3125 6.796875 20.304688 C 6.640625 20.289062 6.164062 20.179688 5.8125 20.128906 C 5.703125 20.113281 5.621094 20.058594 5.585938 20.050781 C 5.558594 20.042969 5.484375 20.039062 5.460938 20.0625 C 5.441406 20.082031 5.453125 20.164062 5.488281 20.164062 C 5.550781 20.164062 5.605469 20.246094 5.605469 20.3125 C 5.605469 20.394531 5.558594 20.421875 5.554688 20.464844 C 5.550781 20.503906 5.59375 20.558594 5.621094 20.589844 C 5.695312 20.667969 5.691406 20.75 5.660156 20.832031 C 5.640625 20.882812 5.601562 20.980469 5.628906 21.121094 C 5.644531 21.214844 5.597656 21.320312 5.574219 21.34375 C 5.53125 21.394531 5.578125 21.445312 5.644531 21.441406 C 5.71875 21.453125 5.761719 21.492188 5.703125 21.558594 C 5.660156 21.609375 5.671875 21.679688 5.726562 21.679688 C 5.828125 21.671875 5.875 21.738281 5.953125 21.757812 C 6.148438 21.808594 6.242188 21.847656 6.261719 21.953125 C 6.269531 21.992188 6.273438 22.089844 6.386719 22.101562 C 6.46875 22.109375 6.503906 22.035156 6.5 22.023438 C 6.480469 21.910156 6.527344 21.894531 6.613281 21.992188 C 6.652344 22.03125 6.710938 22.0625 6.753906 22.050781 C 6.792969 22.042969 6.820312 22.039062 6.859375 22.058594 C 6.90625 22.082031 6.988281 22.082031 7.011719 22.058594 C 7.03125 22.042969 7.074219 22.027344 7.136719 22.027344 C 7.203125 22.027344 7.265625 22.023438 7.289062 21.996094 C 7.304688 21.976562 7.371094 21.933594 7.402344 21.929688 C 7.433594 21.925781 7.484375 21.960938 7.503906 21.964844 C 7.648438 21.988281 7.707031 21.960938 7.863281 21.910156 C 8.042969 21.847656 8.089844 21.804688 8.144531 21.730469 C 8.175781 21.6875 8.246094 21.804688 8.300781 21.785156 L 8.4375 21.738281 C 8.46875 21.738281 8.542969 21.722656 8.550781 21.707031 C 8.570312 21.679688 8.714844 21.625 8.867188 21.625 C 9.269531 21.621094 9.074219 21.539062 8.945312 21.535156 C 8.863281 21.53125 8.757812 21.507812 8.816406 21.453125 C 8.847656 21.421875 8.890625 21.359375 8.945312 21.363281 C 8.984375 21.367188 9.097656 21.359375 9.113281 21.351562 C 9.144531 21.339844 9.214844 21.285156 9.289062 21.21875 C 9.429688 21.085938 9.460938 21.089844 9.523438 21.09375 C 9.585938 21.097656 9.652344 21.082031 9.71875 21.066406 C 9.78125 21.050781 9.84375 21.03125 9.84375 20.988281 C 9.84375 20.953125 9.703125 20.960938 9.617188 20.960938 C 9.574219 20.960938 9.519531 20.984375 9.480469 20.984375 C 9.4375 20.984375 9.398438 20.949219 9.375 20.945312 C 9.324219 20.933594 9.292969 20.90625 9.285156 20.859375 C 9.28125 20.828125 9.277344 20.757812 9.246094 20.722656 C 9.152344 20.613281 9.117188 20.667969 9.097656 20.800781 C 9.089844 20.84375 9.027344 20.820312 9.015625 20.847656 C 9.003906 20.878906 9.144531 20.941406 9.03125 20.96875 C 9.003906 20.972656 8.972656 21.003906 8.953125 21.023438 C 8.914062 21.070312 8.835938 21.058594 8.769531 21.058594 C 8.6875 21.058594 8.671875 20.949219 8.761719 20.871094 C 8.789062 20.847656 8.691406 20.839844 8.675781 20.765625 C 8.671875 20.730469 8.699219 20.703125 8.761719 20.671875 C 8.800781 20.648438 8.804688 20.636719 8.769531 20.578125 C 8.71875 20.496094 8.703125 20.484375 8.972656 20.402344 C 9.125 20.355469 9.234375 20.332031 9.351562 20.375 C 9.542969 20.453125 9.632812 20.378906 9.710938 20.304688 C 9.753906 20.261719 9.933594 20.148438 10.109375 20.0625 C 10.28125 19.972656 10.464844 19.890625 10.46875 19.875 C 10.488281 19.828125 10.839844 19.664062 10.925781 19.664062 C 11.03125 19.664062 11.222656 19.59375 11.28125 19.527344 C 11.304688 19.5 11.386719 19.441406 11.464844 19.402344 C 11.554688 19.359375 11.640625 19.28125 11.691406 19.203125 C 11.792969 19.054688 12.113281 18.738281 12.265625 18.75 C 12.394531 18.761719 12.464844 18.648438 12.386719 18.433594 C 12.347656 18.335938 12.378906 18.28125 12.429688 18.273438 C 12.535156 18.265625 12.546875 18.304688 12.585938 18.386719 C 12.605469 18.429688 12.679688 18.484375 12.722656 18.511719 C 12.785156 18.554688 12.800781 18.554688 12.902344 18.503906 C 12.960938 18.472656 13.050781 18.425781 13.148438 18.414062 C 13.246094 18.402344 13.375 18.390625 13.421875 18.363281 C 13.472656 18.335938 13.425781 18.273438 13.46875 18.234375 C 13.566406 18.148438 13.589844 18.101562 13.589844 18.015625 C 13.59375 17.945312 13.769531 17.855469 13.824219 17.808594 C 13.878906 17.761719 13.894531 17.75 13.933594 17.75 C 14.003906 17.75 14.046875 17.796875 14.09375 17.792969 C 14.207031 17.773438 14.257812 17.671875 14.257812 17.609375 C 14.257812 17.507812 14.226562 17.480469 14.425781 17.441406 C 14.453125 17.433594 14.53125 17.421875 14.585938 17.425781 C 14.585938 17.425781 14.605469 17.425781 14.605469 17.390625 C 14.605469 17.34375 14.5625 17.332031 14.476562 17.332031 C 14.285156 17.328125 14.109375 17.410156 14.015625 17.398438 C 13.980469 17.394531 13.90625 17.464844 13.863281 17.480469 C 13.824219 17.496094 13.8125 17.511719 13.769531 17.511719 C 13.722656 17.515625 13.730469 17.476562 13.546875 17.496094 C 13.296875 17.523438 13.175781 17.542969 13.128906 17.625 C 13.113281 17.652344 13.101562 17.675781 13.070312 17.691406 C 13.042969 17.703125 12.988281 17.6875 12.890625 17.710938 C 12.804688 17.734375 12.636719 17.734375 12.566406 17.738281 C 12.417969 17.742188 12.382812 17.742188 12.375 17.683594 C 12.367188 17.628906 12.4375 17.628906 12.445312 17.589844 C 12.453125 17.546875 12.363281 17.53125 12.335938 17.53125 C 12.226562 17.519531 12.144531 17.460938 12.140625 17.570312 C 12.136719 17.652344 12.117188 17.667969 12.003906 17.511719 C 11.945312 17.425781 11.878906 17.34375 11.855469 17.347656 C 11.800781 17.355469 11.757812 17.375 11.714844 17.417969 C 11.65625 17.484375 11.464844 17.574219 11.347656 17.570312 C 11.328125 17.570312 11.300781 17.566406 11.273438 17.554688 C 11.191406 17.515625 11.097656 17.421875 11.101562 17.277344 C 11.101562 17.125 11.117188 17.074219 11.195312 17.074219 C 11.226562 17.074219 11.292969 17.046875 11.304688 17.023438 C 11.328125 16.957031 11.351562 16.960938 11.402344 17.011719 C 11.417969 17.027344 11.390625 17.050781 11.496094 17.097656 C 11.519531 17.101562 11.523438 16.980469 11.535156 16.957031 C 11.566406 16.90625 11.542969 16.863281 11.511719 16.839844 C 11.480469 16.816406 11.417969 16.8125 11.351562 16.84375 C 11.242188 16.898438 11.160156 16.921875 11.160156 16.730469 C 11.15625 16.671875 11.125 16.632812 11.050781 16.605469 C 10.992188 16.582031 10.949219 16.558594 10.949219 16.546875 C 10.949219 16.511719 11.0625 16.445312 11.125 16.445312 C 11.152344 16.445312 11.203125 16.449219 11.238281 16.480469 C 11.269531 16.507812 11.253906 16.574219 11.304688 16.625 C 11.390625 16.710938 11.398438 16.648438 11.453125 16.617188 C 11.507812 16.5625 11.566406 16.5625 11.632812 16.609375 C 11.664062 16.613281 11.726562 16.582031 11.714844 16.535156 C 11.699219 16.480469 11.621094 16.460938 11.582031 16.460938 C 11.542969 16.460938 11.449219 16.417969 11.367188 16.363281 L 11.199219 16.25 L 11.078125 16.300781 C 10.9375 16.367188 10.90625 16.3125 10.859375 16.289062 C 10.859375 16.21875 10.722656 16.417969 10.722656 16.492188 C 10.722656 16.558594 10.574219 16.695312 10.503906 16.695312 C 10.425781 16.695312 10.496094 16.621094 10.554688 16.535156 C 10.613281 16.445312 10.589844 16.421875 10.535156 16.316406 C 10.496094 16.246094 10.460938 16.152344 10.375 16.203125 C 10.320312 16.222656 10.304688 16.246094 10.261719 16.207031 C 10.203125 16.175781 10.167969 16.125 10.167969 16.046875 C 10.171875 16.007812 10.171875 15.964844 10.183594 15.925781 C 10.191406 15.910156 10.222656 15.878906 10.234375 15.890625 C 10.285156 15.933594 10.34375 15.941406 10.378906 15.882812 C 10.398438 15.851562 10.378906 15.816406 10.308594 15.8125 C 10.277344 15.808594 10.222656 15.789062 10.28125 15.742188 C 10.308594 15.71875 10.472656 15.71875 10.667969 15.683594 C 10.957031 15.621094 11.039062 15.652344 11.179688 15.699219 C 11.265625 15.726562 11.363281 15.769531 11.371094 15.792969 C 11.378906 15.816406 11.410156 15.835938 11.4375 15.835938 C 11.464844 15.835938 11.503906 15.847656 11.519531 15.859375 C 11.535156 15.875 11.753906 15.910156 12.007812 15.941406 C 12.414062 15.988281 12.507812 15.992188 12.746094 15.957031 C 12.898438 15.933594 13.054688 15.902344 13.097656 15.878906 C 13.136719 15.859375 13.226562 15.816406 13.550781 15.824219 C 13.828125 15.832031 14.011719 15.761719 14.191406 15.757812 C 14.355469 15.753906 14.535156 15.710938 14.625 15.632812 C 14.691406 15.570312 14.839844 15.59375 14.882812 15.59375 C 14.949219 15.59375 15.226562 15.5 15.550781 15.378906 C 15.609375 15.359375 15.71875 15.304688 15.792969 15.257812 C 15.871094 15.214844 15.949219 15.179688 15.96875 15.175781 C 16.066406 15.167969 16.058594 15.097656 16.128906 15.03125 C 16.207031 14.960938 16.355469 14.878906 16.460938 14.824219 C 16.699219 14.703125 16.964844 14.523438 17.117188 14.308594 C 17.195312 14.199219 17.226562 14.140625 17.308594 14.132812 C 17.347656 14.125 17.382812 14.078125 17.410156 14.054688 C 17.460938 14.023438 17.519531 14.027344 17.578125 14.027344 C 17.609375 14.027344 17.636719 14.050781 17.660156 14.058594 C 17.695312 14.070312 17.84375 14.117188 17.882812 14.097656 C 17.90625 14.085938 17.9375 14.085938 17.960938 14.074219 C 17.976562 14.066406 18 14.046875 18.011719 14.035156 C 18.035156 14.011719 18.164062 13.984375 18.203125 13.992188 C 18.242188 14.003906 18.308594 14.003906 18.332031 14.046875 C 18.339844 14.0625 18.488281 14.054688 18.515625 14.058594 C 18.566406 14.0625 18.652344 14.050781 18.699219 14.035156 C 18.71875 14.03125 18.730469 14.011719 18.746094 14.003906 C 18.78125 13.984375 18.945312 13.964844 18.992188 13.972656 C 19.039062 13.980469 19.074219 13.992188 19.117188 14.007812 C 19.140625 14.015625 19.144531 14.046875 19.167969 14.054688 C 19.21875 14.070312 19.351562 13.941406 19.359375 13.941406 C 19.371094 13.949219 19.433594 14.015625 19.445312 14.027344 C 19.535156 14.132812 19.648438 14.125 19.765625 14.160156 C 19.785156 14.167969 19.882812 14.183594 19.898438 14.175781 C 19.921875 14.164062 19.933594 14.125 19.949219 14.109375 C 19.996094 14.050781 19.996094 14 20.003906 13.9375 C 20.011719 13.863281 19.957031 13.808594 19.953125 13.796875 C 19.941406 13.773438 19.949219 13.6875 19.953125 13.660156 C 19.96875 13.570312 19.96875 13.496094 19.996094 13.445312 C 20.015625 13.398438 20.046875 13.332031 20.082031 13.292969 C 20.203125 13.148438 20.339844 13.078125 20.386719 12.921875 C 20.414062 12.839844 20.878906 12.441406 20.996094 12.320312 C 20.9375 12.257812 20.847656 12.191406 20.714844 12.082031 C 20.667969 12.042969 20.546875 12.097656 20.539062 12.035156 C 20.535156 11.984375 20.515625 11.867188 20.484375 11.835938 C 20.464844 11.8125 20.476562 11.738281 20.46875 11.707031 C 20.453125 11.664062 20.40625 11.648438 20.375 11.617188 C 20.355469 11.601562 20.335938 11.554688 20.308594 11.542969 C 20.273438 11.523438 20.273438 11.523438 20.238281 11.519531 C 20.230469 11.515625 20.183594 11.496094 20.171875 11.488281 C 20.148438 11.460938 20.261719 11.390625 20.238281 11.355469 C 20.203125 11.304688 20.109375 11.332031 20.058594 11.34375 C 19.96875 11.355469 19.882812 11.367188 19.808594 11.375 C 19.742188 11.382812 19.695312 11.417969 19.636719 11.449219 C 19.609375 11.460938 19.605469 11.515625 19.628906 11.539062 C 19.636719 11.546875 19.660156 11.5625 19.675781 11.574219 C 19.691406 11.59375 19.683594 11.636719 19.671875 11.648438 C 19.625 11.695312 19.511719 11.695312 19.484375 11.722656 C 19.460938 11.746094 19.421875 11.761719 19.398438 11.785156 C 19.253906 11.96875 19.140625 11.9375 18.945312 12.074219 C 18.933594 12.089844 18.867188 12.121094 18.859375 12.128906 C 18.890625 12.101562 18.65625 12.113281 18.648438 12.117188 C 18.585938 12.179688 18.589844 12.355469 18.574219 12.367188 C 18.554688 12.390625 18.511719 12.386719 18.5 12.398438 C 18.492188 12.40625 18.484375 12.429688 18.476562 12.4375 C 18.449219 12.464844 18.550781 12.515625 18.492188 12.542969 C 18.453125 12.5625 18.417969 12.570312 18.375 12.582031 C 18.347656 12.589844 18.328125 12.609375 18.308594 12.621094 C 18.296875 12.625 18.277344 12.621094 18.269531 12.632812 C 18.257812 12.644531 18.25 12.660156 18.242188 12.667969 C 18.226562 12.683594 18.113281 12.675781 18.089844 12.6875 C 18.066406 12.699219 18.035156 12.714844 18.011719 12.726562 C 18.007812 12.730469 17.996094 12.726562 17.992188 12.738281 C 17.964844 12.789062 17.984375 12.824219 18.015625 12.855469 C 18.03125 12.871094 18.074219 12.878906 18.085938 12.890625 C 18.089844 12.894531 18.109375 12.949219 18.113281 12.957031 C 18.148438 13.027344 18.054688 12.976562 18.039062 12.996094 C 18.023438 13.007812 18.035156 13.054688 18.019531 13.039062 C 17.980469 13.078125 18.105469 13.121094 18.050781 13.175781 C 18.023438 13.203125 17.941406 13.1875 17.917969 13.199219 C 17.878906 13.21875 17.84375 13.234375 17.8125 13.265625 C 17.78125 13.296875 17.90625 13.378906 17.878906 13.429688 C 17.875 13.445312 17.839844 13.464844 17.828125 13.472656 C 17.816406 13.484375 17.824219 13.597656 17.808594 13.613281 C 17.796875 13.625 17.789062 13.640625 17.777344 13.652344 C 17.746094 13.664062 17.730469 13.671875 17.707031 13.695312 C 17.675781 13.726562 17.703125 13.757812 17.691406 13.777344 C 17.679688 13.800781 17.652344 13.800781 17.636719 13.816406 C 17.621094 13.832031 17.648438 13.867188 17.660156 13.871094 C 17.699219 13.890625 17.835938 13.851562 17.878906 13.875 C 17.902344 13.886719 17.941406 13.886719 17.960938 13.90625 C 17.96875 13.910156 17.96875 13.921875 17.96875 13.929688 C 17.96875 13.976562 17.910156 13.972656 17.871094 13.972656 C 17.84375 13.972656 17.820312 13.976562 17.792969 13.980469 C 17.679688 13.984375 17.484375 13.980469 17.410156 13.894531 C 17.347656 13.816406 17.339844 13.785156 17.355469 13.683594 C 17.367188 13.617188 17.398438 13.523438 17.429688 13.472656 C 17.460938 13.417969 17.492188 13.34375 17.503906 13.300781 C 17.519531 13.261719 17.558594 13.179688 17.597656 13.121094 C 17.710938 12.957031 17.71875 12.847656 17.554688 12.847656 C 17.523438 12.847656 17.460938 12.851562 17.453125 12.824219 C 17.421875 12.746094 17.59375 12.257812 17.722656 12.050781 C 17.765625 11.988281 17.828125 11.859375 17.832031 11.761719 C 17.84375 11.511719 17.964844 11.457031 18.261719 11.398438 C 18.433594 11.367188 18.605469 11.285156 18.65625 11.246094 C 18.707031 11.207031 18.851562 11.105469 18.980469 11.023438 C 19.179688 10.890625 19.28125 10.863281 19.242188 10.820312 C 19.195312 10.765625 19.203125 10.71875 19.300781 10.652344 C 19.371094 10.601562 19.4375 10.5625 19.472656 10.488281 C 19.511719 10.402344 19.601562 10.359375 19.597656 10.332031 C 19.589844 10.242188 19.667969 10.078125 19.71875 10.078125 Z M 19.914062 9.636719 C 19.929688 9.636719 19.949219 9.640625 19.972656 9.644531 C 20.113281 9.667969 20.074219 9.707031 20.074219 9.8125 C 20.074219 9.925781 20.015625 9.949219 19.9375 9.949219 C 19.914062 9.949219 19.898438 9.949219 19.871094 9.960938 C 19.851562 9.992188 19.863281 10.039062 19.816406 10.007812 C 19.804688 9.996094 19.804688 9.957031 19.792969 9.929688 C 19.75 9.816406 19.753906 9.828125 19.816406 9.71875 C 19.851562 9.65625 19.871094 9.636719 19.914062 9.636719 Z M 26.050781 8.242188 C 26.140625 8.246094 26.175781 8.316406 26.25 8.308594 C 26.363281 8.292969 26.402344 8.328125 26.402344 8.351562 C 26.398438 8.402344 26.375 8.488281 26.386719 8.507812 C 26.402344 8.523438 26.445312 8.578125 26.488281 8.632812 C 26.585938 8.757812 26.574219 8.800781 26.460938 8.859375 C 26.382812 8.902344 26.371094 8.917969 26.390625 9 C 26.402344 9.046875 26.386719 9.191406 26.375 9.289062 C 26.359375 9.4375 26.386719 9.46875 26.300781 9.566406 C 26.175781 9.707031 26.121094 9.664062 26.054688 9.558594 C 26.011719 9.492188 25.980469 9.480469 25.84375 9.480469 C 25.636719 9.480469 25.496094 9.613281 25.46875 9.832031 C 25.453125 9.960938 25.460938 9.992188 25.5 10.007812 C 25.527344 10.015625 25.550781 10.050781 25.550781 10.082031 C 25.550781 10.128906 25.578125 10.242188 25.628906 10.207031 C 25.730469 10.136719 25.796875 10.191406 25.738281 10.261719 C 25.71875 10.289062 25.71875 10.363281 25.695312 10.402344 C 25.65625 10.464844 25.71875 10.523438 25.816406 10.59375 C 26.003906 10.738281 26.078125 10.917969 25.988281 10.96875 C 25.910156 11.015625 25.9375 11.015625 25.875 10.914062 C 25.816406 10.8125 25.742188 10.800781 25.707031 10.871094 C 25.691406 10.898438 25.679688 10.921875 25.636719 10.917969 C 25.574219 10.910156 25.558594 10.878906 25.59375 10.78125 C 25.652344 10.644531 25.414062 10.5625 25.457031 10.769531 C 25.488281 10.929688 25.320312 10.8125 25.320312 10.640625 C 25.320312 10.578125 25.199219 10.300781 25.0625 10.148438 C 25.054688 10.136719 25.039062 10.082031 25.007812 10.035156 C 24.988281 10.007812 24.898438 9.964844 24.785156 9.925781 C 24.65625 9.882812 24.46875 9.789062 24.355469 9.714844 C 24.285156 9.667969 24.257812 9.609375 24.171875 9.566406 C 24.066406 9.519531 23.941406 9.488281 23.832031 9.457031 C 23.613281 9.394531 23.433594 9.375 23.382812 9.441406 C 23.332031 9.511719 23.359375 9.730469 23.382812 10.074219 C 23.402344 10.382812 23.335938 10.652344 23.328125 10.707031 C 23.320312 10.773438 23.289062 10.796875 23.171875 10.800781 C 23.035156 10.804688 23.03125 10.816406 22.992188 10.757812 C 22.957031 10.699219 22.902344 10.335938 22.90625 10.210938 C 22.90625 10.085938 22.9375 9.96875 22.941406 9.691406 C 22.945312 9.566406 22.921875 9.464844 22.898438 9.351562 L 22.789062 9.25 C 22.683594 9.152344 22.566406 9.195312 22.171875 9.300781 C 21.820312 9.394531 21.710938 9.558594 21.636719 9.714844 C 21.601562 9.789062 21.535156 9.835938 21.484375 9.894531 L 21.289062 9.890625 C 21.03125 9.882812 21 9.839844 21 9.691406 C 21 9.640625 20.992188 9.5625 20.96875 9.496094 C 20.925781 9.386719 20.929688 9.371094 20.976562 9.300781 C 21.007812 9.257812 21.023438 9.230469 21.074219 9.222656 C 21.1875 9.207031 21.226562 9.125 21.296875 9.054688 C 21.445312 8.902344 21.523438 8.898438 21.789062 8.8125 C 21.964844 8.75 22.125 8.703125 22.144531 8.703125 C 22.214844 8.699219 22.253906 8.675781 22.300781 8.632812 C 22.351562 8.582031 22.398438 8.617188 22.472656 8.660156 C 22.570312 8.710938 22.609375 8.703125 22.675781 8.667969 C 22.742188 8.636719 22.828125 8.59375 22.816406 8.492188 C 22.804688 8.378906 22.835938 8.363281 22.902344 8.363281 C 22.941406 8.363281 22.996094 8.394531 23.105469 8.429688 C 23.210938 8.464844 23.375 8.5 23.414062 8.492188 C 23.457031 8.484375 23.503906 8.496094 23.523438 8.519531 C 23.546875 8.546875 23.574219 8.574219 23.609375 8.574219 C 23.648438 8.570312 23.691406 8.519531 23.765625 8.484375 C 23.84375 8.449219 24.011719 8.351562 24.101562 8.480469 C 24.117188 8.5 24.167969 8.5625 24.242188 8.574219 C 24.296875 8.582031 24.363281 8.515625 24.460938 8.550781 C 24.601562 8.601562 24.636719 8.617188 24.730469 8.605469 C 24.976562 8.578125 24.96875 8.65625 24.96875 8.726562 C 24.96875 8.792969 24.910156 8.816406 24.839844 8.851562 C 24.785156 8.878906 24.761719 8.9375 24.808594 8.980469 C 24.867188 9.023438 24.898438 9.027344 24.941406 8.992188 C 24.992188 8.953125 25.035156 8.988281 25.042969 9 C 25.050781 9.015625 25.074219 9.03125 25.152344 9.027344 C 25.195312 9.023438 25.261719 9.078125 25.292969 9.058594 C 25.367188 9.023438 25.316406 8.953125 25.308594 8.921875 C 25.300781 8.863281 25.378906 8.890625 25.429688 8.835938 C 25.503906 8.753906 25.574219 8.796875 25.636719 8.832031 C 25.6875 8.859375 25.820312 8.84375 25.910156 8.777344 C 25.933594 8.757812 25.972656 8.726562 26 8.707031 C 26.015625 8.691406 26.027344 8.632812 25.988281 8.617188 C 25.957031 8.605469 25.886719 8.644531 25.835938 8.679688 C 25.703125 8.769531 25.59375 8.605469 25.671875 8.546875 C 25.753906 8.484375 25.6875 8.449219 25.675781 8.402344 C 25.652344 8.289062 25.824219 8.238281 26.050781 8.242188 Z M 24.359375 8.03125 C 24.40625 8.027344 24.453125 8.078125 24.460938 8.125 C 24.46875 8.175781 24.496094 8.191406 24.527344 8.183594 C 24.558594 8.179688 24.617188 8.152344 24.617188 8.113281 C 24.617188 8.03125 24.660156 8.023438 24.726562 8.113281 C 24.757812 8.15625 24.777344 8.1875 24.816406 8.195312 C 24.871094 8.210938 24.894531 8.199219 24.992188 8.210938 C 25.050781 8.21875 25.109375 8.199219 25.140625 8.183594 C 25.195312 8.160156 25.234375 8.179688 25.308594 8.21875 C 25.355469 8.238281 25.378906 8.273438 25.414062 8.273438 C 25.476562 8.273438 25.519531 8.335938 25.488281 8.410156 C 25.46875 8.460938 25.265625 8.484375 25.164062 8.480469 C 25.132812 8.480469 25.035156 8.476562 24.941406 8.453125 C 24.851562 8.433594 24.726562 8.414062 24.667969 8.410156 C 24.5625 8.40625 24.519531 8.382812 24.460938 8.34375 C 24.40625 8.304688 24.351562 8.265625 24.347656 8.164062 C 24.347656 8.136719 24.28125 8.128906 24.277344 8.078125 C 24.269531 8.03125 24.335938 8.03125 24.359375 8.03125 Z M 24.132812 7.761719 C 24.171875 7.757812 24.203125 7.792969 24.265625 7.816406 C 24.34375 7.847656 24.355469 7.886719 24.355469 7.910156 C 24.355469 7.933594 24.320312 7.945312 24.238281 7.945312 C 24.207031 7.945312 24.171875 7.925781 24.132812 7.886719 C 24.078125 7.828125 24.074219 7.800781 24.097656 7.78125 C 24.109375 7.769531 24.121094 7.761719 24.132812 7.761719 Z M 25.210938 7.675781 C 25.246094 7.671875 25.289062 7.707031 25.386719 7.753906 C 25.511719 7.8125 25.585938 7.890625 25.570312 7.992188 C 25.558594 8.070312 25.65625 8.082031 25.582031 8.117188 C 25.5625 8.128906 25.503906 8.121094 25.503906 8.121094 L 25.441406 8.0625 C 25.390625 8.039062 25.332031 8.027344 25.265625 8.027344 C 25.230469 8.027344 25.148438 7.984375 25.078125 7.933594 C 24.949219 7.839844 24.917969 7.796875 25 7.761719 C 25.035156 7.75 25.15625 7.78125 25.128906 7.738281 L 25.167969 7.707031 C 25.183594 7.6875 25.195312 7.675781 25.210938 7.675781 Z M 24.808594 7.613281 C 24.8125 7.613281 24.820312 7.613281 24.824219 7.617188 C 24.871094 7.621094 24.898438 7.644531 24.894531 7.683594 C 24.890625 7.722656 24.886719 7.746094 24.84375 7.738281 C 24.78125 7.722656 24.792969 7.710938 24.78125 7.675781 C 24.765625 7.640625 24.773438 7.617188 24.808594 7.613281 Z M 25.089844 7.550781 C 25.121094 7.546875 25.128906 7.554688 25.113281 7.605469 C 25.097656 7.671875 25.121094 7.652344 25.085938 7.664062 C 25.0625 7.671875 25.027344 7.691406 25.011719 7.667969 C 24.992188 7.644531 24.976562 7.550781 25.058594 7.550781 C 25.070312 7.550781 25.082031 7.550781 25.089844 7.550781 Z M 23.773438 7.304688 C 23.796875 7.300781 23.820312 7.308594 23.839844 7.324219 C 23.890625 7.394531 23.851562 7.46875 23.753906 7.453125 C 23.71875 7.445312 23.660156 7.414062 23.664062 7.386719 C 23.695312 7.335938 23.734375 7.308594 23.773438 7.304688 Z M 23.757812 6.160156 C 23.90625 6.160156 23.882812 6.15625 23.984375 6.3125 C 24.03125 6.386719 24.191406 6.558594 24.332031 6.6875 C 24.472656 6.816406 24.648438 6.976562 24.652344 7.039062 C 24.65625 7.097656 24.757812 7.1875 24.839844 7.257812 C 24.984375 7.378906 24.976562 7.449219 24.980469 7.46875 C 24.980469 7.484375 24.925781 7.507812 24.839844 7.5 C 24.773438 7.496094 24.71875 7.46875 24.652344 7.441406 C 24.582031 7.410156 24.460938 7.363281 24.378906 7.328125 C 24.292969 7.292969 24.183594 7.246094 24.132812 7.222656 C 24.015625 7.164062 23.878906 7.160156 23.757812 7.230469 L 23.691406 7.273438 C 23.613281 7.320312 23.433594 7.378906 23.414062 7.445312 C 23.390625 7.539062 23.246094 7.550781 23.117188 7.59375 C 22.84375 7.6875 22.777344 7.71875 22.777344 7.78125 C 22.777344 7.851562 22.738281 7.90625 22.664062 7.910156 C 22.628906 7.910156 22.601562 7.929688 22.558594 7.941406 L 22.425781 7.976562 C 22.394531 7.984375 22.378906 7.964844 22.351562 7.960938 C 22.304688 7.953125 22.261719 7.921875 22.222656 7.898438 C 22.125 7.839844 22.378906 7.730469 22.257812 7.671875 C 22.1875 7.640625 22.101562 7.839844 22.023438 7.839844 C 21.949219 7.835938 21.929688 7.871094 21.910156 7.910156 C 21.886719 7.953125 22 7.988281 22.015625 8.015625 C 22.050781 8.082031 22.089844 8.117188 22.175781 8.09375 C 22.1875 8.09375 22.222656 8.109375 22.253906 8.070312 C 22.269531 8.050781 22.296875 8.078125 22.316406 8.066406 C 22.335938 8.054688 22.355469 8.046875 22.378906 8.050781 L 22.523438 8.066406 C 22.574219 8.074219 22.574219 8.09375 22.574219 8.183594 C 22.574219 8.261719 22.5625 8.300781 22.515625 8.320312 C 22.464844 8.339844 22.382812 8.367188 22.3125 8.308594 C 22.28125 8.28125 22.238281 8.242188 22.152344 8.382812 C 22.007812 8.625 21.890625 8.5 21.78125 8.59375 C 21.726562 8.640625 21.621094 8.601562 21.675781 8.59375 C 21.644531 8.574219 21.585938 8.617188 21.546875 8.65625 C 21.457031 8.746094 21.09375 8.894531 21.035156 8.894531 C 21.003906 8.894531 20.820312 8.96875 20.648438 9.050781 C 20.371094 9.1875 20.328125 9.210938 20.3125 9.296875 C 20.300781 9.355469 20.28125 9.429688 20.234375 9.425781 C 20.160156 9.421875 20.164062 9.476562 20.164062 9.5 C 20.164062 9.546875 20.136719 9.507812 20.003906 9.519531 L 19.957031 9.519531 C 19.898438 9.507812 19.914062 9.496094 19.90625 9.457031 C 19.894531 9.375 19.96875 9.257812 20.058594 9.261719 C 20.152344 9.265625 20.191406 9.214844 20.113281 9.144531 C 20.035156 9.078125 20.144531 9.007812 20.199219 8.949219 C 20.25 8.898438 20.386719 8.777344 20.5 8.695312 C 20.613281 8.613281 20.703125 8.570312 20.75 8.554688 C 20.789062 8.542969 20.878906 8.484375 20.953125 8.421875 C 21.03125 8.359375 21.128906 8.296875 21.175781 8.285156 C 21.21875 8.273438 21.449219 8.074219 21.535156 7.984375 C 21.796875 7.710938 21.875 7.585938 22.25 7.472656 C 22.386719 7.433594 22.878906 7.070312 22.816406 7.046875 C 22.84375 7.015625 22.878906 6.988281 22.90625 6.957031 C 22.921875 6.90625 22.941406 6.871094 22.984375 6.796875 C 23.03125 6.726562 23.144531 6.632812 23.226562 6.570312 C 23.308594 6.507812 23.398438 6.433594 23.410156 6.382812 C 23.421875 6.320312 23.460938 6.257812 23.492188 6.246094 C 23.546875 6.226562 23.539062 6.226562 23.554688 6.265625 C 23.570312 6.300781 23.5625 6.320312 23.625 6.320312 C 23.65625 6.320312 23.65625 6.28125 23.667969 6.230469 C 23.675781 6.183594 23.683594 6.160156 23.757812 6.160156 Z M 23.757812 6.160156 " fill-opacity="1" fill-rule="evenodd"/></g></svg>