<svg xmlns="http://www.w3.org/2000/svg" xmlns:xlink="http://www.w3.org/1999/xlink" width="40" zoomAndPan="magnify" viewBox="0 0 30 30.000001" height="40" preserveAspectRatio="xMidYMid meet" version="1.0"><defs><clipPath id="ef0aa227a1"><path d="M 21 5.183594 L 23 5.183594 L 23 7 L 21 7 Z M 21 5.183594 " clip-rule="nonzero"/></clipPath><clipPath id="24f89e2e22"><path d="M 20 7 L 26.613281 7 L 26.613281 19 L 20 19 Z M 20 7 " clip-rule="nonzero"/></clipPath><clipPath id="8aa8980aa5"><path d="M 3.386719 5.183594 L 23 5.183594 L 23 24 L 3.386719 24 Z M 3.386719 5.183594 " clip-rule="nonzero"/></clipPath></defs><path fill="#014d4e" d="M 20.851562 9.25 C 20.761719 9.34375 20.683594 9.445312 20.609375 9.546875 C 20.675781 9.609375 20.789062 9.6875 20.875 9.734375 C 20.945312 9.664062 20.984375 9.425781 20.988281 9.320312 C 21.003906 9.144531 20.933594 9.191406 20.851562 9.25 Z M 20.851562 9.25 " fill-opacity="1" fill-rule="nonzero"/><path fill="#014d4e" d="M 21.066406 7.929688 C 21.082031 7.871094 21.066406 7.777344 21.019531 7.734375 C 20.953125 7.675781 20.90625 7.703125 20.835938 7.6875 C 20.757812 7.746094 20.679688 7.808594 20.605469 7.871094 C 20.609375 7.90625 20.601562 7.953125 20.609375 8 C 20.644531 8.019531 20.683594 8.046875 20.707031 8.070312 C 20.71875 8.246094 21.039062 8.03125 21.066406 7.929688 Z M 21.066406 7.929688 " fill-opacity="1" fill-rule="nonzero"/><path fill="#014d4e" d="M 20.792969 7.023438 C 20.742188 7.097656 20.699219 7.171875 20.660156 7.25 C 20.777344 7.363281 20.816406 7.261719 20.960938 7.191406 C 20.96875 7.066406 20.894531 7.03125 20.792969 7.023438 Z M 20.792969 7.023438 " fill-opacity="1" fill-rule="nonzero"/><path fill="#014d4e" d="M 21.046875 6.355469 C 20.96875 6.425781 20.894531 6.496094 20.828125 6.574219 C 20.835938 6.566406 20.847656 6.5625 20.851562 6.558594 C 20.953125 6.707031 21.003906 6.804688 21.171875 6.640625 C 21.304688 6.5 21.183594 6.375 21.046875 6.355469 Z M 21.046875 6.355469 " fill-opacity="1" fill-rule="nonzero"/><g clip-path="url(#ef0aa227a1)"><path fill="#014d4e" d="M 21.878906 5.871094 C 21.816406 5.878906 21.769531 5.945312 21.707031 5.933594 C 21.640625 5.898438 21.59375 5.875 21.589844 5.871094 C 21.390625 5.734375 21.328125 6.078125 21.363281 6.199219 C 21.460938 6.203125 21.597656 6.21875 21.695312 6.253906 C 21.804688 6.292969 21.902344 6.414062 22.007812 6.414062 C 22.070312 6.414062 22.304688 6.304688 22.324219 6.242188 C 22.355469 6.140625 22.148438 5.984375 22.078125 5.933594 C 22.007812 5.890625 21.960938 5.855469 21.878906 5.871094 Z M 21.878906 5.871094 " fill-opacity="1" fill-rule="nonzero"/></g><g clip-path="url(#24f89e2e22)"><path fill="#014d4e" d="M 26.257812 17.542969 C 26.148438 17.363281 26.183594 17.148438 26.066406 16.988281 C 25.914062 16.78125 25.613281 16.660156 25.402344 16.511719 C 25.320312 16.453125 25.28125 16.4375 25.246094 16.34375 C 25.214844 16.253906 25.226562 16.1875 25.167969 16.097656 C 25.101562 16.011719 25.015625 15.941406 24.976562 15.832031 C 24.921875 15.707031 24.984375 15.710938 25.042969 15.617188 C 25.085938 15.546875 25.09375 15.433594 25.078125 15.355469 C 25.039062 15.179688 24.890625 14.992188 24.828125 14.8125 C 24.777344 14.679688 24.675781 14.496094 24.683594 14.351562 C 24.695312 14.179688 24.890625 14.058594 24.964844 13.90625 C 25.019531 13.792969 25.101562 13.664062 25.136719 13.550781 C 25.191406 13.398438 25.160156 13.175781 25.117188 13.023438 C 25.09375 12.949219 25.046875 12.882812 25.046875 12.800781 C 25.046875 12.730469 25.09375 12.671875 25.085938 12.605469 C 25.078125 12.464844 24.933594 12.398438 24.835938 12.324219 C 24.796875 12.292969 24.742188 12.25 24.683594 12.210938 C 24.742188 12.027344 24.792969 11.851562 24.644531 11.699219 C 24.597656 11.648438 24.523438 11.621094 24.492188 11.550781 C 24.453125 11.457031 24.484375 11.238281 24.476562 11.140625 C 24.472656 11.035156 24.5 10.90625 24.464844 10.804688 C 24.433594 10.722656 24.398438 10.707031 24.332031 10.644531 C 24.027344 10.382812 24.203125 10.042969 24.085938 9.6875 C 24.039062 9.546875 23.949219 9.542969 23.859375 9.445312 C 23.789062 9.363281 23.769531 9.246094 23.710938 9.164062 C 23.613281 9.027344 23.480469 8.921875 23.382812 8.789062 C 23.3125 8.6875 23.3125 8.636719 23.195312 8.578125 C 23.105469 8.535156 22.953125 8.539062 22.90625 8.449219 C 22.886719 8.421875 22.890625 8.332031 22.871094 8.289062 C 22.847656 8.246094 22.832031 8.203125 22.789062 8.175781 C 22.695312 8.105469 22.570312 8.132812 22.46875 8.066406 C 22.371094 8.007812 22.285156 7.949219 22.179688 7.898438 C 22.066406 7.847656 21.980469 7.777344 21.875 7.859375 C 21.769531 7.941406 21.816406 8.011719 21.6875 8.0625 C 21.578125 8.105469 21.460938 8.070312 21.539062 8.222656 C 21.589844 8.3125 21.652344 8.324219 21.734375 8.332031 C 21.90625 8.347656 22.074219 8.292969 22.21875 8.429688 C 22.222656 8.425781 22.226562 8.421875 22.222656 8.410156 C 22.28125 8.46875 22.335938 8.53125 22.382812 8.59375 C 22.304688 8.683594 22.222656 8.765625 22.144531 8.855469 C 22.113281 8.847656 22.027344 8.894531 22.007812 8.953125 C 22.242188 9.164062 21.917969 9.238281 21.722656 9.179688 C 21.601562 9.144531 21.5 9.050781 21.382812 9.128906 C 21.292969 9.1875 21.195312 9.371094 21.15625 9.464844 C 21.0625 9.6875 21.371094 9.984375 21.003906 9.992188 C 20.886719 10 20.769531 9.945312 20.660156 10.007812 C 20.628906 10.023438 20.570312 10.085938 20.546875 10.121094 C 20.484375 10.21875 20.53125 10.191406 20.523438 10.296875 C 20.507812 10.417969 20.382812 10.503906 20.304688 10.597656 C 20.183594 10.742188 20.1875 10.78125 20.269531 10.957031 C 20.324219 10.914062 20.390625 10.902344 20.457031 10.917969 C 20.457031 11.03125 20.453125 11.144531 20.441406 11.253906 C 20.382812 11.332031 20.34375 11.539062 20.457031 11.609375 C 20.542969 11.664062 20.625 11.601562 20.675781 11.714844 C 20.707031 11.789062 20.667969 11.890625 20.664062 11.976562 C 20.65625 12.171875 20.609375 12.34375 20.621094 12.535156 C 20.636719 12.789062 20.699219 12.902344 20.847656 13.105469 C 20.984375 13.292969 20.984375 13.503906 21.0625 13.703125 C 21.117188 13.835938 21.171875 13.957031 21.234375 14.082031 C 21.285156 14.179688 21.253906 14.265625 21.277344 14.359375 C 21.332031 14.589844 21.628906 14.496094 21.503906 14.796875 C 21.464844 14.890625 21.429688 14.96875 21.425781 15.066406 C 21.421875 15.195312 21.511719 15.332031 21.558594 15.460938 C 21.621094 15.632812 21.742188 15.777344 21.808594 15.949219 C 21.875 16.113281 21.875 16.148438 21.78125 16.273438 C 21.542969 16.59375 21.828125 16.894531 21.902344 17.234375 C 22.070312 17.230469 22.199219 17.332031 22.363281 17.300781 C 22.488281 17.28125 22.550781 17.175781 22.640625 17.105469 C 22.757812 17.164062 22.875 17.222656 22.988281 17.289062 C 23.136719 17.402344 23.277344 17.480469 23.480469 17.507812 C 23.628906 17.535156 23.59375 17.453125 23.710938 17.402344 C 23.785156 17.371094 23.914062 17.414062 23.976562 17.484375 C 24.027344 17.449219 24.089844 17.316406 24.164062 17.328125 C 24.253906 17.335938 24.246094 17.507812 24.273438 17.574219 C 24.332031 17.730469 24.53125 17.871094 24.679688 17.808594 C 24.75 17.777344 24.792969 17.679688 24.875 17.679688 C 24.976562 17.679688 25.019531 17.792969 25.074219 17.882812 C 25.1875 18.070312 25.347656 18.144531 25.566406 18.207031 C 25.78125 18.269531 25.980469 18.210938 26.125 18.441406 C 26.242188 18.394531 26.519531 18.175781 26.558594 18.039062 C 26.613281 17.867188 26.347656 17.691406 26.257812 17.542969 Z M 26.257812 17.542969 " fill-opacity="1" fill-rule="nonzero"/></g><g clip-path="url(#8aa8980aa5)"><path fill="#014d4e" d="M 20.113281 8.25 C 20.210938 8.179688 20.304688 8.125 20.3125 8.023438 C 20.316406 7.929688 20.269531 7.855469 20.199219 7.8125 C 20 8.058594 19.65625 8.195312 19.382812 8.316406 C 19.253906 8.371094 19.15625 8.554688 19.011719 8.5625 C 18.855469 8.574219 18.777344 8.464844 18.625 8.554688 C 18.496094 8.621094 18.328125 8.78125 18.242188 8.917969 C 18.15625 8.902344 18.070312 8.886719 17.984375 8.867188 C 17.984375 8.867188 17.992188 8.875 17.992188 8.875 C 17.902344 8.875 17.832031 8.894531 17.757812 8.839844 C 17.757812 8.839844 17.753906 8.839844 17.753906 8.84375 C 17.753906 8.839844 17.75 8.839844 17.746094 8.835938 C 17.847656 8.75 17.964844 8.675781 18.074219 8.59375 C 18.195312 8.5 18.277344 8.46875 18.414062 8.417969 C 18.574219 8.355469 18.511719 8.246094 18.601562 8.125 C 18.640625 8.078125 18.703125 8.03125 18.753906 8.03125 C 18.855469 8.027344 18.859375 8.101562 18.925781 8.140625 C 19.042969 8.214844 19.183594 8.144531 19.289062 8.0625 C 19.410156 7.960938 19.539062 7.855469 19.667969 7.753906 C 19.789062 7.648438 19.9375 7.59375 20.078125 7.507812 C 20.25 7.398438 20.203125 7.265625 20.277344 7.09375 C 20.34375 6.933594 20.476562 6.792969 20.550781 6.632812 C 20.601562 6.527344 20.589844 6.40625 20.5625 6.296875 C 20.566406 6.292969 20.574219 6.28125 20.582031 6.277344 C 20.636719 6.234375 20.703125 6.179688 20.769531 6.144531 C 20.945312 6.042969 20.984375 6.066406 20.980469 5.859375 C 21.136719 5.855469 21.21875 5.761719 21.351562 5.695312 C 21.480469 5.628906 21.617188 5.613281 21.75 5.59375 C 21.878906 5.574219 22.011719 5.601562 22.058594 5.457031 C 22.105469 5.335938 22.058594 5.183594 21.914062 5.195312 C 21.785156 5.210938 21.640625 5.316406 21.511719 5.335938 C 21.371094 5.359375 21.273438 5.324219 21.140625 5.316406 C 21.011719 5.308594 20.898438 5.328125 20.792969 5.382812 C 20.703125 5.429688 20.574219 5.53125 20.46875 5.511719 C 20.410156 5.5 20.375 5.457031 20.316406 5.441406 C 20.265625 5.433594 20.164062 5.421875 20.117188 5.429688 C 20.003906 5.441406 19.878906 5.535156 19.789062 5.605469 C 19.789062 5.601562 19.792969 5.59375 19.792969 5.589844 C 19.730469 5.652344 19.667969 5.71875 19.601562 5.78125 C 19.574219 5.773438 19.542969 5.761719 19.515625 5.761719 C 19.425781 5.765625 19.316406 5.824219 19.222656 5.847656 C 19.117188 5.867188 19.042969 5.847656 18.933594 5.839844 C 18.675781 5.824219 18.535156 5.929688 18.378906 6.128906 C 18.25 6.292969 18.097656 6.363281 17.9375 6.476562 C 17.695312 6.640625 17.351562 6.523438 17.125 6.761719 C 17.039062 6.851562 16.988281 7 16.835938 7.011719 C 16.691406 7.019531 16.640625 6.941406 16.5 7.023438 C 16.378906 7.097656 16.296875 7.167969 16.164062 7.226562 C 16.039062 7.28125 15.910156 7.34375 15.847656 7.460938 C 15.71875 7.695312 15.714844 7.945312 15.425781 8.03125 C 15.21875 8.097656 14.996094 8.15625 14.84375 8.316406 C 14.746094 8.425781 14.738281 8.449219 14.59375 8.488281 C 14.480469 8.519531 14.375 8.570312 14.265625 8.617188 C 14.058594 8.714844 13.949219 8.792969 13.824219 8.976562 C 13.738281 9.09375 13.644531 9.269531 13.585938 9.363281 C 13.5625 9.429688 13.539062 9.492188 13.519531 9.554688 C 13.480469 9.566406 13.441406 9.582031 13.398438 9.601562 C 13.273438 9.664062 13.121094 9.789062 13.085938 9.929688 C 13.070312 10.007812 13.109375 10.0625 13.046875 10.117188 C 13.007812 10.152344 12.898438 10.160156 12.84375 10.175781 C 12.664062 10.230469 12.496094 10.316406 12.34375 10.429688 C 12.195312 10.539062 12.027344 10.636719 11.894531 10.761719 C 11.777344 10.863281 11.699219 11.007812 11.566406 11.105469 C 11.300781 11.300781 10.996094 11.390625 10.695312 11.511719 C 10.558594 11.570312 10.445312 11.605469 10.332031 11.699219 C 10.226562 11.789062 10.160156 11.871094 10.035156 11.925781 C 9.777344 12.039062 9.535156 12.128906 9.273438 12.21875 C 9.070312 12.289062 8.90625 12.441406 8.707031 12.503906 C 8.59375 12.539062 8.503906 12.554688 8.402344 12.609375 C 8.3125 12.652344 8.257812 12.726562 8.175781 12.777344 C 8.003906 12.878906 7.742188 12.84375 7.554688 12.890625 C 7.457031 12.910156 7.125 12.941406 7.074219 13.011719 C 7.058594 13.015625 6.90625 13.0625 6.789062 13.09375 C 6.710938 13.085938 6.632812 13.074219 6.554688 13.066406 C 6.386719 13.09375 6.121094 13.148438 5.933594 13.148438 C 5.71875 13.148438 5.527344 13.234375 5.300781 13.277344 C 5.03125 13.332031 4.769531 13.335938 4.503906 13.410156 C 4.292969 13.46875 4.070312 13.320312 3.859375 13.292969 C 3.722656 13.273438 3.601562 13.246094 3.496094 13.375 C 3.386719 13.507812 3.59375 13.546875 3.714844 13.621094 C 3.820312 13.691406 3.992188 13.824219 4.121094 13.832031 C 4.191406 13.835938 4.269531 13.765625 4.335938 13.75 C 4.402344 13.734375 4.476562 13.742188 4.542969 13.742188 C 4.613281 13.742188 4.707031 13.730469 4.769531 13.75 C 4.828125 13.769531 4.878906 13.835938 4.941406 13.863281 C 5.078125 13.910156 5.21875 13.832031 5.355469 13.894531 C 5.523438 13.96875 5.542969 14.113281 5.613281 14.261719 C 5.679688 14.386719 5.851562 14.539062 5.972656 14.617188 C 6.152344 14.738281 6.40625 14.613281 6.539062 14.804688 C 6.703125 15.03125 6.75 15.316406 6.964844 15.5 C 7.171875 15.671875 7.316406 15.871094 7.421875 16.121094 C 7.511719 16.335938 7.527344 16.546875 7.683594 16.71875 C 7.695312 16.753906 7.703125 16.792969 7.714844 16.824219 C 7.714844 16.824219 7.714844 16.832031 7.714844 16.832031 C 7.714844 16.832031 7.714844 16.835938 7.714844 16.835938 C 7.714844 16.835938 7.707031 16.835938 7.707031 16.832031 C 7.707031 16.832031 7.707031 16.832031 7.703125 16.832031 C 7.753906 17.03125 7.605469 17.234375 7.679688 17.441406 C 7.6875 17.46875 7.734375 17.578125 7.742188 17.585938 C 7.808594 17.65625 7.878906 17.605469 7.945312 17.652344 C 8.0625 17.726562 7.988281 17.90625 7.96875 18.015625 C 7.949219 18.152344 7.972656 18.265625 7.984375 18.398438 C 7.992188 18.5625 7.925781 18.683594 7.878906 18.839844 C 7.828125 19.019531 7.894531 19.082031 8.046875 19.179688 C 8.171875 19.257812 8.316406 19.351562 8.46875 19.316406 C 8.664062 19.273438 8.691406 19.058594 8.847656 18.953125 C 8.933594 18.898438 8.988281 18.894531 9.066406 18.957031 C 9.164062 19.03125 9.113281 19.039062 9.242188 19.070312 C 9.335938 19.097656 9.390625 19.105469 9.457031 19.175781 C 9.503906 19.21875 9.527344 19.335938 9.566406 19.355469 C 9.625 19.394531 9.78125 19.332031 9.828125 19.277344 C 9.894531 19.191406 9.816406 19.105469 9.832031 19.011719 C 9.847656 18.890625 9.960938 18.816406 10.066406 18.785156 C 10.191406 18.746094 10.191406 18.757812 10.214844 18.875 C 10.273438 19.171875 10.371094 19.433594 10.390625 19.746094 C 10.402344 19.894531 10.347656 19.996094 10.441406 20.117188 C 10.523438 20.226562 10.644531 20.335938 10.75 20.421875 C 10.972656 20.609375 10.835938 20.90625 10.953125 21.160156 C 10.988281 21.230469 11.148438 21.425781 11.234375 21.4375 C 11.339844 21.445312 11.4375 21.3125 11.566406 21.371094 C 11.695312 21.429688 11.710938 21.578125 11.742188 21.703125 C 11.808594 21.925781 11.964844 22 12.128906 22.171875 C 12.171875 22.222656 12.226562 22.246094 12.25 22.316406 C 12.269531 22.371094 12.230469 22.472656 12.285156 22.515625 C 12.386719 22.597656 12.417969 22.4375 12.496094 22.628906 C 12.539062 22.738281 12.566406 22.886719 12.671875 22.945312 C 12.730469 22.980469 12.820312 22.964844 12.882812 22.984375 C 12.972656 23.011719 13.035156 23.066406 13.109375 23.117188 C 13.164062 23.152344 13.222656 23.195312 13.277344 23.234375 C 13.253906 23.308594 13.226562 23.382812 13.214844 23.425781 C 13.164062 23.53125 13.074219 23.621094 13.144531 23.726562 C 13.226562 23.847656 13.410156 23.808594 13.523438 23.769531 C 13.671875 23.714844 13.753906 23.589844 13.898438 23.539062 C 14.054688 23.492188 14.15625 23.367188 14.320312 23.316406 C 14.464844 23.273438 14.640625 23.3125 14.78125 23.273438 C 14.949219 23.230469 14.929688 23.023438 15.015625 22.871094 C 15.0625 22.796875 15.117188 22.738281 15.164062 22.679688 C 15.234375 22.589844 15.238281 22.515625 15.28125 22.417969 C 15.359375 22.230469 15.554688 22.148438 15.730469 22.097656 C 15.808594 22.074219 15.882812 22.066406 15.929688 21.996094 C 15.992188 21.90625 15.929688 21.847656 15.964844 21.765625 C 16.03125 21.597656 16.304688 21.496094 16.414062 21.347656 C 16.554688 21.152344 16.402344 21.011719 16.378906 20.820312 C 16.34375 20.589844 16.71875 20.328125 16.871094 20.191406 C 17.0625 20.019531 17.214844 19.761719 17.316406 19.535156 C 17.371094 19.414062 17.386719 19.144531 17.230469 19.089844 C 17.046875 19.03125 16.753906 19.464844 16.691406 19.125 C 16.667969 18.988281 16.742188 18.914062 16.859375 18.847656 C 17.023438 18.746094 17.191406 18.679688 17.300781 18.519531 C 17.410156 18.375 17.429688 18.210938 17.460938 18.035156 C 17.480469 17.929688 17.464844 17.710938 17.523438 17.625 C 17.566406 17.5625 17.695312 17.546875 17.75 17.46875 C 17.808594 17.386719 17.84375 17.269531 17.878906 17.167969 C 17.925781 17.046875 17.996094 16.84375 17.996094 16.710938 C 17.996094 16.609375 17.898438 16.453125 17.832031 16.375 C 17.707031 16.214844 17.578125 16.308594 17.414062 16.308594 C 17.242188 16.304688 17.21875 16.164062 17.125 16.058594 C 17.082031 16.015625 17.039062 15.996094 16.988281 15.980469 C 16.914062 15.824219 16.832031 15.671875 16.796875 15.5 C 16.746094 15.269531 16.757812 15.105469 16.824219 14.890625 C 16.910156 14.632812 16.875 14.511719 16.757812 14.28125 C 16.667969 14.097656 16.707031 13.917969 16.703125 13.722656 C 16.699219 13.550781 16.753906 13.351562 16.648438 13.222656 C 16.527344 13.0625 16.429688 12.972656 16.398438 12.765625 C 16.34375 12.402344 16.46875 12.09375 16.277344 11.753906 C 16.1875 11.597656 16.089844 11.527344 16.078125 11.339844 C 16.070312 11.199219 16.113281 11.015625 16.125 10.90625 C 16.125 10.90625 16.125 10.902344 16.125 10.902344 C 16.230469 10.855469 16.417969 10.765625 16.429688 10.761719 C 16.601562 10.695312 16.699219 10.59375 16.832031 10.484375 C 16.894531 10.4375 16.96875 10.421875 17.039062 10.382812 C 17.117188 10.332031 17.160156 10.265625 17.222656 10.191406 C 17.351562 10.046875 17.441406 9.914062 17.59375 9.792969 C 17.738281 9.675781 17.925781 9.609375 18.113281 9.566406 C 18.308594 9.523438 18.511719 9.457031 18.707031 9.421875 C 18.910156 9.382812 19.117188 9.421875 19.3125 9.449219 C 19.535156 9.484375 19.601562 9.351562 19.726562 9.1875 C 19.785156 9.109375 19.839844 9.078125 19.820312 8.972656 C 19.800781 8.867188 19.699219 8.804688 19.707031 8.691406 C 19.730469 8.496094 19.957031 8.363281 20.113281 8.25 Z M 20.113281 8.25 " fill-opacity="1" fill-rule="nonzero"/></g></svg>