<svg xmlns="http://www.w3.org/2000/svg" xmlns:xlink="http://www.w3.org/1999/xlink" width="40" zoomAndPan="magnify" viewBox="0 0 30 30.000001" height="40" preserveAspectRatio="xMidYMid meet" version="1.0"><defs><clipPath id="5bb74af75d"><path d="M 4.636719 2.902344 L 25.683594 2.902344 L 25.683594 26.128906 L 4.636719 26.128906 Z M 4.636719 2.902344 " clip-rule="nonzero"/></clipPath></defs><g clip-path="url(#5bb74af75d)"><path fill="#014d4e" d="M 25.355469 17.5 L 24.28125 20.347656 L 23.207031 19.640625 L 21.25 19.238281 L 20.511719 19.554688 C 20.511719 19.554688 20.09375 19.554688 20.039062 19.554688 C 19.988281 19.554688 19.042969 19.660156 19.042969 19.660156 L 18.394531 19.660156 L 17.976562 20.917969 L 17.660156 21.355469 L 17.398438 22.617188 L 16.960938 24.398438 L 16.699219 24.207031 L 15.019531 24.121094 L 14.265625 25.273438 L 13.742188 24.3125 L 11.992188 24.261719 L 11.328125 23.824219 L 10.886719 24.523438 L 10.449219 24.628906 L 9.742188 25.621094 L 9.148438 26.113281 L 8.535156 25.871094 L 8.359375 24.703125 L 7.859375 23.578125 L 7.859375 22.738281 L 7.25 22.449219 L 7.398438 21.996094 L 7.054688 21.707031 L 6.933594 21.023438 L 7.25 20.726562 L 7.074219 20.3125 L 7.335938 20.007812 L 6.382812 19.070312 L 6.375 18.582031 L 6.136719 17.644531 L 5.753906 17.347656 L 5.671875 17.191406 L 5.472656 16.613281 C 5.472656 16.613281 5.125 16.125 5.089844 16.101562 C 5.054688 16.078125 6.5 14.734375 6.5 14.734375 L 6.316406 14.582031 L 6.582031 13.90625 L 6.011719 13.605469 L 5.472656 13.230469 L 5.8125 12.726562 L 5.394531 12.226562 L 6.269531 10.863281 L 5.917969 10.324219 L 5.882812 8.621094 L 6.5 7.957031 L 4.636719 5.324219 L 5.523438 5.367188 L 6.304688 5.691406 L 7.363281 5.050781 L 7.527344 4.667969 L 7.84375 4.761719 L 9.359375 3.722656 L 9.652344 3.382812 L 10.351562 3.3125 L 10.691406 3.035156 L 11.589844 3.195312 L 11.867188 2.917969 C 11.867188 2.917969 11.867188 3.300781 11.949219 3.359375 C 12.03125 3.417969 12.253906 3.664062 12.242188 3.722656 C 12.230469 3.78125 11.808594 4.246094 11.808594 4.246094 L 12.03125 5.097656 L 11.773438 5.519531 C 11.773438 5.519531 13.59375 7.535156 13.675781 7.558594 C 13.757812 7.582031 14.433594 7.746094 14.433594 7.746094 L 14.84375 7.597656 L 15.519531 8.003906 C 15.519531 8.003906 18.121094 9.097656 18.085938 9.160156 C 18.050781 9.21875 19.242188 9.25 19.242188 9.25 L 20.617188 10.230469 L 20.40625 10.558594 L 20.722656 11.457031 L 20.640625 12.085938 L 20.375 12.320312 L 20.722656 12.625 L 21.074219 14.117188 L 23.898438 14.339844 L 23.703125 14.839844 L 23.757812 15.75 L 24.785156 16.332031 L 25.355469 17.5 " fill-opacity="1" fill-rule="nonzero"/></g></svg>