<svg xmlns="http://www.w3.org/2000/svg" xmlns:xlink="http://www.w3.org/1999/xlink" width="40" zoomAndPan="magnify" viewBox="0 0 30 30.000001" height="40" preserveAspectRatio="xMidYMid meet" version="1.0"><defs><clipPath id="879d85e16f"><path d="M 3.386719 3 L 26.613281 3 L 26.613281 26.214844 L 3.386719 26.214844 Z M 3.386719 3 " clip-rule="nonzero"/></clipPath></defs><g clip-path="url(#879d85e16f)"><path fill="#014d4e" d="M 8.910156 3.59375 C 8.917969 3.582031 9.039062 3.640625 9.109375 3.707031 C 9.183594 3.773438 9.371094 3.832031 9.460938 3.816406 C 9.554688 3.800781 9.578125 3.882812 9.660156 3.859375 C 9.742188 3.839844 9.71875 3.734375 9.773438 3.769531 C 9.828125 3.804688 9.878906 3.851562 9.917969 3.921875 C 9.960938 3.996094 10.097656 4.050781 10.113281 3.945312 C 10.132812 3.839844 10.054688 3.761719 10.148438 3.742188 C 10.242188 3.726562 10.316406 3.707031 10.363281 3.675781 C 10.414062 3.644531 10.417969 3.691406 10.511719 3.6875 C 10.605469 3.6875 10.75 3.546875 10.796875 3.59375 C 10.84375 3.640625 10.820312 3.460938 10.882812 3.480469 C 10.945312 3.496094 10.921875 3.382812 10.996094 3.433594 C 11.070312 3.480469 11.144531 3.507812 11.195312 3.402344 C 11.25 3.296875 11.382812 3.382812 11.390625 3.234375 C 11.402344 3.089844 11.269531 3.058594 11.347656 3.035156 C 11.429688 3.015625 11.429688 3.085938 11.527344 3.035156 C 11.625 2.988281 11.722656 3.050781 11.730469 3.148438 C 11.738281 3.242188 11.699219 3.371094 11.65625 3.445312 C 11.613281 3.519531 11.707031 3.421875 11.804688 3.464844 C 11.902344 3.511719 11.898438 3.527344 11.902344 3.636719 C 11.910156 3.746094 12.078125 3.730469 12.011719 3.84375 C 11.945312 3.957031 11.789062 3.957031 11.820312 4.023438 C 11.847656 4.089844 11.847656 4.1875 11.8125 4.246094 C 11.777344 4.304688 11.738281 4.421875 11.75 4.519531 C 11.765625 4.621094 11.742188 4.722656 11.828125 4.761719 C 11.914062 4.796875 11.964844 4.875 11.925781 4.976562 C 11.890625 5.082031 11.914062 5.089844 11.972656 5.136719 C 12.035156 5.183594 12.09375 5.179688 12.140625 5.265625 C 12.1875 5.351562 12.320312 5.316406 12.394531 5.398438 C 12.464844 5.484375 12.445312 5.4375 12.53125 5.398438 C 12.617188 5.363281 12.65625 5.355469 12.683594 5.277344 C 12.714844 5.199219 12.765625 5.148438 12.816406 5.183594 C 12.867188 5.21875 12.855469 5.195312 12.925781 5.152344 C 12.996094 5.113281 13.019531 5.113281 13.113281 5.113281 C 13.207031 5.109375 13.226562 5.035156 13.273438 4.992188 C 13.324219 4.953125 13.398438 4.917969 13.515625 4.964844 C 13.636719 5.007812 13.570312 5.066406 13.691406 4.996094 C 13.808594 4.925781 13.949219 4.996094 14.011719 5.019531 C 14.078125 5.046875 14.269531 5.109375 14.148438 4.929688 C 14.027344 4.75 14.03125 4.785156 14.078125 4.707031 C 14.125 4.628906 14.09375 4.558594 14.1875 4.617188 C 14.28125 4.675781 14.371094 4.703125 14.445312 4.679688 C 14.523438 4.65625 14.609375 4.574219 14.6875 4.605469 C 14.761719 4.632812 14.898438 4.738281 14.984375 4.785156 C 15.074219 4.828125 15.109375 4.882812 15.234375 4.8125 C 15.363281 4.742188 15.652344 4.714844 15.722656 4.785156 C 15.789062 4.855469 15.839844 4.914062 15.921875 4.816406 C 16.003906 4.71875 16.046875 4.761719 16.140625 4.53125 C 16.234375 4.300781 16.226562 4.378906 16.332031 4.203125 C 16.433594 4.023438 16.4375 4.007812 16.570312 3.8125 C 16.707031 3.621094 16.738281 3.519531 16.734375 3.503906 C 16.734375 3.484375 16.949219 3.566406 16.976562 3.847656 C 17.003906 4.128906 16.984375 4.269531 17.078125 4.433594 C 17.167969 4.597656 17.148438 4.816406 17.21875 4.839844 C 17.292969 4.859375 17.375 4.859375 17.472656 5.007812 C 17.570312 5.160156 17.761719 5.0625 17.726562 5.214844 C 17.691406 5.363281 17.542969 5.601562 17.574219 5.726562 C 17.601562 5.851562 17.527344 5.941406 17.625 5.941406 C 17.722656 5.941406 17.769531 5.886719 17.875 5.988281 C 17.980469 6.089844 18.164062 6.253906 18.300781 6.25 C 18.4375 6.246094 18.652344 6.253906 18.554688 6.371094 C 18.457031 6.488281 18.640625 6.488281 18.765625 6.488281 C 18.886719 6.488281 18.882812 6.367188 19.007812 6.464844 C 19.132812 6.5625 19.167969 6.382812 19.285156 6.464844 C 19.402344 6.546875 19.4375 6.554688 19.542969 6.59375 C 19.648438 6.636719 19.941406 6.699219 20.148438 6.789062 C 20.359375 6.878906 20.296875 6.851562 20.351562 6.957031 C 20.410156 7.0625 20.402344 6.9375 20.503906 6.957031 C 20.605469 6.976562 20.726562 7 20.792969 7.152344 C 20.859375 7.300781 20.820312 7.550781 20.972656 7.558594 C 21.121094 7.566406 21.300781 7.578125 21.371094 7.449219 C 21.441406 7.316406 21.414062 7.425781 21.484375 7.476562 C 21.550781 7.53125 21.769531 7.617188 21.84375 7.640625 C 21.921875 7.664062 21.980469 7.75 22.199219 7.710938 C 22.417969 7.671875 22.464844 7.753906 22.605469 7.796875 C 22.746094 7.839844 23.171875 7.765625 23.289062 7.761719 C 23.40625 7.757812 23.671875 7.8125 23.722656 7.890625 C 23.777344 7.972656 23.910156 8.03125 23.980469 8.070312 C 24.054688 8.109375 24.148438 8.242188 24.257812 8.265625 C 24.371094 8.289062 24.382812 8.3125 24.507812 8.460938 C 24.628906 8.605469 24.757812 8.648438 24.835938 8.714844 C 24.914062 8.777344 24.851562 8.816406 24.953125 8.839844 C 25.058594 8.867188 25.070312 8.878906 25.152344 8.996094 C 25.234375 9.117188 25.328125 8.988281 25.398438 9.054688 C 25.46875 9.121094 25.703125 9.167969 25.832031 9.132812 C 25.960938 9.09375 26.066406 8.949219 26.210938 9.214844 C 26.355469 9.476562 26.429688 9.652344 26.460938 9.816406 C 26.496094 9.976562 26.421875 10.03125 26.503906 10.167969 C 26.585938 10.304688 26.597656 10.265625 26.582031 10.542969 C 26.5625 10.820312 26.363281 11.382812 26.007812 11.78125 C 25.65625 12.175781 25.785156 12.199219 25.582031 12.304688 C 25.382812 12.40625 25.339844 12.40625 25.167969 12.753906 C 24.996094 13.101562 24.589844 13.71875 24.339844 13.796875 C 24.089844 13.878906 24.113281 13.988281 24.113281 14.203125 C 24.113281 14.421875 23.976562 14.648438 24.015625 14.722656 C 24.054688 14.792969 24.285156 15.339844 24.121094 15.664062 C 23.953125 15.988281 23.929688 16.496094 23.980469 16.5625 C 24.027344 16.628906 23.792969 16.628906 23.75 16.792969 C 23.710938 16.960938 23.757812 17.289062 23.691406 17.507812 C 23.621094 17.726562 23.503906 17.613281 23.476562 17.777344 C 23.445312 17.941406 23.257812 18.253906 23.035156 18.402344 C 22.8125 18.554688 22.867188 18.695312 22.902344 18.84375 C 22.9375 18.988281 22.953125 19.089844 22.800781 19.15625 C 22.644531 19.21875 22.386719 19.296875 22.351562 19.46875 C 22.320312 19.640625 22.34375 19.675781 22.207031 19.644531 C 22.070312 19.609375 21.863281 19.660156 21.726562 19.652344 C 21.59375 19.648438 21.769531 19.472656 21.667969 19.476562 C 21.566406 19.480469 21.703125 19.59375 21.632812 19.65625 C 21.566406 19.714844 21.429688 19.601562 21.410156 19.65625 C 21.390625 19.707031 21.117188 19.578125 21.066406 19.671875 C 21.011719 19.769531 20.730469 19.605469 20.777344 19.71875 C 20.820312 19.835938 20.914062 19.914062 20.695312 19.898438 C 20.476562 19.882812 20.574219 19.90625 20.492188 19.953125 C 20.410156 19.996094 20.304688 19.933594 20.308594 20.007812 C 20.3125 20.082031 20.457031 20.203125 20.363281 20.199219 C 20.269531 20.195312 20.214844 20.078125 20.128906 20.097656 C 20.042969 20.117188 19.921875 20.0625 19.917969 20.105469 C 19.914062 20.152344 19.847656 20.257812 19.761719 20.246094 C 19.675781 20.230469 19.625 20.277344 19.597656 20.300781 C 19.574219 20.324219 19.433594 20.363281 19.347656 20.492188 C 19.265625 20.621094 19.160156 20.589844 19.121094 20.640625 C 19.085938 20.6875 18.871094 20.792969 18.867188 20.882812 C 18.863281 20.972656 18.773438 21.003906 18.710938 21.023438 C 18.652344 21.046875 18.703125 21.082031 18.652344 21.152344 C 18.597656 21.21875 18.304688 21.367188 18.421875 21.476562 C 18.539062 21.589844 18.46875 21.558594 18.433594 21.667969 C 18.398438 21.773438 18.359375 21.828125 18.390625 21.878906 C 18.425781 21.933594 18.492188 22.234375 18.433594 22.351562 C 18.378906 22.46875 18.492188 22.589844 18.414062 22.75 C 18.332031 22.90625 18.542969 22.878906 18.183594 23.027344 C 17.820312 23.179688 17.628906 23.660156 17.566406 23.800781 C 17.5 23.945312 16.941406 24.742188 16.582031 24.867188 C 16.21875 24.988281 16.164062 25.367188 16.136719 25.457031 C 16.113281 25.550781 15.894531 25.828125 15.664062 25.972656 C 15.429688 26.121094 15.558594 25.75 15.484375 25.644531 C 15.414062 25.539062 15.722656 25.441406 15.746094 25.378906 C 15.765625 25.316406 15.695312 25.332031 15.609375 25.265625 C 15.523438 25.203125 15.472656 24.996094 15.433594 24.960938 C 15.398438 24.929688 15.285156 24.941406 15.207031 24.886719 C 15.125 24.835938 15.027344 24.75 14.996094 24.675781 C 14.960938 24.601562 14.808594 24.679688 14.75 24.625 C 14.6875 24.574219 14.660156 24.550781 14.582031 24.539062 C 14.507812 24.53125 14.445312 24.398438 14.386719 24.3125 C 14.332031 24.226562 14.304688 24.421875 14.195312 24.417969 C 14.082031 24.414062 14.082031 24.386719 14.0625 24.289062 C 14.039062 24.191406 13.667969 23.863281 13.625 23.859375 C 13.585938 23.859375 13.46875 23.800781 13.40625 23.941406 C 13.347656 24.082031 13.210938 23.921875 13.179688 23.886719 C 13.144531 23.847656 13.230469 23.910156 13.277344 23.824219 C 13.328125 23.738281 13.355469 23.6875 13.449219 23.621094 C 13.542969 23.554688 13.691406 23.386719 13.691406 23.386719 C 13.691406 23.386719 13.734375 23.242188 13.828125 23.203125 C 13.925781 23.167969 13.914062 23.039062 14.007812 23.011719 C 14.097656 22.980469 14.242188 22.84375 14.269531 22.785156 C 14.296875 22.726562 14.320312 22.660156 14.394531 22.644531 C 14.46875 22.625 14.777344 22.53125 14.800781 22.429688 C 14.824219 22.332031 14.953125 22.328125 15.058594 22.265625 C 15.167969 22.207031 15.34375 22.085938 15.394531 22.027344 C 15.445312 21.972656 15.429688 21.929688 15.429688 21.855469 C 15.429688 21.78125 15.523438 21.628906 15.472656 21.542969 C 15.425781 21.457031 15.46875 21.265625 15.382812 21.21875 C 15.296875 21.167969 15.199219 21.152344 15.109375 21.179688 C 15.015625 21.207031 14.871094 21.21875 14.914062 21.109375 C 14.957031 21 15.183594 20.574219 15.09375 20.34375 C 15.003906 20.109375 14.832031 20.179688 14.734375 20.203125 C 14.636719 20.226562 14.398438 20.289062 14.410156 20.085938 C 14.421875 19.882812 14.40625 19.765625 14.316406 19.707031 C 14.226562 19.652344 14.398438 19.457031 14.3125 19.386719 C 14.226562 19.316406 14.203125 19.179688 14.09375 19.238281 C 13.984375 19.292969 13.886719 19.070312 13.828125 19.101562 C 13.773438 19.136719 13.78125 19.257812 13.566406 19.214844 C 13.351562 19.175781 13.214844 19.175781 13.152344 19.144531 C 13.085938 19.109375 12.859375 19.1875 12.914062 19.058594 C 12.972656 18.925781 13.015625 18.335938 12.914062 18.167969 C 12.808594 18.003906 12.882812 17.992188 12.960938 17.875 C 13.042969 17.761719 12.792969 17.828125 12.894531 17.625 C 13 17.425781 13.320312 17.042969 13.179688 16.792969 C 13.042969 16.542969 13.054688 16.335938 12.9375 16.382812 C 12.820312 16.433594 12.566406 16.210938 12.65625 15.90625 C 12.75 15.601562 12.625 15.796875 12.285156 15.753906 C 11.945312 15.710938 11.578125 15.667969 11.578125 15.667969 C 11.578125 15.667969 11.679688 15.46875 11.511719 15.238281 C 11.339844 15.003906 11.503906 15.078125 11.554688 14.945312 C 11.601562 14.808594 11.460938 14.546875 11.472656 14.476562 C 11.488281 14.402344 11.527344 14.242188 11.304688 14.15625 C 11.078125 14.074219 11.097656 14.046875 10.960938 14.078125 C 10.828125 14.109375 10.707031 14.199219 10.570312 14.011719 C 10.4375 13.824219 10.460938 13.851562 10.308594 13.847656 C 10.15625 13.839844 10 13.585938 9.914062 13.601562 C 9.828125 13.621094 9.667969 13.53125 9.640625 13.480469 C 9.609375 13.433594 9.488281 13.492188 9.417969 13.503906 C 9.351562 13.515625 9.152344 13.46875 9.097656 13.347656 C 9.042969 13.226562 8.78125 13.285156 8.773438 13.152344 C 8.765625 13.015625 8.585938 12.863281 8.578125 12.769531 C 8.570312 12.675781 8.636719 12.664062 8.601562 12.46875 C 8.570312 12.273438 8.625 12.167969 8.632812 12.011719 C 8.636719 11.859375 8.5625 11.777344 8.488281 11.863281 C 8.414062 11.949219 8.265625 11.824219 8.164062 11.886719 C 8.0625 11.953125 7.398438 12.113281 7.335938 12.269531 C 7.269531 12.425781 7.121094 12.273438 7.019531 12.414062 C 6.917969 12.558594 6.644531 12.726562 6.585938 12.671875 C 6.53125 12.621094 6.046875 12.542969 5.894531 12.589844 C 5.746094 12.640625 5.480469 12.742188 5.519531 12.300781 C 5.5625 11.863281 5.675781 11.539062 5.4375 11.753906 C 5.195312 11.96875 5.1875 12.007812 4.984375 12.023438 C 4.78125 12.035156 4.570312 12.046875 4.570312 11.964844 C 4.570312 11.882812 4.542969 11.683594 4.363281 11.683594 C 4.183594 11.683594 4 11.671875 3.976562 11.660156 C 3.953125 11.648438 4.179688 11.546875 4.101562 11.382812 C 4.027344 11.222656 3.882812 11.160156 3.890625 11.109375 C 3.898438 11.0625 3.789062 11.082031 3.785156 11.015625 C 3.78125 10.945312 3.761719 10.917969 3.695312 10.828125 C 3.632812 10.738281 3.738281 10.738281 3.695312 10.691406 C 3.65625 10.648438 3.394531 10.472656 3.550781 10.429688 C 3.703125 10.382812 3.5625 10.238281 3.640625 10.179688 C 3.714844 10.125 4.070312 10.015625 4.019531 9.882812 C 3.972656 9.753906 4.027344 9.605469 4.082031 9.492188 C 4.140625 9.378906 4.175781 9.25 4.15625 9.171875 C 4.140625 9.089844 4.25 9.121094 4.40625 9.003906 C 4.566406 8.890625 4.738281 8.730469 4.914062 8.738281 C 5.089844 8.742188 5.328125 8.742188 5.363281 8.652344 C 5.402344 8.5625 5.621094 8.511719 5.71875 8.609375 C 5.816406 8.707031 5.902344 8.882812 5.957031 8.5 C 6.011719 8.117188 6.269531 6.925781 6.234375 6.820312 C 6.195312 6.714844 6.058594 6.625 6.089844 6.550781 C 6.121094 6.480469 6.03125 6.417969 5.9375 6.320312 C 5.84375 6.226562 5.777344 5.832031 5.839844 5.792969 C 5.902344 5.757812 6.066406 5.789062 6.101562 5.730469 C 6.132812 5.675781 6.335938 5.832031 6.347656 5.691406 C 6.359375 5.550781 6.277344 5.449219 6.167969 5.472656 C 6.058594 5.492188 5.9375 5.566406 5.9375 5.449219 C 5.9375 5.332031 5.855469 5.113281 6.03125 5.105469 C 6.203125 5.097656 6.839844 5.132812 6.90625 5.082031 C 6.96875 5.03125 6.902344 4.929688 6.976562 4.980469 C 7.054688 5.035156 7.230469 5.007812 7.296875 4.890625 C 7.363281 4.769531 7.421875 4.796875 7.460938 4.9375 C 7.496094 5.074219 7.613281 5.003906 7.570312 5.347656 C 7.527344 5.691406 7.613281 5.308594 7.691406 5.378906 C 7.769531 5.449219 7.867188 5.679688 8.019531 5.671875 C 8.171875 5.660156 8.308594 5.460938 8.429688 5.546875 C 8.550781 5.636719 8.371094 5.65625 8.464844 5.707031 C 8.558594 5.757812 8.589844 5.664062 8.722656 5.523438 C 8.851562 5.382812 9.132812 5.136719 9.171875 5.214844 C 9.210938 5.296875 9.316406 5.171875 9.347656 5.046875 C 9.375 4.921875 9.46875 4.992188 9.558594 4.921875 C 9.648438 4.847656 9.785156 4.953125 9.78125 4.808594 C 9.777344 4.660156 9.675781 4.6875 9.578125 4.722656 C 9.480469 4.753906 9.269531 4.726562 9.34375 4.613281 C 9.414062 4.496094 9.273438 4.4375 9.25 4.316406 C 9.222656 4.191406 9.394531 4.105469 9.253906 3.992188 C 9.109375 3.882812 8.878906 3.648438 8.910156 3.59375 " fill-opacity="1" fill-rule="nonzero"/></g></svg>