<svg xmlns="http://www.w3.org/2000/svg" xmlns:xlink="http://www.w3.org/1999/xlink" width="40" zoomAndPan="magnify" viewBox="0 0 30 30.000001" height="40" preserveAspectRatio="xMidYMid meet" version="1.0"><defs><clipPath id="29e127a17e"><path d="M 25 21 L 26.613281 21 L 26.613281 23 L 25 23 Z M 25 21 " clip-rule="nonzero"/></clipPath><clipPath id="854e096830"><path d="M 26 22 L 26.613281 22 L 26.613281 23 L 26 23 Z M 26 22 " clip-rule="nonzero"/></clipPath><clipPath id="05f0d7fc24"><path d="M 25 23 L 26.613281 23 L 26.613281 24 L 25 24 Z M 25 23 " clip-rule="nonzero"/></clipPath><clipPath id="3b93cfd5ee"><path d="M 19 23 L 22 23 L 22 24.648438 L 19 24.648438 Z M 19 23 " clip-rule="nonzero"/></clipPath><clipPath id="afa2cf55e2"><path d="M 7 4.324219 L 10 4.324219 L 10 9 L 7 9 Z M 7 4.324219 " clip-rule="nonzero"/></clipPath><clipPath id="f7616b6129"><path d="M 6 4.324219 L 8 4.324219 L 8 5 L 6 5 Z M 6 4.324219 " clip-rule="nonzero"/></clipPath><clipPath id="1473a554d3"><path d="M 3.386719 5 L 7 5 L 7 7 L 3.386719 7 Z M 3.386719 5 " clip-rule="nonzero"/></clipPath><clipPath id="cb0614dcd9"><path d="M 5 4.324219 L 6 4.324219 L 6 5 L 5 5 Z M 5 4.324219 " clip-rule="nonzero"/></clipPath></defs><g clip-path="url(#29e127a17e)"><path fill="#014d4e" d="M 26.554688 21.929688 C 26.507812 21.886719 26.445312 21.847656 26.378906 21.84375 C 26.332031 21.84375 26.285156 21.839844 26.242188 21.8125 C 26.175781 21.785156 26.113281 21.710938 26.039062 21.742188 C 25.988281 21.777344 25.984375 21.847656 25.992188 21.902344 C 25.960938 21.933594 25.925781 21.96875 25.9375 22.015625 C 25.949219 22.050781 25.976562 22.085938 26.011719 22.089844 C 26.050781 22.140625 26.113281 22.152344 26.171875 22.136719 C 26.175781 22.140625 26.175781 22.144531 26.179688 22.152344 C 26.164062 22.1875 26.125 22.207031 26.117188 22.246094 C 26.105469 22.296875 26.136719 22.355469 26.179688 22.378906 C 26.25 22.414062 26.324219 22.375 26.363281 22.320312 C 26.378906 22.308594 26.382812 22.285156 26.398438 22.285156 C 26.507812 22.3125 26.589844 22.238281 26.59375 22.125 C 26.609375 22.066406 26.613281 21.976562 26.554688 21.929688 Z M 26.488281 22.171875 C 26.457031 22.222656 26.390625 22.171875 26.34375 22.203125 C 26.304688 22.226562 26.289062 22.285156 26.246094 22.300781 C 26.171875 22.292969 26.253906 22.238281 26.265625 22.199219 C 26.296875 22.140625 26.253906 22.058594 26.1875 22.046875 C 26.15625 22.039062 26.132812 22.054688 26.101562 22.050781 C 26.097656 22.046875 26.097656 22.046875 26.097656 22.042969 C 26.09375 22.023438 26.078125 22.007812 26.054688 22.003906 C 26.050781 22.003906 26.042969 22 26.035156 22 C 26.035156 22 26.035156 22 26.03125 21.996094 C 26.050781 21.980469 26.074219 21.960938 26.082031 21.9375 C 26.09375 21.902344 26.074219 21.871094 26.082031 21.839844 C 26.148438 21.871094 26.207031 21.921875 26.28125 21.933594 C 26.320312 21.9375 26.359375 21.933594 26.394531 21.945312 C 26.433594 21.957031 26.464844 21.984375 26.496094 22.011719 C 26.519531 22.058594 26.496094 22.121094 26.488281 22.171875 Z M 26.488281 22.171875 " fill-opacity="1" fill-rule="nonzero"/></g><g clip-path="url(#854e096830)"><path fill="#014d4e" d="M 26.398438 22.410156 C 26.359375 22.40625 26.328125 22.425781 26.304688 22.457031 C 26.28125 22.488281 26.285156 22.53125 26.265625 22.566406 C 26.230469 22.617188 26.242188 22.683594 26.296875 22.710938 C 26.425781 22.773438 26.542969 22.601562 26.492188 22.484375 C 26.511719 22.429688 26.4375 22.414062 26.398438 22.410156 Z M 26.347656 22.628906 C 26.34375 22.628906 26.34375 22.628906 26.339844 22.628906 C 26.363281 22.589844 26.367188 22.550781 26.382812 22.515625 C 26.382812 22.507812 26.398438 22.507812 26.398438 22.511719 C 26.421875 22.554688 26.398438 22.621094 26.347656 22.628906 Z M 26.347656 22.628906 " fill-opacity="1" fill-rule="nonzero"/></g><g clip-path="url(#05f0d7fc24)"><path fill="#014d4e" d="M 26.078125 23.136719 C 25.925781 23.046875 25.820312 23.359375 25.992188 23.386719 C 26.082031 23.410156 26.140625 23.3125 26.136719 23.234375 C 26.136719 23.195312 26.117188 23.144531 26.078125 23.136719 Z M 26.023438 23.289062 C 26.015625 23.289062 26.007812 23.289062 26.003906 23.285156 C 26.003906 23.261719 26.007812 23.238281 26.023438 23.21875 C 26.027344 23.21875 26.035156 23.222656 26.039062 23.222656 C 26.050781 23.246094 26.035156 23.269531 26.023438 23.289062 Z M 26.023438 23.289062 " fill-opacity="1" fill-rule="nonzero"/></g><path fill="#014d4e" d="M 25.9375 21.773438 C 25.917969 21.742188 25.894531 21.710938 25.886719 21.667969 C 25.902344 21.636719 25.914062 21.601562 25.902344 21.566406 C 25.875 21.472656 25.761719 21.488281 25.683594 21.457031 C 25.636719 21.441406 25.589844 21.4375 25.542969 21.453125 C 25.511719 21.457031 25.484375 21.476562 25.457031 21.472656 C 25.410156 21.449219 25.363281 21.417969 25.316406 21.417969 C 25.261719 21.429688 25.214844 21.511719 25.21875 21.566406 C 25.210938 21.570312 25.207031 21.585938 25.207031 21.59375 C 25.113281 21.628906 25.039062 21.738281 25.167969 21.789062 C 25.214844 21.816406 25.242188 21.867188 25.300781 21.878906 C 25.355469 21.886719 25.414062 21.859375 25.429688 21.800781 C 25.460938 21.804688 25.472656 21.839844 25.5 21.851562 C 25.515625 21.863281 25.53125 21.871094 25.546875 21.875 C 25.601562 21.882812 25.640625 21.921875 25.695312 21.933594 C 25.730469 21.941406 25.769531 21.9375 25.804688 21.933594 C 25.839844 21.933594 25.875 21.9375 25.90625 21.914062 C 25.964844 21.886719 25.976562 21.824219 25.9375 21.773438 Z M 25.761719 21.847656 C 25.714844 21.847656 25.679688 21.828125 25.644531 21.808594 C 25.617188 21.792969 25.585938 21.792969 25.5625 21.777344 C 25.542969 21.765625 25.535156 21.746094 25.515625 21.734375 C 25.449219 21.6875 25.363281 21.695312 25.339844 21.78125 C 25.324219 21.789062 25.3125 21.777344 25.300781 21.769531 C 25.273438 21.746094 25.246094 21.722656 25.214844 21.707031 C 25.234375 21.6875 25.265625 21.683594 25.285156 21.660156 C 25.300781 21.640625 25.308594 21.617188 25.308594 21.59375 C 25.324219 21.574219 25.316406 21.542969 25.335938 21.523438 C 25.382812 21.535156 25.417969 21.566406 25.464844 21.574219 C 25.503906 21.578125 25.53125 21.5625 25.5625 21.550781 C 25.648438 21.535156 25.726562 21.582031 25.8125 21.589844 C 25.820312 21.609375 25.800781 21.628906 25.796875 21.648438 C 25.78125 21.71875 25.828125 21.78125 25.863281 21.835938 C 25.839844 21.847656 25.789062 21.835938 25.761719 21.847656 Z M 25.761719 21.847656 " fill-opacity="1" fill-rule="nonzero"/><path fill="#014d4e" d="M 25.152344 21.570312 C 25.195312 21.554688 25.1875 21.488281 25.144531 21.480469 C 25.109375 21.464844 25.066406 21.445312 25.050781 21.410156 C 25.039062 21.375 25.074219 21.34375 25.082031 21.3125 C 25.101562 21.242188 25.058594 21.171875 24.996094 21.140625 C 24.960938 21.121094 24.917969 21.113281 24.878906 21.117188 C 24.816406 21.117188 24.746094 21.121094 24.695312 21.167969 C 24.613281 21.226562 24.664062 21.351562 24.699219 21.421875 C 24.621094 21.515625 24.703125 21.613281 24.808594 21.621094 C 24.855469 21.640625 24.90625 21.664062 24.960938 21.671875 C 25.027344 21.667969 25.121094 21.640625 25.152344 21.570312 Z M 24.96875 21.574219 C 24.925781 21.570312 24.886719 21.546875 24.847656 21.53125 C 24.816406 21.515625 24.78125 21.523438 24.761719 21.5 C 24.765625 21.480469 24.785156 21.46875 24.792969 21.449219 C 24.8125 21.378906 24.730469 21.316406 24.75 21.242188 C 24.796875 21.195312 24.980469 21.183594 24.984375 21.273438 C 24.984375 21.3125 24.945312 21.34375 24.945312 21.386719 C 24.945312 21.457031 25 21.511719 25.054688 21.542969 C 25.03125 21.566406 25 21.566406 24.96875 21.574219 Z M 24.96875 21.574219 " fill-opacity="1" fill-rule="nonzero"/><path fill="#014d4e" d="M 24.3125 21.507812 C 24.25 21.492188 24.183594 21.519531 24.128906 21.546875 C 24.089844 21.574219 24.050781 21.613281 24 21.605469 C 23.929688 21.605469 23.792969 21.476562 23.75 21.578125 C 23.660156 21.640625 23.699219 21.84375 23.773438 21.902344 C 23.804688 21.917969 23.839844 21.910156 23.867188 21.894531 C 23.886719 21.886719 23.898438 21.863281 23.917969 21.863281 C 23.953125 21.878906 23.988281 21.902344 24.03125 21.902344 C 24.105469 21.902344 24.148438 21.832031 24.207031 21.800781 C 24.257812 21.773438 24.308594 21.742188 24.34375 21.695312 C 24.363281 21.675781 24.382812 21.648438 24.378906 21.621094 C 24.382812 21.570312 24.355469 21.523438 24.3125 21.507812 Z M 24.105469 21.75 C 24.078125 21.765625 24.058594 21.800781 24.023438 21.800781 C 23.941406 21.765625 23.898438 21.734375 23.820312 21.804688 C 23.800781 21.757812 23.785156 21.703125 23.800781 21.660156 C 23.804688 21.660156 23.808594 21.660156 23.8125 21.660156 C 23.824219 21.660156 23.832031 21.65625 23.839844 21.648438 C 23.921875 21.683594 24.011719 21.730469 24.097656 21.679688 C 24.15625 21.648438 24.207031 21.597656 24.277344 21.597656 C 24.277344 21.601562 24.28125 21.605469 24.28125 21.613281 C 24.238281 21.679688 24.167969 21.703125 24.105469 21.75 Z M 24.105469 21.75 " fill-opacity="1" fill-rule="nonzero"/><path fill="#014d4e" d="M 23.480469 21.976562 C 23.445312 21.898438 23.332031 21.894531 23.269531 21.9375 C 23.207031 22.003906 23.160156 22.097656 23.175781 22.191406 C 23.167969 22.253906 23.199219 22.296875 23.265625 22.296875 C 23.332031 22.3125 23.363281 22.25 23.382812 22.195312 C 23.394531 22.175781 23.414062 22.164062 23.410156 22.140625 C 23.445312 22.085938 23.5 22.039062 23.480469 21.976562 Z M 23.3125 22.125 C 23.292969 22.144531 23.289062 22.171875 23.277344 22.199219 C 23.277344 22.199219 23.273438 22.199219 23.273438 22.199219 C 23.273438 22.171875 23.269531 22.144531 23.273438 22.117188 C 23.292969 22.082031 23.308594 22.03125 23.34375 22.007812 C 23.359375 22.003906 23.371094 22.003906 23.382812 22.007812 C 23.363281 22.050781 23.324219 22.078125 23.3125 22.125 Z M 23.3125 22.125 " fill-opacity="1" fill-rule="nonzero"/><path fill="#014d4e" d="M 21.847656 22.609375 C 21.820312 22.585938 21.78125 22.578125 21.746094 22.566406 C 21.726562 22.546875 21.707031 22.527344 21.6875 22.515625 C 21.652344 22.496094 21.605469 22.496094 21.570312 22.503906 C 21.519531 22.523438 21.503906 22.578125 21.472656 22.621094 C 21.417969 22.679688 21.410156 22.785156 21.476562 22.832031 C 21.503906 22.871094 21.542969 22.875 21.585938 22.886719 C 21.601562 22.890625 21.621094 22.886719 21.632812 22.875 C 21.683594 22.863281 21.742188 22.871094 21.789062 22.847656 C 21.835938 22.816406 21.863281 22.769531 21.890625 22.722656 C 21.898438 22.703125 21.90625 22.683594 21.898438 22.664062 C 21.890625 22.640625 21.867188 22.628906 21.847656 22.609375 Z M 21.738281 22.765625 C 21.6875 22.773438 21.636719 22.777344 21.585938 22.789062 C 21.578125 22.785156 21.566406 22.78125 21.558594 22.777344 C 21.503906 22.738281 21.527344 22.703125 21.5625 22.660156 C 21.578125 22.636719 21.582031 22.609375 21.605469 22.59375 C 21.648438 22.589844 21.664062 22.628906 21.691406 22.648438 C 21.726562 22.671875 21.765625 22.664062 21.796875 22.691406 C 21.78125 22.71875 21.761719 22.746094 21.738281 22.765625 Z M 21.738281 22.765625 " fill-opacity="1" fill-rule="nonzero"/><g clip-path="url(#3b93cfd5ee)"><path fill="#014d4e" d="M 21.527344 23.085938 C 21.484375 23.109375 21.449219 23.148438 21.417969 23.1875 C 21.386719 23.230469 21.382812 23.285156 21.375 23.335938 C 21.367188 23.390625 21.339844 23.433594 21.300781 23.46875 C 21.253906 23.507812 21.203125 23.566406 21.15625 23.613281 C 21.113281 23.660156 21.101562 23.726562 21.0625 23.773438 C 20.976562 23.820312 20.863281 23.78125 20.777344 23.75 C 20.71875 23.714844 20.660156 23.675781 20.597656 23.648438 C 20.546875 23.601562 20.488281 23.5625 20.417969 23.546875 C 20.328125 23.511719 20.203125 23.511719 20.15625 23.613281 C 20.152344 23.613281 20.148438 23.621094 20.144531 23.625 C 20.109375 23.65625 20.058594 23.652344 20.023438 23.6875 C 19.976562 23.730469 19.957031 23.789062 19.90625 23.832031 C 19.832031 23.890625 19.734375 23.894531 19.660156 23.957031 C 19.574219 24.015625 19.59375 24.132812 19.546875 24.214844 C 19.53125 24.257812 19.476562 24.292969 19.472656 24.339844 C 19.460938 24.414062 19.539062 24.464844 19.59375 24.507812 C 19.585938 24.554688 19.539062 24.625 19.597656 24.664062 C 19.707031 24.703125 19.808594 24.625 19.914062 24.601562 C 20.023438 24.613281 20.136719 24.601562 20.246094 24.601562 C 20.347656 24.609375 20.441406 24.574219 20.539062 24.542969 C 20.621094 24.527344 20.703125 24.546875 20.785156 24.539062 C 20.828125 24.535156 20.863281 24.507812 20.902344 24.492188 C 20.964844 24.46875 21.046875 24.480469 21.113281 24.457031 C 21.167969 24.433594 21.222656 24.398438 21.265625 24.355469 C 21.34375 24.273438 21.347656 24.152344 21.410156 24.058594 C 21.460938 23.964844 21.558594 23.898438 21.597656 23.796875 C 21.636719 23.707031 21.652344 23.609375 21.664062 23.511719 C 21.671875 23.445312 21.652344 23.378906 21.679688 23.320312 C 21.707031 23.265625 21.765625 23.210938 21.753906 23.144531 C 21.722656 23.054688 21.597656 23.054688 21.527344 23.085938 Z M 21.570312 23.335938 C 21.558594 23.496094 21.574219 23.671875 21.476562 23.8125 C 21.449219 23.859375 21.394531 23.90625 21.355469 23.949219 C 21.332031 23.992188 21.308594 24.035156 21.285156 24.078125 C 21.238281 24.207031 21.222656 24.300781 21.085938 24.363281 C 21.015625 24.390625 20.933594 24.375 20.863281 24.40625 C 20.824219 24.421875 20.789062 24.449219 20.746094 24.449219 C 20.675781 24.441406 20.601562 24.4375 20.527344 24.449219 C 20.445312 24.46875 20.367188 24.503906 20.285156 24.507812 C 20.160156 24.507812 20.035156 24.519531 19.90625 24.507812 C 19.824219 24.511719 19.753906 24.574219 19.671875 24.578125 C 19.699219 24.527344 19.695312 24.457031 19.640625 24.425781 C 19.613281 24.40625 19.585938 24.382812 19.566406 24.355469 C 19.605469 24.300781 19.644531 24.238281 19.664062 24.171875 C 19.675781 24.132812 19.679688 24.097656 19.695312 24.058594 C 19.777344 23.953125 19.941406 23.96875 20.015625 23.851562 C 20.042969 23.820312 20.058594 23.78125 20.09375 23.75 C 20.125 23.738281 20.152344 23.730469 20.179688 23.710938 C 20.265625 23.652344 20.238281 23.585938 20.371094 23.632812 C 20.441406 23.644531 20.5 23.691406 20.554688 23.734375 C 20.621094 23.761719 20.679688 23.808594 20.742188 23.839844 C 20.871094 23.886719 21.085938 23.945312 21.167969 23.792969 C 21.1875 23.785156 21.203125 23.761719 21.195312 23.742188 C 21.242188 23.613281 21.390625 23.558594 21.449219 23.433594 C 21.476562 23.382812 21.472656 23.320312 21.488281 23.265625 C 21.523438 23.207031 21.582031 23.148438 21.652344 23.171875 C 21.625 23.226562 21.578125 23.273438 21.570312 23.335938 Z M 21.570312 23.335938 " fill-opacity="1" fill-rule="nonzero"/></g><path fill="#014d4e" d="M 22.308594 19.800781 C 22.210938 19.746094 22.105469 19.664062 21.988281 19.6875 C 21.941406 19.683594 21.894531 19.695312 21.851562 19.695312 C 21.816406 19.6875 21.777344 19.675781 21.742188 19.667969 C 21.71875 19.648438 21.695312 19.628906 21.671875 19.609375 C 21.597656 19.566406 21.503906 19.554688 21.429688 19.574219 C 21.410156 19.5625 21.390625 19.550781 21.371094 19.539062 C 21.351562 19.527344 21.335938 19.503906 21.3125 19.496094 C 21.253906 19.46875 21.167969 19.496094 21.15625 19.558594 C 21.148438 19.585938 21.164062 19.621094 21.140625 19.636719 C 21.097656 19.671875 21.039062 19.71875 21.050781 19.78125 C 21.058594 19.804688 21.070312 19.835938 21.09375 19.847656 C 21.144531 19.875 21.195312 19.859375 21.246094 19.863281 C 21.285156 19.859375 21.320312 19.886719 21.335938 19.921875 C 21.351562 19.949219 21.382812 19.96875 21.410156 19.976562 C 21.46875 19.996094 21.519531 19.964844 21.558594 19.929688 C 21.578125 19.917969 21.597656 19.90625 21.613281 19.910156 C 21.660156 19.921875 21.695312 19.964844 21.746094 19.964844 C 21.789062 19.96875 21.828125 19.945312 21.867188 19.929688 C 21.917969 19.9375 21.96875 19.953125 22.019531 19.972656 C 22.042969 19.988281 22.058594 20.023438 22.082031 20.042969 C 22.125 20.070312 22.179688 20.09375 22.230469 20.117188 C 22.34375 20.15625 22.621094 20.023438 22.488281 19.890625 C 22.445312 19.835938 22.371094 19.824219 22.308594 19.800781 Z M 22.285156 20.027344 C 22.238281 20.023438 22.195312 19.988281 22.15625 19.972656 C 22.128906 19.960938 22.117188 19.929688 22.09375 19.910156 C 22.042969 19.875 21.984375 19.859375 21.925781 19.84375 C 21.875 19.824219 21.820312 19.839844 21.773438 19.867188 C 21.734375 19.886719 21.707031 19.839844 21.671875 19.832031 C 21.597656 19.785156 21.519531 19.832031 21.460938 19.878906 C 21.453125 19.878906 21.449219 19.875 21.445312 19.875 C 21.4375 19.875 21.429688 19.875 21.421875 19.875 C 21.386719 19.792969 21.300781 19.757812 21.214844 19.761719 C 21.191406 19.761719 21.167969 19.773438 21.144531 19.761719 C 21.167969 19.726562 21.214844 19.707031 21.234375 19.667969 C 21.246094 19.640625 21.242188 19.613281 21.246094 19.582031 C 21.273438 19.570312 21.289062 19.597656 21.304688 19.613281 C 21.316406 19.621094 21.335938 19.628906 21.351562 19.636719 C 21.375 19.648438 21.394531 19.667969 21.425781 19.667969 C 21.484375 19.65625 21.554688 19.652344 21.613281 19.683594 C 21.65625 19.714844 21.6875 19.761719 21.746094 19.765625 C 21.847656 19.8125 21.953125 19.773438 22.0625 19.78125 C 22.136719 19.800781 22.199219 19.847656 22.265625 19.882812 C 22.316406 19.910156 22.382812 19.910156 22.425781 19.960938 C 22.390625 20.003906 22.335938 20.023438 22.285156 20.027344 Z M 22.285156 20.027344 " fill-opacity="1" fill-rule="nonzero"/><path fill="#014d4e" d="M 20.050781 19.082031 C 20.066406 19.078125 20.078125 19.074219 20.09375 19.082031 C 20.230469 19.117188 20.269531 18.984375 20.179688 18.902344 C 20.089844 18.832031 19.882812 18.828125 19.886719 18.976562 C 19.894531 19.046875 19.980469 19.09375 20.050781 19.082031 Z M 19.980469 18.960938 C 20.015625 18.941406 20.070312 18.949219 20.105469 18.96875 C 20.109375 18.976562 20.109375 18.980469 20.113281 18.984375 C 20.085938 18.972656 20.054688 18.980469 20.027344 18.984375 C 20.011719 18.984375 19.992188 18.976562 19.980469 18.960938 Z M 19.980469 18.960938 " fill-opacity="1" fill-rule="nonzero"/><path fill="#014d4e" d="M 19.699219 19.222656 C 19.773438 19.222656 19.8125 19.148438 19.847656 19.09375 C 19.871094 19.058594 19.871094 18.996094 19.828125 18.980469 C 19.828125 18.980469 19.824219 18.980469 19.824219 18.980469 C 19.808594 18.957031 19.773438 18.957031 19.746094 18.960938 C 19.625 18.96875 19.539062 19.214844 19.699219 19.222656 Z M 19.753906 19.054688 C 19.734375 19.074219 19.734375 19.097656 19.714844 19.113281 C 19.71875 19.09375 19.730469 19.066406 19.753906 19.054688 Z M 19.753906 19.054688 " fill-opacity="1" fill-rule="nonzero"/><path fill="#014d4e" d="M 18.933594 18.753906 C 18.933594 18.75 18.929688 18.742188 18.933594 18.738281 C 18.953125 18.71875 18.980469 18.703125 19.007812 18.691406 C 19.140625 18.628906 19.105469 18.519531 18.984375 18.476562 C 18.886719 18.441406 18.804688 18.515625 18.710938 18.535156 C 18.570312 18.554688 18.570312 18.570312 18.507812 18.6875 C 18.414062 18.734375 18.285156 18.886719 18.359375 18.992188 C 18.378906 19.019531 18.414062 19.039062 18.449219 19.039062 C 18.464844 19.039062 18.480469 19.03125 18.496094 19.035156 C 18.519531 19.074219 18.511719 19.128906 18.554688 19.152344 C 18.597656 19.171875 18.691406 19.183594 18.691406 19.113281 C 18.722656 19.078125 18.789062 19.105469 18.816406 19.136719 C 18.84375 19.203125 18.867188 19.296875 18.8125 19.351562 C 18.75 19.429688 18.65625 19.464844 18.5625 19.5 C 18.5 19.539062 18.453125 19.589844 18.410156 19.644531 C 18.378906 19.699219 18.335938 19.730469 18.285156 19.761719 C 18.214844 19.816406 18.15625 19.890625 18.105469 19.957031 C 18.078125 19.988281 18.042969 20.003906 18.003906 20.019531 C 17.949219 20.050781 17.898438 20.09375 17.867188 20.148438 C 17.828125 20.207031 17.746094 20.199219 17.6875 20.242188 C 17.613281 20.277344 17.5625 20.375 17.597656 20.453125 C 17.648438 20.539062 17.742188 20.496094 17.800781 20.449219 C 17.863281 20.414062 17.933594 20.394531 18.003906 20.363281 C 18.152344 20.289062 18.210938 20.117188 18.367188 20.050781 C 18.457031 20.007812 18.519531 19.929688 18.578125 19.855469 C 18.621094 19.800781 18.683594 19.773438 18.730469 19.726562 C 18.796875 19.671875 18.855469 19.605469 18.933594 19.5625 C 18.996094 19.519531 19.035156 19.4375 19.0625 19.363281 C 19.089844 19.234375 19.097656 19.101562 19.105469 18.964844 C 19.101562 18.867188 19.007812 18.8125 18.933594 18.753906 Z M 19.003906 19.09375 C 18.992188 19.210938 18.996094 19.335938 18.921875 19.441406 C 18.894531 19.496094 18.828125 19.507812 18.789062 19.554688 C 18.742188 19.601562 18.683594 19.652344 18.628906 19.695312 C 18.582031 19.734375 18.53125 19.761719 18.496094 19.8125 C 18.460938 19.855469 18.433594 19.90625 18.386719 19.933594 C 18.3125 19.984375 18.226562 20.023438 18.164062 20.089844 C 18.105469 20.152344 18.058594 20.222656 17.988281 20.269531 C 17.890625 20.320312 17.78125 20.347656 17.6875 20.414062 C 17.691406 20.300781 17.839844 20.3125 17.910156 20.25 C 17.945312 20.222656 17.960938 20.179688 17.996094 20.152344 C 18.03125 20.117188 18.078125 20.097656 18.125 20.074219 C 18.214844 20.011719 18.261719 19.90625 18.347656 19.839844 C 18.441406 19.796875 18.480469 19.707031 18.550781 19.636719 C 18.585938 19.59375 18.636719 19.578125 18.6875 19.558594 C 18.753906 19.53125 18.820312 19.492188 18.871094 19.441406 C 18.945312 19.371094 18.960938 19.273438 18.933594 19.179688 C 18.929688 19.140625 18.917969 19.09375 18.886719 19.066406 C 18.816406 18.992188 18.675781 18.972656 18.617188 19.066406 C 18.601562 18.980469 18.546875 18.914062 18.453125 18.945312 C 18.402344 18.917969 18.476562 18.851562 18.496094 18.816406 C 18.527344 18.789062 18.566406 18.78125 18.59375 18.75 C 18.617188 18.71875 18.621094 18.683594 18.640625 18.652344 C 18.695312 18.625 18.761719 18.632812 18.816406 18.609375 C 18.863281 18.585938 18.941406 18.539062 18.988281 18.589844 C 18.886719 18.644531 18.769531 18.710938 18.875 18.832031 C 18.992188 18.921875 19.035156 18.929688 19.003906 19.09375 Z M 19.003906 19.09375 " fill-opacity="1" fill-rule="nonzero"/><path fill="#014d4e" d="M 19.53125 17.339844 C 19.53125 17.3125 19.511719 17.292969 19.484375 17.289062 C 19.445312 17.285156 19.40625 17.269531 19.367188 17.261719 C 19.292969 17.234375 19.214844 17.269531 19.152344 17.308594 C 19.109375 17.34375 19.101562 17.40625 19.117188 17.453125 C 19.160156 17.53125 19.269531 17.480469 19.34375 17.492188 C 19.410156 17.5 19.488281 17.519531 19.535156 17.464844 C 19.566406 17.429688 19.585938 17.363281 19.53125 17.339844 Z M 19.457031 17.40625 C 19.375 17.398438 19.292969 17.394531 19.210938 17.398438 C 19.214844 17.367188 19.261719 17.367188 19.285156 17.351562 C 19.339844 17.332031 19.398438 17.371094 19.453125 17.378906 C 19.449219 17.390625 19.453125 17.398438 19.457031 17.40625 Z M 19.457031 17.40625 " fill-opacity="1" fill-rule="nonzero"/><path fill="#014d4e" d="M 17.558594 18.570312 C 17.578125 18.617188 17.597656 18.675781 17.652344 18.6875 C 17.703125 18.699219 17.746094 18.664062 17.769531 18.625 C 17.78125 18.589844 17.78125 18.546875 17.765625 18.511719 C 17.765625 18.511719 17.769531 18.511719 17.769531 18.511719 C 17.78125 18.523438 17.792969 18.535156 17.804688 18.546875 C 17.8125 18.5625 17.804688 18.578125 17.804688 18.59375 C 17.804688 18.625 17.828125 18.648438 17.855469 18.664062 C 17.882812 18.6875 17.917969 18.699219 17.957031 18.691406 C 17.984375 18.710938 18.015625 18.699219 18.042969 18.683594 C 18.042969 18.71875 18.035156 18.753906 18.058594 18.777344 C 18.097656 18.820312 18.167969 18.808594 18.210938 18.78125 C 18.273438 18.753906 18.3125 18.699219 18.339844 18.636719 C 18.378906 18.597656 18.433594 18.558594 18.421875 18.496094 C 18.414062 18.464844 18.394531 18.429688 18.359375 18.421875 C 18.289062 18.40625 18.21875 18.398438 18.152344 18.417969 C 18.117188 18.414062 18.089844 18.390625 18.0625 18.367188 C 18.003906 18.328125 17.945312 18.28125 17.875 18.292969 C 17.847656 18.296875 17.824219 18.304688 17.800781 18.300781 C 17.757812 18.28125 17.71875 18.253906 17.671875 18.25 C 17.550781 18.210938 17.441406 18.339844 17.472656 18.457031 C 17.480469 18.503906 17.515625 18.542969 17.558594 18.570312 Z M 17.613281 18.339844 C 17.664062 18.335938 17.707031 18.367188 17.75 18.386719 C 17.796875 18.40625 17.84375 18.390625 17.894531 18.386719 C 17.972656 18.402344 18.023438 18.488281 18.101562 18.507812 C 18.140625 18.519531 18.183594 18.507812 18.222656 18.503906 C 18.253906 18.5 18.285156 18.515625 18.320312 18.515625 C 18.300781 18.542969 18.269531 18.558594 18.25 18.589844 C 18.226562 18.644531 18.191406 18.691406 18.132812 18.707031 C 18.132812 18.703125 18.132812 18.703125 18.132812 18.703125 C 18.132812 18.667969 18.125 18.636719 18.105469 18.609375 C 18.082031 18.582031 18.042969 18.582031 18.003906 18.589844 C 17.976562 18.574219 17.949219 18.597656 17.917969 18.59375 C 17.914062 18.589844 17.910156 18.589844 17.90625 18.585938 C 17.902344 18.582031 17.898438 18.582031 17.894531 18.578125 C 17.902344 18.535156 17.882812 18.488281 17.847656 18.460938 C 17.824219 18.425781 17.785156 18.410156 17.746094 18.410156 C 17.707031 18.40625 17.667969 18.441406 17.65625 18.480469 C 17.648438 18.515625 17.679688 18.542969 17.675781 18.578125 C 17.671875 18.582031 17.671875 18.585938 17.671875 18.585938 C 17.652344 18.542969 17.636719 18.492188 17.589844 18.472656 C 17.539062 18.441406 17.550781 18.355469 17.613281 18.339844 Z M 17.613281 18.339844 " fill-opacity="1" fill-rule="nonzero"/><path fill="#014d4e" d="M 17.703125 18.835938 C 17.699219 18.761719 17.550781 18.777344 17.511719 18.8125 C 17.460938 18.867188 17.445312 18.949219 17.382812 19 C 17.316406 19.0625 17.292969 19.242188 17.417969 19.246094 C 17.523438 19.253906 17.578125 19.148438 17.632812 19.074219 C 17.699219 19.011719 17.796875 18.929688 17.703125 18.835938 Z M 17.550781 19.015625 C 17.511719 19.058594 17.488281 19.128906 17.429688 19.148438 C 17.429688 19.148438 17.425781 19.148438 17.425781 19.148438 C 17.414062 19.082031 17.476562 19.046875 17.511719 18.996094 C 17.539062 18.960938 17.550781 18.917969 17.574219 18.882812 C 17.578125 18.882812 17.578125 18.882812 17.578125 18.878906 L 17.582031 18.878906 C 17.585938 18.878906 17.605469 18.875 17.613281 18.878906 C 17.613281 18.894531 17.632812 18.90625 17.636719 18.917969 C 17.625 18.960938 17.578125 18.980469 17.550781 19.015625 Z M 17.550781 19.015625 " fill-opacity="1" fill-rule="nonzero"/><path fill="#014d4e" d="M 16.089844 17.707031 C 16.054688 17.601562 15.941406 17.546875 15.910156 17.4375 C 15.761719 17.175781 15.472656 17.378906 15.375 17.019531 C 15.355469 16.832031 15.378906 16.625 15.261719 16.460938 C 15.207031 16.375 15.121094 16.308594 15.066406 16.222656 C 15.027344 16.097656 14.96875 15.976562 14.898438 15.859375 C 14.863281 15.796875 14.808594 15.753906 14.78125 15.6875 C 14.699219 15.585938 14.699219 15.421875 14.5625 15.371094 C 14.503906 15.34375 14.441406 15.363281 14.433594 15.429688 C 14.421875 15.484375 14.457031 15.527344 14.476562 15.574219 C 14.488281 15.613281 14.496094 15.648438 14.5 15.695312 C 14.484375 15.757812 14.484375 15.851562 14.558594 15.871094 C 14.582031 15.875 14.601562 15.867188 14.625 15.871094 C 14.648438 15.910156 14.679688 15.945312 14.6875 15.984375 C 14.679688 16.089844 14.691406 16.199219 14.773438 16.269531 C 14.824219 16.324219 14.839844 16.402344 14.898438 16.449219 C 14.953125 16.5 15.007812 16.542969 15.054688 16.605469 C 15.078125 16.644531 15.082031 16.691406 15.082031 16.734375 C 15.066406 16.765625 15.085938 16.800781 15.085938 16.828125 C 15.082031 16.902344 15.042969 16.96875 15.046875 17.042969 C 15.046875 17.078125 15.054688 17.121094 15.082031 17.148438 C 15.101562 17.175781 15.140625 17.183594 15.152344 17.21875 C 15.175781 17.269531 15.21875 17.3125 15.242188 17.363281 C 15.265625 17.421875 15.3125 17.464844 15.363281 17.503906 C 15.546875 17.628906 15.757812 17.460938 15.785156 17.777344 C 15.777344 17.871094 15.808594 17.945312 15.867188 18.015625 C 15.921875 18.085938 15.914062 18.203125 16 18.242188 C 16.066406 18.257812 16.113281 18.195312 16.128906 18.140625 C 16.148438 18.074219 16.125 18.011719 16.109375 17.949219 C 16.105469 17.871094 16.113281 17.789062 16.089844 17.707031 Z M 16.019531 18.144531 C 15.996094 18.101562 15.988281 18.050781 15.960938 18.003906 C 15.941406 17.960938 15.90625 17.929688 15.890625 17.886719 C 15.871094 17.832031 15.882812 17.769531 15.871094 17.714844 C 15.855469 17.640625 15.820312 17.570312 15.765625 17.519531 C 15.699219 17.476562 15.613281 17.480469 15.539062 17.472656 C 15.464844 17.46875 15.398438 17.425781 15.351562 17.367188 C 15.324219 17.304688 15.28125 17.246094 15.246094 17.191406 C 15.230469 17.148438 15.195312 17.121094 15.160156 17.097656 C 15.140625 17.050781 15.148438 17.003906 15.167969 16.957031 C 15.179688 16.894531 15.199219 16.835938 15.175781 16.769531 C 15.183594 16.765625 15.1875 16.753906 15.1875 16.742188 C 15.1875 16.734375 15.1875 16.730469 15.183594 16.722656 C 15.195312 16.554688 15.046875 16.460938 14.9375 16.347656 C 14.921875 16.320312 14.910156 16.292969 14.894531 16.265625 C 14.851562 16.203125 14.789062 16.152344 14.792969 16.074219 C 14.792969 16.015625 14.804688 15.949219 14.761719 15.898438 C 14.726562 15.835938 14.691406 15.769531 14.601562 15.78125 C 14.59375 15.75 14.613281 15.722656 14.609375 15.6875 C 14.601562 15.613281 14.585938 15.539062 14.542969 15.46875 C 14.617188 15.5 14.621094 15.585938 14.652344 15.648438 C 14.675781 15.6875 14.699219 15.726562 14.71875 15.765625 C 14.746094 15.816406 14.785156 15.855469 14.816406 15.898438 C 14.835938 15.933594 14.851562 15.96875 14.875 16.003906 C 14.929688 16.085938 14.949219 16.179688 14.992188 16.273438 C 15.046875 16.363281 15.128906 16.429688 15.191406 16.519531 C 15.296875 16.675781 15.261719 16.867188 15.289062 17.046875 C 15.3125 17.15625 15.382812 17.265625 15.484375 17.324219 C 15.535156 17.355469 15.597656 17.355469 15.65625 17.375 C 15.71875 17.390625 15.785156 17.414062 15.824219 17.472656 C 15.847656 17.511719 15.855469 17.554688 15.882812 17.589844 C 15.914062 17.628906 15.953125 17.660156 15.976562 17.699219 C 16.03125 17.777344 16.007812 17.878906 16.015625 17.96875 C 16.019531 18.019531 16.0625 18.085938 16.019531 18.144531 Z M 16.019531 18.144531 " fill-opacity="1" fill-rule="nonzero"/><path fill="#014d4e" d="M 15.046875 17.253906 C 14.992188 17.25 14.953125 17.304688 14.953125 17.355469 C 14.960938 17.4375 15.054688 17.539062 15.140625 17.546875 C 15.242188 17.554688 15.238281 17.429688 15.203125 17.363281 C 15.171875 17.308594 15.113281 17.261719 15.046875 17.253906 Z M 15.050781 17.355469 C 15.085938 17.371094 15.125 17.402344 15.128906 17.445312 C 15.097656 17.421875 15.066406 17.390625 15.050781 17.355469 Z M 15.050781 17.355469 " fill-opacity="1" fill-rule="nonzero"/><path fill="#014d4e" d="M 15.027344 17.179688 C 15.039062 17.164062 15.042969 17.152344 15.042969 17.136719 C 15.042969 17.082031 14.996094 17.035156 14.96875 16.996094 C 14.96875 16.976562 14.953125 16.960938 14.933594 16.953125 C 14.914062 16.9375 14.894531 16.917969 14.871094 16.910156 C 14.804688 16.871094 14.710938 16.910156 14.710938 16.988281 C 14.703125 17.109375 14.820312 17.199219 14.929688 17.222656 C 14.960938 17.230469 15.007812 17.214844 15.027344 17.179688 Z M 14.804688 16.992188 C 14.828125 16.992188 14.84375 17.011719 14.859375 17.027344 C 14.863281 17.042969 14.875 17.054688 14.890625 17.0625 C 14.910156 17.082031 14.925781 17.105469 14.941406 17.128906 C 14.878906 17.117188 14.792969 17.0625 14.804688 16.992188 Z M 14.804688 16.992188 " fill-opacity="1" fill-rule="nonzero"/><path fill="#014d4e" d="M 17.183594 14.085938 C 17.117188 13.96875 16.980469 13.972656 16.902344 14.066406 C 16.835938 14.140625 16.8125 14.253906 16.816406 14.347656 C 16.796875 14.382812 16.757812 14.402344 16.738281 14.441406 C 16.703125 14.496094 16.699219 14.589844 16.761719 14.621094 C 16.777344 14.628906 16.796875 14.632812 16.8125 14.632812 C 16.863281 14.632812 16.90625 14.605469 16.945312 14.582031 C 17.136719 14.664062 17.203125 14.398438 17.1875 14.257812 C 17.199219 14.199219 17.21875 14.136719 17.183594 14.085938 Z M 17.09375 14.253906 C 17.097656 14.328125 17.09375 14.402344 17.054688 14.464844 C 17.039062 14.511719 17.003906 14.496094 16.96875 14.488281 C 16.945312 14.484375 16.925781 14.488281 16.90625 14.496094 C 16.875 14.507812 16.851562 14.527344 16.820312 14.535156 C 16.816406 14.535156 16.8125 14.535156 16.808594 14.535156 C 16.804688 14.480469 16.859375 14.457031 16.886719 14.417969 C 16.921875 14.378906 16.925781 14.332031 16.917969 14.289062 C 16.925781 14.214844 16.953125 14.117188 17.035156 14.09375 C 17.0625 14.085938 17.082031 14.109375 17.09375 14.128906 C 17.117188 14.167969 17.09375 14.214844 17.09375 14.253906 Z M 17.09375 14.253906 " fill-opacity="1" fill-rule="nonzero"/><path fill="#014d4e" d="M 16.113281 15.332031 C 16.011719 15.261719 15.882812 15.351562 15.773438 15.347656 C 15.699219 15.351562 15.640625 15.410156 15.609375 15.472656 C 15.589844 15.519531 15.632812 15.570312 15.679688 15.582031 C 15.730469 15.59375 15.78125 15.570312 15.835938 15.574219 C 15.871094 15.605469 15.914062 15.617188 15.957031 15.632812 C 16.03125 15.652344 16.113281 15.628906 16.167969 15.574219 C 16.234375 15.5 16.183594 15.390625 16.113281 15.332031 Z M 16.089844 15.515625 C 16.074219 15.53125 16.050781 15.539062 16.027344 15.542969 C 16.023438 15.542969 16.023438 15.542969 16.019531 15.542969 C 15.972656 15.546875 15.921875 15.519531 15.882812 15.5 C 15.867188 15.480469 15.84375 15.480469 15.824219 15.480469 C 15.785156 15.476562 15.746094 15.480469 15.710938 15.488281 C 15.746094 15.429688 15.8125 15.445312 15.871094 15.433594 C 15.925781 15.429688 15.976562 15.402344 16.03125 15.40625 C 16.070312 15.414062 16.121094 15.480469 16.089844 15.515625 Z M 16.089844 15.515625 " fill-opacity="1" fill-rule="nonzero"/><path fill="#014d4e" d="M 15.074219 15.023438 C 15.191406 15.070312 15.292969 14.964844 15.203125 14.863281 C 15.199219 14.835938 15.175781 14.820312 15.152344 14.8125 C 15.128906 14.808594 15.109375 14.796875 15.082031 14.792969 C 14.902344 14.792969 14.90625 14.992188 15.074219 15.023438 Z M 15.046875 14.902344 C 15.066406 14.886719 15.089844 14.894531 15.113281 14.90625 C 15.121094 14.917969 15.132812 14.925781 15.140625 14.941406 C 15.140625 14.941406 15.140625 14.941406 15.136719 14.941406 C 15.101562 14.933594 15.066406 14.925781 15.046875 14.902344 Z M 15.046875 14.902344 " fill-opacity="1" fill-rule="nonzero"/><path fill="#014d4e" d="M 14.671875 13.734375 C 14.648438 13.574219 14.582031 13.421875 14.449219 13.324219 C 14.355469 13.210938 14.296875 13.074219 14.214844 12.953125 C 14.175781 12.898438 14.140625 12.847656 14.097656 12.800781 C 14.046875 12.761719 13.984375 12.726562 13.960938 12.667969 C 13.9375 12.550781 13.863281 12.464844 13.78125 12.386719 C 13.761719 12.355469 13.761719 12.320312 13.75 12.28125 C 13.734375 12.226562 13.695312 12.171875 13.644531 12.136719 C 13.511719 12.058594 13.355469 11.964844 13.203125 12.015625 C 13.128906 12.050781 13.105469 12.152344 13.152344 12.21875 C 13.1875 12.277344 13.253906 12.300781 13.308594 12.332031 C 13.355469 12.355469 13.410156 12.375 13.410156 12.4375 C 13.410156 12.523438 13.421875 12.660156 13.535156 12.652344 C 13.558594 12.652344 13.582031 12.65625 13.601562 12.636719 C 13.621094 12.636719 13.632812 12.65625 13.648438 12.671875 C 13.699219 12.714844 13.71875 12.785156 13.742188 12.851562 C 13.773438 12.933594 13.804688 13.019531 13.851562 13.09375 C 13.890625 13.148438 13.941406 13.175781 13.984375 13.230469 C 14.042969 13.300781 14.078125 13.386719 14.132812 13.460938 C 14.214844 13.53125 14.207031 13.640625 14.09375 13.660156 C 14.007812 13.671875 13.925781 13.691406 13.863281 13.753906 C 13.769531 13.835938 13.769531 13.96875 13.917969 13.972656 C 14.082031 13.960938 14.253906 13.953125 14.398438 13.867188 C 14.472656 13.867188 14.53125 13.949219 14.609375 13.957031 C 14.773438 13.980469 14.769531 13.816406 14.671875 13.734375 Z M 14.460938 13.78125 C 14.394531 13.75 14.335938 13.792969 14.28125 13.824219 C 14.171875 13.859375 14.0625 13.863281 13.953125 13.878906 C 13.933594 13.878906 13.914062 13.882812 13.898438 13.875 C 13.941406 13.769531 14.058594 13.769531 14.152344 13.75 C 14.246094 13.714844 14.308594 13.621094 14.28125 13.515625 C 14.269531 13.472656 14.242188 13.433594 14.210938 13.398438 C 14.167969 13.339844 14.132812 13.269531 14.09375 13.210938 C 14.046875 13.128906 13.957031 13.082031 13.914062 13.007812 C 13.890625 12.933594 13.855469 12.871094 13.832031 12.800781 C 13.8125 12.75 13.800781 12.699219 13.769531 12.660156 C 13.691406 12.5625 13.65625 12.519531 13.527344 12.550781 C 13.519531 12.542969 13.515625 12.539062 13.515625 12.527344 C 13.503906 12.460938 13.519531 12.378906 13.472656 12.316406 C 13.414062 12.253906 13.328125 12.230469 13.261719 12.183594 C 13.167969 12.089844 13.277344 12.082031 13.351562 12.09375 C 13.417969 12.113281 13.476562 12.144531 13.535156 12.175781 C 13.574219 12.195312 13.613281 12.21875 13.640625 12.257812 C 13.667969 12.300781 13.664062 12.359375 13.6875 12.410156 C 13.722656 12.46875 13.78125 12.503906 13.820312 12.5625 C 13.859375 12.617188 13.855469 12.691406 13.898438 12.742188 C 13.957031 12.824219 14.058594 12.867188 14.109375 12.957031 C 14.210938 13.089844 14.265625 13.25 14.375 13.375 C 14.414062 13.417969 14.464844 13.453125 14.5 13.507812 C 14.542969 13.582031 14.566406 13.660156 14.582031 13.746094 C 14.585938 13.792969 14.640625 13.8125 14.652344 13.859375 C 14.636719 13.859375 14.621094 13.859375 14.609375 13.851562 C 14.554688 13.828125 14.511719 13.804688 14.460938 13.78125 Z M 14.460938 13.78125 " fill-opacity="1" fill-rule="nonzero"/><path fill="#014d4e" d="M 13.851562 16.199219 C 13.800781 16.171875 13.71875 16.152344 13.667969 16.191406 C 13.636719 16.226562 13.632812 16.285156 13.652344 16.328125 C 13.675781 16.371094 13.726562 16.378906 13.765625 16.390625 C 13.800781 16.402344 13.828125 16.425781 13.863281 16.4375 C 13.953125 16.46875 14.023438 16.375 13.976562 16.292969 C 13.949219 16.246094 13.898438 16.21875 13.851562 16.199219 Z M 13.738281 16.28125 C 13.738281 16.277344 13.738281 16.273438 13.738281 16.265625 C 13.769531 16.265625 13.796875 16.28125 13.824219 16.292969 C 13.851562 16.304688 13.882812 16.316406 13.894531 16.34375 C 13.839844 16.320312 13.792969 16.296875 13.738281 16.28125 Z M 13.738281 16.28125 " fill-opacity="1" fill-rule="nonzero"/><path fill="#014d4e" d="M 13.429688 16.152344 C 13.363281 16.152344 13.285156 16.171875 13.269531 16.246094 C 13.242188 16.332031 13.339844 16.390625 13.410156 16.394531 C 13.484375 16.414062 13.628906 16.382812 13.59375 16.28125 C 13.578125 16.207031 13.503906 16.152344 13.429688 16.152344 Z M 13.480469 16.300781 C 13.441406 16.300781 13.394531 16.300781 13.363281 16.273438 C 13.363281 16.265625 13.367188 16.265625 13.371094 16.261719 C 13.417969 16.246094 13.472656 16.246094 13.503906 16.296875 C 13.496094 16.300781 13.484375 16.300781 13.480469 16.300781 Z M 13.480469 16.300781 " fill-opacity="1" fill-rule="nonzero"/><path fill="#014d4e" d="M 13.277344 16.082031 C 13.273438 16.039062 13.242188 15.996094 13.210938 15.964844 C 13.148438 15.890625 13.070312 15.84375 12.992188 15.792969 C 12.898438 15.707031 12.8125 15.65625 12.726562 15.5625 C 12.6875 15.5 12.609375 15.480469 12.5625 15.425781 C 12.527344 15.332031 12.414062 15.277344 12.320312 15.316406 C 12.257812 15.347656 12.242188 15.425781 12.230469 15.484375 C 12.21875 15.605469 12.21875 15.757812 12.371094 15.78125 C 12.410156 15.785156 12.449219 15.769531 12.488281 15.78125 C 12.527344 15.789062 12.554688 15.808594 12.585938 15.835938 C 12.597656 15.847656 12.609375 15.859375 12.628906 15.867188 C 12.644531 15.871094 12.660156 15.863281 12.671875 15.875 C 12.714844 15.910156 12.738281 15.960938 12.78125 15.988281 C 12.828125 16.035156 12.894531 16.058594 12.957031 16.074219 C 12.976562 16.078125 12.984375 16.097656 12.996094 16.113281 C 13.019531 16.171875 13.054688 16.226562 13.125 16.230469 C 13.222656 16.246094 13.292969 16.183594 13.277344 16.082031 Z M 13.175781 16.132812 C 13.171875 16.132812 13.171875 16.132812 13.171875 16.132812 C 13.167969 16.132812 13.167969 16.132812 13.164062 16.132812 C 13.132812 16.136719 13.105469 16.128906 13.097656 16.097656 C 13.082031 16.066406 13.066406 16.023438 13.027344 16 C 12.984375 15.972656 12.929688 15.964844 12.886719 15.945312 C 12.796875 15.894531 12.761719 15.777344 12.652344 15.761719 C 12.613281 15.722656 12.554688 15.691406 12.496094 15.683594 C 12.453125 15.667969 12.398438 15.703125 12.355469 15.667969 C 12.328125 15.652344 12.328125 15.625 12.328125 15.597656 C 12.328125 15.558594 12.324219 15.519531 12.328125 15.480469 C 12.347656 15.417969 12.347656 15.378906 12.421875 15.40625 C 12.472656 15.425781 12.476562 15.488281 12.515625 15.515625 C 12.542969 15.542969 12.582031 15.558594 12.613281 15.582031 C 12.648438 15.621094 12.683594 15.660156 12.71875 15.695312 C 12.757812 15.734375 12.804688 15.761719 12.847656 15.796875 C 12.875 15.824219 12.902344 15.855469 12.9375 15.875 C 12.996094 15.917969 13.0625 15.949219 13.109375 16.003906 C 13.148438 16.035156 13.203125 16.078125 13.175781 16.132812 Z M 13.175781 16.132812 " fill-opacity="1" fill-rule="nonzero"/><path fill="#014d4e" d="M 12.890625 12.589844 C 12.949219 12.597656 13.023438 12.597656 13.070312 12.554688 C 13.113281 12.503906 13.109375 12.40625 13.035156 12.386719 C 13.015625 12.355469 12.960938 12.347656 12.925781 12.355469 C 12.808594 12.375 12.757812 12.554688 12.890625 12.589844 Z M 12.953125 12.449219 C 12.960938 12.457031 12.964844 12.464844 12.972656 12.46875 C 12.980469 12.46875 12.988281 12.472656 13 12.476562 C 13 12.496094 12.972656 12.492188 12.960938 12.496094 C 12.945312 12.492188 12.917969 12.5 12.90625 12.488281 C 12.90625 12.46875 12.933594 12.449219 12.953125 12.449219 Z M 12.953125 12.449219 " fill-opacity="1" fill-rule="nonzero"/><path fill="#014d4e" d="M 12.570312 12.558594 C 12.617188 12.585938 12.671875 12.5625 12.710938 12.535156 C 12.765625 12.503906 12.773438 12.410156 12.722656 12.371094 C 12.722656 12.335938 12.691406 12.320312 12.671875 12.304688 C 12.660156 12.292969 12.644531 12.28125 12.632812 12.269531 C 12.539062 12.207031 12.464844 12.320312 12.46875 12.40625 C 12.460938 12.46875 12.515625 12.523438 12.570312 12.558594 Z M 12.5625 12.402344 C 12.566406 12.382812 12.566406 12.363281 12.574219 12.351562 C 12.589844 12.363281 12.601562 12.375 12.613281 12.386719 C 12.617188 12.410156 12.640625 12.425781 12.65625 12.441406 C 12.65625 12.445312 12.65625 12.449219 12.65625 12.449219 C 12.644531 12.457031 12.628906 12.46875 12.617188 12.46875 C 12.59375 12.457031 12.5625 12.433594 12.5625 12.402344 Z M 12.5625 12.402344 " fill-opacity="1" fill-rule="nonzero"/><path fill="#014d4e" d="M 12.078125 10.636719 C 12.0625 10.511719 11.957031 10.417969 11.863281 10.347656 C 11.808594 10.285156 11.75 10.226562 11.671875 10.191406 C 11.601562 10.113281 11.519531 10.054688 11.433594 10 C 11.351562 9.933594 11.25 9.898438 11.15625 9.855469 C 11.058594 9.824219 10.976562 9.757812 10.898438 9.699219 C 10.859375 9.671875 10.816406 9.65625 10.773438 9.640625 C 10.71875 9.613281 10.671875 9.566406 10.621094 9.527344 C 10.585938 9.488281 10.566406 9.429688 10.511719 9.398438 C 10.394531 9.335938 10.132812 9.191406 10.074219 9.398438 C 10.054688 9.484375 10.007812 9.558594 9.96875 9.636719 C 9.933594 9.726562 10.003906 9.769531 10.085938 9.75 C 10.132812 9.734375 10.183594 9.714844 10.230469 9.695312 C 10.25 9.691406 10.269531 9.699219 10.289062 9.707031 C 10.351562 9.714844 10.40625 9.742188 10.457031 9.777344 C 10.542969 9.8125 10.617188 9.859375 10.6875 9.917969 C 10.722656 9.953125 10.757812 10 10.804688 10.023438 C 10.832031 10.039062 10.859375 10.054688 10.890625 10.070312 C 10.972656 10.113281 11.078125 10.085938 11.160156 10.128906 C 11.226562 10.160156 11.277344 10.214844 11.335938 10.253906 C 11.414062 10.300781 11.476562 10.367188 11.53125 10.441406 C 11.585938 10.535156 11.660156 10.605469 11.757812 10.652344 C 11.792969 10.679688 11.792969 10.734375 11.800781 10.773438 C 11.808594 10.867188 11.796875 10.957031 11.753906 11.039062 C 11.722656 11.089844 11.679688 11.144531 11.648438 11.203125 C 11.625 11.234375 11.601562 11.269531 11.601562 11.3125 C 11.597656 11.355469 11.613281 11.40625 11.660156 11.417969 C 11.675781 11.441406 11.707031 11.441406 11.730469 11.429688 C 11.730469 11.433594 11.730469 11.4375 11.730469 11.441406 C 11.730469 11.445312 11.726562 11.457031 11.726562 11.464844 C 11.695312 11.472656 11.667969 11.480469 11.648438 11.5 C 11.632812 11.519531 11.621094 11.539062 11.597656 11.539062 C 11.53125 11.53125 11.472656 11.5 11.410156 11.480469 C 11.363281 11.457031 11.320312 11.425781 11.269531 11.425781 C 11.21875 11.429688 11.191406 11.480469 11.183594 11.519531 C 11.175781 11.582031 11.214844 11.632812 11.25 11.679688 C 11.347656 11.804688 11.53125 11.820312 11.621094 11.964844 C 11.667969 12.050781 11.6875 12.152344 11.714844 12.222656 C 11.746094 12.273438 11.8125 12.285156 11.867188 12.308594 C 11.976562 12.332031 12.070312 12.269531 12.027344 12.15625 C 12.011719 12.113281 11.980469 12.082031 11.957031 12.042969 C 11.9375 11.996094 11.929688 11.9375 11.929688 11.882812 C 11.929688 11.828125 11.957031 11.78125 11.988281 11.742188 C 12.109375 11.570312 12.0625 11.464844 12.007812 11.28125 C 12 11.253906 11.992188 11.21875 12.003906 11.1875 C 12.023438 11.140625 12.054688 11.09375 12.058594 11.039062 C 12.066406 10.957031 12.050781 10.871094 12.050781 10.789062 C 12.070312 10.734375 12.089844 10.695312 12.078125 10.636719 Z M 11.960938 10.8125 C 11.964844 10.90625 11.996094 11.011719 11.945312 11.09375 C 11.851562 11.238281 11.980469 11.386719 11.976562 11.539062 C 11.96875 11.644531 11.863281 11.710938 11.847656 11.816406 C 11.832031 11.910156 11.84375 12.011719 11.890625 12.097656 C 11.910156 12.132812 11.945312 12.164062 11.945312 12.207031 C 11.9375 12.207031 11.929688 12.207031 11.921875 12.207031 C 11.894531 12.210938 11.871094 12.195312 11.847656 12.1875 C 11.835938 12.179688 11.8125 12.175781 11.804688 12.164062 C 11.773438 12.058594 11.75 11.945312 11.679688 11.863281 C 11.605469 11.769531 11.492188 11.722656 11.390625 11.664062 C 11.355469 11.640625 11.332031 11.605469 11.308594 11.574219 C 11.296875 11.558594 11.285156 11.539062 11.292969 11.515625 C 11.316406 11.519531 11.335938 11.535156 11.355469 11.546875 C 11.398438 11.574219 11.449219 11.582031 11.496094 11.597656 C 11.542969 11.613281 11.589844 11.636719 11.640625 11.621094 C 11.679688 11.613281 11.707031 11.585938 11.730469 11.554688 C 11.761719 11.546875 11.800781 11.542969 11.820312 11.511719 C 11.847656 11.449219 11.851562 11.328125 11.761719 11.316406 C 11.746094 11.304688 11.722656 11.300781 11.707031 11.3125 C 11.75 11.203125 11.847656 11.117188 11.878906 11.003906 C 11.910156 10.925781 11.902344 10.839844 11.902344 10.757812 C 11.894531 10.644531 11.847656 10.570312 11.738281 10.527344 C 11.652344 10.46875 11.613281 10.363281 11.542969 10.292969 C 11.480469 10.222656 11.398438 10.179688 11.324219 10.117188 C 11.261719 10.066406 11.195312 10.019531 11.109375 10.011719 C 11.046875 9.996094 10.980469 10.007812 10.921875 9.976562 C 10.839844 9.941406 10.792969 9.894531 10.730469 9.832031 C 10.667969 9.78125 10.601562 9.730469 10.523438 9.703125 C 10.476562 9.679688 10.433594 9.644531 10.378906 9.628906 C 10.332031 9.621094 10.285156 9.601562 10.238281 9.597656 C 10.175781 9.601562 10.125 9.640625 10.066406 9.652344 C 10.097656 9.59375 10.128906 9.535156 10.152344 9.472656 C 10.164062 9.449219 10.15625 9.402344 10.1875 9.390625 C 10.28125 9.375 10.363281 9.4375 10.449219 9.472656 C 10.496094 9.5 10.507812 9.554688 10.542969 9.589844 C 10.621094 9.660156 10.707031 9.726562 10.804688 9.761719 C 10.867188 9.796875 10.917969 9.84375 10.980469 9.882812 C 11.066406 9.933594 11.15625 9.96875 11.253906 10.003906 C 11.351562 10.058594 11.441406 10.125 11.53125 10.191406 C 11.5625 10.214844 11.582031 10.25 11.613281 10.269531 C 11.679688 10.300781 11.734375 10.347656 11.785156 10.402344 C 11.867188 10.476562 11.988281 10.550781 11.988281 10.679688 C 11.980469 10.722656 11.953125 10.765625 11.960938 10.8125 Z M 11.960938 10.8125 " fill-opacity="1" fill-rule="nonzero"/><path fill="#014d4e" d="M 11.347656 14.058594 C 11.222656 13.941406 11.113281 14.070312 11.175781 14.210938 C 11.21875 14.320312 11.300781 14.417969 11.390625 14.496094 C 11.425781 14.515625 11.457031 14.554688 11.503906 14.558594 C 11.515625 14.558594 11.53125 14.554688 11.542969 14.550781 C 11.578125 14.554688 11.617188 14.53125 11.621094 14.496094 C 11.628906 14.421875 11.5625 14.367188 11.523438 14.316406 C 11.464844 14.230469 11.429688 14.128906 11.347656 14.058594 Z M 11.492188 14.449219 C 11.453125 14.421875 11.414062 14.394531 11.382812 14.355469 C 11.328125 14.28125 11.257812 14.210938 11.253906 14.113281 C 11.363281 14.179688 11.398438 14.335938 11.5 14.441406 C 11.496094 14.441406 11.492188 14.445312 11.492188 14.449219 Z M 11.492188 14.449219 " fill-opacity="1" fill-rule="nonzero"/><path fill="#014d4e" d="M 10.957031 13.488281 C 10.90625 13.453125 10.835938 13.417969 10.769531 13.429688 C 10.636719 13.492188 10.753906 13.679688 10.859375 13.710938 C 10.910156 13.75 11 13.75 11.015625 13.671875 C 11.082031 13.613281 11.003906 13.527344 10.957031 13.488281 Z M 10.929688 13.632812 C 10.929688 13.632812 10.929688 13.636719 10.925781 13.636719 C 10.871094 13.609375 10.824219 13.585938 10.804688 13.523438 C 10.859375 13.539062 10.910156 13.5625 10.9375 13.609375 C 10.933594 13.617188 10.929688 13.621094 10.929688 13.632812 Z M 10.929688 13.632812 " fill-opacity="1" fill-rule="nonzero"/><path fill="#014d4e" d="M 10.585938 13.03125 C 10.578125 13.015625 10.5625 13.007812 10.542969 13.007812 C 10.519531 13.003906 10.492188 12.996094 10.46875 12.996094 C 10.425781 12.992188 10.390625 13.027344 10.382812 13.070312 C 10.34375 13.175781 10.460938 13.234375 10.542969 13.25 C 10.691406 13.285156 10.6875 13.085938 10.585938 13.03125 Z M 10.46875 13.109375 C 10.46875 13.105469 10.46875 13.101562 10.472656 13.097656 C 10.472656 13.09375 10.472656 13.09375 10.472656 13.089844 C 10.507812 13.09375 10.558594 13.113281 10.5625 13.152344 C 10.527344 13.144531 10.492188 13.136719 10.46875 13.109375 Z M 10.46875 13.109375 " fill-opacity="1" fill-rule="nonzero"/><path fill="#014d4e" d="M 10.109375 12.597656 C 10.042969 12.574219 9.960938 12.613281 9.945312 12.6875 C 9.941406 12.773438 10.003906 12.863281 10.078125 12.898438 C 10.132812 12.917969 10.1875 12.875 10.199219 12.820312 C 10.21875 12.75 10.175781 12.6875 10.140625 12.628906 C 10.132812 12.617188 10.125 12.601562 10.109375 12.597656 Z M 10.101562 12.800781 C 10.074219 12.777344 10.046875 12.742188 10.039062 12.703125 C 10.042969 12.691406 10.050781 12.6875 10.058594 12.6875 C 10.078125 12.726562 10.117188 12.761719 10.101562 12.800781 Z M 10.101562 12.800781 " fill-opacity="1" fill-rule="nonzero"/><path fill="#014d4e" d="M 10.078125 12.425781 C 10.070312 12.390625 10.0625 12.347656 10.035156 12.324219 C 10.007812 12.300781 9.96875 12.28125 9.9375 12.300781 C 9.910156 12.292969 9.890625 12.308594 9.875 12.328125 C 9.820312 12.40625 9.875 12.527344 9.953125 12.566406 C 10.039062 12.597656 10.101562 12.5 10.078125 12.425781 Z M 9.953125 12.386719 C 9.984375 12.386719 9.984375 12.445312 9.984375 12.46875 C 9.964844 12.449219 9.949219 12.417969 9.953125 12.386719 C 9.953125 12.390625 9.953125 12.386719 9.953125 12.386719 Z M 9.953125 12.386719 " fill-opacity="1" fill-rule="nonzero"/><path fill="#014d4e" d="M 10 9.957031 C 10.015625 9.941406 10.027344 9.902344 10.035156 9.882812 C 10.042969 9.832031 10.003906 9.777344 9.957031 9.757812 C 9.886719 9.738281 9.835938 9.808594 9.800781 9.859375 C 9.753906 9.921875 9.722656 10.023438 9.789062 10.082031 C 9.871094 10.148438 9.960938 10.019531 10 9.957031 Z M 9.847656 9.992188 C 9.855469 9.9375 9.890625 9.886719 9.929688 9.851562 C 9.933594 9.855469 9.9375 9.863281 9.941406 9.863281 C 9.933594 9.878906 9.925781 9.890625 9.921875 9.90625 C 9.894531 9.9375 9.875 9.96875 9.847656 9.992188 Z M 9.847656 9.992188 " fill-opacity="1" fill-rule="nonzero"/><path fill="#014d4e" d="M 8.933594 10.644531 C 8.828125 10.625 8.71875 10.6875 8.632812 10.746094 C 8.539062 10.8125 8.625 10.890625 8.707031 10.910156 C 8.808594 10.9375 8.90625 10.863281 8.976562 10.796875 C 9.027344 10.722656 9.042969 10.660156 8.933594 10.644531 Z M 8.75 10.820312 C 8.738281 10.820312 8.722656 10.8125 8.710938 10.8125 C 8.769531 10.777344 8.832031 10.742188 8.898438 10.738281 C 8.851562 10.773438 8.808594 10.8125 8.75 10.820312 Z M 8.75 10.820312 " fill-opacity="1" fill-rule="nonzero"/><path fill="#014d4e" d="M 8.363281 10.792969 C 8.296875 10.785156 8.234375 10.773438 8.171875 10.757812 C 8.058594 10.726562 7.929688 10.707031 7.816406 10.757812 C 7.773438 10.773438 7.75 10.8125 7.722656 10.847656 C 7.707031 10.863281 7.695312 10.886719 7.695312 10.90625 C 7.664062 10.933594 7.613281 10.945312 7.601562 10.992188 C 7.578125 11.09375 7.894531 11.160156 7.972656 11.171875 C 8.078125 11.1875 8.148438 11.085938 8.246094 11.066406 C 8.328125 11.042969 8.441406 11.0625 8.496094 10.988281 C 8.527344 10.941406 8.503906 10.871094 8.464844 10.832031 C 8.441406 10.804688 8.402344 10.792969 8.363281 10.792969 Z M 8.222656 10.976562 C 8.136719 10.984375 8.078125 11.0625 7.996094 11.078125 C 7.902344 11.070312 7.808594 11.039062 7.726562 11 C 7.78125 10.972656 7.792969 10.90625 7.835938 10.859375 C 7.902344 10.808594 8.011719 10.816406 8.085938 10.835938 C 8.160156 10.851562 8.234375 10.871094 8.3125 10.882812 C 8.355469 10.886719 8.410156 10.886719 8.414062 10.9375 C 8.355469 10.960938 8.285156 10.960938 8.222656 10.976562 Z M 8.222656 10.976562 " fill-opacity="1" fill-rule="nonzero"/><path fill="#014d4e" d="M 6.863281 9.917969 C 6.933594 9.917969 7.019531 9.902344 7.074219 9.855469 C 7.128906 9.804688 7.199219 9.707031 7.125 9.640625 C 7.101562 9.582031 6.976562 9.601562 6.933594 9.632812 C 6.875 9.679688 6.816406 9.742188 6.78125 9.8125 C 6.765625 9.867188 6.8125 9.917969 6.863281 9.917969 Z M 7.054688 9.703125 C 7.058594 9.707031 7.058594 9.710938 7.0625 9.714844 C 7.035156 9.789062 6.960938 9.820312 6.886719 9.824219 C 6.933594 9.773438 6.976562 9.691406 7.054688 9.703125 Z M 7.054688 9.703125 " fill-opacity="1" fill-rule="nonzero"/><path fill="#014d4e" d="M 7.269531 9.429688 C 7.28125 9.378906 7.289062 9.304688 7.230469 9.277344 C 7.226562 9.253906 7.203125 9.25 7.183594 9.242188 C 7.035156 9.167969 6.933594 9.449219 7.046875 9.53125 C 7.128906 9.585938 7.25 9.519531 7.269531 9.429688 Z M 7.125 9.453125 C 7.121094 9.453125 7.121094 9.453125 7.117188 9.453125 C 7.113281 9.453125 7.109375 9.453125 7.105469 9.453125 C 7.082031 9.414062 7.105469 9.355469 7.136719 9.324219 C 7.140625 9.328125 7.148438 9.332031 7.15625 9.335938 C 7.15625 9.339844 7.164062 9.339844 7.167969 9.339844 C 7.171875 9.34375 7.175781 9.351562 7.175781 9.355469 C 7.183594 9.398438 7.167969 9.441406 7.125 9.453125 Z M 7.125 9.453125 " fill-opacity="1" fill-rule="nonzero"/><path fill="#014d4e" d="M 7.128906 9.101562 C 7.300781 9.15625 7.289062 8.863281 7.167969 8.816406 C 7.15625 8.765625 7.089844 8.777344 7.050781 8.789062 C 6.914062 8.867188 7.011719 9.058594 7.128906 9.101562 Z M 7.097656 8.875 C 7.101562 8.890625 7.113281 8.902344 7.128906 8.90625 C 7.164062 8.929688 7.160156 8.976562 7.160156 9.011719 C 7.121094 8.988281 7.050781 8.917969 7.097656 8.875 Z M 7.097656 8.875 " fill-opacity="1" fill-rule="nonzero"/><path fill="#014d4e" d="M 6.589844 8.371094 C 6.59375 8.445312 6.636719 8.523438 6.683594 8.574219 C 6.71875 8.601562 6.757812 8.617188 6.789062 8.652344 C 6.816406 8.683594 6.839844 8.722656 6.882812 8.726562 C 6.925781 8.726562 6.929688 8.6875 6.941406 8.65625 C 6.976562 8.558594 6.910156 8.46875 6.839844 8.40625 C 6.800781 8.359375 6.757812 8.308594 6.699219 8.28125 C 6.648438 8.261719 6.59375 8.316406 6.589844 8.371094 Z M 6.851562 8.578125 C 6.84375 8.570312 6.835938 8.558594 6.828125 8.554688 C 6.804688 8.53125 6.769531 8.515625 6.746094 8.492188 C 6.722656 8.460938 6.707031 8.425781 6.691406 8.390625 C 6.746094 8.449219 6.820312 8.503906 6.851562 8.578125 Z M 6.851562 8.578125 " fill-opacity="1" fill-rule="nonzero"/><g clip-path="url(#afa2cf55e2)"><path fill="#014d4e" d="M 9.371094 6.339844 C 9.355469 6.113281 9.339844 5.949219 9.109375 5.84375 C 9.023438 5.789062 8.917969 5.789062 8.816406 5.765625 C 8.714844 5.730469 8.632812 5.652344 8.601562 5.546875 C 8.546875 5.429688 8.429688 5.351562 8.332031 5.269531 C 8.246094 5.171875 8.140625 5.085938 8.066406 4.976562 C 8.003906 4.894531 7.945312 4.800781 7.863281 4.746094 C 7.808594 4.707031 7.714844 4.734375 7.714844 4.8125 C 7.722656 4.882812 7.769531 4.945312 7.808594 5 C 7.882812 5.089844 7.949219 5.1875 7.996094 5.296875 C 8.011719 5.339844 8.011719 5.398438 8.03125 5.445312 C 8.0625 5.527344 8.140625 5.589844 8.230469 5.582031 C 8.242188 5.582031 8.253906 5.585938 8.265625 5.597656 C 8.300781 5.640625 8.34375 5.679688 8.363281 5.730469 C 8.375 5.800781 8.417969 5.851562 8.476562 5.886719 C 8.527344 5.925781 8.585938 5.964844 8.644531 5.984375 C 8.730469 6.011719 8.820312 5.992188 8.902344 6.03125 C 8.988281 6.085938 8.953125 6.21875 8.910156 6.296875 C 8.886719 6.363281 8.839844 6.417969 8.792969 6.46875 C 8.742188 6.539062 8.710938 6.621094 8.683594 6.699219 C 8.65625 6.792969 8.632812 6.886719 8.652344 6.984375 C 8.660156 7.03125 8.667969 7.078125 8.664062 7.125 C 8.65625 7.175781 8.628906 7.222656 8.601562 7.269531 C 8.550781 7.339844 8.496094 7.40625 8.433594 7.46875 C 8.355469 7.535156 8.257812 7.578125 8.199219 7.667969 C 8.164062 7.707031 8.140625 7.765625 8.167969 7.816406 C 8.207031 7.898438 8.304688 7.859375 8.371094 7.871094 C 8.496094 7.890625 8.453125 7.953125 8.484375 8.042969 C 8.515625 8.09375 8.570312 8.121094 8.605469 8.167969 C 8.632812 8.207031 8.660156 8.257812 8.714844 8.265625 C 8.886719 8.289062 8.890625 8.007812 8.882812 7.890625 C 8.871094 7.734375 8.859375 7.574219 8.894531 7.421875 C 8.910156 7.351562 8.941406 7.269531 8.941406 7.191406 C 8.945312 7.144531 8.945312 7.089844 8.953125 7.042969 C 8.96875 6.960938 9.035156 6.902344 9.109375 6.871094 C 9.128906 6.867188 9.148438 6.867188 9.164062 6.851562 C 9.277344 6.933594 9.445312 6.84375 9.460938 6.707031 C 9.476562 6.628906 9.425781 6.570312 9.386719 6.511719 C 9.363281 6.460938 9.371094 6.398438 9.371094 6.339844 Z M 9.242188 6.785156 C 9.21875 6.773438 9.195312 6.757812 9.167969 6.753906 C 9.128906 6.742188 9.082031 6.757812 9.058594 6.792969 C 8.882812 6.867188 8.84375 7.027344 8.847656 7.203125 C 8.832031 7.3125 8.792969 7.414062 8.785156 7.523438 C 8.769531 7.660156 8.785156 7.789062 8.789062 7.925781 C 8.792969 8.007812 8.796875 8.109375 8.738281 8.175781 C 8.71875 8.167969 8.710938 8.148438 8.699219 8.132812 C 8.664062 8.082031 8.613281 8.050781 8.574219 8.007812 C 8.5625 7.941406 8.5625 7.851562 8.492188 7.816406 C 8.421875 7.777344 8.332031 7.777344 8.253906 7.78125 C 8.28125 7.667969 8.421875 7.628906 8.5 7.546875 C 8.613281 7.429688 8.742188 7.292969 8.757812 7.125 C 8.757812 7.03125 8.722656 6.9375 8.746094 6.84375 C 8.773438 6.726562 8.8125 6.609375 8.886719 6.515625 C 9.011719 6.382812 9.128906 6.128906 8.980469 5.972656 C 8.902344 5.914062 8.796875 5.917969 8.703125 5.90625 C 8.621094 5.890625 8.550781 5.835938 8.484375 5.785156 C 8.449219 5.75 8.453125 5.691406 8.421875 5.648438 C 8.382812 5.597656 8.347656 5.539062 8.292969 5.503906 C 8.261719 5.488281 8.230469 5.488281 8.199219 5.488281 C 8.105469 5.46875 8.105469 5.359375 8.085938 5.285156 C 8.03125 5.117188 7.898438 4.992188 7.816406 4.839844 C 7.902344 4.917969 7.960938 5.023438 8.035156 5.113281 C 8.117188 5.195312 8.199219 5.28125 8.277344 5.359375 C 8.347656 5.414062 8.40625 5.46875 8.46875 5.527344 C 8.519531 5.582031 8.53125 5.671875 8.582031 5.730469 C 8.664062 5.816406 8.773438 5.875 8.886719 5.882812 C 8.992188 5.894531 9.078125 5.941406 9.164062 6 C 9.269531 6.097656 9.257812 6.265625 9.265625 6.398438 C 9.257812 6.503906 9.304688 6.585938 9.359375 6.667969 C 9.386719 6.730469 9.3125 6.8125 9.242188 6.785156 Z M 9.242188 6.785156 " fill-opacity="1" fill-rule="nonzero"/></g><path fill="#014d4e" d="M 9.558594 5.992188 C 9.414062 5.925781 9.359375 6.203125 9.390625 6.300781 C 9.40625 6.355469 9.460938 6.386719 9.511719 6.402344 C 9.609375 6.421875 9.628906 6.335938 9.617188 6.257812 C 9.609375 6.171875 9.636719 6.046875 9.558594 5.992188 Z M 9.511719 6.09375 C 9.527344 6.160156 9.515625 6.234375 9.519531 6.300781 C 9.445312 6.289062 9.484375 6.140625 9.511719 6.09375 Z M 9.511719 6.09375 " fill-opacity="1" fill-rule="nonzero"/><path fill="#014d4e" d="M 8.882812 5.582031 C 8.917969 5.601562 8.949219 5.625 8.992188 5.636719 C 9.074219 5.664062 9.199219 5.597656 9.152344 5.5 C 9.132812 5.453125 9.089844 5.417969 9.039062 5.402344 C 8.996094 5.378906 8.957031 5.332031 8.902344 5.320312 C 8.777344 5.285156 8.71875 5.398438 8.769531 5.5 C 8.792969 5.546875 8.835938 5.566406 8.882812 5.582031 Z M 8.851562 5.414062 C 8.910156 5.40625 8.949219 5.472656 9.003906 5.492188 C 9.015625 5.503906 9.023438 5.507812 9.039062 5.507812 C 9.054688 5.511719 9.058594 5.527344 9.066406 5.539062 C 9.0625 5.542969 9.054688 5.542969 9.050781 5.542969 C 8.988281 5.546875 8.929688 5.488281 8.867188 5.472656 C 8.851562 5.460938 8.84375 5.433594 8.851562 5.414062 Z M 8.851562 5.414062 " fill-opacity="1" fill-rule="nonzero"/><path fill="#014d4e" d="M 8.710938 6.234375 C 8.707031 6.195312 8.6875 6.148438 8.648438 6.140625 C 8.640625 6.136719 8.628906 6.128906 8.621094 6.128906 C 8.59375 6.105469 8.546875 6.121094 8.527344 6.148438 C 8.460938 6.230469 8.464844 6.394531 8.589844 6.402344 C 8.679688 6.402344 8.71875 6.308594 8.710938 6.234375 Z M 8.59375 6.21875 C 8.597656 6.222656 8.605469 6.222656 8.609375 6.226562 C 8.621094 6.253906 8.617188 6.289062 8.589844 6.304688 C 8.570312 6.285156 8.585938 6.246094 8.59375 6.21875 Z M 8.59375 6.21875 " fill-opacity="1" fill-rule="nonzero"/><path fill="#014d4e" d="M 7.535156 6.691406 C 7.523438 6.773438 7.589844 6.84375 7.644531 6.894531 C 7.691406 6.9375 7.773438 6.933594 7.8125 6.886719 C 7.851562 6.828125 7.839844 6.738281 7.792969 6.691406 C 7.789062 6.675781 7.777344 6.664062 7.761719 6.65625 C 7.734375 6.632812 7.703125 6.609375 7.667969 6.609375 C 7.613281 6.601562 7.546875 6.628906 7.535156 6.691406 Z M 7.734375 6.765625 C 7.742188 6.785156 7.738281 6.808594 7.742188 6.828125 C 7.734375 6.828125 7.734375 6.828125 7.726562 6.828125 C 7.722656 6.828125 7.722656 6.828125 7.71875 6.828125 C 7.6875 6.796875 7.632812 6.753906 7.636719 6.707031 C 7.660156 6.699219 7.679688 6.707031 7.695312 6.722656 C 7.703125 6.738281 7.722656 6.75 7.734375 6.765625 Z M 7.734375 6.765625 " fill-opacity="1" fill-rule="nonzero"/><path fill="#014d4e" d="M 6.773438 6.035156 C 6.839844 6.078125 6.910156 6.011719 6.90625 5.941406 C 6.933594 5.917969 6.929688 5.878906 6.929688 5.84375 C 6.914062 5.773438 6.820312 5.71875 6.753906 5.761719 C 6.671875 5.824219 6.691406 5.980469 6.773438 6.035156 Z M 6.808594 5.84375 C 6.8125 5.84375 6.816406 5.847656 6.820312 5.847656 C 6.839844 5.855469 6.832031 5.871094 6.828125 5.886719 C 6.816406 5.898438 6.804688 5.910156 6.804688 5.925781 C 6.804688 5.898438 6.785156 5.867188 6.808594 5.84375 Z M 6.808594 5.84375 " fill-opacity="1" fill-rule="nonzero"/><g clip-path="url(#f7616b6129)"><path fill="#014d4e" d="M 6.710938 4.933594 C 6.800781 4.953125 6.878906 4.894531 6.96875 4.875 C 7.082031 4.859375 7.195312 4.875 7.304688 4.902344 C 7.308594 4.902344 7.316406 4.90625 7.320312 4.90625 C 7.324219 4.914062 7.335938 4.917969 7.34375 4.921875 C 7.351562 4.933594 7.363281 4.941406 7.371094 4.949219 C 7.378906 4.953125 7.390625 4.964844 7.398438 4.96875 C 7.417969 4.984375 7.445312 4.988281 7.472656 4.988281 C 7.476562 4.988281 7.484375 4.988281 7.488281 4.988281 C 7.511719 4.988281 7.535156 4.984375 7.558594 4.976562 C 7.582031 4.96875 7.605469 4.957031 7.625 4.941406 C 7.640625 4.929688 7.660156 4.914062 7.675781 4.894531 C 7.6875 4.875 7.699219 4.851562 7.699219 4.828125 C 7.703125 4.804688 7.695312 4.78125 7.6875 4.761719 C 7.679688 4.742188 7.660156 4.726562 7.636719 4.71875 C 7.621094 4.714844 7.609375 4.710938 7.597656 4.707031 C 7.585938 4.707031 7.578125 4.703125 7.570312 4.703125 C 7.53125 4.691406 7.492188 4.691406 7.453125 4.679688 C 7.4375 4.675781 7.417969 4.671875 7.402344 4.671875 C 7.382812 4.667969 7.363281 4.671875 7.34375 4.671875 C 7.335938 4.671875 7.320312 4.671875 7.304688 4.671875 C 7.300781 4.671875 7.292969 4.671875 7.289062 4.671875 C 7.269531 4.671875 7.246094 4.671875 7.222656 4.667969 C 7.210938 4.667969 7.195312 4.664062 7.183594 4.664062 C 7.175781 4.664062 7.164062 4.664062 7.152344 4.664062 C 7.136719 4.664062 7.125 4.660156 7.113281 4.65625 C 7.097656 4.652344 7.082031 4.652344 7.066406 4.652344 C 7.058594 4.652344 7.046875 4.652344 7.035156 4.652344 C 7.027344 4.652344 7.011719 4.652344 7.003906 4.652344 C 6.988281 4.652344 6.980469 4.652344 6.96875 4.652344 C 6.953125 4.652344 6.941406 4.652344 6.929688 4.652344 C 6.90625 4.652344 6.882812 4.652344 6.859375 4.660156 C 6.839844 4.664062 6.8125 4.671875 6.789062 4.679688 C 6.78125 4.683594 6.765625 4.6875 6.757812 4.691406 C 6.746094 4.699219 6.730469 4.707031 6.71875 4.710938 C 6.710938 4.71875 6.703125 4.726562 6.699219 4.730469 C 6.6875 4.734375 6.675781 4.738281 6.671875 4.75 C 6.632812 4.800781 6.632812 4.914062 6.710938 4.933594 Z M 6.75 4.804688 C 6.753906 4.800781 6.753906 4.800781 6.753906 4.800781 C 6.761719 4.800781 6.765625 4.796875 6.769531 4.792969 C 6.777344 4.789062 6.785156 4.785156 6.789062 4.78125 C 6.796875 4.78125 6.804688 4.777344 6.8125 4.773438 C 6.835938 4.765625 6.859375 4.761719 6.878906 4.753906 C 6.902344 4.75 6.925781 4.746094 6.949219 4.746094 C 6.957031 4.746094 6.96875 4.746094 6.972656 4.746094 C 6.992188 4.746094 7.007812 4.75 7.027344 4.75 C 7.046875 4.75 7.066406 4.75 7.082031 4.75 C 7.101562 4.75 7.121094 4.757812 7.136719 4.757812 C 7.15625 4.761719 7.175781 4.757812 7.195312 4.761719 C 7.222656 4.765625 7.246094 4.765625 7.269531 4.765625 C 7.285156 4.765625 7.292969 4.769531 7.304688 4.765625 C 7.316406 4.765625 7.324219 4.765625 7.332031 4.765625 C 7.34375 4.765625 7.359375 4.765625 7.375 4.761719 C 7.378906 4.761719 7.386719 4.761719 7.394531 4.761719 C 7.398438 4.761719 7.398438 4.761719 7.402344 4.761719 C 7.425781 4.765625 7.445312 4.769531 7.46875 4.773438 C 7.488281 4.777344 7.511719 4.78125 7.527344 4.78125 C 7.542969 4.785156 7.550781 4.789062 7.566406 4.792969 C 7.582031 4.796875 7.59375 4.800781 7.609375 4.800781 C 7.609375 4.800781 7.609375 4.800781 7.609375 4.804688 C 7.609375 4.804688 7.609375 4.808594 7.609375 4.808594 C 7.609375 4.808594 7.609375 4.8125 7.609375 4.8125 C 7.605469 4.816406 7.605469 4.820312 7.601562 4.824219 C 7.601562 4.824219 7.601562 4.828125 7.601562 4.828125 C 7.601562 4.828125 7.597656 4.832031 7.597656 4.832031 C 7.589844 4.839844 7.582031 4.847656 7.574219 4.855469 C 7.570312 4.855469 7.566406 4.859375 7.5625 4.863281 C 7.558594 4.867188 7.554688 4.867188 7.550781 4.871094 C 7.546875 4.875 7.542969 4.875 7.535156 4.875 C 7.53125 4.875 7.527344 4.878906 7.527344 4.878906 C 7.515625 4.878906 7.507812 4.882812 7.496094 4.882812 C 7.488281 4.882812 7.472656 4.882812 7.464844 4.882812 C 7.460938 4.882812 7.457031 4.882812 7.453125 4.882812 C 7.453125 4.882812 7.453125 4.878906 7.449219 4.878906 C 7.429688 4.863281 7.410156 4.84375 7.390625 4.828125 C 7.378906 4.820312 7.363281 4.8125 7.351562 4.804688 C 7.34375 4.800781 7.328125 4.796875 7.320312 4.792969 C 7.3125 4.789062 7.304688 4.785156 7.292969 4.789062 C 7.289062 4.789062 7.289062 4.789062 7.289062 4.789062 C 7.238281 4.78125 7.183594 4.78125 7.15625 4.773438 C 7.074219 4.761719 6.988281 4.765625 6.910156 4.785156 C 6.855469 4.800781 6.804688 4.835938 6.746094 4.835938 C 6.746094 4.828125 6.742188 4.816406 6.75 4.804688 Z M 6.75 4.804688 " fill-opacity="1" fill-rule="nonzero"/></g><g clip-path="url(#1473a554d3)"><path fill="#014d4e" d="M 5.390625 5.804688 C 5.605469 5.757812 5.816406 5.691406 6.03125 5.65625 C 6.132812 5.640625 6.242188 5.628906 6.339844 5.65625 C 6.476562 5.679688 6.632812 5.765625 6.765625 5.683594 C 6.839844 5.636719 6.839844 5.523438 6.785156 5.457031 C 6.765625 5.425781 6.730469 5.398438 6.710938 5.363281 C 6.6875 5.328125 6.707031 5.28125 6.683594 5.242188 C 6.65625 5.171875 6.558594 5.136719 6.492188 5.175781 C 6.453125 5.199219 6.433594 5.242188 6.398438 5.265625 C 6.355469 5.285156 6.300781 5.285156 6.25 5.296875 C 6.160156 5.324219 6.070312 5.335938 5.980469 5.332031 C 5.871094 5.351562 5.777344 5.320312 5.671875 5.285156 C 5.609375 5.257812 5.527344 5.273438 5.492188 5.339844 C 5.476562 5.371094 5.472656 5.421875 5.425781 5.425781 C 5.238281 5.425781 5.074219 5.3125 4.886719 5.28125 C 4.867188 5.273438 4.832031 5.269531 4.8125 5.253906 C 4.792969 5.191406 4.773438 5.125 4.726562 5.074219 C 4.691406 5.027344 4.613281 5 4.570312 5.046875 C 4.550781 5.066406 4.542969 5.089844 4.535156 5.113281 C 4.515625 5.148438 4.484375 5.175781 4.472656 5.214844 C 4.421875 5.335938 4.472656 5.375 4.535156 5.464844 C 4.550781 5.519531 4.398438 5.65625 4.34375 5.644531 C 4.277344 5.636719 4.203125 5.675781 4.199219 5.746094 C 4.203125 5.796875 4.164062 5.824219 4.121094 5.839844 C 4.105469 5.824219 4.085938 5.828125 4.066406 5.835938 C 4.023438 5.808594 4.039062 5.75 4.011719 5.714844 C 3.960938 5.601562 3.816406 5.609375 3.730469 5.546875 C 3.679688 5.472656 3.617188 5.425781 3.542969 5.378906 C 3.519531 5.367188 3.492188 5.351562 3.464844 5.355469 C 3.386719 5.363281 3.417969 5.515625 3.445312 5.5625 C 3.511719 5.65625 3.617188 5.738281 3.695312 5.839844 C 3.796875 5.96875 3.902344 6.121094 4.058594 6.183594 C 4.121094 6.214844 4.179688 6.253906 4.253906 6.253906 C 4.476562 6.214844 4.613281 6.011719 4.808594 5.914062 C 4.992188 5.820312 5.199219 5.84375 5.390625 5.804688 Z M 4.257812 6.140625 C 4.171875 6.140625 4.101562 6.082031 4.019531 6.042969 C 3.917969 5.96875 3.84375 5.859375 3.765625 5.761719 C 3.730469 5.722656 3.695312 5.6875 3.664062 5.644531 C 3.617188 5.589844 3.542969 5.546875 3.519531 5.472656 C 3.550781 5.492188 3.585938 5.507812 3.613281 5.542969 C 3.640625 5.574219 3.660156 5.609375 3.695312 5.632812 C 3.765625 5.667969 3.84375 5.683594 3.90625 5.722656 C 3.945312 5.75 3.9375 5.804688 3.957031 5.84375 C 3.972656 5.878906 4.007812 5.90625 4.042969 5.921875 C 4.054688 5.957031 4.105469 5.964844 4.125 5.9375 C 4.222656 5.902344 4.300781 5.851562 4.300781 5.738281 C 4.332031 5.722656 4.371094 5.742188 4.40625 5.726562 C 4.476562 5.703125 4.527344 5.648438 4.574219 5.597656 C 4.597656 5.566406 4.625 5.535156 4.632812 5.496094 C 4.640625 5.464844 4.632812 5.425781 4.617188 5.398438 C 4.59375 5.359375 4.535156 5.324219 4.554688 5.273438 C 4.566406 5.210938 4.621094 5.171875 4.640625 5.117188 C 4.730469 5.171875 4.695312 5.332031 4.8125 5.355469 C 4.976562 5.378906 5.117188 5.460938 5.277344 5.492188 C 5.417969 5.527344 5.53125 5.542969 5.585938 5.378906 C 5.59375 5.371094 5.597656 5.363281 5.605469 5.359375 C 5.609375 5.359375 5.609375 5.359375 5.613281 5.359375 C 5.695312 5.378906 5.769531 5.410156 5.855469 5.425781 C 5.90625 5.433594 5.953125 5.425781 6.003906 5.421875 C 6.078125 5.421875 6.152344 5.421875 6.222656 5.398438 C 6.308594 5.367188 6.417969 5.390625 6.488281 5.320312 C 6.511719 5.300781 6.523438 5.265625 6.554688 5.25 C 6.609375 5.246094 6.605469 5.308594 6.609375 5.347656 C 6.613281 5.375 6.621094 5.398438 6.636719 5.417969 C 6.667969 5.472656 6.761719 5.527344 6.726562 5.597656 C 6.621094 5.675781 6.394531 5.539062 6.265625 5.546875 C 5.953125 5.539062 5.660156 5.652344 5.359375 5.714844 C 5.007812 5.75 4.824219 5.726562 4.539062 5.984375 C 4.449219 6.046875 4.367188 6.121094 4.257812 6.140625 Z M 4.257812 6.140625 " fill-opacity="1" fill-rule="nonzero"/></g><g clip-path="url(#cb0614dcd9)"><path fill="#014d4e" d="M 5.734375 4.707031 C 5.816406 4.726562 5.835938 4.632812 5.84375 4.570312 C 5.859375 4.53125 5.898438 4.503906 5.902344 4.460938 C 5.90625 4.433594 5.902344 4.410156 5.890625 4.386719 C 5.855469 4.328125 5.777344 4.335938 5.722656 4.363281 C 5.667969 4.398438 5.628906 4.464844 5.59375 4.523438 C 5.578125 4.554688 5.570312 4.597656 5.597656 4.628906 C 5.636719 4.660156 5.679688 4.699219 5.734375 4.707031 Z M 5.804688 4.4375 C 5.804688 4.464844 5.769531 4.484375 5.761719 4.515625 C 5.742188 4.542969 5.742188 4.578125 5.734375 4.605469 C 5.71875 4.597656 5.703125 4.589844 5.6875 4.578125 C 5.6875 4.574219 5.6875 4.570312 5.683594 4.570312 C 5.683594 4.570312 5.679688 4.566406 5.679688 4.566406 C 5.707031 4.515625 5.742188 4.445312 5.804688 4.4375 Z M 5.804688 4.4375 " fill-opacity="1" fill-rule="nonzero"/></g><path fill="#014d4e" d="M 6.714844 13.210938 C 6.78125 13.179688 6.828125 13.125 6.878906 13.074219 C 6.964844 13.046875 7.0625 13.03125 7.125 12.964844 C 7.148438 12.933594 7.15625 12.894531 7.175781 12.867188 C 7.222656 12.796875 7.175781 12.726562 7.132812 12.671875 C 7.105469 12.632812 7.121094 12.578125 7.109375 12.53125 C 7.105469 12.476562 7.136719 12.429688 7.148438 12.378906 C 7.269531 12.003906 6.929688 11.835938 6.691406 11.621094 C 6.609375 11.5 6.65625 11.335938 6.570312 11.21875 C 6.546875 11.179688 6.523438 11.148438 6.484375 11.128906 C 6.433594 11.105469 6.394531 11.066406 6.40625 11.007812 C 6.417969 10.945312 6.417969 10.886719 6.402344 10.828125 C 6.394531 10.722656 6.355469 10.617188 6.316406 10.523438 C 6.308594 10.441406 6.28125 10.398438 6.195312 10.394531 C 6.132812 10.386719 6.074219 10.425781 6.015625 10.445312 C 5.949219 10.484375 5.917969 10.453125 5.871094 10.402344 C 5.820312 10.359375 5.753906 10.347656 5.691406 10.351562 C 5.578125 10.339844 5.5 10.429688 5.507812 10.539062 C 5.519531 10.644531 5.605469 10.726562 5.667969 10.8125 C 5.746094 10.914062 5.667969 11.042969 5.625 11.148438 C 5.601562 11.203125 5.632812 11.238281 5.625 11.292969 C 5.601562 11.355469 5.582031 11.425781 5.542969 11.484375 C 5.472656 11.574219 5.324219 11.613281 5.363281 11.753906 C 5.269531 11.742188 5.203125 11.828125 5.164062 11.902344 C 5.148438 11.925781 5.121094 11.941406 5.101562 11.964844 C 5.066406 12 5.0625 12.039062 5.035156 12.089844 C 5.023438 12.113281 5 12.117188 4.980469 12.128906 C 4.90625 12.171875 4.832031 12.222656 4.777344 12.289062 C 4.742188 12.347656 4.761719 12.433594 4.820312 12.46875 C 4.875 12.507812 4.953125 12.492188 5.003906 12.535156 C 5.0625 12.667969 5.203125 12.742188 5.332031 12.785156 C 5.402344 12.804688 5.460938 12.859375 5.535156 12.859375 C 5.601562 12.875 5.648438 12.816406 5.6875 12.769531 C 5.734375 12.726562 5.78125 12.667969 5.835938 12.628906 C 5.847656 12.640625 5.863281 12.640625 5.878906 12.636719 C 5.878906 12.640625 5.882812 12.644531 5.882812 12.652344 C 5.882812 12.652344 5.882812 12.65625 5.882812 12.65625 C 5.882812 12.65625 5.882812 12.65625 5.882812 12.660156 C 5.882812 12.664062 5.882812 12.664062 5.878906 12.667969 C 5.878906 12.667969 5.878906 12.671875 5.875 12.671875 C 5.871094 12.671875 5.871094 12.675781 5.871094 12.679688 C 5.867188 12.6875 5.859375 12.691406 5.855469 12.695312 C 5.839844 12.710938 5.824219 12.726562 5.804688 12.742188 C 5.785156 12.757812 5.769531 12.777344 5.753906 12.796875 C 5.746094 12.804688 5.738281 12.8125 5.730469 12.820312 C 5.722656 12.832031 5.71875 12.839844 5.714844 12.851562 C 5.707031 12.871094 5.699219 12.890625 5.695312 12.910156 C 5.691406 12.9375 5.699219 12.964844 5.707031 12.988281 C 5.71875 13.011719 5.726562 13.035156 5.742188 13.054688 C 5.753906 13.074219 5.769531 13.089844 5.785156 13.105469 C 5.804688 13.125 5.824219 13.144531 5.847656 13.15625 C 5.855469 13.160156 5.859375 13.160156 5.867188 13.160156 C 5.871094 13.160156 5.871094 13.160156 5.871094 13.160156 C 5.902344 13.1875 5.949219 13.15625 5.980469 13.136719 C 6.019531 13.113281 6.054688 13.089844 6.082031 13.058594 C 6.148438 12.988281 6.175781 12.890625 6.15625 12.800781 C 6.148438 12.738281 6.113281 12.679688 6.128906 12.617188 C 6.195312 12.523438 6.304688 12.472656 6.414062 12.4375 C 6.472656 12.492188 6.359375 12.515625 6.324219 12.542969 C 6.28125 12.558594 6.246094 12.597656 6.230469 12.640625 C 6.21875 12.679688 6.21875 12.71875 6.222656 12.761719 C 6.226562 12.800781 6.207031 12.839844 6.21875 12.878906 C 6.246094 12.984375 6.265625 13.035156 6.15625 13.097656 C 6.121094 13.117188 6.078125 13.113281 6.039062 13.128906 C 5.917969 13.179688 5.917969 13.304688 6.003906 13.394531 C 6.058594 13.445312 6.136719 13.472656 6.207031 13.480469 C 6.300781 13.492188 6.359375 13.40625 6.429688 13.359375 C 6.535156 13.300781 6.632812 13.269531 6.714844 13.210938 Z M 6.265625 13.367188 C 6.207031 13.382812 6.132812 13.351562 6.089844 13.316406 C 6.070312 13.289062 6.039062 13.253906 6.070312 13.226562 C 6.097656 13.195312 6.144531 13.203125 6.183594 13.191406 C 6.226562 13.175781 6.257812 13.148438 6.289062 13.121094 C 6.375 13.0625 6.355469 12.953125 6.332031 12.859375 C 6.324219 12.832031 6.339844 12.800781 6.339844 12.769531 C 6.339844 12.730469 6.328125 12.691406 6.34375 12.65625 C 6.386719 12.59375 6.492188 12.597656 6.53125 12.523438 C 6.570312 12.457031 6.527344 12.355469 6.449219 12.335938 C 6.375 12.332031 6.308594 12.382812 6.242188 12.40625 C 6.171875 12.453125 6.089844 12.503906 6.054688 12.585938 C 6.027344 12.671875 6.070312 12.746094 6.082031 12.832031 C 6.097656 12.949219 6.003906 13.027344 5.910156 13.070312 C 5.90625 13.066406 5.90625 13.066406 5.902344 13.066406 C 5.902344 13.066406 5.898438 13.0625 5.898438 13.0625 C 5.894531 13.0625 5.890625 13.058594 5.886719 13.054688 C 5.871094 13.042969 5.855469 13.027344 5.84375 13.011719 C 5.839844 13.007812 5.835938 13 5.832031 12.992188 C 5.828125 12.988281 5.824219 12.980469 5.820312 12.972656 C 5.816406 12.960938 5.8125 12.949219 5.808594 12.9375 C 5.808594 12.933594 5.804688 12.933594 5.804688 12.929688 C 5.804688 12.929688 5.804688 12.925781 5.804688 12.925781 C 5.808594 12.914062 5.8125 12.90625 5.816406 12.894531 C 5.816406 12.890625 5.820312 12.882812 5.820312 12.878906 C 5.820312 12.878906 5.820312 12.878906 5.824219 12.878906 C 5.835938 12.863281 5.84375 12.855469 5.855469 12.84375 C 5.871094 12.824219 5.890625 12.808594 5.910156 12.792969 C 5.933594 12.769531 5.957031 12.746094 5.972656 12.71875 C 5.984375 12.691406 5.992188 12.660156 5.984375 12.632812 C 5.976562 12.609375 5.964844 12.585938 5.949219 12.566406 C 5.933594 12.550781 5.910156 12.542969 5.890625 12.542969 C 5.882812 12.542969 5.875 12.542969 5.867188 12.542969 C 5.84375 12.539062 5.816406 12.542969 5.796875 12.554688 C 5.710938 12.605469 5.65625 12.691406 5.585938 12.757812 C 5.53125 12.8125 5.457031 12.726562 5.398438 12.710938 C 5.296875 12.671875 5.183594 12.636719 5.117188 12.542969 C 5.097656 12.503906 5.082031 12.46875 5.046875 12.449219 C 4.996094 12.417969 4.925781 12.425781 4.871094 12.394531 C 4.832031 12.347656 4.90625 12.316406 4.9375 12.285156 C 4.980469 12.242188 5.050781 12.222656 5.097656 12.183594 C 5.132812 12.144531 5.144531 12.097656 5.164062 12.054688 C 5.183594 12.03125 5.207031 12.015625 5.226562 11.996094 C 5.289062 11.929688 5.28125 11.855469 5.394531 11.863281 C 5.464844 11.851562 5.46875 11.769531 5.457031 11.714844 C 5.484375 11.671875 5.535156 11.644531 5.574219 11.613281 C 5.644531 11.554688 5.671875 11.46875 5.703125 11.390625 C 5.71875 11.351562 5.734375 11.308594 5.726562 11.265625 C 5.722656 11.242188 5.710938 11.222656 5.71875 11.199219 C 5.785156 11.058594 5.855469 10.882812 5.734375 10.75 C 5.6875 10.683594 5.53125 10.527344 5.648438 10.46875 C 5.6875 10.460938 5.734375 10.460938 5.777344 10.476562 C 5.808594 10.492188 5.832031 10.519531 5.859375 10.542969 C 5.984375 10.644531 6.09375 10.484375 6.210938 10.511719 C 6.222656 10.605469 6.285156 10.6875 6.300781 10.785156 C 6.300781 10.828125 6.316406 10.882812 6.320312 10.925781 C 6.316406 10.988281 6.296875 11.054688 6.320312 11.113281 C 6.339844 11.179688 6.398438 11.207031 6.449219 11.238281 C 6.542969 11.328125 6.523438 11.46875 6.5625 11.585938 C 6.582031 11.695312 6.675781 11.757812 6.757812 11.824219 C 6.859375 11.90625 6.964844 11.996094 7.046875 12.105469 C 7.082031 12.183594 7.082031 12.277344 7.0625 12.359375 C 7.039062 12.445312 7.003906 12.527344 7.019531 12.617188 C 7.023438 12.652344 7.019531 12.699219 7.042969 12.734375 C 7.058594 12.765625 7.085938 12.789062 7.101562 12.820312 C 7.097656 12.859375 7.066406 12.890625 7.058594 12.925781 C 6.996094 12.984375 6.90625 12.984375 6.835938 13.015625 C 6.796875 13.042969 6.769531 13.082031 6.734375 13.113281 C 6.648438 13.183594 6.542969 13.21875 6.445312 13.269531 C 6.371094 13.269531 6.324219 13.328125 6.265625 13.367188 Z M 6.265625 13.367188 " fill-opacity="1" fill-rule="nonzero"/><path fill="#014d4e" d="M 7.25 13.28125 C 7.304688 13.269531 7.363281 13.25 7.378906 13.195312 C 7.394531 13.105469 7.328125 12.953125 7.222656 12.972656 C 7.179688 12.984375 7.152344 13.023438 7.117188 13.046875 C 7.0625 13.074219 7.019531 13.101562 6.980469 13.140625 C 6.933594 13.175781 6.851562 13.257812 6.9375 13.292969 C 6.953125 13.304688 6.96875 13.308594 6.984375 13.3125 C 7.015625 13.320312 7.046875 13.328125 7.078125 13.332031 C 7.144531 13.347656 7.199219 13.308594 7.25 13.28125 Z M 7.242188 13.066406 C 7.261719 13.085938 7.300781 13.15625 7.273438 13.175781 C 7.25 13.179688 7.230469 13.183594 7.207031 13.195312 C 7.171875 13.207031 7.144531 13.238281 7.105469 13.238281 C 7.082031 13.238281 7.054688 13.230469 7.03125 13.226562 C 7.09375 13.15625 7.175781 13.128906 7.242188 13.066406 Z M 7.242188 13.066406 " fill-opacity="1" fill-rule="nonzero"/><path fill="#014d4e" d="M 6.960938 13.359375 C 6.878906 13.339844 6.785156 13.328125 6.707031 13.363281 C 6.617188 13.402344 6.566406 13.527344 6.683594 13.566406 C 6.734375 13.585938 6.785156 13.558594 6.835938 13.554688 C 6.914062 13.558594 7.046875 13.527344 7.019531 13.425781 C 7.027344 13.390625 6.996094 13.359375 6.960938 13.359375 Z M 6.855469 13.457031 C 6.808594 13.453125 6.765625 13.472656 6.71875 13.476562 C 6.71875 13.476562 6.714844 13.476562 6.714844 13.476562 C 6.765625 13.421875 6.851562 13.433594 6.914062 13.453125 C 6.894531 13.453125 6.878906 13.457031 6.855469 13.457031 Z M 6.855469 13.457031 " fill-opacity="1" fill-rule="nonzero"/><path fill="#014d4e" d="M 6.746094 13.621094 C 6.707031 13.574219 6.625 13.589844 6.570312 13.601562 C 6.519531 13.601562 6.464844 13.609375 6.414062 13.632812 C 6.316406 13.671875 6.253906 13.859375 6.390625 13.886719 C 6.480469 13.914062 6.558594 13.835938 6.636719 13.804688 C 6.703125 13.78125 6.84375 13.695312 6.746094 13.621094 Z M 6.40625 13.789062 C 6.410156 13.722656 6.480469 13.707031 6.539062 13.699219 C 6.582031 13.703125 6.617188 13.6875 6.65625 13.683594 C 6.582031 13.714844 6.507812 13.769531 6.429688 13.792969 C 6.417969 13.796875 6.414062 13.792969 6.40625 13.789062 Z M 6.40625 13.789062 " fill-opacity="1" fill-rule="nonzero"/><path fill="#014d4e" d="M 7.273438 14.0625 C 7.3125 14.007812 7.320312 13.9375 7.359375 13.882812 C 7.417969 13.816406 7.496094 13.757812 7.511719 13.664062 C 7.527344 13.578125 7.492188 13.472656 7.417969 13.425781 C 7.332031 13.375 7.226562 13.417969 7.148438 13.457031 C 7.109375 13.480469 7.078125 13.515625 7.046875 13.546875 C 7.003906 13.574219 6.953125 13.59375 6.917969 13.628906 C 6.878906 13.660156 6.867188 13.707031 6.855469 13.75 C 6.824219 13.789062 6.78125 13.808594 6.738281 13.832031 C 6.691406 13.859375 6.636719 13.855469 6.585938 13.878906 C 6.542969 13.90625 6.511719 13.960938 6.535156 14.011719 C 6.523438 14.070312 6.527344 14.132812 6.585938 14.160156 C 6.644531 14.191406 6.6875 14.261719 6.761719 14.253906 C 6.777344 14.253906 6.792969 14.253906 6.804688 14.242188 C 6.953125 14.1875 7.164062 14.21875 7.273438 14.0625 Z M 6.734375 14.152344 C 6.691406 14.125 6.65625 14.089844 6.613281 14.066406 C 6.617188 14.035156 6.625 14.007812 6.613281 13.976562 C 6.636719 13.941406 6.6875 13.957031 6.722656 13.9375 C 6.789062 13.910156 6.859375 13.875 6.910156 13.824219 C 6.933594 13.792969 6.941406 13.757812 6.953125 13.722656 C 6.972656 13.695312 7.003906 13.675781 7.027344 13.660156 C 7.113281 13.625 7.15625 13.535156 7.25 13.515625 C 7.277344 13.511719 7.324219 13.488281 7.355469 13.503906 C 7.417969 13.539062 7.429688 13.625 7.398438 13.6875 C 7.367188 13.746094 7.308594 13.78125 7.273438 13.832031 C 7.230469 13.890625 7.230469 13.972656 7.179688 14.027344 C 7.058594 14.128906 6.878906 14.097656 6.734375 14.152344 Z M 6.734375 14.152344 " fill-opacity="1" fill-rule="nonzero"/><path fill="#014d4e" d="M 7.820312 14.476562 C 7.800781 14.378906 7.839844 14.285156 7.855469 14.1875 C 7.863281 14.144531 7.84375 14.105469 7.835938 14.066406 C 7.832031 14.011719 7.824219 13.960938 7.800781 13.910156 C 7.753906 13.722656 7.648438 13.640625 7.5 13.804688 C 7.449219 13.855469 7.402344 13.914062 7.382812 13.984375 C 7.351562 14.046875 7.335938 14.125 7.28125 14.164062 C 7.257812 14.179688 7.242188 14.203125 7.214844 14.21875 C 7.15625 14.253906 7.078125 14.253906 7.007812 14.265625 C 6.898438 14.265625 6.796875 14.371094 6.785156 14.480469 C 6.765625 14.617188 6.886719 14.726562 6.886719 14.859375 C 6.878906 15.003906 6.921875 15.164062 7.035156 15.261719 C 7.136719 15.34375 7.230469 15.441406 7.363281 15.464844 C 7.40625 15.472656 7.441406 15.453125 7.472656 15.425781 C 7.519531 15.398438 7.5625 15.367188 7.601562 15.332031 C 7.789062 15.253906 7.878906 15.035156 7.902344 14.847656 C 7.90625 14.773438 7.882812 14.703125 7.875 14.632812 C 7.863281 14.578125 7.828125 14.535156 7.820312 14.476562 Z M 7.683594 15.15625 C 7.644531 15.199219 7.605469 15.222656 7.550781 15.25 C 7.496094 15.292969 7.445312 15.332031 7.386719 15.371094 C 7.300781 15.351562 7.230469 15.296875 7.167969 15.242188 C 7.082031 15.183594 7.019531 15.109375 6.996094 15.007812 C 6.976562 14.949219 6.988281 14.886719 6.984375 14.832031 C 6.972656 14.726562 6.90625 14.636719 6.882812 14.535156 C 6.878906 14.5 6.878906 14.460938 6.90625 14.429688 C 6.929688 14.402344 6.953125 14.367188 6.988281 14.367188 C 7.128906 14.355469 7.226562 14.332031 7.300781 14.277344 C 7.3125 14.273438 7.324219 14.265625 7.328125 14.253906 C 7.398438 14.195312 7.445312 14.105469 7.492188 13.972656 C 7.527344 13.90625 7.582031 13.847656 7.640625 13.808594 C 7.695312 13.851562 7.699219 13.925781 7.722656 13.984375 C 7.734375 14.015625 7.734375 14.050781 7.738281 14.085938 C 7.746094 14.117188 7.761719 14.148438 7.753906 14.179688 C 7.722656 14.292969 7.695312 14.410156 7.730469 14.523438 C 7.742188 14.570312 7.761719 14.601562 7.777344 14.644531 C 7.789062 14.699219 7.800781 14.761719 7.808594 14.820312 C 7.804688 14.941406 7.753906 15.054688 7.683594 15.15625 Z M 7.683594 15.15625 " fill-opacity="1" fill-rule="nonzero"/></svg>