<svg xmlns="http://www.w3.org/2000/svg" xmlns:xlink="http://www.w3.org/1999/xlink" width="40" zoomAndPan="magnify" viewBox="0 0 30 30.000001" height="40" preserveAspectRatio="xMidYMid meet" version="1.0"><defs><clipPath id="3a8f0fa380"><path d="M 3.386719 8.78125 L 26.613281 8.78125 L 26.613281 20.394531 L 3.386719 20.394531 Z M 3.386719 8.78125 " clip-rule="nonzero"/></clipPath></defs><g clip-path="url(#3a8f0fa380)"><path fill="#014d4e" d="M 17.101562 19.777344 C 16.867188 19.753906 16.542969 19.757812 16.242188 19.679688 C 15.929688 19.605469 15.644531 19.441406 15.367188 19.28125 C 15.210938 19.195312 15.0625 19.097656 14.914062 18.996094 C 14.691406 18.84375 14.453125 18.863281 14.285156 19.042969 C 14.171875 19.160156 14.03125 19.207031 13.867188 19.191406 C 13.726562 19.179688 13.589844 19.191406 13.46875 19.285156 C 13.425781 19.320312 13.378906 19.351562 13.367188 19.40625 C 13.269531 19.847656 12.945312 19.960938 12.554688 19.976562 C 12.230469 19.988281 11.914062 20.027344 11.601562 20.117188 C 11.433594 20.164062 11.273438 20.121094 11.117188 20.0625 C 11.042969 20.035156 11.007812 20.042969 10.992188 20.121094 C 10.972656 20.238281 10.914062 20.246094 10.796875 20.246094 C 10.527344 20.246094 10.277344 20.195312 10.03125 20.089844 C 9.941406 20.050781 9.84375 20.058594 9.75 20.101562 C 9.6875 20.128906 9.625 20.15625 9.554688 20.15625 C 9.417969 20.15625 9.382812 20.097656 9.445312 19.976562 C 9.519531 19.835938 9.515625 19.789062 9.378906 19.707031 C 9.117188 19.550781 8.832031 19.496094 8.535156 19.554688 C 8.355469 19.59375 8.214844 19.523438 8.066406 19.445312 C 8.039062 19.429688 8.003906 19.414062 7.980469 19.390625 C 7.757812 19.171875 7.488281 19.199219 7.214844 19.246094 C 7.175781 19.253906 7.140625 19.273438 7.113281 19.300781 C 6.972656 19.4375 6.796875 19.46875 6.613281 19.472656 C 6.433594 19.476562 6.257812 19.480469 6.082031 19.441406 C 5.945312 19.40625 5.855469 19.335938 5.808594 19.203125 C 5.726562 18.972656 5.5625 18.824219 5.335938 18.738281 C 5.253906 18.703125 5.175781 18.703125 5.089844 18.738281 C 4.882812 18.824219 4.769531 18.753906 4.769531 18.53125 C 4.769531 18.433594 4.71875 18.367188 4.644531 18.324219 C 4.574219 18.285156 4.507812 18.332031 4.445312 18.375 C 4.421875 18.390625 4.402344 18.410156 4.378906 18.429688 C 4.34375 18.460938 4.328125 18.53125 4.28125 18.515625 C 4.230469 18.5 4.242188 18.429688 4.238281 18.382812 C 4.214844 18.226562 4.203125 18.070312 4.210938 17.914062 C 4.226562 17.640625 4.109375 17.453125 3.851562 17.351562 C 3.734375 17.304688 3.621094 17.246094 3.507812 17.1875 C 3.464844 17.164062 3.417969 17.140625 3.4375 17.082031 C 3.519531 16.792969 3.625 16.523438 3.925781 16.390625 C 4.019531 16.351562 4.128906 16.335938 4.230469 16.3125 C 4.375 16.277344 4.480469 16.214844 4.523438 16.054688 C 4.570312 15.878906 4.824219 15.816406 5.003906 15.929688 C 5.0625 15.96875 5.109375 15.988281 5.175781 15.941406 C 5.230469 15.902344 5.242188 15.867188 5.203125 15.808594 C 5.101562 15.65625 5.039062 15.484375 4.980469 15.3125 C 4.917969 15.132812 4.980469 14.984375 5.078125 14.847656 C 5.117188 14.792969 5.144531 14.753906 5.113281 14.683594 C 5.074219 14.597656 5.105469 14.527344 5.1875 14.480469 C 5.25 14.445312 5.296875 14.40625 5.304688 14.324219 C 5.308594 14.277344 5.34375 14.226562 5.382812 14.214844 C 5.496094 14.183594 5.535156 14.082031 5.605469 14.007812 C 5.71875 13.890625 5.859375 13.824219 6.027344 13.871094 C 6.101562 13.890625 6.140625 13.871094 6.183594 13.808594 C 6.375 13.539062 6.574219 13.277344 6.714844 12.976562 C 6.738281 12.921875 6.773438 12.867188 6.773438 12.808594 C 6.789062 12.601562 6.933594 12.503906 7.097656 12.449219 C 7.492188 12.316406 7.753906 12.046875 7.953125 11.695312 C 8.0625 11.496094 8.183594 11.308594 8.304688 11.121094 C 8.390625 10.980469 8.496094 10.867188 8.660156 10.8125 C 8.800781 10.769531 8.890625 10.652344 8.972656 10.539062 C 9.128906 10.320312 9.34375 10.238281 9.597656 10.207031 C 9.835938 10.175781 10.078125 10.148438 10.308594 10.078125 C 10.445312 10.035156 10.539062 9.953125 10.589844 9.824219 C 10.636719 9.710938 10.71875 9.640625 10.824219 9.585938 C 10.949219 9.523438 11.054688 9.445312 11.132812 9.328125 C 11.183594 9.257812 11.246094 9.203125 11.34375 9.210938 C 11.378906 9.214844 11.417969 9.191406 11.449219 9.171875 C 11.546875 9.109375 11.644531 9.105469 11.753906 9.128906 C 11.902344 9.164062 12.027344 9.058594 12.167969 9.042969 C 12.25 9.03125 12.332031 9.003906 12.410156 8.972656 C 12.652344 8.867188 12.882812 8.914062 13.109375 9.007812 C 13.25 9.0625 13.363281 9.058594 13.476562 8.9375 C 13.625 8.78125 13.800781 8.792969 13.949219 8.953125 C 13.992188 9 13.980469 9.058594 13.976562 9.109375 C 13.972656 9.277344 14.082031 9.378906 14.195312 9.460938 C 14.316406 9.550781 14.429688 9.503906 14.503906 9.371094 C 14.605469 9.203125 14.726562 9.167969 14.90625 9.253906 C 14.96875 9.289062 15.03125 9.332031 15.105469 9.324219 C 15.253906 9.304688 15.382812 9.355469 15.492188 9.449219 C 15.589844 9.535156 15.707031 9.566406 15.828125 9.570312 C 15.933594 9.574219 16.027344 9.609375 16.125 9.636719 C 16.191406 9.65625 16.226562 9.699219 16.253906 9.761719 C 16.296875 9.871094 16.28125 9.941406 16.15625 9.964844 C 16.070312 9.984375 16.042969 10.0625 16.003906 10.125 C 15.972656 10.179688 15.9375 10.226562 15.867188 10.222656 C 15.601562 10.222656 15.480469 10.5 15.472656 10.710938 C 15.46875 10.761719 15.496094 10.769531 15.535156 10.765625 C 15.722656 10.757812 15.902344 10.808594 16.089844 10.8125 C 16.242188 10.8125 16.402344 10.792969 16.542969 10.71875 C 16.695312 10.636719 16.839844 10.640625 16.984375 10.738281 C 17.207031 10.886719 17.460938 10.933594 17.71875 10.949219 C 17.9375 10.960938 18.152344 10.980469 18.359375 11.035156 C 18.539062 11.085938 18.667969 11.226562 18.808594 11.335938 C 19.070312 11.542969 19.359375 11.5625 19.660156 11.464844 C 19.75 11.4375 19.820312 11.355469 19.878906 11.28125 C 19.976562 11.152344 20.089844 11.046875 20.195312 10.933594 C 20.3125 10.804688 20.453125 10.75 20.628906 10.765625 C 20.757812 10.777344 20.890625 10.800781 20.996094 10.683594 C 21.039062 10.640625 21.066406 10.679688 21.09375 10.71875 C 21.378906 11.171875 21.839844 11.320312 22.332031 11.371094 C 22.523438 11.394531 22.691406 11.496094 22.882812 11.5 C 23.023438 11.503906 23.160156 11.535156 23.289062 11.597656 C 23.535156 11.710938 23.589844 11.863281 23.460938 12.101562 C 23.375 12.257812 23.367188 12.421875 23.382812 12.59375 C 23.394531 12.703125 23.40625 12.8125 23.40625 12.921875 C 23.40625 13.097656 23.375 13.261719 23.246094 13.402344 C 23.15625 13.496094 23.039062 13.589844 23.035156 13.738281 C 23.023438 14.0625 23.054688 14.371094 23.34375 14.585938 C 23.367188 14.605469 23.398438 14.621094 23.40625 14.644531 C 23.496094 14.839844 23.667969 14.890625 23.859375 14.921875 C 24.023438 14.945312 24.152344 15.035156 24.183594 15.214844 C 24.195312 15.273438 24.230469 15.28125 24.285156 15.277344 C 24.453125 15.265625 24.609375 15.203125 24.765625 15.15625 C 24.9375 15.097656 25.105469 15.058594 25.289062 15.085938 C 25.402344 15.101562 25.492188 15.042969 25.578125 14.984375 C 25.730469 14.878906 25.757812 14.882812 25.875 15.023438 C 25.933594 15.09375 25.980469 15.175781 26.027344 15.257812 C 26.183594 15.507812 26.335938 15.761719 26.488281 16.015625 C 26.570312 16.15625 26.558594 16.238281 26.425781 16.332031 C 26.277344 16.4375 26.152344 16.554688 26.132812 16.753906 C 26.128906 16.8125 26.074219 16.855469 26.035156 16.898438 C 25.789062 17.152344 25.792969 17.558594 26.066406 17.773438 C 26.324219 17.972656 26.441406 18.238281 26.496094 18.539062 C 26.546875 18.824219 26.351562 19.152344 26.019531 19.203125 C 25.796875 19.234375 25.617188 19.210938 25.460938 19.050781 C 25.421875 19.015625 25.375 18.996094 25.324219 18.984375 C 25.257812 18.96875 25.203125 18.976562 25.21875 19.070312 C 25.222656 19.097656 25.226562 19.144531 25.214844 19.152344 C 25.105469 19.214844 25.125 19.296875 25.152344 19.390625 C 25.167969 19.441406 25.136719 19.496094 25.085938 19.515625 C 25.027344 19.535156 24.976562 19.519531 24.941406 19.46875 C 24.921875 19.441406 24.902344 19.410156 24.894531 19.378906 C 24.824219 19.15625 24.695312 19.101562 24.484375 19.207031 C 24.402344 19.25 24.324219 19.292969 24.25 19.339844 C 23.925781 19.554688 23.578125 19.628906 23.203125 19.496094 C 23.074219 19.449219 22.960938 19.5 22.84375 19.53125 C 22.621094 19.597656 22.574219 19.578125 22.46875 19.375 C 22.464844 19.367188 22.460938 19.359375 22.457031 19.351562 C 22.3125 19.074219 22.199219 19.015625 21.890625 19.070312 C 21.753906 19.089844 21.683594 19.191406 21.636719 19.3125 C 21.550781 19.519531 21.390625 19.640625 21.179688 19.703125 C 21.046875 19.742188 20.914062 19.742188 20.789062 19.664062 C 20.632812 19.566406 20.460938 19.53125 20.28125 19.542969 C 20.046875 19.558594 19.816406 19.527344 19.582031 19.519531 C 19.511719 19.519531 19.4375 19.527344 19.375 19.5625 C 19.199219 19.65625 19.015625 19.683594 18.824219 19.691406 C 18.277344 19.71875 17.730469 19.746094 17.101562 19.777344 Z M 17.101562 19.777344 " fill-opacity="1" fill-rule="nonzero"/></g></svg>