<svg xmlns="http://www.w3.org/2000/svg" xmlns:xlink="http://www.w3.org/1999/xlink" width="40" zoomAndPan="magnify" viewBox="0 0 30 30.000001" height="40" preserveAspectRatio="xMidYMid meet" version="1.0"><defs><clipPath id="744e9b2d7c"><path d="M 4.011719 2.902344 L 25.785156 2.902344 L 25.785156 26.128906 L 4.011719 26.128906 Z M 4.011719 2.902344 " clip-rule="nonzero"/></clipPath></defs><g clip-path="url(#744e9b2d7c)"><path fill="#014d4e" d="M 25.910156 13.898438 C 25.894531 13.882812 25.785156 13.773438 25.753906 13.730469 C 25.726562 13.691406 25.699219 13.597656 25.699219 13.597656 L 25.636719 13.601562 C 25.636719 13.601562 25.433594 13.613281 25.359375 13.601562 C 25.28125 13.589844 25.167969 13.402344 25.144531 13.28125 C 25.117188 13.160156 25.28125 12.996094 25.28125 12.996094 C 25.28125 12.996094 25.160156 12.878906 25.019531 12.878906 C 24.878906 12.878906 24.648438 12.777344 24.648438 12.777344 L 24.316406 12.601562 L 24.117188 12.507812 L 24.035156 12.511719 C 24.035156 12.511719 23.949219 12.597656 23.902344 12.601562 C 23.851562 12.605469 23.820312 12.578125 23.820312 12.578125 L 23.546875 12.394531 L 23.414062 12.394531 L 23.277344 12.425781 L 23.203125 12.429688 L 23.136719 12.417969 L 23.066406 12.375 L 22.773438 12.363281 L 22.457031 12.257812 C 22.457031 12.257812 22.355469 12.292969 22.332031 12.316406 C 22.304688 12.335938 22.132812 12.332031 21.964844 12.300781 C 21.800781 12.269531 21.726562 12.125 21.726562 12.125 C 21.726562 12.125 21.621094 12.140625 21.539062 12.117188 C 21.457031 12.089844 21.355469 11.667969 21.355469 11.667969 C 21.355469 11.667969 21.34375 11.5 21.324219 11.46875 C 21.304688 11.4375 21.238281 11.25 21.238281 11.25 L 21.210938 10.886719 C 21.210938 10.886719 20.96875 10.554688 20.921875 10.488281 C 20.871094 10.414062 20.921875 10.277344 20.921875 10.277344 L 21.039062 10.0625 L 21.109375 9.941406 L 21.113281 9.832031 L 21.066406 9.664062 L 21.078125 9.542969 L 21.097656 9.511719 L 21.113281 9.195312 L 21.082031 9.105469 L 20.898438 8.640625 L 20.765625 8.609375 L 20.632812 8.589844 L 20.546875 8.449219 L 20.335938 8.449219 L 20.277344 8.429688 C 20.277344 8.429688 20.1875 8.367188 20.152344 8.367188 C 20.121094 8.367188 20.066406 8.335938 20.066406 8.335938 C 20.066406 8.335938 20.023438 8.320312 19.988281 8.304688 C 19.945312 8.289062 19.820312 8.300781 19.753906 8.253906 C 19.679688 8.210938 19.710938 8.113281 19.710938 8.113281 L 19.46875 8.101562 C 19.46875 8.101562 19.40625 7.941406 19.390625 7.910156 C 19.375 7.878906 19.324219 7.851562 19.253906 7.851562 C 19.183594 7.851562 19.085938 7.789062 19.042969 7.742188 C 19 7.691406 19.007812 7.617188 18.984375 7.617188 C 18.96875 7.617188 18.804688 7.605469 18.804688 7.605469 L 18.824219 7.542969 L 18.835938 7.503906 L 18.875 7.453125 C 18.875 7.453125 18.875 7.421875 18.875 7.394531 C 18.875 7.363281 18.800781 7.378906 18.800781 7.378906 C 18.800781 7.378906 18.582031 7.375 18.539062 7.34375 C 18.5 7.3125 18.398438 7.15625 18.398438 7.113281 C 18.398438 7.074219 18.253906 6.667969 18.230469 6.613281 C 18.210938 6.554688 18.003906 6.242188 17.988281 6.214844 C 17.972656 6.1875 17.972656 6.144531 17.972656 6.144531 C 17.972656 6.144531 18.050781 6.039062 18.058594 5.984375 C 18.070312 5.925781 18.015625 5.875 17.984375 5.789062 C 17.953125 5.699219 17.707031 5.5625 17.707031 5.5625 C 17.707031 5.5625 17.644531 5.527344 17.609375 5.488281 C 17.578125 5.457031 17.585938 5.347656 17.585938 5.347656 C 17.585938 5.347656 17.585938 5.050781 17.566406 5.007812 C 17.546875 4.960938 17.480469 4.957031 17.414062 4.945312 C 17.351562 4.933594 17.261719 4.765625 17.253906 4.742188 C 17.246094 4.714844 17.242188 4.710938 17.179688 4.667969 C 17.121094 4.628906 17.132812 4.667969 17.109375 4.628906 C 17.089844 4.585938 17.089844 4.585938 17.058594 4.542969 C 17.027344 4.496094 16.890625 4.328125 16.875 4.292969 C 16.859375 4.25 16.765625 3.976562 16.742188 3.898438 C 16.722656 3.824219 16.570312 3.710938 16.523438 3.679688 C 16.472656 3.648438 16.476562 3.652344 16.429688 3.644531 C 16.378906 3.632812 16.378906 3.550781 16.378906 3.550781 C 16.378906 3.550781 16.34375 3.414062 16.316406 3.378906 C 16.285156 3.335938 16.285156 3.148438 16.285156 3.148438 C 16.285156 3.148438 16.328125 3.058594 16.339844 3.027344 C 16.355469 2.996094 16.351562 2.992188 16.351562 2.992188 L 16.199219 2.910156 L 16.132812 2.914062 C 16.132812 2.914062 16.089844 2.941406 16.0625 2.96875 C 16.035156 3 15.988281 3.074219 15.960938 3.089844 C 15.933594 3.105469 15.910156 3.089844 15.871094 3.058594 C 15.828125 3.03125 15.792969 3.085938 15.757812 3.070312 C 15.726562 3.058594 15.648438 3.007812 15.636719 3.007812 C 15.621094 3.007812 15.5625 3.035156 15.5625 3.035156 C 15.5625 3.035156 15.328125 3.140625 15.300781 3.15625 C 15.269531 3.171875 15.132812 3.1875 15.101562 3.214844 C 15.070312 3.242188 14.996094 3.335938 14.996094 3.335938 C 14.996094 3.335938 14.921875 3.363281 14.894531 3.371094 C 14.867188 3.382812 14.835938 3.429688 14.816406 3.519531 C 14.796875 3.613281 14.75 3.660156 14.75 3.660156 L 14.59375 3.632812 C 14.59375 3.632812 14.492188 3.515625 14.492188 3.492188 C 14.492188 3.464844 14.398438 3.410156 14.367188 3.371094 C 14.332031 3.328125 14.234375 3.402344 14.195312 3.417969 C 14.152344 3.4375 14.105469 3.511719 14.105469 3.511719 L 14.058594 3.582031 L 14.042969 3.5625 L 14.023438 3.550781 C 14.023438 3.550781 13.898438 3.523438 13.871094 3.535156 C 13.84375 3.546875 13.808594 3.628906 13.808594 3.628906 L 13.652344 3.765625 L 13.515625 3.785156 L 13.429688 3.859375 L 13.214844 3.996094 C 13.214844 3.996094 13.214844 4.089844 13.214844 4.113281 C 13.214844 4.140625 13.125 4.171875 13.125 4.171875 L 13.0625 4.226562 L 13.019531 4.292969 L 12.933594 4.320312 L 12.765625 4.550781 L 12.675781 4.5625 C 12.675781 4.5625 12.519531 4.703125 12.480469 4.71875 C 12.445312 4.734375 12.375 4.667969 12.375 4.667969 L 12.359375 4.378906 C 12.359375 4.378906 12.347656 4.363281 12.34375 4.34375 C 12.339844 4.324219 12.222656 4.117188 12.203125 4.113281 C 12.175781 4.109375 11.980469 3.996094 11.980469 3.996094 L 11.96875 3.859375 L 11.824219 3.703125 L 11.796875 3.636719 L 11.75 3.515625 C 11.648438 3.445312 11.066406 3.515625 11.066406 3.515625 L 7.386719 4.273438 L 6.386719 4.238281 L 6.351562 13.453125 L 4.011719 13.453125 L 4.039062 20.515625 L 4.195312 20.648438 L 4.214844 20.683594 L 4.257812 20.746094 L 4.296875 20.789062 L 4.390625 20.792969 L 4.433594 20.867188 L 4.578125 20.890625 L 4.628906 20.933594 L 4.699219 21.035156 L 4.785156 21.109375 L 4.902344 21.195312 L 4.921875 21.292969 L 5.03125 21.398438 L 5.042969 21.484375 L 5.089844 21.503906 L 5.117188 21.542969 L 5.113281 21.589844 L 5.113281 21.632812 L 5.132812 21.671875 L 5.191406 21.714844 L 5.214844 21.785156 L 5.25 21.800781 L 5.296875 21.863281 L 5.316406 22.019531 L 5.394531 22.109375 L 5.425781 22.125 L 5.484375 22.207031 L 5.5 22.25 L 5.585938 22.296875 L 5.566406 22.339844 L 5.542969 22.390625 L 5.542969 22.464844 L 5.648438 22.601562 L 5.660156 22.632812 L 5.660156 22.667969 L 5.546875 22.730469 L 5.628906 22.765625 L 5.628906 22.808594 L 5.613281 22.867188 L 5.683594 22.902344 L 5.757812 22.992188 L 5.769531 23.109375 L 5.828125 23.214844 L 5.839844 23.195312 L 5.886719 23.222656 L 5.886719 23.324219 L 5.933594 23.378906 L 5.933594 23.457031 L 5.960938 23.5 L 6.007812 23.558594 L 6.027344 23.613281 C 6.027344 23.613281 6.003906 23.65625 6.003906 23.671875 C 6.003906 23.6875 6.003906 23.757812 6.003906 23.757812 L 5.984375 23.863281 L 6.023438 23.929688 L 5.996094 23.992188 L 6.019531 24.042969 L 6.050781 24.082031 L 6.019531 24.128906 L 5.914062 24.386719 L 5.855469 24.429688 C 5.855469 24.429688 5.761719 24.546875 5.710938 24.613281 C 5.664062 24.675781 5.683594 24.75 5.683594 24.75 L 5.480469 24.921875 L 5.484375 25.152344 L 5.53125 25.207031 L 5.542969 25.429688 L 5.515625 25.5 C 5.515625 25.5 5.503906 25.570312 5.503906 25.589844 C 5.503906 25.609375 5.539062 25.667969 5.539062 25.667969 L 5.523438 25.804688 L 5.617188 25.894531 L 5.636719 25.972656 C 5.636719 25.972656 5.648438 26.121094 5.664062 26.078125 C 5.683594 26.03125 5.839844 25.972656 5.839844 25.972656 L 5.886719 25.960938 L 6.027344 25.855469 L 6.101562 25.8125 L 6.222656 25.84375 L 6.324219 25.847656 L 6.402344 25.941406 L 6.601562 25.960938 C 6.601562 25.960938 6.753906 26.015625 6.800781 25.988281 C 6.84375 25.957031 6.957031 25.894531 6.957031 25.894531 L 7.035156 25.941406 L 7.105469 25.925781 L 7.148438 25.886719 C 7.148438 25.886719 7.277344 25.859375 7.328125 25.859375 C 7.378906 25.859375 7.449219 25.890625 7.496094 25.902344 C 7.539062 25.914062 7.613281 25.980469 7.652344 25.964844 C 7.695312 25.949219 7.667969 25.921875 7.683594 25.902344 C 7.699219 25.886719 7.726562 25.902344 7.785156 25.921875 C 7.84375 25.941406 7.863281 25.96875 7.953125 25.972656 C 8.039062 25.976562 8.054688 25.957031 8.085938 25.941406 C 8.121094 25.925781 8.230469 25.796875 8.230469 25.796875 C 8.230469 25.796875 8.246094 25.691406 8.246094 25.648438 C 8.246094 25.601562 8.21875 25.550781 8.226562 25.503906 C 8.234375 25.453125 8.300781 25.5 8.328125 25.484375 C 8.355469 25.46875 8.589844 25.484375 8.632812 25.472656 C 8.671875 25.460938 8.804688 25.417969 8.832031 25.378906 C 8.859375 25.335938 8.886719 25.269531 8.886719 25.269531 C 8.886719 25.269531 9.078125 25.074219 9.089844 25.042969 C 9.101562 25.011719 9.175781 24.808594 9.214844 24.722656 C 9.253906 24.632812 9.300781 24.660156 9.300781 24.660156 L 9.394531 24.601562 C 9.394531 24.601562 9.453125 24.585938 9.480469 24.582031 C 9.507812 24.578125 9.632812 24.496094 9.667969 24.457031 C 9.699219 24.417969 9.707031 24.316406 9.707031 24.316406 C 9.707031 24.316406 9.707031 24.316406 9.75 24.316406 C 9.792969 24.316406 9.859375 24.304688 9.859375 24.304688 L 9.933594 24.304688 L 10.007812 24.351562 L 10.054688 24.324219 L 10.089844 24.25 L 10.109375 24.089844 L 10.296875 23.945312 L 10.3125 23.789062 L 10.449219 23.761719 L 10.46875 23.519531 L 10.4375 23.488281 L 10.394531 23.441406 C 10.394531 23.441406 10.445312 23.351562 10.46875 23.335938 C 10.484375 23.320312 10.492188 23.300781 10.492188 23.300781 L 10.523438 23.25 L 10.429688 23.203125 L 10.507812 23.15625 L 10.523438 23.09375 L 10.554688 23.035156 L 10.597656 22.992188 L 10.632812 22.960938 L 10.632812 22.835938 L 10.636719 22.761719 L 10.6875 22.71875 L 10.699219 22.671875 L 10.664062 22.628906 L 10.691406 22.570312 L 10.730469 22.460938 L 10.851562 22.355469 L 10.863281 22.246094 L 10.984375 22.160156 L 11.019531 22.109375 L 11.046875 22.0625 L 11.070312 21.984375 L 11.132812 21.921875 L 11.207031 21.910156 L 11.234375 21.921875 L 11.246094 21.957031 L 11.28125 22 L 11.351562 21.984375 C 11.351562 21.984375 11.371094 21.980469 11.398438 21.953125 C 11.429688 21.925781 11.445312 21.9375 11.445312 21.9375 L 11.519531 21.851562 L 11.722656 21.863281 C 11.722656 21.863281 11.949219 21.910156 11.976562 21.933594 C 12.007812 21.953125 12.027344 21.945312 12.074219 21.933594 C 12.117188 21.921875 12.085938 21.921875 12.121094 21.886719 C 12.15625 21.855469 12.136719 21.886719 12.203125 21.914062 C 12.265625 21.941406 12.265625 21.988281 12.265625 21.988281 L 12.324219 22.039062 L 12.582031 22.207031 L 12.671875 22.25 L 12.683594 22.292969 L 12.835938 22.320312 L 12.878906 22.441406 L 12.972656 22.453125 L 12.976562 22.5625 L 13.0625 22.605469 L 13.136719 22.632812 L 13.164062 22.652344 L 13.210938 22.722656 L 13.269531 22.773438 L 13.3125 22.773438 L 13.355469 22.769531 L 13.371094 22.738281 L 13.429688 22.71875 L 13.46875 22.777344 L 13.515625 22.839844 L 13.574219 22.84375 L 13.726562 22.742188 L 13.789062 22.742188 L 13.828125 22.757812 L 13.894531 22.785156 L 13.925781 22.832031 L 13.960938 22.90625 L 14.070312 22.953125 L 14.132812 22.96875 L 14.195312 22.988281 L 14.222656 23.035156 L 14.292969 23.113281 L 14.355469 23.113281 L 14.425781 23.085938 C 14.425781 23.085938 14.488281 23.050781 14.503906 23.054688 C 14.523438 23.058594 15.054688 23.265625 15.054688 23.265625 L 15.117188 23.226562 L 15.175781 23.265625 L 15.492188 23.253906 C 15.492188 23.253906 15.527344 23.242188 15.535156 23.226562 C 15.546875 23.210938 15.585938 23.183594 15.585938 23.183594 C 15.585938 23.183594 15.632812 23.148438 15.644531 23.140625 C 15.660156 23.136719 15.710938 23.097656 15.710938 23.097656 L 15.78125 23.039062 L 15.839844 23.011719 L 15.910156 23.023438 L 15.976562 23.035156 L 16.066406 23.132812 L 16.570312 23.148438 L 17.167969 22.757812 L 17.441406 22.070312 L 17.460938 21.894531 L 17.546875 21.640625 L 17.59375 21.550781 L 17.621094 21.414062 L 17.679688 21.292969 L 17.769531 20.980469 L 17.84375 20.910156 L 17.847656 20.726562 L 17.757812 20.574219 L 17.769531 20.484375 L 18.035156 20.496094 L 18.066406 20.445312 L 18.226562 20.398438 L 18.574219 20.304688 L 19.0625 20.183594 C 19.0625 20.183594 19.167969 20.109375 19.210938 20.050781 C 19.257812 19.996094 19.328125 19.792969 19.328125 19.792969 L 19.40625 19.734375 L 19.5 19.675781 L 19.535156 19.613281 L 19.636719 19.597656 L 19.691406 19.480469 L 19.726562 19.402344 L 19.800781 19.347656 L 19.972656 19.328125 L 20.152344 19.191406 L 20.152344 19.097656 C 20.152344 19.097656 20.15625 19.003906 20.15625 18.976562 C 20.15625 18.949219 20.144531 18.917969 20.144531 18.917969 L 20.117188 18.859375 L 20.160156 18.792969 L 20.265625 18.609375 L 20.3125 18.382812 L 20.328125 18.332031 L 20.359375 18.058594 L 20.378906 17.941406 L 20.382812 17.800781 L 20.460938 17.757812 L 20.441406 17.683594 L 20.480469 17.648438 L 20.511719 17.664062 L 20.558594 17.710938 L 20.605469 17.707031 L 20.65625 17.6875 L 20.65625 17.636719 L 20.644531 17.566406 L 20.671875 17.53125 L 20.742188 17.492188 L 20.804688 17.480469 L 20.808594 17.355469 L 20.902344 17.347656 L 20.945312 17.316406 L 20.945312 17.253906 L 20.976562 17.21875 C 20.976562 17.21875 21.066406 17.191406 21.136719 17.171875 C 21.207031 17.144531 21.175781 17.113281 21.175781 17.113281 L 21.195312 17.066406 L 21.300781 17.066406 C 21.300781 17.066406 21.328125 17.023438 21.332031 16.996094 C 21.335938 16.96875 21.386719 17.007812 21.386719 17.007812 L 21.449219 17.0625 C 21.449219 17.0625 21.484375 17.058594 21.507812 17.046875 C 21.535156 17.03125 21.507812 16.980469 21.507812 16.980469 L 21.613281 16.945312 C 21.613281 16.945312 21.730469 16.964844 21.746094 16.9375 C 21.761719 16.90625 21.765625 16.847656 21.777344 16.777344 C 21.789062 16.703125 21.855469 16.609375 21.867188 16.582031 C 21.878906 16.550781 21.894531 16.5625 21.910156 16.570312 C 21.925781 16.582031 21.964844 16.582031 21.980469 16.574219 C 21.996094 16.570312 22.015625 16.546875 22.0625 16.527344 C 22.105469 16.507812 22.101562 16.542969 22.101562 16.542969 C 22.101562 16.542969 22.183594 16.621094 22.222656 16.601562 C 22.265625 16.585938 22.300781 16.507812 22.300781 16.507812 L 22.300781 16.355469 L 22.40625 16.289062 L 22.617188 16.1875 C 22.617188 16.1875 22.65625 16.132812 22.65625 16.117188 C 22.65625 16.101562 22.675781 15.925781 22.683594 15.910156 C 22.6875 15.898438 22.914062 15.761719 22.914062 15.761719 L 22.917969 15.558594 L 23.023438 15.554688 L 23.199219 15.371094 L 23.21875 15.234375 C 23.21875 15.234375 23.28125 15.171875 23.339844 15.15625 C 23.402344 15.140625 23.4375 15.082031 23.4375 15.082031 L 23.480469 14.992188 L 23.558594 14.925781 L 23.652344 14.894531 L 23.976562 14.945312 L 24.070312 14.945312 L 24.089844 14.910156 L 24.144531 14.910156 L 24.261719 14.90625 L 24.34375 14.886719 L 24.382812 14.855469 C 24.382812 14.855469 24.582031 14.753906 24.628906 14.734375 C 24.679688 14.714844 24.785156 14.730469 24.785156 14.730469 L 24.800781 14.65625 C 24.800781 14.65625 24.921875 14.667969 24.972656 14.644531 C 25.03125 14.617188 25.09375 14.453125 25.09375 14.453125 L 25.089844 14.347656 L 25.070312 14.277344 L 25.066406 14.210938 C 25.066406 14.210938 25.140625 14.167969 25.175781 14.140625 C 25.21875 14.113281 25.21875 14.066406 25.21875 14.066406 L 25.550781 14.019531 C 25.550781 14.019531 25.667969 13.910156 25.703125 13.910156 C 25.738281 13.910156 25.75 13.925781 25.792969 13.9375 C 25.835938 13.949219 25.855469 13.960938 25.855469 13.960938 L 25.976562 13.957031 C 25.914062 13.933594 25.925781 13.914062 25.910156 13.898438 Z M 25.910156 13.898438 " fill-opacity="1" fill-rule="nonzero"/></g></svg>