<svg xmlns="http://www.w3.org/2000/svg" xmlns:xlink="http://www.w3.org/1999/xlink" width="40" zoomAndPan="magnify" viewBox="0 0 30 30.000001" height="40" preserveAspectRatio="xMidYMid meet" version="1.0"><defs><clipPath id="7209d76a08"><path d="M 3.386719 4.617188 L 26.613281 4.617188 L 26.613281 24.214844 L 3.386719 24.214844 Z M 3.386719 4.617188 " clip-rule="nonzero"/></clipPath></defs><g clip-path="url(#7209d76a08)"><path fill="#014d4e" d="M 6.433594 21.710938 C 6.355469 21.8125 6.292969 21.925781 6.289062 22.0625 C 6.285156 22.15625 6.292969 22.265625 6.257812 22.355469 C 6.214844 22.449219 6.109375 22.507812 6.050781 22.597656 C 5.945312 22.757812 5.953125 22.976562 5.75 23.046875 C 5.621094 23.09375 5.308594 23.25 5.175781 23.164062 C 5.183594 23.113281 5.199219 23.019531 5.179688 22.96875 C 5.152344 22.878906 5.148438 22.910156 5.066406 22.898438 C 4.953125 22.886719 4.738281 22.871094 4.632812 22.921875 C 4.515625 22.984375 4.464844 23.121094 4.484375 23.242188 C 4.496094 23.347656 4.664062 23.496094 4.621094 23.589844 C 4.453125 23.507812 4.34375 23.390625 4.324219 23.207031 C 4.316406 23.113281 4.304688 23.023438 4.289062 22.929688 C 4.269531 22.855469 4.214844 22.753906 4.238281 22.675781 C 4.265625 22.578125 4.371094 22.597656 4.410156 22.519531 C 4.441406 22.457031 4.386719 22.386719 4.394531 22.328125 C 4.402344 22.261719 4.4375 22.203125 4.441406 22.128906 C 4.445312 22.0625 4.453125 22 4.453125 21.933594 C 4.453125 21.707031 4.453125 21.511719 4.484375 21.292969 C 4.246094 21.046875 3.984375 20.761719 3.671875 20.621094 C 3.503906 20.542969 3.386719 20.492188 3.464844 20.296875 C 3.546875 20.105469 3.660156 19.917969 3.753906 19.726562 C 3.90625 19.40625 4.152344 19.097656 4.5 18.992188 C 4.65625 18.949219 4.816406 18.882812 4.96875 18.851562 C 5.160156 18.808594 5.125 18.691406 5.132812 18.511719 C 5.140625 18.351562 5.1875 18.195312 5.1875 18.042969 C 5.1875 17.914062 5.152344 17.785156 5.1875 17.660156 C 5.191406 17.644531 5.199219 17.605469 5.207031 17.5625 C 5.160156 17.457031 5.136719 17.335938 5.089844 17.234375 C 5.039062 17.128906 5 17.011719 5.054688 16.898438 C 5.078125 16.851562 5.125 16.839844 5.125 16.777344 C 5.125 16.699219 5.027344 16.566406 4.988281 16.496094 C 4.894531 16.316406 4.789062 16.167969 4.722656 15.976562 C 4.625 15.679688 4.507812 15.382812 4.433594 15.078125 C 4.371094 14.832031 4.421875 14.570312 4.34375 14.332031 C 4.304688 14.214844 4.277344 14.089844 4.226562 13.988281 C 4.191406 13.917969 4.097656 13.847656 4.082031 13.769531 C 4.066406 13.671875 4.121094 13.648438 4.195312 13.683594 C 4.238281 13.695312 4.261719 13.757812 4.304688 13.761719 C 4.324219 13.761719 4.359375 13.734375 4.378906 13.734375 C 4.445312 13.734375 4.5 13.746094 4.570312 13.75 C 4.648438 13.761719 4.742188 13.8125 4.816406 13.769531 C 4.882812 13.738281 4.886719 13.652344 4.957031 13.621094 C 5.03125 13.585938 5.089844 13.625 5.15625 13.667969 C 5.308594 13.765625 5.34375 13.660156 5.5 13.625 C 5.578125 13.609375 5.738281 13.675781 5.792969 13.707031 C 5.875 13.746094 5.953125 13.789062 6.039062 13.832031 C 6.042969 13.832031 6.050781 13.832031 6.058594 13.824219 C 6.238281 13.789062 6.394531 13.78125 6.554688 13.675781 C 6.617188 13.636719 6.679688 13.578125 6.738281 13.527344 C 6.785156 13.492188 6.835938 13.460938 6.875 13.414062 C 6.898438 13.390625 6.90625 13.332031 6.9375 13.320312 C 7.101562 13.25 7.128906 13.492188 7.15625 13.574219 C 7.222656 13.542969 7.367188 13.386719 7.378906 13.320312 C 7.402344 13.191406 7.257812 13.128906 7.328125 12.988281 C 7.371094 12.902344 7.511719 12.777344 7.601562 12.761719 C 7.75 12.738281 7.675781 12.808594 7.769531 12.855469 C 7.808594 12.875 7.882812 12.835938 7.917969 12.824219 C 8.066406 12.765625 8.140625 12.636719 8.253906 12.535156 C 8.363281 12.4375 8.425781 12.417969 8.558594 12.386719 C 8.714844 12.34375 8.898438 12.082031 9.066406 12.292969 C 9.160156 12.414062 9.050781 12.777344 9.222656 12.820312 C 9.320312 12.839844 9.53125 12.6875 9.578125 12.613281 C 9.636719 12.515625 9.59375 12.238281 9.539062 12.140625 C 9.4375 11.96875 9.167969 12.175781 9.132812 11.988281 C 9.109375 11.867188 9.257812 11.738281 9.300781 11.640625 C 9.34375 11.558594 9.445312 11.359375 9.433594 11.296875 C 9.464844 11.25 9.496094 11.207031 9.535156 11.160156 C 9.535156 11.035156 9.554688 10.894531 9.535156 10.808594 C 9.515625 10.71875 9.453125 10.660156 9.421875 10.574219 C 9.398438 10.5 9.421875 10.472656 9.464844 10.402344 C 9.542969 10.273438 9.582031 10.164062 9.640625 10.023438 C 9.699219 9.894531 9.828125 9.769531 9.953125 9.703125 C 10.058594 9.648438 10.230469 9.65625 10.316406 9.605469 C 10.371094 9.601562 10.429688 9.601562 10.488281 9.597656 C 10.546875 9.550781 10.609375 9.507812 10.625 9.480469 C 10.71875 9.359375 10.757812 9.222656 10.824219 9.09375 C 10.898438 8.960938 11.058594 9.042969 11.136719 8.9375 C 11.179688 8.875 11.132812 8.820312 11.191406 8.777344 C 11.238281 8.746094 11.261719 8.765625 11.3125 8.769531 C 11.433594 8.785156 11.613281 8.820312 11.722656 8.769531 C 11.796875 8.730469 11.851562 8.601562 11.882812 8.527344 C 11.925781 8.429688 11.90625 8.351562 12.015625 8.308594 C 12.074219 8.285156 12.128906 8.332031 12.1875 8.25 C 12.21875 8.203125 12.222656 8.148438 12.1875 8.105469 C 12.136719 8.046875 11.949219 8.046875 11.878906 8.039062 C 11.742188 8.03125 11.574219 8.125 11.441406 8.074219 C 11.421875 7.933594 11.5625 7.902344 11.550781 7.757812 C 11.539062 7.621094 11.453125 7.421875 11.53125 7.328125 C 11.609375 7.234375 11.667969 7.234375 11.695312 7.09375 C 11.71875 6.972656 11.695312 6.890625 11.695312 6.769531 C 11.695312 6.523438 12.085938 6.699219 12.234375 6.601562 C 12.40625 6.488281 12.316406 6.21875 12.523438 6.132812 C 12.597656 6.097656 12.683594 6.121094 12.757812 6.089844 C 12.839844 6.054688 12.867188 5.980469 12.929688 5.929688 C 13 6.144531 13.222656 6.152344 13.394531 6.105469 C 13.476562 6.082031 13.554688 6.078125 13.640625 6.117188 C 13.722656 6.164062 13.746094 6.21875 13.851562 6.21875 C 13.859375 6.226562 13.851562 6.230469 13.84375 6.230469 C 13.902344 6.234375 13.960938 6.238281 14.019531 6.238281 C 14.03125 6.1875 14.0625 6.011719 14.070312 5.960938 C 14.09375 5.898438 14.128906 5.816406 14.140625 5.75 C 14.15625 5.675781 14.121094 5.597656 14.171875 5.539062 C 14.234375 5.46875 14.289062 5.515625 14.359375 5.488281 C 14.417969 5.464844 14.46875 5.378906 14.523438 5.332031 C 14.585938 5.269531 14.636719 5.195312 14.699219 5.125 C 14.777344 5.035156 14.835938 5.011719 14.953125 4.988281 C 15.058594 4.972656 15.09375 4.921875 15.152344 4.828125 C 15.214844 4.738281 15.222656 4.617188 15.339844 4.621094 C 15.585938 4.636719 15.605469 5.03125 15.878906 4.988281 C 15.976562 4.976562 16.074219 4.949219 16.171875 4.929688 C 16.296875 4.90625 16.378906 4.996094 16.496094 5.023438 C 16.617188 5.054688 16.679688 5 16.738281 5.144531 C 16.789062 5.269531 16.730469 5.398438 16.890625 5.449219 C 17.011719 5.488281 17.207031 5.445312 17.292969 5.355469 C 17.378906 5.277344 17.363281 5.203125 17.484375 5.171875 C 17.578125 5.148438 17.667969 5.183594 17.761719 5.210938 C 17.808594 5.226562 17.847656 5.234375 17.882812 5.273438 C 17.910156 5.300781 17.910156 5.355469 17.933594 5.375 C 17.984375 5.417969 18.070312 5.402344 18.140625 5.414062 C 18.199219 5.417969 18.328125 5.429688 18.371094 5.476562 C 18.402344 5.511719 18.390625 5.570312 18.421875 5.601562 C 18.445312 5.636719 18.464844 5.625 18.492188 5.648438 C 18.660156 5.773438 18.503906 5.867188 18.429688 6.015625 C 18.398438 6.082031 18.394531 6.179688 18.40625 6.269531 C 18.460938 6.324219 18.511719 6.375 18.558594 6.425781 C 18.585938 6.453125 18.625 6.511719 18.671875 6.511719 C 18.785156 6.523438 18.835938 6.367188 18.890625 6.304688 C 18.957031 6.226562 19.019531 6.152344 19.128906 6.164062 C 19.167969 6.167969 19.222656 6.21875 19.257812 6.214844 C 19.304688 6.207031 19.308594 6.15625 19.335938 6.128906 C 19.398438 6.070312 19.519531 6.042969 19.59375 6.007812 C 19.683594 5.964844 19.765625 5.9375 19.851562 5.886719 C 19.96875 5.820312 20.042969 5.84375 20.128906 5.9375 C 20.164062 5.96875 20.195312 6.039062 20.242188 6.039062 C 20.28125 6.039062 20.347656 5.960938 20.394531 5.945312 C 20.554688 5.894531 20.632812 6.007812 20.773438 6.078125 C 20.839844 6.109375 20.910156 6.117188 20.964844 6.175781 C 21 6.207031 21.011719 6.261719 21.050781 6.285156 C 21.121094 6.332031 21.128906 6.28125 21.199219 6.28125 C 21.367188 6.277344 21.390625 6.449219 21.445312 6.574219 C 21.488281 6.667969 21.53125 6.695312 21.605469 6.75 C 21.667969 6.792969 21.703125 6.859375 21.765625 6.894531 C 21.875 6.945312 22.121094 6.929688 22.191406 7.050781 C 22.285156 7.210938 22.082031 7.414062 22.109375 7.566406 C 22.121094 7.636719 22.1875 7.632812 22.214844 7.6875 C 22.261719 7.789062 22.128906 7.800781 22.070312 7.875 C 22.042969 7.90625 22.039062 7.957031 22.015625 7.988281 C 21.996094 8.015625 21.949219 8.039062 21.941406 8.074219 C 21.910156 8.152344 21.960938 8.222656 22.003906 8.292969 C 22.070312 8.398438 22.117188 8.5 22.175781 8.613281 C 22.234375 8.722656 22.308594 8.804688 22.3125 8.945312 C 22.3125 9.015625 22.292969 9.140625 22.257812 9.195312 C 22.207031 9.269531 22.109375 9.230469 22.0625 9.296875 C 22.015625 9.367188 22.085938 9.425781 22.09375 9.492188 C 22.109375 9.605469 22.03125 9.652344 21.9375 9.6875 C 21.816406 9.738281 21.75 9.769531 21.75 9.898438 C 21.75 9.921875 21.769531 9.949219 21.765625 9.976562 C 21.765625 10.003906 21.734375 10.035156 21.726562 10.074219 C 21.726562 10.125 21.742188 10.171875 21.761719 10.21875 C 21.785156 10.21875 21.8125 10.214844 21.835938 10.214844 C 21.917969 10.265625 22.070312 10.34375 22.15625 10.441406 C 22.226562 10.519531 22.25 10.679688 22.335938 10.707031 C 22.4375 10.738281 22.578125 10.648438 22.675781 10.734375 C 22.773438 10.816406 22.703125 10.980469 22.648438 11.0625 C 22.597656 11.136719 22.535156 11.238281 22.546875 11.335938 C 22.558594 11.476562 22.6875 11.480469 22.800781 11.527344 C 23.003906 11.609375 22.902344 11.726562 22.921875 11.902344 C 22.929688 11.996094 22.996094 12.0625 23.027344 12.148438 C 23.078125 12.28125 23.097656 12.414062 23.164062 12.535156 C 23.296875 12.78125 23.449219 12.789062 23.695312 12.878906 C 23.925781 12.960938 24.128906 13.167969 24.390625 13.191406 C 24.398438 13.394531 24.355469 13.585938 24.320312 13.785156 C 24.300781 13.878906 24.152344 14.066406 24.210938 14.144531 C 24.238281 14.183594 24.34375 14.183594 24.382812 14.203125 C 24.445312 14.226562 24.496094 14.285156 24.5625 14.300781 C 24.671875 14.324219 24.710938 14.230469 24.796875 14.1875 C 24.894531 14.144531 24.988281 14.152344 25.082031 14.191406 C 25.253906 14.265625 25.382812 14.378906 25.5625 14.433594 C 25.695312 14.476562 25.894531 14.457031 25.917969 14.632812 C 25.933594 14.777344 25.800781 14.820312 25.835938 14.964844 C 25.851562 15.015625 25.867188 15.117188 25.894531 15.164062 C 25.925781 15.226562 25.929688 15.214844 26.019531 15.25 C 26.09375 15.285156 26.152344 15.347656 26.226562 15.382812 C 26.285156 15.410156 26.328125 15.394531 26.390625 15.414062 C 26.511719 15.453125 26.515625 15.527344 26.515625 15.617188 C 26.535156 15.636719 26.550781 15.65625 26.566406 15.679688 C 26.613281 15.765625 26.574219 15.847656 26.539062 15.933594 C 26.441406 16.148438 26.296875 16.175781 26.078125 16.148438 C 26.066406 16.246094 26.019531 16.308594 25.957031 16.378906 C 25.804688 16.550781 25.632812 16.699219 25.464844 16.859375 C 25.332031 16.988281 25.292969 17.070312 25.105469 17.054688 C 24.921875 17.035156 24.753906 17.011719 24.574219 17.046875 C 24.402344 17.082031 24.394531 17.058594 24.300781 16.917969 C 24.230469 16.808594 24.171875 16.757812 24.058594 16.695312 C 23.953125 16.640625 23.929688 16.613281 23.8125 16.652344 C 23.71875 16.6875 23.652344 16.734375 23.542969 16.738281 C 23.417969 16.742188 23.398438 16.734375 23.320312 16.839844 C 23.261719 16.917969 23.222656 17.015625 23.164062 17.089844 C 23.09375 17.179688 22.949219 17.238281 22.996094 17.359375 C 23.007812 17.390625 23.0625 17.4375 23.078125 17.472656 C 23.113281 17.523438 23.125 17.578125 23.167969 17.621094 C 23.261719 17.707031 23.34375 17.722656 23.410156 17.835938 C 23.464844 17.929688 23.507812 18.019531 23.578125 18.097656 C 23.71875 18.261719 23.816406 18.339844 23.714844 18.523438 C 23.578125 18.78125 23.855469 19.058594 23.90625 19.304688 C 23.839844 19.324219 23.738281 19.300781 23.695312 19.378906 C 23.652344 19.472656 23.742188 19.628906 23.777344 19.710938 C 23.835938 19.863281 23.785156 19.914062 23.761719 20.0625 C 23.746094 20.148438 23.792969 20.257812 23.839844 20.332031 C 23.886719 20.414062 23.953125 20.464844 23.984375 20.550781 C 24.027344 20.648438 24.035156 20.738281 24.101562 20.824219 C 24.132812 20.871094 24.257812 21 24.183594 21.066406 C 24.136719 21.105469 24.027344 21.046875 23.976562 21.027344 C 23.910156 21.003906 23.8125 20.945312 23.742188 20.960938 C 23.65625 20.980469 23.644531 21.042969 23.546875 21.027344 C 23.425781 21.007812 23.289062 20.855469 23.171875 20.949219 C 23.070312 21.03125 23.074219 21.203125 22.996094 21.300781 C 22.882812 21.441406 22.792969 21.214844 22.675781 21.148438 C 22.53125 21.074219 22.515625 21.238281 22.382812 21.246094 C 22.335938 21.25 22.285156 21.226562 22.230469 21.246094 C 22.15625 21.269531 22.070312 21.34375 21.996094 21.410156 C 21.988281 21.441406 21.972656 21.472656 21.960938 21.5 C 21.933594 21.5625 21.90625 21.636719 21.871094 21.691406 C 21.824219 21.773438 21.75 21.835938 21.699219 21.917969 C 21.609375 22.074219 21.566406 22.234375 21.457031 22.386719 C 21.371094 22.507812 21.320312 22.652344 21.269531 22.796875 C 21.222656 22.910156 21.152344 23.042969 21.160156 23.167969 C 21.171875 23.289062 21.257812 23.371094 21.304688 23.476562 C 21.355469 23.582031 21.382812 23.714844 21.398438 23.828125 C 21.417969 23.953125 21.464844 24.09375 21.402344 24.203125 C 21.324219 24.351562 21.230469 24.402344 21.074219 24.386719 C 20.875 24.363281 20.855469 24.300781 20.792969 24.132812 C 20.679688 23.820312 20.507812 23.640625 20.195312 23.515625 C 20.054688 23.460938 19.992188 23.507812 19.855469 23.535156 C 19.769531 23.554688 19.695312 23.5625 19.621094 23.609375 C 19.5625 23.640625 19.519531 23.691406 19.453125 23.710938 C 19.285156 23.753906 19.300781 23.609375 19.191406 23.535156 C 19.132812 23.492188 18.992188 23.507812 18.917969 23.527344 C 18.71875 23.574219 18.765625 23.851562 18.5625 23.886719 C 18.464844 23.90625 18.417969 23.855469 18.316406 23.921875 C 18.242188 23.96875 18.167969 24.085938 18.082031 23.988281 C 18.035156 23.933594 18.03125 23.808594 18.003906 23.734375 C 17.972656 23.652344 17.929688 23.578125 17.910156 23.488281 C 17.859375 23.246094 17.835938 23.085938 17.871094 22.84375 C 17.804688 22.902344 17.738281 22.953125 17.675781 23.023438 C 17.5625 23.144531 17.515625 23.132812 17.363281 23.117188 C 16.949219 23.082031 17.089844 23.625 16.964844 23.851562 C 16.914062 23.832031 16.8125 23.757812 16.761719 23.722656 C 16.691406 23.660156 16.703125 23.628906 16.695312 23.542969 C 16.683594 23.464844 16.683594 23.339844 16.621094 23.289062 C 16.59375 23.265625 16.535156 23.265625 16.507812 23.246094 C 16.46875 23.230469 16.4375 23.191406 16.398438 23.171875 C 16.207031 23.082031 16.148438 23.382812 15.988281 23.308594 C 15.917969 23.273438 15.859375 23.144531 15.804688 23.085938 C 15.753906 23.027344 15.6875 22.925781 15.625 22.890625 C 15.476562 22.792969 15.398438 23.023438 15.3125 23.117188 C 15.207031 23.222656 15.113281 23.144531 14.980469 23.117188 C 14.867188 23.089844 14.761719 23.046875 14.675781 23.148438 C 14.589844 23.246094 14.601562 23.433594 14.503906 23.515625 C 14.429688 23.578125 14.277344 23.492188 14.257812 23.394531 C 14.238281 23.292969 14.355469 23.191406 14.367188 23.089844 C 14.390625 22.910156 13.984375 22.804688 13.863281 22.878906 C 13.765625 22.941406 13.75 23.042969 13.617188 23.019531 C 13.527344 23 13.449219 22.960938 13.355469 22.945312 C 13.097656 22.910156 13.195312 22.746094 13.125 22.558594 C 13.074219 22.429688 12.933594 22.296875 12.789062 22.3125 C 12.621094 22.332031 12.558594 22.453125 12.433594 22.523438 C 12.21875 22.34375 12.113281 22.171875 11.832031 22.191406 C 11.777344 22.179688 11.71875 22.171875 11.660156 22.15625 C 11.628906 22.199219 11.59375 22.234375 11.539062 22.257812 C 11.429688 22.308594 11.402344 22.28125 11.335938 22.203125 C 11.179688 22.015625 10.984375 22.035156 10.765625 21.96875 C 10.628906 21.933594 10.527344 21.851562 10.398438 21.804688 C 10.269531 21.761719 10.175781 21.761719 10.039062 21.769531 C 9.921875 21.78125 9.792969 21.765625 9.675781 21.769531 C 9.570312 21.773438 9.429688 21.828125 9.332031 21.804688 C 9.28125 21.789062 9.238281 21.742188 9.1875 21.730469 C 9.140625 21.714844 9.085938 21.730469 9.039062 21.730469 C 8.941406 21.722656 8.851562 21.699219 8.753906 21.6875 C 8.65625 21.671875 8.554688 21.710938 8.457031 21.707031 C 8.359375 21.699219 8.277344 21.664062 8.183594 21.644531 C 8.003906 21.609375 7.96875 21.804688 7.796875 21.816406 C 7.621094 21.835938 7.476562 21.753906 7.304688 21.734375 C 7.132812 21.714844 7.019531 21.785156 6.855469 21.804688 C 6.75 21.816406 6.65625 21.742188 6.554688 21.710938 C 6.53125 21.742188 6.484375 21.722656 6.433594 21.710938 Z M 6.433594 21.710938 " fill-opacity="1" fill-rule="nonzero"/></g></svg>