<svg xmlns="http://www.w3.org/2000/svg" xmlns:xlink="http://www.w3.org/1999/xlink" width="40" zoomAndPan="magnify" viewBox="0 0 30 30.000001" height="40" preserveAspectRatio="xMidYMid meet" version="1.0"><defs><clipPath id="28b8e78a3b"><path d="M 12 5.246094 L 15 5.246094 L 15 9 L 12 9 Z M 12 5.246094 " clip-rule="nonzero"/></clipPath><clipPath id="349d93b3e6"><path d="M 3.386719 9 L 25 9 L 25 24 L 3.386719 24 Z M 3.386719 9 " clip-rule="nonzero"/></clipPath><clipPath id="117fae886a"><path d="M 24 16 L 26.613281 16 L 26.613281 19 L 24 19 Z M 24 16 " clip-rule="nonzero"/></clipPath><clipPath id="c2b4d755bd"><path d="M 3.386719 16 L 4 16 L 4 18 L 3.386719 18 Z M 3.386719 16 " clip-rule="nonzero"/></clipPath><clipPath id="1c6f1fa36f"><path d="M 3.386719 17 L 4 17 L 4 19 L 3.386719 19 Z M 3.386719 17 " clip-rule="nonzero"/></clipPath></defs><g clip-path="url(#28b8e78a3b)"><path stroke-linecap="butt" transform="matrix(0.0367032, 0, 0, 0.0367032, -3.383029, 5.180552)" fill-opacity="1" fill="#014d4e" fill-rule="nonzero" stroke-linejoin="miter" d="M 466.692736 7.852115 C 471.26914 5.510698 476.590541 4.659274 481.060517 2.21143 C 484.67907 4.552846 488.829762 4.978558 492.661171 3.169282 C 493.938307 7.107119 496.173295 11.789951 493.406167 15.514932 C 491.171178 18.175632 491.06475 21.687756 490.851894 24.987025 C 493.086883 24.561313 495.215443 24.348457 497.344003 24.029173 C 497.769715 29.563429 497.131147 35.310542 495.534727 40.738371 C 492.874027 44.995491 489.574758 49.146184 489.255474 54.361156 C 491.596891 54.999724 494.044735 55.638292 496.279723 56.170433 C 495.960439 62.875397 495.215443 69.580362 496.066867 76.285327 C 496.492579 78.839599 494.470447 80.755303 493.406167 82.777436 C 495.428299 83.416004 497.450431 83.948144 499.578992 84.586712 C 497.450431 87.673124 495.215443 90.759537 492.980455 93.952377 C 482.763365 95.123085 472.546276 94.910229 462.329187 95.335941 C 462.435615 88.630976 465.628455 82.56458 467.331304 76.285327 C 469.247008 77.775319 471.26914 79.371739 473.184844 81.074588 C 474.781265 80.223163 476.484113 79.265311 478.080533 78.413887 C 472.652704 76.498183 467.54416 73.411771 461.903475 71.602494 C 462.435615 65.216814 468.182728 63.939677 473.291272 64.258961 C 471.26914 61.598261 469.247008 59.043989 467.118448 56.383289 C 463.712751 61.704689 460.200627 66.919662 457.114214 72.34749 C 455.73065 75.433903 451.686386 75.753187 449.132113 77.030323 C 448.174261 72.34749 447.109981 67.451802 446.897125 62.662541 C 445.087849 61.172549 442.427149 60.108269 441.788581 57.447569 C 440.7243 51.806884 439.447164 45.953343 439.447164 40.099803 C 439.766448 37.01339 443.597857 34.88483 446.364985 36.587678 C 454.772798 40.738371 458.391351 50.210464 465.947739 55.425436 C 464.351319 52.126168 461.797047 49.252612 461.052051 45.527631 C 466.799164 42.015507 472.546276 37.54553 474.46198 30.840565 C 470.737 33.394838 467.224876 36.48125 463.180611 38.716238 C 459.987771 39.354806 456.688502 39.461235 453.60209 39.14195 C 450.196394 36.587678 446.471413 33.501266 445.939273 29.244145 C 452.750666 22.00704 460.839195 15.940644 466.692736 7.852115 Z M 466.692736 7.852115 " stroke="#000000" stroke-width="0.094" stroke-opacity="1" stroke-miterlimit="4"/></g><path stroke-linecap="butt" transform="matrix(0.0367032, 0, 0, 0.0367032, -3.383029, 5.180552)" fill-opacity="1" fill="#014d4e" fill-rule="nonzero" stroke-linejoin="miter" d="M 431.252207 49.465468 C 432.742199 50.849032 434.232192 52.232596 435.615756 53.509732 C 434.657904 53.722588 432.848627 53.935444 431.890775 54.041872 C 431.677919 52.55188 431.465063 50.95546 431.252207 49.465468 Z M 431.252207 49.465468 " stroke="#000000" stroke-width="0.094" stroke-opacity="1" stroke-miterlimit="4"/><path stroke-linecap="butt" transform="matrix(0.0367032, 0, 0, 0.0367032, -3.383029, 5.180552)" fill-opacity="1" fill="#014d4e" fill-rule="nonzero" stroke-linejoin="miter" d="M 414.330153 55.106152 C 425.930807 56.383289 437.850744 68.196798 434.019336 80.223163 C 428.697935 77.243179 423.908674 73.305343 417.948706 71.708922 C 417.73585 65.855382 413.585157 61.066121 414.330153 55.106152 Z M 414.330153 55.106152 " stroke="#000000" stroke-width="0.094" stroke-opacity="1" stroke-miterlimit="4"/><path stroke-linecap="butt" transform="matrix(0.0367032, 0, 0, 0.0367032, -3.383029, 5.180552)" fill-opacity="1" fill="#014d4e" fill-rule="nonzero" stroke-linejoin="miter" d="M 396.024535 63.939677 C 399.004519 63.513965 401.984504 63.194681 404.964488 62.768969 C 404.964488 64.684674 404.964488 68.409654 404.964488 70.325358 C 401.878076 69.68679 398.898091 69.048222 395.918107 68.196798 C 396.024535 66.813234 396.024535 65.42967 396.024535 63.939677 Z M 396.024535 63.939677 " stroke="#000000" stroke-width="0.094" stroke-opacity="1" stroke-miterlimit="4"/><path stroke-linecap="butt" transform="matrix(0.0367032, 0, 0, 0.0367032, -3.383029, 5.180552)" fill-opacity="1" fill="#014d4e" fill-rule="nonzero" stroke-linejoin="miter" d="M 437.957172 67.02609 C 440.405016 67.238946 442.852861 67.983942 445.087849 68.728938 C 444.555709 73.624627 441.575725 77.668891 436.892892 79.052455 C 437.105748 75.114619 437.53146 70.963926 437.957172 67.02609 Z M 437.957172 67.02609 " stroke="#000000" stroke-width="0.094" stroke-opacity="1" stroke-miterlimit="4"/><path stroke-linecap="butt" transform="matrix(0.0367032, 0, 0, 0.0367032, -3.383029, 5.180552)" fill-opacity="1" fill="#014d4e" fill-rule="nonzero" stroke-linejoin="miter" d="M 377.186777 76.711039 C 381.231041 77.136751 384.743166 74.795335 388.361718 73.731055 C 386.552442 78.733171 384.849594 85.544564 379.315337 87.673124 C 371.226808 88.098836 364.202559 93.313809 356.007602 92.675241 C 356.007602 90.759537 356.11403 87.140984 356.11403 85.22528 C 359.732583 82.777436 363.244707 80.116735 366.86326 77.988175 C 369.949672 76.072471 373.78108 76.923895 377.186777 76.711039 Z M 377.186777 76.711039 " stroke="#000000" stroke-width="0.094" stroke-opacity="1" stroke-miterlimit="4"/><path stroke-linecap="butt" transform="matrix(0.0367032, 0, 0, 0.0367032, -3.383029, 5.180552)" fill-opacity="1" fill="#014d4e" fill-rule="nonzero" stroke-linejoin="miter" d="M 391.980271 75.753187 C 396.343819 74.795335 400.60094 74.156767 404.85806 73.943911 C 404.006636 75.859615 403.26164 78.094603 401.558792 79.691023 C 398.472379 81.074588 395.066683 79.903879 391.980271 79.371739 C 391.980271 78.413887 391.980271 76.604611 391.980271 75.753187 Z M 391.980271 75.753187 " stroke="#000000" stroke-width="0.094" stroke-opacity="1" stroke-miterlimit="4"/><path stroke-linecap="butt" transform="matrix(0.0367032, 0, 0, 0.0367032, -3.383029, 5.180552)" fill-opacity="1" fill="#014d4e" fill-rule="nonzero" stroke-linejoin="miter" d="M 415.394433 84.799568 C 414.117297 82.56458 413.691585 80.010307 414.223725 77.456035 C 414.649437 79.903879 415.181577 82.351724 415.394433 84.799568 Z M 415.394433 84.799568 " stroke="#000000" stroke-width="0.094" stroke-opacity="1" stroke-miterlimit="4"/><path stroke-linecap="butt" transform="matrix(0.0367032, 0, 0, 0.0367032, -3.383029, 5.180552)" fill-opacity="1" fill="#014d4e" fill-rule="nonzero" stroke-linejoin="miter" d="M 444.023569 78.307459 C 447.748549 77.881747 451.047818 79.052455 453.06995 82.245296 C 449.983538 82.245296 447.109981 82.245296 444.023569 82.245296 C 444.023569 81.181016 444.023569 79.158883 444.023569 78.307459 Z M 444.023569 78.307459 " stroke="#000000" stroke-width="0.094" stroke-opacity="1" stroke-miterlimit="4"/><path stroke-linecap="butt" transform="matrix(0.0367032, 0, 0, 0.0367032, -3.383029, 5.180552)" fill-opacity="1" fill="#014d4e" fill-rule="nonzero" stroke-linejoin="miter" d="M 389.213142 83.948144 C 391.128846 83.416004 391.660987 86.608844 389.85171 87.034556 C 387.936006 87.566696 387.297438 84.373856 389.213142 83.948144 Z M 389.213142 83.948144 " stroke="#000000" stroke-width="0.094" stroke-opacity="1" stroke-miterlimit="4"/><path stroke-linecap="butt" transform="matrix(0.0367032, 0, 0, 0.0367032, -3.383029, 5.180552)" fill-opacity="1" fill="#014d4e" fill-rule="nonzero" stroke-linejoin="miter" d="M 395.385967 89.908113 C 397.833811 87.460268 400.175228 85.118852 402.942356 82.990292 C 404.219492 87.779552 404.751632 92.675241 405.603056 97.464501 C 407.838044 96.932361 409.860177 96.293793 412.095165 95.655225 C 413.265873 102.040906 414.117297 111.832283 406.028768 113.747987 C 399.323803 113.535131 393.150979 115.663692 386.765298 117.685824 C 383.99817 118.537248 381.656753 115.982976 379.421765 114.599412 C 380.060333 113.535131 380.698901 112.364423 381.443897 111.300143 C 384.53031 110.342291 387.616722 109.278011 390.703134 108.107303 C 386.765298 107.255879 382.933889 107.149451 379.208909 108.533015 C 373.78108 111.619427 369.736816 105.02089 368.033968 100.870198 C 366.437547 96.080937 370.801096 93.739521 373.674652 91.291677 C 372.823228 94.058805 371.758948 96.932361 371.013952 99.805918 C 376.122497 97.251645 379.102481 90.759537 384.849594 90.120969 C 390.703134 93.313809 393.470263 100.657342 400.175228 102.785902 C 399.110947 98.315926 397.301671 94.058805 395.385967 89.908113 Z M 395.385967 89.908113 " stroke="#000000" stroke-width="0.094" stroke-opacity="1" stroke-miterlimit="4"/><path stroke-linecap="butt" transform="matrix(0.0367032, 0, 0, 0.0367032, -3.383029, 5.180552)" fill-opacity="1" fill="#014d4e" fill-rule="nonzero" stroke-linejoin="miter" d="M 438.489312 87.247412 C 447.003553 87.140984 455.092082 90.227397 462.648471 93.633093 C 461.903475 95.868081 461.052051 98.10307 460.200627 100.444486 C 465.841311 101.402338 472.014136 104.275894 477.548393 101.29591 C 480.315521 100.018774 482.869793 97.57093 486.062634 98.63521 C 491.06475 99.486634 499.046851 101.29591 497.876143 107.788019 C 495.215443 112.045139 490.426182 114.280128 486.488346 117.36654 C 477.441965 121.942944 468.182728 115.23798 458.923491 114.918696 C 455.517794 110.980859 455.411366 104.808034 452.53781 100.550914 C 449.557825 98.10307 444.981421 98.741638 443.065717 94.910229 C 441.150012 92.675241 439.66002 90.014541 438.489312 87.247412 Z M 438.489312 87.247412 " stroke="#000000" stroke-width="0.094" stroke-opacity="1" stroke-miterlimit="4"/><path stroke-linecap="butt" transform="matrix(0.0367032, 0, 0, 0.0367032, -3.383029, 5.180552)" fill-opacity="1" fill="#014d4e" fill-rule="nonzero" stroke-linejoin="miter" d="M 417.522994 91.078821 C 418.480846 89.801685 420.715834 91.398105 419.651554 92.675241 C 418.693702 93.952377 416.458713 92.355957 417.522994 91.078821 Z M 417.522994 91.078821 " stroke="#000000" stroke-width="0.094" stroke-opacity="1" stroke-miterlimit="4"/><path stroke-linecap="butt" transform="matrix(0.0367032, 0, 0, 0.0367032, -3.383029, 5.180552)" fill-opacity="1" fill="#014d4e" fill-rule="nonzero" stroke-linejoin="miter" d="M 430.720067 91.185249 C 433.27434 92.355957 438.170028 92.143101 439.447164 95.548797 C 441.043584 101.189482 439.979304 108.533015 434.551476 111.619427 C 428.378651 115.344408 427.314371 108.958727 427.207943 105.02089 C 424.440814 105.55303 421.99297 104.169466 420.39655 101.934478 C 422.099398 102.040906 423.802246 102.147334 425.398667 102.253762 C 427.101515 98.528782 428.910791 94.910229 430.720067 91.185249 Z M 430.720067 91.185249 " stroke="#000000" stroke-width="0.094" stroke-opacity="1" stroke-miterlimit="4"/><path stroke-linecap="butt" transform="matrix(0.0367032, 0, 0, 0.0367032, -3.383029, 5.180552)" fill-opacity="1" fill="#014d4e" fill-rule="nonzero" stroke-linejoin="miter" d="M 417.416566 95.123085 C 419.119414 95.868081 420.822262 96.613077 422.418682 97.251645 C 421.035118 97.996642 419.651554 98.741638 418.161562 99.380206 C 417.948706 97.996642 417.73585 96.506649 417.416566 95.123085 Z M 417.416566 95.123085 " stroke="#000000" stroke-width="0.094" stroke-opacity="1" stroke-miterlimit="4"/><path stroke-linecap="butt" transform="matrix(0.0367032, 0, 0, 0.0367032, -3.383029, 5.180552)" fill-opacity="1" fill="#014d4e" fill-rule="nonzero" stroke-linejoin="miter" d="M 445.513561 115.557264 C 439.766448 112.896563 445.513561 102.147334 450.94139 105.978743 C 453.708518 108.213731 454.347086 112.151567 455.73065 115.344408 C 452.53781 116.940828 448.493545 118.750104 445.513561 115.557264 Z M 445.513561 115.557264 " stroke="#000000" stroke-width="0.094" stroke-opacity="1" stroke-miterlimit="4"/><path stroke-linecap="butt" transform="matrix(0.0367032, 0, 0, 0.0367032, -3.383029, 5.180552)" fill-opacity="1" fill="#014d4e" fill-rule="nonzero" stroke-linejoin="miter" d="M 344.406949 110.342291 C 347.812645 108.320159 352.495478 104.701606 356.539742 107.468735 C 361.222575 110.661575 365.692551 114.067271 370.801096 116.515116 C 374.31322 118.537248 373.355368 123.007225 372.078232 126.200065 C 378.251057 129.073621 384.317454 132.479318 387.297438 138.75857 C 389.745282 137.800718 392.086699 136.842866 394.534543 135.778586 C 395.598823 137.268578 396.556675 138.75857 397.727383 140.248563 C 397.833811 138.439286 397.940239 134.607878 397.940239 132.692174 C 400.707368 130.882898 403.048784 128.647909 406.241624 127.264345 C 408.795897 127.157917 411.137313 128.647909 413.372301 129.605761 C 409.221609 139.077855 407.625188 150.03994 411.137313 160.044173 C 414.117297 166.429854 420.39655 170.048406 424.866527 175.050523 C 426.569375 176.753371 424.760098 179.094787 424.227958 180.904064 C 422.205826 184.948328 419.651554 190.695441 414.010869 188.886165 C 409.647321 188.779736 406.241624 185.586896 402.090932 184.735472 C 393.044551 186.43832 384.211026 191.121153 374.84536 190.163301 C 370.907524 190.056873 369.52396 185.90618 367.608256 183.24548 C 364.202559 177.498367 358.881159 173.347675 354.411182 168.451986 C 362.818995 167.387706 371.226808 166.64271 379.634621 165.365574 C 372.18466 157.702757 358.881159 165.472002 352.708334 155.999909 C 353.45333 154.190632 354.730466 152.70064 355.901174 151.210648 C 354.304754 147.272811 352.92119 143.441403 351.750482 139.397139 C 357.17831 135.991442 362.499711 132.160034 367.182544 127.583629 C 359.945439 129.925045 352.814762 133.862882 348.344785 140.248563 C 345.364801 144.186399 340.149828 144.931395 336.105564 146.847099 C 333.338435 141.844983 330.677735 136.736438 329.294171 131.095754 C 333.977004 127.157917 340.149828 125.029357 344.300521 120.55938 C 344.300521 118.005108 344.300521 112.896563 344.406949 110.342291 Z M 344.406949 110.342291 " stroke="#000000" stroke-width="0.094" stroke-opacity="1" stroke-miterlimit="4"/><path stroke-linecap="butt" transform="matrix(0.0367032, 0, 0, 0.0367032, -3.383029, 5.180552)" fill-opacity="1" fill="#014d4e" fill-rule="nonzero" stroke-linejoin="miter" d="M 414.543009 108.852299 C 416.565142 108.533015 418.693702 108.213731 420.92869 108.000875 C 419.651554 110.448719 418.374418 112.896563 416.67157 115.23798 C 415.926573 113.109419 415.181577 110.874431 414.543009 108.852299 Z M 414.543009 108.852299 " stroke="#000000" stroke-width="0.094" stroke-opacity="1" stroke-miterlimit="4"/><path stroke-linecap="butt" transform="matrix(0.0367032, 0, 0, 0.0367032, -3.383029, 5.180552)" fill-opacity="1" fill="#014d4e" fill-rule="nonzero" stroke-linejoin="miter" d="M 502.239692 119.920812 C 504.900392 119.707956 510.434649 119.175816 513.095349 118.96296 C 514.691769 121.62366 516.394618 124.177933 517.778182 127.051489 C 513.308205 128.647909 505.858244 132.479318 502.665404 127.157917 C 501.28184 125.029357 502.133264 122.262228 502.239692 119.920812 Z M 502.239692 119.920812 " stroke="#000000" stroke-width="0.094" stroke-opacity="1" stroke-miterlimit="4"/><path stroke-linecap="butt" transform="matrix(0.0367032, 0, 0, 0.0367032, -3.383029, 5.180552)" fill-opacity="1" fill="#014d4e" fill-rule="nonzero" stroke-linejoin="miter" d="M 445.513561 125.242213 C 449.451397 124.603645 453.60209 123.858649 457.646354 123.326509 C 459.774915 124.603645 462.009903 125.880781 464.244891 127.157917 C 463.606323 133.650026 463.819179 140.887131 456.79493 143.760687 C 456.582074 146.208531 456.26279 148.549948 456.049934 151.10422 C 445.832845 147.059955 445.300705 134.607878 445.513561 125.242213 Z M 445.513561 125.242213 " stroke="#000000" stroke-width="0.094" stroke-opacity="1" stroke-miterlimit="4"/><path stroke-linecap="butt" transform="matrix(0.0367032, 0, 0, 0.0367032, -3.383029, 5.180552)" fill-opacity="1" fill="#014d4e" fill-rule="nonzero" stroke-linejoin="miter" d="M 488.40405 128.328625 C 490.106898 125.667925 492.767599 124.071505 495.215443 122.1558 C 497.982571 124.922929 500.962556 127.796485 502.665404 131.521466 C 503.303972 135.246446 503.729684 139.077855 505.00682 142.696407 C 511.818213 138.864998 517.671754 133.650026 524.696003 130.350757 C 527.037419 132.90503 529.059551 135.56573 531.188111 138.439286 C 533.848812 138.332858 536.828796 137.268578 539.595924 137.800718 C 543.108049 138.971426 545.449465 142.483551 549.174445 143.334975 C 556.517978 144.824967 563.967939 145.995675 571.205044 148.017808 C 569.28934 149.188516 567.480064 150.465652 565.670787 151.742788 C 568.22506 154.403488 570.247192 157.489901 572.801464 160.150601 C 578.442149 162.811301 584.402118 165.791286 590.787798 164.939862 C 596.534911 163.98201 600.685604 168.77127 605.68772 170.686974 C 607.390568 168.132702 608.986989 165.57843 610.583409 163.024157 C 612.711969 164.620578 614.734101 166.323426 616.649806 168.026274 C 615.053385 170.048406 613.350537 172.070538 611.754117 174.199099 C 614.201961 176.221231 616.649806 178.243363 618.991222 180.159067 C 617.714086 181.223348 616.43695 182.1812 615.159813 183.139052 C 616.224094 185.161184 617.181946 187.289744 618.352654 189.311877 C 614.201961 188.886165 610.157697 188.247596 606.326288 187.183316 C 606.432716 184.30976 606.539144 181.542632 606.432716 178.669075 C 603.55916 179.839783 600.89846 181.64906 597.918475 182.1812 C 594.938491 182.074772 591.958507 180.691208 589.08495 180.052639 C 590.362086 184.096904 591.000655 188.247596 590.255658 192.291861 C 599.408468 200.806102 611.754117 203.786086 622.716202 209.213915 C 622.077634 210.384623 621.545494 211.555331 620.906926 212.832467 C 623.674054 214.535316 626.547611 216.025308 629.421167 217.834584 C 619.416934 218.04744 609.093417 215.38674 599.195612 218.57958 C 604.942724 221.985276 611.647689 223.155985 617.714086 225.603829 C 620.906926 228.051673 623.567626 231.031658 626.441183 233.905214 C 614.734101 232.202366 602.388452 232.947362 591.213511 228.690241 C 583.869978 224.858833 576.100733 221.878848 567.905776 220.495284 C 561.626523 221.133852 557.050118 226.242397 551.409434 228.796669 C 550.55801 227.093821 548.855161 223.688125 548.110165 222.091705 C 552.792998 216.557448 558.433683 211.661759 564.393651 207.723923 C 561.839379 201.551098 562.477947 194.846133 565.457931 188.779736 C 565.670787 182.1812 559.072251 177.285511 553.857278 174.305527 C 545.023753 169.516266 535.55166 165.152718 525.760283 162.704873 C 514.904625 163.343441 504.47468 169.30341 493.406167 166.961994 C 486.701202 164.939862 478.293389 165.152718 474.355552 158.341325 C 476.271257 157.596329 478.293389 156.957761 480.209093 156.319193 C 477.229109 154.29706 472.86556 152.913496 472.014136 148.97566 C 470.524144 143.228547 470.524144 136.736438 473.291272 131.30861 C 475.951973 128.647909 479.676953 127.051489 482.976222 125.242213 C 482.231225 129.605761 480.847661 133.756454 480.954089 138.22643 C 482.763365 143.547831 484.998354 148.97566 487.020486 154.29706 C 490.106898 156.212765 492.980455 154.935628 494.044735 151.849216 C 493.725451 147.592096 488.616906 145.463535 488.084766 141.312843 C 487.765482 136.949294 487.659054 132.585746 488.40405 128.328625 Z M 488.40405 128.328625 " stroke="#000000" stroke-width="0.094" stroke-opacity="1" stroke-miterlimit="4"/><path stroke-linecap="butt" transform="matrix(0.0367032, 0, 0, 0.0367032, -3.383029, 5.180552)" fill-opacity="1" fill="#014d4e" fill-rule="nonzero" stroke-linejoin="miter" d="M 423.376534 132.479318 C 427.952939 126.945061 435.4029 127.051489 441.788581 128.328625 C 444.236425 131.415038 441.682153 135.03359 439.872876 137.69429 C 442.746433 140.780703 449.344969 144.824967 445.832845 149.720656 C 443.385001 152.487784 441.895009 159.086321 437.212176 157.809185 C 429.868643 152.594212 421.780114 146.527815 420.183694 136.949294 C 422.418682 137.16215 424.65367 137.481434 426.888659 137.800718 C 425.717951 135.991442 424.547242 134.182166 423.376534 132.479318 Z M 423.376534 132.479318 " stroke="#000000" stroke-width="0.094" stroke-opacity="1" stroke-miterlimit="4"/><g clip-path="url(#349d93b3e6)"><path stroke-linecap="butt" transform="matrix(0.0367032, 0, 0, 0.0367032, -3.383029, 5.180552)" fill-opacity="1" fill="#014d4e" fill-rule="nonzero" stroke-linejoin="miter" d="M 254.155994 130.989326 C 260.222391 135.56573 265.650219 140.674275 271.610188 145.357107 C 274.6966 148.017808 278.634437 145.782819 281.827277 144.505683 C 287.361534 148.230664 294.279355 147.698524 300.771464 148.230664 C 298.749331 150.252796 296.940055 152.381356 295.343635 154.722772 C 301.197176 153.552064 307.157144 152.594212 312.797829 150.252796 C 313.968537 154.722772 315.139245 159.086321 316.842093 163.449869 C 318.757798 162.385589 320.77993 161.427737 322.802062 160.257029 C 323.014918 161.534165 323.334202 162.704873 323.547058 163.875581 C 333.870576 164.939862 341.10768 173.347675 348.983353 178.881931 C 352.708334 181.861916 357.816878 181.861916 361.435431 185.054756 C 360.264723 187.715456 357.923306 189.311877 355.794746 191.121153 C 359.094015 194.952561 361.967571 199.84825 367.182544 201.231814 C 371.971804 201.551098 376.654637 200.699674 381.550325 201.018958 C 385.275306 202.189666 388.574574 204.424654 391.767415 206.446787 C 394.640971 203.147518 396.556675 198.145402 401.452364 197.293978 C 405.3902 195.165417 408.583041 198.145402 411.882309 199.635394 C 419.225842 202.189666 425.717951 209.001059 434.125764 206.340359 C 439.66002 206.553215 440.617872 200.167534 443.065717 196.442553 C 440.298588 194.739705 437.425032 193.143285 434.551476 191.546865 C 435.828612 187.609028 437.425032 183.77762 439.447164 180.265495 C 443.385001 183.351908 447.003553 186.864032 450.834962 190.056873 C 448.387117 192.398289 445.513561 194.526849 444.449281 197.71969 C 445.513561 199.954678 447.322837 201.97681 449.025685 203.998942 C 453.60209 199.954678 457.85921 195.591129 461.264907 190.482585 C 457.539926 188.03474 455.092082 183.990476 456.049934 179.094787 C 453.176378 177.285511 449.664253 175.901947 448.280689 172.602679 C 447.216409 166.11057 449.664253 160.044173 452.218526 154.084204 C 452.857094 154.084204 454.240658 153.977776 454.879226 153.977776 C 462.435615 165.472002 465.522027 179.201215 473.92984 190.056873 C 475.206977 189.950445 476.484113 189.950445 477.867677 189.950445 C 478.931957 187.715456 479.996237 185.480468 481.060517 183.351908 C 483.721218 188.247596 484.14693 193.994709 486.169062 199.209682 C 488.297622 203.04109 491.384035 206.127503 494.470447 209.107487 C 495.321871 207.830351 496.173295 206.553215 496.811863 205.16965 C 498.727567 194.526849 499.898276 183.351908 498.195427 172.602679 C 504.155396 172.815535 510.541077 172.602679 515.862477 175.582663 C 516.28819 179.520499 516.607474 183.351908 517.458898 187.076888 C 519.906742 191.866149 525.334571 196.229697 523.099582 202.189666 C 521.822446 206.446787 520.651738 212.300327 515.436765 212.832467 C 510.115365 214.748172 504.47468 214.748172 499.046851 215.706024 C 502.452548 224.858833 497.237575 233.798786 494.044735 242.206599 C 492.767599 244.654443 489.681186 245.186583 487.552626 246.570147 C 485.636922 251.465836 486.594774 258.490085 481.486229 261.470069 C 473.078416 267.430038 471.694852 278.604979 467.437732 287.332076 C 463.925607 297.229882 461.477763 309.149819 466.586308 319.047624 C 470.417716 318.72834 474.142696 318.1962 477.761249 318.302628 C 481.060517 324.049741 480.528377 331.180418 482.550509 337.45967 C 489.361902 337.566098 497.131147 332.13827 503.623256 336.501818 C 507.986805 339.162519 513.627489 339.694659 517.35247 343.526067 C 525.760283 351.082456 537.68022 355.020293 548.855161 352.99816 C 553.005854 352.572448 557.050118 352.359592 561.094383 352.572448 C 560.030103 357.255281 557.688687 362.683109 560.349387 367.365942 C 564.074367 373.645195 564.712935 383.436572 572.48218 386.2037 C 577.697153 386.948696 581.209277 390.673677 583.018554 395.356509 C 588.127098 395.888649 594.406351 393.547233 595.470631 388.119405 C 595.577059 383.223716 596.960623 377.476603 593.554927 373.432339 C 588.872094 366.514518 585.35997 358.958129 579.932141 352.785304 C 583.976406 346.293195 588.55281 340.120371 592.916359 333.841118 C 595.577059 330.00971 595.151347 324.794737 593.022787 320.8569 C 589.297806 314.045508 584.721402 307.446971 580.144997 301.167718 C 575.781449 300.103438 567.267208 300.742006 567.373636 294.249897 C 569.502196 290.844201 573.227176 288.502785 574.930025 284.884232 C 575.249309 282.223532 572.907892 280.414256 571.4179 278.604979 C 568.118632 275.518567 566.309356 271.04859 565.457931 266.685042 C 564.500079 261.789353 561.732951 257.638661 560.349387 252.8494 C 566.415784 252.210832 572.907892 252.423688 578.442149 249.550132 C 581.741417 247.528 584.934258 250.295128 588.127098 251.146552 C 596.322055 252.742972 604.62344 253.38154 613.031253 253.38154 C 616.224094 259.235081 619.310506 265.088622 622.077634 271.04859 C 623.674054 274.028575 621.651922 277.327843 621.119782 280.307828 C 623.141914 281.052824 624.951191 281.79782 626.973323 282.542816 C 627.931175 280.414256 628.782599 278.179267 629.634023 276.050707 C 634.423284 276.050707 639.212544 276.476419 644.001805 276.795703 C 645.385369 270.622878 650.068202 264.237198 647.301073 257.851517 C 646.130365 254.339392 645.598225 250.72084 644.959657 247.102288 C 651.558194 252.104404 659.327439 255.722957 664.329555 262.534349 C 665.71312 262.002209 667.096684 261.363641 668.586676 260.937929 C 669.4381 262.747205 670.076668 264.450054 671.03452 266.25933 C 680.506613 265.940046 684.231594 277.434271 692.320123 280.307828 C 697.322239 282.32996 702.005072 284.884232 707.220045 286.267796 C 713.605725 286.267796 719.884978 284.245664 725.951375 282.117104 C 728.824931 284.777804 731.592059 287.438504 734.359188 290.099205 C 739.148448 290.737773 745.427701 288.715641 748.833398 293.185617 C 751.91981 297.017026 757.986207 300.635578 756.389786 306.276263 C 755.219078 311.597663 753.729086 317.451204 748.72697 320.750472 C 741.702721 324.475453 743.618425 333.628262 740.532013 339.801087 C 736.168464 345.228915 729.569927 347.783188 722.97139 349.486036 C 712.541445 355.552433 700.089368 357.893849 690.723703 365.982378 C 691.255843 369.920214 692.000839 373.751623 692.745835 377.583031 C 687.318006 381.94658 681.783749 386.948696 679.974473 393.866517 C 678.271625 401.635762 677.420201 409.405007 676.036637 417.067824 C 673.16308 423.027793 668.37382 427.497769 664.755267 432.81917 C 660.923859 438.566283 659.327439 445.590531 655.070318 451.124788 C 649.11035 459.639029 642.937525 468.15327 635.16828 475.071091 C 630.166163 478.051075 624.312623 479.115355 618.991222 481.243916 C 615.90481 482.733908 614.627673 486.246032 613.137681 489.119589 C 616.117666 489.864585 619.09765 490.609581 622.184062 491.141721 C 611.541261 495.398841 600.579176 499.549534 591.852079 507.318779 C 590.362086 501.784522 593.448499 497.208118 595.896343 492.631713 C 595.789915 486.8846 595.683487 481.243916 596.747767 475.603231 C 601.217744 475.071091 606.432716 476.561083 610.264125 473.900383 C 608.135565 466.131138 600.153464 460.809737 592.490647 459.426173 C 591.107083 462.512585 589.723518 465.49257 588.127098 468.472554 C 580.889993 467.195418 573.333604 466.982562 566.415784 464.641146 C 562.797231 457.936181 561.413667 450.273364 559.072251 443.142687 C 556.517978 443.674827 553.963706 444.526251 551.409434 444.526251 C 548.216593 442.184835 547.045885 437.182718 542.682337 436.650578 C 538.531644 436.01201 534.274524 436.331294 530.230259 436.650578 C 524.589575 439.524135 521.503162 445.271247 517.671754 449.95408 C 510.008937 449.315512 502.133264 446.548384 494.470447 448.996228 C 485.956206 449.634796 478.399817 443.887683 469.992004 443.355543 C 447.322837 441.546267 424.547242 445.484103 401.984504 443.249115 C 371.758948 440.694843 341.533392 438.246999 311.520693 433.457738 C 291.086514 429.413473 270.97162 423.666361 250.963154 418.132104 C 248.196025 416.854968 244.045333 416.854968 242.448913 413.874984 C 240.320352 409.937147 238.29822 405.892883 235.956804 402.061474 C 233.296103 397.697926 233.083247 392.482953 232.018967 387.587264 C 229.996835 387.587264 227.974703 387.693692 225.952571 387.80012 C 222.653302 382.585148 218.50261 377.795887 216.054765 372.048775 C 214.884057 367.046658 219.141178 362.895965 218.609038 357.893849 C 217.97047 350.8696 217.119045 343.845351 213.819777 337.566098 C 209.988369 332.351126 214.990485 327.349009 217.119045 322.666177 C 216.267621 321.38904 215.522625 320.111904 214.671201 318.834768 C 217.651186 316.386924 221.16331 313.513368 219.673318 309.043391 C 218.396182 293.717757 218.609038 278.285695 216.799761 263.066489 C 213.819777 256.787237 206.263388 254.871532 200.090563 253.38154 C 196.365583 243.590163 194.982019 232.947362 188.702766 224.220265 C 187.212774 222.198133 186.787062 219.64386 188.48991 217.621728 C 210.201225 188.56688 231.167543 158.979893 254.155994 130.989326 Z M 254.155994 130.989326 " stroke="#000000" stroke-width="0.094" stroke-opacity="1" stroke-miterlimit="4"/></g><path stroke-linecap="butt" transform="matrix(0.0367032, 0, 0, 0.0367032, -3.383029, 5.180552)" fill-opacity="1" fill="#014d4e" fill-rule="nonzero" stroke-linejoin="miter" d="M 483.08265 133.756454 C 484.040502 135.56573 484.891926 137.481434 485.849778 139.397139 C 485.21121 139.397139 484.040502 139.609995 483.295506 139.609995 C 483.189078 137.69429 483.189078 135.672158 483.08265 133.756454 Z M 483.08265 133.756454 " stroke="#000000" stroke-width="0.094" stroke-opacity="1" stroke-miterlimit="4"/><path stroke-linecap="butt" transform="matrix(0.0367032, 0, 0, 0.0367032, -3.383029, 5.180552)" fill-opacity="1" fill="#014d4e" fill-rule="nonzero" stroke-linejoin="miter" d="M 489.149046 149.5078 C 490.958322 148.44352 492.235459 151.529932 490.639038 152.274928 C 488.829762 153.445636 487.659054 150.252796 489.149046 149.5078 Z M 489.149046 149.5078 " stroke="#000000" stroke-width="0.094" stroke-opacity="1" stroke-miterlimit="4"/><path stroke-linecap="butt" transform="matrix(0.0367032, 0, 0, 0.0367032, -3.383029, 5.180552)" fill-opacity="1" fill="#014d4e" fill-rule="nonzero" stroke-linejoin="miter" d="M 525.547427 171.112686 C 526.824563 171.751254 527.995271 172.389823 529.165979 173.134819 C 527.888843 174.624811 526.718135 176.008375 525.440999 177.498367 C 525.547427 175.901947 525.547427 172.709107 525.547427 171.112686 Z M 525.547427 171.112686 " stroke="#000000" stroke-width="0.094" stroke-opacity="1" stroke-miterlimit="4"/><path stroke-linecap="butt" transform="matrix(0.0367032, 0, 0, 0.0367032, -3.383029, 5.180552)" fill-opacity="1" fill="#014d4e" fill-rule="nonzero" stroke-linejoin="miter" d="M 538.318788 171.219114 C 539.170212 169.83555 541.618057 171.219114 540.447348 172.602679 C 539.595924 173.986243 537.14808 172.496251 538.318788 171.219114 Z M 538.318788 171.219114 " stroke="#000000" stroke-width="0.094" stroke-opacity="1" stroke-miterlimit="4"/><path stroke-linecap="butt" transform="matrix(0.0367032, 0, 0, 0.0367032, -3.383029, 5.180552)" fill-opacity="1" fill="#014d4e" fill-rule="nonzero" stroke-linejoin="miter" d="M 541.192345 176.966227 C 544.917325 176.114803 548.003737 179.094787 548.535877 182.606912 C 548.855161 186.651176 551.515862 191.866149 548.748733 195.697557 C 544.810897 198.78397 539.383068 194.952561 537.893076 191.121153 C 535.125948 186.331892 537.893076 180.691208 541.192345 176.966227 Z M 541.192345 176.966227 " stroke="#000000" stroke-width="0.094" stroke-opacity="1" stroke-miterlimit="4"/><path stroke-linecap="butt" transform="matrix(0.0367032, 0, 0, 0.0367032, -3.383029, 5.180552)" fill-opacity="1" fill="#014d4e" fill-rule="nonzero" stroke-linejoin="miter" d="M 552.048002 178.030507 C 552.792998 178.030507 554.176562 178.030507 554.921558 178.030507 C 555.240842 178.456219 555.87941 179.520499 556.198694 180.052639 C 555.87941 180.478351 555.240842 181.542632 554.921558 181.968344 C 554.176562 181.968344 552.792998 181.968344 552.048002 181.968344 C 551.835146 181.542632 551.09015 180.478351 550.770866 180.052639 C 551.09015 179.520499 551.835146 178.456219 552.048002 178.030507 Z M 552.048002 178.030507 " stroke="#000000" stroke-width="0.094" stroke-opacity="1" stroke-miterlimit="4"/><path stroke-linecap="butt" transform="matrix(0.0367032, 0, 0, 0.0367032, -3.383029, 5.180552)" fill-opacity="1" fill="#014d4e" fill-rule="nonzero" stroke-linejoin="miter" d="M 391.554558 194.633277 C 396.343819 192.611145 401.452364 192.398289 406.45448 192.185433 C 401.558792 193.462569 396.556675 194.207565 391.554558 194.633277 Z M 391.554558 194.633277 " stroke="#000000" stroke-width="0.094" stroke-opacity="1" stroke-miterlimit="4"/><path stroke-linecap="butt" transform="matrix(0.0367032, 0, 0, 0.0367032, -3.383029, 5.180552)" fill-opacity="1" fill="#014d4e" fill-rule="nonzero" stroke-linejoin="miter" d="M 510.328221 218.686008 C 511.286073 220.388856 512.350353 222.091705 513.414633 223.900981 C 512.563209 223.794553 511.073217 223.581697 510.328221 223.475269 C 510.328221 221.878848 510.328221 220.282428 510.328221 218.686008 Z M 510.328221 218.686008 " stroke="#000000" stroke-width="0.094" stroke-opacity="1" stroke-miterlimit="4"/><path stroke-linecap="butt" transform="matrix(0.0367032, 0, 0, 0.0367032, -3.383029, 5.180552)" fill-opacity="1" fill="#014d4e" fill-rule="nonzero" stroke-linejoin="miter" d="M 513.627489 218.57958 C 516.713902 219.750288 519.587458 221.453136 521.716018 224.220265 C 518.523178 223.049557 515.756049 221.133852 513.627489 218.57958 Z M 513.627489 218.57958 " stroke="#000000" stroke-width="0.094" stroke-opacity="1" stroke-miterlimit="4"/><path stroke-linecap="butt" transform="matrix(0.0367032, 0, 0, 0.0367032, -3.383029, 5.180552)" fill-opacity="1" fill="#014d4e" fill-rule="nonzero" stroke-linejoin="miter" d="M 507.241808 241.887315 C 507.028952 235.608062 503.623256 229.009525 506.709668 222.943129 C 514.372485 227.838817 524.589575 227.413105 531.613823 233.266646 C 534.380952 237.098054 538.531644 239.439471 542.788765 241.248747 C 540.447348 243.377307 537.893076 245.505867 534.913092 246.889431 C 532.358819 246.250863 530.230259 244.760871 527.675987 243.803019 C 523.525294 247.315144 521.07745 252.530116 517.88461 256.787237 C 516.607474 254.97796 515.223909 253.062256 514.159629 251.25298 C 510.753933 251.891548 507.348236 252.530116 503.94254 253.062256 C 504.47468 249.230848 506.496812 245.718723 507.241808 241.887315 Z M 507.241808 241.887315 " stroke="#000000" stroke-width="0.094" stroke-opacity="1" stroke-miterlimit="4"/><path stroke-linecap="butt" transform="matrix(0.0367032, 0, 0, 0.0367032, -3.383029, 5.180552)" fill-opacity="1" fill="#014d4e" fill-rule="nonzero" stroke-linejoin="miter" d="M 561.413667 234.543782 C 562.371519 235.501634 563.542227 236.565914 564.500079 237.630194 C 563.648655 237.736622 561.839379 237.949478 560.881527 238.055906 C 560.987955 237.204482 561.307239 235.395206 561.413667 234.543782 Z M 561.413667 234.543782 " stroke="#000000" stroke-width="0.094" stroke-opacity="1" stroke-miterlimit="4"/><path stroke-linecap="butt" transform="matrix(0.0367032, 0, 0, 0.0367032, -3.383029, 5.180552)" fill-opacity="1" fill="#014d4e" fill-rule="nonzero" stroke-linejoin="miter" d="M 552.899426 238.907331 C 554.389418 239.120187 555.985838 239.226615 557.47583 239.439471 C 557.582258 240.078039 557.901543 241.355175 558.114399 242.100171 C 556.624406 241.887315 555.027986 241.780887 553.537994 241.568031 C 553.431566 240.929463 553.112282 239.652327 552.899426 238.907331 Z M 552.899426 238.907331 " stroke="#000000" stroke-width="0.094" stroke-opacity="1" stroke-miterlimit="4"/><path stroke-linecap="butt" transform="matrix(0.0367032, 0, 0, 0.0367032, -3.383029, 5.180552)" fill-opacity="1" fill="#014d4e" fill-rule="nonzero" stroke-linejoin="miter" d="M 576.526445 239.333043 C 577.377869 238.055906 579.400001 239.652327 578.548577 240.716607 C 577.590725 241.887315 575.568593 240.397323 576.526445 239.333043 Z M 576.526445 239.333043 " stroke="#000000" stroke-width="0.094" stroke-opacity="1" stroke-miterlimit="4"/><path stroke-linecap="butt" transform="matrix(0.0367032, 0, 0, 0.0367032, -3.383029, 5.180552)" fill-opacity="1" fill="#014d4e" fill-rule="nonzero" stroke-linejoin="miter" d="M 526.292423 257.425805 C 528.846695 255.084388 532.252391 254.552248 535.338804 253.487968 C 534.274524 258.809369 532.678103 263.917914 531.188111 269.132886 C 530.443115 269.026458 528.846695 269.026458 527.888843 268.92003 C 527.037419 265.301478 523.844578 261.044357 526.292423 257.425805 Z M 526.292423 257.425805 " stroke="#000000" stroke-width="0.094" stroke-opacity="1" stroke-miterlimit="4"/><path stroke-linecap="butt" transform="matrix(0.0367032, 0, 0, 0.0367032, -3.383029, 5.180552)" fill-opacity="1" fill="#014d4e" fill-rule="nonzero" stroke-linejoin="miter" d="M 545.343037 262.747205 C 544.065901 258.490085 548.003737 255.403673 550.55801 252.8494 C 551.303006 257.532233 552.15443 262.215065 552.367286 266.897898 C 550.345154 265.407906 545.875177 265.940046 545.343037 262.747205 Z M 545.343037 262.747205 " stroke="#000000" stroke-width="0.094" stroke-opacity="1" stroke-miterlimit="4"/><g clip-path="url(#117fae886a)"><path stroke-linecap="butt" transform="matrix(0.0367032, 0, 0, 0.0367032, -3.383029, 5.180552)" fill-opacity="1" fill="#014d4e" fill-rule="nonzero" stroke-linejoin="miter" d="M 758.624775 312.449087 C 758.518347 308.404823 763.094751 307.446971 765.86188 306.063407 C 767.351872 313.087655 767.4583 320.111904 768.096868 327.242581 C 769.374004 325.752589 770.65114 324.156169 772.034704 322.666177 C 774.801833 324.156169 777.675389 325.752589 780.655373 327.029725 C 784.380354 324.262597 788.211762 321.495468 792.681739 320.111904 C 793.107451 322.879033 793.533163 325.646161 793.852447 328.413289 C 796.406719 327.561865 798.748136 326.816869 801.302408 325.965445 C 800.770268 330.54185 801.302408 335.011826 802.153832 339.375375 C 803.537396 336.608246 804.708104 333.947546 805.98524 331.180418 C 808.326657 333.415406 810.880929 335.437538 812.796633 338.098238 C 813.860913 341.078223 813.967341 344.483919 814.605909 347.67676 C 809.178081 348.74104 803.750252 347.996044 799.386704 344.377491 C 798.215995 348.528184 797.151715 352.678876 793.852447 355.552433 C 792.788167 345.761055 784.806066 351.93388 780.761801 354.59458 C 773.418268 358.532417 767.884012 365.34381 760.221195 368.430222 C 759.901911 361.831685 756.921926 355.552433 758.092635 348.953896 C 759.050487 336.821102 758.731203 324.581881 758.624775 312.449087 Z M 758.624775 312.449087 " stroke="#000000" stroke-width="0.094" stroke-opacity="1" stroke-miterlimit="4"/></g><g clip-path="url(#c2b4d755bd)"><path stroke-linecap="butt" transform="matrix(0.0367032, 0, 0, 0.0367032, -3.383029, 5.180552)" fill-opacity="1" fill="#014d4e" fill-rule="nonzero" stroke-linejoin="miter" d="M 189.447762 320.8569 C 190.937754 320.8569 192.427747 320.963328 193.917739 321.069756 C 195.620587 324.049741 197.323435 326.923297 199.132711 329.796853 C 198.174859 331.499702 197.217007 333.096122 196.365583 334.692542 C 194.237023 333.308978 188.915622 334.26683 188.48991 330.648278 C 188.383482 327.349009 188.809194 324.049741 189.447762 320.8569 Z M 189.447762 320.8569 " stroke="#000000" stroke-width="0.094" stroke-opacity="1" stroke-miterlimit="4"/></g><path stroke-linecap="butt" transform="matrix(0.0367032, 0, 0, 0.0367032, -3.383029, 5.180552)" fill-opacity="1" fill="#014d4e" fill-rule="nonzero" stroke-linejoin="miter" d="M 569.608624 332.883266 C 571.311472 330.754706 573.120748 328.839001 574.930025 326.816869 C 576.207161 327.561865 577.697153 328.306861 579.080717 329.051857 C 578.655005 331.60613 578.335721 333.947546 577.910009 336.39539 C 575.142881 335.33111 572.375752 334.053974 569.608624 332.883266 Z M 569.608624 332.883266 " stroke="#000000" stroke-width="0.094" stroke-opacity="1" stroke-miterlimit="4"/><g clip-path="url(#1c6f1fa36f)"><path stroke-linecap="butt" transform="matrix(0.0367032, 0, 0, 0.0367032, -3.383029, 5.180552)" fill-opacity="1" fill="#014d4e" fill-rule="nonzero" stroke-linejoin="miter" d="M 189.979902 335.437538 C 191.789178 335.650394 193.598455 335.756822 195.514159 335.969678 C 193.385599 341.716791 194.130595 347.889616 195.407731 353.743156 C 191.363466 348.421756 190.724898 341.823219 189.979902 335.437538 Z M 189.979902 335.437538 " stroke="#000000" stroke-width="0.094" stroke-opacity="1" stroke-miterlimit="4"/></g><path stroke-linecap="butt" transform="matrix(0.0367032, 0, 0, 0.0367032, -3.383029, 5.180552)" fill-opacity="1" fill="#014d4e" fill-rule="nonzero" stroke-linejoin="miter" d="M 707.965041 363.640962 C 715.734286 356.829569 726.270659 356.403857 735.955608 357.468137 C 735.955608 359.170985 735.955608 360.767405 736.062036 362.470253 C 726.802799 363.74739 717.330706 365.556666 707.965041 363.640962 Z M 707.965041 363.640962 " stroke="#000000" stroke-width="0.094" stroke-opacity="1" stroke-miterlimit="4"/><path stroke-linecap="butt" transform="matrix(0.0367032, 0, 0, 0.0367032, -3.383029, 5.180552)" fill-opacity="1" fill="#014d4e" fill-rule="nonzero" stroke-linejoin="miter" d="M 709.987173 373.006627 C 714.244293 371.623063 721.055686 373.538767 720.949258 378.860167 C 719.139982 384.500852 712.009305 385.458704 707.858613 388.970829 C 708.071469 389.609397 708.284325 390.886533 708.497181 391.525101 C 712.541445 391.525101 716.479282 390.673677 720.629974 391.099389 C 724.993523 395.250081 728.079935 401.422906 733.72062 404.296462 C 742.341289 406.318595 750.642674 402.380758 758.731203 399.932914 C 759.582627 400.890766 760.434051 401.955046 761.179047 403.019326 C 757.028355 408.872867 752.98409 414.832836 747.130549 419.196384 C 740.532013 423.985645 738.722736 432.393458 734.465616 439.098423 C 731.592059 437.07629 729.250643 434.522018 727.334939 431.542034 C 733.401336 425.049925 739.04202 418.025676 743.192713 410.150003 C 732.337056 412.917131 724.567811 421.218516 717.64999 429.413473 C 714.563577 426.539917 710.625741 424.198501 708.922893 420.260664 C 707.113616 416.535684 705.623624 412.704275 703.388636 409.085723 C 697.747951 409.724291 692.213695 410.150003 686.679438 410.469287 C 685.615158 421.537801 682.84803 432.180602 681.038753 443.142687 C 674.227361 445.377675 667.522396 447.82552 660.498147 449.315512 C 663.158847 432.606314 679.548761 422.921365 684.125166 406.957163 C 686.466582 400.571482 687.850146 393.547233 691.681555 387.693692 C 697.215811 382.053008 703.17578 376.838035 709.987173 373.006627 Z M 709.987173 373.006627 " stroke="#000000" stroke-width="0.094" stroke-opacity="1" stroke-miterlimit="4"/><path stroke-linecap="butt" transform="matrix(0.0367032, 0, 0, 0.0367032, -3.383029, 5.180552)" fill-opacity="1" fill="#014d4e" fill-rule="nonzero" stroke-linejoin="miter" d="M 206.476244 373.964479 C 213.074781 375.348043 216.693333 381.520868 220.950454 386.097272 C 227.655419 393.866517 233.508959 403.125754 234.360384 413.662128 C 230.103263 412.491419 225.314002 411.320711 221.801878 408.234299 C 214.458345 399.294346 210.414081 388.438689 204.0284 378.860167 C 204.773396 377.263747 205.731248 375.560899 206.476244 373.964479 Z M 206.476244 373.964479 " stroke="#000000" stroke-width="0.094" stroke-opacity="1" stroke-miterlimit="4"/><path stroke-linecap="butt" transform="matrix(0.0367032, 0, 0, 0.0367032, -3.383029, 5.180552)" fill-opacity="1" fill="#014d4e" fill-rule="nonzero" stroke-linejoin="miter" d="M 569.395768 379.073023 C 571.205044 377.263747 573.333604 375.880183 575.568593 374.922331 C 573.759316 376.731607 571.737184 378.115171 569.395768 379.073023 Z M 569.395768 379.073023 " stroke="#000000" stroke-width="0.094" stroke-opacity="1" stroke-miterlimit="4"/><path stroke-linecap="butt" transform="matrix(0.0367032, 0, 0, 0.0367032, -3.383029, 5.180552)" fill-opacity="1" fill="#014d4e" fill-rule="nonzero" stroke-linejoin="miter" d="M 760.114767 379.073023 C 761.498331 381.520868 763.201179 383.862284 763.414035 386.842268 C 763.094751 390.354393 760.753335 393.440805 758.518347 396.101505 C 758.518347 390.354393 758.092635 384.500852 760.114767 379.073023 Z M 760.114767 379.073023 " stroke="#000000" stroke-width="0.094" stroke-opacity="1" stroke-miterlimit="4"/><path stroke-linecap="butt" transform="matrix(0.0367032, 0, 0, 0.0367032, -3.383029, 5.180552)" fill-opacity="1" fill="#014d4e" fill-rule="nonzero" stroke-linejoin="miter" d="M 766.074736 386.097272 C 767.139016 386.097272 768.948292 386.310128 769.906144 386.416556 C 767.99044 390.035109 765.649024 393.334377 763.414035 396.633646 C 764.159031 393.015093 765.223311 389.609397 766.074736 386.097272 Z M 766.074736 386.097272 " stroke="#000000" stroke-width="0.094" stroke-opacity="1" stroke-miterlimit="4"/><path stroke-linecap="butt" transform="matrix(0.0367032, 0, 0, 0.0367032, -3.383029, 5.180552)" fill-opacity="1" fill="#014d4e" fill-rule="nonzero" stroke-linejoin="miter" d="M 732.549912 395.675793 C 739.361304 395.569365 746.279125 394.930797 752.877662 392.908665 C 752.664806 394.930797 752.558378 396.95293 751.91981 398.975062 C 745.427701 401.422906 738.297024 401.422906 731.804915 399.400774 C 732.017771 398.230066 732.230628 396.95293 732.549912 395.675793 Z M 732.549912 395.675793 " stroke="#000000" stroke-width="0.094" stroke-opacity="1" stroke-miterlimit="4"/></svg>