<svg xmlns="http://www.w3.org/2000/svg" xmlns:xlink="http://www.w3.org/1999/xlink" width="40" zoomAndPan="magnify" viewBox="0 0 30 30.000001" height="40" preserveAspectRatio="xMidYMid meet" version="1.0"><defs><clipPath id="cfa2f0c06b"><path d="M 12 5.246094 L 15 5.246094 L 15 9 L 12 9 Z M 12 5.246094 " clip-rule="nonzero"/></clipPath><clipPath id="d4d2db8ed2"><path d="M 3.386719 9 L 25 9 L 25 24 L 3.386719 24 Z M 3.386719 9 " clip-rule="nonzero"/></clipPath><clipPath id="db667d2908"><path d="M 24 16 L 26.613281 16 L 26.613281 19 L 24 19 Z M 24 16 " clip-rule="nonzero"/></clipPath><clipPath id="239dae9338"><path d="M 3.386719 16 L 4 16 L 4 18 L 3.386719 18 Z M 3.386719 16 " clip-rule="nonzero"/></clipPath><clipPath id="c38a121782"><path d="M 3.386719 17 L 4 17 L 4 19 L 3.386719 19 Z M 3.386719 17 " clip-rule="nonzero"/></clipPath></defs><g clip-path="url(#cfa2f0c06b)"><path stroke-linecap="butt" transform="matrix(0.0367032, 0, 0, 0.0367032, -3.383029, 5.18056)" fill-opacity="1" fill="#014d4e" fill-rule="nonzero" stroke-linejoin="miter" d="M 466.692736 7.851893 C 471.26914 5.510477 476.590541 4.659053 481.060517 2.211209 C 484.67907 4.552625 488.829762 4.978337 492.661171 3.169061 C 493.938307 7.106897 496.173295 11.78973 493.406167 15.51471 C 491.171178 18.17541 491.06475 21.687535 490.851894 24.986803 C 493.086883 24.561091 495.215443 24.348235 497.344003 24.028951 C 497.769715 29.563208 497.131147 35.310321 495.534727 40.738149 C 492.874027 44.99527 489.574758 49.145962 489.255474 54.360935 C 491.596891 54.999503 494.044735 55.638071 496.279723 56.170211 C 495.960439 62.875176 495.215443 69.580141 496.066867 76.285105 C 496.492579 78.839378 494.470447 80.755082 493.406167 82.777214 C 495.428299 83.415782 497.450431 83.947922 499.578992 84.58649 C 497.450431 87.672903 495.215443 90.759315 492.980455 93.952156 C 482.763365 95.122864 472.546276 94.910008 462.329187 95.33572 C 462.435615 88.630755 465.628455 82.564358 467.331304 76.285105 C 469.247008 77.775098 471.26914 79.371518 473.184844 81.074366 C 474.781265 80.222942 476.484113 79.26509 478.080533 78.413666 C 472.652704 76.497961 467.54416 73.411549 461.903475 71.602273 C 462.435615 65.216592 468.182728 63.939456 473.291272 64.25874 C 471.26914 61.59804 469.247008 59.043767 467.118448 56.383067 C 463.712751 61.704468 460.200627 66.91944 457.114214 72.347269 C 455.73065 75.433681 451.686386 75.752965 449.132113 77.030102 C 448.174261 72.347269 447.109981 67.45158 446.897125 62.66232 C 445.087849 61.172328 442.427149 60.108048 441.788581 57.447347 C 440.7243 51.806663 439.447164 45.953122 439.447164 40.099581 C 439.766448 37.013169 443.597857 34.884608 446.364985 36.587457 C 454.772798 40.738149 458.391351 50.210242 465.947739 55.425215 C 464.351319 52.125947 461.797047 49.25239 461.052051 45.52741 C 466.799164 42.015285 472.546276 37.545309 474.46198 30.840344 C 470.737 33.394616 467.224876 36.481029 463.180611 38.716017 C 459.987771 39.354585 456.688502 39.461013 453.60209 39.141729 C 450.196394 36.587457 446.471413 33.501044 445.939273 29.243924 C 452.750666 22.006819 460.839195 15.940422 466.692736 7.851893 Z M 466.692736 7.851893 " stroke="#000000" stroke-width="0.094" stroke-opacity="1" stroke-miterlimit="4"/></g><path stroke-linecap="butt" transform="matrix(0.0367032, 0, 0, 0.0367032, -3.383029, 5.18056)" fill-opacity="1" fill="#014d4e" fill-rule="nonzero" stroke-linejoin="miter" d="M 431.252207 49.465246 C 432.742199 50.84881 434.232192 52.232375 435.615756 53.509511 C 434.657904 53.722367 432.848627 53.935223 431.890775 54.041651 C 431.677919 52.551659 431.465063 50.955238 431.252207 49.465246 Z M 431.252207 49.465246 " stroke="#000000" stroke-width="0.094" stroke-opacity="1" stroke-miterlimit="4"/><path stroke-linecap="butt" transform="matrix(0.0367032, 0, 0, 0.0367032, -3.383029, 5.18056)" fill-opacity="1" fill="#014d4e" fill-rule="nonzero" stroke-linejoin="miter" d="M 414.330153 55.105931 C 425.930807 56.383067 437.850744 68.196576 434.019336 80.222942 C 428.697935 77.242958 423.908674 73.305121 417.948706 71.708701 C 417.73585 65.85516 413.585157 61.0659 414.330153 55.105931 Z M 414.330153 55.105931 " stroke="#000000" stroke-width="0.094" stroke-opacity="1" stroke-miterlimit="4"/><path stroke-linecap="butt" transform="matrix(0.0367032, 0, 0, 0.0367032, -3.383029, 5.18056)" fill-opacity="1" fill="#014d4e" fill-rule="nonzero" stroke-linejoin="miter" d="M 396.024535 63.939456 C 399.004519 63.513744 401.984504 63.19446 404.964488 62.768748 C 404.964488 64.684452 404.964488 68.409433 404.964488 70.325137 C 401.878076 69.686569 398.898091 69.048001 395.918107 68.196576 C 396.024535 66.813012 396.024535 65.429448 396.024535 63.939456 Z M 396.024535 63.939456 " stroke="#000000" stroke-width="0.094" stroke-opacity="1" stroke-miterlimit="4"/><path stroke-linecap="butt" transform="matrix(0.0367032, 0, 0, 0.0367032, -3.383029, 5.18056)" fill-opacity="1" fill="#014d4e" fill-rule="nonzero" stroke-linejoin="miter" d="M 437.957172 67.025868 C 440.405016 67.238724 442.852861 67.98372 445.087849 68.728717 C 444.555709 73.624405 441.575725 77.66867 436.892892 79.052234 C 437.105748 75.114397 437.53146 70.963705 437.957172 67.025868 Z M 437.957172 67.025868 " stroke="#000000" stroke-width="0.094" stroke-opacity="1" stroke-miterlimit="4"/><path stroke-linecap="butt" transform="matrix(0.0367032, 0, 0, 0.0367032, -3.383029, 5.18056)" fill-opacity="1" fill="#014d4e" fill-rule="nonzero" stroke-linejoin="miter" d="M 377.186777 76.710818 C 381.231041 77.13653 384.743166 74.795113 388.361718 73.730833 C 386.552442 78.73295 384.849594 85.544343 379.315337 87.672903 C 371.226808 88.098615 364.202559 93.313588 356.007602 92.675019 C 356.007602 90.759315 356.11403 87.140763 356.11403 85.225059 C 359.732583 82.777214 363.244707 80.116514 366.86326 77.987954 C 369.949672 76.072249 373.78108 76.923674 377.186777 76.710818 Z M 377.186777 76.710818 " stroke="#000000" stroke-width="0.094" stroke-opacity="1" stroke-miterlimit="4"/><path stroke-linecap="butt" transform="matrix(0.0367032, 0, 0, 0.0367032, -3.383029, 5.18056)" fill-opacity="1" fill="#014d4e" fill-rule="nonzero" stroke-linejoin="miter" d="M 391.980271 75.752965 C 396.343819 74.795113 400.60094 74.156545 404.85806 73.943689 C 404.006636 75.859393 403.26164 78.094382 401.558792 79.690802 C 398.472379 81.074366 395.066683 79.903658 391.980271 79.371518 C 391.980271 78.413666 391.980271 76.60439 391.980271 75.752965 Z M 391.980271 75.752965 " stroke="#000000" stroke-width="0.094" stroke-opacity="1" stroke-miterlimit="4"/><path stroke-linecap="butt" transform="matrix(0.0367032, 0, 0, 0.0367032, -3.383029, 5.18056)" fill-opacity="1" fill="#014d4e" fill-rule="nonzero" stroke-linejoin="miter" d="M 415.394433 84.799346 C 414.117297 82.564358 413.691585 80.010086 414.223725 77.455814 C 414.649437 79.903658 415.181577 82.351502 415.394433 84.799346 Z M 415.394433 84.799346 " stroke="#000000" stroke-width="0.094" stroke-opacity="1" stroke-miterlimit="4"/><path stroke-linecap="butt" transform="matrix(0.0367032, 0, 0, 0.0367032, -3.383029, 5.18056)" fill-opacity="1" fill="#014d4e" fill-rule="nonzero" stroke-linejoin="miter" d="M 444.023569 78.307238 C 447.748549 77.881526 451.047818 79.052234 453.06995 82.245074 C 449.983538 82.245074 447.109981 82.245074 444.023569 82.245074 C 444.023569 81.180794 444.023569 79.158662 444.023569 78.307238 Z M 444.023569 78.307238 " stroke="#000000" stroke-width="0.094" stroke-opacity="1" stroke-miterlimit="4"/><path stroke-linecap="butt" transform="matrix(0.0367032, 0, 0, 0.0367032, -3.383029, 5.18056)" fill-opacity="1" fill="#014d4e" fill-rule="nonzero" stroke-linejoin="miter" d="M 389.213142 83.947922 C 391.128846 83.415782 391.660987 86.608623 389.85171 87.034335 C 387.936006 87.566475 387.297438 84.373634 389.213142 83.947922 Z M 389.213142 83.947922 " stroke="#000000" stroke-width="0.094" stroke-opacity="1" stroke-miterlimit="4"/><path stroke-linecap="butt" transform="matrix(0.0367032, 0, 0, 0.0367032, -3.383029, 5.18056)" fill-opacity="1" fill="#014d4e" fill-rule="nonzero" stroke-linejoin="miter" d="M 395.385967 89.907891 C 397.833811 87.460047 400.175228 85.118631 402.942356 82.99007 C 404.219492 87.779331 404.751632 92.675019 405.603056 97.46428 C 407.838044 96.93214 409.860177 96.293572 412.095165 95.655004 C 413.265873 102.040685 414.117297 111.832062 406.028768 113.747766 C 399.323803 113.53491 393.150979 115.66347 386.765298 117.685602 C 383.99817 118.537027 381.656753 115.982754 379.421765 114.59919 C 380.060333 113.53491 380.698901 112.364202 381.443897 111.299922 C 384.53031 110.34207 387.616722 109.277789 390.703134 108.107081 C 386.765298 107.255657 382.933889 107.149229 379.208909 108.532793 C 373.78108 111.619206 369.736816 105.020669 368.033968 100.869976 C 366.437547 96.080716 370.801096 93.7393 373.674652 91.291455 C 372.823228 94.058584 371.758948 96.93214 371.013952 99.805696 C 376.122497 97.251424 379.102481 90.759315 384.849594 90.120747 C 390.703134 93.313588 393.470263 100.65712 400.175228 102.785681 C 399.110947 98.315704 397.301671 94.058584 395.385967 89.907891 Z M 395.385967 89.907891 " stroke="#000000" stroke-width="0.094" stroke-opacity="1" stroke-miterlimit="4"/><path stroke-linecap="butt" transform="matrix(0.0367032, 0, 0, 0.0367032, -3.383029, 5.18056)" fill-opacity="1" fill="#014d4e" fill-rule="nonzero" stroke-linejoin="miter" d="M 438.489312 87.247191 C 447.003553 87.140763 455.092082 90.227175 462.648471 93.632872 C 461.903475 95.86786 461.052051 98.102848 460.200627 100.444264 C 465.841311 101.402116 472.014136 104.275673 477.548393 101.295688 C 480.315521 100.018552 482.869793 97.570708 486.062634 98.634988 C 491.06475 99.486412 499.046851 101.295688 497.876143 107.787797 C 495.215443 112.044918 490.426182 114.279906 486.488346 117.366318 C 477.441965 121.942723 468.182728 115.237758 458.923491 114.918474 C 455.517794 110.980638 455.411366 104.807813 452.53781 100.550692 C 449.557825 98.102848 444.981421 98.741416 443.065717 94.910008 C 441.150012 92.675019 439.66002 90.014319 438.489312 87.247191 Z M 438.489312 87.247191 " stroke="#000000" stroke-width="0.094" stroke-opacity="1" stroke-miterlimit="4"/><path stroke-linecap="butt" transform="matrix(0.0367032, 0, 0, 0.0367032, -3.383029, 5.18056)" fill-opacity="1" fill="#014d4e" fill-rule="nonzero" stroke-linejoin="miter" d="M 417.522994 91.078599 C 418.480846 89.801463 420.715834 91.397883 419.651554 92.675019 C 418.693702 93.952156 416.458713 92.355735 417.522994 91.078599 Z M 417.522994 91.078599 " stroke="#000000" stroke-width="0.094" stroke-opacity="1" stroke-miterlimit="4"/><path stroke-linecap="butt" transform="matrix(0.0367032, 0, 0, 0.0367032, -3.383029, 5.18056)" fill-opacity="1" fill="#014d4e" fill-rule="nonzero" stroke-linejoin="miter" d="M 430.720067 91.185027 C 433.27434 92.355735 438.170028 92.142879 439.447164 95.548576 C 441.043584 101.18926 439.979304 108.532793 434.551476 111.619206 C 428.378651 115.344186 427.314371 108.958505 427.207943 105.020669 C 424.440814 105.552809 421.99297 104.169245 420.39655 101.934257 C 422.099398 102.040685 423.802246 102.147113 425.398667 102.253541 C 427.101515 98.52856 428.910791 94.910008 430.720067 91.185027 Z M 430.720067 91.185027 " stroke="#000000" stroke-width="0.094" stroke-opacity="1" stroke-miterlimit="4"/><path stroke-linecap="butt" transform="matrix(0.0367032, 0, 0, 0.0367032, -3.383029, 5.18056)" fill-opacity="1" fill="#014d4e" fill-rule="nonzero" stroke-linejoin="miter" d="M 417.416566 95.122864 C 419.119414 95.86786 420.822262 96.612856 422.418682 97.251424 C 421.035118 97.99642 419.651554 98.741416 418.161562 99.379984 C 417.948706 97.99642 417.73585 96.506428 417.416566 95.122864 Z M 417.416566 95.122864 " stroke="#000000" stroke-width="0.094" stroke-opacity="1" stroke-miterlimit="4"/><path stroke-linecap="butt" transform="matrix(0.0367032, 0, 0, 0.0367032, -3.383029, 5.18056)" fill-opacity="1" fill="#014d4e" fill-rule="nonzero" stroke-linejoin="miter" d="M 445.513561 115.557042 C 439.766448 112.896342 445.513561 102.147113 450.94139 105.978521 C 453.708518 108.213509 454.347086 112.151346 455.73065 115.344186 C 452.53781 116.940606 448.493545 118.749883 445.513561 115.557042 Z M 445.513561 115.557042 " stroke="#000000" stroke-width="0.094" stroke-opacity="1" stroke-miterlimit="4"/><path stroke-linecap="butt" transform="matrix(0.0367032, 0, 0, 0.0367032, -3.383029, 5.18056)" fill-opacity="1" fill="#014d4e" fill-rule="nonzero" stroke-linejoin="miter" d="M 344.406949 110.34207 C 347.812645 108.319937 352.495478 104.701385 356.539742 107.468513 C 361.222575 110.661354 365.692551 114.06705 370.801096 116.514894 C 374.31322 118.537027 373.355368 123.007003 372.078232 126.199843 C 378.251057 129.0734 384.317454 132.479096 387.297438 138.758349 C 389.745282 137.800497 392.086699 136.842645 394.534543 135.778365 C 395.598823 137.268357 396.556675 138.758349 397.727383 140.248341 C 397.833811 138.439065 397.940239 134.607656 397.940239 132.691952 C 400.707368 130.882676 403.048784 128.647688 406.241624 127.264124 C 408.795897 127.157696 411.137313 128.647688 413.372301 129.60554 C 409.221609 139.077633 407.625188 150.039718 411.137313 160.043952 C 414.117297 166.429632 420.39655 170.048185 424.866527 175.050301 C 426.569375 176.75315 424.760098 179.094566 424.227958 180.903842 C 422.205826 184.948107 419.651554 190.695219 414.010869 188.885943 C 409.647321 188.779515 406.241624 185.586675 402.090932 184.735251 C 393.044551 186.438099 384.211026 191.120931 374.84536 190.163079 C 370.907524 190.056651 369.52396 185.905959 367.608256 183.245258 C 364.202559 177.498146 358.881159 173.347453 354.411182 168.451765 C 362.818995 167.387484 371.226808 166.642488 379.634621 165.365352 C 372.18466 157.702535 358.881159 165.47178 352.708334 155.999687 C 353.45333 154.190411 354.730466 152.700419 355.901174 151.210426 C 354.304754 147.27259 352.92119 143.441182 351.750482 139.396917 C 357.17831 135.991221 362.499711 132.159812 367.182544 127.583408 C 359.945439 129.924824 352.814762 133.86266 348.344785 140.248341 C 345.364801 144.186178 340.149828 144.931174 336.105564 146.846878 C 333.338435 141.844761 330.677735 136.736217 329.294171 131.095532 C 333.977004 127.157696 340.149828 125.029135 344.300521 120.559159 C 344.300521 118.004886 344.300521 112.896342 344.406949 110.34207 Z M 344.406949 110.34207 " stroke="#000000" stroke-width="0.094" stroke-opacity="1" stroke-miterlimit="4"/><path stroke-linecap="butt" transform="matrix(0.0367032, 0, 0, 0.0367032, -3.383029, 5.18056)" fill-opacity="1" fill="#014d4e" fill-rule="nonzero" stroke-linejoin="miter" d="M 414.543009 108.852077 C 416.565142 108.532793 418.693702 108.213509 420.92869 108.000653 C 419.651554 110.448498 418.374418 112.896342 416.67157 115.237758 C 415.926573 113.109198 415.181577 110.87421 414.543009 108.852077 Z M 414.543009 108.852077 " stroke="#000000" stroke-width="0.094" stroke-opacity="1" stroke-miterlimit="4"/><path stroke-linecap="butt" transform="matrix(0.0367032, 0, 0, 0.0367032, -3.383029, 5.18056)" fill-opacity="1" fill="#014d4e" fill-rule="nonzero" stroke-linejoin="miter" d="M 502.239692 119.920591 C 504.900392 119.707735 510.434649 119.175595 513.095349 118.962739 C 514.691769 121.623439 516.394618 124.177711 517.778182 127.051268 C 513.308205 128.647688 505.858244 132.479096 502.665404 127.157696 C 501.28184 125.029135 502.133264 122.262007 502.239692 119.920591 Z M 502.239692 119.920591 " stroke="#000000" stroke-width="0.094" stroke-opacity="1" stroke-miterlimit="4"/><path stroke-linecap="butt" transform="matrix(0.0367032, 0, 0, 0.0367032, -3.383029, 5.18056)" fill-opacity="1" fill="#014d4e" fill-rule="nonzero" stroke-linejoin="miter" d="M 445.513561 125.241991 C 449.451397 124.603423 453.60209 123.858427 457.646354 123.326287 C 459.774915 124.603423 462.009903 125.880559 464.244891 127.157696 C 463.606323 133.649804 463.819179 140.886909 456.79493 143.760466 C 456.582074 146.20831 456.26279 148.549726 456.049934 151.103998 C 445.832845 147.059734 445.300705 134.607656 445.513561 125.241991 Z M 445.513561 125.241991 " stroke="#000000" stroke-width="0.094" stroke-opacity="1" stroke-miterlimit="4"/><path stroke-linecap="butt" transform="matrix(0.0367032, 0, 0, 0.0367032, -3.383029, 5.18056)" fill-opacity="1" fill="#014d4e" fill-rule="nonzero" stroke-linejoin="miter" d="M 488.40405 128.328404 C 490.106898 125.667703 492.767599 124.071283 495.215443 122.155579 C 497.982571 124.922707 500.962556 127.796264 502.665404 131.521244 C 503.303972 135.246225 503.729684 139.077633 505.00682 142.696185 C 511.818213 138.864777 517.671754 133.649804 524.696003 130.350536 C 527.037419 132.904808 529.059551 135.565509 531.188111 138.439065 C 533.848812 138.332637 536.828796 137.268357 539.595924 137.800497 C 543.108049 138.971205 545.449465 142.483329 549.174445 143.334754 C 556.517978 144.824746 563.967939 145.995454 571.205044 148.017586 C 569.28934 149.188294 567.480064 150.46543 565.670787 151.742567 C 568.22506 154.403267 570.247192 157.489679 572.801464 160.15038 C 578.442149 162.81108 584.402118 165.791064 590.787798 164.93964 C 596.534911 163.981788 600.685604 168.771049 605.68772 170.686753 C 607.390568 168.132481 608.986989 165.578208 610.583409 163.023936 C 612.711969 164.620356 614.734101 166.323204 616.649806 168.026053 C 615.053385 170.048185 613.350537 172.070317 611.754117 174.198877 C 614.201961 176.22101 616.649806 178.243142 618.991222 180.158846 C 617.714086 181.223126 616.43695 182.180978 615.159813 183.13883 C 616.224094 185.160963 617.181946 187.289523 618.352654 189.311655 C 614.201961 188.885943 610.157697 188.247375 606.326288 187.183095 C 606.432716 184.309538 606.539144 181.54241 606.432716 178.668854 C 603.55916 179.839562 600.89846 181.648838 597.918475 182.180978 C 594.938491 182.07455 591.958507 180.690986 589.08495 180.052418 C 590.362086 184.096682 591.000655 188.247375 590.255658 192.291639 C 599.408468 200.80588 611.754117 203.785865 622.716202 209.213693 C 622.077634 210.384402 621.545494 211.55511 620.906926 212.832246 C 623.674054 214.535094 626.547611 216.025086 629.421167 217.834363 C 619.416934 218.047219 609.093417 215.386518 599.195612 218.579359 C 604.942724 221.985055 611.647689 223.155763 617.714086 225.603607 C 620.906926 228.051452 623.567626 231.031436 626.441183 233.904992 C 614.734101 232.202144 602.388452 232.94714 591.213511 228.69002 C 583.869978 224.858611 576.100733 221.878627 567.905776 220.495063 C 561.626523 221.133631 557.050118 226.242176 551.409434 228.796448 C 550.55801 227.0936 548.855161 223.687903 548.110165 222.091483 C 552.792998 216.557226 558.433683 211.661538 564.393651 207.723701 C 561.839379 201.550877 562.477947 194.845912 565.457931 188.779515 C 565.670787 182.180978 559.072251 177.28529 553.857278 174.305305 C 545.023753 169.516045 535.55166 165.152496 525.760283 162.704652 C 514.904625 163.34322 504.47468 169.303189 493.406167 166.961772 C 486.701202 164.93964 478.293389 165.152496 474.355552 158.341103 C 476.271257 157.596107 478.293389 156.957539 480.209093 156.318971 C 477.229109 154.296839 472.86556 152.913275 472.014136 148.975438 C 470.524144 143.228326 470.524144 136.736217 473.291272 131.308388 C 475.951973 128.647688 479.676953 127.051268 482.976222 125.241991 C 482.231225 129.60554 480.847661 133.756232 480.954089 138.226209 C 482.763365 143.54761 484.998354 148.975438 487.020486 154.296839 C 490.106898 156.212543 492.980455 154.935407 494.044735 151.848995 C 493.725451 147.591874 488.616906 145.463314 488.084766 141.312621 C 487.765482 136.949073 487.659054 132.585524 488.40405 128.328404 Z M 488.40405 128.328404 " stroke="#000000" stroke-width="0.094" stroke-opacity="1" stroke-miterlimit="4"/><path stroke-linecap="butt" transform="matrix(0.0367032, 0, 0, 0.0367032, -3.383029, 5.18056)" fill-opacity="1" fill="#014d4e" fill-rule="nonzero" stroke-linejoin="miter" d="M 423.376534 132.479096 C 427.952939 126.94484 435.4029 127.051268 441.788581 128.328404 C 444.236425 131.414816 441.682153 135.033369 439.872876 137.694069 C 442.746433 140.780481 449.344969 144.824746 445.832845 149.720434 C 443.385001 152.487563 441.895009 159.086099 437.212176 157.808963 C 429.868643 152.593991 421.780114 146.527594 420.183694 136.949073 C 422.418682 137.161929 424.65367 137.481213 426.888659 137.800497 C 425.717951 135.991221 424.547242 134.181944 423.376534 132.479096 Z M 423.376534 132.479096 " stroke="#000000" stroke-width="0.094" stroke-opacity="1" stroke-miterlimit="4"/><g clip-path="url(#d4d2db8ed2)"><path stroke-linecap="butt" transform="matrix(0.0367032, 0, 0, 0.0367032, -3.383029, 5.18056)" fill-opacity="1" fill="#014d4e" fill-rule="nonzero" stroke-linejoin="miter" d="M 254.155994 130.989104 C 260.222391 135.565509 265.650219 140.674053 271.610188 145.356886 C 274.6966 148.017586 278.634437 145.782598 281.827277 144.505462 C 287.361534 148.230442 294.279355 147.698302 300.771464 148.230442 C 298.749331 150.252574 296.940055 152.381135 295.343635 154.722551 C 301.197176 153.551843 307.157144 152.593991 312.797829 150.252574 C 313.968537 154.722551 315.139245 159.086099 316.842093 163.449648 C 318.757798 162.385368 320.77993 161.427516 322.802062 160.256808 C 323.014918 161.533944 323.334202 162.704652 323.547058 163.87536 C 333.870576 164.93964 341.10768 173.347453 348.983353 178.88171 C 352.708334 181.861694 357.816878 181.861694 361.435431 185.054535 C 360.264723 187.715235 357.923306 189.311655 355.794746 191.120931 C 359.094015 194.95234 361.967571 199.848028 367.182544 201.231593 C 371.971804 201.550877 376.654637 200.699452 381.550325 201.018736 C 385.275306 202.189445 388.574574 204.424433 391.767415 206.552993 C 394.640971 203.147297 396.556675 198.14518 401.452364 197.293756 C 405.3902 195.165196 408.583041 198.14518 411.882309 199.635172 C 419.225842 202.189445 425.717951 209.000837 434.125764 206.340137 C 439.66002 206.552993 440.617872 200.167312 443.065717 196.442332 C 440.298588 194.739484 437.425032 193.143064 434.551476 191.546643 C 435.828612 187.608807 437.425032 183.777398 439.447164 180.265274 C 443.385001 183.351686 447.003553 186.863811 450.834962 190.056651 C 448.387117 192.398067 445.513561 194.526628 444.449281 197.719468 C 445.513561 199.954456 447.322837 201.976589 449.025685 203.998721 C 453.60209 199.954456 457.85921 195.590908 461.264907 190.482363 C 457.539926 188.034519 455.092082 183.990254 456.049934 179.094566 C 453.176378 177.28529 449.664253 175.901725 448.280689 172.602457 C 447.216409 166.110348 449.664253 160.043952 452.218526 154.083983 C 452.857094 154.083983 454.240658 153.977555 454.879226 153.977555 C 462.435615 165.47178 465.522027 179.200994 473.92984 190.056651 C 475.206977 189.950223 476.484113 189.950223 477.867677 189.950223 C 478.931957 187.715235 479.996237 185.480247 481.060517 183.351686 C 483.721218 188.247375 484.14693 193.994488 486.169062 199.20946 C 488.297622 203.040869 491.384035 206.127281 494.470447 209.107265 C 495.321871 207.830129 496.173295 206.552993 496.811863 205.169429 C 498.727567 194.526628 499.898276 183.351686 498.195427 172.602457 C 504.155396 172.815313 510.541077 172.602457 515.862477 175.582441 C 516.28819 179.520278 516.607474 183.351686 517.458898 187.076667 C 519.906742 191.865927 525.334571 196.229476 523.099582 202.189445 C 521.822446 206.446565 520.651738 212.300106 515.436765 212.832246 C 510.115365 214.74795 504.47468 214.74795 499.046851 215.705802 C 502.452548 224.858611 497.237575 233.798564 494.044735 242.206377 C 492.767599 244.654222 489.681186 245.186362 487.552626 246.569926 C 485.636922 251.465615 486.594774 258.489863 481.486229 261.469848 C 473.078416 267.429816 471.694852 278.604758 467.437732 287.331855 C 463.925607 297.22966 461.477763 309.149598 466.586308 319.047403 C 470.417716 318.728119 474.142696 318.195979 477.761249 318.302407 C 481.060517 324.049519 480.528377 331.180196 482.550509 337.459449 C 489.361902 337.565877 497.131147 332.138048 503.623256 336.501597 C 507.986805 339.162297 513.627489 339.694437 517.35247 343.525846 C 525.760283 351.082235 537.68022 355.020071 548.855161 352.997939 C 553.005854 352.572227 557.050118 352.359371 561.094383 352.572227 C 560.030103 357.255059 557.688687 362.682888 560.349387 367.365721 C 564.074367 373.644973 564.712935 383.43635 572.48218 386.203479 C 577.697153 386.948475 581.209277 390.673455 583.018554 395.356288 C 588.127098 395.888428 594.406351 393.547012 595.470631 388.119183 C 595.577059 383.223494 596.960623 377.476382 593.554927 373.432117 C 588.872094 366.514296 585.35997 358.957908 579.932141 352.785083 C 583.976406 346.292974 588.55281 340.120149 592.916359 333.840896 C 595.577059 330.009488 595.151347 324.794515 593.022787 320.856679 C 589.297806 314.045286 584.721402 307.553177 580.144997 301.167497 C 575.781449 300.103216 567.267208 300.741784 567.373636 294.249676 C 569.502196 290.843979 573.227176 288.502563 574.930025 284.884011 C 575.249309 282.22331 572.907892 280.414034 571.4179 278.604758 C 568.118632 275.518345 566.309356 271.048369 565.457931 266.68482 C 564.500079 261.789132 561.732951 257.638439 560.349387 252.849179 C 566.415784 252.210611 572.907892 252.423467 578.442149 249.54991 C 581.741417 247.527778 584.934258 250.294906 588.127098 251.146331 C 596.322055 252.742751 604.62344 253.381319 613.031253 253.381319 C 616.224094 259.234859 619.310506 265.0884 622.077634 271.048369 C 623.674054 274.028353 621.651922 277.327622 621.119782 280.307606 C 623.141914 281.052602 624.951191 281.797598 626.973323 282.542594 C 627.931175 280.414034 628.782599 278.179046 629.634023 276.050486 C 634.423284 276.050486 639.212544 276.476198 644.001805 276.795482 C 645.385369 270.622657 650.068202 264.236976 647.301073 257.851295 C 646.130365 254.339171 645.598225 250.720618 644.959657 247.102066 C 651.558194 252.104183 659.327439 255.722735 664.329555 262.534128 C 665.71312 262.001988 667.096684 261.36342 668.586676 260.937708 C 669.4381 262.746984 670.076668 264.449832 671.03452 266.259108 C 680.506613 265.939824 684.231594 277.43405 692.320123 280.307606 C 697.322239 282.329738 702.005072 284.884011 707.220045 286.267575 C 713.605725 286.267575 719.884978 284.245443 725.951375 282.116882 C 728.824931 284.777583 731.592059 287.438283 734.359188 290.098983 C 739.148448 290.737551 745.427701 288.715419 748.833398 293.185396 C 751.91981 297.016804 757.986207 300.635356 756.389786 306.276041 C 755.219078 311.597442 753.729086 317.450983 748.72697 320.750251 C 741.702721 324.475231 743.618425 333.62804 740.532013 339.800865 C 736.168464 345.228694 729.569927 347.782966 722.97139 349.485814 C 712.541445 355.552211 700.089368 357.893627 690.723703 365.982156 C 691.255843 369.919993 692.000839 373.751401 692.745835 377.58281 C 687.318006 381.946358 681.783749 386.948475 679.974473 393.866296 C 678.271625 401.635541 677.420201 409.404786 676.036637 417.067603 C 673.16308 423.027571 668.37382 427.497548 664.755267 432.818948 C 660.923859 438.566061 659.327439 445.59031 655.070318 451.124567 C 649.11035 459.638808 642.937525 468.153049 635.16828 475.070869 C 630.166163 478.050854 624.312623 479.115134 618.991222 481.243694 C 615.90481 482.733686 614.627673 486.245811 613.137681 489.119367 C 616.117666 489.864363 619.09765 490.609359 622.184062 491.141499 C 611.541261 495.39862 600.579176 499.549312 591.852079 507.318557 C 590.362086 501.784301 593.448499 497.207896 595.896343 492.631492 C 595.789915 486.884379 595.683487 481.243694 596.747767 475.60301 C 601.217744 475.070869 606.432716 476.560862 610.264125 473.900161 C 608.135565 466.130916 600.153464 460.809516 592.490647 459.425952 C 591.107083 462.512364 589.723518 465.492348 588.127098 468.472333 C 580.889993 467.195197 573.333604 466.982341 566.415784 464.640924 C 562.797231 457.935959 561.413667 450.273143 559.072251 443.142466 C 556.517978 443.674606 553.963706 444.52603 551.409434 444.52603 C 548.216593 442.184614 547.045885 437.182497 542.682337 436.650357 C 538.531644 436.011789 534.274524 436.331073 530.230259 436.650357 C 524.589575 439.523913 521.503162 445.271026 517.671754 449.953858 C 510.008937 449.31529 502.133264 446.548162 494.470447 448.996006 C 485.956206 449.634574 478.399817 443.887462 469.992004 443.355322 C 447.322837 441.546045 424.547242 445.483882 401.984504 443.248894 C 371.758948 440.694621 341.533392 438.246777 311.520693 433.457516 C 291.086514 429.413252 270.97162 423.666139 250.963154 418.131883 C 248.196025 416.854746 244.045333 416.854746 242.448913 413.874762 C 240.320352 409.936926 238.29822 405.892661 235.956804 402.061253 C 233.296103 397.697704 233.083247 392.482732 232.018967 387.587043 C 229.996835 387.587043 227.974703 387.693471 225.952571 387.799899 C 222.653302 382.584926 218.50261 377.795666 216.054765 372.048553 C 214.884057 367.046436 219.141178 362.895744 218.609038 357.893627 C 217.97047 350.869379 217.119045 343.84513 213.819777 337.565877 C 209.988369 332.350904 214.990485 327.348788 217.119045 322.665955 C 216.267621 321.388819 215.522625 320.111683 214.671201 318.834547 C 217.651186 316.386702 221.16331 313.513146 219.673318 309.043169 C 218.396182 293.717536 218.609038 278.285474 216.799761 263.066268 C 213.819777 256.787015 206.263388 254.871311 200.090563 253.381319 C 196.365583 243.589942 194.982019 232.94714 188.702766 224.220043 C 187.212774 222.197911 186.787062 219.643639 188.48991 217.621506 C 210.201225 188.566659 231.167543 158.979671 254.155994 130.989104 Z M 254.155994 130.989104 " stroke="#000000" stroke-width="0.094" stroke-opacity="1" stroke-miterlimit="4"/></g><path stroke-linecap="butt" transform="matrix(0.0367032, 0, 0, 0.0367032, -3.383029, 5.18056)" fill-opacity="1" fill="#014d4e" fill-rule="nonzero" stroke-linejoin="miter" d="M 483.08265 133.756232 C 484.040502 135.565509 484.891926 137.481213 485.849778 139.396917 C 485.21121 139.396917 484.040502 139.609773 483.295506 139.609773 C 483.189078 137.694069 483.189078 135.671937 483.08265 133.756232 Z M 483.08265 133.756232 " stroke="#000000" stroke-width="0.094" stroke-opacity="1" stroke-miterlimit="4"/><path stroke-linecap="butt" transform="matrix(0.0367032, 0, 0, 0.0367032, -3.383029, 5.18056)" fill-opacity="1" fill="#014d4e" fill-rule="nonzero" stroke-linejoin="miter" d="M 489.149046 149.507578 C 490.958322 148.443298 492.235459 151.529711 490.639038 152.274707 C 488.829762 153.445415 487.659054 150.252574 489.149046 149.507578 Z M 489.149046 149.507578 " stroke="#000000" stroke-width="0.094" stroke-opacity="1" stroke-miterlimit="4"/><path stroke-linecap="butt" transform="matrix(0.0367032, 0, 0, 0.0367032, -3.383029, 5.18056)" fill-opacity="1" fill="#014d4e" fill-rule="nonzero" stroke-linejoin="miter" d="M 525.547427 171.112465 C 526.824563 171.751033 527.995271 172.389601 529.165979 173.134597 C 527.888843 174.624589 526.718135 176.008153 525.440999 177.498146 C 525.547427 175.901725 525.547427 172.708885 525.547427 171.112465 Z M 525.547427 171.112465 " stroke="#000000" stroke-width="0.094" stroke-opacity="1" stroke-miterlimit="4"/><path stroke-linecap="butt" transform="matrix(0.0367032, 0, 0, 0.0367032, -3.383029, 5.18056)" fill-opacity="1" fill="#014d4e" fill-rule="nonzero" stroke-linejoin="miter" d="M 538.318788 171.218893 C 539.170212 169.835329 541.618057 171.218893 540.447348 172.602457 C 539.595924 173.986021 537.14808 172.496029 538.318788 171.218893 Z M 538.318788 171.218893 " stroke="#000000" stroke-width="0.094" stroke-opacity="1" stroke-miterlimit="4"/><path stroke-linecap="butt" transform="matrix(0.0367032, 0, 0, 0.0367032, -3.383029, 5.18056)" fill-opacity="1" fill="#014d4e" fill-rule="nonzero" stroke-linejoin="miter" d="M 541.192345 176.966006 C 544.917325 176.114581 548.003737 179.094566 548.535877 182.60669 C 548.855161 186.650955 551.515862 191.865927 548.748733 195.697336 C 544.810897 198.783748 539.383068 194.95234 537.893076 191.120931 C 535.125948 186.331671 537.893076 180.690986 541.192345 176.966006 Z M 541.192345 176.966006 " stroke="#000000" stroke-width="0.094" stroke-opacity="1" stroke-miterlimit="4"/><path stroke-linecap="butt" transform="matrix(0.0367032, 0, 0, 0.0367032, -3.383029, 5.18056)" fill-opacity="1" fill="#014d4e" fill-rule="nonzero" stroke-linejoin="miter" d="M 552.048002 178.030286 C 552.792998 178.030286 554.176562 178.030286 554.921558 178.030286 C 555.240842 178.455998 555.87941 179.520278 556.198694 180.052418 C 555.87941 180.47813 555.240842 181.54241 554.921558 181.968122 C 554.176562 181.968122 552.792998 181.968122 552.048002 181.968122 C 551.835146 181.54241 551.09015 180.47813 550.770866 180.052418 C 551.09015 179.520278 551.835146 178.455998 552.048002 178.030286 Z M 552.048002 178.030286 " stroke="#000000" stroke-width="0.094" stroke-opacity="1" stroke-miterlimit="4"/><path stroke-linecap="butt" transform="matrix(0.0367032, 0, 0, 0.0367032, -3.383029, 5.18056)" fill-opacity="1" fill="#014d4e" fill-rule="nonzero" stroke-linejoin="miter" d="M 391.554558 194.633056 C 396.343819 192.610923 401.452364 192.398067 406.45448 192.185211 C 401.558792 193.462348 396.556675 194.207344 391.554558 194.633056 Z M 391.554558 194.633056 " stroke="#000000" stroke-width="0.094" stroke-opacity="1" stroke-miterlimit="4"/><path stroke-linecap="butt" transform="matrix(0.0367032, 0, 0, 0.0367032, -3.383029, 5.18056)" fill-opacity="1" fill="#014d4e" fill-rule="nonzero" stroke-linejoin="miter" d="M 510.328221 218.685787 C 511.286073 220.388635 512.350353 222.091483 513.414633 223.900759 C 512.563209 223.794331 511.073217 223.581475 510.328221 223.475047 C 510.328221 221.878627 510.328221 220.282207 510.328221 218.685787 Z M 510.328221 218.685787 " stroke="#000000" stroke-width="0.094" stroke-opacity="1" stroke-miterlimit="4"/><path stroke-linecap="butt" transform="matrix(0.0367032, 0, 0, 0.0367032, -3.383029, 5.18056)" fill-opacity="1" fill="#014d4e" fill-rule="nonzero" stroke-linejoin="miter" d="M 513.627489 218.579359 C 516.713902 219.750067 519.587458 221.452915 521.716018 224.220043 C 518.523178 223.049335 515.756049 221.133631 513.627489 218.579359 Z M 513.627489 218.579359 " stroke="#000000" stroke-width="0.094" stroke-opacity="1" stroke-miterlimit="4"/><path stroke-linecap="butt" transform="matrix(0.0367032, 0, 0, 0.0367032, -3.383029, 5.18056)" fill-opacity="1" fill="#014d4e" fill-rule="nonzero" stroke-linejoin="miter" d="M 507.241808 241.887093 C 507.028952 235.607841 503.623256 229.009304 506.709668 222.942907 C 514.372485 227.838596 524.589575 227.412884 531.613823 233.266424 C 534.380952 237.097833 538.531644 239.439249 542.788765 241.248525 C 540.447348 243.377086 537.893076 245.505646 534.913092 246.88921 C 532.358819 246.250642 530.230259 244.76065 527.675987 243.802798 C 523.525294 247.314922 521.07745 252.529895 517.88461 256.787015 C 516.607474 254.977739 515.223909 253.062035 514.159629 251.252759 C 510.753933 251.891327 507.348236 252.529895 503.94254 253.062035 C 504.47468 249.230626 506.496812 245.718502 507.241808 241.887093 Z M 507.241808 241.887093 " stroke="#000000" stroke-width="0.094" stroke-opacity="1" stroke-miterlimit="4"/><path stroke-linecap="butt" transform="matrix(0.0367032, 0, 0, 0.0367032, -3.383029, 5.18056)" fill-opacity="1" fill="#014d4e" fill-rule="nonzero" stroke-linejoin="miter" d="M 561.413667 234.543561 C 562.371519 235.501413 563.542227 236.565693 564.500079 237.629973 C 563.648655 237.736401 561.839379 237.949257 560.881527 238.055685 C 560.987955 237.204261 561.307239 235.394985 561.413667 234.543561 Z M 561.413667 234.543561 " stroke="#000000" stroke-width="0.094" stroke-opacity="1" stroke-miterlimit="4"/><path stroke-linecap="butt" transform="matrix(0.0367032, 0, 0, 0.0367032, -3.383029, 5.18056)" fill-opacity="1" fill="#014d4e" fill-rule="nonzero" stroke-linejoin="miter" d="M 552.899426 238.907109 C 554.389418 239.119965 555.985838 239.226393 557.47583 239.439249 C 557.582258 240.077817 557.901543 241.354953 558.114399 242.099949 C 556.624406 241.887093 555.027986 241.780665 553.537994 241.567809 C 553.431566 240.929241 553.112282 239.652105 552.899426 238.907109 Z M 552.899426 238.907109 " stroke="#000000" stroke-width="0.094" stroke-opacity="1" stroke-miterlimit="4"/><path stroke-linecap="butt" transform="matrix(0.0367032, 0, 0, 0.0367032, -3.383029, 5.18056)" fill-opacity="1" fill="#014d4e" fill-rule="nonzero" stroke-linejoin="miter" d="M 576.526445 239.332821 C 577.377869 238.055685 579.400001 239.652105 578.548577 240.716385 C 577.590725 241.887093 575.568593 240.397101 576.526445 239.332821 Z M 576.526445 239.332821 " stroke="#000000" stroke-width="0.094" stroke-opacity="1" stroke-miterlimit="4"/><path stroke-linecap="butt" transform="matrix(0.0367032, 0, 0, 0.0367032, -3.383029, 5.18056)" fill-opacity="1" fill="#014d4e" fill-rule="nonzero" stroke-linejoin="miter" d="M 526.292423 257.425583 C 528.846695 255.084167 532.252391 254.552027 535.338804 253.487747 C 534.274524 258.809147 532.678103 263.917692 531.188111 269.132665 C 530.443115 269.026237 528.846695 269.026237 527.888843 268.919809 C 527.037419 265.301256 523.844578 261.044136 526.292423 257.425583 Z M 526.292423 257.425583 " stroke="#000000" stroke-width="0.094" stroke-opacity="1" stroke-miterlimit="4"/><path stroke-linecap="butt" transform="matrix(0.0367032, 0, 0, 0.0367032, -3.383029, 5.18056)" fill-opacity="1" fill="#014d4e" fill-rule="nonzero" stroke-linejoin="miter" d="M 545.343037 262.746984 C 544.065901 258.489863 548.003737 255.403451 550.55801 252.849179 C 551.303006 257.532011 552.15443 262.214844 552.367286 266.897676 C 550.345154 265.407684 545.875177 265.939824 545.343037 262.746984 Z M 545.343037 262.746984 " stroke="#000000" stroke-width="0.094" stroke-opacity="1" stroke-miterlimit="4"/><g clip-path="url(#db667d2908)"><path stroke-linecap="butt" transform="matrix(0.0367032, 0, 0, 0.0367032, -3.383029, 5.18056)" fill-opacity="1" fill="#014d4e" fill-rule="nonzero" stroke-linejoin="miter" d="M 758.624775 312.448866 C 758.518347 308.404601 763.094751 307.553177 765.86188 306.063185 C 767.351872 313.087434 767.4583 320.111683 768.096868 327.24236 C 769.374004 325.752368 770.65114 324.155947 772.034704 322.665955 C 774.801833 324.155947 777.675389 325.752368 780.655373 327.029504 C 784.380354 324.262375 788.211762 321.495247 792.681739 320.111683 C 793.107451 322.878811 793.533163 325.645939 793.852447 328.413068 C 796.406719 327.561644 798.748136 326.816648 801.302408 325.965224 C 800.770268 330.541628 801.302408 335.011605 802.153832 339.375153 C 803.537396 336.608025 804.708104 333.947324 805.98524 331.180196 C 808.326657 333.415184 810.880929 335.437317 812.796633 338.098017 C 813.860913 341.078001 813.967341 344.483698 814.605909 347.676538 C 809.178081 348.740818 803.750252 347.995822 799.386704 344.37727 C 798.215995 348.527962 797.151715 352.678655 793.852447 355.552211 C 792.788167 345.760834 784.806066 351.933659 780.761801 354.594359 C 773.418268 358.532195 767.884012 365.343588 760.221195 368.430001 C 759.901911 361.831464 756.921926 355.552211 758.092635 348.953674 C 759.050487 336.820881 758.731203 324.581659 758.624775 312.448866 Z M 758.624775 312.448866 " stroke="#000000" stroke-width="0.094" stroke-opacity="1" stroke-miterlimit="4"/></g><g clip-path="url(#239dae9338)"><path stroke-linecap="butt" transform="matrix(0.0367032, 0, 0, 0.0367032, -3.383029, 5.18056)" fill-opacity="1" fill="#014d4e" fill-rule="nonzero" stroke-linejoin="miter" d="M 189.447762 320.856679 C 190.937754 320.856679 192.427747 320.963107 193.917739 321.069535 C 195.620587 324.049519 197.323435 326.923076 199.132711 329.796632 C 198.174859 331.49948 197.217007 333.0959 196.365583 334.692321 C 194.237023 333.308756 188.915622 334.266609 188.48991 330.648056 C 188.383482 327.348788 188.809194 324.049519 189.447762 320.856679 Z M 189.447762 320.856679 " stroke="#000000" stroke-width="0.094" stroke-opacity="1" stroke-miterlimit="4"/></g><path stroke-linecap="butt" transform="matrix(0.0367032, 0, 0, 0.0367032, -3.383029, 5.18056)" fill-opacity="1" fill="#014d4e" fill-rule="nonzero" stroke-linejoin="miter" d="M 569.608624 332.883044 C 571.311472 330.754484 573.120748 328.83878 574.930025 326.816648 C 576.207161 327.561644 577.697153 328.30664 579.080717 329.051636 C 578.655005 331.605908 578.335721 333.947324 577.910009 336.395169 C 575.142881 335.330889 572.375752 334.053753 569.608624 332.883044 Z M 569.608624 332.883044 " stroke="#000000" stroke-width="0.094" stroke-opacity="1" stroke-miterlimit="4"/><g clip-path="url(#c38a121782)"><path stroke-linecap="butt" transform="matrix(0.0367032, 0, 0, 0.0367032, -3.383029, 5.18056)" fill-opacity="1" fill="#014d4e" fill-rule="nonzero" stroke-linejoin="miter" d="M 189.979902 335.437317 C 191.789178 335.650173 193.598455 335.756601 195.514159 335.969457 C 193.385599 341.716569 194.130595 347.889394 195.407731 353.742935 C 191.363466 348.421534 190.724898 341.822997 189.979902 335.437317 Z M 189.979902 335.437317 " stroke="#000000" stroke-width="0.094" stroke-opacity="1" stroke-miterlimit="4"/></g><path stroke-linecap="butt" transform="matrix(0.0367032, 0, 0, 0.0367032, -3.383029, 5.18056)" fill-opacity="1" fill="#014d4e" fill-rule="nonzero" stroke-linejoin="miter" d="M 707.965041 363.64074 C 715.734286 356.829347 726.270659 356.403635 735.955608 357.467915 C 735.955608 359.170764 735.955608 360.767184 736.062036 362.470032 C 726.802799 363.747168 717.330706 365.556444 707.965041 363.64074 Z M 707.965041 363.64074 " stroke="#000000" stroke-width="0.094" stroke-opacity="1" stroke-miterlimit="4"/><path stroke-linecap="butt" transform="matrix(0.0367032, 0, 0, 0.0367032, -3.383029, 5.18056)" fill-opacity="1" fill="#014d4e" fill-rule="nonzero" stroke-linejoin="miter" d="M 709.987173 373.006405 C 714.244293 371.622841 721.055686 373.538545 720.949258 378.859946 C 719.139982 384.500631 712.009305 385.458483 707.858613 388.970607 C 708.071469 389.609175 708.284325 390.886311 708.497181 391.524879 C 712.541445 391.524879 716.479282 390.673455 720.629974 391.099167 C 724.993523 395.24986 728.079935 401.422685 733.72062 404.296241 C 742.341289 406.318373 750.642674 402.380537 758.731203 399.932692 C 759.582627 400.890545 760.434051 401.954825 761.179047 403.019105 C 757.028355 408.872646 752.98409 414.832614 747.130549 419.196163 C 740.532013 423.985423 738.722736 432.393236 734.465616 439.098201 C 731.592059 437.076069 729.250643 434.521797 727.334939 431.541812 C 733.401336 425.049703 739.04202 418.025455 743.192713 410.149782 C 732.337056 412.91691 724.567811 421.218295 717.64999 429.413252 C 714.563577 426.539696 710.625741 424.198279 708.922893 420.260443 C 707.113616 416.535462 705.623624 412.704054 703.388636 409.085502 C 697.747951 409.72407 692.213695 410.149782 686.679438 410.469066 C 685.615158 421.537579 682.84803 432.18038 681.038753 443.142466 C 674.227361 445.377454 667.522396 447.825298 660.498147 449.31529 C 663.158847 432.606092 679.548761 422.921143 684.125166 406.956941 C 686.466582 400.571261 687.850146 393.547012 691.681555 387.693471 C 697.215811 382.052786 703.17578 376.837814 709.987173 373.006405 Z M 709.987173 373.006405 " stroke="#000000" stroke-width="0.094" stroke-opacity="1" stroke-miterlimit="4"/><path stroke-linecap="butt" transform="matrix(0.0367032, 0, 0, 0.0367032, -3.383029, 5.18056)" fill-opacity="1" fill="#014d4e" fill-rule="nonzero" stroke-linejoin="miter" d="M 206.476244 373.964257 C 213.074781 375.347821 216.693333 381.520646 220.950454 386.097051 C 227.655419 393.866296 233.508959 403.125533 234.360384 413.661906 C 230.103263 412.491198 225.314002 411.32049 221.801878 408.234077 C 214.458345 399.294124 210.414081 388.438467 204.0284 378.859946 C 204.773396 377.263526 205.731248 375.560678 206.476244 373.964257 Z M 206.476244 373.964257 " stroke="#000000" stroke-width="0.094" stroke-opacity="1" stroke-miterlimit="4"/><path stroke-linecap="butt" transform="matrix(0.0367032, 0, 0, 0.0367032, -3.383029, 5.18056)" fill-opacity="1" fill="#014d4e" fill-rule="nonzero" stroke-linejoin="miter" d="M 569.395768 379.072802 C 571.205044 377.263526 573.333604 375.879962 575.568593 374.922109 C 573.759316 376.731386 571.737184 378.11495 569.395768 379.072802 Z M 569.395768 379.072802 " stroke="#000000" stroke-width="0.094" stroke-opacity="1" stroke-miterlimit="4"/><path stroke-linecap="butt" transform="matrix(0.0367032, 0, 0, 0.0367032, -3.383029, 5.18056)" fill-opacity="1" fill="#014d4e" fill-rule="nonzero" stroke-linejoin="miter" d="M 760.114767 379.072802 C 761.498331 381.520646 763.201179 383.862063 763.414035 386.842047 C 763.094751 390.354171 760.753335 393.440584 758.518347 396.101284 C 758.518347 390.354171 758.092635 384.500631 760.114767 379.072802 Z M 760.114767 379.072802 " stroke="#000000" stroke-width="0.094" stroke-opacity="1" stroke-miterlimit="4"/><path stroke-linecap="butt" transform="matrix(0.0367032, 0, 0, 0.0367032, -3.383029, 5.18056)" fill-opacity="1" fill="#014d4e" fill-rule="nonzero" stroke-linejoin="miter" d="M 766.074736 386.097051 C 767.139016 386.097051 768.948292 386.309907 769.906144 386.416335 C 767.99044 390.034887 765.649024 393.334156 763.414035 396.633424 C 764.159031 393.014872 765.223311 389.609175 766.074736 386.097051 Z M 766.074736 386.097051 " stroke="#000000" stroke-width="0.094" stroke-opacity="1" stroke-miterlimit="4"/><path stroke-linecap="butt" transform="matrix(0.0367032, 0, 0, 0.0367032, -3.383029, 5.18056)" fill-opacity="1" fill="#014d4e" fill-rule="nonzero" stroke-linejoin="miter" d="M 732.549912 395.675572 C 739.361304 395.569144 746.279125 394.930576 752.877662 392.908444 C 752.664806 394.930576 752.558378 396.952708 751.91981 398.97484 C 745.427701 401.422685 738.297024 401.422685 731.804915 399.400552 C 732.017771 398.229844 732.230628 396.952708 732.549912 395.675572 Z M 732.549912 395.675572 " stroke="#000000" stroke-width="0.094" stroke-opacity="1" stroke-miterlimit="4"/></svg>