<svg xmlns="http://www.w3.org/2000/svg" xmlns:xlink="http://www.w3.org/1999/xlink" width="40" zoomAndPan="magnify" viewBox="0 0 30 30.000001" height="40" preserveAspectRatio="xMidYMid meet" version="1.0"><defs><clipPath id="e57f1d4ddb"><path d="M 3.386719 2.992188 L 26.613281 2.992188 L 26.613281 26.214844 L 3.386719 26.214844 Z M 3.386719 2.992188 " clip-rule="nonzero"/></clipPath></defs><g clip-path="url(#e57f1d4ddb)"><path fill="#014d4e" d="M 8.085938 16.667969 L 8.601562 16.828125 L 8.878906 17.285156 L 9.011719 17.792969 L 9.210938 18.265625 L 9.738281 19.164062 L 9.890625 19.339844 L 10.0625 19.433594 L 10.265625 19.46875 L 10.503906 19.453125 L 10.753906 19.40625 L 10.976562 19.339844 L 11.203125 19.292969 L 11.464844 19.296875 L 11.683594 19.328125 L 11.796875 19.335938 L 11.90625 19.320312 L 12.054688 19.269531 L 12.105469 19.207031 L 12.148438 18.949219 L 12.292969 18.445312 L 12.421875 18.238281 L 12.636719 18.105469 L 12.863281 18.050781 L 13.183594 18 L 13.484375 17.988281 L 13.640625 18.046875 L 13.644531 18.148438 L 13.601562 18.242188 L 13.585938 18.335938 L 13.664062 18.433594 L 13.785156 18.460938 L 14.820312 18.429688 L 15.046875 18.492188 L 15.171875 18.667969 L 15.179688 18.824219 L 15.121094 19.152344 L 15.113281 19.3125 L 15.136719 19.453125 L 15.214844 19.722656 L 15.242188 19.859375 L 15.242188 20.175781 L 15.136719 20.796875 L 15.140625 21.105469 L 15.230469 21.355469 L 15.550781 21.792969 L 15.671875 22.039062 L 15.703125 22.160156 L 15.71875 22.273438 L 15.71875 22.710938 L 15.710938 22.78125 L 15.691406 22.808594 L 15.652344 22.835938 L 15.609375 22.871094 L 15.585938 22.914062 L 15.589844 23.179688 L 15.707031 23.238281 L 16.054688 23.121094 L 16.199219 23.113281 L 16.503906 23.15625 L 16.652344 23.160156 L 16.769531 23.132812 L 16.988281 23.046875 L 17.101562 23.019531 L 17.304688 23.023438 L 17.484375 23.050781 L 17.644531 23.027344 L 17.773438 22.890625 L 17.867188 22.914062 L 17.945312 22.96875 L 18.066406 23.09375 L 18.132812 23.132812 L 18.1875 23.152344 L 18.234375 23.183594 L 18.273438 23.253906 L 18.277344 23.316406 L 18.265625 23.398438 L 18.238281 23.496094 L 18.421875 23.578125 L 18.699219 23.507812 L 19.003906 23.398438 L 19.265625 23.351562 L 19.378906 23.359375 L 19.394531 23.367188 L 19.378906 23.417969 L 19.386719 23.554688 L 19.421875 23.6875 L 19.476562 23.808594 L 19.554688 23.914062 L 19.667969 23.992188 L 19.964844 24.097656 L 20.3125 24.179688 L 20.996094 24.265625 L 21.109375 24.269531 L 21.222656 24.265625 L 21.335938 24.234375 L 21.425781 24.171875 L 21.464844 24.074219 L 21.507812 23.921875 L 21.570312 23.792969 L 21.683594 23.773438 L 21.734375 23.820312 L 21.757812 23.894531 L 21.773438 23.976562 L 21.796875 24.042969 L 21.855469 24.113281 L 21.988281 24.242188 L 22.046875 24.316406 L 22.140625 24.46875 L 22.207031 24.550781 L 22.296875 24.601562 L 22.96875 24.808594 L 23.113281 24.886719 L 23.210938 24.980469 L 23.261719 25.074219 L 23.300781 25.175781 L 23.363281 25.289062 L 23.433594 25.359375 L 23.605469 25.488281 L 23.6875 25.574219 L 23.855469 25.882812 L 23.960938 26 L 24.128906 26.050781 L 24.265625 26.019531 L 24.535156 25.878906 L 24.667969 25.882812 L 24.726562 25.957031 L 24.765625 26.066406 L 24.816406 26.125 L 24.910156 26.046875 L 24.945312 25.902344 L 24.910156 24.496094 L 24.835938 24.515625 L 24.652344 24.539062 L 24.589844 24.570312 L 24.570312 24.621094 L 24.5625 24.691406 L 24.558594 24.753906 L 24.554688 24.785156 L 24.398438 24.820312 L 24.222656 24.789062 L 24.046875 24.714844 L 23.90625 24.621094 L 23.570312 24.347656 L 23.414062 24.1875 L 23.289062 24.027344 L 23.199219 23.820312 L 23.1875 23.628906 L 23.222656 23.433594 L 23.40625 22.757812 L 23.445312 22.539062 L 23.484375 21.628906 L 23.453125 21.40625 L 23.398438 21.289062 L 23.234375 21.011719 L 23.203125 20.90625 L 23.234375 20.824219 L 23.304688 20.761719 L 23.46875 20.652344 L 23.621094 20.507812 L 23.765625 20.328125 L 23.84375 20.128906 L 23.8125 19.925781 L 24.367188 19.800781 L 26.082031 19.566406 L 25.832031 18.925781 L 25.527344 18.308594 L 25.320312 18.039062 L 24.832031 17.601562 L 24.644531 17.320312 L 24.574219 17.015625 L 24.625 16.480469 L 24.578125 16.183594 L 24.382812 15.710938 L 24.34375 15.554688 L 24.347656 15.40625 L 24.410156 15.105469 L 24.429688 14.953125 L 24.230469 14.074219 L 24.203125 13.757812 L 24.214844 13.335938 L 24.191406 13.210938 L 24.128906 13.109375 L 24.050781 13.027344 L 23.984375 12.941406 L 23.957031 12.832031 L 23.757812 12.691406 L 23.828125 12.476562 L 24.117188 12.085938 L 24.140625 11.917969 L 24.140625 11.777344 L 24.164062 11.644531 L 24.265625 11.484375 L 24.355469 11.402344 L 24.644531 11.199219 L 24.679688 10.390625 L 24.789062 9.589844 L 24.84375 9.417969 L 24.992188 9.105469 L 25.050781 8.9375 L 25.0625 8.835938 L 25.058594 8.609375 L 25.085938 8.511719 L 25.144531 8.449219 L 26.441406 7.386719 L 26.664062 7.035156 L 26.691406 6.921875 L 26.675781 6.839844 L 26.625 6.773438 L 26.539062 6.695312 L 26.421875 6.636719 L 26.136719 6.539062 L 26.054688 6.46875 L 26.046875 6.355469 L 26.101562 6.234375 L 26.167969 6.117188 L 26.199219 6.011719 L 26.1875 5.964844 L 26.144531 5.871094 L 26.136719 5.835938 L 26.226562 5.324219 L 26.1875 5.222656 L 26.160156 5.171875 L 26.140625 5.125 L 26.109375 5.082031 L 26.066406 5.054688 L 26.019531 5.035156 L 25.976562 5.046875 L 25.9375 5.050781 L 25.898438 5.050781 L 25.863281 5.042969 L 25.851562 5.019531 L 25.84375 4.996094 L 25.839844 4.96875 L 25.839844 4.9375 L 25.820312 4.859375 L 25.792969 4.820312 L 25.761719 4.785156 L 25.722656 4.761719 L 25.675781 4.742188 L 25.398438 4.621094 L 25.1875 4.378906 L 25.003906 4.195312 L 24.949219 4.101562 L 24.730469 3.863281 L 24.613281 3.816406 L 24.546875 3.839844 L 24.492188 3.875 L 24.445312 3.925781 L 24.410156 3.988281 L 24.34375 4.039062 L 24.277344 4.082031 L 24.203125 4.109375 L 24.121094 4.121094 L 24.003906 4.054688 L 23.875 4.007812 L 23.742188 3.984375 L 23.601562 3.980469 L 23.238281 4.199219 L 23.015625 4.171875 L 22.976562 4.171875 L 22.941406 4.164062 L 22.910156 4.148438 L 22.878906 4.125 L 22.804688 4.070312 L 22.738281 4.011719 L 22.644531 3.917969 L 22.519531 3.863281 L 22.476562 3.828125 L 22.445312 3.785156 L 22.386719 3.675781 L 22.347656 3.617188 L 22.300781 3.558594 L 22.152344 3.457031 L 22.085938 3.394531 L 22.027344 3.324219 L 21.984375 3.238281 L 21.835938 3.191406 L 21.714844 3.164062 L 21.601562 3.160156 L 21.464844 3.179688 L 21.222656 3.246094 L 21.109375 3.261719 L 20.953125 3.25 L 20.25 3.058594 L 19.867188 2.992188 L 19.570312 3.039062 L 19.457031 3.132812 L 19.382812 3.234375 L 19.300781 3.328125 L 19.15625 3.398438 L 18.980469 3.429688 L 18.808594 3.429688 L 18.457031 3.382812 L 18.125 3.414062 L 17.488281 3.664062 L 17.167969 3.761719 L 16.847656 3.769531 L 16.582031 3.738281 L 16.34375 3.796875 L 16.117188 4.066406 L 16.027344 4.269531 L 15.96875 4.367188 L 15.882812 4.433594 L 15.722656 4.4375 L 15.300781 4.308594 L 15.121094 4.269531 L 14.8125 4.238281 L 13.769531 4.03125 L 13.652344 4 L 13.554688 3.933594 L 13.289062 3.667969 L 13.132812 3.554688 L 12.796875 3.359375 L 12.367188 3.234375 L 12.039062 3.351562 L 11.765625 3.621094 L 11.488281 3.957031 L 11.269531 4.179688 L 11.230469 4.277344 L 11.207031 5.042969 L 11.21875 5.238281 L 11.1875 5.703125 L 10.972656 6.160156 L 10.714844 6.617188 L 10.558594 7.070312 L 10.550781 7.207031 L 10.558594 7.484375 L 10.542969 7.621094 L 10.503906 7.742188 L 10.398438 7.980469 L 10.363281 8.101562 L 10.339844 8.320312 L 10.363281 8.972656 L 10.320312 9.195312 L 10.171875 9.617188 L 10.132812 9.839844 L 10.136719 9.933594 L 10.152344 10.027344 L 10.160156 10.117188 L 10.140625 10.199219 L 10.085938 10.289062 L 10.003906 10.371094 L 9.828125 10.519531 L 9.648438 10.648438 L 9.269531 10.863281 L 9.101562 11 L 8.984375 11.164062 L 8.808594 11.53125 L 8.710938 11.707031 L 8.578125 11.867188 L 8.441406 12.007812 L 8.328125 12.160156 L 8.261719 12.351562 L 8.25 12.5625 L 8.289062 13.210938 L 8.261719 13.441406 L 8.210938 13.664062 L 8.132812 13.878906 L 8.023438 14.085938 L 7.90625 14.238281 L 7.78125 14.320312 L 7.648438 14.382812 L 7.488281 14.472656 L 7.183594 14.71875 L 6.902344 15 L 6.664062 15.300781 L 6.527344 15.425781 L 6.351562 15.488281 L 6.101562 15.417969 L 6.078125 15.195312 L 6.109375 14.9375 L 6.011719 14.769531 L 5.902344 14.78125 L 5.464844 14.996094 L 5.421875 14.988281 L 5.371094 14.957031 L 5.324219 14.933594 L 5.277344 14.9375 L 5.234375 14.988281 L 5.230469 15.042969 L 5.226562 15.101562 L 5.207031 15.160156 L 5.121094 15.269531 L 5.019531 15.351562 L 4.898438 15.394531 L 4.761719 15.378906 L 4.664062 15.3125 L 4.59375 15.230469 L 4.527344 15.167969 L 4.4375 15.179688 L 4.039062 15.445312 L 3.820312 15.632812 L 3.773438 15.683594 L 3.75 15.722656 L 3.734375 15.777344 L 3.730469 15.90625 L 3.773438 16.222656 L 3.75 16.367188 L 3.6875 16.472656 L 3.621094 16.515625 L 3.386719 16.5625 L 3.636719 16.8125 L 3.878906 16.785156 L 4.136719 16.675781 L 4.433594 16.691406 L 5.027344 16.644531 L 8.085938 16.667969 " fill-opacity="1" fill-rule="nonzero"/></g></svg>