<svg xmlns="http://www.w3.org/2000/svg" xmlns:xlink="http://www.w3.org/1999/xlink" width="40" zoomAndPan="magnify" viewBox="0 0 30 30.000001" height="40" preserveAspectRatio="xMidYMid meet" version="1.0"><defs><clipPath id="f43ca3669f"><path d="M 3.386719 6.589844 L 26.613281 6.589844 L 26.613281 22.558594 L 3.386719 22.558594 Z M 3.386719 6.589844 " clip-rule="nonzero"/></clipPath></defs><g clip-path="url(#f43ca3669f)"><path fill="#014d4e" d="M 26.605469 17.128906 L 26.539062 16.996094 L 26.492188 16.921875 L 26.375 16.863281 L 26.347656 16.835938 L 26.296875 16.730469 L 26.292969 16.621094 L 26.289062 16.566406 L 26.246094 16.503906 L 26.234375 16.484375 L 26.25 16.460938 C 26.285156 16.414062 26.285156 16.398438 26.285156 16.390625 C 26.285156 16.382812 26.28125 16.367188 26.28125 16.355469 L 26.296875 16.304688 L 26.28125 16.226562 L 26.230469 16.1875 L 26.226562 16.175781 L 26.230469 16.15625 C 26.230469 16.152344 26.230469 16.105469 26.207031 16.070312 C 26.191406 16.050781 26.167969 15.984375 26.15625 15.953125 L 26.152344 15.941406 L 26.035156 15.871094 L 25.910156 15.808594 L 25.808594 15.765625 L 25.722656 15.742188 L 25.679688 15.726562 L 25.601562 15.667969 L 25.484375 15.636719 L 25.484375 15.5625 L 25.273438 15.453125 L 25.179688 15.472656 L 25.023438 15.40625 L 25.011719 15.351562 L 24.972656 15.277344 L 24.867188 15.265625 L 24.972656 15.1875 L 24.996094 15.128906 L 24.996094 15.039062 L 24.867188 14.949219 L 24.675781 14.875 L 24.578125 14.78125 L 24.542969 14.738281 L 24.511719 14.671875 C 24.527344 14.636719 24.542969 14.605469 24.554688 14.578125 C 24.570312 14.546875 24.582031 14.523438 24.589844 14.519531 C 24.597656 14.511719 24.621094 14.492188 24.664062 14.414062 L 24.675781 14.394531 L 24.480469 14.140625 L 24.398438 14.066406 L 24.179688 14.039062 L 24.144531 14.019531 L 24.058594 13.859375 L 23.972656 13.714844 L 23.914062 13.667969 L 23.78125 13.628906 L 23.726562 13.578125 L 23.621094 13.496094 L 23.457031 13.355469 L 23.234375 13.355469 L 23.066406 13.339844 L 23.023438 13.28125 L 22.980469 13.195312 L 22.878906 13.140625 L 22.789062 13.128906 L 22.757812 12.984375 L 22.609375 12.910156 L 22.523438 12.855469 L 22.453125 12.757812 L 22.546875 12.710938 L 22.609375 12.640625 C 22.609375 12.640625 22.632812 12.617188 22.636719 12.605469 C 22.640625 12.597656 22.648438 12.585938 22.667969 12.492188 L 22.667969 12.355469 L 22.59375 12.246094 L 22.546875 12.199219 L 22.484375 12.160156 L 22.300781 12.136719 L 22.179688 12.03125 L 21.8125 11.683594 L 21.714844 11.605469 L 21.441406 11.597656 L 21.332031 11.664062 L 21.214844 11.621094 L 21.050781 11.675781 L 20.925781 11.644531 L 20.800781 11.605469 L 20.714844 11.550781 L 20.695312 11.46875 L 20.6875 11.308594 L 20.6875 11.183594 L 20.773438 11.085938 L 20.863281 11.019531 L 20.855469 10.757812 L 20.195312 10.695312 L 20 10.6875 L 19.855469 10.714844 L 19.746094 10.5625 L 19.636719 10.558594 L 19.628906 10.550781 L 19.582031 10.472656 L 19.691406 10.332031 L 19.59375 10.199219 L 19.441406 10.265625 L 19.4375 10.265625 L 19.402344 10.148438 L 19.648438 9.972656 L 19.679688 9.882812 L 19.6875 9.820312 L 19.703125 9.78125 L 19.757812 9.765625 L 19.78125 8.726562 L 19.660156 8.503906 L 19.140625 7.714844 L 18.875 7.386719 L 18.835938 7.339844 L 18.683594 7.261719 L 18.546875 7.1875 L 18.324219 6.738281 L 18.296875 6.675781 L 18.089844 6.679688 L 17.929688 6.667969 L 17.738281 6.613281 L 17.636719 6.589844 L 17.492188 6.609375 L 17.402344 6.636719 L 17.332031 6.714844 L 17.292969 6.730469 L 17.234375 6.730469 L 17.171875 6.765625 L 17.121094 6.78125 L 17.058594 6.789062 L 17.003906 6.851562 L 16.953125 6.84375 L 16.808594 6.832031 L 16.730469 6.832031 L 16.660156 6.878906 L 16.546875 6.929688 L 16.378906 6.929688 L 16.207031 7.292969 L 16.273438 7.578125 L 16.28125 7.742188 L 16.234375 7.835938 L 16.105469 8.011719 L 16.0625 8.054688 L 15.894531 8.089844 L 15.761719 8.199219 L 15.679688 8.34375 L 15.597656 8.441406 L 15.585938 8.457031 L 15.558594 8.464844 L 15.484375 8.472656 L 15.382812 8.496094 L 15.34375 8.558594 L 15.3125 8.574219 L 15.242188 8.636719 L 15.167969 8.78125 L 15.140625 8.804688 L 15.078125 8.832031 L 15.003906 8.863281 L 14.988281 9.011719 L 14.921875 9.078125 L 14.902344 9.21875 L 14.882812 9.246094 L 14.738281 9.3125 L 14.722656 9.410156 L 14.640625 9.460938 L 14.554688 9.507812 L 14.507812 9.539062 L 14.390625 9.589844 L 14.34375 9.71875 L 14.1875 9.765625 L 14.140625 9.8125 L 14.101562 9.871094 L 14.078125 9.988281 L 14.019531 10.023438 L 13.753906 10.003906 L 13.460938 9.988281 L 13.285156 10.078125 L 13.089844 10.191406 L 13.011719 10.207031 L 12.882812 10.1875 L 12.84375 10.183594 L 12.703125 10.230469 L 12.558594 10.289062 L 12.359375 10.273438 L 11.910156 10.222656 L 11.851562 10.21875 L 11.59375 10.328125 L 11.429688 10.390625 L 11.375 10.546875 L 11.363281 10.570312 L 11.402344 10.628906 L 11.511719 10.726562 L 11.636719 10.796875 L 11.707031 10.832031 L 11.664062 10.960938 L 11.632812 11.050781 L 11.585938 11.089844 L 11.402344 11.269531 L 11.273438 11.429688 L 11.117188 11.644531 L 11.027344 11.726562 L 10.921875 11.867188 L 10.871094 11.964844 L 10.625 11.96875 L 9.929688 12.019531 L 9.714844 12.082031 L 9.628906 12.121094 L 9.335938 12.078125 L 9.261719 12.066406 L 9.066406 12.171875 L 8.988281 12.210938 L 8.921875 12.253906 L 8.882812 12.292969 L 8.378906 12.492188 L 8.214844 12.640625 L 8.15625 12.671875 L 8 12.714844 L 7.789062 12.808594 L 7.699219 12.84375 L 7.53125 12.71875 L 7.414062 12.625 L 7.308594 12.558594 L 7.289062 12.390625 L 7.261719 12.273438 L 7.15625 12.289062 L 7.109375 12.421875 L 7.058594 12.519531 L 6.808594 12.667969 L 6.253906 12.847656 L 6.117188 12.921875 L 5.878906 12.929688 L 5.722656 12.925781 L 5.457031 12.949219 L 5.394531 12.949219 L 5.269531 12.972656 L 5.027344 13.253906 C 4.847656 13.386719 4.847656 13.402344 4.847656 13.417969 C 4.847656 13.433594 4.859375 13.539062 4.859375 13.582031 L 4.636719 13.972656 L 4.601562 14.027344 L 4.554688 14.058594 L 4.445312 14.105469 L 4.335938 14.203125 L 4.304688 14.28125 L 4.300781 14.375 L 4.289062 14.464844 L 4.246094 14.582031 L 4.199219 14.710938 L 4.160156 14.738281 L 4.160156 14.742188 C 4.160156 14.742188 4.113281 14.832031 4.097656 14.863281 C 4.082031 14.898438 4.066406 14.964844 4.066406 14.976562 L 4.054688 15.078125 L 4.011719 15.101562 L 3.964844 15.132812 L 3.878906 15.167969 L 3.738281 15.234375 L 3.652344 15.285156 L 3.523438 15.375 L 3.394531 15.472656 L 3.585938 15.667969 L 3.617188 15.707031 L 3.679688 15.753906 L 3.765625 15.761719 L 3.8125 15.847656 C 3.832031 15.875 3.847656 15.90625 3.847656 15.917969 L 3.878906 16.09375 L 3.886719 16.21875 L 3.851562 16.347656 L 3.84375 16.433594 L 3.851562 16.507812 L 3.859375 16.515625 C 3.871094 16.539062 3.890625 16.570312 3.894531 16.570312 C 3.898438 16.578125 3.902344 16.597656 3.910156 16.613281 L 3.867188 16.734375 L 3.824219 16.796875 L 3.820312 16.804688 C 3.820312 16.8125 3.78125 16.921875 3.882812 17.019531 C 3.941406 17.078125 3.972656 17.113281 3.984375 17.128906 L 3.976562 17.386719 L 3.957031 17.425781 L 3.882812 17.546875 L 3.945312 17.726562 L 3.949219 17.925781 L 3.9375 18.113281 L 4.054688 18.269531 L 4.300781 18.421875 L 4.417969 18.46875 L 4.484375 18.546875 L 4.503906 18.558594 L 4.601562 18.636719 L 4.695312 18.726562 L 4.730469 19.140625 L 4.808594 19.398438 L 4.871094 19.5625 L 5.597656 20.554688 L 5.820312 20.789062 L 5.859375 20.824219 L 5.96875 20.824219 L 6.074219 20.84375 L 6.128906 20.890625 C 6.144531 20.957031 6.171875 20.964844 6.179688 20.964844 C 6.1875 20.96875 6.257812 20.992188 6.324219 21.019531 L 6.398438 21.152344 L 6.429688 21.191406 L 6.378906 21.324219 L 6.351562 21.414062 L 6.410156 21.515625 L 6.417969 21.589844 L 6.40625 21.773438 C 6.40625 21.847656 6.40625 21.859375 6.410156 21.863281 C 6.414062 21.871094 6.417969 21.917969 6.425781 21.957031 L 6.425781 21.96875 L 6.496094 22.074219 L 6.539062 22.152344 L 6.574219 22.230469 L 6.636719 22.433594 L 7.285156 21.269531 L 7.234375 20.953125 L 7.355469 20.714844 L 7.347656 20.375 L 7.625 20.277344 L 7.890625 20.054688 L 8.183594 20.054688 L 8.398438 19.996094 L 8.585938 19.914062 L 8.742188 19.898438 L 8.925781 19.84375 L 9.027344 19.828125 L 9.199219 19.890625 L 9.402344 19.894531 L 9.519531 20.046875 L 9.714844 20.011719 L 9.804688 20.011719 L 10.09375 20.109375 L 10.40625 20.066406 L 10.574219 20.050781 L 10.648438 19.972656 L 10.957031 20.117188 L 10.875 19.765625 L 10.863281 19.675781 L 10.851562 19.515625 L 10.84375 19.246094 L 10.851562 19.105469 L 10.851562 19.011719 L 10.820312 18.757812 L 10.8125 18.648438 L 10.804688 18.644531 C 10.808594 18.640625 10.8125 18.636719 10.816406 18.632812 C 10.851562 18.609375 10.929688 18.582031 10.953125 18.574219 C 10.953125 18.574219 10.964844 18.570312 10.980469 18.570312 C 11.007812 18.558594 11.054688 18.542969 11.113281 18.507812 L 11.136719 18.492188 C 11.195312 18.460938 11.199219 18.453125 11.210938 18.390625 C 11.214844 18.382812 11.214844 18.371094 11.21875 18.359375 C 11.222656 18.328125 11.230469 18.304688 11.234375 18.285156 C 11.238281 18.257812 11.242188 18.230469 11.242188 18.230469 C 11.246094 18.226562 11.261719 18.214844 11.308594 18.117188 L 11.472656 17.933594 L 11.511719 17.875 L 11.566406 17.777344 L 11.582031 17.695312 C 11.582031 17.695312 11.585938 17.652344 11.585938 17.636719 C 11.589844 17.632812 11.597656 17.609375 11.609375 17.59375 L 11.636719 17.570312 L 11.695312 17.546875 L 11.785156 17.535156 L 11.949219 17.46875 L 12.128906 17.382812 L 12.210938 17.355469 L 12.261719 17.328125 L 12.339844 17.308594 L 12.433594 17.277344 L 12.484375 17.273438 L 12.53125 17.261719 L 12.613281 17.214844 L 12.679688 17.167969 L 12.851562 17.171875 L 12.882812 17.179688 L 12.960938 17.195312 L 13.023438 17.234375 L 13.1875 17.441406 L 13.332031 17.523438 L 13.523438 17.652344 L 13.601562 17.6875 L 13.742188 17.804688 L 13.820312 17.863281 L 13.878906 17.871094 L 13.933594 17.910156 L 13.996094 17.957031 L 14.074219 18.046875 L 14.144531 18.164062 L 14.222656 18.34375 L 14.261719 18.375 L 14.335938 18.398438 L 14.382812 18.425781 L 14.53125 18.464844 L 14.621094 18.453125 L 14.714844 18.421875 L 14.804688 18.40625 C 14.816406 18.402344 14.871094 18.402344 14.894531 18.402344 C 14.894531 18.402344 14.921875 18.402344 14.941406 18.40625 C 14.953125 18.410156 14.964844 18.410156 14.972656 18.410156 L 15.058594 18.464844 L 15.09375 18.492188 L 15.15625 18.507812 L 15.164062 18.507812 C 15.167969 18.507812 15.179688 18.507812 15.183594 18.507812 C 15.183594 18.511719 15.183594 18.515625 15.1875 18.519531 C 15.199219 18.53125 15.207031 18.539062 15.21875 18.542969 C 15.222656 18.542969 15.234375 18.554688 15.242188 18.558594 C 15.246094 18.5625 15.25 18.570312 15.253906 18.570312 C 15.261719 18.574219 15.285156 18.597656 15.285156 18.597656 L 15.378906 18.648438 L 15.46875 18.644531 L 15.589844 18.648438 L 15.707031 18.695312 L 15.9375 18.769531 L 15.992188 18.789062 L 16 18.792969 C 16.003906 18.792969 16.066406 18.804688 16.101562 18.804688 C 16.132812 18.800781 16.167969 18.789062 16.167969 18.789062 L 16.222656 18.765625 L 16.324219 18.6875 C 16.335938 18.675781 16.347656 18.667969 16.347656 18.664062 C 16.359375 18.664062 16.402344 18.660156 16.417969 18.660156 L 16.9375 18.816406 L 17.117188 18.867188 L 17.242188 18.898438 C 17.246094 18.902344 17.414062 18.949219 17.492188 18.949219 C 17.515625 18.949219 17.519531 18.953125 17.527344 18.953125 C 17.550781 18.960938 17.5625 18.957031 17.613281 18.933594 L 17.632812 18.929688 C 17.71875 18.894531 17.8125 18.863281 17.828125 18.789062 C 17.839844 18.738281 17.84375 18.671875 17.847656 18.652344 L 17.898438 18.570312 L 17.949219 18.496094 L 17.949219 18.488281 C 17.949219 18.488281 17.949219 18.414062 17.949219 18.382812 C 17.949219 18.359375 17.953125 18.335938 17.957031 18.320312 C 17.972656 18.316406 18.007812 18.3125 18.039062 18.308594 C 18.089844 18.296875 18.097656 18.285156 18.101562 18.285156 C 18.109375 18.277344 18.117188 18.269531 18.21875 18.046875 L 18.238281 17.992188 L 18.308594 17.945312 L 18.355469 17.921875 L 18.429688 17.867188 L 18.464844 17.847656 L 18.515625 17.828125 C 18.527344 17.828125 18.558594 17.828125 18.597656 17.84375 C 18.65625 17.867188 18.683594 17.875 18.683594 17.875 L 18.746094 17.894531 L 18.828125 17.902344 L 18.9375 17.945312 L 18.976562 17.953125 L 19.011719 17.964844 L 19.050781 17.984375 L 19.089844 17.992188 L 19.109375 18.007812 L 19.179688 18.050781 C 19.191406 18.058594 19.242188 18.085938 19.273438 18.089844 C 19.308594 18.097656 19.332031 18.097656 19.378906 18.070312 C 19.417969 18.050781 19.445312 18.011719 19.457031 18 L 19.507812 17.976562 L 19.558594 17.96875 L 19.65625 17.9375 L 19.734375 17.886719 L 19.9375 17.832031 L 20.023438 17.804688 L 20.125 17.804688 L 20.195312 17.789062 L 20.269531 17.742188 L 20.503906 17.644531 L 20.585938 17.632812 L 20.714844 17.582031 L 20.820312 17.519531 L 20.898438 17.539062 L 20.988281 17.464844 L 21.058594 17.414062 L 21.101562 17.347656 L 21.097656 17.3125 L 21.253906 17.308594 L 21.359375 17.363281 L 21.488281 17.402344 L 21.59375 17.492188 L 21.667969 17.558594 L 21.835938 17.566406 L 22.035156 17.515625 L 22.175781 17.464844 L 22.257812 17.441406 L 22.34375 17.449219 L 22.417969 17.476562 L 22.476562 17.425781 L 22.507812 17.371094 L 22.519531 17.355469 L 22.605469 17.378906 L 22.664062 17.351562 C 22.765625 17.3125 22.765625 17.28125 22.765625 17.269531 C 22.765625 17.246094 22.757812 17.183594 22.753906 17.171875 L 22.746094 17.117188 L 22.765625 17.070312 L 22.769531 17.011719 L 22.789062 16.933594 L 22.828125 16.902344 L 22.832031 16.824219 C 22.839844 16.8125 22.855469 16.777344 22.882812 16.785156 C 22.960938 16.804688 23.011719 16.765625 23.015625 16.765625 L 23.042969 16.742188 L 23.066406 16.738281 L 23.125 16.75 L 23.199219 16.714844 L 23.261719 16.746094 L 23.273438 16.75 C 23.273438 16.75 23.316406 16.75 23.324219 16.75 L 23.347656 16.75 L 23.375 16.757812 L 23.378906 16.804688 L 23.414062 16.851562 L 23.542969 16.933594 L 23.53125 16.878906 C 23.53125 16.878906 23.53125 16.878906 23.535156 16.878906 C 23.546875 16.878906 23.5625 16.882812 23.570312 16.894531 L 23.5625 16.957031 L 23.664062 16.960938 L 23.6875 16.925781 L 23.726562 16.945312 L 23.738281 16.945312 C 23.75 16.945312 23.78125 16.941406 23.800781 16.929688 C 23.808594 16.921875 23.824219 16.90625 23.835938 16.894531 L 23.855469 16.894531 C 23.917969 16.941406 23.957031 16.964844 23.980469 16.96875 C 24.007812 16.972656 24.054688 16.953125 24.082031 16.945312 L 24.132812 16.925781 L 24.15625 16.914062 L 24.246094 16.972656 L 24.296875 16.984375 L 24.335938 16.984375 L 24.453125 17.066406 L 24.582031 17.074219 L 24.648438 17.132812 L 24.667969 17.128906 C 24.6875 17.128906 24.703125 17.121094 24.714844 17.121094 C 24.726562 17.140625 24.75 17.167969 24.75 17.167969 L 24.804688 17.203125 L 24.867188 17.21875 L 24.933594 17.179688 L 25.140625 17.175781 L 25.183594 17.148438 L 25.289062 17.148438 L 25.355469 17.207031 L 25.421875 17.21875 L 25.484375 17.238281 L 25.527344 17.210938 L 25.597656 17.140625 L 25.621094 17.0625 C 25.671875 17.027344 25.738281 16.996094 25.75 16.992188 C 25.777344 16.988281 25.878906 16.960938 25.90625 16.953125 L 25.945312 16.949219 L 25.988281 16.96875 L 26.042969 17.011719 L 26.101562 17.015625 L 26.160156 17.035156 L 26.257812 17.105469 L 26.269531 17.105469 C 26.292969 17.101562 26.3125 17.101562 26.320312 17.101562 C 26.335938 17.113281 26.363281 17.128906 26.367188 17.128906 L 26.4375 17.15625 L 26.484375 17.289062 L 26.582031 17.359375 Z M 26.53125 17.125 L 26.539062 17.136719 Z M 26.53125 17.125 " fill-opacity="1" fill-rule="nonzero"/></g></svg>