<svg xmlns="http://www.w3.org/2000/svg" xmlns:xlink="http://www.w3.org/1999/xlink" width="40" zoomAndPan="magnify" viewBox="0 0 30 30.000001" height="40" preserveAspectRatio="xMidYMid meet" version="1.0"><defs><clipPath id="aad29e99c6"><path d="M 4 3 L 25.757812 3 L 25.757812 26.128906 L 4 26.128906 Z M 4 3 " clip-rule="nonzero"/></clipPath></defs><g clip-path="url(#aad29e99c6)"><path fill="#014d4e" d="M 25.996094 4.210938 C 25.988281 3.890625 25.640625 3.597656 25.320312 3.589844 C 24.746094 3.574219 24.175781 3.515625 23.648438 3.238281 C 23.183594 2.996094 22.703125 2.902344 22.210938 3.207031 C 22.125 3.261719 21.988281 3.292969 21.890625 3.269531 C 21.425781 3.152344 20.984375 3.277344 20.535156 3.363281 C 20.417969 3.382812 20.347656 3.4375 20.320312 3.558594 C 20.261719 3.824219 20.167969 4.082031 20.128906 4.351562 C 19.992188 5.222656 19.511719 5.902344 18.945312 6.539062 C 18.929688 6.558594 18.90625 6.582031 18.882812 6.582031 C 18.667969 6.601562 18.660156 6.765625 18.65625 6.917969 C 18.652344 7.117188 18.675781 7.316406 18.6875 7.511719 C 18.695312 7.613281 18.703125 7.714844 18.714844 7.8125 C 18.691406 7.828125 18.667969 7.84375 18.644531 7.859375 C 18.460938 7.707031 18.257812 7.570312 18.09375 7.398438 C 17.808594 7.105469 17.460938 6.945312 17.066406 6.96875 C 16.84375 6.980469 16.707031 6.949219 16.601562 6.753906 C 16.53125 6.628906 16.421875 6.585938 16.308594 6.707031 C 16.234375 6.789062 16.171875 6.785156 16.085938 6.734375 C 15.746094 6.535156 15.3125 6.542969 15.015625 6.246094 C 15 6.230469 14.96875 6.226562 14.941406 6.222656 C 14.648438 6.183594 14.355469 6.144531 14.0625 6.109375 C 13.257812 6.019531 12.457031 5.929688 11.648438 5.847656 C 11.285156 5.808594 10.898438 6.171875 10.902344 6.535156 C 10.902344 6.742188 10.894531 6.933594 10.757812 7.117188 C 10.695312 7.199219 10.714844 7.363281 10.734375 7.480469 C 10.753906 7.601562 10.835938 7.710938 10.859375 7.832031 C 10.882812 7.925781 10.867188 8.03125 10.847656 8.128906 C 10.835938 8.1875 10.769531 8.238281 10.75 8.296875 C 10.734375 8.355469 10.734375 8.441406 10.765625 8.476562 C 10.796875 8.515625 10.886719 8.535156 10.9375 8.523438 C 11.035156 8.496094 11.117188 8.429688 11.210938 8.402344 C 11.316406 8.371094 11.425781 8.363281 11.535156 8.351562 C 11.644531 8.339844 11.761719 8.363281 11.855469 8.324219 C 12.261719 8.148438 12.660156 8.070312 13.082031 8.261719 C 13.140625 8.289062 13.210938 8.300781 13.277344 8.304688 C 13.453125 8.316406 13.535156 8.421875 13.53125 8.578125 C 13.523438 8.835938 13.617188 9.066406 13.765625 9.257812 C 13.996094 9.5625 13.941406 9.816406 13.710938 10.085938 C 13.554688 10.273438 13.390625 10.390625 13.132812 10.347656 C 13.074219 10.339844 12.992188 10.394531 12.941406 10.441406 C 12.839844 10.535156 12.769531 10.660156 12.664062 10.742188 C 12.382812 10.960938 12.253906 11.226562 12.316406 11.589844 C 12.335938 11.707031 12.304688 11.855469 12.246094 11.960938 C 12.027344 12.351562 12.050781 12.425781 12.5 12.492188 C 12.699219 12.523438 12.820312 12.601562 12.835938 12.808594 C 12.847656 12.972656 12.949219 13.027344 13.109375 13.03125 C 13.195312 13.035156 13.300781 13.054688 13.359375 13.109375 C 13.503906 13.238281 13.628906 13.386719 13.746094 13.539062 C 13.773438 13.578125 13.765625 13.664062 13.746094 13.714844 C 13.65625 13.933594 13.546875 14.148438 13.460938 14.367188 C 13.4375 14.425781 13.425781 14.542969 13.457031 14.566406 C 13.617188 14.683594 13.566406 14.828125 13.550781 14.976562 C 13.535156 15.097656 13.542969 15.21875 13.527344 15.335938 C 13.507812 15.453125 13.496094 15.582031 13.4375 15.679688 C 13.253906 15.984375 13.074219 16.28125 13.105469 16.660156 C 13.105469 16.703125 13.042969 16.773438 12.992188 16.796875 C 12.820312 16.875 12.726562 17.003906 12.652344 17.167969 C 12.601562 17.289062 12.539062 17.40625 12.460938 17.511719 C 12.363281 17.644531 12.324219 17.757812 12.46875 17.859375 C 12.359375 17.960938 12.277344 18.101562 12.164062 18.140625 C 12.046875 18.175781 11.898438 18.109375 11.804688 18.09375 C 11.820312 17.957031 11.867188 17.835938 11.835938 17.75 C 11.765625 17.566406 11.652344 17.398438 11.558594 17.222656 C 11.476562 17.078125 11.375 17.066406 11.257812 17.191406 C 11.152344 17.300781 11.070312 17.433594 10.953125 17.53125 C 10.871094 17.601562 10.757812 17.664062 10.652344 17.667969 C 10.367188 17.683594 10.082031 17.65625 9.796875 17.660156 C 9.675781 17.660156 9.605469 17.628906 9.558594 17.511719 C 9.441406 17.207031 9.3125 16.910156 9.195312 16.609375 C 8.996094 16.101562 8.625 15.972656 8.15625 16.242188 C 8.015625 16.324219 7.976562 16.40625 8.03125 16.5625 C 8.148438 16.917969 8.09375 17.265625 7.960938 17.652344 C 7.5625 17.570312 7.175781 17.492188 6.789062 17.417969 C 6.671875 17.398438 6.542969 17.363281 6.433594 17.390625 C 6.246094 17.4375 6.09375 17.425781 5.960938 17.285156 C 5.917969 17.242188 5.871094 17.199219 5.816406 17.179688 C 5.765625 17.160156 5.6875 17.144531 5.652344 17.171875 C 5.609375 17.203125 5.585938 17.277344 5.578125 17.335938 C 5.570312 17.382812 5.59375 17.441406 5.605469 17.492188 C 5.691406 17.792969 5.769531 18.09375 5.5 18.359375 C 5.414062 18.441406 5.449219 18.585938 5.566406 18.589844 C 5.847656 18.601562 5.882812 18.824219 5.996094 19.007812 C 5.746094 19.171875 5.722656 19.375 5.933594 19.566406 C 6.0625 19.6875 6.214844 19.785156 6.363281 19.898438 C 6.335938 19.933594 6.304688 19.96875 6.28125 20.003906 C 6.140625 20.199219 5.886719 20.367188 6.125 20.65625 C 6.132812 20.664062 6.082031 20.75 6.050781 20.753906 C 5.875 20.773438 5.65625 20.636719 5.578125 20.464844 C 5.546875 20.402344 5.519531 20.332031 5.488281 20.265625 C 5.421875 20.121094 5.332031 20.089844 5.1875 20.183594 C 5.078125 20.253906 4.957031 20.328125 4.832031 20.347656 C 4.554688 20.390625 4.402344 20.5625 4.285156 20.789062 C 4.222656 20.90625 4.167969 21.027344 4.105469 21.144531 C 3.992188 21.363281 4.066406 21.507812 4.316406 21.535156 C 4.378906 21.542969 4.445312 21.535156 4.507812 21.535156 C 4.433594 21.824219 4.578125 22.125 4.820312 22.152344 C 4.96875 22.171875 4.976562 22.269531 5.023438 22.359375 C 5.125 22.558594 5.191406 22.785156 5.332031 22.960938 C 5.492188 23.164062 5.5 23.371094 5.480469 23.605469 C 5.476562 23.691406 5.464844 23.796875 5.511719 23.859375 C 5.949219 24.46875 6.261719 25.128906 6.320312 25.894531 C 6.328125 25.976562 6.429688 26.050781 6.488281 26.128906 C 6.5625 26.070312 6.660156 26.027344 6.703125 25.953125 C 6.980469 25.484375 7.25 25.011719 7.515625 24.539062 C 7.597656 24.394531 7.695312 24.296875 7.878906 24.277344 C 7.988281 24.265625 8.097656 24.1875 8.191406 24.121094 C 8.476562 23.933594 8.753906 23.734375 9.039062 23.535156 C 9.214844 23.765625 9.378906 23.972656 9.53125 24.191406 C 9.628906 24.332031 9.722656 24.371094 9.875 24.257812 C 9.976562 24.179688 10.105469 24.113281 10.230469 24.09375 C 10.550781 24.042969 10.625 23.828125 10.65625 23.554688 C 10.664062 23.476562 10.714844 23.402344 10.746094 23.324219 C 10.832031 23.359375 10.929688 23.378906 10.992188 23.4375 C 11.101562 23.542969 11.191406 23.566406 11.320312 23.46875 C 11.585938 23.265625 11.902344 23.21875 12.222656 23.207031 C 12.386719 23.199219 12.519531 23.433594 12.414062 23.558594 C 12.285156 23.714844 12.304688 23.882812 12.300781 24.0625 C 12.289062 24.386719 12.410156 24.609375 12.710938 24.753906 C 12.839844 24.816406 12.933594 24.855469 13.074219 24.792969 C 13.296875 24.691406 13.488281 24.566406 13.636719 24.367188 C 13.753906 24.207031 13.914062 24.082031 14.035156 23.925781 C 14.308594 23.578125 14.644531 23.484375 15.070312 23.585938 C 15.402344 23.664062 15.507812 23.613281 15.632812 23.308594 C 15.746094 23.039062 15.820312 22.78125 16.191406 22.851562 C 16.203125 22.851562 16.214844 22.835938 16.226562 22.835938 C 16.300781 22.832031 16.386719 22.808594 16.449219 22.835938 C 16.628906 22.910156 16.75 22.878906 16.746094 22.695312 C 16.742188 22.347656 17.015625 22.167969 17.175781 21.925781 C 17.449219 21.507812 17.722656 21.117188 17.703125 20.574219 C 17.691406 20.179688 17.609375 19.785156 17.714844 19.382812 C 17.777344 19.140625 17.777344 18.871094 17.753906 18.617188 C 17.722656 18.332031 17.796875 18.117188 18.027344 17.945312 C 18.597656 17.519531 19.058594 16.992188 19.445312 16.398438 C 19.667969 16.0625 19.980469 15.859375 20.359375 15.738281 C 20.554688 15.679688 20.757812 15.605469 20.917969 15.488281 C 21.355469 15.167969 21.773438 14.816406 22.199219 14.480469 C 22.433594 14.292969 22.554688 14.054688 22.511719 13.75 C 22.421875 13.140625 22.65625 12.625 23.0625 12.214844 C 23.324219 11.949219 23.382812 11.695312 23.273438 11.367188 C 23.269531 11.355469 23.265625 11.34375 23.265625 11.328125 C 23.230469 10.832031 23.21875 10.347656 23.453125 9.875 C 23.699219 9.386719 23.902344 8.878906 23.996094 8.324219 C 24.066406 7.910156 24.140625 7.464844 24.347656 7.113281 C 24.769531 6.394531 25.257812 5.710938 25.765625 5.050781 C 25.9375 4.824219 26.003906 4.609375 26.003906 4.351562 C 26.003906 4.304688 26 4.257812 25.996094 4.210938 Z M 25.996094 4.210938 " fill-opacity="1" fill-rule="evenodd"/></g></svg>