<svg xmlns="http://www.w3.org/2000/svg" xmlns:xlink="http://www.w3.org/1999/xlink" width="40" zoomAndPan="magnify" viewBox="0 0 30 30.000001" height="40" preserveAspectRatio="xMidYMid meet" version="1.0"><defs><clipPath id="ad191cb915"><path d="M 3.386719 7.113281 L 26.613281 7.113281 L 26.613281 21.628906 L 3.386719 21.628906 Z M 3.386719 7.113281 " clip-rule="nonzero"/></clipPath></defs><g clip-path="url(#ad191cb915)"><path fill="#014d4e" d="M 26.375 15.824219 C 26.3125 15.804688 26.253906 15.863281 26.195312 15.863281 C 26.160156 15.863281 26.125 15.839844 26.082031 15.832031 C 26.054688 15.761719 26.027344 15.683594 26.023438 15.65625 C 26.019531 15.578125 26.058594 15.554688 26.089844 15.484375 C 26.125 15.414062 26.117188 15.355469 26.125 15.273438 C 26.140625 15.140625 26.25 15.078125 26.28125 14.9375 C 26.3125 14.820312 26.21875 14.699219 26.25 14.597656 C 26.261719 14.546875 26.316406 14.511719 26.34375 14.460938 C 26.382812 14.394531 26.410156 14.308594 26.425781 14.230469 C 26.460938 14.058594 26.503906 13.828125 26.46875 13.65625 C 26.460938 13.609375 26.429688 13.542969 26.394531 13.511719 C 26.359375 13.484375 26.28125 13.5 26.253906 13.480469 C 26.167969 13.40625 26.21875 13.234375 26.105469 13.171875 C 26 13.117188 25.847656 13.191406 25.789062 13.277344 C 25.703125 13.414062 25.742188 13.558594 25.695312 13.699219 C 25.628906 13.652344 25.449219 13.609375 25.367188 13.648438 C 25.234375 13.714844 25.296875 13.867188 25.238281 13.972656 C 25.203125 14.042969 25.035156 14.191406 24.953125 14.214844 C 24.84375 14.246094 24.695312 14.210938 24.597656 14.171875 C 24.378906 14.085938 24.21875 13.9375 24.027344 13.8125 C 23.875 13.714844 23.636719 13.734375 23.523438 13.558594 C 23.429688 13.425781 23.535156 13.246094 23.523438 13.097656 C 23.507812 12.9375 23.292969 12.925781 23.160156 12.886719 C 23.019531 12.847656 22.878906 12.757812 22.742188 12.738281 C 22.59375 12.71875 22.46875 12.703125 22.320312 12.664062 C 22.167969 12.628906 22.011719 12.675781 21.855469 12.648438 C 21.769531 12.632812 21.65625 12.566406 21.574219 12.507812 C 21.59375 12.460938 21.613281 12.417969 21.621094 12.382812 C 21.65625 12.273438 21.59375 12.171875 21.558594 12.066406 C 21.523438 11.9375 21.523438 11.820312 21.503906 11.691406 C 21.449219 11.335938 21.695312 11.238281 21.855469 10.972656 C 21.941406 10.839844 22.003906 10.746094 22.023438 10.59375 C 22.042969 10.449219 22.121094 10.417969 22.207031 10.3125 C 22.292969 10.207031 22.472656 9.886719 22.382812 9.765625 C 22.34375 9.714844 22.230469 9.664062 22.171875 9.636719 C 22.070312 9.589844 22.105469 9.597656 22.042969 9.503906 C 22.011719 9.457031 21.914062 9.367188 21.855469 9.355469 C 21.78125 9.335938 21.761719 9.40625 21.683594 9.40625 C 21.597656 9.40625 21.535156 9.316406 21.472656 9.269531 C 21.398438 9.207031 21.300781 9.1875 21.234375 9.117188 C 21.175781 9.054688 21.121094 8.976562 21.070312 8.90625 C 21.019531 8.828125 21.015625 8.742188 20.9375 8.679688 C 20.789062 8.550781 20.546875 8.585938 20.410156 8.441406 C 20.292969 8.3125 20.238281 8.171875 20.058594 8.121094 C 19.875 8.074219 19.75 8.089844 19.570312 8.085938 C 19.425781 8.085938 19.289062 8 19.140625 8.015625 C 18.980469 8.027344 18.867188 8.148438 18.722656 8.164062 C 18.601562 8.171875 18.421875 8.125 18.382812 7.996094 C 18.367188 7.941406 18.398438 7.894531 18.375 7.847656 C 18.347656 7.800781 18.261719 7.777344 18.21875 7.757812 C 18.113281 7.699219 18.039062 7.628906 17.953125 7.734375 C 17.886719 7.820312 17.871094 7.894531 17.792969 7.746094 C 17.738281 7.636719 17.789062 7.566406 17.785156 7.453125 C 17.785156 7.296875 17.707031 7.378906 17.617188 7.335938 C 17.527344 7.296875 17.527344 7.171875 17.425781 7.140625 C 17.421875 7.144531 17.386719 7.175781 17.390625 7.167969 C 17.355469 7.226562 17.316406 7.277344 17.28125 7.335938 C 17.234375 7.246094 17.175781 7.140625 17.109375 7.128906 C 17.042969 7.121094 17.027344 7.160156 16.996094 7.203125 C 16.914062 7.300781 16.949219 7.300781 16.804688 7.296875 C 16.679688 7.296875 16.570312 7.308594 16.515625 7.4375 C 16.464844 7.566406 16.550781 7.707031 16.363281 7.738281 C 16.257812 7.757812 16.25 7.714844 16.199219 7.808594 C 16.175781 7.851562 16.152344 7.917969 16.183594 7.972656 C 16.207031 8.015625 16.273438 8.039062 16.3125 8.078125 C 16.339844 8.109375 16.347656 8.191406 16.398438 8.210938 C 16.484375 8.253906 16.71875 8.167969 16.804688 8.132812 C 16.894531 8.097656 17.035156 8.011719 17.125 8.097656 C 17.226562 8.191406 17.105469 8.226562 17.070312 8.300781 C 17.035156 8.386719 17.101562 8.492188 17.070312 8.597656 C 16.957031 8.542969 16.792969 8.4375 16.664062 8.429688 C 16.597656 8.429688 16.535156 8.453125 16.488281 8.503906 C 16.445312 8.546875 16.449219 8.632812 16.40625 8.664062 C 16.367188 8.691406 16.28125 8.675781 16.25 8.65625 C 16.167969 8.621094 16.167969 8.585938 16.082031 8.585938 C 15.976562 8.585938 15.859375 8.679688 15.75 8.609375 C 15.707031 8.578125 15.722656 8.535156 15.695312 8.511719 C 15.660156 8.484375 15.597656 8.464844 15.554688 8.449219 C 15.421875 8.40625 15.402344 8.4375 15.28125 8.472656 C 15.164062 8.511719 15.039062 8.464844 14.917969 8.503906 C 14.824219 8.535156 14.746094 8.617188 14.664062 8.675781 C 14.53125 8.777344 14.242188 8.808594 14.085938 8.757812 C 14.050781 8.757812 13.9375 8.746094 13.851562 8.742188 C 13.859375 8.652344 13.859375 8.554688 13.835938 8.472656 C 13.75 8.535156 13.664062 8.542969 13.558594 8.535156 C 13.484375 8.53125 13.417969 8.5 13.347656 8.523438 C 13.296875 8.535156 13.257812 8.613281 13.214844 8.640625 C 13.152344 8.679688 13.105469 8.683594 13.039062 8.703125 C 12.941406 8.734375 12.878906 8.8125 12.785156 8.769531 C 12.75 8.757812 12.726562 8.714844 12.6875 8.695312 C 12.65625 8.679688 12.570312 8.691406 12.546875 8.671875 C 12.503906 8.636719 12.53125 8.554688 12.515625 8.492188 C 12.464844 8.226562 12.152344 8.449219 11.992188 8.511719 C 11.773438 8.59375 11.707031 8.699219 11.667969 8.898438 C 11.65625 8.972656 11.675781 9.121094 11.609375 9.164062 C 11.453125 9.257812 11.34375 9.078125 11.316406 9.332031 C 11.292969 9.527344 11.269531 9.511719 11.082031 9.523438 C 10.886719 9.53125 10.675781 9.714844 10.492188 9.691406 C 10.386719 9.675781 10.28125 9.570312 10.175781 9.535156 C 10.046875 9.492188 9.980469 9.46875 10.0625 9.339844 C 10.128906 9.230469 10.1875 9.132812 10.039062 9.121094 C 9.890625 9.105469 9.765625 9.125 9.617188 9.089844 C 9.503906 9.066406 9.371094 9.0625 9.253906 9.058594 C 9.164062 9.054688 9.058594 9.074219 9.066406 9.183594 C 9.070312 9.269531 9.191406 9.320312 9.128906 9.421875 C 9.082031 9.503906 8.964844 9.492188 8.894531 9.527344 C 8.765625 9.585938 8.859375 9.636719 8.8125 9.71875 C 8.785156 9.761719 8.640625 9.808594 8.589844 9.851562 C 8.519531 9.910156 8.441406 10.003906 8.464844 10.101562 C 8.746094 10.183594 9.070312 9.957031 9.285156 10.160156 C 9.316406 10.210938 9.339844 10.265625 9.359375 10.316406 C 9.296875 10.34375 9.238281 10.375 9.179688 10.410156 C 9.050781 10.503906 8.933594 10.601562 8.894531 10.757812 C 8.828125 11 8.644531 11.132812 8.453125 11.300781 C 8.339844 11.402344 8.234375 11.542969 8.125 11.652344 C 8.019531 11.761719 7.953125 11.746094 7.832031 11.808594 C 7.730469 11.855469 7.785156 11.898438 7.746094 11.992188 C 7.710938 12.074219 7.597656 12.117188 7.53125 12.164062 C 7.503906 12.183594 7.421875 12.238281 7.40625 12.273438 C 7.390625 12.316406 7.429688 12.335938 7.429688 12.378906 C 7.429688 12.46875 7.378906 12.515625 7.304688 12.554688 C 7.09375 12.660156 6.898438 12.769531 6.6875 12.886719 C 6.535156 12.96875 6.386719 12.894531 6.238281 13.03125 C 6.101562 13.152344 6.042969 13.3125 6.101562 13.484375 C 6.144531 13.613281 6.191406 13.777344 6.125 13.910156 C 6.085938 13.980469 5.996094 14.035156 5.984375 14.117188 C 5.976562 14.179688 6.015625 14.226562 6.039062 14.277344 C 6.039062 14.320312 6.039062 14.421875 6.039062 14.492188 C 5.875 14.648438 5.722656 14.765625 5.511719 14.882812 C 5.328125 14.980469 5.128906 15.085938 4.976562 15.234375 C 4.902344 15.300781 4.839844 15.378906 4.773438 15.445312 C 4.6875 15.535156 4.496094 15.609375 4.433594 15.714844 C 4.359375 15.832031 4.507812 15.863281 4.535156 15.953125 C 4.558594 16.039062 4.414062 16.195312 4.359375 16.269531 C 4.277344 16.363281 4.121094 16.464844 4.089844 16.59375 C 4.0625 16.714844 4.175781 16.804688 4.039062 16.90625 C 4.132812 17.105469 4.425781 17.042969 4.402344 17.308594 C 4.378906 17.5625 4.230469 17.789062 4.171875 18.039062 C 4.136719 18.179688 4.09375 18.1875 3.972656 18.1875 C 3.847656 18.191406 3.789062 18.226562 3.699219 18.328125 C 3.636719 18.394531 3.507812 18.46875 3.472656 18.554688 C 3.433594 18.664062 3.546875 18.699219 3.515625 18.820312 C 3.488281 18.917969 3.386719 19.0625 3.574219 18.996094 C 3.746094 18.933594 3.839844 18.902344 4.027344 18.949219 C 4.179688 18.988281 4.324219 19.054688 4.453125 18.90625 C 4.527344 18.824219 4.539062 18.738281 4.632812 18.671875 C 4.707031 18.617188 4.804688 18.570312 4.878906 18.519531 C 4.960938 18.464844 5.128906 18.382812 5.144531 18.273438 C 5.167969 18.101562 4.980469 18.191406 4.910156 18.125 C 4.785156 18.011719 4.957031 17.734375 5.039062 17.652344 C 5.128906 17.5625 5.199219 17.414062 5.296875 17.328125 C 5.367188 17.265625 5.433594 17.28125 5.519531 17.289062 C 5.554688 17.289062 5.613281 17.277344 5.636719 17.296875 C 5.675781 17.332031 5.640625 17.394531 5.667969 17.4375 C 5.742188 17.535156 5.792969 17.441406 5.875 17.375 C 5.960938 17.300781 6.066406 17.203125 6.171875 17.167969 C 6.242188 17.148438 6.328125 17.160156 6.40625 17.140625 C 6.488281 17.121094 6.554688 17.082031 6.625 17.058594 C 6.789062 17 6.921875 17.023438 7.085938 17.046875 C 7.230469 17.066406 7.363281 17.046875 7.503906 17.089844 C 7.59375 17.121094 7.683594 17.160156 7.773438 17.195312 C 7.730469 17.253906 7.695312 17.308594 7.6875 17.3125 C 7.617188 17.40625 7.550781 17.507812 7.578125 17.621094 C 7.601562 17.722656 7.695312 17.882812 7.753906 17.96875 C 7.855469 18.117188 7.917969 18.152344 7.859375 18.34375 C 7.8125 18.492188 7.703125 18.613281 7.640625 18.761719 C 7.597656 18.855469 7.488281 19.0625 7.578125 19.164062 C 7.664062 19.25 7.894531 19.214844 8.003906 19.300781 C 8.144531 19.414062 8.039062 19.53125 7.984375 19.667969 C 7.910156 19.847656 7.984375 19.925781 8.152344 19.890625 C 8.261719 19.867188 8.261719 19.867188 8.34375 19.960938 C 8.40625 20.039062 8.472656 20.128906 8.550781 20.195312 C 8.578125 20.222656 8.617188 20.25 8.660156 20.273438 C 8.675781 20.296875 8.6875 20.320312 8.703125 20.34375 C 8.71875 20.402344 8.746094 20.550781 8.789062 20.636719 C 8.855469 20.769531 8.957031 20.890625 9.058594 21 C 9.148438 21.101562 9.285156 21.226562 9.429688 21.183594 C 9.527344 21.152344 9.601562 21.078125 9.699219 21.050781 C 9.785156 21.023438 9.878906 21.011719 9.964844 21.003906 C 10.132812 20.996094 10.285156 20.980469 10.449219 20.960938 C 10.550781 20.953125 10.644531 20.953125 10.746094 20.917969 C 10.851562 20.882812 10.996094 20.875 11.089844 20.828125 C 11.296875 20.734375 11.324219 20.464844 11.570312 20.535156 C 11.761719 20.589844 12.058594 20.535156 12.171875 20.722656 C 12.226562 20.808594 12.226562 20.910156 12.34375 20.914062 C 12.402344 20.917969 12.449219 20.882812 12.511719 20.890625 C 12.566406 20.894531 12.621094 20.9375 12.667969 20.953125 C 12.78125 20.992188 12.910156 21.03125 13.007812 20.976562 C 13.078125 20.945312 13.148438 20.851562 13.226562 20.886719 C 13.296875 20.691406 13.292969 20.609375 13.503906 20.527344 C 13.738281 20.4375 13.917969 20.417969 13.949219 20.125 C 13.960938 19.992188 13.957031 19.882812 14.066406 19.78125 C 14.15625 19.699219 14.277344 19.671875 14.375 19.605469 C 14.597656 19.445312 14.664062 19.046875 14.511719 18.824219 C 14.464844 18.746094 14.34375 18.683594 14.339844 18.578125 C 14.335938 18.449219 14.472656 18.371094 14.570312 18.335938 C 14.664062 18.300781 14.773438 18.292969 14.859375 18.230469 C 15 18.136719 15.058594 17.992188 15.15625 17.867188 C 15.230469 17.777344 15.347656 17.761719 15.421875 17.679688 C 15.507812 17.585938 15.433594 17.523438 15.449219 17.414062 C 15.476562 17.234375 16.078125 16.957031 16.15625 17.171875 C 16.183594 17.238281 16.15625 17.382812 16.15625 17.460938 C 16.152344 17.59375 16.089844 17.714844 16.078125 17.84375 C 16.066406 17.953125 16.089844 18.058594 16.070312 18.167969 C 16.050781 18.289062 15.992188 18.394531 15.992188 18.511719 C 15.992188 18.726562 16.125 18.742188 16.296875 18.808594 C 16.425781 18.863281 16.523438 18.945312 16.632812 19.003906 C 16.636719 19.015625 16.640625 19.019531 16.644531 19.019531 C 16.726562 19.148438 16.859375 19.246094 16.949219 19.363281 C 17.039062 19.484375 17.128906 19.652344 17.253906 19.738281 C 17.410156 19.851562 17.640625 19.863281 17.816406 19.8125 C 18.046875 19.746094 18.070312 19.894531 18.085938 20.101562 C 18.089844 20.226562 18.019531 20.289062 17.953125 20.378906 C 17.878906 20.476562 17.824219 20.585938 17.792969 20.699219 C 17.914062 20.761719 18.058594 20.683594 18.1875 20.746094 C 18.347656 20.824219 18.339844 21.003906 18.378906 21.148438 C 18.417969 21.292969 18.578125 21.363281 18.597656 21.507812 C 18.613281 21.632812 18.511719 21.710938 18.503906 21.8125 C 18.582031 21.851562 18.652344 21.820312 18.730469 21.828125 C 18.792969 21.832031 18.894531 21.90625 18.953125 21.890625 C 19.039062 21.875 19.085938 21.695312 19.128906 21.617188 C 19.175781 21.53125 19.253906 21.441406 19.292969 21.351562 C 19.34375 21.226562 19.289062 21.195312 19.1875 21.148438 C 19.082031 21.097656 19.042969 21.054688 19 20.949219 C 18.980469 20.90625 18.929688 20.832031 18.929688 20.785156 C 18.929688 20.710938 18.933594 20.757812 18.980469 20.699219 C 19.058594 20.609375 19.058594 20.5625 19.035156 20.429688 C 19 20.265625 19.0625 20.230469 19.199219 20.128906 C 19.246094 20.097656 19.332031 20.078125 19.367188 20.035156 C 19.425781 19.96875 19.398438 19.882812 19.390625 19.804688 C 19.386719 19.648438 19.46875 19.5 19.59375 19.398438 C 19.722656 19.300781 19.898438 19.257812 19.957031 19.085938 C 19.976562 19.03125 19.960938 19.003906 19.992188 18.957031 C 20.019531 18.914062 20.082031 18.886719 20.113281 18.851562 C 20.28125 18.699219 20.3125 18.5 20.34375 18.289062 C 20.367188 18.140625 20.441406 17.972656 20.421875 17.824219 C 20.410156 17.746094 20.367188 17.675781 20.359375 17.597656 C 20.347656 17.535156 20.367188 17.457031 20.335938 17.394531 C 20.300781 17.320312 20.238281 17.316406 20.246094 17.230469 C 20.25 17.128906 20.34375 17.019531 20.398438 16.9375 C 20.417969 16.910156 20.4375 16.851562 20.464844 16.832031 C 20.496094 16.8125 20.523438 16.851562 20.554688 16.84375 C 20.636719 16.820312 20.65625 16.757812 20.738281 16.777344 C 20.898438 16.804688 20.875 17.046875 21.003906 17.097656 C 21.042969 17.109375 21.152344 17.015625 21.25 16.90625 C 21.253906 16.945312 21.257812 16.972656 21.261719 16.992188 C 21.28125 17.136719 21.28125 17.25 21.253906 17.386719 C 21.238281 17.464844 21.238281 17.527344 21.257812 17.597656 C 21.277344 17.671875 21.332031 17.699219 21.347656 17.757812 C 21.386719 17.8125 21.445312 17.78125 21.484375 17.828125 C 21.511719 17.863281 21.507812 17.9375 21.523438 17.988281 C 21.546875 18.082031 21.613281 18.1875 21.695312 18.246094 C 21.800781 18.320312 21.953125 18.332031 22.078125 18.371094 C 22.21875 18.414062 22.363281 18.421875 22.511719 18.394531 C 22.6875 18.355469 22.597656 18.214844 22.675781 18.085938 C 22.761719 17.945312 22.875 18.101562 23.015625 18.074219 C 23.238281 18.023438 23.367188 17.777344 23.617188 17.824219 C 23.695312 17.839844 23.804688 17.832031 23.867188 17.886719 C 23.917969 17.929688 23.921875 18 23.953125 18.0625 C 24.023438 18.214844 24.019531 18.402344 24.175781 18.492188 C 24.269531 18.546875 24.3125 18.546875 24.320312 18.65625 C 24.324219 18.71875 24.296875 18.8125 24.316406 18.875 C 24.351562 18.980469 24.394531 18.945312 24.484375 18.914062 C 24.597656 18.875 24.742188 18.847656 24.847656 18.777344 C 25.078125 18.613281 24.84375 18.382812 24.746094 18.222656 C 24.613281 17.996094 25.011719 17.832031 24.90625 17.574219 C 24.824219 17.375 24.503906 17.492188 24.445312 17.25 C 24.421875 17.140625 24.503906 17.042969 24.453125 16.945312 C 24.4375 16.898438 24.367188 16.871094 24.355469 16.828125 C 24.339844 16.785156 24.34375 16.695312 24.355469 16.652344 C 24.378906 16.507812 24.484375 16.511719 24.535156 16.414062 C 24.601562 16.292969 24.523438 16.136719 24.664062 16.042969 C 24.777344 15.976562 24.90625 16.011719 25.023438 15.988281 C 25.101562 15.96875 25.1875 15.910156 25.273438 15.933594 C 25.402344 15.96875 25.316406 16.074219 25.320312 16.1875 C 25.324219 16.355469 25.410156 16.292969 25.511719 16.359375 C 25.585938 16.40625 25.550781 16.507812 25.621094 16.550781 C 25.722656 16.613281 25.914062 16.484375 26.035156 16.511719 C 26.144531 16.542969 26.246094 16.621094 26.363281 16.570312 C 26.558594 16.519531 26.613281 15.890625 26.375 15.824219 Z M 26.375 15.824219 " fill-opacity="1" fill-rule="nonzero"/></g></svg>