<svg xmlns="http://www.w3.org/2000/svg" xmlns:xlink="http://www.w3.org/1999/xlink" width="40" zoomAndPan="magnify" viewBox="0 0 30 30.000001" height="40" preserveAspectRatio="xMidYMid meet" version="1.0"><defs><clipPath id="00ccadfa8d"><path d="M 3.925781 2.910156 L 26.074219 2.910156 L 26.074219 26.121094 L 3.925781 26.121094 Z M 3.925781 2.910156 " clip-rule="nonzero"/></clipPath></defs><g clip-path="url(#00ccadfa8d)"><path fill="#014d4e" d="M 25.257812 23.402344 C 25.277344 23.367188 25.3125 23.339844 25.332031 23.300781 C 25.347656 23.261719 25.347656 23.222656 25.347656 23.179688 C 25.347656 23.027344 25.347656 22.871094 25.296875 22.726562 C 25.273438 22.667969 25.246094 22.609375 25.226562 22.546875 C 25.148438 22.296875 25.28125 21.992188 25.167969 21.753906 C 25.183594 21.644531 25.101562 21.535156 24.996094 21.496094 C 24.890625 21.453125 24.773438 21.464844 24.664062 21.492188 C 24.632812 21.5 24.597656 21.507812 24.570312 21.488281 C 24.550781 21.476562 24.542969 21.453125 24.53125 21.433594 C 24.472656 21.324219 24.347656 21.265625 24.285156 21.164062 C 24.253906 21.113281 24.238281 21.054688 24.226562 20.996094 C 24.15625 20.710938 24.097656 20.425781 24.050781 20.136719 C 24.027344 19.972656 24.003906 19.8125 23.972656 19.652344 C 23.890625 19.265625 23.753906 18.894531 23.558594 18.550781 C 23.476562 18.402344 23.382812 18.257812 23.328125 18.097656 C 23.273438 17.9375 23.265625 17.75 23.347656 17.601562 C 23.386719 17.53125 23.449219 17.441406 23.398438 17.378906 C 23.382812 17.363281 23.367188 17.351562 23.351562 17.335938 C 23.265625 17.25 23.363281 17.105469 23.453125 17.023438 C 23.945312 16.578125 24.390625 16.027344 24.5 15.371094 C 24.558594 15.035156 24.515625 14.683594 24.605469 14.355469 C 24.671875 14.121094 24.738281 13.886719 24.804688 13.652344 C 24.824219 13.589844 24.84375 13.523438 24.871094 13.464844 C 24.90625 13.390625 24.953125 13.320312 25.003906 13.253906 C 25.109375 13.105469 25.21875 12.960938 25.351562 12.835938 C 25.457031 12.742188 25.582031 12.660156 25.652344 12.53125 C 25.691406 12.464844 25.710938 12.386719 25.75 12.316406 C 25.816406 12.207031 25.929688 12.132812 25.996094 12.023438 C 26.078125 11.894531 26.085938 11.734375 26.0625 11.585938 C 26.035156 11.4375 25.984375 11.296875 25.945312 11.152344 C 25.878906 10.890625 25.867188 10.617188 25.910156 10.351562 C 25.921875 10.28125 25.933594 10.207031 25.90625 10.144531 C 25.855469 10.019531 25.683594 10 25.601562 9.894531 C 25.453125 9.71875 25.632812 9.417969 25.496094 9.230469 C 25.4375 9.148438 25.335938 9.113281 25.242188 9.074219 C 25.148438 9.035156 25.042969 8.984375 25.035156 8.882812 C 25.019531 8.695312 25.09375 8.5 25.230469 8.371094 C 25.28125 8.320312 25.347656 8.269531 25.351562 8.195312 C 25.351562 8.144531 25.324219 8.101562 25.300781 8.054688 C 25.257812 7.972656 25.242188 7.875 25.226562 7.78125 C 25.222656 7.769531 25.222656 7.757812 25.222656 7.746094 L 25.109375 7.664062 C 25.074219 7.648438 25.046875 7.613281 25.023438 7.582031 C 24.835938 7.339844 24.664062 7.085938 24.507812 6.824219 C 24.460938 6.746094 24.414062 6.667969 24.351562 6.609375 C 24.273438 6.535156 24.167969 6.492188 24.0625 6.484375 C 24.035156 6.484375 24.011719 6.484375 23.988281 6.472656 C 23.941406 6.453125 23.929688 6.394531 23.914062 6.347656 C 23.875 6.195312 23.796875 6.0625 23.71875 5.929688 C 23.671875 5.847656 23.589844 5.757812 23.503906 5.789062 C 23.464844 5.804688 23.441406 5.84375 23.40625 5.871094 C 23.324219 5.929688 23.207031 5.902344 23.121094 5.847656 C 23.035156 5.792969 22.964844 5.714844 22.875 5.667969 C 22.6875 5.574219 22.453125 5.636719 22.253906 5.570312 C 22.199219 5.550781 22.152344 5.527344 22.097656 5.511719 C 21.824219 5.4375 21.578125 5.699219 21.296875 5.746094 C 21.214844 5.757812 21.128906 5.753906 21.046875 5.769531 C 20.96875 5.78125 20.898438 5.8125 20.824219 5.84375 C 20.605469 5.933594 20.382812 6.027344 20.160156 6.121094 C 19.789062 6.273438 19.65625 6.730469 19.363281 7.007812 C 19.339844 7.03125 19.3125 7.054688 19.277344 7.054688 C 19.25 7.054688 19.21875 7.039062 19.195312 7.023438 C 19.03125 6.921875 18.855469 6.804688 18.792969 6.621094 C 18.777344 6.566406 18.765625 6.507812 18.722656 6.472656 C 18.640625 6.414062 18.535156 6.492188 18.449219 6.546875 C 18.328125 6.625 18.171875 6.652344 18.035156 6.605469 C 17.898438 6.558594 17.785156 6.433594 17.769531 6.292969 C 17.761719 6.242188 17.769531 6.1875 17.753906 6.140625 C 17.722656 6.011719 17.578125 5.941406 17.445312 5.933594 C 17.363281 5.929688 17.28125 5.941406 17.207031 5.90625 C 17.105469 5.859375 17.070312 5.730469 17.070312 5.617188 C 17.074219 5.503906 17.105469 5.394531 17.097656 5.28125 C 17.082031 5.121094 16.976562 4.976562 16.832031 4.910156 C 16.765625 4.875 16.6875 4.863281 16.617188 4.832031 C 16.464844 4.757812 16.367188 4.609375 16.226562 4.511719 C 16.082031 4.417969 15.90625 4.386719 15.742188 4.335938 C 15.574219 4.289062 15.402344 4.210938 15.320312 4.054688 C 15.296875 4.007812 15.28125 3.957031 15.257812 3.910156 C 15.222656 3.839844 15.089844 3.726562 15.023438 3.683594 C 14.847656 3.753906 14.652344 3.761719 14.46875 3.808594 C 14.128906 3.886719 13.816406 4.089844 13.605469 4.367188 C 13.488281 4.519531 13.382812 4.710938 13.195312 4.769531 C 12.984375 4.835938 12.730469 4.65625 12.726562 4.429688 C 12.71875 4.191406 12.949219 3.957031 12.851562 3.738281 C 12.785156 3.585938 12.585938 3.503906 12.578125 3.34375 C 12.570312 3.214844 12.6875 3.070312 12.601562 2.972656 C 12.574219 2.941406 12.527344 2.925781 12.484375 2.921875 C 12.140625 2.863281 11.773438 3.132812 11.730469 3.480469 C 11.601562 3.492188 11.476562 3.425781 11.363281 3.363281 C 11.25 3.300781 11.128906 3.234375 11 3.238281 C 10.871094 3.246094 10.738281 3.359375 10.761719 3.488281 C 10.773438 3.554688 10.824219 3.605469 10.867188 3.664062 C 10.96875 3.800781 11.015625 3.984375 10.988281 4.15625 C 10.734375 4.160156 10.484375 4.167969 10.230469 4.171875 C 10.019531 4.179688 9.742188 4.246094 9.738281 4.457031 C 9.734375 4.628906 9.933594 4.800781 9.835938 4.941406 C 9.617188 5.046875 9.398438 4.796875 9.164062 4.726562 C 9.003906 4.675781 8.828125 4.714844 8.660156 4.710938 C 8.492188 4.710938 8.296875 4.636719 8.253906 4.472656 C 8.222656 4.363281 8.273438 4.242188 8.234375 4.136719 C 8.210938 4.070312 8.15625 4.019531 8.105469 3.972656 C 7.949219 3.832031 7.742188 3.679688 7.550781 3.765625 C 7.476562 3.796875 7.414062 3.859375 7.335938 3.863281 C 7.285156 3.867188 7.238281 3.84375 7.191406 3.859375 C 7.128906 3.882812 7.105469 3.953125 7.085938 4.015625 C 7.035156 4.195312 6.960938 4.375 6.832031 4.511719 C 6.703125 4.648438 6.507812 4.734375 6.324219 4.695312 C 6.140625 4.65625 5.976562 4.855469 5.871094 5.015625 C 5.765625 5.175781 5.675781 5.355469 5.511719 5.453125 C 5.480469 5.472656 5.445312 5.488281 5.417969 5.519531 C 5.367188 5.589844 5.40625 5.691406 5.464844 5.757812 C 5.527344 5.820312 5.605469 5.871094 5.644531 5.949219 C 5.6875 6.050781 5.65625 6.164062 5.625 6.265625 C 5.578125 6.425781 5.53125 6.582031 5.484375 6.738281 C 5.457031 6.832031 5.425781 6.929688 5.460938 7.019531 C 5.496094 7.109375 5.585938 7.167969 5.621094 7.257812 C 5.660156 7.363281 5.617188 7.484375 5.632812 7.59375 C 5.632812 7.609375 5.636719 7.625 5.648438 7.632812 C 5.660156 7.644531 5.675781 7.644531 5.695312 7.644531 C 5.851562 7.640625 6.007812 7.609375 6.15625 7.558594 C 6.269531 7.515625 6.417969 7.472656 6.488281 7.566406 C 6.523438 7.613281 6.523438 7.679688 6.523438 7.738281 C 6.515625 7.910156 6.511719 8.085938 6.507812 8.261719 C 6.789062 8.382812 7.003906 8.652344 7.066406 8.953125 C 6.960938 8.855469 6.816406 8.804688 6.675781 8.800781 C 6.546875 8.796875 6.394531 8.851562 6.367188 8.976562 C 6.355469 9.015625 6.363281 9.058594 6.351562 9.097656 C 6.339844 9.140625 6.308594 9.179688 6.285156 9.222656 C 6.207031 9.375 6.273438 9.5625 6.347656 9.71875 C 6.359375 9.742188 6.371094 9.769531 6.394531 9.789062 C 6.421875 9.816406 6.460938 9.824219 6.496094 9.835938 C 6.605469 9.867188 6.714844 9.910156 6.804688 9.980469 C 6.894531 10.050781 6.964844 10.15625 6.96875 10.269531 C 7.09375 10.429688 7.226562 10.625 7.246094 10.832031 C 7.257812 10.988281 7.199219 11.140625 7.140625 11.289062 C 7.058594 11.304688 6.992188 11.21875 6.957031 11.144531 C 6.917969 11.070312 6.867188 10.976562 6.78125 10.980469 C 6.734375 10.980469 6.695312 11.011719 6.65625 11.039062 C 6.550781 11.125 6.445312 11.210938 6.339844 11.292969 C 6.339844 11.199219 6.335938 11.105469 6.304688 11.015625 C 6.269531 10.929688 6.191406 10.851562 6.101562 10.847656 C 6.011719 10.839844 5.929688 10.894531 5.84375 10.917969 C 5.683594 10.957031 5.511719 10.878906 5.34375 10.890625 C 5.316406 10.890625 5.289062 10.894531 5.269531 10.914062 C 5.25 10.929688 5.242188 10.949219 5.230469 10.972656 C 5.175781 11.109375 5.121094 11.25 5.101562 11.394531 C 5.082031 11.539062 5.097656 11.695312 5.175781 11.820312 C 5.230469 11.898438 5.304688 11.960938 5.375 12.019531 C 5.5 12.121094 5.628906 12.226562 5.78125 12.273438 C 5.882812 12.308594 6.007812 12.324219 6.066406 12.414062 C 6.121094 12.5 6.089844 12.617188 6.023438 12.699219 C 5.960938 12.777344 5.875 12.832031 5.800781 12.902344 C 5.625 13.0625 5.527344 13.304688 5.539062 13.539062 C 5.542969 13.605469 5.550781 13.667969 5.542969 13.730469 C 5.515625 13.894531 5.351562 14.003906 5.300781 14.160156 C 5.09375 14.160156 4.882812 14.15625 4.675781 14.15625 C 4.621094 14.15625 4.5625 14.15625 4.511719 14.171875 C 4.386719 14.210938 4.3125 14.332031 4.25 14.445312 C 4.210938 14.503906 4.175781 14.570312 4.1875 14.640625 C 4.195312 14.675781 4.210938 14.710938 4.230469 14.742188 C 4.359375 14.957031 4.484375 15.175781 4.609375 15.390625 C 4.675781 15.394531 4.75 15.453125 4.796875 15.5 C 4.878906 15.582031 4.917969 15.703125 4.925781 15.820312 C 4.933594 15.9375 4.910156 16.058594 4.890625 16.171875 C 4.851562 16.414062 4.808594 16.660156 4.765625 16.902344 C 4.746094 17.011719 4.664062 17.144531 4.605469 17.238281 C 4.542969 17.335938 4.480469 17.433594 4.417969 17.53125 C 4.363281 17.617188 4.308594 17.703125 4.234375 17.777344 C 4.171875 17.84375 4.089844 17.898438 4.046875 17.980469 C 3.996094 18.082031 4.007812 18.207031 3.96875 18.316406 C 3.949219 18.371094 3.914062 18.421875 3.925781 18.476562 C 3.945312 18.5625 4.054688 18.589844 4.144531 18.59375 C 4.253906 18.601562 4.363281 18.613281 4.472656 18.621094 C 4.488281 18.664062 4.507812 18.710938 4.527344 18.757812 C 4.558594 18.839844 4.679688 18.910156 4.765625 18.925781 C 4.871094 18.941406 4.996094 18.894531 5.082031 18.960938 C 5.109375 18.980469 5.132812 19.011719 5.160156 19.039062 C 5.320312 19.195312 5.582031 19.175781 5.808594 19.183594 C 6.058594 19.195312 6.304688 19.257812 6.53125 19.371094 C 6.5625 19.390625 6.597656 19.40625 6.625 19.4375 C 6.65625 19.46875 6.675781 19.511719 6.691406 19.550781 C 6.765625 19.722656 6.839844 19.894531 6.847656 20.082031 C 6.847656 20.179688 6.839844 20.292969 6.914062 20.351562 C 6.976562 20.40625 7.070312 20.390625 7.152344 20.398438 C 7.265625 20.414062 7.363281 20.480469 7.457031 20.542969 C 7.632812 20.667969 7.8125 20.792969 7.925781 20.976562 C 8.019531 21.121094 8.058594 21.292969 8.140625 21.445312 C 8.167969 21.488281 8.195312 21.535156 8.199219 21.585938 C 8.207031 21.625 8.195312 21.667969 8.183594 21.710938 C 8.152344 21.808594 8.125 21.902344 8.097656 22 C 8.089844 22.023438 8.082031 22.050781 8.066406 22.066406 C 8.027344 22.097656 7.96875 22.078125 7.925781 22.105469 C 7.855469 22.152344 7.917969 22.273438 8 22.300781 C 8.082031 22.332031 8.183594 22.324219 8.246094 22.386719 C 8.324219 22.46875 8.28125 22.613281 8.1875 22.679688 C 8.09375 22.742188 7.972656 22.75 7.859375 22.75 C 7.773438 22.855469 7.734375 22.996094 7.75 23.128906 C 7.761719 23.230469 7.796875 23.355469 7.714844 23.414062 C 7.65625 23.453125 7.578125 23.433594 7.507812 23.433594 C 7.4375 23.433594 7.351562 23.492188 7.378906 23.554688 C 7.398438 23.601562 7.460938 23.609375 7.503906 23.632812 C 7.59375 23.679688 7.613281 23.808594 7.570312 23.902344 C 7.527344 23.996094 7.445312 24.058594 7.367188 24.125 C 7.332031 24.15625 7.296875 24.191406 7.300781 24.234375 C 7.300781 24.261719 7.3125 24.285156 7.328125 24.304688 C 7.4375 24.472656 7.589844 24.667969 7.507812 24.851562 C 7.453125 24.980469 7.464844 25.15625 7.566406 25.253906 C 7.585938 25.273438 7.613281 25.289062 7.621094 25.316406 C 7.644531 25.375 7.589844 25.433594 7.542969 25.476562 C 7.496094 25.523438 7.457031 25.601562 7.503906 25.644531 C 7.5625 25.617188 7.621094 25.695312 7.609375 25.757812 C 7.597656 25.820312 7.546875 25.867188 7.515625 25.921875 C 7.480469 25.972656 7.464844 26.054688 7.515625 26.09375 C 7.539062 26.113281 7.574219 26.117188 7.609375 26.121094 C 7.746094 26.125 7.882812 26.109375 8.015625 26.078125 C 8.175781 26.039062 8.328125 25.972656 8.460938 25.875 C 8.550781 25.808594 8.632812 25.722656 8.738281 25.699219 C 8.820312 25.679688 8.898438 25.695312 8.980469 25.695312 C 9.472656 25.695312 9.78125 25.089844 10.269531 25.023438 C 10.347656 25.011719 10.425781 25.015625 10.503906 25.003906 C 10.625 24.988281 10.734375 24.9375 10.847656 24.890625 C 11.3125 24.695312 11.796875 24.542969 12.289062 24.4375 C 12.390625 24.417969 12.492188 24.398438 12.582031 24.355469 C 12.664062 24.316406 12.734375 24.261719 12.808594 24.210938 C 13.132812 23.980469 13.511719 23.820312 13.902344 23.75 C 14.371094 23.667969 14.859375 23.648438 15.328125 23.558594 C 15.546875 23.515625 15.757812 23.449219 15.976562 23.410156 C 16.128906 23.382812 16.28125 23.371094 16.433594 23.359375 C 17.140625 23.300781 17.847656 23.226562 18.550781 23.125 C 19.136719 23.035156 19.71875 22.929688 20.308594 22.933594 C 20.394531 22.933594 20.464844 22.929688 20.546875 22.925781 C 20.628906 22.921875 20.726562 22.851562 20.695312 22.777344 C 20.601562 22.757812 20.507812 22.742188 20.417969 22.726562 C 20.363281 22.714844 20.300781 22.691406 20.300781 22.640625 C 20.304688 22.609375 20.328125 22.585938 20.351562 22.570312 C 20.542969 22.4375 20.796875 22.476562 21.023438 22.519531 C 21.121094 22.535156 21.222656 22.554688 21.324219 22.574219 C 21.347656 22.652344 21.289062 22.738281 21.210938 22.769531 C 21.132812 22.796875 21.050781 22.789062 20.96875 22.777344 C 20.929688 22.828125 20.953125 22.90625 21.007812 22.945312 C 21.058594 22.980469 21.125 22.988281 21.191406 22.992188 C 21.402344 23 21.617188 22.984375 21.820312 23.035156 C 21.957031 23.066406 22.085938 23.128906 22.226562 23.15625 C 22.453125 23.203125 22.699219 23.160156 22.914062 23.257812 C 22.960938 23.277344 23.003906 23.308594 23.050781 23.328125 C 23.203125 23.394531 23.378906 23.378906 23.542969 23.363281 C 23.445312 23.308594 23.339844 23.269531 23.230469 23.25 C 23.230469 23.179688 23.230469 23.105469 23.230469 23.03125 C 23.304688 23.019531 23.394531 23.011719 23.445312 23.066406 C 23.464844 23.085938 23.476562 23.109375 23.496094 23.128906 C 23.558594 23.191406 23.660156 23.167969 23.746094 23.171875 C 23.867188 23.175781 23.976562 23.230469 24.097656 23.242188 C 24.328125 23.265625 24.550781 23.117188 24.785156 23.125 C 24.851562 23.125 24.9375 23.171875 24.917969 23.234375 C 24.867188 23.230469 24.816406 23.230469 24.773438 23.253906 C 24.734375 23.277344 24.710938 23.339844 24.742188 23.375 C 24.765625 23.402344 24.800781 23.402344 24.832031 23.40625 C 24.957031 23.410156 25.132812 23.398438 25.257812 23.402344 " fill-opacity="1" fill-rule="nonzero"/></g></svg>