<svg xmlns="http://www.w3.org/2000/svg" xmlns:xlink="http://www.w3.org/1999/xlink" width="40" zoomAndPan="magnify" viewBox="0 0 30 30.000001" height="40" preserveAspectRatio="xMidYMid meet" version="1.0"><defs><clipPath id="59a72ac7c3"><path d="M 3.386719 9.640625 L 26.613281 9.640625 L 26.613281 19.074219 L 3.386719 19.074219 Z M 3.386719 9.640625 " clip-rule="nonzero"/></clipPath></defs><g clip-path="url(#59a72ac7c3)"><path fill="#014d4e" d="M 4.582031 12.765625 C 4.78125 12.894531 4.921875 12.957031 5.191406 12.832031 C 5.355469 13.023438 5.324219 13.160156 5.382812 13.246094 C 5.625 13.605469 5.097656 13.457031 5.339844 13.960938 C 5.417969 14.125 5.359375 14.140625 5.34375 14.195312 C 5.324219 14.25 5.363281 14.339844 5.265625 14.429688 C 5.164062 14.519531 5.203125 14.476562 5.175781 14.570312 C 5.152344 14.648438 5.054688 14.683594 5.03125 14.761719 C 5.023438 14.804688 5.035156 14.851562 5.011719 14.886719 C 4.972656 14.953125 4.835938 14.945312 4.808594 14.789062 C 4.789062 14.703125 4.832031 14.445312 4.632812 14.289062 C 4.492188 14.175781 4.574219 14.160156 4.574219 14.085938 C 4.574219 13.984375 4.382812 13.957031 4.332031 13.625 C 4.3125 13.503906 4.296875 13.527344 4.238281 13.457031 C 4.007812 13.167969 4.53125 12.777344 4.582031 12.765625 Z M 7.320312 16.722656 C 7.3125 16.816406 7.28125 16.933594 7.53125 17.136719 C 7.753906 17.320312 7.679688 17.285156 7.84375 17.296875 C 8.0625 17.3125 8.132812 17.257812 8.214844 17.179688 C 8.402344 16.996094 8.472656 16.976562 8.492188 16.890625 C 8.511719 16.824219 8.449219 16.652344 8.445312 16.644531 C 8.417969 16.609375 8.367188 16.613281 8.324219 16.59375 C 8.277344 16.578125 8.246094 16.535156 8.203125 16.507812 C 8.046875 16.410156 8.113281 16.433594 8.066406 16.386719 C 7.996094 16.320312 7.839844 16.402344 7.707031 16.257812 C 7.429688 16.261719 7.347656 16.46875 7.320312 16.722656 Z M 3.429688 18.964844 C 3.4375 18.976562 3.429688 18.972656 3.816406 19.058594 C 3.988281 19.09375 3.996094 19.125 4.097656 19.25 C 4.15625 19.320312 4.253906 19.390625 4.3125 19.34375 C 4.355469 19.304688 4.320312 19.234375 4.324219 19.1875 C 4.335938 19.066406 4.476562 19 4.507812 18.882812 C 4.535156 18.769531 4.789062 18.542969 4.714844 18.382812 C 4.675781 18.296875 4.519531 18.242188 4.472656 18.246094 C 4.402344 18.253906 4.359375 18.320312 4.296875 18.339844 C 4.078125 18.40625 4.277344 18.507812 4.160156 18.605469 C 3.898438 18.8125 3.769531 18.796875 3.578125 18.683594 C 3.476562 18.621094 3.386719 18.910156 3.429688 18.964844 Z M 12.167969 14.371094 C 12.179688 14.414062 12.152344 14.417969 12.117188 14.40625 C 12.039062 14.386719 11.953125 14.445312 11.761719 14.597656 C 11.648438 14.6875 11.785156 14.714844 11.621094 14.832031 C 11.484375 14.925781 11.394531 15.09375 11.238281 15.148438 C 11.175781 15.171875 11.105469 15.175781 11.046875 15.207031 C 11.003906 15.226562 10.96875 15.261719 10.921875 15.273438 C 10.824219 15.292969 10.789062 15.210938 10.660156 15.277344 C 10.53125 15.34375 10.519531 15.320312 10.425781 15.316406 C 10.367188 15.316406 10.324219 15.386719 10.261719 15.398438 C 9.957031 15.476562 9.777344 15.296875 9.75 15.289062 C 9.621094 15.25 9.558594 15.453125 9.433594 15.472656 C 9.398438 15.476562 9.347656 15.46875 9.332031 15.503906 C 9.292969 15.578125 9.4375 15.601562 9.453125 15.609375 C 9.550781 15.652344 9.566406 15.777344 9.625 15.867188 C 9.859375 16.242188 9.558594 16.003906 9.8125 16.398438 C 9.90625 16.539062 9.941406 16.726562 10.074219 16.835938 C 10.335938 17.050781 10.105469 17.082031 10.347656 17.183594 C 10.386719 17.714844 10.863281 17.277344 10.9375 17.261719 C 11.183594 17.203125 11.027344 17.371094 11.664062 16.671875 C 11.761719 16.5625 11.730469 16.519531 11.738281 16.378906 C 11.746094 16.082031 12.023438 15.851562 12.023438 15.664062 C 12.023438 15.574219 11.972656 15.480469 12.003906 15.394531 C 12.054688 15.277344 12.226562 15.277344 12.3125 15.183594 C 12.355469 15.132812 12.371094 15.0625 12.421875 15.023438 C 12.476562 14.984375 12.570312 14.980469 12.582031 14.914062 C 12.589844 14.871094 12.554688 14.828125 12.671875 14.777344 C 12.902344 14.671875 13.058594 14.621094 13.128906 14.503906 C 13.183594 14.414062 13.160156 14.269531 13.058594 14.242188 C 12.96875 14.214844 12.882812 14.289062 12.792969 14.316406 C 12.535156 14.394531 12.125 14.183594 12.167969 14.371094 Z M 16.480469 17.753906 L 16.480469 17.765625 C 16.484375 17.757812 16.488281 17.753906 16.480469 17.753906 Z M 16.585938 16.496094 C 16.488281 16.421875 16.34375 16.480469 16.429688 16.550781 C 16.542969 16.640625 16.652344 16.546875 16.585938 16.496094 Z M 15.144531 16.777344 C 15.113281 16.855469 15.125 16.949219 15.082031 17.019531 C 15.027344 17.101562 14.910156 17.125 14.839844 17.195312 C 14.816406 17.21875 14.800781 17.246094 14.777344 17.265625 C 14.71875 17.316406 14.636719 17.316406 14.609375 17.347656 C 14.578125 17.375 14.585938 17.421875 14.578125 17.464844 C 14.414062 18.277344 14.972656 18.429688 15.199219 18.652344 C 15.421875 18.871094 15.339844 18.6875 15.558594 18.835938 C 15.625 18.882812 15.71875 18.890625 15.796875 18.863281 C 15.808594 18.796875 15.78125 18.769531 15.828125 18.734375 C 15.894531 18.679688 16.148438 18.628906 16.328125 18.523438 C 16.386719 18.492188 16.464844 18.539062 16.503906 18.414062 C 16.554688 18.238281 16.578125 18.308594 16.636719 18.214844 C 16.707031 18.101562 16.617188 17.824219 16.769531 17.816406 C 16.929688 17.808594 16.597656 17.65625 16.734375 17.539062 C 16.753906 17.519531 16.765625 17.519531 16.769531 17.476562 C 16.785156 17.261719 16.71875 17.265625 16.589844 17.179688 C 16.496094 17.113281 16.71875 16.65625 16.339844 16.742188 C 16.273438 16.761719 16.21875 16.679688 16.183594 16.644531 C 15.96875 16.441406 15.835938 16.769531 15.613281 16.585938 C 15.445312 16.449219 15.464844 16.539062 15.382812 16.558594 C 15.308594 16.578125 15.242188 16.472656 15.171875 16.511719 C 15.214844 16.695312 15.183594 16.6875 15.144531 16.777344 Z M 26.589844 11.121094 C 26.601562 11.160156 26.609375 11.101562 26.613281 11.097656 C 26.589844 11.109375 26.589844 11.117188 26.589844 11.121094 Z M 25.75 9.746094 C 25.71875 9.640625 25.464844 9.851562 25.589844 9.882812 C 25.65625 9.898438 25.769531 9.816406 25.75 9.746094 Z M 25.761719 10.664062 C 25.949219 10.445312 25.683594 10.347656 25.59375 10.585938 C 25.585938 10.613281 25.578125 10.644531 25.566406 10.671875 C 25.550781 10.710938 25.484375 10.753906 25.496094 10.773438 C 25.511719 10.796875 25.671875 10.769531 25.761719 10.664062 Z M 23.851562 12.671875 C 23.8125 12.777344 24.007812 12.734375 24.128906 12.738281 C 24.3125 12.746094 24.292969 12.824219 24.355469 12.8125 C 24.578125 12.648438 24.527344 12.554688 24.542969 12.515625 C 24.5625 12.464844 24.761719 12.402344 24.847656 12.40625 C 24.914062 12.410156 24.984375 12.4375 25.050781 12.414062 C 25.136719 12.386719 25.175781 12.289062 25.257812 12.257812 C 25.355469 12.214844 25.398438 12.277344 25.542969 12.15625 C 26.109375 11.691406 25.734375 11.988281 25.929688 11.527344 C 26 11.367188 25.886719 11.351562 25.871094 11.300781 C 25.835938 11.191406 26.316406 11.09375 25.953125 10.761719 C 25.894531 10.710938 25.847656 10.6875 25.773438 10.804688 C 25.644531 11.007812 25.605469 11.058594 25.59375 11.128906 C 25.582031 11.191406 25.601562 11.347656 25.390625 11.304688 C 24.992188 11.226562 24.898438 11.46875 24.75 11.515625 C 24.625 11.554688 24.585938 11.480469 24.367188 11.671875 C 24.011719 11.984375 24.183594 12.132812 24.136719 12.34375 C 24.128906 12.382812 23.882812 12.597656 23.851562 12.671875 Z M 24.109375 13.359375 C 24.113281 13.378906 24.214844 13.503906 24.21875 13.292969 C 24.21875 13.214844 24.105469 13.320312 24.109375 13.359375 Z M 23.191406 13.960938 C 23 14.257812 23.300781 14.097656 23.066406 14.382812 C 22.90625 14.578125 22.882812 14.871094 22.683594 15.015625 C 22.449219 15.191406 22.589844 15.21875 22.53125 15.410156 C 22.5 15.527344 22.371094 15.589844 22.308594 15.691406 C 22.195312 15.875 22.300781 16.125 22.195312 16.308594 C 22.125 16.429688 21.988281 16.484375 21.878906 16.566406 C 21.574219 16.785156 21.5625 16.984375 21.125 16.855469 C 20.941406 16.804688 20.890625 16.941406 20.9375 16.996094 C 21.714844 17.144531 21.6875 17.144531 21.71875 17.136719 C 21.757812 17.125 21.75 17.121094 22.203125 16.613281 C 22.382812 16.414062 23.335938 16.300781 23.617188 16.121094 C 23.847656 15.972656 23.757812 15.824219 23.804688 15.726562 C 23.820312 15.699219 23.847656 15.675781 23.867188 15.648438 C 23.921875 15.566406 23.90625 15.460938 23.945312 15.371094 C 23.996094 15.261719 24.066406 15.246094 24.015625 15.097656 C 23.796875 14.460938 24.304688 15.09375 24.105469 13.617188 C 24.039062 13.144531 23.621094 13.390625 23.222656 13.5625 C 23.273438 13.710938 23.261719 13.851562 23.191406 13.960938 Z M 23.191406 13.960938 " fill-opacity="1" fill-rule="nonzero"/></g></svg>