<svg xmlns="http://www.w3.org/2000/svg" xmlns:xlink="http://www.w3.org/1999/xlink" width="40" zoomAndPan="magnify" viewBox="0 0 30 30.000001" height="40" preserveAspectRatio="xMidYMid meet" version="1.0"><defs><clipPath id="de8f3f4e61"><path d="M 12.75 2.902344 L 16 2.902344 L 16 25 L 12.75 25 Z M 12.75 2.902344 " clip-rule="nonzero"/></clipPath><clipPath id="f435b9d88c"><path d="M 12.75 17 L 14 17 L 14 19 L 12.75 19 Z M 12.75 17 " clip-rule="nonzero"/></clipPath><clipPath id="ee691be4c8"><path d="M 12.75 18 L 13 18 L 13 20 L 12.75 20 Z M 12.75 18 " clip-rule="nonzero"/></clipPath><clipPath id="ef7ad95dbb"><path d="M 16 25 L 17 25 L 17 26.128906 L 16 26.128906 Z M 16 25 " clip-rule="nonzero"/></clipPath><clipPath id="09d382f98e"><path d="M 16 25 L 17.105469 25 L 17.105469 26.128906 L 16 26.128906 Z M 16 25 " clip-rule="nonzero"/></clipPath><clipPath id="af284bd878"><path d="M 16 25 L 17.105469 25 L 17.105469 26 L 16 26 Z M 16 25 " clip-rule="nonzero"/></clipPath></defs><g clip-path="url(#de8f3f4e61)"><path fill="#014d4e" d="M 15.808594 23.769531 L 15.675781 23.890625 L 15.515625 24.023438 L 15.425781 24.0625 L 15.253906 24.21875 L 15.296875 24.382812 L 15.175781 24.457031 L 15.238281 24.585938 L 15.253906 24.699219 L 15.167969 24.8125 L 14.960938 24.761719 L 14.707031 24.710938 L 14.660156 24.609375 L 14.71875 24.535156 L 14.789062 24.625 L 14.839844 24.5 L 14.953125 24.457031 L 15.136719 24.304688 L 15.125 24.226562 L 14.898438 24.382812 L 14.769531 24.335938 L 14.644531 24.417969 L 14.542969 24.355469 L 14.488281 24.375 L 14.359375 24.34375 L 14.34375 24.21875 L 14.46875 24.179688 L 14.613281 24.238281 L 14.707031 24.210938 L 14.953125 24.183594 L 15 24.09375 L 14.886719 24.042969 L 14.664062 24.125 L 14.644531 23.886719 L 14.390625 24.09375 L 14.242188 24.125 L 14.21875 23.984375 L 14.570312 23.808594 L 14.597656 23.730469 L 14.363281 23.507812 L 14.285156 23.429688 C 14.285156 23.429688 14.25 23.457031 14.25 23.464844 C 14.25 23.472656 14.214844 23.625 14.214844 23.625 C 14.214844 23.625 14.125 23.617188 14.125 23.613281 C 14.125 23.605469 14.066406 23.347656 14.066406 23.347656 L 13.914062 23.367188 L 13.855469 23.304688 C 13.855469 23.304688 13.730469 23.25 13.726562 23.246094 C 13.71875 23.246094 13.722656 23.191406 13.722656 23.191406 L 13.902344 23.246094 L 13.996094 23.140625 L 14.085938 23.0625 L 14.007812 22.921875 L 13.941406 22.957031 L 13.953125 23.085938 C 13.953125 23.085938 13.839844 23.136719 13.828125 23.140625 C 13.820312 23.144531 13.8125 22.949219 13.8125 22.949219 L 13.863281 22.828125 C 13.863281 22.828125 13.785156 22.777344 13.777344 22.777344 C 13.773438 22.777344 13.832031 22.699219 13.832031 22.699219 L 13.699219 22.566406 L 13.675781 22.421875 C 13.675781 22.421875 13.84375 22.542969 13.851562 22.550781 C 13.855469 22.554688 13.859375 22.425781 13.859375 22.425781 L 13.722656 22.34375 L 13.777344 22.078125 L 13.65625 22.078125 L 13.574219 22.175781 L 13.507812 22.085938 L 13.507812 22.28125 L 13.582031 22.425781 L 13.558594 22.53125 C 13.558594 22.53125 13.464844 22.609375 13.460938 22.613281 C 13.453125 22.613281 13.453125 22.386719 13.453125 22.386719 L 13.40625 22.453125 C 13.40625 22.453125 13.28125 22.367188 13.273438 22.367188 C 13.265625 22.363281 13.289062 22.199219 13.289062 22.199219 L 13.375 22.277344 L 13.367188 22.121094 L 13.363281 21.851562 C 13.363281 21.851562 13.515625 21.828125 13.527344 21.824219 C 13.539062 21.820312 13.652344 21.789062 13.652344 21.789062 L 13.484375 21.496094 L 13.796875 21.613281 L 13.894531 21.480469 L 13.730469 21.382812 L 13.683594 21.191406 L 13.53125 21.382812 L 13.511719 21.222656 L 13.367188 21.183594 L 13.484375 21.058594 L 13.472656 20.953125 C 13.472656 20.953125 13.261719 21.015625 13.265625 21.007812 C 13.269531 20.996094 13.363281 20.839844 13.375 20.839844 C 13.386719 20.839844 13.207031 20.714844 13.207031 20.714844 C 13.207031 20.714844 13.148438 20.828125 13.140625 20.859375 C 13.136719 20.890625 13.015625 20.761719 13.015625 20.761719 L 12.925781 20.796875 L 12.898438 20.945312 L 12.789062 20.945312 L 12.75 20.792969 L 12.941406 20.601562 L 13.035156 20.511719 L 12.953125 20.328125 L 13.234375 20.269531 L 13.328125 20.453125 L 13.28125 20.605469 L 13.429688 20.539062 L 13.46875 20.726562 L 13.542969 20.621094 L 13.6875 20.355469 L 13.578125 20.226562 L 13.648438 20.175781 L 13.722656 20.097656 L 13.601562 20.019531 L 13.597656 19.941406 C 13.597656 19.941406 13.8125 20.015625 13.816406 20.019531 C 13.824219 20.027344 13.828125 19.890625 13.828125 19.890625 L 13.632812 19.769531 L 13.777344 19.628906 L 13.792969 19.472656 L 13.875 19.414062 L 13.832031 19.242188 L 13.679688 19.269531 L 13.582031 19.105469 L 13.691406 18.996094 L 13.519531 18.878906 L 13.535156 18.714844 L 13.574219 18.574219 L 13.660156 18.53125 L 13.667969 18.46875 L 13.570312 18.371094 L 13.570312 18.265625 L 13.734375 18.234375 L 13.734375 17.925781 L 13.570312 17.867188 C 13.570312 17.867188 13.6875 17.753906 13.6875 17.75 C 13.6875 17.742188 13.722656 17.515625 13.722656 17.515625 C 13.722656 17.515625 13.582031 17.660156 13.570312 17.671875 C 13.558594 17.683594 13.460938 17.605469 13.460938 17.605469 L 13.382812 17.714844 L 13.214844 17.800781 L 13.148438 17.773438 L 13.175781 17.613281 L 13.03125 17.6875 L 13.007812 17.535156 L 12.886719 17.320312 L 12.964844 17.148438 L 12.988281 17 L 12.953125 16.730469 L 13.039062 16.640625 L 13.105469 16.425781 L 13.109375 16.207031 L 12.871094 15.726562 L 12.96875 15.558594 L 12.78125 15.328125 L 12.78125 15.105469 L 12.871094 15.105469 L 12.945312 15.007812 L 13.085938 14.277344 L 13.222656 14.183594 L 13.109375 14.074219 L 13.320312 13.410156 L 13.28125 12.945312 L 13.496094 12.835938 C 13.496094 12.835938 13.46875 12.367188 13.480469 12.355469 C 13.492188 12.34375 13.519531 12.128906 13.519531 12.128906 L 13.453125 11.964844 L 13.480469 11.761719 L 13.382812 11.351562 L 13.285156 10.882812 L 13.425781 10.738281 L 13.410156 10.269531 L 13.261719 10.054688 C 13.261719 10.054688 13.417969 9.667969 13.40625 9.652344 C 13.394531 9.636719 13.433594 9.488281 13.433594 9.488281 L 13.40625 9.3125 L 13.570312 9.085938 L 13.476562 8.972656 L 13.617188 8.246094 L 13.570312 8.148438 L 13.585938 7.9375 L 13.695312 7.777344 L 13.585938 7.507812 L 13.558594 7.324219 L 13.632812 7.148438 L 13.613281 6.769531 L 13.511719 6.621094 L 13.476562 6.433594 L 13.695312 6.335938 L 13.695312 5.105469 L 13.621094 4.90625 L 13.601562 4.136719 L 13.496094 3.949219 L 13.476562 3.523438 L 13.648438 3.488281 L 13.78125 3.265625 L 13.683594 3.179688 L 13.914062 2.960938 L 13.984375 3.164062 L 14.011719 3.21875 L 14.144531 3.324219 L 14.226562 3.652344 L 14.230469 3.820312 L 14.566406 4.148438 L 14.472656 4.257812 L 14.535156 4.402344 L 14.425781 4.503906 L 14.46875 4.746094 L 14.585938 4.847656 L 14.535156 5.003906 L 14.75 5.105469 L 14.75 5.402344 L 14.925781 5.796875 L 14.984375 6.203125 L 15.199219 6.289062 L 15.410156 6.117188 L 15.523438 6.257812 C 15.523438 6.257812 15.449219 6.417969 15.449219 6.433594 C 15.449219 6.453125 15.375 6.589844 15.375 6.589844 C 15.375 6.589844 15.335938 6.789062 15.332031 6.800781 C 15.332031 6.8125 15.203125 6.949219 15.203125 6.949219 L 15.121094 6.964844 L 14.78125 7.210938 L 14.652344 7.410156 C 14.652344 7.410156 14.796875 7.550781 14.820312 7.546875 C 14.839844 7.546875 14.699219 7.679688 14.699219 7.679688 L 14.71875 7.914062 L 14.832031 8.203125 L 14.746094 8.257812 L 14.6875 8.382812 L 14.96875 8.671875 L 14.78125 8.839844 L 14.617188 8.785156 L 14.632812 8.851562 L 14.609375 8.933594 L 14.511719 9.011719 L 14.464844 9.035156 L 14.480469 9.152344 L 14.320312 9.480469 L 14.207031 9.851562 L 14.128906 10.074219 L 14.082031 10.1875 L 14.171875 10.351562 L 14.175781 10.5625 C 14.175781 10.5625 14.257812 10.710938 14.261719 10.714844 C 14.269531 10.722656 14.070312 10.851562 14.070312 10.851562 L 14.019531 10.929688 L 13.960938 11.117188 L 14.039062 11.230469 C 14.039062 11.230469 13.933594 11.320312 13.925781 11.320312 C 13.917969 11.320312 13.894531 11.582031 13.894531 11.582031 L 14.089844 11.773438 L 14.074219 11.902344 L 14.164062 12.046875 L 14.183594 12.203125 L 14.304688 12.351562 C 14.304688 12.351562 14.203125 12.441406 14.1875 12.457031 C 14.171875 12.472656 14.398438 12.578125 14.410156 12.585938 C 14.421875 12.589844 14.390625 12.789062 14.390625 12.789062 L 14.433594 13.160156 L 14.382812 13.203125 L 14.320312 13.316406 L 14.214844 13.371094 L 14.269531 13.636719 L 14.132812 13.757812 L 14.289062 14.019531 C 14.289062 14.019531 14.257812 14.253906 14.253906 14.257812 C 14.246094 14.261719 14.039062 14.496094 14.039062 14.496094 L 13.90625 14.722656 L 14.035156 14.898438 L 13.886719 15.003906 L 13.980469 15.289062 L 14.0625 15.441406 L 14.074219 15.59375 L 14.207031 15.824219 L 13.964844 15.992188 L 13.980469 16.136719 L 13.9375 16.394531 L 13.851562 16.484375 L 13.925781 16.550781 L 13.851562 16.734375 L 13.972656 16.867188 L 13.828125 16.976562 L 13.84375 17.128906 L 13.921875 17.308594 L 13.9375 17.699219 L 14.011719 17.8125 L 14.023438 17.917969 L 13.886719 18.027344 L 13.964844 18.128906 L 13.886719 18.203125 L 13.933594 18.339844 L 13.929688 18.453125 L 14.089844 18.546875 L 14.109375 18.636719 L 14.027344 18.714844 L 14.167969 18.832031 C 14.167969 18.832031 14.257812 18.984375 14.257812 18.996094 C 14.257812 19.003906 14.132812 19.109375 14.132812 19.109375 L 14.1875 19.238281 L 14.316406 19.222656 L 14.457031 19.289062 L 14.472656 19.496094 L 14.148438 19.472656 L 14.058594 19.554688 L 14.328125 19.601562 L 14.492188 19.800781 L 14.304688 19.976562 L 14.28125 20.085938 C 14.28125 20.085938 14.417969 20.164062 14.425781 20.164062 C 14.433594 20.164062 14.324219 20.238281 14.324219 20.238281 L 14.363281 20.410156 L 14.40625 20.617188 L 14.300781 20.707031 L 14.265625 20.835938 L 14.382812 20.898438 L 14.242188 21.089844 L 14.25 21.160156 L 14.125 21.378906 L 14.324219 21.609375 L 14.203125 21.722656 L 14.246094 21.882812 L 14.0625 22.019531 L 14.054688 22.21875 L 13.945312 22.242188 L 13.964844 22.484375 L 13.96875 22.679688 L 14.136719 22.886719 L 14.148438 22.957031 L 14.246094 23.050781 L 14.332031 22.953125 L 14.515625 22.988281 L 14.5625 23.164062 L 14.527344 23.238281 L 14.652344 23.339844 L 14.546875 23.457031 L 14.824219 23.726562 L 15.601562 23.660156 L 15.808594 23.769531 " fill-opacity="1" fill-rule="nonzero"/></g><g clip-path="url(#f435b9d88c)"><path fill="#014d4e" d="M 13.015625 17.886719 L 12.984375 18.050781 C 12.984375 18.050781 12.921875 18.152344 12.921875 18.15625 C 12.921875 18.164062 12.921875 18.242188 12.921875 18.242188 L 12.988281 18.375 L 12.992188 18.589844 L 12.921875 18.667969 C 12.921875 18.667969 12.933594 18.722656 12.933594 18.726562 C 12.9375 18.730469 13.148438 18.746094 13.148438 18.746094 L 13.222656 18.578125 L 13.253906 18.417969 L 13.136719 18.28125 L 13.152344 18.203125 C 13.152344 18.203125 13.246094 18.0625 13.246094 18.054688 C 13.246094 18.050781 13.226562 18.007812 13.226562 18.007812 L 13.132812 17.886719 L 13.015625 17.886719 " fill-opacity="1" fill-rule="nonzero"/></g><path fill="#014d4e" d="M 13.523438 18.003906 C 13.523438 18.003906 13.515625 18.125 13.515625 18.128906 C 13.515625 18.132812 13.609375 18.171875 13.609375 18.171875 L 13.640625 18.105469 L 13.628906 18.003906 L 13.523438 18.003906 " fill-opacity="1" fill-rule="nonzero"/><g clip-path="url(#ee691be4c8)"><path fill="#014d4e" d="M 12.914062 18.957031 C 12.890625 18.964844 12.820312 19.007812 12.832031 19.023438 C 12.84375 19.042969 12.878906 19.09375 12.878906 19.09375 L 12.988281 19.050781 L 12.914062 18.957031 " fill-opacity="1" fill-rule="nonzero"/></g><path fill="#014d4e" d="M 13.230469 19.070312 L 13.160156 19.121094 L 13.21875 19.203125 L 13.296875 19.15625 L 13.230469 19.070312 " fill-opacity="1" fill-rule="nonzero"/><path fill="#014d4e" d="M 13.542969 19.421875 L 13.476562 19.679688 L 13.550781 19.679688 L 13.683594 19.558594 L 13.699219 19.433594 L 13.542969 19.421875 " fill-opacity="1" fill-rule="nonzero"/><path fill="#014d4e" d="M 13.265625 19.265625 L 13.199219 19.300781 L 13.253906 19.421875 C 13.253906 19.421875 13.375 19.359375 13.371094 19.355469 C 13.363281 19.351562 13.265625 19.265625 13.265625 19.265625 " fill-opacity="1" fill-rule="nonzero"/><path fill="#014d4e" d="M 13.335938 19.507812 C 13.335938 19.507812 13.34375 19.648438 13.34375 19.652344 C 13.34375 19.65625 13.425781 19.644531 13.421875 19.625 C 13.421875 19.605469 13.4375 19.46875 13.4375 19.46875 L 13.335938 19.507812 " fill-opacity="1" fill-rule="nonzero"/><path fill="#014d4e" d="M 13.328125 19.796875 C 13.328125 19.800781 13.34375 19.886719 13.34375 19.886719 L 13.417969 19.894531 C 13.417969 19.894531 13.460938 19.792969 13.441406 19.796875 C 13.425781 19.800781 13.328125 19.796875 13.328125 19.796875 " fill-opacity="1" fill-rule="nonzero"/><path fill="#014d4e" d="M 13.257812 19.945312 L 13.242188 20.019531 L 13.367188 20.035156 L 13.386719 19.972656 L 13.257812 19.945312 " fill-opacity="1" fill-rule="nonzero"/><path fill="#014d4e" d="M 13.007812 20.175781 C 13.035156 20.167969 13.183594 20.109375 13.183594 20.109375 L 13.328125 20.097656 L 13.457031 20.113281 L 13.449219 20.230469 L 13.386719 20.199219 L 13.34375 20.164062 L 13.199219 20.164062 L 13.027344 20.191406 L 13.007812 20.175781 " fill-opacity="1" fill-rule="nonzero"/><path fill="#014d4e" d="M 13.144531 21.136719 L 13.0625 21.183594 L 13.09375 21.277344 L 13.253906 21.222656 L 13.21875 21.148438 L 13.144531 21.136719 " fill-opacity="1" fill-rule="nonzero"/><path fill="#014d4e" d="M 13.179688 21.308594 C 13.167969 21.320312 13.15625 21.378906 13.15625 21.378906 L 13.238281 21.433594 L 13.253906 21.523438 L 13.269531 21.601562 L 13.371094 21.570312 L 13.351562 21.472656 L 13.292969 21.410156 L 13.308594 21.328125 L 13.257812 21.296875 L 13.179688 21.308594 " fill-opacity="1" fill-rule="nonzero"/><path fill="#014d4e" d="M 13.082031 21.457031 L 13.0625 21.613281 C 13.0625 21.613281 13.179688 21.683594 13.179688 21.667969 C 13.179688 21.652344 13.195312 21.582031 13.195312 21.582031 L 13.15625 21.464844 L 13.082031 21.457031 " fill-opacity="1" fill-rule="nonzero"/><path fill="#014d4e" d="M 13.234375 21.664062 C 13.234375 21.664062 13.210938 21.761719 13.214844 21.765625 C 13.21875 21.765625 13.265625 21.796875 13.265625 21.796875 C 13.265625 21.796875 13.308594 21.757812 13.304688 21.75 C 13.296875 21.742188 13.253906 21.664062 13.253906 21.664062 L 13.234375 21.664062 " fill-opacity="1" fill-rule="nonzero"/><path fill="#014d4e" d="M 13.378906 21.640625 C 13.371094 21.652344 13.363281 21.742188 13.363281 21.746094 C 13.363281 21.75 13.5 21.746094 13.488281 21.746094 C 13.476562 21.746094 13.449219 21.660156 13.449219 21.660156 L 13.378906 21.640625 " fill-opacity="1" fill-rule="nonzero"/><path fill="#014d4e" d="M 13.050781 21.71875 C 13.046875 21.730469 13.050781 21.824219 13.050781 21.824219 L 13.101562 21.847656 C 13.101562 21.847656 13.148438 21.816406 13.144531 21.808594 C 13.144531 21.800781 13.128906 21.746094 13.128906 21.746094 L 13.050781 21.71875 " fill-opacity="1" fill-rule="nonzero"/><path fill="#014d4e" d="M 13.1875 21.847656 L 13.132812 21.921875 L 13.175781 21.964844 L 13.265625 21.890625 L 13.222656 21.851562 L 13.1875 21.847656 " fill-opacity="1" fill-rule="nonzero"/><path fill="#014d4e" d="M 13.277344 21.980469 C 13.273438 21.980469 13.144531 22.058594 13.152344 22.070312 C 13.15625 22.082031 13.171875 22.136719 13.171875 22.136719 C 13.171875 22.136719 13.300781 22.082031 13.300781 22.070312 C 13.296875 22.0625 13.277344 21.980469 13.277344 21.980469 " fill-opacity="1" fill-rule="nonzero"/><path fill="#014d4e" d="M 13.136719 22.414062 L 13.136719 22.53125 C 13.136719 22.53125 13.199219 22.636719 13.203125 22.632812 C 13.207031 22.628906 13.285156 22.554688 13.285156 22.554688 L 13.332031 22.527344 C 13.332031 22.527344 13.238281 22.414062 13.234375 22.414062 C 13.230469 22.414062 13.136719 22.414062 13.136719 22.414062 " fill-opacity="1" fill-rule="nonzero"/><path fill="#014d4e" d="M 13.269531 22.65625 C 13.273438 22.660156 13.332031 22.71875 13.332031 22.71875 L 13.292969 22.746094 L 13.21875 22.761719 L 13.210938 22.828125 L 13.332031 22.855469 L 13.394531 22.75 L 13.476562 22.734375 L 13.421875 22.65625 L 13.351562 22.621094 L 13.269531 22.65625 " fill-opacity="1" fill-rule="nonzero"/><path fill="#014d4e" d="M 13.261719 22.898438 C 13.257812 22.902344 13.242188 22.992188 13.242188 22.992188 L 13.359375 23.152344 L 13.390625 23.09375 L 13.398438 22.972656 C 13.398438 22.972656 13.417969 22.933594 13.414062 22.929688 C 13.410156 22.929688 13.332031 22.902344 13.332031 22.902344 L 13.261719 22.898438 " fill-opacity="1" fill-rule="nonzero"/><path fill="#014d4e" d="M 13.476562 22.796875 L 13.441406 22.84375 L 13.488281 22.914062 L 13.550781 22.863281 C 13.550781 22.863281 13.578125 22.8125 13.570312 22.8125 C 13.5625 22.8125 13.476562 22.796875 13.476562 22.796875 " fill-opacity="1" fill-rule="nonzero"/><path fill="#014d4e" d="M 13.511719 22.972656 C 13.507812 22.976562 13.445312 23.050781 13.445312 23.050781 C 13.445312 23.050781 13.457031 23.09375 13.464844 23.09375 C 13.472656 23.097656 13.625 23.210938 13.625 23.210938 C 13.625 23.210938 13.660156 23.136719 13.65625 23.132812 C 13.65625 23.128906 13.617188 23.050781 13.617188 23.046875 C 13.613281 23.042969 13.511719 22.972656 13.511719 22.972656 " fill-opacity="1" fill-rule="nonzero"/><path fill="#014d4e" d="M 13.648438 22.847656 L 13.601562 22.878906 L 13.605469 22.925781 L 13.695312 23.007812 C 13.695312 23.007812 13.71875 22.929688 13.71875 22.925781 C 13.714844 22.921875 13.648438 22.847656 13.648438 22.847656 " fill-opacity="1" fill-rule="nonzero"/><path fill="#014d4e" d="M 13.464844 23.371094 L 13.441406 23.546875 C 13.441406 23.546875 13.464844 23.59375 13.464844 23.59375 C 13.46875 23.59375 13.539062 23.535156 13.539062 23.523438 C 13.539062 23.515625 13.527344 23.398438 13.527344 23.398438 L 13.464844 23.371094 " fill-opacity="1" fill-rule="nonzero"/><path fill="#014d4e" d="M 13.628906 23.304688 L 13.578125 23.386719 L 13.601562 23.515625 L 13.652344 23.472656 L 13.660156 23.390625 L 13.703125 23.351562 L 13.628906 23.304688 " fill-opacity="1" fill-rule="nonzero"/><path fill="#014d4e" d="M 13.625 23.589844 L 13.511719 23.691406 L 13.527344 23.765625 L 13.578125 23.835938 L 13.625 23.769531 L 13.65625 23.6875 L 13.625 23.589844 " fill-opacity="1" fill-rule="nonzero"/><path fill="#014d4e" d="M 13.738281 23.589844 L 13.71875 23.683594 L 13.792969 23.757812 L 13.828125 23.710938 L 13.816406 23.648438 L 13.914062 23.628906 L 13.863281 23.527344 L 13.785156 23.558594 L 13.777344 23.589844 L 13.738281 23.589844 " fill-opacity="1" fill-rule="nonzero"/><path fill="#014d4e" d="M 13.683594 23.789062 L 13.648438 23.863281 L 13.703125 23.929688 L 13.761719 23.902344 L 13.734375 23.828125 L 13.683594 23.789062 " fill-opacity="1" fill-rule="nonzero"/><path fill="#014d4e" d="M 13.675781 24.007812 C 13.679688 24.003906 13.804688 23.972656 13.804688 23.972656 L 13.84375 24.015625 L 13.863281 24.167969 L 13.789062 24.132812 L 13.78125 24.089844 L 13.675781 24.007812 " fill-opacity="1" fill-rule="nonzero"/><path fill="#014d4e" d="M 13.828125 23.824219 L 13.835938 23.898438 C 13.835938 23.898438 13.910156 23.925781 13.914062 23.929688 C 13.914062 23.933594 13.945312 24.019531 13.945312 24.019531 C 13.945312 24.019531 14.039062 24 14.03125 23.972656 C 14.027344 23.945312 14 23.859375 14 23.859375 L 13.929688 23.84375 L 13.828125 23.824219 " fill-opacity="1" fill-rule="nonzero"/><path fill="#014d4e" d="M 13.964844 24.097656 C 13.964844 24.101562 13.992188 24.191406 13.992188 24.203125 C 13.992188 24.210938 14.09375 24.15625 14.09375 24.15625 L 14.101562 24.070312 L 14.019531 24.054688 L 13.964844 24.097656 " fill-opacity="1" fill-rule="nonzero"/><path fill="#014d4e" d="M 13.9375 23.707031 C 13.949219 23.722656 14.054688 23.824219 14.054688 23.824219 L 14.160156 23.816406 L 14.144531 23.710938 L 14.09375 23.679688 L 14.050781 23.679688 L 14.042969 23.738281 C 14.042969 23.738281 13.972656 23.691406 13.964844 23.691406 C 13.960938 23.695312 13.9375 23.707031 13.9375 23.707031 " fill-opacity="1" fill-rule="nonzero"/><path fill="#014d4e" d="M 13.597656 24.28125 C 13.601562 24.296875 13.664062 24.410156 13.675781 24.414062 C 13.6875 24.421875 13.914062 24.484375 13.914062 24.484375 L 14.03125 24.511719 L 14.253906 24.621094 L 14.28125 24.554688 L 14.148438 24.46875 C 14.148438 24.46875 13.960938 24.371094 13.929688 24.363281 C 13.898438 24.355469 13.597656 24.28125 13.597656 24.28125 " fill-opacity="1" fill-rule="nonzero"/><path fill="#014d4e" d="M 13.84375 24.558594 L 13.84375 24.667969 L 13.964844 24.667969 C 13.964844 24.667969 13.972656 24.597656 13.964844 24.597656 C 13.957031 24.59375 13.84375 24.558594 13.84375 24.558594 " fill-opacity="1" fill-rule="nonzero"/><path fill="#014d4e" d="M 14.011719 24.765625 C 14.011719 24.761719 14.019531 24.695312 14.027344 24.695312 C 14.035156 24.695312 14.074219 24.683594 14.074219 24.683594 L 14.101562 24.628906 L 14.175781 24.648438 L 14.175781 24.703125 L 14.15625 24.746094 L 14.074219 24.773438 L 14.011719 24.765625 " fill-opacity="1" fill-rule="nonzero"/><path fill="#014d4e" d="M 14.351562 24.613281 L 14.300781 24.660156 L 14.265625 24.761719 C 14.265625 24.761719 14.160156 24.8125 14.164062 24.820312 C 14.164062 24.828125 14.183594 24.882812 14.183594 24.882812 L 14.226562 24.898438 L 14.257812 24.980469 L 14.28125 25.027344 L 14.199219 25.070312 L 14.300781 25.195312 L 14.371094 25.132812 L 14.347656 25.046875 L 14.328125 24.992188 L 14.40625 24.917969 L 14.453125 24.933594 L 14.4375 25.007812 L 14.433594 25.066406 L 14.472656 25.117188 L 14.511719 25.097656 L 14.554688 25.019531 L 14.601562 25.015625 L 14.65625 25.070312 L 14.695312 25.015625 C 14.695312 25.015625 14.691406 24.878906 14.695312 24.878906 C 14.695312 24.878906 14.753906 24.828125 14.753906 24.828125 L 14.695312 24.789062 L 14.503906 24.667969 C 14.503906 24.667969 14.433594 24.671875 14.429688 24.667969 C 14.425781 24.664062 14.382812 24.613281 14.382812 24.613281 L 14.351562 24.613281 " fill-opacity="1" fill-rule="nonzero"/><path fill="#014d4e" d="M 14.753906 25.042969 L 14.726562 25.089844 C 14.726562 25.089844 14.671875 25.128906 14.679688 25.136719 C 14.683594 25.144531 14.742188 25.179688 14.742188 25.179688 L 14.832031 25.144531 C 14.832031 25.144531 14.824219 25.070312 14.816406 25.0625 C 14.804688 25.058594 14.753906 25.042969 14.753906 25.042969 " fill-opacity="1" fill-rule="nonzero"/><path fill="#014d4e" d="M 14.820312 24.886719 L 14.804688 24.910156 L 14.824219 24.980469 L 14.871094 25.050781 L 14.953125 25.132812 L 14.964844 25.082031 L 14.929688 25 L 15 24.960938 L 14.992188 24.902344 L 14.925781 24.859375 L 14.820312 24.886719 " fill-opacity="1" fill-rule="nonzero"/><path fill="#014d4e" d="M 15.066406 24.902344 L 15.066406 24.980469 L 15.074219 25.027344 L 15.101562 25.097656 L 15.289062 25.109375 L 15.308594 25.046875 L 15.277344 24.972656 L 15.234375 24.964844 L 15.1875 24.964844 L 15.136719 24.894531 L 15.066406 24.902344 " fill-opacity="1" fill-rule="nonzero"/><path fill="#014d4e" d="M 15.386719 24.652344 L 15.363281 24.675781 L 15.339844 24.792969 L 15.277344 24.8125 L 15.285156 24.882812 L 15.34375 24.957031 L 15.410156 24.984375 L 15.402344 24.914062 C 15.402344 24.914062 15.386719 24.863281 15.390625 24.863281 C 15.394531 24.863281 15.460938 24.851562 15.457031 24.859375 C 15.457031 24.867188 15.480469 24.921875 15.480469 24.921875 L 15.527344 24.902344 L 15.519531 24.835938 C 15.519531 24.835938 15.480469 24.742188 15.472656 24.738281 C 15.46875 24.734375 15.386719 24.652344 15.386719 24.652344 " fill-opacity="1" fill-rule="nonzero"/><path fill="#014d4e" d="M 14.820312 25.351562 C 14.820312 25.351562 14.78125 25.398438 14.804688 25.425781 C 14.824219 25.449219 14.902344 25.492188 14.902344 25.492188 L 14.9375 25.453125 C 14.9375 25.453125 14.941406 25.386719 14.914062 25.375 C 14.890625 25.367188 14.820312 25.351562 14.820312 25.351562 " fill-opacity="1" fill-rule="nonzero"/><path fill="#014d4e" d="M 16.21875 25.3125 L 16.144531 25.382812 L 16.03125 25.441406 L 15.886719 25.332031 L 15.789062 25.328125 L 15.742188 25.40625 L 15.410156 25.429688 L 15.417969 25.355469 L 15.253906 25.378906 L 15.179688 25.332031 C 15.179688 25.332031 15.023438 25.378906 15.015625 25.382812 C 15.007812 25.382812 14.949219 25.300781 14.949219 25.292969 C 14.949219 25.289062 14.941406 25.265625 14.941406 25.265625 L 14.988281 25.234375 L 15.027344 25.179688 L 15.117188 25.195312 L 15.230469 25.195312 L 15.339844 25.152344 L 15.386719 25.195312 L 15.507812 25.210938 L 15.539062 25.171875 L 15.609375 25.082031 L 15.699219 25.152344 L 15.710938 25.109375 L 15.757812 25.074219 L 15.859375 25.109375 L 15.921875 25.109375 L 15.925781 25.234375 L 15.992188 25.261719 L 16.078125 25.167969 L 16.046875 25.074219 L 15.96875 25.019531 C 15.96875 25.019531 15.777344 24.949219 15.773438 24.949219 C 15.765625 24.949219 15.648438 24.839844 15.648438 24.835938 C 15.644531 24.832031 15.640625 24.707031 15.640625 24.707031 L 15.722656 24.628906 L 15.855469 24.539062 L 15.855469 24.449219 C 15.855469 24.449219 15.730469 24.421875 15.722656 24.421875 C 15.71875 24.421875 15.582031 24.519531 15.582031 24.519531 L 15.5 24.527344 L 15.460938 24.371094 L 15.503906 24.296875 L 15.46875 24.234375 L 15.511719 24.1875 L 15.640625 24.160156 L 15.703125 24.082031 L 15.730469 23.988281 L 15.855469 23.976562 L 15.863281 24.058594 L 15.910156 24.070312 L 15.980469 24.007812 L 16.011719 23.980469 L 16.074219 24.007812 L 16.089844 24.363281 L 16.167969 24.449219 L 16.207031 24.765625 L 16.21875 25.3125 " fill-opacity="1" fill-rule="nonzero"/><path fill="#014d4e" d="M 15.21875 25.503906 C 15.214844 25.515625 15.1875 25.574219 15.1875 25.574219 L 15.25 25.628906 L 15.335938 25.601562 L 15.402344 25.679688 L 15.5 25.679688 L 15.519531 25.65625 L 15.585938 25.695312 L 15.632812 25.679688 L 15.683594 25.621094 C 15.683594 25.621094 15.644531 25.550781 15.640625 25.550781 C 15.636719 25.546875 15.511719 25.53125 15.511719 25.53125 L 15.328125 25.507812 L 15.21875 25.503906 " fill-opacity="1" fill-rule="nonzero"/><path fill="#014d4e" d="M 15.746094 25.488281 C 15.746094 25.488281 15.734375 25.535156 15.746094 25.539062 C 15.757812 25.542969 15.835938 25.542969 15.84375 25.546875 C 15.847656 25.546875 15.921875 25.5625 15.921875 25.5625 L 15.921875 25.582031 L 15.832031 25.613281 C 15.832031 25.613281 15.738281 25.644531 15.742188 25.652344 C 15.742188 25.660156 15.753906 25.710938 15.757812 25.714844 C 15.761719 25.71875 15.839844 25.746094 15.839844 25.746094 L 15.804688 25.796875 C 15.804688 25.796875 15.828125 25.84375 15.832031 25.847656 C 15.835938 25.851562 15.90625 25.859375 15.90625 25.859375 L 15.957031 25.828125 L 16.027344 25.886719 L 16.101562 25.855469 L 16.113281 25.800781 L 16.050781 25.769531 L 16 25.773438 L 15.949219 25.726562 L 16.023438 25.695312 L 16.128906 25.703125 L 16.175781 25.71875 L 16.175781 25.832031 L 16.21875 25.863281 L 16.308594 25.792969 L 16.378906 25.808594 L 16.429688 25.933594 L 16.503906 25.960938 C 16.503906 25.960938 16.570312 25.917969 16.570312 25.914062 C 16.570312 25.910156 16.558594 25.792969 16.558594 25.792969 L 16.425781 25.707031 L 16.449219 25.621094 L 16.515625 25.660156 L 16.65625 25.664062 L 16.707031 25.613281 L 16.792969 25.621094 L 16.878906 25.574219 L 16.820312 25.460938 L 16.679688 25.40625 L 16.449219 25.441406 L 16.421875 25.492188 L 16.464844 25.542969 L 16.382812 25.558594 L 16.308594 25.628906 L 16.175781 25.628906 C 16.175781 25.628906 16.128906 25.570312 16.144531 25.570312 C 16.160156 25.570312 16.21875 25.546875 16.21875 25.546875 L 16.277344 25.550781 L 16.339844 25.511719 C 16.339844 25.511719 16.191406 25.433594 16.183594 25.445312 C 16.175781 25.457031 16.082031 25.558594 16.082031 25.558594 L 15.957031 25.511719 L 15.867188 25.433594 L 15.8125 25.445312 L 15.746094 25.488281 " fill-opacity="1" fill-rule="nonzero"/><g clip-path="url(#ef7ad95dbb)"><path fill="#014d4e" d="M 16.652344 25.964844 L 16.605469 26.011719 L 16.628906 26.070312 L 16.796875 26.066406 L 16.8125 26.007812 L 16.746094 25.957031 L 16.652344 25.964844 " fill-opacity="1" fill-rule="nonzero"/></g><g clip-path="url(#09d382f98e)"><path fill="#014d4e" d="M 16.894531 25.980469 L 16.902344 26.066406 L 17.011719 26.035156 L 17.003906 25.957031 L 16.972656 25.949219 L 16.894531 25.980469 " fill-opacity="1" fill-rule="nonzero"/></g><path fill="#014d4e" d="M 16.765625 25.847656 L 16.832031 25.910156 C 16.832031 25.910156 16.914062 25.859375 16.910156 25.855469 C 16.910156 25.851562 16.871094 25.777344 16.871094 25.777344 L 16.804688 25.796875 L 16.765625 25.847656 " fill-opacity="1" fill-rule="nonzero"/><g clip-path="url(#af284bd878)"><path fill="#014d4e" d="M 16.984375 25.59375 C 16.980469 25.597656 16.910156 25.671875 16.910156 25.671875 L 16.960938 25.714844 C 16.960938 25.714844 17.078125 25.726562 17.070312 25.703125 C 17.0625 25.683594 17.0625 25.636719 17.0625 25.636719 L 16.984375 25.59375 " fill-opacity="1" fill-rule="nonzero"/><path fill="#014d4e" d="M 16.980469 25.417969 L 16.949219 25.445312 L 16.964844 25.496094 L 17.035156 25.515625 L 17.050781 25.457031 L 16.980469 25.417969 " fill-opacity="1" fill-rule="nonzero"/></g></svg>