<svg xmlns="http://www.w3.org/2000/svg" xmlns:xlink="http://www.w3.org/1999/xlink" width="40" zoomAndPan="magnify" viewBox="0 0 30 30.000001" height="40" preserveAspectRatio="xMidYMid meet" version="1.0"><defs><clipPath id="d87d34db2f"><path d="M 7.203125 2.902344 L 22.445312 2.902344 L 22.445312 26.128906 L 7.203125 26.128906 Z M 7.203125 2.902344 " clip-rule="nonzero"/></clipPath></defs><g clip-path="url(#d87d34db2f)"><path fill="#014d4e" d="M 9.640625 22.15625 C 9.601562 22.15625 9.566406 22.15625 9.527344 22.15625 C 9.488281 22.15625 9.453125 22.140625 9.460938 22.097656 C 9.492188 21.980469 9.414062 21.90625 9.359375 21.824219 C 9.324219 21.769531 9.324219 21.769531 9.382812 21.71875 C 9.398438 21.707031 9.394531 21.671875 9.402344 21.648438 C 9.421875 21.601562 9.449219 21.566406 9.507812 21.601562 C 9.542969 21.625 9.578125 21.625 9.613281 21.601562 C 9.578125 21.558594 9.59375 21.492188 9.542969 21.464844 C 9.433594 21.398438 9.429688 21.375 9.523438 21.28125 C 9.546875 21.257812 9.570312 21.234375 9.589844 21.207031 C 9.601562 21.195312 9.605469 21.179688 9.605469 21.144531 C 9.5 21.28125 9.390625 21.386719 9.214844 21.214844 C 9.242188 21.296875 9.390625 21.402344 9.179688 21.382812 C 9.15625 21.378906 9.136719 21.40625 9.144531 21.421875 C 9.164062 21.492188 9.15625 21.542969 9.074219 21.535156 C 8.976562 21.53125 8.875 21.535156 8.820312 21.429688 C 8.808594 21.40625 8.8125 21.378906 8.804688 21.34375 C 8.726562 21.414062 8.675781 21.429688 8.589844 21.335938 C 8.53125 21.269531 8.402344 21.269531 8.304688 21.222656 C 8.179688 21.160156 8.089844 21.101562 8.167969 20.945312 C 8.183594 20.914062 8.160156 20.882812 8.136719 20.855469 C 8.003906 20.707031 7.988281 20.523438 8 20.335938 C 8.003906 20.277344 7.992188 20.222656 7.992188 20.164062 C 7.917969 20.246094 7.820312 20.226562 7.742188 20.214844 C 7.628906 20.203125 7.613281 20.074219 7.546875 19.996094 C 7.558594 20.070312 7.5625 20.148438 7.617188 20.207031 C 7.675781 20.277344 7.648438 20.316406 7.570312 20.332031 C 7.484375 20.347656 7.394531 20.355469 7.308594 20.324219 C 7.226562 20.292969 7.210938 20.265625 7.21875 20.160156 C 7.238281 19.941406 7.390625 19.769531 7.402344 19.550781 C 7.402344 19.503906 7.457031 19.460938 7.488281 19.417969 C 7.574219 19.304688 7.597656 19.144531 7.695312 19.054688 C 7.789062 18.972656 7.832031 18.875 7.824219 18.773438 C 7.808594 18.617188 7.902344 18.480469 7.882812 18.328125 C 7.878906 18.277344 7.914062 18.230469 7.949219 18.195312 C 8.015625 18.128906 8.003906 18.066406 7.9375 18.011719 C 7.859375 17.953125 7.796875 17.890625 7.898438 17.800781 C 7.917969 17.78125 7.917969 17.753906 7.914062 17.726562 C 7.894531 17.574219 7.953125 17.5 8.113281 17.476562 C 8.140625 17.472656 8.15625 17.460938 8.171875 17.4375 C 8.285156 17.261719 8.433594 17.117188 8.597656 16.988281 C 8.699219 16.910156 8.796875 16.832031 8.84375 16.707031 C 8.855469 16.675781 8.878906 16.640625 8.910156 16.632812 C 9.011719 16.625 9.050781 16.523438 9.117188 16.492188 C 9.273438 16.417969 9.355469 16.226562 9.546875 16.210938 C 9.601562 16.207031 9.609375 16.160156 9.625 16.121094 C 9.660156 16.003906 9.695312 15.886719 9.734375 15.769531 C 9.757812 15.695312 9.792969 15.648438 9.882812 15.675781 C 9.941406 15.695312 9.988281 15.664062 10.03125 15.625 C 10.160156 15.515625 10.289062 15.40625 10.417969 15.296875 C 10.527344 15.207031 10.5625 15.21875 10.589844 15.347656 C 10.613281 15.464844 10.675781 15.511719 10.789062 15.503906 C 10.875 15.5 10.960938 15.5 11.042969 15.5 C 11.210938 15.5 11.28125 15.4375 11.304688 15.269531 C 11.3125 15.226562 11.316406 15.183594 11.328125 15.144531 C 11.34375 15.09375 11.34375 15.027344 11.398438 15.015625 C 11.457031 15.003906 11.445312 15.082031 11.46875 15.117188 C 11.527344 15.199219 11.625 15.222656 11.707031 15.253906 C 11.855469 15.304688 11.957031 15.378906 11.984375 15.542969 C 12 15.628906 12.066406 15.675781 12.152344 15.699219 C 12.34375 15.746094 12.382812 15.792969 12.382812 15.988281 C 12.382812 16.089844 12.398438 16.1875 12.429688 16.285156 C 12.453125 16.359375 12.496094 16.398438 12.578125 16.390625 C 12.683594 16.386719 12.789062 16.390625 12.894531 16.378906 C 12.972656 16.375 13.027344 16.332031 13.039062 16.246094 C 13.058594 16.144531 13.105469 16.082031 13.214844 16.054688 C 13.335938 16.019531 13.421875 15.800781 13.363281 15.679688 C 13.332031 15.613281 13.328125 15.554688 13.378906 15.507812 C 13.554688 15.339844 13.742188 15.1875 13.96875 15.085938 C 14.019531 15.0625 14.007812 15.039062 13.988281 15.011719 C 13.933594 14.933594 13.878906 14.84375 13.808594 14.78125 C 13.75 14.730469 13.75 14.714844 13.796875 14.652344 C 13.933594 14.460938 14.109375 14.304688 14.257812 14.128906 C 14.289062 14.089844 14.3125 14.046875 14.296875 14 C 14.253906 13.882812 14.300781 13.785156 14.363281 13.691406 C 14.40625 13.617188 14.453125 13.546875 14.507812 13.484375 C 14.601562 13.371094 14.691406 13.261719 14.632812 13.101562 C 14.625 13.074219 14.628906 13.023438 14.644531 13.003906 C 14.75 12.882812 14.730469 12.75 14.710938 12.605469 C 14.691406 12.4375 14.730469 12.398438 14.898438 12.367188 C 14.976562 12.355469 15.070312 12.230469 15.066406 12.15625 C 15.058594 12.109375 15.007812 12.046875 15.039062 12.027344 C 15.101562 11.992188 15.183594 11.960938 15.253906 11.976562 C 15.460938 12.011719 15.59375 11.9375 15.679688 11.75 C 15.691406 11.722656 15.714844 11.699219 15.746094 11.699219 C 15.859375 11.691406 15.878906 11.613281 15.894531 11.523438 C 15.902344 11.453125 15.917969 11.382812 15.917969 11.3125 C 15.917969 11.105469 15.945312 10.910156 16.058594 10.730469 C 16.101562 10.664062 16.09375 10.578125 16.03125 10.519531 C 15.976562 10.46875 16 10.449219 16.046875 10.414062 C 16.210938 10.292969 16.367188 10.160156 16.589844 10.140625 C 16.707031 10.128906 16.730469 10.019531 16.738281 9.917969 C 16.746094 9.832031 16.757812 9.742188 16.792969 9.660156 C 16.816406 9.609375 16.808594 9.570312 16.769531 9.535156 C 16.707031 9.46875 16.703125 9.402344 16.75 9.324219 C 16.777344 9.277344 16.773438 9.226562 16.761719 9.175781 C 16.734375 9.0625 16.789062 9.011719 16.894531 8.992188 C 16.945312 8.984375 16.996094 8.976562 17.042969 8.960938 C 17.121094 8.933594 17.1875 8.878906 17.191406 8.789062 C 17.203125 8.5625 17.277344 8.351562 17.3125 8.128906 C 17.363281 7.847656 17.554688 7.640625 17.710938 7.414062 C 17.761719 7.34375 17.816406 7.273438 17.808594 7.175781 C 17.808594 7.15625 17.816406 7.125 17.828125 7.117188 C 17.984375 7.011719 18.03125 6.820312 18.164062 6.695312 C 18.257812 6.605469 18.347656 6.578125 18.460938 6.636719 C 18.570312 6.691406 18.65625 6.675781 18.761719 6.601562 C 18.972656 6.449219 19.191406 6.304688 19.425781 6.191406 C 19.589844 6.113281 19.625 5.929688 19.480469 5.816406 C 19.40625 5.757812 19.417969 5.722656 19.457031 5.648438 C 19.53125 5.496094 19.582031 5.332031 19.546875 5.148438 C 19.523438 5.027344 19.597656 4.914062 19.640625 4.796875 C 19.496094 4.78125 19.425781 4.664062 19.359375 4.566406 C 19.304688 4.480469 19.238281 4.460938 19.152344 4.453125 C 19.03125 4.445312 18.914062 4.4375 18.796875 4.433594 C 18.730469 4.429688 18.675781 4.410156 18.675781 4.332031 C 18.679688 3.90625 18.535156 3.507812 18.460938 3.097656 C 18.441406 2.972656 18.476562 2.945312 18.585938 2.945312 C 18.746094 2.949219 18.90625 2.945312 19.070312 2.945312 C 19.222656 2.945312 19.371094 3.128906 19.347656 3.28125 C 19.335938 3.378906 19.453125 3.566406 19.539062 3.609375 C 19.652344 3.664062 19.757812 3.726562 19.867188 3.800781 C 20.144531 3.996094 20.09375 4.296875 20.160156 4.5625 C 20.179688 4.628906 20.167969 4.703125 20.167969 4.777344 C 20.164062 4.882812 20.222656 4.929688 20.316406 4.925781 C 20.394531 4.925781 20.429688 4.949219 20.449219 5.027344 C 20.472656 5.132812 20.503906 5.234375 20.457031 5.339844 C 20.441406 5.375 20.449219 5.40625 20.480469 5.429688 C 20.578125 5.496094 20.589844 5.59375 20.535156 5.683594 C 20.472656 5.796875 20.5 5.890625 20.566406 5.976562 C 20.636719 6.0625 20.632812 6.136719 20.554688 6.210938 C 20.53125 6.238281 20.5 6.273438 20.496094 6.304688 C 20.453125 6.644531 20.320312 6.980469 20.488281 7.316406 C 20.5 7.34375 20.519531 7.378906 20.507812 7.402344 C 20.453125 7.558594 20.539062 7.679688 20.605469 7.808594 C 20.644531 7.878906 20.667969 7.945312 20.632812 8.027344 C 20.609375 8.085938 20.628906 8.132812 20.695312 8.15625 C 20.832031 8.203125 20.859375 8.339844 20.925781 8.441406 C 20.941406 8.46875 20.9375 8.515625 20.960938 8.535156 C 21.171875 8.71875 21.316406 8.980469 21.585938 9.101562 C 21.617188 9.117188 21.652344 9.136719 21.679688 9.164062 C 21.71875 9.195312 21.71875 9.226562 21.660156 9.242188 C 21.398438 9.304688 21.144531 9.40625 20.871094 9.277344 C 20.746094 9.21875 20.609375 9.207031 20.480469 9.296875 C 20.425781 9.335938 20.355469 9.324219 20.296875 9.308594 C 20.207031 9.285156 20.121094 9.285156 20.035156 9.320312 C 19.910156 9.375 19.789062 9.371094 19.664062 9.332031 C 19.398438 9.25 19.132812 9.207031 18.851562 9.238281 C 18.75 9.25 18.671875 9.273438 18.636719 9.378906 C 18.585938 9.511719 18.488281 9.613281 18.378906 9.703125 C 18.335938 9.742188 18.304688 9.792969 18.269531 9.839844 C 18.226562 9.890625 18.238281 9.925781 18.289062 9.96875 C 18.539062 10.164062 18.757812 10.40625 18.921875 10.671875 C 19.109375 10.964844 19.390625 11.125 19.632812 11.339844 C 19.757812 11.449219 19.871094 11.585938 20.058594 11.605469 C 20.066406 11.605469 20.074219 11.609375 20.078125 11.617188 C 20.207031 11.796875 20.414062 11.890625 20.554688 12.0625 C 20.867188 12.445312 21.035156 12.890625 21.167969 13.355469 C 21.207031 13.488281 21.25 13.621094 21.421875 13.636719 C 21.46875 13.640625 21.488281 13.679688 21.488281 13.726562 C 21.496094 13.875 21.472656 14.011719 21.390625 14.140625 C 21.320312 14.238281 21.226562 14.320312 21.207031 14.460938 C 21.199219 14.535156 21.082031 14.601562 20.992188 14.644531 C 20.832031 14.722656 20.730469 14.839844 20.742188 15.03125 C 20.742188 15.046875 20.742188 15.070312 20.730469 15.082031 C 20.558594 15.238281 20.5625 15.480469 20.453125 15.667969 C 20.429688 15.703125 20.410156 15.746094 20.367188 15.757812 C 20.242188 15.804688 20.195312 15.90625 20.144531 16.019531 C 20.078125 16.175781 19.964844 16.320312 19.941406 16.480469 C 19.894531 16.78125 19.664062 16.828125 19.449219 16.921875 C 19.316406 16.980469 19.234375 17.105469 19.144531 17.214844 C 19.128906 17.230469 19.148438 17.253906 19.164062 17.265625 C 19.207031 17.308594 19.242188 17.355469 19.269531 17.410156 C 19.296875 17.472656 19.363281 17.472656 19.410156 17.453125 C 19.523438 17.40625 19.554688 17.480469 19.570312 17.554688 C 19.601562 17.691406 19.621094 17.832031 19.566406 17.964844 C 19.53125 18.039062 19.527344 18.105469 19.5625 18.183594 C 19.613281 18.300781 19.550781 18.40625 19.515625 18.515625 C 19.503906 18.550781 19.480469 18.582031 19.460938 18.613281 C 19.398438 18.714844 19.402344 18.789062 19.539062 18.824219 C 19.648438 18.855469 19.679688 18.957031 19.675781 19.058594 C 19.671875 19.246094 19.703125 19.429688 19.742188 19.609375 C 19.765625 19.714844 19.738281 19.820312 19.753906 19.925781 C 19.769531 20.050781 19.816406 20.15625 19.921875 20.226562 C 20.039062 20.308594 20.164062 20.382812 20.28125 20.464844 C 20.410156 20.5625 20.511719 20.707031 20.515625 20.878906 C 20.515625 21.015625 20.570312 21.105469 20.675781 21.167969 C 20.757812 21.214844 20.730469 21.238281 20.667969 21.265625 C 20.59375 21.296875 20.523438 21.328125 20.429688 21.296875 C 20.488281 21.519531 20.59375 21.691406 20.734375 21.839844 C 21.101562 22.242188 21.480469 22.636719 21.855469 23.035156 C 21.917969 23.105469 21.984375 23.140625 22.074219 23.132812 C 22.195312 23.121094 22.265625 23.179688 22.300781 23.292969 C 22.316406 23.339844 22.332031 23.367188 22.390625 23.382812 C 22.515625 23.421875 22.59375 23.644531 22.53125 23.761719 C 22.496094 23.828125 22.488281 23.878906 22.550781 23.953125 C 22.609375 24.019531 22.605469 24.132812 22.59375 24.226562 C 22.570312 24.386719 22.59375 24.53125 22.679688 24.671875 C 22.714844 24.734375 22.738281 24.804688 22.761719 24.871094 C 22.792969 24.960938 22.757812 25.019531 22.667969 24.996094 C 22.570312 24.972656 22.566406 25.042969 22.558594 25.09375 C 22.546875 25.175781 22.542969 25.261719 22.515625 25.339844 C 22.503906 25.375 22.511719 25.40625 22.535156 25.433594 C 22.601562 25.523438 22.636719 25.628906 22.660156 25.734375 C 22.710938 25.933594 22.703125 25.96875 22.53125 26.054688 C 22.453125 26.09375 22.425781 26.003906 22.414062 25.960938 C 22.390625 25.878906 22.355469 25.847656 22.273438 25.832031 C 22.140625 25.8125 22.039062 25.722656 21.941406 25.640625 C 21.882812 25.585938 21.820312 25.550781 21.746094 25.535156 C 21.628906 25.507812 21.507812 25.484375 21.386719 25.457031 C 21.296875 25.433594 21.222656 25.464844 21.144531 25.503906 C 21.058594 25.550781 20.992188 25.566406 20.929688 25.449219 C 20.855469 25.308594 20.71875 25.289062 20.585938 25.378906 C 20.539062 25.410156 20.496094 25.429688 20.445312 25.410156 C 20.367188 25.375 20.292969 25.339844 20.199219 25.378906 C 20.144531 25.402344 20.128906 25.351562 20.125 25.296875 C 20.121094 25.226562 20.097656 25.179688 20.011719 25.234375 C 19.957031 25.265625 19.902344 25.261719 19.839844 25.214844 C 19.734375 25.140625 19.597656 25.117188 19.515625 25.003906 C 19.5 24.980469 19.476562 24.988281 19.453125 25.007812 C 19.339844 25.097656 19.222656 25.144531 19.085938 25.066406 C 19.058594 25.050781 19.019531 25.050781 18.984375 25.054688 C 18.324219 25.109375 17.664062 25.0625 17.003906 25.070312 C 16.949219 25.070312 16.898438 25.070312 16.878906 24.992188 C 16.847656 24.855469 16.664062 24.777344 16.535156 24.847656 C 16.464844 24.886719 16.398438 24.886719 16.320312 24.882812 C 16.152344 24.871094 15.984375 24.867188 15.816406 24.898438 C 15.667969 24.925781 15.527344 24.859375 15.378906 24.832031 C 15.164062 24.792969 14.945312 24.777344 14.722656 24.808594 C 14.472656 24.84375 14.214844 24.820312 13.960938 24.820312 C 13.847656 24.820312 13.730469 24.828125 13.628906 24.761719 C 13.605469 24.746094 13.570312 24.746094 13.542969 24.753906 C 13.4375 24.777344 13.332031 24.769531 13.226562 24.769531 C 12.964844 24.777344 13.007812 24.746094 12.941406 24.976562 C 12.921875 25.039062 12.878906 25.050781 12.824219 25.050781 C 12.714844 25.050781 12.605469 25.050781 12.492188 25.050781 C 11.765625 25.050781 11.035156 25.050781 10.308594 25.054688 C 10.164062 25.054688 10.046875 24.992188 9.925781 24.929688 C 9.84375 24.890625 9.8125 24.8125 9.832031 24.726562 C 9.875 24.507812 9.828125 24.28125 9.898438 24.0625 C 9.941406 23.925781 9.964844 23.785156 9.964844 23.636719 C 9.964844 23.527344 10.003906 23.421875 10.078125 23.332031 C 10.132812 23.269531 10.132812 23.199219 10.117188 23.117188 C 10.046875 22.796875 9.886719 22.539062 9.617188 22.355469 C 9.515625 22.285156 9.507812 22.246094 9.621094 22.191406 C 9.628906 22.1875 9.632812 22.179688 9.640625 22.171875 C 9.640625 22.167969 9.640625 22.164062 9.640625 22.15625 Z M 9.640625 22.15625 " fill-opacity="1" fill-rule="nonzero"/></g></svg>