<svg xmlns="http://www.w3.org/2000/svg" xmlns:xlink="http://www.w3.org/1999/xlink" width="40" zoomAndPan="magnify" viewBox="0 0 30 30.000001" height="40" preserveAspectRatio="xMidYMid meet" version="1.0"><defs><clipPath id="3d6f1d5610"><path d="M 18 23 L 20 23 L 20 24.328125 L 18 24.328125 Z M 18 23 " clip-rule="nonzero"/></clipPath><clipPath id="594d47911e"><path d="M 3.386719 4.730469 L 26.613281 4.730469 L 26.613281 24 L 3.386719 24 Z M 3.386719 4.730469 " clip-rule="nonzero"/></clipPath></defs><g clip-path="url(#3d6f1d5610)"><path fill="#014d4e" d="M 18.714844 24.289062 L 18.824219 24.28125 L 18.820312 24.199219 L 18.996094 24.171875 L 18.980469 24.125 L 19.070312 24.011719 L 19.132812 24.015625 L 19.183594 23.988281 C 19.183594 23.988281 19.234375 23.617188 19.347656 23.5 C 19.425781 23.421875 19.410156 23.429688 19.410156 23.429688 L 19.382812 23.308594 L 19.367188 23.28125 L 19.363281 23.175781 L 19.332031 23.171875 L 19.199219 23.238281 L 19.050781 23.273438 L 18.949219 23.28125 C 18.949219 23.28125 18.957031 23.304688 18.898438 23.320312 C 18.84375 23.332031 18.769531 23.335938 18.769531 23.335938 C 18.769531 23.335938 18.703125 23.320312 18.6875 23.320312 C 18.671875 23.320312 18.660156 23.34375 18.660156 23.34375 L 18.660156 23.378906 L 18.625 23.402344 L 18.507812 23.394531 L 18.464844 23.433594 L 18.472656 23.480469 L 18.539062 23.476562 L 18.5 23.550781 L 18.441406 23.566406 L 18.253906 23.703125 L 18.230469 23.746094 L 18.238281 23.796875 L 18.230469 23.828125 L 18.21875 23.871094 L 18.246094 23.996094 L 18.285156 24.070312 L 18.285156 24.140625 L 18.527344 24.261719 L 18.679688 24.246094 Z M 18.714844 24.289062 " fill-opacity="1" fill-rule="nonzero"/></g><g clip-path="url(#594d47911e)"><path fill="#014d4e" d="M 18.78125 23.003906 L 18.867188 23.0625 L 18.847656 23.109375 L 18.863281 23.152344 L 19.039062 23.152344 L 19.132812 23.0625 L 19.132812 23.027344 L 19.054688 22.941406 L 19.023438 22.859375 L 18.953125 22.835938 L 18.929688 22.753906 L 19.074219 22.636719 L 19.125 22.636719 L 19.222656 22.523438 L 19.324219 22.515625 L 19.367188 22.464844 L 19.492188 22.445312 L 19.539062 22.425781 L 19.605469 22.425781 L 19.695312 22.355469 L 19.683594 22.3125 L 19.820312 22.265625 L 20.003906 22.246094 L 20.011719 22.1875 L 20.117188 22.210938 L 20.214844 22.140625 L 20.300781 22.144531 L 20.292969 22.019531 L 20.3125 21.960938 L 20.402344 22.042969 L 20.46875 21.945312 L 20.445312 21.882812 L 20.503906 21.917969 L 20.542969 21.921875 L 20.570312 21.882812 L 20.550781 21.742188 L 20.527344 21.679688 L 20.5 21.648438 L 20.527344 21.601562 L 20.582031 21.636719 L 20.628906 21.628906 L 20.648438 21.699219 L 20.707031 21.738281 L 20.777344 21.742188 L 20.75 21.828125 L 20.820312 21.816406 L 20.917969 21.84375 L 20.90625 21.800781 L 20.949219 21.761719 L 20.878906 21.703125 L 20.964844 21.679688 L 21.03125 21.71875 L 21.019531 21.621094 L 21.113281 21.574219 L 21.128906 21.660156 L 21.210938 21.65625 C 21.210938 21.65625 21.28125 21.527344 21.328125 21.519531 C 21.375 21.511719 21.425781 21.523438 21.425781 21.523438 L 21.433594 21.582031 L 21.503906 21.574219 C 21.503906 21.574219 21.511719 21.464844 21.53125 21.460938 C 21.546875 21.457031 21.636719 21.496094 21.636719 21.496094 L 21.726562 21.441406 L 21.789062 21.425781 L 21.859375 21.378906 L 21.964844 21.355469 L 21.984375 21.234375 L 22.070312 21.191406 L 22.039062 21.140625 L 21.996094 21.113281 L 22.152344 21.089844 L 22.222656 21.054688 L 22.179688 21.011719 L 22.214844 20.964844 L 22.308594 20.960938 L 22.320312 20.882812 L 22.375 20.882812 L 22.363281 20.78125 L 22.457031 20.808594 L 22.457031 20.695312 L 22.535156 20.695312 C 22.535156 20.695312 22.601562 20.585938 22.613281 20.578125 C 22.625 20.570312 22.550781 20.480469 22.550781 20.480469 L 22.542969 20.460938 L 22.613281 20.457031 C 22.613281 20.457031 22.703125 20.375 22.730469 20.359375 C 22.757812 20.347656 22.847656 20.347656 22.847656 20.347656 L 22.90625 20.257812 L 22.859375 20.230469 L 22.824219 20.167969 L 22.96875 20.175781 L 22.980469 20.136719 L 22.957031 20.074219 L 23.0625 19.976562 L 23.105469 19.957031 L 23.042969 19.894531 L 23.042969 19.820312 L 23.105469 19.777344 L 23.167969 19.808594 L 23.226562 19.820312 L 23.21875 19.777344 L 23.183594 19.707031 L 23.226562 19.632812 L 23.199219 19.570312 L 23.207031 19.519531 L 23.171875 19.457031 L 23.199219 19.359375 L 23.238281 19.300781 L 23.136719 19.195312 L 23.148438 19.125 L 23.230469 19.132812 L 23.253906 19.160156 L 23.28125 19.070312 L 23.375 18.988281 L 23.390625 18.902344 L 23.441406 18.847656 L 23.398438 18.816406 L 23.457031 18.816406 L 23.527344 18.726562 L 23.519531 18.582031 C 23.519531 18.582031 23.589844 18.378906 23.617188 18.367188 C 23.644531 18.351562 23.648438 18.339844 23.648438 18.339844 L 23.660156 18.210938 L 23.734375 18.171875 L 23.746094 18.289062 C 23.746094 18.289062 23.828125 18.167969 23.871094 18.160156 C 23.914062 18.152344 23.800781 17.976562 23.800781 17.976562 L 23.871094 17.90625 L 23.875 17.8125 L 23.945312 17.730469 L 23.914062 17.671875 L 23.953125 17.628906 L 23.917969 17.394531 L 23.878906 17.5 L 23.816406 17.484375 C 23.816406 17.484375 23.914062 17.289062 24.058594 17.265625 L 24.0625 17.203125 L 23.929688 17.140625 C 23.929688 17.140625 23.875 17.175781 23.867188 17.199219 C 23.859375 17.21875 23.847656 17.246094 23.847656 17.246094 L 23.769531 17.269531 L 23.597656 17.152344 L 23.496094 17.148438 C 23.496094 17.148438 23.375 17.277344 23.347656 17.273438 C 23.320312 17.269531 23.128906 17.234375 23.128906 17.234375 C 23.128906 17.234375 23.085938 17.199219 23.121094 17.191406 C 23.15625 17.183594 23.183594 17.15625 23.183594 17.144531 C 23.175781 17.132812 23.375 17.125 23.375 17.125 L 23.390625 17.054688 C 23.390625 17.054688 23.695312 16.828125 23.714844 16.777344 C 23.738281 16.730469 23.746094 16.65625 23.746094 16.65625 C 23.746094 16.65625 23.703125 16.613281 23.683594 16.59375 C 23.660156 16.574219 23.429688 16.507812 23.402344 16.460938 C 23.375 16.417969 23.171875 16.390625 23.171875 16.390625 L 23.152344 16.335938 L 23.085938 16.324219 L 22.9375 16.378906 L 22.984375 16.304688 L 23.054688 16.269531 L 23.1875 16.28125 C 23.1875 16.28125 23.25 16.367188 23.28125 16.367188 C 23.316406 16.367188 23.445312 16.378906 23.46875 16.378906 C 23.488281 16.378906 23.550781 16.421875 23.570312 16.425781 C 23.59375 16.429688 23.683594 16.453125 23.714844 16.445312 C 23.75 16.4375 23.757812 16.402344 23.734375 16.382812 C 23.714844 16.359375 23.566406 16.203125 23.566406 16.203125 C 23.566406 16.203125 23.441406 16.1875 23.441406 16.175781 C 23.441406 16.164062 23.398438 16.042969 23.398438 16.042969 L 23.171875 15.976562 C 23.171875 15.976562 23.117188 15.945312 23.121094 15.933594 C 23.128906 15.921875 23.152344 15.878906 23.144531 15.84375 C 23.136719 15.8125 22.789062 15.308594 22.769531 15.21875 C 22.75 15.132812 22.480469 15.097656 22.480469 15.097656 L 22.398438 15.054688 L 22.351562 15 L 22.210938 14.972656 L 22.207031 14.859375 L 22.277344 14.804688 L 22.277344 14.710938 L 22.304688 14.65625 L 22.363281 14.53125 L 22.449219 14.488281 L 22.5 14.339844 L 22.554688 14.292969 L 22.515625 14.21875 L 22.535156 14.179688 L 22.675781 14.210938 L 22.738281 14.15625 L 22.734375 14 L 22.769531 13.933594 L 22.832031 13.921875 L 23.058594 13.75 L 23.179688 13.613281 L 23.199219 13.632812 L 23.253906 13.628906 L 23.269531 13.609375 L 23.34375 13.664062 L 23.414062 13.609375 L 23.390625 13.53125 L 23.398438 13.476562 L 23.40625 13.351562 L 23.320312 13.324219 L 23.273438 13.363281 L 23.175781 13.335938 L 22.964844 13.421875 L 22.871094 13.351562 L 22.828125 13.371094 L 22.792969 13.351562 L 22.640625 13.269531 L 22.539062 13.296875 L 22.4375 13.375 L 22.425781 13.480469 L 22.300781 13.570312 L 22.296875 13.679688 L 22.21875 13.75 L 22.039062 13.75 L 21.90625 13.695312 L 21.902344 13.449219 L 21.792969 13.367188 C 21.792969 13.367188 21.738281 13.386719 21.636719 13.296875 C 21.636719 13.296875 21.5 13.328125 21.480469 13.371094 C 21.460938 13.414062 21.207031 13.15625 21.230469 12.972656 C 21.257812 12.789062 21.417969 12.765625 21.417969 12.765625 L 21.511719 12.804688 L 21.601562 12.734375 L 21.691406 12.734375 L 21.722656 12.714844 L 21.761719 12.722656 C 21.761719 12.722656 21.761719 12.566406 21.8125 12.488281 C 21.863281 12.40625 21.929688 12.355469 21.929688 12.355469 L 21.9375 12.273438 L 22.28125 12.046875 L 22.28125 11.929688 L 22.410156 11.773438 L 22.417969 11.703125 L 22.507812 11.648438 L 22.625 11.648438 L 22.695312 11.597656 L 22.765625 11.609375 L 22.949219 11.773438 L 22.957031 11.808594 C 22.957031 11.808594 22.871094 12.035156 22.859375 12.0625 C 22.84375 12.097656 22.710938 12.183594 22.710938 12.183594 L 22.695312 12.300781 L 22.644531 12.351562 L 22.699219 12.367188 L 22.78125 12.421875 L 22.859375 12.410156 C 22.859375 12.410156 22.839844 12.5625 22.828125 12.566406 C 22.8125 12.574219 22.765625 12.578125 22.730469 12.652344 L 22.675781 12.664062 L 22.664062 12.703125 L 22.648438 12.730469 L 22.65625 12.765625 L 22.703125 12.789062 L 22.929688 12.578125 C 22.929688 12.578125 22.996094 12.542969 23.039062 12.441406 C 23.078125 12.339844 23.363281 12.125 23.363281 12.125 L 23.4375 12.113281 L 23.457031 12.058594 L 23.546875 12.042969 L 23.566406 12.039062 L 23.609375 11.992188 L 23.757812 11.976562 L 23.839844 11.925781 L 23.855469 11.777344 C 23.855469 11.777344 24.046875 11.53125 24.070312 11.5 C 24.089844 11.472656 24.339844 11.28125 24.339844 11.28125 L 24.511719 10.988281 L 24.523438 10.789062 L 24.664062 10.707031 L 24.820312 10.824219 L 25.183594 10.769531 L 25.171875 10.671875 L 25.050781 10.535156 L 25.070312 10.460938 C 25.070312 10.460938 25.21875 10.429688 25.253906 10.417969 C 25.292969 10.40625 25.441406 10.292969 25.441406 10.292969 L 25.445312 10.148438 L 25.585938 10.105469 L 25.59375 9.792969 L 25.703125 9.78125 L 25.78125 9.894531 L 25.894531 9.917969 L 25.855469 9.851562 L 25.894531 9.78125 L 26.003906 9.710938 L 26.0625 9.410156 L 26.007812 9.355469 L 25.960938 9.082031 L 25.734375 8.683594 L 25.855469 8.636719 L 25.988281 8.382812 L 26.074219 8.410156 L 26.453125 8.390625 L 26.421875 8.15625 L 26.492188 8.078125 L 26.511719 7.769531 L 26.554688 7.679688 L 26.515625 7.539062 L 26.523438 7.359375 L 26.5 7.121094 L 26.53125 7.019531 L 26.589844 6.964844 L 26.613281 6.832031 L 26.503906 6.71875 L 26.496094 6.558594 L 26.386719 6.503906 C 26.386719 6.503906 26.222656 6.605469 26.222656 6.617188 C 26.222656 6.628906 26.105469 6.777344 26.105469 6.777344 L 26.027344 6.796875 L 25.910156 6.875 L 25.835938 7.070312 L 25.617188 7.171875 L 25.4375 7.183594 L 25.328125 7.242188 L 25.128906 7.085938 L 25.15625 6.953125 L 25.023438 6.820312 L 24.988281 6.664062 L 24.859375 6.707031 L 24.636719 6.578125 L 24.523438 6.503906 L 24.414062 6.554688 C 24.414062 6.554688 24.222656 6.464844 24.214844 6.46875 C 24.203125 6.472656 24.085938 6.550781 24.085938 6.550781 L 23.921875 6.558594 L 23.773438 6.410156 L 23.753906 6.25 L 23.664062 6.21875 L 23.636719 6.042969 L 23.410156 5.816406 L 23.40625 5.707031 L 23.265625 5.539062 L 23.183594 5.445312 L 23.148438 5.300781 L 23.058594 5.191406 L 22.996094 5.121094 L 22.933594 5.070312 L 22.878906 4.984375 L 22.558594 4.820312 L 22.441406 4.882812 L 22.007812 4.738281 L 21.839844 4.824219 L 21.566406 4.882812 C 21.566406 4.882812 21.335938 5.035156 21.3125 5.039062 C 21.285156 5.042969 21.167969 5.082031 21.167969 5.082031 L 21.042969 5.292969 L 20.972656 5.351562 L 20.96875 5.460938 L 21.175781 5.46875 C 21.175781 5.46875 21.15625 5.527344 21.242188 5.628906 L 21.230469 5.820312 L 21.09375 5.992188 L 20.886719 6.714844 L 20.960938 6.839844 L 20.914062 6.96875 L 20.757812 7 L 20.59375 7.179688 L 20.476562 7.269531 L 20.296875 7.265625 L 20.074219 7.179688 L 19.910156 7.714844 L 19.929688 7.78125 L 19.882812 7.839844 L 19.855469 8.0625 L 19.773438 8.132812 L 19.824219 8.285156 L 19.949219 8.363281 L 20.023438 8.269531 L 20.316406 8.214844 L 20.472656 8.285156 L 20.574219 8.113281 L 20.816406 8.074219 L 20.964844 8.167969 L 21.074219 8.175781 C 21.074219 8.175781 21.128906 8.285156 21.195312 8.3125 C 21.261719 8.339844 21.359375 8.414062 21.359375 8.414062 L 21.46875 8.628906 L 21.398438 8.726562 L 21.253906 8.765625 L 21.070312 8.707031 L 21.015625 8.75 L 20.902344 8.726562 L 20.699219 8.902344 L 20.589844 8.875 L 20.566406 8.988281 L 20.382812 9.007812 C 20.382812 9.007812 20.265625 9.105469 20.257812 9.128906 C 20.25 9.15625 20.195312 9.242188 20.195312 9.28125 C 20.195312 9.320312 20.203125 9.398438 20.203125 9.398438 L 20 9.597656 L 19.628906 9.65625 L 19.589844 9.773438 L 19.308594 10.046875 L 18.921875 10.03125 L 18.847656 9.949219 L 18.625 9.953125 L 18.488281 10.34375 L 18.738281 10.652344 C 18.738281 10.652344 18.625 10.738281 18.597656 10.78125 C 18.570312 10.824219 18.398438 10.878906 18.390625 10.886719 C 18.382812 10.898438 18.140625 11.230469 18.140625 11.230469 L 17.800781 11.421875 C 17.800781 11.421875 17.347656 11.457031 17.296875 11.46875 C 17.246094 11.484375 17.179688 11.5 17.179688 11.5 L 16.972656 11.476562 L 16.917969 11.53125 C 16.917969 11.53125 16.71875 11.578125 16.691406 11.59375 C 16.664062 11.609375 16.089844 11.921875 16.035156 11.976562 L 15.917969 11.949219 L 15.847656 11.847656 L 15.6875 11.886719 L 14.941406 11.691406 L 14.808594 11.53125 L 14.144531 11.421875 L 13.800781 11.484375 L 13.429688 11.414062 L 13.050781 11.394531 L 12.710938 11.296875 L 12.527344 11.058594 L 12.386719 10.613281 L 12.316406 10.574219 L 12.316406 10.46875 L 12.136719 10.417969 C 12.136719 10.417969 11.808594 10.191406 11.800781 10.183594 C 11.796875 10.171875 11.644531 10.015625 11.644531 10.015625 L 11.082031 9.949219 L 10.988281 9.921875 L 10.808594 9.832031 L 10.699219 9.8125 L 10.617188 9.726562 L 10.628906 9.550781 L 10.78125 9.359375 L 10.753906 9.195312 C 10.753906 9.195312 10.8125 9.132812 10.8125 9.125 C 10.8125 9.113281 10.824219 8.988281 10.824219 8.988281 L 10.679688 8.742188 L 10.648438 8.535156 L 10.53125 8.34375 L 10.460938 8.355469 L 10.335938 8.222656 L 10.273438 8.246094 L 10.160156 8.242188 L 10.089844 8.128906 L 10.035156 7.996094 L 9.863281 7.894531 L 9.871094 7.8125 L 9.789062 7.675781 L 9.820312 7.632812 L 9.824219 7.523438 L 9.738281 7.566406 L 9.703125 7.558594 L 9.582031 7.511719 L 9.472656 7.53125 L 9.453125 7.632812 L 9.394531 7.761719 L 9.222656 7.851562 L 9.039062 7.816406 L 8.914062 8.132812 C 8.914062 8.132812 8.941406 8.34375 8.925781 8.382812 C 8.914062 8.421875 8.898438 8.503906 8.898438 8.503906 C 8.898438 8.503906 8.757812 8.53125 8.742188 8.542969 C 8.726562 8.554688 8.566406 8.605469 8.566406 8.605469 C 8.566406 8.605469 8.476562 8.480469 8.441406 8.480469 C 8.398438 8.480469 8.28125 8.464844 8.28125 8.464844 L 7.964844 8.292969 L 7.9375 8.382812 C 7.9375 8.382812 7.738281 8.703125 7.707031 8.757812 C 7.679688 8.8125 7.53125 9.097656 7.53125 9.109375 C 7.53125 9.125 7.636719 9.214844 7.636719 9.214844 L 7.5625 9.347656 L 7.492188 9.292969 L 7.335938 9.289062 L 7.25 9.175781 L 7.074219 9.207031 L 7.015625 9.222656 L 6.636719 9.21875 L 6.554688 9.296875 L 6.746094 9.398438 L 6.734375 9.441406 L 6.683594 9.5625 L 6.636719 9.734375 C 6.636719 9.734375 6.703125 9.984375 6.703125 10.003906 C 6.703125 10.019531 6.699219 10.0625 6.699219 10.0625 L 6.683594 10.140625 L 6.683594 10.25 L 6.554688 10.289062 L 6.53125 10.390625 L 6.398438 10.441406 C 6.398438 10.441406 6.402344 10.546875 6.402344 10.558594 C 6.402344 10.574219 6.355469 10.800781 6.355469 10.800781 C 6.355469 10.800781 6.300781 10.746094 6.25 10.757812 C 6.199219 10.773438 6.152344 10.820312 6.152344 10.820312 C 6.152344 10.820312 5.925781 10.851562 5.894531 10.867188 C 5.859375 10.882812 5.636719 10.9375 5.59375 10.957031 C 5.546875 10.976562 5.421875 11.113281 5.421875 11.113281 L 5.152344 11.085938 L 4.941406 11.007812 L 4.792969 11.160156 L 4.652344 11.289062 L 4.550781 11.261719 L 4.410156 11.265625 L 4.347656 11.09375 L 4.222656 11.140625 L 4.054688 11.082031 L 4.050781 11.148438 L 3.855469 11.214844 L 3.683594 11.183594 L 3.59375 11.277344 C 3.59375 11.277344 3.617188 11.375 3.601562 11.394531 C 3.582031 11.417969 3.574219 11.453125 3.574219 11.453125 L 3.46875 11.476562 L 3.414062 11.585938 L 3.457031 11.703125 L 3.449219 11.742188 L 3.386719 11.769531 L 3.421875 11.976562 L 3.546875 11.914062 L 3.785156 12.074219 L 3.722656 12.230469 L 3.738281 12.285156 C 3.738281 12.285156 3.75 12.421875 3.742188 12.457031 C 3.734375 12.496094 3.730469 12.722656 3.730469 12.722656 L 3.457031 12.714844 L 3.453125 12.804688 C 3.453125 12.804688 3.578125 12.890625 3.59375 12.890625 C 3.605469 12.890625 3.757812 12.921875 3.757812 12.921875 L 3.800781 13.058594 L 3.917969 13.101562 L 3.953125 13.300781 L 3.898438 13.449219 L 3.980469 13.613281 L 4.097656 13.621094 L 4.238281 13.792969 L 4.574219 13.953125 L 4.65625 13.949219 L 5.03125 14.65625 L 4.867188 14.777344 L 4.796875 15.097656 L 4.933594 15.261719 L 4.890625 15.613281 L 4.675781 15.652344 L 4.632812 15.523438 L 4.527344 15.496094 L 4.5 15.675781 L 4.566406 15.824219 L 4.550781 15.894531 C 4.550781 15.894531 4.554688 16.027344 4.546875 16.042969 C 4.539062 16.058594 4.515625 16.089844 4.515625 16.089844 L 4.511719 16.179688 L 4.808594 16.46875 L 4.941406 16.488281 C 4.941406 16.488281 5.085938 16.710938 5.125 16.742188 C 5.164062 16.769531 5.371094 16.960938 5.402344 17.054688 L 5.421875 17.082031 L 5.667969 16.921875 C 5.667969 16.921875 5.671875 16.984375 5.695312 17.007812 C 5.722656 17.03125 5.992188 17.234375 6.027344 17.25 C 6.058594 17.269531 6.085938 17.351562 6.101562 17.367188 C 6.117188 17.382812 6.292969 17.5 6.300781 17.511719 C 6.3125 17.523438 6.34375 17.710938 6.34375 17.710938 L 6.46875 17.816406 L 6.5625 17.6875 L 6.644531 17.75 L 6.632812 17.960938 L 6.921875 18.152344 L 7.039062 18.136719 C 7.039062 18.136719 7.042969 18.289062 7.0625 18.316406 C 7.085938 18.339844 7.195312 18.355469 7.195312 18.355469 L 7.355469 18.472656 L 7.386719 18.582031 L 7.457031 18.515625 C 7.457031 18.515625 7.558594 18.609375 7.582031 18.613281 C 7.601562 18.617188 7.644531 18.597656 7.6875 18.578125 C 7.726562 18.558594 7.726562 18.566406 7.726562 18.566406 L 7.949219 18.761719 L 8.09375 18.734375 C 8.09375 18.734375 8.179688 18.785156 8.167969 18.785156 C 8.15625 18.785156 8.621094 18.695312 8.621094 18.695312 L 8.710938 18.75 L 8.722656 18.84375 L 8.660156 18.988281 L 8.679688 19.066406 L 8.730469 19.054688 C 8.730469 19.054688 8.894531 18.863281 8.90625 18.863281 C 8.917969 18.855469 9.03125 18.78125 9.039062 18.773438 C 9.050781 18.761719 9.273438 18.660156 9.273438 18.660156 L 9.410156 18.699219 L 9.5625 18.855469 L 9.855469 18.890625 L 10.023438 19.015625 L 10.277344 19.097656 L 11.183594 18.777344 L 12.660156 18.988281 C 12.660156 18.988281 12.710938 18.941406 12.71875 18.921875 C 12.722656 18.90625 12.804688 18.875 12.820312 18.875 C 12.832031 18.871094 12.878906 18.9375 12.925781 18.953125 C 12.976562 18.96875 13.007812 18.988281 13.007812 18.988281 L 13.140625 19.371094 L 13.195312 19.324219 L 13.304688 19.394531 L 13.292969 19.488281 L 13.292969 19.632812 L 13.285156 20.023438 L 13.210938 20.175781 L 13.238281 20.285156 L 13.164062 20.316406 L 13.082031 20.425781 L 13.003906 20.445312 L 12.964844 20.546875 L 12.820312 20.605469 L 12.800781 20.707031 L 12.78125 20.75 L 12.796875 20.804688 C 12.796875 20.804688 12.71875 20.808594 12.707031 20.839844 C 12.691406 20.867188 12.695312 20.960938 12.699219 20.988281 C 12.703125 21.011719 12.738281 21.03125 12.746094 21.0625 C 12.753906 21.097656 12.765625 21.144531 12.75 21.160156 C 12.734375 21.175781 12.695312 21.253906 12.695312 21.253906 L 12.699219 21.277344 L 12.699219 21.324219 C 12.699219 21.324219 12.75 21.3125 12.773438 21.300781 C 12.792969 21.289062 12.894531 21.203125 12.894531 21.203125 L 13.132812 21.203125 L 13.171875 21.234375 L 13.304688 21.214844 L 13.222656 21.332031 C 13.222656 21.332031 13.257812 21.371094 13.269531 21.402344 C 13.285156 21.429688 13.316406 21.65625 13.316406 21.65625 L 13.40625 21.761719 L 13.597656 21.765625 L 13.609375 21.839844 L 13.527344 21.964844 L 13.546875 22.082031 L 13.453125 22.175781 L 13.445312 22.265625 L 13.539062 22.300781 L 13.597656 22.308594 C 13.597656 22.308594 13.820312 22.324219 13.820312 22.347656 C 13.820312 22.375 13.832031 22.425781 13.832031 22.425781 L 13.8125 22.488281 C 13.8125 22.488281 13.925781 22.617188 13.945312 22.679688 C 13.964844 22.738281 14.023438 22.625 14.023438 22.625 L 14.132812 22.664062 L 14.25 22.566406 L 14.363281 22.539062 C 14.363281 22.539062 14.414062 22.589844 14.472656 22.792969 L 14.488281 22.828125 L 14.605469 22.800781 L 14.707031 22.828125 L 14.734375 22.582031 L 14.625 22.289062 L 14.695312 22.136719 C 14.695312 22.136719 14.746094 22.167969 14.84375 22.164062 C 14.941406 22.15625 15.007812 22.097656 15.085938 21.996094 L 15.222656 22.050781 L 15.300781 22.132812 L 15.355469 22.128906 L 15.507812 21.964844 L 15.574219 22.0625 L 15.648438 21.960938 L 15.796875 22.121094 C 15.796875 22.121094 15.839844 22.011719 15.847656 22.011719 C 15.859375 22.007812 15.910156 21.941406 15.910156 21.941406 L 15.980469 22.007812 C 15.980469 22.007812 16.203125 21.90625 16.222656 21.898438 C 16.238281 21.894531 16.234375 21.785156 16.234375 21.785156 L 16.46875 21.644531 C 16.46875 21.644531 16.519531 21.71875 16.570312 21.742188 C 16.625 21.761719 16.761719 21.839844 16.769531 21.851562 C 16.777344 21.867188 16.882812 21.816406 16.882812 21.816406 L 16.96875 21.894531 L 17.050781 21.851562 L 17.191406 21.898438 L 17.191406 21.980469 L 17.101562 22.042969 L 17.113281 22.140625 C 17.113281 22.140625 17.109375 22.125 17.132812 22.160156 C 17.160156 22.195312 17.183594 22.339844 17.183594 22.339844 C 17.183594 22.339844 17.300781 22.367188 17.335938 22.382812 C 17.367188 22.398438 17.394531 22.453125 17.394531 22.453125 C 17.394531 22.453125 17.566406 22.515625 17.574219 22.523438 C 17.585938 22.527344 17.714844 22.496094 17.738281 22.492188 C 17.765625 22.488281 17.820312 22.539062 17.820312 22.539062 L 17.90625 22.519531 L 17.972656 22.523438 C 17.972656 22.523438 17.976562 22.453125 17.988281 22.457031 C 18 22.460938 18.066406 22.441406 18.066406 22.441406 L 18.070312 22.335938 L 18.128906 22.316406 L 18.144531 22.398438 L 18.207031 22.476562 L 18.246094 22.445312 L 18.289062 22.46875 L 18.382812 22.492188 L 18.398438 22.585938 L 18.445312 22.550781 L 18.523438 22.53125 L 18.582031 22.503906 L 18.570312 22.457031 L 18.570312 22.421875 L 18.589844 22.425781 L 18.660156 22.503906 L 18.796875 22.527344 L 18.703125 22.710938 L 18.695312 22.78125 L 18.691406 22.871094 L 18.746094 22.894531 Z M 18.78125 23.003906 " fill-opacity="1" fill-rule="nonzero"/></g></svg>