<svg xmlns="http://www.w3.org/2000/svg" xmlns:xlink="http://www.w3.org/1999/xlink" width="40" zoomAndPan="magnify" viewBox="0 0 30 30.000001" height="40" preserveAspectRatio="xMidYMid meet" version="1.0"><defs><clipPath id="3f3b047a98"><path d="M 6.378906 2.910156 L 23.617188 2.910156 L 23.617188 26.121094 L 6.378906 26.121094 Z M 6.378906 2.910156 " clip-rule="nonzero"/></clipPath></defs><g clip-path="url(#3f3b047a98)"><path fill="#014d4e" d="M 23.617188 16.800781 L 23.433594 17.117188 C 23.296875 16.984375 23.160156 16.867188 23.121094 16.894531 C 23.039062 16.957031 22.527344 17.601562 22.527344 17.601562 L 22.042969 17.121094 L 21.96875 17.640625 L 19.753906 17.640625 L 19.710938 18.527344 L 20.449219 18.59375 L 20.808594 19.015625 L 20.585938 19.1875 L 20.136719 18.910156 L 19.914062 19.125 L 19.367188 19.167969 L 19.296875 20.285156 L 20.113281 20.761719 L 20.171875 21.3125 L 20.472656 21.6875 L 20.488281 21.878906 L 20.25 22.179688 L 20.214844 22.785156 L 20.277344 22.992188 L 20.0625 23.300781 L 20.078125 24.035156 L 19.949219 24.226562 L 19.890625 25.246094 L 19.726562 25.625 C 19.726562 25.625 19.75 25.957031 19.753906 26 C 19.761719 26.042969 19.296875 26.121094 19.296875 26.121094 L 19.390625 25.78125 L 19.191406 25.484375 L 18.617188 25.464844 L 18.589844 25.285156 L 19.496094 23.917969 L 18.75 23.601562 L 18.300781 23.277344 L 17.679688 23.476562 L 17.164062 23.285156 L 16.453125 23.746094 L 15.996094 23.65625 L 15.171875 23.859375 L 15.105469 23.007812 L 14.570312 22.910156 L 14.550781 22.328125 L 13.476562 21.847656 L 13.160156 21.292969 L 12.109375 20.632812 L 11.46875 20.910156 L 10.828125 20.195312 L 10.398438 20.109375 L 10.195312 20.351562 L 9.578125 20.351562 L 9.40625 20.28125 L 8.789062 20.28125 L 8.660156 19.792969 L 7.28125 19.316406 L 6.703125 18.96875 L 6.378906 18.773438 L 6.679688 18.269531 L 7.082031 18.269531 L 6.878906 17.953125 L 7.222656 17.394531 L 8.070312 17.121094 L 9.074219 15.5 L 8.660156 15.027344 L 8.847656 14.421875 L 8.457031 13.046875 C 8.457031 13.046875 8.730469 12.714844 8.847656 12.578125 C 8.960938 12.4375 8.589844 12.34375 8.589844 12.34375 L 8.816406 11.625 L 8.414062 11.28125 L 8.070312 10.878906 L 8.1875 10.046875 C 8.1875 10.046875 8.488281 10.21875 8.546875 10.234375 C 8.601562 10.246094 8.945312 9.5 8.945312 9.5 L 8.546875 9.082031 L 8.546875 8.667969 L 9.019531 9.027344 L 9.148438 9.328125 L 9.707031 9.714844 L 9.605469 9.199219 L 9.390625 8.609375 L 10.082031 8.324219 L 10.753906 7.40625 C 10.753906 7.40625 11.285156 7.460938 11.273438 7.40625 C 11.257812 7.347656 11.273438 6.429688 11.273438 6.429688 L 11.445312 5.855469 L 12.132812 5.265625 L 12.722656 5.117188 L 12.835938 5.394531 L 13.132812 5.480469 L 13.253906 5.085938 L 13.597656 4.621094 L 14.078125 4.75 L 14.765625 4.640625 L 16.152344 3.679688 L 16.308594 3.414062 L 16.640625 3.226562 C 16.640625 3.226562 17.015625 2.933594 17.042969 2.910156 C 17.070312 2.890625 17.722656 3.277344 17.832031 3.3125 C 17.9375 3.347656 17.523438 3.789062 17.492188 3.851562 C 17.464844 3.917969 16.703125 4.097656 16.703125 4.097656 L 16.410156 4.449219 L 16.074219 4.765625 L 15.851562 4.828125 L 15.140625 5.90625 L 15.070312 6.738281 C 15.070312 6.738281 14.472656 7.597656 14.457031 7.628906 C 14.445312 7.65625 15.003906 7.46875 15.003906 7.46875 L 15.476562 7.792969 L 15.484375 8.371094 L 16.085938 8.824219 L 15.699219 9.292969 C 15.699219 9.292969 15.78125 9.832031 15.816406 9.824219 C 15.851562 9.816406 16.253906 9.886719 16.253906 9.886719 C 16.253906 9.886719 16.503906 10.417969 16.527344 10.417969 C 16.546875 10.417969 17.179688 10.289062 17.179688 10.289062 L 17.875 10.417969 C 17.875 10.417969 18.082031 10.175781 18.105469 10.175781 C 18.125 10.175781 18.699219 10.289062 18.699219 10.289062 L 19.339844 10.375 C 19.339844 10.375 20.375 11.609375 20.402344 11.609375 C 20.421875 11.601562 21.039062 11.265625 21.039062 11.265625 L 21.664062 11.421875 L 22.125 11.238281 L 22.5625 11.25 L 22.890625 11.121094 L 23.191406 11.683594 L 22.890625 11.875 L 22.878906 12.269531 L 22.390625 12.679688 L 22.589844 13.855469 L 23.199219 15.121094 L 22.589844 16.046875 L 23.617188 16.800781 " fill-opacity="1" fill-rule="nonzero"/></g></svg>