<svg xmlns="http://www.w3.org/2000/svg" xmlns:xlink="http://www.w3.org/1999/xlink" width="40" zoomAndPan="magnify" viewBox="0 0 30 30.000001" height="40" preserveAspectRatio="xMidYMid meet" version="1.0"><defs><clipPath id="d88d7d3448"><path d="M 3.386719 3.425781 L 26.613281 3.425781 L 26.613281 25.925781 L 3.386719 25.925781 Z M 3.386719 3.425781 " clip-rule="nonzero"/></clipPath></defs><g clip-path="url(#d88d7d3448)"><path fill="#014d4e" d="M 5.394531 3.941406 C 5.3125 4.082031 5.1875 4.242188 5.144531 4.402344 C 5.113281 4.53125 5.382812 4.585938 5.230469 4.730469 C 5.042969 4.890625 4.886719 4.5 4.742188 4.761719 C 4.683594 4.867188 4.824219 4.929688 4.898438 4.984375 C 4.980469 5.042969 5.097656 5.105469 5.144531 5.199219 C 5.183594 5.273438 5.046875 5.273438 5.003906 5.300781 C 4.925781 5.351562 5.050781 5.382812 5.019531 5.460938 C 5.011719 5.476562 5.003906 5.488281 4.996094 5.503906 C 4.988281 5.503906 4.792969 5.425781 4.765625 5.425781 C 4.691406 5.417969 4.535156 5.398438 4.476562 5.457031 C 4.394531 5.539062 4.5 5.523438 4.484375 5.585938 C 4.453125 5.699219 4.335938 5.484375 4.332031 5.441406 C 4.332031 5.347656 4.105469 5.351562 4.054688 5.347656 C 3.851562 5.332031 3.851562 5.332031 3.917969 5.40625 C 3.988281 5.484375 3.984375 5.484375 3.855469 5.539062 C 3.785156 5.566406 3.386719 5.65625 3.386719 5.75 C 3.386719 5.675781 3.859375 5.84375 3.910156 5.878906 C 3.976562 5.917969 4.023438 5.996094 4.097656 6.019531 C 4.132812 6.03125 4.472656 6.058594 4.457031 6.09375 C 4.441406 6.101562 4.425781 6.109375 4.414062 6.117188 C 4.386719 6.125 4.378906 6.164062 4.394531 6.207031 C 4.460938 6.414062 4.800781 6.300781 4.953125 6.328125 C 5.148438 6.363281 5.296875 6.4375 5.335938 6.652344 C 5.347656 6.722656 5.410156 7.285156 5.320312 7.285156 C 5.265625 7.285156 5.0625 7.683594 5.089844 7.714844 C 5.203125 7.824219 5.351562 7.421875 5.519531 7.527344 C 5.648438 7.605469 5.269531 7.765625 5.25 7.78125 C 5.222656 7.800781 5.046875 8.050781 5.054688 8.050781 C 4.933594 8.027344 4.824219 8.203125 4.714844 8.203125 C 4.691406 8.183594 4.671875 8.164062 4.652344 8.140625 C 4.582031 8.109375 4.492188 8.199219 4.453125 8.238281 C 4.335938 8.355469 4.34375 8.476562 4.453125 8.59375 C 4.46875 8.609375 4.597656 8.855469 4.472656 8.808594 C 4.394531 8.773438 4.414062 8.953125 4.410156 8.976562 C 4.386719 9.109375 4.320312 9.039062 4.238281 9.070312 C 4.191406 9.085938 3.9375 9.355469 3.90625 9.417969 C 3.847656 9.515625 3.996094 9.566406 4.046875 9.621094 C 4.140625 9.726562 4.101562 9.785156 4.050781 9.890625 C 3.984375 10.039062 4.085938 10.304688 4.117188 10.457031 C 4.148438 10.582031 4.226562 10.675781 4.285156 10.789062 C 4.394531 11.011719 4.441406 11.257812 4.605469 11.453125 C 4.726562 11.601562 4.804688 11.761719 4.945312 11.902344 C 5.09375 12.054688 5.300781 12.28125 5.300781 12.511719 C 5.300781 12.53125 5.375 12.734375 5.421875 12.609375 C 5.433594 12.574219 5.644531 12.695312 5.691406 12.695312 C 5.898438 12.695312 6.117188 12.800781 6.339844 12.800781 C 6.382812 12.8125 6.351562 12.886719 6.382812 12.898438 C 6.472656 12.925781 6.476562 12.828125 6.585938 12.917969 C 6.722656 13.03125 6.769531 12.839844 6.9375 12.929688 C 7.058594 12.992188 7.207031 12.976562 7.339844 13.027344 C 7.476562 13.082031 7.570312 13.1875 7.703125 13.238281 C 7.898438 13.3125 7.945312 13.433594 8.046875 13.585938 C 8.175781 13.78125 8.351562 13.925781 8.476562 14.132812 C 8.574219 14.296875 8.71875 14.414062 8.824219 14.566406 C 8.875 14.644531 8.859375 14.695312 8.886719 14.785156 C 8.929688 14.90625 9.03125 14.867188 9.082031 14.960938 C 9.175781 15.128906 9.375 14.535156 9.386719 14.496094 C 9.492188 14.21875 9.699219 14.226562 9.867188 14.035156 C 9.957031 13.917969 9.695312 13.890625 9.847656 13.746094 C 9.921875 13.667969 10.277344 13.941406 10.21875 13.722656 C 10.210938 13.6875 10.460938 13.355469 10.5 13.355469 C 10.535156 13.355469 10.738281 13.199219 10.761719 13.171875 C 10.777344 13.152344 10.796875 13.132812 10.8125 13.109375 C 10.78125 13.105469 10.753906 13.09375 10.722656 13.085938 C 10.722656 13.078125 10.789062 12.953125 10.753906 12.953125 C 10.652344 12.953125 10.667969 13.082031 10.542969 13.085938 C 10.386719 13.097656 10.351562 13.046875 10.453125 12.976562 L 10.53125 12.921875 L 10.4375 12.859375 C 10.222656 12.71875 10.574219 12.554688 10.332031 12.402344 C 10.167969 12.308594 9.953125 12.390625 9.789062 12.300781 C 9.660156 12.230469 9.613281 12.109375 9.53125 12.011719 C 9.480469 11.953125 9.324219 11.941406 9.296875 11.992188 C 9.265625 12.039062 9.371094 12.117188 9.429688 12.082031 C 9.476562 12.058594 9.402344 12.167969 9.335938 12.113281 C 9.269531 12.058594 9.136719 12.148438 9.105469 12.054688 C 9.066406 11.9375 8.816406 11.867188 8.742188 11.746094 C 8.691406 11.65625 8.789062 11.738281 8.816406 11.714844 C 8.832031 11.703125 8.84375 11.582031 8.796875 11.609375 C 8.726562 11.644531 8.46875 11.351562 8.402344 11.316406 C 8.191406 11.214844 8.324219 11.074219 8.242188 10.929688 C 8.199219 10.839844 8.261719 10.492188 8.285156 10.550781 C 8.351562 10.730469 8.582031 10.753906 8.742188 10.792969 C 8.875 10.824219 9.089844 10.703125 9.175781 10.785156 C 9.210938 10.816406 9.445312 11.105469 9.511719 11 C 9.566406 10.917969 9.871094 11.214844 9.910156 11.242188 C 9.941406 11.265625 10.0625 11.300781 10.085938 11.335938 C 10.117188 11.394531 10.050781 11.515625 10.160156 11.515625 C 10.238281 11.515625 10.34375 11.65625 10.421875 11.703125 C 10.578125 11.796875 10.753906 11.894531 10.890625 12.023438 C 10.953125 12.082031 10.878906 12.109375 10.898438 12.132812 C 10.9375 12.1875 11.738281 12.09375 11.648438 12.246094 C 11.59375 12.355469 11.863281 12.449219 11.796875 12.570312 C 11.695312 12.746094 11.765625 12.691406 11.886719 12.851562 C 11.945312 12.921875 12.3125 13.4375 12.363281 13.410156 C 12.394531 13.394531 12.355469 13.675781 12.34375 13.707031 C 12.265625 13.882812 12.085938 13.960938 12.085938 14.191406 C 12.082031 14.359375 12.105469 14.289062 12.195312 14.367188 C 12.285156 14.441406 12.105469 14.464844 12.082031 14.5 C 12.175781 14.363281 12.875 15.25 12.976562 15.109375 C 12.964844 15.121094 12.976562 15.164062 13.007812 15.195312 C 13.089844 15.289062 13.234375 15.21875 13.335938 15.214844 C 13.488281 15.207031 13.65625 15.222656 13.796875 15.277344 C 13.988281 15.351562 14.183594 15.394531 14.386719 15.433594 C 14.601562 15.464844 14.875 15.484375 15.015625 15.59375 C 15.140625 15.691406 15.296875 15.675781 15.417969 15.761719 C 15.476562 15.804688 15.527344 15.871094 15.542969 15.945312 C 15.550781 15.96875 15.503906 16.101562 15.507812 16.105469 C 15.515625 16.117188 15.734375 16.21875 15.75 16.214844 C 15.804688 16.199219 15.910156 16.253906 15.96875 16.265625 C 16.265625 16.316406 16.566406 16.480469 16.835938 16.613281 C 17.132812 16.761719 17.449219 16.933594 17.671875 17.1875 C 17.746094 17.269531 17.753906 17.339844 17.867188 17.375 C 18 17.410156 18.15625 17.484375 18.261719 17.578125 C 18.304688 17.617188 18.320312 17.878906 18.359375 17.878906 C 18.417969 17.878906 18.375 17.789062 18.433594 17.800781 C 18.492188 17.816406 18.550781 17.890625 18.59375 17.933594 C 18.695312 18.042969 18.789062 18.160156 18.878906 18.277344 C 18.941406 18.363281 19.128906 18.433594 19.128906 18.53125 C 19.125 18.757812 19.164062 18.996094 19.207031 19.214844 C 19.222656 19.277344 19.285156 19.59375 19.324219 19.570312 C 19.300781 19.578125 19.273438 19.640625 19.261719 19.695312 C 19.222656 19.851562 19.390625 19.753906 19.46875 19.851562 C 19.53125 19.933594 19.144531 20.203125 19.050781 20.285156 C 19.070312 20.304688 19.230469 20.429688 19.210938 20.449219 C 19.085938 20.550781 19.136719 20.503906 19.117188 20.683594 C 19.113281 20.746094 19.0625 20.960938 18.996094 20.96875 C 18.722656 21 18.363281 21.34375 18.5 21.652344 C 18.554688 21.769531 18.59375 21.730469 18.679688 21.785156 C 18.824219 21.875 18.941406 22.011719 19.058594 22.128906 C 19.203125 22.269531 19.511719 22.710938 19.722656 22.726562 C 19.910156 22.742188 20.09375 22.699219 20.28125 22.726562 C 20.507812 22.757812 20.699219 22.847656 20.90625 22.9375 C 21.011719 22.984375 21.671875 23.339844 21.644531 23.03125 C 21.628906 22.933594 21.710938 22.855469 21.664062 22.757812 C 21.609375 22.65625 21.738281 22.582031 21.691406 22.492188 C 21.648438 22.414062 21.535156 22.027344 21.546875 22.023438 C 21.453125 22.050781 21.34375 21.871094 21.273438 21.828125 C 21.140625 21.742188 20.980469 21.746094 20.851562 21.660156 C 20.605469 21.496094 20.625 21.230469 20.429688 21.03125 C 20.230469 20.835938 20.25 20.773438 20.496094 20.835938 C 20.699219 20.882812 20.832031 20.691406 21.035156 20.730469 C 21.136719 20.75 21.269531 20.773438 21.273438 20.902344 C 21.285156 21.109375 21.277344 21.074219 21.429688 21.199219 C 21.535156 21.28125 21.691406 21.238281 21.777344 21.320312 C 21.800781 21.339844 21.867188 21.488281 21.910156 21.46875 C 21.953125 21.445312 21.980469 21.328125 22.035156 21.410156 C 22.078125 21.476562 22.160156 21.46875 22.222656 21.492188 C 22.300781 21.523438 22.265625 21.574219 22.296875 21.636719 C 22.320312 21.683594 22.59375 22.003906 22.585938 22.015625 C 22.554688 22.015625 22.527344 22.011719 22.5 22.007812 C 22.492188 22.039062 22.5 22.066406 22.523438 22.097656 C 22.664062 22.476562 23.046875 22.59375 22.636719 22.980469 C 22.320312 23.277344 22.828125 23.511719 23.050781 23.664062 C 23.363281 23.871094 23.652344 24.03125 23.855469 24.355469 C 23.953125 24.515625 24.25 24.960938 24.191406 25.167969 C 24.164062 25.230469 24.097656 25.234375 24.097656 25.308594 C 24.097656 25.34375 24.207031 25.578125 24.265625 25.527344 C 24.347656 25.417969 24.328125 25.101562 24.304688 24.972656 C 24.285156 24.839844 24.246094 24.421875 24.136719 24.347656 C 23.988281 24.234375 24.101562 23.960938 23.9375 23.847656 C 23.851562 23.789062 23.742188 23.820312 23.648438 23.78125 C 23.546875 23.738281 23.460938 23.648438 23.363281 23.59375 C 23.066406 23.425781 23.414062 23.34375 23.558594 23.253906 C 23.753906 23.136719 23.859375 22.875 24.066406 22.789062 C 24.257812 22.710938 24.433594 22.777344 24.582031 22.582031 C 24.734375 22.382812 24.609375 22.046875 24.753906 21.882812 C 24.824219 21.789062 24.765625 21.417969 24.710938 21.308594 C 24.671875 21.230469 24.539062 21.105469 24.539062 21.011719 C 24.539062 20.902344 24.28125 20.878906 24.28125 20.765625 C 24.28125 20.691406 24.183594 20.632812 24.171875 20.546875 C 24.164062 20.449219 24.234375 20.445312 24.300781 20.394531 C 24.351562 20.355469 24.519531 20.25 24.488281 20.167969 C 24.449219 20.066406 24.371094 20.035156 24.464844 19.941406 C 24.578125 19.832031 24.878906 19.773438 25.027344 19.726562 C 25.195312 19.671875 25.390625 19.492188 25.511719 19.355469 C 25.59375 19.269531 25.425781 19.046875 25.367188 18.964844 C 25.246094 18.792969 25.019531 18.800781 24.871094 18.671875 C 24.726562 18.546875 24.503906 18.460938 24.410156 18.285156 C 24.289062 18.054688 24.132812 18.367188 24.042969 18.277344 C 23.960938 18.113281 24.03125 17.730469 24.027344 17.554688 C 24.023438 17.289062 24.023438 17.023438 24.019531 16.753906 C 24.015625 16.351562 24.011719 15.949219 24.007812 15.546875 C 24.164062 15.507812 24.539062 15.5 24.632812 15.367188 C 24.671875 15.308594 24.417969 15.238281 24.453125 15.109375 C 24.476562 14.984375 24.40625 15.039062 24.378906 14.949219 C 24.351562 14.855469 24.429688 14.738281 24.480469 14.671875 C 24.527344 14.605469 24.589844 14.550781 24.675781 14.589844 C 24.808594 14.648438 24.894531 14.65625 25.027344 14.695312 C 25.15625 14.730469 25.34375 14.878906 25.40625 14.992188 C 25.449219 15.066406 25.527344 15.035156 25.566406 15.09375 C 25.605469 15.144531 25.570312 15.269531 25.640625 15.296875 C 25.734375 15.332031 25.890625 15.285156 25.960938 15.375 C 26.011719 15.441406 26.09375 15.363281 26.160156 15.371094 C 26.234375 15.382812 26.3125 15.210938 26.296875 15.0625 C 26.265625 14.777344 26.53125 15.101562 26.578125 15.078125 C 26.597656 15.042969 26.601562 15.003906 26.582031 14.964844 C 26.546875 14.824219 26.363281 14.808594 26.273438 14.71875 C 26.195312 14.636719 26.167969 14.425781 26.035156 14.417969 C 25.769531 14.410156 25.546875 14.390625 25.296875 14.316406 C 25.117188 14.265625 24.6875 14.019531 24.835938 13.757812 C 24.886719 13.660156 24.617188 13.738281 24.539062 13.664062 C 24.339844 13.472656 24.179688 13.234375 24.015625 13.011719 C 23.847656 12.789062 23.660156 12.574219 23.5 12.34375 C 23.433594 12.25 23.382812 11.949219 23.320312 11.894531 C 23.171875 11.78125 23.085938 11.875 22.941406 11.890625 C 22.828125 11.90625 22.722656 11.734375 22.667969 11.664062 C 22.558594 11.523438 22.449219 11.3125 22.296875 11.214844 C 22.1875 11.144531 22.167969 10.992188 22.046875 10.921875 C 21.988281 10.886719 21.976562 10.800781 21.933594 10.730469 C 21.84375 10.59375 21.734375 10.484375 21.628906 10.363281 C 21.34375 10.027344 21.066406 9.664062 20.808594 9.308594 C 20.285156 8.59375 20.050781 7.742188 19.640625 6.96875 C 19.546875 6.792969 19.554688 6.558594 19.5 6.355469 C 19.417969 6.046875 19.242188 5.484375 18.886719 5.398438 C 18.730469 5.363281 18.855469 5.503906 18.875 5.554688 C 18.925781 5.675781 18.9375 5.816406 18.953125 5.941406 C 18.964844 6.078125 19.03125 6.277344 18.90625 6.378906 C 18.816406 6.453125 18.695312 6.40625 18.589844 6.441406 C 18.480469 6.476562 18.371094 6.550781 18.25 6.550781 C 18.019531 6.550781 17.808594 6.847656 17.589844 6.894531 C 17.328125 6.953125 17.171875 6.988281 16.945312 6.828125 C 16.824219 6.746094 16.621094 6.339844 16.445312 6.441406 C 16.265625 6.546875 15.980469 6.648438 15.828125 6.457031 C 15.769531 6.382812 15.539062 6.445312 15.464844 6.445312 C 15.324219 6.449219 15.28125 6.378906 15.175781 6.304688 C 15.15625 6.289062 15.140625 6.273438 15.125 6.257812 C 15.152344 6.234375 15.179688 6.210938 15.203125 6.179688 C 15.238281 6.117188 15.238281 6.027344 15.226562 5.960938 C 15.207031 5.839844 14.976562 5.742188 14.867188 5.742188 C 14.777344 5.742188 14.738281 5.621094 14.667969 5.582031 C 14.597656 5.539062 14.515625 5.578125 14.460938 5.503906 C 14.359375 5.367188 14.421875 5.183594 14.332031 5.058594 C 14.285156 5 14.261719 4.996094 14.210938 5.035156 C 14.128906 5.089844 13.9375 5.132812 13.894531 5.222656 C 13.773438 5.410156 13.484375 5.039062 13.398438 4.976562 C 13.261719 4.875 12.917969 4.828125 12.839844 4.671875 C 12.796875 4.585938 12.542969 4.671875 12.433594 4.609375 C 12.289062 4.53125 12.15625 4.375 11.996094 4.460938 C 11.480469 4.746094 10.980469 5.0625 10.476562 5.363281 C 9.539062 4.964844 8.585938 4.625 7.65625 4.203125 C 7.339844 4.054688 6.984375 4.0625 6.652344 3.949219 C 6.472656 3.886719 6.339844 3.839844 6.226562 3.6875 C 6.089844 3.5 5.898438 3.480469 5.6875 3.453125 L 5.394531 3.941406 C 5.117188 4.414062 5.394531 3.941406 5.394531 3.941406 Z M 5.394531 3.941406 " fill-opacity="1" fill-rule="nonzero"/></g></svg>