<svg xmlns="http://www.w3.org/2000/svg" xmlns:xlink="http://www.w3.org/1999/xlink" width="40" zoomAndPan="magnify" viewBox="0 0 30 30.000001" height="40" preserveAspectRatio="xMidYMid meet" version="1.0"><defs><clipPath id="12813def0b"><path d="M 8 24 L 10 24 L 10 24.878906 L 8 24.878906 Z M 8 24 " clip-rule="nonzero"/></clipPath><clipPath id="16048d8b8e"><path d="M 10 23 L 13 23 L 13 24.878906 L 10 24.878906 Z M 10 23 " clip-rule="nonzero"/></clipPath><clipPath id="f715b945f8"><path d="M 16 20 L 20 20 L 20 24.878906 L 16 24.878906 Z M 16 20 " clip-rule="nonzero"/></clipPath><clipPath id="3b5ecc3121"><path d="M 24 12 L 26.613281 12 L 26.613281 15 L 24 15 Z M 24 12 " clip-rule="nonzero"/></clipPath><clipPath id="9f32995367"><path d="M 3.386719 3.832031 L 7 3.832031 L 7 7 L 3.386719 7 Z M 3.386719 3.832031 " clip-rule="nonzero"/></clipPath></defs><g clip-path="url(#12813def0b)"><path fill="#014d4e" d="M 9.269531 24.566406 C 9.253906 24.5 9.277344 24.398438 9.207031 24.359375 C 9.144531 24.328125 9.109375 24.386719 9.046875 24.402344 C 8.972656 24.425781 8.894531 24.382812 8.851562 24.464844 C 8.8125 24.523438 8.851562 24.5625 8.78125 24.605469 C 8.730469 24.632812 8.675781 24.636719 8.648438 24.671875 C 8.683594 24.714844 8.714844 24.761719 8.753906 24.800781 C 8.714844 24.855469 8.675781 24.90625 8.65625 24.96875 C 8.6875 24.980469 8.710938 24.960938 8.730469 24.964844 C 8.753906 24.96875 8.765625 24.988281 8.78125 24.992188 C 8.820312 25.007812 8.847656 25.050781 8.882812 25.074219 C 8.957031 25.117188 9.007812 25.1875 9.097656 25.175781 C 9.238281 25.160156 9.378906 24.953125 9.363281 24.8125 C 9.351562 24.726562 9.292969 24.648438 9.269531 24.566406 Z M 9.269531 24.566406 " fill-opacity="1" fill-rule="nonzero"/></g><g clip-path="url(#16048d8b8e)"><path fill="#014d4e" d="M 12.621094 24.34375 C 12.617188 24.261719 12.664062 24.179688 12.648438 24.105469 C 12.644531 24.070312 12.605469 24.035156 12.59375 24.007812 C 12.582031 23.960938 12.589844 23.925781 12.601562 23.875 C 12.628906 23.75 12.617188 23.652344 12.523438 23.554688 C 12.4375 23.457031 12.523438 23.414062 12.496094 23.292969 C 12.464844 23.125 12.222656 23.03125 12.066406 23.035156 C 11.96875 23.042969 11.875 23.070312 11.777344 23.085938 C 11.746094 23.089844 11.675781 23.089844 11.648438 23.113281 C 11.625 23.132812 11.628906 23.1875 11.609375 23.207031 C 11.582031 23.222656 11.511719 23.1875 11.476562 23.199219 C 11.445312 23.207031 11.402344 23.226562 11.375 23.25 C 11.304688 23.308594 11.25 23.359375 11.167969 23.40625 C 11.101562 23.449219 11.046875 23.503906 10.992188 23.554688 C 10.921875 23.621094 10.921875 23.664062 10.898438 23.75 C 10.871094 23.851562 10.730469 23.914062 10.730469 24.035156 C 10.757812 24.078125 10.792969 24.121094 10.820312 24.164062 C 10.773438 24.25 10.757812 24.359375 10.824219 24.425781 C 10.878906 24.472656 10.910156 24.496094 10.953125 24.574219 C 10.992188 24.632812 11.046875 24.6875 11.0625 24.757812 C 11.113281 24.769531 11.15625 24.761719 11.199219 24.78125 C 11.347656 24.828125 11.394531 25.023438 11.539062 25.085938 C 11.628906 25.121094 11.777344 25.089844 11.875 25.050781 C 11.941406 25.023438 11.953125 25.003906 12.015625 25.023438 C 12.078125 25.042969 12.125 25.101562 12.1875 25.074219 C 12.25 25.046875 12.320312 24.90625 12.382812 24.855469 C 12.457031 24.789062 12.660156 24.714844 12.671875 24.605469 C 12.675781 24.5625 12.648438 24.546875 12.632812 24.507812 C 12.628906 24.453125 12.621094 24.402344 12.621094 24.34375 Z M 12.621094 24.34375 " fill-opacity="1" fill-rule="nonzero"/></g><g clip-path="url(#f715b945f8)"><path fill="#014d4e" d="M 19.824219 23.386719 C 19.878906 23.332031 19.855469 23.242188 19.839844 23.171875 C 19.828125 23.125 19.847656 23.105469 19.796875 23.078125 C 19.769531 23.0625 19.726562 23.078125 19.710938 23.070312 C 19.644531 23.03125 19.683594 22.964844 19.65625 22.898438 C 19.621094 22.828125 19.542969 22.765625 19.488281 22.714844 C 19.386719 22.621094 19.378906 22.492188 19.28125 22.394531 C 19.269531 22.382812 19.246094 22.394531 19.234375 22.382812 C 19.226562 22.371094 19.242188 22.34375 19.230469 22.332031 C 19.207031 22.316406 19.203125 22.3125 19.175781 22.296875 C 19.121094 22.273438 19.089844 22.300781 19.050781 22.25 C 19 22.191406 19.039062 22.171875 18.953125 22.144531 C 18.898438 22.125 18.84375 22.136719 18.792969 22.117188 C 18.773438 22.042969 18.785156 21.972656 18.734375 21.914062 C 18.707031 21.882812 18.675781 21.859375 18.660156 21.828125 C 18.625 21.777344 18.621094 21.710938 18.585938 21.65625 C 18.550781 21.597656 18.472656 21.5 18.40625 21.46875 C 18.332031 21.433594 18.265625 21.5 18.222656 21.421875 C 18.179688 21.347656 18.226562 21.335938 18.128906 21.296875 C 18.070312 21.277344 18.003906 21.25 17.945312 21.238281 C 17.847656 21.222656 17.839844 21.242188 17.824219 21.144531 C 17.8125 21.074219 17.804688 21.027344 17.777344 20.960938 C 17.75 20.890625 17.730469 20.863281 17.75 20.796875 C 17.765625 20.742188 17.792969 20.675781 17.808594 20.628906 C 17.75 20.605469 17.6875 20.550781 17.628906 20.535156 C 17.546875 20.515625 17.546875 20.550781 17.507812 20.628906 C 17.445312 20.574219 17.34375 20.488281 17.257812 20.464844 C 17.210938 20.523438 17.121094 20.558594 17.132812 20.644531 C 17.144531 20.714844 17.203125 20.757812 17.191406 20.824219 C 17.175781 20.890625 17.105469 20.9375 17.121094 21.019531 C 17.132812 21.085938 17.214844 21.136719 17.246094 21.160156 C 17.273438 21.199219 17.300781 21.238281 17.328125 21.269531 C 17.324219 21.289062 17.316406 21.304688 17.3125 21.316406 C 17.273438 21.390625 17.257812 21.441406 17.238281 21.523438 C 17.21875 21.574219 17.1875 21.625 17.183594 21.683594 C 17.175781 21.730469 17.1875 21.757812 17.171875 21.800781 C 17.132812 21.890625 17.035156 21.941406 17.058594 22.054688 C 17.066406 22.132812 17.136719 22.21875 17.15625 22.296875 C 17.160156 22.328125 17.199219 22.410156 17.183594 22.4375 C 17.164062 22.476562 17.121094 22.476562 17.09375 22.503906 C 17.058594 22.550781 17.074219 22.601562 17.0625 22.65625 C 17.046875 22.742188 16.992188 22.8125 16.96875 22.898438 C 17.011719 22.917969 17.050781 22.921875 17.09375 22.90625 C 17.136719 22.980469 17.164062 23.070312 17.203125 23.144531 C 17.226562 23.195312 17.230469 23.242188 17.289062 23.222656 C 17.324219 23.207031 17.308594 23.160156 17.34375 23.140625 C 17.421875 23.222656 17.472656 23.339844 17.550781 23.414062 C 17.496094 23.445312 17.394531 23.464844 17.410156 23.539062 C 17.421875 23.59375 17.585938 23.683594 17.632812 23.738281 C 17.667969 23.777344 17.703125 23.832031 17.75 23.851562 C 17.792969 23.875 17.8125 23.859375 17.851562 23.871094 C 17.949219 23.902344 17.964844 24.015625 18.042969 24.070312 C 18.085938 24.097656 18.183594 24.125 18.238281 24.121094 C 18.304688 24.121094 18.324219 24.082031 18.378906 24.09375 C 18.460938 24.113281 18.484375 24.207031 18.578125 24.222656 C 18.632812 24.234375 18.71875 24.25 18.773438 24.25 C 18.820312 24.25 18.875 24.21875 18.929688 24.21875 C 19.011719 24.214844 19.082031 24.257812 19.164062 24.261719 C 19.285156 24.273438 19.378906 24.132812 19.464844 24.054688 C 19.515625 24.011719 19.558594 23.960938 19.613281 23.917969 C 19.640625 23.898438 19.765625 23.851562 19.765625 23.828125 C 19.769531 23.777344 19.683594 23.777344 19.710938 23.71875 C 19.714844 23.707031 19.792969 23.652344 19.8125 23.640625 C 19.902344 23.597656 19.980469 23.671875 19.980469 23.542969 C 19.960938 23.421875 19.910156 23.449219 19.824219 23.386719 Z M 19.824219 23.386719 " fill-opacity="1" fill-rule="nonzero"/></g><path fill="#014d4e" d="M 22.914062 21.703125 C 22.925781 21.574219 22.800781 21.441406 22.792969 21.304688 C 22.792969 21.1875 22.816406 21.03125 22.777344 20.921875 C 22.761719 20.875 22.726562 20.851562 22.695312 20.808594 C 22.664062 20.765625 22.65625 20.703125 22.621094 20.671875 C 22.570312 20.683594 22.554688 20.738281 22.503906 20.753906 C 22.421875 20.667969 22.351562 20.671875 22.25 20.632812 C 22.179688 20.605469 22.160156 20.605469 22.113281 20.667969 C 22.085938 20.699219 22.105469 20.714844 22.0625 20.726562 C 22.042969 20.730469 22.015625 20.703125 21.992188 20.710938 C 21.90625 20.726562 21.890625 20.882812 21.835938 20.949219 C 21.765625 21.03125 21.699219 20.945312 21.671875 21.089844 C 21.660156 21.152344 21.648438 21.179688 21.6875 21.210938 C 21.71875 21.238281 21.765625 21.210938 21.792969 21.265625 C 21.796875 21.277344 21.808594 21.316406 21.824219 21.351562 C 21.78125 21.402344 21.738281 21.476562 21.710938 21.511719 C 21.644531 21.597656 21.664062 21.65625 21.664062 21.75 C 21.664062 21.84375 21.628906 21.910156 21.589844 21.988281 C 21.539062 22.097656 21.589844 22.109375 21.671875 22.179688 C 21.726562 22.230469 21.785156 22.351562 21.851562 22.378906 C 21.910156 22.402344 21.925781 22.359375 21.992188 22.371094 C 22.113281 22.386719 22.179688 22.523438 22.296875 22.441406 C 22.386719 22.378906 22.460938 22.1875 22.582031 22.3125 C 22.65625 22.191406 22.828125 22.136719 22.855469 21.988281 C 22.863281 21.941406 22.84375 21.898438 22.847656 21.855469 C 22.859375 21.800781 22.914062 21.75 22.914062 21.703125 Z M 22.914062 21.703125 " fill-opacity="1" fill-rule="nonzero"/><g clip-path="url(#3b5ecc3121)"><path fill="#014d4e" d="M 26.53125 13.527344 C 26.570312 13.480469 26.613281 13.492188 26.582031 13.414062 C 26.5625 13.371094 26.503906 13.3125 26.472656 13.273438 C 26.410156 13.195312 26.265625 13.082031 26.230469 12.996094 C 26.1875 12.878906 26.3125 12.820312 26.148438 12.78125 C 26.0625 12.761719 25.914062 12.765625 25.859375 12.679688 C 25.742188 12.710938 25.664062 12.671875 25.5625 12.613281 C 25.496094 12.574219 25.511719 12.558594 25.453125 12.601562 C 25.429688 12.621094 25.371094 12.707031 25.367188 12.726562 C 25.277344 12.71875 25.195312 12.738281 25.105469 12.734375 C 25.011719 12.726562 24.953125 12.71875 24.859375 12.722656 C 24.671875 12.738281 24.597656 12.640625 24.445312 12.546875 C 24.410156 12.609375 24.433594 12.738281 24.4375 12.808594 C 24.445312 12.898438 24.476562 12.988281 24.5 13.078125 C 24.515625 13.136719 24.574219 13.246094 24.558594 13.304688 C 24.542969 13.367188 24.449219 13.402344 24.460938 13.464844 C 24.460938 13.484375 24.460938 13.507812 24.460938 13.523438 C 24.445312 13.539062 24.433594 13.554688 24.421875 13.566406 C 24.347656 13.648438 24.3125 13.632812 24.222656 13.648438 C 23.996094 13.6875 24.144531 13.828125 24.105469 13.964844 C 24.078125 14.070312 23.96875 14.105469 24.007812 14.222656 C 24.03125 14.296875 24.097656 14.375 24.128906 14.449219 C 24.171875 14.542969 24.183594 14.542969 24.285156 14.554688 C 24.347656 14.558594 24.433594 14.589844 24.472656 14.535156 C 24.554688 14.597656 24.601562 14.742188 24.667969 14.816406 C 24.71875 14.871094 24.808594 14.820312 24.886719 14.804688 C 24.945312 14.792969 24.945312 14.769531 25.011719 14.78125 C 25.058594 14.789062 25.121094 14.804688 25.167969 14.816406 C 25.246094 14.832031 25.34375 14.929688 25.414062 14.886719 C 25.484375 14.84375 25.46875 14.742188 25.5625 14.710938 C 25.621094 14.691406 25.648438 14.699219 25.703125 14.65625 C 25.746094 14.625 25.78125 14.574219 25.8125 14.535156 C 25.882812 14.449219 25.910156 14.394531 26.003906 14.363281 C 26.074219 14.335938 26.117188 14.328125 26.195312 14.320312 C 26.246094 14.3125 26.269531 14.324219 26.308594 14.277344 C 26.351562 14.226562 26.347656 14.144531 26.382812 14.085938 C 26.4375 13.996094 26.507812 13.941406 26.574219 13.871094 C 26.546875 13.78125 26.445312 13.644531 26.53125 13.527344 Z M 26.53125 13.527344 " fill-opacity="1" fill-rule="nonzero"/></g><path fill="#014d4e" d="M 24.128906 8.390625 C 24.171875 8.40625 24.238281 8.46875 24.285156 8.527344 C 24.269531 8.578125 24.253906 8.625 24.238281 8.675781 C 24.230469 8.679688 24.1875 8.828125 24.195312 8.867188 C 24.203125 8.925781 24.292969 8.945312 24.324219 8.992188 C 24.363281 9.046875 24.324219 9.132812 24.335938 9.203125 C 24.339844 9.269531 24.324219 9.367188 24.351562 9.425781 C 24.488281 9.371094 24.667969 9.503906 24.617188 9.273438 C 24.609375 9.214844 24.585938 9.160156 24.589844 9.09375 C 24.597656 9.035156 24.597656 8.929688 24.617188 8.875 C 24.644531 8.789062 24.738281 8.820312 24.769531 8.773438 C 24.789062 8.75 24.75 8.710938 24.753906 8.6875 C 24.765625 8.648438 24.796875 8.660156 24.816406 8.636719 C 24.871094 8.550781 24.691406 8.304688 24.640625 8.207031 C 24.585938 8.101562 24.617188 8.066406 24.625 7.960938 C 24.628906 7.890625 24.589844 7.777344 24.710938 7.824219 C 24.75 7.75 24.625 7.5625 24.597656 7.488281 C 24.570312 7.421875 24.5625 7.394531 24.585938 7.328125 C 24.597656 7.296875 24.679688 7.191406 24.664062 7.15625 C 24.644531 7.109375 24.574219 7.128906 24.542969 7.105469 C 24.5 7.082031 24.5 7.035156 24.449219 7.007812 C 24.378906 6.957031 24.257812 7.09375 24.1875 7.136719 C 24.113281 7.03125 24.046875 7.15625 23.988281 7.199219 C 23.910156 7.257812 23.839844 7.335938 23.769531 7.394531 C 23.800781 7.503906 23.769531 7.597656 23.773438 7.703125 C 23.78125 7.769531 23.828125 7.808594 23.828125 7.875 C 23.855469 7.875 23.882812 7.878906 23.910156 7.875 C 23.90625 7.933594 23.871094 7.992188 23.851562 8.046875 C 23.816406 8.15625 23.851562 8.085938 23.894531 8.167969 C 23.9375 8.253906 23.773438 8.351562 23.839844 8.414062 C 23.898438 8.460938 24.050781 8.363281 24.128906 8.390625 Z M 24.128906 8.390625 " fill-opacity="1" fill-rule="nonzero"/><path fill="#014d4e" d="M 14.664062 9.171875 C 14.574219 9.0625 14.3125 9.144531 14.179688 9.117188 C 14.105469 9.105469 14.058594 9.0625 13.996094 9.035156 C 13.914062 9 13.90625 9.066406 13.820312 9.101562 C 13.777344 9.117188 13.710938 9.152344 13.671875 9.121094 C 13.644531 9.101562 13.644531 9.035156 13.625 9 C 13.597656 8.964844 13.5625 8.953125 13.527344 8.929688 C 13.484375 8.914062 13.445312 8.902344 13.394531 8.898438 C 13.363281 8.894531 13.308594 8.910156 13.285156 8.910156 C 13.230469 8.898438 13.199219 8.832031 13.132812 8.816406 C 13.085938 8.929688 12.910156 8.984375 12.808594 8.945312 C 12.746094 8.925781 12.683594 8.875 12.621094 8.867188 C 12.617188 8.867188 12.609375 8.867188 12.605469 8.867188 C 12.5625 8.816406 12.511719 8.765625 12.46875 8.722656 C 12.421875 8.679688 12.304688 8.582031 12.234375 8.578125 C 12.164062 8.570312 12.109375 8.664062 12.050781 8.679688 C 11.988281 8.695312 11.902344 8.660156 11.835938 8.664062 C 11.746094 8.675781 11.753906 8.765625 11.683594 8.800781 C 11.625 8.828125 11.527344 8.761719 11.46875 8.816406 C 11.441406 8.84375 11.386719 8.992188 11.386719 9.027344 C 11.386719 9.109375 11.460938 9.144531 11.515625 9.1875 C 11.574219 9.234375 11.621094 9.316406 11.679688 9.355469 C 11.726562 9.394531 11.808594 9.398438 11.871094 9.410156 C 11.90625 9.421875 12.035156 9.46875 12.089844 9.492188 C 12.082031 9.507812 12.078125 9.53125 12.070312 9.546875 C 12.089844 9.578125 12.066406 9.648438 12.066406 9.695312 C 12.121094 9.710938 12.132812 9.726562 12.164062 9.769531 C 12.214844 9.835938 12.175781 9.867188 12.203125 9.933594 C 12.222656 9.988281 12.304688 10.027344 12.339844 10.082031 C 12.386719 10.160156 12.320312 10.199219 12.332031 10.289062 C 12.429688 10.316406 12.5625 10.378906 12.554688 10.226562 C 12.554688 10.167969 12.523438 10.144531 12.554688 10.085938 C 12.582031 10.035156 12.628906 10.015625 12.691406 10 C 12.703125 9.933594 12.675781 9.878906 12.6875 9.8125 C 12.699219 9.730469 12.726562 9.726562 12.773438 9.660156 C 12.8125 9.613281 12.808594 9.523438 12.863281 9.480469 C 12.921875 9.4375 12.992188 9.476562 13.058594 9.496094 C 13.089844 9.441406 13.101562 9.371094 13.15625 9.34375 C 13.203125 9.324219 13.292969 9.332031 13.347656 9.332031 C 13.421875 9.328125 13.464844 9.355469 13.542969 9.367188 C 13.640625 9.382812 13.667969 9.425781 13.75 9.460938 C 13.796875 9.480469 13.902344 9.453125 13.945312 9.480469 C 13.996094 9.507812 14.050781 9.605469 14.097656 9.644531 C 14.140625 9.683594 14.21875 9.753906 14.285156 9.726562 C 14.3125 9.714844 14.328125 9.65625 14.347656 9.648438 C 14.375 9.644531 14.429688 9.695312 14.464844 9.703125 C 14.519531 9.726562 14.507812 9.746094 14.574219 9.703125 C 14.609375 9.675781 14.625 9.589844 14.671875 9.578125 C 14.707031 9.566406 14.84375 9.671875 14.867188 9.703125 C 14.925781 9.660156 15.035156 9.589844 15.039062 9.507812 C 15.046875 9.433594 14.980469 9.382812 14.9375 9.328125 C 14.753906 9.414062 14.761719 9.28125 14.664062 9.171875 Z M 14.664062 9.171875 " fill-opacity="1" fill-rule="nonzero"/><path fill="#014d4e" d="M 10.144531 8.992188 C 10.089844 9.007812 10.035156 9.023438 9.984375 9.039062 C 9.984375 9.039062 9.992188 9.039062 9.992188 9.039062 C 9.863281 9.101562 9.804688 9.152344 9.964844 9.226562 C 10.027344 9.253906 10.0625 9.324219 10.125 9.269531 C 10.164062 9.234375 10.242188 9.125 10.234375 9.09375 C 10.230469 9.082031 10.1875 9.027344 10.144531 8.992188 Z M 10.144531 8.992188 " fill-opacity="1" fill-rule="nonzero"/><path fill="#014d4e" d="M 8.703125 8.039062 C 8.714844 8.109375 8.777344 8.082031 8.824219 8.082031 C 8.835938 8.082031 8.894531 8.082031 8.894531 8.082031 C 8.917969 8.085938 8.949219 8.125 8.976562 8.125 C 9.046875 8.117188 9.027344 8.039062 9.125 8.058594 C 9.191406 8.074219 9.234375 8.089844 9.308594 8.089844 C 9.332031 7.976562 9.144531 7.820312 9.042969 7.859375 C 8.984375 7.878906 8.929688 7.960938 8.867188 7.921875 C 8.820312 7.890625 8.792969 7.78125 8.769531 7.730469 C 8.753906 7.695312 8.742188 7.6875 8.714844 7.65625 C 8.695312 7.632812 8.640625 7.601562 8.628906 7.585938 C 8.578125 7.503906 8.617188 7.464844 8.492188 7.453125 C 8.367188 7.445312 8.386719 7.503906 8.339844 7.597656 C 8.285156 7.703125 8.289062 7.703125 8.363281 7.804688 C 8.410156 7.875 8.355469 7.851562 8.449219 7.839844 C 8.507812 7.835938 8.503906 7.832031 8.550781 7.863281 C 8.59375 7.890625 8.628906 7.917969 8.667969 7.9375 C 8.6875 7.988281 8.703125 8.039062 8.703125 8.039062 Z M 8.703125 8.039062 " fill-opacity="1" fill-rule="nonzero"/><path fill="#014d4e" d="M 7.675781 7.078125 C 7.675781 7.035156 7.738281 7.011719 7.738281 6.976562 C 7.738281 6.949219 7.667969 6.871094 7.648438 6.855469 C 7.496094 7.011719 7.378906 6.71875 7.261719 6.695312 C 7.253906 6.636719 7.308594 6.625 7.300781 6.566406 C 7.289062 6.515625 7.199219 6.46875 7.167969 6.457031 C 7.070312 6.425781 7.070312 6.472656 7 6.523438 C 6.917969 6.582031 6.917969 6.535156 6.847656 6.496094 C 6.777344 6.453125 6.742188 6.460938 6.667969 6.511719 C 6.628906 6.535156 6.589844 6.582031 6.550781 6.597656 C 6.523438 6.609375 6.492188 6.59375 6.464844 6.609375 C 6.417969 6.640625 6.417969 6.71875 6.378906 6.761719 C 6.367188 6.773438 6.339844 6.789062 6.316406 6.804688 C 6.285156 6.789062 6.246094 6.777344 6.214844 6.761719 C 6.148438 6.640625 6.023438 6.9375 5.992188 6.953125 C 5.910156 6.996094 5.882812 6.949219 5.851562 7.066406 C 5.828125 7.144531 5.785156 7.238281 5.785156 7.316406 C 5.839844 7.300781 5.894531 7.269531 5.9375 7.242188 C 5.941406 7.285156 5.96875 7.410156 6.007812 7.433594 C 6.074219 7.464844 6.203125 7.371094 6.28125 7.417969 C 6.355469 7.460938 6.390625 7.535156 6.480469 7.574219 C 6.574219 7.605469 6.660156 7.640625 6.75 7.675781 C 6.878906 7.730469 6.835938 7.640625 6.933594 7.589844 C 6.960938 7.578125 7.042969 7.570312 7.074219 7.5625 C 7.113281 7.5625 7.167969 7.585938 7.207031 7.5625 C 7.308594 7.519531 7.308594 7.394531 7.445312 7.398438 C 7.558594 7.40625 7.675781 7.453125 7.71875 7.316406 C 7.734375 7.273438 7.75 7.226562 7.738281 7.183594 C 7.722656 7.148438 7.667969 7.128906 7.675781 7.078125 Z M 7.675781 7.078125 " fill-opacity="1" fill-rule="nonzero"/><g clip-path="url(#9f32995367)"><path fill="#014d4e" d="M 5.96875 5.5 C 6.0625 5.445312 6.109375 5.535156 6.191406 5.519531 C 6.269531 5.507812 6.34375 5.40625 6.410156 5.355469 C 6.464844 5.3125 6.515625 5.28125 6.550781 5.21875 C 6.585938 5.167969 6.601562 5.113281 6.640625 5.0625 C 6.699219 4.980469 6.808594 4.855469 6.820312 4.753906 C 6.832031 4.644531 6.769531 4.6875 6.699219 4.625 C 6.671875 4.597656 6.667969 4.566406 6.632812 4.546875 C 6.597656 4.523438 6.546875 4.527344 6.507812 4.5 C 6.492188 4.492188 6.492188 4.457031 6.472656 4.445312 C 6.453125 4.4375 6.421875 4.457031 6.410156 4.445312 C 6.390625 4.429688 6.390625 4.429688 6.378906 4.398438 C 6.371094 4.375 6.390625 4.328125 6.390625 4.304688 C 6.382812 4.273438 6.367188 4.25 6.363281 4.222656 C 6.34375 4.175781 6.328125 4.097656 6.285156 4.066406 C 6.21875 4.011719 6.136719 4.066406 6.058594 4.03125 C 6.003906 4.011719 5.941406 3.984375 5.886719 3.957031 C 5.8125 3.917969 5.785156 3.84375 5.703125 3.878906 C 5.652344 3.90625 5.621094 3.96875 5.5625 3.988281 C 5.511719 4.003906 5.457031 4.003906 5.410156 4.027344 C 5.382812 4.042969 5.355469 4.070312 5.320312 4.085938 C 5.261719 4.113281 5.179688 4.113281 5.125 4.15625 C 5.074219 4.195312 5.074219 4.234375 5.011719 4.25 C 4.960938 4.261719 4.902344 4.234375 4.863281 4.207031 C 4.789062 4.277344 4.660156 4.304688 4.597656 4.386719 C 4.535156 4.46875 4.570312 4.550781 4.453125 4.582031 C 4.375 4.605469 4.3125 4.605469 4.230469 4.644531 C 4.175781 4.671875 4.128906 4.726562 4.066406 4.742188 C 3.921875 4.785156 3.785156 4.726562 3.6875 4.867188 C 3.664062 4.894531 3.644531 4.910156 3.621094 4.9375 C 3.589844 4.976562 3.605469 4.976562 3.59375 5.023438 C 3.589844 5.058594 3.609375 5.0625 3.578125 5.09375 C 3.546875 5.128906 3.492188 5.117188 3.464844 5.160156 C 3.386719 5.265625 3.429688 5.445312 3.511719 5.535156 C 3.511719 5.535156 3.519531 5.535156 3.523438 5.535156 C 3.550781 5.503906 3.59375 5.5 3.621094 5.507812 C 3.648438 5.527344 3.675781 5.542969 3.707031 5.558594 C 3.714844 5.582031 3.714844 5.597656 3.71875 5.605469 C 3.734375 5.679688 3.761719 5.75 3.785156 5.820312 C 3.796875 5.863281 3.804688 5.859375 3.800781 5.902344 C 3.800781 5.933594 3.769531 5.960938 3.773438 5.996094 C 3.785156 6.046875 3.828125 6.058594 3.867188 6.101562 C 3.980469 6.234375 3.800781 6.207031 3.785156 6.332031 C 3.78125 6.382812 3.914062 6.550781 3.964844 6.5625 C 4.023438 6.570312 4.121094 6.472656 4.183594 6.453125 C 4.273438 6.417969 4.367188 6.445312 4.460938 6.460938 C 4.535156 6.472656 4.625 6.542969 4.695312 6.550781 C 4.769531 6.554688 4.777344 6.472656 4.839844 6.441406 C 4.878906 6.425781 4.933594 6.441406 4.972656 6.410156 C 5.015625 6.382812 5.039062 6.316406 5.070312 6.277344 C 5.109375 6.234375 5.15625 6.207031 5.179688 6.148438 C 5.195312 6.097656 5.183594 6.058594 5.195312 6.015625 C 5.238281 6.019531 5.265625 6.070312 5.308594 6.074219 C 5.347656 6.082031 5.386719 6.039062 5.417969 6.019531 C 5.539062 5.945312 5.589844 5.824219 5.714844 5.753906 C 5.773438 5.722656 5.828125 5.683594 5.875 5.628906 C 5.902344 5.585938 5.929688 5.519531 5.96875 5.5 Z M 5.96875 5.5 " fill-opacity="1" fill-rule="nonzero"/></g></svg>