<svg xmlns="http://www.w3.org/2000/svg" xmlns:xlink="http://www.w3.org/1999/xlink" width="40" zoomAndPan="magnify" viewBox="0 0 30 30.000001" height="40" preserveAspectRatio="xMidYMid meet" version="1.0"><defs><clipPath id="aa008c1289"><path d="M 3.386719 5.007812 L 26.613281 5.007812 L 26.613281 23.878906 L 3.386719 23.878906 Z M 3.386719 5.007812 " clip-rule="nonzero"/></clipPath></defs><g clip-path="url(#aa008c1289)"><path fill="#014d4e" d="M 23.71875 23.941406 C 23.234375 23.929688 22.835938 23.898438 22.445312 23.824219 C 22.265625 23.789062 22.097656 23.660156 21.921875 23.585938 C 21.605469 23.449219 21.289062 23.3125 20.996094 23.136719 C 20.59375 22.894531 20.207031 22.625 19.816406 22.363281 C 19.328125 22.03125 18.84375 21.699219 18.351562 21.367188 C 18.222656 21.28125 18.0625 21.257812 17.914062 21.210938 C 17.660156 21.128906 17.402344 21.066406 17.144531 20.992188 C 16.875 20.914062 16.609375 20.828125 16.339844 20.75 C 16.089844 20.675781 15.828125 20.628906 15.585938 20.527344 C 15.359375 20.433594 15.152344 20.289062 14.9375 20.167969 C 14.5625 19.953125 14.175781 19.746094 13.804688 19.519531 C 13.636719 19.417969 13.492188 19.285156 13.335938 19.160156 C 12.984375 18.882812 12.636719 18.601562 12.285156 18.320312 C 12.097656 18.175781 12.011719 17.960938 11.894531 17.773438 C 11.753906 17.554688 11.609375 17.332031 11.5 17.097656 C 11.382812 16.839844 11.265625 16.574219 11.210938 16.300781 C 11.152344 16.023438 10.972656 15.925781 10.75 15.851562 C 10.566406 15.789062 10.390625 15.695312 10.195312 15.664062 C 10.15625 15.660156 10.117188 15.640625 10.082031 15.644531 C 9.824219 15.664062 9.574219 15.59375 9.316406 15.585938 C 9.148438 15.578125 8.996094 15.46875 8.832031 15.421875 C 8.765625 15.402344 8.703125 15.359375 8.632812 15.347656 C 8.441406 15.3125 8.308594 15.1875 8.203125 15.039062 C 8.085938 14.875 7.945312 14.730469 7.8125 14.582031 C 7.613281 14.347656 7.46875 14.085938 7.304688 13.832031 C 6.890625 13.179688 6.484375 12.519531 6.070312 11.863281 C 5.980469 11.722656 5.824219 11.652344 5.691406 11.550781 C 5.4375 11.355469 5.136719 11.222656 4.851562 11.074219 C 4.566406 10.925781 4.332031 10.707031 4.085938 10.507812 C 4.003906 10.441406 4.003906 10.316406 3.960938 10.222656 C 3.921875 10.125 3.898438 10.023438 3.855469 9.925781 C 3.816406 9.832031 3.804688 9.734375 3.800781 9.632812 C 3.789062 9.203125 3.855469 8.777344 3.871094 8.351562 C 3.882812 8.117188 3.921875 7.878906 3.898438 7.648438 C 3.863281 7.355469 3.882812 7.058594 3.792969 6.777344 C 3.71875 6.546875 3.609375 6.324219 3.492188 6.117188 C 3.390625 5.941406 3.386719 5.804688 3.511719 5.648438 C 3.632812 5.5 3.699219 5.316406 3.875 5.207031 C 4.046875 5.101562 4.269531 5.050781 4.410156 5.195312 C 4.679688 5.46875 5.03125 5.5625 5.363281 5.707031 C 5.863281 5.921875 6.371094 6.117188 6.867188 6.339844 C 7.101562 6.445312 7.3125 6.605469 7.539062 6.730469 C 7.980469 6.96875 8.320312 7.328125 8.710938 7.632812 C 8.929688 7.804688 9.03125 8.035156 9.171875 8.25 C 9.289062 8.425781 9.382812 8.613281 9.492188 8.792969 C 9.546875 8.882812 9.546875 8.984375 9.574219 9.082031 C 9.640625 9.328125 9.6875 9.585938 9.738281 9.839844 C 9.757812 9.929688 9.828125 9.964844 9.902344 9.996094 C 10.125 10.09375 10.347656 10.195312 10.578125 10.28125 C 11.078125 10.464844 11.527344 10.746094 11.898438 11.125 C 12.082031 11.3125 12.21875 11.546875 12.285156 11.8125 C 12.355469 12.097656 12.410156 12.386719 12.476562 12.671875 C 12.570312 13.078125 12.726562 13.449219 13.070312 13.714844 C 13.113281 13.75 13.160156 13.789062 13.199219 13.835938 C 13.632812 14.355469 14.238281 14.605469 14.835938 14.847656 C 15.171875 14.984375 15.542969 15.035156 15.898438 15.121094 C 16.628906 15.296875 17.367188 15.464844 18.09375 15.65625 C 18.347656 15.722656 18.601562 15.828125 18.707031 16.109375 C 18.738281 16.183594 18.800781 16.214844 18.863281 16.226562 C 19.183594 16.285156 19.496094 16.386719 19.816406 16.449219 C 20.121094 16.507812 20.421875 16.601562 20.722656 16.675781 C 20.886719 16.71875 21.046875 16.761719 21.210938 16.785156 C 21.386719 16.8125 21.527344 16.898438 21.671875 16.980469 C 21.8125 17.0625 21.945312 17.15625 22.089844 17.234375 C 22.1875 17.285156 22.257812 17.351562 22.304688 17.453125 C 22.382812 17.625 22.472656 17.792969 22.546875 17.964844 C 22.585938 18.046875 22.613281 18.140625 22.621094 18.226562 C 22.632812 18.371094 22.671875 18.511719 22.675781 18.652344 C 22.691406 18.957031 22.804688 19.21875 22.960938 19.480469 C 23.167969 19.824219 23.5 20.023438 23.785156 20.277344 C 24.011719 20.484375 24.269531 20.65625 24.488281 20.871094 C 25.042969 21.410156 25.585938 21.964844 26.136719 22.511719 C 26.324219 22.695312 26.417969 22.9375 26.558594 23.148438 C 26.609375 23.222656 26.554688 23.289062 26.492188 23.332031 C 26.253906 23.488281 26.03125 23.667969 25.722656 23.695312 C 25.429688 23.722656 25.144531 23.820312 24.851562 23.871094 C 24.695312 23.894531 24.53125 23.890625 24.371094 23.886719 C 24.125 23.878906 23.882812 23.96875 23.71875 23.941406 Z M 23.71875 23.941406 " fill-opacity="1" fill-rule="nonzero"/></g></svg>