<svg xmlns="http://www.w3.org/2000/svg" xmlns:xlink="http://www.w3.org/1999/xlink" width="40" zoomAndPan="magnify" viewBox="0 0 30 30.000001" height="40" preserveAspectRatio="xMidYMid meet" version="1.0"><defs><clipPath id="9c8f9b93da"><path d="M 3.429688 2.902344 L 26.65625 2.902344 L 26.65625 26.128906 L 3.429688 26.128906 Z M 3.429688 2.902344 " clip-rule="nonzero"/></clipPath></defs><g clip-path="url(#9c8f9b93da)"><path fill="#014d4e" d="M 7.523438 16.457031 C 7.25 16.289062 6.871094 16.40625 6.570312 16.40625 C 6.546875 16.40625 6.488281 16.40625 6.421875 16.410156 C 6.417969 16.414062 6.414062 16.417969 6.410156 16.425781 C 6.300781 16.535156 6.183594 16.632812 6.078125 16.746094 C 5.863281 16.972656 5.765625 17.265625 5.585938 17.515625 C 5.378906 17.804688 5.011719 17.828125 4.703125 17.96875 C 4.4375 18.089844 4.09375 18.15625 3.84375 17.953125 C 3.429688 17.621094 3.636719 17.164062 3.832031 16.773438 C 3.949219 16.542969 4.113281 16.359375 4.257812 16.144531 C 4.351562 16.003906 4.382812 15.832031 4.519531 15.722656 C 4.625 15.636719 4.714844 15.621094 4.84375 15.613281 C 4.941406 15.609375 5.03125 15.609375 5.082031 15.523438 C 5.203125 15.316406 5.082031 15.007812 5.351562 14.871094 C 5.441406 14.828125 5.535156 14.863281 5.628906 14.84375 C 5.765625 14.820312 5.804688 14.730469 5.835938 14.605469 C 5.90625 14.324219 5.894531 14.019531 5.964844 13.738281 C 6.035156 13.460938 6.121094 13.1875 6.226562 12.925781 C 6.285156 12.789062 6.453125 12.59375 6.476562 12.480469 C 6.550781 12.433594 6.625 12.398438 6.703125 12.355469 C 6.691406 12.304688 6.679688 12.246094 6.667969 12.195312 C 6.730469 11.785156 6.539062 11.128906 6.289062 10.78125 C 6.148438 10.585938 5.914062 10.546875 5.765625 10.359375 C 5.574219 10.117188 5.472656 9.882812 5.414062 9.574219 C 5.371094 9.363281 5.363281 9.15625 5.371094 8.9375 C 5.386719 8.675781 5.363281 8.375 5.4375 8.128906 C 5.53125 7.808594 5.554688 7.261719 5.980469 7.253906 C 6.15625 7.25 6.320312 7.359375 6.453125 7.453125 C 6.601562 7.566406 6.789062 7.636719 6.929688 7.757812 C 7.101562 7.90625 6.988281 8.011719 7.023438 8.199219 C 7.050781 8.34375 7.191406 8.4375 7.226562 8.582031 C 7.285156 8.804688 7.3125 8.972656 7.519531 9.109375 C 7.765625 9.273438 8.125 9.328125 8.410156 9.375 C 8.738281 9.433594 8.917969 9.484375 9.160156 9.726562 C 9.332031 9.90625 9.46875 10.117188 9.652344 10.277344 C 9.738281 10.289062 9.824219 10.292969 9.914062 10.296875 C 9.984375 10.273438 10.183594 10.273438 10.292969 10.265625 C 10.441406 10.25 10.566406 10.238281 10.714844 10.269531 C 10.871094 10.300781 10.996094 10.347656 11.160156 10.355469 C 11.351562 10.359375 11.535156 10.386719 11.71875 10.457031 C 12.0625 10.59375 12.363281 10.878906 12.730469 10.941406 C 12.910156 10.976562 13.035156 10.964844 13.1875 10.855469 C 13.351562 10.734375 13.453125 10.71875 13.652344 10.714844 C 13.738281 10.710938 13.816406 10.71875 13.902344 10.703125 C 14 10.6875 14.078125 10.628906 14.183594 10.644531 C 14.238281 10.648438 14.308594 10.667969 14.378906 10.679688 C 14.433594 10.644531 14.496094 10.609375 14.550781 10.574219 C 14.648438 10.425781 15.023438 10.289062 15.195312 10.203125 C 15.332031 10.140625 15.464844 10.050781 15.605469 10.003906 C 15.753906 9.953125 15.917969 9.945312 16.070312 9.9375 C 16.117188 9.9375 16.164062 9.933594 16.210938 9.929688 C 16.261719 9.882812 16.316406 9.835938 16.367188 9.792969 C 16.5 9.675781 16.652344 9.550781 16.796875 9.445312 C 16.949219 9.34375 17.109375 9.25 17.265625 9.152344 C 17.433594 9.042969 17.589844 8.972656 17.765625 8.875 C 18.101562 8.679688 18.371094 8.402344 18.617188 8.101562 C 18.824219 7.84375 19.140625 7.746094 19.359375 7.488281 C 19.453125 7.378906 19.503906 7.289062 19.550781 7.160156 C 19.589844 7.0625 19.617188 6.964844 19.707031 6.90625 C 19.796875 6.847656 19.820312 6.875 19.839844 6.773438 C 19.855469 6.691406 19.851562 6.617188 19.875 6.539062 C 19.925781 6.359375 19.996094 6.191406 19.992188 6.003906 C 19.980469 5.792969 19.96875 5.582031 19.960938 5.367188 C 19.953125 5.140625 20.054688 5.152344 20.238281 5.226562 C 20.378906 5.285156 20.527344 5.328125 20.667969 5.378906 C 20.6875 5.382812 20.777344 5.421875 20.859375 5.457031 C 20.90625 5.386719 20.953125 5.320312 21.003906 5.25 C 21.042969 5.226562 21.148438 5.121094 21.167969 5.046875 C 21.191406 4.9375 21.085938 4.871094 21.070312 4.765625 C 21.050781 4.621094 21.203125 4.617188 21.257812 4.507812 C 21.3125 4.40625 21.253906 4.222656 21.261719 4.105469 C 21.289062 3.808594 21.347656 3.539062 21.476562 3.265625 C 21.542969 3.128906 21.574219 3.042969 21.738281 3.058594 C 21.902344 3.074219 22.089844 3.125 22.238281 3.183594 C 22.539062 3.3125 22.855469 3.589844 23.210938 3.460938 C 23.273438 3.4375 23.316406 3.382812 23.375 3.351562 C 23.445312 3.320312 23.511719 3.320312 23.597656 3.320312 C 23.820312 3.316406 23.910156 3.273438 24.101562 3.175781 C 24.320312 3.058594 24.507812 3.015625 24.761719 2.96875 C 24.984375 2.925781 25.199219 2.902344 25.292969 3.136719 C 25.410156 3.4375 25.269531 3.773438 25.226562 4.082031 C 25.191406 4.371094 25.175781 4.65625 25.304688 4.925781 C 25.367188 5.066406 25.449219 5.199219 25.441406 5.359375 C 25.4375 5.527344 25.363281 5.683594 25.378906 5.855469 C 25.398438 6.070312 25.484375 6.1875 25.605469 6.359375 C 25.746094 6.550781 25.8125 6.757812 25.878906 6.976562 C 25.914062 7.09375 25.980469 7.203125 26.019531 7.320312 C 26.066406 7.472656 26.03125 7.652344 26.023438 7.808594 C 26.007812 8.011719 25.980469 8.238281 25.914062 8.433594 C 25.863281 8.589844 25.734375 8.625 25.601562 8.707031 C 25.554688 8.742188 25.511719 8.773438 25.476562 8.816406 C 25.488281 8.875 25.5 8.9375 25.507812 8.996094 C 25.472656 9.230469 25.6875 9.445312 25.644531 9.660156 C 25.628906 9.738281 25.558594 9.796875 25.542969 9.867188 C 25.519531 9.957031 25.566406 9.988281 25.605469 10.070312 C 25.734375 10.296875 25.808594 10.496094 26.007812 10.671875 C 26.199219 10.839844 26.566406 11.054688 26.410156 11.34375 C 26.339844 11.476562 26.171875 11.496094 26.070312 11.597656 C 26.03125 11.636719 26.015625 11.699219 25.976562 11.734375 C 25.953125 11.753906 25.863281 11.765625 25.828125 11.78125 C 25.691406 11.832031 25.589844 11.933594 25.457031 12 C 25.339844 12.054688 25.195312 12.066406 25.070312 12.09375 C 24.917969 12.132812 24.761719 12.179688 24.601562 12.15625 C 24.410156 12.125 24.339844 12.171875 24.15625 12.253906 C 24.136719 12.261719 24.125 12.265625 24.105469 12.269531 C 24.058594 12.363281 24.007812 12.457031 23.941406 12.546875 C 23.773438 12.765625 23.660156 12.992188 23.558594 13.253906 C 23.484375 13.445312 23.421875 13.609375 23.433594 13.816406 C 23.441406 14.039062 23.40625 14.015625 23.210938 14.082031 C 23.0625 14.132812 22.910156 14.277344 22.785156 14.375 C 22.664062 14.480469 22.578125 14.605469 22.515625 14.75 C 22.464844 14.875 22.421875 15.011719 22.378906 15.144531 C 22.328125 15.316406 22.273438 15.324219 22.105469 15.375 C 21.84375 15.460938 21.800781 15.800781 21.660156 16.023438 C 21.617188 16.074219 21.550781 16.167969 21.503906 16.242188 C 21.511719 16.300781 21.519531 16.355469 21.527344 16.382812 C 21.539062 16.71875 21.636719 17.050781 21.652344 17.390625 C 21.660156 17.566406 21.628906 17.769531 21.675781 17.9375 C 21.722656 18.109375 21.921875 18.214844 21.949219 18.382812 C 21.976562 18.542969 21.808594 18.8125 21.746094 18.957031 C 21.550781 18.90625 21.511719 18.898438 21.613281 19.089844 C 21.640625 19.144531 21.675781 19.207031 21.683594 19.273438 C 21.703125 19.371094 21.703125 19.347656 21.636719 19.425781 C 21.535156 19.5625 21.445312 19.691406 21.335938 19.824219 C 21.203125 19.992188 21.378906 20.101562 21.3125 20.273438 C 21.28125 20.355469 21.1875 20.417969 21.132812 20.484375 C 21.046875 20.585938 20.964844 20.710938 20.902344 20.828125 C 20.800781 21.019531 20.875 21.289062 20.886719 21.5 C 20.910156 21.808594 20.761719 22.039062 20.726562 22.339844 C 20.707031 22.511719 20.734375 22.691406 20.710938 22.863281 C 20.6875 23.042969 20.660156 23.195312 20.65625 23.375 C 20.65625 23.707031 20.53125 24.050781 20.578125 24.378906 C 20.597656 24.492188 20.683594 24.582031 20.695312 24.691406 C 20.703125 24.753906 20.6875 24.820312 20.671875 24.878906 C 20.703125 24.929688 20.734375 24.988281 20.742188 25.039062 C 20.78125 25.203125 20.785156 25.378906 20.789062 25.542969 C 20.800781 25.726562 20.765625 25.769531 20.59375 25.804688 C 20.414062 25.84375 20.238281 25.949219 20.0625 25.972656 C 19.640625 26.03125 19.234375 26.128906 18.765625 26.117188 C 18.386719 26.109375 18.179688 26.070312 17.910156 25.832031 C 17.707031 25.65625 17.460938 25.390625 17.390625 25.128906 C 17.316406 24.847656 17.226562 24.566406 17.148438 24.28125 C 17.082031 24.046875 16.996094 23.859375 17.019531 23.617188 C 17.039062 23.402344 17.066406 23.195312 17.050781 22.976562 C 17.007812 22.546875 16.957031 22.132812 16.875 21.714844 C 16.757812 21.546875 16.71875 21.351562 16.679688 21.152344 C 16.660156 21.050781 16.679688 20.949219 16.675781 20.847656 C 16.671875 20.722656 16.652344 20.601562 16.648438 20.46875 C 16.632812 20.207031 16.605469 19.988281 16.507812 19.746094 C 16.339844 19.332031 16.144531 18.933594 15.855469 18.601562 C 15.6875 18.410156 15.496094 18.101562 15.234375 18.070312 C 14.988281 18.042969 14.847656 17.921875 14.640625 17.800781 C 14.597656 17.765625 14.527344 17.707031 14.46875 17.648438 C 14.371094 17.683594 14.277344 17.71875 14.1875 17.738281 C 14.019531 17.765625 13.925781 17.667969 13.769531 17.640625 C 13.628906 17.617188 13.488281 17.652344 13.351562 17.617188 C 13.097656 17.550781 12.792969 17.539062 12.5625 17.425781 C 12.515625 17.40625 12.394531 17.363281 12.308594 17.335938 C 12.101562 17.410156 11.894531 17.484375 11.679688 17.507812 C 11.511719 17.523438 11.320312 17.578125 11.15625 17.546875 C 11.019531 17.519531 10.945312 17.402344 10.863281 17.304688 C 10.679688 17.078125 10.46875 16.855469 10.261719 16.652344 C 10.085938 16.488281 9.890625 16.53125 9.660156 16.488281 C 9.402344 16.4375 9.144531 16.382812 8.882812 16.359375 C 8.671875 16.339844 8.546875 16.488281 8.359375 16.503906 C 8.199219 16.519531 8.066406 16.386719 7.898438 16.441406 C 7.835938 16.460938 7.769531 16.566406 7.71875 16.570312 C 7.648438 16.574219 7.574219 16.488281 7.523438 16.457031 Z M 7.523438 16.457031 " fill-opacity="1" fill-rule="nonzero"/></g></svg>