<svg xmlns="http://www.w3.org/2000/svg" xmlns:xlink="http://www.w3.org/1999/xlink" width="40" zoomAndPan="magnify" viewBox="0 0 30 30.000001" height="40" preserveAspectRatio="xMidYMid meet" version="1.0"><defs><clipPath id="2f05061c36"><path d="M 3.386719 7.925781 L 26.613281 7.925781 L 26.613281 20.992188 L 3.386719 20.992188 Z M 3.386719 7.925781 " clip-rule="nonzero"/></clipPath></defs><g clip-path="url(#2f05061c36)"><path fill="#014d4e" d="M 26.617188 7.988281 C 26.566406 8.183594 26.535156 8.335938 26.488281 8.503906 C 26.46875 8.570312 26.421875 8.613281 26.355469 8.636719 C 25.9375 8.753906 25.550781 8.929688 25.1875 9.171875 C 25.0625 9.25 24.96875 9.363281 24.910156 9.5 C 24.828125 9.683594 24.691406 9.8125 24.5 9.882812 C 24.28125 9.984375 24.089844 10.121094 23.917969 10.289062 C 23.761719 10.433594 23.589844 10.546875 23.398438 10.632812 C 22.882812 10.832031 22.414062 11.109375 21.988281 11.460938 C 21.726562 11.652344 21.550781 11.902344 21.460938 12.214844 C 21.429688 12.300781 21.367188 12.359375 21.277344 12.386719 C 21.117188 12.414062 20.960938 12.414062 20.800781 12.386719 C 20.558594 12.320312 20.371094 12.390625 20.234375 12.601562 C 20 12.871094 19.851562 13.183594 19.792969 13.535156 C 19.777344 13.675781 19.792969 13.816406 19.835938 13.949219 C 19.84375 14.027344 19.84375 14.101562 19.835938 14.175781 C 19.878906 14.222656 19.945312 14.292969 20.011719 14.367188 C 20.078125 14.4375 20.214844 14.585938 20.3125 14.710938 C 20.34375 14.746094 20.371094 14.785156 20.390625 14.828125 C 20.472656 15.027344 20.601562 15.191406 20.78125 15.3125 C 21.089844 15.554688 21.34375 15.839844 21.542969 16.175781 C 21.542969 16.175781 21.542969 16.195312 21.542969 16.199219 C 21.511719 16.257812 21.507812 16.316406 21.535156 16.378906 C 21.558594 16.4375 21.601562 16.476562 21.667969 16.496094 C 21.644531 16.523438 21.625 16.570312 21.609375 16.566406 C 21.515625 16.554688 21.425781 16.53125 21.335938 16.496094 C 21.152344 16.375 20.953125 16.3125 20.730469 16.300781 C 20.648438 16.292969 20.566406 16.28125 20.484375 16.261719 C 20.464844 16.257812 20.441406 16.257812 20.421875 16.261719 C 20.28125 16.300781 20.140625 16.332031 20.003906 16.382812 C 19.925781 16.417969 19.851562 16.464844 19.785156 16.519531 C 19.742188 16.550781 19.710938 16.59375 19.664062 16.628906 C 19.417969 16.820312 19.355469 16.820312 19.125 16.597656 C 18.957031 16.445312 18.761719 16.375 18.535156 16.378906 C 18.296875 16.363281 18.054688 16.363281 17.816406 16.378906 C 17.628906 16.390625 17.472656 16.46875 17.347656 16.609375 C 17.222656 16.753906 17.167969 16.917969 17.175781 17.105469 C 17.175781 17.183594 17.175781 17.257812 17.175781 17.328125 C 17.199219 17.554688 17.128906 17.746094 16.960938 17.898438 C 16.9375 17.921875 16.917969 17.949219 16.910156 17.980469 C 16.875 18.175781 16.761719 18.203125 16.585938 18.171875 C 16.382812 18.121094 16.21875 18.179688 16.089844 18.339844 C 15.941406 18.527344 15.75 18.625 15.511719 18.632812 C 15.425781 18.640625 15.34375 18.664062 15.261719 18.703125 C 15.046875 18.808594 14.839844 18.925781 14.625 19.019531 C 14.433594 19.113281 14.238281 19.195312 14.039062 19.265625 C 13.960938 19.289062 13.886719 19.289062 13.8125 19.265625 C 13.664062 19.21875 13.550781 19.257812 13.464844 19.386719 C 13.429688 19.433594 13.378906 19.457031 13.320312 19.457031 C 13.035156 19.457031 12.742188 19.421875 12.457031 19.398438 C 12.050781 19.378906 11.683594 19.484375 11.351562 19.714844 C 11.222656 19.800781 11.097656 19.898438 10.980469 20 C 10.882812 20.109375 10.828125 20.238281 10.824219 20.386719 C 10.816406 20.535156 10.855469 20.667969 10.945312 20.785156 C 10.988281 20.828125 11.027344 20.875 11.0625 20.921875 C 11.070312 20.964844 11.070312 21.003906 11.0625 21.046875 C 11.019531 21.050781 10.976562 21.050781 10.9375 21.046875 C 10.863281 21.015625 10.789062 20.996094 10.710938 20.980469 C 10.511719 20.980469 10.308594 20.980469 10.085938 21.003906 C 10.222656 20.839844 10.085938 20.722656 10.03125 20.589844 C 9.949219 20.339844 9.800781 20.132812 9.59375 19.96875 C 9.539062 19.921875 9.472656 19.890625 9.398438 19.878906 C 9.214844 19.878906 9.027344 19.902344 8.84375 19.914062 L 8.695312 19.914062 C 8.539062 19.902344 8.394531 19.941406 8.269531 20.035156 C 8.222656 20.066406 8.171875 20.082031 8.117188 20.085938 C 8.035156 20.113281 7.953125 20.128906 7.871094 20.144531 C 7.820312 20.152344 7.773438 20.152344 7.722656 20.144531 C 7.457031 20.058594 7.1875 19.976562 6.925781 19.882812 C 6.847656 19.851562 6.777344 19.8125 6.714844 19.757812 C 6.515625 19.605469 6.296875 19.511719 6.050781 19.476562 C 5.925781 19.453125 5.8125 19.378906 5.667969 19.417969 C 5.613281 19.4375 5.527344 19.351562 5.457031 19.304688 C 5.332031 19.21875 5.25 19.066406 5.074219 19.054688 C 5.046875 19.054688 5.027344 19.003906 5 18.980469 C 4.972656 18.957031 4.917969 18.886719 4.875 18.882812 C 4.730469 18.882812 4.714844 18.804688 4.710938 18.675781 C 4.695312 18.53125 4.667969 18.390625 4.632812 18.253906 C 4.632812 18.171875 4.597656 18.09375 4.585938 18.011719 C 4.558594 17.84375 4.421875 17.792969 4.289062 17.761719 C 4.210938 17.742188 4.15625 17.699219 4.121094 17.625 C 4.074219 17.539062 4.011719 17.460938 3.941406 17.390625 C 3.851562 17.3125 3.824219 17.25 3.90625 17.148438 C 3.996094 17.058594 3.996094 16.972656 3.90625 16.882812 C 3.757812 16.75 3.722656 16.589844 3.800781 16.40625 C 3.820312 16.328125 3.8125 16.25 3.777344 16.171875 C 3.679688 15.980469 3.574219 15.800781 3.464844 15.621094 C 3.378906 15.40625 3.378906 15.1875 3.464844 14.972656 C 3.503906 14.9375 3.546875 14.929688 3.59375 14.949219 C 3.664062 14.996094 3.730469 15.046875 3.792969 15.101562 C 3.925781 15.226562 4.066406 15.339844 4.210938 15.449219 C 4.5 15.660156 4.800781 15.675781 5.109375 15.492188 C 5.449219 15.328125 5.691406 15.074219 5.828125 14.722656 C 5.898438 14.558594 5.996094 14.410156 6.117188 14.28125 C 6.226562 14.152344 6.285156 14.003906 6.484375 14.097656 C 6.617188 14.011719 6.777344 13.996094 6.917969 13.917969 C 7.082031 13.808594 7.257812 13.78125 7.449219 13.839844 C 7.480469 13.859375 7.515625 13.871094 7.550781 13.878906 C 8 13.972656 8.425781 14.128906 8.828125 14.355469 C 8.984375 14.433594 9.136719 14.425781 9.289062 14.339844 C 9.445312 14.242188 9.597656 14.136719 9.75 14.035156 C 9.789062 14.007812 9.816406 13.96875 9.832031 13.925781 C 10.015625 13.476562 10.117188 13.007812 10.140625 12.519531 C 10.164062 12.324219 10.121094 12.144531 10.003906 11.984375 C 9.984375 11.945312 9.976562 11.902344 9.976562 11.855469 C 9.976562 11.714844 9.960938 11.574219 9.945312 11.40625 C 10.039062 11.4375 10.125 11.476562 10.214844 11.515625 C 10.378906 11.605469 10.535156 11.71875 10.699219 11.800781 C 10.800781 11.832031 10.898438 11.855469 11.003906 11.871094 C 11.0625 11.882812 11.125 11.902344 11.183594 11.925781 C 11.390625 12.03125 11.597656 12.03125 11.804688 11.925781 C 11.894531 11.894531 11.980469 11.894531 12.066406 11.925781 C 12.304688 12.015625 12.546875 12.039062 12.796875 11.996094 C 12.847656 11.984375 12.894531 11.988281 12.945312 12.011719 C 13.128906 12.089844 13.324219 12.125 13.527344 12.121094 C 13.703125 12.152344 13.871094 12.160156 14.0625 12.179688 C 14.289062 12.21875 14.523438 12.242188 14.753906 12.25 C 15.183594 12.265625 15.605469 12.230469 16.027344 12.152344 C 16.351562 12.070312 16.6875 12.046875 17.015625 11.988281 C 17.292969 11.9375 17.550781 11.835938 17.785156 11.683594 C 18.097656 11.429688 18.457031 11.3125 18.859375 11.335938 C 19.300781 11.394531 19.699219 11.179688 20.117188 11.074219 C 20.546875 10.9375 20.957031 10.761719 21.351562 10.542969 C 21.539062 10.460938 21.722656 10.367188 21.902344 10.265625 C 21.972656 10.21875 22.035156 10.167969 22.089844 10.105469 C 22.234375 9.941406 22.371094 9.757812 22.519531 9.609375 C 22.519531 9.59375 22.582031 9.609375 22.617188 9.609375 C 22.742188 9.609375 22.867188 9.640625 22.996094 9.652344 C 23.035156 9.65625 23.066406 9.644531 23.097656 9.621094 C 23.246094 9.476562 23.441406 9.484375 23.628906 9.421875 C 23.753906 9.367188 23.871094 9.292969 23.976562 9.203125 C 24.109375 9.113281 24.195312 8.980469 24.320312 8.902344 C 24.460938 8.839844 24.605469 8.792969 24.753906 8.765625 C 24.835938 8.738281 24.910156 8.695312 24.976562 8.640625 C 25.070312 8.566406 25.175781 8.53125 25.292969 8.535156 C 25.472656 8.535156 25.699219 8.535156 25.800781 8.324219 C 25.800781 8.304688 25.847656 8.289062 25.871094 8.277344 L 26.148438 8.175781 Z M 26.617188 7.988281 " fill-opacity="1" fill-rule="evenodd"/></g></svg>