<svg xmlns="http://www.w3.org/2000/svg" xmlns:xlink="http://www.w3.org/1999/xlink" width="40" zoomAndPan="magnify" viewBox="0 0 30 30.000001" height="40" preserveAspectRatio="xMidYMid meet" version="1.0"><defs><clipPath id="39fe8a53c7"><path d="M 3.386719 7.898438 L 26.613281 7.898438 L 26.613281 20.960938 L 3.386719 20.960938 Z M 3.386719 7.898438 " clip-rule="nonzero"/></clipPath></defs><g clip-path="url(#39fe8a53c7)"><path fill="#014d4e" d="M 26.613281 16.097656 L 25.539062 16.351562 L 24.972656 17.085938 L 24.351562 17.511719 L 23.871094 18.46875 L 23.277344 18.921875 L 22.429688 19.65625 L 21.382812 19.6875 L 20.820312 19.570312 L 19.800781 20.882812 L 19.800781 20.476562 L 19.351562 20.390625 L 19.207031 20.050781 L 18.558594 19.855469 L 18.359375 20.164062 L 17.402344 20.269531 L 17.316406 20.277344 L 16.242188 19.6875 L 15.734375 19.65625 L 14.578125 18.921875 L 14.011719 19.121094 L 13.753906 18.921875 L 13.246094 18.921875 L 12.9375 19.96875 L 12.683594 19.96875 L 12.316406 20.816406 L 11.835938 20.789062 L 11.242188 21.125 L 10.140625 20.789062 L 9.292969 20.195312 L 9.289062 20.199219 L 9.117188 19.726562 L 8.648438 19.328125 L 8.332031 18.921875 L 7.90625 18.921875 L 7.59375 18.808594 L 7.453125 18.269531 L 6.917969 18.105469 L 6.382812 17.226562 L 5.789062 16.917969 L 5.082031 16.519531 L 5.082031 16.011719 L 4.628906 15.675781 L 4.800781 15.304688 L 4.40625 14.882812 L 4.546875 14.429688 L 4.769531 13.863281 L 4.574219 13.46875 L 3.640625 12.933594 L 3.386719 11.6875 L 3.839844 12.027344 L 4.175781 12.59375 L 4.316406 11.96875 L 4.628906 11.6875 L 5.109375 11.320312 L 6.363281 11.320312 L 6.75 10.898438 L 7.117188 10.898438 L 7.257812 10.445312 L 7.59375 10.445312 L 7.792969 10.109375 L 8.246094 10.109375 L 8.445312 9.597656 L 9.460938 9.597656 L 9.859375 9.203125 L 10.335938 9.0625 L 10.707031 8.722656 L 11.15625 8.722656 L 10.960938 8.382812 L 10.816406 7.902344 L 11.300781 8.015625 L 11.863281 8.015625 L 11.863281 8.75 L 12.34375 9.089844 L 12.710938 9.003906 L 13.078125 8.808594 L 13.359375 8.042969 L 14.207031 8.269531 L 14.578125 9.117188 L 15.648438 9.429688 L 16.214844 9.851562 L 16.808594 10.109375 L 17.9375 10.023438 L 18.277344 10.332031 L 17.964844 11.011719 L 17.429688 11.320312 L 18.277344 11.945312 L 18.898438 12.507812 L 19.125 13.101562 L 19.746094 12.652344 L 20.226562 12.199219 L 19.746094 11.320312 L 19.832031 11.097656 L 20.226562 11.351562 L 20.933594 11.546875 L 21.636719 12 L 22.484375 12.027344 L 22.65625 12.480469 L 22.316406 12.847656 L 22.882812 13.269531 L 23.449219 13.640625 L 23.757812 13.527344 L 24.550781 13.894531 L 25.484375 13.980469 L 25.792969 14.964844 L 26.386719 15.25 L 26.605469 16.074219 Z M 26.613281 16.097656 " fill-opacity="1" fill-rule="nonzero"/></g></svg>