<svg xmlns="http://www.w3.org/2000/svg" xmlns:xlink="http://www.w3.org/1999/xlink" width="40" zoomAndPan="magnify" viewBox="0 0 30 30.000001" height="40" preserveAspectRatio="xMidYMid meet" version="1.0"><defs><clipPath id="3f61d44667"><path d="M 6.40625 2.902344 L 23.824219 2.902344 L 23.824219 26.128906 L 6.40625 26.128906 Z M 6.40625 2.902344 " clip-rule="nonzero"/></clipPath></defs><g clip-path="url(#3f61d44667)"><path fill="#014d4e" d="M 13.976562 3.722656 C 13.976562 3.722656 13.953125 3.84375 13.875 3.800781 C 13.800781 3.757812 13.757812 3.679688 13.757812 3.679688 L 13.570312 3.558594 L 13.472656 3.613281 L 13.390625 3.558594 L 13.308594 3.605469 L 13.1875 3.625 C 13.1875 3.625 13.140625 3.558594 13.132812 3.558594 C 13.121094 3.558594 13.023438 3.625 13.023438 3.625 L 12.824219 3.648438 L 12.804688 3.539062 L 12.757812 3.429688 L 12.46875 3.429688 L 12.363281 3.351562 L 12.15625 3.285156 L 11.925781 3.339844 L 11.828125 3.375 L 11.578125 3.394531 L 11.421875 3.40625 L 11.324219 3.332031 L 11.3125 3.210938 L 11.335938 3.089844 L 11.402344 3.054688 L 11.457031 2.945312 L 11.414062 2.902344 L 11.3125 2.96875 L 11.292969 3.046875 L 11.238281 3.101562 L 11.214844 3.253906 L 11.203125 3.332031 L 11.160156 3.460938 C 11.160156 3.460938 11.140625 3.527344 11.140625 3.570312 C 11.140625 3.613281 11.148438 3.714844 11.148438 3.714844 C 11.148438 3.714844 11.140625 3.757812 11.148438 3.777344 C 11.160156 3.800781 11.183594 3.8125 11.183594 3.8125 L 11.214844 3.777344 L 11.214844 3.648438 C 11.214844 3.648438 11.226562 3.550781 11.226562 3.539062 C 11.226562 3.527344 11.25 3.460938 11.25 3.449219 C 11.25 3.441406 11.269531 3.429688 11.269531 3.429688 C 11.269531 3.429688 11.292969 3.472656 11.3125 3.484375 C 11.335938 3.496094 11.378906 3.503906 11.378906 3.503906 L 11.488281 3.503906 L 11.523438 3.472656 L 11.585938 3.449219 L 11.652344 3.441406 L 11.785156 3.484375 L 11.816406 3.503906 L 11.816406 3.582031 C 11.816406 3.582031 11.796875 3.613281 11.816406 3.648438 C 11.839844 3.679688 11.90625 3.757812 11.90625 3.757812 C 11.90625 3.757812 11.925781 3.878906 11.925781 3.890625 C 11.925781 3.898438 11.871094 4.007812 11.871094 4.007812 L 11.773438 4.054688 L 11.621094 4.074219 L 11.578125 4.140625 L 11.597656 4.171875 L 11.609375 4.207031 L 11.65625 4.207031 L 11.75 4.195312 C 11.75 4.195312 11.828125 4.140625 11.859375 4.140625 C 11.894531 4.140625 11.972656 4.109375 11.972656 4.109375 L 12.082031 4.109375 L 12.113281 4.152344 C 12.113281 4.152344 12.101562 4.183594 12.097656 4.207031 C 12.089844 4.226562 12.179688 4.273438 12.179688 4.273438 L 12.246094 4.292969 L 12.265625 4.304688 C 12.265625 4.304688 12.289062 4.335938 12.289062 4.359375 C 12.289062 4.382812 12.277344 4.425781 12.277344 4.425781 C 12.277344 4.425781 12.222656 4.46875 12.210938 4.480469 C 12.199219 4.492188 12.191406 4.523438 12.191406 4.535156 C 12.191406 4.546875 12.167969 4.578125 12.179688 4.589844 C 12.191406 4.601562 12.210938 4.621094 12.210938 4.621094 L 12.234375 4.601562 L 12.320312 4.511719 C 12.320312 4.511719 12.375 4.457031 12.386719 4.46875 C 12.398438 4.480469 12.429688 4.523438 12.429688 4.523438 L 12.441406 4.578125 L 12.433594 4.621094 L 12.375 4.722656 L 12.265625 4.785156 C 12.265625 4.785156 12.144531 4.808594 12.136719 4.808594 C 12.125 4.808594 12.027344 4.808594 12.027344 4.808594 L 11.90625 4.796875 L 11.828125 4.820312 L 11.785156 4.863281 L 11.839844 4.949219 C 11.839844 4.949219 11.859375 4.996094 11.828125 4.996094 C 11.796875 4.996094 11.730469 5.015625 11.730469 5.015625 L 11.695312 5.179688 L 11.796875 5.222656 C 11.796875 5.222656 11.871094 5.246094 11.914062 5.191406 C 11.960938 5.136719 12.003906 5.09375 12.003906 5.09375 C 12.003906 5.09375 12.113281 5.082031 12.144531 5.09375 C 12.179688 5.105469 12.222656 5.125 12.222656 5.125 L 12.320312 5.125 L 12.417969 5.082031 L 12.453125 5.09375 L 12.429688 5.148438 L 12.335938 5.230469 L 12.253906 5.246094 C 12.253906 5.246094 12.191406 5.269531 12.167969 5.289062 C 12.144531 5.3125 12.089844 5.390625 12.089844 5.390625 L 12.058594 5.5 C 12.058594 5.5 12.058594 5.574219 12.070312 5.597656 C 12.082031 5.617188 12.101562 5.664062 12.125 5.664062 C 12.144531 5.664062 12.179688 5.671875 12.222656 5.671875 C 12.265625 5.671875 12.289062 5.671875 12.308594 5.671875 C 12.332031 5.671875 12.386719 5.683594 12.386719 5.683594 C 12.386719 5.683594 12.410156 5.707031 12.417969 5.71875 C 12.429688 5.726562 12.464844 5.792969 12.464844 5.792969 L 12.472656 5.890625 C 12.472656 5.890625 12.464844 5.9375 12.441406 5.957031 C 12.417969 5.980469 12.429688 5.992188 12.375 5.992188 C 12.320312 5.992188 12.234375 5.980469 12.234375 5.980469 L 12.167969 6.003906 L 12.144531 6.023438 L 12.136719 6.101562 L 12.191406 6.167969 L 11.925781 6.277344 L 11.816406 6.320312 L 11.75 6.351562 L 11.621094 6.429688 L 11.53125 6.703125 L 11.5 6.953125 L 11.445312 7.109375 L 11.324219 7.152344 C 11.324219 7.152344 11.304688 7.128906 11.191406 7.140625 C 11.082031 7.152344 11.050781 7.128906 11.039062 7.171875 C 11.027344 7.21875 11.039062 7.238281 11.027344 7.261719 C 11.019531 7.28125 10.964844 7.328125 10.996094 7.359375 C 11.027344 7.394531 11.105469 7.414062 11.128906 7.4375 C 11.148438 7.457031 11.203125 7.546875 11.203125 7.546875 C 11.203125 7.546875 11.191406 7.65625 11.171875 7.675781 C 11.148438 7.699219 11.0625 7.753906 11.0625 7.753906 L 10.964844 7.765625 L 10.910156 7.6875 L 10.875 7.632812 C 10.875 7.632812 10.777344 7.621094 10.765625 7.621094 C 10.753906 7.621094 10.734375 7.578125 10.734375 7.578125 L 10.765625 7.480469 L 10.855469 7.457031 C 10.855469 7.457031 10.898438 7.359375 10.886719 7.347656 C 10.875 7.335938 10.800781 7.292969 10.800781 7.292969 L 10.789062 7.195312 L 10.734375 7.0625 L 10.636719 7.042969 L 10.625 6.933594 L 10.589844 6.867188 L 10.503906 6.84375 L 10.304688 6.855469 L 10 6.898438 L 9.8125 6.945312 L 9.691406 6.921875 L 9.550781 6.890625 L 9.386719 6.867188 L 9.332031 6.898438 L 9.035156 7.128906 C 9.035156 7.128906 8.96875 7.171875 8.980469 7.195312 C 8.992188 7.21875 9.023438 7.292969 9.023438 7.304688 C 9.023438 7.316406 8.96875 7.382812 8.96875 7.382812 L 8.851562 7.503906 C 8.851562 7.503906 8.816406 7.710938 8.839844 7.730469 C 8.859375 7.753906 8.925781 7.84375 8.925781 7.84375 C 8.925781 7.84375 9.046875 7.84375 9.078125 7.851562 C 9.113281 7.863281 9.179688 7.875 9.179688 7.875 L 9.210938 7.90625 L 9.234375 8.039062 L 9.167969 8.160156 L 9.144531 8.28125 L 9.144531 8.378906 L 9.101562 8.566406 C 9.101562 8.566406 9.089844 8.628906 9.101562 8.664062 C 9.113281 8.695312 9.144531 8.847656 9.144531 8.847656 L 9.058594 9.089844 L 8.90625 9.296875 L 8.796875 9.507812 L 8.816406 9.738281 L 8.785156 9.945312 L 8.664062 9.988281 L 8.53125 9.957031 C 8.53125 9.957031 8.402344 9.902344 8.390625 9.910156 C 8.378906 9.921875 8.257812 9.976562 8.257812 9.988281 C 8.257812 10 8.191406 10.054688 8.214844 10.074219 C 8.238281 10.097656 8.246094 10.183594 8.246094 10.183594 C 8.246094 10.183594 8.226562 10.207031 8.203125 10.21875 C 8.183594 10.230469 8.148438 10.261719 8.148438 10.261719 L 8.128906 10.4375 L 8.171875 10.46875 L 8.3125 10.546875 C 8.3125 10.546875 8.378906 10.558594 8.402344 10.546875 C 8.421875 10.535156 8.476562 10.570312 8.476562 10.570312 L 8.542969 10.632812 C 8.542969 10.632812 8.585938 10.589844 8.609375 10.578125 C 8.632812 10.570312 8.675781 10.578125 8.675781 10.578125 C 8.675781 10.578125 8.761719 10.679688 8.773438 10.699219 C 8.785156 10.722656 8.796875 10.886719 8.785156 10.90625 C 8.773438 10.929688 8.707031 10.972656 8.707031 11.015625 C 8.707031 11.0625 8.730469 11.160156 8.730469 11.160156 L 8.621094 11.28125 C 8.621094 11.28125 8.542969 11.355469 8.53125 11.390625 C 8.523438 11.421875 8.46875 11.445312 8.433594 11.457031 C 8.402344 11.464844 8.355469 11.488281 8.335938 11.511719 C 8.3125 11.53125 8.191406 11.554688 8.191406 11.554688 L 8.117188 11.683594 L 8.160156 11.828125 C 8.160156 11.828125 8.269531 11.90625 8.28125 11.9375 C 8.292969 11.96875 8.214844 12.089844 8.214844 12.089844 L 8.039062 12.167969 L 7.898438 12.15625 L 7.734375 12.296875 L 7.558594 12.34375 L 7.402344 12.34375 L 7.316406 12.242188 L 7.207031 12.179688 L 7.085938 12.125 L 7.03125 12.132812 L 7.03125 12.289062 L 7.042969 12.332031 C 7.042969 12.332031 6.988281 12.332031 6.964844 12.320312 C 6.945312 12.308594 6.890625 12.289062 6.890625 12.289062 L 6.738281 12.320312 L 6.683594 12.40625 C 6.683594 12.40625 6.683594 12.539062 6.703125 12.5625 C 6.726562 12.582031 6.726562 12.617188 6.757812 12.648438 C 6.792969 12.683594 6.800781 12.703125 6.8125 12.738281 C 6.824219 12.769531 6.78125 12.792969 6.824219 12.835938 C 6.867188 12.878906 6.902344 12.867188 6.910156 12.878906 C 6.921875 12.890625 6.945312 12.910156 6.921875 12.964844 C 6.902344 13.019531 6.867188 13.054688 6.890625 13.085938 C 6.910156 13.121094 6.957031 13.152344 6.988281 13.175781 C 7.019531 13.195312 7.054688 13.230469 7.066406 13.25 C 7.078125 13.273438 7.078125 13.351562 7.078125 13.359375 C 7.078125 13.371094 7.066406 13.65625 7.066406 13.65625 L 7.042969 13.820312 C 7.042969 13.820312 7.023438 13.898438 6.964844 13.941406 C 6.910156 13.984375 6.835938 14.082031 6.835938 14.082031 C 6.835938 14.082031 6.746094 14.238281 6.78125 14.28125 C 6.8125 14.324219 6.855469 14.355469 6.855469 14.367188 C 6.855469 14.378906 6.878906 14.421875 6.855469 14.445312 C 6.835938 14.46875 6.738281 14.511719 6.738281 14.511719 L 6.605469 14.609375 L 6.496094 14.707031 L 6.40625 14.6875 L 6.40625 14.816406 L 6.519531 14.871094 L 6.582031 14.882812 C 6.582031 14.882812 6.550781 14.96875 6.59375 15.003906 C 6.636719 15.035156 6.714844 15.089844 6.714844 15.089844 C 6.714844 15.089844 6.746094 15.167969 6.738281 15.191406 C 6.726562 15.210938 6.648438 15.277344 6.648438 15.277344 L 6.617188 15.375 L 6.59375 15.410156 L 6.59375 15.5625 L 6.714844 15.648438 L 6.824219 15.714844 C 6.824219 15.714844 6.855469 15.824219 6.855469 15.847656 C 6.855469 15.867188 6.902344 15.902344 6.902344 15.914062 C 6.902344 15.921875 6.976562 15.933594 6.976562 15.933594 L 7.042969 16 C 7.042969 16 6.945312 16.132812 6.933594 16.164062 C 6.921875 16.195312 6.910156 16.273438 6.910156 16.273438 L 7 16.394531 L 7.128906 16.425781 L 7.207031 16.472656 C 7.207031 16.472656 7.175781 16.734375 7.195312 16.753906 C 7.21875 16.777344 7.242188 16.832031 7.242188 16.832031 L 7.207031 16.917969 L 7.085938 16.917969 L 7.019531 16.996094 L 6.902344 17.082031 C 6.902344 17.082031 6.746094 17.238281 6.746094 17.269531 C 6.746094 17.304688 6.738281 17.421875 6.738281 17.421875 L 6.660156 17.640625 C 6.660156 17.640625 6.714844 17.785156 6.726562 17.816406 C 6.738281 17.851562 6.757812 17.90625 6.78125 17.925781 C 6.800781 17.949219 6.890625 18.035156 6.890625 18.035156 L 6.910156 18.179688 L 7.042969 18.265625 L 7.175781 18.320312 L 7.285156 18.355469 L 7.382812 18.375 L 7.4375 18.476562 C 7.4375 18.476562 7.40625 18.695312 7.394531 18.703125 C 7.382812 18.714844 7.285156 18.824219 7.285156 18.824219 C 7.285156 18.824219 7.25 18.902344 7.195312 18.988281 C 7.140625 19.078125 7.085938 19.207031 7.085938 19.207031 C 7.085938 19.207031 7.054688 19.308594 7.054688 19.328125 C 7.054688 19.351562 7.03125 19.425781 7.03125 19.425781 C 7.03125 19.425781 7.132812 19.460938 7.140625 19.449219 C 7.152344 19.4375 7.195312 19.425781 7.195312 19.425781 L 7.296875 19.449219 L 7.359375 19.535156 C 7.359375 19.535156 7.460938 19.644531 7.46875 19.644531 C 7.480469 19.644531 7.503906 19.808594 7.503906 19.808594 L 7.523438 19.886719 L 7.578125 19.964844 L 7.613281 20.019531 C 7.613281 20.019531 7.613281 20.117188 7.625 20.140625 C 7.632812 20.160156 7.65625 20.226562 7.65625 20.226562 L 7.722656 20.335938 L 7.832031 20.402344 L 7.964844 20.378906 L 8.007812 20.257812 L 8.039062 20.203125 L 8.160156 20.214844 L 8.269531 20.292969 C 8.269531 20.292969 8.324219 20.367188 8.324219 20.390625 C 8.324219 20.414062 8.347656 20.488281 8.347656 20.488281 L 8.390625 20.535156 L 8.476562 20.5 L 8.554688 20.5 C 8.554688 20.5 8.632812 20.554688 8.640625 20.554688 C 8.652344 20.554688 8.796875 20.542969 8.796875 20.542969 L 8.90625 20.46875 L 8.992188 20.390625 L 9.101562 20.390625 C 9.101562 20.390625 9.1875 20.457031 9.1875 20.46875 C 9.1875 20.480469 9.308594 20.609375 9.308594 20.609375 L 9.441406 20.707031 L 9.617188 20.773438 L 9.800781 20.773438 C 9.800781 20.773438 9.945312 20.753906 9.957031 20.761719 C 9.96875 20.773438 10.078125 20.796875 10.078125 20.796875 L 10.273438 20.871094 L 10.414062 20.980469 L 10.570312 21.015625 L 10.679688 21.082031 L 10.523438 21.277344 C 10.523438 21.277344 10.515625 21.300781 10.46875 21.375 C 10.425781 21.453125 10.40625 21.5625 10.394531 21.585938 C 10.382812 21.605469 10.296875 21.640625 10.296875 21.640625 L 10.230469 21.695312 L 10.121094 21.78125 C 10.121094 21.78125 10.078125 21.871094 10.066406 21.890625 C 10.054688 21.914062 9.890625 21.988281 9.890625 21.988281 L 9.835938 22.066406 L 9.800781 22.261719 L 9.792969 22.394531 L 9.691406 22.539062 C 9.691406 22.539062 9.648438 22.691406 9.660156 22.722656 C 9.671875 22.757812 9.703125 22.84375 9.703125 22.84375 L 9.660156 22.953125 L 9.582031 23.019531 L 9.5625 23.152344 L 9.484375 23.25 C 9.484375 23.25 9.398438 23.402344 9.386719 23.414062 C 9.375 23.425781 9.308594 23.609375 9.308594 23.609375 C 9.308594 23.609375 9.300781 23.773438 9.308594 23.796875 C 9.320312 23.820312 9.386719 23.894531 9.398438 23.917969 C 9.410156 23.9375 9.410156 24.046875 9.410156 24.046875 C 9.410156 24.046875 9.34375 24.101562 9.34375 24.113281 C 9.34375 24.125 9.308594 24.203125 9.308594 24.203125 L 9.277344 24.257812 L 9.253906 24.386719 L 9.191406 24.574219 L 9.191406 24.714844 C 9.191406 24.714844 9.167969 24.804688 9.167969 24.824219 C 9.167969 24.847656 9.234375 24.96875 9.234375 24.96875 L 9.277344 25.078125 L 9.332031 25.144531 L 9.398438 25.199219 C 9.398438 25.199219 9.484375 25.199219 9.519531 25.1875 C 9.550781 25.175781 9.582031 25.144531 9.582031 25.144531 L 9.660156 25.089844 L 9.757812 25.042969 L 9.8125 25.078125 L 9.867188 25.132812 L 9.914062 25.199219 L 10 25.21875 L 10.164062 25.210938 L 10.25 25.1875 L 10.351562 25.15625 L 10.4375 25.078125 L 10.558594 25.011719 L 10.644531 25.054688 L 10.710938 25.121094 L 10.800781 25.144531 L 10.984375 25.164062 C 10.984375 25.164062 11.039062 25.121094 11.0625 25.097656 C 11.082031 25.078125 11.183594 25.066406 11.183594 25.066406 L 11.292969 25.011719 L 11.304688 24.925781 L 11.183594 24.933594 L 11.082031 24.988281 L 11.007812 25 L 10.910156 24.933594 C 10.910156 24.933594 10.863281 24.902344 10.863281 24.871094 C 10.863281 24.835938 10.875 24.792969 10.886719 24.78125 C 10.898438 24.769531 10.941406 24.761719 10.964844 24.75 C 10.984375 24.738281 11.027344 24.707031 11.027344 24.707031 L 11.0625 24.640625 L 11.117188 24.574219 L 11.195312 24.5625 C 11.195312 24.5625 11.238281 24.496094 11.28125 24.496094 C 11.324219 24.496094 11.367188 24.519531 11.367188 24.519531 L 11.367188 24.617188 L 11.445312 24.574219 L 11.5 24.585938 C 11.5 24.585938 11.5 24.628906 11.511719 24.628906 C 11.523438 24.628906 11.578125 24.652344 11.578125 24.652344 C 11.578125 24.652344 11.609375 24.652344 11.609375 24.660156 C 11.609375 24.671875 11.554688 24.726562 11.554688 24.726562 L 11.585938 24.804688 L 11.664062 24.847656 C 11.664062 24.847656 11.6875 24.914062 11.695312 24.847656 C 11.707031 24.78125 11.773438 24.75 11.773438 24.75 L 11.816406 24.792969 L 11.863281 24.933594 L 12.015625 24.933594 L 12.199219 24.878906 L 12.375 24.890625 L 12.441406 24.988281 L 12.496094 25.046875 L 12.640625 25.15625 C 12.640625 25.15625 12.835938 25.21875 12.867188 25.21875 C 12.902344 25.21875 13.054688 25.253906 13.054688 25.253906 L 13.207031 25.328125 L 13.261719 25.375 L 13.351562 25.40625 C 13.351562 25.40625 13.472656 25.449219 13.503906 25.40625 C 13.535156 25.363281 13.582031 25.308594 13.601562 25.296875 C 13.625 25.285156 13.691406 25.210938 13.691406 25.210938 L 13.789062 25.199219 L 13.910156 25.320312 L 14.050781 25.375 L 14.15625 25.40625 L 14.214844 25.449219 C 14.214844 25.449219 14.269531 25.472656 14.269531 25.515625 C 14.269531 25.558594 14.292969 25.648438 14.292969 25.667969 C 14.292969 25.691406 14.324219 25.800781 14.335938 25.8125 C 14.347656 25.824219 14.425781 25.84375 14.425781 25.84375 L 14.535156 25.8125 L 14.578125 25.878906 L 14.542969 26.03125 L 14.554688 26.128906 L 14.773438 26.074219 C 14.773438 26.074219 14.925781 25.964844 14.980469 25.886719 C 15.039062 25.8125 15.082031 25.703125 15.082031 25.703125 C 15.082031 25.703125 15.113281 25.59375 15.101562 25.546875 C 15.09375 25.503906 15.046875 25.394531 15.046875 25.394531 C 15.046875 25.394531 15.046875 25.253906 15.058594 25.242188 C 15.070312 25.230469 15.15625 25.230469 15.15625 25.230469 C 15.15625 25.230469 15.234375 25.351562 15.265625 25.339844 C 15.300781 25.328125 15.421875 25.285156 15.421875 25.285156 L 15.574219 25.285156 L 15.695312 25.363281 L 15.824219 25.351562 L 15.957031 25.351562 C 15.957031 25.351562 15.96875 25.492188 15.988281 25.515625 C 16.011719 25.539062 16.109375 25.625 16.109375 25.625 C 16.109375 25.625 16.121094 25.722656 16.152344 25.734375 C 16.1875 25.746094 16.316406 25.746094 16.316406 25.746094 C 16.316406 25.746094 16.527344 25.710938 16.546875 25.667969 C 16.570312 25.625 16.613281 25.613281 16.613281 25.613281 L 16.703125 25.691406 C 16.703125 25.691406 16.921875 25.648438 16.929688 25.625 C 16.941406 25.601562 16.976562 25.527344 16.984375 25.492188 C 16.996094 25.460938 17.019531 25.429688 17.019531 25.429688 L 17.195312 25.382812 L 17.371094 25.328125 C 17.371094 25.328125 17.433594 25.199219 17.445312 25.199219 C 17.457031 25.199219 17.566406 25.152344 17.566406 25.152344 L 17.753906 25.164062 L 17.9375 25.164062 L 18.082031 25.097656 L 18.257812 25.078125 L 18.433594 25.089844 C 18.433594 25.089844 18.519531 25.078125 18.53125 25.066406 C 18.542969 25.054688 18.496094 24.914062 18.496094 24.902344 C 18.496094 24.890625 18.476562 24.816406 18.488281 24.804688 C 18.496094 24.792969 18.488281 24.742188 18.53125 24.722656 C 18.574219 24.707031 18.769531 24.640625 18.769531 24.640625 L 18.769531 24.734375 C 18.769531 24.734375 18.824219 24.78125 18.847656 24.792969 C 18.871094 24.804688 18.980469 24.816406 18.980469 24.816406 L 19.1875 24.878906 L 19.230469 24.945312 L 19.492188 24.878906 C 19.492188 24.878906 19.570312 24.804688 19.59375 24.804688 C 19.613281 24.804688 19.714844 24.871094 19.714844 24.890625 C 19.714844 24.914062 19.722656 24.957031 19.734375 24.988281 C 19.746094 25.023438 19.832031 25.132812 19.832031 25.132812 L 19.953125 25.230469 C 19.953125 25.230469 19.988281 25.273438 19.996094 25.296875 C 20.007812 25.320312 20.0625 25.363281 20.0625 25.363281 C 20.0625 25.363281 20.152344 25.394531 20.160156 25.394531 C 20.171875 25.394531 20.214844 25.394531 20.214844 25.394531 C 20.214844 25.394531 20.292969 25.40625 20.292969 25.375 C 20.292969 25.339844 20.292969 25.296875 20.304688 25.265625 C 20.316406 25.230469 20.316406 25.164062 20.335938 25.121094 C 20.359375 25.078125 20.382812 24.945312 20.382812 24.945312 L 20.335938 24.78125 L 20.226562 24.707031 L 19.996094 24.707031 L 19.921875 24.671875 L 19.964844 24.574219 C 19.964844 24.574219 20.0625 24.464844 20.074219 24.441406 C 20.085938 24.421875 20.117188 24.398438 20.117188 24.355469 C 20.117188 24.3125 20.117188 24.203125 20.117188 24.203125 C 20.117188 24.203125 20.03125 24.015625 20.007812 24.003906 C 19.988281 23.992188 19.921875 23.882812 19.878906 23.875 C 19.832031 23.863281 19.722656 23.808594 19.703125 23.796875 C 19.679688 23.785156 19.605469 23.71875 19.605469 23.71875 L 19.570312 23.652344 L 19.660156 23.488281 C 19.660156 23.488281 19.8125 23.378906 19.824219 23.371094 C 19.832031 23.359375 20.007812 23.207031 20.007812 23.207031 L 20.152344 23.117188 C 20.152344 23.117188 20.238281 22.976562 20.261719 22.976562 C 20.28125 22.976562 20.4375 22.984375 20.457031 22.976562 C 20.480469 22.964844 20.578125 22.953125 20.65625 22.910156 C 20.730469 22.867188 20.839844 22.757812 20.839844 22.757812 C 20.839844 22.757812 20.882812 22.734375 20.894531 22.636719 C 20.90625 22.539062 20.90625 22.449219 20.917969 22.382812 C 20.929688 22.316406 20.972656 22.152344 20.972656 22.152344 C 20.972656 22.152344 20.972656 22.054688 21.050781 22.042969 C 21.125 22.035156 21.191406 22.042969 21.214844 22.054688 C 21.234375 22.066406 21.277344 22.078125 21.332031 22.097656 C 21.386719 22.121094 21.542969 22.164062 21.574219 22.152344 C 21.609375 22.144531 21.726562 22.042969 21.726562 22.023438 C 21.726562 22 21.707031 21.925781 21.707031 21.878906 C 21.707031 21.835938 21.671875 21.648438 21.671875 21.628906 C 21.671875 21.605469 21.695312 21.484375 21.695312 21.484375 C 21.695312 21.484375 21.617188 21.234375 21.585938 21.222656 C 21.550781 21.210938 21.476562 21.179688 21.476562 21.179688 L 21.378906 21.15625 L 21.273438 21 L 21.175781 20.867188 C 21.175781 20.867188 21.066406 20.84375 21.054688 20.867188 C 21.042969 20.890625 21.011719 20.921875 21.011719 20.921875 L 20.910156 20.890625 L 20.847656 20.800781 C 20.847656 20.800781 20.8125 20.714844 20.800781 20.691406 C 20.792969 20.671875 20.757812 20.617188 20.738281 20.59375 C 20.714844 20.570312 20.648438 20.539062 20.628906 20.527344 C 20.605469 20.515625 20.507812 20.496094 20.484375 20.496094 C 20.464844 20.496094 20.429688 20.460938 20.429688 20.460938 L 20.375 20.363281 L 20.289062 20.265625 L 20.1875 20.167969 C 20.1875 20.167969 20.132812 20.132812 20.125 20.101562 C 20.113281 20.066406 20.023438 19.96875 20.023438 19.96875 L 19.894531 19.882812 L 19.796875 19.847656 L 19.664062 19.847656 C 19.664062 19.847656 19.511719 19.847656 19.511719 19.828125 C 19.511719 19.804688 19.5 19.71875 19.476562 19.683594 C 19.457031 19.652344 19.378906 19.574219 19.367188 19.5625 C 19.355469 19.554688 19.335938 19.488281 19.324219 19.464844 C 19.3125 19.445312 19.28125 19.367188 19.269531 19.34375 C 19.257812 19.324219 19.203125 19.269531 19.191406 19.246094 C 19.183594 19.226562 19.171875 19.125 19.171875 19.125 C 19.171875 19.125 19.136719 19.039062 19.128906 19.039062 C 19.117188 19.039062 19.050781 18.984375 19.050781 18.984375 L 18.984375 18.851562 C 18.984375 18.851562 18.929688 18.820312 18.898438 18.785156 C 18.863281 18.753906 18.808594 18.699219 18.808594 18.675781 C 18.808594 18.65625 18.84375 18.644531 18.851562 18.621094 C 18.863281 18.601562 18.898438 18.511719 18.898438 18.511719 C 18.898438 18.511719 18.898438 18.382812 18.910156 18.371094 C 18.917969 18.359375 18.996094 18.292969 19.019531 18.273438 C 19.039062 18.25 19.050781 18.195312 19.050781 18.195312 C 19.050781 18.195312 18.996094 18.140625 18.972656 18.109375 C 18.953125 18.074219 18.910156 17.976562 18.910156 17.976562 L 18.796875 17.933594 L 18.6875 17.84375 C 18.6875 17.84375 18.578125 17.78125 18.558594 17.769531 C 18.535156 17.757812 18.46875 17.691406 18.460938 17.679688 C 18.449219 17.667969 18.359375 17.550781 18.359375 17.550781 L 18.351562 17.417969 C 18.351562 17.417969 18.25 17.332031 18.242188 17.308594 C 18.230469 17.285156 18.183594 17.230469 18.183594 17.210938 C 18.183594 17.1875 18.21875 17.132812 18.21875 17.113281 C 18.21875 17.089844 18.195312 17.035156 18.21875 17.023438 C 18.238281 17.011719 18.273438 17 18.296875 17.011719 C 18.316406 17.023438 18.339844 17.078125 18.359375 17.101562 C 18.382812 17.121094 18.4375 17.175781 18.460938 17.210938 C 18.480469 17.242188 18.480469 17.332031 18.515625 17.386719 C 18.546875 17.441406 18.546875 17.449219 18.570312 17.449219 C 18.589844 17.449219 18.632812 17.40625 18.632812 17.40625 L 18.667969 17.265625 L 18.6875 17.109375 C 18.6875 17.109375 18.722656 17.011719 18.742188 16.96875 C 18.765625 16.925781 18.796875 16.859375 18.796875 16.859375 L 19.019531 16.761719 L 19.214844 16.664062 C 19.214844 16.664062 19.300781 16.71875 19.335938 16.664062 C 19.367188 16.609375 19.476562 16.542969 19.476562 16.542969 L 19.675781 16.597656 L 19.785156 16.640625 L 19.871094 16.542969 L 19.894531 16.410156 C 19.894531 16.410156 19.949219 16.34375 20.003906 16.367188 C 20.058594 16.386719 20.15625 16.398438 20.15625 16.398438 L 20.242188 16.269531 L 20.265625 16.125 L 20.320312 16.082031 L 20.464844 16.125 L 20.527344 15.960938 C 20.527344 15.960938 20.648438 15.984375 20.660156 16.003906 C 20.671875 16.027344 20.726562 16.050781 20.726562 16.050781 C 20.726562 16.050781 20.792969 16.050781 20.800781 15.996094 C 20.8125 15.941406 20.8125 15.839844 20.8125 15.839844 C 20.8125 15.839844 20.78125 15.699219 20.824219 15.699219 C 20.867188 15.699219 21.042969 15.6875 21.066406 15.6875 C 21.085938 15.6875 21.207031 15.6875 21.207031 15.6875 C 21.207031 15.6875 21.382812 15.664062 21.414062 15.65625 C 21.449219 15.644531 21.480469 15.609375 21.480469 15.609375 C 21.480469 15.609375 21.570312 15.492188 21.570312 15.480469 C 21.570312 15.46875 21.613281 15.425781 21.613281 15.425781 C 21.613281 15.425781 21.765625 15.371094 21.789062 15.371094 C 21.808594 15.371094 21.917969 15.347656 21.917969 15.347656 L 22.027344 15.214844 C 22.027344 15.214844 22.128906 15.152344 22.148438 15.152344 C 22.171875 15.152344 22.257812 15.152344 22.257812 15.152344 L 22.378906 15.152344 C 22.378906 15.152344 22.457031 15.085938 22.445312 15.0625 C 22.433594 15.042969 22.378906 14.976562 22.378906 14.976562 C 22.378906 14.976562 22.3125 14.878906 22.292969 14.867188 C 22.269531 14.855469 22.226562 14.8125 22.238281 14.777344 C 22.246094 14.746094 22.246094 14.691406 22.269531 14.667969 C 22.292969 14.648438 22.402344 14.625 22.421875 14.636719 C 22.445312 14.648438 22.585938 14.679688 22.609375 14.679688 C 22.632812 14.679688 22.695312 14.703125 22.707031 14.714844 C 22.71875 14.722656 22.730469 14.769531 22.730469 14.769531 C 22.730469 14.769531 22.742188 14.867188 22.742188 14.886719 C 22.742188 14.910156 22.730469 15.007812 22.75 15.019531 C 22.773438 15.03125 22.828125 14.976562 22.839844 14.976562 C 22.851562 14.976562 22.90625 14.964844 22.90625 14.988281 C 22.90625 15.007812 22.871094 15.105469 22.882812 15.128906 C 22.894531 15.152344 22.992188 15.21875 22.992188 15.21875 L 23.136719 15.273438 L 23.222656 15.21875 C 23.222656 15.21875 23.234375 15.0625 23.253906 15.007812 C 23.277344 14.953125 23.300781 14.855469 23.300781 14.855469 L 23.355469 14.757812 L 23.429688 14.472656 L 23.519531 14.296875 L 23.582031 14.046875 C 23.582031 14.046875 23.527344 13.824219 23.496094 13.78125 C 23.464844 13.738281 23.398438 13.542969 23.386719 13.507812 C 23.375 13.476562 23.308594 13.324219 23.308594 13.324219 L 23.125 13.257812 L 22.992188 13.148438 L 22.949219 13.027344 L 22.980469 12.882812 L 22.949219 12.675781 C 22.949219 12.675781 22.839844 12.578125 22.828125 12.554688 C 22.816406 12.535156 22.730469 12.425781 22.730469 12.425781 L 22.621094 12.207031 L 22.6875 12.097656 L 22.761719 11.976562 L 22.761719 11.746094 L 22.816406 11.582031 L 22.742188 11.429688 L 22.730469 11.328125 L 22.742188 11.1875 C 22.742188 11.1875 22.742188 11.035156 22.742188 11.023438 C 22.742188 11.011719 22.652344 10.933594 22.652344 10.933594 L 22.542969 10.847656 L 22.457031 10.671875 L 22.414062 10.507812 L 22.457031 10.386719 C 22.457031 10.386719 22.5 10.34375 22.5 10.277344 C 22.5 10.210938 22.488281 10.070312 22.488281 10.070312 C 22.488281 10.070312 22.359375 9.9375 22.347656 9.929688 C 22.335938 9.917969 22.238281 9.785156 22.238281 9.785156 C 22.238281 9.785156 21.972656 9.5 21.941406 9.480469 C 21.910156 9.457031 21.808594 9.371094 21.765625 9.371094 C 21.722656 9.371094 21.613281 9.324219 21.613281 9.324219 L 21.601562 9.160156 L 21.589844 8.941406 L 21.667969 8.832031 L 21.820312 8.710938 C 21.820312 8.710938 21.953125 8.546875 21.964844 8.527344 C 21.972656 8.503906 21.996094 8.339844 22.007812 8.296875 C 22.019531 8.253906 22.019531 8.042969 22.019531 8.042969 L 22.039062 7.902344 C 22.039062 7.902344 21.996094 7.738281 21.984375 7.714844 C 21.972656 7.695312 21.953125 7.484375 21.953125 7.484375 L 21.84375 7.179688 L 21.820312 6.972656 L 21.765625 6.753906 L 21.699219 6.664062 L 21.65625 6.609375 C 21.65625 6.609375 21.558594 6.609375 21.546875 6.597656 C 21.535156 6.585938 21.492188 6.554688 21.492188 6.523438 C 21.492188 6.488281 21.515625 6.402344 21.515625 6.402344 L 21.578125 6.160156 C 21.578125 6.160156 21.558594 5.996094 21.546875 5.984375 C 21.535156 5.972656 21.425781 5.910156 21.382812 5.863281 C 21.339844 5.820312 21.242188 5.734375 21.207031 5.710938 C 21.175781 5.691406 21.054688 5.636719 21.054688 5.636719 L 20.921875 5.492188 C 20.921875 5.492188 20.878906 5.351562 20.855469 5.339844 C 20.835938 5.328125 20.671875 5.417969 20.648438 5.425781 C 20.628906 5.4375 20.429688 5.582031 20.410156 5.589844 C 20.386719 5.601562 20.417969 5.734375 20.308594 5.601562 C 20.199219 5.472656 20.15625 5.417969 20.15625 5.417969 C 20.15625 5.417969 20.058594 5.382812 20.003906 5.339844 C 19.949219 5.296875 19.839844 5.21875 19.839844 5.21875 L 19.71875 5.195312 C 19.71875 5.195312 19.621094 5.078125 19.609375 5.054688 C 19.597656 5.03125 19.554688 4.847656 19.554688 4.847656 L 19.421875 4.660156 C 19.421875 4.660156 19.300781 4.703125 19.269531 4.738281 C 19.238281 4.769531 19.019531 4.867188 19.019531 4.867188 C 19.019531 4.867188 18.929688 4.792969 18.90625 4.792969 C 18.886719 4.792969 18.820312 4.792969 18.820312 4.792969 L 18.722656 4.824219 L 18.589844 4.921875 C 18.589844 4.921875 18.535156 4.976562 18.503906 5.023438 C 18.46875 5.066406 18.460938 5.132812 18.425781 5.152344 C 18.394531 5.175781 18.316406 5.1875 18.316406 5.152344 C 18.316406 5.121094 18.328125 5.011719 18.328125 5 C 18.328125 4.988281 18.394531 4.867188 18.414062 4.859375 C 18.4375 4.847656 18.601562 4.769531 18.601562 4.769531 C 18.601562 4.769531 18.6875 4.75 18.710938 4.738281 C 18.734375 4.726562 18.917969 4.714844 18.917969 4.714844 C 18.917969 4.714844 19.074219 4.714844 19.09375 4.703125 C 19.117188 4.695312 19.238281 4.671875 19.238281 4.671875 L 19.292969 4.617188 L 19.148438 4.605469 L 18.941406 4.617188 L 18.765625 4.628906 C 18.765625 4.628906 18.679688 4.617188 18.65625 4.617188 C 18.632812 4.617188 18.601562 4.582031 18.601562 4.582031 L 18.535156 4.539062 C 18.535156 4.539062 18.46875 4.582031 18.46875 4.59375 C 18.46875 4.605469 18.40625 4.726562 18.40625 4.726562 C 18.40625 4.726562 18.339844 4.8125 18.316406 4.859375 C 18.296875 4.902344 18.25 5.023438 18.21875 5.054688 C 18.183594 5.085938 18.109375 5.207031 18.109375 5.207031 L 18 5.285156 L 17.921875 5.351562 C 17.921875 5.351562 17.878906 5.371094 17.878906 5.40625 C 17.878906 5.4375 17.890625 5.480469 17.878906 5.515625 C 17.867188 5.546875 17.800781 5.558594 17.792969 5.546875 C 17.78125 5.535156 17.792969 5.472656 17.757812 5.472656 C 17.726562 5.472656 17.574219 5.515625 17.574219 5.515625 L 17.386719 5.570312 L 17.1875 5.570312 L 17.078125 5.589844 C 17.078125 5.589844 16.960938 5.808594 16.9375 5.832031 C 16.914062 5.855469 16.816406 5.910156 16.804688 5.972656 C 16.792969 6.039062 16.738281 6.226562 16.738281 6.226562 L 16.574219 6.238281 C 16.574219 6.238281 16.519531 6.171875 16.457031 6.183594 C 16.390625 6.195312 16.335938 6.183594 16.335938 6.183594 L 16.269531 6.050781 L 16.171875 5.984375 C 16.171875 5.984375 16.171875 5.953125 16.070312 5.984375 C 15.972656 6.019531 15.917969 6.050781 15.863281 6.085938 C 15.808594 6.117188 15.742188 6.195312 15.742188 6.195312 L 15.644531 6.214844 C 15.644531 6.214844 15.589844 6.117188 15.578125 6.09375 C 15.566406 6.074219 15.503906 5.953125 15.503906 5.953125 C 15.503906 5.953125 15.492188 5.820312 15.546875 5.789062 C 15.601562 5.753906 15.667969 5.734375 15.667969 5.734375 C 15.667969 5.734375 15.84375 5.691406 15.886719 5.625 C 15.929688 5.558594 15.984375 5.40625 15.984375 5.40625 L 16.007812 5.195312 C 16.007812 5.195312 16.0625 5.042969 16.082031 5.011719 C 16.105469 4.976562 16.117188 4.890625 16.117188 4.890625 C 16.117188 4.890625 15.996094 4.878906 15.960938 4.914062 C 15.929688 4.945312 15.832031 4.96875 15.789062 4.957031 C 15.742188 4.945312 15.667969 4.933594 15.625 4.976562 C 15.578125 5.023438 15.449219 5.152344 15.449219 5.152344 L 15.316406 5.023438 C 15.316406 5.023438 15.207031 4.878906 15.175781 4.878906 C 15.140625 4.878906 14.976562 4.859375 14.976562 4.859375 L 14.878906 4.792969 C 14.878906 4.792969 14.785156 4.722656 14.746094 4.71875 C 14.703125 4.714844 14.617188 4.769531 14.617188 4.769531 C 14.617188 4.769531 14.484375 4.8125 14.484375 4.847656 C 14.484375 4.878906 14.441406 4.988281 14.441406 4.988281 C 14.441406 4.988281 14.320312 4.957031 14.351562 4.878906 C 14.386719 4.804688 14.429688 4.769531 14.429688 4.726562 C 14.429688 4.683594 14.398438 4.617188 14.398438 4.617188 C 14.398438 4.617188 14.277344 4.617188 14.230469 4.628906 C 14.1875 4.640625 14.035156 4.660156 14.035156 4.660156 C 14.035156 4.660156 13.902344 4.695312 13.949219 4.628906 C 13.992188 4.5625 14.058594 4.507812 14.089844 4.472656 C 14.121094 4.441406 14.210938 4.386719 14.210938 4.300781 C 14.210938 4.210938 14.175781 4.15625 14.175781 4.15625 L 14.132812 4.070312 L 14.023438 4.234375 C 14.023438 4.234375 13.847656 4.375 13.804688 4.417969 C 13.761719 4.464844 13.640625 4.527344 13.640625 4.527344 C 13.640625 4.527344 13.519531 4.574219 13.453125 4.574219 C 13.390625 4.574219 13.34375 4.507812 13.34375 4.507812 L 13.554688 4.410156 L 13.71875 4.308594 C 13.71875 4.308594 13.816406 4.222656 13.847656 4.179688 C 13.882812 4.136719 13.957031 4.101562 13.980469 4.070312 C 14.003906 4.035156 14.058594 3.980469 14.058594 3.980469 L 14.121094 3.90625 L 14.101562 3.816406 L 14.066406 3.761719 Z M 13.976562 3.722656 " fill-opacity="1" fill-rule="nonzero"/></g><path fill="#014d4e" d="M 11.46875 3.777344 C 11.492188 3.777344 11.53125 3.722656 11.53125 3.722656 L 11.640625 3.722656 L 11.71875 3.800781 C 11.71875 3.800781 11.707031 3.921875 11.695312 3.933594 C 11.6875 3.945312 11.640625 3.988281 11.640625 3.988281 C 11.640625 3.988281 11.523438 3.976562 11.488281 3.964844 C 11.457031 3.953125 11.402344 3.953125 11.402344 3.921875 C 11.402344 3.890625 11.40625 3.878906 11.410156 3.855469 C 11.414062 3.835938 11.445312 3.777344 11.46875 3.777344 Z M 11.46875 3.777344 " fill-opacity="1" fill-rule="nonzero"/><path fill="#014d4e" d="M 11.28125 3.964844 L 11.304688 4.019531 C 11.304688 4.019531 11.335938 4.074219 11.347656 4.097656 C 11.359375 4.117188 11.3125 4.179688 11.3125 4.179688 C 11.3125 4.179688 11.257812 4.21875 11.238281 4.164062 C 11.214844 4.109375 11.195312 4.054688 11.195312 4.054688 C 11.195312 4.054688 11.195312 3.976562 11.203125 3.964844 C 11.214844 3.953125 11.238281 3.921875 11.238281 3.921875 L 11.257812 3.921875 Z M 11.28125 3.964844 " fill-opacity="1" fill-rule="nonzero"/><path fill="#014d4e" d="M 11.558594 4.292969 L 11.640625 4.292969 L 11.675781 4.316406 L 11.6875 4.371094 L 11.640625 4.402344 L 11.585938 4.402344 L 11.542969 4.371094 L 11.542969 4.335938 Z M 11.558594 4.292969 " fill-opacity="1" fill-rule="nonzero"/><path fill="#014d4e" d="M 11.488281 4.4375 L 11.445312 4.492188 L 11.445312 4.535156 L 11.46875 4.558594 L 11.5 4.558594 L 11.511719 4.511719 L 11.511719 4.480469 Z M 11.488281 4.4375 " fill-opacity="1" fill-rule="nonzero"/><path fill="#014d4e" d="M 11.6875 4.496094 L 11.71875 4.558594 L 11.785156 4.566406 C 11.785156 4.566406 11.839844 4.566406 11.851562 4.546875 C 11.863281 4.523438 11.875 4.496094 11.875 4.496094 L 11.894531 4.4375 L 11.882812 4.390625 L 11.785156 4.402344 C 11.785156 4.402344 11.71875 4.425781 11.71875 4.4375 C 11.71875 4.449219 11.695312 4.457031 11.695312 4.457031 Z M 11.6875 4.496094 " fill-opacity="1" fill-rule="nonzero"/><path fill="#014d4e" d="M 11.542969 4.691406 C 11.550781 4.703125 11.542969 4.773438 11.542969 4.773438 L 11.511719 4.785156 C 11.511719 4.785156 11.445312 4.773438 11.445312 4.757812 C 11.445312 4.742188 11.429688 4.691406 11.429688 4.691406 L 11.445312 4.648438 L 11.457031 4.632812 C 11.457031 4.632812 11.476562 4.609375 11.542969 4.691406 Z M 11.542969 4.691406 " fill-opacity="1" fill-rule="nonzero"/><path fill="#014d4e" d="M 10.789062 6.867188 L 10.808594 6.824219 L 10.832031 6.800781 L 10.863281 6.824219 C 10.863281 6.824219 10.882812 6.84375 10.882812 6.867188 C 10.886719 6.890625 10.820312 6.921875 10.820312 6.921875 L 10.789062 6.921875 Z M 10.789062 6.867188 " fill-opacity="1" fill-rule="nonzero"/><path fill="#014d4e" d="M 10.492188 6.671875 C 10.472656 6.671875 10.390625 6.671875 10.390625 6.671875 L 10.339844 6.625 C 10.339844 6.625 10.316406 6.609375 10.339844 6.605469 C 10.359375 6.605469 10.414062 6.597656 10.414062 6.597656 L 10.515625 6.59375 L 10.558594 6.625 L 10.558594 6.65625 Z M 10.492188 6.671875 " fill-opacity="1" fill-rule="nonzero"/><path fill="#014d4e" d="M 10.160156 6.632812 C 10.164062 6.636719 10.109375 6.617188 10.109375 6.617188 L 10.058594 6.632812 L 10.023438 6.648438 L 10.011719 6.679688 L 10.011719 6.710938 L 10.078125 6.726562 L 10.152344 6.726562 L 10.21875 6.714844 L 10.261719 6.691406 L 10.269531 6.671875 L 10.21875 6.648438 Z M 10.160156 6.632812 " fill-opacity="1" fill-rule="nonzero"/><path fill="#014d4e" d="M 9.84375 6.671875 L 9.726562 6.671875 L 9.683594 6.691406 L 9.660156 6.757812 L 9.667969 6.800781 L 9.71875 6.800781 L 9.84375 6.738281 C 9.84375 6.738281 9.878906 6.757812 9.890625 6.757812 C 9.902344 6.757812 9.933594 6.746094 9.933594 6.746094 L 9.921875 6.703125 L 9.886719 6.671875 Z M 9.84375 6.671875 " fill-opacity="1" fill-rule="nonzero"/><path fill="#014d4e" d="M 9.5625 6.757812 C 9.550781 6.757812 9.507812 6.746094 9.507812 6.746094 L 9.484375 6.769531 L 9.496094 6.8125 L 9.535156 6.832031 C 9.535156 6.832031 9.5625 6.835938 9.574219 6.835938 C 9.582031 6.835938 9.59375 6.8125 9.59375 6.8125 L 9.582031 6.78125 Z M 9.5625 6.757812 " fill-opacity="1" fill-rule="nonzero"/><path fill="#014d4e" d="M 9.332031 6.769531 L 9.179688 6.769531 L 9.113281 6.789062 L 9.070312 6.84375 L 9.179688 6.855469 L 9.300781 6.855469 L 9.363281 6.84375 L 9.410156 6.824219 L 9.425781 6.789062 L 9.402344 6.769531 Z M 9.332031 6.769531 " fill-opacity="1" fill-rule="nonzero"/><path fill="#014d4e" d="M 8.921875 6.855469 C 8.914062 6.855469 8.804688 6.867188 8.804688 6.867188 L 8.707031 6.878906 L 8.640625 6.867188 L 8.632812 6.898438 L 8.707031 6.921875 C 8.707031 6.921875 8.804688 6.921875 8.828125 6.921875 C 8.851562 6.921875 8.910156 6.921875 8.910156 6.921875 L 8.96875 6.910156 L 8.980469 6.878906 L 8.96875 6.855469 Z M 8.921875 6.855469 " fill-opacity="1" fill-rule="nonzero"/><path fill="#014d4e" d="M 8.632812 6.984375 C 8.632812 6.988281 8.566406 7.007812 8.566406 7.007812 L 8.585938 7.042969 L 8.609375 7.054688 L 8.664062 7.042969 L 8.675781 7.007812 Z M 8.632812 6.984375 " fill-opacity="1" fill-rule="nonzero"/><path fill="#014d4e" d="M 8.363281 7.054688 C 8.355469 7.054688 8.28125 7.0625 8.28125 7.0625 L 8.214844 7.085938 L 8.203125 7.152344 L 8.269531 7.195312 L 8.3125 7.230469 L 8.363281 7.242188 L 8.378906 7.195312 L 8.433594 7.152344 L 8.464844 7.128906 L 8.457031 7.097656 L 8.402344 7.066406 Z M 8.363281 7.054688 " fill-opacity="1" fill-rule="nonzero"/><path fill="#014d4e" d="M 11.851562 5.773438 C 11.839844 5.773438 11.808594 5.78125 11.808594 5.78125 L 11.785156 5.871094 C 11.785156 5.871094 11.796875 5.914062 11.808594 5.925781 C 11.816406 5.9375 11.871094 5.949219 11.871094 5.949219 L 11.894531 5.902344 L 11.894531 5.839844 Z M 11.851562 5.773438 " fill-opacity="1" fill-rule="nonzero"/><path fill="#014d4e" d="M 16.199219 4.4375 C 16.1875 4.425781 16.066406 4.4375 16.066406 4.4375 C 16.066406 4.4375 15.933594 4.46875 15.914062 4.511719 C 15.890625 4.558594 15.878906 4.621094 15.878906 4.621094 L 15.980469 4.699219 L 16.054688 4.777344 L 16.144531 4.808594 L 16.316406 4.820312 L 16.375 4.710938 C 16.375 4.710938 16.363281 4.589844 16.339844 4.566406 C 16.320312 4.546875 16.273438 4.5 16.273438 4.5 Z M 16.199219 4.4375 " fill-opacity="1" fill-rule="nonzero"/><path fill="#014d4e" d="M 19.777344 4.796875 C 19.769531 4.796875 19.613281 4.808594 19.601562 4.839844 C 19.59375 4.875 19.648438 4.984375 19.648438 4.984375 C 19.648438 4.984375 19.777344 5.105469 19.800781 5.125 C 19.824219 5.148438 19.910156 5.171875 19.910156 5.171875 L 20.007812 5.191406 C 20.007812 5.191406 20.074219 5.226562 20.085938 5.179688 C 20.097656 5.136719 20.097656 5.070312 20.128906 5.027344 C 20.160156 4.984375 20.195312 4.917969 20.226562 4.90625 C 20.261719 4.894531 20.316406 4.886719 20.316406 4.886719 L 20.378906 4.917969 L 20.402344 4.949219 C 20.402344 4.949219 20.433594 4.984375 20.46875 5 C 20.5 5.015625 20.550781 5 20.550781 5 C 20.550781 5 20.566406 5.050781 20.589844 5.058594 C 20.609375 5.070312 20.664062 5.117188 20.675781 5.070312 C 20.6875 5.027344 20.664062 4.996094 20.6875 4.960938 C 20.710938 4.929688 20.730469 4.875 20.730469 4.875 L 20.632812 4.777344 L 20.492188 4.753906 L 20.335938 4.65625 C 20.335938 4.65625 20.335938 4.574219 20.382812 4.519531 C 20.425781 4.46875 20.511719 4.347656 20.511719 4.347656 C 20.511719 4.347656 20.546875 4.195312 20.523438 4.171875 C 20.5 4.152344 20.324219 4.164062 20.324219 4.164062 C 20.324219 4.164062 20.195312 4.195312 20.152344 4.195312 C 20.105469 4.195312 20.0625 4.183594 20.042969 4.140625 C 20.019531 4.097656 19.996094 4.03125 20.019531 4.007812 C 20.042969 3.988281 20.0625 3.910156 20.0625 3.910156 L 19.996094 3.855469 L 19.800781 3.921875 C 19.800781 3.921875 19.734375 4 19.757812 4.019531 C 19.84375 4.097656 19.757812 4.21875 19.800781 4.238281 C 19.84375 4.261719 19.941406 4.164062 19.941406 4.164062 L 19.996094 4.238281 L 20.0625 4.25 C 20.0625 4.25 20.171875 4.261719 20.183594 4.261719 C 20.195312 4.261719 20.25 4.261719 20.25 4.261719 L 20.261719 4.304688 L 20.273438 4.328125 C 20.273438 4.328125 20.261719 4.382812 20.261719 4.402344 C 20.261719 4.425781 20.25 4.457031 20.226562 4.46875 C 20.207031 4.480469 20.128906 4.46875 20.128906 4.46875 C 20.128906 4.46875 20.097656 4.425781 20.085938 4.390625 C 20.074219 4.359375 20.042969 4.316406 20.042969 4.316406 L 19.988281 4.347656 C 19.988281 4.347656 19.933594 4.371094 19.933594 4.347656 C 19.933594 4.328125 19.921875 4.261719 19.910156 4.261719 C 19.898438 4.261719 19.878906 4.328125 19.878906 4.328125 C 19.878906 4.328125 19.867188 4.371094 19.824219 4.335938 C 19.777344 4.304688 19.757812 4.28125 19.757812 4.28125 L 19.691406 4.28125 C 19.691406 4.28125 19.601562 4.304688 19.601562 4.335938 C 19.601562 4.371094 19.660156 4.4375 19.660156 4.4375 C 19.660156 4.4375 19.777344 4.445312 19.824219 4.457031 C 19.867188 4.46875 19.828125 4.53125 19.828125 4.53125 L 19.777344 4.558594 L 19.722656 4.578125 C 19.722656 4.578125 19.691406 4.613281 19.691406 4.621094 C 19.691406 4.632812 19.722656 4.667969 19.722656 4.667969 L 19.757812 4.675781 Z M 19.777344 4.796875 " fill-opacity="1" fill-rule="nonzero"/></svg>