<svg xmlns="http://www.w3.org/2000/svg" xmlns:xlink="http://www.w3.org/1999/xlink" width="40" zoomAndPan="magnify" viewBox="0 0 30 30.000001" height="40" preserveAspectRatio="xMidYMid meet" version="1.0"><defs><clipPath id="382ba33b89"><path d="M 7.355469 3 L 22.597656 3 L 22.597656 26 L 7.355469 26 Z M 7.355469 3 " clip-rule="nonzero"/></clipPath></defs><g clip-path="url(#382ba33b89)"><path fill="#014d4e" d="M 14.996094 3.042969 C 10.773438 3.042969 7.351562 6.46875 7.351562 10.6875 C 7.351562 14.910156 14.996094 25.972656 14.996094 25.972656 C 14.996094 25.972656 22.636719 14.910156 22.636719 10.6875 C 22.636719 6.46875 19.214844 3.042969 14.996094 3.042969 Z M 14.996094 14.308594 C 12.773438 14.308594 10.972656 12.507812 10.972656 10.285156 C 10.972656 8.066406 12.773438 6.265625 14.996094 6.265625 C 17.214844 6.265625 19.015625 8.066406 19.015625 10.285156 C 19.015625 12.507812 17.214844 14.308594 14.996094 14.308594 Z M 14.996094 14.308594 " fill-opacity="1" fill-rule="nonzero"/></g></svg>