<svg xmlns="http://www.w3.org/2000/svg" xmlns:xlink="http://www.w3.org/1999/xlink" width="40" zoomAndPan="magnify" viewBox="0 0 30 30.000001" height="40" preserveAspectRatio="xMidYMid meet" version="1.0"><defs><clipPath id="0e675a95a8"><path d="M 4.519531 13 L 17 13 L 17 26.128906 L 4.519531 26.128906 Z M 4.519531 13 " clip-rule="nonzero"/></clipPath><clipPath id="69f2dd7dfa"><path d="M 15.859375 2.902344 L 25.472656 2.902344 L 25.472656 14.140625 L 15.859375 14.140625 Z M 15.859375 2.902344 " clip-rule="nonzero"/></clipPath></defs><path fill="#014d4e" d="M 12.460938 16.921875 L 12.683594 17.175781 L 13.160156 17.511719 L 13.441406 17.679688 L 13.625 17.71875 L 13.890625 17.878906 L 14.03125 17.828125 L 14.054688 17.769531 L 14.054688 17.667969 L 14.078125 17.648438 L 14.164062 17.625 L 14.199219 17.636719 L 14.203125 17.652344 L 14.1875 17.703125 L 14.140625 17.71875 L 14.214844 17.78125 L 14.207031 17.832031 L 14.265625 17.878906 L 14.296875 17.914062 L 14.292969 17.949219 L 14.136719 17.945312 L 14.191406 17.988281 L 14.144531 18.078125 L 14.070312 18.109375 L 14.074219 18.152344 L 14.109375 18.21875 L 14.15625 18.28125 L 14.230469 18.328125 L 14.390625 18.417969 L 14.519531 18.539062 L 14.535156 18.585938 L 14.585938 18.632812 L 14.664062 18.628906 L 14.6875 18.679688 L 14.71875 18.699219 L 14.761719 18.691406 L 14.84375 18.761719 L 14.863281 18.804688 L 14.894531 18.824219 L 14.964844 18.878906 L 15.070312 18.96875 L 15.121094 18.996094 L 15.222656 19 L 15.25 18.976562 L 15.390625 19.011719 L 15.433594 18.980469 L 15.5 18.945312 L 15.558594 18.878906 L 15.546875 18.804688 L 15.582031 18.761719 L 15.703125 18.8125 L 15.839844 18.816406 L 15.984375 18.851562 L 16.070312 18.855469 L 16.171875 18.875 L 16.203125 18.863281 L 16.1875 18.796875 L 16.277344 18.753906 L 16.273438 18.730469 L 16.199219 18.746094 L 16.191406 18.726562 L 16.199219 18.617188 L 16.238281 18.570312 L 16.226562 18.53125 L 16.203125 18.503906 L 16.15625 18.472656 L 16.078125 18.460938 L 16.042969 18.417969 L 15.972656 18.421875 L 15.910156 18.371094 L 15.890625 18.320312 L 15.839844 18.246094 L 15.859375 18.171875 L 15.894531 18.15625 L 15.949219 18.164062 L 16.042969 18.148438 L 16.042969 18.09375 L 16.097656 18.085938 L 16.097656 18.050781 L 16.164062 17.933594 L 16.179688 17.929688 L 16.230469 18.011719 L 16.300781 18.03125 L 16.390625 17.992188 L 16.410156 17.953125 L 16.492188 17.933594 L 16.570312 17.929688 L 16.617188 17.867188 L 16.863281 17.808594 L 16.941406 17.8125 L 17.027344 17.6875 L 17.199219 17.746094 L 17.28125 17.734375 L 17.339844 17.695312 L 17.410156 17.699219 L 17.464844 17.660156 L 17.523438 17.601562 L 17.527344 17.535156 L 17.558594 17.519531 L 17.601562 17.539062 L 17.632812 17.453125 L 17.667969 17.429688 L 17.773438 17.464844 L 17.851562 17.445312 L 17.875 17.480469 L 17.945312 17.484375 L 18.003906 17.429688 L 18.082031 17.441406 L 18.226562 17.441406 L 18.277344 17.425781 L 18.300781 17.378906 L 18.300781 17.351562 L 18.261719 17.3125 L 18.277344 17.269531 L 18.386719 17.429688 L 18.507812 17.390625 L 18.527344 17.453125 L 18.574219 17.449219 L 18.597656 17.425781 L 18.695312 17.46875 L 18.746094 17.460938 L 18.875 17.425781 L 18.925781 17.398438 L 19.039062 17.371094 L 19.1875 17.386719 L 19.296875 17.351562 L 19.355469 17.359375 L 19.355469 18.15625 L 21.90625 18.128906 L 21.917969 18.179688 L 21.953125 18.222656 L 22.027344 18.242188 L 22.132812 18.230469 L 22.207031 18.1875 L 22.28125 18.167969 L 22.402344 18.171875 L 22.53125 18.148438 L 22.566406 18.261719 L 22.628906 18.339844 L 22.621094 18.359375 L 22.652344 18.375 L 22.644531 18.414062 L 22.667969 18.421875 L 22.683594 18.402344 L 22.726562 18.429688 L 22.75 18.417969 L 22.859375 18.464844 L 22.882812 18.4375 L 22.828125 18.390625 L 22.816406 18.417969 L 22.769531 18.40625 L 22.742188 18.390625 L 22.671875 18.390625 L 22.679688 18.363281 L 22.789062 18.367188 L 22.820312 18.332031 L 22.910156 18.378906 L 22.960938 18.4375 L 23.007812 18.464844 L 23.058594 18.5 L 23.082031 18.542969 L 23.191406 18.652344 L 23.207031 18.839844 L 23.304688 18.9375 L 23.304688 18.976562 L 23.367188 19.035156 L 23.457031 19.066406 L 23 19.792969 L 21.074219 18.878906 L 20.574219 18.957031 L 19.078125 19.246094 L 18.359375 20.589844 L 16.03125 21.964844 L 15.867188 21.980469 L 13.808594 22.015625 L 11.929688 20.21875 L 11.722656 17.738281 L 12.253906 17.089844 L 12.460938 16.921875 " fill-opacity="1" fill-rule="nonzero"/><path fill="#014d4e" d="M 20.5625 23.726562 L 20.261719 24.234375 L 20.1875 24.335938 L 19.988281 24.71875 L 19.679688 25.199219 L 19.5625 25.191406 L 19.152344 25.265625 L 18.988281 25.339844 L 18.796875 25.382812 L 18.710938 25.386719 L 18.644531 25.339844 L 18.613281 25.347656 L 18.5625 25.390625 L 18.496094 25.394531 L 18.4375 25.363281 L 18.371094 25.246094 L 18.304688 25.261719 L 18.210938 25.222656 L 18.105469 25.226562 L 17.96875 25.199219 L 17.558594 25.171875 L 17.503906 25.148438 L 17.464844 25.015625 L 17.410156 24.917969 L 17.40625 24.867188 L 17.449219 24.738281 L 17.414062 24.667969 L 17.402344 24.566406 L 17.289062 24.414062 L 17.257812 24.28125 L 17.203125 24.238281 L 17.148438 24.214844 L 17.121094 24.058594 L 17.023438 23.976562 L 16.949219 23.988281 L 16.921875 24.113281 L 16.859375 24.152344 L 16.777344 24.101562 L 16.730469 24.109375 L 16.671875 24.140625 L 16.617188 24.140625 L 16.507812 24.210938 L 16.210938 24.277344 L 16.167969 24.199219 L 16.101562 24.140625 L 15.871094 23.984375 L 15.785156 24 L 15.6875 23.867188 L 15.507812 23.765625 L 15.414062 23.785156 L 15.265625 23.90625 L 15.199219 23.9375 L 15.195312 22.484375 L 15.875 22.058594 L 18.359375 20.589844 L 19.078125 19.246094 L 20.574219 18.957031 L 21.074219 18.878906 L 23 19.796875 L 22.277344 20.976562 L 22.183594 21.105469 L 22.15625 21.179688 L 21.972656 21.449219 L 21.761719 21.816406 L 21.292969 22.550781 L 21.210938 22.707031 L 21.070312 22.90625 L 20.5625 23.726562 " fill-opacity="1" fill-rule="nonzero"/><g clip-path="url(#0e675a95a8)"><path fill="#014d4e" d="M 12.460938 16.921875 L 12.253906 17.089844 L 11.722656 17.738281 L 11.929688 20.21875 L 13.808594 22.015625 L 15.867188 21.980469 L 16.03125 21.964844 L 15.875 22.058594 L 15.195312 22.484375 L 15.199219 23.9375 L 15.179688 23.976562 L 15.175781 24.066406 L 15.152344 24.085938 L 14.890625 24.15625 L 14.605469 24.261719 L 14.453125 24.289062 L 13.902344 24.484375 L 12.867188 25.21875 L 12.816406 25.234375 L 12.085938 25.023438 L 12.003906 25.046875 L 11.992188 25.128906 L 11.890625 25.183594 L 11.523438 25.132812 L 11.464844 25.097656 L 11.273438 25.148438 L 11.132812 25.167969 L 11.0625 25.203125 L 11.035156 25.230469 L 11.03125 25.28125 L 10.972656 25.328125 L 10.867188 25.367188 L 10.089844 25.4375 L 9.980469 25.460938 L 9.945312 25.429688 L 9.957031 25.390625 L 9.917969 25.351562 L 9.875 25.335938 L 9.546875 25.3125 L 9.5 25.339844 L 9.417969 25.339844 L 9.351562 25.371094 L 9.316406 25.371094 L 9.289062 25.324219 L 9.335938 25.265625 L 9.296875 25.242188 L 9.203125 25.277344 L 9.121094 25.351562 L 8.855469 25.375 L 8.789062 25.539062 L 8.5625 25.539062 L 8.429688 25.753906 L 8.398438 25.839844 L 8.179688 25.851562 L 8.042969 25.8125 L 7.691406 25.992188 L 7.605469 25.996094 L 7.21875 25.945312 L 7 26.113281 L 6.929688 26.128906 L 6.851562 26.125 L 6.726562 25.929688 L 6.664062 25.871094 L 6.488281 25.796875 L 6.164062 25.753906 L 6.023438 25.707031 L 5.710938 25.65625 L 5.613281 25.617188 L 5.222656 25.585938 L 5.171875 25.472656 L 5.125 25.441406 L 4.855469 25.414062 L 4.824219 25.359375 L 4.78125 25.203125 L 4.785156 25.117188 L 4.828125 25.050781 L 4.949219 24.957031 L 5.03125 24.234375 L 5.066406 23.25 L 5.105469 23.007812 L 5.128906 21.730469 L 5.078125 20.914062 L 5.011719 20.464844 L 4.929688 20.238281 L 4.582031 18.808594 L 4.550781 18.660156 L 4.5625 18.605469 L 4.523438 18.507812 L 4.546875 18.386719 L 4.726562 18.054688 L 4.75 17.96875 L 4.890625 17.769531 L 4.875 17.566406 L 4.917969 17.417969 L 4.953125 17.324219 L 5.082031 17.132812 L 5.03125 16.960938 L 5.050781 16.789062 L 5.199219 16.394531 L 5.238281 16.15625 L 5.332031 15.914062 L 5.433594 15.542969 L 6.011719 15.253906 L 6.175781 15.136719 L 6.238281 14.886719 L 6.3125 14.832031 L 6.917969 14.550781 L 6.984375 14.492188 L 7.011719 14.386719 L 7.042969 14.332031 L 7.449219 13.734375 L 9.324219 14.09375 L 9.816406 14.289062 L 12.058594 16.554688 L 12.234375 16.671875 L 12.460938 16.921875 " fill-opacity="1" fill-rule="nonzero"/></g><path fill="#014d4e" d="M 22.085938 16.96875 L 22.082031 17.109375 L 22.152344 17.148438 L 22.1875 17.226562 L 22.171875 17.25 L 22.105469 17.261719 L 22.09375 17.300781 L 22.113281 17.378906 L 22.152344 17.46875 L 22.179688 17.492188 L 22.207031 17.589844 L 22.308594 17.707031 L 22.332031 17.765625 L 22.328125 17.863281 L 22.359375 17.871094 L 22.421875 17.945312 L 22.460938 17.945312 L 22.488281 18.050781 L 22.527344 18.109375 L 22.527344 18.128906 L 22.53125 18.148438 L 22.402344 18.171875 L 22.28125 18.167969 L 22.207031 18.1875 L 22.132812 18.230469 L 22.027344 18.242188 L 21.953125 18.222656 L 21.917969 18.179688 L 21.90625 18.128906 L 19.355469 18.15625 L 19.355469 17.359375 L 19.429688 17.335938 L 19.550781 17.339844 L 19.632812 17.339844 L 19.78125 17.386719 L 19.863281 17.367188 L 19.957031 17.390625 L 20.125 17.371094 L 20.234375 17.390625 L 20.257812 17.378906 L 20.246094 17.359375 L 20.257812 17.355469 L 20.375 17.367188 L 20.433594 17.339844 L 20.523438 17.335938 L 20.753906 17.371094 L 20.839844 17.425781 L 20.945312 17.425781 L 20.984375 17.449219 L 20.949219 17.398438 L 20.921875 17.390625 L 20.925781 17.335938 L 21.070312 17.324219 L 21.148438 17.335938 L 21.199219 17.378906 L 21.246094 17.378906 L 21.328125 17.441406 L 21.367188 17.519531 L 21.472656 17.554688 L 21.570312 17.480469 L 21.632812 17.460938 L 21.71875 17.460938 L 21.773438 17.453125 L 21.84375 17.425781 L 21.882812 17.371094 L 21.96875 17.382812 L 21.984375 17.304688 L 22.027344 17.273438 L 22.03125 17.214844 L 21.929688 17.21875 L 21.921875 17.265625 L 21.867188 17.261719 L 21.898438 17.246094 L 21.898438 17.210938 L 21.933594 17.171875 L 21.910156 17.167969 L 21.890625 17.183594 L 21.875 17.152344 L 21.855469 17.171875 L 21.855469 17.203125 L 21.832031 17.210938 L 21.820312 17.171875 L 21.898438 17.109375 L 22.023438 17.105469 L 22.042969 17.039062 L 22.039062 16.996094 Z M 22.566406 17.847656 L 22.59375 17.871094 L 22.597656 17.914062 L 22.542969 17.929688 L 22.519531 17.910156 L 22.519531 17.863281 L 22.566406 17.847656 " fill-opacity="1" fill-rule="nonzero"/><g clip-path="url(#69f2dd7dfa)"><path fill="#014d4e" d="M 21.816406 2.902344 L 21.933594 2.933594 L 21.964844 2.960938 L 22.042969 3.347656 L 22.125 3.519531 L 22.164062 3.660156 L 22.234375 3.769531 L 22.28125 3.941406 L 22.488281 4.132812 L 22.867188 4.6875 L 23.125 4.972656 L 23.332031 5.234375 L 23.628906 5.746094 L 23.773438 5.859375 L 23.816406 5.96875 L 23.890625 6 L 23.886719 6.109375 L 23.917969 6.140625 L 24.007812 6.210938 L 24.054688 6.210938 L 24.128906 6.160156 L 24.140625 6.125 L 24.210938 6.050781 L 24.210938 6.027344 L 24.167969 6.011719 L 24.140625 5.886719 L 24.199219 5.882812 L 24.316406 5.96875 L 24.285156 6.019531 L 24.257812 6.207031 L 24.316406 6.589844 L 24.363281 6.746094 L 24.410156 6.859375 L 24.457031 6.898438 L 24.496094 6.980469 L 24.554688 6.976562 L 24.597656 7 L 24.703125 7.203125 L 24.75 7.484375 L 24.789062 7.574219 L 24.839844 7.808594 L 24.871094 8.09375 L 24.910156 8.214844 L 24.890625 8.347656 L 24.9375 8.617188 L 25.046875 8.691406 L 25.097656 8.828125 L 25.160156 8.890625 L 25.203125 8.964844 L 25.234375 9.128906 L 25.285156 9.15625 L 25.359375 9.273438 L 25.34375 9.390625 L 25.378906 9.695312 L 25.328125 9.792969 L 25.390625 9.898438 L 25.429688 10.003906 L 25.40625 10.097656 L 25.441406 10.222656 L 25.472656 10.472656 L 25.472656 10.671875 L 25.441406 11.011719 L 25.359375 11.355469 L 25.183594 11.695312 L 25.101562 11.925781 L 25.027344 12.066406 L 24.984375 12.101562 L 24.921875 12.230469 L 24.90625 12.316406 L 24.855469 12.375 L 24.777344 12.40625 L 24.5625 12.425781 L 24.496094 12.40625 L 24.34375 12.390625 L 24.242188 12.390625 L 24.054688 12.378906 L 24.03125 12.386719 L 23.972656 12.5 L 23.910156 12.585938 L 23.859375 12.640625 L 23.652344 12.636719 L 23.597656 12.652344 L 23.515625 12.617188 L 23.273438 12.613281 L 23.082031 12.648438 L 23.042969 12.710938 L 22.953125 12.679688 L 22.867188 12.652344 L 22.746094 12.667969 L 22.671875 12.714844 L 22.511719 12.726562 L 22.425781 12.78125 L 22.324219 12.9375 L 22.195312 13.078125 L 22.015625 13.21875 L 21.972656 13.277344 L 21.945312 13.382812 L 21.832031 13.402344 L 21.761719 13.511719 L 21.703125 13.542969 L 21.683594 13.636719 L 21.617188 13.671875 L 21.582031 13.78125 L 21.492188 13.851562 L 21.433594 13.941406 L 21.371094 13.960938 L 21.316406 14.039062 L 21.285156 14.136719 L 21.019531 13.976562 L 20.933594 13.875 L 20.792969 13.765625 L 20.570312 13.320312 L 20.539062 13.136719 L 20.363281 12.792969 L 19.941406 12.371094 L 18.789062 11.09375 L 17.890625 10.128906 L 17.832031 10.042969 L 17.824219 9.945312 L 17.648438 9.792969 L 17.535156 9.757812 L 17.425781 9.683594 L 17.269531 9.632812 L 17.136719 9.617188 L 16.8125 9.4375 L 16.632812 9.246094 L 16.433594 9.09375 L 16.277344 8.902344 L 16.09375 8.515625 L 15.996094 8.234375 L 15.914062 8.160156 L 15.863281 8.035156 L 15.886719 7.949219 L 15.945312 7.882812 L 16.003906 7.773438 L 16.101562 7.691406 L 16.277344 7.613281 L 16.308594 7.457031 L 16.367188 7.5 L 16.394531 7.492188 L 16.402344 7.457031 L 16.347656 7.386719 L 16.355469 7.347656 L 16.410156 7.273438 L 16.527344 7.191406 L 16.5625 7.136719 L 16.644531 7.125 L 16.738281 7.167969 L 16.796875 7.175781 L 16.949219 7.128906 L 17.003906 7.085938 L 17.015625 7.054688 L 17.007812 6.957031 L 17.085938 6.925781 L 17.136719 6.851562 L 17.164062 6.773438 L 17.476562 6.714844 L 17.664062 6.722656 L 17.785156 6.640625 L 17.921875 6.480469 L 17.921875 6.367188 L 17.859375 6.238281 L 17.855469 6.140625 L 17.753906 6.015625 L 17.664062 6.007812 L 17.589844 5.953125 L 17.558594 5.886719 L 17.554688 5.832031 L 17.601562 5.742188 L 17.625 5.554688 L 17.710938 5.414062 L 17.789062 5.308594 L 17.984375 5.058594 L 18.058594 5.050781 L 18.144531 5.074219 L 18.238281 4.976562 L 18.359375 4.984375 L 18.390625 4.90625 L 18.332031 4.851562 L 18.328125 4.820312 L 18.414062 4.738281 L 18.363281 4.679688 L 18.367188 4.628906 L 18.457031 4.582031 L 18.460938 4.441406 L 18.519531 4.40625 L 18.640625 4.390625 L 18.703125 4.1875 L 18.765625 4.109375 L 18.914062 4.089844 L 19.011719 4.160156 L 19.097656 4.171875 L 19.234375 4.035156 L 19.273438 4.019531 L 19.40625 4.027344 L 19.515625 3.972656 L 19.683594 3.777344 L 19.726562 3.75 L 21.816406 2.902344 " fill-opacity="1" fill-rule="nonzero"/></g><path fill="#014d4e" d="M 13.851562 5.566406 L 14.007812 5.578125 L 14.359375 5.730469 L 14.9375 6.152344 L 15.660156 6.960938 L 16.308594 7.457031 L 16.277344 7.613281 L 16.101562 7.691406 L 16.003906 7.773438 L 15.945312 7.882812 L 15.886719 7.949219 L 15.863281 8.035156 L 15.914062 8.160156 L 15.996094 8.234375 L 16.09375 8.515625 L 16.277344 8.902344 L 16.433594 9.09375 L 16.632812 9.246094 L 16.8125 9.4375 L 17.136719 9.617188 L 17.269531 9.632812 L 17.425781 9.683594 L 17.535156 9.757812 L 17.648438 9.792969 L 17.824219 9.945312 L 17.832031 10.042969 L 17.890625 10.128906 L 18.789062 11.09375 L 19.941406 12.371094 L 20.363281 12.792969 L 20.539062 13.136719 L 20.570312 13.320312 L 20.792969 13.765625 L 20.933594 13.875 L 21.019531 13.976562 L 21.285156 14.136719 L 21.234375 14.207031 L 21.101562 14.234375 L 21.074219 14.289062 L 21.011719 14.347656 L 21.011719 14.414062 L 20.933594 14.441406 L 20.886719 14.542969 L 20.859375 14.5625 L 20.78125 14.582031 L 20.726562 14.566406 L 20.625 14.574219 L 20.589844 14.601562 L 20.515625 14.617188 L 20.417969 14.597656 L 20.390625 14.628906 L 20.316406 14.652344 L 20.253906 14.640625 L 20.1875 14.5625 L 20.15625 14.5625 L 20.085938 14.617188 L 20.046875 14.628906 L 19.871094 14.625 L 19.816406 14.683594 L 19.757812 14.710938 L 19.714844 14.765625 L 19.683594 14.878906 L 19.640625 14.949219 L 19.550781 14.996094 L 19.445312 15.078125 L 19.40625 15.0625 L 19.386719 15.03125 L 19.382812 14.945312 L 19.359375 14.980469 L 19.328125 14.992188 L 19.355469 15.042969 L 19.3125 15.058594 L 19.246094 15.039062 L 19.226562 14.976562 L 19.195312 14.949219 L 19.078125 14.933594 L 19.019531 14.960938 L 18.953125 14.957031 L 18.890625 14.914062 L 18.816406 14.949219 L 18.765625 14.953125 L 18.707031 14.917969 L 18.601562 14.863281 L 18.53125 14.875 L 18.449219 14.976562 L 18.34375 15.046875 L 18.109375 15.058594 L 18.007812 15.207031 L 17.875 15.3125 L 17.792969 15.339844 L 17.730469 15.347656 L 17.589844 15.335938 L 17.542969 15.351562 L 17.414062 15.351562 L 17.371094 15.375 L 17.285156 15.472656 L 17.144531 15.78125 L 17.085938 15.832031 L 17.058594 15.890625 L 17.007812 15.929688 L 16.992188 16.160156 L 16.96875 16.230469 L 16.925781 16.289062 L 16.855469 16.339844 L 16.617188 16.453125 L 16.570312 16.546875 L 16.515625 16.582031 L 16.445312 16.671875 L 16.34375 16.820312 L 16.273438 17.011719 L 16.265625 17.15625 L 16.257812 17.339844 L 16.242188 17.441406 L 16.191406 17.492188 L 16.148438 17.53125 L 16.125 17.621094 L 16.0625 17.636719 L 16.070312 17.6875 L 16.132812 17.816406 L 16.128906 17.84375 L 16.007812 17.816406 L 15.941406 17.757812 L 15.839844 17.726562 L 15.847656 17.8125 L 15.828125 17.816406 L 15.789062 17.753906 L 15.722656 17.707031 L 15.691406 17.695312 L 15.667969 17.699219 L 15.613281 17.695312 L 15.511719 17.636719 L 15.5 17.667969 L 15.640625 17.75 L 15.621094 17.773438 L 15.703125 17.828125 L 15.554688 17.832031 L 15.496094 17.8125 L 15.367188 17.726562 L 15.351562 17.695312 L 15.210938 17.644531 L 15.164062 17.601562 L 15.140625 17.601562 L 15.128906 17.636719 L 15.070312 17.644531 L 14.984375 17.6875 L 14.945312 17.726562 L 14.867188 17.75 L 14.742188 17.625 L 14.730469 17.664062 L 14.710938 17.660156 L 14.628906 17.539062 L 14.550781 17.472656 L 14.519531 17.449219 L 14.421875 17.453125 L 14.277344 17.378906 L 14.238281 17.386719 L 14.144531 17.382812 L 14.128906 17.453125 L 14.082031 17.476562 L 14.050781 17.539062 L 14.027344 17.507812 L 13.988281 17.511719 L 13.992188 17.53125 L 14.046875 17.558594 L 14.015625 17.585938 L 14.007812 17.625 L 14.011719 17.644531 L 14.054688 17.667969 L 14.054688 17.769531 L 14.03125 17.828125 L 13.890625 17.878906 L 13.625 17.71875 L 13.441406 17.679688 L 13.160156 17.511719 L 12.683594 17.175781 L 12.460938 16.921875 L 12.234375 16.671875 L 12.058594 16.554688 L 9.816406 14.289062 L 9.324219 14.09375 L 7.449219 13.734375 L 7.941406 13.015625 L 8.410156 12.417969 L 8.515625 12.148438 L 8.578125 12.082031 L 8.800781 11.683594 L 8.878906 11.449219 L 9.03125 11.136719 L 9.140625 11.035156 L 9.363281 10.972656 L 9.484375 10.96875 L 9.625 10.4375 L 9.796875 10.222656 L 10.042969 9.773438 L 10.375 9.394531 L 10.695312 8.910156 L 11.242188 8.390625 L 11.488281 8.125 L 11.78125 7.1875 L 12.46875 6.253906 L 12.777344 5.882812 L 13.25 5.40625 L 13.398438 5.402344 L 13.503906 5.445312 L 13.625 5.515625 L 13.753906 5.523438 L 13.851562 5.566406 " fill-opacity="1" fill-rule="nonzero"/></svg>