<svg xmlns="http://www.w3.org/2000/svg" xmlns:xlink="http://www.w3.org/1999/xlink" width="40" zoomAndPan="magnify" viewBox="0 0 30 30.000001" height="40" preserveAspectRatio="xMidYMid meet" version="1.0"><defs><clipPath id="67cfb85064"><path d="M 17 14 L 24.347656 14 L 24.347656 26 L 17 26 Z M 17 14 " clip-rule="nonzero"/></clipPath></defs><path fill="#014d4e" d="M 11.28125 23.945312 C 11.148438 24.21875 11.019531 24.265625 10.710938 24.199219 C 10.703125 23.890625 10.5625 23.828125 10.296875 23.757812 C 9.933594 23.84375 9.597656 23.539062 9.253906 23.535156 C 8.898438 23.597656 9.101562 23.359375 8.589844 23.632812 C 8.640625 23.496094 8.335938 23.484375 8.300781 23.472656 C 8.277344 23.199219 8.421875 23.203125 8.335938 22.902344 C 8.167969 22.496094 8.328125 22.09375 8.527344 21.765625 C 8.480469 21.457031 8.171875 20.855469 8.398438 20.59375 C 8.261719 20.28125 8.292969 19.785156 7.925781 19.675781 C 7.585938 19.644531 7.542969 19.671875 7.546875 20.023438 C 7.476562 20.117188 7.496094 20.195312 7.609375 20.246094 C 7.675781 20.882812 7.152344 19.894531 7.007812 19.738281 C 7.085938 19.527344 7.332031 19.699219 7.484375 19.582031 C 7.421875 19.488281 7.238281 19.3125 7.167969 19.234375 C 7.097656 19.148438 6.855469 19.128906 7.101562 19.042969 C 6.988281 18.964844 6.933594 18.851562 6.945312 18.726562 C 6.851562 18.777344 6.5625 18.832031 6.691406 19.011719 C 6.691406 19.222656 6.769531 19.265625 6.976562 19.265625 C 7.058594 19.984375 6.535156 19.210938 6.28125 19.105469 C 5.476562 18.992188 6.753906 18.570312 6.3125 16.226562 C 6.011719 15.714844 6.171875 14.941406 6.25 14.390625 C 6.238281 14.097656 6.203125 13.480469 6.21875 13.1875 C 6.1875 12.390625 6.125 11.398438 6.628906 10.722656 C 6.582031 10.003906 7.023438 9.128906 7.484375 8.601562 C 7.5 8.410156 7.726562 8.226562 7.894531 8.15625 C 8.191406 7.417969 8.191406 7.898438 8.75 7.96875 C 9.117188 7.902344 9.5 7.457031 9.886719 7.589844 C 10.046875 7.644531 10.625 7.667969 10.804688 7.652344 C 10.910156 7.59375 11.089844 7.480469 11.214844 7.558594 C 11.925781 7.035156 12.585938 6.113281 12.765625 5.246094 C 12.964844 5.074219 13.316406 4.628906 13.429688 4.394531 C 13.660156 4.320312 14.082031 4.378906 14.316406 4.359375 C 14.839844 4.3125 15.824219 2.917969 16.277344 3.191406 C 15.996094 3.472656 15.574219 3.703125 15.425781 4.109375 C 15.027344 4.496094 15.71875 5.171875 15.867188 5.40625 C 15.640625 5.554688 15.757812 6.203125 15.773438 6.417969 C 15.953125 7.269531 15.648438 7.042969 15.265625 7.652344 C 15.148438 9.089844 14.25 9.011719 14.949219 10.722656 C 15.171875 11.007812 14.972656 11.402344 15.011719 11.734375 C 15.441406 12.847656 16.875 11.433594 17.132812 12.398438 C 17.335938 12.5625 17.605469 12.652344 17.324219 12.902344 C 17.285156 13.242188 17.273438 13.640625 16.945312 13.820312 C 16.9375 14.042969 16.804688 14.195312 16.59375 14.234375 C 16.558594 14.339844 16.5625 14.753906 16.4375 14.835938 C 16.4375 14.835938 16.183594 14.675781 16.183594 14.675781 C 16.171875 14.589844 16.121094 14.410156 16.277344 14.519531 C 16.378906 14.25 16.167969 14.199219 15.960938 14.265625 C 15.960938 14.265625 15.773438 14.644531 15.773438 14.644531 C 15.835938 14.734375 15.859375 14.980469 15.867188 15.085938 C 15.605469 15.253906 15.621094 15.03125 15.550781 14.867188 C 15.550781 14.867188 15.710938 14.835938 15.710938 14.800781 C 15.726562 14.605469 15.554688 14.632812 15.425781 14.613281 C 15.453125 14.480469 15.628906 14.324219 15.457031 14.234375 C 15.765625 13.933594 15.65625 13.769531 15.234375 13.789062 C 15.070312 14.136719 14.707031 14.441406 14.445312 14.707031 C 14.542969 15.0625 14.902344 15.632812 14.632812 15.972656 C 14.777344 16.496094 14.429688 16.675781 14 16.859375 C 13.992188 17.046875 13.902344 17.3125 13.714844 17.398438 C 13.730469 17.597656 13.84375 17.65625 14.03125 17.652344 C 13.8125 17.746094 13.535156 17.699219 13.78125 18 C 13.5625 18.003906 13.125 18.070312 12.957031 18.21875 C 12.792969 18.171875 12.511719 18.023438 12.386719 17.902344 C 12.28125 17.898438 11.898438 17.976562 11.816406 17.871094 C 12.035156 18.207031 12.316406 17.933594 12.640625 18.285156 C 12.585938 18.683594 12.816406 18.355469 13.082031 18.472656 C 12.824219 18.8125 12.296875 19.195312 12.417969 19.675781 C 12.335938 19.960938 11.941406 19.714844 12.070312 20.054688 C 12.105469 20.183594 12.191406 20.5 12.230469 20.625 C 12.066406 20.902344 12.21875 20.929688 12.449219 21.035156 C 12.59375 21.105469 12.492188 21.210938 12.417969 21.289062 C 12.480469 21.496094 12.296875 21.597656 12.132812 21.667969 C 12.039062 21.488281 11.777344 21.695312 11.660156 21.730469 C 11.6875 22.117188 11.980469 21.796875 12.007812 22.082031 C 11.363281 22.132812 12.257812 22.214844 11.628906 22.554688 C 11.550781 22.78125 11.9375 22.632812 11.976562 22.523438 C 11.976562 22.523438 12.132812 22.714844 12.132812 22.714844 C 12.652344 22.8125 11.8125 22.511719 12.640625 22.269531 C 12.933594 22.324219 13.136719 22.714844 13.429688 22.746094 C 13.59375 23.003906 14.269531 23.773438 13.652344 23.820312 C 13.140625 23.332031 13.167969 23.703125 12.640625 23.664062 C 12.683594 23.90625 12.6875 24.191406 12.449219 23.789062 C 12.070312 23.949219 12.460938 23.660156 12.132812 23.566406 C 12.238281 23.523438 12.402344 23.5 12.324219 23.347656 C 12.078125 23.179688 11.945312 23.53125 11.914062 23.726562 C 11.65625 23.542969 11.621094 24.117188 11.28125 23.945312 " fill-opacity="1" fill-rule="nonzero"/><path fill="#014d4e" d="M 15.710938 19.105469 C 16.230469 19.421875 16.054688 19.195312 16.027344 18.789062 C 16.027344 18.789062 16.183594 18.917969 16.183594 18.917969 L 16.144531 18.535156 C 16.324219 18.78125 16.46875 19.304688 16.660156 19.515625 C 15.832031 19.714844 16.597656 19.875 16.847656 20.5 C 16.847656 20.53125 17.101562 20.910156 17.039062 20.878906 C 16.679688 20.648438 16.710938 20.710938 16.753906 21.035156 C 16.992188 21.417969 16.71875 22.769531 16.097656 22.460938 C 15.984375 22.523438 15.703125 22.851562 15.582031 22.585938 C 15.433594 22.597656 15.234375 22.59375 15.171875 22.429688 C 14.871094 22.53125 14.878906 22.460938 14.695312 22.238281 C 14.523438 22.09375 14.519531 22.328125 14.445312 22.429688 C 14.445312 22.429688 14.285156 22.238281 14.222656 22.238281 C 14.09375 22.222656 13.886719 22.449219 13.9375 22.238281 C 13.933594 22.039062 14.191406 22.050781 14.316406 22.015625 C 14.316406 22.015625 14.128906 21.542969 14.128906 21.542969 C 13.914062 21.660156 13.757812 21.617188 13.589844 21.449219 C 13.507812 21.308594 13.511719 21.347656 13.367188 21.351562 C 13.070312 21.175781 13.277344 20.667969 13.144531 20.402344 C 12.796875 20.445312 12.679688 20.265625 13.082031 20.148438 C 13.007812 20.074219 12.871094 19.976562 12.988281 19.867188 C 12.621094 19.839844 12.507812 19.699219 12.640625 19.359375 C 13.324219 18.601562 12.742188 19.300781 13.398438 19.359375 C 13.574219 19.113281 14.171875 18.863281 14.316406 18.601562 C 14.316406 18.601562 14.855469 18.757812 14.855469 18.757812 C 14.875 18.191406 15.558594 19.019531 15.714844 19.105469 " fill-opacity="1" fill-rule="nonzero"/><g clip-path="url(#67cfb85064)"><path fill="#014d4e" d="M 24.253906 18.757812 C 24.191406 18.789062 23.875 19.011719 23.875 19.011719 C 23.609375 18.679688 23.121094 18.429688 22.777344 18.789062 C 22.480469 19.023438 22.226562 19.570312 22.449219 19.925781 C 22.832031 20.066406 23.367188 20.175781 23.367188 20.6875 C 23.410156 21.445312 22.457031 21.03125 22.101562 21.511719 C 21.777344 22.035156 22.210938 21.816406 22.292969 22.113281 C 22.269531 22.289062 22.167969 22.378906 22.035156 22.300781 C 22.105469 22.867188 22.429688 23.433594 22.796875 22.648438 C 23.152344 22.648438 24.078125 22.710938 23.683594 23.28125 C 23.4375 23.242188 23.1875 22.996094 22.921875 23.09375 C 22.546875 23.285156 22.542969 23.824219 22.039062 23.664062 L 22.226562 24.042969 C 22.097656 24.050781 21.992188 24.152344 21.972656 24.277344 C 21.972656 24.277344 21.753906 24.484375 21.722656 24.515625 C 21.710938 24.675781 21.578125 24.8125 21.46875 24.894531 C 21.339844 25.117188 21.679688 26.113281 21.246094 25.78125 C 21.296875 25.542969 21.097656 25.296875 20.929688 25.148438 L 20.707031 25.371094 C 20.089844 25.265625 20.640625 25.109375 19.949219 25.148438 C 19.878906 25.203125 19.75 25.410156 19.632812 25.308594 C 19.632812 25.308594 19.410156 25.5625 19.378906 25.5625 C 19.164062 25.425781 18.882812 25.121094 18.746094 24.929688 C 18.441406 24.753906 17.367188 24.621094 17.542969 24.054688 C 17.726562 24.15625 17.859375 24.308594 18.019531 24.074219 C 17.964844 23.992188 17.871094 23.816406 17.828125 23.726562 C 17.621094 23.789062 17.746094 23.542969 17.734375 23.441406 C 17.734375 23.441406 17.988281 23.25 17.988281 23.25 C 18.183594 23.34375 18.253906 23.027344 18.621094 23.15625 C 18.78125 23.238281 19.027344 23.460938 19.09375 23.628906 C 19.210938 23.675781 19.511719 23.777344 19.476562 23.945312 C 20.207031 24.074219 19.765625 24.089844 19.917969 23.789062 C 19.988281 23.863281 20.105469 23.898438 20.203125 23.851562 C 20.207031 23.734375 20.046875 23.488281 20.265625 23.503906 C 20.460938 23.792969 20.523438 23.710938 20.613281 23.410156 C 20.351562 23.300781 20.390625 23.308594 20.519531 23.09375 C 20.707031 23.050781 20.742188 23.152344 20.773438 23.3125 C 20.894531 23.300781 20.914062 23.226562 20.898438 23.117188 C 20.898438 23.117188 21.089844 23.15625 21.089844 23.15625 C 21.136719 23.289062 21.214844 23.65625 21.277344 23.25 C 21.429688 23.339844 21.523438 23.171875 21.59375 23.0625 C 21.441406 22.933594 21.066406 22.628906 21.152344 23.03125 C 21.0625 22.871094 20.695312 22.664062 20.898438 22.476562 C 20.859375 22.386719 20.59375 22.1875 20.519531 22.144531 C 20.695312 22.054688 20.90625 22.011719 20.804688 21.765625 C 20.332031 21.964844 19.960938 21.449219 19.507812 21.414062 C 19.019531 21.3125 18.445312 21.839844 18.558594 21.003906 C 18.425781 20.878906 18.191406 20.597656 18.175781 20.402344 C 18.257812 20.335938 18.433594 20.152344 18.460938 20.054688 C 18.328125 19.960938 18.339844 19.777344 18.398438 19.644531 C 18.378906 19.464844 18.128906 19.28125 17.988281 19.199219 C 18.449219 18.949219 18.183594 18.503906 17.796875 18.316406 C 17.648438 18.257812 17.023438 18.246094 17.578125 18.15625 C 18.070312 18.316406 18.101562 18.1875 17.671875 17.933594 C 17.625 17.804688 17.296875 17.824219 17.195312 17.808594 C 17.082031 17.710938 16.882812 17.675781 17.195312 17.652344 C 17.4375 17.601562 17.726562 17.769531 17.957031 17.746094 C 18.046875 17.65625 18.199219 17.542969 18.335938 17.585938 C 18.457031 17.886719 18.390625 17.359375 18.621094 17.746094 C 19.199219 17.386719 19.035156 17.738281 19.160156 16.953125 C 19.691406 16.914062 19.589844 17.015625 19.695312 16.480469 C 19.605469 16.402344 19.492188 16.25 19.601562 16.132812 C 20.328125 16.082031 19.859375 16.582031 20.675781 15.972656 C 20.710938 16.070312 20.707031 16.171875 20.628906 16.242188 C 20.628906 16.242188 20.613281 16.574219 20.613281 16.574219 C 20.457031 16.484375 20.347656 16.46875 20.234375 16.636719 C 20.234375 16.636719 20.519531 17.113281 20.519531 17.113281 C 20.523438 17.203125 20.277344 17.160156 20.265625 17.144531 C 19.75 17.621094 20.214844 17.558594 20.457031 17.207031 C 20.515625 17.351562 20.761719 18.328125 20.898438 17.871094 C 20.949219 17.746094 21.070312 17.429688 20.960938 17.300781 C 21.65625 16.925781 21.394531 16.949219 21.183594 16.351562 C 21.054688 16.164062 20.96875 16.335938 20.960938 16.003906 C 21.609375 15.796875 22.480469 14.460938 23.113281 15.183594 C 23.234375 15.21875 23.421875 15.207031 23.558594 15.183594 C 24.519531 15.707031 23.71875 15.738281 23.589844 16.417969 C 23.988281 17.125 23.945312 18.015625 24.253906 18.757812 " fill-opacity="1" fill-rule="nonzero"/></g></svg>