<svg xmlns="http://www.w3.org/2000/svg" xmlns:xlink="http://www.w3.org/1999/xlink" width="40" zoomAndPan="magnify" viewBox="0 0 30 30.000001" height="40" preserveAspectRatio="xMidYMid meet" version="1.0"><defs><clipPath id="bbe0caf862"><path d="M 8.671875 2.902344 L 21.007812 2.902344 L 21.007812 26 L 8.671875 26 Z M 8.671875 2.902344 " clip-rule="nonzero"/></clipPath></defs><g clip-path="url(#bbe0caf862)"><path fill="#014d4e" d="M 11.707031 2.9375 C 11.402344 3.050781 10.945312 2.929688 10.609375 2.949219 C 10.484375 2.960938 10.40625 2.996094 10.285156 3.027344 C 10.136719 3.0625 10.035156 2.9375 9.878906 3.019531 C 9.710938 3.105469 9.59375 3.488281 9.554688 3.660156 C 9.519531 3.828125 9.519531 3.996094 9.496094 4.160156 C 9.488281 4.214844 9.542969 4.546875 9.546875 4.546875 C 9.519531 4.566406 9.496094 4.59375 9.488281 4.617188 C 9.425781 4.738281 9.59375 4.878906 9.640625 4.976562 C 9.710938 5.128906 9.683594 5.164062 9.652344 5.3125 C 9.578125 5.632812 9.234375 5.574219 8.988281 5.574219 C 8.902344 5.636719 8.777344 5.914062 8.875 6.007812 C 9.175781 6.285156 9.445312 5.777344 9.699219 6.003906 C 9.78125 6.074219 9.902344 6.285156 9.9375 6.386719 C 10.035156 6.679688 9.894531 6.765625 9.828125 7.027344 C 9.742188 7.347656 9.707031 7.515625 9.472656 7.75 C 9.21875 7.777344 9.105469 7.859375 8.953125 8.058594 C 8.765625 8.300781 8.832031 8.632812 9.082031 8.8125 C 9.082031 8.996094 9.125 9.070312 9.179688 9.234375 C 9.210938 9.34375 9.179688 9.511719 9.28125 9.585938 C 9.398438 9.667969 9.441406 9.890625 9.4375 10.023438 C 9.4375 10.316406 9.3125 10.441406 9.40625 10.746094 C 9.476562 10.972656 9.582031 11.25 9.714844 11.445312 C 9.847656 11.65625 9.910156 11.90625 10.003906 12.148438 C 10.054688 12.273438 10.058594 12.449219 10.1875 12.527344 C 10.296875 12.59375 10.4375 12.804688 10.46875 12.929688 C 10.539062 13.207031 10.167969 13.402344 10.578125 13.636719 C 10.894531 13.816406 10.976562 13.984375 11.09375 14.320312 C 11.125 14.410156 11.21875 14.46875 11.265625 14.554688 C 11.328125 14.671875 11.398438 14.785156 11.476562 14.894531 C 11.542969 15.046875 11.523438 15.257812 11.546875 15.429688 C 11.558594 15.527344 11.53125 15.539062 11.507812 15.636719 C 11.464844 15.792969 11.597656 15.945312 11.664062 16.078125 C 11.789062 16.320312 12.222656 16.363281 12.285156 16.617188 C 12.335938 16.839844 12.523438 16.988281 12.617188 17.207031 C 12.652344 17.296875 12.667969 17.453125 12.738281 17.523438 C 12.828125 17.621094 12.941406 17.6875 13.03125 17.792969 C 13.242188 18.042969 13.160156 18.199219 13.246094 18.480469 C 13.335938 18.789062 13.378906 19.148438 13.15625 19.417969 C 13.179688 19.589844 13.160156 19.816406 13.234375 19.96875 C 13.339844 20.199219 13.554688 20.21875 13.5 20.519531 C 13.453125 20.792969 13.34375 21.0625 13.566406 21.285156 C 13.785156 21.507812 14.175781 21.519531 14.230469 21.886719 C 14.269531 22.160156 14.324219 22.460938 14.214844 22.726562 C 14.136719 22.910156 14.101562 22.976562 14.105469 23.183594 C 14.109375 23.363281 14.25 23.585938 14.316406 23.753906 C 14.382812 23.90625 14.386719 24.03125 14.390625 24.195312 C 14.472656 24.277344 14.566406 24.347656 14.652344 24.429688 C 14.753906 24.527344 14.921875 24.605469 15.007812 24.707031 C 15.101562 24.8125 14.785156 25.550781 14.652344 25.578125 C 14.578125 25.589844 14.433594 25.488281 14.382812 25.539062 C 14.34375 25.578125 14.359375 25.636719 14.421875 25.675781 C 14.871094 25.964844 15.652344 26.132812 16.105469 25.773438 C 16.140625 25.746094 16.25 25.800781 16.28125 25.804688 C 16.367188 25.808594 16.539062 25.753906 16.609375 25.703125 C 16.652344 25.675781 16.667969 25.648438 16.667969 25.605469 C 16.667969 25.546875 16.546875 25.402344 16.644531 25.359375 C 16.738281 25.320312 16.859375 25.171875 16.933594 25.101562 C 17.054688 24.992188 17.429688 25.085938 17.492188 24.871094 C 17.511719 24.8125 17.449219 24.757812 17.472656 24.691406 C 17.496094 24.632812 17.550781 24.554688 17.546875 24.488281 C 17.539062 24.378906 17.585938 24.140625 17.683594 24.066406 C 17.917969 23.902344 18.28125 23.984375 18.53125 24.066406 C 18.585938 24.082031 18.605469 24.179688 18.667969 24.207031 C 18.804688 24.265625 18.957031 24.066406 19.101562 24.046875 C 19.203125 24.035156 19.265625 24.089844 19.367188 24.09375 C 19.683594 24.109375 19.964844 23.894531 20.167969 23.6875 C 20.226562 23.6875 20.289062 23.675781 20.328125 23.628906 C 20.371094 23.578125 20.351562 23.332031 20.375 23.25 C 20.410156 23.105469 20.402344 23 20.453125 22.859375 C 20.496094 22.734375 20.46875 22.574219 20.507812 22.433594 C 20.5625 22.257812 20.527344 22.101562 20.542969 21.933594 C 20.558594 21.773438 21.109375 21.726562 21.082031 21.613281 C 21.058594 21.527344 20.957031 21.53125 20.949219 21.429688 C 20.941406 21.355469 20.996094 21.21875 20.953125 21.152344 C 20.929688 21.113281 20.8125 21.078125 20.886719 21.019531 C 20.917969 20.992188 20.941406 20.960938 20.933594 20.914062 C 20.929688 20.90625 20.832031 20.8125 20.867188 20.804688 C 20.917969 20.792969 20.9375 20.785156 20.957031 20.765625 C 20.984375 20.738281 21 20.46875 21.015625 20.402344 C 21.054688 20.210938 21.050781 20.015625 21.105469 19.828125 C 21.152344 19.660156 21.234375 19.566406 21.195312 19.382812 C 21.140625 19.15625 21.023438 18.957031 20.964844 18.730469 C 20.886719 18.398438 20.753906 18.09375 20.742188 17.746094 C 20.730469 17.53125 20.519531 17.113281 20.765625 16.957031 C 20.824219 16.917969 20.976562 16.960938 21.019531 16.898438 C 21.054688 16.839844 20.984375 16.664062 20.945312 16.617188 C 20.894531 16.558594 20.726562 16.542969 20.652344 16.488281 C 20.710938 16.417969 20.65625 16.175781 20.679688 16.160156 C 20.855469 16.074219 21.1875 16.117188 21.230469 15.878906 C 21.246094 15.808594 21.183594 15.742188 21.128906 15.703125 C 21.132812 15.644531 21.152344 15.558594 21.132812 15.503906 C 21.125 15.476562 21.015625 15.4375 20.964844 15.449219 C 20.921875 15.453125 20.886719 15.476562 20.863281 15.511719 C 20.777344 15.476562 20.539062 15.480469 20.535156 15.375 C 20.53125 15.308594 20.636719 15.308594 20.640625 15.21875 C 20.695312 15.222656 20.792969 15.21875 20.824219 15.175781 C 20.894531 15.082031 20.886719 14.902344 20.808594 14.8125 C 20.828125 14.769531 20.835938 14.722656 20.832031 14.671875 C 20.804688 14.648438 20.777344 14.621094 20.75 14.597656 C 20.753906 14.519531 20.695312 14.308594 20.761719 14.269531 C 20.933594 14.167969 20.746094 14.074219 20.757812 13.921875 C 20.648438 13.863281 20.496094 13.980469 20.398438 13.910156 C 20.390625 13.90625 20.398438 13.816406 20.390625 13.792969 C 20.457031 13.65625 20.519531 13.519531 20.574219 13.378906 C 20.609375 13.292969 20.625 13.195312 20.691406 13.132812 C 20.726562 13.097656 20.808594 13.089844 20.832031 13.050781 C 20.882812 12.953125 20.808594 12.941406 20.894531 12.824219 C 20.941406 12.757812 20.96875 12.636719 20.988281 12.558594 C 20.996094 12.503906 20.949219 12.441406 20.910156 12.410156 C 20.933594 12.269531 21.132812 12.234375 21.132812 12.125 C 21.132812 12.105469 21.128906 12.085938 21.125 12.078125 C 21.105469 12.042969 21.042969 12.011719 21.011719 11.992188 C 21.015625 11.917969 21.070312 11.707031 20.96875 11.695312 C 20.945312 11.695312 20.933594 11.6875 20.925781 11.675781 C 20.851562 11.566406 20.871094 11.371094 20.902344 11.257812 C 20.933594 11.144531 20.808594 11.105469 20.785156 11.023438 C 20.75 10.894531 20.878906 10.792969 20.714844 10.707031 C 20.648438 10.675781 20.609375 10.621094 20.570312 10.5625 C 20.523438 10.488281 20.667969 10.449219 20.589844 10.371094 C 20.488281 10.28125 20.382812 10.25 20.308594 10.117188 C 20.246094 10.003906 20.339844 10.035156 20.378906 9.945312 C 20.390625 9.917969 20.375 9.394531 20.382812 9.398438 C 20.328125 9.367188 20.246094 9.277344 20.183594 9.335938 C 20.152344 9.363281 20.082031 9.359375 20.054688 9.332031 C 19.886719 9.171875 19.769531 9.375 19.636719 9.359375 C 19.578125 9.351562 19.542969 9.34375 19.53125 9.328125 C 19.378906 9.160156 19.605469 8.894531 19.644531 8.75 C 19.65625 8.6875 19.632812 8.441406 19.613281 8.378906 C 19.558594 8.191406 19.472656 8.175781 19.324219 8.097656 C 19.230469 8.050781 19.089844 8.128906 18.96875 8.085938 C 18.792969 8.019531 18.808594 7.859375 18.667969 7.792969 C 18.464844 7.695312 18.3125 7.320312 18.257812 7.109375 C 18.230469 7.011719 18.246094 6.761719 18.109375 6.746094 C 18.0625 6.738281 17.847656 6.425781 17.84375 6.371094 C 17.839844 6.285156 17.949219 6.289062 17.902344 6.179688 C 17.859375 6.085938 18.003906 6.070312 18.023438 5.996094 C 18.078125 5.824219 17.683594 5.742188 17.582031 5.738281 C 17.441406 5.726562 17.433594 5.710938 17.328125 5.640625 C 17.214844 5.554688 17.191406 5.703125 17.101562 5.738281 C 16.996094 5.777344 16.371094 5.574219 16.390625 5.449219 C 16.398438 5.378906 16.496094 5.320312 16.425781 5.257812 C 16.367188 5.207031 16.25 5.199219 16.175781 5.226562 C 16.019531 5.28125 16.042969 5.125 15.910156 5.148438 C 15.796875 5.167969 15.800781 5.28125 15.65625 5.300781 C 15.550781 5.3125 15.308594 5.371094 15.210938 5.320312 C 15.160156 5.292969 15.15625 5.226562 15.09375 5.207031 C 15.011719 5.179688 14.914062 5.15625 14.832031 5.140625 C 14.796875 5.132812 14.839844 5.023438 14.808594 4.988281 C 14.789062 4.964844 14.78125 4.960938 14.757812 4.964844 C 14.605469 4.96875 14.601562 5.117188 14.492188 5.179688 C 14.449219 5.203125 14.386719 5.085938 14.300781 5.128906 C 14.25 5.15625 14.207031 5.238281 14.183594 5.292969 C 14.148438 5.265625 14.078125 5.238281 14.039062 5.277344 L 14.023438 5.292969 L 14.019531 5.265625 C 14.007812 5.203125 13.925781 5.160156 13.867188 5.191406 C 13.828125 5.210938 13.828125 5.285156 13.835938 5.320312 C 13.765625 5.234375 13.449219 5.308594 13.449219 5.3125 C 13.410156 5.269531 13.425781 5.179688 13.40625 5.128906 C 13.382812 5.066406 13.324219 5.082031 13.292969 5.03125 C 13.234375 4.945312 13.210938 4.824219 13.152344 4.734375 C 13.113281 4.675781 13.023438 4.683594 12.972656 4.640625 C 12.902344 4.582031 12.898438 4.472656 12.878906 4.390625 C 12.847656 4.242188 12.75 4.1875 12.640625 4.09375 C 12.53125 4 12.554688 3.875 12.523438 3.742188 C 12.492188 3.609375 12.363281 3.558594 12.296875 3.441406 C 12.25 3.359375 12.1875 3.375 12.125 3.316406 C 12.074219 3.269531 12.09375 3.21875 12.0625 3.160156 C 12.035156 3.113281 11.746094 2.921875 11.707031 2.9375 C 11.695312 2.941406 11.761719 2.917969 11.707031 2.9375 Z M 11.707031 2.9375 " fill-opacity="1" fill-rule="nonzero"/></g></svg>