<svg xmlns="http://www.w3.org/2000/svg" xmlns:xlink="http://www.w3.org/1999/xlink" width="40" zoomAndPan="magnify" viewBox="0 0 30 30.000001" height="40" preserveAspectRatio="xMidYMid meet" version="1.0"><defs><clipPath id="80c9c30ab8"><path d="M 3.386719 6.648438 L 26.613281 6.648438 L 26.613281 22 L 3.386719 22 Z M 3.386719 6.648438 " clip-rule="nonzero"/></clipPath><clipPath id="35318534d1"><path d="M 6.117188 21.816406 L 6.691406 21.816406 L 6.691406 22.378906 L 6.117188 22.378906 Z M 6.117188 21.816406 " clip-rule="nonzero"/></clipPath></defs><g clip-path="url(#80c9c30ab8)"><path fill="#014d4e" d="M 23.921875 17.945312 C 23.707031 17.601562 23.496094 17.328125 23.351562 17.023438 C 23.21875 16.75 22.984375 16.695312 22.75 16.664062 C 22.558594 16.640625 22.347656 16.671875 22.164062 16.730469 C 21.828125 16.839844 21.519531 16.742188 21.214844 16.636719 C 21.117188 16.605469 21.039062 16.503906 20.957031 16.433594 C 20.964844 16.414062 20.972656 16.390625 20.980469 16.371094 C 20.722656 16.433594 20.464844 16.492188 20.203125 16.550781 C 20.125 16.570312 20.046875 16.585938 19.96875 16.59375 C 19.707031 16.625 19.445312 16.632812 19.1875 16.679688 C 18.957031 16.71875 18.746094 16.78125 18.589844 16.53125 C 18.5625 16.488281 18.472656 16.472656 18.410156 16.46875 C 18.386719 16.46875 18.355469 16.53125 18.332031 16.566406 C 18.296875 16.625 18.265625 16.683594 18.234375 16.742188 C 18.152344 16.691406 18.011719 16.65625 17.996094 16.589844 C 17.945312 16.390625 17.8125 16.367188 17.652344 16.355469 C 17.386719 16.335938 17.121094 16.3125 16.855469 16.296875 C 16.777344 16.296875 16.691406 16.316406 16.617188 16.34375 C 16.40625 16.429688 16.171875 16.484375 15.992188 16.617188 C 15.8125 16.75 15.679688 16.957031 15.539062 17.140625 C 15.367188 17.367188 15.207031 17.605469 15.03125 17.832031 C 15.003906 17.867188 14.90625 17.863281 14.84375 17.855469 C 14.660156 17.832031 14.472656 17.992188 14.289062 17.84375 C 14.28125 17.835938 14.261719 17.835938 14.25 17.839844 C 13.8125 17.980469 13.316406 17.746094 12.90625 18.070312 C 12.847656 18.113281 12.734375 18.085938 12.648438 18.089844 C 12.648438 18.070312 12.644531 18.050781 12.640625 18.027344 C 12.675781 18.007812 12.707031 17.984375 12.738281 17.96875 C 12.613281 17.867188 12.515625 17.773438 12.402344 17.707031 C 12.246094 17.621094 12.203125 17.523438 12.308594 17.367188 C 12.398438 17.238281 12.394531 16.785156 12.269531 16.71875 C 12.101562 16.628906 11.890625 16.59375 11.695312 16.589844 C 11.59375 16.589844 11.511719 16.699219 11.503906 16.851562 C 11.5 16.992188 11.382812 17.089844 11.222656 17.082031 C 11.109375 17.074219 10.996094 17.050781 10.890625 17.0625 C 10.8125 17.074219 10.746094 17.132812 10.671875 17.171875 C 10.65625 17.148438 10.636719 17.128906 10.621094 17.105469 C 10.578125 17.195312 10.535156 17.28125 10.492188 17.367188 C 10.382812 17.578125 10.199219 17.691406 9.976562 17.730469 C 9.933594 17.738281 9.855469 17.664062 9.824219 17.609375 C 9.660156 17.324219 9.304688 17.191406 9.054688 17.527344 C 9.015625 17.578125 8.996094 17.671875 9.015625 17.730469 C 9.0625 17.867188 9.136719 17.996094 9.207031 18.125 C 9.34375 18.382812 9.277344 18.753906 9.050781 18.941406 C 9.011719 18.976562 8.964844 19.007812 8.9375 19.050781 C 8.640625 19.527344 8.335938 19.996094 7.867188 20.332031 C 7.820312 20.363281 7.824219 20.457031 7.773438 20.5 C 7.714844 20.570312 7.632812 20.632812 7.597656 20.714844 C 7.441406 21.046875 7.304688 21.386719 7.15625 21.71875 C 7.117188 21.796875 7.046875 21.863281 6.996094 21.929688 C 6.785156 21.703125 6.628906 21.480469 6.535156 21.199219 C 6.445312 20.917969 6.109375 20.8125 5.753906 20.898438 C 5.601562 20.933594 5.445312 20.980469 5.316406 20.824219 C 5.4375 20.734375 5.5625 20.65625 5.664062 20.554688 C 5.699219 20.523438 5.695312 20.417969 5.667969 20.367188 C 5.597656 20.230469 5.507812 20.105469 5.421875 19.964844 C 5.554688 19.800781 5.523438 19.59375 5.320312 19.441406 C 5.179688 19.332031 5.027344 19.230469 4.859375 19.105469 C 5.136719 18.917969 4.957031 18.664062 4.941406 18.441406 C 4.90625 18.398438 4.871094 18.328125 4.816406 18.289062 C 4.714844 18.21875 4.71875 18.152344 4.777344 18.050781 C 4.953125 17.742188 5.121094 17.429688 5.300781 17.105469 C 5.167969 17.054688 5.027344 17 4.882812 16.953125 C 4.683594 16.882812 4.546875 16.753906 4.425781 16.582031 C 4.359375 16.484375 4.214844 16.445312 4.109375 16.378906 C 4.042969 16.335938 3.976562 16.285156 3.875 16.210938 C 3.988281 16.179688 4.042969 16.164062 4.125 16.140625 C 3.949219 15.765625 3.667969 15.503906 3.386719 15.222656 C 3.476562 15.121094 3.5625 15.039062 3.75 15.105469 C 3.964844 15.179688 4.207031 15.203125 4.4375 15.222656 C 4.511719 15.230469 4.609375 15.210938 4.609375 15.058594 C 4.609375 14.863281 4.71875 14.707031 4.921875 14.621094 C 5 14.589844 5.085938 14.488281 5.097656 14.40625 C 5.136719 14.167969 5.191406 13.910156 5.140625 13.679688 C 5.09375 13.457031 4.8125 13.355469 4.722656 13.113281 C 4.699219 13.050781 4.445312 13.070312 4.296875 13.066406 C 4.261719 13.066406 4.222656 13.109375 4.183594 13.136719 C 4.199219 12.867188 4.453125 12.746094 4.765625 12.851562 C 4.808594 12.667969 4.878906 12.523438 5.085938 12.476562 C 5.136719 12.46875 5.171875 12.382812 5.210938 12.332031 C 5.265625 12.265625 5.304688 12.15625 5.371094 12.136719 C 5.714844 12.027344 5.636719 11.699219 5.730469 11.464844 C 5.742188 11.429688 5.675781 11.324219 5.628906 11.304688 C 5.285156 11.171875 4.960938 11.023438 4.832031 10.621094 C 4.988281 10.539062 5.15625 10.453125 5.335938 10.363281 C 5.355469 10.265625 5.394531 10.121094 5.421875 9.976562 C 5.429688 9.929688 5.414062 9.875 5.410156 9.824219 C 5.402344 9.730469 5.394531 9.640625 5.386719 9.550781 C 5.386719 9.523438 5.394531 9.492188 5.382812 9.472656 C 5.289062 9.316406 5.164062 9.175781 5.101562 9.007812 C 5.050781 8.878906 5.078125 8.722656 5.117188 8.578125 C 5.050781 8.46875 4.988281 8.359375 4.902344 8.214844 C 5.015625 8.199219 5.070312 8.195312 5.164062 8.183594 C 5.109375 8.019531 5.046875 7.84375 4.976562 7.632812 C 4.929688 7.710938 4.898438 7.765625 4.867188 7.816406 C 4.828125 7.6875 4.984375 7.5 5.144531 7.445312 C 5.292969 7.390625 5.441406 7.320312 5.5625 7.222656 C 5.617188 7.175781 5.601562 7.046875 5.617188 6.9375 C 5.667969 6.96875 5.722656 6.996094 5.785156 7.03125 C 5.960938 6.808594 6.207031 6.824219 6.429688 6.882812 C 6.832031 6.992188 7.222656 7.140625 7.621094 7.265625 C 7.769531 7.3125 7.921875 7.335938 8.074219 7.371094 C 8.261719 7.414062 8.355469 7.351562 8.414062 7.128906 C 8.664062 7.332031 8.902344 7.183594 9.140625 7.105469 C 9.167969 7.097656 9.1875 7.0625 9.203125 7.035156 C 9.339844 6.730469 9.777344 6.648438 10.027344 6.886719 C 10.046875 6.90625 10.046875 6.945312 10.058594 6.976562 C 10.078125 6.949219 10.089844 6.914062 10.117188 6.894531 C 10.140625 6.878906 10.175781 6.871094 10.207031 6.871094 C 10.332031 6.875 10.46875 6.851562 10.582031 6.894531 C 10.707031 6.941406 10.851562 7.023438 10.910156 7.132812 C 11.023438 7.355469 11.253906 7.339844 11.417969 7.453125 C 11.589844 7.574219 11.757812 7.71875 11.953125 7.785156 C 12.160156 7.851562 12.394531 7.84375 12.617188 7.867188 C 12.644531 7.867188 12.679688 7.84375 12.707031 7.824219 C 12.902344 7.671875 13.152344 7.667969 13.328125 7.835938 C 13.433594 7.941406 13.527344 8.0625 13.617188 8.183594 C 13.792969 8.421875 14.03125 8.546875 14.316406 8.601562 C 14.46875 8.628906 14.617188 8.691406 14.769531 8.707031 C 14.953125 8.726562 15.140625 8.714844 15.328125 8.699219 C 15.367188 8.699219 15.425781 8.644531 15.441406 8.601562 C 15.5 8.425781 15.621094 8.382812 15.792969 8.394531 C 15.863281 8.402344 15.9375 8.371094 16.011719 8.363281 C 16.042969 8.355469 16.089844 8.34375 16.113281 8.359375 C 16.300781 8.492188 16.507812 8.613281 16.667969 8.777344 C 16.714844 8.824219 16.644531 9.003906 16.605469 9.109375 C 16.554688 9.238281 16.59375 9.316406 16.667969 9.421875 C 16.726562 9.507812 16.765625 9.644531 16.75 9.75 C 16.722656 9.925781 16.746094 10.0625 16.867188 10.199219 C 16.964844 10.308594 17.042969 10.445312 17.109375 10.582031 C 17.25 10.875 17.65625 11.058594 17.960938 10.964844 C 18.089844 10.925781 18.222656 10.898438 18.351562 10.867188 C 18.398438 10.855469 18.460938 10.867188 18.492188 10.839844 C 18.769531 10.617188 19.101562 10.675781 19.40625 10.695312 C 19.667969 10.714844 19.925781 10.828125 20.1875 10.902344 C 20.25 10.730469 20.703125 10.425781 20.914062 10.472656 C 20.816406 10.597656 20.730469 10.710938 20.640625 10.828125 C 20.652344 10.851562 20.660156 10.875 20.667969 10.898438 C 20.8125 10.878906 20.957031 10.855469 21.101562 10.84375 C 21.152344 10.839844 21.238281 10.835938 21.25 10.859375 C 21.269531 10.90625 21.265625 10.984375 21.238281 11.023438 C 21.1875 11.089844 21.105469 11.136719 21.042969 11.199219 C 20.988281 11.257812 20.90625 11.320312 20.902344 11.386719 C 20.890625 11.648438 20.722656 11.617188 20.550781 11.597656 C 20.316406 11.570312 20.070312 11.488281 19.855469 11.542969 C 19.578125 11.613281 19.363281 11.472656 19.117188 11.441406 C 18.882812 11.414062 18.648438 11.394531 18.414062 11.386719 C 18.375 11.386719 18.304688 11.472656 18.292969 11.527344 C 18.257812 11.722656 18.230469 11.921875 18.214844 12.121094 C 18.203125 12.273438 18.328125 12.308594 18.433594 12.285156 C 18.757812 12.214844 19.074219 12.257812 19.394531 12.296875 C 19.421875 12.300781 19.453125 12.261719 19.53125 12.210938 C 19.410156 12.210938 19.347656 12.210938 19.265625 12.210938 C 19.53125 12.058594 19.660156 12.109375 19.832031 12.339844 C 19.898438 12.429688 20.050781 12.457031 20.164062 12.503906 C 20.183594 12.515625 20.226562 12.484375 20.242188 12.492188 C 20.539062 12.703125 20.902344 12.621094 21.226562 12.726562 C 21.269531 12.742188 21.304688 12.777344 21.40625 12.84375 C 21.367188 12.703125 21.34375 12.613281 21.316406 12.503906 C 21.355469 12.53125 21.410156 12.5625 21.445312 12.605469 C 21.679688 12.878906 21.828125 12.925781 22.183594 12.832031 C 22.171875 12.789062 22.160156 12.746094 22.152344 12.710938 C 22.296875 12.664062 22.433594 12.605469 22.574219 12.578125 C 22.648438 12.566406 22.753906 12.574219 22.808594 12.617188 C 23.140625 12.875 23.574219 12.863281 23.917969 13.078125 C 24.027344 13.144531 24.140625 13.210938 24.230469 13.296875 C 24.503906 13.558594 24.75 13.839844 25.03125 14.089844 C 25.199219 14.238281 25.421875 14.332031 25.601562 14.472656 C 25.742188 14.578125 25.855469 14.726562 25.988281 14.84375 C 26.039062 14.890625 26.113281 14.914062 26.179688 14.925781 C 26.445312 14.976562 26.613281 15.324219 26.464844 15.554688 C 26.273438 15.851562 26.066406 16.140625 25.878906 16.441406 C 25.8125 16.546875 25.773438 16.675781 25.746094 16.796875 C 25.699219 17.027344 25.558594 17.125 25.335938 17.050781 C 25.207031 17.007812 25.089844 16.929688 24.964844 16.886719 C 24.894531 16.863281 24.8125 16.878906 24.738281 16.878906 C 24.746094 16.945312 24.757812 17.015625 24.757812 17.085938 C 24.757812 17.15625 24.769531 17.234375 24.746094 17.296875 C 24.667969 17.484375 24.574219 17.667969 24.457031 17.914062 C 24.308594 17.921875 24.074219 17.9375 23.921875 17.945312 " fill-opacity="1" fill-rule="nonzero"/></g><path fill="#014d4e" d="M 25.019531 18.574219 C 24.890625 18.546875 24.785156 18.523438 24.683594 18.507812 C 24.621094 18.496094 24.542969 18.472656 24.488281 18.496094 C 24.148438 18.628906 23.910156 18.46875 23.695312 18.238281 C 23.667969 18.203125 23.644531 18.117188 23.664062 18.097656 C 23.695312 18.0625 23.78125 18.03125 23.816406 18.050781 C 24.125 18.207031 24.449219 18.253906 24.792969 18.257812 C 24.941406 18.261719 25 18.398438 25.019531 18.574219 " fill-opacity="1" fill-rule="nonzero"/><g clip-path="url(#35318534d1)"><path fill="#014d4e" d="M 6.351562 21.820312 C 6.476562 21.925781 6.578125 22.011719 6.6875 22.101562 C 6.589844 22.308594 6.375 22.304688 6.121094 22.378906 C 6.207031 22.167969 6.269531 22.011719 6.351562 21.820312 " fill-opacity="1" fill-rule="nonzero"/></g></svg>