<svg xmlns="http://www.w3.org/2000/svg" xmlns:xlink="http://www.w3.org/1999/xlink" width="40" zoomAndPan="magnify" viewBox="0 0 30 30.000001" height="40" preserveAspectRatio="xMidYMid meet" version="1.0"><defs><clipPath id="07bf89918d"><path d="M 3.386719 2.976562 L 26.613281 2.976562 L 26.613281 26.203125 L 3.386719 26.203125 Z M 3.386719 2.976562 " clip-rule="nonzero"/></clipPath></defs><g clip-path="url(#07bf89918d)"><path fill="#014d4e" d="M 26.542969 20.566406 L 26.515625 20.5 L 26.457031 20.46875 L 26.414062 20.417969 L 26.40625 20.375 L 26.402344 20.351562 L 26.394531 20.320312 L 26.34375 20.3125 L 26.304688 20.269531 L 26.273438 20.230469 L 26.261719 20.199219 L 26.226562 20.101562 L 26.175781 20.046875 L 26.128906 19.984375 L 26.078125 19.917969 L 26.039062 19.875 L 26.03125 19.832031 L 26.082031 19.800781 L 26.109375 19.757812 L 26.125 19.730469 L 26.152344 19.683594 L 26.113281 19.679688 L 26.054688 19.707031 L 26.003906 19.722656 L 25.945312 19.734375 L 25.808594 19.617188 L 25.730469 19.554688 L 25.667969 19.511719 L 25.585938 19.464844 L 25.453125 19.335938 L 25.421875 19.308594 L 25.386719 19.296875 C 25.386719 19.296875 25.335938 19.292969 25.324219 19.289062 C 25.316406 19.28125 25.316406 19.28125 25.316406 19.28125 L 25.308594 19.292969 L 25.300781 19.308594 C 25.300781 19.308594 25.289062 19.339844 25.289062 19.347656 C 25.289062 19.355469 25.289062 19.355469 25.289062 19.355469 L 25.265625 19.351562 C 25.265625 19.351562 25.253906 19.339844 25.25 19.335938 C 25.242188 19.328125 25.21875 19.300781 25.21875 19.300781 L 25.199219 19.285156 L 25.167969 19.28125 L 25.140625 19.28125 L 25.09375 19.285156 L 25.058594 19.296875 L 25.027344 19.320312 L 24.988281 19.328125 L 24.9375 19.320312 L 24.792969 19.328125 L 24.730469 19.246094 L 24.679688 19.214844 L 24.636719 19.175781 L 24.601562 19.125 L 24.566406 19.070312 L 24.53125 19 L 24.5 18.929688 L 24.488281 18.878906 L 24.464844 18.851562 L 24.433594 18.820312 L 24.429688 18.65625 L 24.421875 18.347656 L 24.394531 18.296875 L 24.136719 17.914062 L 23.710938 17.296875 L 23.746094 17.199219 L 23.804688 17.082031 L 23.84375 17.039062 L 24.125 16.914062 L 24.203125 16.875 L 24.25 16.785156 C 24.25 16.785156 24.277344 16.742188 24.277344 16.722656 C 24.277344 16.703125 24.277344 16.703125 24.277344 16.703125 C 24.277344 16.703125 24.269531 16.640625 24.269531 16.621094 C 24.269531 16.597656 24.277344 16.578125 24.277344 16.558594 C 24.277344 16.535156 24.277344 16.535156 24.277344 16.535156 L 24.292969 16.480469 L 24.292969 16.425781 L 24.230469 16.316406 L 24.1875 16.183594 L 24.183594 16.148438 L 24.15625 16.011719 L 24.140625 15.914062 C 24.15625 15.804688 24.15625 15.804688 24.15625 15.804688 L 24.21875 15.714844 L 24.230469 15.648438 L 24.226562 15.613281 L 24.253906 15.523438 L 24.316406 15.242188 L 24.316406 15.152344 L 24.230469 14.851562 L 24.15625 14.617188 L 24.191406 14.425781 L 24.230469 14.1875 L 24.230469 13.9375 C 24.230469 13.9375 24.144531 13.242188 24.132812 13.21875 C 24.128906 13.191406 24.128906 13.191406 24.128906 13.191406 L 23.96875 12.914062 L 23.871094 12.722656 L 23.792969 12.578125 L 23.734375 12.492188 L 23.664062 12.402344 L 23.671875 12.242188 L 23.851562 12.164062 L 23.804688 12.003906 L 23.371094 10.023438 L 23.292969 9.8125 L 23.296875 9.769531 L 22.480469 9.226562 L 22.453125 9.078125 L 22.4375 8.945312 L 22.417969 8.808594 L 22.417969 8.765625 L 22.289062 8.628906 L 22.210938 8.519531 L 22.183594 8.480469 L 22.21875 8.480469 L 21.980469 8.324219 L 21.898438 8.289062 L 21.851562 8.25 L 21.808594 8.191406 L 21.78125 8.058594 L 21.765625 8.003906 L 21.746094 7.925781 L 21.65625 7.777344 L 21.609375 7.691406 L 21.574219 7.609375 L 21.558594 7.542969 L 21.523438 7.496094 L 21.53125 7.4375 L 21.511719 7.371094 L 21.546875 7.179688 L 21.613281 7.074219 L 21.675781 6.964844 L 21.800781 6.964844 L 21.839844 6.902344 L 21.847656 6.816406 L 21.867188 6.71875 L 21.902344 6.648438 L 21.960938 6.648438 L 22.140625 6.511719 L 22.195312 6.511719 L 22.222656 6.464844 L 22.3125 6.402344 L 22.351562 6.332031 L 22.316406 6.269531 L 22.386719 6.222656 L 22.363281 6.175781 L 22.359375 6.058594 L 22.324219 5.960938 L 22.378906 5.90625 L 22.398438 5.816406 L 22.433594 5.710938 L 22.503906 5.65625 L 22.53125 5.59375 L 22.554688 5.519531 L 22.488281 5.476562 L 22.410156 5.476562 L 22.398438 5.332031 L 22.402344 5.25 L 22.457031 5.179688 L 22.4375 5.125 L 22.417969 4.9375 L 22.359375 4.875 L 22.304688 4.828125 L 22.320312 4.582031 L 22.359375 4.496094 L 22.375 4.378906 L 22.410156 4.324219 L 22.386719 4.242188 L 22.433594 4.183594 L 22.433594 4.085938 L 22.453125 4.039062 L 22.480469 3.976562 L 22.484375 3.890625 L 22.382812 3.847656 L 22.203125 3.847656 L 22.207031 3.757812 L 22.285156 3.757812 L 22.332031 3.71875 L 22.421875 3.640625 L 22.503906 3.574219 L 22.53125 3.503906 L 22.535156 3.457031 L 22.519531 3.394531 L 22.660156 3.394531 L 22.695312 3.367188 L 22.792969 3.332031 L 22.773438 3.257812 L 22.738281 3.257812 L 22.722656 3.199219 L 22.71875 3.148438 L 22.65625 3.148438 L 22.601562 3.214844 L 22.539062 3.214844 L 22.46875 3.148438 L 22.414062 3.183594 L 22.367188 3.183594 L 22.3125 3.199219 L 22.285156 3.148438 C 22.285156 3.148438 22.144531 3.246094 22.117188 3.253906 C 22.09375 3.257812 22.09375 3.257812 22.09375 3.257812 L 21.921875 3.296875 L 21.839844 3.316406 L 21.714844 3.1875 L 21.65625 3.121094 L 21.574219 3.121094 L 21.476562 3.042969 L 21.367188 3.042969 L 21.347656 2.976562 L 21.078125 2.976562 L 21.15625 3.042969 L 21.15625 3.078125 L 21.132812 3.136719 L 21.082031 3.183594 L 21.023438 3.183594 L 20.921875 3.1875 L 20.875 3.214844 L 20.8125 3.230469 L 20.777344 3.234375 L 20.75 3.148438 L 20.621094 3.15625 L 20.558594 3.15625 L 20.480469 3.148438 L 20.417969 3.082031 L 20.355469 3.027344 L 20.308594 2.976562 L 20.222656 2.976562 L 20.089844 3.050781 L 20.039062 3.113281 L 20.039062 3.175781 L 20.027344 3.222656 L 19.921875 3.265625 L 19.855469 3.292969 L 19.765625 3.320312 L 19.628906 3.355469 L 19.558594 3.367188 L 19.511719 3.382812 L 19.433594 3.355469 L 19.394531 3.378906 L 19.347656 3.417969 L 19.285156 3.417969 L 19.261719 3.523438 L 19.140625 3.589844 L 19.015625 3.609375 L 18.765625 3.570312 L 18.710938 3.507812 L 18.773438 3.429688 L 18.703125 3.410156 L 18.628906 3.363281 L 18.570312 3.347656 L 18.511719 3.285156 L 18.414062 3.285156 L 18.316406 3.292969 L 18.183594 3.277344 L 18.082031 3.261719 L 18.019531 3.261719 L 17.953125 3.269531 L 17.84375 3.261719 L 17.746094 3.261719 L 17.707031 3.246094 L 17.644531 3.273438 L 17.546875 3.269531 L 17.421875 3.261719 L 17.3125 3.242188 L 17.195312 3.277344 L 17.148438 3.339844 L 16.941406 3.417969 L 16.789062 3.4375 L 16.617188 3.359375 L 16.457031 3.359375 L 16.328125 3.367188 L 16.261719 3.429688 L 16.21875 3.453125 L 16.136719 3.5625 L 16.054688 3.605469 L 15.984375 3.648438 L 15.921875 3.683594 L 15.855469 3.703125 L 15.726562 3.6875 L 15.699219 3.632812 L 15.59375 3.617188 L 15.539062 3.636719 L 15.476562 3.664062 L 15.339844 3.699219 L 15.269531 3.707031 L 15.140625 3.726562 L 15.015625 3.742188 L 14.925781 3.757812 L 14.832031 3.757812 L 14.757812 3.792969 C 14.757812 3.792969 14.695312 3.792969 14.671875 3.792969 C 14.652344 3.792969 14.574219 3.75 14.574219 3.75 L 14.472656 3.785156 L 14.34375 3.855469 L 14.28125 3.832031 L 14.199219 3.875 L 14.128906 3.878906 L 14.082031 3.914062 L 14.035156 3.976562 L 14.007812 4.023438 L 13.96875 4.046875 L 13.910156 4.0625 L 13.847656 4.085938 L 13.746094 4.109375 L 13.65625 4.132812 L 13.578125 4.175781 L 13.496094 4.230469 L 13.441406 4.265625 L 13.371094 4.273438 L 13.359375 4.375 L 13.296875 4.402344 L 13.234375 4.398438 L 13.164062 4.507812 L 13.144531 4.546875 L 13.097656 4.632812 L 13.0625 4.714844 L 13.035156 4.769531 L 12.960938 4.816406 L 12.902344 4.851562 L 12.863281 4.851562 L 12.695312 4.824219 L 12.65625 4.738281 L 12.597656 4.714844 L 12.542969 4.730469 L 12.472656 4.738281 L 12.460938 4.8125 L 12.425781 4.855469 L 12.339844 4.890625 L 12.277344 4.90625 L 12.222656 4.910156 L 12.140625 4.917969 L 12.105469 4.898438 L 12.046875 4.964844 L 12 4.984375 L 11.964844 4.964844 L 11.925781 5.007812 C 11.925781 5.007812 11.902344 5.019531 11.878906 5.019531 C 11.851562 5.019531 11.820312 5.078125 11.820312 5.078125 L 11.773438 5.113281 L 11.738281 5.160156 L 11.703125 5.179688 L 11.648438 5.175781 L 11.648438 5.300781 L 11.605469 5.417969 L 11.523438 5.5 L 11.453125 5.546875 L 11.34375 5.574219 L 11.234375 5.609375 L 11.171875 5.675781 C 11.171875 5.675781 11.117188 5.699219 11.097656 5.71875 C 11.078125 5.738281 11.035156 5.828125 11.035156 5.828125 C 11.035156 5.828125 10.945312 5.8125 10.925781 5.8125 C 10.90625 5.8125 10.785156 5.859375 10.785156 5.859375 L 10.664062 5.859375 C 10.621094 5.847656 10.59375 5.835938 10.574219 5.835938 C 10.554688 5.835938 10.492188 5.871094 10.492188 5.871094 L 10.558594 5.957031 L 10.667969 6.015625 L 10.714844 6.070312 L 10.804688 6.054688 L 10.804688 6.136719 L 10.851562 6.160156 L 10.878906 6.222656 L 11.050781 6.304688 L 10.960938 6.433594 L 10.941406 6.480469 C 10.941406 6.480469 10.945312 6.503906 10.96875 6.515625 C 10.988281 6.53125 11.027344 6.605469 11.027344 6.605469 L 11.050781 6.652344 L 11.125 6.671875 L 11.078125 6.722656 L 11.023438 6.78125 L 11.121094 6.90625 L 11.105469 7.011719 L 11.148438 7.113281 L 11.152344 7.183594 L 11.160156 7.28125 L 11.144531 7.355469 L 11.117188 7.445312 C 11.117188 7.445312 11.117188 7.480469 11.125 7.5 C 11.128906 7.523438 11.144531 7.609375 11.144531 7.609375 L 11.109375 7.667969 L 11.074219 7.671875 L 11.074219 7.714844 L 11.078125 7.753906 L 11.125 7.777344 L 11.160156 7.769531 L 11.1875 7.8125 L 11.222656 7.875 L 11.230469 7.949219 L 11.203125 8.039062 L 11.1875 8.128906 L 11.167969 8.175781 L 11.160156 8.304688 L 11.257812 8.429688 L 11.273438 8.496094 L 11.332031 8.566406 L 11.390625 8.570312 L 11.378906 8.640625 L 11.355469 8.679688 L 11.300781 8.714844 L 11.355469 8.835938 L 11.425781 8.902344 L 11.464844 8.984375 L 11.550781 9.039062 L 11.597656 9.078125 L 11.671875 9.097656 L 11.835938 9.257812 L 11.933594 9.3125 L 11.855469 9.359375 L 11.816406 9.40625 L 11.738281 9.449219 L 11.695312 9.511719 L 11.65625 9.566406 L 11.648438 9.671875 L 11.597656 9.78125 L 11.734375 9.765625 L 11.746094 9.804688 L 11.71875 9.847656 L 11.683594 9.882812 C 11.683594 9.882812 11.625 9.902344 11.597656 9.898438 C 11.570312 9.890625 11.472656 9.871094 11.472656 9.871094 L 11.355469 9.867188 L 11.1875 9.859375 L 11.007812 9.824219 L 10.871094 9.804688 C 10.871094 9.804688 10.800781 9.808594 10.78125 9.796875 C 10.761719 9.78125 10.664062 9.796875 10.664062 9.796875 L 10.59375 9.8125 C 10.59375 9.8125 10.527344 9.796875 10.496094 9.792969 C 10.46875 9.785156 10.3125 9.785156 10.3125 9.785156 L 10.207031 9.800781 L 10.144531 9.878906 L 9.78125 9.863281 L 9.746094 9.988281 L 9.898438 10.277344 L 9.863281 10.304688 L 9.710938 10.328125 L 8.9375 10.515625 L 8.917969 10.851562 L 8.863281 10.910156 C 8.863281 10.910156 8.835938 10.929688 8.835938 10.949219 C 8.835938 10.972656 8.828125 11.019531 8.828125 11.019531 C 8.828125 11.019531 8.828125 11.074219 8.828125 11.09375 C 8.828125 11.117188 8.828125 11.117188 8.828125 11.117188 L 8.816406 11.214844 L 8.898438 11.15625 L 8.960938 11.203125 L 8.996094 11.238281 L 9.042969 11.261719 L 9.085938 11.289062 C 9.085938 11.289062 9.070312 11.410156 9.0625 11.433594 C 9.058594 11.453125 9.027344 11.507812 9.027344 11.507812 L 8.964844 11.542969 L 8.945312 11.640625 C 8.945312 11.640625 8.980469 11.640625 9 11.65625 C 9.023438 11.671875 9.007812 11.71875 9.007812 11.71875 L 8.949219 11.746094 C 8.949219 11.746094 8.867188 11.792969 8.847656 11.808594 C 8.828125 11.824219 8.65625 11.863281 8.65625 11.863281 L 8.515625 11.90625 L 8.390625 11.910156 C 8.390625 11.910156 8.179688 11.988281 8.089844 12.082031 C 8.003906 12.179688 7.910156 12.253906 7.910156 12.253906 L 7.699219 12.394531 L 7.578125 12.449219 L 7.496094 12.496094 L 7.378906 12.59375 L 7.214844 12.765625 L 7.152344 12.792969 L 7.117188 12.832031 L 7.117188 12.902344 L 7.09375 12.949219 L 6.820312 13.339844 L 6.742188 13.316406 L 6.632812 13.316406 C 6.648438 13.269531 6.660156 13.226562 6.660156 13.226562 L 6.632812 13.183594 L 6.535156 13.183594 L 6.417969 13.191406 L 6.316406 13.210938 L 6.265625 13.226562 L 6.191406 13.21875 L 6.082031 13.21875 L 5.992188 13.226562 L 5.902344 13.226562 L 5.816406 13.246094 L 5.746094 13.289062 L 5.601562 13.28125 L 5.5 13.359375 L 5.421875 13.375 L 5.339844 13.339844 L 5.214844 13.324219 L 5.160156 13.324219 L 5.097656 13.308594 L 5.019531 13.308594 L 4.910156 13.398438 L 4.84375 13.453125 L 4.785156 13.496094 L 4.710938 13.511719 L 4.632812 13.511719 L 4.503906 13.503906 C 4.503906 13.503906 4.523438 13.585938 4.496094 13.601562 C 4.46875 13.617188 4.386719 13.644531 4.386719 13.644531 L 4.324219 13.699219 L 4.144531 13.796875 L 4.019531 13.894531 L 3.945312 13.984375 L 3.859375 14.019531 L 3.835938 14.074219 L 3.777344 14.09375 C 3.753906 14.128906 3.703125 14.191406 3.703125 14.191406 L 3.632812 14.253906 L 3.59375 14.277344 L 3.582031 14.265625 L 3.386719 14.355469 L 3.425781 15.339844 L 3.4375 16.144531 L 14.410156 23.492188 C 14.410156 23.492188 14.535156 23.542969 14.554688 23.761719 C 14.574219 23.976562 14.515625 23.945312 14.515625 23.945312 L 14.558594 24.03125 L 14.71875 24.03125 C 14.71875 24.03125 14.746094 24.058594 14.789062 24.085938 C 14.828125 24.113281 14.898438 24.109375 14.898438 24.109375 L 14.988281 24.136719 L 15.050781 24.15625 L 15.105469 24.210938 L 15.117188 24.285156 L 15.105469 24.394531 L 15.175781 24.429688 L 15.277344 24.5 L 15.277344 24.527344 L 15.351562 24.539062 L 15.375 24.539062 L 15.375 24.574219 L 15.390625 24.601562 L 15.433594 24.589844 L 15.46875 24.578125 L 15.535156 24.554688 L 15.5625 24.566406 L 15.605469 24.566406 L 15.640625 24.558594 L 15.675781 24.539062 L 15.695312 24.496094 L 15.726562 24.480469 L 15.726562 24.496094 L 15.761719 24.503906 L 15.78125 24.507812 L 15.800781 24.527344 L 15.816406 24.519531 L 15.851562 24.605469 L 15.894531 24.640625 L 15.894531 24.675781 L 15.945312 24.703125 L 15.945312 24.734375 L 15.921875 24.742188 L 15.910156 24.785156 L 15.914062 24.832031 L 15.964844 24.785156 L 15.988281 24.765625 L 16.019531 24.757812 L 16.0625 24.757812 L 16.09375 24.785156 L 16.109375 24.804688 C 16.109375 24.804688 16.144531 24.8125 16.152344 24.8125 C 16.164062 24.8125 16.167969 24.804688 16.179688 24.800781 C 16.191406 24.796875 16.191406 24.796875 16.191406 24.796875 L 16.222656 24.785156 L 16.246094 24.761719 L 16.277344 24.746094 L 16.277344 24.835938 C 16.277344 24.835938 16.34375 24.90625 16.402344 24.90625 C 16.460938 24.90625 16.460938 24.90625 16.460938 24.90625 L 16.511719 24.90625 L 16.554688 24.917969 L 16.601562 24.921875 C 16.601562 24.921875 16.617188 24.941406 16.628906 24.945312 C 16.636719 24.953125 16.636719 24.953125 16.636719 24.953125 L 16.679688 24.953125 C 16.679688 24.953125 16.710938 24.976562 16.71875 24.980469 C 16.726562 24.988281 16.773438 25.023438 16.773438 25.023438 L 16.796875 25.039062 L 16.898438 25.039062 L 16.898438 25.074219 L 16.886719 25.113281 L 16.898438 25.164062 L 16.875 25.195312 L 16.878906 25.25 L 16.886719 25.289062 L 16.878906 25.34375 L 16.871094 25.363281 L 16.894531 25.398438 L 16.894531 25.453125 L 16.917969 25.503906 L 16.917969 25.527344 L 16.894531 25.535156 L 16.855469 25.542969 L 16.832031 25.578125 C 16.832031 25.578125 16.808594 25.601562 16.8125 25.617188 C 16.816406 25.632812 16.835938 25.664062 16.835938 25.664062 L 16.847656 25.675781 L 16.785156 25.765625 L 16.753906 25.816406 L 16.753906 25.847656 L 16.761719 25.875 L 16.8125 25.902344 L 16.871094 25.949219 L 16.917969 25.992188 L 16.96875 26.027344 L 17.011719 26.054688 L 17.5625 25.949219 L 18.265625 25.792969 L 18.890625 25.660156 L 19.308594 25.574219 L 19.640625 25.515625 L 19.792969 25.480469 L 20.355469 24.941406 L 20.8125 24.507812 L 21.476562 23.90625 L 21.632812 23.777344 L 21.707031 23.726562 L 22.257812 23.375 L 22.734375 23.054688 L 23.261719 22.710938 L 23.59375 22.488281 L 24.132812 22.136719 L 25.09375 21.539062 L 26.164062 20.859375 L 26.433594 20.691406 L 26.53125 20.640625 L 26.574219 20.632812 L 26.613281 20.574219 Z M 26.542969 20.566406 " fill-opacity="1" fill-rule="nonzero"/></g></svg>