<svg xmlns="http://www.w3.org/2000/svg" xmlns:xlink="http://www.w3.org/1999/xlink" width="40" zoomAndPan="magnify" viewBox="0 0 30 30.000001" height="40" preserveAspectRatio="xMidYMid meet" version="1.0"><defs><clipPath id="e039fff338"><path d="M 9 7.519531 L 26.613281 7.519531 L 26.613281 21.308594 L 9 21.308594 Z M 9 7.519531 " clip-rule="nonzero"/></clipPath><clipPath id="a403d30103"><path d="M 3.386719 14 L 9 14 L 9 19 L 3.386719 19 Z M 3.386719 14 " clip-rule="nonzero"/></clipPath><clipPath id="d894270b69"><path d="M 13 7.519531 L 14 7.519531 L 14 9 L 13 9 Z M 13 7.519531 " clip-rule="nonzero"/></clipPath><clipPath id="d2272a6a51"><path d="M 3.386719 15 L 4 15 L 4 16 L 3.386719 16 Z M 3.386719 15 " clip-rule="nonzero"/></clipPath><clipPath id="dc8e535015"><path d="M 14 7.519531 L 16 7.519531 L 16 8 L 14 8 Z M 14 7.519531 " clip-rule="nonzero"/></clipPath></defs><g clip-path="url(#e039fff338)"><path fill="#014d4e" d="M 26.472656 9.292969 C 26.351562 9.164062 26.21875 9.046875 26.085938 8.929688 C 25.957031 8.808594 25.945312 8.863281 25.882812 8.960938 C 25.675781 9.234375 25.402344 9.347656 25.0625 9.304688 C 25.019531 9.296875 24.980469 9.28125 24.945312 9.261719 C 24.855469 9.230469 24.761719 9.207031 24.664062 9.1875 C 24.480469 9.183594 24.296875 9.160156 24.113281 9.121094 C 23.695312 8.96875 23.265625 8.933594 22.828125 9.015625 C 22.394531 9.074219 21.953125 9.132812 21.59375 8.78125 C 21.570312 8.757812 21.53125 8.75 21.503906 8.730469 L 21.269531 8.546875 C 21.097656 8.390625 20.898438 8.308594 20.667969 8.296875 C 20.667969 8.484375 20.667969 8.503906 20.480469 8.503906 C 20.417969 8.5 20.363281 8.480469 20.3125 8.449219 C 20.195312 8.363281 20.0625 8.308594 19.917969 8.285156 C 19.855469 8.285156 19.792969 8.269531 19.738281 8.234375 C 19.550781 8.078125 19.339844 8.03125 19.101562 8.089844 C 19.015625 8.105469 18.945312 8.074219 18.894531 8 C 18.828125 7.929688 18.746094 7.878906 18.652344 7.847656 C 18.582031 7.828125 18.511719 7.824219 18.4375 7.832031 C 18.449219 7.890625 18.449219 7.949219 18.4375 8.007812 C 18.4375 8.050781 18.367188 8.078125 18.324219 8.109375 C 18.277344 8.140625 18.257812 8.054688 18.261719 8.035156 C 18.300781 7.867188 18.183594 7.890625 18.0625 7.878906 C 18.074219 7.949219 18.074219 8.015625 18.0625 8.085938 C 18.027344 8.148438 17.972656 8.191406 17.902344 8.214844 C 17.835938 8.214844 17.765625 8.195312 17.761719 8.09375 C 17.769531 8 17.753906 7.90625 17.722656 7.816406 C 17.648438 7.710938 17.5625 7.613281 17.472656 7.523438 C 17.367188 7.648438 17.359375 7.777344 17.441406 7.914062 C 17.480469 7.949219 17.503906 7.992188 17.503906 8.046875 C 17.503906 8.101562 17.480469 8.144531 17.441406 8.179688 C 17.390625 8.238281 17.253906 8.179688 17.179688 8.105469 C 17.136719 8.054688 17.085938 8.007812 17.027344 7.96875 C 16.921875 7.90625 16.792969 7.875 16.789062 7.695312 C 16.742188 7.769531 16.722656 7.851562 16.734375 7.9375 C 16.773438 8.054688 16.820312 8.167969 16.875 8.277344 C 16.898438 8.332031 16.929688 8.40625 16.90625 8.445312 C 16.886719 8.488281 16.808594 8.511719 16.75 8.519531 C 16.691406 8.523438 16.621094 8.535156 16.589844 8.625 C 16.550781 8.683594 16.5 8.714844 16.429688 8.714844 C 16.246094 8.691406 16.039062 8.714844 15.925781 8.5 L 15.867188 8.546875 C 15.785156 8.621094 15.714844 8.660156 15.644531 8.527344 C 15.617188 8.476562 15.550781 8.445312 15.5 8.410156 L 15.46875 8.433594 C 15.46875 8.476562 15.503906 8.519531 15.523438 8.5625 C 15.542969 8.601562 15.566406 8.621094 15.5625 8.644531 C 15.558594 8.691406 15.539062 8.726562 15.507812 8.757812 C 15.464844 8.769531 15.421875 8.765625 15.386719 8.738281 C 15.25 8.667969 15.117188 8.570312 14.957031 8.65625 C 14.800781 8.746094 14.695312 8.742188 14.617188 8.546875 C 14.539062 8.355469 14.382812 8.292969 14.207031 8.238281 C 14.164062 8.433594 14.171875 8.460938 14.289062 8.703125 C 14.3125 8.753906 14.3125 8.808594 14.289062 8.863281 C 14.25 8.917969 14.175781 8.988281 14.121094 8.984375 C 14.066406 8.984375 13.914062 8.96875 13.90625 8.828125 C 13.902344 8.792969 13.894531 8.757812 13.882812 8.722656 C 13.808594 8.808594 13.800781 8.851562 13.773438 8.875 C 13.730469 8.878906 13.6875 8.878906 13.644531 8.875 C 13.667969 8.894531 13.6875 8.914062 13.703125 8.9375 L 13.753906 9.0625 C 13.707031 9.070312 13.660156 9.070312 13.613281 9.0625 C 13.550781 9.027344 13.492188 8.988281 13.433594 8.945312 C 13.308594 9.078125 13.203125 9.085938 13.09375 8.945312 C 12.996094 8.851562 12.882812 8.808594 12.75 8.824219 C 12.628906 8.824219 12.585938 8.886719 12.574219 9 C 12.5625 9.074219 12.527344 9.136719 12.464844 9.183594 C 12.328125 9.300781 12.171875 9.355469 11.992188 9.34375 C 11.992188 9.375 12.035156 9.386719 12.0625 9.402344 C 12.175781 9.480469 12.234375 9.613281 12.171875 9.65625 C 12.109375 9.699219 11.992188 9.65625 11.90625 9.601562 C 11.820312 9.546875 11.675781 9.457031 11.5625 9.394531 C 11.453125 9.335938 11.441406 9.394531 11.433594 9.484375 C 11.425781 9.574219 11.515625 9.683594 11.605469 9.75 C 11.796875 9.886719 11.804688 9.957031 11.632812 10.136719 C 11.515625 9.992188 11.382812 10.0625 11.25 10.101562 C 11.1875 10.121094 11.125 10.128906 11.058594 10.125 C 10.945312 10.125 10.835938 10.082031 10.714844 10.058594 C 10.671875 10.046875 10.628906 10.046875 10.585938 10.058594 C 10.519531 10.089844 10.457031 10.121094 10.394531 10.15625 C 10.386719 10.226562 10.367188 10.296875 10.332031 10.359375 C 10.273438 10.429688 10.199219 10.410156 10.125 10.359375 C 10.078125 10.347656 10.035156 10.351562 10 10.382812 C 9.941406 10.445312 9.867188 10.484375 9.78125 10.496094 C 9.695312 10.503906 9.617188 10.484375 9.546875 10.4375 C 9.511719 10.527344 9.492188 10.625 9.488281 10.726562 C 9.535156 10.914062 9.609375 11.09375 9.671875 11.273438 C 9.566406 11.324219 9.488281 11.375 9.402344 11.414062 C 9.316406 11.449219 9.253906 11.503906 9.308594 11.640625 C 9.316406 11.664062 9.324219 11.6875 9.332031 11.714844 L 9.195312 11.773438 C 9.265625 11.867188 9.347656 11.953125 9.441406 12.027344 C 9.542969 12.0625 9.648438 12.085938 9.753906 12.09375 C 9.753906 12.039062 9.773438 11.972656 9.785156 11.890625 L 9.929688 11.960938 C 9.949219 11.929688 9.996094 11.914062 10.003906 11.921875 C 10.015625 11.933594 10.132812 12.035156 10.054688 12.128906 L 9.902344 12.078125 C 9.792969 12.238281 9.792969 12.238281 9.609375 12.167969 C 9.574219 12.292969 9.507812 12.324219 9.382812 12.292969 C 9.339844 12.289062 9.308594 12.304688 9.285156 12.339844 C 9.269531 12.382812 9.261719 12.421875 9.257812 12.464844 L 9.363281 12.636719 C 9.429688 12.738281 9.507812 12.832031 9.574219 12.929688 C 9.644531 13.03125 9.65625 13.078125 9.574219 13.15625 L 9.339844 13.011719 L 9.316406 13.039062 C 9.332031 13.058594 9.351562 13.082031 9.371094 13.101562 C 9.394531 13.125 9.421875 13.144531 9.453125 13.160156 C 9.335938 13.355469 9.335938 13.355469 9.546875 13.367188 C 9.570312 13.371094 9.59375 13.371094 9.617188 13.367188 C 9.675781 13.375 9.734375 13.367188 9.789062 13.34375 C 9.867188 13.289062 9.953125 13.277344 10.046875 13.3125 C 10.105469 13.320312 10.167969 13.328125 10.226562 13.328125 C 10.28125 13.324219 10.332031 13.332031 10.382812 13.347656 C 10.414062 13.382812 10.425781 13.421875 10.414062 13.46875 C 10.363281 13.5 10.308594 13.523438 10.25 13.535156 C 10.1875 13.535156 10.117188 13.566406 10.054688 13.585938 C 9.988281 13.609375 9.828125 13.695312 9.710938 13.585938 C 9.691406 13.585938 9.65625 13.585938 9.605469 13.585938 C 9.625 13.621094 9.644531 13.652344 9.671875 13.679688 C 9.703125 13.695312 9.738281 13.710938 9.773438 13.71875 C 9.714844 13.773438 9.699219 13.78125 9.683594 13.789062 C 9.519531 13.835938 9.496094 13.871094 9.527344 14.03125 C 9.558594 14.191406 9.570312 14.246094 9.589844 14.355469 C 9.632812 14.453125 9.617188 14.539062 9.546875 14.621094 C 9.484375 14.683594 9.546875 14.71875 9.59375 14.734375 C 9.628906 14.738281 9.664062 14.738281 9.699219 14.734375 C 9.71875 14.675781 9.726562 14.632812 9.75 14.554688 C 9.8125 14.855469 9.953125 15 10.191406 15.007812 C 10.140625 15.410156 10.210938 15.792969 10.398438 16.15625 L 10.738281 16.117188 C 10.765625 16.167969 10.792969 16.210938 10.828125 16.253906 C 10.863281 16.289062 10.933594 16.328125 10.964844 16.316406 C 11.050781 16.273438 11.132812 16.285156 11.203125 16.351562 C 11.242188 16.367188 11.285156 16.382812 11.328125 16.386719 C 11.328125 16.375 11.328125 16.363281 11.328125 16.351562 C 11.488281 16.496094 11.460938 16.789062 11.671875 16.84375 C 11.785156 16.761719 11.910156 16.699219 12.046875 16.65625 C 12.242188 16.632812 12.289062 16.515625 12.316406 16.359375 C 12.324219 16.296875 12.324219 16.234375 12.316406 16.171875 C 12.316406 16 12.375 15.945312 12.535156 15.90625 C 12.738281 15.867188 12.929688 15.894531 13.113281 15.992188 C 13.34375 16.09375 13.511719 16.410156 13.207031 16.613281 C 13.035156 16.710938 12.957031 16.859375 12.972656 17.058594 C 12.972656 17.136719 12.945312 17.226562 12.972656 17.289062 C 13.046875 17.527344 13.046875 17.761719 12.972656 18 C 12.902344 18.234375 12.8125 18.460938 12.707031 18.683594 C 12.660156 18.796875 12.644531 18.921875 12.601562 19.023438 C 12.554688 19.125 12.601562 19.183594 12.699219 19.21875 C 12.796875 19.253906 12.9375 19.195312 12.933594 19.121094 C 12.933594 18.921875 13.078125 18.863281 13.199219 18.777344 C 13.316406 18.691406 13.433594 18.601562 13.539062 18.75 C 13.609375 18.714844 13.675781 18.65625 13.714844 18.671875 C 13.847656 18.726562 13.910156 18.636719 13.992188 18.574219 C 14.074219 18.507812 14.101562 18.480469 14.136719 18.492188 C 14.328125 18.542969 14.503906 18.503906 14.660156 18.382812 C 14.703125 18.355469 14.765625 18.382812 14.816406 18.347656 C 14.875 18.328125 14.925781 18.296875 14.972656 18.253906 C 15.019531 18.207031 15.046875 18.136719 15.09375 18.089844 C 15.199219 17.976562 15.289062 17.8125 15.488281 17.917969 C 15.488281 17.917969 15.507812 17.917969 15.515625 17.917969 C 15.636719 17.898438 15.660156 17.972656 15.664062 18.074219 C 15.691406 18.289062 15.8125 18.417969 16.027344 18.457031 C 16.0625 18.328125 16.046875 18.207031 15.984375 18.089844 C 15.972656 18.039062 15.972656 17.988281 15.984375 17.941406 L 16.027344 17.945312 C 16.046875 17.960938 16.066406 17.980469 16.082031 18 C 16.171875 18.136719 16.292969 18.226562 16.445312 18.273438 C 16.550781 18.296875 16.605469 18.363281 16.609375 18.46875 C 16.621094 18.519531 16.648438 18.550781 16.695312 18.574219 C 16.855469 18.59375 16.984375 18.664062 17.082031 18.792969 L 17.105469 18.792969 C 17.179688 18.839844 17.246094 18.898438 17.3125 18.957031 C 17.394531 19.046875 17.472656 19.066406 17.554688 18.957031 C 17.636719 18.851562 17.679688 18.910156 17.734375 18.957031 C 17.789062 19.007812 17.785156 19.035156 17.8125 19.066406 C 17.972656 19.292969 18.1875 19.382812 18.460938 19.328125 C 18.679688 19.285156 18.75 19.367188 18.683594 19.574219 C 18.621094 19.78125 18.621094 19.816406 18.8125 19.945312 C 18.921875 20.011719 19.050781 20.054688 19.152344 20.113281 C 19.191406 20.136719 19.25 20.195312 19.242188 20.214844 C 19.191406 20.335938 19.277344 20.410156 19.328125 20.496094 C 19.378906 20.585938 19.40625 20.679688 19.453125 20.765625 C 19.480469 20.835938 19.523438 20.898438 19.582031 20.949219 C 19.726562 21.03125 19.878906 21.097656 20.042969 21.140625 C 20.25 21.1875 20.25 21.171875 20.300781 21.371094 C 20.300781 21.425781 20.371094 21.496094 20.410156 21.5 C 20.527344 21.503906 20.640625 21.496094 20.753906 21.476562 C 20.773438 21.476562 20.785156 21.421875 20.8125 21.402344 C 20.882812 21.324219 20.96875 21.265625 21.066406 21.222656 C 21.324219 21.167969 21.535156 21.035156 21.695312 20.820312 C 21.765625 20.714844 21.835938 20.703125 21.921875 20.792969 C 21.945312 20.820312 21.984375 20.847656 22.015625 20.847656 C 22.191406 20.847656 22.285156 20.964844 22.386719 21.070312 C 22.527344 21.21875 22.699219 21.304688 22.902344 21.328125 C 23.027344 21.339844 23.152344 21.328125 23.277344 21.289062 C 23.316406 21.289062 23.328125 21.175781 23.359375 21.121094 C 23.390625 21.066406 23.414062 21.074219 23.441406 21.050781 C 23.574219 20.953125 23.613281 20.828125 23.5625 20.671875 C 23.539062 20.558594 23.566406 20.457031 23.644531 20.367188 C 23.722656 20.28125 23.820312 20.246094 23.9375 20.257812 C 24.074219 20.28125 24.128906 20.230469 24.097656 20.089844 C 24.097656 20.039062 24.046875 19.996094 24.035156 19.945312 C 24.027344 19.890625 23.972656 19.757812 24.003906 19.699219 C 24.191406 19.445312 24.4375 19.359375 24.742188 19.449219 C 24.933594 19.515625 25.015625 19.507812 25.085938 19.332031 C 25.121094 19.230469 25.121094 19.128906 25.085938 19.027344 C 25.066406 18.972656 24.960938 18.953125 24.890625 18.917969 C 24.84375 18.910156 24.800781 18.894531 24.757812 18.875 C 24.617188 18.765625 24.605469 18.710938 24.660156 18.53125 C 24.660156 18.460938 24.695312 18.359375 24.582031 18.355469 C 24.382812 18.355469 24.355469 18.300781 24.359375 18.101562 C 24.359375 17.96875 24.335938 17.84375 24.289062 17.722656 C 24.246094 17.601562 24.191406 17.488281 24.125 17.378906 C 24.003906 17.148438 23.863281 16.929688 23.984375 16.652344 C 23.984375 16.632812 23.984375 16.613281 23.984375 16.597656 C 24.007812 16.46875 24.039062 16.339844 24.054688 16.210938 C 24.085938 16.097656 24.09375 15.984375 24.082031 15.867188 C 23.917969 15.054688 23.742188 14.246094 23.5625 13.429688 C 23.519531 13.28125 23.550781 13.152344 23.660156 13.039062 L 24.730469 11.972656 C 24.769531 11.941406 24.800781 11.902344 24.824219 11.859375 C 24.890625 11.675781 24.949219 11.488281 24.992188 11.296875 C 25.042969 11.132812 25.128906 10.996094 25.257812 10.878906 C 25.386719 10.757812 25.449219 10.605469 25.441406 10.425781 C 25.441406 10.367188 25.464844 10.3125 25.503906 10.269531 C 25.648438 10.128906 25.820312 10.046875 26.023438 10.027344 C 26.105469 10.019531 26.183594 9.992188 26.253906 9.941406 C 26.347656 9.839844 26.429688 9.722656 26.5 9.601562 C 26.570312 9.492188 26.5625 9.390625 26.472656 9.292969 Z M 26.472656 9.292969 " fill-opacity="1" fill-rule="evenodd"/></g><g clip-path="url(#a403d30103)"><path fill="#014d4e" d="M 8.609375 15.148438 C 8.507812 15.117188 8.410156 15.070312 8.316406 15.011719 C 8.277344 14.984375 8.253906 14.945312 8.246094 14.894531 C 8.246094 14.804688 8.191406 14.773438 8.109375 14.746094 C 8.03125 14.71875 7.957031 14.679688 7.890625 14.628906 C 7.757812 14.488281 7.59375 14.40625 7.402344 14.382812 C 7.300781 14.378906 7.203125 14.367188 7.101562 14.351562 C 6.996094 14.308594 6.933594 14.34375 6.914062 14.457031 C 6.890625 14.519531 6.859375 14.582031 6.824219 14.664062 L 6.664062 14.527344 C 6.460938 14.667969 6.453125 14.664062 6.324219 14.460938 C 6.273438 14.386719 6.222656 14.316406 6.164062 14.234375 C 6.132812 14.273438 6.105469 14.3125 6.082031 14.355469 C 5.980469 14.558594 5.820312 14.65625 5.59375 14.652344 C 5.496094 14.65625 5.398438 14.667969 5.300781 14.691406 C 5.136719 14.730469 5.121094 14.773438 5.222656 14.917969 C 5.257812 15.027344 5.238281 15.125 5.175781 15.21875 C 5.140625 15.238281 5.101562 15.246094 5.0625 15.234375 C 5.027344 15.21875 5.011719 15.167969 5 15.125 C 4.988281 15.085938 5.03125 14.910156 4.859375 14.855469 C 4.914062 15.066406 4.730469 15.070312 4.632812 15.15625 C 4.589844 15.203125 4.5625 15.253906 4.550781 15.316406 C 4.546875 15.394531 4.546875 15.472656 4.550781 15.550781 C 4.539062 15.59375 4.523438 15.636719 4.5 15.675781 C 4.464844 15.644531 4.410156 15.625 4.394531 15.585938 C 4.34375 15.476562 4.304688 15.363281 4.265625 15.246094 C 4.171875 15.074219 4.035156 15.019531 3.851562 15.085938 C 3.851562 15.128906 3.882812 15.175781 3.894531 15.210938 C 3.792969 15.339844 3.707031 15.210938 3.601562 15.210938 C 3.636719 15.261719 3.683594 15.300781 3.734375 15.332031 C 3.769531 15.351562 3.804688 15.375 3.835938 15.402344 C 3.941406 15.542969 3.953125 15.746094 4.113281 15.839844 C 4.136719 15.839844 4.136719 15.914062 4.136719 15.949219 C 4.136719 15.988281 4.117188 16.023438 4.136719 16.054688 C 4.164062 16.175781 4.109375 16.167969 4.027344 16.132812 C 4.007812 16.128906 3.984375 16.128906 3.964844 16.132812 L 3.964844 16.355469 L 3.71875 16.175781 L 3.691406 16.207031 L 3.773438 16.382812 L 3.546875 16.382812 C 3.554688 16.441406 3.570312 16.5 3.59375 16.550781 C 3.695312 16.71875 3.847656 16.808594 4.042969 16.820312 C 4.128906 16.820312 4.1875 16.855469 4.21875 16.933594 C 4.246094 16.984375 4.269531 17.039062 4.289062 17.09375 C 4.308594 17.148438 4.332031 17.222656 4.429688 17.234375 C 4.503906 17.253906 4.570312 17.285156 4.632812 17.328125 L 4.773438 17.382812 C 4.808594 17.382812 4.867188 17.398438 4.875 17.421875 C 4.878906 17.464844 4.871094 17.503906 4.851562 17.542969 C 4.820312 17.636719 4.773438 17.726562 4.738281 17.8125 C 4.699219 17.902344 4.707031 17.902344 4.6875 17.949219 C 4.441406 17.824219 4.445312 17.832031 4.347656 18.089844 C 4.285156 18.246094 4.183594 18.386719 4.113281 18.546875 C 4.085938 18.613281 4.085938 18.679688 4.113281 18.746094 C 4.167969 18.832031 4.230469 18.914062 4.300781 18.984375 C 4.453125 18.855469 4.617188 18.71875 4.777344 18.574219 C 4.804688 18.550781 4.839844 18.5 4.828125 18.472656 C 4.757812 18.25 4.945312 18.089844 4.957031 17.886719 C 4.957031 17.746094 5.039062 17.609375 5.035156 17.46875 C 5.019531 17.332031 5.058594 17.210938 5.152344 17.109375 C 5.246094 17.003906 5.359375 16.957031 5.5 16.957031 C 5.621094 16.957031 5.722656 16.957031 5.769531 16.820312 L 5.941406 16.957031 L 6.03125 16.796875 C 6.128906 16.917969 6.25 16.9375 6.316406 16.855469 C 6.347656 16.816406 6.382812 16.78125 6.421875 16.75 C 6.421875 16.800781 6.421875 16.847656 6.421875 16.898438 C 6.421875 16.945312 6.421875 16.914062 6.421875 16.898438 C 6.480469 16.929688 6.546875 16.953125 6.609375 16.972656 C 6.667969 16.972656 6.726562 16.964844 6.785156 16.953125 C 6.777344 16.902344 6.761719 16.859375 6.746094 16.8125 C 6.746094 16.785156 6.699219 16.765625 6.6875 16.738281 C 6.675781 16.695312 6.667969 16.65625 6.664062 16.613281 C 6.710938 16.605469 6.757812 16.605469 6.800781 16.613281 C 6.871094 16.625 6.941406 16.644531 7.011719 16.664062 C 7.085938 16.6875 7.113281 16.664062 7.128906 16.582031 C 7.148438 16.5 7.199219 16.359375 7.234375 16.242188 C 7.242188 16.273438 7.253906 16.304688 7.269531 16.335938 C 7.296875 16.375 7.328125 16.410156 7.359375 16.445312 C 7.394531 16.410156 7.425781 16.375 7.453125 16.332031 C 7.5 16.25 7.535156 16.164062 7.578125 16.078125 C 7.554688 16.054688 7.53125 16.023438 7.5 15.984375 C 7.546875 15.917969 7.589844 15.890625 7.640625 15.984375 C 7.652344 16.023438 7.679688 16.050781 7.722656 16.0625 C 7.761719 16.070312 7.796875 16.066406 7.832031 16.039062 C 7.890625 15.996094 7.949219 15.949219 8 15.898438 C 8 15.824219 8.023438 15.738281 8.035156 15.648438 L 8.203125 15.691406 L 8.328125 15.390625 L 8.453125 15.347656 C 8.457031 15.410156 8.472656 15.464844 8.492188 15.523438 C 8.53125 15.621094 8.597656 15.644531 8.691406 15.59375 L 8.585938 15.449219 L 8.738281 15.425781 L 8.902344 15.574219 C 8.902344 15.496094 8.917969 15.445312 8.902344 15.414062 C 8.839844 15.285156 8.746094 15.195312 8.609375 15.148438 Z M 8.609375 15.148438 " fill-opacity="1" fill-rule="evenodd"/></g><path fill="#014d4e" d="M 4.402344 12.476562 C 4.457031 12.515625 4.535156 12.519531 4.578125 12.5625 C 4.710938 12.734375 4.871094 12.773438 5.066406 12.683594 C 5.179688 12.644531 5.292969 12.621094 5.410156 12.601562 C 5.441406 12.601562 5.472656 12.613281 5.496094 12.632812 C 5.6875 12.742188 5.777344 12.910156 5.769531 13.128906 C 5.753906 13.1875 5.753906 13.242188 5.769531 13.300781 C 5.8125 13.421875 5.875 13.542969 5.925781 13.667969 L 5.769531 13.75 C 5.871094 13.8125 5.980469 13.871094 6.089844 13.917969 C 6.238281 13.96875 6.519531 13.878906 6.550781 13.777344 C 6.601562 13.609375 6.75 13.480469 6.738281 13.289062 C 6.738281 13.261719 6.773438 13.230469 6.792969 13.203125 L 7.078125 13.421875 C 7.148438 13.289062 7.359375 13.257812 7.292969 13.050781 L 7.195312 13.050781 L 7.195312 13.011719 L 7.582031 13.011719 C 7.582031 12.980469 7.597656 12.941406 7.613281 12.890625 C 7.699219 12.957031 7.847656 12.890625 7.875 13.042969 C 8.015625 12.996094 7.996094 12.921875 7.945312 12.835938 C 7.890625 12.75 7.800781 12.644531 7.890625 12.515625 C 7.890625 12.492188 7.859375 12.425781 7.835938 12.382812 C 7.828125 12.398438 7.820312 12.414062 7.8125 12.433594 C 7.769531 12.433594 7.699219 12.464844 7.691406 12.433594 C 7.636719 12.355469 7.601562 12.269531 7.554688 12.1875 C 7.507812 12.105469 7.492188 12.054688 7.453125 12.050781 C 7.367188 12.050781 7.300781 12.011719 7.257812 11.933594 C 7.238281 11.90625 7.210938 11.890625 7.175781 11.886719 C 7.066406 11.886719 6.957031 11.886719 6.835938 11.859375 C 6.65625 11.839844 6.621094 11.800781 6.617188 11.617188 C 6.617188 11.582031 6.617188 11.546875 6.617188 11.507812 C 6.617188 11.402344 6.558594 11.363281 6.46875 11.355469 C 6.390625 11.351562 6.308594 11.351562 6.226562 11.355469 C 6.226562 11.402344 6.226562 11.460938 6.226562 11.515625 C 6.226562 11.695312 6.144531 11.761719 5.96875 11.75 L 5.882812 11.75 C 5.832031 11.835938 6 12.039062 5.730469 11.976562 L 5.757812 12.113281 C 5.710938 12.152344 5.667969 12.199219 5.625 12.246094 C 5.5625 12.328125 5.484375 12.351562 5.386719 12.3125 C 5.273438 12.289062 5.160156 12.285156 5.042969 12.296875 C 4.953125 12.296875 4.859375 12.332031 4.765625 12.328125 C 4.675781 12.328125 4.550781 12.289062 4.445312 12.285156 C 4.386719 12.296875 4.332031 12.316406 4.28125 12.34375 C 4.316406 12.390625 4.355469 12.4375 4.402344 12.476562 Z M 4.402344 12.476562 " fill-opacity="1" fill-rule="evenodd"/><path fill="#014d4e" d="M 9.058594 14.273438 C 9.058594 14.25 9.019531 14.191406 8.984375 14.175781 C 8.875 14.117188 8.761719 14.066406 8.644531 14.027344 C 8.554688 14 8.460938 13.984375 8.367188 13.984375 C 8.285156 13.984375 8.246094 14.03125 8.25 14.117188 C 8.257812 14.203125 8.25 14.257812 8.25 14.332031 C 8.226562 14.328125 8.199219 14.328125 8.175781 14.332031 C 8.121094 14.332031 8.035156 14.332031 8.023438 14.382812 C 8 14.441406 8.007812 14.496094 8.046875 14.546875 C 8.101562 14.59375 8.164062 14.628906 8.230469 14.652344 C 8.273438 14.660156 8.3125 14.679688 8.351562 14.703125 C 8.429688 14.789062 8.5 14.878906 8.574219 14.96875 C 8.632812 14.917969 8.679688 14.847656 8.714844 14.847656 C 8.808594 14.863281 8.898438 14.882812 8.984375 14.910156 C 9.039062 14.910156 9.113281 14.910156 9.144531 14.910156 C 9.175781 14.910156 9.175781 14.8125 9.175781 14.757812 C 9.175781 14.703125 9.148438 14.703125 9.140625 14.671875 C 9.09375 14.527344 8.988281 14.429688 9.058594 14.273438 Z M 9.058594 14.273438 " fill-opacity="1" fill-rule="evenodd"/><path fill="#014d4e" d="M 8.328125 12.082031 C 8.347656 12.109375 8.398438 12.148438 8.417969 12.136719 C 8.488281 12.109375 8.554688 12.070312 8.621094 12.027344 L 8.816406 12.175781 C 8.847656 12.054688 8.945312 12.023438 9.117188 12.070312 C 9.1875 11.914062 9.066406 11.832031 9 11.726562 C 8.933594 11.621094 8.875 11.707031 8.808594 11.703125 C 8.742188 11.699219 8.738281 11.722656 8.710938 11.703125 C 8.625 11.671875 8.542969 11.628906 8.457031 11.59375 C 8.347656 11.554688 8.265625 11.585938 8.214844 11.691406 C 8.1875 11.730469 8.214844 11.820312 8.246094 11.886719 C 8.261719 11.957031 8.292969 12.023438 8.328125 12.082031 Z M 8.328125 12.082031 " fill-opacity="1" fill-rule="evenodd"/><g clip-path="url(#d894270b69)"><path fill="#014d4e" d="M 13.253906 8.375 C 13.347656 8.40625 13.394531 8.375 13.363281 8.277344 C 13.316406 8.160156 13.265625 8.046875 13.207031 7.9375 C 13.171875 8.003906 13.148438 8.035156 13.128906 8.074219 C 13.09375 8.132812 13.085938 8.191406 13.113281 8.253906 C 13.140625 8.320312 13.1875 8.359375 13.253906 8.375 Z M 13.253906 8.375 " fill-opacity="1" fill-rule="evenodd"/></g><path fill="#014d4e" d="M 11.238281 17.457031 C 11.207031 17.511719 11.179688 17.566406 11.167969 17.628906 L 11.25 17.769531 C 11.289062 17.734375 11.324219 17.695312 11.355469 17.648438 C 11.378906 17.617188 11.390625 17.578125 11.394531 17.535156 C 11.390625 17.496094 11.382812 17.457031 11.371094 17.417969 C 11.320312 17.429688 11.261719 17.429688 11.238281 17.457031 Z M 11.238281 17.457031 " fill-opacity="1" fill-rule="evenodd"/><path fill="#014d4e" d="M 11.429688 9.742188 C 11.371094 9.671875 11.304688 9.609375 11.234375 9.546875 C 11.234375 9.546875 11.148438 9.613281 11.148438 9.613281 C 11.195312 9.691406 11.253906 9.765625 11.316406 9.832031 Z M 11.429688 9.742188 " fill-opacity="1" fill-rule="evenodd"/><path fill="#014d4e" d="M 11.136719 9.898438 C 11.152344 9.898438 11.160156 9.851562 11.15625 9.828125 C 11.105469 9.683594 11.007812 9.628906 10.859375 9.660156 C 10.933594 9.75 10.992188 9.824219 11.054688 9.890625 C 11.082031 9.90625 11.109375 9.910156 11.136719 9.898438 Z M 11.136719 9.898438 " fill-opacity="1" fill-rule="evenodd"/><path fill="#014d4e" d="M 8.5625 19.53125 C 8.53125 19.582031 8.507812 19.636719 8.492188 19.695312 C 8.492188 19.796875 8.566406 19.8125 8.640625 19.824219 C 8.65625 19.824219 8.707031 19.761719 8.699219 19.75 C 8.65625 19.671875 8.613281 19.601562 8.5625 19.53125 Z M 8.5625 19.53125 " fill-opacity="1" fill-rule="evenodd"/><g clip-path="url(#d2272a6a51)"><path fill="#014d4e" d="M 3.820312 15.839844 L 3.453125 15.894531 C 3.503906 15.960938 3.570312 15.988281 3.652344 15.976562 C 3.734375 15.964844 3.789062 15.917969 3.820312 15.839844 Z M 3.820312 15.839844 " fill-opacity="1" fill-rule="evenodd"/></g><path fill="#014d4e" d="M 5.953125 17.558594 C 6.058594 17.441406 6.054688 17.367188 5.953125 17.257812 C 5.851562 17.394531 5.851562 17.476562 5.953125 17.558594 Z M 5.953125 17.558594 " fill-opacity="1" fill-rule="evenodd"/><g clip-path="url(#dc8e535015)"><path fill="#014d4e" d="M 15.125 7.875 L 14.933594 7.691406 L 14.933594 7.914062 L 15.089844 7.914062 Z M 15.125 7.875 " fill-opacity="1" fill-rule="evenodd"/></g></svg>