<svg xmlns="http://www.w3.org/2000/svg" xmlns:xlink="http://www.w3.org/1999/xlink" width="40" zoomAndPan="magnify" viewBox="0 0 30 30.000001" height="40" preserveAspectRatio="xMidYMid meet" version="1.0"><defs><clipPath id="537bc859e5"><path d="M 3.386719 4.210938 L 26.613281 4.210938 L 26.613281 24.53125 L 3.386719 24.53125 Z M 3.386719 4.210938 " clip-rule="nonzero"/></clipPath></defs><g clip-path="url(#537bc859e5)"><path fill="#014d4e" d="M 26.570312 24.496094 L 26.363281 24.335938 C 26.351562 24.324219 26.339844 24.320312 26.320312 24.316406 L 26.144531 24.296875 L 25.972656 24.09375 L 25.902344 24.015625 C 25.890625 24.003906 25.867188 23.992188 25.851562 23.988281 L 25.707031 23.976562 L 25.632812 23.828125 C 25.625 23.808594 25.609375 23.796875 25.59375 23.789062 L 25.429688 23.707031 L 25.34375 23.5 C 25.34375 23.492188 25.332031 23.480469 25.324219 23.46875 L 25.175781 23.339844 C 25.160156 23.324219 25.140625 23.316406 25.121094 23.316406 L 24.972656 23.316406 L 24.683594 23.273438 L 24.46875 23.03125 L 24.453125 22.921875 C 24.453125 22.902344 24.4375 22.882812 24.421875 22.871094 L 24.25 22.722656 L 24.21875 22.496094 C 24.21875 22.480469 24.210938 22.464844 24.203125 22.457031 L 24.0625 22.261719 L 24.042969 21.980469 C 24.042969 21.96875 24.042969 21.957031 24.035156 21.949219 L 23.9375 21.738281 L 23.929688 21.117188 C 23.929688 21.097656 23.921875 21.082031 23.910156 21.066406 L 23.898438 21.050781 L 23.941406 20.847656 L 23.957031 20.863281 C 23.96875 20.871094 23.976562 20.878906 23.992188 20.882812 L 24.195312 20.941406 C 24.234375 20.949219 24.273438 20.933594 24.292969 20.902344 L 24.351562 20.792969 C 24.363281 20.769531 24.367188 20.746094 24.355469 20.722656 L 24.335938 20.664062 C 24.328125 20.644531 24.308594 20.625 24.285156 20.613281 L 24.09375 20.542969 L 24.101562 20.480469 C 24.109375 20.4375 24.078125 20.394531 24.035156 20.386719 L 23.871094 20.355469 L 23.765625 20.136719 C 23.761719 20.128906 23.757812 20.125 23.75 20.117188 L 23.457031 19.804688 L 23.269531 19.605469 L 23.308594 19.535156 C 23.328125 19.503906 23.324219 19.460938 23.296875 19.4375 L 23.175781 19.316406 L 23.191406 19.242188 C 23.195312 19.21875 23.191406 19.199219 23.175781 19.179688 L 23.066406 19.019531 L 22.945312 18.855469 L 22.894531 18.582031 C 22.894531 18.574219 22.890625 18.566406 22.882812 18.558594 L 22.792969 18.398438 L 22.667969 18.136719 L 22.660156 18.121094 L 22.640625 18.078125 C 22.640625 18.074219 22.636719 18.066406 22.632812 18.0625 L 22.320312 17.640625 L 22.277344 17.382812 C 22.277344 17.375 22.277344 17.371094 22.273438 17.363281 L 22.113281 16.945312 C 22.105469 16.929688 22.089844 16.914062 22.074219 16.90625 L 21.875 16.796875 L 21.835938 16.578125 C 21.832031 16.558594 21.820312 16.539062 21.800781 16.523438 L 21.660156 16.429688 L 21.105469 15.148438 C 21.097656 15.132812 21.085938 15.113281 21.0625 15.105469 L 20.964844 15.058594 C 20.964844 15.007812 20.972656 14.941406 20.972656 14.914062 C 20.972656 14.898438 20.980469 14.828125 20.992188 14.765625 C 20.992188 14.765625 20.992188 14.761719 20.992188 14.761719 L 21.003906 14.644531 C 21.003906 14.636719 21.003906 14.625 21.003906 14.617188 L 20.957031 14.390625 C 20.957031 14.378906 20.949219 14.367188 20.945312 14.359375 L 20.84375 14.207031 L 20.832031 13.960938 C 20.832031 13.945312 20.828125 13.925781 20.816406 13.914062 L 20.699219 13.765625 C 20.699219 13.765625 20.695312 13.761719 20.691406 13.761719 L 20.617188 13.6875 L 20.484375 13.46875 C 20.484375 13.46875 20.484375 13.464844 20.480469 13.460938 L 20.394531 13.351562 L 20.296875 13.117188 C 20.296875 13.117188 20.296875 13.109375 20.292969 13.109375 L 20.253906 13.042969 L 20.234375 12.898438 C 20.234375 12.890625 20.234375 12.882812 20.226562 12.875 L 20.179688 12.765625 L 20.257812 12.765625 C 20.28125 12.761719 20.304688 12.75 20.316406 12.730469 C 20.332031 12.714844 20.339844 12.691406 20.335938 12.667969 L 20.324219 12.578125 C 20.324219 12.566406 20.316406 12.550781 20.3125 12.542969 L 20.21875 12.394531 L 20.101562 12.21875 C 20.089844 12.203125 20.074219 12.191406 20.050781 12.183594 L 19.949219 12.160156 L 19.828125 12.078125 L 19.792969 11.992188 C 19.792969 11.988281 19.785156 11.980469 19.777344 11.972656 L 19.691406 11.875 L 19.457031 11.621094 L 19.390625 11.527344 L 19.320312 11.378906 L 19.292969 11.28125 C 19.289062 11.261719 19.273438 11.246094 19.261719 11.234375 L 19.179688 11.171875 L 19.050781 11.0625 L 19.027344 11.039062 L 18.972656 10.988281 L 18.925781 10.816406 C 18.925781 10.8125 18.925781 10.804688 18.921875 10.804688 L 18.867188 10.691406 L 18.867188 10.632812 C 18.875 10.617188 18.867188 10.59375 18.859375 10.582031 L 18.820312 10.523438 C 18.808594 10.507812 18.792969 10.496094 18.777344 10.492188 L 18.734375 10.476562 L 18.558594 10.269531 L 18.53125 10.132812 L 18.582031 9.957031 C 18.585938 9.945312 18.585938 9.929688 18.582031 9.914062 L 18.488281 9.542969 C 18.488281 9.542969 18.488281 9.535156 18.488281 9.535156 L 18.394531 9.285156 C 18.390625 9.273438 18.386719 9.265625 18.378906 9.253906 L 18.015625 8.859375 L 18.054688 8.667969 L 18.121094 8.53125 L 18.234375 8.34375 C 18.242188 8.328125 18.246094 8.3125 18.242188 8.289062 C 18.242188 8.28125 18.238281 8.25 18.238281 8.222656 C 18.246094 8.214844 18.257812 8.203125 18.273438 8.191406 L 18.449219 8.34375 L 18.484375 8.5625 L 18.558594 8.898438 C 18.558594 8.902344 18.558594 8.90625 18.5625 8.910156 L 18.636719 9.101562 L 18.683594 9.359375 C 18.683594 9.367188 18.683594 9.375 18.691406 9.378906 L 18.789062 9.585938 C 18.792969 9.59375 18.796875 9.605469 18.800781 9.609375 L 18.996094 9.8125 L 19.148438 10.027344 C 19.15625 10.035156 19.164062 10.046875 19.179688 10.050781 L 19.382812 10.152344 L 19.414062 10.378906 C 19.414062 10.378906 19.414062 10.386719 19.414062 10.390625 L 19.476562 10.65625 L 19.441406 10.796875 C 19.441406 10.804688 19.441406 10.820312 19.441406 10.835938 L 19.484375 11.035156 L 19.484375 11.054688 C 19.492188 11.066406 19.496094 11.082031 19.507812 11.09375 L 19.820312 11.441406 L 19.820312 11.5 C 19.820312 11.53125 19.835938 11.558594 19.867188 11.574219 L 20.15625 11.722656 L 20.238281 11.898438 C 20.238281 11.902344 20.246094 11.910156 20.246094 11.914062 L 20.417969 12.136719 C 20.417969 12.136719 20.417969 12.140625 20.421875 12.144531 L 20.632812 12.386719 L 20.695312 12.472656 C 20.707031 12.488281 20.71875 12.5 20.738281 12.503906 L 20.847656 12.539062 L 21.011719 12.703125 C 21.015625 12.710938 21.023438 12.71875 21.035156 12.722656 L 21.167969 12.78125 C 21.167969 12.78125 21.175781 12.78125 21.179688 12.78125 L 21.292969 12.816406 C 21.515625 12.875 21.53125 12.875 21.570312 12.847656 C 21.582031 12.839844 21.59375 12.824219 21.597656 12.808594 C 21.617188 12.765625 21.796875 12.429688 21.910156 12.226562 C 21.910156 12.222656 21.914062 12.214844 21.917969 12.210938 L 21.953125 12.09375 C 21.957031 12.078125 21.957031 12.066406 21.953125 12.054688 L 21.921875 11.875 L 21.921875 11.734375 C 21.921875 11.734375 21.921875 11.726562 21.921875 11.726562 C 21.921875 11.695312 21.910156 11.609375 21.910156 11.582031 C 21.910156 11.566406 21.9375 11.519531 21.945312 11.496094 C 21.976562 11.433594 21.992188 11.402344 21.992188 11.367188 L 21.992188 11.179688 L 22.117188 10.960938 C 22.144531 10.933594 22.171875 10.871094 22.226562 10.722656 C 22.304688 10.503906 22.304688 10.464844 22.304688 10.453125 L 22.296875 10.199219 L 22.308594 9.953125 C 22.328125 9.925781 22.359375 9.871094 22.371094 9.800781 C 22.375 9.769531 22.382812 9.734375 22.382812 9.699219 C 22.394531 9.628906 22.40625 9.582031 22.40625 9.558594 C 22.40625 9.542969 22.429688 9.480469 22.453125 9.425781 L 22.71875 9.101562 C 22.730469 9.085938 22.738281 9.0625 22.738281 9.046875 L 22.738281 8.925781 C 22.738281 8.921875 22.738281 8.917969 22.738281 8.914062 L 22.65625 8.359375 C 22.65625 8.351562 22.65625 8.347656 22.652344 8.339844 L 22.40625 7.667969 L 22.285156 7.214844 C 22.285156 7.210938 22.28125 7.203125 22.277344 7.199219 L 22.226562 7.105469 C 22.21875 7.097656 22.207031 7.085938 22.199219 7.078125 L 22.121094 7.027344 L 22.109375 6.957031 L 22.109375 6.867188 C 22.109375 6.855469 22.109375 6.828125 22.074219 6.769531 L 22.019531 6.585938 L 22.011719 6.4375 C 22.011719 6.429688 22.011719 6.421875 22.007812 6.414062 L 21.609375 5.363281 L 21.578125 5.199219 C 21.578125 5.1875 21.570312 5.179688 21.566406 5.167969 L 21.472656 5.03125 C 21.457031 5.011719 21.4375 5 21.414062 4.996094 C 21.386719 4.996094 21.363281 5.003906 21.347656 5.023438 L 21.242188 5.125 L 21.144531 5.207031 L 20.96875 5.289062 L 20.800781 5.347656 L 20.601562 5.363281 C 20.59375 5.363281 20.585938 5.363281 20.578125 5.367188 L 20.480469 5.402344 L 20.238281 5.472656 L 20.222656 5.457031 C 20.207031 5.441406 20.1875 5.4375 20.164062 5.4375 L 20.066406 5.4375 C 20.050781 5.4375 20.042969 5.4375 20.027344 5.441406 L 19.992188 5.460938 C 19.976562 5.46875 19.96875 5.476562 19.960938 5.488281 L 19.941406 5.515625 L 19.902344 5.503906 C 19.894531 5.5 19.878906 5.496094 19.867188 5.496094 L 19.757812 5.503906 C 19.75 5.503906 19.738281 5.503906 19.730469 5.511719 L 19.558594 5.585938 L 19.46875 5.59375 L 19.46875 5.550781 C 19.46875 5.539062 19.46875 5.523438 19.460938 5.511719 L 19.410156 5.402344 C 19.402344 5.390625 19.386719 5.375 19.375 5.363281 L 19.320312 5.335938 C 19.292969 5.324219 19.261719 5.324219 19.234375 5.339844 L 19.007812 5.492188 L 18.945312 5.519531 L 18.757812 5.585938 C 18.757812 5.585938 18.75 5.585938 18.75 5.585938 L 18.644531 5.636719 L 18.417969 5.582031 L 18.375 5.539062 L 18.304688 5.441406 C 18.28125 5.414062 18.246094 5.402344 18.214844 5.414062 L 18.105469 5.445312 L 18.078125 5.410156 C 18.078125 5.410156 18.070312 5.402344 18.070312 5.402344 L 18.027344 5.367188 L 17.949219 5.230469 L 17.90625 5.160156 C 17.894531 5.140625 17.875 5.128906 17.855469 5.125 L 17.757812 5.101562 C 17.71875 5.089844 17.683594 5.109375 17.664062 5.140625 L 17.65625 5.15625 L 17.617188 5.167969 L 17.617188 5.148438 C 17.617188 5.105469 17.578125 5.066406 17.535156 5.066406 L 17.457031 5.066406 L 17.457031 5.011719 C 17.457031 5.003906 17.453125 4.996094 17.449219 4.992188 L 17.4375 4.957031 C 17.4375 4.945312 17.429688 4.933594 17.425781 4.921875 L 17.347656 4.828125 L 17.324219 4.796875 C 17.3125 4.773438 17.292969 4.734375 17.265625 4.703125 C 17.238281 4.679688 17.179688 4.628906 17.171875 4.625 C 17.15625 4.609375 17.128906 4.601562 17.101562 4.605469 L 16.84375 4.664062 L 16.726562 4.699219 L 16.59375 4.683594 C 16.585938 4.683594 16.582031 4.683594 16.574219 4.683594 L 16.335938 4.703125 C 16.238281 4.679688 16.121094 4.648438 16.085938 4.636719 C 16.046875 4.605469 15.945312 4.550781 15.644531 4.414062 C 15.636719 4.410156 15.625 4.40625 15.613281 4.40625 L 15.441406 4.390625 C 15.433594 4.390625 15.425781 4.390625 15.417969 4.390625 L 15.296875 4.414062 C 15.261719 4.421875 15.234375 4.453125 15.230469 4.488281 C 15.230469 4.527344 15.25 4.558594 15.285156 4.574219 L 15.382812 4.609375 L 15.367188 4.636719 L 15.300781 4.703125 L 15.09375 4.835938 L 14.851562 4.835938 C 14.832031 4.835938 14.8125 4.84375 14.796875 4.851562 L 14.785156 4.863281 L 14.679688 4.871094 C 14.640625 4.863281 14.601562 4.851562 14.582031 4.847656 C 14.5625 4.832031 14.519531 4.800781 14.40625 4.734375 C 14.398438 4.730469 14.390625 4.726562 14.378906 4.722656 L 14.199219 4.6875 C 14.164062 4.679688 14.128906 4.699219 14.109375 4.730469 L 14 4.933594 L 13.929688 4.933594 C 13.898438 4.933594 13.867188 4.957031 13.851562 4.984375 L 13.804688 5.09375 L 13.734375 5.113281 L 13.582031 5.09375 C 13.578125 5.09375 13.574219 5.09375 13.570312 5.09375 L 13.433594 5.101562 C 13.410156 5.101562 13.390625 5.109375 13.375 5.128906 L 13.308594 5.207031 L 13.230469 5.277344 C 13.230469 5.277344 13.230469 5.277344 13.226562 5.28125 L 13.070312 5.453125 L 12.847656 5.554688 C 12.839844 5.554688 12.835938 5.5625 12.832031 5.566406 L 12.753906 5.632812 L 12.316406 5.945312 L 11.933594 6.042969 L 11.632812 6.085938 L 11.476562 5.988281 L 11.246094 5.816406 C 11.246094 5.816406 11.242188 5.8125 11.242188 5.808594 L 11.09375 5.722656 C 11.085938 5.71875 11.078125 5.714844 11.070312 5.714844 L 10.726562 5.621094 L 10.652344 5.5625 C 10.644531 5.550781 10.628906 5.546875 10.613281 5.546875 L 10.402344 5.511719 C 10.386719 5.511719 10.367188 5.511719 10.355469 5.515625 L 10.257812 5.5625 L 10.167969 5.546875 C 10.167969 5.546875 10.160156 5.546875 10.15625 5.546875 L 9.910156 5.527344 L 9.742188 5.507812 L 9.726562 5.5 C 9.722656 5.5 9.714844 5.496094 9.707031 5.496094 L 9.617188 5.480469 L 9.578125 5.398438 L 9.5625 5.292969 C 9.5625 5.28125 9.554688 5.265625 9.542969 5.253906 L 9.503906 5.203125 C 9.480469 5.175781 9.441406 5.164062 9.40625 5.179688 L 9.3125 5.214844 L 9.144531 5.28125 C 9.132812 5.289062 9.117188 5.292969 9.109375 5.308594 L 9.09375 5.328125 L 8.976562 5.273438 C 8.96875 5.269531 8.957031 5.265625 8.949219 5.265625 L 8.667969 5.234375 C 8.636719 5.207031 8.609375 5.179688 8.59375 5.160156 C 8.59375 5.121094 8.578125 5.0625 8.578125 5.035156 C 8.578125 5.03125 8.574219 5.019531 8.570312 5.011719 L 8.523438 4.917969 C 8.507812 4.890625 8.480469 4.875 8.449219 4.875 L 8.113281 4.875 L 8.003906 4.855469 L 7.957031 4.808594 C 7.953125 4.808594 7.949219 4.800781 7.941406 4.796875 L 7.824219 4.726562 C 7.804688 4.714844 7.785156 4.710938 7.765625 4.714844 L 7.617188 4.746094 C 7.554688 4.707031 7.542969 4.699219 7.535156 4.699219 C 7.523438 4.699219 7.457031 4.664062 7.402344 4.640625 C 7.394531 4.632812 7.378906 4.632812 7.367188 4.632812 L 6.9375 4.632812 L 6.824219 4.609375 L 6.609375 4.535156 C 6.605469 4.535156 6.601562 4.535156 6.597656 4.535156 L 6.066406 4.433594 L 5.871094 4.378906 C 5.871094 4.378906 5.863281 4.378906 5.859375 4.378906 L 5.703125 4.355469 C 5.6875 4.355469 5.667969 4.355469 5.65625 4.363281 L 5.527344 4.429688 L 5.300781 4.515625 C 5.199219 4.542969 5.136719 4.558594 5.121094 4.566406 C 5.101562 4.574219 4.964844 4.609375 4.84375 4.640625 L 4.664062 4.65625 L 4.527344 4.617188 C 4.519531 4.585938 4.507812 4.546875 4.484375 4.519531 C 4.472656 4.507812 4.4375 4.449219 4.410156 4.398438 L 4.410156 4.300781 C 4.410156 4.261719 4.386719 4.230469 4.351562 4.21875 C 4.316406 4.210938 4.277344 4.222656 4.257812 4.253906 L 4.128906 4.464844 C 4.121094 4.476562 4.113281 4.492188 4.113281 4.507812 L 4.113281 4.550781 L 3.730469 4.816406 C 3.703125 4.839844 3.691406 4.875 3.699219 4.910156 L 3.738281 5.042969 L 3.699219 5.183594 C 3.699219 5.191406 3.699219 5.199219 3.699219 5.207031 L 3.699219 5.472656 C 3.699219 5.484375 3.699219 5.496094 3.707031 5.503906 L 3.976562 6.214844 L 3.976562 6.3125 L 3.925781 6.417969 C 3.925781 6.425781 3.921875 6.429688 3.917969 6.4375 L 3.820312 6.882812 L 3.582031 7.171875 C 3.582031 7.175781 3.578125 7.179688 3.574219 7.1875 L 3.410156 7.578125 C 3.398438 7.601562 3.398438 7.632812 3.414062 7.65625 L 3.597656 7.941406 L 3.660156 8.160156 L 3.660156 8.382812 C 3.660156 8.398438 3.660156 8.40625 3.667969 8.417969 L 3.839844 8.765625 C 3.839844 8.769531 3.769531 8.800781 3.769531 8.800781 C 3.738281 8.8125 3.722656 8.84375 3.722656 8.878906 L 3.722656 9.050781 C 3.726562 9.0625 3.730469 9.074219 3.734375 9.085938 L 3.980469 9.582031 L 3.980469 11.039062 C 3.980469 11.039062 3.992188 18.117188 3.992188 18.117188 L 3.992188 18.132812 C 3.992188 18.132812 4.003906 24.730469 4.003906 24.730469 C 4.003906 24.777344 4.042969 24.816406 4.089844 24.816406 L 26.519531 24.816406 C 26.5625 24.816406 26.601562 24.777344 26.601562 24.730469 L 26.601562 24.566406 C 26.601562 24.539062 26.59375 24.515625 26.570312 24.496094 Z M 18.011719 7.09375 L 18.097656 7.191406 L 18.097656 7.320312 L 18.152344 7.363281 L 18.273438 7.519531 L 17.949219 7.371094 L 17.867188 7.292969 L 17.867188 7.175781 L 17.902344 7.140625 L 17.953125 7.066406 L 17.992188 7.039062 L 18.015625 7.09375 Z M 18.011719 7.09375 " fill-opacity="1" fill-rule="nonzero"/></g></svg>