<svg xmlns="http://www.w3.org/2000/svg" xmlns:xlink="http://www.w3.org/1999/xlink" width="40" zoomAndPan="magnify" viewBox="0 0 30 30.000001" height="40" preserveAspectRatio="xMidYMid meet" version="1.0"><defs><clipPath id="5b9103acbd"><path d="M 3.386719 4.152344 L 26.613281 4.152344 L 26.613281 25 L 3.386719 25 Z M 3.386719 4.152344 " clip-rule="nonzero"/></clipPath><clipPath id="661c1cce04"><path d="M 26 22 L 26.613281 22 L 26.613281 23 L 26 23 Z M 26 22 " clip-rule="nonzero"/></clipPath></defs><g clip-path="url(#5b9103acbd)"><path fill="#014d4e" d="M 12.8125 9.4375 L 12.839844 9.460938 L 12.847656 9.488281 L 12.851562 9.515625 L 12.84375 9.539062 L 12.824219 9.558594 L 12.8125 9.539062 L 12.796875 9.511719 L 12.78125 9.496094 L 12.773438 9.511719 L 12.769531 9.546875 L 12.769531 9.566406 L 12.777344 9.585938 L 12.796875 9.59375 L 12.820312 9.605469 L 12.839844 9.617188 L 12.855469 9.628906 L 12.867188 9.640625 L 12.871094 9.746094 L 12.882812 9.78125 L 12.894531 9.832031 L 12.902344 9.902344 L 12.925781 9.960938 L 12.945312 10.132812 L 12.949219 10.1875 L 12.960938 10.238281 L 12.972656 10.476562 L 12.980469 10.515625 L 12.980469 10.574219 L 12.957031 10.601562 L 13.011719 10.738281 L 13.019531 10.765625 L 13.039062 10.789062 L 13.039062 10.832031 L 13.019531 10.867188 L 13.027344 10.902344 L 13.054688 10.941406 L 13.070312 10.957031 L 13.066406 11.15625 L 13.085938 11.203125 L 13.113281 11.257812 L 13.195312 11.417969 L 13.195312 11.445312 L 13.210938 11.46875 L 13.222656 11.589844 L 13.234375 11.621094 L 13.253906 11.636719 L 13.257812 11.6875 L 13.265625 11.710938 L 13.304688 11.730469 L 13.316406 11.929688 L 13.332031 11.960938 L 13.34375 11.988281 L 13.394531 12 C 13.394531 12 13.492188 12.082031 13.554688 12.15625 C 13.617188 12.226562 13.648438 12.222656 13.652344 12.226562 C 13.660156 12.226562 13.753906 12.289062 13.753906 12.289062 L 13.804688 12.328125 L 13.808594 12.375 L 13.800781 12.410156 L 13.78125 12.433594 L 13.761719 12.453125 L 13.765625 12.5625 L 13.792969 12.59375 L 13.824219 12.621094 L 13.855469 12.660156 L 13.847656 12.714844 L 13.867188 12.742188 L 13.910156 12.796875 L 13.945312 12.859375 L 13.9375 12.941406 L 13.917969 12.984375 L 13.859375 13.039062 L 13.808594 13.054688 L 13.859375 13.226562 L 13.890625 13.296875 L 13.9375 13.363281 L 13.96875 13.390625 L 13.996094 13.371094 L 14.015625 13.347656 L 14.066406 13.320312 L 14.085938 13.308594 L 14.277344 13.3125 L 14.3125 13.320312 L 14.371094 13.375 L 14.40625 13.46875 L 14.453125 13.570312 L 14.476562 13.625 L 14.492188 13.667969 L 14.503906 13.703125 L 14.507812 13.8125 L 14.527344 13.90625 L 14.550781 13.957031 L 14.5625 13.996094 L 14.578125 14.019531 L 14.675781 14.152344 L 14.726562 14.238281 C 14.726562 14.238281 14.761719 14.34375 14.75 14.371094 C 14.742188 14.398438 14.726562 14.503906 14.726562 14.503906 C 14.726562 14.503906 14.710938 14.535156 14.707031 14.539062 C 14.707031 14.546875 14.695312 14.585938 14.695312 14.585938 L 14.6875 14.609375 L 14.703125 14.632812 L 14.707031 14.792969 L 14.722656 14.824219 C 14.722656 14.824219 14.726562 14.839844 14.734375 14.847656 C 14.738281 14.851562 14.757812 14.890625 14.757812 14.890625 L 14.777344 14.910156 C 14.777344 14.910156 14.792969 14.921875 14.800781 14.921875 C 14.808594 14.921875 14.84375 14.921875 14.84375 14.921875 L 14.894531 14.921875 L 14.90625 14.9375 L 14.945312 14.996094 L 14.96875 15.007812 L 15.019531 15.007812 L 15.09375 14.96875 L 15.121094 14.941406 L 15.128906 14.890625 L 15.125 14.855469 L 15.136719 14.832031 L 15.140625 14.792969 L 15.179688 14.738281 L 15.226562 14.695312 L 15.25 14.664062 L 15.261719 14.578125 L 15.234375 14.53125 L 15.210938 14.476562 L 15.195312 14.425781 C 15.195312 14.425781 15.179688 14.371094 15.171875 14.355469 C 15.164062 14.339844 15.152344 14.316406 15.152344 14.316406 L 15.136719 14.269531 L 15.125 14.242188 L 15.101562 14.242188 L 15.078125 14.25 L 15.078125 14.269531 L 15.074219 14.332031 L 15.035156 14.324219 L 15.015625 14.289062 L 15.007812 14.269531 L 15.003906 14.183594 L 14.980469 14.082031 L 14.988281 13.964844 L 15.007812 13.910156 L 14.992188 13.816406 L 15.035156 13.78125 L 15.0625 13.738281 L 15.078125 13.679688 L 15.078125 13.644531 L 15.09375 13.652344 L 15.105469 13.667969 L 15.113281 13.683594 L 15.121094 13.691406 L 15.128906 13.703125 L 15.136719 13.710938 L 15.152344 13.710938 L 15.160156 13.667969 L 15.164062 13.625 L 15.171875 13.609375 L 15.175781 13.570312 L 15.183594 13.570312 L 15.203125 13.574219 L 15.222656 13.570312 L 15.238281 13.535156 L 15.277344 13.492188 L 15.296875 13.476562 L 15.304688 13.457031 L 15.308594 13.441406 L 15.324219 13.414062 L 15.335938 13.472656 L 15.335938 13.511719 L 15.367188 13.546875 L 15.421875 13.597656 L 15.453125 13.601562 L 15.5 13.625 L 15.535156 13.644531 L 15.550781 13.683594 L 15.570312 13.707031 L 15.582031 13.722656 L 15.59375 13.726562 L 15.609375 13.714844 L 15.628906 13.726562 L 15.652344 13.769531 L 15.707031 13.820312 L 15.8125 13.898438 L 15.902344 13.925781 L 15.976562 13.976562 L 16.027344 14.039062 L 16.046875 14.0625 L 16.042969 14.097656 L 16.019531 14.125 L 15.980469 14.167969 L 15.933594 14.210938 L 15.921875 14.234375 L 15.90625 14.253906 L 15.882812 14.296875 L 15.847656 14.339844 L 15.832031 14.367188 L 15.808594 14.378906 L 15.800781 14.394531 L 15.796875 14.414062 L 15.816406 14.425781 L 15.835938 14.425781 L 15.855469 14.410156 L 15.863281 14.398438 L 15.914062 14.394531 L 15.929688 14.394531 L 15.9375 14.398438 L 15.9375 14.417969 L 15.914062 14.4375 L 15.90625 14.441406 L 15.902344 14.566406 L 15.9375 14.601562 L 15.976562 14.625 L 15.992188 14.644531 L 16.003906 14.710938 L 16.019531 14.742188 L 16.042969 14.785156 L 16.050781 14.804688 L 16.070312 14.828125 L 16.078125 14.859375 L 16.097656 14.882812 L 16.09375 14.894531 L 16.0625 14.902344 L 16.0625 14.929688 L 16.058594 14.953125 L 16.074219 14.980469 L 16.082031 14.996094 L 16.097656 15.007812 C 16.097656 15.007812 16.101562 15.007812 16.105469 15.007812 C 16.113281 15.007812 16.144531 14.988281 16.144531 14.988281 L 16.152344 15 L 16.191406 15.042969 L 16.21875 15.0625 L 16.238281 15.097656 L 16.25 15.109375 C 16.261719 15.117188 16.277344 15.125 16.277344 15.125 L 16.285156 15.167969 L 16.277344 15.214844 L 16.257812 15.234375 L 16.261719 15.273438 L 16.277344 15.308594 L 16.324219 15.324219 L 16.375 15.367188 L 16.476562 15.460938 L 16.515625 15.460938 L 16.554688 15.472656 L 16.585938 15.488281 L 16.601562 15.535156 L 16.617188 15.527344 L 16.660156 15.511719 L 16.691406 15.523438 L 16.722656 15.546875 L 16.75 15.605469 L 16.769531 15.621094 L 16.789062 15.625 L 16.839844 15.609375 L 16.855469 15.574219 L 16.921875 15.511719 L 16.976562 15.476562 L 17 15.445312 L 17.019531 15.390625 L 17.03125 15.367188 L 17.046875 15.339844 L 17.089844 15.289062 L 17.078125 15.453125 L 17.125 15.4375 L 17.15625 15.410156 L 17.1875 15.398438 L 17.203125 15.394531 L 17.199219 15.367188 L 17.175781 15.339844 L 17.210938 15.28125 L 17.230469 15.265625 L 17.320312 15.257812 L 17.339844 15.265625 L 17.335938 15.28125 L 17.304688 15.300781 L 17.285156 15.328125 L 17.289062 15.347656 L 17.316406 15.378906 L 17.328125 15.390625 L 17.347656 15.378906 L 17.355469 15.363281 L 17.375 15.359375 L 17.410156 15.367188 L 17.417969 15.378906 L 17.445312 15.429688 L 17.453125 15.445312 L 17.472656 15.445312 L 17.488281 15.429688 L 17.523438 15.425781 L 17.539062 15.425781 L 17.550781 15.378906 L 17.574219 15.347656 L 17.582031 15.324219 L 17.589844 15.292969 L 17.589844 15.222656 L 17.636719 15.277344 L 17.664062 15.320312 L 17.675781 15.34375 L 17.671875 15.410156 L 17.722656 15.4375 L 17.742188 15.453125 L 17.785156 15.460938 L 17.855469 15.457031 L 17.902344 15.4375 L 17.972656 15.449219 L 17.992188 15.46875 L 17.992188 15.507812 L 17.945312 15.570312 L 17.921875 15.597656 L 17.910156 15.617188 L 17.898438 15.675781 L 18.042969 15.671875 L 18.074219 15.640625 L 18.089844 15.613281 L 18.101562 15.585938 L 18.105469 15.566406 L 18.160156 15.574219 L 18.179688 15.597656 L 18.160156 15.628906 L 18.152344 15.652344 L 18.132812 15.671875 L 18.140625 15.730469 L 18.160156 15.753906 L 18.191406 15.773438 L 18.210938 15.800781 C 18.210938 15.800781 18.238281 15.824219 18.246094 15.832031 C 18.257812 15.835938 18.28125 15.851562 18.28125 15.851562 L 18.3125 15.863281 L 18.332031 15.863281 L 18.351562 15.859375 L 18.359375 15.839844 L 18.363281 15.820312 L 18.371094 15.800781 L 18.371094 15.753906 L 18.386719 15.753906 L 18.402344 15.773438 L 18.40625 15.792969 L 18.414062 15.835938 L 18.40625 15.863281 L 18.382812 15.886719 C 18.382812 15.886719 18.363281 15.90625 18.359375 15.90625 C 18.347656 15.914062 18.339844 15.921875 18.339844 15.921875 L 18.34375 16.023438 L 18.300781 16.042969 L 18.285156 16.066406 L 18.285156 16.09375 L 18.316406 16.128906 L 18.386719 16.167969 L 18.414062 16.183594 L 18.429688 16.210938 L 18.429688 16.316406 L 18.441406 16.328125 L 18.457031 16.328125 L 18.492188 16.292969 L 18.511719 16.285156 L 18.53125 16.285156 L 18.570312 16.324219 L 18.617188 16.316406 L 18.65625 16.28125 L 18.675781 16.277344 L 18.757812 16.277344 L 18.816406 16.28125 L 18.84375 16.265625 L 18.867188 16.261719 L 18.902344 16.277344 L 18.90625 16.296875 L 18.929688 16.355469 C 18.929688 16.355469 18.953125 16.359375 18.972656 16.367188 C 18.988281 16.378906 19 16.386719 19 16.386719 L 19.023438 16.398438 L 19.042969 16.390625 L 19.066406 16.378906 L 19.074219 16.40625 L 19.101562 16.46875 L 19.121094 16.492188 L 19.164062 16.496094 L 19.222656 16.492188 L 19.25 16.476562 L 19.273438 16.46875 L 19.308594 16.464844 L 19.394531 16.5 L 19.4375 16.507812 C 19.4375 16.507812 19.488281 16.519531 19.5 16.519531 C 19.511719 16.523438 19.554688 16.535156 19.554688 16.535156 L 19.597656 16.550781 L 19.65625 16.554688 L 19.726562 16.570312 L 19.785156 16.585938 L 19.84375 16.621094 L 19.867188 16.664062 L 19.867188 16.699219 L 19.886719 16.75 L 19.921875 16.796875 L 19.957031 16.847656 L 20.074219 16.917969 C 20.074219 16.917969 20.25 17.078125 20.261719 17.089844 C 20.273438 17.101562 20.316406 17.15625 20.316406 17.15625 L 20.328125 17.191406 L 20.328125 17.234375 L 20.339844 17.277344 L 20.339844 17.320312 C 20.339844 17.320312 20.398438 17.445312 20.421875 17.449219 C 20.441406 17.457031 20.503906 17.488281 20.503906 17.488281 L 20.554688 17.519531 C 20.554688 17.519531 20.59375 17.617188 20.601562 17.632812 C 20.613281 17.648438 20.625 17.691406 20.625 17.691406 C 20.625 17.691406 20.644531 17.765625 20.667969 17.789062 C 20.691406 17.816406 20.800781 17.902344 20.839844 17.941406 C 20.875 17.980469 20.96875 18.152344 21 18.21875 C 21.03125 18.28125 21.050781 18.320312 21.050781 18.320312 L 21.0625 18.375 L 21.070312 18.390625 C 21.070312 18.390625 21.089844 18.425781 21.175781 18.488281 C 21.261719 18.546875 21.265625 18.609375 21.265625 18.609375 C 21.265625 18.609375 21.3125 18.65625 21.324219 18.664062 C 21.332031 18.675781 21.367188 18.707031 21.367188 18.707031 L 21.394531 18.730469 L 21.402344 18.757812 L 21.394531 18.789062 L 21.394531 18.808594 L 21.4375 18.84375 L 21.480469 18.859375 L 21.507812 18.902344 L 21.507812 18.917969 L 21.53125 18.929688 L 21.539062 18.964844 L 21.535156 18.992188 L 21.554688 19.066406 L 21.5625 19.089844 L 21.636719 19.128906 L 21.675781 19.148438 L 21.726562 19.171875 L 21.753906 19.1875 L 21.785156 19.191406 L 21.808594 19.203125 L 21.839844 19.203125 L 21.882812 19.207031 L 21.910156 19.203125 L 21.933594 19.183594 L 21.996094 19.179688 L 22.015625 19.191406 L 22.03125 19.222656 L 22.050781 19.257812 L 22.054688 19.28125 L 22.097656 19.300781 L 22.121094 19.332031 L 22.132812 19.351562 L 22.136719 19.375 L 22.144531 19.40625 L 22.203125 19.414062 L 22.222656 19.402344 L 22.253906 19.390625 L 22.308594 19.386719 L 22.328125 19.378906 L 22.355469 19.363281 L 22.375 19.351562 L 22.382812 19.402344 L 22.394531 19.417969 L 22.425781 19.445312 L 22.515625 19.429688 L 22.539062 19.445312 L 22.539062 19.484375 L 22.550781 19.5 L 22.585938 19.507812 L 22.621094 19.527344 L 22.65625 19.542969 L 22.648438 19.601562 L 22.664062 19.613281 L 22.664062 19.644531 L 22.671875 19.664062 L 22.679688 19.695312 L 22.683594 19.707031 L 22.703125 19.742188 L 22.714844 19.757812 L 22.730469 19.753906 L 22.75 19.742188 L 22.765625 19.738281 L 22.792969 19.75 L 22.808594 19.769531 L 22.816406 19.816406 L 22.835938 19.832031 L 22.832031 19.867188 L 22.835938 19.894531 L 22.882812 19.910156 L 22.917969 19.929688 L 22.9375 19.945312 L 22.949219 19.980469 L 22.945312 20.03125 L 22.957031 20.046875 L 22.957031 20.097656 L 22.972656 20.109375 L 22.976562 20.140625 L 22.988281 20.160156 L 22.992188 20.1875 L 23.007812 20.210938 C 23.007812 20.210938 23.015625 20.222656 23.03125 20.226562 C 23.046875 20.230469 23.050781 20.230469 23.0625 20.230469 C 23.074219 20.230469 23.105469 20.226562 23.105469 20.226562 L 23.121094 20.207031 L 23.148438 20.1875 L 23.195312 20.253906 L 23.253906 20.296875 L 23.289062 20.355469 L 23.300781 20.394531 L 23.363281 20.464844 L 23.394531 20.496094 L 23.433594 20.53125 L 23.476562 20.5625 L 23.480469 20.480469 L 23.445312 20.441406 L 23.417969 20.40625 L 23.382812 20.386719 L 23.359375 20.371094 L 23.402344 20.367188 L 23.4375 20.363281 L 23.457031 20.34375 L 23.449219 20.285156 L 23.433594 20.226562 L 23.414062 20.171875 L 23.507812 20.304688 C 23.507812 20.304688 23.535156 20.398438 23.546875 20.398438 C 23.558594 20.40625 23.605469 20.457031 23.605469 20.457031 L 23.632812 20.515625 L 23.679688 20.554688 L 23.699219 20.570312 L 23.71875 20.628906 L 23.714844 20.707031 L 23.707031 20.792969 L 23.71875 20.832031 L 23.847656 20.941406 L 23.863281 21.027344 L 23.855469 21.085938 L 23.914062 21.257812 L 23.925781 21.304688 L 23.9375 21.367188 L 23.933594 21.417969 L 23.933594 21.492188 L 23.953125 21.570312 L 23.964844 21.621094 L 23.976562 21.667969 L 24 21.757812 L 24.035156 21.789062 C 24.035156 21.789062 24.050781 21.800781 24.0625 21.8125 C 24.078125 21.824219 24.125 21.835938 24.125 21.835938 L 24.15625 21.84375 L 24.171875 21.84375 C 24.171875 21.84375 24.300781 21.882812 24.339844 21.882812 C 24.378906 21.882812 24.40625 21.871094 24.40625 21.871094 L 24.445312 21.839844 L 24.460938 21.8125 L 24.484375 21.777344 L 24.496094 21.753906 L 24.527344 21.75 L 24.53125 21.796875 L 24.539062 21.847656 L 24.550781 21.871094 L 24.570312 21.871094 L 24.589844 21.863281 L 24.597656 21.839844 L 24.632812 21.875 L 24.648438 21.949219 L 24.820312 22.089844 L 24.859375 22.089844 L 24.878906 22.1875 L 24.898438 22.238281 L 24.917969 22.261719 L 24.960938 22.351562 C 24.960938 22.351562 24.980469 22.355469 25 22.363281 C 25.019531 22.371094 25.054688 22.375 25.054688 22.375 L 25.097656 22.40625 L 25.121094 22.464844 L 25.175781 22.566406 L 25.207031 22.597656 L 25.203125 22.625 L 25.1875 22.652344 L 25.199219 22.695312 C 25.199219 22.695312 25.21875 22.714844 25.234375 22.734375 C 25.246094 22.753906 25.269531 22.820312 25.269531 22.820312 L 25.289062 22.855469 L 25.328125 22.953125 L 25.308594 22.988281 L 25.285156 23.011719 L 25.296875 23.050781 L 25.320312 23.058594 L 25.386719 23.117188 L 25.402344 23.136719 L 25.425781 23.132812 C 25.425781 23.132812 25.445312 23.125 25.457031 23.109375 C 25.464844 23.097656 25.476562 23.078125 25.476562 23.078125 L 25.484375 23.054688 L 25.519531 23.046875 L 25.546875 23.042969 L 25.550781 23.0625 L 25.554688 23.117188 L 25.5625 23.152344 L 25.609375 23.152344 L 25.664062 23.210938 L 25.703125 23.253906 L 25.722656 23.265625 L 25.753906 23.265625 L 25.785156 23.230469 L 25.804688 23.222656 L 25.820312 23.238281 L 25.839844 23.226562 L 25.863281 23.21875 L 25.886719 23.238281 L 25.863281 23.261719 L 25.832031 23.285156 L 25.800781 23.304688 L 25.800781 23.324219 L 25.859375 23.339844 L 25.882812 23.339844 L 25.917969 23.296875 L 25.917969 23.265625 L 26.007812 23.238281 L 26.074219 23.207031 L 26.097656 23.195312 L 26.105469 23.167969 L 26.074219 23.132812 L 26.050781 23.101562 L 26.082031 23.066406 L 26.089844 22.992188 L 26.066406 22.988281 L 26.066406 22.957031 L 26.203125 22.957031 L 26.203125 22.988281 L 26.222656 23.023438 L 26.230469 23.054688 L 26.289062 23.074219 L 26.339844 23.175781 L 26.359375 23.195312 L 26.375 23.195312 L 26.398438 23.175781 L 26.429688 23.1875 L 26.429688 23.246094 L 26.445312 23.300781 C 26.445312 23.300781 26.476562 23.390625 26.480469 23.402344 C 26.484375 23.414062 26.503906 23.460938 26.503906 23.460938 L 26.523438 23.503906 L 26.546875 23.539062 L 26.578125 23.570312 L 26.601562 23.605469 C 26.601562 23.605469 26.503906 23.625 26.429688 23.644531 C 26.355469 23.667969 26.261719 23.738281 26.261719 23.738281 C 26.261719 23.738281 26.074219 23.824219 26.035156 23.835938 C 25.996094 23.84375 25.949219 23.878906 25.949219 23.878906 L 25.882812 23.933594 C 25.882812 23.933594 25.84375 23.945312 25.824219 23.9375 C 25.804688 23.933594 25.765625 23.910156 25.765625 23.910156 L 25.707031 23.898438 C 25.707031 23.898438 25.703125 23.933594 25.703125 23.953125 C 25.703125 23.96875 25.65625 24.046875 25.65625 24.046875 C 25.65625 24.046875 25.644531 24.050781 25.636719 24.066406 C 25.632812 24.085938 25.632812 24.140625 25.632812 24.140625 L 25.625 24.179688 L 25.519531 24.226562 L 25.488281 24.289062 L 25.46875 24.320312 L 25.421875 24.351562 L 25.421875 24.417969 L 25.429688 24.449219 L 25.460938 24.457031 L 25.480469 24.457031 L 25.492188 24.460938 L 25.507812 24.476562 L 25.523438 24.503906 L 25.523438 24.550781 L 25.53125 24.566406 L 25.527344 24.609375 L 25.492188 24.621094 L 25.4375 24.628906 L 25.359375 24.664062 L 25.3125 24.683594 L 25.28125 24.722656 L 25.234375 24.769531 L 25.191406 24.800781 L 25.171875 24.804688 L 25.15625 24.800781 L 25.144531 24.789062 L 25.113281 24.785156 L 25.105469 24.832031 L 25.082031 24.863281 L 25.074219 24.871094 L 25.042969 24.796875 C 25.042969 24.796875 25.011719 24.761719 25.003906 24.757812 C 24.992188 24.753906 24.90625 24.714844 24.90625 24.714844 L 24.867188 24.660156 L 24.804688 24.585938 L 24.675781 24.480469 L 24.542969 24.375 C 24.542969 24.375 24.503906 24.351562 24.492188 24.347656 C 24.480469 24.34375 24.449219 24.335938 24.449219 24.335938 C 24.449219 24.335938 24.421875 24.324219 24.414062 24.320312 C 24.40625 24.316406 24.390625 24.304688 24.378906 24.300781 C 24.363281 24.296875 24.351562 24.296875 24.351562 24.296875 C 24.351562 24.296875 24.34375 24.285156 24.339844 24.277344 C 24.335938 24.265625 24.320312 24.25 24.320312 24.25 L 24.300781 24.246094 L 24.277344 24.273438 L 24.25 24.308594 L 24.234375 24.328125 L 24.207031 24.351562 L 24.191406 24.371094 L 24.15625 24.40625 L 24.136719 24.429688 L 24.121094 24.4375 L 24.113281 24.449219 C 24.113281 24.449219 24.101562 24.457031 24.097656 24.464844 C 24.09375 24.46875 24.078125 24.488281 24.078125 24.488281 L 24.070312 24.492188 L 23.863281 24.121094 L 23.402344 23.382812 L 23.214844 23.339844 L 22.800781 23.242188 L 22.316406 22.199219 L 21.179688 21.015625 L 20.300781 20.539062 L 18.800781 18.375 L 16.597656 17.414062 L 16.484375 17.464844 L 16.238281 16.886719 C 16.238281 16.886719 16.226562 16.863281 16.164062 16.878906 C 16.105469 16.898438 15.917969 16.972656 15.878906 17.035156 C 15.835938 17.09375 15.824219 17.164062 15.824219 17.164062 L 15.765625 17.238281 L 15.738281 17.25 L 15.679688 17.25 C 15.679688 17.25 15.660156 17.359375 15.621094 17.371094 C 15.589844 17.382812 15.503906 17.390625 15.503906 17.390625 L 15.464844 17.375 L 15.429688 17.332031 C 15.429688 17.332031 15.347656 17.21875 15.269531 17.183594 C 15.191406 17.148438 15.105469 17.117188 15.105469 17.117188 L 15.03125 17.035156 L 14.96875 16.921875 L 14.921875 16.910156 L 14.863281 16.910156 L 14.804688 16.898438 L 14.78125 16.886719 L 14.734375 16.878906 L 14.664062 16.835938 L 14.617188 16.753906 L 14.558594 16.742188 L 14.5 16.703125 L 14.460938 16.683594 L 14.375 16.691406 L 14.261719 16.710938 L 14.203125 16.738281 L 14.140625 16.773438 L 14.089844 16.8125 L 14.054688 16.835938 L 14.027344 16.878906 L 14.035156 16.953125 L 14.085938 16.988281 L 14.125 17.027344 C 14.125 17.027344 14.136719 17.027344 14.132812 17.054688 C 14.125 17.082031 14.125 17.082031 14.125 17.082031 L 14.066406 17.105469 C 14.066406 17.105469 14 17.105469 13.980469 17.105469 C 13.964844 17.105469 13.941406 17.105469 13.941406 17.105469 L 13.910156 17.097656 C 13.910156 17.097656 13.910156 17.078125 13.878906 17.070312 C 13.851562 17.058594 13.835938 17.050781 13.835938 17.050781 L 13.8125 17.046875 L 13.746094 17.058594 L 13.710938 17.070312 L 13.652344 17.0625 L 13.648438 16.917969 C 13.648438 16.917969 13.609375 16.871094 13.589844 16.878906 C 13.570312 16.882812 13.539062 16.890625 13.539062 16.890625 L 13.53125 16.941406 L 13.550781 16.988281 L 13.5625 17.007812 L 13.574219 17.0625 L 13.546875 17.082031 L 13.496094 17.105469 L 13.425781 17.089844 L 13.335938 17.085938 L 13.273438 17.085938 L 13.195312 17.132812 L 13.183594 17.191406 L 13.125 17.296875 L 13.089844 17.308594 L 13.0625 17.304688 L 13.035156 17.269531 L 13.027344 17.132812 L 13.089844 17.089844 L 13.125 17.046875 L 13.15625 17.019531 L 13.144531 16.988281 L 13.105469 16.953125 L 13.105469 16.921875 L 13.09375 16.847656 L 13.046875 16.804688 L 13.046875 16.707031 L 13.027344 16.695312 L 12.996094 16.675781 C 12.996094 16.675781 13 16.621094 12.96875 16.628906 C 12.933594 16.636719 12.921875 16.679688 12.921875 16.679688 C 12.921875 16.679688 12.917969 16.707031 12.894531 16.699219 C 12.875 16.691406 12.867188 16.679688 12.867188 16.679688 L 12.859375 16.59375 L 12.855469 16.578125 L 12.855469 16.554688 L 12.824219 16.527344 L 12.792969 16.535156 L 12.757812 16.5625 L 12.707031 16.566406 L 12.667969 16.574219 L 12.597656 16.585938 L 12.546875 16.585938 L 12.527344 16.597656 L 12.519531 16.621094 L 12.425781 16.605469 L 12.324219 16.605469 L 12.324219 16.664062 C 12.324219 16.664062 12.277344 16.863281 12.253906 16.875 C 12.234375 16.886719 12.203125 16.917969 12.203125 16.917969 L 12.152344 16.949219 L 12.125 16.960938 L 12.09375 16.949219 L 12.058594 16.929688 L 12.039062 16.933594 L 12.015625 16.996094 L 12.003906 17.019531 L 11.96875 17.03125 L 11.941406 17.046875 L 11.910156 17.0625 L 11.886719 17.082031 L 11.863281 17.105469 L 11.804688 17.105469 L 11.78125 17.085938 L 11.753906 17.082031 L 11.730469 17.117188 L 11.683594 17.132812 L 11.65625 17.148438 L 11.640625 17.175781 L 11.605469 17.195312 L 11.515625 17.191406 L 11.425781 17.195312 L 11.371094 17.195312 L 11.339844 17.207031 L 11.320312 17.210938 L 11.289062 17.207031 L 11.265625 17.199219 L 11.234375 17.191406 L 11.203125 17.210938 L 11.183594 17.234375 L 11.054688 17.292969 L 11.015625 17.304688 L 10.894531 17.300781 L 10.851562 17.300781 C 10.851562 17.300781 10.851562 17.304688 10.816406 17.3125 C 10.785156 17.320312 10.769531 17.332031 10.769531 17.332031 L 10.742188 17.355469 L 10.714844 17.375 L 10.644531 17.375 L 10.640625 17.398438 L 10.585938 17.40625 L 10.558594 17.390625 L 10.515625 17.386719 L 10.492188 17.390625 L 10.46875 17.410156 L 10.445312 17.390625 L 10.398438 17.390625 L 10.386719 17.355469 L 10.339844 17.34375 L 10.273438 17.277344 C 10.273438 17.277344 10.242188 17.234375 10.242188 17.21875 C 10.238281 17.207031 10.21875 17.183594 10.21875 17.183594 L 10.15625 17.148438 L 10.070312 17.097656 L 10.03125 17.019531 L 9.988281 16.992188 L 9.910156 16.894531 L 9.886719 16.785156 L 9.871094 16.742188 L 9.851562 16.71875 C 9.851562 16.71875 9.796875 16.722656 9.789062 16.699219 C 9.777344 16.675781 9.761719 16.621094 9.761719 16.621094 L 9.75 16.515625 L 9.691406 16.460938 L 9.632812 16.417969 L 9.601562 16.378906 L 9.554688 16.378906 L 9.515625 16.390625 L 9.460938 16.410156 L 9.421875 16.445312 L 9.375 16.445312 L 9.320312 16.449219 C 9.320312 16.449219 9.308594 16.394531 9.273438 16.375 C 9.242188 16.351562 9.15625 16.320312 9.15625 16.320312 L 9.109375 16.308594 L 9.074219 16.300781 L 9.007812 16.296875 L 8.988281 16.265625 L 8.980469 16.246094 C 8.980469 16.246094 8.929688 16.242188 8.90625 16.214844 C 8.886719 16.191406 8.886719 16.191406 8.886719 16.191406 L 8.867188 16.09375 C 8.867188 16.09375 8.84375 16.0625 8.804688 16.050781 C 8.761719 16.035156 8.730469 15.9375 8.730469 15.9375 L 8.675781 15.886719 L 8.644531 15.867188 L 8.636719 15.816406 C 8.636719 15.816406 8.601562 15.695312 8.578125 15.683594 C 8.558594 15.671875 8.53125 15.652344 8.53125 15.652344 L 8.511719 15.648438 L 7.433594 18.703125 L 7.414062 18.675781 L 7.402344 18.609375 C 7.402344 18.609375 7.394531 18.605469 7.386719 18.589844 C 7.378906 18.574219 7.367188 18.558594 7.367188 18.558594 L 7.304688 18.550781 L 7.289062 18.519531 L 7.273438 18.5 L 7.230469 18.480469 C 7.230469 18.480469 7.203125 18.460938 7.199219 18.449219 C 7.195312 18.441406 7.1875 18.417969 7.1875 18.417969 L 7.160156 18.386719 L 7.164062 18.246094 L 7.144531 18.230469 L 7.085938 18.234375 L 7.082031 18.203125 L 7 18.121094 L 6.96875 18.101562 L 6.96875 18.074219 L 6.992188 17.988281 L 6.894531 17.988281 L 6.847656 17.890625 L 6.792969 17.847656 L 6.742188 17.816406 L 6.71875 17.789062 L 6.722656 17.746094 L 6.710938 17.664062 L 6.722656 17.597656 L 6.636719 17.546875 L 6.617188 17.5 L 6.5625 17.417969 L 6.527344 17.375 L 6.503906 17.359375 L 6.460938 17.355469 L 6.421875 17.320312 L 6.402344 17.300781 L 6.371094 17.28125 L 6.335938 17.292969 L 6.292969 17.304688 L 6.195312 17.304688 L 6.140625 17.324219 L 6.101562 17.34375 L 6.050781 17.371094 L 5.992188 17.390625 L 5.914062 17.402344 L 5.859375 17.433594 L 5.839844 17.445312 L 5.789062 17.449219 L 5.738281 17.566406 L 5.71875 17.625 L 5.707031 17.648438 L 5.707031 17.789062 L 5.703125 17.835938 L 5.679688 17.871094 L 5.660156 17.90625 L 5.636719 17.921875 L 5.578125 17.921875 L 5.550781 17.925781 L 5.488281 17.929688 L 5.441406 17.984375 L 5.398438 17.988281 L 5.339844 17.96875 L 5.324219 17.9375 L 5.304688 17.890625 L 5.269531 17.863281 L 5.234375 17.839844 L 5.191406 17.832031 L 5.152344 17.832031 L 5.128906 17.828125 L 4.964844 17.761719 L 4.9375 17.75 L 4.839844 17.75 C 4.839844 17.75 4.824219 17.769531 4.808594 17.777344 C 4.796875 17.785156 4.757812 17.785156 4.757812 17.785156 L 4.710938 17.761719 L 4.667969 17.738281 L 4.617188 17.71875 L 4.539062 17.730469 L 4.503906 17.738281 L 4.472656 17.742188 L 4.453125 17.753906 L 4.425781 17.777344 L 4.371094 17.785156 L 4.320312 17.804688 L 4.273438 17.816406 L 4.179688 17.804688 L 4.140625 17.785156 L 4.121094 17.761719 L 4.039062 17.761719 L 4.015625 17.789062 L 3.984375 17.8125 L 3.953125 17.832031 L 3.914062 17.84375 L 3.871094 17.863281 C 3.871094 17.863281 3.882812 17.855469 3.863281 17.886719 C 3.839844 17.917969 3.828125 17.9375 3.828125 17.9375 L 3.785156 17.925781 L 3.75 17.847656 L 3.730469 17.792969 L 3.71875 17.71875 L 3.714844 17.617188 L 3.703125 17.511719 L 3.691406 17.410156 L 3.671875 17.128906 L 3.65625 16.945312 L 3.609375 16.492188 L 3.582031 16.230469 C 3.582031 16.230469 3.546875 16.054688 3.546875 16.042969 C 3.546875 16.03125 3.519531 15.808594 3.519531 15.808594 L 3.507812 15.765625 L 3.496094 15.4375 L 3.464844 15.261719 L 3.414062 15.03125 L 3.398438 14.625 C 3.398438 14.625 3.507812 14.496094 3.554688 14.484375 C 3.597656 14.472656 3.707031 14.441406 3.726562 14.429688 C 3.742188 14.417969 3.757812 14.425781 3.769531 14.394531 C 3.78125 14.367188 3.804688 14.300781 3.804688 14.300781 L 3.816406 14.242188 L 3.820312 14.195312 L 3.839844 14.144531 L 3.960938 13.898438 L 4.011719 13.734375 L 4.027344 13.589844 L 4.042969 13.539062 L 4.085938 13.402344 L 4.085938 13.292969 L 4.171875 13.011719 L 4.328125 12.550781 C 4.328125 12.550781 4.496094 12.183594 4.519531 12.15625 C 4.542969 12.125 4.597656 11.976562 4.605469 11.957031 C 4.609375 11.941406 4.8125 11.328125 4.8125 11.328125 L 4.925781 10.96875 C 4.925781 10.96875 5.078125 10.605469 5.109375 10.585938 C 5.136719 10.5625 5.21875 10.484375 5.21875 10.484375 C 5.21875 10.484375 5.171875 10.441406 5.152344 10.398438 C 5.136719 10.355469 5.109375 10.277344 5.109375 10.277344 L 5.210938 10.046875 L 5.230469 9.917969 L 5.171875 9.902344 L 5.121094 9.847656 L 4.980469 9.699219 L 4.945312 9.664062 L 4.945312 9.613281 L 4.949219 9.601562 L 4.9375 9.585938 L 4.9375 9.429688 L 4.960938 9.382812 L 4.964844 9.347656 L 4.996094 9.253906 L 5.019531 9.210938 L 5.035156 9.1875 L 5.039062 9.121094 L 5.007812 9.09375 L 4.992188 9.078125 L 5 9.050781 L 5.019531 9.042969 L 5.082031 9.019531 L 5.113281 9.011719 L 5.15625 9.011719 L 5.1875 9.003906 L 5.222656 8.984375 L 5.253906 8.917969 C 5.253906 8.917969 5.273438 8.902344 5.277344 8.894531 C 5.28125 8.890625 5.296875 8.859375 5.296875 8.859375 L 5.324219 8.835938 L 5.328125 8.761719 L 5.308594 8.742188 L 5.3125 8.71875 L 5.386719 8.644531 L 5.4375 8.621094 L 5.445312 8.601562 L 5.4375 8.523438 L 5.382812 8.46875 L 5.367188 8.449219 L 5.359375 8.351562 L 5.375 8.335938 L 5.382812 8.296875 L 5.371094 8.273438 L 5.363281 8.25 L 5.351562 8.230469 L 5.351562 8.199219 L 5.347656 8.160156 L 5.363281 8.144531 L 5.367188 8.023438 L 5.347656 7.992188 L 5.328125 7.96875 L 5.308594 7.933594 L 5.304688 7.894531 L 5.316406 7.863281 L 5.335938 7.832031 L 5.375 7.792969 L 5.40625 7.765625 L 5.410156 7.683594 L 5.394531 7.65625 L 5.378906 7.636719 L 5.375 7.570312 L 5.394531 7.539062 L 5.421875 7.515625 L 5.441406 7.507812 L 5.46875 7.503906 L 5.5 7.5 L 5.511719 7.507812 L 5.542969 7.511719 L 5.5625 7.523438 L 5.574219 7.542969 L 5.71875 7.542969 L 5.742188 7.5625 L 5.761719 7.59375 L 5.792969 7.621094 L 5.804688 7.628906 L 5.828125 7.632812 L 5.847656 7.636719 L 5.867188 7.636719 L 5.890625 7.621094 L 6.019531 7.621094 L 6.035156 7.617188 L 6.09375 7.578125 L 6.105469 7.574219 L 6.152344 7.574219 L 6.207031 7.570312 L 6.261719 7.570312 L 6.285156 7.558594 L 6.316406 7.546875 L 6.335938 7.535156 L 6.351562 7.527344 L 6.382812 7.519531 L 6.453125 7.523438 L 6.5 7.578125 L 6.535156 7.597656 L 6.59375 7.636719 L 6.617188 7.648438 L 6.703125 7.652344 L 6.722656 7.636719 L 6.734375 7.578125 L 6.734375 7.554688 L 6.742188 7.535156 L 6.75 7.496094 L 6.761719 7.480469 L 6.769531 7.460938 L 6.773438 7.449219 L 6.792969 7.445312 L 6.8125 7.4375 L 6.90625 7.351562 L 6.929688 7.296875 L 6.949219 7.257812 L 6.980469 7.207031 L 7.058594 7.132812 L 7.078125 7.113281 L 7.082031 7.019531 L 7.070312 6.984375 L 7.0625 6.953125 L 7.0625 6.9375 L 7.117188 6.894531 L 7.136719 6.875 L 7.148438 6.835938 L 7.136719 6.808594 L 7.113281 6.792969 L 7.09375 6.773438 L 7.078125 6.761719 L 7.058594 6.742188 L 7.050781 6.726562 L 7.046875 6.695312 L 7.074219 6.679688 L 7.09375 6.675781 L 7.113281 6.625 L 7.121094 6.59375 L 7.261719 6.546875 L 7.476562 6.46875 L 7.550781 6.4375 L 7.875 6.4375 L 7.890625 6.421875 L 7.996094 6.417969 L 8.003906 6.382812 L 8.015625 6.371094 L 8.011719 6.234375 L 8.03125 6.214844 L 8.035156 6.101562 L 8.03125 6.0625 L 8.039062 6.042969 L 8.066406 6.019531 L 8.09375 6.007812 L 8.230469 6.003906 L 8.261719 6.023438 L 8.28125 6.03125 L 8.304688 6.046875 L 8.328125 6.070312 L 8.332031 6.167969 L 8.460938 6.171875 L 8.496094 6.15625 L 8.554688 6.136719 L 8.578125 6.121094 L 8.617188 6.101562 L 8.640625 6.082031 L 8.660156 6.066406 L 8.683594 6.054688 L 8.703125 6.046875 L 8.714844 6.035156 L 8.71875 5.894531 L 8.734375 5.863281 L 8.75 5.835938 L 8.773438 5.8125 L 8.8125 5.804688 L 8.855469 5.804688 L 8.890625 5.8125 L 8.917969 5.808594 L 8.960938 5.789062 L 8.976562 5.785156 L 9 5.769531 L 9.023438 5.773438 L 9.042969 5.816406 L 9.046875 5.851562 L 9.054688 5.871094 L 9.066406 6.050781 L 9.171875 6.039062 L 9.179688 5.894531 L 9.191406 5.769531 L 9.214844 5.726562 L 9.445312 5.726562 L 9.503906 5.796875 L 9.519531 5.804688 L 9.53125 5.789062 L 9.539062 5.773438 L 9.648438 5.769531 L 9.671875 5.78125 L 9.691406 5.78125 L 9.710938 5.742188 L 9.722656 5.703125 L 9.730469 5.667969 L 9.738281 5.628906 L 9.78125 5.53125 L 9.816406 5.488281 L 9.890625 5.46875 L 9.949219 5.453125 L 10 5.4375 L 10.144531 5.089844 L 10.335938 4.578125 L 10.351562 4.550781 L 10.457031 4.441406 L 10.671875 4.25 L 10.777344 4.152344 L 10.773438 4.230469 L 10.800781 4.28125 L 10.835938 4.324219 L 10.863281 4.355469 L 10.878906 4.375 L 10.882812 4.398438 L 10.898438 4.417969 L 10.898438 4.429688 L 10.914062 4.441406 L 10.929688 4.449219 L 10.957031 4.453125 L 11.003906 4.460938 L 11.015625 4.484375 L 11.015625 4.527344 L 11.019531 4.546875 L 11.03125 4.582031 L 11.027344 4.625 L 11.042969 4.664062 L 11.125 4.78125 L 11.148438 4.859375 L 11.183594 4.90625 L 11.289062 5.027344 L 11.3125 5.078125 L 11.328125 5.125 L 11.347656 5.140625 L 11.433594 5.253906 L 11.46875 5.324219 L 11.511719 5.367188 L 11.5625 5.445312 L 11.570312 5.476562 L 11.574219 5.527344 L 11.652344 5.542969 L 11.667969 5.652344 L 11.722656 5.746094 C 11.722656 5.746094 11.730469 5.78125 11.730469 5.789062 C 11.730469 5.796875 11.738281 5.84375 11.738281 5.84375 L 11.753906 5.855469 L 11.8125 6 L 11.9375 6.167969 L 12.03125 6.421875 L 12.050781 6.464844 L 12.054688 6.652344 L 12.082031 6.699219 L 12.132812 6.789062 L 12.136719 6.847656 L 12.152344 6.871094 L 12.15625 7.035156 L 12.175781 7.082031 L 12.210938 7.101562 L 12.253906 7.132812 L 12.273438 7.164062 L 12.269531 7.207031 L 12.253906 7.222656 L 12.253906 7.382812 L 12.269531 7.414062 L 12.273438 7.453125 L 12.292969 7.492188 L 12.367188 7.648438 L 12.402344 7.777344 L 12.410156 7.832031 L 12.421875 7.875 L 12.472656 8.066406 L 12.5 8.148438 L 12.496094 8.234375 L 12.519531 8.292969 L 12.554688 8.347656 L 12.585938 8.421875 L 12.609375 8.460938 L 12.613281 8.480469 L 12.625 8.496094 L 12.636719 8.589844 L 12.652344 8.621094 L 12.671875 8.664062 L 12.6875 8.699219 L 12.6875 8.761719 L 12.707031 8.820312 L 12.71875 8.847656 L 12.730469 8.871094 L 12.746094 8.890625 L 12.769531 8.941406 L 12.746094 8.941406 L 12.722656 8.933594 L 12.695312 8.933594 L 12.691406 8.945312 L 12.695312 8.960938 L 12.753906 9.035156 L 12.78125 9.078125 L 12.789062 9.105469 L 12.800781 9.316406 L 12.78125 9.320312 L 12.769531 9.382812 Z M 12.8125 9.4375 " fill-opacity="1" fill-rule="nonzero"/></g><path fill="#014d4e" d="M 25.589844 22.410156 L 25.570312 22.429688 L 25.5625 22.441406 L 25.550781 22.457031 L 25.554688 22.472656 L 25.566406 22.480469 L 25.574219 22.492188 C 25.574219 22.492188 25.578125 22.5 25.582031 22.507812 C 25.585938 22.511719 25.589844 22.515625 25.589844 22.515625 C 25.589844 22.515625 25.605469 22.515625 25.613281 22.515625 C 25.621094 22.515625 25.632812 22.519531 25.632812 22.519531 L 25.652344 22.519531 L 25.65625 22.511719 L 25.648438 22.488281 L 25.632812 22.464844 L 25.605469 22.453125 L 25.597656 22.441406 Z M 25.589844 22.410156 " fill-opacity="1" fill-rule="nonzero"/><path fill="#014d4e" d="M 25.761719 22.730469 L 25.808594 22.734375 L 25.828125 22.730469 L 25.847656 22.714844 L 25.863281 22.71875 L 25.875 22.726562 L 25.90625 22.726562 L 25.921875 22.742188 L 25.941406 22.753906 L 25.96875 22.765625 C 25.96875 22.765625 25.972656 22.765625 25.972656 22.777344 C 25.972656 22.789062 25.972656 22.808594 25.972656 22.808594 L 25.953125 22.816406 L 25.9375 22.828125 L 25.933594 22.851562 L 25.929688 22.867188 L 25.910156 22.878906 L 25.894531 22.867188 L 25.875 22.84375 L 25.832031 22.824219 L 25.816406 22.824219 L 25.796875 22.828125 L 25.777344 22.824219 L 25.761719 22.777344 L 25.75 22.773438 L 25.746094 22.730469 Z M 25.761719 22.730469 " fill-opacity="1" fill-rule="nonzero"/><path fill="#014d4e" d="M 16.566406 14.59375 L 16.589844 14.59375 L 16.65625 14.554688 L 16.675781 14.527344 L 16.734375 14.523438 L 16.757812 14.53125 L 16.773438 14.558594 L 16.765625 14.585938 L 16.71875 14.601562 L 16.691406 14.636719 L 16.667969 14.644531 L 16.65625 14.667969 L 16.671875 14.679688 L 16.671875 14.71875 L 16.675781 14.730469 L 16.691406 14.742188 L 16.691406 14.789062 L 16.683594 14.8125 L 16.667969 14.832031 L 16.605469 14.832031 L 16.574219 14.824219 L 16.5625 14.796875 L 16.542969 14.765625 L 16.542969 14.621094 L 16.539062 14.609375 Z M 16.566406 14.59375 " fill-opacity="1" fill-rule="nonzero"/><path fill="#014d4e" d="M 16.785156 15.066406 L 16.804688 15.0625 L 16.820312 15.050781 C 16.820312 15.050781 16.832031 15.039062 16.839844 15.039062 C 16.847656 15.039062 16.875 15.050781 16.875 15.050781 L 16.890625 15.066406 L 16.925781 15.085938 L 16.933594 15.117188 L 16.925781 15.136719 L 16.925781 15.160156 L 16.933594 15.171875 L 16.949219 15.183594 L 16.949219 15.203125 L 16.945312 15.222656 L 16.917969 15.222656 L 16.890625 15.238281 L 16.871094 15.25 L 16.851562 15.273438 L 16.832031 15.292969 L 16.816406 15.324219 L 16.796875 15.328125 L 16.675781 15.324219 L 16.675781 15.257812 L 16.703125 15.210938 L 16.75 15.164062 L 16.765625 15.136719 L 16.777344 15.125 Z M 16.785156 15.066406 " fill-opacity="1" fill-rule="nonzero"/><path fill="#014d4e" d="M 15.71875 11.359375 L 15.847656 11.351562 L 15.867188 11.371094 L 15.890625 11.359375 L 15.910156 11.34375 L 15.921875 11.324219 L 15.925781 11.292969 L 15.898438 11.261719 C 15.898438 11.261719 15.890625 11.25 15.890625 11.238281 C 15.890625 11.226562 15.882812 11.214844 15.882812 11.214844 L 15.882812 11.175781 L 15.914062 11.1875 L 15.933594 11.210938 L 15.949219 11.230469 L 15.960938 11.246094 L 16.003906 11.246094 L 16.027344 11.230469 L 16.046875 11.226562 L 16.066406 11.226562 L 16.136719 11.273438 L 16.148438 11.300781 L 16.148438 11.328125 L 16.140625 11.347656 L 16.128906 11.363281 L 16.105469 11.375 C 16.105469 11.375 16.140625 11.371094 16.089844 11.378906 C 16.035156 11.386719 16.019531 11.390625 16.019531 11.390625 L 16.003906 11.414062 L 15.992188 11.441406 L 15.992188 11.46875 L 16.015625 11.496094 L 16.046875 11.507812 L 16.070312 11.527344 L 16.074219 11.542969 L 16.074219 11.570312 L 16.09375 11.59375 L 16.113281 11.605469 L 16.105469 11.636719 L 16.085938 11.652344 L 16.058594 11.65625 L 16.027344 11.640625 L 16.007812 11.617188 L 15.933594 11.585938 L 15.917969 11.566406 L 15.890625 11.535156 L 15.863281 11.527344 L 15.832031 11.527344 L 15.804688 11.535156 L 15.792969 11.554688 L 15.707031 11.542969 L 15.707031 11.464844 L 15.730469 11.457031 L 15.734375 11.402344 L 15.710938 11.390625 Z M 15.71875 11.359375 " fill-opacity="1" fill-rule="nonzero"/><path fill="#014d4e" d="M 16.1875 11.066406 L 16.234375 11.074219 L 16.261719 11.0625 L 16.277344 11.058594 L 16.300781 11.042969 L 16.320312 11.050781 L 16.320312 11.078125 L 16.304688 11.105469 L 16.304688 11.113281 L 16.324219 11.121094 L 16.328125 11.144531 L 16.328125 11.160156 L 16.3125 11.171875 L 16.300781 11.179688 L 16.292969 11.1875 L 16.28125 11.210938 L 16.265625 11.222656 L 16.253906 11.230469 L 16.246094 11.246094 L 16.222656 11.257812 L 16.191406 11.257812 L 16.160156 11.246094 L 16.160156 11.210938 L 16.164062 11.171875 L 16.1875 11.144531 L 16.191406 11.128906 L 16.191406 11.105469 Z M 16.1875 11.066406 " fill-opacity="1" fill-rule="nonzero"/><path fill="#014d4e" d="M 16.234375 11.386719 L 16.257812 11.375 L 16.265625 11.34375 L 16.320312 11.34375 L 16.34375 11.347656 L 16.355469 11.371094 L 16.375 11.378906 L 16.386719 11.398438 L 16.40625 11.414062 L 16.390625 11.429688 L 16.363281 11.445312 L 16.347656 11.457031 L 16.332031 11.484375 L 16.320312 11.496094 L 16.289062 11.476562 L 16.277344 11.453125 L 16.265625 11.441406 L 16.234375 11.425781 Z M 16.234375 11.386719 " fill-opacity="1" fill-rule="nonzero"/><path fill="#014d4e" d="M 16.304688 12.726562 L 16.375 12.65625 L 16.382812 12.617188 L 16.378906 12.570312 L 16.441406 12.566406 L 16.453125 12.574219 L 16.464844 12.617188 L 16.460938 12.675781 L 16.457031 12.714844 L 16.449219 12.734375 L 16.425781 12.757812 L 16.375 12.789062 L 16.355469 12.804688 L 16.347656 12.8125 L 16.339844 12.828125 L 16.324219 12.835938 L 16.292969 12.832031 L 16.289062 12.726562 Z M 16.304688 12.726562 " fill-opacity="1" fill-rule="nonzero"/><path fill="#014d4e" d="M 16.253906 12.898438 L 16.316406 12.90625 C 16.316406 12.90625 16.351562 12.917969 16.359375 12.921875 C 16.363281 12.925781 16.40625 12.945312 16.40625 12.945312 L 16.460938 12.96875 L 16.496094 12.980469 L 16.515625 12.984375 L 16.546875 12.996094 L 16.574219 13 L 16.601562 12.988281 L 16.617188 12.96875 L 16.625 12.949219 L 16.644531 12.925781 L 16.660156 12.90625 L 16.671875 12.890625 L 16.695312 12.886719 L 16.71875 12.871094 L 16.730469 12.855469 L 16.710938 12.839844 L 16.6875 12.832031 L 16.589844 12.832031 L 16.5625 12.820312 L 16.535156 12.816406 L 16.511719 12.800781 L 16.492188 12.785156 L 16.527344 12.730469 L 16.558594 12.714844 L 16.59375 12.703125 L 16.640625 12.699219 L 16.675781 12.699219 L 16.71875 12.703125 L 16.757812 12.714844 L 16.800781 12.722656 L 16.855469 12.726562 L 16.875 12.761719 L 16.886719 12.796875 L 16.902344 12.8125 L 16.90625 12.839844 L 16.90625 12.859375 L 16.917969 12.886719 L 16.917969 12.898438 L 16.933594 12.894531 L 16.941406 12.882812 L 16.972656 12.878906 L 16.980469 12.894531 L 16.988281 12.914062 L 17.011719 12.925781 L 17.019531 12.941406 L 17.035156 12.949219 L 17.019531 12.960938 L 17.007812 12.980469 L 16.960938 13.003906 L 16.9375 13.003906 L 16.929688 13.023438 L 16.925781 13.03125 L 16.984375 13.035156 L 17.015625 13.019531 L 17.039062 13.011719 L 17.058594 13 L 17.078125 12.96875 L 17.089844 12.960938 L 17.089844 12.945312 L 17.105469 12.9375 L 17.121094 12.9375 L 17.136719 12.941406 L 17.152344 12.960938 L 17.148438 13.019531 L 17.160156 13.070312 L 17.160156 13.097656 L 17.175781 13.117188 L 17.1875 13.136719 L 17.203125 13.148438 L 17.203125 13.183594 L 17.0625 13.183594 L 17.039062 13.1875 L 17.015625 13.171875 C 17.015625 13.171875 16.988281 13.167969 16.976562 13.167969 C 16.964844 13.167969 16.933594 13.167969 16.933594 13.167969 C 16.933594 13.167969 16.917969 13.164062 16.90625 13.164062 C 16.898438 13.164062 16.886719 13.167969 16.886719 13.167969 L 16.875 13.183594 L 16.863281 13.183594 L 16.855469 13.207031 C 16.855469 13.207031 16.835938 13.210938 16.832031 13.210938 C 16.824219 13.210938 16.789062 13.210938 16.789062 13.210938 L 16.773438 13.207031 L 16.734375 13.175781 L 16.683594 13.140625 L 16.636719 13.125 L 16.605469 13.113281 L 16.582031 13.105469 L 16.5625 13.09375 L 16.410156 13.089844 C 16.410156 13.089844 16.386719 13.09375 16.378906 13.09375 C 16.375 13.09375 16.316406 13.089844 16.316406 13.089844 L 16.257812 13.078125 C 16.257812 13.078125 16.230469 13.070312 16.222656 13.066406 C 16.21875 13.0625 16.207031 13.054688 16.191406 13.054688 C 16.175781 13.054688 16.164062 13.0625 16.164062 13.0625 L 16.148438 13.074219 L 16.121094 13.082031 L 16.070312 13.128906 L 16.042969 13.140625 L 16.003906 13.125 L 15.980469 13.121094 L 15.96875 13.128906 L 15.949219 13.140625 L 15.929688 13.140625 L 15.886719 13.117188 L 15.847656 13.089844 L 15.835938 13.070312 C 15.835938 13.070312 15.828125 13.0625 15.804688 13.054688 C 15.785156 13.046875 15.777344 13.046875 15.777344 13.046875 L 15.761719 13.046875 L 15.75 13.0625 L 15.734375 13.070312 L 15.707031 13.050781 L 15.6875 13.027344 L 15.667969 13.019531 L 15.632812 13.019531 L 15.605469 12.96875 L 15.589844 12.910156 L 15.582031 12.867188 L 15.570312 12.835938 L 15.554688 12.785156 L 15.542969 12.746094 C 15.542969 12.746094 15.535156 12.742188 15.535156 12.734375 C 15.53125 12.726562 15.53125 12.714844 15.53125 12.714844 L 15.507812 12.695312 L 15.5 12.578125 L 15.480469 12.546875 L 15.480469 12.507812 L 15.492188 12.492188 L 15.5 12.46875 L 15.503906 12.414062 L 15.507812 12.386719 L 15.53125 12.386719 L 15.546875 12.398438 L 15.578125 12.402344 L 15.589844 12.410156 L 15.605469 12.417969 L 15.625 12.421875 L 15.664062 12.421875 L 15.679688 12.414062 L 15.71875 12.386719 L 15.722656 12.351562 L 15.730469 12.332031 L 15.730469 12.242188 L 15.726562 12.222656 L 15.734375 12.214844 L 15.761719 12.226562 L 15.78125 12.234375 L 15.800781 12.253906 L 15.824219 12.269531 L 15.855469 12.285156 L 15.859375 12.273438 L 15.863281 12.242188 L 15.863281 12.191406 L 15.847656 12.164062 L 15.820312 12.121094 L 15.789062 12.101562 L 15.632812 12.101562 L 15.605469 12.078125 L 15.578125 12.039062 L 15.5625 12.027344 L 15.554688 12.015625 L 15.773438 12.015625 L 15.804688 12.03125 L 15.824219 12.058594 L 15.859375 12.070312 L 15.878906 12.089844 L 15.90625 12.109375 L 15.921875 12.117188 L 15.953125 12.125 L 15.992188 12.15625 L 16.011719 12.175781 L 16.042969 12.199219 L 16.050781 12.210938 L 16.070312 12.21875 L 16.085938 12.226562 L 16.09375 12.234375 L 16.097656 12.253906 L 16.097656 12.265625 L 16.085938 12.28125 L 16.0625 12.304688 L 16.046875 12.328125 L 16.03125 12.339844 L 16.03125 12.355469 L 16.039062 12.371094 L 16.070312 12.398438 L 16.089844 12.414062 L 16.101562 12.414062 L 16.117188 12.417969 L 16.148438 12.429688 L 16.175781 12.425781 L 16.183594 12.441406 L 16.183594 12.464844 L 16.175781 12.570312 L 16.179688 12.597656 L 16.191406 12.613281 L 16.195312 12.640625 L 16.199219 12.65625 L 16.207031 12.679688 L 16.210938 12.710938 L 16.21875 12.714844 L 16.234375 12.71875 L 16.234375 12.8125 L 16.222656 12.832031 L 16.21875 12.847656 L 16.214844 12.867188 L 16.210938 12.875 L 16.203125 12.882812 L 16.199219 12.898438 Z M 16.253906 12.898438 " fill-opacity="1" fill-rule="nonzero"/><g clip-path="url(#661c1cce04)"><path fill="#014d4e" d="M 26.007812 22.816406 L 26.042969 22.816406 L 26.066406 22.847656 L 26.078125 22.859375 L 26.089844 22.867188 L 26.089844 22.898438 L 26.085938 22.910156 L 26.058594 22.90625 L 26.035156 22.886719 L 26.023438 22.867188 L 26.003906 22.839844 Z M 26.007812 22.816406 " fill-opacity="1" fill-rule="nonzero"/></g><path fill="#014d4e" d="M 25.878906 22.898438 L 25.929688 22.898438 L 25.933594 22.925781 L 25.945312 22.945312 L 25.960938 22.96875 L 25.964844 22.980469 L 25.976562 22.996094 L 25.988281 23.015625 L 25.96875 23.019531 L 25.949219 22.992188 L 25.933594 22.96875 L 25.910156 22.941406 C 25.890625 22.925781 25.890625 22.925781 25.890625 22.925781 Z M 25.878906 22.898438 " fill-opacity="1" fill-rule="nonzero"/><path fill="#014d4e" d="M 15.261719 10.339844 L 15.296875 10.367188 L 15.316406 10.394531 L 15.347656 10.417969 L 15.363281 10.417969 L 15.382812 10.394531 L 15.394531 10.40625 L 15.40625 10.425781 L 15.421875 10.4375 C 15.433594 10.425781 15.4375 10.378906 15.4375 10.378906 L 15.429688 10.355469 L 15.417969 10.34375 L 15.40625 10.316406 L 15.390625 10.296875 L 15.371094 10.285156 L 15.335938 10.28125 L 15.316406 10.28125 L 15.3125 10.328125 L 15.265625 10.332031 Z M 15.261719 10.339844 " fill-opacity="1" fill-rule="nonzero"/><path fill="#014d4e" d="M 16.183594 9.632812 L 16.210938 9.605469 L 16.222656 9.589844 L 16.246094 9.550781 L 16.265625 9.574219 L 16.269531 9.589844 L 16.289062 9.582031 L 16.304688 9.5625 L 16.320312 9.5625 L 16.347656 9.546875 L 16.359375 9.546875 L 16.355469 9.566406 L 16.335938 9.582031 L 16.328125 9.605469 L 16.328125 9.628906 L 16.34375 9.636719 L 16.363281 9.648438 L 16.363281 9.675781 L 16.347656 9.695312 L 16.328125 9.699219 L 16.304688 9.699219 L 16.28125 9.683594 L 16.261719 9.683594 L 16.246094 9.703125 L 16.234375 9.714844 L 16.183594 9.75 L 16.207031 9.699219 L 16.210938 9.675781 L 16.191406 9.675781 L 16.1875 9.648438 Z M 16.183594 9.632812 " fill-opacity="1" fill-rule="nonzero"/></svg>