<svg xmlns="http://www.w3.org/2000/svg" xmlns:xlink="http://www.w3.org/1999/xlink" width="40" zoomAndPan="magnify" viewBox="0 0 30 30.000001" height="40" preserveAspectRatio="xMidYMid meet" version="1.0"><defs><clipPath id="7406f4a7c2"><path d="M 3.386719 5.921875 L 25 5.921875 L 25 23.34375 L 3.386719 23.34375 Z M 3.386719 5.921875 " clip-rule="nonzero"/></clipPath><clipPath id="5bfb8e4016"><path d="M 25 14 L 26.613281 14 L 26.613281 15 L 25 15 Z M 25 14 " clip-rule="nonzero"/></clipPath></defs><g clip-path="url(#7406f4a7c2)"><path fill="#014d4e" d="M 5.3125 9.65625 L 5.269531 9.472656 L 4.988281 9.65625 L 4.710938 9.636719 L 4.683594 9.710938 L 4.535156 9.710938 L 4.464844 9.769531 L 4.464844 9.847656 L 4.410156 9.878906 L 4.332031 9.878906 L 4.304688 10.023438 L 4.179688 10.023438 L 4.101562 10.1875 L 4.101562 9.675781 C 4.101562 9.675781 4.007812 9.554688 4.207031 9.582031 L 4.183594 9.484375 L 4.515625 9.203125 L 4.558594 9.226562 L 4.558594 9.027344 C 4.558594 9.027344 4.472656 9.074219 4.453125 9.183594 L 4.347656 9.199219 L 4.316406 9.25 L 4.265625 9.25 L 4.242188 9.28125 L 4.109375 9.269531 L 4.15625 9.152344 L 4.1875 9.21875 L 4.207031 9.085938 L 4.285156 9.117188 C 4.285156 9.117188 4.328125 8.960938 4.457031 8.933594 C 4.457031 8.933594 4.480469 8.875 4.410156 8.855469 C 4.339844 8.839844 4.292969 8.96875 4.292969 8.96875 C 4.292969 8.96875 4.203125 8.894531 4.171875 8.980469 L 4.097656 8.898438 L 4.105469 8.832031 L 4.195312 8.835938 L 4.195312 8.765625 L 4.234375 8.765625 L 4.222656 8.679688 L 4.167969 8.679688 L 4.171875 8.5625 C 4.171875 8.5625 4.285156 8.5625 4.292969 8.449219 L 4.324219 8.40625 C 4.324219 8.40625 4.328125 8.292969 4.234375 8.40625 C 4.234375 8.40625 4.125 8.253906 4.148438 8.449219 L 4.121094 8.472656 C 4.121094 8.472656 4.070312 8.324219 4 8.542969 C 4 8.542969 3.898438 8.511719 3.90625 8.65625 L 3.863281 8.695312 L 3.816406 8.683594 L 3.835938 8.578125 L 3.738281 8.5625 C 3.738281 8.5625 3.765625 8.441406 3.820312 8.433594 C 3.820312 8.433594 3.859375 8.210938 3.957031 8.195312 C 4.050781 8.179688 3.988281 8.121094 3.988281 8.121094 C 3.988281 8.121094 4.015625 8.074219 4.074219 8.109375 C 4.128906 8.144531 4.101562 8 4.101562 8 C 4.101562 8 4.003906 8.019531 3.980469 8.066406 C 3.953125 8.113281 3.878906 8.101562 3.859375 8.050781 C 3.839844 8 3.785156 8.105469 3.785156 8.105469 L 3.789062 8.175781 L 3.738281 8.199219 L 3.632812 8.070312 L 3.714844 8.046875 C 3.714844 8.046875 3.738281 7.972656 3.65625 7.957031 C 3.578125 7.941406 3.679688 7.835938 3.679688 7.835938 L 3.613281 7.800781 C 3.613281 7.800781 3.589844 7.601562 3.554688 7.796875 L 3.507812 7.742188 C 3.507812 7.742188 3.4375 7.773438 3.441406 7.886719 L 3.410156 7.804688 L 3.390625 7.804688 L 3.390625 7.738281 C 3.390625 7.738281 3.5 7.660156 3.417969 7.597656 L 3.417969 7.519531 L 3.472656 7.519531 L 3.476562 7.441406 L 3.523438 7.441406 L 3.542969 7.382812 C 3.542969 7.382812 3.589844 7.472656 3.621094 7.378906 C 3.621094 7.378906 3.757812 7.300781 3.578125 7.328125 C 3.398438 7.355469 3.667969 7.175781 3.667969 7.175781 L 3.765625 7.226562 L 3.839844 7.175781 L 3.851562 7.121094 L 4.007812 7.136719 C 4.007812 7.136719 4.101562 7.128906 3.957031 7.035156 C 3.8125 6.941406 4.03125 6.988281 4.03125 6.988281 L 4.0625 6.917969 L 4.140625 6.929688 C 4.140625 6.929688 4.175781 6.792969 4.226562 6.945312 C 4.226562 6.945312 4.460938 7.007812 4.554688 6.90625 C 4.554688 6.90625 4.695312 7.023438 4.875 6.742188 L 4.945312 6.894531 L 5.023438 6.855469 L 5.015625 6.742188 C 5.015625 6.742188 5.085938 6.714844 5.097656 6.765625 C 5.097656 6.765625 5.164062 6.746094 5.160156 6.84375 C 5.160156 6.84375 5.253906 6.863281 5.222656 6.980469 C 5.222656 6.980469 5.234375 7.054688 5.261719 6.992188 C 5.289062 6.933594 5.238281 6.796875 5.238281 6.796875 L 5.230469 6.730469 L 5.3125 6.71875 C 5.3125 6.71875 5.304688 6.640625 5.183594 6.667969 C 5.066406 6.695312 5.097656 6.625 5.097656 6.625 L 5.246094 6.605469 C 5.246094 6.605469 5.34375 6.546875 5.332031 6.496094 C 5.320312 6.445312 5.238281 6.542969 5.238281 6.542969 L 5.171875 6.523438 L 5.109375 6.585938 L 5.015625 6.558594 L 5.074219 6.53125 C 5.074219 6.53125 4.988281 6.457031 5.097656 6.453125 L 5.046875 6.390625 L 5.152344 6.390625 L 5.292969 6.253906 L 5.441406 6.167969 L 5.515625 6.1875 C 5.515625 6.1875 5.550781 6.160156 5.480469 6.140625 L 5.480469 6.042969 L 5.613281 6.058594 L 5.703125 5.976562 L 5.753906 5.976562 L 5.753906 5.921875 L 5.84375 5.921875 L 5.84375 6.015625 L 5.769531 6.117188 C 5.769531 6.117188 5.8125 6.226562 5.863281 6.113281 L 5.851562 6.085938 C 5.851562 6.085938 5.941406 6.15625 5.925781 6.027344 L 5.949219 6 L 6.003906 6.003906 L 6.007812 5.976562 L 6.070312 5.972656 L 6.082031 5.921875 L 6.15625 5.921875 C 6.15625 5.921875 6.144531 5.953125 6.101562 5.988281 L 6.105469 6.050781 L 6.15625 6.050781 L 6.152344 5.996094 L 6.230469 5.957031 L 6.230469 6.027344 L 6.257812 6.03125 L 6.261719 6.15625 C 6.261719 6.15625 6.300781 6.21875 6.316406 6.132812 L 6.316406 6.050781 L 6.359375 6.046875 L 6.398438 5.976562 L 6.445312 6.027344 L 6.488281 6.007812 L 6.519531 6.082031 C 6.519531 6.082031 6.660156 6.050781 6.734375 6.179688 C 6.808594 6.304688 6.875 6.328125 6.875 6.328125 C 6.875 6.328125 6.820312 6.394531 6.847656 6.414062 C 6.878906 6.433594 6.902344 6.355469 6.902344 6.355469 L 7.234375 6.375 L 7.234375 6.433594 C 7.234375 6.433594 7.1875 6.488281 7.222656 6.523438 C 7.257812 6.5625 7.265625 6.457031 7.265625 6.457031 L 7.277344 6.457031 L 7.277344 6.378906 L 7.355469 6.390625 L 7.359375 6.355469 L 7.644531 6.382812 L 7.726562 6.347656 L 7.765625 6.355469 L 7.777344 6.386719 L 7.847656 6.351562 L 7.964844 6.347656 L 7.984375 6.390625 C 7.984375 6.390625 8.070312 6.382812 8.074219 6.382812 C 8.078125 6.382812 8.109375 6.40625 8.109375 6.40625 L 8.210938 6.40625 L 8.210938 6.351562 L 8.296875 6.355469 L 8.3125 6.394531 L 8.441406 6.390625 L 8.527344 6.332031 L 8.574219 6.328125 L 8.585938 6.289062 L 8.648438 6.289062 L 8.65625 6.335938 C 8.65625 6.335938 8.691406 6.359375 8.695312 6.359375 C 8.699219 6.359375 8.761719 6.355469 8.761719 6.355469 L 8.859375 6.363281 L 8.867188 6.433594 C 8.867188 6.433594 8.898438 6.449219 8.898438 6.402344 C 8.902344 6.359375 8.941406 6.308594 8.941406 6.308594 L 9.019531 6.304688 C 9.019531 6.304688 9.074219 6.371094 9.117188 6.28125 L 9.15625 6.277344 C 9.15625 6.277344 9.1875 6.257812 9.164062 6.222656 C 9.164062 6.222656 9.210938 6.207031 9.222656 6.226562 C 9.234375 6.242188 9.253906 6.148438 9.253906 6.148438 L 9.304688 6.144531 L 9.304688 6.195312 L 9.574219 6.386719 L 10.246094 6.398438 L 10.34375 6.566406 L 11.039062 6.640625 L 11.617188 6.765625 L 12.0625 6.722656 L 12.410156 6.617188 L 12.503906 6.640625 L 12.804688 6.519531 L 12.804688 6.570312 L 12.710938 6.65625 L 12.765625 6.757812 L 12.804688 6.683594 L 12.804688 6.640625 L 12.894531 6.667969 L 12.875 6.609375 L 12.929688 6.554688 L 12.988281 6.566406 L 13.074219 6.507812 L 13.105469 6.480469 L 13.125 6.550781 L 13.175781 6.480469 L 13.214844 6.539062 L 13.242188 6.535156 L 13.332031 6.585938 L 13.242188 6.660156 L 13.257812 6.699219 L 13.332031 6.699219 L 13.332031 6.722656 C 13.332031 6.722656 13.320312 6.773438 13.324219 6.773438 C 13.328125 6.773438 13.367188 6.789062 13.367188 6.789062 L 13.394531 6.824219 L 13.40625 6.785156 C 13.40625 6.785156 13.386719 6.769531 13.382812 6.765625 C 13.378906 6.761719 13.371094 6.6875 13.371094 6.6875 L 13.414062 6.703125 L 13.550781 6.695312 L 13.574219 6.769531 L 13.613281 6.769531 L 13.621094 6.714844 L 13.730469 6.726562 L 13.863281 6.855469 L 13.945312 6.84375 L 13.980469 6.816406 L 14.152344 6.953125 C 14.152344 6.953125 14.21875 6.957031 14.164062 6.902344 C 14.164062 6.902344 14.089844 6.820312 14.09375 6.789062 C 14.097656 6.757812 14.136719 6.773438 14.136719 6.773438 L 14.1875 6.714844 L 14.25 6.746094 L 14.25 6.644531 L 14.464844 6.664062 L 14.554688 6.601562 L 14.65625 6.714844 C 14.65625 6.714844 14.65625 6.8125 14.707031 6.859375 C 14.757812 6.910156 14.683594 6.761719 14.695312 6.71875 C 14.707031 6.679688 14.773438 6.734375 14.773438 6.734375 L 14.855469 6.777344 C 14.855469 6.777344 15.320312 7.050781 15.46875 6.929688 C 15.46875 6.929688 15.515625 6.921875 15.542969 6.972656 L 15.8125 6.894531 C 15.8125 6.894531 15.847656 6.929688 15.851562 6.929688 C 15.855469 6.929688 15.875 6.871094 15.878906 6.871094 C 15.882812 6.871094 15.972656 6.863281 15.972656 6.863281 L 16.175781 6.742188 L 16.21875 6.863281 L 16.265625 6.863281 C 16.265625 6.863281 16.269531 6.976562 16.277344 6.976562 C 16.28125 6.976562 16.441406 6.933594 16.441406 6.933594 L 16.464844 7.066406 C 16.464844 7.066406 16.558594 7.148438 16.636719 6.992188 C 16.636719 6.992188 16.726562 6.960938 16.730469 7.050781 L 16.859375 7.042969 L 16.859375 7.1875 C 16.859375 7.1875 16.859375 7.386719 16.726562 7.394531 C 16.589844 7.402344 16.902344 7.574219 16.914062 7.570312 C 16.925781 7.566406 17.011719 7.5 16.992188 7.464844 C 16.992188 7.464844 17.074219 7.457031 17.109375 7.527344 L 17.179688 7.507812 L 17.339844 7.625 L 17.40625 7.597656 L 17.460938 7.660156 L 17.535156 7.648438 L 17.640625 7.726562 L 17.890625 7.722656 L 17.910156 7.695312 L 17.976562 7.703125 L 17.976562 7.773438 L 17.953125 7.808594 L 17.992188 7.816406 L 18.015625 7.871094 L 18.09375 7.875 L 18.28125 8.117188 L 18.378906 8.082031 L 18.394531 8.023438 L 18.449219 8.015625 L 18.5 8.082031 L 18.71875 7.984375 L 18.804688 7.984375 L 18.933594 8.101562 L 18.996094 8.082031 L 19.046875 8.171875 L 19.058594 8.25 L 19.128906 8.253906 L 19.164062 8.3125 L 19.246094 8.320312 L 19.296875 8.292969 L 19.492188 8.296875 L 19.574219 8.214844 L 19.652344 8.261719 L 19.703125 8.257812 L 19.746094 8.367188 L 19.882812 8.242188 L 19.90625 8.242188 L 19.953125 8.320312 L 20.347656 8.308594 L 20.449219 8.371094 L 20.449219 8.21875 L 20.386719 8.074219 L 20.449219 7.914062 L 20.546875 7.972656 L 20.644531 7.984375 L 20.839844 8.09375 L 20.902344 8.078125 L 20.96875 8.113281 L 21.128906 8.109375 L 21.242188 8.289062 L 21.324219 8.25 L 21.546875 8.25 L 21.695312 8.453125 L 21.683594 8.574219 L 21.664062 8.652344 L 21.738281 8.664062 L 21.738281 8.71875 C 21.738281 8.71875 21.613281 8.804688 21.777344 8.894531 C 21.941406 8.988281 22.121094 8.757812 22.121094 8.757812 L 22.277344 8.753906 L 22.386719 8.765625 L 22.488281 8.867188 L 22.558594 8.855469 L 22.582031 8.921875 L 22.582031 9.011719 L 22.609375 9.015625 C 22.609375 9.015625 22.796875 9.167969 22.9375 8.90625 L 22.992188 8.902344 C 22.992188 8.902344 23.035156 8.964844 23.09375 8.90625 L 23.183594 8.902344 L 23.261719 8.9375 L 23.375 8.964844 L 23.539062 9.105469 L 23.597656 9.089844 L 23.664062 9.050781 L 23.730469 9.0625 L 23.824219 9.105469 C 23.824219 9.105469 23.890625 9.097656 23.863281 9.042969 L 23.820312 9.023438 L 23.824219 8.917969 L 23.945312 8.910156 L 24.046875 8.941406 L 24.140625 8.824219 L 24.238281 8.828125 L 24.273438 8.789062 L 24.441406 8.785156 L 24.511719 8.878906 L 24.660156 8.851562 C 24.660156 8.851562 24.699219 8.867188 24.628906 8.933594 C 24.628906 8.933594 24.640625 9.078125 24.707031 9.085938 L 24.769531 9.039062 L 24.785156 9.09375 C 24.785156 9.09375 24.980469 9.078125 24.855469 9.171875 L 24.855469 9.242188 L 24.773438 9.261719 L 24.746094 9.296875 L 24.667969 9.21875 L 24.617188 9.269531 L 24.570312 9.285156 L 24.574219 9.347656 L 24.574219 9.53125 C 24.574219 9.53125 24.820312 9.636719 24.707031 9.761719 L 24.710938 9.867188 C 24.710938 9.867188 24.828125 9.921875 24.738281 10 L 24.679688 10.097656 L 24.679688 10.140625 L 24.546875 10.1875 L 24.480469 10.289062 L 24.324219 10.398438 L 24.289062 10.496094 L 24.113281 10.523438 L 24.027344 10.605469 C 24.027344 10.605469 23.457031 10.835938 23.339844 10.96875 C 23.339844 10.96875 23.121094 11.011719 22.863281 11.4375 L 22.464844 11.503906 L 21.816406 11.6875 L 21.3125 11.839844 L 21.265625 11.957031 C 21.265625 11.957031 21.09375 11.839844 20.941406 11.957031 L 20.503906 12.511719 C 20.503906 12.511719 20.535156 12.601562 20.609375 12.566406 L 20.699219 12.664062 L 20.796875 12.660156 L 20.703125 12.800781 L 20.527344 12.859375 C 20.527344 12.859375 20.285156 12.820312 20.160156 13.082031 C 20.03125 13.339844 19.726562 13.746094 19.726562 13.746094 C 19.726562 13.746094 19.464844 14.042969 19.515625 14.132812 C 19.566406 14.222656 19.351562 14.191406 19.351562 14.191406 C 19.351562 14.191406 19.292969 14.292969 19.320312 14.351562 C 19.34375 14.410156 19.171875 14.585938 19.171875 14.585938 L 18.933594 14.929688 L 18.914062 15.074219 L 18.824219 15.140625 C 18.824219 15.140625 18.519531 15.640625 18.898438 16.066406 C 18.898438 16.066406 18.929688 16.566406 19.300781 16.820312 L 19.601562 16.914062 L 19.617188 17.027344 L 19.667969 17.066406 L 19.496094 17.21875 L 19.34375 17.335938 C 19.34375 17.335938 19.101562 17.375 19.148438 17.535156 C 19.195312 17.695312 19 17.542969 19 17.542969 C 19 17.542969 18.507812 17.730469 18.570312 17.964844 C 18.570312 17.964844 18.28125 17.921875 18.402344 18.328125 C 18.402344 18.328125 18.121094 18.25 18.148438 18.636719 L 18.164062 18.757812 L 18.148438 18.796875 L 18.0625 18.796875 L 17.957031 19.070312 L 17.980469 19.15625 L 17.90625 19.15625 L 17.890625 19.21875 L 17.789062 19.339844 C 17.789062 19.339844 17.851562 19.511719 17.988281 19.550781 L 18.03125 19.519531 L 18.058594 19.566406 C 18.058594 19.566406 18.011719 19.644531 17.921875 19.621094 L 17.886719 19.671875 C 17.886719 19.671875 17.800781 19.617188 17.683594 19.722656 L 17.613281 19.667969 L 17.609375 19.613281 L 17.554688 19.605469 L 17.539062 19.667969 L 17.445312 19.664062 L 17.347656 19.695312 L 17.347656 19.742188 L 17.273438 19.742188 L 17.269531 19.695312 L 17.132812 19.667969 L 17.117188 19.722656 L 17 19.714844 L 16.878906 19.808594 C 16.878906 19.808594 16.726562 19.847656 16.726562 20 C 16.726562 20 16.296875 20.179688 16.132812 20.683594 C 15.964844 21.191406 16.046875 21.097656 16.046875 21.097656 C 16.046875 21.097656 15.832031 21.191406 15.824219 21.300781 C 15.816406 21.414062 15.722656 21.371094 15.722656 21.371094 L 15.761719 21.453125 L 15.53125 21.585938 C 15.53125 21.585938 15.269531 21.128906 15.121094 21.363281 C 15.121094 21.363281 14.90625 21.199219 14.734375 21.625 L 14.488281 21.625 L 14.460938 21.570312 L 14.359375 21.613281 L 14.253906 21.472656 L 14.171875 21.519531 L 13.550781 21.519531 C 13.550781 21.519531 13.441406 21.738281 13.117188 21.496094 L 12.910156 21.566406 L 12.734375 21.480469 L 12.519531 21.5625 L 12.28125 21.484375 L 12.214844 21.578125 L 11.84375 21.585938 L 11.699219 21.550781 L 11.515625 21.878906 L 11.367188 21.902344 L 11.324219 22.023438 L 11.25 22.074219 L 11.03125 22.074219 C 11.03125 22.074219 10.910156 21.996094 10.75 22.125 L 10.585938 22.164062 L 10.402344 22.253906 L 10.132812 22.78125 L 10.003906 22.75 C 10.003906 22.75 9.886719 22.835938 9.964844 23.007812 L 9.789062 23.101562 L 9.632812 23.101562 L 9.578125 23.023438 C 9.578125 23.023438 9.460938 23.039062 9.453125 23.03125 C 9.445312 23.019531 9.390625 22.960938 9.390625 22.960938 L 9.332031 22.972656 L 9.136719 22.738281 L 8.949219 22.757812 L 8.832031 22.511719 L 8.777344 22.511719 L 8.558594 22.125 L 8.648438 22.125 L 8.738281 22.027344 L 8.707031 21.984375 L 8.640625 22.039062 L 8.59375 22.003906 L 8.640625 21.945312 L 8.640625 21.851562 L 8.570312 21.863281 L 8.527344 21.785156 L 8.421875 21.753906 L 8.421875 21.789062 L 8.351562 21.785156 L 8.34375 21.6875 L 8.253906 21.554688 L 8.445312 21.40625 L 8.453125 21.265625 L 8.410156 21.265625 C 8.410156 21.265625 8.386719 21.296875 8.410156 21.367188 C 8.410156 21.367188 8.351562 21.457031 8.328125 21.25 C 8.304688 21.046875 7.417969 20.53125 7.417969 20.53125 L 7.417969 20.484375 L 7.445312 20.449219 L 7.402344 20.441406 L 7.394531 20.335938 L 7.328125 20.335938 L 7.339844 20.390625 L 7.335938 20.441406 L 7.296875 20.414062 L 7.285156 20.46875 L 7.339844 20.496094 L 7.363281 20.539062 L 7.34375 20.546875 L 7.277344 20.527344 L 7.261719 20.496094 L 7.222656 20.492188 L 7.222656 20.460938 L 7.035156 20.464844 L 7.023438 20.414062 L 6.996094 20.492188 L 6.796875 20.488281 L 6.789062 20.535156 L 6.742188 20.460938 L 6.71875 20.460938 L 6.710938 20.5625 L 6.617188 20.550781 L 6.613281 20.449219 L 6.585938 20.429688 L 6.59375 20.3125 L 6.566406 20.3125 L 6.5625 20.089844 L 6.535156 20.0625 C 6.535156 20.0625 6.570312 20.027344 6.570312 20.023438 C 6.570312 20.019531 6.570312 19.992188 6.570312 19.992188 L 6.539062 19.964844 L 6.535156 19.863281 L 6.460938 19.773438 L 6.441406 19.773438 L 6.441406 19.71875 L 6.46875 19.722656 L 6.46875 19.640625 L 6.511719 19.59375 L 6.554688 19.507812 L 6.574219 19.492188 L 6.582031 19.351562 L 6.605469 19.285156 L 6.789062 19.136719 L 6.84375 19.042969 L 6.851562 18.9375 L 6.875 18.917969 L 6.882812 18.773438 L 6.945312 18.769531 L 6.964844 18.753906 L 7.046875 18.777344 L 7.109375 18.75 L 7.128906 18.667969 L 7.171875 18.667969 L 7.21875 18.722656 C 7.21875 18.722656 7.289062 18.746094 7.339844 18.648438 L 7.324219 18.570312 L 7.398438 18.429688 L 7.414062 18.316406 L 7.449219 18.261719 C 7.449219 18.261719 7.417969 18.199219 7.359375 18.242188 C 7.304688 18.28125 7.28125 18.261719 7.28125 18.261719 L 7.261719 18.316406 L 7.148438 18.308594 L 7.078125 18.210938 L 7.078125 18.128906 L 6.824219 17.792969 C 6.824219 17.792969 6.769531 17.757812 6.769531 17.753906 C 6.769531 17.753906 6.765625 17.726562 6.765625 17.726562 L 6.835938 17.679688 L 6.773438 17.644531 L 6.804688 17.546875 L 6.882812 17.433594 L 6.882812 17.390625 L 6.917969 17.359375 L 6.910156 17.3125 L 6.867188 17.304688 L 6.867188 17.164062 L 7.035156 17.019531 L 7.09375 16.941406 L 7.152344 16.941406 L 7.199219 16.90625 L 7.191406 16.871094 L 7.207031 16.839844 L 7.265625 16.828125 L 7.265625 16.769531 L 7.234375 16.742188 L 7.234375 16.707031 L 7.386719 16.476562 L 7.386719 16.355469 L 7.308594 16.269531 L 7.234375 16.230469 L 7.113281 16.285156 L 7.046875 16.265625 L 7.089844 16.171875 L 7.089844 16.117188 L 7.015625 16.085938 L 6.917969 16.078125 L 6.910156 16.019531 L 6.925781 15.890625 L 6.871094 15.816406 L 6.804688 15.769531 L 6.765625 15.671875 L 6.792969 15.609375 L 6.824219 15.515625 L 6.792969 15.453125 L 6.734375 15.449219 L 6.65625 15.402344 L 6.660156 15.355469 L 6.644531 15.3125 L 6.574219 15.308594 L 6.546875 15.242188 L 6.480469 15.207031 L 6.441406 15.140625 L 6.441406 15.101562 L 6.429688 15.035156 L 6.558594 15.046875 L 6.578125 15.066406 L 6.738281 15.097656 L 6.835938 15.058594 L 6.988281 15.058594 L 7.128906 15.046875 L 7.195312 15.074219 L 7.285156 15.039062 L 7.3125 14.988281 L 7.324219 14.890625 L 7.347656 14.820312 L 7.359375 14.800781 L 7.355469 14.707031 L 7.394531 14.679688 L 7.464844 14.605469 L 7.488281 14.566406 L 7.480469 14.484375 L 7.554688 14.292969 L 7.414062 14.039062 L 7.308594 14.003906 L 7.292969 13.800781 L 7.382812 13.734375 L 7.574219 13.707031 L 7.570312 13.601562 L 7.675781 13.542969 C 7.675781 13.542969 7.730469 13.464844 7.628906 13.390625 C 7.53125 13.320312 7.632812 13.199219 7.632812 13.199219 L 7.691406 13.121094 L 7.699219 13.074219 L 7.601562 13.023438 L 7.585938 12.984375 L 7.671875 12.910156 L 7.683594 12.816406 L 7.648438 12.738281 L 7.613281 12.632812 L 7.617188 12.429688 L 7.65625 12.421875 L 7.65625 12.335938 L 7.578125 12.289062 L 7.574219 12.179688 L 7.425781 12.007812 L 7.453125 11.976562 C 7.453125 11.976562 7.699219 12.054688 7.730469 11.761719 L 7.914062 11.542969 C 7.914062 11.542969 8.066406 11.605469 8.097656 11.492188 C 8.097656 11.492188 8.316406 11.386719 8.382812 11.222656 C 8.382812 11.222656 8.476562 11.21875 8.503906 11.074219 C 8.53125 10.929688 8.722656 10.78125 8.722656 10.78125 L 8.554688 10.605469 L 8.363281 10.53125 L 8.285156 10.503906 L 8.21875 10.578125 L 8.089844 10.519531 L 8.144531 10.128906 L 8.097656 10.109375 L 8.113281 10.007812 L 8.066406 9.847656 L 7.957031 9.972656 L 7.753906 9.988281 L 7.695312 9.84375 L 7.601562 9.84375 L 7.613281 9.949219 L 7.460938 9.949219 L 7.394531 9.886719 L 7.308594 9.875 L 7.300781 9.953125 L 7.203125 9.949219 L 7.15625 9.875 L 7.011719 9.839844 L 6.960938 9.929688 L 7 10.023438 L 6.953125 10.105469 L 6.835938 10.15625 L 6.742188 10.175781 L 6.65625 10.148438 L 6.621094 10.226562 L 6.578125 10.1875 L 6.535156 10.132812 L 6.441406 10.113281 L 6.410156 10.167969 L 6.363281 10.207031 L 6.292969 10.195312 L 6.285156 10.164062 L 6.332031 10.136719 L 6.34375 10.101562 L 6.28125 10.070312 L 6.238281 10.101562 L 6.183594 10.097656 L 6.164062 10.046875 L 6.101562 10.039062 L 5.96875 10.0625 L 5.878906 10.089844 L 5.867188 10.144531 L 5.847656 10.152344 L 5.816406 10.097656 L 5.839844 10.015625 L 5.785156 9.992188 L 5.734375 10 L 5.726562 10.09375 L 5.683594 10.128906 C 5.683594 10.128906 5.628906 10.089844 5.601562 10.175781 C 5.574219 10.265625 5.355469 10.246094 5.355469 10.246094 L 5.34375 10.15625 L 5.355469 10.105469 L 5.347656 10.085938 L 5.269531 10.085938 L 5.253906 10.042969 L 5.277344 9.988281 C 5.277344 9.988281 5.308594 9.886719 5.472656 9.808594 L 5.46875 9.703125 L 5.425781 9.683594 C 5.425781 9.683594 5.390625 9.632812 5.355469 9.664062 L 5.316406 9.664062 L 5.3125 9.65625 " fill-opacity="1" fill-rule="nonzero"/></g><path fill="#014d4e" d="M 21.382812 16.636719 L 21.34375 16.617188 L 21.363281 16.566406 L 21.480469 16.566406 L 21.496094 16.425781 L 21.839844 16.269531 L 21.914062 16.269531 L 22.003906 16.292969 L 22.003906 16.332031 L 21.972656 16.363281 L 22.03125 16.421875 L 21.976562 16.464844 L 21.984375 16.519531 L 21.917969 16.539062 L 21.890625 16.539062 L 21.882812 16.609375 L 21.785156 16.683594 L 21.738281 16.683594 L 21.660156 16.75 L 21.660156 16.867188 L 21.613281 16.867188 L 21.585938 16.789062 L 21.539062 16.8125 L 21.480469 16.804688 L 21.472656 16.75 C 21.472656 16.75 21.25 16.902344 21.382812 16.636719 " fill-opacity="1" fill-rule="nonzero"/><path fill="#014d4e" d="M 23.285156 15.160156 C 23.285156 15.160156 23.234375 15.25 23.457031 15.339844 L 23.503906 15.359375 L 23.503906 15.476562 L 23.570312 15.476562 L 23.601562 15.398438 L 23.601562 15.34375 L 23.667969 15.328125 L 23.785156 15.242188 L 23.957031 15.375 L 23.917969 15.464844 L 23.957031 15.527344 L 23.929688 15.601562 L 24.039062 15.695312 L 24.339844 15.695312 L 24.386719 15.761719 L 24.386719 15.804688 L 24.445312 15.847656 L 24.457031 15.910156 L 24.503906 15.921875 L 24.585938 15.816406 L 24.71875 15.777344 L 24.730469 15.714844 L 24.808594 15.679688 L 24.84375 15.542969 L 24.867188 15.4375 L 25.03125 15.277344 L 25.066406 15.25 L 25.066406 15.21875 L 25.042969 15.160156 L 25.09375 15.101562 L 25.148438 15.082031 L 25.175781 14.992188 L 25.160156 14.871094 L 25.050781 14.804688 L 25.015625 14.804688 L 24.976562 14.746094 L 24.957031 14.800781 L 24.8125 14.890625 L 24.691406 14.855469 L 24.640625 14.800781 L 24.574219 14.707031 L 24.578125 14.675781 L 24.640625 14.652344 L 24.71875 14.652344 L 24.722656 14.621094 L 24.675781 14.539062 L 24.636719 14.585938 L 24.542969 14.601562 L 24.507812 14.558594 L 24.527344 14.511719 L 24.546875 14.476562 L 24.613281 14.476562 L 24.597656 14.433594 L 24.558594 14.414062 L 24.519531 14.433594 L 24.496094 14.46875 L 24.433594 14.433594 L 24.398438 14.4375 L 24.371094 14.488281 L 24.3125 14.480469 L 24.113281 14.59375 L 24.011719 14.609375 L 23.996094 14.652344 L 23.894531 14.675781 L 23.789062 14.816406 L 23.679688 14.90625 L 23.582031 14.953125 L 23.515625 15.007812 L 23.390625 15.113281 L 23.285156 15.160156 " fill-opacity="1" fill-rule="nonzero"/><g clip-path="url(#5bfb8e4016)"><path fill="#014d4e" d="M 25.976562 14.414062 L 25.902344 14.460938 L 25.785156 14.460938 C 25.785156 14.460938 25.753906 14.429688 25.753906 14.429688 C 25.757812 14.425781 25.808594 14.359375 25.808594 14.359375 L 25.773438 14.304688 L 25.746094 14.277344 L 25.746094 14.214844 L 25.773438 14.207031 L 25.800781 14.164062 L 25.882812 14.148438 L 25.9375 14.175781 L 25.988281 14.148438 L 26.089844 14.148438 L 26.15625 14.117188 L 26.210938 14.152344 L 26.3125 14.164062 L 26.328125 14.195312 L 26.375 14.175781 L 26.433594 14.222656 L 26.453125 14.277344 L 26.5 14.289062 L 26.558594 14.429688 L 26.609375 14.511719 L 26.535156 14.511719 L 26.523438 14.542969 L 26.609375 14.570312 L 26.609375 14.664062 L 26.535156 14.707031 L 26.441406 14.671875 L 26.339844 14.597656 L 26.246094 14.535156 L 26.144531 14.460938 L 26.066406 14.464844 L 25.976562 14.414062 " fill-opacity="1" fill-rule="nonzero"/></g></svg>