<svg xmlns="http://www.w3.org/2000/svg" xmlns:xlink="http://www.w3.org/1999/xlink" width="40" zoomAndPan="magnify" viewBox="0 0 30 30.000001" height="40" preserveAspectRatio="xMidYMid meet" version="1.0"><defs><clipPath id="0da0aa26a1"><path d="M 3.386719 5.558594 L 26.613281 5.558594 L 26.613281 23.703125 L 3.386719 23.703125 Z M 3.386719 5.558594 " clip-rule="nonzero"/></clipPath></defs><g clip-path="url(#0da0aa26a1)"><path fill="#014d4e" d="M 7.433594 20.214844 C 7.355469 20.242188 7.265625 20.253906 7.183594 20.28125 C 7.035156 20.328125 6.929688 20.394531 6.847656 20.226562 C 6.78125 20.097656 6.757812 19.949219 6.679688 19.832031 C 6.601562 19.710938 6.394531 19.679688 6.425781 19.507812 C 6.441406 19.421875 6.488281 19.34375 6.496094 19.253906 C 6.507812 19.179688 6.507812 19.109375 6.507812 19.035156 C 6.445312 18.984375 6.378906 18.933594 6.320312 18.890625 C 6.195312 18.804688 6.195312 18.71875 6.152344 18.574219 C 6.121094 18.457031 6.078125 18.359375 5.96875 18.292969 C 5.855469 18.230469 5.769531 18.253906 5.726562 18.113281 C 5.691406 17.992188 5.664062 17.949219 5.546875 17.898438 C 5.453125 17.859375 5.320312 17.828125 5.253906 17.761719 C 5.0625 17.582031 5.101562 17.257812 4.886719 17.101562 C 4.789062 17.03125 4.664062 17.023438 4.597656 16.914062 C 4.558594 16.839844 4.515625 16.746094 4.484375 16.65625 C 4.367188 16.613281 4.257812 16.613281 4.101562 16.621094 C 3.894531 16.628906 3.738281 16.523438 3.5625 16.429688 C 3.5 16.398438 3.386719 16.359375 3.394531 16.269531 C 3.40625 16.183594 3.558594 16.097656 3.605469 16.035156 C 3.738281 15.867188 3.664062 15.660156 3.851562 15.535156 C 3.941406 15.476562 4.058594 15.421875 4.160156 15.433594 C 4.25 15.441406 4.308594 15.5 4.394531 15.519531 C 4.585938 15.570312 4.742188 15.386719 4.910156 15.328125 C 5 15.300781 5.078125 15.289062 5.113281 15.1875 C 5.160156 15.058594 5.109375 14.886719 5.097656 14.753906 C 5.074219 14.476562 5.089844 14.175781 5.097656 13.894531 C 5.101562 13.667969 5.277344 13.535156 5.304688 13.320312 C 5.335938 13.066406 5.378906 12.941406 5.570312 12.765625 C 5.542969 12.695312 5.519531 12.625 5.484375 12.558594 C 5.445312 12.472656 5.390625 12.417969 5.402344 12.316406 C 5.410156 12.234375 5.4375 12.121094 5.519531 12.082031 C 5.625 12.039062 5.699219 12.125 5.75 11.996094 C 5.785156 11.914062 5.785156 11.816406 5.871094 11.765625 C 5.984375 11.707031 6.046875 11.8125 6.128906 11.863281 C 6.339844 12 6.402344 11.726562 6.445312 11.566406 C 6.472656 11.46875 6.511719 11.390625 6.554688 11.3125 C 6.535156 11.203125 6.511719 11.085938 6.566406 10.984375 C 6.628906 10.871094 6.734375 10.804688 6.769531 10.675781 C 6.796875 10.558594 6.734375 10.433594 6.777344 10.324219 C 6.824219 10.210938 6.964844 10.164062 7.050781 10.082031 C 7.226562 9.925781 7.214844 9.65625 7.328125 9.453125 C 7.457031 9.226562 7.597656 9 7.867188 8.949219 C 8.082031 8.910156 8.289062 8.84375 8.488281 8.765625 C 8.484375 8.722656 8.480469 8.679688 8.480469 8.632812 C 8.484375 8.484375 8.53125 8.382812 8.503906 8.230469 C 8.472656 8.074219 8.515625 8.011719 8.59375 7.890625 C 8.664062 7.789062 8.710938 7.652344 8.75 7.539062 C 8.785156 7.429688 8.804688 7.3125 8.914062 7.277344 C 8.902344 7.109375 8.878906 6.925781 8.898438 6.769531 C 8.914062 6.617188 9.085938 6.511719 9.226562 6.480469 C 9.410156 6.4375 9.597656 6.515625 9.789062 6.464844 C 9.960938 6.417969 10.101562 6.375 10.285156 6.421875 C 10.421875 6.460938 10.480469 6.566406 10.53125 6.683594 C 10.722656 6.398438 10.890625 6.121094 10.984375 5.78125 C 10.996094 5.734375 11.011719 5.582031 11.070312 5.574219 C 11.121094 5.566406 11.1875 5.675781 11.230469 5.699219 C 11.367188 5.789062 11.539062 5.738281 11.671875 5.835938 C 11.804688 5.933594 11.875 6.070312 11.996094 6.171875 C 12.140625 6.121094 12.269531 6.152344 12.421875 6.125 C 12.578125 6.101562 12.660156 5.9375 12.816406 5.925781 C 12.972656 5.910156 13.109375 6.054688 13.25 6.105469 C 13.417969 6.167969 13.558594 6.117188 13.71875 6.078125 C 13.902344 6.035156 13.996094 6.125 14.152344 6.199219 C 14.3125 6.269531 14.480469 6.214844 14.632812 6.269531 C 14.792969 6.324219 14.894531 6.46875 15.066406 6.503906 C 15.234375 6.535156 15.371094 6.519531 15.507812 6.640625 C 15.765625 6.882812 15.894531 7.1875 16.066406 7.480469 C 16.414062 7.59375 16.726562 7.898438 16.996094 8.125 C 17.0625 8.179688 17.136719 8.230469 17.160156 8.316406 C 17.1875 8.410156 17.175781 8.507812 17.210938 8.597656 C 17.289062 8.769531 17.414062 8.878906 17.554688 8.996094 C 17.632812 9.066406 17.945312 9.320312 17.847656 9.417969 C 17.789062 9.425781 17.703125 9.453125 17.675781 9.511719 C 17.636719 9.589844 17.6875 9.644531 17.613281 9.714844 C 17.5625 9.765625 17.5 9.785156 17.46875 9.855469 C 17.4375 9.929688 17.449219 10.003906 17.402344 10.078125 C 17.363281 10.144531 17.289062 10.195312 17.25 10.261719 C 17.207031 10.335938 17.226562 10.390625 17.160156 10.457031 C 17.042969 10.578125 16.933594 10.644531 16.910156 10.828125 C 16.890625 10.96875 16.886719 11.132812 16.8125 11.261719 C 16.796875 11.382812 16.792969 11.515625 16.867188 11.597656 C 16.921875 11.664062 17.164062 11.878906 17.246094 11.851562 C 17.332031 11.824219 17.328125 11.71875 17.445312 11.726562 C 17.535156 11.730469 17.59375 11.769531 17.6875 11.757812 C 17.859375 11.734375 18.042969 11.703125 18.207031 11.640625 C 18.453125 11.550781 18.527344 11.671875 18.667969 11.863281 C 18.582031 11.9375 18.503906 11.996094 18.484375 12.113281 C 18.46875 12.210938 18.414062 12.347656 18.429688 12.453125 C 18.511719 12.453125 18.605469 12.570312 18.625 12.644531 C 18.644531 12.738281 18.566406 12.839844 18.621094 12.9375 C 18.675781 13.035156 18.792969 13.101562 18.859375 13.203125 C 18.917969 13.300781 18.976562 13.382812 19.0625 13.460938 C 19.15625 13.535156 19.246094 13.574219 19.363281 13.605469 C 19.386719 13.679688 19.375 13.773438 19.402344 13.847656 C 19.425781 13.910156 19.484375 13.964844 19.523438 14.019531 C 19.582031 14.09375 19.636719 14.164062 19.679688 14.253906 C 19.691406 14.273438 19.703125 14.316406 19.722656 14.355469 C 19.800781 14.320312 19.882812 14.304688 19.96875 14.335938 C 20.089844 14.386719 20.160156 14.5 20.234375 14.59375 C 20.3125 14.691406 20.40625 14.773438 20.492188 14.863281 C 20.613281 14.820312 20.699219 14.835938 20.832031 14.890625 C 20.972656 14.953125 21.117188 14.992188 21.261719 15.058594 C 21.550781 15.1875 21.894531 15.25 22.203125 15.34375 C 22.59375 15.460938 22.957031 15.664062 23.347656 15.785156 C 23.671875 15.882812 23.996094 15.933594 24.320312 16.023438 C 24.566406 16.089844 24.804688 16.171875 25.007812 16.316406 C 25.324219 16.277344 26.328125 16.304688 26.613281 16.308594 L 21.984375 21.175781 C 21.808594 21.179688 21.640625 21.199219 21.464844 21.203125 C 21.199219 21.210938 20.949219 21.1875 20.691406 21.148438 C 20.445312 21.117188 20.28125 21.15625 20.0625 21.261719 C 19.675781 21.441406 19.007812 21.507812 18.976562 22.03125 C 18.679688 22.085938 18.46875 22.355469 18.15625 22.390625 C 17.921875 22.410156 17.519531 22.285156 17.328125 22.457031 C 17.226562 22.550781 17.21875 22.664062 17.054688 22.632812 C 16.914062 22.601562 16.796875 22.585938 16.65625 22.589844 C 16.519531 22.589844 16.34375 22.636719 16.207031 22.617188 C 16.117188 22.601562 16.015625 22.535156 15.933594 22.492188 C 15.824219 22.429688 15.855469 22.335938 15.785156 22.246094 C 15.71875 22.15625 15.609375 22.113281 15.515625 22.042969 C 15.445312 22.082031 15.371094 22.113281 15.296875 22.144531 C 15.132812 22.214844 14.960938 22.273438 14.796875 22.335938 C 14.636719 22.398438 14.433594 22.421875 14.296875 22.527344 C 14.191406 22.613281 14.140625 22.753906 14.050781 22.851562 C 13.949219 22.96875 13.890625 23.089844 13.808594 23.21875 C 13.726562 23.347656 13.59375 23.363281 13.449219 23.382812 C 13.277344 23.40625 13.167969 23.378906 13.015625 23.292969 C 12.855469 23.203125 12.800781 23.246094 12.65625 23.324219 C 12.414062 23.460938 12.152344 23.222656 12 23.023438 C 11.949219 23.058594 11.902344 23.097656 11.84375 23.121094 C 11.722656 23.167969 11.621094 23.078125 11.503906 23.101562 C 11.417969 23.121094 11.367188 23.226562 11.265625 23.203125 C 11.167969 23.179688 11.097656 23.035156 11.039062 22.972656 C 10.878906 22.804688 10.703125 22.683594 10.511719 22.558594 C 10.144531 22.3125 9.785156 22.0625 9.445312 21.792969 C 9.363281 21.78125 9.28125 21.769531 9.203125 21.757812 C 9.058594 21.742188 8.902344 21.746094 8.753906 21.746094 C 8.625 21.746094 8.4375 21.789062 8.316406 21.753906 C 8.175781 21.710938 8.226562 21.53125 8.03125 21.550781 C 7.914062 21.5625 7.773438 21.683594 7.660156 21.628906 C 7.648438 21.507812 7.667969 21.386719 7.667969 21.265625 C 7.667969 21.15625 7.660156 21.050781 7.636719 20.941406 C 7.621094 20.890625 7.589844 20.839844 7.601562 20.785156 C 7.617188 20.734375 7.671875 20.710938 7.671875 20.652344 C 7.671875 20.585938 7.601562 20.433594 7.570312 20.371094 C 7.523438 20.335938 7.480469 20.273438 7.433594 20.214844 Z M 7.433594 20.214844 " fill-opacity="1" fill-rule="nonzero"/></g></svg>