<svg xmlns="http://www.w3.org/2000/svg" xmlns:xlink="http://www.w3.org/1999/xlink" width="40" zoomAndPan="magnify" viewBox="0 0 30 30.000001" height="40" preserveAspectRatio="xMidYMid meet" version="1.0"><defs><clipPath id="c40c1bf79f"><path d="M 8.875 24 L 11 24 L 11 26 L 8.875 26 Z M 8.875 24 " clip-rule="nonzero"/></clipPath><clipPath id="3f8d3c0a49"><path d="M 9.53125 2.910156 L 21.121094 2.910156 L 21.121094 26.125 L 9.53125 26.125 Z M 9.53125 2.910156 " clip-rule="nonzero"/></clipPath></defs><g clip-path="url(#c40c1bf79f)"><path fill="#014d4e" d="M 10.144531 25.578125 C 10.160156 25.679688 9.894531 25.808594 9.832031 25.867188 C 9.765625 25.925781 9.6875 25.636719 9.675781 25.621094 C 9.667969 25.605469 8.925781 25.363281 8.902344 25.339844 C 8.875 25.320312 8.902344 25.164062 8.902344 25.132812 C 8.902344 25.101562 9.234375 24.679688 9.234375 24.679688 C 9.234375 24.679688 9.523438 24.703125 9.574219 24.753906 C 9.628906 24.808594 10.09375 25.210938 10.09375 25.210938 C 10.09375 25.210938 10.128906 25.480469 10.144531 25.578125 " fill-opacity="1" fill-rule="nonzero"/></g><g clip-path="url(#3f8d3c0a49)"><path fill="#014d4e" d="M 21.09375 18.761719 L 20.410156 20.015625 L 19.773438 21.25 L 18.859375 22.460938 C 18.859375 22.460938 18.027344 23.570312 18.007812 23.804688 L 17.367188 24.003906 L 16.304688 24.503906 L 15.730469 24.730469 L 14.996094 24.984375 L 14.6875 25.503906 C 14.6875 25.503906 13.984375 25.570312 13.710938 25.589844 C 13.433594 25.613281 13.027344 26.152344 13.027344 26.121094 C 13.027344 26.089844 12.476562 25.71875 12.453125 25.664062 C 12.433594 25.613281 12.027344 25.410156 12.050781 25.355469 C 12.070312 25.304688 11.828125 24.941406 11.828125 24.941406 C 11.828125 24.941406 11.304688 24.664062 11.25 24.664062 C 11.199219 24.664062 10.835938 24.386719 10.816406 24.292969 C 10.792969 24.195312 10.941406 23.960938 10.941406 23.960938 L 10.828125 23.386719 C 10.828125 23.386719 11.007812 22.8125 11.101562 22.707031 C 11.199219 22.601562 11.132812 22.046875 11.132812 22.046875 L 10.828125 21.285156 C 10.828125 21.285156 10.558594 20.460938 10.558594 20.335938 C 10.558594 20.207031 10.488281 20.050781 10.476562 19.738281 C 10.460938 19.425781 10.402344 19.339844 10.417969 19.171875 C 10.433594 19 10.671875 18.703125 10.746094 18.632812 C 10.816406 18.5625 11.226562 18.320312 11.339844 18.117188 C 11.453125 17.917969 11.722656 17.382812 11.722656 17.382812 L 12.21875 16.929688 C 12.21875 16.929688 12.671875 16.421875 12.773438 16.277344 C 12.871094 16.136719 13.226562 15.269531 13.3125 15.144531 C 13.398438 15.015625 13.539062 14.519531 13.539062 14.519531 C 13.539062 14.519531 13.339844 14.476562 13.3125 14.433594 C 13.285156 14.390625 13.46875 14.179688 13.46875 14.179688 L 13.894531 14.207031 L 13.765625 14.492188 L 14.207031 14.347656 L 14.132812 13.597656 L 13.984375 13.058594 L 13.597656 12.945312 L 13.242188 12.660156 L 12.859375 12.414062 L 12.644531 11.832031 L 12.425781 11.269531 L 12.597656 10.5625 L 12.441406 10.058594 L 12.105469 9.519531 L 12.226562 9.433594 L 12.261719 9.101562 L 11.980469 9.035156 L 11.980469 7.953125 L 11.546875 7.304688 L 10.851562 6.9375 L 9.792969 6.070312 L 9.550781 5.496094 L 9.808594 5.058594 L 10.320312 5.058594 L 10.730469 5.78125 L 11.015625 6.277344 L 11.738281 6.304688 L 12.019531 6.007812 C 12.019531 6.007812 12.714844 6.25 12.773438 6.277344 C 12.828125 6.304688 13.15625 6.546875 13.171875 6.503906 C 13.183594 6.460938 13.597656 5.609375 13.597656 5.609375 C 13.597656 5.609375 13.496094 5.015625 13.511719 4.84375 C 13.523438 4.675781 13.496094 3.824219 13.496094 3.824219 L 13.984375 3.304688 C 13.945312 3.296875 14.441406 3.339844 14.441406 3.339844 L 14.539062 3.101562 L 15 2.910156 L 15.53125 3.375 L 16.191406 3.808594 C 16.191406 3.808594 16.277344 4.304688 16.25 4.363281 C 16.21875 4.417969 16.121094 4.816406 16.121094 4.929688 C 16.121094 4.964844 16.097656 5.023438 16.066406 5.085938 C 15.992188 5.230469 15.878906 5.398438 15.878906 5.398438 L 16.132812 5.484375 L 16.019531 6.191406 L 16.164062 6.730469 L 16.773438 7 L 17.042969 7.296875 L 17.582031 7.796875 L 17.566406 8.347656 L 17.042969 9.683594 C 17.042969 9.683594 17.328125 9.894531 17.511719 10.261719 C 17.695312 10.632812 17.851562 10.730469 17.851562 10.730469 L 18.394531 11.667969 L 18.511719 12.078125 L 18.390625 12.148438 C 18.390625 12.148438 18.285156 12.5625 18.285156 12.808594 C 18.285156 13.058594 18.382812 12.988281 18.417969 13.03125 C 18.453125 13.070312 18.539062 13.226562 18.574219 13.390625 C 18.609375 13.554688 18.453125 13.492188 18.453125 13.492188 C 18.453125 13.492188 18.480469 14.03125 18.511719 14.058594 C 18.539062 14.085938 18.945312 14.3125 18.945312 14.3125 L 19.09375 14.695312 C 19.09375 14.695312 19.539062 15.207031 19.5625 15.3125 C 19.589844 15.417969 19.5625 15.886719 19.5625 15.886719 L 19.347656 16.503906 C 19.347656 16.503906 20.027344 17.015625 20.136719 17.078125 C 20.242188 17.144531 21.027344 17.929688 21.09375 17.992188 C 21.15625 18.058594 21.09375 18.761719 21.09375 18.761719 " fill-opacity="1" fill-rule="nonzero"/></g></svg>