<svg xmlns="http://www.w3.org/2000/svg" xmlns:xlink="http://www.w3.org/1999/xlink" width="40" zoomAndPan="magnify" viewBox="0 0 30 30.000001" height="40" preserveAspectRatio="xMidYMid meet" version="1.0"><defs><clipPath id="967b6c8629"><path d="M 13 2.902344 L 24 2.902344 L 24 10 L 13 10 Z M 13 2.902344 " clip-rule="nonzero"/></clipPath><clipPath id="f1a820fe7a"><path d="M 22.757812 6.757812 L 25.816406 6.757812 L 25.816406 9.277344 L 22.757812 9.277344 Z M 22.757812 6.757812 " clip-rule="nonzero"/></clipPath><clipPath id="078c5e7d59"><path d="M 24 22 L 25.816406 22 L 25.816406 23 L 24 23 Z M 24 22 " clip-rule="nonzero"/></clipPath><clipPath id="525b32c19b"><path d="M 16 25 L 17 25 L 17 26.128906 L 16 26.128906 Z M 16 25 " clip-rule="nonzero"/></clipPath><clipPath id="60f269147d"><path d="M 12 25 L 14 25 L 14 26.128906 L 12 26.128906 Z M 12 25 " clip-rule="nonzero"/></clipPath><clipPath id="5b33748872"><path d="M 4.039062 11 L 6 11 L 6 13 L 4.039062 13 Z M 4.039062 11 " clip-rule="nonzero"/></clipPath><clipPath id="147dce8d2b"><path d="M 4.039062 24 L 5 24 L 5 26 L 4.039062 26 Z M 4.039062 24 " clip-rule="nonzero"/></clipPath><clipPath id="1f7b6174a1"><path d="M 24 22 L 25.816406 22 L 25.816406 23 L 24 23 Z M 24 22 " clip-rule="nonzero"/></clipPath><clipPath id="35f5858491"><path d="M 10.804688 25.753906 L 11.097656 25.753906 L 11.097656 26.125 L 10.804688 26.125 Z M 10.804688 25.753906 " clip-rule="nonzero"/></clipPath><clipPath id="4586a9a07e"><path d="M 15 25 L 16 25 L 16 26.128906 L 15 26.128906 Z M 15 25 " clip-rule="nonzero"/></clipPath><clipPath id="67322dbf60"><path d="M 14 25 L 15 25 L 15 26.128906 L 14 26.128906 Z M 14 25 " clip-rule="nonzero"/></clipPath></defs><g clip-path="url(#967b6c8629)"><path fill="#014d4e" d="M 22.804688 7.5625 C 22.855469 7.539062 22.929688 7.515625 22.96875 7.535156 C 23.085938 7.601562 23.183594 7.550781 23.199219 7.457031 C 23.21875 7.363281 23.183594 7.238281 23.128906 7.160156 C 23.070312 7.085938 22.96875 7.042969 22.871094 6.980469 C 22.859375 6.972656 22.859375 6.957031 22.867188 6.949219 C 22.941406 6.898438 23.003906 6.855469 23.0625 6.808594 C 23.199219 6.707031 23.222656 6.570312 23.117188 6.445312 C 23.015625 6.320312 22.882812 6.351562 22.765625 6.449219 C 22.726562 6.480469 22.6875 6.515625 22.652344 6.550781 C 22.640625 6.5625 22.617188 6.546875 22.625 6.527344 C 22.765625 6.234375 22.914062 5.941406 23.035156 5.636719 C 23.066406 5.566406 23.007812 5.457031 22.984375 5.363281 C 22.980469 5.355469 22.972656 5.351562 22.964844 5.351562 C 22.863281 5.378906 22.753906 5.390625 22.660156 5.433594 C 22.550781 5.488281 22.460938 5.585938 22.347656 5.636719 C 21.9375 5.835938 21.660156 6.160156 21.445312 6.554688 C 21.339844 6.753906 21.246094 6.992188 21.078125 7.109375 C 20.84375 7.273438 20.542969 7.34375 20.265625 7.453125 C 20.253906 7.457031 20.242188 7.453125 20.242188 7.441406 C 20.1875 7.085938 20.28125 6.894531 20.554688 6.71875 C 20.605469 6.6875 20.636719 6.613281 20.664062 6.554688 C 20.738281 6.394531 20.769531 6.191406 20.886719 6.082031 C 21.105469 5.890625 21.375 5.753906 21.621094 5.589844 C 21.675781 5.554688 21.734375 5.507812 21.765625 5.453125 C 21.976562 5.058594 22.175781 4.664062 22.382812 4.265625 C 22.414062 4.203125 22.433594 4.113281 22.488281 4.074219 C 22.839844 3.828125 23.191406 3.585938 23.554688 3.359375 C 23.71875 3.253906 23.902344 3.183594 23.882812 2.921875 C 23.878906 2.914062 23.871094 2.90625 23.863281 2.90625 C 23.25 2.957031 22.757812 3.261719 22.257812 3.527344 C 22.253906 3.527344 22.253906 3.53125 22.25 3.53125 C 22.15625 3.53125 22.066406 3.550781 21.972656 3.5625 C 21.902344 3.570312 21.828125 3.585938 21.757812 3.578125 C 21.640625 3.5625 21.519531 3.496094 21.410156 3.515625 C 21.238281 3.546875 21.109375 3.53125 20.980469 3.398438 C 20.9375 3.351562 20.820312 3.320312 20.769531 3.347656 C 20.71875 3.375 20.664062 3.492188 20.679688 3.546875 C 20.707031 3.621094 20.78125 3.683594 20.832031 3.730469 C 20.839844 3.738281 20.835938 3.753906 20.828125 3.757812 C 20.789062 3.785156 20.714844 3.851562 20.628906 3.734375 C 20.609375 3.710938 20.472656 3.746094 20.417969 3.789062 C 20.316406 3.867188 20.242188 4.035156 20.144531 4.046875 C 19.875 4.078125 19.695312 4.179688 19.574219 4.421875 C 19.535156 4.5 19.457031 4.558594 19.398438 4.613281 C 19.386719 4.625 19.375 4.621094 19.367188 4.609375 C 19.300781 4.441406 19.113281 4.546875 18.96875 4.535156 C 18.917969 4.53125 18.863281 4.59375 18.808594 4.632812 C 18.800781 4.640625 18.800781 4.652344 18.804688 4.660156 C 18.871094 4.746094 18.9375 4.832031 19.007812 4.925781 C 19.015625 4.929688 19.011719 4.941406 19.007812 4.945312 C 18.796875 5.1875 18.785156 5.191406 18.40625 5.144531 C 18.398438 5.140625 18.390625 5.132812 18.390625 5.125 C 18.386719 5.046875 18.402344 4.945312 18.363281 4.914062 C 18.3125 4.871094 18.199219 4.867188 18.132812 4.898438 C 18.09375 4.914062 18.105469 5.03125 18.085938 5.101562 C 18.082031 5.121094 18.070312 5.140625 18.0625 5.15625 C 18.058594 5.167969 18.042969 5.171875 18.035156 5.160156 C 17.964844 5.082031 17.914062 4.996094 17.835938 4.964844 C 17.785156 4.941406 17.703125 4.992188 17.605469 5.023438 C 17.59375 5.027344 17.589844 5.042969 17.597656 5.050781 C 17.679688 5.15625 17.742188 5.230469 17.804688 5.3125 C 17.8125 5.320312 17.808594 5.335938 17.796875 5.339844 C 17.703125 5.363281 17.605469 5.386719 17.507812 5.410156 C 17.492188 5.414062 17.476562 5.394531 17.488281 5.382812 C 17.488281 5.382812 17.488281 5.378906 17.488281 5.378906 C 17.492188 5.375 17.492188 5.363281 17.488281 5.359375 C 17.4375 5.300781 17.375 5.203125 17.347656 5.210938 C 17.265625 5.238281 17.136719 5.324219 17.140625 5.371094 C 17.167969 5.625 17.023438 5.648438 16.835938 5.648438 C 16.625 5.652344 16.402344 5.558594 16.226562 5.796875 C 16.148438 5.898438 16.074219 5.957031 16.160156 6.0625 C 16.164062 6.070312 16.164062 6.085938 16.152344 6.089844 C 15.726562 6.308594 15.722656 6.316406 15.578125 6.597656 C 15.574219 6.605469 15.570312 6.605469 15.5625 6.609375 C 15.207031 6.671875 15.023438 6.945312 14.796875 7.132812 C 14.792969 7.136719 14.789062 7.136719 14.785156 7.136719 C 14.625 7.117188 14.460938 7.097656 14.300781 7.074219 C 14.273438 7.070312 14.242188 7.050781 14.226562 7.03125 C 14.117188 6.875 13.972656 6.933594 13.859375 7 C 13.792969 7.039062 13.714844 7.164062 13.734375 7.21875 C 13.761719 7.300781 13.851562 7.359375 13.90625 7.402344 C 13.914062 7.410156 13.914062 7.425781 13.90625 7.429688 C 13.789062 7.527344 13.648438 7.636719 13.515625 7.757812 C 13.390625 7.875 13.433594 8.1875 13.585938 8.347656 C 13.730469 8.5 13.878906 8.421875 14.023438 8.320312 C 14.0625 8.292969 14.125 8.257812 14.164062 8.273438 C 14.238281 8.300781 14.304688 8.355469 14.371094 8.398438 C 14.378906 8.40625 14.382812 8.417969 14.375 8.425781 C 14.332031 8.472656 14.292969 8.519531 14.25 8.5625 C 14.210938 8.605469 14.125 8.667969 14.132812 8.683594 C 14.164062 8.75 14.222656 8.84375 14.277344 8.847656 C 14.597656 8.871094 14.757812 9.058594 14.839844 9.34375 C 14.855469 9.394531 14.875 9.441406 14.902344 9.484375 C 15.015625 9.65625 15.277344 9.757812 15.445312 9.65625 C 15.5625 9.585938 15.683594 9.453125 15.710938 9.328125 C 15.726562 9.257812 15.710938 9.167969 15.753906 9.085938 C 15.769531 9.054688 15.765625 9.011719 15.761719 8.996094 C 15.761719 8.988281 15.761719 8.980469 15.765625 8.976562 C 15.875 8.875 15.949219 8.792969 16.035156 8.730469 C 16.105469 8.679688 16.203125 8.613281 16.269531 8.628906 C 16.46875 8.683594 16.730469 8.71875 16.84375 8.863281 C 17.0625 9.136719 17.167969 8.992188 17.308594 8.824219 C 17.316406 8.8125 17.335938 8.808594 17.347656 8.800781 C 17.414062 8.753906 17.480469 8.703125 17.542969 8.65625 C 17.554688 8.648438 17.554688 8.632812 17.542969 8.628906 C 17.472656 8.578125 17.40625 8.523438 17.332031 8.476562 C 17.316406 8.464844 17.292969 8.457031 17.273438 8.453125 C 17.265625 8.449219 17.261719 8.4375 17.261719 8.429688 C 17.320312 8.203125 17.4375 8.0625 17.683594 8.058594 C 17.714844 8.058594 17.753906 8.035156 17.773438 8.007812 C 17.898438 7.84375 18.019531 7.679688 18.136719 7.511719 C 18.25 7.355469 18.566406 7.253906 18.742188 7.324219 C 18.882812 7.382812 19.019531 7.441406 19.203125 7.519531 C 19.214844 7.527344 19.21875 7.542969 19.207031 7.550781 C 19.125 7.597656 19.0625 7.625 19.019531 7.667969 C 18.9375 7.746094 18.847656 7.832031 18.796875 7.929688 C 18.746094 8.035156 18.871094 8.175781 18.976562 8.144531 C 19.144531 8.09375 19.3125 8.03125 19.484375 7.984375 C 19.554688 7.964844 19.65625 7.945312 19.703125 7.980469 C 19.867188 8.105469 20.019531 8.007812 20.171875 7.972656 C 20.324219 7.933594 20.46875 7.851562 20.628906 7.964844 C 20.65625 7.984375 20.738281 7.945312 20.785156 7.917969 C 21.085938 7.746094 21.375 7.566406 21.675781 7.402344 C 21.863281 7.296875 22.320312 7.347656 22.445312 7.503906 C 22.566406 7.660156 22.667969 7.628906 22.804688 7.5625 " fill-opacity="1" fill-rule="nonzero"/></g><path fill="#014d4e" d="M 14.882812 16.25 C 14.839844 16.195312 14.816406 16.121094 14.792969 16.054688 C 14.769531 15.980469 14.761719 15.90625 14.742188 15.804688 C 14.777344 15.734375 14.914062 15.59375 14.894531 15.484375 C 14.859375 15.28125 14.773438 15.054688 14.632812 14.90625 C 14.484375 14.742188 14.453125 14.625 14.539062 14.425781 C 14.6875 14.082031 14.636719 14.011719 14.304688 13.847656 C 14.164062 13.777344 14.050781 13.644531 13.921875 13.550781 C 13.839844 13.492188 13.753906 13.425781 13.664062 13.410156 C 13.308594 13.355469 13.019531 13.222656 12.878906 12.859375 C 12.785156 12.621094 12.570312 12.5625 12.339844 12.695312 C 12.285156 12.730469 12.226562 12.753906 12.167969 12.78125 C 12.152344 12.757812 12.140625 12.734375 12.125 12.714844 C 12.191406 12.65625 12.261719 12.605469 12.320312 12.539062 C 12.359375 12.496094 12.421875 12.402344 12.40625 12.382812 C 12.28125 12.214844 12.15625 12.042969 11.996094 11.910156 C 11.957031 11.875 11.800781 11.976562 11.699219 12.015625 C 11.675781 11.917969 11.757812 11.757812 11.582031 11.757812 C 11.507812 11.757812 11.429688 11.855469 11.351562 11.910156 C 11.4375 11.957031 11.523438 12.007812 11.609375 12.054688 C 11.519531 12.09375 11.429688 12.128906 11.339844 12.175781 C 11.257812 12.21875 11.183594 12.210938 11.089844 12.210938 C 10.910156 12.207031 10.667969 12.238281 10.566406 12.355469 C 10.335938 12.617188 10.125 12.71875 9.804688 12.601562 C 9.71875 12.570312 9.609375 12.597656 9.507812 12.597656 C 9.480469 12.335938 9.425781 12.304688 9.210938 12.472656 C 9.058594 12.589844 8.933594 12.734375 8.804688 12.859375 C 8.691406 12.875 8.558594 12.894531 8.421875 12.914062 C 8.351562 12.925781 8.28125 12.953125 8.210938 12.953125 C 8.078125 12.953125 8.027344 12.988281 7.964844 13.128906 C 7.890625 13.289062 7.6875 13.394531 7.542969 13.523438 C 7.351562 13.367188 7.363281 13.574219 7.324219 13.65625 C 7.292969 13.722656 7.304688 13.808594 7.300781 13.832031 C 7.203125 13.886719 7.097656 13.914062 7.097656 13.945312 C 7.085938 14.203125 6.886719 14.304688 6.710938 14.421875 C 6.558594 14.523438 6.488281 14.757812 6.621094 14.8125 C 6.847656 14.90625 6.867188 15.09375 6.933594 15.273438 C 6.558594 15.304688 6.5625 15.304688 6.5 15.691406 C 6.472656 15.867188 6.332031 15.957031 6.167969 15.957031 C 5.992188 15.953125 5.890625 16.050781 5.855469 16.1875 C 5.804688 16.398438 5.90625 16.632812 5.789062 16.84375 C 5.785156 16.855469 5.804688 16.882812 5.816406 16.902344 C 5.890625 17.007812 5.96875 17.117188 6.046875 17.222656 C 6.109375 17.316406 6.207031 17.398438 6.226562 17.5 C 6.28125 17.777344 6.464844 17.945312 6.746094 17.976562 C 6.875 17.988281 7 18.074219 7.128906 18.125 C 7.191406 18.148438 7.25 18.183594 7.3125 18.191406 C 7.757812 18.242188 8.210938 18.265625 8.652344 18.335938 C 9.011719 18.390625 9.363281 18.496094 9.710938 18.597656 C 9.992188 18.675781 10.261719 18.792969 10.554688 18.65625 C 10.605469 18.632812 10.671875 18.648438 10.730469 18.640625 C 10.871094 18.628906 11.015625 18.617188 11.15625 18.601562 C 11.308594 18.585938 11.46875 18.542969 11.617188 18.558594 C 11.8125 18.578125 11.972656 18.589844 12.078125 18.382812 C 12.128906 18.292969 12.210938 18.203125 12.300781 18.148438 C 12.585938 17.984375 12.921875 17.886719 13.003906 17.601562 C 13.230469 17.539062 13.402344 17.492188 13.550781 17.453125 C 13.589844 17.542969 13.617188 17.691406 13.667969 17.703125 C 13.886719 17.738281 14.019531 17.59375 14.101562 17.390625 C 14.113281 17.445312 14.097656 17.488281 14.105469 17.527344 C 14.117188 17.578125 14.132812 17.632812 14.167969 17.667969 C 14.1875 17.691406 14.269531 17.699219 14.28125 17.683594 C 14.367188 17.570312 14.476562 17.597656 14.59375 17.605469 C 14.652344 17.609375 14.722656 17.554688 14.773438 17.507812 C 14.894531 17.398438 15 17.265625 15.125 17.160156 C 15.308594 17.003906 15.34375 16.785156 15.195312 16.609375 C 15.09375 16.488281 14.980469 16.375 14.882812 16.25 " fill-opacity="1" fill-rule="nonzero"/><path fill="#014d4e" d="M 14.316406 23.144531 C 14.316406 23.144531 14.3125 23.144531 14.3125 23.144531 L 14.308594 23.136719 C 14.613281 23.046875 14.726562 22.777344 14.574219 22.554688 C 14.484375 22.417969 14.367188 22.371094 14.261719 22.429688 C 14.152344 22.488281 14.046875 22.609375 14.007812 22.726562 C 13.988281 22.789062 14.101562 22.902344 14.164062 22.988281 C 14.207031 23.042969 14.257812 23.089844 14.308594 23.136719 C 14.308594 23.140625 14.3125 23.140625 14.3125 23.140625 C 14.3125 23.144531 14.3125 23.144531 14.316406 23.144531 " fill-opacity="1" fill-rule="nonzero"/><path fill="#014d4e" d="M 14.316406 23.152344 C 14.3125 23.144531 14.308594 23.140625 14.304688 23.136719 C 14.128906 23.054688 13.921875 23.144531 13.75 23.019531 C 13.527344 22.859375 13.308594 22.886719 13.089844 23.058594 C 12.984375 23.140625 12.835938 23.171875 12.707031 23.214844 C 12.578125 23.257812 12.40625 23.25 12.320312 23.332031 C 12.210938 23.433594 12.167969 23.605469 12.097656 23.75 C 12.097656 23.75 12.097656 23.753906 12.09375 23.753906 C 12.078125 23.804688 11.988281 23.828125 11.972656 23.875 C 11.90625 24.039062 11.78125 24.035156 11.644531 24.035156 C 11.566406 24.03125 11.480469 24.042969 11.414062 24.078125 C 11.269531 24.164062 11.136719 24.273438 10.992188 24.359375 C 10.816406 24.460938 10.785156 24.609375 10.949219 24.71875 C 11.0625 24.796875 11.203125 24.859375 11.332031 24.863281 C 11.554688 24.875 11.78125 24.839844 12.007812 24.824219 C 12.027344 24.824219 12.042969 24.808594 12.046875 24.789062 C 12.050781 24.777344 12.050781 24.761719 12.054688 24.75 C 12.058594 24.722656 12.089844 24.707031 12.117188 24.71875 C 12.195312 24.753906 12.273438 24.800781 12.339844 24.789062 C 12.609375 24.742188 12.675781 24.511719 12.480469 24.304688 C 12.386719 24.203125 12.417969 24.128906 12.507812 24.070312 C 12.675781 23.957031 12.851562 23.855469 13.046875 23.734375 C 13.070312 23.722656 13.097656 23.730469 13.109375 23.753906 C 13.125 23.796875 13.144531 23.839844 13.140625 23.878906 C 13.128906 24.050781 13.199219 24.09375 13.355469 24.050781 C 13.421875 24.03125 13.5 24.023438 13.570312 24.023438 C 13.820312 24.023438 13.964844 23.738281 14.230469 23.792969 C 14.25 23.796875 14.277344 23.757812 14.292969 23.734375 C 14.511719 23.457031 14.515625 23.417969 14.316406 23.152344 " fill-opacity="1" fill-rule="nonzero"/><g clip-path="url(#f1a820fe7a)"><path fill="#014d4e" d="M 25.722656 6.980469 C 25.5 7.015625 25.273438 7.042969 25.050781 7.089844 C 25.003906 7.097656 24.960938 7.167969 24.933594 7.21875 C 24.914062 7.257812 24.914062 7.3125 24.90625 7.359375 C 24.847656 7.332031 24.777344 7.316406 24.742188 7.269531 C 24.695312 7.207031 24.6875 7.121094 24.652344 7.050781 C 24.601562 6.949219 24.558594 6.800781 24.472656 6.765625 C 24.402344 6.734375 24.269531 6.824219 24.171875 6.878906 C 24.117188 6.910156 24.082031 6.976562 24.039062 7.027344 C 23.914062 7.160156 23.8125 7.335938 23.664062 7.414062 C 23.390625 7.5625 23.289062 7.78125 23.21875 8.054688 C 23.195312 8.15625 23.113281 8.253906 23.035156 8.320312 C 22.773438 8.542969 22.671875 8.773438 22.863281 9.101562 C 22.960938 9.273438 23.039062 9.332031 23.199219 9.214844 C 23.457031 9.027344 23.761719 8.925781 23.972656 8.652344 C 24.179688 8.390625 24.492188 8.21875 24.617188 7.875 C 24.664062 7.75 24.765625 7.648438 24.84375 7.53125 C 25.011719 7.746094 25.214844 7.765625 25.410156 7.601562 C 25.453125 7.566406 25.515625 7.519531 25.5625 7.527344 C 25.835938 7.574219 25.902344 7.40625 25.945312 7.191406 C 25.976562 7.035156 25.890625 6.953125 25.722656 6.980469 " fill-opacity="1" fill-rule="nonzero"/></g><path fill="#014d4e" d="M 6.011719 10.425781 C 6.050781 10.417969 6.070312 10.324219 6.089844 10.265625 C 6.113281 10.195312 6.132812 10.125 6.144531 10.074219 C 6.152344 10.054688 6.171875 10.042969 6.191406 10.042969 C 6.289062 10.058594 6.367188 10.066406 6.449219 10.078125 C 6.472656 10.082031 6.496094 10.0625 6.496094 10.035156 C 6.484375 9.839844 6.460938 9.667969 6.664062 9.589844 C 6.859375 9.515625 6.957031 9.414062 6.84375 9.222656 C 6.824219 9.195312 6.851562 9.15625 6.886719 9.164062 C 7.1875 9.21875 7.035156 8.933594 7.125 8.835938 C 7.21875 8.746094 7.308594 8.652344 7.421875 8.539062 C 7.421875 8.539062 7.421875 8.539062 7.425781 8.539062 C 7.488281 8.484375 7.585938 8.421875 7.652344 8.332031 C 7.710938 8.257812 7.75 8.15625 7.769531 8.0625 C 7.785156 7.980469 7.777344 7.886719 7.746094 7.8125 C 7.730469 7.769531 7.644531 7.722656 7.59375 7.730469 C 7.542969 7.738281 7.464844 7.796875 7.453125 7.847656 C 7.390625 8.101562 7.238281 8.273438 7.042969 8.441406 C 6.925781 8.542969 6.875 8.722656 6.679688 8.726562 C 6.667969 8.726562 6.652344 8.746094 6.652344 8.761719 C 6.597656 9.082031 6.144531 9.242188 6.289062 9.644531 C 6.289062 9.644531 6.289062 9.644531 6.285156 9.648438 C 6.273438 9.660156 6.253906 9.664062 6.238281 9.652344 C 6.183594 9.625 6.128906 9.59375 6.050781 9.550781 C 6.03125 9.539062 6.003906 9.546875 5.992188 9.570312 C 5.949219 9.667969 5.898438 9.757812 5.882812 9.851562 C 5.863281 9.960938 5.925781 10.078125 5.800781 10.167969 C 5.765625 10.191406 5.777344 10.328125 5.8125 10.375 C 5.847656 10.417969 5.949219 10.4375 6.011719 10.425781 " fill-opacity="1" fill-rule="nonzero"/><path fill="#014d4e" d="M 15.867188 14.957031 C 15.824219 14.777344 15.890625 14.695312 16.046875 14.652344 C 16.21875 14.609375 16.3125 14.484375 16.308594 14.320312 C 16.304688 14.164062 16.277344 14 16.21875 13.851562 C 16.117188 13.589844 15.984375 13.539062 15.738281 13.625 C 15.539062 13.695312 15.390625 13.953125 15.441406 14.148438 C 15.476562 14.273438 15.515625 14.398438 15.554688 14.542969 C 15.367188 14.597656 15.25 14.792969 15.304688 14.957031 C 15.363281 15.132812 15.585938 15.253906 15.75 15.171875 C 15.8125 15.144531 15.882812 15.019531 15.867188 14.957031 " fill-opacity="1" fill-rule="nonzero"/><path fill="#014d4e" d="M 19.398438 15.707031 C 19.375 15.695312 19.34375 15.695312 19.3125 15.691406 C 18.96875 15.652344 18.585938 16.171875 18.722656 16.496094 C 18.796875 16.671875 18.933594 16.675781 19.121094 16.445312 C 19.1875 16.632812 19.214844 16.78125 19.289062 16.90625 C 19.355469 17.019531 19.464844 17.167969 19.574219 17.1875 C 19.652344 17.199219 19.800781 17.046875 19.851562 16.933594 C 19.972656 16.675781 19.640625 15.828125 19.398438 15.707031 " fill-opacity="1" fill-rule="nonzero"/><path fill="#014d4e" d="M 20.035156 10.980469 C 19.996094 10.910156 19.925781 10.824219 19.867188 10.816406 C 19.785156 10.804688 19.660156 10.847656 19.621094 10.90625 C 19.546875 11.027344 19.484375 11.175781 19.480469 11.316406 C 19.472656 11.542969 19.488281 11.769531 19.503906 12.023438 C 19.507812 12.121094 19.617188 12.175781 19.699219 12.125 C 19.730469 12.105469 19.753906 12.085938 19.773438 12.066406 C 20.085938 11.757812 20.289062 11.421875 20.035156 10.980469 " fill-opacity="1" fill-rule="nonzero"/><path fill="#014d4e" d="M 15.011719 6.617188 C 15.085938 6.613281 15.164062 6.59375 15.234375 6.5625 C 15.28125 6.539062 15.316406 6.453125 15.355469 6.453125 C 15.644531 6.464844 15.667969 6.183594 15.816406 6.039062 C 15.886719 5.96875 15.921875 5.855469 16 5.710938 C 15.917969 5.671875 15.824219 5.59375 15.792969 5.613281 C 15.679688 5.691406 15.542969 5.777344 15.496094 5.894531 C 15.453125 6.003906 15.398438 6.054688 15.304688 6.097656 C 15.265625 6.113281 15.238281 6.164062 15.203125 6.199219 C 15.160156 6.238281 15.117188 6.28125 15.074219 6.324219 C 15.027344 6.378906 14.96875 6.4375 14.941406 6.503906 C 14.929688 6.527344 14.984375 6.617188 15.011719 6.617188 " fill-opacity="1" fill-rule="nonzero"/><path fill="#014d4e" d="M 23.597656 19.734375 C 23.375 19.796875 23.160156 19.882812 22.953125 19.988281 C 22.90625 20.011719 22.871094 20.171875 22.898438 20.207031 C 23.03125 20.355469 23.175781 20.488281 23.332031 20.628906 C 23.382812 20.675781 23.464844 20.667969 23.503906 20.609375 C 23.585938 20.488281 23.660156 20.367188 23.625 20.214844 C 23.609375 20.164062 23.640625 20.105469 23.691406 20.085938 C 23.816406 20.039062 23.890625 19.945312 23.835938 19.832031 C 23.804688 19.769531 23.667969 19.714844 23.597656 19.734375 " fill-opacity="1" fill-rule="nonzero"/><path fill="#014d4e" d="M 5.878906 10.925781 C 5.9375 10.84375 5.976562 10.738281 5.980469 10.644531 C 5.980469 10.613281 5.835938 10.539062 5.769531 10.550781 C 5.644531 10.566406 5.519531 10.617188 5.402344 10.660156 C 5.378906 10.667969 5.355469 10.6875 5.339844 10.710938 C 5.273438 10.808594 5.207031 10.910156 5.136719 11.023438 C 5.089844 11.09375 5.121094 11.183594 5.195312 11.210938 C 5.21875 11.21875 5.238281 11.226562 5.257812 11.234375 C 5.257812 11.234375 5.253906 11.238281 5.253906 11.242188 L 5.25 11.242188 C 5.25 11.242188 5.253906 11.242188 5.253906 11.242188 C 5.328125 11.226562 5.402344 11.21875 5.472656 11.199219 C 5.539062 11.179688 5.605469 11.148438 5.664062 11.109375 C 5.742188 11.054688 5.828125 11 5.878906 10.925781 " fill-opacity="1" fill-rule="nonzero"/><path fill="#014d4e" d="M 23.304688 5.605469 C 23.320312 5.613281 23.328125 5.628906 23.320312 5.644531 C 23.246094 5.898438 23.496094 5.898438 23.601562 5.925781 C 23.738281 5.960938 23.917969 5.902344 24.054688 5.839844 C 24.101562 5.820312 24.082031 5.65625 24.09375 5.558594 C 24.097656 5.519531 24.105469 5.480469 24.117188 5.441406 C 24.144531 5.34375 24.1875 5.25 24.203125 5.152344 C 24.222656 4.996094 24.121094 4.929688 23.984375 5.007812 C 23.824219 5.097656 23.664062 5.191406 23.519531 5.304688 C 23.429688 5.371094 23.367188 5.46875 23.292969 5.558594 C 23.28125 5.574219 23.285156 5.597656 23.304688 5.605469 " fill-opacity="1" fill-rule="nonzero"/><path fill="#014d4e" d="M 8.824219 20.472656 C 8.796875 20.402344 8.757812 20.335938 8.71875 20.269531 C 8.679688 20.203125 8.597656 20.183594 8.53125 20.21875 C 8.460938 20.257812 8.390625 20.300781 8.347656 20.359375 C 8.230469 20.515625 8.582031 21.105469 8.777344 21.109375 C 8.957031 21.109375 8.992188 21.046875 8.929688 20.871094 C 8.882812 20.742188 8.871094 20.597656 8.824219 20.472656 " fill-opacity="1" fill-rule="nonzero"/><g clip-path="url(#078c5e7d59)"><path fill="#014d4e" d="M 25.398438 22.230469 C 25.296875 22.210938 25.195312 22.191406 25.097656 22.199219 C 25.046875 22.203125 25.003906 22.25 24.960938 22.289062 C 24.945312 22.300781 24.941406 22.320312 24.953125 22.335938 C 24.984375 22.382812 25.015625 22.429688 25.054688 22.46875 C 25.128906 22.539062 25.207031 22.605469 25.285156 22.675781 C 25.296875 22.6875 25.300781 22.703125 25.296875 22.714844 C 25.296875 22.714844 25.292969 22.71875 25.292969 22.71875 C 25.285156 22.738281 25.300781 22.765625 25.324219 22.765625 C 25.496094 22.785156 25.585938 22.664062 25.621094 22.523438 C 25.65625 22.378906 25.550781 22.265625 25.398438 22.230469 " fill-opacity="1" fill-rule="nonzero"/></g><path fill="#014d4e" d="M 20.292969 14.78125 C 20.328125 14.628906 20.277344 14.539062 20.128906 14.503906 C 19.96875 14.464844 19.792969 14.4375 19.695312 14.605469 C 19.601562 14.765625 19.894531 15.28125 20.046875 15.246094 C 20.253906 15.21875 20.332031 15.152344 20.292969 14.988281 C 20.28125 14.921875 20.273438 14.84375 20.292969 14.78125 " fill-opacity="1" fill-rule="nonzero"/><path fill="#014d4e" d="M 11.636719 19.722656 C 11.6875 19.75 11.746094 19.746094 11.792969 19.714844 C 11.925781 19.625 12.054688 19.542969 12.164062 19.441406 C 12.199219 19.410156 12.199219 19.269531 12.164062 19.242188 C 12.054688 19.148438 11.925781 19.039062 11.796875 19.023438 C 11.660156 19.007812 11.574219 19.144531 11.566406 19.296875 C 11.566406 19.328125 11.53125 19.359375 11.519531 19.390625 C 11.5 19.460938 11.449219 19.550781 11.476562 19.59375 C 11.507812 19.644531 11.566406 19.679688 11.636719 19.722656 " fill-opacity="1" fill-rule="nonzero"/><path fill="#014d4e" d="M 14.386719 6.820312 C 14.433594 6.792969 14.476562 6.671875 14.457031 6.621094 C 14.4375 6.5625 14.332031 6.5 14.273438 6.507812 C 14.082031 6.527344 13.902344 6.585938 13.792969 6.8125 C 14.003906 6.945312 14.199219 6.914062 14.386719 6.820312 " fill-opacity="1" fill-rule="nonzero"/><path fill="#014d4e" d="M 22.730469 23.757812 C 22.449219 23.730469 22.492188 23.9375 22.464844 24.097656 C 22.457031 24.253906 22.515625 24.324219 22.660156 24.335938 C 22.84375 24.347656 22.992188 24.242188 22.996094 24.097656 C 23 23.890625 22.902344 23.777344 22.730469 23.757812 " fill-opacity="1" fill-rule="nonzero"/><path fill="#014d4e" d="M 17.25 13.410156 C 17.199219 13.402344 17.148438 13.417969 17.113281 13.453125 C 17.070312 13.492188 17.023438 13.542969 17.003906 13.597656 C 16.96875 13.695312 17.191406 13.871094 17.3125 13.835938 C 17.367188 13.820312 17.425781 13.71875 17.429688 13.652344 C 17.4375 13.542969 17.40625 13.4375 17.25 13.410156 " fill-opacity="1" fill-rule="nonzero"/><path fill="#014d4e" d="M 5.230469 15.074219 C 5.175781 15.148438 5.066406 15.238281 5.082031 15.300781 C 5.105469 15.390625 5.210938 15.464844 5.28125 15.542969 C 5.351562 15.46875 5.460938 15.402344 5.472656 15.320312 C 5.484375 15.246094 5.386719 15.15625 5.335938 15.074219 C 5.300781 15.074219 5.265625 15.074219 5.230469 15.074219 " fill-opacity="1" fill-rule="nonzero"/><path fill="#014d4e" d="M 12.410156 8.601562 C 12.5625 8.609375 12.609375 8.542969 12.589844 8.402344 C 12.609375 8.261719 12.558594 8.191406 12.410156 8.203125 C 12.292969 8.214844 12.191406 8.226562 12.195312 8.382812 C 12.199219 8.53125 12.261719 8.59375 12.410156 8.601562 " fill-opacity="1" fill-rule="nonzero"/><path fill="#014d4e" d="M 18.226562 14.578125 C 18.207031 14.59375 18.191406 14.609375 18.175781 14.628906 C 18.121094 14.675781 18.117188 14.761719 18.167969 14.8125 C 18.1875 14.832031 18.203125 14.851562 18.222656 14.871094 C 18.273438 14.921875 18.351562 14.925781 18.40625 14.878906 C 18.453125 14.839844 18.492188 14.800781 18.5 14.753906 C 18.523438 14.648438 18.472656 14.570312 18.34375 14.542969 C 18.300781 14.535156 18.257812 14.546875 18.226562 14.578125 " fill-opacity="1" fill-rule="nonzero"/><path fill="#014d4e" d="M 16.972656 12.292969 C 16.824219 12.269531 16.765625 12.371094 16.769531 12.511719 C 16.773438 12.621094 16.761719 12.753906 16.917969 12.714844 C 16.984375 12.699219 17.042969 12.640625 17.121094 12.570312 C 17.164062 12.53125 17.167969 12.464844 17.125 12.421875 C 17.066406 12.351562 17.023438 12.300781 16.972656 12.292969 " fill-opacity="1" fill-rule="nonzero"/><g clip-path="url(#525b32c19b)"><path fill="#014d4e" d="M 16.011719 25.761719 L 16.011719 25.972656 C 16.011719 26.046875 16.082031 26.101562 16.152344 26.085938 C 16.226562 26.066406 16.285156 26.050781 16.304688 26.011719 C 16.347656 25.929688 16.34375 25.78125 16.292969 25.703125 C 16.273438 25.667969 16.210938 25.65625 16.140625 25.644531 C 16.074219 25.636719 16.011719 25.691406 16.011719 25.761719 " fill-opacity="1" fill-rule="nonzero"/></g><g clip-path="url(#60f269147d)"><path fill="#014d4e" d="M 12.910156 25.679688 C 12.863281 25.691406 12.820312 25.730469 12.777344 25.773438 C 12.730469 25.820312 12.726562 25.890625 12.765625 25.941406 C 12.800781 25.988281 12.835938 26.035156 12.882812 26.050781 C 12.914062 26.0625 12.960938 26.023438 13.023438 25.976562 C 13.082031 25.929688 13.089844 25.847656 13.042969 25.789062 C 12.988281 25.726562 12.945312 25.675781 12.910156 25.679688 " fill-opacity="1" fill-rule="nonzero"/></g><path fill="#014d4e" d="M 11.097656 19.351562 C 11.105469 19.304688 10.980469 19.203125 10.914062 19.199219 C 10.851562 19.199219 10.742188 19.292969 10.734375 19.355469 C 10.726562 19.398438 10.765625 19.449219 10.820312 19.515625 C 10.863281 19.566406 10.941406 19.570312 10.988281 19.519531 C 11.046875 19.453125 11.09375 19.40625 11.097656 19.351562 " fill-opacity="1" fill-rule="nonzero"/><g clip-path="url(#5b33748872)"><path fill="#014d4e" d="M 5.09375 12.570312 C 5.050781 12.503906 4.957031 12.46875 4.882812 12.417969 C 5.046875 12.304688 5.09375 12.144531 5.054688 11.964844 C 5.042969 11.917969 4.945312 11.851562 4.902344 11.859375 C 4.820312 11.875 4.710938 11.921875 4.683594 11.988281 C 4.636719 12.101562 4.628906 12.238281 4.632812 12.363281 C 4.632812 12.394531 4.738281 12.425781 4.796875 12.457031 C 4.78125 12.503906 4.75 12.558594 4.757812 12.601562 C 4.773438 12.667969 4.800781 12.75 4.851562 12.785156 C 4.886719 12.8125 4.988281 12.792969 5.023438 12.757812 C 5.070312 12.714844 5.117188 12.605469 5.09375 12.570312 " fill-opacity="1" fill-rule="nonzero"/></g><g clip-path="url(#147dce8d2b)"><path fill="#014d4e" d="M 4.195312 24.800781 C 4.136719 24.808594 4.039062 24.914062 4.050781 24.960938 C 4.085938 25.136719 4.199219 25.113281 4.320312 25.097656 C 4.386719 25.085938 4.433594 25.023438 4.417969 24.957031 C 4.398438 24.847656 4.347656 24.773438 4.195312 24.800781 " fill-opacity="1" fill-rule="nonzero"/></g><g clip-path="url(#1f7b6174a1)"><path fill="#014d4e" d="M 24.921875 22.503906 C 24.890625 22.507812 24.867188 22.53125 24.863281 22.5625 C 24.851562 22.644531 24.835938 22.730469 24.847656 22.808594 C 24.851562 22.84375 24.886719 22.871094 24.925781 22.902344 C 24.953125 22.921875 24.992188 22.921875 25.015625 22.898438 C 25.0625 22.851562 25.117188 22.808594 25.109375 22.773438 C 25.09375 22.6875 25.039062 22.613281 24.992188 22.535156 C 24.976562 22.511719 24.949219 22.5 24.921875 22.503906 " fill-opacity="1" fill-rule="nonzero"/></g><g clip-path="url(#35f5858491)"><path fill="#014d4e" d="M 10.804688 25.824219 L 10.804688 26.054688 C 10.804688 26.109375 10.863281 26.140625 10.910156 26.117188 C 10.960938 26.085938 11.007812 26.058594 11.042969 26.019531 C 11.15625 25.882812 11.058594 25.75 10.871094 25.757812 C 10.835938 25.757812 10.804688 25.789062 10.804688 25.824219 " fill-opacity="1" fill-rule="nonzero"/></g><g clip-path="url(#4586a9a07e)"><path fill="#014d4e" d="M 15.652344 25.90625 L 15.652344 25.933594 C 15.652344 26.058594 15.808594 26.121094 15.890625 26.027344 C 15.890625 26.027344 15.894531 26.027344 15.894531 26.023438 C 15.976562 25.929688 15.945312 25.828125 15.847656 25.78125 C 15.757812 25.738281 15.652344 25.804688 15.652344 25.90625 " fill-opacity="1" fill-rule="nonzero"/></g><g clip-path="url(#67322dbf60)"><path fill="#014d4e" d="M 14.445312 26 C 14.460938 26.035156 14.519531 26.054688 14.585938 26.070312 C 14.644531 26.085938 14.699219 26.042969 14.699219 25.980469 L 14.699219 25.800781 C 14.699219 25.738281 14.632812 25.691406 14.570312 25.71875 C 14.460938 25.769531 14.371094 25.832031 14.445312 26 " fill-opacity="1" fill-rule="nonzero"/></g><path fill="#014d4e" d="M 5.1875 11.453125 C 5.195312 11.511719 5.246094 11.558594 5.304688 11.554688 C 5.347656 11.554688 5.390625 11.550781 5.410156 11.53125 C 5.453125 11.484375 5.464844 11.375 5.441406 11.316406 C 5.425781 11.285156 5.375 11.273438 5.320312 11.261719 C 5.269531 11.25 5.21875 11.269531 5.191406 11.316406 C 5.1875 11.324219 5.1875 11.332031 5.183594 11.34375 C 5.183594 11.378906 5.183594 11.417969 5.1875 11.453125 " fill-opacity="1" fill-rule="nonzero"/></svg>