<svg xmlns="http://www.w3.org/2000/svg" xmlns:xlink="http://www.w3.org/1999/xlink" width="40" zoomAndPan="magnify" viewBox="0 0 30 30.000001" height="40" preserveAspectRatio="xMidYMid meet" version="1.0"><defs><clipPath id="cb3099939d"><path d="M 3.386719 10 L 26.613281 10 L 26.613281 19.40625 L 3.386719 19.40625 Z M 3.386719 10 " clip-rule="nonzero"/></clipPath></defs><g clip-path="url(#cb3099939d)"><path fill="#014d4e" d="M 13.863281 17.292969 C 13.789062 17.238281 13.730469 17.199219 13.691406 17.136719 C 13.652344 17.0625 13.613281 16.988281 13.6875 16.910156 C 13.761719 16.835938 13.84375 16.828125 13.929688 16.867188 C 14.003906 16.902344 14.070312 16.945312 14.144531 16.980469 C 14.175781 16.996094 14.21875 17.023438 14.207031 16.941406 C 14.203125 16.902344 14.222656 16.835938 14.253906 16.816406 C 14.40625 16.714844 14.246094 16.726562 14.214844 16.714844 C 14.167969 16.699219 14.128906 16.6875 14.089844 16.660156 C 14.011719 16.605469 14.007812 16.550781 14.09375 16.507812 C 14.1875 16.457031 14.21875 16.410156 14.199219 16.285156 C 14.179688 16.164062 14.21875 16.046875 14.097656 15.960938 C 14.0625 15.933594 14.074219 15.871094 14.117188 15.835938 C 14.164062 15.804688 14.199219 15.828125 14.226562 15.867188 C 14.257812 15.910156 14.304688 15.929688 14.347656 15.90625 C 14.398438 15.875 14.339844 15.84375 14.332031 15.808594 C 14.316406 15.730469 14.355469 15.671875 14.429688 15.695312 C 14.542969 15.730469 14.613281 15.660156 14.710938 15.636719 C 14.679688 15.597656 14.648438 15.570312 14.628906 15.535156 C 14.59375 15.46875 14.605469 15.40625 14.695312 15.402344 C 14.820312 15.398438 14.765625 15.34375 14.734375 15.296875 C 14.667969 15.199219 14.699219 15.117188 14.808594 15.109375 C 14.890625 15.105469 14.945312 15.121094 15 15.015625 C 15.0625 14.898438 15.207031 14.824219 15.363281 14.820312 C 15.429688 14.820312 15.492188 14.8125 15.503906 14.730469 C 15.503906 14.722656 15.511719 14.710938 15.519531 14.710938 C 15.71875 14.65625 15.835938 14.457031 16.074219 14.449219 C 16.21875 14.445312 16.367188 14.367188 16.527344 14.386719 C 16.542969 14.386719 16.558594 14.375 16.558594 14.355469 C 16.558594 14.328125 16.535156 14.320312 16.515625 14.316406 C 16.417969 14.292969 16.320312 14.269531 16.234375 14.214844 C 16.082031 14.125 16.070312 14.0625 16.203125 13.953125 C 16.257812 13.910156 16.25 13.789062 16.359375 13.816406 C 16.429688 13.839844 16.445312 13.929688 16.511719 13.964844 C 16.527344 13.855469 16.472656 13.808594 16.375 13.78125 C 16.300781 13.765625 16.210938 13.746094 16.246094 13.636719 C 16.28125 13.542969 16.34375 13.46875 16.457031 13.496094 C 16.550781 13.515625 16.628906 13.523438 16.707031 13.441406 C 16.765625 13.378906 16.859375 13.417969 16.9375 13.410156 C 16.972656 13.40625 17.015625 13.40625 17.03125 13.375 C 17.050781 13.339844 17.003906 13.320312 16.984375 13.296875 C 16.9375 13.25 16.882812 13.207031 16.839844 13.15625 C 16.808594 13.113281 16.769531 13.0625 16.816406 13.007812 C 16.863281 12.960938 16.910156 12.992188 16.953125 13.019531 C 17.109375 13.121094 17.300781 13.113281 17.464844 13.191406 C 17.507812 13.214844 17.53125 13.175781 17.558594 13.148438 C 17.636719 13.082031 17.714844 13.050781 17.792969 13.152344 C 17.867188 13.25 17.9375 13.214844 18.015625 13.148438 C 17.929688 13.0625 17.820312 13.0625 17.722656 13.027344 C 17.625 12.984375 17.496094 12.976562 17.476562 12.84375 C 17.457031 12.707031 17.558594 12.609375 17.648438 12.523438 C 17.738281 12.441406 17.855469 12.421875 17.976562 12.476562 C 18.136719 12.546875 18.269531 12.507812 18.378906 12.375 C 18.429688 12.316406 18.492188 12.300781 18.566406 12.296875 C 18.75 12.292969 18.9375 12.328125 19.125 12.222656 C 19.007812 12.113281 18.925781 11.972656 18.800781 11.878906 C 18.722656 11.820312 18.65625 11.757812 18.617188 11.660156 C 18.585938 11.59375 18.574219 11.535156 18.628906 11.476562 C 18.6875 11.421875 18.769531 11.417969 18.816406 11.457031 C 19.007812 11.621094 19.242188 11.648438 19.472656 11.710938 C 19.675781 11.765625 19.878906 11.832031 20.070312 11.925781 C 20.101562 11.941406 20.136719 11.941406 20.171875 11.941406 C 20.34375 11.960938 20.523438 11.910156 20.695312 11.988281 C 20.726562 12 20.75 11.980469 20.773438 11.957031 C 20.898438 11.820312 21.066406 11.789062 21.242188 11.789062 C 21.355469 11.792969 21.46875 11.789062 21.578125 11.757812 C 21.710938 11.722656 21.828125 11.820312 21.953125 11.84375 C 22.195312 11.890625 22.402344 11.996094 22.582031 12.164062 C 22.675781 12.25 22.734375 12.347656 22.746094 12.476562 C 22.757812 12.585938 22.789062 12.597656 22.878906 12.542969 C 23.074219 12.425781 23.273438 12.355469 23.515625 12.339844 C 23.886719 12.3125 24.261719 12.308594 24.636719 12.292969 C 24.734375 12.285156 24.847656 12.269531 24.941406 12.230469 C 25.125 12.160156 25.289062 12.234375 25.457031 12.269531 C 25.558594 12.292969 25.617188 12.382812 25.660156 12.480469 C 25.773438 12.742188 25.964844 12.921875 26.242188 13.003906 C 26.3125 13.023438 26.335938 13.0625 26.335938 13.125 C 26.335938 13.152344 26.335938 13.175781 26.335938 13.203125 C 26.328125 13.519531 26.210938 13.609375 25.898438 13.535156 C 25.847656 13.523438 25.796875 13.523438 25.746094 13.527344 C 25.4375 13.539062 25.148438 13.46875 24.867188 13.347656 C 24.8125 13.324219 24.746094 13.296875 24.714844 13.347656 C 24.613281 13.507812 24.476562 13.445312 24.351562 13.414062 C 24.265625 13.390625 24.148438 13.402344 24.144531 13.453125 C 24.132812 13.527344 24.25 13.539062 24.316406 13.558594 C 24.503906 13.613281 24.691406 13.644531 24.886719 13.570312 C 25.003906 13.527344 25.121094 13.605469 25.238281 13.628906 C 25.390625 13.660156 25.539062 13.65625 25.691406 13.664062 C 25.863281 13.675781 26.03125 13.710938 26.183594 13.792969 C 26.394531 13.90625 26.421875 14.03125 26.261719 14.214844 C 26.328125 14.21875 26.390625 14.21875 26.453125 14.222656 C 26.527344 14.230469 26.582031 14.273438 26.585938 14.351562 C 26.585938 14.429688 26.535156 14.480469 26.457031 14.480469 C 26.234375 14.492188 26.027344 14.585938 25.816406 14.648438 C 25.648438 14.699219 25.484375 14.683594 25.316406 14.691406 C 25.222656 14.695312 25.136719 14.703125 25.058594 14.761719 C 24.984375 14.816406 24.890625 14.828125 24.800781 14.847656 C 24.558594 14.894531 24.316406 14.886719 24.070312 14.894531 C 24.035156 14.894531 23.992188 14.90625 23.984375 14.9375 C 23.949219 15.0625 23.847656 15.09375 23.742188 15.121094 C 23.636719 15.152344 23.613281 15.277344 23.507812 15.316406 C 23.351562 15.375 23.203125 15.433594 23.039062 15.453125 C 22.828125 15.476562 22.648438 15.59375 22.449219 15.660156 C 22.222656 15.738281 21.996094 15.769531 21.75 15.71875 C 21.539062 15.671875 21.316406 15.667969 21.097656 15.734375 C 21.042969 15.75 20.984375 15.75 20.925781 15.75 C 20.621094 15.75 20.316406 15.75 20.015625 15.75 C 19.925781 15.75 19.835938 15.746094 19.757812 15.699219 C 19.503906 15.546875 19.207031 15.507812 18.941406 15.386719 C 18.882812 15.359375 18.839844 15.316406 18.804688 15.261719 C 18.78125 15.230469 18.765625 15.164062 18.714844 15.214844 C 18.679688 15.253906 18.632812 15.308594 18.699219 15.367188 C 18.777344 15.445312 18.882812 15.457031 18.984375 15.484375 C 19.234375 15.550781 19.511719 15.589844 19.679688 15.796875 C 19.8125 15.957031 19.929688 15.9375 20.101562 15.910156 C 20.332031 15.871094 20.574219 15.917969 20.769531 16.058594 C 20.851562 16.113281 20.882812 16.230469 20.960938 16.304688 C 21 16.339844 20.988281 16.429688 20.910156 16.460938 C 20.902344 16.464844 20.894531 16.46875 20.886719 16.472656 C 20.671875 16.59375 20.671875 16.59375 20.753906 16.824219 C 20.800781 16.964844 20.777344 17.097656 20.691406 17.144531 C 20.589844 17.199219 20.398438 17.15625 20.332031 17.042969 C 20.203125 16.828125 20.015625 16.6875 19.777344 16.6875 C 19.65625 16.6875 19.476562 16.644531 19.390625 16.820312 C 19.363281 16.882812 19.277344 16.902344 19.214844 16.929688 C 19.136719 16.964844 19.066406 17.007812 18.992188 17.042969 C 18.851562 17.117188 18.75 17.082031 18.6875 16.9375 C 18.675781 16.90625 18.675781 16.878906 18.632812 16.890625 C 18.503906 16.910156 18.433594 16.832031 18.394531 16.730469 C 18.359375 16.628906 18.292969 16.605469 18.199219 16.609375 C 18.105469 16.613281 18.015625 16.570312 17.925781 16.554688 C 17.753906 16.527344 17.621094 16.441406 17.472656 16.375 C 17.386719 16.335938 17.351562 16.414062 17.308594 16.460938 C 17.261719 16.507812 17.269531 16.574219 17.304688 16.625 C 17.332031 16.664062 17.378906 16.640625 17.417969 16.628906 C 17.554688 16.582031 17.667969 16.625 17.730469 16.753906 C 17.753906 16.796875 17.777344 16.835938 17.828125 16.84375 C 17.886719 16.855469 17.929688 16.878906 17.9375 16.945312 C 17.949219 17.015625 17.921875 17.066406 17.863281 17.105469 C 17.847656 17.113281 17.816406 17.109375 17.820312 17.140625 C 17.859375 17.160156 17.898438 17.144531 17.9375 17.128906 C 18.0625 17.082031 18.207031 17.125 18.234375 17.214844 C 18.269531 17.34375 18.179688 17.398438 18.082031 17.441406 C 18.046875 17.457031 18.011719 17.46875 17.972656 17.484375 C 17.972656 17.523438 18.015625 17.523438 18.039062 17.542969 C 18.113281 17.605469 18.171875 17.671875 18.132812 17.769531 C 18.09375 17.867188 18.015625 17.917969 17.90625 17.925781 C 17.789062 17.9375 17.675781 17.910156 17.578125 17.863281 C 17.40625 17.769531 17.230469 17.761719 17.050781 17.777344 C 16.910156 17.789062 16.792969 17.730469 16.746094 17.617188 C 16.664062 17.441406 16.507812 17.410156 16.359375 17.375 C 16.238281 17.347656 16.136719 17.308594 16.046875 17.226562 C 15.980469 17.167969 15.933594 17.183594 15.917969 17.269531 C 15.910156 17.339844 15.875 17.382812 15.816406 17.421875 C 15.75 17.460938 15.777344 17.535156 15.769531 17.597656 C 15.761719 17.65625 15.820312 17.648438 15.855469 17.664062 C 15.941406 17.703125 16.03125 17.710938 16.109375 17.773438 C 16.269531 17.898438 16.296875 17.972656 16.203125 18.15625 C 16.167969 18.226562 16.175781 18.265625 16.230469 18.304688 C 16.324219 18.375 16.359375 18.46875 16.289062 18.566406 C 16.21875 18.664062 16.125 18.636719 16.03125 18.585938 C 15.976562 18.558594 15.929688 18.523438 15.886719 18.484375 C 15.808594 18.421875 15.71875 18.375 15.609375 18.378906 C 15.496094 18.378906 15.390625 18.335938 15.285156 18.296875 C 15.207031 18.265625 15.160156 18.214844 15.140625 18.125 C 15.105469 17.980469 14.957031 18 14.859375 17.984375 C 14.710938 17.957031 14.574219 17.941406 14.53125 17.765625 C 14.519531 17.71875 14.472656 17.726562 14.4375 17.722656 C 14.351562 17.71875 14.292969 17.679688 14.28125 17.585938 C 14.28125 17.582031 14.28125 17.578125 14.28125 17.574219 C 14.261719 17.488281 14.1875 17.4375 14.117188 17.449219 C 14.078125 17.457031 14.050781 17.566406 14.078125 17.625 C 14.125 17.71875 14.148438 17.804688 14.078125 17.894531 C 14.019531 17.972656 13.933594 18.015625 13.832031 18.03125 C 13.730469 18.046875 13.6875 18.136719 13.609375 18.199219 C 13.667969 18.222656 13.710938 18.203125 13.753906 18.1875 C 13.820312 18.164062 13.886719 18.167969 13.949219 18.203125 C 14.070312 18.28125 14.074219 18.382812 13.960938 18.464844 C 13.9375 18.484375 13.890625 18.492188 13.902344 18.535156 C 13.917969 18.582031 13.964844 18.566406 14 18.570312 C 14.039062 18.570312 14.074219 18.554688 14.105469 18.539062 C 14.214844 18.496094 14.285156 18.5625 14.320312 18.644531 C 14.355469 18.722656 14.304688 18.800781 14.222656 18.828125 C 14.144531 18.855469 14.085938 18.902344 14.039062 18.957031 C 13.953125 19.054688 13.855469 19.054688 13.75 19.015625 C 13.613281 18.960938 13.484375 18.882812 13.328125 18.871094 C 13.242188 18.867188 13.148438 18.789062 13.089844 18.71875 C 13.042969 18.660156 13.039062 18.558594 13.140625 18.515625 C 13.265625 18.460938 13.378906 18.386719 13.460938 18.269531 C 13.496094 18.222656 13.523438 18.203125 13.449219 18.160156 C 13.347656 18.09375 13.339844 17.921875 13.417969 17.808594 C 13.511719 17.679688 13.5 17.632812 13.355469 17.558594 C 13.207031 17.480469 13.152344 17.375 13.171875 17.234375 C 13.183594 17.171875 13.21875 17.132812 13.273438 17.113281 C 13.324219 17.09375 13.382812 17.105469 13.40625 17.152344 C 13.503906 17.34375 13.675781 17.304688 13.863281 17.292969 Z M 22.609375 12.8125 C 22.464844 12.855469 22.335938 12.914062 22.195312 12.914062 C 22.171875 12.914062 22.160156 12.929688 22.171875 12.960938 C 22.207031 13.042969 22.183594 13.132812 22.1875 13.222656 C 22.1875 13.253906 22.179688 13.296875 22.238281 13.277344 C 22.339844 13.246094 22.390625 13.316406 22.425781 13.386719 C 22.476562 13.480469 22.53125 13.472656 22.597656 13.417969 C 22.65625 13.367188 22.71875 13.34375 22.796875 13.367188 C 22.832031 13.378906 22.863281 13.421875 22.910156 13.390625 C 22.886719 13.277344 22.839844 13.203125 22.707031 13.265625 C 22.679688 13.28125 22.640625 13.273438 22.609375 13.269531 C 22.527344 13.269531 22.441406 13.285156 22.414062 13.175781 C 22.394531 13.082031 22.4375 13.019531 22.507812 12.972656 C 22.558594 12.9375 22.601562 12.898438 22.609375 12.8125 Z M 21.609375 12.566406 C 21.5625 12.585938 21.515625 12.601562 21.570312 12.667969 C 21.609375 12.714844 21.640625 12.765625 21.617188 12.832031 C 21.597656 12.875 21.550781 12.933594 21.597656 12.964844 C 21.621094 12.988281 21.691406 12.957031 21.734375 12.945312 C 21.761719 12.9375 21.789062 12.917969 21.816406 12.90625 C 21.855469 12.890625 21.851562 12.871094 21.828125 12.839844 C 21.777344 12.78125 21.746094 12.707031 21.710938 12.636719 C 21.691406 12.601562 21.664062 12.566406 21.609375 12.566406 Z M 12.566406 12.203125 C 12.621094 12.222656 12.675781 12.246094 12.734375 12.246094 C 12.785156 12.242188 12.832031 12.269531 12.851562 12.308594 C 12.898438 12.417969 13.003906 12.421875 13.09375 12.441406 C 13.195312 12.460938 13.304688 12.429688 13.402344 12.484375 C 13.425781 12.496094 13.457031 12.488281 13.460938 12.457031 C 13.464844 12.417969 13.433594 12.40625 13.402344 12.410156 C 13.300781 12.414062 13.199219 12.40625 13.109375 12.351562 C 13.046875 12.3125 12.964844 12.273438 12.980469 12.1875 C 13 12.101562 13.070312 12.054688 13.15625 12.046875 C 13.253906 12.042969 13.335938 12.03125 13.421875 11.960938 C 13.492188 11.902344 13.613281 11.917969 13.703125 11.984375 C 13.78125 12.042969 13.847656 12.097656 13.953125 12.015625 C 14.023438 11.957031 14.125 11.988281 14.175781 12.070312 C 14.234375 12.164062 14.320312 12.191406 14.421875 12.191406 C 14.457031 12.191406 14.5 12.1875 14.53125 12.199219 C 14.59375 12.222656 14.625 12.277344 14.632812 12.335938 C 14.636719 12.394531 14.59375 12.433594 14.539062 12.457031 C 14.410156 12.519531 14.25 12.5 14.125 12.582031 C 14.132812 12.585938 14.140625 12.59375 14.144531 12.59375 C 14.410156 12.5625 14.683594 12.558594 14.9375 12.445312 C 14.972656 12.433594 15.003906 12.410156 15.035156 12.386719 C 15.074219 12.359375 15.117188 12.347656 15.164062 12.347656 C 15.242188 12.347656 15.316406 12.378906 15.335938 12.449219 C 15.351562 12.515625 15.285156 12.5625 15.234375 12.59375 C 15.152344 12.644531 15.0625 12.679688 14.957031 12.730469 C 15.15625 12.785156 15.316406 12.714844 15.480469 12.683594 C 15.515625 12.679688 15.550781 12.644531 15.496094 12.601562 C 15.390625 12.515625 15.394531 12.386719 15.402344 12.265625 C 15.40625 12.195312 15.453125 12.148438 15.523438 12.140625 C 15.585938 12.136719 15.597656 12.097656 15.605469 12.046875 L 15.601562 12.046875 C 15.757812 11.941406 15.921875 11.96875 16.046875 12.070312 C 16.183594 12.179688 16.339844 12.199219 16.488281 12.238281 C 16.621094 12.273438 16.753906 12.316406 16.882812 12.363281 C 16.933594 12.378906 16.976562 12.421875 17.015625 12.457031 C 17.046875 12.488281 17.085938 12.523438 17.058594 12.578125 C 17.03125 12.632812 16.996094 12.667969 16.933594 12.664062 C 16.875 12.660156 16.816406 12.660156 16.753906 12.683594 C 16.792969 12.691406 16.835938 12.691406 16.867188 12.707031 C 16.9375 12.738281 16.945312 12.878906 16.875 12.898438 C 16.695312 12.941406 16.582031 13.09375 16.421875 13.164062 C 16.355469 13.195312 16.289062 13.242188 16.183594 13.207031 C 16.25 13.347656 16.191406 13.417969 16.09375 13.480469 C 16.011719 13.535156 15.996094 13.636719 15.96875 13.722656 C 15.953125 13.757812 15.949219 13.800781 15.914062 13.816406 C 15.777344 13.863281 15.695312 14.003906 15.550781 14.03125 C 15.511719 14.039062 15.503906 14.078125 15.488281 14.109375 C 15.429688 14.226562 15.308594 14.28125 15.183594 14.261719 C 15.097656 14.246094 15.023438 14.269531 14.957031 14.347656 C 14.832031 14.5 14.710938 14.65625 14.53125 14.753906 C 14.3125 14.875 14.128906 15.042969 13.976562 15.246094 C 13.925781 15.3125 13.859375 15.347656 13.777344 15.367188 C 13.523438 15.429688 13.289062 15.523438 13.113281 15.734375 C 13.054688 15.8125 12.992188 15.886719 12.945312 15.96875 C 12.867188 16.105469 12.742188 16.175781 12.609375 16.1875 C 12.421875 16.210938 12.265625 16.292969 12.101562 16.363281 C 11.992188 16.414062 11.9375 16.378906 11.882812 16.296875 C 11.804688 16.179688 11.6875 16.167969 11.601562 16.277344 C 11.488281 16.425781 11.355469 16.46875 11.160156 16.421875 C 11.019531 16.386719 10.863281 16.382812 10.714844 16.441406 C 10.625 16.480469 10.515625 16.484375 10.457031 16.375 C 10.414062 16.292969 10.367188 16.34375 10.324219 16.363281 C 10.269531 16.386719 10.234375 16.425781 10.261719 16.492188 C 10.292969 16.554688 10.332031 16.613281 10.347656 16.6875 C 10.390625 16.890625 10.257812 17 10.121094 17.101562 C 9.972656 17.214844 9.828125 17.335938 9.660156 17.429688 C 9.5625 17.480469 9.46875 17.484375 9.371094 17.441406 C 9.316406 17.417969 9.246094 17.390625 9.203125 17.433594 C 9.097656 17.542969 9.003906 17.492188 8.902344 17.429688 C 8.894531 17.425781 8.878906 17.425781 8.855469 17.421875 C 8.917969 17.652344 8.71875 17.707031 8.597656 17.800781 C 8.46875 17.898438 8.300781 17.933594 8.144531 17.96875 C 7.910156 18.015625 7.652344 17.875 7.53125 17.671875 C 7.511719 17.636719 7.511719 17.609375 7.523438 17.574219 C 7.554688 17.503906 7.492188 17.476562 7.449219 17.449219 C 7.40625 17.421875 7.386719 17.472656 7.367188 17.5 C 7.351562 17.519531 7.335938 17.542969 7.316406 17.554688 C 7.222656 17.609375 6.820312 17.558594 6.734375 17.488281 C 6.632812 17.398438 6.53125 17.3125 6.429688 17.226562 C 6.394531 17.199219 6.359375 17.160156 6.308594 17.171875 C 6.105469 17.210938 5.96875 17.089844 5.839844 16.972656 C 5.722656 16.867188 5.582031 16.839844 5.441406 16.816406 C 5.277344 16.789062 5.21875 16.734375 5.226562 16.578125 C 5.234375 16.425781 5.320312 16.351562 5.472656 16.339844 C 5.605469 16.332031 5.722656 16.378906 5.84375 16.410156 C 6.078125 16.460938 6.304688 16.464844 6.539062 16.414062 C 6.644531 16.390625 6.753906 16.394531 6.863281 16.378906 C 6.714844 16.359375 6.59375 16.296875 6.503906 16.179688 C 6.46875 16.140625 6.441406 16.101562 6.472656 16.042969 C 6.503906 15.996094 6.523438 15.945312 6.589844 15.945312 C 6.863281 15.933594 7.136719 15.933594 7.402344 16.003906 C 7.484375 16.023438 7.546875 16.09375 7.640625 16.023438 C 7.65625 16.011719 7.714844 16.042969 7.753906 16.0625 C 7.777344 16.074219 7.796875 16.097656 7.824219 16.089844 C 8.007812 16.03125 8.179688 16.097656 8.355469 16.140625 C 8.375 16.144531 8.402344 16.152344 8.417969 16.144531 C 8.53125 16.066406 8.664062 16.105469 8.785156 16.058594 C 8.695312 16.058594 8.609375 16.058594 8.519531 16.058594 C 8.386719 16.0625 8.253906 16.058594 8.125 16.007812 C 8.066406 15.984375 8.019531 15.957031 8.027344 15.894531 C 8.039062 15.832031 8.070312 15.785156 8.148438 15.789062 C 8.273438 15.792969 8.398438 15.792969 8.527344 15.789062 C 8.675781 15.789062 8.8125 15.753906 8.878906 15.605469 C 8.933594 15.484375 8.988281 15.355469 8.960938 15.222656 C 8.945312 15.152344 8.914062 15.089844 8.957031 15.015625 C 8.980469 14.972656 8.949219 14.945312 8.902344 14.941406 C 8.820312 14.933594 8.746094 14.941406 8.683594 15.003906 C 8.535156 15.15625 8.375 15.132812 8.269531 14.953125 C 8.234375 14.886719 8.191406 14.855469 8.121094 14.832031 C 7.875 14.753906 7.742188 14.585938 7.753906 14.382812 C 7.765625 14.195312 7.953125 14.074219 8.121094 14.160156 C 8.261719 14.230469 8.414062 14.238281 8.558594 14.265625 C 8.640625 14.285156 8.71875 14.308594 8.800781 14.320312 C 8.980469 14.347656 9.132812 14.285156 9.28125 14.199219 C 9.386719 14.136719 9.496094 14.117188 9.621094 14.117188 C 9.882812 14.117188 10.148438 14.160156 10.410156 14.046875 C 10.371094 13.921875 10.234375 13.9375 10.144531 13.886719 C 10.117188 13.875 10.074219 13.878906 10.0625 13.859375 C 9.875 13.628906 9.582031 13.671875 9.347656 13.574219 C 9.152344 13.496094 8.941406 13.46875 8.75 13.386719 C 8.640625 13.34375 8.597656 13.253906 8.570312 13.160156 C 8.527344 13.015625 8.609375 12.917969 8.769531 12.910156 C 8.875 12.90625 8.984375 12.910156 9.089844 12.902344 C 8.929688 12.824219 8.765625 12.800781 8.597656 12.820312 C 8.378906 12.847656 8.191406 12.738281 7.988281 12.699219 C 7.875 12.675781 7.804688 12.582031 7.808594 12.453125 C 7.8125 12.394531 7.800781 12.339844 7.761719 12.289062 C 7.707031 12.214844 7.742188 12.125 7.8125 12.113281 C 7.9375 12.085938 8.058594 12.015625 8.210938 12.085938 C 8.460938 12.195312 8.738281 12.238281 9.007812 12.304688 C 9.207031 12.351562 9.386719 12.453125 9.5625 12.5625 C 9.8125 12.71875 10.089844 12.839844 10.375 12.882812 C 10.644531 12.925781 10.925781 13.027344 11.207031 12.917969 C 11.226562 12.910156 11.253906 12.910156 11.28125 12.910156 C 11.351562 12.910156 11.382812 12.90625 11.355469 12.8125 C 11.316406 12.667969 11.402344 12.5625 11.515625 12.480469 C 11.589844 12.429688 11.664062 12.375 11.726562 12.308594 C 11.804688 12.222656 11.929688 12.222656 11.988281 12.316406 C 12.054688 12.429688 12.121094 12.40625 12.203125 12.355469 C 12.253906 12.324219 12.320312 12.3125 12.359375 12.257812 C 12.429688 12.234375 12.5 12.21875 12.566406 12.203125 Z M 10.566406 14.808594 C 10.554688 14.730469 10.5625 14.671875 10.632812 14.632812 C 10.660156 14.621094 10.691406 14.605469 10.679688 14.570312 C 10.667969 14.527344 10.628906 14.535156 10.597656 14.535156 C 10.464844 14.527344 10.351562 14.601562 10.21875 14.605469 C 10.328125 14.691406 10.464844 14.710938 10.566406 14.808594 Z M 10.054688 14.609375 C 9.785156 14.550781 9.707031 14.601562 9.6875 14.828125 C 9.683594 14.855469 9.660156 14.886719 9.695312 14.910156 C 9.726562 14.929688 9.742188 14.894531 9.769531 14.882812 C 9.894531 14.824219 9.914062 14.652344 10.054688 14.609375 Z M 5.171875 15.03125 C 5.109375 15.109375 5.046875 15.128906 4.957031 15.125 C 4.832031 15.121094 4.703125 15.113281 4.59375 15.195312 C 4.550781 15.226562 4.496094 15.257812 4.503906 15.320312 C 4.507812 15.382812 4.53125 15.4375 4.609375 15.457031 C 4.667969 15.472656 4.722656 15.496094 4.6875 15.589844 C 4.65625 15.667969 4.753906 15.785156 4.851562 15.792969 C 4.996094 15.800781 5.089844 15.878906 5.183594 15.976562 C 5.335938 16.140625 5.542969 16.175781 5.746094 16.132812 C 5.890625 16.105469 6.035156 16.09375 6.175781 16.058594 C 6.402344 16.003906 6.515625 15.796875 6.394531 15.601562 C 6.386719 15.585938 6.371094 15.566406 6.375 15.558594 C 6.433594 15.429688 6.425781 15.28125 6.503906 15.15625 C 6.558594 15.066406 6.617188 14.972656 6.585938 14.863281 C 6.554688 14.742188 6.414062 14.6875 6.289062 14.730469 C 6.160156 14.777344 6.101562 14.898438 6.15625 15.023438 C 6.171875 15.054688 6.199219 15.085938 6.164062 15.113281 C 6.128906 15.140625 6.089844 15.175781 6.042969 15.167969 C 5.988281 15.160156 6.007812 15.109375 6.003906 15.074219 C 5.996094 15.039062 5.996094 14.992188 5.960938 14.976562 C 5.832031 14.925781 5.734375 14.800781 5.570312 14.820312 C 5.394531 14.800781 5.265625 14.894531 5.171875 15.03125 Z M 9.996094 12.257812 C 9.988281 12.269531 9.957031 12.269531 9.9375 12.269531 C 9.847656 12.265625 9.835938 12.324219 9.824219 12.390625 C 9.8125 12.46875 9.863281 12.488281 9.917969 12.5 C 10.039062 12.527344 10.160156 12.539062 10.277344 12.578125 C 10.375 12.609375 10.460938 12.601562 10.558594 12.578125 C 10.707031 12.546875 10.863281 12.539062 11.015625 12.589844 C 11.109375 12.621094 11.226562 12.65625 11.296875 12.5625 C 11.390625 12.429688 11.515625 12.339844 11.644531 12.257812 C 11.746094 12.195312 11.75 12.109375 11.703125 12.019531 C 11.664062 11.945312 11.613281 11.878906 11.5625 11.8125 C 11.535156 11.777344 11.5 11.742188 11.449219 11.738281 C 11.3125 11.730469 11.171875 11.722656 11.035156 11.753906 C 10.765625 11.808594 10.511719 11.816406 10.324219 11.566406 C 10.292969 11.523438 10.238281 11.5 10.183594 11.488281 C 10.078125 11.476562 10 11.523438 9.949219 11.609375 C 9.902344 11.691406 9.964844 11.746094 10.015625 11.804688 C 10.113281 11.90625 10.246094 11.941406 10.378906 12.027344 C 10.234375 12.097656 10.082031 12.125 9.996094 12.257812 Z M 15.605469 12.046875 C 15.625 11.953125 15.578125 11.875 15.550781 11.792969 C 15.472656 11.554688 15.105469 11.390625 14.890625 11.617188 C 14.820312 11.6875 14.777344 11.667969 14.757812 11.589844 C 14.734375 11.496094 14.675781 11.476562 14.597656 11.480469 C 14.421875 11.484375 14.246094 11.484375 14.070312 11.488281 C 13.953125 11.488281 13.835938 11.488281 13.722656 11.441406 C 13.652344 11.410156 13.578125 11.382812 13.492188 11.378906 C 13.378906 11.375 13.28125 11.429688 13.171875 11.449219 C 13.113281 11.457031 13.078125 11.539062 13.085938 11.601562 C 13.101562 11.703125 13.175781 11.777344 13.277344 11.792969 C 13.433594 11.820312 13.585938 11.859375 13.75 11.855469 C 14.050781 11.847656 14.355469 11.839844 14.582031 12.097656 C 14.609375 12.125 14.65625 12.140625 14.691406 12.152344 C 15.015625 12.269531 15.308594 12.167969 15.601562 12.046875 C 15.605469 12.046875 15.605469 12.046875 15.605469 12.046875 Z M 21.695312 16.191406 C 21.566406 16.277344 21.414062 16.304688 21.277344 16.375 C 21.191406 16.417969 21.191406 16.535156 21.253906 16.613281 C 21.363281 16.753906 21.472656 16.890625 21.664062 16.929688 C 21.714844 16.941406 21.769531 16.972656 21.816406 17.015625 C 21.890625 17.085938 21.988281 17.097656 22.082031 17.058594 C 22.175781 17.023438 22.128906 16.933594 22.136719 16.871094 C 22.140625 16.832031 22.144531 16.789062 22.132812 16.757812 C 22.085938 16.660156 22.117188 16.601562 22.199219 16.535156 C 22.273438 16.480469 22.320312 16.390625 22.273438 16.292969 C 22.238281 16.214844 22.113281 16.1875 22.011719 16.226562 C 21.972656 16.242188 21.929688 16.242188 21.890625 16.222656 C 21.851562 16.199219 21.804688 16.191406 21.738281 16.191406 C 21.738281 16.191406 21.710938 16.183594 21.695312 16.191406 Z M 4.273438 15.476562 C 4.339844 15.402344 4.390625 15.339844 4.339844 15.238281 C 4.332031 15.222656 4.351562 15.199219 4.363281 15.179688 C 4.378906 15.148438 4.378906 15.113281 4.359375 15.085938 C 4.21875 14.894531 4.046875 14.863281 3.925781 15.058594 C 3.894531 15.113281 3.867188 15.132812 3.808594 15.101562 C 3.730469 15.0625 3.644531 15.074219 3.558594 15.078125 C 3.480469 15.078125 3.457031 15.136719 3.429688 15.199219 C 3.40625 15.257812 3.441406 15.296875 3.480469 15.328125 C 3.640625 15.449219 3.804688 15.558594 4.015625 15.546875 C 4.105469 15.542969 4.199219 15.558594 4.273438 15.476562 Z M 12.644531 11.929688 C 12.65625 11.785156 12.542969 11.757812 12.429688 11.71875 C 12.222656 11.644531 12.023438 11.652344 11.824219 11.734375 C 11.734375 11.769531 11.707031 11.863281 11.765625 11.933594 C 11.921875 12.117188 12.105469 12.257812 12.363281 12.25 C 12.429688 12.234375 12.5 12.21875 12.566406 12.203125 C 12.632812 12.125 12.636719 12.023438 12.644531 11.929688 Z M 4.277344 14.273438 C 4.082031 14.234375 3.898438 14.125 3.683594 14.214844 C 3.558594 14.265625 3.414062 14.429688 3.40625 14.574219 C 3.402344 14.691406 3.476562 14.777344 3.632812 14.839844 C 3.757812 14.886719 3.871094 14.828125 3.867188 14.699219 C 3.867188 14.519531 3.914062 14.523438 4.066406 14.527344 C 4.132812 14.527344 4.195312 14.515625 4.261719 14.492188 C 4.320312 14.46875 4.335938 14.429688 4.332031 14.386719 C 4.332031 14.3125 4.320312 14.285156 4.277344 14.273438 Z M 5.3125 10.46875 C 5.339844 10.425781 5.328125 10.386719 5.292969 10.355469 C 5.179688 10.257812 5.09375 10.128906 4.957031 10.058594 C 4.789062 9.96875 4.699219 10.015625 4.671875 10.203125 C 4.667969 10.226562 4.660156 10.25 4.652344 10.273438 C 4.609375 10.351562 4.652344 10.398438 4.710938 10.425781 C 4.84375 10.488281 4.988281 10.511719 5.132812 10.539062 C 5.203125 10.539062 5.269531 10.539062 5.3125 10.46875 Z M 8.667969 11.714844 C 8.550781 11.636719 8.429688 11.5625 8.304688 11.5 C 8.234375 11.464844 8.152344 11.464844 8.09375 11.53125 C 8.039062 11.597656 8.050781 11.671875 8.082031 11.742188 C 8.125 11.835938 8.203125 11.878906 8.296875 11.902344 C 8.367188 11.917969 8.429688 11.945312 8.484375 11.992188 C 8.535156 12.035156 8.585938 12.074219 8.65625 12.03125 C 8.714844 11.996094 8.738281 11.9375 8.730469 11.871094 C 8.734375 11.808594 8.722656 11.75 8.667969 11.714844 Z M 13.992188 16.355469 C 14.101562 16.347656 14.171875 16.277344 14.140625 16.171875 C 14.109375 16.066406 14.046875 15.972656 13.992188 15.878906 C 13.960938 15.832031 13.90625 15.832031 13.851562 15.851562 C 13.734375 15.898438 13.675781 15.992188 13.675781 16.144531 C 13.675781 16.277344 13.816406 16.371094 13.992188 16.355469 Z M 13.992188 16.355469 " fill-opacity="1" fill-rule="nonzero"/></g></svg>