<svg xmlns="http://www.w3.org/2000/svg" xmlns:xlink="http://www.w3.org/1999/xlink" width="40" zoomAndPan="magnify" viewBox="0 0 30 30.000001" height="40" preserveAspectRatio="xMidYMid meet" version="1.0"><defs><clipPath id="f23bf56f21"><path d="M 3.390625 10.292969 L 26.613281 10.292969 L 26.613281 18.769531 L 3.390625 18.769531 Z M 3.390625 10.292969 " clip-rule="nonzero"/></clipPath></defs><g clip-path="url(#f23bf56f21)"><path fill="#014d4e" d="M 18.921875 18.539062 C 18.980469 18.539062 19.042969 18.585938 19.042969 18.636719 C 19.039062 18.6875 18.980469 18.722656 18.933594 18.726562 C 18.867188 18.730469 18.796875 18.679688 18.800781 18.625 C 18.800781 18.578125 18.867188 18.539062 18.921875 18.539062 Z M 14.960938 15.484375 C 14.980469 15.484375 15.003906 15.492188 15.113281 15.582031 C 15.210938 15.664062 15.261719 15.707031 15.289062 15.746094 C 15.34375 15.828125 15.398438 15.96875 15.34375 16.019531 C 15.296875 16.066406 15.183594 16.023438 15.125 15.988281 C 15.058594 15.949219 15.058594 15.921875 14.972656 15.835938 C 14.84375 15.710938 14.777344 15.707031 14.773438 15.648438 C 14.765625 15.574219 14.871094 15.480469 14.960938 15.484375 Z M 25.945312 14.859375 C 26.097656 14.859375 26.210938 14.875 26.25 14.894531 C 26.269531 14.902344 26.285156 14.910156 26.300781 14.917969 C 26.335938 14.941406 26.34375 14.960938 26.40625 14.980469 C 26.507812 15.019531 26.59375 15 26.601562 15.035156 C 26.609375 15.054688 26.59375 15.074219 26.578125 15.089844 C 26.496094 15.183594 26.394531 15.191406 26.273438 15.242188 C 26.097656 15.320312 26.078125 15.414062 26 15.398438 C 25.925781 15.382812 25.871094 15.28125 25.867188 15.199219 C 25.867188 15.191406 25.867188 15.183594 25.871094 15.171875 C 25.875 15.148438 25.882812 15.125 25.890625 15.097656 C 25.894531 15.089844 25.898438 15.082031 25.902344 15.074219 C 25.914062 15.050781 25.921875 15.039062 25.921875 15.035156 C 25.929688 15.019531 25.941406 14.976562 25.945312 14.859375 Z M 14.226562 14.683594 C 14.347656 14.683594 14.378906 14.699219 14.402344 14.71875 C 14.433594 14.75 14.457031 14.804688 14.445312 14.851562 C 14.421875 14.925781 14.304688 14.945312 14.253906 14.957031 C 14.210938 14.960938 14.171875 14.964844 14.128906 14.960938 C 14.074219 14.957031 14.050781 14.953125 14.027344 14.941406 C 13.960938 14.90625 13.925781 14.789062 13.972656 14.71875 C 14 14.679688 14.074219 14.679688 14.226562 14.683594 Z M 18.109375 14.523438 C 18.296875 14.503906 18.421875 14.675781 18.515625 14.804688 C 18.550781 14.859375 18.628906 14.960938 18.59375 15.023438 C 18.566406 15.074219 18.492188 15.085938 18.460938 15.089844 C 18.375 15.105469 18.355469 15.070312 18.285156 15.078125 C 18.175781 15.09375 18.171875 15.183594 18.085938 15.1875 C 17.964844 15.195312 17.867188 15.011719 17.855469 14.992188 C 17.832031 14.945312 17.789062 14.863281 17.8125 14.761719 C 17.84375 14.628906 17.980469 14.53125 18.109375 14.523438 Z M 21.367188 14.414062 C 21.449219 14.417969 21.539062 14.421875 21.59375 14.488281 C 21.660156 14.566406 21.667969 14.707031 21.609375 14.75 C 21.605469 14.753906 21.597656 14.757812 21.59375 14.761719 C 21.566406 14.773438 21.53125 14.765625 21.433594 14.761719 C 21.3125 14.761719 21.285156 14.769531 21.246094 14.769531 C 21.230469 14.765625 21.21875 14.765625 21.203125 14.761719 C 21.101562 14.746094 21.035156 14.777344 21.003906 14.746094 C 21 14.742188 21 14.742188 21 14.738281 C 20.980469 14.707031 20.992188 14.667969 20.996094 14.652344 C 21.007812 14.601562 21.011719 14.550781 21.007812 14.5 C 21.117188 14.4375 21.242188 14.40625 21.367188 14.414062 Z M 24.175781 14.128906 C 24.238281 14.128906 24.300781 14.148438 24.351562 14.183594 C 24.492188 14.277344 24.484375 14.445312 24.484375 14.457031 C 24.417969 14.480469 24.34375 14.488281 24.269531 14.476562 C 24.21875 14.46875 24.167969 14.445312 24.125 14.414062 C 24.019531 14.335938 24.003906 14.210938 24.003906 14.183594 C 24.054688 14.148438 24.117188 14.128906 24.175781 14.128906 Z M 10.464844 13.9375 C 10.527344 13.945312 10.628906 13.996094 10.691406 14.039062 C 10.792969 14.113281 10.796875 14.164062 10.878906 14.246094 C 11.09375 14.472656 11.386719 14.445312 11.394531 14.566406 C 11.394531 14.613281 11.355469 14.648438 11.347656 14.652344 C 11.308594 14.6875 11.238281 14.695312 11.074219 14.640625 C 10.886719 14.578125 10.707031 14.515625 10.558594 14.335938 C 10.449219 14.203125 10.359375 14.003906 10.414062 13.953125 C 10.425781 13.941406 10.441406 13.9375 10.464844 13.9375 Z M 13.402344 13.6875 C 13.417969 13.6875 13.429688 13.6875 13.445312 13.691406 C 13.542969 13.714844 13.605469 13.890625 13.542969 13.964844 C 13.484375 14.035156 13.328125 13.980469 13.3125 13.972656 C 13.277344 13.960938 13.199219 13.933594 13.191406 13.875 C 13.1875 13.820312 13.253906 13.773438 13.292969 13.746094 C 13.324219 13.722656 13.363281 13.695312 13.402344 13.6875 Z M 23.433594 13.585938 C 23.46875 13.578125 23.503906 13.578125 23.539062 13.589844 C 23.59375 13.605469 23.589844 13.632812 23.660156 13.667969 C 23.746094 13.707031 23.777344 13.6875 23.804688 13.722656 C 23.84375 13.773438 23.828125 13.882812 23.773438 13.917969 C 23.738281 13.945312 23.636719 13.964844 23.613281 13.988281 C 23.585938 14.011719 23.578125 14.023438 23.546875 14.035156 C 23.539062 14.035156 23.417969 14.078125 23.332031 14.007812 C 23.261719 13.945312 23.265625 13.851562 23.265625 13.808594 C 23.269531 13.773438 23.273438 13.691406 23.335938 13.632812 C 23.363281 13.609375 23.398438 13.59375 23.433594 13.585938 Z M 8.15625 13.507812 C 8.167969 13.507812 8.171875 13.507812 8.183594 13.507812 C 8.242188 13.511719 8.300781 13.523438 8.355469 13.542969 C 8.546875 13.609375 8.554688 13.648438 8.636719 13.644531 C 8.738281 13.644531 8.742188 13.589844 8.835938 13.589844 C 8.855469 13.589844 8.871094 13.59375 8.890625 13.597656 C 8.949219 13.617188 9.050781 13.675781 9.097656 13.699219 C 9.226562 13.761719 9.34375 13.710938 9.351562 13.742188 C 9.359375 13.769531 9.285156 13.789062 9.21875 13.886719 C 9.179688 13.949219 9.191406 13.964844 9.164062 13.992188 C 9.089844 14.074219 8.902344 14.019531 8.714844 13.964844 C 8.589844 13.925781 8.46875 13.875 8.351562 13.808594 C 8.242188 13.746094 8.238281 13.699219 8.144531 13.667969 C 8.0625 13.640625 7.980469 13.640625 7.949219 13.582031 C 7.9375 13.558594 7.933594 13.539062 7.9375 13.515625 C 8.035156 13.511719 8.109375 13.511719 8.15625 13.507812 Z M 17.164062 13.488281 C 17.191406 13.496094 17.234375 13.507812 17.296875 13.535156 C 17.460938 13.609375 17.542969 13.644531 17.550781 13.699219 C 17.554688 13.753906 17.503906 13.800781 17.492188 13.808594 C 17.394531 13.894531 17.230469 13.820312 17.207031 13.808594 C 17.136719 13.777344 17.007812 13.691406 17.023438 13.589844 C 17.03125 13.546875 17.058594 13.511719 17.097656 13.492188 C 17.117188 13.484375 17.132812 13.480469 17.164062 13.488281 Z M 21.863281 13.441406 C 21.914062 13.433594 21.992188 13.453125 22.113281 13.480469 C 22.25 13.515625 22.304688 13.554688 22.324219 13.570312 C 22.367188 13.605469 22.4375 13.65625 22.433594 13.722656 C 22.425781 13.824219 22.246094 13.878906 22.222656 13.886719 C 22.175781 13.902344 22.191406 13.898438 22.09375 13.910156 C 21.894531 13.933594 21.875 13.925781 21.863281 13.917969 C 21.773438 13.878906 21.757812 13.75 21.753906 13.710938 C 21.75 13.683594 21.726562 13.523438 21.816406 13.460938 C 21.832031 13.449219 21.84375 13.445312 21.863281 13.441406 Z M 16.621094 12.828125 C 16.667969 12.828125 16.707031 12.835938 16.738281 12.859375 C 16.792969 12.898438 16.765625 12.945312 16.824219 13.097656 C 16.886719 13.261719 16.9375 13.273438 16.933594 13.363281 C 16.929688 13.449219 16.886719 13.527344 16.8125 13.582031 C 16.789062 13.597656 16.730469 13.640625 16.660156 13.636719 C 16.554688 13.628906 16.546875 13.53125 16.40625 13.472656 C 16.296875 13.421875 16.246094 13.460938 16.1875 13.40625 C 16.128906 13.34375 16.132812 13.253906 16.132812 13.195312 C 16.136719 13.160156 16.140625 13.023438 16.242188 12.933594 C 16.296875 12.890625 16.347656 12.878906 16.453125 12.859375 C 16.519531 12.84375 16.578125 12.832031 16.621094 12.828125 Z M 10.273438 12.792969 C 10.363281 12.785156 10.464844 12.878906 10.492188 12.980469 C 10.523438 13.082031 10.464844 13.171875 10.40625 13.261719 C 10.375 13.308594 10.21875 13.546875 10.007812 13.542969 C 9.980469 13.539062 9.988281 13.535156 9.800781 13.472656 C 9.5625 13.386719 9.542969 13.390625 9.484375 13.351562 C 9.371094 13.269531 9.394531 13.222656 9.296875 13.175781 C 9.171875 13.113281 9.101562 13.183594 9.011719 13.121094 C 8.933594 13.066406 8.886719 12.941406 8.933594 12.867188 C 8.980469 12.800781 9.101562 12.800781 9.175781 12.835938 C 9.261719 12.875 9.25 12.941406 9.328125 12.980469 C 9.4375 13.03125 9.503906 12.921875 9.636719 12.957031 C 9.773438 12.992188 9.808594 13.128906 9.898438 13.109375 C 9.933594 13.105469 9.945312 13.085938 10 13.023438 C 10.132812 12.875 10.199219 12.796875 10.273438 12.792969 Z M 19.390625 12.773438 C 19.433594 12.769531 19.480469 12.777344 19.523438 12.78125 C 19.601562 12.792969 19.675781 12.816406 19.742188 12.859375 C 19.820312 12.902344 19.894531 12.945312 19.929688 13.03125 C 19.933594 13.042969 19.988281 13.179688 19.917969 13.273438 C 19.824219 13.402344 19.582031 13.328125 19.546875 13.316406 C 19.492188 13.300781 19.339844 13.253906 19.273438 13.109375 C 19.234375 13.027344 19.207031 12.886719 19.28125 12.8125 C 19.3125 12.785156 19.351562 12.773438 19.390625 12.773438 Z M 18.65625 12.429688 C 18.675781 12.433594 18.816406 12.4375 18.855469 12.539062 C 18.886719 12.617188 18.839844 12.691406 18.832031 12.703125 C 18.773438 12.714844 18.714844 12.714844 18.65625 12.703125 C 18.585938 12.691406 18.519531 12.660156 18.460938 12.617188 C 18.453125 12.578125 18.460938 12.53125 18.484375 12.496094 C 18.53125 12.425781 18.628906 12.429688 18.65625 12.429688 Z M 6.476562 12.363281 C 6.523438 12.367188 6.585938 12.398438 6.683594 12.453125 C 6.8125 12.519531 6.902344 12.566406 6.894531 12.605469 C 6.890625 12.617188 6.878906 12.640625 6.738281 12.660156 C 6.527344 12.691406 6.363281 12.71875 6.3125 12.636719 C 6.265625 12.558594 6.332031 12.398438 6.433594 12.367188 C 6.445312 12.359375 6.460938 12.359375 6.476562 12.363281 Z M 9.097656 12.136719 C 9.160156 12.109375 9.273438 12.222656 9.328125 12.3125 C 9.34375 12.332031 9.457031 12.519531 9.375 12.628906 C 9.335938 12.675781 9.261719 12.707031 9.210938 12.683594 C 9.171875 12.664062 9.152344 12.625 9.144531 12.59375 C 9.117188 12.515625 9.007812 12.179688 9.097656 12.136719 Z M 11.003906 12.101562 C 11.078125 12.097656 11.140625 12.109375 11.160156 12.144531 C 11.191406 12.199219 11.121094 12.285156 11.03125 12.398438 C 10.914062 12.542969 10.820312 12.660156 10.65625 12.695312 C 10.558594 12.714844 10.394531 12.710938 10.351562 12.628906 C 10.296875 12.523438 10.457031 12.34375 10.546875 12.265625 C 10.621094 12.207031 10.707031 12.160156 10.800781 12.136719 C 10.851562 12.121094 10.933594 12.105469 11.003906 12.101562 Z M 5.644531 12.097656 C 5.667969 12.101562 5.695312 12.125 5.730469 12.144531 C 5.894531 12.253906 5.941406 12.21875 6.003906 12.300781 C 6.023438 12.324219 6.101562 12.425781 6.070312 12.476562 C 6.0625 12.484375 6.042969 12.503906 5.828125 12.476562 C 5.640625 12.449219 5.613281 12.425781 5.597656 12.410156 C 5.566406 12.371094 5.578125 12.3125 5.589844 12.203125 C 5.597656 12.125 5.609375 12.109375 5.621094 12.101562 C 5.628906 12.097656 5.636719 12.097656 5.644531 12.097656 Z M 4.996094 12.085938 C 5.09375 12.089844 5.171875 12.152344 5.191406 12.167969 C 5.25 12.210938 5.328125 12.300781 5.300781 12.355469 C 5.289062 12.378906 5.253906 12.390625 5.148438 12.398438 C 4.921875 12.410156 4.765625 12.417969 4.730469 12.34375 C 4.703125 12.273438 4.785156 12.148438 4.894531 12.101562 C 4.929688 12.089844 4.964844 12.085938 4.996094 12.085938 Z M 13.882812 11.996094 C 13.902344 11.992188 13.921875 11.996094 13.9375 12.003906 C 14.0625 12.050781 14.136719 12.269531 14.09375 12.429688 C 14.0625 12.53125 14.003906 12.550781 13.960938 12.703125 C 13.941406 12.769531 13.910156 12.890625 13.960938 12.933594 C 14.019531 12.984375 14.15625 12.914062 14.234375 12.878906 C 14.382812 12.808594 14.414062 12.742188 14.476562 12.757812 C 14.550781 12.773438 14.613281 12.882812 14.597656 12.964844 C 14.582031 13.054688 14.484375 13.054688 14.464844 13.140625 C 14.441406 13.246094 14.570312 13.3125 14.542969 13.394531 C 14.511719 13.488281 14.316406 13.464844 14.300781 13.535156 C 14.285156 13.609375 14.496094 13.652344 14.5625 13.832031 C 14.605469 13.941406 14.585938 14.085938 14.519531 14.117188 C 14.453125 14.144531 14.351562 14.046875 14.3125 14.007812 C 14.207031 13.90625 14.230469 13.851562 14.125 13.734375 C 14.023438 13.617188 13.980469 13.636719 13.917969 13.535156 C 13.855469 13.4375 13.890625 13.402344 13.828125 13.296875 C 13.761719 13.175781 13.65625 13.113281 13.609375 13.085938 C 13.445312 12.992188 13.265625 12.988281 13.257812 13.011719 C 13.25 13.03125 13.40625 13.058594 13.445312 13.175781 C 13.46875 13.246094 13.449219 13.339844 13.390625 13.382812 C 13.328125 13.429688 13.246094 13.40625 13.160156 13.394531 C 13.121094 13.386719 12.957031 13.394531 12.632812 13.40625 C 12.214844 13.417969 12.242188 13.457031 12.117188 13.425781 C 11.949219 13.386719 11.863281 13.3125 11.753906 13.359375 C 11.671875 13.398438 11.675781 13.460938 11.578125 13.503906 C 11.507812 13.535156 11.386719 13.554688 11.316406 13.492188 C 11.230469 13.417969 11.316406 13.300781 11.238281 13.078125 C 11.195312 12.953125 11.160156 12.957031 11.140625 12.859375 C 11.109375 12.699219 11.164062 12.5 11.265625 12.472656 C 11.335938 12.457031 11.417969 12.527344 11.457031 12.585938 C 11.535156 12.691406 11.480469 12.773438 11.546875 12.847656 C 11.597656 12.90625 11.691406 12.90625 11.875 12.902344 C 12.027344 12.898438 12.261719 12.894531 12.269531 12.835938 C 12.277344 12.796875 12.1875 12.753906 12.039062 12.683594 C 11.75 12.542969 11.589844 12.519531 11.589844 12.476562 C 11.59375 12.429688 11.75 12.390625 11.898438 12.386719 C 12.167969 12.378906 12.242188 12.496094 12.511719 12.519531 C 12.71875 12.535156 12.882812 12.484375 12.984375 12.453125 C 13.117188 12.410156 13.25 12.335938 13.511719 12.1875 C 13.734375 12.0625 13.824219 12.003906 13.882812 11.996094 Z M 16.914062 11.882812 C 17.117188 11.886719 17.398438 12.007812 17.40625 12.167969 C 17.410156 12.253906 17.335938 12.347656 17.253906 12.386719 C 17.128906 12.445312 17.050781 12.351562 16.902344 12.410156 C 16.800781 12.445312 16.816406 12.496094 16.695312 12.550781 C 16.660156 12.566406 16.476562 12.648438 16.375 12.574219 C 16.3125 12.523438 16.34375 12.460938 16.277344 12.410156 C 16.207031 12.351562 16.148438 12.402344 16.023438 12.355469 C 16 12.34375 15.863281 12.289062 15.859375 12.203125 C 15.855469 12.117188 15.964844 12.054688 15.992188 12.035156 C 16.105469 11.96875 16.234375 11.988281 16.277344 11.992188 C 16.339844 12.003906 16.339844 12.015625 16.386719 12.015625 C 16.488281 12.015625 16.542969 11.964844 16.628906 11.925781 C 16.738281 11.878906 16.835938 11.882812 16.914062 11.882812 Z M 15.144531 11.65625 C 15.207031 11.664062 15.289062 11.714844 15.34375 11.761719 C 15.445312 11.851562 15.578125 12.046875 15.507812 12.179688 C 15.449219 12.289062 15.289062 12.304688 15.210938 12.3125 C 14.996094 12.332031 14.949219 12.222656 14.785156 12.265625 C 14.695312 12.289062 14.652344 12.335938 14.5 12.367188 C 14.382812 12.390625 14.363281 12.375 14.355469 12.367188 C 14.320312 12.324219 14.378906 12.222656 14.488281 12.035156 C 14.605469 11.835938 14.652344 11.800781 14.695312 11.785156 C 14.765625 11.757812 14.867188 11.75 14.90625 11.796875 C 14.9375 11.835938 14.902344 11.90625 14.925781 11.917969 C 14.945312 11.925781 14.988281 11.878906 15.015625 11.839844 C 15.074219 11.75 15.054688 11.691406 15.089844 11.664062 C 15.105469 11.65625 15.125 11.652344 15.144531 11.65625 Z M 4.003906 11.652344 C 4.019531 11.652344 4.03125 11.65625 4.039062 11.664062 C 4.066406 11.683594 4.066406 11.726562 4.074219 11.808594 C 4.078125 11.878906 4.066406 11.949219 4.046875 12.015625 C 4.03125 12.085938 4 12.152344 3.964844 12.210938 C 3.882812 12.34375 3.6875 12.550781 3.535156 12.496094 C 3.449219 12.464844 3.402344 12.359375 3.394531 12.277344 C 3.378906 12.148438 3.464844 12.050781 3.570312 11.9375 C 3.699219 11.796875 3.902344 11.648438 4.003906 11.652344 Z M 13.433594 11.511719 C 13.449219 11.511719 13.464844 11.515625 13.476562 11.523438 C 13.53125 11.550781 13.539062 11.625 13.542969 11.699219 C 13.546875 11.769531 13.554688 11.859375 13.488281 11.917969 C 13.453125 11.949219 13.386719 11.972656 13.335938 11.949219 C 13.253906 11.914062 13.25 11.792969 13.246094 11.753906 C 13.246094 11.710938 13.242188 11.613281 13.3125 11.554688 C 13.34375 11.53125 13.390625 11.507812 13.433594 11.511719 Z M 11.042969 11.394531 C 11.082031 11.394531 11.109375 11.402344 11.128906 11.421875 C 11.1875 11.480469 11.179688 11.609375 11.117188 11.664062 C 11.113281 11.667969 11.109375 11.671875 11.105469 11.671875 C 11.042969 11.710938 10.957031 11.707031 10.824219 11.675781 C 10.679688 11.640625 10.609375 11.625 10.589844 11.585938 C 10.558594 11.527344 10.582031 11.441406 10.628906 11.414062 C 10.660156 11.394531 10.683594 11.417969 10.769531 11.417969 C 10.824219 11.417969 10.835938 11.410156 10.898438 11.402344 C 10.960938 11.394531 11.007812 11.390625 11.042969 11.394531 Z M 4.523438 10.839844 C 4.5625 10.84375 4.601562 10.859375 4.621094 10.886719 C 4.679688 10.957031 4.632812 11.101562 4.613281 11.171875 C 4.609375 11.175781 4.609375 11.175781 4.609375 11.179688 C 4.597656 11.210938 4.554688 11.324219 4.445312 11.347656 C 4.359375 11.367188 4.257812 11.3125 4.214844 11.238281 C 4.144531 11.105469 4.253906 10.90625 4.402344 10.855469 C 4.4375 10.84375 4.480469 10.835938 4.523438 10.839844 Z M 6.257812 10.296875 C 6.382812 10.292969 6.496094 10.417969 6.542969 10.503906 C 6.5625 10.542969 6.597656 10.601562 6.585938 10.679688 C 6.574219 10.777344 6.503906 10.816406 6.519531 10.855469 C 6.542969 10.902344 6.664062 10.839844 6.761719 10.898438 C 6.859375 10.957031 6.816406 11.066406 6.90625 11.128906 C 7.003906 11.195312 7.109375 11.089844 7.277344 11.128906 C 7.378906 11.152344 7.410156 11.203125 7.53125 11.304688 C 7.804688 11.53125 7.902344 11.484375 8.199219 11.730469 C 8.300781 11.8125 8.464844 11.949219 8.429688 12.027344 C 8.414062 12.066406 8.347656 12.078125 8.320312 12.082031 C 8.160156 12.101562 8.03125 12.003906 7.925781 11.9375 C 7.707031 11.796875 7.441406 11.742188 7.203125 11.640625 C 6.84375 11.496094 6.816406 11.488281 6.761719 11.433594 C 6.6875 11.359375 6.582031 11.21875 6.464844 11.0625 C 6.390625 10.960938 6.34375 10.890625 6.289062 10.898438 C 6.230469 10.910156 6.242188 11.011719 6.148438 11.09375 C 6.136719 11.105469 6.007812 11.21875 5.863281 11.171875 C 5.785156 11.148438 5.699219 11.082031 5.6875 10.996094 C 5.671875 10.910156 5.734375 10.859375 5.90625 10.65625 C 6.148438 10.367188 6.167969 10.300781 6.257812 10.296875 Z M 6.257812 10.296875 " fill-opacity="1" fill-rule="evenodd"/></g></svg>