<svg xmlns="http://www.w3.org/2000/svg" xmlns:xlink="http://www.w3.org/1999/xlink" width="40" zoomAndPan="magnify" viewBox="0 0 30 30.000001" height="40" preserveAspectRatio="xMidYMid meet" version="1.0"><defs><clipPath id="3a82e99a3f"><path d="M 3.34375 2.957031 L 26.570312 2.957031 L 26.570312 26.117188 L 3.34375 26.117188 Z M 3.34375 2.957031 " clip-rule="nonzero"/></clipPath></defs><g clip-path="url(#3a82e99a3f)"><path fill="#014d4e" d="M 25.910156 10.714844 C 25.796875 11.097656 25.773438 11.484375 25.808594 11.921875 C 25.824219 12.164062 25.851562 12.421875 25.730469 12.632812 C 25.539062 12.96875 25.222656 12.769531 24.949219 12.871094 C 24.59375 13 24.425781 13.460938 24.21875 13.746094 C 23.761719 14.375 23.382812 15.058594 22.992188 15.734375 C 22.90625 15.886719 22.8125 16.054688 22.847656 16.230469 C 22.925781 16.617188 23.1875 16.371094 23.355469 16.179688 C 23.632812 15.863281 23.800781 15.285156 24.195312 15.90625 C 24.402344 16.238281 24.570312 16.597656 24.691406 16.972656 C 24.699219 17.003906 24.691406 17.035156 24.664062 17.054688 C 24.574219 17.132812 24.363281 17.375 24.441406 17.574219 C 24.542969 17.84375 24.902344 17.910156 24.945312 18.230469 C 25.046875 18.964844 23.8125 18.683594 24.367188 19.558594 C 24.460938 19.710938 24.570312 19.859375 24.59375 20.035156 C 24.621094 20.238281 24.53125 20.433594 24.511719 20.636719 C 24.484375 20.945312 24.652344 21.261719 24.917969 21.417969 C 25.253906 21.609375 25.890625 21.25 26 21.730469 C 26.128906 22.304688 24.992188 22.972656 24.65625 23.285156 C 24.148438 23.753906 23.527344 24.320312 22.785156 24.28125 C 22.375 24.257812 22.109375 24.003906 21.761719 23.832031 C 21.359375 23.632812 20.890625 23.511719 20.457031 23.398438 C 20.039062 23.292969 19.601562 23.210938 19.175781 23.273438 C 18.578125 23.359375 18.097656 23.808594 17.820312 24.320312 C 17.566406 24.796875 17.84375 25.496094 17.410156 25.859375 C 16.742188 26.421875 15.34375 25.964844 14.761719 25.492188 C 14.53125 25.308594 14.335938 25.082031 14.078125 24.9375 C 13.386719 24.550781 12.644531 25.328125 11.894531 25.160156 C 11.558594 25.082031 11.25 24.910156 10.933594 24.761719 C 10.335938 24.480469 9.519531 24.21875 9.054688 23.929688 C 8.914062 23.84375 8.886719 23.652344 8.996094 23.53125 C 9.652344 22.792969 9.667969 21.847656 9.777344 20.902344 C 9.949219 19.460938 10.542969 16.609375 9.078125 15.679688 C 8.832031 15.527344 8.585938 15.359375 8.421875 15.125 C 8.167969 14.757812 8.308594 14.246094 8.097656 13.839844 C 7.574219 12.839844 6.507812 12.46875 5.488281 12.210938 C 4.925781 12.066406 3.765625 11.859375 3.667969 11.484375 C 3.632812 11.339844 3.75 11.246094 3.859375 11.179688 C 3.945312 11.128906 4.335938 11.023438 4.222656 10.859375 C 4.167969 10.777344 4.019531 10.753906 3.925781 10.730469 C 3.789062 10.695312 3.585938 10.71875 3.480469 10.621094 C 3.378906 10.53125 3.324219 10.390625 3.351562 10.253906 C 3.519531 9.394531 4.832031 9.929688 5.355469 9.597656 C 5.574219 9.457031 5.800781 9.285156 6.058594 9.292969 C 6.300781 9.304688 6.503906 9.472656 6.710938 9.601562 C 7.433594 10.054688 10.078125 10.082031 9.394531 8.648438 C 9.25 8.34375 9.007812 8.089844 8.894531 7.773438 C 8.796875 7.507812 8.8125 7.058594 9.113281 6.917969 C 9.480469 6.75 9.792969 7.164062 10.015625 7.386719 C 10.597656 7.976562 11.570312 8.125 12.3125 7.773438 C 12.433594 7.714844 12.488281 7.574219 12.4375 7.449219 C 11.945312 6.261719 14.324219 6.433594 14.757812 5.511719 C 14.984375 5.03125 14.992188 4.480469 14.953125 3.953125 C 14.945312 3.808594 14.933594 3.660156 14.992188 3.53125 C 15.160156 3.140625 15.726562 3.023438 16.207031 2.960938 C 16.410156 2.933594 16.597656 3.066406 16.644531 3.265625 C 16.667969 3.371094 16.71875 3.472656 16.785156 3.554688 C 17.140625 3.984375 17.75 4.046875 18.222656 4.292969 C 18.773438 4.582031 19.3125 4.988281 19.636719 5.515625 C 19.78125 5.753906 19.75 5.945312 20.097656 5.949219 C 20.207031 5.949219 20.398438 5.894531 20.574219 5.820312 C 20.816406 5.714844 21.097656 5.816406 21.222656 6.050781 C 21.460938 6.503906 21.8125 7.101562 22.132812 7.175781 C 22.558594 7.269531 23.007812 7.285156 23.414062 7.445312 C 23.785156 7.59375 24.097656 7.855469 24.441406 8.054688 C 24.769531 8.246094 25.128906 8.375 25.5 8.441406 C 25.789062 8.492188 26.226562 8.433594 26.457031 8.660156 C 26.855469 9.042969 26.332031 9.796875 26.140625 10.160156 C 26.042969 10.347656 25.96875 10.53125 25.910156 10.714844 " fill-opacity="1" fill-rule="nonzero"/></g></svg>