<svg xmlns="http://www.w3.org/2000/svg" xmlns:xlink="http://www.w3.org/1999/xlink" width="40" zoomAndPan="magnify" viewBox="0 0 30 30.000001" height="40" preserveAspectRatio="xMidYMid meet" version="1.0"><defs><clipPath id="058104f909"><path d="M 4.332031 2.902344 L 25.378906 2.902344 L 25.378906 26.128906 L 4.332031 26.128906 Z M 4.332031 2.902344 " clip-rule="nonzero"/></clipPath></defs><g clip-path="url(#058104f909)"><path fill="#014d4e" d="M 13.921875 3.445312 L 14.046875 3.285156 L 14.371094 3.136719 L 14.734375 3.160156 L 15.128906 2.964844 L 16.167969 3.007812 L 16.480469 2.914062 L 17.648438 2.976562 L 17.988281 3.101562 L 18.589844 2.976562 L 19.117188 2.976562 L 19.199219 3.148438 L 20.132812 3.21875 L 20.320312 3.109375 L 20.628906 3.089844 L 20.871094 3.386719 L 20.835938 3.386719 L 20.65625 4.144531 L 20.90625 4.859375 L 20.816406 5.796875 L 21.03125 6.386719 L 20.890625 6.859375 L 21.246094 7.054688 L 21.839844 6.730469 L 22.363281 6.871094 L 23.1875 6.65625 L 23.992188 6.355469 L 25.179688 6.371094 L 25.589844 6.65625 L 25.664062 7.773438 L 25.394531 8.242188 L 25.628906 8.632812 L 25.519531 9.339844 L 24.839844 9.484375 L 24.046875 9.921875 L 24.003906 10.433594 L 24.191406 10.660156 L 24.367188 11.183594 L 24.136719 11.21875 L 23.945312 11.433594 L 23.527344 11.605469 L 23.527344 11.875 L 23.777344 12.179688 L 23.921875 12.492188 L 24.359375 12.703125 L 24.496094 13.023438 L 25.0625 13.5 L 25.238281 13.941406 L 25.617188 14.320312 L 25.582031 15.074219 L 25.226562 16.582031 L 24.292969 19.300781 L 24.472656 19.980469 L 24.4375 20.664062 L 24.078125 20.664062 L 23.859375 20.160156 L 23.113281 19.839844 L 22.320312 19.875 L 21.890625 20.160156 L 21.425781 20.050781 L 20.53125 20.304688 L 20.03125 19.695312 L 19.417969 18.191406 L 18.703125 18.117188 L 18.34375 18.550781 L 18.492188 19.445312 L 18.3125 20.050781 L 16.984375 20.125 L 16.410156 20.125 L 16.230469 20.554688 L 15.871094 20.839844 L 15.15625 20.410156 L 14.371094 20.519531 L 14.007812 20.875 L 14.300781 21.414062 L 14.191406 22.128906 L 14.761719 21.949219 L 15.335938 21.808594 L 15.695312 22.097656 L 16.339844 22.5625 L 16.410156 24.425781 L 16.375 25.066406 L 15.335938 24.246094 L 15.046875 24.246094 L 14.835938 24.640625 L 14.152344 24.671875 L 13.796875 24.855469 L 13.726562 25.355469 L 13.183594 26.121094 L 13.019531 25.960938 L 12.371094 25.710938 L 12.257812 25.085938 L 10.90625 24.4375 L 10.566406 23.621094 L 8.871094 22.269531 L 7.859375 21.199219 L 8.136719 21 L 7.179688 20.210938 L 6.785156 19.332031 L 6.226562 18.769531 L 6.226562 17.644531 L 5.546875 16.765625 L 5.546875 16.175781 L 5.121094 15.835938 L 4.332031 14.199219 L 4.386719 13.804688 L 5.289062 14.113281 L 5.996094 13.523438 L 6.164062 11.464844 L 6.277344 10.421875 L 6.703125 10.84375 L 8.335938 10.449219 L 7.179688 10.167969 L 6.445312 8.984375 L 7.234375 8.867188 L 7.285156 7.984375 L 7.730469 8.078125 L 8.199219 7.757812 L 8.613281 7.664062 L 8.828125 7.828125 L 13.921875 7.878906 Z M 13.921875 3.445312 " fill-opacity="1" fill-rule="evenodd"/></g></svg>