<svg xmlns="http://www.w3.org/2000/svg" xmlns:xlink="http://www.w3.org/1999/xlink" width="40" zoomAndPan="magnify" viewBox="0 0 30 30.000001" height="40" preserveAspectRatio="xMidYMid meet" version="1.0"><defs><clipPath id="c4eb679820"><path d="M 12 11 L 23.941406 11 L 23.941406 26.128906 L 12 26.128906 Z M 12 11 " clip-rule="nonzero"/></clipPath><clipPath id="6d1f989de7"><path d="M 5.796875 12 L 14 12 L 14 23 L 5.796875 23 Z M 5.796875 12 " clip-rule="nonzero"/></clipPath><clipPath id="d288c7ccb0"><path d="M 16 2.902344 L 18 2.902344 L 18 4 L 16 4 Z M 16 2.902344 " clip-rule="nonzero"/></clipPath></defs><g clip-path="url(#c4eb679820)"><path fill="#014d4e" d="M 18.441406 11.703125 L 18.566406 11.984375 L 18.847656 12.246094 L 19.003906 12.335938 L 19.003906 12.703125 L 19.074219 12.984375 L 19.164062 13.144531 L 19.09375 13.40625 L 19.164062 13.582031 L 19.25 13.878906 L 19.601562 14.230469 C 19.601562 14.230469 19.722656 14.460938 19.722656 14.511719 C 19.722656 14.566406 19.722656 14.714844 19.722656 14.714844 C 19.722656 14.714844 19.8125 14.511719 19.863281 14.546875 C 19.917969 14.582031 20.410156 14.898438 20.410156 14.898438 C 20.410156 14.898438 20.601562 14.777344 20.621094 14.898438 C 20.636719 15.023438 20.707031 15.238281 20.707031 15.238281 L 20.917969 15.515625 L 21.023438 15.707031 L 21.234375 15.777344 L 21.113281 16.023438 L 21.339844 16.445312 L 21.585938 16.796875 L 21.691406 17.09375 L 21.691406 17.183594 L 21.359375 16.988281 L 20.988281 16.796875 L 20.460938 16.8125 L 20.375 16.972656 L 20.917969 17.007812 L 21.375 17.183594 L 21.796875 17.535156 L 21.988281 17.921875 L 22.058594 18.238281 L 21.777344 18.5 L 21.585938 18.675781 L 21.726562 18.796875 L 21.953125 19.007812 L 22.21875 18.902344 L 22.339844 18.535156 L 23.027344 18.550781 L 23.113281 18.410156 L 23.992188 18.9375 L 24.132812 19.34375 L 24.203125 19.765625 L 24.027344 20.011719 L 24.042969 20.449219 L 23.871094 20.800781 L 23.5 20.800781 L 23.359375 20.976562 L 23.570312 21.132812 L 23.625 21.308594 L 23.289062 21.503906 L 22.972656 21.257812 L 22.816406 21.589844 L 23.027344 21.589844 L 23.167969 21.714844 L 22.832031 21.835938 L 22.726562 21.835938 L 22.992188 21.925781 L 22.957031 22.046875 L 22.550781 22.046875 L 22.234375 22.242188 L 22.023438 22.242188 L 22.269531 22.398438 L 22.585938 22.277344 L 22.796875 22.1875 L 22.796875 22.3125 L 22.515625 22.398438 L 23.007812 22.398438 L 23.414062 22.488281 L 23.816406 22.347656 L 23.902344 22.488281 L 23.921875 22.925781 L 23.851562 23.101562 L 23.519531 23.222656 L 23.414062 23.222656 L 23.324219 23.539062 L 23.183594 23.644531 L 22.957031 23.488281 L 22.78125 23.734375 L 22.480469 23.925781 L 22.234375 24.050781 L 21.9375 24.050781 L 21.65625 23.890625 L 21.078125 24.050781 L 20.691406 24.050781 L 20.480469 24.15625 L 20.269531 23.996094 L 20.023438 23.980469 L 19.847656 23.960938 L 19.6875 23.75 L 19.617188 23.960938 L 19.53125 24.15625 L 18.8125 24.332031 L 18.566406 24.242188 L 18.652344 24.417969 L 18.828125 24.417969 L 18.636719 24.542969 L 17.984375 24.542969 L 17.984375 24.753906 L 17.40625 24.296875 L 16.984375 24.296875 L 16.546875 24.542969 L 16.351562 24.4375 L 16.28125 24.753906 L 16.421875 25.015625 L 16.28125 25.261719 L 16.28125 25.523438 L 15.949219 25.382812 L 15.859375 25.523438 L 15.597656 25.242188 L 15.386719 25.175781 L 15.246094 25.3125 L 15.070312 25.121094 L 14.402344 25.226562 L 14.402344 25.523438 L 14.050781 25.59375 L 14.050781 25.402344 L 13.769531 25.683594 L 13.875 25.894531 L 13.769531 26.121094 L 13.648438 26.121094 L 13.648438 25.824219 L 13.207031 25.648438 L 12.980469 25.945312 L 12.804688 25.910156 L 12.910156 25.613281 L 13.277344 25.507812 L 13.628906 25.332031 L 13.875 25 L 14 24.683594 L 14.210938 24.734375 L 14.246094 24.507812 L 14.59375 24.242188 L 14.699219 23.714844 L 14.910156 23.503906 L 15.246094 23.539062 L 15.351562 23.417969 L 15.070312 23.292969 L 15.332031 23.136719 L 15.808594 23.152344 L 16.703125 23.152344 L 16.984375 22.960938 L 17.054688 23.152344 L 17.195312 23.066406 L 17.300781 22.609375 L 17.617188 22.242188 L 17.984375 21.871094 L 18.054688 21.644531 L 17.617188 22.066406 L 17.527344 21.589844 L 17.316406 21.308594 L 17.070312 21.328125 L 16.878906 21.027344 L 16.894531 20.695312 L 17.195312 20.328125 L 16.984375 20.222656 L 16.757812 20.027344 L 16.902344 19.957031 L 17.125 19.851562 L 17.089844 19.675781 L 16.878906 19.816406 L 17.019531 19.308594 L 17 19.132812 L 16.84375 19.113281 L 16.964844 18.914062 L 17.476562 18.914062 L 17.351562 18.605469 L 17.230469 18.410156 L 17.089844 18.269531 L 17.160156 18.132812 L 17 18.007812 L 16.84375 17.816406 L 17.070312 17.78125 L 17.246094 17.972656 L 17.300781 17.832031 L 16.964844 17.640625 L 16.929688 17.289062 L 17 17.148438 L 17.316406 16.988281 L 17.019531 16.917969 L 17.035156 16.53125 L 17.28125 16.355469 L 17.300781 16.234375 L 17.371094 15.832031 L 17.230469 15.742188 L 17.140625 15.953125 L 16.984375 15.8125 L 16.894531 16.039062 L 16.652344 16.003906 L 16.492188 15.761719 L 16.441406 15.410156 L 16.371094 15.238281 L 16.230469 15.023438 L 16.035156 14.714844 L 16.421875 14.300781 L 16.492188 13.933594 L 16.773438 13.84375 L 17.019531 13.757812 L 17.140625 13.5625 L 17.351562 13.371094 L 17.5625 13.089844 L 17.667969 12.757812 L 17.863281 12.828125 L 18.054688 12.828125 L 18.054688 12.582031 L 18.160156 12.527344 L 18.003906 12.105469 L 18.441406 11.703125 " fill-opacity="1" fill-rule="nonzero"/></g><path fill="#014d4e" d="M 16.949219 18.199219 L 16.667969 17.957031 L 16.371094 17.957031 L 16.210938 18.078125 L 15.878906 17.957031 L 15.753906 18.199219 L 15.421875 18.199219 L 15.070312 18.65625 L 14.628906 18.914062 L 14.457031 19.21875 L 14.683594 19.21875 L 14.789062 19.308594 L 15.070312 18.992188 L 15.296875 18.914062 L 15.472656 18.914062 L 15.402344 19.0625 L 15.457031 19.308594 L 15.507812 19.484375 L 15.402344 19.640625 L 15.472656 19.90625 L 15.472656 20.273438 L 14.980469 20.675781 L 14.457031 20.886719 L 14.226562 21.011719 L 13.980469 21.011719 L 13.824219 21.238281 L 13.613281 21.238281 L 13.613281 21.449219 L 13.910156 21.449219 L 13.980469 21.554688 L 13.71875 21.644531 L 13.839844 21.820312 L 14 21.714844 L 14.296875 21.695312 L 14.246094 21.820312 L 13.980469 21.820312 L 14.175781 22.046875 L 14.457031 21.90625 L 14.683594 21.90625 L 14.648438 21.75 L 14.945312 21.820312 L 15.070312 21.660156 L 15.28125 21.90625 L 15.613281 22.046875 L 15.402344 22.046875 L 15.070312 22.152344 L 15.28125 22.3125 L 15.632812 22.222656 L 15.808594 22.117188 L 16.070312 22.3125 L 16.28125 22.503906 L 16.6875 22.664062 L 16.949219 22.523438 L 17.089844 22.257812 L 17.28125 22.292969 L 17.511719 22.117188 L 17.617188 22.066406 L 17.527344 21.589844 L 17.316406 21.308594 L 17.070312 21.328125 L 16.878906 21.027344 L 16.894531 20.695312 L 17.195312 20.328125 L 16.757812 20.027344 L 17.125 19.851562 L 17.089844 19.675781 L 16.878906 19.816406 L 17.019531 19.308594 L 17 19.132812 L 16.84375 19.113281 L 16.964844 18.914062 L 17.476562 18.914062 L 17.230469 18.410156 L 17.089844 18.269531 L 17.160156 18.132812 L 16.949219 18.199219 " fill-opacity="1" fill-rule="nonzero"/><path fill="#014d4e" d="M 15.46875 17.957031 L 15.21875 17.875 L 15.007812 17.652344 L 14.640625 17.886719 L 14.75 17.957031 L 14.640625 18.15625 L 14.996094 18.21875 L 14.996094 18.402344 C 14.996094 18.402344 15.140625 18.351562 15.152344 18.3125 C 15.167969 18.269531 15.378906 18.085938 15.378906 18.085938 L 15.46875 17.957031 " fill-opacity="1" fill-rule="nonzero"/><path fill="#014d4e" d="M 19.949219 24.554688 L 20.09375 24.34375 L 20.09375 24.160156 C 20.09375 24.160156 19.921875 24.027344 19.84375 24.09375 C 19.761719 24.160156 19.738281 24.25 19.683594 24.238281 C 19.632812 24.226562 19.394531 24.316406 19.394531 24.316406 C 19.394531 24.316406 19.472656 24.355469 19.59375 24.421875 C 19.710938 24.488281 19.949219 24.554688 19.949219 24.554688 " fill-opacity="1" fill-rule="nonzero"/><g clip-path="url(#6d1f989de7)"><path fill="#014d4e" d="M 11.785156 13.214844 L 12.171875 13.089844 L 12.523438 13.152344 L 12.804688 13.152344 L 12.804688 13.722656 L 13.121094 13.898438 L 13.242188 14.195312 L 13.015625 14.53125 L 13.367188 14.40625 L 13.613281 14.714844 L 13.734375 15.039062 L 13.613281 15.339844 L 13.4375 15.238281 L 13.4375 14.882812 L 13.226562 14.953125 L 13.402344 15.339844 L 13.488281 15.621094 L 13.226562 15.707031 L 13.015625 15.707031 L 12.804688 16.039062 L 12.679688 16.164062 L 12.433594 15.988281 L 12.609375 16.285156 L 12.242188 16.164062 L 12.277344 16.550781 L 12.433594 16.671875 L 12.347656 16.9375 L 12.523438 17.199219 L 12.59375 17.289062 L 12.488281 17.535156 L 12.644531 17.78125 L 12.3125 17.78125 L 12.523438 18.238281 L 12.644531 18.675781 L 12.574219 19.007812 L 12.347656 19.21875 L 12.328125 19.78125 L 12.050781 20.167969 L 11.785156 20.0625 L 12.03125 20.308594 L 12.082031 20.503906 L 12.03125 20.660156 L 11.59375 20.554688 L 11.488281 20.398438 L 11.222656 20.746094 L 11.117188 20.308594 L 10.960938 20.132812 L 11.046875 20.746094 L 10.152344 20.746094 L 10.152344 20.992188 L 9.835938 20.992188 C 9.835938 20.992188 9.714844 21.328125 9.660156 21.328125 C 9.609375 21.328125 9.273438 21.46875 9.273438 21.46875 L 9.273438 21.097656 L 8.941406 21.117188 L 9.0625 21.46875 L 8.871094 21.660156 L 8.78125 21.660156 L 8.78125 21.855469 L 8.5 21.679688 L 8.414062 21.855469 C 8.414062 21.855469 8.203125 21.800781 8.167969 21.855469 C 8.132812 21.90625 8.148438 22.066406 8.0625 22.046875 C 7.972656 22.03125 7.902344 21.90625 7.902344 21.855469 C 7.902344 21.800781 7.886719 21.800781 7.746094 21.90625 C 7.605469 22.011719 7.402344 22.109375 7.394531 22.050781 C 7.375 21.925781 7.429688 21.855469 7.273438 21.890625 C 7.113281 21.925781 7.238281 21.855469 7.113281 21.925781 C 6.992188 21.996094 7.097656 21.925781 6.992188 21.996094 C 6.886719 22.066406 6.78125 22.066406 6.78125 22.066406 C 6.761719 21.941406 6.886719 21.820312 6.972656 21.765625 C 7.0625 21.714844 6.652344 21.785156 6.777344 21.714844 C 6.902344 21.644531 7.21875 21.554688 7.308594 21.554688 C 7.394531 21.554688 7.394531 21.554688 7.394531 21.554688 L 7.132812 21.484375 C 7.132812 21.484375 6.9375 21.34375 6.753906 21.449219 C 6.570312 21.554688 6.464844 21.835938 6.410156 21.835938 C 6.359375 21.835938 6.21875 21.820312 6.21875 21.820312 C 6.21875 21.820312 6.058594 21.820312 6.113281 21.714844 C 6.164062 21.609375 6.324219 21.484375 6.324219 21.484375 L 6.464844 21.398438 L 6.550781 21.328125 L 6.796875 21.292969 L 6.972656 21.222656 L 7.078125 21.117188 C 7.078125 21.027344 6.5 21.132812 6.5 21.132812 L 6.253906 21.308594 L 6.101562 21.0625 C 6.101562 21.0625 5.796875 21.097656 5.8125 21.046875 C 5.832031 20.992188 5.902344 20.816406 5.902344 20.816406 C 5.902344 20.816406 6.078125 20.746094 6.128906 20.730469 C 6.183594 20.710938 6.429688 20.539062 6.480469 20.554688 C 6.535156 20.574219 6.761719 20.519531 6.761719 20.519531 C 6.761719 20.519531 6.640625 20.414062 6.585938 20.398438 C 6.535156 20.378906 6.289062 20.308594 6.289062 20.308594 L 5.988281 20.414062 L 5.9375 20.308594 L 5.917969 20.082031 L 6.394531 20.046875 L 6.464844 19.886719 L 6.691406 20.082031 L 6.816406 20.117188 L 6.816406 19.570312 L 7.027344 19.535156 L 7.203125 19.519531 L 7.167969 19.359375 L 7.65625 19.394531 L 8.0625 19.238281 L 8.359375 19.273438 L 8.605469 19.21875 L 8.324219 19.0625 L 8.078125 18.914062 L 7.746094 19.203125 L 7.414062 19.203125 L 7.183594 19.132812 L 6.9375 19.34375 L 6.726562 19.359375 L 7.007812 19.097656 L 7.183594 18.914062 L 7.414062 18.914062 L 7.585938 18.710938 L 7.585938 18.515625 L 7.535156 18.402344 L 7.675781 18.027344 L 7.851562 17.957031 L 8.078125 17.957031 L 8.359375 18.027344 L 8.414062 17.957031 L 8.289062 17.726562 L 7.972656 17.652344 L 7.65625 17.832031 L 7.429688 17.796875 L 7.273438 17.726562 L 7.414062 17.578125 L 7.359375 17.445312 L 7.148438 17.652344 L 7.007812 17.578125 L 6.972656 17.464844 L 6.957031 17.289062 L 6.816406 17.480469 L 6.570312 17.359375 L 6.464844 17.253906 L 6.65625 17.113281 L 6.640625 16.917969 L 6.832031 16.902344 L 7.007812 16.917969 L 7.238281 16.9375 L 7.480469 16.988281 L 7.273438 16.832031 L 7.007812 16.777344 L 6.902344 16.621094 L 6.992188 16.460938 L 7.167969 16.515625 L 7.464844 16.390625 L 7.550781 16.304688 L 7.375 16.128906 L 7.097656 16.199219 L 7.148438 15.988281 L 7.167969 15.761719 L 7.042969 15.585938 C 6.957031 15.621094 6.992188 15.425781 6.992188 15.425781 L 7.203125 15.238281 L 7.21875 15.144531 L 7.414062 15.128906 L 7.726562 15.238281 L 7.851562 15.238281 L 7.9375 15.144531 L 8.167969 15.390625 L 8.167969 15.566406 L 8.308594 15.445312 L 8.324219 15.355469 L 8.535156 15.355469 L 8.765625 15.410156 L 8.90625 15.515625 L 9.097656 15.480469 L 9.132812 15.238281 L 8.835938 15.238281 L 8.851562 15.109375 L 9.378906 14.847656 L 9.660156 14.714844 L 9.773438 14.511719 L 9.449219 14.496094 L 9.222656 14.617188 L 8.941406 14.496094 L 8.730469 14.371094 L 8.835938 14.160156 L 9.027344 14.054688 L 9.273438 14.019531 L 9.433594 13.84375 L 9.292969 13.652344 L 9.363281 13.390625 L 9.574219 13.089844 L 9.773438 13.265625 L 10.011719 13.230469 L 10.257812 13.089844 L 10.222656 13.230469 L 10.398438 13.089844 L 10.609375 12.949219 L 10.589844 13.25 L 10.484375 13.511719 L 10.503906 13.757812 L 10.695312 13.652344 L 10.765625 13.40625 L 10.695312 13.144531 L 10.890625 12.84375 L 11.03125 12.84375 L 10.960938 12.617188 L 11.347656 12.773438 L 11.488281 12.949219 L 11.152344 13.371094 L 10.90625 13.492188 L 10.90625 13.582031 L 11.257812 13.441406 L 11.417969 13.300781 L 11.785156 13.214844 " fill-opacity="1" fill-rule="nonzero"/></g><path fill="#014d4e" d="M 6.945312 15.109375 C 6.90625 15.109375 6.828125 15.332031 6.828125 15.332031 L 6.761719 15.558594 C 6.761719 15.558594 6.878906 15.664062 6.855469 15.625 C 6.828125 15.585938 6.992188 15.425781 6.992188 15.425781 L 7.050781 15.238281 L 6.945312 15.109375 " fill-opacity="1" fill-rule="nonzero"/><path fill="#014d4e" d="M 6.972656 15.925781 L 6.761719 15.796875 L 6.550781 15.859375 L 6.761719 15.925781 L 6.761719 16.125 L 6.972656 16.125 L 6.972656 15.925781 " fill-opacity="1" fill-rule="nonzero"/><path fill="#014d4e" d="M 7.117188 17.890625 L 7.050781 17.996094 L 7.238281 18.113281 L 7.40625 18.113281 L 7.277344 18 L 7.117188 17.890625 " fill-opacity="1" fill-rule="nonzero"/><path fill="#014d4e" d="M 6.761719 16.28125 L 6.761719 16.441406 L 6.992188 16.460938 L 6.90625 16.371094 L 6.761719 16.28125 " fill-opacity="1" fill-rule="nonzero"/><path fill="#014d4e" d="M 6.550781 16.519531 L 6.628906 16.625 L 6.761719 16.625 Z M 6.550781 16.519531 " fill-opacity="1" fill-rule="nonzero"/><path fill="#014d4e" d="M 6.445312 16.691406 C 6.445312 16.730469 6.445312 16.847656 6.445312 16.847656 L 6.65625 16.769531 L 6.445312 16.691406 " fill-opacity="1" fill-rule="nonzero"/><path fill="#014d4e" d="M 12.53125 12.832031 L 12.453125 13.003906 L 12.804688 13.003906 L 12.628906 12.832031 L 12.53125 12.832031 " fill-opacity="1" fill-rule="nonzero"/><path fill="#014d4e" d="M 15.070312 15.238281 L 14.757812 15.53125 L 14.546875 15.796875 C 14.546875 15.796875 14.402344 16.203125 14.441406 16.191406 C 14.480469 16.175781 14.734375 16.136719 14.75 16.097656 C 14.769531 16.058594 14.875 15.980469 14.941406 15.980469 C 15.007812 15.980469 15.101562 15.714844 15.167969 15.609375 C 15.230469 15.503906 15.167969 15.421875 15.070312 15.238281 " fill-opacity="1" fill-rule="nonzero"/><path fill="#014d4e" d="M 18.441406 11.703125 C 18.441406 11.703125 18.125 11.492188 18.109375 11.4375 C 18.089844 11.386719 17.863281 11.367188 17.808594 11.332031 C 17.757812 11.296875 17.582031 11.105469 17.527344 11.105469 C 17.476562 11.105469 17.316406 11.160156 17.265625 11.230469 C 17.210938 11.296875 17.054688 11.457031 17.019531 11.402344 C 16.984375 11.351562 16.527344 11.210938 16.527344 11.210938 C 16.527344 11.210938 16 11.140625 16.070312 11.105469 C 16.140625 11.070312 16.808594 11.019531 16.808594 11.019531 C 16.808594 11.019531 16.964844 10.859375 17.105469 10.824219 C 17.246094 10.789062 17.441406 10.929688 17.457031 10.824219 C 17.476562 10.71875 17.617188 10.632812 17.617188 10.632812 L 17.335938 10.367188 C 17.335938 10.367188 17.222656 10.261719 17.253906 10.261719 C 17.28125 10.261719 16.84375 10.261719 16.84375 10.261719 C 16.84375 10.261719 16.527344 10.507812 16.582031 10.421875 C 16.632812 10.332031 17.476562 10.105469 17.617188 9.894531 C 17.757812 9.683594 18.40625 8.277344 18.441406 7.945312 C 18.476562 7.609375 18.601562 7.714844 18.601562 7.714844 C 18.601562 7.714844 18.8125 7.59375 18.601562 7.3125 C 18.390625 7.03125 18.40625 7.136719 18.25 7.082031 C 18.089844 7.03125 17.863281 7.136719 17.792969 7.082031 C 17.722656 7.03125 17.511719 7.125 17.378906 7.070312 C 17.246094 7.011719 16.964844 7.171875 16.894531 7.152344 C 16.824219 7.136719 16.617188 7.066406 16.511719 7.054688 C 16.40625 7.046875 16.019531 7.1875 15.929688 7.207031 C 15.84375 7.222656 15.4375 7.574219 15.386719 7.574219 C 15.332031 7.574219 15.277344 8.085938 15.070312 8.191406 C 14.859375 8.296875 14.519531 8.769531 14.433594 8.855469 C 14.351562 8.945312 14.246094 9.15625 14.140625 9.242188 C 14.035156 9.332031 14.105469 9.472656 14.070312 9.523438 C 14.035156 9.578125 13.664062 9.734375 13.734375 9.824219 C 13.804688 9.910156 13.945312 9.980469 14.050781 9.945312 C 14.15625 9.910156 14.246094 9.875 14.226562 10 C 14.210938 10.121094 14.15625 10.226562 14.035156 10.191406 C 13.910156 10.15625 13.824219 10.121094 13.726562 10.121094 C 13.628906 10.121094 13.71875 10.035156 13.613281 10.226562 C 13.507812 10.421875 13.453125 10.578125 13.453125 10.683594 C 13.453125 10.789062 13.582031 10.707031 13.542969 10.859375 C 13.488281 11.070312 13.277344 11.089844 13.3125 11.230469 C 13.347656 11.367188 13.367188 11.386719 13.417969 11.457031 C 13.472656 11.527344 13.507812 11.402344 13.472656 11.527344 C 13.4375 11.648438 13.183594 11.753906 13.308594 11.703125 C 13.4375 11.648438 13.390625 11.703125 13.480469 11.703125 C 13.566406 11.703125 13.765625 11.566406 13.625 11.796875 C 13.484375 12.023438 13.273438 11.949219 13.273438 12.160156 C 13.277344 12.511719 13.242188 12.386719 13.207031 12.617188 C 13.171875 12.84375 13.121094 12.917969 13.121094 12.917969 C 13.332031 12.898438 13.382812 12.886719 13.453125 12.832031 C 13.523438 12.773438 13.472656 12.652344 13.472656 12.617188 C 13.472656 12.582031 13.628906 12.28125 13.613281 12.210938 C 13.59375 12.140625 13.769531 11.984375 13.734375 11.84375 C 13.699219 11.703125 13.804688 11.703125 13.804688 11.703125 C 13.804688 11.703125 13.628906 11.4375 13.613281 11.28125 C 13.59375 11.125 13.507812 11.175781 13.734375 11.054688 C 13.964844 10.929688 14.15625 10.578125 14.15625 10.578125 L 14.433594 10.597656 C 14.433594 10.597656 14.210938 10.859375 14.121094 10.929688 C 14.035156 11 13.910156 11.125 13.875 11.230469 C 13.839844 11.332031 13.769531 11.492188 13.859375 11.507812 C 13.945312 11.527344 14.085938 11.351562 14.085938 11.351562 C 14.175781 11.351562 14.433594 11.4375 14.433594 11.4375 L 14.433594 10.964844 C 14.433594 10.964844 14.628906 10.738281 14.640625 10.789062 C 14.648438 10.84375 14.472656 11.054688 14.640625 11.140625 C 14.804688 11.230469 14.898438 11.316406 15.054688 11.386719 C 15.210938 11.457031 15.101562 11.507812 15.070312 11.542969 C 15.035156 11.578125 14.640625 11.402344 14.640625 11.402344 C 14.640625 11.402344 14.558594 11.367188 14.523438 11.492188 C 14.488281 11.613281 14.398438 11.597656 14.433594 11.703125 C 14.472656 11.808594 14.292969 11.84375 14.433594 11.984375 C 14.578125 12.125 14.507812 12.175781 14.640625 12.265625 C 14.769531 12.351562 14.824219 12.195312 14.769531 12.351562 C 14.71875 12.511719 14.71875 12.6875 14.640625 12.757812 C 14.558594 12.828125 14.414062 12.554688 14.433594 12.832031 C 14.457031 13.109375 14.472656 12.96875 14.457031 13.109375 C 14.4375 13.25 14.316406 13.195312 14.28125 13.265625 C 14.246094 13.335938 14.15625 13.390625 14.15625 13.390625 C 14.15625 13.390625 14.105469 13.285156 14.15625 13.511719 C 14.210938 13.738281 14.210938 13.828125 14.210938 13.898438 C 14.210938 13.96875 14.121094 13.984375 14.070312 13.898438 C 14.015625 13.808594 14.015625 13.773438 14 13.722656 C 14 13.722656 13.964844 13.964844 13.964844 13.957031 C 13.964844 13.949219 13.980469 13.933594 14.035156 14.039062 C 14.085938 14.144531 14.261719 14.285156 14.296875 14.441406 C 14.332031 14.601562 14.433594 14.617188 14.433594 14.546875 C 14.4375 14.476562 14.261719 14.160156 14.316406 14.109375 C 14.367188 14.054688 14.308594 13.984375 14.433594 14.039062 C 14.558594 14.089844 14.542969 14.054688 14.640625 14.125 C 14.734375 14.195312 14.664062 14.355469 14.8125 14.371094 C 14.964844 14.390625 15.03125 14.371094 15.070312 14.320312 C 15.105469 14.265625 15.144531 14.179688 15.054688 14.109375 C 14.964844 14.039062 14.894531 13.863281 14.980469 13.898438 C 15.070312 13.933594 15.195312 13.933594 15.191406 14.019531 C 15.191406 14.109375 15.359375 14.195312 15.46875 14.179688 C 15.578125 14.160156 15.738281 14.214844 15.808594 14.160156 C 15.878906 14.109375 15.847656 14.074219 15.90625 14.039062 C 15.964844 14.003906 16.039062 14.074219 16.089844 14.019531 C 16.175781 13.933594 15.964844 13.773438 16.175781 13.757812 C 16.386719 13.738281 16.476562 13.632812 16.597656 13.667969 C 16.71875 13.703125 16.972656 13.777344 17.234375 13.480469 C 17.492188 13.1875 17.667969 12.757812 17.667969 12.757812 L 18.054688 12.828125 C 18.054688 12.828125 17.949219 12.632812 18.054688 12.582031 C 18.160156 12.527344 18.160156 12.527344 18.160156 12.527344 L 18.003906 12.105469 L 18.441406 11.703125 " fill-opacity="1" fill-rule="nonzero"/><path fill="#014d4e" d="M 14.015625 11.578125 L 14.015625 11.871094 L 14.226562 12 L 14.351562 11.964844 L 14.289062 11.753906 L 14.183594 11.605469 L 14.128906 11.527344 C 14.128906 11.527344 14.070312 11.519531 14.015625 11.578125 " fill-opacity="1" fill-rule="nonzero"/><path fill="#014d4e" d="M 13.964844 12 C 13.964844 12 13.917969 12.1875 14.015625 12.222656 C 14.113281 12.257812 14.105469 12.414062 14.113281 12.46875 C 14.121094 12.519531 14.183594 12.617188 14.113281 12.617188 C 14.042969 12.617188 13.847656 12.640625 13.824219 12.617188 C 13.796875 12.589844 13.699219 12.46875 13.691406 12.378906 C 13.683594 12.292969 13.761719 12.167969 13.796875 12.070312 C 13.832031 11.976562 13.902344 11.941406 13.964844 12 " fill-opacity="1" fill-rule="nonzero"/><path fill="#014d4e" d="M 13.183594 10.894531 C 13.183594 10.894531 12.996094 11.113281 12.925781 11.160156 C 12.855469 11.203125 12.8125 11.289062 12.867188 11.324219 C 12.917969 11.359375 12.847656 11.414062 12.804688 11.414062 C 12.761719 11.414062 12.785156 11.421875 12.804688 11.527344 C 12.820312 11.632812 12.804688 11.703125 12.882812 11.648438 C 12.960938 11.597656 13.03125 11.472656 13.058594 11.414062 C 13.085938 11.351562 13.050781 11.324219 13.121094 11.210938 C 13.191406 11.097656 13.183594 10.894531 13.183594 10.894531 " fill-opacity="1" fill-rule="nonzero"/><path fill="#014d4e" d="M 12.628906 11.378906 C 12.628906 11.378906 12.539062 11.535156 12.453125 11.527344 C 12.363281 11.519531 12.328125 11.394531 12.347656 11.378906 C 12.363281 11.359375 12.234375 11.414062 12.222656 11.453125 C 12.214844 11.492188 12.171875 11.605469 12.222656 11.667969 C 12.277344 11.730469 12.261719 11.765625 12.199219 11.824219 C 12.136719 11.886719 11.980469 11.992188 12.101562 12 C 12.222656 12.011719 12.335938 11.941406 12.34375 11.871094 C 12.347656 11.800781 12.265625 11.71875 12.34375 11.703125 C 12.417969 11.683594 12.453125 11.710938 12.453125 11.765625 C 12.453125 11.816406 12.433594 11.914062 12.453125 11.96875 C 12.46875 12.027344 12.382812 12.0625 12.410156 12.132812 C 12.433594 12.203125 12.425781 12.273438 12.496094 12.222656 C 12.566406 12.167969 12.515625 12.046875 12.628906 12.054688 C 12.742188 12.0625 12.746094 12.105469 12.78125 12.097656 C 12.8125 12.089844 12.875 12.027344 12.867188 11.96875 C 12.855469 11.914062 12.816406 11.929688 12.78125 11.808594 C 12.742188 11.683594 12.671875 11.613281 12.679688 11.527344 C 12.691406 11.4375 12.628906 11.378906 12.628906 11.378906 " fill-opacity="1" fill-rule="nonzero"/><path fill="#014d4e" d="M 12.628906 10.859375 C 12.628906 10.859375 12.539062 11.027344 12.550781 11.089844 C 12.558594 11.148438 12.558594 11.070312 12.628906 11.089844 C 12.699219 11.105469 12.707031 10.984375 12.707031 10.984375 L 12.628906 10.859375 " fill-opacity="1" fill-rule="nonzero"/><path fill="#014d4e" d="M 12.214844 9.367188 C 12.207031 9.394531 12.0625 9.523438 12.054688 9.578125 C 12.050781 9.628906 12.066406 9.691406 12.136719 9.691406 C 12.207031 9.691406 12.292969 9.558594 12.328125 9.570312 C 12.363281 9.578125 12.53125 9.4375 12.375 9.402344 C 12.214844 9.367188 12.214844 9.367188 12.214844 9.367188 " fill-opacity="1" fill-rule="nonzero"/><path fill="#014d4e" d="M 11.96875 9.753906 L 11.546875 9.753906 C 11.546875 9.753906 11.417969 9.816406 11.488281 9.867188 C 11.558594 9.921875 11.617188 9.957031 11.664062 9.980469 C 11.707031 10.007812 11.777344 9.867188 11.828125 9.867188 C 11.882812 9.867188 11.96875 9.753906 11.96875 9.753906 " fill-opacity="1" fill-rule="nonzero"/><path fill="#014d4e" d="M 12.867188 9.527344 C 12.867188 9.527344 12.84375 9.710938 12.980469 9.753906 C 13.121094 9.796875 13.226562 9.921875 13.277344 9.9375 C 13.332031 9.957031 13.417969 9.898438 13.410156 9.984375 C 13.402344 10.070312 13.410156 10.128906 13.355469 10.164062 C 13.304688 10.199219 13.277344 10.199219 13.289062 10.28125 C 13.296875 10.359375 13.207031 10.402344 13.183594 10.394531 C 13.15625 10.386719 13.078125 10.324219 13.023438 10.332031 C 12.972656 10.339844 12.917969 10.34375 12.863281 10.394531 C 12.8125 10.445312 12.777344 10.492188 12.707031 10.480469 C 12.636719 10.472656 12.539062 10.480469 12.503906 10.445312 C 12.46875 10.410156 12.410156 10.386719 12.398438 10.332031 C 12.390625 10.28125 12.757812 10.269531 12.78125 10.269531 C 12.804688 10.269531 12.859375 10.269531 12.867188 10.21875 C 12.875 10.164062 12.78125 10.15625 12.78125 10.15625 C 12.78125 10.15625 12.757812 10.113281 12.78125 10.085938 C 12.804688 10.0625 12.875 9.988281 12.90625 10.007812 C 12.9375 10.023438 12.929688 9.972656 12.867188 9.9375 C 12.804688 9.902344 12.707031 9.867188 12.707031 9.867188 C 12.707031 9.867188 12.664062 9.898438 12.628906 9.867188 C 12.59375 9.839844 12.515625 9.949219 12.515625 9.867188 C 12.515625 9.789062 12.480469 9.71875 12.515625 9.691406 C 12.550781 9.664062 12.585938 9.675781 12.628906 9.648438 C 12.671875 9.621094 12.691406 9.488281 12.742188 9.527344 C 12.796875 9.570312 12.804688 9.480469 12.867188 9.527344 " fill-opacity="1" fill-rule="nonzero"/><path fill="#014d4e" d="M 16.929688 5.335938 C 16.917969 5.296875 16.761719 5.230469 16.867188 5.074219 C 16.972656 4.914062 16.917969 4.875 16.929688 4.78125 C 16.945312 4.691406 16.667969 4.71875 16.667969 4.71875 C 16.667969 4.71875 16.523438 4.644531 16.511719 4.714844 C 16.496094 4.78125 16.511719 4.875 16.511719 4.875 L 16.273438 4.863281 C 16.273438 4.863281 16.285156 4.636719 16.207031 4.683594 C 16.128906 4.730469 15.910156 4.875 15.90625 4.925781 C 15.902344 4.980469 15.652344 4.925781 15.652344 4.925781 L 15.652344 4.78125 L 15.402344 4.925781 L 15.191406 5.007812 L 15.070312 5.191406 L 15.007812 4.902344 C 15.007812 4.902344 14.917969 5.03125 14.875 5.007812 C 14.835938 4.980469 14.730469 5.007812 14.730469 5.007812 C 14.730469 5.007812 14.824219 4.808594 14.730469 4.820312 C 14.640625 4.835938 14.558594 4.886719 14.558594 4.886719 C 14.558594 4.886719 14.535156 4.636719 14.480469 4.675781 C 14.429688 4.71875 14.351562 4.742188 14.351562 4.742188 L 14.296875 5.003906 L 14.183594 5.074219 L 14.230469 5.335938 L 14.183594 5.414062 C 14.183594 5.414062 14.269531 5.507812 14.351562 5.585938 C 14.429688 5.664062 14.351562 5.757812 14.351562 5.757812 C 14.351562 5.757812 14.0625 5.625 14.015625 5.613281 C 13.96875 5.597656 13.847656 5.597656 13.847656 5.597656 C 13.847656 5.597656 13.816406 5.71875 13.917969 5.757812 C 14.019531 5.796875 14.0625 5.929688 14.015625 5.980469 C 13.96875 6.035156 13.917969 6.101562 13.917969 6.101562 C 13.917969 6.101562 13.824219 6.058594 13.84375 6.101562 C 13.863281 6.140625 14.085938 6.335938 14.144531 6.363281 C 14.203125 6.390625 14.257812 6.46875 14.285156 6.507812 C 14.308594 6.546875 14.015625 6.507812 14.015625 6.507812 L 13.839844 6.375 C 13.839844 6.375 13.90625 6.503906 13.917969 6.527344 C 13.929688 6.546875 13.804688 6.597656 13.734375 6.527344 C 13.664062 6.457031 13.558594 6.417969 13.558594 6.46875 C 13.558594 6.523438 13.691406 6.601562 13.691406 6.71875 C 13.691406 6.835938 13.574219 6.835938 13.558594 6.824219 C 13.546875 6.8125 13.40625 6.730469 13.410156 6.652344 C 13.414062 6.574219 13.410156 6.523438 13.410156 6.523438 C 13.410156 6.523438 13.28125 6.574219 13.296875 6.613281 C 13.308594 6.652344 13.367188 6.730469 13.410156 6.832031 C 13.453125 6.929688 13.480469 6.824219 13.453125 6.929688 C 13.425781 7.035156 13.308594 7.023438 13.296875 7.054688 C 13.28125 7.089844 13.378906 7.089844 13.410156 7.113281 C 13.441406 7.140625 13.46875 7.207031 13.53125 7.234375 C 13.597656 7.257812 13.675781 7.257812 13.691406 7.285156 C 13.703125 7.3125 13.71875 7.234375 13.703125 7.3125 C 13.691406 7.390625 13.5 7.402344 13.410156 7.363281 C 13.320312 7.324219 13.371094 7.246094 13.292969 7.296875 C 13.21875 7.351562 13.160156 7.402344 13.183594 7.496094 C 13.203125 7.589844 13.191406 7.640625 13.242188 7.734375 C 13.296875 7.824219 13.175781 7.96875 13.296875 7.824219 C 13.414062 7.679688 13.339844 7.601562 13.410156 7.601562 C 13.480469 7.601562 13.558594 7.679688 13.558594 7.679688 C 13.558594 7.679688 13.675781 7.707031 13.691406 7.707031 C 13.703125 7.707031 13.636719 7.65625 13.703125 7.707031 C 13.769531 7.761719 13.691406 7.886719 13.691406 7.886719 C 13.691406 7.886719 13.25 7.828125 13.410156 7.886719 C 13.574219 7.945312 13.609375 7.984375 13.691406 7.96875 C 13.769531 7.957031 13.769531 7.957031 13.769531 7.957031 L 13.734375 8.089844 C 13.734375 8.089844 13.597656 8.128906 13.558594 8.089844 C 13.519531 8.050781 13.222656 8.085938 13.410156 8.105469 C 13.597656 8.128906 13.691406 8.234375 13.691406 8.234375 L 13.734375 8.339844 L 13.597656 8.339844 L 13.410156 8.285156 C 13.410156 8.285156 13.335938 8.234375 13.335938 8.339844 C 13.335938 8.445312 13.296875 8.484375 13.347656 8.550781 C 13.402344 8.617188 13.308594 8.65625 13.308594 8.65625 C 13.308594 8.65625 13.160156 8.589844 13.183594 8.65625 C 13.203125 8.722656 13.203125 8.722656 13.203125 8.722656 C 13.203125 8.722656 13.132812 8.800781 13.183594 8.851562 C 13.230469 8.90625 13.152344 8.839844 13.230469 8.90625 C 13.308594 8.972656 13.121094 9.222656 13.121094 9.222656 L 12.90625 9.222656 L 12.707031 9.367188 C 12.902344 9.40625 13.089844 9.472656 13.121094 9.445312 C 13.152344 9.417969 13.230469 9.40625 13.257812 9.367188 C 13.28125 9.328125 13.164062 9.3125 13.28125 9.328125 C 13.402344 9.339844 13.441406 9.300781 13.507812 9.367188 C 13.574219 9.433594 13.574219 9.433594 13.574219 9.433594 C 13.574219 9.433594 13.460938 9.519531 13.410156 9.527344 C 13.363281 9.539062 13.15625 9.480469 13.121094 9.527344 C 13.085938 9.578125 13.070312 9.472656 13.085938 9.578125 C 13.097656 9.683594 13.054688 9.660156 13.183594 9.691406 C 13.308594 9.722656 13.367188 9.769531 13.410156 9.753906 C 13.453125 9.734375 13.46875 9.796875 13.546875 9.753906 C 13.625 9.710938 13.648438 9.574219 13.691406 9.527344 C 13.730469 9.484375 13.882812 9.40625 13.917969 9.300781 C 13.953125 9.195312 13.957031 9.101562 14.015625 9.0625 C 14.074219 9.023438 14.109375 9.023438 14.183594 9.0625 C 14.257812 9.105469 14.351562 8.851562 14.414062 8.746094 C 14.480469 8.640625 14.640625 8.484375 14.707031 8.378906 C 14.769531 8.273438 14.957031 8.074219 14.996094 7.996094 C 15.035156 7.917969 15.152344 7.878906 15.191406 7.773438 C 15.230469 7.667969 15.246094 7.589844 15.285156 7.523438 C 15.324219 7.457031 15.484375 7.429688 15.546875 7.339844 C 15.613281 7.246094 15.652344 7.054688 15.652344 7.054688 C 15.652344 7.054688 15.429688 7.152344 15.378906 7.167969 C 15.324219 7.179688 15.246094 7.234375 15.257812 7.152344 C 15.273438 7.074219 15.257812 7.15625 15.351562 7.054688 C 15.441406 6.957031 15.507812 6.96875 15.589844 6.96875 C 15.667969 6.96875 15.757812 6.96875 15.8125 6.917969 C 15.863281 6.863281 15.90625 6.773438 15.90625 6.773438 C 15.851562 6.707031 15.546875 6.679688 15.457031 6.652344 C 15.363281 6.625 15.273438 6.667969 15.296875 6.601562 C 15.324219 6.535156 15.441406 6.5625 15.523438 6.5625 C 15.601562 6.5625 15.628906 6.441406 15.707031 6.429688 C 15.785156 6.417969 15.917969 6.230469 15.984375 6.164062 C 16.050781 6.101562 16.273438 5.824219 16.363281 5.769531 C 16.457031 5.71875 16.550781 5.597656 16.589844 5.558594 C 16.628906 5.519531 16.734375 5.429688 16.785156 5.429688 C 16.839844 5.429688 16.929688 5.335938 16.929688 5.335938 " fill-opacity="1" fill-rule="nonzero"/><path fill="#014d4e" d="M 12.339844 8.453125 C 12.316406 8.4375 12.15625 8.390625 12.148438 8.453125 C 12.144531 8.511719 12.089844 8.5625 12.148438 8.597656 C 12.210938 8.628906 12.316406 8.550781 12.339844 8.558594 C 12.367188 8.5625 12.339844 8.453125 12.339844 8.453125 " fill-opacity="1" fill-rule="nonzero"/><path fill="#014d4e" d="M 12.503906 8.542969 C 12.464844 8.578125 12.445312 8.664062 12.398438 8.734375 C 12.355469 8.808594 12.382812 8.828125 12.441406 8.851562 C 12.5 8.878906 12.539062 8.8125 12.578125 8.800781 C 12.617188 8.789062 12.625 8.667969 12.671875 8.703125 C 12.714844 8.734375 12.777344 8.644531 12.671875 8.605469 C 12.566406 8.5625 12.59375 8.542969 12.546875 8.542969 C 12.503906 8.542969 12.503906 8.542969 12.503906 8.542969 " fill-opacity="1" fill-rule="nonzero"/><path fill="#014d4e" d="M 12.839844 8.792969 C 12.808594 8.8125 12.691406 8.84375 12.671875 8.859375 C 12.652344 8.871094 12.644531 8.898438 12.671875 8.9375 C 12.695312 8.976562 12.695312 8.992188 12.730469 8.984375 C 12.761719 8.976562 12.839844 8.984375 12.839844 8.957031 C 12.839844 8.933594 12.835938 8.875 12.875 8.890625 C 12.914062 8.90625 12.839844 8.792969 12.839844 8.792969 " fill-opacity="1" fill-rule="nonzero"/><path fill="#014d4e" d="M 12.554688 9.039062 C 12.554688 9.039062 12.460938 9.097656 12.503906 9.109375 C 12.550781 9.125 12.597656 9.070312 12.628906 9.109375 C 12.65625 9.148438 12.691406 9.089844 12.707031 9.113281 C 12.722656 9.136719 12.730469 9.039062 12.707031 9.039062 C 12.683594 9.039062 12.652344 9.039062 12.652344 9.039062 L 12.554688 9.039062 " fill-opacity="1" fill-rule="nonzero"/><path fill="#014d4e" d="M 12.90625 7.457031 C 12.914062 7.503906 12.863281 7.699219 12.90625 7.726562 C 12.945312 7.753906 12.953125 7.820312 12.992188 7.832031 C 13.03125 7.84375 13.050781 7.859375 13.050781 7.832031 C 13.050781 7.804688 13.058594 7.535156 13.050781 7.507812 C 13.046875 7.484375 12.972656 7.457031 12.972656 7.457031 L 12.90625 7.457031 " fill-opacity="1" fill-rule="nonzero"/><path fill="#014d4e" d="M 12.769531 7.265625 L 12.707031 7.054688 C 12.707031 7.054688 12.542969 6.921875 12.554688 6.941406 C 12.566406 6.960938 12.507812 7.054688 12.492188 7.101562 C 12.480469 7.152344 12.394531 7.164062 12.441406 7.222656 C 12.484375 7.277344 12.542969 7.304688 12.554688 7.351562 C 12.566406 7.398438 12.617188 7.4375 12.597656 7.488281 C 12.578125 7.542969 12.441406 7.535156 12.441406 7.535156 C 12.441406 7.535156 12.351562 7.550781 12.351562 7.496094 C 12.355469 7.445312 12.363281 7.4375 12.351562 7.371094 C 12.339844 7.304688 12.351562 7.265625 12.351562 7.265625 L 12.289062 7.222656 C 12.289062 7.222656 12.257812 7.191406 12.238281 7.167969 C 12.214844 7.140625 12.195312 7.132812 12.175781 7.148438 C 12.15625 7.160156 12.148438 7.128906 12.121094 7.160156 C 12.097656 7.191406 12.0625 7.253906 12.082031 7.273438 C 12.105469 7.292969 12.183594 7.382812 12.203125 7.382812 C 12.222656 7.382812 12.257812 7.390625 12.238281 7.425781 C 12.214844 7.457031 12.214844 7.523438 12.167969 7.507812 C 12.125 7.496094 12.183594 7.523438 12.125 7.496094 C 12.0625 7.46875 12.023438 7.429688 12.019531 7.398438 C 12.011719 7.363281 11.949219 7.4375 11.96875 7.457031 C 11.992188 7.476562 12.023438 7.589844 12.023438 7.652344 C 12.023438 7.714844 12.003906 7.734375 12.054688 7.78125 C 12.105469 7.824219 12.117188 7.910156 12.175781 7.847656 C 12.234375 7.785156 12.21875 7.804688 12.246094 7.761719 C 12.273438 7.714844 12.230469 7.726562 12.273438 7.714844 C 12.320312 7.699219 12.273438 7.695312 12.320312 7.699219 C 12.367188 7.707031 12.410156 7.726562 12.441406 7.746094 C 12.472656 7.765625 12.5 7.761719 12.523438 7.785156 C 12.550781 7.8125 12.566406 7.761719 12.550781 7.8125 C 12.539062 7.863281 12.476562 7.863281 12.441406 7.847656 C 12.40625 7.832031 12.40625 7.765625 12.378906 7.847656 C 12.347656 7.929688 12.320312 7.945312 12.378906 7.957031 C 12.433594 7.96875 12.492188 7.992188 12.492188 7.992188 C 12.492188 7.992188 12.480469 8.011719 12.492188 8.050781 C 12.503906 8.089844 12.488281 8.117188 12.492188 8.140625 C 12.5 8.167969 12.300781 8.207031 12.492188 8.222656 C 12.683594 8.234375 12.722656 8.246094 12.769531 8.222656 C 12.816406 8.195312 12.828125 8.175781 12.847656 8.195312 C 12.867188 8.214844 12.898438 8.191406 12.90625 8.234375 C 12.914062 8.28125 12.882812 8.292969 12.886719 8.347656 C 12.894531 8.398438 12.886719 8.453125 12.886719 8.453125 L 12.90625 8.511719 C 12.90625 8.511719 12.949219 8.457031 12.972656 8.332031 C 12.992188 8.207031 12.957031 8.160156 12.972656 8.128906 C 12.984375 8.09375 13.054688 8.121094 13.054688 8.121094 L 13.121094 8.222656 C 13.121094 8.222656 13.164062 8.246094 13.15625 8.273438 C 13.152344 8.300781 13.085938 8.386719 13.085938 8.386719 L 13.011719 8.542969 C 13.011719 8.542969 12.980469 8.65625 13.054688 8.570312 C 13.132812 8.484375 13.113281 8.476562 13.160156 8.421875 C 13.203125 8.367188 13.25 8.265625 13.257812 8.246094 C 13.261719 8.226562 13.296875 8.195312 13.296875 8.195312 C 13.296875 8.195312 13.269531 8.160156 13.296875 8.121094 C 13.320312 8.082031 13.320312 8.082031 13.320312 8.082031 C 13.320312 8.082031 13.269531 8.023438 13.242188 8.011719 C 13.21875 7.996094 13.4375 7.96875 13.121094 7.96875 C 12.800781 7.96875 12.847656 8.003906 12.800781 7.96875 C 12.753906 7.9375 12.742188 7.949219 12.730469 7.917969 C 12.714844 7.886719 12.730469 7.886719 12.707031 7.820312 C 12.683594 7.753906 12.683594 7.84375 12.683594 7.753906 C 12.683594 7.660156 12.695312 7.527344 12.707031 7.613281 C 12.710938 7.632812 12.691406 7.519531 12.730469 7.457031 C 12.757812 7.40625 12.738281 7.410156 12.769531 7.378906 C 12.800781 7.34375 12.828125 7.324219 12.816406 7.304688 C 12.800781 7.285156 12.769531 7.265625 12.769531 7.265625 " fill-opacity="1" fill-rule="nonzero"/><path fill="#014d4e" d="M 12.707031 4.972656 C 12.707031 4.972656 12.554688 5.03125 12.554688 5.085938 C 12.550781 5.136719 12.464844 5.230469 12.464844 5.230469 C 12.464844 5.230469 12.417969 5.308594 12.351562 5.324219 C 12.289062 5.335938 12.210938 5.410156 12.183594 5.410156 C 12.15625 5.410156 12.082031 5.449219 12.0625 5.449219 C 12.042969 5.449219 11.953125 5.429688 11.964844 5.480469 C 11.980469 5.535156 11.921875 5.574219 11.964844 5.632812 C 12.003906 5.691406 12.03125 5.722656 12.039062 5.746094 C 12.042969 5.765625 12.0625 5.710938 12.042969 5.765625 C 12.023438 5.816406 12.023438 5.828125 11.992188 5.835938 C 11.957031 5.84375 11.90625 5.914062 11.878906 5.902344 C 11.851562 5.890625 11.847656 5.902344 11.8125 5.855469 C 11.78125 5.808594 11.753906 5.738281 11.753906 5.738281 L 11.753906 5.679688 C 11.753906 5.679688 11.695312 5.664062 11.675781 5.683594 C 11.65625 5.703125 11.542969 5.730469 11.53125 5.765625 C 11.515625 5.796875 11.542969 5.828125 11.53125 5.851562 C 11.515625 5.871094 11.503906 5.960938 11.570312 5.996094 C 11.636719 6.027344 11.648438 6.058594 11.648438 6.058594 C 11.648438 6.058594 11.683594 6.007812 11.695312 6.058594 C 11.707031 6.113281 11.742188 6.125 11.707031 6.152344 C 11.675781 6.179688 11.722656 6.164062 11.675781 6.179688 C 11.628906 6.191406 11.496094 6.152344 11.570312 6.226562 C 11.644531 6.296875 11.65625 6.34375 11.714844 6.351562 C 11.773438 6.355469 11.820312 6.351562 11.820312 6.351562 L 11.8125 6.460938 C 11.8125 6.460938 11.6875 6.5625 11.664062 6.566406 C 11.636719 6.574219 11.589844 6.574219 11.5625 6.601562 C 11.539062 6.625 11.535156 6.625 11.519531 6.671875 C 11.503906 6.71875 11.558594 6.726562 11.597656 6.765625 C 11.636719 6.804688 11.609375 6.824219 11.667969 6.835938 C 11.726562 6.851562 11.800781 6.8125 11.8125 6.792969 C 11.828125 6.773438 11.859375 6.726562 11.894531 6.710938 C 11.925781 6.699219 11.945312 6.710938 11.964844 6.6875 C 11.984375 6.660156 11.957031 6.582031 11.964844 6.535156 C 11.972656 6.488281 11.964844 6.394531 11.964844 6.394531 C 11.964844 6.394531 12 6.230469 12.019531 6.164062 C 12.039062 6.101562 12.039062 6.101562 12.039062 6.101562 C 12.039062 6.101562 12.09375 6.066406 12.121094 6.066406 C 12.148438 6.066406 12.183594 6.074219 12.203125 6.085938 C 12.222656 6.101562 12.28125 6.09375 12.273438 6.140625 C 12.269531 6.1875 12.265625 6.191406 12.238281 6.226562 C 12.210938 6.257812 12.113281 6.277344 12.121094 6.304688 C 12.128906 6.332031 12.148438 6.390625 12.167969 6.394531 C 12.1875 6.402344 12.160156 6.457031 12.238281 6.410156 C 12.316406 6.363281 12.375 6.304688 12.378906 6.269531 C 12.378906 6.238281 12.417969 6.171875 12.445312 6.164062 C 12.472656 6.160156 12.554688 6.121094 12.554688 6.121094 C 12.554688 6.121094 12.566406 6.082031 12.554688 6.046875 C 12.539062 6.015625 12.511719 5.976562 12.472656 5.976562 C 12.433594 5.976562 12.363281 6.007812 12.351562 5.980469 C 12.339844 5.957031 12.316406 6.015625 12.339844 5.957031 C 12.367188 5.894531 12.417969 5.945312 12.441406 5.90625 C 12.460938 5.871094 12.554688 5.816406 12.554688 5.828125 C 12.550781 5.84375 12.601562 5.835938 12.652344 5.835938 C 12.703125 5.835938 12.75 5.855469 12.769531 5.808594 C 12.789062 5.765625 12.839844 5.679688 12.828125 5.652344 C 12.816406 5.625 12.804688 5.585938 12.769531 5.59375 C 12.734375 5.597656 12.644531 5.644531 12.644531 5.644531 C 12.644531 5.644531 12.585938 5.660156 12.597656 5.597656 C 12.609375 5.539062 12.628906 5.527344 12.644531 5.507812 C 12.65625 5.488281 12.625 5.507812 12.65625 5.488281 C 12.691406 5.46875 12.65625 5.507812 12.691406 5.46875 C 12.722656 5.429688 12.714844 5.394531 12.730469 5.363281 C 12.742188 5.328125 12.710938 5.261719 12.707031 5.238281 C 12.703125 5.210938 12.71875 5.15625 12.707031 5.136719 C 12.695312 5.117188 12.699219 5.09375 12.707031 5.074219 C 12.714844 5.054688 12.714844 5.054688 12.714844 5.054688 L 12.707031 4.972656 " fill-opacity="1" fill-rule="nonzero"/><path fill="#014d4e" d="M 11.328125 6.941406 C 11.300781 6.96875 11.101562 6.988281 11.054688 6.996094 C 11.011719 7.003906 10.976562 7.039062 10.964844 7.054688 C 10.949219 7.074219 10.972656 7.140625 11.011719 7.167969 C 11.050781 7.191406 11.136719 7.183594 11.144531 7.222656 C 11.148438 7.257812 11.179688 7.207031 11.1875 7.265625 C 11.195312 7.324219 11.148438 7.320312 11.195312 7.324219 C 11.242188 7.332031 11.292969 7.332031 11.328125 7.324219 C 11.359375 7.320312 11.40625 7.3125 11.414062 7.296875 C 11.417969 7.285156 11.480469 7.207031 11.464844 7.1875 C 11.453125 7.167969 11.433594 7.175781 11.46875 7.136719 C 11.503906 7.09375 11.445312 7.140625 11.503906 7.09375 C 11.5625 7.046875 11.515625 6.996094 11.515625 6.996094 L 11.414062 6.941406 C 11.414062 6.941406 11.417969 6.941406 11.371094 6.941406 C 11.328125 6.941406 11.328125 6.941406 11.328125 6.941406 " fill-opacity="1" fill-rule="nonzero"/><path fill="#014d4e" d="M 11.082031 7.417969 C 11.078125 7.4375 11.101562 7.570312 11.128906 7.570312 C 11.15625 7.570312 11.234375 7.542969 11.246094 7.570312 C 11.261719 7.59375 11.214844 7.574219 11.261719 7.59375 C 11.308594 7.613281 11.339844 7.445312 11.320312 7.457031 C 11.300781 7.46875 11.265625 7.410156 11.246094 7.417969 C 11.226562 7.425781 11.15625 7.457031 11.15625 7.457031 L 11.082031 7.417969 " fill-opacity="1" fill-rule="nonzero"/><path fill="#014d4e" d="M 11.03125 7.652344 C 11.015625 7.660156 11.023438 8.003906 11.03125 8.023438 C 11.035156 8.042969 11.082031 8.222656 11.082031 8.246094 C 11.082031 8.273438 11.148438 8.3125 11.175781 8.347656 C 11.203125 8.378906 11.292969 8.359375 11.285156 8.347656 C 11.28125 8.332031 11.253906 8.273438 11.246094 8.242188 C 11.242188 8.207031 11.15625 8.140625 11.15625 8.109375 C 11.15625 8.074219 11.171875 7.992188 11.203125 7.96875 C 11.234375 7.949219 11.324219 7.9375 11.324219 7.9375 C 11.324219 7.9375 11.296875 7.925781 11.324219 7.890625 C 11.351562 7.859375 11.324219 7.738281 11.324219 7.738281 L 11.28125 7.652344 L 11.03125 7.652344 " fill-opacity="1" fill-rule="nonzero"/><path fill="#014d4e" d="M 11.023438 8.511719 L 11.023438 8.742188 L 10.804688 8.742188 C 10.804688 8.742188 10.804688 8.707031 10.804688 8.664062 C 10.804688 8.617188 10.832031 8.5625 10.847656 8.542969 C 10.859375 8.523438 10.914062 8.476562 10.914062 8.476562 L 10.960938 8.476562 L 11.023438 8.511719 " fill-opacity="1" fill-rule="nonzero"/><path fill="#014d4e" d="M 16.46875 3.980469 C 16.46875 3.980469 16.648438 4.105469 16.648438 4.128906 C 16.648438 4.15625 16.742188 4.242188 16.734375 4.269531 C 16.726562 4.296875 16.742188 4.316406 16.734375 4.335938 C 16.726562 4.355469 16.632812 4.382812 16.601562 4.367188 C 16.574219 4.355469 16.554688 4.277344 16.515625 4.261719 C 16.476562 4.25 16.449219 4.207031 16.425781 4.175781 C 16.398438 4.144531 16.359375 4.144531 16.359375 4.109375 C 16.359375 4.078125 16.359375 4.078125 16.359375 4.046875 C 16.359375 4.011719 16.3125 4.011719 16.359375 4.011719 C 16.40625 4.011719 16.40625 4.011719 16.40625 4.011719 L 16.46875 3.980469 " fill-opacity="1" fill-rule="nonzero"/><path fill="#014d4e" d="M 16.90625 4.234375 C 16.890625 4.253906 16.875 4.359375 16.933594 4.394531 C 16.992188 4.425781 17.023438 4.433594 17.015625 4.464844 C 17.011719 4.5 17.023438 4.433594 17.023438 4.433594 L 17.054688 4.269531 C 17.054688 4.269531 17.03125 4.289062 17.015625 4.234375 C 17.003906 4.183594 17.003906 4.183594 17.003906 4.183594 L 16.90625 4.234375 " fill-opacity="1" fill-rule="nonzero"/><path fill="#014d4e" d="M 16.628906 3.433594 C 16.628906 3.433594 16.699219 3.503906 16.734375 3.503906 C 16.773438 3.503906 16.839844 3.503906 16.839844 3.503906 C 16.839844 3.503906 16.917969 3.550781 16.894531 3.609375 C 16.867188 3.667969 16.90625 3.6875 16.894531 3.722656 C 16.878906 3.753906 16.902344 3.828125 16.933594 3.816406 C 16.964844 3.800781 17.070312 3.824219 17.089844 3.816406 C 17.109375 3.808594 17.160156 3.769531 17.167969 3.816406 C 17.175781 3.867188 17.242188 3.914062 17.242188 3.914062 C 17.242188 3.914062 17.285156 3.886719 17.292969 3.914062 C 17.300781 3.941406 17.328125 3.945312 17.292969 3.980469 C 17.261719 4.011719 17.183594 4.089844 17.183594 4.089844 L 17.160156 4.128906 C 17.160156 4.128906 17.078125 4.109375 17.054688 4.105469 C 17.035156 4.097656 17.007812 4.070312 16.96875 4.03125 C 16.929688 3.992188 16.90625 3.933594 16.894531 3.933594 C 16.878906 3.933594 16.851562 3.90625 16.832031 3.941406 C 16.8125 3.972656 16.785156 4.03125 16.785156 4.03125 C 16.785156 4.03125 16.773438 4.023438 16.734375 4.003906 C 16.699219 3.984375 16.636719 3.984375 16.628906 3.945312 C 16.621094 3.90625 16.621094 3.90625 16.621094 3.90625 L 16.503906 3.875 C 16.492188 3.800781 16.523438 3.761719 16.503906 3.730469 C 16.484375 3.695312 16.5 3.617188 16.5 3.617188 C 16.5 3.617188 16.484375 3.628906 16.492188 3.582031 C 16.503906 3.539062 16.480469 3.472656 16.539062 3.472656 C 16.59375 3.472656 16.628906 3.433594 16.628906 3.433594 " fill-opacity="1" fill-rule="nonzero"/><path fill="#014d4e" d="M 17.308594 3.136719 C 17.308594 3.164062 17.304688 3.269531 17.308594 3.292969 C 17.3125 3.320312 17.367188 3.347656 17.390625 3.328125 C 17.417969 3.308594 17.484375 3.300781 17.484375 3.273438 C 17.484375 3.25 17.476562 3.203125 17.53125 3.203125 C 17.582031 3.203125 17.542969 3.203125 17.582031 3.203125 C 17.621094 3.203125 17.570312 3.109375 17.597656 3.078125 C 17.621094 3.042969 17.3125 3.109375 17.308594 3.136719 " fill-opacity="1" fill-rule="nonzero"/><path fill="#014d4e" d="M 17.40625 3.558594 C 17.4375 3.5625 17.496094 3.589844 17.511719 3.558594 C 17.523438 3.523438 17.542969 3.511719 17.511719 3.472656 C 17.476562 3.433594 17.46875 3.40625 17.453125 3.398438 C 17.4375 3.394531 17.417969 3.398438 17.417969 3.398438 C 17.417969 3.398438 17.371094 3.550781 17.40625 3.558594 " fill-opacity="1" fill-rule="nonzero"/><path fill="#014d4e" d="M 17.1875 3.574219 C 17.15625 3.558594 17.003906 3.539062 17.011719 3.574219 C 17.015625 3.609375 17.042969 3.714844 17.054688 3.722656 C 17.070312 3.730469 17.054688 3.722656 17.097656 3.722656 C 17.140625 3.722656 17.167969 3.714844 17.1875 3.726562 C 17.207031 3.734375 17.246094 3.65625 17.242188 3.640625 C 17.234375 3.625 17.1875 3.574219 17.1875 3.574219 " fill-opacity="1" fill-rule="nonzero"/><g clip-path="url(#d288c7ccb0)"><path fill="#014d4e" d="M 16.820312 2.957031 C 16.820312 2.984375 16.839844 3.121094 16.859375 3.121094 C 16.878906 3.121094 17.003906 3.148438 17.011719 3.167969 C 17.015625 3.1875 17.125 3.253906 17.125 3.253906 L 17.125 3.199219 L 17.054688 3.066406 C 17.054688 3.066406 16.984375 3.070312 17.011719 3.039062 C 17.035156 3.003906 16.996094 2.972656 17.011719 2.957031 C 17.023438 2.945312 16.992188 2.914062 16.976562 2.917969 C 16.957031 2.925781 16.820312 2.957031 16.820312 2.957031 " fill-opacity="1" fill-rule="nonzero"/></g><path fill="#014d4e" d="M 16.773438 3.289062 C 16.773438 3.289062 16.800781 3.378906 16.820312 3.398438 C 16.839844 3.414062 16.894531 3.433594 16.894531 3.433594 L 16.933594 3.433594 C 16.933594 3.433594 16.984375 3.378906 16.976562 3.359375 C 16.964844 3.339844 16.910156 3.308594 16.898438 3.289062 C 16.890625 3.269531 16.820312 3.234375 16.820312 3.234375 L 16.773438 3.289062 " fill-opacity="1" fill-rule="nonzero"/></svg>