<svg xmlns="http://www.w3.org/2000/svg" xmlns:xlink="http://www.w3.org/1999/xlink" width="40" zoomAndPan="magnify" viewBox="0 0 30 30.000001" height="40" preserveAspectRatio="xMidYMid meet" version="1.0"><defs><clipPath id="9f1355138c"><path d="M 6.871094 12.933594 L 17.242188 12.933594 L 17.242188 26.117188 L 6.871094 26.117188 Z M 6.871094 12.933594 " clip-rule="nonzero"/></clipPath><clipPath id="5827b97dc1"><path d="M 18.9375 2.914062 L 22.839844 2.914062 L 22.839844 7.90625 L 18.9375 7.90625 Z M 18.9375 2.914062 " clip-rule="nonzero"/></clipPath></defs><g clip-path="url(#9f1355138c)"><path fill="#014d4e" d="M 9.058594 24.054688 C 9.136719 24.007812 9.207031 23.949219 9.257812 23.882812 C 9.378906 23.714844 9.324219 23.507812 9.335938 23.316406 C 9.339844 23.265625 9.339844 23.03125 9.429688 23.035156 C 9.484375 23.039062 9.628906 23.207031 9.671875 23.136719 C 9.707031 23.074219 9.707031 22.976562 9.644531 22.933594 C 9.601562 22.902344 9.542969 22.898438 9.507812 22.863281 C 9.480469 22.835938 9.457031 22.730469 9.40625 22.777344 C 9.375 22.804688 9.359375 22.945312 9.296875 22.914062 C 9.285156 22.90625 9.273438 22.890625 9.269531 22.878906 C 9.210938 22.753906 9.242188 22.628906 9.273438 22.503906 C 9.296875 22.40625 9.316406 22.296875 9.238281 22.21875 C 9.207031 22.1875 9.15625 22.167969 9.132812 22.132812 C 9.082031 22.042969 9.234375 21.941406 9.292969 21.898438 C 9.390625 21.828125 9.460938 21.738281 9.460938 21.609375 C 9.457031 21.476562 9.355469 21.367188 9.261719 21.285156 C 9.164062 21.203125 9.023438 21.179688 8.941406 21.078125 C 8.816406 20.929688 8.9375 20.726562 9.058594 20.621094 C 9.136719 20.554688 9.25 20.488281 9.3125 20.398438 C 9.390625 20.277344 9.347656 20.15625 9.367188 20.023438 C 9.386719 19.886719 9.425781 19.6875 9.550781 19.605469 C 9.597656 19.574219 9.640625 19.636719 9.6875 19.628906 C 9.816406 19.613281 9.667969 19.378906 9.640625 19.328125 C 9.546875 19.171875 9.398438 19.066406 9.433594 18.863281 C 9.472656 18.648438 9.652344 18.476562 9.746094 18.285156 C 9.8125 18.148438 9.738281 17.984375 9.839844 17.851562 C 9.945312 17.714844 10.132812 17.644531 10.246094 17.507812 C 10.386719 17.34375 10.386719 17.097656 10.417969 16.894531 C 10.457031 16.640625 10.542969 16.523438 10.710938 16.347656 C 10.851562 16.207031 10.917969 16.011719 10.921875 15.8125 C 10.925781 15.445312 11.328125 15.300781 11.589844 15.144531 C 12 14.90625 12.183594 14.464844 12.515625 14.148438 C 12.769531 13.914062 13.046875 13.707031 13.324219 13.5 C 13.652344 13.253906 14.160156 12.710938 14.59375 13.039062 C 14.925781 13.289062 15.199219 13.507812 15.621094 13.304688 C 15.746094 13.246094 15.871094 13.191406 16.003906 13.160156 C 16.1875 13.125 16.378906 13.144531 16.5625 13.191406 C 16.695312 13.230469 16.847656 13.265625 16.957031 13.355469 C 17.011719 13.394531 17.054688 13.453125 17.058594 13.519531 C 17.066406 13.617188 16.980469 13.699219 16.925781 13.769531 C 16.824219 13.890625 16.792969 14.03125 16.839844 14.179688 C 16.894531 14.339844 16.988281 14.503906 17.035156 14.675781 C 17.058594 14.769531 17.039062 14.878906 17.066406 14.964844 C 17.09375 15.058594 17.148438 15.070312 17.210938 15.136719 C 17.285156 15.214844 17.195312 15.242188 17.164062 15.316406 C 17.121094 15.402344 17.136719 15.496094 17.148438 15.585938 C 17.164062 15.707031 17.179688 15.828125 17.1875 15.945312 C 17.238281 16.734375 16.839844 17.457031 16.84375 18.230469 C 16.84375 18.347656 16.804688 18.613281 16.96875 18.648438 C 17.035156 18.660156 17.128906 18.636719 17.1875 18.679688 C 17.242188 18.71875 17.210938 18.808594 17.1875 18.859375 C 17.144531 18.945312 17.105469 18.9375 17.023438 18.910156 C 16.777344 18.824219 16.425781 18.699219 16.222656 18.9375 C 16.109375 19.074219 16.007812 19.246094 15.972656 19.425781 C 15.929688 19.640625 16.011719 19.742188 16.101562 19.917969 C 16.128906 19.96875 16.121094 20.042969 16.109375 20.097656 C 16.066406 20.277344 16.042969 20.414062 16.125 20.59375 C 16.21875 20.789062 16.316406 20.984375 16.394531 21.183594 C 16.421875 21.253906 16.445312 21.34375 16.390625 21.394531 C 16.289062 21.484375 16.1875 21.3125 16.082031 21.371094 C 15.925781 21.460938 15.984375 21.804688 16.023438 21.9375 C 16.042969 22.003906 16.070312 22.058594 16.027344 22.125 C 16.003906 22.164062 15.953125 22.203125 15.90625 22.199219 C 15.875 22.199219 15.84375 22.1875 15.8125 22.171875 C 15.761719 22.152344 15.714844 22.132812 15.695312 22.199219 C 15.683594 22.246094 15.707031 22.300781 15.738281 22.339844 C 15.804688 22.433594 15.730469 22.523438 15.632812 22.53125 C 15.570312 22.535156 15.355469 22.4375 15.378906 22.578125 C 15.390625 22.664062 15.539062 22.65625 15.558594 22.75 C 15.566406 22.78125 15.554688 22.816406 15.527344 22.832031 C 15.511719 22.84375 15.492188 22.847656 15.472656 22.851562 C 15.457031 22.859375 15.4375 22.863281 15.425781 22.878906 C 15.390625 22.917969 15.40625 23 15.371094 23.050781 C 15.230469 23.242188 14.996094 23.066406 14.859375 23.195312 C 14.738281 23.308594 14.96875 23.433594 14.984375 23.546875 C 15.003906 23.695312 14.84375 23.699219 14.746094 23.699219 C 14.703125 23.699219 14.59375 23.695312 14.570312 23.746094 C 14.523438 23.832031 14.707031 23.914062 14.605469 24.007812 C 14.46875 24.125 14.203125 23.871094 14.105469 24.066406 C 14.058594 24.171875 14.167969 24.304688 14.007812 24.363281 C 13.890625 24.40625 13.828125 24.308594 13.753906 24.242188 C 13.566406 24.058594 13.632812 24.425781 13.585938 24.472656 C 13.492188 24.570312 13.398438 24.390625 13.34375 24.335938 C 13.273438 24.273438 13.171875 24.308594 13.105469 24.355469 C 13.015625 24.414062 13.015625 24.496094 13.03125 24.597656 C 13.042969 24.664062 13.121094 24.785156 13.019531 24.824219 C 12.933594 24.859375 12.761719 24.699219 12.695312 24.65625 C 12.648438 24.621094 12.59375 24.566406 12.53125 24.554688 C 12.507812 24.550781 12.476562 24.558594 12.464844 24.585938 C 12.453125 24.609375 12.46875 24.644531 12.449219 24.664062 C 12.433594 24.683594 12.40625 24.679688 12.382812 24.671875 C 12.210938 24.632812 12.039062 24.589844 11.863281 24.554688 C 11.835938 24.550781 11.808594 24.542969 11.785156 24.554688 C 11.671875 24.605469 11.855469 24.695312 11.886719 24.710938 C 11.980469 24.765625 12.105469 24.804688 12.183594 24.882812 C 12.289062 24.996094 12.128906 25.011719 12.042969 25 C 11.878906 24.976562 11.703125 24.878906 11.574219 24.773438 C 11.542969 24.746094 11.480469 24.691406 11.445312 24.757812 C 11.40625 24.84375 11.53125 24.9375 11.582031 24.984375 C 11.695312 25.09375 11.84375 25.195312 11.90625 25.34375 C 11.972656 25.484375 11.882812 25.742188 11.683594 25.671875 C 11.558594 25.628906 11.523438 25.394531 11.46875 25.285156 C 11.394531 25.125 11.300781 24.96875 11.179688 24.839844 C 11.160156 24.820312 11.109375 24.761719 11.078125 24.765625 C 11.023438 24.769531 11.113281 24.917969 11.125 24.9375 C 11.175781 25.039062 11.203125 25.164062 11.1875 25.277344 C 11.183594 25.3125 11.167969 25.351562 11.140625 25.371094 C 10.957031 25.523438 10.472656 24.960938 10.34375 24.851562 C 10.300781 24.8125 10.140625 24.601562 10.070312 24.664062 C 10.011719 24.714844 10.105469 24.789062 10.128906 24.828125 C 10.164062 24.875 10.195312 24.925781 10.199219 24.980469 C 10.210938 25.105469 10.0625 25.222656 9.984375 25.300781 C 9.929688 25.363281 9.820312 25.570312 9.722656 25.527344 C 9.65625 25.5 9.683594 25.425781 9.6875 25.367188 C 9.691406 25.277344 9.476562 24.984375 9.414062 25.128906 C 9.398438 25.164062 9.402344 25.203125 9.410156 25.242188 C 9.445312 25.410156 9.496094 25.75 9.359375 25.890625 C 9.320312 25.929688 9.003906 26.222656 8.980469 26.078125 C 8.964844 26 8.988281 25.921875 9.011719 25.851562 C 9.035156 25.777344 9.058594 25.703125 9.054688 25.625 C 9.046875 25.53125 8.988281 25.429688 8.929688 25.359375 C 8.742188 25.117188 8.6875 25.3125 8.695312 25.519531 C 8.699219 25.566406 8.714844 25.640625 8.671875 25.671875 C 8.613281 25.714844 8.546875 25.621094 8.519531 25.582031 C 8.417969 25.441406 8.40625 25.542969 8.277344 25.542969 C 8.078125 25.546875 8.015625 25.285156 7.820312 25.324219 C 7.71875 25.347656 7.667969 25.425781 7.582031 25.464844 C 7.507812 25.5 7.425781 25.441406 7.367188 25.398438 C 7.230469 25.300781 7.09375 25.328125 6.9375 25.289062 C 6.910156 25.28125 6.882812 25.265625 6.875 25.234375 C 6.84375 25.148438 7.035156 25.105469 7.085938 25.085938 C 7.40625 24.964844 7.675781 24.757812 7.984375 24.621094 C 8.101562 24.570312 8.234375 24.558594 8.277344 24.425781 C 8.304688 24.355469 8.320312 24.269531 8.382812 24.226562 C 8.488281 24.15625 8.691406 24.195312 8.816406 24.15625 C 8.894531 24.132812 8.980469 24.097656 9.058594 24.054688 " fill-opacity="1" fill-rule="nonzero"/></g><path fill="#014d4e" d="M 17.148438 10.773438 C 17.144531 10.710938 17.183594 10.640625 17.226562 10.582031 C 17.285156 10.507812 17.359375 10.441406 17.425781 10.375 C 17.492188 10.308594 17.519531 10.21875 17.515625 10.125 C 17.511719 10.03125 17.457031 9.933594 17.480469 9.84375 C 17.5 9.753906 17.585938 9.800781 17.617188 9.863281 C 17.628906 9.890625 17.640625 9.925781 17.65625 9.953125 C 17.6875 9.996094 17.75 10.007812 17.800781 10 C 17.867188 9.988281 17.925781 9.953125 17.980469 9.917969 C 18.019531 9.894531 18.089844 9.835938 18.125 9.890625 C 18.148438 9.921875 18.128906 9.972656 18.117188 10.003906 C 18.0625 10.191406 17.738281 10.242188 17.917969 10.476562 C 18.019531 10.609375 17.882812 10.75 17.851562 10.875 C 17.835938 10.945312 17.851562 11.019531 17.84375 11.089844 C 17.808594 11.289062 17.292969 10.953125 17.210938 10.886719 C 17.171875 10.855469 17.152344 10.816406 17.148438 10.773438 " fill-opacity="1" fill-rule="nonzero"/><g clip-path="url(#5827b97dc1)"><path fill="#014d4e" d="M 19.601562 5.917969 C 19.691406 5.925781 19.789062 5.917969 19.878906 5.886719 C 19.980469 5.847656 20.011719 5.742188 20.0625 5.65625 C 20.148438 5.527344 20.285156 5.578125 20.414062 5.582031 C 20.578125 5.585938 20.730469 5.542969 20.882812 5.476562 C 21.011719 5.421875 21.152344 5.355469 21.222656 5.226562 C 21.261719 5.144531 21.269531 5.054688 21.277344 4.964844 C 21.300781 4.695312 21.460938 4.484375 21.550781 4.234375 C 21.605469 4.078125 21.652344 3.902344 21.644531 3.730469 C 21.640625 3.625 21.558594 3.511719 21.582031 3.402344 C 21.597656 3.335938 21.65625 3.300781 21.714844 3.277344 C 21.816406 3.230469 21.921875 3.1875 22.015625 3.125 C 22.0625 3.09375 22.113281 3.054688 22.148438 3.011719 C 22.164062 2.988281 22.195312 2.894531 22.234375 2.921875 C 22.289062 2.960938 22.261719 3.046875 22.308594 3.09375 C 22.398438 3.183594 22.542969 3.007812 22.632812 3.125 C 22.675781 3.183594 22.632812 3.269531 22.605469 3.328125 C 22.523438 3.492188 22.566406 3.675781 22.644531 3.835938 C 22.71875 3.992188 22.816406 4.144531 22.957031 4.25 C 23.007812 4.285156 23.066406 4.328125 23.101562 4.382812 C 23.117188 4.402344 23.125 4.429688 23.121094 4.457031 C 23.097656 4.546875 22.964844 4.539062 22.90625 4.597656 C 22.855469 4.648438 22.832031 4.71875 22.851562 4.789062 C 22.875 4.859375 22.9375 4.910156 22.953125 4.984375 C 22.972656 5.085938 22.90625 5.144531 22.832031 5.195312 C 22.742188 5.257812 22.640625 5.308594 22.570312 5.394531 C 22.484375 5.496094 22.484375 5.636719 22.484375 5.765625 C 22.480469 5.917969 22.496094 6.070312 22.539062 6.214844 C 22.558594 6.289062 22.585938 6.359375 22.621094 6.429688 C 22.644531 6.472656 22.683594 6.535156 22.644531 6.582031 C 22.617188 6.621094 22.527344 6.644531 22.480469 6.660156 C 22.371094 6.699219 22.253906 6.730469 22.136719 6.730469 C 22.027344 6.726562 21.90625 6.667969 21.800781 6.726562 C 21.734375 6.761719 21.695312 6.832031 21.617188 6.832031 C 21.53125 6.835938 21.496094 6.773438 21.449219 6.710938 C 21.433594 6.6875 21.410156 6.667969 21.378906 6.667969 C 21.320312 6.664062 21.265625 6.714844 21.222656 6.75 C 21.074219 6.886719 20.914062 7.007812 20.753906 7.128906 C 20.625 7.226562 20.472656 7.382812 20.289062 7.347656 C 20.191406 7.328125 20.113281 7.265625 20.015625 7.242188 C 19.84375 7.203125 19.515625 7.222656 19.390625 7.371094 C 19.328125 7.441406 19.296875 7.535156 19.277344 7.625 C 19.261719 7.679688 19.25 7.742188 19.210938 7.785156 C 19.164062 7.835938 19.070312 7.859375 19.011719 7.890625 C 18.996094 7.898438 18.984375 7.902344 18.972656 7.898438 C 18.886719 7.882812 19.019531 7.648438 19.039062 7.613281 C 19.085938 7.519531 19.125 7.429688 19.082031 7.332031 C 19.039062 7.238281 19.148438 7.152344 19.210938 7.097656 C 19.28125 7.035156 19.347656 6.929688 19.453125 6.921875 C 19.5625 6.914062 19.773438 6.925781 19.832031 6.804688 C 19.863281 6.738281 19.824219 6.644531 19.820312 6.574219 C 19.8125 6.484375 19.769531 6.445312 19.675781 6.441406 C 19.542969 6.4375 19.414062 6.433594 19.296875 6.359375 C 19.191406 6.289062 19.113281 6.1875 19.066406 6.070312 C 19.03125 5.988281 19.019531 5.898438 19.015625 5.808594 C 19.011719 5.765625 19 5.710938 19.011719 5.667969 C 19.027344 5.589844 19.078125 5.65625 19.097656 5.691406 C 19.128906 5.746094 19.152344 5.804688 19.207031 5.839844 C 19.308594 5.90625 19.453125 5.90625 19.570312 5.917969 C 19.582031 5.917969 19.589844 5.917969 19.601562 5.917969 " fill-opacity="1" fill-rule="nonzero"/></g></svg>