<svg xmlns="http://www.w3.org/2000/svg" xmlns:xlink="http://www.w3.org/1999/xlink" width="40" zoomAndPan="magnify" viewBox="0 0 30 30.000001" height="40" preserveAspectRatio="xMidYMid meet" version="1.0"><defs><clipPath id="6acb519f93"><path d="M 5.011719 2.902344 L 25 2.902344 L 25 26.128906 L 5.011719 26.128906 Z M 5.011719 2.902344 " clip-rule="nonzero"/></clipPath></defs><g clip-path="url(#6acb519f93)"><path fill="#014d4e" d="M 24.9375 17.785156 L 24.832031 17.8125 L 24.730469 17.839844 L 24.703125 17.757812 L 24.570312 17.757812 L 24.464844 17.574219 L 24.332031 17.496094 L 24.230469 17.445312 L 24.019531 17.652344 L 23.835938 17.46875 C 23.835938 17.46875 23.757812 17.335938 23.734375 17.3125 C 23.707031 17.289062 23.679688 17.261719 23.679688 17.261719 C 23.679688 17.261719 23.761719 17.078125 23.734375 17.078125 C 23.707031 17.078125 23.652344 16.972656 23.652344 16.972656 L 23.652344 16.867188 L 23.734375 16.816406 L 23.628906 16.683594 L 23.707031 16.550781 L 23.734375 16.472656 L 23.761719 16.339844 L 23.710938 16.238281 L 23.605469 16.238281 L 23.503906 16 L 23.476562 15.84375 L 23.421875 15.738281 L 23.503906 15.609375 L 23.371094 15.527344 C 23.371094 15.527344 23.316406 15.425781 23.289062 15.398438 C 23.261719 15.371094 23.210938 15.316406 23.210938 15.316406 L 23.078125 15.214844 L 23.078125 15.160156 L 22.949219 15.132812 L 22.84375 15.105469 L 22.609375 14.898438 L 22.527344 14.792969 L 22.609375 14.660156 L 22.503906 14.425781 L 22.554688 14.242188 L 22.527344 14.109375 L 22.476562 14.058594 L 22.503906 13.796875 L 22.398438 13.71875 L 22.398438 13.613281 L 22.320312 13.613281 L 22.320312 13.457031 L 22.238281 13.457031 C 22.238281 13.457031 22.1875 13.300781 22.160156 13.273438 C 22.132812 13.246094 22.132812 13.140625 22.132812 13.140625 L 22.210938 13.113281 L 22.238281 12.90625 L 21.824219 12.644531 L 21.769531 12.644531 L 21.742188 12.539062 L 21.664062 12.539062 L 21.636719 12.460938 L 21.398438 12.460938 C 21.398438 12.460938 21.242188 12.433594 21.214844 12.355469 C 21.1875 12.277344 21.085938 12.226562 21.085938 12.199219 C 21.085938 12.175781 21.058594 12.042969 21.058594 12.042969 C 21.058594 12.042969 21.109375 11.886719 21.085938 11.859375 C 21.058594 11.832031 20.980469 11.832031 20.980469 11.832031 L 20.980469 11.882812 L 20.953125 11.964844 L 20.875 11.9375 L 20.71875 11.753906 L 20.71875 11.648438 L 20.746094 11.597656 C 20.746094 11.597656 20.773438 11.515625 20.71875 11.515625 C 20.660156 11.515625 20.636719 11.515625 20.636719 11.515625 L 20.691406 11.4375 L 20.636719 11.386719 C 20.636719 11.386719 20.558594 11.359375 20.53125 11.359375 C 20.507812 11.359375 20.375 11.226562 20.375 11.226562 L 20.324219 11.09375 L 20.351562 11.015625 L 20.351562 10.855469 L 20.378906 10.777344 L 20.429688 10.75 L 20.429688 10.617188 L 20.378906 10.589844 L 20.117188 10.5625 L 20.117188 10.351562 L 19.988281 10.25 L 19.90625 10.117188 L 19.855469 10.066406 L 19.699219 10.011719 L 19.59375 9.933594 L 19.542969 9.984375 L 19.332031 9.800781 L 19.253906 9.773438 L 19.253906 9.617188 L 19.097656 9.488281 L 19.097656 9.328125 L 19.070312 9.144531 C 19.070312 9.144531 18.9375 9.066406 18.914062 9.042969 C 18.890625 9.015625 18.808594 8.886719 18.808594 8.886719 C 18.808594 8.886719 18.757812 8.804688 18.730469 8.804688 C 18.703125 8.804688 18.417969 8.597656 18.417969 8.597656 L 18.285156 8.570312 L 17.921875 8.203125 L 17.789062 8.175781 C 17.789062 8.175781 17.632812 7.941406 17.605469 7.890625 C 17.578125 7.835938 17.578125 7.757812 17.578125 7.757812 C 17.578125 7.757812 17.578125 7.730469 17.550781 7.707031 C 17.523438 7.679688 17.417969 7.574219 17.417969 7.574219 C 17.417969 7.574219 17.367188 7.441406 17.339844 7.390625 C 17.3125 7.335938 17.257812 7.257812 17.257812 7.257812 L 17.074219 7.152344 C 17.074219 7.152344 17.023438 6.996094 17.023438 6.917969 C 17.023438 6.839844 16.945312 6.65625 16.945312 6.65625 L 16.917969 6.5 L 16.785156 6.398438 L 16.785156 6.292969 L 16.679688 6.109375 L 16.578125 5.976562 C 16.578125 5.976562 16.523438 5.820312 16.523438 5.792969 C 16.523438 5.765625 16.417969 5.480469 16.417969 5.480469 L 16.316406 5.402344 L 16.160156 5.402344 L 15.898438 5.53125 L 15.609375 5.273438 L 15.507812 5.167969 L 15.238281 5.003906 C 15.238281 5.003906 15.238281 4.953125 15.238281 4.902344 C 15.238281 4.847656 15.265625 4.847656 15.238281 4.847656 C 15.210938 4.847656 15.082031 4.875 15.082031 4.875 L 15 4.824219 C 15 4.824219 14.949219 4.851562 14.921875 4.824219 C 14.894531 4.796875 14.871094 4.691406 14.871094 4.691406 L 14.738281 4.71875 L 14.6875 4.5625 C 14.6875 4.5625 14.632812 4.535156 14.582031 4.511719 C 14.527344 4.484375 14.398438 4.378906 14.398438 4.378906 L 14.425781 4.300781 L 14.527344 4.117188 C 14.527344 4.117188 14.527344 3.933594 14.554688 3.933594 C 14.585938 3.933594 14.609375 3.878906 14.609375 3.878906 L 14.660156 3.800781 L 14.792969 3.800781 L 14.792969 3.695312 L 14.898438 3.59375 C 14.898438 3.59375 14.898438 3.488281 14.925781 3.488281 C 14.953125 3.488281 15.082031 3.488281 15.082031 3.488281 L 15.183594 3.332031 L 15.316406 3.226562 L 15.449219 3.199219 L 15.394531 3.015625 L 15.449219 2.910156 L 13.3125 2.910156 L 13.3125 2.964844 L 5.011719 2.964844 L 6.8125 13.65625 L 6.863281 13.738281 L 6.863281 13.921875 L 6.996094 14.023438 L 6.996094 14.105469 C 6.996094 14.105469 6.996094 14.132812 6.996094 14.183594 C 6.996094 14.234375 7.078125 14.265625 7.078125 14.265625 L 7.023438 14.394531 L 7.078125 14.476562 L 7.128906 14.578125 C 7.128906 14.578125 7.128906 14.578125 7.128906 14.660156 C 7.128906 14.738281 7.128906 14.816406 7.128906 14.816406 L 7.207031 14.816406 L 7.207031 14.972656 L 7.519531 15.390625 L 7.574219 15.597656 L 7.625 15.910156 L 7.574219 16.144531 L 7.574219 16.328125 L 7.9375 16.566406 L 7.9375 16.644531 L 7.832031 16.882812 L 7.675781 16.855469 L 7.625 16.984375 L 7.363281 17.167969 L 7.335938 17.511719 C 7.335938 17.511719 7.363281 17.613281 7.363281 17.640625 C 7.363281 17.667969 7.363281 17.824219 7.363281 17.824219 L 7.335938 17.929688 L 7.234375 17.980469 L 7.207031 18.113281 L 7.179688 18.320312 L 7.023438 18.609375 L 6.992188 19.027344 C 6.992188 19.027344 7.097656 19.160156 7.097656 19.289062 C 7.097656 19.417969 7.152344 19.574219 7.152344 19.574219 L 7.308594 19.8125 L 7.410156 20.179688 L 7.382812 20.230469 L 7.355469 20.625 L 7.304688 20.757812 L 7.253906 20.886719 L 7.222656 20.992188 L 7.195312 21.355469 L 7.144531 21.511719 L 7.117188 21.59375 L 7.167969 21.726562 L 7.167969 21.960938 L 7.535156 22.71875 L 7.585938 22.769531 L 7.585938 22.851562 L 7.535156 22.851562 L 7.535156 23.007812 L 7.640625 23.089844 L 7.640625 23.246094 C 7.640625 23.246094 7.875 23.480469 7.847656 23.585938 C 7.820312 23.6875 7.820312 23.949219 7.820312 23.949219 L 8.109375 24.238281 L 8.1875 24.265625 L 16.089844 24.816406 L 19.113281 24.972656 C 19.113281 24.972656 19.085938 25.023438 19.113281 25.074219 C 19.140625 25.128906 19.140625 25.335938 19.21875 25.386719 C 19.296875 25.441406 19.246094 25.675781 19.246094 25.675781 L 19.273438 25.832031 L 19.351562 25.988281 L 19.796875 25.988281 C 19.796875 25.988281 19.878906 26.121094 19.929688 25.910156 C 19.980469 25.699219 19.929688 25.753906 19.929688 25.753906 C 19.929688 25.753906 19.929688 25.648438 19.957031 25.621094 C 19.984375 25.59375 20.007812 25.488281 20.007812 25.488281 L 20.035156 25.230469 L 20.089844 24.914062 L 19.933594 24.523438 L 19.933594 24.472656 L 19.960938 24.339844 L 19.960938 24.261719 L 19.933594 24.105469 L 20.035156 24.078125 L 20.035156 23.917969 L 20.117188 23.890625 L 20.21875 23.996094 L 20.324219 23.707031 L 20.457031 23.789062 L 20.507812 23.734375 L 20.5625 23.734375 L 20.691406 23.917969 L 20.980469 23.917969 L 21.007812 24.023438 L 21.113281 23.996094 C 21.113281 23.996094 21.191406 24.101562 21.269531 24.101562 C 21.34375 24.101562 21.582031 24.152344 21.582031 24.152344 L 21.765625 24.207031 L 21.765625 24.257812 L 21.816406 24.179688 L 21.84375 24.230469 L 22.054688 24.230469 L 22.054688 24.125 L 22.136719 24.152344 L 22.1875 23.945312 L 22.265625 23.945312 L 22.03125 23.734375 L 22.03125 23.632812 L 21.859375 23.632812 L 21.808594 23.660156 L 21.78125 23.605469 L 21.753906 23.527344 L 21.832031 23.554688 L 22.019531 23.371094 L 22.121094 23.605469 L 22.148438 23.242188 L 22.175781 23.109375 L 22.019531 23.058594 L 21.96875 23.085938 L 21.941406 23.085938 L 21.941406 22.878906 L 21.96875 22.824219 L 22.152344 22.824219 L 22.179688 22.640625 L 22.046875 22.691406 L 22.046875 22.640625 L 22.074219 22.589844 L 21.890625 22.535156 C 21.890625 22.535156 21.972656 22.507812 21.945312 22.433594 C 21.917969 22.355469 21.917969 22.277344 21.917969 22.277344 C 21.917969 22.277344 21.996094 22.40625 22.074219 22.460938 C 22.148438 22.511719 22.074219 22.40625 22.074219 22.40625 L 22.046875 22.277344 L 22.019531 22.222656 L 21.964844 22.222656 L 21.964844 22.121094 L 21.886719 22.09375 L 21.804688 22.011719 L 21.804688 21.855469 L 21.726562 21.828125 L 21.777344 21.773438 L 21.832031 21.640625 L 21.882812 21.773438 L 22.015625 21.722656 L 22.015625 21.828125 L 22.09375 21.90625 L 22.148438 21.90625 L 22.121094 21.984375 C 22.121094 21.984375 22.039062 22.066406 22.089844 22.066406 C 22.144531 22.066406 22.144531 22.066406 22.144531 22.066406 C 22.144531 22.066406 22.089844 22.25 22.117188 22.25 C 22.140625 22.25 22.300781 22.277344 22.300781 22.277344 L 22.300781 22.121094 L 22.378906 22.066406 L 22.378906 21.808594 L 22.484375 21.652344 L 22.617188 21.753906 L 22.617188 21.9375 L 22.5625 22.019531 L 22.5625 22.097656 L 22.644531 22.148438 L 22.800781 22.097656 L 22.902344 21.914062 L 22.984375 21.835938 L 22.984375 21.78125 L 22.902344 21.808594 L 22.800781 21.992188 L 22.773438 21.863281 L 22.851562 21.707031 L 22.851562 21.652344 L 22.878906 21.523438 L 22.984375 21.523438 L 22.984375 21.707031 L 23.0625 21.835938 L 23.144531 21.808594 L 23.089844 21.730469 L 23.144531 21.625 L 23.195312 21.546875 L 23.089844 21.441406 L 23.011719 21.414062 L 22.90625 21.28125 L 22.933594 21.125 L 22.882812 20.996094 L 22.777344 20.914062 L 22.671875 20.785156 L 22.726562 20.730469 L 22.855469 20.496094 L 22.855469 20.414062 L 22.804688 20.386719 L 22.804688 20.230469 L 22.671875 20.285156 L 22.59375 20.203125 L 22.726562 20.152344 L 22.804688 20.074219 L 22.855469 20.074219 L 22.9375 20.152344 L 22.9375 20.046875 L 22.964844 19.996094 L 22.992188 19.917969 L 23.019531 19.8125 L 23.070312 19.839844 L 23.070312 19.972656 L 23.019531 20.050781 L 23.019531 20.15625 L 23.125 20 L 23.203125 19.816406 L 23.253906 19.734375 L 23.175781 19.683594 L 23.097656 19.683594 L 23.015625 19.65625 L 22.964844 19.65625 L 22.882812 19.683594 C 22.882812 19.683594 22.804688 19.527344 22.832031 19.527344 C 22.859375 19.527344 22.964844 19.472656 22.964844 19.472656 L 22.859375 19.371094 L 22.859375 19.21875 L 22.941406 19.375 L 22.992188 19.375 L 23.019531 19.296875 L 23.046875 19.324219 L 23.097656 19.429688 L 23.179688 19.429688 L 23.179688 19.480469 L 23.257812 19.53125 L 23.335938 19.347656 L 23.335938 19.269531 L 23.257812 19.242188 L 23.207031 19.242188 L 23.125 19.34375 L 23.097656 19.1875 L 23.097656 19.085938 L 22.96875 18.929688 L 22.835938 18.929688 L 22.835938 18.847656 L 22.886719 18.769531 L 22.96875 18.769531 C 22.96875 18.769531 22.914062 18.820312 22.996094 18.820312 C 23.074219 18.820312 22.996094 18.820312 23.074219 18.820312 C 23.152344 18.820312 23.230469 18.820312 23.230469 18.820312 L 23.230469 18.953125 C 23.230469 18.953125 23.203125 19.085938 23.230469 19.085938 C 23.257812 19.085938 23.386719 19.058594 23.386719 19.058594 L 23.464844 18.976562 L 23.492188 18.898438 L 23.546875 18.792969 L 23.546875 18.742188 L 23.625 18.742188 L 23.757812 18.820312 L 23.757812 19.289062 L 24.148438 18.875 L 24.148438 18.792969 L 24.046875 18.820312 C 24.046875 18.820312 24.019531 18.769531 23.992188 18.742188 C 23.964844 18.714844 23.964844 18.714844 23.964844 18.714844 L 23.78125 18.664062 L 23.726562 18.640625 L 23.652344 18.609375 L 23.625 18.402344 L 23.730469 18.585938 L 23.9375 18.613281 L 23.9375 18.535156 L 23.808594 18.507812 L 23.726562 18.375 L 23.726562 18.292969 L 23.859375 18.449219 L 23.910156 18.371094 L 23.964844 18.476562 C 23.964844 18.476562 23.882812 18.503906 24.042969 18.503906 C 24.199219 18.503906 24.199219 18.554688 24.199219 18.554688 L 24.25 18.554688 L 24.304688 18.609375 L 24.589844 18.398438 L 24.433594 18.292969 L 24.40625 18.242188 L 24.277344 18.109375 L 24.460938 18.191406 L 24.539062 18.191406 L 24.589844 18.136719 L 24.617188 18.136719 L 24.617188 18.191406 L 24.722656 18.191406 L 24.878906 18.058594 L 24.878906 17.980469 L 24.984375 17.953125 L 24.984375 17.796875 Z M 24.9375 17.785156 " fill-opacity="1" fill-rule="nonzero"/></g><path fill="#014d4e" d="M 23.632812 19.429688 L 23.605469 19.558594 L 23.605469 19.664062 L 23.53125 19.742188 L 23.582031 19.820312 L 23.605469 19.949219 L 23.605469 20.082031 L 23.660156 20 L 23.660156 19.949219 L 23.6875 19.871094 L 23.710938 19.820312 L 23.761719 19.507812 L 23.789062 19.429688 Z M 23.632812 19.429688 " fill-opacity="1" fill-rule="nonzero"/><path fill="#014d4e" d="M 22.902344 20.238281 L 22.902344 20.394531 L 22.957031 20.445312 C 22.957031 20.445312 22.957031 20.417969 22.984375 20.394531 C 23.011719 20.367188 22.984375 20.339844 22.984375 20.339844 L 22.984375 20.238281 Z M 22.902344 20.238281 " fill-opacity="1" fill-rule="nonzero"/><path fill="#014d4e" d="M 23.425781 20.3125 C 23.425781 20.3125 23.425781 20.367188 23.425781 20.394531 C 23.425781 20.421875 23.398438 20.472656 23.398438 20.472656 L 23.371094 20.394531 L 23.34375 20.3125 L 23.34375 20.234375 L 23.238281 20.367188 C 23.238281 20.367188 23.160156 20.46875 23.160156 20.5 C 23.160156 20.527344 23.132812 20.628906 23.132812 20.628906 L 23.132812 20.683594 L 23.105469 20.710938 L 23.050781 20.8125 C 23.050781 20.839844 23.050781 20.894531 23.050781 20.894531 L 23.078125 20.972656 C 23.078125 20.972656 23.105469 20.945312 23.128906 20.972656 C 23.152344 21 23.207031 21.023438 23.207031 20.972656 C 23.207031 20.921875 23.179688 20.816406 23.207031 20.816406 C 23.234375 20.816406 23.234375 20.765625 23.261719 20.738281 C 23.285156 20.710938 23.339844 20.65625 23.363281 20.632812 C 23.390625 20.605469 23.445312 20.527344 23.445312 20.527344 L 23.523438 20.398438 L 23.523438 20.34375 L 23.550781 20.316406 L 23.449219 20.183594 Z M 23.425781 20.3125 " fill-opacity="1" fill-rule="nonzero"/><path fill="#014d4e" d="M 22.617188 22.453125 C 22.617188 22.441406 22.617188 22.433594 22.617188 22.425781 C 22.617188 22.425781 22.617188 22.414062 22.617188 22.398438 C 22.617188 22.367188 22.617188 22.320312 22.617188 22.269531 C 22.617188 22.1875 22.589844 22.269531 22.589844 22.269531 C 22.589844 22.269531 22.535156 22.296875 22.535156 22.320312 C 22.535156 22.34375 22.484375 22.425781 22.484375 22.425781 L 22.484375 22.792969 L 22.5625 22.738281 C 22.5625 22.738281 22.589844 22.6875 22.617188 22.636719 C 22.644531 22.582031 22.617188 22.554688 22.617188 22.554688 C 22.617188 22.554688 22.617188 22.554688 22.617188 22.453125 Z M 22.617188 22.453125 " fill-opacity="1" fill-rule="nonzero"/><path fill="#014d4e" d="M 22.488281 23.082031 C 22.488281 23.109375 22.589844 23.109375 22.566406 23.132812 C 22.542969 23.15625 22.566406 23.160156 22.566406 23.210938 C 22.566406 23.265625 22.539062 23.265625 22.515625 23.238281 C 22.488281 23.210938 22.515625 23.1875 22.488281 23.1875 C 22.460938 23.1875 22.460938 23.160156 22.433594 23.1875 C 22.410156 23.214844 22.382812 23.214844 22.382812 23.238281 C 22.382812 23.265625 22.433594 23.320312 22.433594 23.320312 L 22.433594 23.449219 C 22.382812 23.449219 22.382812 23.449219 22.382812 23.449219 L 22.332031 23.503906 L 22.332031 24.023438 L 22.304688 24.078125 L 22.25 24.128906 L 22.40625 24.261719 C 22.40625 24.261719 22.40625 24.128906 22.40625 24.105469 C 22.40625 24.078125 22.378906 24.078125 22.378906 24.050781 C 22.378906 24.027344 22.378906 23.949219 22.378906 23.917969 C 22.378906 23.890625 22.40625 23.839844 22.40625 23.816406 C 22.40625 23.789062 22.488281 23.632812 22.488281 23.632812 L 22.566406 23.5 L 22.566406 23.34375 L 22.617188 23.34375 L 22.617188 22.953125 L 22.566406 23.054688 C 22.5625 23.054688 22.488281 23.054688 22.488281 23.082031 Z M 22.488281 23.082031 " fill-opacity="1" fill-rule="nonzero"/></svg>