<svg xmlns="http://www.w3.org/2000/svg" xmlns:xlink="http://www.w3.org/1999/xlink" width="40" zoomAndPan="magnify" viewBox="0 0 30 30.000001" height="40" preserveAspectRatio="xMidYMid meet" version="1.0"><defs><clipPath id="ce79a518dc"><path d="M 5.8125 2.902344 L 23.957031 2.902344 L 23.957031 26.128906 L 5.8125 26.128906 Z M 5.8125 2.902344 " clip-rule="nonzero"/></clipPath></defs><g clip-path="url(#ce79a518dc)"><path fill="#014d4e" d="M 23.164062 13.828125 C 23.074219 13.867188 23.019531 14.011719 22.972656 14.113281 C 22.9375 14.191406 22.960938 14.304688 22.914062 14.367188 C 22.746094 14.582031 22.589844 14.820312 22.378906 14.980469 C 22.136719 15.167969 22.0625 15.359375 22.230469 15.6875 C 21.785156 15.613281 21.726562 15.917969 21.605469 16.179688 C 21.285156 16.863281 20.960938 17.546875 20.625 18.222656 C 20.554688 18.363281 20.414062 18.464844 20.3125 18.589844 C 20.097656 18.855469 19.886719 19.128906 19.675781 19.398438 C 19.667969 19.40625 19.660156 19.417969 19.664062 19.425781 C 19.855469 19.878906 19.582031 20.277344 19.507812 20.695312 C 19.488281 20.796875 19.386719 20.890625 19.3125 20.980469 C 19.207031 21.105469 19.0625 21.203125 18.988281 21.34375 C 18.851562 21.59375 18.742188 21.855469 18.652344 22.125 C 18.570312 22.382812 18.488281 22.65625 18.488281 22.921875 C 18.488281 23.578125 18.167969 24.03125 17.640625 24.339844 C 17.152344 24.625 16.652344 24.867188 16.347656 25.382812 C 16.28125 25.496094 16.078125 25.589844 15.933594 25.589844 C 15.617188 25.597656 15.269531 25.730469 14.988281 25.421875 C 14.925781 25.355469 14.738281 25.394531 14.609375 25.40625 C 14.464844 25.417969 14.328125 25.472656 14.1875 25.476562 C 13.941406 25.480469 13.890625 25.363281 14.011719 25.152344 C 14.035156 25.117188 14.082031 25.0625 14.074219 25.054688 C 13.898438 24.859375 13.726562 24.660156 13.523438 24.496094 C 13.488281 24.46875 13.277344 24.578125 13.222656 24.667969 C 13.105469 24.863281 12.941406 24.9375 12.738281 24.929688 C 12.4375 24.914062 12.136719 24.878906 11.832031 24.84375 C 11.609375 24.820312 11.375 24.816406 11.160156 24.75 C 11.03125 24.710938 10.945312 24.554688 10.820312 24.488281 C 10.730469 24.4375 10.601562 24.410156 10.507812 24.4375 C 9.972656 24.59375 9.632812 25.019531 9.269531 25.40625 C 9.246094 25.425781 9.21875 25.464844 9.199219 25.460938 C 8.875 25.425781 8.828125 25.691406 8.710938 25.890625 C 8.582031 26.121094 8.425781 26.007812 8.328125 25.863281 C 8.179688 25.644531 8.046875 25.5625 7.765625 25.691406 C 7.53125 25.800781 7.253906 25.761719 7.042969 25.519531 C 6.96875 25.429688 6.792969 25.394531 6.667969 25.394531 C 6.128906 25.398438 5.886719 25.210938 5.820312 24.6875 C 5.8125 24.605469 5.855469 24.519531 5.886719 24.4375 C 5.925781 24.335938 6.007812 24.242188 6.019531 24.140625 C 6.046875 23.9375 6.140625 23.871094 6.335938 23.84375 C 6.457031 23.828125 6.605469 23.738281 6.667969 23.632812 C 7.011719 23.078125 7.3125 22.496094 7.664062 21.941406 C 8.144531 21.179688 8.058594 20.378906 7.847656 19.574219 C 7.742188 19.171875 7.792969 18.941406 8.160156 18.726562 C 8.273438 18.660156 8.398438 18.605469 8.507812 18.535156 C 8.582031 18.484375 8.703125 18.394531 8.695312 18.347656 C 8.59375 17.871094 9.1875 17.539062 8.953125 17.027344 C 8.910156 16.929688 9.027344 16.761719 9.066406 16.628906 C 9.117188 16.441406 9.199219 16.269531 8.898438 16.175781 C 8.765625 16.136719 8.679688 15.921875 8.589844 15.777344 C 8.421875 15.5 8.1875 15.296875 7.960938 15.074219 C 7.632812 14.757812 7.09375 14.554688 7.046875 13.984375 C 7.042969 13.917969 7.003906 13.832031 6.953125 13.796875 C 6.75 13.65625 6.773438 13.507812 6.84375 13.292969 C 6.878906 13.1875 6.785156 12.964844 6.683594 12.902344 C 6.445312 12.757812 6.429688 12.582031 6.5 12.355469 C 6.539062 12.226562 6.570312 12.097656 6.59375 11.96875 C 6.621094 11.804688 6.613281 11.65625 6.398438 11.625 C 6.355469 11.621094 6.324219 11.601562 6.292969 11.570312 C 6.195312 11.453125 6.179688 10.554688 6.269531 10.410156 C 6.492188 10.0625 6.40625 9.585938 6.109375 9.308594 C 6.007812 9.214844 5.9375 9.023438 5.945312 8.882812 C 5.964844 8.484375 6 8.082031 6.09375 7.699219 C 6.160156 7.417969 6.3125 7.152344 6.46875 6.90625 C 6.625 6.652344 6.808594 6.421875 7.015625 6.207031 C 7.300781 5.925781 7.660156 5.707031 7.914062 5.398438 C 8.160156 5.101562 8.277344 4.699219 8.515625 4.394531 C 8.78125 4.050781 9.050781 3.742188 9.058594 3.269531 C 9.0625 2.980469 9.316406 2.910156 9.554688 2.941406 C 9.785156 2.972656 10.007812 3.054688 10.230469 3.132812 C 10.703125 3.296875 11.167969 3.472656 11.636719 3.648438 C 11.75 3.691406 11.890625 3.714844 11.96875 3.796875 C 12.210938 4.066406 12.496094 4.058594 12.8125 3.992188 C 12.910156 3.96875 13.023438 3.96875 13.113281 4.003906 C 13.445312 4.121094 13.765625 4.234375 14.117188 4.046875 C 14.183594 4.011719 14.300781 4.042969 14.382812 4.070312 C 14.554688 4.125 14.699219 4.191406 14.886719 4.0625 C 14.960938 4.007812 15.1875 4.09375 15.292969 4.179688 C 15.65625 4.492188 15.996094 4.824219 16.34375 5.152344 C 16.394531 5.203125 16.457031 5.253906 16.480469 5.316406 C 16.648438 5.765625 17.050781 5.949219 17.40625 6.214844 C 18.152344 6.769531 18.859375 7.382812 19.578125 7.96875 C 19.671875 7.941406 19.828125 7.839844 19.921875 7.878906 C 20.164062 7.984375 20.230469 8.269531 20.082031 8.574219 C 20.417969 8.40625 20.542969 8.621094 20.6875 8.816406 C 20.730469 8.878906 20.816406 8.921875 20.894531 8.941406 C 21.355469 9.066406 21.566406 9.410156 21.664062 9.84375 C 21.679688 9.914062 21.679688 9.992188 21.710938 10.054688 C 21.773438 10.171875 21.851562 10.285156 21.921875 10.398438 C 21.949219 10.273438 21.972656 10.144531 22.003906 10.019531 C 22.03125 9.90625 22.046875 9.71875 22.109375 9.703125 C 22.214844 9.671875 22.378906 9.710938 22.46875 9.785156 C 22.667969 9.945312 22.835938 10.144531 23.015625 10.332031 C 23.03125 10.34375 23.039062 10.367188 23.058594 10.375 C 23.558594 10.59375 23.597656 11.078125 23.722656 11.515625 C 23.777344 11.710938 23.839844 11.90625 23.914062 12.097656 C 24.183594 12.8125 23.867188 13.523438 23.164062 13.828125 Z M 23.164062 13.828125 " fill-opacity="1" fill-rule="nonzero"/></g></svg>