<svg xmlns="http://www.w3.org/2000/svg" xmlns:xlink="http://www.w3.org/1999/xlink" width="40" zoomAndPan="magnify" viewBox="0 0 30 30.000001" height="40" preserveAspectRatio="xMidYMid meet" version="1.0"><defs><clipPath id="0c830a53c9"><path d="M 3.386719 8.753906 L 26.613281 8.753906 L 26.613281 20.328125 L 3.386719 20.328125 Z M 3.386719 8.753906 " clip-rule="nonzero"/></clipPath></defs><g clip-path="url(#0c830a53c9)"><path fill="#014d4e" d="M 24.578125 20.058594 L 24.660156 20.0625 L 24.660156 20.085938 L 24.632812 20.085938 L 24.632812 20.195312 C 24.601562 20.207031 24.5625 20.246094 24.550781 20.277344 L 24.523438 20.273438 L 24.523438 20.246094 L 24.539062 20.238281 C 24.527344 20.203125 24.527344 20.152344 24.523438 20.113281 L 24.578125 20.113281 Z M 23.371094 18.925781 L 23.425781 18.929688 L 23.425781 18.980469 L 23.371094 18.953125 Z M 23.539062 18.605469 L 23.5625 18.605469 L 23.5625 18.632812 L 23.539062 18.632812 Z M 12.683594 18.320312 L 12.777344 18.324219 L 12.777344 18.363281 L 12.753906 18.382812 L 12.75 18.421875 L 12.742188 18.425781 L 12.734375 18.390625 C 12.726562 18.410156 12.714844 18.433594 12.699219 18.449219 C 12.652344 18.4375 12.65625 18.378906 12.664062 18.34375 Z M 26.574219 17.070312 L 26.582031 17.089844 L 26.601562 17.097656 L 26.601562 17.125 L 26.574219 17.125 L 26.5625 17.105469 L 26.546875 17.097656 L 26.546875 17.125 C 26.523438 17.128906 26.484375 17.136719 26.464844 17.152344 L 26.464844 17.097656 Z M 23.847656 16.914062 L 23.847656 16.96875 C 23.816406 16.96875 23.789062 16.984375 23.765625 17.007812 L 23.710938 17.019531 L 23.714844 16.964844 L 23.6875 16.964844 L 23.6875 16.9375 C 23.71875 16.945312 23.753906 16.949219 23.785156 16.957031 L 23.792969 16.941406 Z M 23.230469 16.652344 C 23.410156 16.6875 23.386719 16.675781 23.5 16.789062 L 23.550781 16.804688 C 23.558594 16.878906 23.589844 16.945312 23.605469 17.019531 L 23.550781 17.019531 L 23.550781 16.964844 L 23.523438 16.964844 L 23.523438 17.019531 C 23.441406 17.023438 23.359375 17.039062 23.28125 17.054688 L 23.265625 17.070312 L 23.253906 17.152344 L 23.199219 17.148438 L 23.199219 17.203125 C 23.140625 17.199219 23.066406 17.195312 23.007812 17.175781 L 23.007812 17.121094 C 23.035156 17.101562 23.109375 17.109375 23.144531 17.097656 C 23.140625 17.085938 23.128906 17.0625 23.117188 17.054688 L 23.0625 17.042969 L 23.066406 16.988281 L 23.011719 16.988281 L 23.011719 16.933594 C 22.925781 16.96875 22.867188 16.941406 22.796875 16.90625 L 22.796875 16.929688 L 22.6875 16.929688 L 22.703125 16.875 L 22.78125 16.796875 L 22.796875 16.714844 C 22.820312 16.710938 22.859375 16.703125 22.878906 16.691406 L 22.878906 16.742188 C 22.898438 16.738281 22.921875 16.71875 22.933594 16.703125 C 22.957031 16.703125 22.992188 16.710938 23.011719 16.703125 C 23.03125 16.699219 23.050781 16.683594 23.066406 16.679688 C 23.074219 16.675781 23.140625 16.679688 23.148438 16.679688 C 23.179688 16.671875 23.195312 16.644531 23.230469 16.652344 Z M 26.308594 16.261719 L 26.335938 16.261719 L 26.363281 16.316406 L 26.320312 16.324219 L 26.308594 16.34375 L 26.28125 16.339844 L 26.28125 16.316406 L 26.300781 16.304688 Z M 4.851562 16.113281 C 4.863281 16.117188 4.871094 16.128906 4.875 16.140625 L 4.875 16.152344 C 4.863281 16.167969 4.839844 16.167969 4.824219 16.160156 L 4.816406 16.148438 C 4.8125 16.140625 4.816406 16.125 4.820312 16.117188 C 4.832031 16.113281 4.84375 16.113281 4.851562 16.113281 Z M 26.203125 15.804688 L 26.230469 15.804688 L 26.230469 15.859375 L 26.203125 15.859375 Z M 24.753906 15.117188 L 24.765625 15.222656 L 24.792969 15.25 L 24.808594 15.304688 C 24.847656 15.339844 24.902344 15.300781 24.941406 15.28125 C 24.972656 15.308594 24.949219 15.484375 24.941406 15.523438 C 24.976562 15.539062 25.011719 15.558594 25.046875 15.578125 L 25.046875 15.523438 C 25.070312 15.535156 25.105469 15.558594 25.128906 15.5625 C 25.160156 15.570312 25.203125 15.558594 25.238281 15.566406 L 25.34375 15.59375 L 25.371094 15.621094 C 25.414062 15.625 25.46875 15.625 25.507812 15.609375 C 25.535156 15.644531 25.550781 15.777344 25.546875 15.824219 L 25.519531 15.851562 C 25.519531 15.855469 25.515625 15.875 25.519531 15.878906 C 25.523438 15.894531 25.539062 15.914062 25.542969 15.929688 C 25.554688 15.964844 25.558594 16.003906 25.570312 16.039062 C 25.578125 16.058594 25.589844 16.074219 25.597656 16.09375 C 25.597656 16.097656 25.597656 16.167969 25.597656 16.175781 L 25.625 16.203125 C 25.625 16.222656 25.625 16.265625 25.609375 16.28125 C 25.644531 16.304688 25.730469 16.332031 25.769531 16.324219 L 25.777344 16.257812 L 25.796875 16.257812 L 25.8125 16.285156 L 25.796875 16.335938 L 25.824219 16.335938 L 25.824219 16.269531 L 25.933594 16.285156 L 25.933594 16.339844 L 26.015625 16.339844 L 26.011719 16.394531 C 26.03125 16.378906 26.097656 16.367188 26.121094 16.367188 C 26.125 16.414062 26.167969 16.527344 26.160156 16.554688 L 26.132812 16.582031 L 26.132812 16.609375 L 26.160156 16.636719 L 26.160156 16.691406 L 26.132812 16.71875 C 26.117188 16.773438 26.164062 16.824219 26.171875 16.878906 C 26.203125 16.890625 26.246094 16.894531 26.28125 16.894531 L 26.28125 16.847656 C 26.292969 16.847656 26.304688 16.84375 26.316406 16.839844 C 26.308594 16.914062 26.292969 16.996094 26.304688 17.070312 L 26.257812 17.148438 L 26.234375 17.113281 L 26.269531 17.078125 L 26.21875 17.074219 L 26.210938 17.121094 L 26.238281 17.152344 L 26.195312 17.203125 L 26.140625 17.203125 L 26.140625 17.230469 C 26.160156 17.234375 26.183594 17.253906 26.195312 17.269531 L 26.25 17.285156 L 26.246094 17.335938 C 26.210938 17.34375 26.144531 17.363281 26.113281 17.335938 L 26.097656 17.417969 L 26.085938 17.429688 L 26.003906 17.441406 L 25.988281 17.523438 L 25.933594 17.578125 L 25.933594 17.628906 C 25.96875 17.648438 25.992188 17.753906 26 17.792969 C 25.980469 17.777344 25.941406 17.769531 25.921875 17.765625 L 25.917969 17.820312 L 25.902344 17.828125 L 25.890625 17.84375 L 25.839844 17.84375 L 25.839844 17.816406 L 25.882812 17.808594 L 25.878906 17.765625 L 25.851562 17.738281 C 25.855469 17.632812 25.855469 17.691406 25.828125 17.601562 C 25.820312 17.578125 25.828125 17.53125 25.816406 17.496094 L 25.761719 17.496094 L 25.761719 17.546875 C 25.726562 17.523438 25.660156 17.539062 25.625 17.546875 C 25.617188 17.601562 25.59375 17.644531 25.554688 17.679688 L 25.554688 17.761719 C 25.535156 17.78125 25.519531 17.796875 25.5 17.816406 L 25.488281 17.894531 L 25.40625 17.894531 C 25.398438 17.84375 25.339844 17.78125 25.378906 17.734375 C 25.285156 17.691406 25.203125 17.742188 25.109375 17.757812 C 25.089844 17.820312 25.089844 17.90625 25.082031 17.972656 C 24.976562 17.988281 24.90625 18.050781 24.835938 18.117188 C 24.800781 18.117188 24.765625 18.121094 24.730469 18.117188 L 24.714844 18.132812 L 24.714844 18.160156 C 24.703125 18.175781 24.6875 18.195312 24.675781 18.210938 C 24.6875 18.242188 24.691406 18.285156 24.6875 18.320312 L 24.632812 18.375 C 24.628906 18.394531 24.636719 18.433594 24.644531 18.453125 L 24.699219 18.453125 C 24.691406 18.472656 24.636719 18.535156 24.617188 18.546875 C 24.601562 18.558594 24.582031 18.5625 24.5625 18.574219 C 24.558594 18.578125 24.527344 18.609375 24.523438 18.613281 C 24.476562 18.710938 24.492188 18.9375 24.492188 19.042969 C 24.492188 19.148438 24.445312 19.191406 24.34375 19.203125 L 24.339844 19.285156 L 24.3125 19.285156 L 24.316406 19.230469 C 24.230469 19.273438 24.230469 19.277344 24.164062 19.335938 C 24.160156 19.359375 24.171875 19.398438 24.179688 19.417969 C 24.125 19.4375 24.023438 19.429688 23.960938 19.429688 L 23.9375 19.402344 L 23.855469 19.402344 C 23.84375 19.394531 23.832031 19.375 23.828125 19.363281 L 23.882812 19.363281 L 23.882812 19.226562 L 23.9375 19.226562 C 23.945312 19.171875 23.984375 19.125 23.992188 19.066406 L 23.910156 19.066406 L 23.910156 19.121094 L 23.777344 19.105469 C 23.734375 19.089844 23.738281 18.925781 23.722656 18.875 C 23.703125 18.890625 23.640625 18.902344 23.617188 18.902344 C 23.625 18.914062 23.632812 18.941406 23.628906 18.957031 L 23.617188 18.96875 L 23.5625 18.96875 L 23.546875 18.957031 C 23.546875 18.890625 23.550781 18.832031 23.535156 18.765625 C 23.554688 18.753906 23.621094 18.742188 23.644531 18.742188 L 23.65625 18.6875 L 23.738281 18.609375 L 23.746094 18.589844 L 23.726562 18.582031 L 23.726562 18.554688 L 23.753906 18.554688 L 23.761719 18.570312 L 23.808594 18.566406 C 23.929688 18.449219 23.914062 18.449219 24.105469 18.410156 L 24.132812 18.382812 L 24.214844 18.371094 C 24.226562 18.351562 24.238281 18.3125 24.242188 18.289062 L 24.1875 18.316406 L 24.1875 18.261719 C 24.261719 18.261719 24.3125 18.285156 24.375 18.316406 C 24.390625 18.296875 24.398438 18.261719 24.402344 18.238281 L 24.539062 18.238281 L 24.539062 18.183594 L 24.59375 18.183594 C 24.617188 18.140625 24.640625 18.097656 24.648438 18.050781 C 24.636719 18.058594 24.609375 18.066406 24.59375 18.0625 L 24.582031 18.050781 L 24.566406 17.996094 C 24.53125 17.984375 24.5 17.980469 24.460938 17.980469 L 24.445312 17.96875 L 24.433594 17.886719 L 24.488281 17.886719 C 24.476562 17.84375 24.46875 17.796875 24.460938 17.753906 L 24.515625 17.753906 C 24.523438 17.734375 24.542969 17.710938 24.558594 17.699219 L 24.570312 17.589844 C 24.550781 17.585938 24.511719 17.574219 24.492188 17.578125 L 24.464844 17.605469 C 24.441406 17.605469 24.402344 17.597656 24.382812 17.605469 C 24.359375 17.609375 24.332031 17.640625 24.300781 17.628906 L 24.273438 17.601562 L 24.167969 17.574219 C 24.148438 17.554688 24.125 17.535156 24.113281 17.507812 L 24.222656 17.507812 C 24.210938 17.480469 24.1875 17.460938 24.167969 17.441406 C 24.105469 17.441406 24.117188 17.433594 24.0625 17.414062 C 24.042969 17.40625 23.992188 17.414062 23.960938 17.40625 L 23.925781 17.398438 C 23.945312 17.378906 23.953125 17.289062 23.953125 17.265625 C 23.972656 17.277344 24.011719 17.289062 24.035156 17.292969 C 24.046875 17.269531 24.058594 17.234375 24.0625 17.210938 L 24.144531 17.210938 L 24.144531 17.183594 C 24.09375 17.167969 24.035156 17.160156 23.980469 17.15625 L 23.96875 17.023438 L 23.929688 16.980469 L 23.875 16.96875 C 23.890625 16.863281 23.929688 16.871094 23.972656 16.808594 C 23.980469 16.789062 23.988281 16.769531 24 16.753906 C 24.011719 16.734375 24.035156 16.714844 24.054688 16.699219 L 24.066406 16.617188 C 24.109375 16.625 24.160156 16.625 24.203125 16.632812 C 24.214844 16.636719 24.242188 16.65625 24.257812 16.660156 C 24.304688 16.671875 24.378906 16.625 24.445312 16.621094 C 24.4375 16.570312 24.414062 16.523438 24.378906 16.488281 L 24.367188 16.40625 L 24.421875 16.40625 C 24.433594 16.386719 24.445312 16.347656 24.449219 16.324219 L 24.394531 16.324219 L 24.421875 16.273438 L 24.3125 16.269531 L 24.3125 16.21875 L 24.421875 16.230469 L 24.449219 16.257812 C 24.46875 16.261719 24.507812 16.253906 24.53125 16.246094 C 24.503906 16.222656 24.515625 16.089844 24.53125 16.058594 C 24.5625 16.046875 24.578125 16.011719 24.613281 16.003906 L 24.613281 16.058594 C 24.636719 16.0625 24.671875 16.070312 24.691406 16.085938 C 24.722656 16.058594 24.699219 15.90625 24.695312 15.871094 L 24.75 15.898438 L 24.75 15.84375 L 24.667969 15.828125 C 24.628906 15.804688 24.609375 15.683594 24.640625 15.652344 L 24.589844 15.652344 L 24.601562 15.519531 L 24.628906 15.492188 L 24.644531 15.4375 L 24.660156 15.429688 C 24.652344 15.402344 24.664062 15.359375 24.671875 15.332031 L 24.617188 15.332031 C 24.625 15.3125 24.636719 15.273438 24.632812 15.25 C 24.613281 15.230469 24.59375 15.207031 24.566406 15.195312 L 24.566406 15.140625 C 24.585938 15.121094 24.722656 15.121094 24.753906 15.117188 Z M 24.460938 14.871094 L 24.484375 14.871094 L 24.484375 14.925781 C 24.503906 14.933594 24.527344 14.953125 24.539062 14.96875 L 24.59375 14.980469 C 24.597656 15.003906 24.605469 15.042969 24.621094 15.0625 L 24.539062 15.046875 L 24.5 15.007812 L 24.484375 14.953125 L 24.457031 14.953125 Z M 7.203125 14.539062 C 7.171875 14.554688 7 14.636719 6.996094 14.644531 C 6.996094 14.648438 6.996094 14.65625 7 14.660156 C 7 14.671875 6.996094 14.683594 6.988281 14.695312 L 6.976562 14.703125 C 6.964844 14.726562 6.972656 14.738281 6.976562 14.757812 C 6.980469 14.789062 6.964844 14.816406 6.964844 14.84375 C 6.964844 14.855469 6.976562 14.871094 6.972656 14.886719 C 6.972656 14.894531 6.964844 14.90625 6.964844 14.914062 C 6.960938 14.9375 6.96875 14.957031 6.964844 14.980469 L 6.953125 14.992188 C 6.957031 15.007812 6.953125 15.0625 6.960938 15.074219 L 6.96875 15.078125 L 6.96875 15.066406 C 6.980469 15.058594 7.03125 14.941406 7.035156 14.925781 C 7.035156 14.90625 7.03125 14.886719 7.039062 14.867188 C 7.054688 14.824219 7.074219 14.835938 7.089844 14.753906 L 7.101562 14.742188 L 7.125 14.746094 C 7.144531 14.761719 7.164062 14.796875 7.171875 14.816406 C 7.21875 14.921875 7.183594 14.949219 7.191406 15.042969 C 7.195312 15.082031 7.207031 15.117188 7.191406 15.160156 C 7.199219 15.183594 7.226562 15.214844 7.246094 15.21875 L 7.257812 15.21875 L 7.257812 15.210938 C 7.246094 15.195312 7.226562 15.148438 7.234375 15.128906 C 7.238281 15.128906 7.242188 15.125 7.246094 15.121094 C 7.246094 15.113281 7.265625 15.085938 7.269531 15.074219 L 7.277344 15.070312 L 7.285156 15.0625 C 7.28125 15.042969 7.296875 15.027344 7.296875 15.003906 C 7.296875 14.980469 7.285156 14.960938 7.28125 14.9375 C 7.277344 14.921875 7.28125 14.886719 7.28125 14.871094 C 7.28125 14.859375 7.28125 14.851562 7.277344 14.84375 C 7.242188 14.820312 7.210938 14.695312 7.238281 14.675781 C 7.253906 14.664062 7.28125 14.683594 7.296875 14.6875 C 7.304688 14.6875 7.316406 14.683594 7.324219 14.679688 C 7.34375 14.679688 7.507812 14.683594 7.527344 14.660156 L 7.53125 14.640625 C 7.507812 14.558594 7.246094 14.585938 7.238281 14.578125 L 7.210938 14.539062 Z M 18.25 14.414062 L 18.304688 14.414062 L 18.304688 14.46875 L 18.25 14.46875 Z M 18.199219 13.867188 L 18.320312 14.015625 L 18.328125 14.113281 L 18.292969 14.183594 L 18.226562 14.1875 L 18.226562 14.214844 L 18.199219 14.214844 L 18.199219 14.269531 L 18.183594 14.277344 C 18.183594 14.292969 18.191406 14.3125 18.199219 14.324219 L 18.132812 14.304688 C 18.105469 14.328125 18.085938 14.375 18.074219 14.40625 L 17.96875 14.453125 L 17.941406 14.382812 L 17.875 14.375 C 17.855469 14.28125 17.84375 14.125 17.875 14.03125 C 17.925781 14.019531 17.992188 13.960938 18.015625 13.914062 Z M 3.398438 13.84375 L 3.425781 13.84375 L 3.4375 13.863281 L 3.480469 13.871094 L 3.480469 13.925781 C 3.449219 13.914062 3.429688 13.882812 3.398438 13.871094 Z M 4.128906 13.660156 C 4.148438 13.679688 4.15625 13.769531 4.15625 13.792969 L 4.128906 13.792969 L 4.128906 13.847656 L 4.15625 13.847656 C 4.140625 13.886719 4.136719 13.941406 4.140625 13.980469 L 4.167969 14.007812 L 4.183594 14.0625 C 4.109375 14.058594 4.015625 14.019531 3.96875 13.96875 L 3.886719 13.96875 L 3.859375 13.941406 L 3.75 13.941406 L 3.738281 13.925781 C 3.707031 13.835938 3.703125 13.804688 3.726562 13.710938 C 3.824219 13.730469 3.878906 13.761719 3.996094 13.765625 L 3.996094 13.710938 C 4.015625 13.707031 4.039062 13.6875 4.050781 13.671875 Z M 17.933594 13.574219 C 17.941406 13.652344 17.972656 13.71875 17.984375 13.792969 C 17.960938 13.765625 17.882812 13.78125 17.851562 13.789062 L 17.851562 13.710938 L 17.824219 13.710938 L 17.824219 13.683594 L 17.851562 13.683594 L 17.851562 13.628906 C 17.886719 13.621094 17.898438 13.585938 17.933594 13.574219 Z M 6.105469 13.101562 L 6.160156 13.101562 L 6.160156 13.15625 L 6.105469 13.128906 Z M 19.503906 13.023438 L 19.53125 13.023438 L 19.539062 13.039062 L 19.558594 13.050781 L 19.558594 13.078125 L 19.53125 13.074219 L 19.523438 13.058594 L 19.503906 13.046875 Z M 18.453125 12.664062 L 18.480469 12.664062 L 18.480469 12.691406 L 18.453125 12.691406 Z M 17.484375 12.144531 L 17.511719 12.144531 L 17.519531 12.164062 L 17.539062 12.171875 L 17.539062 12.199219 L 17.511719 12.199219 L 17.5 12.183594 L 17.484375 12.171875 Z M 18.050781 12.042969 L 18.105469 12.042969 L 18.117188 12.085938 L 18.132812 12.097656 L 18.132812 12.121094 L 18.105469 12.121094 L 18.097656 12.105469 L 18.050781 12.09375 Z M 17.429688 11.984375 L 17.457031 11.984375 L 17.457031 12.011719 L 17.429688 12.011719 Z M 17.59375 11.824219 L 17.621094 11.824219 L 17.621094 11.851562 L 17.59375 11.851562 Z M 17.515625 11.769531 L 17.566406 11.769531 L 17.566406 11.824219 L 17.515625 11.796875 Z M 19.066406 11.507812 L 19.082031 11.535156 C 19.082031 11.664062 19.082031 11.789062 19.082031 11.914062 C 19.078125 11.96875 19.066406 12.160156 19.09375 12.207031 C 19.105469 12.230469 19.128906 12.257812 19.144531 12.277344 C 19.164062 12.308594 19.1875 12.339844 19.210938 12.363281 C 19.238281 12.363281 19.296875 12.402344 19.3125 12.421875 C 19.3125 12.453125 19.304688 12.488281 19.296875 12.523438 C 19.304688 12.550781 19.332031 12.582031 19.355469 12.601562 C 19.355469 12.632812 19.359375 12.683594 19.371094 12.714844 C 19.433594 12.765625 19.429688 12.84375 19.527344 12.851562 C 19.519531 12.898438 19.519531 12.945312 19.503906 12.996094 L 19.421875 12.996094 C 19.410156 13.039062 19.402344 13.085938 19.394531 13.128906 L 19.34375 13.128906 L 19.398438 13.203125 C 19.402344 13.222656 19.398438 13.257812 19.390625 13.273438 L 19.367188 13.289062 C 19.355469 13.28125 19.328125 13.273438 19.3125 13.277344 L 19.300781 13.289062 L 19.296875 13.304688 L 19.304688 13.3125 C 19.292969 13.371094 19.3125 13.429688 19.300781 13.492188 C 19.28125 13.511719 19.25 13.53125 19.222656 13.539062 L 19.191406 13.503906 C 19.140625 13.511719 19.113281 13.519531 19.070312 13.542969 L 19.054688 13.539062 C 19.015625 13.566406 18.988281 13.613281 18.933594 13.609375 C 18.914062 13.628906 18.898438 13.648438 18.878906 13.671875 C 18.855469 13.691406 18.796875 13.6875 18.773438 13.675781 L 18.769531 13.640625 L 18.820312 13.605469 L 18.785156 13.589844 L 18.777344 13.535156 L 18.734375 13.53125 C 18.71875 13.457031 18.691406 13.390625 18.675781 13.316406 L 18.671875 13.304688 L 18.710938 13.296875 C 18.707031 13.273438 18.703125 13.246094 18.699219 13.21875 L 18.652344 13.203125 C 18.652344 13.128906 18.640625 13.15625 18.625 13.097656 C 18.621094 13.082031 18.628906 12.90625 18.628906 12.886719 C 18.652344 12.90625 18.671875 12.921875 18.695312 12.9375 L 18.730469 12.9375 C 18.734375 12.925781 18.742188 12.761719 18.738281 12.746094 L 18.71875 12.710938 C 18.710938 12.699219 18.6875 12.675781 18.683594 12.664062 C 18.65625 12.585938 18.617188 12.507812 18.605469 12.421875 C 18.570312 12.390625 18.566406 12.359375 18.550781 12.3125 C 18.550781 12.3125 18.523438 12.289062 18.523438 12.289062 C 18.5 12.210938 18.492188 12.164062 18.402344 12.152344 C 18.402344 12.082031 18.371094 12.058594 18.363281 12.015625 C 18.355469 11.976562 18.355469 11.925781 18.351562 11.882812 C 18.371094 11.867188 18.566406 11.796875 18.59375 11.789062 C 18.597656 11.789062 18.640625 11.789062 18.648438 11.789062 L 18.675781 11.761719 L 18.785156 11.75 L 18.785156 11.695312 C 18.804688 11.679688 18.871094 11.671875 18.894531 11.671875 L 18.894531 11.617188 C 18.90625 11.613281 19.042969 11.519531 19.066406 11.507812 Z M 15.332031 10.808594 L 15.359375 10.808594 L 15.359375 10.835938 L 15.332031 10.835938 Z M 20.195312 10.738281 L 20.277344 10.738281 C 20.292969 10.757812 20.300781 10.796875 20.304688 10.820312 L 20.195312 10.789062 Z M 19.765625 10.570312 L 19.792969 10.570312 C 19.800781 10.605469 19.835938 10.621094 19.847656 10.652344 L 19.765625 10.652344 Z M 15.578125 10.191406 L 15.605469 10.191406 L 15.605469 10.21875 L 15.589844 10.230469 L 15.578125 10.246094 L 15.605469 10.246094 C 15.621094 10.296875 15.628906 10.355469 15.632812 10.40625 C 15.609375 10.398438 15.59375 10.382812 15.578125 10.367188 L 15.496094 10.351562 C 15.519531 10.308594 15.546875 10.269531 15.550781 10.21875 L 15.570312 10.210938 Z M 15.28125 10.164062 L 15.335938 10.164062 L 15.335938 10.191406 L 15.308594 10.191406 L 15.308594 10.246094 L 15.28125 10.246094 Z M 20.339844 9.769531 C 20.359375 9.78125 20.398438 9.792969 20.421875 9.796875 L 20.421875 9.847656 C 20.398438 9.84375 20.359375 9.835938 20.339844 9.820312 Z M 15.527344 9.707031 L 15.554688 9.707031 L 15.554688 9.734375 L 15.527344 9.734375 Z M 15.527344 9.652344 L 15.554688 9.652344 L 15.554688 9.679688 L 15.527344 9.679688 Z M 20.613281 9.121094 L 20.640625 9.125 L 20.667969 9.175781 L 20.613281 9.175781 Z M 14.230469 8.828125 C 14.246094 8.851562 14.285156 8.878906 14.3125 8.886719 C 14.328125 8.953125 14.328125 9.007812 14.328125 9.078125 L 14.351562 9.105469 L 14.367188 9.210938 C 14.386719 9.21875 14.410156 9.238281 14.417969 9.253906 C 14.476562 9.25 14.632812 9.246094 14.664062 9.308594 L 14.824219 9.324219 L 14.824219 9.214844 L 14.960938 9.214844 L 14.960938 9.132812 C 14.992188 9.164062 15.046875 9.136719 15.085938 9.152344 L 15.121094 9.113281 L 15.15625 9.152344 C 15.136719 9.171875 15.132812 9.21875 15.136719 9.242188 L 15.109375 9.269531 L 15.109375 9.324219 L 15.164062 9.378906 L 15.175781 9.433594 L 15.121094 9.417969 C 15.105469 9.402344 15.09375 9.386719 15.066406 9.378906 C 15.082031 9.414062 15.082031 9.445312 15.082031 9.484375 C 15.0625 9.503906 15.046875 9.515625 15.039062 9.539062 C 15.105469 9.53125 15.164062 9.523438 15.230469 9.511719 C 15.1875 9.597656 15.144531 9.636719 15.175781 9.730469 C 15.195312 9.742188 15.230469 9.753906 15.253906 9.757812 C 15.277344 9.816406 15.269531 9.886719 15.253906 9.945312 C 15.273438 9.957031 15.3125 9.96875 15.335938 9.972656 C 15.328125 9.984375 15.320312 10.003906 15.308594 10.011719 L 15.199219 10.023438 L 15.199219 10.105469 L 15.253906 10.105469 C 15.242188 10.128906 15.226562 10.144531 15.210938 10.160156 C 15.207031 10.195312 15.210938 10.238281 15.222656 10.269531 C 15.246094 10.289062 15.3125 10.289062 15.332031 10.269531 L 15.316406 10.429688 L 15.289062 10.457031 C 15.265625 10.539062 15.226562 10.699219 15.234375 10.78125 L 15.261719 10.808594 L 15.261719 10.859375 L 15.316406 10.914062 L 15.328125 10.96875 L 15.273438 10.957031 L 15.261719 10.941406 L 15.246094 10.886719 C 15.222656 10.894531 15.210938 10.910156 15.191406 10.929688 L 15.167969 10.929688 C 15.136719 10.910156 15.101562 10.761719 14.976562 10.792969 C 14.945312 10.800781 14.925781 10.824219 14.898438 10.839844 C 14.902344 10.875 14.972656 10.925781 14.945312 10.980469 L 15.003906 10.996094 L 15.015625 11.046875 L 14.992188 11.050781 C 14.945312 11.089844 14.90625 11.121094 14.878906 11.183594 L 14.882812 11.207031 C 14.960938 11.277344 14.929688 11.355469 14.917969 11.453125 L 14.867188 11.453125 L 14.835938 11.558594 L 14.757812 11.558594 L 14.742188 11.613281 L 14.730469 11.625 L 14.621094 11.636719 C 14.628906 11.621094 14.636719 11.601562 14.648438 11.585938 C 14.628906 11.578125 14.589844 11.566406 14.566406 11.570312 C 14.550781 11.582031 14.539062 11.617188 14.539062 11.636719 L 14.511719 11.636719 C 14.511719 11.601562 14.515625 11.570312 14.519531 11.535156 C 14.421875 11.507812 14.316406 11.5 14.214844 11.476562 L 14.210938 11.488281 L 14.15625 11.476562 C 14.152344 11.488281 14.136719 11.539062 14.144531 11.554688 C 14.148438 11.566406 14.230469 11.585938 14.246094 11.589844 L 14.257812 11.511719 L 14.355469 11.535156 L 14.355469 11.558594 C 14.335938 11.558594 14.316406 11.550781 14.296875 11.546875 L 14.289062 11.601562 C 14.371094 11.628906 14.449219 11.664062 14.53125 11.691406 L 14.539062 11.757812 C 14.558594 11.761719 14.605469 11.761719 14.621094 11.746094 C 14.636719 11.769531 14.636719 11.804688 14.621094 11.828125 C 14.65625 11.832031 14.691406 11.839844 14.726562 11.839844 C 14.757812 11.84375 14.808594 11.835938 14.835938 11.84375 C 14.882812 11.855469 14.902344 11.878906 14.96875 11.882812 C 14.964844 11.953125 14.949219 12.03125 14.929688 12.097656 C 14.898438 12.128906 14.863281 12.160156 14.832031 12.191406 L 14.753906 12.207031 L 14.75 12.257812 C 14.738281 12.265625 14.6875 12.277344 14.671875 12.273438 C 14.628906 12.261719 14.515625 12.222656 14.480469 12.21875 C 14.429688 12.210938 14.371094 12.21875 14.320312 12.214844 L 14.292969 12.242188 C 14.257812 12.25 14.21875 12.257812 14.183594 12.269531 C 14.167969 12.273438 14.148438 12.292969 14.128906 12.296875 C 14.078125 12.308594 14.019531 12.3125 13.96875 12.320312 C 13.957031 12.324219 13.917969 12.320312 13.914062 12.320312 C 13.902344 12.324219 13.867188 12.347656 13.859375 12.347656 C 13.828125 12.355469 13.785156 12.339844 13.75 12.347656 L 13.644531 12.375 C 13.617188 12.398438 13.589844 12.425781 13.5625 12.453125 L 13.507812 12.46875 L 13.507812 12.519531 L 13.453125 12.535156 L 13.425781 12.5625 L 13.34375 12.574219 C 13.324219 12.726562 13.253906 12.683594 13.222656 12.734375 C 13.207031 12.8125 13.199219 12.894531 13.171875 12.96875 C 13.117188 13.113281 13.078125 13.148438 13.042969 13.316406 C 13.039062 13.347656 13.03125 13.398438 13.03125 13.429688 C 13.039062 13.507812 13.09375 13.542969 13.140625 13.597656 C 13.152344 13.605469 13.15625 13.621094 13.167969 13.632812 C 13.203125 13.667969 13.292969 13.734375 13.335938 13.757812 C 13.417969 13.917969 13.351562 13.832031 13.339844 13.96875 L 13.308594 13.960938 L 13.296875 13.867188 L 13.222656 13.871094 L 13.152344 14 C 13.1875 14.078125 13.257812 14.054688 13.332031 14.058594 L 13.515625 14.066406 L 13.445312 13.820312 L 13.460938 13.8125 C 13.523438 14.03125 13.554688 14.148438 13.679688 14.339844 L 13.621094 14.359375 C 13.597656 14.335938 13.511719 14.234375 13.46875 14.21875 L 13.453125 14.261719 L 13.46875 14.273438 C 13.464844 14.292969 13.488281 14.363281 13.496094 14.386719 L 13.46875 14.378906 C 13.445312 14.320312 13.421875 14.328125 13.398438 14.230469 C 13.394531 14.210938 13.386719 14.1875 13.390625 14.164062 C 13.375 14.164062 13.355469 14.164062 13.34375 14.171875 C 13.34375 14.179688 13.34375 14.222656 13.335938 14.230469 C 13.332031 14.234375 13.261719 14.230469 13.246094 14.222656 L 13.246094 14.148438 C 13.21875 14.144531 13.183594 14.148438 13.15625 14.144531 C 13.109375 14.144531 13.109375 14.1875 13.089844 14.230469 C 13.078125 14.261719 13.074219 14.304688 13.0625 14.339844 C 13.078125 14.339844 13.101562 14.34375 13.117188 14.347656 C 13.125 14.324219 13.15625 14.265625 13.148438 14.246094 L 13.175781 14.210938 C 13.171875 14.253906 13.144531 14.300781 13.128906 14.347656 L 13.1875 14.351562 C 13.1875 14.363281 13.179688 14.402344 13.183594 14.414062 L 13.167969 14.410156 L 13.167969 14.371094 C 13.148438 14.371094 13.0625 14.351562 13.050781 14.363281 C 13.035156 14.410156 13.03125 14.460938 13.03125 14.507812 C 13.042969 14.53125 13.136719 14.527344 13.144531 14.523438 C 13.148438 14.515625 13.152344 14.449219 13.15625 14.433594 C 13.160156 14.433594 13.171875 14.4375 13.175781 14.441406 C 13.171875 14.503906 13.15625 14.53125 13.214844 14.550781 L 13.203125 14.566406 C 13.191406 14.5625 13.085938 14.535156 13.074219 14.546875 C 13.070312 14.578125 13.0625 14.714844 13.066406 14.71875 C 13.085938 14.730469 13.175781 14.71875 13.195312 14.707031 L 13.203125 14.59375 L 13.203125 14.707031 L 13.316406 14.679688 L 13.363281 14.667969 L 13.34375 14.597656 L 13.257812 14.621094 L 13.257812 14.609375 L 13.339844 14.589844 L 13.34375 14.566406 L 13.355469 14.609375 C 13.375 14.605469 13.464844 14.574219 13.488281 14.574219 L 13.511719 14.566406 L 13.539062 14.644531 L 13.570312 14.640625 C 13.640625 14.621094 13.765625 14.523438 13.820312 14.480469 L 13.820312 14.46875 L 13.828125 14.472656 L 13.832031 14.484375 L 13.679688 14.59375 C 13.6875 14.636719 13.714844 14.785156 13.734375 14.8125 C 13.710938 14.816406 13.675781 14.824219 13.65625 14.835938 C 13.648438 14.769531 13.628906 14.789062 13.613281 14.757812 C 13.597656 14.726562 13.589844 14.683594 13.578125 14.644531 L 13.574219 14.652344 C 13.566406 14.648438 13.203125 14.746094 13.179688 14.75 C 13.136719 14.761719 13.097656 14.753906 13.046875 14.753906 C 13.046875 14.757812 13.042969 14.761719 13.039062 14.765625 C 13.042969 14.804688 13.046875 14.917969 13.058594 14.949219 C 13.074219 14.992188 13.214844 15.058594 13.25 15.082031 C 13.277344 15.097656 13.390625 15.195312 13.398438 15.214844 C 13.394531 15.257812 13.394531 15.300781 13.386719 15.34375 C 13.402344 15.382812 13.441406 15.40625 13.464844 15.433594 L 13.464844 15.457031 L 13.433594 15.429688 C 13.421875 15.433594 13.390625 15.4375 13.378906 15.429688 C 13.375 15.421875 13.355469 15.410156 13.34375 15.410156 L 13.304688 15.457031 C 13.277344 15.460938 13.253906 15.457031 13.226562 15.453125 L 13.230469 15.46875 C 13.222656 15.496094 13.222656 15.523438 13.222656 15.550781 C 13.214844 15.558594 13.203125 15.566406 13.195312 15.574219 C 13.191406 15.605469 13.207031 15.632812 13.214844 15.660156 L 13.199219 15.679688 L 13.214844 15.707031 L 13.210938 15.730469 L 13.195312 15.738281 C 13.203125 15.761719 13.207031 15.796875 13.203125 15.824219 L 13.226562 15.84375 L 13.203125 15.886719 L 13.21875 15.902344 C 13.203125 15.945312 13.191406 16.015625 13.183594 16.042969 C 13.164062 16.085938 13.136719 16.101562 13.136719 16.15625 L 13.15625 16.164062 L 13.167969 16.179688 L 13.160156 16.1875 L 13.132812 16.183594 C 13.140625 16.210938 13.152344 16.246094 13.144531 16.269531 C 13.148438 16.28125 13.160156 16.300781 13.15625 16.3125 C 13.152344 16.320312 13.148438 16.335938 13.148438 16.34375 C 13.164062 16.355469 13.183594 16.375 13.1875 16.390625 C 13.179688 16.402344 13.171875 16.433594 13.164062 16.441406 C 13.160156 16.457031 13.167969 16.488281 13.167969 16.507812 L 13.15625 16.503906 C 13.160156 16.496094 13.160156 16.472656 13.148438 16.46875 C 13.132812 16.46875 13.117188 16.480469 13.09375 16.476562 C 13.09375 16.457031 13.074219 16.4375 13.058594 16.429688 C 13.003906 16.484375 12.960938 16.550781 12.941406 16.625 C 12.972656 16.664062 13.027344 16.730469 13.074219 16.746094 L 13.097656 16.738281 L 13.125 16.761719 L 13.117188 16.789062 L 13.128906 16.789062 L 13.140625 16.769531 C 13.167969 16.777344 13.183594 16.796875 13.179688 16.824219 C 13.179688 16.832031 13.171875 16.84375 13.164062 16.847656 C 13.171875 16.851562 13.183594 16.867188 13.183594 16.875 L 13.175781 16.890625 C 13.183594 16.910156 13.1875 16.925781 13.191406 16.945312 L 13.207031 16.957031 L 13.210938 16.988281 L 13.222656 16.996094 L 13.222656 17.003906 L 13.230469 17.019531 L 13.230469 17.035156 C 13.207031 17.046875 13.222656 17.078125 13.214844 17.09375 L 13.230469 17.09375 C 13.234375 17.097656 13.246094 17.109375 13.246094 17.117188 L 13.261719 17.128906 C 13.273438 17.125 13.28125 17.125 13.292969 17.128906 C 13.292969 17.121094 13.296875 17.109375 13.300781 17.105469 L 13.308594 17.113281 L 13.316406 17.117188 L 13.332031 17.117188 L 13.335938 17.125 L 13.335938 17.140625 C 13.324219 17.160156 13.273438 17.175781 13.277344 17.207031 L 13.265625 17.21875 L 13.25 17.222656 L 13.253906 17.234375 C 13.253906 17.230469 13.261719 17.226562 13.269531 17.234375 C 13.265625 17.242188 13.261719 17.25 13.261719 17.257812 C 13.269531 17.261719 13.28125 17.269531 13.289062 17.273438 C 13.296875 17.273438 13.300781 17.269531 13.304688 17.265625 L 13.316406 17.265625 C 13.3125 17.289062 13.347656 17.347656 13.371094 17.367188 L 13.378906 17.359375 L 13.390625 17.363281 L 13.382812 17.382812 L 13.390625 17.394531 C 13.398438 17.382812 13.40625 17.367188 13.425781 17.359375 L 13.425781 17.371094 C 13.421875 17.378906 13.40625 17.398438 13.40625 17.40625 C 13.410156 17.414062 13.425781 17.421875 13.433594 17.417969 L 13.445312 17.4375 C 13.441406 17.4375 13.429688 17.445312 13.429688 17.453125 L 13.4375 17.460938 C 13.429688 17.480469 13.453125 17.515625 13.433594 17.550781 L 13.417969 17.558594 L 13.410156 17.578125 L 13.421875 17.585938 L 13.4375 17.582031 L 13.425781 17.605469 L 13.417969 17.613281 L 13.421875 17.625 L 13.4375 17.625 L 13.445312 17.636719 L 13.460938 17.632812 L 13.476562 17.640625 L 13.480469 17.667969 L 13.496094 17.675781 L 13.5 17.699219 C 13.496094 17.722656 13.480469 17.734375 13.484375 17.753906 L 13.492188 17.738281 L 13.503906 17.742188 L 13.515625 17.730469 L 13.539062 17.738281 C 13.542969 17.734375 13.558594 17.726562 13.5625 17.726562 C 13.570312 17.734375 13.570312 17.753906 13.566406 17.761719 C 13.546875 17.773438 13.523438 17.761719 13.503906 17.777344 C 13.503906 17.792969 13.503906 17.8125 13.5 17.828125 C 13.511719 17.84375 13.535156 17.878906 13.558594 17.878906 C 13.554688 17.894531 13.558594 17.984375 13.550781 17.996094 L 13.542969 17.984375 C 13.539062 17.957031 13.542969 17.925781 13.535156 17.898438 C 13.5 17.882812 13.484375 17.847656 13.460938 17.835938 L 13.449219 17.835938 L 13.441406 17.859375 L 13.429688 17.863281 L 13.417969 17.859375 C 13.417969 17.851562 13.421875 17.839844 13.429688 17.835938 L 13.425781 17.824219 L 13.402344 17.832031 C 13.390625 17.828125 13.371094 17.816406 13.359375 17.824219 L 13.34375 17.808594 L 13.332031 17.820312 L 13.347656 17.828125 L 13.347656 17.847656 L 13.332031 17.863281 C 13.332031 17.875 13.324219 17.902344 13.335938 17.917969 L 13.324219 17.933594 C 13.347656 17.96875 13.328125 18.019531 13.320312 18.054688 L 13.335938 18.097656 L 13.304688 18.097656 C 13.296875 18.105469 13.285156 18.128906 13.285156 18.144531 C 13.296875 18.175781 13.332031 18.222656 13.324219 18.257812 L 13.296875 18.253906 L 13.28125 18.230469 L 13.269531 18.25 C 13.257812 18.234375 13.238281 18.21875 13.222656 18.210938 C 13.230469 18.171875 13.210938 18.140625 13.214844 18.109375 L 13.207031 18.109375 C 13.207031 18.121094 13.207031 18.15625 13.199219 18.167969 L 13.167969 18.167969 C 13.15625 18.160156 13.140625 18.148438 13.128906 18.132812 L 13.113281 18.148438 L 13.121094 18.171875 L 13.105469 18.199219 L 13.085938 18.203125 C 13.070312 18.214844 13.0625 18.21875 13.054688 18.238281 L 13.035156 18.230469 L 13.027344 18.242188 L 13.03125 18.265625 L 13.007812 18.25 L 13.003906 18.273438 L 12.980469 18.253906 L 12.960938 18.273438 L 12.972656 18.296875 L 12.957031 18.304688 L 12.957031 18.332031 L 12.972656 18.359375 C 12.941406 18.367188 12.910156 18.382812 12.882812 18.402344 C 12.875 18.394531 12.863281 18.386719 12.859375 18.375 L 12.835938 18.378906 L 12.804688 18.414062 L 12.785156 18.390625 C 12.777344 18.371094 12.792969 18.351562 12.785156 18.328125 L 12.800781 18.320312 C 12.789062 18.320312 12.769531 18.304688 12.765625 18.292969 L 12.765625 18.261719 C 12.777344 18.253906 12.800781 18.234375 12.808594 18.222656 C 12.800781 18.207031 12.785156 18.183594 12.769531 18.179688 L 12.746094 18.203125 L 12.730469 18.179688 L 12.707031 18.207031 L 12.664062 18.195312 C 12.667969 18.167969 12.675781 18.140625 12.6875 18.113281 L 12.707031 18.109375 L 12.703125 18.09375 L 12.710938 18.082031 L 12.726562 18.074219 L 12.722656 18.039062 L 12.710938 18.035156 C 12.703125 18.019531 12.71875 17.984375 12.726562 17.96875 L 12.746094 17.960938 C 12.742188 17.929688 12.742188 17.894531 12.738281 17.863281 L 12.722656 17.84375 L 12.742188 17.808594 L 12.78125 17.816406 C 12.808594 17.78125 12.808594 17.734375 12.828125 17.695312 C 12.851562 17.65625 12.847656 17.613281 12.867188 17.570312 L 12.890625 17.558594 L 12.878906 17.542969 C 12.867188 17.53125 12.796875 17.558594 12.785156 17.570312 L 12.761719 17.5625 L 12.746094 17.566406 L 12.746094 17.546875 C 12.734375 17.550781 12.71875 17.570312 12.714844 17.582031 L 12.699219 17.574219 L 12.671875 17.601562 L 12.675781 17.582031 L 12.667969 17.574219 C 12.660156 17.585938 12.652344 17.59375 12.648438 17.605469 L 12.652344 17.632812 L 12.632812 17.628906 L 12.609375 17.605469 L 12.613281 17.589844 L 12.601562 17.582031 L 12.589844 17.59375 L 12.558594 17.582031 L 12.554688 17.554688 L 12.566406 17.53125 L 12.542969 17.527344 C 12.535156 17.535156 12.527344 17.550781 12.527344 17.558594 L 12.507812 17.554688 L 12.503906 17.527344 L 12.488281 17.539062 L 12.476562 17.519531 L 12.464844 17.515625 L 12.46875 17.558594 C 12.457031 17.5625 12.441406 17.566406 12.425781 17.570312 L 12.414062 17.554688 L 12.421875 17.515625 C 12.410156 17.515625 12.394531 17.515625 12.386719 17.507812 L 12.382812 17.492188 L 12.367188 17.496094 L 12.355469 17.488281 C 12.347656 17.492188 12.34375 17.496094 12.339844 17.5 L 12.335938 17.515625 L 12.320312 17.511719 L 12.316406 17.496094 C 12.320312 17.484375 12.328125 17.472656 12.335938 17.464844 L 12.332031 17.449219 L 12.320312 17.445312 C 12.328125 17.429688 12.332031 17.410156 12.332031 17.394531 L 12.308594 17.367188 C 12.289062 17.371094 12.214844 17.433594 12.207031 17.453125 L 12.226562 17.46875 L 12.21875 17.484375 C 12.25 17.519531 12.246094 17.535156 12.253906 17.578125 L 12.234375 17.597656 C 12.210938 17.597656 12.175781 17.601562 12.15625 17.617188 C 12.160156 17.640625 12.164062 17.667969 12.164062 17.691406 C 12.15625 17.695312 12.140625 17.695312 12.128906 17.695312 C 12.097656 17.710938 12.101562 17.726562 12.078125 17.746094 C 12.078125 17.757812 12.074219 17.777344 12.066406 17.789062 L 12.050781 17.78125 C 12.054688 17.789062 12.0625 17.800781 12.0625 17.808594 L 12.054688 17.820312 L 12.035156 17.8125 L 12.042969 17.800781 L 12.019531 17.789062 L 12.003906 17.796875 C 11.984375 17.78125 11.960938 17.757812 11.960938 17.726562 C 11.941406 17.714844 11.921875 17.699219 11.898438 17.6875 L 11.871094 17.703125 L 11.855469 17.746094 L 11.871094 17.757812 C 11.878906 17.792969 11.910156 17.894531 11.886719 17.921875 L 11.890625 17.960938 L 11.878906 17.976562 L 11.871094 17.96875 C 11.878906 17.949219 11.878906 17.921875 11.882812 17.902344 C 11.875 17.902344 11.851562 17.90625 11.847656 17.914062 L 11.84375 17.933594 L 11.832031 17.898438 C 11.820312 17.898438 11.800781 17.910156 11.796875 17.917969 L 11.796875 17.972656 L 11.789062 17.96875 L 11.78125 17.945312 L 11.761719 17.96875 C 11.75 17.945312 11.734375 17.921875 11.71875 17.902344 C 11.683594 17.882812 11.640625 17.882812 11.609375 17.859375 C 11.59375 17.847656 11.589844 17.816406 11.566406 17.800781 L 11.53125 17.800781 L 11.5 17.820312 C 11.503906 17.839844 11.519531 17.898438 11.539062 17.90625 L 11.539062 17.925781 C 11.535156 17.925781 11.523438 17.917969 11.519531 17.914062 L 11.496094 17.917969 L 11.503906 17.941406 C 11.5625 17.988281 11.589844 18.082031 11.65625 18.109375 L 11.671875 18.144531 L 11.6875 18.15625 L 11.6875 18.175781 L 11.667969 18.183594 C 11.664062 18.160156 11.660156 18.140625 11.648438 18.117188 L 11.636719 18.128906 L 11.644531 18.183594 L 11.632812 18.1875 C 11.617188 18.199219 11.601562 18.230469 11.601562 18.25 L 11.597656 18.210938 L 11.574219 18.203125 L 11.542969 18.222656 C 11.542969 18.230469 11.535156 18.246094 11.527344 18.25 L 11.53125 18.296875 L 11.519531 18.289062 L 11.511719 18.269531 L 11.496094 18.289062 L 11.460938 18.285156 C 11.453125 18.269531 11.441406 18.253906 11.4375 18.242188 C 11.429688 18.21875 11.433594 18.195312 11.421875 18.175781 L 11.40625 18.175781 C 11.402344 18.191406 11.410156 18.207031 11.40625 18.21875 C 11.40625 18.253906 11.382812 18.277344 11.382812 18.3125 L 11.40625 18.339844 L 11.410156 18.382812 C 11.394531 18.371094 11.359375 18.367188 11.339844 18.378906 L 11.347656 18.417969 L 11.332031 18.433594 C 11.316406 18.429688 11.277344 18.417969 11.261719 18.421875 L 11.320312 18.457031 L 11.332031 18.484375 L 11.324219 18.496094 L 11.316406 18.480469 L 11.304688 18.476562 L 11.300781 18.507812 L 11.285156 18.523438 L 11.269531 18.523438 C 11.261719 18.515625 11.257812 18.488281 11.261719 18.476562 L 11.25 18.480469 L 11.234375 18.496094 C 11.246094 18.515625 11.207031 18.597656 11.195312 18.621094 L 11.152344 18.632812 L 11.144531 18.605469 L 11.171875 18.585938 L 11.183594 18.558594 C 11.179688 18.542969 11.167969 18.507812 11.152344 18.5 L 11.164062 18.488281 L 11.15625 18.476562 L 11.140625 18.46875 L 11.113281 18.476562 L 11.082031 18.433594 L 11.082031 18.390625 L 11.125 18.386719 L 11.121094 18.371094 L 11.082031 18.347656 C 11.082031 18.335938 11.070312 18.3125 11.058594 18.304688 C 11.039062 18.296875 11.011719 18.292969 10.992188 18.292969 L 10.976562 18.265625 L 10.984375 18.25 C 10.976562 18.246094 10.96875 18.238281 10.964844 18.234375 L 10.964844 18.257812 L 10.953125 18.269531 C 10.941406 18.261719 10.933594 18.246094 10.9375 18.234375 L 10.925781 18.226562 C 10.933594 18.222656 10.941406 18.207031 10.941406 18.195312 C 10.933594 18.199219 10.921875 18.207031 10.914062 18.214844 L 10.898438 18.199219 L 10.902344 18.179688 L 10.925781 18.164062 L 10.925781 18.148438 L 10.898438 18.132812 L 10.898438 18.109375 C 10.890625 18.097656 10.882812 18.078125 10.882812 18.066406 L 10.902344 18.042969 L 10.90625 18.019531 L 10.871094 18.027344 L 10.871094 18.003906 C 10.886719 17.992188 10.941406 17.960938 10.9375 17.9375 L 10.929688 17.910156 L 10.917969 17.910156 L 10.90625 17.886719 L 10.914062 17.859375 L 10.890625 17.835938 C 10.855469 17.855469 10.8125 17.847656 10.777344 17.828125 L 10.765625 17.832031 L 10.757812 17.84375 L 10.769531 17.871094 L 10.757812 17.886719 L 10.742188 17.882812 C 10.738281 17.871094 10.730469 17.855469 10.730469 17.839844 L 10.707031 17.832031 C 10.707031 17.816406 10.703125 17.800781 10.703125 17.785156 C 10.691406 17.773438 10.675781 17.773438 10.65625 17.777344 L 10.652344 17.765625 L 10.667969 17.746094 L 10.6875 17.734375 L 10.707031 17.730469 C 10.722656 17.710938 10.679688 17.652344 10.65625 17.644531 C 10.640625 17.644531 10.609375 17.664062 10.609375 17.683594 C 10.613281 17.6875 10.617188 17.695312 10.617188 17.703125 C 10.589844 17.738281 10.578125 17.773438 10.566406 17.8125 L 10.535156 17.800781 L 10.523438 17.769531 L 10.519531 17.800781 L 10.492188 17.792969 L 10.476562 17.804688 L 10.457031 17.804688 C 10.449219 17.777344 10.441406 17.734375 10.421875 17.714844 L 10.421875 17.75 L 10.40625 17.753906 C 10.402344 17.738281 10.390625 17.710938 10.375 17.699219 L 10.34375 17.707031 L 10.347656 17.769531 L 10.316406 17.777344 L 10.28125 17.726562 C 10.261719 17.738281 10.253906 17.769531 10.230469 17.773438 L 10.21875 17.765625 L 10.214844 17.75 L 10.226562 17.726562 L 10.195312 17.75 L 10.164062 17.738281 C 10.136719 17.699219 10.125 17.640625 10.105469 17.597656 L 10.078125 17.617188 C 10.09375 17.648438 10.109375 17.679688 10.121094 17.710938 L 10.09375 17.730469 C 10.089844 17.765625 10.085938 17.808594 10.09375 17.839844 L 10.058594 17.871094 L 10.054688 17.855469 L 10.074219 17.835938 C 10.074219 17.800781 10.070312 17.761719 10.058594 17.730469 L 10.023438 17.714844 L 10.042969 17.679688 L 10.027344 17.640625 L 10.007812 17.660156 C 9.960938 17.632812 9.933594 17.621094 9.910156 17.566406 L 9.878906 17.558594 C 9.863281 17.566406 9.835938 17.589844 9.832031 17.605469 C 9.851562 17.625 9.839844 17.664062 9.851562 17.6875 L 9.84375 17.710938 L 9.867188 17.710938 C 9.886719 17.730469 9.90625 17.769531 9.898438 17.796875 L 9.871094 17.777344 L 9.882812 17.796875 L 9.875 17.808594 L 9.863281 17.800781 L 9.851562 17.8125 C 9.84375 17.792969 9.84375 17.78125 9.84375 17.757812 L 9.828125 17.785156 L 9.8125 17.753906 L 9.820312 17.777344 C 9.8125 17.773438 9.808594 17.765625 9.804688 17.761719 L 9.800781 17.742188 L 9.785156 17.730469 C 9.769531 17.738281 9.757812 17.753906 9.753906 17.765625 C 9.757812 17.796875 9.773438 17.820312 9.777344 17.847656 L 9.757812 17.867188 L 9.761719 17.882812 C 9.769531 17.890625 9.785156 17.894531 9.800781 17.898438 C 9.8125 17.914062 9.824219 17.945312 9.828125 17.964844 C 9.828125 17.980469 9.8125 18.003906 9.796875 18.011719 L 9.800781 18.03125 L 9.820312 18.023438 C 9.816406 18.058594 9.796875 18.078125 9.773438 18.097656 L 9.75 18.09375 L 9.75 18.066406 L 9.734375 18.058594 L 9.730469 18.085938 C 9.722656 18.070312 9.710938 18.050781 9.703125 18.03125 L 9.710938 18 L 9.695312 17.972656 L 9.667969 17.988281 C 9.660156 18.003906 9.640625 18.035156 9.621094 18.042969 L 9.605469 18.039062 L 9.601562 18.050781 C 9.617188 18.058594 9.640625 18.078125 9.648438 18.09375 L 9.644531 18.128906 L 9.613281 18.113281 L 9.597656 18.132812 L 9.5625 18.128906 L 9.585938 18.152344 L 9.566406 18.164062 L 9.539062 18.144531 C 9.519531 18.144531 9.496094 18.144531 9.476562 18.144531 L 9.453125 18.128906 L 9.425781 18.140625 L 9.398438 18.117188 L 9.371094 18.125 L 9.394531 18.15625 L 9.382812 18.167969 L 9.367188 18.160156 L 9.359375 18.144531 L 9.339844 18.164062 L 9.324219 18.160156 L 9.316406 18.132812 L 9.304688 18.121094 L 9.292969 18.15625 L 9.265625 18.152344 C 9.238281 18.136719 9.222656 18.109375 9.191406 18.09375 L 9.171875 18.109375 L 9.175781 18.117188 C 9.1875 18.136719 9.183594 18.148438 9.191406 18.164062 C 9.199219 18.183594 9.21875 18.199219 9.226562 18.21875 C 9.203125 18.222656 9.171875 18.222656 9.148438 18.214844 L 9.140625 18.234375 C 9.175781 18.242188 9.222656 18.257812 9.25 18.28125 L 9.238281 18.316406 L 9.214844 18.320312 L 9.238281 18.359375 L 9.222656 18.371094 L 9.203125 18.355469 L 9.203125 18.375 L 9.234375 18.390625 L 9.214844 18.40625 C 9.234375 18.417969 9.257812 18.441406 9.273438 18.460938 L 9.242188 18.472656 L 9.222656 18.457031 L 9.207031 18.46875 L 9.21875 18.488281 L 9.207031 18.539062 L 9.195312 18.511719 L 9.175781 18.523438 L 9.152344 18.507812 C 9.140625 18.476562 9.128906 18.4375 9.113281 18.40625 C 9.105469 18.417969 9.105469 18.445312 9.109375 18.457031 L 9.089844 18.472656 L 9.0625 18.441406 L 9.070312 18.410156 L 9.046875 18.375 L 9.046875 18.355469 C 9.027344 18.332031 9.015625 18.320312 9.003906 18.292969 L 8.976562 18.289062 L 8.96875 18.328125 L 8.949219 18.332031 L 8.933594 18.285156 L 8.917969 18.328125 L 8.886719 18.328125 L 8.886719 18.292969 L 8.867188 18.289062 L 8.863281 18.3125 C 8.851562 18.304688 8.835938 18.28125 8.832031 18.269531 L 8.824219 18.296875 L 8.785156 18.289062 L 8.777344 18.261719 C 8.777344 18.277344 8.769531 18.300781 8.757812 18.3125 C 8.742188 18.308594 8.722656 18.308594 8.707031 18.3125 L 8.683594 18.332031 L 8.660156 18.285156 L 8.652344 18.3125 C 8.625 18.308594 8.59375 18.300781 8.570312 18.289062 C 8.554688 18.320312 8.535156 18.347656 8.519531 18.375 L 8.480469 18.359375 L 8.480469 18.308594 L 8.433594 18.289062 L 8.46875 18.230469 C 8.453125 18.21875 8.441406 18.199219 8.429688 18.183594 L 8.40625 18.175781 L 8.398438 18.21875 L 8.363281 18.207031 L 8.347656 18.175781 L 8.335938 18.25 L 8.292969 18.257812 L 8.273438 18.28125 L 8.21875 18.25 L 8.210938 18.214844 L 8.1875 18.246094 L 8.15625 18.230469 L 8.160156 18.203125 C 8.140625 18.199219 8.117188 18.1875 8.105469 18.175781 C 8.105469 18.15625 8.09375 18.132812 8.082031 18.121094 C 8.066406 18.121094 8.042969 18.132812 8.03125 18.144531 C 8.027344 18.15625 8.023438 18.179688 8.027344 18.195312 C 8.011719 18.199219 7.945312 18.183594 7.917969 18.1875 L 7.90625 18.214844 L 7.949219 18.257812 L 7.925781 18.273438 L 7.902344 18.269531 L 7.902344 18.234375 L 7.882812 18.234375 L 7.859375 18.207031 L 7.839844 18.21875 C 7.855469 18.246094 7.878906 18.269531 7.890625 18.300781 L 7.867188 18.296875 L 7.847656 18.308594 L 7.847656 18.320312 L 7.828125 18.320312 L 7.828125 18.367188 L 7.8125 18.371094 L 7.824219 18.402344 L 7.800781 18.382812 L 7.78125 18.394531 L 7.753906 18.375 L 7.738281 18.378906 C 7.726562 18.367188 7.710938 18.355469 7.695312 18.34375 L 7.667969 18.351562 C 7.660156 18.332031 7.652344 18.3125 7.640625 18.292969 C 7.652344 18.28125 7.660156 18.257812 7.660156 18.242188 L 7.703125 18.199219 L 7.710938 18.164062 L 7.691406 18.132812 L 7.667969 18.136719 C 7.652344 18.128906 7.628906 18.121094 7.609375 18.125 C 7.542969 18.164062 7.542969 18.214844 7.523438 18.226562 L 7.511719 18.199219 C 7.496094 18.195312 7.472656 18.195312 7.457031 18.203125 C 7.46875 18.222656 7.472656 18.253906 7.46875 18.277344 C 7.449219 18.25 7.425781 18.214844 7.414062 18.183594 L 7.375 18.1875 L 7.375 18.238281 C 7.355469 18.257812 7.339844 18.273438 7.316406 18.285156 L 7.285156 18.269531 L 7.273438 18.238281 L 7.253906 18.234375 L 7.277344 18.203125 L 7.25 18.210938 L 7.21875 18.199219 L 7.214844 18.183594 L 7.226562 18.167969 L 7.199219 18.175781 L 7.195312 18.152344 L 7.171875 18.152344 L 7.15625 18.136719 L 7.152344 18.101562 C 7.125 18.089844 7.097656 18.082031 7.070312 18.070312 L 7.050781 18.082031 L 7.0625 18.105469 L 7.035156 18.121094 C 7.023438 18.117188 6.992188 18.113281 6.984375 18.121094 L 6.960938 18.101562 L 6.9375 18.101562 L 6.921875 18.078125 L 6.890625 18.074219 L 6.878906 18.101562 L 6.855469 18.109375 L 6.875 18.132812 C 6.855469 18.140625 6.824219 18.125 6.808594 18.113281 L 6.804688 18.089844 L 6.75 18.09375 L 6.769531 18.058594 C 6.757812 18.054688 6.734375 18.054688 6.722656 18.058594 L 6.722656 18.042969 C 6.734375 18.035156 6.753906 18.019531 6.753906 18.007812 L 6.730469 18.007812 L 6.71875 17.996094 L 6.726562 17.980469 L 6.742188 17.972656 L 6.703125 17.964844 C 6.710938 17.957031 6.710938 17.945312 6.714844 17.9375 C 6.675781 17.933594 6.652344 17.898438 6.59375 17.910156 C 6.570312 17.933594 6.519531 17.976562 6.488281 17.964844 C 6.453125 17.929688 6.464844 17.933594 6.449219 17.894531 C 6.445312 17.882812 6.433594 17.871094 6.425781 17.855469 L 6.402344 17.863281 C 6.382812 17.839844 6.371094 17.808594 6.347656 17.792969 L 6.320312 17.800781 L 6.296875 17.828125 L 6.269531 17.808594 C 6.230469 17.804688 6.191406 17.832031 6.164062 17.855469 C 6.136719 17.851562 6.082031 17.835938 6.058594 17.847656 L 6.035156 17.875 L 6.003906 17.875 C 5.988281 17.867188 5.972656 17.851562 5.96875 17.835938 L 5.957031 17.832031 C 5.953125 17.824219 5.949219 17.820312 5.949219 17.8125 L 5.914062 17.800781 C 5.921875 17.78125 5.925781 17.765625 5.925781 17.746094 C 5.910156 17.652344 5.820312 17.691406 5.773438 17.683594 L 5.757812 17.707031 C 5.726562 17.699219 5.695312 17.691406 5.667969 17.679688 C 5.660156 17.648438 5.679688 17.617188 5.667969 17.582031 C 5.652344 17.566406 5.640625 17.542969 5.625 17.527344 C 5.613281 17.515625 5.589844 17.503906 5.574219 17.488281 L 5.53125 17.5 C 5.519531 17.515625 5.5 17.535156 5.480469 17.539062 C 5.476562 17.558594 5.472656 17.578125 5.476562 17.597656 C 5.457031 17.605469 5.433594 17.613281 5.414062 17.621094 L 5.402344 17.585938 C 5.410156 17.5625 5.414062 17.527344 5.40625 17.503906 L 5.363281 17.480469 C 5.351562 17.484375 5.296875 17.507812 5.292969 17.507812 L 5.273438 17.535156 C 5.238281 17.574219 5.191406 17.605469 5.160156 17.644531 C 5.15625 17.65625 5.148438 17.6875 5.152344 17.703125 L 5.113281 17.742188 L 5.085938 17.730469 C 5.074219 17.714844 5.066406 17.695312 5.058594 17.679688 C 5.03125 17.660156 4.980469 17.65625 4.949219 17.65625 C 4.898438 17.691406 4.859375 17.726562 4.8125 17.765625 C 4.773438 17.773438 4.757812 17.777344 4.710938 17.792969 C 4.695312 17.777344 4.660156 17.769531 4.640625 17.777344 L 4.601562 17.753906 L 4.625 17.699219 C 4.585938 17.699219 4.550781 17.683594 4.511719 17.699219 L 4.496094 17.746094 C 4.464844 17.753906 4.433594 17.757812 4.402344 17.761719 L 4.417969 17.8125 L 4.378906 17.832031 L 4.351562 17.816406 L 4.371094 17.792969 L 4.367188 17.769531 L 4.324219 17.773438 C 4.316406 17.726562 4.304688 17.644531 4.28125 17.609375 L 4.273438 17.617188 C 4.289062 17.65625 4.320312 17.730469 4.28125 17.769531 L 4.257812 17.742188 L 4.246094 17.757812 L 4.261719 17.792969 L 4.242188 17.828125 C 4.234375 17.8125 4.210938 17.773438 4.207031 17.757812 L 4.21875 17.734375 L 4.195312 17.726562 L 4.175781 17.703125 L 4.222656 17.671875 C 4.210938 17.644531 4.175781 17.625 4.15625 17.601562 L 4.128906 17.609375 L 4.121094 17.574219 C 4.097656 17.578125 4.070312 17.59375 4.050781 17.609375 C 4.054688 17.625 4.054688 17.640625 4.058594 17.65625 L 4.046875 17.667969 C 4.042969 17.699219 4.050781 17.726562 4.042969 17.753906 L 4.027344 17.75 C 4.007812 17.738281 3.996094 17.679688 3.957031 17.652344 L 3.929688 17.648438 C 3.917969 17.628906 3.90625 17.609375 3.902344 17.585938 L 3.914062 17.566406 C 3.90625 17.53125 3.898438 17.492188 3.90625 17.453125 L 3.882812 17.476562 C 3.867188 17.46875 3.847656 17.453125 3.839844 17.433594 C 3.824219 17.457031 3.796875 17.464844 3.789062 17.488281 L 3.777344 17.480469 C 3.769531 17.460938 3.734375 17.375 3.738281 17.359375 L 3.71875 17.359375 C 3.722656 17.371094 3.71875 17.394531 3.710938 17.40625 L 3.671875 17.402344 C 3.671875 17.386719 3.660156 17.363281 3.648438 17.355469 L 3.652344 17.335938 L 3.632812 17.339844 L 3.617188 17.300781 C 3.628906 17.292969 3.648438 17.289062 3.65625 17.28125 C 3.644531 17.277344 3.628906 17.277344 3.617188 17.277344 L 3.601562 17.246094 L 3.605469 17.222656 L 3.621094 17.222656 L 3.609375 17.207031 L 3.613281 17.183594 L 3.597656 17.203125 C 3.59375 17.179688 3.585938 17.160156 3.578125 17.136719 L 3.574219 17.164062 L 3.554688 17.171875 C 3.558594 17.1875 3.570312 17.207031 3.582031 17.21875 C 3.519531 17.199219 3.488281 17.109375 3.488281 17.050781 C 3.488281 17.011719 3.535156 16.976562 3.519531 16.933594 C 3.507812 16.910156 3.488281 16.886719 3.46875 16.871094 C 3.453125 16.828125 3.488281 16.777344 3.472656 16.703125 C 3.523438 16.621094 3.566406 16.578125 3.546875 16.484375 L 3.554688 16.484375 L 3.566406 16.511719 C 3.582031 16.511719 3.601562 16.507812 3.613281 16.496094 C 3.613281 16.476562 3.613281 16.457031 3.613281 16.4375 C 3.695312 16.449219 3.691406 16.394531 3.722656 16.34375 L 3.75 16.351562 L 3.757812 16.371094 C 3.75 16.386719 3.738281 16.398438 3.726562 16.410156 L 3.730469 16.429688 C 3.742188 16.449219 3.832031 16.53125 3.851562 16.539062 L 3.871094 16.535156 L 3.882812 16.53125 C 3.890625 16.523438 3.898438 16.515625 3.910156 16.511719 C 3.929688 16.519531 3.957031 16.542969 3.976562 16.542969 L 3.996094 16.519531 L 4 16.472656 C 4.015625 16.460938 4.039062 16.449219 4.058594 16.445312 C 4.082031 16.445312 4.109375 16.457031 4.128906 16.46875 L 4.148438 16.492188 L 4.148438 16.527344 C 4.1875 16.546875 4.179688 16.578125 4.199219 16.605469 C 4.226562 16.640625 4.304688 16.65625 4.347656 16.644531 C 4.363281 16.628906 4.394531 16.605469 4.417969 16.617188 L 4.425781 16.632812 C 4.476562 16.652344 4.535156 16.675781 4.589844 16.65625 C 4.601562 16.652344 4.707031 16.601562 4.722656 16.59375 L 4.855469 16.460938 C 4.867188 16.441406 4.875 16.421875 4.882812 16.40625 C 4.902344 16.378906 4.925781 16.359375 4.9375 16.324219 C 4.945312 16.304688 4.933594 16.207031 4.925781 16.175781 C 5.003906 16.039062 5.109375 15.925781 5.167969 15.78125 C 5.144531 15.722656 5.171875 15.679688 5.183594 15.625 C 5.1875 15.609375 5.179688 15.589844 5.183594 15.570312 L 5.214844 15.464844 C 5.222656 15.429688 5.214844 15.367188 5.214844 15.328125 C 5.214844 15.289062 5.195312 15.261719 5.1875 15.222656 C 5.183594 15.207031 5.191406 15.183594 5.1875 15.167969 C 5.179688 15.140625 5.167969 15.113281 5.160156 15.085938 C 5.152344 15.054688 5.167969 15.011719 5.160156 14.980469 C 5.148438 14.929688 5.125 14.890625 5.109375 14.84375 C 5.054688 14.714844 5.066406 14.71875 4.972656 14.628906 L 4.960938 14.574219 C 4.941406 14.59375 4.847656 14.589844 4.824219 14.589844 C 4.792969 14.582031 4.757812 14.554688 4.71875 14.546875 L 4.71875 14.464844 C 4.65625 14.492188 4.566406 14.488281 4.5 14.492188 L 4.503906 14.4375 C 4.523438 14.425781 4.546875 14.417969 4.570312 14.40625 C 4.605469 14.25 4.644531 14.246094 4.613281 14.089844 C 4.679688 14.125 4.691406 14.132812 4.746094 14.183594 L 4.828125 14.199219 C 4.835938 14.21875 4.855469 14.25 4.871094 14.265625 C 4.902344 14.265625 4.933594 14.265625 4.960938 14.265625 C 5.019531 14.246094 5.058594 14.175781 5.097656 14.160156 C 5.121094 14.148438 5.152344 14.144531 5.179688 14.132812 C 5.191406 14.125 5.371094 13.941406 5.402344 13.910156 C 5.464844 13.886719 5.558594 13.949219 5.644531 13.902344 C 5.664062 13.890625 5.683594 13.867188 5.703125 13.855469 L 5.726562 13.863281 C 5.757812 13.964844 5.925781 14.070312 6.027344 14.09375 C 6.066406 14.097656 6.128906 14.089844 6.164062 14.078125 C 6.246094 13.996094 6.488281 13.796875 6.4375 13.667969 C 6.382812 13.609375 6.371094 13.582031 6.398438 13.503906 C 6.429688 13.496094 6.480469 13.4375 6.503906 13.410156 L 6.585938 13.398438 L 6.613281 13.226562 C 6.601562 13.207031 6.59375 13.1875 6.585938 13.167969 L 6.621094 13.164062 C 6.632812 13.171875 6.644531 13.191406 6.652344 13.207031 L 6.804688 13.238281 L 6.804688 13.371094 L 6.910156 13.398438 L 6.910156 13.425781 L 6.886719 13.425781 L 6.878906 13.464844 C 6.890625 13.503906 6.976562 13.59375 7.019531 13.601562 C 7.046875 13.609375 7.363281 13.605469 7.371094 13.605469 C 7.394531 13.597656 7.4375 13.570312 7.449219 13.550781 L 7.714844 13.484375 C 7.820312 13.457031 8.039062 13.285156 8.089844 13.203125 C 8.117188 13.160156 8.140625 13.105469 8.140625 13.054688 L 8.144531 12.8125 C 8.144531 12.804688 8.058594 12.644531 8.050781 12.636719 L 7.859375 12.609375 L 7.832031 12.582031 L 7.78125 12.570312 L 7.765625 12.515625 L 7.710938 12.460938 L 7.699219 12.40625 L 7.726562 12.421875 L 7.804688 12.410156 C 7.84375 12.4375 7.878906 12.460938 7.917969 12.488281 L 7.957031 12.484375 C 7.96875 12.472656 7.992188 12.460938 8.011719 12.460938 L 8.035156 12.433594 L 8.050781 12.382812 C 8.074219 12.378906 8.140625 12.371094 8.160156 12.355469 C 8.179688 12.375 8.183594 12.511719 8.183594 12.542969 L 8.238281 12.542969 C 8.25 12.582031 8.292969 12.597656 8.308594 12.6875 C 8.359375 12.683594 8.417969 12.648438 8.441406 12.605469 L 8.445312 12.558594 C 8.414062 12.519531 8.371094 12.4375 8.375 12.382812 C 8.394531 12.398438 8.433594 12.40625 8.457031 12.410156 L 8.457031 12.476562 C 8.488281 12.449219 8.523438 12.441406 8.550781 12.410156 L 8.566406 12.332031 C 8.597656 12.355469 8.792969 12.367188 8.832031 12.359375 C 8.882812 12.351562 8.957031 12.34375 9 12.320312 C 9.019531 12.308594 9.039062 12.292969 9.054688 12.28125 C 9.089844 12.261719 9.144531 12.257812 9.183594 12.246094 C 9.195312 12.21875 9.21875 12.199219 9.226562 12.171875 C 9.265625 12.078125 9.277344 11.96875 9.324219 11.875 C 9.324219 11.871094 9.351562 11.847656 9.355469 11.84375 C 9.378906 11.8125 9.394531 11.777344 9.40625 11.742188 C 9.433594 11.664062 9.433594 11.582031 9.457031 11.5 C 9.484375 11.421875 9.554688 11.386719 9.53125 11.292969 C 9.492188 11.257812 9.402344 11.214844 9.351562 11.207031 C 9.335938 11.203125 9.316406 11.210938 9.300781 11.210938 C 9.234375 11.203125 9.125 11.160156 9.058594 11.210938 C 9.035156 11.226562 9.003906 11.269531 8.984375 11.292969 L 8.960938 11.105469 L 9.050781 10.972656 L 9.1875 11.074219 C 9.195312 11.070312 9.300781 11.019531 9.300781 11.019531 C 9.308594 11.015625 9.457031 11.019531 9.472656 11.019531 L 9.5625 11.089844 L 9.621094 11.082031 L 9.632812 10.976562 C 9.683594 10.984375 9.75 11.015625 9.789062 11.046875 L 9.835938 11.132812 C 9.90625 11.175781 10.011719 11.144531 10.070312 11.09375 L 10.09375 11.050781 C 10.070312 11.011719 10.0625 10.949219 10.066406 10.902344 L 10.105469 10.867188 C 10.164062 10.859375 10.222656 10.875 10.28125 10.863281 C 10.34375 10.816406 10.367188 10.679688 10.316406 10.617188 C 10.273438 10.597656 10.207031 10.59375 10.164062 10.597656 C 10.285156 10.542969 10.355469 10.492188 10.351562 10.355469 C 10.371094 10.375 10.449219 10.457031 10.453125 10.480469 C 10.472656 10.5 10.519531 10.511719 10.546875 10.507812 C 10.574219 10.5 10.582031 10.484375 10.601562 10.46875 C 10.617188 10.457031 10.640625 10.457031 10.65625 10.4375 C 10.691406 10.390625 10.722656 10.238281 10.65625 10.199219 L 10.574219 10.199219 C 10.566406 10.191406 10.554688 10.171875 10.546875 10.160156 C 10.675781 10.097656 10.636719 10.132812 10.765625 10.105469 L 10.777344 10.132812 L 10.832031 10.132812 L 10.875 10.167969 L 10.863281 10.214844 L 10.914062 10.234375 C 10.941406 10.230469 10.984375 10.203125 11 10.175781 L 11.054688 10.160156 L 11.175781 10.214844 L 11.175781 10.28125 C 11.253906 10.304688 11.351562 10.292969 11.425781 10.328125 C 11.601562 10.167969 11.578125 10.109375 11.671875 9.910156 C 11.75 9.898438 11.839844 9.882812 11.910156 9.925781 C 11.90625 10 11.902344 10.152344 11.847656 10.214844 C 11.878906 10.308594 11.980469 10.414062 12.0625 10.476562 C 12.078125 10.480469 12.101562 10.472656 12.113281 10.464844 C 12.121094 10.492188 12.148438 10.5 12.15625 10.519531 C 12.167969 10.542969 12.21875 10.679688 12.222656 10.707031 C 12.25 10.71875 12.328125 10.726562 12.355469 10.722656 C 12.363281 10.71875 12.398438 10.699219 12.410156 10.695312 C 12.441406 10.683594 12.460938 10.710938 12.503906 10.683594 C 12.527344 10.636719 12.574219 10.574219 12.558594 10.519531 L 12.546875 10.507812 L 12.492188 10.492188 C 12.472656 10.390625 12.472656 10.402344 12.515625 10.3125 L 12.535156 10.277344 C 12.542969 10.253906 12.527344 10.140625 12.523438 10.117188 C 12.5 10.121094 12.460938 10.128906 12.441406 10.140625 L 12.441406 10.0625 C 12.464844 10.066406 12.503906 10.074219 12.523438 10.089844 L 12.523438 10.007812 C 12.542969 9.996094 12.582031 9.984375 12.605469 9.980469 L 12.617188 9.929688 L 12.644531 9.902344 L 12.648438 9.683594 L 12.621094 9.660156 L 12.621094 9.632812 L 12.648438 9.605469 L 12.648438 9.46875 C 12.632812 9.445312 12.527344 9.410156 12.5 9.402344 C 12.496094 9.402344 12.453125 9.351562 12.445312 9.347656 L 12.203125 9.347656 L 12.1875 9.332031 L 12.175781 9.277344 L 12.121094 9.277344 L 12.121094 9.199219 C 12.148438 9.191406 12.160156 9.167969 12.175781 9.15625 C 12.1875 9.152344 12.191406 9.152344 12.203125 9.148438 C 12.242188 9.136719 12.277344 9.117188 12.3125 9.105469 C 12.320312 9.101562 12.332031 9.105469 12.339844 9.105469 C 12.355469 9.101562 12.371094 9.085938 12.382812 9.082031 C 12.410156 9.078125 12.445312 9.078125 12.46875 9.074219 C 12.472656 9.074219 12.484375 9.066406 12.488281 9.066406 L 12.503906 8.957031 C 12.542969 8.960938 12.578125 8.992188 12.609375 9 C 12.640625 9.003906 12.6875 9 12.71875 9 L 12.828125 9 L 12.90625 8.917969 L 12.933594 8.917969 L 12.960938 8.945312 L 13.015625 8.960938 L 13.015625 9.066406 C 13.058594 9.0625 13.109375 9.0625 13.152344 9.054688 C 13.1875 9.046875 13.203125 9.019531 13.230469 9 C 13.273438 8.972656 13.320312 8.960938 13.339844 8.910156 L 13.359375 8.898438 L 13.367188 8.882812 L 13.394531 8.882812 L 13.394531 8.910156 L 13.378906 8.917969 L 13.367188 8.933594 L 13.347656 8.945312 C 13.3125 9 13.304688 9.066406 13.273438 9.125 C 13.246094 9.164062 13.140625 9.222656 13.136719 9.230469 L 13.136719 9.300781 C 13.171875 9.332031 13.21875 9.394531 13.253906 9.414062 C 13.371094 9.476562 13.722656 9.539062 13.832031 9.515625 L 13.878906 9.476562 L 13.898438 9.410156 L 13.941406 9.398438 L 14 9.425781 L 14.054688 9.371094 C 14.054688 9.308594 14.046875 9.207031 14.070312 9.15625 L 14.117188 9.136719 L 14.125 9.074219 L 14.175781 9.074219 C 14.226562 8.953125 14.140625 8.949219 14.179688 8.832031 Z M 21.589844 8.753906 L 21.699219 8.78125 L 21.726562 8.835938 L 21.617188 8.835938 L 21.617188 8.78125 L 21.589844 8.78125 Z M 21.589844 8.753906 " fill-opacity="1" fill-rule="evenodd"/></g></svg>