<svg xmlns="http://www.w3.org/2000/svg" xmlns:xlink="http://www.w3.org/1999/xlink" width="40" zoomAndPan="magnify" viewBox="0 0 30 30.000001" height="40" preserveAspectRatio="xMidYMid meet" version="1.0"><defs><clipPath id="af9a75e593"><path d="M 6.972656 2.902344 L 22.941406 2.902344 L 22.941406 26.128906 L 6.972656 26.128906 Z M 6.972656 2.902344 " clip-rule="nonzero"/></clipPath></defs><g clip-path="url(#af9a75e593)"><path fill="#014d4e" d="M 23.011719 20.964844 L 22.648438 20.949219 C 22.625 20.902344 22.542969 20.734375 22.441406 20.679688 C 22.351562 20.632812 22.316406 20.445312 22.3125 20.375 L 22.308594 20.355469 L 21.976562 20.363281 C 21.929688 20.316406 21.710938 20.113281 21.609375 20.105469 C 21.582031 20.101562 21.5625 20.097656 21.558594 20.085938 C 21.550781 20.074219 21.558594 20.058594 21.558594 20.058594 L 21.566406 20.039062 L 21.492188 19.992188 L 21.320312 19.773438 L 21.320312 19.660156 L 21.414062 19.574219 L 21.414062 19.46875 L 21.351562 19.414062 L 21.199219 19.429688 C 21.207031 19.398438 21.207031 19.363281 21.191406 19.339844 C 21.183594 19.328125 21.171875 19.324219 21.15625 19.324219 C 21.132812 19.324219 21.074219 19.289062 21.039062 19.265625 L 21.046875 19.152344 L 21.054688 18.851562 L 20.957031 18.804688 L 20.835938 18.792969 L 20.8125 18.785156 L 20.804688 18.726562 L 20.832031 18.644531 L 20.765625 18.597656 L 20.730469 18.585938 L 20.652344 18.558594 L 20.65625 18.429688 L 20.753906 18.359375 L 20.734375 18.183594 L 20.601562 18.140625 L 20.597656 18.089844 L 20.6875 18.042969 L 20.78125 17.984375 L 20.882812 17.984375 L 20.875 17.71875 C 20.882812 17.707031 20.902344 17.683594 20.925781 17.652344 C 20.960938 17.609375 20.925781 17.550781 20.902344 17.523438 L 20.890625 17.515625 L 20.882812 17.515625 C 20.878906 17.515625 20.875 17.515625 20.875 17.515625 C 20.875 17.515625 20.875 17.507812 20.882812 17.492188 C 20.894531 17.472656 20.917969 17.453125 20.9375 17.4375 C 20.96875 17.414062 21 17.390625 21.003906 17.351562 C 21.007812 17.335938 21.011719 17.300781 21.011719 17.261719 C 21.015625 17.183594 21.027344 16.976562 21.050781 16.949219 C 21.097656 16.914062 21.097656 16.847656 21.097656 16.792969 C 21.097656 16.785156 21.097656 16.785156 21.097656 16.78125 L 21.101562 16.777344 C 21.109375 16.769531 21.105469 16.765625 21.097656 16.734375 C 21.085938 16.683594 21.082031 16.578125 21.082031 16.574219 L 21.082031 16.5625 C 21.070312 16.550781 20.996094 16.445312 20.921875 16.476562 C 20.894531 16.488281 20.875 16.5 20.859375 16.511719 C 20.824219 16.539062 20.808594 16.546875 20.78125 16.539062 C 20.6875 16.503906 20.660156 16.484375 20.65625 16.480469 C 20.65625 16.453125 20.636719 16.394531 20.632812 16.378906 L 20.628906 16.371094 L 20.574219 16.339844 L 20.550781 16.292969 L 20.585938 16.222656 L 20.585938 16.027344 C 20.585938 16.011719 20.59375 15.921875 20.59375 15.871094 L 20.671875 15.792969 L 20.796875 15.726562 L 20.8125 15.597656 C 20.8125 15.523438 20.820312 15.449219 20.828125 15.441406 C 20.835938 15.433594 20.875 15.433594 20.910156 15.445312 L 20.941406 15.457031 L 20.925781 15.253906 L 20.976562 15.214844 C 20.996094 15.199219 21.015625 15.160156 20.996094 15.132812 C 20.984375 15.113281 20.953125 15.082031 20.9375 15.070312 L 20.9375 14.980469 L 20.953125 14.867188 L 20.960938 14.695312 L 20.929688 14.527344 L 20.890625 14.390625 L 20.933594 14.296875 L 20.875 14.136719 L 20.867188 13.878906 L 20.921875 13.839844 L 20.921875 13.738281 L 20.855469 13.628906 L 20.898438 13.617188 C 20.925781 13.609375 20.96875 13.578125 20.972656 13.574219 L 20.980469 13.566406 L 20.988281 13.507812 L 21.046875 13.425781 L 21.105469 13.441406 L 21.1875 13.359375 L 21.320312 13.351562 L 21.347656 13.160156 L 21.300781 12.929688 L 21.191406 12.847656 L 21.074219 12.773438 L 21.050781 12.589844 L 20.9375 12.476562 L 20.820312 12.476562 L 20.726562 12.375 L 20.6875 12.328125 L 20.613281 12.28125 L 20.550781 12.28125 L 20.503906 12.179688 L 20.421875 12.207031 L 20.113281 11.691406 L 20.148438 11.632812 L 20.128906 11.554688 C 20.175781 11.550781 20.242188 11.558594 20.269531 11.5625 L 20.289062 11.566406 L 20.316406 11.46875 L 20.371094 11.484375 L 20.414062 11.515625 L 20.476562 11.464844 C 20.480469 11.460938 20.488281 11.453125 20.503906 11.417969 C 20.519531 11.386719 20.539062 11.335938 20.539062 11.332031 L 20.589844 11.253906 L 20.617188 11.199219 L 20.59375 11.066406 L 20.359375 10.675781 L 20.367188 10.515625 L 20.421875 10.410156 L 20.429688 10.242188 L 20.535156 10.207031 L 20.578125 10.089844 L 20.628906 10.011719 L 20.566406 9.839844 L 20.570312 9.769531 L 20.722656 9.632812 L 20.683594 9.546875 L 20.738281 9.492188 L 20.738281 9.480469 C 20.753906 9.371094 20.761719 9.234375 20.710938 9.214844 C 20.675781 9.207031 20.597656 9.152344 20.5625 9.128906 L 20.5 9.015625 L 20.257812 8.960938 L 20.152344 8.960938 L 19.957031 8.984375 L 19.914062 9.09375 L 19.890625 9.140625 L 19.820312 9.175781 L 19.71875 9.199219 L 19.660156 9.207031 L 19.652344 9.15625 L 19.652344 9.132812 C 19.679688 9.097656 19.710938 9.054688 19.722656 9.046875 C 19.746094 9.039062 19.835938 8.976562 19.855469 8.96875 L 19.867188 8.957031 L 19.84375 8.894531 L 19.726562 8.824219 L 19.597656 8.839844 L 19.597656 8.769531 L 19.734375 8.730469 L 19.890625 8.722656 L 19.980469 8.753906 L 20.140625 8.660156 L 20.019531 8.402344 L 20 8.183594 L 19.925781 8.085938 L 19.9375 7.929688 L 20.03125 7.804688 L 20.015625 7.601562 L 20.015625 7.5 L 20.078125 7.425781 L 20.082031 7.425781 C 20.085938 7.414062 20.121094 7.359375 20.097656 7.316406 L 20.015625 7.152344 L 20.027344 7.09375 L 20.140625 7.140625 L 20.148438 7.136719 C 20.257812 7.101562 20.257812 7.070312 20.257812 7.0625 C 20.257812 7.046875 20.273438 6.972656 20.285156 6.925781 L 20.285156 6.914062 L 20.132812 6.800781 L 20.011719 6.773438 L 20.011719 6.640625 C 20.007812 6.578125 20.003906 6.511719 20.003906 6.503906 C 20.007812 6.492188 20.019531 6.433594 20.019531 6.398438 C 20.019531 6.375 20.023438 6.296875 20.027344 6.269531 C 20.070312 6.246094 20.078125 6.234375 20.078125 6.226562 C 20.078125 6.226562 20.078125 6.21875 20.085938 6.128906 L 20.121094 6.035156 L 19.921875 6.046875 L 19.910156 6.003906 L 19.890625 5.953125 L 19.828125 5.917969 C 19.828125 5.898438 19.828125 5.875 19.820312 5.867188 C 19.816406 5.855469 19.804688 5.84375 19.796875 5.835938 C 19.792969 5.8125 19.789062 5.78125 19.789062 5.773438 C 19.792969 5.75 19.789062 5.714844 19.789062 5.710938 L 19.785156 5.703125 L 19.699219 5.628906 L 19.664062 5.675781 L 19.617188 5.683594 L 19.554688 5.679688 L 19.476562 5.632812 L 19.429688 5.683594 L 19.417969 5.699219 L 19.375 5.691406 C 19.367188 5.679688 19.347656 5.65625 19.335938 5.640625 C 19.324219 5.613281 19.300781 5.570312 19.300781 5.570312 L 19.285156 5.53125 L 19.21875 5.34375 L 19.183594 5.265625 L 19.179688 5.261719 C 19.179688 5.261719 19.152344 5.222656 19.140625 5.214844 C 19.136719 5.210938 19.128906 5.199219 19.03125 5.167969 L 18.972656 5.15625 L 18.863281 5 L 18.726562 4.953125 C 18.683594 4.941406 18.636719 4.925781 18.628906 4.917969 C 18.613281 4.90625 18.570312 4.882812 18.519531 4.855469 C 18.511719 4.847656 18.5 4.84375 18.5 4.84375 C 18.492188 4.835938 18.46875 4.789062 18.449219 4.753906 C 18.445312 4.730469 18.4375 4.679688 18.425781 4.664062 C 18.421875 4.652344 18.410156 4.628906 18.398438 4.617188 L 18.425781 4.574219 L 18.425781 4.570312 C 18.425781 4.546875 18.433594 4.472656 18.433594 4.460938 C 18.4375 4.457031 18.453125 4.429688 18.464844 4.414062 L 18.609375 4.242188 L 18.609375 4.234375 C 18.605469 4.191406 18.605469 4.113281 18.605469 4.105469 C 18.605469 4.09375 18.613281 4.003906 18.621094 3.992188 C 18.625 3.984375 18.640625 3.949219 18.648438 3.9375 L 18.679688 3.753906 L 18.8125 3.660156 L 18.8125 3.648438 C 18.8125 3.582031 18.8125 3.480469 18.8125 3.46875 C 18.816406 3.453125 18.816406 3.402344 18.8125 3.355469 L 18.785156 3.257812 L 18.773438 3.164062 L 18.554688 3.144531 L 18.511719 3.171875 L 18.441406 3.195312 L 18.40625 3.21875 L 18.289062 3.214844 L 18.230469 3.179688 L 18.203125 3.175781 L 18.1875 3.066406 L 17.953125 2.972656 L 17.84375 2.949219 L 17.742188 2.914062 L 17.695312 2.921875 L 17.664062 2.972656 L 17.632812 3.042969 L 17.664062 3.078125 L 17.691406 3.09375 L 17.699219 3.121094 L 17.585938 3.144531 L 17.488281 3.164062 L 17.449219 3.203125 L 17.429688 3.246094 L 17.414062 3.269531 C 17.40625 3.269531 17.40625 3.265625 17.402344 3.265625 C 17.398438 3.246094 17.382812 3.179688 17.371094 3.136719 L 17.371094 3.132812 L 17.367188 3.128906 C 17.339844 3.09375 17.324219 3.09375 17.320312 3.09375 C 17.316406 3.09375 17.304688 3.09375 17.242188 3.117188 L 17.191406 3.15625 L 17.09375 3.226562 L 17.09375 3.363281 L 17.097656 3.425781 L 17.09375 3.445312 L 17.070312 3.457031 L 16.988281 3.457031 L 16.9375 3.472656 L 16.902344 3.515625 L 16.878906 3.554688 L 16.847656 3.589844 L 16.796875 3.589844 L 16.734375 3.59375 L 16.589844 3.640625 L 16.585938 3.648438 C 16.574219 3.667969 16.554688 3.710938 16.554688 3.726562 C 16.554688 3.734375 16.554688 3.746094 16.550781 3.75 C 16.550781 3.757812 16.550781 3.765625 16.550781 3.769531 C 16.550781 3.78125 16.546875 3.855469 16.546875 3.855469 L 16.542969 3.871094 L 16.507812 3.871094 L 16.480469 3.792969 L 16.429688 3.726562 L 16.386719 3.695312 C 16.382812 3.691406 16.378906 3.683594 16.378906 3.679688 C 16.378906 3.671875 16.378906 3.660156 16.382812 3.652344 C 16.386719 3.640625 16.386719 3.625 16.386719 3.621094 L 16.386719 3.617188 L 16.363281 3.566406 L 15.796875 3.566406 L 15.757812 3.527344 L 15.695312 3.515625 L 15.683594 3.5625 L 15.664062 3.570312 L 15.617188 3.570312 L 15.566406 3.632812 L 15.546875 3.667969 L 15.527344 3.683594 L 15.496094 3.675781 C 15.488281 3.667969 15.480469 3.660156 15.464844 3.660156 C 15.460938 3.660156 15.4375 3.648438 15.421875 3.648438 C 15.414062 3.644531 15.410156 3.640625 15.40625 3.636719 C 15.40625 3.621094 15.398438 3.601562 15.398438 3.597656 L 15.394531 3.582031 L 15.316406 3.574219 L 15.199219 3.574219 C 15.1875 3.574219 15.128906 3.570312 15.128906 3.570312 L 15.089844 3.5625 L 15.066406 3.539062 L 14.664062 3.539062 L 14.664062 3.59375 L 14.351562 3.597656 L 14.253906 3.558594 L 14.246094 3.558594 C 14.0625 3.566406 13.722656 3.574219 13.671875 3.574219 C 13.660156 3.5625 13.613281 3.523438 13.570312 3.484375 L 13.566406 3.480469 L 12.957031 3.484375 L 12.953125 3.566406 L 12.824219 3.574219 L 12.746094 3.546875 L 12.6875 3.574219 L 12.636719 3.578125 L 12.585938 3.597656 L 12.5 3.617188 L 12.484375 3.632812 L 12.414062 3.609375 L 12.347656 3.605469 L 11.320312 3.617188 L 10.769531 3.613281 L 10.65625 3.574219 L 9.511719 3.585938 L 9.332031 3.5625 L 9.253906 3.554688 L 8.765625 3.546875 L 8.746094 3.511719 L 8.441406 3.523438 L 8.421875 3.628906 L 8.410156 3.726562 L 8.410156 3.734375 C 8.425781 3.789062 8.433594 3.792969 8.441406 3.796875 C 8.445312 3.800781 8.464844 3.820312 8.480469 3.832031 C 8.484375 3.839844 8.488281 3.84375 8.488281 3.847656 C 8.488281 3.851562 8.484375 3.863281 8.476562 3.878906 L 8.464844 3.898438 L 8.339844 3.925781 L 8.328125 4.066406 C 8.320312 4.085938 8.308594 4.113281 8.304688 4.113281 C 8.304688 4.121094 8.277344 4.160156 8.277344 4.164062 L 8.25 4.25 L 8.253906 4.292969 L 8.089844 4.53125 L 8.050781 4.5625 L 8.03125 4.609375 L 8.066406 4.695312 L 8.140625 4.707031 L 8.144531 4.722656 L 8.136719 4.769531 L 8.117188 4.78125 L 8.066406 4.832031 L 8.054688 4.929688 L 8.152344 5.15625 L 8.195312 5.226562 L 8.242188 5.367188 L 8.246094 5.375 C 8.269531 5.398438 8.292969 5.429688 8.296875 5.433594 C 8.300781 5.445312 8.339844 5.546875 8.339844 5.546875 L 8.34375 5.554688 C 8.34375 5.554688 8.394531 5.613281 8.410156 5.625 C 8.425781 5.636719 8.5 5.675781 8.5625 5.703125 L 8.453125 5.757812 L 8.449219 5.765625 C 8.417969 5.832031 8.402344 5.875 8.402344 5.886719 C 8.402344 5.886719 8.394531 5.902344 8.390625 5.910156 C 8.363281 5.960938 8.347656 5.996094 8.363281 6.019531 C 8.371094 6.027344 8.375 6.042969 8.382812 6.058594 C 8.394531 6.101562 8.40625 6.125 8.425781 6.136719 C 8.4375 6.140625 8.476562 6.164062 8.5 6.179688 C 8.519531 6.191406 8.535156 6.203125 8.542969 6.203125 C 8.554688 6.210938 8.648438 6.25 8.664062 6.257812 L 8.6875 6.28125 L 8.695312 6.300781 C 8.691406 6.308594 8.683594 6.324219 8.671875 6.339844 C 8.667969 6.347656 8.65625 6.355469 8.648438 6.363281 C 8.625 6.386719 8.605469 6.40625 8.601562 6.425781 C 8.597656 6.4375 8.585938 6.472656 8.582031 6.484375 L 8.578125 6.492188 L 8.609375 6.617188 L 8.597656 6.683594 L 8.613281 7.023438 L 8.617188 7.03125 C 8.621094 7.035156 8.679688 7.183594 8.691406 7.207031 C 8.703125 7.230469 8.730469 7.269531 8.738281 7.28125 C 8.738281 7.289062 8.742188 7.308594 8.742188 7.316406 C 8.742188 7.332031 8.730469 7.359375 8.726562 7.363281 C 8.714844 7.375 8.679688 7.417969 8.679688 7.425781 L 8.671875 7.429688 L 8.6875 7.628906 L 8.6875 7.636719 C 8.6875 7.636719 8.730469 7.691406 8.746094 7.710938 C 8.757812 7.726562 8.78125 7.761719 8.792969 7.777344 L 8.710938 7.875 L 8.601562 8.03125 L 8.601562 8.039062 C 8.601562 8.039062 8.605469 8.121094 8.605469 8.132812 C 8.605469 8.140625 8.597656 8.1875 8.59375 8.214844 L 8.59375 8.222656 C 8.597656 8.230469 8.605469 8.277344 8.613281 8.292969 C 8.625 8.316406 8.660156 8.34375 8.671875 8.351562 C 8.683594 8.359375 8.707031 8.378906 8.710938 8.382812 C 8.710938 8.382812 8.730469 8.394531 8.714844 8.429688 C 8.699219 8.488281 8.671875 8.589844 8.667969 8.597656 L 8.664062 8.710938 L 8.726562 8.851562 L 8.972656 8.992188 L 8.96875 9.109375 C 8.96875 9.203125 8.976562 9.214844 8.980469 9.214844 C 8.984375 9.230469 8.988281 9.304688 8.996094 9.375 L 8.988281 9.425781 C 8.957031 9.46875 8.910156 9.539062 8.898438 9.550781 C 8.871094 9.578125 8.855469 9.667969 8.859375 9.695312 C 8.863281 9.722656 8.925781 9.839844 8.972656 9.839844 C 8.980469 9.839844 8.992188 9.839844 9.003906 9.839844 C 9.015625 9.835938 9.050781 9.832031 9.054688 9.839844 C 9.0625 9.851562 9.058594 9.875 9.042969 9.902344 C 9.03125 9.914062 8.976562 9.945312 8.929688 9.96875 L 8.921875 9.972656 C 8.890625 10.003906 8.875 10.03125 8.875 10.046875 C 8.875 10.054688 8.855469 10.089844 8.84375 10.121094 L 8.808594 10.195312 L 8.789062 10.226562 L 8.722656 10.226562 L 8.683594 10.261719 L 8.679688 10.269531 C 8.675781 10.273438 8.664062 10.296875 8.671875 10.347656 C 8.679688 10.398438 8.6875 10.414062 8.6875 10.417969 C 8.699219 10.4375 8.707031 10.460938 8.707031 10.464844 C 8.707031 10.464844 8.699219 10.476562 8.691406 10.476562 C 8.679688 10.484375 8.671875 10.492188 8.667969 10.503906 C 8.667969 10.507812 8.664062 10.507812 8.660156 10.511719 C 8.648438 10.519531 8.632812 10.535156 8.632812 10.550781 C 8.632812 10.578125 8.730469 10.707031 8.742188 10.710938 C 8.757812 10.722656 8.886719 10.746094 8.941406 10.753906 C 8.988281 10.757812 9.046875 10.769531 9.074219 10.777344 L 9.070312 11.039062 L 9.1875 11.117188 L 9.191406 11.296875 L 9.28125 11.40625 C 9.25 11.4375 9.21875 11.46875 9.210938 11.46875 C 9.195312 11.476562 9.183594 11.488281 9.203125 11.585938 L 9.207031 11.597656 L 9.308594 11.617188 L 9.355469 11.621094 L 9.546875 12.472656 L 9.609375 12.878906 C 9.613281 12.894531 9.652344 13.03125 9.660156 13.054688 C 9.664062 13.066406 9.675781 13.160156 9.683594 13.242188 C 9.683594 13.242188 9.691406 13.371094 9.691406 13.398438 C 9.691406 13.429688 9.679688 13.535156 9.679688 13.542969 L 9.683594 13.609375 L 9.511719 13.703125 L 9.453125 13.71875 L 9.347656 13.703125 L 9.285156 13.769531 L 9.246094 13.804688 L 9.246094 13.816406 C 9.246094 13.828125 9.253906 13.859375 9.253906 13.875 C 9.257812 13.882812 9.300781 13.964844 9.316406 13.980469 C 9.320312 13.984375 9.339844 14.011719 9.355469 14.039062 L 9.363281 14.15625 L 9.332031 14.175781 C 9.308594 14.183594 9.273438 14.191406 9.261719 14.191406 C 9.246094 14.191406 9.132812 14.199219 9.128906 14.199219 L 9.125 14.199219 L 9.058594 14.25 L 9.015625 14.292969 L 8.835938 14.527344 L 8.820312 14.601562 L 8.800781 14.566406 L 8.753906 14.515625 L 8.675781 14.511719 L 8.644531 14.648438 C 8.644531 14.671875 8.640625 14.730469 8.644531 14.746094 C 8.648438 14.753906 8.644531 14.792969 8.640625 14.824219 C 8.632812 14.835938 8.613281 14.867188 8.609375 14.875 C 8.605469 14.882812 8.542969 14.9375 8.492188 14.984375 L 8.488281 14.988281 L 8.464844 15.117188 L 8.394531 15.164062 L 8.398438 15.257812 L 8.375 15.3125 L 8.144531 15.765625 L 8.136719 16.175781 L 8.105469 16.238281 C 8.09375 16.25 8.074219 16.273438 8.074219 16.292969 C 8.074219 16.300781 8.066406 16.34375 8.0625 16.375 C 8.054688 16.417969 8.054688 16.433594 8.054688 16.441406 C 8.054688 16.453125 8.039062 16.511719 8.023438 16.570312 L 8.003906 16.652344 L 7.964844 16.929688 L 7.960938 17 L 8.046875 17.109375 L 7.789062 17.460938 L 7.777344 17.671875 L 7.585938 17.726562 L 7.523438 17.855469 L 7.066406 18.59375 L 7.066406 18.816406 L 7.167969 18.988281 L 7.109375 19.039062 L 7.058594 19.160156 L 6.984375 19.210938 L 6.972656 19.359375 L 7.054688 19.417969 L 7.054688 19.675781 L 7.152344 20.097656 L 7.25 20.445312 L 7.242188 20.699219 L 7.339844 20.699219 L 7.535156 21.035156 L 7.585938 21.5625 L 7.804688 22.011719 L 7.785156 22.625 L 8.042969 22.648438 L 8.015625 22.761719 L 7.992188 22.878906 L 8.082031 22.917969 L 8.125 22.996094 L 8.144531 22.988281 C 8.171875 22.976562 8.210938 22.964844 8.222656 22.964844 C 8.25 22.964844 8.3125 22.921875 8.347656 22.898438 L 8.40625 22.832031 L 8.640625 22.953125 L 8.71875 23.003906 L 8.726562 23.039062 L 8.695312 23.148438 L 8.757812 23.441406 L 8.78125 23.574219 C 8.785156 23.59375 8.800781 23.640625 8.808594 23.65625 C 8.816406 23.664062 8.859375 23.734375 8.871094 23.75 L 8.878906 23.808594 L 8.878906 23.863281 L 8.816406 23.871094 L 8.761719 23.847656 L 8.683594 23.859375 L 8.648438 23.929688 L 8.648438 23.984375 L 8.6875 24.035156 L 8.667969 24.0625 L 8.625 24.09375 C 8.617188 24.101562 8.605469 24.125 8.617188 24.148438 C 8.621094 24.15625 8.644531 24.226562 8.664062 24.28125 L 8.6875 24.40625 L 8.699219 24.445312 L 8.757812 24.484375 L 8.757812 24.582031 L 8.804688 24.640625 L 8.808594 24.664062 L 8.785156 24.699219 L 8.589844 24.699219 C 8.550781 24.699219 8.507812 24.699219 8.5 24.699219 C 8.476562 24.683594 8.460938 24.679688 8.425781 24.667969 C 8.382812 24.65625 8.339844 24.652344 8.339844 24.652344 L 8.332031 24.652344 C 8.308594 24.65625 8.25 24.664062 8.234375 24.671875 C 8.21875 24.683594 8.1875 24.703125 8.183594 24.707031 L 8.175781 24.707031 L 8.148438 24.785156 L 8.144531 24.789062 C 8.144531 24.789062 8.144531 24.792969 8.136719 24.800781 C 8.117188 24.808594 8.097656 24.820312 8.089844 24.824219 L 8.0625 24.84375 L 8.015625 24.839844 C 7.953125 24.753906 7.933594 24.75 7.925781 24.75 C 7.914062 24.746094 7.882812 24.730469 7.859375 24.71875 L 7.761719 24.691406 L 7.757812 24.691406 C 7.6875 24.699219 7.679688 24.714844 7.679688 24.722656 C 7.675781 24.726562 7.671875 24.730469 7.660156 24.734375 L 7.492188 24.722656 L 7.472656 24.828125 L 7.492188 24.832031 C 7.589844 24.851562 9.886719 25.359375 10.113281 25.394531 C 10.3125 25.425781 10.527344 25.527344 10.574219 25.546875 L 10.601562 25.648438 L 10.601562 25.726562 L 10.628906 25.71875 C 10.648438 25.714844 10.691406 25.710938 10.707031 25.71875 C 10.722656 25.726562 10.734375 25.753906 10.742188 25.761719 L 10.742188 25.90625 L 10.785156 25.832031 C 10.785156 25.832031 10.800781 25.808594 10.820312 25.808594 C 10.839844 25.808594 10.867188 25.839844 10.894531 25.886719 L 10.898438 25.894531 L 10.90625 25.898438 C 10.929688 25.90625 11.03125 25.9375 11.0625 25.9375 L 11.113281 25.9375 L 11.113281 26.023438 L 11.1875 26.117188 L 11.28125 26.117188 L 11.285156 26.113281 C 11.292969 26.113281 11.359375 26.082031 11.382812 26.066406 C 11.390625 26.0625 11.394531 26.054688 11.398438 26.050781 C 11.40625 26.050781 11.433594 26.046875 11.445312 26.046875 C 11.519531 26.039062 11.597656 26.039062 11.597656 26.039062 L 11.609375 26.039062 L 11.660156 25.980469 C 11.667969 25.972656 11.773438 25.890625 11.796875 25.859375 C 11.8125 25.839844 11.859375 25.8125 11.875 25.804688 L 11.921875 25.777344 L 11.917969 25.777344 C 11.976562 25.765625 12.019531 25.75 12.019531 25.75 L 12.121094 25.726562 L 12.195312 25.632812 L 12.417969 25.625 L 12.417969 25.511719 L 12.492188 25.4375 L 12.574219 25.402344 L 12.554688 25.382812 C 12.558594 25.378906 12.570312 25.363281 12.609375 25.335938 C 12.6875 25.285156 12.800781 25.277344 12.800781 25.277344 L 12.824219 25.273438 L 12.824219 25.195312 L 12.867188 25.128906 L 12.867188 25.082031 L 12.988281 25.046875 L 13.066406 25.046875 L 13.117188 25.03125 L 13.5625 24.953125 L 13.6875 24.921875 L 13.8125 24.894531 L 13.910156 24.828125 C 13.921875 24.828125 13.941406 24.828125 13.96875 24.828125 L 13.980469 24.828125 C 14.023438 24.835938 14.109375 24.84375 14.195312 24.828125 C 14.273438 24.808594 14.320312 24.75 14.335938 24.722656 L 14.382812 24.722656 L 14.414062 24.667969 L 14.472656 24.667969 L 14.550781 24.589844 L 14.640625 24.589844 L 14.828125 24.441406 L 15.464844 24.441406 L 15.800781 24.417969 L 15.859375 24.34375 L 15.976562 24.253906 L 16.015625 24.195312 L 16.097656 24.175781 L 16.089844 24.09375 L 16.304688 24.015625 L 16.335938 23.992188 L 16.464844 23.992188 L 16.507812 23.925781 L 16.714844 23.859375 C 16.722656 23.855469 16.816406 23.84375 16.839844 23.835938 C 16.867188 23.824219 16.917969 23.808594 16.917969 23.808594 L 16.933594 23.808594 L 16.949219 23.738281 L 17.039062 23.65625 L 17.039062 23.59375 C 17.097656 23.582031 17.207031 23.550781 17.226562 23.519531 C 17.246094 23.492188 17.269531 23.457031 17.28125 23.445312 C 17.34375 23.410156 17.453125 23.355469 17.492188 23.355469 C 17.527344 23.355469 17.585938 23.347656 17.652344 23.335938 C 17.714844 23.324219 17.773438 23.3125 17.824219 23.3125 C 17.894531 23.304688 17.972656 23.257812 18.023438 23.226562 C 18.039062 23.214844 18.0625 23.203125 18.066406 23.199219 C 18.089844 23.199219 18.097656 23.199219 18.144531 23.191406 C 18.195312 23.183594 18.417969 23.058594 18.464844 23.035156 L 18.554688 22.980469 C 18.566406 22.976562 18.605469 22.964844 18.636719 22.960938 C 18.675781 22.953125 18.769531 22.914062 18.773438 22.910156 L 18.78125 22.90625 C 18.785156 22.902344 18.84375 22.839844 18.863281 22.816406 L 18.867188 22.808594 C 18.9375 22.703125 18.960938 22.679688 18.972656 22.675781 C 18.984375 22.667969 18.984375 22.667969 18.992188 22.667969 C 19.003906 22.667969 19.019531 22.667969 19.054688 22.652344 C 19.070312 22.648438 19.09375 22.636719 19.128906 22.621094 C 19.222656 22.578125 19.386719 22.507812 19.460938 22.507812 C 19.53125 22.507812 19.574219 22.464844 19.609375 22.429688 C 19.617188 22.421875 19.632812 22.402344 19.640625 22.402344 C 19.679688 22.402344 19.835938 22.359375 19.863281 22.351562 L 19.964844 22.34375 C 20.125 22.359375 20.304688 22.386719 20.324219 22.394531 C 20.355469 22.414062 20.808594 22.414062 21.074219 22.414062 L 21.582031 22.414062 C 21.625 22.414062 21.6875 22.390625 21.695312 22.386719 L 21.773438 22.34375 C 21.832031 22.359375 21.988281 22.394531 22.027344 22.378906 C 22.074219 22.359375 22.21875 22.199219 22.234375 22.164062 C 22.25 22.132812 22.289062 22.042969 22.289062 22.035156 L 22.320312 21.882812 C 22.339844 21.847656 22.503906 21.589844 22.5625 21.496094 C 22.621094 21.398438 22.738281 21.316406 22.804688 21.273438 C 22.863281 21.238281 23 21.191406 23.003906 21.191406 L 23.019531 21.1875 Z M 23.011719 20.964844 " fill-opacity="1" fill-rule="nonzero"/></g></svg>