<svg xmlns="http://www.w3.org/2000/svg" xmlns:xlink="http://www.w3.org/1999/xlink" width="40" zoomAndPan="magnify" viewBox="0 0 30 30.000001" height="40" preserveAspectRatio="xMidYMid meet" version="1.0"><defs><clipPath id="d5e0d48be0"><path d="M 8.917969 2.902344 L 21 2.902344 L 21 26.128906 L 8.917969 26.128906 Z M 8.917969 2.902344 " clip-rule="nonzero"/></clipPath></defs><g clip-path="url(#d5e0d48be0)"><path fill="#014d4e" d="M 20.878906 7.8125 C 20.753906 7.59375 20.515625 7.433594 20.242188 7.359375 C 20.207031 7.339844 20.171875 7.339844 20.171875 7.339844 C 20.171875 7.324219 20.171875 7.304688 20.171875 7.285156 C 20.226562 6.777344 20.316406 6.214844 20.40625 5.539062 C 20.425781 5.523438 20.425781 5.503906 20.445312 5.46875 C 20.5 5.359375 20.644531 5.121094 20.460938 4.902344 C 20.425781 4.847656 20.40625 4.8125 20.480469 4.59375 C 20.515625 4.484375 20.554688 4.375 20.554688 4.230469 C 20.570312 4.011719 20.605469 3.449219 19.933594 3.339844 C 19.679688 3.304688 19.40625 3.230469 19.152344 3.175781 C 18.714844 3.066406 18.261719 2.976562 17.804688 2.941406 C 17.480469 2.921875 17.132812 2.902344 16.714844 2.902344 C 16.441406 2.902344 16.167969 2.902344 15.914062 2.921875 C 15.660156 2.921875 15.421875 2.941406 15.1875 2.941406 C 14.988281 2.941406 14.824219 3.101562 14.804688 3.285156 L 14.75 4.265625 L 13.222656 4.265625 L 13.222656 4.15625 C 13.203125 4.011719 13.097656 3.902344 12.949219 3.867188 L 12.859375 3.847656 C 12.824219 3.847656 12.785156 3.832031 12.769531 3.832031 C 12.695312 3.832031 12.621094 3.847656 12.566406 3.886719 C 12.476562 3.941406 12.421875 4.03125 12.40625 4.140625 C 12.367188 4.359375 12.3125 4.359375 12.277344 4.359375 C 12.257812 4.359375 12.242188 4.359375 12.203125 4.359375 C 12.167969 4.339844 12.113281 4.339844 12.078125 4.339844 C 11.933594 4.339844 11.457031 4.394531 11.441406 5.085938 C 11.441406 5.160156 11.441406 5.339844 11.53125 5.503906 C 11.3125 5.503906 11.078125 5.484375 10.859375 5.484375 C 10.621094 5.46875 10.441406 5.429688 10.277344 5.375 C 10.113281 5.320312 9.96875 5.285156 9.839844 5.285156 C 9.550781 5.285156 9.367188 5.414062 9.277344 5.539062 C 9.09375 5.757812 9.039062 6.085938 9.113281 6.539062 C 9.183594 6.996094 9.183594 7.433594 9.09375 7.8125 C 9.058594 8.015625 9.078125 8.175781 9.09375 8.339844 C 9.09375 8.378906 9.09375 8.414062 9.113281 8.433594 C 9.128906 8.613281 9.277344 8.777344 9.476562 8.777344 C 9.476562 8.777344 9.585938 8.777344 9.585938 8.777344 C 9.765625 8.777344 9.929688 8.632812 9.949219 8.449219 C 9.949219 8.414062 9.949219 8.378906 9.96875 8.339844 C 9.984375 8.25 9.984375 8.160156 9.984375 8.050781 C 9.984375 7.976562 9.984375 7.886719 9.984375 7.8125 C 10.003906 7.851562 10.039062 7.90625 10.078125 7.941406 C 10.203125 8.085938 10.386719 8.160156 10.621094 8.160156 C 10.660156 8.160156 10.714844 8.160156 10.75 8.140625 C 10.75 8.285156 10.730469 8.433594 10.714844 8.578125 C 10.675781 9.015625 10.929688 9.214844 11.132812 9.378906 C 11.550781 9.707031 11.859375 9.976562 12.09375 10.269531 C 12.09375 10.304688 12.09375 10.359375 12.078125 10.414062 C 12.078125 10.414062 12.078125 10.414062 12.058594 10.414062 C 11.933594 10.503906 11.878906 10.667969 11.914062 10.816406 L 12.257812 11.980469 C 12.277344 12.015625 12.277344 12.105469 12.296875 12.195312 C 12.421875 12.941406 12.605469 13.78125 13.023438 14.179688 C 13.078125 14.234375 13.132812 14.253906 13.1875 14.269531 C 13.167969 14.308594 13.148438 14.324219 13.132812 14.363281 C 13.078125 14.453125 13.078125 14.5625 13.113281 14.652344 L 13.222656 15 C 13.3125 15.269531 13.421875 15.582031 13.515625 15.871094 C 13.570312 16.054688 13.660156 16.289062 13.640625 16.34375 C 13.625 16.398438 13.476562 16.527344 13.351562 16.652344 L 13.277344 16.707031 C 13.257812 16.726562 13.257812 16.726562 13.242188 16.742188 C 13.222656 16.726562 13.222656 16.707031 13.203125 16.691406 C 12.550781 15.816406 11.894531 14.960938 11.222656 14.089844 L 10.675781 13.378906 C 10.640625 13.324219 10.585938 13.269531 10.53125 13.214844 L 10.476562 13.144531 C 10.402344 13.050781 10.292969 13.015625 10.1875 13.015625 C 10.148438 13.015625 10.132812 13.015625 10.09375 13.035156 C 10.058594 13.070312 9.894531 13.070312 9.765625 13.070312 C 9.292969 13.089844 9.238281 13.089844 9.128906 13.179688 C 8.984375 13.308594 8.949219 13.507812 9.039062 13.671875 L 9.09375 13.761719 C 9.148438 13.851562 9.203125 13.925781 9.257812 14.015625 L 9.605469 14.488281 C 9.929688 14.960938 10.292969 15.453125 10.640625 15.925781 C 10.875 16.253906 11.132812 16.5625 11.386719 16.871094 C 11.621094 17.179688 11.878906 17.488281 12.09375 17.800781 L 12.222656 17.960938 C 12.476562 18.308594 12.714844 18.617188 12.878906 18.964844 C 13.042969 19.289062 13.550781 19.527344 14.003906 19.5625 C 13.96875 19.652344 13.988281 19.761719 14.023438 19.855469 C 14.152344 20.109375 14.351562 20.289062 14.515625 20.453125 C 14.789062 20.726562 14.933594 20.890625 14.914062 21.164062 C 14.894531 21.273438 14.933594 21.363281 14.96875 21.417969 L 15.042969 21.671875 C 15.097656 21.855469 15.152344 22.035156 15.222656 22.238281 C 15.242188 22.273438 15.242188 22.292969 15.242188 22.328125 C 15.277344 22.472656 15.316406 22.65625 15.476562 22.800781 C 15.570312 22.890625 15.585938 22.910156 15.460938 23.128906 C 15.042969 23.910156 15.058594 24.710938 15.53125 25.257812 C 15.804688 25.582031 16.207031 25.765625 16.585938 25.929688 C 16.695312 25.984375 16.824219 26.039062 16.933594 26.074219 C 17.007812 26.109375 17.097656 26.128906 17.1875 26.128906 C 17.535156 26.128906 18.132812 25.839844 18.242188 25.472656 C 18.261719 25.4375 18.261719 25.402344 18.277344 25.363281 C 18.371094 25.109375 18.460938 24.800781 18.277344 24.546875 C 18.277344 24.527344 18.261719 24.527344 18.261719 24.527344 C 18.261719 24.511719 18.277344 24.492188 18.332031 24.4375 C 18.714844 24 18.753906 23.527344 18.769531 23.128906 C 18.789062 22.800781 18.898438 22.457031 19.0625 22.183594 C 19.078125 22.144531 19.117188 22.089844 19.171875 22.035156 C 19.296875 21.875 19.644531 21.453125 19.242188 21 C 19.242188 20.890625 19.261719 20.78125 19.261719 20.671875 C 19.28125 20.34375 19.28125 20.019531 19.316406 19.707031 C 19.335938 19.582031 19.371094 19.453125 19.425781 19.363281 C 19.460938 19.308594 19.480469 19.253906 19.515625 19.199219 C 19.734375 18.816406 20.007812 18.382812 19.898438 17.800781 C 19.898438 17.761719 19.933594 17.671875 19.953125 17.636719 C 20.023438 17.472656 20.226562 17.015625 19.808594 16.582031 C 19.605469 16.378906 19.589844 16.289062 19.589844 16.269531 C 19.496094 15.617188 19.40625 14.960938 19.679688 14.324219 C 19.789062 14.089844 19.808594 13.851562 19.824219 13.617188 C 19.824219 13.578125 19.824219 13.523438 19.84375 13.488281 C 19.878906 13.144531 19.898438 12.617188 19.898438 12.269531 C 19.898438 11.960938 19.898438 11.597656 19.769531 11.289062 C 19.679688 11.070312 19.699219 10.941406 19.734375 10.886719 C 19.769531 10.832031 19.878906 10.796875 20.023438 10.796875 C 20.171875 10.796875 20.390625 10.777344 20.554688 10.597656 C 20.734375 10.398438 20.753906 10.125 20.734375 9.851562 C 20.714844 9.414062 20.789062 8.960938 20.917969 8.503906 C 21.042969 8.214844 20.972656 7.960938 20.878906 7.8125 Z M 14.152344 5.902344 C 14.132812 5.921875 14.132812 5.921875 14.097656 5.921875 C 14.097656 5.921875 14.097656 5.921875 14.078125 5.921875 C 14.078125 5.921875 14.058594 5.921875 14.058594 5.921875 C 14.042969 5.921875 14.023438 5.921875 14.003906 5.921875 C 13.878906 5.921875 13.769531 5.976562 13.695312 6.085938 C 13.695312 6.105469 13.679688 6.105469 13.679688 6.121094 C 13.550781 5.976562 13.421875 5.867188 13.257812 5.777344 C 13.367188 5.777344 14.097656 5.777344 14.097656 5.777344 C 14.132812 5.777344 14.152344 5.796875 14.152344 5.8125 L 14.152344 5.886719 C 14.167969 5.867188 14.167969 5.886719 14.152344 5.902344 Z M 14.152344 5.902344 " fill-opacity="1" fill-rule="nonzero"/></g></svg>