<svg xmlns="http://www.w3.org/2000/svg" xmlns:xlink="http://www.w3.org/1999/xlink" width="40" zoomAndPan="magnify" viewBox="0 0 30 30.000001" height="40" preserveAspectRatio="xMidYMid meet" version="1.0"><defs><clipPath id="ada602ca8a"><path d="M 3.386719 3.28125 L 26.613281 3.28125 L 26.613281 25.78125 L 3.386719 25.78125 Z M 3.386719 3.28125 " clip-rule="nonzero"/></clipPath></defs><g clip-path="url(#ada602ca8a)"><path fill="#014d4e" d="M 5.589844 12.667969 C 5.171875 12.632812 5.464844 12.152344 4.84375 12.375 C 4.226562 12.59375 3.75 12.410156 3.671875 12.171875 C 3.484375 11.621094 3.753906 11.253906 4.5625 11.320312 C 5.375 11.386719 5.550781 10.789062 4.472656 10.789062 C 3.394531 10.789062 4.277344 10.078125 4.753906 10.195312 C 5.234375 10.308594 5.238281 9.957031 5.589844 9.957031 C 5.941406 9.957031 7.027344 10.074219 6.429688 9.519531 C 5.863281 9.5 5.949219 8.710938 6.355469 8.46875 C 6.761719 8.222656 7.277344 8.804688 7.386719 8.394531 C 7.496094 7.988281 7.425781 7.738281 8.316406 7.59375 C 9.210938 7.449219 8.363281 6.886719 9.085938 6.90625 C 9.808594 6.925781 9.582031 7.445312 10.152344 6.828125 C 10.71875 6.210938 10.4375 7.089844 11.324219 6.828125 C 12.210938 6.566406 11.535156 6.5 11.988281 6.085938 C 12.441406 5.675781 12.636719 6.144531 12.929688 5.808594 C 13.21875 5.472656 13.878906 5.335938 13.78125 5.015625 C 13.683594 4.691406 13.03125 4.945312 13.953125 4.410156 C 14.875 3.871094 14.613281 4.878906 15.507812 3.90625 C 15.929688 3.449219 15.875 4.03125 16.207031 4 C 16.40625 3.980469 16.445312 3.300781 17.054688 3.527344 C 17.660156 3.753906 18.050781 3.699219 18.390625 3.613281 C 18.730469 3.527344 18.609375 3.984375 19.515625 3.851562 C 20.421875 3.71875 19.792969 4.101562 20.414062 4.179688 C 21.03125 4.261719 21.644531 4.074219 21.644531 4.472656 C 21.644531 4.867188 21.929688 4.796875 22.25 4.796875 C 22.570312 4.796875 23.195312 5.015625 21.644531 5.460938 C 20.09375 5.90625 20.179688 6.28125 21.644531 6.148438 C 22.546875 6.242188 22.074219 6.765625 23.386719 6.148438 C 25.472656 6.773438 23.144531 5.339844 24.496094 5.585938 C 25.847656 5.828125 24.859375 5.953125 25.742188 5.402344 C 26.621094 4.851562 26.453125 6.308594 25.921875 6.34375 C 25.386719 6.382812 25.574219 7.089844 25.140625 7.304688 C 24.707031 7.515625 24.5 7.921875 24.777344 8.394531 C 25.058594 8.871094 24.402344 8.714844 24.496094 9.117188 C 24.589844 9.519531 25.484375 9.628906 25.363281 10.023438 C 25.242188 10.421875 24.792969 10.441406 24.933594 10.988281 C 25.070312 11.539062 24.691406 11.808594 25.140625 11.808594 C 25.589844 11.808594 25.371094 12.394531 24.933594 12.472656 C 24.496094 12.550781 24.558594 12.703125 24.691406 13.046875 C 24.824219 13.390625 24.503906 13.90625 24.09375 13.445312 C 23.6875 12.984375 23.191406 12.460938 23.3125 13.320312 C 23.433594 14.175781 24.078125 14.148438 24.191406 14.445312 C 24.304688 14.742188 24.800781 15.289062 24.496094 15.519531 C 24.191406 15.753906 23.792969 16.546875 23.640625 16.199219 C 23.488281 15.855469 23.859375 15.292969 23.386719 15.054688 C 22.910156 14.816406 22.578125 14.605469 22.578125 15.234375 C 22.578125 15.863281 22.445312 15.835938 22.183594 16.019531 C 21.921875 16.199219 23.035156 16.316406 22.9375 16.609375 C 22.839844 16.898438 22.269531 16.632812 21.957031 17 C 21.644531 17.367188 21.40625 17.4375 21.03125 17.15625 C 20.859375 17.992188 21.101562 18.476562 20.523438 18.476562 C 19.949219 18.476562 19.878906 18.535156 19.453125 18.972656 C 19.03125 19.40625 19.03125 18.578125 18.578125 19.304688 C 18.125 20.035156 18.332031 19.964844 17.527344 19.910156 C 16.71875 19.859375 16.027344 19.921875 16.027344 20.519531 C 16.027344 21.117188 16.234375 21.742188 15.746094 22.015625 C 15.261719 22.289062 15.765625 22.90625 15.609375 23.234375 C 15.449219 23.566406 15.066406 23.585938 15.15625 24.207031 C 15.246094 24.828125 15.027344 25.722656 14.414062 25.722656 C 13.804688 25.722656 14.078125 25.207031 13.703125 25.15625 C 13.328125 25.101562 13.347656 25.519531 13.15625 24.925781 C 12.960938 24.332031 13.199219 24.75 12.652344 24.628906 C 12.109375 24.511719 11.453125 23.140625 11.519531 22.632812 C 11.582031 22.128906 11.207031 22.015625 11.207031 21.566406 C 11.207031 21.121094 11.453125 20.960938 10.902344 20.246094 C 10.351562 19.527344 10.882812 19.066406 11.40625 18.820312 C 11.929688 18.578125 12.050781 17.9375 11.519531 17.648438 C 10.984375 17.363281 10.097656 17.886719 10.097656 17.089844 C 10.097656 16.292969 11.164062 17.367188 11.164062 16.519531 C 11.164062 15.914062 10.261719 16.511719 10.261719 15.117188 C 9.621094 14.722656 10.023438 13.773438 9.332031 13.503906 C 8.644531 13.234375 9.265625 12.847656 8.40625 12.523438 C 7.546875 12.195312 7.945312 12.058594 7.496094 12.003906 C 7.046875 11.949219 7.082031 12.523438 6.675781 12.523438 C 6.265625 12.523438 6.007812 12.703125 5.589844 12.667969 Z M 5.589844 12.667969 " fill-opacity="1" fill-rule="evenodd"/></g></svg>