<svg xmlns="http://www.w3.org/2000/svg" xmlns:xlink="http://www.w3.org/1999/xlink" width="40" zoomAndPan="magnify" viewBox="0 0 30 30.000001" height="40" preserveAspectRatio="xMidYMid meet" version="1.0"><defs><clipPath id="8d00b3adea"><path d="M 3.386719 11.742188 L 26.613281 11.742188 L 26.613281 17.550781 L 3.386719 17.550781 Z M 3.386719 11.742188 " clip-rule="nonzero"/></clipPath></defs><g clip-path="url(#8d00b3adea)"><path fill="#014d4e" d="M 25.566406 13.253906 L 23.050781 13.757812 L 22.546875 14.257812 L 21.539062 14.257812 L 20.535156 13.253906 L 19.527344 12.75 L 19.023438 13.253906 L 18.523438 13.253906 L 18.019531 12.246094 L 16.507812 11.742188 L 15 12.246094 L 14.496094 11.742188 L 13.492188 12.75 L 12.988281 13.253906 L 5.441406 13.253906 L 5.441406 14.761719 L 6.949219 14.761719 L 6.949219 14.257812 L 9.464844 14.257812 L 9.464844 14.761719 L 7.453125 14.761719 L 7.453125 15.265625 L 4.433594 15.265625 L 4.433594 14.257812 L 3.429688 15.265625 L 3.429688 17.277344 L 3.929688 17.277344 L 4.433594 16.773438 L 10.976562 16.773438 L 10.976562 15.769531 L 13.992188 15.769531 L 13.992188 15.265625 L 15 15.265625 L 16.007812 14.257812 L 16.507812 14.257812 L 17.011719 14.761719 L 21.539062 16.273438 L 23.050781 16.273438 L 23.554688 15.769531 L 26.570312 15.265625 L 26.570312 14.761719 Z M 25.566406 13.253906 " fill-opacity="1" fill-rule="nonzero"/></g></svg>