<svg xmlns="http://www.w3.org/2000/svg" xmlns:xlink="http://www.w3.org/1999/xlink" width="40" zoomAndPan="magnify" viewBox="0 0 30 30.000001" height="40" preserveAspectRatio="xMidYMid meet" version="1.0"><defs><clipPath id="a58b704fcb"><path d="M 22 9 L 25.886719 9 L 25.886719 12 L 22 12 Z M 22 9 " clip-rule="nonzero"/></clipPath><clipPath id="ce41bac0a6"><path d="M 8 24 L 9 24 L 9 24.675781 L 8 24.675781 Z M 8 24 " clip-rule="nonzero"/></clipPath><clipPath id="4d75aaec62"><path d="M 9 24 L 10 24 L 10 24.675781 L 9 24.675781 Z M 9 24 " clip-rule="nonzero"/></clipPath><clipPath id="0e52c0698c"><path d="M 8 23 L 11 23 L 11 24.675781 L 8 24.675781 Z M 8 23 " clip-rule="nonzero"/></clipPath><clipPath id="e8b30bea31"><path d="M 7 23 L 9 23 L 9 24.675781 L 7 24.675781 Z M 7 23 " clip-rule="nonzero"/></clipPath><clipPath id="33247384b5"><path d="M 3.386719 15 L 4 15 L 4 16 L 3.386719 16 Z M 3.386719 15 " clip-rule="nonzero"/></clipPath><clipPath id="8837d5b03b"><path d="M 3.386719 9 L 11 9 L 11 22 L 3.386719 22 Z M 3.386719 9 " clip-rule="nonzero"/></clipPath><clipPath id="64160cc7af"><path d="M 10 5.078125 L 22 5.078125 L 22 15 L 10 15 Z M 10 5.078125 " clip-rule="nonzero"/></clipPath></defs><g clip-path="url(#a58b704fcb)"><path fill="#014d4e" d="M 24.242188 11.136719 C 24.242188 11.136719 24.410156 11.128906 24.46875 11.113281 C 24.53125 11.097656 24.566406 11.0625 24.589844 11.035156 C 24.609375 11.007812 24.671875 10.917969 24.671875 10.917969 C 24.671875 10.917969 24.75 10.800781 24.761719 10.785156 C 24.769531 10.773438 24.917969 10.679688 24.917969 10.679688 L 25.070312 10.570312 L 25.144531 10.53125 L 25.207031 10.492188 L 25.246094 10.5 L 25.277344 10.515625 L 25.3125 10.519531 L 25.363281 10.511719 L 25.398438 10.484375 L 25.679688 10.328125 L 25.671875 10.234375 L 25.664062 10.1875 L 25.597656 10.027344 L 25.550781 9.941406 L 25.507812 9.902344 L 25.457031 9.867188 L 25.367188 9.878906 C 25.367188 9.878906 25.367188 9.855469 25.332031 9.902344 C 25.292969 9.949219 25.296875 9.929688 25.292969 9.949219 C 25.289062 9.96875 25.285156 9.996094 25.28125 10.007812 C 25.273438 10.023438 25.261719 10.042969 25.261719 10.042969 L 25.167969 10.042969 L 25.109375 10.035156 L 25.066406 10.042969 L 24.988281 10.121094 L 24.828125 10.203125 L 24.683594 10.285156 C 24.683594 10.285156 24.539062 10.375 24.523438 10.382812 C 24.511719 10.390625 24.503906 10.410156 24.46875 10.429688 C 24.4375 10.449219 24.40625 10.476562 24.40625 10.476562 C 24.40625 10.476562 24.375 10.523438 24.359375 10.539062 C 24.34375 10.550781 24.296875 10.574219 24.296875 10.574219 L 24.175781 10.59375 L 24.097656 10.648438 L 24.035156 10.695312 L 23.992188 10.714844 L 23.933594 10.742188 L 23.882812 10.75 L 23.804688 10.746094 L 23.757812 10.730469 L 23.726562 10.710938 L 23.710938 10.675781 L 23.679688 10.613281 L 23.644531 10.703125 L 23.628906 10.773438 L 23.636719 10.8125 L 23.636719 10.855469 L 23.609375 10.910156 L 23.402344 11.050781 L 23.273438 11.082031 L 23.246094 11.097656 L 23.167969 11.160156 L 23.09375 11.1875 L 23.042969 11.203125 C 23.042969 11.203125 23.050781 11.25 23.074219 11.277344 C 23.101562 11.308594 23.09375 11.367188 23.09375 11.367188 C 23.09375 11.367188 23.082031 11.402344 23.074219 11.417969 C 23.066406 11.433594 23.046875 11.464844 23.046875 11.464844 L 23.011719 11.507812 L 22.988281 11.527344 C 22.988281 11.527344 22.976562 11.597656 23.007812 11.605469 C 23.042969 11.613281 23.070312 11.609375 23.070312 11.609375 C 23.070312 11.609375 23.101562 11.578125 23.117188 11.5625 C 23.132812 11.542969 23.152344 11.515625 23.152344 11.515625 C 23.152344 11.515625 23.1875 11.480469 23.199219 11.46875 C 23.207031 11.453125 23.226562 11.429688 23.226562 11.429688 L 23.296875 11.425781 C 23.296875 11.425781 23.332031 11.433594 23.402344 11.429688 C 23.472656 11.429688 23.472656 11.425781 23.472656 11.425781 L 23.519531 11.394531 L 23.636719 11.308594 L 23.6875 11.269531 L 23.761719 11.230469 L 23.824219 11.230469 L 23.851562 11.21875 L 23.894531 11.210938 C 23.894531 11.210938 23.976562 11.210938 23.992188 11.203125 C 24.003906 11.199219 24.082031 11.191406 24.082031 11.191406 L 24.117188 11.15625 L 24.140625 11.136719 Z M 24.242188 11.136719 " fill-opacity="1" fill-rule="nonzero"/></g><path fill="#014d4e" d="M 22.617188 14.8125 L 22.660156 14.769531 L 22.738281 14.765625 L 22.769531 14.75 L 22.800781 14.730469 L 22.824219 14.710938 L 22.847656 14.695312 L 22.882812 14.683594 L 22.894531 14.722656 L 22.890625 14.769531 L 22.875 14.78125 L 22.863281 14.792969 L 22.847656 14.8125 L 22.832031 14.839844 L 22.757812 14.863281 L 22.617188 14.863281 L 22.601562 14.820312 Z M 22.617188 14.8125 " fill-opacity="1" fill-rule="nonzero"/><path fill="#014d4e" d="M 22.121094 14.953125 L 22.152344 14.925781 L 22.1875 14.921875 C 22.1875 14.921875 22.195312 14.910156 22.214844 14.925781 C 22.234375 14.9375 22.25 14.957031 22.25 14.957031 C 22.25 14.957031 22.210938 14.96875 22.292969 14.964844 C 22.375 14.957031 22.375 14.957031 22.375 14.957031 L 22.457031 14.953125 L 22.546875 14.949219 C 22.546875 14.949219 22.542969 14.96875 22.582031 14.9375 C 22.625 14.90625 22.644531 14.90625 22.644531 14.90625 L 22.683594 14.921875 L 22.714844 14.933594 L 22.742188 14.949219 L 22.777344 14.960938 L 22.785156 14.980469 L 22.78125 15.015625 L 22.773438 15.035156 L 22.742188 15.066406 L 22.71875 15.082031 L 22.589844 15.082031 L 22.527344 15.070312 L 22.503906 15.085938 L 22.445312 15.089844 L 22.382812 15.089844 L 22.304688 15.085938 L 22.253906 15.082031 L 22.207031 15.074219 L 22.144531 15.023438 L 22.117188 14.996094 Z M 22.121094 14.953125 " fill-opacity="1" fill-rule="nonzero"/><path fill="#014d4e" d="M 16.933594 21.207031 C 16.933594 21.207031 16.601562 21.441406 16.53125 21.492188 C 16.464844 21.539062 16.449219 21.566406 16.449219 21.566406 L 16.441406 21.746094 L 16.53125 22.164062 L 16.609375 22.578125 L 16.632812 22.621094 L 16.609375 22.710938 L 16.597656 22.753906 L 16.632812 22.871094 L 16.730469 23.003906 L 16.75 23.101562 C 16.75 23.101562 16.773438 23.109375 16.792969 23.101562 C 16.8125 23.09375 16.835938 23.066406 16.835938 23.066406 L 17.007812 23.042969 C 16.984375 23.078125 16.957031 23.097656 16.957031 23.097656 L 16.917969 23.132812 L 16.882812 23.175781 L 16.859375 23.230469 L 16.851562 23.257812 L 16.84375 23.292969 L 16.882812 23.363281 L 16.925781 23.40625 L 16.988281 23.417969 L 17.03125 23.410156 L 17.09375 23.425781 C 17.136719 23.402344 17.175781 23.371094 17.175781 23.371094 L 17.226562 23.40625 L 17.269531 23.425781 C 17.269531 23.425781 17.277344 23.441406 17.316406 23.46875 C 17.359375 23.496094 17.359375 23.496094 17.359375 23.496094 L 17.519531 23.550781 L 17.644531 23.574219 L 17.742188 23.625 L 17.78125 23.652344 L 17.878906 23.671875 L 17.921875 23.671875 L 18 23.742188 L 18.109375 23.742188 L 18.21875 23.734375 L 18.277344 23.710938 L 18.359375 23.703125 L 18.398438 23.691406 L 18.457031 23.652344 C 18.457031 23.652344 18.398438 23.625 18.496094 23.625 C 18.59375 23.625 18.644531 23.636719 18.644531 23.636719 L 18.707031 23.625 L 18.777344 23.613281 L 18.859375 23.589844 L 18.96875 23.554688 L 19.039062 23.527344 L 19.109375 23.476562 L 19.171875 23.441406 L 19.304688 23.398438 L 19.382812 23.289062 L 19.546875 23.171875 L 19.601562 23.121094 L 19.632812 23.097656 L 19.660156 23.007812 L 19.714844 22.964844 L 19.753906 22.9375 L 19.847656 22.882812 L 19.867188 22.839844 L 19.925781 22.792969 L 19.960938 22.777344 L 20.058594 22.761719 C 20.058594 22.761719 20.152344 22.628906 20.183594 22.597656 C 20.210938 22.5625 20.222656 22.507812 20.238281 22.472656 C 20.25 22.4375 20.273438 22.347656 20.277344 22.320312 C 20.285156 22.292969 20.300781 22.25 20.300781 22.25 L 20.324219 22.183594 L 20.324219 22.105469 L 20.296875 22.066406 L 20.296875 22.003906 L 20.324219 21.945312 C 20.324219 21.945312 20.300781 21.828125 20.300781 21.808594 C 20.300781 21.789062 20.285156 21.691406 20.285156 21.691406 L 20.238281 21.613281 L 20.117188 21.382812 L 19.910156 21.1875 L 19.839844 21.160156 L 19.792969 21.152344 L 19.726562 21.132812 L 19.691406 21.046875 L 19.628906 20.984375 C 19.628906 20.984375 19.59375 20.941406 19.574219 20.933594 C 19.550781 20.925781 19.53125 20.914062 19.53125 20.914062 L 19.53125 20.871094 L 19.546875 20.820312 L 19.441406 20.808594 L 19.347656 20.710938 L 19.339844 20.570312 L 19.3125 20.488281 L 19.328125 20.449219 L 19.289062 20.410156 L 19.28125 20.320312 L 19.1875 20.296875 L 19.109375 20.289062 L 19.101562 20.234375 L 19.042969 20.234375 L 18.988281 20.222656 L 18.980469 20.128906 L 18.863281 20.136719 L 18.757812 20.082031 L 18.617188 20 L 18.402344 19.839844 L 18.332031 19.8125 L 18.265625 19.777344 L 18.1875 19.753906 L 18.136719 19.746094 L 18.09375 19.675781 L 18.054688 19.699219 L 17.960938 19.78125 L 17.886719 19.78125 L 17.765625 19.789062 L 17.6875 19.78125 L 17.667969 19.808594 L 17.640625 19.832031 L 17.601562 19.832031 L 17.5625 19.789062 L 17.484375 19.796875 L 17.457031 19.890625 L 17.441406 19.945312 L 17.457031 19.980469 L 17.464844 20.015625 L 17.464844 20.050781 L 17.402344 20.128906 L 17.402344 20.230469 L 17.394531 20.257812 L 17.367188 20.265625 L 17.300781 20.132812 L 17.273438 20.125 L 17.21875 20.164062 L 17.195312 20.230469 L 17.195312 20.296875 L 17.15625 20.335938 L 17.078125 20.410156 L 17.078125 20.558594 L 17.042969 20.570312 L 16.976562 20.601562 L 16.914062 20.613281 L 16.871094 20.65625 L 16.871094 20.734375 L 16.882812 20.800781 L 16.910156 20.84375 L 16.902344 21.023438 Z M 16.933594 21.207031 " fill-opacity="1" fill-rule="nonzero"/><g clip-path="url(#ce41bac0a6)"><path fill="#014d4e" d="M 8.84375 24.535156 L 8.894531 24.519531 L 8.929688 24.570312 L 9 24.640625 L 8.972656 24.652344 L 8.972656 24.6875 C 8.972656 24.6875 8.949219 24.703125 8.917969 24.667969 C 8.878906 24.628906 8.878906 24.628906 8.878906 24.628906 Z M 8.84375 24.535156 " fill-opacity="1" fill-rule="nonzero"/><path fill="#014d4e" d="M 8.726562 24.527344 L 8.773438 24.527344 L 8.796875 24.492188 L 8.734375 24.484375 Z M 8.726562 24.527344 " fill-opacity="1" fill-rule="nonzero"/></g><g clip-path="url(#4d75aaec62)"><path fill="#014d4e" d="M 9.351562 24.183594 L 9.40625 24.179688 L 9.40625 24.234375 L 9.371094 24.234375 Z M 9.351562 24.183594 " fill-opacity="1" fill-rule="nonzero"/><path fill="#014d4e" d="M 9.246094 24.648438 L 9.378906 24.640625 L 9.414062 24.660156 L 9.445312 24.679688 L 9.488281 24.695312 L 9.523438 24.726562 L 9.570312 24.753906 L 9.582031 24.679688 L 9.597656 24.660156 L 9.589844 24.636719 L 9.558594 24.609375 L 9.496094 24.511719 L 9.464844 24.492188 L 9.398438 24.425781 C 9.398438 24.425781 9.351562 24.382812 9.351562 24.453125 C 9.351562 24.523438 9.324219 24.527344 9.324219 24.527344 L 9.277344 24.5625 L 9.246094 24.582031 C 9.226562 24.601562 9.199219 24.621094 9.199219 24.621094 Z M 9.246094 24.648438 " fill-opacity="1" fill-rule="nonzero"/></g><g clip-path="url(#0e52c0698c)"><path fill="#014d4e" d="M 8.984375 23.984375 L 9.019531 23.964844 L 9.097656 23.929688 C 9.097656 23.929688 9.132812 23.929688 9.132812 23.917969 C 9.140625 23.902344 9.15625 23.855469 9.15625 23.855469 L 9.164062 23.824219 L 9.191406 23.816406 L 9.460938 23.808594 C 9.460938 23.808594 9.503906 23.804688 9.515625 23.800781 C 9.53125 23.796875 9.585938 23.773438 9.585938 23.773438 L 9.613281 23.722656 L 9.617188 23.660156 L 9.625 23.578125 L 9.605469 23.527344 L 9.597656 23.464844 L 9.617188 23.425781 L 9.644531 23.40625 L 9.660156 23.355469 L 9.679688 23.320312 L 9.734375 23.40625 L 9.757812 23.441406 L 9.769531 23.496094 L 9.777344 23.523438 L 9.820312 23.511719 L 9.847656 23.441406 L 9.867188 23.371094 L 9.867188 23.308594 L 9.875 23.273438 L 9.957031 23.25 L 9.96875 23.332031 L 9.992188 23.375 L 10.035156 23.402344 L 10.039062 23.464844 L 9.992188 23.511719 L 9.984375 23.550781 L 9.96875 23.578125 L 10.03125 23.59375 L 10.039062 23.570312 L 10.066406 23.507812 L 10.074219 23.480469 L 10.085938 23.445312 L 10.121094 23.46875 L 10.128906 23.511719 L 10.082031 23.605469 L 10.0625 23.632812 L 10.03125 23.664062 L 9.996094 23.671875 L 9.941406 23.707031 L 9.847656 23.726562 L 9.800781 23.738281 L 9.777344 23.777344 L 9.773438 23.851562 L 9.777344 23.929688 L 9.765625 23.976562 L 9.808594 23.988281 L 9.828125 24.011719 L 9.789062 24.046875 L 9.761719 24.070312 L 9.742188 24.074219 L 9.722656 24.023438 L 9.703125 24.023438 C 9.703125 24.023438 9.675781 24.023438 9.640625 24.023438 C 9.609375 24.023438 9.550781 24.015625 9.550781 24.015625 C 9.539062 23.988281 9.523438 23.96875 9.523438 23.96875 L 9.476562 23.953125 L 9.441406 24.027344 L 9.441406 24.070312 L 9.433594 24.097656 L 9.378906 24.132812 C 9.378906 24.132812 9.371094 24.136719 9.355469 24.136719 C 9.34375 24.136719 9.300781 24.144531 9.285156 24.136719 C 9.273438 24.132812 9.253906 24.125 9.226562 24.117188 C 9.199219 24.109375 9.179688 24.089844 9.179688 24.089844 L 9.144531 24.070312 L 9.125 24.019531 L 9.085938 24.011719 L 9.054688 24.019531 L 9.039062 24.0625 L 9.007812 24.066406 L 8.972656 24.046875 Z M 8.984375 23.984375 " fill-opacity="1" fill-rule="nonzero"/></g><path fill="#014d4e" d="M 9.132812 23.4375 C 9.132812 23.4375 9.15625 23.410156 9.171875 23.40625 C 9.183594 23.40625 9.191406 23.40625 9.191406 23.40625 L 9.210938 23.417969 L 9.210938 23.4375 L 9.246094 23.433594 L 9.3125 23.429688 L 9.332031 23.40625 L 9.347656 23.394531 L 9.363281 23.378906 L 9.382812 23.390625 L 9.398438 23.429688 L 9.429688 23.453125 L 9.429688 23.476562 L 9.402344 23.503906 L 9.398438 23.515625 L 9.382812 23.550781 L 9.375 23.578125 L 9.351562 23.601562 L 9.3125 23.625 L 9.304688 23.605469 L 9.277344 23.566406 L 9.265625 23.554688 L 9.261719 23.527344 L 9.222656 23.511719 L 9.167969 23.5 L 9.15625 23.484375 L 9.125 23.472656 Z M 9.132812 23.4375 " fill-opacity="1" fill-rule="nonzero"/><g clip-path="url(#e8b30bea31)"><path fill="#014d4e" d="M 7.878906 23.9375 L 7.882812 23.921875 L 7.890625 23.867188 L 7.914062 23.898438 L 7.957031 23.910156 L 8.003906 23.882812 L 8.03125 23.859375 L 8.101562 23.777344 L 8.140625 23.738281 L 8.148438 23.707031 L 8.164062 23.691406 L 8.167969 23.648438 L 8.167969 23.636719 L 8.191406 23.632812 L 8.238281 23.71875 L 8.289062 23.71875 L 8.34375 23.714844 L 8.367188 23.753906 L 8.445312 23.75 L 8.488281 23.753906 L 8.511719 23.769531 L 8.527344 23.785156 L 8.527344 23.816406 L 8.515625 23.832031 L 8.476562 23.855469 C 8.476562 23.855469 8.472656 23.863281 8.476562 23.871094 C 8.480469 23.882812 8.5 23.898438 8.5 23.898438 L 8.515625 23.949219 L 8.539062 23.957031 L 8.570312 23.96875 L 8.628906 23.964844 L 8.636719 23.988281 L 8.714844 23.988281 L 8.742188 24 L 8.753906 24.023438 C 8.753906 24.023438 8.765625 23.992188 8.769531 24.023438 C 8.777344 24.0625 8.785156 24.074219 8.785156 24.074219 L 8.785156 24.109375 L 8.757812 24.117188 L 8.71875 24.128906 L 8.71875 24.160156 L 8.707031 24.183594 L 8.679688 24.195312 L 8.660156 24.195312 L 8.648438 24.140625 L 8.632812 24.105469 L 8.621094 24.082031 L 8.566406 24.128906 C 8.566406 24.128906 8.578125 24.140625 8.566406 24.160156 C 8.550781 24.183594 8.550781 24.183594 8.550781 24.183594 L 8.539062 24.234375 L 8.503906 24.265625 L 8.488281 24.289062 L 8.445312 24.304688 C 8.445312 24.304688 8.441406 24.316406 8.4375 24.332031 C 8.433594 24.347656 8.433594 24.375 8.433594 24.375 L 8.394531 24.40625 C 8.394531 24.40625 8.410156 24.394531 8.394531 24.421875 C 8.375 24.449219 8.367188 24.460938 8.367188 24.460938 L 8.351562 24.472656 L 8.300781 24.472656 L 8.257812 24.511719 L 8.234375 24.554688 L 8.210938 24.527344 C 8.210938 24.527344 8.160156 24.507812 8.148438 24.492188 C 8.132812 24.480469 8.136719 24.457031 8.09375 24.421875 C 8.050781 24.386719 7.996094 24.375 7.996094 24.375 L 7.910156 24.34375 L 7.894531 24.332031 L 7.871094 24.320312 L 7.804688 24.316406 L 7.765625 24.308594 L 7.777344 24.253906 L 7.816406 24.226562 L 7.945312 24.183594 L 7.988281 24.167969 L 8.027344 24.117188 L 8.03125 24.085938 L 8.015625 24.050781 L 7.976562 24.023438 L 7.949219 23.996094 L 7.921875 23.976562 L 7.882812 23.957031 Z M 7.878906 23.9375 " fill-opacity="1" fill-rule="nonzero"/></g><path fill="#014d4e" d="M 4.054688 9.273438 L 4.054688 9.417969 L 4.078125 9.457031 L 4.105469 9.488281 L 4.132812 9.453125 L 4.128906 9.371094 L 4.128906 9.320312 L 4.085938 9.289062 Z M 4.054688 9.273438 " fill-opacity="1" fill-rule="nonzero"/><path fill="#014d4e" d="M 9.382812 9.855469 L 9.332031 9.933594 L 9.304688 9.988281 L 9.285156 10.023438 L 9.25 10.054688 L 9.253906 10.070312 L 9.265625 10.085938 L 9.28125 10.085938 L 9.304688 10.074219 L 9.320312 10.050781 L 9.332031 10.019531 L 9.351562 9.988281 L 9.363281 9.96875 L 9.386719 9.953125 L 9.402344 9.9375 L 9.417969 9.9375 L 9.441406 9.96875 L 9.476562 9.96875 L 9.488281 9.988281 L 9.511719 10 C 9.511719 10 9.527344 10 9.582031 10 C 9.636719 9.996094 9.65625 10 9.65625 10 L 9.695312 9.988281 L 9.714844 9.972656 L 9.71875 9.953125 L 9.722656 9.910156 L 9.722656 9.894531 L 9.753906 9.867188 L 9.710938 9.808594 L 9.636719 9.796875 L 9.542969 9.761719 L 9.503906 9.742188 L 9.492188 9.726562 L 9.464844 9.703125 C 9.464844 9.703125 9.457031 9.75 9.445312 9.75 C 9.433594 9.75 9.414062 9.753906 9.414062 9.753906 L 9.414062 9.859375 Z M 9.382812 9.855469 " fill-opacity="1" fill-rule="nonzero"/><path fill="#014d4e" d="M 10.71875 13.546875 C 10.710938 13.550781 10.707031 13.558594 10.707031 13.566406 L 10.707031 13.730469 L 10.777344 13.761719 L 10.851562 13.78125 L 10.945312 13.753906 L 10.945312 13.710938 L 10.902344 13.6875 L 10.792969 13.691406 L 10.789062 13.574219 L 10.761719 13.527344 Z M 10.71875 13.546875 " fill-opacity="1" fill-rule="nonzero"/><g clip-path="url(#33247384b5)"><path fill="#014d4e" d="M 3.847656 15.105469 L 3.875 15.070312 L 3.898438 15.042969 L 3.917969 15.011719 L 3.953125 15.023438 L 3.976562 15.058594 L 3.996094 15.078125 L 3.976562 15.105469 C 3.9375 15.128906 3.914062 15.136719 3.914062 15.136719 L 3.851562 15.136719 Z M 3.847656 15.105469 " fill-opacity="1" fill-rule="nonzero"/></g><g clip-path="url(#8837d5b03b)"><path fill="#014d4e" d="M 6.285156 21.386719 L 6.402344 21.417969 L 6.484375 21.425781 L 6.566406 21.386719 L 6.660156 21.355469 L 6.785156 21.34375 L 6.867188 21.3125 L 6.921875 21.300781 L 7.003906 21.25 L 7.058594 21.226562 L 7.097656 21.207031 L 7.140625 21.183594 L 7.160156 21.140625 L 7.226562 21.035156 L 7.296875 20.972656 L 7.339844 20.941406 C 7.339844 20.941406 7.296875 20.953125 7.378906 20.953125 C 7.464844 20.953125 7.515625 20.953125 7.515625 20.953125 L 7.589844 20.914062 L 7.652344 20.871094 L 7.703125 20.839844 L 7.757812 20.800781 L 7.839844 20.789062 L 7.890625 20.828125 C 7.890625 20.828125 7.890625 20.859375 7.945312 20.859375 C 7.996094 20.859375 8.027344 20.835938 8.027344 20.835938 L 8.089844 20.816406 L 8.203125 20.847656 L 8.246094 20.855469 L 8.300781 20.816406 L 8.402344 20.792969 L 8.46875 20.722656 L 8.507812 20.691406 L 8.574219 20.667969 L 8.625 20.648438 L 8.636719 20.605469 L 8.636719 20.535156 L 8.679688 20.492188 L 8.730469 20.421875 L 8.753906 20.367188 L 8.765625 20.296875 L 8.773438 20.230469 L 8.796875 20.167969 L 8.839844 20.125 L 8.878906 20.097656 L 8.933594 20.117188 L 8.972656 20.035156 L 9.015625 20.023438 L 9.066406 19.929688 L 9.097656 19.867188 L 9.191406 19.867188 L 9.246094 19.855469 L 9.257812 19.792969 L 9.390625 19.710938 L 9.515625 19.59375 L 9.597656 19.492188 L 9.652344 19.417969 L 9.703125 19.355469 L 9.769531 19.292969 L 9.839844 19.28125 L 9.894531 19.28125 L 9.902344 19.238281 L 9.945312 19.175781 L 9.988281 19.152344 L 10.050781 19.039062 L 10.121094 18.957031 L 10.164062 18.902344 L 10.152344 18.632812 L 10.246094 18.582031 L 10.261719 18.523438 L 10.285156 18.496094 L 10.324219 18.460938 L 10.375 18.410156 L 10.394531 18.386719 L 10.410156 18.363281 L 10.414062 18.308594 L 10.390625 18.273438 L 10.355469 18.222656 C 10.355469 18.222656 10.332031 18.191406 10.316406 18.179688 C 10.300781 18.164062 10.28125 18.152344 10.28125 18.152344 L 10.265625 18.109375 L 10.273438 17.746094 L 10.296875 17.671875 L 10.304688 17.632812 L 10.292969 17.601562 L 10.300781 17.242188 L 10.339844 17.203125 L 10.339844 17.1875 L 10.308594 17.121094 L 10.273438 17.101562 L 10.28125 17.027344 L 10.285156 16.984375 L 10.234375 16.929688 L 10.207031 16.886719 L 10.207031 16.847656 C 10.207031 16.847656 10.207031 16.847656 10.207031 16.835938 C 10.210938 16.820312 10.183594 16.785156 10.183594 16.785156 L 10.117188 16.753906 L 10.054688 16.714844 L 10.035156 16.683594 L 10.007812 16.648438 L 10.027344 16.378906 L 10.0625 16.335938 L 10.09375 16.308594 L 10.148438 16.28125 L 10.175781 16.265625 L 10.214844 16.238281 L 10.234375 16.21875 L 10.257812 16.210938 L 10.285156 16.207031 L 10.273438 16.121094 L 10.246094 16.066406 C 10.246094 16.066406 10.203125 16.03125 10.195312 16.019531 C 10.191406 16.007812 10.179688 16.003906 10.179688 16.003906 L 10.113281 16.011719 C 10.113281 16.011719 10.097656 16.015625 10.085938 16.011719 C 10.074219 16.011719 10.054688 16 10.054688 16 L 10.03125 15.972656 L 10.007812 15.953125 C 10.007812 15.953125 9.984375 15.964844 9.972656 15.953125 C 9.960938 15.945312 9.933594 15.945312 9.933594 15.945312 L 9.910156 15.933594 L 9.882812 15.882812 L 9.875 15.851562 L 9.84375 15.8125 L 9.820312 15.789062 L 9.796875 15.773438 L 9.777344 15.761719 L 9.792969 15.726562 L 9.816406 15.699219 L 9.828125 15.671875 L 9.832031 15.636719 L 9.832031 15.574219 L 9.84375 15.574219 L 9.863281 15.5625 L 9.878906 15.546875 L 9.894531 15.535156 L 9.882812 15.515625 L 9.859375 15.5 L 9.832031 15.460938 L 9.804688 15.433594 L 9.75 15.441406 C 9.75 15.441406 9.742188 15.441406 9.726562 15.433594 C 9.710938 15.425781 9.695312 15.417969 9.695312 15.417969 L 9.679688 15.410156 L 9.683594 15.242188 L 9.65625 15.21875 L 9.609375 15.175781 C 9.609375 15.175781 9.585938 15.152344 9.585938 15.144531 C 9.585938 15.136719 9.59375 15.011719 9.59375 15.011719 L 9.644531 14.96875 L 9.667969 14.9375 L 9.695312 14.910156 L 9.726562 14.902344 L 9.75 14.890625 L 9.765625 14.878906 L 9.75 14.835938 C 9.75 14.835938 9.746094 14.835938 9.742188 14.824219 C 9.734375 14.808594 9.730469 14.796875 9.730469 14.796875 L 9.726562 14.757812 L 9.699219 14.707031 L 9.683594 14.695312 L 9.609375 14.691406 L 9.582031 14.683594 C 9.582031 14.683594 9.554688 14.683594 9.550781 14.671875 C 9.550781 14.660156 9.542969 14.605469 9.542969 14.605469 C 9.542969 14.605469 9.523438 14.589844 9.527344 14.574219 C 9.53125 14.558594 9.511719 14.492188 9.511719 14.492188 L 9.484375 14.441406 L 9.460938 14.417969 L 9.449219 14.375 L 9.460938 14.351562 L 9.46875 14.320312 L 9.460938 14.277344 L 9.472656 14.203125 L 9.550781 14.117188 L 9.617188 14.046875 L 9.65625 14.019531 C 9.65625 14.019531 9.671875 13.992188 9.664062 13.980469 C 9.652344 13.96875 9.597656 13.914062 9.597656 13.914062 L 9.535156 13.851562 L 9.527344 13.765625 L 9.578125 13.714844 L 9.578125 13.664062 L 9.558594 13.636719 L 9.503906 13.582031 L 9.496094 13.546875 L 9.496094 13.515625 L 9.566406 13.382812 L 9.605469 13.253906 L 9.640625 13.1875 L 9.664062 13.117188 L 9.679688 13.089844 L 9.691406 13.0625 L 9.714844 13.042969 L 9.730469 13.011719 L 9.78125 13.0625 L 9.808594 13.09375 L 9.832031 13.109375 L 9.863281 13.125 L 9.875 13.125 L 9.890625 13.121094 L 9.902344 13.109375 L 9.925781 13.082031 L 9.960938 13.074219 L 10.027344 13.074219 L 10.082031 13.078125 L 10.09375 13.089844 L 10.105469 13.132812 C 10.105469 13.132812 10.101562 13.144531 10.128906 13.160156 C 10.160156 13.175781 10.195312 13.199219 10.195312 13.199219 C 10.195312 13.199219 10.207031 13.214844 10.222656 13.210938 C 10.238281 13.203125 10.238281 13.203125 10.238281 13.203125 L 10.222656 13.179688 L 10.199219 13.15625 L 10.214844 13.132812 L 10.242188 13.109375 L 10.269531 13.089844 L 10.304688 13.121094 L 10.367188 13.144531 L 10.46875 13.164062 L 10.480469 13.214844 C 10.480469 13.214844 10.472656 13.242188 10.472656 13.265625 C 10.472656 13.289062 10.460938 13.328125 10.460938 13.328125 L 10.480469 13.371094 L 10.539062 13.414062 L 10.578125 13.425781 L 10.621094 13.441406 L 10.65625 13.449219 L 10.683594 13.421875 L 10.710938 13.351562 L 10.734375 13.308594 L 10.796875 13.253906 L 10.832031 13.214844 C 10.832031 13.214844 10.886719 13.226562 10.855469 13.183594 C 10.820312 13.144531 10.777344 13.144531 10.777344 13.144531 L 10.652344 13.179688 L 10.625 13.195312 L 10.613281 13.125 L 10.589844 13.089844 L 10.589844 12.984375 L 10.613281 12.941406 L 10.585938 12.835938 L 10.542969 12.769531 L 10.507812 12.683594 L 10.484375 12.644531 L 10.5625 12.59375 L 10.574219 12.558594 L 10.589844 12.519531 L 10.597656 12.453125 L 10.585938 12.355469 C 10.585938 12.355469 10.59375 12.285156 10.597656 12.265625 C 10.605469 12.242188 10.605469 12.179688 10.605469 12.179688 L 10.578125 12.085938 L 10.566406 12.007812 L 10.542969 11.921875 L 10.550781 11.875 C 10.507812 11.851562 10.445312 11.902344 10.445312 11.902344 L 10.441406 11.921875 L 10.421875 11.957031 L 10.398438 12 L 10.378906 11.9375 C 10.378906 11.9375 10.394531 11.921875 10.359375 11.917969 C 10.320312 11.914062 10.296875 11.914062 10.296875 11.914062 L 10.273438 11.894531 L 10.28125 11.867188 L 10.292969 11.808594 L 10.320312 11.800781 L 10.359375 11.808594 L 10.386719 11.816406 L 10.414062 11.835938 L 10.433594 11.835938 L 10.453125 11.839844 L 10.484375 11.820312 L 10.503906 11.800781 L 10.476562 11.777344 C 10.476562 11.777344 10.476562 11.761719 10.457031 11.730469 C 10.4375 11.695312 10.410156 11.6875 10.410156 11.6875 L 10.367188 11.65625 C 10.367188 11.65625 10.363281 11.632812 10.347656 11.628906 C 10.335938 11.621094 10.347656 11.558594 10.316406 11.621094 C 10.28125 11.6875 10.28125 11.6875 10.28125 11.6875 L 10.269531 11.707031 L 10.246094 11.703125 L 10.226562 11.667969 L 10.195312 11.621094 L 10.175781 11.613281 L 10.128906 11.675781 L 10.09375 11.679688 L 10.074219 11.695312 L 9.996094 11.734375 C 9.996094 11.734375 9.976562 11.753906 9.960938 11.75 C 9.949219 11.742188 9.878906 11.742188 9.878906 11.742188 L 9.875 11.6875 L 9.859375 11.652344 L 9.796875 11.671875 L 9.765625 11.691406 L 9.730469 11.738281 L 9.71875 11.761719 L 9.75 11.773438 C 9.75 11.773438 9.789062 11.769531 9.785156 11.796875 C 9.78125 11.824219 9.777344 11.824219 9.777344 11.824219 L 9.742188 11.855469 L 9.714844 11.90625 L 9.683594 11.941406 L 9.644531 11.960938 L 9.589844 12.105469 L 9.539062 12.121094 L 9.488281 12.15625 L 9.378906 12.191406 L 9.328125 12.128906 L 9.246094 12.074219 L 9.246094 12.078125 L 9.273438 12.007812 L 9.28125 11.980469 L 9.253906 11.941406 L 9.199219 11.886719 L 9.171875 11.886719 L 9.09375 12.003906 L 9.066406 12.066406 L 8.988281 12.105469 L 8.972656 12.160156 L 8.953125 12.1875 L 8.886719 12.199219 L 8.832031 12.179688 L 8.769531 12.164062 L 8.785156 12.101562 C 8.785156 12.101562 8.804688 12.109375 8.820312 12.050781 C 8.832031 11.996094 8.832031 11.996094 8.832031 11.996094 L 8.832031 11.945312 L 8.8125 11.867188 L 8.726562 11.90625 L 8.671875 11.925781 L 8.632812 11.933594 L 8.542969 11.964844 L 8.453125 11.964844 L 8.457031 11.820312 L 8.511719 11.761719 L 8.546875 11.734375 L 8.578125 11.722656 L 8.601562 11.6875 L 8.640625 11.65625 L 8.640625 11.625 L 8.632812 11.601562 L 8.613281 11.570312 L 8.574219 11.53125 L 8.605469 11.511719 L 8.640625 11.515625 L 8.679688 11.542969 L 8.699219 11.589844 L 8.707031 11.621094 L 8.722656 11.640625 L 8.753906 11.648438 L 8.785156 11.640625 L 8.8125 11.621094 L 8.839844 11.605469 L 8.859375 11.582031 L 8.878906 11.574219 L 8.886719 11.507812 L 8.878906 11.464844 C 8.878906 11.464844 8.886719 11.449219 8.910156 11.414062 C 8.933594 11.378906 8.933594 11.378906 8.933594 11.378906 L 8.953125 11.359375 L 8.996094 11.378906 L 9.015625 11.375 L 9.050781 11.363281 L 9.082031 11.34375 L 9.109375 11.324219 L 9.136719 11.300781 L 9.15625 11.273438 L 9.164062 11.238281 L 9.152344 11.203125 L 9.121094 11.171875 L 9.085938 11.144531 C 9.085938 11.144531 9.03125 11.148438 9.011719 11.144531 C 8.992188 11.136719 8.945312 11.152344 8.945312 11.152344 L 8.917969 11.164062 L 8.882812 11.183594 L 8.839844 11.199219 L 8.789062 11.25 C 8.78125 11.296875 8.769531 11.320312 8.769531 11.320312 L 8.769531 11.355469 L 8.75 11.371094 L 8.71875 11.394531 L 8.683594 11.394531 L 8.640625 11.355469 L 8.609375 11.328125 L 8.582031 11.308594 C 8.582031 11.308594 8.574219 11.273438 8.539062 11.3125 C 8.503906 11.347656 8.503906 11.347656 8.503906 11.347656 L 8.441406 11.339844 L 8.378906 11.285156 L 8.332031 11.261719 L 8.28125 11.242188 L 8.277344 11.109375 L 8.203125 11.085938 L 8.136719 11.078125 C 8.136719 11.078125 8.109375 11.070312 8.097656 11.089844 C 8.082031 11.109375 8.070312 11.128906 8.070312 11.128906 L 8.046875 11.152344 L 8.015625 11.175781 L 7.949219 11.175781 L 7.949219 11.109375 L 7.992188 11.089844 L 8.015625 11.089844 L 8.035156 11.066406 L 7.980469 11.011719 L 7.96875 10.964844 L 8.023438 10.894531 L 8.050781 10.851562 L 8.050781 10.8125 L 8.015625 10.789062 L 7.984375 10.789062 L 7.910156 10.824219 L 7.894531 10.84375 L 7.863281 10.863281 L 7.835938 10.871094 L 7.546875 10.855469 L 7.417969 10.765625 L 7.355469 10.726562 L 7.265625 10.734375 C 7.265625 10.734375 7.292969 10.710938 7.242188 10.746094 C 7.191406 10.785156 7.171875 10.796875 7.171875 10.796875 L 7.097656 10.84375 L 7.078125 10.867188 L 7.054688 10.875 L 7.03125 10.847656 L 7 10.800781 L 6.972656 10.765625 L 6.90625 10.660156 L 6.902344 10.605469 L 6.796875 10.597656 L 6.773438 10.609375 L 6.742188 10.617188 L 6.714844 10.585938 L 6.707031 10.523438 L 6.746094 10.515625 L 6.777344 10.492188 L 6.804688 10.464844 L 6.761719 10.398438 L 6.714844 10.390625 L 6.554688 10.332031 C 6.554688 10.332031 6.507812 10.300781 6.496094 10.300781 C 6.480469 10.300781 6.414062 10.28125 6.414062 10.28125 L 6.351562 10.261719 L 6.316406 10.242188 L 6.230469 10.242188 L 6.179688 10.226562 L 6.074219 10.222656 L 6.0625 10.1875 L 5.996094 10.148438 L 5.964844 10.113281 L 5.945312 10.078125 L 5.949219 10.042969 L 5.957031 10.007812 L 5.9375 9.980469 L 5.882812 9.9375 L 5.847656 9.921875 L 5.804688 9.902344 L 5.804688 9.851562 L 5.8125 9.820312 L 5.789062 9.796875 C 5.789062 9.796875 5.75 9.789062 5.738281 9.777344 C 5.730469 9.761719 5.71875 9.742188 5.71875 9.742188 L 5.710938 9.671875 L 5.703125 9.644531 L 5.632812 9.644531 L 5.585938 9.648438 L 5.585938 9.671875 L 5.460938 9.671875 C 5.460938 9.671875 5.445312 9.644531 5.425781 9.628906 C 5.40625 9.617188 5.386719 9.589844 5.386719 9.589844 L 5.3125 9.582031 L 5.273438 9.535156 L 5.246094 9.515625 L 5.21875 9.503906 L 5.175781 9.511719 L 5.140625 9.546875 C 5.136719 9.582031 5.136719 9.628906 5.136719 9.628906 L 5.128906 9.652344 L 5.046875 9.703125 L 5.019531 9.710938 L 4.878906 9.703125 L 4.839844 9.683594 L 4.742188 9.6875 C 4.742188 9.6875 4.691406 9.6875 4.675781 9.703125 C 4.664062 9.714844 4.574219 9.753906 4.574219 9.753906 L 4.542969 9.773438 L 4.46875 9.824219 L 4.421875 9.847656 L 4.40625 9.867188 L 4.230469 9.855469 L 4.242188 10.007812 L 4.261719 10.019531 L 4.261719 10.066406 L 4.234375 10.09375 L 4.222656 10.121094 L 4.183594 10.140625 L 4.128906 10.160156 L 4.082031 10.179688 L 4.027344 10.207031 L 3.992188 10.242188 L 3.976562 10.261719 L 3.941406 10.289062 L 3.941406 10.378906 L 3.960938 10.382812 L 3.984375 10.410156 L 4.011719 10.453125 L 4.03125 10.460938 L 4.007812 10.585938 L 3.976562 10.640625 L 3.957031 10.648438 L 3.90625 10.679688 L 3.851562 10.714844 L 3.757812 10.75 C 3.757812 10.75 3.75 10.730469 3.699219 10.769531 C 3.648438 10.8125 3.628906 10.820312 3.628906 10.820312 L 3.625 10.875 L 3.589844 10.902344 L 3.589844 10.921875 L 3.617188 10.96875 L 3.660156 10.996094 C 3.660156 10.996094 3.640625 10.992188 3.679688 11.011719 C 3.722656 11.03125 3.722656 11.03125 3.722656 11.03125 L 3.800781 11.058594 L 3.871094 11.085938 L 3.796875 11.09375 L 3.753906 11.117188 L 3.699219 11.15625 L 3.640625 11.167969 L 3.625 11.203125 L 3.578125 11.242188 L 3.585938 11.386719 L 3.5625 11.421875 L 3.5625 11.472656 L 3.546875 11.582031 L 3.582031 11.617188 L 3.578125 11.644531 L 3.558594 11.675781 C 3.542969 11.707031 3.519531 11.726562 3.519531 11.726562 C 3.519531 11.726562 3.519531 11.746094 3.527344 11.761719 C 3.53125 11.773438 3.519531 11.769531 3.527344 11.792969 C 3.53125 11.816406 3.53125 11.835938 3.53125 11.835938 L 3.546875 11.855469 L 3.558594 11.902344 L 3.558594 11.933594 L 3.539062 11.957031 L 3.496094 11.996094 L 3.414062 12.066406 L 3.390625 12.105469 L 3.414062 12.226562 L 3.433594 12.316406 L 3.433594 12.4375 L 3.527344 12.652344 L 3.582031 12.761719 L 3.605469 12.882812 L 3.617188 12.945312 L 3.699219 13 L 3.742188 13.078125 L 3.769531 13.117188 L 3.851562 13.1875 L 3.929688 13.28125 L 3.996094 13.390625 L 4.03125 13.402344 L 4.007812 13.582031 L 4.050781 13.652344 L 4.097656 13.730469 L 4.128906 13.808594 L 4.097656 13.972656 C 4.097656 13.972656 4.050781 14.027344 4.050781 14.050781 C 4.050781 14.074219 4.050781 14.144531 4.050781 14.144531 L 4.027344 14.171875 L 4.027344 14.324219 L 4.0625 14.417969 L 4.105469 14.488281 L 4.113281 14.566406 L 4.105469 14.808594 L 4.082031 14.835938 L 4.074219 14.871094 L 4.109375 14.910156 L 4.179688 14.910156 L 4.214844 14.917969 C 4.214844 14.917969 4.214844 14.910156 4.25 14.945312 C 4.289062 14.980469 4.289062 14.980469 4.289062 14.980469 L 4.296875 15.085938 L 4.296875 15.140625 L 4.324219 15.203125 L 4.289062 15.476562 L 4.335938 15.546875 L 4.324219 15.699219 L 4.296875 15.738281 L 4.269531 15.789062 L 4.253906 15.839844 L 4.226562 15.859375 L 4.210938 15.910156 L 4.261719 15.9375 L 4.3125 15.972656 L 4.355469 16 L 4.394531 16.039062 L 4.460938 16.085938 L 4.46875 16.261719 L 4.371094 16.351562 C 4.371094 16.351562 4.382812 16.457031 4.382812 16.476562 C 4.382812 16.496094 4.375 16.546875 4.375 16.546875 L 4.367188 16.601562 L 4.339844 16.808594 C 4.339844 16.808594 4.375 16.789062 4.382812 16.808594 C 4.386719 16.832031 4.390625 16.875 4.390625 16.875 L 4.402344 16.957031 L 4.417969 17.035156 L 4.417969 17.101562 L 4.390625 17.125 L 4.417969 17.152344 L 4.453125 17.207031 L 4.429688 17.242188 L 4.421875 17.308594 L 4.402344 17.40625 L 4.457031 17.425781 C 4.457031 17.425781 4.457031 17.425781 4.484375 17.441406 C 4.511719 17.453125 4.511719 17.453125 4.511719 17.453125 L 4.519531 17.523438 L 4.570312 17.546875 L 4.542969 17.582031 L 4.527344 17.609375 L 4.5 17.632812 L 4.515625 17.8125 L 4.515625 17.945312 L 4.5 18 L 4.492188 18.050781 L 4.457031 18.214844 L 4.507812 18.320312 L 4.542969 18.371094 L 4.570312 18.425781 L 4.597656 18.453125 L 4.632812 18.5625 L 4.714844 18.640625 L 4.800781 18.710938 L 4.882812 18.773438 L 4.90625 18.800781 L 4.917969 18.882812 L 4.960938 18.933594 L 4.996094 18.957031 L 5.046875 18.984375 L 5.082031 18.996094 L 5.082031 19.164062 L 5.089844 19.3125 L 5.089844 19.554688 L 5.125 19.582031 L 5.285156 19.871094 L 5.371094 19.921875 L 5.4375 19.976562 L 5.507812 20.058594 L 5.558594 20.101562 L 5.59375 20.183594 L 5.648438 20.269531 L 5.691406 20.316406 L 5.738281 20.355469 L 5.777344 20.363281 L 5.875 20.363281 L 5.875 20.390625 L 5.929688 20.4375 C 5.929688 20.4375 5.945312 20.382812 5.996094 20.46875 C 6.042969 20.550781 6.023438 20.589844 6.023438 20.589844 L 6.0625 20.65625 L 6.140625 20.773438 L 6.148438 20.871094 L 6.164062 20.933594 L 6.199219 21 L 6.191406 21.109375 L 6.175781 21.144531 L 6.167969 21.214844 L 6.160156 21.269531 L 6.1875 21.292969 L 6.210938 21.328125 L 6.210938 21.363281 L 6.21875 21.445312 Z M 6.285156 21.386719 " fill-opacity="1" fill-rule="nonzero"/></g><g clip-path="url(#64160cc7af)"><path fill="#014d4e" d="M 11.800781 5.988281 L 11.863281 5.964844 L 11.925781 5.933594 L 12.050781 5.902344 L 12.101562 5.839844 L 12.167969 5.796875 L 12.28125 5.757812 L 12.351562 5.675781 L 12.394531 5.632812 L 12.445312 5.578125 L 12.476562 5.507812 L 12.507812 5.414062 C 12.507812 5.414062 12.484375 5.371094 12.519531 5.371094 C 12.550781 5.371094 12.582031 5.371094 12.582031 5.371094 L 12.605469 5.308594 L 12.605469 5.269531 L 12.625 5.230469 L 12.710938 5.21875 L 12.75 5.175781 L 12.8125 5.230469 L 12.851562 5.203125 L 12.859375 5.167969 L 12.882812 5.121094 L 12.910156 5.078125 L 12.929688 5.097656 L 12.929688 5.214844 L 12.878906 5.257812 L 12.835938 5.324219 L 12.886719 5.359375 L 12.921875 5.371094 L 12.964844 5.382812 L 12.972656 5.417969 L 12.949219 5.460938 L 12.949219 5.503906 L 12.992188 5.515625 L 13.011719 5.480469 L 13.078125 5.542969 L 13.117188 5.507812 L 13.160156 5.507812 L 13.183594 5.535156 L 13.230469 5.570312 L 13.269531 5.5625 L 13.304688 5.542969 L 13.34375 5.53125 L 13.394531 5.496094 L 13.429688 5.488281 L 13.496094 5.515625 L 13.523438 5.542969 L 13.53125 5.789062 L 13.628906 5.796875 L 13.667969 5.84375 L 13.710938 5.882812 L 13.761719 5.902344 L 13.796875 6 L 13.847656 6.015625 L 13.875 6.035156 L 13.902344 6.058594 L 13.941406 6.140625 L 13.980469 6.164062 L 14.015625 6.175781 L 14.015625 6.234375 L 14.070312 6.234375 C 14.070312 6.234375 14.078125 6.222656 14.097656 6.253906 C 14.117188 6.285156 14.121094 6.28125 14.121094 6.28125 L 14.128906 6.253906 L 14.179688 6.261719 C 14.207031 6.320312 14.242188 6.332031 14.242188 6.332031 L 14.277344 6.339844 L 14.300781 6.367188 L 14.351562 6.394531 L 14.398438 6.421875 C 14.425781 6.488281 14.441406 6.527344 14.441406 6.527344 L 14.441406 6.554688 L 14.417969 6.660156 L 14.484375 6.671875 L 14.472656 6.746094 C 14.472656 6.746094 14.484375 6.761719 14.488281 6.785156 C 14.496094 6.804688 14.496094 6.859375 14.496094 6.859375 L 14.511719 6.9375 L 14.550781 6.960938 L 14.558594 7.003906 L 14.523438 7.042969 L 14.523438 7.078125 L 14.632812 7.09375 L 14.632812 7.175781 L 14.691406 7.257812 L 14.691406 7.34375 L 14.703125 7.371094 L 14.695312 7.476562 L 14.746094 7.503906 L 14.753906 7.710938 L 14.765625 7.800781 L 14.730469 7.878906 L 14.71875 7.90625 L 14.664062 7.949219 L 14.691406 8.003906 L 14.691406 8.09375 C 14.691406 8.09375 14.703125 8.109375 14.691406 8.128906 C 14.675781 8.152344 14.664062 8.171875 14.664062 8.171875 L 14.648438 8.199219 L 14.621094 8.214844 L 14.570312 8.234375 C 14.570312 8.234375 14.5625 8.292969 14.578125 8.328125 C 14.59375 8.363281 14.617188 8.367188 14.617188 8.367188 L 14.617188 8.425781 C 14.617188 8.425781 14.578125 8.410156 14.578125 8.460938 C 14.578125 8.511719 14.578125 8.511719 14.578125 8.511719 L 14.566406 8.59375 L 14.59375 8.648438 L 14.617188 8.675781 L 14.566406 8.71875 L 14.566406 8.835938 L 14.578125 8.871094 L 14.644531 8.949219 L 14.65625 8.984375 L 14.65625 9.027344 L 14.648438 9.117188 L 14.664062 9.183594 L 14.703125 9.222656 L 14.8125 9.402344 L 14.890625 9.4375 L 14.914062 9.480469 L 14.929688 9.535156 L 14.929688 9.621094 L 14.96875 9.640625 L 15.011719 9.648438 L 15.03125 9.6875 L 15.109375 9.835938 L 15.175781 9.878906 L 15.210938 9.929688 L 15.238281 10 L 15.265625 10.054688 L 15.308594 10.089844 L 15.355469 10.140625 L 15.410156 10.167969 L 15.449219 10.167969 L 15.488281 10.179688 L 15.527344 10.195312 L 15.574219 10.195312 L 15.589844 10.222656 L 15.605469 10.265625 L 15.6875 10.242188 L 15.753906 10.269531 L 15.78125 10.277344 L 15.804688 10.304688 C 15.804688 10.304688 15.792969 10.3125 15.769531 10.328125 C 15.746094 10.339844 15.726562 10.339844 15.726562 10.339844 L 15.699219 10.355469 L 15.714844 10.382812 L 15.753906 10.417969 L 15.78125 10.40625 L 15.820312 10.378906 L 15.855469 10.355469 L 15.875 10.328125 L 15.925781 10.304688 L 15.953125 10.3125 L 15.960938 10.339844 L 15.984375 10.359375 C 15.984375 10.359375 16 10.363281 16.019531 10.359375 C 16.039062 10.359375 16.085938 10.351562 16.085938 10.351562 C 16.085938 10.351562 16.113281 10.34375 16.125 10.339844 C 16.136719 10.332031 16.171875 10.308594 16.171875 10.308594 L 16.199219 10.277344 L 16.230469 10.320312 L 16.269531 10.359375 L 16.292969 10.367188 L 16.402344 10.378906 L 16.707031 10.378906 C 16.707031 10.378906 16.675781 10.382812 16.75 10.398438 C 16.820312 10.410156 16.839844 10.410156 16.839844 10.410156 L 16.875 10.425781 L 16.902344 10.449219 L 16.9375 10.453125 L 16.980469 10.472656 L 17.113281 10.472656 L 17.214844 10.484375 L 17.257812 10.496094 L 17.300781 10.527344 L 17.3125 10.539062 L 17.328125 10.558594 L 17.339844 10.574219 L 17.382812 10.582031 L 17.402344 10.574219 L 17.457031 10.578125 L 17.472656 10.566406 L 17.535156 10.542969 L 17.566406 10.539062 L 17.566406 10.59375 L 17.5625 10.617188 L 17.585938 10.652344 L 17.601562 10.671875 L 17.640625 10.664062 L 17.675781 10.664062 L 17.695312 10.691406 L 17.726562 10.691406 L 17.75 10.695312 L 17.773438 10.71875 L 17.851562 10.722656 L 17.949219 10.726562 L 17.964844 10.753906 L 18.003906 10.777344 L 18.039062 10.847656 L 18.09375 10.824219 L 18.117188 10.839844 L 18.214844 10.910156 L 18.203125 10.945312 L 18.257812 10.949219 L 18.292969 10.964844 L 18.304688 10.984375 L 18.378906 11.007812 L 18.402344 11.019531 L 18.429688 11.046875 L 18.457031 11.078125 L 18.457031 11.105469 L 18.429688 11.121094 L 18.425781 11.171875 L 18.496094 11.175781 L 18.59375 11.175781 L 18.660156 11.242188 L 18.683594 11.273438 L 18.695312 11.316406 L 18.707031 11.367188 L 18.722656 11.390625 L 18.734375 11.433594 L 18.738281 11.464844 L 18.757812 11.480469 L 18.816406 11.589844 L 18.875 11.667969 L 18.917969 11.734375 C 18.917969 11.734375 18.941406 11.765625 18.941406 11.777344 C 18.945312 11.789062 18.96875 11.828125 18.96875 11.828125 L 18.976562 11.851562 L 18.988281 11.890625 L 18.988281 11.929688 L 18.976562 11.957031 L 19.023438 11.964844 C 19.023438 11.964844 19.039062 11.988281 19.039062 12 C 19.039062 12.015625 19.039062 12.027344 19.039062 12.027344 L 19.089844 12.054688 L 19.128906 12.109375 L 19.242188 12.1875 L 19.339844 12.246094 L 19.480469 12.3125 L 19.601562 12.339844 L 19.648438 12.351562 C 19.648438 12.351562 19.644531 12.371094 19.660156 12.371094 C 19.679688 12.371094 19.746094 12.386719 19.746094 12.386719 L 19.761719 12.40625 L 19.898438 12.53125 L 19.925781 12.53125 L 19.992188 12.5625 L 20.015625 12.5625 L 20.074219 12.589844 L 20.089844 12.601562 C 20.089844 12.601562 20.105469 12.601562 20.121094 12.609375 C 20.132812 12.617188 20.160156 12.621094 20.160156 12.621094 L 20.171875 12.644531 L 20.28125 12.644531 L 20.296875 12.617188 L 20.316406 12.566406 L 20.3125 12.542969 L 20.339844 12.566406 L 20.363281 12.601562 L 20.382812 12.617188 L 20.417969 12.644531 L 20.46875 12.671875 L 20.53125 12.644531 L 20.582031 12.609375 L 20.617188 12.636719 C 20.617188 12.636719 20.65625 12.644531 20.695312 12.679688 C 20.738281 12.710938 20.75 12.734375 20.75 12.734375 L 20.835938 12.785156 L 20.855469 12.820312 L 20.894531 12.835938 L 20.929688 12.820312 L 20.957031 12.804688 L 20.96875 12.863281 L 20.96875 12.898438 L 21.101562 12.898438 L 21.035156 12.925781 C 21.035156 12.925781 21.027344 12.953125 21.011719 12.976562 C 20.996094 12.996094 20.996094 13.003906 20.976562 13.015625 C 20.953125 13.03125 20.953125 13.03125 20.953125 13.03125 L 20.882812 12.953125 L 20.808594 12.9375 L 20.777344 12.917969 L 20.53125 12.777344 L 20.238281 12.777344 L 20.074219 12.765625 L 20.023438 12.765625 L 19.953125 12.757812 L 19.863281 12.75 L 19.738281 12.71875 L 19.621094 12.699219 L 19.507812 12.664062 C 19.507812 12.664062 19.496094 12.671875 19.402344 12.675781 C 19.3125 12.683594 19.285156 12.675781 19.285156 12.675781 L 19.140625 12.664062 L 19.007812 12.648438 L 18.859375 12.605469 L 18.609375 12.617188 L 18.558594 12.644531 L 18.484375 12.691406 L 18.414062 12.71875 L 18.304688 12.734375 L 18.199219 12.742188 L 18.144531 12.757812 C 18.144531 12.757812 18.085938 12.765625 18.050781 12.757812 C 18.015625 12.75 18.015625 12.75 18.015625 12.75 L 17.9375 12.804688 L 17.839844 12.867188 L 17.785156 12.945312 L 17.722656 12.96875 L 17.597656 12.980469 L 17.390625 12.980469 L 17.339844 12.96875 L 17.148438 12.980469 L 17.070312 13.015625 L 17.042969 13.042969 L 17 13.042969 C 17 13.042969 16.9375 13.042969 16.917969 13.042969 C 16.898438 13.042969 16.765625 12.949219 16.765625 12.949219 L 16.765625 13.042969 L 16.714844 13.050781 L 16.6875 13.03125 L 16.625 13.023438 L 16.570312 13.023438 L 16.449219 13.015625 L 16.351562 13.015625 L 16.332031 13.054688 L 16.304688 13.078125 L 16.273438 13.078125 L 16.210938 13.085938 L 16.050781 13.195312 L 15.980469 13.203125 L 15.863281 13.226562 L 15.738281 13.21875 L 15.640625 13.230469 C 15.640625 13.230469 15.632812 13.242188 15.574219 13.269531 C 15.507812 13.296875 15.480469 13.308594 15.480469 13.308594 L 15.453125 13.332031 L 15.417969 13.414062 L 15.382812 13.441406 L 15.316406 13.480469 L 15.289062 13.519531 L 15.269531 13.546875 L 15.230469 13.613281 L 15.15625 13.597656 L 15.0625 13.570312 L 15.027344 13.5625 L 14.976562 13.546875 L 14.929688 13.554688 L 14.859375 13.578125 L 14.832031 13.621094 L 14.824219 13.714844 L 14.796875 13.753906 L 14.71875 13.710938 L 14.683594 13.683594 L 14.632812 13.683594 L 14.589844 13.695312 L 14.59375 13.726562 L 14.550781 13.726562 L 14.5 13.734375 C 14.5 13.734375 14.511719 13.734375 14.492188 13.761719 C 14.472656 13.792969 14.453125 13.800781 14.453125 13.800781 L 14.433594 13.835938 L 14.425781 13.847656 L 14.398438 13.859375 L 14.390625 13.867188 L 14.332031 13.878906 L 14.304688 13.890625 L 14.253906 13.894531 L 14.234375 13.910156 L 14.214844 13.914062 L 14.1875 13.933594 L 14.128906 13.933594 L 14.105469 13.9375 L 14.089844 13.953125 L 14.03125 14.003906 L 14 13.972656 L 13.988281 13.980469 L 13.960938 14.011719 L 13.925781 14.011719 L 13.917969 13.984375 L 13.894531 13.949219 L 13.855469 13.9375 C 13.855469 13.9375 13.84375 13.933594 13.832031 13.933594 C 13.824219 13.933594 13.800781 13.933594 13.800781 13.933594 L 13.789062 13.960938 L 13.675781 13.957031 L 13.636719 13.980469 L 13.589844 13.988281 C 13.589844 13.988281 13.5625 14.011719 13.546875 14.011719 C 13.535156 14.007812 13.507812 14.011719 13.507812 14.011719 C 13.507812 14.011719 13.484375 14.050781 13.472656 14.074219 C 13.464844 14.09375 13.464844 14.09375 13.464844 14.09375 C 13.464844 14.09375 13.429688 14.132812 13.425781 14.136719 C 13.417969 14.144531 13.363281 14.171875 13.363281 14.171875 L 13.351562 14.183594 L 13.328125 14.191406 L 13.324219 14.210938 L 13.242188 14.207031 L 13.132812 14.210938 L 13.089844 14.199219 L 13.101562 14.125 L 13.089844 14.148438 L 13.058594 14.144531 L 13.042969 14.144531 L 13.003906 14.191406 C 13.003906 14.191406 12.992188 14.226562 12.984375 14.226562 C 12.976562 14.234375 12.941406 14.25 12.941406 14.25 L 12.921875 14.273438 L 12.871094 14.242188 L 12.851562 14.222656 L 12.8125 14.199219 L 12.773438 14.195312 L 12.71875 14.1875 L 12.632812 14.125 L 12.585938 14.101562 L 12.566406 14.09375 L 12.496094 14.074219 L 12.378906 14.09375 L 12.328125 14.0625 L 12.253906 14.015625 L 12.210938 14.015625 L 11.921875 14.011719 L 11.902344 13.988281 L 11.828125 13.988281 C 11.828125 13.988281 11.746094 13.992188 11.734375 13.980469 C 11.71875 13.972656 11.71875 13.972656 11.71875 13.972656 L 11.683594 13.925781 L 11.691406 13.863281 L 11.710938 13.835938 L 11.722656 13.765625 L 11.71875 13.734375 L 11.683594 13.726562 L 11.65625 13.710938 L 11.613281 13.703125 L 11.609375 13.734375 L 11.421875 13.726562 L 11.394531 13.746094 L 11.363281 13.773438 L 11.351562 13.792969 L 11.304688 13.800781 L 11.210938 13.71875 L 11.132812 13.699219 L 11.011719 13.671875 L 10.984375 13.628906 L 10.984375 13.601562 L 11.003906 13.5625 L 11.019531 13.554688 L 11.054688 13.5625 L 11.074219 13.570312 L 11.125 13.578125 L 11.15625 13.578125 L 11.179688 13.554688 L 11.1875 13.523438 L 11.171875 13.503906 L 11.136719 13.488281 L 11.097656 13.46875 L 11.070312 13.449219 L 11.046875 13.414062 L 11.027344 13.394531 L 11.027344 13.371094 C 11.027344 13.371094 11.027344 13.355469 11.019531 13.335938 C 11.011719 13.3125 11.003906 13.292969 11.003906 13.292969 L 10.976562 13.273438 L 10.976562 13.242188 L 10.992188 13.21875 L 10.996094 13.183594 L 10.96875 13.179688 L 10.90625 13.195312 L 10.835938 13.109375 L 10.785156 13.050781 L 10.78125 12.964844 L 10.78125 12.910156 L 10.71875 12.828125 C 10.71875 12.828125 10.671875 12.796875 10.65625 12.777344 C 10.640625 12.757812 10.613281 12.71875 10.613281 12.71875 L 10.609375 12.652344 L 10.628906 12.597656 L 10.648438 12.550781 C 10.648438 12.550781 10.601562 12.460938 10.613281 12.453125 C 10.628906 12.445312 10.621094 12.292969 10.621094 12.292969 L 10.636719 12.222656 C 10.636719 12.222656 10.605469 12.035156 10.609375 12.019531 C 10.613281 12.007812 10.59375 11.9375 10.59375 11.9375 L 10.601562 11.910156 L 10.609375 11.875 C 10.609375 11.875 10.59375 11.828125 10.574219 11.808594 C 10.550781 11.789062 10.539062 11.773438 10.539062 11.773438 C 10.539062 11.773438 10.539062 11.769531 10.5 11.742188 C 10.464844 11.714844 10.425781 11.6875 10.425781 11.6875 L 10.386719 11.648438 L 10.40625 11.621094 L 10.441406 11.609375 L 10.492188 11.589844 L 10.519531 11.609375 L 10.546875 11.601562 L 10.558594 11.578125 L 10.578125 11.542969 L 10.59375 11.523438 L 10.613281 11.488281 L 10.683594 11.484375 L 10.703125 11.484375 L 10.707031 11.410156 L 10.699219 11.375 L 10.664062 11.328125 C 10.664062 11.328125 10.652344 11.316406 10.652344 11.296875 C 10.652344 11.277344 10.660156 11.265625 10.660156 11.265625 L 10.664062 11.246094 L 10.664062 11.175781 L 10.6875 11.15625 L 10.707031 11.148438 L 10.707031 11.230469 L 10.714844 11.253906 L 10.726562 11.273438 C 10.726562 11.273438 10.746094 11.277344 10.75 11.261719 C 10.753906 11.242188 10.769531 11.21875 10.769531 11.21875 L 10.792969 11.199219 L 10.820312 11.164062 L 10.859375 11.125 L 10.882812 11.097656 L 10.898438 11.074219 L 10.902344 11.027344 L 10.910156 10.984375 L 10.933594 10.949219 L 10.953125 10.875 L 10.976562 10.847656 L 10.984375 10.8125 L 10.945312 10.75 C 10.945312 10.75 10.945312 10.730469 10.953125 10.703125 C 10.957031 10.679688 10.960938 10.664062 10.960938 10.664062 L 10.996094 10.652344 L 10.996094 10.578125 L 11.003906 10.53125 L 11.011719 10.511719 L 11 10.464844 C 11 10.464844 10.992188 10.46875 10.976562 10.445312 L 10.964844 10.320312 L 11.058594 10.253906 L 11.097656 10.222656 C 11.097656 10.222656 11.125 10.1875 11.132812 10.167969 C 11.140625 10.148438 11.164062 10.117188 11.164062 10.117188 L 11.203125 10.082031 L 11.242188 10.035156 L 11.257812 10.011719 C 11.257812 10.011719 11.265625 10.011719 11.277344 9.988281 C 11.285156 9.96875 11.296875 9.941406 11.296875 9.941406 L 11.332031 9.976562 L 11.371094 10.019531 L 11.402344 10.03125 L 11.460938 10.039062 L 11.523438 10.046875 L 11.589844 10.046875 L 11.660156 10.050781 L 11.683594 10.054688 L 11.714844 10.070312 L 11.742188 10.023438 L 11.75 9.996094 L 11.769531 9.988281 L 11.792969 9.980469 L 11.8125 9.96875 L 11.832031 9.953125 L 11.8125 9.921875 L 11.800781 9.886719 L 11.792969 9.859375 L 11.816406 9.832031 L 11.835938 9.820312 L 11.867188 9.804688 L 11.976562 9.796875 L 12.035156 9.789062 L 12.070312 9.78125 L 12.101562 9.769531 L 12.113281 9.734375 L 12.09375 9.714844 L 12.046875 9.714844 L 11.96875 9.710938 L 11.941406 9.6875 L 11.988281 9.636719 L 12.007812 9.589844 L 12.007812 9.5625 L 12.050781 9.503906 L 12.015625 9.488281 L 11.96875 9.472656 L 11.90625 9.457031 L 11.878906 9.429688 L 11.878906 9.417969 L 11.953125 9.371094 L 12.007812 9.355469 L 12.023438 9.320312 L 12.050781 9.292969 C 12.050781 9.292969 12.042969 9.257812 12.03125 9.242188 C 12.023438 9.222656 12.011719 9.207031 12.011719 9.207031 L 12.035156 9.164062 L 12.042969 9.125 L 12.042969 9.0625 L 12.019531 9.015625 L 11.882812 8.871094 L 11.847656 8.789062 L 11.789062 8.746094 L 11.738281 8.734375 C 11.738281 8.734375 11.761719 8.757812 11.722656 8.808594 C 11.6875 8.859375 11.6875 8.859375 11.6875 8.859375 C 11.6875 8.859375 11.6875 8.859375 11.675781 8.832031 C 11.660156 8.804688 11.660156 8.804688 11.660156 8.804688 L 11.601562 8.738281 L 11.566406 8.707031 L 11.476562 8.652344 L 11.402344 8.632812 L 11.335938 8.597656 L 11.316406 8.585938 L 11.222656 8.5625 L 11.195312 8.515625 L 11.175781 8.4375 L 11.148438 8.40625 L 11.113281 8.378906 L 11.136719 8.246094 L 11.113281 8.179688 C 11.113281 8.179688 11.152344 8.175781 11.105469 8.117188 C 11.054688 8.054688 11.070312 8.074219 11.070312 8.074219 L 11.011719 7.980469 L 11.007812 7.902344 L 11.007812 7.683594 C 11.007812 7.683594 10.972656 7.640625 10.960938 7.621094 C 10.953125 7.601562 10.925781 7.585938 10.925781 7.585938 L 10.902344 7.539062 L 10.90625 7.363281 L 10.886719 7.34375 L 10.875 7.320312 L 10.828125 7.324219 L 10.78125 7.332031 L 10.785156 7.289062 L 10.820312 7.253906 L 10.871094 7.175781 L 10.90625 7.101562 L 10.914062 7.054688 L 10.941406 6.984375 L 10.945312 6.921875 L 10.945312 6.820312 C 10.945312 6.820312 11.039062 6.769531 11.050781 6.757812 C 11.066406 6.75 11.09375 6.710938 11.09375 6.710938 L 11.125 6.664062 L 11.144531 6.644531 L 11.203125 6.640625 L 11.230469 6.632812 L 11.242188 6.613281 L 11.261719 6.605469 L 11.28125 6.570312 L 11.300781 6.546875 L 11.316406 6.5 L 11.347656 6.453125 L 11.398438 6.40625 L 11.429688 6.386719 C 11.429688 6.386719 11.464844 6.390625 11.496094 6.355469 C 11.527344 6.324219 11.542969 6.320312 11.542969 6.320312 L 11.589844 6.316406 L 11.628906 6.308594 L 11.648438 6.300781 L 11.683594 6.269531 L 11.703125 6.242188 L 11.734375 6.207031 L 11.75 6.199219 L 11.765625 6.164062 L 11.765625 6.121094 L 11.792969 6.074219 L 11.789062 6.046875 L 11.78125 6.019531 L 11.777344 6 Z M 11.800781 5.988281 " fill-opacity="1" fill-rule="nonzero"/></g></svg>