<svg xmlns="http://www.w3.org/2000/svg" xmlns:xlink="http://www.w3.org/1999/xlink" width="40" zoomAndPan="magnify" viewBox="0 0 30 30.000001" height="40" preserveAspectRatio="xMidYMid meet" version="1.0"><defs><clipPath id="f6d712416d"><path d="M 7 7.925781 L 26.613281 7.925781 L 26.613281 20.992188 L 7 20.992188 Z M 7 7.925781 " clip-rule="nonzero"/></clipPath><clipPath id="2cbe4f0af5"><path d="M 3.386719 8 L 9 8 L 9 14 L 3.386719 14 Z M 3.386719 8 " clip-rule="nonzero"/></clipPath><clipPath id="c87cbb9ae1"><path d="M 3.386719 16 L 6 16 L 6 20.992188 L 3.386719 20.992188 Z M 3.386719 16 " clip-rule="nonzero"/></clipPath></defs><g clip-path="url(#f6d712416d)"><path fill="#014d4e" d="M 26.558594 9.601562 L 26.613281 20.261719 L 13.730469 20.261719 L 13.730469 20.566406 L 13.59375 20.589844 L 13.644531 20.984375 L 13.492188 21.085938 L 13.269531 21.101562 L 13.164062 20.992188 L 12.933594 20.933594 C 12.933594 20.933594 12.839844 20.863281 12.835938 20.859375 C 12.828125 20.851562 12.757812 20.722656 12.757812 20.722656 L 12.722656 20.589844 L 12.660156 20.484375 L 12.539062 20.460938 L 12.351562 20.445312 L 12.148438 20.390625 L 12.042969 20.363281 L 12.042969 19.890625 L 12.121094 19.914062 L 12.171875 19.984375 L 12.292969 20.015625 L 12.351562 20.074219 L 12.398438 20.109375 L 12.4375 20.074219 L 12.480469 20.03125 L 12.570312 20.019531 L 12.578125 19.835938 L 12.695312 19.796875 L 12.804688 19.699219 C 12.804688 19.699219 12.851562 19.585938 12.859375 19.578125 C 12.863281 19.566406 12.851562 19.261719 12.851562 19.261719 L 12.664062 19.261719 L 12.601562 19.375 L 12.546875 19.472656 L 12.402344 19.480469 L 12.347656 19.558594 L 12.171875 19.574219 L 12.066406 19.488281 L 11.742188 19.464844 L 11.570312 19.4375 L 11.445312 19.4375 L 11.164062 19.484375 L 11.023438 19.472656 L 11.132812 19.402344 L 11.1875 19.277344 L 11.296875 19.214844 L 11.289062 19.003906 L 11.25 18.964844 L 11.132812 18.960938 L 11.050781 18.96875 L 10.941406 19.039062 L 10.839844 19.144531 L 10.726562 19.328125 C 10.726562 19.328125 10.652344 19.390625 10.652344 19.410156 C 10.652344 19.425781 10.621094 19.609375 10.621094 19.609375 L 10.035156 19.96875 L 9.882812 19.523438 L 9.667969 19.015625 L 9.605469 18.945312 L 8.957031 18.976562 L 8.871094 19.074219 C 8.871094 19.074219 8.714844 19.066406 8.710938 19.074219 C 8.707031 19.085938 8.644531 19.144531 8.625 19.152344 C 8.609375 19.160156 8.464844 19.203125 8.464844 19.203125 L 8.421875 19.257812 L 8.09375 19.261719 L 8.003906 19.09375 L 7.796875 18.953125 L 7.742188 18.828125 L 7.78125 18.738281 L 7.929688 18.699219 C 7.929688 18.699219 8.015625 18.539062 8.019531 18.53125 C 8.027344 18.523438 8.070312 18.417969 8.074219 18.410156 C 8.074219 18.398438 8.085938 18.183594 8.085938 18.183594 L 8.152344 18.105469 L 8.203125 17.894531 L 8.535156 17.5 C 8.535156 17.5 8.644531 17.492188 8.648438 17.484375 C 8.65625 17.472656 8.703125 17.324219 8.703125 17.324219 L 8.753906 17.242188 L 8.820312 17.09375 L 8.882812 17.042969 L 8.808594 16.65625 L 9.148438 16.292969 L 9.351562 16.257812 L 9.523438 16.089844 L 9.59375 15.894531 L 9.683594 15.84375 C 9.683594 15.84375 9.84375 15.820312 9.847656 15.808594 C 9.851562 15.800781 9.878906 15.445312 9.878906 15.445312 L 9.925781 15.332031 L 9.980469 15.136719 L 10.070312 15.105469 L 10.125 15.070312 L 10.273438 14.984375 L 10.28125 14.703125 L 10.191406 14.636719 C 10.191406 14.636719 10.089844 14.570312 10.085938 14.5625 C 10.082031 14.558594 10.070312 14.441406 10.070312 14.441406 C 10.070312 14.441406 10.140625 14.371094 10.140625 14.363281 C 10.140625 14.351562 10.1875 14.136719 10.1875 14.136719 L 10.632812 13.710938 L 10.863281 13.484375 L 11.0625 13.324219 L 11.371094 12.890625 L 11.375 12.820312 C 11.375 12.820312 11.574219 12.820312 11.574219 12.808594 C 11.574219 12.800781 11.59375 12.632812 11.59375 12.632812 L 11.449219 12.558594 C 11.449219 12.558594 11.4375 12.449219 11.4375 12.441406 C 11.4375 12.433594 11.53125 12.386719 11.53125 12.386719 L 11.628906 12.355469 L 12.007812 11.90625 L 12.078125 11.828125 L 12.074219 11.457031 L 11.980469 11.375 L 11.894531 10.953125 L 11.847656 10.570312 L 11.789062 10.308594 L 11.601562 10.050781 L 11.84375 9.652344 L 11.851562 8.335938 L 11.789062 8.230469 L 11.707031 8.152344 L 11.691406 8.035156 L 11.789062 8.003906 L 11.871094 8.003906 L 11.921875 8.027344 L 11.949219 7.976562 L 11.980469 7.929688 L 12.074219 7.929688 L 12.132812 7.9375 L 12.140625 7.996094 L 12.085938 8.035156 L 12.039062 8.101562 L 12.027344 8.230469 L 12.019531 8.503906 L 12.820312 9.117188 L 12.992188 9.117188 L 13.195312 9.269531 L 13.410156 9.273438 L 13.757812 9.519531 Z M 26.558594 9.601562 " fill-opacity="1" fill-rule="nonzero"/></g><g clip-path="url(#2cbe4f0af5)"><path fill="#014d4e" d="M 5.398438 9.535156 C 5.398438 9.535156 5.898438 9.027344 5.914062 9.023438 C 5.929688 9.015625 6.171875 8.597656 6.1875 8.574219 C 6.199219 8.550781 6.3125 8.484375 6.3125 8.484375 L 6.445312 8.507812 L 6.410156 8.582031 L 6.398438 8.667969 L 6.554688 8.757812 L 6.859375 8.816406 L 7.128906 8.796875 L 7.25 8.816406 L 7.390625 8.878906 L 7.523438 8.90625 L 7.664062 8.898438 L 7.742188 8.867188 L 7.796875 8.796875 L 7.863281 8.789062 L 7.972656 8.855469 L 8.125 9.128906 L 8.210938 9.257812 L 8.210938 9.652344 L 8.136719 9.785156 L 8.121094 10.070312 L 7.886719 10.277344 L 7.699219 10.636719 L 7.601562 10.765625 L 7.355469 11.140625 L 7.140625 11.554688 L 7.082031 11.660156 C 7.082031 11.660156 6.871094 11.738281 6.863281 11.761719 C 6.859375 11.78125 6.835938 12.101562 6.835938 12.101562 L 6.695312 12.285156 L 6.449219 12.285156 L 6.429688 13.0625 L 6.230469 13.21875 L 6.015625 13.421875 C 6.015625 13.421875 5.875 13.617188 5.871094 13.625 C 5.867188 13.636719 5.792969 13.867188 5.792969 13.867188 L 5.671875 13.90625 L 5.398438 13.882812 L 5.097656 13.761719 L 4.757812 13.695312 C 4.757812 13.695312 4.5 13.640625 4.488281 13.640625 C 4.480469 13.640625 3.605469 13.3125 3.605469 13.3125 L 3.496094 13.019531 L 3.386719 12.65625 C 3.386719 12.65625 3.402344 12.269531 3.402344 12.257812 C 3.402344 12.25 3.648438 11.625 3.648438 11.625 C 3.648438 11.625 3.734375 11.445312 3.75 11.445312 C 3.765625 11.441406 4.101562 11.398438 4.101562 11.398438 L 4.261719 11.421875 L 4.386719 11.539062 L 4.511719 11.617188 C 4.511719 11.617188 4.761719 11.632812 4.785156 11.632812 C 4.804688 11.632812 4.996094 11.546875 4.996094 11.546875 L 5.066406 11.410156 C 5.066406 11.410156 5.089844 11.21875 5.078125 11.195312 C 5.066406 11.167969 5.011719 11.082031 5.003906 11.058594 C 4.992188 11.027344 4.941406 10.902344 4.941406 10.902344 L 5.046875 10.734375 C 5.046875 10.734375 5.210938 10.613281 5.21875 10.601562 C 5.226562 10.59375 5.296875 10.390625 5.296875 10.390625 C 5.296875 10.390625 5.332031 10.089844 5.332031 10.070312 C 5.332031 10.046875 5.339844 9.863281 5.339844 9.863281 Z M 5.398438 9.535156 " fill-opacity="1" fill-rule="nonzero"/></g><g clip-path="url(#c87cbb9ae1)"><path fill="#014d4e" d="M 3.734375 16.777344 L 3.660156 16.75 L 3.660156 16.488281 C 3.660156 16.488281 3.816406 16.277344 3.832031 16.261719 C 3.84375 16.246094 4.050781 16.175781 4.050781 16.175781 L 4.28125 16.175781 L 4.453125 16.101562 L 4.53125 16.125 L 4.570312 16.269531 L 4.71875 16.371094 L 4.890625 16.394531 L 4.925781 16.488281 L 5.035156 16.710938 L 5.238281 16.90625 L 5.445312 17.027344 L 5.40625 17.160156 L 5.386719 17.257812 L 5.445312 17.414062 L 5.464844 17.523438 L 5.550781 17.644531 L 5.621094 17.761719 L 5.566406 17.835938 L 5.570312 17.949219 L 5.59375 18.078125 L 5.648438 18.148438 L 5.714844 18.210938 L 5.714844 18.597656 L 5.613281 18.65625 L 5.433594 18.675781 L 5.417969 18.910156 L 5.4375 19.011719 L 5.5625 19.035156 L 5.5625 19.171875 L 5.339844 19.171875 L 5.335938 19.441406 L 5.421875 19.484375 L 5.4375 19.554688 L 5.542969 19.609375 L 5.539062 19.667969 L 5.457031 19.710938 L 5.316406 19.734375 L 5.242188 19.824219 L 5.136719 19.902344 L 5.105469 20.007812 L 5.023438 20.097656 L 4.941406 20.167969 L 4.808594 20.183594 L 4.730469 20.140625 L 4.648438 20.039062 L 4.644531 19.957031 L 4.355469 19.957031 L 4.308594 20.082031 L 4.261719 20.070312 L 4.261719 19.679688 L 3.988281 19.664062 L 3.949219 19.597656 L 3.835938 19.570312 L 3.800781 19.445312 L 3.867188 19.34375 L 3.902344 19.171875 L 3.953125 19.125 L 3.996094 19.03125 L 4.179688 19.007812 L 4.167969 18.511719 L 4.097656 18.429688 L 4.054688 18.324219 L 3.984375 18.257812 L 3.988281 18.226562 L 4.070312 18.167969 L 4.070312 17.949219 L 3.992188 17.859375 L 3.964844 17.769531 L 3.980469 17.464844 L 3.941406 17.332031 L 3.875 17.296875 L 3.820312 17.25 L 3.761719 17.210938 L 3.71875 17.144531 L 3.75 17.082031 L 3.78125 17.015625 L 3.808594 16.945312 L 3.808594 16.882812 L 3.78125 16.808594 Z M 3.734375 16.777344 " fill-opacity="1" fill-rule="nonzero"/></g></svg>