<svg xmlns="http://www.w3.org/2000/svg" xmlns:xlink="http://www.w3.org/1999/xlink" width="40" zoomAndPan="magnify" viewBox="0 0 30 30.000001" height="40" preserveAspectRatio="xMidYMid meet" version="1.0"><defs><clipPath id="62a0b1d4ef"><path d="M 3.386719 9.027344 L 26.613281 9.027344 L 26.613281 19.917969 L 3.386719 19.917969 Z M 3.386719 9.027344 " clip-rule="nonzero"/></clipPath></defs><g clip-path="url(#62a0b1d4ef)"><path fill="#014d4e" d="M 5.664062 10.058594 C 5.746094 10.179688 5.78125 10.296875 5.648438 10.371094 C 5.535156 10.433594 5.429688 10.390625 5.359375 10.28125 C 5.28125 10.160156 5.371094 10.089844 5.460938 10.015625 C 5.34375 9.882812 5.1875 9.914062 5.039062 9.921875 C 4.894531 9.929688 4.761719 9.921875 4.75 9.730469 C 4.746094 9.667969 4.707031 9.683594 4.667969 9.699219 C 4.570312 9.738281 4.46875 9.71875 4.367188 9.71875 C 4.308594 9.722656 4.238281 9.707031 4.21875 9.65625 C 4.117188 9.394531 3.910156 9.488281 3.722656 9.5 C 3.613281 9.507812 3.453125 9.339844 3.480469 9.230469 C 3.507812 9.136719 3.574219 9.078125 3.667969 9.121094 C 3.730469 9.148438 3.792969 9.117188 3.835938 9.128906 C 4.042969 9.1875 4.242188 9.035156 4.445312 9.136719 C 4.523438 9.175781 4.609375 9.167969 4.691406 9.132812 C 4.808594 9.082031 4.917969 9.078125 5.015625 9.175781 C 5.058594 9.222656 5.113281 9.238281 5.167969 9.226562 C 5.523438 9.148438 5.859375 9.300781 6.203125 9.3125 C 6.390625 9.320312 6.558594 9.441406 6.71875 9.539062 C 6.789062 9.585938 6.851562 9.632812 6.941406 9.632812 C 7.113281 9.636719 7.195312 9.777344 7.300781 9.878906 C 7.371094 9.949219 7.449219 9.992188 7.527344 10.042969 C 7.625 10.113281 7.675781 10.25 7.84375 10.222656 C 7.867188 10.21875 7.957031 10.34375 7.902344 10.4375 C 7.859375 10.519531 7.878906 10.5625 7.972656 10.578125 C 8.050781 10.589844 8.113281 10.640625 8.121094 10.71875 C 8.128906 10.792969 8.070312 10.839844 8.011719 10.875 C 7.863281 10.964844 7.726562 11.070312 7.554688 11.105469 C 7.480469 11.121094 7.402344 11.148438 7.339844 11.101562 C 7.183594 10.96875 6.992188 10.894531 6.863281 10.714844 C 6.746094 10.542969 6.566406 10.4375 6.347656 10.378906 C 6.1875 10.335938 6.003906 10.296875 5.882812 10.148438 C 5.835938 10.101562 5.765625 10.0625 5.664062 10.058594 Z M 8.570312 12.144531 C 8.753906 12.210938 8.917969 12.292969 9.058594 12.445312 C 9.207031 12.609375 9.382812 12.59375 9.546875 12.453125 C 9.585938 12.421875 9.621094 12.375 9.578125 12.339844 C 9.484375 12.257812 9.464844 12.132812 9.351562 12.054688 C 9.125 11.898438 8.910156 11.71875 8.640625 11.671875 C 8.242188 11.601562 7.835938 11.535156 7.421875 11.574219 C 7.367188 11.578125 7.292969 11.550781 7.292969 11.632812 C 7.289062 11.714844 7.347656 11.757812 7.4375 11.757812 C 7.492188 11.757812 7.546875 11.734375 7.601562 11.773438 C 7.761719 11.890625 7.945312 11.949219 8.140625 11.972656 C 8.183594 11.980469 8.261719 11.960938 8.230469 12.046875 C 8.195312 12.136719 8.21875 12.195312 8.3125 12.203125 C 8.40625 12.210938 8.410156 12.136719 8.410156 12.046875 C 8.476562 12.085938 8.519531 12.125 8.570312 12.144531 Z M 26.117188 17.578125 C 25.972656 17.570312 25.859375 17.644531 25.851562 17.78125 C 25.847656 17.914062 25.960938 17.988281 26.101562 18 C 26.152344 18 26.199219 18.007812 26.25 18.035156 C 26.347656 18.089844 26.425781 18.015625 26.484375 17.960938 C 26.546875 17.90625 26.527344 17.8125 26.488281 17.738281 C 26.421875 17.621094 26.324219 17.558594 26.199219 17.578125 C 26.160156 17.578125 26.140625 17.578125 26.117188 17.578125 Z M 24.765625 19.785156 C 24.765625 19.65625 24.675781 19.597656 24.554688 19.605469 C 24.449219 19.609375 24.34375 19.628906 24.234375 19.601562 C 24.132812 19.574219 24.085938 19.640625 24.054688 19.730469 C 24.019531 19.824219 24.089844 19.855469 24.144531 19.898438 C 24.269531 20.003906 24.425781 19.886719 24.542969 19.953125 C 24.660156 19.9375 24.761719 19.914062 24.765625 19.785156 Z M 10.226562 11.09375 C 10.136719 11.046875 10.042969 11.015625 9.957031 11.074219 C 9.875 11.128906 9.847656 11.207031 9.9375 11.296875 C 10.046875 11.398438 10.179688 11.429688 10.3125 11.464844 C 10.414062 11.488281 10.460938 11.40625 10.480469 11.3125 C 10.433594 11.195312 10.332031 11.144531 10.226562 11.09375 Z M 25.96875 18.976562 C 25.980469 18.851562 25.882812 18.789062 25.695312 18.785156 C 25.558594 18.78125 25.464844 18.832031 25.46875 18.96875 C 25.46875 19.113281 25.578125 19.160156 25.6875 19.148438 C 25.835938 19.144531 25.957031 19.136719 25.96875 18.976562 Z M 25.761719 16.550781 C 25.765625 16.65625 25.886719 16.761719 26.011719 16.742188 C 26.097656 16.726562 26.234375 16.757812 26.238281 16.605469 C 26.246094 16.488281 26.097656 16.363281 25.964844 16.363281 C 25.835938 16.363281 25.757812 16.4375 25.761719 16.550781 Z M 24.863281 14.472656 C 24.867188 14.386719 24.738281 14.28125 24.625 14.285156 C 24.507812 14.292969 24.417969 14.335938 24.410156 14.46875 C 24.402344 14.621094 24.503906 14.640625 24.609375 14.636719 C 24.777344 14.636719 24.859375 14.582031 24.863281 14.472656 Z M 24.863281 14.472656 " fill-opacity="1" fill-rule="nonzero"/></g></svg>