<svg xmlns="http://www.w3.org/2000/svg" xmlns:xlink="http://www.w3.org/1999/xlink" width="40" zoomAndPan="magnify" viewBox="0 0 30 30.000001" height="40" preserveAspectRatio="xMidYMid meet" version="1.0"><defs><clipPath id="686b4f203f"><path d="M 4 2.902344 L 26 2.902344 L 26 26.128906 L 4 26.128906 Z M 4 2.902344 " clip-rule="nonzero"/></clipPath></defs><g clip-path="url(#686b4f203f)"><path fill="#014d4e" d="M 11.035156 4.179688 C 11.023438 4.84375 11.011719 5.507812 10.992188 6.171875 C 10.28125 6.109375 9.546875 6.109375 8.832031 6.128906 C 8.777344 6.132812 8.484375 6.132812 8.636719 6.261719 C 8.730469 6.339844 8.933594 6.488281 9.054688 6.503906 C 9.226562 6.527344 9.371094 6.496094 9.449219 6.683594 C 9.5625 6.957031 9.863281 7.402344 10.132812 7.507812 C 10.351562 7.589844 10.636719 8.417969 10.945312 8.175781 C 11.023438 8.117188 11.078125 8.121094 11.113281 8.191406 C 11.164062 8.285156 11.269531 8.339844 11.304688 8.441406 C 11.347656 8.5625 11.507812 8.5625 11.597656 8.632812 C 11.691406 8.707031 11.71875 8.710938 11.847656 8.667969 L 11.941406 8.632812 C 12.179688 8.910156 12.515625 9.113281 12.6875 9.441406 C 12.753906 9.5625 12.742188 9.730469 12.753906 9.867188 C 12.800781 9.871094 12.929688 9.875 12.957031 9.914062 C 12.984375 9.9375 12.832031 10.179688 12.808594 10.222656 C 12.882812 10.277344 13 10.351562 13.007812 10.449219 L 13.015625 10.519531 C 13.167969 10.519531 13.324219 10.527344 13.46875 10.578125 C 13.597656 10.625 13.628906 10.644531 13.660156 10.710938 C 13.683594 10.753906 13.710938 10.796875 13.730469 10.8125 C 13.835938 10.882812 14.066406 10.859375 14.191406 10.871094 L 14.210938 10.976562 C 14.234375 11.097656 14.117188 11.152344 14.15625 11.261719 C 14.214844 11.417969 13.929688 11.476562 14.089844 11.597656 L 14.148438 11.644531 C 14.09375 11.695312 14.027344 11.761719 13.960938 11.785156 C 13.917969 11.800781 13.867188 11.980469 13.84375 12.019531 C 13.796875 12.128906 13.890625 12.195312 13.957031 12.25 C 14.003906 12.285156 14.003906 12.292969 13.976562 12.398438 C 13.960938 12.457031 13.929688 12.539062 13.90625 12.578125 C 13.84375 12.6875 13.976562 12.683594 13.929688 12.808594 C 13.898438 12.882812 13.363281 12.839844 13.3125 12.839844 C 12.34375 12.847656 11.371094 12.84375 10.402344 12.84375 C 9.246094 12.84375 8.085938 12.84375 6.929688 12.84375 C 6.546875 13.492188 6.167969 14.136719 5.785156 14.785156 C 5.28125 15.644531 4.695312 16.484375 4.261719 17.382812 C 4.214844 17.496094 4.808594 18.105469 4.894531 18.230469 C 5.046875 18.449219 5.070312 18.800781 4.683594 18.800781 L 4.601562 18.800781 C 4.632812 18.988281 4.640625 19.179688 4.652344 19.367188 L 4.535156 19.492188 C 4.371094 19.664062 4.347656 19.742188 4.40625 19.917969 C 4.484375 20.144531 4.574219 20.445312 4.535156 20.6875 C 4.5 20.894531 4.371094 21.289062 4.1875 21.414062 C 3.921875 21.59375 4.917969 22.179688 5.066406 22.300781 C 5.527344 22.664062 5.96875 23.050781 6.453125 23.390625 C 7.390625 24.050781 8.339844 24.636719 9.46875 24.90625 C 10.664062 25.195312 11.910156 25.007812 13.132812 25.03125 C 13.449219 25.039062 13.804688 25.203125 14.09375 25.328125 C 14.40625 25.460938 14.714844 25.601562 15.027344 25.730469 C 15.082031 25.753906 15.789062 26.078125 15.796875 25.992188 C 15.816406 25.835938 15.726562 25.75 15.765625 25.585938 C 15.808594 25.398438 15.921875 25.316406 16.046875 25.175781 C 16.15625 25.054688 16.203125 24.925781 16.347656 24.835938 C 16.632812 24.65625 17.09375 24.039062 17.464844 24.292969 C 17.652344 24.417969 17.738281 24.386719 17.761719 24.175781 C 17.773438 24.078125 17.800781 23.992188 17.839844 23.925781 C 17.910156 23.804688 18.105469 23.597656 18.242188 23.496094 C 18.335938 23.425781 18.367188 23.417969 18.558594 23.398438 C 19.019531 23.351562 19.085938 23.277344 18.835938 23.105469 C 18.675781 22.992188 18.65625 22.957031 18.742188 22.921875 C 18.945312 22.835938 18.539062 22.820312 18.597656 22.65625 C 18.636719 22.542969 18.617188 22.324219 18.695312 22.246094 C 18.757812 22.183594 18.796875 22.191406 18.902344 22.28125 L 18.996094 22.355469 L 19.058594 22.257812 C 19.132812 22.132812 19.183594 22.117188 19.332031 22.179688 C 19.394531 22.207031 19.457031 22.222656 19.472656 22.214844 C 19.554688 22.179688 19.5625 22.046875 19.644531 22.015625 C 19.726562 21.984375 19.800781 22.171875 19.867188 22.082031 C 20.085938 21.816406 20.300781 21.539062 20.550781 21.285156 C 20.667969 21.289062 20.808594 21.3125 20.902344 21.226562 C 21.042969 21.101562 20.972656 20.859375 21.054688 20.695312 C 21.121094 20.5625 21.011719 20.464844 20.933594 20.355469 C 20.808594 20.183594 20.703125 19.992188 20.621094 19.796875 C 20.46875 19.433594 21.0625 19.300781 20.84375 18.972656 C 20.777344 18.878906 20.777344 18.816406 20.84375 18.679688 C 20.890625 18.578125 20.953125 18.542969 21.054688 18.496094 C 21.332031 18.363281 21.628906 18.253906 21.898438 18.105469 C 22.136719 17.976562 22.324219 17.773438 22.535156 17.605469 C 22.8125 17.375 23.140625 17.226562 23.429688 17.007812 C 23.671875 16.820312 23.851562 16.597656 24.105469 16.421875 C 24.390625 16.230469 24.652344 15.957031 24.914062 15.730469 C 25.109375 15.558594 25.347656 15.429688 25.535156 15.25 C 25.609375 15.175781 26.089844 14.777344 25.863281 14.699219 C 25.679688 14.632812 25.53125 14.417969 25.371094 14.308594 C 25.210938 14.203125 25.027344 14.167969 24.855469 14.089844 C 24.714844 14.023438 23.984375 13.308594 23.867188 13.445312 C 23.773438 13.558594 24.40625 14.015625 24.511719 14.109375 C 24.40625 14.097656 24.304688 14.089844 24.199219 14.082031 C 24.183594 14.320312 24.082031 14.5625 24.019531 14.792969 C 23.996094 14.875 23.816406 15.007812 23.789062 14.851562 C 23.769531 14.75 23.871094 14.683594 23.765625 14.597656 C 23.636719 14.496094 23.480469 14.429688 23.351562 14.324219 C 23.265625 14.253906 23.183594 14.097656 23.066406 14.078125 C 22.832031 14.015625 22.71875 13.984375 22.472656 14.027344 C 22.421875 13.972656 22.375 13.921875 22.324219 13.867188 C 22.144531 13.871094 21.90625 13.910156 21.738281 13.855469 C 21.507812 13.78125 21.230469 13.894531 21.015625 13.800781 C 20.882812 13.75 20.71875 13.960938 20.617188 13.902344 C 20.503906 13.832031 20.621094 13.113281 20.625 13.015625 C 20.699219 11.660156 20.785156 10.300781 20.863281 8.941406 C 20.910156 8.136719 20.960938 7.335938 20.957031 6.527344 C 20.953125 5.820312 20.941406 5.113281 20.929688 4.40625 C 20.925781 4.085938 20.917969 3.769531 20.910156 3.453125 C 20.910156 3.386719 20.949219 3.070312 20.894531 3.015625 C 20.847656 2.964844 20.507812 3.007812 20.445312 3.003906 C 20.054688 3 19.664062 2.996094 19.277344 2.992188 C 18.117188 2.980469 16.957031 2.976562 15.796875 2.96875 C 14.214844 2.960938 12.628906 2.960938 11.046875 2.960938 L 11.035156 4.179688 C 11.023438 4.847656 11.035156 4.179688 11.035156 4.179688 Z M 11.035156 4.179688 " fill-opacity="1" fill-rule="nonzero"/></g></svg>