<svg xmlns="http://www.w3.org/2000/svg" xmlns:xlink="http://www.w3.org/1999/xlink" width="40" zoomAndPan="magnify" viewBox="0 0 30 30.000001" height="40" preserveAspectRatio="xMidYMid meet" version="1.0"><defs><clipPath id="76434bd4d4"><path d="M 5.855469 2.902344 L 24 2.902344 L 24 26.128906 L 5.855469 26.128906 Z M 5.855469 2.902344 " clip-rule="nonzero"/></clipPath></defs><g clip-path="url(#76434bd4d4)"><path fill="#014d4e" d="M 8.929688 25.679688 C 9 25.679688 9.042969 25.695312 9.027344 25.71875 C 9.011719 25.742188 8.945312 25.761719 8.878906 25.761719 C 8.804688 25.761719 8.765625 25.746094 8.78125 25.71875 C 8.792969 25.699219 8.859375 25.679688 8.929688 25.679688 Z M 7.933594 25.601562 C 7.949219 25.601562 7.960938 25.613281 7.976562 25.640625 C 8.023438 25.714844 8.015625 25.722656 7.644531 25.921875 C 7.308594 26.105469 7.207031 26.132812 7.25 26.027344 C 7.261719 25.992188 7.273438 25.953125 7.273438 25.945312 C 7.273438 25.933594 7.296875 25.925781 7.324219 25.925781 C 7.390625 25.925781 7.765625 25.730469 7.863281 25.644531 C 7.894531 25.617188 7.917969 25.601562 7.933594 25.601562 Z M 11.191406 25.273438 C 11.222656 25.265625 11.238281 25.277344 11.226562 25.308594 C 11.21875 25.339844 11.183594 25.371094 11.15625 25.382812 C 11.125 25.394531 11.109375 25.378906 11.117188 25.347656 C 11.128906 25.316406 11.160156 25.285156 11.191406 25.273438 Z M 6.886719 19.199219 C 6.921875 19.199219 6.9375 19.21875 6.921875 19.238281 C 6.910156 19.261719 6.871094 19.28125 6.835938 19.28125 C 6.800781 19.28125 6.785156 19.261719 6.800781 19.238281 C 6.8125 19.21875 6.851562 19.199219 6.886719 19.199219 Z M 7.398438 17.960938 C 7.425781 17.960938 7.433594 17.980469 7.417969 18 C 7.402344 18.023438 7.382812 18.042969 7.375 18.042969 C 7.363281 18.042969 7.355469 18.023438 7.355469 18 C 7.355469 17.980469 7.375 17.960938 7.398438 17.960938 Z M 7.816406 14.601562 C 7.800781 14.589844 7.789062 14.617188 7.792969 14.691406 C 7.800781 14.84375 7.804688 14.863281 7.84375 14.863281 C 7.863281 14.863281 7.871094 14.808594 7.859375 14.738281 C 7.847656 14.660156 7.828125 14.613281 7.816406 14.601562 Z M 6.402344 13.710938 C 6.4375 13.710938 6.453125 13.714844 6.445312 13.71875 C 6.433594 13.726562 6.375 13.777344 6.308594 13.832031 L 6.1875 13.9375 L 6.265625 13.824219 C 6.308594 13.761719 6.371094 13.710938 6.402344 13.710938 Z M 6.855469 13.378906 C 6.867188 13.378906 6.832031 13.425781 6.777344 13.480469 C 6.726562 13.539062 6.671875 13.585938 6.660156 13.585938 C 6.648438 13.585938 6.683594 13.539062 6.738281 13.480469 C 6.789062 13.425781 6.84375 13.378906 6.855469 13.378906 Z M 7.027344 13.34375 C 7.050781 13.34375 7.078125 13.34375 7.097656 13.351562 C 7.136719 13.359375 7.105469 13.367188 7.027344 13.367188 C 6.945312 13.367188 6.914062 13.359375 6.953125 13.351562 C 6.972656 13.34375 7 13.34375 7.027344 13.34375 Z M 7.71875 13.335938 C 7.949219 13.335938 8.140625 13.355469 8.140625 13.375 C 8.140625 13.421875 7.425781 13.421875 7.351562 13.375 C 7.316406 13.351562 7.460938 13.339844 7.71875 13.335938 Z M 14.039062 11.769531 C 14.0625 11.769531 14.082031 11.789062 14.082031 11.808594 C 14.082031 11.832031 14.074219 11.851562 14.0625 11.851562 C 14.054688 11.851562 14.035156 11.832031 14.019531 11.808594 C 14.007812 11.789062 14.015625 11.769531 14.039062 11.769531 Z M 17.394531 6.003906 C 17.402344 6.003906 17.414062 6.003906 17.425781 6.011719 C 17.449219 6.023438 17.464844 6.042969 17.464844 6.054688 C 17.464844 6.0625 17.449219 6.074219 17.425781 6.074219 C 17.402344 6.074219 17.382812 6.050781 17.382812 6.027344 C 17.382812 6.015625 17.386719 6.007812 17.394531 6.003906 Z M 19.035156 2.90625 C 19.179688 2.921875 19.339844 2.996094 19.507812 3.121094 C 19.605469 3.199219 19.742188 3.289062 19.808594 3.320312 C 19.871094 3.355469 19.980469 3.46875 20.046875 3.570312 C 20.109375 3.675781 20.179688 3.761719 20.195312 3.761719 C 20.210938 3.761719 20.28125 3.855469 20.351562 3.96875 C 20.421875 4.082031 20.558594 4.253906 20.652344 4.351562 C 21.027344 4.726562 21.207031 5.011719 21.28125 5.347656 C 21.328125 5.550781 21.332031 5.554688 21.605469 5.664062 C 22.03125 5.839844 22.464844 5.925781 22.640625 5.867188 C 22.746094 5.832031 22.828125 5.832031 22.976562 5.871094 C 23.097656 5.902344 23.316406 5.910156 23.574219 5.894531 C 23.925781 5.871094 23.984375 5.878906 24.042969 5.945312 C 24.132812 6.042969 24.132812 6.0625 23.964844 6.378906 C 23.878906 6.539062 23.804688 6.742188 23.792969 6.867188 C 23.761719 7.125 23.589844 7.421875 23.40625 7.539062 C 23.269531 7.625 23.121094 7.90625 23.121094 8.082031 C 23.121094 8.136719 23.140625 8.261719 23.164062 8.359375 C 23.207031 8.523438 23.199219 8.554688 23.101562 8.707031 C 23.042969 8.800781 22.996094 8.886719 22.996094 8.898438 C 22.996094 8.910156 22.941406 9 22.871094 9.09375 C 22.796875 9.199219 22.75 9.3125 22.75 9.394531 C 22.75 9.570312 22.449219 10.214844 22.328125 10.300781 C 22.277344 10.335938 22.191406 10.363281 22.136719 10.363281 C 22.085938 10.363281 21.972656 10.410156 21.890625 10.46875 C 21.808594 10.523438 21.683594 10.570312 21.613281 10.570312 C 21.542969 10.570312 21.449219 10.597656 21.40625 10.628906 C 21.359375 10.65625 21.277344 10.695312 21.222656 10.707031 C 21.164062 10.722656 21.050781 10.792969 20.96875 10.871094 C 20.886719 10.945312 20.765625 11.023438 20.699219 11.046875 C 20.585938 11.089844 20.582031 11.101562 20.582031 11.339844 C 20.582031 11.578125 20.574219 11.597656 20.417969 11.746094 C 20.300781 11.855469 20.203125 11.910156 20.085938 11.925781 C 19.875 11.953125 19.453125 12.164062 19.414062 12.261719 C 19.355469 12.410156 18.316406 13.460938 18.226562 13.460938 C 18.175781 13.460938 18.089844 13.5 18.03125 13.542969 C 17.976562 13.589844 17.910156 13.625 17.886719 13.625 C 17.820312 13.625 17.433594 14.039062 17.40625 14.144531 C 17.394531 14.199219 17.328125 14.273438 17.261719 14.304688 C 17.195312 14.339844 17.101562 14.425781 17.054688 14.492188 C 16.976562 14.601562 16.941406 14.617188 16.765625 14.617188 C 16.582031 14.617188 16.554688 14.632812 16.378906 14.824219 C 16.269531 14.9375 16.148438 15.109375 16.105469 15.210938 C 16.015625 15.421875 15.953125 15.449219 15.621094 15.4375 C 15.007812 15.410156 14.578125 15.742188 14.90625 15.984375 C 15.0625 16.097656 15.066406 16.203125 14.917969 16.261719 C 14.785156 16.320312 14.648438 16.609375 14.6875 16.75 C 14.703125 16.824219 14.671875 16.882812 14.539062 17.007812 C 14.441406 17.101562 14.332031 17.175781 14.289062 17.175781 C 14.25 17.175781 14.191406 17.203125 14.164062 17.238281 C 14.128906 17.28125 14.128906 17.300781 14.160156 17.300781 C 14.1875 17.300781 14.230469 17.347656 14.253906 17.402344 C 14.28125 17.457031 14.335938 17.515625 14.378906 17.527344 C 14.46875 17.558594 14.480469 17.628906 14.394531 17.628906 C 14.359375 17.628906 14.320312 17.679688 14.308594 17.742188 C 14.296875 17.804688 14.261719 17.941406 14.226562 18.046875 C 14.191406 18.152344 14.164062 18.300781 14.164062 18.371094 C 14.164062 18.445312 14.128906 18.550781 14.085938 18.605469 C 14.011719 18.699219 14.007812 18.722656 14.0625 18.863281 C 14.097656 18.957031 14.125 19.242188 14.136719 19.617188 C 14.15625 20.351562 14.140625 20.390625 13.855469 20.3125 C 13.753906 20.285156 13.660156 20.269531 13.652344 20.277344 C 13.605469 20.324219 13.753906 20.429688 13.878906 20.441406 C 14.042969 20.457031 14.082031 20.496094 14.082031 20.652344 C 14.082031 20.710938 14.097656 20.773438 14.117188 20.785156 C 14.152344 20.804688 14.148438 21.203125 14.113281 21.738281 C 14.105469 21.851562 14.117188 21.976562 14.132812 22.015625 C 14.15625 22.058594 14.132812 22.195312 14.082031 22.371094 C 14.011719 22.605469 13.960938 22.691406 13.808594 22.828125 C 13.652344 22.96875 13.625 23.019531 13.640625 23.109375 C 13.652344 23.167969 13.644531 23.265625 13.625 23.320312 C 13.59375 23.394531 13.5625 23.414062 13.484375 23.398438 C 13.394531 23.382812 13.386719 23.390625 13.40625 23.476562 C 13.425781 23.546875 13.402344 23.597656 13.3125 23.675781 C 13.167969 23.800781 13.132812 23.804688 13 23.699219 C 12.941406 23.652344 12.875 23.613281 12.847656 23.613281 C 12.765625 23.613281 12.800781 23.730469 12.914062 23.8125 C 13.042969 23.90625 13.019531 23.96875 12.828125 24.003906 C 12.753906 24.019531 12.65625 24.066406 12.617188 24.113281 C 12.574219 24.15625 12.488281 24.191406 12.421875 24.191406 C 12.355469 24.191406 12.3125 24.210938 12.328125 24.234375 C 12.34375 24.257812 12.402344 24.277344 12.457031 24.277344 C 12.542969 24.277344 12.558594 24.292969 12.546875 24.367188 C 12.539062 24.433594 12.5 24.46875 12.410156 24.480469 C 12.332031 24.496094 12.28125 24.53125 12.273438 24.585938 C 12.265625 24.628906 12.234375 24.695312 12.210938 24.730469 C 12.183594 24.765625 12.128906 24.859375 12.089844 24.945312 C 12.050781 25.03125 12 25.101562 11.976562 25.101562 C 11.953125 25.101562 11.945312 25.121094 11.960938 25.148438 C 11.980469 25.179688 11.972656 25.183594 11.941406 25.167969 C 11.863281 25.117188 11.738281 25.183594 11.722656 25.277344 C 11.699219 25.441406 11.375 25.421875 11.351562 25.257812 C 11.332031 25.128906 11.230469 25.121094 11.101562 25.238281 C 11.042969 25.292969 10.933594 25.347656 10.859375 25.359375 C 10.78125 25.375 10.664062 25.398438 10.59375 25.410156 C 10.527344 25.425781 10.457031 25.421875 10.4375 25.402344 C 10.417969 25.386719 10.363281 25.367188 10.3125 25.363281 C 10.265625 25.359375 10.132812 25.320312 10.019531 25.273438 C 9.902344 25.226562 9.757812 25.175781 9.695312 25.164062 C 9.609375 25.144531 9.5625 25.097656 9.515625 24.988281 C 9.460938 24.855469 9.445312 24.84375 9.402344 24.902344 C 9.355469 24.96875 9.292969 24.96875 9.019531 24.914062 C 8.90625 24.890625 8.796875 24.691406 8.828125 24.570312 C 8.847656 24.5 8.832031 24.480469 8.769531 24.480469 C 8.722656 24.480469 8.675781 24.453125 8.664062 24.421875 C 8.648438 24.390625 8.566406 24.324219 8.480469 24.28125 C 8.265625 24.171875 8.152344 23.910156 8.265625 23.792969 C 8.296875 23.765625 8.289062 23.699219 8.242188 23.578125 C 8.203125 23.484375 8.183594 23.363281 8.195312 23.308594 C 8.214844 23.234375 8.203125 23.207031 8.140625 23.191406 C 8.097656 23.179688 8.03125 23.105469 7.996094 23.03125 C 7.914062 22.859375 7.964844 22.6875 8.117188 22.617188 C 8.261719 22.550781 8.253906 22.460938 8.101562 22.460938 C 8.003906 22.460938 7.976562 22.4375 7.953125 22.335938 C 7.941406 22.269531 7.941406 22.175781 7.953125 22.128906 C 7.972656 22.070312 7.960938 22.046875 7.917969 22.046875 C 7.859375 22.046875 7.75 21.863281 7.71875 21.71875 C 7.710938 21.6875 7.75 21.652344 7.808594 21.636719 C 7.964844 21.597656 7.957031 21.492188 7.792969 21.429688 C 7.582031 21.347656 7.519531 21.121094 7.652344 20.945312 C 7.679688 20.910156 7.664062 20.878906 7.605469 20.84375 C 7.558594 20.8125 7.519531 20.761719 7.519531 20.734375 C 7.519531 20.621094 7.210938 20.363281 7.035156 20.335938 C 6.773438 20.289062 6.742188 20.21875 6.917969 20.0625 C 7 19.992188 7.097656 19.863281 7.132812 19.78125 C 7.273438 19.457031 7.328125 19.335938 7.425781 19.144531 C 7.5 18.996094 7.515625 18.929688 7.480469 18.890625 C 7.449219 18.851562 7.449219 18.832031 7.484375 18.820312 C 7.550781 18.796875 7.644531 18.476562 7.644531 18.277344 C 7.644531 18.085938 7.855469 17.65625 7.992188 17.566406 C 8.050781 17.527344 8.101562 17.445312 8.117188 17.363281 C 8.132812 17.285156 8.171875 17.167969 8.203125 17.105469 C 8.28125 16.960938 8.28125 16.765625 8.207031 16.738281 C 8.171875 16.726562 8.148438 16.660156 8.152344 16.574219 C 8.15625 16.417969 8.039062 16.261719 7.835938 16.15625 C 7.722656 16.097656 7.613281 16.101562 7.40625 16.164062 C 7.347656 16.183594 7.316406 16.179688 7.316406 16.148438 C 7.316406 16.125 7.34375 16.101562 7.375 16.101562 C 7.453125 16.101562 7.457031 15.996094 7.386719 15.953125 C 7.359375 15.933594 7.296875 15.925781 7.246094 15.929688 C 7.140625 15.945312 7.035156 15.84375 7.003906 15.699219 C 6.898438 15.203125 6.820312 15.105469 6.390625 14.941406 C 6.136719 14.84375 5.988281 14.707031 5.898438 14.484375 C 5.84375 14.351562 5.84375 14.324219 5.898438 14.257812 C 5.941406 14.203125 5.964844 14.199219 5.980469 14.234375 C 5.992188 14.261719 6.0625 14.285156 6.132812 14.285156 C 6.210938 14.285156 6.347656 14.339844 6.457031 14.40625 C 6.648438 14.527344 7.078125 14.640625 7.160156 14.589844 C 7.296875 14.507812 8.109375 14.492188 8.257812 14.574219 C 8.386719 14.640625 8.367188 14.761719 8.210938 14.835938 C 8.121094 14.882812 8.101562 14.902344 8.15625 14.90625 C 8.210938 14.90625 8.226562 14.925781 8.210938 14.976562 C 8.132812 15.226562 8.132812 15.226562 8.21875 15.253906 C 8.316406 15.285156 8.328125 15.320312 8.257812 15.390625 C 8.226562 15.421875 8.246094 15.496094 8.34375 15.667969 C 8.480469 15.902344 8.5 15.914062 8.675781 15.867188 C 8.753906 15.847656 8.761719 15.835938 8.707031 15.816406 C 8.644531 15.796875 8.648438 15.769531 8.746094 15.554688 C 8.804688 15.425781 8.871094 15.320312 8.890625 15.320312 C 8.949219 15.320312 8.925781 15.066406 8.851562 14.941406 C 8.785156 14.832031 8.765625 14.820312 8.625 14.84375 C 8.472656 14.871094 8.46875 14.867188 8.46875 14.746094 C 8.46875 14.675781 8.464844 14.601562 8.460938 14.585938 C 8.453125 14.570312 8.492188 14.550781 8.542969 14.542969 C 8.644531 14.527344 8.664062 14.472656 8.582031 14.425781 C 8.550781 14.402344 8.574219 14.382812 8.65625 14.367188 C 8.78125 14.34375 8.816406 14.363281 9.023438 14.5625 L 9.117188 14.65625 L 9.210938 14.460938 C 9.289062 14.289062 9.296875 14.230469 9.265625 14.015625 C 9.230469 13.769531 9.230469 13.769531 9.09375 13.777344 C 9.019531 13.78125 8.925781 13.8125 8.886719 13.847656 C 8.800781 13.925781 8.703125 13.933594 8.589844 13.871094 C 8.519531 13.835938 8.507812 13.839844 8.519531 13.902344 C 8.527344 13.941406 8.503906 13.980469 8.46875 13.988281 C 8.417969 13.996094 8.40625 13.96875 8.421875 13.855469 L 8.4375 13.707031 L 8.90625 13.707031 C 9.367188 13.707031 9.375 13.707031 9.367188 13.617188 C 9.359375 13.554688 9.390625 13.511719 9.472656 13.472656 C 9.625 13.394531 9.613281 13.335938 9.441406 13.335938 C 9.34375 13.335938 9.257812 13.375 9.160156 13.457031 C 9.035156 13.566406 8.992188 13.578125 8.738281 13.578125 C 8.582031 13.578125 8.429688 13.5625 8.40625 13.539062 C 8.375 13.515625 8.339844 13.523438 8.304688 13.5625 C 8.242188 13.640625 8.152344 13.652344 8.210938 13.574219 C 8.234375 13.546875 8.238281 13.488281 8.21875 13.441406 C 8.152344 13.265625 8.175781 13.265625 8.625 13.394531 C 8.820312 13.449219 8.863281 13.449219 9.019531 13.394531 C 9.113281 13.363281 9.261719 13.285156 9.34375 13.226562 C 9.503906 13.121094 9.59375 13.128906 9.574219 13.246094 C 9.554688 13.363281 9.761719 13.351562 10.058594 13.214844 C 10.214844 13.144531 10.371094 13.089844 10.414062 13.089844 C 10.511719 13.089844 10.609375 12.9375 10.605469 12.789062 C 10.605469 12.628906 10.636719 12.613281 10.742188 12.71875 C 10.871094 12.847656 11.246094 12.820312 11.472656 12.664062 C 11.558594 12.601562 11.671875 12.554688 11.71875 12.554688 C 11.785156 12.554688 11.800781 12.535156 11.785156 12.46875 C 11.757812 12.371094 11.785156 12.367188 11.875 12.457031 C 11.925781 12.507812 12.007812 12.523438 12.183594 12.515625 C 12.320312 12.511719 12.4375 12.527344 12.453125 12.550781 C 12.464844 12.574219 12.527344 12.59375 12.589844 12.589844 C 12.648438 12.585938 12.75 12.605469 12.8125 12.628906 C 12.960938 12.6875 13.035156 12.65625 13.085938 12.507812 C 13.136719 12.359375 13.214844 12.351562 13.214844 12.492188 C 13.214844 12.582031 13.234375 12.59375 13.367188 12.59375 C 13.449219 12.59375 13.621094 12.554688 13.753906 12.507812 C 14.046875 12.402344 14.289062 12.117188 14.289062 11.882812 C 14.289062 11.75 14.273438 11.726562 14.152344 11.6875 C 14.03125 11.648438 14.015625 11.625 14.011719 11.492188 C 14.003906 11.253906 14.09375 11.117188 14.300781 11.066406 C 14.394531 11.039062 14.53125 11.003906 14.601562 10.980469 C 14.753906 10.933594 14.851562 10.964844 14.910156 11.070312 C 14.960938 11.167969 15.179688 11.175781 15.375 11.09375 C 15.566406 11.011719 15.800781 10.765625 15.859375 10.582031 C 15.886719 10.496094 15.929688 10.402344 15.949219 10.375 C 15.980469 10.335938 15.972656 10.304688 15.914062 10.265625 C 15.855469 10.21875 15.835938 10.152344 15.832031 9.964844 C 15.828125 9.832031 15.8125 9.65625 15.796875 9.570312 C 15.769531 9.433594 15.78125 9.398438 15.894531 9.269531 C 15.964844 9.191406 16.050781 9.0625 16.085938 8.992188 C 16.121094 8.917969 16.179688 8.804688 16.214844 8.734375 C 16.253906 8.667969 16.285156 8.5625 16.285156 8.503906 C 16.285156 8.429688 16.324219 8.367188 16.417969 8.304688 C 16.542969 8.21875 16.804688 7.765625 16.804688 7.636719 C 16.804688 7.539062 17.058594 7.261719 17.207031 7.203125 C 17.335938 7.148438 17.34375 7.136719 17.320312 6.972656 C 17.304688 6.824219 17.316406 6.78125 17.417969 6.671875 C 17.53125 6.554688 17.667969 6.152344 17.632812 6.050781 C 17.601562 5.960938 17.578125 5.40625 17.585938 5.003906 L 17.59375 4.574219 L 17.835938 4.28125 C 18.066406 3.996094 18.375 3.453125 18.375 3.332031 C 18.375 3.242188 18.75 2.9375 18.898438 2.910156 C 18.941406 2.902344 18.988281 2.902344 19.035156 2.90625 Z M 19.035156 2.90625 " fill-opacity="1" fill-rule="evenodd"/></g></svg>