<svg xmlns="http://www.w3.org/2000/svg" xmlns:xlink="http://www.w3.org/1999/xlink" width="40" zoomAndPan="magnify" viewBox="0 0 30 30.000001" height="40" preserveAspectRatio="xMidYMid meet" version="1.0"><defs><clipPath id="40c9fefb5e"><path d="M 7.117188 2.902344 L 23 2.902344 L 23 26.128906 L 7.117188 26.128906 Z M 7.117188 2.902344 " clip-rule="nonzero"/></clipPath></defs><g clip-path="url(#40c9fefb5e)"><path fill="#014d4e" d="M 15.484375 26.0625 C 15.484375 26.0625 15.589844 26.039062 15.636719 25.960938 C 15.683594 25.886719 15.726562 25.820312 15.726562 25.820312 L 16.179688 25.820312 L 16.25 25.792969 L 16.308594 25.859375 C 16.308594 25.859375 16.445312 25.707031 16.453125 25.671875 C 16.457031 25.636719 16.40625 25.460938 16.386719 25.398438 C 16.359375 25.335938 16.359375 25.238281 16.359375 25.238281 L 16.660156 25.238281 C 16.660156 25.238281 16.726562 25.195312 16.738281 25.152344 C 16.75 25.105469 16.738281 25.042969 16.738281 25.042969 C 16.738281 25.042969 16.785156 25.003906 16.832031 24.964844 C 16.875 24.921875 16.9375 24.792969 16.9375 24.792969 C 16.9375 24.792969 16.957031 24.707031 17.03125 24.792969 C 17.105469 24.878906 17.046875 24.878906 17.183594 24.90625 C 17.320312 24.933594 17.34375 24.890625 17.371094 24.894531 C 17.398438 24.902344 17.492188 24.90625 17.523438 25.015625 C 17.558594 25.121094 17.523438 25.042969 17.523438 25.042969 C 17.523438 25.042969 17.878906 25.058594 17.90625 25.054688 C 17.933594 25.050781 17.980469 25.015625 17.984375 24.945312 C 17.992188 24.878906 18.019531 24.839844 18.019531 24.816406 C 18.019531 24.792969 18.019531 24.679688 18.019531 24.679688 C 18.019531 24.679688 17.992188 24.617188 18.066406 24.617188 C 18.136719 24.617188 18.207031 24.667969 18.207031 24.667969 C 18.207031 24.667969 18.257812 24.617188 18.367188 24.582031 C 18.472656 24.546875 18.554688 24.535156 18.554688 24.535156 C 18.554688 24.535156 18.652344 24.417969 18.753906 24.417969 C 18.855469 24.417969 18.980469 24.433594 19.054688 24.472656 C 19.128906 24.515625 19.269531 24.472656 19.269531 24.472656 L 19.382812 24.464844 C 19.382812 24.464844 19.433594 24.433594 19.480469 24.417969 C 19.527344 24.402344 19.554688 24.308594 19.570312 24.246094 C 19.589844 24.183594 19.632812 24.167969 19.695312 24.128906 C 19.757812 24.085938 19.765625 24.015625 19.777344 23.953125 C 19.789062 23.890625 19.714844 23.847656 19.808594 23.804688 C 19.90625 23.757812 19.953125 23.785156 19.976562 23.753906 C 20 23.71875 19.925781 23.722656 20.027344 23.648438 C 20.128906 23.574219 20.214844 23.523438 20.292969 23.574219 C 20.375 23.628906 20.386719 23.660156 20.417969 23.660156 C 20.453125 23.660156 20.449219 23.621094 20.476562 23.605469 C 20.503906 23.585938 20.449219 23.574219 20.503906 23.585938 C 20.5625 23.597656 20.46875 23.597656 20.582031 23.554688 C 20.699219 23.511719 20.789062 23.472656 20.789062 23.472656 C 20.789062 23.472656 20.917969 23.347656 20.980469 23.53125 C 21.042969 23.710938 21.066406 23.707031 21.113281 23.722656 C 21.160156 23.742188 21.261719 23.785156 21.316406 23.773438 C 21.375 23.765625 21.402344 23.753906 21.425781 23.746094 C 21.449219 23.742188 21.488281 23.757812 21.535156 23.820312 C 21.578125 23.882812 21.722656 23.867188 21.722656 23.867188 C 21.722656 23.867188 21.777344 23.90625 21.800781 23.90625 C 21.824219 23.90625 21.921875 23.898438 21.921875 23.898438 C 21.921875 23.898438 21.933594 23.753906 22.050781 23.753906 C 22.171875 23.753906 22.25 23.753906 22.25 23.753906 C 22.25 23.753906 22.203125 23.71875 22.335938 23.699219 C 22.464844 23.683594 22.511719 23.734375 22.550781 23.765625 C 22.589844 23.792969 22.601562 23.816406 22.648438 23.792969 C 22.695312 23.769531 22.769531 23.679688 22.824219 23.691406 C 22.882812 23.699219 22.800781 23.621094 22.800781 23.621094 C 22.800781 23.621094 22.6875 23.574219 22.640625 23.511719 C 22.597656 23.449219 22.183594 23.460938 22.183594 23.460938 L 21.765625 22.933594 L 21.753906 22.8125 L 21.777344 22.738281 C 21.777344 22.738281 21.546875 22.625 21.546875 22.597656 C 21.546875 22.570312 21.550781 22.519531 21.550781 22.519531 L 21.550781 22.398438 C 21.550781 22.398438 21.4375 22.363281 21.417969 22.324219 C 21.402344 22.285156 21.378906 22.234375 21.402344 22.222656 C 21.425781 22.210938 21.363281 22.109375 21.363281 22.109375 L 21.335938 22 L 21.214844 21.921875 L 21.203125 21.808594 L 21.074219 21.675781 L 21.066406 21.558594 L 20.964844 21.5 L 20.960938 21.398438 L 20.863281 21.25 L 20.839844 21.160156 L 20.738281 21.121094 L 20.714844 21.015625 L 20.5 20.921875 L 20.488281 20.714844 C 20.488281 20.714844 20.515625 20.628906 20.539062 20.628906 C 20.5625 20.628906 20.574219 20.601562 20.574219 20.601562 L 20.5 20.574219 C 20.5 20.574219 20.449219 20.503906 20.449219 20.488281 C 20.449219 20.472656 20.449219 20.355469 20.449219 20.355469 L 20.488281 20.324219 L 20.476562 20.214844 L 20.316406 20.027344 C 20.316406 20.027344 20.34375 19.949219 20.355469 19.925781 C 20.367188 19.902344 20.277344 19.925781 20.277344 19.925781 L 20.21875 19.78125 L 20.214844 19.617188 C 20.214844 19.617188 20.207031 19.550781 20.207031 19.53125 C 20.207031 19.515625 20.214844 19.4375 20.214844 19.4375 L 20.21875 19.363281 L 20.230469 19.316406 L 20.164062 19.140625 L 20.09375 19.1875 L 19.957031 19.195312 L 19.867188 19.167969 L 19.652344 19.324219 C 19.652344 19.324219 19.570312 19.300781 19.558594 19.269531 C 19.550781 19.242188 19.417969 19.265625 19.417969 19.265625 L 19.265625 19.230469 L 19.058594 19.226562 C 19.058594 19.226562 18.953125 19.15625 19.019531 19.03125 C 19.089844 18.90625 19.109375 18.851562 19.078125 18.820312 C 19.042969 18.792969 19.042969 18.726562 19.042969 18.726562 C 19.042969 18.726562 19.015625 18.632812 18.941406 18.613281 C 18.867188 18.589844 18.816406 18.527344 18.816406 18.480469 C 18.816406 18.433594 18.617188 18.332031 18.578125 18.320312 C 18.535156 18.308594 18.480469 18.320312 18.433594 18.207031 C 18.390625 18.09375 18.378906 17.929688 18.378906 17.929688 C 18.378906 17.929688 18.292969 17.695312 18.242188 17.65625 C 18.191406 17.617188 18.148438 17.582031 18.148438 17.582031 L 18.132812 17.507812 C 18.132812 17.507812 18.046875 17.417969 17.960938 17.359375 C 17.878906 17.304688 17.796875 17.207031 17.796875 17.207031 C 17.796875 17.207031 17.746094 16.992188 17.746094 16.949219 C 17.746094 16.910156 17.742188 16.855469 17.730469 16.824219 C 17.71875 16.796875 17.671875 16.746094 17.671875 16.746094 C 17.671875 16.746094 17.667969 16.582031 17.78125 16.496094 C 17.894531 16.410156 18.035156 16.234375 18.035156 16.234375 C 18.035156 16.234375 18.074219 16.03125 18.066406 16.011719 C 18.054688 15.996094 18.023438 15.898438 18.023438 15.898438 L 18.15625 15.71875 L 18.378906 15.144531 C 18.378906 15.144531 18.410156 15.070312 18.390625 15.015625 C 18.367188 14.964844 18.269531 14.910156 18.269531 14.859375 C 18.269531 14.808594 18.273438 14.714844 18.195312 14.703125 C 18.117188 14.691406 18.109375 14.683594 18.144531 14.574219 C 18.179688 14.464844 18.347656 14.199219 18.417969 14.179688 C 18.484375 14.164062 18.59375 14.179688 18.628906 14.179688 C 18.660156 14.179688 18.660156 14.085938 18.730469 14.035156 C 18.796875 13.984375 18.847656 13.914062 18.894531 13.914062 C 18.941406 13.914062 19.046875 13.949219 19.105469 13.953125 C 19.164062 13.960938 19.253906 13.9375 19.316406 13.914062 C 19.378906 13.890625 19.421875 13.972656 19.507812 13.972656 C 19.59375 13.972656 19.617188 13.921875 19.667969 13.9375 C 19.71875 13.953125 19.707031 14.011719 19.804688 13.953125 C 19.902344 13.898438 19.90625 13.945312 19.941406 13.910156 C 19.976562 13.875 20.027344 13.839844 20.027344 13.839844 L 20.140625 13.875 L 20.039062 13.738281 C 20.039062 13.738281 20 13.6875 20.042969 13.648438 C 20.089844 13.605469 20.132812 13.566406 20.125 13.511719 C 20.113281 13.453125 20.152344 13.363281 20.191406 13.355469 C 20.230469 13.351562 20.328125 13.398438 20.367188 13.441406 C 20.40625 13.488281 20.441406 13.382812 20.441406 13.355469 C 20.441406 13.332031 20.339844 13.152344 20.339844 13.152344 L 20.242188 13.101562 L 20.214844 13.128906 L 20.265625 13.179688 L 20.265625 13.273438 L 20.1875 13.242188 L 20.132812 13.191406 L 20.125 13.019531 L 20.113281 12.980469 L 20.03125 12.980469 C 20.03125 12.980469 19.957031 12.976562 20 12.90625 C 20.039062 12.839844 20.191406 12.71875 20.191406 12.71875 L 20.207031 12.464844 L 20.21875 12.414062 C 20.21875 12.414062 20.277344 12.382812 20.300781 12.363281 C 20.324219 12.339844 20.488281 12.03125 20.511719 11.941406 C 20.53125 11.851562 20.511719 11.667969 20.511719 11.667969 L 20.464844 11.527344 C 20.464844 11.527344 20.464844 11.484375 20.480469 11.46875 C 20.5 11.453125 20.511719 11.367188 20.511719 11.367188 L 20.5625 11.144531 L 20.578125 11.003906 L 20.601562 10.894531 C 20.601562 10.894531 20.582031 10.871094 20.5625 10.832031 C 20.539062 10.792969 20.527344 10.757812 20.527344 10.757812 L 20.527344 10.585938 C 20.527344 10.585938 20.457031 10.503906 20.453125 10.480469 C 20.449219 10.457031 20.457031 10.359375 20.457031 10.359375 L 20.355469 10.242188 L 20.007812 9.933594 L 19.855469 9.859375 L 19.695312 9.804688 L 19.589844 9.730469 C 19.589844 9.730469 19.421875 9.699219 19.429688 9.730469 C 19.433594 9.757812 19.441406 9.910156 19.441406 9.910156 L 19.382812 9.921875 C 19.382812 9.921875 19.316406 9.773438 19.289062 9.738281 C 19.257812 9.707031 19.144531 9.636719 19.164062 9.570312 C 19.183594 9.5 19.09375 9.382812 19.066406 9.34375 C 19.039062 9.300781 18.820312 9.171875 18.757812 9.148438 C 18.695312 9.125 18.429688 8.851562 18.410156 8.824219 C 18.394531 8.796875 18.125 8.554688 18.125 8.554688 L 18.039062 8.449219 C 18.039062 8.449219 17.792969 8.25 17.679688 8.25 C 17.566406 8.25 17.269531 8.25 17.269531 8.25 C 17.269531 8.25 17.078125 8.105469 17.039062 8.078125 C 16.996094 8.050781 16.734375 8.023438 16.609375 8.039062 C 16.4375 8.058594 16.273438 8.367188 16.273438 8.367188 L 16.265625 8.464844 C 16.265625 8.464844 16.140625 8.59375 16.109375 8.667969 C 16.082031 8.742188 16.007812 8.96875 16.007812 8.96875 L 15.996094 9.289062 L 15.972656 9.429688 L 15.980469 9.488281 L 15.941406 9.523438 L 15.878906 9.574219 L 15.808594 9.5625 L 15.742188 9.636719 L 15.691406 9.671875 L 15.664062 9.578125 L 15.796875 9.425781 L 15.839844 9.339844 L 15.875 9.261719 C 15.875 9.261719 15.886719 9.199219 15.886719 9.175781 C 15.886719 9.152344 15.871094 9.085938 15.871094 9.0625 C 15.871094 9.039062 15.882812 8.851562 15.882812 8.851562 L 15.886719 8.601562 L 15.914062 8.566406 L 15.914062 8.261719 L 16.011719 7.882812 L 16.101562 7.746094 L 16.25 7.65625 L 16.261719 7.441406 L 16.273438 7.40625 L 16.269531 7.109375 L 16.261719 6.859375 L 16.273438 6.570312 L 16.058594 6.292969 L 15.960938 6.207031 L 15.898438 6.136719 L 15.839844 6.046875 C 15.839844 6.046875 15.8125 5.957031 15.796875 5.933594 C 15.777344 5.910156 15.664062 5.804688 15.664062 5.804688 L 15.578125 5.6875 L 15.535156 5.6875 L 15.484375 5.65625 L 15.484375 5.730469 L 15.398438 5.707031 L 15.351562 5.59375 L 15.289062 5.507812 L 15.1875 5.382812 C 15.1875 5.382812 15.125 5.347656 15.109375 5.324219 C 15.089844 5.300781 15 5.195312 15 5.195312 L 14.714844 4.980469 L 14.550781 4.835938 L 14.210938 4.5 C 14.210938 4.5 14.050781 4.335938 13.96875 4.339844 C 13.890625 4.347656 13.875 4.25 13.875 4.25 L 13.453125 4.011719 L 13.132812 3.847656 L 12.90625 3.722656 L 12.816406 3.675781 L 12.734375 3.640625 L 12.667969 3.585938 L 12.160156 3.285156 C 12.160156 3.285156 11.996094 3.328125 12.117188 3.4375 C 12.152344 3.46875 12.195312 3.5 12.238281 3.519531 C 12.34375 3.574219 12.449219 3.609375 12.46875 3.625 C 12.496094 3.648438 12.578125 3.671875 12.578125 3.671875 C 12.578125 3.671875 12.644531 3.761719 12.667969 3.765625 C 12.691406 3.773438 12.78125 3.796875 12.796875 3.796875 C 12.816406 3.796875 12.855469 3.796875 12.855469 3.796875 C 12.855469 3.796875 13.203125 4.070312 13.183594 4.078125 C 13.167969 4.089844 13.195312 4.148438 13.195312 4.148438 C 13.195312 4.148438 13.121094 4.152344 13.117188 4.132812 C 13.113281 4.109375 12.871094 3.886719 12.871094 3.886719 L 12.804688 3.839844 L 12.652344 3.839844 L 12.515625 3.714844 L 12.429688 3.660156 C 12.429688 3.660156 12.355469 3.648438 12.339844 3.648438 C 12.320312 3.648438 12.203125 3.550781 12.203125 3.550781 C 12.203125 3.550781 12.078125 3.496094 12.046875 3.496094 C 12.019531 3.496094 11.882812 3.421875 11.882812 3.421875 L 11.734375 3.25 L 11.523438 2.992188 L 11.417969 2.90625 L 11.769531 3.355469 L 11.996094 3.625 L 11.972656 3.703125 C 11.972656 3.703125 11.945312 3.71875 11.941406 3.738281 C 11.933594 3.753906 11.917969 3.804688 11.917969 3.804688 L 11.890625 3.820312 C 11.890625 3.820312 11.832031 3.878906 11.78125 3.878906 C 11.730469 3.878906 11.617188 3.914062 11.617188 3.914062 L 11.542969 3.941406 L 11.503906 4.011719 C 11.503906 4.011719 11.417969 3.980469 11.417969 4.125 C 11.417969 4.265625 11.457031 4.15625 11.417969 4.214844 C 11.378906 4.273438 11.382812 4.292969 11.378906 4.328125 C 11.371094 4.363281 11.359375 4.414062 11.332031 4.441406 C 11.304688 4.46875 11.136719 4.46875 11.136719 4.46875 L 11.035156 4.488281 C 11.035156 4.488281 10.9375 4.542969 10.921875 4.585938 C 10.90625 4.625 10.894531 4.648438 10.894531 4.648438 L 10.683594 4.722656 C 10.683594 4.722656 10.613281 4.792969 10.605469 4.8125 C 10.59375 4.828125 10.371094 5.003906 10.371094 5.003906 C 10.371094 5.003906 10.3125 5.089844 10.308594 5.125 C 10.300781 5.160156 10.183594 5.164062 10.183594 5.164062 L 10.03125 5.175781 L 9.882812 5.179688 C 9.882812 5.179688 9.773438 5.199219 9.734375 5.242188 C 9.695312 5.289062 9.632812 5.410156 9.625 5.425781 C 9.621094 5.441406 9.582031 5.460938 9.582031 5.460938 L 9.621094 5.527344 L 9.609375 5.609375 L 9.582031 5.652344 L 9.515625 5.773438 L 9.445312 5.785156 L 9.445312 5.851562 C 9.445312 5.851562 9.390625 5.914062 9.382812 5.976562 C 9.371094 6.039062 9.257812 6 9.257812 6 C 9.257812 6 9.171875 6.035156 9.175781 6.070312 C 9.183594 6.101562 9.222656 6.300781 9.257812 6.320312 C 9.289062 6.335938 9.359375 6.320312 9.371094 6.347656 C 9.382812 6.375 9.390625 6.398438 9.390625 6.425781 C 9.390625 6.457031 9.390625 6.476562 9.390625 6.476562 C 9.390625 6.476562 9.4375 6.523438 9.472656 6.527344 C 9.507812 6.535156 9.511719 6.621094 9.527344 6.632812 C 9.546875 6.644531 9.5625 6.695312 9.5625 6.695312 C 9.5625 6.695312 9.609375 6.714844 9.582031 6.757812 C 9.550781 6.796875 9.464844 6.871094 9.464844 6.910156 C 9.464844 6.949219 9.433594 7.082031 9.496094 7.125 C 9.558594 7.171875 9.734375 7.347656 9.734375 7.347656 C 9.734375 7.347656 9.808594 7.320312 9.808594 7.28125 C 9.808594 7.238281 9.832031 7.199219 9.832031 7.199219 L 9.898438 7.171875 L 9.949219 7.144531 L 10.011719 7.097656 C 10.011719 7.097656 10.144531 7.230469 10.175781 7.207031 C 10.210938 7.183594 10.269531 7.171875 10.269531 7.171875 L 10.363281 7.230469 L 10.394531 7.285156 L 10.457031 7.285156 L 10.550781 7.371094 L 10.550781 7.425781 L 10.542969 7.53125 C 10.542969 7.53125 10.53125 7.574219 10.523438 7.59375 C 10.519531 7.609375 10.324219 7.773438 10.324219 7.773438 L 10.332031 7.980469 L 10.257812 7.96875 C 10.257812 7.96875 10.144531 7.957031 10.113281 7.96875 C 10.085938 7.980469 9.960938 8.136719 9.898438 8.136719 C 9.835938 8.136719 9.835938 8.136719 9.835938 8.136719 C 9.835938 8.136719 9.777344 8.230469 9.761719 8.234375 C 9.746094 8.242188 9.636719 8.257812 9.5625 8.269531 C 9.488281 8.28125 9.4375 8.332031 9.414062 8.359375 C 9.390625 8.390625 9.351562 8.480469 9.296875 8.515625 C 9.238281 8.546875 9.210938 8.585938 9.148438 8.546875 C 9.085938 8.507812 9.011719 8.472656 9.011719 8.472656 L 8.796875 8.484375 L 8.628906 8.398438 L 8.609375 8.429688 L 8.640625 8.492188 L 8.648438 8.535156 L 8.609375 8.578125 C 8.578125 8.621094 8.535156 8.65625 8.535156 8.65625 C 8.535156 8.65625 8.449219 8.710938 8.402344 8.683594 C 8.359375 8.65625 8.347656 8.644531 8.300781 8.671875 C 8.253906 8.703125 8.242188 8.746094 8.203125 8.71875 C 8.164062 8.691406 8.128906 8.648438 8.105469 8.679688 C 8.085938 8.707031 8.078125 8.746094 8.078125 8.746094 C 8.078125 8.746094 8 8.703125 7.976562 8.703125 C 7.953125 8.703125 7.875 8.765625 7.855469 8.785156 C 7.839844 8.808594 7.792969 8.902344 7.792969 8.902344 C 7.792969 8.902344 7.75 9.054688 7.738281 9.078125 C 7.726562 9.097656 7.71875 9.105469 7.703125 9.132812 C 7.6875 9.160156 7.726562 9.195312 7.726562 9.195312 L 7.742188 9.277344 C 7.742188 9.277344 7.824219 9.253906 7.839844 9.320312 C 7.855469 9.390625 7.855469 9.453125 7.855469 9.453125 C 7.855469 9.453125 7.917969 9.519531 7.90625 9.578125 C 7.898438 9.632812 7.890625 9.800781 7.867188 9.851562 C 7.84375 9.902344 8.023438 10.070312 8.023438 10.070312 L 8.027344 10.144531 L 8 10.34375 L 7.964844 10.382812 C 7.964844 10.382812 7.890625 10.363281 7.863281 10.375 C 7.835938 10.382812 7.804688 10.519531 7.804688 10.519531 C 7.804688 10.519531 7.789062 10.566406 7.730469 10.574219 C 7.675781 10.578125 7.59375 10.589844 7.554688 10.628906 C 7.515625 10.667969 7.332031 11.003906 7.28125 11.042969 C 7.230469 11.085938 7.1875 11.105469 7.1875 11.105469 C 7.1875 11.105469 7.117188 11.078125 7.140625 11.136719 C 7.164062 11.191406 9.214844 13.414062 9.214844 13.414062 C 9.214844 13.414062 9.421875 13.359375 9.464844 13.386719 C 9.511719 13.414062 9.632812 13.359375 9.636719 13.375 C 9.644531 13.394531 9.738281 13.472656 9.769531 13.46875 C 9.796875 13.460938 9.972656 13.414062 9.972656 13.414062 C 9.972656 13.414062 10.085938 13.46875 10.113281 13.488281 C 10.144531 13.511719 10.234375 13.398438 10.234375 13.398438 C 10.234375 13.398438 10.324219 13.40625 10.386719 13.421875 C 10.449219 13.4375 10.511719 13.4375 10.535156 13.410156 C 10.558594 13.382812 10.609375 13.351562 10.609375 13.351562 L 10.648438 13.332031 C 10.648438 13.332031 10.859375 13.0625 10.960938 13.234375 C 11.0625 13.40625 10.960938 13.3125 11.007812 13.3125 C 11.054688 13.3125 11.085938 13.269531 11.132812 13.269531 C 11.179688 13.269531 11.222656 13.335938 11.253906 13.414062 C 11.28125 13.496094 11.347656 13.632812 11.398438 13.648438 C 11.449219 13.664062 11.660156 13.738281 11.644531 13.84375 C 11.628906 13.945312 11.59375 14.050781 11.59375 14.050781 C 11.59375 14.050781 11.585938 14.21875 11.574219 14.25 C 11.566406 14.285156 11.558594 14.332031 11.558594 14.332031 L 11.523438 14.347656 L 11.546875 14.605469 L 11.511719 14.632812 L 11.492188 14.699219 C 11.492188 14.699219 11.484375 14.886719 11.484375 14.910156 C 11.484375 14.933594 11.472656 15.003906 11.472656 15.003906 L 11.433594 15.070312 L 11.34375 15.140625 L 11.332031 15.265625 C 11.332031 15.265625 11.269531 15.359375 11.234375 15.34375 C 11.199219 15.328125 11.15625 15.402344 11.15625 15.402344 L 11.085938 15.394531 L 11.105469 15.578125 C 11.105469 15.578125 11.1875 15.621094 11.210938 15.609375 C 11.234375 15.597656 11.246094 15.535156 11.246094 15.535156 C 11.246094 15.535156 11.355469 15.507812 11.359375 15.546875 C 11.367188 15.589844 11.382812 15.628906 11.398438 15.632812 C 11.417969 15.640625 11.484375 15.652344 11.484375 15.652344 C 11.484375 15.652344 11.519531 15.597656 11.542969 15.617188 C 11.566406 15.632812 11.609375 15.644531 11.609375 15.644531 L 11.65625 15.617188 C 11.65625 15.617188 11.734375 15.578125 11.859375 15.660156 L 11.871094 15.691406 C 11.871094 15.691406 11.929688 15.660156 11.953125 15.660156 C 11.972656 15.660156 12.007812 15.691406 12.019531 15.714844 C 12.03125 15.734375 12.121094 15.71875 12.121094 15.71875 L 12.179688 15.714844 L 12.546875 15.96875 C 12.546875 15.96875 12.582031 15.9375 12.589844 15.96875 C 12.59375 15.996094 12.59375 16.070312 12.59375 16.070312 L 12.578125 16.132812 L 12.527344 16.171875 L 12.453125 16.253906 L 12.480469 16.355469 L 12.457031 16.433594 C 12.457031 16.433594 12.390625 16.550781 12.480469 16.628906 C 12.570312 16.707031 12.632812 16.707031 12.632812 16.707031 C 12.632812 16.707031 12.765625 16.726562 12.726562 16.84375 C 12.683594 16.964844 12.667969 16.988281 12.714844 17 C 12.757812 17.007812 12.792969 17.015625 12.792969 17.03125 C 12.792969 17.050781 12.804688 17.082031 12.816406 17.101562 C 12.828125 17.117188 12.894531 17.167969 12.902344 17.191406 C 12.90625 17.214844 12.929688 17.261719 12.929688 17.261719 C 12.929688 17.261719 13.050781 17.261719 13.070312 17.324219 C 13.09375 17.386719 13.09375 17.417969 13.09375 17.417969 C 13.09375 17.417969 13.003906 17.464844 12.96875 17.5 C 12.933594 17.53125 12.902344 17.59375 12.894531 17.628906 C 12.890625 17.664062 12.917969 17.78125 12.917969 17.78125 C 12.917969 17.78125 12.929688 17.851562 12.890625 17.867188 C 12.851562 17.886719 12.714844 17.9375 12.683594 17.953125 C 12.65625 17.972656 12.632812 18.027344 12.632812 18.027344 L 12.652344 18.117188 L 12.617188 18.210938 C 12.617188 18.210938 12.542969 18.179688 12.492188 18.261719 C 12.441406 18.339844 12.371094 18.375 12.34375 18.390625 C 12.316406 18.410156 12.296875 18.441406 12.296875 18.441406 C 12.296875 18.441406 12.128906 18.441406 12.09375 18.5 C 12.058594 18.554688 12.070312 18.617188 12.070312 18.617188 C 12.070312 18.617188 12.109375 18.773438 12.152344 18.796875 C 12.191406 18.816406 12.160156 18.898438 12.160156 18.898438 L 12.132812 18.972656 L 12.171875 19.046875 L 12.179688 19.175781 L 12.195312 19.234375 L 12.15625 19.273438 L 12.109375 19.300781 L 12.109375 19.414062 L 11.972656 19.644531 L 11.945312 19.707031 L 11.894531 19.75 L 11.921875 19.847656 L 11.90625 19.949219 L 11.769531 20.125 C 11.769531 20.125 11.785156 20.257812 11.734375 20.289062 C 11.683594 20.324219 11.730469 20.355469 11.730469 20.355469 C 11.730469 20.355469 11.773438 20.433594 11.671875 20.636719 L 11.644531 21.378906 C 11.644531 21.378906 11.769531 21.429688 11.730469 21.640625 L 11.828125 21.695312 C 11.828125 21.695312 11.816406 21.882812 11.890625 21.996094 C 11.960938 22.109375 11.929688 22.28125 11.933594 22.304688 C 11.941406 22.328125 11.898438 22.367188 11.898438 22.367188 L 11.941406 22.402344 L 12.105469 22.503906 L 12.171875 22.542969 L 12.21875 22.609375 L 12.316406 22.605469 C 12.316406 22.605469 12.417969 22.617188 12.433594 22.652344 C 12.453125 22.683594 12.464844 22.914062 12.464844 22.914062 L 12.429688 22.953125 C 12.429688 22.953125 12.464844 23.054688 12.464844 23.121094 C 12.464844 23.191406 12.457031 23.253906 12.433594 23.265625 C 12.410156 23.277344 12.417969 23.339844 12.453125 23.417969 C 12.484375 23.5 12.445312 23.652344 12.445312 23.652344 L 12.394531 23.738281 L 12.390625 23.824219 C 12.390625 23.824219 12.433594 23.988281 12.417969 24 C 12.417969 24 12.492188 23.953125 12.566406 23.96875 C 12.640625 23.988281 12.726562 24.011719 12.742188 24.027344 C 12.757812 24.042969 12.777344 24.09375 12.753906 24.113281 C 12.730469 24.128906 12.683594 24.210938 12.679688 24.226562 C 12.671875 24.242188 12.609375 24.277344 12.703125 24.339844 C 12.792969 24.402344 12.78125 24.425781 12.839844 24.40625 C 12.894531 24.390625 12.953125 24.367188 13.003906 24.386719 C 13.054688 24.402344 13.058594 24.355469 13.183594 24.5625 C 13.3125 24.765625 13.328125 24.722656 13.34375 24.726562 C 13.363281 24.730469 13.417969 24.777344 13.417969 24.8125 C 13.417969 24.847656 13.453125 24.925781 13.453125 24.925781 C 13.453125 24.925781 13.5 24.929688 13.527344 24.960938 C 13.554688 24.988281 13.617188 25.097656 13.617188 25.097656 C 13.617188 25.097656 13.6875 25.023438 13.71875 25.039062 C 13.753906 25.054688 13.769531 25.101562 13.769531 25.101562 L 13.769531 25.171875 C 13.769531 25.171875 13.804688 25.148438 13.855469 25.246094 C 13.855469 25.246094 13.894531 25.484375 14 25.496094 C 14.101562 25.503906 14.238281 25.5625 14.238281 25.5625 C 14.238281 25.5625 14.386719 25.601562 14.414062 25.621094 C 14.441406 25.636719 14.535156 25.652344 14.535156 25.652344 L 14.828125 25.652344 C 14.828125 25.652344 15.113281 25.800781 15.113281 25.835938 C 15.113281 25.871094 15.117188 25.9375 15.117188 25.9375 C 15.117188 25.9375 15.074219 25.964844 15.101562 25.988281 C 15.128906 26.011719 15.351562 26.125 15.351562 26.125 Z M 15.484375 26.0625 " fill-opacity="1" fill-rule="nonzero"/></g><path fill="#014d4e" d="M 16.058594 8.042969 C 16.058594 8.042969 16.132812 7.917969 16.144531 7.902344 C 16.15625 7.890625 16.191406 7.855469 16.191406 7.855469 L 16.191406 7.8125 L 16.15625 7.8125 C 16.15625 7.8125 16.066406 7.960938 16.058594 8.042969 Z M 16.058594 8.042969 " fill-opacity="1" fill-rule="nonzero"/><path fill="#014d4e" d="M 16.210938 7.929688 C 16.222656 7.925781 16.261719 7.929688 16.261719 7.929688 C 16.261719 7.929688 16.328125 7.851562 16.335938 7.839844 C 16.339844 7.828125 16.335938 7.785156 16.359375 7.78125 C 16.382812 7.773438 16.464844 7.679688 16.464844 7.679688 L 16.5 7.660156 L 16.519531 7.625 L 16.5 7.605469 L 16.492188 7.582031 L 16.453125 7.5625 L 16.417969 7.574219 L 16.394531 7.574219 L 16.398438 7.664062 L 16.367188 7.691406 L 16.328125 7.722656 L 16.304688 7.761719 L 16.304688 7.832031 L 16.269531 7.875 Z M 16.210938 7.929688 " fill-opacity="1" fill-rule="nonzero"/><path fill="#014d4e" d="M 16.042969 8.488281 L 16.085938 8.265625 C 16.085938 8.265625 16.140625 8.148438 16.140625 8.140625 C 16.144531 8.132812 16.191406 8.03125 16.191406 8.03125 L 16.210938 7.988281 L 16.261719 7.988281 L 16.261719 8.125 L 16.238281 8.175781 L 16.042969 8.488281 " fill-opacity="1" fill-rule="nonzero"/><path fill="#014d4e" d="M 16.332031 7.988281 L 16.417969 7.839844 L 16.507812 7.765625 L 16.554688 7.746094 L 16.683594 7.746094 L 16.722656 7.757812 L 16.742188 7.792969 L 16.722656 7.816406 L 16.660156 7.84375 C 16.660156 7.84375 16.644531 7.855469 16.636719 7.867188 C 16.628906 7.878906 16.582031 7.898438 16.574219 7.898438 C 16.566406 7.898438 16.515625 7.90625 16.515625 7.90625 L 16.449219 7.929688 L 16.40625 7.960938 L 16.367188 7.988281 L 16.335938 8 L 16.335938 7.988281 Z M 16.332031 7.988281 " fill-opacity="1" fill-rule="nonzero"/></svg>