<svg xmlns="http://www.w3.org/2000/svg" xmlns:xlink="http://www.w3.org/1999/xlink" width="40" zoomAndPan="magnify" viewBox="0 0 30 30.000001" height="40" preserveAspectRatio="xMidYMid meet" version="1.0"><defs><clipPath id="3a8e02318a"><path d="M 3.386719 8.710938 L 26.613281 8.710938 L 26.613281 20.324219 L 3.386719 20.324219 Z M 3.386719 8.710938 " clip-rule="nonzero"/></clipPath></defs><g clip-path="url(#3a8e02318a)"><path fill="#014d4e" d="M 15.863281 8.738281 C 15.863281 8.792969 15.90625 8.8125 16.054688 8.824219 C 16.183594 8.835938 16.1875 8.835938 16.199219 8.925781 C 16.210938 9.007812 16.207031 9.019531 16.128906 9.070312 C 15.984375 9.160156 15.914062 9.179688 15.726562 9.207031 C 15.605469 9.21875 15.527344 9.21875 15.496094 9.207031 C 15.464844 9.1875 15.429688 9.191406 15.367188 9.214844 C 15.316406 9.234375 15.238281 9.257812 15.195312 9.265625 C 15.140625 9.273438 15.054688 9.328125 14.945312 9.421875 C 14.855469 9.503906 14.757812 9.566406 14.726562 9.566406 C 14.699219 9.566406 14.652344 9.585938 14.621094 9.609375 C 14.582031 9.632812 14.507812 9.652344 14.433594 9.65625 C 14.332031 9.660156 14.289062 9.648438 14.195312 9.589844 L 14.082031 9.523438 L 13.925781 9.558594 C 13.835938 9.578125 13.601562 9.597656 13.367188 9.601562 C 13.007812 9.613281 12.957031 9.617188 12.914062 9.65625 C 12.882812 9.683594 12.808594 9.710938 12.742188 9.722656 C 12.539062 9.75 12.253906 9.742188 12.230469 9.707031 C 12.222656 9.695312 12.078125 9.671875 11.90625 9.652344 C 11.574219 9.609375 11.480469 9.59375 11.273438 9.53125 C 11.203125 9.507812 11.101562 9.480469 11.046875 9.46875 C 11 9.457031 10.9375 9.433594 10.914062 9.421875 C 10.882812 9.40625 10.855469 9.417969 10.808594 9.460938 C 10.773438 9.492188 10.722656 9.519531 10.691406 9.519531 C 10.660156 9.519531 10.617188 9.546875 10.582031 9.59375 C 10.53125 9.664062 10.519531 9.667969 10.429688 9.652344 C 10.375 9.644531 10.304688 9.613281 10.269531 9.589844 C 10.230469 9.5625 10.167969 9.542969 10.125 9.542969 L 10.046875 9.542969 L 10.097656 9.597656 C 10.160156 9.664062 10.164062 9.6875 10.113281 9.6875 C 10.09375 9.6875 10.078125 9.675781 10.078125 9.660156 C 10.078125 9.636719 10.03125 9.636719 9.933594 9.667969 C 9.914062 9.675781 9.90625 9.675781 9.917969 9.667969 C 9.925781 9.660156 9.933594 9.625 9.933594 9.589844 C 9.933594 9.550781 9.957031 9.496094 9.980469 9.472656 C 10.007812 9.445312 10.03125 9.410156 10.03125 9.390625 C 10.03125 9.339844 9.941406 9.273438 9.894531 9.289062 C 9.871094 9.296875 9.847656 9.296875 9.839844 9.285156 C 9.816406 9.253906 9.605469 9.136719 9.570312 9.136719 C 9.550781 9.136719 9.519531 9.152344 9.503906 9.171875 C 9.480469 9.199219 9.445312 9.207031 9.355469 9.195312 C 9.234375 9.179688 9.125 9.207031 8.976562 9.28125 C 8.929688 9.308594 8.851562 9.328125 8.804688 9.328125 C 8.722656 9.328125 8.667969 9.359375 8.667969 9.414062 C 8.667969 9.433594 8.6875 9.445312 8.714844 9.445312 C 8.742188 9.445312 8.761719 9.464844 8.761719 9.484375 C 8.761719 9.527344 8.527344 9.636719 8.441406 9.636719 C 8.40625 9.636719 8.382812 9.652344 8.382812 9.667969 C 8.382812 9.699219 8.28125 9.792969 8.199219 9.84375 C 8.171875 9.859375 8.152344 9.894531 8.152344 9.925781 C 8.152344 9.988281 8.042969 10.054688 7.96875 10.03125 C 7.941406 10.023438 7.875 9.984375 7.824219 9.945312 C 7.710938 9.863281 7.671875 9.859375 7.652344 9.921875 C 7.644531 9.949219 7.585938 9.988281 7.511719 10.011719 C 7.414062 10.050781 7.382812 10.074219 7.367188 10.128906 C 7.34375 10.214844 6.503906 10.96875 6.414062 10.992188 C 6.378906 11 6.28125 11.082031 6.195312 11.179688 C 6.066406 11.320312 5.988281 11.375 5.765625 11.5 C 5.617188 11.582031 5.40625 11.722656 5.296875 11.816406 C 5.007812 12.054688 4.835938 12.164062 4.664062 12.21875 C 4.527344 12.261719 4.367188 12.335938 4.296875 12.394531 C 4.28125 12.410156 4.246094 12.464844 4.21875 12.515625 L 4.171875 12.613281 L 4.238281 12.679688 L 4.300781 12.746094 L 4.230469 12.878906 C 4.191406 12.953125 4.132812 13.035156 4.09375 13.058594 C 4.003906 13.125 4.011719 13.1875 4.125 13.351562 C 4.175781 13.433594 4.226562 13.523438 4.238281 13.554688 C 4.242188 13.589844 4.277344 13.65625 4.3125 13.699219 C 4.359375 13.765625 4.363281 13.789062 4.34375 13.828125 C 4.328125 13.859375 4.3125 13.957031 4.3125 14.050781 L 4.304688 14.214844 L 4.148438 14.210938 C 4 14.199219 3.988281 14.203125 3.964844 14.257812 C 3.949219 14.292969 3.914062 14.328125 3.886719 14.335938 C 3.863281 14.34375 3.832031 14.371094 3.824219 14.398438 C 3.816406 14.421875 3.800781 14.445312 3.789062 14.445312 C 3.777344 14.445312 3.75 14.476562 3.730469 14.511719 C 3.710938 14.550781 3.667969 14.589844 3.636719 14.597656 C 3.570312 14.613281 3.535156 14.695312 3.5625 14.777344 C 3.574219 14.8125 3.597656 14.824219 3.648438 14.824219 C 3.6875 14.824219 3.820312 14.875 3.941406 14.933594 C 4.066406 14.992188 4.195312 15.042969 4.230469 15.042969 C 4.265625 15.042969 4.355469 15.074219 4.429688 15.113281 C 4.507812 15.15625 4.597656 15.183594 4.652344 15.183594 C 4.753906 15.183594 4.792969 15.230469 4.792969 15.339844 C 4.792969 15.378906 4.808594 15.410156 4.835938 15.414062 C 4.859375 15.421875 4.925781 15.496094 4.984375 15.585938 C 5.089844 15.742188 5.09375 15.746094 5.207031 15.753906 C 5.308594 15.761719 5.328125 15.773438 5.40625 15.871094 C 5.457031 15.929688 5.519531 16 5.539062 16.027344 C 5.585938 16.074219 5.703125 16.082031 5.773438 16.046875 C 5.8125 16.023438 5.828125 16.03125 5.859375 16.089844 C 5.878906 16.132812 5.894531 16.1875 5.894531 16.21875 C 5.894531 16.285156 6.019531 16.367188 6.214844 16.429688 C 6.296875 16.457031 6.386719 16.488281 6.417969 16.507812 C 6.460938 16.53125 6.492188 16.535156 6.542969 16.519531 C 6.636719 16.484375 6.683594 16.527344 6.683594 16.652344 C 6.683594 16.949219 6.851562 17.125 6.988281 16.964844 C 7.042969 16.90625 7.121094 16.886719 7.148438 16.929688 C 7.171875 16.964844 7.246094 16.957031 7.277344 16.921875 C 7.296875 16.894531 7.332031 16.890625 7.386719 16.898438 C 7.484375 16.914062 7.613281 16.851562 7.613281 16.785156 C 7.613281 16.757812 7.660156 16.691406 7.714844 16.636719 C 7.8125 16.542969 7.824219 16.539062 7.960938 16.53125 C 8.039062 16.53125 8.144531 16.539062 8.195312 16.550781 C 8.269531 16.570312 8.289062 16.585938 8.300781 16.644531 C 8.308594 16.679688 8.339844 16.730469 8.371094 16.75 C 8.40625 16.773438 8.445312 16.828125 8.464844 16.871094 C 8.503906 16.964844 8.527344 16.96875 8.644531 16.910156 C 8.6875 16.882812 8.742188 16.871094 8.757812 16.875 C 8.777344 16.882812 8.855469 16.875 8.933594 16.859375 C 9.039062 16.832031 9.082031 16.832031 9.105469 16.855469 C 9.117188 16.871094 9.183594 16.882812 9.246094 16.882812 C 9.332031 16.882812 9.367188 16.894531 9.390625 16.929688 C 9.40625 16.957031 9.433594 16.976562 9.449219 16.976562 C 9.464844 16.976562 9.492188 17 9.507812 17.03125 C 9.523438 17.0625 9.550781 17.09375 9.566406 17.105469 C 9.609375 17.128906 9.609375 17.265625 9.5625 17.351562 C 9.542969 17.390625 9.527344 17.449219 9.527344 17.480469 C 9.527344 17.519531 9.511719 17.550781 9.492188 17.5625 C 9.464844 17.570312 9.457031 17.613281 9.457031 17.707031 C 9.457031 17.796875 9.4375 17.875 9.40625 17.941406 C 9.375 18 9.351562 18.089844 9.351562 18.160156 L 9.347656 18.28125 L 9.449219 18.292969 C 9.570312 18.308594 9.566406 18.308594 9.585938 18.417969 C 9.601562 18.488281 9.597656 18.507812 9.554688 18.53125 C 9.519531 18.546875 9.488281 18.546875 9.445312 18.527344 C 9.394531 18.503906 9.378906 18.507812 9.335938 18.542969 C 9.273438 18.597656 9.273438 18.652344 9.339844 18.652344 C 9.40625 18.652344 9.480469 18.695312 9.480469 18.734375 C 9.480469 18.800781 9.574219 18.800781 9.636719 18.734375 C 9.667969 18.699219 9.691406 18.660156 9.679688 18.648438 C 9.675781 18.636719 9.675781 18.597656 9.683594 18.558594 C 9.695312 18.503906 9.707031 18.492188 9.746094 18.503906 C 9.789062 18.511719 9.796875 18.507812 9.78125 18.453125 C 9.769531 18.398438 9.773438 18.386719 9.820312 18.386719 C 9.851562 18.386719 9.894531 18.410156 9.917969 18.4375 C 9.945312 18.46875 9.976562 18.480469 10 18.472656 C 10.066406 18.445312 10.082031 18.445312 10.09375 18.476562 C 10.101562 18.492188 10.089844 18.507812 10.066406 18.507812 C 10.019531 18.507812 10.019531 18.597656 10.066406 18.691406 C 10.09375 18.75 10.121094 18.769531 10.191406 18.777344 C 10.242188 18.78125 10.296875 18.777344 10.316406 18.757812 C 10.335938 18.742188 10.371094 18.722656 10.394531 18.714844 C 10.417969 18.707031 10.4375 18.691406 10.433594 18.683594 C 10.425781 18.632812 10.445312 18.628906 10.523438 18.664062 C 10.589844 18.691406 10.617188 18.691406 10.628906 18.671875 C 10.648438 18.640625 10.761719 18.660156 10.8125 18.703125 C 10.851562 18.738281 10.808594 18.8125 10.734375 18.84375 C 10.667969 18.867188 10.628906 18.941406 10.671875 18.957031 C 10.714844 18.972656 10.703125 19.003906 10.652344 19.015625 C 10.628906 19.023438 10.601562 19.054688 10.597656 19.082031 C 10.585938 19.171875 10.519531 19.195312 10.429688 19.144531 C 10.371094 19.113281 10.351562 19.109375 10.339844 19.132812 C 10.300781 19.195312 10.316406 19.226562 10.386719 19.226562 C 10.429688 19.226562 10.46875 19.238281 10.472656 19.261719 C 10.484375 19.28125 10.519531 19.296875 10.570312 19.296875 C 10.640625 19.296875 10.648438 19.304688 10.640625 19.347656 C 10.636719 19.378906 10.628906 19.414062 10.628906 19.425781 C 10.628906 19.433594 10.605469 19.421875 10.578125 19.390625 L 10.527344 19.332031 L 10.542969 19.390625 C 10.554688 19.425781 10.578125 19.535156 10.597656 19.636719 C 10.621094 19.738281 10.648438 19.820312 10.664062 19.816406 C 10.714844 19.808594 10.914062 19.851562 10.914062 19.871094 C 10.914062 19.882812 10.898438 19.894531 10.878906 19.894531 C 10.859375 19.894531 10.84375 19.910156 10.84375 19.921875 C 10.84375 19.964844 11.023438 20.15625 11.066406 20.15625 C 11.089844 20.15625 11.097656 20.175781 11.085938 20.214844 L 11.078125 20.277344 L 11.359375 20.273438 C 11.515625 20.273438 11.71875 20.265625 11.804688 20.253906 C 11.929688 20.242188 11.972656 20.246094 11.996094 20.269531 C 12.039062 20.320312 12.101562 20.304688 12.1875 20.222656 C 12.230469 20.179688 12.292969 20.128906 12.332031 20.113281 C 12.367188 20.097656 12.398438 20.070312 12.398438 20.054688 C 12.398438 20.039062 12.425781 20 12.464844 19.972656 C 12.527344 19.925781 12.535156 19.910156 12.535156 19.757812 C 12.535156 19.667969 12.527344 19.582031 12.515625 19.570312 C 12.484375 19.53125 12.578125 19.304688 12.652344 19.238281 C 12.6875 19.207031 12.765625 19.160156 12.820312 19.136719 L 12.925781 19.097656 L 13.039062 19.175781 L 13.148438 19.253906 L 13.234375 19.210938 C 13.3125 19.167969 13.316406 19.15625 13.324219 19.035156 C 13.332031 18.921875 13.324219 18.898438 13.273438 18.847656 C 13.199219 18.785156 13.195312 18.75 13.246094 18.683594 C 13.289062 18.625 13.289062 18.578125 13.246094 18.492188 C 13.226562 18.453125 13.210938 18.382812 13.210938 18.332031 C 13.210938 18.28125 13.191406 18.203125 13.171875 18.15625 C 13.148438 18.097656 13.140625 18.035156 13.152344 17.964844 C 13.164062 17.886719 13.15625 17.84375 13.117188 17.777344 C 13.078125 17.714844 13.070312 17.679688 13.089844 17.644531 C 13.101562 17.621094 13.113281 17.558594 13.113281 17.507812 C 13.113281 17.402344 13.140625 17.367188 13.273438 17.324219 C 13.332031 17.300781 13.382812 17.300781 13.425781 17.316406 C 13.488281 17.335938 13.621094 17.324219 13.875 17.273438 C 13.929688 17.261719 13.964844 17.269531 13.996094 17.296875 C 14.023438 17.324219 14.078125 17.335938 14.144531 17.335938 C 14.203125 17.335938 14.339844 17.34375 14.449219 17.355469 C 14.589844 17.371094 14.667969 17.371094 14.707031 17.351562 C 14.773438 17.320312 14.835938 17.21875 14.835938 17.136719 C 14.835938 17.097656 14.878906 17.035156 14.976562 16.9375 C 15.058594 16.859375 15.132812 16.792969 15.148438 16.789062 C 15.160156 16.785156 15.191406 16.734375 15.21875 16.679688 C 15.25 16.609375 15.285156 16.570312 15.324219 16.5625 C 15.359375 16.550781 15.390625 16.515625 15.417969 16.453125 C 15.460938 16.347656 15.582031 16.257812 15.6875 16.257812 C 15.726562 16.257812 15.769531 16.246094 15.785156 16.234375 C 15.835938 16.179688 15.863281 16.234375 15.820312 16.316406 C 15.800781 16.363281 15.792969 16.414062 15.796875 16.433594 C 15.804688 16.457031 15.878906 16.515625 15.957031 16.570312 C 16.039062 16.625 16.125 16.703125 16.148438 16.738281 C 16.191406 16.816406 16.203125 16.820312 16.316406 16.78125 C 16.386719 16.757812 16.402344 16.757812 16.429688 16.796875 C 16.445312 16.824219 16.460938 16.867188 16.460938 16.898438 C 16.460938 16.933594 16.492188 16.972656 16.554688 17.015625 C 16.648438 17.074219 16.65625 17.078125 16.757812 17.046875 C 16.871094 17.011719 16.898438 16.960938 16.832031 16.90625 C 16.808594 16.886719 16.800781 16.84375 16.8125 16.742188 C 16.824219 16.570312 16.898438 16.488281 17.023438 16.511719 C 17.085938 16.523438 17.101562 16.515625 17.109375 16.480469 C 17.121094 16.449219 17.152344 16.429688 17.214844 16.417969 C 17.277344 16.410156 17.328125 16.375 17.382812 16.320312 C 17.453125 16.238281 17.464844 16.234375 17.554688 16.25 C 17.636719 16.261719 17.65625 16.257812 17.675781 16.214844 C 17.703125 16.171875 17.84375 16.089844 17.964844 16.054688 C 18.046875 16.03125 18.109375 15.972656 18.109375 15.925781 C 18.109375 15.90625 18.125 15.867188 18.144531 15.839844 C 18.160156 15.8125 18.183594 15.765625 18.195312 15.734375 C 18.203125 15.703125 18.234375 15.640625 18.261719 15.597656 C 18.320312 15.511719 18.40625 15.488281 18.710938 15.492188 C 18.878906 15.496094 18.898438 15.492188 18.957031 15.433594 C 19.039062 15.351562 19.035156 15.328125 18.933594 15.222656 C 18.890625 15.171875 18.851562 15.113281 18.851562 15.085938 C 18.851562 15.0625 18.839844 15.039062 18.828125 15.027344 C 18.816406 15.019531 18.832031 14.960938 18.863281 14.890625 C 18.898438 14.824219 18.921875 14.75 18.921875 14.730469 C 18.921875 14.714844 18.949219 14.667969 18.980469 14.632812 C 19.023438 14.582031 19.042969 14.519531 19.054688 14.40625 C 19.0625 14.320312 19.082031 14.25 19.089844 14.25 C 19.101562 14.25 19.125 14.273438 19.148438 14.300781 C 19.203125 14.359375 19.234375 14.359375 19.347656 14.300781 C 19.4375 14.253906 19.511719 14.167969 19.476562 14.144531 C 19.464844 14.140625 19.460938 14.105469 19.46875 14.070312 C 19.472656 14.039062 19.464844 13.996094 19.449219 13.976562 C 19.425781 13.945312 19.425781 13.929688 19.457031 13.898438 C 19.480469 13.875 19.496094 13.839844 19.496094 13.824219 C 19.496094 13.777344 19.683594 13.601562 19.753906 13.585938 C 19.796875 13.574219 19.835938 13.53125 19.867188 13.472656 C 19.914062 13.386719 19.925781 13.378906 20.039062 13.363281 C 20.109375 13.355469 20.183594 13.339844 20.203125 13.332031 C 20.253906 13.3125 20.332031 13.355469 20.332031 13.402344 C 20.332031 13.417969 20.363281 13.457031 20.398438 13.488281 C 20.445312 13.523438 20.464844 13.5625 20.46875 13.621094 C 20.46875 13.691406 20.488281 13.722656 20.574219 13.800781 C 20.632812 13.851562 20.695312 13.890625 20.714844 13.890625 C 20.734375 13.886719 20.757812 13.890625 20.765625 13.894531 C 20.769531 13.894531 20.796875 13.898438 20.824219 13.90625 C 21.089844 13.949219 21.261719 13.996094 21.355469 14.058594 C 21.476562 14.140625 21.523438 14.148438 21.542969 14.097656 C 21.550781 14.078125 21.582031 14.058594 21.609375 14.050781 C 21.671875 14.035156 21.886719 13.839844 21.886719 13.800781 C 21.886719 13.785156 21.90625 13.773438 21.925781 13.773438 C 21.949219 13.773438 21.957031 13.789062 21.949219 13.816406 C 21.933594 13.867188 21.984375 13.898438 22.042969 13.878906 C 22.0625 13.871094 22.09375 13.878906 22.113281 13.902344 C 22.195312 13.980469 22.335938 13.914062 22.300781 13.8125 C 22.269531 13.710938 22.28125 13.644531 22.339844 13.613281 C 22.394531 13.585938 22.402344 13.589844 22.441406 13.652344 C 22.496094 13.742188 22.628906 13.773438 22.734375 13.71875 C 22.773438 13.699219 22.828125 13.675781 22.851562 13.667969 C 22.894531 13.652344 22.894531 13.648438 22.859375 13.59375 C 22.816406 13.53125 22.828125 13.460938 22.878906 13.460938 C 22.898438 13.460938 22.914062 13.484375 22.921875 13.511719 C 22.933594 13.554688 22.953125 13.5625 23.007812 13.554688 C 23.058594 13.546875 23.085938 13.554688 23.09375 13.578125 C 23.105469 13.601562 23.132812 13.609375 23.1875 13.597656 C 23.234375 13.589844 23.277344 13.597656 23.289062 13.605469 C 23.308594 13.628906 23.496094 13.585938 23.527344 13.550781 C 23.539062 13.539062 23.597656 13.535156 23.660156 13.535156 C 23.769531 13.535156 23.949219 13.460938 24.027344 13.386719 C 24.039062 13.375 24.070312 13.367188 24.09375 13.367188 C 24.15625 13.367188 24.351562 13.246094 24.351562 13.207031 C 24.351562 13.164062 24.5 13.105469 24.566406 13.121094 C 24.609375 13.128906 24.644531 13.109375 24.691406 13.058594 C 24.726562 13.019531 24.777344 12.984375 24.804688 12.984375 C 24.832031 12.984375 24.863281 12.964844 24.867188 12.941406 C 24.878906 12.917969 24.90625 12.886719 24.929688 12.871094 C 24.953125 12.851562 24.96875 12.828125 24.960938 12.8125 C 24.941406 12.789062 25.015625 12.652344 25.058594 12.640625 C 25.097656 12.625 25.164062 12.648438 25.164062 12.671875 C 25.164062 12.714844 25.238281 12.714844 25.34375 12.683594 C 25.402344 12.660156 25.449219 12.628906 25.449219 12.609375 C 25.449219 12.566406 25.472656 12.566406 25.550781 12.621094 C 25.601562 12.652344 25.652344 12.664062 25.746094 12.65625 C 25.824219 12.652344 25.910156 12.664062 25.964844 12.6875 C 26.019531 12.710938 26.078125 12.71875 26.117188 12.707031 C 26.152344 12.699219 26.230469 12.6875 26.292969 12.683594 C 26.445312 12.679688 26.492188 12.636719 26.367188 12.613281 C 26.230469 12.59375 25.914062 12.4375 25.835938 12.351562 C 25.800781 12.3125 25.746094 12.21875 25.714844 12.148438 C 25.570312 11.804688 25.53125 11.722656 25.472656 11.675781 C 25.441406 11.648438 25.402344 11.625 25.394531 11.621094 C 25.378906 11.621094 25.351562 11.605469 25.332031 11.589844 C 25.3125 11.570312 25.230469 11.539062 25.152344 11.515625 C 25.070312 11.496094 24.917969 11.453125 24.808594 11.421875 C 24.574219 11.347656 24.523438 11.34375 24.5 11.398438 C 24.480469 11.453125 24.535156 11.476562 24.691406 11.476562 C 24.84375 11.476562 24.984375 11.539062 24.949219 11.59375 C 24.933594 11.617188 24.929688 11.617188 24.917969 11.589844 C 24.902344 11.554688 24.714844 11.5 24.601562 11.5 C 24.558594 11.5 24.542969 11.515625 24.542969 11.546875 C 24.542969 11.59375 24.460938 11.671875 24.367188 11.710938 C 24.332031 11.726562 24.289062 11.765625 24.273438 11.800781 C 24.246094 11.863281 24.183594 11.878906 24.113281 11.835938 C 24.074219 11.816406 24.070312 11.804688 24.09375 11.730469 C 24.113281 11.660156 24.113281 11.636719 24.085938 11.605469 C 24.054688 11.578125 24.039062 11.578125 23.96875 11.613281 C 23.925781 11.632812 23.886719 11.644531 23.878906 11.636719 C 23.871094 11.628906 23.894531 11.613281 23.929688 11.601562 C 23.964844 11.585938 23.992188 11.5625 23.992188 11.546875 C 23.992188 11.503906 23.914062 11.457031 23.847656 11.453125 C 23.765625 11.453125 23.660156 11.390625 23.492188 11.242188 C 23.386719 11.15625 23.324219 11.121094 23.273438 11.121094 C 23.179688 11.121094 23.167969 11.15625 23.242188 11.210938 C 23.28125 11.238281 23.296875 11.261719 23.285156 11.261719 C 23.269531 11.261719 23.230469 11.234375 23.195312 11.203125 C 23.160156 11.167969 23.121094 11.148438 23.105469 11.15625 C 23.0625 11.183594 23.082031 11.273438 23.144531 11.316406 C 23.191406 11.355469 23.25 11.375 23.511719 11.445312 C 23.546875 11.453125 23.613281 11.496094 23.65625 11.539062 C 23.703125 11.582031 23.757812 11.621094 23.785156 11.632812 C 23.863281 11.660156 23.8125 11.703125 23.660156 11.738281 L 23.511719 11.773438 L 23.441406 11.707031 C 23.363281 11.628906 23.351562 11.578125 23.40625 11.558594 C 23.484375 11.53125 23.4375 11.5 23.339844 11.511719 C 23.203125 11.535156 23.15625 11.511719 23.15625 11.4375 C 23.15625 11.386719 23.148438 11.382812 23.09375 11.394531 C 22.996094 11.417969 22.917969 11.382812 22.847656 11.277344 C 22.773438 11.164062 22.765625 11.0625 22.835938 11.011719 C 22.878906 10.980469 22.878906 10.972656 22.804688 10.839844 C 22.75 10.734375 22.71875 10.699219 22.671875 10.695312 C 22.625 10.691406 22.605469 10.699219 22.597656 10.734375 C 22.582031 10.804688 22.53125 10.796875 22.445312 10.710938 L 22.378906 10.640625 L 22.441406 10.664062 C 22.488281 10.679688 22.511719 10.679688 22.523438 10.660156 C 22.53125 10.648438 22.578125 10.640625 22.644531 10.652344 C 22.710938 10.660156 22.765625 10.652344 22.8125 10.628906 C 22.894531 10.585938 22.941406 10.621094 22.882812 10.683594 C 22.847656 10.726562 22.828125 10.859375 22.859375 10.859375 C 22.894531 10.859375 23.082031 10.722656 23.085938 10.695312 C 23.09375 10.671875 23.117188 10.679688 23.183594 10.714844 C 23.234375 10.742188 23.289062 10.761719 23.3125 10.761719 C 23.382812 10.761719 23.488281 10.859375 23.488281 10.917969 C 23.488281 10.96875 23.5 10.976562 23.582031 10.976562 C 23.636719 10.976562 23.683594 10.988281 23.691406 11 C 23.699219 11.011719 23.738281 11.03125 23.78125 11.035156 C 23.824219 11.046875 23.921875 11.089844 24 11.136719 C 24.152344 11.226562 24.21875 11.230469 24.21875 11.15625 C 24.21875 11.125 24.195312 11.105469 24.148438 11.097656 C 24.023438 11.070312 23.746094 10.914062 23.605469 10.796875 C 23.53125 10.730469 23.425781 10.640625 23.371094 10.59375 C 23.316406 10.550781 23.164062 10.40625 23.03125 10.277344 C 22.902344 10.152344 22.773438 10.042969 22.742188 10.03125 C 22.710938 10.023438 22.671875 9.996094 22.652344 9.972656 C 22.550781 9.855469 22.164062 9.535156 22.09375 9.515625 C 22.054688 9.503906 21.921875 9.496094 21.804688 9.492188 C 21.6875 9.492188 21.539062 9.484375 21.480469 9.472656 C 21.421875 9.460938 21.332031 9.445312 21.285156 9.433594 C 21.222656 9.421875 21.195312 9.425781 21.195312 9.445312 C 21.195312 9.460938 21.210938 9.472656 21.230469 9.472656 C 21.285156 9.472656 21.386719 9.523438 21.371094 9.546875 C 21.363281 9.558594 21.335938 9.566406 21.3125 9.566406 C 21.28125 9.566406 21.265625 9.582031 21.265625 9.613281 C 21.265625 9.644531 21.246094 9.667969 21.203125 9.675781 C 21.152344 9.6875 21.128906 9.675781 21.070312 9.605469 C 20.984375 9.5 20.945312 9.492188 20.960938 9.589844 C 20.976562 9.644531 20.96875 9.664062 20.925781 9.675781 C 20.851562 9.699219 20.785156 9.601562 20.804688 9.496094 C 20.824219 9.378906 20.824219 9.378906 20.9375 9.402344 C 21.039062 9.425781 21.144531 9.417969 21.074219 9.394531 C 21 9.367188 20.796875 9.320312 20.691406 9.304688 C 20.632812 9.296875 20.523438 9.261719 20.453125 9.238281 C 20.382812 9.207031 20.296875 9.183594 20.261719 9.1875 C 20.214844 9.1875 20.230469 9.203125 20.332031 9.246094 C 20.425781 9.289062 20.457031 9.3125 20.445312 9.34375 C 20.4375 9.359375 20.429688 9.382812 20.429688 9.390625 C 20.429688 9.394531 20.398438 9.398438 20.359375 9.398438 C 20.320312 9.398438 20.28125 9.410156 20.273438 9.421875 C 20.265625 9.433594 20.246094 9.445312 20.226562 9.445312 C 20.183594 9.445312 20.089844 9.296875 20.117188 9.269531 C 20.128906 9.261719 20.132812 9.234375 20.125 9.21875 C 20.121094 9.203125 20.136719 9.183594 20.160156 9.179688 C 20.1875 9.175781 20.152344 9.148438 20.058594 9.101562 C 19.492188 8.835938 19.316406 8.828125 19.050781 9.050781 C 18.835938 9.230469 18.679688 9.28125 18.316406 9.28125 C 18.167969 9.28125 18.0625 9.292969 18.007812 9.316406 C 17.820312 9.390625 17.652344 9.339844 17.0625 9.019531 C 16.988281 8.980469 16.917969 8.953125 16.898438 8.960938 C 16.882812 8.96875 16.867188 8.964844 16.867188 8.949219 C 16.867188 8.910156 16.414062 8.78125 16.1875 8.757812 C 16.070312 8.742188 15.945312 8.726562 15.917969 8.714844 C 15.878906 8.703125 15.863281 8.710938 15.863281 8.738281 Z M 15.863281 8.738281 " fill-opacity="1" fill-rule="nonzero"/></g></svg>