<svg xmlns="http://www.w3.org/2000/svg" xmlns:xlink="http://www.w3.org/1999/xlink" width="40" zoomAndPan="magnify" viewBox="0 0 30 30.000001" height="40" preserveAspectRatio="xMidYMid meet" version="1.0"><defs><clipPath id="b2a4ac112c"><path d="M 15 5.75 L 19 5.75 L 19 7 L 15 7 Z M 15 5.75 " clip-rule="nonzero"/></clipPath><clipPath id="16ad324ee0"><path d="M 3.386719 6 L 26.613281 6 L 26.613281 23.167969 L 3.386719 23.167969 Z M 3.386719 6 " clip-rule="nonzero"/></clipPath></defs><g clip-path="url(#b2a4ac112c)"><path fill="#014d4e" d="M 16.800781 5.796875 C 16.652344 5.824219 16.511719 5.785156 16.367188 5.808594 C 16.164062 5.839844 15.972656 5.925781 15.769531 5.953125 C 15.691406 5.964844 15.632812 6.003906 15.695312 6.074219 C 15.761719 6.140625 15.921875 6.113281 16.007812 6.144531 C 16.128906 6.1875 16.234375 6.222656 16.355469 6.261719 C 16.554688 6.320312 16.785156 6.300781 16.988281 6.34375 C 17.425781 6.433594 17.878906 6.648438 18.332031 6.589844 C 18.417969 6.578125 18.421875 6.578125 18.429688 6.542969 C 18.433594 6.511719 18.429688 6.5 18.386719 6.457031 C 18.246094 6.316406 17.996094 6.121094 17.792969 6.121094 C 17.5 6.121094 17.238281 5.761719 16.960938 5.773438 C 16.941406 5.773438 16.871094 5.785156 16.800781 5.796875 C 16.691406 5.816406 16.871094 5.785156 16.800781 5.796875 Z M 16.800781 5.796875 " fill-opacity="1" fill-rule="nonzero"/></g><g clip-path="url(#16ad324ee0)"><path fill="#014d4e" d="M 16.824219 6.953125 C 16.757812 7.023438 16.625 6.964844 16.589844 7.035156 C 16.574219 7.066406 16.574219 7.070312 16.597656 7.085938 C 16.667969 7.136719 16.703125 7.234375 16.75 7.300781 C 16.773438 7.320312 16.773438 7.332031 16.75 7.332031 C 16.726562 7.332031 16.5625 7.109375 16.550781 7.070312 C 16.550781 7.066406 16.265625 7.074219 16.199219 7.085938 C 16.003906 7.113281 15.871094 7.15625 15.726562 7.261719 C 15.691406 7.28125 15.6875 7.277344 15.632812 7.203125 C 15.605469 7.160156 15.421875 7.210938 15.371094 7.21875 C 15.320312 7.183594 15.257812 7.160156 15.195312 7.167969 C 15.140625 7.171875 15.125 7.160156 15.140625 7.214844 C 15.152344 7.25 15.152344 7.25 15.117188 7.238281 C 14.90625 7.1875 14.695312 7.179688 14.476562 7.136719 C 14.386719 7.117188 14.277344 7.148438 14.1875 7.113281 C 14.070312 7.066406 14.128906 7.015625 13.984375 7.125 C 13.816406 7.257812 13.589844 7.464844 13.386719 7.527344 C 13.183594 7.582031 12.839844 7.707031 12.675781 7.835938 C 12.628906 7.871094 12.585938 7.871094 12.496094 7.832031 L 12.421875 7.796875 C 12.269531 7.871094 12.164062 7.8125 12.039062 7.929688 C 12.007812 7.957031 12.007812 7.957031 12.027344 7.984375 C 12.066406 8.042969 12.214844 8.015625 12.273438 8.019531 C 12.378906 8.03125 12.371094 8.03125 12.4375 7.945312 C 12.476562 7.898438 12.488281 7.925781 12.453125 7.976562 C 12.351562 8.113281 12.285156 8.128906 12.15625 8.226562 C 12.082031 8.28125 11.996094 8.191406 11.949219 8.234375 C 11.710938 8.421875 11.617188 8.996094 11.804688 9.230469 C 12.011719 9.480469 12.28125 9.683594 12.609375 9.675781 C 12.761719 9.671875 12.925781 9.632812 13.070312 9.632812 C 13.167969 9.632812 13.566406 9.667969 13.589844 9.566406 C 13.597656 9.523438 13.640625 9.421875 13.65625 9.402344 C 13.664062 9.398438 13.683594 9.386719 13.699219 9.382812 C 13.757812 9.371094 13.980469 9.578125 14.058594 9.605469 C 14.144531 9.636719 14.246094 9.667969 14.335938 9.667969 C 14.4375 9.667969 14.457031 9.542969 14.566406 9.53125 C 14.6875 9.515625 14.917969 9.601562 15.007812 9.6875 C 15.167969 9.835938 15.257812 9.746094 15.429688 9.8125 C 15.449219 9.851562 15.460938 9.894531 15.46875 9.9375 C 15.523438 10.027344 15.535156 9.9375 15.570312 9.976562 C 15.59375 10 15.546875 10.027344 15.597656 10.046875 C 15.839844 10.148438 16.078125 10.3125 16.316406 10.421875 C 16.53125 10.519531 16.921875 10.625 17.058594 10.855469 C 17.097656 10.925781 17.15625 10.988281 17.199219 11.058594 C 17.25 11.152344 17.265625 11.164062 17.386719 11.199219 C 17.480469 11.226562 17.515625 11.222656 17.585938 11.160156 L 17.628906 11.117188 L 17.65625 11.148438 C 17.679688 11.175781 17.683594 11.175781 17.714844 11.160156 C 17.734375 11.136719 17.757812 11.113281 17.785156 11.097656 L 17.820312 11.097656 C 17.816406 11.167969 17.816406 11.234375 17.804688 11.304688 C 17.796875 11.347656 17.800781 11.355469 17.832031 11.386719 C 17.96875 11.515625 17.957031 11.492188 17.859375 11.617188 C 17.839844 11.640625 17.835938 11.640625 17.808594 11.628906 C 17.761719 11.609375 17.699219 11.351562 17.671875 11.351562 C 17.632812 11.367188 17.605469 11.390625 17.585938 11.421875 C 17.507812 11.570312 17.734375 11.628906 17.679688 11.734375 C 17.65625 11.78125 17.65625 11.804688 17.617188 11.847656 C 17.558594 11.910156 17.519531 11.914062 17.460938 11.847656 C 17.375 11.75 17.261719 11.828125 17.246094 11.941406 C 17.238281 12.015625 17.308594 12.210938 17.378906 12.246094 C 17.402344 12.257812 17.460938 12.269531 17.507812 12.273438 C 17.574219 12.277344 17.636719 12.378906 17.664062 12.453125 C 17.691406 12.511719 17.6875 12.535156 17.664062 12.558594 C 17.605469 12.609375 17.511719 12.460938 17.476562 12.574219 L 17.460938 12.613281 C 17.390625 12.601562 17.300781 12.585938 17.230469 12.609375 L 17.203125 12.621094 L 17.230469 12.628906 C 17.265625 12.640625 17.265625 12.6875 17.234375 12.707031 C 17.195312 12.722656 17.214844 12.835938 17.203125 12.871094 C 17.191406 12.925781 17.179688 12.945312 17.15625 12.957031 C 17.121094 12.972656 17.121094 12.984375 17.160156 13.015625 C 17.183594 13.039062 17.191406 13.039062 17.21875 13.027344 C 17.234375 13.023438 17.261719 13 17.269531 12.980469 L 17.289062 12.945312 L 17.332031 12.964844 C 17.488281 13.046875 16.984375 13.089844 17.042969 13.179688 C 17.140625 13.332031 17.246094 13.511719 17.359375 13.648438 C 17.449219 13.75 17.632812 13.859375 17.765625 13.886719 C 17.820312 13.902344 17.816406 13.964844 17.753906 14.101562 L 17.722656 14.175781 C 17.574219 14.230469 17.464844 14.199219 17.320312 14.199219 C 17.191406 14.203125 16.996094 14.273438 16.910156 14.371094 C 16.824219 14.46875 16.808594 14.558594 16.863281 14.667969 C 16.929688 14.796875 17.242188 14.863281 17.355469 14.964844 C 17.488281 15.078125 17.546875 15.171875 17.574219 15.296875 L 17.59375 15.390625 C 17.75 15.492188 17.929688 15.542969 18.101562 15.625 C 18.25 15.695312 18.335938 15.800781 18.429688 15.933594 C 18.46875 15.992188 18.503906 16.175781 18.570312 16.1875 C 18.859375 16.246094 18.917969 16.828125 19.214844 16.949219 C 19.277344 16.972656 19.375 16.996094 19.441406 16.976562 C 19.542969 16.949219 19.582031 17.035156 19.667969 17.035156 C 19.769531 17.039062 19.796875 17.265625 19.839844 17.332031 C 19.847656 17.34375 19.898438 17.371094 19.949219 17.390625 C 20.0625 17.4375 20.183594 17.429688 20.304688 17.429688 C 20.457031 17.550781 20.734375 17.574219 20.855469 17.699219 C 20.878906 17.71875 20.898438 17.753906 20.902344 17.777344 C 20.921875 17.890625 20.707031 18.035156 20.664062 18.144531 C 20.621094 18.265625 20.820312 18.542969 20.683594 18.613281 C 20.664062 18.625 20.644531 18.632812 20.644531 18.636719 C 20.640625 18.640625 20.652344 18.660156 20.664062 18.679688 C 20.6875 18.722656 20.6875 18.722656 20.671875 18.789062 C 20.660156 18.824219 20.636719 18.867188 20.621094 18.886719 C 20.441406 19.082031 20.222656 18.59375 20.042969 18.773438 C 19.984375 18.832031 19.523438 18.800781 19.425781 18.796875 C 19.328125 18.796875 19.207031 18.828125 19.109375 18.8125 C 19 18.792969 18.941406 18.679688 18.8125 18.667969 C 18.695312 18.660156 18.515625 18.691406 18.417969 18.761719 C 18.132812 18.941406 18.171875 19.382812 17.949219 19.613281 C 17.863281 19.699219 17.777344 19.71875 17.675781 19.78125 C 17.550781 19.855469 17.328125 19.769531 17.179688 19.789062 C 17.066406 19.804688 16.960938 19.71875 16.863281 19.667969 C 16.816406 19.667969 16.765625 19.671875 16.71875 19.675781 C 16.53125 19.6875 16.523438 19.777344 16.371094 19.832031 C 16.332031 19.84375 16.328125 19.84375 16.265625 19.78125 L 16.199219 19.714844 L 16.25 19.714844 C 16.34375 19.714844 16.273438 19.652344 16.164062 19.632812 C 15.972656 19.601562 15.792969 19.53125 15.601562 19.5 C 15.550781 19.492188 15.511719 19.492188 15.460938 19.503906 C 15.371094 19.527344 15.308594 19.453125 15.230469 19.476562 C 15.117188 19.503906 14.90625 19.464844 14.816406 19.542969 C 14.804688 19.550781 14.792969 19.570312 14.785156 19.589844 C 14.761719 19.640625 14.695312 19.621094 14.652344 19.628906 C 14.589844 19.640625 14.402344 19.523438 14.386719 19.453125 C 14.371094 19.394531 14.320312 19.371094 14.097656 19.320312 C 13.851562 19.261719 13.78125 19.257812 13.722656 19.3125 C 13.472656 19.515625 12.964844 19.304688 12.730469 19.179688 C 12.4375 19.027344 11.992188 19.125 11.714844 18.945312 C 11.6875 18.929688 11.683594 18.929688 11.617188 18.960938 L 11.550781 18.992188 C 11.421875 18.953125 11.265625 18.890625 11.136719 18.957031 C 11.066406 18.992188 10.421875 19.300781 10.351562 19.167969 C 10.347656 19.15625 10.320312 19.144531 10.289062 19.144531 C 10.136719 19.121094 9.855469 19.226562 10.035156 18.941406 C 10.050781 18.914062 10.050781 18.902344 10.039062 18.875 C 10.023438 18.84375 10.015625 18.839844 9.957031 18.835938 C 9.90625 18.828125 9.890625 18.832031 9.878906 18.847656 C 9.863281 18.863281 9.828125 18.785156 9.78125 18.808594 C 9.722656 18.839844 9.644531 18.855469 9.625 18.839844 C 9.601562 18.816406 9.605469 18.804688 9.640625 18.804688 C 9.652344 18.800781 9.839844 18.757812 9.847656 18.753906 C 9.859375 18.738281 9.875 18.726562 9.886719 18.710938 C 9.890625 18.695312 9.792969 18.664062 9.835938 18.648438 C 9.953125 18.601562 10.023438 18.835938 10.167969 18.738281 C 10.308594 18.648438 10.496094 18.785156 10.648438 18.722656 C 10.742188 18.679688 10.726562 18.628906 10.804688 18.566406 C 10.859375 18.527344 10.867188 18.496094 10.828125 18.457031 L 10.800781 18.425781 C 10.636719 18.441406 10.453125 18.4375 10.296875 18.484375 C 10.222656 18.503906 10.171875 18.574219 10.09375 18.582031 C 9.957031 18.59375 9.835938 18.515625 9.691406 18.539062 C 9.589844 18.554688 9.601562 18.605469 9.515625 18.644531 C 9.464844 18.664062 9.457031 18.738281 9.503906 18.707031 C 9.519531 18.699219 9.53125 18.699219 9.542969 18.710938 C 9.617188 18.769531 9.140625 18.828125 9.105469 18.851562 C 9.050781 18.886719 9.027344 18.878906 8.976562 18.816406 C 8.902344 18.710938 8.683594 18.605469 8.558594 18.578125 C 8.511719 18.574219 8.175781 18.589844 8.132812 18.601562 C 8.089844 18.613281 8.003906 18.53125 8.003906 18.492188 C 8.003906 18.421875 7.898438 18.375 7.832031 18.414062 L 7.796875 18.433594 L 7.71875 18.382812 C 7.542969 18.269531 7.320312 18.320312 7.121094 18.304688 C 6.851562 18.289062 6.707031 18.117188 6.484375 18.039062 C 6.378906 18 6.457031 17.910156 6.378906 17.875 C 6.222656 17.804688 6.070312 17.738281 5.890625 17.703125 C 5.738281 17.671875 5.210938 17.621094 5.140625 17.789062 C 5.125 17.824219 5.089844 17.839844 5.078125 17.875 C 5.039062 17.964844 4.960938 17.78125 4.902344 17.792969 C 4.851562 17.800781 4.828125 17.875 4.777344 17.855469 C 4.707031 17.832031 4.597656 17.878906 4.53125 17.902344 C 4.460938 17.925781 4.453125 17.976562 4.367188 17.988281 C 4.28125 17.996094 4.207031 17.9375 4.152344 18.023438 C 4.089844 18.125 3.933594 18.117188 3.875 18.25 C 3.839844 18.308594 3.921875 18.355469 3.941406 18.40625 C 3.96875 18.480469 3.929688 18.578125 3.898438 18.640625 C 3.824219 18.785156 3.734375 18.882812 3.746094 19.054688 C 3.699219 19.105469 3.636719 19.164062 3.605469 19.226562 C 3.546875 19.328125 3.695312 19.320312 3.632812 19.433594 C 3.59375 19.496094 3.527344 19.71875 3.480469 19.742188 C 3.429688 19.765625 3.484375 19.863281 3.464844 19.910156 C 3.476562 19.882812 3.621094 19.992188 3.617188 19.988281 C 3.695312 20.074219 3.695312 20.265625 3.699219 20.378906 C 3.710938 20.589844 3.9375 20.511719 4.050781 20.621094 C 4.074219 20.644531 4.074219 20.652344 4.0625 20.679688 C 4.039062 20.730469 4.066406 20.765625 4.136719 20.773438 C 4.183594 20.78125 4.203125 20.789062 4.242188 20.828125 C 4.269531 20.855469 4.300781 20.890625 4.316406 20.910156 C 4.355469 20.960938 4.667969 21.023438 4.738281 21.019531 C 4.902344 21.011719 4.980469 20.90625 5.125 20.84375 C 5.238281 20.796875 5.371094 20.8125 5.492188 20.8125 L 5.53125 20.855469 C 5.589844 20.914062 5.625 20.929688 5.710938 20.929688 L 5.789062 20.929688 C 5.855469 20.996094 5.929688 21.089844 6.015625 21.132812 C 6.121094 21.179688 6.324219 21.1875 6.402344 21.277344 C 6.449219 21.328125 6.644531 21.46875 6.707031 21.476562 C 6.824219 21.492188 6.871094 21.648438 6.957031 21.710938 C 7.042969 21.769531 7.132812 21.828125 7.21875 21.886719 C 7.320312 21.945312 7.234375 22.042969 7.390625 22.039062 C 7.464844 22.039062 7.535156 22.238281 7.601562 22.296875 C 7.691406 22.375 7.738281 22.390625 7.753906 22.515625 C 7.769531 22.625 7.921875 22.75 7.972656 22.863281 C 8.019531 22.96875 8.097656 23.199219 8.191406 23.242188 C 8.320312 23.300781 8.46875 23.238281 8.605469 23.246094 C 8.722656 23.25 8.863281 23.269531 8.976562 23.21875 C 9.011719 23.203125 9.042969 23.1875 9.042969 23.183594 C 9.042969 23.179688 9.039062 23.164062 9.035156 23.152344 C 9.007812 23.089844 9.089844 23.050781 9.042969 22.992188 C 8.945312 22.867188 8.613281 22.6875 8.589844 22.53125 C 8.585938 22.5 8.613281 22.378906 8.632812 22.339844 C 8.730469 22.164062 9.761719 21.707031 9.730469 21.578125 C 9.726562 21.558594 9.738281 21.523438 9.757812 21.488281 C 9.847656 21.316406 9.898438 21.523438 9.949219 21.53125 C 9.960938 21.519531 9.976562 21.511719 9.988281 21.503906 C 10.011719 21.476562 10.132812 21.296875 10.164062 21.296875 C 10.183594 21.304688 10.1875 21.316406 10.175781 21.339844 C 10.164062 21.402344 10.074219 21.550781 10.035156 21.597656 C 10.027344 21.605469 10.027344 21.621094 10.035156 21.640625 L 10.050781 21.667969 C 10.234375 21.558594 10.234375 21.539062 10.285156 21.351562 C 10.289062 21.324219 10.296875 21.324219 10.320312 21.328125 C 10.375 21.339844 10.4375 21.25 10.492188 21.308594 C 10.535156 21.355469 10.464844 21.429688 10.421875 21.449219 C 10.394531 21.464844 10.390625 21.476562 10.402344 21.558594 C 10.414062 21.632812 10.445312 21.648438 10.535156 21.628906 C 10.617188 21.609375 10.625 21.605469 10.648438 21.546875 L 10.667969 21.5 C 10.679688 21.53125 10.6875 21.558594 10.699219 21.585938 L 10.765625 21.585938 C 11.003906 21.585938 10.605469 21.3125 10.835938 21.253906 C 10.910156 21.226562 10.972656 21.226562 11.011719 21.292969 C 11.03125 21.320312 11.054688 21.375 11.066406 21.410156 C 11.089844 21.488281 11.109375 21.496094 11.179688 21.46875 C 11.234375 21.445312 11.320312 21.503906 11.359375 21.441406 C 11.40625 21.367188 11.332031 21.4375 11.332031 21.375 C 11.351562 21.355469 11.371094 21.339844 11.394531 21.328125 C 11.421875 21.289062 11.484375 21.285156 11.503906 21.324219 L 11.519531 21.347656 L 11.527344 21.324219 C 11.542969 21.289062 11.773438 21.222656 11.820312 21.21875 C 11.863281 21.21875 11.992188 21.285156 12.035156 21.308594 C 12.160156 21.386719 12.066406 21.160156 12.210938 21.210938 C 12.253906 21.226562 12.257812 21.226562 12.25 21.207031 C 12.242188 21.1875 12.242188 21.183594 12.242188 21.160156 C 12.246094 21.144531 12.464844 21.273438 12.488281 21.285156 C 12.570312 21.320312 12.6875 21.257812 12.785156 21.28125 C 12.875 21.304688 12.914062 21.332031 12.890625 21.359375 C 12.878906 21.375 12.871094 21.375 12.855469 21.367188 C 12.8125 21.339844 12.617188 21.292969 12.578125 21.316406 C 12.5625 21.324219 12.539062 21.332031 12.523438 21.332031 C 12.488281 21.332031 12.421875 21.453125 12.414062 21.476562 C 12.386719 21.539062 12.382812 21.554688 12.394531 21.582031 C 12.441406 21.671875 13.003906 21.457031 13.105469 21.480469 L 13.179688 21.5 C 13.1875 21.535156 13.199219 21.574219 13.207031 21.613281 C 13.359375 21.601562 13.90625 21.566406 14.003906 21.65625 C 14.230469 21.839844 14.992188 22 15.246094 21.871094 C 15.324219 21.832031 15.394531 21.972656 15.464844 21.996094 C 15.574219 22.03125 15.738281 22.074219 15.855469 22.070312 C 16.09375 22.058594 16.289062 22.269531 16.53125 22.246094 C 16.703125 22.234375 16.996094 22.308594 17.136719 22.226562 C 17.164062 22.207031 17.1875 22.183594 17.207031 22.15625 C 17.277344 22.082031 17.390625 22.195312 17.449219 22.136719 C 17.492188 22.097656 17.367188 22.039062 17.421875 21.960938 C 17.445312 21.933594 17.667969 21.988281 17.722656 21.980469 C 17.886719 21.957031 18.089844 21.960938 18.246094 21.902344 C 18.4375 21.828125 18.710938 21.996094 18.910156 22.007812 C 19.03125 22.015625 19.058594 22.007812 19.097656 21.960938 C 19.128906 21.921875 19.128906 21.917969 19.117188 21.882812 C 19.089844 21.847656 19.0625 21.816406 19.03125 21.78125 C 19.011719 21.746094 19 21.585938 19.011719 21.5625 C 19.019531 21.554688 19.050781 21.542969 19.085938 21.542969 C 19.183594 21.535156 19.210938 21.605469 19.292969 21.632812 C 19.390625 21.671875 19.472656 21.554688 19.566406 21.585938 C 19.695312 21.636719 19.894531 21.558594 20.035156 21.574219 C 20.199219 21.59375 20.398438 21.5 20.570312 21.503906 C 20.742188 21.503906 20.90625 21.507812 21.058594 21.589844 C 21.371094 21.503906 21.691406 21.613281 22.011719 21.558594 C 22.203125 21.527344 22.394531 21.535156 22.585938 21.507812 C 22.734375 21.488281 22.898438 21.429688 23.046875 21.5 C 23.097656 21.523438 23.164062 21.667969 23.207031 21.667969 C 23.269531 21.667969 23.339844 21.703125 23.394531 21.726562 L 23.421875 21.699219 C 23.445312 21.675781 23.855469 21.804688 23.929688 21.824219 C 24.070312 21.863281 24.21875 22.128906 24.339844 22.128906 C 24.488281 22.128906 24.574219 22.316406 24.65625 22.40625 C 24.734375 22.488281 24.84375 22.546875 24.902344 22.648438 C 24.949219 22.71875 24.910156 22.792969 24.96875 22.855469 C 25.015625 22.90625 25.386719 23.21875 25.429688 23.195312 C 25.546875 23.101562 25.605469 22.8125 25.597656 22.675781 C 25.589844 22.585938 25.535156 22.628906 25.523438 22.558594 C 25.507812 22.464844 25.535156 22.378906 25.523438 22.285156 C 25.511719 22.199219 25.292969 22.082031 25.238281 21.992188 C 25.171875 21.886719 25.402344 21.523438 25.457031 21.414062 C 25.597656 21.140625 25.820312 20.859375 25.914062 20.570312 C 25.921875 20.53125 25.296875 20.289062 25.242188 20.265625 C 25.105469 20.199219 25 20.050781 24.851562 20.027344 C 24.816406 19.960938 24.78125 19.890625 24.746094 19.820312 C 24.589844 19.742188 24.40625 19.675781 24.265625 19.574219 C 24.238281 19.550781 24.21875 19.347656 24.214844 19.347656 C 24.214844 19.347656 24.25 19.339844 24.289062 19.328125 C 24.582031 19.242188 24.308594 19.042969 24.195312 18.914062 C 24.085938 18.796875 23.976562 18.679688 23.863281 18.5625 C 23.816406 18.507812 23.757812 18.308594 23.703125 18.296875 C 23.660156 18.265625 23.617188 18.226562 23.582031 18.1875 C 23.539062 18.167969 23.46875 18.207031 23.4375 18.167969 C 23.417969 18.148438 23.417969 18.144531 23.4375 18.121094 C 23.492188 18.054688 23.605469 18.066406 23.667969 17.984375 C 23.742188 17.890625 23.8125 17.890625 23.957031 17.988281 C 24.023438 18.03125 24.066406 18.058594 24.136719 18.003906 C 24.300781 17.882812 24.390625 18.191406 24.542969 18.082031 L 24.578125 18.050781 C 24.695312 18.089844 24.8125 18.058594 24.917969 18.085938 C 24.980469 18.101562 25.023438 18.035156 25.019531 17.921875 C 25.015625 17.824219 25.050781 17.714844 25.078125 17.621094 C 25.136719 17.394531 25.515625 17.40625 25.59375 17.171875 C 25.664062 16.953125 25.726562 16.699219 25.71875 16.46875 C 25.71875 16.320312 25.675781 16.179688 25.691406 16.027344 L 25.648438 16.027344 C 25.609375 16.027344 25.332031 15.757812 25.320312 15.710938 C 25.300781 15.625 25.253906 15.488281 25.230469 15.433594 C 25.199219 15.375 24.839844 15.25 24.769531 15.269531 C 24.675781 15.296875 24.753906 15.335938 24.605469 15.332031 C 24.546875 15.332031 24.550781 15.457031 24.433594 15.460938 C 24.300781 15.464844 24.535156 15.234375 24.519531 15.171875 C 24.511719 15.144531 24.527344 15.144531 24.570312 15.167969 C 24.589844 15.179688 24.609375 15.183594 24.613281 15.179688 C 24.621094 15.175781 24.644531 15.136719 24.671875 15.09375 C 24.734375 14.992188 24.765625 14.976562 24.820312 15.023438 C 24.871094 15.070312 24.917969 15.066406 24.996094 15.015625 L 25.0625 14.976562 L 25.070312 15.011719 C 25.082031 15.042969 25.085938 15.046875 25.117188 15.042969 C 25.167969 15.039062 25.21875 14.839844 25.269531 14.792969 C 25.296875 14.765625 25.3125 14.757812 25.332031 14.761719 C 25.34375 14.765625 25.441406 14.625 25.476562 14.597656 C 25.484375 14.601562 25.542969 14.644531 25.546875 14.640625 C 25.546875 14.640625 25.554688 14.625 25.5625 14.613281 C 25.570312 14.59375 25.757812 14.425781 25.777344 14.421875 C 25.886719 14.40625 25.722656 14.300781 25.816406 14.285156 C 25.925781 14.269531 25.8125 14.167969 25.832031 14.132812 C 25.878906 14.058594 25.992188 14.171875 26.058594 14.121094 C 26.128906 14.066406 26.214844 14.117188 26.289062 14.046875 C 26.367188 13.976562 26.375 13.875 26.421875 13.785156 C 26.453125 13.722656 26.394531 13.753906 26.378906 13.6875 C 26.363281 13.617188 26.472656 13.496094 26.5 13.421875 L 26.464844 13.386719 C 26.421875 13.34375 26.421875 13.328125 26.46875 13.320312 C 26.492188 13.316406 26.523438 13.304688 26.535156 13.292969 C 26.5625 13.269531 26.5625 13.269531 26.542969 13.242188 C 26.5 13.171875 26.472656 13.070312 26.386719 13.039062 C 26.234375 12.984375 26.039062 13.011719 25.898438 12.929688 C 25.839844 12.898438 25.71875 12.746094 25.707031 12.6875 C 25.6875 12.589844 25.628906 12.738281 25.597656 12.722656 C 25.585938 12.714844 25.460938 12.582031 25.449219 12.5625 C 25.40625 12.496094 25.285156 12.132812 25.203125 12.152344 C 25.277344 12.128906 25.425781 12.144531 25.472656 12.074219 C 25.507812 12.019531 25.585938 11.957031 25.664062 11.921875 C 25.765625 11.875 25.824219 11.863281 25.882812 11.878906 C 25.90625 11.886719 25.929688 11.890625 25.933594 11.886719 C 25.96875 11.851562 25.902344 11.679688 25.917969 11.625 C 25.9375 11.535156 25.972656 11.4375 26.007812 11.355469 C 26.113281 11.128906 25.914062 11.085938 25.917969 10.878906 C 25.921875 10.832031 25.929688 10.789062 25.949219 10.753906 C 25.976562 10.695312 25.808594 10.386719 25.753906 10.292969 C 25.707031 10.207031 25.617188 10.128906 25.566406 10.042969 C 25.503906 9.941406 25.585938 9.777344 25.523438 9.6875 C 25.464844 9.589844 25.660156 9.460938 25.550781 9.351562 C 25.496094 9.289062 25.441406 9.261719 25.421875 9.175781 C 25.421875 9.179688 25.414062 9.046875 25.398438 9.03125 C 25.34375 8.9375 24.890625 8.945312 24.792969 8.929688 C 24.742188 8.917969 24.714844 8.949219 24.726562 9.003906 C 24.734375 9.027344 24.734375 9.058594 24.734375 9.078125 C 24.722656 9.234375 24.910156 9.152344 24.960938 9.25 C 24.964844 9.257812 24.914062 9.441406 24.910156 9.445312 C 24.882812 9.476562 24.875 9.472656 24.867188 9.425781 C 24.828125 9.371094 24.789062 9.316406 24.746094 9.265625 L 24.738281 9.230469 L 24.710938 9.269531 C 24.667969 9.324219 24.574219 9.304688 24.515625 9.34375 C 24.414062 9.410156 24.4375 9.355469 24.347656 9.304688 C 24.320312 9.289062 24.316406 9.289062 24.335938 9.269531 C 24.367188 9.234375 24.265625 9.242188 24.261719 9.207031 C 24.253906 9.167969 24.453125 9.21875 24.488281 9.226562 C 24.546875 9.171875 24.648438 9.148438 24.679688 9.074219 C 24.703125 9.011719 24.703125 9.011719 24.660156 8.949219 C 24.625 8.898438 24.625 8.898438 24.570312 8.90625 C 24.363281 8.9375 23.859375 8.839844 23.699219 8.714844 L 23.6875 8.746094 C 23.667969 8.796875 23.585938 8.765625 23.546875 8.808594 C 23.496094 8.871094 23.546875 8.949219 23.511719 9.019531 C 23.492188 9.058594 23.488281 9.0625 23.457031 9.054688 C 23.332031 9.03125 23.199219 9.101562 23.085938 9.101562 L 23.035156 9.101562 L 23.035156 9.058594 C 23.035156 9.015625 23.035156 9.015625 23.070312 9.03125 C 23.101562 9.039062 23.109375 9.039062 23.140625 9.007812 C 23.175781 8.976562 23.175781 8.976562 23.167969 8.882812 C 23.164062 8.832031 23.152344 8.785156 23.148438 8.777344 C 23.125 8.746094 23.09375 8.761719 23.070312 8.804688 C 23.050781 8.847656 23.050781 8.855469 23.0625 8.871094 C 23.078125 8.890625 23.082031 8.914062 23.078125 8.933594 C 23.039062 8.9375 23.074219 8.871094 23.019531 8.925781 C 23.007812 8.9375 22.941406 9.054688 22.914062 9.046875 C 22.84375 9.023438 22.902344 9.015625 22.851562 8.980469 C 22.890625 9.015625 23.066406 8.78125 22.976562 8.832031 C 22.886719 8.878906 22.660156 8.84375 22.578125 8.800781 C 22.496094 8.761719 22.496094 8.683594 22.429688 8.632812 C 22.324219 8.546875 22.257812 8.792969 22.125 8.707031 C 22.058594 8.660156 21.972656 8.707031 21.90625 8.660156 C 21.875 8.636719 21.871094 8.628906 21.878906 8.613281 C 21.921875 8.542969 21.925781 8.433594 21.953125 8.359375 L 21.925781 8.328125 C 21.898438 8.304688 21.578125 8.296875 21.53125 8.308594 C 21.503906 8.316406 21.480469 8.324219 21.484375 8.332031 C 21.484375 8.339844 21.488281 8.367188 21.492188 8.390625 C 21.503906 8.457031 21.464844 8.433594 21.40625 8.445312 C 21.300781 8.46875 21.421875 8.578125 21.242188 8.515625 C 21.214844 8.507812 20.929688 8.460938 20.90625 8.46875 C 20.828125 8.5 21.023438 8.652344 20.921875 8.636719 C 20.820312 8.621094 20.972656 8.738281 20.9375 8.757812 C 20.914062 8.773438 20.945312 8.875 20.9375 8.90625 C 20.921875 8.988281 20.898438 9 20.835938 8.960938 C 20.746094 8.902344 20.761719 8.773438 20.742188 8.683594 C 20.71875 8.578125 20.808594 8.777344 20.835938 8.675781 C 20.84375 8.644531 20.777344 8.488281 20.761719 8.460938 C 20.695312 8.355469 20.554688 8.324219 20.472656 8.226562 C 20.394531 8.132812 20.480469 8.082031 20.359375 8.050781 C 20.3125 8.039062 20.320312 8.152344 20.261719 8.160156 C 20.160156 8.183594 19.699219 7.882812 19.660156 7.976562 C 19.621094 8.074219 19.503906 7.890625 19.492188 7.984375 C 19.484375 8.023438 19.464844 8.011719 19.445312 7.960938 C 19.4375 7.9375 19.414062 7.894531 19.390625 7.867188 C 19.328125 7.792969 19.195312 7.796875 19.113281 7.734375 C 19.011719 7.65625 18.914062 7.539062 18.816406 7.449219 C 18.726562 7.367188 18.601562 7.441406 18.496094 7.421875 C 18.402344 7.402344 18.273438 7.308594 18.203125 7.25 C 18.066406 7.15625 17.839844 7.15625 17.683594 7.089844 C 17.539062 7.035156 16.945312 6.824219 16.824219 6.953125 C 16.78125 6.996094 16.84375 6.929688 16.824219 6.953125 Z M 16.824219 6.953125 " fill-opacity="1" fill-rule="nonzero"/></g><path fill="#014d4e" d="M 13.582031 15.242188 C 13.355469 15.296875 13.144531 15.285156 13.003906 15.507812 C 12.988281 15.546875 12.976562 15.582031 12.964844 15.617188 C 12.949219 15.636719 12.949219 15.640625 12.980469 15.707031 C 13.0625 15.863281 13.25 15.941406 13.355469 16.085938 C 13.449219 16.214844 13.53125 16.304688 13.679688 16.367188 C 13.761719 16.40625 13.84375 16.351562 13.941406 16.402344 C 14.027344 16.445312 14.117188 16.445312 14.214844 16.457031 C 14.402344 16.488281 14.515625 16.679688 14.703125 16.679688 L 14.761719 16.679688 C 14.941406 16.875 15.113281 17 15.339844 17.125 C 15.488281 17.207031 15.789062 17.15625 15.957031 17.160156 C 16.101562 17.222656 16.246094 17.269531 16.398438 17.304688 C 16.453125 17.316406 16.523438 17.339844 16.582031 17.332031 C 16.738281 17.308594 16.699219 17.40625 16.757812 17.503906 C 16.8125 17.59375 16.914062 17.5625 16.957031 17.480469 C 16.976562 17.4375 16.917969 17.394531 16.910156 17.355469 C 16.902344 17.320312 16.90625 17.3125 16.933594 17.285156 C 16.953125 17.273438 16.992188 17.25 17.027344 17.238281 C 17.101562 17.214844 17.101562 17.183594 17.039062 17.121094 C 16.953125 17.042969 16.96875 16.871094 16.9375 16.769531 C 16.914062 16.691406 16.722656 16.4375 16.636719 16.4375 L 16.609375 16.4375 L 16.632812 16.410156 C 16.699219 16.339844 16.097656 16.234375 16.074219 16.21875 C 15.902344 16.132812 15.550781 16.105469 15.4375 15.941406 C 15.375 15.847656 14.851562 15.632812 14.847656 15.640625 C 14.863281 15.59375 14.476562 15.550781 14.441406 15.539062 C 14.25 15.484375 14.121094 15.335938 13.945312 15.277344 C 13.917969 15.269531 13.660156 15.222656 13.652344 15.222656 C 13.648438 15.226562 13.617188 15.230469 13.582031 15.242188 C 13.546875 15.25 13.617188 15.230469 13.582031 15.242188 Z M 13.582031 15.242188 " fill-opacity="1" fill-rule="nonzero"/><path fill="#014d4e" d="M 9.167969 18 C 9.121094 18.046875 9.125 18.0625 9.058594 18.089844 C 8.980469 18.128906 8.960938 18.15625 8.960938 18.238281 C 8.964844 18.402344 9.207031 18.476562 9.34375 18.488281 C 9.425781 18.496094 9.511719 18.464844 9.628906 18.378906 C 9.722656 18.308594 9.753906 18.261719 9.753906 18.179688 C 9.753906 18.058594 9.394531 17.988281 9.285156 17.976562 C 9.199219 17.96875 9.199219 17.972656 9.167969 18 C 9.148438 18.019531 9.199219 17.972656 9.167969 18 Z M 9.167969 18 " fill-opacity="1" fill-rule="nonzero"/><path fill="#014d4e" d="M 12.15625 21.488281 C 12.125 21.511719 11.996094 21.484375 12.007812 21.511719 C 12.011719 21.527344 12.015625 21.550781 12.019531 21.566406 C 12.03125 21.636719 12.210938 21.609375 12.246094 21.578125 C 12.261719 21.566406 12.199219 21.476562 12.191406 21.464844 L 12.15625 21.488281 C 12.128906 21.507812 12.15625 21.488281 12.15625 21.488281 Z M 12.15625 21.488281 " fill-opacity="1" fill-rule="nonzero"/><path fill="#014d4e" d="M 9.679688 22.546875 C 9.605469 22.59375 9.925781 22.878906 9.957031 22.929688 C 9.972656 22.957031 9.988281 22.960938 10.042969 22.964844 C 10.261719 22.984375 10.488281 22.980469 10.707031 22.980469 C 10.734375 22.953125 10.773438 22.902344 10.773438 22.863281 C 10.777344 22.789062 10.636719 22.632812 10.535156 22.605469 C 10.394531 22.5625 10.316406 22.765625 10.144531 22.722656 C 10.070312 22.699219 10.011719 22.617188 9.960938 22.558594 L 9.949219 22.597656 C 9.9375 22.632812 9.9375 22.632812 9.929688 22.609375 C 9.917969 22.570312 9.710938 22.527344 9.679688 22.546875 C 9.667969 22.554688 9.703125 22.53125 9.679688 22.546875 Z M 9.679688 22.546875 " fill-opacity="1" fill-rule="nonzero"/></svg>