<svg xmlns="http://www.w3.org/2000/svg" xmlns:xlink="http://www.w3.org/1999/xlink" width="40" zoomAndPan="magnify" viewBox="0 0 30 30.000001" height="40" preserveAspectRatio="xMidYMid meet" version="1.0"><defs><clipPath id="57c3729beb"><path d="M 10.6875 2.902344 L 19.398438 2.902344 L 19.398438 26.128906 L 10.6875 26.128906 Z M 10.6875 2.902344 " clip-rule="nonzero"/></clipPath></defs><g clip-path="url(#57c3729beb)"><path fill="#014d4e" d="M 11.976562 13.792969 C 11.957031 13.808594 11.707031 14.121094 11.667969 14.152344 C 11.632812 14.183594 11.683594 14.121094 11.550781 14.269531 C 11.414062 14.417969 11.417969 14.402344 11.292969 14.550781 C 11.167969 14.699219 11.214844 14.671875 11.191406 14.730469 C 11.167969 14.785156 10.980469 14.925781 10.980469 14.941406 C 10.980469 14.953125 10.835938 15.105469 10.828125 15.132812 C 10.820312 15.160156 10.746094 15.222656 10.714844 15.25 C 10.6875 15.28125 10.738281 15.441406 10.738281 15.441406 C 10.738281 15.441406 10.773438 15.585938 10.789062 15.648438 C 10.792969 15.667969 10.855469 15.878906 10.84375 15.933594 C 10.828125 15.988281 10.910156 16.257812 10.925781 16.324219 C 10.945312 16.386719 10.972656 16.605469 10.984375 16.628906 C 10.992188 16.652344 11.097656 16.910156 11.136719 17.003906 C 11.171875 17.097656 11.234375 17.28125 11.234375 17.28125 C 11.234375 17.28125 11.347656 17.550781 11.363281 17.578125 C 11.375 17.605469 11.464844 17.871094 11.523438 18.042969 C 11.585938 18.214844 11.613281 18.226562 11.613281 18.226562 C 11.613281 18.226562 11.789062 18.785156 11.804688 18.820312 C 11.820312 18.859375 11.84375 18.941406 11.871094 19.011719 C 11.898438 19.082031 11.933594 19.140625 11.945312 19.152344 C 11.953125 19.164062 12.09375 19.640625 12.105469 19.6875 C 12.117188 19.738281 12.105469 19.726562 12.105469 19.738281 C 12.105469 19.746094 12.109375 19.867188 12.132812 19.9375 C 12.152344 20.007812 12.128906 20.070312 12.132812 20.097656 C 12.132812 20.121094 12.242188 20.171875 12.277344 20.300781 C 12.316406 20.433594 12.277344 20.457031 12.277344 20.46875 C 12.277344 20.480469 12.25 20.5625 12.230469 20.613281 C 12.214844 20.664062 12.21875 20.667969 12.21875 20.6875 C 12.21875 20.707031 12.230469 20.738281 12.234375 20.746094 C 12.238281 20.753906 12.289062 20.804688 12.316406 20.847656 C 12.347656 20.894531 12.367188 20.933594 12.386719 20.949219 C 12.40625 20.960938 12.480469 21.015625 12.519531 21.046875 C 12.5625 21.082031 12.566406 21.121094 12.59375 21.183594 C 12.625 21.242188 12.714844 21.402344 12.726562 21.425781 C 12.738281 21.453125 12.753906 21.554688 12.789062 21.675781 C 12.828125 21.796875 12.839844 21.808594 12.855469 21.875 C 12.875 21.9375 12.890625 21.976562 12.941406 22.097656 C 12.992188 22.21875 12.988281 22.203125 13.035156 22.300781 C 13.078125 22.398438 13.136719 22.535156 13.136719 22.535156 L 13.136719 22.75 C 13.136719 22.761719 13.285156 23.007812 13.285156 23.007812 L 13.285156 23.152344 C 13.285156 23.222656 13.285156 23.230469 13.300781 23.292969 C 13.3125 23.359375 13.351562 23.429688 13.351562 23.429688 L 13.347656 23.515625 C 13.347656 23.515625 13.328125 23.605469 13.328125 23.621094 C 13.328125 23.640625 13.402344 23.769531 13.449219 23.828125 C 13.5 23.882812 13.550781 24.035156 13.613281 24.21875 C 13.679688 24.398438 13.707031 24.445312 13.761719 24.609375 C 13.816406 24.773438 13.789062 24.714844 13.8125 24.851562 C 13.835938 24.984375 13.851562 24.992188 13.898438 25.144531 C 13.945312 25.296875 13.90625 25.292969 13.898438 25.433594 C 13.894531 25.574219 13.90625 25.570312 13.902344 25.605469 C 13.898438 25.640625 13.902344 25.734375 13.902344 25.800781 C 13.902344 25.867188 13.898438 25.929688 13.902344 25.949219 C 13.90625 25.964844 14.054688 26.09375 14.074219 26.109375 C 14.089844 26.121094 14.191406 26.113281 14.242188 26.109375 C 14.289062 26.101562 14.304688 26.082031 14.359375 26.054688 C 14.414062 26.027344 14.417969 25.996094 14.464844 25.90625 C 14.507812 25.816406 14.46875 25.839844 14.484375 25.691406 C 14.496094 25.542969 14.609375 25.488281 14.652344 25.414062 C 14.691406 25.335938 14.6875 25.070312 14.6875 25.070312 C 14.6875 25.070312 14.703125 24.949219 14.75 24.808594 C 14.792969 24.664062 14.867188 24.582031 14.9375 24.308594 C 15.003906 24.03125 14.976562 24.078125 14.992188 23.914062 C 15.003906 23.75 15.050781 23.621094 15.066406 23.53125 C 15.085938 23.445312 15.097656 23.390625 15.125 23.300781 C 15.148438 23.210938 15.160156 23.167969 15.21875 23.054688 C 15.273438 22.945312 15.285156 22.953125 15.40625 22.800781 C 15.523438 22.644531 15.476562 22.621094 15.507812 22.441406 C 15.542969 22.261719 15.5 22.21875 15.5 22.21875 C 15.5 22.21875 15.433594 22.179688 15.40625 22.09375 C 15.378906 22.007812 15.375 21.871094 15.378906 21.753906 C 15.378906 21.632812 15.378906 21.695312 15.421875 21.59375 C 15.464844 21.488281 15.46875 21.460938 15.492188 21.3125 C 15.515625 21.160156 15.574219 21.136719 15.574219 21.042969 C 15.574219 20.949219 15.558594 20.96875 15.527344 20.921875 C 15.496094 20.875 15.46875 20.761719 15.457031 20.699219 C 15.445312 20.636719 15.507812 20.285156 15.570312 20.179688 C 15.632812 20.070312 15.632812 19.980469 15.632812 19.980469 C 15.632812 19.980469 15.671875 19.863281 15.71875 19.796875 C 15.761719 19.726562 15.8125 19.597656 15.8125 19.597656 C 15.8125 19.597656 15.890625 19.417969 15.945312 19.347656 C 15.996094 19.277344 16.074219 19.007812 16.074219 19.007812 C 16.074219 19.007812 16.03125 19 16.136719 18.824219 C 16.246094 18.644531 16.160156 18.730469 16.160156 18.589844 C 16.160156 18.445312 16.363281 18.351562 16.363281 18.351562 C 16.363281 18.351562 16.382812 18.023438 16.410156 17.886719 C 16.4375 17.75 16.511719 17.742188 16.589844 17.644531 C 16.667969 17.546875 16.640625 17.433594 16.640625 17.433594 C 16.640625 17.433594 16.601562 17.308594 16.589844 17.214844 C 16.582031 17.125 16.613281 17.097656 16.613281 17.054688 C 16.617188 17.007812 16.714844 16.898438 16.742188 16.804688 C 16.773438 16.714844 16.742188 16.558594 16.742188 16.558594 C 16.742188 16.558594 16.691406 16.421875 16.675781 16.378906 C 16.664062 16.335938 16.640625 16.296875 16.636719 16.261719 C 16.628906 16.226562 16.585938 16.09375 16.59375 16.019531 C 16.601562 15.941406 16.585938 15.941406 16.59375 15.886719 C 16.601562 15.828125 16.71875 15.800781 16.753906 15.78125 C 16.789062 15.761719 16.761719 15.710938 16.761719 15.664062 C 16.761719 15.613281 16.835938 15.613281 16.878906 15.550781 C 16.921875 15.488281 16.878906 15.324219 16.878906 15.324219 C 16.878906 15.324219 16.78125 15.265625 16.78125 15.238281 C 16.78125 15.210938 16.800781 15.140625 16.808594 15.09375 C 16.816406 15.042969 16.789062 14.996094 16.753906 14.925781 C 16.71875 14.855469 16.710938 14.753906 16.695312 14.65625 C 16.675781 14.558594 16.703125 14.488281 16.699219 14.398438 C 16.691406 14.308594 16.699219 14.140625 16.699219 14.140625 C 16.726562 14.042969 16.777344 13.910156 16.792969 13.839844 C 16.8125 13.769531 16.851562 13.710938 16.929688 13.496094 C 17.007812 13.28125 17.027344 13.148438 17.027344 13.148438 L 17.078125 12.964844 C 17.078125 12.964844 17.207031 12.828125 17.410156 12.730469 C 17.613281 12.632812 17.546875 12.59375 17.546875 12.59375 C 17.546875 12.59375 17.558594 12.476562 17.527344 12.394531 C 17.492188 12.308594 17.492188 12.347656 17.472656 12.28125 C 17.449219 12.21875 17.472656 12.136719 17.488281 12.050781 C 17.507812 11.960938 17.503906 11.976562 17.484375 11.925781 C 17.464844 11.875 17.449219 11.730469 17.40625 11.539062 C 17.363281 11.351562 17.386719 11.359375 17.386719 11.359375 L 17.402344 10.914062 C 17.402344 10.914062 17.410156 10.808594 17.417969 10.699219 C 17.425781 10.585938 17.453125 10.554688 17.492188 10.40625 C 17.527344 10.261719 17.515625 10.289062 17.550781 10.132812 C 17.585938 9.976562 17.601562 9.878906 17.601562 9.601562 C 17.601562 9.324219 17.519531 8.960938 17.5 8.789062 C 17.484375 8.613281 17.5 8.574219 17.507812 8.5 C 17.515625 8.421875 17.589844 8.25 17.589844 8.25 C 17.589844 8.25 17.597656 8.171875 17.613281 8.074219 C 17.625 7.976562 17.632812 7.929688 17.65625 7.828125 C 17.683594 7.726562 17.664062 7.640625 17.664062 7.503906 C 17.664062 7.367188 17.683594 7.332031 17.820312 7.164062 C 17.960938 6.996094 17.949219 7.050781 17.984375 7.027344 C 18.019531 7.003906 18.304688 6.851562 18.304688 6.851562 C 18.304688 6.851562 18.40625 6.707031 18.546875 6.582031 C 18.691406 6.457031 18.703125 6.472656 18.824219 6.371094 C 18.945312 6.269531 19.011719 6.105469 19.011719 6.105469 C 19.011719 6.105469 19.035156 5.992188 19.039062 5.875 C 19.039062 5.757812 19.085938 5.746094 19.140625 5.636719 C 19.195312 5.53125 19.226562 5.511719 19.265625 5.4375 C 19.308594 5.359375 19.167969 5.179688 19.167969 5.179688 C 19.167969 5.179688 19.160156 5.15625 19.132812 5.019531 C 19.109375 4.882812 19.101562 4.90625 19.09375 4.835938 C 19.085938 4.761719 19.097656 4.75 19.09375 4.660156 C 19.089844 4.574219 19.089844 4.558594 19.074219 4.492188 C 19.0625 4.421875 19.027344 4.410156 18.984375 4.359375 C 18.945312 4.308594 18.941406 4.3125 18.929688 4.253906 C 18.917969 4.195312 18.957031 4.191406 19.011719 4.09375 C 19.070312 3.996094 18.980469 3.953125 18.941406 3.875 C 18.898438 3.800781 18.839844 3.742188 18.832031 3.679688 C 18.824219 3.617188 18.84375 3.558594 18.839844 3.535156 C 18.835938 3.511719 18.769531 3.464844 18.742188 3.445312 C 18.714844 3.421875 18.683594 3.402344 18.683594 3.386719 C 18.683594 3.367188 18.699219 3.375 18.726562 3.34375 C 18.753906 3.3125 18.785156 3.300781 18.855469 3.195312 C 18.925781 3.085938 18.878906 3.070312 18.824219 2.988281 C 18.773438 2.910156 18.695312 2.949219 18.574219 2.960938 C 18.453125 2.972656 18.425781 3.042969 18.410156 3.050781 C 18.398438 3.0625 18.089844 3.246094 17.992188 3.320312 C 17.894531 3.394531 17.816406 3.542969 17.691406 3.382812 C 17.566406 3.222656 17.507812 3.417969 17.488281 3.460938 C 17.464844 3.507812 17.390625 3.597656 17.367188 3.886719 C 17.339844 4.175781 17.238281 4.246094 17.230469 4.273438 C 17.222656 4.296875 17.171875 4.367188 17.113281 4.425781 C 17.050781 4.484375 16.957031 4.527344 16.875 4.550781 C 16.796875 4.574219 16.75 4.621094 16.679688 4.675781 C 16.609375 4.726562 16.546875 4.683594 16.476562 4.675781 C 16.402344 4.667969 16.429688 4.660156 16.355469 4.589844 C 16.285156 4.515625 16.273438 4.488281 16.199219 4.429688 C 16.121094 4.371094 16.105469 4.398438 16.039062 4.429688 C 15.976562 4.460938 15.976562 4.46875 15.945312 4.460938 C 15.914062 4.449219 15.8125 4.421875 15.78125 4.433594 C 15.75 4.441406 15.671875 4.523438 15.636719 4.535156 C 15.601562 4.550781 15.460938 4.480469 15.367188 4.472656 C 15.273438 4.464844 15.210938 4.605469 15.203125 4.671875 C 15.195312 4.734375 15.1875 4.800781 15.179688 4.84375 C 15.171875 4.886719 15.101562 5.027344 15.085938 5.0625 C 15.070312 5.097656 15.09375 5.484375 15.105469 5.539062 C 15.121094 5.597656 15.117188 5.664062 15.113281 5.699219 C 15.109375 5.738281 15.058594 5.839844 15.023438 5.902344 C 14.988281 5.964844 14.882812 6.097656 14.851562 6.125 C 14.820312 6.148438 14.789062 6.140625 14.726562 6.132812 C 14.660156 6.128906 14.613281 6.023438 14.53125 6.03125 C 14.449219 6.042969 14.4375 6.296875 14.4375 6.488281 C 14.4375 6.683594 14.378906 6.644531 14.324219 7.050781 C 14.269531 7.453125 14.308594 7.1875 14.296875 7.292969 C 14.28125 7.398438 14.261719 7.535156 14.261719 7.558594 C 14.261719 7.578125 14.21875 8.15625 14.210938 8.191406 C 14.207031 8.222656 14.074219 8.703125 14.074219 8.703125 C 14.074219 8.703125 13.984375 8.96875 13.941406 9.066406 C 13.898438 9.164062 13.921875 9.140625 13.921875 9.140625 C 13.921875 9.140625 13.761719 9.835938 13.75 9.886719 C 13.734375 9.9375 13.648438 10.121094 13.648438 10.121094 C 13.648438 10.121094 13.566406 10.328125 13.550781 10.386719 C 13.53125 10.445312 13.472656 10.652344 13.472656 10.652344 L 13.253906 11.25 C 13.253906 11.25 13.199219 11.375 13.132812 11.621094 C 13.066406 11.863281 13.078125 11.769531 13.078125 11.769531 C 13.078125 11.769531 12.71875 12.570312 12.695312 12.605469 C 12.671875 12.644531 12.3125 13.199219 12.308594 13.214844 C 12.304688 13.226562 12.191406 13.390625 12.125 13.488281 C 12.078125 13.558594 12.058594 13.585938 12.050781 13.628906 C 12.046875 13.675781 12.027344 13.71875 12 13.757812 Z M 11.976562 13.792969 " fill-opacity="1" fill-rule="nonzero"/></g></svg>