<svg xmlns="http://www.w3.org/2000/svg" xmlns:xlink="http://www.w3.org/1999/xlink" width="40" zoomAndPan="magnify" viewBox="0 0 30 30.000001" height="40" preserveAspectRatio="xMidYMid meet" version="1.0"><defs><clipPath id="7c0adf05aa"><path d="M 3.386719 6.023438 L 26.613281 6.023438 L 26.613281 22.71875 L 3.386719 22.71875 Z M 3.386719 6.023438 " clip-rule="nonzero"/></clipPath></defs><g clip-path="url(#7c0adf05aa)"><path fill="#014d4e" d="M 24.824219 6.46875 C 24.816406 6.585938 24.746094 6.6875 24.707031 6.796875 C 24.558594 7.210938 24.316406 7.582031 24.109375 7.96875 C 23.988281 8.203125 23.855469 8.429688 23.726562 8.660156 C 23.707031 8.699219 23.707031 8.742188 23.710938 8.785156 C 23.730469 9.03125 23.738281 9.285156 23.921875 9.484375 C 24.054688 9.628906 24.089844 9.816406 24.160156 9.992188 C 24.234375 10.183594 24.3125 10.371094 24.453125 10.523438 C 24.578125 10.65625 24.753906 10.691406 24.921875 10.707031 C 25.152344 10.730469 25.390625 10.703125 25.621094 10.765625 C 25.859375 10.832031 26.070312 10.945312 26.21875 11.152344 C 26.285156 11.25 26.351562 11.347656 26.421875 11.4375 C 26.542969 11.589844 26.566406 11.773438 26.585938 11.957031 C 26.59375 12.050781 26.546875 12.109375 26.453125 12.140625 C 26.261719 12.203125 26.074219 12.285156 25.914062 12.402344 C 25.808594 12.480469 25.734375 12.597656 25.648438 12.703125 C 25.558594 12.816406 25.472656 12.933594 25.382812 13.050781 C 25.328125 13.121094 25.269531 13.183594 25.179688 13.214844 C 24.925781 13.300781 24.789062 13.507812 24.660156 13.71875 C 24.53125 13.941406 24.398438 14.160156 24.226562 14.347656 C 24.117188 14.472656 23.960938 14.554688 23.804688 14.609375 C 23.484375 14.71875 23.164062 14.820312 22.839844 14.925781 C 22.789062 14.941406 22.761719 14.964844 22.785156 15.035156 C 22.882812 15.347656 22.976562 15.664062 23.078125 15.980469 C 23.113281 16.09375 23.097656 16.167969 22.992188 16.234375 C 22.78125 16.371094 22.574219 16.511719 22.375 16.660156 C 22.109375 16.859375 21.796875 16.941406 21.492188 17.039062 C 21.046875 17.179688 20.589844 17.292969 20.1875 17.535156 C 19.941406 17.683594 19.691406 17.816406 19.441406 17.953125 C 19.390625 17.984375 19.363281 18.027344 19.367188 18.089844 C 19.378906 18.195312 19.359375 18.304688 19.390625 18.414062 C 19.417969 18.496094 19.371094 18.566406 19.289062 18.601562 C 18.972656 18.730469 18.652344 18.855469 18.335938 18.984375 C 17.992188 19.121094 17.652344 19.277344 17.300781 19.394531 C 16.957031 19.507812 16.679688 19.714844 16.402344 19.925781 C 16.289062 20.011719 16.1875 20.117188 16.117188 20.246094 C 16.0625 20.347656 15.957031 20.375 15.859375 20.402344 C 15.597656 20.46875 15.339844 20.550781 15.066406 20.578125 C 14.773438 20.601562 14.476562 20.667969 14.207031 20.785156 C 14.058594 20.855469 13.929688 20.988281 13.847656 21.144531 C 13.683594 21.472656 13.523438 21.796875 13.359375 22.125 C 13.328125 22.195312 13.285156 22.265625 13.203125 22.269531 C 13.121094 22.269531 13.085938 22.195312 13.046875 22.136719 C 12.964844 22.015625 12.878906 21.898438 12.796875 21.777344 C 12.785156 21.761719 12.765625 21.738281 12.75 21.738281 C 12.566406 21.746094 12.386719 21.664062 12.199219 21.75 C 11.945312 21.867188 11.667969 21.914062 11.394531 21.976562 C 11.210938 22.019531 11.03125 21.941406 10.851562 21.917969 C 10.53125 21.878906 10.324219 21.664062 10.09375 21.480469 C 9.972656 21.386719 9.847656 21.292969 9.71875 21.210938 C 9.625 21.148438 9.507812 21.175781 9.40625 21.128906 C 9.148438 21.011719 8.90625 21.136719 8.664062 21.195312 C 8.539062 21.226562 8.417969 21.265625 8.292969 21.304688 C 8.027344 21.386719 7.804688 21.558594 7.570312 21.703125 C 7.300781 21.867188 7 21.957031 6.710938 22.082031 C 6.59375 22.132812 6.476562 22.210938 6.332031 22.1875 C 6.097656 22.144531 5.863281 22.105469 5.632812 22.054688 C 5.53125 22.03125 5.421875 22.046875 5.324219 21.984375 C 5.265625 21.949219 5.226562 21.910156 5.222656 21.839844 C 5.222656 21.765625 5.222656 21.6875 5.222656 21.613281 C 5.226562 21.488281 5.332031 21.457031 5.417969 21.425781 C 5.636719 21.351562 5.839844 21.238281 6.070312 21.210938 C 6.117188 21.203125 6.128906 21.164062 6.125 21.125 C 6.117188 20.976562 6.136719 20.824219 6.09375 20.675781 C 6.054688 20.523438 6.074219 20.390625 6.222656 20.277344 C 6.589844 19.980469 6.925781 19.640625 7.3125 19.371094 C 7.671875 19.117188 7.78125 18.71875 7.980469 18.375 C 8 18.339844 7.992188 18.292969 7.992188 18.25 C 7.992188 17.933594 7.988281 17.617188 7.996094 17.300781 C 8.003906 16.902344 8.121094 16.535156 8.347656 16.195312 C 8.484375 15.992188 8.621094 15.785156 8.691406 15.542969 C 8.71875 15.441406 8.703125 15.335938 8.703125 15.230469 C 8.699219 15.144531 8.699219 15.058594 8.746094 14.972656 C 8.789062 14.890625 8.847656 14.859375 8.941406 14.847656 C 9.460938 14.777344 9.96875 14.679688 10.460938 14.46875 C 10.910156 14.273438 11.273438 13.976562 11.652344 13.695312 C 11.910156 13.507812 12.203125 13.390625 12.476562 13.238281 C 12.6875 13.125 12.898438 13.015625 13.109375 12.902344 C 13.253906 12.824219 13.359375 12.695312 13.496094 12.609375 C 13.84375 12.382812 14.007812 12.007812 14.246094 11.691406 C 14.515625 11.332031 14.761719 10.953125 15.019531 10.582031 C 15.242188 10.265625 15.460938 9.949219 15.683594 9.636719 C 15.800781 9.472656 15.957031 9.339844 16.082031 9.183594 C 16.246094 8.972656 16.441406 8.785156 16.613281 8.582031 C 16.714844 8.460938 16.835938 8.375 16.96875 8.304688 C 17.421875 8.054688 17.878906 7.804688 18.335938 7.5625 C 18.585938 7.433594 18.863281 7.375 19.125 7.277344 C 19.492188 7.144531 19.859375 7.023438 20.222656 6.894531 C 20.539062 6.785156 20.855469 6.699219 21.191406 6.660156 C 21.476562 6.625 21.761719 6.566406 22.042969 6.535156 C 22.445312 6.492188 22.808594 6.335938 23.1875 6.226562 C 23.378906 6.175781 23.585938 6.167969 23.777344 6.109375 C 24.066406 6.019531 24.304688 6.167969 24.558594 6.242188 C 24.617188 6.257812 24.679688 6.269531 24.734375 6.300781 C 24.804688 6.34375 24.828125 6.390625 24.824219 6.46875 Z M 4.460938 22.953125 C 4.632812 22.738281 4.769531 22.5 4.90625 22.261719 C 4.941406 22.199219 4.949219 22.117188 4.875 22.082031 C 4.71875 22.003906 4.539062 21.949219 4.371094 21.988281 C 4.144531 22.039062 3.921875 22.117188 3.699219 22.183594 C 3.476562 22.246094 3.410156 22.523438 3.574219 22.6875 C 3.632812 22.75 3.695312 22.816406 3.757812 22.875 C 3.816406 22.929688 3.878906 22.953125 3.960938 22.914062 C 4.050781 22.875 4.132812 22.882812 4.207031 22.949219 C 4.242188 22.984375 4.285156 22.996094 4.3125 22.996094 C 4.378906 22.996094 4.425781 23 4.460938 22.953125 Z M 4.460938 22.953125 " fill-opacity="1" fill-rule="nonzero"/></g></svg>