<svg xmlns="http://www.w3.org/2000/svg" xmlns:xlink="http://www.w3.org/1999/xlink" width="40" zoomAndPan="magnify" viewBox="0 0 30 30.000001" height="40" preserveAspectRatio="xMidYMid meet" version="1.0"><defs><clipPath id="b4bd418d75"><path d="M 4.417969 2.902344 L 25.464844 2.902344 L 25.464844 26.128906 L 4.417969 26.128906 Z M 4.417969 2.902344 " clip-rule="nonzero"/></clipPath></defs><g clip-path="url(#b4bd418d75)"><path fill="#014d4e" d="M 22.445312 14.800781 L 22.492188 14.878906 L 22.53125 14.878906 L 22.546875 14.832031 L 22.539062 14.773438 L 22.601562 14.789062 L 22.65625 14.867188 L 22.65625 14.925781 L 22.742188 14.925781 L 22.742188 14.851562 L 22.796875 14.820312 L 22.796875 14.753906 L 22.835938 14.734375 L 22.867188 14.734375 L 22.902344 14.78125 L 22.925781 14.734375 L 22.925781 14.582031 L 22.902344 14.511719 L 22.882812 14.328125 L 22.882812 14.195312 L 22.84375 14.191406 L 22.824219 14.117188 L 22.925781 14.117188 L 22.964844 14.113281 L 23.003906 14.058594 C 23.003906 14.058594 23.03125 13.921875 23.039062 13.902344 C 23.042969 13.882812 23.023438 13.765625 23.039062 13.746094 C 23.054688 13.722656 23.039062 13.605469 23.039062 13.605469 L 23.003906 13.457031 L 22.941406 13.363281 L 22.941406 13.296875 L 22.902344 13.261719 L 22.914062 13.214844 C 22.914062 13.214844 22.921875 13.179688 22.941406 13.167969 C 22.960938 13.15625 23.042969 13.261719 23.042969 13.261719 L 23.070312 13.261719 L 23.09375 13.207031 L 23.167969 13.183594 C 23.167969 13.183594 23.214844 13.1875 23.214844 13.214844 C 23.214844 13.242188 23.214844 13.265625 23.214844 13.265625 L 23.257812 13.265625 L 23.3125 13.222656 L 23.375 13.222656 C 23.375 13.222656 23.421875 13.238281 23.421875 13.265625 C 23.421875 13.285156 23.464844 13.335938 23.464844 13.335938 L 23.542969 13.265625 L 23.570312 13.117188 C 23.570312 13.117188 23.589844 13.054688 23.601562 13.027344 C 23.617188 13 23.65625 12.941406 23.65625 12.941406 L 23.65625 12.875 L 23.691406 12.792969 L 23.691406 12.757812 L 23.734375 12.75 L 23.78125 12.707031 L 23.78125 12.667969 L 23.8125 12.613281 L 23.8125 12.554688 L 23.859375 12.507812 L 23.898438 12.429688 L 23.898438 12.347656 L 23.832031 12.28125 C 23.832031 12.28125 23.78125 12.277344 23.789062 12.25 C 23.792969 12.222656 23.8125 12.183594 23.8125 12.183594 L 23.820312 12.058594 L 23.898438 12.035156 L 23.933594 11.988281 L 23.957031 11.910156 L 24.003906 11.847656 L 24.066406 11.800781 L 24.066406 11.738281 C 24.066406 11.738281 24.066406 11.71875 24.066406 11.699219 C 24.066406 11.679688 24.082031 11.644531 24.101562 11.625 C 24.121094 11.605469 24.140625 11.578125 24.140625 11.578125 L 24.101562 11.5 L 24.082031 11.390625 L 24.0625 11.304688 L 24.09375 11.191406 L 24.140625 11.121094 C 24.140625 11.121094 24.152344 11.105469 24.171875 11.101562 C 24.191406 11.09375 24.257812 11.082031 24.257812 11.082031 L 24.355469 10.957031 C 24.355469 10.957031 24.402344 10.917969 24.421875 10.917969 C 24.441406 10.917969 24.5 10.851562 24.5 10.851562 L 24.53125 10.792969 L 24.597656 10.789062 C 24.597656 10.789062 24.609375 10.789062 24.636719 10.761719 C 24.660156 10.738281 24.675781 10.683594 24.675781 10.683594 C 24.675781 10.683594 24.730469 10.640625 24.742188 10.621094 C 24.753906 10.601562 24.8125 10.546875 24.832031 10.546875 C 24.851562 10.546875 24.988281 10.511719 24.988281 10.511719 L 25.054688 10.492188 L 25.054688 10.453125 L 25.113281 10.460938 L 25.167969 10.445312 L 25.230469 10.441406 L 25.269531 10.480469 L 25.269531 10.582031 L 25.324219 10.578125 L 25.382812 10.613281 L 25.4375 10.632812 L 25.46875 10.605469 L 25.46875 10.546875 L 25.386719 10.429688 L 25.300781 10.371094 L 25.28125 10.226562 L 25.296875 10.183594 L 25.347656 10.144531 L 25.449219 10.011719 L 25.539062 9.964844 L 25.578125 9.964844 L 25.578125 9.847656 C 25.554688 9.792969 25.519531 9.730469 25.519531 9.730469 L 25.4375 9.613281 L 25.351562 9.605469 L 25.300781 9.632812 L 25.234375 9.625 L 25.1875 9.625 L 25.117188 9.621094 L 25.082031 9.585938 L 25.039062 9.585938 L 24.960938 9.613281 C 24.960938 9.613281 24.941406 9.59375 24.917969 9.617188 C 24.898438 9.644531 24.90625 9.671875 24.90625 9.671875 L 24.886719 9.710938 L 24.789062 9.671875 L 24.808594 9.585938 L 24.828125 9.523438 L 24.847656 9.464844 L 24.871094 9.410156 L 24.910156 9.375 L 24.9375 9.34375 L 24.96875 9.285156 L 24.871094 9.238281 L 24.832031 9.144531 L 24.730469 9.167969 L 24.714844 9.246094 L 24.640625 9.269531 L 24.640625 9.171875 L 24.578125 9.132812 L 24.601562 9.097656 L 24.636719 9.058594 L 24.671875 9 L 24.734375 9 L 24.652344 8.945312 L 24.539062 8.816406 L 24.394531 8.90625 L 24.21875 9.019531 L 24.191406 9.105469 L 24.152344 9.167969 L 24.152344 9.207031 L 24.011719 9.207031 L 23.9375 9.148438 L 23.882812 9.148438 L 23.765625 9.15625 L 23.683594 9.117188 L 23.597656 9.050781 L 23.554688 9.046875 L 23.507812 9.105469 C 23.507812 9.105469 23.484375 9.125 23.445312 9.136719 C 23.402344 9.152344 23.363281 9.152344 23.363281 9.152344 L 23.164062 9.40625 L 23.058594 9.5 L 22.945312 9.578125 L 22.828125 9.597656 C 22.828125 9.597656 22.773438 9.652344 22.746094 9.652344 C 22.714844 9.652344 22.613281 9.664062 22.613281 9.664062 L 22.59375 9.75 L 22.546875 9.863281 C 22.546875 9.863281 22.574219 9.882812 22.515625 9.921875 C 22.457031 9.960938 22.316406 10.019531 22.316406 10.019531 L 22.273438 10.078125 L 22.296875 10.136719 L 22.277344 10.234375 L 22.226562 10.273438 L 22.160156 10.328125 L 22.058594 10.347656 L 21.972656 10.367188 L 21.917969 10.382812 L 21.839844 10.425781 C 21.839844 10.425781 21.777344 10.441406 21.757812 10.441406 C 21.738281 10.441406 21.65625 10.445312 21.65625 10.445312 L 21.578125 10.441406 L 21.554688 10.582031 L 21.574219 10.628906 L 21.652344 10.683594 L 21.746094 10.675781 L 21.796875 10.65625 L 21.851562 10.640625 L 21.925781 10.703125 L 21.945312 10.773438 L 21.90625 10.828125 L 21.847656 10.882812 L 21.878906 10.921875 L 21.9375 10.992188 L 21.957031 11.085938 C 21.957031 11.085938 21.984375 11.144531 21.945312 11.144531 C 21.90625 11.144531 21.828125 11.125 21.828125 11.125 L 21.800781 11.183594 L 21.738281 11.144531 L 21.710938 11.191406 L 21.632812 11.203125 C 21.632812 11.203125 21.59375 11.210938 21.570312 11.21875 C 21.542969 11.226562 21.503906 11.171875 21.503906 11.171875 L 21.464844 11.179688 L 21.410156 11.222656 C 21.410156 11.222656 21.347656 11.222656 21.328125 11.222656 C 21.308594 11.222656 21.242188 11.230469 21.242188 11.230469 L 21.066406 11.230469 L 20.914062 11.222656 L 20.816406 11.144531 L 20.644531 11.121094 L 20.625 11.191406 C 20.625 11.191406 20.589844 11.210938 20.566406 11.21875 C 20.542969 11.222656 20.460938 11.242188 20.460938 11.242188 L 20.363281 11.277344 L 20.285156 11.300781 L 20.222656 11.300781 L 20.128906 11.296875 L 20.054688 11.300781 L 20.089844 11.25 L 20.015625 11.253906 L 19.984375 11.230469 C 19.984375 11.230469 19.941406 11.175781 19.921875 11.183594 C 19.902344 11.191406 19.863281 11.21875 19.863281 11.21875 L 19.761719 11.238281 L 19.726562 11.183594 L 19.613281 11.132812 L 19.601562 11.089844 L 19.582031 11.03125 L 19.546875 10.972656 L 19.5625 10.910156 L 19.582031 10.855469 L 19.601562 10.820312 L 19.582031 10.769531 L 19.542969 10.714844 L 19.527344 10.65625 C 19.527344 10.65625 19.523438 10.617188 19.535156 10.59375 C 19.546875 10.566406 19.566406 10.519531 19.566406 10.519531 L 19.574219 10.445312 L 19.585938 10.371094 L 19.574219 10.28125 L 19.539062 10.226562 L 19.425781 10.207031 L 19.382812 10.1875 L 19.324219 10.203125 L 19.25 10.246094 L 19.195312 10.253906 L 19.171875 10.285156 L 19.027344 10.300781 L 19.027344 10.339844 L 19.0625 10.402344 L 19.0625 10.476562 L 19.046875 10.5625 L 18.964844 10.652344 L 18.957031 10.765625 L 18.953125 10.910156 L 18.964844 11.042969 L 19.019531 11.019531 L 19.023438 11.082031 L 19.050781 11.191406 L 19.125 11.296875 C 19.125 11.296875 19.105469 11.296875 19.089844 11.339844 C 19.074219 11.386719 19.050781 11.453125 19.050781 11.453125 L 18.976562 11.46875 L 18.945312 11.589844 L 18.839844 11.492188 L 18.820312 11.53125 L 18.703125 11.550781 L 18.617188 11.578125 L 18.515625 11.550781 L 18.46875 11.609375 C 18.429688 11.625 18.40625 11.585938 18.40625 11.585938 C 18.351562 11.566406 18.300781 11.550781 18.300781 11.550781 L 18.296875 11.460938 L 18.257812 11.453125 L 18.230469 11.488281 L 18.195312 11.507812 L 18.164062 11.53125 L 18.117188 11.539062 L 18.066406 11.542969 L 18.027344 11.582031 L 17.980469 11.511719 L 17.808594 11.425781 L 17.730469 11.40625 L 17.691406 11.421875 L 17.578125 11.40625 L 17.5 11.410156 L 17.449219 11.445312 L 17.414062 11.464844 C 17.414062 11.464844 17.433594 11.390625 17.316406 11.398438 L 17.335938 11.230469 L 17.222656 11.230469 L 17.109375 11.3125 L 17.019531 11.332031 L 16.964844 11.230469 L 16.871094 11.222656 L 16.832031 11.164062 L 16.722656 11.132812 L 16.601562 11.105469 C 16.601562 11.105469 16.523438 11.125 16.570312 11.019531 C 16.613281 10.917969 16.5625 10.851562 16.5625 10.851562 L 16.410156 10.832031 L 16.328125 10.796875 L 16.292969 10.742188 L 16.230469 10.71875 L 16.171875 10.691406 L 16.171875 10.757812 L 16.078125 10.757812 L 15.953125 10.796875 L 15.875 10.761719 L 15.757812 10.738281 L 15.671875 10.738281 L 15.648438 10.78125 L 15.570312 10.863281 L 15.496094 10.75 L 15.445312 10.742188 L 15.332031 10.710938 L 15.273438 10.691406 L 15.179688 10.683594 L 15.199219 10.605469 L 15.160156 10.523438 L 15.082031 10.515625 L 15.007812 10.535156 L 14.976562 10.53125 L 14.871094 10.476562 L 14.84375 10.472656 L 14.6875 10.367188 L 14.632812 10.351562 C 14.632812 10.351562 14.605469 10.414062 14.585938 10.414062 C 14.566406 10.414062 14.527344 10.351562 14.507812 10.351562 C 14.488281 10.351562 14.367188 10.289062 14.367188 10.289062 L 14.261719 10.195312 L 14.21875 10.152344 L 14.144531 10.144531 L 14.15625 10.003906 L 14.078125 9.972656 L 14.015625 9.945312 L 13.960938 9.914062 L 13.867188 9.914062 L 13.894531 9.867188 L 13.828125 9.863281 L 13.765625 9.796875 L 13.699219 9.738281 L 13.652344 9.726562 L 13.632812 9.808594 L 13.589844 9.765625 L 13.503906 9.75 L 13.460938 9.65625 L 13.386719 9.617188 L 13.464844 9.476562 L 13.539062 9.34375 L 13.582031 9.277344 L 13.636719 9.273438 L 13.589844 9.128906 C 13.589844 9.128906 13.585938 9.109375 13.589844 9.078125 C 13.597656 9.042969 13.558594 9.050781 13.597656 9.042969 C 13.636719 9.035156 13.667969 9.042969 13.667969 9.023438 C 13.667969 9.003906 13.667969 8.828125 13.667969 8.828125 L 13.75 8.808594 C 13.75 8.808594 13.808594 8.746094 13.808594 8.726562 C 13.808594 8.707031 13.832031 8.667969 13.832031 8.667969 L 13.90625 8.664062 L 13.964844 8.566406 L 14.003906 8.546875 L 14.058594 8.539062 L 14.058594 8.488281 L 13.984375 8.4375 L 13.910156 8.417969 L 13.847656 8.296875 L 13.792969 8.285156 C 13.753906 8.269531 13.667969 8.21875 13.667969 8.21875 L 13.566406 8.214844 L 13.527344 8.167969 L 13.511719 8.070312 C 13.511719 8.070312 13.46875 8.039062 13.453125 8.019531 C 13.4375 8 13.375 7.984375 13.375 7.984375 L 13.28125 7.890625 L 13.21875 7.847656 C 13.21875 7.847656 13.199219 7.851562 13.171875 7.851562 C 13.148438 7.851562 13.101562 7.867188 13.101562 7.867188 L 13.027344 7.847656 L 12.992188 7.792969 L 12.941406 7.75 L 12.894531 7.667969 L 12.851562 7.65625 L 12.863281 7.542969 L 12.8125 7.542969 L 12.71875 7.402344 L 12.722656 7.480469 L 12.683594 7.519531 L 12.644531 7.570312 L 12.613281 7.570312 L 12.601562 7.488281 L 12.546875 7.46875 L 12.527344 7.390625 L 12.5625 7.3125 L 12.582031 7.230469 L 12.554688 7.167969 L 12.519531 7.109375 L 12.5 7.054688 L 12.488281 6.980469 L 12.429688 6.960938 L 12.441406 6.839844 L 12.363281 6.78125 L 12.398438 6.734375 L 12.398438 6.617188 L 12.285156 6.59375 L 12.34375 6.554688 L 12.410156 6.488281 L 12.59375 6.488281 L 12.59375 6.59375 L 12.671875 6.703125 L 12.847656 6.59375 L 12.992188 6.59375 L 13.113281 6.433594 L 13.113281 6.304688 L 12.980469 6.195312 L 13.019531 6.035156 C 13.019531 6.035156 12.929688 5.972656 12.890625 5.972656 C 12.851562 5.972656 12.726562 5.886719 12.726562 5.886719 L 12.722656 5.671875 L 12.839844 5.636719 L 12.800781 5.605469 L 12.746094 5.445312 L 12.730469 5.355469 L 13.113281 5.355469 L 13.113281 5.226562 L 13.175781 5.136719 L 13.191406 5.039062 L 13.328125 5.039062 L 13.328125 4.898438 L 13.5 4.84375 L 13.59375 4.65625 L 13.59375 4.496094 L 13.671875 4.367188 L 13.671875 4.257812 L 13.605469 4.140625 L 13.5 4.070312 L 13.472656 3.992188 L 13.152344 3.992188 L 13.128906 3.925781 L 13.007812 3.925781 L 12.875 3.980469 L 12.542969 3.980469 C 12.542969 3.980469 12.492188 3.992188 12.453125 4.003906 C 12.410156 4.019531 12.277344 4.082031 12.277344 4.082031 L 12.117188 4.148438 L 11.941406 4.164062 L 11.785156 4.203125 L 11.652344 4.179688 L 11.796875 4.070312 L 11.652344 3.980469 L 11.425781 3.859375 L 11.265625 3.632812 L 11.160156 3.632812 C 11.160156 3.632812 11.160156 3.566406 11.105469 3.527344 C 11.054688 3.488281 10.921875 3.421875 10.921875 3.421875 L 10.800781 3.339844 L 10.800781 3.234375 L 10.722656 3.167969 L 10.628906 3.101562 L 10.523438 3.101562 L 10.523438 2.957031 L 10.347656 2.957031 L 10.257812 2.902344 L 9.804688 2.902344 L 9.660156 2.957031 L 9.445312 2.972656 L 9.445312 3.0625 L 9.378906 3.117188 L 9.21875 3.050781 L 9.058594 3.023438 L 8.871094 3.183594 L 8.742188 3.261719 L 8.6875 3.332031 L 8.542969 3.4375 L 8.542969 3.632812 L 8.6875 3.6875 L 8.914062 3.671875 L 8.96875 3.859375 L 9.089844 3.949219 L 9.339844 4.003906 L 9.316406 4.070312 L 9.261719 4.191406 L 9.476562 4.285156 L 9.515625 4.351562 L 9.4375 4.527344 L 9.238281 4.578125 L 9.210938 4.710938 L 9.050781 4.726562 L 9.078125 4.855469 L 9.078125 5.269531 L 9.089844 5.535156 L 9.066406 5.765625 C 9.066406 5.765625 8.988281 5.84375 9.066406 5.894531 C 9.144531 5.949219 9.238281 6.003906 9.238281 6.003906 L 9.398438 6.054688 L 9.53125 6.125 L 9.546875 6.203125 L 9.667969 6.214844 L 9.789062 6.164062 L 9.761719 6.375 L 9.882812 6.429688 L 9.976562 6.46875 L 10.109375 6.523438 L 10.253906 6.546875 L 10.199219 6.707031 L 10.121094 6.8125 L 9.867188 6.8125 L 9.808594 6.890625 C 9.808594 6.890625 9.710938 6.921875 9.660156 6.976562 C 9.605469 7.03125 9.605469 7.03125 9.605469 7.03125 L 9.667969 7.191406 L 9.605469 7.257812 L 9.703125 7.257812 C 9.703125 7.257812 9.617188 7.320312 9.617188 7.378906 C 9.617188 7.429688 9.605469 7.5 9.605469 7.5 L 9.691406 7.5 C 9.691406 7.5 9.738281 7.582031 9.703125 7.582031 C 9.667969 7.582031 9.667969 7.582031 9.667969 7.582031 L 9.558594 7.648438 L 9.425781 7.738281 L 9.390625 7.816406 L 9.304688 7.894531 C 9.242188 7.949219 9.199219 8 9.199219 8 L 9.113281 8 L 9.175781 8.050781 L 9.113281 8.050781 L 9.140625 8.140625 L 9.113281 8.191406 L 9.113281 8.269531 L 9.019531 8.339844 L 8.964844 8.410156 C 8.964844 8.410156 8.894531 8.394531 8.851562 8.410156 C 8.808594 8.429688 8.757812 8.359375 8.730469 8.410156 C 8.707031 8.464844 8.6875 8.542969 8.6875 8.542969 L 8.558594 8.890625 C 8.558594 8.890625 8.410156 9.011719 8.390625 9.066406 C 8.375 9.117188 8.320312 9.167969 8.273438 9.195312 C 8.21875 9.222656 8.035156 9.308594 8.035156 9.308594 C 8.035156 9.308594 7.835938 9.40625 7.828125 9.449219 C 7.820312 9.496094 7.820312 9.496094 7.820312 9.496094 C 7.820312 9.496094 7.804688 9.660156 7.773438 9.660156 C 7.746094 9.660156 7.609375 9.753906 7.609375 9.753906 C 7.609375 9.753906 7.539062 9.945312 7.488281 9.972656 C 7.433594 10 7.332031 9.941406 7.195312 9.972656 C 7.054688 10.007812 6.949219 10.019531 6.90625 10.042969 C 6.863281 10.070312 6.699219 10.148438 6.671875 10.042969 C 6.644531 9.941406 6.625 9.855469 6.625 9.855469 C 6.625 9.855469 6.558594 9.722656 6.40625 9.792969 C 6.257812 9.863281 6.265625 9.933594 6.257812 9.957031 C 6.25 9.984375 6.148438 10.097656 6.148438 10.097656 C 6.148438 10.097656 6.113281 10.175781 6.015625 10.246094 C 5.917969 10.316406 5.839844 10.308594 5.796875 10.394531 C 5.75 10.484375 5.789062 10.507812 5.75 10.5625 C 5.71875 10.613281 5.609375 10.570312 5.699219 10.671875 C 5.785156 10.777344 5.828125 10.777344 5.871094 10.8125 C 5.917969 10.847656 5.96875 10.917969 5.96875 10.917969 C 5.96875 10.917969 6.140625 10.847656 6.167969 10.960938 C 6.191406 11.074219 6.210938 11.058594 6.175781 11.136719 C 6.140625 11.214844 6.097656 11.25 6.097656 11.25 L 6.09375 11.410156 L 6.136719 11.460938 L 6.15625 11.527344 C 6.15625 11.527344 6.125 11.601562 6.199219 11.621094 C 6.269531 11.640625 6.476562 11.640625 6.476562 11.660156 C 6.476562 11.679688 6.433594 11.808594 6.464844 11.859375 C 6.496094 11.914062 6.597656 12.117188 6.617188 12.15625 C 6.636719 12.195312 6.796875 12.457031 6.796875 12.457031 C 6.796875 12.457031 6.851562 12.5 6.796875 12.5 C 6.746094 12.5 6.714844 12.535156 6.714844 12.535156 C 6.714844 12.535156 6.746094 12.574219 6.738281 12.605469 C 6.734375 12.640625 6.707031 12.648438 6.699219 12.667969 C 6.695312 12.6875 6.71875 12.691406 6.71875 12.691406 L 6.8125 12.691406 L 6.726562 12.769531 C 6.726562 12.769531 6.636719 12.695312 6.625 12.769531 C 6.609375 12.84375 6.507812 12.855469 6.507812 12.855469 L 6.382812 12.796875 L 6.382812 12.671875 L 6.199219 12.6875 C 6.199219 12.6875 6.1875 12.71875 6.167969 12.71875 L 6.074219 12.71875 C 6.046875 12.71875 5.929688 12.8125 5.929688 12.8125 L 5.730469 12.8125 L 5.617188 12.679688 L 5.445312 12.675781 L 5.398438 12.695312 L 5.359375 12.679688 L 5.289062 12.679688 L 5.230469 12.6875 C 5.230469 12.6875 5.210938 12.640625 5.164062 12.667969 C 5.121094 12.691406 5.101562 12.613281 5.101562 12.613281 L 5.039062 12.675781 L 5.039062 12.578125 L 4.996094 12.578125 L 4.929688 12.855469 L 4.613281 12.855469 L 4.554688 12.898438 L 4.5 12.898438 L 4.449219 13.003906 L 4.417969 13.054688 L 4.417969 13.128906 C 4.417969 13.128906 4.523438 13.136719 4.550781 13.128906 C 4.574219 13.125 4.582031 13.03125 4.609375 13.027344 C 4.632812 13.019531 4.710938 13.03125 4.710938 13.03125 L 4.855469 12.953125 L 4.832031 13.015625 L 4.757812 13.070312 L 4.644531 13.132812 L 4.632812 13.203125 L 4.613281 13.257812 C 4.613281 13.257812 4.71875 13.226562 4.652344 13.316406 C 4.652344 13.316406 4.726562 13.265625 4.726562 13.316406 C 4.726562 13.371094 4.691406 13.414062 4.691406 13.414062 L 4.769531 13.371094 L 4.769531 13.507812 L 4.796875 13.574219 C 4.796875 13.574219 4.859375 13.625 4.902344 13.644531 C 4.941406 13.664062 5.140625 13.777344 5.160156 13.824219 C 5.179688 13.867188 5.238281 13.824219 5.265625 13.855469 C 5.289062 13.890625 5.308594 13.941406 5.308594 13.941406 C 5.308594 13.941406 5.355469 13.882812 5.414062 13.894531 C 5.472656 13.910156 5.570312 13.953125 5.589844 13.941406 C 5.609375 13.925781 5.695312 13.894531 5.695312 13.894531 L 5.769531 13.875 L 5.800781 13.816406 L 5.925781 13.816406 L 5.910156 13.78125 L 5.898438 13.746094 L 5.929688 13.699219 L 5.988281 13.792969 L 6.042969 13.675781 L 6.109375 13.699219 L 6.160156 13.71875 L 6.136719 13.824219 L 6.0625 13.902344 L 6.0625 13.945312 L 5.976562 14.023438 L 5.917969 14.082031 L 5.914062 14.144531 L 5.667969 14.144531 L 5.710938 14.183594 L 5.609375 14.265625 L 5.570312 14.214844 L 5.503906 14.226562 L 5.503906 14.265625 L 5.445312 14.292969 L 5.410156 14.246094 L 5.320312 14.261719 L 5.320312 14.292969 L 5.253906 14.269531 L 5.15625 14.292969 L 5.097656 14.332031 L 5.082031 14.269531 L 5.128906 14.203125 L 5.023438 14.210938 L 4.992188 14.195312 L 5.042969 14.136719 L 4.984375 14.125 C 4.984375 14.125 4.945312 14.15625 4.941406 14.175781 C 4.933594 14.195312 4.882812 14.261719 4.933594 14.332031 C 4.988281 14.40625 5.386719 14.921875 5.386719 14.921875 L 5.484375 15.003906 L 5.523438 15.003906 L 5.539062 15.132812 L 5.902344 15.46875 L 6.007812 15.558594 L 6.175781 15.640625 L 6.492188 15.640625 L 6.617188 15.585938 L 6.6875 15.585938 L 6.773438 15.527344 L 6.8125 15.5 L 6.886719 15.480469 C 6.886719 15.480469 6.929688 15.488281 6.949219 15.488281 C 6.96875 15.488281 7.027344 15.449219 7.027344 15.449219 C 7.027344 15.449219 7.121094 15.429688 7.144531 15.410156 C 7.171875 15.390625 7.203125 15.351562 7.203125 15.351562 L 7.246094 15.351562 L 7.257812 15.285156 L 7.355469 15.1875 C 7.355469 15.1875 7.410156 15.132812 7.410156 15.109375 C 7.410156 15.082031 7.410156 15.003906 7.410156 15.003906 L 7.453125 14.972656 L 7.429688 14.839844 L 7.414062 14.773438 L 7.496094 14.65625 L 7.433594 14.621094 L 7.46875 14.5625 L 7.527344 14.582031 L 7.566406 14.582031 L 7.605469 14.558594 L 7.546875 14.53125 L 7.601562 14.492188 L 7.675781 14.507812 C 7.675781 14.507812 7.785156 14.574219 7.804688 14.574219 C 7.824219 14.574219 7.949219 14.53125 7.949219 14.53125 L 7.875 14.613281 L 7.792969 14.617188 L 7.679688 14.5625 L 7.605469 14.667969 L 7.652344 14.6875 L 7.636719 14.730469 L 7.632812 14.785156 L 7.691406 14.800781 L 7.769531 14.765625 L 7.828125 14.78125 L 7.792969 14.832031 L 7.730469 14.832031 L 7.636719 14.847656 L 7.625 14.945312 L 7.605469 15.003906 L 7.742188 15.039062 L 7.625 15.0625 L 7.636719 15.117188 L 7.691406 15.097656 L 7.785156 15.058594 L 7.710938 15.171875 L 7.664062 15.191406 L 7.660156 15.25 L 7.652344 15.289062 L 7.625 15.316406 L 7.644531 15.359375 L 7.636719 15.414062 L 7.714844 15.429688 L 7.660156 15.480469 L 7.761719 15.480469 L 7.703125 15.515625 L 7.714844 15.582031 L 7.792969 15.582031 L 7.796875 15.613281 L 7.742188 15.640625 L 7.734375 15.675781 L 7.753906 15.707031 L 7.824219 15.707031 L 7.8125 15.753906 L 7.757812 15.753906 L 7.734375 15.898438 L 7.714844 15.949219 L 7.722656 15.972656 L 7.703125 16.003906 L 7.675781 16.027344 L 7.644531 16.097656 L 7.589844 16.121094 L 7.578125 16.164062 L 7.597656 16.195312 L 7.554688 16.214844 L 7.535156 16.269531 L 7.578125 16.351562 L 7.515625 16.320312 L 7.503906 16.351562 C 7.503906 16.351562 7.554688 16.371094 7.554688 16.386719 C 7.554688 16.40625 7.511719 16.441406 7.511719 16.441406 L 7.511719 16.476562 L 7.503906 16.507812 L 7.523438 16.535156 L 7.523438 16.570312 C 7.523438 16.570312 7.515625 16.585938 7.503906 16.605469 C 7.496094 16.628906 7.488281 16.667969 7.488281 16.667969 L 7.53125 16.667969 L 7.5625 16.636719 L 7.605469 16.667969 L 7.554688 16.699219 L 7.515625 16.738281 L 7.535156 16.765625 L 7.535156 16.824219 L 7.632812 16.84375 L 7.523438 16.878906 L 7.542969 16.996094 C 7.542969 16.996094 7.585938 17.027344 7.597656 17.027344 C 7.613281 17.027344 7.652344 17.027344 7.652344 17.027344 L 7.613281 17.097656 L 7.578125 17.175781 L 7.65625 17.207031 L 7.664062 17.238281 C 7.664062 17.238281 7.644531 17.234375 7.625 17.238281 C 7.605469 17.246094 7.578125 17.238281 7.578125 17.238281 L 7.546875 17.242188 C 7.546875 17.242188 7.542969 17.28125 7.542969 17.304688 C 7.542969 17.332031 7.578125 17.410156 7.578125 17.410156 L 7.59375 17.457031 L 7.554688 17.457031 L 7.5625 17.578125 L 7.601562 17.578125 L 7.589844 17.644531 L 7.65625 17.644531 L 7.644531 17.683594 L 7.5625 17.683594 L 7.550781 17.714844 L 7.605469 17.714844 L 7.59375 17.785156 L 7.605469 17.84375 L 7.609375 17.890625 L 7.640625 17.890625 L 7.609375 17.925781 L 7.609375 17.984375 L 7.664062 18.03125 L 7.675781 18.078125 L 7.664062 18.191406 L 7.722656 18.214844 L 7.675781 18.25 L 7.714844 18.328125 L 7.707031 18.375 L 7.675781 18.4375 L 7.730469 18.4375 L 7.714844 18.46875 L 7.695312 18.5 L 7.722656 18.535156 L 7.75 18.535156 L 7.714844 18.578125 L 7.695312 18.601562 L 7.722656 18.621094 L 7.726562 18.664062 L 7.703125 18.664062 L 7.707031 18.707031 L 7.75 18.707031 L 7.75 18.738281 L 7.707031 18.738281 L 7.734375 18.792969 L 7.722656 19.039062 L 7.757812 19.078125 L 7.753906 19.203125 L 7.785156 19.277344 L 7.773438 19.359375 L 7.808594 19.402344 L 7.765625 19.464844 L 7.804688 19.5 L 7.851562 19.539062 L 7.902344 19.695312 L 7.984375 19.871094 L 8.023438 19.917969 L 8.0625 19.917969 L 8.007812 19.96875 L 8.09375 20.050781 L 8.117188 20.105469 C 8.117188 20.105469 8.128906 20.179688 8.117188 20.195312 C 8.105469 20.210938 8.105469 20.210938 8.105469 20.210938 L 8.195312 20.378906 L 8.238281 20.4375 L 8.183594 20.460938 C 8.183594 20.460938 8.132812 20.476562 8.152344 20.488281 C 8.167969 20.496094 8.210938 20.539062 8.210938 20.539062 L 8.261719 20.515625 L 8.28125 20.566406 L 8.335938 20.566406 L 8.367188 20.652344 L 8.382812 20.71875 L 8.4375 20.757812 L 8.417969 20.796875 L 8.441406 20.871094 L 8.46875 20.914062 L 8.480469 20.96875 L 8.480469 21.015625 L 8.453125 21.070312 C 8.453125 21.070312 8.5625 21.179688 8.582031 21.226562 C 8.597656 21.273438 8.574219 21.367188 8.574219 21.367188 L 8.636719 21.367188 C 8.636719 21.367188 8.652344 21.40625 8.636719 21.40625 C 8.621094 21.40625 8.621094 21.40625 8.621094 21.40625 C 8.621094 21.40625 8.613281 21.457031 8.613281 21.472656 C 8.613281 21.484375 8.625 21.542969 8.625 21.542969 L 8.613281 21.59375 L 8.5625 21.628906 L 8.609375 21.664062 L 8.664062 21.773438 L 8.652344 21.972656 L 8.683594 21.972656 L 8.703125 22.003906 C 8.703125 22.003906 8.722656 22.101562 8.726562 22.113281 C 8.730469 22.132812 8.789062 22.3125 8.789062 22.3125 L 8.839844 22.410156 L 8.914062 22.71875 L 8.941406 22.8125 L 9.007812 22.839844 L 9.039062 22.875 L 9.082031 22.875 L 9.039062 22.921875 L 9.089844 22.980469 L 9.164062 23.03125 L 9.207031 23.082031 L 9.253906 23.109375 L 9.269531 23.207031 C 9.269531 23.207031 9.28125 23.230469 9.28125 23.261719 C 9.28125 23.285156 9.28125 23.316406 9.28125 23.316406 L 9.3125 23.316406 L 9.375 23.398438 L 9.398438 23.398438 L 9.398438 23.527344 L 9.457031 23.527344 L 9.402344 23.574219 L 9.46875 23.714844 L 9.480469 23.820312 L 9.5 23.886719 L 9.507812 23.917969 L 9.539062 23.878906 L 9.574219 23.917969 L 9.558594 23.957031 L 9.515625 23.976562 L 9.515625 24.019531 L 9.550781 24.070312 L 9.613281 24.113281 L 9.613281 24.175781 C 9.613281 24.175781 9.628906 24.257812 9.628906 24.277344 C 9.628906 24.296875 9.679688 24.355469 9.679688 24.355469 L 9.695312 24.320312 L 9.738281 24.355469 L 9.726562 24.40625 L 9.683594 24.40625 L 9.695312 24.46875 C 9.695312 24.46875 9.679688 24.515625 9.710938 24.523438 C 9.742188 24.535156 9.789062 24.578125 9.789062 24.578125 L 9.828125 24.632812 L 9.820312 24.707031 L 9.828125 24.765625 L 9.839844 24.792969 L 9.855469 24.882812 L 9.898438 24.882812 L 9.921875 24.917969 L 9.878906 24.917969 L 9.800781 24.898438 L 9.78125 24.765625 L 9.769531 24.664062 L 9.746094 24.597656 L 9.75 24.886719 L 9.777344 25.003906 L 9.828125 25.117188 L 9.847656 25.191406 C 9.847656 25.191406 9.878906 25.210938 9.886719 25.253906 C 9.890625 25.296875 9.898438 25.34375 9.898438 25.34375 L 9.90625 25.390625 L 9.960938 25.355469 L 9.996094 25.355469 L 10.007812 25.390625 L 9.953125 25.425781 L 9.949219 25.46875 L 10.039062 25.46875 L 10.03125 25.503906 L 10.007812 25.546875 L 10.085938 25.65625 L 10.167969 25.734375 C 10.167969 25.734375 10.226562 25.789062 10.253906 25.820312 C 10.277344 25.851562 10.34375 25.945312 10.34375 25.945312 C 10.34375 25.945312 10.367188 25.984375 10.410156 26.011719 C 10.453125 26.042969 10.527344 26.082031 10.527344 26.082031 L 10.625 26.113281 C 10.625 26.113281 10.707031 26.09375 10.722656 26.113281 C 10.738281 26.128906 10.765625 26.105469 10.777344 26.113281 C 10.796875 26.117188 10.816406 26.074219 10.816406 26.074219 L 10.894531 26.070312 L 10.949219 26.03125 L 10.984375 25.953125 C 10.984375 25.953125 11.039062 25.953125 11.054688 25.949219 C 11.070312 25.941406 11.144531 25.921875 11.144531 25.921875 L 11.210938 25.828125 L 11.210938 25.761719 L 11.226562 25.714844 C 11.226562 25.714844 11.238281 25.671875 11.253906 25.65625 C 11.269531 25.640625 11.277344 25.613281 11.277344 25.613281 L 11.285156 25.425781 L 11.363281 25.378906 L 11.417969 25.382812 L 11.460938 25.332031 C 11.503906 25.300781 11.617188 25.273438 11.636719 25.273438 C 11.65625 25.273438 11.667969 25.269531 11.695312 25.269531 C 11.71875 25.269531 11.722656 25.246094 11.722656 25.246094 L 11.8125 25.214844 L 11.917969 25.203125 L 11.972656 25.203125 L 12.046875 25.214844 L 12.109375 25.214844 L 12.164062 25.234375 L 12.203125 25.234375 L 12.308594 25.296875 L 12.3125 25.242188 L 12.257812 25.226562 L 12.246094 25.171875 L 12.191406 25.175781 L 12.097656 25.175781 L 12.042969 25.164062 L 11.945312 25.125 L 11.898438 25.054688 L 11.894531 24.972656 L 11.914062 24.917969 L 12.027344 24.761719 L 12.101562 24.664062 L 12.164062 24.601562 L 12.210938 24.570312 C 12.210938 24.570312 12.191406 24.550781 12.191406 24.527344 C 12.191406 24.507812 12.214844 24.449219 12.214844 24.449219 L 12.253906 24.371094 L 12.324219 24.367188 L 12.445312 24.367188 L 12.453125 24.324219 L 12.585938 24.339844 L 12.621094 24.339844 L 12.671875 24.351562 L 12.664062 24.382812 L 12.699219 24.335938 L 12.664062 23.414062 C 12.664062 23.414062 12.640625 23.335938 12.640625 23.320312 C 12.640625 23.300781 12.640625 23.300781 12.644531 23.265625 C 12.652344 23.230469 12.65625 23.167969 12.65625 23.148438 C 12.65625 23.132812 12.71875 22.988281 12.71875 22.988281 L 12.722656 22.945312 L 12.691406 22.910156 L 12.691406 22.871094 L 12.761719 22.910156 L 12.765625 22.824219 L 12.855469 22.75 L 12.929688 22.660156 L 12.910156 22.582031 L 12.984375 22.535156 L 13 22.488281 L 13.027344 22.402344 L 13.058594 22.34375 L 13.050781 22.171875 L 13.089844 21.992188 L 13.105469 21.921875 L 13.058594 21.8125 L 12.972656 21.753906 L 12.960938 21.644531 L 12.945312 21.570312 L 12.945312 21.480469 L 12.976562 21.480469 L 12.996094 21.542969 L 12.996094 21.589844 L 13.015625 21.644531 L 13.039062 21.714844 L 13.066406 21.777344 L 13.101562 21.777344 C 13.101562 21.777344 13.089844 21.742188 13.085938 21.722656 C 13.078125 21.707031 13.070312 21.628906 13.070312 21.628906 L 13.058594 21.542969 L 13.046875 21.445312 L 13.035156 21.375 C 13.035156 21.375 13.023438 21.304688 13.023438 21.285156 C 13.023438 21.261719 13.011719 21.214844 13.011719 21.199219 C 13.011719 21.183594 12.992188 21.136719 12.992188 21.136719 L 13.035156 21.042969 C 13.035156 21.042969 13.058594 21.03125 13.058594 21 C 13.058594 20.96875 13.054688 20.878906 13.058594 20.867188 C 13.066406 20.847656 13.078125 20.816406 13.058594 20.785156 C 13.039062 20.757812 13.003906 20.617188 13.003906 20.617188 L 12.984375 20.488281 L 13.027344 20.328125 L 13.128906 20.128906 L 13.1875 20.058594 L 13.242188 19.917969 L 13.339844 19.917969 L 13.410156 19.863281 L 13.542969 19.851562 L 13.558594 19.992188 L 13.585938 19.957031 L 13.597656 20.003906 L 13.621094 19.992188 L 13.632812 19.949219 L 13.648438 19.894531 L 13.667969 19.960938 L 13.707031 19.957031 L 13.707031 19.894531 L 13.796875 19.832031 L 13.847656 19.757812 L 13.875 19.699219 L 13.90625 19.667969 L 13.941406 19.570312 L 13.96875 19.550781 L 14.066406 19.539062 C 14.066406 19.539062 14.089844 19.550781 14.101562 19.535156 C 14.113281 19.519531 14.101562 19.492188 14.101562 19.492188 L 14.164062 19.488281 L 14.242188 19.539062 L 14.273438 19.515625 L 14.273438 19.5625 L 14.316406 19.570312 L 14.398438 19.550781 L 14.476562 19.5 L 14.519531 19.476562 L 14.6875 19.410156 L 14.714844 19.359375 L 14.714844 19.226562 L 14.695312 19.179688 L 14.6875 19.105469 L 14.742188 19.074219 L 14.742188 19.207031 L 14.796875 19.121094 L 14.796875 19.070312 L 14.742188 19.015625 L 14.832031 18.972656 L 14.929688 18.890625 L 15.007812 18.835938 L 15.074219 18.761719 L 15.234375 18.691406 C 15.234375 18.691406 15.292969 18.671875 15.332031 18.660156 C 15.367188 18.648438 15.410156 18.632812 15.410156 18.632812 L 15.410156 18.59375 L 15.488281 18.550781 C 15.488281 18.550781 15.507812 18.496094 15.519531 18.480469 C 15.53125 18.464844 15.683594 18.320312 15.796875 18.253906 C 15.914062 18.183594 16.082031 18.0625 16.082031 18.0625 L 16.132812 18.023438 L 16.132812 17.933594 C 16.132812 17.933594 16.300781 17.859375 16.339844 17.824219 C 16.382812 17.785156 16.394531 17.71875 16.394531 17.71875 L 16.441406 17.652344 L 16.484375 17.597656 L 16.582031 17.519531 L 16.601562 17.476562 L 16.601562 17.433594 L 16.683594 17.367188 C 16.683594 17.367188 16.769531 17.214844 16.78125 17.199219 C 16.789062 17.183594 16.9375 17.101562 16.9375 17.101562 L 17.039062 17.015625 L 17.125 16.976562 L 17.191406 16.945312 L 17.355469 16.882812 L 17.546875 16.804688 C 17.546875 16.804688 17.667969 16.785156 17.71875 16.765625 C 17.765625 16.746094 17.832031 16.726562 17.851562 16.683594 C 17.871094 16.640625 17.867188 16.53125 17.914062 16.53125 C 17.960938 16.53125 18.023438 16.515625 18.039062 16.507812 C 18.058594 16.496094 18.117188 16.453125 18.117188 16.453125 L 18.148438 16.386719 L 18.148438 16.328125 L 18.113281 16.28125 L 18.316406 16.148438 L 18.367188 16.054688 C 18.367188 16.054688 18.328125 16.078125 18.308594 16.085938 C 18.289062 16.089844 18.246094 16.117188 18.246094 16.117188 L 18.179688 16.128906 L 18.191406 16.054688 L 18.277344 16.042969 C 18.277344 16.042969 18.316406 16.042969 18.3125 16.011719 C 18.308594 15.980469 18.265625 15.933594 18.257812 15.914062 C 18.246094 15.894531 18.214844 15.816406 18.214844 15.816406 L 18.246094 15.640625 C 18.246094 15.640625 18.3125 15.511719 18.371094 15.488281 C 18.425781 15.460938 18.539062 15.421875 18.539062 15.421875 L 18.648438 15.429688 L 18.765625 15.339844 L 18.894531 15.300781 L 18.941406 15.21875 L 18.984375 15.1875 C 18.984375 15.1875 19.019531 15.113281 19.042969 15.101562 C 19.070312 15.089844 19.109375 15.058594 19.109375 15.058594 L 19.144531 14.980469 L 19.195312 14.992188 L 19.164062 14.855469 L 19.214844 14.820312 L 19.234375 14.953125 L 19.210938 15.050781 L 19.203125 15.117188 L 19.238281 15.15625 L 19.238281 15.199219 L 19.292969 15.140625 L 19.335938 15.101562 L 19.410156 15.148438 L 19.445312 15.109375 L 19.484375 14.941406 L 19.582031 14.949219 C 19.582031 14.949219 19.613281 14.867188 19.636719 14.875 C 19.664062 14.882812 19.683594 14.828125 19.683594 14.828125 L 19.722656 14.808594 L 19.789062 14.8125 L 19.8125 14.839844 L 19.835938 14.882812 L 19.84375 14.898438 C 19.847656 14.863281 19.761719 14.707031 19.792969 14.6875 C 19.792969 14.6875 19.796875 14.613281 19.785156 14.601562 C 19.773438 14.589844 19.726562 14.492188 19.726562 14.492188 L 19.707031 14.410156 L 19.714844 14.347656 L 19.71875 14.3125 L 19.660156 14.222656 L 19.660156 14.152344 L 19.742188 14.046875 L 19.683594 14.023438 L 19.613281 14.027344 L 19.59375 14.054688 L 19.5625 14.0625 L 19.550781 13.929688 L 19.574219 13.871094 L 19.589844 13.84375 L 19.574219 13.8125 L 19.496094 13.785156 L 19.457031 13.746094 L 19.433594 13.765625 L 19.433594 13.558594 L 19.503906 13.546875 L 19.542969 13.464844 L 19.578125 13.414062 L 19.582031 13.355469 L 19.5625 13.285156 L 19.539062 13.226562 L 19.503906 13.207031 L 19.414062 13.195312 L 19.335938 13.171875 L 19.246094 13.171875 L 19.246094 13.136719 L 19.175781 13.078125 L 19.113281 13.054688 L 19.09375 12.996094 C 19.09375 12.996094 19.085938 12.976562 19.074219 12.976562 C 19.0625 12.976562 19.023438 12.929688 19.023438 12.929688 C 19.023438 12.929688 19.042969 12.898438 19.054688 12.886719 C 19.066406 12.875 19.09375 12.824219 19.09375 12.824219 L 19.089844 12.695312 L 19.203125 12.699219 L 19.207031 12.757812 L 19.269531 12.765625 L 19.238281 12.726562 L 19.242188 12.695312 L 19.292969 12.703125 L 19.304688 12.652344 L 19.34375 12.648438 L 19.339844 12.535156 L 19.570312 12.523438 L 19.570312 12.5 L 19.671875 12.5 L 19.695312 12.46875 L 19.699219 12.421875 L 19.707031 12.367188 L 19.667969 12.359375 L 19.660156 12.402344 L 19.636719 12.410156 L 19.59375 12.359375 L 19.535156 12.230469 C 19.535156 12.230469 19.511719 12.351562 19.402344 12.300781 C 19.296875 12.25 19.304688 12.210938 19.304688 12.210938 L 19.292969 12.128906 L 19.183594 12.070312 L 19.066406 12.070312 L 19.070312 11.929688 L 19.109375 11.882812 L 19.105469 11.851562 L 19.105469 11.796875 L 19.203125 11.726562 L 19.25 11.6875 L 19.257812 11.640625 L 19.273438 11.621094 L 19.335938 11.609375 L 19.324219 11.550781 L 19.269531 11.542969 L 19.246094 11.511719 L 19.21875 11.464844 L 19.214844 11.441406 L 19.253906 11.378906 L 19.308594 11.480469 L 19.359375 11.488281 L 19.359375 11.539062 L 19.425781 11.535156 L 19.417969 11.570312 L 19.476562 11.578125 L 19.484375 11.640625 L 19.464844 11.671875 L 19.453125 11.707031 L 19.507812 11.707031 L 19.546875 11.667969 L 19.601562 11.65625 L 19.632812 11.679688 L 19.703125 11.683594 L 19.648438 11.59375 L 19.609375 11.546875 L 19.628906 11.53125 L 19.707031 11.53125 L 19.707031 11.5625 L 19.753906 11.582031 L 19.773438 11.605469 L 19.773438 11.722656 C 19.773438 11.722656 19.914062 11.847656 19.949219 11.847656 C 19.984375 11.847656 20.089844 11.859375 20.089844 11.859375 L 20.121094 11.808594 L 20.121094 11.773438 L 20.152344 11.726562 L 20.191406 11.691406 L 20.265625 11.71875 L 20.28125 11.792969 L 20.269531 11.839844 L 20.316406 11.886719 L 20.300781 11.945312 L 20.292969 12 L 20.3125 12.0625 L 20.300781 12.261719 L 20.3125 12.34375 L 20.363281 12.367188 C 20.363281 12.367188 20.460938 12.371094 20.472656 12.378906 C 20.484375 12.386719 20.546875 12.429688 20.546875 12.429688 L 20.628906 12.441406 L 20.699219 12.460938 L 21.257812 12.472656 C 21.257812 12.472656 21.359375 12.507812 21.378906 12.476562 C 21.398438 12.445312 21.429688 12.445312 21.457031 12.460938 C 21.488281 12.476562 21.488281 12.492188 21.53125 12.480469 C 21.578125 12.46875 21.597656 12.496094 21.597656 12.496094 L 21.710938 12.492188 L 21.714844 12.46875 L 22.039062 12.464844 L 22.105469 12.527344 L 22.21875 12.535156 L 22.238281 12.558594 L 22.238281 12.625 L 22.308594 12.632812 L 22.308594 12.71875 L 22.242188 12.714844 L 22.128906 12.65625 L 22.117188 12.726562 L 22.15625 12.757812 L 22.167969 12.792969 L 22.15625 12.824219 L 22.109375 12.863281 L 22.101562 12.976562 L 22.011719 13.085938 L 21.980469 13.125 L 21.9375 13.085938 L 21.902344 13.105469 L 21.894531 13.15625 L 21.875 13.175781 L 21.875 13.304688 L 21.800781 13.246094 L 21.769531 13.242188 L 21.757812 13.277344 L 21.726562 13.28125 L 21.691406 13.234375 L 21.679688 13.273438 L 21.65625 13.3125 L 21.617188 13.34375 L 21.523438 13.339844 L 21.488281 13.34375 L 21.507812 13.410156 L 21.40625 13.429688 L 21.429688 13.535156 L 21.371094 13.59375 L 21.363281 13.652344 L 21.417969 13.671875 L 21.410156 13.753906 L 21.46875 13.816406 L 21.464844 13.878906 L 21.460938 13.914062 L 21.496094 13.964844 L 21.492188 14.09375 C 21.492188 14.09375 21.539062 14.125 21.539062 14.113281 C 21.542969 14.101562 21.539062 13.980469 21.539062 13.980469 L 21.558594 13.949219 C 21.558594 13.949219 21.609375 13.933594 21.609375 13.964844 C 21.613281 13.992188 21.621094 14.011719 21.621094 14.011719 L 21.628906 14.136719 C 21.628906 14.136719 21.636719 14.15625 21.679688 14.171875 C 21.726562 14.183594 21.757812 14.203125 21.785156 14.167969 C 21.808594 14.132812 21.820312 14.144531 21.824219 14.097656 C 21.828125 14.054688 21.796875 13.984375 21.796875 13.976562 C 21.796875 13.964844 21.796875 13.925781 21.796875 13.925781 L 21.839844 13.867188 L 21.878906 13.804688 L 21.917969 13.804688 L 21.90625 13.742188 L 21.890625 13.691406 L 21.894531 13.589844 C 21.894531 13.589844 21.933594 13.582031 21.9375 13.632812 C 21.941406 13.683594 21.984375 13.65625 21.984375 13.65625 L 22.03125 13.613281 L 22.066406 13.605469 L 22.089844 13.625 L 22.113281 13.597656 L 22.148438 13.550781 L 22.191406 13.558594 L 22.191406 13.628906 L 22.195312 13.675781 L 22.183594 13.792969 L 22.246094 13.835938 L 22.238281 14.089844 L 22.257812 14.144531 L 22.277344 14.214844 L 22.394531 14.480469 L 22.429688 14.582031 Z M 22.445312 14.800781 " fill-opacity="1" fill-rule="nonzero"/></g></svg>