<svg xmlns="http://www.w3.org/2000/svg" xmlns:xlink="http://www.w3.org/1999/xlink" width="40" zoomAndPan="magnify" viewBox="0 0 30 30.000001" height="40" preserveAspectRatio="xMidYMid meet" version="1.0"><defs><clipPath id="2b032b87a0"><path d="M 3.386719 5.167969 L 26.613281 5.167969 L 26.613281 24 L 3.386719 24 Z M 3.386719 5.167969 " clip-rule="nonzero"/></clipPath></defs><g clip-path="url(#2b032b87a0)"><path fill="#014d4e" d="M 3.945312 5.167969 L 3.992188 5.171875 L 4.152344 5.359375 L 4.296875 5.34375 L 4.375 5.546875 L 4.359375 5.714844 L 4.851562 5.980469 L 4.890625 6.199219 L 5.1875 6.351562 L 5.484375 6.363281 L 5.800781 6.542969 L 5.863281 6.359375 L 5.867188 6.363281 L 6.113281 6.316406 L 6.273438 6.367188 L 6.472656 6.28125 L 6.511719 6.152344 L 6.589844 6.039062 L 6.707031 6.035156 L 6.898438 5.765625 L 7.035156 5.707031 L 7.175781 5.515625 L 7.34375 5.480469 L 7.554688 5.324219 L 7.671875 5.328125 L 7.695312 5.394531 L 7.800781 5.417969 L 7.898438 5.582031 L 8.050781 5.734375 L 7.910156 5.851562 L 7.972656 5.96875 L 8.234375 6.128906 L 7.863281 6.378906 L 8.246094 6.796875 L 8.429688 6.882812 L 8.503906 7.011719 L 8.691406 7.054688 L 8.789062 6.992188 L 8.785156 7.0625 L 8.953125 7.296875 L 8.984375 7.566406 L 8.933594 7.828125 L 9.007812 7.9375 L 9.179688 7.960938 L 9.398438 8.195312 L 9.671875 8.195312 L 9.855469 8.261719 L 10.128906 8.164062 L 10.390625 8.335938 L 10.550781 8.34375 L 10.625 8.589844 L 10.796875 8.800781 L 11.367188 9.027344 L 11.621094 9.054688 L 12.304688 9.25 L 12.644531 9.25 L 13.394531 9.039062 L 13.957031 8.964844 L 14.609375 9.019531 L 14.863281 9.070312 L 14.945312 8.773438 L 14.773438 8.523438 L 14.660156 8.230469 L 14.898438 8.089844 L 15.453125 8.058594 L 15.554688 7.757812 L 15.699219 7.570312 L 15.886719 7.550781 L 16.359375 7.15625 L 16.84375 7.0625 L 17.269531 7.15625 L 17.347656 6.882812 L 17.578125 6.828125 L 17.796875 6.914062 L 18.050781 6.90625 L 18.457031 7.234375 L 18.8125 7.332031 L 19.472656 7.75 L 19.652344 7.742188 L 19.832031 7.621094 L 20.285156 7.804688 L 20.527344 7.847656 L 20.589844 8.183594 L 20.695312 8.265625 L 20.933594 8.207031 L 21.359375 8.304688 L 21.816406 8.941406 L 22.3125 8.984375 L 22.601562 9.105469 L 22.78125 9.421875 L 22.695312 9.59375 L 22.796875 9.875 L 22.789062 10.042969 L 22.894531 10.246094 L 22.875 10.566406 L 22.902344 10.722656 L 22.820312 10.894531 L 22.96875 11.089844 L 22.910156 11.144531 L 22.925781 11.292969 L 22.632812 11.492188 L 22.386719 11.554688 L 22.484375 11.707031 L 22.671875 11.855469 L 22.460938 12.160156 L 22.515625 12.207031 L 22.589844 12.617188 L 22.589844 12.835938 L 22.972656 12.925781 L 23.074219 12.925781 L 22.722656 13.359375 L 22.664062 13.652344 L 22.96875 14.242188 L 23.128906 14.773438 L 23.046875 14.929688 L 23.160156 15.132812 L 23.195312 15.546875 L 24.183594 15.566406 L 24.363281 15.957031 L 24.335938 16.265625 L 24.453125 16.71875 L 24.363281 16.855469 L 23.511719 18.015625 L 24.101562 18.800781 L 24.230469 19.058594 L 24.527344 19.371094 L 24.8125 19.523438 L 24.910156 19.640625 L 25.285156 19.671875 L 25.5 19.753906 L 25.53125 19.878906 L 25.839844 19.910156 L 25.847656 20.292969 L 25.929688 20.554688 L 25.949219 20.863281 L 26.003906 21.066406 L 26.28125 21.054688 L 26.578125 21.246094 L 26.609375 21.691406 L 26.449219 21.847656 L 26.152344 21.730469 L 25.605469 21.894531 L 25.488281 22.015625 L 25.148438 22.15625 L 25.03125 22.375 L 25.089844 22.570312 L 24.917969 22.808594 L 25.023438 23.085938 L 24.976562 23.488281 L 24.980469 23.671875 L 24.914062 23.671875 L 24.867188 23.765625 L 24.695312 23.855469 L 24.316406 23.71875 L 24.035156 23.617188 L 23.921875 23.421875 L 23.773438 23.449219 L 23.726562 23.644531 L 23.65625 23.652344 L 23.492188 23.515625 L 23.390625 23.550781 L 23.191406 23.480469 L 22.695312 23.460938 L 22.34375 23.3125 L 21.71875 23.355469 L 21.417969 23.070312 L 21.324219 23.0625 L 21.058594 23.28125 L 20.84375 23.121094 L 20.597656 23.132812 L 19.996094 23.140625 L 19.953125 23.019531 L 19.824219 22.929688 L 19.808594 22.632812 L 19.585938 22.207031 L 19.464844 21.792969 L 19.257812 21.5 L 19.234375 21.382812 L 19.128906 21.386719 L 19.128906 21.3125 L 18.746094 21.261719 L 18.511719 21.332031 L 18.210938 21.554688 L 17.980469 21.5625 L 17.957031 21.457031 L 17.949219 21.585938 L 17.476562 21.878906 L 17.082031 22.207031 L 16.632812 21.90625 L 16.257812 21.8125 L 15.984375 21.851562 L 15.875 21.914062 L 15.480469 21.5625 L 15.289062 21.535156 L 15.109375 21.417969 L 14.84375 21.355469 L 14.511719 21.003906 L 14.648438 20.882812 L 14.613281 20.78125 L 14.398438 20.765625 L 14.347656 20.6875 L 13.984375 20.667969 L 13.867188 20.542969 L 13.578125 20.449219 L 13.164062 20.488281 L 12.933594 20.351562 L 12.589844 19.589844 L 12.546875 19.410156 L 12.441406 19.445312 L 12.238281 19.269531 L 12.289062 19.210938 L 12.367188 19.265625 L 12.453125 19.265625 L 12.332031 19.058594 L 12.160156 19.085938 L 12.042969 19.007812 L 12.007812 18.65625 L 11.59375 18.15625 L 11.570312 17.941406 L 11.328125 17.625 L 11.210938 17.566406 L 10.859375 17.859375 L 10.746094 17.851562 L 10.636719 17.644531 L 10.535156 17.6875 L 10.277344 17.566406 L 10.308594 17.441406 L 10.355469 17.308594 L 10.292969 17.378906 L 10.140625 17.386719 L 10 17.367188 L 10.171875 17.507812 L 10.164062 17.722656 L 10.035156 17.835938 L 9.898438 17.839844 L 9.726562 17.621094 L 9.734375 17.546875 L 9.632812 17.59375 L 9.550781 17.523438 L 9.304688 17.425781 L 9.105469 17.289062 L 9.03125 16.585938 L 8.675781 16.585938 L 8.585938 16.285156 L 8.601562 15.949219 L 8.839844 15.734375 L 8.601562 15.230469 L 8.386719 15.113281 L 8.175781 14.71875 L 8.039062 14.617188 L 7.917969 14.667969 L 7.074219 14.109375 L 6.878906 14.128906 L 6.765625 14.210938 L 6.527344 14.03125 L 6.566406 13.890625 L 6.503906 13.808594 L 6.609375 13.570312 L 6.355469 13.359375 L 6.308594 13.195312 L 6.0625 13.144531 L 5.941406 12.992188 L 5.785156 12.976562 L 5.785156 12.820312 L 5.875 12.699219 L 5.800781 12.582031 L 5.867188 12.425781 L 5.875 12.011719 L 5.996094 11.90625 L 6.039062 11.554688 L 6.183594 11.589844 L 6.324219 11.496094 L 6.324219 11.097656 L 6.234375 11.039062 L 6.207031 10.746094 L 6.34375 10.71875 L 6.5625 10.644531 L 6.632812 10.59375 L 6.535156 10.53125 L 6.378906 10.453125 L 6.132812 10.476562 L 5.96875 10.4375 L 5.582031 10.214844 L 5.414062 10.191406 L 5.210938 10.078125 L 5.105469 9.8125 L 4.992188 9.628906 L 4.820312 9.585938 L 4.714844 9.367188 L 4.722656 9.160156 L 4.617188 8.875 L 4.40625 8.859375 L 4.378906 8.867188 L 4.4375 8.671875 L 4.332031 8.410156 L 4.085938 7.96875 L 3.785156 7.855469 L 3.808594 7.726562 L 3.792969 7.398438 L 3.941406 7.054688 L 3.867188 6.914062 L 3.605469 6.882812 L 3.59375 6.574219 L 3.628906 6.363281 L 3.523438 5.9375 L 3.402344 5.714844 L 3.390625 5.601562 L 3.710938 5.578125 L 3.824219 5.273438 Z M 3.945312 5.167969 " fill-opacity="1" fill-rule="evenodd"/></g></svg>