<svg xmlns="http://www.w3.org/2000/svg" xmlns:xlink="http://www.w3.org/1999/xlink" width="40" zoomAndPan="magnify" viewBox="0 0 30 30.000001" height="40" preserveAspectRatio="xMidYMid meet" version="1.0"><defs><clipPath id="6b2b54a776"><path d="M 3.386719 6.5625 L 26.613281 6.5625 L 26.613281 22.527344 L 3.386719 22.527344 Z M 3.386719 6.5625 " clip-rule="nonzero"/></clipPath></defs><g clip-path="url(#6b2b54a776)"><path fill="#014d4e" d="M 26.257812 11.859375 C 26.417969 12.046875 26.226562 12.269531 26.207031 12.476562 C 26.269531 12.601562 26.183594 12.667969 26.085938 12.75 C 26.066406 12.761719 25.78125 12.652344 25.855469 12.753906 C 26.355469 12.957031 25.753906 13.027344 26.445312 13.164062 C 26.269531 13.285156 26.359375 13.324219 26.445312 13.449219 C 26.390625 13.503906 26.03125 13.488281 25.957031 13.488281 C 26.011719 13.59375 25.6875 13.503906 25.675781 13.523438 C 25.261719 13.621094 25.878906 13.542969 25.972656 13.632812 C 25.972656 13.632812 26.222656 13.558594 26.222656 13.558594 L 26.292969 13.625 C 26.203125 13.90625 25.898438 13.742188 26.273438 13.902344 C 26.121094 14.050781 26.1875 14.019531 26.324219 14.070312 C 26.363281 13.953125 26.425781 13.792969 26.53125 13.710938 C 26.53125 13.710938 26.480469 14.003906 26.480469 14.003906 C 26.488281 14.070312 26.601562 14.175781 26.53125 14.261719 C 26.519531 14.308594 26.351562 14.367188 26.324219 14.363281 C 26.335938 14.644531 26.296875 14.621094 26.011719 14.621094 C 25.910156 14.558594 25.894531 14.390625 25.761719 14.347656 C 25.609375 14.3125 25.308594 13.988281 25.519531 14.328125 C 25.417969 14.335938 25.242188 14.367188 25.160156 14.414062 C 25.082031 14.382812 25.039062 14.382812 24.96875 14.414062 C 25.089844 14.527344 25.28125 14.453125 25.417969 14.449219 C 25.480469 14.550781 25.65625 14.460938 25.726562 14.550781 C 25.78125 14.679688 25.972656 14.847656 26.121094 14.851562 C 26.15625 15.03125 26.09375 14.972656 25.949219 14.964844 C 25.902344 14.960938 25.761719 14.925781 25.726562 14.894531 C 25.632812 14.933594 25.507812 14.933594 25.433594 14.863281 C 25.378906 15.035156 25.753906 14.980469 25.84375 15.066406 C 25.863281 15.066406 26.035156 15.203125 26.035156 15.203125 C 26.035156 15.203125 25.898438 15.429688 25.878906 15.410156 C 25.773438 15.359375 25.675781 15.339844 25.589844 15.308594 C 25.589844 15.308594 25.589844 15.359375 25.589844 15.359375 C 25.625 15.347656 25.757812 15.414062 25.777344 15.445312 C 25.800781 15.574219 25.601562 15.609375 25.519531 15.546875 C 25.207031 15.621094 25.546875 15.761719 25.484375 15.910156 C 25.378906 16.039062 25.105469 16.078125 24.953125 16.0625 C 24.8125 15.910156 24.667969 15.625 24.472656 15.566406 C 24.496094 15.605469 24.542969 15.699219 24.507812 15.753906 C 24.667969 15.871094 24.714844 16.121094 24.882812 16.234375 C 24.777344 16.296875 24.492188 16.15625 24.4375 16.269531 C 24.457031 16.269531 24.59375 16.355469 24.59375 16.355469 C 24.878906 16.757812 24.125 16.363281 24.234375 16.785156 C 24.234375 16.785156 24.507812 16.988281 24.507812 16.988281 L 24.4375 17.144531 L 24.457031 17.28125 L 24.371094 17.367188 C 24.433594 17.628906 24.140625 17.132812 23.992188 17.417969 C 23.785156 17.289062 23.785156 17.460938 23.632812 17.351562 C 23.535156 17.449219 23.515625 17.6875 23.527344 17.816406 C 23.421875 17.980469 23.355469 18.105469 23.132812 18.019531 C 23.046875 18.128906 23.050781 18.160156 22.910156 18.070312 C 22.894531 18.070312 22.550781 18.121094 22.550781 18.121094 C 22.429688 18.355469 22.164062 18.367188 21.933594 18.363281 C 21.882812 18.558594 21.617188 18.679688 21.453125 18.738281 C 21.453125 18.738281 20.988281 19.1875 20.988281 19.1875 C 20.765625 19.402344 20.3125 19.835938 20.078125 20.042969 C 19.902344 20.011719 19.742188 20.195312 19.652344 20.320312 C 19.507812 20.175781 19.367188 19.84375 19.222656 19.699219 C 19.160156 19.953125 19.179688 20.144531 18.808594 20.09375 C 18.84375 20.726562 18.5 20.378906 17.917969 20.660156 C 17.765625 20.792969 17.488281 21.15625 17.367188 21.3125 C 17.382812 21.632812 16.960938 21.871094 16.714844 22 C 16.601562 21.800781 16.507812 21.496094 16.339844 21.347656 C 16.347656 21.601562 16.535156 21.753906 16.476562 22.035156 C 16.269531 22.070312 15.867188 22.34375 15.6875 22.1875 C 15.667969 22.460938 15.285156 22.203125 15.121094 22.207031 C 14.964844 22.285156 14.871094 22.261719 14.742188 22.136719 C 14.691406 22.398438 14.089844 21.898438 13.917969 21.898438 C 13.53125 21.621094 12.980469 21.625 12.527344 21.640625 C 12.179688 21.320312 11.597656 20.867188 11.277344 20.523438 C 11.277344 20.523438 11.464844 20.40625 11.464844 20.40625 C 11.445312 20.164062 11.460938 20.179688 11.308594 20.335938 C 11.179688 20.617188 11.082031 20.398438 10.914062 20.285156 C 10.625 20.242188 10.332031 19.875 10.023438 20.027344 C 10.011719 20.257812 9.59375 20.144531 9.457031 20.285156 C 9.414062 20.207031 9.164062 20.097656 9.113281 20.042969 C 8.875 20.316406 8.40625 20.25 8.085938 20.199219 C 8.039062 20.078125 7.933594 20.140625 7.859375 20.179688 C 7.769531 20.382812 7.636719 20.109375 7.519531 20.351562 C 7.410156 20.28125 7.320312 20.246094 7.242188 20.371094 C 7.160156 20.351562 7.144531 20.335938 7.15625 20.238281 C 7.230469 20.128906 7.28125 20.105469 7.140625 20.0625 C 7.175781 19.953125 7.214844 19.769531 7.292969 19.683594 C 7.089844 19.597656 7.164062 19.503906 7.210938 19.324219 C 7.226562 19.203125 7.125 18.976562 7.328125 19.050781 C 7.410156 19.109375 7.570312 19.382812 7.535156 19.484375 C 7.679688 19.476562 7.863281 19.628906 7.914062 19.425781 C 8.101562 19.367188 8.054688 19.234375 8.273438 19.339844 C 8.355469 19.273438 8.484375 19.207031 8.582031 19.203125 C 8.796875 19.09375 8.742188 19.042969 8.632812 18.878906 C 9.128906 18.945312 8.527344 18.542969 9.078125 18.707031 C 9.613281 18.304688 8.5 18.414062 9.269531 17.84375 C 9.402344 17.808594 9.519531 17.871094 9.386719 17.691406 C 9.628906 17.539062 9.875 17.894531 9.988281 17.554688 C 9.847656 17.558594 9.582031 17.570312 9.492188 17.417969 C 9.234375 17.519531 8.832031 18.210938 8.582031 17.863281 C 8.71875 17.601562 8.996094 17.742188 8.960938 17.503906 C 8.851562 17.515625 8.621094 17.570312 8.546875 17.4375 C 8.664062 17.351562 8.753906 17.144531 8.769531 17.007812 C 8.882812 16.839844 9.238281 16.925781 9.097656 16.765625 C 9.363281 16.320312 8.792969 16.78125 8.667969 16.871094 C 8.628906 16.96875 8.488281 17.179688 8.375 17.210938 C 8.160156 17.207031 8.210938 16.914062 8.238281 16.765625 C 8.035156 16.71875 7.964844 16.703125 7.980469 16.457031 C 7.839844 16.332031 7.902344 16.367188 7.980469 16.234375 C 7.859375 16.105469 7.9375 15.988281 8.015625 15.875 C 7.714844 15.6875 7.945312 15.492188 7.585938 15.480469 C 7.125 15.910156 7.382812 15.292969 7.054688 15.582031 C 6.878906 15.601562 6.613281 15.472656 6.453125 15.566406 C 6.261719 15.488281 5.824219 15.269531 5.714844 15.546875 C 5.371094 15.429688 5.285156 15.523438 5.234375 15.875 C 5.128906 15.839844 4.828125 15.8125 4.703125 15.804688 C 4.675781 15.652344 4.183594 14.996094 4.515625 15.117188 C 4.945312 14.625 4.808594 15.101562 5.203125 15.085938 C 5.203125 15.085938 5.511719 14.914062 5.511719 14.914062 C 5.5625 14.773438 5.582031 14.761719 5.714844 14.828125 C 5.832031 14.65625 5.828125 14.613281 5.9375 14.808594 C 5.960938 14.992188 6.042969 14.894531 6.164062 14.863281 C 6.132812 14.722656 6.109375 14.449219 6.328125 14.484375 C 6.332031 14.75 6.089844 14.773438 6.402344 14.980469 C 6.347656 14.761719 6.375 14.609375 6.609375 14.792969 C 6.496094 14.679688 6.433594 14.515625 6.65625 14.484375 C 6.707031 14.695312 6.925781 14.507812 7.046875 14.484375 C 7.046875 14.484375 6.882812 14.414062 6.882812 14.414062 C 6.964844 14.371094 7.121094 14.15625 7.21875 14.191406 C 7.1875 14.371094 7.375 14.523438 7.464844 14.65625 L 7.410156 14.464844 C 7.492188 14.371094 7.570312 14.253906 7.707031 14.3125 C 7.921875 14.199219 8.078125 14.257812 8.257812 14.398438 C 8.472656 14.285156 8.777344 14.410156 9.011719 14.398438 C 9.1875 14.46875 9.179688 14.214844 9.035156 14.191406 C 9.035156 14.191406 9.164062 14.019531 9.164062 14.003906 C 9.28125 13.792969 9.363281 13.617188 9.113281 13.488281 C 8.988281 14.074219 8.230469 14.070312 7.859375 13.710938 C 7.742188 13.695312 7.582031 13.867188 7.605469 13.625 C 7.742188 13.597656 7.613281 13.527344 7.589844 13.488281 C 7.621094 13.441406 7.699219 13.355469 7.742188 13.316406 C 7.804688 13.292969 7.855469 13.261719 7.859375 13.195312 C 7.953125 13.0625 8.15625 12.992188 8.308594 12.957031 C 8.417969 12.851562 8.636719 12.648438 8.769531 12.578125 C 8.828125 12.523438 8.925781 12.375 9.027344 12.441406 C 9.027344 12.441406 9.234375 12.390625 9.234375 12.390625 C 9.230469 12.277344 9.160156 12.285156 9.0625 12.304688 C 8.929688 12.269531 8.785156 12.140625 8.71875 12.03125 C 8.671875 12.273438 8.519531 12.015625 8.496094 11.894531 C 8.386719 11.847656 8.453125 12.035156 8.445312 12.082031 C 8.199219 12.570312 8.226562 12.351562 7.878906 12.148438 C 7.800781 12.003906 8.15625 11.972656 8.222656 11.925781 C 8.222656 11.925781 8.394531 11.703125 8.394531 11.703125 L 8.117188 11.859375 C 8.058594 11.925781 7.9375 11.90625 7.859375 11.875 C 7.828125 11.9375 7.726562 12.003906 7.65625 11.960938 C 7.746094 11.824219 7.523438 11.09375 7.535156 11.480469 C 7.640625 12.054688 7.386719 11.867188 7.414062 11.429688 C 7.394531 11.628906 7.4375 12.246094 7.210938 11.722656 C 7.175781 11.621094 7.226562 11.492188 7.261719 11.394531 C 7.210938 11.476562 7.109375 11.394531 7.074219 11.34375 C 7.074219 11.492188 7.191406 11.875 7.210938 12.011719 C 6.832031 11.726562 6.625 12.082031 7.054688 11.515625 C 6.894531 11.359375 6.898438 11.703125 6.761719 11.722656 C 6.777344 11.660156 6.734375 11.496094 6.710938 11.445312 C 6.714844 11.589844 6.652344 11.765625 6.503906 11.824219 C 6.339844 11.835938 6.261719 11.730469 6.28125 11.566406 C 6.023438 11.882812 6.386719 11.902344 6.023438 12.132812 C 5.867188 12.046875 5.605469 12.046875 5.457031 12.167969 C 5.390625 12.152344 5.242188 12.179688 5.203125 12.253906 C 5.171875 12.300781 5.105469 12.398438 5.117188 12.460938 C 4.949219 12.445312 4.75 12.53125 4.582031 12.476562 C 4.605469 12.402344 4.542969 12.183594 4.480469 12.148438 C 4.328125 12.199219 4.105469 11.992188 3.949219 12.011719 C 3.820312 12.003906 3.414062 12.15625 3.398438 12.011719 C 3.441406 11.871094 3.5625 11.765625 3.707031 11.753906 C 3.667969 11.601562 3.75 11.339844 3.9375 11.34375 C 4.316406 11.539062 4.136719 11.628906 4.617188 11.753906 C 4.699219 12.105469 5.042969 11.816406 4.773438 11.824219 C 4.613281 11.695312 4.453125 11.449219 4.324219 11.292969 C 4.5 11.183594 4.761719 11.347656 4.910156 11.464844 C 5.015625 11.511719 4.800781 11.3125 4.789062 11.308594 C 4.644531 11.25 4.402344 11.101562 4.324219 10.964844 C 4.132812 10.453125 4.242188 10.347656 4.6875 10.707031 C 4.929688 10.882812 5.652344 11.046875 5.371094 11.445312 C 5.621094 11.695312 5.363281 11.011719 5.734375 11.429688 C 5.914062 11.277344 5.496094 11.226562 5.835938 11.207031 C 5.929688 11.238281 5.953125 11.144531 5.992188 11.085938 C 5.808594 11.167969 5.484375 11.140625 5.476562 10.898438 C 5.546875 10.832031 5.75 10.851562 5.835938 10.863281 C 5.898438 10.742188 6.050781 10.839844 6.144531 10.828125 C 6.144531 10.742188 6.039062 10.703125 6.179688 10.675781 C 6.1875 10.417969 6.019531 10.707031 5.886719 10.691406 C 5.582031 10.753906 5.195312 10.703125 4.960938 10.484375 C 4.816406 10.34375 4.605469 9.796875 4.996094 9.902344 C 5.265625 9.96875 5.28125 10.140625 5.578125 10.089844 C 5.660156 10.179688 5.796875 10.289062 5.90625 10.210938 C 5.90625 10.210938 6.128906 10.332031 6.109375 10.3125 C 6.003906 10.183594 5.851562 10.085938 5.683594 10.109375 C 5.621094 10.035156 5.527344 9.933594 5.425781 9.953125 C 5.425781 9.953125 5.183594 9.765625 5.183594 9.765625 C 5.054688 9.617188 4.746094 9.304688 4.960938 9.113281 C 5.144531 9.101562 5.46875 9.316406 5.648438 9.371094 C 5.777344 9.214844 5.179688 9.070312 5.183594 8.839844 C 5.527344 8.789062 5.570312 8.832031 5.820312 9.0625 C 5.820312 9.0625 5.597656 8.804688 5.597656 8.804688 C 5.515625 8.75 5.351562 8.765625 5.320312 8.648438 C 5.320312 8.648438 5.628906 8.425781 5.628906 8.425781 C 5.695312 8.550781 5.746094 8.488281 5.835938 8.445312 C 5.925781 8.5 6.058594 8.679688 6.164062 8.648438 C 6.644531 8.882812 6.070312 9.097656 6.316406 9.179688 C 6.410156 9.117188 6.441406 8.78125 6.574219 9.027344 C 6.6875 9.238281 6.554688 9.464844 6.402344 9.609375 C 6.523438 9.792969 6.683594 9.304688 6.695312 9.195312 C 6.734375 9.261719 6.746094 9.382812 6.746094 9.457031 C 6.847656 9.269531 6.855469 9.199219 6.847656 9.472656 C 6.832031 9.636719 6.597656 9.792969 6.625 9.953125 C 6.625 9.953125 6.847656 9.660156 6.847656 9.660156 C 6.960938 9.242188 6.976562 9.589844 6.96875 9.765625 C 6.820312 10 6.898438 10.035156 7.019531 9.800781 C 7.046875 9.636719 7.015625 9.332031 7.089844 9.179688 C 7.195312 9.300781 7.246094 9.121094 7.292969 9.371094 C 7.390625 9.355469 7.378906 9.503906 7.398438 9.558594 C 7.566406 9.46875 7.4375 9.921875 7.464844 9.972656 C 7.382812 10.070312 7.308594 10.234375 7.292969 10.367188 C 7.421875 10.257812 7.46875 10.035156 7.519531 9.886719 C 7.570312 9.769531 7.542969 9.375 7.671875 9.746094 C 7.804688 9.582031 7.675781 10.171875 7.808594 9.917969 C 7.816406 10.132812 7.640625 10.402344 7.484375 10.535156 C 7.691406 10.570312 7.867188 10.144531 7.894531 9.972656 C 7.941406 9.722656 7.792969 9.464844 7.691406 9.25 C 7.832031 9.015625 7.648438 9.023438 7.484375 8.941406 C 7.222656 8.792969 6.574219 8.671875 6.660156 8.273438 C 6.839844 8.125 7.125 8.039062 7.3125 8.21875 C 7.398438 8.210938 7.46875 8.234375 7.519531 8.304688 C 7.480469 8.140625 7.628906 8.183594 7.742188 8.167969 C 8.117188 7.992188 7.617188 8.09375 7.519531 8.066406 C 7.519531 8.066406 7.722656 7.878906 7.722656 7.878906 C 7.527344 7.539062 7.65625 7.910156 7.464844 7.980469 C 7.136719 7.964844 7.203125 7.769531 7.363281 7.566406 C 7.167969 7.539062 7.183594 7.871094 6.96875 7.824219 C 6.9375 7.769531 7.082031 7.511719 6.882812 7.671875 C 6.660156 8 6.402344 7.933594 6.179688 7.636719 C 6.394531 7.675781 6.550781 7.667969 6.503906 7.414062 C 6.371094 7.3125 6.203125 7.046875 6.539062 7.257812 C 6.578125 7.054688 6.703125 7.347656 6.746094 7 C 6.886719 7.050781 7.105469 7.109375 7.175781 7.242188 C 7.347656 7.28125 7.394531 7.167969 7.449219 7.035156 C 7.5625 7.164062 7.839844 7.371094 7.722656 7.019531 C 7.863281 7.011719 7.839844 7.207031 7.859375 7.292969 C 8.101562 7.484375 8.273438 7.804688 8.222656 8.101562 C 8.359375 8.066406 8.339844 7.890625 8.394531 8.117188 C 8.640625 7.871094 8.394531 8.265625 8.789062 8.046875 C 8.714844 8.300781 8.996094 8.0625 8.753906 8.410156 C 8.980469 8.277344 8.8125 8.546875 9.25 8.496094 C 9.183594 8.628906 9.203125 8.597656 9.300781 8.667969 C 9.203125 8.777344 9.191406 8.816406 9.269531 8.941406 C 9.242188 9.109375 9.246094 9.230469 9.441406 9.148438 C 9.386719 9.335938 9.300781 9.453125 9.542969 9.25 C 9.410156 8.953125 9.53125 8.972656 9.75 9.128906 C 9.601562 9.207031 9.601562 9.226562 9.714844 9.351562 C 9.847656 9.328125 10.054688 9.390625 10.160156 9.472656 C 10.066406 9.554688 9.289062 9.589844 9.507812 9.765625 C 10.480469 9.460938 9.546875 9.953125 10.125 9.746094 C 10.1875 9.871094 10.257812 10.042969 10.09375 10.109375 C 10.28125 10.160156 10.203125 10.25 10.160156 10.382812 C 10.148438 10.507812 9.910156 10.628906 9.816406 10.65625 C 10.179688 10.839844 10.121094 10.738281 9.886719 11.070312 C 9.371094 11.101562 9.542969 10.824219 9.269531 10.621094 C 9.011719 10.609375 9.363281 10.65625 9.386719 10.949219 C 9.191406 11.085938 9.515625 11.316406 9.664062 11.34375 C 9.738281 11.316406 9.847656 11.277344 9.921875 11.328125 C 10.054688 11.542969 9.699219 11.625 9.835938 11.738281 C 9.972656 11.691406 9.980469 11.449219 10.160156 11.53125 C 10.226562 11.832031 10.003906 12.128906 9.800781 12.320312 C 10.132812 12.128906 10.15625 12.035156 10.347656 12.425781 C 10.453125 12.636719 10.359375 12.964844 10.417969 13.183594 C 10.417969 13.183594 10.574219 13.472656 10.574219 13.472656 C 10.613281 13.5 10.558594 13.980469 10.660156 13.675781 C 10.625 13.511719 10.589844 13.257812 10.554688 13.109375 C 10.667969 13.019531 10.65625 12.742188 10.605469 12.628906 C 10.605469 12.628906 10.589844 12.269531 10.589844 12.269531 C 10.769531 12.15625 10.761719 12.859375 10.949219 12.769531 C 10.867188 12.34375 10.742188 12 10.949219 11.574219 C 11.058594 11.546875 11.480469 10.867188 11.601562 11.136719 C 11.601562 11.136719 11.550781 11.53125 11.550781 11.53125 C 11.863281 11.578125 12.460938 11.4375 12.269531 11.015625 C 12.371094 10.632812 12.230469 10.152344 12.101562 9.78125 C 12.09375 9.648438 12.058594 9.421875 11.980469 9.320312 C 12.054688 9.242188 12.074219 9.101562 12.015625 9.007812 C 12.097656 9.042969 12.191406 9.015625 12.238281 8.941406 C 12.503906 8.960938 12.558594 8.691406 12.75 8.992188 C 12.75 8.992188 12.835938 9.007812 12.835938 9.007812 C 12.832031 9.265625 13.042969 9.519531 13.0625 9.765625 C 13.160156 9.773438 13.160156 9.878906 13.164062 9.953125 C 13.839844 10.132812 13.464844 10.90625 13.816406 10.761719 C 13.871094 10.558594 13.9375 10.761719 14.023438 10.8125 C 14.183594 10.726562 14.21875 10.539062 14.195312 10.375 C 14.316406 10.183594 14.0625 9.820312 13.953125 9.660156 C 14.367188 9.46875 13.855469 9.351562 14.261719 9.042969 C 14.496094 9.042969 14.695312 9.140625 14.84375 8.90625 C 14.808594 8.738281 14.976562 8.5625 15.101562 8.476562 C 15.230469 8.5 15.160156 8.671875 15.15625 8.753906 C 15.199219 8.695312 15.347656 8.488281 15.34375 8.410156 C 15.558594 8.476562 15.5 8.632812 15.445312 8.804688 C 15.445312 8.804688 15.636719 8.597656 15.636719 8.597656 C 15.816406 8.753906 15.867188 8.863281 15.6875 9.042969 C 15.730469 9.125 15.847656 8.992188 15.890625 8.976562 C 16.164062 9.160156 15.832031 9.613281 16.097656 9.628906 C 16.140625 9.675781 16.308594 9.796875 16.371094 9.746094 C 16.460938 9.84375 16.574219 10.039062 16.5625 10.175781 C 16.792969 10.191406 16.722656 10.976562 16.9375 11.207031 C 17.101562 11.195312 16.878906 11.007812 17.007812 10.984375 C 16.929688 10.941406 16.902344 10.75 16.886719 10.65625 C 16.929688 10.554688 17.015625 10.339844 16.972656 10.226562 C 16.960938 10.097656 16.78125 9.9375 16.683594 9.867188 C 16.699219 9.570312 16.433594 9.402344 16.476562 9.027344 C 16.320312 8.746094 16.542969 8.34375 16.820312 8.667969 L 16.886719 8.613281 L 16.9375 8.699219 C 17.003906 8.691406 17.179688 8.652344 17.25 8.683594 C 17.300781 8.714844 17.351562 8.816406 17.367188 8.871094 C 17.417969 8.929688 17.605469 9.105469 17.675781 9.148438 C 17.929688 9.566406 17.757812 9.605469 18.328125 9.507812 C 18.457031 9.398438 18.457031 9.125 18.433594 8.976562 C 18.785156 8.910156 18.589844 8.761719 18.671875 8.527344 C 18.667969 8.492188 18.859375 8.433594 18.878906 8.476562 C 19.105469 8.207031 19.296875 8.570312 19.324219 8.804688 C 19.472656 8.867188 19.699219 8.765625 19.839844 8.683594 C 20.09375 8.539062 20.53125 8.371094 20.421875 7.984375 C 20.335938 7.925781 20.265625 7.773438 20.304688 7.671875 C 20.238281 7.585938 20.199219 7.535156 20.199219 7.398438 C 20.183594 7.171875 20.3125 7.289062 20.164062 7.054688 C 19.914062 6.777344 20.445312 6.660156 20.386719 6.832031 C 20.394531 6.859375 20.5 6.796875 20.507812 6.796875 C 20.535156 6.804688 20.652344 6.890625 20.644531 6.933594 C 20.808594 6.941406 20.898438 6.578125 21.074219 6.710938 C 21.246094 6.839844 21.171875 6.5625 21.347656 6.726562 C 21.472656 6.84375 21.46875 7.074219 21.417969 7.226562 C 21.421875 7.277344 21.753906 7.246094 21.691406 7.363281 C 21.988281 7.339844 21.945312 7.464844 21.96875 7.722656 C 21.941406 7.828125 21.628906 8.234375 21.96875 8.042969 C 21.835938 8.359375 22.050781 8.277344 22.257812 8.339844 C 22.332031 8.53125 22.460938 8.394531 22.535156 8.648438 C 22.78125 8.675781 22.617188 8.222656 22.6875 8.117188 C 23.011719 8.210938 23.289062 8.003906 23.390625 7.6875 C 23.519531 7.546875 23.746094 7.347656 23.921875 7.585938 C 24.0625 7.589844 24.265625 7.472656 24.402344 7.5 C 24.308594 7.5625 24.164062 7.667969 24.042969 7.652344 C 23.875 7.75 23.703125 7.96875 23.496094 7.980469 C 23.304688 8.121094 23.652344 8.34375 23.527344 8.511719 C 23.371094 8.605469 23.269531 8.800781 23.082031 8.785156 C 22.910156 8.953125 23.054688 9.027344 23.21875 8.957031 C 23.371094 9.300781 23.011719 9.25 23.597656 9.265625 C 23.660156 9.625 23.914062 9.105469 24.078125 9.199219 C 24.324219 9.734375 24.210938 9.992188 23.804688 10.398438 C 23.773438 10.503906 23.761719 10.640625 23.90625 10.554688 C 23.800781 10.570312 23.714844 10.660156 23.753906 10.777344 C 23.742188 10.988281 23.875 10.871094 23.957031 10.8125 C 24.058594 10.738281 24.195312 10.726562 24.320312 10.726562 C 24.488281 10.636719 24.980469 10.386719 24.746094 10.742188 C 24.574219 11.101562 25.101562 11.023438 24.660156 11.394531 C 24.628906 11.476562 24.554688 11.523438 24.609375 11.582031 C 24.761719 11.542969 24.777344 11.3125 24.917969 11.257812 C 25.007812 11.269531 25.253906 11.320312 25.3125 11.429688 C 25.441406 11.433594 25.46875 11.515625 25.46875 11.601562 C 25.414062 11.570312 25.679688 11.394531 25.675781 11.414062 C 25.90625 11.425781 25.757812 11.640625 25.898438 11.753906 C 25.882812 11.96875 26.152344 11.800781 26.257812 11.859375 " fill-opacity="1" fill-rule="nonzero"/></g></svg>