<svg xmlns="http://www.w3.org/2000/svg" xmlns:xlink="http://www.w3.org/1999/xlink" width="40" zoomAndPan="magnify" viewBox="0 0 30 30.000001" height="40" preserveAspectRatio="xMidYMid meet" version="1.0"><defs><clipPath id="f4b910f755"><path d="M 5.203125 2.902344 L 24.796875 2.902344 L 24.796875 23.269531 L 5.203125 23.269531 Z M 5.203125 2.902344 " clip-rule="nonzero"/></clipPath><clipPath id="5755008d5d"><path d="M 14.320312 22.382812 L 20.019531 22.382812 L 20.019531 26.128906 L 14.320312 26.128906 Z M 14.320312 22.382812 " clip-rule="nonzero"/></clipPath></defs><g clip-path="url(#f4b910f755)"><path fill="#014d4e" d="M 13.953125 6.921875 C 13.992188 6.917969 14.019531 6.914062 14.058594 6.90625 C 14.0625 6.953125 14.0625 6.988281 14.066406 7.035156 C 14.101562 7.054688 14.144531 7.074219 14.1875 7.09375 C 14.257812 7.121094 14.277344 7.167969 14.242188 7.234375 C 14.230469 7.257812 14.214844 7.273438 14.210938 7.285156 C 14.234375 7.347656 14.253906 7.402344 14.277344 7.464844 C 14.304688 7.425781 14.316406 7.378906 14.375 7.378906 C 14.378906 7.386719 14.386719 7.398438 14.386719 7.40625 C 14.394531 7.480469 14.410156 7.539062 14.503906 7.539062 C 14.539062 7.539062 14.554688 7.578125 14.550781 7.609375 C 14.546875 7.640625 14.539062 7.671875 14.53125 7.703125 C 14.507812 7.761719 14.484375 7.816406 14.453125 7.882812 C 14.429688 7.832031 14.40625 7.789062 14.378906 7.734375 C 14.339844 7.765625 14.34375 7.796875 14.347656 7.828125 C 14.355469 7.863281 14.367188 7.894531 14.375 7.929688 C 14.378906 7.960938 14.378906 7.992188 14.378906 8.027344 C 14.28125 8.023438 14.269531 7.933594 14.21875 7.878906 C 14.179688 7.957031 14.152344 8.027344 14.152344 8.105469 C 14.152344 8.335938 14.167969 8.5625 14.222656 8.78125 C 14.261719 8.933594 14.273438 9.085938 14.285156 9.238281 C 14.289062 9.292969 14.3125 9.332031 14.359375 9.359375 C 14.480469 9.441406 14.585938 9.539062 14.671875 9.660156 C 14.707031 9.707031 14.746094 9.75 14.789062 9.789062 C 14.839844 9.835938 14.851562 9.835938 14.910156 9.800781 C 14.929688 9.792969 14.945312 9.78125 14.972656 9.765625 C 14.984375 9.859375 15.050781 9.890625 15.128906 9.90625 C 15.160156 9.914062 15.191406 9.941406 15.210938 9.964844 C 15.269531 10.03125 15.332031 10.078125 15.414062 10.113281 C 15.492188 10.144531 15.5625 10.203125 15.625 10.261719 C 15.730469 10.351562 15.832031 10.449219 15.933594 10.542969 C 15.960938 10.566406 15.988281 10.585938 16.019531 10.605469 C 16.050781 10.625 16.082031 10.632812 16.121094 10.605469 C 16.175781 10.570312 16.199219 10.582031 16.246094 10.625 C 16.257812 10.640625 16.265625 10.652344 16.273438 10.667969 C 16.367188 10.855469 16.464844 11.042969 16.527344 11.242188 C 16.597656 11.46875 16.671875 11.691406 16.742188 11.917969 C 16.761719 11.980469 16.777344 12.046875 16.792969 12.109375 C 16.804688 12.160156 16.816406 12.207031 16.839844 12.25 C 16.925781 12.4375 17.019531 12.625 17.109375 12.808594 C 17.140625 12.875 17.175781 12.9375 17.203125 13.003906 C 17.21875 13.042969 17.238281 13.070312 17.28125 13.082031 C 17.390625 13.109375 17.472656 13.183594 17.542969 13.273438 C 17.609375 13.351562 17.675781 13.433594 17.742188 13.515625 C 17.800781 13.597656 17.871094 13.664062 17.980469 13.679688 C 18.058594 13.691406 18.121094 13.738281 18.167969 13.808594 C 18.214844 13.875 18.261719 13.941406 18.308594 14.007812 C 18.378906 14.117188 18.476562 14.160156 18.609375 14.125 C 18.699219 14.101562 18.730469 14.121094 18.773438 14.210938 C 18.835938 14.347656 18.945312 14.402344 19.089844 14.394531 C 19.132812 14.390625 19.175781 14.390625 19.21875 14.394531 C 19.40625 14.410156 19.585938 14.40625 19.761719 14.335938 C 19.855469 14.296875 19.949219 14.28125 20.050781 14.308594 C 20.09375 14.324219 20.148438 14.296875 20.191406 14.285156 C 20.222656 14.277344 20.25 14.253906 20.277344 14.238281 C 20.382812 14.183594 20.492188 14.191406 20.597656 14.242188 C 20.691406 14.289062 20.761719 14.445312 20.722656 14.542969 C 20.703125 14.582031 20.660156 14.617188 20.625 14.648438 C 20.605469 14.664062 20.578125 14.679688 20.554688 14.6875 C 20.402344 14.738281 20.3125 14.859375 20.234375 14.992188 C 20.207031 15.042969 20.21875 15.09375 20.230469 15.144531 C 20.242188 15.195312 20.253906 15.242188 20.3125 15.269531 C 20.363281 15.292969 20.402344 15.339844 20.445312 15.378906 C 20.511719 15.4375 20.59375 15.457031 20.675781 15.464844 C 20.792969 15.480469 20.902344 15.515625 21.003906 15.578125 C 21.097656 15.632812 21.195312 15.671875 21.308594 15.671875 C 21.351562 15.667969 21.386719 15.679688 21.417969 15.714844 C 21.4375 15.734375 21.46875 15.746094 21.492188 15.75 C 21.558594 15.765625 21.617188 15.78125 21.660156 15.847656 C 21.691406 15.902344 21.75 15.933594 21.824219 15.914062 C 21.902344 15.894531 21.972656 15.9375 22.042969 15.960938 C 22.125 15.988281 22.207031 16.015625 22.289062 16.046875 C 22.355469 16.070312 22.421875 16.09375 22.484375 16.121094 C 22.515625 16.132812 22.550781 16.152344 22.570312 16.179688 C 22.609375 16.246094 22.671875 16.273438 22.746094 16.292969 C 22.835938 16.324219 22.910156 16.378906 22.949219 16.472656 C 22.980469 16.550781 23.039062 16.585938 23.125 16.589844 C 23.175781 16.59375 23.226562 16.605469 23.28125 16.617188 C 23.351562 16.628906 23.410156 16.664062 23.457031 16.71875 C 23.480469 16.75 23.503906 16.777344 23.527344 16.804688 C 23.582031 16.777344 23.621094 16.746094 23.675781 16.765625 C 23.765625 16.792969 23.855469 16.816406 23.925781 16.882812 C 23.945312 16.898438 23.953125 16.925781 23.957031 16.953125 C 23.988281 17.078125 24.066406 17.15625 24.191406 17.183594 C 24.273438 17.203125 24.328125 17.238281 24.371094 17.320312 C 24.40625 17.386719 24.472656 17.4375 24.527344 17.496094 C 24.574219 17.550781 24.625 17.601562 24.671875 17.65625 C 24.796875 17.804688 24.808594 17.980469 24.792969 18.160156 C 24.789062 18.195312 24.769531 18.230469 24.746094 18.257812 C 24.714844 18.300781 24.695312 18.34375 24.699219 18.394531 C 24.707031 18.476562 24.71875 18.558594 24.726562 18.636719 C 24.726562 18.644531 24.726562 18.648438 24.726562 18.65625 C 24.734375 18.695312 24.75 18.742188 24.707031 18.765625 C 24.664062 18.789062 24.636719 18.753906 24.605469 18.734375 C 24.578125 18.71875 24.546875 18.707031 24.519531 18.703125 C 24.371094 18.675781 24.238281 18.628906 24.136719 18.511719 C 24.074219 18.445312 24.039062 18.378906 24.089844 18.292969 C 24.097656 18.285156 24.09375 18.269531 24.097656 18.261719 C 24.089844 18.253906 24.085938 18.242188 24.078125 18.238281 C 23.992188 18.195312 23.960938 18.121094 23.960938 18.03125 C 23.960938 17.9375 23.917969 17.878906 23.835938 17.84375 C 23.773438 17.820312 23.71875 17.785156 23.664062 17.753906 C 23.597656 17.71875 23.523438 17.703125 23.453125 17.726562 C 23.300781 17.773438 23.15625 17.738281 23.015625 17.699219 C 22.898438 17.667969 22.796875 17.609375 22.707031 17.523438 C 22.648438 17.46875 22.578125 17.429688 22.511719 17.378906 C 22.5 17.371094 22.480469 17.363281 22.472656 17.347656 C 22.441406 17.289062 22.386719 17.289062 22.335938 17.308594 C 22.277344 17.324219 22.222656 17.355469 22.171875 17.382812 C 22.128906 17.402344 22.105469 17.441406 22.09375 17.484375 C 22.082031 17.527344 22.070312 17.570312 22.050781 17.609375 C 22.042969 17.632812 22.023438 17.660156 22.003906 17.664062 C 21.925781 17.6875 21.898438 17.746094 21.875 17.808594 C 21.847656 17.890625 21.824219 17.976562 21.808594 18.0625 C 21.792969 18.136719 21.761719 18.191406 21.699219 18.234375 C 21.671875 18.253906 21.648438 18.28125 21.632812 18.308594 C 21.613281 18.34375 21.609375 18.378906 21.644531 18.414062 C 21.6875 18.457031 21.691406 18.511719 21.671875 18.574219 C 21.628906 18.71875 21.582031 18.863281 21.503906 18.992188 C 21.492188 19.011719 21.480469 19.027344 21.46875 19.046875 C 21.417969 19.113281 21.417969 19.148438 21.46875 19.214844 C 21.542969 19.304688 21.644531 19.34375 21.761719 19.34375 C 21.78125 19.34375 21.800781 19.339844 21.820312 19.335938 C 21.964844 19.3125 22.0625 19.359375 22.132812 19.484375 C 22.175781 19.566406 22.175781 19.566406 22.269531 19.554688 C 22.363281 19.542969 22.386719 19.558594 22.421875 19.652344 C 22.433594 19.691406 22.464844 19.707031 22.5 19.703125 C 22.558594 19.699219 22.597656 19.71875 22.617188 19.773438 C 22.640625 19.828125 22.621094 19.871094 22.578125 19.914062 C 22.542969 19.949219 22.5 19.980469 22.492188 20.039062 C 22.515625 20.074219 22.550781 20.105469 22.566406 20.140625 C 22.597656 20.207031 22.605469 20.277344 22.589844 20.347656 C 22.574219 20.410156 22.589844 20.457031 22.640625 20.503906 C 22.746094 20.597656 22.746094 20.6875 22.648438 20.796875 C 22.636719 20.808594 22.628906 20.824219 22.617188 20.839844 C 22.566406 20.90625 22.496094 20.921875 22.429688 20.867188 C 22.363281 20.816406 22.289062 20.816406 22.226562 20.855469 C 22.027344 20.972656 21.835938 21.101562 21.671875 21.265625 C 21.589844 21.347656 21.550781 21.441406 21.617188 21.554688 C 21.625 21.5625 21.628906 21.574219 21.628906 21.585938 C 21.644531 21.679688 21.671875 21.765625 21.703125 21.855469 C 21.742188 21.980469 21.695312 22.085938 21.609375 22.171875 C 21.554688 22.226562 21.488281 22.273438 21.421875 22.316406 C 21.304688 22.390625 21.203125 22.476562 21.109375 22.578125 C 21.015625 22.679688 20.953125 22.792969 20.96875 22.9375 C 20.972656 22.964844 20.972656 22.992188 20.96875 23.019531 C 20.96875 23.117188 20.917969 23.175781 20.820312 23.195312 C 20.792969 23.199219 20.761719 23.203125 20.734375 23.199219 C 20.652344 23.183594 20.574219 23.207031 20.496094 23.230469 C 20.441406 23.246094 20.382812 23.261719 20.324219 23.265625 C 20.242188 23.269531 20.171875 23.234375 20.136719 23.152344 C 20.109375 23.09375 20.082031 23.039062 20.054688 22.980469 C 20.027344 22.917969 20.046875 22.867188 20.101562 22.828125 C 20.121094 22.8125 20.136719 22.792969 20.167969 22.765625 C 20.132812 22.742188 20.109375 22.71875 20.082031 22.703125 C 20.03125 22.667969 20.027344 22.652344 20.054688 22.601562 C 20.097656 22.523438 20.152344 22.453125 20.238281 22.425781 C 20.328125 22.398438 20.390625 22.328125 20.464844 22.28125 C 20.503906 22.253906 20.519531 22.214844 20.515625 22.167969 C 20.515625 22.128906 20.511719 22.089844 20.511719 22.054688 C 20.507812 22.011719 20.511719 21.972656 20.539062 21.9375 C 20.554688 21.921875 20.558594 21.894531 20.5625 21.875 C 20.570312 21.8125 20.5625 21.757812 20.5 21.726562 C 20.46875 21.707031 20.4375 21.683594 20.410156 21.65625 C 20.390625 21.640625 20.371094 21.617188 20.347656 21.59375 C 20.421875 21.535156 20.5 21.59375 20.574219 21.566406 C 20.550781 21.46875 20.617188 21.433594 20.695312 21.402344 C 20.78125 21.375 20.863281 21.339844 20.949219 21.304688 C 20.972656 21.296875 21 21.277344 21.011719 21.253906 C 21.070312 21.136719 21.085938 21.015625 20.976562 20.910156 C 20.820312 20.757812 20.722656 20.578125 20.703125 20.359375 C 20.703125 20.324219 20.695312 20.289062 20.683594 20.253906 C 20.613281 20.070312 20.546875 19.886719 20.441406 19.714844 C 20.359375 19.574219 20.292969 19.421875 20.21875 19.269531 C 20.132812 19.097656 20.097656 18.90625 20.042969 18.722656 C 20.03125 18.6875 20.023438 18.652344 20.007812 18.617188 C 19.96875 18.527344 19.902344 18.472656 19.800781 18.464844 C 19.78125 18.460938 19.753906 18.464844 19.734375 18.460938 C 19.6875 18.449219 19.65625 18.46875 19.625 18.5 C 19.527344 18.597656 19.441406 18.617188 19.316406 18.5625 C 19.300781 18.554688 19.285156 18.539062 19.273438 18.523438 C 19.230469 18.46875 19.1875 18.414062 19.144531 18.359375 C 19.113281 18.324219 19.078125 18.296875 19.042969 18.261719 C 19.011719 18.289062 18.984375 18.3125 18.953125 18.34375 C 18.929688 18.3125 18.90625 18.285156 18.894531 18.257812 C 18.867188 18.191406 18.820312 18.15625 18.753906 18.144531 C 18.722656 18.136719 18.6875 18.128906 18.660156 18.117188 C 18.617188 18.09375 18.617188 18.0625 18.652344 18.027344 C 18.664062 18.011719 18.679688 17.996094 18.695312 17.980469 C 18.679688 17.957031 18.667969 17.933594 18.65625 17.910156 C 18.632812 17.851562 18.648438 17.820312 18.710938 17.808594 C 18.730469 17.808594 18.746094 17.804688 18.78125 17.796875 C 18.765625 17.761719 18.757812 17.734375 18.742188 17.707031 C 18.722656 17.679688 18.699219 17.652344 18.675781 17.628906 C 18.632812 17.585938 18.59375 17.542969 18.617188 17.476562 C 18.625 17.457031 18.609375 17.429688 18.597656 17.410156 C 18.535156 17.289062 18.445312 17.191406 18.332031 17.113281 C 18.328125 17.109375 18.316406 17.109375 18.296875 17.105469 C 18.285156 17.144531 18.273438 17.179688 18.257812 17.21875 C 18.242188 17.21875 18.230469 17.21875 18.222656 17.214844 C 18.128906 17.175781 18.097656 17.183594 18.035156 17.257812 C 17.984375 17.320312 17.980469 17.320312 17.917969 17.277344 C 17.898438 17.265625 17.878906 17.25 17.859375 17.234375 C 17.78125 17.253906 17.730469 17.335938 17.636719 17.351562 C 17.628906 17.269531 17.660156 17.214844 17.710938 17.175781 C 17.746094 17.148438 17.785156 17.128906 17.820312 17.105469 C 17.867188 17.078125 17.875 17.035156 17.828125 17.007812 C 17.738281 16.953125 17.679688 16.859375 17.601562 16.792969 C 17.539062 16.738281 17.507812 16.746094 17.488281 16.824219 C 17.484375 16.832031 17.484375 16.835938 17.484375 16.839844 C 17.464844 16.910156 17.433594 16.917969 17.378906 16.871094 C 17.355469 16.851562 17.332031 16.832031 17.296875 16.800781 C 17.277344 16.851562 17.261719 16.890625 17.246094 16.9375 C 17.183594 16.917969 17.160156 16.871094 17.148438 16.824219 C 17.128906 16.761719 17.113281 16.699219 17.105469 16.636719 C 17.089844 16.527344 17.039062 16.4375 16.957031 16.367188 C 16.902344 16.320312 16.855469 16.265625 16.804688 16.210938 C 16.78125 16.1875 16.769531 16.160156 16.78125 16.125 C 16.800781 16.078125 16.773438 16.039062 16.746094 16.003906 C 16.667969 15.917969 16.5625 15.882812 16.453125 15.859375 C 16.4375 15.855469 16.40625 15.875 16.390625 15.894531 C 16.335938 15.964844 16.332031 15.964844 16.25 15.929688 C 16.15625 15.890625 16.066406 15.847656 15.976562 15.816406 C 15.925781 15.800781 15.867188 15.800781 15.8125 15.796875 C 15.757812 15.796875 15.710938 15.816406 15.667969 15.851562 C 15.578125 15.9375 15.472656 15.929688 15.390625 15.832031 C 15.351562 15.785156 15.320312 15.730469 15.285156 15.679688 C 15.261719 15.648438 15.238281 15.617188 15.210938 15.585938 C 15.164062 15.535156 15.105469 15.519531 15.035156 15.523438 C 14.984375 15.53125 14.933594 15.527344 14.878906 15.527344 C 14.871094 15.492188 14.863281 15.460938 14.855469 15.429688 C 14.847656 15.394531 14.824219 15.378906 14.785156 15.386719 C 14.703125 15.40625 14.695312 15.40625 14.652344 15.335938 C 14.585938 15.230469 14.523438 15.125 14.464844 15.019531 C 14.414062 14.925781 14.335938 14.871094 14.238281 14.839844 C 14.097656 14.796875 14.011719 14.707031 13.992188 14.554688 C 13.980469 14.464844 13.976562 14.460938 13.878906 14.453125 C 13.808594 14.445312 13.769531 14.417969 13.757812 14.351562 C 13.746094 14.28125 13.710938 14.246094 13.644531 14.238281 C 13.449219 14.203125 13.335938 14.074219 13.246094 13.914062 C 13.222656 13.875 13.207031 13.828125 13.191406 13.785156 C 13.148438 13.664062 13.070312 13.570312 12.972656 13.484375 C 12.925781 13.441406 12.867188 13.417969 12.804688 13.398438 C 12.703125 13.371094 12.609375 13.328125 12.511719 13.292969 C 12.492188 13.285156 12.472656 13.273438 12.453125 13.269531 C 12.382812 13.253906 12.363281 13.269531 12.34375 13.339844 C 12.339844 13.355469 12.332031 13.371094 12.324219 13.386719 C 12.28125 13.390625 12.242188 13.378906 12.226562 13.34375 C 12.203125 13.296875 12.1875 13.246094 12.175781 13.199219 C 12.171875 13.1875 12.195312 13.167969 12.210938 13.15625 C 12.222656 13.148438 12.238281 13.152344 12.253906 13.148438 C 12.359375 13.128906 12.371094 13.082031 12.308594 12.992188 C 12.230469 12.886719 12.160156 12.777344 12.09375 12.664062 C 12.042969 12.566406 11.96875 12.515625 11.859375 12.519531 C 11.769531 12.523438 11.703125 12.476562 11.640625 12.421875 C 11.582031 12.371094 11.582031 12.308594 11.632812 12.246094 C 11.640625 12.234375 11.652344 12.222656 11.664062 12.210938 C 11.65625 12.195312 11.648438 12.179688 11.640625 12.164062 C 11.632812 12.148438 11.621094 12.136719 11.609375 12.117188 C 11.59375 12.128906 11.582031 12.136719 11.566406 12.144531 C 11.511719 12.171875 11.492188 12.164062 11.457031 12.117188 C 11.445312 12.101562 11.4375 12.085938 11.425781 12.070312 C 11.417969 12.058594 11.40625 12.042969 11.386719 12.019531 C 11.355469 12.046875 11.324219 12.074219 11.292969 12.09375 C 11.277344 12.109375 11.253906 12.117188 11.234375 12.125 C 11.230469 12.105469 11.214844 12.082031 11.21875 12.0625 C 11.230469 11.96875 11.246094 11.875 11.265625 11.78125 C 11.273438 11.746094 11.289062 11.707031 11.304688 11.675781 C 11.332031 11.632812 11.339844 11.589844 11.335938 11.542969 C 11.3125 11.367188 11.265625 11.199219 11.136719 11.066406 C 10.96875 10.890625 10.898438 10.675781 10.878906 10.4375 C 10.875 10.34375 10.859375 10.25 10.851562 10.160156 C 10.847656 10.082031 10.824219 10.015625 10.773438 9.960938 C 10.746094 9.933594 10.722656 9.898438 10.699219 9.867188 C 10.734375 9.773438 10.710938 9.699219 10.613281 9.652344 C 10.550781 9.621094 10.484375 9.601562 10.417969 9.585938 C 10.367188 9.574219 10.332031 9.550781 10.308594 9.511719 C 10.300781 9.5 10.289062 9.492188 10.269531 9.472656 C 10.253906 9.507812 10.246094 9.535156 10.230469 9.574219 C 10.203125 9.566406 10.171875 9.5625 10.152344 9.546875 C 10.097656 9.503906 10.042969 9.464844 10.007812 9.398438 C 9.988281 9.359375 9.945312 9.320312 9.90625 9.308594 C 9.738281 9.246094 9.609375 9.128906 9.476562 9.011719 C 9.464844 9 9.453125 8.988281 9.4375 8.976562 C 9.347656 8.902344 9.347656 8.898438 9.242188 8.957031 C 9.179688 8.992188 9.128906 8.957031 9.082031 8.929688 C 9.074219 8.824219 9.050781 8.800781 8.949219 8.773438 C 8.753906 8.722656 8.554688 8.710938 8.359375 8.742188 C 8.195312 8.769531 8.066406 8.855469 7.996094 9.011719 C 7.980469 9.035156 7.96875 9.0625 7.957031 9.089844 C 7.917969 9.15625 7.863281 9.195312 7.785156 9.207031 C 7.664062 9.21875 7.648438 9.238281 7.628906 9.351562 C 7.625 9.363281 7.625 9.371094 7.621094 9.378906 C 7.601562 9.480469 7.601562 9.480469 7.5 9.5 C 7.492188 9.511719 7.484375 9.527344 7.480469 9.542969 C 7.449219 9.699219 7.339844 9.773438 7.195312 9.785156 C 7.03125 9.796875 6.890625 9.867188 6.75 9.945312 C 6.6875 9.980469 6.617188 10.007812 6.550781 10.023438 C 6.445312 10.050781 6.398438 10.011719 6.375 9.910156 C 6.351562 9.792969 6.425781 9.660156 6.542969 9.601562 C 6.605469 9.574219 6.667969 9.554688 6.730469 9.53125 C 6.753906 9.519531 6.773438 9.511719 6.796875 9.503906 C 6.824219 9.488281 6.832031 9.46875 6.824219 9.4375 C 6.804688 9.367188 6.789062 9.296875 6.765625 9.226562 C 6.742188 9.144531 6.679688 9.097656 6.605469 9.0625 C 6.582031 9.050781 6.535156 9.058594 6.507812 9.074219 C 6.429688 9.113281 6.351562 9.128906 6.265625 9.113281 C 6.1875 9.097656 6.109375 9.101562 6.03125 9.09375 C 5.984375 9.089844 5.945312 9.082031 5.9375 9.019531 C 5.9375 9.003906 5.894531 8.976562 5.875 8.976562 C 5.738281 8.988281 5.652344 8.90625 5.566406 8.820312 C 5.53125 8.785156 5.496094 8.757812 5.476562 8.707031 C 5.453125 8.636719 5.457031 8.625 5.511719 8.582031 C 5.53125 8.566406 5.550781 8.554688 5.570312 8.542969 C 5.621094 8.5 5.613281 8.445312 5.554688 8.417969 C 5.550781 8.414062 5.550781 8.414062 5.546875 8.414062 C 5.445312 8.371094 5.4375 8.328125 5.503906 8.238281 C 5.546875 8.1875 5.597656 8.160156 5.660156 8.144531 C 5.710938 8.128906 5.761719 8.121094 5.8125 8.105469 C 5.847656 8.09375 5.886719 8.078125 5.921875 8.058594 C 5.945312 8.042969 5.960938 8.011719 5.9375 7.984375 C 5.863281 7.894531 5.835938 7.789062 5.8125 7.679688 C 5.808594 7.660156 5.804688 7.640625 5.796875 7.621094 C 5.761719 7.539062 5.707031 7.511719 5.613281 7.527344 C 5.558594 7.535156 5.507812 7.539062 5.453125 7.515625 C 5.347656 7.464844 5.34375 7.355469 5.363281 7.265625 C 5.367188 7.253906 5.375 7.238281 5.378906 7.226562 C 5.398438 7.171875 5.378906 7.128906 5.324219 7.105469 C 5.304688 7.097656 5.28125 7.09375 5.257812 7.089844 C 5.1875 7.078125 5.191406 7.03125 5.222656 6.984375 C 5.269531 6.910156 5.378906 6.832031 5.507812 6.886719 C 5.546875 6.902344 5.582031 6.914062 5.617188 6.925781 C 5.636719 6.871094 5.644531 6.820312 5.671875 6.785156 C 5.714844 6.722656 5.785156 6.707031 5.855469 6.699219 C 5.878906 6.699219 5.902344 6.703125 5.925781 6.699219 C 5.949219 6.695312 5.976562 6.6875 6 6.675781 C 6.0625 6.644531 6.066406 6.621094 6.035156 6.558594 C 6.03125 6.546875 6.023438 6.539062 6.019531 6.527344 C 5.992188 6.460938 6.003906 6.417969 6.0625 6.378906 C 6.132812 6.339844 6.148438 6.285156 6.105469 6.222656 C 6.058594 6.148438 6.003906 6.085938 5.917969 6.058594 C 5.898438 6.054688 5.875 6.042969 5.855469 6.035156 C 5.785156 6.003906 5.765625 5.941406 5.796875 5.875 C 5.808594 5.859375 5.820312 5.84375 5.832031 5.828125 C 5.886719 5.746094 5.867188 5.683594 5.78125 5.644531 C 5.738281 5.625 5.695312 5.605469 5.65625 5.585938 C 5.589844 5.554688 5.5625 5.472656 5.589844 5.410156 C 5.609375 5.371094 5.667969 5.347656 5.730469 5.355469 C 5.761719 5.359375 5.796875 5.371094 5.832031 5.375 C 5.894531 5.378906 5.917969 5.359375 5.917969 5.296875 C 5.917969 5.277344 5.914062 5.253906 5.914062 5.234375 C 5.917969 5.183594 5.933594 5.164062 5.980469 5.160156 C 6.023438 5.152344 6.046875 5.167969 6.054688 5.210938 C 6.066406 5.265625 6.089844 5.308594 6.148438 5.335938 C 6.160156 5.328125 6.171875 5.324219 6.183594 5.316406 C 6.253906 5.25 6.335938 5.253906 6.421875 5.277344 C 6.546875 5.316406 6.558594 5.3125 6.613281 5.195312 C 6.640625 5.132812 6.683594 5.105469 6.746094 5.097656 C 6.871094 5.078125 6.988281 5.105469 7.101562 5.15625 C 7.132812 5.167969 7.164062 5.199219 7.1875 5.226562 C 7.234375 5.296875 7.296875 5.335938 7.390625 5.351562 C 7.382812 5.324219 7.375 5.300781 7.371094 5.277344 C 7.363281 5.25 7.351562 5.21875 7.351562 5.191406 C 7.347656 5.125 7.367188 5.105469 7.433594 5.097656 C 7.511719 5.09375 7.546875 5.0625 7.542969 4.984375 C 7.542969 4.878906 7.582031 4.835938 7.6875 4.800781 C 7.699219 4.796875 7.710938 4.792969 7.722656 4.789062 C 7.757812 4.769531 7.796875 4.753906 7.800781 4.707031 C 7.808594 4.65625 7.773438 4.632812 7.734375 4.613281 C 7.699219 4.597656 7.671875 4.570312 7.671875 4.527344 C 7.671875 4.492188 7.734375 4.429688 7.777344 4.429688 C 7.847656 4.433594 7.882812 4.402344 7.902344 4.339844 C 7.917969 4.339844 7.929688 4.339844 7.941406 4.339844 C 8.03125 4.355469 8.03125 4.351562 8.074219 4.269531 C 8.097656 4.222656 8.128906 4.175781 8.167969 4.136719 C 8.207031 4.09375 8.253906 4.105469 8.28125 4.160156 C 8.308594 4.214844 8.3125 4.277344 8.289062 4.335938 C 8.269531 4.386719 8.246094 4.429688 8.226562 4.480469 C 8.214844 4.507812 8.210938 4.535156 8.210938 4.5625 C 8.207031 4.59375 8.222656 4.617188 8.261719 4.621094 C 8.277344 4.621094 8.296875 4.625 8.3125 4.628906 C 8.375 4.644531 8.394531 4.667969 8.398438 4.734375 C 8.398438 4.757812 8.398438 4.785156 8.398438 4.8125 C 8.402344 4.90625 8.46875 4.96875 8.5625 4.964844 C 8.597656 4.960938 8.632812 4.953125 8.664062 4.949219 C 8.707031 4.945312 8.746094 4.941406 8.789062 4.945312 C 8.835938 4.945312 8.867188 4.980469 8.878906 5.023438 C 8.894531 5.070312 8.875 5.105469 8.839844 5.132812 C 8.820312 5.152344 8.792969 5.164062 8.773438 5.1875 C 8.742188 5.214844 8.746094 5.242188 8.785156 5.261719 C 8.792969 5.265625 8.800781 5.261719 8.808594 5.265625 C 8.90625 5.296875 8.914062 5.320312 8.875 5.417969 C 8.851562 5.476562 8.855469 5.484375 8.910156 5.515625 C 8.933594 5.527344 8.957031 5.539062 8.980469 5.550781 C 9.050781 5.585938 9.15625 5.554688 9.195312 5.488281 C 9.222656 5.441406 9.210938 5.390625 9.160156 5.359375 C 9.144531 5.347656 9.125 5.335938 9.09375 5.320312 C 9.117188 5.300781 9.132812 5.285156 9.148438 5.269531 C 9.164062 5.257812 9.179688 5.242188 9.199219 5.222656 C 9.179688 5.207031 9.164062 5.191406 9.144531 5.175781 C 9.105469 5.140625 9.105469 5.109375 9.148438 5.089844 C 9.195312 5.070312 9.214844 5.046875 9.226562 4.996094 C 9.230469 4.960938 9.257812 4.925781 9.285156 4.90625 C 9.402344 4.824219 9.457031 4.707031 9.5 4.574219 C 9.507812 4.542969 9.523438 4.507812 9.542969 4.480469 C 9.585938 4.414062 9.597656 4.339844 9.59375 4.265625 C 9.59375 4.238281 9.59375 4.210938 9.601562 4.1875 C 9.613281 4.164062 9.628906 4.132812 9.652344 4.125 C 9.664062 4.121094 9.695312 4.148438 9.710938 4.167969 C 9.722656 4.179688 9.730469 4.195312 9.742188 4.222656 C 9.753906 4.199219 9.761719 4.1875 9.765625 4.171875 C 9.769531 4.144531 9.769531 4.117188 9.78125 4.09375 C 9.789062 4.078125 9.808594 4.058594 9.820312 4.058594 C 9.835938 4.058594 9.859375 4.078125 9.867188 4.09375 C 9.902344 4.183594 9.933594 4.277344 9.9375 4.378906 C 9.9375 4.433594 9.949219 4.496094 9.972656 4.546875 C 10.007812 4.628906 10.105469 4.65625 10.191406 4.617188 C 10.191406 4.609375 10.199219 4.605469 10.195312 4.601562 C 10.171875 4.515625 10.210938 4.441406 10.304688 4.425781 C 10.398438 4.410156 10.496094 4.410156 10.59375 4.417969 C 10.660156 4.425781 10.675781 4.449219 10.671875 4.519531 C 10.664062 4.609375 10.667969 4.699219 10.71875 4.78125 C 10.757812 4.847656 10.832031 4.867188 10.894531 4.824219 C 10.949219 4.785156 10.953125 4.730469 10.90625 4.6875 C 10.867188 4.652344 10.832031 4.613281 10.789062 4.574219 C 10.816406 4.539062 10.84375 4.511719 10.863281 4.480469 C 10.882812 4.457031 10.898438 4.433594 10.910156 4.40625 C 10.929688 4.351562 10.914062 4.332031 10.851562 4.320312 C 10.824219 4.316406 10.792969 4.3125 10.769531 4.296875 C 10.695312 4.253906 10.675781 4.199219 10.707031 4.121094 C 10.730469 4.050781 10.761719 3.984375 10.792969 3.921875 C 10.847656 3.816406 10.972656 3.761719 11.082031 3.792969 C 11.148438 3.808594 11.164062 3.832031 11.164062 3.898438 C 11.160156 3.921875 11.15625 3.949219 11.160156 3.976562 C 11.167969 4.0625 11.242188 4.113281 11.328125 4.09375 C 11.414062 4.074219 11.472656 4.011719 11.476562 3.9375 C 11.480469 3.898438 11.460938 3.875 11.4375 3.847656 C 11.355469 3.738281 11.363281 3.738281 11.398438 3.605469 C 11.433594 3.476562 11.515625 3.394531 11.628906 3.335938 C 11.75 3.273438 11.859375 3.304688 11.925781 3.421875 C 11.949219 3.464844 11.976562 3.507812 12.015625 3.535156 C 12.050781 3.558594 12.097656 3.570312 12.140625 3.566406 C 12.226562 3.5625 12.3125 3.550781 12.398438 3.53125 C 12.464844 3.519531 12.480469 3.5 12.476562 3.429688 C 12.472656 3.386719 12.460938 3.34375 12.453125 3.300781 C 12.4375 3.226562 12.453125 3.191406 12.519531 3.152344 C 12.648438 3.082031 12.769531 3.09375 12.882812 3.195312 C 12.886719 3.199219 12.886719 3.203125 12.894531 3.207031 C 12.914062 3.214844 12.933594 3.21875 12.957031 3.226562 C 12.960938 3.207031 12.976562 3.183594 12.972656 3.164062 C 12.953125 3.105469 12.988281 3.070312 13.03125 3.054688 C 13.109375 3.023438 13.195312 2.996094 13.28125 2.980469 C 13.320312 2.96875 13.363281 2.984375 13.414062 2.988281 C 13.40625 3.03125 13.398438 3.0625 13.394531 3.089844 C 13.433594 3.128906 13.472656 3.113281 13.507812 3.097656 C 13.601562 3.050781 13.695312 3.003906 13.785156 2.953125 C 13.898438 2.886719 14.007812 2.894531 14.121094 2.9375 C 14.136719 2.941406 14.152344 2.953125 14.164062 2.964844 C 14.191406 2.996094 14.183594 3.035156 14.144531 3.050781 C 14.128906 3.058594 14.105469 3.058594 14.085938 3.066406 C 14.019531 3.085938 13.996094 3.121094 14 3.1875 C 14 3.234375 14.019531 3.265625 14.066406 3.277344 C 14.089844 3.28125 14.117188 3.289062 14.140625 3.304688 C 14.207031 3.339844 14.253906 3.382812 14.238281 3.46875 C 14.234375 3.507812 14.238281 3.550781 14.238281 3.59375 C 14.285156 3.632812 14.328125 3.675781 14.363281 3.726562 C 14.417969 3.804688 14.511719 3.847656 14.609375 3.832031 C 14.753906 3.8125 14.878906 3.847656 15.003906 3.910156 C 15.128906 3.96875 15.257812 4 15.394531 3.980469 C 15.492188 3.964844 15.578125 3.980469 15.65625 4.042969 C 15.738281 4.105469 15.828125 4.101562 15.925781 4.085938 C 16.046875 4.0625 16.171875 4.039062 16.296875 4.054688 C 16.394531 4.066406 16.445312 4.113281 16.453125 4.210938 C 16.457031 4.257812 16.433594 4.289062 16.398438 4.3125 C 16.363281 4.332031 16.320312 4.34375 16.285156 4.359375 C 16.242188 4.375 16.199219 4.390625 16.152344 4.40625 C 16.042969 4.441406 15.984375 4.535156 15.929688 4.628906 C 15.898438 4.671875 15.910156 4.707031 15.953125 4.730469 C 15.980469 4.746094 16.011719 4.753906 16.042969 4.761719 C 16.121094 4.777344 16.199219 4.792969 16.273438 4.8125 C 16.304688 4.820312 16.332031 4.839844 16.355469 4.859375 C 16.398438 4.898438 16.398438 4.945312 16.363281 4.992188 C 16.320312 5.046875 16.265625 5.089844 16.203125 5.125 C 16.164062 5.144531 16.125 5.171875 16.09375 5.207031 C 16.058594 5.25 16.058594 5.296875 16.085938 5.335938 C 16.109375 5.375 16.132812 5.378906 16.203125 5.359375 C 16.210938 5.355469 16.222656 5.351562 16.234375 5.347656 C 16.3125 5.332031 16.351562 5.367188 16.328125 5.441406 C 16.316406 5.496094 16.300781 5.546875 16.257812 5.589844 C 16.203125 5.640625 16.214844 5.671875 16.285156 5.703125 C 16.332031 5.726562 16.382812 5.746094 16.429688 5.769531 C 16.554688 5.832031 16.648438 5.933594 16.746094 6.027344 C 16.8125 6.09375 16.796875 6.152344 16.71875 6.203125 C 16.644531 6.25 16.570312 6.257812 16.492188 6.21875 C 16.417969 6.183594 16.410156 6.136719 16.464844 6.074219 C 16.472656 6.0625 16.480469 6.054688 16.488281 6.042969 C 16.445312 5.96875 16.382812 5.910156 16.316406 5.859375 C 16.246094 5.804688 16.199219 5.816406 16.144531 5.890625 C 16.109375 5.933594 16.074219 5.980469 16.03125 6.023438 C 15.984375 6.078125 15.964844 6.074219 15.90625 6.019531 C 15.90625 6.011719 15.902344 6.003906 15.90625 6 C 15.949219 5.910156 15.933594 5.871094 15.832031 5.863281 C 15.726562 5.851562 15.625 5.847656 15.519531 5.84375 C 15.460938 5.84375 15.429688 5.878906 15.40625 5.921875 C 15.414062 5.992188 15.492188 5.964844 15.519531 6.007812 C 15.515625 6.0625 15.480469 6.085938 15.433594 6.097656 C 15.40625 6.105469 15.378906 6.105469 15.355469 6.109375 C 15.261719 6.117188 15.171875 6.128906 15.089844 6.1875 C 15.058594 6.210938 15.015625 6.21875 14.976562 6.226562 C 14.828125 6.25 14.675781 6.269531 14.527344 6.296875 C 14.378906 6.324219 14.238281 6.378906 14.132812 6.5 C 14.097656 6.542969 14.070312 6.582031 14.082031 6.640625 C 14.089844 6.699219 14.066406 6.746094 14.019531 6.785156 C 13.984375 6.816406 13.9375 6.851562 13.953125 6.921875 " fill-opacity="1" fill-rule="nonzero"/></g><g clip-path="url(#5755008d5d)"><path fill="#014d4e" d="M 16.90625 25.238281 C 16.929688 25.125 16.90625 25.09375 16.792969 25.085938 C 16.742188 25.082031 16.691406 25.074219 16.640625 25.058594 C 16.550781 25.035156 16.492188 24.976562 16.457031 24.886719 C 16.421875 24.785156 16.410156 24.78125 16.304688 24.789062 C 16.242188 24.796875 16.1875 24.78125 16.136719 24.753906 C 15.988281 24.660156 15.859375 24.554688 15.8125 24.371094 C 15.796875 24.316406 15.765625 24.277344 15.707031 24.265625 C 15.648438 24.257812 15.609375 24.285156 15.574219 24.332031 C 15.523438 24.40625 15.449219 24.410156 15.386719 24.347656 C 15.363281 24.324219 15.351562 24.292969 15.332031 24.269531 C 15.289062 24.21875 15.246094 24.167969 15.195312 24.125 C 15.144531 24.082031 15.105469 24.089844 15.054688 24.132812 C 15.023438 24.164062 14.992188 24.195312 14.957031 24.21875 C 14.875 24.269531 14.789062 24.246094 14.738281 24.167969 C 14.71875 24.140625 14.699219 24.109375 14.675781 24.082031 C 14.65625 24.050781 14.625 24.039062 14.585938 24.027344 C 14.480469 24.003906 14.394531 23.949219 14.335938 23.847656 C 14.359375 23.828125 14.378906 23.816406 14.394531 23.800781 C 14.441406 23.761719 14.445312 23.730469 14.402344 23.683594 C 14.382812 23.660156 14.359375 23.636719 14.332031 23.609375 C 14.339844 23.601562 14.351562 23.585938 14.359375 23.574219 C 14.410156 23.515625 14.421875 23.453125 14.40625 23.378906 C 14.402344 23.339844 14.402344 23.296875 14.402344 23.257812 C 14.40625 23.195312 14.4375 23.15625 14.496094 23.136719 C 14.566406 23.113281 14.617188 23.066406 14.65625 23.007812 C 14.699219 22.941406 14.75 22.878906 14.796875 22.816406 C 14.808594 22.800781 14.824219 22.785156 14.839844 22.773438 C 14.902344 22.734375 14.957031 22.75 14.992188 22.8125 C 15.011719 22.851562 15.023438 22.894531 15.046875 22.933594 C 15.085938 23.007812 15.144531 23.070312 15.230469 23.09375 C 15.34375 23.121094 15.457031 23.03125 15.460938 22.917969 C 15.460938 22.878906 15.460938 22.84375 15.460938 22.8125 C 15.542969 22.773438 15.609375 22.738281 15.683594 22.710938 C 15.761719 22.679688 15.84375 22.683594 15.917969 22.726562 C 15.972656 22.757812 15.980469 22.789062 15.953125 22.84375 C 15.917969 22.914062 15.953125 22.976562 16.035156 22.976562 C 16.058594 22.980469 16.085938 22.972656 16.109375 22.964844 C 16.175781 22.933594 16.242188 22.945312 16.304688 22.964844 C 16.441406 23 16.53125 23.089844 16.625 23.183594 C 16.707031 23.261719 16.746094 23.269531 16.851562 23.222656 C 16.890625 23.203125 16.929688 23.183594 16.964844 23.160156 C 17.046875 23.105469 17.136719 23.089844 17.234375 23.113281 C 17.433594 23.160156 17.632812 23.152344 17.832031 23.121094 C 17.992188 23.09375 18.140625 23.027344 18.269531 22.914062 C 18.347656 22.847656 18.441406 22.785156 18.539062 22.742188 C 18.636719 22.703125 18.742188 22.710938 18.84375 22.75 C 18.878906 22.765625 18.917969 22.777344 18.953125 22.785156 C 19.0625 22.808594 19.140625 22.769531 19.195312 22.675781 C 19.203125 22.660156 19.210938 22.644531 19.21875 22.628906 C 19.246094 22.582031 19.285156 22.5625 19.335938 22.570312 C 19.378906 22.574219 19.425781 22.578125 19.46875 22.582031 C 19.539062 22.589844 19.597656 22.566406 19.652344 22.519531 C 19.671875 22.5 19.699219 22.484375 19.71875 22.460938 C 19.785156 22.394531 19.863281 22.386719 19.949219 22.425781 C 19.96875 22.4375 19.992188 22.449219 20.011719 22.457031 C 20.007812 22.53125 19.976562 22.589844 19.945312 22.648438 C 19.878906 22.765625 19.816406 22.886719 19.75 23.007812 C 19.742188 23.019531 19.742188 23.035156 19.730469 23.046875 C 19.644531 23.160156 19.609375 23.296875 19.546875 23.421875 C 19.53125 23.449219 19.519531 23.480469 19.511719 23.511719 C 19.488281 23.625 19.429688 23.71875 19.359375 23.8125 C 19.328125 23.855469 19.308594 23.910156 19.292969 23.960938 C 19.261719 24.058594 19.242188 24.164062 19.207031 24.261719 C 19.191406 24.308594 19.160156 24.355469 19.125 24.394531 C 19.078125 24.453125 19.074219 24.472656 19.140625 24.503906 C 19.203125 24.53125 19.234375 24.566406 19.238281 24.632812 C 19.242188 24.722656 19.285156 24.738281 19.367188 24.699219 C 19.386719 24.691406 19.417969 24.683594 19.4375 24.691406 C 19.460938 24.699219 19.492188 24.722656 19.496094 24.742188 C 19.5 24.765625 19.480469 24.800781 19.460938 24.816406 C 19.433594 24.839844 19.386719 24.851562 19.390625 24.898438 C 19.398438 24.949219 19.40625 25 19.425781 25.046875 C 19.433594 25.066406 19.472656 25.082031 19.496094 25.085938 C 19.539062 25.089844 19.578125 25.082031 19.621094 25.082031 C 19.675781 25.082031 19.691406 25.101562 19.695312 25.15625 C 19.699219 25.230469 19.679688 25.300781 19.621094 25.351562 C 19.539062 25.414062 19.453125 25.476562 19.371094 25.539062 C 19.292969 25.601562 19.246094 25.679688 19.242188 25.777344 C 19.242188 25.835938 19.257812 25.894531 19.265625 25.949219 C 19.269531 25.976562 19.28125 26 19.28125 26.027344 C 19.285156 26.066406 19.257812 26.113281 19.222656 26.125 C 19.179688 26.136719 19.140625 26.125 19.117188 26.09375 C 19.039062 25.964844 18.921875 25.976562 18.800781 26.011719 C 18.691406 26.042969 18.582031 26.03125 18.476562 26 C 18.359375 25.964844 18.246094 25.914062 18.132812 25.871094 C 18.042969 25.835938 17.996094 25.761719 17.96875 25.675781 C 17.9375 25.574219 17.875 25.496094 17.796875 25.429688 C 17.597656 25.25 17.371094 25.164062 17.101562 25.21875 C 17.058594 25.226562 17.015625 25.234375 16.972656 25.242188 C 16.949219 25.242188 16.929688 25.238281 16.90625 25.238281 " fill-opacity="1" fill-rule="nonzero"/></g><path fill="#014d4e" d="M 9.707031 16.351562 C 9.679688 16.371094 9.660156 16.386719 9.640625 16.394531 C 9.621094 16.40625 9.601562 16.40625 9.582031 16.410156 C 9.503906 16.433594 9.484375 16.511719 9.546875 16.5625 C 9.570312 16.585938 9.605469 16.597656 9.636719 16.613281 C 9.660156 16.621094 9.683594 16.628906 9.714844 16.636719 C 9.710938 16.660156 9.710938 16.675781 9.703125 16.691406 C 9.660156 16.792969 9.675781 16.890625 9.71875 16.988281 C 9.742188 17.039062 9.777344 17.082031 9.800781 17.132812 C 9.835938 17.210938 9.871094 17.292969 9.898438 17.375 C 9.921875 17.457031 9.90625 17.542969 9.859375 17.617188 C 9.8125 17.695312 9.757812 17.765625 9.707031 17.839844 C 9.660156 17.902344 9.609375 17.964844 9.566406 18.03125 C 9.515625 18.113281 9.523438 18.191406 9.582031 18.265625 C 9.613281 18.300781 9.640625 18.34375 9.679688 18.375 C 9.722656 18.414062 9.734375 18.457031 9.71875 18.507812 C 9.6875 18.605469 9.660156 18.707031 9.617188 18.792969 C 9.554688 18.90625 9.53125 19.023438 9.535156 19.148438 C 9.542969 19.507812 9.496094 19.859375 9.394531 20.207031 C 9.375 20.269531 9.351562 20.335938 9.324219 20.394531 C 9.273438 20.496094 9.203125 20.527344 9.09375 20.503906 C 9.015625 20.492188 8.953125 20.453125 8.902344 20.394531 C 8.890625 20.378906 8.878906 20.367188 8.867188 20.351562 C 8.78125 20.222656 8.652344 20.21875 8.527344 20.300781 C 8.402344 20.386719 8.351562 20.503906 8.355469 20.652344 C 8.355469 20.722656 8.355469 20.789062 8.347656 20.859375 C 8.347656 20.890625 8.335938 20.925781 8.324219 20.953125 C 8.257812 21.09375 8.121094 21.121094 8 21.023438 C 7.984375 21.007812 7.96875 20.996094 7.953125 20.984375 C 7.902344 20.953125 7.851562 20.964844 7.8125 21.011719 C 7.796875 21.027344 7.785156 21.050781 7.773438 21.066406 C 7.734375 21.121094 7.695312 21.117188 7.671875 21.054688 C 7.652344 21.003906 7.632812 20.945312 7.621094 20.890625 C 7.605469 20.804688 7.59375 20.71875 7.574219 20.632812 C 7.539062 20.457031 7.429688 20.363281 7.25 20.347656 C 7.207031 20.34375 7.175781 20.332031 7.15625 20.292969 C 7.140625 20.253906 7.152344 20.222656 7.179688 20.191406 C 7.21875 20.148438 7.253906 20.109375 7.292969 20.0625 C 7.234375 19.972656 7.238281 19.875 7.289062 19.78125 C 7.308594 19.75 7.332031 19.710938 7.363281 19.6875 C 7.472656 19.609375 7.480469 19.507812 7.441406 19.394531 C 7.410156 19.308594 7.394531 19.226562 7.398438 19.136719 C 7.398438 19.105469 7.40625 19.070312 7.410156 19.042969 C 7.460938 19.027344 7.472656 19.058594 7.484375 19.082031 C 7.53125 19.164062 7.632812 19.15625 7.664062 19.050781 C 7.6875 18.972656 7.707031 18.898438 7.695312 18.816406 C 7.683594 18.707031 7.625 18.660156 7.515625 18.671875 C 7.445312 18.683594 7.421875 18.667969 7.398438 18.597656 C 7.367188 18.492188 7.378906 18.40625 7.476562 18.371094 C 7.523438 18.355469 7.535156 18.316406 7.535156 18.273438 C 7.535156 18.1875 7.558594 18.109375 7.59375 18.03125 C 7.628906 17.960938 7.617188 17.886719 7.589844 17.816406 C 7.578125 17.789062 7.542969 17.765625 7.515625 17.746094 C 7.4375 17.699219 7.40625 17.632812 7.398438 17.546875 C 7.398438 17.488281 7.398438 17.433594 7.398438 17.378906 C 7.390625 17.265625 7.328125 17.210938 7.214844 17.222656 C 7.179688 17.226562 7.148438 17.238281 7.113281 17.246094 C 7.074219 17.25 7.039062 17.261719 7 17.257812 C 6.933594 17.257812 6.902344 17.21875 6.921875 17.15625 C 6.933594 17.113281 6.957031 17.074219 6.980469 17.039062 C 6.992188 17.015625 7.019531 16.996094 7.039062 16.976562 C 7.105469 16.90625 7.121094 16.824219 7.082031 16.734375 C 7.019531 16.601562 7.066406 16.484375 7.148438 16.378906 C 7.203125 16.308594 7.269531 16.320312 7.292969 16.410156 C 7.316406 16.5 7.363281 16.5625 7.449219 16.605469 C 7.492188 16.628906 7.523438 16.667969 7.5625 16.699219 C 7.59375 16.726562 7.628906 16.757812 7.664062 16.78125 C 7.695312 16.804688 7.730469 16.796875 7.746094 16.761719 C 7.804688 16.636719 7.921875 16.597656 8.039062 16.550781 C 8.109375 16.519531 8.183594 16.488281 8.253906 16.453125 C 8.324219 16.414062 8.367188 16.351562 8.378906 16.273438 C 8.386719 16.210938 8.414062 16.164062 8.453125 16.121094 C 8.503906 16.070312 8.554688 16.03125 8.628906 16.042969 C 8.648438 16.046875 8.664062 16.042969 8.683594 16.042969 C 8.746094 16.03125 8.765625 16.011719 8.761719 15.949219 C 8.753906 15.882812 8.773438 15.828125 8.816406 15.78125 C 8.871094 15.714844 8.933594 15.71875 8.976562 15.792969 C 8.996094 15.820312 9.011719 15.851562 9.03125 15.886719 C 9.050781 15.886719 9.070312 15.886719 9.089844 15.886719 C 9.164062 15.894531 9.191406 15.925781 9.195312 16 C 9.199219 16.027344 9.199219 16.058594 9.207031 16.085938 C 9.214844 16.121094 9.242188 16.128906 9.269531 16.101562 C 9.285156 16.085938 9.292969 16.066406 9.308594 16.050781 C 9.335938 16.019531 9.40625 16.019531 9.433594 16.050781 C 9.457031 16.074219 9.449219 16.101562 9.429688 16.121094 C 9.414062 16.140625 9.390625 16.15625 9.375 16.175781 C 9.335938 16.21875 9.347656 16.25 9.40625 16.261719 C 9.4375 16.269531 9.472656 16.269531 9.507812 16.269531 C 9.578125 16.269531 9.640625 16.289062 9.707031 16.351562 " fill-opacity="1" fill-rule="nonzero"/></svg>