<svg xmlns="http://www.w3.org/2000/svg" xmlns:xlink="http://www.w3.org/1999/xlink" width="40" zoomAndPan="magnify" viewBox="0 0 30 30.000001" height="40" preserveAspectRatio="xMidYMid meet" version="1.0"><defs><clipPath id="ff70b8ee8e"><path d="M 9.964844 3 L 20.125 3 L 20.125 26 L 9.964844 26 Z M 9.964844 3 " clip-rule="nonzero"/></clipPath></defs><g clip-path="url(#ff70b8ee8e)"><path fill="#014d4e" d="M 17.871094 4.960938 L 18.644531 5.21875 L 18.679688 5.402344 L 18.71875 5.808594 L 18.609375 6.507812 L 18.421875 7.058594 L 18.421875 7.316406 L 18.386719 7.5 L 18.421875 7.613281 L 18.421875 7.871094 L 18.277344 8.054688 L 18.164062 8.238281 L 18.054688 8.421875 L 18.019531 8.496094 L 17.945312 8.535156 L 17.832031 8.570312 L 17.871094 8.164062 L 17.832031 8.054688 L 17.6875 8.203125 L 17.648438 8.277344 L 17.648438 8.460938 L 17.613281 8.535156 L 17.578125 8.605469 L 17.464844 8.71875 L 17.429688 8.792969 L 17.390625 8.976562 L 17.390625 9.34375 L 17.355469 9.527344 L 17.316406 9.601562 L 17.207031 9.746094 L 17.171875 9.820312 L 17.207031 9.859375 L 17.246094 10.152344 L 17.320312 10.191406 L 17.246094 10.375 L 17.28125 10.558594 L 17.355469 10.667969 L 17.613281 10.667969 L 17.761719 10.742188 L 17.832031 10.742188 L 18.164062 10.59375 L 18.347656 10.59375 L 19.011719 10.667969 L 19.34375 10.78125 L 19.453125 10.707031 L 19.34375 10.59375 L 19.195312 10.410156 L 19.121094 10.226562 L 19.195312 10.152344 L 19.34375 10.265625 L 19.453125 10.484375 L 19.824219 11.699219 L 19.824219 11.921875 L 19.75 12.140625 L 19.710938 12.363281 L 19.785156 12.621094 L 19.710938 13.429688 L 19.640625 13.6875 L 19.785156 13.761719 L 19.894531 13.910156 L 19.933594 14.128906 L 19.894531 14.496094 L 19.933594 14.941406 L 19.933594 15.085938 L 19.96875 15.125 L 19.96875 15.453125 L 20.082031 16.449219 L 20.007812 16.671875 L 19.785156 15.125 L 19.824219 14.792969 L 19.859375 14.609375 L 19.824219 14.425781 L 19.75 14.203125 L 19.675781 14.054688 L 19.601562 13.980469 L 19.492188 14.128906 L 19.492188 14.203125 L 19.640625 14.167969 L 19.675781 14.238281 L 19.640625 14.386719 L 19.566406 14.496094 L 19.492188 14.570312 L 19.378906 14.609375 L 19.308594 14.679688 L 19.308594 14.828125 L 19.417969 14.753906 L 19.492188 14.902344 L 19.457031 15.125 L 19.34375 15.269531 L 19.601562 15.308594 L 19.675781 15.34375 L 19.566406 15.527344 L 19.527344 15.675781 L 19.527344 15.824219 L 19.566406 16.007812 L 19.566406 16.042969 L 19.492188 16.265625 L 19.457031 16.449219 L 19.417969 16.78125 L 19.417969 17.074219 L 19.566406 17.148438 L 19.675781 17.183594 L 19.675781 17.332031 L 19.601562 17.480469 L 19.566406 17.554688 L 19.527344 17.847656 L 19.453125 17.996094 L 19.304688 18.105469 L 19.269531 18.214844 L 19.234375 18.328125 L 19.085938 18.546875 L 19.011719 18.582031 L 18.9375 18.695312 L 18.902344 18.839844 L 18.863281 18.988281 L 18.976562 19.171875 L 19.121094 19.320312 L 19.121094 19.46875 L 19.011719 19.503906 L 18.976562 19.429688 L 18.9375 19.355469 L 18.902344 19.285156 L 18.570312 19.171875 L 18.496094 19.246094 L 18.386719 19.285156 L 18.3125 19.246094 L 18.238281 19.171875 L 18.3125 19.539062 L 18.386719 19.6875 L 18.496094 19.726562 L 18.570312 19.796875 L 18.570312 19.945312 L 18.535156 20.167969 L 18.421875 20.167969 L 18.347656 20.128906 L 18.273438 20.167969 L 18.164062 20.277344 L 18.128906 20.351562 L 18.128906 20.460938 L 18.09375 20.609375 L 18.128906 20.71875 L 18.238281 20.644531 L 18.386719 20.71875 L 18.496094 20.863281 L 18.605469 21.050781 L 18.421875 21.160156 L 18.054688 21.527344 L 17.871094 21.636719 L 17.871094 21.601562 L 17.90625 21.457031 L 17.945312 21.308594 L 18.089844 21.085938 L 17.871094 20.976562 L 17.648438 21.527344 L 17.722656 21.640625 L 17.722656 21.675781 L 17.28125 21.789062 L 17.097656 21.859375 L 16.988281 22.042969 L 17.246094 22.042969 L 17.320312 22.082031 L 17.429688 22.082031 L 17.796875 21.859375 L 17.796875 21.933594 L 17.613281 22.117188 L 17.429688 22.597656 L 17.28125 22.707031 L 17.246094 22.855469 L 17.0625 23.628906 L 16.949219 23.589844 L 16.878906 23.589844 L 16.839844 23.664062 L 16.765625 23.773438 L 16.804688 23.738281 L 16.804688 23.773438 L 16.839844 23.773438 L 16.839844 23.8125 L 16.914062 23.738281 L 16.988281 23.738281 L 17.023438 23.773438 L 17.0625 23.886719 L 17.023438 23.960938 L 16.914062 24.179688 L 16.878906 24.363281 L 16.839844 24.402344 L 16.765625 24.472656 L 16.621094 24.546875 L 16.621094 24.621094 L 16.691406 24.769531 L 16.617188 25.0625 L 16.433594 25.320312 L 16.175781 25.578125 L 15.808594 25.835938 L 15.734375 25.875 L 15.660156 25.875 L 15.550781 25.800781 L 15.550781 25.726562 L 15.589844 25.652344 L 15.589844 25.507812 L 15.550781 25.324219 L 15.515625 25.140625 L 15.550781 24.953125 L 15.734375 24.105469 L 15.699219 23.738281 L 15.476562 23.445312 L 15.367188 23.40625 L 15.21875 23.40625 L 14.960938 23.445312 L 14.886719 23.480469 L 14.777344 23.519531 L 14.703125 23.554688 L 14.632812 23.554688 L 14.632812 23.445312 L 14.558594 23.371094 L 14.445312 23.335938 L 14.335938 23.410156 L 14.117188 23.480469 L 14.003906 23.59375 L 13.96875 23.664062 L 13.894531 23.738281 L 13.785156 23.777344 L 13.785156 23.738281 L 13.636719 23.703125 L 13.5625 23.628906 L 13.5625 23.40625 L 13.453125 23.296875 L 13.15625 23.148438 L 13.046875 23.148438 L 12.972656 23.113281 L 12.863281 22.964844 L 12.824219 22.929688 L 12.53125 22.964844 L 12.421875 22.964844 L 12.308594 22.816406 L 12.238281 22.707031 L 12.125 22.632812 L 12.054688 22.632812 L 12.015625 22.667969 L 11.980469 22.707031 L 11.941406 22.707031 L 11.867188 22.667969 L 11.832031 22.632812 L 11.792969 22.597656 L 10.910156 21.96875 L 10.65625 21.859375 L 10.433594 21.714844 L 10.324219 21.417969 L 10.359375 21.457031 L 10.398438 21.492188 L 10.46875 21.527344 L 10.433594 21.34375 L 10.433594 20.902344 L 10.398438 20.792969 L 10.101562 20.570312 L 9.992188 20.5 L 9.992188 20.425781 L 10.101562 20.242188 L 10.214844 20.128906 L 10.25 20.058594 L 10.25 19.726562 L 10.324219 19.613281 L 10.324219 19.542969 L 10.359375 19.46875 L 10.433594 19.429688 L 10.433594 19.359375 L 10.398438 19.097656 L 10.507812 18.804688 L 10.691406 18.511719 L 10.914062 18.253906 L 11.28125 17.996094 L 11.539062 17.847656 L 11.722656 17.808594 L 11.835938 17.773438 L 12.054688 17.589844 L 12.203125 17.515625 L 12.203125 17.480469 L 12.242188 17.480469 L 12.242188 17.441406 L 12.386719 17.441406 L 12.460938 17.332031 L 12.535156 17.183594 L 12.644531 17.074219 L 12.496094 16.964844 L 12.421875 16.816406 L 12.421875 16.707031 L 12.535156 16.707031 L 12.609375 16.558594 L 12.683594 16.632812 L 12.867188 16.117188 L 12.9375 15.96875 L 13.160156 15.785156 L 13.234375 15.710938 L 13.453125 15.34375 L 13.527344 15.234375 L 13.785156 15.085938 L 13.859375 15.046875 L 14.042969 14.753906 L 14.078125 14.714844 L 14.261719 14.644531 L 14.484375 14.53125 L 14.667969 14.347656 L 14.707031 14.128906 L 14.59375 13.945312 L 14.375 13.796875 L 13.894531 13.574219 L 13.636719 13.355469 L 13.304688 13.0625 L 13.269531 13.023438 L 13.195312 12.949219 L 12.753906 12.695312 L 12.570312 12.363281 L 12.460938 12.214844 L 12.203125 12.398438 L 12.019531 12.324219 L 11.871094 12.140625 L 11.761719 11.996094 L 11.539062 11.296875 L 11.355469 11.074219 L 10.988281 11.039062 L 10.804688 11.148438 L 10.691406 11.109375 L 10.582031 10.890625 L 10.546875 10.78125 L 10.507812 10.707031 L 10.507812 10.59375 L 10.433594 10.300781 L 10.398438 10.226562 L 10.398438 10.152344 L 10.359375 10.042969 L 10.324219 9.933594 L 10.324219 9.820312 L 10.359375 9.527344 L 10.324219 9.527344 L 10.285156 9.453125 L 10.25 9.378906 L 10.285156 9.34375 L 10.324219 9.308594 L 10.359375 9.234375 L 10.398438 9.050781 L 10.546875 9.085938 L 10.65625 9.050781 L 10.765625 8.9375 L 10.765625 8.535156 L 10.839844 8.421875 L 10.914062 8.3125 L 10.949219 8.164062 L 10.875 7.980469 L 10.726562 7.832031 L 10.617188 7.761719 L 10.542969 7.6875 L 10.507812 7.613281 L 10.359375 7.613281 L 10.359375 7.539062 L 10.324219 7.503906 L 10.25 7.390625 L 10.140625 7.28125 L 10.175781 7.097656 L 10.324219 6.914062 L 10.433594 6.765625 L 10.542969 6.730469 L 10.691406 6.617188 L 10.800781 6.507812 L 10.984375 6.066406 L 11.023438 6.066406 L 11.023438 6.03125 L 10.988281 5.917969 L 11.023438 5.882812 L 11.058594 5.808594 L 11.242188 5.625 L 11.5 5.035156 L 11.574219 4.59375 L 11.574219 4.152344 L 11.871094 3.710938 L 11.871094 3.675781 L 11.90625 3.5625 L 11.90625 3.527344 L 11.941406 3.488281 L 12.015625 3.488281 L 12.089844 3.378906 L 12.164062 3.34375 L 12.3125 3.269531 L 12.421875 3.160156 L 15.515625 4.191406 L 16.324219 4.449219 L 17.097656 4.707031 Z M 17.871094 4.960938 " fill-opacity="1" fill-rule="nonzero"/></g></svg>