<svg xmlns="http://www.w3.org/2000/svg" xmlns:xlink="http://www.w3.org/1999/xlink" width="40" zoomAndPan="magnify" viewBox="0 0 30 30.000001" height="40" preserveAspectRatio="xMidYMid meet" version="1.0"><defs><clipPath id="f68b9b2cab"><path d="M 3.386719 10 L 26.613281 10 L 26.613281 18.695312 L 3.386719 18.695312 Z M 3.386719 10 " clip-rule="nonzero"/></clipPath></defs><g clip-path="url(#f68b9b2cab)"><path fill="#014d4e" d="M 5.640625 13.222656 C 5.628906 13.261719 5.609375 13.296875 5.585938 13.328125 C 5.570312 13.355469 5.484375 13.492188 5.460938 13.5 C 5.429688 13.519531 5.351562 13.476562 5.3125 13.472656 C 5.265625 13.464844 5.132812 13.445312 5.089844 13.480469 C 5.039062 13.523438 5.066406 13.601562 5.003906 13.621094 C 4.949219 13.644531 4.871094 13.566406 4.816406 13.578125 C 4.726562 13.589844 4.773438 13.636719 4.6875 13.601562 C 4.605469 13.566406 4.535156 13.46875 4.476562 13.414062 C 4.441406 13.382812 4.328125 13.265625 4.273438 13.289062 C 4.207031 13.308594 4.25 13.367188 4.25 13.421875 C 4.152344 13.441406 4.113281 13.328125 4.023438 13.300781 C 3.964844 13.28125 3.894531 13.300781 3.832031 13.277344 C 3.722656 13.238281 3.78125 13.148438 3.691406 13.105469 C 3.628906 13.074219 3.5 13.148438 3.429688 13.132812 C 3.386719 13.070312 3.4375 12.917969 3.449219 12.859375 C 3.46875 12.777344 3.472656 12.808594 3.519531 12.75 C 3.53125 12.726562 3.550781 12.734375 3.5625 12.707031 C 3.578125 12.679688 3.546875 12.652344 3.554688 12.636719 C 3.585938 12.546875 3.671875 12.5 3.6875 12.382812 C 3.695312 12.296875 3.679688 12.195312 3.730469 12.125 C 3.648438 12.082031 3.640625 12.066406 3.660156 11.988281 C 3.675781 11.917969 3.722656 11.960938 3.671875 11.867188 C 3.644531 11.820312 3.578125 11.792969 3.628906 11.726562 C 3.667969 11.675781 3.707031 11.699219 3.757812 11.730469 C 3.828125 11.777344 3.894531 11.917969 3.953125 11.804688 C 3.964844 11.78125 3.9375 11.742188 3.945312 11.722656 C 3.949219 11.699219 3.972656 11.695312 3.976562 11.671875 C 3.988281 11.609375 3.953125 11.582031 3.953125 11.519531 C 3.953125 11.378906 4.09375 11.453125 4.164062 11.492188 C 4.210938 11.507812 4.320312 11.550781 4.398438 11.582031 C 4.410156 11.445312 4.476562 11.226562 4.582031 11.28125 C 4.636719 11.210938 4.660156 11.128906 4.714844 11.054688 C 4.777344 10.972656 4.753906 11.007812 4.84375 10.984375 C 4.894531 10.96875 4.921875 11 4.949219 10.9375 C 4.949219 10.640625 5.125 10.835938 5.285156 10.789062 C 5.359375 10.765625 5.386719 10.683594 5.472656 10.765625 C 5.527344 10.820312 5.546875 10.980469 5.570312 11.050781 C 5.703125 10.957031 5.644531 10.824219 5.609375 10.699219 C 5.695312 10.671875 5.742188 10.703125 5.824219 10.722656 C 5.894531 10.734375 5.96875 10.730469 6.039062 10.738281 C 6.148438 10.914062 6.238281 10.761719 6.402344 10.761719 C 6.53125 10.761719 6.683594 10.839844 6.808594 10.8125 C 6.945312 10.785156 7.089844 10.710938 7.226562 10.726562 C 7.335938 10.738281 7.429688 10.828125 7.535156 10.851562 C 7.640625 10.875 7.710938 10.800781 7.804688 10.808594 C 7.824219 10.824219 7.804688 10.8125 7.804688 10.820312 C 7.847656 10.839844 7.890625 10.863281 7.933594 10.878906 C 7.945312 10.800781 7.957031 10.730469 7.976562 10.652344 C 8.066406 10.609375 8.171875 10.671875 8.242188 10.609375 C 8.183594 10.527344 8.085938 10.4375 8.167969 10.339844 C 8.195312 10.304688 8.269531 10.285156 8.308594 10.265625 C 8.367188 10.226562 8.378906 10.210938 8.425781 10.160156 C 8.519531 10.050781 8.59375 10.003906 8.726562 10.003906 C 8.847656 10.003906 8.964844 9.988281 9.082031 10.019531 C 9.191406 10.050781 9.277344 10.1875 9.394531 10.164062 C 9.515625 10.140625 9.570312 10.054688 9.714844 10.058594 C 9.890625 10.070312 9.996094 10.113281 10.140625 10.203125 C 10.261719 10.28125 10.367188 10.355469 10.515625 10.371094 C 10.601562 10.382812 10.660156 10.351562 10.742188 10.332031 C 10.859375 10.308594 10.902344 10.351562 11 10.398438 C 11.078125 10.441406 11.167969 10.464844 11.246094 10.507812 C 11.277344 10.527344 11.316406 10.542969 11.355469 10.5625 C 11.40625 10.535156 11.46875 10.515625 11.527344 10.5 C 11.527344 10.5 11.519531 10.53125 11.519531 10.53125 C 11.601562 10.53125 11.5625 10.410156 11.683594 10.417969 C 11.769531 10.425781 11.824219 10.511719 11.910156 10.523438 C 12.050781 10.382812 12.132812 10.34375 12.304688 10.488281 C 12.410156 10.402344 12.382812 10.398438 12.507812 10.453125 C 12.570312 10.480469 12.671875 10.511719 12.738281 10.523438 C 12.90625 10.542969 13.039062 10.539062 13.191406 10.613281 C 13.191406 10.59375 13.210938 10.566406 13.210938 10.550781 C 13.410156 10.511719 13.566406 10.699219 13.769531 10.683594 C 13.777344 10.582031 13.980469 10.65625 14.042969 10.679688 C 14.121094 10.703125 14.207031 10.78125 14.292969 10.738281 C 14.367188 10.703125 14.335938 10.652344 14.4375 10.648438 C 14.507812 10.644531 14.667969 10.652344 14.730469 10.675781 C 14.820312 10.707031 14.84375 10.765625 14.957031 10.726562 C 15.019531 10.703125 15.050781 10.636719 15.132812 10.648438 C 15.214844 10.664062 15.324219 10.761719 15.40625 10.792969 C 15.503906 10.828125 15.601562 10.855469 15.699219 10.882812 C 15.800781 10.910156 15.917969 10.988281 16.019531 10.996094 C 16.101562 11.007812 16.164062 10.933594 16.246094 10.953125 C 16.332031 10.96875 16.433594 11.074219 16.527344 11.113281 C 16.621094 11.15625 16.691406 11.246094 16.78125 11.277344 C 16.890625 11.320312 16.898438 11.238281 16.964844 11.210938 C 17.03125 11.1875 17.039062 11.21875 17.101562 11.242188 C 17.160156 11.257812 17.210938 11.265625 17.273438 11.265625 C 17.289062 11.265625 17.375 11.273438 17.382812 11.273438 C 17.429688 11.253906 17.414062 11.199219 17.457031 11.179688 C 17.515625 11.148438 17.742188 11.238281 17.804688 11.265625 C 17.847656 11.28125 17.890625 11.332031 17.933594 11.347656 C 17.988281 11.355469 18.070312 11.308594 18.121094 11.304688 C 18.285156 11.285156 18.417969 11.363281 18.554688 11.417969 C 18.605469 11.378906 18.65625 11.332031 18.703125 11.292969 C 18.699219 11.207031 18.777344 11.246094 18.824219 11.292969 C 18.910156 11.378906 18.863281 11.339844 18.96875 11.351562 C 19.078125 11.359375 19.058594 11.4375 19.085938 11.535156 C 19.113281 11.625 19.15625 11.710938 19.238281 11.761719 C 19.214844 11.554688 19.464844 11.894531 19.492188 11.925781 C 19.496094 11.890625 19.511719 11.855469 19.523438 11.824219 C 19.648438 11.941406 19.699219 12.101562 19.871094 12.164062 C 19.890625 12.140625 19.914062 12.136719 19.933594 12.128906 C 19.984375 12.277344 20.058594 12.402344 20.148438 12.527344 C 20.191406 12.585938 20.238281 12.652344 20.25 12.726562 C 20.253906 12.75 20.222656 12.777344 20.226562 12.8125 C 20.230469 12.839844 20.257812 12.875 20.269531 12.894531 C 20.289062 12.8125 20.269531 12.796875 20.351562 12.796875 C 20.402344 12.796875 20.46875 12.820312 20.515625 12.820312 C 20.574219 12.824219 20.625 12.820312 20.679688 12.808594 C 20.765625 12.785156 20.738281 12.765625 20.820312 12.8125 C 20.859375 12.835938 20.921875 12.90625 20.964844 12.917969 C 21.035156 12.929688 21.050781 12.882812 21.121094 12.851562 C 21.253906 12.804688 21.324219 12.945312 21.425781 13.023438 C 21.503906 13.089844 21.589844 13.121094 21.675781 13.164062 C 21.734375 13.195312 21.859375 13.214844 21.886719 13.28125 C 21.945312 13.207031 22.003906 13.234375 22.082031 13.265625 C 22.113281 13.277344 22.199219 13.332031 22.226562 13.335938 C 22.265625 13.34375 22.289062 13.292969 22.320312 13.296875 C 22.375 13.308594 22.828125 13.773438 22.835938 13.523438 C 22.960938 13.488281 23.035156 13.640625 23.128906 13.691406 C 23.171875 13.519531 23.257812 13.621094 23.363281 13.699219 C 23.480469 13.519531 23.558594 13.761719 23.625 13.835938 C 23.671875 13.878906 23.753906 13.921875 23.804688 13.957031 C 23.804688 13.957031 23.804688 13.957031 23.8125 13.960938 C 23.796875 13.917969 23.789062 13.875 23.789062 13.832031 C 23.785156 13.632812 23.890625 13.816406 23.988281 13.859375 C 23.976562 13.828125 23.988281 13.792969 23.988281 13.773438 C 24.039062 13.804688 24.097656 13.789062 24.160156 13.828125 C 24.230469 13.863281 24.296875 13.953125 24.367188 13.972656 C 24.359375 13.957031 24.359375 13.925781 24.351562 13.90625 C 24.457031 13.875 24.570312 13.867188 24.675781 13.925781 C 24.761719 13.976562 24.785156 14.058594 24.851562 14.128906 C 24.886719 14.121094 24.921875 14.105469 24.945312 14.089844 C 25 14.148438 24.957031 14.242188 25.019531 14.296875 C 25.070312 14.265625 25.144531 14.382812 25.15625 14.4375 C 25.160156 14.484375 25.105469 14.511719 25.117188 14.558594 C 25.128906 14.589844 25.199219 14.632812 25.222656 14.664062 C 25.238281 14.6875 25.230469 14.726562 25.246094 14.753906 C 25.257812 14.777344 25.304688 14.789062 25.324219 14.808594 C 25.398438 14.886719 25.441406 14.980469 25.5 15.066406 C 25.570312 15.175781 25.652344 15.246094 25.699219 15.375 C 25.664062 15.371094 25.628906 15.367188 25.597656 15.355469 C 25.585938 15.445312 25.664062 15.484375 25.707031 15.542969 C 25.777344 15.632812 25.824219 15.738281 25.898438 15.832031 C 25.953125 15.902344 26.136719 16.09375 26.101562 16.183594 C 26.074219 16.179688 26.039062 16.195312 26.007812 16.203125 C 26.035156 16.269531 26.035156 16.382812 26.09375 16.429688 C 26.132812 16.460938 26.234375 16.453125 26.292969 16.484375 C 26.460938 16.570312 26.5625 16.691406 26.613281 16.871094 C 26.5625 16.90625 26.511719 16.925781 26.46875 16.96875 C 26.410156 16.90625 26.359375 16.757812 26.253906 16.828125 C 26.210938 16.859375 26.09375 17.058594 26 16.992188 C 25.953125 17.011719 25.921875 17.03125 25.882812 17.0625 C 25.847656 17.089844 25.851562 17.144531 25.792969 17.148438 C 25.75 17.152344 25.734375 17.109375 25.695312 17.089844 C 25.652344 17.078125 25.609375 17.09375 25.566406 17.070312 C 25.472656 17.152344 25.457031 17.242188 25.335938 17.292969 C 25.152344 17.367188 25.230469 17.25 25.105469 17.183594 C 25.144531 17.121094 25.355469 17.035156 25.257812 16.941406 C 25.191406 17.003906 25.085938 16.964844 25.019531 17.023438 C 24.957031 17.082031 24.992188 17.136719 24.984375 17.203125 C 24.964844 17.34375 24.914062 17.289062 24.828125 17.234375 C 24.757812 17.191406 24.722656 17.222656 24.652344 17.191406 C 24.613281 17.230469 24.554688 17.257812 24.496094 17.257812 C 24.445312 17.171875 24.421875 17.183594 24.339844 17.164062 C 24.316406 17.15625 24.257812 17.125 24.242188 17.125 C 24.191406 17.125 24.195312 17.152344 24.160156 17.152344 C 23.996094 17.171875 23.957031 16.996094 23.84375 16.910156 C 23.769531 17.058594 23.996094 17.109375 23.792969 17.195312 C 23.746094 17.210938 23.679688 17.28125 23.644531 17.289062 C 23.613281 17.292969 23.574219 17.253906 23.542969 17.25 C 23.511719 17.25 23.492188 17.265625 23.460938 17.269531 C 23.363281 17.289062 23.21875 17.289062 23.136719 17.328125 C 23.03125 17.382812 23.023438 17.554688 22.890625 17.476562 C 22.855469 17.453125 22.734375 17.316406 22.730469 17.300781 C 22.679688 17.265625 22.625 17.234375 22.574219 17.199219 C 22.550781 17.199219 22.53125 17.203125 22.515625 17.203125 C 22.414062 17.226562 22.273438 17.289062 22.164062 17.265625 C 21.96875 17.226562 21.949219 16.976562 21.894531 16.816406 C 21.824219 16.84375 21.730469 16.792969 21.660156 16.765625 C 21.621094 16.75 21.609375 16.78125 21.578125 16.746094 C 21.558594 16.71875 21.570312 16.664062 21.550781 16.632812 C 21.507812 16.558594 21.398438 16.492188 21.320312 16.480469 C 21.289062 16.472656 21.207031 16.460938 21.175781 16.46875 C 21.132812 16.484375 21.105469 16.53125 21.0625 16.542969 C 20.996094 16.554688 20.898438 16.484375 20.890625 16.414062 C 20.878906 16.351562 20.96875 16.328125 20.878906 16.269531 C 20.859375 16.257812 20.792969 16.265625 20.765625 16.253906 C 20.734375 16.238281 20.707031 16.210938 20.675781 16.199219 C 20.613281 16.171875 20.542969 16.171875 20.488281 16.128906 C 20.421875 16.242188 20.320312 16.261719 20.234375 16.1875 C 20.191406 16.152344 20.171875 16.089844 20.105469 16.074219 C 20.058594 16.066406 20.003906 16.101562 19.957031 16.101562 C 19.792969 16.101562 19.890625 15.976562 19.796875 15.910156 C 19.707031 15.84375 19.511719 15.910156 19.472656 16.007812 C 19.429688 15.945312 19.410156 15.859375 19.375 15.796875 C 19.320312 15.890625 19.398438 16.234375 19.25 16.238281 C 19.238281 16.328125 19.210938 16.40625 19.265625 16.492188 C 19.210938 16.597656 19.175781 16.628906 19.097656 16.714844 C 19.054688 16.757812 18.976562 16.851562 18.964844 16.914062 C 18.945312 16.984375 18.996094 17.054688 19 17.125 C 19.003906 17.226562 18.964844 17.277344 18.894531 17.339844 C 18.835938 17.390625 18.785156 17.460938 18.71875 17.464844 C 18.65625 17.46875 18.613281 17.40625 18.546875 17.457031 C 18.488281 17.496094 18.496094 17.585938 18.40625 17.601562 C 18.34375 17.609375 18.28125 17.566406 18.230469 17.527344 C 18.167969 17.484375 18.160156 17.457031 18.085938 17.476562 C 18.03125 17.488281 17.988281 17.546875 17.949219 17.527344 C 17.894531 17.476562 17.835938 17.414062 17.78125 17.363281 C 17.703125 17.421875 17.605469 17.457031 17.527344 17.515625 C 17.519531 17.480469 17.5 17.441406 17.5 17.40625 C 17.496094 17.324219 17.546875 17.316406 17.574219 17.261719 C 17.625 17.152344 17.539062 17.175781 17.515625 17.078125 C 17.488281 16.96875 17.570312 16.929688 17.433594 16.871094 C 17.351562 16.835938 17.289062 16.839844 17.207031 16.851562 C 17.207031 16.742188 17.183594 16.636719 17.183594 16.523438 C 17.085938 16.632812 17.117188 16.804688 17.054688 16.921875 C 17.011719 16.839844 16.984375 16.867188 16.90625 16.871094 C 16.847656 16.871094 16.777344 16.851562 16.722656 16.878906 C 16.664062 16.910156 16.667969 16.96875 16.605469 17.003906 C 16.578125 17.015625 16.53125 17.011719 16.492188 17.027344 C 16.457031 17.039062 16.394531 17.023438 16.378906 17.070312 C 16.355469 17.121094 16.40625 17.125 16.402344 17.171875 C 16.394531 17.230469 16.375 17.226562 16.355469 17.269531 C 16.328125 17.347656 16.335938 17.394531 16.269531 17.441406 C 16.238281 17.46875 16.191406 17.453125 16.160156 17.492188 C 16.179688 17.527344 16.203125 17.570312 16.222656 17.601562 C 16.128906 17.683594 16.371094 17.851562 16.414062 17.898438 C 16.300781 17.96875 16.097656 17.832031 15.988281 17.796875 C 16.023438 17.890625 16.050781 17.945312 16.046875 18.050781 C 16.019531 18.039062 16.003906 18.054688 15.976562 18.027344 C 15.960938 18.109375 16.019531 18.191406 16.015625 18.269531 C 15.863281 18.296875 15.777344 18.085938 15.59375 18.140625 C 15.667969 18.179688 15.644531 18.25 15.695312 18.308594 C 15.726562 18.347656 15.832031 18.382812 15.875 18.40625 C 15.929688 18.433594 16.042969 18.492188 16.105469 18.488281 C 16.171875 18.484375 16.203125 18.445312 16.257812 18.429688 C 16.289062 18.425781 16.375 18.433594 16.402344 18.453125 C 16.460938 18.496094 16.410156 18.480469 16.433594 18.535156 C 16.449219 18.578125 16.449219 18.617188 16.496094 18.648438 C 16.53125 18.667969 16.582031 18.625 16.613281 18.683594 C 16.679688 18.816406 16.402344 19.035156 16.289062 19.03125 C 16.222656 19.027344 16.175781 18.992188 16.109375 18.976562 C 16.042969 18.96875 15.988281 18.988281 15.921875 18.976562 C 15.785156 18.960938 15.738281 18.910156 15.667969 18.808594 C 15.609375 18.730469 15.574219 18.703125 15.464844 18.683594 C 15.390625 18.667969 15.203125 18.691406 15.210938 18.582031 C 15.242188 18.570312 15.269531 18.546875 15.296875 18.519531 C 15.242188 18.449219 15.136719 18.367188 15.0625 18.332031 C 14.996094 18.304688 15.003906 18.324219 14.953125 18.253906 C 14.902344 18.179688 14.851562 18.136719 14.792969 18.070312 C 14.695312 17.972656 14.59375 17.847656 14.476562 17.796875 C 14.417969 17.769531 14.375 17.792969 14.320312 17.773438 C 14.277344 17.761719 14.226562 17.707031 14.191406 17.675781 C 14.101562 17.601562 14 17.527344 13.921875 17.4375 C 13.898438 17.410156 13.84375 17.320312 13.8125 17.3125 C 13.75 17.300781 13.761719 17.375 13.722656 17.394531 C 13.65625 17.425781 13.527344 17.335938 13.46875 17.300781 C 13.40625 17.265625 13.417969 17.238281 13.355469 17.261719 C 13.304688 17.28125 13.292969 17.335938 13.246094 17.347656 C 13.164062 17.367188 13.046875 17.269531 12.96875 17.265625 C 12.875 17.261719 12.820312 17.328125 12.796875 17.421875 C 12.648438 17.40625 12.289062 17.5 12.238281 17.308594 C 12.1875 17.265625 12.136719 17.222656 12.085938 17.179688 C 12.050781 17.195312 12.011719 17.207031 11.972656 17.210938 C 11.914062 17.214844 11.855469 17.191406 11.800781 17.210938 C 11.753906 17.234375 11.753906 17.285156 11.691406 17.296875 C 11.625 17.3125 11.574219 17.261719 11.519531 17.242188 C 11.355469 17.195312 11.429688 17.347656 11.273438 17.324219 C 11.191406 17.316406 11.117188 17.28125 11.03125 17.277344 C 10.972656 17.269531 10.914062 17.269531 10.859375 17.253906 C 10.902344 17.457031 10.511719 17.253906 10.394531 17.269531 C 10.242188 17.296875 10.203125 17.488281 10.074219 17.351562 C 9.988281 17.261719 9.835938 17.148438 9.78125 17.023438 C 9.761719 16.964844 9.792969 16.882812 9.695312 16.898438 C 9.621094 16.914062 9.65625 17 9.5625 16.941406 C 9.453125 16.878906 9.503906 16.578125 9.359375 16.644531 C 9.289062 16.53125 9.1875 16.511719 9.089844 16.429688 C 9.101562 16.398438 9.101562 16.359375 9.101562 16.335938 C 8.949219 16.351562 8.980469 16.3125 8.996094 16.1875 C 9.003906 16.097656 9 16.007812 9.039062 15.929688 C 9.164062 15.714844 9.394531 15.558594 9.417969 15.273438 C 9.335938 15.34375 9.289062 15.457031 9.222656 15.523438 C 9.152344 15.589844 9.09375 15.667969 9.027344 15.742188 C 9.011719 15.65625 9.035156 15.585938 8.933594 15.582031 C 8.953125 15.476562 9.179688 15.347656 9.066406 15.21875 C 8.960938 15.269531 8.878906 15.429688 8.792969 15.519531 C 8.734375 15.457031 8.734375 15.367188 8.648438 15.316406 C 8.601562 15.355469 8.625 15.40625 8.582031 15.433594 C 8.519531 15.484375 8.515625 15.453125 8.464844 15.414062 C 8.429688 15.386719 8.375 15.296875 8.324219 15.320312 C 8.28125 15.339844 8.304688 15.425781 8.277344 15.457031 C 8.152344 15.625 7.996094 15.246094 7.886719 15.246094 C 7.878906 15.21875 7.867188 15.191406 7.859375 15.167969 C 7.808594 15.144531 7.761719 15.121094 7.726562 15.085938 C 7.671875 15.027344 7.65625 14.898438 7.632812 14.820312 C 7.542969 14.828125 7.421875 14.71875 7.378906 14.644531 C 7.3125 14.527344 7.3125 14.496094 7.179688 14.460938 C 7.054688 14.421875 7.042969 14.410156 7.042969 14.289062 C 7.042969 14.160156 6.992188 14.148438 6.957031 14.042969 C 6.9375 13.957031 6.96875 13.878906 6.941406 13.800781 C 6.917969 13.734375 6.859375 13.679688 6.8125 13.644531 C 6.75 13.589844 6.726562 13.554688 6.691406 13.472656 C 6.636719 13.351562 6.636719 13.382812 6.523438 13.421875 C 6.496094 13.433594 6.417969 13.460938 6.394531 13.445312 C 6.347656 13.417969 6.394531 13.375 6.359375 13.347656 C 6.28125 13.261719 6.261719 13.390625 6.175781 13.410156 C 6.132812 13.359375 6.097656 13.289062 6.035156 13.269531 C 6 13.351562 5.988281 13.402344 5.902344 13.421875 C 5.816406 13.445312 5.738281 13.386719 5.664062 13.429688 C 5.664062 13.410156 5.667969 13.382812 5.667969 13.378906 C 5.671875 13.347656 5.660156 13.28125 5.640625 13.222656 Z M 5.640625 13.222656 " fill-opacity="1" fill-rule="nonzero"/></g></svg>