<svg xmlns="http://www.w3.org/2000/svg" xmlns:xlink="http://www.w3.org/1999/xlink" width="40" zoomAndPan="magnify" viewBox="0 0 30 30.000001" height="40" preserveAspectRatio="xMidYMid meet" version="1.0"><defs><clipPath id="6ac59801d9"><path d="M 3.386719 3.28125 L 26.613281 3.28125 L 26.613281 25.78125 L 3.386719 25.78125 Z M 3.386719 3.28125 " clip-rule="nonzero"/></clipPath></defs><g clip-path="url(#6ac59801d9)"><path fill="#014d4e" d="M 14.175781 13.410156 C 14.675781 13.875 15.164062 14.332031 15.65625 14.789062 C 16.417969 15.492188 17.171875 16.195312 17.890625 16.945312 C 18.414062 17.496094 18.960938 18.03125 19.496094 18.570312 C 19.621094 18.695312 19.621094 18.699219 19.460938 18.777344 C 18.972656 19.011719 18.488281 19.25 18.003906 19.484375 C 17.867188 19.550781 17.773438 19.648438 17.707031 19.785156 C 17.496094 20.242188 17.273438 20.691406 17.066406 21.148438 C 16.988281 21.324219 16.875 21.410156 16.6875 21.441406 C 15.496094 21.652344 14.308594 21.867188 13.121094 22.082031 C 12.933594 22.113281 12.808594 22.226562 12.707031 22.375 C 12.351562 22.902344 11.996094 23.425781 11.640625 23.953125 C 11.585938 24.035156 11.519531 24.101562 11.441406 24.160156 C 10.78125 24.636719 10.121094 25.109375 9.460938 25.589844 C 9.324219 25.691406 9.175781 25.722656 9.003906 25.695312 C 7.90625 25.527344 6.804688 25.363281 5.699219 25.195312 C 4.960938 25.085938 4.222656 24.972656 3.480469 24.859375 C 3.421875 24.851562 3.386719 24.847656 3.421875 24.761719 C 3.457031 24.671875 3.457031 24.566406 3.457031 24.46875 C 3.457031 24.308594 3.496094 24.160156 3.574219 24.019531 C 3.648438 23.890625 3.625 23.828125 3.484375 23.769531 C 3.414062 23.742188 3.398438 23.699219 3.410156 23.632812 C 3.421875 23.582031 3.421875 23.523438 3.449219 23.488281 C 3.566406 23.324219 3.589844 23.136719 3.609375 22.945312 C 3.632812 22.746094 3.734375 22.574219 3.816406 22.394531 C 3.886719 22.234375 3.914062 22.066406 3.925781 21.890625 C 3.945312 21.574219 4.015625 21.265625 4.222656 21.015625 C 4.398438 20.800781 4.464844 20.582031 4.339844 20.320312 C 4.285156 20.203125 4.296875 20.082031 4.335938 19.960938 C 4.382812 19.804688 4.394531 19.644531 4.480469 19.5 C 4.519531 19.433594 4.488281 19.359375 4.445312 19.296875 C 4.367188 19.195312 4.363281 19.085938 4.417969 18.972656 C 4.492188 18.824219 4.519531 18.660156 4.574219 18.5 C 4.675781 18.195312 4.800781 17.90625 4.972656 17.632812 C 5.023438 17.554688 5.066406 17.46875 5.082031 17.378906 C 5.109375 17.230469 5.152344 17.101562 5.28125 17.007812 C 5.347656 16.960938 5.351562 16.871094 5.347656 16.792969 C 5.332031 16.613281 5.398438 16.472656 5.550781 16.367188 C 5.644531 16.304688 5.695312 16.214844 5.691406 16.089844 C 5.6875 15.917969 5.773438 15.777344 5.871094 15.644531 C 6.023438 15.433594 6.027344 15.234375 5.882812 15.011719 C 5.757812 14.824219 5.699219 14.625 5.867188 14.421875 C 5.878906 14.40625 5.890625 14.378906 5.886719 14.363281 C 5.839844 14.222656 5.933594 14.117188 5.992188 14.011719 C 6.097656 13.820312 6.074219 13.613281 6.085938 13.414062 C 6.097656 13.234375 6.113281 13.058594 6.136719 12.878906 C 6.171875 12.59375 6.320312 12.351562 6.445312 12.101562 C 6.453125 12.082031 6.464844 12.058594 6.484375 12.050781 C 6.636719 11.957031 6.613281 11.835938 6.542969 11.707031 C 6.515625 11.65625 6.515625 11.605469 6.535156 11.546875 C 6.578125 11.4375 6.503906 11.34375 6.480469 11.242188 C 6.460938 11.15625 6.410156 11.070312 6.523438 11.007812 C 6.558594 10.984375 6.535156 10.945312 6.53125 10.914062 C 6.511719 10.753906 6.421875 10.609375 6.425781 10.441406 C 6.429688 10.371094 6.449219 10.304688 6.480469 10.238281 C 6.527344 10.140625 6.511719 10.023438 6.566406 9.921875 C 6.621094 9.820312 6.597656 9.699219 6.640625 9.597656 C 6.6875 9.488281 6.660156 9.378906 6.65625 9.269531 C 6.652344 9.09375 6.601562 8.917969 6.609375 8.746094 C 6.617188 8.625 6.546875 8.515625 6.589844 8.394531 C 6.601562 8.363281 6.605469 8.332031 6.621094 8.300781 C 6.648438 8.257812 6.691406 8.210938 6.644531 8.152344 C 6.636719 8.144531 6.632812 8.125 6.640625 8.117188 C 6.726562 8.027344 6.710938 7.957031 6.613281 7.882812 C 6.59375 7.871094 6.621094 7.757812 6.660156 7.71875 C 6.722656 7.65625 6.710938 7.589844 6.695312 7.519531 C 6.679688 7.445312 6.660156 7.375 6.640625 7.300781 C 6.636719 7.28125 6.632812 7.246094 6.640625 7.242188 C 6.746094 7.167969 6.804688 7.019531 6.953125 7.019531 C 7.054688 7.019531 7.132812 6.980469 7.207031 6.921875 C 7.351562 6.816406 7.503906 6.722656 7.679688 6.671875 C 7.71875 6.660156 7.765625 6.644531 7.800781 6.667969 C 7.953125 6.78125 8.132812 6.777344 8.300781 6.804688 C 8.441406 6.828125 8.542969 6.929688 8.675781 6.960938 C 8.695312 6.964844 8.707031 6.988281 8.707031 7.007812 C 8.703125 7.136719 8.785156 7.15625 8.886719 7.148438 C 9 7.136719 9.058594 7.175781 9.042969 7.296875 C 9.027344 7.394531 9.066406 7.472656 9.125 7.542969 C 9.183594 7.617188 9.253906 7.683594 9.292969 7.765625 C 9.355469 7.894531 9.457031 7.910156 9.570312 7.886719 C 9.6875 7.859375 9.8125 7.914062 9.929688 7.847656 C 9.972656 7.824219 10.015625 7.875 10.054688 7.902344 C 10.363281 8.132812 10.703125 8.320312 10.992188 8.582031 C 11.042969 8.625 11.109375 8.640625 11.171875 8.648438 C 11.574219 8.707031 11.972656 8.78125 12.378906 8.808594 C 12.402344 8.808594 12.429688 8.804688 12.441406 8.816406 C 12.648438 8.972656 12.902344 8.867188 13.121094 8.949219 C 13.226562 8.988281 13.335938 8.984375 13.441406 8.921875 C 14.703125 8.175781 16 7.5 17.289062 6.800781 C 19.398438 5.648438 21.519531 4.515625 23.65625 3.410156 C 23.84375 3.3125 23.84375 3.3125 23.90625 3.511719 C 24.375 4.960938 24.84375 6.410156 25.3125 7.859375 C 25.363281 8.019531 25.363281 8.015625 25.199219 8.066406 C 24.917969 8.148438 24.929688 8.089844 25.03125 8.390625 C 25.082031 8.542969 25.136719 8.695312 25.183594 8.847656 C 25.21875 8.972656 25.28125 9.007812 25.410156 8.976562 C 25.664062 8.90625 25.921875 8.851562 26.179688 8.792969 C 26.347656 8.753906 26.394531 8.777344 26.472656 8.933594 C 26.527344 9.050781 26.554688 9.175781 26.59375 9.296875 C 26.609375 9.339844 26.601562 9.378906 26.574219 9.417969 C 26.519531 9.480469 26.472656 9.542969 26.40625 9.589844 C 25.960938 9.90625 25.53125 10.238281 25.109375 10.582031 C 25 10.675781 24.859375 10.707031 24.722656 10.742188 C 22.832031 11.210938 20.941406 11.671875 19.050781 12.144531 C 17.46875 12.542969 15.886719 12.957031 14.304688 13.359375 C 14.269531 13.367188 14.222656 13.367188 14.175781 13.410156 Z M 14.175781 13.410156 " fill-opacity="1" fill-rule="nonzero"/></g></svg>