<svg xmlns="http://www.w3.org/2000/svg" xmlns:xlink="http://www.w3.org/1999/xlink" width="40" zoomAndPan="magnify" viewBox="0 0 30 30.000001" height="40" preserveAspectRatio="xMidYMid meet" version="1.0"><defs><clipPath id="151e7d36fb"><path d="M 18 2.902344 L 25.609375 2.902344 L 25.609375 10 L 18 10 Z M 18 2.902344 " clip-rule="nonzero"/></clipPath><clipPath id="26eb7618f7"><path d="M 4.5625 9 L 22 9 L 22 26.128906 L 4.5625 26.128906 Z M 4.5625 9 " clip-rule="nonzero"/></clipPath></defs><g clip-path="url(#151e7d36fb)"><path fill="#014d4e" d="M 25.0625 6.207031 L 25.03125 6.027344 L 24.699219 5.503906 L 25.03125 4.746094 L 24.9375 4.570312 L 24.390625 5.285156 L 23.730469 5.269531 L 23.570312 4.941406 L 22.820312 4.941406 L 22.417969 4.59375 L 22.257812 4.59375 L 21.683594 4.003906 L 21.597656 3.777344 L 20.773438 2.933594 L 20.613281 3.152344 L 20.476562 3.152344 L 20.34375 3.472656 L 20.597656 3.863281 L 20.699219 4.621094 L 20.621094 4.761719 L 20.539062 5.589844 L 20.21875 5.84375 L 20.285156 6.0625 L 20.285156 6.632812 L 19.972656 6.746094 L 19.769531 6.660156 L 19.550781 6.691406 L 19.128906 6.40625 L 18.976562 6.601562 L 19.246094 6.855469 L 19.257812 7.082031 L 19.046875 7.207031 L 19.027344 7.460938 L 18.9375 7.386719 L 18.824219 7.496094 L 18.523438 7.585938 L 18.496094 8.015625 L 18.421875 8.195312 L 18.371094 8.378906 L 18.515625 8.378906 L 18.589844 8.496094 L 18.726562 8.496094 L 18.867188 8.65625 L 18.910156 8.886719 L 18.726562 9.339844 L 18.828125 9.484375 L 19.273438 9.425781 L 19.222656 9.195312 L 19.464844 9.054688 L 19.507812 8.886719 L 19.804688 8.933594 L 20.066406 9.054688 L 20.359375 8.917969 L 19.886719 8.707031 L 19.636719 8.371094 L 19.390625 8.457031 L 19.246094 8.277344 L 19.070312 8.296875 L 19.027344 8.117188 L 19.28125 7.703125 L 19.40625 7.753906 L 19.5 7.679688 L 19.863281 8 L 20.054688 7.941406 L 20.160156 7.789062 L 20.546875 7.535156 L 21.035156 7.621094 L 21.234375 7.832031 L 21.394531 7.8125 L 21.675781 7.941406 L 21.898438 8.160156 L 22.476562 8.347656 L 22.777344 8.496094 L 22.804688 7.875 L 23.359375 7.0625 L 23.847656 6.855469 L 24.40625 6.886719 L 24.5 6.683594 L 24.726562 6.828125 L 24.757812 6.625 L 24.878906 6.667969 L 25.078125 6.414062 L 25.425781 6.339844 L 25.425781 6.15625 L 25.0625 6.207031 " fill-opacity="1" fill-rule="nonzero"/></g><g clip-path="url(#26eb7618f7)"><path fill="#014d4e" d="M 21.464844 12.195312 L 21.339844 11.9375 L 21.304688 11.773438 L 21.179688 11.609375 L 21.144531 11.34375 L 20.867188 10.933594 L 20.65625 10.898438 L 20.65625 10.65625 L 20.484375 10.148438 L 20.546875 9.972656 L 20.597656 9.484375 L 20.429688 9.609375 L 20.257812 9.671875 L 20.183594 9.441406 L 19.980469 9.367188 L 19.738281 9.683594 L 19.738281 9.972656 L 19.84375 9.972656 L 19.988281 9.871094 L 20.140625 9.90625 L 20.269531 9.855469 L 20.328125 10.023438 L 20.300781 10.105469 L 20.257812 10.386719 L 20.15625 10.410156 L 19.957031 10.273438 L 19.84375 10.265625 L 19.726562 10.488281 L 19.550781 10.308594 L 19.566406 10.015625 L 19.46875 9.929688 L 19.222656 9.855469 L 19.128906 10.058594 L 19.199219 10.183594 L 19.148438 10.402344 L 19.019531 10.621094 L 18.734375 10.6875 L 18.640625 10.964844 L 18.691406 10.964844 L 18.792969 11.304688 L 18.828125 11.574219 L 18.605469 11.835938 L 18.449219 11.886719 L 18.507812 12.128906 L 18.734375 11.953125 L 18.9375 12.257812 L 18.9375 12.761719 L 18.734375 12.988281 L 18.707031 13.628906 L 18.386719 13.957031 L 18.3125 14.378906 L 18.109375 14.902344 L 17.351562 15.367188 L 17.335938 15.609375 L 17.054688 16.089844 L 16.667969 16.335938 L 16.441406 16.328125 L 16.121094 16.605469 L 15.597656 16.800781 L 15.488281 17.019531 L 14.949219 16.960938 L 15.085938 16.605469 L 15.085938 16.308594 L 15.261719 16.226562 L 15.371094 16.050781 L 15.429688 15.878906 L 15.320312 15.863281 L 14.824219 16.082031 L 14.644531 16.097656 L 14.59375 16.539062 L 14.738281 16.796875 L 14.292969 17.632812 L 13.894531 17.851562 L 13.792969 18.179688 L 13.601562 18.257812 L 13.632812 18.535156 L 13.84375 18.621094 L 13.800781 18.8125 L 13.753906 18.695312 L 13.675781 18.671875 L 13.644531 18.832031 L 13.3125 19.074219 L 12.996094 19.050781 L 12.996094 19 L 12.902344 18.984375 L 12.75 19.167969 L 12.480469 18.941406 L 12.699219 18.820312 L 12.613281 18.636719 L 12.21875 18.820312 L 11.972656 18.753906 L 11.710938 18.847656 L 11.476562 18.773438 L 11.359375 18.992188 L 10.144531 18.980469 L 9.832031 19.148438 L 9.75 19.039062 L 9.839844 18.882812 L 9.605469 18.820312 L 9.300781 18.984375 L 9.007812 19.140625 L 9.039062 19.285156 L 8.8125 19.386719 L 8.570312 19.707031 L 8.15625 19.867188 L 7.589844 20.253906 L 7.238281 20.589844 L 6.691406 20.640625 L 6.488281 20.785156 L 6.570312 20.910156 L 6.539062 21.28125 L 6.570312 21.390625 L 6.320312 21.542969 L 6.125 21.433594 L 5.855469 21.519531 L 5.847656 21.761719 L 5.703125 21.980469 L 5.476562 21.855469 L 5.171875 22.144531 L 5.027344 21.890625 L 4.910156 22.253906 L 5.035156 22.261719 L 4.996094 22.394531 L 4.875 22.386719 L 4.777344 22.210938 L 4.558594 22.234375 L 4.667969 22.371094 L 4.558594 22.539062 L 4.988281 22.816406 L 4.980469 23.011719 L 4.835938 22.984375 L 4.816406 22.917969 L 4.640625 22.78125 L 4.589844 22.925781 L 4.691406 23.144531 L 4.816406 23.070312 L 4.960938 23.101562 L 4.851562 23.195312 L 4.851562 23.414062 L 5.027344 23.355469 L 5.257812 23.210938 L 5.332031 23.289062 L 5.265625 23.472656 L 5.382812 23.492188 L 5.617188 23.3125 L 5.519531 23.027344 L 5.339844 23.078125 L 5.164062 23.011719 L 5.398438 22.84375 L 5.257812 22.675781 L 5.410156 22.539062 L 5.667969 22.699219 L 5.761719 22.945312 L 5.980469 23.28125 L 5.761719 23.40625 L 5.695312 23.558594 L 5.996094 23.515625 L 5.988281 23.675781 L 5.855469 23.667969 L 5.828125 23.828125 L 5.457031 24.359375 L 5.222656 24.140625 L 5.179688 24.171875 L 5.28125 24.417969 L 5.273438 24.898438 L 5.5 25.050781 L 5.246094 25.414062 L 5.113281 25.421875 L 5.246094 25.648438 L 5.570312 25.632812 L 5.667969 25.792969 L 5.789062 25.785156 L 5.839844 25.65625 L 5.667969 25.488281 L 5.703125 25.183594 L 5.878906 25.175781 L 5.878906 25.027344 L 6.039062 24.933594 L 6.074219 25.175781 L 5.964844 25.347656 L 6.066406 25.683594 L 5.804688 26.097656 L 6.257812 25.925781 L 6.511719 25.640625 L 6.453125 25.488281 L 6.636719 25.371094 L 6.738281 25.496094 L 6.925781 25.546875 L 7.128906 24.992188 L 6.984375 24.773438 L 7.203125 24.453125 L 7.464844 23.746094 L 7.777344 23.472656 L 7.792969 23.289062 L 7.867188 23.339844 L 8.070312 23.179688 L 7.800781 23.070312 L 7.945312 22.933594 L 7.75 22.808594 L 7.792969 22.613281 L 7.386719 22.472656 L 7.65625 22.320312 L 7.640625 22.101562 L 7.40625 21.933594 L 7.195312 22.074219 L 6.636719 21.789062 L 6.636719 21.351562 L 6.722656 21.214844 L 6.875 21.375 L 7.070312 21.367188 L 7.160156 21.230469 L 7.269531 21.324219 L 7.769531 21.25 L 7.820312 21.402344 L 8.019531 21.402344 L 8.242188 21.605469 L 8.511719 21.636719 L 8.519531 21.527344 L 8.324219 21.476562 L 8.28125 21.359375 L 8.417969 20.894531 L 8.601562 20.710938 L 8.839844 21.023438 L 9.023438 21.023438 L 9.285156 20.878906 L 9.460938 20.910156 L 9.792969 20.726562 L 9.925781 20.84375 L 10.113281 20.640625 L 10.414062 20.609375 L 10.601562 20.71875 L 10.8125 20.726562 L 10.835938 20.644531 L 10.601562 20.59375 L 10.792969 20.515625 L 11.0625 20.558594 L 11.308594 20.332031 L 11.78125 20.246094 L 12.300781 20.484375 L 12.035156 20.675781 L 11.78125 21.003906 L 11.863281 21.199219 L 12.117188 21.125 L 12.191406 20.964844 L 12.058594 20.871094 L 12.242188 20.632812 L 12.363281 20.492188 L 12.792969 20.390625 L 12.875 20.582031 L 12.691406 21.019531 L 12.414062 21.292969 L 12.464844 21.433594 L 12.363281 21.628906 L 12.511719 21.644531 L 12.613281 21.871094 L 12.816406 21.921875 L 12.933594 22.242188 L 13.484375 22.320312 L 13.769531 21.78125 L 14.03125 21.644531 L 14.03125 21.484375 L 14.191406 21.179688 L 14.554688 21.011719 L 14.875 21.011719 L 14.949219 20.734375 L 14.789062 20.675781 L 14.402344 20.441406 L 14.472656 20.085938 L 14.636719 19.824219 L 14.914062 19.792969 L 14.796875 20.09375 L 14.824219 20.355469 L 14.964844 20.347656 L 14.964844 20.042969 L 15.167969 20.273438 L 15.421875 20.230469 L 15.496094 20.3125 L 15.117188 20.566406 L 15.515625 20.566406 L 15.824219 20.398438 L 15.867188 20.164062 L 16.0625 20.273438 L 16.203125 20.171875 L 16.203125 20.566406 L 16.425781 20.464844 L 16.574219 20.566406 L 16.785156 20.566406 L 16.753906 20.324219 L 17.15625 19.867188 L 17.433594 19.613281 L 17.476562 20.40625 L 17.597656 20.433594 L 18 19.992188 L 17.855469 19.679688 L 17.949219 19.574219 L 18.035156 19.335938 L 18.371094 19.226562 L 18.605469 19.464844 L 18.757812 19.4375 L 18.765625 19.3125 L 18.675781 19.300781 L 18.675781 19.117188 L 18.894531 18.8125 L 19.121094 18.585938 L 19.265625 18.695312 L 19.253906 18.929688 L 19.019531 19.089844 L 18.894531 19.460938 L 18.984375 19.539062 L 18.984375 19.875 L 19.15625 19.917969 L 19.195312 19.75 L 19.417969 19.574219 L 19.738281 19.429688 L 19.738281 18.972656 L 20.117188 18.667969 L 20.316406 18.613281 L 19.914062 17.871094 L 20.125 16.707031 L 20.375 16.46875 L 20.375 15.269531 L 20.199219 14.816406 L 20.410156 14.335938 L 20.832031 14.269531 L 20.957031 14.414062 L 20.941406 14.179688 L 20.859375 13.917969 L 21.019531 13.359375 L 21.21875 13.277344 L 21.414062 12.921875 L 21.398438 12.625 L 21.539062 12.476562 L 21.464844 12.195312 " fill-opacity="1" fill-rule="nonzero"/></g><path fill="#014d4e" d="M 11.679688 21.425781 L 11.679688 21.121094 L 11.367188 21.0625 L 11.179688 20.871094 L 10.644531 20.871094 L 10.328125 21.121094 L 10.378906 21.273438 L 10.164062 21.503906 L 9.882812 21.511719 L 9.757812 21.585938 L 9.554688 21.542969 L 9.460938 21.34375 L 9.308594 21.257812 L 9.117188 21.375 L 9.101562 21.578125 L 9.042969 21.613281 L 9.023438 21.730469 L 8.941406 22.03125 L 8.5 22.175781 L 8.460938 22.277344 L 8.5625 22.335938 L 8.511719 22.53125 L 8.710938 22.496094 L 8.71875 22.664062 L 8.578125 22.78125 L 8.636719 22.867188 L 8.722656 23.152344 L 8.941406 23.203125 L 8.878906 23.273438 L 8.878906 23.375 L 9.261719 23.421875 L 9.367188 23.550781 L 9.402344 23.5 L 9.335938 23.390625 L 9.386719 23.136719 L 9.261719 23.011719 L 9.394531 23.011719 L 9.648438 22.890625 L 9.800781 22.683594 L 9.730469 22.429688 L 10 22.453125 L 10.050781 22.292969 L 10.1875 22.082031 L 10.339844 22.3125 L 10.691406 22.3125 L 11.132812 22.757812 L 11.265625 22.203125 L 11.871094 21.738281 L 11.773438 21.664062 L 11.871094 21.535156 L 11.679688 21.425781 " fill-opacity="1" fill-rule="nonzero"/><path fill="#014d4e" d="M 11.425781 20.75 L 11.425781 20.632812 L 11.242188 20.515625 L 11.097656 20.699219 L 11.242188 20.75 L 11.425781 20.75 " fill-opacity="1" fill-rule="nonzero"/></svg>