<svg xmlns="http://www.w3.org/2000/svg" xmlns:xlink="http://www.w3.org/1999/xlink" width="40" zoomAndPan="magnify" viewBox="0 0 30 30.000001" height="40" preserveAspectRatio="xMidYMid meet" version="1.0"><defs><clipPath id="d4abcf809a"><path d="M 5.113281 2.902344 L 24.710938 2.902344 L 24.710938 26.128906 L 5.113281 26.128906 Z M 5.113281 2.902344 " clip-rule="nonzero"/></clipPath></defs><g clip-path="url(#d4abcf809a)"><path fill="#014d4e" d="M 23.027344 7.316406 L 24.777344 5.113281 C 24.882812 4.976562 24.863281 4.820312 24.8125 4.71875 C 24.746094 4.59375 24.625 4.523438 24.488281 4.53125 L 24.476562 4.53125 C 24.230469 4.550781 24.035156 4.617188 23.863281 4.679688 C 23.621094 4.765625 23.394531 4.847656 23.160156 4.710938 C 22.929688 4.574219 22.886719 4.328125 22.855469 4.144531 C 22.832031 4.015625 22.8125 3.925781 22.769531 3.902344 C 22.695312 3.867188 22.515625 3.980469 22.324219 4.097656 C 22.117188 4.230469 21.855469 4.394531 21.515625 4.519531 C 21.199219 4.640625 20.863281 4.710938 20.515625 4.730469 C 20.40625 4.738281 20.304688 4.796875 20.242188 4.890625 L 19.757812 5.621094 C 19.621094 5.828125 19.390625 5.953125 19.144531 5.953125 L 17.941406 5.953125 C 17.695312 5.953125 17.460938 5.824219 17.324219 5.613281 C 17.179688 5.394531 17.078125 5.339844 17.042969 5.34375 C 17.003906 5.347656 16.949219 5.433594 16.90625 5.5 C 16.863281 5.570312 16.8125 5.644531 16.746094 5.703125 C 16.664062 5.773438 16.558594 5.824219 16.398438 5.824219 C 15.921875 5.824219 14.976562 5.367188 12.835938 3.601562 C 12.769531 3.550781 12.691406 3.519531 12.609375 3.519531 L 11.019531 3.519531 C 10.824219 3.519531 10.636719 3.441406 10.5 3.300781 L 10.21875 3.019531 C 10.148438 2.949219 10.058594 2.910156 9.964844 2.910156 L 6.800781 2.910156 C 6.707031 2.910156 6.617188 2.949219 6.546875 3.019531 L 5.734375 3.839844 C 5.632812 3.941406 5.597656 4.089844 5.648438 4.222656 C 5.75 4.476562 5.890625 4.671875 6.074219 4.792969 C 6.214844 4.886719 6.359375 4.925781 6.484375 4.964844 C 6.679688 5.019531 6.875 5.078125 6.953125 5.292969 C 7.039062 5.527344 6.886719 5.703125 6.765625 5.839844 C 6.667969 5.953125 6.578125 6.054688 6.5625 6.191406 C 6.53125 6.421875 6.738281 6.605469 7.082031 6.886719 C 7.449219 7.1875 7.90625 7.566406 7.96875 8.175781 C 7.988281 8.347656 7.96875 8.476562 7.949219 8.605469 C 7.925781 8.769531 7.902344 8.914062 7.964844 9.164062 C 8.007812 9.34375 8.078125 9.515625 8.179688 9.683594 C 8.308594 9.898438 8.320312 10.164062 8.207031 10.394531 L 7.699219 11.421875 C 7.585938 11.648438 7.359375 11.804688 7.101562 11.828125 C 6.933594 11.84375 6.796875 11.898438 6.699219 11.984375 C 6.574219 12.09375 6.554688 12.214844 6.519531 12.453125 C 6.492188 12.636719 6.460938 12.867188 6.34375 13.132812 C 6.167969 13.542969 5.945312 13.707031 5.75 13.855469 C 5.578125 13.980469 5.445312 14.082031 5.34375 14.34375 C 5.265625 14.539062 5.285156 14.667969 5.316406 14.902344 C 5.347656 15.125 5.390625 15.429688 5.355469 15.910156 C 5.324219 16.332031 5.238281 16.65625 5.171875 16.894531 C 5.152344 16.972656 5.125 17.0625 5.113281 17.128906 C 5.167969 17.109375 5.25 17.0625 5.382812 16.96875 C 5.621094 16.800781 5.933594 16.785156 6.183594 16.933594 L 14.421875 21.808594 C 14.605469 21.917969 14.734375 22.101562 14.773438 22.3125 C 14.8125 22.519531 14.761719 22.738281 14.632812 22.902344 C 14.613281 22.925781 14.605469 22.941406 14.601562 22.949219 C 14.621094 22.964844 14.660156 22.988281 14.683594 23.003906 C 14.789062 23.066406 14.929688 23.152344 14.992188 23.328125 C 15.03125 23.4375 15.035156 23.558594 15 23.6875 C 14.953125 23.855469 15.015625 24.023438 15.152344 24.105469 L 18.324219 26.027344 C 18.480469 26.117188 18.671875 26.085938 18.785156 25.945312 L 20.125 24.292969 C 20.195312 24.207031 20.222656 24.097656 20.199219 23.984375 C 20.003906 23.074219 20.050781 22.589844 20.347656 22.417969 C 20.507812 22.328125 20.671875 22.371094 20.789062 22.40625 C 20.851562 22.421875 20.917969 22.441406 20.9375 22.425781 C 21.007812 22.378906 20.976562 22.078125 20.957031 21.898438 C 20.921875 21.570312 20.882812 21.195312 21.136719 21.011719 C 21.316406 20.878906 21.519531 20.941406 21.664062 20.984375 C 21.808594 21.027344 21.886719 21.046875 21.949219 21.003906 C 22.03125 20.949219 22.058594 20.816406 22.085938 20.671875 C 22.121094 20.488281 22.167969 20.261719 22.386719 20.175781 C 22.59375 20.097656 22.789062 20.226562 22.917969 20.3125 C 22.90625 20.222656 22.882812 20.105469 22.867188 20.023438 C 22.792969 19.667969 22.726562 19.332031 22.949219 19.183594 C 23.128906 19.066406 23.320312 19.175781 23.476562 19.265625 C 23.578125 19.324219 23.714844 19.402344 23.773438 19.375 C 23.796875 19.363281 23.8125 19.324219 23.84375 19.238281 C 23.890625 19.113281 23.953125 18.941406 24.140625 18.789062 C 24.277344 18.675781 24.402344 18.640625 24.484375 18.617188 C 24.484375 18.617188 24.488281 18.617188 24.488281 18.617188 C 24.453125 18.5 24.246094 18.113281 23.09375 17.007812 C 22.949219 16.867188 22.867188 16.671875 22.867188 16.46875 L 22.867188 7.78125 C 22.867188 7.613281 22.921875 7.449219 23.027344 7.316406 Z M 23.027344 7.316406 " fill-opacity="1" fill-rule="nonzero"/></g></svg>