<svg xmlns="http://www.w3.org/2000/svg" width="40" zoomAndPan="magnify" viewBox="0 0 30 30.000001" height="40"
     preserveAspectRatio="xMidYMid meet" version="1.0"><defs><clipPath id="8b4c175d0d"><path d="M 3.386719 9.074219 L 26.613281 9.074219 L 26.613281 19.960938 L 3.386719 19.960938 Z M 3.386719 9.074219 " clip-rule="nonzero"/></clipPath></defs><g clip-path="url(#8b4c175d0d)"><path fill="#014d4e" d="M 26.597656 11.660156 L 26.554688 11.605469 L 26.496094 11.554688 L 26.488281 11.511719 L 26.484375 11.421875 L 26.484375 11.320312 L 26.464844 11.277344 L 26.417969 11.28125 L 26.351562 11.308594 L 26.296875 11.332031 L 26.230469 11.324219 L 26.191406 11.304688 L 26.140625 11.164062 L 26.09375 11.078125 L 26.027344 11.007812 L 25.847656 10.886719 L 25.703125 10.769531 L 25.617188 10.75 L 25.570312 10.742188 L 25.304688 10.742188 L 25.253906 10.699219 L 25.207031 10.691406 L 25.074219 10.714844 L 24.929688 10.734375 L 24.777344 10.761719 L 24.679688 10.679688 L 24.613281 10.582031 L 24.597656 10.542969 L 24.582031 10.476562 L 24.570312 10.457031 L 24.4375 10.457031 L 24.3125 10.394531 L 24.195312 10.292969 L 24.15625 10.230469 L 24.136719 10.160156 L 24.136719 10.09375 L 24.140625 10.035156 L 24.15625 9.984375 L 24.175781 9.941406 L 24.183594 9.882812 L 24.179688 9.84375 L 24.085938 9.816406 L 23.992188 9.851562 L 23.851562 9.945312 C 23.851562 9.945312 23.859375 9.949219 23.804688 9.988281 C 23.753906 10.027344 23.753906 10.027344 23.753906 10.027344 L 23.710938 10.042969 L 23.671875 10 L 23.640625 9.945312 L 23.445312 9.941406 L 23.359375 9.917969 L 23.289062 9.898438 L 23.238281 9.875 L 23.199219 9.871094 L 23.152344 9.882812 L 23.117188 9.910156 L 23.082031 9.929688 L 23.046875 9.917969 L 22.980469 9.875 L 22.9375 9.816406 L 22.914062 9.808594 L 22.875 9.796875 L 22.808594 9.792969 L 22.773438 9.777344 L 22.710938 9.773438 L 22.601562 9.777344 L 22.542969 9.792969 L 22.484375 9.792969 L 22.382812 9.816406 L 22.332031 9.863281 L 22.304688 9.894531 L 22.273438 9.871094 L 22.246094 9.855469 L 22.160156 9.84375 L 22.089844 9.835938 L 22.007812 9.847656 L 21.941406 9.847656 L 21.898438 9.851562 L 21.695312 9.851562 L 21.5625 9.824219 L 21.507812 9.816406 L 21.457031 9.8125 L 21.378906 9.820312 L 21.363281 9.851562 L 21.34375 9.863281 L 21.316406 9.878906 L 21.257812 9.875 L 21.242188 9.839844 L 21.222656 9.8125 L 21.203125 9.800781 L 20.984375 9.808594 L 20.839844 9.8125 L 20.742188 9.792969 L 20.695312 9.753906 L 20.570312 9.75 L 20.40625 9.789062 L 20.367188 9.796875 L 20.277344 9.816406 L 20.195312 9.828125 L 20.125 9.832031 L 20.003906 9.832031 L 19.882812 9.753906 L 19.769531 9.6875 L 19.644531 9.675781 L 19.539062 9.675781 L 19.417969 9.648438 L 19.324219 9.695312 L 19.253906 9.742188 L 19.210938 9.785156 L 19.164062 9.800781 L 19.128906 9.808594 L 19.085938 9.839844 L 19.0625 9.878906 L 19.011719 9.894531 L 18.957031 9.894531 L 18.886719 9.902344 L 18.816406 9.917969 L 18.789062 9.9375 L 18.714844 9.984375 L 18.695312 9.988281 L 18.628906 9.96875 L 18.585938 9.9375 L 18.550781 9.9375 L 18.527344 9.96875 L 18.507812 10.007812 L 18.488281 10.023438 L 18.4375 10.023438 L 18.378906 9.984375 L 18.371094 9.945312 L 18.359375 9.898438 L 18.332031 9.882812 L 18.222656 9.882812 L 18.160156 9.910156 L 18.132812 9.910156 L 18.058594 9.902344 L 18.027344 9.902344 L 18.023438 9.898438 L 17.96875 9.894531 L 17.949219 9.878906 L 17.890625 9.875 L 17.816406 9.875 L 17.777344 9.894531 L 17.75 9.914062 L 17.710938 9.933594 L 17.660156 9.941406 L 17.535156 9.933594 L 17.386719 9.871094 L 17.3125 9.851562 L 17.253906 9.859375 L 17.203125 9.902344 L 17.175781 9.945312 L 17.152344 10.007812 L 17.085938 10.152344 L 17.035156 10.222656 L 17.023438 10.238281 L 16.78125 10.1875 L 16.734375 10.160156 L 16.648438 10.175781 L 16.496094 10.175781 L 16.269531 10.148438 L 16.195312 10.117188 L 16.15625 10.109375 L 16.097656 10.117188 L 16.042969 10.132812 L 16.015625 10.128906 L 15.804688 10 L 15.65625 9.941406 L 15.546875 9.894531 L 15.265625 9.773438 L 15.207031 9.765625 L 15.113281 9.765625 L 15.042969 9.761719 L 14.964844 9.65625 L 14.90625 9.605469 L 14.851562 9.578125 L 14.816406 9.554688 L 14.75 9.453125 L 14.714844 9.402344 L 14.679688 9.378906 L 14.648438 9.363281 L 14.59375 9.359375 L 14.566406 9.328125 L 14.527344 9.320312 L 14.457031 9.328125 L 14.410156 9.300781 L 14.390625 9.277344 L 14.367188 9.222656 L 14.324219 9.1875 L 14.238281 9.160156 L 14.179688 9.140625 L 14.128906 9.125 L 14.085938 9.097656 L 14.0625 9.074219 L 14.019531 9.074219 L 13.992188 9.082031 L 13.992188 9.113281 L 14.015625 9.144531 L 14.050781 9.179688 L 14.042969 9.21875 L 14.035156 9.238281 L 14.015625 9.253906 L 13.980469 9.269531 L 13.960938 9.269531 L 13.914062 9.273438 L 13.84375 9.28125 C 13.820312 9.28125 13.78125 9.292969 13.78125 9.292969 L 13.734375 9.296875 L 13.609375 9.273438 L 13.558594 9.207031 L 13.496094 9.140625 L 13.460938 9.113281 L 13.417969 9.113281 L 13.40625 9.148438 L 13.40625 9.347656 L 13.386719 9.386719 L 13.300781 9.410156 L 13.210938 9.4375 L 12.953125 9.523438 L 12.863281 9.585938 L 12.746094 9.6875 L 12.671875 9.746094 L 12.636719 9.792969 L 12.628906 9.9375 L 12.601562 9.96875 L 12.578125 10.023438 L 12.570312 10.078125 L 12.613281 10.140625 L 12.640625 10.25 L 12.632812 10.296875 L 12.59375 10.351562 L 12.558594 10.398438 L 12.445312 10.574219 L 12.382812 10.675781 L 12.386719 10.980469 L 12.460938 11.125 L 12.46875 11.203125 L 12.503906 11.21875 L 12.523438 11.253906 L 12.539062 11.292969 L 12.53125 11.3125 L 12.5 11.335938 L 12.433594 11.347656 L 12.390625 11.347656 L 12.308594 11.328125 L 12.203125 11.3125 L 12.164062 11.285156 L 12.105469 11.226562 L 12.105469 11.160156 L 12.109375 11.082031 L 12.097656 11.058594 L 12.042969 11.058594 L 12.003906 11.03125 L 11.957031 11.027344 L 11.832031 10.988281 L 11.738281 10.980469 L 11.558594 10.980469 L 11.527344 10.992188 L 11.453125 11.011719 L 11.277344 10.984375 L 11.191406 10.9375 L 11.15625 10.890625 L 11.082031 10.800781 L 11.0625 10.753906 L 11.046875 10.726562 L 11.023438 10.683594 L 10.851562 10.667969 L 10.761719 10.648438 L 10.71875 10.621094 L 10.636719 10.589844 L 10.535156 10.566406 L 10.464844 10.554688 L 10.417969 10.515625 L 10.308594 10.453125 L 10.222656 10.425781 L 10.082031 10.402344 L 9.957031 10.394531 L 9.875 10.394531 L 9.808594 10.402344 L 9.785156 10.410156 L 9.714844 10.429688 L 9.652344 10.316406 L 9.519531 10.3125 L 9.449219 10.300781 L 9.425781 10.289062 L 9.390625 10.21875 L 9.335938 10.179688 L 9.261719 10.152344 L 9.179688 10.136719 L 9.082031 10.140625 L 9.042969 10.15625 L 8.910156 10.164062 L 8.863281 10.164062 L 8.832031 10.175781 L 8.75 10.226562 L 8.71875 10.257812 L 8.667969 10.292969 L 8.625 10.300781 L 8.355469 10.242188 L 8.296875 10.230469 L 8.246094 10.226562 L 8.226562 10.25 L 8.21875 10.292969 L 8.199219 10.324219 L 8.179688 10.34375 L 8.148438 10.363281 L 8.125 10.371094 L 8.027344 10.371094 L 7.964844 10.382812 L 7.898438 10.4375 L 7.835938 10.503906 L 7.816406 10.539062 L 7.800781 10.597656 L 7.785156 10.621094 L 7.859375 10.625 L 7.941406 10.59375 L 7.894531 10.648438 L 7.792969 10.710938 L 7.738281 10.730469 L 7.6875 10.738281 L 7.617188 10.746094 L 7.554688 10.75 L 7.457031 10.769531 L 7.460938 10.859375 L 7.496094 10.90625 L 7.542969 11.007812 L 7.53125 11.054688 L 7.429688 11.082031 L 7.386719 11.082031 L 7.328125 11.109375 L 7.300781 11.152344 L 7.292969 11.222656 L 7.285156 11.289062 L 7.25 11.34375 L 7.214844 11.390625 L 7.1875 11.429688 L 7.152344 11.480469 C 7.152344 11.480469 7.179688 11.601562 7.21875 11.605469 C 7.25 11.613281 7.296875 11.605469 7.296875 11.605469 L 7.335938 11.597656 L 7.429688 11.5625 L 7.46875 11.550781 L 7.515625 11.542969 L 7.550781 11.542969 L 7.59375 11.5625 L 7.644531 11.601562 L 7.742188 11.671875 L 7.925781 11.820312 L 7.929688 11.859375 L 7.910156 11.925781 L 7.871094 11.953125 L 7.835938 11.96875 L 7.777344 11.976562 L 7.726562 11.984375 L 7.667969 11.984375 L 7.621094 12.082031 L 7.546875 12.125 L 7.492188 12.164062 L 7.386719 12.21875 L 7.296875 12.246094 L 7.238281 12.253906 L 7.199219 12.246094 L 7.152344 12.21875 L 7.109375 12.199219 L 7.054688 12.207031 L 7.011719 12.21875 L 6.980469 12.246094 L 7 12.289062 L 7.023438 12.394531 L 7.039062 12.507812 L 7.011719 12.53125 L 6.953125 12.535156 L 6.84375 12.535156 L 6.765625 12.546875 L 6.710938 12.558594 L 6.675781 12.609375 L 6.648438 12.648438 L 6.628906 12.671875 L 6.511719 12.707031 L 6.46875 12.789062 L 6.425781 12.816406 L 6.378906 12.84375 L 6.335938 12.867188 L 6.3125 12.878906 L 6.261719 12.917969 L 6.257812 12.957031 L 6.257812 12.996094 L 6.242188 13.0625 L 6.027344 13.148438 L 5.929688 13.210938 L 5.859375 13.246094 L 5.804688 13.289062 L 5.777344 13.304688 L 5.699219 13.308594 L 5.667969 13.320312 L 5.585938 13.332031 L 5.601562 13.527344 L 5.640625 13.574219 L 5.710938 13.589844 L 5.773438 13.574219 L 5.800781 13.558594 L 5.832031 13.53125 L 5.855469 13.527344 L 5.890625 13.546875 L 5.917969 13.585938 L 6.199219 13.871094 L 6.265625 13.898438 L 6.359375 13.898438 L 6.386719 13.84375 L 6.414062 13.832031 L 6.460938 13.8125 L 6.492188 13.777344 L 6.539062 13.746094 L 6.546875 13.722656 L 6.601562 13.714844 L 6.679688 13.722656 L 6.707031 13.789062 L 6.714844 13.851562 C 6.714844 13.851562 6.6875 13.859375 6.730469 13.902344 C 6.773438 13.945312 6.773438 13.945312 6.773438 13.945312 L 6.847656 14 L 6.828125 14.265625 L 6.808594 14.410156 L 6.871094 14.398438 L 6.976562 14.339844 L 7.027344 14.382812 L 7.121094 14.523438 L 7.203125 14.589844 L 7.269531 14.542969 L 7.277344 14.507812 L 7.324219 14.53125 L 7.355469 14.527344 L 7.394531 14.527344 L 7.40625 14.546875 L 7.417969 14.574219 L 7.433594 14.59375 L 7.460938 14.605469 L 7.488281 14.609375 L 7.507812 14.570312 L 7.515625 14.53125 L 7.527344 14.511719 L 7.566406 14.492188 L 7.652344 14.5 L 7.722656 14.515625 L 7.785156 14.515625 L 7.832031 14.535156 L 7.855469 14.582031 L 7.859375 14.617188 L 7.855469 14.695312 L 7.871094 14.722656 L 7.898438 14.722656 L 7.925781 14.691406 L 7.945312 14.664062 L 7.957031 14.632812 L 7.996094 14.632812 L 8.015625 14.664062 L 8.03125 14.699219 L 8.050781 14.746094 L 8.070312 14.78125 L 8.148438 14.78125 L 8.164062 14.75 L 8.160156 14.691406 L 8.160156 14.644531 L 8.167969 14.5625 L 8.1875 14.527344 L 8.191406 14.480469 L 8.179688 14.421875 L 8.171875 14.367188 L 8.203125 14.324219 L 8.222656 14.308594 L 8.265625 14.316406 L 8.449219 14.316406 L 8.480469 14.300781 L 8.507812 14.28125 L 8.511719 14.214844 L 8.519531 14.1875 L 8.601562 14.035156 L 8.613281 13.90625 L 8.609375 13.882812 L 8.554688 13.828125 L 8.535156 13.820312 L 8.535156 13.730469 L 8.605469 13.699219 L 8.632812 13.667969 L 8.636719 13.640625 L 8.664062 13.605469 L 8.683594 13.585938 L 8.71875 13.59375 L 8.75 13.613281 L 8.757812 13.644531 L 8.757812 13.679688 L 8.746094 13.707031 L 8.726562 13.738281 L 8.707031 13.757812 L 8.683594 13.769531 L 8.699219 13.835938 L 8.707031 13.851562 L 8.722656 13.875 L 8.753906 13.890625 L 8.765625 13.867188 L 8.789062 13.835938 L 8.800781 13.835938 L 8.8125 13.855469 L 8.84375 13.871094 L 8.867188 13.871094 L 8.890625 13.859375 L 8.933594 13.835938 L 8.949219 13.820312 L 8.972656 13.808594 L 8.988281 13.808594 L 9.015625 13.828125 L 9.03125 13.847656 C 9.03125 13.847656 9.050781 13.871094 9.035156 13.894531 C 9.015625 13.914062 9 13.921875 9 13.921875 L 8.953125 13.945312 L 8.925781 13.984375 L 8.921875 14.011719 L 8.945312 14.035156 L 8.96875 14.09375 L 8.988281 14.121094 L 9.003906 14.140625 C 9.003906 14.140625 9.011719 14.148438 9.023438 14.148438 C 9.035156 14.148438 9.054688 14.148438 9.054688 14.148438 L 9.078125 14.144531 L 9.109375 14.136719 L 9.113281 14.265625 L 9.125 14.292969 L 9.148438 14.324219 L 9.164062 14.34375 C 9.164062 14.34375 9.183594 14.355469 9.171875 14.378906 C 9.160156 14.398438 9.160156 14.398438 9.160156 14.398438 L 9.136719 14.421875 L 9.117188 14.4375 L 9.089844 14.480469 L 9.074219 14.5 L 9.070312 14.5625 L 9.097656 14.59375 L 9.167969 14.632812 L 9.226562 14.640625 L 9.355469 14.640625 L 9.394531 14.667969 L 9.410156 14.71875 L 9.445312 14.757812 L 9.484375 14.777344 L 9.535156 14.765625 L 9.582031 14.75 L 9.621094 14.738281 L 9.675781 14.726562 L 9.6875 14.773438 L 9.683594 14.8125 L 9.695312 14.832031 L 9.726562 14.84375 L 9.75 14.84375 L 9.789062 14.882812 L 9.820312 14.941406 L 9.832031 14.964844 C 9.832031 14.964844 9.84375 14.96875 9.832031 14.980469 C 9.824219 14.988281 9.808594 15 9.808594 15 L 9.765625 15.007812 L 9.730469 15.019531 L 9.703125 15.039062 L 9.699219 15.058594 L 9.710938 15.085938 C 9.710938 15.085938 9.707031 15.097656 9.730469 15.097656 C 9.78125 15.097656 9.769531 15.097656 9.769531 15.097656 L 9.816406 15.089844 C 9.816406 15.089844 9.832031 15.085938 9.886719 15.074219 C 9.941406 15.066406 9.941406 15.066406 9.941406 15.066406 L 9.972656 15.050781 L 10.023438 15.003906 L 10.035156 14.972656 C 10.035156 14.972656 10.035156 14.964844 10.046875 14.941406 C 10.058594 14.917969 10.058594 14.917969 10.058594 14.917969 C 10.058594 14.917969 10.105469 14.902344 10.113281 14.914062 C 10.121094 14.921875 10.140625 14.945312 10.140625 14.945312 L 10.148438 14.976562 L 10.175781 15.023438 L 10.1875 15.039062 L 10.246094 15.066406 L 10.316406 15.074219 L 10.332031 15.089844 L 10.339844 15.113281 L 10.363281 15.144531 L 10.410156 15.195312 L 10.460938 15.230469 L 10.554688 15.292969 L 10.578125 15.460938 L 10.746094 15.515625 L 10.878906 15.519531 L 10.984375 15.492188 L 11.046875 15.488281 L 11.109375 15.535156 L 11.15625 15.5625 L 11.179688 15.582031 L 11.195312 15.609375 L 11.195312 15.644531 L 11.207031 15.675781 L 11.246094 15.691406 L 11.300781 15.628906 L 11.332031 15.59375 L 11.414062 15.539062 L 11.445312 15.519531 L 11.476562 15.546875 L 11.707031 15.546875 L 11.734375 15.601562 L 11.726562 15.671875 L 11.710938 15.710938 L 11.5625 15.71875 L 11.519531 15.734375 L 11.453125 15.785156 L 11.429688 15.804688 L 11.339844 15.835938 L 11.296875 15.902344 L 11.296875 15.9375 L 11.269531 15.972656 L 11.171875 15.992188 L 11.105469 16.003906 L 11.035156 16.015625 L 10.976562 16.027344 L 10.921875 16.050781 L 10.933594 16.191406 L 10.921875 16.246094 L 10.910156 16.292969 L 10.890625 16.308594 L 10.855469 16.289062 L 10.828125 16.253906 L 10.796875 16.246094 L 10.75 16.246094 L 10.714844 16.25 L 10.699219 16.296875 L 10.699219 16.332031 L 10.691406 16.390625 L 10.6875 16.425781 L 10.660156 16.433594 L 10.515625 16.421875 L 10.464844 16.328125 L 10.382812 16.300781 L 10.300781 16.3125 L 10.234375 16.300781 L 10.199219 16.28125 L 10.183594 16.234375 L 10.171875 16.1875 L 10.152344 16.160156 L 10.09375 16.152344 L 10.046875 16.144531 L 10.019531 16.152344 L 10 16.160156 L 9.984375 16.179688 L 9.980469 16.21875 L 9.980469 16.246094 L 10 16.269531 L 10.046875 16.269531 L 10.09375 16.277344 L 10.132812 16.324219 L 10.117188 16.34375 L 10.082031 16.351562 L 10.058594 16.351562 L 10.003906 16.367188 L 10 16.445312 L 10.023438 16.449219 L 10.078125 16.457031 L 10.140625 16.46875 L 10.1875 16.484375 L 10.210938 16.5 L 10.199219 16.621094 L 10.1875 16.667969 L 10.144531 16.699219 L 10.085938 16.679688 L 10.003906 16.636719 L 9.949219 16.605469 L 9.875 16.574219 L 9.847656 16.5625 L 9.847656 16.492188 L 9.800781 16.476562 L 9.734375 16.476562 L 9.707031 16.523438 L 9.679688 16.539062 L 9.632812 16.574219 L 9.585938 16.59375 L 9.558594 16.617188 L 9.539062 16.636719 L 9.527344 16.683594 C 9.527344 16.683594 9.519531 16.667969 9.503906 16.707031 C 9.488281 16.746094 9.476562 16.773438 9.476562 16.773438 L 9.4375 16.804688 L 9.394531 16.835938 L 9.34375 16.847656 L 9.320312 16.855469 L 9.28125 16.859375 C 9.28125 16.859375 9.261719 16.933594 9.28125 16.957031 C 9.300781 16.984375 9.335938 16.984375 9.335938 16.984375 L 9.386719 16.992188 C 9.386719 16.992188 9.414062 17.007812 9.414062 17.023438 C 9.414062 17.035156 9.40625 17.101562 9.40625 17.101562 L 9.355469 17.113281 L 9.335938 17.121094 L 9.289062 17.140625 C 9.289062 17.140625 9.289062 17.144531 9.257812 17.160156 C 9.230469 17.175781 9.230469 17.175781 9.230469 17.175781 L 9.203125 17.199219 L 9.183594 17.207031 L 9.15625 17.199219 L 9.144531 17.164062 L 9.144531 17.117188 L 9.078125 17.089844 L 9.050781 17.117188 L 9.035156 17.15625 L 9.015625 17.191406 L 8.960938 17.230469 L 8.902344 17.246094 L 8.84375 17.253906 L 8.8125 17.347656 L 8.765625 17.378906 L 8.738281 17.390625 L 8.699219 17.398438 L 8.671875 17.394531 L 8.632812 17.296875 L 8.59375 17.261719 L 8.566406 17.242188 L 8.566406 17.1875 L 8.59375 17.144531 L 8.589844 17.097656 L 8.5 17.070312 L 8.457031 17.097656 L 8.441406 17.15625 L 8.441406 17.1875 L 8.414062 17.1875 L 8.375 17.171875 L 8.324219 17.15625 L 8.285156 17.144531 L 8.234375 17.128906 L 8.195312 17.109375 L 8.128906 17.09375 L 8.113281 17.042969 L 8.085938 16.996094 L 8.039062 16.976562 L 7.902344 16.910156 L 7.789062 16.894531 L 7.695312 16.878906 L 7.582031 16.851562 L 7.515625 16.851562 L 7.503906 16.917969 L 7.488281 16.960938 L 7.449219 16.96875 L 7.390625 16.984375 L 7.289062 16.984375 L 7.238281 16.960938 L 7.207031 16.960938 L 7.167969 16.992188 L 7.148438 17.058594 L 7.132812 17.125 L 7.132812 17.160156 L 7.105469 17.265625 L 7.082031 17.273438 L 7.054688 17.28125 L 7.023438 17.289062 L 6.976562 17.289062 L 6.910156 17.28125 L 6.886719 17.269531 L 6.863281 17.265625 L 6.835938 17.246094 L 6.816406 17.210938 L 6.78125 17.183594 L 6.769531 17.199219 L 6.742188 17.238281 L 6.738281 17.273438 L 6.726562 17.296875 L 6.707031 17.320312 L 6.699219 17.335938 L 6.6875 17.347656 L 6.675781 17.355469 L 6.664062 17.359375 L 6.609375 17.347656 L 6.566406 17.347656 L 6.511719 17.363281 L 6.464844 17.386719 L 6.421875 17.46875 L 6.417969 17.550781 L 6.386719 17.597656 L 6.378906 17.65625 L 6.375 17.6875 L 6.316406 17.777344 L 6.277344 17.816406 L 6.257812 17.832031 L 6.210938 17.824219 L 6.179688 17.796875 L 6.160156 17.785156 L 6.132812 17.804688 L 6.121094 17.871094 L 6.085938 17.890625 L 6.046875 17.890625 L 6.023438 17.875 L 6.011719 17.847656 L 6.015625 17.757812 L 6.023438 17.722656 L 6.078125 17.703125 L 6.089844 17.65625 L 6.132812 17.636719 L 6.152344 17.582031 L 6.15625 17.5625 L 6.15625 17.550781 L 6.132812 17.492188 L 6.058594 17.441406 L 5.957031 17.390625 L 5.898438 17.390625 L 5.832031 17.371094 L 5.78125 17.378906 L 5.691406 17.351562 L 5.6875 17.328125 L 5.683594 17.265625 L 5.652344 17.222656 L 5.539062 17.222656 L 5.457031 17.21875 L 5.375 17.175781 L 5.304688 17.121094 L 5.234375 17.085938 L 5.167969 17.054688 L 5.082031 17.046875 L 5.027344 17.046875 L 4.9375 17.066406 L 4.796875 17.089844 L 4.667969 17.125 L 4.542969 17.15625 L 4.378906 17.210938 L 4.277344 17.265625 L 4.199219 17.253906 L 4.160156 17.207031 L 4.125 17.15625 L 4.09375 17.1875 L 4.074219 17.210938 L 4.074219 17.234375 L 4.042969 17.285156 L 3.996094 17.316406 L 3.984375 17.355469 L 3.988281 17.398438 L 4.011719 17.4375 L 4.007812 17.476562 L 3.996094 17.53125 C 3.996094 17.53125 3.996094 17.53125 3.980469 17.558594 C 3.960938 17.582031 3.988281 17.585938 3.988281 17.585938 C 3.988281 17.585938 4.007812 17.601562 4.023438 17.632812 C 4.035156 17.660156 4.027344 17.664062 4.027344 17.664062 L 4.019531 17.71875 L 4.003906 17.746094 L 3.964844 17.75 L 3.890625 17.777344 L 3.820312 17.769531 L 3.789062 17.742188 L 3.757812 17.699219 L 3.757812 17.667969 L 3.796875 17.636719 L 3.796875 17.609375 L 3.78125 17.566406 L 3.75 17.542969 L 3.695312 17.507812 L 3.625 17.5 L 3.570312 17.527344 L 3.570312 17.539062 L 3.574219 17.566406 L 3.574219 17.605469 L 3.5625 17.652344 L 3.566406 17.714844 L 3.542969 17.769531 C 3.542969 17.769531 3.542969 17.769531 3.542969 17.78125 C 3.539062 17.796875 3.523438 17.804688 3.523438 17.804688 L 3.511719 17.832031 L 3.484375 17.90625 L 3.460938 17.980469 L 3.402344 18.058594 L 3.402344 18.164062 L 3.433594 18.257812 L 3.472656 18.308594 L 3.503906 18.347656 L 3.523438 18.394531 L 3.511719 18.457031 L 3.445312 18.554688 L 3.421875 18.601562 L 3.421875 18.664062 L 3.429688 18.710938 L 3.457031 18.773438 L 3.496094 18.804688 L 3.570312 18.8125 L 3.59375 18.789062 L 3.617188 18.773438 L 3.664062 18.746094 L 3.710938 18.804688 L 3.949219 18.789062 L 4.015625 18.777344 L 4.039062 18.726562 L 4.082031 18.699219 L 4.15625 18.683594 L 4.222656 18.683594 L 4.386719 18.6875 L 4.445312 18.730469 L 4.503906 18.804688 L 4.5625 18.828125 L 4.636719 18.835938 L 4.699219 18.839844 L 4.726562 18.847656 L 4.765625 18.855469 L 4.84375 18.855469 L 4.882812 18.859375 L 4.917969 18.910156 L 4.941406 18.914062 C 4.941406 18.914062 4.941406 18.921875 4.960938 18.878906 C 4.996094 18.808594 4.996094 18.808594 4.996094 18.808594 L 5.027344 18.78125 L 5.050781 18.769531 L 5.113281 18.769531 L 5.128906 18.773438 L 5.144531 18.800781 L 5.183594 18.816406 L 5.328125 18.816406 L 5.351562 18.804688 L 5.410156 18.875 L 5.449219 18.882812 L 5.507812 18.890625 L 5.582031 18.871094 L 5.621094 18.839844 L 5.644531 18.820312 L 5.71875 18.808594 L 5.800781 18.773438 L 5.867188 18.757812 L 5.914062 18.738281 L 5.925781 18.722656 L 6.003906 18.71875 L 6.03125 18.742188 L 6.070312 18.769531 L 6.101562 18.777344 L 6.167969 18.78125 L 6.238281 18.78125 L 6.265625 18.777344 L 6.296875 18.777344 L 6.332031 18.789062 L 6.34375 18.847656 L 6.34375 18.890625 L 6.339844 18.933594 L 6.34375 18.972656 L 6.371094 18.992188 L 6.460938 19.046875 L 6.511719 19.050781 L 6.542969 19.066406 L 6.558594 19.109375 L 6.554688 19.128906 L 6.523438 19.160156 L 6.511719 19.175781 L 6.5 19.195312 L 6.503906 19.28125 L 6.519531 19.289062 L 6.570312 19.320312 L 6.597656 19.34375 L 6.644531 19.351562 L 6.664062 19.351562 L 6.6875 19.324219 L 6.707031 19.304688 L 6.730469 19.296875 L 6.769531 19.300781 L 6.796875 19.320312 L 6.851562 19.335938 L 6.898438 19.332031 L 6.917969 19.320312 L 6.9375 19.289062 L 6.949219 19.265625 L 6.960938 19.253906 L 7 19.28125 L 7.097656 19.308594 L 7.128906 19.304688 L 7.179688 19.257812 L 7.191406 19.21875 L 7.210938 19.148438 L 7.203125 19.089844 L 7.210938 19.039062 L 7.273438 19.023438 L 7.367188 19.011719 L 7.398438 18.992188 L 7.464844 18.976562 L 7.503906 18.96875 L 7.515625 18.972656 L 7.566406 19.03125 L 7.605469 19.03125 L 7.660156 19.039062 L 7.703125 19.015625 L 7.722656 18.980469 L 7.738281 18.953125 L 7.761719 18.925781 L 7.84375 18.863281 L 7.941406 18.835938 L 8.007812 18.820312 L 8.054688 18.800781 L 8.097656 18.785156 L 8.167969 18.78125 L 8.191406 18.796875 C 8.191406 18.796875 8.214844 18.8125 8.21875 18.820312 C 8.226562 18.832031 8.242188 18.851562 8.242188 18.851562 L 8.285156 18.886719 L 8.289062 18.925781 L 8.257812 18.945312 L 8.207031 18.992188 L 8.175781 19.03125 L 8.171875 19.097656 L 8.179688 19.148438 L 8.203125 19.1875 L 8.265625 19.21875 L 8.421875 19.25 L 8.476562 19.25 L 8.527344 19.238281 L 8.546875 19.21875 L 8.574219 19.214844 L 8.613281 19.214844 L 8.679688 19.277344 L 8.714844 19.355469 L 8.714844 19.410156 L 8.707031 19.453125 L 8.667969 19.503906 L 8.640625 19.527344 L 8.625 19.660156 L 8.652344 19.703125 L 8.734375 19.722656 L 8.902344 19.703125 L 9.011719 19.65625 L 9.070312 19.601562 L 9.089844 19.570312 L 9.121094 19.546875 L 9.136719 19.523438 L 9.359375 19.539062 L 9.390625 19.664062 L 9.421875 19.730469 L 9.449219 19.746094 L 9.488281 19.753906 L 9.542969 19.757812 L 9.609375 19.804688 L 9.632812 19.835938 L 9.648438 19.867188 L 9.652344 19.917969 L 9.707031 19.960938 L 9.746094 19.953125 L 9.78125 19.9375 L 9.800781 19.910156 L 9.828125 19.863281 L 9.855469 19.78125 L 9.878906 19.722656 L 9.898438 19.671875 L 9.949219 19.640625 L 9.992188 19.597656 L 10.039062 19.585938 L 10.214844 19.59375 L 10.25 19.5625 L 10.269531 19.546875 L 10.292969 19.539062 L 10.328125 19.535156 L 10.402344 19.535156 L 10.433594 19.554688 L 10.472656 19.558594 L 10.515625 19.546875 L 10.550781 19.523438 L 10.578125 19.5 L 10.59375 19.484375 L 10.632812 19.480469 C 10.632812 19.480469 10.625 19.476562 10.648438 19.480469 C 10.675781 19.484375 10.675781 19.484375 10.675781 19.484375 L 10.832031 19.546875 L 10.960938 19.570312 L 11.09375 19.570312 L 11.363281 19.578125 L 11.632812 19.601562 L 11.679688 19.605469 L 11.753906 19.597656 L 11.808594 19.585938 C 11.808594 19.585938 11.828125 19.570312 11.84375 19.554688 C 11.859375 19.539062 11.859375 19.539062 11.859375 19.539062 L 12.101562 19.464844 L 12.164062 19.425781 L 12.21875 19.367188 L 12.246094 19.328125 L 12.296875 19.285156 L 12.429688 19.28125 L 12.5 19.28125 L 12.59375 19.300781 L 12.628906 19.3125 L 12.714844 19.320312 L 12.789062 19.320312 L 12.863281 19.316406 L 12.992188 19.300781 C 12.992188 19.300781 13.023438 19.300781 13.105469 19.296875 C 13.1875 19.292969 13.1875 19.292969 13.1875 19.292969 L 13.230469 19.246094 L 13.261719 19.1875 L 13.300781 19.144531 L 13.328125 19.117188 L 13.347656 19.039062 L 13.371094 18.953125 L 13.410156 18.941406 L 13.449219 18.898438 L 13.457031 18.824219 L 13.414062 18.695312 L 13.367188 18.546875 L 13.332031 18.480469 L 13.28125 18.46875 L 13.21875 18.457031 L 13.191406 18.445312 L 13.167969 18.390625 L 13.179688 18.296875 L 13.195312 18.257812 L 13.257812 18.242188 L 13.34375 18.230469 L 13.371094 18.207031 L 13.394531 18.160156 L 13.394531 18.117188 L 13.375 18.074219 L 13.351562 18.046875 L 13.335938 18.027344 L 13.359375 17.976562 L 13.386719 17.953125 L 13.417969 17.925781 L 13.488281 17.84375 L 13.503906 17.75 L 13.503906 17.695312 L 13.59375 17.679688 L 13.640625 17.644531 L 13.667969 17.609375 L 13.722656 17.609375 L 13.800781 17.582031 L 13.898438 17.527344 L 13.941406 17.519531 L 14.035156 17.488281 L 14.074219 17.492188 L 14.105469 17.550781 L 14.140625 17.554688 L 14.179688 17.570312 L 14.203125 17.589844 L 14.242188 17.601562 C 14.242188 17.601562 14.214844 17.625 14.269531 17.601562 C 14.324219 17.582031 14.324219 17.582031 14.324219 17.582031 L 14.347656 17.542969 L 14.378906 17.515625 L 14.648438 17.246094 L 14.710938 17.203125 L 14.730469 17.160156 L 14.769531 17.128906 L 14.789062 17.125 L 14.859375 17.140625 L 14.90625 17.140625 L 14.945312 17.125 L 14.976562 17.09375 L 14.988281 17.0625 L 14.988281 16.925781 L 15.101562 16.929688 L 15.210938 16.910156 L 15.265625 16.90625 L 15.277344 16.933594 L 15.34375 16.949219 L 15.375 16.945312 L 15.398438 16.917969 L 15.40625 16.890625 L 15.394531 16.851562 L 15.347656 16.820312 L 15.207031 16.722656 L 15.207031 16.675781 L 15.246094 16.617188 L 15.28125 16.574219 C 15.28125 16.574219 15.261719 16.574219 15.320312 16.523438 C 15.378906 16.476562 15.378906 16.476562 15.378906 16.476562 L 15.574219 16.605469 L 15.613281 16.609375 L 15.671875 16.601562 L 15.734375 16.609375 L 15.785156 16.640625 L 15.808594 16.667969 L 15.835938 16.6875 L 15.875 16.6875 L 15.9375 16.703125 L 16.023438 16.707031 L 16.101562 16.707031 L 16.136719 16.660156 L 16.160156 16.597656 L 16.179688 16.566406 L 16.242188 16.558594 L 16.292969 16.554688 L 16.316406 16.527344 L 16.332031 16.472656 L 16.371094 16.429688 L 16.425781 16.378906 L 16.441406 16.363281 L 16.5 16.378906 L 16.550781 16.304688 L 16.648438 16.230469 L 16.703125 16.199219 L 16.753906 16.140625 L 16.796875 16.105469 L 16.824219 16.070312 L 16.855469 16.03125 L 16.875 16.019531 L 16.933594 16.023438 L 16.980469 16.066406 L 16.980469 16.371094 L 17 16.425781 L 17.046875 16.484375 L 17.113281 16.515625 L 17.15625 16.527344 L 17.199219 16.546875 L 17.234375 16.605469 L 17.210938 16.652344 L 17.195312 16.6875 L 17.097656 16.738281 L 17.074219 16.753906 L 17.074219 16.890625 L 17.140625 16.964844 L 17.164062 16.996094 L 17.1875 17.039062 L 17.25 17.027344 L 17.316406 17.011719 L 17.34375 17.003906 L 17.363281 17.003906 L 17.414062 17.019531 L 17.472656 17.03125 L 17.613281 17.03125 L 17.640625 17.023438 L 17.667969 17.011719 L 17.675781 16.960938 L 17.675781 16.902344 L 17.691406 16.832031 L 17.699219 16.792969 L 17.800781 16.777344 L 17.84375 16.800781 L 17.90625 16.832031 L 17.949219 16.824219 L 17.976562 16.816406 C 17.976562 16.816406 17.960938 16.808594 18.007812 16.808594 C 18.023438 16.808594 18.027344 16.808594 18.03125 16.808594 C 18.03125 16.808594 18.039062 16.808594 18.058594 16.808594 C 18.113281 16.808594 18.113281 16.808594 18.113281 16.808594 L 18.15625 16.808594 L 18.191406 16.796875 L 18.230469 16.765625 L 18.25 16.742188 L 18.269531 16.710938 L 18.300781 16.6875 L 18.410156 16.6875 L 18.441406 16.695312 L 18.460938 16.714844 L 18.46875 16.761719 L 18.472656 16.800781 L 18.488281 16.820312 L 18.527344 16.832031 L 18.703125 16.742188 L 18.769531 16.648438 L 18.796875 16.566406 L 18.863281 16.539062 L 18.929688 16.449219 L 18.953125 16.378906 L 18.972656 16.25 L 18.980469 16.191406 L 19.027344 16.125 L 19.054688 16.066406 L 19.144531 16.066406 L 19.152344 15.90625 L 19.171875 15.851562 L 19.144531 15.773438 L 19.121094 15.726562 L 19.121094 15.660156 L 19.144531 15.601562 C 19.144531 15.601562 19.179688 15.574219 19.203125 15.558594 C 19.222656 15.542969 19.261719 15.511719 19.261719 15.511719 C 19.261719 15.511719 19.277344 15.492188 19.289062 15.46875 C 19.304688 15.445312 19.304688 15.394531 19.304688 15.394531 L 19.3125 15.359375 L 19.332031 15.296875 L 19.351562 15.253906 L 19.363281 15.230469 L 19.398438 15.210938 L 19.429688 15.195312 L 19.496094 15.191406 L 19.515625 15.15625 L 19.515625 15.089844 L 19.527344 14.972656 L 19.535156 14.949219 L 19.699219 14.941406 L 19.742188 14.945312 L 19.753906 14.890625 L 19.757812 14.867188 L 19.859375 14.839844 L 19.886719 14.851562 L 19.960938 14.867188 C 19.960938 14.867188 19.9375 14.871094 20.003906 14.882812 C 20.070312 14.898438 20.105469 14.929688 20.105469 14.929688 L 20.1875 14.910156 L 20.277344 14.894531 L 20.308594 14.898438 L 20.363281 14.917969 L 20.40625 14.957031 L 20.453125 14.972656 L 20.511719 14.96875 L 20.53125 14.957031 L 20.554688 14.910156 L 20.722656 14.914062 L 20.785156 14.945312 L 20.863281 14.992188 L 20.910156 15.015625 L 21.003906 15.027344 L 21.101562 14.964844 L 21.167969 14.933594 L 21.242188 14.910156 L 21.328125 14.851562 L 21.441406 14.8125 L 21.503906 14.839844 L 21.542969 14.835938 L 21.667969 14.789062 L 21.699219 14.761719 L 21.753906 14.757812 C 21.753906 14.757812 21.828125 14.742188 21.847656 14.742188 C 21.867188 14.742188 21.917969 14.726562 21.917969 14.726562 L 21.945312 14.726562 L 21.984375 14.753906 L 22.058594 14.789062 L 22.136719 14.816406 L 22.183594 14.777344 L 22.21875 14.742188 L 22.269531 14.71875 L 22.316406 14.703125 L 22.472656 14.589844 L 22.480469 14.402344 L 22.480469 14.285156 L 22.496094 14.21875 L 22.542969 14.1875 L 22.582031 14.152344 L 22.636719 14.125 L 22.738281 14.042969 L 22.769531 13.984375 L 22.75 13.945312 L 22.722656 13.878906 L 22.726562 13.792969 L 22.742188 13.761719 L 22.859375 13.75 L 22.929688 13.691406 L 23.046875 13.578125 L 23.09375 13.558594 L 23.144531 13.554688 L 23.191406 13.554688 L 23.222656 13.515625 L 23.265625 13.46875 L 23.265625 13.429688 L 23.304688 13.414062 L 23.339844 13.328125 L 23.480469 13.328125 L 23.554688 13.273438 L 23.574219 13.226562 L 23.664062 13.195312 L 23.695312 13.167969 L 23.714844 13.164062 L 23.769531 13.164062 L 23.808594 13.152344 L 23.863281 13.152344 L 23.886719 13.144531 L 23.894531 13.105469 L 24.070312 12.890625 L 24.164062 12.882812 L 24.226562 12.808594 L 24.234375 12.757812 L 24.273438 12.730469 L 24.292969 12.714844 L 24.3125 12.714844 L 24.332031 12.769531 L 24.414062 12.789062 L 24.515625 12.714844 L 24.53125 12.667969 L 24.550781 12.617188 L 24.578125 12.597656 L 24.617188 12.59375 L 24.664062 12.589844 L 24.738281 12.589844 L 24.796875 12.496094 L 24.832031 12.460938 L 24.894531 12.457031 L 24.90625 12.519531 L 24.917969 12.574219 L 24.953125 12.609375 L 25.027344 12.597656 L 25.105469 12.59375 L 25.179688 12.59375 L 25.226562 12.585938 L 25.277344 12.558594 L 25.328125 12.550781 L 25.355469 12.523438 L 25.441406 12.402344 L 25.5625 12.175781 L 25.582031 12.09375 L 25.625 12.007812 L 25.675781 11.929688 L 25.703125 11.902344 L 25.929688 11.816406 L 26.027344 11.808594 L 26.15625 11.800781 L 26.261719 11.804688 L 26.34375 11.804688 L 26.480469 11.785156 L 26.554688 11.78125 L 26.578125 11.753906 L 26.589844 11.714844 Z M 6.496094 18.097656 L 6.472656 18.125 C 6.472656 18.125 6.472656 18.125 6.445312 18.140625 C 6.421875 18.160156 6.414062 18.171875 6.414062 18.171875 L 6.382812 18.195312 L 6.34375 18.222656 L 6.320312 18.242188 L 6.289062 18.25 L 6.261719 18.257812 L 6.207031 18.257812 L 6.171875 18.246094 L 6.15625 18.238281 L 6.144531 18.21875 L 6.152344 18.199219 L 6.167969 18.1875 L 6.179688 18.148438 L 6.140625 18.128906 L 6.105469 18.101562 L 6.066406 18.078125 L 6.042969 18.0625 L 6.042969 18.039062 L 6.050781 18.015625 L 6.070312 17.984375 L 6.109375 17.976562 L 6.191406 17.976562 L 6.210938 17.988281 L 6.25 17.988281 L 6.28125 17.996094 L 6.378906 17.996094 L 6.421875 18.003906 L 6.480469 18.03125 L 6.5 18.054688 L 6.5 18.078125 Z M 7.664062 17.992188 L 7.660156 18.011719 L 7.648438 18.019531 L 7.632812 18.027344 L 7.511719 18.027344 L 7.496094 18.042969 L 7.480469 18.046875 L 7.457031 18.046875 L 7.4375 18.015625 L 7.417969 17.988281 L 7.394531 17.964844 L 7.375 17.980469 L 7.351562 18 L 7.328125 18.023438 L 7.292969 18.050781 L 7.253906 18.046875 L 7.199219 18.046875 L 7.179688 18.042969 L 7.167969 18.015625 L 7.183594 17.988281 L 7.1875 17.96875 L 7.210938 17.945312 L 7.242188 17.917969 L 7.28125 17.894531 L 7.3125 17.875 L 7.3125 17.859375 L 7.300781 17.839844 L 7.246094 17.800781 L 7.234375 17.785156 L 7.238281 17.757812 L 7.257812 17.753906 L 7.277344 17.746094 L 7.300781 17.730469 L 7.300781 17.71875 L 7.296875 17.691406 L 7.265625 17.671875 L 7.234375 17.664062 L 7.222656 17.621094 L 7.230469 17.542969 L 7.238281 17.515625 L 7.226562 17.484375 L 7.226562 17.4375 L 7.222656 17.398438 L 7.203125 17.371094 L 7.167969 17.34375 L 7.164062 17.289062 L 7.167969 17.265625 L 7.1875 17.234375 L 7.222656 17.21875 L 7.285156 17.21875 L 7.308594 17.238281 L 7.335938 17.257812 L 7.378906 17.316406 L 7.394531 17.363281 L 7.425781 17.425781 L 7.445312 17.480469 L 7.449219 17.554688 L 7.46875 17.566406 L 7.511719 17.570312 L 7.566406 17.578125 L 7.59375 17.59375 L 7.601562 17.625 L 7.589844 17.660156 L 7.578125 17.671875 L 7.546875 17.679688 L 7.511719 17.691406 L 7.5 17.710938 L 7.515625 17.738281 L 7.535156 17.765625 L 7.570312 17.792969 L 7.59375 17.828125 L 7.628906 17.894531 L 7.660156 17.929688 L 7.671875 17.96875 Z M 8.953125 17.8125 L 8.953125 17.835938 L 8.949219 17.847656 L 8.945312 17.871094 L 8.9375 17.878906 L 8.921875 17.902344 L 8.90625 17.910156 L 8.859375 17.914062 L 8.828125 17.929688 L 8.820312 17.945312 L 8.8125 17.972656 L 8.8125 18 L 8.804688 18.003906 L 8.761719 18.007812 L 8.71875 18.019531 L 8.710938 18.019531 L 8.707031 18.003906 L 8.683594 17.972656 L 8.691406 17.945312 L 8.683594 17.917969 L 8.628906 17.917969 L 8.613281 17.902344 L 8.597656 17.882812 L 8.621094 17.820312 L 8.644531 17.796875 L 8.660156 17.800781 L 8.699219 17.792969 L 8.722656 17.789062 L 8.742188 17.789062 L 8.746094 17.777344 L 8.757812 17.753906 L 8.769531 17.726562 C 8.769531 17.726562 8.769531 17.710938 8.769531 17.699219 C 8.769531 17.6875 8.769531 17.683594 8.769531 17.683594 L 8.769531 17.648438 L 8.804688 17.652344 L 8.832031 17.664062 L 8.847656 17.671875 L 8.859375 17.683594 L 8.878906 17.6875 L 8.902344 17.710938 L 8.921875 17.734375 L 8.9375 17.761719 L 8.957031 17.792969 Z M 8.953125 17.8125 " fill-opacity="1" fill-rule="nonzero"/></g></svg>
