<svg xmlns="http://www.w3.org/2000/svg" xmlns:xlink="http://www.w3.org/1999/xlink" width="40" zoomAndPan="magnify" viewBox="0 0 30 30.000001" height="40" preserveAspectRatio="xMidYMid meet" version="1.0"><defs><clipPath id="fad3b64539"><path d="M 3.386719 4.542969 L 26.613281 4.542969 L 26.613281 24.140625 L 3.386719 24.140625 Z M 3.386719 4.542969 " clip-rule="nonzero"/></clipPath></defs><path fill="#014d4e" d="M 6.441406 20 C 6.382812 19.972656 6.308594 20 6.25 20.042969 C 6.238281 20.152344 6.222656 20.289062 6.21875 20.34375 C 6.238281 20.445312 6.199219 21.003906 6.410156 20.726562 C 6.511719 20.582031 6.65625 20.101562 6.441406 20 Z M 6.441406 20 " fill-opacity="1" fill-rule="nonzero"/><g clip-path="url(#fad3b64539)"><path fill="#014d4e" d="M 26.4375 14.0625 C 26.410156 13.9375 26.488281 13.789062 26.5 13.671875 C 26.519531 13.433594 26.453125 13.226562 26.351562 13.019531 C 26.28125 12.871094 26.269531 12.828125 26.160156 12.742188 C 26.082031 12.6875 25.964844 12.621094 26.007812 12.535156 C 25.984375 12.484375 25.964844 12.441406 25.941406 12.390625 C 25.964844 12.347656 25.980469 12.304688 25.992188 12.261719 C 26.050781 12.046875 26.011719 11.882812 26.109375 11.675781 C 26.238281 11.417969 26.191406 11.128906 26.292969 10.859375 C 26.320312 10.78125 26.347656 10.6875 26.390625 10.617188 C 26.4375 10.535156 26.503906 10.496094 26.53125 10.414062 C 26.601562 10.214844 26.4375 9.953125 26.378906 9.773438 C 26.3125 9.589844 26.1875 9.5 26.144531 9.292969 C 26.101562 9.097656 26.039062 8.9375 25.898438 8.789062 C 25.761719 8.652344 25.667969 8.632812 25.636719 8.441406 C 25.597656 8.226562 25.585938 8.007812 25.535156 7.800781 C 25.527344 7.75 25.515625 7.582031 25.480469 7.550781 C 25.433594 7.496094 25.367188 7.554688 25.300781 7.523438 C 25.175781 7.46875 25.226562 7.296875 25.179688 7.179688 C 25.132812 7.046875 25.054688 7.015625 25.101562 6.882812 C 25.191406 6.621094 25.472656 6.363281 25.507812 6.074219 C 25.519531 5.996094 25.460938 5.933594 25.472656 5.867188 C 25.480469 5.769531 25.542969 5.777344 25.613281 5.71875 C 25.71875 5.625 25.738281 5.566406 25.738281 5.421875 C 25.746094 5.308594 25.707031 5.222656 25.722656 5.113281 C 25.738281 4.980469 25.832031 4.910156 25.882812 4.796875 C 25.925781 4.691406 25.9375 4.542969 25.789062 4.558594 C 25.671875 4.578125 25.625 4.789062 25.476562 4.6875 C 25.351562 4.777344 25.425781 5.023438 25.308594 5.085938 C 25.164062 5.15625 25.054688 4.9375 24.957031 4.898438 C 24.828125 4.84375 24.652344 4.929688 24.574219 5.035156 C 24.488281 5.15625 24.535156 5.285156 24.4375 5.375 C 24.328125 5.46875 24.203125 5.402344 24.097656 5.523438 C 24.144531 5.636719 24.011719 5.746094 23.9375 5.816406 C 23.589844 5.351562 23.527344 5.878906 23.253906 6.078125 C 23.242188 6.089844 23.132812 6.210938 23.042969 6.304688 C 23.011719 6.226562 22.972656 6.15625 22.925781 6.101562 C 22.816406 5.976562 22.71875 5.988281 22.667969 5.796875 C 22.585938 5.824219 22.382812 5.90625 22.300781 5.839844 C 22.226562 5.785156 22.246094 5.691406 22.132812 5.636719 C 22.054688 5.597656 21.980469 5.625 21.898438 5.59375 C 21.796875 5.554688 21.824219 5.515625 21.78125 5.433594 C 21.695312 5.277344 21.578125 5.148438 21.488281 4.996094 C 21.355469 5.09375 21.285156 5.257812 21.164062 5.375 C 21.09375 5.441406 21.007812 5.46875 20.929688 5.527344 C 20.871094 5.578125 20.832031 5.652344 20.765625 5.6875 C 20.617188 5.757812 20.433594 5.636719 20.289062 5.667969 C 20.125 5.707031 20.152344 5.898438 20.105469 6.03125 C 20.015625 6.019531 19.792969 6.074219 19.699219 6.105469 C 19.574219 6.148438 19.519531 6.253906 19.394531 6.25 C 19.257812 6.25 19.203125 6.066406 19.125 6.0625 C 18.972656 6.050781 19.105469 6.285156 19.132812 6.347656 C 19.1875 6.476562 19.242188 6.636719 19.316406 6.761719 C 19.40625 6.90625 19.496094 6.851562 19.601562 6.941406 C 19.679688 7.007812 19.660156 7.140625 19.707031 7.242188 C 19.765625 7.375 19.863281 7.496094 19.953125 7.605469 C 19.878906 7.652344 19.734375 7.722656 19.695312 7.789062 C 19.625 7.914062 19.738281 8.070312 19.589844 8.117188 C 19.558594 8.128906 19.289062 8.128906 19.222656 8.125 C 19.125 8.117188 18.914062 8.050781 18.832031 8.003906 C 18.6875 7.914062 18.585938 7.714844 18.410156 7.695312 C 18.25 7.679688 18.300781 7.761719 18.191406 7.605469 C 18.140625 7.53125 18.085938 7.414062 18.011719 7.386719 C 17.902344 7.339844 17.710938 7.402344 17.597656 7.386719 C 17.496094 7.367188 17.421875 7.320312 17.328125 7.292969 C 17.273438 7.277344 17.140625 7.242188 17.097656 7.257812 C 17.003906 7.296875 17.011719 7.378906 16.914062 7.402344 C 16.839844 7.417969 16.75 7.378906 16.679688 7.378906 C 16.570312 7.378906 16.480469 7.429688 16.386719 7.445312 C 16.207031 7.472656 16.132812 7.285156 15.984375 7.167969 C 15.859375 7.0625 15.675781 6.964844 15.628906 6.796875 C 15.585938 6.648438 15.640625 6.5 15.433594 6.46875 C 15.289062 6.605469 15.113281 6.804688 15.027344 6.980469 C 14.988281 6.90625 14.921875 6.824219 14.894531 6.742188 C 14.863281 6.621094 14.902344 6.503906 14.824219 6.390625 C 14.796875 6.402344 14.742188 6.394531 14.714844 6.40625 C 14.632812 6.335938 14.546875 6.367188 14.453125 6.332031 C 14.382812 6.304688 14.332031 6.25 14.25 6.222656 C 14.054688 6.148438 13.894531 6.019531 13.804688 6.269531 C 13.714844 6.175781 13.589844 6.023438 13.457031 6.128906 C 13.386719 6.128906 13.164062 6.375 13.152344 6.40625 C 13.039062 6.46875 12.921875 6.523438 12.808594 6.578125 C 12.628906 6.5 12.386719 6.433594 12.304688 6.441406 C 12.175781 6.449219 12.128906 6.472656 11.996094 6.433594 C 11.90625 6.40625 11.820312 6.386719 11.730469 6.351562 C 11.546875 6.285156 11.546875 6.308594 11.34375 6.375 C 11.203125 6.421875 11.058594 6.488281 10.917969 6.558594 C 10.6875 6.675781 10.722656 6.640625 10.519531 6.566406 C 10.367188 6.503906 10.222656 6.570312 10.066406 6.554688 C 9.902344 6.539062 9.699219 6.515625 9.550781 6.445312 C 9.320312 6.332031 8.882812 6.09375 8.628906 6.230469 C 8.554688 6.269531 8.527344 6.359375 8.464844 6.394531 C 8.386719 6.445312 8.289062 6.445312 8.203125 6.460938 C 8.039062 6.496094 7.878906 6.515625 7.71875 6.566406 C 7.578125 6.609375 7.484375 6.648438 7.371094 6.71875 C 7.320312 6.75 7.273438 6.796875 7.210938 6.804688 C 7.136719 6.816406 7.113281 6.773438 7.042969 6.773438 C 6.894531 6.769531 6.742188 6.855469 6.632812 6.953125 C 6.574219 7.007812 6.605469 7.019531 6.519531 7.046875 C 6.492188 7.058594 6.425781 7.03125 6.386719 7.035156 C 6.28125 7.050781 6.101562 7.117188 6.070312 7.214844 C 6.03125 7.3125 6.097656 7.460938 6.054688 7.578125 C 5.960938 7.828125 5.738281 7.878906 5.890625 8.144531 C 5.636719 8.128906 5.480469 8.511719 5.34375 8.664062 C 5.234375 8.785156 5.179688 8.785156 5.128906 8.960938 C 5.109375 9.042969 5.097656 9.15625 5.042969 9.210938 C 4.988281 9.261719 4.878906 9.226562 4.84375 9.320312 C 4.828125 9.375 4.960938 9.445312 4.84375 9.523438 C 4.78125 9.566406 4.730469 9.488281 4.660156 9.515625 C 4.644531 9.523438 4.507812 9.714844 4.484375 9.742188 C 4.566406 9.789062 4.554688 9.925781 4.628906 9.996094 C 4.578125 10.046875 4.453125 10.117188 4.386719 10.132812 C 4.261719 10.160156 4.15625 10.078125 4.019531 10.101562 C 3.917969 10.402344 3.578125 10.0625 3.445312 10.242188 C 3.398438 10.308594 3.464844 10.515625 3.484375 10.578125 C 3.523438 10.679688 3.550781 10.675781 3.546875 10.78125 C 3.539062 10.851562 3.507812 10.921875 3.496094 10.992188 C 3.464844 11.222656 3.4375 11.550781 3.617188 11.707031 C 3.730469 11.808594 3.742188 11.800781 3.796875 11.953125 C 3.835938 12.046875 3.851562 12.144531 3.890625 12.234375 C 3.964844 12.425781 4.097656 12.589844 4.183594 12.773438 C 3.863281 13.015625 4.179688 13.171875 4.261719 13.398438 C 4.109375 13.488281 4.253906 13.5625 4.261719 13.664062 C 4.265625 13.746094 4.195312 13.789062 4.136719 13.867188 C 3.972656 14.058594 4.140625 14.101562 4.292969 14.238281 C 4.417969 14.355469 4.566406 14.484375 4.699219 14.578125 C 4.816406 14.660156 4.933594 14.707031 4.988281 14.835938 C 5.042969 14.964844 5.070312 15.097656 5.199219 15.136719 C 5.261719 15.179688 5.320312 15.226562 5.382812 15.277344 C 5.34375 15.332031 5.308594 15.382812 5.277344 15.4375 C 5.300781 15.464844 5.199219 15.554688 5.183594 15.625 C 5.167969 15.691406 5.191406 15.734375 5.210938 15.8125 C 5.261719 16.007812 5.234375 16.136719 5.171875 16.328125 C 5.125 16.484375 5.183594 16.605469 5.195312 16.769531 C 5.199219 16.960938 5.253906 16.980469 5.375 17.101562 C 5.511719 17.238281 5.457031 17.375 5.484375 17.5625 C 5.519531 17.796875 5.644531 17.820312 5.773438 17.992188 C 5.917969 18.183594 5.929688 18.273438 5.945312 18.5 C 5.957031 18.671875 6.046875 18.824219 6.113281 18.984375 C 6.195312 19.175781 6.277344 19.304688 6.414062 19.457031 C 6.527344 19.589844 6.664062 19.554688 6.785156 19.480469 C 6.882812 19.546875 6.984375 19.605469 6.988281 19.609375 C 7 19.796875 6.863281 19.839844 6.785156 19.976562 C 6.6875 20.15625 6.917969 20.238281 6.957031 20.402344 C 7 20.59375 6.71875 20.621094 6.710938 20.8125 C 6.699219 21 6.976562 21.082031 6.988281 21.257812 C 6.992188 21.347656 6.882812 21.425781 6.855469 21.507812 C 6.824219 21.609375 6.867188 21.664062 6.878906 21.773438 C 6.894531 21.984375 6.824219 22.140625 6.964844 22.328125 C 7.195312 22.621094 7.253906 22.320312 7.429688 22.195312 C 7.621094 22.058594 7.917969 22.265625 8.128906 22.265625 C 8.234375 22.265625 8.207031 22.316406 8.273438 22.195312 C 8.3125 22.121094 8.292969 22.027344 8.304688 21.945312 C 8.320312 21.796875 8.328125 21.636719 8.355469 21.496094 C 8.386719 21.3125 8.484375 21.261719 8.605469 21.136719 C 8.632812 21.109375 8.671875 21.054688 8.699219 20.992188 C 8.753906 21.046875 8.800781 21.101562 8.855469 21.15625 C 8.902344 21.230469 8.894531 21.398438 9.015625 21.402344 C 9.085938 21.402344 9.09375 21.300781 9.191406 21.371094 C 9.207031 21.382812 9.292969 21.546875 9.304688 21.574219 C 9.328125 21.648438 9.300781 21.730469 9.328125 21.808594 C 9.355469 21.882812 9.410156 21.894531 9.441406 21.957031 C 9.519531 22.097656 9.492188 22.292969 9.484375 22.441406 C 9.476562 22.699219 9.292969 22.628906 9.203125 22.8125 C 9.503906 23.019531 9.042969 23.128906 8.917969 23.191406 C 8.710938 23.289062 8.835938 23.523438 8.800781 23.714844 C 8.855469 23.722656 8.890625 23.726562 8.933594 23.6875 C 8.984375 23.78125 9.09375 24 9.207031 23.949219 C 9.277344 23.917969 9.289062 23.796875 9.367188 23.753906 C 9.453125 23.703125 9.46875 23.738281 9.558594 23.765625 C 9.710938 23.808594 9.878906 23.863281 10.027344 23.765625 C 10.15625 23.675781 10.128906 23.398438 10.257812 23.359375 C 10.421875 23.3125 10.535156 23.585938 10.660156 23.621094 C 10.757812 23.648438 10.851562 23.601562 10.945312 23.613281 C 11.058594 23.621094 11.101562 23.699219 11.207031 23.730469 C 11.246094 23.742188 11.402344 23.785156 11.449219 23.777344 C 11.550781 23.75 11.59375 23.617188 11.703125 23.605469 C 11.820312 23.59375 11.863281 23.683594 11.917969 23.75 C 11.933594 23.769531 11.941406 23.8125 11.960938 23.839844 C 11.996094 23.878906 12.039062 23.839844 12.058594 23.867188 C 12.121094 23.949219 12.082031 24.074219 12.164062 24.125 C 12.234375 24.167969 12.382812 24.085938 12.464844 24.121094 C 12.53125 24.148438 12.539062 24.230469 12.601562 24.265625 C 12.648438 24.304688 12.695312 24.300781 12.75 24.320312 C 12.835938 24.355469 13.039062 24.375 13.023438 24.480469 C 13.238281 24.304688 13.3125 24 13.578125 23.902344 C 13.699219 23.859375 13.808594 23.792969 13.929688 23.75 C 14.066406 23.699219 14.167969 23.738281 14.324219 23.730469 C 14.476562 23.726562 14.523438 23.714844 14.632812 23.585938 C 14.75 23.449219 14.863281 23.402344 15.039062 23.367188 C 15.222656 23.320312 15.355469 23.203125 15.414062 23.019531 C 15.550781 23.058594 15.710938 23.070312 15.847656 22.984375 C 15.820312 22.867188 15.785156 22.753906 15.75 22.640625 C 15.703125 22.507812 15.675781 22.402344 15.570312 22.3125 C 15.488281 22.238281 15.425781 22.230469 15.394531 22.128906 C 15.371094 22.066406 15.386719 21.875 15.449219 21.820312 C 15.535156 21.738281 15.558594 21.820312 15.644531 21.875 C 15.722656 21.921875 15.8125 21.960938 15.914062 21.949219 C 15.960938 21.945312 16.011719 21.882812 16.066406 21.882812 C 16.1875 21.890625 16.148438 22.015625 16.234375 22.070312 C 16.289062 22.101562 16.359375 22.074219 16.421875 22.09375 C 16.488281 22.113281 16.53125 22.175781 16.597656 22.191406 C 16.851562 22.261719 16.878906 21.945312 17.054688 21.800781 C 17.152344 21.726562 17.410156 21.613281 17.519531 21.621094 C 17.585938 21.628906 17.652344 21.691406 17.710938 21.699219 C 17.753906 21.703125 17.777344 21.683594 17.804688 21.683594 C 17.898438 21.683594 18.003906 21.671875 18.097656 21.636719 C 18.242188 21.589844 18.367188 21.359375 18.515625 21.359375 C 18.628906 21.359375 18.851562 21.648438 18.933594 21.753906 C 19.066406 21.921875 19.179688 22.101562 19.324219 22.257812 C 19.488281 22.230469 19.367188 22.046875 19.40625 21.949219 C 19.488281 21.964844 19.535156 22.027344 19.601562 22.070312 C 19.722656 22.152344 19.734375 22.097656 19.832031 22.121094 C 19.984375 22.152344 20.105469 22.21875 20.273438 22.238281 C 20.441406 22.257812 20.597656 22.3125 20.519531 22.082031 C 20.460938 21.90625 20.367188 21.855469 20.363281 21.671875 C 20.355469 21.550781 20.339844 21.398438 20.234375 21.3125 C 20.175781 21.261719 20.066406 21.289062 20.023438 21.238281 C 19.984375 21.195312 20.035156 21.121094 20.023438 21.066406 C 20 20.945312 19.914062 20.8125 19.820312 20.730469 C 19.714844 20.636719 19.660156 20.65625 19.523438 20.609375 C 19.367188 20.5625 19.394531 20.46875 19.304688 20.320312 C 19.246094 20.21875 19.179688 20.121094 19.117188 20.019531 C 19.015625 19.867188 18.996094 19.863281 19.054688 19.691406 C 19.09375 19.578125 19.125 19.472656 19.136719 19.347656 C 19.148438 19.210938 19.144531 19.15625 19.042969 19.054688 C 18.957031 18.960938 18.84375 18.921875 18.824219 18.796875 C 18.78125 18.464844 19.1875 18.617188 19.367188 18.523438 C 19.480469 18.46875 19.523438 18.355469 19.570312 18.246094 C 19.628906 18.101562 19.613281 18.109375 19.769531 18.074219 C 19.871094 18.054688 19.972656 18.03125 20.070312 18.070312 C 20.148438 18.101562 20.179688 18.15625 20.253906 18.15625 C 20.382812 18.136719 20.515625 18.117188 20.640625 18.089844 C 20.722656 18.222656 20.816406 18.375 20.90625 18.414062 C 21.035156 18.304688 21.28125 18.238281 21.40625 18.398438 C 21.480469 18.234375 21.488281 17.933594 21.300781 17.828125 C 21.367188 17.742188 21.464844 17.589844 21.503906 17.484375 C 21.558594 17.328125 21.398438 17.195312 21.445312 17.070312 C 21.515625 17.109375 21.601562 17.136719 21.652344 17.207031 C 21.722656 17.15625 21.75 17.074219 21.820312 17.019531 C 21.902344 16.960938 22.050781 16.925781 22.144531 16.910156 C 22.242188 16.894531 22.339844 16.910156 22.4375 16.890625 C 22.488281 16.878906 22.527344 16.835938 22.574219 16.824219 C 22.644531 16.8125 22.683594 16.835938 22.746094 16.828125 C 22.878906 16.820312 22.871094 16.824219 22.925781 16.660156 C 22.957031 16.574219 22.960938 16.4375 23.035156 16.371094 C 23.171875 16.246094 23.308594 16.414062 23.449219 16.429688 C 23.679688 16.457031 23.828125 16.320312 23.972656 16.183594 C 24.109375 16.054688 24.253906 15.953125 24.390625 15.828125 C 24.5 15.730469 24.589844 15.621094 24.691406 15.519531 C 24.820312 15.371094 24.882812 15.472656 25.035156 15.398438 C 25.148438 15.34375 25.171875 15.152344 25.308594 15.144531 C 25.472656 15.136719 25.515625 15.335938 25.609375 15.410156 C 25.667969 15.453125 25.75 15.445312 25.808594 15.492188 C 25.882812 15.539062 25.808594 15.632812 25.914062 15.554688 C 26.027344 15.472656 25.972656 15.289062 26.027344 15.183594 C 26.0625 15.117188 26.160156 15.0625 26.210938 15.003906 C 26.253906 14.945312 26.285156 14.871094 26.335938 14.8125 C 26.4375 14.6875 26.570312 14.609375 26.585938 14.445312 C 26.574219 14.246094 26.464844 14.195312 26.4375 14.0625 Z M 26.4375 14.0625 " fill-opacity="1" fill-rule="nonzero"/></g></svg>