<svg xmlns="http://www.w3.org/2000/svg" width="40" zoomAndPan="magnify" viewBox="0 0 30 30.000001" height="40"
     preserveAspectRatio="xMidYMid meet" version="1.0"><defs><clipPath id="05e7b31e05"><path d="M 3.386719 5.660156 L 26.613281 5.660156 L 26.613281 23.082031 L 3.386719 23.082031 Z M 3.386719 5.660156 " clip-rule="nonzero"/></clipPath></defs><path fill="#014d4e" d="M 7.117188 11.027344 C 7.066406 11.027344 7.066406 11.058594 7.066406 11.089844 C 7.066406 11.164062 7.074219 11.242188 7.144531 11.273438 C 7.234375 11.308594 7.28125 11.230469 7.304688 11.167969 C 7.355469 11.035156 7.390625 10.898438 7.339844 10.757812 C 7.34375 10.679688 7.351562 10.601562 7.347656 10.527344 C 7.339844 10.453125 7.292969 10.421875 7.226562 10.464844 C 7.101562 10.539062 7.121094 10.738281 7.257812 10.816406 C 7.328125 10.984375 7.300781 11.03125 7.117188 11.027344 Z M 7.117188 11.027344 " fill-opacity="1" fill-rule="evenodd"/><path fill="#014d4e" d="M 7.660156 9.625 C 7.621094 9.53125 7.585938 9.445312 7.539062 9.332031 C 7.414062 9.507812 7.441406 9.574219 7.660156 9.625 Z M 7.660156 9.625 " fill-opacity="1" fill-rule="evenodd"/><path fill="#014d4e" d="M 8.828125 8.519531 C 8.75 8.441406 8.664062 8.386719 8.546875 8.417969 C 8.628906 8.492188 8.726562 8.523438 8.828125 8.519531 Z M 8.828125 8.519531 " fill-opacity="1" fill-rule="evenodd"/><g clip-path="url(#05e7b31e05)"><path fill="#014d4e" d="M 26.597656 22.234375 C 26.582031 21.871094 26.542969 21.511719 26.46875 21.15625 C 26.351562 20.601562 26.140625 20.074219 25.828125 19.59375 C 25.777344 19.515625 25.714844 19.460938 25.628906 19.417969 C 25.210938 19.21875 24.746094 19.179688 24.324219 19 C 24.277344 18.980469 24.222656 18.976562 24.171875 18.976562 C 23.691406 18.96875 23.210938 18.996094 22.730469 18.90625 C 22.316406 18.832031 21.890625 18.804688 21.5625 18.503906 C 21.398438 18.351562 21.222656 18.304688 21.007812 18.296875 C 20.679688 18.289062 20.355469 18.261719 20.09375 18.007812 C 19.949219 17.871094 19.738281 17.859375 19.539062 17.878906 C 19.296875 17.902344 19.070312 17.859375 18.882812 17.710938 C 18.695312 17.5625 18.488281 17.53125 18.269531 17.539062 C 18.175781 17.542969 18.085938 17.550781 18 17.507812 C 17.757812 17.378906 17.507812 17.257812 17.339844 17.023438 C 17.269531 16.921875 17.160156 16.875 17.035156 16.890625 C 16.882812 16.910156 16.746094 16.875 16.632812 16.785156 C 16.265625 16.492188 15.890625 16.199219 15.59375 15.839844 C 15.371094 15.566406 15.25 15.191406 15.414062 14.855469 C 15.625 14.429688 15.570312 14.070312 15.292969 13.714844 C 15.257812 13.667969 15.234375 13.617188 15.210938 13.5625 C 15.171875 13.480469 15.152344 13.390625 15.160156 13.300781 C 15.183594 12.960938 15.167969 12.617188 15.332031 12.304688 C 15.367188 12.238281 15.359375 12.152344 15.359375 12.074219 C 15.363281 11.9375 15.402344 11.808594 15.453125 11.679688 C 15.628906 11.234375 15.953125 10.90625 16.304688 10.601562 C 16.53125 10.402344 16.816406 10.273438 17 10.015625 C 17.191406 9.75 17.285156 9.269531 17.152344 9.070312 C 16.964844 8.785156 16.75 8.515625 16.503906 8.273438 C 16.355469 8.125 16.183594 8.0625 15.964844 8.078125 C 15.25 8.125 14.539062 8.109375 13.824219 8.136719 C 13.503906 8.148438 13.152344 8.042969 12.824219 7.957031 C 12.234375 7.800781 11.738281 7.425781 11.15625 7.25 C 10.988281 7.199219 10.832031 7.097656 10.671875 7.011719 C 10.550781 6.949219 10.464844 6.859375 10.394531 6.734375 C 10.242188 6.46875 10.019531 6.257812 9.804688 6.042969 C 9.742188 5.980469 9.65625 5.9375 9.566406 5.925781 C 9.34375 5.890625 9.117188 5.84375 8.894531 5.863281 C 8.738281 5.875 8.601562 5.835938 8.457031 5.789062 C 8.191406 5.707031 7.921875 5.671875 7.664062 5.835938 C 7.609375 5.875 7.550781 5.914062 7.472656 5.914062 C 7.078125 5.925781 6.695312 5.988281 6.3125 6.089844 C 6.097656 6.148438 5.851562 6.523438 5.886719 6.78125 C 5.929688 7.113281 6.105469 7.347656 6.28125 7.601562 C 6.660156 8.15625 7.011719 8.726562 7.199219 9.378906 C 7.214844 9.429688 7.222656 9.484375 7.285156 9.492188 C 7.339844 9.5 7.382812 9.472656 7.40625 9.417969 C 7.441406 9.351562 7.398438 9.308594 7.351562 9.269531 C 7.304688 9.230469 7.28125 9.175781 7.25 9.128906 C 7.109375 8.914062 7.152344 8.644531 7 8.4375 C 6.886719 8.289062 6.816406 8.109375 6.722656 7.949219 C 6.605469 7.734375 6.621094 7.578125 6.804688 7.4375 C 6.976562 7.304688 7.179688 7.21875 7.34375 7.082031 C 7.488281 6.960938 7.652344 6.917969 7.828125 6.890625 C 7.925781 6.875 8.03125 6.875 8.082031 6.980469 C 8.121094 7.046875 8.136719 7.140625 8.066406 7.195312 C 7.988281 7.253906 7.894531 7.308594 7.789062 7.21875 C 7.75 7.183594 7.6875 7.171875 7.660156 7.238281 C 7.628906 7.316406 7.761719 7.511719 7.859375 7.527344 C 7.960938 7.546875 8.070312 7.554688 8.160156 7.503906 C 8.308594 7.425781 8.433594 7.464844 8.5625 7.542969 C 8.75 7.65625 8.9375 7.769531 9.132812 7.875 C 9.226562 7.925781 9.320312 7.984375 9.441406 7.964844 C 9.894531 7.886719 10.21875 8.070312 10.425781 8.46875 C 10.488281 8.585938 10.566406 8.601562 10.679688 8.582031 C 10.902344 8.542969 10.988281 8.632812 10.960938 8.855469 C 10.949219 8.953125 10.941406 9.066406 11.003906 9.136719 C 11.121094 9.273438 11.125 9.410156 11.074219 9.570312 C 11.046875 9.660156 11.054688 9.75 11.164062 9.792969 C 11.269531 9.835938 11.460938 9.746094 11.4375 9.980469 C 11.433594 9.984375 11.460938 10 11.46875 9.996094 C 11.605469 9.9375 11.695312 10.0625 11.804688 10.082031 C 11.925781 10.101562 11.941406 10.15625 11.914062 10.234375 C 11.867188 10.382812 12.027344 10.480469 11.992188 10.621094 C 11.988281 10.644531 12.050781 10.667969 12.066406 10.636719 C 12.128906 10.519531 12.28125 10.511719 12.339844 10.414062 C 12.460938 10.214844 12.648438 10.183594 12.847656 10.175781 C 12.851562 10.171875 12.851562 10.171875 12.851562 10.171875 C 12.855469 10.167969 12.859375 10.167969 12.859375 10.167969 C 12.914062 10.105469 12.960938 10.042969 12.914062 9.949219 C 12.878906 9.882812 12.875 9.820312 12.945312 9.761719 C 13.03125 9.695312 13.09375 9.746094 13.15625 9.789062 C 13.332031 9.914062 13.46875 10.097656 13.675781 10.1875 C 13.75 10.21875 13.824219 10.261719 13.902344 10.289062 C 14.085938 10.351562 14.21875 10.265625 14.25 10.078125 C 14.265625 9.988281 14.292969 9.902344 14.339844 9.824219 C 14.488281 9.589844 14.707031 9.566406 14.898438 9.769531 C 14.992188 9.871094 15.039062 10.011719 15.191406 10.066406 C 15.273438 10.097656 15.207031 10.140625 15.160156 10.167969 C 14.964844 10.273438 14.75 10.308594 14.53125 10.304688 C 14.371094 10.300781 14.316406 10.34375 14.34375 10.519531 C 14.371094 10.699219 14.40625 10.847656 14.554688 10.972656 C 14.710938 11.101562 14.710938 11.292969 14.648438 11.472656 C 14.546875 11.78125 14.457031 11.84375 14.097656 11.800781 C 13.859375 11.769531 13.652344 11.820312 13.445312 11.929688 C 13.382812 11.960938 13.394531 12.003906 13.410156 12.054688 C 13.445312 12.175781 13.476562 12.296875 13.519531 12.449219 C 13.371094 12.390625 13.367188 12.289062 13.363281 12.203125 C 13.347656 12.015625 13.261719 11.878906 13.109375 11.769531 C 12.933594 11.640625 12.910156 11.457031 13.058594 11.304688 C 13.230469 11.132812 13.292969 10.945312 13.238281 10.710938 C 13.21875 10.621094 13.226562 10.53125 13.214844 10.441406 C 13.191406 10.175781 13.125 10.125 12.863281 10.167969 C 12.859375 10.171875 12.859375 10.171875 12.855469 10.175781 C 12.851562 10.175781 12.851562 10.175781 12.847656 10.175781 C 12.78125 10.28125 12.730469 10.410156 12.589844 10.433594 C 12.414062 10.464844 12.410156 10.574219 12.445312 10.707031 C 12.464844 10.78125 12.503906 10.855469 12.421875 10.929688 C 12.347656 10.832031 12.230469 10.816406 12.125 10.773438 C 11.988281 10.722656 11.957031 10.800781 11.976562 10.910156 C 12.011719 11.085938 12.164062 11.050781 12.277344 11.035156 C 12.449219 11.019531 12.480469 11.109375 12.476562 11.242188 C 12.46875 11.4375 12.464844 11.628906 12.332031 11.804688 C 12.195312 11.984375 12.382812 12.113281 12.472656 12.242188 C 12.546875 12.347656 12.625 12.269531 12.707031 12.230469 C 12.878906 12.152344 13.089844 12.308594 13.066406 12.5 C 13.035156 12.785156 12.9375 12.914062 12.519531 12.917969 C 12.328125 12.917969 12.171875 12.992188 12.085938 13.144531 C 11.921875 13.429688 12.003906 13.800781 12.253906 14.015625 C 12.347656 14.097656 12.46875 14.144531 12.546875 14.234375 C 12.757812 14.46875 12.96875 14.617188 13.285156 14.417969 C 13.339844 14.382812 13.433594 14.386719 13.464844 14.472656 C 13.5 14.570312 13.410156 14.59375 13.351562 14.625 C 13.050781 14.792969 12.734375 14.871094 12.386719 14.824219 C 12.320312 14.8125 12.238281 14.789062 12.191406 14.867188 C 12.15625 14.933594 12.167969 15.003906 12.210938 15.066406 C 12.246094 15.117188 12.3125 15.175781 12.257812 15.238281 C 12.191406 15.308594 12.125 15.230469 12.070312 15.199219 C 11.875 15.066406 11.699219 14.902344 11.476562 14.800781 C 11.359375 14.746094 11.257812 14.765625 11.203125 14.855469 C 11.070312 15.0625 10.964844 15.28125 10.746094 15.414062 C 10.707031 15.441406 10.695312 15.492188 10.71875 15.539062 C 10.746094 15.589844 10.796875 15.574219 10.839844 15.570312 C 10.953125 15.554688 11.039062 15.484375 11.136719 15.433594 C 11.570312 15.214844 11.835938 15.351562 12.128906 15.632812 C 12.214844 15.714844 12.230469 15.820312 12.152344 15.914062 C 11.921875 16.195312 11.5625 16.351562 11.242188 16.082031 C 11.136719 15.992188 11.035156 15.902344 10.921875 15.832031 C 10.769531 15.734375 10.527344 15.808594 10.550781 15.941406 C 10.601562 16.195312 10.449219 16.222656 10.269531 16.246094 C 10.117188 16.261719 9.960938 16.242188 9.871094 16.109375 C 9.773438 15.96875 9.84375 15.84375 9.972656 15.746094 C 10.007812 15.71875 10.050781 15.683594 10.007812 15.636719 C 9.96875 15.585938 9.933594 15.644531 9.894531 15.652344 C 9.804688 15.671875 9.722656 15.769531 9.621094 15.699219 C 9.480469 15.605469 9.363281 15.667969 9.257812 15.761719 C 9.203125 15.808594 9.164062 15.8125 9.089844 15.800781 C 8.929688 15.78125 8.792969 15.652344 8.644531 15.667969 C 8.394531 15.691406 8.246094 15.550781 8.085938 15.414062 C 8 15.339844 7.914062 15.261719 7.828125 15.183594 C 7.632812 15 7.394531 15.070312 7.171875 15.074219 C 7.09375 15.074219 7.039062 15.152344 7.027344 15.234375 C 6.996094 15.453125 6.855469 15.496094 6.671875 15.460938 C 6.15625 15.367188 5.671875 15.507812 5.1875 15.648438 C 5.039062 15.691406 4.976562 15.824219 4.949219 15.953125 C 4.925781 16.066406 5.0625 16.039062 5.128906 16.074219 C 5.195312 16.113281 5.222656 16.164062 5.183594 16.234375 C 5.148438 16.304688 5.121094 16.367188 5.132812 16.453125 C 5.152344 16.554688 5.058594 16.554688 5.003906 16.539062 C 4.953125 16.527344 4.84375 16.5625 4.878906 16.433594 C 4.902344 16.328125 4.835938 16.265625 4.742188 16.269531 C 4.667969 16.273438 4.550781 16.234375 4.527344 16.339844 C 4.507812 16.4375 4.609375 16.453125 4.683594 16.472656 C 4.699219 16.476562 4.710938 16.484375 4.746094 16.503906 C 4.628906 16.554688 4.523438 16.609375 4.425781 16.535156 C 4.34375 16.46875 4.238281 16.390625 4.257812 16.269531 C 4.28125 16.140625 4.417969 16.167969 4.511719 16.136719 C 4.683594 16.082031 4.734375 15.996094 4.679688 15.8125 C 4.648438 15.707031 4.605469 15.597656 4.632812 15.488281 C 4.742188 15.078125 4.761719 14.628906 5.144531 14.335938 C 5.195312 14.300781 5.226562 14.238281 5.257812 14.179688 C 5.34375 14.011719 5.457031 13.859375 5.613281 13.75 C 5.855469 13.582031 6.019531 13.328125 6.238281 13.128906 C 6.449219 12.941406 6.648438 12.769531 6.910156 12.667969 C 6.953125 12.652344 6.996094 12.628906 7.023438 12.59375 C 7.105469 12.5 7.027344 12.414062 6.988281 12.328125 C 6.964844 12.285156 6.925781 12.300781 6.894531 12.332031 C 6.667969 12.542969 6.390625 12.699219 6.171875 12.90625 C 5.820312 13.246094 5.445312 13.550781 5.058594 13.835938 C 4.921875 13.941406 4.824219 14.0625 4.789062 14.226562 C 4.722656 14.511719 4.546875 14.734375 4.394531 14.96875 C 4.175781 15.308594 3.867188 15.566406 3.558594 15.824219 C 3.46875 15.898438 3.386719 15.972656 3.464844 16.101562 C 3.742188 16.570312 4.082031 16.984375 4.578125 17.246094 C 4.894531 17.410156 5.183594 17.402344 5.453125 17.15625 C 5.789062 16.84375 6.203125 16.699219 6.652344 16.644531 C 6.796875 16.628906 6.890625 16.578125 6.9375 16.429688 C 6.972656 16.3125 7.054688 16.246094 7.1875 16.28125 C 7.574219 16.386719 7.964844 16.472656 8.292969 16.730469 C 8.332031 16.761719 8.425781 16.78125 8.386719 16.847656 C 8.355469 16.910156 8.234375 16.921875 8.199219 16.878906 C 7.980469 16.625 7.585938 16.75 7.371094 16.484375 C 7.320312 16.421875 7.199219 16.4375 7.148438 16.550781 C 7.132812 16.59375 7.125 16.632812 7.179688 16.640625 C 7.449219 16.664062 7.65625 16.871094 7.921875 16.902344 C 8.058594 16.917969 8.136719 17.003906 8.191406 17.125 C 8.320312 17.398438 8.4375 17.679688 8.585938 17.945312 C 8.878906 18.480469 9.222656 18.988281 9.753906 19.3125 C 10.351562 19.675781 11.035156 19.800781 11.71875 19.929688 C 12.300781 20.035156 12.90625 19.980469 13.46875 20.207031 C 13.632812 20.273438 13.804688 20.246094 13.980469 20.199219 C 14.394531 20.082031 14.816406 19.984375 15.257812 20.042969 C 15.546875 20.082031 15.8125 20.203125 16.082031 20.300781 C 16.558594 20.480469 17.070312 20.453125 17.5625 20.535156 C 17.945312 20.601562 18.316406 20.6875 18.628906 20.949219 C 18.875 21.152344 19.125 21.363281 19.441406 21.460938 C 19.617188 21.519531 19.8125 21.519531 19.957031 21.660156 C 20.25 21.953125 20.617188 22.101562 21.015625 22.191406 C 21.484375 22.296875 21.863281 22.546875 22.191406 22.894531 C 22.386719 23.101562 22.617188 23.238281 22.910156 23.28125 C 23.402344 23.355469 23.898438 23.320312 24.394531 23.324219 C 24.597656 23.324219 24.8125 23.308594 24.992188 23.195312 C 25.195312 23.070312 25.425781 23.03125 25.652344 22.984375 C 25.816406 22.949219 25.980469 22.917969 26.140625 22.875 C 26.414062 22.804688 26.613281 22.519531 26.597656 22.234375 Z M 12.878906 17.605469 C 12.835938 17.613281 12.828125 17.578125 12.820312 17.546875 C 12.8125 17.492188 12.824219 17.441406 12.878906 17.421875 C 12.925781 17.402344 12.9375 17.449219 12.945312 17.484375 C 12.945312 17.539062 12.941406 17.59375 12.878906 17.605469 Z M 14.734375 15.757812 C 14.777344 15.757812 14.820312 15.765625 14.820312 15.8125 C 14.820312 15.867188 14.78125 15.902344 14.722656 15.90625 C 14.683594 15.910156 14.636719 15.917969 14.636719 15.863281 C 14.640625 15.804688 14.6875 15.777344 14.734375 15.757812 Z M 14.671875 16.042969 C 14.738281 16.023438 14.8125 16.011719 14.878906 16.003906 C 14.929688 15.996094 14.992188 15.976562 15 16.054688 C 15.003906 16.113281 14.960938 16.144531 14.90625 16.15625 C 14.835938 16.167969 14.765625 16.175781 14.683594 16.183594 C 14.625 16.175781 14.519531 16.273438 14.496094 16.179688 C 14.472656 16.097656 14.59375 16.066406 14.671875 16.042969 Z M 14.457031 15.882812 C 14.460938 15.882812 14.496094 15.921875 14.492188 15.9375 C 14.46875 16.035156 14.414062 16.09375 14.296875 16.074219 C 14.316406 15.976562 14.363281 15.910156 14.457031 15.882812 Z M 14.027344 16.125 C 14.066406 16.09375 14.144531 16.121094 14.128906 16.1875 C 14.109375 16.28125 14.050781 16.363281 13.9375 16.371094 C 13.871094 16.378906 13.792969 16.382812 13.789062 16.296875 C 13.78125 16.136719 13.949219 16.1875 14.027344 16.125 Z M 13.9375 16.90625 C 13.867188 16.925781 13.78125 16.964844 13.722656 16.886719 C 13.664062 16.800781 13.730469 16.726562 13.78125 16.660156 C 13.816406 16.613281 13.859375 16.574219 13.914062 16.554688 C 14.066406 16.507812 14.199219 16.433594 14.289062 16.292969 C 14.242188 16.546875 14.242188 16.816406 13.9375 16.90625 Z M 15.398438 17.390625 C 15.242188 17.425781 15.121094 17.550781 15.007812 17.671875 C 14.871094 17.832031 14.832031 18.039062 14.730469 18.210938 C 14.703125 18.257812 14.699219 18.332031 14.636719 18.304688 C 14.476562 18.246094 14.296875 18.238281 14.183594 18.085938 C 14.105469 17.984375 14.113281 17.890625 14.234375 17.859375 C 14.496094 17.785156 14.585938 17.507812 14.816406 17.398438 C 14.84375 17.386719 14.855469 17.335938 14.871094 17.304688 C 14.9375 17.140625 15.011719 17.082031 15.171875 17.058594 C 15.308594 17.03125 15.410156 17.074219 15.476562 17.183594 C 15.539062 17.28125 15.578125 17.355469 15.398438 17.390625 Z M 17.074219 19.59375 C 16.984375 19.710938 17.015625 19.910156 16.824219 19.949219 C 16.816406 19.949219 16.8125 19.957031 16.808594 19.960938 C 16.730469 20.273438 16.625 20.027344 16.535156 19.972656 C 16.433594 19.914062 16.378906 19.808594 16.28125 19.742188 C 16.179688 19.675781 16.21875 19.539062 16.296875 19.472656 C 16.359375 19.425781 16.46875 19.433594 16.53125 19.355469 C 16.660156 19.457031 16.730469 19.347656 16.816406 19.289062 C 16.898438 19.234375 16.964844 19.285156 17.023438 19.335938 C 17.105469 19.40625 17.140625 19.511719 17.074219 19.59375 Z M 19.09375 20.605469 C 19.015625 20.691406 18.914062 20.71875 18.8125 20.671875 C 18.625 20.585938 18.449219 20.480469 18.261719 20.394531 C 17.996094 20.273438 17.742188 20.109375 17.429688 20.117188 C 17.296875 20.117188 17.191406 19.921875 17.191406 19.71875 C 17.1875 19.617188 17.296875 19.515625 17.441406 19.496094 C 17.664062 19.515625 17.917969 19.496094 18.089844 19.722656 C 18.121094 19.765625 18.167969 19.8125 18.214844 19.804688 C 18.441406 19.765625 18.5625 19.9375 18.710938 20.050781 C 18.769531 20.089844 18.820312 20.148438 18.898438 20.125 C 19.019531 20.082031 19.085938 20.144531 19.125 20.242188 C 19.179688 20.367188 19.1875 20.496094 19.09375 20.605469 Z M 23.472656 22.085938 C 23.351562 22.074219 23.226562 22.105469 23.105469 22.140625 C 23.066406 22.152344 23.015625 22.167969 22.992188 22.152344 C 22.667969 21.941406 22.300781 22.074219 21.957031 22.015625 C 21.753906 21.980469 21.566406 21.925781 21.503906 21.6875 C 21.488281 21.625 21.449219 21.554688 21.378906 21.558594 C 21.15625 21.578125 20.941406 21.507812 20.722656 21.558594 C 20.457031 21.621094 20.242188 21.546875 20.070312 21.328125 C 19.925781 21.144531 19.75 20.996094 19.550781 20.871094 C 19.378906 20.765625 19.386719 20.597656 19.5625 20.5 C 19.894531 20.308594 19.992188 20.324219 20.238281 20.609375 C 20.308594 20.6875 20.386719 20.753906 20.488281 20.734375 C 20.699219 20.699219 20.84375 20.804688 20.992188 20.925781 C 21.113281 21.023438 21.28125 21.074219 21.394531 21.148438 C 21.558594 21.253906 21.683594 21.171875 21.8125 21.207031 C 21.960938 21.246094 22.050781 21.460938 22.261719 21.402344 C 22.265625 21.398438 22.300781 21.476562 22.3125 21.519531 C 22.328125 21.585938 22.359375 21.625 22.433594 21.601562 C 22.503906 21.578125 22.535156 21.601562 22.5625 21.671875 C 22.636719 21.875 22.652344 21.875 22.820312 21.714844 C 23.042969 21.503906 23.5 21.59375 23.605469 21.875 C 23.65625 22.007812 23.617188 22.070312 23.472656 22.085938 Z M 23.472656 22.085938 " fill-opacity="1" fill-rule="evenodd"/></g></svg>
