<svg xmlns="http://www.w3.org/2000/svg" xmlns:xlink="http://www.w3.org/1999/xlink" width="40" zoomAndPan="magnify" viewBox="0 0 30 30.000001" height="40" preserveAspectRatio="xMidYMid meet" version="1.0"><defs><clipPath id="c483b40f42"><path d="M 20 17 L 26.613281 17 L 26.613281 23.589844 L 20 23.589844 Z M 20 17 " clip-rule="nonzero"/></clipPath><clipPath id="9b47098aa4"><path d="M 10 21 L 15 21 L 15 23.589844 L 10 23.589844 Z M 10 21 " clip-rule="nonzero"/></clipPath><clipPath id="95d620c205"><path d="M 3.386719 5.445312 L 9 5.445312 L 9 16 L 3.386719 16 Z M 3.386719 5.445312 " clip-rule="nonzero"/></clipPath></defs><g clip-path="url(#c483b40f42)"><path fill="#014d4e" d="M 22.261719 20.144531 C 22.367188 20.132812 22.488281 20.136719 22.585938 20.121094 C 22.871094 20.0625 23.160156 20.074219 23.445312 20.023438 C 23.578125 20 23.785156 19.964844 23.890625 19.890625 C 23.984375 19.835938 23.984375 19.761719 24.035156 19.683594 C 24.085938 19.609375 24.160156 19.558594 24.214844 19.484375 C 24.328125 19.324219 24.488281 19.175781 24.597656 19.007812 C 24.640625 18.933594 24.664062 18.832031 24.660156 18.746094 C 24.648438 18.550781 24.429688 18.488281 24.601562 18.3125 C 24.699219 18.207031 24.84375 18.167969 24.976562 18.132812 C 25.0625 18.117188 25.070312 18.121094 25.140625 18.054688 C 25.179688 18.011719 25.164062 17.960938 25.238281 17.9375 C 25.414062 17.886719 25.511719 18.167969 25.585938 18.257812 C 25.671875 18.363281 25.777344 18.40625 25.78125 18.539062 C 25.789062 18.648438 25.714844 18.675781 25.695312 18.773438 C 25.671875 18.902344 25.84375 19.066406 25.886719 19.199219 C 25.941406 19.359375 25.917969 19.523438 26.003906 19.679688 C 26.050781 19.761719 26.113281 19.8125 26.167969 19.878906 C 26.210938 19.941406 26.273438 20.039062 26.285156 20.113281 C 26.296875 20.210938 26.230469 20.316406 26.242188 20.40625 C 26.253906 20.503906 26.347656 20.597656 26.394531 20.683594 C 26.457031 20.789062 26.476562 20.910156 26.480469 21.039062 C 26.5 21.265625 26.390625 21.460938 26.378906 21.667969 C 26.371094 21.890625 26.554688 22.0625 26.511719 22.285156 C 26.464844 22.496094 26.527344 22.726562 26.539062 22.949219 C 26.542969 23.054688 26.613281 23.21875 26.539062 23.316406 C 26.492188 23.378906 26.378906 23.375 26.316406 23.402344 C 26.1875 23.449219 26.085938 23.535156 25.949219 23.464844 C 25.867188 23.425781 25.792969 23.328125 25.777344 23.226562 C 25.753906 23.074219 25.863281 23.046875 25.71875 22.921875 C 25.585938 22.808594 25.480469 22.675781 25.359375 22.539062 C 25.234375 22.394531 25.089844 22.390625 24.921875 22.324219 C 24.792969 22.273438 24.746094 22.113281 24.695312 21.988281 C 24.621094 21.816406 24.589844 21.808594 24.417969 21.753906 C 24.292969 21.714844 24.21875 21.714844 24.15625 21.597656 C 24.085938 21.484375 24.074219 21.402344 23.949219 21.335938 C 23.839844 21.277344 23.75 21.199219 23.652344 21.140625 C 23.554688 21.089844 23.40625 20.972656 23.289062 20.972656 C 23.214844 20.972656 23.171875 21.03125 23.101562 21.035156 C 23.085938 21.035156 23.003906 21.007812 22.988281 21.003906 C 22.871094 20.96875 22.84375 20.917969 22.746094 20.847656 C 22.605469 20.738281 22.464844 20.738281 22.3125 20.675781 C 22.164062 20.613281 22.019531 20.53125 21.863281 20.46875 C 21.753906 20.425781 21.636719 20.378906 21.527344 20.328125 C 21.421875 20.28125 21.335938 20.171875 21.234375 20.109375 C 21.148438 20.050781 20.800781 19.839844 20.949219 19.75 C 21 19.71875 21.121094 19.738281 21.175781 19.761719 C 21.273438 19.792969 21.292969 19.890625 21.382812 19.933594 C 21.445312 19.953125 21.527344 19.921875 21.601562 19.941406 C 21.675781 19.964844 21.734375 20.027344 21.808594 20.050781 C 21.910156 20.082031 21.894531 20.007812 21.980469 20 C 22.035156 19.996094 22.078125 20.050781 22.128906 20.074219 C 22.144531 20.074219 22.203125 20.109375 22.261719 20.144531 Z M 22.261719 20.144531 " fill-opacity="1" fill-rule="nonzero"/></g><g clip-path="url(#9b47098aa4)"><path fill="#014d4e" d="M 11.121094 22.496094 C 10.960938 22.445312 10.757812 22.398438 10.703125 22.273438 C 10.617188 22.097656 10.621094 21.90625 10.550781 21.71875 C 10.507812 21.585938 10.433594 21.519531 10.488281 21.410156 C 10.519531 21.351562 10.605469 21.226562 10.648438 21.179688 C 10.789062 21.054688 11.039062 21.070312 11.113281 21.242188 C 11.234375 21.105469 11.503906 21.230469 11.640625 21.277344 C 11.835938 21.347656 11.980469 21.375 12.109375 21.535156 C 12.226562 21.667969 12.257812 21.636719 12.417969 21.644531 C 12.484375 21.644531 12.527344 21.667969 12.589844 21.679688 C 12.675781 21.703125 12.796875 21.683594 12.871094 21.734375 C 12.921875 21.769531 12.957031 21.851562 13.003906 21.894531 C 13.113281 22.015625 13.214844 22.136719 13.363281 22.199219 C 13.507812 22.257812 13.652344 22.3125 13.789062 22.382812 C 13.964844 22.46875 14.183594 22.476562 14.339844 22.601562 C 14.449219 22.6875 14.550781 22.835938 14.613281 22.957031 C 14.660156 23.046875 14.703125 23.179688 14.703125 23.269531 C 14.703125 23.304688 14.683594 23.363281 14.683594 23.402344 C 14.683594 23.453125 14.6875 23.527344 14.703125 23.582031 C 14.417969 23.476562 14.09375 23.28125 13.765625 23.277344 C 13.707031 23.277344 13.644531 23.304688 13.582031 23.292969 C 13.519531 23.28125 13.449219 23.226562 13.394531 23.203125 C 13.363281 23.183594 13.257812 23.121094 13.234375 23.121094 C 13.179688 23.121094 13.175781 23.191406 13.125 23.207031 C 13.042969 23.238281 12.894531 23.160156 12.816406 23.117188 C 12.742188 23.070312 12.742188 23.035156 12.648438 23.054688 C 12.601562 23.066406 12.5625 23.117188 12.515625 23.128906 C 12.414062 23.160156 12.324219 23.070312 12.203125 23.070312 C 12.070312 23.066406 12 23.066406 11.875 23.03125 C 11.773438 23 11.640625 22.984375 11.519531 22.984375 C 11.40625 22.984375 11.308594 23.042969 11.1875 23.035156 C 10.988281 22.90625 11.28125 22.738281 11.121094 22.589844 C 11.132812 22.5625 11.125 22.527344 11.121094 22.496094 Z M 11.121094 22.496094 " fill-opacity="1" fill-rule="nonzero"/></g><g clip-path="url(#95d620c205)"><path fill="#014d4e" d="M 6.234375 9.886719 C 6.25 9.917969 6.261719 9.960938 6.269531 10 C 6.296875 10.121094 6.332031 10.222656 6.367188 10.34375 C 6.386719 10.433594 6.378906 10.53125 6.40625 10.625 C 6.457031 10.796875 6.652344 10.863281 6.75 11.011719 C 6.800781 11.09375 6.851562 11.167969 6.882812 11.261719 C 6.914062 11.367188 6.902344 11.476562 6.949219 11.585938 C 7.042969 11.808594 7.257812 11.957031 7.3125 12.199219 C 7.34375 12.382812 7.417969 12.617188 7.40625 12.804688 C 7.402344 12.898438 7.363281 12.957031 7.386719 13.050781 C 7.402344 13.128906 7.425781 13.222656 7.453125 13.300781 C 7.488281 13.386719 7.566406 13.449219 7.601562 13.539062 C 7.644531 13.648438 7.683594 13.722656 7.734375 13.820312 C 7.796875 13.941406 7.84375 14.015625 7.941406 14.117188 C 8.007812 14.191406 8.089844 14.261719 8.148438 14.347656 C 8.199219 14.414062 8.226562 14.507812 8.277344 14.578125 C 8.332031 14.652344 8.394531 14.691406 8.398438 14.78125 C 8.40625 14.902344 8.308594 14.929688 8.234375 15.011719 C 8.1875 15.0625 8.175781 15.070312 8.164062 15.132812 C 8.160156 15.1875 8.203125 15.273438 8.160156 15.328125 C 8.125 15.367188 8.03125 15.34375 7.992188 15.371094 C 7.953125 15.402344 7.964844 15.414062 7.933594 15.441406 C 7.859375 15.519531 7.804688 15.664062 7.671875 15.660156 C 7.585938 15.660156 7.378906 15.574219 7.3125 15.527344 C 7.183594 15.441406 7.0625 15.292969 6.988281 15.160156 C 6.96875 15.113281 6.933594 15.011719 6.875 14.996094 C 6.824219 14.976562 6.789062 15.046875 6.738281 15.050781 C 6.503906 15.085938 6.445312 14.644531 6.34375 14.507812 C 6.269531 14.40625 6.121094 14.363281 6.015625 14.296875 C 5.917969 14.234375 5.820312 14.140625 5.71875 14.101562 C 5.523438 14.019531 5.253906 14.300781 5.007812 14.265625 C 4.917969 14.253906 4.808594 14.1875 4.703125 14.152344 C 4.585938 14.113281 4.53125 14.0625 4.464844 13.945312 C 4.355469 13.769531 4.253906 13.578125 4.160156 13.394531 C 4.082031 13.242188 4.039062 13.023438 3.886719 12.9375 C 3.738281 12.859375 3.667969 12.824219 3.667969 12.628906 C 3.667969 12.457031 3.652344 12.394531 3.53125 12.273438 C 3.386719 12.125 3.488281 12.039062 3.570312 11.882812 C 3.605469 11.808594 3.617188 11.734375 3.660156 11.667969 C 3.695312 11.613281 3.757812 11.574219 3.792969 11.519531 C 3.867188 11.410156 3.917969 11.269531 3.988281 11.15625 C 4.109375 10.957031 4.109375 10.722656 4.109375 10.5 C 4.101562 10.316406 4.0625 10.175781 4.085938 9.992188 C 4.109375 9.804688 4.085938 9.644531 4.097656 9.46875 C 4.109375 9.285156 4.175781 9.136719 4.160156 8.945312 C 4.136719 8.71875 4.085938 8.550781 4.160156 8.320312 C 4.195312 8.207031 4.261719 8.105469 4.304688 7.996094 C 4.34375 7.878906 4.296875 7.761719 4.28125 7.644531 C 4.261719 7.515625 4.253906 7.386719 4.222656 7.261719 C 4.199219 7.164062 4.144531 7.105469 4.101562 7.019531 C 4.058594 6.914062 4.113281 6.867188 4.15625 6.773438 C 4.207031 6.671875 4.195312 6.558594 4.195312 6.441406 C 4.1875 6.167969 4.382812 5.796875 4.652344 5.726562 C 4.746094 5.703125 4.84375 5.648438 4.933594 5.628906 C 5.003906 5.617188 5.121094 5.664062 5.1875 5.640625 C 5.242188 5.617188 5.292969 5.542969 5.359375 5.515625 C 5.410156 5.492188 5.4375 5.488281 5.484375 5.476562 C 5.605469 5.453125 5.808594 5.476562 5.925781 5.53125 C 5.96875 5.554688 6.011719 5.628906 6.054688 5.640625 C 6.121094 5.652344 6.222656 5.582031 6.285156 5.574219 C 6.441406 5.777344 6.394531 6.035156 6.519531 6.226562 C 6.628906 6.386719 6.664062 6.5 6.644531 6.695312 C 6.640625 6.765625 6.625 6.820312 6.632812 6.882812 C 6.644531 6.964844 6.714844 7.015625 6.726562 7.089844 C 6.75 7.234375 6.59375 7.398438 6.546875 7.535156 C 6.507812 7.652344 6.496094 7.726562 6.519531 7.839844 C 6.554688 8.023438 6.503906 8.097656 6.453125 8.28125 C 6.40625 8.464844 6.40625 8.707031 6.40625 8.886719 C 6.40625 9.101562 6.492188 9.300781 6.410156 9.507812 C 6.371094 9.59375 6.292969 9.742188 6.234375 9.886719 Z M 6.234375 9.886719 " fill-opacity="1" fill-rule="nonzero"/></g></svg>