<svg xmlns="http://www.w3.org/2000/svg" xmlns:xlink="http://www.w3.org/1999/xlink" width="40" zoomAndPan="magnify" viewBox="0 0 30 30.000001" height="40" preserveAspectRatio="xMidYMid meet" version="1.0"><defs><clipPath id="a8f9cae5c3"><path d="M 3.953125 3 L 21 3 L 21 18 L 3.953125 18 Z M 3.953125 3 " clip-rule="nonzero"/></clipPath><clipPath id="4a8fe22d8b"><path d="M 19.710938 18.070312 L 25.726562 18.070312 L 25.726562 26.128906 L 19.710938 26.128906 Z M 19.710938 18.070312 " clip-rule="nonzero"/></clipPath></defs><g clip-path="url(#a8f9cae5c3)"><path fill="#014d4e" d="M 7.929688 9.867188 C 7.707031 9.730469 7.480469 9.597656 7.234375 9.5 C 7.015625 9.410156 6.769531 9.359375 6.5625 9.238281 C 6.445312 9.167969 6.355469 9.058594 6.261719 8.960938 C 6.035156 8.726562 5.777344 8.53125 5.527344 8.324219 C 5.386719 8.210938 5.144531 8.09375 5.085938 7.910156 C 5.050781 7.796875 5.070312 7.652344 5.039062 7.535156 C 4.933594 7.125 4.621094 6.761719 4.246094 6.574219 C 4.042969 6.472656 3.957031 6.460938 4 6.214844 C 4.050781 5.929688 4.136719 5.644531 4.144531 5.351562 C 4.144531 5.261719 4.117188 5.171875 4.128906 5.082031 C 4.148438 4.949219 4.308594 4.84375 4.390625 4.746094 C 4.617188 4.488281 4.847656 4.230469 5.066406 3.964844 C 5.238281 3.746094 5.542969 3.578125 5.816406 3.535156 C 6.042969 3.5 6.289062 3.535156 6.511719 3.476562 C 6.945312 3.359375 7.285156 2.902344 7.773438 3.117188 C 7.949219 3.191406 7.96875 3.34375 8 3.511719 C 8.015625 3.601562 8.027344 3.707031 8.09375 3.773438 C 8.140625 3.8125 8.203125 3.835938 8.265625 3.832031 C 8.367188 3.824219 8.445312 3.75 8.539062 3.714844 C 8.730469 3.640625 8.9375 3.792969 9.09375 3.886719 C 9.226562 3.964844 9.347656 4.074219 9.5 4.113281 C 9.570312 4.128906 9.628906 4.101562 9.699219 4.113281 C 9.796875 4.125 9.886719 4.175781 9.960938 4.234375 C 10.214844 4.441406 10.375 4.734375 10.597656 4.972656 C 10.941406 5.335938 11.378906 5.589844 11.824219 5.808594 C 12.007812 5.894531 12.195312 5.964844 12.371094 6.0625 C 12.445312 6.105469 12.484375 6.125 12.507812 6.203125 C 12.527344 6.289062 12.535156 6.363281 12.632812 6.398438 C 12.664062 6.410156 12.703125 6.414062 12.734375 6.421875 C 12.839844 6.445312 12.917969 6.558594 12.988281 6.636719 C 13.191406 6.863281 13.417969 7.09375 13.582031 7.347656 C 13.78125 7.65625 13.980469 7.972656 14.238281 8.234375 C 14.570312 8.566406 14.796875 8.992188 15.019531 9.40625 C 15.132812 9.617188 15.246094 9.832031 15.378906 10.03125 C 15.445312 10.132812 15.515625 10.230469 15.589844 10.324219 C 15.71875 10.480469 15.832031 10.574219 15.742188 10.789062 C 15.664062 10.976562 15.691406 11.125 15.875 11.226562 C 15.964844 11.277344 16.308594 11.304688 16.277344 11.445312 C 16.273438 11.476562 16.253906 11.507812 16.242188 11.539062 C 16.222656 11.613281 16.296875 11.714844 16.308594 11.789062 C 16.335938 11.9375 16.3125 12.109375 16.285156 12.257812 C 16.273438 12.320312 16.261719 12.386719 16.277344 12.453125 C 16.292969 12.515625 16.339844 12.574219 16.40625 12.585938 C 16.523438 12.605469 16.578125 12.539062 16.683594 12.625 C 16.785156 12.714844 16.792969 12.855469 16.859375 12.964844 C 16.925781 13.070312 17.035156 13.109375 17.136719 13.175781 C 17.210938 13.222656 17.285156 13.269531 17.367188 13.292969 C 17.445312 13.3125 17.554688 13.285156 17.621094 13.34375 C 17.671875 13.390625 17.699219 13.457031 17.75 13.503906 C 17.828125 13.578125 17.914062 13.640625 17.992188 13.71875 C 18.0625 13.789062 18.121094 13.871094 18.125 13.945312 C 18.128906 14.007812 18.113281 14.066406 18.175781 14.105469 C 18.257812 14.164062 18.351562 14.09375 18.4375 14.136719 C 18.542969 14.1875 18.546875 14.304688 18.609375 14.390625 C 18.695312 14.507812 18.839844 14.445312 18.9375 14.539062 C 19.054688 14.648438 19.023438 14.804688 19.027344 14.941406 C 19.027344 14.976562 19.042969 15.015625 19.074219 15.035156 C 19.144531 15.078125 19.296875 15.007812 19.355469 14.96875 C 19.417969 14.929688 19.453125 14.863281 19.472656 14.792969 C 19.492188 14.730469 19.480469 14.625 19.558594 14.667969 C 19.621094 14.703125 19.648438 14.789062 19.699219 14.835938 C 19.769531 14.902344 19.867188 14.945312 19.960938 14.957031 C 20.070312 14.96875 20.152344 14.953125 20.230469 15.054688 C 20.304688 15.152344 20.339844 15.273438 20.386719 15.386719 C 20.425781 15.496094 20.480469 15.605469 20.46875 15.726562 C 20.460938 15.867188 20.324219 15.914062 20.214844 15.96875 C 20.101562 16.027344 19.964844 16.148438 20.023438 16.296875 C 20.042969 16.351562 20.085938 16.394531 20.125 16.4375 C 20.1875 16.507812 20.210938 16.597656 20.152344 16.679688 C 20.109375 16.738281 20.003906 16.804688 19.9375 16.738281 C 19.90625 16.707031 19.894531 16.660156 19.882812 16.613281 C 19.871094 16.570312 19.851562 16.523438 19.8125 16.5 C 19.738281 16.457031 19.582031 16.535156 19.503906 16.5625 C 19.4375 16.582031 19.371094 16.621094 19.324219 16.671875 C 19.257812 16.75 19.296875 16.902344 19.210938 16.960938 C 19.019531 17.09375 18.925781 16.734375 18.808594 16.683594 C 18.71875 16.644531 18.542969 16.710938 18.472656 16.769531 C 18.230469 16.980469 18.636719 17.417969 18.386719 17.628906 C 18.28125 17.714844 18.101562 17.710938 18 17.613281 C 17.863281 17.480469 17.929688 17.300781 17.941406 17.132812 C 17.957031 16.933594 17.832031 16.78125 17.6875 16.652344 C 17.644531 16.613281 17.601562 16.578125 17.574219 16.527344 C 17.492188 16.367188 17.785156 16.234375 17.867188 16.136719 C 17.976562 16.007812 18.144531 15.761719 18.042969 15.585938 C 18.015625 15.542969 17.980469 15.503906 17.957031 15.457031 C 17.914062 15.375 17.925781 15.296875 17.972656 15.226562 C 18.015625 15.164062 18.097656 15.136719 18.117188 15.058594 C 18.140625 14.96875 18.0625 14.882812 18.015625 14.8125 C 17.925781 14.675781 17.941406 14.5625 17.917969 14.414062 C 17.878906 14.117188 17.628906 13.90625 17.410156 13.730469 C 17.21875 13.578125 17 13.414062 16.765625 13.332031 C 16.644531 13.289062 16.511719 13.289062 16.386719 13.253906 C 16.214844 13.207031 16.15625 13.121094 16.078125 12.964844 C 16.007812 12.835938 15.8125 12.820312 15.679688 12.804688 C 15.429688 12.777344 15.160156 12.753906 14.929688 12.640625 C 14.8125 12.585938 14.695312 12.503906 14.621094 12.394531 C 14.582031 12.335938 14.550781 12.269531 14.542969 12.199219 C 14.535156 12.128906 14.5625 12.050781 14.523438 11.988281 C 14.496094 11.945312 14.449219 11.917969 14.402344 11.902344 C 14.265625 11.863281 14.066406 11.835938 13.929688 11.875 C 13.796875 11.914062 13.785156 12.046875 13.675781 12.097656 C 13.59375 12.136719 13.566406 12.089844 13.511719 12.039062 C 13.398438 11.9375 13.203125 11.960938 13.09375 12.070312 C 13.03125 12.128906 13.023438 12.246094 12.929688 12.273438 C 12.855469 12.300781 12.792969 12.222656 12.734375 12.179688 C 12.710938 12.164062 12.691406 12.144531 12.664062 12.144531 C 12.566406 12.136719 12.613281 12.316406 12.515625 12.3125 C 12.488281 12.3125 12.464844 12.296875 12.441406 12.28125 C 12.351562 12.21875 12.277344 12.140625 12.183594 12.085938 C 12.015625 11.980469 11.796875 11.996094 11.605469 12.003906 C 11.492188 12.007812 11.378906 12.039062 11.265625 12.023438 C 11.210938 12.019531 11.148438 12.003906 11.101562 11.96875 C 11.066406 11.941406 11.054688 11.898438 11.011719 11.878906 C 10.917969 11.84375 10.828125 11.933594 10.742188 11.960938 C 10.65625 11.988281 10.578125 11.941406 10.503906 11.902344 C 10.429688 11.855469 10.367188 11.832031 10.28125 11.8125 C 10.1875 11.792969 10.148438 11.796875 10.089844 11.722656 C 10.039062 11.652344 9.984375 11.589844 9.917969 11.53125 C 9.753906 11.402344 9.566406 11.351562 9.363281 11.328125 C 9.257812 11.3125 9.167969 11.335938 9.097656 11.230469 C 9.050781 11.160156 9.058594 11.078125 9.027344 11.003906 C 9 10.945312 8.933594 10.871094 8.878906 10.839844 C 8.773438 10.769531 8.828125 10.730469 8.828125 10.628906 C 8.820312 10.40625 8.53125 10.246094 8.367188 10.144531 C 8.21875 10.050781 8.074219 9.957031 7.929688 9.867188 " fill-opacity="1" fill-rule="nonzero"/></g><g clip-path="url(#4a8fe22d8b)"><path fill="#014d4e" d="M 19.945312 21.382812 C 19.949219 21.234375 19.964844 21.082031 19.984375 20.933594 C 20.003906 20.765625 20.039062 20.597656 20.125 20.453125 C 20.195312 20.332031 20.292969 20.222656 20.375 20.105469 C 20.46875 19.964844 20.574219 19.828125 20.648438 19.675781 C 20.679688 19.601562 20.710938 19.523438 20.714844 19.441406 C 20.71875 19.375 20.683594 19.316406 20.679688 19.25 C 20.675781 19.132812 20.835938 19.078125 20.914062 19.007812 C 21.003906 18.925781 21.097656 18.816406 21.148438 18.703125 C 21.203125 18.570312 21.15625 18.402344 21.261719 18.292969 C 21.417969 18.132812 21.597656 18.273438 21.773438 18.261719 C 21.964844 18.246094 22.144531 18.179688 22.332031 18.136719 C 22.527344 18.09375 22.730469 18.074219 22.929688 18.078125 C 23.15625 18.082031 23.378906 18.089844 23.578125 18.210938 C 23.777344 18.332031 23.941406 18.585938 24.097656 18.757812 C 24.136719 18.800781 24.175781 18.847656 24.226562 18.875 C 24.425781 18.988281 24.671875 18.835938 24.867188 18.976562 C 25.003906 19.078125 25.042969 19.25 25.109375 19.390625 C 25.183594 19.542969 25.308594 19.660156 25.425781 19.777344 C 25.496094 19.847656 25.59375 19.898438 25.644531 19.988281 C 25.699219 20.09375 25.644531 20.21875 25.695312 20.335938 C 25.710938 20.375 25.730469 20.40625 25.742188 20.445312 C 25.761719 20.519531 25.710938 20.609375 25.710938 20.6875 C 25.710938 20.871094 25.777344 21.023438 25.824219 21.199219 C 25.855469 21.320312 25.859375 21.445312 25.867188 21.570312 C 25.875 21.695312 25.84375 21.820312 25.851562 21.949219 C 25.859375 22.085938 25.90625 22.183594 25.988281 22.285156 C 26.066406 22.378906 26.039062 22.539062 26.027344 22.652344 C 26.007812 22.84375 25.929688 23.019531 25.929688 23.207031 C 25.929688 23.378906 25.96875 23.460938 25.886719 23.53125 C 25.800781 23.597656 25.875 23.707031 25.789062 23.773438 C 25.707031 23.835938 25.699219 23.789062 25.683594 23.976562 C 25.664062 24.164062 25.691406 24.183594 25.625 24.273438 C 25.492188 24.457031 25.535156 24.707031 25.40625 24.890625 C 25.324219 25.003906 25.21875 25.144531 25.082031 25.195312 C 24.902344 25.261719 24.726562 25.160156 24.550781 25.175781 C 24.359375 25.1875 24.191406 25.351562 24.003906 25.382812 C 23.90625 25.398438 23.808594 25.378906 23.710938 25.382812 C 23.585938 25.386719 23.527344 25.445312 23.429688 25.515625 C 23.394531 25.542969 23.359375 25.570312 23.320312 25.585938 C 23.210938 25.625 23.097656 25.546875 23.007812 25.660156 C 22.949219 25.730469 22.863281 25.707031 22.800781 25.757812 C 22.6875 25.847656 22.71875 25.953125 22.554688 25.964844 C 22.441406 25.972656 22.316406 25.910156 22.214844 25.972656 C 22.113281 26.03125 22.0625 26.113281 21.9375 26.125 C 21.796875 26.144531 21.660156 26.074219 21.539062 26.011719 C 21.429688 25.953125 21.3125 25.9375 21.234375 25.832031 C 21.148438 25.710938 21.070312 25.613281 20.957031 25.519531 C 20.855469 25.433594 20.769531 25.308594 20.65625 25.246094 C 20.574219 25.199219 20.449219 25.175781 20.40625 25.082031 C 20.382812 25.023438 20.410156 24.964844 20.417969 24.90625 C 20.429688 24.820312 20.414062 24.734375 20.375 24.65625 C 20.316406 24.53125 20.210938 24.441406 20.140625 24.324219 C 20.074219 24.203125 20.023438 24.082031 20.003906 23.949219 C 19.992188 23.863281 19.960938 23.796875 19.902344 23.734375 C 19.839844 23.667969 19.730469 23.617188 19.71875 23.515625 C 19.707031 23.457031 19.746094 23.441406 19.777344 23.40625 C 19.820312 23.363281 19.847656 23.328125 19.867188 23.273438 C 19.941406 23.085938 19.890625 22.878906 19.90625 22.683594 C 19.914062 22.570312 19.976562 22.488281 20.015625 22.386719 C 20.054688 22.28125 20.042969 22.160156 20.03125 22.050781 C 20.011719 21.898438 19.96875 21.75 19.953125 21.597656 C 19.945312 21.527344 19.945312 21.457031 19.945312 21.382812 " fill-opacity="1" fill-rule="nonzero"/></g></svg>