<svg xmlns="http://www.w3.org/2000/svg" width="40" zoomAndPan="magnify" viewBox="0 0 30 30.000001" height="40"
     preserveAspectRatio="xMidYMid meet" version="1.0"><defs><clipPath id="242d5b520b"><path d="M 24 12 L 26.613281 12 L 26.613281 14 L 24 14 Z M 24 12 " clip-rule="nonzero"/></clipPath><clipPath id="5caeb2e51b"><path d="M 22 5 L 26.613281 5 L 26.613281 11 L 22 11 Z M 22 5 " clip-rule="nonzero"/></clipPath><clipPath id="f367158741"><path d="M 3.386719 3.238281 L 26.613281 3.238281 L 26.613281 25.738281 L 3.386719 25.738281 Z M 3.386719 3.238281 " clip-rule="nonzero"/></clipPath></defs><g clip-path="url(#242d5b520b)"><path fill="#014d4e" d="M 25.601562 12.59375 C 25.539062 12.574219 25.453125 12.546875 25.40625 12.5 C 25.339844 12.433594 25.359375 12.355469 25.265625 12.324219 C 25.234375 12.3125 25.085938 12.332031 25.046875 12.34375 C 24.914062 12.390625 24.886719 12.515625 24.882812 12.640625 C 24.855469 12.675781 24.832031 12.714844 24.804688 12.746094 C 24.816406 12.742188 24.820312 12.746094 24.828125 12.753906 C 24.789062 12.890625 24.742188 12.976562 24.9375 12.929688 C 25.019531 12.90625 25.042969 12.882812 25.113281 12.902344 C 25.195312 12.921875 25.222656 13 25.289062 13.035156 C 25.410156 13.097656 25.515625 13.039062 25.648438 13.105469 C 25.796875 13.175781 25.851562 13.320312 25.976562 13.402344 C 26.03125 13.433594 26.351562 13.535156 26.40625 13.507812 C 26.566406 13.433594 26.359375 13.183594 26.292969 13.097656 C 26.148438 12.921875 25.96875 12.839844 25.800781 12.695312 C 25.714844 12.625 25.726562 12.621094 25.601562 12.59375 Z M 25.601562 12.59375 " fill-opacity="1" fill-rule="nonzero"/></g><g clip-path="url(#5caeb2e51b)"><path fill="#014d4e" d="M 22.949219 5.054688 C 22.847656 5.066406 22.714844 5.097656 22.765625 5.230469 C 22.804688 5.34375 22.929688 5.320312 23.023438 5.359375 C 22.882812 5.445312 23.003906 5.539062 23.070312 5.628906 C 23.109375 5.613281 23.140625 5.585938 23.164062 5.539062 C 23.324219 5.632812 23.34375 5.75 23.285156 5.914062 C 23.222656 6.074219 23.25 6.167969 23.316406 6.332031 C 23.359375 6.324219 23.40625 6.277344 23.460938 6.265625 C 23.527344 6.25 23.597656 6.273438 23.660156 6.257812 C 23.660156 6.097656 23.542969 5.949219 23.703125 5.820312 C 23.789062 5.875 23.878906 5.964844 23.96875 6.046875 C 23.894531 6.125 23.761719 6.273438 23.753906 6.289062 C 23.71875 6.332031 23.640625 6.40625 23.632812 6.453125 C 23.613281 6.527344 23.679688 6.585938 23.660156 6.660156 C 23.507812 6.652344 23.539062 6.5 23.398438 6.480469 C 23.359375 6.476562 23.277344 6.519531 23.230469 6.519531 C 23.164062 6.519531 23.117188 6.492188 23.058594 6.539062 C 23.0625 6.546875 23.0625 6.542969 23.058594 6.554688 C 23.109375 6.585938 23.171875 6.640625 23.230469 6.664062 C 23.3125 6.695312 23.3125 6.667969 23.398438 6.675781 C 23.570312 6.6875 23.515625 6.824219 23.476562 6.96875 C 23.539062 6.988281 23.609375 7.023438 23.664062 7.050781 C 23.640625 7.121094 23.621094 7.1875 23.613281 7.257812 C 23.445312 7.1875 23.425781 6.894531 23.273438 6.789062 C 23.078125 6.660156 23.003906 6.789062 22.859375 6.878906 C 22.925781 6.960938 23.03125 6.972656 23.117188 6.996094 C 23.078125 7.148438 23.097656 7.160156 22.949219 7.117188 C 22.847656 7.089844 22.765625 7.039062 22.742188 7.1875 C 22.835938 7.320312 22.976562 7.230469 23.078125 7.296875 C 23.125 7.324219 23.15625 7.398438 23.101562 7.441406 C 23.050781 7.472656 22.980469 7.414062 22.9375 7.390625 C 22.875 7.359375 22.734375 7.253906 22.660156 7.28125 C 22.523438 7.34375 22.699219 7.453125 22.753906 7.496094 C 22.566406 7.613281 22.707031 7.699219 22.863281 7.65625 C 22.882812 7.695312 22.898438 7.75 22.921875 7.800781 C 22.808594 7.78125 22.695312 7.765625 22.585938 7.75 C 22.59375 7.75 22.601562 7.75 22.59375 7.742188 C 22.507812 7.726562 22.417969 7.699219 22.339844 7.78125 C 22.320312 7.808594 22.304688 7.832031 22.296875 7.855469 C 22.265625 7.949219 22.359375 8.007812 22.40625 8.101562 C 22.46875 8.097656 22.632812 8.035156 22.6875 8.074219 C 22.738281 8.113281 22.734375 8.273438 22.765625 8.332031 C 22.808594 8.417969 22.898438 8.445312 22.9375 8.527344 C 22.964844 8.597656 22.925781 8.707031 22.9375 8.785156 C 22.953125 8.949219 23.113281 9.121094 23.238281 9.230469 C 23.355469 9.332031 23.328125 9.296875 23.324219 9.445312 C 23.316406 9.527344 23.339844 9.671875 23.378906 9.742188 C 23.4375 9.847656 23.515625 9.847656 23.539062 9.96875 C 23.558594 10.074219 23.558594 10.203125 23.59375 10.316406 C 23.648438 10.527344 23.742188 10.625 23.949219 10.679688 C 24.039062 10.707031 24.160156 10.796875 24.238281 10.8125 C 24.351562 10.835938 24.433594 10.71875 24.519531 10.648438 C 24.734375 10.453125 24.976562 10.265625 25.15625 10.035156 C 25.273438 9.886719 25.421875 9.804688 25.542969 9.660156 C 25.640625 9.546875 25.707031 9.375 25.757812 9.230469 C 25.839844 8.988281 26.230469 8.734375 26.148438 8.445312 C 26.21875 8.140625 26.15625 7.457031 25.746094 7.40625 C 25.664062 7.566406 26.0625 7.6875 25.988281 7.902344 C 25.910156 7.792969 25.753906 7.660156 25.660156 7.558594 C 25.527344 7.414062 25.351562 7.175781 25.324219 6.984375 C 25.394531 6.957031 25.558594 6.800781 25.558594 6.742188 C 25.558594 6.664062 25.445312 6.539062 25.367188 6.542969 C 25.324219 6.597656 25.277344 6.652344 25.230469 6.707031 C 25.15625 6.632812 25.109375 6.488281 25.050781 6.40625 C 24.953125 6.246094 24.914062 6.203125 24.753906 6.097656 C 24.613281 6.003906 24.546875 5.925781 24.441406 5.792969 C 24.371094 5.695312 24.285156 5.523438 24.191406 5.445312 C 24.121094 5.386719 24 5.371094 23.917969 5.304688 C 23.824219 5.226562 23.730469 5.144531 23.632812 5.070312 C 23.492188 4.972656 23.476562 5.023438 23.339844 5.054688 C 23.195312 5.070312 23.070312 5.042969 22.949219 5.054688 Z M 22.949219 5.054688 " fill-opacity="1" fill-rule="nonzero"/></g><g clip-path="url(#f367158741)"><path fill="#014d4e" d="M 26.589844 25.417969 C 26.546875 25.253906 26.46875 25.089844 26.40625 24.929688 C 26.371094 24.824219 26.171875 24.390625 26.351562 24.417969 C 26.351562 24.261719 26.320312 24.109375 26.3125 23.953125 C 26.308594 23.800781 26.214844 23.683594 26.210938 23.539062 C 26.203125 23.425781 26.238281 23.257812 26.257812 23.148438 C 26.292969 23 26.417969 22.800781 26.332031 22.675781 C 26.011719 22.753906 25.785156 22.636719 25.542969 22.4375 C 25.464844 22.378906 25.449219 22.351562 25.34375 22.328125 C 25.234375 22.304688 25.234375 22.3125 25.167969 22.230469 C 25.101562 22.140625 25.085938 21.960938 24.976562 21.914062 C 24.964844 21.828125 25.015625 21.75 25.015625 21.65625 C 25.015625 21.546875 24.980469 21.445312 24.984375 21.335938 C 24.992188 21.238281 25.007812 21.148438 25.042969 21.054688 C 25.097656 20.894531 25.125 20.878906 24.984375 20.796875 C 24.847656 20.714844 24.671875 20.730469 24.5625 20.605469 C 24.496094 20.527344 24.453125 20.449219 24.363281 20.390625 C 24.296875 20.34375 24.191406 20.328125 24.144531 20.277344 C 24.054688 20.195312 23.996094 19.992188 23.917969 19.886719 C 23.824219 19.753906 23.847656 19.640625 23.796875 19.484375 C 23.742188 19.308594 23.566406 19.203125 23.519531 19.027344 C 23.480469 18.863281 23.480469 18.6875 23.453125 18.519531 C 23.433594 18.394531 23.464844 18.207031 23.417969 18.089844 C 23.386719 18.03125 23.324219 17.980469 23.289062 17.914062 C 23.265625 17.867188 23.234375 17.753906 23.222656 17.742188 C 23.179688 17.660156 23.136719 17.585938 23.089844 17.5 C 23.097656 17.402344 23.113281 17.304688 23.109375 17.214844 C 23.097656 16.996094 23.050781 16.761719 22.949219 16.570312 C 22.765625 16.257812 22.816406 15.835938 22.644531 15.5 C 22.574219 15.363281 22.59375 15.285156 22.601562 15.136719 C 22.605469 15.015625 22.554688 14.878906 22.5625 14.753906 C 22.5625 14.613281 22.585938 14.492188 22.644531 14.367188 C 22.683594 14.289062 22.820312 14.113281 22.726562 14.035156 C 22.644531 13.96875 22.527344 14.113281 22.441406 14.109375 C 22.339844 14.097656 22.226562 13.957031 22.203125 14.15625 C 22.148438 14.128906 22.050781 14.109375 22 14.074219 C 21.941406 14.03125 21.941406 13.988281 21.890625 13.921875 C 21.78125 13.773438 21.613281 13.789062 21.472656 13.707031 C 21.488281 13.640625 21.488281 13.464844 21.445312 13.417969 C 21.324219 13.511719 21.164062 13.441406 21.070312 13.574219 C 21.003906 13.667969 20.980469 13.734375 20.886719 13.808594 C 20.855469 13.84375 20.6875 14.015625 20.640625 14.0625 C 20.628906 14.023438 20.617188 13.988281 20.59375 13.953125 C 20.527344 13.84375 20.535156 13.894531 20.425781 13.898438 C 20.335938 13.902344 20.1875 13.84375 20.160156 13.992188 C 20.144531 14.085938 20.21875 14.113281 20.191406 14.207031 C 20.121094 14.417969 19.996094 14.285156 19.847656 14.324219 C 19.6875 14.359375 19.632812 14.515625 19.449219 14.5 C 19.40625 14.492188 19.285156 14.480469 19.261719 14.433594 C 19.234375 14.371094 19.316406 14.300781 19.324219 14.234375 C 19.328125 14.089844 19.136719 14.046875 19.273438 13.914062 C 19.355469 13.835938 19.519531 13.765625 19.625 13.707031 C 19.742188 13.640625 19.863281 13.5 19.648438 13.5 C 19.574219 13.5 19.53125 13.527344 19.464844 13.519531 C 19.410156 13.507812 19.34375 13.453125 19.285156 13.464844 C 19.179688 13.484375 19.085938 13.679688 18.96875 13.714844 C 18.914062 13.628906 18.894531 13.511719 18.769531 13.5625 C 18.699219 13.589844 18.660156 13.699219 18.628906 13.753906 C 18.480469 13.734375 18.375 13.632812 18.21875 13.683594 C 18.125 13.800781 18.226562 13.855469 18.054688 13.859375 C 17.976562 13.859375 17.8125 13.886719 17.757812 13.859375 C 17.757812 13.859375 17.753906 13.835938 17.753906 13.835938 C 17.746094 13.800781 17.714844 13.695312 17.6875 13.605469 C 17.753906 13.550781 17.824219 13.496094 17.890625 13.445312 C 17.800781 13.25 18.257812 13.304688 18.324219 13.371094 C 18.40625 13.308594 18.398438 13.183594 18.429688 13.09375 C 18.46875 12.996094 18.523438 12.941406 18.613281 12.878906 C 18.800781 12.742188 19.078125 12.59375 19.195312 12.390625 C 19.25 12.289062 19.273438 12.183594 19.339844 12.101562 C 19.421875 12.003906 19.539062 11.910156 19.640625 11.832031 C 19.921875 11.613281 20.257812 11.539062 20.546875 11.34375 C 20.792969 11.164062 20.941406 11.011719 21.246094 10.929688 C 21.542969 10.847656 21.828125 10.8125 22.132812 10.894531 C 22.285156 10.941406 22.40625 10.996094 22.539062 11.078125 C 22.671875 11.15625 22.828125 11.183594 22.96875 11.242188 C 23.109375 11.296875 23.179688 11.34375 23.273438 11.453125 C 23.332031 11.519531 23.394531 11.65625 23.472656 11.695312 C 23.574219 11.742188 23.542969 11.699219 23.597656 11.628906 C 23.613281 11.605469 23.597656 11.566406 23.613281 11.546875 C 23.636719 11.511719 23.679688 11.507812 23.703125 11.480469 C 23.828125 11.324219 23.691406 11.257812 23.703125 11.097656 C 23.707031 11.027344 23.773438 11.023438 23.746094 10.945312 C 23.734375 10.90625 23.652344 10.835938 23.621094 10.820312 C 23.574219 10.796875 23.527344 10.78125 23.480469 10.761719 C 23.449219 10.675781 23.378906 10.480469 23.351562 10.417969 C 23.207031 10.085938 22.980469 9.804688 22.859375 9.464844 C 22.800781 9.292969 22.714844 9.109375 22.734375 8.929688 C 22.742188 8.828125 22.75 8.761719 22.707031 8.667969 C 22.65625 8.558594 22.617188 8.582031 22.527344 8.542969 C 22.371094 8.472656 22.398438 8.3125 22.238281 8.234375 C 22.050781 8.140625 21.941406 7.957031 21.863281 7.742188 C 21.773438 7.5 21.769531 7.238281 21.667969 7 C 21.59375 6.808594 21.453125 6.542969 21.519531 6.328125 C 21.558594 6.195312 21.632812 6.15625 21.613281 6.019531 C 21.59375 5.875 21.488281 5.792969 21.453125 5.660156 C 21.394531 5.433594 21.554688 5.226562 21.488281 4.996094 C 21.386719 4.917969 21.339844 4.917969 21.21875 4.933594 C 21.023438 4.960938 21.003906 4.929688 20.902344 4.769531 C 20.832031 4.652344 20.765625 4.625 20.632812 4.582031 C 20.613281 4.574219 20.574219 4.566406 20.523438 4.558594 L 18.210938 3.390625 C 18.191406 3.390625 18.175781 3.398438 18.160156 3.398438 C 17.957031 3.390625 17.746094 3.335938 17.542969 3.320312 C 17.292969 3.292969 17.050781 3.320312 16.800781 3.308594 C 16.46875 3.292969 16.109375 3.269531 15.78125 3.296875 C 15.601562 3.3125 15.40625 3.375 15.222656 3.351562 C 15.058594 3.335938 14.902344 3.285156 14.734375 3.277344 C 14.457031 3.257812 14.144531 3.238281 13.875 3.296875 C 13.6875 3.339844 13.480469 3.335938 13.304688 3.417969 C 13.113281 3.507812 12.957031 3.683594 12.808594 3.828125 C 12.621094 4.003906 12.496094 3.957031 12.265625 3.992188 C 11.808594 4.058594 11.425781 4.316406 11.074219 4.59375 C 10.671875 4.90625 10.453125 5.375 10.28125 5.847656 C 10.210938 6.050781 10.148438 6.261719 10.082031 6.472656 C 10.015625 6.667969 10 6.894531 9.933594 7.082031 C 9.882812 7.226562 9.757812 7.34375 9.679688 7.480469 C 9.609375 7.605469 9.566406 7.761719 9.53125 7.898438 C 9.492188 8.042969 9.449219 8.195312 9.394531 8.332031 C 9.332031 8.480469 9.234375 8.527344 9.140625 8.640625 C 9.015625 8.800781 9.050781 9.089844 9.023438 9.253906 C 9.019531 9.5 8.929688 9.628906 8.789062 9.808594 C 8.621094 10.019531 8.5625 10.25 8.453125 10.488281 C 8.324219 10.769531 8.109375 10.984375 7.972656 11.253906 C 7.851562 11.484375 7.761719 11.710938 7.652344 11.941406 C 7.554688 12.164062 7.5 12.40625 7.371094 12.609375 C 7.273438 12.761719 7.136719 12.914062 7.007812 13.042969 C 6.707031 13.363281 6.386719 13.722656 6.203125 14.125 C 6.136719 14.265625 6.148438 14.4375 6.078125 14.570312 C 6.015625 14.691406 5.867188 14.757812 5.78125 14.855469 C 5.59375 15.054688 5.515625 15.296875 5.382812 15.527344 C 5.257812 15.75 5.007812 15.867188 4.863281 16.0625 C 4.710938 16.285156 4.648438 16.492188 4.417969 16.660156 C 4.152344 16.847656 3.558594 17.109375 3.546875 17.472656 C 3.5 17.558594 3.449219 17.640625 3.398438 17.722656 L 14.902344 19.136719 C 14.929688 19.1875 14.957031 19.238281 14.976562 19.269531 C 15.035156 19.320312 15.0625 19.398438 15.113281 19.457031 C 15.179688 19.535156 15.257812 19.601562 15.3125 19.695312 C 15.367188 19.792969 15.386719 19.894531 15.410156 20.003906 C 15.433594 20.128906 15.472656 20.140625 15.554688 20.246094 C 15.6875 20.421875 15.816406 20.632812 15.902344 20.835938 C 15.9375 20.921875 15.960938 21.0625 16.015625 21.144531 C 16.070312 21.226562 16.171875 21.277344 16.238281 21.371094 C 16.398438 21.59375 16.386719 21.867188 16.375 22.136719 C 16.371094 22.261719 16.390625 22.355469 16.417969 22.476562 C 16.453125 22.605469 16.417969 22.6875 16.398438 22.8125 C 16.347656 23.171875 16.441406 23.425781 16.523438 23.761719 C 16.550781 23.886719 16.554688 23.992188 16.648438 24.085938 C 16.726562 24.167969 16.847656 24.203125 16.921875 24.289062 C 17.023438 24.421875 17.007812 24.597656 17.074219 24.742188 C 17.164062 24.917969 17.332031 25.050781 17.492188 25.148438 C 17.746094 25.296875 17.785156 25.539062 17.796875 25.792969 L 26.589844 25.617188 C 26.601562 25.546875 26.59375 25.457031 26.589844 25.417969 Z M 26.589844 25.417969 " fill-opacity="1" fill-rule="nonzero"/></g><path fill="#014d4e" d="M 22.84375 5.523438 C 22.832031 5.453125 22.816406 5.457031 22.753906 5.429688 C 22.667969 5.398438 22.671875 5.277344 22.605469 5.253906 C 22.578125 5.285156 22.554688 5.320312 22.535156 5.359375 C 22.402344 5.351562 22.296875 5.429688 22.203125 5.527344 C 22.144531 5.589844 22.125 5.632812 22.042969 5.640625 C 21.949219 5.644531 21.960938 5.65625 21.988281 5.753906 C 22.023438 5.875 22 6.097656 22.164062 6.109375 C 22.3125 6.113281 22.40625 6.136719 22.511719 6.261719 C 22.566406 6.332031 22.574219 6.300781 22.648438 6.300781 C 22.648438 6.300781 22.65625 6.300781 22.65625 6.300781 C 22.722656 6.300781 22.769531 6.324219 22.800781 6.386719 C 22.820312 6.382812 22.847656 6.378906 22.871094 6.359375 C 22.914062 6.332031 22.886719 6.34375 22.910156 6.304688 C 22.9375 6.265625 22.925781 6.277344 22.976562 6.257812 C 23.003906 6.238281 23.035156 6.230469 23.046875 6.195312 C 23.058594 6.167969 23.042969 6.136719 23.046875 6.113281 C 23.050781 6.085938 23.0625 6.0625 23.078125 6.035156 C 23.101562 5.996094 23.136719 5.949219 23.152344 5.902344 C 23.15625 5.886719 23.164062 5.871094 23.164062 5.855469 C 23.171875 5.761719 23.117188 5.816406 23.050781 5.789062 C 23.003906 5.765625 22.96875 5.6875 22.925781 5.648438 C 22.902344 5.632812 22.863281 5.613281 22.855469 5.59375 C 22.832031 5.558594 22.847656 5.566406 22.84375 5.523438 Z M 22.84375 5.523438 " fill-opacity="1" fill-rule="nonzero"/><path fill="#014d4e" d="M 22.640625 6.40625 C 22.589844 6.417969 22.589844 6.472656 22.566406 6.515625 C 22.546875 6.554688 22.511719 6.570312 22.535156 6.621094 C 22.539062 6.636719 22.550781 6.640625 22.554688 6.648438 C 22.574219 6.660156 22.589844 6.660156 22.605469 6.652344 C 22.683594 6.648438 22.765625 6.539062 22.800781 6.472656 C 22.753906 6.449219 22.707031 6.398438 22.65625 6.398438 C 22.648438 6.398438 22.644531 6.40625 22.640625 6.40625 Z M 22.640625 6.40625 " fill-opacity="1" fill-rule="nonzero"/><path fill="#014d4e" d="M 22.132812 7.777344 C 22.160156 7.753906 22.160156 7.699219 22.175781 7.667969 C 22.210938 7.601562 22.214844 7.640625 22.269531 7.605469 C 22.308594 7.585938 22.347656 7.480469 22.359375 7.433594 C 22.375 7.335938 22.320312 7.3125 22.230469 7.292969 C 22.226562 7.292969 22.214844 7.285156 22.203125 7.285156 C 22.148438 7.277344 22.09375 7.285156 22.042969 7.269531 C 22.003906 7.253906 21.957031 7.214844 21.921875 7.257812 C 21.921875 7.257812 21.917969 7.253906 21.917969 7.253906 C 21.921875 7.269531 21.917969 7.257812 21.910156 7.265625 C 21.933594 7.304688 21.957031 7.347656 21.984375 7.386719 C 21.949219 7.496094 22.054688 7.726562 22.132812 7.777344 Z M 22.132812 7.777344 " fill-opacity="1" fill-rule="nonzero"/><path fill="#014d4e" d="M 21.746094 5.332031 C 21.769531 5.320312 21.800781 5.304688 21.835938 5.285156 C 21.855469 5.320312 21.921875 5.359375 21.949219 5.351562 C 22 5.347656 22.054688 5.292969 22.109375 5.28125 C 22.105469 5.253906 22.089844 5.21875 22.078125 5.199219 C 22.078125 5.199219 22.082031 5.191406 22.082031 5.191406 C 22.160156 5.210938 22.15625 5.230469 22.191406 5.164062 C 22.199219 5.148438 22.191406 5.121094 22.214844 5.109375 C 22.242188 5.097656 22.242188 5.125 22.269531 5.132812 C 22.371094 5.144531 22.429688 5.070312 22.496094 5.003906 C 22.523438 4.984375 22.578125 4.960938 22.589844 4.921875 C 22.601562 4.875 22.550781 4.867188 22.59375 4.824219 C 22.613281 4.808594 22.671875 4.796875 22.699219 4.785156 C 22.722656 4.773438 22.761719 4.742188 22.777344 4.734375 C 22.832031 4.726562 22.894531 4.808594 22.9375 4.835938 C 22.949219 4.800781 22.925781 4.703125 22.984375 4.714844 C 23.035156 4.726562 23.015625 4.785156 23.074219 4.789062 C 23.117188 4.796875 23.195312 4.769531 23.238281 4.757812 C 23.285156 4.753906 23.367188 4.742188 23.382812 4.6875 C 23.257812 4.609375 23.0625 4.597656 22.921875 4.546875 C 22.84375 4.519531 22.804688 4.53125 22.726562 4.546875 C 22.660156 4.558594 22.601562 4.546875 22.535156 4.53125 C 22.472656 4.515625 22.414062 4.5 22.347656 4.519531 C 22.292969 4.539062 22.242188 4.582031 22.183594 4.609375 C 22.132812 4.632812 22.070312 4.640625 22.039062 4.6875 C 22 4.730469 21.996094 4.800781 21.960938 4.851562 C 21.921875 4.90625 21.855469 4.933594 21.816406 4.988281 C 21.785156 5.039062 21.816406 5.082031 21.800781 5.144531 C 21.722656 5.117188 21.6875 5.082031 21.667969 5.183594 C 21.660156 5.238281 21.660156 5.324219 21.679688 5.378906 C 21.6875 5.359375 21.71875 5.34375 21.746094 5.332031 Z M 21.746094 5.332031 " fill-opacity="1" fill-rule="nonzero"/><path fill="#014d4e" d="M 21.703125 6.285156 C 21.746094 6.316406 21.835938 6.324219 21.890625 6.328125 C 21.917969 6.273438 21.855469 6.21875 21.800781 6.183594 C 21.785156 6.164062 21.773438 6.140625 21.757812 6.117188 C 21.757812 6.117188 21.746094 6.109375 21.746094 6.109375 C 21.742188 6.101562 21.730469 6.101562 21.722656 6.097656 C 21.71875 6.097656 21.714844 6.101562 21.707031 6.101562 C 21.707031 6.101562 21.707031 6.101562 21.707031 6.109375 C 21.660156 6.144531 21.648438 6.238281 21.703125 6.285156 Z M 21.703125 6.285156 " fill-opacity="1" fill-rule="nonzero"/><path fill="#014d4e" d="M 21.789062 7.003906 C 21.761719 7.039062 21.769531 7.097656 21.800781 7.125 C 21.851562 7.171875 21.96875 7.164062 22.027344 7.183594 C 22.070312 7.191406 22.148438 7.238281 22.203125 7.242188 C 22.21875 7.242188 22.230469 7.242188 22.242188 7.238281 C 22.296875 7.214844 22.332031 7.125 22.378906 7.09375 C 22.429688 7.0625 22.523438 7.097656 22.578125 7.0625 C 22.613281 7.039062 22.628906 6.902344 22.617188 6.851562 C 22.601562 6.796875 22.535156 6.757812 22.484375 6.726562 C 22.460938 6.707031 22.441406 6.695312 22.417969 6.679688 C 22.378906 6.660156 22.339844 6.648438 22.292969 6.648438 C 22.214844 6.648438 22.1875 6.695312 22.117188 6.714844 C 22.070312 6.648438 21.988281 6.648438 21.957031 6.585938 C 21.941406 6.558594 21.949219 6.515625 21.929688 6.492188 C 21.902344 6.453125 21.878906 6.464844 21.835938 6.453125 C 21.773438 6.4375 21.6875 6.351562 21.6875 6.464844 C 21.6875 6.546875 21.753906 6.585938 21.730469 6.667969 C 21.722656 6.695312 21.6875 6.820312 21.757812 6.78125 C 21.796875 6.78125 21.835938 6.78125 21.875 6.78125 C 21.863281 6.800781 21.839844 6.8125 21.824219 6.839844 C 21.789062 6.90625 21.847656 6.878906 21.855469 6.933594 C 21.867188 6.988281 21.816406 6.972656 21.789062 7.003906 Z M 21.789062 7.003906 " fill-opacity="1" fill-rule="nonzero"/></svg>
