<svg xmlns="http://www.w3.org/2000/svg" xmlns:xlink="http://www.w3.org/1999/xlink" width="40" zoomAndPan="magnify" viewBox="0 0 30 30.000001" height="40" preserveAspectRatio="xMidYMid meet" version="1.0"><defs><clipPath id="b14d26fc85"><path d="M 3.386719 9.027344 L 26.613281 9.027344 L 26.613281 19.917969 L 3.386719 19.917969 Z M 3.386719 9.027344 " clip-rule="nonzero"/></clipPath></defs><g clip-path="url(#b14d26fc85)"><path fill="#014d4e" d="M 26.503906 14.664062 C 26.398438 13.980469 26.269531 13.675781 25.910156 13.300781 C 25.859375 13.246094 25.820312 13.191406 25.804688 13.15625 C 25.625 12.847656 25.410156 12.8125 24.996094 12.8125 C 24.816406 12.8125 24.636719 12.832031 24.457031 12.832031 C 24.097656 12.847656 23.664062 12.867188 23.503906 12.796875 C 23.015625 12.5625 22.65625 12.6875 22.226562 12.867188 C 22.15625 12.902344 22.082031 12.902344 21.9375 12.886719 C 21.707031 12.867188 21.363281 12.847656 20.878906 13.046875 C 20.175781 13.335938 19.421875 13.441406 19.027344 13.300781 C 18.847656 13.226562 18.703125 13.15625 18.558594 13.101562 C 18.273438 12.957031 18.019531 12.847656 17.734375 12.902344 C 17.625 12.921875 17.515625 12.957031 17.371094 13.011719 C 17.085938 13.101562 16.707031 13.226562 16.4375 13.171875 C 16.113281 13.101562 15.808594 12.832031 15.574219 12.632812 C 15.503906 12.578125 15.449219 12.527344 15.394531 12.488281 C 15.339844 12.453125 15.269531 12.363281 15.179688 12.292969 C 14.855469 11.96875 14.390625 11.539062 13.957031 11.484375 C 13.6875 11.445312 13.542969 11.574219 13.488281 11.644531 C 13.292969 11.878906 13.382812 12.167969 13.472656 12.417969 C 13.488281 12.488281 13.527344 12.597656 13.527344 12.652344 C 13.363281 13.011719 13.6875 13.28125 13.832031 13.390625 C 13.867188 13.40625 13.902344 13.441406 13.921875 13.480469 C 13.832031 13.785156 14.046875 14 14.15625 14.089844 C 14.261719 14.199219 14.28125 14.214844 14.261719 14.304688 C 14.246094 14.449219 14.246094 14.574219 14.226562 14.664062 C 14.226562 14.699219 14.226562 14.753906 14.226562 14.789062 C 14.226562 14.789062 14.210938 14.789062 14.210938 14.789062 C 14.121094 14.789062 14.082031 14.773438 14.011719 14.753906 C 13.757812 14.648438 13.527344 14.628906 13.183594 14.863281 C 13.183594 14.828125 13.183594 14.789062 13.203125 14.699219 C 13.238281 14.558594 13.273438 14.339844 13.167969 14.109375 C 12.933594 13.585938 12.589844 13.570312 12.015625 13.730469 C 11.726562 13.800781 11.511719 14 11.40625 14.25 C 11.261719 14.609375 11.351562 15.113281 11.65625 15.582031 C 11.816406 15.851562 11.871094 15.960938 11.871094 16.011719 C 11.945312 16.28125 12.160156 16.5 12.429688 16.550781 C 12.394531 16.625 12.339844 16.679688 12.265625 16.730469 C 12.140625 16.804688 11.996094 16.824219 11.835938 16.785156 L 11.636719 16.730469 C 11.1875 16.625 10.992188 16.570312 10.667969 16.914062 C 10.578125 17.003906 10.523438 17.09375 10.488281 17.164062 C 10.46875 17.183594 10.46875 17.199219 10.453125 17.21875 C 10.433594 17.21875 10.414062 17.21875 10.398438 17.21875 C 10.289062 17.199219 10.234375 17.164062 10.144531 17.109375 C 10.003906 17.019531 9.804688 16.875 9.464844 16.875 C 9.140625 16.875 8.960938 16.984375 8.851562 17.074219 C 8.816406 17.019531 8.78125 16.984375 8.742188 16.929688 C 8.5625 16.679688 8.347656 16.371094 8.007812 16.300781 C 7.898438 16.28125 7.828125 16.230469 7.792969 16.175781 C 7.753906 16.101562 7.792969 15.976562 7.808594 15.921875 C 7.972656 15.546875 7.808594 15.277344 7.703125 15.132812 C 8.292969 14.648438 8.382812 14.035156 7.988281 13.460938 C 7.753906 13.117188 7.574219 12.777344 7.46875 12.507812 C 7.359375 12.203125 7.164062 11.914062 7 11.679688 C 6.964844 11.628906 6.929688 11.589844 6.910156 11.539062 C 6.910156 11.519531 6.890625 11.519531 6.890625 11.5 C 6.910156 11.5 6.910156 11.5 6.929688 11.5 C 6.945312 11.5 7 11.519531 7.035156 11.539062 C 7.269531 11.628906 7.738281 11.824219 8.167969 11.410156 C 8.601562 10.980469 8.222656 10.566406 8.097656 10.441406 C 7.972656 10.296875 7.898438 10.207031 7.882812 10.082031 C 7.84375 9.363281 7.214844 9.34375 6.945312 9.324219 C 6.875 9.324219 6.75 9.324219 6.730469 9.308594 C 6.246094 9.039062 5.832031 9.324219 5.5625 9.503906 C 5.507812 9.542969 5.382812 9.613281 5.257812 9.6875 C 4.699219 9.972656 4.285156 10.207031 4.140625 10.496094 C 4.140625 10.511719 4.125 10.511719 4.070312 10.546875 C 3.871094 10.65625 3.675781 10.816406 3.585938 11.265625 C 3.566406 11.355469 3.550781 11.445312 3.53125 11.5 C 3.386719 12.039062 3.53125 12.257812 4.140625 12.453125 C 4.539062 12.542969 4.789062 12.488281 4.96875 12.453125 C 5.167969 12.417969 5.203125 12.417969 5.328125 12.527344 C 5.777344 12.921875 6.046875 13.480469 6.046875 14.019531 C 6.046875 14.683594 6.011719 14.988281 5.957031 15.277344 C 5.941406 15.347656 5.941406 15.402344 5.921875 15.457031 C 5.902344 15.5625 5.902344 15.582031 5.8125 15.816406 C 5.671875 16.175781 5.851562 16.390625 5.941406 16.515625 C 6.011719 16.605469 6.011719 16.625 6.011719 16.730469 C 5.976562 16.929688 5.992188 17.09375 6.011719 17.183594 C 5.417969 17.523438 5.238281 18.097656 5.507812 18.710938 C 5.582031 18.871094 5.597656 18.980469 5.617188 19.085938 C 5.671875 19.429688 5.796875 19.644531 6.316406 19.753906 C 6.855469 19.859375 7.109375 19.664062 7.304688 19.5 C 7.414062 19.410156 7.503906 19.339844 7.664062 19.265625 C 7.773438 19.214844 7.882812 19.160156 7.988281 19.105469 C 8.292969 18.960938 8.546875 18.835938 8.796875 18.816406 C 8.886719 19.105469 9.085938 19.484375 9.480469 19.484375 C 9.695312 19.484375 9.824219 19.394531 9.894531 19.339844 C 9.949219 19.304688 10.003906 19.265625 10.324219 19.285156 C 10.488281 19.304688 10.632812 19.304688 10.757812 19.320312 C 11.1875 19.339844 11.296875 19.355469 11.441406 19.554688 C 11.78125 19.984375 12.140625 19.824219 12.304688 19.753906 C 12.410156 19.699219 12.410156 19.699219 12.484375 19.753906 C 12.71875 19.914062 13.039062 19.984375 13.382812 19.984375 C 13.902344 19.984375 14.480469 19.804688 14.910156 19.484375 C 15.144531 19.304688 15.359375 19.085938 15.574219 18.871094 C 15.933594 18.511719 16.3125 18.152344 16.707031 17.992188 C 16.941406 17.902344 17.121094 17.792969 17.265625 17.722656 C 17.570312 17.558594 17.660156 17.503906 18.003906 17.613281 C 18.523438 17.773438 18.9375 17.59375 19.261719 17.433594 C 19.476562 17.34375 19.65625 17.253906 19.835938 17.253906 C 19.835938 17.253906 19.835938 17.253906 19.855469 17.253906 C 20.015625 17.253906 20.140625 17.253906 20.25 17.234375 C 20.609375 17.21875 20.714844 17.199219 21.09375 17.59375 C 21.183594 17.683594 21.328125 17.722656 21.453125 17.683594 C 21.617188 17.632812 22.011719 17.59375 22.171875 17.757812 C 22.515625 18.132812 23.054688 18.007812 23.539062 17.882812 C 23.828125 17.8125 24.132812 17.738281 24.367188 17.773438 C 25.050781 17.863281 25.445312 17.324219 25.714844 16.984375 C 25.804688 16.859375 25.894531 16.730469 25.964844 16.695312 C 26.449219 16.300781 26.613281 15.367188 26.503906 14.664062 Z M 26.503906 14.664062 " fill-opacity="1" fill-rule="nonzero"/></g></svg>