<svg xmlns="http://www.w3.org/2000/svg" xmlns:xlink="http://www.w3.org/1999/xlink" width="40" zoomAndPan="magnify" viewBox="0 0 30 30.000001" height="40" preserveAspectRatio="xMidYMid meet" version="1.0"><defs><clipPath id="689afdc556"><path d="M 4.285156 2.902344 L 26 2.902344 L 26 26.128906 L 4.285156 26.128906 Z M 4.285156 2.902344 " clip-rule="nonzero"/></clipPath></defs><g clip-path="url(#689afdc556)"><path fill="#014d4e" d="M 16.960938 4.429688 C 16.964844 4.261719 16.976562 4.09375 16.9375 3.925781 C 16.90625 3.789062 16.878906 3.648438 16.769531 3.550781 C 16.75 3.53125 16.71875 3.507812 16.730469 3.472656 C 16.746094 3.4375 16.78125 3.449219 16.8125 3.449219 C 16.933594 3.441406 17.054688 3.464844 17.148438 3.539062 C 17.441406 3.769531 17.777344 3.78125 18.117188 3.746094 C 18.472656 3.703125 18.820312 3.75 19.171875 3.765625 C 19.289062 3.773438 19.394531 3.773438 19.5 3.710938 C 19.574219 3.667969 19.664062 3.628906 19.742188 3.691406 C 19.917969 3.832031 20.121094 3.804688 20.324219 3.796875 C 20.46875 3.792969 20.613281 3.78125 20.757812 3.777344 C 21.003906 3.765625 21.15625 3.609375 21.160156 3.363281 C 21.164062 3.117188 21.238281 3.007812 21.476562 2.941406 C 21.601562 2.910156 21.695312 2.996094 21.769531 3.085938 C 21.832031 3.160156 21.882812 3.242188 21.929688 3.328125 C 22.207031 3.808594 22.695312 3.90625 23.164062 3.796875 C 23.386719 3.746094 23.386719 3.742188 23.367188 3.960938 C 23.363281 3.988281 23.363281 4.015625 23.359375 4.039062 C 23.324219 4.285156 23.296875 4.300781 23.078125 4.191406 C 23.050781 4.179688 23.023438 4.171875 22.992188 4.164062 C 22.765625 4.105469 22.625 4.21875 22.644531 4.453125 C 22.648438 4.519531 22.652344 4.585938 22.640625 4.65625 C 22.613281 4.777344 22.558594 4.867188 22.445312 4.933594 C 22.328125 5 22.210938 5.066406 22.085938 5.121094 C 22.003906 5.15625 21.921875 5.191406 21.855469 5.25 C 21.6875 5.394531 21.683594 5.480469 21.847656 5.632812 C 21.902344 5.683594 21.96875 5.671875 22.027344 5.65625 C 22.339844 5.554688 22.664062 5.582031 22.984375 5.59375 C 23.050781 5.59375 23.117188 5.617188 23.183594 5.628906 C 23.265625 5.644531 23.308594 5.691406 23.335938 5.765625 C 23.414062 6.011719 23.585938 6.175781 23.832031 6.253906 C 23.945312 6.289062 24.023438 6.371094 24.105469 6.453125 C 24.164062 6.515625 24.226562 6.554688 24.324219 6.550781 C 24.496094 6.539062 24.675781 6.722656 24.664062 6.890625 C 24.652344 7.054688 24.628906 7.222656 24.527344 7.363281 C 24.453125 7.460938 24.449219 7.566406 24.511719 7.671875 C 24.648438 7.890625 24.820312 8.074219 25.015625 8.246094 C 25.058594 8.28125 25.113281 8.292969 25.167969 8.285156 C 25.347656 8.269531 25.457031 8.410156 25.355469 8.628906 C 25.347656 8.648438 25.332031 8.664062 25.320312 8.679688 C 25.082031 8.984375 25.117188 9.273438 25.414062 9.523438 C 25.507812 9.597656 25.613281 9.65625 25.667969 9.769531 C 25.703125 9.828125 25.707031 9.875 25.648438 9.925781 C 25.402344 10.125 25.199219 10.371094 25.023438 10.636719 C 24.964844 10.726562 24.871094 10.769531 24.789062 10.832031 C 24.574219 10.992188 24.335938 11.128906 24.15625 11.34375 C 24.074219 11.445312 24.015625 11.550781 23.988281 11.675781 C 23.921875 11.945312 23.679688 12.09375 23.40625 12.027344 C 23.351562 12.015625 23.296875 12 23.246094 11.980469 C 23 11.882812 22.785156 11.960938 22.621094 12.136719 C 22.34375 12.441406 22.035156 12.695312 21.703125 12.9375 C 21.414062 13.148438 21.230469 13.453125 21.054688 13.757812 C 20.929688 13.972656 20.953125 14.066406 21.152344 14.222656 C 21.398438 14.417969 21.671875 14.535156 21.988281 14.542969 C 22.109375 14.546875 22.207031 14.605469 22.304688 14.664062 C 22.390625 14.714844 22.410156 14.960938 22.347656 15.046875 C 22.214844 15.230469 22.03125 15.234375 21.835938 15.214844 C 21.46875 15.167969 21.132812 15.023438 20.796875 14.878906 C 20.542969 14.765625 20.3125 14.765625 20.082031 14.9375 C 19.957031 15.03125 19.820312 15.09375 19.664062 15.109375 C 19.503906 15.125 19.382812 15.078125 19.277344 14.960938 C 19.140625 14.800781 19.125 14.796875 18.9375 14.898438 C 18.667969 15.039062 18.398438 15.167969 18.097656 15.21875 C 17.898438 15.25 17.753906 15.363281 17.664062 15.539062 C 17.574219 15.710938 17.4375 15.832031 17.277344 15.929688 C 17.074219 16.054688 16.917969 16.226562 16.808594 16.4375 C 16.761719 16.523438 16.675781 16.566406 16.601562 16.621094 C 16.441406 16.738281 16.371094 16.878906 16.417969 17.082031 C 16.464844 17.28125 16.414062 17.347656 16.222656 17.414062 C 16.113281 17.453125 16.015625 17.648438 16.050781 17.753906 C 16.054688 17.773438 16.074219 17.789062 16.09375 17.796875 C 16.125 17.820312 16.160156 17.84375 16.195312 17.847656 C 16.464844 17.878906 16.699219 18.007812 16.953125 18.085938 C 17.152344 18.148438 17.339844 18.230469 17.515625 18.34375 C 17.738281 18.488281 17.722656 18.746094 17.566406 18.894531 C 17.296875 19.148438 16.996094 19.308594 16.613281 19.300781 C 16.4375 19.300781 16.257812 19.328125 16.121094 19.472656 C 16.066406 19.535156 16.046875 19.597656 16.109375 19.660156 C 16.230469 19.789062 16.203125 19.90625 16.140625 20.058594 C 16.011719 20.371094 15.738281 20.511719 15.480469 20.667969 C 15.265625 20.796875 15.03125 20.902344 14.800781 21.007812 C 14.578125 21.109375 14.414062 21.265625 14.296875 21.476562 C 14.164062 21.722656 14.007812 21.957031 13.742188 22.085938 C 13.554688 22.175781 13.351562 22.222656 13.140625 22.246094 C 12.976562 22.261719 12.835938 22.3125 12.710938 22.433594 C 12.566406 22.574219 12.410156 22.707031 12.246094 22.828125 C 12.109375 22.929688 11.960938 22.992188 11.792969 23.011719 C 11.742188 23.015625 11.691406 23.023438 11.644531 23.039062 C 11.550781 23.074219 11.480469 23.128906 11.515625 23.25 C 11.523438 23.28125 11.527344 23.316406 11.527344 23.351562 C 11.53125 23.382812 11.546875 23.421875 11.507812 23.441406 C 11.476562 23.457031 11.453125 23.425781 11.425781 23.414062 C 11.300781 23.347656 11.195312 23.261719 11.117188 23.136719 C 11.074219 23.070312 11.023438 23.007812 10.972656 22.945312 C 10.890625 22.851562 10.765625 22.851562 10.707031 22.960938 C 10.523438 23.300781 10.300781 23.621094 10.324219 24.042969 C 10.347656 24.484375 10.234375 24.902344 9.949219 25.257812 C 9.894531 25.324219 9.839844 25.398438 9.820312 25.488281 C 9.796875 25.597656 9.738281 25.652344 9.628906 25.644531 C 9.355469 25.632812 9.113281 25.738281 8.871094 25.832031 C 8.546875 25.957031 8.207031 26.007812 7.871094 26.078125 C 7.699219 26.117188 7.578125 26.019531 7.496094 25.878906 C 7.453125 25.804688 7.40625 25.734375 7.347656 25.671875 C 7.152344 25.464844 6.921875 25.394531 6.644531 25.484375 C 6.425781 25.554688 6.207031 25.621094 5.972656 25.539062 C 5.886719 25.507812 5.796875 25.554688 5.726562 25.609375 C 5.640625 25.667969 5.550781 25.6875 5.449219 25.679688 C 5.171875 25.660156 4.890625 25.640625 4.613281 25.628906 C 4.421875 25.621094 4.28125 25.46875 4.433594 25.269531 C 4.558594 25.109375 4.6875 24.960938 4.894531 24.910156 C 5.015625 24.878906 5.105469 24.8125 5.144531 24.699219 C 5.1875 24.589844 5.332031 24.519531 5.269531 24.363281 C 5.253906 24.328125 5.335938 24.320312 5.371094 24.347656 C 5.4375 24.40625 5.460938 24.367188 5.492188 24.3125 C 5.589844 24.125 5.691406 23.941406 5.796875 23.753906 C 5.878906 23.609375 5.882812 23.445312 5.886719 23.285156 C 5.890625 23.175781 5.785156 23.113281 5.722656 23.035156 C 5.605469 22.882812 5.601562 22.882812 5.769531 22.78125 C 5.964844 22.667969 6.09375 22.5 6.183594 22.300781 C 6.230469 22.195312 6.273438 22.085938 6.320312 21.984375 C 6.394531 21.832031 6.4375 21.671875 6.425781 21.503906 C 6.410156 21.242188 6.484375 21.015625 6.667969 20.820312 C 6.773438 20.710938 6.871094 20.585938 6.800781 20.410156 C 6.773438 20.347656 6.84375 20.328125 6.882812 20.300781 C 7.140625 20.121094 7.414062 19.96875 7.664062 19.773438 C 7.867188 19.621094 7.980469 19.417969 8.03125 19.1875 C 8.101562 18.863281 8.261719 18.578125 8.382812 18.277344 C 8.4375 18.140625 8.5 18.003906 8.5625 17.867188 C 8.589844 17.808594 8.628906 17.746094 8.566406 17.683594 C 8.535156 17.648438 8.558594 17.613281 8.589844 17.597656 C 8.765625 17.519531 8.792969 17.351562 8.835938 17.191406 C 8.851562 17.132812 8.871094 17.078125 8.882812 17.019531 C 8.898438 16.929688 8.945312 16.863281 9.035156 16.832031 C 9.113281 16.800781 9.160156 16.75 9.148438 16.65625 C 9.140625 16.59375 9.175781 16.542969 9.199219 16.488281 C 9.320312 16.242188 9.433594 15.988281 9.570312 15.75 C 9.726562 15.472656 9.769531 15.175781 9.777344 14.867188 C 9.78125 14.800781 9.777344 14.734375 9.78125 14.664062 C 9.792969 14.5 9.769531 14.34375 9.671875 14.207031 C 9.550781 14.03125 9.679688 13.929688 9.820312 13.910156 C 9.964844 13.894531 10.097656 13.929688 10.222656 14 C 10.285156 14.035156 10.351562 14.058594 10.414062 14.027344 C 10.523438 13.972656 10.636719 13.984375 10.753906 13.996094 C 10.976562 14.011719 11.089844 13.953125 11.1875 13.75 C 11.230469 13.664062 11.277344 13.582031 11.320312 13.503906 C 11.339844 13.460938 11.371094 13.417969 11.300781 13.390625 C 11.253906 13.371094 11.277344 13.339844 11.300781 13.320312 C 11.398438 13.226562 11.4375 13.097656 11.496094 12.984375 C 11.578125 12.824219 11.679688 12.707031 11.878906 12.738281 C 11.9375 12.746094 11.992188 12.734375 12.011719 12.667969 C 12.03125 12.609375 12.015625 12.554688 11.964844 12.519531 C 11.746094 12.382812 11.8125 12.183594 11.851562 11.996094 C 11.875 11.882812 11.921875 11.769531 11.972656 11.664062 C 12.0625 11.464844 12.085938 11.253906 12.113281 11.046875 C 12.128906 10.9375 12.089844 10.832031 12.023438 10.75 C 11.800781 10.488281 11.8125 10.175781 11.828125 9.867188 C 11.835938 9.777344 11.878906 9.703125 11.964844 9.664062 C 12.089844 9.609375 12.125 9.515625 12.125 9.378906 C 12.117188 9.027344 12.15625 8.679688 12.324219 8.355469 C 12.40625 8.195312 12.558594 8.128906 12.691406 8.035156 C 12.75 7.996094 12.804688 8.0625 12.84375 8.097656 C 12.929688 8.167969 12.980469 8.144531 13.042969 8.066406 C 13.15625 7.925781 13.242188 7.773438 13.3125 7.609375 C 13.371094 7.460938 13.464844 7.335938 13.546875 7.199219 C 13.578125 7.15625 13.617188 7.128906 13.664062 7.105469 C 13.824219 7.035156 13.976562 6.953125 14.140625 6.894531 C 14.308594 6.828125 14.4375 6.722656 14.554688 6.585938 C 14.597656 6.535156 14.601562 6.496094 14.558594 6.445312 C 14.5 6.371094 14.4375 6.292969 14.386719 6.210938 C 14.355469 6.160156 14.332031 6.070312 14.433594 6.09375 C 14.703125 6.164062 14.941406 6.042969 15.195312 6.011719 C 15.589844 5.96875 15.921875 5.808594 16.210938 5.535156 C 16.355469 5.398438 16.527344 5.28125 16.703125 5.175781 C 16.878906 5.074219 16.964844 4.921875 16.960938 4.714844 C 16.960938 4.617188 16.960938 4.523438 16.960938 4.429688 Z M 16.960938 4.429688 " fill-opacity="1" fill-rule="nonzero"/></g></svg>