<svg xmlns="http://www.w3.org/2000/svg" xmlns:xlink="http://www.w3.org/1999/xlink" width="40" zoomAndPan="magnify" viewBox="0 0 30 30.000001" height="40" preserveAspectRatio="xMidYMid meet" version="1.0"><defs><clipPath id="9144bc7e95"><path d="M 9.121094 2.902344 L 20.734375 2.902344 L 20.734375 26.128906 L 9.121094 26.128906 Z M 9.121094 2.902344 " clip-rule="nonzero"/></clipPath></defs><g clip-path="url(#9144bc7e95)"><path fill="#014d4e" d="M 10.339844 19.296875 C 10.367188 19.25 10.355469 19.21875 10.304688 19.199219 C 9.945312 19.054688 9.886719 18.902344 10.128906 18.582031 C 10.3125 18.34375 10.363281 17.996094 10.449219 17.691406 C 10.464844 17.640625 10.382812 17.515625 10.320312 17.492188 C 10.039062 17.386719 9.75 17.300781 9.503906 17.222656 C 9.480469 17.214844 9.46875 17.203125 9.460938 17.179688 C 9.121094 16.164062 9.792969 15.417969 10.027344 14.558594 C 10.160156 14.085938 10.722656 13.785156 10.53125 13.203125 C 10.519531 13.164062 10.660156 13.03125 10.75 13.011719 C 11.042969 12.941406 11.265625 12.898438 11.308594 12.480469 C 11.339844 12.191406 11.660156 11.929688 11.847656 11.65625 C 11.910156 11.570312 11.964844 11.476562 12.035156 11.398438 C 12.082031 11.347656 12.132812 11.300781 12.1875 11.253906 C 12.203125 11.242188 12.210938 11.226562 12.210938 11.207031 C 12.238281 10.824219 12.261719 10.472656 12.289062 10.066406 C 12.292969 10 12.328125 9.980469 12.390625 10.007812 C 12.550781 10.089844 12.683594 10.160156 12.824219 10.207031 C 12.894531 10.226562 12.972656 10.210938 13.050781 10.199219 C 13.101562 10.195312 13.121094 10.164062 13.109375 10.117188 C 13.097656 10.046875 13.085938 9.972656 13.046875 9.921875 C 12.816406 9.625 12.945312 8.902344 13.253906 8.699219 C 13.359375 8.632812 13.425781 8.511719 13.507812 8.394531 C 13.535156 8.359375 13.566406 8.351562 13.605469 8.378906 C 13.726562 8.46875 13.84375 8.570312 13.976562 8.609375 C 14.046875 8.625 14.132812 8.582031 14.222656 8.539062 C 14.25 8.527344 14.261719 8.507812 14.261719 8.480469 C 14.265625 8.449219 14.253906 8.429688 14.226562 8.414062 L 13.558594 8.03125 C 13.523438 8.011719 13.511719 7.980469 13.527344 7.945312 L 13.550781 7.890625 C 13.5625 7.863281 13.582031 7.847656 13.609375 7.847656 C 13.722656 7.839844 13.867188 7.808594 13.90625 7.855469 C 14.109375 8.117188 14.324219 8.007812 14.5 7.878906 C 15.238281 7.34375 15.523438 7.15625 15.257812 6.226562 C 15.21875 6.085938 15.148438 5.933594 15.171875 5.796875 C 15.207031 5.5625 15.210938 5.316406 15.582031 5.265625 C 15.847656 5.230469 16.171875 5.042969 16.308594 4.824219 C 16.40625 4.664062 16.28125 4.324219 16.183594 4.09375 C 16.164062 4.046875 16.121094 4.011719 16.058594 3.976562 C 15.992188 3.9375 16.03125 3.835938 16.109375 3.847656 L 16.261719 3.875 C 16.296875 3.882812 16.320312 3.871094 16.335938 3.84375 C 16.492188 3.582031 16.660156 3.300781 16.859375 2.96875 C 16.875 2.941406 16.898438 2.929688 16.929688 2.933594 C 17.273438 2.992188 17.664062 3.054688 18.058594 3.125 C 18.453125 3.199219 18.34375 3.539062 18.421875 3.777344 C 18.433594 3.820312 18.421875 3.847656 18.378906 3.863281 L 17.949219 4.015625 C 17.886719 4.039062 17.875 4.074219 17.921875 4.125 C 18.0625 4.296875 18.171875 4.421875 18.273438 4.546875 C 18.320312 4.601562 18.355469 4.703125 18.398438 4.707031 C 19.066406 4.730469 18.742188 5.171875 18.730469 5.480469 C 18.730469 5.503906 18.730469 5.527344 18.730469 5.554688 C 18.730469 5.585938 18.746094 5.605469 18.773438 5.617188 C 18.800781 5.628906 18.824219 5.625 18.847656 5.605469 C 19.613281 4.953125 19.804688 5.859375 20.203125 6.164062 C 20.226562 6.179688 20.238281 6.203125 20.230469 6.234375 L 20.105469 6.875 C 20.097656 6.914062 20.074219 6.933594 20.03125 6.929688 L 19.859375 6.921875 C 19.832031 6.917969 19.8125 6.929688 19.796875 6.953125 C 19.78125 6.976562 19.78125 7 19.792969 7.023438 C 19.828125 7.085938 19.859375 7.144531 19.863281 7.207031 C 19.867188 7.253906 19.824219 7.308594 19.773438 7.375 C 19.730469 7.429688 19.742188 7.464844 19.8125 7.484375 L 20.0625 7.546875 C 20.105469 7.558594 20.121094 7.585938 20.113281 7.625 C 20.09375 7.761719 20.074219 7.902344 20.046875 8.066406 C 20.042969 8.097656 20.054688 8.121094 20.082031 8.136719 C 20.261719 8.238281 20.257812 8.40625 20.242188 8.675781 C 20.214844 9.03125 20.449219 9.402344 20.570312 9.765625 C 20.625 9.925781 20.671875 10.089844 20.726562 10.25 C 20.871094 10.660156 20.71875 11.027344 20.613281 11.417969 C 20.558594 11.613281 20.765625 11.871094 20.769531 12.097656 C 20.773438 12.347656 20.660156 12.59375 20.632812 12.847656 C 20.59375 13.15625 20.488281 13.363281 20.140625 13.417969 C 20.070312 13.425781 19.96875 13.660156 19.996094 13.761719 C 20.03125 13.902344 20.144531 14.023438 20.257812 14.179688 C 20.285156 14.21875 20.28125 14.25 20.242188 14.277344 C 20.214844 14.296875 20.175781 14.324219 20.140625 14.351562 C 19.945312 14.484375 19.925781 14.605469 20.117188 14.785156 C 20.5625 15.195312 20.617188 15.449219 20.351562 15.957031 C 20.304688 16.046875 20.117188 16.050781 20.003906 16.113281 C 19.898438 16.171875 19.753906 16.234375 19.722656 16.328125 C 19.570312 16.777344 19.613281 16.835938 20.140625 16.78125 C 20.199219 16.773438 20.226562 16.800781 20.21875 16.855469 C 20.195312 17.074219 20.191406 17.273438 20.539062 17.152344 C 20.566406 17.140625 20.585938 17.144531 20.605469 17.164062 C 20.628906 17.179688 20.636719 17.199219 20.632812 17.226562 C 20.628906 17.257812 20.613281 17.277344 20.585938 17.285156 L 20.144531 17.425781 C 20.117188 17.433594 20.101562 17.449219 20.097656 17.476562 C 20.089844 17.5 20.097656 17.523438 20.117188 17.542969 L 20.28125 17.703125 C 20.292969 17.714844 20.300781 17.730469 20.300781 17.75 C 20.304688 18.003906 20.335938 18.3125 20.277344 18.605469 C 20.261719 18.691406 20.070312 18.742188 19.886719 18.816406 C 19.859375 18.828125 19.847656 18.847656 19.84375 18.871094 C 19.835938 18.898438 19.84375 18.917969 19.863281 18.9375 L 19.976562 19.035156 L 19.886719 19.230469 L 19.605469 19.195312 C 19.574219 19.1875 19.550781 19.203125 19.535156 19.230469 C 19.519531 19.261719 19.523438 19.289062 19.546875 19.3125 L 19.894531 19.660156 C 19.914062 19.675781 19.921875 19.699219 19.914062 19.726562 C 19.90625 19.75 19.890625 19.765625 19.867188 19.773438 C 19.675781 19.835938 19.640625 20.066406 19.648438 20.367188 C 19.65625 20.5625 19.550781 20.761719 19.480469 20.953125 C 19.402344 21.167969 19.285156 21.371094 19.554688 21.546875 C 19.578125 21.5625 19.546875 21.710938 19.507812 21.773438 C 19.460938 21.839844 19.375 21.882812 19.277344 21.957031 C 19.261719 21.964844 19.253906 21.980469 19.25 21.996094 C 19.203125 22.195312 19.144531 22.457031 19.082031 22.714844 C 19.078125 22.734375 19.066406 22.75 19.050781 22.757812 L 18.773438 22.925781 C 18.75 22.9375 18.726562 22.941406 18.703125 22.925781 L 18.125 22.609375 C 18.082031 22.585938 18.050781 22.59375 18.027344 22.636719 C 17.953125 22.773438 17.878906 22.914062 17.804688 23.054688 C 17.78125 23.105469 17.746094 23.113281 17.703125 23.078125 L 17.632812 23.027344 L 17.859375 23.171875 C 17.894531 23.199219 17.902344 23.230469 17.878906 23.269531 C 17.742188 23.492188 17.59375 23.710938 17.472656 23.945312 C 17.34375 24.179688 17.253906 24.425781 17.195312 24.683594 C 17.191406 24.699219 17.183594 24.710938 17.171875 24.722656 C 16.710938 25.132812 16.71875 25.152344 17.160156 25.746094 C 17.203125 25.800781 17.210938 25.957031 17.179688 25.972656 C 17.0625 26.035156 16.921875 26.101562 16.796875 26.09375 C 16.636719 26.082031 16.476562 26.03125 16.292969 25.980469 C 16.265625 25.972656 16.246094 25.957031 16.242188 25.929688 C 16.234375 25.898438 16.246094 25.878906 16.265625 25.859375 C 16.578125 25.609375 16.546875 25.308594 16.238281 25.058594 C 16.0625 24.917969 15.777344 24.878906 15.539062 24.859375 C 15.3125 24.84375 15.136719 24.714844 14.953125 24.660156 C 14.40625 24.488281 14.164062 24.132812 13.921875 23.664062 C 13.851562 23.53125 13.363281 23.617188 13.066406 23.597656 C 12.117188 23.535156 11.4375 23.0625 10.945312 22.257812 C 10.792969 22.003906 10.5625 21.769531 10.316406 21.605469 C 10.066406 21.4375 9.875 21.316406 10 20.976562 C 10.027344 20.910156 9.96875 20.761719 9.910156 20.730469 C 9.632812 20.585938 9.703125 20.429688 9.835938 20.21875 C 10.015625 19.933594 10.164062 19.628906 10.339844 19.296875 Z M 10.339844 19.296875 " fill-opacity="1" fill-rule="nonzero"/></g></svg>