<svg xmlns="http://www.w3.org/2000/svg" width="40" zoomAndPan="magnify" viewBox="0 0 30 30.000001" height="40"
     preserveAspectRatio="xMidYMid meet" version="1.0"><defs><clipPath id="c3c4e728ca"><path d="M 9.136719 2.921875 L 20.75 2.921875 L 20.75 26.109375 L 9.136719 26.109375 Z M 9.136719 2.921875 " clip-rule="nonzero"/></clipPath></defs><g clip-path="url(#c3c4e728ca)"><path fill="#014d4e" d="M 9.910156 23.765625 C 10.820312 23.214844 11.796875 22.59375 12.164062 21.59375 C 12.328125 21.144531 12.351562 20.660156 12.34375 20.179688 C 12.316406 18.867188 12.042969 17.558594 11.546875 16.34375 C 11.019531 15.054688 10.226562 13.820312 10.15625 12.429688 C 10.109375 11.488281 10.398438 10.566406 10.714844 9.675781 C 11.335938 7.921875 12.070312 6.207031 12.910156 4.546875 C 13.167969 4.035156 13.445312 3.488281 13.371094 2.921875 C 13.660156 2.953125 13.757812 3.308594 13.882812 3.574219 C 14.027344 3.878906 14.285156 4.117188 14.535156 4.347656 C 14.828125 4.613281 15.121094 4.882812 15.414062 5.148438 C 15.585938 5.308594 15.773438 5.492188 15.789062 5.726562 C 15.800781 5.878906 15.734375 6.027344 15.671875 6.167969 C 15.421875 6.707031 15.175781 7.246094 14.925781 7.785156 C 15.050781 7.785156 15.171875 7.785156 15.292969 7.785156 C 15.441406 7.78125 15.566406 7.894531 15.644531 8.015625 C 15.664062 8.046875 15.683594 8.078125 15.714844 8.097656 C 15.746094 8.117188 15.785156 8.125 15.820312 8.136719 C 16.015625 8.195312 16.148438 8.371094 16.265625 8.539062 C 16.402344 8.730469 16.539062 8.921875 16.648438 9.128906 C 16.691406 9.210938 16.730469 9.296875 16.789062 9.367188 C 16.878906 9.46875 17.003906 9.53125 17.101562 9.625 C 17.136719 9.652344 17.167969 9.6875 17.167969 9.730469 C 17.171875 9.765625 17.15625 9.800781 17.140625 9.828125 C 17.035156 10.035156 16.949219 10.253906 16.890625 10.480469 C 16.847656 10.636719 16.808594 10.8125 16.691406 10.925781 C 16.628906 10.988281 16.546875 11.03125 16.480469 11.089844 C 16.347656 11.210938 16.292969 11.417969 16.355469 11.589844 L 16.34375 11.621094 C 16.359375 11.867188 16.371094 12.113281 16.382812 12.359375 C 16.386719 12.429688 16.390625 12.503906 16.414062 12.570312 C 16.425781 12.605469 16.441406 12.640625 16.4375 12.679688 C 16.433594 12.703125 16.417969 12.722656 16.402344 12.742188 C 16.339844 12.824219 16.257812 12.894531 16.167969 12.945312 C 16.105469 12.980469 16.039062 13.007812 15.984375 13.054688 C 15.902344 13.121094 15.859375 13.222656 15.820312 13.320312 C 15.8125 13.332031 15.808594 13.347656 15.8125 13.359375 C 15.816406 13.375 15.828125 13.382812 15.839844 13.390625 C 15.96875 13.46875 16.132812 13.453125 16.285156 13.433594 C 16.363281 13.425781 16.441406 13.414062 16.519531 13.390625 C 16.617188 13.359375 16.714844 13.300781 16.816406 13.308594 C 16.945312 13.320312 17.042969 13.421875 17.132812 13.511719 C 17.304688 13.679688 17.503906 13.820312 17.71875 13.929688 C 17.882812 14.015625 18.070312 14.09375 18.144531 14.261719 C 18.207031 14.414062 18.359375 14.570312 18.3125 14.726562 C 18.304688 14.75 18.292969 14.777344 18.296875 14.804688 C 18.296875 14.832031 18.316406 14.855469 18.332031 14.878906 C 18.519531 15.136719 18.722656 15.382812 18.933594 15.617188 C 18.988281 15.675781 19.046875 15.738281 19.121094 15.757812 C 19.230469 15.789062 19.347656 15.722656 19.429688 15.636719 C 19.507812 15.554688 19.566406 15.453125 19.65625 15.375 C 19.679688 15.355469 19.707031 15.335938 19.738281 15.335938 C 19.796875 15.332031 19.84375 15.378906 19.871094 15.429688 C 19.933594 15.527344 19.960938 15.640625 19.960938 15.753906 C 19.960938 15.789062 19.957031 15.824219 19.96875 15.855469 C 19.988281 15.894531 20.027344 15.914062 20.050781 15.949219 C 20.097656 16.011719 20.085938 16.101562 20.050781 16.175781 C 20.019531 16.25 19.96875 16.3125 19.945312 16.390625 C 19.890625 16.566406 19.992188 16.75 20.015625 16.933594 C 20.027344 17.042969 20.011719 17.15625 20.058594 17.253906 C 20.09375 17.324219 20.15625 17.375 20.21875 17.425781 C 20.351562 17.53125 20.484375 17.636719 20.617188 17.746094 C 20.660156 17.78125 20.707031 17.824219 20.707031 17.878906 C 20.707031 17.941406 20.648438 17.988281 20.621094 18.046875 C 20.609375 18.078125 20.605469 18.113281 20.59375 18.144531 C 20.558594 18.265625 20.445312 18.34375 20.34375 18.417969 C 20.125 18.566406 19.96875 18.816406 19.964844 19.082031 C 19.964844 19.191406 19.996094 19.308594 19.941406 19.402344 C 19.890625 19.480469 19.785156 19.527344 19.773438 19.621094 C 19.769531 19.65625 19.777344 19.691406 19.789062 19.726562 C 19.824219 19.832031 19.882812 19.957031 19.992188 19.976562 C 20.097656 19.996094 20.238281 19.917969 20.304688 20.003906 C 20.339844 20.046875 20.328125 20.109375 20.34375 20.164062 C 20.363281 20.257812 20.449219 20.316406 20.511719 20.386719 C 20.605469 20.484375 20.664062 20.609375 20.71875 20.734375 C 20.769531 20.855469 20.824219 20.980469 20.847656 21.113281 C 20.925781 21.550781 20.65625 21.980469 20.65625 22.429688 C 20.65625 22.445312 20.65625 22.460938 20.648438 22.476562 C 20.636719 22.492188 20.617188 22.5 20.601562 22.507812 C 20.398438 22.578125 20.183594 22.605469 19.972656 22.585938 C 19.902344 22.707031 19.785156 22.824219 19.683594 22.925781 C 19.65625 22.953125 19.625 22.984375 19.585938 22.976562 C 19.546875 22.972656 19.519531 22.9375 19.484375 22.925781 C 19.398438 22.902344 19.296875 23.023438 19.226562 22.964844 C 19.214844 22.949219 19.203125 22.929688 19.183594 22.921875 C 19.148438 22.90625 19.121094 22.957031 19.109375 22.996094 C 19.089844 23.082031 19.066406 23.171875 19.042969 23.257812 C 19.035156 23.292969 19.027344 23.332031 19.03125 23.367188 C 19.039062 23.425781 19.074219 23.46875 19.105469 23.519531 C 19.210938 23.683594 19.230469 23.902344 19.15625 24.082031 C 19.132812 24.152344 19.09375 24.214844 19.074219 24.28125 C 19.058594 24.347656 19.058594 24.417969 19.042969 24.484375 C 19.019531 24.5625 18.976562 24.628906 18.933594 24.699219 C 18.902344 24.75 18.863281 24.808594 18.804688 24.828125 C 18.675781 24.867188 18.519531 24.722656 18.414062 24.804688 C 18.324219 24.875 18.347656 25.070312 18.234375 25.074219 C 18.207031 25.078125 18.179688 25.0625 18.152344 25.0625 C 18.109375 25.054688 18.066406 25.070312 18.027344 25.089844 C 17.867188 25.15625 17.710938 25.230469 17.566406 25.332031 C 17.398438 25.449219 17.25 25.609375 17.050781 25.667969 C 16.921875 25.707031 16.785156 25.695312 16.652344 25.703125 C 16.21875 25.726562 15.8125 25.917969 15.410156 26.089844 C 15.386719 26.101562 15.359375 26.113281 15.332031 26.109375 C 15.300781 26.105469 15.273438 26.082031 15.25 26.058594 C 15.125 25.933594 15 25.804688 14.960938 25.632812 C 14.933594 25.507812 14.960938 25.371094 14.925781 25.246094 C 14.882812 25.082031 14.746094 24.957031 14.617188 24.847656 C 14.542969 24.785156 14.46875 24.71875 14.394531 24.65625 C 14.308594 24.582031 14.207031 24.5 14.09375 24.476562 C 14.011719 24.457031 13.925781 24.476562 13.847656 24.5 C 13.652344 24.5625 13.472656 24.664062 13.273438 24.710938 C 13.101562 24.753906 12.925781 24.75 12.753906 24.777344 C 12.578125 24.800781 12.402344 24.859375 12.28125 24.988281 C 12.234375 25.035156 12.199219 25.097656 12.15625 25.148438 C 11.953125 25.371094 11.589844 25.363281 11.3125 25.242188 C 11.261719 25.222656 11.199219 25.199219 11.160156 25.238281 C 11.101562 25.289062 11.171875 25.390625 11.144531 25.464844 C 11.109375 25.558594 10.960938 25.53125 10.882812 25.460938 C 10.808594 25.394531 10.726562 25.296875 10.625 25.320312 C 10.550781 25.335938 10.507812 25.410156 10.46875 25.480469 C 10.371094 25.664062 10.269531 25.847656 10.164062 26.027344 C 10.140625 26.0625 10.105469 26.105469 10.0625 26.089844 C 10.046875 26.085938 10.035156 26.070312 10.027344 26.054688 C 9.898438 25.875 9.835938 25.65625 9.847656 25.4375 C 9.851562 25.394531 9.851562 25.34375 9.816406 25.324219 C 9.804688 25.316406 9.785156 25.3125 9.769531 25.3125 C 9.625 25.3125 9.496094 25.453125 9.507812 25.597656 C 9.515625 25.664062 9.535156 25.757812 9.46875 25.777344 C 9.359375 25.515625 9.265625 25.25 9.183594 24.980469 C 9.15625 24.882812 9.128906 24.78125 9.136719 24.679688 C 9.15625 24.386719 9.429688 24.183594 9.679688 24.023438 L 9.910156 23.765625 " fill-opacity="1" fill-rule="nonzero"/></g></svg>
