<svg xmlns="http://www.w3.org/2000/svg" xmlns:xlink="http://www.w3.org/1999/xlink" width="40" zoomAndPan="magnify" viewBox="0 0 30 30.000001" height="40" preserveAspectRatio="xMidYMid meet" version="1.0"><defs><clipPath id="f950985fad"><path d="M 8.480469 4 L 9 4 L 9 6 L 8.480469 6 Z M 8.480469 4 " clip-rule="nonzero"/></clipPath><clipPath id="ac1e53544f"><path d="M 8.480469 4 L 21.546875 4 L 21.546875 26.128906 L 8.480469 26.128906 Z M 8.480469 4 " clip-rule="nonzero"/></clipPath><clipPath id="8af081773f"><path d="M 8.480469 7 L 11 7 L 11 9 L 8.480469 9 Z M 8.480469 7 " clip-rule="nonzero"/></clipPath></defs><path fill="#014d4e" d="M 10.140625 3.683594 C 10.160156 3.722656 10.171875 3.789062 10.203125 3.816406 C 10.234375 3.847656 10.226562 3.832031 10.261719 3.828125 C 10.3125 3.820312 10.378906 3.777344 10.425781 3.789062 C 10.492188 3.796875 10.542969 3.871094 10.582031 3.914062 C 10.628906 3.964844 10.660156 4.023438 10.722656 4.058594 C 10.777344 4.089844 10.84375 4.105469 10.902344 4.140625 C 10.960938 4.171875 11.191406 4.375 11.222656 4.359375 C 11.230469 4.265625 11.066406 4.148438 11.015625 4.074219 C 10.953125 3.988281 10.96875 3.902344 11.015625 3.8125 C 11.066406 3.707031 11.113281 3.726562 11.21875 3.707031 C 11.265625 3.695312 11.359375 3.625 11.414062 3.625 C 11.4375 3.625 11.453125 3.632812 11.460938 3.65625 C 11.488281 3.730469 11.359375 3.769531 11.347656 3.816406 C 11.328125 3.851562 11.3125 3.890625 11.296875 3.929688 C 11.261719 3.914062 11.21875 3.894531 11.183594 3.878906 C 11.148438 3.800781 11.082031 3.882812 11.082031 3.929688 C 11.078125 4.003906 11.132812 4.089844 11.195312 4.132812 C 11.269531 4.183594 11.335938 4.238281 11.410156 4.296875 C 11.457031 4.328125 11.636719 4.472656 11.597656 4.324219 C 11.574219 4.25 11.441406 4.144531 11.566406 4.105469 C 11.628906 4.089844 11.6875 4.128906 11.742188 4.152344 C 11.824219 4.1875 11.90625 4.21875 11.980469 4.265625 C 12.128906 4.363281 12.261719 4.488281 12.421875 4.566406 C 12.542969 4.628906 12.621094 4.734375 12.734375 4.8125 C 12.804688 4.867188 12.820312 4.851562 12.902344 4.839844 C 12.964844 4.832031 13.03125 4.875 13.097656 4.886719 C 13.183594 4.90625 13.207031 4.921875 13.242188 4.839844 C 13.25 4.820312 13.261719 4.808594 13.273438 4.792969 C 13.335938 4.832031 13.414062 4.871094 13.464844 4.894531 C 13.605469 4.972656 13.75 5.039062 13.886719 5.128906 C 14 5.203125 14.128906 5.257812 14.234375 5.339844 C 14.292969 5.382812 14.421875 5.476562 14.496094 5.46875 C 14.496094 5.410156 14.445312 5.371094 14.40625 5.335938 C 14.304688 5.238281 14.191406 5.191406 14.082031 5.105469 C 13.957031 5.011719 13.828125 4.9375 13.714844 4.824219 C 13.359375 4.492188 12.945312 4.226562 12.613281 3.871094 C 12.554688 3.808594 12.5 3.730469 12.433594 3.675781 C 12.402344 3.652344 12.363281 3.640625 12.332031 3.613281 C 12.292969 3.585938 12.265625 3.542969 12.234375 3.503906 C 12.195312 3.445312 12.164062 3.394531 12.128906 3.332031 C 12.101562 3.273438 12.089844 3.226562 12.066406 3.164062 C 11.976562 2.910156 11.691406 3.101562 11.511719 3.109375 C 11.425781 3.113281 11.335938 3.058594 11.347656 3.175781 C 11.347656 3.203125 11.355469 3.226562 11.363281 3.242188 C 11.382812 3.273438 11.425781 3.28125 11.472656 3.304688 C 11.539062 3.328125 11.609375 3.347656 11.683594 3.351562 C 11.753906 3.355469 11.820312 3.347656 11.890625 3.371094 C 12.015625 3.417969 12.105469 3.535156 12.164062 3.652344 C 12.226562 3.792969 12.371094 3.867188 12.488281 3.960938 C 12.597656 4.050781 12.707031 4.140625 12.804688 4.246094 C 12.863281 4.308594 12.953125 4.414062 13.015625 4.441406 C 13.035156 4.46875 13.058594 4.496094 13.078125 4.527344 C 13.027344 4.5 12.980469 4.484375 12.929688 4.46875 C 12.851562 4.445312 12.761719 4.390625 12.699219 4.335938 C 12.628906 4.277344 12.59375 4.21875 12.507812 4.1875 C 12.441406 4.167969 12.359375 4.136719 12.308594 4.085938 C 12.261719 4.035156 12.210938 3.949219 12.171875 3.886719 C 12.105469 3.789062 11.984375 3.589844 11.859375 3.574219 C 11.808594 3.566406 11.792969 3.609375 11.742188 3.605469 C 11.699219 3.601562 11.675781 3.542969 11.640625 3.519531 C 11.570312 3.480469 11.492188 3.511719 11.417969 3.507812 C 11.410156 3.507812 11.402344 3.507812 11.398438 3.503906 C 11.285156 3.480469 11.296875 3.332031 11.25 3.246094 C 11.230469 3.214844 11.203125 3.1875 11.152344 3.191406 C 11.054688 3.195312 10.972656 3.226562 10.878906 3.179688 C 10.796875 3.136719 10.730469 3.125 10.640625 3.160156 C 10.542969 3.191406 10.453125 3.238281 10.355469 3.28125 C 10.269531 3.324219 10.0625 3.371094 10.078125 3.5 C 10.066406 3.5625 10.109375 3.636719 10.140625 3.683594 Z M 10.140625 3.683594 " fill-opacity="1" fill-rule="nonzero"/><path fill="#014d4e" d="M 9.824219 3.792969 C 9.824219 3.789062 9.824219 3.789062 9.820312 3.789062 C 9.855469 3.789062 9.894531 3.785156 9.929688 3.785156 C 9.933594 3.742188 9.925781 3.699219 9.921875 3.65625 C 9.917969 3.597656 9.933594 3.5 9.882812 3.46875 C 9.804688 3.417969 9.804688 3.5 9.796875 3.546875 C 9.777344 3.605469 9.667969 3.800781 9.824219 3.792969 Z M 9.824219 3.792969 " fill-opacity="1" fill-rule="nonzero"/><path fill="#014d4e" d="M 9.507812 3.878906 C 9.550781 3.820312 9.535156 3.753906 9.488281 3.714844 C 9.457031 3.746094 9.429688 3.777344 9.402344 3.816406 C 9.425781 3.851562 9.4375 3.972656 9.507812 3.878906 Z M 9.507812 3.878906 " fill-opacity="1" fill-rule="nonzero"/><path fill="#014d4e" d="M 9.203125 4.046875 C 9.222656 4.105469 9.265625 4.105469 9.296875 4.058594 C 9.351562 3.984375 9.328125 3.90625 9.265625 3.855469 C 9.246094 3.890625 9.222656 3.921875 9.203125 3.957031 C 9.207031 3.972656 9.199219 4.03125 9.203125 4.046875 Z M 9.203125 4.046875 " fill-opacity="1" fill-rule="nonzero"/><g clip-path="url(#f950985fad)"><path fill="#014d4e" d="M 8.917969 5.183594 C 9 5.140625 8.941406 4.898438 8.882812 4.855469 C 8.84375 4.820312 8.777344 4.847656 8.738281 4.8125 C 8.707031 4.789062 8.703125 4.75 8.683594 4.722656 C 8.628906 4.644531 8.515625 4.609375 8.507812 4.730469 C 8.503906 4.734375 8.503906 4.730469 8.5 4.726562 C 8.503906 4.757812 8.507812 4.792969 8.511719 4.824219 C 8.492188 4.855469 8.480469 4.894531 8.488281 4.929688 C 8.496094 4.992188 8.542969 5.027344 8.601562 5.054688 C 8.679688 5.097656 8.835938 5.222656 8.917969 5.183594 Z M 8.917969 5.183594 " fill-opacity="1" fill-rule="nonzero"/></g><path fill="#014d4e" d="M 9.242188 4.410156 C 9.257812 4.351562 9.234375 4.261719 9.171875 4.246094 C 9.15625 4.285156 9.140625 4.316406 9.125 4.351562 C 9.152344 4.398438 9.199219 4.554688 9.242188 4.410156 Z M 9.242188 4.410156 " fill-opacity="1" fill-rule="nonzero"/><path fill="#014d4e" d="M 9.757812 4.058594 C 9.78125 4.082031 9.804688 4.105469 9.8125 4.140625 C 9.824219 4.171875 9.808594 4.199219 9.835938 4.226562 C 9.890625 4.277344 9.925781 4.234375 9.972656 4.214844 C 10.019531 4.1875 10.078125 4.195312 10.136719 4.21875 C 10.175781 4.234375 10.242188 4.332031 10.296875 4.285156 C 10.363281 4.226562 10.230469 4.144531 10.195312 4.113281 C 10.179688 4.09375 10.152344 4.074219 10.144531 4.054688 C 10.132812 4.03125 10.148438 4 10.140625 3.976562 C 10.101562 3.878906 10.027344 3.957031 9.972656 3.972656 C 9.957031 3.976562 9.921875 3.976562 9.894531 3.972656 C 9.855469 3.949219 9.816406 3.925781 9.777344 3.902344 C 9.761719 3.886719 9.746094 3.871094 9.738281 3.851562 C 9.6875 3.828125 9.667969 3.890625 9.667969 3.929688 C 9.675781 3.996094 9.722656 4.015625 9.757812 4.058594 Z M 9.757812 4.058594 " fill-opacity="1" fill-rule="nonzero"/><path fill="#014d4e" d="M 9.449219 4.554688 C 9.503906 4.578125 9.53125 4.589844 9.589844 4.582031 C 9.613281 4.578125 9.644531 4.5625 9.667969 4.5625 C 9.679688 4.5625 9.722656 4.574219 9.730469 4.566406 C 9.78125 4.539062 9.730469 4.316406 9.691406 4.265625 C 9.644531 4.203125 9.609375 4.21875 9.585938 4.28125 C 9.578125 4.300781 9.5625 4.332031 9.558594 4.359375 C 9.523438 4.328125 9.496094 4.304688 9.460938 4.277344 C 9.46875 4.238281 9.425781 4.234375 9.414062 4.277344 C 9.40625 4.304688 9.425781 4.351562 9.425781 4.382812 C 9.417969 4.472656 9.324219 4.496094 9.449219 4.554688 Z M 9.449219 4.554688 " fill-opacity="1" fill-rule="nonzero"/><path fill="#014d4e" d="M 10.429688 4.320312 C 10.414062 4.398438 10.398438 4.535156 10.53125 4.445312 C 10.621094 4.382812 10.644531 4.300781 10.554688 4.242188 C 10.511719 4.265625 10.472656 4.292969 10.429688 4.320312 Z M 10.429688 4.320312 " fill-opacity="1" fill-rule="nonzero"/><g clip-path="url(#ac1e53544f)"><path fill="#014d4e" d="M 21.511719 19.472656 C 21.511719 19.417969 21.507812 19.371094 21.476562 19.328125 C 21.453125 19.296875 21.40625 19.28125 21.386719 19.246094 C 21.335938 19.171875 21.386719 19.136719 21.421875 19.078125 C 21.453125 19.035156 21.488281 18.914062 21.476562 18.859375 C 21.445312 18.75 21.355469 18.859375 21.328125 18.910156 C 21.277344 18.855469 21.296875 18.757812 21.320312 18.695312 C 21.339844 18.640625 21.390625 18.585938 21.402344 18.527344 C 21.414062 18.472656 21.414062 18.394531 21.417969 18.332031 C 21.421875 18.265625 21.421875 18.203125 21.433594 18.144531 C 21.441406 18.089844 21.429688 17.996094 21.453125 17.953125 C 21.453125 17.945312 21.445312 17.9375 21.445312 17.929688 C 21.460938 17.894531 21.46875 17.859375 21.472656 17.824219 C 21.484375 17.730469 21.46875 17.652344 21.433594 17.566406 C 21.394531 17.464844 21.359375 17.347656 21.304688 17.265625 C 21.246094 17.183594 21.179688 17.097656 21.160156 17 C 21.121094 16.824219 21.171875 16.636719 21.121094 16.46875 C 21.101562 16.386719 21.066406 16.300781 21.03125 16.226562 C 20.996094 16.144531 20.941406 16.101562 20.890625 16.035156 C 20.804688 15.929688 20.769531 15.820312 20.734375 15.695312 C 20.695312 15.5625 20.648438 15.488281 20.539062 15.398438 C 20.464844 15.335938 20.378906 15.273438 20.300781 15.222656 C 20.242188 15.183594 20.167969 15.15625 20.136719 15.089844 C 20.105469 15.019531 20.113281 14.957031 20.050781 14.898438 C 20.007812 14.851562 19.941406 14.808594 19.882812 14.773438 C 19.867188 14.765625 19.835938 14.746094 19.804688 14.730469 C 19.800781 14.707031 19.796875 14.691406 19.792969 14.675781 C 19.773438 14.613281 19.769531 14.5625 19.777344 14.496094 C 19.789062 14.394531 19.835938 14.28125 19.742188 14.210938 C 19.652344 14.148438 19.644531 14.144531 19.648438 14.03125 C 19.648438 13.996094 19.660156 13.933594 19.632812 13.902344 C 19.609375 13.871094 19.558594 13.867188 19.527344 13.855469 C 19.425781 13.808594 19.316406 13.710938 19.265625 13.613281 C 19.234375 13.558594 19.203125 13.492188 19.183594 13.433594 C 19.164062 13.386719 19.164062 13.320312 19.136719 13.285156 C 19.058594 13.195312 19.050781 13.355469 18.984375 13.359375 C 18.929688 13.363281 18.847656 13.191406 18.816406 13.152344 C 18.785156 13.109375 18.742188 13.070312 18.714844 13.027344 C 18.683594 12.976562 18.699219 12.976562 18.703125 12.929688 C 18.710938 12.859375 18.691406 12.78125 18.738281 12.722656 C 18.820312 12.75 18.835938 12.890625 18.882812 12.957031 C 18.917969 13.007812 19 13.136719 19.023438 13.023438 C 19.039062 12.949219 19 12.878906 18.980469 12.8125 C 18.957031 12.726562 18.929688 12.636719 18.894531 12.558594 C 18.828125 12.398438 18.773438 12.238281 18.753906 12.066406 C 18.75 12.007812 18.753906 11.925781 18.734375 11.878906 C 18.695312 11.78125 18.648438 11.832031 18.578125 11.800781 C 18.523438 11.769531 18.527344 11.714844 18.519531 11.660156 C 18.507812 11.613281 18.484375 11.5625 18.476562 11.515625 C 18.476562 11.507812 18.472656 11.496094 18.472656 11.480469 C 18.503906 11.515625 18.542969 11.550781 18.582031 11.558594 C 18.746094 11.585938 18.609375 11.34375 18.589844 11.265625 C 18.554688 11.09375 18.511719 10.941406 18.390625 10.808594 C 18.285156 10.691406 18.285156 10.824219 18.199219 10.863281 C 18.125 10.898438 18.078125 10.851562 18.078125 10.960938 C 18.078125 11.082031 18.015625 11.105469 17.894531 11.074219 C 17.828125 11.058594 17.796875 11.054688 17.730469 11.054688 C 17.683594 11.054688 17.65625 11.042969 17.625 11.015625 C 17.554688 10.960938 17.523438 10.882812 17.421875 10.871094 C 17.34375 10.867188 17.261719 10.972656 17.199219 10.914062 C 17.140625 10.855469 17.195312 10.753906 17.242188 10.703125 C 17.335938 10.605469 17.382812 10.691406 17.472656 10.722656 C 17.542969 10.742188 17.59375 10.707031 17.589844 10.644531 C 17.589844 10.589844 17.550781 10.503906 17.5625 10.453125 C 17.578125 10.390625 17.625 10.4375 17.667969 10.421875 C 17.789062 10.378906 17.792969 10.171875 17.757812 10.082031 C 17.648438 9.78125 17.449219 9.527344 17.261719 9.273438 C 17.21875 9.28125 17.226562 9.332031 17.179688 9.320312 C 17.167969 9.320312 17.101562 9.261719 17.09375 9.253906 C 17.035156 9.183594 17.113281 9.183594 17.136719 9.125 C 17.160156 9.0625 17.101562 9.027344 17.0625 8.96875 C 17.019531 8.910156 16.996094 8.851562 16.933594 8.8125 C 16.910156 8.832031 16.902344 8.875 16.867188 8.871094 C 16.84375 8.867188 16.824219 8.828125 16.8125 8.8125 C 16.769531 8.761719 16.738281 8.75 16.683594 8.71875 C 16.644531 8.691406 16.578125 8.625 16.5625 8.574219 C 16.550781 8.542969 16.570312 8.519531 16.5625 8.484375 C 16.546875 8.449219 16.503906 8.410156 16.484375 8.378906 C 16.445312 8.316406 16.324219 8.097656 16.246094 8.195312 C 16.203125 8.246094 16.238281 8.339844 16.183594 8.378906 C 16.140625 8.40625 16.078125 8.378906 16.042969 8.355469 C 16 8.320312 15.941406 8.226562 15.933594 8.183594 C 15.917969 8.167969 15.902344 8.15625 15.886719 8.140625 C 15.890625 8.121094 15.890625 8.101562 15.894531 8.082031 C 15.914062 7.996094 15.894531 7.964844 15.839844 7.894531 C 15.804688 7.851562 15.75 7.742188 15.859375 7.75 C 15.984375 7.761719 15.980469 7.980469 16.074219 8.035156 C 16.167969 8.089844 16.132812 7.917969 16.113281 7.871094 C 16.074219 7.738281 16 7.632812 15.929688 7.515625 C 15.898438 7.46875 15.875 7.414062 15.832031 7.378906 C 15.773438 7.328125 15.785156 7.363281 15.734375 7.359375 C 15.664062 7.355469 15.621094 7.246094 15.558594 7.199219 C 15.515625 7.167969 15.386719 7.109375 15.457031 7.035156 C 15.511719 6.980469 15.585938 7.0625 15.625 7.082031 C 15.644531 7.03125 15.609375 6.953125 15.597656 6.90625 C 15.570312 6.816406 15.542969 6.714844 15.492188 6.640625 C 15.457031 6.582031 15.414062 6.507812 15.363281 6.460938 C 15.3125 6.421875 15.304688 6.4375 15.273438 6.464844 C 15.230469 6.503906 15.246094 6.519531 15.199219 6.476562 C 15.167969 6.445312 15.144531 6.40625 15.117188 6.371094 C 15.074219 6.332031 14.90625 6.265625 14.96875 6.195312 C 15.015625 6.140625 15.09375 6.195312 15.132812 6.222656 C 15.175781 6.253906 15.28125 6.34375 15.28125 6.238281 C 15.28125 6.191406 15.203125 6.117188 15.167969 6.089844 C 15.113281 6.039062 15.042969 6.003906 14.984375 5.957031 C 14.933594 5.917969 14.878906 5.871094 14.832031 5.824219 C 14.808594 5.796875 14.730469 5.667969 14.695312 5.730469 C 14.699219 5.769531 14.722656 5.808594 14.722656 5.84375 C 14.726562 5.84375 14.726562 5.839844 14.730469 5.839844 C 14.726562 5.863281 14.71875 5.890625 14.714844 5.917969 C 14.699219 5.898438 14.679688 5.886719 14.664062 5.871094 C 14.605469 5.824219 14.535156 5.78125 14.472656 5.730469 C 14.359375 5.640625 14.253906 5.539062 14.140625 5.449219 C 14.058594 5.382812 13.984375 5.359375 13.882812 5.359375 C 13.773438 5.359375 13.730469 5.296875 13.640625 5.242188 C 13.5625 5.199219 13.472656 5.160156 13.386719 5.128906 C 13.277344 5.089844 13.175781 5.027344 13.0625 5.011719 C 12.964844 4.992188 12.902344 4.996094 12.871094 5.089844 C 12.839844 5.191406 12.828125 5.171875 12.734375 5.1875 C 12.660156 5.199219 12.609375 5.261719 12.535156 5.28125 C 12.460938 5.300781 12.378906 5.3125 12.304688 5.3125 C 12.242188 5.3125 12.175781 5.292969 12.117188 5.273438 C 12.046875 5.242188 12.035156 5.230469 12.035156 5.164062 C 12.042969 4.886719 11.738281 4.890625 11.554688 4.796875 C 11.460938 4.746094 11.390625 4.664062 11.292969 4.625 C 11.207031 4.585938 11.101562 4.542969 11.019531 4.535156 C 11.015625 4.535156 11.007812 4.53125 11.003906 4.53125 C 11.105469 4.644531 11.222656 4.730469 11.332031 4.835938 C 11.441406 4.933594 11.578125 5.070312 11.609375 5.210938 C 11.667969 5.507812 10.738281 5.535156 10.878906 5.800781 C 10.90625 5.855469 10.9375 5.859375 10.929688 5.929688 C 10.925781 5.964844 10.90625 6.003906 10.925781 6.039062 C 10.957031 6.09375 11.035156 6.097656 11.082031 6.109375 C 11.125 6.117188 11.167969 6.125 11.214844 6.136719 C 11.21875 6.15625 11.21875 6.167969 11.21875 6.183594 C 11.21875 6.183594 11.21875 6.179688 11.222656 6.179688 C 11.332031 6.285156 11.238281 6.417969 11.207031 6.535156 C 11.1875 6.613281 11.214844 6.695312 11.199219 6.777344 C 11.1875 6.855469 11.148438 6.929688 11.125 7.003906 C 11.109375 7.058594 11.082031 7.136719 11.085938 7.199219 C 11.050781 7.238281 11.019531 7.273438 10.992188 7.3125 C 10.949219 7.367188 10.949219 7.433594 10.941406 7.503906 C 10.929688 7.578125 10.910156 7.707031 10.875 7.765625 C 10.828125 7.84375 10.753906 7.894531 10.679688 7.945312 C 10.542969 8.039062 10.410156 8.144531 10.304688 8.273438 C 10.21875 8.375 10.191406 8.492188 10.164062 8.625 C 10.148438 8.703125 10.128906 8.78125 10.109375 8.859375 C 10.09375 8.914062 10.054688 8.988281 10.050781 9.046875 C 10.046875 9.117188 10.109375 9.210938 10.140625 9.273438 C 10.214844 9.433594 10.253906 9.605469 10.253906 9.78125 C 10.253906 9.855469 10.238281 9.929688 10.222656 10.003906 C 10.203125 10.082031 10.203125 10.167969 10.191406 10.25 C 10.160156 10.285156 10.132812 10.324219 10.101562 10.363281 C 10.097656 10.433594 10.082031 10.535156 10.03125 10.597656 C 9.976562 10.671875 9.894531 10.65625 9.847656 10.742188 C 9.796875 10.839844 9.753906 10.929688 9.746094 11.046875 C 9.734375 11.1875 9.714844 11.316406 9.652344 11.445312 C 9.625 11.5 9.589844 11.546875 9.582031 11.605469 C 9.570312 11.6875 9.578125 11.789062 9.582031 11.871094 C 9.589844 12.035156 9.554688 12.222656 9.484375 12.371094 C 9.457031 12.417969 9.402344 12.476562 9.390625 12.53125 C 9.371094 12.597656 9.429688 12.667969 9.453125 12.726562 C 9.5 12.84375 9.554688 13.015625 9.480469 13.128906 C 9.433594 13.199219 9.375 13.226562 9.359375 13.316406 C 9.335938 13.433594 9.417969 13.5 9.476562 13.582031 C 9.53125 13.667969 9.5625 13.777344 9.5625 13.871094 C 9.5625 13.902344 9.566406 13.925781 9.5625 13.953125 C 9.550781 13.960938 9.535156 13.972656 9.527344 13.984375 C 9.277344 14.097656 8.941406 13.84375 9 13.570312 C 9.011719 13.503906 9.03125 13.457031 9.007812 13.386719 C 8.988281 13.328125 8.941406 13.269531 8.9375 13.203125 C 8.933594 13.136719 8.960938 13.0625 8.964844 12.992188 C 8.972656 12.890625 8.972656 12.785156 8.996094 12.683594 C 9.019531 12.574219 9.070312 12.472656 9.089844 12.367188 C 9.105469 12.296875 9.121094 12.132812 9.066406 12.082031 C 8.960938 12.113281 8.910156 12.324219 8.863281 12.410156 C 8.832031 12.476562 8.785156 12.53125 8.769531 12.601562 C 8.75 12.695312 8.753906 12.804688 8.765625 12.898438 C 8.78125 13.019531 8.777344 13.105469 8.753906 13.222656 C 8.738281 13.3125 8.742188 13.390625 8.765625 13.476562 C 8.792969 13.59375 8.828125 13.707031 8.855469 13.824219 C 8.886719 13.941406 8.941406 14.042969 8.980469 14.164062 C 9.011719 14.265625 9.03125 14.371094 9.0625 14.476562 C 9.074219 14.515625 9.09375 14.609375 9.121094 14.671875 C 9.132812 14.757812 9.15625 14.84375 9.1875 14.925781 C 9.242188 15.0625 9.28125 15.1875 9.292969 15.332031 C 9.308594 15.46875 9.296875 15.601562 9.320312 15.734375 C 9.335938 15.855469 9.316406 15.984375 9.347656 16.101562 C 9.386719 16.226562 9.492188 16.40625 9.429688 16.539062 C 9.371094 16.539062 9.335938 16.394531 9.316406 16.34375 C 9.308594 16.316406 9.28125 16.253906 9.25 16.261719 C 9.207031 16.269531 9.207031 16.367188 9.210938 16.394531 C 9.226562 16.519531 9.277344 16.636719 9.308594 16.757812 C 9.339844 16.894531 9.371094 17.027344 9.425781 17.164062 C 9.457031 17.25 9.472656 17.371094 9.511719 17.46875 C 9.519531 17.554688 9.53125 17.648438 9.550781 17.738281 C 9.574219 17.878906 9.632812 18.03125 9.621094 18.179688 C 9.613281 18.308594 9.59375 18.410156 9.617188 18.535156 C 9.632812 18.605469 9.644531 18.675781 9.660156 18.746094 C 9.667969 18.789062 9.699219 18.929688 9.664062 18.96875 C 9.609375 19.015625 9.566406 18.859375 9.554688 18.824219 C 9.523438 18.757812 9.488281 18.675781 9.429688 18.640625 C 9.378906 18.734375 9.429688 18.832031 9.449219 18.925781 C 9.480469 19.0625 9.535156 19.175781 9.582031 19.308594 C 9.617188 19.429688 9.644531 19.554688 9.675781 19.675781 C 9.6875 19.726562 9.714844 19.804688 9.742188 19.875 C 9.726562 19.886719 9.710938 19.898438 9.691406 19.910156 C 9.644531 19.9375 9.574219 19.980469 9.550781 20.03125 C 9.515625 20.085938 9.558594 20.1875 9.574219 20.246094 C 9.582031 20.285156 9.585938 20.324219 9.601562 20.363281 C 9.621094 20.40625 9.640625 20.410156 9.671875 20.441406 C 9.734375 20.496094 9.71875 20.605469 9.722656 20.683594 C 9.730469 20.789062 9.757812 20.894531 9.761719 21 C 9.765625 21.097656 9.730469 21.195312 9.777344 21.289062 C 9.800781 21.332031 9.839844 21.359375 9.867188 21.390625 C 9.925781 21.457031 9.976562 21.53125 10.03125 21.597656 C 10.125 21.707031 10.121094 21.847656 10.167969 21.980469 C 10.21875 22.105469 10.234375 22.246094 10.285156 22.371094 C 10.300781 22.421875 10.328125 22.558594 10.367188 22.636719 C 10.363281 22.667969 10.355469 22.707031 10.351562 22.722656 C 10.347656 22.808594 10.351562 22.871094 10.390625 22.949219 C 10.429688 23.035156 10.5 23.117188 10.53125 23.203125 C 10.582031 23.34375 10.648438 23.496094 10.667969 23.648438 C 10.683594 23.773438 10.726562 23.894531 10.722656 24.019531 C 10.714844 24.171875 10.726562 24.253906 10.824219 24.371094 C 10.875 24.433594 10.925781 24.492188 10.96875 24.5625 C 11.003906 24.632812 11.023438 24.714844 11.058594 24.785156 C 11.085938 24.839844 11.113281 24.910156 11.152344 24.957031 C 11.21875 25.03125 11.300781 25.101562 11.386719 25.15625 C 11.570312 25.269531 11.765625 25.371094 11.953125 25.484375 C 12.042969 25.535156 12.105469 25.621094 12.195312 25.667969 C 12.242188 25.6875 12.289062 25.691406 12.335938 25.699219 C 12.394531 25.714844 12.460938 25.746094 12.523438 25.753906 C 12.636719 25.761719 12.75 25.753906 12.863281 25.753906 C 12.875 25.753906 12.894531 25.753906 12.90625 25.753906 C 13.027344 25.820312 13.15625 25.871094 13.292969 25.914062 C 13.398438 25.941406 13.472656 25.898438 13.570312 25.902344 C 13.691406 25.90625 13.808594 25.945312 13.910156 26.019531 C 13.953125 26.050781 14.023438 26.121094 14.074219 26.101562 C 14.121094 26.082031 14.140625 25.984375 14.160156 25.941406 C 14.199219 25.871094 14.230469 25.832031 14.304688 25.816406 C 14.402344 25.792969 14.503906 25.785156 14.609375 25.78125 C 14.679688 25.777344 14.789062 25.78125 14.855469 25.75 C 14.949219 25.699219 15.003906 25.585938 15.09375 25.515625 C 15.160156 25.457031 15.25 25.394531 15.34375 25.394531 C 15.441406 25.386719 15.507812 25.386719 15.582031 25.3125 C 15.625 25.261719 15.652344 25.1875 15.726562 25.179688 C 15.785156 25.175781 15.828125 25.234375 15.886719 25.21875 C 15.96875 25.207031 16.046875 25.140625 16.128906 25.113281 C 16.210938 25.089844 16.292969 25.074219 16.375 25.042969 C 16.535156 24.996094 16.703125 24.972656 16.859375 24.921875 C 16.9375 24.894531 16.996094 24.851562 17.078125 24.835938 C 17.152344 24.824219 17.226562 24.796875 17.289062 24.765625 C 17.347656 24.730469 17.40625 24.699219 17.457031 24.660156 C 17.539062 24.648438 17.621094 24.621094 17.710938 24.554688 C 17.816406 24.484375 17.925781 24.464844 18.042969 24.421875 C 18.109375 24.394531 18.167969 24.363281 18.238281 24.347656 C 18.300781 24.328125 18.363281 24.339844 18.417969 24.304688 C 18.484375 24.269531 18.527344 24.203125 18.589844 24.160156 C 18.644531 24.128906 18.714844 24.121094 18.777344 24.109375 C 18.851562 24.09375 18.855469 24.050781 18.886719 23.984375 C 18.917969 23.914062 18.960938 23.890625 19.023438 23.847656 C 19.097656 23.796875 19.171875 23.769531 19.246094 23.726562 C 19.328125 23.683594 19.320312 23.617188 19.375 23.550781 C 19.421875 23.488281 19.53125 23.445312 19.601562 23.414062 C 19.71875 23.363281 19.816406 23.285156 19.917969 23.203125 C 19.972656 23.15625 19.980469 23.089844 20.035156 23.046875 C 20.070312 23.019531 20.113281 23.011719 20.140625 22.984375 C 20.199219 22.9375 20.246094 22.875 20.296875 22.824219 C 20.414062 22.714844 20.53125 22.613281 20.59375 22.464844 C 20.609375 22.417969 20.605469 22.363281 20.632812 22.324219 C 20.667969 22.28125 20.722656 22.261719 20.757812 22.226562 C 20.886719 22.09375 20.859375 21.925781 20.925781 21.769531 C 20.964844 21.679688 20.984375 21.589844 20.992188 21.492188 C 20.992188 21.46875 20.996094 21.453125 20.996094 21.433594 C 21.019531 21.402344 21.046875 21.367188 21.0625 21.34375 C 21.105469 21.273438 21.136719 21.21875 21.160156 21.140625 C 21.179688 21.074219 21.179688 21 21.199219 20.9375 C 21.222656 20.875 21.269531 20.835938 21.285156 20.769531 C 21.3125 20.652344 21.214844 20.664062 21.1875 20.5625 C 21.167969 20.464844 21.273438 20.4375 21.3125 20.378906 C 21.351562 20.3125 21.394531 20.242188 21.414062 20.167969 C 21.433594 20.097656 21.402344 20.035156 21.40625 19.960938 C 21.410156 19.890625 21.457031 19.824219 21.46875 19.753906 C 21.503906 19.621094 21.511719 19.542969 21.511719 19.472656 Z M 21.511719 19.472656 " fill-opacity="1" fill-rule="nonzero"/></g><g clip-path="url(#8af081773f)"><path fill="#014d4e" d="M 8.859375 7.273438 C 8.800781 7.285156 8.75 7.320312 8.769531 7.382812 C 8.785156 7.4375 8.867188 7.476562 8.910156 7.507812 C 8.96875 7.554688 9.015625 7.609375 9.089844 7.636719 C 9.222656 7.679688 9.351562 7.707031 9.46875 7.792969 C 9.625 7.914062 9.742188 8.226562 9.964844 8.253906 C 10.109375 8.273438 9.957031 8.097656 9.921875 8.058594 C 9.867188 7.996094 9.8125 7.925781 9.777344 7.851562 C 9.769531 7.835938 9.757812 7.808594 9.746094 7.785156 C 9.796875 7.804688 9.84375 7.835938 9.878906 7.855469 C 9.898438 7.871094 9.949219 7.925781 9.972656 7.921875 C 10.007812 7.914062 9.996094 7.875 9.984375 7.847656 C 9.898438 7.660156 9.679688 7.527344 9.511719 7.421875 C 9.375 7.335938 9.238281 7.375 9.09375 7.324219 C 9.011719 7.292969 8.953125 7.253906 8.859375 7.273438 Z M 8.859375 7.273438 " fill-opacity="1" fill-rule="nonzero"/></g></svg>