<svg xmlns="http://www.w3.org/2000/svg" width="40" zoomAndPan="magnify" viewBox="0 0 30 30.000001" height="40"
     preserveAspectRatio="xMidYMid meet" version="1.0"><defs><clipPath id="74e13d62b1"><path d="M 3.386719 3.714844 L 26.613281 3.714844 L 26.613281 25.492188 L 3.386719 25.492188 Z M 3.386719 3.714844 " clip-rule="nonzero"/></clipPath></defs><g clip-path="url(#74e13d62b1)"><path fill="#014d4e" d="M 26.609375 12.390625 C 26.558594 12.453125 26.503906 12.507812 26.457031 12.574219 C 26.386719 12.675781 26.316406 12.785156 26.25 12.890625 C 26.210938 12.949219 26.179688 13.011719 26.109375 13.050781 C 26.058594 13.082031 26.007812 13.132812 25.976562 13.183594 C 25.871094 13.359375 25.695312 13.421875 25.515625 13.460938 C 25.363281 13.496094 25.238281 13.574219 25.117188 13.664062 C 25.105469 13.671875 25.097656 13.6875 25.085938 13.691406 C 24.914062 13.78125 24.910156 13.941406 24.902344 14.101562 C 24.898438 14.183594 24.898438 14.265625 24.902344 14.34375 C 24.90625 14.425781 24.921875 14.503906 24.917969 14.582031 C 24.914062 14.773438 24.910156 14.964844 24.816406 15.136719 C 24.796875 15.175781 24.769531 15.214844 24.738281 15.246094 C 24.609375 15.371094 24.476562 15.492188 24.300781 15.554688 C 24.191406 15.59375 24.085938 15.550781 23.980469 15.542969 C 23.867188 15.539062 23.75 15.542969 23.640625 15.5625 C 23.605469 15.566406 23.570312 15.625 23.558594 15.664062 C 23.539062 15.726562 23.539062 15.792969 23.53125 15.859375 C 23.527344 15.878906 23.523438 15.90625 23.511719 15.914062 C 23.457031 15.945312 23.402344 15.972656 23.34375 15.992188 C 23.273438 16.015625 23.242188 16.050781 23.238281 16.125 C 23.230469 16.285156 23.238281 16.449219 23.214844 16.605469 C 23.183594 16.808594 23.160156 17.015625 23.046875 17.195312 C 23.019531 17.234375 23.007812 17.277344 23.023438 17.335938 C 23.058594 17.496094 23.078125 17.65625 23.070312 17.820312 C 23.066406 17.929688 23.039062 18.027344 22.992188 18.125 C 22.964844 18.191406 22.921875 18.222656 22.855469 18.203125 C 22.78125 18.183594 22.738281 18.222656 22.683594 18.265625 C 22.484375 18.421875 22.332031 18.632812 22.105469 18.753906 C 21.90625 18.863281 21.726562 19.007812 21.496094 19.054688 C 21.363281 19.082031 21.226562 19.109375 21.09375 19.132812 C 20.925781 19.15625 20.761719 19.195312 20.621094 19.292969 C 20.464844 19.402344 20.289062 19.476562 20.101562 19.507812 C 19.972656 19.53125 19.855469 19.585938 19.734375 19.632812 C 19.671875 19.652344 19.601562 19.660156 19.535156 19.660156 C 19.34375 19.652344 19.15625 19.625 18.964844 19.621094 C 18.808594 19.617188 18.652344 19.644531 18.5 19.699219 C 18.414062 19.726562 18.316406 19.730469 18.226562 19.742188 C 18.144531 19.75 18.058594 19.761719 17.976562 19.757812 C 17.890625 19.757812 17.800781 19.75 17.714844 19.742188 C 17.644531 19.734375 17.574219 19.734375 17.507812 19.722656 C 17.394531 19.703125 17.3125 19.753906 17.226562 19.820312 C 16.972656 20.023438 16.699219 20.144531 16.363281 20.089844 C 16.222656 20.066406 16.089844 20.097656 15.980469 20.203125 C 15.878906 20.304688 15.765625 20.394531 15.65625 20.484375 C 15.601562 20.535156 15.542969 20.578125 15.492188 20.632812 C 15.425781 20.703125 15.367188 20.78125 15.308594 20.855469 C 15.28125 20.890625 15.257812 20.929688 15.226562 20.964844 C 15.148438 21.058594 15.136719 21.070312 15.019531 21.015625 C 14.890625 20.953125 14.761719 20.992188 14.636719 21.011719 C 14.609375 21.015625 14.589844 21.027344 14.566406 21.027344 C 14.417969 21.042969 14.332031 21.140625 14.261719 21.253906 C 14.238281 21.292969 14.25 21.3125 14.300781 21.324219 C 14.382812 21.347656 14.460938 21.378906 14.542969 21.40625 C 14.652344 21.441406 14.699219 21.527344 14.703125 21.636719 C 14.703125 21.742188 14.6875 21.847656 14.675781 21.957031 C 14.671875 22 14.65625 22.046875 14.664062 22.089844 C 14.695312 22.261719 14.605469 22.363281 14.46875 22.441406 C 14.351562 22.503906 14.234375 22.558594 14.125 22.628906 C 13.980469 22.722656 13.839844 22.828125 13.699219 22.933594 C 13.679688 22.945312 13.671875 22.980469 13.671875 23.003906 C 13.667969 23.058594 13.671875 23.117188 13.671875 23.171875 C 13.859375 23.1875 13.835938 23.210938 13.792969 23.347656 C 13.75 23.492188 13.675781 23.632812 13.605469 23.765625 C 13.570312 23.828125 13.558594 23.875 13.597656 23.9375 C 13.660156 24.042969 13.632812 24.128906 13.535156 24.214844 C 13.449219 24.289062 13.371094 24.375 13.292969 24.453125 C 13.277344 24.46875 13.261719 24.484375 13.242188 24.492188 C 13.128906 24.550781 13.125 24.65625 13.128906 24.761719 C 13.128906 24.828125 13.144531 24.898438 13.15625 24.96875 C 13.195312 25.128906 13.066406 25.296875 12.90625 25.265625 C 12.867188 25.261719 12.828125 25.28125 12.785156 25.285156 C 12.714844 25.292969 12.640625 25.304688 12.570312 25.304688 C 12.441406 25.308594 12.316406 25.308594 12.191406 25.308594 C 12.152344 25.308594 12.121094 25.304688 12.109375 25.261719 C 12.109375 25.257812 12.109375 25.25 12.105469 25.25 C 11.960938 25.21875 11.898438 25.058594 11.753906 25.023438 C 11.6875 25.007812 11.621094 24.992188 11.554688 24.992188 C 11.453125 24.992188 11.371094 24.960938 11.320312 24.871094 C 11.273438 24.796875 11.222656 24.722656 11.175781 24.648438 C 11.078125 24.5 11.023438 24.484375 10.855469 24.546875 C 10.628906 24.628906 10.40625 24.644531 10.179688 24.53125 C 10.007812 24.441406 9.835938 24.359375 9.660156 24.28125 C 9.59375 24.25 9.566406 24.195312 9.550781 24.136719 C 9.484375 23.886719 9.339844 23.703125 9.140625 23.539062 C 8.976562 23.40625 8.832031 23.25 8.691406 23.09375 C 8.609375 23 8.550781 22.886719 8.519531 22.757812 C 8.5 22.675781 8.460938 22.601562 8.363281 22.558594 C 8.246094 22.507812 8.195312 22.390625 8.171875 22.273438 C 8.144531 22.113281 8.054688 21.984375 7.976562 21.847656 C 7.96875 21.832031 7.941406 21.816406 7.917969 21.808594 C 7.8125 21.773438 7.699219 21.75 7.59375 21.699219 C 7.492188 21.648438 7.457031 21.539062 7.433594 21.433594 C 7.410156 21.332031 7.386719 21.234375 7.328125 21.148438 C 7.257812 21.054688 7.1875 21.046875 7.109375 21.132812 C 7.09375 21.152344 7.082031 21.171875 7.070312 21.191406 C 6.996094 21.308594 6.925781 21.339844 6.796875 21.289062 C 6.675781 21.242188 6.558594 21.191406 6.445312 21.132812 C 6.320312 21.070312 6.3125 21.015625 6.402344 20.914062 C 6.429688 20.882812 6.464844 20.859375 6.496094 20.835938 C 6.527344 20.8125 6.5625 20.789062 6.613281 20.75 C 6.546875 20.71875 6.503906 20.683594 6.453125 20.675781 C 6.375 20.660156 6.347656 20.617188 6.359375 20.550781 C 6.371094 20.464844 6.390625 20.382812 6.40625 20.296875 C 6.425781 20.195312 6.449219 20.089844 6.460938 19.984375 C 6.46875 19.890625 6.488281 19.816406 6.578125 19.761719 C 6.640625 19.722656 6.6875 19.667969 6.679688 19.582031 C 6.671875 19.527344 6.691406 19.472656 6.699219 19.421875 C 6.644531 19.390625 6.601562 19.394531 6.546875 19.398438 C 6.433594 19.410156 6.316406 19.40625 6.207031 19.382812 C 6.113281 19.359375 6.105469 19.316406 6.117188 19.210938 C 6.117188 19.199219 6.109375 19.1875 6.105469 19.175781 C 6.007812 18.972656 5.914062 18.765625 5.804688 18.5625 C 5.722656 18.40625 5.632812 18.253906 5.527344 18.113281 C 5.484375 18.054688 5.40625 18.003906 5.335938 17.980469 C 5.234375 17.945312 5.195312 17.878906 5.179688 17.785156 C 5.125 17.515625 5.0625 17.246094 4.949219 16.996094 C 4.914062 16.914062 4.894531 16.828125 4.863281 16.746094 C 4.816406 16.621094 4.757812 16.503906 4.714844 16.378906 C 4.613281 16.097656 4.519531 15.816406 4.421875 15.535156 C 4.375 15.40625 4.339844 15.277344 4.289062 15.152344 C 4.273438 15.113281 4.21875 15.078125 4.179688 15.070312 C 4.089844 15.054688 4.039062 15.011719 4.035156 14.921875 C 4.027344 14.769531 3.949219 14.695312 3.808594 14.640625 C 3.691406 14.59375 3.585938 14.511719 3.484375 14.429688 C 3.4375 14.390625 3.390625 14.335938 3.40625 14.257812 C 3.417969 14.183594 3.417969 14.109375 3.429688 14.035156 C 3.4375 14.003906 3.460938 13.960938 3.488281 13.957031 C 3.507812 13.949219 3.542969 13.984375 3.570312 14 C 3.585938 14.011719 3.597656 14.03125 3.613281 14.03125 C 3.683594 14.042969 3.710938 14.015625 3.703125 13.941406 C 3.699219 13.898438 3.683594 13.855469 3.683594 13.8125 C 3.683594 13.734375 3.757812 13.695312 3.816406 13.742188 C 3.859375 13.777344 3.886719 13.832031 3.925781 13.882812 C 3.96875 13.851562 3.992188 13.820312 3.964844 13.757812 C 3.929688 13.671875 4 13.625 4.046875 13.574219 C 4.09375 13.523438 4.136719 13.558594 4.179688 13.574219 C 4.203125 13.585938 4.226562 13.601562 4.242188 13.609375 C 4.34375 13.507812 4.4375 13.40625 4.542969 13.3125 C 4.574219 13.285156 4.625 13.273438 4.671875 13.257812 C 4.75 13.230469 4.832031 13.207031 4.910156 13.175781 C 4.960938 13.15625 5.003906 13.140625 5.0625 13.183594 C 5.144531 13.246094 5.238281 13.300781 5.355469 13.273438 C 5.359375 13.269531 5.367188 13.261719 5.367188 13.257812 C 5.371094 13.089844 5.417969 13.058594 5.582031 13.097656 C 5.640625 13.109375 5.699219 13.121094 5.742188 13.171875 C 5.757812 13.191406 5.792969 13.1875 5.832031 13.199219 C 5.832031 13.136719 5.828125 13.085938 5.832031 13.035156 C 5.835938 12.902344 5.941406 12.84375 6.058594 12.902344 C 6.121094 12.933594 6.25 12.871094 6.273438 12.800781 C 6.289062 12.742188 6.304688 12.679688 6.316406 12.621094 C 6.332031 12.523438 6.394531 12.449219 6.472656 12.398438 C 6.539062 12.355469 6.605469 12.390625 6.667969 12.4375 C 6.75 12.496094 6.816406 12.492188 6.871094 12.4375 C 6.902344 12.40625 6.914062 12.375 6.902344 12.332031 C 6.855469 12.167969 6.898438 12.085938 7.050781 12.042969 C 7.144531 12.019531 7.203125 11.96875 7.195312 11.859375 C 7.191406 11.796875 7.21875 11.757812 7.28125 11.738281 C 7.332031 11.71875 7.378906 11.691406 7.429688 11.667969 C 7.378906 11.609375 7.332031 11.550781 7.285156 11.492188 C 7.238281 11.4375 7.230469 11.378906 7.257812 11.308594 C 7.285156 11.234375 7.355469 11.199219 7.414062 11.195312 C 7.46875 11.195312 7.527344 11.25 7.578125 11.285156 C 7.601562 11.304688 7.617188 11.335938 7.640625 11.367188 C 7.671875 11.324219 7.699219 11.285156 7.726562 11.246094 C 7.660156 11.207031 7.652344 11.128906 7.6875 11.035156 C 7.726562 10.9375 7.8125 10.917969 7.898438 10.894531 C 7.914062 10.890625 7.933594 10.898438 7.949219 10.894531 C 7.996094 10.871094 8.050781 10.875 8.074219 10.796875 C 8.113281 10.683594 8.175781 10.578125 8.289062 10.507812 C 8.359375 10.464844 8.414062 10.398438 8.464844 10.351562 C 8.4375 10.265625 8.429688 10.191406 8.398438 10.128906 C 8.355469 10.035156 8.414062 9.976562 8.46875 9.929688 C 8.53125 9.875 8.601562 9.835938 8.675781 9.800781 C 8.773438 9.757812 8.824219 9.671875 8.886719 9.59375 C 8.960938 9.5 9.035156 9.40625 9.113281 9.3125 C 9.128906 9.296875 9.164062 9.296875 9.1875 9.292969 C 9.234375 9.285156 9.28125 9.28125 9.335938 9.277344 C 9.316406 9.226562 9.296875 9.195312 9.289062 9.160156 C 9.261719 9.015625 9.363281 8.898438 9.503906 8.941406 C 9.632812 8.976562 9.6875 8.902344 9.757812 8.832031 C 9.796875 8.792969 9.832031 8.742188 9.871094 8.6875 C 9.824219 8.671875 9.777344 8.652344 9.730469 8.628906 C 9.65625 8.589844 9.648438 8.519531 9.714844 8.460938 C 9.773438 8.410156 9.835938 8.378906 9.917969 8.410156 C 9.929688 8.414062 9.941406 8.421875 9.953125 8.425781 L 9.9375 8.394531 C 9.886719 8.363281 9.839844 8.332031 9.792969 8.300781 C 9.757812 8.273438 9.726562 8.167969 9.753906 8.113281 C 9.773438 8.066406 9.808594 8.023438 9.871094 8.027344 C 9.949219 8.035156 10.023438 8.039062 10.09375 8.046875 C 10.058594 7.976562 10.023438 7.898438 9.980469 7.828125 C 9.941406 7.769531 9.96875 7.71875 9.996094 7.671875 C 10.023438 7.625 10.070312 7.59375 10.125 7.636719 C 10.167969 7.667969 10.203125 7.710938 10.242188 7.75 C 10.265625 7.777344 10.285156 7.808594 10.308594 7.835938 C 10.34375 7.878906 10.375 7.859375 10.40625 7.824219 C 10.375 7.765625 10.320312 7.714844 10.355469 7.628906 C 10.386719 7.546875 10.457031 7.527344 10.519531 7.488281 C 10.511719 7.449219 10.496094 7.40625 10.488281 7.359375 C 10.476562 7.265625 10.496094 7.261719 10.578125 7.203125 C 10.664062 7.136719 10.761719 7.097656 10.859375 7.066406 C 10.9375 7.039062 10.925781 6.964844 10.925781 6.917969 C 10.929688 6.828125 10.949219 6.753906 11.027344 6.707031 C 11.121094 6.652344 11.21875 6.636719 11.324219 6.679688 C 11.363281 6.695312 11.410156 6.703125 11.449219 6.726562 C 11.515625 6.761719 11.570312 6.75 11.625 6.695312 C 11.675781 6.640625 11.734375 6.589844 11.796875 6.546875 C 11.882812 6.480469 11.972656 6.445312 12.089844 6.445312 C 12.515625 6.453125 12.9375 6.449219 13.363281 6.449219 C 13.511719 6.449219 13.628906 6.363281 13.671875 6.222656 C 13.710938 6.09375 13.769531 5.984375 13.910156 5.933594 C 13.992188 5.898438 14.070312 5.84375 14.144531 5.792969 C 14.164062 5.78125 14.171875 5.753906 14.175781 5.730469 C 14.21875 5.605469 14.265625 5.480469 14.34375 5.371094 C 14.402344 5.292969 14.441406 5.203125 14.5 5.128906 C 14.589844 5.011719 14.722656 4.964844 14.867188 4.925781 C 14.875 4.832031 14.902344 4.738281 14.992188 4.679688 C 15.019531 4.664062 15.0625 4.65625 15.097656 4.660156 C 15.230469 4.664062 15.289062 4.742188 15.300781 4.9375 C 15.386719 4.917969 15.472656 4.910156 15.554688 4.882812 C 15.640625 4.851562 15.726562 4.808594 15.800781 4.757812 C 15.875 4.707031 15.949219 4.714844 16.027344 4.730469 C 16.074219 4.738281 16.117188 4.761719 16.160156 4.78125 C 16.167969 4.777344 16.175781 4.777344 16.179688 4.773438 C 16.285156 4.667969 16.40625 4.652344 16.546875 4.71875 C 16.566406 4.726562 16.589844 4.734375 16.613281 4.742188 C 16.703125 4.777344 16.753906 4.753906 16.765625 4.660156 C 16.777344 4.585938 16.792969 4.519531 16.855469 4.480469 C 16.914062 4.441406 16.984375 4.417969 17.0625 4.382812 C 17.058594 4.308594 17.105469 4.253906 17.183594 4.214844 C 17.210938 4.199219 17.25 4.179688 17.261719 4.148438 C 17.316406 4.042969 17.410156 4.011719 17.519531 4.003906 C 17.632812 4 17.75 4.003906 17.867188 4.003906 C 17.886719 4.003906 17.910156 4.007812 17.929688 4.003906 C 17.972656 3.996094 18.027344 3.960938 18.0625 4.007812 C 18.089844 4.042969 18.101562 4.09375 18.121094 4.136719 C 18.125 4.152344 18.136719 4.167969 18.148438 4.191406 C 18.210938 4.214844 18.261719 4.1875 18.285156 4.117188 C 18.320312 4.015625 18.386719 3.980469 18.492188 3.984375 C 18.671875 3.988281 18.855469 3.980469 19.039062 3.984375 C 19.117188 3.988281 19.171875 3.960938 19.214844 3.890625 C 19.246094 3.84375 19.300781 3.800781 19.355469 3.777344 C 19.480469 3.714844 19.617188 3.730469 19.753906 3.730469 C 19.757812 3.730469 19.769531 3.730469 19.773438 3.734375 C 19.890625 3.828125 20.03125 3.902344 20.070312 4.0625 C 20.082031 4.105469 20.074219 4.160156 20.054688 4.203125 C 19.992188 4.328125 20.003906 4.445312 20.0625 4.570312 C 20.09375 4.640625 20.109375 4.714844 20.140625 4.785156 C 20.195312 4.90625 20.265625 5.015625 20.367188 5.101562 C 20.382812 5.113281 20.410156 5.125 20.421875 5.117188 C 20.53125 5.070312 20.609375 5.132812 20.667969 5.199219 C 20.726562 5.269531 20.765625 5.355469 20.804688 5.4375 C 20.847656 5.53125 20.84375 5.621094 20.796875 5.714844 C 20.746094 5.824219 20.761719 5.863281 20.867188 5.953125 C 20.925781 5.917969 20.984375 5.871094 21.046875 5.839844 C 21.167969 5.789062 21.289062 5.828125 21.414062 5.847656 C 21.621094 5.878906 21.746094 6.019531 21.855469 6.179688 C 21.96875 6.347656 22.082031 6.519531 22.183594 6.695312 C 22.269531 6.84375 22.339844 7.003906 22.332031 7.183594 C 22.328125 7.253906 22.355469 7.296875 22.429688 7.316406 C 22.578125 7.351562 22.710938 7.417969 22.828125 7.519531 C 22.894531 7.574219 22.976562 7.601562 23.050781 7.644531 C 23.164062 7.707031 23.214844 7.765625 23.144531 7.902344 C 23.128906 7.933594 23.109375 7.988281 23.121094 8.003906 C 23.15625 8.042969 23.210938 8.085938 23.253906 8.089844 C 23.546875 8.097656 23.765625 8.246094 23.972656 8.433594 C 24.097656 8.546875 24.238281 8.640625 24.375 8.742188 C 24.484375 8.824219 24.578125 8.914062 24.65625 9.035156 C 24.742188 9.175781 24.863281 9.292969 25.046875 9.316406 C 25.214844 9.335938 25.347656 9.40625 25.429688 9.566406 C 25.472656 9.644531 25.539062 9.707031 25.589844 9.78125 C 25.621094 9.824219 25.636719 9.878906 25.597656 9.925781 C 25.484375 10.058594 25.558594 10.175781 25.636719 10.285156 C 25.699219 10.371094 25.75 10.460938 25.792969 10.558594 C 25.828125 10.640625 25.878906 10.714844 25.941406 10.78125 C 26.15625 11.007812 26.300781 11.277344 26.363281 11.585938 C 26.378906 11.652344 26.371094 11.722656 26.378906 11.792969 C 26.386719 11.851562 26.398438 11.914062 26.421875 11.96875 C 26.480469 12.097656 26.546875 12.222656 26.609375 12.347656 Z M 26.609375 12.390625 " fill-opacity="1" fill-rule="nonzero"/></g></svg>
