<svg xmlns="http://www.w3.org/2000/svg" xmlns:xlink="http://www.w3.org/1999/xlink" width="40" zoomAndPan="magnify" viewBox="0 0 30 30.000001" height="40" preserveAspectRatio="xMidYMid meet" version="1.0"><defs><clipPath id="233cda9eb5"><path d="M 3.386719 5.574219 L 26.613281 5.574219 L 26.613281 23.71875 L 3.386719 23.71875 Z M 3.386719 5.574219 " clip-rule="nonzero"/></clipPath></defs><g clip-path="url(#233cda9eb5)"><path fill="#014d4e" d="M 26.492188 13.277344 L 25.367188 13.183594 L 25.285156 13.171875 L 25.21875 13.074219 L 25.773438 11.476562 L 25.820312 11.328125 L 25.84375 11.265625 L 25.753906 10.765625 L 25.367188 10.75 C 25.367188 10.75 24.902344 10.519531 24.847656 10.480469 C 24.792969 10.441406 24.554688 10.292969 24.554688 10.292969 L 24.398438 10.203125 L 24.253906 9.882812 L 24.175781 9.722656 L 22.882812 8.632812 L 22.625 8.386719 L 22.5 8.300781 L 22.351562 8.070312 L 22.183594 7.839844 L 22.054688 7.636719 L 22.003906 7.589844 L 20.238281 7.425781 L 19.949219 7.398438 L 19.886719 7.382812 L 19.671875 7.207031 L 19.609375 7.160156 L 19.101562 5.847656 L 18.941406 5.632812 L 18.871094 5.585938 L 18.785156 5.621094 L 18.542969 5.800781 L 18.222656 5.996094 L 18.066406 6.207031 L 17.757812 6.570312 L 17.613281 6.714844 L 17.492188 6.773438 L 17.347656 6.847656 L 17.257812 6.878906 L 17.214844 6.855469 L 17.125 6.792969 L 16.992188 6.703125 L 16.765625 6.578125 L 16.039062 6.925781 L 14.53125 6.273438 L 14.402344 6.226562 L 13.601562 6.417969 L 12.828125 6.082031 L 12.265625 6.21875 L 12.1875 6.367188 L 12.011719 6.609375 L 11.792969 6.496094 L 11.480469 5.988281 L 11.339844 5.769531 L 10.652344 6.121094 L 9.253906 5.878906 L 8.289062 5.707031 L 6.039062 6.617188 L 5.308594 6.90625 L 5.207031 6.957031 L 4.863281 7.511719 L 4.617188 7.992188 L 4.015625 8 L 4.054688 8.234375 L 4.039062 8.496094 L 4.050781 8.597656 L 4.0625 8.734375 L 3.980469 9.003906 L 3.941406 9.113281 L 3.945312 9.289062 L 3.953125 9.347656 L 3.945312 9.578125 L 3.933594 9.675781 L 3.964844 9.738281 L 3.972656 9.917969 L 3.972656 10 C 3.972656 10 3.957031 10.070312 3.984375 10.15625 C 4.011719 10.242188 4.054688 10.324219 4.054688 10.324219 L 4.042969 10.460938 L 4.082031 10.535156 L 4.0625 11.394531 L 4.054688 11.582031 L 4.050781 11.699219 L 4.035156 11.800781 L 3.964844 12.097656 C 3.964844 12.097656 3.878906 12.570312 3.804688 12.679688 C 3.734375 12.792969 3.386719 13.421875 3.386719 13.421875 L 3.421875 13.464844 L 3.566406 13.511719 L 3.613281 13.488281 C 3.613281 13.488281 3.628906 13.351562 3.652344 13.320312 C 3.675781 13.285156 3.773438 13.222656 3.773438 13.222656 L 3.796875 13.160156 L 3.804688 13.03125 L 3.839844 12.953125 L 3.871094 12.945312 L 3.902344 12.90625 L 3.9375 12.816406 L 3.992188 12.765625 L 4.003906 12.695312 L 4.027344 12.65625 L 4.050781 12.609375 L 4.027344 12.535156 C 4.027344 12.535156 3.964844 12.472656 4.011719 12.371094 C 4.058594 12.265625 4.148438 12.183594 4.148438 12.183594 L 4.117188 12.046875 L 4.125 11.941406 L 4.132812 11.871094 L 4.222656 11.648438 L 4.199219 11.46875 L 4.207031 11.304688 L 4.246094 11.164062 L 4.238281 11.046875 L 4.207031 10.859375 L 4.238281 10.765625 L 4.308594 11.007812 L 4.398438 11.394531 L 4.457031 11.59375 L 4.472656 11.671875 C 4.472656 11.671875 4.414062 11.859375 4.4375 11.863281 C 4.460938 11.875 4.535156 11.902344 4.535156 11.925781 C 4.535156 11.953125 4.542969 12.023438 4.542969 12.070312 C 4.542969 12.117188 4.578125 12.230469 4.578125 12.230469 L 4.609375 12.269531 C 4.609375 12.269531 4.699219 12.519531 4.585938 12.726562 C 4.472656 12.9375 4.386719 13.058594 4.386719 13.058594 L 4.328125 13.152344 L 4.390625 13.167969 L 4.503906 13.078125 C 4.503906 13.078125 4.539062 13.0625 4.542969 13.039062 C 4.550781 13.015625 4.601562 12.96875 4.601562 12.96875 L 4.640625 13.03125 L 4.640625 13.101562 L 4.648438 13.160156 L 4.609375 13.183594 L 4.703125 13.285156 L 4.742188 13.496094 L 4.710938 13.566406 L 4.664062 13.601562 L 4.640625 13.714844 L 4.652344 13.796875 L 4.832031 13.714844 L 4.945312 13.609375 L 5.074219 13.546875 L 5.136719 13.5625 L 5.175781 13.691406 L 5.3125 13.808594 L 5.335938 13.890625 C 5.335938 13.890625 5.34375 13.960938 5.359375 13.996094 C 5.375 14.027344 5.429688 14.101562 5.429688 14.101562 L 5.492188 14.15625 L 5.605469 14.226562 L 5.710938 14.191406 L 5.929688 14.285156 L 6.140625 14.316406 C 6.140625 14.316406 6.253906 14.460938 6.292969 14.484375 C 6.332031 14.507812 6.410156 14.566406 6.410156 14.566406 C 6.410156 14.566406 6.457031 14.660156 6.484375 14.671875 C 6.507812 14.679688 6.683594 14.75 6.683594 14.75 C 6.683594 14.75 6.753906 14.773438 6.820312 14.808594 C 6.882812 14.839844 6.949219 14.925781 6.949219 14.925781 L 7.085938 14.992188 L 7.191406 15.046875 L 7.335938 15.070312 L 7.429688 15.054688 L 7.492188 15.023438 C 7.492188 15.023438 7.605469 14.976562 7.613281 15.046875 C 7.621094 15.117188 7.597656 15.214844 7.597656 15.214844 L 7.605469 15.269531 C 7.605469 15.269531 7.628906 15.410156 7.75 15.4375 C 7.867188 15.472656 8.023438 15.382812 8.023438 15.382812 L 8.101562 15.285156 L 8.207031 15.238281 L 8.328125 15.207031 L 8.390625 15.207031 L 8.527344 15.191406 L 8.589844 15.15625 L 8.835938 15.214844 L 8.898438 15.222656 L 8.980469 15.269531 L 9.050781 15.238281 L 9.164062 15.269531 L 9.230469 15.320312 C 9.230469 15.320312 9.292969 15.359375 9.355469 15.328125 C 9.421875 15.296875 9.597656 15.191406 9.597656 15.191406 L 9.777344 15.132812 L 9.9375 15.179688 L 10.113281 15.933594 L 10.417969 15.949219 L 10.921875 16.542969 L 10.898438 17.097656 L 10.441406 17.546875 L 10.234375 19.34375 L 10.59375 20.089844 L 10.671875 20.058594 L 10.710938 19.984375 L 10.714844 19.886719 L 10.816406 19.855469 L 10.917969 19.828125 L 10.972656 19.828125 C 10.972656 19.828125 11.171875 19.941406 11.21875 19.957031 C 11.265625 19.972656 11.339844 19.972656 11.339844 19.972656 L 11.429688 19.964844 L 11.546875 20.183594 L 11.714844 20.199219 L 11.695312 20.292969 L 11.660156 20.355469 L 11.632812 20.398438 L 11.722656 20.507812 L 11.832031 20.546875 L 11.921875 20.546875 L 11.976562 20.511719 L 12.050781 20.492188 L 12.089844 20.558594 L 12.136719 20.621094 L 12.175781 20.632812 L 12.238281 20.644531 L 12.277344 20.660156 L 12.40625 20.867188 L 12.472656 20.894531 L 12.574219 20.90625 L 12.675781 20.921875 L 12.75 20.953125 L 12.828125 20.941406 L 12.953125 21.105469 L 13.050781 21.207031 L 13.070312 21.292969 L 13.125 21.394531 L 13.328125 21.496094 C 13.328125 21.496094 13.496094 22.007812 13.503906 22.070312 C 13.515625 22.132812 13.546875 22.355469 13.546875 22.355469 L 13.546875 22.488281 L 13.464844 22.597656 L 13.378906 22.683594 C 13.378906 22.683594 13.394531 22.792969 13.421875 22.8125 C 13.449219 22.832031 13.46875 22.898438 13.46875 22.898438 C 13.46875 22.898438 13.488281 22.941406 13.488281 22.960938 C 13.488281 22.984375 13.46875 23.050781 13.46875 23.050781 L 13.703125 23.109375 L 13.816406 23.136719 L 14.746094 23.125 L 15.75 23.101562 L 15.90625 23.097656 L 16.121094 22.953125 L 16.160156 22.910156 L 16.453125 22.980469 L 16.609375 23.253906 L 16.640625 23.328125 L 16.652344 23.378906 L 16.90625 23.394531 L 17.097656 23.4375 L 17.203125 23.382812 L 17.933594 22.796875 L 18.046875 22.707031 L 18.160156 22.714844 L 18.316406 22.734375 L 18.6875 22.773438 L 18.890625 22.785156 C 18.890625 22.785156 18.941406 22.535156 18.964844 22.515625 C 18.984375 22.503906 18.894531 22.210938 18.894531 22.210938 L 18.808594 21.839844 L 19.058594 21.820312 L 19.351562 21.765625 L 19.570312 21.734375 L 19.738281 21.6875 L 19.886719 21.660156 C 19.886719 21.660156 19.941406 21.625 19.960938 21.625 C 19.984375 21.625 20.160156 21.484375 20.160156 21.484375 L 20.25 21.359375 L 20.324219 21.269531 L 20.429688 20.886719 L 20.46875 20.761719 L 21.21875 20.761719 L 21.433594 20.492188 L 21.671875 20.480469 L 21.925781 20.925781 L 21.699219 21.207031 L 21.671875 21.328125 L 21.710938 21.414062 L 21.808594 21.5625 L 22.132812 21.589844 L 22.335938 21.585938 L 22.824219 21.398438 L 22.851562 20.96875 L 22.878906 20.808594 L 22.421875 20.214844 L 21.984375 20.390625 L 21.808594 20.097656 L 22.144531 19.074219 L 22.199219 18.953125 L 22.316406 18.816406 L 22.5 18.703125 L 22.640625 18.476562 L 22.625 18.214844 L 22.585938 17.914062 L 22.578125 17.753906 L 22.53125 17.292969 L 22.476562 17.050781 L 22.726562 16.882812 L 22.675781 16.453125 L 22.890625 16.210938 L 23.113281 15.945312 L 23.214844 15.875 C 23.214844 15.875 23.933594 15.734375 23.953125 15.730469 C 23.972656 15.726562 24.144531 15.683594 24.144531 15.683594 L 24.605469 14.472656 L 25.980469 14.535156 L 26.167969 13.832031 L 26.613281 13.578125 Z M 26.492188 13.277344 " fill-opacity="1" fill-rule="nonzero"/></g></svg>