<svg xmlns="http://www.w3.org/2000/svg" xmlns:xlink="http://www.w3.org/1999/xlink" width="40" zoomAndPan="magnify" viewBox="0 0 30 30.000001" height="40" preserveAspectRatio="xMidYMid meet" version="1.0"><defs><clipPath id="aa3a5c1c6c"><path d="M 7 2.902344 L 22.867188 2.902344 L 22.867188 26.128906 L 7 26.128906 Z M 7 2.902344 " clip-rule="nonzero"/></clipPath></defs><g clip-path="url(#aa3a5c1c6c)"><path fill="#014d4e" d="M 10.535156 19.402344 L 10.535156 19.964844 C 10.535156 19.964844 10.261719 20.441406 10.203125 20.503906 C 10.140625 20.566406 9.679688 21.066406 9.660156 21.128906 C 9.640625 21.191406 9.496094 21.628906 9.660156 21.710938 C 9.828125 21.792969 9.871094 21.832031 9.890625 21.960938 C 9.910156 22.082031 9.929688 22.210938 9.828125 22.335938 C 9.722656 22.457031 9.203125 22.75 9.203125 22.75 L 8.703125 23.0625 C 8.703125 23.0625 8.726562 22.964844 8.695312 23.226562 C 8.683594 23.3125 8.746094 23.390625 8.828125 23.398438 C 9.003906 23.414062 9.140625 23.394531 9.140625 23.394531 C 9.140625 23.394531 9.574219 24.351562 9.722656 24.453125 C 9.867188 24.558594 10.015625 24.71875 10.222656 24.699219 C 10.433594 24.679688 10.667969 24.601562 10.835938 24.621094 C 11 24.636719 11.019531 24.636719 11.25 24.757812 C 11.480469 24.878906 11.757812 24.605469 11.757812 24.605469 C 11.84375 24.664062 11.90625 24.652344 11.988281 24.648438 C 12.070312 24.644531 12.175781 25.078125 12.175781 25.078125 L 12.28125 25.496094 C 12.28125 25.496094 12.363281 25.902344 12.28125 26.015625 C 12.195312 26.128906 12.738281 25.808594 12.863281 25.867188 C 12.984375 25.929688 13.277344 26.039062 13.277344 26.039062 L 13.714844 25.578125 C 13.714844 25.578125 14.183594 25.621094 14.195312 25.621094 C 14.210938 25.621094 14.566406 25.746094 14.566406 25.746094 L 14.652344 25.578125 C 14.652344 25.578125 14.460938 25.414062 14.652344 25.308594 C 14.839844 25.203125 14.839844 25.226562 14.941406 25.203125 C 15.046875 25.183594 15.171875 25.183594 15.171875 25.183594 C 15.171875 25.183594 15.257812 24.914062 15.246094 24.8125 C 15.230469 24.714844 15.34375 24.761719 15.421875 24.78125 C 15.503906 24.800781 15.691406 24.472656 15.929688 24.238281 C 16.167969 24 16.417969 24.210938 16.695312 24.171875 C 16.972656 24.132812 16.886719 24.050781 17.242188 23.914062 C 17.601562 23.777344 17.601562 23.675781 17.816406 23.835938 C 18.035156 23.992188 18.234375 24.367188 18.507812 24.527344 C 18.78125 24.683594 20.148438 25.457031 20.148438 25.457031 L 20.148438 24.230469 C 20.148438 24.230469 20.148438 24.148438 20.148438 23.953125 C 20.148438 23.753906 20.109375 23.632812 20.066406 23.359375 C 20.027344 23.085938 20.007812 23.0625 20.148438 22.808594 C 20.285156 22.550781 20.289062 22.550781 20.28125 22.34375 C 20.269531 22.007812 19.890625 21.820312 19.890625 21.820312 L 19.890625 21.699219 L 20.304688 21.660156 L 20.304688 21.382812 C 20.304688 21.382812 20.1875 21.5 20.226562 21.265625 C 20.265625 21.027344 20.621094 20.769531 20.859375 20.433594 C 21.09375 20.097656 21.429688 19.820312 21.410156 19.484375 C 21.390625 19.148438 21.292969 19.089844 21.273438 18.8125 C 21.253906 18.535156 21.273438 18.378906 21.410156 18.261719 C 21.550781 18.144531 22.5 17.410156 22.554688 17.332031 C 22.613281 17.253906 22.554688 16.363281 22.554688 16.363281 C 22.554688 16.363281 22.59375 16.027344 22.714844 15.949219 C 22.832031 15.867188 23.011719 15.886719 22.953125 15.628906 C 22.890625 15.375 22.773438 15.195312 22.734375 15.078125 C 22.695312 14.960938 22.652344 14.722656 22.652344 14.722656 C 22.652344 14.722656 22.894531 14.671875 22.960938 14.519531 C 23.027344 14.363281 23.09375 14.167969 22.960938 14.1875 C 22.828125 14.207031 22.613281 14.34375 22.613281 14.34375 C 22.613281 14.34375 22.59375 14.484375 22.417969 14.363281 C 22.238281 14.246094 22.257812 14.148438 22.078125 14.027344 C 21.902344 13.910156 21.714844 13.980469 21.585938 14.027344 C 21.488281 14.066406 21.34375 14.140625 20.90625 14.066406 C 20.636719 14.023438 20.558594 14.1875 20.320312 13.828125 C 20.082031 13.472656 20.0625 13.335938 19.882812 13.179688 C 19.707031 13.019531 19.605469 13 19.488281 13.078125 C 19.371094 13.160156 19.191406 13.375 19.191406 13.375 C 19.191406 13.375 18.996094 13.464844 18.855469 13.4375 C 18.605469 13.390625 18.867188 12.765625 18.402344 12.523438 C 17.867188 12.25 18.023438 12.328125 17.550781 11.972656 C 17.074219 11.617188 16.78125 11.140625 16.742188 10.863281 C 16.703125 10.585938 16.363281 9.835938 16.265625 9.699219 C 16.167969 9.558594 16.085938 9.421875 15.96875 9.5 C 15.847656 9.578125 15.847656 9.875 15.847656 9.875 C 15.847656 9.875 15.769531 9.855469 15.632812 9.617188 C 15.492188 9.382812 15.394531 9.261719 15.511719 9.125 C 15.632812 8.988281 15.710938 8.867188 15.710938 8.867188 L 15.246094 8.867188 L 14.96875 8.511719 L 15.246094 8.175781 L 15.007812 8.175781 C 15.007812 8.175781 14.710938 8.074219 14.710938 8.015625 C 14.710938 7.957031 14.710938 7.859375 14.710938 7.859375 L 14.851562 7.699219 C 14.851562 7.699219 14.8125 7.324219 14.691406 7.125 C 14.574219 6.929688 14.199219 6.652344 14.199219 6.652344 C 14.199219 6.652344 14.59375 6.511719 14.574219 6.414062 C 14.5625 6.363281 14.527344 6.300781 14.5 6.253906 C 14.480469 6.226562 14.472656 6.191406 14.484375 6.160156 C 14.507812 6.097656 14.515625 6.007812 14.519531 5.921875 C 14.523438 5.804688 14.828125 5.59375 14.828125 5.59375 L 14.652344 5.265625 C 14.652344 5.265625 14.609375 5.007812 14.609375 4.949219 C 14.609375 4.890625 14.511719 4.75 14.511719 4.75 L 14.671875 4.492188 L 14.671875 4.375 L 14.332031 4.375 C 14.332031 4.375 14.433594 4.078125 14.453125 3.898438 C 14.472656 3.71875 14.550781 3.699219 14.433594 3.601562 C 14.3125 3.503906 14.273438 3.441406 14.035156 3.421875 C 13.796875 3.402344 13.957031 3.382812 13.796875 3.402344 C 13.640625 3.421875 13.382812 3.679688 13.382812 3.679688 C 13.382812 3.679688 13.480469 3.820312 13.203125 3.78125 C 12.925781 3.742188 13.003906 3.800781 12.789062 3.660156 C 12.570312 3.523438 12.429688 3.421875 12.351562 3.207031 C 12.273438 2.988281 12.085938 2.902344 12.085938 2.902344 C 12.085938 2.902344 11.824219 2.933594 11.667969 3.152344 C 11.511719 3.371094 11.402344 3.484375 11.402344 3.484375 L 11.035156 4.066406 L 11.074219 4.578125 C 11.074219 4.578125 11.035156 4.777344 10.859375 4.875 C 10.679688 4.972656 10.71875 4.816406 10.324219 5.113281 C 9.929688 5.410156 9.796875 5.730469 9.777344 5.925781 C 9.753906 6.179688 9.714844 6.160156 9.59375 6.347656 C 9.390625 6.644531 9.214844 6.53125 9.128906 6.871094 C 9.03125 7.269531 9.28125 6.871094 9.292969 7.207031 C 9.308594 7.582031 9.214844 7.859375 9.136719 8.035156 C 9.058594 8.214844 8.957031 8.433594 8.859375 8.492188 C 8.761719 8.550781 8.523438 8.511719 8.523438 8.730469 C 8.523438 8.949219 8.421875 9.046875 8.621094 9.261719 C 8.820312 9.480469 8.9375 9.480469 8.78125 9.636719 C 8.621094 9.796875 8.441406 9.835938 8.402344 9.9375 C 8.363281 10.035156 8.421875 10.074219 8.265625 10.195312 C 8.105469 10.3125 7.90625 10.292969 7.828125 10.371094 C 7.75 10.449219 7.53125 10.550781 7.53125 10.550781 C 7.53125 10.550781 7.621094 10.585938 7.511719 11.082031 C 7.40625 11.5625 7.492188 11.339844 7.074219 12.03125 C 6.902344 12.320312 7.414062 12.449219 7.53125 12.644531 C 7.648438 12.839844 7.847656 12.882812 7.648438 13.039062 C 7.453125 13.199219 7.292969 13.496094 7.292969 13.496094 L 7.332031 14.007812 L 7.253906 14.285156 C 7.253906 14.285156 7.078125 14.542969 7.046875 14.601562 C 7.019531 14.664062 7.195312 14.820312 7.195312 14.820312 C 7.195312 14.820312 7.214844 14.820312 7.253906 14.980469 C 7.292969 15.136719 7.195312 15.15625 7.292969 15.316406 C 7.390625 15.476562 7.550781 15.515625 7.628906 15.476562 C 7.710938 15.433594 7.925781 15.375 7.925781 15.375 C 7.925781 15.375 8.183594 15.296875 8.265625 15.613281 C 8.34375 15.929688 8.460938 16.125 8.699219 16.382812 C 8.9375 16.640625 9.015625 16.839844 9.015625 16.839844 L 9.015625 17.019531 C 9.015625 17.019531 8.820312 16.957031 8.878906 17.234375 C 8.9375 17.511719 9.015625 17.574219 9.214844 17.511719 C 9.414062 17.453125 9.671875 17.414062 9.769531 17.453125 C 9.863281 17.492188 10.066406 17.492188 10.046875 17.671875 C 10.027344 17.851562 10.027344 17.910156 9.90625 18.070312 C 9.789062 18.226562 9.707031 18.046875 9.789062 18.464844 C 9.867188 18.882812 9.867188 18.859375 10.027344 19.015625 C 10.1875 19.164062 10.535156 19.402344 10.535156 19.402344 Z M 10.535156 19.402344 " fill-opacity="1" fill-rule="nonzero"/></g></svg>