<svg xmlns="http://www.w3.org/2000/svg" width="40" zoomAndPan="magnify" viewBox="0 0 30 30.000001" height="40"
     preserveAspectRatio="xMidYMid meet" version="1.0"><defs><clipPath id="5ce071bd1e"><path d="M 3.386719 7.445312 L 26.613281 7.445312 L 26.613281 21.238281 L 3.386719 21.238281 Z M 3.386719 7.445312 " clip-rule="nonzero"/></clipPath></defs><g clip-path="url(#5ce071bd1e)"><path fill="#014d4e" d="M 13.960938 8.816406 L 14.644531 8.816406 L 14.945312 8.21875 L 15.878906 8.109375 L 16.996094 7.445312 L 17.949219 8.289062 L 18.546875 8.429688 L 19.066406 8.949219 L 19.664062 8.863281 L 19.570312 9.40625 L 20.347656 9.863281 L 20.570312 10.5 L 21.214844 10.84375 L 21.984375 10.546875 L 22.535156 10.25 L 23.195312 10.726562 L 24.449219 10.683594 L 24.449219 11.433594 L 25.613281 12.253906 L 25.382812 13.167969 L 24.8125 14.648438 L 25.613281 14.761719 L 25.863281 15.195312 L 25.65625 15.605469 L 26.296875 16.40625 L 26.296875 17.113281 L 26.589844 17.726562 L 26.589844 18.476562 L 25.792969 19.296875 L 24.675781 20.210938 L 24.539062 21.097656 L 23.832031 20.960938 L 23.445312 21.097656 L 22.851562 20.664062 L 22.054688 21.578125 L 21.167969 21.578125 L 20.277344 20.894531 L 19.820312 19.980469 L 18.957031 19.710938 L 18.773438 19.414062 L 18.273438 19.050781 L 17.132812 18.933594 L 16.902344 18.636719 L 16.492188 18.753906 L 16.039062 17.226562 L 15.035156 17.5 L 14.921875 18.183594 L 13.488281 18.367188 L 13.03125 17.839844 L 12.070312 17.65625 L 11.089844 17.792969 L 10.609375 17.453125 L 9.5 17.589844 L 7.902344 17.335938 L 6.417969 17.589844 L 5.007812 17.957031 L 4.070312 18.910156 L 3.773438 19.414062 L 3.410156 18.320312 L 3.546875 16.792969 L 3.683594 15.449219 L 3.660156 14.855469 L 4.640625 14.03125 L 4.824219 12.757812 L 5.097656 11.820312 L 5.78125 10.546875 L 6.535156 10.523438 L 8.675781 9.453125 L 8.628906 10.089844 L 9.5625 11.230469 L 10.570312 11.914062 L 10.65625 13.121094 L 10.910156 13.851562 L 12.003906 14.054688 L 13.300781 13.804688 L 14.125 12.9375 L 14.328125 11.390625 L 14.125 10.113281 Z M 13.960938 8.816406 " fill-opacity="1" fill-rule="nonzero"/></g></svg>
