<svg xmlns="http://www.w3.org/2000/svg" width="40" zoomAndPan="magnify" viewBox="0 0 30 30.000001" height="40"
     preserveAspectRatio="xMidYMid meet" version="1.0"><defs><clipPath id="2bfe90f1ec"><path d="M 3.386719 2.902344 L 26.613281 2.902344 L 26.613281 26.128906 L 3.386719 26.128906 Z M 3.386719 2.902344 " clip-rule="nonzero"/></clipPath></defs><g clip-path="url(#2bfe90f1ec)"><path fill="#014d4e" d="M 6.554688 2.902344 L 6.554688 4.507812 L 5.5 5.015625 C 5.5 5.015625 4.441406 6.050781 4.441406 6.070312 C 4.441406 6.316406 4.441406 7.125 4.441406 7.125 L 3.386719 8.183594 L 4.179688 9.632812 L 4.441406 11.746094 L 4.441406 13.988281 L 3.386719 15.125 L 4.441406 16.628906 L 4.402344 17.296875 L 4.949219 17.898438 L 5.742188 18.015625 L 6.4375 18.480469 L 6.707031 18.390625 L 7.242188 19.574219 L 9.0625 19.925781 L 9.984375 20.324219 L 10.53125 20.890625 L 13.285156 19.792969 L 24.5 26.128906 L 24.5 25.074219 L 26.613281 25.074219 L 26.613281 10.292969 L 26.09375 8.316406 L 26.613281 7.511719 L 26.382812 6.304688 L 26.613281 5.804688 L 26.242188 5.257812 L 25.542969 5.257812 L 25.03125 5.015625 L 23.839844 5.015625 L 23.578125 4.355469 L 22.917969 3.957031 L 20.703125 3.957031 L 19.871094 4.367188 L 19.222656 5.019531 L 19.222656 5.9375 L 19.488281 6.730469 L 18.957031 7.785156 L 18.257812 8.183594 L 17.242188 8.183594 L 16.746094 7.632812 L 15.769531 7.082031 L 14.304688 6.605469 L 13.410156 6.546875 L 12.625 6.105469 L 12.246094 5.054688 L 11.855469 4.457031 L 11.207031 4.40625 L 10.261719 3.957031 L 8.269531 3.957031 Z M 6.554688 2.902344 " fill-opacity="1" fill-rule="nonzero"/></g></svg>
