<svg xmlns="http://www.w3.org/2000/svg" xmlns:xlink="http://www.w3.org/1999/xlink" width="40" zoomAndPan="magnify" viewBox="0 0 30 30.000001" height="40" preserveAspectRatio="xMidYMid meet" version="1.0"><defs><clipPath id="0253aa3813"><path d="M 3.765625 2.902344 L 26.265625 2.902344 L 26.265625 26.128906 L 3.765625 26.128906 Z M 3.765625 2.902344 " clip-rule="nonzero"/></clipPath></defs><g clip-path="url(#0253aa3813)"><path fill="#014d4e" d="M 19.648438 3.089844 C 19.648438 3.089844 19.929688 2.910156 19.957031 3.011719 C 19.980469 3.113281 20.3125 3.574219 20.59375 3.792969 C 20.875 4.011719 21.183594 4.328125 21.503906 4.214844 C 21.824219 4.097656 21.757812 4.0625 22.21875 4.074219 C 22.679688 4.085938 22.871094 4.316406 23.113281 4.046875 C 23.355469 3.78125 23.320312 3.511719 23.433594 3.832031 C 23.546875 4.152344 23.421875 4.1875 23.632812 4.238281 C 23.847656 4.292969 23.960938 4.355469 23.980469 4.320312 C 23.996094 4.289062 24.234375 4.316406 24.3125 4.25 C 24.386719 4.179688 24.457031 4.207031 24.601562 4.441406 C 24.746094 4.675781 24.96875 4.65625 25.007812 4.859375 C 25.042969 5.058594 25.121094 5.015625 25.074219 5.136719 C 25.027344 5.253906 25.101562 5.257812 25.136719 5.375 C 25.175781 5.488281 25.113281 5.441406 25.089844 5.554688 C 25.070312 5.664062 25.125 5.664062 25.136719 5.757812 C 25.152344 5.851562 25.265625 5.691406 25.230469 5.925781 C 25.199219 6.160156 25.097656 6.132812 25.128906 6.335938 C 25.164062 6.542969 25.226562 6.6875 25.285156 6.820312 C 25.339844 6.949219 25.261719 6.996094 25.207031 7.21875 C 25.152344 7.441406 25.480469 7.699219 25.519531 7.800781 C 25.554688 7.902344 25.394531 7.707031 25.441406 7.898438 C 25.484375 8.089844 25.90625 8.5 26.066406 8.542969 C 26.226562 8.585938 25.957031 8.65625 25.882812 8.832031 C 25.804688 9.003906 26.027344 9.214844 25.804688 9.304688 C 25.582031 9.394531 24.347656 9.132812 23.945312 9.304688 C 23.542969 9.476562 23.566406 9.398438 23.460938 9.609375 C 23.351562 9.820312 22.710938 9.957031 22.460938 10.046875 C 22.210938 10.136719 22.1875 10.25 22.277344 10.378906 C 22.367188 10.507812 22.1875 10.5625 22.257812 10.71875 C 22.328125 10.871094 22.570312 10.84375 22.578125 11.003906 C 22.585938 11.167969 22.535156 11.34375 22.328125 11.320312 C 22.125 11.292969 21.851562 11.210938 21.46875 11.644531 C 21.085938 12.078125 20.710938 11.789062 20.667969 11.976562 C 20.625 12.164062 19.976562 12.964844 19.859375 12.898438 C 19.738281 12.828125 19.679688 12.855469 19.550781 12.902344 C 19.421875 12.949219 19.378906 13.074219 18.902344 13.066406 C 18.425781 13.058594 18.527344 12.898438 18.433594 13.179688 C 18.339844 13.460938 18.519531 13.578125 18.042969 13.476562 C 17.566406 13.375 17.863281 13.230469 17.460938 13.449219 C 17.0625 13.671875 16.875 13.535156 16.675781 13.773438 C 16.476562 14.007812 16.332031 14.144531 16.042969 14.253906 C 15.753906 14.359375 15.59375 14.5 15.53125 14.679688 C 15.46875 14.859375 15.417969 15.257812 15.433594 15.351562 C 15.449219 15.445312 15.429688 19.035156 15.429688 19.035156 L 10.71875 19.035156 L 10.71875 22.988281 C 10.71875 22.988281 10.339844 23.253906 9.976562 23.265625 C 9.613281 23.28125 9.117188 23.714844 9.125 23.824219 C 9.132812 23.933594 9.320312 26.125 9.320312 26.125 L 3.761719 26.125 C 3.761719 26.125 3.769531 25.441406 3.878906 25.246094 C 3.988281 25.046875 3.894531 24.847656 4.152344 24.78125 C 4.40625 24.710938 4.371094 24.21875 4.613281 23.949219 C 4.851562 23.679688 4.734375 23.511719 4.824219 23.359375 C 4.914062 23.210938 5.339844 22.226562 5.761719 21.859375 C 6.183594 21.496094 6.792969 21.386719 6.761719 20.933594 C 6.726562 20.480469 6.652344 20.351562 6.777344 19.96875 C 6.90625 19.585938 7.226562 19.226562 7.214844 18.816406 C 7.199219 18.40625 7.757812 18.511719 8.242188 18.132812 C 8.730469 17.757812 8.683594 17.910156 8.855469 17.289062 C 9.03125 16.667969 9.265625 16.132812 9.527344 16.042969 C 9.789062 15.953125 10.4375 16.085938 10.738281 15.824219 C 11.035156 15.5625 11.644531 15.390625 11.90625 14.867188 C 12.167969 14.34375 12.648438 14.554688 12.8125 14.359375 C 12.980469 14.167969 13.101562 13.945312 13.472656 13.421875 C 13.84375 12.898438 14.273438 12.449219 13.914062 11.90625 C 13.554688 11.363281 13.710938 10.492188 13.863281 10.210938 C 14.015625 9.929688 14.527344 9.46875 14.578125 8.933594 C 14.628906 8.394531 14.527344 8.410156 14.828125 8.199219 C 15.128906 7.988281 15.160156 7.808594 15.542969 7.550781 C 15.929688 7.296875 16.414062 7.097656 16.816406 6.882812 C 17.21875 6.664062 17.6875 6.195312 17.960938 5.910156 C 18.234375 5.621094 18.675781 4.769531 18.867188 4.335938 C 19.058594 3.902344 19.289062 3.300781 19.648438 3.089844 " fill-opacity="1" fill-rule="nonzero"/></g></svg>