<svg xmlns="http://www.w3.org/2000/svg" width="40" zoomAndPan="magnify" viewBox="0 0 30 30.000001" height="40"
     preserveAspectRatio="xMidYMid meet" version="1.0"><defs><clipPath id="76a8a77eb7"><path d="M 5.519531 2.902344 L 24.390625 2.902344 L 24.390625 26.128906 L 5.519531 26.128906 Z M 5.519531 2.902344 " clip-rule="nonzero"/></clipPath></defs><g clip-path="url(#76a8a77eb7)"><path fill="#014d4e" d="M 13.8125 25.203125 C 13.648438 25.152344 13.535156 25.113281 13.46875 24.953125 C 13.558594 24.699219 13.613281 24.792969 13.78125 24.890625 C 14.128906 24.59375 13.644531 24.648438 13.9375 24.425781 C 13.851562 24.332031 13.839844 24.089844 13.878906 23.984375 C 13.738281 23.898438 13.675781 23.800781 13.8125 23.671875 C 13.617188 23.660156 13.574219 23.207031 13.53125 23.078125 C 13.53125 23.078125 13.75 22.953125 13.75 22.953125 C 13.328125 22.671875 13.902344 22.765625 13.5625 22.453125 C 13.609375 22.296875 13.550781 22.039062 13.46875 21.925781 C 13.5625 21.75 13.636719 21.605469 13.46875 21.453125 C 13.597656 21.425781 13.65625 21.449219 13.59375 21.296875 C 13.691406 21.273438 13.652344 20.984375 13.65625 20.917969 C 13.816406 20.820312 13.710938 20.5625 13.625 20.449219 C 13.40625 19.902344 13.746094 20.433594 13.75 19.855469 C 13.882812 19.96875 14.050781 19.671875 14.128906 19.605469 C 14.128906 19.605469 13.96875 19.511719 13.96875 19.511719 C 14.085938 19.429688 14.128906 19.425781 14.003906 19.324219 C 14.003906 19.324219 14.222656 18.949219 14.222656 18.949219 C 14.445312 18.855469 14.367188 18.492188 14.160156 18.417969 C 14.160156 18.417969 14.191406 18.105469 14.191406 18.105469 C 14.167969 18.003906 14.140625 17.929688 14.253906 17.886719 C 14.144531 17.742188 14.265625 17.542969 14.347656 17.421875 C 14.347656 17.421875 14.222656 16.917969 14.222656 16.917969 C 14.089844 16.699219 13.875 16.4375 13.941406 16.167969 C 13.761719 16.101562 13.632812 15.839844 13.59375 15.667969 C 13.804688 15.644531 13.558594 15.546875 13.53125 15.480469 C 13.816406 15.414062 13.597656 15.300781 13.4375 15.261719 C 13.667969 15.09375 13.519531 14.941406 13.40625 14.757812 C 13.765625 14.617188 13.082031 14.480469 13.21875 14.253906 C 13.0625 14.386719 12.574219 14.003906 12.4375 13.945312 C 12.484375 13.730469 12.378906 13.675781 12.1875 13.632812 C 12.347656 13.394531 12.074219 13.472656 11.9375 13.414062 C 12.246094 13.089844 11.722656 13.238281 12.03125 13.039062 C 11.992188 12.976562 11.855469 12.652344 11.734375 12.726562 C 11.734375 12.726562 11.8125 12.476562 11.8125 12.476562 C 11.664062 12.246094 11.277344 12.09375 11 12.132812 C 11.019531 11.3125 10.734375 12.042969 10.78125 11.472656 C 10.960938 11.378906 10.550781 11.078125 10.84375 11.039062 C 10.421875 10.1875 10.65625 11.59375 10 10.164062 C 10.191406 9.933594 9.832031 9.996094 9.71875 9.945312 C 9.835938 9.761719 9.585938 9.648438 9.46875 9.570312 C 9.46875 9.570312 9.15625 8.976562 9.15625 8.976562 C 9.316406 8.96875 9.292969 8.734375 9.3125 8.632812 C 9.066406 8.476562 8.925781 8.425781 9.125 8.097656 C 9.125 8.097656 8.9375 8.066406 8.9375 8.066406 C 8.921875 7.976562 8.75 7.679688 8.96875 7.628906 C 8.738281 7.257812 8.429688 7.695312 8.78125 7.191406 C 8.5 7.085938 8.519531 7.046875 8.75 6.847656 C 8.160156 6.890625 8.863281 6.683594 8.296875 6.722656 C 8.429688 6.574219 8.394531 6.550781 8.21875 6.503906 C 8.394531 6.214844 7.804688 6.214844 8.03125 5.816406 C 7.886719 5.476562 7.957031 6.058594 7.59375 5.785156 C 7.671875 5.59375 7.359375 5.355469 7.214844 5.253906 C 7.136719 5.222656 7.089844 4.835938 6.964844 5.035156 C 6.660156 4.523438 6.980469 5.09375 6.339844 4.878906 C 6.25 4.640625 6.191406 4.800781 6.089844 4.941406 C 5.523438 4.5 6.335938 4.621094 6.246094 4.035156 C 6.339844 4.121094 6.433594 4.597656 6.558594 4.285156 C 6.625 4.460938 6.746094 4.710938 6.933594 4.503906 C 6.933594 4.472656 6.933594 4.160156 6.933594 4.160156 C 6.746094 4.207031 6.421875 3.765625 6.308594 3.660156 C 6.371094 3.542969 6.488281 3.6875 6.558594 3.722656 C 6.648438 3.480469 6.859375 3.554688 7.058594 3.597656 C 7.199219 3.273438 7.3125 3.890625 7.40625 4.003906 C 7.472656 3.839844 7.707031 4.003906 7.8125 4.035156 C 7.828125 3.828125 7.886719 3.835938 8.09375 3.878906 C 8.09375 3.878906 8.0625 3.535156 8.0625 3.535156 L 8.226562 3.472656 C 8.367188 3.78125 8.574219 4.050781 8.875 3.722656 C 8.996094 3.824219 9.046875 3.984375 9.1875 3.816406 C 9.53125 4.078125 9.210938 3.769531 9.5 3.316406 C 9.675781 3.347656 9.789062 3.359375 9.78125 3.566406 C 10.441406 3.738281 9.859375 3.371094 10.65625 3.160156 C 10.746094 3.039062 10.867188 2.917969 11.03125 3.003906 C 10.792969 3.1875 10.925781 3.238281 11.09375 3.378906 C 11.277344 3.421875 11.570312 3.320312 11.71875 3.222656 C 11.835938 3.335938 12.191406 3.582031 12.34375 3.660156 C 12.285156 3.859375 12.664062 4.140625 12.78125 4.253906 C 14.066406 4.183594 13.085938 5.089844 13.625 5.003906 C 13.859375 4.449219 13.984375 4.925781 14.003906 5.253906 C 14.164062 5.195312 14.628906 4.859375 14.816406 4.878906 C 14.933594 5.226562 14.910156 5.34375 14.628906 5.566406 C 14.542969 5.878906 14.671875 5.761719 14.878906 5.753906 C 14.957031 5.59375 15.011719 5.3125 15.285156 5.441406 C 15.300781 5.59375 15.277344 5.777344 15.160156 5.878906 C 15.417969 6.246094 15.625 6.5625 15.566406 5.886719 C 15.757812 5.75 16.019531 5.042969 16.160156 5.597656 C 16.324219 5.609375 16.519531 5.734375 16.597656 5.878906 C 16.746094 5.835938 16.929688 5.613281 17.035156 5.878906 C 17.269531 5.664062 17.359375 5.886719 17.503906 6.066406 C 17.390625 6.101562 17.367188 6.445312 17.347656 6.535156 C 17.347656 6.535156 17.660156 6.722656 17.660156 6.722656 C 17.453125 6.804688 17.75 7.03125 17.785156 7.128906 C 17.96875 6.828125 18.128906 7.078125 18.316406 7.222656 C 18.585938 7.238281 18.765625 7.355469 18.628906 6.972656 C 19.070312 7.03125 18.617188 6.738281 19.097656 6.847656 C 19.195312 7.265625 18.996094 7.914062 19.660156 7.660156 C 19.5 7.863281 19.144531 8.128906 19.316406 8.414062 C 19.382812 8.339844 19.523438 8.179688 19.628906 8.320312 C 19.574219 8.585938 19.445312 8.882812 19.191406 8.976562 C 19.644531 9.378906 19.097656 9.4375 19.410156 9.632812 C 19.335938 9.746094 19.164062 10.035156 19.160156 10.164062 C 18.644531 10.242188 18.832031 10.3125 19.003906 10.664062 C 19.375 10.128906 19.101562 11.105469 19.160156 11.226562 C 19.160156 11.226562 19.503906 10.945312 19.503906 10.945312 C 19.445312 11.421875 19.484375 11.308594 19.785156 11.070312 C 19.902344 11.324219 19.789062 11.921875 20.222656 11.601562 C 20.238281 11.710938 20.273438 11.871094 20.160156 11.945312 C 20.226562 12.28125 20.441406 12.355469 20.726562 12.164062 C 20.6875 11.742188 20.730469 11.730469 21.132812 11.664062 C 21.113281 11.914062 21.609375 12.648438 21.070312 12.601562 C 21.070312 12.601562 21.226562 13.476562 21.226562 13.476562 L 20.789062 13.476562 C 21.027344 14.210938 21.332031 13.25 21.476562 14.164062 C 21.144531 14.050781 21.355469 14.582031 21.320312 14.726562 C 21.152344 14.804688 20.949219 14.761719 21.132812 14.980469 C 21.132812 14.980469 21.539062 14.824219 21.539062 14.824219 C 21.507812 15.199219 21.710938 15.082031 21.976562 15.074219 C 21.976562 15.074219 22.070312 15.542969 22.132812 15.542969 C 23.289062 15.128906 22.433594 15.476562 23.226562 16.261719 C 23.1875 16.371094 23.1875 16.824219 23.257812 16.917969 C 23.257812 16.917969 23.101562 17.136719 23.101562 17.136719 C 23.0625 17.28125 23.488281 17.695312 23.039062 17.605469 C 23.253906 17.890625 22.972656 17.835938 22.789062 17.886719 C 22.839844 17.933594 22.960938 18.046875 22.882812 18.136719 C 23.03125 18.304688 23.109375 18.425781 23.320312 18.167969 C 23.320312 18.167969 23.320312 18.511719 23.320312 18.511719 C 23.414062 18.496094 23.496094 18.613281 23.507812 18.699219 C 23.738281 18.574219 23.695312 18.71875 23.695312 18.898438 C 24.148438 18.773438 24.472656 18.871094 23.914062 19.230469 C 23.765625 18.941406 23.613281 19.132812 23.414062 19.230469 C 23.414062 19.230469 23.070312 19.011719 23.070312 19.011719 C 22.929688 19.066406 22.777344 19.238281 22.789062 19.386719 C 22.699219 19.289062 22.066406 19.210938 22.476562 19.074219 C 22.132812 18.878906 22.367188 18.667969 22.070312 18.449219 C 21.75 18.425781 22.261719 18.730469 21.851562 18.824219 C 21.476562 18.347656 21.6875 19.210938 21.726562 19.355469 C 21.726562 19.355469 21.289062 19.386719 21.289062 19.386719 C 21.203125 19.128906 21.257812 18.796875 20.882812 18.886719 C 20.882812 18.886719 20.664062 18.699219 20.664062 18.699219 C 20.941406 18.550781 20.679688 18.472656 20.570312 18.324219 C 20.210938 18.699219 20.214844 18.828125 20.035156 18.261719 C 19.835938 18.199219 19.949219 18.386719 19.941406 18.480469 C 19.667969 18.367188 19.96875 18.875 19.941406 18.949219 C 19.453125 18.828125 19.625 19.441406 19.222656 19.167969 C 19.472656 19.066406 19.554688 18.644531 19.316406 18.511719 C 19.316406 18.511719 19.566406 18.355469 19.566406 18.355469 C 19.332031 18.324219 19.449219 17.96875 19.441406 17.824219 C 19.210938 17.878906 18.996094 17.867188 19.097656 18.167969 C 17.632812 18.070312 18.945312 18.753906 17.847656 18.574219 C 17.847656 18.574219 18.222656 19.605469 18.222656 19.605469 C 18.027344 19.554688 17.992188 19.902344 17.941406 20.011719 C 17.941406 20.011719 18.535156 20.542969 18.535156 20.542969 C 17.414062 21.789062 18.414062 21.074219 18.128906 21.984375 C 18.058594 21.988281 16.914062 22.246094 16.941406 22.359375 C 16.941406 22.359375 17.097656 23.265625 17.097656 23.265625 L 16.628906 23.390625 C 16.84375 23.890625 16.316406 23.664062 16.035156 23.734375 C 16.097656 24.308594 16.054688 23.949219 15.691406 23.984375 C 15.640625 24.039062 15.421875 24.492188 15.472656 24.578125 C 15.863281 24.339844 15.753906 24.980469 15.847656 25.171875 C 15.847656 25.171875 15.574219 25.203125 15.574219 25.203125 L 15.753906 25.765625 C 15.582031 25.730469 15.113281 26.113281 15.222656 25.671875 C 14.539062 25.285156 14.46875 25.308594 14.128906 26.015625 C 13.777344 25.789062 13.9375 25.519531 13.8125 25.203125 " fill-opacity="1" fill-rule="nonzero"/></g></svg>
