<svg xmlns="http://www.w3.org/2000/svg" xmlns:xlink="http://www.w3.org/1999/xlink" width="40" zoomAndPan="magnify" viewBox="0 0 30 30.000001" height="40" preserveAspectRatio="xMidYMid meet" version="1.0"><defs><clipPath id="cbf5f4374b"><path d="M 5.144531 2.902344 L 24.742188 2.902344 L 24.742188 26.128906 L 5.144531 26.128906 Z M 5.144531 2.902344 " clip-rule="nonzero"/></clipPath></defs><g clip-path="url(#cbf5f4374b)"><path fill="#014d4e" d="M 24.28125 11.433594 C 24.171875 11.359375 24.097656 11.386719 23.980469 11.34375 C 23.878906 11.308594 23.855469 11.238281 23.800781 11.15625 C 23.675781 10.972656 23.59375 10.988281 23.382812 10.933594 C 23.222656 10.890625 23.109375 10.75 22.9375 10.730469 C 22.722656 10.695312 22.53125 10.78125 22.320312 10.671875 C 22.269531 10.644531 22.226562 10.613281 22.191406 10.582031 C 22.117188 10.460938 22.039062 10.34375 21.941406 10.238281 C 21.832031 10.117188 21.683594 10.039062 21.582031 9.914062 C 21.453125 9.746094 21.367188 9.625 21.175781 9.507812 C 21.0625 9.445312 20.882812 9.402344 20.792969 9.3125 C 20.699219 9.210938 20.640625 9.035156 20.515625 8.941406 C 20.394531 8.855469 20.285156 8.867188 20.171875 8.941406 C 20.113281 8.984375 20.085938 9.039062 20.007812 9.066406 C 19.964844 9.082031 19.890625 9.0625 19.828125 9.082031 C 19.667969 9.132812 19.679688 9.128906 19.527344 9.058594 C 19.429688 9.015625 19.339844 8.976562 19.273438 9.097656 C 19.140625 9.007812 19.027344 9.097656 18.90625 8.960938 C 18.878906 8.933594 18.878906 8.890625 18.84375 8.863281 C 18.796875 8.832031 18.753906 8.851562 18.726562 8.835938 C 18.609375 8.785156 18.585938 8.742188 18.53125 8.609375 C 18.484375 8.480469 18.457031 8.332031 18.382812 8.214844 C 18.167969 7.886719 18.085938 8.324219 17.890625 8.339844 C 17.8125 8.34375 17.792969 8.257812 17.730469 8.214844 C 17.65625 8.167969 17.566406 8.164062 17.484375 8.136719 C 17.242188 8.0625 17.042969 7.976562 16.921875 7.742188 C 16.769531 7.433594 16.621094 7.324219 16.320312 7.171875 C 16.125 7.074219 16.027344 6.976562 15.980469 6.761719 C 15.949219 6.625 15.960938 6.441406 15.875 6.328125 C 15.761719 6.183594 15.5625 6.242188 15.4375 6.171875 C 15.320312 6.109375 15.242188 5.867188 15.160156 5.808594 C 15.121094 5.761719 15.085938 5.714844 15.046875 5.667969 C 15.027344 5.625 15.015625 5.589844 15 5.546875 C 14.960938 5.425781 14.964844 5.269531 14.886719 5.167969 C 14.792969 5.035156 14.71875 5.128906 14.59375 5.078125 C 14.546875 5.054688 14.515625 4.972656 14.460938 4.945312 C 14.386719 4.902344 14.347656 4.925781 14.261719 4.902344 C 14.148438 4.875 14.007812 4.769531 13.914062 4.695312 C 13.855469 4.640625 13.785156 4.589844 13.734375 4.535156 C 13.710938 4.511719 13.644531 4.429688 13.617188 4.410156 C 13.480469 4.324219 13.417969 4.492188 13.28125 4.457031 C 13.140625 4.414062 13.074219 4.214844 13.039062 4.105469 C 12.988281 3.964844 12.84375 3.765625 12.84375 3.621094 C 12.84375 3.464844 13 3.472656 13.035156 3.347656 C 13.082031 3.175781 12.847656 3.117188 12.722656 3.09375 C 12.621094 3.074219 12.40625 3.039062 12.308594 3.070312 C 12.171875 3.117188 12.140625 3.300781 12 3.363281 C 11.824219 3.441406 11.566406 3.339844 11.414062 3.226562 C 11.3125 3.152344 11.335938 3.003906 11.238281 2.949219 C 11.164062 2.90625 10.90625 2.949219 10.84375 2.988281 C 10.742188 3.050781 10.746094 3.15625 10.691406 3.25 C 10.617188 3.375 10.5625 3.359375 10.414062 3.371094 C 10.304688 3.378906 10.191406 3.394531 10.167969 3.535156 C 10.152344 3.617188 10.214844 3.707031 10.300781 3.738281 C 10.378906 3.769531 10.445312 3.734375 10.523438 3.792969 C 10.609375 3.859375 10.601562 3.933594 10.597656 4.027344 C 10.597656 4.085938 10.558594 4.253906 10.621094 4.292969 C 10.695312 4.339844 10.75 4.234375 10.835938 4.253906 C 10.914062 4.269531 10.9375 4.355469 10.960938 4.417969 C 11.003906 4.535156 10.992188 4.539062 11.085938 4.613281 C 11.164062 4.679688 11.214844 4.679688 11.242188 4.804688 C 11.265625 4.902344 11.253906 5.011719 11.253906 5.109375 C 11.253906 5.339844 11.300781 5.550781 11.457031 5.714844 C 11.535156 5.796875 11.800781 6.066406 11.679688 6.183594 C 11.632812 6.230469 11.488281 6.199219 11.429688 6.214844 C 11.324219 6.242188 11.289062 6.292969 11.210938 6.359375 C 11.140625 6.414062 11.082031 6.441406 11.03125 6.519531 C 10.988281 6.589844 10.980469 6.691406 10.921875 6.753906 C 10.742188 6.9375 10.773438 6.664062 10.722656 6.5625 C 10.597656 6.3125 10.539062 6.644531 10.414062 6.5625 C 10.449219 6.476562 10.375 6.390625 10.410156 6.304688 C 10.433594 6.230469 10.515625 6.21875 10.558594 6.15625 C 10.648438 6.023438 10.566406 5.917969 10.496094 5.816406 C 10.378906 5.648438 10.246094 5.742188 10.105469 5.621094 C 9.992188 5.523438 10.015625 5.367188 9.824219 5.492188 C 9.742188 5.546875 9.769531 5.574219 9.65625 5.59375 C 9.605469 5.601562 9.507812 5.597656 9.46875 5.578125 C 9.371094 5.554688 9.289062 5.625 9.273438 5.714844 C 9.261719 5.800781 9.253906 5.894531 9.238281 5.984375 C 8.878906 6.046875 8.65625 6.378906 8.339844 6.578125 C 8.171875 6.683594 7.648438 6.632812 7.726562 6.957031 C 7.75 7.054688 7.878906 7.085938 7.863281 7.210938 C 7.855469 7.234375 7.789062 7.34375 7.773438 7.375 C 7.742188 7.449219 7.707031 7.527344 7.675781 7.601562 C 7.605469 7.765625 7.472656 7.871094 7.40625 8.035156 C 7.34375 8.1875 7.316406 8.398438 7.300781 8.5625 C 7.28125 8.746094 7.378906 8.894531 7.40625 9.074219 C 7.445312 9.285156 7.429688 9.507812 7.433594 9.726562 C 7.429688 9.753906 7.425781 9.824219 7.417969 9.894531 C 7.34375 9.921875 7.273438 9.953125 7.199219 9.980469 C 7.097656 10.070312 6.660156 10.050781 6.5 10.066406 C 6.261719 10.089844 6.046875 10.027344 5.816406 10.105469 C 5.75 10.128906 5.574219 10.1875 5.539062 10.25 C 5.488281 10.347656 5.570312 10.378906 5.585938 10.464844 C 5.613281 10.625 5.4375 10.664062 5.367188 10.832031 C 5.144531 11.367188 5.886719 11.671875 5.714844 12.203125 C 5.636719 12.445312 5.367188 12.648438 5.449219 12.914062 C 5.480469 13.015625 5.566406 13.066406 5.613281 13.160156 C 5.660156 13.257812 5.648438 13.394531 5.652344 13.503906 C 5.667969 13.773438 5.898438 13.816406 6.035156 14.050781 C 6.105469 14.171875 6.246094 14.320312 6.394531 14.347656 C 6.359375 14.5 6.339844 14.691406 6.367188 14.765625 C 6.4375 14.953125 6.605469 15.066406 6.5625 15.277344 C 6.539062 15.417969 6.46875 15.5 6.359375 15.585938 C 6.28125 15.640625 6.160156 15.660156 6.09375 15.714844 C 5.925781 15.851562 6.140625 16.019531 6.035156 16.167969 C 5.941406 16.125 5.824219 16.1875 5.726562 16.203125 C 5.621094 16.214844 5.636719 16.152344 5.550781 16.253906 C 5.441406 16.382812 5.492188 16.550781 5.523438 16.699219 C 5.578125 16.953125 5.425781 17.003906 5.394531 17.242188 C 5.367188 17.414062 5.464844 17.578125 5.566406 17.699219 C 5.699219 17.859375 5.789062 17.90625 5.992188 17.859375 C 6.164062 17.816406 6.214844 17.839844 6.378906 17.917969 C 6.484375 17.96875 6.582031 17.996094 6.691406 18.019531 C 6.789062 18.042969 6.863281 18.117188 6.957031 18.136719 C 7.101562 18.167969 7.269531 18.082031 7.324219 17.945312 C 7.398438 17.765625 7.355469 17.539062 7.402344 17.347656 C 7.453125 17.140625 7.539062 17.175781 7.703125 17.089844 C 7.753906 17.292969 7.769531 17.375 7.988281 17.398438 C 8.21875 17.425781 8.445312 17.539062 8.480469 17.796875 C 8.488281 17.863281 8.488281 18.003906 8.4375 18.046875 C 8.339844 18.128906 8.359375 18.046875 8.289062 17.980469 C 8.175781 17.871094 8.042969 17.707031 7.871094 17.710938 C 7.390625 17.71875 7.964844 18.328125 7.699219 18.441406 C 7.355469 18.597656 6.875 18.289062 6.53125 18.257812 C 6.339844 18.238281 6.359375 18.300781 6.414062 18.441406 C 6.484375 18.625 6.53125 18.839844 6.6875 18.980469 C 6.847656 19.121094 7.050781 19.132812 7.234375 19.058594 C 7.332031 19.019531 7.453125 18.90625 7.558594 18.90625 C 7.65625 18.90625 7.753906 19 7.792969 19.085938 C 7.851562 19.21875 7.742188 19.289062 7.78125 19.414062 C 7.804688 19.472656 7.917969 19.585938 7.953125 19.644531 C 7.996094 19.703125 8.035156 19.75 8.089844 19.796875 C 8.207031 19.894531 8.296875 19.945312 8.363281 20.085938 C 8.40625 20.183594 8.40625 20.304688 8.511719 20.367188 C 8.597656 20.421875 8.707031 20.382812 8.8125 20.335938 C 9.023438 20.246094 9.132812 20.121094 9.347656 20.148438 C 9.4375 20.199219 9.535156 20.242188 9.632812 20.289062 C 9.671875 20.382812 9.742188 20.558594 9.765625 20.625 C 9.800781 20.8125 9.792969 21.054688 9.949219 21.183594 C 10.140625 21.335938 10.335938 21.285156 10.421875 21.546875 C 10.453125 21.632812 10.453125 21.722656 10.523438 21.789062 C 10.589844 21.847656 10.683594 21.828125 10.746094 21.878906 C 10.808594 21.929688 10.816406 22.035156 10.878906 22.089844 C 10.964844 22.171875 11.078125 22.148438 11.183594 22.175781 C 11.355469 22.222656 11.757812 22.632812 11.683594 22.820312 C 11.664062 22.816406 11.65625 22.8125 11.636719 22.8125 C 11.464844 23.082031 11.835938 23.242188 11.976562 23.398438 C 12.097656 23.53125 12.242188 23.699219 12.242188 23.882812 C 12.242188 24.039062 12.09375 24.3125 12.199219 24.453125 C 12.234375 24.503906 12.324219 24.488281 12.367188 24.535156 C 12.382812 24.558594 12.394531 24.695312 12.398438 24.726562 C 12.441406 24.992188 12.492188 25.019531 12.722656 25.140625 C 12.84375 25.207031 12.910156 25.257812 13.046875 25.285156 C 13.164062 25.308594 13.285156 25.320312 13.394531 25.363281 C 13.605469 25.441406 13.777344 25.609375 13.925781 25.765625 C 14.085938 25.9375 14.261719 25.988281 14.472656 26.078125 C 14.503906 26.09375 14.535156 26.109375 14.566406 26.125 C 14.621094 25.996094 14.671875 25.859375 14.628906 25.722656 C 14.582031 25.558594 14.199219 25.535156 14.296875 25.339844 C 14.335938 25.257812 14.46875 25.292969 14.433594 25.144531 C 14.417969 25.039062 14.304688 24.984375 14.285156 24.871094 C 14.253906 24.652344 14.417969 24.691406 14.589844 24.699219 C 14.664062 24.449219 14.601562 24.144531 14.628906 23.878906 C 14.644531 23.753906 14.664062 23.644531 14.640625 23.519531 C 14.621094 23.410156 14.589844 23.324219 14.617188 23.210938 C 14.640625 23.113281 14.703125 23.007812 14.769531 22.933594 C 14.828125 22.867188 14.90625 22.871094 14.886719 22.753906 C 14.867188 22.660156 14.730469 22.582031 14.671875 22.515625 C 14.574219 22.410156 14.492188 22.296875 14.378906 22.199219 C 14.210938 22.050781 13.933594 21.832031 13.835938 21.707031 C 13.816406 21.652344 13.800781 21.59375 13.777344 21.535156 C 13.800781 21.484375 13.824219 21.433594 13.851562 21.382812 C 13.980469 21.351562 14.136719 21.046875 14.246094 20.929688 C 14.347656 20.824219 14.449219 20.734375 14.535156 20.609375 C 14.621094 20.484375 14.679688 20.355469 14.746094 20.210938 C 14.84375 19.996094 15.085938 19.824219 15.117188 19.589844 C 15.144531 19.390625 14.972656 19.050781 15.128906 18.894531 C 15.203125 18.820312 15.394531 18.828125 15.480469 18.785156 C 15.566406 18.734375 15.644531 18.609375 15.679688 18.515625 C 15.710938 18.417969 15.703125 18.292969 15.769531 18.210938 C 15.867188 18.085938 16.015625 18.070312 16.132812 17.996094 C 16.355469 17.855469 16.359375 17.46875 16.488281 17.253906 C 16.660156 16.980469 17.007812 16.871094 17.089844 16.550781 C 17.136719 16.355469 17.101562 16.164062 17.199219 15.976562 C 17.285156 15.8125 17.378906 15.628906 17.488281 15.472656 C 17.617188 15.285156 17.738281 15.292969 17.9375 15.226562 C 18.027344 15.199219 18.105469 15.144531 18.167969 15.074219 C 18.191406 15.09375 18.210938 15.109375 18.210938 15.113281 C 18.453125 15.171875 18.382812 15.367188 18.457031 15.539062 C 18.546875 15.738281 18.800781 15.851562 18.605469 16.105469 C 18.546875 16.1875 18.457031 16.207031 18.425781 16.328125 C 18.390625 16.445312 18.429688 16.527344 18.464844 16.636719 C 18.527344 16.832031 18.488281 17.125 18.648438 17.246094 C 18.75 17.320312 18.882812 17.3125 18.980469 17.371094 C 19.074219 17.425781 19.070312 17.542969 19.171875 17.589844 C 19.320312 17.652344 19.703125 17.46875 19.828125 17.398438 C 19.96875 17.320312 20.015625 17.191406 20.132812 17.097656 C 20.257812 16.992188 20.445312 17.019531 20.601562 17 C 20.714844 16.984375 20.882812 16.992188 20.984375 16.925781 C 21.113281 16.84375 21.058594 16.707031 21.15625 16.609375 C 21.21875 16.550781 21.34375 16.519531 21.417969 16.472656 C 21.484375 16.425781 21.550781 16.339844 21.628906 16.332031 C 21.746094 16.316406 21.867188 16.488281 21.953125 16.398438 C 22 16.347656 21.960938 16.089844 21.949219 16.027344 C 21.914062 15.832031 21.863281 15.722656 22.023438 15.566406 C 22.222656 15.371094 22.371094 15.109375 22.121094 14.902344 C 21.988281 14.796875 21.890625 14.695312 21.792969 14.550781 C 21.753906 14.496094 21.730469 14.429688 21.671875 14.378906 C 21.617188 14.335938 21.535156 14.328125 21.480469 14.285156 C 21.378906 14.207031 21.332031 14.097656 21.394531 13.976562 C 21.445312 13.878906 21.535156 13.839844 21.609375 13.773438 C 21.691406 13.703125 21.722656 13.582031 21.796875 13.527344 C 21.9375 13.421875 22.117188 13.535156 22.246094 13.582031 C 22.40625 13.640625 22.570312 13.644531 22.730469 13.714844 C 22.820312 13.757812 22.984375 13.910156 23.105469 13.824219 C 23.210938 13.742188 23.136719 13.429688 23.148438 13.3125 C 23.160156 13.148438 23.285156 13.042969 23.464844 13 C 23.527344 12.988281 23.621094 13.015625 23.671875 12.96875 C 23.71875 12.925781 23.726562 12.816406 23.78125 12.765625 C 23.890625 12.671875 24.019531 12.714844 24.152344 12.679688 C 24.296875 12.648438 24.472656 12.613281 24.570312 12.492188 C 24.855469 12.160156 24.59375 11.648438 24.28125 11.433594 Z M 24.28125 11.433594 " fill-opacity="1" fill-rule="nonzero"/></g></svg>