<svg xmlns="http://www.w3.org/2000/svg" width="40" zoomAndPan="magnify" viewBox="0 0 30 30.000001" height="40"
     preserveAspectRatio="xMidYMid meet" version="1.0"><defs><clipPath id="11de72434e"><path d="M 26 10 L 26.613281 10 L 26.613281 11 L 26 11 Z M 26 10 " clip-rule="nonzero"/></clipPath><clipPath id="02714732f2"><path d="M 25 7 L 26.613281 7 L 26.613281 8 L 25 8 Z M 25 7 " clip-rule="nonzero"/></clipPath><clipPath id="7c83c92bab"><path d="M 3.386719 4.296875 L 26.613281 4.296875 L 26.613281 24.621094 L 3.386719 24.621094 Z M 3.386719 4.296875 " clip-rule="nonzero"/></clipPath></defs><g clip-path="url(#11de72434e)"><path fill="#014d4e" d="M 26.5625 10.324219 C 26.546875 10.296875 26.511719 10.234375 26.453125 10.226562 C 26.429688 10.21875 26.390625 10.222656 26.351562 10.257812 L 26.339844 10.273438 C 26.332031 10.292969 26.265625 10.445312 26.265625 10.53125 C 26.265625 10.546875 26.261719 10.570312 26.261719 10.589844 C 26.257812 10.660156 26.25 10.726562 26.289062 10.761719 C 26.296875 10.769531 26.3125 10.777344 26.332031 10.777344 C 26.339844 10.777344 26.347656 10.777344 26.359375 10.773438 C 26.433594 10.753906 26.554688 10.664062 26.566406 10.589844 C 26.566406 10.585938 26.59375 10.386719 26.5625 10.324219 Z M 26.5625 10.324219 " fill-opacity="1" fill-rule="nonzero"/></g><path fill="#014d4e" d="M 24.972656 7.808594 C 24.804688 7.808594 24.796875 7.847656 24.789062 7.871094 C 24.78125 7.914062 24.765625 8.03125 24.828125 8.070312 C 24.859375 8.089844 24.996094 8.125 25.082031 8.125 C 25.105469 8.125 25.125 8.121094 25.136719 8.117188 C 25.15625 8.101562 25.195312 8.078125 25.203125 8.035156 C 25.207031 8.007812 25.199219 7.976562 25.171875 7.953125 C 25.175781 7.949219 25.050781 7.808594 24.972656 7.808594 Z M 24.972656 7.808594 " fill-opacity="1" fill-rule="nonzero"/><g clip-path="url(#02714732f2)"><path fill="#014d4e" d="M 25.648438 7.898438 C 25.65625 7.898438 25.664062 7.902344 25.675781 7.90625 C 25.695312 7.90625 25.710938 7.914062 25.734375 7.914062 C 25.777344 7.914062 25.828125 7.898438 25.886719 7.84375 C 25.910156 7.824219 25.925781 7.804688 25.941406 7.792969 C 25.972656 7.757812 25.972656 7.757812 26.039062 7.753906 C 26.09375 7.753906 26.152344 7.753906 26.210938 7.753906 C 26.265625 7.757812 26.316406 7.757812 26.363281 7.753906 C 26.378906 7.753906 26.402344 7.769531 26.421875 7.78125 C 26.449219 7.800781 26.480469 7.820312 26.511719 7.796875 C 26.546875 7.773438 26.539062 7.722656 26.527344 7.65625 C 26.488281 7.453125 26.445312 7.339844 26.320312 7.261719 C 26.195312 7.179688 26.074219 7.105469 25.980469 7.121094 C 25.964844 7.125 25.941406 7.125 25.917969 7.128906 C 25.8125 7.140625 25.652344 7.164062 25.574219 7.222656 L 25.5625 7.238281 C 25.535156 7.285156 25.410156 7.539062 25.441406 7.648438 C 25.472656 7.746094 25.558594 7.890625 25.648438 7.898438 Z M 25.648438 7.898438 " fill-opacity="1" fill-rule="nonzero"/></g><path fill="#014d4e" d="M 25.105469 22.191406 C 25.039062 22.140625 24.914062 22.074219 24.835938 22.117188 C 24.8125 22.125 24.722656 22.175781 24.699219 22.242188 C 24.691406 22.265625 24.695312 22.289062 24.710938 22.316406 C 24.746094 22.378906 24.78125 22.449219 24.828125 22.492188 L 24.835938 22.5 C 24.867188 22.53125 24.902344 22.570312 24.96875 22.570312 C 24.980469 22.570312 24.988281 22.570312 25.003906 22.566406 C 25.019531 22.5625 25.035156 22.5625 25.050781 22.5625 C 25.074219 22.5625 25.113281 22.566406 25.136719 22.539062 C 25.167969 22.515625 25.167969 22.46875 25.167969 22.433594 C 25.167969 22.410156 25.167969 22.386719 25.171875 22.371094 C 25.175781 22.296875 25.175781 22.25 25.105469 22.191406 Z M 25.105469 22.191406 " fill-opacity="1" fill-rule="nonzero"/><g clip-path="url(#7c83c92bab)"><path fill="#014d4e" d="M 26.304688 15.785156 C 26.269531 15.707031 26.183594 15.507812 26.117188 15.382812 C 26.050781 15.253906 26.09375 15.105469 26.117188 15.050781 C 26.136719 15 26.210938 14.894531 26.261719 14.792969 C 26.3125 14.691406 26.300781 14.375 26.300781 14.375 C 26.300781 14.375 26.195312 14.15625 26.117188 14.109375 C 26.035156 14.0625 25.957031 14.109375 25.957031 14.109375 L 25.871094 14.148438 C 25.871094 14.148438 25.765625 14.183594 25.6875 14.210938 C 25.605469 14.234375 25.488281 14.367188 25.488281 14.367188 C 25.488281 14.367188 25.449219 14.460938 25.359375 14.480469 C 25.273438 14.5 25.234375 14.472656 25.234375 14.472656 L 25.140625 14.378906 L 25.066406 14.351562 L 24.746094 14.316406 L 24.550781 14.148438 L 24.425781 14.085938 L 24.328125 14.046875 L 24.230469 13.988281 L 23.984375 13.902344 C 23.984375 13.902344 23.660156 13.792969 23.539062 13.75 C 23.421875 13.710938 23.363281 13.773438 23.363281 13.773438 L 23.28125 13.871094 L 23.214844 13.949219 L 23.074219 14.054688 C 23.074219 14.054688 23.003906 14.054688 22.875 14.019531 C 22.75 13.980469 22.824219 13.863281 22.824219 13.804688 C 22.824219 13.746094 22.921875 13.601562 22.964844 13.574219 C 23.003906 13.550781 23.117188 13.476562 23.117188 13.476562 L 23.117188 13.367188 L 23.1875 13.257812 L 23.265625 13.160156 L 23.492188 13.167969 L 23.601562 13.074219 L 23.707031 13.003906 L 23.808594 12.949219 L 23.984375 12.917969 L 24.078125 12.859375 C 24.078125 12.859375 24.125 12.757812 24.136719 12.730469 C 24.152344 12.707031 24.355469 12.382812 24.398438 12.335938 C 24.4375 12.289062 24.507812 12.269531 24.539062 12.253906 C 24.5625 12.242188 24.84375 12.175781 24.84375 12.175781 L 24.84375 12.34375 L 24.796875 12.445312 C 24.796875 12.445312 24.738281 12.65625 24.710938 12.734375 C 24.683594 12.8125 24.710938 13.113281 24.71875 13.21875 C 24.726562 13.324219 24.882812 13.839844 24.890625 13.871094 C 24.898438 13.90625 25.121094 14.085938 25.179688 14.132812 C 25.238281 14.179688 25.351562 14.191406 25.40625 14.171875 C 25.457031 14.148438 25.457031 14.097656 25.457031 14.050781 C 25.457031 14.003906 25.316406 13.945312 25.316406 13.945312 L 25.105469 13.746094 L 25.078125 13.589844 C 25.078125 13.589844 24.972656 13.296875 24.933594 13.222656 C 24.894531 13.152344 24.898438 12.832031 24.898438 12.832031 L 25.042969 12.652344 C 25.042969 12.652344 25.128906 12.535156 25.152344 12.484375 C 25.175781 12.429688 25.320312 12.429688 25.320312 12.429688 L 25.449219 12.4375 L 25.59375 12.492188 L 25.726562 12.484375 L 25.777344 12.421875 L 25.828125 12.253906 L 25.894531 12.09375 L 26.15625 11.691406 L 26.25 11.542969 C 26.25 11.542969 26.316406 11.484375 26.292969 11.417969 C 26.273438 11.351562 26.15625 11.324219 26.15625 11.324219 L 25.929688 11.3125 L 25.765625 11.230469 L 25.375 10.960938 L 24.984375 10.65625 L 24.78125 10.394531 L 24.476562 10.039062 L 24.476562 9.90625 L 24.453125 9.835938 L 24.382812 9.667969 L 24.34375 9.476562 L 24.332031 8.777344 L 24.34375 8.628906 L 24.234375 8.546875 L 24.226562 8.128906 C 24.226562 8.128906 23.808594 7.699219 23.785156 7.554688 C 23.757812 7.410156 23.914062 7.1875 23.953125 7.128906 C 23.992188 7.070312 24.265625 7.0625 24.398438 7.078125 C 24.53125 7.089844 24.714844 7.246094 24.734375 7.28125 C 24.753906 7.316406 24.945312 7.308594 24.945312 7.308594 C 24.945312 7.308594 25.144531 7.175781 25.242188 7.082031 C 25.34375 6.988281 25.324219 6.84375 25.324219 6.738281 C 25.324219 6.632812 25.265625 6.609375 25.203125 6.539062 C 25.144531 6.464844 24.980469 6.371094 24.980469 6.371094 L 24.945312 6.074219 L 24.871094 5.898438 L 24.816406 5.28125 C 24.816406 5.28125 24.847656 5.167969 24.867188 5.089844 C 24.890625 5.007812 24.816406 4.824219 24.816406 4.824219 L 24.507812 4.5625 C 24.507812 4.5625 24.191406 4.375 24.125 4.335938 C 24.058594 4.296875 23.617188 4.328125 23.578125 4.335938 C 23.539062 4.34375 23.433594 4.460938 23.351562 4.515625 C 23.269531 4.574219 23.238281 4.59375 23.238281 4.59375 L 23.0625 4.617188 C 23.0625 4.617188 22.765625 4.636719 22.703125 4.617188 C 22.644531 4.597656 22.527344 4.519531 22.527344 4.519531 C 22.527344 4.519531 22.273438 4.511719 22.117188 4.519531 C 21.957031 4.527344 21.738281 4.757812 21.710938 4.792969 C 21.6875 4.824219 21.691406 4.949219 21.691406 4.949219 C 21.691406 4.949219 21.625 5.007812 21.566406 5.046875 C 21.503906 5.085938 21.578125 5.277344 21.578125 5.277344 L 21.710938 5.558594 C 21.710938 5.558594 21.789062 5.742188 21.804688 5.847656 C 21.816406 5.953125 21.75 5.957031 21.71875 6 C 21.683594 6.039062 21.585938 6.082031 21.414062 6.050781 C 21.242188 6.027344 21.113281 5.835938 21.113281 5.835938 C 21.113281 5.835938 20.988281 5.726562 20.945312 5.707031 C 20.898438 5.6875 20.554688 5.675781 20.554688 5.675781 L 20.117188 5.390625 C 20.117188 5.390625 19.902344 5.261719 19.765625 5.277344 C 19.625 5.289062 19.554688 5.371094 19.523438 5.421875 C 19.496094 5.476562 19.5625 5.621094 19.5625 5.621094 L 19.585938 6.097656 L 19.480469 6.269531 L 19.46875 6.480469 L 19.523438 6.59375 L 19.523438 6.699219 L 19.441406 6.832031 L 19.355469 7.441406 C 19.355469 7.441406 19.199219 7.777344 19.15625 7.847656 C 19.117188 7.921875 18.773438 8.265625 18.773438 8.265625 C 18.773438 8.265625 18.609375 8.398438 18.3125 8.46875 C 18.011719 8.542969 18.011719 8.5 17.789062 8.46875 C 17.5625 8.441406 17.320312 8.351562 17.320312 8.351562 C 17.234375 8.265625 17.0625 8.101562 16.949219 8.019531 C 16.839844 7.9375 16.71875 8 16.671875 8.019531 C 16.625 8.039062 16.570312 8.207031 16.570312 8.207031 L 16.394531 8.207031 L 16.394531 8.5625 L 16.132812 8.609375 L 16.105469 9.273438 C 16.105469 9.273438 15.992188 9.398438 15.933594 9.429688 C 15.875 9.464844 15.734375 9.488281 15.703125 9.488281 C 15.671875 9.488281 15.585938 9.523438 15.585938 9.523438 C 15.585938 9.523438 15.539062 9.597656 15.535156 9.636719 C 15.527344 9.671875 15.480469 9.726562 15.402344 9.808594 C 15.320312 9.886719 15.261719 9.835938 15.214844 9.851562 C 15.167969 9.875 15.074219 10.023438 15.050781 10.128906 C 15.023438 10.234375 14.917969 10.332031 14.917969 10.332031 C 14.917969 10.332031 14.640625 10.519531 14.488281 10.667969 C 14.34375 10.816406 14.441406 10.894531 14.441406 10.894531 L 14.71875 11.394531 L 14.71875 11.582031 C 14.71875 11.582031 14.859375 11.730469 14.90625 11.820312 C 14.957031 11.90625 15.019531 12.046875 15.003906 12.128906 C 14.980469 12.277344 14.738281 12.640625 14.738281 12.640625 L 14.710938 12.703125 C 14.710938 12.703125 14.652344 12.832031 14.597656 12.832031 C 14.546875 12.832031 14.234375 13.257812 14.207031 13.347656 C 14.175781 13.433594 14.265625 13.632812 14.265625 13.632812 L 14.265625 13.722656 L 14.148438 13.816406 C 14.148438 13.816406 13.921875 14.003906 13.882812 14.054688 C 13.84375 14.109375 13.597656 14.351562 13.597656 14.351562 L 13.144531 14.515625 C 13.144531 14.515625 12.992188 14.542969 12.902344 14.546875 C 12.808594 14.550781 12.753906 14.632812 12.695312 14.671875 C 12.640625 14.707031 12.40625 14.992188 12.355469 15.023438 C 12.304688 15.054688 12.148438 15.097656 12.070312 15.109375 C 11.996094 15.125 11.648438 15.101562 11.558594 15.078125 C 11.464844 15.050781 11.144531 14.96875 11.117188 14.949219 C 11.089844 14.929688 10.949219 14.800781 10.835938 14.703125 C 10.722656 14.609375 10.382812 14.609375 10.382812 14.609375 C 10.382812 14.609375 10.023438 14.292969 9.726562 14.101562 C 9.429688 13.910156 9.40625 13.535156 9.417969 13.480469 C 9.429688 13.425781 9.625 13.289062 9.625 13.289062 C 9.625 13.289062 9.828125 13.214844 9.855469 13.1875 C 9.882812 13.164062 9.90625 13.089844 9.898438 13.042969 C 9.894531 12.992188 9.851562 12.960938 9.835938 12.953125 C 9.820312 12.945312 9.722656 12.867188 9.695312 12.828125 C 9.667969 12.789062 9.714844 12.675781 9.714844 12.675781 L 9.796875 12.597656 L 9.964844 12.34375 C 9.964844 12.34375 10.03125 12.257812 10.015625 12.183594 C 10 12.109375 9.949219 12.128906 9.890625 12.085938 C 9.832031 12.042969 9.683594 12.0625 9.644531 12.085938 C 9.613281 12.113281 9.582031 12.183594 9.582031 12.183594 L 9.4375 12.445312 C 9.4375 12.445312 9.339844 12.636719 9.273438 12.667969 C 9.207031 12.695312 9.089844 12.769531 9.046875 12.796875 C 9 12.820312 8.8125 12.828125 8.8125 12.828125 C 8.8125 12.828125 8.65625 13.042969 8.640625 13.058594 C 8.625 13.074219 8.40625 13.375 8.3125 13.433594 C 8.21875 13.492188 8.089844 13.550781 7.917969 13.566406 C 7.742188 13.582031 7.625 13.546875 7.503906 13.519531 C 7.386719 13.496094 7.074219 13.382812 6.996094 13.34375 C 6.914062 13.304688 6.605469 13.070312 6.554688 13.027344 C 6.503906 12.988281 5.972656 12.660156 5.898438 12.621094 C 5.828125 12.582031 5.480469 12.519531 5.328125 12.519531 C 5.175781 12.519531 4.894531 12.59375 4.75 12.617188 C 4.601562 12.640625 4.394531 12.75 4.363281 12.824219 C 4.328125 12.898438 4.402344 13.089844 4.449219 13.195312 C 4.492188 13.300781 4.300781 13.449219 4.148438 13.65625 C 4.003906 13.863281 3.824219 13.910156 3.613281 14.089844 C 3.40625 14.269531 3.453125 14.519531 3.453125 14.519531 L 4.15625 14.785156 C 4.15625 14.785156 4.824219 15.117188 5.089844 15.191406 C 5.355469 15.273438 5.699219 15.660156 5.738281 15.808594 C 5.777344 15.957031 5.710938 15.996094 5.65625 16.105469 C 5.605469 16.21875 5.664062 16.273438 5.753906 16.285156 C 5.847656 16.296875 5.90625 16.332031 6.03125 16.425781 C 6.160156 16.519531 6.125 16.730469 6.335938 16.816406 C 6.550781 16.902344 6.554688 16.816406 6.554688 16.816406 C 6.554688 16.816406 6.773438 16.890625 6.945312 17.007812 C 7.117188 17.125 7.753906 17.523438 7.753906 17.523438 C 7.753906 17.523438 7.828125 17.628906 7.828125 17.664062 C 7.828125 17.695312 7.746094 17.734375 7.707031 17.808594 C 7.667969 17.878906 7.820312 17.960938 7.820312 17.960938 L 7.871094 18.117188 C 7.871094 18.117188 7.949219 18.316406 8.070312 18.410156 C 8.1875 18.5 8.203125 18.527344 8.402344 18.578125 C 8.601562 18.632812 8.652344 18.757812 8.652344 18.757812 C 8.652344 18.757812 8.75 18.875 8.792969 18.902344 C 8.832031 18.929688 8.933594 18.953125 8.992188 18.921875 C 9.050781 18.890625 9.085938 18.890625 9.132812 18.960938 C 9.179688 19.035156 9.214844 19.113281 9.300781 19.179688 C 9.386719 19.246094 9.453125 19.152344 9.472656 19.113281 C 9.492188 19.074219 9.585938 18.824219 9.617188 18.734375 C 9.652344 18.648438 9.882812 18.53125 9.921875 18.503906 C 9.960938 18.476562 10.414062 18.429688 10.414062 18.429688 C 10.414062 18.429688 10.929688 18.417969 11 18.429688 C 11.074219 18.445312 11.46875 18.632812 11.75 18.722656 C 12.027344 18.8125 12.722656 19.398438 12.722656 19.398438 C 12.722656 19.398438 12.855469 19.582031 12.878906 19.703125 C 12.90625 19.820312 12.867188 20.144531 12.867188 20.144531 C 12.867188 20.144531 12.59375 20.257812 12.515625 20.289062 C 12.4375 20.324219 12.472656 20.597656 12.472656 20.597656 C 12.472656 20.597656 12.875 20.820312 12.9375 20.871094 C 13.007812 20.925781 13.125 21.089844 13.199219 21.195312 C 13.269531 21.300781 13.363281 21.347656 13.457031 21.339844 C 13.550781 21.332031 13.707031 21.234375 13.777344 21.195312 C 13.84375 21.15625 14.046875 21.210938 14.046875 21.210938 C 14.046875 21.210938 14.488281 21.25 14.726562 21.320312 C 14.964844 21.394531 15.050781 21.679688 15.050781 21.679688 C 15.050781 21.679688 15.109375 21.890625 15.117188 21.949219 C 15.125 22.007812 15.21875 22.035156 15.285156 22.03125 C 15.351562 22.023438 15.425781 21.957031 15.484375 21.933594 C 15.542969 21.90625 15.636719 21.8125 15.714844 21.785156 C 15.792969 21.761719 15.953125 21.855469 16.019531 21.914062 C 16.085938 21.972656 16.25 22.261719 16.25 22.261719 C 16.25 22.261719 16.417969 22.382812 16.535156 22.453125 C 16.652344 22.527344 16.785156 22.5 16.890625 22.394531 C 17 22.289062 17.214844 22.089844 17.214844 22.089844 C 17.214844 22.089844 17.671875 22.101562 17.714844 22.089844 C 17.75 22.078125 17.984375 22.214844 18.035156 22.292969 C 18.089844 22.375 18.195312 22.566406 18.195312 22.566406 C 18.195312 22.566406 18.175781 22.890625 18.195312 22.976562 C 18.214844 23.058594 18.273438 23.222656 18.359375 23.214844 C 18.445312 23.207031 18.464844 23.105469 18.464844 23.105469 C 18.464844 23.105469 18.519531 22.890625 18.503906 22.796875 C 18.492188 22.703125 18.425781 22.328125 18.425781 22.328125 L 18.398438 22.015625 L 18.65625 21.878906 C 18.65625 21.878906 18.785156 21.824219 18.8125 21.730469 C 18.835938 21.640625 18.894531 21.601562 18.996094 21.519531 C 19.09375 21.441406 19.339844 21.46875 19.386719 21.449219 C 19.433594 21.425781 19.832031 21.449219 20.175781 21.515625 C 20.519531 21.582031 20.875 21.933594 20.9375 22.003906 C 20.996094 22.078125 20.910156 22.261719 20.910156 22.261719 C 20.910156 22.261719 20.84375 22.429688 20.828125 22.515625 C 20.816406 22.605469 20.984375 22.917969 20.984375 22.917969 C 20.984375 22.917969 21.1875 23.238281 21.195312 23.355469 C 21.203125 23.472656 21.089844 23.542969 21.089844 23.542969 L 20.929688 23.867188 C 20.929688 23.867188 20.890625 24.171875 20.890625 24.296875 C 20.890625 24.421875 20.976562 24.542969 20.984375 24.605469 C 20.992188 24.671875 21.097656 24.734375 21.136719 24.726562 C 21.175781 24.71875 21.191406 24.644531 21.191406 24.644531 L 21.488281 24.597656 L 21.835938 24.207031 L 22.042969 23.871094 L 22.066406 23.667969 L 22.121094 23.621094 L 22.265625 23.519531 C 22.265625 23.519531 22.371094 23.519531 22.433594 23.519531 C 22.5 23.519531 22.625 23.46875 22.679688 23.410156 C 22.734375 23.351562 22.789062 23.195312 22.789062 23.195312 L 22.917969 23.144531 L 23.039062 23.117188 L 23.148438 22.976562 C 23.148438 22.976562 23.152344 22.835938 23.15625 22.792969 C 23.164062 22.75 23.511719 22.464844 23.511719 22.464844 L 23.625 22.394531 L 23.757812 22.28125 L 23.808594 22.183594 L 23.769531 22.089844 L 23.714844 21.960938 L 23.691406 21.875 L 23.582031 21.679688 L 23.542969 21.523438 L 23.566406 21.421875 L 23.730469 21.34375 L 24.058594 21.101562 L 24.265625 20.933594 L 24.40625 20.796875 L 24.398438 20.558594 L 24.546875 20.488281 C 24.546875 20.488281 24.667969 20.386719 24.675781 20.261719 C 24.679688 20.203125 24.605469 20.234375 24.429688 20.175781 C 24.25 20.113281 24.230469 19.816406 24.265625 19.699219 C 24.300781 19.578125 24.367188 19.566406 24.40625 19.421875 C 24.445312 19.277344 24.457031 19.113281 24.476562 19.023438 C 24.5 18.9375 24.683594 18.808594 24.753906 18.777344 C 24.820312 18.746094 25.023438 18.714844 25.023438 18.714844 L 25.0625 18.617188 L 25.242188 18.339844 C 25.242188 18.339844 25.421875 18.25 25.4375 18.210938 C 25.457031 18.171875 25.507812 17.980469 25.507812 17.980469 L 25.421875 17.863281 C 25.421875 17.863281 25.339844 17.542969 25.28125 17.347656 C 25.21875 17.148438 25.378906 16.902344 25.457031 16.84375 C 25.539062 16.78125 25.6875 16.660156 25.6875 16.660156 C 25.726562 16.613281 25.742188 16.527344 25.734375 16.46875 C 25.726562 16.410156 25.589844 16.398438 25.527344 16.398438 C 25.464844 16.398438 25.40625 16.480469 25.40625 16.480469 L 25.300781 16.558594 L 25.226562 16.558594 L 25.121094 16.410156 C 25.121094 16.410156 25.015625 16.265625 24.953125 16.207031 C 24.886719 16.144531 24.953125 16.066406 24.953125 16.066406 C 24.953125 16.066406 25.074219 15.933594 25.167969 15.925781 C 25.261719 15.917969 25.386719 16.007812 25.386719 16.007812 C 25.386719 16.007812 25.523438 16.207031 25.605469 16.207031 C 25.675781 16.207031 25.6875 16.207031 25.734375 16.207031 C 25.792969 16.207031 25.855469 16.296875 25.855469 16.296875 C 25.855469 16.296875 25.855469 16.453125 25.863281 16.503906 C 25.871094 16.554688 25.941406 16.542969 25.988281 16.554688 C 26.035156 16.566406 26.160156 16.519531 26.214844 16.472656 C 26.265625 16.429688 26.332031 16.335938 26.386719 16.273438 C 26.4375 16.214844 26.386719 16.117188 26.386719 16.011719 C 26.386719 15.90625 26.339844 15.867188 26.304688 15.785156 Z M 24.367188 11.554688 C 24.367188 11.546875 24.375 11.542969 24.378906 11.539062 C 24.433594 11.5 24.558594 11.453125 25.066406 11.5625 C 25.21875 11.597656 25.484375 11.761719 25.535156 11.851562 C 25.582031 11.9375 25.589844 11.980469 25.53125 12.054688 C 25.480469 12.121094 25.34375 12.144531 25.304688 12.148438 C 25.300781 12.148438 25.296875 12.148438 25.296875 12.148438 L 24.976562 12.148438 C 24.96875 12.148438 24.964844 12.148438 24.960938 12.144531 L 24.859375 12.105469 C 24.859375 12.105469 24.851562 12.105469 24.851562 12.101562 L 24.757812 12.039062 L 24.660156 12.039062 C 24.652344 12.039062 24.644531 12.035156 24.636719 12.03125 C 24.632812 12.03125 24.488281 11.957031 24.378906 11.875 C 24.265625 11.785156 24.316406 11.628906 24.367188 11.554688 Z M 23.082031 9.230469 C 23.117188 9.167969 23.210938 9.140625 23.226562 9.136719 C 23.230469 9.136719 23.230469 9.136719 23.230469 9.136719 C 23.378906 9.117188 23.628906 9.089844 23.667969 9.097656 C 23.722656 9.105469 23.738281 9.152344 23.753906 9.1875 C 23.761719 9.207031 23.769531 9.226562 23.785156 9.242188 C 23.824219 9.304688 23.808594 9.363281 23.800781 9.40625 C 23.796875 9.414062 23.792969 9.429688 23.792969 9.4375 C 23.78125 9.527344 23.554688 9.699219 23.527344 9.714844 C 23.511719 9.726562 23.492188 9.726562 23.476562 9.726562 C 23.46875 9.726562 23.460938 9.726562 23.453125 9.726562 C 23.417969 9.714844 23.394531 9.6875 23.382812 9.671875 L 23.203125 9.503906 C 23.195312 9.496094 23.113281 9.414062 23.078125 9.324219 C 23.066406 9.289062 23.066406 9.257812 23.082031 9.230469 Z M 5.003906 14.714844 C 4.996094 14.730469 4.984375 14.742188 4.964844 14.746094 C 4.964844 14.746094 4.960938 14.746094 4.957031 14.746094 C 4.941406 14.746094 4.929688 14.738281 4.917969 14.730469 C 4.898438 14.707031 4.796875 14.605469 4.773438 14.578125 C 4.753906 14.550781 4.75 14.511719 4.742188 14.457031 C 4.738281 14.4375 4.734375 14.417969 4.730469 14.394531 C 4.714844 14.300781 4.757812 14.25 4.789062 14.234375 C 4.792969 14.230469 4.796875 14.230469 4.800781 14.226562 C 4.855469 14.210938 4.894531 14.226562 4.910156 14.242188 C 4.933594 14.257812 4.941406 14.28125 4.941406 14.300781 C 4.972656 14.332031 5.03125 14.410156 5.046875 14.46875 C 5.078125 14.546875 5.023438 14.679688 5.003906 14.714844 Z M 5.941406 14.738281 C 5.941406 14.75 5.9375 14.757812 5.929688 14.765625 C 5.929688 14.765625 5.859375 14.863281 5.824219 14.910156 C 5.824219 14.921875 5.847656 14.972656 5.863281 15.003906 C 5.875 15.035156 5.890625 15.066406 5.898438 15.097656 C 5.929688 15.199219 5.863281 15.339844 5.855469 15.355469 C 5.847656 15.367188 5.839844 15.375 5.824219 15.378906 C 5.816406 15.378906 5.816406 15.382812 5.808594 15.382812 C 5.800781 15.382812 5.789062 15.378906 5.78125 15.371094 L 5.1875 14.960938 C 5.179688 14.957031 5.171875 14.949219 5.167969 14.9375 C 5.167969 14.9375 5.128906 14.839844 5.109375 14.792969 C 5.078125 14.730469 5.136719 14.636719 5.171875 14.585938 C 5.179688 14.578125 5.183594 14.570312 5.191406 14.570312 C 5.210938 14.558594 5.375 14.480469 5.480469 14.472656 C 5.578125 14.464844 5.660156 14.53125 5.691406 14.5625 C 5.765625 14.570312 5.847656 14.570312 5.867188 14.566406 C 5.882812 14.5625 5.898438 14.558594 5.914062 14.566406 C 5.949219 14.585938 5.953125 14.613281 5.941406 14.738281 Z M 7.035156 13.660156 C 7.035156 13.644531 7.042969 13.628906 7.058594 13.617188 C 7.070312 13.609375 7.085938 13.605469 7.101562 13.609375 C 7.105469 13.609375 7.195312 13.628906 7.257812 13.648438 C 7.296875 13.664062 7.382812 13.65625 7.425781 13.648438 C 7.433594 13.644531 7.441406 13.648438 7.449219 13.648438 L 7.558594 13.683594 L 7.644531 13.707031 C 7.664062 13.710938 7.679688 13.730469 7.683594 13.75 C 7.6875 13.773438 7.675781 13.792969 7.660156 13.804688 C 7.660156 13.804688 7.574219 13.855469 7.527344 13.894531 C 7.515625 13.902344 7.507812 13.910156 7.5 13.914062 C 7.472656 13.941406 7.4375 13.96875 7.382812 13.96875 C 7.375 13.96875 7.363281 13.96875 7.351562 13.964844 C 7.285156 13.957031 7.144531 13.878906 7.113281 13.863281 C 7.105469 13.863281 7.101562 13.855469 7.097656 13.847656 L 7.046875 13.78125 C 7.039062 13.773438 7.035156 13.761719 7.035156 13.75 Z M 14.628906 20.484375 C 14.605469 20.535156 14.550781 20.558594 14.488281 20.558594 C 14.453125 20.558594 14.417969 20.550781 14.382812 20.542969 C 14.304688 20.511719 14.199219 20.429688 14.191406 20.425781 C 14.1875 20.425781 14.183594 20.417969 14.183594 20.417969 L 13.777344 19.871094 C 13.570312 19.835938 13.542969 19.808594 13.535156 19.78125 C 13.515625 19.765625 13.453125 19.714844 13.390625 19.675781 L 13.222656 19.660156 L 13.066406 19.640625 C 13.046875 19.636719 13.03125 19.625 13.023438 19.609375 C 12.960938 19.453125 12.855469 19.207031 12.8125 19.152344 C 12.746094 19.066406 12.429688 18.675781 12.382812 18.636719 C 12.363281 18.621094 12.304688 18.578125 12.242188 18.53125 C 12.101562 18.429688 12.003906 18.359375 11.96875 18.320312 C 11.898438 18.238281 11.910156 18.125 11.917969 18.0625 C 11.917969 18.03125 11.886719 18 11.875 17.992188 L 11.773438 17.941406 L 11.589844 17.933594 L 11.074219 17.902344 C 11.019531 17.894531 10.535156 17.859375 10.460938 17.839844 C 10.453125 17.839844 9.992188 17.699219 9.871094 17.550781 C 9.769531 17.425781 9.636719 17.066406 9.628906 17.011719 C 9.617188 16.828125 9.597656 16.628906 9.585938 16.597656 C 9.566406 16.558594 9.367188 16.296875 9.277344 16.246094 C 9.191406 16.199219 8.777344 16.191406 8.71875 16.210938 C 8.710938 16.214844 8.695312 16.222656 8.660156 16.230469 C 8.527344 16.261719 8.496094 16.285156 8.492188 16.296875 C 8.519531 16.390625 8.5 16.664062 8.496094 16.75 L 8.761719 17.023438 C 8.773438 17.035156 8.777344 17.050781 8.777344 17.066406 C 8.773438 17.101562 8.78125 17.140625 8.792969 17.148438 C 8.8125 17.164062 8.894531 17.179688 8.957031 17.1875 L 9.066406 17.1875 C 9.089844 17.183594 9.164062 17.179688 9.199219 17.234375 C 9.226562 17.273438 9.222656 17.359375 9.214844 17.425781 C 9.214844 17.4375 9.210938 17.445312 9.207031 17.457031 C 9.144531 17.535156 9.015625 17.597656 8.980469 17.605469 C 8.953125 17.613281 8.820312 17.617188 8.765625 17.621094 C 8.761719 17.621094 8.757812 17.621094 8.753906 17.621094 L 8.632812 17.59375 L 8.5 17.5625 C 8.488281 17.558594 8.480469 17.554688 8.472656 17.546875 L 8.40625 17.464844 L 8.304688 17.324219 C 8.300781 17.316406 8.296875 17.308594 8.296875 17.296875 L 8.28125 17.117188 L 8.253906 17.046875 L 7.980469 16.675781 C 7.976562 16.671875 7.972656 16.667969 7.972656 16.664062 C 7.972656 16.660156 7.886719 16.445312 7.703125 16.363281 C 7.496094 16.273438 7.21875 16.242188 7.179688 16.25 C 7.125 16.273438 6.984375 16.292969 6.902344 16.292969 C 6.816406 16.292969 6.675781 16.230469 6.675781 16.160156 C 6.675781 16.15625 6.675781 16.148438 6.675781 16.140625 C 6.667969 16.09375 6.664062 16.046875 6.699219 16.023438 C 6.703125 16.019531 6.703125 16.019531 6.707031 16.015625 C 6.710938 16.007812 6.71875 15.996094 6.726562 15.984375 C 6.730469 15.976562 6.730469 15.945312 6.730469 15.921875 L 6.722656 15.835938 L 6.683594 15.769531 C 6.679688 15.761719 6.675781 15.753906 6.675781 15.742188 C 6.695312 15.367188 6.707031 15.347656 6.714844 15.332031 C 6.714844 15.332031 6.714844 15.328125 6.714844 15.324219 C 6.722656 15.292969 6.734375 15.21875 6.832031 15.195312 C 6.910156 15.175781 7.097656 15.101562 7.160156 15.074219 C 7.191406 15.0625 7.433594 14.925781 7.480469 14.902344 C 7.496094 14.886719 7.566406 14.738281 7.578125 14.679688 C 7.582031 14.664062 7.585938 14.640625 7.589844 14.609375 C 7.613281 14.480469 7.628906 14.382812 7.675781 14.34375 C 7.726562 14.300781 8.148438 14.101562 8.234375 14.058594 C 8.273438 14.035156 8.503906 13.902344 8.601562 13.894531 C 8.699219 13.890625 8.855469 13.933594 8.910156 13.992188 C 8.925781 14.007812 9 14.070312 9.0625 14.125 C 9.285156 14.3125 9.339844 14.359375 9.347656 14.390625 C 9.359375 14.417969 9.429688 14.53125 9.515625 14.664062 C 9.554688 14.71875 9.757812 14.824219 9.851562 14.878906 C 9.921875 14.914062 9.957031 14.929688 9.96875 14.945312 C 9.992188 14.957031 10.042969 14.980469 10.082031 15 C 10.207031 15.054688 10.289062 15.09375 10.320312 15.125 C 10.367188 15.167969 10.492188 15.292969 10.496094 15.296875 C 10.5 15.300781 10.503906 15.304688 10.503906 15.308594 L 10.613281 15.53125 C 10.710938 15.480469 10.925781 15.375 11.042969 15.375 C 11.1875 15.375 11.484375 15.460938 11.496094 15.464844 C 11.589844 15.503906 11.757812 15.558594 11.820312 15.554688 C 11.859375 15.550781 11.9375 15.554688 12.039062 15.5625 C 12.167969 15.570312 12.410156 15.582031 12.457031 15.5625 C 12.46875 15.554688 12.480469 15.546875 12.5 15.539062 C 12.585938 15.492188 12.769531 15.390625 12.800781 15.316406 C 12.8125 15.28125 12.824219 15.238281 12.835938 15.199219 C 12.867188 15.089844 12.886719 15.027344 12.921875 15 C 12.96875 14.964844 13.117188 14.9375 13.175781 14.929688 C 13.175781 14.929688 13.179688 14.929688 13.183594 14.929688 L 13.230469 14.929688 C 13.359375 14.820312 13.554688 14.640625 13.582031 14.59375 C 13.644531 14.5 13.820312 14.359375 13.960938 14.445312 C 14.089844 14.519531 14.128906 14.609375 14.105469 14.753906 C 14.097656 14.785156 14.09375 14.84375 14.089844 14.90625 C 14.074219 15.09375 14.058594 15.230469 14.015625 15.300781 C 14 15.324219 13.996094 15.339844 13.988281 15.355469 C 13.96875 15.410156 13.945312 15.449219 13.828125 15.488281 C 13.824219 15.492188 13.820312 15.492188 13.8125 15.492188 C 13.765625 15.492188 13.714844 15.507812 13.707031 15.515625 C 13.695312 15.582031 13.667969 15.859375 13.667969 15.859375 L 13.566406 16.351562 C 13.566406 16.355469 13.5625 16.359375 13.5625 16.359375 C 13.550781 16.394531 13.484375 16.558594 13.414062 16.605469 C 13.332031 16.660156 13.03125 16.628906 12.96875 16.613281 C 12.949219 16.605469 12.894531 16.628906 12.851562 16.730469 L 12.84375 16.75 C 12.824219 16.796875 12.808594 16.824219 12.871094 16.917969 C 12.921875 16.996094 12.949219 17 12.976562 17.003906 C 12.980469 17.003906 12.984375 17.007812 12.992188 17.007812 C 13.007812 17.011719 13.019531 17.015625 13.03125 17.019531 C 13.046875 17.027344 13.066406 17.035156 13.125 17.035156 C 13.238281 17.035156 13.332031 17.011719 13.332031 17.011719 C 13.335938 17.007812 13.339844 17.007812 13.347656 17.007812 L 13.476562 17.015625 C 13.484375 17.015625 13.496094 17.019531 13.507812 17.027344 C 13.535156 17.050781 13.792969 17.265625 13.792969 17.453125 C 13.800781 17.597656 13.824219 18.085938 13.746094 18.1875 C 13.683594 18.261719 13.648438 18.601562 13.667969 18.683594 C 13.6875 18.75 13.804688 18.839844 13.839844 18.84375 C 13.914062 18.84375 14.183594 18.984375 14.238281 19.242188 C 14.265625 19.359375 14.277344 19.460938 14.289062 19.542969 C 14.300781 19.621094 14.308594 19.683594 14.320312 19.714844 C 14.335938 19.746094 14.40625 19.835938 14.460938 19.90625 C 14.582031 20.066406 14.617188 20.113281 14.621094 20.144531 C 14.636719 20.160156 14.660156 20.414062 14.628906 20.484375 Z M 17.089844 9.445312 C 17.085938 9.457031 17.078125 9.472656 17.074219 9.480469 C 17.042969 9.558594 16.921875 9.613281 16.863281 9.628906 C 16.84375 9.636719 16.816406 9.652344 16.785156 9.675781 C 16.71875 9.722656 16.625 9.789062 16.484375 9.828125 C 16.398438 9.855469 16.324219 9.863281 16.265625 9.863281 C 16.171875 9.863281 16.109375 9.84375 16.070312 9.828125 C 16.039062 9.820312 16.019531 9.800781 16.011719 9.773438 C 15.992188 9.71875 16.03125 9.660156 16.042969 9.644531 C 16.046875 9.636719 16.050781 9.632812 16.054688 9.628906 L 16.523438 9.3125 C 16.625 9.242188 16.765625 9.25 16.878906 9.257812 C 16.933594 9.265625 16.984375 9.265625 17.019531 9.261719 C 17.070312 9.253906 17.105469 9.265625 17.121094 9.292969 C 17.152344 9.335938 17.121094 9.394531 17.089844 9.445312 Z M 19.5 8.382812 C 19.523438 8.339844 19.65625 8.214844 19.730469 8.148438 C 19.738281 8.140625 19.746094 8.136719 19.757812 8.136719 C 19.800781 8.128906 20.003906 8.09375 20.085938 8.117188 C 20.132812 8.128906 20.230469 8.136719 20.273438 8.136719 C 20.316406 8.121094 20.40625 8.085938 20.453125 8.085938 C 20.46875 8.085938 20.519531 8.085938 20.753906 8.203125 C 20.882812 8.269531 20.847656 8.367188 20.832031 8.40625 C 20.804688 8.484375 20.660156 8.515625 20.546875 8.527344 C 20.496094 8.53125 20.414062 8.578125 20.398438 8.597656 C 20.378906 8.640625 20.324219 8.730469 20.273438 8.789062 C 20.234375 8.832031 20.210938 8.835938 20.183594 8.84375 C 20.171875 8.84375 20.164062 8.84375 20.152344 8.851562 C 20.117188 8.867188 20.0625 8.875 20.003906 8.875 C 19.941406 8.875 19.878906 8.867188 19.839844 8.855469 C 19.800781 8.84375 19.5625 8.75 19.511719 8.707031 C 19.441406 8.640625 19.484375 8.417969 19.5 8.382812 Z M 18.957031 20.460938 C 18.949219 20.472656 18.941406 20.484375 18.933594 20.496094 C 18.917969 20.527344 18.894531 20.535156 18.878906 20.539062 C 18.871094 20.539062 18.871094 20.539062 18.863281 20.539062 C 18.828125 20.539062 18.796875 20.511719 18.769531 20.484375 C 18.75 20.464844 18.726562 20.445312 18.710938 20.4375 C 18.65625 20.414062 18.550781 20.328125 18.410156 20.203125 C 18.367188 20.167969 18.332031 20.136719 18.300781 20.113281 C 18.195312 20.027344 18.132812 19.898438 18.132812 19.773438 C 18.132812 19.683594 18.257812 19.613281 18.367188 19.558594 C 18.394531 19.542969 18.433594 19.523438 18.441406 19.511719 C 18.457031 19.492188 18.488281 19.449219 18.796875 19.492188 C 18.824219 19.496094 18.839844 19.519531 18.839844 19.542969 C 18.839844 19.589844 18.828125 19.953125 18.824219 20.035156 C 18.847656 20.074219 18.921875 20.183594 18.96875 20.234375 C 19.042969 20.324219 18.988281 20.410156 18.957031 20.460938 Z M 21.621094 20.949219 C 21.492188 21.050781 21.40625 21.035156 21.371094 21.019531 C 21.097656 21.03125 20.792969 21.050781 20.75 21.0625 C 20.726562 21.078125 20.707031 21.085938 20.6875 21.085938 C 20.667969 21.085938 20.648438 21.078125 20.636719 21.070312 L 20.523438 21.0625 L 20.300781 21.050781 C 20.296875 21.050781 20.292969 21.050781 20.292969 21.050781 C 20.242188 21.042969 19.992188 20.996094 19.917969 20.957031 C 19.847656 20.917969 19.292969 20.550781 19.269531 20.535156 C 19.257812 20.527344 19.25 20.519531 19.25 20.503906 L 19.1875 20.308594 L 19.15625 20.1875 L 19.058594 19.84375 C 19.058594 19.835938 19.058594 19.832031 19.058594 19.828125 L 19.058594 19.53125 C 19.058594 19.515625 19.0625 19.503906 19.074219 19.492188 L 19.5625 19.054688 C 19.566406 19.050781 19.574219 19.046875 19.578125 19.046875 L 19.808594 18.972656 C 19.8125 18.96875 19.816406 18.96875 19.824219 18.96875 L 20.132812 18.96875 C 20.136719 18.96875 20.140625 18.96875 20.148438 18.972656 L 20.382812 19.046875 C 20.390625 19.046875 20.398438 19.050781 20.402344 19.054688 L 20.578125 19.207031 L 20.921875 19.207031 C 20.941406 19.207031 20.957031 19.214844 20.96875 19.230469 L 21.09375 19.4375 L 21.289062 19.640625 C 21.289062 19.644531 21.292969 19.644531 21.292969 19.648438 L 21.410156 19.832031 C 21.46875 19.890625 21.703125 20.152344 21.734375 20.234375 C 21.773438 20.332031 21.785156 20.820312 21.621094 20.949219 Z M 24.285156 19.285156 C 24.261719 19.363281 24.191406 19.425781 24.09375 19.453125 C 24.074219 19.457031 24.0625 19.460938 24.054688 19.46875 C 24.039062 19.476562 24.023438 19.476562 24.015625 19.476562 C 23.984375 19.476562 23.96875 19.460938 23.949219 19.433594 C 23.917969 19.390625 23.925781 19.34375 23.929688 19.300781 C 23.933594 19.277344 23.9375 19.257812 23.9375 19.234375 C 23.9375 19.128906 24.09375 19.078125 24.128906 19.066406 L 24.140625 19.0625 C 24.199219 19.039062 24.214844 19.039062 24.265625 19.074219 C 24.332031 19.121094 24.300781 19.222656 24.285156 19.285156 Z M 24.285156 19.285156 " fill-opacity="1" fill-rule="nonzero"/></g></svg>
