<svg xmlns="http://www.w3.org/2000/svg" xmlns:xlink="http://www.w3.org/1999/xlink" width="40" zoomAndPan="magnify" viewBox="0 0 30 30.000001" height="40" preserveAspectRatio="xMidYMid meet" version="1.0"><defs><clipPath id="4f2955ff5f"><path d="M 8.800781 3 L 21.140625 3 L 21.140625 26.128906 L 8.800781 26.128906 Z M 8.800781 3 " clip-rule="nonzero"/></clipPath></defs><g clip-path="url(#4f2955ff5f)"><path fill="#014d4e" d="M 12.371094 10.027344 C 12.429688 9.96875 12.542969 9.964844 12.46875 9.847656 C 12.449219 9.820312 12.488281 9.792969 12.519531 9.789062 C 12.609375 9.777344 12.710938 9.746094 12.792969 9.765625 C 12.898438 9.796875 12.90625 9.75 12.90625 9.679688 C 12.90625 9.5 12.976562 9.445312 13.144531 9.5 C 13.207031 9.519531 13.253906 9.511719 13.308594 9.480469 C 13.378906 9.449219 13.445312 9.421875 13.476562 9.53125 C 13.496094 9.597656 13.554688 9.574219 13.621094 9.578125 C 13.511719 9.507812 13.5625 9.460938 13.621094 9.414062 C 13.691406 9.355469 13.769531 9.324219 13.867188 9.339844 C 13.933594 9.355469 13.972656 9.40625 13.949219 9.460938 C 13.890625 9.582031 13.996094 9.648438 14.039062 9.730469 C 14.058594 9.769531 14.148438 9.78125 14.171875 9.722656 C 14.207031 9.648438 14.246094 9.695312 14.285156 9.703125 C 14.261719 9.644531 14.214844 9.609375 14.167969 9.589844 C 14.078125 9.5625 14 9.546875 14.097656 9.4375 C 14.105469 9.433594 14.105469 9.410156 14.097656 9.40625 C 13.96875 9.292969 14.085938 9.230469 14.148438 9.164062 C 14.269531 9.023438 14.449219 8.96875 14.585938 8.855469 C 14.703125 8.757812 14.855469 8.703125 14.957031 8.582031 C 14.988281 8.542969 15.035156 8.523438 15.085938 8.507812 C 15.144531 8.484375 15.183594 8.488281 15.199219 8.558594 C 15.207031 8.609375 15.238281 8.640625 15.285156 8.664062 C 15.367188 8.699219 15.359375 8.753906 15.304688 8.808594 C 15.253906 8.859375 15.210938 8.914062 15.191406 8.988281 C 15.3125 8.980469 15.414062 8.894531 15.535156 8.910156 C 15.554688 8.914062 15.585938 8.886719 15.570312 8.871094 C 15.511719 8.820312 15.523438 8.726562 15.453125 8.683594 C 15.277344 8.574219 15.265625 8.453125 15.425781 8.332031 C 15.5 8.277344 15.5625 8.226562 15.601562 8.140625 C 15.617188 8.09375 15.664062 8.058594 15.703125 8.03125 C 15.742188 8 15.789062 7.980469 15.839844 7.953125 C 15.792969 7.929688 15.746094 7.988281 15.71875 7.9375 C 15.691406 7.886719 15.726562 7.851562 15.75 7.824219 C 15.8125 7.753906 15.878906 7.6875 15.945312 7.625 C 15.984375 7.582031 16.015625 7.597656 16.046875 7.640625 C 16.097656 7.714844 16.09375 7.90625 16.027344 7.976562 C 15.960938 8.050781 15.929688 8.132812 15.9375 8.230469 C 15.9375 8.257812 15.921875 8.296875 15.957031 8.308594 C 15.996094 8.324219 16.019531 8.292969 16.039062 8.261719 C 16.132812 8.117188 16.222656 7.972656 16.292969 7.8125 C 16.316406 7.761719 16.332031 7.703125 16.371094 7.671875 C 16.515625 7.558594 16.457031 7.425781 16.417969 7.300781 C 16.382812 7.1875 16.386719 7.082031 16.472656 6.992188 C 16.5 6.964844 16.511719 6.929688 16.527344 6.894531 C 16.542969 6.84375 16.578125 6.828125 16.625 6.847656 C 16.683594 6.871094 16.746094 6.894531 16.789062 6.84375 C 16.839844 6.789062 16.804688 6.726562 16.769531 6.671875 C 16.765625 6.660156 16.765625 6.648438 16.765625 6.625 C 16.851562 6.613281 16.898438 6.691406 16.96875 6.710938 C 17.003906 6.636719 16.957031 6.609375 16.90625 6.574219 C 16.855469 6.539062 16.765625 6.507812 16.871094 6.429688 C 16.921875 6.394531 16.875 6.375 16.847656 6.359375 C 16.695312 6.253906 16.664062 6.171875 16.726562 6 C 16.734375 5.976562 16.738281 5.960938 16.730469 5.941406 C 16.707031 5.863281 16.714844 5.796875 16.800781 5.761719 C 16.839844 5.746094 16.828125 5.707031 16.84375 5.679688 C 16.859375 5.644531 16.886719 5.621094 16.914062 5.671875 C 16.921875 5.683594 16.925781 5.714844 16.941406 5.703125 C 16.972656 5.675781 17.007812 5.617188 17.035156 5.667969 C 17.078125 5.746094 17.171875 5.777344 17.1875 5.875 C 17.199219 5.925781 17.226562 5.976562 17.238281 6.03125 C 17.261719 6.105469 17.316406 6.132812 17.382812 6.125 C 17.457031 6.113281 17.460938 6.0625 17.453125 6 C 17.4375 5.90625 17.511719 5.824219 17.476562 5.726562 C 17.46875 5.710938 17.496094 5.691406 17.507812 5.699219 C 17.601562 5.75 17.640625 5.640625 17.71875 5.632812 C 17.789062 5.625 17.753906 5.566406 17.734375 5.523438 C 17.714844 5.488281 17.683594 5.441406 17.730469 5.414062 C 17.777344 5.386719 17.792969 5.441406 17.820312 5.464844 C 17.957031 5.589844 18.179688 5.515625 18.246094 5.339844 C 18.277344 5.25 18.285156 5.167969 18.285156 5.078125 C 18.285156 4.953125 18.347656 4.847656 18.417969 4.753906 C 18.554688 4.570312 18.464844 4.410156 18.410156 4.234375 C 18.359375 4.082031 18.289062 3.953125 18.167969 3.847656 C 18.128906 3.8125 18.171875 3.769531 18.222656 3.765625 C 18.304688 3.765625 18.382812 3.78125 18.425781 3.867188 C 18.457031 3.921875 18.511719 3.914062 18.507812 3.855469 C 18.503906 3.664062 18.644531 3.585938 18.78125 3.53125 C 18.878906 3.492188 18.875 3.414062 18.886719 3.351562 C 18.902344 3.285156 18.808594 3.296875 18.761719 3.246094 C 18.855469 3.195312 18.925781 3.121094 18.988281 3.035156 C 19.03125 2.96875 19.109375 3 19.148438 3.089844 C 19.195312 3.191406 19.21875 3.304688 19.226562 3.429688 C 19.160156 3.398438 19.054688 3.378906 19.039062 3.40625 C 19.003906 3.484375 19.117188 3.484375 19.144531 3.539062 C 19.148438 3.554688 19.167969 3.570312 19.179688 3.585938 C 19.226562 3.558594 19.179688 3.484375 19.238281 3.480469 C 19.296875 3.480469 19.3125 3.535156 19.328125 3.574219 C 19.347656 3.632812 19.375 3.664062 19.441406 3.679688 C 19.523438 3.699219 19.632812 3.921875 19.601562 4.019531 C 19.578125 4.105469 19.566406 4.171875 19.667969 4.226562 C 19.730469 4.257812 19.75 4.328125 19.75 4.433594 C 19.8125 4.308594 19.878906 4.34375 19.917969 4.40625 C 20.046875 4.609375 20.238281 4.78125 20.207031 5.0625 C 20.191406 5.167969 20.21875 5.300781 20.332031 5.375 C 20.34375 5.382812 20.351562 5.40625 20.351562 5.421875 C 20.328125 5.625 20.460938 5.789062 20.5 5.976562 C 20.558594 6.230469 20.589844 6.484375 20.585938 6.746094 C 20.585938 6.769531 20.574219 6.796875 20.582031 6.808594 C 20.722656 6.988281 20.625 7.191406 20.648438 7.382812 C 20.699219 7.777344 20.820312 8.140625 21.066406 8.445312 C 21.195312 8.609375 21.144531 8.769531 21.101562 8.925781 C 21.023438 9.226562 20.886719 9.507812 20.714844 9.769531 C 20.679688 9.824219 20.613281 9.851562 20.578125 9.816406 C 20.488281 9.730469 20.375 9.675781 20.3125 9.542969 C 20.246094 9.410156 20.261719 9.238281 20.136719 9.136719 C 20.121094 9.121094 20.117188 9.089844 20.113281 9.066406 C 20.09375 8.886719 20.09375 8.882812 19.898438 8.914062 C 19.773438 8.933594 19.695312 9.0625 19.710938 9.179688 C 19.730469 9.339844 19.789062 9.488281 19.832031 9.640625 C 19.851562 9.710938 19.828125 9.761719 19.800781 9.820312 C 19.738281 9.957031 19.765625 10.042969 19.910156 10.101562 C 20.019531 10.148438 20.066406 10.21875 20.035156 10.339844 C 20.011719 10.421875 20.023438 10.5 20.054688 10.585938 C 20.105469 10.730469 20.027344 10.859375 19.9375 10.96875 C 19.808594 11.128906 19.8125 11.15625 19.992188 11.261719 C 19.925781 11.339844 19.828125 11.324219 19.75 11.347656 C 19.667969 11.367188 19.617188 11.40625 19.578125 11.480469 C 19.492188 11.648438 19.433594 11.832031 19.355469 12.003906 C 19.328125 12.066406 19.324219 12.136719 19.359375 12.199219 C 19.390625 12.257812 19.394531 12.320312 19.414062 12.382812 C 19.5 12.671875 19.46875 12.949219 19.355469 13.222656 C 19.328125 13.296875 19.289062 13.371094 19.339844 13.453125 C 19.351562 13.472656 19.351562 13.496094 19.335938 13.511719 C 19.238281 13.613281 19.246094 13.738281 19.238281 13.859375 C 19.226562 13.964844 19.171875 14.050781 19.125 14.136719 C 18.992188 14.386719 18.941406 14.664062 18.824219 14.917969 C 18.628906 15.347656 18.457031 15.792969 18.355469 16.25 C 18.265625 16.644531 18.070312 16.984375 17.949219 17.359375 C 17.859375 17.644531 17.761719 17.933594 17.695312 18.222656 C 17.519531 19 17.242188 19.738281 16.898438 20.453125 C 16.792969 20.671875 16.738281 20.902344 16.703125 21.144531 C 16.625 21.636719 16.496094 22.117188 16.3125 22.578125 C 16.265625 22.691406 16.285156 22.804688 16.25 22.917969 C 16.191406 23.105469 16.152344 23.296875 16.019531 23.457031 C 15.972656 23.511719 15.96875 23.601562 15.925781 23.664062 C 15.765625 23.878906 15.808594 24.160156 15.679688 24.386719 C 15.609375 24.507812 15.59375 24.65625 15.480469 24.757812 C 15.429688 24.804688 15.496094 24.894531 15.425781 24.941406 C 15.316406 25.019531 15.246094 25.152344 15.082031 25.167969 C 15.011719 25.171875 14.949219 25.25 14.878906 25.289062 C 14.765625 25.351562 14.652344 25.382812 14.515625 25.355469 C 14.171875 25.292969 13.863281 25.410156 13.5625 25.550781 C 13.371094 25.644531 13.175781 25.730469 13.007812 25.878906 C 12.851562 26.015625 12.648438 26.046875 12.441406 26.046875 C 12.34375 26.050781 12.246094 26.058594 12.148438 26.0625 C 12.113281 26.066406 12.078125 26.0625 12.066406 26.027344 C 12.035156 25.933594 11.953125 25.90625 11.871094 25.878906 C 11.828125 25.863281 11.78125 25.851562 11.753906 25.8125 C 11.597656 25.59375 11.363281 25.5625 11.125 25.546875 C 11.054688 25.539062 10.988281 25.527344 10.921875 25.523438 C 10.8125 25.515625 10.742188 25.464844 10.675781 25.375 C 10.59375 25.261719 10.492188 25.175781 10.347656 25.136719 C 10.246094 25.109375 10.207031 25.027344 10.15625 24.929688 C 10.046875 24.730469 10.054688 24.492188 9.917969 24.300781 C 9.863281 24.234375 9.8125 24.175781 9.742188 24.128906 C 9.546875 23.992188 9.558594 23.78125 9.570312 23.585938 C 9.582031 23.386719 9.570312 23.195312 9.535156 23 C 9.515625 22.875 9.492188 22.738281 9.65625 22.667969 C 9.726562 22.636719 9.746094 22.445312 9.679688 22.398438 C 9.53125 22.289062 9.46875 22.148438 9.476562 21.960938 C 9.476562 21.863281 9.421875 21.785156 9.339844 21.71875 C 9.179688 21.585938 9.070312 21.429688 9.011719 21.214844 C 8.945312 20.980469 8.957031 20.738281 8.859375 20.515625 C 8.832031 20.449219 8.804688 20.363281 8.914062 20.328125 C 8.949219 20.316406 8.933594 20.292969 8.921875 20.269531 C 8.84375 20.125 8.90625 19.886719 8.972656 19.746094 C 9.046875 19.597656 9.121094 19.464844 9.238281 19.34375 C 9.285156 19.296875 9.261719 19.171875 9.25 19.085938 C 9.21875 18.84375 9.429688 18.714844 9.621094 18.738281 C 9.757812 18.753906 9.808594 18.691406 9.855469 18.582031 C 9.9375 18.386719 9.921875 18.164062 10.039062 17.980469 C 10.070312 17.925781 10.101562 17.875 10.164062 17.839844 C 10.253906 17.789062 10.289062 17.695312 10.3125 17.601562 C 10.335938 17.5 10.371094 17.410156 10.453125 17.339844 C 10.527344 17.28125 10.5625 17.203125 10.597656 17.113281 C 10.644531 16.972656 10.722656 16.847656 10.832031 16.742188 C 10.996094 16.585938 10.988281 16.46875 10.828125 16.320312 C 10.800781 16.292969 10.765625 16.253906 10.78125 16.222656 C 10.839844 16.113281 10.804688 15.980469 10.878906 15.875 C 10.964844 15.75 10.949219 15.636719 10.855469 15.515625 C 10.753906 15.386719 10.660156 15.25 10.566406 15.117188 C 10.480469 14.996094 10.542969 14.863281 10.5625 14.746094 C 10.589844 14.539062 10.523438 14.363281 10.410156 14.214844 C 10.269531 14.03125 10.183594 13.847656 10.210938 13.613281 C 10.21875 13.535156 10.1875 13.457031 10.171875 13.375 C 10.144531 13.253906 10.125 13.132812 10.167969 13.011719 C 10.210938 12.898438 10.195312 12.785156 10.121094 12.703125 C 9.933594 12.496094 10.019531 12.308594 10.152344 12.132812 C 10.359375 11.863281 10.496094 11.550781 10.691406 11.269531 C 10.726562 11.214844 10.757812 11.15625 10.804688 11.105469 C 10.867188 11.042969 10.890625 10.972656 10.859375 10.886719 C 10.839844 10.832031 10.835938 10.785156 10.894531 10.742188 C 10.953125 10.695312 10.917969 10.636719 10.882812 10.597656 C 10.753906 10.449219 10.875 10.320312 10.90625 10.183594 C 10.917969 10.128906 10.988281 10.132812 11.039062 10.136719 C 11.210938 10.148438 11.386719 10.136719 11.550781 10.191406 C 11.621094 10.214844 11.648438 10.15625 11.699219 10.140625 C 11.820312 10.097656 11.925781 10.035156 11.988281 9.914062 C 12.042969 9.8125 12.148438 9.78125 12.246094 9.738281 C 12.292969 9.714844 12.316406 9.734375 12.324219 9.78125 C 12.339844 9.855469 12.351562 9.929688 12.371094 10.027344 Z M 17.488281 5.488281 C 17.515625 5.480469 17.527344 5.464844 17.523438 5.433594 C 17.503906 5.347656 17.488281 5.265625 17.472656 5.179688 C 17.464844 5.128906 17.417969 5.085938 17.394531 5.117188 C 17.34375 5.183594 17.21875 5.195312 17.226562 5.3125 C 17.222656 5.4375 17.367188 5.53125 17.488281 5.488281 Z M 20.304688 11.027344 C 20.277344 11.023438 20.25 11.039062 20.242188 11.058594 C 20.191406 11.210938 20.050781 11.316406 20.023438 11.480469 C 20.011719 11.546875 19.921875 11.628906 20 11.667969 C 20.046875 11.695312 20.074219 11.578125 20.113281 11.527344 C 20.214844 11.386719 20.25 11.21875 20.320312 11.074219 C 20.328125 11.046875 20.328125 11.03125 20.304688 11.027344 Z M 20.304688 11.027344 " fill-opacity="1" fill-rule="nonzero"/></g></svg>