<svg xmlns="http://www.w3.org/2000/svg" xmlns:xlink="http://www.w3.org/1999/xlink" width="40" zoomAndPan="magnify" viewBox="0 0 30 30.000001" height="40" preserveAspectRatio="xMidYMid meet" version="1.0"><defs><clipPath id="507c0c19e9"><path d="M 3.386719 10 L 5 10 L 5 12 L 3.386719 12 Z M 3.386719 10 " clip-rule="nonzero"/></clipPath><clipPath id="207b8a4337"><path d="M 5 7.183594 L 8 7.183594 L 8 9 L 5 9 Z M 5 7.183594 " clip-rule="nonzero"/></clipPath><clipPath id="c36d1c9a77"><path d="M 12 7.183594 L 14 7.183594 L 14 9 L 12 9 Z M 12 7.183594 " clip-rule="nonzero"/></clipPath><clipPath id="daf982f7d5"><path d="M 14 7.183594 L 17 7.183594 L 17 9 L 14 9 Z M 14 7.183594 " clip-rule="nonzero"/></clipPath><clipPath id="b0c56f6da6"><path d="M 16 7.183594 L 18 7.183594 L 18 9 L 16 9 Z M 16 7.183594 " clip-rule="nonzero"/></clipPath><clipPath id="3c203ef321"><path d="M 19 21 L 20 21 L 20 21.703125 L 19 21.703125 Z M 19 21 " clip-rule="nonzero"/></clipPath><clipPath id="1cd2add3d8"><path d="M 25 18 L 26.613281 18 L 26.613281 20 L 25 20 Z M 25 18 " clip-rule="nonzero"/></clipPath><clipPath id="d0c05a0547"><path d="M 20 7.183594 L 22 7.183594 L 22 9 L 20 9 Z M 20 7.183594 " clip-rule="nonzero"/></clipPath></defs><g clip-path="url(#507c0c19e9)"><path fill="#014d4e" d="M 3.921875 10.90625 C 3.855469 10.878906 3.71875 10.859375 3.644531 10.875 C 3.566406 10.882812 3.519531 10.9375 3.472656 11.019531 C 3.414062 11.113281 3.410156 11.160156 3.449219 11.257812 C 3.488281 11.335938 3.515625 11.441406 3.585938 11.496094 C 3.683594 11.578125 3.890625 11.597656 4.039062 11.550781 C 4.058594 11.5625 4.085938 11.578125 4.105469 11.585938 C 4.113281 11.585938 4.160156 11.582031 4.175781 11.582031 C 4.335938 11.546875 4.300781 11.320312 4.273438 11.214844 C 4.238281 11.046875 4.082031 10.960938 3.921875 10.90625 Z M 3.921875 10.90625 " fill-opacity="1" fill-rule="nonzero"/></g><g clip-path="url(#207b8a4337)"><path fill="#014d4e" d="M 6.886719 7.652344 C 6.796875 7.558594 6.75 7.417969 6.644531 7.34375 C 6.554688 7.28125 6.46875 7.242188 6.378906 7.320312 C 6.324219 7.363281 6.316406 7.40625 6.253906 7.417969 C 6.199219 7.425781 6.15625 7.425781 6.109375 7.457031 C 6.03125 7.519531 5.953125 7.605469 5.917969 7.703125 C 5.894531 7.769531 5.90625 7.902344 5.941406 7.953125 C 5.941406 7.953125 5.9375 7.953125 5.9375 7.953125 C 5.949219 7.960938 5.964844 7.96875 5.972656 7.976562 C 5.980469 8.03125 5.984375 8.082031 6.015625 8.128906 C 6.054688 8.1875 6.125 8.222656 6.179688 8.277344 C 6.246094 8.351562 6.289062 8.4375 6.386719 8.4375 C 6.425781 8.4375 6.472656 8.421875 6.503906 8.421875 C 6.539062 8.421875 6.578125 8.449219 6.613281 8.453125 C 6.683594 8.472656 6.808594 8.519531 6.871094 8.480469 C 6.929688 8.445312 6.929688 8.367188 6.964844 8.3125 C 6.996094 8.261719 7.039062 8.214844 7.039062 8.144531 C 7.039062 8.085938 7.023438 8.039062 7.023438 7.976562 C 7.035156 7.851562 6.972656 7.746094 6.886719 7.652344 Z M 6.886719 7.652344 " fill-opacity="1" fill-rule="nonzero"/></g><g clip-path="url(#c36d1c9a77)"><path fill="#014d4e" d="M 12.992188 8.070312 C 13.0625 8.070312 13.085938 8.140625 13.15625 8.121094 C 13.21875 8.097656 13.289062 8.035156 13.339844 8 C 13.414062 7.945312 13.414062 7.898438 13.398438 7.808594 C 13.382812 7.730469 13.402344 7.652344 13.382812 7.578125 C 13.359375 7.5 13.289062 7.453125 13.21875 7.410156 C 13.136719 7.363281 13.046875 7.332031 12.960938 7.28125 C 12.878906 7.222656 12.851562 7.183594 12.746094 7.195312 C 12.667969 7.207031 12.574219 7.222656 12.5 7.257812 C 12.464844 7.273438 12.449219 7.300781 12.425781 7.328125 C 12.417969 7.328125 12.40625 7.328125 12.402344 7.328125 C 12.359375 7.347656 12.304688 7.359375 12.269531 7.390625 C 12.238281 7.417969 12.222656 7.453125 12.195312 7.484375 C 12.136719 7.546875 12.027344 7.601562 12.066406 7.699219 C 12.105469 7.808594 12.191406 7.878906 12.28125 7.941406 C 12.332031 7.976562 12.351562 8.03125 12.402344 8.070312 C 12.441406 8.113281 12.496094 8.109375 12.550781 8.125 C 12.601562 8.136719 12.640625 8.171875 12.6875 8.171875 C 12.738281 8.171875 12.792969 8.140625 12.835938 8.121094 C 12.886719 8.097656 12.9375 8.066406 12.992188 8.070312 Z M 12.992188 8.070312 " fill-opacity="1" fill-rule="nonzero"/></g><g clip-path="url(#daf982f7d5)"><path fill="#014d4e" d="M 15.878906 8.757812 C 15.96875 8.71875 15.988281 8.597656 16 8.507812 C 16.015625 8.386719 16.058594 8.472656 16.136719 8.398438 C 16.171875 8.359375 16.1875 8.304688 16.230469 8.261719 C 16.261719 8.230469 16.296875 8.199219 16.320312 8.15625 C 16.355469 8.078125 16.324219 8.023438 16.296875 7.953125 C 16.265625 7.878906 16.230469 7.832031 16.152344 7.816406 C 16.09375 7.804688 16 7.839844 15.953125 7.820312 C 15.890625 7.789062 15.890625 7.742188 15.808594 7.726562 C 15.738281 7.710938 15.683594 7.730469 15.609375 7.734375 C 15.484375 7.746094 15.328125 7.703125 15.25 7.820312 C 15.207031 7.882812 15.195312 7.898438 15.140625 7.945312 C 15.085938 7.984375 15.070312 8.054688 15.035156 8.09375 C 15.023438 8.144531 15.019531 8.203125 15.007812 8.253906 C 14.992188 8.253906 14.976562 8.261719 14.960938 8.261719 C 14.90625 8.253906 14.871094 8.246094 14.8125 8.253906 C 14.746094 8.269531 14.683594 8.308594 14.613281 8.324219 C 14.574219 8.335938 14.503906 8.328125 14.46875 8.355469 C 14.410156 8.390625 14.429688 8.449219 14.414062 8.496094 C 14.394531 8.558594 14.292969 8.605469 14.324219 8.675781 C 14.339844 8.707031 14.429688 8.78125 14.460938 8.785156 C 14.5 8.789062 14.535156 8.765625 14.578125 8.765625 C 14.640625 8.765625 14.6875 8.804688 14.75 8.816406 C 14.796875 8.828125 14.851562 8.816406 14.898438 8.828125 C 14.957031 8.839844 15.042969 8.886719 15.097656 8.871094 C 15.175781 8.847656 15.210938 8.738281 15.269531 8.707031 C 15.347656 8.671875 15.480469 8.734375 15.554688 8.757812 C 15.632812 8.800781 15.789062 8.796875 15.878906 8.757812 Z M 15.878906 8.757812 " fill-opacity="1" fill-rule="nonzero"/></g><g clip-path="url(#b0c56f6da6)"><path fill="#014d4e" d="M 16.613281 8.449219 C 16.65625 8.539062 16.671875 8.589844 16.78125 8.574219 C 16.859375 8.566406 16.921875 8.496094 16.992188 8.472656 C 17.070312 8.4375 17.152344 8.421875 17.195312 8.339844 C 17.210938 8.304688 17.214844 8.253906 17.222656 8.214844 C 17.226562 8.175781 17.253906 8.140625 17.253906 8.109375 C 17.265625 8.03125 17.167969 7.941406 17.105469 7.910156 C 17.054688 7.886719 17.007812 7.886719 16.953125 7.863281 C 16.902344 7.839844 16.875 7.792969 16.828125 7.777344 C 16.738281 7.746094 16.671875 7.832031 16.644531 7.894531 C 16.601562 7.914062 16.566406 7.929688 16.5625 7.9375 C 16.507812 7.953125 16.519531 8.054688 16.492188 8.105469 C 16.449219 8.183594 16.425781 8.171875 16.480469 8.25 C 16.523438 8.320312 16.578125 8.375 16.613281 8.449219 Z M 16.613281 8.449219 " fill-opacity="1" fill-rule="nonzero"/></g><path fill="#014d4e" d="M 14.269531 10.941406 C 14.324219 10.867188 14.300781 10.742188 14.285156 10.664062 C 14.261719 10.570312 14.257812 10.496094 14.214844 10.410156 C 14.15625 10.296875 14.039062 10.25 13.917969 10.257812 C 13.890625 10.253906 13.871094 10.242188 13.84375 10.234375 C 13.78125 10.25 13.742188 10.257812 13.707031 10.328125 C 13.675781 10.378906 13.648438 10.4375 13.644531 10.496094 C 13.628906 10.652344 13.722656 10.835938 13.863281 10.890625 C 13.941406 10.914062 14 10.9375 14.070312 10.976562 C 14.132812 11.015625 14.214844 11.003906 14.269531 10.941406 Z M 14.269531 10.941406 " fill-opacity="1" fill-rule="nonzero"/><path fill="#014d4e" d="M 13.679688 12.730469 C 13.589844 12.578125 13.511719 12.425781 13.371094 12.320312 C 13.339844 12.300781 13.25 12.242188 13.175781 12.222656 C 13.175781 12.222656 13.171875 12.214844 13.171875 12.214844 C 13.105469 12.199219 13.035156 12.164062 12.953125 12.195312 C 12.882812 12.222656 12.824219 12.296875 12.824219 12.375 C 12.824219 12.421875 12.863281 12.464844 12.867188 12.511719 C 12.871094 12.550781 12.855469 12.59375 12.867188 12.636719 C 12.886719 12.71875 12.957031 12.804688 13.007812 12.867188 C 13.082031 12.949219 13.140625 13.046875 13.238281 13.097656 C 13.292969 13.125 13.351562 13.144531 13.40625 13.164062 C 13.453125 13.183594 13.511719 13.21875 13.566406 13.222656 C 13.617188 13.230469 13.664062 13.214844 13.707031 13.175781 C 13.753906 13.132812 13.738281 13.09375 13.757812 13.039062 C 13.78125 12.980469 13.804688 12.972656 13.789062 12.910156 C 13.765625 12.847656 13.71875 12.789062 13.679688 12.730469 Z M 13.679688 12.730469 " fill-opacity="1" fill-rule="nonzero"/><path fill="#014d4e" d="M 14.550781 12.71875 C 14.507812 12.703125 14.410156 12.683594 14.375 12.714844 C 14.351562 12.730469 14.320312 12.792969 14.320312 12.835938 C 14.308594 12.847656 14.300781 12.855469 14.292969 12.867188 C 14.292969 12.871094 14.292969 12.914062 14.289062 12.929688 C 14.277344 12.957031 14.257812 12.964844 14.253906 12.980469 C 14.226562 13.039062 14.253906 13.066406 14.300781 13.109375 C 14.394531 13.183594 14.484375 13.238281 14.605469 13.207031 C 14.746094 13.164062 14.8125 13.117188 14.78125 12.957031 C 14.75 12.851562 14.640625 12.757812 14.550781 12.71875 Z M 14.550781 12.71875 " fill-opacity="1" fill-rule="nonzero"/><path fill="#014d4e" d="M 17.710938 13.3125 C 17.714844 13.234375 17.757812 13.1875 17.773438 13.113281 C 17.789062 13.039062 17.757812 12.960938 17.734375 12.894531 C 17.714844 12.824219 17.71875 12.757812 17.714844 12.683594 C 17.710938 12.59375 17.699219 12.519531 17.625 12.457031 C 17.542969 12.378906 17.441406 12.296875 17.347656 12.226562 C 17.246094 12.160156 17.210938 12.121094 17.152344 12.015625 C 17.117188 11.949219 17.078125 11.878906 17.007812 11.84375 C 16.824219 11.761719 16.671875 11.929688 16.492188 11.933594 C 16.417969 11.933594 16.351562 11.886719 16.273438 11.878906 C 16.214844 11.875 16.136719 11.902344 16.082031 11.921875 C 16.058594 11.933594 16.03125 11.949219 16.011719 11.964844 C 15.988281 11.964844 15.972656 11.960938 15.96875 11.960938 C 15.828125 11.976562 15.695312 11.90625 15.554688 11.949219 C 15.355469 12.007812 15.371094 12.175781 15.492188 12.3125 C 15.554688 12.382812 15.625 12.429688 15.714844 12.46875 C 15.769531 12.488281 15.894531 12.550781 15.945312 12.535156 C 16.015625 12.519531 16.09375 12.378906 16.121094 12.527344 C 16.128906 12.566406 16.113281 12.609375 16.128906 12.652344 C 16.152344 12.695312 16.195312 12.726562 16.230469 12.757812 C 16.277344 12.796875 16.339844 12.824219 16.394531 12.867188 C 16.433594 12.898438 16.449219 12.929688 16.503906 12.929688 C 16.585938 12.929688 16.664062 12.847656 16.761719 12.871094 C 16.816406 12.886719 16.84375 12.933594 16.847656 12.988281 C 16.847656 13.039062 16.8125 13.101562 16.8125 13.148438 C 16.824219 13.261719 17.027344 13.347656 17.101562 13.414062 C 17.152344 13.453125 17.179688 13.496094 17.207031 13.558594 C 17.230469 13.621094 17.273438 13.644531 17.34375 13.664062 C 17.410156 13.679688 17.480469 13.664062 17.550781 13.660156 C 17.648438 13.652344 17.667969 13.613281 17.683594 13.515625 C 17.714844 13.460938 17.703125 13.386719 17.710938 13.3125 Z M 17.710938 13.3125 " fill-opacity="1" fill-rule="nonzero"/><path fill="#014d4e" d="M 16.84375 13.941406 C 16.78125 13.921875 16.679688 13.957031 16.609375 13.996094 C 16.601562 13.996094 16.601562 13.996094 16.597656 13.996094 C 16.597656 13.996094 16.601562 13.996094 16.601562 14 C 16.601562 14 16.597656 14 16.597656 14 C 16.507812 14.011719 16.492188 14.179688 16.507812 14.234375 C 16.535156 14.335938 16.648438 14.441406 16.761719 14.433594 C 16.984375 14.425781 17.089844 14.015625 16.84375 13.941406 Z M 16.84375 13.941406 " fill-opacity="1" fill-rule="nonzero"/><path fill="#014d4e" d="M 18.828125 15.097656 C 18.800781 14.988281 18.75 14.902344 18.679688 14.8125 C 18.632812 14.746094 18.589844 14.699219 18.582031 14.621094 C 18.570312 14.523438 18.574219 14.433594 18.496094 14.363281 C 18.433594 14.304688 18.339844 14.292969 18.253906 14.289062 C 18.1875 14.285156 18.128906 14.257812 18.0625 14.25 C 18.007812 14.246094 17.960938 14.261719 17.914062 14.273438 C 17.886719 14.269531 17.863281 14.261719 17.851562 14.257812 C 17.761719 14.226562 17.683594 14.355469 17.667969 14.425781 C 17.640625 14.519531 17.695312 14.625 17.746094 14.699219 C 17.808594 14.78125 17.941406 14.820312 17.972656 14.90625 C 17.988281 14.953125 17.988281 15.019531 18.023438 15.058594 C 18.070312 15.113281 18.082031 15.097656 18.09375 15.164062 C 18.109375 15.273438 18.183594 15.4375 18.28125 15.5 C 18.34375 15.539062 18.421875 15.570312 18.484375 15.601562 C 18.554688 15.632812 18.617188 15.636719 18.675781 15.578125 C 18.722656 15.53125 18.753906 15.417969 18.78125 15.355469 C 18.832031 15.253906 18.859375 15.207031 18.828125 15.097656 Z M 18.828125 15.097656 " fill-opacity="1" fill-rule="nonzero"/><path fill="#014d4e" d="M 20.144531 15.835938 C 20.210938 15.808594 20.269531 15.804688 20.304688 15.726562 C 20.332031 15.664062 20.363281 15.546875 20.34375 15.480469 C 20.316406 15.390625 20.210938 15.34375 20.128906 15.335938 C 20.085938 15.332031 20.058594 15.355469 20.019531 15.359375 C 19.980469 15.363281 19.945312 15.347656 19.90625 15.347656 C 19.8125 15.355469 19.707031 15.375 19.636719 15.4375 C 19.59375 15.472656 19.546875 15.527344 19.484375 15.542969 C 19.457031 15.542969 19.425781 15.546875 19.398438 15.546875 C 19.402344 15.546875 19.410156 15.546875 19.402344 15.554688 C 19.363281 15.570312 19.324219 15.59375 19.289062 15.609375 C 19.234375 15.625 19.214844 15.609375 19.164062 15.609375 C 19.058594 15.605469 18.949219 15.695312 18.878906 15.773438 C 18.664062 16.007812 18.949219 16.308594 19.171875 16.398438 C 19.242188 16.421875 19.304688 16.441406 19.367188 16.472656 C 19.445312 16.511719 19.507812 16.503906 19.59375 16.496094 C 19.792969 16.476562 19.835938 16.308594 19.933594 16.15625 C 19.976562 16.089844 20.039062 16.046875 20.066406 15.96875 C 20.082031 15.90625 20.074219 15.867188 20.144531 15.835938 Z M 20.144531 15.835938 " fill-opacity="1" fill-rule="nonzero"/><path fill="#014d4e" d="M 21.511719 18.53125 C 21.445312 18.453125 21.351562 18.445312 21.277344 18.378906 C 21.140625 18.265625 21.082031 18.042969 20.890625 18.011719 C 20.746094 17.992188 20.710938 18.0625 20.648438 18.140625 C 20.625 18.15625 20.601562 18.171875 20.578125 18.1875 C 20.578125 18.222656 20.53125 18.269531 20.546875 18.328125 C 20.5625 18.371094 20.605469 18.410156 20.632812 18.445312 C 20.664062 18.492188 20.695312 18.523438 20.683594 18.578125 C 20.671875 18.628906 20.625 18.667969 20.617188 18.722656 C 20.585938 18.835938 20.640625 18.9375 20.683594 19.042969 C 20.726562 19.140625 20.824219 19.179688 20.871094 19.273438 C 20.90625 19.335938 20.960938 19.394531 21.03125 19.425781 C 21.105469 19.457031 21.144531 19.445312 21.21875 19.425781 C 21.273438 19.410156 21.328125 19.441406 21.371094 19.386719 C 21.417969 19.324219 21.40625 19.21875 21.429688 19.152344 C 21.472656 18.996094 21.679688 18.972656 21.640625 18.777344 C 21.613281 18.699219 21.558594 18.589844 21.511719 18.53125 Z M 21.511719 18.53125 " fill-opacity="1" fill-rule="nonzero"/><path fill="#014d4e" d="M 20.21875 19.242188 C 20.160156 19.234375 19.921875 19.367188 19.953125 19.441406 C 19.933594 19.515625 19.90625 19.582031 19.988281 19.664062 C 20.066406 19.75 20.179688 19.816406 20.296875 19.785156 C 20.585938 19.707031 20.488281 19.25 20.21875 19.242188 Z M 20.21875 19.242188 " fill-opacity="1" fill-rule="nonzero"/><path fill="#014d4e" d="M 18.113281 19.261719 C 18.03125 19.277344 17.867188 19.394531 17.898438 19.492188 C 17.898438 19.492188 17.898438 19.496094 17.894531 19.496094 C 17.882812 19.539062 17.910156 19.585938 17.933594 19.628906 C 17.960938 19.671875 17.976562 19.746094 18.007812 19.777344 C 18.09375 19.859375 18.25 19.84375 18.34375 19.800781 C 18.476562 19.746094 18.527344 19.601562 18.480469 19.460938 C 18.433594 19.324219 18.25 19.234375 18.113281 19.261719 Z M 18.113281 19.261719 " fill-opacity="1" fill-rule="nonzero"/><g clip-path="url(#3c203ef321)"><path fill="#014d4e" d="M 19.6875 21.3125 C 19.570312 21.21875 19.46875 21.246094 19.347656 21.253906 C 19.320312 21.25 19.289062 21.238281 19.261719 21.234375 C 19.230469 21.261719 19.15625 21.261719 19.117188 21.300781 C 19.078125 21.339844 19.058594 21.402344 19.042969 21.449219 C 19 21.613281 19.132812 21.675781 19.234375 21.757812 C 19.292969 21.804688 19.339844 21.835938 19.417969 21.820312 C 19.484375 21.8125 19.597656 21.789062 19.644531 21.757812 C 19.78125 21.667969 19.808594 21.414062 19.6875 21.3125 Z M 19.6875 21.3125 " fill-opacity="1" fill-rule="nonzero"/></g><g clip-path="url(#1cd2add3d8)"><path fill="#014d4e" d="M 26.535156 19.035156 C 26.511719 18.996094 26.480469 18.960938 26.453125 18.925781 C 26.429688 18.890625 26.433594 18.847656 26.417969 18.8125 C 26.402344 18.773438 26.359375 18.753906 26.351562 18.710938 C 26.339844 18.675781 26.359375 18.636719 26.367188 18.601562 C 26.375 18.507812 26.367188 18.386719 26.246094 18.429688 C 26.214844 18.4375 26.175781 18.46875 26.140625 18.460938 C 26.101562 18.449219 26.078125 18.390625 26.050781 18.371094 C 26.015625 18.34375 25.992188 18.332031 25.96875 18.296875 C 25.957031 18.277344 25.945312 18.261719 25.933594 18.238281 C 25.933594 18.222656 25.929688 18.207031 25.929688 18.191406 C 25.917969 18.179688 25.855469 18.164062 25.824219 18.15625 C 25.777344 18.132812 25.742188 18.097656 25.6875 18.085938 C 25.617188 18.070312 25.582031 18.097656 25.53125 18.132812 C 25.464844 18.179688 25.425781 18.160156 25.347656 18.164062 C 25.195312 18.171875 25.105469 18.308594 25.097656 18.445312 C 25.085938 18.527344 25.148438 18.539062 25.164062 18.613281 C 25.179688 18.679688 25.113281 18.722656 25.148438 18.800781 C 25.214844 18.945312 25.433594 18.890625 25.550781 18.945312 C 25.605469 18.972656 25.679688 19.03125 25.746094 19.011719 C 25.785156 19 25.800781 18.957031 25.839844 18.960938 C 25.882812 18.96875 25.894531 19.015625 25.914062 19.046875 C 26.03125 19.1875 26.28125 19.367188 26.460938 19.25 C 26.554688 19.1875 26.589844 19.144531 26.535156 19.035156 Z M 26.535156 19.035156 " fill-opacity="1" fill-rule="nonzero"/></g><path fill="#014d4e" d="M 25.46875 17.105469 C 25.503906 17.09375 25.558594 17.070312 25.589844 17.042969 C 25.632812 17.011719 25.617188 16.992188 25.636719 16.953125 C 25.6875 16.839844 25.945312 16.832031 25.941406 16.660156 C 25.941406 16.589844 25.871094 16.507812 25.824219 16.464844 C 25.773438 16.414062 25.71875 16.414062 25.648438 16.414062 C 25.59375 16.417969 25.511719 16.433594 25.46875 16.386719 C 25.425781 16.339844 25.472656 16.273438 25.433594 16.222656 C 25.40625 16.199219 25.378906 16.203125 25.347656 16.1875 C 25.320312 16.175781 25.304688 16.152344 25.28125 16.140625 C 25.238281 16.113281 25.167969 16.09375 25.117188 16.125 C 25.074219 16.152344 25.070312 16.207031 25.027344 16.230469 C 25 16.238281 24.976562 16.234375 24.949219 16.25 C 24.890625 16.28125 24.863281 16.359375 24.84375 16.421875 C 24.828125 16.417969 24.808594 16.414062 24.785156 16.414062 C 24.671875 16.402344 24.546875 16.367188 24.449219 16.292969 C 24.304688 16.183594 24.125 16.144531 23.945312 16.214844 C 23.796875 16.273438 23.714844 16.464844 23.796875 16.605469 C 23.84375 16.695312 23.898438 16.675781 23.980469 16.71875 C 24.03125 16.742188 24.089844 16.785156 24.136719 16.824219 C 24.195312 16.871094 24.25 16.921875 24.332031 16.925781 C 24.382812 16.925781 24.441406 16.902344 24.496094 16.894531 C 24.609375 16.890625 24.691406 16.8125 24.792969 16.875 C 24.828125 16.902344 24.855469 16.9375 24.886719 16.964844 C 24.9375 17 24.949219 16.96875 25.007812 16.957031 C 25.085938 16.941406 25.179688 17.027344 25.253906 17.0625 C 25.328125 17.101562 25.390625 17.125 25.46875 17.105469 Z M 25.46875 17.105469 " fill-opacity="1" fill-rule="nonzero"/><path fill="#014d4e" d="M 23.714844 14.324219 C 23.664062 14.488281 23.785156 14.601562 23.929688 14.644531 C 24.058594 14.683594 24.164062 14.753906 24.28125 14.785156 C 24.398438 14.820312 24.507812 14.691406 24.519531 14.585938 C 24.53125 14.472656 24.523438 14.367188 24.488281 14.269531 C 24.457031 14.183594 24.429688 14.105469 24.480469 14.027344 C 24.546875 13.933594 24.566406 13.878906 24.546875 13.769531 C 24.523438 13.660156 24.570312 13.644531 24.617188 13.554688 C 24.699219 13.40625 24.492188 13.1875 24.382812 13.101562 C 24.320312 13.054688 24.226562 13.0625 24.179688 13.003906 C 24.148438 12.964844 24.148438 12.929688 24.097656 12.898438 C 24.0625 12.871094 24.015625 12.863281 23.980469 12.839844 C 23.8125 12.765625 23.613281 12.742188 23.46875 12.867188 C 23.410156 12.917969 23.371094 12.964844 23.363281 13.050781 C 23.359375 13.125 23.402344 13.164062 23.429688 13.230469 C 23.480469 13.339844 23.449219 13.460938 23.554688 13.535156 C 23.632812 13.589844 23.710938 13.679688 23.738281 13.757812 C 23.769531 13.796875 23.800781 13.835938 23.832031 13.875 C 23.816406 13.882812 23.800781 13.894531 23.789062 13.917969 C 23.769531 13.953125 23.773438 14.050781 23.769531 14.09375 C 23.761719 14.136719 23.773438 14.183594 23.761719 14.226562 C 23.753906 14.257812 23.726562 14.289062 23.714844 14.324219 Z M 23.714844 14.324219 " fill-opacity="1" fill-rule="nonzero"/><path fill="#014d4e" d="M 22.472656 11.628906 C 22.410156 11.578125 22.335938 11.488281 22.242188 11.496094 C 22.191406 11.507812 22.152344 11.550781 22.101562 11.5625 C 22.042969 11.578125 21.976562 11.5625 21.917969 11.5625 C 21.808594 11.5625 21.675781 11.527344 21.566406 11.546875 C 21.472656 11.554688 21.433594 11.628906 21.375 11.6875 C 21.367188 11.695312 21.355469 11.707031 21.34375 11.710938 C 21.324219 11.722656 21.304688 11.738281 21.28125 11.75 C 21.261719 11.855469 21.160156 11.90625 21.234375 12.042969 C 21.296875 12.160156 21.433594 12.199219 21.511719 12.300781 C 21.597656 12.398438 21.535156 12.546875 21.617188 12.652344 C 21.671875 12.714844 21.738281 12.746094 21.796875 12.792969 C 21.847656 12.835938 21.84375 12.902344 21.90625 12.945312 C 22.015625 13.03125 22.214844 13.019531 22.320312 12.933594 C 22.410156 12.867188 22.414062 12.730469 22.378906 12.625 C 22.363281 12.582031 22.335938 12.550781 22.316406 12.511719 C 22.292969 12.46875 22.253906 12.429688 22.238281 12.394531 C 22.191406 12.304688 22.285156 12.214844 22.378906 12.222656 C 22.429688 12.222656 22.445312 12.246094 22.488281 12.207031 C 22.519531 12.179688 22.550781 12.121094 22.566406 12.085938 C 22.582031 12.054688 22.578125 12.011719 22.59375 11.980469 C 22.613281 11.9375 22.652344 11.929688 22.644531 11.871094 C 22.644531 11.78125 22.546875 11.6875 22.472656 11.628906 Z M 22.472656 11.628906 " fill-opacity="1" fill-rule="nonzero"/><path fill="#014d4e" d="M 20.722656 11.378906 C 20.761719 11.324219 20.789062 11.265625 20.800781 11.195312 C 20.816406 11.089844 20.769531 11.019531 20.695312 10.953125 C 20.636719 10.898438 20.589844 10.84375 20.515625 10.804688 C 20.453125 10.773438 20.390625 10.753906 20.328125 10.730469 C 20.285156 10.699219 20.25 10.664062 20.207031 10.632812 C 20.152344 10.570312 20.058594 10.542969 19.96875 10.523438 C 19.871094 10.496094 19.8125 10.476562 19.738281 10.570312 C 19.699219 10.625 19.6875 10.699219 19.675781 10.761719 C 19.667969 10.84375 19.703125 10.863281 19.722656 10.9375 C 19.75 11.03125 19.734375 11.121094 19.820312 11.199219 C 19.859375 11.242188 19.949219 11.277344 20.007812 11.304688 C 20.039062 11.320312 20.085938 11.324219 20.117188 11.34375 C 20.148438 11.367188 20.164062 11.398438 20.195312 11.414062 C 20.3125 11.492188 20.417969 11.425781 20.542969 11.433594 C 20.625 11.433594 20.667969 11.441406 20.722656 11.378906 Z M 20.160156 10.652344 L 20.28125 10.722656 C 20.234375 10.699219 20.195312 10.679688 20.160156 10.652344 Z M 20.160156 10.652344 " fill-opacity="1" fill-rule="nonzero"/><path fill="#014d4e" d="M 20.804688 10.785156 C 20.855469 10.882812 20.960938 10.9375 21.074219 10.898438 C 21.320312 10.820312 21.234375 10.484375 21 10.476562 C 20.960938 10.476562 20.847656 10.484375 20.804688 10.527344 C 20.792969 10.539062 20.785156 10.554688 20.789062 10.570312 C 20.757812 10.644531 20.761719 10.707031 20.804688 10.785156 Z M 20.804688 10.785156 " fill-opacity="1" fill-rule="nonzero"/><path fill="#014d4e" d="M 21.605469 9.925781 C 21.585938 9.957031 21.535156 10.085938 21.527344 10.148438 C 21.519531 10.160156 21.507812 10.171875 21.496094 10.179688 C 21.441406 10.308594 21.496094 10.449219 21.613281 10.542969 C 21.71875 10.632812 21.90625 10.726562 22.046875 10.695312 C 22.238281 10.652344 22.132812 10.359375 22.140625 10.226562 C 22.152344 10.039062 22.132812 9.75 21.886719 9.761719 C 21.757812 9.761719 21.671875 9.828125 21.605469 9.925781 Z M 21.605469 9.925781 " fill-opacity="1" fill-rule="nonzero"/><path fill="#014d4e" d="M 23.476562 10.425781 C 23.507812 10.46875 23.5625 10.5 23.613281 10.523438 C 23.722656 10.574219 23.851562 10.542969 23.921875 10.4375 C 24.066406 10.210938 23.800781 9.949219 23.570312 10.039062 C 23.484375 10.070312 23.445312 10.164062 23.449219 10.25 C 23.445312 10.257812 23.433594 10.277344 23.429688 10.285156 C 23.449219 10.324219 23.445312 10.386719 23.476562 10.425781 Z M 23.476562 10.425781 " fill-opacity="1" fill-rule="nonzero"/><g clip-path="url(#d0c05a0547)"><path fill="#014d4e" d="M 21.203125 8.9375 C 21.308594 8.933594 21.3125 8.847656 21.382812 8.800781 C 21.429688 8.769531 21.441406 8.769531 21.464844 8.71875 C 21.492188 8.671875 21.496094 8.664062 21.554688 8.664062 C 21.664062 8.671875 21.726562 8.695312 21.808594 8.597656 C 21.949219 8.421875 21.839844 8.183594 21.695312 8.050781 C 21.640625 8 21.550781 7.921875 21.472656 7.929688 C 21.40625 7.941406 21.339844 8.035156 21.296875 8.054688 C 21.277344 8.09375 21.261719 8.128906 21.25 8.171875 C 21.160156 8.136719 21.039062 8.136719 20.976562 8.199219 C 20.890625 8.292969 20.890625 8.527344 20.921875 8.644531 C 20.957031 8.773438 21.050781 8.941406 21.203125 8.9375 Z M 21.203125 8.9375 " fill-opacity="1" fill-rule="nonzero"/></g></svg>