<svg xmlns="http://www.w3.org/2000/svg" xmlns:xlink="http://www.w3.org/1999/xlink" width="40" zoomAndPan="magnify" viewBox="0 0 30 30.000001" height="40" preserveAspectRatio="xMidYMid meet" version="1.0"><defs><clipPath id="4a45d9865d"><path d="M 3.386719 5.328125 L 26.613281 5.328125 L 26.613281 23.472656 L 3.386719 23.472656 Z M 3.386719 5.328125 " clip-rule="nonzero"/></clipPath></defs><g clip-path="url(#4a45d9865d)"><path fill="#014d4e" d="M 25.964844 12.835938 C 25.964844 12.847656 25.972656 12.867188 25.972656 12.875 C 25.972656 12.867188 25.972656 12.855469 25.964844 12.835938 Z M 10.738281 23.425781 C 10.664062 23.511719 10.550781 23.566406 10.457031 23.519531 C 10.269531 23.425781 10.277344 23.277344 10.074219 23.347656 C 9.933594 23.394531 9.789062 23.390625 9.6875 23.484375 C 9.542969 23.617188 9.488281 23.6875 9.261719 23.671875 C 9.09375 23.660156 8.917969 23.652344 8.742188 23.640625 C 8.585938 23.636719 8.292969 23.699219 8.152344 23.625 C 7.890625 23.488281 7.992188 23.011719 7.664062 22.882812 C 7.53125 22.828125 7.394531 22.90625 7.253906 22.871094 C 7.148438 22.839844 7.046875 22.703125 6.917969 22.691406 C 6.632812 22.660156 6.675781 23.167969 6.410156 23.097656 C 6.355469 23.085938 6.320312 23 6.269531 22.980469 C 6.210938 22.957031 6.1875 22.988281 6.128906 22.980469 C 6.03125 22.96875 5.824219 22.980469 5.75 22.921875 C 5.679688 22.871094 5.675781 22.707031 5.65625 22.632812 C 5.609375 22.421875 5.597656 22.199219 5.527344 22.007812 C 5.445312 21.785156 5.328125 21.585938 5.253906 21.371094 C 5.207031 21.230469 5.195312 21.066406 5.121094 20.941406 C 4.972656 20.683594 4.730469 20.789062 4.484375 20.753906 C 4.40625 20.617188 4.308594 20.527344 4.425781 20.386719 C 4.496094 20.304688 4.523438 20.375 4.53125 20.269531 C 4.53125 20.226562 4.472656 20.121094 4.453125 20.089844 C 4.34375 19.847656 4.1875 19.632812 4.027344 19.441406 C 3.847656 19.21875 3.847656 19.039062 3.832031 18.769531 C 3.8125 18.523438 3.707031 18.308594 3.660156 18.0625 C 3.648438 18 3.597656 17.800781 3.632812 17.742188 C 3.695312 17.644531 3.835938 17.714844 3.894531 17.800781 C 4 17.75 4.132812 17.566406 4.164062 17.449219 C 4.191406 17.335938 4.128906 17.210938 4.203125 17.09375 C 4.226562 17.058594 4.257812 17.011719 4.292969 16.960938 C 4.226562 16.890625 4.179688 16.792969 4.105469 16.746094 C 3.953125 16.652344 3.890625 16.710938 3.832031 16.546875 C 3.796875 16.449219 3.808594 16.355469 3.785156 16.253906 C 3.753906 16.144531 3.695312 16.035156 3.660156 15.921875 C 3.433594 15.957031 3.394531 15.699219 3.386719 15.496094 C 3.386719 15.398438 3.410156 15.355469 3.484375 15.285156 C 3.507812 15.269531 3.5625 15.273438 3.597656 15.246094 C 3.625 15.222656 3.65625 15.15625 3.679688 15.125 C 3.75 15.019531 3.753906 14.988281 3.890625 14.960938 C 4.015625 14.9375 4.070312 14.964844 4.132812 14.882812 C 4.269531 14.707031 4.121094 14.375 4.058594 14.195312 C 4.011719 14.066406 3.945312 14.015625 3.957031 13.886719 C 3.96875 13.792969 4.039062 13.710938 4.035156 13.617188 C 4.023438 13.464844 3.894531 13.382812 3.894531 13.234375 C 3.894531 13.035156 4.039062 12.898438 4.035156 12.691406 C 4.027344 12.382812 4.1875 12.539062 4.316406 12.324219 C 4.382812 12.210938 4.320312 11.957031 4.285156 11.839844 C 4.234375 11.640625 4.257812 11.464844 4.394531 11.308594 C 4.582031 11.367188 4.734375 11.632812 4.910156 11.621094 C 5.148438 11.605469 5.066406 11.277344 5.238281 11.25 C 5.292969 11.3125 5.363281 11.5625 5.429688 11.59375 C 5.503906 11.632812 5.703125 11.535156 5.777344 11.515625 C 5.867188 11.496094 5.871094 11.5625 5.9375 11.472656 C 5.964844 11.425781 5.960938 11.332031 5.953125 11.277344 C 5.941406 11.109375 5.949219 11.113281 6.042969 10.976562 C 6.113281 10.871094 6.175781 10.71875 6.226562 10.601562 C 6.285156 10.460938 6.261719 10.433594 6.183594 10.308594 C 6.03125 10.09375 6.191406 9.90625 6.164062 9.65625 C 6.125 9.375 6.226562 9.179688 6.28125 8.914062 C 6.445312 8.914062 6.675781 8.757812 6.835938 8.707031 C 7.023438 8.640625 7.195312 8.707031 7.382812 8.625 C 7.558594 8.542969 7.679688 8.394531 7.867188 8.332031 C 8.03125 8.28125 8.1875 8.269531 8.351562 8.238281 C 8.484375 8.214844 8.550781 8.121094 8.683594 8.058594 C 8.703125 8.050781 8.785156 8.003906 8.871094 7.964844 C 8.933594 7.878906 9.011719 7.773438 9.027344 7.742188 C 9.082031 7.625 9.246094 7.484375 9.359375 7.433594 C 9.558594 7.339844 9.753906 7.574219 9.851562 7.742188 C 9.902344 7.835938 9.914062 7.910156 10.003906 7.976562 C 10.085938 8.027344 10.179688 8.035156 10.253906 8.117188 C 10.375 8.25 10.394531 8.519531 10.523438 8.636719 C 10.597656 8.707031 10.726562 8.683594 10.820312 8.6875 C 10.9375 8.695312 11.042969 8.722656 11.152344 8.78125 C 11.332031 8.640625 11.222656 8.484375 11.125 8.339844 C 11.089844 8.292969 11.046875 8.246094 11.023438 8.1875 C 10.964844 8.050781 10.972656 8.0625 11.070312 7.976562 C 11.128906 7.921875 11.222656 7.898438 11.269531 7.84375 C 11.328125 7.777344 11.332031 7.683594 11.375 7.601562 C 11.445312 7.46875 11.554688 7.316406 11.652344 7.207031 C 11.789062 7.046875 11.882812 7.117188 12.035156 7.1875 C 12.230469 7.28125 12.34375 7.328125 12.230469 7.054688 C 12.136719 6.820312 12.226562 6.832031 12.425781 6.886719 C 12.507812 6.910156 12.585938 6.925781 12.667969 6.925781 C 12.785156 6.925781 12.804688 6.867188 12.898438 6.84375 C 12.996094 6.816406 13.035156 6.867188 13.136719 6.886719 C 13.242188 6.902344 13.363281 6.890625 13.46875 6.890625 C 13.703125 6.878906 13.871094 6.832031 14.105469 6.886719 C 14.273438 6.925781 14.53125 7.042969 14.660156 6.898438 C 14.710938 6.839844 14.707031 6.75 14.792969 6.703125 C 14.878906 6.664062 15.007812 6.746094 15.078125 6.714844 C 15.167969 6.679688 15.171875 6.519531 15.230469 6.460938 C 15.300781 6.382812 15.421875 6.355469 15.523438 6.320312 C 15.644531 6.277344 15.71875 6.242188 15.808594 6.148438 C 15.894531 6.058594 15.890625 5.988281 16.054688 5.992188 C 16.152344 6 16.203125 6.074219 16.296875 6.082031 C 16.46875 6.097656 16.433594 5.976562 16.507812 5.863281 C 16.628906 5.695312 16.871094 5.777344 17.042969 5.839844 C 17.089844 5.859375 17.144531 5.898438 17.183594 5.910156 C 17.230469 5.921875 17.3125 5.894531 17.355469 5.910156 C 17.449219 5.957031 17.390625 6.074219 17.476562 6.125 C 17.550781 6.171875 17.726562 6.0625 17.808594 6.070312 C 17.9375 6.082031 17.953125 6.144531 18.082031 6.097656 C 18.210938 6.046875 18.3125 5.933594 18.457031 5.917969 C 18.585938 5.898438 18.65625 5.933594 18.785156 5.871094 C 18.90625 5.804688 18.992188 5.734375 19.132812 5.734375 C 19.199219 5.734375 19.269531 5.746094 19.335938 5.753906 C 19.355469 5.734375 19.371094 5.71875 19.390625 5.699219 C 19.414062 5.648438 19.53125 5.519531 19.589844 5.449219 C 19.695312 5.328125 19.710938 5.328125 19.796875 5.472656 C 19.863281 5.578125 19.921875 5.792969 20.019531 5.859375 C 20.066406 5.886719 20.160156 5.871094 20.21875 5.898438 C 20.277344 5.929688 20.304688 6.003906 20.351562 6.027344 C 20.421875 6.0625 20.433594 6.003906 20.5 6.015625 C 20.574219 6.035156 20.585938 6.074219 20.632812 6.132812 C 20.738281 6.25 20.832031 6.355469 20.917969 6.484375 C 20.960938 6.542969 21.007812 6.617188 21.058594 6.664062 C 21.117188 6.714844 21.214844 6.722656 21.261719 6.757812 C 21.375 6.851562 21.378906 7.03125 21.445312 7.160156 C 21.519531 7.304688 21.582031 7.300781 21.699219 7.382812 C 21.859375 7.484375 21.765625 7.660156 21.835938 7.832031 C 21.910156 8.027344 22.066406 8.070312 22.253906 8.152344 C 22.46875 8.246094 22.59375 8.355469 22.75 8.53125 C 22.875 8.671875 23.042969 8.789062 23.210938 8.886719 C 23.269531 8.921875 23.386719 9.039062 23.433594 9.050781 C 23.554688 9.085938 23.519531 8.957031 23.632812 8.96875 C 23.75 8.980469 23.875 9.253906 24.003906 9.289062 C 24.058594 9.300781 24.203125 9.292969 24.261719 9.289062 C 24.324219 9.28125 24.40625 9.226562 24.472656 9.253906 C 24.546875 9.28125 24.546875 9.421875 24.605469 9.46875 C 24.699219 9.546875 24.734375 9.480469 24.816406 9.476562 C 24.921875 9.46875 24.933594 9.445312 25.007812 9.574219 C 25.078125 9.691406 25.101562 9.84375 25.136719 9.964844 C 25.207031 10.214844 25.339844 10.507812 25.304688 10.765625 C 25.28125 10.917969 25.246094 10.945312 25.328125 11.058594 C 25.394531 11.144531 25.457031 11.191406 25.5 11.300781 C 25.535156 11.40625 25.546875 11.511719 25.5625 11.617188 C 25.714844 11.679688 25.855469 12.011719 25.882812 12.164062 C 25.90625 12.289062 25.917969 12.394531 25.953125 12.507812 C 25.960938 12.53125 25.964844 12.554688 25.972656 12.578125 C 26.117188 12.566406 26.296875 12.519531 26.414062 12.609375 C 26.515625 12.679688 26.613281 13.117188 26.59375 13.226562 C 26.578125 13.316406 26.46875 13.476562 26.414062 13.546875 C 26.355469 13.625 26.234375 13.6875 26.203125 13.78125 C 26.179688 13.851562 26.269531 13.972656 26.226562 14.03125 C 26.164062 14.121094 26.082031 14.027344 26.019531 14.074219 C 25.871094 14.179688 25.929688 14.609375 25.964844 14.753906 C 25.996094 14.890625 26.175781 15.09375 26.144531 15.210938 C 26.128906 15.28125 26.058594 15.296875 26.03125 15.378906 C 26.007812 15.457031 26.035156 15.542969 26.054688 15.617188 C 26.085938 15.804688 26.046875 15.988281 26.070312 16.160156 C 26.09375 16.34375 26.222656 16.484375 26.128906 16.652344 C 26.085938 16.726562 26.011719 16.757812 26.007812 16.855469 C 26 16.949219 26.058594 16.984375 26.085938 17.078125 C 26.128906 17.199219 26.085938 17.351562 26.066406 17.472656 C 26.03125 17.625 26.042969 17.585938 25.941406 17.636719 C 25.75 17.730469 25.558594 17.671875 25.363281 17.707031 C 25.246094 17.730469 25.1875 17.796875 25.089844 17.835938 C 24.949219 17.898438 25.003906 17.875 24.878906 17.8125 C 24.757812 17.753906 24.652344 17.703125 24.554688 17.8125 C 24.496094 17.875 24.464844 17.96875 24.40625 18.039062 C 24.34375 18.117188 24.285156 18.164062 24.238281 18.257812 C 24.152344 18.453125 24.179688 18.570312 24.179688 18.773438 C 24.179688 18.996094 24.15625 19.210938 24.140625 19.433594 C 24.117188 19.683594 24.058594 20.296875 23.679688 20.078125 C 23.539062 19.988281 23.515625 19.730469 23.378906 19.691406 C 23.195312 19.640625 23.175781 19.832031 23.171875 19.953125 C 23.160156 20.15625 23.152344 20.078125 23 20.175781 C 22.890625 20.25 22.832031 20.421875 22.734375 20.484375 C 22.523438 20.613281 22.34375 20.269531 22.089844 20.332031 C 21.988281 20.355469 21.898438 20.425781 21.789062 20.457031 C 21.660156 20.484375 21.59375 20.472656 21.46875 20.449219 C 21.351562 20.433594 21.226562 20.46875 21.109375 20.433594 C 21.011719 20.402344 20.917969 20.308594 20.832031 20.285156 C 20.707031 20.25 20.648438 20.28125 20.546875 20.328125 C 20.429688 20.375 20.386719 20.425781 20.292969 20.332031 C 20.21875 20.25 20.265625 20.105469 20.195312 20.035156 C 20.089844 19.929688 20.03125 20.070312 19.914062 20.066406 C 19.808594 20.058594 19.808594 19.984375 19.746094 19.925781 C 19.601562 19.789062 19.652344 19.859375 19.53125 19.941406 C 19.382812 20.042969 19.226562 19.964844 19.046875 19.972656 C 18.820312 19.984375 18.8125 20.234375 18.65625 20.367188 C 18.492188 20.515625 18.390625 20.304688 18.277344 20.214844 C 18.21875 20.34375 18.011719 20.339844 18.03125 20.222656 C 17.976562 20.175781 17.925781 20.128906 17.878906 20.082031 C 17.792969 20.203125 17.6875 20.316406 17.546875 20.332031 C 17.367188 20.355469 17.203125 20.269531 17.042969 20.378906 C 16.90625 20.472656 16.605469 20.707031 16.554688 20.871094 C 16.503906 21.027344 16.589844 21.203125 16.515625 21.367188 C 16.34375 21.390625 16.316406 21.394531 16.210938 21.535156 C 16.125 21.652344 16.066406 21.785156 15.984375 21.902344 C 15.890625 22.03125 15.71875 22.054688 15.617188 22.160156 C 15.5 22.269531 15.574219 22.316406 15.5625 22.433594 C 15.550781 22.519531 15.476562 22.714844 15.398438 22.765625 C 15.292969 22.839844 15.207031 22.789062 15.089844 22.789062 C 15.007812 22.796875 14.878906 22.886719 14.804688 22.871094 C 14.664062 22.835938 14.742188 22.695312 14.554688 22.738281 C 14.472656 22.753906 14.371094 22.816406 14.332031 22.886719 C 14.261719 23.015625 14.355469 23.109375 14.324219 23.226562 C 14.167969 23.25 14.023438 23.121094 13.859375 23.226562 C 13.730469 23.308594 13.660156 23.554688 13.484375 23.558594 C 13.339844 23.566406 13.28125 23.382812 13.207031 23.273438 C 13.113281 23.132812 13.058594 23.128906 12.902344 23.097656 C 12.78125 23.074219 12.65625 23.015625 12.527344 23.035156 C 12.488281 23.039062 12.441406 23.085938 12.390625 23.09375 C 12.332031 23.097656 12.265625 23.0625 12.207031 23.050781 C 12.109375 23.035156 11.945312 23.003906 11.847656 23.035156 C 11.707031 23.082031 11.671875 23.222656 11.601562 23.332031 C 11.457031 23.558594 11.234375 23.382812 11.058594 23.511719 C 10.929688 23.484375 10.832031 23.460938 10.738281 23.425781 Z M 10.738281 23.425781 " fill-opacity="1" fill-rule="nonzero"/></g></svg>