<svg xmlns="http://www.w3.org/2000/svg" width="40" zoomAndPan="magnify" viewBox="0 0 30 30.000001" height="40"
     preserveAspectRatio="xMidYMid meet" version="1.0"><defs><clipPath id="5923fe61b3"><path d="M 3.386719 3.238281 L 26.613281 3.238281 L 26.613281 25.738281 L 3.386719 25.738281 Z M 3.386719 3.238281 " clip-rule="nonzero"/></clipPath></defs><g clip-path="url(#5923fe61b3)"><path fill="#014d4e" d="M 26.582031 14.882812 C 26.582031 13.910156 26.582031 12.941406 26.582031 11.984375 C 26.582031 11.929688 26.582031 11.777344 26.582031 11.65625 C 26.4375 11.691406 26.285156 11.738281 26.164062 11.765625 C 25.9375 11.808594 25.710938 11.839844 25.488281 11.90625 C 25.363281 11.941406 25.386719 11.976562 25.277344 11.890625 C 25.207031 11.835938 25.144531 11.730469 25.140625 11.648438 C 25.128906 11.425781 25.332031 11.402344 25.261719 11.171875 C 25.207031 10.988281 25.21875 10.835938 25.191406 10.652344 C 25.089844 10.644531 24.972656 10.492188 24.851562 10.453125 C 24.710938 10.402344 24.558594 10.355469 24.402344 10.367188 C 24.261719 10.375 24.1875 10.425781 24.066406 10.351562 C 23.96875 10.289062 23.921875 10.160156 23.828125 10.101562 C 23.699219 10.03125 23.660156 10.117188 23.550781 10.101562 C 23.480469 10.09375 23.332031 10.023438 23.25 9.996094 C 23.007812 9.910156 23.019531 9.660156 22.800781 9.589844 C 22.679688 9.546875 22.671875 9.539062 22.585938 9.460938 C 22.433594 9.332031 22.46875 9.386719 22.292969 9.4375 C 22.257812 9.300781 22.367188 9.167969 22.324219 9.03125 C 22.316406 8.996094 22.300781 8.933594 22.289062 8.859375 L 13.679688 3.238281 L 11.226562 3.253906 L 12.785156 15.824219 L 13.167969 16.121094 L 12.9375 17.414062 L 7.6875 17.429688 C 7.652344 17.324219 7.617188 17.222656 7.570312 17.121094 C 7.5625 17.121094 7.5 17.136719 7.496094 17.140625 C 7.382812 17.230469 7.441406 17.417969 7.324219 17.515625 C 7.246094 17.574219 7.152344 17.550781 7.066406 17.566406 C 6.964844 17.578125 6.859375 17.621094 6.757812 17.644531 C 6.652344 17.675781 6.585938 17.691406 6.484375 17.671875 C 6.394531 17.652344 6.300781 17.570312 6.203125 17.574219 C 6.105469 17.574219 6.042969 17.652344 5.933594 17.652344 C 5.839844 17.652344 5.753906 17.59375 5.652344 17.613281 C 5.492188 17.644531 5.53125 17.707031 5.472656 17.84375 C 5.429688 17.929688 5.363281 18 5.328125 18.078125 C 5.214844 17.917969 5.09375 17.75 4.945312 17.609375 C 4.878906 17.550781 4.792969 17.5 4.730469 17.4375 C 4.679688 17.386719 4.609375 17.273438 4.535156 17.261719 C 4.394531 17.230469 4.476562 17.328125 4.414062 17.378906 C 4.34375 17.445312 4.292969 17.433594 4.214844 17.480469 C 4.097656 17.550781 4.136719 17.601562 4.101562 17.75 C 4.082031 17.84375 4.066406 17.945312 4.042969 18.027344 C 4.027344 18.085938 3.988281 18.070312 3.988281 18.140625 C 3.988281 18.214844 4.046875 18.257812 4.066406 18.320312 C 4.09375 18.40625 4.078125 18.480469 4.066406 18.550781 C 3.945312 18.601562 3.789062 18.664062 3.734375 18.691406 C 3.609375 18.808594 3.402344 18.746094 3.445312 18.964844 C 3.472656 19.085938 3.585938 19.300781 3.671875 19.382812 C 3.792969 19.492188 3.785156 19.441406 3.789062 19.609375 C 3.792969 19.71875 3.785156 19.804688 3.824219 19.90625 C 3.871094 20.019531 3.9375 20.019531 3.902344 20.15625 C 3.871094 20.253906 3.734375 20.328125 3.738281 20.425781 C 3.746094 20.554688 3.945312 20.589844 4.007812 20.660156 C 4.050781 20.710938 4.097656 20.867188 4.128906 20.933594 C 4.355469 20.855469 4.40625 20.710938 4.5 20.996094 C 4.558594 21.167969 4.722656 21.347656 4.742188 21.511719 C 4.769531 21.71875 4.632812 21.933594 4.664062 22.144531 C 4.671875 22.210938 4.722656 22.238281 4.730469 22.324219 C 4.734375 22.375 4.671875 22.523438 4.664062 22.589844 C 4.632812 22.734375 4.609375 22.71875 4.71875 22.804688 C 4.800781 22.867188 4.855469 22.871094 4.929688 22.964844 C 5.183594 22.988281 5.292969 22.367188 5.476562 22.703125 C 5.53125 22.808594 5.542969 22.878906 5.652344 22.960938 C 5.8125 23.078125 5.792969 23.046875 5.910156 22.878906 C 6.121094 22.574219 6.363281 22.582031 6.6875 22.6875 C 6.777344 22.71875 6.960938 22.804688 7.054688 22.785156 C 7.1875 22.753906 7.1875 22.613281 7.277344 22.558594 C 7.363281 22.507812 7.585938 22.53125 7.660156 22.457031 C 7.734375 22.390625 7.722656 22.261719 7.722656 22.132812 C 7.804688 22.148438 7.878906 22.160156 7.910156 22.164062 C 7.988281 22.1875 8.152344 22.230469 8.203125 22.308594 C 8.277344 22.425781 8.167969 22.488281 8.167969 22.597656 C 8.171875 22.800781 8.375 22.992188 8.414062 23.179688 C 8.445312 23.320312 8.410156 23.390625 8.496094 23.492188 C 8.566406 23.574219 8.691406 23.628906 8.773438 23.699219 C 9.015625 23.90625 8.757812 24.011719 8.644531 24.207031 C 8.605469 24.285156 8.574219 24.492188 8.660156 24.535156 C 8.808594 24.617188 8.875 24.378906 8.976562 24.371094 C 9.191406 24.351562 9.066406 24.984375 9.152344 25.128906 C 9.210938 25.226562 9.332031 25.3125 9.417969 25.390625 C 9.46875 25.429688 9.507812 25.425781 9.554688 25.492188 C 9.585938 25.535156 9.582031 25.648438 9.636719 25.667969 C 9.773438 25.71875 9.933594 25.421875 10.023438 25.355469 C 10.179688 25.242188 10.261719 25.328125 10.429688 25.410156 C 10.535156 25.460938 10.851562 25.75 10.972656 25.703125 C 11.101562 25.65625 10.972656 25.421875 11.125 25.34375 C 11.195312 25.308594 11.332031 25.40625 11.394531 25.375 C 11.5 25.320312 11.433594 25.214844 11.441406 25.132812 C 11.480469 24.820312 11.59375 25.066406 11.769531 25.070312 C 11.808594 24.992188 11.792969 24.929688 11.878906 24.890625 C 11.992188 24.839844 12.074219 24.929688 12.089844 25.015625 C 12.109375 25.132812 12.027344 25.164062 12.019531 25.242188 C 12.015625 25.277344 12.050781 25.5 12.070312 25.535156 C 12.222656 25.792969 12.398438 25.429688 12.527344 25.359375 C 12.664062 25.285156 12.878906 25.238281 13.035156 25.242188 C 13.113281 25.046875 13.089844 24.785156 13.070312 24.578125 C 13.0625 24.523438 13.019531 24.328125 13.046875 24.277344 C 13.085938 24.21875 13.167969 24.257812 13.226562 24.222656 C 13.414062 24.109375 13.28125 23.867188 13.316406 23.671875 C 13.335938 23.5625 13.355469 23.539062 13.351562 23.4375 C 13.347656 23.34375 13.3125 23.265625 13.316406 23.171875 C 13.226562 23.207031 13.125 23.167969 13.0625 23.101562 C 13.121094 23.011719 13.226562 23.113281 13.316406 23.046875 C 13.367188 23.011719 13.355469 22.941406 13.398438 22.902344 C 13.453125 22.851562 13.546875 22.820312 13.621094 22.804688 C 13.742188 22.773438 13.933594 22.839844 14.046875 22.800781 C 14.199219 22.75 14.179688 22.578125 14.253906 22.457031 C 14.332031 22.339844 14.457031 22.300781 14.492188 22.167969 C 14.53125 22.027344 14.382812 21.839844 14.425781 21.71875 C 14.484375 21.554688 14.625 21.714844 14.734375 21.644531 C 14.945312 21.511719 14.679688 21.246094 14.648438 21.089844 C 14.613281 20.90625 14.832031 20.871094 14.941406 20.726562 C 14.976562 20.679688 15.0625 20.59375 15.097656 20.527344 C 15.167969 20.574219 15.238281 20.625 15.308594 20.675781 C 15.308594 20.675781 15.316406 20.675781 15.320312 20.683594 C 15.316406 20.683594 15.316406 20.679688 15.308594 20.675781 C 15.308594 20.675781 15.304688 20.675781 15.304688 20.679688 C 15.433594 20.765625 15.613281 20.902344 15.761719 20.953125 C 15.882812 20.992188 15.855469 20.972656 15.9375 20.910156 C 15.953125 20.902344 15.945312 20.847656 15.964844 20.824219 C 16.003906 20.796875 16.078125 20.824219 16.101562 20.804688 C 16.21875 20.695312 16.097656 20.46875 16.164062 20.316406 C 16.269531 20.0625 16.492188 20.375 16.632812 20.207031 C 16.652344 20.175781 16.679688 19.917969 16.6875 19.875 C 16.703125 19.78125 16.703125 19.707031 16.738281 19.59375 C 16.90625 19.585938 17.136719 19.421875 17.285156 19.25 C 17.339844 19.28125 17.402344 19.316406 17.460938 19.34375 C 17.570312 19.335938 17.730469 19.511719 17.855469 19.378906 C 17.972656 19.25 17.863281 18.949219 18.035156 18.863281 C 18.105469 18.828125 18.234375 18.871094 18.308594 18.84375 C 18.414062 18.800781 18.445312 18.722656 18.519531 18.640625 C 18.667969 18.484375 18.855469 18.542969 19.035156 18.476562 C 19.105469 18.453125 19.253906 18.394531 19.3125 18.347656 C 19.40625 18.273438 19.441406 18.148438 19.515625 18.058594 C 19.628906 17.9375 19.863281 17.886719 20.03125 17.96875 C 20.152344 18.023438 20.148438 18.136719 20.3125 18.078125 C 20.453125 18.027344 20.414062 17.992188 20.566406 18.015625 C 20.6875 18.035156 20.804688 18.101562 20.914062 18.144531 C 20.953125 18.164062 21.046875 18.226562 21.089844 18.210938 C 21.15625 18.191406 21.136719 18.109375 21.1875 18.085938 C 21.363281 17.984375 21.71875 18.074219 21.933594 18.066406 C 22.1875 18.050781 22.332031 17.847656 22.4375 17.625 C 22.554688 17.613281 22.671875 17.605469 22.792969 17.59375 C 23.003906 17.421875 23.433594 17.523438 23.695312 17.535156 C 23.96875 17.542969 24.230469 17.488281 24.503906 17.464844 C 24.523438 17.46875 24.542969 17.480469 24.558594 17.484375 C 24.6875 17.519531 24.8125 17.578125 24.921875 17.601562 C 24.917969 17.417969 24.851562 17.359375 25.074219 17.382812 C 25.207031 17.398438 25.351562 17.429688 25.472656 17.46875 C 25.664062 17.535156 25.671875 17.578125 25.699219 17.371094 C 25.726562 17.203125 25.71875 17.222656 25.867188 17.152344 C 26 17.089844 25.976562 17.101562 26.0625 16.972656 C 26.128906 16.875 26.210938 16.894531 26.246094 16.773438 C 26.269531 16.691406 26.253906 16.585938 26.285156 16.488281 C 26.320312 16.378906 26.332031 16.265625 26.363281 16.15625 C 26.414062 15.945312 26.578125 15.914062 26.578125 15.675781 C 26.597656 15.414062 26.582031 15.152344 26.582031 14.882812 Z M 26.582031 14.882812 " fill-opacity="1" fill-rule="nonzero"/></g></svg>
