<svg xmlns="http://www.w3.org/2000/svg" width="40" zoomAndPan="magnify" viewBox="0 0 30 30.000001" height="40"
     preserveAspectRatio="xMidYMid meet" version="1.0"><defs><clipPath id="6cf56c3ad8"><path d="M 9.773438 2.902344 L 19.933594 2.902344 L 19.933594 26.128906 L 9.773438 26.128906 Z M 9.773438 2.902344 " clip-rule="nonzero"/></clipPath></defs><g clip-path="url(#6cf56c3ad8)"><path fill="#014d4e" d="M 20.183594 11.417969 C 20.082031 11.375 19.867188 11.480469 19.785156 11.539062 C 19.734375 11.574219 19.671875 11.625 19.625 11.664062 C 19.582031 11.703125 19.523438 11.773438 19.460938 11.777344 C 19.367188 11.785156 19.320312 11.691406 19.226562 11.714844 C 19.183594 11.726562 19.128906 11.785156 19.085938 11.761719 C 19.054688 11.746094 19.042969 11.65625 19.039062 11.628906 C 19.035156 11.585938 19.054688 11.515625 19.027344 11.484375 C 18.976562 11.429688 18.945312 11.492188 18.890625 11.484375 C 18.796875 11.472656 18.789062 11.359375 18.796875 11.285156 C 18.800781 11.226562 18.835938 11.167969 18.828125 11.113281 C 18.820312 11.039062 18.820312 11.0625 18.757812 11.050781 C 18.71875 11.042969 18.652344 11.035156 18.613281 11.042969 C 18.566406 11.050781 18.5625 11.082031 18.519531 11.070312 C 18.429688 11.046875 18.40625 10.929688 18.300781 10.9375 C 18.230469 10.945312 18.164062 10.984375 18.09375 10.980469 C 18.089844 10.984375 18.089844 10.988281 18.09375 10.992188 C 18.035156 10.980469 17.972656 10.96875 17.914062 10.957031 C 17.914062 10.953125 17.917969 10.949219 17.917969 10.945312 C 17.945312 10.84375 17.925781 10.777344 17.988281 10.6875 C 18.03125 10.625 18.101562 10.554688 18.105469 10.476562 C 18.109375 10.402344 18.027344 10.332031 18.050781 10.269531 C 18.058594 10.25 18.113281 10.203125 18.128906 10.179688 C 18.148438 10.148438 18.160156 10.109375 18.179688 10.074219 C 18.214844 10.015625 18.28125 10.011719 18.300781 9.972656 C 18.34375 9.890625 18.199219 9.765625 18.144531 9.730469 C 18.09375 9.699219 18.03125 9.691406 17.972656 9.710938 C 17.890625 9.742188 17.925781 9.761719 17.835938 9.722656 C 17.785156 9.703125 17.730469 9.691406 17.679688 9.667969 C 17.589844 9.632812 17.613281 9.65625 17.613281 9.574219 C 17.613281 9.492188 17.609375 9.480469 17.574219 9.410156 C 17.554688 9.371094 17.53125 9.320312 17.519531 9.277344 C 17.496094 9.175781 17.523438 9.066406 17.46875 8.976562 C 17.445312 8.941406 17.398438 8.878906 17.367188 8.851562 C 17.316406 8.816406 17.28125 8.851562 17.296875 8.777344 C 17.324219 8.667969 17.578125 8.511719 17.523438 8.386719 C 17.410156 8.40625 17.21875 8.511719 17.117188 8.492188 C 17.097656 8.488281 17.070312 8.453125 17.042969 8.445312 C 17.015625 8.4375 16.980469 8.433594 16.953125 8.4375 C 16.898438 8.445312 16.847656 8.484375 16.789062 8.488281 C 16.679688 8.496094 16.578125 8.453125 16.457031 8.484375 C 16.273438 8.53125 16.234375 8.671875 16.109375 8.785156 C 16.070312 8.757812 16.019531 8.753906 15.980469 8.726562 C 16.023438 8.636719 16.140625 8.578125 16.167969 8.484375 C 16.175781 8.457031 16.148438 8.453125 16.152344 8.425781 C 16.15625 8.402344 16.183594 8.375 16.175781 8.347656 C 16.160156 8.273438 16.117188 8.320312 16.066406 8.292969 C 16.070312 8.253906 16.09375 8.195312 16.089844 8.160156 C 16.078125 8.09375 16.046875 8.101562 16.007812 8.09375 C 15.953125 8.082031 15.941406 8.136719 15.925781 8.058594 C 15.917969 8.027344 15.941406 7.960938 15.941406 7.925781 C 15.945312 7.828125 15.921875 7.757812 16.003906 7.683594 C 16.066406 7.625 16.183594 7.625 16.238281 7.5625 C 16.210938 7.527344 16.105469 7.40625 16.109375 7.367188 C 16.109375 7.339844 16.148438 7.335938 16.164062 7.308594 C 16.210938 7.230469 16.226562 7.148438 16.246094 7.058594 C 16.261719 7.085938 16.28125 7.109375 16.292969 7.113281 C 16.34375 7.132812 16.367188 7.085938 16.394531 7.066406 C 16.546875 6.964844 16.582031 6.804688 16.589844 6.628906 C 16.699219 6.601562 16.796875 6.765625 16.882812 6.628906 C 16.941406 6.535156 16.964844 6.410156 17.015625 6.3125 C 17.089844 6.308594 17.257812 6.339844 17.222656 6.207031 C 17.203125 6.121094 17.003906 6.046875 17.109375 5.929688 C 17.171875 5.859375 17.296875 5.96875 17.25 5.832031 C 17.230469 5.777344 17.183594 5.773438 17.203125 5.710938 C 17.214844 5.667969 17.253906 5.648438 17.265625 5.601562 C 17.285156 5.523438 17.265625 5.4375 17.28125 5.359375 C 17.296875 5.269531 17.304688 5.191406 17.296875 5.097656 C 17.292969 5.007812 17.292969 4.902344 17.273438 4.8125 C 17.253906 4.742188 17.207031 4.691406 17.195312 4.617188 C 17.183594 4.507812 17.207031 4.375 17.207031 4.265625 C 17.207031 4.140625 17.230469 4.078125 17.105469 4.058594 C 17.042969 4.046875 16.988281 4.054688 16.917969 4.042969 C 16.78125 4.015625 16.855469 4.082031 16.792969 4.175781 C 16.71875 4.066406 16.714844 3.941406 16.652344 3.835938 C 16.578125 3.714844 16.632812 3.597656 16.582031 3.472656 C 16.558594 3.410156 16.515625 3.421875 16.480469 3.386719 C 16.445312 3.355469 16.425781 3.324219 16.398438 3.28125 C 16.378906 3.25 16.355469 3.203125 16.324219 3.179688 C 16.265625 3.125 16.257812 3.15625 16.195312 3.148438 C 16.085938 3.132812 16.121094 3.03125 16.0625 2.941406 C 15.972656 3.019531 15.902344 2.910156 15.832031 3.039062 C 15.78125 3.125 15.808594 3.21875 15.738281 3.292969 C 15.683594 3.347656 15.605469 3.394531 15.632812 3.496094 C 15.640625 3.53125 15.667969 3.558594 15.675781 3.605469 C 15.679688 3.621094 15.691406 3.691406 15.683594 3.707031 C 15.652344 3.785156 15.550781 3.730469 15.480469 3.757812 C 15.414062 3.78125 15.359375 3.871094 15.3125 3.921875 C 15.257812 3.976562 15.167969 4.046875 15.175781 4.128906 C 15.179688 4.164062 15.210938 4.1875 15.210938 4.21875 C 15.210938 4.25 15.183594 4.261719 15.183594 4.296875 C 15.1875 4.375 15.25 4.40625 15.289062 4.460938 C 15.320312 4.507812 15.363281 4.585938 15.375 4.617188 C 15.394531 4.652344 15.417969 4.6875 15.441406 4.71875 C 15.371094 4.710938 15.300781 4.703125 15.226562 4.699219 C 15.097656 4.726562 15.148438 4.425781 14.988281 4.433594 C 14.960938 4.433594 14.941406 4.472656 14.910156 4.476562 C 14.875 4.480469 14.859375 4.441406 14.820312 4.449219 C 14.785156 4.457031 14.777344 4.5 14.746094 4.507812 C 14.714844 4.519531 14.667969 4.507812 14.636719 4.511719 C 14.4375 4.523438 14.261719 4.609375 14.125 4.746094 C 14.058594 4.8125 14.015625 4.898438 13.929688 4.949219 C 13.851562 4.996094 13.816406 5.015625 13.757812 5.082031 C 13.699219 5.144531 13.621094 5.175781 13.546875 5.238281 C 13.453125 5.320312 13.359375 5.289062 13.25 5.339844 C 13.136719 5.398438 13.171875 5.535156 13.15625 5.640625 C 13.140625 5.742188 13.128906 5.820312 13.160156 5.914062 C 13.199219 6.027344 13.214844 6.089844 13.128906 6.171875 C 13.039062 6.265625 13.089844 6.320312 13.066406 6.4375 C 13.042969 6.5625 12.894531 6.621094 12.8125 6.703125 C 12.773438 6.746094 12.753906 6.800781 12.710938 6.835938 C 12.671875 6.871094 12.632812 6.855469 12.601562 6.910156 C 12.574219 6.953125 12.550781 7.0625 12.566406 7.113281 C 12.59375 7.1875 12.636719 7.148438 12.6875 7.195312 C 12.824219 7.328125 12.554688 7.640625 12.503906 7.730469 C 12.457031 7.808594 12.425781 7.894531 12.375 7.976562 C 12.316406 8.070312 12.230469 8.175781 12.210938 8.289062 C 12.191406 8.398438 12.1875 8.496094 12.140625 8.601562 C 12.117188 8.652344 12.089844 8.695312 12.066406 8.746094 C 12.042969 8.738281 12.019531 8.726562 11.984375 8.707031 C 11.921875 8.671875 11.882812 8.683594 11.8125 8.679688 C 11.730469 8.671875 11.722656 8.636719 11.65625 8.601562 C 11.574219 8.558594 11.546875 8.601562 11.464844 8.625 C 11.34375 8.664062 11.214844 8.4375 11.117188 8.503906 C 11.042969 8.558594 11.132812 8.839844 11.148438 8.917969 C 11.171875 9.011719 11.164062 9.089844 11.160156 9.183594 C 11.15625 9.269531 11.183594 9.347656 11.175781 9.425781 C 11.171875 9.515625 11.140625 9.761719 11.050781 9.792969 C 10.996094 9.8125 10.957031 9.753906 10.910156 9.808594 C 10.882812 9.839844 10.898438 9.917969 10.878906 9.953125 C 10.839844 10.054688 10.785156 10.109375 10.800781 10.234375 C 10.820312 10.363281 10.886719 10.484375 10.914062 10.613281 C 10.933594 10.722656 10.945312 10.84375 10.808594 10.8125 C 10.796875 10.875 10.75 10.871094 10.710938 10.914062 C 10.671875 10.960938 10.695312 11.050781 10.660156 11.082031 C 10.570312 11.15625 10.449219 10.898438 10.367188 10.929688 C 10.359375 10.984375 10.3125 10.988281 10.289062 11.03125 C 10.269531 11.066406 10.273438 11.105469 10.277344 11.144531 C 10.289062 11.253906 10.292969 11.34375 10.277344 11.449219 C 10.253906 11.609375 10.242188 11.78125 10.289062 11.929688 C 10.289062 11.9375 10.289062 11.945312 10.292969 11.949219 C 10.269531 11.957031 10.246094 11.960938 10.226562 11.960938 C 10.152344 11.953125 10.117188 11.902344 10.0625 11.863281 C 9.941406 11.777344 9.867188 11.753906 9.820312 11.925781 C 9.773438 12.097656 9.824219 12.261719 9.859375 12.429688 C 9.890625 12.546875 9.933594 12.679688 10.015625 12.773438 C 10.082031 12.851562 10.152344 12.96875 10.230469 13.03125 C 10.265625 13 10.292969 12.972656 10.328125 12.9375 C 10.394531 12.964844 10.457031 13.09375 10.453125 13.160156 C 10.453125 13.199219 10.394531 13.351562 10.472656 13.371094 C 10.542969 13.390625 10.53125 13.222656 10.613281 13.230469 C 10.6875 13.242188 10.644531 13.363281 10.644531 13.40625 C 10.644531 13.484375 10.679688 13.5625 10.71875 13.632812 C 10.804688 13.5625 10.871094 13.488281 10.988281 13.539062 C 11.074219 13.574219 11.222656 13.683594 11.273438 13.738281 C 11.339844 13.753906 11.402344 13.765625 11.46875 13.773438 C 11.453125 13.796875 11.4375 13.816406 11.425781 13.835938 L 11.429688 13.835938 C 11.332031 13.949219 11.421875 13.992188 11.515625 14.058594 C 11.558594 14.089844 11.636719 14.128906 11.613281 14.1875 C 11.59375 14.238281 11.5 14.25 11.46875 14.214844 C 11.382812 14.277344 11.460938 14.328125 11.507812 14.375 C 11.527344 14.394531 11.601562 14.464844 11.574219 14.496094 C 11.535156 14.539062 11.476562 14.457031 11.449219 14.441406 C 11.386719 14.410156 11.21875 14.382812 11.261719 14.507812 C 11.273438 14.546875 11.34375 14.601562 11.371094 14.636719 C 11.410156 14.695312 11.425781 14.75 11.457031 14.808594 C 11.492188 14.871094 11.53125 14.886719 11.605469 14.917969 C 11.671875 14.945312 11.734375 15.003906 11.800781 15.023438 C 11.867188 14.890625 11.695312 14.742188 11.933594 14.753906 C 11.9375 14.835938 11.890625 15.039062 11.945312 15.109375 C 11.976562 15.152344 12.042969 15.132812 12.082031 15.160156 C 12.128906 15.191406 12.128906 15.222656 12.132812 15.285156 C 12.140625 15.417969 12.121094 15.472656 12.207031 15.574219 C 12.242188 15.621094 12.273438 15.6875 12.316406 15.730469 C 12.328125 15.742188 12.34375 15.753906 12.363281 15.765625 C 12.363281 15.816406 12.363281 15.867188 12.367188 15.914062 C 12.492188 16.027344 12.375 16.269531 12.441406 16.425781 C 12.480469 16.515625 12.554688 16.617188 12.570312 16.71875 C 12.589844 16.816406 12.484375 16.910156 12.460938 17.003906 C 12.4375 17.113281 12.449219 17.222656 12.425781 17.328125 C 12.394531 17.453125 12.339844 17.566406 12.308594 17.695312 C 12.269531 17.84375 12.238281 17.988281 12.191406 18.140625 C 12.152344 18.261719 12.113281 18.386719 12.113281 18.511719 C 12.113281 18.75 12.269531 18.609375 12.335938 18.472656 C 12.40625 18.320312 12.503906 18.257812 12.628906 18.160156 C 12.691406 18.320312 12.425781 18.496094 12.367188 18.617188 C 12.351562 18.644531 12.328125 18.757812 12.363281 18.78125 C 12.40625 18.8125 12.496094 18.710938 12.53125 18.6875 C 12.535156 18.691406 12.539062 18.691406 12.542969 18.691406 C 12.582031 18.726562 12.554688 18.78125 12.59375 18.808594 C 12.609375 18.824219 12.640625 18.808594 12.648438 18.816406 C 12.65625 18.820312 12.683594 18.851562 12.6875 18.859375 C 12.738281 18.898438 12.714844 18.933594 12.785156 18.871094 C 12.800781 18.855469 12.820312 18.832031 12.835938 18.804688 C 12.863281 18.851562 12.890625 18.894531 12.925781 18.9375 C 12.957031 18.921875 13 18.96875 13.039062 18.949219 C 13.078125 18.929688 13.078125 18.867188 13.085938 18.832031 C 13.101562 18.746094 13.121094 18.640625 13.183594 18.578125 C 13.226562 18.695312 13.203125 18.828125 13.253906 18.941406 C 13.28125 18.882812 13.308594 18.78125 13.363281 18.742188 C 13.453125 18.796875 13.347656 18.921875 13.421875 18.988281 C 13.476562 19.035156 13.609375 18.941406 13.652344 18.894531 C 13.714844 18.824219 13.769531 18.742188 13.832031 18.664062 C 13.90625 18.578125 13.921875 18.476562 13.976562 18.378906 C 14.007812 18.394531 14.03125 18.421875 14.0625 18.441406 C 14.175781 18.359375 14.253906 18.292969 14.390625 18.25 C 14.542969 18.203125 14.546875 18.140625 14.566406 17.988281 C 14.6875 18.007812 14.710938 18.089844 14.8125 17.996094 C 14.878906 17.9375 14.933594 17.890625 15.015625 17.84375 C 15.0625 17.816406 15.109375 17.792969 15.140625 17.75 C 15.175781 17.695312 15.167969 17.632812 15.1875 17.578125 C 15.207031 17.523438 15.214844 17.53125 15.253906 17.492188 C 15.359375 17.386719 15.265625 17.300781 15.265625 17.171875 C 15.265625 17.105469 15.304688 17.0625 15.28125 16.988281 C 15.273438 16.957031 15.265625 16.925781 15.253906 16.894531 C 15.300781 16.917969 15.339844 16.945312 15.382812 16.96875 C 15.394531 17 15.46875 17.046875 15.5 17.089844 C 15.53125 17.132812 15.519531 17.226562 15.554688 17.261719 C 15.585938 17.292969 15.664062 17.261719 15.6875 17.304688 C 15.722656 17.363281 15.621094 17.433594 15.621094 17.488281 C 15.730469 17.507812 15.792969 17.664062 15.8125 17.757812 C 15.824219 17.8125 15.828125 17.863281 15.859375 17.914062 C 15.898438 17.976562 15.925781 17.960938 15.980469 17.992188 C 16.0625 18.046875 16.015625 18.152344 16.039062 18.246094 C 16.066406 18.351562 16.082031 18.285156 16.132812 18.269531 C 16.203125 18.253906 16.21875 18.289062 16.21875 18.371094 C 16.222656 18.519531 16.117188 18.566406 16.222656 18.703125 C 16.34375 18.847656 16.402344 18.933594 16.386719 19.121094 C 16.375 19.253906 16.40625 19.390625 16.398438 19.523438 C 16.394531 19.59375 16.390625 19.644531 16.417969 19.707031 C 16.449219 19.785156 16.472656 19.832031 16.480469 19.917969 C 16.488281 19.996094 16.484375 20.085938 16.496094 20.164062 C 16.507812 20.238281 16.558594 20.265625 16.589844 20.328125 C 16.621094 20.398438 16.597656 20.476562 16.625 20.539062 C 16.636719 20.5625 16.675781 20.613281 16.710938 20.644531 C 16.714844 20.683594 16.71875 20.722656 16.722656 20.765625 C 16.792969 20.851562 16.839844 21 16.832031 21.125 C 16.824219 21.296875 16.824219 21.433594 16.875 21.601562 C 16.929688 21.589844 16.929688 21.519531 16.960938 21.480469 C 17.035156 21.53125 17.050781 21.617188 17.09375 21.6875 C 17.132812 21.75 17.175781 21.804688 17.207031 21.863281 C 17.308594 22.039062 17.363281 22.21875 17.40625 22.417969 C 17.453125 22.652344 17.488281 22.867188 17.433594 23.101562 C 17.414062 23.183594 17.402344 23.28125 17.441406 23.355469 C 17.476562 23.425781 17.527344 23.453125 17.539062 23.539062 C 17.546875 23.621094 17.574219 23.753906 17.558594 23.835938 C 17.542969 23.917969 17.421875 24.011719 17.515625 24.089844 C 17.589844 24.066406 17.648438 24.035156 17.710938 24.019531 C 17.695312 24.0625 17.683594 24.105469 17.667969 24.152344 C 17.566406 24.222656 17.632812 24.398438 17.628906 24.515625 C 17.625 24.589844 17.621094 24.664062 17.597656 24.730469 C 17.574219 24.804688 17.582031 24.875 17.566406 24.9375 C 17.550781 25 17.507812 25.042969 17.46875 25.09375 C 17.4375 25.136719 17.433594 25.121094 17.417969 25.175781 C 17.410156 25.210938 17.441406 25.234375 17.410156 25.273438 C 17.398438 25.289062 17.351562 25.28125 17.335938 25.304688 C 17.304688 25.339844 17.328125 25.367188 17.332031 25.402344 C 17.335938 25.472656 17.351562 25.539062 17.367188 25.605469 C 17.398438 25.738281 17.339844 26.039062 17.453125 26.121094 C 17.574219 26.097656 17.59375 25.855469 17.628906 25.757812 C 17.652344 25.695312 17.707031 25.648438 17.730469 25.589844 C 17.753906 25.527344 17.738281 25.472656 17.738281 25.402344 C 17.742188 25.292969 17.796875 25.21875 17.875 25.140625 C 17.914062 25.097656 17.941406 25.09375 17.964844 25.035156 C 17.96875 25.019531 17.976562 25.003906 17.980469 24.984375 C 18.023438 24.964844 18.066406 24.949219 18.109375 24.914062 C 18.160156 24.871094 18.183594 24.8125 18.222656 24.757812 C 18.261719 24.703125 18.324219 24.664062 18.351562 24.597656 C 18.398438 24.445312 18.375 24.34375 18.496094 24.226562 C 18.59375 24.128906 18.6875 23.988281 18.679688 23.851562 C 18.667969 23.628906 18.53125 23.460938 18.480469 23.25 C 18.460938 23.167969 18.5 23.035156 18.460938 22.960938 C 18.425781 22.894531 18.320312 22.828125 18.269531 22.769531 C 18.144531 22.613281 18.117188 22.457031 18.078125 22.265625 C 18.113281 22.222656 18.15625 22.21875 18.171875 22.15625 C 18.183594 22.101562 18.160156 22.027344 18.15625 21.972656 C 18.144531 21.851562 18.140625 21.730469 18.128906 21.613281 C 18.121094 21.523438 18.089844 21.542969 18.042969 21.472656 C 18.019531 21.4375 18.007812 21.363281 18 21.324219 C 17.972656 21.207031 17.921875 21.15625 17.832031 21.078125 C 17.789062 21.035156 17.664062 20.972656 17.65625 20.925781 C 17.636719 20.910156 17.617188 20.894531 17.59375 20.878906 C 17.5625 20.832031 17.527344 20.792969 17.492188 20.746094 C 17.421875 20.644531 17.398438 20.527344 17.3125 20.421875 C 17.234375 20.3125 17.097656 20.265625 17.039062 20.152344 C 16.992188 20.0625 16.972656 19.941406 16.945312 19.84375 C 16.925781 19.769531 16.910156 19.675781 16.996094 19.628906 C 17.035156 19.605469 17.074219 19.640625 17.105469 19.589844 C 17.128906 19.554688 17.082031 19.507812 17.097656 19.480469 C 17.132812 19.417969 17.277344 19.515625 17.335938 19.429688 C 17.382812 19.351562 17.34375 19.195312 17.34375 19.113281 C 17.34375 19.035156 17.367188 18.960938 17.363281 18.886719 C 17.363281 18.828125 17.335938 18.757812 17.355469 18.695312 C 17.375 18.625 17.476562 18.503906 17.558594 18.554688 C 17.632812 18.507812 17.691406 18.445312 17.71875 18.355469 C 17.734375 18.296875 17.757812 18.101562 17.648438 18.113281 C 17.566406 18.121094 17.589844 18.273438 17.492188 18.183594 C 17.425781 18.121094 17.4375 18.003906 17.398438 17.929688 C 17.359375 17.855469 17.28125 17.820312 17.269531 17.738281 C 17.257812 17.671875 17.269531 17.585938 17.257812 17.519531 C 17.246094 17.441406 17.242188 17.40625 17.171875 17.382812 C 17.144531 17.375 17.121094 17.386719 17.089844 17.375 C 17.0625 17.363281 17.039062 17.328125 17.019531 17.304688 C 16.914062 17.199219 16.875 17.050781 16.792969 16.929688 C 16.75 16.871094 16.6875 16.832031 16.625 16.796875 C 16.5625 16.757812 16.5625 16.746094 16.527344 16.683594 C 16.472656 16.578125 16.402344 16.515625 16.328125 16.433594 C 16.222656 16.316406 16.335938 16.285156 16.328125 16.160156 C 16.324219 16.101562 16.277344 16.078125 16.253906 16.035156 C 16.226562 15.988281 16.210938 15.933594 16.195312 15.882812 C 16.175781 15.832031 16.164062 15.773438 16.09375 15.789062 C 16.046875 15.800781 16.039062 15.851562 16.003906 15.875 C 15.996094 15.808594 15.972656 15.738281 15.953125 15.671875 C 15.941406 15.636719 15.925781 15.589844 15.910156 15.542969 C 15.925781 15.546875 15.9375 15.550781 15.953125 15.550781 C 16.066406 15.558594 16.132812 15.5 16.230469 15.476562 C 16.339844 15.449219 16.347656 15.453125 16.332031 15.339844 C 16.320312 15.246094 16.3125 15.199219 16.273438 15.117188 C 16.234375 15.03125 16.257812 14.996094 16.316406 14.917969 C 16.347656 14.875 16.449219 14.789062 16.453125 14.738281 C 16.457031 14.675781 16.378906 14.617188 16.382812 14.550781 C 16.382812 14.484375 16.402344 14.394531 16.421875 14.332031 C 16.441406 14.257812 16.472656 14.210938 16.539062 14.171875 C 16.570312 14.152344 16.609375 14.144531 16.632812 14.121094 C 16.65625 14.101562 16.660156 14.074219 16.675781 14.066406 C 16.671875 14.015625 16.664062 13.960938 16.65625 13.910156 C 16.667969 13.917969 16.679688 13.921875 16.691406 13.929688 C 16.78125 13.988281 16.816406 14.046875 16.925781 14.066406 C 17.132812 14.105469 17.273438 14.015625 17.46875 13.960938 C 17.589844 13.925781 17.726562 14.003906 17.75 13.8125 C 17.769531 13.683594 17.78125 13.429688 17.960938 13.5 C 18.03125 13.527344 18.089844 13.59375 18.164062 13.5625 C 18.210938 13.546875 18.21875 13.503906 18.253906 13.476562 C 18.285156 13.457031 18.332031 13.449219 18.371094 13.441406 C 18.40625 13.347656 18.316406 13.273438 18.265625 13.207031 C 18.390625 13.125 18.582031 13.300781 18.707031 13.195312 C 18.769531 13.144531 18.761719 13.101562 18.851562 13.125 C 18.925781 13.144531 18.96875 13.234375 19.042969 13.15625 C 19.085938 13.109375 19.097656 12.988281 19.121094 12.921875 C 19.148438 12.839844 19.175781 12.746094 19.238281 12.683594 C 19.28125 12.636719 19.335938 12.605469 19.398438 12.589844 C 19.460938 12.578125 19.539062 12.605469 19.59375 12.578125 C 19.628906 12.558594 19.660156 12.515625 19.640625 12.480469 C 19.609375 12.421875 19.570312 12.488281 19.523438 12.453125 C 19.535156 12.378906 19.609375 12.308594 19.652344 12.246094 C 19.710938 12.164062 19.757812 12.066406 19.796875 11.976562 C 20.066406 11.96875 20.21875 11.679688 20.183594 11.417969 Z M 20.183594 11.417969 " fill-opacity="1" fill-rule="nonzero"/></g></svg>
