<svg xmlns="http://www.w3.org/2000/svg" xmlns:xlink="http://www.w3.org/1999/xlink" width="40" zoomAndPan="magnify" viewBox="0 0 30 30.000001" height="40" preserveAspectRatio="xMidYMid meet" version="1.0"><defs><clipPath id="b76f4cfdf3"><path d="M 3.386719 8.78125 L 26.613281 8.78125 L 26.613281 20.394531 L 3.386719 20.394531 Z M 3.386719 8.78125 " clip-rule="nonzero"/></clipPath></defs><g clip-path="url(#b76f4cfdf3)"><path fill="#014d4e" d="M 26.402344 13.203125 L 26.402344 13.09375 C 26.402344 13.09375 26.289062 13.050781 26.28125 13.050781 C 26.277344 13.050781 26.160156 12.964844 26.160156 12.964844 L 26.0625 12.832031 L 25.933594 12.824219 L 25.871094 12.722656 L 25.847656 12.632812 L 25.625 12.632812 L 25.390625 12.40625 L 24.882812 12.429688 L 24.589844 12.941406 C 24.449219 12.886719 24.324219 12.738281 24.324219 12.738281 L 24.136719 12.742188 L 24.054688 12.785156 L 23.96875 12.8125 L 23.6875 12.839844 L 23.601562 13 L 23.488281 12.988281 L 23.171875 12.722656 L 23.171875 12.570312 L 23.339844 12.375 L 23.316406 12.339844 L 23.335938 11.964844 L 23.402344 11.894531 L 23.46875 11.8125 L 23.476562 11.734375 L 23.410156 11.695312 L 23.429688 11.546875 L 23.679688 10.761719 L 23.679688 10.558594 C 23.363281 10.394531 23.0625 10.726562 23.0625 10.726562 L 22.785156 10.71875 L 22.417969 10.410156 L 22.007812 10.402344 L 21.859375 10.621094 C 21.859375 10.621094 21.753906 10.703125 21.738281 10.703125 C 21.550781 10.703125 21.316406 11.046875 21.316406 11.046875 L 21.285156 11.234375 L 21.109375 11.363281 L 20.914062 11.375 L 20.660156 11.496094 C 20.660156 11.496094 20.339844 11.605469 20.324219 11.617188 C 20.304688 11.625 20.164062 11.621094 20.164062 11.621094 L 19.628906 11.914062 L 19.59375 11.910156 L 19.507812 11.867188 L 19.476562 11.824219 L 19.382812 11.824219 C 19.382812 11.824219 19.34375 11.875 19.339844 11.875 C 19.335938 11.875 19.246094 11.933594 19.242188 11.9375 C 19.234375 11.945312 18.894531 11.929688 18.894531 11.929688 L 18.773438 11.875 L 18.664062 11.785156 L 18.066406 11.785156 L 17.625 11.421875 L 17.601562 11.171875 L 17.160156 11.160156 L 17.019531 11.027344 L 16.945312 10.9375 L 16.851562 10.820312 L 16.496094 10.816406 L 16.480469 10.882812 L 16.367188 10.878906 L 16.328125 10.828125 L 16.261719 10.800781 L 16.242188 10.71875 L 15.902344 10.714844 L 15.867188 10.675781 L 15.730469 10.667969 L 15.640625 10.738281 L 15.507812 10.773438 L 15.464844 10.816406 L 15.222656 10.8125 L 15.070312 11.007812 C 15.070312 11.007812 14.925781 11.023438 14.921875 11.023438 C 14.914062 11.023438 14.871094 10.96875 14.871094 10.96875 L 14.730469 10.96875 L 14.660156 11.039062 L 14.605469 11.039062 L 14.519531 10.960938 C 14.519531 10.960938 14.378906 10.957031 14.371094 10.953125 C 14.367188 10.949219 14.316406 10.847656 14.316406 10.847656 C 14.316406 10.847656 14.046875 10.8125 14.046875 10.816406 C 14.046875 10.824219 13.8125 10.558594 13.8125 10.558594 L 13.671875 10.558594 L 13.660156 10.015625 L 13.550781 9.921875 L 13.566406 9.777344 C 13.566406 9.777344 13.613281 9.742188 13.613281 9.757812 C 13.613281 9.746094 13.613281 9.648438 13.613281 9.648438 L 13.515625 9.644531 L 13.496094 9.597656 L 13.367188 9.59375 L 13.328125 9.546875 L 13.050781 9.550781 L 12.589844 9.234375 L 12.171875 9.234375 L 11.933594 9 L 11.769531 8.996094 C 11.769531 8.996094 11.664062 8.917969 11.660156 8.914062 C 11.65625 8.90625 11.585938 8.851562 11.585938 8.851562 L 11.519531 8.828125 L 11.46875 8.78125 L 11.429688 8.78125 L 11.421875 8.84375 C 11.421875 8.84375 11.382812 8.925781 11.378906 8.933594 C 11.378906 8.941406 11.347656 8.988281 11.347656 8.988281 L 11.238281 9.09375 L 11.164062 9.140625 L 11.019531 9.15625 L 10.976562 9.421875 L 10.824219 9.460938 L 10.777344 9.519531 C 10.777344 9.519531 10.714844 9.738281 10.714844 9.746094 C 10.714844 9.753906 10.671875 9.789062 10.671875 9.789062 L 10.671875 9.960938 L 10.71875 9.996094 L 10.722656 10.054688 L 10.777344 10.078125 L 10.777344 10.3125 L 10.832031 10.367188 L 10.964844 10.371094 L 10.964844 10.429688 L 10.917969 10.46875 L 10.917969 10.667969 L 10.894531 10.707031 L 10.867188 10.800781 L 10.695312 11.011719 L 10.367188 11.011719 L 10.367188 11.144531 L 10.261719 11.21875 L 10.132812 11.21875 L 9.894531 11.019531 L 9.601562 11.019531 L 9.566406 10.964844 L 9.449219 10.964844 L 9.390625 10.914062 L 9.359375 10.859375 L 9.179688 10.859375 L 9.136719 10.914062 L 8.695312 10.914062 L 8.542969 10.765625 L 8.542969 10.703125 L 8.328125 10.703125 L 8.140625 10.527344 L 8.140625 10.101562 L 7.757812 10.097656 L 7.738281 10.054688 L 7.539062 10.046875 L 7.539062 10.007812 L 7.371094 10.007812 L 7.320312 9.953125 L 7.269531 9.90625 L 7.253906 9.882812 L 7.253906 9.773438 L 7.300781 9.773438 L 7.300781 9.742188 L 7.164062 9.742188 L 7.164062 9.835938 L 7.023438 9.835938 L 6.972656 9.746094 L 6.945312 9.71875 L 6.945312 9.589844 L 6.851562 9.589844 L 6.851562 9.644531 L 6.8125 9.65625 L 6.8125 9.75 L 6.46875 9.75 L 6.261719 9.953125 L 5.867188 9.953125 L 5.75 10.09375 L 5.671875 10.109375 L 5.628906 10.15625 L 5.253906 10.15625 L 5.253906 10.191406 L 5.15625 10.21875 L 5.117188 10.308594 L 4.910156 10.308594 L 4.910156 10.351562 L 4.851562 10.363281 L 4.851562 10.554688 L 4.75 10.578125 L 4.710938 10.628906 L 4.574219 10.628906 L 4.519531 10.558594 L 4.496094 10.558594 L 4.496094 10.664062 L 4.453125 10.710938 L 4.324219 10.714844 L 4.285156 10.613281 L 4.234375 10.667969 L 4.234375 10.734375 L 4.136719 10.734375 L 4.089844 10.664062 L 4.042969 10.613281 L 3.742188 10.613281 L 3.6875 10.667969 L 3.6875 10.855469 L 3.515625 10.863281 L 3.496094 10.910156 L 3.441406 10.972656 L 3.425781 11.054688 L 3.386719 11.074219 C 3.386719 11.074219 3.386719 11.207031 3.386719 11.214844 C 3.386719 11.222656 3.535156 11.335938 3.535156 11.335938 C 3.535156 11.335938 3.535156 11.386719 3.53125 11.390625 C 3.53125 11.398438 3.484375 11.449219 3.484375 11.453125 C 3.484375 11.457031 3.441406 11.472656 3.441406 11.472656 L 3.402344 11.519531 L 3.402344 11.539062 L 3.511719 11.539062 L 3.570312 11.558594 C 3.570312 11.558594 3.695312 11.730469 3.707031 11.730469 C 3.714844 11.730469 3.789062 11.742188 3.789062 11.742188 L 3.792969 11.988281 L 3.90625 12.011719 L 4.054688 12.113281 L 4.089844 12.238281 L 4.046875 12.289062 L 4.425781 12.285156 L 4.550781 12.496094 L 4.726562 12.492188 L 4.996094 12.851562 L 5.027344 13.308594 C 5.042969 13.445312 5.273438 13.625 5.273438 13.625 L 5.277344 14.097656 L 5.117188 14.40625 L 5.132812 14.648438 L 4.867188 14.914062 L 4.820312 15.082031 C 4.820312 15.082031 4.816406 15.296875 4.820312 15.300781 C 4.828125 15.308594 4.914062 15.480469 4.914062 15.480469 L 5.074219 15.480469 L 5.203125 15.621094 L 5.300781 15.636719 L 5.382812 15.671875 L 5.5 15.679688 L 5.589844 15.714844 L 5.730469 15.734375 L 5.90625 15.835938 L 6.183594 15.863281 C 7 15.902344 7.125 16.382812 7.125 16.382812 L 7.273438 16.414062 L 7.6875 16.804688 C 7.6875 16.804688 7.820312 16.871094 7.828125 16.871094 C 7.835938 16.871094 7.921875 16.882812 7.921875 16.882812 L 7.988281 16.941406 L 8.128906 16.941406 L 8.136719 17.125 L 8.089844 17.132812 L 8.09375 17.246094 L 8.285156 17.265625 L 8.324219 17.496094 L 8.421875 17.714844 L 8.449219 18.003906 L 8.550781 18.242188 L 8.796875 18.464844 L 8.792969 18.65625 L 9.449219 18.652344 L 9.511719 18.703125 L 11.285156 19.066406 L 11.40625 19.007812 L 11.472656 18.964844 L 11.726562 18.953125 L 12 19 L 12.207031 19.054688 L 12.460938 19.105469 C 12.460938 19.105469 12.675781 19.140625 12.707031 19.160156 C 12.742188 19.179688 12.972656 19.171875 12.972656 19.171875 L 13.226562 19.582031 C 13.863281 19.558594 14.648438 20.019531 14.648438 20.019531 L 14.886719 20.027344 L 14.933594 19.980469 L 15.128906 19.964844 L 15.148438 19.917969 L 15.261719 19.925781 L 15.265625 20.175781 L 15.613281 20.175781 L 15.625 20.246094 L 15.703125 20.246094 C 16.78125 19.261719 17.910156 19.28125 17.910156 19.28125 L 17.980469 19.207031 L 18.816406 19.207031 L 18.839844 19.167969 L 19.28125 19.167969 L 19.558594 18.917969 L 19.660156 18.917969 L 19.695312 18.859375 L 19.773438 18.859375 C 20.082031 18.59375 20.285156 18.242188 20.285156 18.242188 L 20.359375 18.078125 L 20.621094 17.929688 L 20.800781 17.898438 L 20.867188 17.785156 L 21.003906 17.671875 L 21.109375 17.625 L 20.867188 17.332031 L 20.804688 17.332031 L 20.636719 17.078125 C 20.492188 16.871094 20.679688 16.734375 20.679688 16.734375 L 20.675781 16.5 L 20.777344 16.261719 L 20.957031 16.132812 L 21.222656 16.117188 L 21.300781 16.144531 L 21.558594 16.320312 L 21.824219 16.324219 L 21.933594 16.367188 L 22.183594 16.367188 L 22.292969 16.316406 C 22.292969 16.316406 22.394531 16.207031 22.398438 16.1875 C 22.402344 16.167969 22.558594 16.070312 22.558594 16.070312 L 22.734375 15.914062 L 22.855469 15.730469 L 22.867188 15.597656 L 22.898438 15.554688 L 23.519531 15.515625 L 23.6875 15.378906 L 23.894531 15.160156 L 24.074219 15.015625 L 24.082031 14.667969 L 24.144531 14.539062 L 24.320312 14.332031 L 24.476562 14.261719 C 24.476562 14.261719 24.835938 14.25 24.835938 14.261719 C 24.835938 14.269531 24.835938 13.941406 24.835938 13.941406 L 24.96875 13.941406 L 25.023438 14.03125 L 25.078125 14.03125 L 25.445312 13.695312 L 25.808594 13.695312 L 25.804688 13.644531 L 26.042969 13.644531 L 26.132812 13.65625 L 26.613281 13.65625 L 26.613281 13.378906 Z M 26.402344 13.203125 " fill-opacity="1" fill-rule="nonzero"/></g></svg>