<svg xmlns="http://www.w3.org/2000/svg" xmlns:xlink="http://www.w3.org/1999/xlink" width="40" zoomAndPan="magnify" viewBox="0 0 30 30.000001" height="40" preserveAspectRatio="xMidYMid meet" version="1.0"><defs><clipPath id="16f0ea1434"><path d="M 12.257812 2.902344 L 18 2.902344 L 18 26.128906 L 12.257812 26.128906 Z M 12.257812 2.902344 " clip-rule="nonzero"/></clipPath></defs><g clip-path="url(#16f0ea1434)"><path fill="#014d4e" d="M 16.90625 16.738281 C 16.824219 16.746094 16.742188 16.730469 16.722656 16.640625 C 16.699219 16.554688 16.683594 16.464844 16.796875 16.402344 C 16.878906 16.355469 16.910156 16.265625 16.914062 16.164062 C 16.921875 15.941406 17.078125 15.835938 17.289062 15.898438 C 17.308594 15.902344 17.328125 15.90625 17.347656 15.910156 C 17.464844 15.929688 17.542969 16.003906 17.570312 16.113281 C 17.59375 16.21875 17.542969 16.316406 17.453125 16.375 C 17.332031 16.457031 17.226562 16.558594 17.121094 16.660156 C 17.0625 16.722656 16.988281 16.75 16.90625 16.738281 Z M 16.535156 12.421875 C 16.359375 12.421875 16.253906 12.539062 16.253906 12.734375 C 16.253906 12.957031 16.375 13.09375 16.566406 13.09375 C 16.746094 13.09375 16.875 12.964844 16.875 12.785156 C 16.875 12.578125 16.730469 12.421875 16.535156 12.421875 Z M 16.734375 26.097656 C 16.824219 26.089844 16.878906 26.03125 16.890625 25.945312 C 16.898438 25.863281 16.867188 25.789062 16.792969 25.753906 C 16.660156 25.699219 16.519531 25.664062 16.375 25.691406 C 16.226562 25.714844 16.171875 25.871094 16.265625 25.988281 C 16.351562 26.09375 16.464844 26.121094 16.59375 26.105469 C 16.640625 26.101562 16.6875 26.101562 16.734375 26.097656 Z M 17.316406 19.183594 C 17.320312 19.304688 17.4375 19.414062 17.554688 19.410156 C 17.640625 19.40625 17.734375 19.304688 17.734375 19.214844 C 17.734375 19.097656 17.628906 19 17.503906 19 C 17.375 19 17.316406 19.058594 17.316406 19.183594 Z M 14.484375 5.855469 C 14.488281 5.761719 14.304688 5.699219 14.1875 5.6875 C 14.089844 5.679688 14.027344 5.757812 14.03125 5.859375 C 14.035156 5.96875 14.140625 6.058594 14.261719 6.054688 C 14.382812 6.054688 14.476562 5.960938 14.484375 5.855469 Z M 16.203125 15.457031 C 16.261719 15.417969 16.300781 15.363281 16.273438 15.289062 C 16.238281 15.203125 16.160156 15.195312 16.082031 15.195312 C 16.007812 15.195312 15.960938 15.238281 15.953125 15.308594 C 15.945312 15.375 15.921875 15.425781 15.871094 15.472656 C 15.839844 15.5 15.84375 15.542969 15.863281 15.578125 C 15.882812 15.613281 15.917969 15.625 15.984375 15.621094 C 16.070312 15.613281 16.117188 15.507812 16.203125 15.457031 Z M 15.050781 7.625 C 14.964844 7.625 14.886719 7.703125 14.886719 7.796875 C 14.886719 7.90625 14.988281 8.011719 15.089844 8.015625 C 15.167969 8.015625 15.253906 7.914062 15.253906 7.824219 C 15.253906 7.71875 15.15625 7.621094 15.050781 7.625 Z M 12.457031 2.902344 C 12.355469 2.902344 12.257812 3 12.257812 3.101562 C 12.257812 3.210938 12.324219 3.269531 12.429688 3.273438 C 12.539062 3.273438 12.621094 3.1875 12.621094 3.070312 C 12.621094 2.972656 12.558594 2.90625 12.457031 2.902344 Z M 15.757812 13.464844 C 15.660156 13.472656 15.621094 13.539062 15.621094 13.628906 C 15.625 13.726562 15.703125 13.804688 15.789062 13.800781 C 15.886719 13.789062 15.929688 13.730469 15.933594 13.652344 C 15.933594 13.539062 15.847656 13.453125 15.757812 13.464844 Z M 17.363281 24.113281 C 17.371094 24.019531 17.292969 23.960938 17.175781 23.960938 C 17.089844 23.957031 17.011719 23.972656 17.019531 24.085938 C 17.027344 24.195312 17.101562 24.230469 17.1875 24.234375 C 17.28125 24.234375 17.355469 24.207031 17.363281 24.113281 Z M 17.382812 20.78125 C 17.386719 20.84375 17.496094 20.941406 17.5625 20.929688 C 17.636719 20.917969 17.699219 20.875 17.703125 20.792969 C 17.707031 20.691406 17.628906 20.621094 17.527344 20.621094 C 17.453125 20.625 17.375 20.707031 17.382812 20.78125 Z M 15.9375 20.207031 C 15.929688 20.097656 15.820312 20.105469 15.742188 20.09375 C 15.679688 20.085938 15.613281 20.105469 15.613281 20.179688 C 15.617188 20.28125 15.695312 20.300781 15.789062 20.308594 C 15.847656 20.296875 15.945312 20.3125 15.9375 20.207031 Z M 15.9375 20.207031 " fill-opacity="1" fill-rule="nonzero"/></g></svg>