<svg xmlns="http://www.w3.org/2000/svg" xmlns:xlink="http://www.w3.org/1999/xlink" width="40" zoomAndPan="magnify" viewBox="0 0 30 30.000001" height="40" preserveAspectRatio="xMidYMid meet" version="1.0"><defs><clipPath id="332d982108"><path d="M 5.304688 2.902344 L 24.898438 2.902344 L 24.898438 26.128906 L 5.304688 26.128906 Z M 5.304688 2.902344 " clip-rule="nonzero"/></clipPath></defs><path fill="#014d4e" d="M 21.046875 11.9375 L 21.085938 11.9375 L 21.113281 11.914062 L 21.113281 11.878906 L 21.160156 11.847656 C 21.160156 11.847656 21.207031 11.847656 21.21875 11.847656 C 21.234375 11.847656 21.277344 11.828125 21.277344 11.828125 L 21.324219 11.800781 L 21.355469 11.816406 C 21.355469 11.816406 21.394531 11.851562 21.414062 11.867188 C 21.433594 11.878906 21.453125 11.878906 21.464844 11.867188 C 21.472656 11.851562 21.464844 11.800781 21.464844 11.800781 L 21.375 11.738281 L 21.332031 11.691406 L 21.234375 11.691406 L 21.171875 11.644531 L 21.15625 11.597656 L 21.070312 11.597656 L 21.042969 11.644531 C 21.042969 11.644531 21.03125 11.660156 21.015625 11.664062 C 21.003906 11.671875 20.984375 11.691406 20.960938 11.691406 C 20.933594 11.691406 20.914062 11.632812 20.914062 11.632812 L 20.914062 11.601562 L 20.875 11.632812 C 20.875 11.632812 20.835938 11.664062 20.820312 11.664062 C 20.800781 11.664062 20.8125 11.628906 20.777344 11.605469 C 20.746094 11.582031 20.707031 11.625 20.707031 11.625 L 20.722656 11.710938 L 20.785156 11.71875 L 20.8125 11.710938 L 20.855469 11.765625 L 20.925781 11.796875 C 20.925781 11.796875 20.96875 11.800781 21.003906 11.820312 L 21.003906 11.902344 Z M 21.046875 11.9375 " fill-opacity="1" fill-rule="nonzero"/><g clip-path="url(#332d982108)"><path fill="#014d4e" d="M 24.570312 22.246094 L 24.695312 21.898438 C 24.695312 21.898438 24.542969 21.707031 24.527344 21.65625 C 24.511719 21.601562 24.488281 21.300781 24.488281 21.300781 C 24.488281 21.300781 24.382812 21.242188 24.351562 21.242188 C 24.316406 21.246094 24.265625 21.292969 24.265625 21.292969 L 24.132812 21.175781 C 24.132812 21.175781 24.117188 20.84375 24.128906 20.820312 C 24.144531 20.800781 24.136719 20.757812 24.148438 20.742188 C 24.15625 20.726562 24.175781 20.4375 24.164062 20.382812 C 24.148438 20.328125 24.046875 20.25 24.046875 20.25 C 24.046875 20.25 23.894531 20.253906 23.835938 20.253906 C 23.777344 20.253906 23.628906 20.195312 23.628906 20.195312 C 23.628906 20.195312 23.613281 20.164062 23.625 20.136719 C 23.632812 20.113281 23.734375 19.972656 23.792969 19.972656 C 23.847656 19.972656 23.925781 20 23.925781 20 C 23.925781 20 23.976562 19.992188 23.996094 19.972656 C 24.015625 19.953125 24.007812 19.4375 24.007812 19.4375 C 24.007812 19.4375 23.96875 19.246094 23.949219 19.191406 C 23.925781 19.128906 23.84375 18.988281 23.84375 18.988281 C 23.84375 18.988281 23.726562 18.835938 23.703125 18.828125 C 23.679688 18.820312 23.605469 18.808594 23.585938 18.785156 C 23.566406 18.765625 23.476562 18.589844 23.476562 18.589844 C 23.476562 18.589844 23.496094 18.503906 23.503906 18.484375 C 23.519531 18.464844 23.523438 18.378906 23.523438 18.378906 L 23.578125 18.363281 L 23.878906 18.011719 L 24.058594 17.789062 L 24.066406 17.71875 L 23.972656 17.667969 L 23.855469 17.703125 L 23.796875 17.738281 L 23.660156 17.828125 L 23.492188 17.941406 C 23.492188 17.941406 23.425781 18.046875 23.417969 18.058594 C 23.410156 18.074219 23.390625 18.09375 23.359375 18.101562 C 23.332031 18.109375 23.230469 18.117188 23.222656 18.105469 C 23.214844 18.089844 23.203125 17.839844 23.203125 17.839844 C 23.203125 17.839844 23.203125 17.742188 23.199219 17.710938 C 23.195312 17.683594 23.167969 17.601562 23.167969 17.601562 L 23.121094 17.601562 C 23.121094 17.601562 23.058594 17.640625 22.960938 17.636719 C 22.863281 17.632812 22.8125 17.597656 22.808594 17.589844 C 22.800781 17.582031 22.738281 17.453125 22.78125 17.402344 C 22.820312 17.351562 22.941406 17.34375 22.941406 17.34375 L 22.992188 17.332031 L 23.007812 17.3125 L 23.011719 17.226562 L 23.054688 17.136719 L 22.921875 17.035156 L 22.835938 16.9375 L 22.820312 16.671875 L 22.761719 16.609375 L 22.542969 16.613281 L 22.492188 16.648438 L 22.1875 16.640625 C 22.1875 16.640625 22.070312 16.65625 22.050781 16.621094 C 22.027344 16.582031 22.007812 16.523438 21.984375 16.515625 C 21.960938 16.507812 21.882812 16.417969 21.882812 16.417969 L 21.867188 16.347656 L 21.867188 16.277344 L 21.847656 16.214844 L 21.941406 16.105469 L 21.832031 15.964844 L 21.8125 15.871094 C 21.8125 15.871094 21.695312 15.800781 21.65625 15.777344 C 21.621094 15.75 21.582031 15.742188 21.570312 15.691406 C 21.558594 15.644531 21.574219 15.558594 21.578125 15.542969 C 21.578125 15.527344 21.757812 15.382812 21.757812 15.382812 C 21.757812 15.382812 21.769531 15.277344 21.757812 15.257812 C 21.742188 15.234375 21.695312 15.203125 21.695312 15.203125 L 21.515625 15.167969 L 21.460938 15.183594 L 21.28125 15.230469 L 21.199219 15.191406 L 21.03125 15.171875 C 21.03125 15.171875 20.964844 15.199219 20.925781 15.210938 C 20.882812 15.21875 20.6875 15.234375 20.660156 15.222656 C 20.636719 15.214844 20.53125 15.085938 20.566406 15.035156 C 20.597656 14.984375 20.621094 14.9375 20.621094 14.9375 L 20.742188 14.832031 L 20.941406 14.785156 L 21.058594 14.746094 L 21.164062 14.683594 C 21.164062 14.683594 21.226562 14.660156 21.1875 14.628906 C 21.144531 14.597656 21.121094 14.5625 21.121094 14.5625 L 21.070312 14.464844 L 20.964844 14.480469 L 20.847656 14.375 L 20.710938 14.234375 L 20.640625 14.175781 L 20.4375 14.058594 L 20.378906 13.933594 L 20.464844 13.832031 C 20.464844 13.832031 20.691406 13.832031 20.742188 13.820312 C 20.792969 13.8125 20.925781 13.78125 20.925781 13.78125 L 21.082031 13.757812 L 21.222656 13.636719 L 21.253906 13.515625 L 21.3125 13.363281 L 21.3125 13.277344 C 21.3125 13.277344 21.480469 12.996094 21.390625 12.960938 C 21.296875 12.921875 21.1875 12.902344 21.1875 12.902344 L 21.082031 13.050781 L 21.082031 13.199219 L 20.855469 13.257812 L 20.699219 13.199219 L 20.574219 13.160156 L 20.355469 13.070312 L 20.296875 12.976562 L 19.890625 13.050781 L 19.597656 13.421875 L 19.429688 13.589844 L 19.1875 13.515625 L 19.128906 13.332031 L 18.890625 13.164062 L 18.816406 13.035156 L 18.648438 12.8125 L 18.742188 12.589844 L 18.890625 12.519531 L 18.980469 12.335938 L 19.128906 12.390625 L 19.148438 12.519531 L 19.261719 12.519531 L 19.367188 12.460938 C 19.367188 12.460938 19.394531 12.375 19.230469 12.261719 C 19.199219 12.238281 19.203125 12.113281 19.203125 12.113281 L 19.21875 12 L 19.46875 12.042969 L 19.667969 11.949219 C 19.667969 11.949219 19.816406 12.007812 19.835938 11.949219 C 19.851562 11.894531 19.984375 11.882812 19.984375 11.882812 L 20.054688 11.78125 L 20.203125 11.738281 L 20.328125 11.746094 L 20.449219 11.699219 L 20.40625 11.480469 L 20.25 11.425781 C 20.25 11.425781 20.152344 11.449219 20.0625 11.410156 C 19.96875 11.375 19.878906 11.292969 19.878906 11.292969 L 19.867188 10.949219 L 19.945312 10.847656 C 19.945312 10.847656 19.984375 10.742188 19.925781 10.703125 C 19.871094 10.664062 19.746094 10.652344 19.746094 10.652344 L 19.605469 10.785156 L 19.535156 10.945312 L 19.351562 11.015625 L 19.058594 11.074219 L 19.007812 10.945312 L 19.050781 10.816406 L 19.199219 10.777344 L 19.207031 10.574219 L 19.246094 10.511719 C 19.246094 10.511719 19.359375 10.476562 19.367188 10.457031 C 19.375 10.433594 19.417969 10.394531 19.339844 10.382812 C 19.261719 10.375 19.101562 10.398438 19.101562 10.398438 L 19.015625 10.511719 C 19.015625 10.511719 18.945312 10.601562 18.929688 10.617188 C 18.910156 10.632812 18.855469 10.609375 18.839844 10.59375 C 18.828125 10.574219 18.785156 10.46875 18.734375 10.441406 C 18.679688 10.410156 18.628906 10.367188 18.628906 10.367188 L 18.585938 10.3125 L 18.5 10.234375 L 18.453125 9.988281 L 18.558594 9.902344 L 18.71875 9.894531 L 18.902344 9.917969 L 18.765625 9.765625 L 18.550781 9.621094 C 18.550781 9.621094 18.53125 9.519531 18.542969 9.496094 C 18.558594 9.476562 18.65625 9.273438 18.683594 9.269531 C 18.714844 9.265625 18.875 9.179688 18.910156 9.132812 C 18.945312 9.082031 18.929688 9.019531 19.023438 9.019531 C 19.117188 9.019531 19.332031 9.011719 19.339844 9.015625 C 19.351562 9.023438 19.492188 9.082031 19.5 9.089844 C 19.507812 9.097656 19.507812 9.15625 19.550781 9.171875 C 19.589844 9.1875 19.863281 9.257812 19.863281 9.257812 C 19.863281 9.257812 20.046875 9.304688 20.046875 9.332031 C 20.046875 9.359375 20.023438 9.359375 20.007812 9.398438 C 19.992188 9.4375 19.984375 9.507812 19.984375 9.507812 C 19.984375 9.507812 20.019531 9.699219 20.027344 9.714844 C 20.039062 9.730469 20.117188 9.777344 20.132812 9.78125 C 20.152344 9.78125 20.199219 9.796875 20.230469 9.777344 C 20.257812 9.757812 20.253906 9.753906 20.300781 9.710938 C 20.351562 9.671875 20.375 9.65625 20.476562 9.710938 C 20.578125 9.769531 20.703125 9.828125 20.796875 9.832031 C 20.890625 9.835938 21.003906 9.78125 21.011719 9.757812 C 21.023438 9.730469 21.074219 9.707031 21.054688 9.625 C 21.03125 9.546875 20.980469 9.476562 20.960938 9.460938 C 20.9375 9.449219 20.796875 9.425781 20.796875 9.425781 C 20.796875 9.425781 20.765625 9.429688 20.75 9.425781 C 20.730469 9.421875 20.644531 9.382812 20.644531 9.382812 L 20.617188 9.261719 C 20.617188 9.261719 20.636719 9.183594 20.679688 9.175781 C 20.71875 9.167969 20.808594 9.183594 20.808594 9.183594 L 20.914062 9.175781 L 21.046875 9.167969 L 21.066406 9.164062 L 21.050781 9.117188 C 21.050781 9.117188 21.089844 9.046875 21.09375 9.007812 C 21.097656 8.964844 21.085938 8.871094 21.085938 8.871094 L 21.054688 8.773438 L 20.96875 8.6875 C 20.96875 8.6875 20.898438 8.660156 20.890625 8.652344 C 20.882812 8.644531 20.75 8.578125 20.75 8.578125 L 20.933594 8.390625 L 21.019531 8.332031 L 21.128906 8.3125 L 21.191406 8.300781 L 21.324219 8.375 L 21.355469 8.40625 C 21.355469 8.40625 21.230469 8.511719 21.332031 8.605469 C 21.4375 8.699219 21.480469 8.761719 21.546875 8.761719 C 21.613281 8.761719 21.664062 8.652344 21.664062 8.652344 C 21.664062 8.652344 21.769531 8.644531 21.804688 8.652344 C 21.839844 8.660156 21.933594 8.53125 21.933594 8.53125 C 21.933594 8.53125 21.875 8.460938 21.824219 8.488281 C 21.765625 8.515625 21.683594 8.347656 21.683594 8.347656 L 21.683594 8.136719 L 21.628906 7.867188 L 21.398438 7.71875 L 21.222656 7.542969 L 21.082031 7.601562 L 20.90625 7.785156 L 20.695312 7.894531 L 20.621094 8.03125 L 20.378906 8.171875 L 20.160156 8.171875 L 20.042969 8.410156 L 19.949219 8.476562 L 19.636719 8.542969 L 19.515625 8.550781 C 19.515625 8.550781 19.425781 8.484375 19.296875 8.464844 C 19.164062 8.445312 18.964844 8.464844 18.964844 8.464844 L 18.761719 8.539062 L 18.648438 8.613281 L 18.539062 8.636719 L 18.410156 8.710938 L 18.25 8.878906 C 18.234375 8.9375 18.054688 9.191406 18.054688 9.210938 C 18.054688 9.230469 18.015625 9.386719 18.015625 9.386719 L 18.03125 9.511719 L 17.96875 9.546875 L 17.863281 9.570312 C 17.863281 9.570312 17.6875 9.566406 17.667969 9.511719 L 17.65625 9.472656 C 17.65625 9.472656 17.632812 9.464844 17.613281 9.355469 C 17.59375 9.246094 17.589844 9.1875 17.574219 9.171875 C 17.5625 9.152344 17.351562 8.859375 17.351562 8.859375 L 17.421875 8.683594 C 17.421875 8.683594 17.289062 8.285156 17.242188 8.242188 C 17.195312 8.199219 16.976562 8.015625 16.886719 7.925781 C 16.792969 7.839844 16.859375 7.757812 16.84375 7.75 C 16.824219 7.734375 16.691406 7.652344 16.691406 7.652344 C 16.691406 7.652344 16.605469 7.675781 16.507812 7.613281 C 16.410156 7.550781 16.332031 7.386719 16.332031 7.386719 L 16.113281 7.300781 C 16.113281 7.300781 16.015625 6.964844 16 6.957031 C 15.988281 6.949219 15.890625 6.84375 15.8125 6.78125 C 15.734375 6.714844 15.628906 6.597656 15.667969 6.527344 C 15.707031 6.453125 15.820312 6.289062 15.820312 6.289062 L 15.796875 6.164062 L 15.65625 6.121094 C 15.65625 6.121094 15.578125 6.21875 15.539062 6.230469 C 15.503906 6.246094 15.171875 6.238281 15.171875 6.238281 C 15.171875 6.238281 15 6.136719 14.992188 6.09375 C 14.988281 6.054688 14.941406 5.953125 14.9375 5.917969 C 14.933594 5.886719 14.914062 5.734375 14.914062 5.734375 L 14.886719 5.621094 L 14.828125 5.535156 C 14.828125 5.535156 14.785156 5.5625 14.707031 5.535156 C 14.628906 5.507812 14.550781 5.488281 14.550781 5.488281 L 14.589844 5.398438 L 14.613281 5.179688 C 14.605469 5.1875 14.582031 5.203125 14.4375 5.148438 C 14.242188 5.074219 14.058594 4.945312 14.039062 4.941406 C 14.019531 4.933594 13.683594 4.960938 13.683594 4.960938 L 13.488281 4.996094 C 13.488281 4.996094 13.277344 5.003906 13.175781 4.859375 C 13.074219 4.714844 12.863281 4.5 12.863281 4.5 L 12.546875 4.386719 L 12.28125 4.296875 L 12.152344 4.175781 L 11.648438 4.019531 C 11.648438 4.019531 11.355469 3.5 11.003906 3.402344 C 10.652344 3.296875 10.152344 3.132812 10.152344 3.132812 L 9.773438 3.003906 L 9.367188 2.996094 L 9.089844 2.949219 C 9.089844 2.949219 8.886719 2.902344 8.78125 2.910156 C 8.679688 2.917969 8.050781 3.023438 8.050781 3.023438 C 8.050781 3.023438 7.839844 3.085938 7.785156 3.105469 C 7.726562 3.125 7.433594 3.253906 7.433594 3.253906 L 7.230469 3.375 C 7.230469 3.375 6.375 3.648438 6.316406 3.746094 C 6.257812 3.832031 5.632812 4.75 5.632812 4.75 L 5.328125 5.292969 L 5.308594 5.78125 C 5.308594 5.78125 5.304688 6.023438 5.308594 6.050781 C 5.3125 6.078125 5.304688 6.226562 5.304688 6.226562 C 5.304688 6.226562 5.363281 6.34375 5.375 6.359375 C 5.382812 6.375 5.386719 6.601562 5.386719 6.613281 C 5.386719 6.628906 5.570312 6.730469 5.570312 6.730469 L 5.699219 6.902344 L 5.757812 7.128906 C 5.757812 7.128906 5.84375 7.265625 5.851562 7.296875 C 5.855469 7.324219 5.96875 7.503906 5.96875 7.503906 C 5.96875 7.503906 6.238281 7.601562 6.253906 7.601562 C 6.273438 7.601562 6.324219 7.601562 6.324219 7.601562 C 6.324219 7.601562 6.539062 7.894531 6.5625 7.925781 C 6.582031 7.960938 6.617188 7.996094 6.617188 7.996094 C 6.617188 7.996094 6.644531 8.132812 6.6875 8.199219 C 6.734375 8.261719 6.941406 8.429688 6.941406 8.429688 L 6.976562 8.476562 C 6.976562 8.476562 7.101562 8.5625 7.109375 8.578125 C 7.117188 8.59375 7.136719 8.644531 7.136719 8.644531 L 7.160156 8.644531 L 7.371094 8.714844 C 7.371094 8.714844 7.273438 8.785156 7.371094 8.851562 C 7.46875 8.921875 7.480469 8.992188 7.480469 8.992188 C 7.480469 8.992188 7.566406 9.0625 7.664062 9.238281 C 7.761719 9.421875 7.664062 9.835938 7.664062 9.835938 C 7.664062 9.835938 7.246094 10.699219 7.355469 11.140625 C 7.46875 11.585938 7.503906 11.578125 7.503906 11.578125 C 7.503906 11.578125 7.988281 12.464844 8.039062 12.511719 C 8.089844 12.558594 8.597656 13.320312 8.605469 13.375 C 8.609375 13.429688 8.691406 13.574219 8.710938 13.589844 C 8.726562 13.601562 8.765625 13.65625 8.792969 13.6875 C 8.820312 13.71875 8.914062 13.933594 8.945312 13.96875 C 8.976562 14.007812 9.089844 14.015625 9.121094 14.027344 C 9.152344 14.042969 9.175781 14.085938 9.203125 14.097656 C 9.230469 14.105469 9.367188 14.140625 9.386719 14.175781 C 9.40625 14.214844 9.441406 14.304688 9.441406 14.367188 C 9.441406 14.425781 9.4375 14.527344 9.507812 14.566406 C 9.578125 14.605469 9.609375 14.640625 9.609375 14.640625 C 9.609375 14.640625 9.589844 14.683594 9.644531 14.691406 C 9.695312 14.695312 9.765625 14.683594 9.792969 14.691406 C 9.816406 14.699219 9.898438 14.742188 9.929688 14.742188 C 9.960938 14.742188 10.023438 14.75 10.035156 14.792969 C 10.046875 14.835938 10.101562 14.871094 10.144531 14.886719 C 10.144531 14.886719 10.316406 14.867188 10.347656 14.886719 C 10.375 14.90625 10.507812 14.996094 10.507812 14.996094 L 10.671875 15.0625 C 10.671875 15.0625 10.734375 15.046875 10.773438 15.097656 C 10.8125 15.152344 10.902344 15.238281 10.9375 15.257812 C 10.96875 15.273438 11.042969 15.320312 11.042969 15.320312 C 11.042969 15.320312 11.023438 15.433594 11.042969 15.445312 C 11.058594 15.457031 11.203125 15.542969 11.226562 15.570312 C 11.246094 15.597656 11.3125 15.628906 11.328125 15.660156 C 11.34375 15.695312 11.359375 15.824219 11.359375 15.824219 L 11.359375 15.863281 C 11.359375 15.863281 11.402344 15.921875 11.421875 15.9375 C 11.4375 15.957031 11.453125 16.085938 11.453125 16.085938 C 11.453125 16.085938 11.484375 16.078125 11.507812 16.109375 C 11.535156 16.144531 11.691406 16.28125 11.71875 16.28125 C 11.746094 16.28125 12 16.328125 12.125 16.28125 C 12.25 16.234375 12.335938 16.234375 12.335938 16.234375 C 12.335938 16.234375 12.605469 16.207031 12.632812 16.210938 C 12.660156 16.214844 12.8125 16.207031 12.808594 16.417969 C 12.808594 16.417969 12.839844 16.460938 12.867188 16.417969 C 12.894531 16.378906 12.910156 16.25 12.941406 16.234375 C 12.972656 16.210938 13.046875 16.214844 13.058594 16.234375 C 13.070312 16.25 13.109375 16.292969 13.085938 16.339844 C 13.066406 16.390625 13.03125 16.453125 13.03125 16.472656 C 13.035156 16.488281 13.058594 16.523438 13.058594 16.523438 C 13.058594 16.523438 13.109375 16.558594 13.148438 16.558594 C 13.191406 16.5625 13.316406 16.542969 13.324219 16.535156 C 13.332031 16.527344 13.414062 16.382812 13.425781 16.375 C 13.4375 16.367188 13.488281 16.34375 13.515625 16.367188 C 13.539062 16.390625 13.570312 16.453125 13.570312 16.480469 C 13.5625 16.507812 13.542969 16.589844 13.542969 16.589844 C 13.542969 16.589844 13.515625 16.683594 13.515625 16.691406 C 13.515625 16.699219 13.523438 16.71875 13.523438 16.71875 L 13.644531 16.71875 C 13.644531 16.71875 13.75 16.71875 13.761719 16.699219 C 13.777344 16.683594 13.832031 16.574219 13.835938 16.5625 C 13.839844 16.550781 13.859375 16.507812 13.875 16.507812 C 13.894531 16.5 13.980469 16.472656 14.023438 16.53125 C 14.0625 16.585938 14.109375 16.6875 14.113281 16.695312 C 14.121094 16.703125 14.175781 16.71875 14.1875 16.699219 C 14.199219 16.679688 14.1875 16.523438 14.1875 16.523438 L 14.171875 16.355469 L 14.15625 16.179688 C 14.15625 16.179688 14.222656 16.058594 14.253906 16.058594 C 14.253906 16.058594 14.511719 16.085938 14.539062 16.066406 C 14.570312 16.046875 14.585938 15.929688 14.605469 15.890625 C 14.628906 15.847656 14.652344 15.800781 14.6875 15.796875 C 14.722656 15.792969 14.863281 15.847656 14.886719 15.929688 C 14.914062 16.011719 14.882812 16.097656 14.867188 16.121094 C 14.851562 16.148438 14.730469 16.316406 14.730469 16.316406 C 14.730469 16.316406 14.722656 16.378906 14.742188 16.386719 C 14.765625 16.394531 14.949219 16.40625 14.960938 16.410156 C 14.976562 16.410156 15.035156 16.425781 15.035156 16.425781 L 15.035156 16.601562 C 15.035156 16.601562 14.867188 16.699219 14.863281 16.714844 C 14.855469 16.730469 14.765625 16.832031 14.765625 16.832031 L 14.765625 16.9375 C 14.765625 16.9375 14.828125 17.050781 14.859375 17.078125 C 14.886719 17.101562 15.027344 17.101562 15.09375 17.125 C 15.160156 17.148438 15.242188 17.242188 15.242188 17.242188 C 15.242188 17.242188 15.371094 17.304688 15.382812 17.367188 C 15.398438 17.429688 15.382812 17.542969 15.382812 17.542969 L 15.25 17.65625 L 15.210938 17.730469 L 15.253906 18.023438 L 15.347656 18.226562 L 15.503906 18.121094 L 15.683594 18.121094 C 15.683594 18.121094 15.863281 18.253906 15.902344 18.261719 C 15.9375 18.269531 16.011719 18.242188 16.019531 18.320312 C 16.027344 18.390625 16.039062 18.476562 16.019531 18.511719 C 16 18.550781 16.085938 18.699219 16.085938 18.699219 L 16.085938 18.753906 C 16.085938 18.753906 16.15625 18.761719 16.039062 18.8125 C 15.917969 18.855469 15.667969 18.996094 15.652344 19.011719 C 15.640625 19.023438 15.574219 19.003906 15.484375 19.058594 C 15.390625 19.113281 15.285156 19.1875 15.234375 19.199219 C 15.183594 19.214844 15.097656 19.195312 15.019531 19.175781 C 14.949219 19.15625 14.914062 19.136719 14.878906 19.152344 C 14.839844 19.171875 14.753906 19.109375 14.695312 19.109375 C 14.632812 19.109375 14.578125 19.125 14.5625 19.125 C 14.550781 19.125 14.484375 19.09375 14.429688 19.085938 C 14.371094 19.082031 14.203125 19.085938 14.160156 19.085938 C 14.121094 19.085938 13.964844 19.058594 13.992188 18.953125 C 14.015625 18.847656 14.0625 18.769531 14.0625 18.769531 C 14.0625 18.769531 14.085938 18.785156 14.125 18.757812 C 14.167969 18.730469 14.289062 18.582031 14.289062 18.582031 C 14.289062 18.582031 14.292969 18.367188 14.226562 18.332031 C 14.164062 18.292969 14.015625 18.273438 13.964844 18.292969 C 13.914062 18.320312 13.785156 18.410156 13.785156 18.410156 C 13.785156 18.410156 13.699219 18.449219 13.699219 18.417969 C 13.699219 18.390625 13.648438 18.132812 13.5625 18.082031 C 13.480469 18.027344 13.414062 18.015625 13.390625 18.054688 C 13.367188 18.097656 13.320312 18.167969 13.335938 18.191406 C 13.347656 18.214844 13.382812 18.289062 13.382812 18.289062 C 13.382812 18.289062 13.386719 18.425781 13.386719 18.441406 C 13.386719 18.460938 13.390625 18.511719 13.347656 18.550781 C 13.308594 18.589844 13.277344 18.609375 13.242188 18.609375 C 13.207031 18.609375 13.125 18.609375 13.109375 18.617188 C 13.09375 18.628906 13.042969 18.617188 13.03125 18.660156 C 13.015625 18.699219 12.992188 18.777344 12.992188 18.777344 C 12.992188 18.777344 12.941406 18.855469 12.914062 18.890625 C 12.886719 18.929688 12.855469 18.945312 12.84375 18.984375 C 12.835938 19.023438 12.796875 19.050781 12.765625 19.066406 C 12.734375 19.085938 12.609375 19.101562 12.59375 19.09375 C 12.582031 19.089844 12.339844 18.90625 12.320312 18.890625 C 12.300781 18.878906 12.238281 18.839844 12.21875 18.898438 C 12.199219 18.960938 12.1875 19.085938 12.152344 19.113281 C 12.121094 19.140625 12.0625 19.15625 12.019531 19.199219 C 11.976562 19.238281 11.90625 19.355469 11.898438 19.367188 C 11.890625 19.382812 11.730469 19.71875 11.660156 19.78125 C 11.589844 19.839844 11.523438 19.882812 11.507812 19.945312 C 11.488281 20.011719 11.414062 20.203125 11.410156 20.21875 C 11.402344 20.238281 11.367188 20.394531 11.367188 20.394531 L 11.25 20.519531 C 11.25 20.519531 11.179688 20.617188 11.273438 20.703125 C 11.367188 20.785156 11.503906 20.773438 11.578125 20.757812 C 11.652344 20.746094 11.753906 20.703125 11.773438 20.703125 C 11.792969 20.703125 11.957031 20.757812 11.96875 20.851562 C 11.984375 20.949219 12.019531 21.039062 11.996094 21.066406 C 11.972656 21.09375 11.867188 21.140625 11.859375 21.179688 C 11.851562 21.214844 11.785156 21.339844 11.789062 21.394531 C 11.792969 21.453125 11.808594 21.480469 11.847656 21.488281 C 11.886719 21.492188 11.953125 21.519531 11.953125 21.519531 C 11.953125 21.519531 11.992188 21.511719 12.050781 21.519531 C 12.109375 21.527344 12.1875 21.542969 12.214844 21.574219 C 12.238281 21.609375 12.285156 21.617188 12.316406 21.640625 C 12.347656 21.664062 12.402344 21.699219 12.402344 21.746094 C 12.402344 21.792969 12.363281 21.9375 12.363281 21.9375 L 12.34375 22.007812 L 12.1875 22.101562 L 12.117188 22.378906 C 12.117188 22.378906 12.15625 22.5 12.1875 22.515625 C 12.214844 22.527344 12.296875 22.550781 12.328125 22.597656 C 12.363281 22.644531 12.414062 22.664062 12.453125 22.625 C 12.496094 22.585938 12.566406 22.523438 12.601562 22.539062 C 12.640625 22.554688 12.675781 22.566406 12.699219 22.585938 C 12.722656 22.605469 12.757812 22.542969 12.804688 22.605469 C 12.851562 22.664062 12.8125 22.785156 12.8125 22.820312 C 12.8125 22.859375 12.816406 22.902344 12.851562 22.945312 C 12.890625 22.984375 12.996094 23.140625 12.996094 23.140625 C 12.996094 23.140625 13.144531 23.167969 13.152344 23.1875 C 13.160156 23.203125 13.234375 23.222656 13.28125 23.222656 C 13.328125 23.222656 13.457031 23.191406 13.457031 23.191406 L 13.488281 23.171875 C 13.488281 23.171875 13.496094 23.144531 13.5625 23.113281 C 13.632812 23.078125 13.660156 23.070312 13.707031 23.027344 C 13.753906 22.980469 13.808594 22.929688 13.824219 22.875 C 13.835938 22.816406 13.839844 22.75 13.828125 22.707031 C 13.816406 22.667969 13.820312 22.578125 13.835938 22.554688 C 13.855469 22.53125 13.921875 22.421875 13.921875 22.421875 C 13.921875 22.421875 14.019531 22.394531 14.125 22.355469 C 14.230469 22.316406 14.53125 22.164062 14.554688 22.152344 C 14.582031 22.136719 14.773438 22.058594 14.773438 22.058594 L 14.84375 22.042969 L 14.914062 22.054688 C 14.914062 22.054688 14.980469 22.027344 15.019531 22.023438 C 15.0625 22.015625 15.132812 21.996094 15.160156 22.023438 C 15.1875 22.050781 15.230469 22.105469 15.230469 22.105469 L 15.285156 22.203125 L 15.371094 22.234375 L 15.433594 22.324219 L 15.5 22.378906 C 15.5 22.378906 15.539062 22.402344 15.566406 22.355469 C 15.59375 22.308594 15.585938 22.296875 15.601562 22.273438 C 15.613281 22.25 15.652344 22.183594 15.652344 22.183594 L 15.667969 22.128906 L 15.675781 22.09375 C 15.675781 22.09375 15.773438 22.097656 15.785156 22.105469 C 15.804688 22.113281 15.855469 22.15625 15.855469 22.191406 C 15.855469 22.226562 15.847656 22.277344 15.863281 22.300781 C 15.875 22.324219 15.9375 22.410156 15.9375 22.410156 L 16.097656 22.53125 L 16.128906 22.546875 L 16.175781 22.546875 L 16.222656 22.5625 L 16.265625 22.585938 L 16.324219 22.613281 C 16.324219 22.613281 16.3125 22.535156 16.324219 22.503906 C 16.339844 22.472656 16.378906 22.382812 16.378906 22.382812 C 16.378906 22.382812 16.394531 22.367188 16.394531 22.347656 C 16.394531 22.332031 16.386719 22.304688 16.375 22.296875 C 16.367188 22.289062 16.34375 22.253906 16.34375 22.253906 L 16.316406 22.199219 L 16.3125 22.183594 L 16.375 22.078125 L 16.40625 22.15625 L 16.40625 22.230469 L 16.429688 22.261719 L 16.464844 22.296875 L 16.613281 22.304688 L 16.691406 22.144531 L 16.71875 22.085938 L 16.71875 22.066406 L 16.832031 22.050781 L 17 22.253906 C 17 22.253906 17.007812 22.320312 17 22.339844 C 16.992188 22.359375 16.96875 22.410156 16.96875 22.410156 L 16.949219 22.453125 C 16.949219 22.453125 16.984375 22.476562 17 22.492188 C 17.019531 22.503906 17.078125 22.566406 17.144531 22.566406 C 17.210938 22.566406 17.292969 22.542969 17.292969 22.542969 L 17.371094 22.519531 L 17.394531 22.507812 L 17.394531 22.464844 L 17.417969 22.4375 L 17.460938 22.382812 L 17.644531 22.402344 L 17.84375 22.554688 C 17.84375 22.554688 18.058594 22.609375 18.066406 22.613281 C 18.074219 22.621094 18.277344 22.667969 18.277344 22.667969 L 18.582031 22.707031 L 18.667969 22.726562 L 18.707031 22.734375 C 18.707031 22.734375 18.804688 22.777344 18.855469 22.777344 C 18.902344 22.777344 19.128906 22.761719 19.128906 22.761719 L 19.203125 22.75 C 19.203125 22.75 19.371094 22.664062 19.386719 22.660156 C 19.398438 22.65625 19.523438 22.636719 19.542969 22.636719 C 19.5625 22.636719 19.710938 22.625 19.710938 22.625 L 19.90625 22.550781 L 20.046875 22.625 L 20.058594 22.8125 C 20.058594 22.8125 20.171875 23.082031 20.238281 23.144531 C 20.300781 23.207031 20.613281 23.441406 20.617188 23.484375 C 20.625 23.523438 20.800781 23.410156 20.800781 23.410156 L 20.890625 23.308594 L 21.050781 22.980469 L 21.144531 22.765625 L 21.253906 22.691406 L 21.683594 22.40625 L 21.964844 22.46875 L 22.070312 22.507812 L 22.140625 22.527344 L 22.277344 22.695312 L 22.238281 22.921875 L 22.199219 23.054688 C 22.199219 23.054688 22.121094 23.074219 22.082031 23.089844 C 22.042969 23.101562 21.90625 23.128906 21.90625 23.128906 L 21.753906 23.214844 L 21.699219 23.292969 L 21.683594 23.371094 C 21.683594 23.371094 21.648438 23.417969 21.644531 23.425781 C 21.636719 23.433594 21.617188 23.457031 21.605469 23.464844 C 21.597656 23.472656 21.542969 23.472656 21.542969 23.472656 L 21.472656 23.449219 C 21.472656 23.449219 21.378906 23.296875 21.402344 23.265625 C 21.445312 23.214844 21.339844 23.113281 21.320312 23.339844 C 21.3125 23.425781 21.273438 23.523438 21.328125 23.589844 C 21.382812 23.652344 21.550781 23.835938 21.53125 23.902344 C 21.511719 23.96875 21.425781 24.132812 21.425781 24.132812 L 21.335938 24.410156 L 21.214844 24.601562 L 21.097656 24.703125 L 20.941406 24.839844 L 20.882812 24.839844 C 20.882812 24.839844 20.875 24.972656 20.929688 25.011719 C 20.988281 25.050781 21.082031 25.128906 21.082031 25.128906 C 21.082031 25.128906 21.121094 25.175781 21.15625 25.1875 C 21.191406 25.199219 21.238281 25.246094 21.246094 25.265625 C 21.253906 25.285156 21.191406 25.480469 21.191406 25.5 C 21.191406 25.527344 21.148438 25.554688 21.195312 25.558594 C 21.242188 25.5625 21.285156 25.5625 21.3125 25.558594 C 21.339844 25.554688 21.375 25.578125 21.460938 25.613281 C 21.550781 25.652344 21.625 25.648438 21.644531 25.699219 C 21.664062 25.75 21.675781 25.855469 21.675781 25.855469 C 21.675781 25.855469 21.796875 25.886719 21.804688 25.914062 C 21.8125 25.9375 21.832031 25.996094 21.847656 26.019531 C 21.859375 26.042969 22.074219 25.992188 22.074219 25.992188 L 22.359375 26.128906 C 22.359375 26.128906 22.554688 26.078125 22.574219 26.078125 C 22.59375 26.078125 22.574219 25.902344 22.574219 25.902344 C 22.574219 25.902344 22.5625 25.855469 22.582031 25.832031 C 22.601562 25.808594 22.730469 25.601562 22.730469 25.601562 L 22.902344 25.464844 C 22.902344 25.464844 22.878906 25.351562 22.902344 25.316406 C 22.925781 25.277344 22.976562 25.210938 23.046875 25.226562 C 23.089844 25.238281 23.238281 25.34375 23.238281 25.34375 C 23.238281 25.34375 23.292969 25.367188 23.320312 25.34375 C 23.375 25.296875 23.363281 25.175781 23.363281 25.160156 C 23.363281 25.160156 23.300781 25 23.234375 24.953125 C 23.167969 24.910156 23.046875 24.847656 23.046875 24.847656 C 23.046875 24.847656 22.933594 24.800781 22.921875 24.761719 C 22.914062 24.71875 22.910156 24.636719 22.914062 24.609375 C 22.921875 24.574219 22.917969 24.527344 22.976562 24.523438 C 23.039062 24.519531 23.128906 24.558594 23.148438 24.566406 C 23.167969 24.574219 23.28125 24.640625 23.285156 24.644531 C 23.292969 24.652344 23.277344 24.695312 23.277344 24.695312 L 23.285156 24.863281 C 23.285156 24.863281 23.488281 24.867188 23.609375 24.8125 C 23.734375 24.761719 23.769531 24.730469 23.769531 24.730469 L 23.792969 24.707031 C 23.792969 24.707031 23.761719 24.621094 23.753906 24.59375 C 23.746094 24.566406 23.75 24.511719 23.75 24.511719 C 23.75 24.511719 23.792969 24.484375 23.839844 24.488281 C 23.890625 24.496094 23.867188 24.484375 23.890625 24.496094 C 23.910156 24.503906 23.972656 24.445312 23.972656 24.445312 L 24 24.355469 L 23.875 24.257812 L 23.96875 24.238281 L 24.039062 24.121094 C 24.039062 24.121094 24.03125 24.058594 24.023438 24.007812 C 24.015625 23.957031 24.136719 23.675781 24.148438 23.660156 C 24.160156 23.648438 24.148438 23.351562 24.148438 23.351562 L 24.136719 23.230469 L 24.316406 23.066406 L 24.429688 23.066406 L 24.5625 22.949219 C 24.5625 22.949219 24.550781 22.878906 24.542969 22.859375 C 24.539062 22.835938 24.492188 22.761719 24.476562 22.746094 C 24.460938 22.726562 24.335938 22.550781 24.335938 22.550781 C 24.335938 22.550781 24.378906 22.394531 24.410156 22.367188 C 24.445312 22.339844 24.570312 22.246094 24.570312 22.246094 Z M 24.570312 22.246094 " fill-opacity="1" fill-rule="nonzero"/></g></svg>