<svg xmlns="http://www.w3.org/2000/svg" width="40" zoomAndPan="magnify" viewBox="0 0 30 30.000001" height="40"
     preserveAspectRatio="xMidYMid meet" version="1.0"><defs><clipPath id="8164c7a775"><path d="M 3.648438 2.902344 L 26.148438 2.902344 L 26.148438 26.128906 L 3.648438 26.128906 Z M 3.648438 2.902344 " clip-rule="nonzero"/></clipPath></defs><g clip-path="url(#8164c7a775)"><path fill="#014d4e" d="M 5 17 C 5.046875 16.953125 5.074219 16.894531 5.15625 16.878906 C 5.226562 16.867188 5.257812 16.675781 5.210938 16.609375 C 5.203125 16.597656 5.195312 16.589844 5.183594 16.597656 C 5.160156 16.613281 5.132812 16.648438 5.113281 16.605469 C 5.09375 16.574219 5.117188 16.539062 5.144531 16.515625 C 5.257812 16.425781 5.3125 16.328125 5.222656 16.1875 C 5.203125 16.160156 5.230469 16.136719 5.25 16.109375 C 5.324219 16 5.316406 15.941406 5.203125 15.855469 C 5.128906 15.796875 5.078125 15.714844 5.058594 15.636719 C 5.011719 15.445312 4.917969 15.28125 4.785156 15.140625 C 4.769531 15.125 4.761719 15.097656 4.742188 15.0625 C 4.707031 15.128906 4.726562 15.1875 4.722656 15.242188 C 4.71875 15.273438 4.730469 15.3125 4.6875 15.328125 C 4.652344 15.34375 4.617188 15.316406 4.601562 15.292969 C 4.542969 15.210938 4.464844 15.152344 4.425781 15.046875 C 4.355469 14.855469 4.222656 14.6875 4.117188 14.511719 C 4.089844 14.464844 4.0625 14.414062 4.042969 14.363281 C 4.015625 14.292969 3.988281 14.265625 3.9375 14.347656 C 3.886719 14.417969 3.847656 14.488281 3.847656 14.585938 C 3.847656 14.691406 3.785156 14.792969 3.785156 14.90625 C 3.785156 14.921875 3.761719 14.949219 3.75 14.953125 C 3.714844 14.960938 3.714844 14.925781 3.707031 14.902344 C 3.652344 14.742188 3.710938 14.589844 3.761719 14.441406 C 3.804688 14.316406 3.847656 14.191406 3.863281 14.0625 C 3.875 13.945312 3.933594 13.90625 4.046875 13.90625 C 4.601562 13.910156 5.152344 13.910156 5.707031 13.910156 C 7.472656 13.910156 9.238281 13.910156 11.003906 13.910156 C 11.199219 13.910156 11.199219 13.902344 11.183594 13.707031 C 11.148438 13.269531 11.121094 12.828125 11.089844 12.386719 C 11.0625 12.066406 11.085938 11.738281 10.945312 11.433594 C 10.894531 11.320312 10.917969 11.195312 10.988281 11.09375 C 11.082031 10.945312 11.175781 10.800781 11.339844 10.714844 C 11.445312 10.65625 11.550781 10.585938 11.648438 10.515625 C 11.855469 10.359375 12.082031 10.261719 12.34375 10.257812 C 12.410156 10.253906 12.472656 10.21875 12.535156 10.191406 C 12.644531 10.144531 12.753906 10.089844 12.863281 10.054688 C 13.046875 9.992188 13.050781 9.996094 13.050781 9.796875 C 13.050781 8.886719 13.050781 7.976562 13.050781 7.066406 C 13.050781 6.535156 13.050781 6.003906 13.050781 5.472656 C 13.050781 5.300781 13.054688 5.300781 13.222656 5.300781 C 15.144531 5.300781 17.066406 5.300781 18.988281 5.300781 C 19.207031 5.300781 19.207031 5.300781 19.207031 5.085938 C 19.207031 4.410156 19.207031 3.734375 19.207031 3.054688 C 19.207031 2.914062 19.21875 2.90625 19.339844 2.976562 C 21.285156 4.121094 23.230469 5.265625 25.175781 6.414062 C 25.53125 6.621094 25.878906 6.84375 26.230469 7.0625 C 26.265625 7.085938 26.316406 7.097656 26.332031 7.152344 C 26.285156 7.199219 26.226562 7.175781 26.175781 7.175781 C 25.207031 7.179688 24.238281 7.179688 23.265625 7.179688 C 23.109375 7.179688 23.105469 7.179688 23.125 7.339844 C 23.230469 8.257812 23.34375 9.175781 23.453125 10.097656 C 23.558594 11.011719 23.660156 11.929688 23.765625 12.84375 C 23.871094 13.746094 23.984375 14.648438 24.089844 15.550781 C 24.179688 16.339844 24.265625 17.128906 24.351562 17.921875 C 24.453125 18.808594 24.554688 19.703125 24.652344 20.589844 C 24.730469 21.300781 24.808594 22.011719 24.882812 22.71875 C 24.890625 22.808594 24.925781 22.871094 25 22.917969 C 25.085938 22.96875 25.167969 23.035156 25.257812 23.082031 C 25.367188 23.144531 25.394531 23.21875 25.371094 23.34375 C 25.28125 23.753906 25.199219 24.167969 25.128906 24.582031 C 25.105469 24.710938 25.050781 24.746094 24.925781 24.746094 C 23.132812 24.742188 21.335938 24.742188 19.542969 24.742188 C 19.082031 24.742188 18.625 24.742188 18.164062 24.742188 C 17.976562 24.742188 17.957031 24.71875 17.992188 24.53125 C 18 24.484375 18.035156 24.414062 17.984375 24.390625 C 17.925781 24.367188 17.898438 24.445312 17.863281 24.480469 C 17.800781 24.546875 17.8125 24.621094 17.835938 24.699219 C 17.871094 24.796875 17.851562 24.851562 17.730469 24.847656 C 17.53125 24.839844 17.339844 24.894531 17.144531 24.933594 C 16.929688 24.976562 16.691406 25.019531 16.460938 24.925781 C 16.226562 24.828125 15.972656 24.824219 15.722656 24.855469 C 15.695312 24.859375 15.671875 24.871094 15.648438 24.867188 C 15.527344 24.847656 15.453125 24.859375 15.398438 25.003906 C 15.367188 25.09375 15.242188 25.160156 15.191406 25.265625 C 15.1875 25.277344 15.175781 25.285156 15.167969 25.292969 C 15.132812 25.335938 15.152344 25.425781 15.089844 25.425781 C 15.03125 25.425781 14.996094 25.351562 14.964844 25.304688 C 14.851562 25.117188 14.660156 25.023438 14.496094 24.902344 C 14.402344 24.832031 14.320312 24.757812 14.253906 24.660156 C 14.105469 24.445312 14.097656 24.441406 13.890625 24.574219 C 13.816406 24.625 13.757812 24.679688 13.652344 24.671875 C 13.582031 24.667969 13.558594 24.757812 13.542969 24.8125 C 13.476562 25.011719 13.390625 25.210938 13.378906 25.425781 C 13.378906 25.457031 13.371094 25.488281 13.386719 25.523438 C 13.488281 25.714844 13.4375 25.871094 13.234375 25.972656 C 13.164062 26.007812 13.125 26.085938 13.03125 26.097656 C 12.964844 26.105469 12.914062 26.132812 12.859375 26.074219 C 12.84375 26.054688 12.816406 26.058594 12.785156 26.058594 C 12.539062 26.085938 12.300781 25.933594 12.214844 25.703125 C 12.1875 25.628906 11.945312 25.457031 11.867188 25.46875 C 11.808594 25.476562 11.769531 25.460938 11.726562 25.429688 C 11.628906 25.363281 11.585938 25.25 11.46875 25.195312 C 11.371094 25.152344 11.511719 25.132812 11.523438 25.078125 C 11.402344 25.019531 11.339844 24.914062 11.320312 24.78125 C 11.308594 24.714844 11.269531 24.695312 11.199219 24.722656 C 11.117188 24.761719 11.050781 24.753906 11.050781 24.632812 C 11.050781 24.515625 10.949219 24.5 10.871094 24.492188 C 10.785156 24.484375 10.753906 24.457031 10.78125 24.375 C 10.789062 24.351562 10.796875 24.324219 10.78125 24.300781 C 10.667969 24.117188 10.625 23.898438 10.503906 23.71875 C 10.46875 23.667969 10.4375 23.617188 10.367188 23.621094 C 10.355469 23.621094 10.332031 23.625 10.332031 23.621094 C 10.265625 23.429688 10.152344 23.578125 10.066406 23.585938 C 9.992188 23.589844 9.933594 23.589844 9.902344 23.527344 C 9.871094 23.476562 9.855469 23.480469 9.820312 23.515625 C 9.734375 23.605469 9.667969 23.589844 9.617188 23.480469 C 9.605469 23.457031 9.585938 23.429688 9.566406 23.425781 C 9.460938 23.398438 9.425781 23.324219 9.421875 23.226562 C 9.417969 23.195312 9.40625 23.171875 9.378906 23.152344 C 9.175781 23.023438 9.03125 22.816406 8.804688 22.722656 C 8.777344 22.710938 8.769531 22.691406 8.761719 22.664062 C 8.734375 22.589844 8.664062 22.574219 8.605469 22.59375 C 8.308594 22.671875 8.003906 22.597656 7.707031 22.613281 C 7.667969 22.617188 7.648438 22.585938 7.625 22.5625 C 7.59375 22.53125 7.558594 22.53125 7.539062 22.566406 C 7.492188 22.640625 7.4375 22.632812 7.355469 22.550781 C 7.394531 22.707031 7.320312 22.738281 7.230469 22.734375 C 7.050781 22.730469 6.875 22.8125 6.695312 22.738281 C 6.6875 22.734375 6.664062 22.738281 6.660156 22.746094 C 6.601562 22.84375 6.492188 22.820312 6.410156 22.859375 C 6.3125 22.898438 6.234375 22.90625 6.140625 22.878906 C 6.003906 22.839844 5.863281 22.855469 5.726562 22.875 C 5.679688 22.882812 5.609375 22.898438 5.589844 22.875 C 5.492188 22.761719 5.382812 22.820312 5.273438 22.828125 C 5.15625 22.835938 5.105469 22.890625 5.082031 22.992188 C 5.0625 23.085938 5.039062 23.175781 5.019531 23.265625 C 5.003906 23.332031 4.984375 23.390625 4.910156 23.414062 C 4.882812 23.421875 4.855469 23.441406 4.855469 23.476562 C 4.847656 23.628906 4.75 23.761719 4.765625 23.921875 C 4.773438 23.984375 4.761719 24.054688 4.710938 24.113281 C 4.667969 24.089844 4.679688 24.050781 4.6875 24.019531 C 4.71875 23.835938 4.699219 23.648438 4.6875 23.460938 C 4.675781 23.320312 4.6875 23.183594 4.75 23.050781 C 4.796875 22.957031 4.820312 22.851562 4.8125 22.742188 C 4.804688 22.660156 4.839844 22.585938 4.863281 22.507812 C 4.984375 22.152344 5.183594 21.835938 5.335938 21.492188 C 5.601562 20.886719 5.664062 20.253906 5.597656 19.597656 C 5.566406 19.28125 5.4375 18.996094 5.386719 18.6875 C 5.351562 18.46875 5.316406 18.25 5.191406 18.0625 C 5.117188 17.945312 5.027344 17.84375 4.890625 17.800781 C 4.765625 17.761719 4.761719 17.636719 4.71875 17.546875 C 4.691406 17.492188 4.773438 17.507812 4.808594 17.507812 C 4.988281 17.511719 5.074219 17.449219 5.125 17.285156 C 5.0625 17.265625 5.039062 17.429688 4.957031 17.316406 C 4.957031 17.316406 4.910156 17.367188 4.90625 17.410156 C 4.90625 17.445312 4.898438 17.492188 4.855469 17.480469 C 4.800781 17.464844 4.808594 17.410156 4.828125 17.375 C 4.863281 17.3125 4.898438 17.25 4.945312 17.191406 C 4.972656 17.15625 4.972656 17.136719 4.945312 17.105469 C 4.960938 17.074219 4.980469 17.035156 5 17 Z M 5.0625 16.644531 C 4.980469 16.707031 4.882812 16.726562 4.882812 16.839844 C 4.882812 16.859375 4.867188 16.878906 4.84375 16.882812 C 4.796875 16.890625 4.738281 16.933594 4.773438 16.953125 C 4.847656 16.992188 4.800781 17.15625 4.941406 17.109375 C 4.960938 17.074219 4.980469 17.035156 5 17 C 5.023438 16.886719 5.082031 16.78125 5.0625 16.644531 Z M 5.0625 16.644531 " fill-opacity="1" fill-rule="nonzero"/></g></svg>
