<svg xmlns="http://www.w3.org/2000/svg" width="40" zoomAndPan="magnify" viewBox="0 0 30 30.000001" height="40"
     preserveAspectRatio="xMidYMid meet" version="1.0"><defs><clipPath id="39710ca60c"><path d="M 7.785156 2.902344 L 22.300781 2.902344 L 22.300781 26.128906 L 7.785156 26.128906 Z M 7.785156 2.902344 " clip-rule="nonzero"/></clipPath></defs><g clip-path="url(#39710ca60c)"><path fill="#014d4e" d="M 21.855469 21.675781 C 21.789062 21.582031 21.75 21.472656 21.675781 21.390625 C 21.515625 21.242188 21.351562 21.082031 21.257812 20.878906 C 21.15625 20.46875 21.058594 20.046875 21.109375 19.621094 C 21.113281 19.445312 21.140625 19.246094 21.046875 19.089844 C 20.964844 18.984375 20.871094 18.878906 20.832031 18.746094 C 20.765625 18.386719 20.84375 18 20.78125 17.640625 C 20.765625 17.460938 20.796875 17.277344 20.835938 17.101562 C 20.871094 16.929688 20.914062 16.761719 20.992188 16.605469 C 21.046875 16.496094 21.140625 16.40625 21.175781 16.289062 C 21.226562 16.085938 21.300781 15.886719 21.296875 15.675781 C 21.289062 15.507812 21.226562 15.351562 21.140625 15.21875 C 21.074219 15.085938 21.046875 14.929688 21.082031 14.785156 C 21.1875 14.425781 21.148438 14.421875 21.035156 14.078125 C 21.007812 13.964844 21.023438 13.847656 20.992188 13.730469 C 20.957031 13.589844 20.949219 13.4375 20.886719 13.304688 C 20.761719 13.117188 20.59375 12.949219 20.421875 12.800781 C 20.058594 12.589844 19.628906 12.777344 19.339844 12.375 C 19.257812 12.265625 19.253906 12.148438 19.183594 12.039062 C 19.117188 11.964844 19.035156 11.914062 18.964844 11.84375 C 18.742188 11.65625 18.558594 11.402344 18.507812 11.117188 C 18.472656 10.910156 18.554688 10.707031 18.539062 10.503906 C 18.527344 10.316406 18.445312 10.15625 18.378906 9.988281 C 18.328125 9.847656 18.269531 9.710938 18.1875 9.589844 C 18.125 9.496094 18.070312 9.398438 18 9.316406 C 17.949219 9.253906 17.878906 9.222656 17.820312 9.171875 C 17.464844 8.800781 17.359375 8.480469 17.339844 7.976562 C 17.320312 7.765625 17.253906 7.558594 17.214844 7.351562 C 17.171875 7.148438 17.121094 6.902344 16.933594 6.789062 C 16.839844 6.746094 16.742188 6.695312 16.683594 6.609375 C 16.566406 6.425781 16.652344 6.214844 16.699219 6.023438 C 16.730469 5.933594 16.761719 5.84375 16.796875 5.753906 C 16.863281 5.605469 16.964844 5.480469 17.042969 5.34375 C 17.132812 5.140625 16.964844 4.945312 16.921875 4.75 C 16.855469 4.527344 16.875 4.257812 16.6875 4.089844 C 16.621094 4.042969 16.542969 4.011719 16.484375 3.957031 C 16.425781 3.898438 16.402344 3.816406 16.347656 3.75 C 16.222656 3.691406 16.082031 3.773438 15.949219 3.761719 C 15.695312 3.757812 15.453125 3.640625 15.265625 3.472656 C 15.042969 3.316406 14.792969 3.226562 14.535156 3.167969 C 14.433594 3.140625 14.363281 3.054688 14.285156 2.996094 C 14.164062 2.921875 14.015625 2.910156 13.878906 2.917969 C 13.773438 2.917969 13.695312 3 13.632812 3.078125 C 13.363281 3.386719 13.171875 3.589844 13.203125 4.035156 C 13.246094 4.253906 13.164062 4.46875 13.179688 4.6875 C 13.210938 4.820312 13.296875 4.929688 13.328125 5.0625 C 13.410156 5.359375 13.117188 5.546875 13 5.78125 C 13.011719 5.851562 13.070312 5.886719 13.117188 5.9375 C 13.195312 6.011719 13.246094 6.117188 13.222656 6.226562 C 13.105469 6.78125 12.925781 6.996094 12.496094 7.339844 C 12.335938 7.460938 12.296875 7.664062 12.210938 7.835938 C 12.136719 7.992188 11.992188 8.101562 11.898438 8.25 C 11.804688 8.382812 11.730469 8.535156 11.675781 8.691406 C 11.59375 8.925781 11.585938 9.175781 11.480469 9.398438 C 11.410156 9.535156 11.292969 9.628906 11.207031 9.75 C 11.160156 9.820312 11.132812 9.898438 11.105469 9.976562 C 11.042969 10.132812 11.054688 10.300781 11.058594 10.46875 C 11.078125 10.878906 10.925781 11.136719 10.707031 11.460938 C 10.628906 11.628906 10.597656 11.8125 10.523438 11.984375 C 10.464844 12.167969 10.421875 12.355469 10.308594 12.519531 C 10.1875 12.695312 10.058594 12.863281 9.957031 13.046875 C 9.890625 13.222656 9.855469 13.410156 9.75 13.574219 C 9.652344 13.75 9.542969 13.925781 9.375 14.046875 C 9.265625 14.132812 9.144531 14.191406 9.039062 14.285156 C 8.957031 14.351562 8.863281 14.402344 8.8125 14.496094 C 8.777344 14.570312 8.792969 14.65625 8.796875 14.734375 C 8.800781 14.816406 8.808594 14.90625 8.851562 14.980469 C 9.085938 15.167969 9.316406 15.300781 9.300781 15.640625 C 9.328125 15.65625 9.34375 15.683594 9.351562 15.71875 C 9.355469 15.761719 9.335938 15.800781 9.300781 15.828125 C 9.296875 15.90625 9.257812 15.976562 9.230469 16.050781 C 9.195312 16.167969 9.148438 16.273438 9.085938 16.371094 C 9.007812 16.519531 8.898438 16.648438 8.851562 16.8125 C 8.792969 17.171875 8.886719 17.570312 8.707031 17.90625 C 8.585938 18.089844 8.355469 18.160156 8.175781 18.269531 C 8.019531 18.34375 7.847656 18.4375 7.785156 18.613281 C 7.847656 18.660156 7.917969 18.695312 7.984375 18.730469 C 8.074219 18.761719 8.167969 18.765625 8.253906 18.792969 C 8.34375 18.828125 8.425781 18.878906 8.515625 18.914062 C 8.757812 19.027344 9.019531 19.09375 9.25 19.238281 C 9.367188 19.316406 9.480469 19.386719 9.589844 19.46875 C 9.773438 19.617188 9.90625 19.8125 10.039062 19.992188 C 10.289062 20.335938 10.367188 20.773438 10.671875 21.082031 C 10.816406 21.246094 11.011719 21.359375 11.199219 21.464844 C 11.367188 21.566406 11.476562 21.742188 11.585938 21.898438 C 11.726562 22.132812 11.667969 22.445312 11.867188 22.648438 C 12 22.828125 12.21875 22.894531 12.359375 23.054688 C 12.542969 23.246094 12.546875 23.535156 12.722656 23.734375 C 12.882812 23.921875 13.136719 23.964844 13.320312 24.121094 C 13.480469 24.234375 13.609375 24.382812 13.769531 24.496094 C 13.902344 24.585938 14.070312 24.601562 14.203125 24.679688 C 14.492188 24.847656 14.746094 25.058594 14.992188 25.277344 C 15.140625 25.433594 15.308594 25.578125 15.515625 25.644531 C 15.632812 25.679688 15.757812 25.710938 15.878906 25.722656 C 16.195312 25.722656 16.511719 25.617188 16.832031 25.679688 C 17.101562 25.734375 17.320312 25.953125 17.585938 26.027344 C 17.84375 26.03125 18.105469 25.976562 18.363281 26.039062 C 18.476562 26.066406 18.582031 26.121094 18.699219 26.109375 C 18.828125 26.101562 18.945312 26.042969 19.070312 26.023438 C 19.175781 26.003906 19.285156 26.015625 19.390625 26.027344 C 19.558594 26.027344 19.738281 26.003906 19.878906 25.910156 C 19.917969 25.875 19.984375 25.855469 20 25.800781 C 20.023438 25.6875 20.015625 25.566406 20.074219 25.464844 C 20.105469 25.410156 20.148438 25.367188 20.195312 25.324219 C 20.269531 25.261719 20.355469 25.214844 20.441406 25.164062 C 20.582031 25.097656 20.734375 25.003906 20.792969 24.851562 C 20.871094 24.664062 20.980469 24.488281 21.113281 24.324219 C 21.222656 24.171875 21.375 24.066406 21.511719 23.9375 C 21.597656 23.847656 21.648438 23.734375 21.703125 23.621094 C 21.789062 23.453125 21.953125 23.332031 22.03125 23.160156 C 22.121094 22.96875 22.171875 22.75 22.199219 22.53125 C 22.210938 22.34375 22.136719 22.167969 22.058594 21.996094 C 22.003906 21.875 21.925781 21.777344 21.855469 21.675781 Z M 21.855469 21.675781 " fill-opacity="1" fill-rule="nonzero"/></g></svg>
