<svg xmlns="http://www.w3.org/2000/svg" xmlns:xlink="http://www.w3.org/1999/xlink" width="40" zoomAndPan="magnify" viewBox="0 0 30 30.000001" height="40" preserveAspectRatio="xMidYMid meet" version="1.0"><defs><clipPath id="cee873d0dd"><path d="M 11 10 L 26.613281 10 L 26.613281 24.574219 L 11 24.574219 Z M 11 10 " clip-rule="nonzero"/></clipPath><clipPath id="1cf406b847"><path d="M 3.386719 4.253906 L 13 4.253906 L 13 10 L 3.386719 10 Z M 3.386719 4.253906 " clip-rule="nonzero"/></clipPath></defs><path fill="#014d4e" d="M 22.242188 17.433594 C 22.167969 17.421875 21.957031 17.421875 21.902344 17.476562 C 21.839844 17.539062 21.980469 17.621094 22.058594 17.628906 C 22.0625 17.640625 22.070312 17.65625 22.074219 17.671875 C 22.144531 17.621094 22.214844 17.703125 22.273438 17.726562 C 22.347656 17.761719 22.363281 17.730469 22.410156 17.691406 C 22.433594 17.675781 22.527344 17.640625 22.535156 17.628906 C 22.589844 17.523438 22.296875 17.4375 22.242188 17.433594 Z M 22.242188 17.433594 " fill-opacity="1" fill-rule="nonzero"/><path fill="#014d4e" d="M 11.519531 9.398438 C 11.519531 9.398438 11.535156 9.394531 11.542969 9.386719 C 11.625 9.273438 11.433594 9 11.300781 9.074219 C 11.273438 9.109375 11.261719 9.148438 11.269531 9.191406 C 11.335938 9.269531 11.410156 9.34375 11.492188 9.414062 C 11.492188 9.40625 11.511719 9.402344 11.519531 9.398438 Z M 11.519531 9.398438 " fill-opacity="1" fill-rule="nonzero"/><g clip-path="url(#cee873d0dd)"><path fill="#014d4e" d="M 26.40625 20.675781 C 26.355469 20.648438 26.320312 20.613281 26.277344 20.582031 C 26.1875 20.515625 26.207031 20.546875 26.113281 20.5625 C 26.023438 20.578125 25.785156 20.648438 25.703125 20.585938 C 25.675781 20.5625 25.65625 20.472656 25.644531 20.394531 C 25.777344 20.386719 26.015625 20.417969 25.992188 20.269531 C 26.046875 20.273438 26.066406 20.328125 26.113281 20.339844 C 26.140625 20.34375 26.222656 20.3125 26.261719 20.308594 C 26.308594 20.304688 26.363281 20.308594 26.363281 20.25 C 26.363281 20.210938 26.308594 20.140625 26.289062 20.109375 C 26.242188 20.03125 26.25 19.957031 26.195312 19.882812 C 26.125 19.789062 26.042969 19.71875 25.960938 19.628906 C 25.886719 19.542969 25.789062 19.480469 25.703125 19.398438 C 25.628906 19.332031 25.570312 19.257812 25.476562 19.230469 C 25.421875 19.214844 25.421875 19.230469 25.390625 19.179688 C 25.371094 19.148438 25.375 19.101562 25.351562 19.066406 C 25.316406 19.019531 25.238281 18.96875 25.183594 18.9375 C 25.117188 18.894531 25.105469 18.839844 25.0625 18.773438 C 25.042969 18.738281 25.023438 18.699219 24.988281 18.691406 C 24.953125 18.679688 24.894531 18.703125 24.859375 18.710938 C 24.855469 18.65625 24.800781 18.621094 24.761719 18.589844 C 24.703125 18.550781 24.65625 18.496094 24.601562 18.457031 C 24.507812 18.382812 24.433594 18.289062 24.324219 18.246094 C 24.328125 18.246094 24.328125 18.242188 24.332031 18.238281 C 24.289062 18.261719 24.246094 18.289062 24.203125 18.3125 C 24.171875 18.261719 24.117188 18.207031 24.082031 18.183594 C 24.035156 18.152344 23.957031 18.164062 23.902344 18.140625 C 23.832031 18.105469 23.800781 18.042969 23.722656 18.042969 C 23.691406 18.042969 23.671875 18.058594 23.640625 18.054688 C 23.609375 18.050781 23.539062 18.019531 23.507812 18.003906 C 23.535156 18.109375 23.753906 18.273438 23.632812 18.363281 C 23.539062 18.292969 23.480469 18.425781 23.515625 18.5 C 23.550781 18.574219 23.632812 18.648438 23.542969 18.726562 C 23.496094 18.644531 23.421875 18.621094 23.339844 18.605469 C 23.242188 18.585938 23.214844 18.472656 23.132812 18.433594 C 23.101562 18.527344 23.207031 18.605469 23.242188 18.691406 C 23.28125 18.789062 23.246094 18.863281 23.214844 18.964844 C 23.160156 18.910156 23.183594 18.769531 23.097656 18.710938 C 23.078125 18.695312 23.046875 18.699219 23.027344 18.679688 C 23.007812 18.660156 23.007812 18.636719 22.992188 18.617188 C 22.964844 18.582031 22.921875 18.546875 22.882812 18.582031 C 22.933594 18.648438 22.929688 18.71875 22.957031 18.792969 C 22.96875 18.824219 23.003906 18.859375 23.023438 18.894531 C 23.042969 18.929688 23.050781 18.953125 23.074219 18.988281 C 23.105469 19.046875 23.105469 19.03125 23.074219 19.085938 C 23.058594 19.113281 23.03125 19.140625 23.011719 19.160156 C 22.988281 19.179688 22.953125 19.179688 22.945312 19.214844 C 22.921875 19.175781 22.902344 19.113281 22.890625 19.066406 C 22.863281 18.996094 22.878906 18.972656 22.808594 18.933594 C 22.789062 18.921875 22.738281 18.886719 22.726562 18.886719 C 22.695312 18.886719 22.703125 18.898438 22.671875 18.910156 C 22.621094 18.929688 22.609375 18.949219 22.554688 18.933594 C 22.507812 18.921875 22.488281 18.878906 22.4375 18.921875 C 22.40625 18.949219 22.402344 18.996094 22.378906 19.027344 C 22.328125 19.082031 22.269531 19.082031 22.242188 19.160156 C 22.21875 19.234375 22.296875 19.449219 22.140625 19.40625 C 22.089844 19.390625 22.0625 19.339844 22 19.339844 C 21.960938 19.339844 21.910156 19.367188 21.878906 19.335938 C 21.796875 19.265625 21.902344 19.214844 21.964844 19.210938 C 22.011719 19.207031 22.03125 19.214844 22.054688 19.179688 C 22.070312 19.15625 22.0625 19.082031 22.050781 19.058594 C 22.011719 18.992188 21.902344 19.050781 21.90625 18.933594 C 21.910156 18.847656 21.976562 18.867188 22.058594 18.875 C 22.097656 18.878906 22.152344 18.902344 22.1875 18.902344 C 22.234375 18.902344 22.21875 18.898438 22.261719 18.867188 C 22.351562 18.8125 22.433594 18.765625 22.5 18.683594 C 22.5625 18.617188 22.582031 18.539062 22.65625 18.480469 C 22.730469 18.425781 22.773438 18.363281 22.835938 18.289062 C 22.902344 18.199219 22.984375 18.113281 23.078125 18.042969 C 23.15625 17.984375 23.183594 17.929688 23.183594 17.835938 C 23.183594 17.796875 23.175781 17.78125 23.203125 17.742188 C 23.222656 17.714844 23.285156 17.6875 23.28125 17.648438 C 23.277344 17.585938 23.113281 17.59375 23.074219 17.617188 C 23.042969 17.632812 23.039062 17.671875 23.011719 17.6875 C 22.976562 17.707031 22.949219 17.691406 22.914062 17.691406 C 22.847656 17.6875 22.753906 17.691406 22.695312 17.730469 C 22.628906 17.78125 22.636719 17.855469 22.542969 17.867188 C 22.488281 17.871094 22.386719 17.820312 22.363281 17.890625 C 22.296875 17.933594 22.3125 18.054688 22.25 18.078125 C 22.21875 18.09375 22.183594 18.0625 22.148438 18.089844 C 22.117188 18.113281 22.125 18.164062 22.105469 18.1875 C 22.085938 18.214844 21.96875 18.292969 21.941406 18.292969 C 21.886719 18.292969 21.878906 18.207031 21.875 18.160156 C 21.804688 18.160156 21.746094 18.148438 21.675781 18.160156 C 21.617188 18.164062 21.546875 18.203125 21.492188 18.1875 C 21.414062 18.167969 21.417969 18.117188 21.464844 18.074219 C 21.527344 18.015625 21.652344 17.949219 21.726562 17.976562 C 21.792969 17.964844 21.855469 17.953125 21.921875 17.945312 C 21.933594 17.910156 21.945312 17.875 21.945312 17.839844 C 21.941406 17.769531 21.886719 17.730469 21.847656 17.675781 C 21.800781 17.617188 21.777344 17.597656 21.8125 17.523438 C 21.824219 17.5 21.851562 17.476562 21.855469 17.449219 C 21.859375 17.417969 21.832031 17.390625 21.847656 17.363281 C 21.859375 17.34375 21.964844 17.328125 21.996094 17.320312 C 22.0625 17.300781 22.113281 17.265625 22.171875 17.238281 C 22.214844 17.226562 22.253906 17.238281 22.292969 17.230469 C 22.316406 17.226562 22.316406 17.195312 22.34375 17.195312 C 22.386719 17.191406 22.492188 17.28125 22.535156 17.304688 C 22.601562 17.339844 22.804688 17.488281 22.882812 17.410156 C 22.964844 17.328125 22.730469 17.257812 22.703125 17.226562 C 22.675781 17.191406 22.679688 17.128906 22.652344 17.089844 C 22.621094 17.050781 22.589844 17.027344 22.550781 17 C 22.511719 16.972656 22.457031 16.945312 22.445312 16.886719 C 22.441406 16.859375 22.464844 16.8125 22.460938 16.78125 C 22.421875 16.570312 22.109375 16.617188 22.023438 16.433594 C 21.96875 16.503906 21.945312 16.519531 21.929688 16.609375 C 21.921875 16.683594 21.929688 16.664062 21.867188 16.679688 C 21.816406 16.695312 21.777344 16.695312 21.726562 16.71875 C 21.703125 16.640625 21.691406 16.617188 21.632812 16.574219 C 21.609375 16.554688 21.59375 16.523438 21.5625 16.511719 C 21.527344 16.488281 21.488281 16.511719 21.472656 16.46875 C 21.484375 16.484375 21.511719 16.390625 21.507812 16.390625 C 21.53125 16.367188 21.546875 16.359375 21.597656 16.378906 C 21.667969 16.402344 21.695312 16.433594 21.738281 16.351562 C 21.761719 16.300781 21.765625 16.226562 21.742188 16.175781 C 21.710938 16.109375 21.667969 16.109375 21.703125 16.039062 C 21.726562 15.992188 21.769531 15.972656 21.726562 15.917969 C 21.675781 15.855469 21.683594 15.914062 21.632812 15.933594 C 21.601562 15.945312 21.523438 15.921875 21.484375 15.921875 C 21.417969 15.929688 21.363281 15.933594 21.410156 15.871094 C 21.464844 15.792969 21.648438 15.792969 21.519531 15.710938 C 21.414062 15.640625 21.316406 15.554688 21.207031 15.488281 C 21.109375 15.425781 20.996094 15.398438 20.96875 15.292969 C 20.953125 15.238281 20.960938 15.214844 20.914062 15.179688 C 20.871094 15.148438 20.804688 15.140625 20.757812 15.128906 C 20.640625 15.105469 20.621094 15.097656 20.535156 15.183594 C 20.464844 15.152344 20.390625 15.128906 20.316406 15.148438 C 20.242188 15.167969 20.21875 15.195312 20.148438 15.164062 C 20.082031 15.140625 20.054688 15.097656 19.980469 15.097656 C 19.925781 15.097656 19.863281 15.121094 19.808594 15.070312 C 19.785156 15.058594 19.726562 15.035156 19.675781 15.015625 C 19.625 14.855469 19.5625 14.640625 19.4375 14.792969 C 19.308594 14.648438 19.445312 14.414062 19.21875 14.34375 C 19.164062 14.394531 19.175781 14.480469 19.128906 14.546875 C 19.046875 14.429688 18.996094 14.265625 18.886719 14.152344 C 18.765625 14.03125 18.617188 14.023438 18.5 13.941406 C 18.371094 13.851562 18.296875 13.742188 18.140625 13.789062 C 18.015625 13.828125 17.894531 13.992188 17.847656 14.125 C 17.6875 13.976562 17.546875 14.320312 17.394531 14.300781 C 17.457031 14.226562 17.585938 14.035156 17.578125 13.941406 C 17.574219 13.894531 17.519531 13.859375 17.515625 13.808594 C 17.511719 13.75 17.546875 13.71875 17.558594 13.667969 C 17.59375 13.574219 17.578125 13.476562 17.683594 13.429688 C 17.792969 13.386719 17.828125 13.441406 17.871094 13.300781 C 17.765625 13.21875 17.613281 13.304688 17.503906 13.355469 C 17.316406 13.4375 17.1875 13.523438 17.058594 13.683594 C 17.003906 13.753906 16.953125 13.824219 16.859375 13.816406 C 16.800781 13.8125 16.796875 13.753906 16.710938 13.792969 C 16.621094 13.839844 16.632812 13.9375 16.578125 14 C 16.542969 14.042969 16.4375 14.101562 16.394531 14.125 C 16.332031 13.976562 16.183594 14.082031 16.101562 14.125 C 16.09375 14 15.972656 14.066406 15.910156 14.117188 C 15.8125 14.195312 15.820312 14.21875 15.707031 14.207031 C 15.65625 14.199219 15.683594 14.171875 15.617188 14.1875 C 15.589844 14.195312 15.519531 14.246094 15.5 14.265625 C 15.414062 14.339844 15.386719 14.414062 15.261719 14.398438 C 15.023438 14.371094 15.28125 14.195312 15.355469 14.121094 C 15.460938 14.023438 15.425781 13.878906 15.515625 13.753906 C 15.558594 13.6875 15.589844 13.683594 15.578125 13.597656 C 15.570312 13.53125 15.5 13.464844 15.5625 13.410156 C 15.671875 13.320312 15.851562 13.628906 15.890625 13.414062 C 15.90625 13.335938 15.867188 13.3125 15.890625 13.242188 C 15.910156 13.183594 15.964844 13.175781 15.945312 13.09375 C 15.929688 13.019531 15.890625 13.007812 15.890625 12.925781 C 15.890625 12.871094 15.9375 12.808594 15.902344 12.753906 C 15.871094 12.710938 15.78125 12.707031 15.738281 12.699219 C 15.636719 12.6875 15.648438 12.710938 15.570312 12.742188 C 15.484375 12.769531 15.515625 12.785156 15.425781 12.734375 C 15.386719 12.710938 15.320312 12.660156 15.296875 12.652344 C 15.207031 12.664062 15.117188 12.6875 15.023438 12.707031 C 15.003906 12.664062 14.976562 12.632812 14.953125 12.585938 C 14.867188 12.46875 14.886719 12.457031 14.773438 12.488281 C 14.585938 12.535156 14.507812 12.710938 14.308594 12.699219 C 14.136719 12.691406 13.984375 12.753906 13.824219 12.761719 C 13.757812 12.765625 13.65625 12.699219 13.59375 12.714844 C 13.523438 12.730469 13.476562 12.84375 13.417969 12.882812 C 13.421875 12.78125 13.324219 12.71875 13.292969 12.621094 C 13.273438 12.546875 13.273438 12.421875 13.269531 12.347656 C 13.25 11.957031 13.742188 12.046875 13.933594 11.792969 C 14.058594 11.636719 14.089844 11.519531 14.292969 11.480469 C 14.351562 11.464844 14.417969 11.464844 14.480469 11.449219 C 14.570312 11.429688 14.636719 11.378906 14.71875 11.34375 C 14.722656 11.195312 14.589844 11.125 14.53125 11.007812 C 14.472656 10.878906 14.410156 10.65625 14.28125 10.574219 C 14.234375 10.605469 14.210938 10.660156 14.183594 10.703125 C 14.136719 10.640625 14.042969 10.609375 14.007812 10.6875 C 13.980469 10.757812 14.054688 10.839844 14.0625 10.902344 C 13.996094 10.933594 13.910156 10.898438 13.839844 10.929688 C 13.75 10.972656 13.726562 11.035156 13.671875 11.125 C 13.507812 11.101562 13.378906 10.894531 13.273438 11.089844 C 13.25 11.140625 13.246094 11.25 13.191406 11.28125 C 13.109375 11.324219 13.09375 11.261719 13.027344 11.222656 C 12.847656 11.121094 12.816406 11.253906 12.667969 11.304688 C 12.578125 11.335938 12.542969 11.277344 12.460938 11.261719 C 12.40625 11.253906 12.339844 11.265625 12.28125 11.253906 C 12.1875 11.242188 11.988281 11.121094 11.933594 11.234375 C 11.972656 11.28125 12.074219 11.390625 12.117188 11.394531 C 12.152344 11.453125 12.1875 11.515625 12.214844 11.574219 C 12.136719 11.609375 12.050781 11.644531 11.96875 11.675781 C 11.847656 11.648438 11.8125 11.855469 11.789062 11.945312 C 11.75 11.941406 11.703125 11.949219 11.675781 11.96875 C 11.609375 11.964844 11.515625 12.046875 11.496094 12.109375 C 11.488281 12.148438 11.519531 12.183594 11.515625 12.222656 C 11.507812 12.292969 11.488281 12.265625 11.453125 12.316406 C 11.402344 12.386719 11.371094 12.417969 11.433594 12.480469 C 11.464844 12.523438 11.585938 12.582031 11.636719 12.601562 C 11.78125 12.671875 11.9375 12.507812 12.105469 12.523438 C 12.167969 12.527344 12.289062 12.550781 12.335938 12.578125 C 12.46875 12.652344 12.355469 12.675781 12.375 12.769531 C 12.390625 12.835938 12.488281 12.824219 12.503906 12.898438 C 12.523438 12.972656 12.421875 13.082031 12.386719 13.144531 C 12.460938 13.199219 12.589844 13.183594 12.679688 13.1875 C 12.707031 13.296875 12.523438 13.316406 12.46875 13.382812 C 12.515625 13.445312 12.539062 13.460938 12.539062 13.546875 C 12.542969 13.652344 12.496094 13.621094 12.589844 13.679688 C 12.636719 13.714844 12.71875 13.675781 12.667969 13.789062 C 12.652344 13.816406 12.609375 13.816406 12.582031 13.847656 C 12.5625 13.878906 12.5625 13.921875 12.539062 13.945312 C 12.488281 14.007812 12.433594 14.007812 12.394531 14.082031 C 12.359375 14.144531 12.351562 14.207031 12.339844 14.273438 C 12.332031 14.316406 12.324219 14.433594 12.269531 14.453125 C 12.203125 14.480469 12.1875 14.378906 12.097656 14.402344 C 12.050781 14.414062 11.949219 14.542969 11.949219 14.601562 C 11.949219 14.6875 12.078125 14.746094 12.085938 14.851562 C 12.160156 14.871094 12.230469 14.804688 12.300781 14.832031 C 12.371094 14.851562 12.371094 14.921875 12.421875 14.96875 C 12.476562 15.023438 12.496094 15.011719 12.5625 15.050781 C 12.632812 15.089844 12.605469 15.148438 12.671875 15.183594 C 12.726562 15.214844 12.832031 15.132812 12.824219 15.253906 C 12.816406 15.304688 12.699219 15.335938 12.699219 15.390625 C 12.699219 15.445312 12.824219 15.472656 12.800781 15.546875 C 12.789062 15.605469 12.648438 15.589844 12.589844 15.609375 C 12.519531 15.628906 12.445312 15.660156 12.496094 15.75 C 12.535156 15.820312 12.671875 15.800781 12.753906 15.804688 C 12.757812 15.871094 12.707031 15.933594 12.714844 15.992188 C 12.714844 16.074219 12.769531 16.140625 12.742188 16.226562 C 12.605469 16.203125 12.5 16.074219 12.367188 16.042969 C 12.285156 16.023438 12.160156 16.027344 12.128906 16.085938 C 12.074219 16.175781 12.160156 16.226562 12.167969 16.316406 C 12.171875 16.390625 12.113281 16.402344 12.101562 16.464844 C 12.097656 16.515625 12.128906 16.570312 12.152344 16.617188 C 12.230469 16.773438 12.261719 16.933594 12.429688 16.789062 C 12.484375 16.835938 12.460938 16.882812 12.453125 16.945312 C 12.449219 17.050781 12.46875 17.054688 12.488281 17.140625 C 12.515625 17.230469 12.519531 17.253906 12.449219 17.308594 C 12.359375 17.382812 12.316406 17.320312 12.214844 17.292969 C 12.136719 17.273438 11.855469 17.214844 11.84375 17.320312 C 11.839844 17.359375 11.964844 17.523438 12.039062 17.617188 C 11.984375 17.683594 11.929688 17.742188 11.875 17.800781 C 11.863281 17.820312 11.867188 17.929688 11.882812 17.988281 C 11.914062 18.085938 11.96875 18.054688 12.042969 18.125 C 12.105469 18.183594 12.140625 18.296875 12.1875 18.378906 C 12.226562 18.453125 12.265625 18.5625 12.285156 18.644531 C 12.304688 18.738281 12.335938 18.859375 12.332031 18.953125 C 12.324219 19.066406 12.285156 19.132812 12.359375 19.230469 C 12.410156 19.296875 12.503906 19.335938 12.550781 19.410156 C 12.597656 19.488281 12.597656 19.578125 12.667969 19.644531 C 12.71875 19.6875 12.773438 19.679688 12.832031 19.722656 C 12.875 19.757812 12.90625 19.816406 12.957031 19.851562 C 13.039062 19.917969 13.160156 19.90625 13.277344 19.875 C 13.285156 19.945312 13.214844 20.101562 13.246094 20.136719 C 13.292969 20.183594 13.410156 20.09375 13.464844 20.125 C 13.539062 20.167969 13.503906 20.300781 13.566406 20.355469 C 13.59375 20.375 13.636719 20.355469 13.671875 20.386719 C 13.6875 20.402344 13.707031 20.472656 13.714844 20.492188 C 13.84375 20.722656 14.128906 20.722656 14.273438 20.929688 C 14.34375 21.027344 14.375 21.097656 14.476562 21.15625 C 14.585938 21.222656 14.714844 21.253906 14.804688 21.363281 C 14.832031 21.402344 14.847656 21.457031 14.894531 21.484375 C 14.953125 21.527344 15.03125 21.496094 15.070312 21.503906 C 15.179688 21.539062 15.320312 21.660156 15.414062 21.734375 C 15.46875 21.777344 15.519531 21.828125 15.570312 21.875 C 15.632812 21.929688 15.664062 21.921875 15.722656 21.949219 C 15.847656 22.003906 15.816406 22.03125 15.867188 22.144531 C 15.925781 22.289062 16.019531 22.246094 16.136719 22.304688 C 16.1875 22.332031 16.214844 22.386719 16.265625 22.414062 C 16.347656 22.464844 16.363281 22.414062 16.441406 22.414062 C 16.578125 22.414062 16.675781 22.578125 16.796875 22.597656 C 16.878906 22.613281 16.992188 22.527344 16.960938 22.703125 C 16.9375 22.796875 16.90625 22.777344 16.9375 22.863281 C 16.953125 22.902344 17.003906 22.9375 17.023438 22.980469 C 17.039062 23.011719 17.039062 23.105469 17.054688 23.121094 C 17.101562 23.167969 17.15625 23.132812 17.226562 23.121094 C 17.320312 23.101562 17.355469 23.109375 17.457031 23.128906 C 17.605469 23.15625 17.730469 23.125 17.867188 23.167969 C 17.921875 23.1875 18.03125 23.222656 18.136719 23.238281 C 18.1875 23.292969 18.242188 23.351562 18.289062 23.414062 C 18.300781 23.433594 18.355469 23.492188 18.375 23.523438 C 18.554688 23.441406 18.578125 23.503906 18.742188 23.578125 C 18.90625 23.652344 19.097656 23.636719 19.234375 23.769531 C 19.308594 23.730469 19.339844 23.496094 19.445312 23.535156 C 19.5 23.558594 19.476562 23.640625 19.53125 23.667969 C 19.570312 23.679688 19.65625 23.625 19.714844 23.636719 C 19.847656 23.65625 19.875 23.789062 19.984375 23.851562 C 20.042969 23.882812 20.101562 23.882812 20.167969 23.917969 C 20.21875 23.949219 20.265625 23.992188 20.316406 24.027344 C 20.371094 24.0625 20.429688 24.117188 20.488281 24.132812 C 20.570312 24.15625 20.675781 24.132812 20.753906 24.152344 C 20.890625 24.089844 20.808594 24.046875 20.9375 24.132812 C 20.972656 24.15625 21.011719 24.191406 21.050781 24.203125 C 21.140625 24.222656 21.117188 24.199219 21.183594 24.152344 C 21.328125 24.070312 21.617188 24.148438 21.792969 24.199219 C 21.914062 24.230469 22.03125 24.253906 22.128906 24.347656 C 22.203125 24.414062 22.261719 24.496094 22.363281 24.535156 C 22.382812 24.546875 22.421875 24.574219 22.441406 24.574219 C 22.511719 24.574219 22.460938 24.5 22.550781 24.523438 C 22.597656 24.539062 22.605469 24.601562 22.628906 24.621094 C 22.683594 24.660156 22.660156 24.644531 22.730469 24.660156 C 22.855469 24.679688 22.984375 24.703125 23.105469 24.734375 C 23.210938 24.757812 23.171875 24.757812 23.257812 24.683594 C 23.300781 24.644531 23.332031 24.628906 23.359375 24.574219 C 23.441406 24.769531 23.539062 24.722656 23.722656 24.699219 C 23.816406 24.683594 23.933594 24.675781 24.019531 24.648438 C 24.089844 24.625 24.140625 24.578125 24.199219 24.550781 C 24.195312 24.492188 24.183594 24.4375 24.195312 24.382812 C 24.257812 24.375 24.339844 24.4375 24.386719 24.4375 C 24.539062 24.429688 24.46875 24.335938 24.488281 24.246094 C 24.503906 24.171875 24.550781 24.164062 24.597656 24.097656 C 24.671875 24.003906 24.652344 23.984375 24.765625 23.960938 C 24.710938 23.734375 24.496094 23.660156 24.300781 23.632812 C 24.363281 23.726562 24.488281 23.835938 24.472656 23.949219 C 24.46875 23.945312 24.464844 23.933594 24.457031 23.929688 C 24.4375 23.949219 24.398438 23.953125 24.382812 23.972656 C 24.347656 23.933594 23.980469 23.542969 23.992188 23.730469 C 23.953125 23.714844 23.902344 23.722656 23.867188 23.746094 C 23.8125 23.691406 23.8125 23.585938 23.773438 23.511719 C 23.742188 23.449219 23.703125 23.398438 23.683594 23.332031 C 23.683594 23.332031 23.699219 23.347656 23.703125 23.351562 C 23.753906 23.320312 23.8125 23.332031 23.867188 23.347656 C 23.902344 23.304688 23.972656 23.125 23.953125 23.089844 C 23.917969 23.03125 23.816406 23.074219 23.78125 22.992188 C 23.773438 22.960938 23.777344 22.890625 23.777344 22.828125 C 23.878906 22.816406 23.976562 22.8125 24.082031 22.808594 C 24.074219 22.808594 24.074219 22.808594 24.070312 22.796875 C 24.105469 22.785156 24.175781 22.746094 24.214844 22.761719 C 24.25 22.777344 24.25 22.835938 24.28125 22.855469 C 24.324219 22.890625 24.378906 22.886719 24.429688 22.921875 C 24.488281 22.960938 24.503906 23.03125 24.566406 23.058594 C 24.621094 23.019531 24.703125 22.945312 24.707031 22.882812 C 24.710938 22.796875 24.648438 22.753906 24.667969 22.65625 C 24.675781 22.613281 24.714844 22.613281 24.707031 22.542969 C 24.703125 22.503906 24.660156 22.480469 24.648438 22.4375 C 24.628906 22.375 24.601562 22.210938 24.671875 22.1875 C 24.722656 22.230469 24.761719 22.34375 24.777344 22.414062 C 24.894531 22.390625 24.984375 22.453125 25.042969 22.546875 C 25.105469 22.648438 25.117188 22.710938 25.253906 22.742188 C 25.28125 22.839844 25.316406 22.925781 25.320312 23.03125 C 25.320312 23.085938 25.308594 23.128906 25.316406 23.179688 C 25.332031 23.234375 25.386719 23.257812 25.386719 23.3125 C 25.390625 23.414062 25.316406 23.472656 25.367188 23.578125 C 25.410156 23.679688 25.507812 23.765625 25.515625 23.878906 C 25.601562 23.828125 25.667969 23.765625 25.667969 23.660156 C 25.664062 23.550781 25.539062 23.523438 25.539062 23.421875 C 25.601562 23.40625 25.664062 23.382812 25.71875 23.40625 C 25.730469 23.285156 25.800781 23.144531 25.847656 23.046875 C 25.683594 23.105469 25.738281 22.855469 25.722656 22.785156 C 25.695312 22.648438 25.535156 22.636719 25.554688 22.464844 C 25.601562 22.472656 25.65625 22.472656 25.699219 22.460938 C 25.710938 22.5 25.730469 22.519531 25.769531 22.535156 C 25.828125 22.425781 25.644531 21.988281 25.898438 22.1875 C 26.03125 22.289062 26.160156 22.433594 26.304688 22.226562 C 26.234375 22.09375 26.078125 22.058594 26.03125 21.90625 C 26.003906 21.804688 26.003906 21.867188 26.066406 21.789062 C 26.097656 21.75 26.132812 21.691406 26.171875 21.660156 C 26.097656 21.570312 25.964844 21.566406 25.863281 21.535156 C 25.695312 21.484375 25.785156 21.40625 25.734375 21.253906 C 25.800781 21.226562 25.898438 21.21875 25.953125 21.273438 C 26.023438 21.210938 26.132812 20.917969 26.261719 21.074219 C 26.359375 20.914062 26.332031 20.824219 26.523438 20.832031 C 26.59375 20.726562 26.480469 20.714844 26.40625 20.675781 Z M 26.40625 20.675781 " fill-opacity="1" fill-rule="nonzero"/></g><path fill="#014d4e" d="M 12.097656 8.925781 C 12.007812 9.039062 12.066406 9.15625 11.921875 9.015625 C 11.847656 8.941406 11.882812 8.945312 11.804688 8.980469 C 11.789062 8.984375 11.808594 9.03125 11.78125 9.039062 C 11.738281 9.050781 11.714844 8.992188 11.683594 8.996094 C 11.582031 9.019531 11.730469 9.460938 11.800781 9.515625 C 11.867188 9.570312 11.9375 9.625 12.007812 9.6875 C 11.957031 9.75 11.914062 9.820312 11.867188 9.878906 C 11.785156 9.988281 11.804688 10.039062 11.941406 9.996094 C 11.984375 9.980469 12.019531 9.941406 12.058594 9.941406 C 12.105469 9.941406 12.148438 9.984375 12.203125 9.984375 C 12.320312 9.984375 12.289062 9.910156 12.351562 9.824219 C 12.414062 10.046875 12.648438 10 12.832031 9.945312 C 13.007812 9.894531 13.234375 9.898438 13.210938 9.671875 C 13.199219 9.546875 13.140625 9.570312 13.082031 9.496094 C 13.035156 9.441406 13.046875 9.359375 13 9.304688 C 12.890625 9.164062 12.714844 9.222656 12.644531 9.054688 C 12.617188 8.996094 12.625 8.898438 12.542969 8.898438 C 12.464844 8.902344 12.460938 9.015625 12.414062 9.058594 C 12.371094 9.027344 12.320312 8.972656 12.269531 8.957031 C 12.226562 8.9375 12.15625 8.945312 12.097656 8.925781 Z M 12.097656 8.925781 " fill-opacity="1" fill-rule="nonzero"/><g clip-path="url(#1cf406b847)"><path fill="#014d4e" d="M 11.574219 8.472656 C 11.570312 8.417969 11.582031 8.304688 11.636719 8.269531 C 11.699219 8.222656 11.820312 8.28125 11.894531 8.246094 C 11.976562 8.214844 12.023438 8.121094 12.101562 8.082031 C 12.195312 8.039062 12.246094 8.085938 12.335938 8.125 C 12.421875 7.996094 12.371094 7.789062 12.304688 7.660156 C 12.203125 7.472656 12.039062 7.378906 11.867188 7.246094 C 11.699219 7.117188 11.671875 7.003906 11.570312 6.832031 C 11.511719 6.730469 11.488281 6.746094 11.390625 6.707031 C 11.363281 6.695312 11.371094 6.660156 11.328125 6.652344 C 11.28125 6.648438 11.257812 6.671875 11.214844 6.660156 C 11.019531 6.621094 11.050781 6.308594 10.964844 6.164062 C 10.820312 5.910156 10.746094 6.019531 10.507812 6.054688 C 10.273438 6.089844 10.171875 5.964844 10 5.835938 C 9.90625 5.769531 9.933594 5.757812 9.890625 5.652344 C 9.863281 5.570312 9.742188 5.464844 9.648438 5.484375 C 9.539062 5.503906 9.503906 5.679688 9.390625 5.71875 C 9.296875 5.75 9.164062 5.722656 9.074219 5.683594 C 8.96875 5.640625 8.863281 5.570312 8.769531 5.507812 C 8.707031 5.464844 8.65625 5.453125 8.601562 5.441406 C 8.601562 5.441406 8.601562 5.433594 8.597656 5.429688 C 8.578125 5.355469 8.570312 5.265625 8.546875 5.191406 C 8.507812 5.074219 8.402344 4.859375 8.253906 4.96875 C 8.203125 4.9375 8.160156 4.890625 8.109375 4.855469 C 8.03125 4.914062 7.949219 5.03125 7.894531 5.113281 C 7.910156 5 7.890625 4.734375 7.804688 4.664062 C 7.75 4.621094 7.652344 4.605469 7.578125 4.570312 C 7.503906 4.535156 7.4375 4.496094 7.363281 4.460938 C 7.25 4.40625 7.285156 4.472656 7.175781 4.476562 C 7.117188 4.480469 7.023438 4.40625 6.960938 4.390625 C 6.789062 4.347656 6.605469 4.289062 6.425781 4.269531 C 6.316406 4.253906 6.242188 4.289062 6.144531 4.308594 C 6.058594 4.324219 5.972656 4.304688 5.890625 4.304688 C 5.742188 4.308594 5.707031 4.421875 5.558594 4.402344 C 5.417969 4.386719 5.304688 4.363281 5.164062 4.390625 C 5.066406 4.414062 4.941406 4.507812 4.847656 4.507812 C 4.707031 4.507812 4.699219 4.371094 4.582031 4.511719 C 4.527344 4.574219 4.378906 4.699219 4.371094 4.78125 C 4.308594 4.765625 4.242188 4.730469 4.175781 4.726562 C 4.089844 4.714844 4.085938 4.746094 4.015625 4.785156 C 3.839844 4.882812 3.714844 4.707031 3.527344 4.726562 C 3.492188 4.804688 3.441406 4.910156 3.425781 4.988281 C 3.40625 5.09375 3.476562 5.15625 3.492188 5.242188 C 3.5 5.296875 3.460938 5.316406 3.5 5.375 C 3.519531 5.402344 3.574219 5.429688 3.59375 5.445312 C 3.667969 5.496094 3.765625 5.558594 3.851562 5.554688 C 3.859375 5.609375 3.898438 5.644531 3.902344 5.699219 C 3.90625 5.753906 3.863281 5.800781 3.859375 5.851562 C 3.847656 5.964844 3.933594 5.996094 3.839844 6.101562 C 3.785156 6.160156 3.710938 6.203125 3.691406 6.289062 C 3.667969 6.367188 3.738281 6.421875 3.738281 6.492188 C 3.742188 6.558594 3.699219 6.648438 3.683594 6.707031 C 3.757812 6.726562 3.832031 6.746094 3.914062 6.765625 C 3.847656 6.816406 3.777344 6.867188 3.714844 6.914062 C 3.765625 6.996094 3.71875 7.125 3.695312 7.21875 C 3.679688 7.277344 3.679688 7.335938 3.660156 7.398438 C 3.644531 7.441406 3.570312 7.527344 3.582031 7.566406 C 3.589844 7.601562 3.714844 7.65625 3.75 7.664062 C 3.785156 7.675781 3.804688 7.640625 3.84375 7.65625 C 3.878906 7.671875 3.886719 7.71875 3.921875 7.734375 C 4.046875 7.804688 4.171875 7.734375 4.296875 7.691406 C 4.363281 7.664062 4.4375 7.621094 4.523438 7.644531 C 4.597656 7.664062 4.636719 7.738281 4.703125 7.777344 C 4.8125 7.703125 4.851562 7.734375 4.917969 7.8125 C 5 7.921875 5.035156 7.914062 5.167969 7.953125 C 5.25 7.972656 5.363281 7.984375 5.320312 8.082031 C 5.3125 8.097656 5.21875 8.171875 5.203125 8.1875 C 5.179688 8.214844 5.148438 8.234375 5.125 8.261719 C 5.253906 8.300781 5.324219 8.453125 5.460938 8.425781 C 5.492188 8.707031 5.652344 8.589844 5.828125 8.71875 C 5.925781 8.625 5.980469 8.625 6.09375 8.667969 C 6.21875 8.71875 6.335938 8.734375 6.464844 8.753906 C 6.605469 8.777344 6.738281 8.816406 6.878906 8.851562 C 6.917969 8.863281 6.980469 8.867188 7.015625 8.886719 C 7.035156 8.898438 7.050781 8.953125 7.066406 8.957031 C 7.121094 8.976562 7.117188 8.9375 7.164062 8.929688 C 7.265625 8.925781 7.328125 8.957031 7.414062 8.992188 C 7.472656 9.015625 7.480469 9.007812 7.519531 9.054688 C 7.558594 9.101562 7.558594 9.164062 7.613281 9.203125 C 7.71875 9.269531 7.757812 9.144531 7.847656 9.195312 C 7.964844 9.265625 7.847656 9.433594 8.019531 9.386719 C 8.242188 9.332031 8.480469 9.140625 8.628906 8.9375 C 8.699219 8.976562 8.769531 9.015625 8.84375 9.058594 C 8.898438 9.125 8.96875 9.058594 9.027344 9 C 9.117188 8.910156 9.109375 8.945312 9.242188 8.945312 C 9.347656 8.945312 9.40625 8.925781 9.480469 8.863281 C 9.515625 8.832031 9.5 8.78125 9.574219 8.792969 C 9.617188 8.796875 9.660156 8.867188 9.667969 8.90625 C 9.753906 8.910156 9.828125 8.8125 9.890625 8.773438 C 9.960938 8.726562 10.089844 8.726562 10.117188 8.667969 C 10.140625 8.597656 10.066406 8.539062 10.105469 8.460938 C 10.144531 8.386719 10.265625 8.359375 10.335938 8.316406 C 10.523438 8.445312 10.738281 8.332031 10.941406 8.34375 C 11.039062 8.355469 11.164062 8.339844 11.257812 8.359375 C 11.371094 8.394531 11.445312 8.496094 11.574219 8.472656 Z M 11.574219 8.472656 " fill-opacity="1" fill-rule="nonzero"/></g></svg>