<svg xmlns="http://www.w3.org/2000/svg" width="40" zoomAndPan="magnify" viewBox="0 0 30 30.000001" height="40"
     preserveAspectRatio="xMidYMid meet" version="1.0"><defs><clipPath id="7bd86388bd"><path d="M 22 21 L 22.941406 21 L 22.941406 22 L 22 22 Z M 22 21 " clip-rule="nonzero"/></clipPath><clipPath id="61a040cb9b"><path d="M 22 18 L 22.941406 18 L 22.941406 19 L 22 19 Z M 22 18 " clip-rule="nonzero"/></clipPath><clipPath id="3c8090e07a"><path d="M 22 17 L 22.941406 17 L 22.941406 18 L 22 18 Z M 22 17 " clip-rule="nonzero"/></clipPath><clipPath id="65ef6fb893"><path d="M 6.972656 7 L 22.941406 7 L 22.941406 26.128906 L 6.972656 26.128906 Z M 6.972656 7 " clip-rule="nonzero"/></clipPath><clipPath id="c8cdc60f6a"><path d="M 22 2.902344 L 22.941406 2.902344 L 22.941406 4 L 22 4 Z M 22 2.902344 " clip-rule="nonzero"/></clipPath></defs><path fill="#014d4e" d="M 20.605469 22.519531 L 20.558594 22.519531 L 20.546875 22.5 L 20.488281 22.519531 L 20.488281 22.558594 L 20.457031 22.578125 L 20.457031 22.652344 L 20.488281 22.691406 C 20.488281 22.691406 20.515625 22.667969 20.523438 22.691406 C 20.535156 22.710938 20.535156 22.710938 20.535156 22.710938 L 20.613281 22.691406 L 20.632812 22.667969 C 20.632812 22.667969 20.621094 22.613281 20.632812 22.621094 C 20.644531 22.625 20.671875 22.601562 20.671875 22.601562 L 20.632812 22.5625 Z M 20.605469 22.519531 " fill-opacity="1" fill-rule="nonzero"/><g clip-path="url(#7bd86388bd)"><path fill="#014d4e" d="M 22.324219 21.230469 C 22.257812 21.1875 22.238281 21.230469 22.238281 21.230469 L 22.238281 21.296875 L 22.269531 21.296875 L 22.289062 21.265625 L 22.304688 21.265625 C 22.304688 21.261719 22.398438 21.277344 22.324219 21.230469 Z M 22.324219 21.230469 " fill-opacity="1" fill-rule="nonzero"/></g><path fill="#014d4e" d="M 19.828125 23.574219 C 19.824219 23.585938 19.796875 23.632812 19.796875 23.632812 L 19.8125 23.675781 C 19.8125 23.675781 19.828125 23.679688 19.839844 23.675781 C 19.847656 23.671875 19.851562 23.652344 19.859375 23.648438 C 19.867188 23.644531 19.875 23.625 19.875 23.625 C 19.875 23.625 19.875 23.605469 19.875 23.597656 C 19.875 23.589844 19.875 23.585938 19.875 23.585938 L 19.859375 23.574219 Z M 19.828125 23.574219 " fill-opacity="1" fill-rule="nonzero"/><g clip-path="url(#61a040cb9b)"><path fill="#014d4e" d="M 22.539062 18.207031 L 22.496094 18.214844 L 22.515625 18.238281 L 22.5625 18.238281 L 22.582031 18.214844 L 22.582031 18.191406 L 22.539062 18.171875 Z M 22.539062 18.207031 " fill-opacity="1" fill-rule="nonzero"/></g><g clip-path="url(#3c8090e07a)"><path fill="#014d4e" d="M 22.996094 17.644531 L 22.980469 17.640625 L 22.96875 17.648438 L 22.949219 17.652344 L 22.933594 17.65625 L 22.921875 17.664062 L 22.902344 17.65625 L 22.902344 17.636719 L 22.921875 17.605469 L 22.9375 17.597656 L 22.957031 17.597656 L 22.957031 17.566406 L 22.9375 17.554688 L 22.898438 17.554688 L 22.898438 17.527344 L 22.875 17.507812 L 22.863281 17.496094 L 22.867188 17.480469 L 22.890625 17.464844 L 22.878906 17.449219 L 22.867188 17.429688 L 22.867188 17.402344 L 22.875 17.394531 L 22.875 17.363281 L 22.859375 17.34375 C 22.859375 17.34375 22.847656 17.332031 22.847656 17.324219 C 22.847656 17.320312 22.847656 17.285156 22.847656 17.285156 L 22.867188 17.265625 L 22.886719 17.257812 L 22.917969 17.253906 L 22.917969 17.195312 L 22.929688 17.175781 L 22.953125 17.152344 L 22.945312 17.132812 L 22.925781 17.128906 L 22.917969 17.121094 L 22.925781 17.097656 L 22.957031 17.097656 L 22.949219 17.058594 L 22.9375 17.046875 L 22.914062 17.046875 L 22.902344 17.066406 L 22.882812 17.066406 L 22.875 17.078125 L 22.855469 17.078125 L 22.828125 17.09375 L 22.796875 17.078125 L 22.777344 17.054688 L 22.730469 17.054688 L 22.707031 17.078125 L 22.675781 17.085938 L 22.664062 17.125 L 22.730469 17.125 L 22.75 17.144531 L 22.789062 17.144531 L 22.828125 17.140625 L 22.828125 17.160156 L 22.773438 17.171875 L 22.742188 17.230469 L 22.734375 17.179688 L 22.722656 17.160156 C 22.722656 17.160156 22.710938 17.171875 22.703125 17.171875 C 22.703125 17.171875 22.675781 17.152344 22.675781 17.152344 L 22.644531 17.183594 L 22.613281 17.15625 L 22.574219 17.152344 L 22.554688 17.183594 L 22.613281 17.191406 L 22.628906 17.222656 L 22.667969 17.242188 L 22.675781 17.253906 L 22.695312 17.257812 L 22.789062 17.261719 C 22.789062 17.261719 22.792969 17.28125 22.792969 17.289062 C 22.792969 17.292969 22.800781 17.320312 22.800781 17.320312 L 22.792969 17.339844 L 22.761719 17.355469 L 22.742188 17.355469 L 22.75 17.386719 L 22.761719 17.40625 L 22.78125 17.417969 L 22.777344 17.429688 L 22.765625 17.4375 L 22.746094 17.433594 L 22.726562 17.425781 L 22.703125 17.429688 L 22.707031 17.449219 L 22.71875 17.46875 L 22.703125 17.488281 L 22.703125 17.519531 L 22.691406 17.53125 L 22.683594 17.550781 L 22.679688 17.5625 L 22.683594 17.59375 L 22.714844 17.597656 L 22.710938 17.625 L 22.722656 17.652344 L 22.710938 17.664062 L 22.699219 17.683594 L 22.710938 17.714844 L 22.714844 17.742188 L 22.695312 17.746094 L 22.667969 17.757812 L 22.628906 17.769531 L 22.628906 17.832031 L 22.648438 17.851562 C 22.648438 17.851562 22.671875 17.851562 22.679688 17.851562 C 22.691406 17.851562 22.71875 17.8125 22.71875 17.8125 L 22.734375 17.792969 L 22.765625 17.796875 L 22.773438 17.816406 L 22.800781 17.8125 L 22.804688 17.789062 L 22.8125 17.78125 L 22.851562 17.777344 L 22.863281 17.765625 L 22.867188 17.746094 L 22.886719 17.738281 L 22.90625 17.738281 L 22.917969 17.726562 L 22.929688 17.710938 L 22.949219 17.699219 L 22.960938 17.695312 L 23.019531 17.695312 L 23.019531 17.675781 Z M 22.996094 17.644531 " fill-opacity="1" fill-rule="nonzero"/></g><g clip-path="url(#65ef6fb893)"><path fill="#014d4e" d="M 22.625 17.375 L 22.621094 17.355469 L 22.625 17.324219 L 22.625 17.316406 L 22.628906 17.304688 L 22.636719 17.292969 L 22.632812 17.246094 L 22.601562 17.222656 L 22.582031 17.203125 L 22.542969 17.203125 L 22.511719 17.160156 L 22.472656 17.140625 L 22.472656 17.125 L 22.476562 17.109375 L 22.488281 17.097656 L 22.535156 17.101562 L 22.535156 17.042969 L 22.554688 17.03125 L 22.566406 17.019531 L 22.574219 17.007812 L 22.605469 17.011719 L 22.605469 16.992188 L 22.617188 16.984375 L 22.636719 16.988281 L 22.636719 16.957031 L 22.644531 16.945312 L 22.644531 16.90625 L 22.664062 16.894531 L 22.675781 16.882812 L 22.664062 16.863281 L 22.65625 16.832031 L 22.628906 16.820312 L 22.628906 16.859375 L 22.613281 16.871094 L 22.601562 16.882812 L 22.582031 16.882812 L 22.5625 16.863281 L 22.550781 16.84375 L 22.550781 16.832031 L 22.585938 16.820312 L 22.582031 16.777344 L 22.546875 16.800781 L 22.535156 16.820312 L 22.492188 16.820312 L 22.472656 16.796875 L 22.382812 16.796875 L 22.367188 16.816406 L 22.347656 16.824219 L 22.324219 16.820312 L 22.316406 16.800781 L 22.347656 16.777344 L 22.355469 16.777344 L 22.367188 16.757812 L 22.386719 16.738281 L 22.398438 16.738281 L 22.402344 16.75 L 22.421875 16.757812 L 22.429688 16.773438 L 22.457031 16.773438 L 22.472656 16.753906 L 22.460938 16.734375 L 22.441406 16.722656 L 22.417969 16.710938 L 22.414062 16.683594 L 22.425781 16.664062 L 22.4375 16.652344 L 22.40625 16.625 L 22.378906 16.644531 L 22.367188 16.652344 L 22.351562 16.671875 L 22.351562 16.675781 L 22.339844 16.679688 L 22.304688 16.667969 L 22.292969 16.648438 L 22.296875 16.632812 L 22.269531 16.59375 L 22.289062 16.5625 L 22.304688 16.523438 L 22.308594 16.511719 L 22.296875 16.492188 L 22.304688 16.480469 L 22.316406 16.464844 L 22.335938 16.464844 L 22.347656 16.460938 C 22.347656 16.460938 22.355469 16.472656 22.359375 16.472656 C 22.363281 16.472656 22.386719 16.472656 22.386719 16.472656 L 22.390625 16.460938 L 22.417969 16.464844 L 22.429688 16.453125 L 22.449219 16.453125 L 22.472656 16.433594 L 22.488281 16.445312 L 22.503906 16.441406 L 22.511719 16.429688 L 22.523438 16.433594 L 22.535156 16.417969 L 22.566406 16.40625 L 22.578125 16.425781 L 22.625 16.421875 L 22.632812 16.410156 L 22.691406 16.410156 L 22.703125 16.402344 L 22.722656 16.402344 L 22.722656 16.386719 L 22.734375 16.382812 L 22.753906 16.378906 L 22.777344 16.371094 L 22.773438 16.339844 L 22.800781 16.3125 L 22.796875 16.292969 L 22.820312 16.292969 L 22.851562 16.265625 L 22.871094 16.234375 L 22.882812 16.230469 L 22.882812 16.1875 L 22.851562 16.125 L 22.84375 16.082031 L 22.832031 16.070312 L 22.832031 16.035156 L 22.820312 16.019531 L 22.820312 15.980469 L 22.78125 15.976562 L 22.765625 15.957031 L 22.765625 15.941406 L 22.75 15.917969 L 22.75 15.898438 L 22.707031 15.902344 L 22.691406 15.878906 L 22.679688 15.863281 L 22.679688 15.832031 L 22.652344 15.816406 L 22.640625 15.816406 L 22.613281 15.792969 L 22.609375 15.773438 L 22.589844 15.753906 L 22.589844 15.6875 L 22.550781 15.683594 C 22.550781 15.683594 22.539062 15.671875 22.535156 15.671875 C 22.53125 15.671875 22.503906 15.671875 22.503906 15.671875 L 22.492188 15.648438 L 22.472656 15.621094 L 22.460938 15.589844 L 22.453125 15.578125 L 22.445312 15.546875 L 22.433594 15.519531 L 22.4375 15.488281 L 22.429688 15.457031 L 22.410156 15.425781 L 22.398438 15.402344 L 22.390625 15.382812 L 22.386719 15.378906 L 22.390625 15.339844 L 22.324219 15.339844 L 22.3125 15.328125 L 22.28125 15.328125 L 22.269531 15.316406 L 22.222656 15.28125 L 22.21875 15.257812 L 22.1875 15.21875 L 22.160156 15.1875 L 22.15625 15.167969 L 22.144531 15.144531 L 22.121094 15.117188 L 22.09375 15.117188 L 22.089844 15.09375 L 22.070312 15.09375 L 22.058594 15.078125 L 22.058594 15.050781 L 22.042969 15.03125 L 22.003906 15.03125 L 21.996094 15.019531 L 21.980469 15 L 21.964844 14.988281 L 21.953125 14.96875 L 21.945312 14.949219 L 21.925781 14.898438 L 21.894531 14.863281 L 21.886719 14.851562 L 21.875 14.832031 L 21.863281 14.738281 L 21.882812 14.699219 L 21.90625 14.6875 L 21.917969 14.648438 L 21.898438 14.617188 L 21.890625 14.589844 L 21.878906 14.582031 L 21.839844 14.488281 L 21.839844 14.464844 L 21.820312 14.425781 L 21.8125 14.386719 L 21.800781 14.371094 L 21.796875 14.355469 L 21.78125 14.34375 L 21.78125 14.277344 L 21.789062 14.265625 L 21.789062 14.164062 L 21.785156 14.152344 L 21.789062 14.128906 L 21.800781 14.101562 L 21.8125 14.082031 L 21.816406 14.035156 L 21.796875 14.019531 L 21.769531 13.992188 L 21.757812 13.972656 L 21.753906 13.960938 L 21.734375 13.957031 L 21.710938 13.972656 L 21.703125 13.988281 L 21.691406 14.007812 L 21.679688 14.007812 L 21.644531 13.976562 L 21.617188 13.972656 L 21.597656 13.953125 L 21.585938 13.929688 L 21.554688 13.910156 L 21.558594 13.886719 L 21.535156 13.847656 L 21.527344 13.828125 L 21.523438 13.78125 L 21.503906 13.757812 L 21.378906 13.761719 L 21.335938 13.726562 L 21.332031 13.71875 L 21.28125 13.71875 L 21.273438 13.730469 L 21.242188 13.730469 L 21.238281 13.71875 L 21.214844 13.714844 L 21.203125 13.71875 L 21.203125 13.75 L 21.226562 13.757812 C 21.226562 13.757812 21.238281 13.757812 21.242188 13.761719 C 21.246094 13.765625 21.257812 13.785156 21.257812 13.785156 C 21.257812 13.785156 21.257812 13.789062 21.257812 13.792969 C 21.257812 13.796875 21.257812 13.816406 21.257812 13.816406 L 21.300781 13.847656 L 21.300781 13.882812 L 21.328125 13.902344 C 21.328125 13.902344 21.320312 13.910156 21.316406 13.914062 C 21.3125 13.914062 21.316406 13.933594 21.316406 13.933594 L 21.324219 13.945312 L 21.328125 13.976562 L 21.335938 13.988281 L 21.324219 14 C 21.320312 14 21.304688 14.003906 21.304688 14.003906 L 21.292969 13.984375 C 21.292969 13.984375 21.285156 13.972656 21.28125 13.964844 C 21.277344 13.960938 21.253906 13.957031 21.253906 13.957031 L 21.242188 13.933594 L 21.21875 13.921875 L 21.21875 13.910156 L 21.222656 13.894531 L 21.210938 13.882812 L 21.195312 13.851562 L 21.167969 13.855469 L 21.148438 13.828125 L 21.121094 13.800781 L 21.117188 13.78125 L 21.105469 13.777344 L 21.089844 13.796875 L 21.058594 13.808594 L 21.0625 13.832031 L 21.074219 13.859375 C 21.074219 13.859375 21.089844 13.871094 21.09375 13.878906 C 21.097656 13.878906 21.105469 13.914062 21.105469 13.914062 L 21.125 13.933594 C 21.125 13.933594 21.121094 13.941406 21.113281 13.941406 C 21.105469 13.941406 21.082031 13.941406 21.082031 13.941406 L 21.0625 13.957031 L 21.03125 13.953125 L 21.019531 13.933594 L 21.015625 13.921875 L 20.996094 13.921875 C 20.996094 13.921875 20.992188 13.902344 20.992188 13.898438 C 20.992188 13.894531 21.003906 13.871094 21.003906 13.871094 L 21.023438 13.832031 L 21.027344 13.816406 L 21.023438 13.796875 L 21.019531 13.769531 L 20.96875 13.773438 L 20.964844 13.785156 L 20.933594 13.8125 L 20.914062 13.800781 L 20.914062 13.734375 L 20.875 13.710938 L 20.859375 13.703125 L 20.851562 13.683594 L 20.875 13.648438 L 20.882812 13.628906 L 20.914062 13.632812 L 20.941406 13.601562 L 20.953125 13.601562 C 20.953125 13.601562 20.949219 13.621094 20.957031 13.621094 C 20.960938 13.621094 20.996094 13.621094 20.996094 13.621094 L 20.996094 13.601562 L 21.015625 13.582031 L 21.035156 13.589844 L 21.0625 13.601562 L 21.066406 13.558594 L 21.042969 13.503906 L 21.03125 13.464844 L 21.027344 13.449219 L 21.027344 13.441406 C 21.027344 13.441406 21.058594 13.414062 21.066406 13.414062 C 21.074219 13.414062 21.066406 13.382812 21.066406 13.382812 L 21.027344 13.378906 L 20.988281 13.371094 L 20.976562 13.351562 L 20.933594 13.359375 L 20.914062 13.347656 L 20.933594 13.320312 L 20.921875 13.308594 L 20.910156 13.289062 L 20.898438 13.265625 L 20.875 13.25 L 20.867188 13.25 L 20.859375 13.261719 L 20.84375 13.257812 L 20.835938 13.230469 L 20.835938 13.199219 L 20.824219 13.195312 L 20.835938 13.171875 L 20.859375 13.171875 L 20.875 13.191406 L 20.90625 13.171875 L 20.933594 13.140625 L 20.964844 13.128906 L 21.03125 13.125 L 21.050781 13.140625 L 21.074219 13.148438 L 21.109375 13.148438 L 21.113281 13.160156 L 21.140625 13.160156 L 21.144531 13.140625 C 21.144531 13.140625 21.148438 13.117188 21.152344 13.117188 C 21.15625 13.117188 21.164062 13.09375 21.164062 13.09375 L 21.183594 13.078125 L 21.195312 13.058594 L 21.226562 13.058594 L 21.234375 13.035156 L 21.242188 12.980469 L 21.195312 12.929688 L 21.195312 12.800781 L 21.234375 12.777344 L 21.230469 12.730469 L 21.242188 12.71875 L 21.28125 12.710938 L 21.292969 12.691406 L 21.324219 12.6875 L 21.328125 12.65625 L 21.347656 12.644531 C 21.347656 12.644531 21.351562 12.644531 21.355469 12.640625 C 21.355469 12.636719 21.359375 12.621094 21.359375 12.621094 L 21.367188 12.613281 L 21.367188 12.570312 L 21.335938 12.5625 L 21.324219 12.5625 L 21.304688 12.527344 L 21.289062 12.503906 L 21.292969 12.464844 L 21.324219 12.464844 L 21.328125 12.453125 L 21.300781 12.441406 L 21.28125 12.429688 L 21.257812 12.429688 L 21.238281 12.410156 L 21.207031 12.386719 L 21.207031 12.367188 L 21.183594 12.367188 L 21.175781 12.339844 L 21.152344 12.324219 L 21.164062 12.277344 L 21.125 12.273438 L 21.105469 12.25 L 21.105469 12.203125 L 21.082031 12.140625 L 21.074219 12.113281 L 21.058594 12.09375 L 21.027344 12.09375 L 21.027344 12.03125 L 21.019531 11.992188 L 20.992188 11.996094 L 20.980469 12.007812 L 20.945312 12.003906 L 20.925781 12.019531 L 20.875 12.019531 L 20.875 12.03125 L 20.847656 12.03125 L 20.816406 11.996094 L 20.730469 11.992188 L 20.710938 11.980469 L 20.644531 11.90625 L 20.625 11.910156 L 20.554688 11.910156 L 20.535156 11.898438 L 20.519531 11.921875 L 20.5 11.910156 L 20.488281 11.902344 L 20.488281 11.871094 L 20.398438 11.867188 L 20.332031 11.867188 L 20.328125 11.894531 L 20.320312 11.90625 L 20.300781 11.945312 L 20.296875 11.976562 L 20.304688 11.996094 L 20.308594 12.003906 L 20.289062 12.015625 L 20.269531 12.003906 L 20.269531 11.972656 L 20.28125 11.925781 L 20.289062 11.902344 L 20.277344 11.890625 L 20.269531 11.859375 L 20.246094 11.847656 L 20.191406 11.84375 L 20.179688 11.855469 L 20.113281 11.859375 L 20.085938 11.855469 L 20.066406 11.859375 L 20.054688 11.839844 L 20.074219 11.816406 L 20.074219 11.796875 L 20.027344 11.800781 L 20.015625 11.785156 L 20.015625 11.742188 L 20.054688 11.738281 L 20.050781 11.707031 L 19.996094 11.707031 L 19.996094 11.738281 L 19.976562 11.746094 L 19.90625 11.746094 L 19.84375 11.734375 L 19.8125 11.707031 L 19.804688 11.6875 L 19.804688 11.664062 L 19.785156 11.652344 L 19.765625 11.632812 L 19.78125 11.625 L 19.820312 11.625 L 19.832031 11.613281 L 19.824219 11.589844 L 19.800781 11.550781 L 19.820312 11.546875 L 19.816406 11.507812 L 19.777344 11.507812 L 19.746094 11.496094 L 19.734375 11.511719 L 19.710938 11.503906 L 19.707031 11.480469 L 19.660156 11.480469 L 19.660156 11.453125 L 19.726562 11.449219 L 19.726562 11.378906 C 19.726562 11.378906 19.746094 11.378906 19.75 11.375 C 19.75 11.371094 19.808594 11.386719 19.808594 11.386719 L 19.835938 11.371094 L 19.847656 11.339844 L 19.871094 11.332031 L 19.890625 11.292969 L 19.851562 11.292969 L 19.839844 11.308594 L 19.8125 11.316406 L 19.789062 11.308594 L 19.75 11.320312 L 19.71875 11.332031 L 19.71875 11.335938 L 19.6875 11.332031 L 19.675781 11.304688 L 19.664062 11.335938 L 19.636719 11.347656 L 19.613281 11.34375 L 19.644531 11.296875 L 19.652344 11.265625 L 19.652344 11.230469 L 19.640625 11.210938 L 19.601562 11.199219 L 19.582031 11.1875 L 19.582031 11.144531 L 19.550781 11.132812 L 19.535156 11.101562 L 19.523438 11.089844 L 19.492188 11.046875 L 19.496094 11.035156 L 19.503906 11.015625 L 19.484375 10.996094 L 19.472656 10.996094 L 19.464844 11.019531 L 19.425781 10.976562 L 19.398438 10.976562 L 19.390625 10.964844 L 19.367188 10.960938 L 19.359375 10.972656 L 19.351562 10.988281 L 19.3125 10.984375 L 19.332031 10.960938 L 19.332031 10.941406 L 19.304688 10.925781 L 19.292969 10.910156 L 19.265625 10.902344 L 19.304688 10.882812 L 19.289062 10.847656 L 19.257812 10.867188 L 19.25 10.847656 L 19.261719 10.808594 L 19.230469 10.777344 L 19.210938 10.773438 L 19.195312 10.753906 L 19.195312 10.710938 L 19.171875 10.679688 L 19.171875 10.625 L 19.164062 10.613281 L 19.164062 10.5625 L 19.144531 10.542969 L 19.121094 10.539062 L 19.082031 10.53125 L 19.074219 10.5 L 19.0625 10.460938 L 19.074219 10.4375 L 19.089844 10.410156 L 19.121094 10.40625 L 19.136719 10.386719 L 19.136719 10.351562 L 19.113281 10.351562 L 19.089844 10.359375 L 19.074219 10.363281 L 19.03125 10.339844 L 19.011719 10.332031 L 19.003906 10.308594 L 18.964844 10.324219 L 18.941406 10.335938 L 18.921875 10.324219 L 18.945312 10.277344 L 18.980469 10.265625 L 18.972656 10.234375 L 18.976562 10.1875 L 18.996094 10.132812 L 18.941406 10.136719 L 18.910156 10.125 C 18.910156 10.125 18.890625 10.066406 18.890625 10.058594 C 18.890625 10.046875 18.859375 10.015625 18.859375 10.015625 L 18.898438 10 L 18.898438 9.972656 L 18.917969 9.957031 L 18.933594 9.9375 L 18.949219 9.910156 L 18.898438 9.90625 L 18.871094 9.863281 L 18.875 9.835938 L 18.90625 9.824219 L 18.90625 9.863281 L 18.933594 9.863281 L 18.933594 9.84375 L 18.949219 9.839844 L 18.960938 9.839844 L 18.988281 9.878906 L 19.007812 9.832031 L 19.027344 9.800781 L 19.027344 9.769531 L 19.042969 9.757812 L 19.042969 9.625 L 19.03125 9.605469 L 19.027344 9.566406 L 19.027344 9.542969 L 18.992188 9.511719 L 18.945312 9.5625 L 18.921875 9.5625 L 18.910156 9.550781 L 18.878906 9.523438 L 18.878906 9.464844 L 18.925781 9.425781 L 18.972656 9.425781 L 18.976562 9.40625 L 18.980469 9.375 L 18.992188 9.367188 L 19.003906 9.355469 L 19.007812 9.347656 L 18.996094 9.328125 L 18.980469 9.308594 L 18.957031 9.3125 L 18.949219 9.308594 L 18.949219 9.269531 L 18.964844 9.257812 L 18.964844 9.21875 L 18.953125 9.203125 L 18.953125 9.175781 L 18.941406 9.171875 L 18.941406 9.125 L 18.910156 9.097656 L 18.902344 9.117188 L 18.878906 9.117188 L 18.859375 9.125 L 18.839844 9.128906 L 18.828125 9.097656 L 18.816406 9.085938 L 18.839844 9.066406 L 18.847656 9.046875 L 18.910156 9.046875 L 18.921875 9.042969 L 18.945312 9.039062 L 18.957031 9.027344 L 18.96875 9.003906 L 18.972656 8.972656 L 18.925781 8.976562 L 18.921875 8.957031 L 18.945312 8.953125 L 18.957031 8.953125 L 18.957031 8.804688 L 18.96875 8.785156 L 18.972656 8.773438 L 18.972656 8.746094 L 18.953125 8.757812 L 18.921875 8.761719 L 18.917969 8.734375 L 18.921875 8.703125 L 18.96875 8.703125 L 18.964844 8.628906 L 18.953125 8.617188 L 18.921875 8.617188 L 18.914062 8.628906 L 18.867188 8.628906 L 18.859375 8.617188 L 18.855469 8.601562 L 18.8125 8.601562 L 18.789062 8.578125 L 18.71875 8.582031 L 18.6875 8.582031 L 18.664062 8.570312 L 18.578125 8.570312 L 18.566406 8.589844 L 18.558594 8.601562 L 18.546875 8.597656 C 18.546875 8.59375 18.535156 8.570312 18.535156 8.570312 L 18.523438 8.550781 L 18.527344 8.527344 L 18.496094 8.527344 L 18.492188 8.507812 L 18.453125 8.507812 L 18.449219 8.527344 C 18.449219 8.527344 18.375 8.539062 18.375 8.527344 C 18.375 8.523438 18.363281 8.492188 18.363281 8.492188 L 18.375 8.480469 L 18.375 8.441406 L 18.347656 8.441406 L 18.328125 8.480469 L 18.304688 8.46875 L 18.292969 8.429688 L 18.304688 8.402344 L 18.339844 8.382812 L 18.359375 8.351562 L 18.355469 8.328125 L 18.351562 8.308594 L 18.316406 8.296875 L 18.316406 8.285156 L 18.292969 8.285156 L 18.257812 8.304688 L 18.253906 8.371094 L 18.226562 8.375 L 18.203125 8.355469 L 18.207031 8.335938 L 18.160156 8.332031 L 18.140625 8.335938 L 18.113281 8.332031 L 18.117188 8.292969 L 18.105469 8.273438 L 18.105469 8.242188 L 18.0625 8.242188 L 18.050781 8.234375 L 18 8.214844 L 17.980469 8.242188 L 17.992188 8.261719 L 17.972656 8.277344 L 17.972656 8.304688 L 17.984375 8.324219 L 17.976562 8.335938 L 17.964844 8.347656 L 17.945312 8.371094 L 17.921875 8.378906 L 17.90625 8.398438 L 17.894531 8.40625 L 17.867188 8.40625 L 17.867188 8.347656 L 17.898438 8.34375 L 17.910156 8.332031 L 17.910156 8.300781 L 17.875 8.300781 L 17.855469 8.292969 L 17.8125 8.292969 L 17.8125 8.320312 L 17.832031 8.324219 L 17.828125 8.34375 L 17.816406 8.355469 L 17.8125 8.378906 L 17.777344 8.375 L 17.773438 8.34375 L 17.753906 8.34375 L 17.75 8.335938 L 17.703125 8.339844 C 17.703125 8.339844 17.710938 8.324219 17.699219 8.324219 C 17.6875 8.324219 17.675781 8.324219 17.675781 8.324219 L 17.675781 8.292969 L 17.644531 8.285156 L 17.644531 8.273438 L 17.640625 8.234375 L 17.628906 8.210938 L 17.582031 8.234375 L 17.558594 8.203125 L 17.527344 8.183594 L 17.527344 8.109375 L 17.546875 8.089844 L 17.535156 8.066406 L 17.535156 8.046875 L 17.503906 8.027344 L 17.484375 8.023438 L 17.460938 8.023438 L 17.449219 8.042969 L 17.425781 8.050781 L 17.417969 8.101562 L 17.390625 8.082031 L 17.382812 8.074219 L 17.351562 8.054688 L 17.351562 8.015625 L 17.390625 7.988281 L 17.394531 7.964844 L 17.398438 7.925781 L 17.425781 7.925781 L 17.460938 7.917969 L 17.484375 7.90625 L 17.503906 7.886719 L 17.488281 7.863281 L 17.46875 7.863281 L 17.457031 7.875 L 17.445312 7.875 L 17.441406 7.886719 L 17.429688 7.894531 L 17.398438 7.90625 L 17.382812 7.894531 L 17.371094 7.871094 L 17.371094 7.863281 L 17.304688 7.851562 L 17.308594 7.820312 L 17.296875 7.800781 L 17.292969 7.785156 L 17.273438 7.78125 L 17.261719 7.800781 L 17.226562 7.789062 L 17.226562 7.816406 L 17.207031 7.820312 L 17.183594 7.824219 L 17.164062 7.84375 L 17.136719 7.839844 L 17.105469 7.828125 L 17.066406 7.824219 L 17.0625 7.816406 L 17 7.816406 L 16.992188 7.792969 L 16.921875 7.792969 L 16.875 7.78125 L 16.847656 7.769531 L 16.785156 7.746094 L 16.777344 7.734375 L 16.738281 7.734375 L 16.71875 7.730469 L 16.683594 7.722656 L 16.660156 7.699219 L 16.648438 7.664062 C 16.648438 7.664062 16.628906 7.652344 16.628906 7.660156 C 16.625 7.664062 16.609375 7.679688 16.609375 7.679688 L 16.558594 7.671875 L 16.558594 7.742188 L 16.554688 7.757812 L 16.535156 7.777344 L 16.503906 7.777344 L 16.484375 7.78125 L 16.492188 7.800781 L 16.484375 7.800781 L 16.472656 7.808594 L 16.445312 7.8125 L 16.441406 7.824219 L 16.429688 7.824219 L 16.410156 7.804688 L 16.382812 7.796875 L 16.367188 7.773438 L 16.351562 7.761719 L 16.332031 7.769531 L 16.289062 7.769531 L 16.285156 7.792969 L 16.265625 7.804688 L 16.257812 7.824219 L 16.226562 7.832031 L 16.207031 7.84375 L 16.160156 7.84375 L 16.160156 7.878906 L 16.132812 7.910156 L 16.109375 7.910156 L 16.105469 7.925781 L 16.058594 7.914062 L 16.058594 7.933594 L 16.039062 7.933594 L 16.027344 7.910156 L 16.019531 7.902344 L 15.992188 7.878906 L 15.933594 7.882812 L 15.945312 7.910156 L 15.949219 7.921875 L 15.949219 7.933594 L 15.992188 7.929688 L 16 7.949219 L 16 7.988281 L 15.988281 8 L 15.988281 8.039062 L 15.984375 8.066406 L 15.964844 8.078125 L 15.949219 8.058594 L 15.917969 8.046875 L 15.917969 8.070312 C 15.917969 8.070312 15.917969 8.078125 15.90625 8.082031 C 15.898438 8.085938 15.890625 8.09375 15.890625 8.09375 L 15.886719 8.105469 L 15.898438 8.113281 L 15.898438 8.136719 L 15.859375 8.140625 L 15.859375 8.109375 L 15.820312 8.109375 L 15.769531 8.0625 L 15.75 8.0625 L 15.742188 8.089844 L 15.730469 8.109375 L 15.71875 8.121094 L 15.71875 8.152344 L 15.734375 8.171875 L 15.75 8.171875 L 15.753906 8.148438 L 15.773438 8.148438 L 15.78125 8.171875 L 15.78125 8.183594 L 15.765625 8.195312 L 15.78125 8.207031 L 15.757812 8.230469 L 15.75 8.265625 L 15.71875 8.265625 L 15.71875 8.292969 L 15.679688 8.292969 L 15.683594 8.371094 L 15.675781 8.410156 L 15.664062 8.433594 L 15.632812 8.46875 L 15.605469 8.46875 L 15.597656 8.488281 L 15.597656 8.519531 L 15.582031 8.53125 L 15.582031 8.585938 L 15.589844 8.601562 L 15.589844 8.621094 L 15.644531 8.621094 L 15.675781 8.613281 L 15.703125 8.632812 L 15.722656 8.632812 L 15.742188 8.625 L 15.769531 8.632812 L 15.789062 8.664062 L 15.808594 8.679688 L 15.789062 8.742188 L 15.777344 8.761719 L 15.757812 8.765625 L 15.753906 8.800781 L 15.726562 8.804688 L 15.707031 8.808594 L 15.695312 8.820312 L 15.671875 8.832031 L 15.644531 8.84375 L 15.617188 8.847656 L 15.613281 8.859375 L 15.558594 8.859375 L 15.546875 8.800781 L 15.480469 8.800781 L 15.46875 8.78125 L 15.410156 8.78125 L 15.378906 8.820312 L 15.308594 8.820312 L 15.300781 8.773438 L 15.277344 8.765625 L 15.269531 8.726562 L 15.269531 8.699219 L 15.257812 8.691406 L 15.257812 8.652344 L 15.269531 8.632812 L 15.273438 8.613281 L 15.292969 8.613281 L 15.304688 8.574219 L 15.324219 8.574219 L 15.355469 8.527344 L 15.378906 8.523438 L 15.382812 8.496094 L 15.394531 8.484375 L 15.394531 8.472656 L 15.371094 8.453125 L 15.371094 8.421875 L 15.351562 8.410156 L 15.320312 8.390625 L 15.289062 8.390625 L 15.25 8.402344 L 15.242188 8.425781 L 15.242188 8.433594 L 15.179688 8.425781 L 15.171875 8.40625 L 15.144531 8.398438 L 15.105469 8.398438 L 15.09375 8.417969 L 15.089844 8.429688 L 15.074219 8.441406 L 15.050781 8.417969 L 15.046875 8.410156 L 15.011719 8.410156 L 15 8.421875 C 15 8.421875 14.980469 8.417969 14.980469 8.414062 C 14.980469 8.40625 14.980469 8.382812 14.980469 8.382812 L 14.945312 8.386719 L 14.941406 8.363281 L 14.914062 8.339844 L 14.875 8.339844 L 14.867188 8.363281 L 14.855469 8.367188 L 14.828125 8.34375 L 14.824219 8.277344 L 14.792969 8.277344 L 14.796875 8.296875 L 14.773438 8.292969 L 14.765625 8.308594 L 14.734375 8.304688 L 14.726562 8.339844 C 14.726562 8.339844 14.75 8.371094 14.757812 8.371094 C 14.761719 8.371094 14.765625 8.386719 14.765625 8.386719 L 14.769531 8.410156 L 14.765625 8.429688 L 14.757812 8.441406 L 14.75 8.445312 L 14.746094 8.476562 L 14.734375 8.480469 L 14.734375 8.5 L 14.757812 8.523438 L 14.777344 8.523438 L 14.851562 8.589844 L 14.851562 8.648438 L 14.882812 8.664062 L 14.894531 8.679688 L 14.902344 8.679688 L 14.914062 8.71875 L 14.902344 8.742188 L 14.910156 8.761719 L 14.910156 8.820312 L 14.917969 8.832031 L 14.917969 8.871094 L 14.914062 8.921875 C 14.914062 8.921875 14.894531 8.929688 14.890625 8.933594 C 14.886719 8.9375 14.851562 8.957031 14.851562 8.957031 L 14.859375 8.96875 L 14.847656 8.988281 L 14.835938 9.003906 L 14.796875 9.015625 L 14.78125 9.050781 L 14.761719 9.0625 L 14.75 9.105469 L 14.71875 9.144531 L 14.707031 9.167969 L 14.6875 9.1875 L 14.660156 9.1875 C 14.660156 9.1875 14.648438 9.1875 14.632812 9.199219 C 14.621094 9.210938 14.613281 9.230469 14.613281 9.230469 L 14.613281 9.25 L 14.574219 9.277344 L 14.566406 9.308594 L 14.5625 9.339844 L 14.558594 9.355469 L 14.558594 9.398438 L 14.546875 9.417969 L 14.535156 9.46875 L 14.523438 9.492188 L 14.523438 9.519531 L 14.511719 9.539062 L 14.5 9.550781 L 14.496094 9.578125 L 14.488281 9.597656 C 14.488281 9.597656 14.46875 9.617188 14.46875 9.628906 C 14.46875 9.636719 14.457031 9.660156 14.457031 9.660156 L 14.445312 9.667969 C 14.445312 9.667969 14.433594 9.671875 14.433594 9.679688 C 14.433594 9.691406 14.429688 9.699219 14.429688 9.699219 L 14.371094 9.699219 L 14.351562 9.730469 L 14.335938 9.742188 C 14.335938 9.742188 14.316406 9.738281 14.316406 9.742188 C 14.316406 9.753906 14.3125 9.761719 14.3125 9.761719 L 14.285156 9.773438 L 14.246094 9.796875 C 14.246094 9.796875 14.207031 9.792969 14.199219 9.796875 C 14.195312 9.800781 14.191406 9.808594 14.171875 9.808594 C 14.152344 9.808594 14.140625 9.820312 14.140625 9.820312 L 14.132812 9.839844 L 14.082031 9.832031 L 14.078125 9.859375 L 14.042969 9.855469 C 14.042969 9.855469 14.019531 9.878906 14.011719 9.878906 C 14.007812 9.878906 13.980469 9.878906 13.980469 9.878906 L 13.964844 9.898438 L 13.941406 9.878906 L 13.929688 9.878906 C 13.929688 9.878906 13.910156 9.882812 13.910156 9.894531 C 13.910156 9.894531 13.90625 9.910156 13.90625 9.910156 L 13.886719 9.929688 L 13.886719 9.960938 C 13.886719 9.960938 13.851562 9.988281 13.851562 10 C 13.851562 10.007812 13.839844 10.019531 13.839844 10.019531 L 13.835938 10.058594 L 13.835938 10.070312 L 13.828125 10.082031 L 13.824219 10.140625 L 13.8125 10.160156 L 13.8125 10.183594 C 13.8125 10.183594 13.8125 10.191406 13.808594 10.203125 C 13.804688 10.21875 13.808594 10.21875 13.808594 10.21875 L 13.828125 10.238281 L 13.816406 10.25 L 13.75 10.25 L 13.734375 10.269531 L 13.734375 10.277344 C 13.734375 10.277344 13.722656 10.328125 13.730469 10.339844 C 13.730469 10.339844 13.71875 10.351562 13.726562 10.355469 C 13.730469 10.359375 13.726562 10.386719 13.726562 10.386719 L 13.757812 10.394531 C 13.757812 10.394531 13.765625 10.414062 13.757812 10.417969 C 13.75 10.417969 13.746094 10.433594 13.746094 10.433594 L 13.746094 10.488281 L 13.734375 10.5 L 13.734375 10.53125 L 13.71875 10.542969 L 13.71875 10.582031 L 13.714844 10.59375 L 13.703125 10.605469 L 13.671875 10.628906 L 13.683594 10.648438 L 13.660156 10.667969 L 13.648438 10.679688 L 13.625 10.699219 L 13.625 10.738281 L 13.589844 10.742188 L 13.582031 10.757812 L 13.566406 10.777344 L 13.570312 10.816406 L 13.5625 10.835938 L 13.550781 10.847656 L 13.535156 10.851562 L 13.535156 10.890625 L 13.523438 10.902344 L 13.523438 10.96875 C 13.523438 10.96875 13.511719 10.980469 13.511719 10.988281 C 13.511719 10.992188 13.511719 11.007812 13.511719 11.007812 L 13.507812 11.019531 L 13.519531 11.039062 L 13.519531 11.0625 L 13.53125 11.121094 L 13.558594 11.132812 L 13.5625 11.144531 L 13.601562 11.140625 L 13.628906 11.140625 L 13.65625 11.15625 L 13.65625 11.195312 L 13.632812 11.203125 L 13.636719 11.234375 C 13.636719 11.234375 13.632812 11.25 13.632812 11.253906 C 13.632812 11.265625 13.632812 11.277344 13.632812 11.277344 C 13.632812 11.277344 13.613281 11.285156 13.613281 11.289062 C 13.609375 11.292969 13.59375 11.308594 13.59375 11.308594 L 13.519531 11.308594 L 13.496094 11.316406 C 13.496094 11.316406 13.496094 11.320312 13.492188 11.328125 C 13.488281 11.332031 13.484375 11.347656 13.484375 11.347656 L 13.472656 11.359375 L 13.460938 11.359375 L 13.449219 11.328125 L 13.429688 11.328125 C 13.429688 11.328125 13.429688 11.339844 13.425781 11.351562 C 13.425781 11.355469 13.425781 11.371094 13.425781 11.382812 C 13.425781 11.386719 13.421875 11.4375 13.421875 11.4375 L 13.433594 11.464844 C 13.433594 11.464844 13.4375 11.476562 13.4375 11.480469 C 13.4375 11.480469 13.4375 11.527344 13.4375 11.527344 L 13.484375 11.585938 L 13.515625 11.585938 C 13.515625 11.585938 13.519531 11.625 13.515625 11.628906 C 13.515625 11.636719 13.527344 11.667969 13.527344 11.667969 L 13.566406 11.679688 C 13.566406 11.679688 13.582031 11.683594 13.582031 11.691406 C 13.582031 11.695312 13.585938 11.71875 13.585938 11.71875 L 13.597656 11.742188 L 13.625 11.757812 L 13.679688 11.769531 L 13.691406 11.789062 L 13.703125 11.800781 L 13.703125 11.882812 L 13.578125 11.882812 L 13.539062 11.886719 L 13.511719 11.894531 C 13.511719 11.894531 13.492188 11.894531 13.488281 11.898438 C 13.488281 11.898438 13.46875 11.902344 13.457031 11.910156 C 13.449219 11.914062 13.441406 11.921875 13.4375 11.925781 C 13.433594 11.925781 13.425781 11.925781 13.414062 11.9375 C 13.410156 11.945312 13.425781 11.949219 13.402344 11.949219 C 13.375 11.949219 13.375 11.957031 13.375 11.957031 L 13.371094 11.972656 L 13.351562 11.972656 L 13.320312 11.96875 C 13.320312 11.96875 13.308594 11.976562 13.300781 11.980469 C 13.296875 11.980469 13.28125 11.988281 13.28125 11.988281 L 13.269531 12 L 13.238281 12 L 13.214844 12.035156 L 13.195312 12.054688 L 13.179688 12.0625 L 13.148438 12.082031 L 13.132812 12.113281 C 13.132812 12.113281 13.140625 12.117188 13.132812 12.125 C 13.121094 12.140625 13.113281 12.148438 13.113281 12.148438 L 13.089844 12.1875 L 13.089844 12.226562 L 13.066406 12.238281 L 13.054688 12.261719 L 13.042969 12.28125 L 13.042969 12.292969 L 13.03125 12.339844 L 13.011719 12.347656 L 13.003906 12.386719 L 13 12.410156 L 12.976562 12.480469 L 12.972656 12.503906 L 12.96875 12.53125 L 12.964844 12.570312 L 12.96875 12.582031 L 12.972656 12.714844 L 12.984375 12.738281 L 12.996094 12.757812 L 12.996094 12.785156 L 13 12.796875 L 13.011719 12.816406 L 13.011719 12.890625 L 13.027344 12.910156 L 13.046875 12.898438 L 13.066406 12.921875 L 13.148438 12.933594 L 13.171875 12.914062 L 13.179688 12.925781 L 13.195312 12.957031 L 13.226562 12.964844 L 13.246094 12.976562 L 13.246094 13 L 13.269531 13.003906 L 13.269531 13.019531 L 13.265625 13.039062 L 13.242188 13.039062 L 13.214844 13.03125 L 13.195312 13.019531 L 13.164062 13.019531 L 13.144531 13.003906 L 13.121094 13.003906 L 13.101562 13.023438 L 13.078125 13.027344 L 13.058594 13.019531 L 13.035156 13.003906 L 13.023438 12.984375 L 12.992188 12.972656 L 12.996094 12.9375 L 12.972656 12.925781 L 12.949219 12.945312 C 12.949219 12.945312 12.933594 12.957031 12.929688 12.957031 C 12.925781 12.957031 12.890625 12.964844 12.882812 12.96875 C 12.871094 12.972656 12.871094 12.976562 12.871094 12.988281 C 12.871094 12.996094 12.859375 13.015625 12.859375 13.015625 L 12.859375 13.027344 L 12.832031 13.023438 C 12.832031 13.023438 12.828125 13.042969 12.820312 13.050781 C 12.8125 13.0625 12.800781 13.0625 12.800781 13.0625 L 12.8125 13.0625 L 12.808594 13.09375 L 12.808594 13.121094 L 12.820312 13.125 C 12.820312 13.125 12.84375 13.125 12.847656 13.125 C 12.851562 13.125 12.878906 13.125 12.878906 13.125 C 12.878906 13.125 12.871094 13.140625 12.867188 13.152344 C 12.867188 13.160156 12.863281 13.171875 12.859375 13.171875 C 12.855469 13.171875 12.84375 13.175781 12.84375 13.175781 C 12.84375 13.175781 12.828125 13.175781 12.828125 13.179688 C 12.828125 13.1875 12.8125 13.199219 12.8125 13.199219 L 12.8125 13.210938 L 12.816406 13.230469 L 12.820312 13.242188 L 12.824219 13.25 L 12.835938 13.28125 L 12.847656 13.28125 L 12.851562 13.300781 L 12.851562 13.3125 L 12.859375 13.316406 L 12.871094 13.324219 L 12.871094 13.34375 L 12.914062 13.34375 C 12.914062 13.34375 12.921875 13.355469 12.921875 13.355469 C 12.921875 13.359375 12.921875 13.378906 12.921875 13.378906 L 12.925781 13.386719 L 12.964844 13.410156 L 12.972656 13.429688 L 13 13.4375 L 13.011719 13.457031 L 13.054688 13.457031 L 13.0625 13.46875 L 13.058594 13.480469 L 13.046875 13.492188 L 13.039062 13.511719 L 13.046875 13.53125 L 13.050781 13.542969 L 13.074219 13.542969 L 13.074219 13.574219 L 13.089844 13.578125 L 13.109375 13.566406 L 13.128906 13.570312 L 13.148438 13.582031 L 13.148438 13.628906 C 13.148438 13.628906 13.140625 13.640625 13.132812 13.648438 C 13.121094 13.648438 13.109375 13.664062 13.109375 13.664062 C 13.109375 13.664062 13.074219 13.667969 13.0625 13.664062 C 13.058594 13.664062 13.042969 13.636719 13.042969 13.636719 L 13.003906 13.628906 C 13.003906 13.628906 12.980469 13.625 12.980469 13.617188 C 12.980469 13.605469 12.96875 13.585938 12.96875 13.585938 L 12.980469 13.558594 L 12.980469 13.546875 L 12.960938 13.539062 C 12.960938 13.539062 12.949219 13.535156 12.941406 13.535156 C 12.9375 13.535156 12.914062 13.535156 12.914062 13.535156 L 12.890625 13.507812 L 12.816406 13.480469 L 12.808594 13.457031 L 12.808594 13.417969 L 12.785156 13.386719 L 12.734375 13.386719 C 12.734375 13.386719 12.734375 13.386719 12.726562 13.390625 C 12.722656 13.402344 12.722656 13.402344 12.722656 13.402344 L 12.722656 13.421875 L 12.71875 13.433594 L 12.640625 13.433594 L 12.632812 13.40625 L 12.59375 13.425781 L 12.582031 13.445312 L 12.582031 13.453125 L 12.566406 13.464844 L 12.574219 13.527344 L 12.527344 13.53125 L 12.503906 13.554688 L 12.484375 13.585938 L 12.484375 13.625 L 12.453125 13.664062 L 12.433594 13.683594 L 12.394531 13.695312 L 12.371094 13.703125 L 12.359375 13.722656 L 12.351562 13.730469 L 12.351562 13.800781 L 12.363281 13.800781 L 12.367188 13.863281 L 12.378906 13.878906 L 12.378906 13.957031 L 12.367188 13.964844 L 12.351562 13.964844 L 12.34375 13.96875 L 12.335938 13.976562 L 12.316406 13.976562 C 12.316406 13.976562 12.304688 13.980469 12.296875 13.988281 C 12.292969 13.988281 12.273438 14.007812 12.273438 14.007812 L 12.257812 14.011719 L 12.238281 14.019531 L 12.238281 14.039062 L 12.226562 14.058594 C 12.226562 14.058594 12.226562 14.070312 12.226562 14.078125 C 12.226562 14.078125 12.21875 14.097656 12.21875 14.097656 C 12.21875 14.097656 12.214844 14.109375 12.210938 14.101562 C 12.207031 14.097656 12.199219 14.054688 12.199219 14.054688 L 12.203125 14.027344 C 12.203125 14.027344 12.210938 14 12.222656 13.996094 C 12.226562 13.992188 12.257812 13.949219 12.257812 13.949219 L 12.261719 13.875 L 12.253906 13.855469 C 12.253906 13.855469 12.25 13.847656 12.234375 13.835938 C 12.222656 13.828125 12.207031 13.816406 12.207031 13.816406 L 12.183594 13.828125 L 12.171875 13.828125 C 12.171875 13.828125 12.164062 13.832031 12.164062 13.824219 C 12.164062 13.816406 12.160156 13.792969 12.160156 13.792969 C 12.160156 13.792969 12.136719 13.773438 12.132812 13.773438 C 12.128906 13.773438 12.101562 13.773438 12.101562 13.773438 L 12.082031 13.765625 L 12.070312 13.761719 L 12.066406 13.742188 L 12.042969 13.742188 L 12.035156 13.773438 L 11.984375 13.773438 L 11.957031 13.777344 L 11.949219 13.789062 L 11.902344 13.789062 L 11.871094 13.828125 L 11.832031 13.828125 L 11.8125 13.847656 L 11.800781 13.863281 L 11.765625 13.863281 L 11.730469 13.871094 L 11.6875 13.878906 L 11.660156 13.898438 C 11.660156 13.898438 11.628906 13.894531 11.628906 13.898438 C 11.625 13.902344 11.609375 13.898438 11.609375 13.910156 C 11.605469 13.925781 11.597656 13.941406 11.597656 13.941406 L 11.554688 13.941406 L 11.507812 13.957031 C 11.507812 13.957031 11.503906 13.957031 11.488281 13.957031 C 11.476562 13.957031 11.460938 13.957031 11.460938 13.957031 L 11.449219 13.96875 C 11.449219 13.96875 11.421875 13.957031 11.417969 13.96875 C 11.410156 13.976562 11.398438 13.988281 11.398438 13.988281 L 11.359375 13.988281 C 11.359375 13.988281 11.351562 14 11.347656 14.007812 C 11.34375 14.019531 11.335938 14.03125 11.335938 14.03125 C 11.335938 14.03125 11.335938 14.039062 11.316406 14.042969 C 11.296875 14.046875 11.289062 14.039062 11.285156 14.046875 C 11.28125 14.046875 11.261719 14.054688 11.261719 14.054688 C 11.261719 14.054688 11.25 14.054688 11.242188 14.058594 C 11.242188 14.0625 11.230469 14.078125 11.230469 14.078125 L 11.21875 14.078125 C 11.21875 14.078125 11.214844 14.082031 11.207031 14.089844 C 11.203125 14.09375 11.183594 14.089844 11.183594 14.089844 C 11.183594 14.089844 11.179688 14.066406 11.164062 14.070312 C 11.148438 14.074219 11.132812 14.082031 11.132812 14.082031 L 11.121094 14.09375 C 11.121094 14.09375 11.121094 14.09375 11.101562 14.085938 C 11.078125 14.078125 11.070312 14.089844 11.070312 14.089844 L 11.058594 14.109375 C 11.058594 14.109375 11.050781 14.109375 11.046875 14.105469 C 11.042969 14.101562 11.046875 14.082031 11.019531 14.074219 C 10.996094 14.0625 10.96875 14.0625 10.96875 14.0625 L 10.964844 14.054688 C 10.964844 14.054688 10.964844 14.050781 10.949219 14.054688 C 10.933594 14.058594 10.929688 14.058594 10.929688 14.0625 C 10.925781 14.066406 10.917969 14.074219 10.917969 14.074219 L 10.898438 14.125 L 10.886719 14.160156 L 10.871094 14.171875 C 10.871094 14.171875 10.878906 14.199219 10.871094 14.199219 C 10.867188 14.199219 10.84375 14.203125 10.84375 14.210938 C 10.84375 14.21875 10.828125 14.230469 10.828125 14.230469 C 10.828125 14.230469 10.8125 14.234375 10.808594 14.234375 C 10.804688 14.234375 10.796875 14.242188 10.785156 14.246094 C 10.777344 14.25 10.773438 14.265625 10.765625 14.265625 C 10.753906 14.265625 10.75 14.296875 10.75 14.296875 L 10.730469 14.3125 L 10.710938 14.332031 L 10.710938 14.402344 L 10.6875 14.402344 L 10.679688 14.414062 L 10.667969 14.417969 L 10.644531 14.433594 L 10.644531 14.453125 C 10.644531 14.453125 10.625 14.480469 10.617188 14.484375 C 10.609375 14.488281 10.597656 14.503906 10.589844 14.503906 C 10.582031 14.503906 10.570312 14.507812 10.570312 14.507812 L 10.5625 14.515625 L 10.449219 14.511719 L 10.449219 14.542969 L 10.421875 14.542969 L 10.402344 14.554688 L 10.378906 14.570312 L 10.359375 14.582031 L 10.351562 14.609375 L 10.328125 14.605469 L 10.308594 14.636719 L 10.253906 14.664062 C 10.253906 14.664062 10.25 14.707031 10.242188 14.714844 C 10.242188 14.726562 10.226562 14.742188 10.222656 14.746094 C 10.21875 14.75 10.175781 14.785156 10.171875 14.792969 C 10.167969 14.804688 10.167969 14.8125 10.160156 14.820312 C 10.148438 14.832031 10.148438 14.839844 10.136719 14.847656 C 10.132812 14.859375 10.117188 14.863281 10.117188 14.863281 L 10.09375 14.871094 L 10.058594 14.871094 L 10.046875 14.910156 L 10.007812 14.949219 L 9.996094 14.972656 L 10 15.007812 L 10.027344 15.019531 L 10.03125 15.03125 L 10.023438 15.058594 L 10.0625 15.085938 L 10.066406 15.109375 L 10.089844 15.128906 L 10.109375 15.140625 L 10.097656 15.179688 C 10.097656 15.179688 10.097656 15.1875 10.097656 15.191406 C 10.097656 15.195312 10.089844 15.210938 10.089844 15.210938 C 10.089844 15.210938 10.074219 15.230469 10.074219 15.234375 C 10.074219 15.234375 10.078125 15.25 10.074219 15.25 C 10.074219 15.25 10.0625 15.25 10.0625 15.25 L 10.054688 15.28125 L 10.054688 15.304688 L 10.050781 15.324219 C 10.050781 15.324219 10.054688 15.335938 10.050781 15.339844 C 10.046875 15.34375 10.042969 15.359375 10.042969 15.359375 L 10.039062 15.371094 L 10.035156 15.410156 L 10.027344 15.421875 L 10.023438 15.445312 L 10.027344 15.464844 L 10.003906 15.496094 L 10 15.511719 C 10 15.511719 10 15.507812 9.992188 15.511719 C 9.980469 15.511719 9.964844 15.511719 9.964844 15.511719 L 9.964844 15.480469 L 9.824219 15.480469 L 9.804688 15.464844 L 9.800781 15.460938 L 9.773438 15.457031 L 9.761719 15.464844 L 9.75 15.496094 C 9.75 15.496094 9.75 15.496094 9.75 15.503906 C 9.746094 15.511719 9.730469 15.515625 9.730469 15.515625 L 9.71875 15.535156 C 9.71875 15.535156 9.71875 15.558594 9.71875 15.5625 C 9.714844 15.566406 9.703125 15.582031 9.703125 15.582031 L 9.695312 15.601562 L 9.691406 15.621094 L 9.671875 15.660156 L 9.664062 15.671875 L 9.660156 15.699219 L 9.640625 15.710938 L 9.628906 15.726562 C 9.628906 15.726562 9.617188 15.722656 9.617188 15.726562 C 9.617188 15.726562 9.613281 15.753906 9.613281 15.753906 L 9.582031 15.753906 L 9.582031 15.773438 L 9.578125 15.785156 L 9.566406 15.796875 L 9.558594 15.808594 L 9.550781 15.855469 C 9.550781 15.855469 9.546875 15.855469 9.546875 15.867188 C 9.546875 15.878906 9.546875 15.898438 9.546875 15.898438 C 9.546875 15.898438 9.535156 15.910156 9.535156 15.917969 C 9.535156 15.921875 9.535156 15.945312 9.535156 15.945312 C 9.535156 15.945312 9.535156 15.957031 9.535156 15.964844 C 9.535156 15.972656 9.535156 15.984375 9.535156 15.984375 L 9.523438 16.011719 L 9.519531 16.039062 L 9.480469 16.066406 L 9.480469 16.21875 L 9.472656 16.238281 L 9.480469 16.257812 L 9.472656 16.269531 C 9.472656 16.269531 9.457031 16.28125 9.453125 16.28125 C 9.449219 16.285156 9.433594 16.300781 9.433594 16.300781 L 9.394531 16.3125 L 9.375 16.320312 L 9.378906 16.347656 C 9.378906 16.347656 9.375 16.359375 9.367188 16.359375 C 9.363281 16.359375 9.371094 16.398438 9.371094 16.398438 L 9.398438 16.425781 L 9.421875 16.433594 L 9.417969 16.464844 L 9.425781 16.511719 L 9.449219 16.539062 L 9.449219 16.582031 L 9.457031 16.601562 L 9.460938 16.621094 L 9.441406 16.648438 L 9.441406 16.664062 L 9.421875 16.679688 L 9.410156 16.695312 L 9.390625 16.734375 L 9.34375 16.792969 L 9.335938 16.824219 L 9.328125 16.847656 L 9.332031 16.863281 C 9.332031 16.863281 9.335938 16.875 9.335938 16.882812 C 9.335938 16.886719 9.335938 16.90625 9.335938 16.90625 L 9.320312 16.925781 L 9.3125 16.945312 L 9.308594 16.957031 L 9.304688 16.980469 L 9.296875 17.003906 L 9.285156 17.03125 L 9.273438 17.042969 L 9.257812 17.046875 L 9.230469 17.046875 L 9.222656 17.066406 L 9.210938 17.082031 L 9.210938 17.132812 L 9.203125 17.140625 L 9.195312 17.164062 L 9.195312 17.191406 C 9.195312 17.191406 9.179688 17.203125 9.175781 17.203125 C 9.171875 17.207031 9.164062 17.214844 9.164062 17.222656 C 9.167969 17.234375 9.164062 17.246094 9.164062 17.246094 L 9.152344 17.273438 L 9.148438 17.300781 L 9.128906 17.320312 L 9.109375 17.324219 L 9.089844 17.332031 C 9.089844 17.332031 9.078125 17.335938 9.074219 17.335938 C 9.070312 17.339844 9.074219 17.363281 9.074219 17.363281 L 9.078125 17.386719 L 9.070312 17.421875 L 9.070312 17.449219 L 9.066406 17.464844 L 9.042969 17.464844 C 9.042969 17.464844 9.042969 17.464844 9.035156 17.472656 C 9.03125 17.472656 9.015625 17.476562 9.011719 17.480469 C 9.011719 17.484375 9.003906 17.5 9.003906 17.5 L 8.992188 17.5 L 8.992188 17.558594 L 8.980469 17.574219 C 8.980469 17.574219 8.960938 17.574219 8.960938 17.582031 C 8.960938 17.585938 8.957031 17.601562 8.957031 17.601562 L 8.933594 17.621094 L 8.921875 17.625 L 8.902344 17.625 L 8.90625 17.695312 L 8.875 17.722656 L 8.875 17.742188 L 8.871094 17.75 L 8.871094 17.789062 L 8.867188 17.835938 L 8.855469 17.847656 L 8.847656 17.863281 L 8.847656 17.90625 L 8.84375 17.917969 L 8.84375 18.125 L 8.847656 18.144531 L 8.851562 18.171875 L 8.828125 18.191406 L 8.839844 18.25 L 8.855469 18.277344 L 8.855469 18.308594 L 8.867188 18.328125 L 8.921875 18.546875 L 8.953125 18.707031 L 8.957031 18.765625 L 8.953125 18.804688 C 8.953125 18.804688 8.980469 18.804688 8.980469 18.8125 C 8.980469 18.816406 8.984375 18.863281 8.984375 18.863281 L 9.007812 18.882812 L 8.933594 18.882812 L 8.953125 18.875 L 8.972656 18.902344 L 8.996094 18.902344 L 9.011719 18.90625 L 9.027344 18.914062 L 9.03125 18.9375 L 9.050781 18.941406 C 9.050781 18.941406 9.074219 18.957031 9.078125 18.957031 C 9.085938 18.957031 9.089844 18.980469 9.089844 18.980469 L 9.089844 19.019531 L 9.148438 19.023438 L 9.164062 19.003906 L 9.179688 19.003906 L 9.191406 19.019531 L 9.210938 19.042969 L 9.234375 19.054688 L 9.242188 19.066406 L 9.253906 19.097656 L 9.253906 19.125 L 9.234375 19.144531 L 9.238281 19.1875 L 9.164062 19.234375 L 9.117188 19.253906 L 9.089844 19.257812 L 9.089844 19.269531 L 9.042969 19.296875 L 9.011719 19.316406 L 8.984375 19.328125 L 8.964844 19.339844 L 8.949219 19.355469 C 8.949219 19.355469 8.941406 19.375 8.933594 19.378906 C 8.929688 19.382812 8.910156 19.398438 8.902344 19.398438 C 8.890625 19.398438 8.84375 19.410156 8.84375 19.410156 L 8.832031 19.429688 L 8.804688 19.429688 L 8.808594 19.449219 L 8.789062 19.460938 L 8.789062 19.492188 L 8.777344 19.550781 L 8.765625 19.570312 L 8.75 19.589844 L 8.75 19.964844 L 8.761719 19.976562 L 8.730469 19.996094 L 8.742188 20.015625 L 8.738281 20.046875 L 8.730469 20.054688 L 8.730469 20.09375 L 8.742188 20.105469 L 8.734375 20.132812 L 8.722656 20.152344 L 8.726562 20.179688 L 8.726562 20.25 L 8.746094 20.269531 L 8.734375 20.292969 L 8.734375 20.320312 L 8.710938 20.34375 L 8.707031 20.382812 L 8.695312 20.402344 L 8.683594 20.417969 L 8.6875 20.453125 L 8.664062 20.472656 L 8.667969 20.503906 L 8.703125 20.511719 L 8.722656 20.542969 L 8.726562 20.558594 L 8.738281 20.566406 C 8.738281 20.566406 8.757812 20.585938 8.761719 20.589844 C 8.769531 20.589844 8.78125 20.597656 8.78125 20.597656 L 8.785156 20.628906 L 8.785156 20.648438 L 8.796875 20.648438 L 8.835938 20.65625 L 8.855469 20.65625 L 8.855469 20.664062 L 8.890625 20.667969 L 8.949219 20.664062 L 8.980469 20.695312 L 8.980469 20.734375 L 8.988281 20.738281 L 8.988281 20.765625 L 9.007812 20.785156 L 9.007812 20.804688 L 9.011719 20.8125 L 9.011719 20.894531 L 9.027344 20.875 L 9.042969 20.875 L 9.074219 20.835938 L 9.132812 20.839844 L 9.121094 20.871094 L 9.09375 20.867188 L 9.074219 20.886719 L 9.054688 20.914062 L 9.042969 20.925781 L 9.054688 20.945312 L 9.066406 20.949219 L 9.0625 20.96875 C 9.0625 20.96875 9.03125 20.96875 9.027344 20.96875 C 9.023438 20.96875 8.996094 20.96875 8.996094 20.96875 L 8.996094 20.957031 L 8.976562 20.957031 L 8.957031 20.96875 C 8.957031 20.96875 8.945312 20.96875 8.9375 20.96875 C 8.933594 20.96875 8.902344 20.964844 8.902344 20.964844 L 8.902344 20.984375 L 8.855469 20.996094 L 8.816406 21.015625 L 8.808594 21.035156 L 8.777344 21.035156 L 8.757812 21.015625 L 8.730469 20.902344 L 8.707031 20.910156 L 8.6875 20.925781 L 8.664062 20.9375 L 8.644531 20.941406 L 8.613281 20.953125 L 8.609375 20.972656 L 8.597656 20.992188 L 8.609375 21.015625 C 8.609375 21.015625 8.609375 21.019531 8.609375 21.023438 C 8.609375 21.03125 8.609375 21.046875 8.609375 21.046875 L 8.59375 21.066406 L 8.59375 21.09375 L 8.582031 21.105469 L 8.59375 21.199219 L 8.601562 21.199219 L 8.605469 21.234375 L 8.613281 21.234375 L 8.609375 21.265625 L 8.625 21.265625 L 8.632812 21.296875 L 8.644531 21.328125 L 8.667969 21.335938 L 8.671875 21.316406 L 8.660156 21.28125 L 8.6875 21.28125 L 8.691406 21.292969 L 8.695312 21.3125 L 8.726562 21.3125 L 8.726562 21.332031 L 8.714844 21.34375 L 8.703125 21.359375 L 8.71875 21.375 L 8.734375 21.371094 L 8.75 21.386719 L 8.78125 21.375 L 8.792969 21.359375 L 8.8125 21.359375 L 8.835938 21.347656 L 8.855469 21.347656 L 8.863281 21.339844 L 8.910156 21.34375 L 8.910156 21.371094 L 8.867188 21.371094 L 8.855469 21.382812 L 8.839844 21.402344 L 8.859375 21.410156 L 8.863281 21.433594 L 8.867188 21.460938 L 8.894531 21.464844 L 8.953125 21.433594 L 8.976562 21.433594 L 8.988281 21.417969 L 9.027344 21.421875 L 9.039062 21.453125 L 9.058594 21.445312 L 9.078125 21.453125 L 9.089844 21.453125 L 9.101562 21.464844 L 9.132812 21.464844 L 9.132812 21.476562 L 9.15625 21.476562 L 9.15625 21.484375 L 9.152344 21.496094 L 9.140625 21.527344 L 9.117188 21.546875 L 9.082031 21.550781 L 9.082031 21.601562 L 9.109375 21.589844 L 9.132812 21.582031 L 9.140625 21.582031 L 9.167969 21.601562 L 9.160156 21.609375 L 9.148438 21.617188 L 9.132812 21.617188 L 9.132812 21.65625 L 9.128906 21.675781 L 9.117188 21.695312 L 9.035156 21.695312 L 9.015625 21.699219 L 8.988281 21.691406 L 8.960938 21.691406 L 8.9375 21.699219 L 8.910156 21.710938 L 8.882812 21.730469 L 8.878906 21.757812 L 8.867188 21.769531 L 8.828125 21.789062 L 8.839844 21.804688 L 8.855469 21.808594 L 8.859375 21.832031 L 8.859375 21.851562 L 8.890625 21.855469 L 8.894531 21.914062 L 8.917969 21.9375 L 8.898438 21.957031 L 8.886719 21.957031 L 8.882812 21.988281 L 8.878906 22.003906 L 8.878906 22.101562 L 8.890625 22.113281 L 8.902344 22.132812 L 8.902344 22.144531 L 8.898438 22.210938 L 8.898438 22.230469 L 8.871094 22.234375 L 8.847656 22.242188 L 8.820312 22.246094 L 8.816406 22.265625 L 8.796875 22.277344 L 8.808594 22.296875 L 8.828125 22.296875 L 8.828125 22.328125 L 8.847656 22.332031 L 8.84375 22.382812 L 8.796875 22.417969 L 8.796875 22.4375 L 8.757812 22.4375 L 8.738281 22.449219 L 8.730469 22.464844 L 8.71875 22.480469 L 8.707031 22.488281 L 8.710938 22.535156 L 8.71875 22.554688 L 8.71875 22.558594 L 8.699219 22.566406 L 8.679688 22.589844 L 8.675781 22.625 L 8.6875 22.632812 L 8.667969 22.644531 L 8.667969 22.648438 L 8.640625 22.664062 L 8.636719 22.695312 L 8.625 22.710938 L 8.617188 22.714844 L 8.589844 22.742188 L 8.589844 22.753906 L 8.609375 22.761719 L 8.609375 22.773438 L 8.570312 22.796875 L 8.558594 22.808594 L 8.535156 22.820312 L 8.527344 22.828125 L 8.523438 22.886719 L 8.503906 22.910156 L 8.5 22.921875 L 8.496094 22.925781 L 8.445312 22.925781 L 8.441406 22.941406 L 8.441406 22.964844 L 8.417969 22.976562 L 8.40625 23.074219 L 8.414062 23.082031 L 8.40625 23.121094 L 8.402344 23.148438 L 8.390625 23.171875 L 8.359375 23.171875 L 8.335938 23.195312 L 8.304688 23.214844 C 8.304688 23.214844 8.296875 23.234375 8.292969 23.234375 C 8.289062 23.234375 8.265625 23.246094 8.265625 23.246094 L 8.253906 23.265625 L 8.242188 23.292969 C 8.242188 23.292969 8.222656 23.3125 8.222656 23.3125 C 8.222656 23.316406 8.222656 23.378906 8.222656 23.378906 L 8.183594 23.417969 L 8.144531 23.40625 L 8.125 23.429688 L 8.105469 23.460938 L 8.042969 23.449219 L 8.019531 23.449219 L 8 23.429688 L 7.972656 23.417969 L 7.960938 23.417969 L 7.917969 23.40625 L 7.917969 23.394531 L 7.871094 23.402344 L 7.832031 23.402344 L 7.800781 23.398438 L 7.773438 23.386719 L 7.753906 23.386719 L 7.726562 23.375 L 7.457031 23.359375 L 7.425781 23.34375 L 7.429688 23.3125 L 7.441406 23.273438 L 7.449219 23.222656 L 7.460938 23.203125 L 7.484375 23.203125 L 7.503906 23.179688 L 7.503906 23.175781 L 7.519531 23.167969 L 7.535156 23.164062 L 7.550781 23.15625 L 7.558594 23.140625 L 7.554688 23.128906 L 7.550781 23.125 L 7.484375 23.125 C 7.484375 23.125 7.480469 23.121094 7.480469 23.113281 C 7.480469 23.109375 7.476562 23.101562 7.476562 23.101562 L 7.4375 23.074219 L 7.40625 23.113281 L 7.378906 23.175781 L 7.359375 23.1875 L 7.335938 23.230469 L 7.339844 23.257812 L 7.3125 23.289062 L 7.3125 23.3125 L 7.308594 23.328125 L 7.308594 23.359375 L 7.253906 23.464844 L 7.238281 23.511719 L 7.207031 23.542969 L 7.210938 23.574219 C 7.210938 23.574219 7.199219 23.582031 7.199219 23.585938 C 7.199219 23.589844 7.160156 23.621094 7.160156 23.621094 L 7.160156 23.644531 L 7.121094 23.699219 L 7.117188 23.738281 L 7.097656 23.769531 L 7.085938 23.789062 L 7.085938 23.804688 L 7.082031 23.832031 L 7.078125 23.851562 L 7.070312 23.867188 L 7.074219 23.925781 L 7.050781 23.925781 L 7.035156 23.957031 L 7.039062 23.988281 L 7.019531 24 L 7.019531 24.019531 L 7.007812 24.019531 L 7.003906 24.050781 L 7.023438 24.050781 L 7.03125 24.074219 L 7.023438 24.078125 L 6.992188 24.105469 L 6.992188 24.125 L 6.972656 24.21875 L 6.996094 24.242188 L 7.035156 24.25 L 7.039062 24.269531 L 7.078125 24.265625 L 7.132812 24.269531 L 7.148438 24.28125 L 7.179688 24.28125 L 7.1875 24.269531 L 7.195312 24.25 L 7.214844 24.242188 L 7.261719 24.222656 L 7.28125 24.195312 L 7.332031 24.066406 L 7.347656 24.035156 L 7.371094 24.003906 L 7.425781 24.003906 L 7.441406 24.007812 L 7.496094 24.003906 L 7.503906 24.019531 L 7.621094 24.015625 L 7.679688 23.996094 L 7.683594 24.007812 L 7.75 24.007812 L 7.75 24.027344 L 7.8125 24.027344 L 7.828125 24.015625 L 7.855469 24.023438 L 7.921875 24.054688 L 7.917969 24.085938 L 7.882812 24.066406 L 7.855469 24.066406 L 7.871094 24.125 L 7.886719 24.121094 L 7.925781 24.117188 L 7.957031 24.136719 L 7.984375 24.15625 L 8.042969 24.195312 L 8.058594 24.222656 L 8.085938 24.3125 L 8.117188 24.328125 L 8.117188 24.371094 L 8.128906 24.386719 L 8.15625 24.40625 L 8.152344 24.449219 L 8.171875 24.449219 L 8.175781 24.46875 L 8.195312 24.46875 L 8.210938 24.488281 L 8.242188 24.558594 L 8.25 24.570312 L 8.246094 24.597656 L 8.265625 24.621094 L 8.34375 24.644531 L 8.355469 24.644531 L 8.394531 24.671875 L 8.414062 24.679688 L 8.414062 24.71875 L 8.4375 24.746094 L 8.414062 24.757812 L 8.414062 24.789062 L 8.410156 24.820312 L 8.414062 24.851562 L 8.414062 24.878906 L 8.453125 24.914062 L 8.484375 24.914062 L 8.496094 24.933594 L 8.546875 24.9375 C 8.546875 24.9375 8.546875 24.945312 8.550781 24.949219 C 8.550781 24.953125 8.570312 24.96875 8.570312 24.96875 L 8.601562 24.96875 L 8.632812 24.976562 L 8.664062 24.976562 L 8.671875 24.964844 L 8.703125 24.964844 L 8.722656 24.972656 C 8.722656 24.972656 8.726562 24.972656 8.746094 24.972656 C 8.765625 24.976562 8.785156 24.976562 8.785156 24.976562 L 8.804688 24.957031 L 8.824219 24.941406 L 8.855469 24.941406 L 8.875 24.945312 L 8.878906 24.925781 L 8.917969 24.910156 L 8.929688 24.882812 L 8.9375 24.859375 L 8.949219 24.832031 L 8.996094 24.832031 L 9.011719 24.863281 L 9.007812 24.917969 L 8.988281 24.929688 L 8.988281 24.960938 L 8.957031 25.003906 L 8.957031 25.035156 L 8.976562 25.042969 L 8.996094 25.023438 L 9.003906 25.011719 L 9.011719 25.003906 L 9.050781 25 L 9.050781 25.027344 L 9.070312 25.027344 L 9.089844 25.066406 L 9.121094 25.070312 L 9.148438 25.097656 L 9.171875 25.109375 L 9.203125 25.089844 L 9.210938 25.117188 L 9.234375 25.109375 L 9.242188 25.136719 L 9.273438 25.132812 L 9.289062 25.152344 L 9.304688 25.164062 L 9.320312 25.167969 L 9.328125 25.1875 L 9.355469 25.191406 L 9.351562 25.210938 L 9.378906 25.207031 L 9.378906 25.21875 L 9.410156 25.230469 L 9.441406 25.238281 L 9.457031 25.265625 L 9.480469 25.296875 L 9.519531 25.296875 L 9.550781 25.328125 L 9.589844 25.328125 L 9.59375 25.332031 L 9.65625 25.34375 L 9.679688 25.34375 L 9.6875 25.355469 L 9.703125 25.355469 L 9.710938 25.335938 L 9.78125 25.339844 L 9.78125 25.320312 L 9.8125 25.328125 L 9.8125 25.375 L 9.835938 25.378906 L 9.839844 25.390625 L 9.839844 25.492188 L 9.867188 25.492188 L 9.875 25.472656 L 9.894531 25.476562 L 9.921875 25.503906 L 9.964844 25.492188 L 9.972656 25.511719 L 10.019531 25.507812 L 10.019531 25.519531 L 10.078125 25.515625 L 10.089844 25.542969 L 10.097656 25.554688 L 10.144531 25.542969 L 10.144531 25.558594 L 10.222656 25.570312 L 10.234375 25.582031 L 10.265625 25.605469 L 10.296875 25.632812 L 10.308594 25.636719 L 10.320312 25.652344 L 10.351562 25.65625 L 10.382812 25.6875 L 10.402344 25.714844 L 10.410156 25.726562 L 10.433594 25.730469 L 10.457031 25.730469 L 10.457031 25.710938 L 10.585938 25.714844 L 10.597656 25.734375 L 10.671875 25.730469 L 10.683594 25.710938 L 10.75 25.714844 L 10.75 25.695312 L 10.8125 25.707031 L 10.8125 25.695312 L 10.871094 25.695312 L 10.886719 25.65625 L 10.902344 25.675781 L 10.917969 25.664062 L 10.957031 25.667969 L 10.960938 25.648438 L 11.042969 25.648438 L 11.066406 25.636719 L 11.089844 25.632812 L 11.105469 25.609375 L 11.164062 25.609375 L 11.210938 25.574219 L 11.210938 25.554688 L 11.234375 25.515625 L 11.234375 25.488281 L 11.273438 25.464844 L 11.289062 25.453125 L 11.328125 25.425781 L 11.324219 25.359375 L 11.355469 25.34375 L 11.410156 25.34375 L 11.421875 25.386719 L 11.410156 25.417969 L 11.402344 25.4375 L 11.421875 25.449219 L 11.441406 25.433594 L 11.488281 25.410156 L 11.5 25.398438 L 11.53125 25.402344 L 11.535156 25.382812 L 11.582031 25.386719 L 11.582031 25.398438 L 11.621094 25.402344 L 11.640625 25.433594 L 11.664062 25.472656 L 11.671875 25.492188 L 11.675781 25.523438 L 11.675781 25.53125 L 11.714844 25.53125 L 11.71875 25.550781 L 11.734375 25.542969 C 11.734375 25.542969 11.738281 25.542969 11.738281 25.550781 C 11.742188 25.554688 11.808594 25.550781 11.808594 25.550781 L 11.8125 25.554688 L 11.832031 25.554688 L 11.835938 25.566406 L 11.890625 25.566406 L 11.890625 25.578125 L 11.914062 25.574219 L 11.921875 25.585938 L 11.953125 25.589844 L 11.957031 25.621094 L 11.984375 25.628906 L 11.996094 25.640625 L 12.023438 25.652344 L 12.050781 25.671875 L 12.058594 25.679688 L 12.089844 25.683594 L 12.109375 25.6875 L 12.101562 25.707031 L 12.105469 25.734375 L 12.101562 25.742188 L 12.089844 25.746094 L 12.070312 25.757812 L 12.070312 25.777344 L 12.089844 25.78125 L 12.140625 25.804688 L 12.152344 25.832031 L 12.175781 25.820312 L 12.179688 25.800781 L 12.238281 25.800781 L 12.238281 25.820312 L 12.246094 25.816406 L 12.273438 25.824219 L 12.332031 25.820312 L 12.363281 25.859375 L 12.382812 25.867188 L 12.40625 25.886719 L 12.414062 25.894531 L 12.441406 25.898438 C 12.441406 25.898438 12.441406 25.910156 12.453125 25.910156 C 12.460938 25.914062 12.53125 25.910156 12.53125 25.910156 L 12.535156 25.925781 L 12.582031 25.925781 L 12.585938 25.910156 L 12.664062 25.910156 L 12.671875 25.898438 L 12.703125 25.894531 L 12.730469 25.882812 L 12.765625 25.871094 L 12.789062 25.882812 L 12.8125 25.867188 L 12.832031 25.855469 L 12.855469 25.859375 L 12.871094 25.859375 L 13.007812 25.855469 L 13.082031 25.851562 L 13.109375 25.855469 L 13.128906 25.859375 L 13.15625 25.878906 L 13.183594 25.867188 L 13.195312 25.886719 L 13.210938 25.894531 L 13.300781 25.964844 L 13.308594 25.984375 L 13.335938 26.003906 L 13.367188 26.03125 L 13.550781 26.03125 L 13.5625 26.039062 L 13.59375 26.035156 L 13.597656 25.960938 L 13.617188 25.929688 L 13.628906 25.925781 L 13.65625 25.910156 L 13.699219 25.910156 L 13.695312 25.941406 L 13.707031 25.941406 L 13.707031 25.984375 L 13.726562 25.992188 L 13.734375 26.015625 L 13.765625 26.015625 L 13.792969 26.050781 L 13.8125 26.039062 L 13.832031 26.050781 L 13.832031 26.070312 L 13.855469 26.082031 L 13.859375 26.09375 C 13.859375 26.09375 13.847656 26.097656 13.859375 26.105469 C 13.867188 26.109375 14.019531 26.113281 14.019531 26.113281 L 14.046875 26.078125 L 14.105469 26.082031 L 14.125 26.066406 L 14.152344 26.066406 L 14.171875 26.050781 L 14.191406 26.046875 L 14.230469 26.027344 L 14.296875 25.988281 L 14.316406 25.980469 L 14.328125 25.957031 L 14.410156 25.960938 L 14.441406 25.949219 L 14.449219 25.941406 L 14.476562 25.941406 L 14.488281 25.964844 L 14.507812 25.953125 L 14.546875 25.949219 L 14.574219 25.945312 L 14.597656 25.9375 L 14.605469 25.9375 L 14.625 25.933594 L 14.652344 25.929688 L 14.703125 25.929688 L 14.773438 25.835938 C 14.78125 25.835938 14.914062 25.835938 14.914062 25.835938 L 14.933594 25.816406 L 15.019531 25.816406 L 15.027344 25.835938 L 15.058594 25.824219 L 15.074219 25.84375 L 15.125 25.84375 L 15.144531 25.824219 L 15.171875 25.816406 L 15.191406 25.835938 L 15.230469 25.832031 L 15.25 25.8125 L 15.273438 25.792969 L 15.308594 25.773438 L 15.328125 25.757812 L 15.355469 25.757812 L 15.367188 25.742188 L 15.445312 25.742188 C 15.445312 25.742188 15.433594 25.742188 15.457031 25.730469 C 15.488281 25.726562 15.675781 25.726562 15.675781 25.726562 L 15.6875 25.714844 L 15.734375 25.707031 L 15.75 25.695312 L 15.785156 25.695312 L 15.835938 25.660156 L 15.910156 25.628906 L 15.921875 25.597656 L 15.949219 25.578125 L 15.980469 25.566406 L 16.011719 25.507812 L 16.039062 25.507812 L 16.050781 25.488281 C 16.050781 25.488281 16.070312 25.480469 16.078125 25.476562 C 16.089844 25.472656 16.105469 25.472656 16.105469 25.472656 L 16.136719 25.433594 L 16.160156 25.402344 L 16.195312 25.390625 L 16.214844 25.382812 L 16.226562 25.355469 L 16.242188 25.316406 L 16.261719 25.316406 L 16.265625 25.34375 L 16.292969 25.355469 L 16.316406 25.359375 C 16.316406 25.359375 16.492188 25.316406 16.503906 25.3125 C 16.511719 25.308594 16.550781 25.28125 16.550781 25.28125 L 16.589844 25.269531 L 16.65625 25.25 L 16.675781 25.242188 L 16.734375 25.230469 L 16.792969 25.203125 L 16.789062 25.183594 L 16.863281 25.1875 L 16.875 25.171875 L 16.925781 25.164062 L 16.929688 25.105469 L 16.957031 25.085938 L 16.984375 25.078125 L 17.007812 25.074219 L 17.027344 25.074219 L 17.058594 25.0625 L 17.085938 25.089844 L 17.226562 25.097656 L 17.261719 25.078125 L 17.304688 25.054688 L 17.332031 25.066406 L 17.363281 25.046875 C 17.363281 25.046875 17.34375 25.042969 17.390625 25.035156 C 17.4375 25.023438 17.457031 25.003906 17.457031 25.003906 L 17.523438 24.976562 L 17.546875 24.957031 L 17.585938 24.972656 L 17.597656 24.953125 L 17.628906 24.960938 L 17.628906 24.921875 L 17.667969 24.925781 L 17.679688 24.945312 L 17.691406 24.96875 L 17.714844 24.964844 L 17.75 24.941406 L 17.769531 24.925781 L 17.929688 24.851562 L 17.988281 24.808594 L 18.015625 24.789062 C 18.015625 24.789062 18.035156 24.785156 18.042969 24.777344 C 18.054688 24.773438 18.074219 24.757812 18.074219 24.757812 L 18.074219 24.746094 L 18.113281 24.742188 L 18.234375 24.6875 L 18.265625 24.660156 L 18.324219 24.628906 L 18.394531 24.640625 L 18.425781 24.601562 L 18.425781 24.574219 L 18.441406 24.570312 L 18.519531 24.566406 L 18.554688 24.554688 L 18.558594 24.535156 L 18.597656 24.535156 L 18.644531 24.484375 L 18.6875 24.464844 L 18.699219 24.433594 L 18.710938 24.40625 L 18.683594 24.386719 L 18.671875 24.3125 L 18.667969 24.289062 L 18.707031 24.277344 L 18.726562 24.25 L 18.75 24.226562 L 18.8125 24.230469 L 18.84375 24.199219 L 18.871094 24.199219 L 18.898438 24.175781 L 18.921875 24.136719 L 18.949219 24.125 L 18.992188 24.097656 L 19 24.066406 L 19.039062 24.050781 L 19.046875 24 L 19.074219 23.921875 L 19.089844 23.855469 L 19.101562 23.847656 L 19.121094 23.855469 L 19.144531 23.820312 L 19.171875 23.820312 L 19.199219 23.808594 L 19.210938 23.828125 L 19.234375 23.839844 L 19.261719 23.820312 L 19.3125 23.824219 L 19.34375 23.792969 L 19.335938 23.753906 L 19.316406 23.710938 L 19.335938 23.695312 L 19.335938 23.664062 L 19.378906 23.65625 L 19.398438 23.625 L 19.429688 23.617188 L 19.457031 23.617188 L 19.480469 23.589844 L 19.488281 23.550781 L 19.519531 23.53125 L 19.546875 23.550781 L 19.574219 23.550781 L 19.578125 23.53125 L 19.597656 23.535156 L 19.628906 23.496094 L 19.539062 23.5 L 19.535156 23.425781 L 19.535156 23.367188 L 19.492188 23.371094 L 19.480469 23.398438 L 19.46875 23.417969 L 19.457031 23.417969 L 19.425781 23.398438 L 19.386719 23.394531 L 19.382812 23.375 L 19.363281 23.367188 L 19.316406 23.355469 L 19.328125 23.3125 L 19.332031 23.300781 L 19.335938 23.253906 L 19.382812 23.296875 L 19.394531 23.316406 L 19.414062 23.316406 L 19.441406 23.328125 L 19.480469 23.332031 L 19.484375 23.296875 L 19.472656 23.265625 L 19.46875 23.253906 L 19.519531 23.273438 L 19.574219 23.3125 L 19.59375 23.320312 L 19.660156 23.34375 L 19.683594 23.359375 L 19.703125 23.359375 L 19.722656 23.320312 L 19.746094 23.3125 L 19.78125 23.339844 L 19.785156 23.320312 L 19.8125 23.316406 L 19.84375 23.335938 L 19.859375 23.335938 L 19.859375 23.394531 L 19.84375 23.417969 L 19.847656 23.433594 L 19.871094 23.433594 L 19.898438 23.441406 L 19.917969 23.4375 L 19.945312 23.402344 L 19.964844 23.351562 L 19.992188 23.34375 L 20.011719 23.300781 L 20.03125 23.289062 L 20.054688 23.230469 L 20.074219 23.210938 L 20.109375 23.199219 L 20.167969 23.128906 L 20.179688 23.113281 L 20.191406 23.101562 L 20.191406 23.089844 L 20.195312 23.058594 L 20.195312 23.007812 L 20.199219 22.957031 L 20.203125 22.921875 L 20.203125 22.898438 L 20.183594 22.878906 L 20.195312 22.851562 L 20.183594 22.820312 L 20.183594 22.804688 L 20.203125 22.789062 L 20.15625 22.726562 L 20.128906 22.710938 L 20.054688 22.710938 L 20.054688 22.730469 L 20.074219 22.726562 L 20.070312 22.667969 L 20.050781 22.664062 L 20.050781 22.636719 L 20.210938 22.636719 L 20.203125 22.664062 L 20.179688 22.667969 L 20.183594 22.628906 L 20.136719 22.625 L 20.117188 22.589844 L 20.128906 22.558594 L 20.128906 22.53125 L 20.121094 22.519531 L 20.050781 22.519531 L 20.027344 22.523438 L 19.992188 22.523438 L 19.949219 22.550781 L 19.949219 22.597656 L 19.945312 22.617188 L 19.925781 22.628906 L 19.898438 22.636719 L 19.886719 22.617188 L 19.875 22.554688 L 19.886719 22.527344 L 19.882812 22.476562 L 19.84375 22.445312 L 19.84375 22.398438 L 19.882812 22.359375 L 19.886719 22.324219 L 19.914062 22.296875 L 19.875 22.246094 L 19.855469 22.242188 L 19.816406 22.183594 L 19.816406 22.113281 L 19.78125 22.132812 L 19.765625 22.09375 L 19.785156 22.070312 L 19.804688 22.058594 L 19.800781 22.03125 L 19.761719 22.007812 L 19.75 22.050781 L 19.730469 22.0625 L 19.703125 22.058594 L 19.699219 22.039062 L 19.679688 22.003906 L 19.644531 21.984375 L 19.625 21.996094 L 19.59375 22 L 19.605469 22.019531 L 19.644531 22.0625 L 19.652344 22.082031 L 19.648438 22.101562 L 19.636719 22.113281 L 19.605469 22.101562 L 19.605469 22.066406 L 19.585938 22.035156 L 19.492188 22.035156 L 19.503906 21.992188 L 19.519531 21.960938 L 19.488281 21.886719 L 19.449219 21.859375 L 19.414062 21.851562 L 19.371094 21.847656 L 19.351562 21.828125 L 19.351562 21.804688 L 19.371094 21.777344 L 19.445312 21.757812 L 19.464844 21.761719 L 19.515625 21.773438 L 19.527344 21.789062 L 19.546875 21.773438 L 19.527344 21.738281 L 19.523438 21.707031 L 19.519531 21.667969 L 19.550781 21.628906 L 19.597656 21.589844 L 19.582031 21.550781 L 19.582031 21.523438 L 19.601562 21.503906 L 19.601562 21.472656 L 19.605469 21.386719 L 19.617188 21.351562 L 19.617188 21.148438 L 19.636719 21.109375 L 19.664062 21.105469 L 19.636719 21.066406 L 19.625 21.066406 L 19.625 21.03125 L 19.59375 21.027344 L 19.570312 20.988281 L 19.589844 20.960938 L 19.5625 20.925781 L 19.570312 20.90625 L 19.613281 20.894531 L 19.644531 20.894531 L 19.671875 20.90625 L 19.703125 20.914062 L 19.703125 20.945312 L 19.71875 20.941406 L 19.730469 20.929688 L 19.757812 20.949219 L 19.78125 20.949219 L 19.796875 20.945312 L 19.828125 20.957031 L 19.847656 21 L 19.878906 21.003906 L 19.882812 21.058594 L 19.921875 21.0625 L 19.921875 21.089844 L 19.933594 21.128906 L 19.921875 21.15625 L 19.890625 21.1875 L 19.894531 21.234375 L 19.945312 21.238281 L 20 21.238281 L 20.011719 21.25 L 20.054688 21.242188 L 20.082031 21.203125 L 20.121094 21.203125 L 20.160156 21.15625 L 20.214844 21.136719 L 20.285156 21.125 L 20.324219 21.121094 L 20.367188 21.140625 L 20.386719 21.160156 L 20.40625 21.125 L 20.40625 21.101562 L 20.425781 21.089844 C 20.425781 21.089844 20.414062 21.078125 20.425781 21.0625 C 20.433594 21.050781 20.488281 21.050781 20.488281 21.050781 L 20.503906 21.058594 L 20.515625 21.046875 L 20.535156 21.042969 L 20.566406 21.015625 L 20.566406 20.996094 L 20.585938 21 L 20.628906 20.949219 L 20.628906 20.910156 L 20.664062 20.871094 L 20.675781 20.820312 L 20.722656 20.820312 L 20.742188 20.816406 L 20.746094 20.785156 L 20.777344 20.726562 L 20.796875 20.703125 L 20.796875 20.613281 L 20.824219 20.59375 L 20.859375 20.542969 L 20.890625 20.507812 L 20.90625 20.464844 L 20.933594 20.464844 L 20.9375 20.421875 L 20.921875 20.402344 L 20.921875 20.363281 L 20.949219 20.359375 L 20.953125 20.34375 L 20.980469 20.34375 L 21 20.355469 L 21.003906 20.316406 C 21.003906 20.316406 21.007812 20.3125 21.015625 20.3125 C 21.027344 20.3125 21.035156 20.3125 21.035156 20.3125 L 21.039062 20.335938 L 21.074219 20.335938 L 21.097656 20.316406 L 21.128906 20.308594 L 21.148438 20.320312 L 21.207031 20.339844 L 21.226562 20.339844 L 21.246094 20.335938 L 21.265625 20.347656 L 21.285156 20.351562 L 21.316406 20.339844 L 21.335938 20.34375 L 21.347656 20.328125 L 21.386719 20.328125 L 21.429688 20.3125 L 21.457031 20.289062 L 21.488281 20.269531 L 21.503906 20.25 L 21.515625 20.234375 L 21.542969 20.214844 L 21.535156 20.195312 L 21.535156 20.109375 L 21.550781 20.0625 L 21.535156 20.019531 L 21.539062 19.984375 L 21.566406 19.953125 L 21.558594 19.910156 L 21.539062 19.910156 L 21.511719 19.914062 L 21.511719 19.886719 L 21.492188 19.863281 L 21.488281 19.851562 L 21.488281 19.824219 L 21.527344 19.824219 L 21.550781 19.835938 L 21.566406 19.847656 L 21.566406 19.867188 L 21.644531 19.867188 L 21.644531 19.886719 L 21.78125 19.886719 L 21.8125 19.890625 L 21.828125 19.871094 L 21.859375 19.875 L 21.863281 19.886719 L 21.890625 19.882812 L 21.902344 19.863281 L 21.929688 19.863281 L 21.957031 19.867188 L 21.96875 19.855469 L 21.980469 19.820312 L 21.964844 19.757812 L 21.949219 19.722656 L 21.929688 19.722656 L 21.902344 19.703125 L 21.871094 19.691406 L 21.824219 19.679688 L 21.796875 19.675781 L 21.777344 19.703125 L 21.757812 19.691406 L 21.71875 19.652344 L 21.667969 19.652344 L 21.640625 19.632812 L 21.636719 19.597656 L 21.644531 19.574219 L 21.6875 19.554688 L 21.707031 19.527344 L 21.710938 19.496094 L 21.730469 19.46875 L 21.707031 19.386719 L 21.71875 19.347656 L 21.722656 19.308594 L 21.695312 19.304688 L 21.683594 19.285156 L 21.679688 19.234375 L 21.703125 19.203125 L 21.714844 19.183594 L 21.753906 19.15625 L 21.753906 19.125 C 21.753906 19.125 21.765625 19.128906 21.777344 19.128906 C 21.789062 19.128906 21.796875 19.109375 21.796875 19.109375 L 21.851562 19.113281 L 21.890625 19.109375 L 21.90625 19.097656 L 21.9375 19.097656 L 21.964844 19.078125 L 21.980469 19.066406 L 22.015625 19.015625 L 22.027344 18.996094 L 22.027344 18.835938 L 22.015625 18.824219 L 22.027344 18.648438 L 22.011719 18.628906 L 21.992188 18.605469 L 21.960938 18.585938 L 21.921875 18.566406 L 21.890625 18.539062 L 21.878906 18.527344 L 21.832031 18.527344 L 21.800781 18.488281 L 21.78125 18.476562 L 21.78125 18.453125 L 21.792969 18.414062 L 21.832031 18.371094 L 21.851562 18.371094 L 21.851562 18.347656 L 21.890625 18.320312 L 21.929688 18.296875 L 21.957031 18.296875 L 21.964844 18.261719 L 21.996094 18.25 L 22.015625 18.203125 L 22.074219 18.210938 L 22.078125 18.242188 L 22.089844 18.28125 L 22.101562 18.296875 C 22.101562 18.296875 22.113281 18.304688 22.121094 18.304688 C 22.121094 18.304688 22.136719 18.296875 22.136719 18.296875 L 22.15625 18.296875 L 22.167969 18.328125 L 22.238281 18.335938 L 22.277344 18.367188 L 22.289062 18.386719 L 22.308594 18.382812 L 22.304688 18.328125 L 22.316406 18.308594 L 22.335938 18.296875 L 22.375 18.289062 L 22.378906 18.257812 L 22.367188 18.238281 L 22.367188 18.230469 L 22.394531 18.21875 L 22.414062 18.207031 L 22.421875 18.1875 L 22.453125 18.164062 C 22.453125 18.164062 22.464844 18.15625 22.464844 18.152344 C 22.464844 18.148438 22.464844 18.105469 22.464844 18.105469 L 22.445312 18.09375 C 22.445312 18.09375 22.4375 18.070312 22.4375 18.066406 C 22.4375 18.058594 22.457031 18.042969 22.457031 18.042969 L 22.496094 18.019531 L 22.496094 17.984375 L 22.46875 17.972656 L 22.449219 17.976562 L 22.421875 17.972656 L 22.410156 17.988281 L 22.367188 17.988281 L 22.351562 17.96875 L 22.34375 17.957031 L 22.332031 17.941406 L 22.320312 17.941406 L 22.320312 17.847656 L 22.332031 17.820312 L 22.390625 17.808594 L 22.414062 17.746094 L 22.429688 17.734375 L 22.4375 17.722656 L 22.445312 17.699219 L 22.445312 17.671875 L 22.421875 17.644531 L 22.390625 17.625 L 22.378906 17.605469 L 22.398438 17.585938 L 22.464844 17.585938 C 22.464844 17.585938 22.460938 17.566406 22.46875 17.558594 C 22.472656 17.554688 22.46875 17.527344 22.46875 17.527344 L 22.472656 17.511719 L 22.507812 17.511719 L 22.519531 17.5 L 22.519531 17.464844 L 22.53125 17.460938 L 22.539062 17.441406 L 22.5625 17.429688 Z M 22.625 17.375 " fill-opacity="1" fill-rule="nonzero"/></g><path fill="#014d4e" d="M 19.179688 9.695312 C 19.179688 9.695312 19.183594 9.703125 19.183594 9.707031 C 19.183594 9.710938 19.179688 9.734375 19.179688 9.734375 L 19.160156 9.746094 L 19.136719 9.742188 L 19.128906 9.765625 L 19.152344 9.777344 L 19.164062 9.785156 L 19.210938 9.785156 L 19.210938 9.757812 L 19.203125 9.738281 L 19.210938 9.726562 L 19.273438 9.734375 L 19.289062 9.742188 L 19.300781 9.757812 L 19.296875 9.769531 L 19.335938 9.769531 L 19.347656 9.746094 L 19.355469 9.726562 L 19.367188 9.710938 L 19.378906 9.730469 L 19.410156 9.722656 L 19.417969 9.671875 L 19.425781 9.660156 L 19.425781 9.636719 L 19.457031 9.636719 L 19.460938 9.667969 L 19.464844 9.691406 L 19.484375 9.691406 L 19.496094 9.671875 L 19.519531 9.671875 L 19.535156 9.660156 L 19.550781 9.660156 L 19.558594 9.671875 C 19.558594 9.671875 19.558594 9.675781 19.558594 9.679688 C 19.558594 9.683594 19.570312 9.691406 19.570312 9.691406 L 19.582031 9.695312 L 19.59375 9.664062 C 19.59375 9.664062 19.613281 9.644531 19.613281 9.664062 C 19.617188 9.6875 19.617188 9.683594 19.617188 9.683594 L 19.667969 9.679688 L 19.6875 9.703125 L 19.71875 9.699219 L 19.746094 9.722656 L 19.773438 9.726562 L 19.796875 9.722656 L 19.808594 9.679688 L 19.816406 9.660156 L 19.84375 9.636719 L 19.8125 9.601562 L 19.796875 9.570312 L 19.773438 9.570312 L 19.753906 9.585938 L 19.734375 9.5625 L 19.683594 9.5625 L 19.660156 9.539062 L 19.652344 9.484375 L 19.628906 9.484375 L 19.613281 9.453125 L 19.582031 9.433594 L 19.554688 9.433594 L 19.535156 9.417969 L 19.535156 9.382812 L 19.519531 9.363281 L 19.441406 9.339844 L 19.445312 9.253906 L 19.457031 9.234375 L 19.515625 9.234375 L 19.515625 9.246094 L 19.535156 9.246094 L 19.546875 9.257812 L 19.582031 9.25 L 19.582031 9.261719 L 19.652344 9.261719 L 19.660156 9.242188 L 19.648438 9.21875 L 19.628906 9.207031 L 19.597656 9.1875 L 19.558594 9.171875 C 19.558594 9.171875 19.53125 9.171875 19.53125 9.160156 C 19.53125 9.152344 19.527344 9.140625 19.527344 9.140625 L 19.488281 9.132812 L 19.46875 9.140625 L 19.445312 9.160156 L 19.445312 9.171875 L 19.410156 9.164062 L 19.398438 9.1875 L 19.371094 9.183594 L 19.351562 9.203125 L 19.324219 9.210938 L 19.304688 9.222656 L 19.304688 9.277344 L 19.324219 9.292969 L 19.371094 9.304688 L 19.402344 9.335938 C 19.402344 9.335938 19.414062 9.339844 19.414062 9.34375 C 19.414062 9.347656 19.414062 9.402344 19.414062 9.402344 C 19.414062 9.402344 19.425781 9.414062 19.433594 9.421875 C 19.433594 9.433594 19.445312 9.460938 19.445312 9.460938 L 19.441406 9.472656 L 19.414062 9.472656 L 19.363281 9.480469 L 19.335938 9.496094 L 19.304688 9.507812 L 19.292969 9.46875 L 19.261719 9.46875 L 19.261719 9.496094 L 19.25 9.515625 L 19.210938 9.523438 L 19.195312 9.523438 L 19.191406 9.507812 L 19.179688 9.507812 L 19.160156 9.511719 L 19.164062 9.558594 L 19.160156 9.597656 L 19.152344 9.617188 L 19.136719 9.636719 L 19.136719 9.648438 C 19.136719 9.65625 19.136719 9.703125 19.136719 9.703125 L 19.195312 9.703125 L 19.195312 9.695312 Z M 19.179688 9.695312 " fill-opacity="1" fill-rule="nonzero"/><path fill="#014d4e" d="M 16.132812 7.761719 L 16.164062 7.726562 L 16.164062 7.660156 L 16.148438 7.671875 L 16.136719 7.679688 L 16.125 7.695312 L 16.085938 7.695312 C 16.085938 7.695312 16.089844 7.730469 16.089844 7.730469 Z M 16.132812 7.761719 " fill-opacity="1" fill-rule="nonzero"/><path fill="#014d4e" d="M 7.941406 24.289062 L 7.929688 24.28125 L 7.917969 24.269531 L 7.902344 24.25 L 7.871094 24.226562 L 7.875 24.257812 L 7.855469 24.277344 L 7.867188 24.289062 L 7.863281 24.296875 L 7.863281 24.3125 L 7.84375 24.308594 L 7.84375 24.363281 L 7.871094 24.375 L 7.867188 24.402344 L 7.855469 24.410156 L 7.855469 24.433594 L 7.882812 24.425781 L 7.894531 24.445312 L 7.933594 24.425781 L 7.949219 24.359375 L 7.949219 24.308594 Z M 7.941406 24.289062 " fill-opacity="1" fill-rule="nonzero"/><g clip-path="url(#c8cdc60f6a)"><path fill="#014d4e" d="M 22.074219 3.4375 L 22.089844 3.457031 L 22.109375 3.460938 L 22.136719 3.492188 L 22.15625 3.5 L 22.183594 3.511719 L 22.207031 3.507812 L 22.21875 3.527344 L 22.265625 3.527344 L 22.265625 3.546875 L 22.339844 3.542969 L 22.378906 3.523438 L 22.398438 3.507812 L 22.414062 3.492188 L 22.429688 3.464844 L 22.46875 3.464844 L 22.488281 3.433594 L 22.5 3.414062 L 22.519531 3.375 L 22.523438 3.355469 L 22.554688 3.324219 L 22.566406 3.296875 L 22.566406 3.285156 L 22.542969 3.285156 L 22.519531 3.261719 L 22.488281 3.25 L 22.476562 3.203125 L 22.476562 3.136719 L 22.515625 3.117188 L 22.550781 3.09375 L 22.566406 3.066406 L 22.566406 3.058594 L 22.597656 3.058594 L 22.597656 3.015625 L 22.550781 2.984375 L 22.527344 2.964844 L 22.515625 2.960938 L 22.503906 2.941406 L 22.457031 2.941406 L 22.453125 2.917969 L 22.375 2.925781 L 22.363281 2.941406 L 22.285156 2.933594 L 22.265625 2.949219 L 22.242188 2.949219 L 22.214844 2.980469 L 22.203125 2.980469 L 22.195312 3 L 22.164062 3.011719 L 22.136719 3.03125 L 22.125 3.058594 L 22.121094 3.078125 L 22.105469 3.078125 L 22.105469 3.105469 L 22.101562 3.125 C 22.101562 3.125 22.101562 3.199219 22.101562 3.207031 C 22.101562 3.214844 22.089844 3.246094 22.089844 3.246094 L 22.070312 3.289062 L 22.058594 3.386719 L 22.078125 3.386719 Z M 22.074219 3.4375 " fill-opacity="1" fill-rule="nonzero"/></g><path fill="#014d4e" d="M 16.785156 6.375 L 16.808594 6.417969 L 16.832031 6.421875 L 16.84375 6.433594 L 16.855469 6.457031 L 16.921875 6.449219 L 16.929688 6.433594 L 16.941406 6.429688 L 16.949219 6.417969 L 16.984375 6.421875 L 16.984375 6.46875 L 17.015625 6.480469 L 17.03125 6.507812 L 17.054688 6.539062 L 17.058594 6.554688 L 17.101562 6.554688 L 17.109375 6.546875 L 17.121094 6.539062 L 17.121094 6.484375 L 17.109375 6.464844 L 17.085938 6.429688 L 17.0625 6.410156 L 17.0625 6.402344 L 17.082031 6.394531 L 17.089844 6.390625 L 17.105469 6.367188 L 17.105469 6.285156 L 17.089844 6.265625 L 17.089844 6.25 L 17.082031 6.234375 L 17.046875 6.234375 L 17.046875 6.195312 L 17.082031 6.183594 L 17.085938 6.15625 L 17.09375 6.144531 L 17.082031 6.136719 L 17.027344 6.136719 L 17.003906 6.144531 L 16.976562 6.15625 L 16.96875 6.191406 L 16.949219 6.210938 L 16.933594 6.214844 L 16.816406 6.214844 L 16.804688 6.222656 L 16.78125 6.242188 L 16.761719 6.257812 L 16.734375 6.289062 L 16.730469 6.3125 L 16.71875 6.332031 L 16.71875 6.339844 L 16.75 6.371094 Z M 16.785156 6.375 " fill-opacity="1" fill-rule="nonzero"/><path fill="#014d4e" d="M 18.488281 4.433594 L 18.488281 4.464844 L 18.535156 4.511719 L 18.535156 4.542969 L 18.523438 4.554688 L 18.554688 4.558594 L 18.582031 4.5625 L 18.609375 4.570312 L 18.628906 4.570312 L 18.628906 4.585938 L 18.660156 4.601562 L 18.660156 4.617188 L 18.707031 4.617188 L 18.734375 4.601562 L 18.746094 4.582031 L 18.753906 4.5625 L 18.78125 4.5 L 18.796875 4.484375 L 18.769531 4.453125 L 18.761719 4.4375 L 18.734375 4.390625 L 18.722656 4.34375 L 18.703125 4.332031 L 18.6875 4.324219 L 18.660156 4.324219 L 18.660156 4.300781 L 18.582031 4.292969 L 18.554688 4.300781 L 18.550781 4.320312 L 18.535156 4.324219 L 18.507812 4.335938 L 18.496094 4.335938 L 18.480469 4.355469 L 18.480469 4.425781 Z M 18.488281 4.433594 " fill-opacity="1" fill-rule="nonzero"/><path fill="#014d4e" d="M 17.804688 4.0625 L 17.839844 4.078125 L 17.84375 4.09375 L 17.863281 4.113281 L 17.863281 4.199219 L 17.84375 4.207031 L 17.824219 4.210938 L 17.820312 4.21875 L 17.820312 4.257812 L 17.8125 4.273438 L 17.8125 4.304688 L 17.828125 4.324219 L 17.851562 4.34375 L 17.878906 4.386719 L 17.902344 4.398438 L 17.917969 4.410156 L 17.933594 4.40625 L 17.964844 4.417969 L 17.964844 4.433594 L 17.984375 4.429688 L 18.003906 4.429688 L 18.011719 4.417969 L 18.019531 4.410156 L 18.070312 4.40625 L 18.078125 4.386719 L 18.082031 4.363281 L 18.109375 4.363281 L 18.109375 4.40625 L 18.222656 4.410156 L 18.253906 4.390625 L 18.257812 4.363281 L 18.273438 4.371094 L 18.273438 4.34375 L 18.316406 4.355469 L 18.324219 4.335938 L 18.351562 4.335938 L 18.355469 4.3125 L 18.398438 4.261719 L 18.414062 4.246094 L 18.414062 4.21875 L 18.375 4.21875 L 18.375 4.191406 L 18.398438 4.183594 L 18.398438 4.160156 L 18.410156 4.15625 L 18.402344 4.09375 L 18.382812 4.074219 L 18.363281 4.058594 L 18.335938 4.03125 L 18.324219 4 L 18.316406 3.96875 L 18.296875 3.933594 L 18.296875 3.914062 L 18.289062 3.886719 L 18.21875 3.847656 L 18.210938 3.832031 L 18.179688 3.835938 L 18.152344 3.828125 L 18.136719 3.820312 L 18.125 3.808594 L 18.101562 3.800781 L 18.101562 3.789062 L 18.019531 3.792969 L 18.003906 3.808594 L 17.992188 3.828125 L 17.984375 3.839844 L 17.945312 3.886719 L 17.933594 3.921875 L 17.910156 3.9375 L 17.902344 3.953125 L 17.875 3.96875 L 17.84375 3.96875 L 17.851562 4 L 17.84375 4.011719 L 17.824219 4.011719 L 17.820312 4 L 17.804688 3.96875 L 17.765625 3.96875 L 17.765625 4.035156 L 17.792969 4.046875 Z M 17.804688 4.0625 " fill-opacity="1" fill-rule="nonzero"/><path fill="#014d4e" d="M 8.011719 22.847656 L 8.011719 22.875 C 8.011719 22.875 8 22.886719 8.003906 22.894531 C 8.007812 22.90625 8.042969 22.910156 8.042969 22.910156 L 8.058594 22.886719 L 8.058594 22.859375 L 8.074219 22.835938 L 8.074219 22.824219 L 8.109375 22.785156 L 8.121094 22.734375 L 8.132812 22.695312 L 8.148438 22.664062 L 8.160156 22.664062 L 8.1875 22.625 L 8.210938 22.605469 L 8.222656 22.574219 L 8.273438 22.511719 L 8.289062 22.476562 L 8.339844 22.429688 L 8.347656 22.378906 L 8.292969 22.382812 L 8.265625 22.386719 L 8.246094 22.371094 L 8.195312 22.386719 L 8.183594 22.402344 L 8.164062 22.417969 L 8.128906 22.453125 L 8.089844 22.464844 L 8.074219 22.503906 L 8.050781 22.507812 L 8.054688 22.527344 L 8.042969 22.539062 L 8.027344 22.589844 L 8.039062 22.785156 L 8.011719 22.8125 Z M 8.011719 22.847656 " fill-opacity="1" fill-rule="nonzero"/></svg>
