<svg xmlns="http://www.w3.org/2000/svg" width="40" zoomAndPan="magnify" viewBox="0 0 30 30.000001" height="40"
     preserveAspectRatio="xMidYMid meet" version="1.0"><defs><clipPath id="5c8259b2e2"><path d="M 13.113281 5 L 14 5 L 14 6 L 13.113281 6 Z M 13.113281 5 " clip-rule="nonzero"/></clipPath><clipPath id="61d5f59a75"><path d="M 13.113281 6 L 15 6 L 15 10 L 13.113281 10 Z M 13.113281 6 " clip-rule="nonzero"/></clipPath><clipPath id="257892107a"><path d="M 15 7 L 16.742188 7 L 16.742188 9 L 15 9 Z M 15 7 " clip-rule="nonzero"/></clipPath><clipPath id="2d0bf26ba7"><path d="M 15 9 L 16.742188 9 L 16.742188 10 L 15 10 Z M 15 9 " clip-rule="nonzero"/></clipPath><clipPath id="720e54729a"><path d="M 15 9 L 16.742188 9 L 16.742188 11 L 15 11 Z M 15 9 " clip-rule="nonzero"/></clipPath><clipPath id="c086123697"><path d="M 13.113281 11 L 15 11 L 15 14 L 13.113281 14 Z M 13.113281 11 " clip-rule="nonzero"/></clipPath><clipPath id="c48abeec7c"><path d="M 13.113281 2.902344 L 16 2.902344 L 16 8 L 13.113281 8 Z M 13.113281 2.902344 " clip-rule="nonzero"/></clipPath><clipPath id="ef9e8fcb87"><path d="M 15 10 L 16.742188 10 L 16.742188 12 L 15 12 Z M 15 10 " clip-rule="nonzero"/></clipPath><clipPath id="0cc6a2954e"><path d="M 15 11 L 16.742188 11 L 16.742188 13 L 15 13 Z M 15 11 " clip-rule="nonzero"/></clipPath><clipPath id="eca998a40e"><path d="M 15 13 L 16.742188 13 L 16.742188 15 L 15 15 Z M 15 13 " clip-rule="nonzero"/></clipPath><clipPath id="a538839c13"><path d="M 15 14 L 16.742188 14 L 16.742188 15 L 15 15 Z M 15 14 " clip-rule="nonzero"/></clipPath><clipPath id="2901e68769"><path d="M 13.113281 14 L 15 14 L 15 16 L 13.113281 16 Z M 13.113281 14 " clip-rule="nonzero"/></clipPath><clipPath id="a5981c1a50"><path d="M 13.113281 14 L 14 14 L 14 15 L 13.113281 15 Z M 13.113281 14 " clip-rule="nonzero"/></clipPath><clipPath id="ee1475a9b2"><path d="M 15 14 L 16.742188 14 L 16.742188 17 L 15 17 Z M 15 14 " clip-rule="nonzero"/></clipPath><clipPath id="313b525b87"><path d="M 13.113281 15 L 15 15 L 15 17 L 13.113281 17 Z M 13.113281 15 " clip-rule="nonzero"/></clipPath><clipPath id="5d951374f0"><path d="M 15 17 L 16.742188 17 L 16.742188 19 L 15 19 Z M 15 17 " clip-rule="nonzero"/></clipPath><clipPath id="27bd252499"><path d="M 14 21 L 16.742188 21 L 16.742188 24 L 14 24 Z M 14 21 " clip-rule="nonzero"/></clipPath><clipPath id="6461d6465e"><path d="M 14 25 L 16 25 L 16 26.128906 L 14 26.128906 Z M 14 25 " clip-rule="nonzero"/></clipPath></defs><g clip-path="url(#5c8259b2e2)"><path fill="#014d4e" d="M 13.679688 5.003906 C 13.570312 5.027344 13.464844 5.027344 13.382812 5.125 C 13.316406 5.214844 13.246094 5.339844 13.214844 5.441406 C 13.207031 5.472656 13.21875 5.480469 13.195312 5.515625 C 13.183594 5.53125 13.125 5.554688 13.125 5.570312 C 13.113281 5.613281 13.191406 5.671875 13.222656 5.695312 C 13.257812 5.71875 13.339844 5.761719 13.378906 5.746094 C 13.453125 5.722656 13.453125 5.636719 13.460938 5.582031 C 13.46875 5.507812 13.46875 5.390625 13.496094 5.296875 C 13.519531 5.269531 13.542969 5.246094 13.546875 5.242188 C 13.558594 5.199219 13.589844 5.171875 13.625 5.148438 C 13.710938 5.144531 13.703125 5.0625 13.679688 5.003906 Z M 13.679688 5.003906 " fill-opacity="1" fill-rule="nonzero"/></g><path fill="#014d4e" d="M 14.59375 9.699219 C 14.597656 9.636719 14.484375 9.519531 14.421875 9.515625 C 14.378906 9.507812 14.363281 9.539062 14.339844 9.5625 C 14.28125 9.566406 14.21875 9.570312 14.160156 9.574219 C 14.132812 9.59375 14.027344 9.679688 14.058594 9.730469 C 14.082031 9.765625 14.320312 9.78125 14.363281 9.78125 C 14.425781 9.78125 14.585938 9.785156 14.59375 9.699219 Z M 14.59375 9.699219 " fill-opacity="1" fill-rule="nonzero"/><g clip-path="url(#61d5f59a75)"><path fill="#014d4e" d="M 14.015625 9.191406 C 14.074219 9.230469 14.164062 9.144531 14.242188 9.160156 C 14.320312 9.175781 14.355469 9.273438 14.445312 9.226562 C 14.511719 9.191406 14.5 9.109375 14.578125 9.0625 C 14.660156 9.011719 14.792969 8.96875 14.851562 8.875 C 14.886719 8.820312 14.878906 8.730469 14.894531 8.667969 C 14.910156 8.605469 14.957031 8.503906 14.90625 8.445312 C 14.847656 8.375 14.773438 8.441406 14.710938 8.457031 C 14.691406 8.289062 14.546875 8.433594 14.46875 8.398438 C 14.464844 8.394531 14.390625 8.320312 14.386719 8.3125 C 14.355469 8.277344 14.328125 8.222656 14.324219 8.179688 C 14.359375 8.164062 14.382812 8.183594 14.414062 8.171875 C 14.449219 8.160156 14.464844 8.128906 14.492188 8.105469 C 14.574219 8.046875 14.550781 8.035156 14.5625 7.941406 C 14.574219 7.851562 14.617188 7.757812 14.605469 7.667969 C 14.589844 7.574219 14.542969 7.480469 14.527344 7.386719 C 14.507812 7.226562 14.601562 7.078125 14.542969 6.910156 C 14.515625 6.851562 14.484375 6.8125 14.472656 6.742188 C 14.464844 6.691406 14.476562 6.589844 14.445312 6.546875 C 14.398438 6.480469 14.371094 6.539062 14.339844 6.59375 C 14.308594 6.644531 14.273438 6.707031 14.25 6.761719 C 14.199219 6.886719 14.128906 6.992188 14.101562 7.121094 C 14.074219 7.25 14.066406 7.375 13.996094 7.488281 C 13.902344 7.632812 13.984375 7.65625 14.03125 7.789062 C 14.066406 7.890625 14.140625 7.980469 14.136719 8.082031 C 14.136719 8.121094 14.121094 8.164062 14.136719 8.199219 C 14.15625 8.238281 14.199219 8.253906 14.21875 8.289062 C 14.234375 8.324219 14.265625 8.398438 14.285156 8.460938 C 14.226562 8.480469 14.160156 8.527344 14.132812 8.574219 C 14.109375 8.613281 14.105469 8.683594 14.085938 8.730469 C 14.054688 8.804688 14 8.839844 13.957031 8.902344 C 13.914062 8.976562 13.949219 9.144531 14.015625 9.191406 Z M 14.015625 9.191406 " fill-opacity="1" fill-rule="nonzero"/></g><g clip-path="url(#257892107a)"><path fill="#014d4e" d="M 15.824219 7.601562 C 15.785156 7.640625 15.746094 7.753906 15.738281 7.84375 C 15.683594 7.875 15.628906 7.90625 15.582031 7.941406 C 15.671875 7.996094 15.519531 8.089844 15.515625 8.144531 C 15.503906 8.246094 15.625 8.171875 15.683594 8.1875 C 15.765625 8.207031 15.8125 8.324219 15.910156 8.335938 C 15.984375 8.347656 15.976562 8.316406 16.019531 8.378906 C 16.046875 8.421875 16.042969 8.484375 16.074219 8.519531 C 16.171875 8.636719 16.203125 8.472656 16.277344 8.425781 C 16.316406 8.394531 16.386719 8.410156 16.421875 8.378906 C 16.46875 8.335938 16.441406 8.3125 16.441406 8.246094 C 16.433594 8.125 16.402344 8.042969 16.3125 7.953125 C 16.226562 7.867188 16.160156 7.765625 16.054688 7.722656 C 15.980469 7.691406 15.984375 7.675781 15.9375 7.617188 C 15.894531 7.558594 15.878906 7.550781 15.824219 7.601562 Z M 15.824219 7.601562 " fill-opacity="1" fill-rule="nonzero"/></g><g clip-path="url(#2d0bf26ba7)"><path fill="#014d4e" d="M 16.03125 9.414062 C 16.09375 9.410156 16.195312 9.429688 16.191406 9.328125 C 16.1875 9.25 16.089844 9.207031 16.027344 9.203125 C 15.960938 9.199219 15.914062 9.234375 15.855469 9.253906 C 15.808594 9.25 15.757812 9.25 15.710938 9.246094 C 15.65625 9.386719 15.925781 9.421875 16.03125 9.414062 Z M 16.03125 9.414062 " fill-opacity="1" fill-rule="nonzero"/></g><g clip-path="url(#720e54729a)"><path fill="#014d4e" d="M 15.777344 10.070312 C 15.875 10.09375 16.015625 10.070312 16.101562 10.023438 C 16.113281 9.917969 16.03125 9.867188 15.941406 9.859375 C 15.890625 9.855469 15.855469 9.871094 15.816406 9.882812 C 15.746094 9.882812 15.679688 9.882812 15.605469 9.886719 C 15.613281 9.886719 15.613281 9.890625 15.617188 9.894531 C 15.519531 9.9375 15.730469 10.054688 15.777344 10.070312 Z M 15.777344 10.070312 " fill-opacity="1" fill-rule="nonzero"/></g><path fill="#014d4e" d="M 14.554688 11.429688 C 14.582031 11.421875 14.683594 11.355469 14.695312 11.332031 C 14.722656 11.28125 14.6875 11.21875 14.640625 11.1875 C 14.605469 11.164062 14.574219 11.167969 14.539062 11.167969 C 14.484375 11.214844 14.414062 11.28125 14.40625 11.289062 C 14.394531 11.308594 14.386719 11.332031 14.386719 11.351562 C 14.394531 11.363281 14.402344 11.382812 14.410156 11.390625 C 14.4375 11.433594 14.496094 11.445312 14.554688 11.429688 Z M 14.554688 11.429688 " fill-opacity="1" fill-rule="nonzero"/><g clip-path="url(#c086123697)"><path fill="#014d4e" d="M 14.21875 13.746094 C 14.292969 13.707031 14.390625 13.511719 14.417969 13.4375 C 14.441406 13.371094 14.480469 13.21875 14.476562 13.148438 C 14.472656 13.050781 14.398438 12.957031 14.40625 12.855469 C 14.410156 12.808594 14.445312 12.757812 14.460938 12.710938 C 14.484375 12.636719 14.496094 12.546875 14.488281 12.46875 C 14.476562 12.324219 14.394531 12.1875 14.382812 12.042969 C 14.375 11.976562 14.402344 11.921875 14.390625 11.855469 C 14.378906 11.792969 14.34375 11.730469 14.304688 11.675781 C 14.226562 11.570312 14.109375 11.554688 14.019531 11.476562 C 13.980469 11.445312 13.992188 11.414062 13.941406 11.398438 C 13.929688 11.394531 13.910156 11.394531 13.894531 11.398438 C 13.859375 11.457031 13.804688 11.550781 13.785156 11.585938 C 13.765625 11.644531 13.75 11.691406 13.75 11.753906 C 13.75 11.824219 13.71875 11.882812 13.710938 11.949219 C 13.707031 12.015625 13.746094 12.097656 13.742188 12.171875 C 13.738281 12.25 13.714844 12.339844 13.695312 12.414062 C 13.648438 12.570312 13.65625 12.730469 13.660156 12.890625 C 13.660156 12.96875 13.683594 13.046875 13.671875 13.125 C 13.660156 13.183594 13.601562 13.28125 13.640625 13.34375 C 13.660156 13.375 13.695312 13.355469 13.710938 13.378906 C 13.734375 13.417969 13.710938 13.460938 13.703125 13.507812 C 13.691406 13.566406 13.664062 13.664062 13.714844 13.714844 C 13.769531 13.769531 13.886719 13.734375 13.953125 13.734375 C 14.035156 13.734375 14.152344 13.78125 14.21875 13.746094 Z M 14.21875 13.746094 " fill-opacity="1" fill-rule="nonzero"/></g><g clip-path="url(#c48abeec7c)"><path fill="#014d4e" d="M 14.078125 3.226562 C 14.140625 3.257812 14.230469 3.285156 14.285156 3.335938 C 14.40625 3.449219 14.347656 3.578125 14.363281 3.703125 C 14.367188 3.703125 14.367188 3.703125 14.367188 3.699219 C 14.371094 3.738281 14.371094 3.777344 14.375 3.820312 C 14.339844 3.875 14.304688 3.925781 14.269531 3.980469 C 14.269531 3.980469 14.269531 3.980469 14.265625 3.980469 C 14.210938 4.09375 14.191406 4.136719 14.195312 4.253906 C 14.199219 4.382812 14.113281 4.5 14.121094 4.625 C 14.128906 4.746094 14.199219 4.851562 14.226562 4.96875 C 14.242188 5.039062 14.261719 5.109375 14.28125 5.183594 C 14.304688 5.265625 14.289062 5.328125 14.300781 5.40625 C 14.3125 5.476562 14.367188 5.546875 14.402344 5.605469 C 14.441406 5.679688 14.515625 5.722656 14.546875 5.792969 C 14.476562 5.886719 14.488281 5.898438 14.574219 5.992188 C 14.652344 6.078125 14.730469 6.15625 14.8125 6.242188 C 14.902344 6.328125 14.976562 6.425781 14.949219 6.542969 C 14.925781 6.65625 14.980469 6.722656 15.058594 6.816406 C 15.148438 6.914062 15.160156 7.054688 15.234375 7.148438 C 15.277344 7.199219 15.363281 7.246094 15.414062 7.285156 C 15.453125 7.316406 15.511719 7.410156 15.546875 7.421875 C 15.679688 7.464844 15.699219 7.199219 15.730469 7.128906 C 15.761719 7.058594 15.808594 6.996094 15.835938 6.929688 C 15.871094 6.84375 15.921875 6.867188 15.964844 6.804688 C 16.023438 6.714844 15.847656 6.464844 15.765625 6.4375 C 15.695312 6.414062 15.675781 6.488281 15.589844 6.476562 C 15.546875 6.46875 15.519531 6.453125 15.488281 6.449219 C 15.488281 6.4375 15.484375 6.429688 15.484375 6.421875 C 15.464844 6.347656 15.433594 6.300781 15.390625 6.238281 C 15.28125 6.070312 15.371094 5.925781 15.371094 5.75 C 15.367188 5.566406 15.164062 5.421875 15.0625 5.289062 C 14.988281 5.183594 14.894531 4.898438 14.714844 5.007812 C 14.671875 4.9375 14.671875 4.878906 14.683594 4.800781 C 14.691406 4.757812 14.703125 4.734375 14.6875 4.691406 C 14.671875 4.65625 14.613281 4.636719 14.621094 4.589844 C 14.625 4.558594 14.6875 4.523438 14.703125 4.5 C 14.726562 4.464844 14.734375 4.421875 14.753906 4.382812 C 14.789062 4.308594 14.835938 4.210938 14.886719 4.148438 C 14.949219 4.070312 15.046875 4.023438 15.113281 3.945312 C 15.191406 3.847656 15.164062 3.816406 15.152344 3.714844 C 15.140625 3.628906 15.242188 3.324219 15.0625 3.40625 C 15.027344 3.425781 15.003906 3.464844 14.964844 3.472656 C 14.941406 3.476562 14.90625 3.441406 14.875 3.453125 C 14.824219 3.472656 14.792969 3.566406 14.785156 3.617188 C 14.621094 3.617188 14.691406 3.808594 14.546875 3.84375 C 14.523438 3.804688 14.523438 3.761719 14.515625 3.71875 C 14.511719 3.699219 14.484375 3.671875 14.484375 3.648438 C 14.484375 3.613281 14.507812 3.617188 14.515625 3.585938 C 14.53125 3.515625 14.558594 3.398438 14.550781 3.328125 C 14.492188 3.320312 14.457031 3.246094 14.414062 3.21875 C 14.351562 3.179688 14.332031 3.164062 14.285156 3.109375 C 14.238281 3.054688 14.007812 2.90625 13.953125 3.007812 C 13.960938 3.121094 13.980469 3.179688 14.078125 3.226562 Z M 14.078125 3.226562 " fill-opacity="1" fill-rule="nonzero"/></g><g clip-path="url(#ef9e8fcb87)"><path fill="#014d4e" d="M 16.164062 10.339844 C 16.085938 10.28125 16.003906 10.375 15.929688 10.371094 C 15.933594 10.371094 15.933594 10.367188 15.933594 10.367188 C 15.933594 10.367188 15.933594 10.367188 15.929688 10.367188 C 15.808594 10.324219 15.738281 10.289062 15.664062 10.421875 C 15.648438 10.453125 15.5625 10.695312 15.664062 10.648438 C 15.675781 10.695312 15.6875 10.742188 15.699219 10.789062 C 15.644531 10.878906 15.558594 11.0625 15.558594 11.097656 C 15.554688 11.164062 15.578125 11.234375 15.585938 11.304688 C 15.59375 11.359375 15.597656 11.515625 15.640625 11.546875 C 15.675781 11.574219 15.742188 11.546875 15.78125 11.578125 C 15.832031 11.625 15.824219 11.691406 15.914062 11.71875 C 16.0625 11.761719 16.128906 11.632812 16.160156 11.515625 C 16.175781 11.457031 16.210938 11.410156 16.253906 11.363281 C 16.273438 11.339844 16.308594 11.320312 16.324219 11.296875 C 16.339844 11.273438 16.332031 11.234375 16.34375 11.214844 C 16.394531 11.136719 16.4375 11.199219 16.496094 11.171875 C 16.578125 11.132812 16.507812 11.074219 16.519531 11.015625 C 16.527344 10.984375 16.5625 10.964844 16.574219 10.933594 C 16.582031 10.914062 16.566406 10.898438 16.570312 10.878906 C 16.578125 10.835938 16.601562 10.785156 16.585938 10.742188 C 16.550781 10.621094 16.382812 10.648438 16.300781 10.585938 C 16.222656 10.53125 16.242188 10.398438 16.164062 10.339844 Z M 16.164062 10.339844 " fill-opacity="1" fill-rule="nonzero"/></g><path fill="#014d4e" d="M 15.929688 10.363281 C 15.933594 10.367188 15.933594 10.367188 15.929688 10.363281 C 15.933594 10.363281 15.929688 10.363281 15.929688 10.363281 Z M 15.929688 10.363281 " fill-opacity="1" fill-rule="nonzero"/><g clip-path="url(#0cc6a2954e)"><path fill="#014d4e" d="M 16.128906 12.183594 C 16.160156 12.136719 16.144531 12.054688 16.070312 12.050781 C 16.0625 11.992188 16.101562 11.929688 16.0625 11.875 C 16.03125 11.824219 15.957031 11.808594 15.910156 11.84375 C 15.847656 11.890625 15.875 11.96875 15.789062 12.003906 C 15.695312 12.039062 15.667969 11.992188 15.617188 12.097656 C 15.589844 12.164062 15.5625 12.230469 15.523438 12.300781 C 15.628906 12.371094 15.546875 12.480469 15.570312 12.574219 C 15.582031 12.625 15.621094 12.628906 15.648438 12.664062 C 15.679688 12.707031 15.671875 12.734375 15.6875 12.785156 C 15.722656 12.90625 15.8125 12.84375 15.871094 12.761719 C 15.945312 12.664062 15.890625 12.613281 15.890625 12.507812 C 15.890625 12.457031 15.925781 12.445312 15.945312 12.40625 C 15.957031 12.382812 15.960938 12.367188 15.964844 12.347656 C 15.992188 12.335938 16.015625 12.324219 16.042969 12.308594 C 16 12.242188 16.101562 12.21875 16.128906 12.183594 Z M 16.128906 12.183594 " fill-opacity="1" fill-rule="nonzero"/></g><g clip-path="url(#eca998a40e)"><path fill="#014d4e" d="M 16.746094 13.894531 C 16.761719 13.816406 16.878906 13.808594 16.8125 13.734375 C 16.734375 13.644531 16.660156 13.734375 16.574219 13.765625 C 16.492188 13.796875 16.351562 13.878906 16.265625 13.835938 C 16.207031 13.808594 16.171875 13.773438 16.125 13.757812 C 16.117188 13.710938 16.113281 13.667969 16.101562 13.621094 C 16.085938 13.558594 15.984375 13.570312 15.96875 13.496094 C 15.945312 13.410156 16.015625 13.242188 15.878906 13.214844 C 15.839844 13.207031 15.769531 13.226562 15.722656 13.222656 C 15.664062 13.21875 15.617188 13.207031 15.574219 13.253906 C 15.523438 13.304688 15.550781 13.324219 15.550781 13.390625 C 15.546875 13.460938 15.53125 13.441406 15.484375 13.496094 C 15.417969 13.570312 15.421875 13.683594 15.4375 13.78125 C 15.464844 13.941406 15.578125 13.855469 15.6875 13.941406 C 15.734375 13.976562 15.742188 14.035156 15.773438 14.085938 C 15.820312 14.167969 15.859375 14.175781 15.9375 14.207031 C 16.019531 14.238281 15.992188 14.261719 16.0625 14.199219 C 16.082031 14.179688 16.109375 14.144531 16.136719 14.132812 C 16.175781 14.117188 16.183594 14.132812 16.222656 14.132812 C 16.371094 14.128906 16.535156 14.128906 16.683594 14.113281 C 16.710938 14.109375 16.777344 14.105469 16.800781 14.089844 C 16.855469 14.054688 16.832031 14.082031 16.839844 14.023438 C 16.84375 13.945312 16.820312 13.914062 16.746094 13.894531 Z M 16.746094 13.894531 " fill-opacity="1" fill-rule="nonzero"/></g><g clip-path="url(#a538839c13)"><path fill="#014d4e" d="M 15.753906 14.550781 C 15.816406 14.570312 15.910156 14.570312 15.96875 14.542969 C 16.203125 14.4375 15.949219 14.3125 15.816406 14.300781 C 15.738281 14.292969 15.65625 14.320312 15.644531 14.394531 C 15.640625 14.414062 15.640625 14.429688 15.652344 14.449219 C 15.640625 14.457031 15.699219 14.535156 15.753906 14.550781 Z M 15.753906 14.550781 " fill-opacity="1" fill-rule="nonzero"/></g><g clip-path="url(#2901e68769)"><path fill="#014d4e" d="M 14.058594 14.617188 C 14.046875 14.671875 14.035156 14.6875 14.050781 14.742188 C 14.0625 14.78125 14.085938 14.789062 14.085938 14.839844 C 14.085938 14.9375 14.039062 15.007812 14.167969 15.046875 C 14.398438 15.117188 14.527344 14.90625 14.621094 14.734375 C 14.703125 14.578125 14.601562 14.351562 14.476562 14.234375 C 14.40625 14.167969 14.320312 14.097656 14.21875 14.140625 C 14.160156 14.164062 14.097656 14.238281 14.074219 14.300781 C 14.042969 14.316406 14.011719 14.335938 13.976562 14.351562 C 13.90625 14.402344 13.980469 14.433594 14.023438 14.476562 C 14.070312 14.519531 14.074219 14.554688 14.058594 14.617188 Z M 14.058594 14.617188 " fill-opacity="1" fill-rule="nonzero"/></g><g clip-path="url(#a5981c1a50)"><path fill="#014d4e" d="M 13.96875 14.355469 C 13.972656 14.355469 13.976562 14.351562 13.980469 14.351562 C 13.976562 14.347656 13.972656 14.351562 13.96875 14.355469 Z M 13.96875 14.355469 " fill-opacity="1" fill-rule="nonzero"/></g><g clip-path="url(#ee1475a9b2)"><path fill="#014d4e" d="M 16.359375 14.84375 C 16.285156 14.785156 16.1875 14.691406 16.113281 14.695312 C 16.074219 14.695312 16.0625 14.730469 16.015625 14.722656 C 15.984375 14.71875 15.960938 14.683594 15.925781 14.679688 C 15.863281 14.671875 15.800781 14.691406 15.730469 14.671875 C 15.703125 14.773438 15.738281 14.882812 15.710938 14.976562 C 15.695312 15.035156 15.628906 15.074219 15.609375 15.132812 C 15.589844 15.1875 15.597656 15.234375 15.605469 15.285156 C 15.617188 15.363281 15.625 15.453125 15.613281 15.53125 C 15.601562 15.605469 15.601562 15.609375 15.617188 15.664062 C 15.628906 15.707031 15.640625 15.757812 15.648438 15.800781 C 15.65625 15.851562 15.671875 16.066406 15.71875 16.066406 C 15.785156 16.066406 15.78125 15.902344 15.785156 15.859375 C 15.796875 15.765625 15.8125 15.71875 15.902344 15.691406 C 15.917969 15.6875 15.941406 15.703125 15.957031 15.699219 C 15.976562 15.695312 15.992188 15.671875 16.007812 15.664062 C 16.046875 15.648438 16.097656 15.667969 16.125 15.65625 C 16.199219 15.632812 16.175781 15.511719 16.195312 15.445312 C 16.214844 15.375 16.265625 15.351562 16.328125 15.3125 C 16.335938 15.222656 16.316406 15.199219 16.402344 15.148438 C 16.390625 15.09375 16.359375 14.988281 16.398438 14.949219 C 16.476562 14.875 16.488281 15.003906 16.546875 15.015625 C 16.621094 14.960938 16.523438 14.890625 16.523438 14.847656 C 16.46875 14.847656 16.414062 14.84375 16.359375 14.84375 Z M 16.359375 14.84375 " fill-opacity="1" fill-rule="nonzero"/></g><g clip-path="url(#313b525b87)"><path fill="#014d4e" d="M 14.253906 16.136719 C 14.285156 16.210938 14.308594 16.164062 14.371094 16.128906 C 14.480469 16.058594 14.546875 15.980469 14.558594 15.84375 C 14.566406 15.765625 14.570312 15.761719 14.609375 15.6875 C 14.640625 15.632812 14.648438 15.578125 14.65625 15.515625 C 14.671875 15.425781 14.667969 15.429688 14.605469 15.371094 C 14.550781 15.320312 14.566406 15.335938 14.554688 15.273438 C 14.542969 15.207031 14.539062 15.09375 14.449219 15.117188 C 14.433594 15.15625 14.421875 15.191406 14.40625 15.230469 C 14.285156 15.191406 14.230469 15.207031 14.136719 15.328125 C 14.09375 15.382812 14.0625 15.410156 14.066406 15.472656 C 14.070312 15.515625 14.117188 15.566406 14.117188 15.601562 C 14.113281 15.707031 13.933594 15.675781 13.996094 15.828125 C 14.019531 15.890625 14.039062 15.898438 14.039062 15.964844 C 14.039062 16.03125 14.003906 16.011719 14.0625 16.070312 C 14.160156 16.171875 14.160156 16.027344 14.203125 15.953125 C 14.203125 15.953125 14.207031 15.953125 14.207031 15.957031 C 14.269531 16.003906 14.230469 16.074219 14.253906 16.136719 Z M 14.253906 16.136719 " fill-opacity="1" fill-rule="nonzero"/></g><path fill="#014d4e" d="M 14.800781 17.574219 C 14.875 17.558594 14.980469 17.585938 15.050781 17.566406 C 15.144531 17.539062 15.089844 17.484375 15.113281 17.417969 C 15.132812 17.363281 15.191406 17.347656 15.242188 17.316406 C 15.367188 17.234375 15.519531 17.167969 15.527344 17.003906 C 15.53125 16.90625 15.496094 16.894531 15.464844 16.816406 C 15.441406 16.757812 15.476562 16.699219 15.453125 16.640625 C 15.414062 16.539062 15.382812 16.605469 15.324219 16.640625 C 15.246094 16.683594 15.269531 16.644531 15.1875 16.609375 C 15.132812 16.585938 15.074219 16.59375 15.015625 16.570312 C 14.964844 16.550781 14.9375 16.53125 14.890625 16.492188 C 14.835938 16.445312 14.691406 16.339844 14.628906 16.433594 C 14.625 16.433594 14.625 16.429688 14.625 16.425781 C 14.605469 16.472656 14.589844 16.519531 14.574219 16.570312 C 14.421875 16.558594 14.25 16.625 14.25 16.78125 C 14.25 16.863281 14.242188 16.96875 14.25 17.050781 C 14.261719 17.152344 14.363281 17.160156 14.390625 17.253906 C 14.410156 17.320312 14.382812 17.40625 14.402344 17.480469 C 14.425781 17.574219 14.488281 17.609375 14.59375 17.613281 C 14.667969 17.617188 14.730469 17.589844 14.800781 17.574219 Z M 14.800781 17.574219 " fill-opacity="1" fill-rule="nonzero"/><g clip-path="url(#5d951374f0)"><path fill="#014d4e" d="M 16.160156 17.699219 C 16.015625 17.730469 15.921875 17.859375 15.789062 17.902344 C 15.699219 17.929688 15.671875 17.96875 15.621094 18.0625 C 15.609375 18.082031 15.589844 18.117188 15.570312 18.152344 C 15.519531 18.167969 15.472656 18.183594 15.421875 18.203125 C 15.425781 18.199219 15.429688 18.203125 15.429688 18.207031 C 15.367188 18.285156 15.304688 18.316406 15.253906 18.402344 C 15.191406 18.507812 15.308594 18.597656 15.386719 18.675781 C 15.4375 18.730469 15.570312 18.839844 15.648438 18.8125 C 15.726562 18.789062 15.691406 18.714844 15.734375 18.675781 C 15.78125 18.628906 15.832031 18.671875 15.890625 18.675781 C 16.027344 18.691406 16.113281 18.628906 16.089844 18.488281 C 16.070312 18.355469 16.113281 18.234375 16.113281 18.101562 C 16.113281 18.039062 16.097656 17.984375 16.128906 17.925781 C 16.171875 17.84375 16.195312 17.898438 16.261719 17.882812 C 16.40625 17.855469 16.269531 17.675781 16.160156 17.699219 Z M 16.160156 17.699219 " fill-opacity="1" fill-rule="nonzero"/></g><g clip-path="url(#27bd252499)"><path fill="#014d4e" d="M 15.753906 22.128906 C 15.753906 22.070312 15.789062 22.015625 15.792969 21.957031 C 15.796875 21.878906 15.78125 21.84375 15.867188 21.816406 C 15.855469 21.742188 15.8125 21.71875 15.777344 21.660156 C 15.730469 21.589844 15.742188 21.496094 15.667969 21.441406 C 15.617188 21.40625 15.535156 21.359375 15.480469 21.335938 C 15.402344 21.304688 15.363281 21.324219 15.289062 21.355469 C 15.238281 21.378906 15.15625 21.410156 15.15625 21.480469 C 15.15625 21.53125 15.222656 21.578125 15.234375 21.640625 C 15.253906 21.730469 15.257812 21.742188 15.328125 21.808594 C 15.371094 21.851562 15.429688 21.914062 15.417969 21.972656 C 15.402344 22.058594 15.371094 22.019531 15.320312 22.011719 C 15.265625 22.003906 15.207031 22.007812 15.15625 21.984375 C 15.144531 22.035156 15.132812 22.089844 15.125 22.144531 C 15.089844 22.128906 15.046875 22.109375 14.992188 22.132812 C 14.921875 22.160156 14.851562 22.203125 14.835938 22.273438 C 14.8125 22.386719 14.8125 22.371094 14.71875 22.4375 C 14.613281 22.515625 14.628906 22.59375 14.648438 22.710938 C 14.667969 22.84375 14.632812 22.964844 14.679688 23.09375 C 14.722656 23.21875 14.785156 23.253906 14.886719 23.3125 C 14.957031 23.351562 15.226562 23.671875 15.320312 23.558594 C 15.335938 23.539062 15.3125 23.484375 15.328125 23.457031 C 15.339844 23.4375 15.371094 23.421875 15.382812 23.40625 C 15.402344 23.382812 15.417969 23.328125 15.453125 23.316406 C 15.46875 23.3125 15.503906 23.339844 15.523438 23.339844 C 15.667969 23.339844 15.738281 23.238281 15.855469 23.191406 C 16.207031 23.0625 16.246094 22.660156 15.996094 22.398438 C 15.925781 22.304688 15.75 22.28125 15.753906 22.128906 Z M 15.753906 22.128906 " fill-opacity="1" fill-rule="nonzero"/></g><g clip-path="url(#6461d6465e)"><path fill="#014d4e" d="M 15.128906 25.722656 C 15.066406 25.6875 14.976562 25.695312 14.90625 25.699219 C 14.882812 25.703125 14.851562 25.71875 14.816406 25.734375 C 14.777344 25.71875 14.738281 25.703125 14.699219 25.691406 C 14.667969 25.734375 14.601562 25.71875 14.570312 25.785156 C 14.53125 25.863281 14.589844 25.871094 14.621094 25.925781 C 14.648438 25.976562 14.628906 26.046875 14.679688 26.078125 C 14.734375 26.113281 14.800781 26.0625 14.855469 26.0625 C 14.917969 26.066406 14.980469 26.125 15.042969 26.125 C 15.125 26.125 15.125 26.074219 15.15625 26.015625 C 15.214844 25.90625 15.28125 25.8125 15.128906 25.722656 Z M 14.707031 25.75 L 14.757812 25.757812 C 14.734375 25.769531 14.714844 25.769531 14.707031 25.75 Z M 14.707031 25.75 " fill-opacity="1" fill-rule="nonzero"/></g></svg>
