<svg xmlns="http://www.w3.org/2000/svg" xmlns:xlink="http://www.w3.org/1999/xlink" width="40" zoomAndPan="magnify" viewBox="0 0 30 30.000001" height="40" preserveAspectRatio="xMidYMid meet" version="1.0"><defs><clipPath id="2a601704fe"><path d="M 9.324219 2.902344 L 20.9375 2.902344 L 20.9375 26.128906 L 9.324219 26.128906 Z M 9.324219 2.902344 " clip-rule="nonzero"/></clipPath></defs><g clip-path="url(#2a601704fe)"><path fill="#014d4e" d="M 20.261719 20.480469 C 20.242188 20.425781 20.242188 20.339844 20.230469 20.285156 C 20.230469 20.277344 20.226562 20.269531 20.226562 20.261719 L 20.664062 19.375 L 20.472656 19.339844 L 20.460938 18.710938 C 20.417969 18.65625 20.375 18.597656 20.324219 18.550781 C 20.144531 18.402344 19.996094 18.214844 19.847656 18.03125 C 19.71875 17.875 19.5625 17.765625 19.410156 17.636719 C 19.273438 17.523438 19.285156 17.382812 19.191406 17.257812 C 19.019531 17.023438 18.789062 16.804688 18.585938 16.601562 C 18.457031 16.472656 18.34375 16.335938 18.210938 16.214844 C 18.09375 16.109375 17.953125 16.011719 17.839844 15.890625 C 17.652344 15.683594 17.410156 15.523438 17.222656 15.308594 C 17.183594 15.277344 17.125 15.222656 17.070312 15.171875 C 17.035156 15.242188 16.996094 15.320312 16.992188 15.382812 C 16.984375 15.472656 17.070312 15.621094 16.9375 15.652344 C 16.925781 15.761719 16.917969 15.832031 17.003906 15.886719 C 17.082031 15.933594 17.203125 15.933594 17.289062 15.921875 C 17.453125 15.890625 17.617188 15.917969 17.695312 16.09375 C 17.765625 16.265625 17.785156 16.46875 17.890625 16.632812 C 17.957031 16.738281 18.050781 16.804688 18.09375 16.925781 C 18.132812 17.035156 18.15625 17.167969 18.191406 17.277344 C 18.257812 17.5 18.363281 17.625 18.488281 17.8125 C 18.375 17.890625 18.355469 17.933594 18.257812 17.84375 C 18.203125 17.789062 18.164062 17.730469 18.105469 17.6875 C 18.046875 17.648438 17.972656 17.632812 17.917969 17.589844 C 17.820312 17.515625 17.800781 17.382812 17.726562 17.300781 C 17.652344 17.21875 17.570312 17.269531 17.488281 17.214844 C 17.425781 17.167969 17.347656 17.089844 17.289062 17.035156 C 17.222656 16.972656 17.183594 16.792969 17.097656 16.765625 C 16.976562 16.726562 16.929688 16.871094 16.949219 16.964844 C 16.964844 17.03125 17.019531 17.011719 16.984375 17.089844 C 16.964844 17.136719 16.914062 17.140625 16.882812 17.175781 C 16.792969 17.277344 16.898438 17.320312 16.871094 17.414062 C 16.855469 17.472656 16.769531 17.484375 16.699219 17.488281 C 16.691406 17.492188 16.613281 17.554688 16.53125 17.605469 C 16.523438 17.578125 16.5 17.566406 16.453125 17.605469 C 16.371094 17.542969 16.457031 17.433594 16.398438 17.355469 C 16.023438 17.410156 15.988281 16.835938 15.78125 16.617188 C 15.820312 16.585938 15.84375 16.554688 15.882812 16.535156 C 15.917969 16.515625 15.96875 16.519531 16 16.492188 C 16.097656 16.398438 15.984375 16.367188 16 16.265625 C 16.023438 16.140625 16.246094 16.046875 16.121094 15.890625 C 16.066406 15.824219 15.980469 15.824219 15.921875 15.753906 C 15.875 15.6875 15.832031 15.550781 15.757812 15.511719 C 15.671875 15.457031 15.589844 15.550781 15.511719 15.523438 C 15.445312 15.496094 15.410156 15.355469 15.375 15.292969 C 15.269531 15.113281 15.128906 14.96875 15.027344 14.785156 C 15.0625 14.753906 15.171875 14.65625 15.1875 14.628906 C 15.230469 14.558594 15.179688 14.425781 15.164062 14.335938 C 15.132812 14.140625 15.121094 13.949219 15.101562 13.761719 C 15.085938 13.585938 14.996094 13.445312 14.929688 13.277344 C 14.902344 13.21875 14.902344 13.234375 14.898438 13.167969 C 14.898438 13.140625 14.925781 13.113281 14.917969 13.078125 C 14.90625 13.011719 14.816406 12.921875 14.773438 12.867188 C 14.710938 12.78125 14.515625 12.585938 14.660156 12.503906 C 14.664062 12.460938 14.664062 12.417969 14.679688 12.378906 C 14.609375 12.308594 14.574219 12.148438 14.621094 12.058594 C 14.585938 12.03125 14.410156 12.007812 14.378906 12.023438 C 14.339844 11.972656 14.304688 11.925781 14.265625 11.875 C 14.273438 11.835938 14.285156 11.792969 14.273438 11.757812 C 14.257812 11.695312 14.207031 11.644531 14.179688 11.59375 C 14.109375 11.472656 13.964844 11.398438 14.082031 11.261719 C 14.128906 11.203125 14.1875 11.183594 14.203125 11.105469 C 14.21875 11.039062 14.1875 10.976562 14.195312 10.910156 C 14.210938 10.773438 14.3125 10.738281 14.425781 10.695312 C 14.5 10.664062 14.667969 10.640625 14.582031 10.515625 C 14.585938 10.476562 14.585938 10.371094 14.589844 10.285156 C 14.601562 10.28125 14.609375 10.28125 14.621094 10.273438 C 14.675781 10.25 14.769531 10.191406 14.820312 10.15625 C 14.882812 10.117188 15.160156 9.894531 15.164062 9.832031 C 15.167969 9.796875 15.117188 9.789062 15.109375 9.761719 C 15.101562 9.722656 15.109375 9.664062 15.097656 9.628906 C 15.066406 9.550781 15 9.5 14.976562 9.414062 C 14.914062 9.1875 15.0625 8.804688 14.777344 8.695312 C 14.773438 8.597656 14.761719 8.511719 14.75 8.417969 C 14.734375 8.308594 14.789062 8.308594 14.808594 8.214844 C 14.824219 8.136719 14.742188 7.996094 14.738281 7.886719 C 14.734375 7.722656 14.730469 7.5625 14.730469 7.398438 C 14.730469 7.332031 14.722656 7.25 14.714844 7.183594 C 14.707031 7.097656 14.652344 7.058594 14.640625 6.988281 C 14.617188 6.863281 14.710938 6.746094 14.574219 6.632812 C 14.65625 6.542969 14.914062 6.414062 14.722656 6.304688 C 14.765625 6.183594 14.933594 6.1875 14.929688 6.046875 C 14.925781 5.855469 14.636719 5.722656 14.53125 5.605469 C 14.472656 5.546875 14.441406 5.472656 14.390625 5.410156 C 14.351562 5.363281 14.199219 5.308594 14.195312 5.292969 C 14.148438 5.253906 14.101562 5.210938 14.054688 5.171875 C 14.046875 5.113281 14.046875 5.050781 14.03125 5.007812 C 13.992188 4.90625 13.914062 4.824219 13.902344 4.707031 C 13.886719 4.574219 13.875 4.566406 13.796875 4.460938 C 13.742188 4.382812 13.730469 4.28125 13.726562 4.1875 C 13.722656 4.121094 13.753906 4 13.714844 3.941406 C 13.671875 3.875 13.519531 3.792969 13.449219 3.746094 C 13.363281 3.6875 13.25 3.605469 13.148438 3.574219 C 13.054688 3.546875 13.011719 3.597656 12.921875 3.617188 C 12.753906 3.664062 12.632812 3.511719 12.464844 3.570312 C 12.433594 3.582031 12.4375 3.617188 12.398438 3.625 C 12.386719 3.628906 12.324219 3.601562 12.3125 3.597656 C 12.238281 3.578125 12.125 3.601562 12.066406 3.558594 C 12.011719 3.519531 11.992188 3.402344 11.945312 3.355469 C 11.882812 3.289062 11.820312 3.273438 11.734375 3.253906 C 11.554688 3.203125 11.464844 3.292969 11.289062 3.308594 C 11.226562 3.3125 11.167969 3.265625 11.113281 3.234375 C 11.027344 3.191406 10.976562 3.199219 10.890625 3.171875 C 10.746094 3.125 10.675781 2.992188 10.5625 2.910156 C 10.527344 2.957031 10.476562 2.953125 10.445312 2.988281 C 10.421875 3.019531 10.40625 3.070312 10.398438 3.113281 C 10.371094 3.203125 10.335938 3.175781 10.40625 3.238281 C 10.449219 3.277344 10.511719 3.269531 10.554688 3.289062 C 10.679688 3.351562 10.621094 3.390625 10.59375 3.5 C 10.554688 3.640625 10.628906 3.695312 10.757812 3.640625 C 10.753906 3.71875 10.851562 3.847656 10.902344 3.871094 C 11 3.808594 10.921875 3.667969 11.050781 3.652344 C 11.066406 3.648438 11.089844 3.683594 11.105469 3.6875 C 11.136719 3.691406 11.175781 3.683594 11.203125 3.6875 C 11.261719 3.699219 11.296875 3.695312 11.339844 3.746094 C 11.402344 3.824219 11.351562 3.910156 11.367188 3.996094 C 11.386719 4.085938 11.445312 4.144531 11.511719 4.207031 C 11.574219 4.257812 11.65625 4.277344 11.710938 4.324219 C 11.734375 4.34375 11.84375 4.511719 11.84375 4.542969 C 11.84375 4.574219 11.789062 4.601562 11.777344 4.625 C 11.761719 4.660156 11.769531 4.695312 11.757812 4.730469 C 11.738281 4.800781 11.683594 4.914062 11.703125 4.992188 C 11.726562 5.085938 11.792969 5.082031 11.871094 5.128906 C 11.929688 5.167969 11.964844 5.21875 12.023438 5.269531 C 12.078125 5.238281 12.1875 5.347656 12.234375 5.332031 C 12.3125 5.375 12.390625 5.421875 12.46875 5.464844 C 12.453125 5.53125 12.445312 5.601562 12.4375 5.621094 C 12.460938 5.707031 12.507812 5.761719 12.511719 5.84375 C 12.511719 5.949219 12.503906 5.960938 12.546875 6.066406 C 12.589844 6.101562 12.636719 6.070312 12.6875 6.09375 C 12.773438 6.136719 12.753906 6.207031 12.792969 6.292969 C 12.816406 6.335938 12.816406 6.351562 12.851562 6.382812 C 12.875 6.40625 12.9375 6.398438 12.953125 6.433594 C 13 6.515625 12.890625 6.613281 12.828125 6.660156 C 12.753906 6.714844 12.679688 6.699219 12.609375 6.746094 C 12.539062 6.792969 12.492188 6.898438 12.453125 6.96875 C 12.40625 7.058594 12.367188 7.113281 12.28125 7.175781 C 12.179688 7.25 12.160156 7.21875 12.046875 7.226562 C 12.007812 7.230469 11.964844 7.253906 11.929688 7.257812 C 11.882812 7.261719 11.855469 7.234375 11.800781 7.246094 C 11.710938 7.269531 11.652344 7.34375 11.648438 7.4375 C 11.566406 7.429688 11.46875 7.398438 11.402344 7.472656 C 11.472656 7.574219 11.609375 7.546875 11.625 7.71875 C 11.628906 7.8125 11.59375 7.796875 11.664062 7.886719 C 11.710938 7.953125 11.78125 8 11.816406 8.070312 C 11.847656 8.132812 11.839844 8.171875 11.890625 8.230469 C 11.949219 8.296875 12 8.234375 11.941406 8.347656 C 11.929688 8.371094 11.875 8.417969 11.851562 8.441406 C 11.832031 8.472656 11.835938 8.511719 11.808594 8.546875 C 11.785156 8.585938 11.738281 8.621094 11.707031 8.652344 C 11.703125 8.65625 11.640625 8.707031 11.636719 8.710938 C 11.605469 8.765625 11.554688 8.890625 11.550781 8.949219 C 11.546875 9.003906 11.59375 9.082031 11.566406 9.140625 C 11.539062 9.105469 11.507812 9.066406 11.484375 9.03125 C 11.433594 9.015625 11.378906 8.980469 11.34375 9.03125 C 11.398438 9.113281 11.492188 9.484375 11.371094 9.523438 C 11.4375 9.601562 11.484375 9.523438 11.554688 9.542969 C 11.632812 9.5625 11.671875 9.671875 11.671875 9.746094 C 11.664062 9.867188 11.601562 9.921875 11.648438 10.050781 C 11.683594 10.144531 11.710938 10.195312 11.671875 10.296875 C 11.652344 10.335938 11.597656 10.363281 11.59375 10.417969 C 11.589844 10.453125 11.628906 10.488281 11.632812 10.527344 C 11.65625 10.679688 11.535156 10.765625 11.496094 10.894531 C 11.46875 10.976562 11.492188 11.113281 11.496094 11.191406 C 11.503906 11.351562 11.546875 11.261719 11.640625 11.34375 C 11.714844 11.40625 11.667969 11.535156 11.75 11.601562 C 11.816406 11.660156 11.882812 11.648438 11.941406 11.726562 C 11.964844 11.757812 11.984375 11.800781 12.003906 11.835938 C 12.125 11.824219 12.203125 11.691406 12.332031 11.742188 C 12.398438 11.765625 12.445312 11.832031 12.488281 11.890625 C 12.402344 11.929688 12.316406 11.96875 12.230469 12.011719 C 12.238281 12.007812 12.242188 12.003906 12.25 12.007812 C 12.140625 12.070312 12.226562 12.140625 12.171875 12.21875 C 12 12.164062 11.875 12.515625 11.753906 12.417969 C 11.636719 12.351562 11.582031 12.335938 11.480469 12.417969 C 11.390625 12.492188 11.296875 12.578125 11.214844 12.65625 C 11.125 12.589844 11.039062 12.480469 10.957031 12.628906 C 10.859375 12.621094 10.753906 12.542969 10.667969 12.632812 C 10.613281 12.691406 10.601562 12.824219 10.570312 12.894531 C 10.539062 12.980469 10.515625 12.960938 10.46875 13.015625 C 10.40625 13.085938 10.433594 13.046875 10.425781 13.144531 C 10.414062 13.265625 10.433594 13.324219 10.46875 13.4375 C 10.703125 13.332031 10.554688 13.847656 10.519531 13.949219 C 10.484375 14.050781 10.46875 14.09375 10.511719 14.195312 C 10.554688 14.296875 10.613281 14.320312 10.523438 14.417969 C 10.359375 14.335938 10.320312 14.789062 10.277344 14.886719 C 10.253906 14.933594 10.214844 15.007812 10.175781 15.039062 C 10.140625 15.070312 10.066406 15.070312 10.039062 15.109375 C 10.019531 15.136719 10.019531 15.214844 10.035156 15.289062 C 9.949219 15.328125 9.863281 15.371094 9.777344 15.410156 C 9.78125 15.410156 9.78125 15.410156 9.78125 15.414062 C 9.710938 15.496094 9.324219 15.417969 9.425781 15.640625 C 9.476562 15.753906 9.632812 15.664062 9.722656 15.683594 C 9.792969 15.695312 9.925781 15.804688 9.941406 15.855469 C 9.972656 15.957031 9.824219 15.972656 9.8125 16.097656 C 9.949219 16.222656 10.152344 16.082031 10.242188 16.25 C 10.261719 16.285156 10.253906 16.332031 10.285156 16.367188 C 10.304688 16.390625 10.363281 16.40625 10.386719 16.429688 C 10.457031 16.511719 10.433594 16.566406 10.566406 16.582031 C 10.601562 16.664062 10.542969 16.742188 10.589844 16.820312 C 10.648438 16.914062 10.691406 16.890625 10.753906 16.828125 C 10.804688 16.777344 10.820312 16.683594 10.882812 16.648438 C 10.902344 16.632812 11.074219 16.605469 11.097656 16.605469 C 11.210938 16.605469 11.144531 16.664062 11.222656 16.730469 C 11.289062 16.789062 11.347656 16.75 11.429688 16.769531 C 11.515625 16.785156 11.597656 16.832031 11.628906 16.921875 C 11.652344 16.996094 11.601562 17.070312 11.617188 17.140625 C 11.628906 17.1875 11.722656 17.359375 11.765625 17.390625 C 11.804688 17.417969 11.863281 17.417969 11.917969 17.40625 C 11.9375 17.460938 11.957031 17.519531 11.980469 17.570312 C 12.121094 17.679688 12.15625 17.964844 12.363281 18.019531 C 12.429688 18.039062 12.449219 18.019531 12.496094 18.070312 C 12.527344 18.105469 12.515625 18.140625 12.5625 18.175781 C 12.609375 18.210938 12.660156 18.183594 12.707031 18.226562 C 12.746094 18.261719 12.738281 18.316406 12.753906 18.363281 C 12.78125 18.460938 12.820312 18.566406 12.953125 18.542969 C 13.121094 18.507812 13.007812 18.359375 13.097656 18.269531 C 13.195312 18.167969 13.238281 18.34375 13.34375 18.375 C 13.480469 18.410156 13.496094 18.265625 13.59375 18.207031 C 13.699219 18.140625 13.863281 18.15625 13.984375 18.164062 C 14.113281 18.171875 14.269531 18.167969 14.386719 18.199219 C 14.394531 18.070312 14.371094 18.042969 14.503906 18.027344 C 14.597656 18.015625 14.703125 18.027344 14.800781 18.039062 C 14.90625 18.050781 14.976562 18.070312 15.074219 18.023438 C 15.148438 17.992188 15.242188 17.949219 15.308594 17.910156 C 15.421875 17.957031 15.445312 17.992188 15.5 18.109375 C 15.558594 18.238281 15.613281 18.269531 15.714844 18.351562 C 15.871094 18.464844 15.871094 18.671875 15.949219 18.832031 C 15.925781 18.878906 15.910156 18.921875 15.890625 18.96875 C 16.0625 18.960938 15.996094 19.277344 16 19.375 C 16.003906 19.496094 16.078125 19.578125 16.101562 19.691406 C 16.121094 19.808594 16.039062 19.890625 16.015625 20.003906 C 15.976562 20.195312 16.152344 20.511719 15.984375 20.664062 C 15.945312 20.699219 15.871094 20.703125 15.832031 20.742188 C 15.773438 20.796875 15.800781 20.789062 15.789062 20.863281 C 15.753906 20.996094 15.648438 21.019531 15.574219 21.132812 C 15.492188 21.257812 15.515625 21.363281 15.515625 21.5 C 15.515625 21.65625 15.433594 21.773438 15.332031 21.882812 C 15.265625 21.953125 15.199219 22.027344 15.132812 22.101562 C 15.082031 22.15625 14.984375 22.199219 14.976562 22.28125 C 14.953125 22.457031 15.21875 22.519531 15.304688 22.628906 C 15.34375 22.683594 15.367188 22.738281 15.40625 22.789062 C 15.457031 22.851562 15.476562 22.839844 15.460938 22.9375 C 15.449219 22.996094 15.414062 23.042969 15.40625 23.105469 C 15.390625 23.199219 15.433594 23.261719 15.476562 23.351562 C 15.574219 23.558594 15.652344 23.546875 15.855469 23.605469 C 16.035156 23.660156 16.027344 23.859375 16.171875 23.9375 C 16.355469 24.039062 16.507812 24.117188 16.652344 24.277344 C 16.765625 24.402344 16.890625 24.507812 17.003906 24.636719 C 17.140625 24.792969 17.339844 24.851562 17.480469 24.996094 C 17.546875 25.0625 17.5625 25.121094 17.664062 25.144531 C 17.746094 25.160156 17.835938 25.117188 17.917969 25.132812 C 17.957031 25.140625 18 25.164062 18.035156 25.1875 C 18.039062 25.261719 18.039062 25.390625 18.042969 25.441406 C 18.097656 25.585938 17.898438 25.625 17.808594 25.691406 C 17.757812 25.730469 17.664062 25.78125 17.671875 25.84375 C 17.679688 25.929688 17.789062 25.933594 17.851562 25.933594 C 17.820312 26.035156 17.742188 26.074219 17.898438 26.097656 C 17.992188 26.113281 18.109375 26.097656 18.207031 26.097656 C 18.273438 26.097656 18.449219 26.121094 18.5 26.097656 C 18.613281 26.054688 18.507812 25.972656 18.507812 25.890625 C 18.507812 25.839844 18.546875 25.808594 18.554688 25.769531 C 18.558594 25.726562 18.53125 25.703125 18.519531 25.652344 C 18.503906 25.605469 18.480469 25.558594 18.46875 25.523438 C 18.453125 25.464844 18.441406 25.449219 18.449219 25.386719 C 18.476562 25.261719 18.570312 25.265625 18.539062 25.125 C 18.519531 25.035156 18.519531 24.925781 18.492188 24.84375 C 18.464844 24.753906 18.296875 24.601562 18.222656 24.5625 C 18.085938 24.488281 18.019531 24.457031 17.945312 24.3125 C 18.019531 24.292969 18.136719 24.265625 18.199219 24.21875 C 18.253906 24.175781 18.269531 24.109375 18.328125 24.066406 C 18.425781 23.992188 18.410156 24.0625 18.425781 23.933594 C 18.4375 23.851562 18.460938 23.84375 18.496094 23.777344 C 18.53125 23.714844 18.503906 23.6875 18.496094 23.605469 C 18.488281 23.496094 18.550781 23.433594 18.582031 23.339844 C 18.625 23.226562 18.617188 23.207031 18.734375 23.15625 C 18.777344 23.136719 18.824219 23.117188 18.871094 23.101562 C 18.882812 23.09375 18.984375 23.035156 18.984375 23.035156 C 19.070312 23.023438 19.117188 23.109375 19.183594 23.152344 C 19.335938 23.246094 19.371094 23.117188 19.457031 23.007812 C 19.511719 23.019531 19.5625 23.042969 19.617188 23.050781 C 19.71875 23.0625 19.707031 23.03125 19.792969 22.980469 C 19.867188 22.933594 19.960938 22.925781 20.042969 22.992188 C 20.109375 22.914062 20.207031 22.855469 20.261719 22.789062 C 20.335938 22.695312 20.257812 22.667969 20.246094 22.570312 C 20.230469 22.488281 20.285156 22.386719 20.296875 22.300781 C 20.320312 22.175781 20.304688 22.058594 20.3125 21.933594 C 20.320312 21.808594 20.328125 21.671875 20.335938 21.546875 C 20.34375 21.433594 20.402344 21.339844 20.414062 21.226562 C 20.441406 21.039062 20.460938 20.785156 20.367188 20.621094 C 20.34375 20.570312 20.285156 20.535156 20.261719 20.480469 Z M 20.261719 20.480469 " fill-opacity="1" fill-rule="nonzero"/></g></svg>