<svg xmlns="http://www.w3.org/2000/svg" width="40" zoomAndPan="magnify" viewBox="0 0 30 30.000001" height="40"
     preserveAspectRatio="xMidYMid meet" version="1.0"><defs><clipPath id="82385930c5"><path d="M 3.386719 6.316406 L 26.613281 6.316406 L 26.613281 23 L 3.386719 23 Z M 3.386719 6.316406 " clip-rule="nonzero"/></clipPath></defs><g clip-path="url(#82385930c5)"><path fill="#014d4e" d="M 26.328125 15.492188 C 26.179688 15.488281 26.03125 15.550781 25.941406 15.65625 C 25.527344 15.632812 25.023438 15.636719 24.746094 15.984375 C 23.515625 16.277344 23.597656 16.355469 23.667969 17.5 C 23.503906 17.570312 23.523438 17.964844 23.511719 18.105469 C 23.363281 18.308594 22.761719 18.574219 23.234375 18.769531 C 23.039062 18.945312 22.75 19.042969 22.5625 18.746094 C 22.5625 18.746094 21.960938 18.941406 21.945312 18.957031 C 21.90625 19.066406 21.777344 19.109375 21.667969 19.132812 C 21.382812 19.128906 20.832031 19.386719 20.59375 19.535156 C 20.40625 19.566406 20.253906 19.394531 20.160156 19.257812 C 20 19.277344 19.90625 19.261719 19.847656 19.101562 C 19.847656 19.101562 19.25 19.132812 19.25 19.132812 C 19.03125 19.453125 19.058594 19.460938 19.089844 19.050781 C 19.046875 18.738281 18.769531 18.78125 18.6875 18.292969 C 18.605469 18.089844 18.152344 17.652344 17.996094 17.5 C 17.871094 17.265625 17.609375 16.777344 17.382812 16.632812 C 17.40625 16.429688 17.351562 16.070312 17.25 15.890625 C 17.460938 15.367188 17.179688 14.605469 17.140625 14.050781 C 17.269531 14.085938 17.277344 13.992188 17.273438 13.886719 C 17.269531 13.8125 17.296875 13.671875 17.203125 13.632812 C 17.140625 13.226562 17.238281 13.277344 17.585938 13.304688 C 17.546875 13.027344 17.574219 12.78125 17.210938 12.753906 C 16.992188 12.789062 16.648438 12.753906 16.492188 12.585938 C 16.347656 12.570312 16.0625 12.597656 16.078125 12.390625 C 15.667969 11.960938 15.902344 11.40625 15.632812 11.472656 C 15.496094 11.339844 15.027344 10.910156 15.074219 10.6875 C 14.984375 10.585938 14.832031 10.320312 14.832031 10.179688 C 14.832031 10.179688 14.265625 9.664062 14.265625 9.664062 L 13.789062 9.671875 C 13.675781 9.644531 13.589844 9.507812 13.570312 9.71875 C 13.148438 9.683594 13.429688 9.992188 13.023438 10.355469 C 12.902344 10.445312 12.121094 9.871094 12.019531 9.816406 C 11.957031 9.582031 11.800781 9.109375 11.703125 8.886719 C 10.511719 8.042969 11.230469 7.851562 9.421875 7.792969 C 9.421875 7.792969 9.410156 8.195312 9.410156 8.195312 L 8.199219 8.09375 C 7.660156 8.144531 6.644531 7.597656 6.203125 7.328125 C 6.195312 7.300781 4.691406 6.546875 4.925781 6.425781 C 4.882812 6.414062 3.386719 6.320312 3.402344 6.324219 C 3.496094 6.636719 3.433594 7.0625 3.617188 7.316406 C 3.703125 7.683594 3.4375 7.570312 3.738281 7.78125 C 3.765625 7.894531 3.726562 8.070312 3.691406 8.15625 C 3.992188 8.132812 3.8125 8.65625 3.84375 8.785156 C 4.28125 9.128906 4.890625 9.632812 4.8125 10.226562 C 4.632812 10.613281 4.285156 10.582031 3.984375 10.375 C 3.890625 10.507812 4.292969 10.707031 4.335938 10.765625 C 4.320312 11.003906 4.292969 11.09375 4.550781 11.105469 C 4.628906 11.246094 4.691406 11.359375 4.847656 11.320312 C 4.859375 11.675781 5.207031 11.476562 5.386719 11.476562 C 5.148438 12.175781 6.464844 11.941406 5.824219 13.292969 C 6.257812 13.96875 7.25 14.414062 7.304688 15.289062 C 7.875 15.136719 8.027344 14.949219 7.65625 14.484375 C 7.535156 14.226562 7.347656 14.015625 7.074219 14.058594 C 6.847656 14.011719 6.90625 13.6875 6.925781 13.554688 C 6.929688 13.46875 6.863281 13.28125 6.800781 13.257812 C 6.820312 13.0625 6.679688 12.769531 6.570312 12.648438 C 6.570312 12.628906 6.542969 11.964844 6.542969 11.980469 C 6.539062 11.964844 6.316406 11.527344 6.320312 11.539062 C 6.320312 11.550781 6.242188 11.867188 6.246094 11.851562 C 6.246094 11.835938 6.199219 11.363281 6.199219 11.375 C 6.085938 11.324219 5.996094 11.160156 5.992188 11.058594 C 5.699219 10.917969 5.71875 10.410156 5.71875 10.164062 C 5.523438 10.269531 5.578125 10.042969 5.574219 9.945312 C 5.421875 9.820312 5.273438 9.472656 5.269531 9.308594 C 4.785156 8.992188 4.589844 8.421875 4.695312 7.890625 C 4.796875 7.039062 4.488281 6.914062 5.296875 7.523438 C 5.371094 7.257812 5.621094 7.550781 5.597656 7.699219 C 5.609375 7.703125 5.9375 7.828125 5.929688 7.828125 C 5.917969 8.078125 5.730469 8.3125 5.976562 8.511719 C 6 8.941406 6.25 9.414062 6.320312 9.796875 C 6.429688 10.183594 6.808594 10.335938 6.878906 10.71875 C 6.976562 10.835938 7.238281 10.871094 7.359375 10.875 C 7.191406 11.140625 7.355469 11.417969 7.566406 11.570312 C 7.886719 11.546875 7.785156 11.773438 7.796875 11.96875 C 7.808594 11.96875 8.140625 11.96875 8.125 11.96875 C 8.238281 12.273438 8.351562 12.449219 8.03125 12.617188 C 7.960938 12.988281 8.851562 13.257812 9.0625 13.5 C 8.84375 13.871094 9.695312 14.460938 9.855469 14.667969 C 10.015625 14.796875 10.203125 15.105469 10.253906 15.273438 C 10.265625 15.285156 10.808594 15.832031 10.796875 15.824219 C 10.832031 15.996094 10.863281 16.535156 10.953125 16.65625 C 11.023438 16.695312 11.3125 16.867188 11.140625 16.929688 C 11.058594 17.152344 11.0625 17.511719 11.144531 17.707031 C 11.132812 17.722656 10.730469 17.746094 10.738281 17.746094 C 10.78125 18.15625 11.121094 18.535156 11.371094 18.804688 C 11.882812 18.972656 12.382812 19.476562 12.71875 19.8125 C 12.742188 19.816406 13.757812 20.152344 13.75 20.148438 C 13.761719 19.984375 13.855469 20.066406 13.941406 20.085938 C 14.25 20.492188 15.035156 20.890625 15.511719 20.964844 C 15.75 21.136719 16.265625 21.265625 16.527344 21.304688 C 16.730469 21.234375 16.90625 21.417969 16.992188 21.550781 C 17.566406 21.625 17.574219 21.929688 18.25 21.820312 C 18.480469 21.90625 18.84375 22.101562 19.105469 22.003906 C 19.246094 21.839844 19.773438 21.714844 19.929688 21.550781 C 20.660156 20.679688 22.257812 22.21875 22.863281 22.707031 C 22.871094 22.324219 22.976562 21.523438 22.941406 21.1875 C 23.273438 21.085938 23.960938 21.035156 24.28125 21.039062 C 24.28125 21.023438 24.257812 20.664062 24.265625 20.640625 C 23.894531 20.628906 24.023438 20.3125 23.625 20.308594 C 22.628906 19.59375 24.003906 20.511719 23.542969 19.421875 C 23.777344 19.433594 25.039062 19.246094 25.15625 19.214844 C 25.140625 18.984375 25.246094 19.003906 25.402344 19.058594 C 25.402344 19.046875 25.476562 18.75 25.476562 18.757812 C 25.59375 18.742188 25.601562 18.5625 25.605469 18.484375 C 25.667969 18.445312 25.78125 18.449219 25.835938 18.511719 C 25.941406 18.476562 26.074219 18.511719 26.09375 18.644531 C 26.316406 18.804688 26.222656 17.742188 26.28125 17.71875 C 26.097656 17.753906 26.140625 17.648438 26.132812 17.542969 C 26.140625 17.539062 26.34375 17.484375 26.335938 17.488281 C 26.339844 17.476562 26.394531 17.285156 26.390625 17.296875 C 26.378906 17.300781 26.109375 17.394531 26.074219 17.390625 C 26.011719 17.324219 26.214844 17.136719 26.242188 17.089844 C 26.25 16.90625 26.234375 16.898438 26.070312 16.914062 C 26.101562 16.726562 26.429688 16.257812 26.546875 16.128906 C 26.542969 15.875 26.613281 15.597656 26.328125 15.492188 " fill-opacity="1" fill-rule="nonzero"/></g></svg>
