<svg xmlns="http://www.w3.org/2000/svg" width="40" zoomAndPan="magnify" viewBox="0 0 30 30.000001" height="40"
     preserveAspectRatio="xMidYMid meet" version="1.0"><defs><clipPath id="2b032de2ff"><path d="M 14 9 L 26.613281 9 L 26.613281 18 L 14 18 Z M 14 9 " clip-rule="nonzero"/></clipPath><clipPath id="efecfa7e20"><path d="M 4 8.796875 L 13 8.796875 L 13 20.410156 L 4 20.410156 Z M 4 8.796875 " clip-rule="nonzero"/></clipPath><clipPath id="3eb518c319"><path d="M 3.386719 9 L 4 9 L 4 10 L 3.386719 10 Z M 3.386719 9 " clip-rule="nonzero"/></clipPath></defs><path fill="#014d4e" d="M 24.671875 13.40625 C 24.730469 13.421875 24.800781 13.449219 24.796875 13.519531 C 24.796875 13.542969 24.785156 13.601562 24.757812 13.613281 C 24.734375 13.625 24.710938 13.601562 24.6875 13.585938 C 24.65625 13.574219 24.621094 13.582031 24.589844 13.570312 C 24.554688 13.5625 24.542969 13.53125 24.527344 13.5 C 24.488281 13.429688 24.457031 13.382812 24.515625 13.339844 C 24.574219 13.363281 24.621094 13.394531 24.671875 13.40625 Z M 24.671875 13.40625 " fill-opacity="1" fill-rule="nonzero"/><path fill="#014d4e" d="M 24.003906 9.386719 C 24.027344 9.421875 23.976562 9.460938 23.96875 9.492188 C 23.960938 9.523438 23.988281 9.5625 23.964844 9.582031 C 23.933594 9.613281 23.878906 9.582031 23.847656 9.59375 C 23.800781 9.613281 23.742188 9.769531 23.714844 9.636719 C 23.699219 9.554688 23.699219 9.5 23.761719 9.449219 C 23.808594 9.433594 23.851562 9.417969 23.902344 9.390625 C 23.921875 9.375 23.976562 9.347656 24.003906 9.386719 Z M 24.003906 9.386719 " fill-opacity="1" fill-rule="nonzero"/><g clip-path="url(#2b032de2ff)"><path fill="#014d4e" d="M 18.523438 14.617188 C 18.527344 14.566406 18.535156 14.519531 18.5625 14.476562 C 18.597656 14.425781 18.648438 14.398438 18.699219 14.367188 C 18.847656 14.28125 18.890625 14.144531 18.964844 14 C 19.027344 13.871094 19.144531 13.855469 19.253906 13.773438 C 19.375 13.683594 19.421875 13.535156 19.527344 13.4375 C 19.617188 13.347656 19.730469 13.316406 19.757812 13.179688 C 19.769531 13.105469 19.710938 12.886719 19.808594 12.851562 C 19.921875 12.8125 20.054688 12.972656 20.101562 13.054688 C 20.164062 13.152344 20.210938 13.234375 20.296875 13.3125 C 20.378906 13.382812 20.453125 13.5 20.550781 13.558594 C 20.648438 13.609375 20.746094 13.546875 20.824219 13.488281 C 20.820312 13.4375 20.820312 13.386719 20.84375 13.335938 C 20.871094 13.285156 20.917969 13.238281 20.921875 13.171875 C 20.925781 13.113281 20.886719 13.054688 20.863281 13.003906 C 20.828125 12.925781 20.800781 12.835938 20.800781 12.75 C 20.800781 12.679688 20.816406 12.632812 20.878906 12.605469 C 20.941406 12.582031 21.003906 12.558594 21.066406 12.539062 C 21.121094 12.515625 21.128906 12.539062 21.125 12.59375 C 21.121094 12.667969 21.101562 12.742188 21.109375 12.8125 C 21.121094 12.945312 21.183594 13.054688 21.1875 13.183594 C 21.234375 13.199219 21.28125 13.214844 21.328125 13.238281 C 21.371094 13.257812 21.417969 13.304688 21.472656 13.300781 C 21.527344 13.296875 21.5625 13.242188 21.539062 13.191406 C 21.519531 13.132812 21.453125 13.113281 21.4375 13.054688 C 21.417969 13.007812 21.453125 12.96875 21.457031 12.921875 C 21.464844 12.859375 21.441406 12.792969 21.414062 12.730469 C 21.394531 12.679688 21.371094 12.625 21.332031 12.585938 C 21.296875 12.550781 21.257812 12.535156 21.285156 12.476562 C 21.324219 12.386719 21.371094 12.460938 21.410156 12.496094 C 21.457031 12.535156 21.523438 12.503906 21.578125 12.507812 C 21.589844 12.46875 21.582031 12.425781 21.582031 12.386719 C 21.585938 12.335938 21.609375 12.335938 21.65625 12.316406 C 21.703125 12.300781 21.730469 12.300781 21.75 12.253906 C 21.769531 12.214844 21.789062 12.171875 21.820312 12.136719 C 21.828125 12.128906 21.84375 12.117188 21.855469 12.101562 C 21.777344 12.078125 21.710938 12.0625 21.625 12.066406 C 21.527344 12.078125 21.476562 11.964844 21.542969 11.886719 C 21.578125 11.847656 21.636719 11.847656 21.679688 11.820312 C 21.734375 11.792969 21.769531 11.738281 21.804688 11.6875 C 21.824219 11.652344 21.847656 11.617188 21.890625 11.632812 C 21.925781 11.644531 21.945312 11.679688 21.988281 11.683594 C 22.039062 11.691406 22.09375 11.671875 22.144531 11.671875 C 22.160156 11.671875 22.175781 11.671875 22.191406 11.675781 C 22.199219 11.644531 22.207031 11.613281 22.21875 11.582031 C 22.226562 11.527344 22.21875 11.472656 22.246094 11.429688 C 22.277344 11.382812 22.335938 11.375 22.378906 11.347656 C 22.429688 11.3125 22.429688 11.28125 22.425781 11.222656 C 22.421875 11.160156 22.429688 11.132812 22.476562 11.09375 C 22.535156 11.050781 22.542969 11.027344 22.546875 10.957031 C 22.550781 10.910156 22.574219 10.847656 22.609375 10.8125 C 22.648438 10.773438 22.71875 10.78125 22.742188 10.730469 C 22.757812 10.703125 22.757812 10.675781 22.769531 10.648438 C 22.789062 10.617188 22.8125 10.597656 22.839844 10.574219 C 22.867188 10.554688 22.898438 10.539062 22.933594 10.527344 C 22.941406 10.484375 22.960938 10.4375 22.984375 10.402344 C 23.039062 10.328125 23.128906 10.3125 23.148438 10.214844 C 23.160156 10.171875 23.152344 10.128906 23.179688 10.089844 C 23.203125 10.058594 23.234375 10.042969 23.261719 10.007812 C 23.300781 9.957031 23.289062 9.8125 23.386719 9.835938 C 23.472656 9.859375 23.4375 9.945312 23.410156 10.015625 C 23.476562 10.0625 23.484375 10.121094 23.421875 10.195312 C 23.375 10.246094 23.339844 10.292969 23.339844 10.371094 C 23.339844 10.476562 23.429688 10.386719 23.460938 10.339844 C 23.480469 10.3125 23.5 10.285156 23.53125 10.265625 C 23.554688 10.246094 23.585938 10.238281 23.601562 10.210938 C 23.625 10.175781 23.617188 10.132812 23.636719 10.101562 C 23.648438 10.078125 23.671875 10.066406 23.691406 10.0625 C 23.699219 10 23.691406 9.90625 23.730469 9.867188 C 23.769531 9.828125 23.890625 9.851562 23.925781 9.894531 C 23.96875 9.945312 23.914062 10.03125 23.945312 10.089844 C 23.957031 10.117188 23.988281 10.140625 24.003906 10.164062 C 24.027344 10.195312 24.027344 10.230469 24.039062 10.265625 C 24.058594 10.332031 24.128906 10.355469 24.195312 10.375 C 24.253906 10.398438 24.320312 10.363281 24.375 10.386719 C 24.449219 10.410156 24.480469 10.488281 24.554688 10.511719 C 24.621094 10.527344 24.6875 10.566406 24.636719 10.644531 C 24.621094 10.679688 24.582031 10.695312 24.554688 10.722656 C 24.527344 10.75 24.503906 10.785156 24.472656 10.820312 C 24.449219 10.847656 24.421875 10.863281 24.386719 10.875 C 24.425781 10.921875 24.429688 10.964844 24.421875 11.027344 C 24.417969 11.058594 24.417969 11.082031 24.410156 11.109375 C 24.402344 11.136719 24.378906 11.15625 24.375 11.183594 C 24.363281 11.265625 24.460938 11.222656 24.503906 11.210938 C 24.566406 11.191406 24.644531 11.222656 24.699219 11.191406 C 24.726562 11.179688 24.738281 11.148438 24.761719 11.136719 C 24.792969 11.121094 24.820312 11.136719 24.851562 11.132812 C 24.910156 11.128906 24.933594 11.023438 24.980469 11.027344 C 25.03125 11.03125 25.03125 11.160156 25.042969 11.195312 C 25.066406 11.246094 25.125 11.285156 25.085938 11.34375 C 25.050781 11.390625 24.992188 11.417969 24.9375 11.410156 C 24.894531 11.40625 24.855469 11.40625 24.816406 11.417969 C 24.832031 11.449219 24.84375 11.5 24.871094 11.523438 C 24.90625 11.558594 24.925781 11.527344 24.957031 11.507812 C 25.039062 11.449219 25.070312 11.503906 25.113281 11.566406 C 25.179688 11.664062 25.179688 11.511719 25.1875 11.46875 C 25.195312 11.425781 25.210938 11.3125 25.28125 11.335938 C 25.316406 11.347656 25.328125 11.394531 25.359375 11.417969 C 25.386719 11.4375 25.414062 11.433594 25.4375 11.464844 C 25.457031 11.492188 25.453125 11.527344 25.492188 11.535156 C 25.527344 11.546875 25.558594 11.519531 25.582031 11.550781 C 25.632812 11.597656 25.585938 11.6875 25.679688 11.707031 C 25.761719 11.722656 25.734375 11.601562 25.800781 11.605469 C 25.832031 11.609375 25.855469 11.671875 25.875 11.691406 C 25.902344 11.71875 25.941406 11.722656 25.964844 11.75 C 25.992188 11.789062 25.988281 11.847656 26.007812 11.898438 C 26.074219 11.921875 26.140625 11.933594 26.214844 11.917969 C 26.296875 11.894531 26.363281 11.890625 26.449219 11.917969 C 26.511719 11.933594 26.601562 11.96875 26.597656 12.042969 C 26.59375 12.121094 26.519531 12.21875 26.460938 12.265625 C 26.378906 12.332031 26.285156 12.304688 26.191406 12.304688 C 26.09375 12.304688 26.027344 12.355469 25.945312 12.40625 C 25.804688 12.492188 25.621094 12.433594 25.46875 12.414062 C 25.386719 12.40625 25.324219 12.410156 25.261719 12.460938 C 25.214844 12.496094 25.171875 12.523438 25.128906 12.546875 C 25.15625 12.59375 25.1875 12.636719 25.226562 12.675781 C 25.28125 12.730469 25.34375 12.78125 25.394531 12.839844 C 25.445312 12.894531 25.492188 12.953125 25.550781 13.007812 C 25.585938 13.046875 25.675781 13.121094 25.644531 13.183594 C 25.613281 13.253906 25.492188 13.21875 25.441406 13.207031 C 25.359375 13.179688 25.28125 13.152344 25.199219 13.191406 C 25.125 13.230469 25.070312 13.296875 24.988281 13.324219 C 24.902344 13.347656 24.8125 13.3125 24.738281 13.273438 C 24.671875 13.238281 24.617188 13.171875 24.546875 13.140625 C 24.484375 13.117188 24.410156 13.128906 24.339844 13.152344 C 24.335938 13.25 24.316406 13.363281 24.21875 13.332031 C 24.121094 13.300781 24.035156 13.183594 23.925781 13.191406 C 23.867188 13.195312 23.8125 13.210938 23.753906 13.203125 C 23.683594 13.195312 23.617188 13.171875 23.542969 13.164062 C 23.367188 13.140625 23.207031 13.175781 23.03125 13.210938 C 22.960938 13.222656 22.929688 13.214844 22.863281 13.171875 C 22.84375 13.15625 22.816406 13.140625 22.796875 13.125 C 22.722656 13.140625 22.648438 13.148438 22.574219 13.160156 C 22.523438 13.164062 22.472656 13.164062 22.421875 13.160156 C 22.371094 13.15625 22.320312 13.132812 22.273438 13.136719 C 22.21875 13.140625 22.203125 13.195312 22.179688 13.238281 C 22.148438 13.292969 22.109375 13.292969 22.054688 13.320312 C 21.917969 13.382812 21.980469 13.527344 21.9375 13.636719 C 21.917969 13.6875 21.851562 13.695312 21.808594 13.710938 C 21.835938 13.839844 21.855469 13.976562 21.820312 14.109375 C 21.785156 14.25 21.667969 14.355469 21.6875 14.515625 C 21.695312 14.597656 21.753906 14.683594 21.742188 14.761719 C 21.734375 14.835938 21.621094 14.835938 21.566406 14.855469 C 21.488281 14.882812 21.488281 14.871094 21.445312 14.808594 C 21.402344 14.742188 21.355469 14.773438 21.3125 14.820312 C 21.242188 14.890625 21.1875 14.96875 21.132812 15.050781 C 21.136719 15.125 21.117188 15.199219 21.128906 15.273438 C 21.136719 15.316406 21.15625 15.34375 21.1875 15.375 C 21.207031 15.394531 21.246094 15.421875 21.242188 15.457031 C 21.234375 15.515625 21.117188 15.527344 21.074219 15.550781 C 21 15.589844 20.992188 15.667969 20.929688 15.714844 C 20.898438 15.742188 20.847656 15.75 20.816406 15.765625 C 20.804688 15.816406 20.792969 15.871094 20.792969 15.925781 C 20.792969 15.980469 20.796875 16.039062 20.800781 16.09375 C 20.804688 16.140625 20.800781 16.183594 20.800781 16.238281 C 20.78125 16.238281 20.753906 16.242188 20.734375 16.253906 C 20.679688 16.289062 20.675781 16.363281 20.664062 16.414062 C 20.648438 16.492188 20.621094 16.566406 20.589844 16.632812 C 20.570312 16.679688 20.535156 16.800781 20.46875 16.808594 C 20.417969 16.820312 20.375 16.761719 20.320312 16.777344 C 20.253906 16.789062 20.21875 16.859375 20.160156 16.875 C 20.09375 16.890625 20.046875 16.839844 19.996094 16.816406 C 19.882812 16.753906 19.707031 16.78125 19.589844 16.820312 C 19.464844 16.863281 19.421875 17.027344 19.28125 17.039062 C 19.15625 17.050781 19.070312 16.964844 18.96875 16.917969 C 18.882812 16.878906 18.785156 16.867188 18.695312 16.859375 C 18.636719 16.855469 18.550781 16.863281 18.511719 16.804688 C 18.480469 16.761719 18.484375 16.707031 18.441406 16.671875 C 18.390625 16.628906 18.308594 16.65625 18.246094 16.660156 C 18.074219 16.675781 17.898438 16.628906 17.730469 16.667969 C 17.601562 16.699219 17.5 16.773438 17.402344 16.855469 C 17.378906 16.925781 17.359375 17 17.3125 17.050781 C 17.253906 17.117188 17.152344 17.089844 17.078125 17.117188 C 16.988281 17.148438 16.996094 17.238281 16.929688 17.289062 C 16.878906 17.332031 16.796875 17.269531 16.742188 17.261719 C 16.652344 17.253906 16.628906 17.324219 16.554688 17.359375 C 16.46875 17.398438 16.511719 17.277344 16.464844 17.246094 C 16.398438 17.203125 16.300781 17.292969 16.238281 17.238281 C 16.214844 17.214844 16.207031 17.179688 16.175781 17.164062 C 16.140625 17.148438 16.109375 17.164062 16.078125 17.179688 C 15.945312 17.253906 15.832031 17.246094 15.703125 17.230469 C 15.65625 17.292969 15.605469 17.359375 15.542969 17.394531 C 15.441406 17.449219 15.3125 17.414062 15.203125 17.402344 C 15.101562 17.390625 15.050781 17.359375 15.007812 17.261719 C 14.964844 17.171875 14.929688 17.109375 14.824219 17.09375 C 14.726562 17.082031 14.703125 17.054688 14.667969 16.960938 C 14.632812 16.84375 14.578125 16.78125 14.46875 16.734375 C 14.371094 16.691406 14.292969 16.652344 14.261719 16.546875 C 14.234375 16.46875 14.222656 16.390625 14.183594 16.320312 C 14.132812 16.226562 14.082031 16.054688 14.171875 16.023438 C 14.207031 16.128906 14.304688 16.199219 14.390625 16.261719 C 14.433594 16.296875 14.449219 16.351562 14.492188 16.382812 C 14.535156 16.414062 14.609375 16.394531 14.660156 16.394531 C 14.742188 16.394531 14.828125 16.390625 14.910156 16.414062 C 14.96875 16.425781 15.011719 16.453125 15.054688 16.402344 C 15.089844 16.363281 15.101562 16.292969 15.167969 16.308594 C 15.230469 16.328125 15.242188 16.355469 15.316406 16.324219 C 15.339844 16.3125 15.378906 16.285156 15.398438 16.304688 C 15.421875 16.328125 15.394531 16.382812 15.386719 16.40625 C 15.363281 16.464844 15.347656 16.511719 15.339844 16.578125 C 15.359375 16.574219 15.386719 16.566406 15.414062 16.566406 C 15.425781 16.566406 15.4375 16.570312 15.449219 16.570312 C 15.460938 16.570312 15.472656 16.554688 15.480469 16.554688 C 15.539062 16.554688 15.566406 16.613281 15.628906 16.609375 C 15.652344 16.609375 15.683594 16.59375 15.707031 16.601562 C 15.738281 16.613281 15.765625 16.636719 15.800781 16.640625 C 15.8125 16.640625 15.84375 16.652344 15.878906 16.65625 C 15.875 16.644531 15.871094 16.636719 15.863281 16.628906 C 15.851562 16.589844 15.816406 16.527344 15.835938 16.488281 C 15.855469 16.445312 15.914062 16.457031 15.945312 16.445312 C 15.964844 16.4375 15.980469 16.429688 16 16.425781 C 15.957031 16.324219 15.953125 16.238281 16.003906 16.125 C 16.023438 16.078125 16.050781 16.035156 16.089844 16 C 16.128906 15.964844 16.175781 15.957031 16.214844 15.929688 C 16.3125 15.867188 16.132812 15.777344 16.097656 15.722656 C 16.066406 15.675781 16.085938 15.632812 16.128906 15.601562 C 16.164062 15.582031 16.226562 15.578125 16.253906 15.550781 C 16.28125 15.523438 16.25 15.46875 16.242188 15.4375 C 16.222656 15.355469 16.21875 15.265625 16.242188 15.1875 C 16.257812 15.132812 16.289062 15.085938 16.351562 15.09375 C 16.40625 15.101562 16.4375 15.132812 16.496094 15.128906 C 16.558594 15.117188 16.613281 15.070312 16.664062 15.035156 C 16.726562 14.996094 16.792969 14.976562 16.871094 14.972656 C 16.96875 14.96875 17.066406 14.976562 17.164062 14.964844 C 17.273438 14.949219 17.375 14.921875 17.480469 14.886719 C 17.664062 14.820312 17.847656 14.773438 18.039062 14.726562 C 18.207031 14.714844 18.363281 14.664062 18.523438 14.617188 Z M 18.523438 14.617188 " fill-opacity="1" fill-rule="nonzero"/></g><g clip-path="url(#efecfa7e20)"><path fill="#014d4e" d="M 7.703125 17.320312 C 7.679688 17.332031 7.652344 17.359375 7.628906 17.367188 C 7.566406 17.390625 7.507812 17.335938 7.457031 17.3125 C 7.390625 17.273438 7.320312 17.238281 7.25 17.203125 C 7.195312 17.171875 7.097656 17.15625 7.070312 17.085938 C 7.050781 17.027344 7.042969 16.964844 7.027344 16.90625 C 7.011719 16.914062 6.996094 16.917969 6.984375 16.917969 C 6.9375 16.925781 6.886719 16.875 6.835938 16.863281 C 6.746094 16.84375 6.765625 16.804688 6.839844 16.792969 C 6.890625 16.785156 6.941406 16.757812 6.957031 16.707031 C 6.976562 16.636719 6.886719 16.65625 6.839844 16.660156 C 6.851562 16.632812 6.953125 16.589844 6.917969 16.558594 C 6.871094 16.558594 6.753906 16.625 6.726562 16.574219 C 6.683594 16.5 6.851562 16.476562 6.871094 16.433594 C 6.902344 16.378906 6.835938 16.304688 6.828125 16.253906 C 6.8125 16.179688 6.839844 16.101562 6.828125 16.023438 C 6.792969 15.851562 6.578125 15.738281 6.46875 15.613281 C 6.421875 15.554688 6.398438 15.484375 6.382812 15.414062 C 6.371094 15.335938 6.375 15.238281 6.296875 15.195312 C 6.230469 15.15625 6.136719 15.15625 6.074219 15.105469 C 6.015625 15.058594 5.992188 14.972656 5.96875 14.898438 C 5.953125 14.890625 5.929688 14.886719 5.917969 14.882812 C 5.886719 14.871094 5.792969 14.878906 5.785156 14.84375 C 5.808594 14.835938 5.832031 14.808594 5.855469 14.789062 C 5.882812 14.769531 5.902344 14.765625 5.933594 14.757812 C 5.972656 14.746094 6 14.726562 6.03125 14.699219 C 5.960938 14.691406 5.890625 14.714844 5.824219 14.714844 C 5.753906 14.714844 5.597656 14.804688 5.585938 14.707031 C 5.574219 14.621094 5.5625 14.511719 5.660156 14.472656 C 5.75 14.433594 5.824219 14.4375 5.882812 14.515625 C 5.921875 14.566406 5.980469 14.566406 6.035156 14.550781 C 6.027344 14.519531 6.027344 14.488281 6.015625 14.457031 C 6.003906 14.40625 5.960938 14.382812 5.914062 14.367188 C 5.839844 14.351562 5.753906 14.386719 5.707031 14.316406 C 5.660156 14.25 5.636719 14.167969 5.550781 14.144531 C 5.46875 14.117188 5.324219 14.101562 5.417969 13.988281 C 5.480469 13.910156 5.515625 13.835938 5.535156 13.746094 C 5.515625 13.738281 5.496094 13.738281 5.480469 13.746094 C 5.445312 13.773438 5.476562 13.851562 5.449219 13.871094 C 5.425781 13.882812 5.367188 13.824219 5.351562 13.8125 C 5.324219 13.78125 5.324219 13.757812 5.328125 13.714844 C 5.335938 13.625 5.378906 13.554688 5.410156 13.476562 C 5.421875 13.4375 5.445312 13.398438 5.4375 13.355469 C 5.429688 13.3125 5.386719 13.277344 5.382812 13.234375 C 5.378906 13.191406 5.417969 13.171875 5.445312 13.140625 C 5.472656 13.109375 5.492188 13.074219 5.507812 13.035156 C 5.496094 13.03125 5.480469 13.03125 5.472656 13.027344 C 5.433594 13.015625 5.402344 13.003906 5.363281 12.992188 C 5.347656 12.894531 5.453125 12.84375 5.386719 12.742188 C 5.355469 12.695312 5.3125 12.703125 5.3125 12.640625 C 5.3125 12.617188 5.308594 12.585938 5.304688 12.558594 C 5.273438 12.539062 5.246094 12.523438 5.207031 12.515625 C 5.171875 12.507812 5.109375 12.507812 5.109375 12.464844 C 5.109375 12.429688 5.171875 12.398438 5.164062 12.359375 C 5.15625 12.328125 5.085938 12.328125 5.058594 12.316406 C 4.953125 12.277344 4.9375 12.179688 4.996094 12.089844 C 5.054688 11.988281 5.066406 11.894531 5.050781 11.78125 C 5.035156 11.679688 4.949219 11.585938 4.957031 11.480469 C 4.960938 11.425781 4.984375 11.375 4.984375 11.316406 C 4.984375 11.261719 4.964844 11.214844 4.941406 11.160156 C 4.921875 11.109375 4.882812 11.027344 4.894531 10.96875 C 4.902344 10.925781 4.949219 10.925781 4.960938 10.894531 C 4.984375 10.847656 4.941406 10.761719 4.929688 10.707031 C 4.917969 10.636719 4.917969 10.5625 4.917969 10.488281 C 4.917969 10.367188 4.925781 10.242188 4.847656 10.144531 C 4.816406 10.105469 4.789062 10.078125 4.777344 10.03125 C 4.773438 10.015625 4.773438 9.996094 4.769531 9.980469 C 4.695312 9.898438 4.640625 9.8125 4.597656 9.707031 C 4.5625 9.628906 4.507812 9.550781 4.515625 9.464844 C 4.53125 9.335938 4.625 9.226562 4.644531 9.097656 C 4.65625 9.027344 4.632812 8.875 4.722656 8.839844 C 4.839844 8.796875 4.910156 8.933594 4.925781 9.027344 C 4.9375 9.078125 4.9375 9.136719 4.96875 9.179688 C 5 9.226562 5.054688 9.246094 5.105469 9.261719 C 5.175781 9.285156 5.246094 9.300781 5.3125 9.332031 C 5.371094 9.351562 5.425781 9.386719 5.480469 9.402344 C 5.582031 9.425781 5.664062 9.359375 5.757812 9.371094 C 5.855469 9.382812 5.863281 9.523438 5.890625 9.59375 C 5.925781 9.6875 5.984375 9.757812 6.003906 9.859375 C 6.007812 9.871094 6.007812 9.886719 6.011719 9.902344 C 6.03125 9.902344 6.042969 9.902344 6.0625 9.902344 C 6.089844 9.90625 6.105469 9.910156 6.128906 9.894531 C 6.152344 9.878906 6.164062 9.867188 6.191406 9.859375 C 6.25 9.839844 6.273438 9.875 6.324219 9.902344 C 6.378906 9.933594 6.417969 9.898438 6.480469 9.90625 C 6.5 9.960938 6.410156 10.050781 6.453125 10.089844 C 6.476562 10.109375 6.523438 10.109375 6.546875 10.128906 C 6.582031 10.15625 6.589844 10.175781 6.582031 10.222656 C 6.558594 10.316406 6.496094 10.402344 6.492188 10.5 C 6.488281 10.597656 6.414062 10.546875 6.355469 10.59375 C 6.277344 10.648438 6.308594 10.777344 6.273438 10.855469 C 6.339844 10.890625 6.398438 10.847656 6.449219 10.925781 C 6.492188 10.984375 6.523438 11.046875 6.546875 11.113281 C 6.617188 11.113281 6.679688 11.070312 6.738281 11.046875 C 6.824219 11.007812 6.796875 10.980469 6.792969 10.894531 C 6.789062 10.84375 6.796875 10.777344 6.835938 10.742188 C 6.898438 10.691406 6.992188 10.6875 7.066406 10.664062 C 7.085938 10.660156 7.105469 10.65625 7.125 10.65625 C 7.140625 10.625 7.15625 10.597656 7.183594 10.582031 C 7.222656 10.5625 7.269531 10.570312 7.308594 10.558594 C 7.390625 10.527344 7.4375 10.429688 7.515625 10.503906 C 7.570312 10.5625 7.632812 10.621094 7.65625 10.699219 C 7.6875 10.792969 7.710938 10.816406 7.804688 10.847656 C 7.863281 10.863281 7.964844 10.964844 8.011719 10.894531 C 8.039062 10.855469 8.039062 10.808594 8.070312 10.769531 C 8.097656 10.738281 8.136719 10.738281 8.167969 10.710938 C 8.230469 10.664062 8.152344 10.5625 8.183594 10.496094 C 8.214844 10.429688 8.3125 10.40625 8.359375 10.351562 C 8.429688 10.273438 8.460938 10.195312 8.484375 10.089844 C 8.507812 10.015625 8.542969 9.945312 8.582031 9.878906 C 8.625 9.902344 8.667969 9.925781 8.710938 9.953125 C 8.769531 9.988281 8.828125 9.996094 8.894531 9.996094 C 9.007812 9.996094 9.058594 10.039062 9.082031 10.148438 C 9.089844 10.199219 9.113281 10.222656 9.144531 10.253906 C 9.1875 10.296875 9.1875 10.328125 9.1875 10.386719 C 9.1875 10.484375 9.289062 10.546875 9.347656 10.621094 C 9.40625 10.691406 9.460938 10.761719 9.511719 10.828125 C 9.570312 10.863281 9.617188 10.90625 9.664062 10.957031 C 9.703125 11 9.734375 11.054688 9.773438 11.097656 C 9.804688 11.136719 9.855469 11.160156 9.902344 11.183594 C 9.953125 11.210938 10 11.238281 10.042969 11.277344 C 10.078125 11.308594 10.109375 11.347656 10.148438 11.375 C 10.214844 11.421875 10.308594 11.410156 10.367188 11.46875 C 10.449219 11.546875 10.515625 11.671875 10.570312 11.769531 C 10.644531 11.894531 10.691406 12.035156 10.75 12.167969 C 10.792969 12.265625 10.835938 12.367188 10.894531 12.457031 C 10.945312 12.542969 11.015625 12.613281 11.074219 12.6875 C 11.175781 12.820312 11.191406 12.976562 11.207031 13.132812 C 11.246094 13.203125 11.269531 13.304688 11.273438 13.371094 C 11.277344 13.429688 11.238281 13.46875 11.230469 13.527344 C 11.226562 13.578125 11.257812 13.632812 11.261719 13.683594 C 11.273438 13.765625 11.269531 13.847656 11.285156 13.929688 C 11.304688 13.992188 11.308594 14.019531 11.257812 14.0625 C 11.1875 14.121094 11.101562 14.21875 11.113281 14.316406 C 11.121094 14.371094 11.140625 14.441406 11.164062 14.492188 C 11.183594 14.527344 11.226562 14.578125 11.183594 14.609375 C 11.144531 14.636719 11.101562 14.613281 11.074219 14.664062 C 11.054688 14.707031 11.035156 14.769531 11.023438 14.8125 C 10.992188 14.921875 10.949219 15.042969 10.996094 15.148438 C 11.019531 15.195312 11.054688 15.234375 11.082031 15.277344 C 11.117188 15.332031 11.136719 15.390625 11.171875 15.4375 C 11.199219 15.480469 11.253906 15.523438 11.234375 15.582031 C 11.222656 15.625 11.183594 15.664062 11.15625 15.691406 C 11.113281 15.738281 11.125 15.8125 11.125 15.882812 C 11.242188 15.992188 11.175781 16.167969 11.1875 16.308594 C 11.195312 16.417969 11.164062 16.503906 11.136719 16.609375 C 11.105469 16.707031 11.148438 16.742188 11.195312 16.820312 C 11.238281 16.898438 11.308594 16.953125 11.355469 17.03125 C 11.394531 17.097656 11.429688 17.1875 11.507812 17.21875 C 11.535156 17.234375 11.574219 17.234375 11.605469 17.246094 C 11.640625 17.257812 11.667969 17.285156 11.695312 17.308594 C 11.765625 17.351562 11.808594 17.363281 11.84375 17.441406 C 11.890625 17.542969 11.902344 17.664062 11.921875 17.78125 C 11.929688 17.789062 11.933594 17.796875 11.941406 17.808594 C 11.980469 17.851562 12.023438 17.878906 12.054688 17.929688 C 12.085938 17.972656 12.222656 18.125 12.179688 18.183594 C 12.167969 18.199219 12.144531 18.183594 12.140625 18.214844 C 12.136719 18.234375 12.167969 18.257812 12.179688 18.273438 C 12.21875 18.320312 12.257812 18.371094 12.289062 18.429688 C 12.34375 18.527344 12.4375 18.617188 12.449219 18.734375 C 12.453125 18.808594 12.453125 18.90625 12.476562 18.984375 C 12.511719 18.988281 12.546875 18.984375 12.566406 19.027344 C 12.636719 19.171875 12.664062 19.339844 12.714844 19.492188 C 12.746094 19.578125 12.757812 19.664062 12.78125 19.75 C 12.796875 19.804688 12.828125 19.863281 12.800781 19.921875 C 12.761719 19.925781 12.757812 19.882812 12.726562 19.925781 C 12.710938 19.953125 12.703125 19.996094 12.675781 20.011719 C 12.648438 20.03125 12.5 20.03125 12.476562 20.007812 C 12.496094 19.980469 12.550781 19.894531 12.542969 19.871094 C 12.53125 19.839844 12.425781 19.832031 12.394531 19.816406 C 12.410156 19.769531 12.457031 19.71875 12.457031 19.671875 C 12.457031 19.597656 12.371094 19.644531 12.332031 19.621094 C 12.304688 19.601562 12.3125 19.585938 12.308594 19.558594 C 12.304688 19.527344 12.292969 19.507812 12.273438 19.480469 C 12.246094 19.433594 12.195312 19.359375 12.144531 19.320312 C 12.144531 19.417969 12.160156 19.492188 12.214844 19.566406 C 12.261719 19.632812 12.324219 19.757812 12.222656 19.808594 C 12.140625 19.851562 12.03125 19.734375 11.957031 19.722656 C 11.878906 19.714844 11.8125 19.765625 11.730469 19.757812 C 11.695312 19.753906 11.65625 19.746094 11.625 19.761719 C 11.578125 19.789062 11.566406 19.847656 11.558594 19.890625 C 11.550781 19.929688 11.546875 20.019531 11.503906 20.042969 C 11.464844 20.0625 11.421875 20.015625 11.394531 19.992188 C 11.371094 19.96875 11.347656 19.925781 11.316406 19.953125 C 11.285156 19.976562 11.285156 20.058594 11.273438 20.097656 C 11.214844 20.226562 11.140625 20.058594 11.117188 19.996094 C 11.082031 19.882812 11.066406 19.773438 11.007812 19.675781 C 10.96875 19.617188 10.917969 19.554688 10.871094 19.5 C 10.726562 19.445312 10.59375 19.351562 10.453125 19.28125 C 10.382812 19.25 10.3125 19.207031 10.234375 19.183594 C 10.183594 19.171875 10.125 19.167969 10.078125 19.140625 C 10.027344 19.113281 10.03125 19.089844 10.03125 19.039062 C 10.03125 18.972656 10 18.96875 9.945312 18.957031 C 9.835938 18.933594 9.71875 18.917969 9.617188 18.886719 C 9.535156 18.859375 9.515625 18.8125 9.476562 18.738281 C 9.464844 18.714844 9.449219 18.6875 9.433594 18.65625 C 9.375 18.640625 9.292969 18.585938 9.289062 18.523438 C 9.285156 18.480469 9.289062 18.464844 9.257812 18.433594 C 9.234375 18.402344 9.203125 18.371094 9.167969 18.355469 C 9.128906 18.332031 9.082031 18.324219 9.039062 18.308594 C 8.992188 18.285156 8.941406 18.265625 8.890625 18.261719 C 8.847656 18.257812 8.804688 18.277344 8.761719 18.261719 C 8.710938 18.242188 8.671875 18.191406 8.628906 18.15625 C 8.546875 18.085938 8.460938 18.035156 8.382812 17.953125 C 8.351562 17.921875 8.320312 17.898438 8.292969 17.867188 C 8.257812 17.832031 8.234375 17.785156 8.191406 17.761719 C 8.132812 17.722656 8.058594 17.722656 7.988281 17.710938 C 7.910156 17.703125 7.875 17.625 7.84375 17.558594 C 7.808594 17.476562 7.8125 17.355469 7.726562 17.3125 C 7.722656 17.328125 7.714844 17.324219 7.703125 17.320312 Z M 7.703125 17.320312 " fill-opacity="1" fill-rule="nonzero"/></g><path fill="#014d4e" d="M 4.820312 11.460938 C 4.84375 11.511719 4.8125 11.535156 4.792969 11.582031 C 4.765625 11.628906 4.796875 11.855469 4.726562 11.851562 C 4.710938 11.851562 4.691406 11.820312 4.679688 11.8125 C 4.65625 11.796875 4.636719 11.789062 4.605469 11.789062 C 4.5625 11.78125 4.515625 11.804688 4.5 11.75 C 4.484375 11.695312 4.507812 11.625 4.507812 11.566406 C 4.507812 11.511719 4.511719 11.460938 4.519531 11.40625 C 4.542969 11.402344 4.5625 11.394531 4.582031 11.390625 C 4.621094 11.378906 4.671875 11.339844 4.714844 11.347656 C 4.757812 11.359375 4.804688 11.425781 4.820312 11.460938 Z M 4.820312 11.460938 " fill-opacity="1" fill-rule="nonzero"/><g clip-path="url(#3eb518c319)"><path fill="#014d4e" d="M 3.984375 9.523438 C 4.007812 9.5625 4.003906 9.613281 3.988281 9.65625 C 3.925781 9.675781 3.878906 9.660156 3.8125 9.660156 C 3.734375 9.660156 3.726562 9.742188 3.664062 9.761719 C 3.59375 9.789062 3.609375 9.664062 3.605469 9.621094 C 3.601562 9.546875 3.554688 9.550781 3.5 9.515625 C 3.46875 9.492188 3.398438 9.410156 3.445312 9.367188 C 3.484375 9.328125 3.589844 9.351562 3.632812 9.367188 C 3.683594 9.382812 3.726562 9.421875 3.777344 9.382812 C 3.816406 9.351562 3.84375 9.289062 3.886719 9.351562 C 3.90625 9.382812 3.914062 9.421875 3.9375 9.453125 C 3.949219 9.480469 3.972656 9.496094 3.984375 9.523438 Z M 3.984375 9.523438 " fill-opacity="1" fill-rule="nonzero"/></g></svg>
