<svg xmlns="http://www.w3.org/2000/svg" width="40" zoomAndPan="magnify" viewBox="0 0 30 30.000001" height="40"
     preserveAspectRatio="xMidYMid meet" version="1.0"><defs><clipPath id="392e4d571d"><path d="M 7.640625 2.902344 L 22.15625 2.902344 L 22.15625 26.128906 L 7.640625 26.128906 Z M 7.640625 2.902344 " clip-rule="nonzero"/></clipPath></defs><g clip-path="url(#392e4d571d)"><path fill="#014d4e" d="M 22.335938 8.6875 C 22.320312 8.679688 22.222656 8.699219 22.195312 8.695312 C 22.183594 8.628906 22.242188 8.597656 22.230469 8.542969 C 22.230469 8.550781 22.191406 8.519531 22.183594 8.496094 C 22.171875 8.46875 22.203125 8.460938 22.203125 8.4375 C 22.203125 8.277344 22.050781 8.363281 21.945312 8.3125 C 21.96875 8.265625 22.03125 8.183594 22.042969 8.136719 C 22.058594 8.0625 21.984375 7.957031 21.976562 7.867188 C 21.96875 7.722656 21.976562 7.585938 21.976562 7.445312 C 21.976562 7.324219 21.933594 7.199219 21.933594 7.078125 C 21.9375 6.816406 22.027344 6.550781 22.0625 6.285156 C 22.082031 6.160156 22.027344 6.058594 22.011719 5.9375 C 22.003906 5.855469 22.03125 5.785156 22.039062 5.703125 C 22.046875 5.613281 22.03125 5.492188 22.007812 5.40625 C 21.972656 5.296875 21.914062 5.230469 21.917969 5.113281 C 21.925781 4.917969 21.953125 4.648438 21.910156 4.460938 C 21.875 4.324219 21.820312 4.28125 21.898438 4.152344 C 21.976562 4.027344 21.976562 3.957031 21.988281 3.8125 C 22.003906 3.65625 22.066406 3.515625 22.058594 3.359375 C 22.050781 3.226562 22 3.121094 21.972656 3 C 21.964844 2.980469 21.957031 2.945312 21.945312 2.910156 C 21.9375 2.917969 21.929688 2.921875 21.921875 2.929688 C 21.84375 2.992188 21.789062 3.0625 21.71875 3.125 C 21.59375 3.226562 21.464844 3.3125 21.335938 3.414062 C 21.210938 3.507812 21.082031 3.605469 20.929688 3.648438 C 20.75 3.699219 20.621094 3.773438 20.453125 3.851562 C 20.207031 3.96875 19.941406 3.972656 19.675781 3.960938 C 19.480469 3.953125 19.335938 4.105469 19.140625 4.074219 C 18.894531 4.039062 18.601562 3.949219 18.386719 4.117188 C 18.214844 4.25 18.132812 4.460938 17.90625 4.488281 C 17.820312 4.496094 17.761719 4.523438 17.675781 4.546875 C 17.589844 4.570312 17.519531 4.53125 17.429688 4.503906 C 17.226562 4.429688 17.011719 4.339844 16.800781 4.414062 C 16.679688 4.457031 16.59375 4.53125 16.484375 4.585938 C 16.378906 4.640625 16.355469 4.582031 16.257812 4.550781 C 16.167969 4.523438 16.1875 4.582031 16.097656 4.585938 C 16.03125 4.589844 15.9375 4.476562 15.894531 4.421875 C 15.742188 4.242188 15.6875 4.179688 15.457031 4.25 C 15.222656 4.320312 14.992188 4.320312 14.761719 4.355469 C 14.585938 4.378906 14.371094 4.339844 14.261719 4.503906 C 14.167969 4.644531 14.21875 4.828125 14.144531 4.976562 C 14.046875 5.160156 13.792969 5.195312 13.796875 5.449219 C 13.800781 5.625 13.925781 5.78125 13.953125 5.953125 C 13.972656 6.085938 13.871094 6.171875 13.882812 6.292969 C 13.890625 6.375 13.945312 6.449219 13.964844 6.53125 C 13.984375 6.609375 13.972656 6.628906 13.957031 6.707031 C 13.898438 6.964844 14.089844 7.027344 14.191406 7.210938 C 14.195312 7.210938 14.195312 7.210938 14.195312 7.210938 C 14.203125 7.222656 14.210938 7.234375 14.21875 7.246094 C 14.316406 7.3125 14.4375 7.511719 14.492188 7.566406 C 14.578125 7.65625 14.671875 7.710938 14.730469 7.8125 C 14.792969 7.933594 14.851562 8.035156 14.941406 8.136719 C 15.015625 8.230469 15.09375 8.320312 15.164062 8.414062 C 15.234375 8.503906 15.339844 8.566406 15.402344 8.667969 C 15.457031 8.75 15.515625 8.867188 15.511719 8.972656 C 15.507812 9.078125 15.449219 9.140625 15.402344 9.226562 C 15.289062 9.4375 15.3125 9.550781 15.378906 9.761719 C 15.441406 9.945312 15.324219 10.136719 15.339844 10.332031 C 15.347656 10.414062 15.359375 10.566406 15.300781 10.632812 C 15.277344 10.664062 15.179688 10.707031 15.144531 10.726562 C 14.96875 10.824219 14.769531 10.78125 14.671875 10.984375 C 14.636719 11.0625 14.671875 11.125 14.652344 11.199219 C 14.632812 11.285156 14.609375 11.261719 14.542969 11.292969 C 14.40625 11.355469 14.480469 11.4375 14.5 11.554688 C 14.503906 11.605469 14.480469 11.601562 14.507812 11.640625 C 14.523438 11.667969 14.570312 11.683594 14.589844 11.71875 C 14.632812 11.796875 14.660156 11.914062 14.667969 12 C 14.6875 12.121094 14.671875 12.316406 14.5 12.300781 C 14.484375 12.300781 14.378906 12.246094 14.375 12.230469 C 14.371094 12.207031 14.433594 12.144531 14.445312 12.125 C 14.488281 12.035156 14.460938 11.914062 14.371094 11.851562 C 14.324219 11.820312 14.269531 11.847656 14.226562 11.824219 C 14.171875 11.792969 14.160156 11.691406 14.125 11.644531 C 14.027344 11.515625 13.90625 11.394531 13.804688 11.277344 C 13.738281 11.203125 13.566406 11.175781 13.542969 11.101562 C 13.535156 11.070312 13.550781 10.984375 13.546875 10.945312 C 13.535156 10.882812 13.476562 10.75 13.496094 10.703125 C 13.429688 10.691406 13.355469 10.683594 13.289062 10.675781 C 13.296875 10.589844 13.335938 10.457031 13.375 10.40625 C 13.421875 10.339844 13.496094 10.277344 13.546875 10.203125 C 13.601562 10.136719 13.597656 10.179688 13.585938 10.097656 C 13.574219 10.011719 13.460938 9.957031 13.480469 9.878906 C 13.492188 9.828125 13.574219 9.789062 13.59375 9.734375 C 13.617188 9.671875 13.625 9.597656 13.644531 9.535156 C 13.71875 9.238281 13.769531 8.886719 13.527344 8.664062 C 13.460938 8.601562 13.355469 8.515625 13.257812 8.5 C 13.132812 8.484375 12.988281 8.550781 12.875 8.582031 C 12.761719 8.613281 12.691406 8.585938 12.582031 8.578125 C 12.453125 8.566406 12.488281 8.636719 12.390625 8.703125 C 12.320312 8.648438 12.289062 8.558594 12.21875 8.496094 C 12.164062 8.445312 12.066406 8.417969 12.019531 8.355469 C 11.957031 8.269531 11.910156 8.011719 11.796875 7.984375 C 11.769531 7.945312 11.738281 7.910156 11.710938 7.871094 L 7.640625 9.386719 C 7.757812 9.554688 7.894531 9.746094 7.941406 9.921875 C 7.964844 10.011719 7.953125 10.136719 7.957031 10.230469 C 7.964844 10.363281 7.96875 10.492188 7.984375 10.617188 C 7.996094 10.722656 7.976562 10.753906 8.085938 10.769531 C 8.175781 10.78125 8.265625 10.78125 8.359375 10.789062 C 8.449219 10.792969 8.539062 10.792969 8.621094 10.816406 C 8.699219 10.839844 8.726562 10.878906 8.792969 10.925781 C 8.921875 11.007812 8.902344 10.902344 8.980469 10.847656 C 9.050781 10.792969 9.140625 10.882812 9.210938 10.863281 C 9.222656 10.910156 9.234375 11 9.28125 11.03125 C 9.328125 11.058594 9.414062 11.007812 9.472656 11.019531 C 9.535156 11.039062 9.59375 11.097656 9.652344 11.125 C 9.71875 11.15625 9.785156 11.144531 9.851562 11.175781 C 9.9375 11.226562 9.917969 11.3125 9.976562 11.363281 C 10.027344 11.410156 10.148438 11.402344 10.210938 11.402344 C 10.316406 11.402344 10.410156 11.378906 10.511719 11.421875 C 10.625 11.46875 10.699219 11.539062 10.792969 11.605469 C 10.910156 11.683594 11.070312 11.65625 11.195312 11.714844 C 11.238281 11.734375 11.296875 11.769531 11.355469 11.808594 C 11.332031 11.84375 11.3125 11.882812 11.285156 11.921875 C 11.285156 11.917969 11.285156 11.914062 11.28125 11.917969 C 11.140625 12.058594 11.351562 12.195312 11.367188 12.347656 C 11.378906 12.449219 11.34375 12.4375 11.394531 12.53125 C 11.421875 12.582031 11.511719 12.675781 11.511719 12.738281 C 11.511719 12.816406 11.441406 12.816406 11.460938 12.914062 C 11.472656 12.972656 11.484375 13.054688 11.503906 13.113281 C 11.523438 13.171875 11.570312 13.167969 11.558594 13.253906 C 11.550781 13.324219 11.511719 13.386719 11.5 13.453125 C 11.476562 13.574219 11.488281 13.6875 11.507812 13.804688 C 11.519531 13.882812 11.5625 14.0625 11.515625 14.128906 C 11.472656 14.191406 11.378906 14.230469 11.339844 14.3125 C 11.257812 14.46875 11.554688 14.6875 11.296875 14.742188 C 11.242188 14.753906 11.210938 14.714844 11.160156 14.769531 C 11.109375 14.820312 11.136719 14.851562 11.140625 14.910156 C 11.144531 15.007812 11.125 15.046875 11.207031 15.109375 C 11.277344 15.164062 11.371094 15.214844 11.351562 15.324219 C 11.332031 15.449219 11.238281 15.460938 11.296875 15.601562 C 11.355469 15.734375 11.457031 15.816406 11.472656 15.964844 C 11.480469 16.027344 11.472656 16.09375 11.488281 16.152344 C 11.503906 16.199219 11.546875 16.242188 11.546875 16.296875 C 11.546875 16.390625 11.40625 16.503906 11.363281 16.589844 C 11.34375 16.632812 11.304688 16.75 11.296875 16.832031 C 11.28125 16.859375 11.261719 16.886719 11.246094 16.910156 C 11.246094 17.066406 11.03125 17.203125 10.972656 17.351562 C 10.941406 17.4375 10.972656 17.507812 10.957031 17.59375 C 10.945312 17.652344 10.898438 17.6875 10.867188 17.738281 C 10.777344 17.882812 10.8125 18.042969 10.730469 18.191406 C 10.671875 18.296875 10.632812 18.425781 10.570312 18.53125 C 10.492188 18.652344 10.363281 18.71875 10.28125 18.832031 C 10.230469 18.90625 10.203125 18.980469 10.132812 19.042969 C 10.042969 19.136719 9.941406 19.210938 9.859375 19.3125 C 9.730469 19.464844 9.632812 19.65625 9.503906 19.792969 C 9.445312 19.859375 9.421875 19.839844 9.449219 19.9375 C 9.472656 20.023438 9.519531 20.101562 9.527344 20.1875 C 9.535156 20.273438 9.480469 20.347656 9.492188 20.433594 C 9.507812 20.539062 9.617188 20.621094 9.652344 20.722656 C 9.710938 20.90625 9.578125 21.140625 9.707031 21.308594 C 9.773438 21.398438 9.855469 21.472656 9.925781 21.566406 C 9.941406 21.585938 9.964844 21.625 9.992188 21.660156 C 10 21.699219 10.007812 21.742188 10.015625 21.785156 C 10.042969 21.84375 10.097656 21.9375 10.125 22.003906 C 10.15625 22.078125 10.144531 22.167969 10.144531 22.25 C 10.144531 22.347656 10.164062 22.375 10.226562 22.449219 C 10.304688 22.554688 10.320312 22.601562 10.328125 22.738281 C 10.335938 22.898438 10.3125 23.03125 10.300781 23.1875 C 10.289062 23.332031 10.347656 23.484375 10.367188 23.625 C 10.390625 23.753906 10.34375 23.894531 10.351562 24.03125 C 10.355469 24.148438 10.386719 24.25 10.402344 24.367188 C 10.421875 24.503906 10.328125 24.625 10.332031 24.761719 C 10.335938 24.863281 10.410156 24.964844 10.433594 25.066406 C 10.445312 25.113281 10.4375 25.152344 10.4375 25.195312 C 10.4375 25.265625 10.382812 25.382812 10.398438 25.445312 C 10.410156 25.5 10.472656 25.5625 10.492188 25.617188 C 10.515625 25.691406 10.542969 25.769531 10.554688 25.847656 C 10.578125 25.96875 10.535156 26.0625 10.699219 26.09375 C 10.773438 26.105469 10.835938 26.074219 10.894531 26.039062 C 10.984375 25.988281 11.03125 25.996094 11.132812 26.007812 C 11.242188 26.023438 11.3125 26.121094 11.425781 26.113281 C 11.574219 26.105469 11.652344 26.011719 11.675781 25.878906 C 11.699219 25.777344 11.699219 25.679688 11.707031 25.574219 C 11.714844 25.476562 11.6875 25.414062 11.671875 25.328125 C 11.648438 25.195312 11.777344 25.015625 11.722656 24.886719 C 11.707031 24.847656 11.59375 24.753906 11.542969 24.769531 C 11.464844 24.792969 11.511719 24.886719 11.503906 24.945312 C 11.492188 25.023438 11.449219 25.15625 11.339844 25.144531 C 11.316406 25.023438 11.160156 24.828125 11.273438 24.71875 C 11.359375 24.636719 11.394531 24.683594 11.40625 24.554688 C 11.414062 24.480469 11.40625 24.453125 11.453125 24.398438 C 11.53125 24.300781 11.601562 24.214844 11.671875 24.113281 C 11.695312 24.089844 11.730469 24.027344 11.75 24.011719 C 11.800781 23.976562 11.847656 24.007812 11.90625 23.984375 C 11.960938 23.960938 11.984375 23.902344 12.039062 23.878906 C 12.113281 23.851562 12.1875 23.851562 12.261719 23.816406 C 12.359375 23.773438 12.4375 23.753906 12.539062 23.726562 C 12.589844 23.714844 12.65625 23.6875 12.699219 23.664062 C 12.757812 23.628906 12.796875 23.566406 12.863281 23.535156 C 12.953125 23.492188 13.085938 23.457031 13.1875 23.425781 C 13.394531 23.359375 13.6875 23.320312 13.84375 23.15625 C 13.929688 23.066406 13.953125 23.023438 14.085938 22.992188 C 14.175781 22.972656 14.285156 22.984375 14.371094 22.957031 C 14.503906 22.914062 14.578125 22.734375 14.640625 22.621094 C 14.710938 22.507812 14.828125 22.4375 14.890625 22.316406 C 14.917969 22.257812 14.921875 22.195312 14.941406 22.136719 C 14.964844 22.070312 15.015625 22.019531 15.035156 21.960938 C 15.078125 21.84375 14.984375 21.726562 14.953125 21.617188 C 14.90625 21.464844 14.9375 21.304688 14.894531 21.160156 C 14.894531 21.152344 14.890625 21.148438 14.886719 21.136719 C 14.929688 21.058594 14.988281 20.984375 14.996094 20.894531 C 15.003906 20.800781 14.988281 20.71875 15.015625 20.625 C 15.03125 20.570312 15.09375 20.445312 15.046875 20.402344 C 15.019531 20.371094 14.980469 20.414062 14.972656 20.410156 C 14.945312 20.390625 14.953125 20.382812 14.941406 20.367188 C 14.898438 20.316406 14.90625 20.21875 14.925781 20.152344 C 14.957031 20.0625 15 20 15.011719 19.90625 C 15.023438 19.785156 15.019531 19.667969 15.019531 19.546875 C 15.019531 19.363281 15.0625 19.171875 15.046875 18.992188 C 15.035156 18.792969 15.105469 18.601562 15.089844 18.40625 C 15.082031 18.316406 15.011719 18.105469 14.914062 18.265625 C 14.882812 18.316406 14.890625 18.445312 14.886719 18.507812 C 14.878906 18.617188 14.90625 18.71875 14.914062 18.828125 C 14.929688 19.027344 14.835938 19.164062 14.808594 19.355469 C 14.789062 19.492188 14.796875 19.609375 14.714844 19.726562 C 14.691406 19.652344 14.691406 19.542969 14.695312 19.460938 C 14.699219 19.402344 14.710938 19.351562 14.699219 19.292969 C 14.6875 19.226562 14.640625 19.171875 14.632812 19.109375 C 14.617188 19.007812 14.65625 18.917969 14.65625 18.816406 C 14.65625 18.691406 14.589844 18.605469 14.511719 18.507812 C 14.441406 18.429688 14.363281 18.398438 14.359375 18.28125 C 14.359375 18.191406 14.382812 18.136719 14.347656 18.042969 C 14.304688 17.9375 14.269531 17.859375 14.28125 17.738281 C 14.292969 17.621094 14.289062 17.550781 14.234375 17.449219 C 14.148438 17.285156 13.953125 17.195312 13.855469 17.074219 C 13.851562 17.066406 13.847656 17.058594 13.84375 17.050781 C 13.859375 17.015625 13.875 16.988281 13.890625 16.957031 C 13.890625 16.957031 13.890625 16.960938 13.890625 16.960938 C 13.992188 16.914062 13.996094 16.941406 13.980469 16.808594 C 13.96875 16.699219 13.960938 16.585938 13.945312 16.480469 C 13.925781 16.363281 13.960938 16.375 14.019531 16.277344 C 14.0625 16.203125 14.050781 16.109375 14.105469 16.039062 C 14.15625 16.050781 14.269531 16.082031 14.324219 16.066406 C 14.425781 16.035156 14.535156 15.835938 14.59375 15.75 C 14.695312 15.601562 14.773438 15.515625 14.917969 15.417969 C 15.027344 15.339844 15.113281 15.230469 15.226562 15.164062 C 15.339844 15.097656 15.367188 15.011719 15.457031 14.917969 C 15.527344 14.847656 15.597656 14.769531 15.710938 14.796875 C 15.789062 14.8125 15.78125 14.894531 15.839844 14.90625 C 15.902344 14.921875 16.007812 14.796875 16.046875 14.75 C 16.097656 14.695312 16.125 14.625 16.179688 14.5625 C 16.238281 14.503906 16.300781 14.476562 16.339844 14.402344 C 16.425781 14.246094 16.433594 14.15625 16.601562 14.066406 C 16.714844 14.003906 16.78125 13.960938 16.851562 13.847656 C 16.945312 13.703125 17.011719 13.542969 17.101562 13.402344 C 17.1875 13.269531 17.335938 13.144531 17.460938 13.054688 C 17.585938 12.972656 17.730469 12.96875 17.863281 12.90625 C 17.941406 12.867188 18.007812 12.820312 18.089844 12.792969 C 18.1875 12.753906 18.289062 12.75 18.382812 12.695312 C 18.53125 12.617188 18.65625 12.503906 18.8125 12.445312 C 18.996094 12.371094 19.191406 12.394531 19.375 12.308594 C 19.523438 12.242188 19.707031 12.242188 19.851562 12.167969 C 20.015625 12.074219 20.175781 11.941406 20.316406 11.824219 C 20.382812 11.761719 20.441406 11.722656 20.488281 11.648438 C 20.511719 11.617188 20.546875 11.566406 20.582031 11.523438 C 20.597656 11.511719 20.613281 11.496094 20.625 11.480469 C 20.800781 11.390625 20.996094 11.226562 21.117188 11.042969 C 21.207031 10.902344 21.28125 10.773438 21.34375 10.613281 C 21.402344 10.457031 21.535156 10.371094 21.664062 10.257812 C 21.769531 10.167969 21.878906 10.066406 21.933594 9.933594 C 21.980469 9.816406 21.960938 9.671875 22.023438 9.582031 C 22.082031 9.488281 22.152344 9.480469 22.164062 9.355469 C 22.171875 9.25 22.160156 9.214844 22.230469 9.121094 C 22.300781 9.027344 22.296875 8.976562 22.308594 8.859375 C 22.3125 8.8125 22.328125 8.761719 22.339844 8.710938 C 22.347656 8.695312 22.339844 8.691406 22.335938 8.6875 Z M 22.335938 8.6875 " fill-opacity="1" fill-rule="nonzero"/></g></svg>
