<svg xmlns="http://www.w3.org/2000/svg" xmlns:xlink="http://www.w3.org/1999/xlink" width="40" zoomAndPan="magnify" viewBox="0 0 30 30.000001" height="40" preserveAspectRatio="xMidYMid meet" version="1.0"><defs><clipPath id="fdee9ca93d"><path d="M 3.386719 3.398438 L 26.613281 3.398438 L 26.613281 25.898438 L 3.386719 25.898438 Z M 3.386719 3.398438 " clip-rule="nonzero"/></clipPath></defs><g clip-path="url(#fdee9ca93d)"><path fill="#014d4e" d="M 11.9375 24.738281 L 12.066406 24.59375 L 12.222656 24.144531 L 12.355469 23.976562 L 12.601562 23.988281 L 12.746094 24.097656 L 12.890625 24.273438 L 13.011719 24.46875 L 13.082031 24.625 L 13.089844 24.699219 L 13.082031 24.863281 L 13.105469 24.964844 L 13.160156 25.105469 L 13.214844 25.183594 L 13.300781 25.234375 L 13.445312 25.292969 L 14.019531 25.457031 L 16.066406 25.625 L 16.222656 25.570312 L 16.335938 25.449219 L 16.476562 25.269531 L 16.683594 25.066406 L 16.945312 24.898438 L 17.238281 24.789062 L 17.539062 24.757812 L 17.539062 17.703125 L 17.535156 12.507812 L 19.242188 12.507812 L 19.253906 12.4375 L 19.246094 5.773438 L 19.398438 5.738281 L 20.148438 5.6875 L 22.5625 5.234375 L 22.949219 5.199219 L 23.265625 5.285156 L 23.519531 5.566406 L 23.644531 5.839844 L 23.792969 5.957031 L 24.113281 5.777344 L 24.382812 5.566406 L 24.632812 5.402344 L 24.894531 5.289062 L 25.203125 5.214844 L 25.269531 5.210938 L 25.324219 5.21875 L 25.382812 5.222656 L 25.46875 5.207031 L 25.554688 5.15625 L 25.714844 5.011719 L 25.800781 4.953125 L 25.988281 4.882812 L 26.191406 4.839844 L 26.402344 4.820312 L 26.601562 4.824219 L 25.882812 4.382812 L 25.070312 4.277344 L 24.21875 4.378906 L 23.378906 4.550781 L 20.28125 5.117188 L 18.8125 5.1875 L 18.011719 5.023438 L 15.75 4.832031 L 15.511719 4.746094 L 15.347656 4.617188 L 15.085938 4.289062 L 14.929688 4.160156 L 14.820312 4.117188 L 8.039062 4.09375 L 7.339844 4.089844 L 6.917969 3.917969 L 6.496094 3.632812 L 6.132812 3.441406 L 5.75 3.398438 L 5.253906 3.550781 L 5.019531 3.65625 L 4.792969 3.734375 L 4.558594 3.777344 L 4.296875 3.777344 L 4.1875 3.757812 L 3.980469 3.707031 L 3.867188 3.699219 L 3.753906 3.726562 L 3.527344 3.824219 L 3.398438 3.84375 L 3.398438 4.59375 L 3.546875 5.261719 L 3.847656 5.875 L 4.753906 7.054688 L 5.953125 9.453125 L 6.179688 10.144531 L 6.320312 10.476562 L 7.832031 12.894531 L 8.117188 13.519531 L 8.125 14.21875 L 8.027344 14.140625 L 7.972656 14.460938 L 8.125 15.601562 L 8.144531 16.378906 L 8.191406 16.75 L 8.570312 17.847656 L 8.648438 18.191406 L 8.699219 18.941406 L 8.9375 20.519531 L 8.992188 20.6875 L 9.136719 20.992188 L 9.175781 21.121094 L 9.257812 21.644531 L 9.441406 22.339844 L 9.566406 22.660156 L 9.914062 23.339844 L 10.363281 23.988281 L 10.894531 24.578125 L 11.476562 25.070312 L 11.636719 24.921875 L 11.9375 24.738281 " fill-opacity="1" fill-rule="nonzero"/></g></svg>