<svg xmlns="http://www.w3.org/2000/svg" xmlns:xlink="http://www.w3.org/1999/xlink" width="40" zoomAndPan="magnify" viewBox="0 0 30 30.000001" height="40" preserveAspectRatio="xMidYMid meet" version="1.0"><defs><clipPath id="e7b5e53d5e"><path d="M 3.386719 5.125 L 26.613281 5.125 L 26.613281 23.996094 L 3.386719 23.996094 Z M 3.386719 5.125 " clip-rule="nonzero"/></clipPath></defs><g clip-path="url(#e7b5e53d5e)"><path fill="#014d4e" d="M 13.957031 18.765625 C 13.90625 18.878906 13.855469 18.988281 13.738281 18.988281 C 13.613281 18.988281 13.578125 18.859375 13.546875 18.765625 C 13.484375 18.585938 13.414062 18.421875 13.257812 18.304688 C 13.226562 18.28125 13.214844 18.246094 13.222656 18.214844 C 13.246094 18.097656 13.1875 18.042969 13.09375 17.992188 C 12.921875 17.902344 12.921875 17.820312 13.085938 17.71875 C 13.136719 17.6875 13.121094 17.644531 13.078125 17.636719 C 12.929688 17.609375 12.824219 17.476562 12.664062 17.480469 C 12.5625 17.484375 12.476562 17.425781 12.414062 17.351562 C 12.308594 17.234375 12.175781 17.183594 12.023438 17.183594 C 11.890625 17.179688 11.8125 17.105469 11.765625 16.992188 C 11.730469 16.914062 11.679688 16.882812 11.59375 16.871094 C 11.417969 16.847656 11.300781 16.710938 11.175781 16.605469 C 11.007812 16.460938 10.863281 16.289062 10.660156 16.183594 C 10.542969 16.128906 10.480469 16.007812 10.417969 15.898438 C 10.375 15.820312 10.476562 15.703125 10.574219 15.707031 C 10.59375 15.707031 10.617188 15.714844 10.636719 15.722656 C 10.699219 15.742188 10.75 15.714844 10.777344 15.667969 C 10.808594 15.617188 10.753906 15.585938 10.71875 15.558594 C 10.691406 15.53125 10.660156 15.515625 10.617188 15.511719 C 10.417969 15.492188 10.300781 15.367188 10.242188 15.1875 C 10.199219 15.046875 10.125 14.925781 9.996094 14.851562 C 9.929688 14.816406 9.910156 14.75 9.890625 14.6875 C 9.851562 14.574219 9.792969 14.472656 9.746094 14.367188 C 9.722656 14.3125 9.691406 14.285156 9.628906 14.289062 C 9.570312 14.296875 9.511719 14.269531 9.488281 14.226562 C 9.375 14.023438 9.160156 13.953125 8.980469 13.84375 C 8.746094 13.703125 8.625 13.496094 8.570312 13.242188 C 8.554688 13.148438 8.515625 13.058594 8.507812 12.960938 C 8.5 12.867188 8.417969 12.816406 8.335938 12.777344 C 8.199219 12.71875 8.105469 12.625 8.109375 12.460938 C 8.113281 12.3125 8.222656 12.234375 8.363281 12.285156 C 8.53125 12.34375 8.5625 12.320312 8.566406 12.144531 C 8.570312 12.023438 8.566406 11.90625 8.476562 11.800781 C 8.394531 11.707031 8.308594 11.652344 8.175781 11.660156 C 8.007812 11.664062 7.839844 11.679688 7.699219 11.546875 C 7.667969 11.515625 7.644531 11.566406 7.617188 11.585938 C 7.464844 11.707031 7.292969 11.671875 7.199219 11.5 C 7.167969 11.441406 7.125 11.398438 7.070312 11.363281 C 6.953125 11.285156 6.90625 11.140625 6.964844 11.015625 C 7.03125 10.882812 7.199219 10.800781 7.347656 10.832031 C 7.390625 10.84375 7.433594 10.851562 7.476562 10.828125 C 7.460938 10.757812 7.398438 10.722656 7.359375 10.671875 C 7.289062 10.582031 7.289062 10.503906 7.386719 10.449219 C 7.46875 10.398438 7.472656 10.335938 7.445312 10.269531 C 7.40625 10.179688 7.324219 10.175781 7.25 10.207031 C 7.1875 10.230469 7.125 10.253906 7.054688 10.246094 C 6.921875 10.238281 6.867188 10.148438 6.9375 10.035156 C 6.96875 9.984375 6.976562 9.960938 6.921875 9.914062 C 6.871094 9.863281 6.839844 9.789062 6.847656 9.707031 C 6.859375 9.597656 6.808594 9.535156 6.699219 9.535156 C 6.644531 9.535156 6.601562 9.511719 6.5625 9.476562 C 6.421875 9.351562 6.375 9.113281 6.460938 8.945312 C 6.476562 8.910156 6.492188 8.878906 6.492188 8.839844 C 6.496094 8.753906 6.53125 8.6875 6.617188 8.667969 C 6.714844 8.648438 6.824219 8.6875 6.84375 8.765625 C 6.894531 8.964844 7.0625 9.117188 7.0625 9.332031 C 7.0625 9.382812 7.074219 9.417969 7.136719 9.425781 C 7.359375 9.449219 7.515625 9.59375 7.667969 9.738281 C 7.753906 9.820312 7.828125 9.917969 7.871094 10.035156 C 7.890625 10.089844 7.933594 10.121094 7.992188 10.136719 C 8.113281 10.167969 8.214844 10.234375 8.289062 10.339844 C 8.449219 10.570312 8.664062 10.753906 8.847656 10.972656 C 9.003906 11.160156 9.25 11.238281 9.46875 11.339844 C 9.53125 11.367188 9.582031 11.320312 9.636719 11.304688 C 9.710938 11.285156 9.78125 11.273438 9.878906 11.296875 C 9.835938 11.207031 9.832031 11.128906 9.832031 11.050781 C 9.832031 10.878906 9.933594 10.796875 10.09375 10.855469 C 10.519531 11.011719 10.9375 11.1875 11.367188 11.324219 C 11.695312 11.425781 11.96875 11.59375 12.183594 11.855469 C 12.289062 11.976562 12.378906 12.109375 12.484375 12.230469 C 12.664062 12.433594 12.871094 12.609375 13.152344 12.667969 C 13.214844 12.679688 13.253906 12.722656 13.300781 12.757812 C 13.441406 12.882812 13.585938 13 13.785156 13.035156 C 13.9375 13.0625 14.042969 13.183594 14.132812 13.308594 C 14.214844 13.421875 14.304688 13.519531 14.425781 13.59375 C 14.609375 13.707031 14.695312 13.914062 14.84375 14.0625 C 15 14.222656 15.148438 14.398438 15.359375 14.492188 C 15.496094 14.550781 15.621094 14.628906 15.742188 14.710938 C 15.78125 14.734375 15.828125 14.765625 15.84375 14.804688 C 15.914062 14.980469 16.066406 15.027344 16.230469 15.035156 C 16.390625 15.042969 16.53125 15.121094 16.691406 15.136719 C 16.808594 15.148438 16.925781 15.257812 16.957031 15.371094 C 17.007812 15.535156 17.125 15.53125 17.246094 15.550781 C 17.488281 15.589844 17.734375 15.617188 17.964844 15.703125 C 18.078125 15.742188 18.167969 15.792969 18.296875 15.757812 C 18.394531 15.730469 18.492188 15.78125 18.554688 15.859375 C 18.609375 15.929688 18.675781 15.984375 18.746094 16.035156 C 18.898438 16.152344 18.960938 16.289062 18.960938 16.488281 C 18.960938 16.710938 19.007812 16.9375 19.273438 17.039062 C 19.378906 17.082031 19.484375 17.15625 19.539062 17.277344 C 19.5625 17.332031 19.621094 17.375 19.691406 17.371094 C 19.839844 17.363281 19.984375 17.394531 20.128906 17.425781 C 20.316406 17.464844 20.402344 17.597656 20.34375 17.773438 C 20.308594 17.878906 20.328125 17.992188 20.273438 18.09375 C 20.257812 18.121094 20.269531 18.160156 20.304688 18.183594 C 20.40625 18.25 20.472656 18.375 20.617188 18.375 C 20.660156 18.375 20.710938 18.402344 20.710938 18.445312 C 20.71875 18.578125 20.808594 18.699219 20.769531 18.835938 C 20.753906 18.890625 20.796875 18.902344 20.824219 18.921875 C 20.871094 18.953125 20.925781 18.972656 20.960938 19.011719 C 21.078125 19.136719 21.203125 19.210938 21.386719 19.203125 C 21.527344 19.203125 21.613281 19.347656 21.730469 19.421875 C 21.90625 19.53125 22.042969 19.679688 22.164062 19.847656 C 22.238281 19.945312 22.238281 20.023438 22.164062 20.089844 C 22.105469 20.136719 22.128906 20.167969 22.144531 20.214844 C 22.214844 20.472656 22.402344 20.570312 22.65625 20.621094 C 22.835938 20.65625 23.035156 20.664062 23.175781 20.820312 C 23.207031 20.855469 23.238281 20.84375 23.277344 20.832031 C 23.5 20.769531 23.675781 20.871094 23.820312 21.019531 C 23.886719 21.089844 23.949219 21.171875 23.988281 21.269531 C 24.003906 21.3125 24.019531 21.355469 24.089844 21.351562 C 24.140625 21.347656 24.207031 21.378906 24.214844 21.453125 C 24.222656 21.503906 24.246094 21.570312 24.289062 21.550781 C 24.359375 21.515625 24.464844 21.566406 24.507812 21.464844 C 24.574219 21.296875 24.6875 21.277344 24.824219 21.398438 C 24.980469 21.546875 25.074219 21.734375 25.167969 21.921875 C 25.210938 22.003906 25.234375 22.039062 25.300781 21.933594 C 25.378906 21.808594 25.46875 21.800781 25.601562 21.875 C 25.714844 21.945312 25.8125 22.039062 25.90625 22.136719 C 25.964844 22.203125 26.03125 22.246094 26.125 22.234375 C 26.203125 22.226562 26.273438 22.257812 26.34375 22.289062 C 26.386719 22.3125 26.433594 22.34375 26.429688 22.390625 C 26.421875 22.511719 26.492188 22.617188 26.492188 22.734375 C 26.488281 22.816406 26.503906 22.886719 26.558594 22.957031 C 26.609375 23.015625 26.546875 23.21875 26.453125 23.289062 C 26.300781 23.398438 26.167969 23.511719 26.105469 23.699219 C 26.0625 23.824219 25.839844 23.875 25.695312 23.847656 C 25.496094 23.808594 25.304688 23.769531 25.121094 23.675781 C 25.046875 23.632812 24.941406 23.652344 24.851562 23.695312 C 24.621094 23.800781 24.523438 23.769531 24.324219 23.613281 C 24.097656 23.433594 23.867188 23.238281 23.59375 23.136719 C 23.4375 23.082031 23.265625 23.050781 23.101562 23.011719 C 22.996094 22.984375 22.882812 23.070312 22.757812 23.058594 C 22.664062 23.050781 22.585938 23.03125 22.511719 22.964844 C 22.402344 22.867188 22.242188 22.855469 22.128906 22.75 C 22.027344 22.652344 21.902344 22.578125 21.777344 22.511719 C 21.6875 22.460938 21.617188 22.386719 21.578125 22.289062 C 21.519531 22.140625 21.460938 22.101562 21.3125 22.15625 C 21.203125 22.199219 21.132812 22.175781 21.050781 22.109375 C 20.960938 22.035156 20.871094 22.023438 20.765625 22.109375 C 20.578125 22.265625 20.367188 22.28125 20.148438 22.15625 C 20.011719 22.082031 19.835938 22.058594 19.800781 21.863281 C 19.785156 21.78125 19.753906 21.703125 19.738281 21.621094 C 19.699219 21.417969 19.511719 21.394531 19.355469 21.339844 C 19.230469 21.292969 19.085938 21.277344 18.988281 21.164062 C 18.976562 21.152344 18.953125 21.140625 18.933594 21.136719 C 18.664062 21.125 18.390625 21.117188 18.144531 21.238281 C 17.941406 21.332031 17.761719 21.476562 17.5625 21.585938 C 17.441406 21.652344 17.304688 21.6875 17.226562 21.828125 C 17.1875 21.902344 17.085938 21.886719 17.011719 21.835938 C 16.949219 21.796875 16.886719 21.785156 16.8125 21.8125 C 16.730469 21.84375 16.664062 21.800781 16.617188 21.734375 C 16.566406 21.667969 16.5625 21.597656 16.636719 21.535156 C 16.671875 21.503906 16.734375 21.46875 16.699219 21.402344 C 16.664062 21.332031 16.605469 21.375 16.554688 21.378906 C 16.445312 21.390625 16.382812 21.3125 16.402344 21.199219 C 16.410156 21.160156 16.425781 21.101562 16.367188 21.097656 C 16.308594 21.09375 16.324219 21.148438 16.320312 21.183594 C 16.300781 21.339844 16.199219 21.472656 16.082031 21.488281 C 15.945312 21.507812 15.828125 21.449219 15.773438 21.320312 C 15.734375 21.226562 15.738281 21.128906 15.777344 21.039062 C 15.8125 20.953125 15.824219 20.898438 15.707031 20.875 C 15.613281 20.855469 15.554688 20.769531 15.5 20.695312 C 15.335938 20.460938 15.136719 20.257812 14.941406 20.046875 C 14.769531 19.859375 14.667969 19.660156 14.691406 19.402344 C 14.695312 19.351562 14.691406 19.300781 14.691406 19.25 C 14.6875 19.210938 14.691406 19.183594 14.625 19.191406 C 14.507812 19.210938 14.445312 19.144531 14.441406 19.019531 C 14.433594 18.882812 14.40625 18.863281 14.289062 18.929688 C 14.171875 18.988281 14.066406 18.941406 13.957031 18.765625 Z M 3.917969 6.800781 C 3.945312 6.867188 4.011719 6.867188 4.070312 6.832031 C 4.128906 6.800781 4.183594 6.761719 4.234375 6.714844 C 4.355469 6.597656 4.363281 6.5 4.269531 6.359375 C 4.234375 6.3125 4.199219 6.261719 4.183594 6.207031 C 4.132812 5.984375 4.066406 5.765625 3.972656 5.554688 C 3.910156 5.410156 3.832031 5.285156 3.699219 5.203125 C 3.605469 5.140625 3.496094 5.164062 3.449219 5.25 C 3.382812 5.359375 3.394531 5.414062 3.507812 5.484375 C 3.578125 5.527344 3.609375 5.582031 3.605469 5.660156 C 3.601562 5.734375 3.605469 5.804688 3.605469 5.902344 C 3.546875 6.238281 3.78125 6.503906 3.917969 6.800781 Z M 8.515625 9.371094 C 8.515625 9.5 8.503906 9.625 8.519531 9.75 C 8.535156 9.851562 8.550781 9.960938 8.648438 10.027344 C 8.769531 10.105469 8.890625 10.179688 9.019531 10.242188 C 9.273438 10.363281 9.273438 10.363281 9.433594 10.613281 C 9.472656 10.671875 9.511719 10.683594 9.570312 10.644531 C 9.652344 10.585938 9.703125 10.523438 9.632812 10.421875 C 9.597656 10.371094 9.578125 10.308594 9.566406 10.246094 C 9.550781 10.144531 9.503906 10.054688 9.457031 9.964844 C 9.414062 9.886719 9.355469 9.800781 9.242188 9.847656 C 9.195312 9.867188 9.195312 9.835938 9.175781 9.8125 C 9.050781 9.648438 8.921875 9.480469 8.792969 9.316406 C 8.753906 9.269531 8.710938 9.230469 8.640625 9.226562 C 8.5625 9.242188 8.515625 9.289062 8.515625 9.371094 Z M 8.515625 9.371094 " fill-opacity="1" fill-rule="nonzero"/></g></svg>