<svg xmlns="http://www.w3.org/2000/svg" xmlns:xlink="http://www.w3.org/1999/xlink" width="40" zoomAndPan="magnify" viewBox="0 0 30 30.000001" height="40" preserveAspectRatio="xMidYMid meet" version="1.0"><defs><clipPath id="6de717a1aa"><path d="M 3.386719 5.5 L 26.613281 5.5 L 26.613281 23.648438 L 3.386719 23.648438 Z M 3.386719 5.5 " clip-rule="nonzero"/></clipPath></defs><g clip-path="url(#6de717a1aa)"><path fill="#014d4e" d="M 26.25 9.90625 C 26.15625 9.785156 25.902344 9.648438 25.902344 9.5 C 25.902344 9.382812 25.984375 9.363281 25.945312 9.238281 C 25.917969 9.148438 25.835938 9.070312 25.773438 8.996094 C 25.660156 8.867188 25.488281 8.71875 25.414062 8.5625 C 25.410156 8.5625 25.410156 8.5625 25.410156 8.566406 C 25.394531 8.539062 25.382812 8.507812 25.363281 8.480469 L 25.390625 8.460938 L 25.023438 6.261719 L 23.964844 6.847656 C 22.863281 5.5 20.679688 5.570312 20.679688 5.570312 L 14.457031 9.582031 L 11.917969 11.851562 L 9.628906 12.296875 L 9.558594 15.460938 C 9.535156 15.515625 9.515625 15.570312 9.496094 15.625 C 9.523438 15.746094 9.40625 15.957031 9.390625 16.109375 C 9.382812 16.222656 9.417969 16.339844 9.390625 16.453125 C 9.363281 16.574219 9.253906 16.648438 9.191406 16.75 C 9.117188 16.875 9.074219 17.03125 9.015625 17.164062 C 8.960938 17.28125 8.964844 17.464844 8.871094 17.5625 C 8.777344 17.667969 8.632812 17.613281 8.523438 17.707031 C 8.394531 17.8125 8.507812 17.972656 8.414062 18.074219 C 8.304688 18.199219 8.066406 18.023438 7.933594 18.011719 C 7.820312 18.003906 7.675781 18.066406 7.644531 18.175781 C 7.578125 18.15625 7.503906 18.125 7.445312 18.117188 C 7.3125 18.097656 7.1875 18.085938 7.050781 18.082031 C 6.933594 18.074219 6.820312 18.089844 6.707031 18.082031 C 6.597656 18.074219 6.476562 17.988281 6.363281 17.996094 C 6.246094 18.007812 6.160156 18.128906 6.035156 18.144531 C 5.917969 18.164062 5.832031 18.101562 5.722656 18.066406 C 5.289062 17.929688 4.992188 18.234375 4.6875 18.484375 C 4.667969 18.492188 4.550781 18.550781 4.4375 18.605469 C 4.320312 18.617188 4.097656 18.628906 4.03125 18.636719 C 3.828125 18.597656 3.609375 18.539062 3.417969 18.585938 C 3.4375 18.703125 3.488281 18.792969 3.480469 18.929688 C 3.476562 19.03125 3.398438 19.175781 3.4375 19.273438 C 3.523438 19.507812 3.789062 19.453125 3.726562 19.75 C 3.667969 20.015625 3.847656 20.101562 4.011719 20.304688 C 4.109375 20.421875 4.132812 20.464844 4.285156 20.519531 C 4.441406 20.578125 4.523438 20.617188 4.644531 20.738281 C 4.691406 20.792969 4.945312 20.980469 4.914062 21.039062 C 4.878906 21.097656 4.605469 21.019531 4.535156 21.019531 C 4.589844 21.230469 4.519531 21.464844 4.734375 21.558594 C 4.84375 21.609375 4.875 21.589844 4.953125 21.691406 C 5.007812 21.761719 5.015625 21.855469 5.074219 21.917969 C 5.1875 22.035156 5.402344 22.078125 5.546875 22.167969 C 5.613281 22.210938 5.664062 22.277344 5.757812 22.257812 C 5.878906 22.230469 5.824219 22.164062 5.898438 22.089844 C 6.132812 21.84375 6.292969 22.269531 6.34375 22.457031 C 6.089844 22.449219 6.042969 22.601562 6.207031 22.78125 C 6.300781 22.878906 6.359375 22.953125 6.433594 23.070312 C 6.492188 23.164062 6.546875 23.28125 6.667969 23.203125 C 6.644531 23.066406 6.589844 22.875 6.683594 22.785156 C 6.792969 22.683594 6.953125 22.777344 7.0625 22.71875 C 7.125 22.683594 7.101562 22.613281 7.203125 22.59375 C 7.289062 22.578125 7.390625 22.644531 7.460938 22.699219 C 7.597656 22.804688 7.714844 22.960938 7.835938 23.09375 C 7.945312 23.214844 8.039062 23.429688 8.191406 23.488281 C 8.222656 23.503906 8.347656 23.511719 8.390625 23.503906 C 8.507812 23.472656 8.488281 23.523438 8.480469 23.355469 C 8.464844 23.109375 8.351562 22.816406 8.523438 22.59375 C 8.621094 22.46875 8.730469 22.441406 8.789062 22.277344 C 8.816406 22.191406 8.832031 22.125 8.882812 22.046875 C 9.035156 21.828125 9.199219 21.765625 9.28125 21.496094 C 9.332031 21.308594 9.332031 21.117188 9.308594 20.925781 C 9.390625 20.910156 9.476562 20.890625 9.558594 20.878906 C 9.5625 20.851562 9.863281 20.730469 9.9375 20.671875 C 10.023438 20.597656 10 20.5625 10.117188 20.542969 C 10.195312 20.527344 10.328125 20.550781 10.402344 20.570312 C 10.613281 20.613281 10.699219 20.652344 10.917969 20.59375 C 11 20.570312 11.097656 20.550781 11.160156 20.496094 C 11.230469 20.425781 11.199219 20.328125 11.324219 20.296875 C 11.511719 20.519531 11.894531 20.558594 12.15625 20.609375 C 12.226562 20.621094 12.300781 20.660156 12.375 20.671875 C 12.445312 20.675781 12.535156 20.636719 12.609375 20.65625 C 12.75 20.691406 12.820312 20.886719 12.875 21.011719 C 12.933594 21.136719 12.992188 21.308594 13.082031 21.40625 C 13.191406 21.53125 13.363281 21.554688 13.484375 21.644531 C 13.617188 21.734375 13.632812 21.878906 13.808594 21.769531 C 13.949219 21.6875 13.933594 21.496094 14.097656 21.484375 C 14.1875 21.480469 14.234375 21.539062 14.324219 21.53125 C 14.40625 21.519531 14.488281 21.476562 14.554688 21.421875 C 14.671875 21.324219 14.792969 21.195312 14.902344 21.058594 C 15.023438 21.089844 15.191406 21.128906 15.242188 21.136719 C 15.457031 21.230469 15.5625 21.265625 15.722656 21.445312 C 15.878906 21.625 16.039062 21.671875 16.261719 21.746094 C 16.480469 21.816406 16.585938 21.996094 16.816406 22.011719 C 16.996094 22.019531 17.382812 22.125 17.53125 21.988281 C 17.625 21.898438 17.632812 21.75 17.742188 21.65625 C 17.851562 21.570312 17.976562 21.539062 18.101562 21.480469 C 18.316406 21.378906 18.484375 21.097656 18.742188 21.136719 C 18.871094 21.15625 18.933594 21.214844 19.078125 21.195312 C 19.230469 21.175781 19.402344 21.132812 19.546875 21.074219 C 19.738281 20.996094 19.695312 20.984375 19.855469 21.070312 C 20 21.140625 20.117188 21.164062 20.285156 21.167969 C 20.507812 21.175781 20.65625 21.175781 20.867188 21.28125 C 21.042969 21.367188 21.222656 21.519531 21.414062 21.558594 C 21.765625 21.632812 21.855469 21.472656 21.898438 21.214844 C 22.027344 21.175781 22.148438 21.132812 22.277344 21.089844 C 22.25 21.019531 22.4375 20.832031 22.519531 20.808594 C 22.664062 20.769531 22.796875 20.871094 22.9375 20.78125 C 23.011719 20.730469 23.027344 20.609375 23.085938 20.570312 C 23.179688 20.503906 23.246094 20.609375 23.316406 20.578125 C 23.429688 20.527344 23.3125 20.113281 23.292969 20.003906 C 23.265625 19.863281 23.167969 19.539062 23.226562 19.421875 C 23.523438 19.40625 23.4375 19.269531 23.457031 19.027344 C 23.5625 18.992188 23.664062 19.058594 23.71875 18.933594 C 23.742188 18.878906 23.707031 18.679688 23.71875 18.605469 C 23.742188 18.355469 23.914062 18.195312 24.082031 17.972656 C 24.175781 17.84375 24.289062 17.722656 24.335938 17.570312 C 24.386719 17.433594 24.367188 17.375 24.488281 17.285156 C 24.617188 17.191406 24.703125 17.160156 24.792969 17.011719 C 24.875 16.871094 24.886719 16.730469 25.003906 16.625 C 25.152344 16.492188 25.328125 16.402344 25.449219 16.25 C 25.535156 16.148438 25.613281 16.023438 25.675781 15.898438 C 25.828125 15.742188 25.988281 15.59375 26.027344 15.378906 C 26.058594 15.214844 26.027344 15.097656 26.027344 14.949219 C 26.027344 14.730469 26.054688 14.496094 26.058594 14.273438 C 26.066406 13.488281 26.058594 12.726562 26.140625 11.945312 C 26.171875 11.664062 26.171875 11.390625 26.171875 11.105469 C 26.171875 10.972656 26.15625 10.855469 26.226562 10.730469 C 26.285156 10.625 26.410156 10.558594 26.46875 10.453125 C 26.601562 10.242188 26.378906 10.074219 26.25 9.90625 Z M 26.25 9.90625 " fill-opacity="1" fill-rule="nonzero"/></g></svg>