<svg xmlns="http://www.w3.org/2000/svg" xmlns:xlink="http://www.w3.org/1999/xlink" width="40" zoomAndPan="magnify" viewBox="0 0 30 30.000001" height="40" preserveAspectRatio="xMidYMid meet" version="1.0"><defs><clipPath id="5e53395110"><path d="M 3.386719 3.121094 L 26.613281 3.121094 L 26.613281 25.621094 L 3.386719 25.621094 Z M 3.386719 3.121094 " clip-rule="nonzero"/></clipPath></defs><g clip-path="url(#5e53395110)"><path fill="#014d4e" d="M 26.597656 17.371094 C 26.601562 17.210938 26.445312 17.035156 26.421875 16.871094 C 26.390625 16.625 26.453125 16.367188 26.417969 16.109375 C 26.382812 15.871094 26.324219 15.648438 26.261719 15.417969 C 26.1875 15.136719 26.488281 14.917969 26.410156 14.644531 C 26.382812 14.546875 26.316406 14.472656 26.234375 14.425781 C 26.121094 14.355469 26.054688 14.316406 25.957031 14.222656 C 25.820312 14.089844 25.449219 14.167969 25.351562 14.007812 C 25.296875 13.921875 25.351562 13.867188 25.285156 13.785156 C 25.226562 13.710938 25.109375 13.664062 25.035156 13.609375 C 24.953125 13.546875 24.871094 13.476562 24.769531 13.4375 C 24.667969 13.394531 24.550781 13.40625 24.453125 13.367188 C 24.273438 13.300781 24.207031 13.113281 24.0625 13.003906 C 23.894531 12.871094 23.757812 12.734375 23.535156 12.714844 C 23.371094 12.699219 23.148438 12.730469 22.976562 12.773438 C 22.828125 12.691406 22.679688 12.621094 22.523438 12.566406 C 22.292969 12.484375 22.019531 12.523438 21.777344 12.449219 C 21.660156 12.417969 21.601562 12.351562 21.507812 12.285156 C 21.359375 12.183594 21.289062 12.226562 21.117188 12.230469 C 20.789062 12.246094 20.367188 12.292969 20.046875 12.1875 C 19.554688 12.027344 19.363281 11.519531 18.875 11.382812 C 18.683594 11.324219 18.605469 11.226562 18.4375 11.128906 C 18.253906 11.019531 18.113281 11.007812 17.992188 10.816406 C 17.898438 10.671875 17.847656 10.488281 17.75 10.355469 C 17.683594 10.265625 17.597656 10.25 17.515625 10.191406 C 17.433594 10.128906 17.453125 10.121094 17.398438 10.039062 C 17.324219 9.90625 17.167969 9.800781 17.109375 9.660156 C 17.046875 9.523438 17.148438 9.351562 17.074219 9.230469 C 17.003906 9.105469 16.855469 9.148438 16.894531 8.972656 C 16.921875 8.851562 17.074219 8.769531 17.019531 8.632812 C 16.945312 8.4375 16.472656 8.335938 16.292969 8.238281 C 16.171875 8.167969 16.042969 8.132812 15.945312 8.035156 C 15.851562 7.941406 15.78125 7.835938 15.699219 7.738281 C 15.601562 7.617188 15.507812 7.507812 15.425781 7.382812 C 15.359375 7.277344 15.179688 7.140625 15.144531 7.058594 C 15.125 7.046875 15.097656 7.035156 15.070312 7.027344 C 15.003906 6.953125 14.929688 6.882812 14.839844 6.835938 C 14.644531 6.730469 14.414062 6.707031 14.214844 6.636719 C 14.074219 6.585938 13.9375 6.550781 13.796875 6.511719 C 13.648438 6.472656 13.632812 6.449219 13.496094 6.523438 C 13.417969 6.566406 13.367188 6.660156 13.292969 6.675781 C 13.214844 6.691406 13.066406 6.621094 13 6.59375 C 12.777344 6.492188 12.671875 6.292969 12.472656 6.164062 C 12.308594 6.054688 12.113281 6.144531 12.046875 5.902344 C 11.992188 5.710938 11.996094 5.414062 11.820312 5.277344 C 11.753906 5.226562 11.652344 5.210938 11.570312 5.25 C 11.476562 5.292969 11.492188 5.390625 11.4375 5.453125 C 11.351562 5.550781 11.085938 5.519531 10.9375 5.496094 C 10.726562 5.464844 10.523438 5.386719 10.308594 5.347656 C 10.183594 5.320312 10.070312 5.351562 9.953125 5.371094 C 9.796875 5.386719 9.722656 5.335938 9.578125 5.277344 C 9.292969 5.15625 9.046875 5.316406 8.753906 5.289062 C 8.585938 5.269531 8.433594 5.1875 8.257812 5.160156 C 8.101562 5.140625 7.949219 5.121094 7.796875 5.09375 C 7.539062 5.046875 7.449219 4.789062 7.1875 4.738281 C 7.0625 4.710938 6.917969 4.722656 6.792969 4.695312 C 6.671875 4.667969 6.59375 4.597656 6.496094 4.542969 C 6.464844 4.523438 6.40625 4.503906 6.351562 4.480469 C 6.324219 4.382812 6.289062 4.230469 6.277344 4.207031 C 6.269531 4.03125 6.347656 3.863281 6.332031 3.695312 C 6.320312 3.578125 6.179688 3.261719 6.078125 3.207031 C 5.910156 3.121094 5.683594 3.214844 5.503906 3.234375 C 5.394531 3.253906 5.027344 3.144531 5 3.261719 C 4.980469 3.351562 5.148438 3.4375 5.128906 3.53125 C 5.113281 3.613281 4.953125 3.730469 4.894531 3.773438 C 4.691406 3.949219 4.773438 4.152344 4.667969 4.371094 C 4.625 4.46875 4.558594 4.589844 4.492188 4.679688 C 4.433594 4.761719 4.324219 4.78125 4.273438 4.859375 C 4.203125 4.96875 4.285156 5.1875 4.296875 5.304688 C 4.308594 5.433594 4.308594 5.566406 4.3125 5.691406 C 4.324219 5.90625 4.410156 6.109375 4.355469 6.324219 C 4.308594 6.503906 4.253906 6.75 4.105469 6.878906 C 3.929688 7.03125 3.519531 6.917969 3.398438 7.128906 C 3.496094 7.25 3.691406 7.113281 3.824219 7.136719 C 4.035156 7.167969 4.152344 7.289062 4.367188 7.167969 C 4.476562 7.109375 4.539062 7.03125 4.667969 7.007812 C 4.773438 6.992188 4.910156 7.003906 5.007812 7.003906 C 5.246094 7.007812 5.191406 7.085938 5.148438 7.265625 C 5.125 7.367188 5.121094 7.394531 5.203125 7.464844 C 5.230469 7.492188 5.289062 7.535156 5.351562 7.578125 C 5.339844 7.65625 5.332031 7.738281 5.328125 7.777344 C 5.351562 8.132812 5.222656 8.453125 5.148438 8.785156 C 5.101562 8.96875 5.085938 9.160156 5.027344 9.339844 C 4.964844 9.515625 4.816406 9.648438 4.761719 9.8125 C 4.707031 9.972656 4.863281 10.03125 4.882812 10.175781 C 4.90625 10.328125 4.789062 10.613281 4.746094 10.773438 C 4.679688 11.003906 4.578125 11.085938 4.71875 11.289062 C 4.855469 11.484375 4.777344 11.648438 4.707031 11.867188 C 4.667969 11.984375 4.632812 12.09375 4.554688 12.1875 C 4.492188 12.257812 4.40625 12.300781 4.351562 12.375 C 4.273438 12.476562 4.3125 12.632812 4.394531 12.742188 C 4.40625 12.835938 4.421875 12.972656 4.429688 13.027344 C 4.4375 13.121094 4.417969 13.261719 4.457031 13.34375 C 4.519531 13.492188 4.632812 13.53125 4.664062 13.710938 C 4.71875 13.984375 4.71875 14.269531 4.773438 14.550781 C 4.808594 14.726562 4.808594 14.75 4.6875 14.84375 C 4.570312 14.929688 4.582031 15.023438 4.542969 15.175781 C 4.5 15.355469 4.363281 15.503906 4.214844 15.632812 C 4.117188 15.714844 3.972656 15.785156 3.96875 15.917969 C 3.960938 16.054688 4.078125 16.230469 4.132812 16.351562 C 4.214844 16.542969 4.269531 16.75 4.320312 16.949219 C 4.363281 17.117188 4.375 17.277344 4.300781 17.445312 C 4.253906 17.566406 4.035156 17.648438 4.035156 17.769531 C 4.035156 17.898438 4.230469 17.957031 4.246094 18.09375 C 4.253906 18.148438 4.226562 18.226562 4.230469 18.292969 C 4.242188 18.40625 4.296875 18.421875 4.351562 18.515625 C 4.382812 18.570312 4.40625 18.652344 4.402344 18.714844 C 4.390625 18.773438 4.335938 18.8125 4.328125 18.875 C 4.300781 19.058594 4.570312 19.015625 4.539062 19.203125 C 4.503906 19.371094 4.269531 19.367188 4.492188 19.53125 C 4.585938 19.597656 4.660156 19.609375 4.761719 19.597656 C 4.921875 19.582031 4.953125 19.589844 5.035156 19.761719 C 5.164062 20.03125 5.042969 20.300781 4.851562 20.492188 C 4.691406 20.644531 4.410156 20.769531 4.621094 20.980469 C 4.648438 21.007812 4.703125 21.066406 4.757812 21.109375 C 4.664062 21.171875 4.566406 21.230469 4.472656 21.292969 C 4.472656 21.292969 4.472656 21.292969 4.472656 21.296875 C 4.273438 21.421875 3.96875 21.539062 4.230469 21.800781 C 4.449219 22.015625 4.722656 21.894531 5.003906 21.878906 C 5.0625 21.878906 5.125 21.894531 5.179688 21.867188 C 5.238281 21.839844 5.234375 21.785156 5.3125 21.761719 C 5.460938 21.726562 5.664062 21.851562 5.808594 21.875 C 6.003906 21.902344 6.195312 21.910156 6.378906 21.957031 C 6.539062 21.992188 6.683594 22.058594 6.839844 22.074219 C 7.011719 22.09375 7.089844 22.113281 7.179688 22.285156 C 7.265625 22.425781 7.253906 22.492188 7.433594 22.546875 C 7.636719 22.601562 7.851562 22.625 8.039062 22.722656 C 8.25 22.839844 8.351562 23.0625 8.492188 23.253906 C 8.664062 23.484375 8.640625 23.585938 8.628906 23.863281 C 8.625 24.121094 8.761719 24.28125 8.808594 24.515625 C 8.847656 24.691406 8.789062 24.902344 8.84375 25.070312 C 8.914062 25.308594 9.078125 25.109375 9.199219 25.03125 C 9.375 24.929688 9.527344 24.910156 9.714844 24.984375 C 9.941406 25.070312 9.984375 25.03125 10.070312 24.808594 C 10.171875 24.5625 10.328125 24.691406 10.496094 24.550781 C 10.621094 24.441406 10.613281 24.078125 10.664062 23.914062 C 10.769531 23.90625 10.871094 23.90625 10.976562 23.90625 C 10.972656 23.90625 10.964844 23.914062 10.964844 23.914062 C 11.039062 23.945312 11.097656 24.023438 11.175781 24.027344 C 11.257812 24.027344 11.378906 23.957031 11.464844 23.929688 C 11.5625 23.902344 11.65625 23.890625 11.753906 23.878906 C 11.910156 23.863281 11.957031 23.875 12.019531 23.742188 C 12.070312 23.640625 12.046875 23.574219 12.183594 23.550781 C 12.269531 23.535156 12.398438 23.558594 12.492188 23.550781 C 12.730469 23.539062 12.929688 23.453125 13.160156 23.558594 C 13.300781 23.621094 13.570312 23.722656 13.660156 23.847656 C 13.746094 23.972656 13.664062 23.972656 13.839844 23.972656 C 13.9375 23.972656 14.074219 23.960938 14.15625 24.035156 C 14.300781 24.15625 14.164062 24.175781 14.085938 24.257812 C 13.960938 24.386719 14.019531 24.457031 14.175781 24.421875 C 14.277344 24.402344 14.378906 24.335938 14.492188 24.339844 C 14.617188 24.339844 14.757812 24.414062 14.871094 24.449219 C 15.050781 24.515625 15.242188 24.507812 15.425781 24.5625 C 15.605469 24.617188 15.753906 24.746094 15.898438 24.863281 C 16 24.945312 16.050781 25.121094 16.1875 25.097656 C 16.273438 25.082031 16.320312 24.988281 16.339844 24.890625 C 16.414062 24.933594 16.488281 24.972656 16.558594 25.015625 C 16.730469 25.003906 16.789062 25.285156 16.773438 25.421875 C 16.757812 25.5625 16.726562 25.53125 16.609375 25.5625 C 16.527344 25.585938 16.394531 25.640625 16.46875 25.757812 C 16.558594 25.90625 16.890625 25.800781 17.015625 25.785156 C 17.070312 25.777344 17.128906 25.757812 17.1875 25.765625 C 17.230469 25.777344 17.261719 25.828125 17.289062 25.832031 C 17.445312 25.867188 17.40625 25.777344 17.492188 25.695312 C 17.570312 25.628906 17.679688 25.636719 17.773438 25.609375 C 17.871094 25.574219 17.960938 25.519531 18.0625 25.5 C 18.050781 25.378906 17.914062 25.269531 18.023438 25.175781 C 18.132812 25.078125 18.222656 25.214844 18.1875 25.011719 C 18.171875 24.921875 18.128906 24.851562 18.152344 24.757812 C 18.1875 24.617188 18.371094 24.496094 18.46875 24.402344 C 18.558594 24.320312 18.644531 24.203125 18.75 24.144531 C 18.90625 24.0625 19.128906 24.054688 19.296875 24 C 19.617188 23.898438 19.878906 23.980469 20.207031 24.050781 C 20.554688 24.121094 20.859375 24.339844 21.234375 24.265625 C 21.304688 24.25 21.363281 24.210938 21.4375 24.199219 C 21.503906 24.1875 21.601562 24.203125 21.660156 24.164062 C 21.710938 24.136719 21.722656 24.0625 21.761719 24.039062 C 21.820312 24 21.875 24.007812 21.941406 23.992188 C 22.089844 23.957031 22.25 23.878906 22.394531 23.898438 C 22.550781 23.914062 22.605469 24 22.757812 23.941406 C 22.902344 23.886719 23.015625 23.761719 23.152344 23.707031 C 23.21875 23.675781 23.1875 23.660156 23.269531 23.667969 C 23.34375 23.671875 23.367188 23.738281 23.460938 23.710938 C 23.628906 23.65625 23.679688 23.382812 23.695312 23.234375 C 23.703125 23.179688 23.75 23.046875 23.71875 22.992188 C 23.664062 22.898438 23.582031 22.976562 23.515625 22.960938 C 23.398438 22.933594 23.289062 22.761719 23.164062 22.710938 C 23.105469 22.683594 22.992188 22.683594 22.90625 22.65625 C 22.976562 22.585938 23.066406 22.5 23.109375 22.460938 C 23.160156 22.316406 22.875 22.164062 22.800781 22.058594 C 22.6875 21.890625 22.714844 21.761719 22.746094 21.582031 C 22.78125 21.414062 22.785156 21.242188 22.894531 21.101562 C 22.964844 21.019531 23.070312 20.972656 23.152344 20.917969 C 23.25 20.851562 23.316406 20.769531 23.394531 20.683594 C 23.527344 20.519531 23.613281 20.484375 23.804688 20.519531 C 23.988281 20.546875 24.136719 20.496094 24.292969 20.628906 C 24.355469 20.675781 24.390625 20.753906 24.457031 20.804688 C 24.5625 20.875 24.648438 20.835938 24.765625 20.808594 C 24.953125 20.765625 25.101562 20.710938 25.292969 20.726562 C 25.417969 20.738281 25.511719 20.789062 25.625 20.816406 C 25.8125 20.859375 26.195312 20.660156 26.113281 20.453125 C 26.078125 20.359375 25.964844 20.304688 25.992188 20.1875 C 26.027344 20.050781 26.167969 20.035156 26.269531 20.019531 C 26.285156 19.820312 26.230469 19.601562 26.207031 19.40625 C 26.195312 19.3125 26.160156 19.175781 26.175781 19.085938 C 26.195312 18.972656 26.308594 18.882812 26.363281 18.785156 C 26.480469 18.585938 26.464844 18.3125 26.488281 18.089844 C 26.503906 17.953125 26.453125 17.816406 26.382812 17.695312 C 26.488281 17.59375 26.597656 17.511719 26.597656 17.371094 Z M 26.597656 17.371094 " fill-opacity="1" fill-rule="nonzero"/></g></svg>