<svg xmlns="http://www.w3.org/2000/svg" xmlns:xlink="http://www.w3.org/1999/xlink" width="40" zoomAndPan="magnify" viewBox="0 0 30 30.000001" height="40" preserveAspectRatio="xMidYMid meet" version="1.0"><defs><clipPath id="189b0cd594"><path d="M 3.386719 3.078125 L 26.613281 3.078125 L 26.613281 26 L 3.386719 26 Z M 3.386719 3.078125 " clip-rule="nonzero"/></clipPath></defs><path fill="#014d4e" d="M 24.785156 16.074219 C 24.789062 16.066406 24.792969 16.058594 24.796875 16.054688 C 24.792969 16.058594 24.777344 16.074219 24.785156 16.074219 Z M 25.113281 15.578125 C 25.007812 15.738281 24.902344 15.894531 24.804688 16.054688 C 24.808594 16.054688 24.8125 16.054688 24.808594 16.066406 C 24.792969 16.097656 24.777344 16.125 24.753906 16.148438 C 24.761719 16.042969 24.777344 15.917969 24.773438 15.824219 C 24.769531 15.671875 24.726562 15.40625 24.863281 15.304688 C 25.078125 15.320312 25.148438 15.4375 25.164062 15.578125 Z M 25.113281 15.578125 " fill-opacity="1" fill-rule="nonzero"/><path fill="#014d4e" d="M 25.160156 15.578125 C 25.175781 15.710938 25.140625 15.871094 25.125 16.007812 C 25.09375 16.285156 25.335938 16.578125 25.222656 16.820312 C 25.167969 16.945312 25.003906 17.050781 24.902344 17.121094 C 24.785156 17.199219 24.707031 17.3125 24.636719 17.101562 C 24.613281 17.03125 24.660156 16.925781 24.652344 16.859375 C 24.636719 16.730469 24.523438 16.613281 24.503906 16.488281 C 24.476562 16.300781 24.648438 16.253906 24.75 16.148438 C 24.769531 16.125 24.789062 16.097656 24.804688 16.066406 C 24.808594 16.054688 24.804688 16.046875 24.796875 16.054688 C 24.902344 15.894531 25.007812 15.738281 25.109375 15.578125 Z M 25.160156 15.578125 " fill-opacity="1" fill-rule="nonzero"/><g clip-path="url(#189b0cd594)"><path fill="#014d4e" d="M 12.988281 18.589844 C 12.933594 18.679688 12.890625 18.757812 12.878906 18.785156 C 12.824219 18.894531 12.714844 18.980469 12.679688 19.105469 C 12.644531 19.25 12.679688 19.429688 12.695312 19.570312 C 12.722656 19.855469 12.734375 20.074219 12.808594 20.339844 C 12.980469 20.339844 13.25 20.347656 13.265625 20.574219 C 13.28125 20.839844 12.980469 20.695312 12.898438 20.863281 C 12.839844 20.988281 13.070312 21.226562 13.125 21.339844 C 13.207031 21.519531 13.222656 21.78125 13.339844 21.941406 C 13.472656 22.113281 13.605469 22.191406 13.707031 22.398438 C 13.820312 22.640625 13.867188 22.785156 14.128906 22.875 C 14.359375 22.953125 14.605469 23.019531 14.839844 23.101562 C 15.140625 23.199219 15.390625 23.320312 15.679688 23.429688 C 15.914062 23.519531 16.066406 23.6875 16.328125 23.675781 C 16.652344 23.660156 16.753906 23.640625 17.058594 23.792969 C 17.40625 23.96875 17.925781 24.207031 18.273438 23.941406 C 18.898438 23.460938 18.132812 22.816406 17.90625 22.378906 C 17.566406 21.726562 17.191406 21.140625 16.628906 20.679688 C 16.351562 20.453125 16.082031 20.292969 15.765625 20.136719 C 15.382812 19.949219 15.089844 19.71875 14.765625 19.4375 C 14.472656 19.179688 14.226562 18.929688 13.847656 18.792969 C 13.585938 18.710938 13.277344 18.542969 12.988281 18.589844 Z M 5.195312 15.578125 C 5.195312 15.566406 5.191406 15.5625 5.1875 15.558594 C 5.1875 15.566406 5.191406 15.570312 5.195312 15.578125 Z M 23.839844 18.535156 C 23.839844 18.527344 23.835938 18.519531 23.835938 18.507812 C 24.058594 18.59375 24.359375 19.082031 24.058594 19.28125 C 23.957031 19.347656 23.890625 19.242188 23.8125 19.28125 C 23.675781 19.339844 23.75 19.453125 23.695312 19.550781 C 23.636719 19.667969 23.308594 19.792969 23.5625 19.984375 C 23.851562 20.199219 23.8125 19.695312 23.980469 19.648438 C 24.289062 19.558594 24.070312 20.066406 24.070312 20.148438 C 24.070312 20.289062 24.121094 20.238281 24.195312 20.347656 C 24.261719 20.445312 24.277344 20.542969 24.316406 20.660156 C 24.371094 20.839844 24.492188 21.128906 24.34375 21.304688 C 24.203125 21.472656 23.941406 21.453125 23.792969 21.566406 C 23.5625 21.742188 23.816406 21.96875 23.699219 22.171875 C 23.640625 22.285156 23.503906 22.316406 23.445312 22.4375 C 23.390625 22.550781 23.386719 22.78125 23.410156 22.890625 C 23.492188 23.230469 23.699219 23.445312 23.714844 23.828125 C 23.726562 24.101562 23.851562 24.292969 23.941406 24.554688 C 24.082031 24.964844 24.289062 24.578125 24.472656 24.792969 C 24.5625 24.898438 24.457031 25.03125 24.421875 25.136719 C 24.398438 25.226562 24.398438 25.492188 24.328125 25.550781 C 24.167969 25.679688 23.960938 25.402344 23.75 25.519531 C 23.539062 25.640625 23.429688 25.925781 23.121094 25.933594 C 22.792969 25.9375 22.679688 25.566406 22.335938 25.609375 C 22.164062 25.636719 22 25.679688 21.816406 25.625 C 21.640625 25.574219 21.632812 25.515625 21.582031 25.324219 C 21.546875 25.195312 21.546875 25.035156 21.429688 24.929688 C 21.316406 24.824219 21.121094 24.835938 21.003906 24.757812 C 20.875 24.679688 20.828125 24.535156 20.664062 24.476562 C 20.503906 24.640625 20.574219 24.703125 20.359375 24.605469 C 20.164062 24.507812 19.976562 24.363281 19.765625 24.273438 C 19.660156 24.226562 19.625 24.191406 19.503906 24.1875 C 19.410156 24.183594 19.425781 24.273438 19.320312 24.222656 C 19.296875 24.210938 19.265625 24.179688 19.238281 24.132812 C 19.007812 24.433594 18.46875 24.738281 18.289062 24.765625 C 18.074219 24.792969 17.871094 24.679688 17.660156 24.660156 C 17.445312 24.632812 17.296875 24.675781 17.101562 24.574219 C 16.710938 24.375 16.359375 24.1875 15.949219 24.085938 C 15.765625 24.042969 15.589844 24.066406 15.410156 23.980469 C 15.246094 23.902344 15.117188 23.765625 14.945312 23.675781 C 14.878906 23.640625 14.785156 23.550781 14.710938 23.546875 C 14.613281 23.542969 14.585938 23.625 14.492188 23.636719 C 14.382812 23.652344 14.292969 23.566406 14.191406 23.570312 C 14.121094 23.578125 14.042969 23.636719 13.976562 23.640625 C 13.984375 23.816406 14.042969 24.164062 13.753906 24.109375 C 13.648438 24.085938 13.4375 23.835938 13.351562 23.742188 C 13.199219 23.570312 13.136719 23.402344 12.941406 23.269531 C 12.757812 23.148438 12.570312 23.089844 12.4375 22.917969 C 12.324219 22.765625 12.25 22.570312 12.097656 22.445312 C 11.960938 22.332031 11.789062 22.296875 11.640625 22.222656 C 11.304688 22.042969 11.207031 21.636719 10.886719 21.40625 C 10.632812 21.226562 10.367188 20.929688 10.117188 20.816406 C 10.082031 20.738281 10.046875 20.660156 10.019531 20.578125 C 9.859375 20.5 9.613281 20.21875 9.5 20.121094 C 9.25 19.890625 9.011719 19.675781 8.832031 19.386719 C 8.539062 18.90625 8.496094 18.332031 8.003906 17.996094 C 7.808594 17.863281 7.722656 17.726562 7.546875 17.566406 C 7.367188 17.402344 7.144531 17.355469 6.929688 17.25 C 6.765625 17.164062 6.5 17.070312 6.371094 16.933594 C 6.1875 16.75 6.179688 16.539062 5.957031 16.378906 C 5.601562 16.113281 5.375 15.972656 5.167969 15.59375 C 5.167969 15.597656 5.167969 15.597656 5.167969 15.601562 C 5.125 15.515625 5.089844 15.433594 5.054688 15.347656 C 4.957031 15.242188 4.859375 15.136719 4.765625 15.03125 C 4.777344 15.035156 4.785156 15.046875 4.789062 15.054688 C 4.601562 14.84375 4.53125 14.746094 4.285156 14.648438 C 4.144531 14.59375 4.054688 14.503906 3.914062 14.433594 C 3.789062 14.371094 3.550781 14.394531 3.480469 14.230469 C 3.386719 14.011719 3.722656 13.4375 3.945312 13.398438 C 4.371094 13.316406 4.246094 13.921875 4.410156 14.074219 C 4.46875 14.128906 4.601562 14.128906 4.671875 14.167969 C 4.761719 14.21875 4.785156 14.289062 4.867188 14.34375 C 5.011719 14.453125 5.277344 14.515625 5.363281 14.300781 C 5.203125 14.21875 4.875 14.054688 5.160156 13.894531 C 5.316406 13.808594 5.664062 13.847656 5.832031 13.789062 C 5.929688 13.757812 5.984375 13.667969 6.113281 13.71875 C 6.21875 13.757812 6.253906 13.878906 6.355469 13.929688 C 6.554688 14.023438 6.695312 13.808594 6.890625 13.792969 C 6.9375 13.789062 6.984375 13.871094 7.019531 13.867188 C 7.101562 13.859375 7.082031 13.773438 7.140625 13.738281 C 7.242188 13.683594 7.332031 13.675781 7.375 13.566406 C 7.421875 13.460938 7.351562 13.332031 7.386719 13.222656 C 7.421875 13.105469 7.507812 13.0625 7.546875 12.949219 C 7.628906 12.730469 7.480469 12.378906 7.742188 12.234375 C 8.058594 12.058594 8.078125 12.609375 8.4375 12.417969 C 8.644531 12.308594 8.648438 12.199219 8.570312 11.988281 C 8.507812 11.839844 8.480469 11.746094 8.484375 11.558594 C 8.484375 11.351562 8.390625 10.980469 8.496094 10.777344 C 8.46875 10.640625 8.4375 10.503906 8.402344 10.371094 C 8.402344 10.378906 8.402344 10.390625 8.410156 10.398438 C 8.300781 10.230469 8.234375 9.71875 8.515625 9.632812 C 8.679688 9.582031 8.867188 9.8125 9.039062 9.796875 C 9.246094 9.777344 9.246094 9.601562 9.476562 9.621094 C 9.636719 9.632812 9.800781 9.753906 9.96875 9.734375 C 10.058594 9.722656 10.082031 9.621094 10.203125 9.648438 C 10.304688 9.667969 10.355469 9.777344 10.433594 9.824219 C 10.929688 10.097656 10.628906 9.3125 10.726562 9.175781 C 10.804688 9.0625 10.925781 9.085938 11.027344 9.035156 C 11.152344 8.972656 11.152344 8.925781 11.242188 8.804688 C 11.371094 8.636719 11.5 8.539062 11.707031 8.5 C 11.746094 8.371094 11.835938 8.1875 11.988281 8.183594 C 12.203125 8.175781 12.207031 8.445312 12.269531 8.601562 C 12.34375 8.789062 12.355469 8.761719 12.519531 8.855469 C 12.675781 8.945312 12.734375 9.066406 12.839844 9.175781 C 12.988281 8.910156 13.125 9.230469 13.164062 9.378906 C 13.324219 9.367188 13.460938 9.382812 13.589844 9.421875 C 13.621094 9.296875 13.65625 9.160156 13.683594 9.089844 C 13.695312 8.816406 13.800781 8.546875 14.101562 8.535156 C 14.316406 8.53125 14.34375 8.585938 14.5 8.414062 C 14.570312 8.335938 14.578125 8.285156 14.679688 8.230469 C 14.757812 8.1875 14.859375 8.210938 14.929688 8.160156 C 15.179688 8 15.351562 7.558594 15.484375 7.308594 C 15.691406 6.929688 15.972656 7.035156 16.324219 6.972656 C 16.613281 6.917969 16.507812 6.785156 16.445312 6.566406 C 16.421875 6.496094 16.386719 6.398438 16.410156 6.320312 C 16.4375 6.164062 16.453125 6.21875 16.558594 6.132812 C 16.773438 5.964844 16.660156 5.964844 16.695312 5.707031 C 16.703125 5.632812 16.75 5.539062 16.8125 5.484375 C 16.898438 5.40625 16.96875 5.460938 17.035156 5.425781 C 17.195312 5.332031 17.160156 5.15625 17.214844 4.976562 C 17.296875 4.710938 17.4375 4.734375 17.652344 4.609375 C 17.847656 4.496094 17.933594 4.339844 18.167969 4.296875 C 18.375 4.253906 18.546875 4.183594 18.679688 4.378906 C 18.789062 4.546875 18.777344 4.726562 19.019531 4.785156 C 19.300781 4.855469 19.40625 4.796875 19.660156 4.980469 C 19.820312 5.097656 20.050781 5.175781 20.257812 5.171875 C 20.335938 5.167969 20.394531 5.140625 20.457031 5.128906 C 20.554688 5.011719 20.652344 4.902344 20.753906 4.792969 C 20.785156 4.835938 20.917969 4.828125 21.003906 4.8125 C 21.175781 4.78125 21.125 4.769531 21.21875 4.675781 C 21.386719 4.5 21.550781 4.484375 21.792969 4.574219 C 21.902344 4.492188 21.988281 4.324219 22.148438 4.34375 C 22.699219 4.480469 23.097656 4.339844 23.601562 4.097656 C 23.851562 3.980469 24.046875 3.902344 24.316406 3.828125 C 24.578125 3.757812 24.757812 3.683594 24.917969 3.46875 C 24.964844 3.40625 24.972656 3.316406 25.042969 3.277344 C 25.148438 3.222656 25.15625 3.292969 25.253906 3.277344 C 25.394531 3.261719 25.460938 3.246094 25.53125 3.09375 C 25.710938 3.101562 25.875 3.222656 26.0625 3.253906 C 26.261719 3.277344 26.460938 3.121094 26.613281 3.28125 C 26.539062 3.566406 26.382812 3.847656 26.167969 4.039062 C 26.066406 3.902344 26.238281 3.609375 25.953125 3.6875 C 25.804688 3.730469 25.671875 3.964844 25.625 4.089844 C 25.574219 4.234375 25.570312 4.464844 25.730469 4.546875 C 25.945312 4.652344 25.960938 4.414062 26.035156 4.695312 C 26.0625 4.785156 26.035156 4.894531 26.0625 4.988281 C 26.089844 5.082031 26.175781 5.175781 26.210938 5.265625 C 26.3125 5.527344 26.28125 5.789062 26.335938 6.058594 C 26.390625 6.308594 26.53125 6.476562 26.554688 6.742188 C 26.574219 7.03125 26.519531 7.28125 26.363281 7.53125 C 26.171875 7.832031 25.929688 8.089844 25.699219 8.359375 C 25.671875 8.394531 25.585938 8.484375 25.5 8.582031 C 25.46875 8.652344 25.441406 8.71875 25.410156 8.789062 C 25.355469 9.042969 25.28125 9.417969 25.210938 9.71875 C 25.121094 10.113281 24.929688 10.53125 24.882812 10.929688 C 24.859375 11.160156 24.925781 11.355469 24.957031 11.578125 C 24.992188 11.789062 24.957031 12.007812 24.949219 12.21875 C 24.9375 12.445312 24.859375 12.628906 24.8125 12.84375 C 24.773438 13.046875 24.855469 13.203125 24.878906 13.40625 C 24.894531 13.515625 24.863281 13.640625 24.882812 13.746094 C 24.902344 13.863281 24.957031 13.914062 24.988281 14.035156 C 25.042969 14.25 24.949219 14.488281 25.019531 14.703125 C 25.058594 14.824219 25.230469 15.070312 24.964844 15.109375 C 24.769531 15.140625 24.6875 14.820312 24.511719 14.796875 C 24.242188 14.753906 24.421875 15.089844 24.488281 15.210938 C 24.601562 15.425781 24.5625 15.542969 24.457031 15.773438 C 24.34375 16.027344 24.230469 16.0625 23.980469 16.183594 C 23.894531 16.222656 23.761719 16.273438 23.707031 16.34375 C 23.582031 16.5 23.664062 16.472656 23.757812 16.578125 C 23.957031 16.804688 23.890625 16.832031 23.875 17.136719 C 23.855469 17.460938 24.171875 17.242188 24.28125 17.480469 C 24.347656 17.632812 24.21875 17.902344 24.195312 18.058594 C 24.175781 18.1875 24.195312 18.359375 24.027344 18.363281 C 23.9375 18.363281 23.855469 18.242188 23.75 18.242188 C 23.742188 18.242188 23.734375 18.242188 23.726562 18.242188 C 23.746094 18.328125 23.765625 18.410156 23.785156 18.492188 C 23.792969 18.507812 23.792969 18.523438 23.796875 18.535156 C 23.835938 18.519531 23.835938 18.527344 23.839844 18.535156 Z M 11.625 17.691406 C 11.761719 17.535156 11.992188 17.339844 11.617188 17.3125 C 11.507812 17.300781 11.386719 17.339844 11.265625 17.332031 C 11.195312 17.328125 11.144531 17.304688 11.085938 17.3125 C 11.003906 17.085938 10.894531 16.769531 10.804688 16.691406 C 10.660156 16.570312 10.496094 16.496094 10.3125 16.558594 C 10.152344 16.613281 10.066406 16.804688 9.898438 16.859375 C 9.800781 16.894531 9.71875 16.859375 9.617188 16.894531 C 9.496094 16.941406 9.4375 17.082031 9.300781 16.960938 C 9.332031 16.726562 9.074219 16.746094 9 16.914062 C 8.925781 17.082031 9.140625 17.269531 9.257812 17.367188 C 9.398438 17.488281 9.566406 17.566406 9.71875 17.671875 C 10.007812 17.871094 9.9375 17.648438 10.195312 17.546875 C 10.296875 17.507812 10.472656 17.550781 10.527344 17.648438 C 10.589844 17.742188 10.503906 17.824219 10.5 17.902344 C 10.496094 18.011719 10.433594 17.957031 10.515625 18.074219 C 10.550781 18.125 10.703125 18.1875 10.765625 18.179688 C 10.886719 18.160156 10.875 18.019531 10.964844 17.992188 C 11.054688 17.96875 11.121094 18.066406 11.199219 18.066406 C 11.472656 18.078125 11.496094 17.84375 11.625 17.691406 Z M 11.625 17.691406 " fill-opacity="1" fill-rule="nonzero"/></g></svg>