<svg xmlns="http://www.w3.org/2000/svg" xmlns:xlink="http://www.w3.org/1999/xlink" width="40" zoomAndPan="magnify" viewBox="0 0 30 30.000001" height="40" preserveAspectRatio="xMidYMid meet" version="1.0"><defs><clipPath id="7cb021c2d1"><path d="M 4.808594 2.902344 L 25 2.902344 L 25 26 L 4.808594 26 Z M 4.808594 2.902344 " clip-rule="nonzero"/></clipPath></defs><g clip-path="url(#7cb021c2d1)"><path fill="#014d4e" d="M 4.90625 20.765625 C 5.085938 21.316406 4.816406 21.921875 5.714844 21.835938 C 5.710938 21.542969 5.671875 21.546875 5.917969 21.386719 C 6.179688 21.296875 6.730469 21.609375 7.128906 21.722656 C 7.011719 22.523438 7.707031 21.734375 7.605469 22.199219 C 7.792969 22.273438 7.789062 21.875 7.886719 22.144531 C 8.398438 21.730469 9.054688 21.605469 9.40625 20.933594 C 9.566406 20.84375 10.496094 20.921875 10.476562 20.710938 C 9.921875 20.261719 10.300781 19.902344 10.984375 19.839844 C 11.148438 19.953125 10.722656 20.53125 11.207031 20.230469 C 11.753906 20.523438 11.683594 19.929688 12.164062 19.667969 C 12.300781 19.617188 12.496094 19.789062 12.585938 19.867188 C 12.703125 20.261719 12.316406 19.921875 12.53125 20.34375 C 12.324219 20.3125 12.132812 20.136719 12.304688 20.484375 C 12.90625 20.28125 12.984375 20.785156 13.429688 20.175781 C 13.453125 20.039062 13.464844 19.816406 13.625 19.78125 C 13.59375 20.179688 13.925781 19.648438 13.9375 20.289062 C 13.546875 20.710938 14.183594 20.726562 14.058594 21.253906 C 14.179688 21.28125 14.351562 21.261719 14.441406 21.160156 C 15.089844 21.410156 14.078125 21.695312 15.175781 21.667969 C 15.078125 21.410156 15.492188 21.6875 15.566406 21.667969 C 15.675781 21.570312 15.976562 21.289062 16.128906 21.386719 C 16.246094 21.527344 16.339844 21.839844 16.300781 22.023438 C 16.4375 22.089844 16.859375 22.105469 16.832031 22.3125 C 17.097656 22.335938 17.464844 22.183594 17.453125 22.59375 C 17.65625 22.46875 17.746094 22.476562 17.875 22.679688 C 17.875 22.679688 17.621094 22.875 17.621094 22.875 C 17.890625 23.285156 17.460938 22.863281 17.59375 23.355469 C 17.433594 23.25 17.398438 23.457031 17.339844 23.550781 C 17.636719 23.683594 17.269531 24.039062 17.144531 24.171875 C 17.640625 24.097656 16.996094 25.015625 16.75 24.902344 C 16.765625 25.695312 17.128906 25.058594 17.003906 25.914062 C 17.238281 25.671875 17.199219 26.035156 17.394531 25.632812 C 17.648438 26.054688 17.796875 25.644531 17.800781 25.914062 C 17.96875 25.722656 18.007812 25.742188 18.167969 25.914062 C 18.332031 25.710938 18.800781 26.128906 18.730469 25.746094 C 18.71875 25.746094 18.464844 25.546875 18.464844 25.546875 C 18.59375 25.234375 18.765625 25.796875 18.746094 24.957031 C 18.917969 25.046875 19.011719 25.242188 19.113281 24.902344 C 18.925781 24.757812 19.085938 24.625 19.140625 24.480469 C 18.808594 24.515625 18.515625 24.324219 18.71875 23.972656 C 18.234375 24.085938 18.523438 23.878906 18.101562 24.085938 C 18.230469 23.777344 17.632812 23.445312 18.15625 23.296875 C 18.15625 23.296875 18.296875 23.578125 18.324219 23.578125 C 18.390625 23.066406 19.804688 22.648438 19.335938 22.398438 C 19.40625 22.316406 19.65625 22.414062 19.449219 22.230469 C 18.855469 22.691406 19.03125 22.199219 19 21.808594 C 19.277344 21.328125 19.847656 21.082031 19.789062 20.519531 C 19.734375 20.105469 19.75 19.167969 19.082031 18.796875 C 19.273438 18.355469 19.230469 18.390625 18.804688 18.261719 C 18.695312 17.664062 18.988281 17.941406 18.324219 17.617188 C 18.960938 17.472656 17.988281 16.984375 18.492188 16.855469 C 18.5625 17.070312 18.867188 16.675781 18.945312 16.632812 C 19.0625 16.738281 19.566406 16.988281 19.476562 16.660156 C 19.390625 16.535156 19.289062 16.382812 19.117188 16.433594 C 19.117188 16.433594 19.449219 16.292969 19.449219 16.292969 C 19.765625 16.570312 19.535156 16.660156 20.070312 16.546875 C 20.117188 16.742188 20.289062 16.769531 20.460938 16.742188 C 20.386719 16.902344 20.664062 16.902344 20.742188 16.941406 C 20.765625 16.8125 20.773438 16.660156 20.601562 16.632812 C 20.613281 16.359375 20.824219 16.734375 20.941406 16.632812 C 21.324219 16.890625 21.980469 15.828125 22.347656 16.378906 C 24.058594 15.097656 21.277344 15.347656 22.515625 14.773438 C 22.460938 14.335938 22.773438 14.488281 23.0625 14.464844 C 23.0625 14.464844 23.332031 14.015625 23.332031 14.015625 C 23.570312 14.085938 23.683594 13.722656 23.753906 13.566406 C 23.871094 13.589844 24.117188 13.558594 24.175781 13.425781 C 23.691406 13.082031 24.316406 12.515625 24.121094 12.074219 C 23.964844 12.179688 23.765625 11.558594 23.726562 11.511719 C 23.519531 11.859375 23.410156 11.777344 23.078125 11.679688 C 23.101562 11.441406 22.648438 11.714844 22.261719 11.34375 C 22.304688 11.136719 21.996094 10.710938 22.359375 10.808594 C 22.277344 10.640625 22.589844 10.707031 22.640625 10.695312 C 22.121094 10.472656 22.550781 10.328125 22.292969 10.105469 C 22.851562 9.8125 23.492188 9.964844 24.035156 10.105469 C 24.257812 8.921875 24.046875 8.371094 24.824219 7.234375 C 25.183594 6.746094 24.453125 5.621094 24.992188 5.40625 C 24.867188 5.363281 24.914062 4.914062 24.90625 4.816406 C 24.546875 4.894531 24.027344 4.6875 24.289062 4.28125 C 24.289062 4.28125 24.457031 4.253906 24.457031 4.253906 C 23.761719 4.179688 23.496094 3.777344 23.417969 3.070312 C 23.285156 3.222656 22.925781 2.953125 22.824219 2.902344 C 22.042969 2.960938 21.003906 3.15625 20.238281 3.492188 C 19.683594 3.160156 18.894531 3.492188 18.269531 3.492188 C 17.003906 3.851562 15.378906 4.824219 15.398438 6.308594 C 15.171875 6.210938 15.5625 6.722656 15.539062 6.757812 C 15.398438 7.039062 15.585938 7.386719 15.511719 7.6875 C 14.765625 8.105469 15.898438 8.21875 16.1875 8.359375 C 16.570312 8.332031 16.738281 7.992188 17.113281 8.359375 C 16.542969 8.382812 16.351562 9.503906 16.582031 9.878906 C 16.902344 10.472656 15.621094 10.582031 15.679688 11.144531 C 15.265625 11.554688 13.886719 11.929688 14.132812 12.609375 C 13.941406 12.667969 13.574219 12.679688 13.484375 12.441406 C 13.398438 12.683594 13.164062 12.476562 13.289062 12.300781 C 13.554688 12.320312 13.757812 11.972656 13.710938 11.707031 C 13.949219 11.238281 13.820312 11.117188 13.625 10.554688 C 13.558594 10.390625 13.503906 10.125 13.710938 10.019531 C 14.332031 10.042969 13.894531 10.476562 14.667969 9.90625 C 14.699219 9.832031 14.730469 9.632812 14.863281 9.683594 C 15.160156 9.429688 14.863281 8.941406 14.5 9.035156 C 14.023438 9.441406 13.949219 8.566406 14.050781 8.277344 C 13.691406 7.429688 13.554688 7.3125 12.78125 7.910156 C 12.308594 7.996094 12.300781 6.816406 11.9375 7.375 C 11.457031 10.363281 11.046875 13.671875 8.5625 15.730469 C 8.203125 15.398438 7.78125 15.753906 8.113281 16.152344 C 8.902344 16.296875 8.117188 16.183594 8.535156 16.742188 C 8.195312 17.167969 8.613281 16.496094 7.832031 16.855469 C 7.613281 16.953125 7.425781 17.011719 7.496094 17.335938 C 7.246094 17.945312 6.539062 17.40625 6.566406 18.148438 C 6.839844 18.539062 7.503906 17.613281 7.605469 18.628906 C 8.109375 18.523438 7.808594 18.792969 8.253906 18.742188 C 8.425781 18.964844 7.820312 19.03125 8.339844 19.136719 C 8.699219 19.710938 9.003906 19.292969 9.183594 19.726562 C 9.378906 19.765625 9.339844 20.054688 9.351562 20.203125 C 9.058594 19.988281 9.023438 20.476562 8.703125 20.121094 C 8.433594 19.433594 7.8125 19.582031 7.496094 18.882812 C 6.75 18.859375 5.683594 18.765625 5.242188 19.472656 C 5.660156 19.773438 5.945312 20.53125 6.511719 20.007812 C 6.699219 20.28125 6.957031 20.480469 7.242188 20.652344 C 8.003906 20.652344 7.546875 20.210938 8.058594 20.007812 C 8.828125 20.804688 8.882812 20.34375 9.492188 20.683594 C 9.039062 20.722656 8.53125 21.105469 8.28125 20.511719 C 7.785156 20.46875 8.21875 20.75 7.464844 21.074219 C 6.59375 20.964844 5.746094 20.128906 4.90625 20.765625 " fill-opacity="1" fill-rule="nonzero"/></g></svg>