<svg xmlns="http://www.w3.org/2000/svg" xmlns:xlink="http://www.w3.org/1999/xlink" width="40" zoomAndPan="magnify" viewBox="0 0 30 30.000001" height="40" preserveAspectRatio="xMidYMid meet" version="1.0"><defs><clipPath id="e807e312dd"><path d="M 5.621094 2.902344 L 24.492188 2.902344 L 24.492188 26.128906 L 5.621094 26.128906 Z M 5.621094 2.902344 " clip-rule="nonzero"/></clipPath><clipPath id="32e5d380d8"><path d="M 20 2.902344 L 21 2.902344 L 21 4 L 20 4 Z M 20 2.902344 " clip-rule="nonzero"/></clipPath></defs><g clip-path="url(#e807e312dd)"><path fill="#014d4e" d="M 23.171875 4.671875 C 23.171875 4.671875 22.875 4.574219 23.113281 4.542969 C 23.355469 4.507812 23.640625 4.617188 23.808594 4.367188 C 23.976562 4.117188 24.089844 3.894531 23.945312 3.773438 C 23.800781 3.652344 23.613281 3.6875 23.515625 3.5 C 23.417969 3.3125 23.042969 3.578125 23.019531 3.476562 C 23 3.375 22.855469 3.105469 22.742188 3.203125 C 22.632812 3.304688 22.511719 3.644531 22.492188 3.761719 C 22.472656 3.875 22.351562 4.007812 22.3125 3.789062 C 22.273438 3.570312 22.085938 3.5 22.171875 3.445312 C 22.261719 3.394531 22.511719 3.183594 22.332031 3.050781 C 22.152344 2.914062 21.953125 2.941406 21.859375 3.050781 C 21.769531 3.160156 21.773438 3.199219 21.800781 3.414062 C 21.832031 3.625 21.53125 4.246094 21.457031 4.089844 C 21.425781 4.015625 21.488281 3.4375 21.441406 3.359375 C 21.390625 3.28125 21.277344 3.214844 21.226562 3.433594 C 21.179688 3.648438 20.746094 4.402344 20.71875 4.601562 C 20.695312 4.796875 20.566406 5.082031 20.582031 4.835938 C 20.59375 4.589844 20.710938 4.382812 20.628906 4.238281 C 20.546875 4.09375 20.664062 4.226562 20.738281 3.945312 C 20.816406 3.664062 20.949219 3.558594 20.816406 3.484375 C 20.6875 3.414062 20.746094 3.75 20.417969 3.566406 C 20.089844 3.382812 20.125 3.480469 20.105469 3.757812 C 20.085938 4.035156 19.925781 4.292969 19.761719 4.523438 C 19.59375 4.75 19.707031 5.007812 19.636719 5.050781 C 19.566406 5.09375 19.152344 4.875 18.929688 4.917969 C 18.707031 4.964844 18.3125 4.875 18.402344 5.027344 C 18.492188 5.179688 18.648438 5.125 18.703125 5.261719 C 18.757812 5.402344 18.902344 5.863281 18.703125 5.628906 C 18.503906 5.390625 18.359375 5.304688 18.246094 5.507812 C 18.128906 5.710938 17.960938 5.714844 17.921875 5.867188 C 17.882812 6.023438 17.78125 5.859375 17.789062 5.75 C 17.800781 5.636719 17.652344 5.59375 17.59375 5.667969 C 17.535156 5.738281 17.582031 5.894531 17.449219 5.898438 C 17.3125 5.902344 17.183594 5.679688 17.144531 5.75 C 17.105469 5.816406 16.808594 6.042969 16.910156 6.179688 C 17.007812 6.316406 17.246094 6.644531 17.070312 6.523438 C 16.894531 6.40625 16.65625 6.046875 16.753906 6.738281 C 16.753906 6.738281 16.699219 6.867188 16.492188 6.488281 C 16.492188 6.488281 16.410156 6.410156 16.40625 6.902344 C 16.402344 7.394531 16.21875 7.046875 16.160156 7.292969 C 16.101562 7.539062 16.320312 7.660156 16.238281 7.730469 C 16.15625 7.804688 15.492188 7.730469 15.445312 7.992188 C 15.398438 8.253906 15.308594 8.066406 15.507812 8.191406 C 15.707031 8.316406 15.996094 8.355469 15.984375 8.433594 C 15.976562 8.507812 15.816406 8.578125 15.644531 8.496094 C 15.46875 8.414062 15.296875 8.410156 15.257812 8.683594 C 15.21875 8.957031 15.183594 8.976562 15.121094 8.914062 C 15.054688 8.851562 14.683594 8.796875 14.714844 8.90625 C 14.746094 9.015625 14.867188 8.964844 14.914062 9.09375 C 14.960938 9.222656 14.25 9.257812 14.300781 9.445312 C 14.351562 9.632812 14.621094 9.394531 14.714844 9.445312 C 14.8125 9.496094 14.820312 9.523438 14.742188 9.582031 C 14.664062 9.644531 14.511719 9.667969 14.578125 9.773438 C 14.644531 9.878906 14.871094 10.035156 14.835938 10.113281 C 14.800781 10.195312 14.753906 10.019531 14.550781 9.945312 C 14.347656 9.875 14.339844 9.925781 14.296875 10.015625 C 14.25 10.105469 14.042969 10.230469 14.066406 10.414062 C 14.085938 10.597656 13.828125 10.84375 13.832031 10.886719 C 13.839844 10.933594 13.441406 10.753906 13.433594 10.886719 C 13.421875 11.019531 13.527344 11.242188 13.398438 11.324219 C 13.269531 11.40625 13.070312 11.472656 13.101562 11.683594 C 13.128906 11.898438 12.980469 12.09375 12.960938 12.207031 C 12.941406 12.316406 12.808594 12.71875 12.679688 12.921875 C 12.550781 13.121094 12.414062 13.785156 12.433594 13.925781 C 12.453125 14.0625 11.824219 14.015625 11.824219 14.253906 C 11.824219 14.488281 11.550781 14.417969 11.652344 14.5625 C 11.753906 14.707031 11.964844 14.550781 11.898438 14.652344 C 11.832031 14.753906 10.582031 15.429688 10.550781 15.75 C 10.523438 16.066406 10.511719 15.902344 10.367188 16.105469 C 10.222656 16.308594 9.992188 16.472656 10.222656 16.570312 C 10.453125 16.664062 10.648438 16.355469 10.945312 16.25 C 11.246094 16.144531 11.324219 15.777344 11.410156 16.019531 C 11.496094 16.261719 11.738281 16.414062 11.449219 16.511719 C 11.160156 16.609375 10.765625 16.539062 10.609375 16.683594 C 10.453125 16.828125 10.257812 16.867188 10.125 16.808594 C 9.992188 16.753906 9.789062 16.898438 9.691406 16.898438 C 9.597656 16.898438 9.191406 17.050781 9.085938 17.332031 C 8.976562 17.613281 8.191406 17.144531 8.101562 17.519531 C 8.011719 17.890625 8.261719 17.910156 8.199219 18.015625 C 8.136719 18.117188 7.921875 17.917969 7.8125 17.917969 C 7.703125 17.917969 7.582031 17.949219 7.324219 18.414062 C 7.066406 18.875 6.796875 18.417969 6.636719 18.691406 C 6.476562 18.960938 6.628906 18.984375 6.527344 19.0625 C 6.421875 19.140625 6.125 19.140625 6.042969 19.136719 C 5.984375 19.132812 6.15625 19.347656 6.171875 19.496094 C 6.171875 19.496094 6.179688 19.769531 6.320312 19.929688 C 6.460938 20.09375 6.554688 20.085938 6.363281 20.117188 C 6.167969 20.148438 5.933594 20.214844 6.070312 20.328125 C 6.203125 20.441406 6.382812 20.515625 6.308594 20.566406 C 6.230469 20.613281 5.730469 20.488281 5.808594 20.699219 C 5.890625 20.90625 6.128906 20.917969 6.074219 21.042969 C 6.019531 21.171875 5.878906 21.289062 5.871094 21.394531 C 5.859375 21.5 5.71875 21.84375 5.894531 22.015625 C 5.996094 22.113281 6.363281 22.359375 6.589844 22.0625 C 6.589844 22.0625 6.613281 21.847656 6.886719 21.785156 C 7.160156 21.722656 7.40625 21.621094 7.40625 21.683594 C 7.40625 21.75 7.316406 21.726562 7.265625 21.792969 C 7.21875 21.855469 7.097656 21.980469 7.042969 22.140625 C 6.984375 22.296875 6.996094 21.960938 6.929688 21.96875 C 6.859375 21.972656 6.695312 22.019531 6.601562 22.234375 C 6.507812 22.449219 6.210938 22.5 6.320312 22.667969 C 6.429688 22.839844 6.652344 22.6875 6.53125 22.792969 C 6.40625 22.894531 6.28125 22.996094 6.136719 22.988281 C 5.992188 22.980469 5.71875 22.960938 5.691406 23.199219 C 5.660156 23.4375 5.835938 23.574219 6.066406 23.511719 C 6.292969 23.453125 6.160156 23.257812 6.242188 23.207031 C 6.328125 23.15625 6.492188 23.078125 6.546875 23.191406 C 6.601562 23.304688 6.675781 23.324219 6.597656 23.417969 C 6.515625 23.515625 6.25 23.578125 6.21875 23.765625 C 6.183594 23.953125 6.226562 23.957031 6.203125 24.082031 C 6.179688 24.210938 5.980469 24.199219 5.898438 24.222656 C 5.816406 24.246094 5.628906 24.3125 5.6875 24.484375 C 5.746094 24.660156 5.902344 25.148438 6.316406 25.378906 C 6.730469 25.609375 6.585938 25.605469 6.574219 25.667969 C 6.5625 25.734375 6.628906 25.777344 6.679688 25.746094 C 6.679688 25.746094 6.753906 25.6875 6.84375 25.757812 C 6.929688 25.824219 6.902344 25.953125 7.078125 26.003906 C 7.253906 26.054688 7.558594 26.128906 7.753906 25.984375 C 7.953125 25.835938 8.238281 25.824219 8.335938 25.75 C 8.433594 25.675781 8.796875 25.167969 8.996094 25.0625 C 9.191406 24.957031 9.601562 24.636719 9.679688 24.570312 C 9.757812 24.507812 9.996094 24.667969 10.015625 24.542969 C 10.035156 24.417969 10.136719 24.261719 10.214844 24.171875 C 10.289062 24.082031 10.089844 23.882812 10.136719 23.660156 C 10.179688 23.4375 10.398438 23.375 10.410156 23.464844 C 10.417969 23.554688 10.40625 23.597656 10.386719 23.636719 C 10.367188 23.679688 10.347656 23.957031 10.402344 24.074219 C 10.457031 24.195312 10.621094 24.449219 10.84375 24.511719 C 11.066406 24.578125 11.152344 24.578125 11.144531 24.636719 C 11.132812 24.695312 11.085938 24.6875 11.101562 24.796875 C 11.117188 24.902344 11.1875 24.886719 11.199219 24.984375 C 11.214844 25.082031 11.257812 25.042969 11.253906 24.945312 C 11.25 24.847656 11.238281 24.855469 11.261719 24.722656 C 11.289062 24.59375 11.3125 24.519531 11.375 24.40625 C 11.4375 24.289062 11.636719 24.074219 11.503906 23.925781 C 11.367188 23.773438 11.261719 23.75 11.339844 23.667969 C 11.417969 23.585938 11.554688 23.300781 11.59375 23.1875 C 11.632812 23.070312 11.695312 23.257812 11.800781 23.199219 C 11.90625 23.144531 12.210938 23.167969 12.230469 22.796875 C 12.25 22.421875 11.839844 21.261719 12.042969 21.207031 C 12.242188 21.15625 12.546875 21.101562 12.5 20.597656 C 12.449219 20.09375 12.019531 20.371094 12.023438 19.886719 C 12.023438 19.402344 12.296875 19.078125 12.058594 18.652344 C 11.816406 18.230469 12.019531 18.105469 12.039062 17.859375 C 12.058594 17.613281 11.878906 17.5625 11.957031 17.296875 C 12.03125 17.03125 12.457031 15.871094 12.804688 15.921875 C 13.152344 15.976562 13.761719 16.054688 13.710938 15.761719 C 13.664062 15.472656 13.152344 15.21875 13.355469 14.917969 C 13.558594 14.621094 13.917969 14.3125 13.945312 13.855469 C 13.976562 13.394531 13.984375 12.4375 14.160156 12.402344 C 14.339844 12.371094 14.601562 12.328125 14.652344 12.167969 C 14.707031 12.007812 14.667969 11.664062 14.789062 11.492188 C 14.910156 11.316406 15.300781 10.769531 15.394531 10.699219 C 15.488281 10.632812 15.125 10.25 15.152344 10.128906 C 15.179688 10.003906 15.34375 10.015625 15.40625 9.921875 C 15.46875 9.828125 15.636719 9.660156 15.609375 9.519531 C 15.582031 9.378906 15.601562 9.320312 15.722656 9.277344 C 15.839844 9.234375 16.375 8.921875 16.484375 8.582031 C 16.597656 8.242188 16.632812 8.222656 16.8125 8.246094 C 16.8125 8.246094 17.367188 8.21875 17.609375 8.332031 C 17.847656 8.441406 17.917969 8.1875 17.699219 8.054688 C 17.480469 7.925781 18.007812 7.988281 17.886719 7.574219 C 17.765625 7.15625 17.617188 7.082031 17.808594 7.070312 C 18.003906 7.0625 18.414062 7.308594 18.316406 7.03125 C 18.21875 6.757812 18.382812 6.539062 18.648438 6.714844 C 18.914062 6.886719 18.972656 7.050781 19.160156 7.414062 C 19.351562 7.777344 19.476562 7.691406 19.632812 7.707031 C 19.792969 7.722656 19.925781 7.660156 20.019531 7.5 C 20.117188 7.339844 20.140625 7.359375 20.226562 7.429688 C 20.316406 7.496094 20.410156 7.628906 20.507812 7.566406 C 20.605469 7.503906 20.695312 7.683594 20.785156 7.691406 C 20.871094 7.703125 21.019531 7.710938 20.996094 7.5 C 20.972656 7.289062 21.1875 7.054688 21.292969 7.023438 C 21.402344 6.988281 21.183594 6.882812 21.195312 6.71875 C 21.203125 6.554688 21.300781 6.117188 21.207031 5.90625 C 21.117188 5.699219 21.304688 5.863281 21.386719 5.660156 C 21.46875 5.457031 21.46875 5.390625 21.515625 5.289062 C 21.558594 5.183594 21.65625 5.3125 21.84375 5.238281 C 22.027344 5.160156 22.179688 5.089844 22.1875 4.96875 C 22.191406 4.851562 22.167969 4.78125 22.273438 4.898438 C 22.378906 5.015625 22.582031 5.242188 22.847656 5.292969 C 23.117188 5.347656 23.304688 5.390625 23.296875 5.574219 C 23.285156 5.757812 23.316406 5.824219 23.25 5.957031 C 23.183594 6.085938 23.019531 6.214844 23.132812 6.359375 C 23.25 6.507812 23.464844 6.570312 23.464844 6.433594 C 23.464844 6.296875 23.414062 6.164062 23.511719 6.019531 C 23.605469 5.875 23.832031 5.636719 23.820312 5.46875 C 23.804688 5.300781 23.847656 5.175781 24.03125 5.238281 C 24.214844 5.300781 24.371094 5.410156 24.359375 5.265625 C 24.351562 5.121094 24.21875 4.828125 23.988281 4.921875 C 23.757812 5.019531 23.640625 5.09375 23.59375 5.1875 C 23.542969 5.285156 23.351562 5.164062 23.460938 4.980469 C 23.574219 4.796875 23.417969 4.789062 23.171875 4.671875 " fill-opacity="1" fill-rule="nonzero"/></g><path fill="#014d4e" d="M 13.046875 8.957031 C 13.023438 8.820312 13 8.789062 12.984375 8.742188 C 12.96875 8.691406 12.78125 8.753906 12.789062 8.847656 C 12.800781 8.945312 12.773438 9.089844 12.769531 9.125 C 12.761719 9.164062 12.847656 9.234375 12.90625 9.1875 C 12.964844 9.144531 13.074219 9.144531 13.046875 8.957031 " fill-opacity="1" fill-rule="nonzero"/><path fill="#014d4e" d="M 13.171875 8.5625 C 13.214844 8.523438 13.328125 8.378906 13.445312 8.414062 C 13.558594 8.449219 13.648438 8.449219 13.613281 8.507812 C 13.582031 8.570312 13.566406 8.636719 13.503906 8.699219 C 13.4375 8.761719 13.300781 8.855469 13.242188 8.84375 C 13.183594 8.832031 13.117188 8.777344 13.140625 8.722656 C 13.164062 8.671875 13.121094 8.609375 13.171875 8.5625 " fill-opacity="1" fill-rule="nonzero"/><path fill="#014d4e" d="M 13.996094 8.261719 C 13.996094 8.261719 14.140625 8.175781 14.175781 8.214844 C 14.207031 8.253906 14.230469 8.28125 14.195312 8.363281 C 14.160156 8.449219 14.066406 8.507812 14.015625 8.550781 C 13.957031 8.59375 13.863281 8.675781 13.816406 8.664062 C 13.773438 8.652344 13.722656 8.621094 13.738281 8.578125 C 13.757812 8.53125 13.832031 8.457031 13.855469 8.40625 C 13.878906 8.359375 13.945312 8.289062 13.996094 8.261719 " fill-opacity="1" fill-rule="nonzero"/><path fill="#014d4e" d="M 14.027344 7.441406 C 14.058594 7.40625 14.136719 7.351562 14.210938 7.390625 C 14.285156 7.425781 14.359375 7.421875 14.375 7.496094 C 14.394531 7.566406 14.421875 7.628906 14.363281 7.6875 C 14.304688 7.742188 14.136719 7.78125 14.105469 7.824219 C 14.078125 7.863281 13.933594 7.867188 13.898438 7.84375 C 13.863281 7.820312 13.839844 7.757812 13.859375 7.679688 C 13.875 7.597656 13.910156 7.511719 13.953125 7.496094 C 13.996094 7.484375 14.011719 7.460938 14.027344 7.441406 " fill-opacity="1" fill-rule="nonzero"/><path fill="#014d4e" d="M 14.636719 6.988281 C 14.6875 6.925781 14.78125 6.792969 14.867188 6.757812 C 14.957031 6.71875 14.96875 6.710938 14.949219 6.90625 C 14.925781 7.101562 14.777344 7 14.761719 7.246094 C 14.761719 7.246094 14.699219 8.085938 14.824219 7.921875 C 14.945312 7.757812 15.058594 7.65625 15.078125 7.472656 C 15.097656 7.292969 15.132812 7.203125 15.171875 7.277344 C 15.207031 7.355469 15.214844 7.476562 15.203125 7.5625 C 15.1875 7.644531 15.230469 7.773438 15.140625 7.839844 C 15.046875 7.910156 14.855469 8.078125 14.835938 8.1875 C 14.820312 8.296875 14.699219 8.421875 14.625 8.363281 C 14.550781 8.300781 14.628906 8.199219 14.589844 8.179688 C 14.550781 8.160156 14.539062 8.273438 14.464844 8.308594 C 14.394531 8.34375 14.230469 8.304688 14.289062 8.226562 C 14.347656 8.148438 14.203125 8.109375 14.332031 8.015625 C 14.464844 7.921875 14.539062 7.882812 14.507812 7.71875 C 14.476562 7.550781 14.445312 7.367188 14.476562 7.265625 C 14.503906 7.160156 14.589844 7.050781 14.636719 6.988281 " fill-opacity="1" fill-rule="nonzero"/><path fill="#014d4e" d="M 15.691406 6.480469 C 15.726562 6.492188 15.75 6.492188 15.75 6.34375 C 15.75 6.195312 15.945312 6.183594 16.007812 6.203125 C 16.074219 6.222656 16.179688 6.308594 16.167969 6.394531 C 16.160156 6.480469 16.160156 6.53125 16.128906 6.613281 C 16.09375 6.699219 16.074219 6.804688 16.082031 6.863281 C 16.089844 6.917969 16.003906 6.875 15.882812 6.960938 C 15.765625 7.046875 15.765625 7.128906 15.675781 7.132812 C 15.589844 7.136719 15.394531 7.113281 15.445312 6.992188 C 15.496094 6.867188 15.601562 6.808594 15.550781 6.757812 C 15.503906 6.707031 15.414062 6.675781 15.488281 6.578125 C 15.5625 6.480469 15.511719 6.433594 15.691406 6.480469 " fill-opacity="1" fill-rule="nonzero"/><path fill="#014d4e" d="M 16.3125 6.050781 C 16.316406 6.042969 16.449219 5.886719 16.539062 5.925781 C 16.628906 5.964844 16.714844 5.941406 16.742188 6.050781 C 16.769531 6.160156 16.855469 6.1875 16.742188 6.210938 C 16.628906 6.238281 16.496094 6.09375 16.460938 6.164062 C 16.425781 6.234375 16.355469 6.234375 16.277344 6.238281 C 16.203125 6.242188 16.144531 6.253906 16.3125 6.050781 " fill-opacity="1" fill-rule="nonzero"/><path fill="#014d4e" d="M 16.824219 5.675781 C 16.828125 5.671875 16.957031 5.539062 17.046875 5.523438 C 17.132812 5.507812 17.179688 5.425781 17.121094 5.394531 C 17.0625 5.363281 16.941406 5.289062 16.929688 5.3125 C 16.917969 5.332031 16.816406 5.347656 16.742188 5.402344 C 16.671875 5.453125 16.59375 5.488281 16.59375 5.578125 C 16.59375 5.671875 16.609375 5.742188 16.679688 5.734375 C 16.753906 5.730469 16.761719 5.710938 16.824219 5.675781 " fill-opacity="1" fill-rule="nonzero"/><path fill="#014d4e" d="M 18.902344 3.996094 C 18.945312 3.960938 18.929688 3.886719 19.019531 3.839844 C 19.109375 3.796875 19.285156 3.71875 19.3125 3.773438 C 19.34375 3.828125 19.277344 3.9375 19.25 3.996094 C 19.226562 4.050781 18.886719 4.308594 18.796875 4.316406 C 18.707031 4.328125 18.585938 4.308594 18.605469 4.21875 C 18.625 4.128906 18.597656 4.039062 18.667969 4.003906 C 18.742188 3.96875 18.796875 4.070312 18.902344 3.996094 " fill-opacity="1" fill-rule="nonzero"/><path fill="#014d4e" d="M 19.121094 4.300781 C 19.121094 4.300781 19.28125 4.179688 19.335938 4.183594 C 19.390625 4.191406 19.414062 4.121094 19.46875 4.207031 C 19.523438 4.292969 19.484375 4.394531 19.402344 4.464844 C 19.324219 4.535156 19.304688 4.6875 19.21875 4.648438 C 19.136719 4.609375 19.039062 4.582031 19.03125 4.511719 C 19.027344 4.441406 19.035156 4.339844 19.121094 4.300781 " fill-opacity="1" fill-rule="nonzero"/><g clip-path="url(#32e5d380d8)"><path fill="#014d4e" d="M 20.441406 3.027344 C 20.441406 3.027344 20.542969 2.902344 20.628906 2.9375 C 20.714844 2.96875 20.707031 3.019531 20.75 3.066406 C 20.796875 3.109375 20.871094 3.140625 20.808594 3.230469 C 20.75 3.316406 20.703125 3.34375 20.636719 3.34375 C 20.574219 3.34375 20.425781 3.320312 20.417969 3.28125 C 20.410156 3.238281 20.3125 3.144531 20.359375 3.097656 C 20.40625 3.054688 20.402344 3.070312 20.441406 3.027344 " fill-opacity="1" fill-rule="nonzero"/></g></svg>