<svg xmlns="http://www.w3.org/2000/svg" xmlns:xlink="http://www.w3.org/1999/xlink" width="40" zoomAndPan="magnify" viewBox="0 0 30 30.000001" height="40" preserveAspectRatio="xMidYMid meet" version="1.0"><defs><clipPath id="d45fcc0cf6"><path d="M 3.386719 8 L 26.613281 8 L 26.613281 21.0625 L 3.386719 21.0625 Z M 3.386719 8 " clip-rule="nonzero"/></clipPath></defs><g clip-path="url(#d45fcc0cf6)"><path fill="#014d4e" d="M 4.019531 11.824219 C 4.078125 11.695312 4.222656 11.753906 4.21875 11.566406 C 4.21875 11.429688 4.117188 11.351562 4.148438 11.195312 C 4.105469 11.074219 4.085938 11.050781 4.15625 10.945312 C 4.222656 10.832031 4.339844 10.765625 4.410156 10.660156 C 4.476562 10.570312 4.542969 10.46875 4.535156 10.367188 C 4.519531 10.226562 4.441406 10.171875 4.515625 10.027344 C 4.578125 9.957031 4.679688 9.941406 4.765625 9.917969 C 4.894531 9.878906 4.875 9.894531 4.921875 9.761719 C 4.957031 9.675781 5 9.640625 5.058594 9.574219 C 5.117188 9.511719 5.136719 9.449219 5.1875 9.382812 C 5.277344 9.289062 5.308594 9.359375 5.421875 9.332031 C 5.539062 9.300781 5.566406 9.175781 5.640625 9.089844 C 5.683594 9.035156 5.726562 8.976562 5.785156 8.941406 C 5.824219 8.917969 5.898438 8.921875 5.925781 8.882812 C 5.964844 8.835938 5.976562 8.699219 5.984375 8.640625 C 6.101562 8.628906 6.101562 8.753906 6.175781 8.761719 C 6.3125 8.777344 6.265625 8.597656 6.382812 8.773438 C 6.453125 8.875 6.460938 9.011719 6.492188 9.132812 C 6.5 9.175781 6.519531 9.21875 6.535156 9.269531 C 6.636719 9.292969 6.738281 9.316406 6.84375 9.339844 C 6.957031 9.355469 7.082031 8.957031 7.15625 8.878906 C 7.277344 8.757812 7.332031 8.769531 7.332031 8.578125 C 7.332031 8.429688 7.359375 8.304688 7.382812 8.164062 C 7.4375 8.164062 7.5 8.171875 7.554688 8.191406 C 7.621094 8.214844 7.671875 8.296875 7.722656 8.316406 C 7.859375 8.363281 7.808594 8.21875 7.894531 8.136719 C 8.035156 8.003906 8.28125 8.15625 8.429688 8.214844 C 8.566406 8.269531 8.613281 8.199219 8.746094 8.203125 C 8.859375 8.203125 8.925781 8.296875 9.03125 8.320312 C 9.128906 8.339844 9.296875 8.292969 9.359375 8.375 C 9.4375 8.472656 9.304688 8.558594 9.339844 8.660156 C 9.375 8.757812 9.507812 8.730469 9.511719 8.855469 C 9.515625 8.992188 9.359375 9.054688 9.515625 9.179688 C 9.59375 9.167969 9.695312 9.210938 9.765625 9.25 C 9.847656 9.292969 9.890625 9.375 9.953125 9.421875 C 10.074219 9.527344 10.257812 9.488281 10.410156 9.574219 C 10.492188 9.621094 10.527344 9.695312 10.59375 9.753906 C 10.664062 9.808594 10.714844 9.832031 10.769531 9.90625 C 10.789062 9.933594 10.808594 10 10.835938 10.019531 C 10.871094 10.046875 10.90625 10.03125 10.941406 10.046875 C 11.003906 10.078125 11.066406 10.117188 11.125 10.210938 C 11.152344 10.257812 11.15625 10.351562 11.207031 10.390625 C 11.25 10.425781 11.308594 10.394531 11.355469 10.417969 C 11.414062 10.449219 11.53125 10.644531 11.550781 10.453125 C 11.644531 10.472656 11.828125 10.550781 11.902344 10.625 C 11.953125 10.671875 12.003906 10.75 12.046875 10.832031 C 12.128906 10.753906 12.21875 10.6875 12.308594 10.617188 C 12.3125 10.644531 12.382812 10.757812 12.410156 10.785156 C 12.445312 10.8125 12.5 10.789062 12.53125 10.816406 C 12.601562 10.871094 12.582031 10.953125 12.605469 11.027344 C 12.652344 11.167969 12.652344 11.078125 12.746094 11.105469 C 12.925781 11.148438 12.886719 11.382812 12.992188 11.503906 C 13.046875 11.5625 13.125 11.570312 13.171875 11.644531 C 13.222656 11.714844 13.226562 11.789062 13.285156 11.855469 C 13.402344 11.996094 13.5 12.148438 13.683594 12.1875 C 13.707031 11.832031 14.027344 12.066406 14.195312 11.910156 C 14.300781 11.8125 14.34375 11.703125 14.519531 11.734375 C 14.621094 11.753906 14.757812 11.867188 14.820312 11.945312 C 14.964844 11.816406 14.996094 11.996094 15.054688 12.085938 C 15.09375 12.136719 15.132812 12.125 15.144531 12.214844 C 15.15625 12.289062 15.117188 12.335938 15.152344 12.40625 C 15.179688 12.464844 15.261719 12.488281 15.292969 12.546875 C 15.320312 12.609375 15.292969 12.667969 15.292969 12.726562 C 15.292969 12.820312 15.332031 12.894531 15.332031 12.988281 C 15.332031 12.992188 15.332031 13.003906 15.332031 13.007812 C 15.398438 13.039062 15.464844 13.070312 15.535156 13.105469 C 15.53125 13.105469 15.519531 13.105469 15.515625 13.105469 C 15.597656 13.234375 15.671875 13.128906 15.765625 13.191406 C 15.855469 13.246094 15.863281 13.386719 15.953125 13.453125 C 16.136719 13.601562 16.414062 13.589844 16.59375 13.773438 C 16.683594 13.871094 16.683594 13.96875 16.820312 14.019531 C 16.949219 14.0625 17.078125 14.082031 17.199219 14.125 C 17.355469 14.183594 17.351562 14.085938 17.460938 13.96875 C 17.570312 13.859375 17.660156 13.785156 17.777344 13.90625 C 17.789062 13.917969 17.820312 13.964844 17.828125 13.96875 C 17.832031 13.96875 17.890625 13.992188 17.890625 13.992188 C 17.9375 14.023438 18 13.984375 17.980469 14.101562 C 17.972656 14.160156 17.886719 14.277344 17.855469 14.332031 C 17.820312 14.402344 17.792969 14.46875 17.710938 14.480469 C 17.671875 14.597656 17.800781 14.679688 17.820312 14.789062 C 17.832031 14.835938 17.828125 14.878906 17.828125 14.917969 C 17.9375 14.929688 18.050781 14.941406 18.167969 14.949219 C 18.253906 14.945312 18.414062 15.066406 18.53125 15.054688 C 18.644531 15.039062 18.664062 14.917969 18.75 14.898438 C 18.808594 14.882812 18.933594 14.960938 18.996094 14.964844 C 19.023438 14.96875 19.085938 14.957031 19.09375 14.960938 C 19.128906 14.96875 19.167969 15.015625 19.207031 15.007812 C 19.308594 14.988281 19.265625 14.820312 19.347656 14.789062 C 19.414062 14.769531 19.53125 14.964844 19.5625 15.015625 C 19.597656 15.078125 19.625 15.128906 19.675781 15.179688 C 19.734375 15.238281 19.808594 15.234375 19.867188 15.269531 C 19.957031 15.335938 19.953125 15.429688 19.984375 15.523438 C 20.027344 15.65625 20.132812 15.71875 20.1875 15.835938 C 20.234375 15.953125 20.195312 16.042969 20.28125 16.152344 C 20.28125 16.152344 20.28125 16.152344 20.285156 16.152344 C 20.394531 16.140625 20.550781 16.175781 20.601562 16.0625 C 20.640625 15.964844 20.542969 15.839844 20.523438 15.753906 C 20.507812 15.699219 20.515625 15.574219 20.550781 15.519531 C 20.601562 15.449219 20.78125 15.320312 20.839844 15.382812 C 20.910156 15.464844 20.808594 15.628906 20.859375 15.703125 C 20.902344 15.773438 21.027344 15.835938 21.082031 15.847656 C 21.140625 15.867188 21.167969 15.84375 21.222656 15.875 C 21.265625 15.902344 21.269531 15.964844 21.3125 15.996094 C 21.390625 16.046875 21.488281 16.019531 21.578125 16.015625 C 21.640625 16.015625 21.644531 16.054688 21.703125 16.015625 C 21.78125 15.960938 21.75 15.84375 21.757812 15.765625 C 21.761719 15.695312 21.761719 15.496094 21.84375 15.464844 C 21.945312 15.425781 21.96875 15.625 22.097656 15.582031 C 22.136719 15.566406 22.152344 15.496094 22.210938 15.480469 C 22.277344 15.464844 22.339844 15.515625 22.382812 15.542969 C 22.425781 15.578125 22.441406 15.636719 22.480469 15.675781 C 22.558594 15.746094 22.519531 15.714844 22.628906 15.726562 C 22.695312 15.738281 22.710938 15.726562 22.777344 15.777344 C 22.816406 15.804688 22.859375 15.878906 22.898438 15.894531 C 23.019531 15.945312 23.117188 15.859375 23.238281 15.960938 C 23.347656 16.054688 23.46875 16.195312 23.609375 16.246094 C 23.78125 16.316406 23.9375 16.203125 24.105469 16.242188 C 24.167969 16.257812 24.261719 16.359375 24.316406 16.359375 C 24.378906 16.359375 24.4375 16.273438 24.503906 16.257812 C 24.664062 16.222656 24.839844 16.304688 24.992188 16.320312 C 25.082031 16.332031 25.160156 16.34375 25.242188 16.375 C 25.3125 16.320312 25.398438 16.277344 25.4375 16.214844 C 25.476562 16.160156 25.492188 16.042969 25.542969 16 C 25.617188 15.941406 25.617188 15.976562 25.710938 16.003906 C 25.851562 16.046875 25.917969 16.019531 26.050781 16 C 26.097656 15.996094 26.222656 15.972656 26.269531 15.984375 C 26.339844 16.003906 26.371094 16.085938 26.460938 16.054688 C 26.429688 16.296875 26.433594 16.585938 26.3125 16.832031 C 26.257812 16.9375 26.15625 17.042969 26.128906 17.160156 C 26.101562 17.261719 26.171875 17.324219 26.167969 17.417969 C 26.160156 17.484375 26.074219 17.515625 26.070312 17.574219 C 26.070312 17.617188 26.171875 17.699219 26.179688 17.761719 C 26.191406 17.84375 26.140625 17.910156 26.121094 17.988281 C 26.097656 18.097656 26.101562 18.175781 26.054688 18.277344 C 26.003906 18.390625 25.992188 18.421875 26.03125 18.550781 C 26.058594 18.640625 26.101562 18.710938 26.15625 18.792969 C 26.328125 19.039062 26.480469 19.253906 26.550781 19.546875 C 26.574219 19.648438 26.613281 19.691406 26.5625 19.796875 C 26.519531 19.886719 26.46875 19.925781 26.457031 20.027344 C 26.449219 20.136719 26.492188 20.25 26.453125 20.363281 C 26.429688 20.433594 26.375 20.46875 26.355469 20.546875 C 26.308594 20.734375 26.421875 20.890625 26.152344 20.863281 C 26.011719 20.847656 26.070312 20.847656 25.996094 20.769531 C 25.949219 20.714844 25.902344 20.65625 25.832031 20.628906 C 25.792969 20.804688 25.625 20.714844 25.519531 20.667969 C 25.519531 20.757812 25.550781 20.890625 25.421875 20.886719 C 25.34375 20.886719 25.292969 20.75 25.214844 20.808594 C 25.214844 20.804688 25.210938 20.804688 25.210938 20.796875 C 25.222656 21.023438 24.777344 20.796875 24.675781 20.789062 C 24.480469 20.769531 24.300781 20.808594 24.234375 21.003906 C 24.125 20.972656 24.085938 20.871094 23.984375 20.832031 C 23.894531 20.796875 23.878906 20.855469 23.785156 20.855469 C 23.519531 20.871094 23.660156 20.53125 23.5625 20.398438 C 23.503906 20.324219 23.394531 20.328125 23.335938 20.410156 C 23.277344 20.492188 23.355469 20.53125 23.25 20.542969 C 23.179688 20.546875 23.128906 20.476562 23.042969 20.503906 C 22.929688 20.535156 22.941406 20.613281 22.90625 20.691406 C 22.835938 20.855469 22.695312 20.765625 22.53125 20.773438 C 22.480469 20.972656 22.277344 20.75 22.191406 20.6875 C 22.039062 20.566406 21.84375 20.566406 21.679688 20.484375 C 21.5625 20.425781 21.46875 20.289062 21.328125 20.257812 C 21.199219 20.230469 21.207031 20.378906 21.066406 20.378906 C 20.96875 20.378906 20.824219 20.234375 20.753906 20.355469 C 20.667969 20.351562 20.613281 20.253906 20.570312 20.230469 C 20.535156 20.191406 20.503906 20.15625 20.46875 20.117188 C 20.394531 20.152344 20.308594 20.171875 20.25 20.207031 C 20.191406 20.246094 20.0625 20.425781 20.003906 20.4375 C 19.894531 20.457031 19.929688 20.332031 19.855469 20.289062 C 19.773438 20.234375 19.683594 20.273438 19.617188 20.15625 C 19.554688 20.039062 19.589844 19.898438 19.53125 19.777344 C 19.484375 19.667969 19.425781 19.679688 19.363281 19.617188 C 19.269531 19.527344 19.308594 19.453125 19.152344 19.539062 C 19.046875 19.605469 19.007812 19.765625 18.910156 19.804688 C 18.835938 19.832031 18.75 19.777344 18.671875 19.785156 C 18.539062 19.796875 18.558594 19.847656 18.5 19.953125 C 18.390625 19.9375 18.136719 19.957031 18.058594 19.867188 C 18.015625 19.8125 18.03125 19.652344 18.03125 19.578125 C 17.886719 19.511719 17.820312 19.636719 17.691406 19.648438 C 17.527344 19.65625 17.597656 19.46875 17.535156 19.371094 C 17.46875 19.398438 17.460938 19.476562 17.394531 19.5 C 17.367188 19.445312 17.339844 19.351562 17.277344 19.347656 C 17.25 19.265625 17.21875 19.179688 17.195312 19.09375 C 17.121094 19.085938 17.050781 19.070312 16.996094 19.058594 C 16.855469 19.039062 16.738281 19.046875 16.601562 19.039062 C 16.441406 19.035156 16.503906 19 16.511719 18.875 C 16.515625 18.753906 16.472656 18.667969 16.5 18.554688 C 16.535156 18.402344 16.554688 18.335938 16.457031 18.191406 C 16.375 18.0625 16.351562 18.097656 16.230469 18.09375 C 16.113281 18.089844 16.039062 18.019531 15.9375 17.976562 C 15.800781 17.914062 15.683594 17.96875 15.546875 17.9375 C 15.425781 17.910156 15.464844 17.859375 15.398438 17.773438 C 15.34375 17.703125 15.261719 17.683594 15.214844 17.601562 C 15.082031 17.691406 15.085938 17.554688 15.015625 17.496094 C 14.925781 17.429688 14.804688 17.496094 14.714844 17.570312 C 14.617188 17.652344 14.617188 17.730469 14.476562 17.714844 C 14.378906 17.703125 14.304688 17.664062 14.199219 17.675781 C 14.183594 17.753906 14.300781 17.875 14.238281 17.9375 C 14.15625 18.019531 13.898438 17.84375 13.835938 17.800781 C 13.589844 17.640625 13.398438 17.445312 13.105469 17.589844 C 12.992188 17.59375 12.882812 17.59375 12.769531 17.59375 C 12.761719 17.660156 12.796875 17.714844 12.800781 17.78125 C 12.804688 17.894531 12.726562 17.992188 12.585938 17.976562 C 12.46875 17.96875 12.546875 17.894531 12.460938 17.835938 C 12.398438 17.792969 12.363281 17.878906 12.292969 17.8125 C 12.207031 17.722656 12.289062 17.660156 12.125 17.652344 C 12.011719 17.644531 11.925781 17.703125 11.824219 17.695312 C 11.640625 17.675781 11.640625 17.519531 11.519531 17.441406 C 11.410156 17.375 11.351562 17.460938 11.234375 17.445312 C 11.003906 17.421875 10.941406 17.042969 10.949219 16.871094 C 10.933594 16.839844 10.925781 16.8125 10.910156 16.785156 C 10.769531 16.804688 10.628906 16.832031 10.492188 16.851562 C 10.425781 16.859375 10.3125 16.933594 10.246094 16.925781 C 10.144531 16.917969 10.125 16.820312 10.070312 16.757812 C 9.9375 16.605469 9.8125 16.753906 9.6875 16.605469 C 9.636719 16.546875 9.625 16.476562 9.558594 16.425781 C 9.503906 16.382812 9.429688 16.378906 9.367188 16.339844 C 9.285156 16.292969 9.214844 16.113281 9.148438 16.125 C 9.058594 16.09375 8.976562 16.0625 8.890625 16.035156 C 8.890625 16.035156 8.890625 16.035156 8.886719 16.039062 C 8.832031 16.117188 8.792969 16.242188 8.71875 16.296875 C 8.578125 16.398438 8.414062 16.183594 8.292969 16.085938 C 8.210938 16.019531 8.121094 15.960938 8.03125 15.933594 C 7.992188 15.917969 7.917969 15.9375 7.882812 15.917969 C 7.832031 15.882812 7.855469 15.863281 7.820312 15.824219 C 7.757812 15.746094 7.761719 15.71875 7.652344 15.679688 C 7.550781 15.644531 7.492188 15.660156 7.433594 15.566406 C 7.355469 15.4375 7.355469 15.285156 7.171875 15.363281 C 7.09375 15.394531 7.121094 15.476562 7.03125 15.40625 C 6.972656 15.367188 6.992188 15.285156 6.964844 15.238281 C 6.933594 15.15625 6.863281 15.128906 6.820312 15.058594 C 6.765625 14.980469 6.757812 14.863281 6.730469 14.777344 C 6.65625 14.542969 6.523438 14.546875 6.316406 14.539062 C 6.203125 14.53125 6.214844 14.519531 6.125 14.425781 C 6.046875 14.34375 5.980469 14.308594 5.878906 14.261719 C 5.796875 14.21875 5.675781 14.164062 5.613281 14.097656 C 5.5625 14.046875 5.558594 13.945312 5.503906 13.902344 C 5.398438 13.8125 5.21875 13.847656 5.121094 13.742188 C 5.042969 13.660156 4.914062 13.414062 4.816406 13.625 C 4.769531 13.726562 4.867188 13.964844 4.6875 13.886719 C 4.636719 13.863281 4.605469 13.78125 4.558594 13.75 C 4.515625 13.722656 4.460938 13.730469 4.417969 13.699219 C 4.359375 13.660156 4.328125 13.605469 4.261719 13.566406 C 4.210938 13.539062 4.140625 13.523438 4.101562 13.484375 C 4.046875 13.429688 4.070312 13.382812 4.03125 13.324219 C 3.984375 13.253906 3.867188 13.242188 3.800781 13.203125 C 3.691406 13.140625 3.511719 13.054688 3.464844 12.964844 C 3.386719 12.808594 3.472656 12.710938 3.578125 12.621094 C 3.761719 12.464844 3.660156 12.261719 3.75 12.070312 C 3.863281 12.046875 3.980469 12.015625 4.089844 11.992188 C 4.066406 11.925781 4.046875 11.855469 4.027344 11.789062 C 4.007812 11.816406 4.011719 11.816406 4.019531 11.824219 Z M 4.019531 11.824219 " fill-opacity="1" fill-rule="nonzero"/></g></svg>