<svg xmlns="http://www.w3.org/2000/svg" xmlns:xlink="http://www.w3.org/1999/xlink" width="40" zoomAndPan="magnify" viewBox="0 0 30 30.000001" height="40" preserveAspectRatio="xMidYMid meet" version="1.0"><defs><clipPath id="4f759ed450"><path d="M 3.386719 3.324219 L 26.613281 3.324219 L 26.613281 25.824219 L 3.386719 25.824219 Z M 3.386719 3.324219 " clip-rule="nonzero"/></clipPath></defs><g clip-path="url(#4f759ed450)"><path fill="#014d4e" d="M 26.324219 9.519531 C 26.199219 9.292969 26.226562 9.109375 26.199219 8.859375 C 26.1875 8.742188 26.175781 8.574219 26.019531 8.597656 C 26.003906 8.4375 25.90625 8.296875 25.84375 8.164062 C 25.765625 7.996094 25.804688 7.796875 25.730469 7.628906 C 25.675781 7.496094 25.53125 7.472656 25.441406 7.371094 C 25.355469 7.277344 25.265625 7.144531 25.175781 7.066406 C 25.164062 7.050781 25.148438 7.039062 25.136719 7.023438 C 25.042969 6.785156 24.941406 6.539062 24.71875 6.402344 C 24.621094 6.34375 24.488281 6.3125 24.394531 6.234375 C 24.269531 6.132812 24.210938 5.972656 24.097656 5.859375 C 23.910156 5.667969 23.578125 5.695312 23.457031 5.449219 C 23.328125 5.191406 23.152344 5.066406 22.878906 4.964844 C 22.742188 4.914062 22.589844 4.898438 22.46875 4.820312 C 22.359375 4.757812 22.21875 4.632812 22.140625 4.578125 C 22.039062 4.550781 21.9375 4.519531 21.835938 4.492188 C 21.792969 4.429688 21.746094 4.371094 21.707031 4.335938 C 21.566406 4.210938 21.359375 4.15625 21.195312 4.066406 C 21.042969 3.980469 20.925781 3.890625 20.765625 3.828125 C 20.574219 3.757812 20.4375 3.773438 20.234375 3.769531 C 19.882812 3.769531 19.53125 3.796875 19.179688 3.722656 C 18.992188 3.683594 18.8125 3.640625 18.628906 3.640625 C 18.414062 3.632812 18.207031 3.578125 17.992188 3.566406 C 17.566406 3.539062 17.1875 3.375 16.757812 3.398438 C 16.53125 3.410156 16.355469 3.414062 16.132812 3.371094 C 16.019531 3.347656 15.925781 3.324219 15.824219 3.351562 C 15.726562 3.378906 15.65625 3.460938 15.558594 3.492188 C 15.453125 3.53125 15.335938 3.503906 15.222656 3.527344 C 15.03125 3.570312 14.816406 3.59375 14.636719 3.671875 C 14.464844 3.746094 14.339844 3.929688 14.183594 4.039062 C 14.113281 4.082031 14.019531 4.117188 13.964844 4.167969 C 13.890625 4.234375 13.832031 4.359375 13.761719 4.441406 C 13.753906 4.453125 13.738281 4.480469 13.714844 4.515625 C 13.585938 4.644531 13.46875 4.785156 13.34375 4.902344 C 13.152344 5.089844 12.945312 5.230469 12.769531 5.421875 C 12.5625 5.644531 12.378906 5.886719 12.175781 6.117188 C 11.996094 6.3125 11.800781 6.574219 11.585938 6.714844 C 11.410156 6.832031 11.191406 6.835938 11.035156 6.984375 C 10.910156 7.09375 10.839844 7.257812 10.730469 7.382812 C 10.519531 7.636719 10.296875 7.871094 10.058594 8.097656 C 9.945312 8.195312 9.859375 8.316406 9.765625 8.433594 C 9.636719 8.589844 9.472656 8.707031 9.332031 8.847656 C 9.125 9.058594 8.910156 9.238281 8.675781 9.40625 C 8.175781 9.765625 7.71875 10.050781 7.347656 10.53125 C 7.164062 10.648438 7.011719 10.761719 6.847656 10.910156 C 6.703125 11.046875 6.605469 11.222656 6.449219 11.339844 C 6.152344 11.570312 5.800781 11.75 5.527344 12.011719 C 5.296875 12.238281 5.117188 12.429688 5.007812 12.734375 C 4.957031 12.878906 4.878906 12.941406 4.773438 13.058594 C 4.730469 13.109375 4.667969 13.164062 4.632812 13.226562 C 4.597656 13.289062 4.605469 13.355469 4.578125 13.425781 C 4.464844 13.699219 4.09375 13.839844 4.039062 14.132812 C 4.003906 14.324219 4.066406 14.335938 3.867188 14.414062 C 3.6875 14.488281 3.667969 14.695312 3.632812 14.878906 C 3.585938 15.136719 3.554688 15.402344 3.503906 15.660156 C 3.480469 15.773438 3.488281 15.898438 3.480469 16.015625 C 3.46875 16.179688 3.414062 16.324219 3.402344 16.480469 C 3.390625 16.710938 3.429688 16.9375 3.453125 17.160156 C 3.46875 17.347656 3.441406 17.542969 3.441406 17.734375 C 3.441406 17.988281 3.507812 18.222656 3.546875 18.472656 C 3.585938 18.691406 3.59375 18.953125 3.660156 19.167969 C 3.695312 19.273438 3.765625 19.371094 3.800781 19.472656 C 3.828125 19.566406 3.800781 19.667969 3.851562 19.757812 C 3.9375 19.914062 4.066406 19.933594 4.207031 19.925781 C 4.234375 20.015625 4.273438 20.117188 4.289062 20.164062 C 4.363281 20.394531 4.316406 20.578125 4.488281 20.769531 C 4.59375 20.886719 4.75 20.949219 4.851562 21.0625 C 4.941406 21.164062 5.003906 21.355469 5.058594 21.484375 C 5.359375 22.167969 6.015625 22.546875 6.59375 22.972656 C 6.882812 23.1875 7.054688 23.492188 7.386719 23.621094 C 7.644531 23.722656 7.832031 23.941406 8.117188 24.011719 C 8.375 24.074219 8.628906 24.070312 8.886719 24.035156 C 9.167969 24.003906 9.179688 24.199219 9.375 24.351562 C 9.433594 24.394531 9.515625 24.472656 9.578125 24.503906 C 9.679688 24.558594 9.804688 24.535156 9.910156 24.597656 C 10.089844 24.703125 10.226562 24.851562 10.425781 24.941406 C 10.609375 25.019531 10.792969 25.070312 10.984375 25.054688 C 11.023438 25.046875 11.058594 25.042969 11.097656 25.035156 C 11.179688 25.085938 11.269531 25.136719 11.308594 25.160156 C 11.417969 25.222656 11.546875 25.25 11.664062 25.253906 C 11.871094 25.265625 12.0625 25.292969 12.269531 25.3125 C 12.507812 25.335938 12.625 25.402344 12.84375 25.496094 C 12.992188 25.558594 13.113281 25.574219 13.273438 25.570312 C 13.613281 25.558594 13.921875 25.648438 14.273438 25.664062 C 14.433594 25.671875 14.585938 25.699219 14.75 25.695312 C 14.925781 25.6875 15.003906 25.632812 15.148438 25.554688 C 15.3125 25.46875 15.496094 25.484375 15.675781 25.46875 C 15.867188 25.445312 16.042969 25.433594 16.226562 25.441406 C 16.6875 25.464844 16.976562 25.0625 17.359375 24.878906 C 17.550781 24.785156 17.75 24.664062 17.925781 24.542969 C 18.132812 24.394531 18.273438 24.199219 18.5 24.0625 C 18.695312 23.953125 18.914062 23.863281 19.113281 23.75 C 19.332031 23.621094 19.503906 23.421875 19.71875 23.28125 C 19.914062 23.148438 20.132812 23.085938 20.34375 22.980469 C 20.488281 22.902344 20.625 22.789062 20.78125 22.753906 C 20.921875 22.71875 21.039062 22.726562 21.164062 22.625 C 21.183594 22.609375 21.203125 22.585938 21.226562 22.5625 C 21.308594 22.546875 21.386719 22.53125 21.460938 22.484375 C 21.59375 22.40625 21.714844 22.316406 21.859375 22.25 C 21.949219 22.210938 22.066406 22.179688 22.140625 22.121094 C 22.292969 21.988281 22.359375 21.71875 22.367188 21.535156 C 22.371094 21.246094 22.472656 21 22.527344 20.71875 C 22.664062 20.089844 22.355469 19.472656 22.433594 18.855469 C 22.46875 18.589844 22.539062 18.347656 22.546875 18.078125 C 22.550781 17.835938 22.546875 17.605469 22.636719 17.375 C 22.871094 16.761719 23.1875 16.222656 23.292969 15.558594 C 23.296875 15.539062 23.328125 15.453125 23.355469 15.363281 C 23.386719 15.347656 23.417969 15.328125 23.445312 15.300781 C 23.5 15.238281 23.550781 15.097656 23.585938 15.019531 C 23.628906 14.902344 23.636719 14.796875 23.636719 14.675781 C 23.636719 14.480469 23.769531 14.429688 23.894531 14.273438 C 24 14.136719 24.152344 14.046875 24.242188 13.914062 C 24.316406 13.804688 24.367188 13.683594 24.457031 13.582031 C 24.558594 13.46875 24.703125 13.304688 24.839844 13.234375 C 25.011719 13.136719 25.058594 13.097656 25.191406 12.914062 C 25.621094 12.324219 26.082031 11.832031 26.390625 11.164062 C 26.609375 10.714844 26.574219 9.980469 26.324219 9.519531 Z M 26.324219 9.519531 " fill-opacity="1" fill-rule="nonzero"/></g></svg>