<svg xmlns="http://www.w3.org/2000/svg" xmlns:xlink="http://www.w3.org/1999/xlink" width="40" zoomAndPan="magnify" viewBox="0 0 30 30.000001" height="40" preserveAspectRatio="xMidYMid meet" version="1.0"><defs><clipPath id="0bbf840c86"><path d="M 5.375 2.902344 L 24.972656 2.902344 L 24.972656 26.128906 L 5.375 26.128906 Z M 5.375 2.902344 " clip-rule="nonzero"/></clipPath></defs><g clip-path="url(#0bbf840c86)"><path fill="#014d4e" d="M 24.46875 14.84375 C 24.40625 14.71875 24.332031 14.597656 24.25 14.484375 C 24.082031 14.253906 23.835938 14.089844 23.675781 13.855469 C 23.527344 13.679688 23.464844 13.460938 23.386719 13.25 C 23.289062 13.035156 23.230469 12.804688 23.136719 12.582031 C 22.832031 11.929688 22.519531 11.554688 22.566406 10.785156 C 22.554688 10.464844 22.640625 10.144531 22.578125 9.828125 C 22.511719 9.359375 22.238281 8.972656 22 8.578125 C 21.871094 8.304688 21.785156 8.023438 21.675781 7.734375 C 21.621094 7.605469 21.542969 7.488281 21.519531 7.34375 C 21.488281 7.128906 21.421875 6.921875 21.441406 6.703125 C 21.449219 6.550781 21.496094 6.40625 21.53125 6.261719 C 21.589844 6.027344 21.609375 5.785156 21.597656 5.546875 C 21.605469 5.136719 21.492188 4.730469 21.238281 4.40625 C 20.996094 4.011719 20.597656 3.722656 20.136719 3.648438 C 19.945312 3.617188 19.753906 3.574219 19.558594 3.566406 C 19.371094 3.558594 19.183594 3.574219 18.996094 3.5625 C 18.757812 3.550781 18.539062 3.449219 18.324219 3.363281 C 18.214844 3.320312 18.109375 3.277344 18 3.230469 C 17.765625 3.121094 17.511719 3.0625 17.257812 3.007812 C 16.9375 2.917969 16.597656 2.917969 16.269531 2.921875 C 15.964844 2.949219 15.648438 2.925781 15.359375 3.042969 C 14.898438 3.203125 14.476562 3.449219 14.027344 3.648438 C 13.625 3.777344 13.144531 3.757812 12.828125 4.09375 C 12.582031 4.351562 12.347656 4.625 12.050781 4.828125 C 11.605469 5.140625 11.316406 5.613281 11.121094 6.105469 C 10.953125 6.507812 10.808594 6.917969 10.574219 7.285156 C 10.429688 7.507812 10.21875 7.679688 10.011719 7.839844 C 9.765625 8.039062 9.546875 8.261719 9.3125 8.472656 C 9.023438 8.714844 8.746094 8.976562 8.546875 9.300781 C 8.472656 9.421875 8.394531 9.546875 8.375 9.691406 C 8.355469 9.910156 8.375 10.132812 8.390625 10.347656 C 8.433594 10.683594 8.46875 11.019531 8.558594 11.347656 C 8.691406 11.722656 8.851562 12.097656 8.8125 12.503906 C 8.808594 12.71875 8.792969 12.9375 8.769531 13.152344 C 8.738281 13.621094 8.726562 14.023438 8.445312 14.425781 C 8.277344 14.664062 8.050781 14.851562 7.867188 15.074219 C 7.675781 15.273438 7.40625 15.425781 7.164062 15.554688 C 6.929688 15.660156 6.734375 15.828125 6.507812 15.945312 C 6.292969 16.054688 6.039062 16.117188 5.84375 16.261719 C 5.726562 16.355469 5.605469 16.457031 5.527344 16.585938 C 5.480469 16.671875 5.464844 16.773438 5.449219 16.871094 C 5.375 17.210938 5.511719 17.550781 5.675781 17.84375 C 5.730469 17.945312 5.789062 18.050781 5.855469 18.140625 C 5.980469 18.324219 6.171875 18.441406 6.335938 18.582031 C 6.511719 18.753906 6.695312 18.902344 6.902344 19.027344 C 7.066406 19.144531 7.226562 19.265625 7.402344 19.359375 C 7.621094 19.484375 7.8125 19.652344 8.03125 19.777344 C 8.289062 19.984375 8.570312 20.160156 8.828125 20.367188 C 9.082031 20.605469 9.285156 20.898438 9.457031 21.199219 C 9.585938 21.46875 9.578125 21.777344 9.578125 22.070312 C 9.578125 22.273438 9.585938 22.484375 9.535156 22.679688 C 9.519531 22.695312 9.511719 22.710938 9.503906 22.730469 C 9.503906 22.746094 9.5 22.761719 9.5 22.773438 C 9.421875 22.875 9.296875 22.929688 9.191406 23.003906 C 9.054688 23.09375 8.925781 23.195312 8.792969 23.289062 C 8.589844 23.421875 8.363281 23.664062 8.511719 23.917969 C 8.691406 24.195312 9.050781 24.28125 9.363281 24.304688 C 9.753906 24.367188 10.152344 24.285156 10.542969 24.347656 C 10.746094 24.390625 10.945312 24.472656 11.101562 24.617188 C 11.34375 24.835938 11.550781 25.089844 11.773438 25.332031 C 12.121094 25.695312 12.511719 26.113281 13.0625 26.097656 C 13.242188 26.101562 13.417969 26.050781 13.59375 26.023438 C 13.761719 26.003906 13.921875 25.96875 14.082031 25.914062 C 14.589844 25.738281 15.058594 25.445312 15.59375 25.34375 C 16.015625 25.261719 16.457031 25.273438 16.859375 25.101562 C 17.085938 25.027344 17.273438 24.875 17.449219 24.714844 C 17.558594 24.621094 17.699219 24.519531 17.785156 24.398438 C 17.863281 24.289062 17.921875 24.171875 17.980469 24.050781 C 18.347656 23.128906 18.421875 22.980469 19.144531 22.285156 C 19.644531 21.878906 20.226562 21.570312 20.671875 21.097656 C 20.914062 20.839844 21.042969 20.496094 21.3125 20.261719 C 21.484375 20.089844 21.660156 19.925781 21.828125 19.753906 C 22.054688 19.578125 22.269531 19.390625 22.460938 19.171875 C 22.707031 18.882812 22.933594 18.574219 23.160156 18.273438 C 23.328125 18.027344 23.480469 17.773438 23.652344 17.53125 C 23.898438 17.171875 24.128906 16.789062 24.304688 16.386719 C 24.402344 16.191406 24.507812 15.992188 24.558594 15.777344 C 24.621094 15.464844 24.613281 15.128906 24.46875 14.84375 Z M 24.46875 14.84375 " fill-opacity="1" fill-rule="nonzero"/></g></svg>