<svg xmlns="http://www.w3.org/2000/svg" xmlns:xlink="http://www.w3.org/1999/xlink" width="40" zoomAndPan="magnify" viewBox="0 0 30 30.000001" height="40" preserveAspectRatio="xMidYMid meet" version="1.0"><defs><clipPath id="6189cb0a63"><path d="M 8 24 L 10 24 L 10 26.128906 L 8 26.128906 Z M 8 24 " clip-rule="nonzero"/></clipPath><clipPath id="a7166e1f05"><path d="M 7.015625 23 L 8 23 L 8 24 L 7.015625 24 Z M 7.015625 23 " clip-rule="nonzero"/></clipPath><clipPath id="5428ffeadf"><path d="M 15 2.902344 L 22.984375 2.902344 L 22.984375 16 L 15 16 Z M 15 2.902344 " clip-rule="nonzero"/></clipPath><clipPath id="02fd86a742"><path d="M 7.015625 13 L 18 13 L 18 25 L 7.015625 25 Z M 7.015625 13 " clip-rule="nonzero"/></clipPath></defs><path fill="#014d4e" d="M 18.210938 14.492188 C 18.25 14.46875 18.300781 14.375 18.269531 14.335938 C 18.25 14.3125 18.226562 14.3125 18.199219 14.347656 C 18.085938 14.386719 18.101562 14.558594 18.210938 14.492188 " fill-opacity="1" fill-rule="nonzero"/><g clip-path="url(#6189cb0a63)"><path fill="#014d4e" d="M 8.890625 24.929688 C 8.671875 25.015625 8.769531 25.261719 8.777344 25.394531 C 8.785156 25.46875 8.785156 25.464844 8.726562 25.5 C 8.671875 25.535156 8.59375 25.527344 8.582031 25.65625 C 8.566406 25.769531 8.546875 25.78125 8.46875 25.820312 C 8.25 25.929688 8.371094 26.097656 8.496094 26.0625 C 8.601562 26.035156 8.648438 25.953125 8.71875 25.882812 C 9.019531 25.585938 9.335938 25.820312 9.414062 25.648438 C 9.488281 25.480469 9.15625 25.089844 9.101562 25.039062 C 9.050781 24.984375 8.96875 24.898438 8.890625 24.929688 " fill-opacity="1" fill-rule="nonzero"/></g><path fill="#014d4e" d="M 8.703125 25.074219 C 8.648438 24.972656 8.511719 25.105469 8.585938 25.183594 C 8.644531 25.242188 8.742188 25.144531 8.703125 25.074219 " fill-opacity="1" fill-rule="nonzero"/><g clip-path="url(#a7166e1f05)"><path fill="#014d4e" d="M 7.566406 23.507812 C 7.445312 23.390625 7.195312 23.730469 7.371094 23.714844 C 7.414062 23.710938 7.449219 23.6875 7.480469 23.664062 C 7.53125 23.628906 7.644531 23.582031 7.566406 23.507812 " fill-opacity="1" fill-rule="nonzero"/></g><g clip-path="url(#5428ffeadf)"><path fill="#014d4e" d="M 22.960938 8.917969 C 22.949219 8.785156 22.832031 8.726562 22.746094 8.683594 C 22.679688 8.652344 22.59375 8.589844 22.453125 8.582031 C 22.328125 8.570312 22.207031 8.609375 22.101562 8.691406 C 21.621094 9.070312 21.667969 9.8125 20.378906 8.945312 C 20.300781 8.890625 20.21875 8.835938 20.132812 8.785156 C 19.964844 8.6875 19.820312 8.472656 19.761719 8.3125 L 19.746094 8.28125 C 19.746094 8.28125 19.730469 8.222656 19.71875 8.171875 C 19.699219 8.082031 19.695312 7.988281 19.6875 7.898438 C 19.6875 7.847656 19.683594 7.796875 19.675781 7.742188 C 19.660156 7.582031 19.625 7.351562 19.515625 7.222656 C 19.496094 7.199219 19.46875 7.164062 19.472656 7.148438 C 19.472656 7.136719 19.488281 7.121094 19.515625 7.097656 C 19.5625 7.0625 19.582031 7.015625 19.566406 6.980469 C 19.546875 6.933594 19.464844 6.914062 19.390625 6.996094 C 19.332031 7.0625 19.277344 7.039062 19.242188 6.972656 C 19.21875 6.933594 19.210938 6.863281 19.195312 6.816406 C 19.121094 6.550781 18.960938 6.511719 18.910156 6.574219 C 18.871094 6.625 18.90625 6.6875 18.9375 6.738281 C 19.085938 6.996094 19.0625 7.054688 19.027344 7.160156 C 18.996094 7.261719 19 7.3125 19.089844 7.484375 C 19.144531 7.597656 19.195312 7.6875 19.128906 7.789062 C 19.109375 7.816406 19.089844 7.832031 19.066406 7.835938 C 19.011719 7.847656 18.976562 7.84375 18.949219 7.828125 C 18.902344 7.792969 18.894531 7.695312 18.882812 7.628906 C 18.867188 7.523438 18.839844 7.453125 18.753906 7.417969 C 18.726562 7.410156 18.722656 7.40625 18.699219 7.382812 C 18.648438 7.324219 18.578125 7.308594 18.460938 7.285156 C 18.316406 7.257812 18.171875 7.234375 18.214844 7 C 18.222656 6.949219 18.296875 6.875 18.238281 6.800781 L 18.226562 6.785156 C 18.191406 6.796875 18.167969 6.804688 18.128906 6.792969 C 18.113281 6.6875 18.132812 6.652344 18.164062 6.617188 C 18.199219 6.574219 18.207031 6.539062 18.167969 6.5 C 18.164062 6.496094 18.160156 6.492188 18.160156 6.492188 C 18.175781 6.488281 18.183594 6.492188 18.203125 6.488281 C 18.257812 6.464844 18.273438 6.398438 18.226562 6.355469 C 18.222656 6.355469 18.199219 6.335938 18.199219 6.339844 C 18.195312 6.332031 18.199219 6.328125 18.21875 6.3125 C 18.277344 6.261719 18.277344 6.203125 18.199219 6.1875 C 18.148438 6.175781 18.109375 6.140625 18.082031 6.09375 C 18.042969 6.027344 18.007812 5.945312 17.949219 5.886719 C 17.90625 5.84375 17.875 5.855469 17.835938 5.824219 C 17.757812 5.773438 17.738281 5.660156 17.78125 5.578125 C 17.789062 5.558594 17.804688 5.53125 17.789062 5.5 C 17.761719 5.441406 17.703125 5.445312 17.660156 5.453125 C 17.640625 5.453125 17.609375 5.460938 17.597656 5.445312 C 17.636719 5.453125 17.671875 5.441406 17.703125 5.433594 C 17.753906 5.421875 17.777344 5.414062 17.808594 5.492188 C 17.835938 5.5625 17.847656 5.5625 17.898438 5.589844 L 17.90625 5.554688 C 17.929688 5.410156 17.835938 5.304688 17.816406 5.179688 C 17.808594 5.125 17.832031 5.089844 17.816406 5.03125 C 17.777344 4.898438 17.632812 4.867188 17.617188 4.75 C 17.609375 4.695312 17.648438 4.648438 17.59375 4.589844 C 17.542969 4.535156 17.503906 4.550781 17.519531 4.472656 C 17.523438 4.4375 17.535156 4.398438 17.523438 4.363281 C 17.511719 4.316406 17.460938 4.285156 17.417969 4.308594 C 17.394531 4.320312 17.394531 4.335938 17.382812 4.355469 C 17.371094 4.375 17.347656 4.421875 17.320312 4.433594 C 17.277344 4.453125 17.234375 4.445312 17.214844 4.417969 C 17.195312 4.394531 17.1875 4.355469 17.230469 4.296875 C 17.214844 4.242188 17.199219 4.222656 17.152344 4.195312 C 16.953125 4.257812 17.0625 4.039062 16.898438 4 C 16.851562 3.988281 16.78125 4.015625 16.75 4.007812 C 16.710938 3.996094 16.683594 3.953125 16.65625 3.921875 C 16.566406 3.828125 16.484375 3.847656 16.445312 3.9375 C 16.417969 4 16.367188 4.003906 16.34375 3.980469 C 16.316406 3.953125 16.308594 3.890625 16.347656 3.832031 C 16.371094 3.800781 16.398438 3.757812 16.378906 3.71875 C 16.367188 3.691406 16.347656 3.679688 16.335938 3.675781 C 16.277344 3.660156 16.234375 3.707031 16.199219 3.753906 C 16.128906 3.859375 16.085938 3.816406 16.035156 3.707031 C 16.007812 3.640625 15.984375 3.613281 15.933594 3.558594 C 15.804688 3.417969 15.78125 3.257812 15.820312 3.121094 C 15.859375 2.976562 15.785156 2.933594 15.6875 2.988281 C 15.59375 3.039062 15.539062 3.113281 15.453125 3.082031 C 15.445312 3.082031 15.425781 3.058594 15.410156 3.050781 C 15.375 3.035156 15.347656 3.03125 15.328125 3.0625 C 15.230469 3.207031 15.582031 3.480469 15.625 3.535156 C 15.828125 3.769531 15.902344 3.964844 15.96875 4.242188 C 15.980469 4.28125 15.972656 4.320312 15.953125 4.335938 C 15.945312 4.34375 15.933594 4.347656 15.921875 4.347656 C 15.90625 4.355469 15.878906 4.359375 15.867188 4.398438 C 15.851562 4.4375 15.882812 4.457031 15.902344 4.492188 C 15.921875 4.523438 15.941406 4.5625 15.960938 4.589844 C 16.089844 4.804688 16.203125 4.957031 16.445312 5.28125 C 16.679688 5.589844 16.929688 5.914062 17.125 6.3125 C 17.128906 6.324219 17.136719 6.335938 17.140625 6.347656 C 17.171875 6.417969 17.210938 6.511719 17.308594 6.523438 C 17.355469 6.527344 17.398438 6.496094 17.40625 6.445312 C 17.414062 6.402344 17.386719 6.367188 17.363281 6.335938 L 17.351562 6.324219 C 17.320312 6.273438 17.296875 6.21875 17.292969 6.15625 C 17.292969 6.152344 17.292969 6.148438 17.289062 6.148438 C 17.289062 6.148438 17.292969 6.152344 17.296875 6.152344 C 17.300781 6.15625 17.308594 6.175781 17.3125 6.183594 C 17.332031 6.226562 17.371094 6.261719 17.40625 6.265625 C 17.433594 6.269531 17.457031 6.257812 17.472656 6.234375 C 17.488281 6.21875 17.488281 6.203125 17.492188 6.191406 C 17.492188 6.1875 17.492188 6.183594 17.496094 6.179688 C 17.5 6.183594 17.503906 6.1875 17.503906 6.195312 C 17.507812 6.222656 17.503906 6.253906 17.5 6.289062 C 17.488281 6.351562 17.476562 6.417969 17.535156 6.472656 C 17.546875 6.484375 17.570312 6.488281 17.585938 6.492188 C 17.59375 6.496094 17.605469 6.496094 17.617188 6.496094 C 17.640625 6.496094 17.652344 6.496094 17.664062 6.503906 C 17.730469 6.566406 17.703125 6.707031 17.683594 6.800781 C 17.683594 6.816406 17.679688 6.816406 17.679688 6.8125 C 17.660156 6.71875 17.46875 6.53125 17.40625 6.515625 C 17.382812 6.511719 17.371094 6.523438 17.367188 6.527344 C 17.351562 6.546875 17.359375 6.570312 17.371094 6.59375 C 17.421875 6.703125 17.480469 6.785156 17.539062 6.867188 C 17.617188 6.972656 17.6875 7.074219 17.722656 7.226562 C 17.726562 7.242188 17.730469 7.261719 17.734375 7.28125 C 17.753906 7.390625 17.78125 7.550781 17.894531 7.574219 C 18.019531 7.597656 18.007812 7.425781 18.125 7.46875 C 18.183594 7.492188 18.296875 7.664062 18.140625 7.679688 C 18.097656 7.683594 18.09375 7.675781 18.082031 7.648438 C 18.078125 7.640625 18.074219 7.632812 18.066406 7.625 C 18.050781 7.59375 18.023438 7.574219 17.996094 7.570312 C 17.972656 7.566406 17.949219 7.574219 17.929688 7.589844 C 17.839844 7.664062 17.90625 7.761719 17.953125 7.835938 C 17.96875 7.859375 17.984375 7.882812 17.992188 7.902344 C 18.039062 8.023438 18.066406 8.105469 18.101562 8.214844 L 18.105469 8.230469 C 18.117188 8.265625 18.125 8.296875 18.132812 8.332031 C 18.136719 8.34375 18.140625 8.351562 18.140625 8.363281 C 18.148438 8.394531 18.15625 8.429688 18.171875 8.46875 C 18.171875 8.476562 18.175781 8.480469 18.175781 8.484375 C 18.195312 8.589844 18.207031 8.695312 18.21875 8.796875 L 18.226562 8.882812 C 18.230469 8.917969 18.214844 8.9375 18.179688 8.972656 L 18.171875 8.984375 C 18.109375 9.054688 18.136719 9.167969 18.175781 9.230469 C 18.199219 9.269531 18.226562 9.265625 18.25 9.253906 C 18.253906 9.25 18.257812 9.25 18.261719 9.25 C 18.273438 9.246094 18.277344 9.246094 18.277344 9.242188 C 18.277344 9.246094 18.28125 9.246094 18.28125 9.25 C 18.28125 9.257812 18.277344 9.269531 18.257812 9.28125 C 18.257812 9.285156 18.25 9.285156 18.246094 9.289062 C 18.214844 9.308594 18.175781 9.332031 18.171875 9.367188 C 18.171875 9.378906 18.171875 9.394531 18.191406 9.410156 C 18.207031 9.429688 18.230469 9.429688 18.246094 9.429688 C 18.25 9.429688 18.257812 9.429688 18.257812 9.429688 C 18.257812 9.429688 18.261719 9.429688 18.261719 9.433594 C 18.261719 9.445312 18.257812 9.457031 18.246094 9.460938 C 18.234375 9.472656 18.214844 9.476562 18.199219 9.472656 C 18.191406 9.46875 18.1875 9.464844 18.179688 9.464844 C 18.164062 9.453125 18.144531 9.445312 18.117188 9.453125 C 18.074219 9.46875 18.070312 9.511719 18.070312 9.53125 C 18.066406 9.5625 18.066406 9.597656 18.066406 9.628906 C 18.066406 9.671875 18.066406 9.71875 18.058594 9.757812 C 18.050781 9.800781 18.035156 9.835938 18.019531 9.875 C 18.007812 9.902344 18 9.933594 17.988281 9.964844 C 17.96875 10.039062 17.964844 10.113281 17.960938 10.1875 C 17.960938 10.246094 17.957031 10.308594 17.945312 10.371094 C 17.9375 10.398438 17.921875 10.460938 17.921875 10.460938 L 17.914062 10.492188 C 17.882812 10.585938 17.84375 10.683594 17.804688 10.769531 C 17.773438 10.847656 17.734375 10.941406 17.664062 10.996094 C 17.601562 11.050781 17.523438 11.066406 17.445312 11.085938 L 17.429688 11.089844 C 17.34375 11.109375 17.265625 11.125 17.183594 11.140625 C 17.105469 11.15625 17.027344 11.171875 16.949219 11.1875 C 16.871094 11.207031 16.769531 11.226562 16.714844 11.320312 C 16.6875 11.371094 16.683594 11.4375 16.707031 11.511719 C 16.722656 11.574219 16.757812 11.628906 16.789062 11.675781 C 16.882812 11.824219 16.976562 11.953125 17.128906 12.027344 C 17.175781 12.050781 17.222656 12.0625 17.269531 12.070312 C 17.292969 12.074219 17.320312 12.078125 17.34375 12.085938 C 17.414062 12.105469 17.488281 12.128906 17.535156 12.183594 C 17.558594 12.210938 17.570312 12.246094 17.582031 12.28125 C 17.589844 12.308594 17.601562 12.332031 17.613281 12.359375 C 17.640625 12.410156 17.683594 12.433594 17.722656 12.457031 C 17.734375 12.460938 17.742188 12.464844 17.75 12.472656 C 17.773438 12.484375 17.796875 12.5 17.820312 12.515625 C 17.875 12.550781 17.933594 12.589844 18 12.617188 C 18.054688 12.636719 18.109375 12.640625 18.160156 12.628906 C 18.195312 12.664062 18.246094 12.695312 18.292969 12.722656 C 18.335938 12.75 18.375 12.777344 18.398438 12.800781 C 18.484375 12.890625 18.550781 13.011719 18.585938 13.15625 C 18.59375 13.183594 18.597656 13.210938 18.597656 13.238281 C 18.601562 13.273438 18.605469 13.304688 18.617188 13.335938 C 18.652344 13.457031 18.609375 13.652344 18.585938 13.753906 L 18.585938 13.769531 C 18.570312 13.828125 18.554688 13.890625 18.53125 13.953125 C 18.488281 14.066406 18.4375 14.167969 18.386719 14.269531 C 18.359375 14.324219 18.332031 14.378906 18.304688 14.433594 C 18.25 14.554688 18.257812 14.589844 18.1875 14.660156 C 18.144531 14.703125 18.109375 14.699219 18.097656 14.765625 C 18.09375 14.785156 18.101562 14.8125 18.101562 14.8125 C 18.089844 14.90625 17.921875 14.929688 17.859375 15.019531 C 17.773438 15.140625 17.820312 15.351562 17.996094 15.3125 C 18.050781 15.300781 18.070312 15.242188 18.050781 15.203125 C 18.039062 15.179688 18.046875 15.140625 18.074219 15.117188 C 18.125 15.082031 18.207031 15.109375 18.21875 15.175781 C 18.230469 15.234375 18.140625 15.40625 18.265625 15.445312 C 18.535156 15.410156 18.53125 15.460938 18.527344 15.558594 C 18.527344 15.625 18.527344 15.707031 18.601562 15.78125 C 18.652344 15.835938 18.699219 15.816406 18.757812 15.777344 C 18.882812 15.6875 19.320312 15.464844 19.566406 15.113281 C 19.808594 14.769531 19.945312 14.292969 20.222656 14.019531 C 20.496094 13.75 20.320312 13.839844 20.59375 13.445312 C 20.90625 13 20.648438 13.222656 20.933594 12.679688 C 21.054688 12.449219 21.078125 12.417969 20.992188 12.304688 C 20.941406 12.242188 20.90625 12.195312 20.914062 12.019531 C 20.921875 11.890625 20.929688 11.726562 20.988281 11.625 C 21.15625 11.351562 21.554688 11.261719 21.871094 11.296875 C 21.972656 11.308594 21.980469 11.328125 22 11.363281 C 22.011719 11.382812 22.023438 11.40625 22.050781 11.433594 C 22.054688 11.4375 22.058594 11.445312 22.058594 11.453125 C 22.070312 11.515625 22.140625 11.511719 22.171875 11.476562 C 22.203125 11.4375 22.175781 11.34375 22.160156 11.269531 C 22.125 11.113281 22.082031 10.921875 22.160156 10.78125 C 22.199219 10.710938 22.265625 10.679688 22.339844 10.644531 C 22.753906 10.433594 22.722656 9.878906 22.726562 9.550781 C 22.730469 9.296875 22.984375 9.171875 22.960938 8.917969 " fill-opacity="1" fill-rule="nonzero"/></g><path fill="#014d4e" d="M 19.011719 6.375 L 19.019531 6.332031 C 19.03125 6.269531 19.011719 6.207031 18.988281 6.15625 C 18.972656 6.113281 18.953125 6.0625 18.929688 6.023438 C 18.914062 5.988281 18.894531 5.96875 18.890625 5.933594 C 18.886719 5.902344 18.898438 5.894531 18.878906 5.859375 C 18.835938 5.78125 18.75 5.800781 18.75 5.914062 C 18.75 6.148438 18.835938 6.222656 19.011719 6.375 " fill-opacity="1" fill-rule="nonzero"/><path fill="#014d4e" d="M 9.820312 24.847656 C 9.707031 24.847656 9.65625 25.035156 9.75 25.03125 C 9.855469 25.03125 9.929688 24.863281 9.820312 24.847656 " fill-opacity="1" fill-rule="nonzero"/><path fill="#014d4e" d="M 18.710938 7.039062 C 18.6875 7.015625 18.640625 7.015625 18.597656 7.019531 C 18.453125 7.03125 18.503906 7.308594 18.671875 7.210938 C 18.730469 7.171875 18.757812 7.089844 18.710938 7.039062 " fill-opacity="1" fill-rule="nonzero"/><g clip-path="url(#02fd86a742)"><path fill="#014d4e" d="M 17.5625 14.785156 C 17.457031 14.753906 17.441406 14.832031 17.390625 14.859375 C 17.363281 14.871094 17.351562 14.871094 17.347656 14.867188 C 17.335938 14.851562 17.355469 14.777344 17.386719 14.742188 C 17.402344 14.730469 17.421875 14.726562 17.433594 14.707031 C 17.460938 14.65625 17.433594 14.589844 17.371094 14.582031 C 17.351562 14.582031 17.332031 14.585938 17.316406 14.59375 C 17.285156 14.601562 17.277344 14.601562 17.269531 14.589844 C 17.269531 14.582031 17.269531 14.570312 17.257812 14.554688 C 17.199219 14.46875 17.101562 14.535156 17.074219 14.632812 C 17.070312 14.644531 17.0625 14.695312 17.050781 14.699219 C 17.039062 14.707031 17.003906 14.714844 16.984375 14.730469 C 16.9375 14.761719 16.949219 14.828125 16.964844 14.882812 C 16.984375 14.953125 16.960938 15.054688 16.882812 15.039062 C 16.820312 15.023438 16.832031 14.949219 16.875 14.910156 L 16.910156 14.875 C 16.835938 14.855469 16.855469 14.863281 16.796875 14.851562 C 16.804688 14.820312 16.828125 14.789062 16.847656 14.773438 C 16.859375 14.761719 16.875 14.75 16.875 14.734375 C 16.875 14.714844 16.863281 14.703125 16.847656 14.6875 C 16.828125 14.65625 16.835938 14.617188 16.910156 14.585938 C 16.953125 14.570312 16.949219 14.570312 16.988281 14.546875 C 17.042969 14.519531 17.113281 14.484375 17.125 14.421875 C 17.136719 14.359375 17.097656 14.339844 17.085938 14.335938 C 17.042969 14.320312 16.972656 14.347656 16.945312 14.410156 C 16.941406 14.417969 16.933594 14.433594 16.929688 14.4375 C 16.917969 14.449219 16.902344 14.453125 16.902344 14.453125 C 16.902344 14.453125 16.898438 14.449219 16.902344 14.425781 C 16.921875 14.335938 17.160156 14.085938 17.046875 14.027344 C 17.019531 14.011719 16.988281 14.023438 16.960938 14.039062 C 16.957031 14.027344 16.917969 14.027344 16.917969 14.027344 C 16.863281 14.046875 16.789062 14.214844 16.773438 14.378906 C 16.769531 14.421875 16.765625 14.464844 16.742188 14.484375 C 16.734375 14.488281 16.699219 14.5 16.683594 14.507812 C 16.667969 14.515625 16.660156 14.527344 16.652344 14.539062 C 16.644531 14.546875 16.628906 14.554688 16.625 14.5625 C 16.609375 14.570312 16.59375 14.582031 16.578125 14.59375 C 16.554688 14.59375 16.511719 14.613281 16.496094 14.621094 C 16.464844 14.644531 16.445312 14.671875 16.417969 14.695312 C 16.402344 14.710938 16.234375 14.863281 16.210938 14.855469 C 16.203125 14.855469 16.183594 14.835938 16.175781 14.828125 C 16.121094 14.78125 16.0625 14.777344 15.871094 14.734375 C 15.871094 14.714844 15.871094 14.695312 15.867188 14.675781 C 15.863281 14.652344 15.859375 14.632812 15.863281 14.613281 C 15.871094 14.570312 15.886719 14.527344 15.902344 14.480469 C 15.914062 14.449219 15.925781 14.414062 15.933594 14.375 C 15.949219 14.308594 15.921875 14.273438 15.890625 14.234375 C 15.878906 14.226562 15.871094 14.222656 15.863281 14.21875 C 15.855469 14.214844 15.855469 14.214844 15.851562 14.210938 C 15.847656 14.203125 15.847656 14.195312 15.84375 14.179688 C 15.84375 14.160156 15.839844 14.132812 15.8125 14.109375 C 15.753906 14.070312 15.714844 14.113281 15.691406 14.140625 C 15.65625 14.175781 15.640625 14.195312 15.601562 14.175781 C 15.546875 14.144531 15.464844 14.007812 15.476562 13.882812 C 15.480469 13.800781 15.519531 13.75 15.589844 13.722656 C 15.621094 13.714844 15.730469 13.71875 15.8125 13.730469 C 15.851562 13.738281 15.886719 13.714844 15.898438 13.675781 C 15.902344 13.65625 15.90625 13.617188 15.890625 13.601562 C 15.832031 13.554688 15.714844 13.566406 15.59375 13.582031 C 15.578125 13.585938 15.566406 13.585938 15.554688 13.589844 C 15.53125 13.59375 15.503906 13.597656 15.480469 13.601562 C 15.171875 13.664062 14.976562 13.910156 14.820312 14.105469 C 14.8125 14.117188 14.800781 14.125 14.789062 14.132812 C 14.773438 14.140625 14.753906 14.15625 14.742188 14.175781 C 14.710938 14.210938 14.679688 14.289062 14.679688 14.289062 C 14.648438 14.382812 14.65625 14.484375 14.664062 14.589844 C 14.671875 14.679688 14.679688 14.773438 14.660156 14.867188 C 14.5625 15.363281 14.3125 15.679688 13.878906 15.867188 C 13.695312 15.941406 13.644531 16.199219 13.585938 16.492188 C 13.503906 16.890625 13.4375 17.398438 12.390625 18.097656 C 12.21875 18.214844 12.164062 18.375 12.027344 18.480469 C 11.800781 18.65625 11.710938 18.648438 11.472656 18.941406 C 11.082031 19.414062 10.910156 19.222656 10.484375 19.632812 C 10.261719 19.84375 10.207031 19.84375 10.125 19.84375 C 9.902344 19.851562 9.703125 19.964844 9.5625 20.144531 C 9.4375 20.304688 9.308594 20.273438 9.226562 20.410156 L 9.214844 20.445312 C 9.210938 20.492188 9.230469 20.5 9.21875 20.539062 C 9.203125 20.585938 9.167969 20.597656 9.144531 20.625 C 9.121094 20.652344 9.097656 20.679688 9.050781 20.710938 C 8.992188 20.75 8.933594 20.832031 8.960938 20.945312 C 8.960938 20.949219 8.960938 20.953125 8.957031 20.957031 C 8.957031 20.964844 8.949219 20.96875 8.941406 20.96875 C 8.808594 20.992188 8.632812 21.171875 8.5625 21.289062 C 8.550781 21.28125 8.535156 21.28125 8.523438 21.285156 C 8.496094 21.289062 8.488281 21.304688 8.472656 21.324219 C 8.421875 21.378906 8.34375 21.359375 8.335938 21.460938 C 8.332031 21.507812 8.378906 21.582031 8.371094 21.617188 C 8.359375 21.65625 8.304688 21.65625 8.300781 21.605469 C 8.300781 21.578125 8.304688 21.550781 8.277344 21.539062 C 8.234375 21.515625 8.183594 21.582031 8.152344 21.621094 C 8.128906 21.652344 8.097656 21.691406 8.0625 21.707031 C 8 21.730469 7.996094 21.777344 8.035156 21.820312 C 7.976562 21.800781 7.902344 21.851562 7.964844 21.9375 C 7.96875 21.945312 7.972656 21.949219 7.976562 21.957031 C 7.949219 21.9375 7.933594 21.921875 7.910156 21.898438 C 7.757812 21.984375 7.898438 22.101562 7.921875 22.179688 C 7.5625 22.097656 7.382812 22.558594 7.492188 22.777344 C 7.496094 22.789062 7.503906 22.804688 7.503906 22.804688 C 7.492188 22.820312 7.40625 22.828125 7.386719 22.832031 C 7.351562 22.832031 7.3125 22.832031 7.277344 22.855469 C 7.160156 22.925781 7.226562 23.082031 7.328125 23.035156 C 7.355469 23.078125 7.433594 23.101562 7.523438 23.054688 C 7.578125 23.03125 7.589844 23.027344 7.601562 23.046875 C 7.628906 23.089844 7.492188 23.136719 7.417969 23.125 C 7.015625 23.050781 7.027344 23.292969 7.09375 23.351562 C 7.113281 23.371094 7.148438 23.382812 7.152344 23.40625 L 7.160156 23.425781 C 7.410156 23.429688 7.679688 23.402344 7.609375 23.5625 C 7.589844 23.605469 7.597656 23.605469 7.53125 23.640625 C 7.488281 23.664062 7.433594 23.695312 7.4375 23.757812 C 7.464844 24.039062 8.027344 24 8.214844 24.011719 C 8.34375 24.019531 8.34375 23.972656 8.378906 23.90625 C 8.457031 23.753906 8.597656 23.847656 8.722656 23.960938 C 8.738281 23.972656 8.738281 24.003906 8.738281 24.039062 C 8.738281 24.074219 8.738281 24.117188 8.761719 24.152344 C 8.921875 24.441406 9.195312 24.023438 9.382812 24.347656 C 9.398438 24.371094 9.410156 24.410156 9.398438 24.4375 L 9.433594 24.472656 C 9.441406 24.46875 9.445312 24.46875 9.449219 24.464844 C 9.492188 24.445312 9.503906 24.460938 9.496094 24.480469 C 9.472656 24.53125 9.472656 24.648438 9.585938 24.695312 C 9.835938 24.800781 9.90625 24.460938 10.152344 24.6875 C 10.25 24.777344 10.476562 24.84375 10.769531 24.773438 C 10.859375 24.753906 10.945312 24.71875 11.023438 24.675781 C 11.1875 24.589844 11.402344 24.445312 11.519531 24.238281 C 11.632812 24.03125 11.867188 24.078125 11.96875 23.820312 C 12.03125 23.664062 12.09375 23.527344 12.269531 23.488281 C 12.398438 23.460938 12.609375 23.492188 12.691406 23.359375 C 12.738281 23.28125 12.667969 23.1875 12.585938 23.140625 C 12.5625 23.125 12.5625 23.125 12.546875 23.113281 C 12.542969 23.117188 12.507812 23.128906 12.503906 23.132812 C 12.652344 22.960938 12.820312 22.574219 12.824219 22.445312 C 12.839844 22.0625 13.109375 22.066406 13.203125 21.714844 C 13.234375 21.605469 13.242188 21.492188 13.25 21.375 C 13.257812 21.222656 13.269531 21.066406 13.332031 20.898438 C 13.574219 20.226562 13.746094 20.421875 14.277344 19.972656 C 14.371094 19.890625 14.71875 19.753906 14.820312 19.730469 C 15.042969 19.667969 15.347656 19.722656 15.496094 19.746094 C 15.730469 19.78125 15.832031 19.632812 15.800781 19.507812 C 15.769531 19.371094 15.664062 19.332031 15.574219 19.296875 C 15.398438 19.234375 15.355469 19.1875 15.34375 18.933594 C 15.328125 18.644531 15.59375 18.367188 15.789062 18.167969 C 16.507812 17.425781 16.371094 17.328125 16.460938 17.183594 C 16.476562 17.160156 16.496094 17.15625 16.527344 17.152344 C 16.644531 17.144531 16.652344 17.082031 16.691406 17.011719 C 16.726562 16.957031 16.785156 16.914062 16.832031 16.867188 C 16.933594 16.757812 16.941406 16.617188 16.976562 16.492188 C 17.011719 16.347656 17.078125 16.375 17.238281 16.152344 C 17.296875 16.070312 17.308594 16.054688 17.320312 16.035156 C 17.34375 16.003906 17.355469 15.984375 17.382812 15.964844 C 17.433594 15.929688 17.4375 15.894531 17.417969 15.863281 L 17.410156 15.855469 C 17.375 15.847656 17.324219 15.839844 17.300781 15.816406 C 17.253906 15.757812 17.285156 15.695312 17.292969 15.625 C 17.300781 15.546875 17.25 15.503906 17.207031 15.507812 C 17.1875 15.511719 17.164062 15.492188 17.15625 15.476562 C 17.125 15.367188 17.164062 15.289062 17.21875 15.195312 C 17.238281 15.164062 17.246094 15.164062 17.257812 15.167969 C 17.261719 15.171875 17.269531 15.175781 17.277344 15.179688 C 17.3125 15.195312 17.351562 15.183594 17.378906 15.148438 C 17.398438 15.125 17.410156 15.09375 17.414062 15.066406 C 17.433594 15.011719 17.441406 15.003906 17.484375 14.980469 C 17.550781 14.945312 17.597656 14.902344 17.566406 14.796875 L 17.5625 14.785156 " fill-opacity="1" fill-rule="nonzero"/></g><path fill="#014d4e" d="M 18.609375 6.421875 C 18.714844 6.40625 18.738281 6.265625 18.621094 6.21875 L 18.617188 6.222656 C 18.589844 6.210938 18.554688 6.21875 18.53125 6.238281 C 18.453125 6.296875 18.496094 6.4375 18.609375 6.421875 " fill-opacity="1" fill-rule="nonzero"/></svg>