<svg xmlns="http://www.w3.org/2000/svg" xmlns:xlink="http://www.w3.org/1999/xlink" width="40" zoomAndPan="magnify" viewBox="0 0 30 30.000001" height="40" preserveAspectRatio="xMidYMid meet" version="1.0"><defs><clipPath id="3dbe74e9e7"><path d="M 6.363281 6 L 23.78125 6 L 23.78125 26.128906 L 6.363281 26.128906 Z M 6.363281 6 " clip-rule="nonzero"/></clipPath><clipPath id="c3f1102c5a"><path d="M 15 2.902344 L 17 2.902344 L 17 5 L 15 5 Z M 15 2.902344 " clip-rule="nonzero"/></clipPath></defs><path fill="#014d4e" d="M 21.566406 16.75 C 21.597656 16.824219 21.53125 16.882812 21.5625 16.945312 C 21.574219 16.96875 21.625 16.980469 21.636719 17 C 21.664062 17.039062 21.617188 17.066406 21.628906 17.113281 C 21.753906 17.113281 21.648438 17.226562 21.597656 17.253906 C 21.546875 17.28125 21.515625 17.320312 21.46875 17.347656 C 21.429688 17.375 21.378906 17.359375 21.351562 17.40625 C 21.328125 17.441406 21.339844 17.488281 21.328125 17.527344 C 21.316406 17.570312 21.289062 17.609375 21.269531 17.648438 C 21.226562 17.730469 21.25 17.792969 21.164062 17.839844 C 21.101562 17.871094 21.039062 18.015625 20.964844 18.023438 C 20.929688 17.902344 20.933594 17.785156 20.945312 17.664062 C 20.957031 17.539062 21.070312 17.453125 21.128906 17.355469 C 21.164062 17.375 21.183594 17.386719 21.222656 17.363281 C 21.234375 17.355469 21.246094 17.34375 21.257812 17.328125 C 21.261719 17.316406 21.265625 17.304688 21.269531 17.292969 C 21.238281 17.203125 21.328125 17.046875 21.394531 16.988281 C 21.460938 16.9375 21.46875 16.925781 21.46875 16.839844 C 21.46875 16.75 21.5 16.757812 21.566406 16.75 Z M 21.566406 16.75 " fill-opacity="1" fill-rule="nonzero"/><g clip-path="url(#3dbe74e9e7)"><path fill="#014d4e" d="M 22.96875 13.875 C 22.972656 13.878906 22.972656 13.875 22.96875 13.875 C 22.972656 13.871094 22.972656 13.871094 22.96875 13.875 Z M 15.179688 6.597656 C 15.1875 6.621094 15.238281 6.640625 15.230469 6.671875 C 15.21875 6.703125 15.167969 6.664062 15.144531 6.65625 C 15.132812 6.652344 15.070312 6.632812 15.0625 6.644531 C 15.039062 6.671875 15.101562 6.699219 15.117188 6.722656 C 15.183594 6.78125 15.203125 6.871094 15.261719 6.9375 C 15.316406 7.011719 15.417969 6.945312 15.484375 6.90625 C 15.566406 6.855469 15.480469 6.765625 15.589844 6.734375 C 15.617188 6.726562 15.671875 6.730469 15.695312 6.714844 C 15.722656 6.699219 15.726562 6.667969 15.757812 6.648438 C 15.804688 6.625 15.8125 6.636719 15.828125 6.582031 C 15.839844 6.539062 15.820312 6.535156 15.816406 6.503906 C 15.8125 6.472656 15.8125 6.457031 15.824219 6.429688 C 15.863281 6.441406 15.90625 6.441406 15.941406 6.40625 C 15.992188 6.445312 15.964844 6.550781 15.988281 6.609375 C 16.003906 6.648438 16.042969 6.679688 16.0625 6.722656 C 16.078125 6.761719 16.09375 6.804688 16.105469 6.847656 C 16.136719 6.933594 16.132812 7.035156 16.171875 7.121094 C 16.222656 7.234375 16.320312 7.332031 16.386719 7.4375 C 16.449219 7.535156 16.472656 7.640625 16.558594 7.730469 C 16.625 7.804688 16.710938 7.847656 16.769531 7.929688 C 16.921875 8.136719 17.042969 8.375 17.222656 8.554688 C 17.304688 8.640625 17.410156 8.703125 17.507812 8.773438 C 17.558594 8.808594 17.59375 8.863281 17.628906 8.910156 C 17.660156 8.929688 17.695312 8.949219 17.707031 8.960938 C 17.792969 9.007812 17.886719 9.027344 17.984375 9.0625 C 18.105469 9.097656 18.21875 9.136719 18.332031 9.179688 C 18.449219 9.21875 18.546875 9.304688 18.667969 9.335938 C 18.730469 9.351562 18.789062 9.347656 18.851562 9.367188 C 18.890625 9.382812 18.898438 9.386719 18.941406 9.382812 C 18.96875 9.378906 19.003906 9.367188 19.027344 9.367188 C 19.09375 9.367188 19.128906 9.421875 19.179688 9.457031 C 19.234375 9.488281 19.320312 9.507812 19.378906 9.519531 C 19.425781 9.535156 19.472656 9.523438 19.515625 9.523438 C 19.5625 9.53125 19.609375 9.558594 19.652344 9.554688 C 19.695312 9.554688 19.734375 9.519531 19.777344 9.511719 C 19.824219 9.5 19.847656 9.507812 19.894531 9.515625 C 20.046875 9.550781 20.140625 9.683594 20.285156 9.730469 C 20.367188 9.753906 20.421875 9.816406 20.511719 9.78125 C 20.574219 9.753906 20.644531 9.695312 20.714844 9.679688 C 20.777344 9.664062 20.855469 9.75 20.902344 9.796875 C 20.964844 9.851562 21.023438 9.894531 21.097656 9.925781 C 21.246094 9.988281 21.308594 10.109375 21.320312 10.269531 C 21.359375 10.316406 21.390625 10.359375 21.445312 10.402344 C 21.480469 10.429688 21.523438 10.457031 21.535156 10.503906 C 21.605469 10.492188 21.597656 10.554688 21.605469 10.609375 C 21.617188 10.664062 21.636719 10.671875 21.691406 10.710938 C 21.742188 10.746094 21.765625 10.765625 21.773438 10.828125 C 21.78125 10.890625 21.792969 10.925781 21.824219 10.984375 C 21.859375 11.042969 21.917969 11.074219 21.953125 11.132812 C 21.988281 11.199219 21.980469 11.234375 22.046875 11.28125 C 22.15625 11.363281 22.269531 11.40625 22.296875 11.546875 C 22.3125 11.625 22.359375 11.664062 22.390625 11.734375 C 22.402344 11.769531 22.410156 11.808594 22.429688 11.839844 C 22.464844 11.890625 22.453125 11.851562 22.492188 11.863281 C 22.558594 11.886719 22.558594 11.953125 22.605469 12.007812 C 22.675781 12.085938 22.757812 12.144531 22.839844 12.210938 C 22.917969 12.28125 23.003906 12.296875 23.105469 12.324219 C 23.167969 12.34375 23.226562 12.351562 23.285156 12.378906 C 23.320312 12.394531 23.355469 12.425781 23.390625 12.429688 C 23.488281 12.441406 23.511719 12.363281 23.578125 12.476562 C 23.601562 12.515625 23.617188 12.574219 23.625 12.617188 C 23.636719 12.667969 23.617188 12.667969 23.59375 12.71875 C 23.550781 12.820312 23.59375 12.910156 23.578125 13.015625 C 23.570312 13.074219 23.539062 13.117188 23.523438 13.175781 C 23.496094 13.242188 23.476562 13.25 23.421875 13.292969 C 23.320312 13.371094 23.257812 13.492188 23.246094 13.617188 C 23.238281 13.71875 23.203125 13.832031 23.101562 13.851562 C 23.097656 13.851562 23.089844 13.855469 23.085938 13.855469 C 23.070312 13.886719 23.058594 13.910156 23.054688 13.914062 C 23.03125 13.953125 23.003906 13.996094 22.980469 14.035156 C 22.949219 14.09375 22.976562 14.136719 22.925781 14.1875 C 22.875 14.246094 22.808594 14.285156 22.78125 14.359375 C 22.757812 14.417969 22.789062 14.46875 22.761719 14.527344 C 22.707031 14.65625 22.570312 14.746094 22.539062 14.890625 C 22.535156 14.917969 22.519531 14.957031 22.515625 14.980469 C 22.511719 15.015625 22.535156 15.019531 22.507812 15.058594 C 22.46875 15.101562 22.359375 15.140625 22.304688 15.175781 C 22.183594 15.242188 22.0625 15.3125 21.945312 15.382812 C 21.832031 15.445312 21.78125 15.546875 21.683594 15.632812 C 21.578125 15.722656 21.5 15.820312 21.433594 15.941406 C 21.378906 16.035156 21.316406 16.109375 21.285156 16.207031 C 21.257812 16.296875 21.183594 16.335938 21.132812 16.410156 C 21.113281 16.445312 21.097656 16.476562 21.066406 16.503906 C 21.046875 16.515625 20.976562 16.53125 20.992188 16.574219 C 21.019531 16.636719 21.144531 16.53125 21.152344 16.613281 C 21.15625 16.667969 21.035156 16.726562 20.996094 16.753906 C 20.902344 16.816406 20.863281 16.921875 20.804688 17.011719 C 20.773438 17.066406 20.769531 17.125 20.742188 17.179688 C 20.722656 17.210938 20.695312 17.234375 20.6875 17.269531 C 20.683594 17.289062 20.691406 17.3125 20.6875 17.332031 C 20.667969 17.46875 20.550781 17.453125 20.476562 17.539062 C 20.453125 17.5625 20.46875 17.574219 20.4375 17.589844 C 20.410156 17.605469 20.378906 17.582031 20.347656 17.574219 C 20.292969 17.558594 20.234375 17.539062 20.179688 17.53125 C 20.136719 17.523438 20.113281 17.511719 20.078125 17.542969 C 20.046875 17.523438 19.984375 17.511719 19.964844 17.476562 C 19.917969 17.40625 20.03125 17.277344 20.054688 17.207031 C 20.089844 17.113281 20.15625 16.988281 20.039062 16.953125 C 19.945312 16.925781 19.902344 16.992188 19.832031 17.039062 C 19.765625 17.078125 19.71875 17.03125 19.691406 17.121094 C 19.675781 17.171875 19.683594 17.285156 19.648438 17.320312 C 19.601562 17.378906 19.398438 17.359375 19.410156 17.492188 C 19.414062 17.53125 19.496094 17.5625 19.484375 17.609375 C 19.476562 17.636719 19.429688 17.652344 19.40625 17.664062 C 19.355469 17.691406 19.339844 17.679688 19.28125 17.6875 C 19.273438 17.6875 19.261719 17.691406 19.253906 17.695312 C 19.242188 17.710938 19.234375 17.734375 19.230469 17.746094 C 19.195312 17.804688 19.132812 17.84375 19.117188 17.910156 C 19.113281 17.933594 19.105469 17.976562 19.109375 18 C 19.121094 18.039062 19.152344 18.046875 19.160156 18.085938 C 19.171875 18.140625 19.117188 18.246094 19.101562 18.300781 C 19.085938 18.371094 19.085938 18.445312 19.0625 18.511719 C 19.046875 18.5625 19.015625 18.605469 19 18.652344 C 18.984375 18.699219 18.988281 18.746094 18.972656 18.792969 C 18.945312 18.867188 18.890625 18.902344 18.855469 18.96875 C 18.84375 18.992188 18.796875 19.054688 18.8125 19.082031 C 18.828125 19.117188 18.875 19.09375 18.894531 19.128906 C 18.949219 19.203125 18.847656 19.339844 18.84375 19.417969 C 18.84375 19.480469 18.886719 19.519531 18.90625 19.574219 C 18.925781 19.632812 18.941406 19.691406 18.960938 19.753906 C 18.976562 19.816406 18.984375 19.863281 18.960938 19.925781 C 18.957031 19.9375 18.941406 19.964844 18.929688 19.992188 C 18.949219 20.054688 18.96875 20.125 18.980469 20.191406 C 18.988281 20.234375 19.007812 20.257812 19.035156 20.28125 C 19.074219 20.316406 19.082031 20.285156 19.09375 20.335938 C 19.113281 20.414062 19.050781 20.476562 19.101562 20.5625 C 19.140625 20.636719 19.164062 20.671875 19.105469 20.722656 C 19.082031 20.742188 19.082031 20.765625 19.035156 20.769531 C 19.011719 20.773438 18.96875 20.742188 18.945312 20.746094 C 18.898438 20.765625 18.898438 20.859375 18.824219 20.863281 C 18.792969 20.863281 18.75 20.839844 18.714844 20.832031 C 18.667969 20.824219 18.621094 20.820312 18.566406 20.824219 C 18.453125 20.832031 18.34375 20.808594 18.230469 20.835938 C 18.113281 20.867188 18.007812 20.828125 17.890625 20.871094 C 17.761719 20.917969 17.632812 20.933594 17.503906 20.976562 C 17.394531 21.019531 17.28125 21.066406 17.167969 21.101562 C 17.070312 21.136719 17.007812 21.199219 16.933594 21.277344 C 16.796875 21.421875 16.617188 21.511719 16.546875 21.710938 C 16.523438 21.78125 16.542969 21.84375 16.539062 21.917969 C 16.539062 21.984375 16.492188 22.007812 16.476562 22.066406 C 16.464844 22.117188 16.484375 22.183594 16.46875 22.238281 C 16.457031 22.289062 16.425781 22.328125 16.402344 22.367188 C 16.375 22.410156 16.339844 22.460938 16.328125 22.503906 C 16.3125 22.566406 16.34375 22.582031 16.382812 22.625 C 16.347656 22.660156 16.308594 22.664062 16.277344 22.691406 C 16.246094 22.714844 16.230469 22.753906 16.203125 22.78125 C 16.152344 22.835938 16.085938 22.832031 16.0625 22.898438 C 16.050781 22.9375 16.054688 22.949219 16.019531 22.976562 C 15.992188 23.003906 15.949219 23.015625 15.925781 23.042969 C 15.886719 23.082031 15.925781 23.171875 15.863281 23.1875 C 15.832031 23.195312 15.75 23.144531 15.707031 23.117188 C 15.679688 23.113281 15.644531 23.109375 15.617188 23.105469 C 15.621094 23.105469 15.621094 23.109375 15.621094 23.113281 C 15.5625 23.128906 15.5 23.128906 15.445312 23.144531 C 15.414062 23.152344 15.390625 23.171875 15.363281 23.179688 C 15.332031 23.1875 15.304688 23.175781 15.269531 23.167969 C 15.195312 23.152344 15.121094 23.167969 15.046875 23.175781 C 15 23.179688 14.988281 23.199219 14.945312 23.226562 C 14.910156 23.25 14.894531 23.253906 14.839844 23.25 C 14.75 23.242188 14.65625 23.253906 14.5625 23.257812 C 14.488281 23.261719 14.425781 23.285156 14.359375 23.285156 C 14.285156 23.285156 14.214844 23.28125 14.140625 23.308594 C 14.09375 23.328125 14.058594 23.367188 14.007812 23.382812 C 13.960938 23.398438 13.894531 23.390625 13.851562 23.429688 C 13.808594 23.476562 13.847656 23.484375 13.839844 23.535156 C 13.832031 23.601562 13.78125 23.574219 13.757812 23.613281 C 13.730469 23.660156 13.785156 23.691406 13.734375 23.738281 C 13.710938 23.757812 13.675781 23.769531 13.652344 23.796875 C 13.621094 23.832031 13.601562 23.871094 13.574219 23.902344 C 13.523438 23.960938 13.464844 23.996094 13.441406 24.074219 C 13.429688 24.125 13.421875 24.199219 13.425781 24.25 C 13.449219 24.253906 13.476562 24.246094 13.496094 24.234375 C 13.539062 24.289062 13.53125 24.316406 13.542969 24.375 C 13.550781 24.410156 13.566406 24.417969 13.566406 24.453125 C 13.566406 24.488281 13.53125 24.53125 13.519531 24.566406 C 13.507812 24.59375 13.480469 24.648438 13.480469 24.675781 C 13.480469 24.703125 13.503906 24.722656 13.503906 24.75 C 13.503906 24.800781 13.488281 24.773438 13.457031 24.800781 C 13.425781 24.824219 13.40625 24.863281 13.386719 24.894531 C 13.371094 24.917969 13.367188 24.953125 13.351562 24.976562 C 13.316406 25.019531 13.324219 24.988281 13.273438 25.007812 C 13.25 25.019531 13.222656 25.050781 13.203125 25.074219 C 13.160156 25.132812 13.125 25.175781 13.0625 25.226562 C 13.019531 25.261719 12.988281 25.285156 12.929688 25.296875 C 12.882812 25.304688 12.859375 25.308594 12.816406 25.339844 C 12.765625 25.371094 12.738281 25.375 12.683594 25.378906 C 12.621094 25.386719 12.585938 25.417969 12.53125 25.429688 C 12.4375 25.453125 12.347656 25.417969 12.265625 25.371094 C 12.195312 25.332031 12.203125 25.273438 12.144531 25.214844 C 12.140625 25.210938 12.136719 25.203125 12.132812 25.199219 C 12 25.195312 11.867188 25.222656 11.726562 25.238281 C 11.625 25.25 11.511719 25.25 11.410156 25.238281 C 11.363281 25.234375 11.308594 25.214844 11.261719 25.222656 C 11.207031 25.230469 11.171875 25.269531 11.117188 25.277344 C 11.019531 25.292969 10.914062 25.296875 10.824219 25.347656 C 10.726562 25.398438 10.816406 25.429688 10.777344 25.496094 C 10.757812 25.519531 10.703125 25.515625 10.675781 25.519531 C 10.632812 25.527344 10.59375 25.550781 10.554688 25.554688 C 10.492188 25.5625 10.433594 25.523438 10.375 25.53125 C 10.296875 25.539062 10.269531 25.589844 10.210938 25.636719 C 10.167969 25.667969 10.066406 25.695312 10.109375 25.761719 C 10.070312 25.800781 9.929688 25.875 9.878906 25.882812 C 9.835938 25.886719 9.8125 25.851562 9.765625 25.84375 C 9.730469 25.835938 9.679688 25.84375 9.644531 25.855469 C 9.597656 25.867188 9.554688 25.890625 9.503906 25.886719 C 9.457031 25.882812 9.421875 25.863281 9.375 25.875 C 9.285156 25.898438 9.199219 25.945312 9.113281 25.972656 C 9.035156 25.996094 8.976562 26.042969 8.90625 26.082031 C 8.886719 26.089844 8.867188 26.101562 8.84375 26.113281 L 8.222656 24.667969 C 8.222656 24.667969 7.949219 24.753906 8.128906 24.441406 L 6.363281 20.746094 L 12.960938 18.367188 L 14.382812 13.628906 L 13.34375 11.921875 C 13.347656 11.902344 13.355469 11.882812 13.363281 11.855469 C 13.371094 11.832031 13.382812 11.804688 13.382812 11.78125 C 13.390625 11.710938 13.371094 11.65625 13.378906 11.585938 C 13.394531 11.457031 13.316406 11.308594 13.355469 11.179688 C 13.359375 11.160156 13.382812 11.15625 13.386719 11.140625 C 13.390625 11.117188 13.375 11.109375 13.371094 11.089844 C 13.367188 11.054688 13.367188 11.046875 13.378906 11.011719 C 13.402344 10.945312 13.414062 10.875 13.46875 10.820312 C 13.496094 10.785156 13.53125 10.765625 13.554688 10.734375 C 13.585938 10.691406 13.59375 10.644531 13.609375 10.605469 C 13.636719 10.53125 13.664062 10.425781 13.710938 10.363281 C 13.714844 10.355469 13.746094 10.324219 13.753906 10.320312 C 13.769531 10.316406 13.792969 10.34375 13.800781 10.339844 C 13.832031 10.328125 13.835938 10.285156 13.84375 10.257812 C 13.855469 10.214844 13.855469 10.171875 13.867188 10.132812 C 13.882812 10.085938 13.917969 10.046875 13.945312 10.007812 C 14.023438 9.882812 14.207031 9.664062 14.089844 9.511719 C 14.054688 9.464844 14.046875 9.476562 14.050781 9.402344 C 14.050781 9.351562 14.050781 9.304688 14.050781 9.253906 C 14.050781 9.195312 14.027344 9.144531 14 9.097656 C 13.984375 9.070312 13.945312 9.027344 13.9375 9 C 13.917969 8.9375 13.972656 8.9375 14.015625 8.921875 C 14.097656 8.898438 14.152344 8.859375 14.222656 8.808594 C 14.269531 8.777344 14.324219 8.734375 14.382812 8.71875 C 14.425781 8.703125 14.480469 8.675781 14.523438 8.671875 C 14.53125 8.671875 14.554688 8.6875 14.566406 8.6875 C 14.597656 8.691406 14.589844 8.65625 14.617188 8.683594 C 14.664062 8.726562 14.59375 8.769531 14.683594 8.761719 C 14.746094 8.757812 14.816406 8.695312 14.875 8.675781 C 14.917969 8.660156 14.957031 8.640625 15.003906 8.628906 C 15.019531 8.625 15.078125 8.625 15.085938 8.617188 C 15.140625 8.574219 15.050781 8.53125 15.023438 8.5 C 14.964844 8.429688 15.046875 8.386719 15.015625 8.328125 C 14.984375 8.277344 14.886719 8.308594 14.839844 8.3125 C 14.769531 8.320312 14.722656 8.316406 14.65625 8.292969 C 14.609375 8.277344 14.566406 8.261719 14.542969 8.21875 C 14.558594 8.195312 14.585938 8.167969 14.613281 8.148438 C 14.621094 8.101562 14.636719 8.058594 14.648438 8.015625 C 14.851562 7.960938 14.542969 7.570312 14.550781 7.441406 C 14.554688 7.371094 14.621094 7.367188 14.636719 7.3125 C 14.640625 7.28125 14.613281 7.265625 14.621094 7.234375 C 14.632812 7.210938 14.671875 7.199219 14.683594 7.175781 C 14.707031 7.132812 14.691406 7.042969 14.691406 6.992188 C 14.691406 6.921875 14.699219 6.847656 14.6875 6.777344 C 14.671875 6.691406 14.632812 6.636719 14.652344 6.546875 C 14.671875 6.464844 14.722656 6.402344 14.800781 6.417969 C 14.839844 6.425781 14.851562 6.4375 14.890625 6.417969 C 14.929688 6.398438 14.933594 6.332031 14.980469 6.324219 C 15 6.320312 15.058594 6.351562 15.078125 6.359375 C 15.128906 6.375 15.136719 6.371094 15.15625 6.421875 C 15.195312 6.480469 15.160156 6.546875 15.179688 6.597656 Z M 15.179688 6.597656 " fill-opacity="1" fill-rule="nonzero"/></g><path fill="#014d4e" d="M 15.78125 5.5625 C 15.847656 5.558594 15.949219 5.570312 15.917969 5.652344 C 15.902344 5.691406 15.863281 5.707031 15.835938 5.730469 C 15.804688 5.761719 15.777344 5.816406 15.726562 5.816406 C 15.703125 5.816406 15.625 5.789062 15.605469 5.777344 C 15.578125 5.765625 15.546875 5.75 15.578125 5.699219 C 15.589844 5.675781 15.660156 5.644531 15.652344 5.601562 C 15.644531 5.542969 15.582031 5.574219 15.609375 5.507812 C 15.632812 5.453125 15.691406 5.476562 15.714844 5.453125 C 15.734375 5.492188 15.757812 5.527344 15.78125 5.5625 Z M 15.78125 5.5625 " fill-opacity="1" fill-rule="nonzero"/><g clip-path="url(#c3f1102c5a)"><path fill="#014d4e" d="M 16.007812 3.464844 C 15.96875 3.472656 15.929688 3.484375 15.890625 3.5 C 15.902344 3.574219 15.917969 3.640625 16.007812 3.648438 C 16.039062 3.652344 16.113281 3.625 16.125 3.683594 C 16.128906 3.707031 16.066406 3.769531 16.050781 3.800781 C 15.988281 3.902344 15.984375 4.007812 15.957031 4.125 C 15.941406 4.195312 15.960938 4.253906 15.941406 4.324219 C 15.925781 4.375 15.886719 4.421875 15.851562 4.460938 C 15.804688 4.515625 15.765625 4.5625 15.734375 4.632812 C 15.722656 4.660156 15.707031 4.695312 15.699219 4.726562 C 15.691406 4.761719 15.707031 4.804688 15.695312 4.832031 C 15.664062 4.914062 15.511719 4.886719 15.476562 4.8125 C 15.449219 4.757812 15.460938 4.683594 15.445312 4.621094 C 15.429688 4.570312 15.421875 4.515625 15.421875 4.464844 C 15.421875 4.402344 15.425781 4.367188 15.410156 4.308594 C 15.398438 4.257812 15.402344 4.238281 15.414062 4.199219 C 15.445312 4.097656 15.457031 3.972656 15.449219 3.867188 C 15.4375 3.761719 15.363281 3.777344 15.28125 3.757812 C 15.277344 3.625 15.363281 3.566406 15.425781 3.460938 C 15.457031 3.414062 15.464844 3.273438 15.523438 3.257812 C 15.582031 3.242188 15.582031 3.320312 15.589844 3.359375 C 15.621094 3.332031 15.679688 3.375 15.710938 3.359375 C 15.757812 3.335938 15.722656 3.25 15.738281 3.214844 C 15.753906 3.175781 15.800781 3.167969 15.824219 3.132812 C 15.847656 3.089844 15.851562 3.042969 15.863281 3 C 15.882812 2.933594 15.886719 2.917969 15.960938 2.941406 C 15.996094 2.953125 16.035156 2.980469 16.070312 2.996094 C 16.089844 3.003906 16.171875 3.03125 16.171875 3.0625 C 16.171875 3.101562 16.101562 3.105469 16.082031 3.125 C 16.050781 3.152344 16.03125 3.203125 16.070312 3.238281 C 16.097656 3.261719 16.132812 3.242188 16.164062 3.238281 C 16.167969 3.273438 16.191406 3.3125 16.183594 3.351562 C 16.171875 3.398438 16.132812 3.371094 16.097656 3.410156 C 16.121094 3.460938 16.257812 3.511719 16.132812 3.542969 C 16.070312 3.554688 16.003906 3.554688 16.007812 3.464844 Z M 16.007812 3.464844 " fill-opacity="1" fill-rule="nonzero"/></g></svg>