<svg xmlns="http://www.w3.org/2000/svg" xmlns:xlink="http://www.w3.org/1999/xlink" width="40" zoomAndPan="magnify" viewBox="0 0 30 30.000001" height="40" preserveAspectRatio="xMidYMid meet" version="1.0"><defs><clipPath id="c84b27ecec"><path d="M 3.386719 9.667969 L 26.613281 9.667969 L 26.613281 19.101562 L 3.386719 19.101562 Z M 3.386719 9.667969 " clip-rule="nonzero"/></clipPath></defs><g clip-path="url(#c84b27ecec)"><path fill="#014d4e" d="M 4.257812 9.894531 C 4.257812 9.894531 4.269531 9.800781 4.351562 9.835938 C 4.433594 9.871094 4.394531 9.9375 4.445312 9.929688 C 4.496094 9.921875 4.558594 9.878906 4.546875 9.960938 C 4.535156 10.039062 4.636719 9.960938 4.675781 10.003906 C 4.710938 10.046875 4.851562 10.113281 4.875 10.195312 C 4.894531 10.277344 4.910156 10.214844 4.980469 10.25 C 5.050781 10.285156 5.171875 10.378906 5.210938 10.277344 C 5.25 10.171875 5.191406 10.113281 5.230469 10.074219 C 5.269531 10.039062 5.3125 10.113281 5.394531 10.097656 C 5.476562 10.085938 5.375 9.960938 5.464844 10.039062 C 5.550781 10.121094 5.371094 9.988281 5.648438 10.214844 C 5.925781 10.4375 5.980469 10.613281 6.09375 10.609375 C 6.207031 10.605469 6.269531 10.46875 6.261719 10.554688 C 6.25 10.644531 6.285156 10.578125 6.234375 10.691406 C 6.183594 10.800781 6.023438 10.855469 6.078125 10.929688 C 6.132812 11 6.304688 10.988281 6.261719 11.074219 C 6.222656 11.164062 6.1875 11.226562 6.121094 11.171875 C 6.050781 11.121094 5.980469 11.171875 6.046875 11.214844 C 6.117188 11.257812 6.167969 11.277344 6.171875 11.347656 C 6.175781 11.421875 6.289062 11.527344 6.363281 11.507812 C 6.441406 11.492188 6.503906 11.460938 6.488281 11.40625 C 6.472656 11.347656 6.429688 11.3125 6.445312 11.226562 C 6.460938 11.136719 6.539062 11.03125 6.578125 11.082031 C 6.621094 11.132812 6.601562 11.160156 6.644531 11.21875 C 6.691406 11.277344 6.777344 11.363281 6.816406 11.394531 C 6.855469 11.425781 6.9375 11.40625 6.957031 11.320312 C 6.980469 11.230469 6.953125 11.167969 6.917969 11.167969 C 6.878906 11.167969 6.855469 11.109375 6.816406 11.0625 C 6.78125 11.011719 6.765625 10.9375 6.785156 10.882812 C 6.804688 10.828125 6.898438 10.882812 6.898438 10.882812 C 6.898438 10.882812 6.917969 10.882812 7 10.890625 C 7.082031 10.902344 7.089844 10.980469 7.117188 10.992188 C 7.140625 11.007812 7.273438 11.046875 7.28125 11.070312 C 7.289062 11.089844 7.253906 11.066406 7.191406 11.109375 C 7.128906 11.15625 7.015625 11.128906 7.054688 11.207031 C 7.09375 11.289062 7.058594 11.277344 7.125 11.347656 C 7.195312 11.421875 7.253906 11.449219 7.257812 11.511719 C 7.265625 11.570312 7.238281 11.578125 7.234375 11.660156 C 7.226562 11.742188 7.035156 11.75 7.039062 11.722656 C 7.042969 11.691406 6.980469 11.605469 6.976562 11.59375 C 6.976562 11.585938 7.050781 11.476562 7.050781 11.476562 C 7.050781 11.476562 7.058594 11.476562 7.046875 11.40625 C 7.035156 11.332031 7.085938 11.367188 7.0625 11.308594 C 7.039062 11.253906 6.992188 11.195312 6.992188 11.167969 C 6.992188 11.136719 6.976562 11.046875 6.976562 11.027344 C 6.976562 11.007812 6.90625 10.96875 6.867188 10.953125 C 6.828125 10.941406 6.878906 11.039062 6.894531 11.0625 C 6.910156 11.085938 6.917969 11.125 6.933594 11.140625 C 6.953125 11.160156 6.988281 11.203125 7 11.257812 C 7.011719 11.3125 7.007812 11.363281 6.996094 11.378906 C 6.988281 11.398438 6.949219 11.445312 6.9375 11.507812 C 6.921875 11.566406 6.929688 11.574219 6.925781 11.589844 C 6.917969 11.609375 6.953125 11.636719 6.976562 11.648438 C 6.996094 11.660156 7.007812 11.648438 7.003906 11.683594 C 7 11.71875 7.042969 11.738281 6.996094 11.738281 C 6.945312 11.734375 6.90625 11.699219 6.878906 11.679688 C 6.847656 11.660156 6.839844 11.621094 6.796875 11.605469 C 6.75 11.585938 6.769531 11.585938 6.714844 11.585938 C 6.660156 11.585938 6.648438 11.574219 6.640625 11.585938 C 6.628906 11.597656 6.597656 11.65625 6.585938 11.671875 C 6.570312 11.6875 6.589844 11.742188 6.59375 11.746094 C 6.597656 11.75 6.632812 11.800781 6.59375 11.804688 C 6.558594 11.8125 6.5 11.785156 6.523438 11.839844 C 6.546875 11.894531 6.636719 11.875 6.648438 11.902344 C 6.660156 11.925781 6.589844 12.179688 6.640625 12.21875 C 6.691406 12.257812 6.726562 12.238281 6.785156 12.273438 C 6.847656 12.308594 6.851562 12.296875 6.875 12.257812 C 6.894531 12.21875 6.933594 12.207031 6.960938 12.246094 C 6.988281 12.285156 6.980469 12.265625 7.066406 12.332031 C 7.15625 12.398438 7.121094 12.398438 7.164062 12.449219 C 7.203125 12.503906 7.203125 12.5 7.292969 12.515625 C 7.382812 12.53125 7.429688 12.480469 7.503906 12.449219 C 7.578125 12.417969 7.648438 12.414062 7.691406 12.445312 C 7.730469 12.480469 7.796875 12.511719 7.820312 12.480469 C 7.839844 12.453125 7.902344 12.410156 7.890625 12.359375 C 7.875 12.308594 7.84375 12.246094 7.925781 12.273438 C 8.007812 12.304688 8.019531 12.289062 8.035156 12.347656 C 8.046875 12.40625 8.023438 12.386719 8.109375 12.371094 C 8.191406 12.351562 8.214844 12.339844 8.273438 12.402344 C 8.332031 12.464844 8.386719 12.519531 8.433594 12.476562 C 8.480469 12.429688 8.527344 12.417969 8.507812 12.359375 C 8.488281 12.300781 8.480469 12.261719 8.410156 12.246094 C 8.339844 12.234375 8.207031 12.191406 8.199219 12.140625 C 8.195312 12.09375 8.136719 12.019531 8.117188 11.976562 C 8.097656 11.9375 8.027344 11.90625 8 11.90625 C 7.976562 11.90625 8.035156 11.855469 7.957031 11.808594 C 7.882812 11.765625 7.886719 11.785156 7.84375 11.75 C 7.800781 11.714844 7.78125 11.65625 7.808594 11.65625 C 7.839844 11.652344 7.933594 11.636719 7.953125 11.664062 C 7.976562 11.691406 7.917969 11.554688 7.917969 11.542969 C 7.917969 11.527344 7.96875 11.464844 8.03125 11.515625 C 8.097656 11.5625 8.097656 11.578125 8.136719 11.613281 C 8.175781 11.648438 8.167969 11.710938 8.246094 11.726562 C 8.320312 11.738281 8.40625 11.667969 8.394531 11.722656 C 8.386719 11.773438 8.269531 11.753906 8.273438 11.816406 C 8.277344 11.878906 8.273438 11.933594 8.316406 11.964844 C 8.359375 12 8.441406 11.941406 8.523438 12.007812 C 8.523438 12.007812 8.640625 12.023438 8.710938 12.164062 C 8.777344 12.308594 8.800781 12.304688 8.863281 12.394531 C 8.925781 12.484375 9.34375 12.863281 9.394531 12.929688 C 9.445312 13 9.53125 13.039062 9.585938 13.027344 C 9.640625 13.015625 9.820312 13.011719 9.898438 13.03125 C 9.976562 13.046875 10.148438 13.121094 10.195312 13.109375 C 10.242188 13.097656 10.402344 13.132812 10.449219 13.070312 C 10.492188 13.007812 10.566406 13.007812 10.695312 13.042969 C 10.824219 13.078125 10.890625 13.03125 11.167969 12.996094 C 11.449219 12.960938 11.824219 12.8125 11.914062 12.742188 C 12.003906 12.675781 12.027344 12.75 12.222656 12.613281 C 12.417969 12.480469 12.453125 12.261719 12.753906 12.160156 C 13.054688 12.0625 13.207031 11.835938 13.617188 11.777344 C 14.023438 11.722656 14.792969 11.609375 15.269531 11.128906 C 15.746094 10.644531 15.609375 10.753906 15.65625 10.9375 C 15.703125 11.121094 15.804688 11.015625 15.800781 10.886719 C 15.792969 10.753906 15.820312 10.617188 15.925781 10.644531 C 16.027344 10.671875 16.085938 10.828125 16.132812 10.695312 C 16.179688 10.566406 16.007812 10.480469 16.203125 10.507812 C 16.398438 10.535156 16.460938 10.546875 16.460938 10.476562 C 16.460938 10.402344 16.667969 10.265625 16.679688 10.207031 C 16.695312 10.148438 16.746094 10.019531 16.753906 9.945312 C 16.757812 9.875 16.898438 9.871094 16.9375 9.828125 C 16.976562 9.78125 17.132812 9.910156 17.164062 9.828125 C 17.195312 9.742188 17.359375 9.664062 17.320312 9.777344 C 17.28125 9.886719 17.328125 9.945312 17.328125 9.945312 C 17.328125 9.945312 17.523438 9.992188 17.554688 9.917969 C 17.589844 9.847656 17.648438 9.886719 17.738281 9.9375 C 17.828125 9.992188 17.90625 10.023438 18.066406 10.003906 C 18.230469 9.984375 18.207031 9.96875 18.324219 10.03125 C 18.445312 10.09375 18.464844 10.167969 18.558594 10.125 C 18.648438 10.082031 18.589844 10.03125 18.746094 10.054688 C 18.902344 10.078125 18.941406 10.144531 19.070312 10.089844 C 19.199219 10.035156 19.242188 9.96875 19.355469 10.019531 C 19.464844 10.074219 19.632812 10.007812 19.523438 10.074219 C 19.414062 10.136719 19.417969 10.144531 19.328125 10.152344 C 19.238281 10.15625 19.160156 10.101562 19.125 10.1875 C 19.089844 10.273438 19.070312 10.3125 19.097656 10.375 C 19.128906 10.433594 19.074219 10.46875 19.164062 10.492188 C 19.257812 10.515625 19.363281 10.484375 19.421875 10.46875 C 19.480469 10.453125 19.601562 10.457031 19.636719 10.515625 C 19.675781 10.574219 19.703125 10.691406 19.769531 10.625 C 19.832031 10.554688 19.914062 10.5 20.035156 10.535156 C 20.15625 10.574219 20.179688 10.445312 20.25 10.445312 C 20.324219 10.445312 20.371094 10.4375 20.472656 10.496094 C 20.574219 10.550781 20.679688 10.582031 20.726562 10.582031 C 20.777344 10.582031 20.898438 10.5625 21.007812 10.515625 C 21.117188 10.464844 21.144531 10.46875 21.246094 10.558594 C 21.347656 10.644531 21.398438 10.566406 21.5 10.644531 C 21.601562 10.71875 21.648438 10.714844 21.714844 10.753906 C 21.78125 10.789062 22.066406 10.769531 22.105469 10.898438 C 22.144531 11.03125 22.292969 10.984375 22.378906 11.03125 C 22.464844 11.074219 22.613281 11.125 22.625 11.125 C 22.632812 11.125 22.738281 11.148438 22.828125 11.21875 C 22.914062 11.289062 23.050781 11.269531 23.132812 11.328125 C 23.214844 11.390625 23.261719 11.445312 23.351562 11.527344 C 23.445312 11.613281 23.417969 11.535156 23.503906 11.675781 C 23.59375 11.816406 23.628906 11.886719 23.71875 11.945312 C 23.804688 12.003906 23.65625 11.765625 23.824219 11.90625 C 23.996094 12.050781 24.007812 11.964844 24.023438 12.078125 C 24.042969 12.195312 24.058594 12.15625 24.144531 12.242188 C 24.234375 12.332031 24.199219 12.277344 24.257812 12.429688 C 24.320312 12.582031 24.476562 12.5625 24.558594 12.742188 C 24.640625 12.925781 24.679688 12.984375 24.769531 13.003906 C 24.855469 13.027344 24.851562 13.054688 24.945312 13.132812 C 25.042969 13.210938 25.019531 13.042969 25.078125 13.132812 C 25.132812 13.21875 24.921875 13.316406 25.175781 13.457031 C 25.433594 13.597656 25.550781 13.574219 25.570312 13.582031 C 25.585938 13.59375 25.738281 13.5 25.707031 13.582031 C 25.679688 13.667969 25.589844 13.613281 25.617188 13.726562 C 25.644531 13.839844 25.476562 13.921875 25.445312 14.007812 C 25.417969 14.089844 25.382812 14.132812 25.4375 14.210938 C 25.496094 14.289062 25.566406 14.199219 25.664062 14.34375 C 25.765625 14.492188 25.804688 14.519531 25.839844 14.613281 C 25.875 14.710938 25.886719 14.734375 25.871094 14.835938 C 25.851562 14.941406 25.878906 14.96875 25.910156 15.019531 C 25.9375 15.070312 25.917969 15.09375 25.972656 15.160156 C 26.03125 15.222656 26.03125 15.273438 26.125 15.328125 C 26.222656 15.386719 26.253906 15.375 26.246094 15.453125 C 26.242188 15.535156 26.332031 15.667969 26.339844 15.765625 C 26.347656 15.859375 26.226562 15.90625 26.296875 15.996094 C 26.367188 16.082031 26.390625 16.074219 26.453125 16.160156 C 26.511719 16.246094 26.347656 16.222656 26.414062 16.304688 C 26.480469 16.386719 26.605469 16.4375 26.511719 16.46875 C 26.421875 16.5 26.234375 16.453125 26.195312 16.492188 C 26.15625 16.53125 26.007812 16.40625 25.960938 16.492188 C 25.914062 16.574219 25.832031 16.539062 25.820312 16.660156 C 25.8125 16.78125 25.726562 16.75 25.832031 16.882812 C 25.933594 17.011719 26.023438 17.148438 25.949219 17.15625 C 25.875 17.164062 25.878906 17.105469 25.78125 17.207031 C 25.6875 17.3125 25.652344 17.140625 25.601562 17.246094 C 25.546875 17.355469 25.542969 17.414062 25.445312 17.46875 C 25.351562 17.527344 25.300781 17.394531 25.3125 17.523438 C 25.324219 17.648438 25.367188 17.71875 25.28125 17.738281 C 25.195312 17.761719 25.171875 17.695312 25.136719 17.789062 C 25.101562 17.878906 25.085938 17.957031 25.035156 18.027344 C 24.980469 18.097656 24.945312 18.121094 24.878906 18.078125 C 24.808594 18.035156 24.703125 17.953125 24.6875 17.820312 C 24.667969 17.691406 24.628906 17.679688 24.632812 17.5625 C 24.636719 17.445312 24.507812 17.40625 24.488281 17.34375 C 24.472656 17.28125 24.382812 17.175781 24.304688 17.238281 C 24.222656 17.304688 24.199219 17.355469 24.210938 17.449219 C 24.222656 17.539062 24.152344 17.5625 24.191406 17.652344 C 24.230469 17.742188 24.253906 17.726562 24.285156 17.839844 C 24.316406 17.953125 24.363281 18.152344 24.363281 18.152344 C 24.363281 18.152344 24.371094 18.226562 24.292969 18.277344 C 24.214844 18.332031 24.191406 18.332031 24.132812 18.277344 C 24.070312 18.226562 24.027344 18.210938 24.011719 18.246094 C 24 18.277344 23.773438 19.175781 23.738281 19.210938 C 23.703125 19.246094 23.640625 19.203125 23.578125 19.144531 C 23.515625 19.082031 23.378906 19.019531 23.3125 18.933594 C 23.246094 18.847656 23.238281 18.828125 23.207031 18.753906 C 23.171875 18.679688 23.226562 18.570312 23.164062 18.554688 C 23.105469 18.542969 23.15625 18.421875 23.101562 18.410156 C 23.046875 18.402344 22.957031 18.496094 22.925781 18.371094 C 22.898438 18.242188 22.734375 18.300781 22.730469 18.183594 C 22.730469 18.066406 22.617188 18.117188 22.570312 18.058594 C 22.527344 17.996094 22.535156 18.019531 22.558594 17.9375 C 22.578125 17.859375 22.597656 17.804688 22.558594 17.824219 C 22.519531 17.847656 22.546875 17.96875 22.492188 17.910156 C 22.4375 17.847656 22.542969 17.761719 22.484375 17.679688 C 22.425781 17.597656 22.4375 17.617188 22.382812 17.59375 C 22.328125 17.570312 22.324219 17.523438 22.320312 17.507812 C 22.3125 17.496094 22.25 17.523438 22.222656 17.464844 C 22.195312 17.410156 22.175781 17.46875 22.152344 17.394531 C 22.128906 17.324219 22.148438 17.300781 22.164062 17.234375 C 22.179688 17.167969 22.152344 17.167969 22.128906 17.109375 C 22.109375 17.054688 21.941406 16.851562 21.933594 16.78125 C 21.921875 16.707031 21.921875 16.664062 21.867188 16.621094 C 21.8125 16.578125 21.761719 16.585938 21.734375 16.507812 C 21.703125 16.425781 21.71875 16.339844 21.699219 16.3125 C 21.675781 16.289062 21.601562 16.179688 21.597656 16.09375 C 21.597656 16.011719 21.464844 15.949219 21.519531 15.890625 C 21.578125 15.832031 21.675781 15.679688 21.6875 15.757812 C 21.699219 15.835938 21.65625 15.890625 21.703125 15.90625 C 21.703125 15.90625 21.78125 15.859375 21.835938 15.902344 C 21.890625 15.949219 22.011719 15.9375 22.03125 15.910156 C 22.050781 15.878906 22.222656 15.753906 22.253906 15.695312 C 22.285156 15.636719 22.382812 15.457031 22.28125 15.417969 C 22.183594 15.378906 22.089844 15.246094 22.09375 15.195312 C 22.101562 15.144531 22.175781 15.230469 22.203125 15.179688 C 22.234375 15.128906 22.207031 15.117188 22.203125 15.078125 C 22.199219 15.039062 22.238281 14.980469 22.28125 15.007812 C 22.324219 15.035156 22.332031 15.144531 22.402344 15.097656 C 22.472656 15.050781 22.585938 14.964844 22.566406 14.867188 C 22.542969 14.769531 22.539062 14.824219 22.59375 14.765625 C 22.648438 14.703125 22.601562 14.566406 22.644531 14.539062 C 22.6875 14.511719 22.75 14.507812 22.75 14.59375 C 22.75 14.679688 22.730469 14.738281 22.789062 14.765625 C 22.84375 14.792969 23.019531 14.8125 23.097656 15.039062 C 23.179688 15.265625 23.160156 15.292969 23.269531 15.296875 C 23.382812 15.296875 23.363281 15.285156 23.394531 15.242188 C 23.425781 15.199219 23.542969 15.285156 23.578125 15.296875 C 23.613281 15.304688 23.695312 15.296875 23.757812 15.382812 C 23.820312 15.46875 23.894531 15.589844 23.898438 15.523438 C 23.90625 15.457031 23.914062 15.472656 23.847656 15.425781 C 23.78125 15.375 23.769531 15.375 23.734375 15.320312 C 23.703125 15.269531 23.640625 15.226562 23.566406 15.230469 C 23.492188 15.230469 23.464844 15.167969 23.351562 15.167969 C 23.234375 15.167969 23.21875 15.152344 23.164062 15.015625 C 23.109375 14.878906 23.105469 14.867188 23.050781 14.777344 C 22.996094 14.6875 22.980469 14.601562 22.980469 14.519531 C 22.980469 14.433594 22.855469 14.363281 22.84375 14.320312 C 22.832031 14.277344 22.796875 14.273438 22.847656 14.21875 C 22.894531 14.167969 22.855469 14.046875 22.753906 14.074219 C 22.65625 14.105469 22.878906 14.132812 22.820312 14.195312 C 22.765625 14.261719 22.84375 14.351562 22.878906 14.429688 C 22.910156 14.507812 22.886719 14.523438 22.859375 14.542969 C 22.828125 14.558594 22.796875 14.503906 22.796875 14.472656 C 22.796875 14.441406 22.761719 14.328125 22.6875 14.351562 C 22.609375 14.371094 22.550781 14.363281 22.558594 14.4375 C 22.566406 14.511719 22.554688 14.5625 22.5 14.589844 C 22.449219 14.617188 22.449219 14.664062 22.410156 14.675781 C 22.371094 14.691406 22.265625 14.722656 22.238281 14.632812 C 22.214844 14.542969 22.226562 14.492188 22.3125 14.484375 C 22.394531 14.480469 22.464844 14.472656 22.445312 14.417969 C 22.425781 14.359375 22.363281 14.378906 22.382812 14.332031 C 22.386719 14.328125 22.390625 14.324219 22.390625 14.316406 C 22.417969 14.277344 22.453125 14.253906 22.441406 14.195312 C 22.425781 14.128906 22.371094 14.035156 22.34375 14.070312 C 22.3125 14.105469 22.316406 14.144531 22.355469 14.148438 C 22.394531 14.152344 22.421875 14.167969 22.425781 14.195312 C 22.425781 14.222656 22.421875 14.261719 22.371094 14.296875 C 22.324219 14.335938 22.40625 14.375 22.382812 14.417969 C 22.355469 14.457031 22.3125 14.488281 22.289062 14.472656 C 22.265625 14.457031 22.292969 14.441406 22.277344 14.402344 C 22.257812 14.363281 22.226562 14.375 22.238281 14.351562 C 22.25 14.328125 22.191406 14.304688 22.175781 14.351562 C 22.164062 14.402344 22.136719 14.503906 22.078125 14.445312 C 22.015625 14.386719 22.105469 14.324219 22.027344 14.339844 C 21.945312 14.355469 21.867188 14.464844 21.859375 14.492188 C 21.855469 14.515625 21.816406 14.515625 21.832031 14.585938 C 21.84375 14.652344 21.800781 14.640625 21.777344 14.703125 C 21.753906 14.765625 21.785156 14.800781 21.769531 14.839844 C 21.753906 14.882812 21.710938 14.875 21.703125 14.839844 C 21.699219 14.804688 21.601562 14.796875 21.574219 14.714844 C 21.546875 14.632812 21.476562 14.515625 21.410156 14.488281 C 21.34375 14.460938 21.25 14.367188 21.289062 14.273438 C 21.324219 14.179688 21.351562 14.144531 21.285156 14.09375 C 21.21875 14.039062 21.09375 13.957031 21.144531 13.859375 C 21.191406 13.761719 21.300781 13.730469 21.179688 13.671875 C 21.058594 13.617188 21.039062 13.597656 20.976562 13.503906 C 20.910156 13.414062 20.878906 13.585938 20.839844 13.550781 C 20.800781 13.511719 20.761719 13.476562 20.777344 13.390625 C 20.796875 13.308594 20.746094 13.296875 20.714844 13.332031 C 20.683594 13.363281 20.609375 13.410156 20.601562 13.382812 C 20.589844 13.355469 20.601562 13.335938 20.625 13.308594 C 20.648438 13.285156 20.628906 13.25 20.546875 13.253906 C 20.464844 13.261719 20.300781 13.214844 20.300781 13.019531 C 20.300781 12.828125 20.183594 13.121094 20.121094 13.070312 C 20.058594 13.019531 20.101562 12.960938 20.058594 12.972656 C 20.011719 12.980469 19.953125 13.011719 19.929688 12.929688 C 19.910156 12.851562 19.851562 12.84375 19.847656 12.785156 C 19.839844 12.722656 19.734375 12.597656 19.679688 12.574219 C 19.628906 12.546875 19.359375 12.46875 19.304688 12.390625 C 19.246094 12.3125 19.015625 12.304688 18.941406 12.277344 C 18.863281 12.25 18.707031 12.195312 18.636719 12.214844 C 18.5625 12.230469 18.304688 12.109375 18.089844 12.160156 C 17.875 12.210938 17.636719 12.128906 17.367188 12.328125 C 17.097656 12.527344 17.277344 12.683594 17.015625 12.683594 C 16.757812 12.683594 16.5625 12.804688 16.535156 12.816406 C 16.511719 12.828125 16.445312 12.984375 16.351562 13.046875 C 16.257812 13.109375 16.503906 13.238281 16.464844 13.363281 C 16.425781 13.492188 16.195312 13.601562 16.152344 13.636719 C 16.109375 13.671875 16.070312 13.671875 16.164062 13.710938 C 16.253906 13.746094 16.347656 13.800781 16.402344 13.769531 C 16.460938 13.742188 16.433594 13.867188 16.222656 13.9375 C 16.011719 14.003906 16 13.972656 15.902344 14.085938 C 15.804688 14.199219 15.785156 14.125 15.707031 14.234375 C 15.625 14.339844 15.425781 14.46875 15.34375 14.515625 C 15.257812 14.558594 14.660156 14.929688 14.582031 14.960938 C 14.507812 14.992188 14.171875 14.992188 13.996094 15.003906 C 13.820312 15.011719 13.734375 15.261719 13.644531 15.28125 C 13.558594 15.304688 13.566406 15.375 13.5625 15.421875 C 13.554688 15.464844 13.476562 15.523438 13.492188 15.558594 C 13.503906 15.589844 13.570312 15.671875 13.5625 15.757812 C 13.554688 15.839844 13.578125 15.824219 13.601562 15.894531 C 13.625 15.964844 13.636719 16.011719 13.707031 16.058594 C 13.78125 16.105469 13.878906 16.1875 13.960938 16.160156 C 14.046875 16.136719 14.042969 16.222656 14.082031 16.265625 C 14.121094 16.304688 14.160156 16.300781 14.183594 16.425781 C 14.203125 16.550781 14.238281 16.613281 14.347656 16.707031 C 14.457031 16.804688 14.625 16.847656 14.65625 16.941406 C 14.6875 17.039062 14.761719 17.105469 14.828125 17.125 C 14.898438 17.140625 14.933594 17.164062 14.984375 17.28125 C 15.039062 17.402344 15.113281 17.542969 15.191406 17.566406 C 15.269531 17.589844 15.25 17.609375 15.292969 17.730469 C 15.339844 17.847656 15.402344 17.972656 15.449219 18.007812 C 15.496094 18.046875 15.464844 18.089844 15.449219 18.136719 C 15.4375 18.1875 15.480469 18.273438 15.414062 18.289062 C 15.347656 18.304688 15.152344 18.316406 15.144531 18.347656 C 15.132812 18.382812 14.964844 18.378906 14.847656 18.421875 C 14.730469 18.460938 14.765625 18.394531 14.6875 18.40625 C 14.679688 18.410156 14.582031 18.503906 14.457031 18.398438 C 14.332031 18.292969 14.015625 18.550781 14 18.667969 C 13.980469 18.789062 14.144531 18.746094 14.085938 18.824219 C 14.027344 18.902344 13.9375 18.84375 13.894531 18.9375 C 13.855469 19.027344 13.804688 19.027344 13.796875 19.070312 C 13.789062 19.117188 13.714844 19.175781 13.621094 19.140625 C 13.523438 19.105469 13.417969 19.179688 13.34375 19.144531 C 13.265625 19.109375 13.21875 19.222656 13.160156 19.203125 C 13.097656 19.183594 13.015625 19.128906 12.816406 19.246094 C 12.613281 19.359375 12 19.316406 11.976562 19.246094 C 11.953125 19.171875 11.667969 19.117188 11.726562 19.050781 C 11.78125 18.984375 11.730469 19.011719 11.8125 18.894531 C 11.898438 18.78125 11.972656 18.867188 11.921875 18.710938 C 11.871094 18.554688 11.738281 18.515625 11.792969 18.433594 C 11.84375 18.351562 11.859375 18.382812 11.765625 18.257812 C 11.675781 18.136719 11.609375 18.148438 11.671875 18.058594 C 11.738281 17.972656 11.65625 17.910156 11.632812 17.8125 C 11.613281 17.714844 11.671875 17.699219 11.566406 17.644531 C 11.464844 17.585938 11.277344 17.5 11.335938 17.433594 C 11.394531 17.367188 11.320312 17.359375 11.332031 17.296875 C 11.34375 17.238281 11.476562 17.242188 11.410156 17.183594 C 11.34375 17.121094 11.125 17.125 11.167969 17.03125 C 11.207031 16.941406 11.28125 16.878906 11.273438 16.765625 C 11.261719 16.652344 11.316406 16.617188 11.285156 16.589844 C 11.253906 16.5625 11.234375 16.574219 11.222656 16.636719 C 11.214844 16.699219 11.144531 16.679688 11.136719 16.632812 C 11.128906 16.582031 11.03125 16.578125 11.066406 16.65625 C 11.101562 16.734375 11.171875 16.691406 11.179688 16.746094 C 11.183594 16.796875 11.136719 16.828125 11.105469 16.804688 C 11.074219 16.777344 10.996094 16.800781 10.96875 16.761719 C 10.9375 16.722656 10.871094 16.675781 10.851562 16.710938 C 10.835938 16.746094 10.785156 16.8125 10.832031 16.855469 C 10.878906 16.894531 10.949219 17.089844 10.832031 17.15625 C 10.714844 17.21875 10.636719 17.234375 10.695312 17.265625 C 10.75 17.292969 10.78125 17.3125 10.753906 17.378906 C 10.726562 17.445312 10.671875 17.453125 10.710938 17.503906 C 10.753906 17.550781 10.753906 17.667969 10.699219 17.691406 C 10.648438 17.714844 10.605469 17.738281 10.585938 17.683594 C 10.566406 17.628906 10.554688 17.644531 10.484375 17.613281 C 10.417969 17.582031 10.425781 17.511719 10.359375 17.511719 C 10.296875 17.515625 10.179688 17.550781 10.160156 17.5 C 10.140625 17.445312 10.054688 17.429688 9.972656 17.433594 C 9.890625 17.441406 9.835938 17.394531 9.808594 17.359375 C 9.78125 17.324219 9.671875 17.332031 9.65625 17.335938 C 9.640625 17.34375 9.332031 17.3125 9.429688 17.273438 C 9.527344 17.230469 9.679688 17.140625 9.550781 17.097656 C 9.421875 17.050781 9.445312 17.144531 9.382812 17.175781 C 9.320312 17.203125 9.171875 17.234375 9.210938 17.140625 C 9.25 17.046875 9.1875 17.019531 9.230469 16.914062 C 9.273438 16.8125 9.375 16.738281 9.269531 16.667969 C 9.164062 16.597656 9.074219 16.628906 9.085938 16.542969 C 9.097656 16.460938 9.082031 16.488281 9.097656 16.417969 C 9.109375 16.347656 9.183594 16.285156 9.085938 16.273438 C 8.984375 16.265625 8.921875 16.199219 8.902344 16.167969 C 8.882812 16.132812 8.816406 16.027344 8.785156 16.023438 C 8.753906 16.023438 8.703125 16.0625 8.699219 15.988281 C 8.695312 15.917969 8.609375 15.949219 8.625 15.902344 C 8.640625 15.855469 8.738281 15.902344 8.757812 15.855469 C 8.777344 15.808594 8.828125 15.835938 8.738281 15.777344 C 8.648438 15.722656 8.609375 15.636719 8.539062 15.65625 C 8.472656 15.675781 8.320312 15.605469 8.257812 15.554688 C 8.199219 15.503906 7.832031 15.453125 7.765625 15.429688 C 7.699219 15.410156 7.589844 15.316406 7.53125 15.316406 C 7.472656 15.320312 7.277344 15.355469 7.226562 15.328125 C 7.175781 15.296875 7.121094 15.367188 7.054688 15.382812 C 6.988281 15.394531 7.101562 15.441406 7.105469 15.5 C 7.109375 15.558594 7.054688 15.625 6.96875 15.546875 C 6.886719 15.46875 6.851562 15.457031 6.78125 15.425781 C 6.710938 15.394531 6.660156 15.332031 6.625 15.367188 C 6.585938 15.40625 6.585938 15.410156 6.625 15.445312 C 6.664062 15.476562 6.679688 15.519531 6.621094 15.5 C 6.566406 15.480469 6.566406 15.464844 6.511719 15.421875 C 6.457031 15.378906 6.371094 15.414062 6.367188 15.339844 C 6.367188 15.265625 6.394531 15.261719 6.453125 15.269531 C 6.507812 15.273438 6.488281 15.304688 6.625 15.261719 C 6.765625 15.21875 6.804688 15.226562 6.789062 15.171875 C 6.777344 15.117188 6.835938 15.164062 6.773438 15.082031 C 6.710938 15 6.777344 14.988281 6.78125 14.925781 C 6.785156 14.863281 6.769531 14.792969 6.734375 14.824219 C 6.695312 14.855469 6.675781 14.84375 6.660156 14.921875 C 6.640625 15 6.566406 15.003906 6.535156 15.050781 C 6.5 15.097656 6.511719 15.148438 6.445312 15.15625 C 6.378906 15.160156 6.449219 15.257812 6.324219 15.269531 C 6.199219 15.277344 6.246094 15.253906 6.15625 15.289062 C 6.0625 15.324219 6.015625 15.328125 5.980469 15.257812 C 5.945312 15.183594 5.835938 15.175781 5.910156 15.144531 C 5.980469 15.109375 6.027344 15.121094 6.039062 15.058594 C 6.050781 15 6.042969 14.953125 5.988281 14.988281 C 5.933594 15.023438 5.890625 15.011719 5.886719 14.988281 C 5.878906 14.96875 5.867188 14.878906 5.84375 14.949219 C 5.820312 15.019531 5.765625 15.207031 5.574219 15.078125 C 5.382812 14.949219 5.207031 14.90625 5.105469 14.90625 C 5.003906 14.90625 4.867188 14.886719 4.726562 14.925781 C 4.582031 14.96875 4.464844 14.980469 4.390625 14.988281 C 4.316406 14.996094 4.238281 15.09375 4.214844 15.164062 C 4.191406 15.234375 4.1875 15.488281 4.199219 15.628906 C 4.214844 15.769531 4.289062 15.792969 4.277344 15.863281 C 4.269531 15.929688 4.28125 15.96875 4.238281 16.003906 C 4.195312 16.042969 4.078125 16.109375 4.105469 15.910156 C 4.132812 15.714844 4.042969 15.726562 4.046875 15.625 C 4.046875 15.527344 3.996094 15.410156 3.992188 15.335938 C 3.992188 15.257812 3.925781 15.097656 3.742188 15.066406 C 3.5625 15.039062 3.617188 14.984375 3.503906 14.902344 C 3.386719 14.820312 3.578125 14.835938 3.65625 14.78125 C 3.734375 14.726562 3.84375 14.613281 3.890625 14.546875 C 3.933594 14.476562 4.15625 14.527344 4.226562 14.4375 C 4.296875 14.347656 4.347656 14.199219 4.339844 14.054688 C 4.328125 13.910156 4.429688 13.691406 4.273438 13.5625 C 4.117188 13.429688 3.894531 13.246094 4.023438 13.160156 C 4.152344 13.078125 4.175781 13.117188 4.195312 13.046875 C 4.21875 12.980469 4.132812 12.988281 4.152344 12.949219 C 4.167969 12.90625 4.164062 12.832031 4.253906 12.828125 C 4.34375 12.828125 4.363281 12.742188 4.441406 12.738281 C 4.519531 12.730469 4.582031 12.734375 4.652344 12.644531 C 4.722656 12.558594 4.878906 12.609375 4.808594 12.484375 C 4.742188 12.359375 4.703125 12.425781 4.703125 12.347656 C 4.703125 12.265625 4.59375 12.246094 4.515625 12.222656 C 4.4375 12.199219 4.402344 12.113281 4.355469 12.078125 C 4.308594 12.046875 4.167969 12.03125 4.15625 11.953125 C 4.140625 11.871094 4.089844 11.964844 3.992188 11.953125 C 3.894531 11.9375 3.925781 10.414062 3.925781 10.414062 C 3.925781 10.414062 4.023438 10.332031 4.167969 10.332031 C 4.308594 10.328125 4.335938 10.316406 4.257812 10.242188 C 4.183594 10.167969 4.214844 10.191406 4.167969 10.101562 C 4.121094 10.011719 4.132812 9.964844 4.1875 9.949219 C 4.238281 9.933594 4.246094 9.929688 4.257812 9.894531 " fill-opacity="1" fill-rule="nonzero"/></g><path fill="#014d4e" d="M 8.460938 17.65625 C 8.460938 17.65625 8.539062 17.6875 8.53125 17.640625 C 8.523438 17.589844 8.5 17.558594 8.550781 17.558594 C 8.601562 17.5625 8.660156 17.5625 8.664062 17.613281 C 8.667969 17.664062 8.636719 17.652344 8.664062 17.734375 C 8.695312 17.8125 8.675781 17.886719 8.726562 17.925781 C 8.777344 17.96875 8.78125 17.925781 8.832031 17.960938 C 8.882812 17.992188 8.914062 18.011719 8.886719 18.082031 C 8.859375 18.152344 8.808594 18.15625 8.769531 18.171875 C 8.730469 18.1875 8.714844 18.207031 8.71875 18.261719 C 8.726562 18.316406 8.621094 18.292969 8.679688 18.367188 C 8.738281 18.445312 8.75 18.375 8.773438 18.449219 C 8.796875 18.527344 8.816406 18.5625 8.898438 18.570312 C 8.980469 18.578125 8.894531 18.5 9.003906 18.546875 C 9.109375 18.59375 9.167969 18.585938 9.171875 18.664062 C 9.171875 18.738281 9.214844 18.734375 9.210938 18.785156 C 9.207031 18.832031 9.101562 18.800781 9.066406 18.824219 C 9.03125 18.851562 8.894531 18.863281 8.894531 18.824219 C 8.890625 18.789062 8.792969 18.730469 8.695312 18.734375 C 8.601562 18.742188 8.546875 18.75 8.503906 18.703125 C 8.460938 18.652344 8.453125 18.621094 8.382812 18.550781 C 8.3125 18.480469 8.179688 18.429688 8.148438 18.339844 C 8.113281 18.25 8.132812 18.214844 8.101562 18.195312 C 8.070312 18.171875 8.042969 18.144531 8.066406 18.085938 C 8.085938 18.027344 8.113281 18.105469 8.160156 18.027344 C 8.207031 17.949219 8.257812 17.890625 8.257812 17.890625 C 8.257812 17.890625 8.273438 17.789062 8.339844 17.761719 C 8.40625 17.738281 8.398438 17.652344 8.460938 17.65625 " fill-opacity="1" fill-rule="nonzero"/><path fill="#014d4e" d="M 19.382812 14.371094 C 19.414062 14.363281 19.410156 14.386719 19.503906 14.371094 C 19.597656 14.355469 19.6875 14.304688 19.753906 14.316406 C 19.816406 14.324219 19.941406 14.304688 19.945312 14.433594 C 19.949219 14.5625 19.972656 14.566406 20.070312 14.640625 C 20.171875 14.710938 20.128906 14.792969 20.070312 14.757812 C 20.015625 14.726562 19.941406 14.597656 19.953125 14.695312 C 19.96875 14.792969 19.992188 14.757812 19.984375 14.859375 C 19.972656 14.960938 19.949219 15.011719 19.871094 15.015625 C 19.796875 15.019531 19.773438 14.941406 19.734375 14.980469 C 19.691406 15.019531 19.609375 14.964844 19.695312 15.097656 C 19.777344 15.234375 19.777344 15.347656 19.679688 15.328125 C 19.644531 15.320312 19.597656 15.273438 19.609375 15.183594 C 19.617188 15.097656 19.574219 15.042969 19.523438 15.027344 C 19.523438 15.027344 19.441406 15.015625 19.480469 14.941406 C 19.523438 14.867188 19.570312 14.839844 19.53125 14.789062 C 19.492188 14.738281 19.488281 14.703125 19.519531 14.621094 C 19.546875 14.539062 19.175781 14.4375 19.382812 14.371094 " fill-opacity="1" fill-rule="nonzero"/><path fill="#014d4e" d="M 18.960938 15.21875 C 18.960938 15.21875 18.945312 15.15625 19.015625 15.160156 C 19.085938 15.164062 19.097656 15.15625 19.070312 15.121094 C 19.042969 15.082031 19.054688 14.90625 18.96875 14.921875 C 18.878906 14.9375 18.863281 14.964844 18.867188 15.011719 C 18.871094 15.058594 18.898438 15.066406 18.847656 15.132812 C 18.796875 15.199219 18.757812 15.199219 18.796875 15.273438 C 18.835938 15.34375 18.886719 15.488281 18.921875 15.398438 C 18.957031 15.308594 18.988281 15.390625 18.960938 15.21875 " fill-opacity="1" fill-rule="nonzero"/><path fill="#014d4e" d="M 18.960938 14.535156 C 19.007812 14.542969 19.027344 14.570312 19.039062 14.609375 C 19.046875 14.648438 19.09375 14.699219 19.039062 14.707031 C 18.980469 14.714844 18.917969 14.667969 18.910156 14.648438 C 18.902344 14.628906 18.820312 14.609375 18.839844 14.550781 C 18.863281 14.492188 18.917969 14.53125 18.960938 14.535156 " fill-opacity="1" fill-rule="nonzero"/><path fill="#014d4e" d="M 6.242188 15.8125 C 6.242188 15.8125 6.339844 15.847656 6.347656 15.8125 C 6.359375 15.78125 6.378906 15.832031 6.378906 15.773438 C 6.378906 15.710938 6.433594 15.703125 6.378906 15.644531 C 6.324219 15.585938 6.332031 15.605469 6.242188 15.644531 C 6.148438 15.683594 6.066406 15.628906 6.105469 15.71875 C 6.144531 15.808594 6.101562 15.796875 6.242188 15.8125 " fill-opacity="1" fill-rule="nonzero"/><path fill="#014d4e" d="M 6.386719 10.738281 C 6.371094 10.699219 6.292969 10.628906 6.386719 10.578125 C 6.484375 10.523438 6.445312 10.554688 6.507812 10.515625 C 6.574219 10.476562 6.625 10.511719 6.644531 10.628906 C 6.660156 10.742188 6.757812 10.789062 6.714844 10.863281 C 6.671875 10.9375 6.585938 11.042969 6.546875 10.925781 C 6.507812 10.804688 6.433594 10.835938 6.386719 10.738281 " fill-opacity="1" fill-rule="nonzero"/><path fill="#014d4e" d="M 11.019531 17.960938 C 11.019531 17.960938 11.015625 17.933594 11.128906 18 C 11.242188 18.0625 11.3125 17.980469 11.328125 17.929688 C 11.339844 17.878906 11.363281 17.816406 11.28125 17.828125 C 11.199219 17.835938 11.117188 17.796875 11.074219 17.824219 C 11.03125 17.851562 10.945312 17.839844 10.902344 17.917969 C 10.859375 17.996094 10.914062 18.042969 10.78125 18.023438 C 10.648438 18 10.574219 18.054688 10.554688 18.105469 C 10.53125 18.15625 10.539062 18.195312 10.519531 18.246094 C 10.503906 18.296875 10.527344 18.203125 10.59375 18.1875 C 10.664062 18.171875 10.78125 18.191406 10.863281 18.105469 C 10.945312 18.019531 10.941406 17.960938 11.019531 17.960938 " fill-opacity="1" fill-rule="nonzero"/></svg>