<svg xmlns="http://www.w3.org/2000/svg" xmlns:xlink="http://www.w3.org/1999/xlink" width="40" zoomAndPan="magnify" viewBox="0 0 30 30.000001" height="40" preserveAspectRatio="xMidYMid meet" version="1.0"><defs><clipPath id="9aa76de8c9"><path d="M 6.945312 2.902344 L 22.910156 2.902344 L 22.910156 26.128906 L 6.945312 26.128906 Z M 6.945312 2.902344 " clip-rule="nonzero"/></clipPath></defs><g clip-path="url(#9aa76de8c9)"><path fill="#014d4e" d="M 22.972656 18.566406 C 22.972656 18.566406 21.9375 16.800781 21.839844 16.761719 C 21.746094 16.722656 21.496094 16.710938 21.394531 16.710938 C 21.296875 16.710938 21.050781 16.867188 20.992188 16.867188 C 20.933594 16.867188 20.796875 16.894531 20.75 16.8125 C 20.707031 16.726562 20.667969 16.746094 20.550781 16.808594 C 20.46875 16.851562 20.53125 16.089844 20.582031 15.574219 L 20.597656 15.378906 C 20.613281 15.234375 20.621094 15.132812 20.621094 15.113281 C 20.621094 15.023438 20.609375 14.972656 20.640625 14.933594 C 20.667969 14.890625 20.644531 14.851562 20.570312 14.851562 C 20.496094 14.851562 20.15625 15.199219 20.078125 15.269531 C 20.003906 15.339844 19.847656 15.457031 19.675781 15.527344 C 19.507812 15.597656 18.632812 15.53125 18.597656 15.527344 C 18.5625 15.519531 18.582031 15.328125 18.535156 15.277344 C 18.488281 15.222656 18.445312 15.042969 18.394531 14.945312 C 18.339844 14.84375 17.890625 14.832031 17.890625 14.832031 C 17.890625 14.832031 17.289062 14.78125 17.257812 14.757812 C 17.222656 14.734375 17.496094 14.488281 17.566406 14.414062 C 17.636719 14.335938 17.484375 14.136719 17.429688 14.085938 C 17.378906 14.03125 17.175781 13.839844 17.140625 13.78125 C 17.105469 13.722656 17.070312 13.585938 17.003906 13.527344 C 16.941406 13.46875 16.875 13.378906 16.847656 13.292969 C 16.820312 13.203125 16.679688 13.007812 16.601562 12.949219 C 16.527344 12.890625 16.636719 12.859375 16.65625 12.796875 C 16.671875 12.730469 16.597656 12.660156 16.492188 12.65625 C 16.433594 12.652344 16.371094 12.554688 16.335938 12.449219 C 16.335938 12.449219 16.308594 12.394531 16.300781 12.3125 C 16.296875 12.285156 16.296875 12.265625 16.300781 12.246094 C 16.316406 12.148438 16.644531 12.148438 16.671875 12.089844 C 16.703125 12.03125 16.550781 11.933594 16.5625 11.75 C 16.574219 11.570312 17.121094 11.1875 17.265625 11.109375 C 17.414062 11.035156 17.335938 10.800781 17.324219 10.71875 C 17.3125 10.636719 17.332031 10.460938 17.367188 10.367188 C 17.402344 10.277344 17.570312 9.960938 17.59375 9.914062 C 17.617188 9.867188 17.691406 9.414062 17.710938 9.371094 C 17.734375 9.328125 17.847656 9.253906 17.949219 9.253906 C 18.054688 9.253906 18.152344 9.078125 18.207031 9.03125 C 18.261719 8.984375 18.339844 8.886719 18.421875 8.894531 C 18.503906 8.90625 18.75 8.648438 18.921875 8.59375 C 19.097656 8.539062 19.757812 8.40625 19.9375 8.40625 C 20.117188 8.40625 20.265625 8.238281 20.308594 8.167969 C 20.355469 8.101562 20.65625 8.121094 20.824219 8.117188 C 20.992188 8.109375 20.953125 8.222656 21.054688 8.324219 C 21.160156 8.425781 21.128906 8.300781 21.207031 8.269531 C 21.285156 8.234375 21.328125 8.292969 21.367188 8.28125 C 21.402344 8.269531 21.410156 8.203125 21.367188 8.113281 C 21.320312 8.019531 21.046875 7.824219 21.019531 7.765625 C 20.992188 7.707031 20.898438 7.746094 20.675781 7.714844 C 20.449219 7.679688 20.507812 7.554688 20.507812 7.507812 C 20.507812 7.460938 21.246094 6.320312 21.210938 6.234375 C 21.175781 6.144531 21.027344 6.070312 20.9375 6.039062 C 20.84375 6.007812 20.328125 5.714844 20.238281 5.683594 C 20.148438 5.652344 20.136719 5.6875 19.871094 5.800781 C 19.605469 5.917969 19.28125 5.566406 19.199219 5.542969 C 19.117188 5.523438 18.902344 5.714844 18.730469 5.800781 C 18.5625 5.882812 18.332031 5.933594 18.191406 5.871094 C 18.046875 5.808594 17.984375 5.878906 17.910156 5.882812 C 17.835938 5.890625 17.789062 5.898438 17.660156 5.898438 C 17.535156 5.898438 17.550781 5.789062 17.476562 5.789062 C 17.40625 5.789062 17.320312 5.648438 17.320312 5.597656 C 17.320312 5.550781 17.378906 5.433594 17.359375 5.363281 C 17.339844 5.296875 17.296875 5.160156 17.21875 5.117188 C 17.140625 5.074219 17.089844 5.074219 16.964844 5.054688 C 16.835938 5.035156 16.925781 4.824219 16.910156 4.75 C 16.894531 4.675781 16.816406 4.476562 16.722656 4.417969 C 16.632812 4.355469 16.613281 4.351562 16.496094 4.351562 C 16.378906 4.351562 16.421875 4.324219 16.285156 4.238281 C 16.144531 4.152344 16.117188 4.113281 16.019531 4.109375 C 15.925781 4.105469 15.851562 3.964844 15.851562 3.925781 C 15.851562 3.886719 15.832031 3.808594 15.816406 3.773438 C 15.804688 3.738281 15.71875 3.519531 15.664062 3.476562 C 15.605469 3.433594 15.503906 3.339844 15.445312 3.296875 C 15.390625 3.253906 15.324219 3.222656 15.296875 3.140625 C 15.265625 3.058594 15.175781 3.097656 15.113281 3.085938 C 15.054688 3.078125 14.859375 2.902344 14.734375 2.902344 C 14.613281 2.902344 14.597656 3.007812 14.4375 3.042969 C 14.277344 3.074219 14.234375 2.945312 14.246094 3.042969 C 14.261719 3.136719 14.316406 3.21875 14.441406 3.296875 C 14.566406 3.378906 14.617188 3.691406 14.679688 3.792969 C 14.742188 3.890625 14.6875 4.0625 14.652344 4.0625 C 14.613281 4.0625 14.398438 4.039062 14.382812 4.308594 C 14.367188 4.578125 14.121094 4.972656 14.035156 5.082031 C 13.949219 5.195312 13.332031 5.691406 13.144531 5.859375 C 12.953125 6.023438 12.132812 6.347656 11.902344 6.457031 C 11.796875 6.507812 11.617188 6.589844 11.445312 6.683594 L 11.34375 6.746094 C 11.339844 6.746094 11.339844 6.742188 11.339844 6.738281 C 11.179688 6.828125 11.046875 6.921875 11.015625 6.996094 C 10.953125 7.160156 10.96875 7.242188 10.835938 7.167969 C 10.703125 7.097656 10.652344 7.460938 10.652344 7.636719 C 10.652344 7.808594 10.488281 7.992188 10.464844 8.101562 C 10.441406 8.210938 10.378906 8.347656 10.378906 8.480469 C 10.378906 8.515625 10.367188 8.546875 10.347656 8.578125 L 10.257812 8.664062 C 10.207031 8.699219 10.15625 8.722656 10.121094 8.730469 C 10.042969 8.75 10.035156 8.957031 9.992188 9.046875 C 9.949219 9.132812 9.84375 9.175781 9.773438 9.175781 C 9.742188 9.175781 9.695312 9.164062 9.640625 9.140625 C 9.640625 9.144531 9.640625 9.148438 9.636719 9.148438 C 9.636719 9.148438 9.585938 9.125 9.535156 9.089844 C 9.507812 9.070312 9.480469 9.050781 9.453125 9.03125 C 9.351562 8.9375 9.242188 8.710938 9.242188 8.648438 C 9.242188 8.585938 9.164062 8.488281 9.0625 8.476562 C 8.957031 8.464844 8.925781 8.527344 8.8125 8.460938 C 8.699219 8.394531 8.644531 8.332031 8.480469 8.300781 C 8.320312 8.269531 8.285156 8.425781 8.152344 8.503906 C 8.023438 8.578125 8.050781 8.355469 8.0625 8.328125 C 8.070312 8.296875 8.261719 8.171875 8.191406 8.171875 C 8.160156 8.171875 8.128906 8.140625 8.101562 8.101562 C 8.101562 8.101562 8.0625 8.082031 8.0625 7.980469 L 8.015625 7.980469 C 8.03125 7.980469 8.046875 7.980469 8.0625 7.980469 C 8.0625 7.96875 8.0625 7.957031 8.0625 7.949219 C 8.074219 7.863281 8.253906 7.910156 8.285156 7.90625 C 8.316406 7.898438 8.433594 7.789062 8.433594 7.683594 C 8.433594 7.578125 8.371094 7.492188 8.371094 7.410156 C 8.371094 7.328125 8.285156 7.105469 8.285156 7.105469 C 8.246094 6.996094 8.183594 7.160156 8.136719 7.230469 C 8.089844 7.300781 8.050781 7.265625 7.992188 7.292969 C 7.933594 7.324219 7.859375 7.417969 7.769531 7.476562 C 7.675781 7.535156 7.625 7.535156 7.585938 7.65625 C 7.558594 7.742188 7.429688 7.886719 7.332031 7.984375 C 7.332031 7.984375 7.285156 8.035156 7.238281 8.066406 C 7.179688 8.105469 7.039062 8.203125 7.023438 8.390625 C 7.011719 8.574219 6.996094 8.585938 6.96875 8.765625 C 6.941406 8.949219 7.089844 8.976562 7.179688 9.078125 C 7.269531 9.183594 7.273438 9.175781 7.191406 9.269531 C 7.109375 9.363281 7.164062 9.4375 7.242188 9.511719 C 7.320312 9.582031 7.441406 9.691406 7.476562 9.824219 C 7.515625 9.957031 7.542969 10.074219 7.542969 10.148438 C 7.542969 10.226562 7.457031 10.289062 7.382812 10.265625 C 7.308594 10.238281 7.234375 10.191406 7.207031 10.316406 C 7.179688 10.445312 7.175781 10.492188 7.332031 10.605469 C 7.441406 10.683594 7.640625 10.816406 7.824219 10.914062 C 7.824219 10.914062 7.839844 10.929688 7.933594 10.96875 C 7.933594 10.972656 7.9375 10.972656 7.941406 10.972656 C 8 11 8.199219 11.117188 8.394531 11.230469 C 8.503906 11.316406 8.597656 11.402344 8.65625 11.433594 C 8.78125 11.503906 8.929688 11.738281 9 11.855469 C 9 11.855469 9.019531 11.878906 9.066406 11.953125 C 9.125 12.050781 9.1875 12.15625 9.195312 12.246094 C 9.203125 12.371094 9.328125 12.445312 9.347656 12.570312 C 9.367188 12.691406 9.460938 12.785156 9.550781 12.890625 C 9.644531 12.996094 9.960938 13.285156 10 13.359375 C 10.042969 13.429688 10.027344 13.496094 10.085938 13.582031 C 10.148438 13.667969 10.242188 13.78125 10.242188 13.84375 C 10.242188 13.90625 10.246094 14.027344 10.308594 14.089844 C 10.324219 14.101562 10.332031 14.121094 10.339844 14.140625 C 10.339844 14.140625 10.339844 14.253906 10.390625 14.351562 C 10.402344 14.378906 10.414062 14.40625 10.433594 14.433594 C 10.523438 14.566406 10.6875 14.8125 10.6875 14.9375 C 10.6875 15.0625 10.796875 15.1875 10.863281 15.242188 C 10.933594 15.300781 10.988281 15.746094 11.039062 15.8125 C 11.066406 15.847656 11.191406 16.050781 11.320312 16.273438 L 11.386719 16.382812 C 11.511719 16.59375 11.625 16.800781 11.652344 16.863281 C 11.707031 17.003906 11.699219 16.976562 11.679688 17.117188 C 11.65625 17.253906 11.664062 17.207031 11.800781 17.292969 C 11.9375 17.378906 12.0625 17.457031 12.128906 17.542969 C 12.191406 17.628906 12.28125 17.851562 12.28125 17.949219 C 12.28125 18.050781 12.277344 18.074219 12.324219 18.128906 C 12.371094 18.183594 12.464844 18.371094 12.527344 18.421875 C 12.589844 18.472656 12.703125 18.546875 12.703125 18.660156 C 12.703125 18.769531 12.851562 18.945312 12.917969 18.980469 C 12.984375 19.019531 13.015625 19.097656 13.039062 19.179688 C 13.058594 19.265625 13.101562 19.289062 13.113281 19.367188 C 13.125 19.441406 13.234375 19.550781 13.257812 19.578125 C 13.269531 19.59375 13.316406 19.640625 13.363281 19.695312 L 13.433594 19.792969 C 13.441406 19.808594 13.449219 19.828125 13.457031 19.84375 C 13.492188 19.949219 13.507812 20.082031 13.507812 20.148438 C 13.503906 20.21875 13.328125 20.355469 13.308594 20.414062 C 13.285156 20.472656 13.382812 20.503906 13.382812 20.597656 C 13.382812 20.691406 13.425781 20.691406 13.433594 20.796875 C 13.441406 20.90625 13.535156 20.851562 13.539062 20.953125 C 13.546875 21.054688 13.535156 21.089844 13.652344 21.160156 C 13.769531 21.230469 13.808594 21.425781 13.953125 21.554688 C 14.097656 21.6875 14.195312 21.738281 14.3125 21.78125 C 14.429688 21.820312 14.539062 22.050781 14.648438 22.128906 C 14.753906 22.210938 14.726562 22.296875 14.816406 22.390625 C 14.832031 22.410156 14.855469 22.425781 14.886719 22.445312 L 14.992188 22.507812 C 15.125 22.578125 15.296875 22.652344 15.398438 22.703125 C 15.558594 22.789062 15.722656 22.914062 15.761719 22.9375 C 15.804688 22.960938 16.214844 23.132812 16.292969 23.191406 C 16.367188 23.246094 16.621094 23.429688 16.726562 23.4375 C 16.828125 23.445312 17.175781 23.625 17.285156 23.65625 C 17.398438 23.691406 17.695312 23.957031 17.847656 23.988281 C 17.996094 24.019531 18.316406 24.101562 18.457031 24.230469 C 18.597656 24.363281 18.679688 24.390625 18.816406 24.472656 C 18.957031 24.558594 19.191406 24.71875 19.453125 24.847656 C 19.460938 24.851562 19.46875 24.855469 19.476562 24.859375 L 19.574219 24.929688 C 19.675781 25.03125 19.613281 25.132812 19.644531 25.257812 C 19.664062 25.339844 19.730469 25.394531 19.816406 25.4375 L 19.9375 25.492188 C 19.980469 25.511719 20.023438 25.53125 20.066406 25.554688 C 20.226562 25.640625 20.402344 25.84375 20.554688 25.921875 C 20.710938 26 20.757812 26.097656 20.859375 26.113281 C 20.960938 26.128906 21.402344 26.015625 21.546875 25.824219 C 21.691406 25.628906 21.523438 25.585938 21.523438 25.429688 C 21.523438 25.273438 21.6875 25.273438 21.765625 25.261719 C 21.84375 25.246094 21.972656 24.992188 21.972656 24.921875 C 21.972656 24.898438 21.960938 24.882812 21.945312 24.863281 C 21.945312 24.863281 21.878906 24.84375 21.832031 24.742188 C 21.832031 24.738281 21.828125 24.730469 21.828125 24.722656 C 21.820312 24.617188 22.152344 24.429688 22.246094 24.292969 C 22.339844 24.15625 22.539062 24.003906 22.609375 23.855469 C 22.683594 23.710938 22.5625 23.445312 22.550781 23.304688 C 22.539062 23.164062 22.132812 22.84375 22.132812 22.75 C 22.132812 22.660156 22.242188 22.382812 22.242188 22.382812 C 22.273438 22.265625 22.304688 22.285156 22.378906 22.195312 C 22.449219 22.109375 22.308594 22.039062 22.238281 21.96875 C 22.167969 21.902344 22.15625 21.695312 22.179688 21.632812 C 22.203125 21.566406 22.277344 21.480469 22.3125 21.421875 C 22.351562 21.363281 22.394531 21.335938 22.433594 21.269531 C 22.46875 21.203125 22.625 21.152344 22.640625 21.066406 C 22.65625 20.976562 22.742188 20.898438 22.78125 20.824219 C 22.824219 20.753906 22.757812 20.710938 22.703125 20.636719 C 22.652344 20.5625 22.636719 20.53125 22.625 20.445312 C 22.617188 20.359375 22.582031 20.320312 22.5625 20.257812 C 22.542969 20.191406 22.59375 20.167969 22.644531 20.050781 C 22.675781 19.980469 22.667969 19.714844 22.65625 19.5 L 22.648438 19.371094 C 22.644531 19.285156 22.640625 19.222656 22.640625 19.203125 C 22.640625 19.132812 22.828125 19.039062 22.871094 19.007812 C 22.910156 18.972656 22.9375 18.96875 22.921875 18.902344 C 22.90625 18.835938 22.957031 18.878906 23.003906 18.789062 C 23.046875 18.699219 22.972656 18.566406 22.972656 18.566406 " fill-opacity="1" fill-rule="nonzero"/></g></svg>