<svg xmlns="http://www.w3.org/2000/svg" xmlns:xlink="http://www.w3.org/1999/xlink" width="40" zoomAndPan="magnify" viewBox="0 0 30 30.000001" height="40" preserveAspectRatio="xMidYMid meet" version="1.0"><defs><clipPath id="0c910517d4"><path d="M 5.492188 2.902344 L 24.363281 2.902344 L 24.363281 26.128906 L 5.492188 26.128906 Z M 5.492188 2.902344 " clip-rule="nonzero"/></clipPath></defs><g clip-path="url(#0c910517d4)"><path fill="#014d4e" d="M 19.605469 19.738281 C 19.554688 19.667969 19.507812 19.59375 19.453125 19.523438 C 19.359375 19.398438 19.335938 19.257812 19.351562 19.105469 C 19.363281 19.015625 19.421875 18.957031 19.503906 18.933594 C 19.832031 18.824219 20.109375 18.609375 20.417969 18.464844 C 20.636719 18.359375 20.871094 18.324219 21.117188 18.414062 C 21.214844 18.449219 21.242188 18.535156 21.285156 18.605469 C 21.375 18.761719 21.523438 18.796875 21.675781 18.824219 C 21.78125 18.839844 21.882812 18.835938 21.988281 18.867188 C 22.089844 18.898438 22.207031 18.898438 22.304688 18.824219 C 22.386719 18.761719 22.488281 18.765625 22.582031 18.777344 C 22.691406 18.789062 22.75 18.910156 22.671875 18.980469 C 22.4375 19.1875 22.238281 19.4375 21.902344 19.503906 C 21.613281 19.566406 21.328125 19.601562 21.03125 19.597656 C 20.917969 19.59375 20.820312 19.542969 20.707031 19.542969 C 20.613281 19.539062 20.570312 19.570312 20.582031 19.664062 C 20.59375 19.75 20.550781 19.820312 20.519531 19.890625 C 20.488281 19.964844 20.414062 20 20.328125 19.976562 C 20.164062 19.921875 19.992188 19.878906 19.820312 19.84375 C 19.746094 19.832031 19.707031 19.738281 19.621094 19.75 C 19.613281 19.746094 19.609375 19.742188 19.605469 19.738281 Z M 9.742188 10.867188 C 9.863281 10.980469 9.851562 11.140625 9.863281 11.277344 C 9.902344 11.628906 10.101562 11.832031 10.398438 11.976562 C 10.472656 12.015625 10.554688 11.988281 10.570312 11.925781 C 10.609375 11.742188 10.773438 11.75 10.898438 11.699219 C 10.945312 11.679688 10.996094 11.667969 11.035156 11.636719 C 11.082031 11.589844 11.117188 11.59375 11.164062 11.636719 C 11.238281 11.707031 11.316406 11.699219 11.410156 11.664062 C 11.5 11.628906 11.578125 11.574219 11.621094 11.496094 C 11.675781 11.40625 11.726562 11.421875 11.796875 11.460938 C 11.910156 11.519531 12.046875 11.46875 12.058594 11.359375 C 12.085938 11.152344 12.089844 10.941406 11.898438 10.792969 C 11.832031 10.742188 11.808594 10.691406 11.886719 10.621094 C 11.941406 10.570312 12 10.503906 11.9375 10.425781 C 11.875 10.339844 11.785156 10.347656 11.703125 10.398438 C 11.609375 10.453125 11.507812 10.480469 11.398438 10.464844 C 11.152344 10.429688 10.902344 10.402344 10.65625 10.347656 C 10.515625 10.3125 10.367188 10.296875 10.226562 10.273438 C 10.078125 10.253906 9.90625 10.269531 9.8125 10.421875 C 9.757812 10.511719 9.714844 10.617188 9.71875 10.730469 C 9.71875 10.777344 9.707031 10.832031 9.742188 10.867188 Z M 11.085938 15.164062 C 10.929688 15.257812 10.820312 15.398438 10.675781 15.5 C 10.613281 15.546875 10.617188 15.625 10.652344 15.6875 C 10.773438 15.882812 10.898438 16.078125 11.058594 16.246094 C 11.230469 16.429688 11.570312 16.363281 11.6875 16.136719 C 11.800781 15.921875 11.832031 15.683594 11.925781 15.460938 C 11.96875 15.359375 11.925781 15.277344 11.816406 15.285156 C 11.703125 15.292969 11.632812 15.242188 11.566406 15.167969 C 11.511719 15.101562 11.445312 15.0625 11.359375 15.078125 C 11.253906 15.070312 11.167969 15.113281 11.085938 15.164062 Z M 23.691406 24.855469 C 23.582031 24.871094 23.53125 24.953125 23.578125 25.054688 C 23.597656 25.101562 23.625 25.144531 23.648438 25.1875 C 23.691406 25.265625 23.707031 25.332031 23.667969 25.425781 C 23.613281 25.566406 23.519531 25.699219 23.597656 25.878906 C 23.65625 26.019531 23.746094 26.125 23.878906 26.125 C 24.03125 26.125 24.214844 26.125 24.308594 25.957031 C 24.386719 25.820312 24.46875 25.683594 24.429688 25.546875 C 24.429688 25.054688 24.152344 24.796875 23.691406 24.855469 Z M 15.582031 11.019531 C 15.535156 11.074219 15.484375 11.121094 15.433594 11.171875 C 15.261719 11.351562 15.253906 11.410156 15.367188 11.625 C 15.390625 11.679688 15.441406 11.730469 15.421875 11.785156 C 15.398438 11.859375 15.421875 11.902344 15.476562 11.933594 C 15.542969 11.964844 15.597656 11.949219 15.644531 11.890625 C 15.703125 11.8125 15.785156 11.808594 15.875 11.785156 C 16.0625 11.742188 16.265625 11.769531 16.445312 11.660156 C 16.695312 11.507812 16.613281 11.316406 16.453125 11.191406 C 16.238281 11.023438 15.964844 11.042969 15.707031 10.957031 C 15.675781 10.96875 15.621094 10.972656 15.582031 11.019531 Z M 19.601562 20.882812 C 19.601562 20.960938 19.59375 21.042969 19.605469 21.121094 C 19.617188 21.230469 19.660156 21.332031 19.773438 21.367188 C 19.882812 21.402344 19.933594 21.320312 19.988281 21.238281 C 20.039062 21.164062 20.082031 21.089844 20.125 21.011719 C 20.179688 20.921875 20.242188 20.816406 20.335938 20.785156 C 20.449219 20.75 20.507812 20.679688 20.574219 20.597656 C 20.648438 20.511719 20.640625 20.433594 20.566406 20.355469 C 20.4375 20.222656 20.265625 20.171875 20.105469 20.101562 C 20.054688 20.074219 19.992188 20.089844 19.945312 20.140625 C 19.765625 20.335938 19.570312 20.523438 19.609375 20.832031 C 19.609375 20.847656 19.609375 20.863281 19.609375 20.882812 C 19.605469 20.882812 19.605469 20.882812 19.601562 20.882812 Z M 18.789062 16.804688 C 18.820312 16.773438 18.863281 16.742188 18.832031 16.6875 C 18.804688 16.636719 18.753906 16.648438 18.707031 16.652344 C 18.6875 16.65625 18.667969 16.667969 18.648438 16.675781 C 18.480469 16.738281 18.226562 16.667969 18.117188 16.527344 C 18.082031 16.476562 18.035156 16.457031 17.980469 16.449219 C 17.871094 16.4375 17.769531 16.457031 17.671875 16.507812 C 17.546875 16.574219 17.429688 16.660156 17.292969 16.710938 C 17.167969 16.757812 17.140625 16.832031 17.1875 16.960938 C 17.253906 17.128906 17.496094 17.269531 17.683594 17.25 C 17.742188 17.242188 17.773438 17.207031 17.777344 17.160156 C 17.789062 17.03125 17.863281 17.027344 17.960938 17.054688 C 18 17.066406 18.042969 17.0625 18.058594 17.0625 C 18.410156 17.066406 18.578125 17.003906 18.789062 16.804688 Z M 12.367188 12.675781 C 12.40625 12.773438 12.429688 12.875 12.445312 12.980469 C 12.472656 13.117188 12.574219 13.183594 12.679688 13.242188 C 12.722656 13.265625 12.757812 13.253906 12.792969 13.21875 C 12.882812 13.113281 12.992188 13.0625 13.132812 13.105469 C 13.171875 13.117188 13.210938 13.101562 13.238281 13.082031 C 13.304688 13.03125 13.355469 12.96875 13.457031 13 C 13.496094 13.015625 13.527344 12.964844 13.535156 12.917969 C 13.542969 12.835938 13.539062 12.753906 13.476562 12.691406 C 13.433594 12.648438 13.40625 12.609375 13.457031 12.554688 C 13.476562 12.53125 13.484375 12.5 13.460938 12.472656 C 13.433594 12.445312 13.398438 12.4375 13.367188 12.457031 C 13.261719 12.511719 13.15625 12.492188 13.046875 12.472656 C 12.902344 12.445312 12.757812 12.425781 12.605469 12.398438 C 12.449219 12.386719 12.308594 12.535156 12.367188 12.675781 Z M 5.566406 3.65625 C 5.566406 3.769531 5.621094 3.855469 5.726562 3.886719 C 5.839844 3.917969 5.941406 3.886719 5.996094 3.761719 C 6.027344 3.683594 6.070312 3.613281 6.09375 3.53125 C 6.121094 3.433594 6.15625 3.332031 6.292969 3.320312 C 6.359375 3.3125 6.421875 3.265625 6.476562 3.214844 C 6.546875 3.144531 6.535156 3.007812 6.441406 2.984375 C 6.335938 2.960938 6.234375 2.898438 6.125 2.917969 C 5.855469 2.96875 5.519531 3.191406 5.566406 3.535156 C 5.566406 3.574219 5.566406 3.613281 5.566406 3.65625 Z M 12.816406 15.070312 C 12.8125 15.167969 13.070312 15.449219 13.15625 15.441406 C 13.296875 15.4375 13.476562 15.164062 13.464844 14.972656 C 13.464844 14.933594 13.238281 14.800781 13.171875 14.800781 C 13.070312 14.800781 12.816406 14.992188 12.816406 15.070312 Z M 19.605469 19.738281 C 19.542969 19.703125 19.476562 19.683594 19.402344 19.6875 C 19.285156 19.691406 19.257812 19.726562 19.308594 19.828125 C 19.339844 19.894531 19.34375 19.949219 19.316406 20.015625 C 19.257812 20.15625 19.296875 20.277344 19.402344 20.320312 C 19.507812 20.363281 19.644531 20.292969 19.695312 20.164062 C 19.753906 20.011719 19.714844 19.875 19.617188 19.75 C 19.613281 19.746094 19.609375 19.742188 19.605469 19.738281 Z M 15.164062 12.917969 C 15.105469 13.023438 15.195312 13.121094 15.230469 13.210938 C 15.261719 13.289062 15.324219 13.1875 15.375 13.175781 C 15.433594 13.160156 15.496094 13.152344 15.558594 13.140625 C 15.605469 13.132812 15.648438 13.125 15.691406 13.109375 C 15.746094 13.089844 15.789062 13.054688 15.796875 12.992188 C 15.804688 12.925781 15.761719 12.886719 15.710938 12.847656 C 15.613281 12.773438 15.492188 12.773438 15.34375 12.742188 C 15.265625 12.75 15.210938 12.839844 15.164062 12.917969 Z M 17.296875 17.757812 C 17.292969 17.832031 17.300781 17.910156 17.378906 17.9375 C 17.464844 17.96875 17.492188 17.886719 17.527344 17.832031 C 17.578125 17.75 17.632812 17.679688 17.722656 17.628906 C 17.847656 17.558594 17.835938 17.460938 17.714844 17.386719 C 17.527344 17.273438 17.476562 17.285156 17.359375 17.46875 C 17.3125 17.542969 17.289062 17.621094 17.300781 17.691406 C 17.300781 17.722656 17.300781 17.742188 17.296875 17.757812 Z M 10.378906 9.210938 C 10.46875 9.226562 10.503906 9.152344 10.527344 9.082031 C 10.554688 9 10.589844 8.929688 10.683594 8.902344 C 10.722656 8.890625 10.757812 8.859375 10.75 8.808594 C 10.742188 8.761719 10.707031 8.75 10.671875 8.742188 C 10.480469 8.679688 10.277344 8.828125 10.277344 9.027344 C 10.28125 9.109375 10.285156 9.191406 10.378906 9.210938 Z M 10.378906 9.210938 " fill-opacity="1" fill-rule="nonzero"/></g></svg>