<svg xmlns="http://www.w3.org/2000/svg" xmlns:xlink="http://www.w3.org/1999/xlink" width="40" zoomAndPan="magnify" viewBox="0 0 30 30.000001" height="40" preserveAspectRatio="xMidYMid meet" version="1.0"><defs><clipPath id="46c8af431e"><path d="M 3.386719 8 L 19 8 L 19 21 L 3.386719 21 Z M 3.386719 8 " clip-rule="nonzero"/></clipPath><clipPath id="d8bf35be67"><path d="M 17 7.113281 L 19 7.113281 L 19 9 L 17 9 Z M 17 7.113281 " clip-rule="nonzero"/></clipPath><clipPath id="78dfdc5968"><path d="M 24.652344 12.382812 L 26.605469 12.382812 L 26.605469 14.585938 L 24.652344 14.585938 Z M 24.652344 12.382812 " clip-rule="nonzero"/></clipPath><clipPath id="617ab7efc0"><path d="M 22.347656 21.414062 L 23.945312 21.414062 L 23.945312 21.628906 L 22.347656 21.628906 Z M 22.347656 21.414062 " clip-rule="nonzero"/></clipPath><clipPath id="2130388fb3"><path d="M 12 7.113281 L 14 7.113281 L 14 8 L 12 8 Z M 12 7.113281 " clip-rule="nonzero"/></clipPath></defs><g clip-path="url(#46c8af431e)"><path fill="#014d4e" d="M 3.695312 18.046875 L 3.695312 14.707031 C 3.714844 14.660156 3.679688 14.613281 3.644531 14.585938 C 3.605469 14.558594 3.5625 14.542969 3.523438 14.515625 C 3.472656 14.480469 3.433594 14.425781 3.414062 14.363281 C 3.402344 14.332031 3.394531 14.292969 3.402344 14.257812 C 3.417969 14.148438 3.546875 14.078125 3.550781 13.96875 L 3.550781 10.203125 L 3.558594 8.199219 L 3.554688 8.066406 C 3.636719 8.066406 3.703125 8.023438 3.785156 8.042969 C 3.902344 8.066406 3.992188 8.15625 4.097656 8.214844 C 4.25 8.300781 4.433594 8.316406 4.585938 8.402344 C 4.679688 8.453125 4.757812 8.53125 4.855469 8.578125 C 4.945312 8.621094 5.042969 8.632812 5.140625 8.632812 C 5.171875 8.632812 5.207031 8.632812 5.238281 8.644531 C 5.265625 8.65625 5.292969 8.679688 5.292969 8.714844 C 5.292969 8.746094 5.257812 8.777344 5.230469 8.761719 C 5.238281 8.796875 5.277344 8.820312 5.316406 8.828125 C 5.355469 8.835938 5.398438 8.828125 5.4375 8.824219 C 5.59375 8.816406 5.742188 8.875 5.882812 8.945312 C 6.023438 9.019531 6.15625 9.101562 6.304688 9.148438 C 6.390625 9.175781 6.484375 9.1875 6.574219 9.203125 C 6.714844 9.222656 6.855469 9.242188 6.996094 9.261719 C 7.121094 9.28125 7.222656 9.332031 7.347656 9.347656 C 7.4375 9.363281 7.542969 9.382812 7.585938 9.46875 C 7.597656 9.5 7.601562 9.535156 7.625 9.5625 C 7.660156 9.609375 7.730469 9.605469 7.792969 9.597656 C 7.863281 9.585938 7.933594 9.578125 8.003906 9.59375 C 8.070312 9.613281 8.136719 9.65625 8.160156 9.722656 C 8.171875 9.769531 8.171875 9.828125 8.210938 9.859375 C 8.230469 9.871094 8.253906 9.875 8.277344 9.875 C 8.382812 9.882812 8.488281 9.878906 8.589844 9.859375 C 8.589844 9.894531 8.566406 9.925781 8.539062 9.9375 C 8.609375 9.929688 8.683594 9.953125 8.738281 10 C 8.757812 9.984375 8.765625 9.960938 8.757812 9.9375 C 8.78125 9.933594 8.808594 9.933594 8.832031 9.933594 C 8.820312 9.890625 8.800781 9.855469 8.773438 9.824219 C 8.828125 9.832031 8.882812 9.839844 8.9375 9.84375 C 8.980469 9.851562 9.027344 9.859375 9.054688 9.890625 C 9.082031 9.925781 9.070312 9.992188 9.027344 9.992188 C 8.992188 10.046875 9.058594 10.109375 9.121094 10.121094 C 9.179688 10.132812 9.25 10.121094 9.300781 10.164062 C 9.320312 10.179688 9.335938 10.207031 9.355469 10.230469 C 9.414062 10.285156 9.519531 10.28125 9.558594 10.347656 C 9.574219 10.371094 9.574219 10.402344 9.582031 10.425781 C 9.613281 10.5625 9.730469 10.675781 9.867188 10.703125 C 9.902344 10.710938 9.941406 10.710938 9.972656 10.722656 C 10.007812 10.734375 10.039062 10.757812 10.074219 10.769531 C 10.117188 10.789062 10.167969 10.792969 10.214844 10.800781 C 10.355469 10.835938 10.480469 10.929688 10.550781 11.054688 C 10.550781 11.09375 10.601562 11.105469 10.632812 11.125 C 10.664062 11.144531 10.703125 11.15625 10.726562 11.179688 C 10.765625 11.214844 10.78125 11.277344 10.828125 11.296875 C 10.851562 11.304688 10.875 11.300781 10.898438 11.308594 C 10.957031 11.320312 10.996094 11.382812 10.988281 11.441406 C 10.984375 11.457031 10.976562 11.472656 10.972656 11.492188 C 10.964844 11.566406 11.03125 11.640625 11.011719 11.710938 C 11.007812 11.730469 10.996094 11.746094 10.992188 11.765625 C 10.984375 11.789062 10.992188 11.8125 10.988281 11.835938 C 10.988281 11.867188 10.964844 11.898438 10.949219 11.929688 C 10.914062 12 10.914062 12.085938 10.929688 12.164062 C 10.945312 12.242188 10.976562 12.316406 11.007812 12.390625 C 11.03125 12.339844 11.097656 12.339844 11.148438 12.351562 C 11.183594 12.355469 11.222656 12.359375 11.257812 12.367188 C 11.265625 12.363281 11.273438 12.351562 11.273438 12.339844 C 11.335938 12.328125 11.378906 12.414062 11.441406 12.433594 C 11.488281 12.449219 11.542969 12.417969 11.59375 12.429688 C 11.65625 12.441406 11.691406 12.503906 11.75 12.527344 C 11.820312 12.554688 11.902344 12.523438 11.972656 12.546875 C 12.011719 12.558594 12.042969 12.59375 12.085938 12.597656 C 12.105469 12.601562 12.125 12.597656 12.148438 12.601562 C 12.183594 12.605469 12.214844 12.625 12.234375 12.652344 C 12.332031 12.796875 12.488281 12.90625 12.652344 12.964844 C 12.699219 12.984375 12.746094 12.996094 12.792969 13.011719 C 12.871094 13.046875 12.9375 13.097656 13.019531 13.117188 C 13.125 13.140625 13.230469 13.101562 13.335938 13.105469 C 13.429688 13.113281 13.519531 13.152344 13.605469 13.191406 C 13.640625 13.207031 13.675781 13.222656 13.699219 13.253906 C 13.722656 13.28125 13.730469 13.316406 13.742188 13.347656 C 13.804688 13.511719 13.933594 13.636719 14.046875 13.769531 C 14.070312 13.800781 14.097656 13.839844 14.085938 13.875 C 14.082031 13.894531 14.070312 13.910156 14.0625 13.929688 C 14.050781 13.96875 14.074219 14.007812 14.085938 14.042969 C 14.113281 14.121094 14.09375 14.210938 14.039062 14.273438 C 13.972656 14.292969 13.90625 14.246094 13.839844 14.25 C 13.769531 14.253906 13.710938 14.300781 13.644531 14.316406 C 13.574219 14.332031 13.507812 14.308594 13.4375 14.289062 C 13.300781 14.253906 13.160156 14.242188 13.019531 14.257812 C 12.902344 14.273438 12.777344 14.308594 12.691406 14.390625 C 12.683594 14.398438 12.675781 14.40625 12.671875 14.417969 C 12.664062 14.433594 12.667969 14.449219 12.675781 14.46875 C 12.714844 14.574219 12.769531 14.675781 12.84375 14.761719 C 12.875 14.800781 12.914062 14.84375 12.90625 14.894531 C 12.898438 14.9375 12.914062 14.96875 12.945312 15 C 12.972656 15.035156 13.007812 15.058594 13.03125 15.097656 C 13.054688 15.132812 13.066406 15.175781 13.082031 15.21875 C 13.101562 15.28125 13.132812 15.339844 13.171875 15.394531 C 13.183594 15.40625 13.195312 15.421875 13.210938 15.425781 C 13.226562 15.425781 13.238281 15.421875 13.253906 15.421875 C 13.316406 15.414062 13.359375 15.484375 13.414062 15.519531 C 13.4375 15.535156 13.464844 15.542969 13.492188 15.554688 C 13.566406 15.601562 13.589844 15.695312 13.605469 15.78125 C 13.65625 15.769531 13.71875 15.757812 13.757812 15.792969 C 13.773438 15.804688 13.78125 15.820312 13.792969 15.835938 C 13.84375 15.914062 13.894531 15.996094 13.949219 16.078125 C 13.953125 16.085938 13.960938 16.097656 13.96875 16.101562 C 13.980469 16.105469 13.988281 16.105469 14 16.105469 C 14.058594 16.101562 14.117188 16.101562 14.171875 16.097656 C 14.1875 16.097656 14.199219 16.097656 14.214844 16.101562 C 14.226562 16.105469 14.234375 16.117188 14.242188 16.128906 C 14.269531 16.15625 14.296875 16.1875 14.308594 16.222656 C 14.316406 16.246094 14.320312 16.273438 14.328125 16.296875 C 14.339844 16.320312 14.359375 16.339844 14.382812 16.339844 C 14.417969 16.34375 14.449219 16.300781 14.484375 16.3125 C 14.492188 16.316406 14.503906 16.324219 14.511719 16.332031 C 14.527344 16.351562 14.542969 16.382812 14.558594 16.40625 C 14.648438 16.550781 14.695312 16.714844 14.699219 16.882812 C 14.703125 16.945312 14.699219 17.003906 14.710938 17.0625 C 14.726562 17.121094 14.765625 17.175781 14.824219 17.191406 C 14.851562 17.246094 14.910156 17.285156 14.96875 17.292969 C 14.984375 17.296875 15.003906 17.296875 15.019531 17.304688 C 15.058594 17.328125 15.050781 17.386719 15.046875 17.429688 C 15.035156 17.5625 15.089844 17.6875 15.144531 17.808594 C 15.152344 17.828125 15.164062 17.851562 15.179688 17.863281 C 15.207031 17.882812 15.242188 17.878906 15.273438 17.890625 C 15.304688 17.902344 15.328125 17.925781 15.355469 17.933594 C 15.410156 17.945312 15.464844 17.914062 15.519531 17.910156 C 15.546875 17.90625 15.578125 17.910156 15.605469 17.910156 C 15.632812 17.90625 15.664062 17.890625 15.671875 17.863281 C 15.675781 17.847656 15.671875 17.832031 15.679688 17.820312 C 15.691406 17.792969 15.726562 17.792969 15.753906 17.796875 C 15.808594 17.804688 15.863281 17.808594 15.917969 17.816406 C 15.925781 17.816406 15.933594 17.816406 15.9375 17.8125 C 15.941406 17.808594 15.941406 17.800781 15.941406 17.792969 C 15.941406 17.765625 15.960938 17.742188 15.988281 17.730469 C 16.015625 17.722656 16.046875 17.730469 16.066406 17.753906 C 16.074219 17.761719 16.078125 17.773438 16.089844 17.785156 C 16.121094 17.816406 16.179688 17.796875 16.222656 17.8125 C 16.277344 17.824219 16.308594 17.882812 16.328125 17.933594 C 16.339844 17.960938 16.351562 17.984375 16.347656 18.007812 C 16.339844 18.085938 16.226562 18.109375 16.207031 18.183594 C 16.171875 18.308594 16.183594 18.441406 16.246094 18.554688 C 16.28125 18.617188 16.335938 18.675781 16.40625 18.671875 C 16.421875 18.671875 16.441406 18.667969 16.457031 18.671875 C 16.515625 18.683594 16.535156 18.777344 16.597656 18.78125 C 16.628906 18.785156 16.660156 18.753906 16.695312 18.761719 C 16.71875 18.769531 16.734375 18.789062 16.757812 18.796875 C 16.804688 18.816406 16.855469 18.769531 16.902344 18.777344 C 16.914062 18.78125 16.925781 18.789062 16.9375 18.789062 C 16.96875 18.792969 16.996094 18.769531 17.023438 18.765625 C 17.0625 18.757812 17.097656 18.785156 17.132812 18.800781 C 17.1875 18.820312 17.246094 18.8125 17.304688 18.804688 C 17.34375 18.800781 17.382812 18.800781 17.414062 18.816406 C 17.449219 18.828125 17.476562 18.867188 17.464844 18.902344 C 17.457031 18.933594 17.425781 18.949219 17.394531 18.957031 C 17.363281 18.964844 17.332031 18.96875 17.304688 18.980469 C 17.269531 18.996094 17.242188 19.03125 17.207031 19.042969 C 17.1875 19.050781 17.160156 19.050781 17.136719 19.054688 C 17.101562 19.058594 17.0625 19.066406 17.035156 19.09375 C 17.007812 19.117188 17 19.164062 17.019531 19.191406 C 17.03125 19.207031 17.046875 19.214844 17.058594 19.226562 C 17.105469 19.257812 17.144531 19.304688 17.167969 19.355469 C 17.199219 19.433594 17.320312 19.457031 17.398438 19.480469 C 17.417969 19.488281 17.433594 19.492188 17.449219 19.503906 C 17.460938 19.515625 17.464844 19.527344 17.476562 19.535156 C 17.535156 19.578125 17.613281 19.492188 17.6875 19.503906 C 17.75 19.515625 17.773438 19.589844 17.824219 19.628906 C 17.855469 19.65625 17.894531 19.664062 17.933594 19.671875 C 18.121094 19.71875 18.308594 19.765625 18.5 19.765625 C 18.542969 19.765625 18.601562 19.785156 18.59375 19.824219 C 18.589844 19.851562 18.554688 19.863281 18.527344 19.867188 C 18.382812 19.886719 18.234375 19.890625 18.089844 19.878906 C 18.058594 19.878906 18.023438 19.875 17.996094 19.882812 C 17.964844 19.894531 17.9375 19.921875 17.941406 19.957031 C 17.945312 19.996094 17.992188 20.015625 18.03125 20.023438 C 18.125 20.046875 18.21875 20.0625 18.304688 20.105469 C 18.386719 20.148438 18.460938 20.222656 18.472656 20.320312 C 18.347656 20.3125 18.207031 20.320312 18.136719 20.421875 C 18.121094 20.445312 18.105469 20.476562 18.078125 20.484375 C 18.03125 20.496094 17.996094 20.433594 17.945312 20.429688 C 17.878906 20.421875 17.832031 20.535156 17.769531 20.511719 C 17.75 20.503906 17.738281 20.484375 17.71875 20.472656 C 17.6875 20.449219 17.648438 20.445312 17.609375 20.441406 C 17.539062 20.425781 17.472656 20.386719 17.421875 20.332031 C 17.390625 20.300781 17.371094 20.242188 17.410156 20.21875 C 17.425781 20.203125 17.449219 20.207031 17.472656 20.207031 C 17.539062 20.199219 17.59375 20.140625 17.59375 20.074219 C 17.550781 20.085938 17.519531 20.117188 17.480469 20.128906 C 17.441406 20.140625 17.382812 20.121094 17.382812 20.082031 C 17.335938 20.082031 17.355469 20.1875 17.3125 20.183594 C 17.300781 20.183594 17.292969 20.175781 17.285156 20.167969 C 17.242188 20.125 17.222656 20.0625 17.195312 20.011719 C 17.164062 19.957031 17.109375 19.90625 17.046875 19.917969 C 17 19.925781 16.960938 19.972656 16.914062 19.960938 C 16.886719 19.957031 16.863281 19.933594 16.835938 19.925781 C 16.765625 19.898438 16.691406 19.96875 16.617188 19.953125 C 16.554688 19.9375 16.515625 19.863281 16.453125 19.847656 C 16.425781 19.84375 16.394531 19.847656 16.371094 19.832031 C 16.332031 19.800781 16.355469 19.726562 16.316406 19.691406 C 16.300781 19.679688 16.28125 19.671875 16.265625 19.671875 C 16.160156 19.65625 16.046875 19.671875 15.953125 19.722656 C 15.921875 19.738281 15.886719 19.761719 15.851562 19.757812 C 15.820312 19.757812 15.796875 19.742188 15.769531 19.734375 C 15.722656 19.71875 15.671875 19.730469 15.625 19.722656 C 15.578125 19.71875 15.527344 19.691406 15.523438 19.640625 C 15.523438 19.628906 15.527344 19.613281 15.519531 19.597656 C 15.511719 19.582031 15.492188 19.578125 15.472656 19.574219 C 15.289062 19.546875 15.109375 19.648438 14.925781 19.640625 C 14.917969 19.640625 14.90625 19.640625 14.898438 19.632812 C 14.890625 19.625 14.890625 19.613281 14.882812 19.601562 C 14.855469 19.5625 14.773438 19.59375 14.757812 19.550781 C 14.730469 19.546875 14.699219 19.527344 14.671875 19.523438 C 14.660156 19.523438 14.644531 19.523438 14.636719 19.515625 C 14.609375 19.496094 14.617188 19.457031 14.636719 19.433594 C 14.65625 19.410156 14.6875 19.398438 14.710938 19.378906 C 14.722656 19.375 14.730469 19.363281 14.734375 19.351562 C 14.738281 19.324219 14.695312 19.3125 14.664062 19.316406 C 14.617188 19.320312 14.558594 19.332031 14.535156 19.375 C 14.507812 19.414062 14.523438 19.472656 14.488281 19.503906 C 14.441406 19.550781 14.359375 19.507812 14.304688 19.542969 C 14.316406 19.566406 14.304688 19.601562 14.28125 19.617188 C 14.253906 19.628906 14.21875 19.621094 14.203125 19.59375 C 14.191406 19.578125 14.191406 19.554688 14.175781 19.539062 C 14.160156 19.53125 14.144531 19.53125 14.128906 19.523438 C 14.101562 19.503906 14.121094 19.457031 14.113281 19.421875 C 14.109375 19.378906 14.046875 19.351562 14.007812 19.375 C 14.027344 19.386719 14.023438 19.414062 14.007812 19.429688 C 13.992188 19.441406 13.96875 19.441406 13.945312 19.441406 C 13.925781 19.441406 13.902344 19.4375 13.886719 19.445312 C 13.863281 19.457031 13.847656 19.480469 13.824219 19.480469 C 13.804688 19.480469 13.785156 19.457031 13.78125 19.4375 C 13.777344 19.414062 13.78125 19.390625 13.777344 19.367188 C 13.765625 19.320312 13.722656 19.289062 13.683594 19.265625 C 13.644531 19.242188 13.605469 19.214844 13.570312 19.191406 C 13.554688 19.183594 13.539062 19.171875 13.527344 19.160156 C 13.511719 19.128906 13.519531 19.089844 13.519531 19.054688 C 13.519531 18.917969 13.34375 18.839844 13.3125 18.707031 C 13.308594 18.6875 13.304688 18.667969 13.296875 18.652344 C 13.265625 18.605469 13.191406 18.617188 13.140625 18.59375 C 13.097656 18.570312 13.074219 18.523438 13.046875 18.484375 C 13.015625 18.445312 12.964844 18.410156 12.921875 18.429688 C 12.917969 18.464844 12.914062 18.496094 12.90625 18.53125 C 12.863281 18.511719 12.855469 18.453125 12.84375 18.410156 C 12.828125 18.339844 12.789062 18.265625 12.722656 18.25 C 12.699219 18.242188 12.675781 18.242188 12.65625 18.230469 C 12.617188 18.203125 12.621094 18.148438 12.628906 18.101562 C 12.632812 18.074219 12.652344 18.042969 12.667969 18.023438 C 12.726562 17.964844 12.773438 17.886719 12.707031 17.8125 C 12.703125 17.808594 12.699219 17.804688 12.695312 17.804688 C 12.683594 17.796875 12.664062 17.804688 12.65625 17.816406 C 12.648438 17.832031 12.648438 17.84375 12.648438 17.859375 C 12.644531 17.882812 12.644531 17.902344 12.640625 17.925781 C 12.640625 17.9375 12.636719 17.949219 12.632812 17.957031 C 12.625 17.964844 12.609375 17.964844 12.601562 17.964844 C 12.539062 17.96875 12.476562 17.945312 12.429688 17.90625 C 12.398438 17.875 12.34375 17.863281 12.304688 17.851562 C 12.253906 17.832031 12.207031 17.808594 12.167969 17.777344 C 12.125 17.742188 12.09375 17.695312 12.09375 17.644531 C 12.09375 17.621094 12.101562 17.59375 12.125 17.582031 C 12.148438 17.574219 12.175781 17.589844 12.195312 17.574219 C 12.207031 17.5625 12.203125 17.539062 12.195312 17.523438 C 12.183594 17.511719 12.167969 17.503906 12.152344 17.492188 C 12.113281 17.457031 12.09375 17.40625 12.0625 17.363281 C 12.015625 17.296875 11.949219 17.257812 11.902344 17.195312 C 11.847656 17.117188 11.828125 17.011719 11.75 16.957031 C 11.738281 16.945312 11.722656 16.9375 11.714844 16.921875 C 11.707031 16.90625 11.707031 16.886719 11.707031 16.867188 C 11.714844 16.777344 11.660156 16.691406 11.597656 16.621094 C 11.535156 16.554688 11.457031 16.496094 11.402344 16.421875 C 11.382812 16.398438 11.367188 16.371094 11.34375 16.351562 C 11.285156 16.308594 11.207031 16.328125 11.136719 16.320312 C 11.078125 16.3125 11.019531 16.285156 10.972656 16.242188 C 10.957031 16.226562 10.945312 16.210938 10.925781 16.199219 C 10.847656 16.144531 10.722656 16.207031 10.648438 16.144531 C 10.566406 16.1875 10.484375 16.015625 10.394531 16.035156 C 10.363281 16.042969 10.335938 16.074219 10.300781 16.074219 C 10.257812 16.074219 10.226562 16.019531 10.183594 16.019531 C 10.148438 16.019531 10.105469 16.054688 10.082031 16.027344 C 10.070312 16.015625 10.070312 15.992188 10.054688 15.980469 C 10.027344 15.957031 9.984375 16.011719 9.949219 16 C 9.933594 15.992188 9.925781 15.972656 9.90625 15.964844 C 9.878906 15.949219 9.84375 15.988281 9.863281 16.015625 C 9.824219 16.027344 9.8125 15.945312 9.769531 15.941406 C 9.757812 15.941406 9.742188 15.953125 9.730469 15.957031 C 9.683594 15.980469 9.625 15.953125 9.585938 15.917969 C 9.558594 15.894531 9.535156 15.863281 9.542969 15.828125 C 9.554688 15.792969 9.601562 15.777344 9.609375 15.742188 C 9.625 15.695312 9.574219 15.660156 9.558594 15.617188 C 9.546875 15.59375 9.546875 15.570312 9.535156 15.550781 C 9.523438 15.527344 9.492188 15.515625 9.476562 15.53125 C 9.492188 15.585938 9.523438 15.636719 9.519531 15.695312 C 9.519531 15.753906 9.464844 15.816406 9.410156 15.789062 C 9.433594 15.71875 9.40625 15.632812 9.347656 15.589844 C 9.328125 15.574219 9.304688 15.5625 9.289062 15.542969 C 9.265625 15.523438 9.253906 15.488281 9.230469 15.464844 C 9.210938 15.441406 9.167969 15.429688 9.148438 15.453125 C 9.121094 15.496094 9.160156 15.550781 9.195312 15.582031 C 9.234375 15.617188 9.277344 15.660156 9.261719 15.710938 C 9.214844 15.761719 9.109375 15.734375 9.09375 15.667969 C 9.082031 15.632812 9.09375 15.59375 9.082031 15.5625 C 9.074219 15.527344 9.027344 15.5 9.003906 15.523438 C 8.992188 15.535156 8.992188 15.550781 8.992188 15.566406 C 9.003906 15.648438 9.089844 15.722656 9.054688 15.792969 C 9 15.742188 8.972656 15.667969 8.933594 15.605469 C 8.894531 15.542969 8.828125 15.484375 8.753906 15.492188 C 8.78125 15.554688 8.816406 15.617188 8.859375 15.671875 C 8.820312 15.765625 8.675781 15.796875 8.601562 15.726562 C 8.582031 15.707031 8.570312 15.6875 8.546875 15.675781 C 8.523438 15.664062 8.488281 15.671875 8.484375 15.695312 C 8.445312 15.667969 8.40625 15.640625 8.367188 15.613281 C 8.359375 15.632812 8.367188 15.652344 8.371094 15.671875 C 8.386719 15.722656 8.402344 15.769531 8.421875 15.820312 C 8.4375 15.878906 8.457031 15.9375 8.488281 15.992188 C 8.429688 16.035156 8.335938 16.007812 8.308594 15.941406 C 8.300781 15.917969 8.300781 15.886719 8.28125 15.871094 C 8.265625 15.859375 8.246094 15.859375 8.230469 15.855469 C 8.140625 15.835938 8.058594 15.792969 7.996094 15.726562 C 7.964844 15.691406 7.9375 15.65625 7.902344 15.625 C 7.867188 15.59375 7.816406 15.574219 7.773438 15.589844 C 7.898438 15.71875 7.894531 15.929688 8.003906 16.074219 C 8.03125 16.113281 8.070312 16.144531 8.09375 16.1875 C 8.117188 16.230469 8.125 16.285156 8.097656 16.324219 C 8.058594 16.375 7.984375 16.371094 7.921875 16.359375 C 7.800781 16.335938 7.671875 16.296875 7.554688 16.34375 C 7.535156 16.351562 7.515625 16.375 7.53125 16.386719 C 7.546875 16.367188 7.574219 16.398438 7.570312 16.421875 C 7.566406 16.441406 7.550781 16.464844 7.558594 16.488281 C 7.5625 16.507812 7.585938 16.515625 7.601562 16.53125 C 7.632812 16.558594 7.640625 16.609375 7.617188 16.644531 C 7.59375 16.679688 7.542969 16.695312 7.503906 16.679688 L 7.476562 16.660156 C 7.203125 16.699219 6.929688 16.738281 6.65625 16.777344 C 6.628906 16.78125 6.601562 16.785156 6.574219 16.78125 C 6.546875 16.78125 6.523438 16.769531 6.496094 16.757812 C 6.347656 16.707031 6.175781 16.707031 6.027344 16.761719 C 6.015625 16.765625 6 16.773438 5.988281 16.769531 C 5.957031 16.765625 5.949219 16.722656 5.941406 16.6875 C 5.917969 16.59375 5.8125 16.542969 5.714844 16.53125 C 5.6875 16.53125 5.65625 16.53125 5.632812 16.542969 C 5.585938 16.566406 5.550781 16.628906 5.5 16.621094 C 5.59375 16.660156 5.730469 16.570312 5.792969 16.648438 C 5.816406 16.679688 5.816406 16.722656 5.832031 16.761719 C 5.867188 16.839844 5.96875 16.859375 6.054688 16.84375 C 6.136719 16.832031 6.21875 16.792969 6.304688 16.792969 C 6.503906 16.796875 6.644531 17.011719 6.839844 17.0625 C 6.867188 17.070312 6.898438 17.074219 6.925781 17.085938 C 6.964844 17.105469 6.992188 17.136719 7.023438 17.164062 C 7.121094 17.253906 7.265625 17.3125 7.300781 17.441406 C 7.308594 17.46875 7.308594 17.492188 7.3125 17.519531 C 7.316406 17.609375 7.324219 17.695312 7.332031 17.78125 C 7.335938 17.816406 7.335938 17.855469 7.316406 17.882812 C 7.273438 17.953125 7.167969 17.917969 7.089844 17.9375 C 7.046875 17.949219 7.007812 17.980469 6.960938 17.988281 C 6.925781 17.992188 6.890625 17.980469 6.855469 17.988281 C 6.824219 17.992188 6.792969 18.015625 6.765625 18.035156 C 6.582031 18.167969 6.390625 18.328125 6.164062 18.316406 C 6.03125 18.308594 5.910156 18.242188 5.792969 18.175781 C 5.742188 18.148438 5.691406 18.121094 5.644531 18.089844 C 5.625 18.082031 5.609375 18.074219 5.597656 18.058594 C 5.550781 18 5.601562 17.886719 5.535156 17.847656 C 5.496094 17.910156 5.539062 17.992188 5.519531 18.0625 C 5.503906 18.113281 5.449219 18.148438 5.398438 18.148438 C 5.34375 18.144531 5.296875 18.101562 5.289062 18.050781 C 5.28125 18.023438 5.277344 17.984375 5.25 17.988281 C 5.285156 18.035156 5.257812 18.105469 5.207031 18.132812 C 5.15625 18.15625 5.089844 18.144531 5.046875 18.109375 C 5 18.078125 4.96875 18.027344 4.941406 17.976562 C 4.871094 18.007812 4.820312 18.066406 4.757812 18.113281 C 4.695312 18.15625 4.621094 18.195312 4.542969 18.175781 C 4.484375 18.164062 4.4375 18.117188 4.382812 18.082031 C 4.308594 18.035156 4.222656 18.015625 4.136719 18.023438 C 4.078125 18.007812 4.015625 18 3.957031 17.984375 C 3.902344 17.996094 3.839844 18.011719 3.785156 18.023438 C 3.757812 18.03125 3.726562 18.046875 3.695312 18.046875 " fill-opacity="1" fill-rule="nonzero"/></g><path fill="#014d4e" d="M 12.929688 12.316406 C 12.910156 12.300781 12.898438 12.273438 12.878906 12.257812 C 12.859375 12.246094 12.839844 12.242188 12.816406 12.234375 C 12.796875 12.222656 12.777344 12.203125 12.78125 12.183594 C 12.785156 12.167969 12.796875 12.15625 12.800781 12.140625 C 12.800781 12.128906 12.800781 12.121094 12.800781 12.109375 C 12.800781 12.074219 12.835938 12.050781 12.863281 12.039062 C 12.894531 12.023438 12.929688 12.007812 12.941406 11.972656 C 12.945312 11.96875 12.945312 11.960938 12.953125 11.957031 C 12.960938 11.949219 12.972656 11.957031 12.980469 11.964844 C 13.011719 11.988281 13.042969 12.011719 13.070312 12.035156 C 13.082031 12.042969 13.09375 12.054688 13.097656 12.066406 C 13.105469 12.078125 13.101562 12.09375 13.105469 12.109375 C 13.117188 12.140625 13.15625 12.164062 13.148438 12.195312 C 13.148438 12.203125 13.144531 12.210938 13.140625 12.214844 C 13.125 12.242188 13.117188 12.269531 13.097656 12.292969 C 13.066406 12.332031 12.96875 12.347656 12.929688 12.316406 " fill-opacity="1" fill-rule="nonzero"/><path fill="#014d4e" d="M 14.238281 12.851562 C 14.21875 12.808594 14.199219 12.761719 14.15625 12.742188 C 14.132812 12.730469 14.105469 12.722656 14.09375 12.703125 C 14.085938 12.683594 14.089844 12.660156 14.070312 12.648438 C 14.066406 12.644531 14.058594 12.644531 14.050781 12.640625 C 14.023438 12.636719 14 12.632812 13.972656 12.628906 C 13.96875 12.628906 13.960938 12.628906 13.957031 12.625 C 13.953125 12.621094 13.949219 12.617188 13.949219 12.613281 C 13.929688 12.5625 13.925781 12.503906 13.949219 12.453125 C 13.976562 12.40625 14.027344 12.371094 14.082031 12.371094 C 14.101562 12.375 14.125 12.382812 14.140625 12.398438 C 14.148438 12.410156 14.152344 12.421875 14.160156 12.429688 C 14.167969 12.453125 14.183594 12.472656 14.207031 12.484375 C 14.222656 12.492188 14.242188 12.492188 14.257812 12.496094 C 14.320312 12.503906 14.382812 12.523438 14.4375 12.554688 C 14.472656 12.574219 14.507812 12.601562 14.511719 12.644531 C 14.511719 12.667969 14.503906 12.6875 14.492188 12.710938 C 14.480469 12.730469 14.472656 12.753906 14.460938 12.777344 C 14.453125 12.792969 14.445312 12.808594 14.441406 12.824219 C 14.4375 12.839844 14.4375 12.855469 14.433594 12.871094 C 14.425781 12.910156 14.382812 12.960938 14.335938 12.957031 C 14.292969 12.953125 14.257812 12.886719 14.238281 12.851562 " fill-opacity="1" fill-rule="nonzero"/><path fill="#014d4e" d="M 15.710938 13.113281 C 15.714844 13.148438 15.765625 13.160156 15.78125 13.191406 C 15.785156 13.203125 15.785156 13.21875 15.792969 13.230469 C 15.808594 13.269531 15.871094 13.261719 15.898438 13.292969 C 15.90625 13.304688 15.910156 13.320312 15.917969 13.335938 C 15.929688 13.355469 15.949219 13.375 15.972656 13.378906 C 15.992188 13.386719 16.023438 13.386719 16.023438 13.410156 C 16.023438 13.429688 16 13.4375 15.980469 13.441406 C 15.960938 13.449219 15.945312 13.464844 15.929688 13.480469 C 15.960938 13.492188 15.988281 13.5 16.019531 13.503906 C 16.03125 13.507812 16.046875 13.507812 16.058594 13.5 C 16.074219 13.496094 16.085938 13.480469 16.097656 13.464844 C 16.109375 13.445312 16.125 13.421875 16.136719 13.394531 C 16.140625 13.386719 16.144531 13.378906 16.148438 13.375 C 16.15625 13.375 16.160156 13.375 16.167969 13.375 C 16.199219 13.375 16.230469 13.375 16.261719 13.375 C 16.28125 13.375 16.300781 13.375 16.316406 13.363281 C 16.324219 13.355469 16.328125 13.347656 16.332031 13.335938 C 16.359375 13.304688 16.414062 13.296875 16.445312 13.324219 C 16.453125 13.332031 16.460938 13.34375 16.46875 13.351562 C 16.511719 13.398438 16.585938 13.394531 16.625 13.441406 C 16.648438 13.46875 16.652344 13.503906 16.671875 13.535156 C 16.691406 13.566406 16.710938 13.582031 16.742188 13.597656 C 16.765625 13.59375 16.789062 13.613281 16.796875 13.636719 C 16.808594 13.65625 16.820312 13.679688 16.839844 13.691406 C 16.851562 13.695312 16.867188 13.695312 16.878906 13.695312 C 17.019531 13.6875 17.164062 13.6875 17.308594 13.695312 C 17.335938 13.699219 17.363281 13.699219 17.382812 13.714844 C 17.398438 13.722656 17.414062 13.738281 17.429688 13.746094 C 17.460938 13.765625 17.519531 13.773438 17.523438 13.722656 C 17.523438 13.707031 17.519531 13.6875 17.523438 13.671875 C 17.574219 13.675781 17.628906 13.675781 17.683594 13.679688 C 17.746094 13.679688 17.800781 13.703125 17.863281 13.710938 C 17.914062 13.714844 17.96875 13.707031 18.019531 13.691406 C 18.15625 13.648438 18.277344 13.558594 18.382812 13.460938 C 18.378906 13.480469 18.378906 13.503906 18.386719 13.523438 C 18.394531 13.542969 18.414062 13.5625 18.4375 13.558594 C 18.472656 13.550781 18.476562 13.5 18.503906 13.476562 C 18.53125 13.453125 18.570312 13.457031 18.601562 13.4375 C 18.617188 13.421875 18.628906 13.402344 18.640625 13.386719 C 18.683594 13.328125 18.757812 13.304688 18.828125 13.296875 C 18.898438 13.285156 18.972656 13.285156 19.035156 13.253906 C 19.066406 13.238281 19.09375 13.214844 19.121094 13.195312 C 19.1875 13.148438 19.265625 13.121094 19.339844 13.085938 C 19.40625 13.050781 19.472656 13.042969 19.519531 12.972656 C 19.546875 12.929688 19.566406 12.882812 19.605469 12.851562 C 19.644531 12.820312 19.699219 12.808594 19.734375 12.773438 C 19.757812 12.746094 19.769531 12.714844 19.789062 12.691406 C 19.859375 12.605469 20.019531 12.613281 20.054688 12.511719 C 20.058594 12.507812 20.058594 12.503906 20.0625 12.5 C 20.070312 12.488281 20.089844 12.492188 20.097656 12.503906 C 20.105469 12.515625 20.109375 12.53125 20.113281 12.542969 C 20.128906 12.597656 20.179688 12.625 20.226562 12.652344 C 20.238281 12.65625 20.253906 12.664062 20.265625 12.664062 C 20.277344 12.664062 20.289062 12.65625 20.296875 12.652344 C 20.453125 12.566406 20.613281 12.476562 20.726562 12.339844 C 20.738281 12.324219 20.75 12.3125 20.75 12.292969 C 20.753906 12.273438 20.746094 12.257812 20.734375 12.242188 C 20.699219 12.171875 20.660156 12.105469 20.613281 12.042969 C 20.570312 11.988281 20.515625 11.9375 20.496094 11.871094 C 20.476562 11.800781 20.511719 11.714844 20.578125 11.707031 C 20.597656 11.703125 20.617188 11.707031 20.636719 11.710938 C 20.746094 11.726562 20.859375 11.699219 20.945312 11.632812 C 21.03125 11.566406 21.039062 11.460938 21.089844 11.363281 C 21.125 11.28125 21.105469 11.1875 21.082031 11.105469 C 21.058594 11.019531 21.03125 10.929688 21.054688 10.84375 C 21.0625 10.820312 21.070312 10.796875 21.078125 10.773438 C 21.085938 10.742188 21.085938 10.707031 21.082031 10.671875 C 21.082031 10.632812 21.078125 10.597656 21.078125 10.558594 C 21.074219 10.550781 21.074219 10.539062 21.070312 10.53125 C 21.0625 10.523438 21.050781 10.523438 21.042969 10.53125 C 21.050781 10.578125 21.035156 10.632812 20.996094 10.664062 C 20.960938 10.699219 20.894531 10.695312 20.867188 10.652344 C 20.855469 10.640625 20.847656 10.617188 20.828125 10.621094 C 20.820312 10.621094 20.816406 10.625 20.8125 10.628906 C 20.773438 10.65625 20.726562 10.664062 20.683594 10.648438 C 20.703125 10.570312 20.710938 10.488281 20.707031 10.40625 C 20.695312 10.390625 20.671875 10.386719 20.652344 10.394531 C 20.632812 10.398438 20.613281 10.414062 20.59375 10.417969 C 20.566406 10.429688 20.53125 10.425781 20.5 10.421875 C 20.5 10.460938 20.515625 10.5 20.546875 10.527344 C 20.558594 10.535156 20.574219 10.542969 20.582031 10.558594 C 20.59375 10.585938 20.574219 10.617188 20.554688 10.640625 C 20.519531 10.679688 20.476562 10.71875 20.425781 10.71875 C 20.378906 10.714844 20.34375 10.671875 20.316406 10.632812 C 20.296875 10.601562 20.273438 10.566406 20.238281 10.554688 C 20.222656 10.554688 20.210938 10.554688 20.195312 10.550781 C 20.171875 10.546875 20.144531 10.539062 20.121094 10.527344 C 20.019531 10.488281 19.902344 10.46875 19.800781 10.511719 C 19.785156 10.515625 19.773438 10.519531 19.765625 10.53125 C 19.746094 10.554688 19.753906 10.589844 19.761719 10.621094 C 19.792969 10.710938 19.847656 10.792969 19.917969 10.863281 C 19.929688 10.875 19.945312 10.886719 19.953125 10.90625 C 19.964844 10.933594 19.964844 10.964844 19.953125 10.996094 C 19.980469 11.074219 19.996094 11.152344 20.003906 11.234375 C 20.007812 11.292969 20.007812 11.359375 20.035156 11.414062 C 20.046875 11.433594 20.058594 11.453125 20.066406 11.476562 C 20.085938 11.535156 20.058594 11.597656 20.019531 11.648438 C 20.007812 11.660156 19.996094 11.675781 19.980469 11.683594 C 19.917969 11.714844 19.855469 11.628906 19.785156 11.632812 C 19.75 11.632812 19.71875 11.652344 19.6875 11.664062 C 19.65625 11.679688 19.613281 11.683594 19.59375 11.65625 C 19.578125 11.640625 19.570312 11.609375 19.546875 11.613281 C 19.539062 11.613281 19.53125 11.617188 19.523438 11.625 C 19.402344 11.722656 19.28125 11.824219 19.171875 11.933594 C 19.09375 12.007812 19.011719 12.09375 19.003906 12.203125 C 18.996094 12.265625 19.015625 12.332031 19 12.394531 C 18.972656 12.496094 18.828125 12.546875 18.742188 12.488281 C 18.714844 12.464844 18.683594 12.433594 18.648438 12.445312 C 18.632812 12.449219 18.621094 12.464844 18.609375 12.480469 C 18.558594 12.542969 18.484375 12.601562 18.40625 12.585938 C 18.289062 12.558594 18.25 12.382812 18.132812 12.367188 C 18.097656 12.429688 18.058594 12.496094 18.003906 12.542969 C 17.949219 12.589844 17.875 12.621094 17.804688 12.605469 C 17.777344 12.597656 17.75 12.585938 17.722656 12.582031 C 17.699219 12.582031 17.671875 12.585938 17.652344 12.570312 C 17.609375 12.542969 17.640625 12.472656 17.625 12.425781 C 17.605469 12.371094 17.523438 12.347656 17.515625 12.292969 C 17.515625 12.273438 17.519531 12.253906 17.527344 12.234375 C 17.554688 12.175781 17.597656 12.117188 17.578125 12.054688 C 17.574219 12.027344 17.554688 12.003906 17.558594 11.976562 C 17.558594 11.945312 17.589844 11.921875 17.617188 11.910156 C 17.648438 11.898438 17.679688 11.894531 17.710938 11.882812 C 17.722656 11.878906 17.734375 11.871094 17.742188 11.859375 C 17.75 11.84375 17.746094 11.824219 17.742188 11.808594 C 17.726562 11.765625 17.679688 11.734375 17.632812 11.722656 C 17.585938 11.714844 17.542969 11.71875 17.496094 11.722656 C 17.46875 11.757812 17.460938 11.808594 17.472656 11.851562 C 17.484375 11.875 17.496094 11.894531 17.507812 11.917969 C 17.539062 12.007812 17.472656 12.105469 17.394531 12.164062 C 17.363281 12.1875 17.332031 12.214844 17.328125 12.253906 C 17.328125 12.292969 17.371094 12.324219 17.382812 12.363281 C 17.402344 12.429688 17.339844 12.496094 17.273438 12.515625 C 17.207031 12.535156 17.132812 12.53125 17.070312 12.5625 C 17.023438 12.582031 16.980469 12.617188 16.933594 12.601562 C 16.929688 12.546875 16.917969 12.496094 16.894531 12.449219 C 16.851562 12.488281 16.847656 12.5625 16.792969 12.589844 C 16.753906 12.609375 16.707031 12.59375 16.664062 12.585938 C 16.511719 12.558594 16.355469 12.660156 16.203125 12.632812 C 16.15625 12.625 16.113281 12.601562 16.066406 12.597656 C 16.007812 12.589844 15.9375 12.601562 15.890625 12.558594 C 15.867188 12.539062 15.855469 12.503906 15.832031 12.484375 C 15.789062 12.453125 15.730469 12.464844 15.679688 12.46875 C 15.515625 12.476562 15.355469 12.386719 15.195312 12.414062 C 15.15625 12.417969 15.117188 12.429688 15.085938 12.414062 C 15.042969 12.398438 15.019531 12.351562 14.976562 12.347656 C 14.929688 12.34375 14.898438 12.386719 14.878906 12.425781 C 14.859375 12.464844 14.835938 12.503906 14.816406 12.542969 C 14.808594 12.5625 14.796875 12.582031 14.792969 12.605469 C 14.792969 12.628906 14.804688 12.652344 14.8125 12.675781 C 14.828125 12.707031 14.839844 12.734375 14.851562 12.765625 C 14.859375 12.777344 14.863281 12.789062 14.875 12.800781 C 14.882812 12.808594 14.894531 12.8125 14.90625 12.816406 C 14.976562 12.84375 15.050781 12.867188 15.121094 12.894531 C 15.136719 12.902344 15.152344 12.90625 15.171875 12.902344 C 15.183594 12.898438 15.191406 12.890625 15.203125 12.886719 C 15.238281 12.871094 15.277344 12.882812 15.3125 12.894531 C 15.417969 12.933594 15.519531 12.984375 15.617188 13.039062 C 15.65625 13.0625 15.675781 13.085938 15.710938 13.113281 " fill-opacity="1" fill-rule="nonzero"/><path fill="#014d4e" d="M 21.695312 11.339844 C 21.773438 11.375 21.792969 11.472656 21.847656 11.539062 C 21.855469 11.554688 21.871094 11.566406 21.890625 11.566406 C 21.90625 11.5625 21.917969 11.546875 21.929688 11.535156 C 22.003906 11.429688 22.078125 11.320312 22.144531 11.210938 C 22.171875 11.175781 22.195312 11.125 22.164062 11.089844 C 22.152344 11.074219 22.136719 11.070312 22.125 11.054688 C 22.085938 11.019531 22.109375 10.957031 22.144531 10.917969 C 22.179688 10.878906 22.222656 10.84375 22.238281 10.796875 C 22.25 10.757812 22.242188 10.71875 22.230469 10.683594 C 22.210938 10.597656 22.1875 10.507812 22.128906 10.445312 C 22.101562 10.417969 22.066406 10.394531 22.050781 10.359375 C 22.042969 10.339844 22.039062 10.316406 22.023438 10.300781 C 22.011719 10.289062 21.996094 10.285156 21.980469 10.277344 C 21.9375 10.25 21.921875 10.191406 21.949219 10.148438 C 21.953125 10.136719 21.960938 10.128906 21.964844 10.117188 C 21.96875 10.089844 21.9375 10.070312 21.910156 10.058594 C 21.882812 10.050781 21.851562 10.042969 21.84375 10.015625 C 21.839844 10.003906 21.839844 9.988281 21.835938 9.976562 C 21.828125 9.953125 21.796875 9.941406 21.769531 9.945312 C 21.746094 9.945312 21.71875 9.957031 21.691406 9.953125 C 21.640625 9.949219 21.601562 9.902344 21.554688 9.882812 C 21.527344 9.875 21.496094 9.871094 21.46875 9.859375 C 21.441406 9.847656 21.417969 9.820312 21.425781 9.792969 C 21.429688 9.773438 21.449219 9.75 21.4375 9.730469 C 21.433594 9.722656 21.425781 9.71875 21.417969 9.714844 C 21.390625 9.699219 21.363281 9.683594 21.335938 9.671875 C 21.28125 9.652344 21.226562 9.640625 21.175781 9.617188 C 21.148438 9.601562 21.117188 9.585938 21.09375 9.558594 C 21.070312 9.539062 21.070312 9.519531 21.058594 9.496094 C 21.03125 9.445312 20.957031 9.417969 20.910156 9.386719 C 20.847656 9.347656 20.78125 9.304688 20.722656 9.257812 C 20.691406 9.238281 20.660156 9.210938 20.640625 9.179688 C 20.621094 9.140625 20.613281 9.097656 20.582031 9.070312 C 20.550781 9.042969 20.496094 9.046875 20.460938 9.023438 C 20.417969 9 20.398438 8.953125 20.359375 8.929688 C 20.292969 8.894531 20.207031 8.941406 20.140625 8.90625 C 20.121094 8.894531 20.105469 8.878906 20.089844 8.863281 C 20.050781 8.824219 20.007812 8.785156 19.960938 8.75 C 19.941406 8.738281 19.921875 8.722656 19.898438 8.714844 C 19.882812 8.710938 19.871094 8.710938 19.855469 8.707031 C 19.828125 8.695312 19.808594 8.675781 19.789062 8.660156 C 19.714844 8.601562 19.632812 8.5625 19.546875 8.523438 C 19.515625 8.507812 19.484375 8.492188 19.453125 8.476562 C 19.433594 8.46875 19.414062 8.460938 19.394531 8.464844 C 19.371094 8.472656 19.355469 8.496094 19.332031 8.5 C 19.3125 8.5 19.296875 8.484375 19.28125 8.472656 C 19.222656 8.414062 19.164062 8.355469 19.105469 8.300781 C 19.097656 8.300781 19.089844 8.285156 19.082031 8.28125 C 19.023438 8.242188 18.996094 8.171875 18.957031 8.113281 C 18.941406 8.082031 18.917969 8.054688 18.882812 8.050781 C 18.859375 8.046875 18.835938 8.058594 18.808594 8.0625 C 18.78125 8.070312 18.746094 8.066406 18.71875 8.054688 C 18.707031 8.046875 18.695312 8.039062 18.679688 8.039062 C 18.664062 8.035156 18.648438 8.039062 18.640625 8.050781 C 18.636719 8.066406 18.644531 8.082031 18.65625 8.09375 C 18.667969 8.101562 18.683594 8.105469 18.699219 8.109375 C 18.738281 8.125 18.769531 8.15625 18.785156 8.191406 C 18.789062 8.203125 18.792969 8.214844 18.785156 8.222656 C 18.78125 8.226562 18.777344 8.230469 18.773438 8.234375 C 18.738281 8.25 18.699219 8.242188 18.660156 8.242188 C 18.617188 8.242188 18.578125 8.253906 18.542969 8.277344 C 18.53125 8.285156 18.519531 8.292969 18.519531 8.304688 C 18.515625 8.320312 18.523438 8.332031 18.535156 8.339844 C 18.546875 8.34375 18.5625 8.347656 18.574219 8.347656 C 18.648438 8.355469 18.726562 8.359375 18.800781 8.355469 C 18.820312 8.355469 18.84375 8.355469 18.867188 8.359375 C 18.890625 8.363281 18.914062 8.371094 18.9375 8.378906 C 18.984375 8.394531 19.027344 8.410156 19.070312 8.433594 C 19.09375 8.445312 19.113281 8.460938 19.136719 8.476562 C 19.171875 8.496094 19.207031 8.507812 19.234375 8.539062 C 19.261719 8.570312 19.296875 8.601562 19.332031 8.628906 C 19.410156 8.675781 19.5 8.703125 19.566406 8.761719 C 19.589844 8.78125 19.609375 8.804688 19.628906 8.828125 C 19.65625 8.859375 19.6875 8.894531 19.714844 8.929688 C 19.765625 8.941406 19.804688 8.972656 19.847656 9 C 19.980469 9.085938 20.117188 9.171875 20.25 9.253906 C 20.273438 9.269531 20.296875 9.28125 20.324219 9.292969 C 20.363281 9.3125 20.402344 9.320312 20.445312 9.335938 C 20.523438 9.371094 20.59375 9.433594 20.679688 9.445312 C 20.707031 9.445312 20.738281 9.445312 20.765625 9.449219 C 20.804688 9.460938 20.839844 9.488281 20.871094 9.519531 C 20.921875 9.566406 20.976562 9.613281 21.023438 9.664062 C 21.058594 9.699219 21.089844 9.738281 21.121094 9.773438 C 21.164062 9.828125 21.210938 9.882812 21.257812 9.9375 C 21.304688 9.992188 21.351562 10.050781 21.390625 10.113281 C 21.414062 10.152344 21.425781 10.191406 21.441406 10.230469 C 21.457031 10.265625 21.46875 10.300781 21.480469 10.335938 C 21.496094 10.375 21.507812 10.414062 21.519531 10.453125 C 21.535156 10.492188 21.550781 10.535156 21.558594 10.582031 C 21.578125 10.699219 21.546875 10.820312 21.542969 10.9375 C 21.539062 10.941406 21.542969 10.949219 21.542969 10.953125 C 21.527344 11.035156 21.546875 11.121094 21.59375 11.191406 C 21.621094 11.238281 21.671875 11.292969 21.695312 11.339844 " fill-opacity="1" fill-rule="nonzero"/><path fill="#014d4e" d="M 21.304688 8.722656 C 21.3125 8.703125 21.324219 8.683594 21.332031 8.664062 C 21.332031 8.660156 21.335938 8.65625 21.339844 8.652344 C 21.34375 8.648438 21.351562 8.648438 21.359375 8.648438 C 21.390625 8.65625 21.417969 8.683594 21.425781 8.71875 C 21.429688 8.742188 21.417969 8.769531 21.429688 8.792969 C 21.4375 8.8125 21.460938 8.820312 21.464844 8.84375 C 21.46875 8.875 21.4375 8.898438 21.410156 8.902344 C 21.375 8.90625 21.355469 8.886719 21.339844 8.855469 C 21.316406 8.8125 21.285156 8.777344 21.304688 8.722656 " fill-opacity="1" fill-rule="nonzero"/><g clip-path="url(#d8bf35be67)"><path fill="#014d4e" d="M 17.582031 8.03125 C 17.542969 7.984375 17.492188 7.941406 17.433594 7.9375 C 17.425781 7.9375 17.414062 7.9375 17.40625 7.933594 C 17.398438 7.929688 17.390625 7.917969 17.386719 7.910156 C 17.367188 7.867188 17.386719 7.804688 17.429688 7.796875 C 17.464844 7.785156 17.5 7.808594 17.539062 7.816406 C 17.601562 7.832031 17.664062 7.796875 17.722656 7.765625 C 17.726562 7.761719 17.734375 7.757812 17.742188 7.757812 C 17.753906 7.761719 17.761719 7.773438 17.769531 7.78125 C 17.796875 7.816406 17.839844 7.835938 17.886719 7.84375 C 17.929688 7.855469 17.976562 7.855469 18.023438 7.859375 C 18.035156 7.863281 18.050781 7.867188 18.0625 7.871094 C 18.078125 7.882812 18.085938 7.898438 18.09375 7.914062 C 18.101562 7.925781 18.109375 7.9375 18.117188 7.953125 C 18.136719 7.984375 18.15625 8.019531 18.160156 8.058594 C 18.167969 8.097656 18.15625 8.140625 18.121094 8.160156 C 18.097656 8.175781 18.070312 8.175781 18.039062 8.179688 C 17.9375 8.179688 17.832031 8.1875 17.726562 8.183594 C 17.648438 8.179688 17.625 8.089844 17.582031 8.03125 " fill-opacity="1" fill-rule="nonzero"/></g><path fill="#014d4e" d="M 24.472656 12.132812 C 24.464844 12.097656 24.4375 12.066406 24.4375 12.03125 C 24.4375 12.011719 24.441406 11.992188 24.441406 11.972656 C 24.441406 11.953125 24.433594 11.929688 24.417969 11.921875 C 24.398438 11.914062 24.375 11.921875 24.359375 11.910156 C 24.339844 11.890625 24.359375 11.859375 24.378906 11.84375 C 24.410156 11.820312 24.445312 11.800781 24.484375 11.792969 C 24.492188 11.792969 24.5 11.792969 24.503906 11.792969 C 24.519531 11.796875 24.523438 11.816406 24.519531 11.832031 C 24.519531 11.847656 24.515625 11.863281 24.523438 11.875 C 24.53125 11.890625 24.554688 11.890625 24.574219 11.898438 C 24.605469 11.914062 24.613281 11.957031 24.617188 11.996094 C 24.621094 12.089844 24.628906 12.1875 24.636719 12.28125 C 24.636719 12.296875 24.636719 12.308594 24.632812 12.320312 C 24.628906 12.335938 24.617188 12.347656 24.609375 12.359375 C 24.59375 12.378906 24.5625 12.433594 24.535156 12.433594 C 24.507812 12.433594 24.496094 12.394531 24.488281 12.371094 C 24.464844 12.292969 24.5 12.210938 24.472656 12.132812 " fill-opacity="1" fill-rule="nonzero"/><g clip-path="url(#78dfdc5968)"><path fill="#014d4e" d="M 24.667969 12.773438 C 24.683594 12.699219 24.699219 12.621094 24.730469 12.550781 C 24.738281 12.53125 24.75 12.507812 24.753906 12.484375 C 24.757812 12.46875 24.757812 12.449219 24.765625 12.433594 C 24.785156 12.402344 24.828125 12.394531 24.863281 12.390625 C 24.898438 12.390625 24.933594 12.386719 24.96875 12.394531 C 25.035156 12.410156 25.085938 12.460938 25.132812 12.507812 C 25.164062 12.539062 25.191406 12.570312 25.210938 12.609375 C 25.234375 12.660156 25.238281 12.722656 25.265625 12.769531 C 25.285156 12.804688 25.316406 12.828125 25.332031 12.863281 C 25.347656 12.886719 25.355469 12.917969 25.375 12.9375 C 25.398438 12.964844 25.441406 12.96875 25.46875 12.992188 C 25.492188 13.007812 25.507812 13.035156 25.527344 13.058594 C 25.574219 13.113281 25.660156 13.132812 25.679688 13.203125 C 25.683594 13.214844 25.683594 13.230469 25.6875 13.242188 C 25.695312 13.261719 25.714844 13.277344 25.730469 13.292969 C 25.757812 13.324219 25.78125 13.355469 25.796875 13.394531 C 25.949219 13.496094 26.097656 13.597656 26.242188 13.707031 C 26.273438 13.734375 26.304688 13.757812 26.332031 13.789062 C 26.371094 13.847656 26.390625 13.917969 26.425781 13.976562 C 26.449219 14.011719 26.480469 14.042969 26.496094 14.082031 C 26.503906 14.109375 26.5 14.136719 26.507812 14.160156 C 26.527344 14.222656 26.589844 14.261719 26.601562 14.320312 C 26.613281 14.363281 26.59375 14.410156 26.558594 14.4375 C 26.550781 14.410156 26.53125 14.390625 26.507812 14.378906 C 26.511719 14.398438 26.492188 14.417969 26.472656 14.425781 C 26.453125 14.429688 26.429688 14.425781 26.410156 14.429688 C 26.363281 14.429688 26.324219 14.457031 26.285156 14.484375 C 26.25 14.507812 26.21875 14.527344 26.183594 14.550781 C 26.167969 14.5625 26.152344 14.574219 26.132812 14.578125 C 26.113281 14.582031 26.089844 14.578125 26.070312 14.578125 C 26.015625 14.570312 25.957031 14.558594 25.898438 14.550781 C 25.859375 14.546875 25.820312 14.539062 25.789062 14.515625 C 25.746094 14.480469 25.738281 14.417969 25.703125 14.375 C 25.679688 14.347656 25.644531 14.328125 25.625 14.300781 C 25.613281 14.28125 25.609375 14.261719 25.597656 14.246094 C 25.582031 14.210938 25.550781 14.1875 25.527344 14.15625 C 25.476562 14.101562 25.445312 14.019531 25.371094 14.003906 C 25.375 13.976562 25.410156 13.964844 25.433594 13.949219 C 25.480469 13.925781 25.515625 13.875 25.519531 13.824219 C 25.523438 13.769531 25.5 13.714844 25.457031 13.683594 C 25.367188 13.613281 25.222656 13.648438 25.148438 13.5625 C 25.125 13.535156 25.113281 13.5 25.089844 13.464844 C 25.0625 13.417969 25.011719 13.382812 24.957031 13.375 C 24.914062 13.335938 24.871094 13.300781 24.820312 13.273438 C 24.765625 13.234375 24.699219 13.199219 24.675781 13.136719 C 24.667969 13.113281 24.664062 13.085938 24.660156 13.058594 C 24.652344 12.96875 24.648438 12.863281 24.667969 12.773438 " fill-opacity="1" fill-rule="nonzero"/></g><path fill="#014d4e" d="M 19.046875 17.234375 C 19.046875 17.222656 19.050781 17.214844 19.050781 17.207031 C 19.050781 17.179688 19.019531 17.164062 18.996094 17.148438 C 18.957031 17.117188 18.945312 17.0625 18.949219 17.015625 C 18.949219 17 18.953125 16.988281 18.957031 16.976562 C 18.96875 16.953125 18.988281 16.941406 19.011719 16.929688 C 19.042969 16.910156 19.078125 16.890625 19.109375 16.871094 C 19.105469 16.917969 19.105469 16.96875 19.117188 17.019531 C 19.125 17.054688 19.136719 17.089844 19.136719 17.125 C 19.136719 17.1875 19.105469 17.246094 19.109375 17.308594 C 19.113281 17.34375 19.125 17.371094 19.132812 17.40625 C 19.132812 17.421875 19.136719 17.472656 19.121094 17.484375 C 19.09375 17.496094 19.078125 17.441406 19.070312 17.421875 C 19.046875 17.363281 19.023438 17.296875 19.046875 17.234375 " fill-opacity="1" fill-rule="nonzero"/><path fill="#014d4e" d="M 17.753906 18.539062 C 17.714844 18.523438 17.675781 18.503906 17.644531 18.476562 C 17.613281 18.449219 17.589844 18.410156 17.589844 18.367188 C 17.589844 18.34375 17.597656 18.320312 17.605469 18.296875 C 17.613281 18.273438 17.625 18.246094 17.644531 18.226562 C 17.664062 18.207031 17.695312 18.199219 17.722656 18.191406 C 17.785156 18.175781 17.855469 18.164062 17.90625 18.199219 C 17.9375 18.222656 17.953125 18.261719 17.957031 18.300781 C 17.964844 18.34375 17.957031 18.382812 17.957031 18.421875 C 17.953125 18.472656 17.96875 18.59375 17.90625 18.621094 C 17.875 18.632812 17.863281 18.609375 17.84375 18.589844 C 17.816406 18.566406 17.785156 18.554688 17.753906 18.539062 " fill-opacity="1" fill-rule="nonzero"/><path fill="#014d4e" d="M 18.125 18.433594 C 18.128906 18.425781 18.128906 18.417969 18.132812 18.414062 C 18.140625 18.402344 18.152344 18.402344 18.164062 18.402344 C 18.203125 18.40625 18.242188 18.40625 18.28125 18.40625 C 18.292969 18.40625 18.308594 18.40625 18.320312 18.402344 C 18.34375 18.394531 18.363281 18.375 18.386719 18.371094 C 18.417969 18.363281 18.453125 18.386719 18.472656 18.414062 C 18.492188 18.441406 18.503906 18.476562 18.527344 18.5 C 18.554688 18.523438 18.589844 18.535156 18.625 18.539062 C 18.660156 18.542969 18.703125 18.539062 18.722656 18.570312 C 18.730469 18.578125 18.730469 18.589844 18.734375 18.601562 C 18.753906 18.644531 18.792969 18.675781 18.820312 18.714844 C 18.847656 18.753906 18.859375 18.8125 18.824219 18.847656 C 18.796875 18.871094 18.75 18.863281 18.714844 18.84375 C 18.6875 18.824219 18.664062 18.785156 18.6875 18.757812 C 18.644531 18.765625 18.605469 18.785156 18.574219 18.816406 C 18.566406 18.824219 18.558594 18.832031 18.550781 18.835938 C 18.535156 18.839844 18.519531 18.832031 18.503906 18.832031 C 18.460938 18.832031 18.421875 18.867188 18.382812 18.847656 C 18.363281 18.839844 18.351562 18.808594 18.332031 18.796875 C 18.316406 18.789062 18.300781 18.792969 18.285156 18.792969 C 18.246094 18.792969 18.203125 18.792969 18.160156 18.796875 C 18.152344 18.796875 18.148438 18.796875 18.144531 18.792969 C 18.140625 18.789062 18.136719 18.785156 18.136719 18.78125 C 18.121094 18.734375 18.160156 18.722656 18.1875 18.703125 C 18.207031 18.6875 18.210938 18.636719 18.207031 18.609375 C 18.203125 18.570312 18.167969 18.570312 18.144531 18.542969 C 18.121094 18.515625 18.125 18.46875 18.125 18.433594 " fill-opacity="1" fill-rule="nonzero"/><path fill="#014d4e" d="M 18.863281 19.480469 C 18.867188 19.46875 18.878906 19.457031 18.890625 19.449219 C 18.925781 19.410156 18.910156 19.335938 18.859375 19.316406 C 18.84375 19.3125 18.824219 19.3125 18.8125 19.324219 C 18.808594 19.332031 18.808594 19.339844 18.800781 19.34375 C 18.789062 19.347656 18.777344 19.339844 18.769531 19.328125 C 18.761719 19.308594 18.773438 19.285156 18.773438 19.261719 C 18.769531 19.207031 18.71875 19.175781 18.675781 19.144531 C 18.644531 19.125 18.617188 19.105469 18.59375 19.082031 C 18.566406 19.058594 18.542969 19.03125 18.542969 19 C 18.546875 18.96875 18.574219 18.941406 18.605469 18.933594 C 18.636719 18.929688 18.671875 18.941406 18.695312 18.960938 C 18.722656 18.980469 18.738281 19.007812 18.757812 19.035156 C 18.789062 19.089844 18.816406 19.144531 18.859375 19.191406 C 18.898438 19.230469 18.949219 19.253906 19.003906 19.265625 C 19.007812 19.265625 19.015625 19.265625 19.019531 19.269531 C 19.023438 19.273438 19.023438 19.28125 19.027344 19.285156 C 19.03125 19.332031 19.011719 19.4375 19.089844 19.429688 C 19.167969 19.425781 19.183594 19.332031 19.203125 19.273438 C 19.214844 19.234375 19.230469 19.195312 19.265625 19.171875 C 19.296875 19.148438 19.347656 19.144531 19.371094 19.175781 C 19.386719 19.195312 19.390625 19.222656 19.390625 19.246094 C 19.390625 19.296875 19.382812 19.34375 19.363281 19.390625 C 19.351562 19.417969 19.339844 19.445312 19.328125 19.472656 C 19.3125 19.511719 19.308594 19.554688 19.300781 19.597656 C 19.296875 19.609375 19.296875 19.617188 19.289062 19.625 C 19.28125 19.632812 19.265625 19.636719 19.253906 19.636719 C 19.230469 19.636719 19.203125 19.636719 19.183594 19.621094 C 19.175781 19.617188 19.167969 19.605469 19.15625 19.597656 C 19.105469 19.554688 19.042969 19.570312 18.980469 19.574219 C 18.945312 19.574219 18.851562 19.53125 18.863281 19.480469 " fill-opacity="1" fill-rule="nonzero"/><g clip-path="url(#617ab7efc0)"><path fill="#014d4e" d="M 22.824219 21.820312 C 22.816406 21.820312 22.804688 21.820312 22.796875 21.816406 C 22.765625 21.8125 22.746094 21.789062 22.722656 21.769531 C 22.699219 21.75 22.664062 21.734375 22.640625 21.753906 C 22.632812 21.757812 22.628906 21.765625 22.625 21.769531 C 22.609375 21.777344 22.589844 21.765625 22.578125 21.753906 C 22.535156 21.714844 22.488281 21.679688 22.445312 21.640625 C 22.394531 21.601562 22.34375 21.550781 22.355469 21.492188 C 22.394531 21.46875 22.441406 21.480469 22.480469 21.5 C 22.519531 21.519531 22.550781 21.550781 22.589844 21.570312 C 22.652344 21.597656 22.722656 21.601562 22.789062 21.601562 C 22.863281 21.597656 22.9375 21.589844 23.007812 21.613281 C 23.035156 21.625 23.058594 21.636719 23.085938 21.644531 C 23.132812 21.660156 23.1875 21.65625 23.234375 21.652344 C 23.285156 21.648438 23.339844 21.644531 23.390625 21.640625 C 23.417969 21.636719 23.445312 21.632812 23.472656 21.621094 C 23.496094 21.609375 23.519531 21.589844 23.523438 21.5625 C 23.527344 21.542969 23.519531 21.523438 23.53125 21.507812 C 23.554688 21.464844 23.625 21.507812 23.660156 21.476562 C 23.667969 21.46875 23.675781 21.460938 23.683594 21.453125 C 23.71875 21.414062 23.785156 21.4375 23.835938 21.425781 C 23.851562 21.421875 23.871094 21.410156 23.890625 21.414062 C 23.910156 21.417969 23.925781 21.433594 23.933594 21.449219 C 23.9375 21.46875 23.941406 21.488281 23.941406 21.507812 C 23.941406 21.53125 23.941406 21.550781 23.941406 21.574219 C 23.945312 21.59375 23.945312 21.617188 23.933594 21.636719 C 23.921875 21.660156 23.894531 21.675781 23.871094 21.683594 C 23.742188 21.71875 23.597656 21.636719 23.480469 21.695312 C 23.457031 21.707031 23.4375 21.722656 23.417969 21.730469 C 23.394531 21.742188 23.367188 21.75 23.34375 21.757812 C 23.289062 21.769531 23.234375 21.785156 23.183594 21.796875 C 23.175781 21.800781 23.171875 21.800781 23.164062 21.804688 C 23.152344 21.816406 23.164062 21.835938 23.160156 21.851562 C 23.15625 21.867188 23.136719 21.875 23.121094 21.875 C 23.105469 21.878906 23.089844 21.875 23.074219 21.878906 C 23.054688 21.886719 23.035156 21.902344 23.019531 21.894531 C 23.007812 21.886719 23.007812 21.871094 22.996094 21.863281 C 22.960938 21.835938 22.933594 21.921875 22.894531 21.910156 C 22.855469 21.898438 22.863281 21.835938 22.824219 21.820312 " fill-opacity="1" fill-rule="nonzero"/></g><path fill="#014d4e" d="M 21.519531 18.0625 C 21.519531 18.027344 21.550781 17.980469 21.523438 17.953125 C 21.519531 17.945312 21.507812 17.941406 21.5 17.941406 C 21.410156 17.902344 21.320312 17.871094 21.226562 17.84375 C 21.21875 17.847656 21.226562 17.863281 21.238281 17.859375 C 21.246094 17.859375 21.253906 17.851562 21.257812 17.847656 C 21.304688 17.800781 21.378906 17.808594 21.441406 17.816406 C 21.46875 17.824219 21.496094 17.828125 21.519531 17.835938 C 21.609375 17.867188 21.675781 17.957031 21.769531 17.953125 C 21.800781 17.953125 21.832031 17.941406 21.863281 17.941406 C 21.917969 17.933594 21.976562 17.957031 22.015625 17.996094 C 22.027344 18.007812 22.039062 18.023438 22.035156 18.042969 C 22.035156 18.070312 22.003906 18.085938 21.976562 18.085938 C 21.949219 18.082031 21.925781 18.066406 21.902344 18.050781 C 21.890625 18.082031 21.894531 18.117188 21.910156 18.144531 C 21.917969 18.15625 21.921875 18.164062 21.925781 18.171875 C 21.925781 18.191406 21.910156 18.207031 21.890625 18.207031 C 21.875 18.207031 21.855469 18.199219 21.84375 18.191406 C 21.820312 18.179688 21.789062 18.164062 21.769531 18.183594 C 21.765625 18.1875 21.761719 18.195312 21.757812 18.199219 C 21.742188 18.214844 21.71875 18.207031 21.703125 18.195312 C 21.660156 18.167969 21.640625 18.125 21.625 18.078125 C 21.570312 18.078125 21.589844 18.144531 21.582031 18.175781 C 21.546875 18.15625 21.515625 18.105469 21.519531 18.0625 " fill-opacity="1" fill-rule="nonzero"/><g clip-path="url(#2130388fb3)"><path fill="#014d4e" d="M 12.554688 7.417969 C 12.535156 7.417969 12.515625 7.417969 12.496094 7.410156 C 12.480469 7.402344 12.46875 7.390625 12.457031 7.378906 C 12.417969 7.351562 12.371094 7.339844 12.320312 7.328125 C 12.300781 7.359375 12.324219 7.40625 12.359375 7.410156 C 12.367188 7.421875 12.355469 7.441406 12.339844 7.449219 C 12.328125 7.457031 12.308594 7.457031 12.292969 7.453125 C 12.257812 7.453125 12.21875 7.449219 12.183594 7.445312 C 12.179688 7.457031 12.175781 7.46875 12.179688 7.476562 C 12.144531 7.488281 12.109375 7.472656 12.089844 7.445312 C 12.066406 7.417969 12.0625 7.378906 12.058594 7.347656 C 12.082031 7.332031 12.117188 7.34375 12.140625 7.328125 C 12.164062 7.316406 12.167969 7.285156 12.160156 7.257812 C 12.15625 7.234375 12.144531 7.207031 12.144531 7.179688 C 12.144531 7.15625 12.167969 7.125 12.195312 7.132812 C 12.199219 7.148438 12.199219 7.164062 12.203125 7.179688 C 12.226562 7.183594 12.25 7.1875 12.265625 7.171875 C 12.273438 7.164062 12.277344 7.152344 12.289062 7.144531 C 12.296875 7.136719 12.308594 7.136719 12.320312 7.136719 C 12.484375 7.128906 12.648438 7.121094 12.808594 7.113281 C 12.839844 7.113281 12.871094 7.113281 12.898438 7.121094 C 12.941406 7.136719 12.972656 7.179688 13.007812 7.214844 C 13.03125 7.238281 13.066406 7.261719 13.101562 7.25 C 13.113281 7.242188 13.125 7.230469 13.136719 7.222656 C 13.175781 7.199219 13.230469 7.242188 13.21875 7.285156 C 13.210938 7.316406 13.179688 7.335938 13.167969 7.367188 C 13.164062 7.382812 13.167969 7.402344 13.164062 7.421875 C 13.160156 7.441406 13.144531 7.460938 13.128906 7.460938 C 13.109375 7.457031 13.097656 7.441406 13.082031 7.425781 C 13.011719 7.363281 12.890625 7.464844 12.816406 7.480469 C 12.722656 7.5 12.644531 7.429688 12.554688 7.417969 " fill-opacity="1" fill-rule="nonzero"/></g></svg>