<svg xmlns="http://www.w3.org/2000/svg" xmlns:xlink="http://www.w3.org/1999/xlink" width="40" zoomAndPan="magnify" viewBox="0 0 30 30.000001" height="40" preserveAspectRatio="xMidYMid meet" version="1.0"><defs><clipPath id="93ce4612b6"><path d="M 7.304688 2.902344 L 22.546875 2.902344 L 22.546875 26.128906 L 7.304688 26.128906 Z M 7.304688 2.902344 " clip-rule="nonzero"/></clipPath></defs><g clip-path="url(#93ce4612b6)"><path fill="#014d4e" d="M 12.804688 4.007812 L 13.191406 4.007812 L 12.949219 4.140625 Z M 12.601562 3.339844 L 12.816406 3.542969 L 12.523438 3.597656 Z M 13.257812 2.917969 L 13.027344 3.082031 L 13.214844 3.25 Z M 13.925781 3.6875 L 13.738281 3.921875 L 13.917969 4.0625 L 14.039062 3.84375 C 14.039062 3.84375 13.917969 3.6875 13.925781 3.6875 Z M 14.058594 11.542969 L 14.296875 11.730469 L 14.445312 12.03125 L 14.796875 12.152344 L 15.042969 12.070312 L 15.109375 11.824219 L 15.523438 11.5 L 15.824219 11.492188 L 16.28125 11.78125 L 16.464844 12.144531 L 16.425781 12.464844 L 16.574219 12.621094 L 16.777344 12.488281 L 16.753906 12.1875 L 16.890625 12.074219 L 17.0625 12.375 L 17.429688 12.386719 L 17.730469 12.589844 L 17.800781 12.695312 L 17.574219 12.730469 L 17.421875 12.640625 L 17.269531 12.742188 L 17.332031 13.007812 L 17.542969 13.542969 L 17.53125 13.753906 L 17.84375 13.753906 L 18.066406 13.867188 L 18.320312 13.855469 L 18.445312 14.023438 L 18.308594 14.15625 L 18.34375 14.347656 L 18.234375 14.789062 L 17.964844 14.703125 L 17.710938 14.390625 L 17.957031 14.246094 L 17.976562 14.089844 L 17.722656 14.035156 L 17.730469 14.148438 L 17.464844 14.226562 L 17.121094 13.820312 L 16.886719 13.742188 L 16.886719 13.410156 L 16.765625 13.121094 L 16.316406 12.957031 L 16.117188 12.597656 L 15.917969 12.496094 L 15.738281 12.320312 L 15.574219 12.285156 L 15.527344 12.441406 L 15.851562 13.011719 L 15.949219 13.519531 L 15.828125 13.542969 L 15.527344 13.035156 L 15.183594 12.789062 L 15.0625 12.554688 L 14.425781 12.296875 L 14.070312 12.332031 L 13.9375 12.53125 L 14.007812 12.746094 L 13.714844 12.921875 L 13.359375 12.566406 L 13.148438 12.753906 L 12.902344 12.8125 L 13.046875 12.554688 L 12.925781 12.285156 L 12.746094 12.351562 L 12.660156 12.664062 L 12.457031 12.320312 L 12.492188 11.953125 L 12.457031 11.777344 L 12.625 11.578125 L 12.957031 11.140625 L 12.691406 10.941406 L 12.355469 10.90625 L 12.34375 11.097656 L 12.511719 11.273438 L 12.332031 11.507812 L 12.132812 11.5 L 11.835938 11.105469 L 11.824219 10.796875 L 11.699219 10.75 L 11.589844 10.839844 L 11.457031 10.742188 L 11.445312 10.183594 L 11.210938 9.761719 L 11.097656 9.316406 L 11.210938 9.105469 L 11.15625 8.996094 L 10.976562 8.984375 L 10.898438 8.648438 L 10.941406 8.269531 L 11.15625 8.523438 L 11.425781 8.570312 L 11.644531 8.445312 L 11.644531 8.246094 L 11.402344 7.738281 L 11.546875 7.367188 L 11.722656 6.601562 L 11.710938 5.964844 L 11.625 5.589844 L 11.933594 4.964844 L 11.988281 4.617188 L 12.433594 4.464844 L 13.027344 4.574219 L 13.28125 4.867188 L 13.5 5.011719 L 13.578125 4.855469 L 14.015625 4.855469 L 14.226562 4.675781 L 14.25 4.53125 L 14.394531 4.476562 L 14.59375 4.742188 L 14.570312 4.964844 L 14.394531 5.175781 L 14.328125 5.777344 L 14.605469 6.257812 L 14.78125 6.324219 L 14.882812 6.714844 L 15.039062 6.902344 L 14.894531 7.625 L 14.703125 8.070312 L 14.792969 8.4375 L 14.539062 8.851562 L 14.515625 8.691406 L 14.617188 8.46875 L 14.425781 8.582031 L 13.949219 9.039062 L 13.835938 9.316406 L 13.871094 9.660156 L 13.714844 9.894531 L 13.660156 10.273438 L 13.828125 10.40625 L 13.984375 10.808594 L 14.183594 11.027344 L 14.0625 11.207031 Z M 14.628906 11.652344 L 14.679688 11.910156 L 14.902344 12.039062 L 14.847656 11.796875 Z M 14.359375 10.484375 L 14.515625 10.894531 L 14.472656 11.027344 L 14.527344 11.242188 L 14.738281 11.039062 L 14.773438 10.574219 L 14.925781 10.417969 L 14.726562 10.273438 Z M 11.625 12.4375 L 11.660156 12.65625 L 12.039062 12.816406 L 12.117188 12.742188 L 11.832031 12.4375 Z M 12.15625 13.113281 L 12.222656 13.257812 L 12.433594 13.246094 L 12.511719 13.609375 L 12.726562 13.6875 L 12.925781 13.957031 L 12.925781 14.4375 L 13.167969 14.578125 L 13.179688 14.855469 L 13.480469 15.226562 L 13.738281 15.269531 L 14.015625 15.035156 L 14.015625 14.789062 L 14.160156 14.691406 L 14.160156 14.425781 L 14.007812 14.191406 L 14.117188 13.980469 L 14.117188 13.699219 L 13.804688 13.578125 L 13.15625 13.011719 L 12.792969 13.101562 L 12.433594 12.964844 Z M 18.285156 12.03125 L 18.136719 12.148438 L 18.191406 12.496094 L 18.101562 12.734375 L 17.996094 12.816406 L 18.136719 12.984375 L 18.542969 12.902344 L 18.652344 12.578125 L 18.507812 12.265625 Z M 14.539062 13.296875 L 14.902344 13.542969 L 14.972656 13.371094 L 15.097656 13.214844 L 14.941406 12.953125 L 14.65625 12.84375 L 14.496094 13.070312 Z M 15.148438 14.460938 L 15.019531 14.765625 L 14.828125 15.023438 L 14.992188 15.425781 L 15.183594 15.363281 L 15.296875 14.980469 L 15.195312 14.707031 L 15.265625 14.355469 Z M 15.867188 14.71875 L 15.730469 14.820312 L 15.769531 15 L 16.058594 14.976562 L 16.082031 14.824219 Z M 16.828125 13.949219 L 16.515625 13.632812 L 16.398438 13.660156 L 16.394531 13.839844 L 16.796875 14.269531 L 16.867188 14.125 Z M 17.410156 14.535156 L 17.5 14.691406 L 17.742188 14.933594 L 17.878906 14.933594 L 17.621094 14.605469 Z M 16.902344 15.652344 L 17.152344 15.242188 L 17.382812 15.21875 L 17.710938 15.644531 L 18.089844 15.800781 L 18.339844 15.773438 L 18.339844 15.582031 L 18.152344 15.34375 L 17.675781 15.035156 L 17.472656 15 L 17.203125 14.746094 L 17.09375 14.757812 L 17.121094 14.65625 L 16.902344 14.589844 L 16.914062 14.925781 L 16.972656 15.175781 L 16.839844 15.292969 L 16.835938 15.472656 Z M 15.394531 17.894531 L 15.292969 18.023438 L 15.152344 18.082031 L 15.03125 17.558594 L 15.144531 17.191406 L 15.128906 16.664062 L 15.199219 16.375 L 15.207031 16.078125 L 15.050781 16.039062 L 14.734375 15.921875 L 14.796875 15.730469 L 15.117188 15.652344 L 15.410156 15.945312 L 15.632812 16.039062 L 15.578125 16.164062 L 15.746094 16.179688 L 16.070312 16.15625 L 16.285156 16.21875 L 16.472656 16.503906 L 16.671875 16.253906 L 16.855469 16.132812 L 16.996094 16.359375 L 16.945312 16.617188 L 16.777344 16.75 L 16.628906 17.078125 L 16.261719 17.382812 L 16.136719 17.589844 L 15.972656 17.589844 L 15.9375 17.691406 L 15.734375 17.679688 Z M 16.164062 17.691406 L 15.90625 17.773438 L 15.8125 18.082031 L 15.992188 18.234375 L 16.261719 17.957031 L 16.273438 17.761719 Z M 18.777344 17.617188 L 18.765625 17.917969 L 18.660156 17.761719 Z M 17.417969 19.675781 L 17.652344 19.410156 L 17.765625 18.75 L 18.1875 18.277344 L 18.265625 17.972656 L 18.222656 17.695312 L 18.332031 17.507812 L 18.320312 16.917969 L 18.15625 16.984375 L 18.054688 17.539062 L 17.765625 18.007812 L 17.730469 18.363281 L 17.597656 18.808594 L 17.363281 19.097656 L 17.351562 19.421875 Z M 17.097656 19.53125 L 17.054688 18.929688 L 17.242188 18.054688 L 17.519531 17.761719 L 17.53125 17.507812 L 17.296875 17.328125 L 17.152344 17.417969 L 16.953125 17.316406 L 16.710938 17.484375 L 16.710938 17.773438 L 16.53125 18.054688 L 16.585938 18.464844 L 16.417969 18.820312 L 15.929688 18.941406 L 15.796875 19.128906 L 15.886719 19.609375 L 16.09375 19.644531 L 16.453125 19.867188 L 16.765625 19.886719 L 16.777344 20.242188 L 17.007812 20.363281 L 17.285156 20.199219 L 17.296875 19.921875 Z M 17.875 20.03125 L 17.96875 20.109375 L 17.941406 20.285156 L 17.695312 20.386719 L 17.5 20.242188 L 17.585938 20.0625 Z M 18.820312 18.601562 L 19 18.597656 L 19.167969 18.753906 L 19.195312 19.085938 L 19.078125 19.289062 L 18.617188 19.5 L 18.230469 19.523438 L 18.257812 19.378906 L 18.109375 19.175781 L 18.292969 18.921875 Z M 20.234375 18.648438 L 20.386719 18.929688 L 20.390625 19.164062 L 20.179688 18.917969 Z M 19.363281 19.882812 L 19.640625 20.105469 L 19.59375 20.371094 L 19.371094 20.226562 L 19.308594 20.039062 Z M 19.152344 16.183594 L 19.089844 16.480469 L 18.851562 16.507812 L 18.628906 16.359375 L 18.789062 16.234375 Z M 19.796875 16.617188 L 20.050781 16.773438 L 20.140625 16.988281 L 20.597656 17.015625 L 20.6875 17.058594 L 20.761719 16.984375 L 20.921875 17.054688 L 20.777344 16.863281 L 20.683594 16.585938 L 20.515625 16.4375 L 20.539062 15.996094 L 20.480469 15.445312 L 20.515625 15.277344 L 20.386719 15.179688 L 20.128906 14.832031 L 19.964844 14.546875 L 19.785156 14.527344 L 19.683594 14.578125 L 19.539062 14.507812 L 19.375 14.539062 L 19.269531 14.652344 L 18.964844 14.640625 L 18.71875 14.648438 L 18.585938 14.585938 L 18.582031 14.792969 L 18.820312 15.28125 L 19.214844 15.59375 L 19.5625 16.007812 L 19.71875 16.105469 L 19.675781 16.246094 L 19.53125 16.4375 L 19.488281 16.507812 L 19.632812 16.453125 L 19.6875 16.539062 Z M 19.539062 16.664062 L 19.226562 16.769531 L 18.945312 16.648438 L 18.738281 16.652344 L 18.855469 16.949219 L 18.863281 17.261719 L 19.050781 17.449219 L 19.203125 17.292969 L 19.382812 17.460938 L 19.359375 17.863281 L 19.503906 18.144531 L 19.550781 18.59375 L 19.804688 18.765625 L 19.832031 18.335938 L 20 18.566406 L 20.269531 18.492188 L 20.296875 18.253906 L 20.023438 17.789062 L 19.816406 17.644531 L 19.765625 17.175781 L 19.59375 16.792969 Z M 21.054688 17.425781 L 21.195312 17.390625 L 21.105469 17.289062 L 20.988281 17.304688 Z M 21.097656 17.714844 L 20.910156 17.601562 L 20.921875 17.773438 L 21.027344 17.847656 Z M 21.042969 19.21875 L 21.117188 18.867188 L 20.910156 18.609375 L 20.90625 18.320312 L 21.019531 18.246094 L 20.941406 18.074219 L 20.785156 18.144531 L 20.730469 18.480469 L 20.90625 18.859375 L 20.859375 19.050781 L 20.929688 19.195312 Z M 21.386719 19.320312 L 21.347656 19.488281 L 21.480469 19.636719 L 21.535156 19.445312 Z M 21.605469 18.632812 L 21.542969 18.964844 L 21.492188 19.089844 L 21.640625 19.289062 L 21.859375 19.210938 L 21.75 18.917969 Z M 15.585938 24.039062 L 15.261719 23.695312 L 15.472656 23.261719 L 15.5625 22.8125 L 15.464844 22.589844 L 15.738281 22.257812 L 16.039062 22.179688 L 16.261719 21.957031 L 16.554688 22.046875 L 16.988281 21.957031 L 16.855469 21.699219 L 16.996094 21.421875 L 17.351562 21.265625 L 17.53125 21 L 17.777344 20.976562 L 18.1875 21.324219 L 18.210938 21.835938 L 17.890625 22.320312 L 18.164062 22.046875 L 18.460938 21.976562 L 18.808594 21.792969 L 18.976562 21.265625 L 19.300781 21.132812 L 19.457031 21.476562 L 19.644531 21.390625 L 19.679688 21.144531 L 19.558594 21.058594 L 19.714844 20.453125 L 20.046875 20.589844 L 20.234375 20.734375 L 20.3125 20.589844 L 20.3125 20.1875 L 20.425781 20.164062 L 20.660156 20.421875 L 20.671875 20.1875 L 20.539062 19.585938 L 20.546875 19.242188 L 20.792969 19.296875 L 20.894531 19.277344 L 20.957031 19.53125 L 21.378906 19.875 L 21.683594 20.175781 L 21.882812 20 L 21.875 20.230469 L 22.09375 20.566406 L 22.09375 20.957031 L 21.882812 20.921875 L 21.839844 21.089844 L 22.015625 21.3125 L 22.136719 21.324219 L 22.117188 21.511719 L 22.128906 21.878906 L 22.238281 21.699219 L 22.28125 22.058594 L 22.28125 22.402344 L 22.449219 22.65625 L 22.628906 22.945312 L 22.683594 23.449219 L 22.527344 23.859375 L 22.402344 23.851562 L 22.40625 24.039062 L 22.300781 23.839844 L 22.128906 23.867188 L 22.074219 24.050781 L 22.183594 24.503906 L 22.152344 24.84375 L 22.140625 25.058594 L 22.03125 24.847656 L 21.894531 24.378906 L 21.90625 24.101562 L 21.761719 23.867188 L 21.6875 23.5625 L 21.46875 23.253906 L 21.261719 23.375 L 20.882812 24.035156 L 20.820312 24.285156 L 21.085938 24.484375 L 21.257812 24.890625 L 21.394531 25.089844 L 21.378906 25.402344 L 20.953125 25.953125 L 20.738281 26.113281 L 20.640625 25.988281 L 20.542969 25.699219 L 20.652344 25.523438 L 20.554688 25.394531 L 20.398438 25.511719 L 20.359375 25.679688 L 20.105469 25.824219 L 19.785156 25.691406 L 19.519531 25.445312 L 19.171875 25.445312 L 18.882812 25.109375 L 18.832031 24.855469 L 18.617188 24.5625 L 18.683594 24.371094 L 18.648438 24.128906 L 18.503906 23.957031 L 18.640625 23.777344 L 18.628906 23.617188 L 18.75 23.554688 L 19.019531 23.652344 L 18.773438 23.414062 L 18.710938 23.152344 L 18.421875 22.914062 L 18.160156 22.855469 L 17.867188 22.601562 L 17.722656 22.597656 L 17.597656 22.730469 L 17.664062 22.867188 L 17.566406 23.003906 L 17.726562 23.242188 L 17.605469 23.226562 L 17.359375 23.042969 L 17.195312 23.066406 L 17.277344 22.875 L 17.121094 22.820312 L 17.003906 22.914062 L 16.980469 23.191406 L 16.828125 23.097656 L 16.6875 23.175781 L 16.59375 23.085938 L 16.660156 22.765625 L 16.453125 22.574219 L 16.285156 22.652344 L 16.121094 23.03125 L 15.941406 23.1875 L 15.710938 23.832031 Z M 15.105469 24.425781 L 15.117188 24.574219 L 15.296875 24.855469 L 15.476562 24.910156 L 15.867188 24.558594 L 15.894531 24.445312 L 15.722656 24.382812 L 15.53125 24.261719 L 15.375 24.402344 Z M 11.582031 15.523438 L 11.441406 15.359375 L 11.335938 15.132812 L 11.4375 15.003906 L 11.683594 15.042969 L 11.863281 15.246094 L 12.175781 15.3125 L 12.242188 15.476562 L 12.109375 15.632812 L 11.910156 15.542969 Z M 11.390625 15.664062 L 11.703125 15.75 L 11.804688 15.976562 L 11.6875 16.054688 L 11.585938 16.195312 L 11.445312 16.195312 L 11.355469 15.84375 Z M 11.585938 17.992188 L 11.699219 17.90625 L 11.75 17.777344 L 11.839844 17.917969 L 11.964844 18.019531 L 11.957031 18.191406 L 11.726562 18.203125 L 11.507812 18.1875 Z M 7.816406 21.429688 L 8.117188 21.195312 L 8.320312 21.160156 L 8.519531 20.949219 L 8.855469 20.820312 L 9.199219 20.296875 L 9.550781 20.175781 L 9.796875 19.964844 L 9.820312 19.808594 L 10.03125 19.554688 L 10.03125 19.085938 L 10.210938 18.875 L 10.675781 18.839844 L 10.789062 18.53125 L 11.007812 18.308594 L 11.257812 18.265625 L 11.390625 18.007812 L 11.222656 17.628906 L 11 17.347656 L 11.019531 17.0625 L 10.988281 16.617188 L 10.855469 16.671875 L 10.789062 17.152344 L 10.832031 17.59375 L 10.597656 17.449219 L 10.789062 17.75 L 10.777344 17.972656 L 10.523438 18.277344 L 10.320312 18.253906 L 10.042969 18.574219 L 10.023438 18.808594 L 9.707031 18.984375 L 9.398438 19.644531 L 8.953125 20.078125 L 8.707031 20.109375 L 8.484375 20.53125 L 8.304688 20.589844 L 7.863281 21.167969 L 7.785156 21.324219 Z M 7.871094 21.597656 L 7.714844 21.746094 L 7.851562 21.722656 Z M 8.023438 21.644531 L 7.925781 21.75 L 8.089844 21.839844 Z M 7.585938 22.003906 L 7.316406 22.105469 L 7.304688 22.316406 L 7.484375 22.601562 L 7.632812 22.601562 L 7.644531 22.214844 L 7.691406 22.082031 Z M 7.585938 22.003906 " fill-opacity="1" fill-rule="evenodd"/></g></svg>