<svg xmlns="http://www.w3.org/2000/svg" xmlns:xlink="http://www.w3.org/1999/xlink" width="40" zoomAndPan="magnify" viewBox="0 0 30 30.000001" height="40" preserveAspectRatio="xMidYMid meet" version="1.0"><defs><clipPath id="cc25f07a32"><path d="M 3.386719 3.367188 L 26.613281 3.367188 L 26.613281 25.867188 L 3.386719 25.867188 Z M 3.386719 3.367188 " clip-rule="nonzero"/></clipPath></defs><g clip-path="url(#cc25f07a32)"><path fill="#014d4e" d="M 26.519531 5.777344 C 26.453125 5.773438 26.414062 5.78125 26.351562 5.761719 C 26.292969 5.746094 26.246094 5.707031 26.179688 5.691406 C 26.125 5.683594 26.046875 5.699219 25.988281 5.683594 C 25.859375 5.652344 25.785156 5.558594 25.65625 5.53125 C 25.5625 5.507812 25.40625 5.519531 25.320312 5.484375 C 25.203125 5.433594 25.171875 5.28125 25.054688 5.230469 C 24.945312 5.183594 24.894531 5.230469 24.78125 5.265625 C 24.621094 5.320312 24.582031 5.292969 24.523438 5.136719 C 24.503906 5.085938 24.492188 5.035156 24.457031 5.003906 C 24.425781 4.980469 24.367188 5.015625 24.335938 4.988281 C 24.242188 4.917969 24.351562 4.820312 24.371094 4.753906 C 24.410156 4.648438 24.339844 4.609375 24.296875 4.527344 C 24.390625 4.40625 24.3125 4.363281 24.261719 4.257812 C 24.238281 4.210938 24.246094 4.15625 24.230469 4.113281 C 24.199219 4.054688 24.171875 4.054688 24.117188 4.015625 C 23.992188 3.925781 23.738281 3.6875 23.59375 3.828125 C 23.574219 3.84375 23.550781 3.863281 23.527344 3.882812 C 23.484375 3.738281 23.46875 3.570312 23.339844 3.527344 C 23.160156 3.46875 22.894531 3.402344 22.808594 3.605469 C 22.710938 3.570312 22.695312 3.460938 22.589844 3.421875 C 22.46875 3.375 22.445312 3.398438 22.355469 3.46875 C 22.257812 3.542969 22.15625 3.546875 22.042969 3.578125 C 21.914062 3.613281 21.941406 3.703125 21.832031 3.730469 C 21.757812 3.75 21.636719 3.773438 21.574219 3.742188 C 21.503906 3.710938 21.488281 3.652344 21.414062 3.640625 C 21.304688 3.617188 21.160156 3.65625 21.050781 3.671875 C 20.898438 3.6875 20.742188 3.726562 20.589844 3.742188 C 20.308594 3.769531 20.0625 3.84375 19.785156 3.914062 C 19.597656 3.960938 19.386719 3.925781 19.238281 4.070312 C 19.121094 4.179688 19.050781 4.382812 18.898438 4.414062 C 18.8125 4.433594 18.753906 4.402344 18.714844 4.496094 C 18.675781 4.574219 18.742188 4.601562 18.632812 4.59375 C 18.554688 4.582031 18.554688 4.523438 18.472656 4.582031 C 18.425781 4.613281 18.390625 4.671875 18.355469 4.707031 C 18.191406 4.863281 18.007812 5.023438 17.890625 5.210938 C 17.957031 5.269531 18.046875 5.328125 18.097656 5.390625 C 18.164062 5.46875 18.230469 5.585938 18.289062 5.675781 C 18.367188 5.789062 18.3125 5.800781 18.3125 5.921875 C 18.3125 6.007812 18.378906 6.066406 18.421875 6.140625 C 18.460938 6.214844 18.453125 6.25 18.433594 6.328125 C 18.421875 6.375 18.375 6.445312 18.402344 6.488281 C 18.449219 6.554688 18.546875 6.484375 18.519531 6.589844 C 18.511719 6.613281 18.464844 6.636719 18.453125 6.664062 C 18.445312 6.6875 18.453125 6.710938 18.445312 6.738281 C 18.40625 6.914062 18.292969 6.890625 18.1875 7.011719 C 18.09375 7.121094 18.046875 7.246094 17.925781 7.332031 C 17.875 7.371094 17.820312 7.390625 17.816406 7.453125 C 17.808594 7.539062 17.886719 7.539062 17.800781 7.621094 C 17.695312 7.722656 17.578125 7.742188 17.703125 7.886719 C 17.777344 7.976562 17.847656 8.058594 17.84375 8.179688 C 17.839844 8.285156 17.777344 8.367188 17.753906 8.457031 C 17.628906 8.476562 17.492188 8.550781 17.375 8.578125 C 17.210938 8.621094 17.054688 8.671875 16.886719 8.695312 C 16.734375 8.71875 16.617188 8.664062 16.464844 8.644531 C 16.375 8.636719 16.199219 8.578125 16.152344 8.65625 C 16.105469 8.738281 16.199219 8.925781 16.246094 8.996094 C 16.320312 9.105469 16.402344 9.078125 16.480469 9.15625 C 16.5625 9.230469 16.5 9.3125 16.535156 9.40625 C 16.558594 9.472656 16.722656 9.59375 16.710938 9.648438 C 16.707031 9.679688 16.65625 9.671875 16.636719 9.691406 C 16.597656 9.730469 16.578125 9.789062 16.546875 9.832031 C 16.476562 9.925781 16.386719 9.953125 16.28125 9.996094 C 16.179688 10.035156 16.085938 10.109375 15.980469 10.117188 C 15.855469 10.125 15.835938 10.070312 15.757812 10.15625 C 15.6875 10.234375 15.644531 10.359375 15.597656 10.453125 C 15.539062 10.5625 15.5 10.613281 15.515625 10.738281 C 15.523438 10.820312 15.53125 10.894531 15.484375 10.957031 C 15.445312 11.015625 15.375 11.042969 15.339844 11.097656 C 15.1875 11.332031 15.328125 11.738281 15.3125 12.007812 C 15.296875 12.230469 15.152344 12.292969 15.015625 12.445312 C 14.894531 12.570312 14.820312 12.597656 14.691406 12.464844 C 14.617188 12.386719 14.492188 12.214844 14.363281 12.234375 C 14.316406 12.246094 14.316406 12.289062 14.285156 12.304688 C 14.238281 12.324219 14.1875 12.320312 14.136719 12.320312 C 14.019531 12.320312 13.917969 12.269531 13.800781 12.28125 C 13.679688 12.296875 13.609375 12.332031 13.523438 12.410156 C 13.441406 12.472656 13.339844 12.5625 13.242188 12.609375 C 13.171875 12.640625 13.023438 12.609375 12.984375 12.640625 C 12.902344 12.707031 12.996094 12.8125 13.042969 12.84375 C 13.117188 12.886719 13.167969 12.855469 13.183594 12.976562 C 13.058594 13.007812 12.933594 13.074219 12.796875 13.109375 C 12.652344 13.148438 12.5 13.160156 12.351562 13.183594 C 12.238281 13.203125 12.308594 13.203125 12.226562 13.148438 C 12.191406 13.125 12.136719 13.085938 12.101562 13.082031 C 12.039062 13.074219 11.980469 13.121094 11.933594 13.148438 C 11.90625 13.164062 11.902344 13.199219 11.867188 13.203125 C 11.84375 13.207031 11.816406 13.171875 11.796875 13.171875 C 11.695312 13.175781 11.683594 13.269531 11.636719 13.359375 C 11.617188 13.402344 11.570312 13.519531 11.542969 13.582031 C 11.414062 13.597656 11.277344 13.613281 11.203125 13.738281 C 11.160156 13.808594 11.15625 13.914062 11.132812 13.992188 C 11.105469 14.085938 11.011719 14.238281 11.054688 14.335938 C 11.078125 14.386719 11.125 14.410156 11.136719 14.472656 C 11.15625 14.542969 11.144531 14.628906 11.125 14.699219 C 11.097656 14.800781 10.941406 15.027344 10.996094 15.136719 C 11.035156 15.144531 11.074219 15.148438 11.113281 15.160156 C 11.15625 15.378906 10.738281 15.484375 10.589844 15.507812 C 10.269531 15.554688 9.972656 15.679688 9.664062 15.769531 C 9.535156 15.804688 9.410156 15.855469 9.273438 15.875 C 9.164062 15.894531 9.074219 15.867188 8.96875 15.84375 C 8.757812 15.804688 8.613281 15.746094 8.414062 15.835938 C 8.332031 15.875 8.265625 15.882812 8.179688 15.898438 C 8.097656 15.910156 8.039062 15.957031 7.984375 15.980469 C 7.972656 16.023438 7.960938 16.070312 7.949219 16.113281 C 7.886719 16.074219 7.820312 16.027344 7.753906 16 C 7.648438 15.953125 7.53125 15.949219 7.421875 15.910156 C 7.234375 15.855469 7.105469 15.90625 6.914062 15.90625 C 6.726562 15.902344 6.539062 15.90625 6.347656 15.917969 C 6.164062 15.925781 5.964844 15.910156 5.789062 15.957031 C 5.636719 15.996094 5.566406 15.972656 5.414062 15.921875 C 5.292969 15.882812 5.175781 15.824219 5.058594 15.78125 C 4.554688 15.601562 4.097656 15.335938 3.582031 15.195312 C 3.554688 15.191406 3.464844 15.164062 3.386719 15.140625 C 3.414062 15.191406 3.441406 15.238281 3.449219 15.253906 C 3.582031 15.386719 3.707031 15.601562 3.832031 15.753906 C 3.914062 15.851562 3.949219 15.894531 3.957031 16.007812 C 3.96875 16.144531 4.070312 16.179688 4.101562 16.300781 C 4.140625 16.449219 4.152344 16.546875 4.246094 16.679688 C 4.335938 16.804688 4.394531 16.945312 4.480469 17.074219 C 4.582031 17.226562 4.632812 17.277344 4.8125 17.339844 C 4.980469 17.398438 5.152344 17.464844 5.324219 17.511719 C 5.414062 17.539062 5.488281 17.558594 5.546875 17.636719 C 5.597656 17.703125 5.605469 17.796875 5.65625 17.859375 C 5.683594 17.890625 5.816406 17.917969 5.929688 17.925781 C 5.917969 17.960938 5.910156 18 5.90625 18.03125 C 5.9375 18.175781 5.875 18.367188 5.890625 18.523438 C 5.910156 18.699219 5.964844 18.875 5.960938 19.054688 C 5.960938 19.199219 5.839844 19.398438 5.902344 19.527344 C 5.980469 19.714844 6.179688 19.617188 6.316406 19.589844 C 6.472656 19.554688 6.527344 19.667969 6.589844 19.769531 C 6.550781 19.816406 6.519531 19.867188 6.480469 19.914062 C 6.472656 20.058594 6.421875 20.230469 6.378906 20.378906 C 6.371094 20.410156 6.355469 20.460938 6.339844 20.515625 C 6.246094 20.535156 6.148438 20.554688 6.050781 20.574219 C 6.011719 20.550781 5.84375 20.558594 5.777344 20.550781 C 5.667969 20.539062 5.636719 20.5625 5.546875 20.628906 C 5.371094 20.757812 5.175781 20.671875 5.011719 20.828125 C 4.933594 20.902344 4.921875 21.066406 4.835938 21.125 C 4.722656 21.210938 4.75 21.027344 4.664062 21 C 4.589844 20.976562 4.492188 21.152344 4.4375 21.210938 C 4.390625 21.257812 4.3125 21.300781 4.289062 21.363281 C 4.269531 21.417969 4.289062 21.503906 4.285156 21.558594 C 4.28125 21.667969 4.308594 21.808594 4.242188 21.90625 C 4.164062 22.027344 4.054688 21.957031 4.03125 22.140625 C 4.003906 22.339844 3.953125 22.535156 3.929688 22.738281 C 3.921875 22.8125 3.898438 22.851562 3.953125 22.90625 C 4.015625 22.972656 4.042969 22.925781 4.070312 23.023438 C 4.089844 23.078125 4.054688 23.132812 4.125 23.144531 C 4.210938 23.15625 4.273438 23.023438 4.320312 22.988281 C 4.394531 22.9375 4.445312 22.972656 4.53125 22.988281 C 4.644531 23.011719 4.613281 23 4.683594 22.929688 C 4.738281 22.867188 4.765625 22.84375 4.863281 22.855469 C 4.957031 22.863281 4.96875 22.925781 5.042969 22.957031 C 5.179688 23.015625 5.183594 22.742188 5.34375 22.71875 C 5.542969 22.691406 5.820312 22.832031 6.007812 22.898438 C 6.046875 22.910156 6.058594 22.9375 6.105469 22.929688 C 6.148438 22.917969 6.148438 22.882812 6.179688 22.863281 C 6.246094 22.835938 6.304688 22.851562 6.371094 22.863281 C 6.425781 22.875 6.550781 22.933594 6.609375 22.917969 C 6.6875 22.898438 6.703125 22.746094 6.796875 22.710938 C 6.960938 22.644531 7.210938 22.738281 7.363281 22.78125 C 7.429688 22.800781 7.476562 22.839844 7.527344 22.761719 C 7.480469 22.683594 7.402344 22.664062 7.496094 22.585938 C 7.546875 22.542969 7.761719 22.507812 7.8125 22.558594 C 7.878906 22.628906 7.746094 22.726562 7.78125 22.785156 C 7.804688 22.828125 8.089844 22.902344 8.144531 22.90625 C 8.28125 22.917969 8.375 22.828125 8.5 22.816406 C 8.578125 22.8125 8.679688 22.863281 8.765625 22.863281 C 8.859375 22.863281 8.964844 22.820312 9.0625 22.835938 C 9.246094 22.859375 9.261719 22.90625 9.441406 22.800781 C 9.527344 22.746094 9.609375 22.710938 9.691406 22.667969 C 9.730469 22.71875 9.773438 22.769531 9.785156 22.789062 C 9.875 22.886719 10.152344 22.78125 10.277344 22.765625 C 10.386719 22.757812 10.683594 22.769531 10.738281 22.683594 C 10.78125 22.613281 10.742188 22.550781 10.851562 22.53125 C 10.925781 22.511719 11.046875 22.539062 11.113281 22.5625 C 11.183594 22.585938 11.292969 22.597656 11.34375 22.648438 C 11.398438 22.714844 11.390625 22.816406 11.417969 22.898438 C 11.449219 22.988281 11.527344 23.03125 11.570312 23.121094 C 11.617188 23.226562 11.574219 23.339844 11.550781 23.441406 C 11.527344 23.546875 11.480469 23.625 11.601562 23.667969 C 11.699219 23.707031 11.773438 23.726562 11.871094 23.78125 C 11.996094 23.847656 11.996094 23.8125 12.117188 23.789062 C 12.179688 23.78125 12.3125 23.820312 12.363281 23.859375 C 12.492188 23.953125 12.375 24.015625 12.3125 24.085938 C 12.226562 24.1875 12.359375 24.308594 12.417969 24.425781 C 12.496094 24.597656 12.46875 24.726562 12.492188 24.910156 C 12.515625 25.066406 12.652344 25.109375 12.746094 25.230469 C 12.839844 25.355469 12.863281 25.480469 13.042969 25.414062 C 13.105469 25.390625 13.15625 25.351562 13.207031 25.324219 C 13.238281 25.304688 13.269531 25.292969 13.300781 25.285156 C 13.402344 25.441406 13.460938 25.515625 13.621094 25.609375 C 13.644531 25.625 13.667969 25.636719 13.683594 25.65625 C 13.695312 25.578125 13.703125 25.503906 13.722656 25.429688 C 13.765625 25.390625 13.765625 25.316406 13.789062 25.265625 C 13.878906 25.269531 13.917969 25.238281 13.996094 25.191406 C 14.09375 25.136719 14.152344 25.144531 14.269531 25.15625 C 14.332031 25.160156 14.53125 25.179688 14.574219 25.15625 C 14.652344 25.113281 14.613281 24.941406 14.609375 24.859375 C 14.609375 24.816406 14.605469 24.769531 14.605469 24.722656 C 14.679688 24.742188 14.753906 24.765625 14.828125 24.789062 C 14.828125 24.796875 14.832031 24.800781 14.835938 24.824219 C 14.902344 24.792969 14.882812 24.695312 14.957031 24.65625 C 15.027344 24.625 15.078125 24.679688 15.132812 24.703125 C 15.273438 24.765625 15.398438 24.648438 15.554688 24.671875 C 15.585938 24.675781 15.617188 24.703125 15.652344 24.707031 C 15.691406 24.714844 15.730469 24.6875 15.777344 24.679688 C 15.867188 24.671875 15.90625 24.707031 15.957031 24.777344 C 16.019531 24.851562 16.027344 24.871094 16.117188 24.882812 C 16.207031 24.890625 16.296875 24.871094 16.390625 24.886719 C 16.5 24.898438 16.550781 24.949219 16.617188 24.839844 C 16.648438 24.785156 16.683594 24.699219 16.707031 24.621094 C 16.789062 24.617188 16.871094 24.613281 16.957031 24.601562 C 16.988281 24.566406 17.113281 24.507812 17.171875 24.476562 C 17.238281 24.433594 17.320312 24.394531 17.367188 24.5 C 17.394531 24.566406 17.320312 24.664062 17.347656 24.703125 C 17.386719 24.773438 17.582031 24.6875 17.644531 24.671875 C 17.777344 24.640625 17.742188 24.578125 17.839844 24.507812 C 17.917969 24.449219 18.007812 24.558594 18.078125 24.519531 C 18.1875 24.453125 17.867188 24.214844 17.984375 24.066406 C 18.046875 23.988281 18.117188 24.027344 18.054688 23.898438 C 17.984375 23.769531 17.890625 23.6875 17.839844 23.539062 C 17.800781 23.429688 17.785156 23.300781 17.734375 23.207031 C 17.667969 23.085938 17.515625 23.039062 17.46875 22.910156 C 17.40625 22.746094 17.574219 22.359375 17.3125 22.316406 C 17.15625 22.289062 17.042969 22.421875 16.902344 22.316406 C 16.75 22.203125 16.746094 22.027344 16.640625 21.886719 C 16.523438 21.730469 16.667969 21.519531 16.6875 21.332031 C 16.699219 21.195312 16.761719 20.90625 16.59375 20.867188 C 16.5 20.84375 16.398438 20.894531 16.296875 20.871094 C 16.195312 20.847656 16.074219 20.871094 15.984375 20.820312 C 15.847656 20.734375 15.789062 20.582031 15.671875 20.484375 C 15.679688 20.449219 15.6875 20.410156 15.6875 20.390625 C 15.71875 20.234375 15.734375 20.050781 15.808594 19.910156 C 15.898438 19.738281 16.136719 19.714844 16.269531 19.570312 C 16.417969 19.402344 16.488281 19.226562 16.585938 19.03125 C 16.640625 18.917969 16.71875 18.84375 16.8125 18.761719 C 16.890625 18.691406 16.929688 18.617188 17.027344 18.570312 C 17.328125 18.433594 17.273438 18.773438 17.445312 18.886719 C 17.496094 18.917969 17.6875 19.011719 17.738281 19.011719 C 17.847656 19.003906 17.960938 18.847656 18.082031 18.816406 C 18.234375 18.78125 18.398438 18.769531 18.550781 18.761719 C 18.714844 18.75 18.953125 18.722656 19.0625 18.597656 C 19.160156 18.488281 19.167969 18.332031 19.261719 18.222656 C 19.394531 18.066406 19.566406 18.039062 19.625 17.828125 C 19.679688 17.617188 19.703125 17.421875 19.886719 17.269531 C 20.101562 17.09375 20.351562 16.949219 20.578125 16.777344 C 20.8125 16.59375 20.816406 16.355469 20.929688 16.09375 C 21 15.929688 21.085938 15.777344 21.171875 15.625 C 21.226562 15.527344 21.226562 15.4375 21.230469 15.335938 C 21.257812 15.3125 21.289062 15.289062 21.320312 15.269531 C 21.425781 15.199219 21.523438 15.121094 21.636719 15.066406 C 21.730469 15.019531 21.925781 14.960938 21.980469 14.867188 C 22.039062 14.769531 21.925781 14.65625 21.902344 14.570312 C 21.886719 14.511719 21.90625 14.402344 21.949219 14.347656 C 21.988281 14.289062 22.101562 14.210938 22.160156 14.175781 C 22.28125 14.09375 22.320312 14.054688 22.375 13.921875 C 22.40625 13.859375 22.445312 13.765625 22.507812 13.71875 C 22.589844 13.664062 22.671875 13.671875 22.71875 13.578125 C 22.746094 13.523438 22.726562 13.453125 22.777344 13.40625 C 22.832031 13.359375 22.90625 13.394531 22.957031 13.355469 C 23.015625 13.3125 23.027344 13.234375 22.957031 13.195312 C 22.882812 13.152344 22.816406 13.234375 22.742188 13.210938 C 22.628906 13.175781 22.742188 12.886719 22.777344 12.785156 C 22.8125 12.699219 22.863281 12.597656 22.839844 12.503906 C 22.820312 12.421875 22.722656 12.378906 22.703125 12.304688 C 22.671875 12.15625 22.851562 12.003906 22.96875 11.957031 C 23.128906 11.898438 23.128906 11.679688 23.328125 11.644531 C 23.386719 11.636719 23.445312 11.664062 23.507812 11.644531 C 23.582031 11.621094 23.652344 11.558594 23.707031 11.503906 C 23.824219 11.386719 23.824219 11.238281 23.707031 11.144531 C 23.628906 11.082031 23.523438 10.949219 23.425781 10.96875 C 23.355469 10.980469 23.332031 11.039062 23.25 11.015625 C 23.203125 11 23.167969 10.957031 23.117188 10.949219 C 23.03125 10.933594 22.890625 11.019531 22.824219 10.90625 C 22.785156 10.84375 22.816406 10.671875 22.832031 10.589844 C 22.835938 10.554688 22.871094 10.464844 22.839844 10.433594 C 22.800781 10.402344 22.746094 10.453125 22.699219 10.460938 C 22.582031 10.488281 22.515625 10.445312 22.449219 10.339844 C 22.367188 10.199219 22.347656 10.109375 22.199219 10.019531 C 22.125 9.972656 22 9.847656 21.933594 9.824219 C 21.929688 9.816406 21.925781 9.804688 21.917969 9.796875 C 21.949219 9.746094 21.976562 9.695312 22.007812 9.644531 C 22.1875 9.59375 22.054688 9.335938 21.957031 9.253906 C 21.867188 9.183594 21.835938 9.15625 21.832031 9.03125 C 21.832031 8.882812 21.886719 8.875 22 8.8125 C 22.25 8.667969 22.101562 8.441406 21.863281 8.472656 C 21.769531 8.484375 21.636719 8.449219 21.664062 8.328125 C 21.695312 8.203125 21.8125 8.234375 21.722656 8.082031 C 21.714844 8.0625 21.664062 7.980469 21.640625 7.964844 C 21.59375 7.9375 21.546875 7.980469 21.503906 7.957031 C 21.332031 7.867188 21.570312 7.78125 21.617188 7.730469 C 21.65625 7.691406 21.6875 7.601562 21.6875 7.550781 C 21.6875 7.515625 21.644531 7.4375 21.667969 7.398438 C 21.707031 7.332031 21.796875 7.386719 21.839844 7.386719 C 21.929688 7.386719 21.925781 7.375 21.984375 7.296875 C 22.078125 7.167969 22.152344 7.199219 22.300781 7.203125 C 22.457031 7.207031 22.574219 7.179688 22.722656 7.234375 C 22.773438 7.253906 22.824219 7.296875 22.875 7.308594 C 22.964844 7.339844 23.058594 7.304688 23.152344 7.300781 C 23.335938 7.300781 23.488281 7.394531 23.65625 7.46875 C 23.875 7.570312 23.996094 7.472656 24.199219 7.394531 C 24.289062 7.363281 24.371094 7.355469 24.464844 7.34375 C 24.582031 7.324219 24.699219 7.242188 24.804688 7.195312 C 24.898438 7.152344 24.953125 7.046875 25.050781 7.011719 C 25.148438 6.980469 25.246094 7.054688 25.34375 7.023438 C 25.53125 6.957031 25.472656 6.628906 25.707031 6.617188 C 25.765625 6.617188 25.804688 6.640625 25.851562 6.675781 C 25.9375 6.582031 25.980469 6.457031 26.058594 6.359375 C 26.148438 6.253906 26.269531 6.175781 26.371094 6.089844 C 26.464844 6.003906 26.542969 5.90625 26.613281 5.800781 C 26.582031 5.796875 26.550781 5.78125 26.519531 5.777344 Z M 26.519531 5.777344 " fill-opacity="1" fill-rule="nonzero"/></g></svg>