<svg xmlns="http://www.w3.org/2000/svg" xmlns:xlink="http://www.w3.org/1999/xlink" width="40" zoomAndPan="magnify" viewBox="0 0 30 30.000001" height="40" preserveAspectRatio="xMidYMid meet" version="1.0"><defs><clipPath id="fa2aeb414e"><path d="M 3.386719 3.832031 L 26.613281 3.832031 L 26.613281 24.878906 L 3.386719 24.878906 Z M 3.386719 3.832031 " clip-rule="nonzero"/></clipPath></defs><g clip-path="url(#fa2aeb414e)"><path fill="#014d4e" d="M 26.613281 18.78125 L 26.613281 19.496094 L 26.148438 19.929688 L 25.089844 20.949219 L 23.511719 22.921875 L 24.105469 25.195312 L 23.566406 24.925781 L 21.863281 24.066406 L 19.894531 23.816406 L 19.230469 24.230469 L 18.941406 24.015625 L 18.207031 24.03125 L 17.457031 24.515625 L 16.703125 24.75 L 16.539062 24.140625 L 15.894531 23.386719 C 15.894531 23.386719 14.945312 24.050781 14.910156 23.976562 C 14.875 23.90625 13.367188 22.242188 13.367188 22.242188 L 12.203125 21.683594 L 11.917969 21.972656 L 11.398438 21.324219 L 11.488281 20.644531 L 10.644531 20.628906 L 9.460938 20.160156 L 9.765625 20.84375 L 9.140625 21.324219 L 8.011719 20.324219 L 8.40625 19.660156 L 8.40625 19.535156 L 6.34375 18.871094 L 5.429688 17.867188 L 5.054688 17.867188 L 5.179688 16.414062 L 4.765625 16.003906 L 4.300781 14.875 L 4.570312 13.40625 L 4.085938 12.757812 L 4.480469 11.863281 L 3.457031 11.125 L 3.386719 10.5 L 3.960938 9.75 L 3.886719 8.761719 L 3.886719 7.523438 C 3.914062 7.523438 3.9375 7.527344 3.964844 7.53125 C 4.035156 7.535156 4.109375 7.542969 4.183594 7.542969 C 4.386719 7.554688 4.425781 7.625 4.429688 7.726562 C 4.429688 7.832031 4.394531 7.972656 4.453125 8.117188 C 4.570312 8.40625 4.785156 8.84375 4.777344 8.800781 C 4.765625 8.753906 4.714844 8.136719 4.714844 8.136719 L 4.679688 7.820312 L 4.640625 7.445312 C 4.640625 7.445312 4.410156 6.78125 4.328125 6.757812 C 4.246094 6.730469 5.304688 6.542969 5.304688 6.542969 L 7.796875 5.96875 L 8.546875 4.890625 L 9.410156 4.800781 C 9.410156 4.800781 10.375 4.121094 10.554688 4.050781 C 10.734375 3.980469 12.113281 3.90625 12.113281 3.90625 L 13.082031 3.835938 C 13.082031 3.835938 13.171875 4.660156 13.242188 5.035156 C 13.316406 5.410156 13.691406 5.394531 13.90625 5.5 C 14.113281 5.605469 14.953125 5.789062 14.96875 5.835938 C 15.058594 5.753906 16.039062 5.035156 16.039062 5.035156 L 16.972656 5.394531 L 19.535156 5.359375 C 19.535156 5.359375 22.078125 5.195312 22.167969 5.214844 C 22.257812 5.234375 22.527344 4.964844 22.527344 4.964844 L 23.214844 4.964844 L 23.394531 5.222656 L 24.347656 5.589844 L 24.355469 6.683594 C 24.355469 6.683594 24.964844 8.226562 24.980469 8.277344 C 25 8.332031 25.644531 9.335938 25.644531 9.335938 C 25.644531 9.335938 25.539062 9.820312 25.589844 9.980469 C 25.644531 10.144531 25.628906 11.308594 25.628906 11.308594 L 24.550781 11.71875 L 24.195312 12.976562 C 24.195312 12.976562 25.160156 13.53125 25.324219 13.621094 C 25.484375 13.710938 25.464844 14.195312 25.464844 14.195312 C 25.464844 14.195312 25.234375 14.75 25.160156 14.839844 C 25.089844 14.929688 25.25 15.539062 25.25 15.539062 C 25.25 15.539062 25.429688 16.109375 25.429688 16.164062 C 25.429688 16.21875 25.679688 16.773438 25.679688 16.773438 L 26.453125 18.011719 L 26.308594 18.117188 L 26.613281 18.78125 " fill-opacity="1" fill-rule="nonzero"/></g></svg>