<svg xmlns="http://www.w3.org/2000/svg" xmlns:xlink="http://www.w3.org/1999/xlink" width="40" zoomAndPan="magnify" viewBox="0 0 30 30.000001" height="40" preserveAspectRatio="xMidYMid meet" version="1.0"><defs><clipPath id="ca0342965b"><path d="M 9.816406 3 L 17 3 L 17 25 L 9.816406 25 Z M 9.816406 3 " clip-rule="nonzero"/></clipPath><clipPath id="ca6a56f061"><path d="M 16 22 L 19.980469 22 L 19.980469 26.128906 L 16 26.128906 Z M 16 22 " clip-rule="nonzero"/></clipPath><clipPath id="1190be4910"><path d="M 19.503906 23.601562 L 19.980469 23.601562 L 19.980469 24.300781 L 19.503906 24.300781 Z M 19.503906 23.601562 " clip-rule="nonzero"/></clipPath><clipPath id="53d9d6fe25"><path d="M 18 21 L 19.980469 21 L 19.980469 23 L 18 23 Z M 18 21 " clip-rule="nonzero"/></clipPath></defs><g clip-path="url(#ca0342965b)"><path fill="#014d4e" d="M 12.761719 13.117188 C 12.640625 13.171875 12.527344 13.140625 12.480469 13.019531 C 12.269531 12.484375 12.070312 11.945312 11.867188 11.402344 C 11.84375 11.332031 11.863281 11.265625 11.953125 11.246094 C 12.039062 11.277344 12.128906 11.3125 12.21875 11.34375 C 12.289062 11.40625 12.371094 11.40625 12.457031 11.382812 C 12.652344 11.453125 12.84375 11.527344 13.042969 11.585938 C 13.199219 11.632812 13.335938 11.65625 13.496094 11.511719 C 13.65625 11.363281 13.921875 11.152344 13.96875 11.644531 C 13.984375 11.816406 14.1875 11.933594 14.160156 12.136719 C 13.984375 12.167969 13.984375 12.386719 13.839844 12.4375 C 13.734375 12.480469 13.699219 12.820312 13.484375 12.515625 C 13.4375 12.449219 13.21875 12.632812 13.152344 12.765625 C 13.0625 12.941406 12.925781 13.039062 12.761719 13.117188 Z M 11.609375 11 C 11.640625 11.019531 11.667969 11.035156 11.699219 11.054688 C 11.667969 11.035156 11.640625 11.019531 11.609375 11 Z M 15.171875 11.207031 C 15.171875 11.226562 15.171875 11.246094 15.171875 11.265625 C 15.171875 11.246094 15.171875 11.226562 15.171875 11.207031 Z M 16.308594 20.261719 C 16.453125 19.941406 16.433594 19.613281 16.355469 19.285156 C 16.363281 19.222656 16.371094 19.160156 16.375 19.097656 C 16.429688 19.007812 16.390625 18.976562 16.300781 18.980469 C 16.210938 18.765625 16.121094 18.550781 16.027344 18.335938 C 16.1875 18.1875 16.160156 18.0625 15.972656 17.964844 C 15.816406 18.007812 15.660156 18.09375 15.492188 18.003906 C 15.472656 17.890625 15.414062 17.8125 15.300781 17.78125 C 15.242188 17.699219 15.171875 17.644531 15.0625 17.65625 C 14.769531 17.507812 14.570312 17.855469 14.296875 17.800781 C 14.269531 17.785156 14.246094 17.773438 14.21875 17.757812 C 14.144531 17.617188 14.097656 17.460938 13.960938 17.363281 C 13.867188 17.269531 13.753906 17.242188 13.625 17.269531 C 13.457031 17.203125 13.335938 17.109375 13.257812 16.921875 C 13.097656 16.515625 12.992188 16.082031 13.042969 15.660156 C 13.179688 14.472656 13.277344 13.253906 14.234375 12.359375 C 14.402344 12.269531 14.566406 12.175781 14.730469 12.085938 C 14.972656 12.1875 14.859375 11.9375 14.9375 11.878906 C 15.050781 11.75 15.191406 11.644531 15.195312 11.453125 C 15.292969 11.15625 15.386719 10.851562 15.410156 10.53125 C 15.445312 10.472656 15.476562 10.410156 15.507812 10.347656 C 15.605469 10.257812 15.578125 10.140625 15.578125 10.03125 C 15.601562 9.980469 15.625 9.929688 15.652344 9.882812 C 15.804688 9.742188 15.90625 9.578125 15.855469 9.359375 C 15.910156 9.28125 16.023438 9.21875 15.898438 9.109375 C 15.875 9.050781 15.855469 8.996094 15.832031 8.9375 C 15.894531 8.832031 15.878906 8.722656 15.855469 8.613281 C 15.789062 7.804688 15.484375 7.484375 14.796875 7.496094 C 14.742188 7.480469 14.6875 7.46875 14.628906 7.453125 C 14.453125 7.328125 14.25 7.273438 14.042969 7.222656 C 14.019531 7.207031 13.996094 7.191406 13.96875 7.179688 C 13.941406 7.09375 13.878906 7.058594 13.792969 7.0625 C 13.625 6.960938 13.460938 6.859375 13.296875 6.757812 C 13.179688 6.625 13.0625 6.492188 12.949219 6.363281 C 12.949219 6.363281 12.933594 6.351562 12.933594 6.351562 C 12.832031 6.082031 12.480469 6.105469 12.359375 5.859375 C 12.328125 5.785156 12.265625 5.773438 12.195312 5.78125 C 12.058594 5.671875 11.929688 5.695312 11.804688 5.804688 C 11.640625 5.828125 11.582031 6.09375 11.367188 6.003906 C 11.40625 6.261719 11.332031 6.484375 11.179688 6.695312 C 11.042969 6.886719 10.914062 7.089844 10.941406 7.34375 C 10.765625 7.011719 10.859375 6.621094 10.714844 6.273438 C 10.660156 6.148438 10.785156 6.109375 10.894531 6.0625 C 11.050781 5.992188 11.222656 6.113281 11.363281 6 C 11.363281 6 11.363281 6.003906 11.367188 6.003906 C 11.367188 6 11.367188 6 11.367188 5.996094 L 11.359375 6 C 11.324219 5.765625 11.136719 5.621094 11.019531 5.441406 C 10.75 5.027344 10.816406 4.8125 11.253906 4.632812 C 11.382812 4.582031 11.539062 4.511719 11.597656 4.402344 C 11.75 4.113281 12.003906 3.972656 12.265625 3.808594 C 12.535156 3.632812 12.40625 3.300781 12.320312 3.125 C 12.207031 2.90625 12.0625 3.195312 11.929688 3.25 C 11.636719 3.363281 11.492188 3.753906 11.140625 3.722656 C 10.929688 3.703125 10.800781 3.773438 10.667969 3.894531 C 10.304688 4.222656 10.257812 4.710938 10.066406 5.125 C 9.996094 5.28125 10.011719 5.515625 10.296875 5.5625 C 10.507812 5.597656 10.558594 5.796875 10.539062 5.953125 C 10.5 6.257812 10.601562 6.527344 10.667969 6.808594 C 10.769531 7.207031 10.761719 7.605469 10.59375 7.988281 C 10.503906 8.1875 10.453125 8.382812 10.566406 8.589844 C 10.539062 8.699219 10.617188 8.769531 10.65625 8.855469 C 10.675781 8.9375 10.691406 9.019531 10.710938 9.105469 C 10.714844 9.164062 10.71875 9.226562 10.71875 9.285156 C 10.699219 9.339844 10.675781 9.398438 10.65625 9.453125 C 10.65625 9.5625 10.65625 9.667969 10.65625 9.777344 C 10.691406 9.980469 10.699219 10.1875 10.769531 10.375 C 10.828125 10.539062 10.84375 10.78125 11.117188 10.769531 C 11.144531 10.804688 11.175781 10.835938 11.207031 10.871094 C 11.527344 11.03125 11.714844 11.296875 11.824219 11.636719 C 12.0625 12.367188 12.332031 13.09375 12.550781 13.832031 C 12.800781 14.675781 12.832031 15.550781 12.910156 16.421875 C 12.90625 16.476562 12.90625 16.535156 12.902344 16.589844 C 12.859375 16.640625 12.859375 16.691406 12.902344 16.742188 C 12.902344 16.804688 12.902344 16.867188 12.902344 16.925781 C 12.859375 17.121094 12.8125 17.316406 12.769531 17.511719 C 12.71875 17.550781 12.664062 17.585938 12.613281 17.621094 C 12.335938 17.5625 12.402344 17.796875 12.347656 17.933594 C 12.308594 17.984375 12.308594 18.039062 12.347656 18.089844 C 12.34375 18.234375 12.339844 18.375 12.335938 18.519531 C 12.300781 18.867188 12.109375 19.125 11.863281 19.351562 C 11.621094 19.457031 11.351562 19.503906 11.132812 19.660156 C 11.042969 19.707031 10.949219 19.75 10.859375 19.796875 C 10.675781 19.835938 10.75 20.007812 10.703125 20.117188 L 10.695312 20.121094 C 10.605469 20.140625 10.570312 20.199219 10.5625 20.28125 C 10.546875 20.308594 10.535156 20.332031 10.519531 20.355469 C 10.429688 20.433594 10.339844 20.515625 10.25 20.59375 C 10.171875 20.710938 10.09375 20.828125 10.015625 20.945312 C 9.882812 21.019531 9.816406 21.152344 9.917969 21.25 C 10.117188 21.4375 10 21.664062 10.019531 21.902344 C 10.335938 21.5 10.71875 21.523438 11.117188 21.601562 C 11.164062 21.660156 11.210938 21.722656 11.257812 21.785156 C 11.246094 21.949219 11.234375 22.117188 11.222656 22.285156 C 11.203125 22.351562 11.179688 22.417969 11.160156 22.484375 C 11.105469 22.554688 11.074219 22.625 11.136719 22.703125 C 11.117188 22.769531 11.097656 22.839844 11.074219 22.90625 C 10.855469 23.132812 11.101562 23.316406 11.167969 23.488281 C 11.214844 23.617188 11.300781 23.453125 11.339844 23.378906 C 11.371094 23.332031 11.402344 23.285156 11.433594 23.238281 C 11.496094 23.242188 11.5625 23.25 11.625 23.253906 C 11.640625 23.292969 11.652344 23.335938 11.664062 23.378906 C 11.675781 23.410156 11.675781 23.453125 11.695312 23.472656 C 11.734375 23.503906 11.761719 23.476562 11.769531 23.433594 C 11.832031 23.433594 11.894531 23.4375 11.957031 23.441406 C 12.042969 23.65625 11.902344 23.925781 12.128906 24.101562 C 12.234375 24.09375 12.308594 24.035156 12.363281 23.953125 C 12.441406 23.925781 12.523438 23.90625 12.539062 23.804688 C 12.632812 23.710938 12.800781 23.773438 12.871094 23.636719 C 12.953125 23.496094 13.035156 23.355469 13.113281 23.210938 C 13.199219 23.117188 13.285156 23.023438 13.371094 22.933594 C 13.453125 22.914062 13.523438 22.882812 13.5625 22.804688 C 13.609375 22.78125 13.65625 22.757812 13.707031 22.734375 C 13.835938 22.726562 13.925781 22.671875 13.953125 22.539062 L 13.957031 22.53125 C 14.035156 22.476562 14.148438 22.476562 14.179688 22.363281 L 14.203125 22.335938 C 14.320312 22.238281 14.4375 22.140625 14.554688 22.042969 C 14.582031 22.027344 14.605469 22.015625 14.632812 22 C 14.765625 21.964844 14.902344 21.929688 14.976562 21.792969 C 14.925781 21.800781 14.871094 21.8125 14.824219 21.832031 C 14.808594 21.835938 14.792969 21.84375 14.777344 21.851562 C 14.792969 21.84375 14.808594 21.835938 14.824219 21.832031 C 14.871094 21.8125 14.925781 21.800781 14.976562 21.792969 C 15.058594 21.722656 15.136719 21.652344 15.21875 21.582031 C 15.304688 21.484375 15.394531 21.386719 15.480469 21.289062 C 15.804688 21.195312 15.882812 20.839844 16.140625 20.675781 C 16.242188 20.628906 16.242188 20.53125 16.25 20.441406 C 16.269531 20.378906 16.289062 20.320312 16.308594 20.261719 " fill-opacity="1" fill-rule="nonzero"/></g><g clip-path="url(#ca6a56f061)"><path fill="#014d4e" d="M 19.707031 24.976562 C 19.453125 24.820312 19.359375 24.355469 18.886719 24.574219 C 19.152344 24.269531 19.082031 23.824219 19.355469 23.628906 C 19.75 23.34375 19.691406 23.011719 19.558594 22.675781 C 19.464844 22.429688 19.308594 22.269531 18.941406 22.289062 C 18.097656 22.324219 17.769531 22.980469 17.328125 23.492188 C 16.894531 23.992188 16.816406 24.730469 16.277344 25.195312 C 16.128906 25.324219 16.355469 25.394531 16.46875 25.375 C 16.648438 25.34375 16.773438 25.402344 16.753906 25.566406 C 16.726562 25.808594 16.894531 25.925781 17 26.128906 C 17.09375 25.949219 17.234375 25.839844 17.214844 25.648438 C 17.199219 25.515625 17.300781 25.390625 17.402344 25.433594 C 17.726562 25.578125 17.898438 25.382812 18.082031 25.136719 C 18.105469 25.589844 18.105469 25.585938 18.546875 25.664062 C 18.621094 25.675781 18.683594 25.753906 18.757812 25.789062 C 18.867188 25.84375 18.824219 25.695312 18.886719 25.683594 C 18.914062 25.652344 18.9375 25.621094 18.964844 25.589844 C 19.179688 25.503906 19.390625 25.410156 19.609375 25.332031 C 19.816406 25.253906 19.816406 25.046875 19.707031 24.976562 " fill-opacity="1" fill-rule="nonzero"/></g><g clip-path="url(#1190be4910)"><path fill="#014d4e" d="M 19.636719 23.96875 C 19.550781 24.058594 19.433594 24.175781 19.585938 24.265625 C 19.699219 24.335938 19.835938 24.285156 19.902344 24.109375 C 19.96875 23.9375 20.078125 23.785156 20.171875 23.617188 C 19.835938 23.53125 19.78125 23.816406 19.636719 23.96875 " fill-opacity="1" fill-rule="nonzero"/></g><g clip-path="url(#53d9d6fe25)"><path fill="#014d4e" d="M 19.113281 22.015625 C 19.257812 22.003906 19.453125 21.996094 19.46875 21.808594 C 19.476562 21.664062 19.308594 21.703125 19.21875 21.6875 C 19.066406 21.703125 18.898438 21.710938 18.875 21.875 C 18.851562 22.015625 19.015625 22.023438 19.113281 22.015625 " fill-opacity="1" fill-rule="nonzero"/></g></svg>