<svg xmlns="http://www.w3.org/2000/svg" xmlns:xlink="http://www.w3.org/1999/xlink" width="40" zoomAndPan="magnify" viewBox="0 0 30 30.000001" height="40" preserveAspectRatio="xMidYMid meet" version="1.0"><defs><clipPath id="47308a19d9"><path d="M 7.4375 2.902344 L 22.679688 2.902344 L 22.679688 26.128906 L 7.4375 26.128906 Z M 7.4375 2.902344 " clip-rule="nonzero"/></clipPath></defs><g clip-path="url(#47308a19d9)"><path fill="#014d4e" d="M 22.382812 23.585938 C 22.351562 23.3125 22.324219 23.066406 22.222656 22.804688 C 22.144531 22.605469 22.046875 22.417969 22.023438 22.203125 C 21.980469 21.804688 21.992188 21.398438 21.96875 21 C 21.933594 20.476562 21.980469 19.976562 22.03125 19.460938 C 22.082031 18.933594 22.222656 18.378906 22.199219 17.851562 C 22.167969 17.167969 21.734375 16.621094 21.492188 16.027344 C 21.253906 15.464844 21.265625 14.777344 20.992188 14.230469 C 20.980469 14.09375 20.9375 13.96875 20.921875 13.835938 C 20.898438 13.632812 20.925781 13.464844 20.867188 13.265625 C 20.765625 12.871094 20.71875 12.453125 20.625 12.054688 C 20.53125 11.648438 20.417969 11.222656 20.289062 10.824219 C 20.230469 10.628906 20.136719 10.449219 20.082031 10.253906 C 20.023438 10.035156 20.011719 9.8125 19.933594 9.597656 C 19.792969 9.222656 19.746094 8.816406 19.570312 8.460938 C 19.410156 8.144531 19.253906 7.761719 19.222656 7.40625 C 19.167969 6.78125 19.355469 6.109375 19.550781 5.523438 C 19.730469 4.972656 19.972656 4.445312 20.160156 3.890625 C 20.234375 3.671875 20.351562 3.441406 20.402344 3.21875 C 20.464844 2.902344 20.316406 2.941406 20.097656 3.03125 C 19.238281 3.386719 18.332031 3.6875 17.5 4.101562 C 17.136719 4.277344 16.738281 4.453125 16.355469 4.566406 C 16.066406 4.648438 15.773438 4.652344 15.492188 4.777344 C 15.398438 4.820312 15.191406 4.910156 15.0625 4.964844 C 14.855469 4.933594 14.65625 4.914062 14.460938 4.929688 C 14.148438 4.957031 13.742188 5.054688 13.429688 5.015625 C 13.152344 4.976562 12.863281 4.808594 12.585938 4.742188 C 12.296875 4.671875 12.097656 4.574219 11.824219 4.4375 C 11.320312 4.195312 10.800781 4.308594 10.457031 4.722656 C 10.125 5.121094 9.855469 5.757812 9.765625 6.261719 C 9.714844 6.535156 9.75 6.816406 9.691406 7.085938 C 9.648438 7.296875 9.546875 7.488281 9.519531 7.707031 C 9.519531 7.722656 9.519531 7.746094 9.519531 7.773438 C 9.464844 7.84375 9.410156 7.917969 9.367188 7.976562 C 9.242188 8.117188 9.121094 8.28125 8.996094 8.429688 C 8.84375 8.605469 8.644531 8.710938 8.46875 8.871094 C 8.101562 9.1875 8.265625 9.769531 8.140625 10.195312 C 7.996094 10.710938 7.5625 11.058594 7.507812 11.613281 C 7.441406 12.300781 7.554688 13.09375 7.75 13.757812 C 7.882812 14.195312 8.015625 14.621094 8.121094 15.070312 C 8.175781 15.308594 8.347656 15.777344 8.582031 15.949219 C 8.703125 16.121094 8.851562 16.277344 8.964844 16.460938 C 9.164062 16.777344 9.320312 17.132812 9.535156 17.433594 C 9.867188 17.898438 10.257812 18.328125 10.589844 18.800781 C 10.828125 19.132812 10.941406 19.476562 11.066406 19.859375 C 11.175781 20.179688 11.191406 20.519531 11.367188 20.808594 C 11.71875 21.375 12.175781 21.816406 12.597656 22.328125 C 12.8125 22.589844 13.058594 22.683594 13.363281 22.828125 C 13.730469 23.007812 14.046875 23.304688 14.449219 23.402344 C 14.890625 23.511719 15.316406 23.160156 15.773438 23.210938 C 16.023438 23.238281 16.257812 23.296875 16.488281 23.382812 C 16.753906 23.480469 16.949219 23.667969 17.1875 23.816406 C 17.464844 23.996094 17.785156 24.152344 18.082031 24.300781 C 18.410156 24.472656 18.640625 24.691406 18.917969 24.933594 C 19.421875 25.355469 19.949219 25.898438 20.628906 26.019531 C 20.796875 26.050781 21.109375 26.128906 21.28125 26.074219 C 21.394531 26.039062 21.484375 25.933594 21.570312 25.832031 C 21.839844 25.671875 22.148438 25.621094 22.300781 25.304688 C 22.550781 24.78125 22.445312 24.132812 22.382812 23.585938 Z M 22.382812 23.585938 " fill-opacity="1" fill-rule="nonzero"/></g></svg>