<svg xmlns="http://www.w3.org/2000/svg" xmlns:xlink="http://www.w3.org/1999/xlink" width="40" zoomAndPan="magnify" viewBox="0 0 30 30.000001" height="40" preserveAspectRatio="xMidYMid meet" version="1.0"><defs><clipPath id="ee7dc5a16f"><path d="M 10.882812 2.902344 L 18.867188 2.902344 L 18.867188 26.855469 L 10.882812 26.855469 Z M 10.882812 2.902344 " clip-rule="nonzero"/></clipPath></defs><g clip-path="url(#ee7dc5a16f)"><path fill="#014d4e" d="M 14.347656 25.433594 C 14.308594 25.34375 14.304688 25.285156 14.285156 25.199219 C 14.246094 25.03125 14.195312 24.921875 14.089844 24.695312 C 14.011719 24.527344 13.820312 24.128906 13.792969 24 C 13.761719 23.824219 13.792969 23.835938 13.753906 23.6875 C 13.671875 23.339844 13.4375 23.046875 13.4375 23.046875 C 13.449219 22.925781 13.46875 22.796875 13.484375 22.671875 C 13.359375 22.441406 13.230469 22.199219 13.109375 21.96875 C 13.09375 21.730469 13.082031 21.484375 13.0625 21.246094 C 12.992188 21.226562 12.921875 21.199219 12.847656 21.179688 C 12.855469 21.058594 12.847656 20.871094 12.804688 20.648438 C 12.785156 20.558594 12.765625 20.515625 12.621094 20.140625 C 12.429688 19.628906 12.429688 19.628906 12.410156 19.582031 C 12.246094 19.242188 12.183594 19.246094 12.136719 19.039062 C 12.117188 18.960938 12.125 18.949219 12.085938 18.585938 C 12.054688 18.308594 12.054688 18.304688 12.046875 18.277344 C 12.015625 18.140625 11.976562 17.949219 11.839844 17.773438 C 11.796875 17.707031 11.761719 17.6875 11.730469 17.617188 C 11.71875 17.59375 11.699219 17.535156 11.691406 17.339844 C 11.683594 17.210938 11.699219 17.21875 11.691406 17.160156 C 11.683594 17.082031 11.660156 17.003906 11.535156 16.777344 C 11.414062 16.558594 11.402344 16.558594 11.34375 16.453125 C 11.253906 16.292969 11.207031 16.164062 11.121094 15.949219 C 11.066406 15.808594 11.007812 15.640625 10.949219 15.503906 C 10.949219 15.496094 10.882812 15.367188 10.882812 15.367188 C 10.882812 15.367188 11.234375 14.96875 11.421875 14.753906 C 11.925781 14.164062 12.175781 13.875 12.351562 13.636719 C 12.679688 13.175781 12.738281 12.996094 12.945312 12.710938 C 12.976562 12.664062 13.082031 12.523438 13.179688 12.316406 C 13.191406 12.285156 13.21875 12.238281 13.238281 12.179688 C 13.257812 12.097656 13.25 12.046875 13.257812 11.972656 C 13.261719 11.914062 13.277344 11.878906 13.328125 11.734375 C 13.417969 11.484375 13.46875 11.359375 13.484375 11.328125 C 13.652344 10.953125 13.890625 10.324219 13.929688 10.234375 C 14.140625 9.691406 14.246094 9.246094 14.308594 8.9375 C 14.308594 8.9375 14.347656 8.753906 14.542969 7.675781 C 14.621094 7.570312 14.703125 7.476562 14.78125 7.371094 C 14.742188 7.300781 14.691406 7.183594 14.679688 7.046875 C 14.660156 6.878906 14.710938 6.839844 14.757812 6.578125 C 14.8125 6.207031 14.757812 6.109375 14.867188 5.980469 C 14.910156 5.921875 14.980469 5.890625 15.113281 5.8125 C 15.324219 5.695312 15.390625 5.714844 15.433594 5.640625 C 15.511719 5.515625 15.410156 5.386719 15.507812 5.289062 C 15.507812 5.289062 15.519531 5.277344 15.640625 5.199219 C 15.640625 5.199219 15.640625 4.851562 15.648438 4.480469 C 15.648438 4.410156 15.65625 4.320312 15.710938 4.269531 C 15.769531 4.222656 15.847656 4.230469 15.882812 4.230469 C 16.144531 4.253906 16.410156 4.214844 16.675781 4.230469 C 16.933594 4.242188 17.121094 4.25 17.367188 4.183594 C 17.703125 4.09375 17.890625 3.933594 17.929688 3.894531 C 18.027344 3.808594 18.128906 3.710938 18.183594 3.5625 C 18.183594 3.5625 18.226562 3.433594 18.183594 2.929688 C 18.183594 2.929688 18.808594 2.9375 18.808594 2.9375 C 18.820312 3.144531 18.789062 3.28125 18.75 3.371094 C 18.738281 3.402344 18.699219 3.472656 18.679688 3.570312 C 18.660156 3.652344 18.660156 3.71875 18.667969 3.757812 C 18.671875 4.171875 18.71875 4.214844 18.671875 4.3125 C 18.601562 4.457031 18.480469 4.410156 18.394531 4.570312 C 18.351562 4.65625 18.355469 4.753906 18.371094 4.953125 C 18.382812 5.1875 18.390625 5.300781 18.394531 5.355469 C 18.410156 5.417969 18.421875 5.476562 18.382812 5.523438 C 18.34375 5.574219 18.273438 5.527344 18.214844 5.5625 C 18.097656 5.625 18.105469 5.902344 18.167969 6.117188 C 18.214844 6.277344 18.273438 6.316406 18.296875 6.5 C 18.3125 6.570312 18.296875 6.558594 18.304688 6.71875 C 18.316406 7.027344 18.355469 7.09375 18.296875 7.175781 C 18.253906 7.25 18.207031 7.222656 18.144531 7.308594 C 18.089844 7.378906 18.078125 7.457031 18.074219 7.539062 C 18.058594 7.65625 18.046875 7.753906 18.105469 7.8125 C 18.148438 7.855469 18.203125 7.835938 18.242188 7.886719 C 18.265625 7.921875 18.265625 7.964844 18.265625 8.023438 C 18.265625 8.339844 18.277344 8.359375 18.246094 8.40625 C 18.203125 8.46875 18.15625 8.449219 18.117188 8.527344 C 18.074219 8.613281 18.097656 8.703125 18.105469 8.734375 C 18.125 8.820312 18.164062 8.824219 18.195312 8.910156 C 18.203125 8.9375 18.226562 8.992188 18.222656 9.199219 C 18.214844 9.335938 18.203125 9.433594 18.203125 9.464844 C 18.167969 9.71875 18.1875 9.730469 18.164062 9.96875 C 18.136719 10.230469 18.109375 10.265625 18.039062 10.6875 C 18.007812 10.886719 17.988281 10.984375 17.988281 11.042969 C 17.976562 11.269531 18.015625 11.320312 18.058594 11.710938 C 18.085938 11.949219 18.097656 12.066406 18.089844 12.246094 C 18.089844 12.246094 18.089844 12.285156 18.066406 12.613281 C 18.066406 12.613281 17.980469 12.621094 17.917969 12.640625 C 17.917969 12.640625 17.839844 12.664062 17.789062 12.703125 C 17.710938 12.761719 17.710938 12.839844 17.660156 12.976562 C 17.59375 13.136719 17.5625 13.117188 17.457031 13.34375 C 17.414062 13.449219 17.386719 13.5 17.367188 13.570312 C 17.335938 13.699219 17.359375 13.726562 17.347656 13.945312 C 17.335938 14.101562 17.324219 14.113281 17.316406 14.242188 C 17.316406 14.339844 17.324219 14.417969 17.335938 14.480469 C 17.335938 14.480469 17.378906 14.820312 17.492188 15.296875 C 17.257812 15.425781 17.199219 15.570312 17.179688 15.640625 C 17.171875 15.671875 17.171875 15.671875 17.171875 15.917969 C 17.171875 16.183594 17.171875 16.207031 17.191406 16.265625 C 17.226562 16.355469 17.257812 16.351562 17.367188 16.503906 C 17.472656 16.648438 17.535156 16.746094 17.5625 16.867188 C 17.566406 16.90625 17.574219 16.964844 17.503906 17.261719 C 17.433594 17.546875 17.355469 17.753906 17.34375 17.785156 C 17.265625 17.984375 17.21875 18.109375 17.148438 18.25 C 16.972656 18.582031 16.703125 18.839844 16.703125 18.839844 C 16.863281 18.976562 16.882812 19.058594 16.871094 19.109375 C 16.855469 19.183594 16.785156 19.203125 16.675781 19.304688 C 16.675781 19.304688 16.574219 19.410156 16.488281 19.5625 C 16.386719 19.75 16.457031 19.804688 16.371094 20.074219 C 16.347656 20.152344 16.292969 20.328125 16.164062 20.515625 C 16.066406 20.65625 16.023438 20.667969 16.003906 20.753906 C 15.972656 20.914062 16.113281 20.941406 16.160156 21.1875 C 16.191406 21.394531 16.121094 21.5625 16.21875 21.640625 C 16.238281 21.65625 16.28125 21.683594 16.289062 21.730469 C 16.289062 21.730469 16.289062 21.75 16.269531 21.839844 C 16.269531 21.839844 16.09375 21.859375 16.09375 21.859375 C 16.085938 21.902344 16.074219 21.960938 16.074219 22.039062 C 16.074219 22.070312 16.074219 22.1875 16.121094 22.351562 C 16.183594 22.5625 16.25 22.601562 16.230469 22.710938 C 16.222656 22.730469 16.21875 22.769531 16.125 22.878906 C 15.992188 23.046875 15.898438 23.0625 15.84375 23.171875 C 15.777344 23.289062 15.875 23.320312 15.816406 23.480469 C 15.796875 23.539062 15.777344 23.546875 15.640625 23.773438 C 15.5625 23.902344 15.558594 23.914062 15.558594 23.925781 C 15.542969 23.964844 15.542969 24.019531 15.609375 24.257812 C 15.648438 24.398438 15.660156 24.417969 15.675781 24.507812 C 15.695312 24.605469 15.699219 24.65625 15.679688 24.714844 C 15.667969 24.765625 15.648438 24.78125 15.53125 24.929688 C 15.453125 25.03125 15.414062 25.085938 15.402344 25.117188 C 15.390625 25.15625 15.390625 25.234375 15.394531 25.375 C 15.402344 25.492188 15.410156 25.53125 15.375 25.570312 C 15.34375 25.613281 15.304688 25.601562 15.265625 25.648438 C 15.207031 25.703125 15.226562 25.796875 15.234375 25.898438 C 15.234375 25.949219 15.246094 26.152344 15.195312 26.324219 C 15.144531 26.488281 15.09375 26.441406 15.007812 26.648438 C 14.96875 26.738281 14.90625 26.933594 14.839844 26.945312 C 14.8125 26.953125 14.78125 26.953125 14.78125 26.953125 C 14.761719 26.953125 14.738281 26.953125 14.722656 26.945312 C 14.691406 26.941406 14.664062 26.90625 14.605469 26.765625 C 14.574219 26.6875 14.5625 26.648438 14.554688 26.609375 C 14.53125 26.5 14.550781 26.410156 14.554688 26.363281 C 14.601562 26.066406 14.625 25.917969 14.570312 25.777344 C 14.511719 25.609375 14.433594 25.621094 14.347656 25.433594 Z M 14.347656 25.433594 " fill-opacity="1" fill-rule="nonzero"/></g></svg>