<svg xmlns="http://www.w3.org/2000/svg" xmlns:xlink="http://www.w3.org/1999/xlink" width="40" zoomAndPan="magnify" viewBox="0 0 30 30.000001" height="40" preserveAspectRatio="xMidYMid meet" version="1.0"><defs><clipPath id="1d8275471e"><path d="M 9.339844 2.902344 L 20.953125 2.902344 L 20.953125 26 L 9.339844 26 Z M 9.339844 2.902344 " clip-rule="nonzero"/></clipPath></defs><g clip-path="url(#1d8275471e)"><path fill="#014d4e" d="M 11.53125 4.34375 C 11.53125 4.320312 11.539062 4.011719 11.914062 3.738281 C 12.289062 3.464844 12.246094 3.675781 12.296875 3.390625 C 12.347656 3.105469 12.589844 3.40625 12.75 3.246094 C 12.914062 3.082031 12.890625 3.09375 13.285156 3.101562 C 13.675781 3.105469 13.445312 2.949219 13.640625 2.925781 C 13.839844 2.902344 13.6875 3.238281 13.820312 3.25 C 13.957031 3.261719 14.097656 3.121094 14.128906 3.285156 C 14.164062 3.449219 14.078125 3.328125 13.921875 3.554688 C 13.765625 3.777344 13.648438 3.878906 13.710938 3.984375 C 13.769531 4.09375 13.742188 4.058594 13.753906 4.140625 C 13.765625 4.226562 13.878906 4.074219 13.902344 4.191406 C 13.929688 4.308594 13.851562 4.320312 13.921875 4.335938 C 13.992188 4.351562 14.027344 4.359375 14.164062 4.4375 C 14.300781 4.515625 14.332031 4.421875 14.433594 4.335938 C 14.535156 4.246094 14.621094 4.15625 14.703125 4.128906 C 14.789062 4.105469 14.789062 4.019531 14.839844 4.007812 C 14.882812 4 14.839844 4.265625 14.921875 4.21875 C 14.921875 4.21875 15.183594 4.121094 15.277344 4.054688 C 15.367188 3.992188 15.425781 3.984375 15.570312 4.070312 C 15.714844 4.15625 15.78125 4.015625 15.800781 4.078125 C 15.824219 4.140625 15.703125 4.292969 15.800781 4.300781 C 15.902344 4.308594 16.207031 4.273438 16.246094 4.15625 C 16.28125 4.035156 16.378906 4.464844 16.527344 4.328125 C 16.675781 4.191406 16.660156 4.367188 16.886719 4.242188 C 17.113281 4.121094 17.265625 4.011719 17.242188 3.761719 C 17.214844 3.507812 17.425781 3.460938 17.632812 3.726562 C 17.632812 3.726562 17.792969 3.75 17.882812 3.71875 C 17.882812 3.71875 17.875 3.632812 18.128906 3.695312 C 18.386719 3.757812 18.378906 3.585938 18.503906 3.527344 C 18.625 3.472656 18.640625 3.738281 18.816406 3.714844 C 18.992188 3.695312 19.199219 3.722656 19.210938 3.625 C 19.226562 3.527344 19.429688 3.675781 19.417969 3.917969 C 19.40625 4.160156 19.519531 4.023438 19.46875 4.199219 C 19.417969 4.375 19.390625 4.261719 19.390625 4.394531 C 19.390625 4.527344 19.324219 4.460938 19.320312 4.578125 C 19.320312 4.699219 19.390625 4.679688 19.371094 4.804688 C 19.351562 4.929688 19.519531 5 19.578125 4.9375 C 19.640625 4.871094 19.882812 4.8125 20.125 4.949219 C 20.367188 5.085938 20.644531 5.234375 20.453125 5.464844 C 20.261719 5.691406 20.261719 5.5625 20.261719 5.691406 C 20.261719 5.816406 20.28125 5.824219 20.246094 5.878906 C 20.210938 5.929688 20.160156 5.890625 20.128906 5.96875 C 20.097656 6.042969 20.152344 6.023438 20.128906 6.101562 C 20.105469 6.179688 19.988281 6.0625 19.960938 6.128906 C 19.933594 6.191406 19.925781 6.144531 19.945312 6.230469 C 19.964844 6.316406 19.910156 6.277344 19.847656 6.332031 C 19.785156 6.386719 19.816406 6.382812 19.785156 6.46875 C 19.753906 6.554688 19.625 6.480469 19.597656 6.550781 C 19.574219 6.621094 19.6875 6.644531 19.546875 6.671875 C 19.40625 6.699219 19.382812 6.78125 19.277344 6.765625 C 19.171875 6.753906 19.179688 6.640625 19.097656 6.769531 C 19.015625 6.894531 18.972656 6.832031 18.886719 7.113281 C 18.796875 7.390625 18.617188 7.199219 18.632812 7.402344 C 18.648438 7.601562 18.667969 7.570312 18.578125 7.664062 C 18.492188 7.753906 18.355469 7.742188 18.214844 7.71875 C 18.074219 7.695312 18.074219 7.84375 18.117188 7.875 C 18.164062 7.90625 18.347656 8.042969 18.4375 8.273438 C 18.53125 8.503906 18.402344 8.445312 18.511719 8.460938 C 18.621094 8.476562 18.625 8.5625 18.554688 8.601562 C 18.480469 8.640625 18.308594 8.914062 18.441406 9.230469 C 18.570312 9.546875 18.480469 9.550781 18.429688 9.714844 C 18.382812 9.878906 18.417969 9.882812 18.480469 9.980469 C 18.546875 10.074219 18.449219 10.152344 18.429688 10.21875 C 18.414062 10.285156 18.316406 10.550781 18.546875 10.777344 C 18.773438 11.003906 18.316406 10.828125 18.316406 11.003906 C 18.316406 11.183594 18.285156 11.140625 18.007812 11.191406 C 17.730469 11.242188 17.871094 11.28125 17.84375 11.398438 C 17.820312 11.519531 17.738281 11.6875 18.003906 11.875 C 18.269531 12.066406 18.539062 12.339844 18.539062 12.546875 C 18.539062 12.757812 18.425781 12.714844 18.492188 12.910156 C 18.554688 13.101562 18.234375 13.125 18.21875 13.367188 C 18.199219 13.613281 18.339844 13.78125 17.785156 13.90625 C 17.785156 13.90625 17.761719 13.898438 17.695312 13.957031 C 17.632812 14.019531 17.558594 13.875 17.503906 13.917969 C 17.445312 13.960938 17.097656 13.921875 16.996094 14.066406 C 16.894531 14.207031 16.292969 13.832031 16.269531 14.125 C 16.246094 14.417969 16.640625 14.84375 16.886719 14.886719 C 17.136719 14.925781 16.96875 15.0625 16.984375 15.261719 C 16.996094 15.464844 17.078125 15.460938 17.292969 15.6875 C 17.507812 15.917969 17.234375 15.929688 17.429688 16.070312 C 17.628906 16.214844 17.710938 16.144531 17.714844 16.265625 C 17.722656 16.386719 17.578125 16.511719 17.871094 16.480469 C 18.167969 16.445312 18.21875 16.492188 18.332031 16.785156 C 18.445312 17.082031 18.105469 17.234375 18.089844 17.507812 C 18.078125 17.78125 17.945312 17.601562 17.871094 17.851562 C 17.796875 18.105469 17.667969 17.675781 17.394531 18.070312 C 17.121094 18.464844 17.234375 18.632812 17.253906 18.660156 C 17.273438 18.683594 17.300781 18.761719 17.152344 18.957031 C 17.007812 19.148438 17.054688 19.308594 17.105469 19.347656 C 17.15625 19.386719 17.144531 19.410156 17.144531 19.535156 C 17.144531 19.664062 17.21875 19.527344 17.289062 19.730469 C 17.355469 19.933594 17.496094 19.875 17.601562 20.167969 C 17.707031 20.460938 17.71875 20.097656 17.796875 20.472656 C 17.875 20.847656 18.09375 20.824219 18.230469 20.847656 C 18.367188 20.871094 18.207031 20.90625 18.207031 21.035156 C 18.207031 21.164062 18.292969 21.449219 18.058594 21.316406 C 17.820312 21.183594 17.84375 21.253906 17.730469 21.378906 C 17.617188 21.503906 17.570312 21.316406 17.488281 21.421875 C 17.40625 21.53125 17.292969 21.484375 17.289062 21.609375 C 17.289062 21.730469 17.175781 21.933594 17.183594 22.082031 C 17.195312 22.226562 16.824219 22.359375 16.765625 22.476562 C 16.707031 22.589844 16.640625 22.660156 16.648438 22.742188 C 16.660156 22.824219 16.605469 22.941406 16.597656 23.050781 C 16.589844 23.160156 16.542969 23.007812 16.457031 23.285156 C 16.367188 23.5625 16.285156 23.632812 16.390625 23.730469 C 16.496094 23.824219 16.582031 24.007812 16.632812 24.496094 C 16.683594 24.984375 16.742188 25 16.820312 25.132812 C 16.902344 25.269531 16.523438 25.109375 16.425781 25.273438 C 16.328125 25.4375 15.855469 25.457031 15.652344 25.792969 C 15.449219 26.128906 14.34375 25.667969 14.003906 25.585938 C 13.664062 25.507812 13.679688 25.773438 13.375 25.582031 C 13.066406 25.394531 12.980469 25.765625 12.84375 25.515625 C 12.703125 25.269531 12.484375 25.339844 12.410156 25.449219 C 12.335938 25.558594 12.125 25.566406 11.957031 25.75 C 11.789062 25.9375 11.5625 25.617188 11.34375 25.960938 C 11.34375 25.960938 11.292969 25.824219 11.1875 25.925781 C 11.082031 26.023438 11.457031 25.578125 11.476562 25.378906 C 11.496094 25.175781 11.347656 25.207031 11.394531 25.117188 C 11.441406 25.027344 11.609375 25.050781 11.601562 24.753906 C 11.597656 24.460938 11.734375 24.4375 11.785156 24.261719 C 11.835938 24.089844 11.886719 23.824219 11.773438 23.417969 C 11.664062 23.011719 11.84375 23.035156 11.835938 22.695312 C 11.828125 22.351562 11.914062 22.066406 11.535156 21.722656 C 11.535156 21.722656 12.160156 20.570312 11.695312 19.660156 C 11.695312 19.660156 11.636719 19.570312 11.925781 19.632812 C 12.21875 19.695312 12.285156 19.808594 12.359375 19.738281 C 12.429688 19.671875 12.0625 19.632812 12.082031 19.480469 C 12.105469 19.332031 11.992188 19.222656 12.015625 19.101562 C 12.039062 18.976562 12.003906 18.957031 12.054688 18.933594 C 12.054688 18.933594 11.949219 18.933594 11.910156 19.191406 C 11.875 19.449219 11.851562 19.480469 11.742188 19.332031 C 11.628906 19.179688 11.449219 19.082031 11.320312 19.28125 C 11.1875 19.480469 11.160156 19.28125 11.027344 19.453125 C 10.898438 19.628906 10.746094 19.4375 10.675781 19.535156 C 10.609375 19.632812 10.550781 19.496094 10.453125 19.582031 C 10.359375 19.671875 10.304688 19.777344 10.390625 19.5 C 10.480469 19.222656 10.402344 19.027344 10.351562 18.847656 C 10.300781 18.671875 10.097656 18.609375 10.234375 18.515625 C 10.371094 18.421875 10.382812 18.53125 10.527344 18.441406 C 10.671875 18.351562 10.546875 18.53125 10.640625 18.667969 C 10.730469 18.800781 10.707031 18.574219 10.796875 18.722656 C 10.886719 18.871094 10.984375 18.90625 10.925781 18.746094 C 10.867188 18.585938 10.738281 18.503906 10.828125 18.5 C 10.917969 18.492188 10.945312 18.609375 11.078125 18.605469 C 11.210938 18.597656 11.011719 18.503906 11.050781 18.472656 C 11.085938 18.441406 11.226562 18.511719 11.25 18.429688 C 11.273438 18.351562 11.035156 18.296875 10.960938 18.335938 C 10.886719 18.371094 11.109375 18.132812 11.339844 18.113281 C 11.339844 18.113281 11.292969 18.1875 11.367188 18.242188 C 11.445312 18.292969 11.488281 18.203125 11.410156 18.074219 C 11.328125 17.945312 11.273438 17.910156 11.292969 17.832031 C 11.308594 17.753906 11.113281 17.785156 11.160156 17.546875 C 11.207031 17.308594 11.050781 17.457031 11.261719 17.171875 C 11.472656 16.890625 11.367188 17.070312 11.707031 16.867188 C 12.042969 16.664062 12.023438 16.582031 11.992188 16.570312 C 11.960938 16.558594 11.84375 16.746094 11.703125 16.808594 C 11.578125 16.867188 11.410156 16.90625 11.347656 16.980469 C 11.289062 17.050781 11.230469 17.132812 11.121094 17.261719 C 11 17.414062 11.070312 17.472656 10.949219 17.554688 C 10.832031 17.632812 10.730469 17.742188 10.753906 17.933594 C 10.777344 18.121094 10.742188 18.355469 10.246094 18.398438 C 9.75 18.445312 9.839844 18.441406 9.746094 18.371094 C 9.652344 18.304688 9.558594 18.472656 9.488281 18.378906 C 9.417969 18.289062 9.511719 18.246094 9.429688 18.125 C 9.347656 18.003906 9.378906 18.007812 9.441406 17.859375 C 9.503906 17.710938 9.699219 17.6875 9.625 16.980469 C 9.550781 16.273438 10.128906 16.292969 9.839844 15.5 C 9.839844 15.5 9.777344 15.46875 10.027344 15.339844 C 10.273438 15.210938 10.210938 15.125 10.246094 15.097656 C 10.277344 15.066406 10.308594 15.121094 10.308594 15.261719 C 10.308594 15.402344 10.566406 15.167969 10.375 15.09375 C 10.179688 15.015625 10.433594 14.917969 10.480469 14.8125 C 10.527344 14.703125 10.550781 14.800781 10.632812 14.746094 C 10.710938 14.6875 10.691406 14.554688 10.847656 14.339844 C 10.867188 14.3125 10.839844 14.34375 10.84375 14.203125 C 10.84375 14.058594 10.855469 14.109375 10.902344 14.015625 C 10.949219 13.917969 10.945312 13.730469 10.992188 13.660156 C 10.992188 13.660156 11.523438 12.441406 11.566406 11.90625 C 11.566406 11.90625 11.644531 12.09375 11.75 12 C 11.855469 11.910156 11.878906 11.933594 11.671875 11.796875 C 11.460938 11.65625 11.378906 11.878906 11.488281 11.480469 C 11.597656 11.082031 12.003906 10.136719 11.953125 9.6875 C 11.953125 9.6875 11.875 9.644531 12.039062 9.570312 C 12.203125 9.496094 12.199219 9.503906 12.101562 9.453125 C 12.003906 9.402344 11.914062 9.480469 12.011719 9.25 C 12.105469 9.019531 12.515625 7.910156 12.191406 7.308594 C 11.863281 6.710938 11.773438 6.226562 11.824219 5.917969 C 11.875 5.605469 11.816406 5.59375 11.773438 5.476562 C 11.734375 5.359375 11.796875 5.359375 11.757812 5.214844 C 11.71875 5.066406 11.679688 4.960938 11.730469 4.867188 C 11.78125 4.769531 11.652344 4.957031 11.59375 4.8125 C 11.535156 4.664062 11.539062 4.523438 11.53125 4.34375 " fill-opacity="1" fill-rule="nonzero"/></g></svg>