<svg xmlns="http://www.w3.org/2000/svg" xmlns:xlink="http://www.w3.org/1999/xlink" width="40" zoomAndPan="magnify" viewBox="0 0 30 30.000001" height="40" preserveAspectRatio="xMidYMid meet" version="1.0"><defs><clipPath id="674a91d349"><path d="M 7.988281 25 L 9 25 L 9 26.128906 L 7.988281 26.128906 Z M 7.988281 25 " clip-rule="nonzero"/></clipPath><clipPath id="8484e132a9"><path d="M 17 2.902344 L 21.777344 2.902344 L 21.777344 14 L 17 14 Z M 17 2.902344 " clip-rule="nonzero"/></clipPath></defs><path fill="#014d4e" d="M 12.070312 22.234375 C 12.046875 22.234375 12.023438 22.242188 12 22.253906 C 11.992188 22.253906 11.984375 22.257812 11.976562 22.261719 C 11.945312 22.269531 11.914062 22.277344 11.882812 22.292969 C 11.859375 22.304688 11.839844 22.328125 11.820312 22.34375 C 11.816406 22.355469 11.808594 22.363281 11.800781 22.367188 C 11.796875 22.371094 11.792969 22.371094 11.792969 22.375 C 11.792969 22.378906 11.792969 22.382812 11.792969 22.386719 C 11.789062 22.390625 11.789062 22.394531 11.785156 22.398438 C 11.78125 22.402344 11.78125 22.410156 11.78125 22.417969 C 11.785156 22.425781 11.789062 22.429688 11.792969 22.433594 C 11.8125 22.445312 11.835938 22.449219 11.855469 22.449219 C 11.855469 22.449219 11.859375 22.449219 11.863281 22.449219 C 11.902344 22.449219 11.9375 22.429688 11.964844 22.402344 C 11.972656 22.394531 11.980469 22.386719 11.992188 22.382812 C 12.003906 22.371094 12.015625 22.359375 12.03125 22.347656 C 12.039062 22.335938 12.050781 22.320312 12.058594 22.304688 C 12.066406 22.292969 12.074219 22.28125 12.082031 22.269531 C 12.089844 22.261719 12.089844 22.253906 12.085938 22.246094 C 12.089844 22.238281 12.078125 22.234375 12.070312 22.234375 Z M 12.070312 22.234375 " fill-opacity="1" fill-rule="nonzero"/><path fill="#014d4e" d="M 12.617188 15.390625 C 12.566406 15.394531 12.507812 15.402344 12.457031 15.410156 L 12.453125 15.410156 C 12.449219 15.414062 12.445312 15.414062 12.441406 15.417969 C 12.421875 15.421875 12.398438 15.425781 12.386719 15.441406 C 12.382812 15.449219 12.378906 15.457031 12.382812 15.460938 C 12.382812 15.46875 12.386719 15.472656 12.394531 15.476562 C 12.453125 15.5 12.519531 15.511719 12.597656 15.511719 C 12.605469 15.511719 12.617188 15.511719 12.628906 15.511719 C 12.664062 15.511719 12.707031 15.503906 12.738281 15.480469 C 12.746094 15.472656 12.746094 15.464844 12.746094 15.457031 C 12.738281 15.421875 12.710938 15.386719 12.617188 15.390625 Z M 12.617188 15.390625 " fill-opacity="1" fill-rule="nonzero"/><path fill="#014d4e" d="M 11.414062 21.445312 C 11.421875 21.476562 11.425781 21.507812 11.433594 21.539062 C 11.433594 21.539062 11.4375 21.539062 11.4375 21.542969 C 11.460938 21.585938 11.507812 21.609375 11.558594 21.613281 C 11.558594 21.613281 11.5625 21.613281 11.5625 21.613281 C 11.566406 21.613281 11.570312 21.613281 11.578125 21.609375 C 11.582031 21.605469 11.582031 21.597656 11.582031 21.59375 L 11.582031 21.585938 C 11.582031 21.5625 11.582031 21.535156 11.570312 21.511719 C 11.570312 21.511719 11.570312 21.507812 11.570312 21.507812 C 11.5625 21.492188 11.550781 21.480469 11.539062 21.472656 C 11.53125 21.464844 11.527344 21.457031 11.519531 21.449219 C 11.515625 21.441406 11.507812 21.433594 11.503906 21.425781 C 11.488281 21.402344 11.46875 21.375 11.433594 21.367188 C 11.429688 21.367188 11.421875 21.367188 11.414062 21.375 C 11.410156 21.378906 11.410156 21.386719 11.410156 21.390625 C 11.410156 21.40625 11.414062 21.425781 11.414062 21.445312 Z M 11.414062 21.445312 " fill-opacity="1" fill-rule="nonzero"/><path fill="#014d4e" d="M 12.171875 15.246094 C 12.152344 15.226562 12.136719 15.203125 12.117188 15.175781 C 12.089844 15.136719 12.058594 15.09375 12.015625 15.0625 C 12.007812 15.054688 12 15.058594 11.992188 15.066406 C 11.96875 15.082031 11.96875 15.109375 11.96875 15.125 C 11.957031 15.21875 12.007812 15.316406 12.101562 15.375 C 12.105469 15.375 12.109375 15.378906 12.113281 15.378906 C 12.121094 15.378906 12.125 15.375 12.128906 15.371094 C 12.132812 15.367188 12.140625 15.359375 12.144531 15.355469 C 12.167969 15.332031 12.207031 15.296875 12.175781 15.25 C 12.171875 15.25 12.171875 15.246094 12.171875 15.246094 Z M 12.171875 15.246094 " fill-opacity="1" fill-rule="nonzero"/><path fill="#014d4e" d="M 11.792969 21.472656 C 11.835938 21.453125 11.847656 21.414062 11.855469 21.378906 L 11.859375 21.367188 C 11.867188 21.355469 11.871094 21.347656 11.875 21.335938 C 11.886719 21.3125 11.898438 21.289062 11.90625 21.261719 C 11.90625 21.253906 11.902344 21.242188 11.890625 21.238281 C 11.863281 21.230469 11.839844 21.238281 11.816406 21.257812 C 11.785156 21.285156 11.726562 21.34375 11.730469 21.40625 C 11.730469 21.421875 11.742188 21.449219 11.773438 21.472656 C 11.777344 21.472656 11.78125 21.472656 11.785156 21.472656 C 11.789062 21.476562 11.792969 21.472656 11.792969 21.472656 Z M 11.792969 21.472656 " fill-opacity="1" fill-rule="nonzero"/><path fill="#014d4e" d="M 11.992188 20.445312 C 11.972656 20.441406 11.945312 20.441406 11.917969 20.472656 C 11.875 20.492188 11.855469 20.546875 11.871094 20.601562 C 11.871094 20.605469 11.871094 20.605469 11.875 20.609375 C 11.898438 20.632812 11.929688 20.648438 11.960938 20.652344 C 11.960938 20.652344 11.960938 20.652344 11.964844 20.652344 C 11.976562 20.652344 11.988281 20.648438 12 20.640625 C 12.023438 20.621094 12.054688 20.605469 12.085938 20.601562 C 12.09375 20.601562 12.097656 20.59375 12.101562 20.589844 C 12.105469 20.585938 12.105469 20.582031 12.101562 20.574219 C 12.089844 20.527344 12.046875 20.457031 11.992188 20.445312 Z M 11.992188 20.445312 " fill-opacity="1" fill-rule="nonzero"/><path fill="#014d4e" d="M 14.894531 19.066406 C 14.871094 19.054688 14.859375 19.03125 14.84375 19.007812 C 14.832031 18.988281 14.820312 18.96875 14.804688 18.953125 C 14.765625 18.910156 14.726562 18.855469 14.730469 18.796875 C 14.734375 18.761719 14.75 18.730469 14.769531 18.695312 C 14.785156 18.664062 14.800781 18.632812 14.808594 18.59375 C 14.816406 18.539062 14.816406 18.480469 14.816406 18.425781 C 14.816406 18.394531 14.8125 18.363281 14.816406 18.335938 C 14.816406 18.335938 14.816406 18.332031 14.816406 18.332031 C 14.804688 18.207031 14.785156 18.09375 14.761719 17.984375 C 14.761719 17.976562 14.75 17.96875 14.742188 17.96875 C 14.730469 17.96875 14.722656 17.976562 14.71875 17.984375 C 14.707031 18.070312 14.703125 18.15625 14.703125 18.238281 C 14.699219 18.289062 14.699219 18.339844 14.695312 18.386719 C 14.6875 18.441406 14.679688 18.480469 14.664062 18.488281 C 14.648438 18.496094 14.621094 18.488281 14.574219 18.472656 C 14.5625 18.464844 14.554688 18.472656 14.546875 18.480469 C 14.527344 18.507812 14.519531 18.539062 14.511719 18.570312 C 14.5 18.605469 14.488281 18.640625 14.457031 18.667969 C 14.425781 18.695312 14.378906 18.703125 14.332031 18.707031 L 14.328125 18.707031 C 14.328125 18.707031 14.324219 18.707031 14.324219 18.707031 C 14.320312 18.710938 14.3125 18.710938 14.304688 18.710938 C 14.289062 18.714844 14.273438 18.71875 14.261719 18.71875 C 14.164062 18.714844 14.03125 18.675781 13.964844 18.585938 C 13.925781 18.539062 13.917969 18.480469 13.933594 18.417969 C 13.9375 18.386719 13.957031 18.359375 13.992188 18.335938 C 13.992188 18.335938 13.996094 18.335938 13.996094 18.335938 C 14.015625 18.316406 14.035156 18.292969 14.050781 18.273438 C 14.0625 18.261719 14.070312 18.25 14.082031 18.238281 C 14.089844 18.230469 14.097656 18.222656 14.105469 18.21875 C 14.132812 18.195312 14.164062 18.167969 14.160156 18.121094 C 14.160156 18.113281 14.15625 18.109375 14.148438 18.105469 C 14.144531 18.101562 14.136719 18.101562 14.132812 18.105469 C 14.082031 18.121094 14.035156 18.148438 13.988281 18.191406 C 13.988281 18.191406 13.984375 18.195312 13.984375 18.195312 C 13.980469 18.199219 13.980469 18.203125 13.976562 18.207031 C 13.964844 18.222656 13.953125 18.234375 13.941406 18.238281 C 13.925781 18.238281 13.910156 18.238281 13.894531 18.234375 C 13.882812 18.230469 13.871094 18.230469 13.859375 18.226562 C 13.792969 18.222656 13.738281 18.238281 13.699219 18.277344 C 13.664062 18.324219 13.65625 18.394531 13.683594 18.445312 C 13.691406 18.460938 13.703125 18.476562 13.71875 18.492188 C 13.730469 18.507812 13.746094 18.523438 13.753906 18.542969 C 13.757812 18.550781 13.761719 18.5625 13.765625 18.574219 C 13.785156 18.621094 13.808594 18.675781 13.84375 18.71875 C 13.867188 18.761719 13.859375 18.808594 13.855469 18.832031 C 13.855469 18.84375 13.851562 18.855469 13.847656 18.867188 C 13.835938 18.898438 13.824219 18.929688 13.835938 18.96875 C 13.835938 18.96875 13.835938 18.972656 13.835938 18.972656 C 13.867188 19.046875 13.941406 19.074219 14.007812 19.097656 C 14.027344 19.105469 14.042969 19.109375 14.058594 19.117188 C 14.097656 19.128906 14.136719 19.128906 14.167969 19.128906 C 14.25 19.125 14.304688 19.113281 14.355469 19.085938 C 14.359375 19.082031 14.363281 19.078125 14.367188 19.074219 C 14.367188 19.066406 14.367188 19.0625 14.363281 19.054688 C 14.359375 19.046875 14.351562 19.03125 14.339844 19.023438 C 14.332031 19.011719 14.324219 19 14.320312 18.988281 C 14.304688 18.945312 14.324219 18.917969 14.347656 18.898438 C 14.390625 18.863281 14.460938 18.855469 14.507812 18.882812 C 14.558594 18.914062 14.609375 18.957031 14.640625 19 L 14.644531 19.011719 C 14.660156 19.046875 14.679688 19.082031 14.71875 19.105469 C 14.75 19.128906 14.78125 19.171875 14.804688 19.222656 C 14.8125 19.25 14.835938 19.269531 14.847656 19.28125 C 14.855469 19.285156 14.859375 19.285156 14.863281 19.285156 C 14.863281 19.285156 14.867188 19.285156 14.867188 19.285156 C 14.871094 19.28125 14.878906 19.277344 14.878906 19.273438 C 14.910156 19.195312 14.914062 19.128906 14.890625 19.078125 C 14.898438 19.074219 14.894531 19.070312 14.894531 19.066406 Z M 14.894531 19.066406 " fill-opacity="1" fill-rule="nonzero"/><path fill="#014d4e" d="M 14.234375 17.910156 C 14.238281 17.910156 14.238281 17.910156 14.238281 17.910156 C 14.242188 17.910156 14.242188 17.910156 14.246094 17.910156 C 14.300781 17.910156 14.324219 17.871094 14.347656 17.832031 L 14.351562 17.824219 C 14.390625 17.769531 14.429688 17.714844 14.484375 17.675781 C 14.488281 17.667969 14.492188 17.664062 14.492188 17.660156 C 14.492188 17.652344 14.488281 17.648438 14.484375 17.644531 C 14.480469 17.636719 14.480469 17.632812 14.476562 17.628906 C 14.476562 17.621094 14.46875 17.617188 14.460938 17.613281 C 14.410156 17.605469 14.375 17.632812 14.347656 17.660156 C 14.335938 17.667969 14.324219 17.679688 14.3125 17.6875 C 14.300781 17.695312 14.289062 17.703125 14.273438 17.710938 C 14.25 17.726562 14.222656 17.746094 14.199219 17.773438 C 14.1875 17.796875 14.179688 17.839844 14.191406 17.871094 C 14.203125 17.890625 14.21875 17.90625 14.234375 17.910156 Z M 14.234375 17.910156 " fill-opacity="1" fill-rule="nonzero"/><path fill="#014d4e" d="M 16.609375 15.695312 C 16.601562 15.695312 16.59375 15.691406 16.585938 15.683594 L 16.582031 15.679688 C 16.578125 15.679688 16.574219 15.675781 16.570312 15.675781 C 16.5625 15.675781 16.554688 15.675781 16.550781 15.675781 C 16.53125 15.675781 16.519531 15.675781 16.5 15.671875 C 16.386719 15.648438 16.320312 15.539062 16.304688 15.441406 C 16.304688 15.441406 16.304688 15.4375 16.304688 15.4375 C 16.300781 15.425781 16.300781 15.410156 16.296875 15.398438 C 16.285156 15.335938 16.269531 15.261719 16.207031 15.226562 C 16.203125 15.226562 16.199219 15.226562 16.195312 15.226562 C 16.152344 15.230469 16.105469 15.222656 16.046875 15.210938 C 16.042969 15.207031 16.035156 15.210938 16.03125 15.214844 C 16.023438 15.21875 16.019531 15.226562 16.023438 15.230469 C 16.035156 15.394531 15.941406 15.417969 15.824219 15.441406 C 15.753906 15.460938 15.683594 15.476562 15.625 15.527344 C 15.578125 15.566406 15.542969 15.609375 15.507812 15.664062 C 15.5 15.671875 15.496094 15.679688 15.492188 15.6875 C 15.453125 15.742188 15.414062 15.796875 15.40625 15.867188 C 15.394531 15.910156 15.390625 15.957031 15.382812 16 L 15.382812 16.011719 C 15.363281 16.136719 15.285156 16.234375 15.183594 16.273438 C 15.164062 16.28125 15.148438 16.28125 15.128906 16.285156 C 15.113281 16.285156 15.09375 16.289062 15.078125 16.292969 C 15.054688 16.296875 15.035156 16.316406 15.023438 16.332031 C 15.019531 16.335938 15.015625 16.339844 15.007812 16.34375 C 14.996094 16.359375 14.984375 16.371094 14.96875 16.386719 C 14.925781 16.425781 14.886719 16.46875 14.855469 16.519531 C 14.839844 16.546875 14.832031 16.578125 14.824219 16.609375 C 14.816406 16.636719 14.8125 16.660156 14.800781 16.683594 C 14.785156 16.714844 14.765625 16.734375 14.742188 16.742188 C 14.699219 16.757812 14.636719 16.738281 14.554688 16.691406 C 14.554688 16.691406 14.550781 16.691406 14.550781 16.691406 C 14.503906 16.667969 14.476562 16.621094 14.445312 16.574219 L 14.433594 16.558594 C 14.425781 16.542969 14.417969 16.53125 14.410156 16.515625 C 14.367188 16.445312 14.320312 16.371094 14.25 16.3125 C 14.21875 16.28125 14.183594 16.265625 14.148438 16.25 C 14.125 16.234375 14.101562 16.226562 14.078125 16.210938 C 14.066406 16.203125 14.054688 16.195312 14.042969 16.1875 C 14.011719 16.164062 13.980469 16.144531 13.945312 16.128906 C 13.933594 16.125 13.917969 16.125 13.90625 16.121094 C 13.84375 16.101562 13.773438 16.082031 13.710938 16.109375 C 13.703125 16.113281 13.699219 16.121094 13.695312 16.125 C 13.695312 16.132812 13.699219 16.140625 13.703125 16.144531 C 13.730469 16.171875 13.761719 16.191406 13.792969 16.210938 C 13.828125 16.230469 13.859375 16.253906 13.886719 16.28125 C 13.902344 16.292969 13.914062 16.308594 13.925781 16.324219 C 13.941406 16.347656 13.957031 16.371094 13.980469 16.386719 C 14.003906 16.402344 14.027344 16.40625 14.046875 16.410156 C 14.058594 16.410156 14.070312 16.414062 14.082031 16.417969 C 14.117188 16.429688 14.152344 16.449219 14.171875 16.480469 C 14.21875 16.554688 14.253906 16.636719 14.285156 16.714844 C 14.289062 16.734375 14.296875 16.753906 14.304688 16.773438 C 14.316406 16.800781 14.324219 16.828125 14.332031 16.855469 C 14.335938 16.859375 14.335938 16.863281 14.335938 16.867188 C 14.34375 16.886719 14.351562 16.90625 14.371094 16.921875 C 14.378906 16.925781 14.386719 16.929688 14.398438 16.933594 C 14.402344 16.933594 14.402344 16.933594 14.40625 16.933594 C 14.410156 16.933594 14.410156 16.9375 14.410156 16.9375 C 14.457031 16.949219 14.496094 16.929688 14.539062 16.910156 C 14.570312 16.894531 14.597656 16.882812 14.632812 16.886719 C 14.679688 16.886719 14.699219 16.941406 14.707031 16.957031 C 14.714844 16.992188 14.714844 17.023438 14.710938 17.058594 C 14.710938 17.097656 14.707031 17.136719 14.71875 17.175781 C 14.722656 17.179688 14.730469 17.1875 14.734375 17.1875 C 14.738281 17.1875 14.738281 17.1875 14.738281 17.1875 C 14.746094 17.1875 14.75 17.1875 14.753906 17.183594 C 14.816406 17.121094 14.839844 17.035156 14.855469 16.964844 C 14.855469 16.964844 14.855469 16.964844 14.855469 16.960938 C 14.855469 16.875 14.871094 16.804688 14.898438 16.746094 C 14.953125 16.652344 15.039062 16.59375 15.125 16.53125 L 15.15625 16.507812 C 15.1875 16.476562 15.242188 16.449219 15.332031 16.535156 C 15.335938 16.539062 15.339844 16.542969 15.347656 16.542969 C 15.351562 16.542969 15.359375 16.539062 15.363281 16.535156 C 15.371094 16.519531 15.382812 16.503906 15.394531 16.488281 C 15.417969 16.460938 15.445312 16.429688 15.464844 16.394531 C 15.464844 16.390625 15.46875 16.390625 15.46875 16.390625 L 15.46875 16.382812 C 15.480469 16.351562 15.488281 16.324219 15.507812 16.300781 C 15.519531 16.285156 15.535156 16.273438 15.554688 16.261719 C 15.5625 16.257812 15.574219 16.25 15.585938 16.238281 C 15.621094 16.207031 15.636719 16.171875 15.640625 16.140625 C 15.640625 16.136719 15.640625 16.136719 15.640625 16.136719 C 15.640625 16.089844 15.621094 16.058594 15.605469 16.027344 C 15.582031 15.984375 15.5625 15.953125 15.585938 15.894531 C 15.660156 15.703125 15.921875 15.644531 16.074219 15.625 C 16.148438 15.621094 16.25 15.644531 16.289062 15.726562 C 16.289062 15.726562 16.292969 15.726562 16.292969 15.730469 C 16.300781 15.742188 16.304688 15.753906 16.316406 15.769531 C 16.320312 15.785156 16.328125 15.796875 16.335938 15.8125 C 16.351562 15.828125 16.363281 15.839844 16.378906 15.847656 C 16.390625 15.855469 16.398438 15.867188 16.40625 15.875 C 16.433594 15.902344 16.445312 15.9375 16.457031 15.972656 C 16.460938 15.988281 16.46875 16.003906 16.476562 16.015625 C 16.488281 16.042969 16.519531 16.074219 16.605469 16.046875 C 16.609375 16.042969 16.613281 16.042969 16.617188 16.035156 C 16.671875 15.933594 16.675781 15.8125 16.625 15.710938 C 16.621094 15.699219 16.617188 15.695312 16.609375 15.695312 Z M 16.609375 15.695312 " fill-opacity="1" fill-rule="nonzero"/><path fill="#014d4e" d="M 11.707031 22.621094 C 11.695312 22.617188 11.6875 22.617188 11.675781 22.613281 C 11.648438 22.605469 11.621094 22.59375 11.589844 22.609375 C 11.5625 22.621094 11.546875 22.644531 11.527344 22.660156 C 11.503906 22.683594 11.488281 22.707031 11.457031 22.707031 C 11.4375 22.710938 11.414062 22.707031 11.398438 22.695312 C 11.386719 22.683594 11.375 22.671875 11.371094 22.652344 C 11.367188 22.617188 11.394531 22.589844 11.421875 22.558594 C 11.433594 22.546875 11.441406 22.53125 11.453125 22.519531 C 11.457031 22.515625 11.457031 22.507812 11.457031 22.5 C 11.453125 22.492188 11.445312 22.488281 11.4375 22.488281 C 11.410156 22.484375 11.386719 22.488281 11.359375 22.488281 C 11.328125 22.492188 11.296875 22.496094 11.269531 22.484375 C 11.253906 22.480469 11.246094 22.464844 11.242188 22.453125 C 11.234375 22.425781 11.238281 22.390625 11.257812 22.363281 C 11.28125 22.328125 11.324219 22.3125 11.371094 22.296875 C 11.398438 22.289062 11.421875 22.277344 11.445312 22.265625 C 11.515625 22.234375 11.539062 22.164062 11.566406 22.101562 C 11.59375 22.046875 11.609375 21.992188 11.628906 21.941406 C 11.636719 21.910156 11.648438 21.882812 11.65625 21.855469 C 11.660156 21.847656 11.65625 21.835938 11.652344 21.832031 C 11.644531 21.824219 11.632812 21.824219 11.628906 21.828125 C 11.59375 21.847656 11.558594 21.855469 11.519531 21.863281 C 11.464844 21.878906 11.410156 21.890625 11.363281 21.925781 C 11.363281 21.925781 11.363281 21.929688 11.359375 21.929688 C 11.332031 21.96875 11.304688 21.992188 11.277344 22.019531 C 11.261719 22.035156 11.25 22.046875 11.234375 22.0625 C 11.230469 22.066406 11.230469 22.066406 11.230469 22.066406 C 11.199219 22.121094 11.179688 22.179688 11.167969 22.238281 C 11.148438 22.289062 11.117188 22.332031 11.085938 22.363281 C 11.0625 22.390625 11.03125 22.410156 11.003906 22.425781 C 10.984375 22.4375 10.964844 22.445312 10.945312 22.453125 C 10.933594 22.457031 10.925781 22.460938 10.914062 22.464844 C 10.890625 22.480469 10.871094 22.496094 10.851562 22.515625 C 10.847656 22.519531 10.839844 22.523438 10.835938 22.527344 C 10.800781 22.558594 10.773438 22.597656 10.746094 22.636719 C 10.722656 22.671875 10.695312 22.707031 10.664062 22.738281 C 10.664062 22.738281 10.660156 22.742188 10.660156 22.742188 C 10.636719 22.773438 10.605469 22.796875 10.570312 22.820312 C 10.539062 22.847656 10.503906 22.875 10.476562 22.910156 C 10.394531 23.003906 10.449219 23.101562 10.496094 23.191406 C 10.523438 23.242188 10.554688 23.292969 10.554688 23.34375 C 10.554688 23.34375 10.554688 23.347656 10.554688 23.347656 C 10.5625 23.386719 10.5625 23.433594 10.5625 23.476562 C 10.5625 23.539062 10.5625 23.601562 10.578125 23.664062 C 10.582031 23.671875 10.585938 23.679688 10.597656 23.679688 C 10.597656 23.679688 10.597656 23.679688 10.601562 23.679688 C 10.605469 23.679688 10.613281 23.675781 10.617188 23.667969 C 10.648438 23.621094 10.699219 23.59375 10.753906 23.597656 C 10.753906 23.597656 10.757812 23.597656 10.757812 23.597656 C 10.761719 23.597656 10.769531 23.597656 10.773438 23.59375 C 10.792969 23.59375 10.8125 23.59375 10.828125 23.578125 C 10.832031 23.578125 10.832031 23.578125 10.835938 23.574219 C 10.835938 23.574219 10.839844 23.566406 10.839844 23.5625 C 10.847656 23.558594 10.851562 23.539062 10.835938 23.519531 C 10.835938 23.515625 10.832031 23.511719 10.828125 23.507812 C 10.820312 23.496094 10.808594 23.484375 10.804688 23.472656 C 10.796875 23.453125 10.785156 23.429688 10.785156 23.40625 C 10.789062 23.355469 10.839844 23.328125 10.890625 23.304688 C 10.902344 23.296875 10.914062 23.292969 10.921875 23.285156 C 10.96875 23.253906 11.023438 23.25 11.082031 23.246094 L 11.089844 23.246094 C 11.210938 23.234375 11.289062 23.136719 11.355469 23.058594 C 11.371094 23.03125 11.394531 23.003906 11.421875 22.976562 C 11.433594 22.960938 11.449219 22.945312 11.464844 22.929688 C 11.476562 22.910156 11.488281 22.898438 11.5 22.878906 C 11.527344 22.839844 11.558594 22.800781 11.589844 22.769531 C 11.601562 22.761719 11.617188 22.753906 11.632812 22.746094 C 11.675781 22.726562 11.722656 22.703125 11.722656 22.640625 C 11.726562 22.628906 11.71875 22.621094 11.707031 22.621094 Z M 11.707031 22.621094 " fill-opacity="1" fill-rule="nonzero"/><path fill="#014d4e" d="M 14.394531 19.828125 C 14.332031 19.808594 14.265625 19.789062 14.222656 19.816406 C 14.195312 19.832031 14.179688 19.859375 14.175781 19.898438 C 14.175781 19.902344 14.175781 19.910156 14.179688 19.914062 C 14.191406 19.933594 14.210938 19.933594 14.222656 19.933594 C 14.226562 19.933594 14.226562 19.933594 14.230469 19.933594 C 14.257812 19.933594 14.292969 19.925781 14.324219 19.914062 C 14.335938 19.90625 14.347656 19.898438 14.359375 19.890625 C 14.371094 19.882812 14.386719 19.875 14.398438 19.867188 C 14.40625 19.863281 14.410156 19.855469 14.410156 19.847656 C 14.410156 19.835938 14.402344 19.828125 14.394531 19.828125 Z M 14.394531 19.828125 " fill-opacity="1" fill-rule="nonzero"/><path fill="#014d4e" d="M 13.46875 15.402344 C 13.449219 15.382812 13.421875 15.382812 13.394531 15.382812 L 13.390625 15.382812 C 13.386719 15.382812 13.382812 15.382812 13.382812 15.382812 C 13.367188 15.386719 13.359375 15.398438 13.355469 15.402344 C 13.34375 15.425781 13.351562 15.453125 13.359375 15.472656 C 13.363281 15.476562 13.363281 15.480469 13.363281 15.484375 C 13.363281 15.484375 13.363281 15.488281 13.363281 15.488281 C 13.390625 15.554688 13.402344 15.625 13.40625 15.679688 C 13.40625 15.679688 13.40625 15.683594 13.40625 15.683594 C 13.433594 15.753906 13.488281 15.804688 13.53125 15.847656 C 13.535156 15.851562 13.542969 15.851562 13.550781 15.851562 C 13.558594 15.851562 13.566406 15.847656 13.570312 15.84375 C 13.625 15.746094 13.519531 15.476562 13.476562 15.40625 C 13.472656 15.40625 13.472656 15.402344 13.46875 15.402344 Z M 13.46875 15.402344 " fill-opacity="1" fill-rule="nonzero"/><g clip-path="url(#674a91d349)"><path fill="#014d4e" d="M 8.625 25.359375 C 8.566406 25.300781 8.496094 25.238281 8.402344 25.214844 C 8.347656 25.203125 8.296875 25.21875 8.25 25.234375 C 8.222656 25.242188 8.195312 25.25 8.164062 25.253906 L 8.160156 25.253906 C 8.136719 25.253906 8.117188 25.257812 8.097656 25.257812 L 8.089844 25.257812 C 8.0625 25.257812 8.027344 25.253906 8 25.285156 C 8 25.289062 7.996094 25.289062 7.996094 25.292969 C 7.988281 25.359375 8.019531 25.417969 8.046875 25.476562 C 8.070312 25.519531 8.089844 25.5625 8.09375 25.609375 C 8.109375 25.695312 8.105469 25.789062 8.078125 25.878906 C 8.074219 25.894531 8.070312 25.914062 8.070312 25.933594 C 8.066406 25.949219 8.066406 25.964844 8.0625 25.980469 C 8.058594 26.011719 8.039062 26.03125 8.023438 26.058594 C 8.015625 26.066406 8.007812 26.078125 8 26.085938 C 7.996094 26.089844 7.996094 26.09375 8 26.101562 C 8 26.109375 8.003906 26.113281 8.007812 26.113281 C 8.03125 26.125 8.054688 26.125 8.078125 26.125 C 8.082031 26.125 8.082031 26.125 8.085938 26.125 L 8.09375 26.125 C 8.226562 26.121094 8.328125 26.042969 8.394531 25.976562 C 8.394531 25.976562 8.398438 25.976562 8.398438 25.976562 C 8.421875 25.9375 8.453125 25.90625 8.484375 25.878906 L 8.5 25.859375 C 8.519531 25.835938 8.542969 25.820312 8.566406 25.796875 C 8.582031 25.785156 8.597656 25.769531 8.613281 25.753906 C 8.660156 25.699219 8.6875 25.636719 8.707031 25.585938 C 8.730469 25.503906 8.699219 25.417969 8.625 25.359375 Z M 8.625 25.359375 " fill-opacity="1" fill-rule="nonzero"/></g><path fill="#014d4e" d="M 14.640625 15.75 C 14.679688 15.753906 14.714844 15.769531 14.753906 15.785156 C 14.773438 15.789062 14.789062 15.796875 14.808594 15.804688 C 14.808594 15.804688 14.8125 15.804688 14.8125 15.804688 C 14.8125 15.804688 14.816406 15.804688 14.816406 15.804688 C 14.855469 15.804688 14.871094 15.773438 14.886719 15.753906 L 14.886719 15.75 C 14.914062 15.71875 14.957031 15.707031 15 15.691406 C 15.007812 15.6875 15.015625 15.683594 15.023438 15.683594 C 15.03125 15.679688 15.035156 15.671875 15.035156 15.664062 C 15.039062 15.621094 15.019531 15.582031 15 15.546875 C 14.996094 15.535156 14.992188 15.527344 14.984375 15.519531 C 14.984375 15.515625 14.980469 15.511719 14.972656 15.507812 C 14.964844 15.503906 14.957031 15.503906 14.945312 15.507812 C 14.941406 15.507812 14.933594 15.511719 14.933594 15.515625 C 14.894531 15.566406 14.84375 15.601562 14.785156 15.617188 C 14.785156 15.617188 14.785156 15.617188 14.78125 15.621094 C 14.75 15.632812 14.714844 15.648438 14.675781 15.652344 C 14.675781 15.652344 14.671875 15.652344 14.671875 15.652344 C 14.652344 15.660156 14.636719 15.675781 14.625 15.695312 C 14.621094 15.699219 14.621094 15.703125 14.621094 15.703125 C 14.621094 15.710938 14.617188 15.722656 14.617188 15.734375 C 14.621094 15.742188 14.628906 15.75 14.640625 15.75 Z M 14.640625 15.75 " fill-opacity="1" fill-rule="nonzero"/><path fill="#014d4e" d="M 16.84375 13.707031 C 16.84375 13.707031 16.84375 13.703125 16.839844 13.703125 C 16.832031 13.679688 16.816406 13.664062 16.804688 13.648438 L 16.789062 13.660156 L 16.804688 13.648438 C 16.804688 13.644531 16.800781 13.644531 16.800781 13.644531 C 16.757812 13.617188 16.710938 13.617188 16.664062 13.617188 C 16.648438 13.617188 16.632812 13.617188 16.617188 13.617188 C 16.546875 13.613281 16.480469 13.59375 16.410156 13.578125 C 16.375 13.566406 16.335938 13.554688 16.300781 13.546875 C 16.230469 13.53125 16.152344 13.515625 16.085938 13.542969 C 16.050781 13.558594 16.03125 13.59375 16.019531 13.621094 C 16.019531 13.625 16.019531 13.625 16.019531 13.625 C 16.015625 13.652344 16.023438 13.675781 16.035156 13.695312 L 16.039062 13.699219 C 16.042969 13.707031 16.046875 13.710938 16.054688 13.710938 C 16.105469 13.710938 16.152344 13.707031 16.199219 13.703125 C 16.261719 13.699219 16.324219 13.691406 16.386719 13.691406 C 16.5 13.679688 16.636719 13.6875 16.671875 13.742188 C 16.6875 13.769531 16.683594 13.800781 16.65625 13.84375 C 16.65625 13.847656 16.65625 13.847656 16.65625 13.851562 C 16.648438 13.886719 16.671875 13.925781 16.707031 13.9375 C 16.707031 13.9375 16.707031 13.9375 16.710938 13.9375 C 16.722656 13.9375 16.738281 13.9375 16.75 13.9375 C 16.769531 13.9375 16.78125 13.9375 16.796875 13.941406 C 16.796875 13.941406 16.800781 13.941406 16.800781 13.941406 C 16.804688 13.941406 16.8125 13.9375 16.816406 13.933594 C 16.855469 13.875 16.847656 13.800781 16.839844 13.734375 C 16.84375 13.726562 16.84375 13.71875 16.84375 13.707031 Z M 16.84375 13.707031 " fill-opacity="1" fill-rule="nonzero"/><g clip-path="url(#8484e132a9)"><path fill="#014d4e" d="M 21.980469 5.15625 C 21.976562 5.144531 21.96875 5.128906 21.964844 5.117188 C 21.953125 5.0625 21.953125 5.011719 21.953125 4.960938 C 21.953125 4.914062 21.949219 4.867188 21.941406 4.816406 C 21.9375 4.785156 21.925781 4.761719 21.914062 4.738281 C 21.910156 4.726562 21.902344 4.714844 21.898438 4.703125 C 21.875 4.59375 21.882812 4.480469 21.890625 4.371094 C 21.890625 4.335938 21.894531 4.300781 21.894531 4.265625 C 21.894531 4.265625 21.894531 4.261719 21.894531 4.261719 C 21.894531 4.257812 21.894531 4.246094 21.894531 4.242188 C 21.890625 4.207031 21.886719 4.175781 21.875 4.140625 C 21.875 4.140625 21.871094 4.136719 21.871094 4.136719 L 21.867188 4.132812 C 21.84375 4.109375 21.820312 4.082031 21.8125 4.046875 C 21.808594 4.015625 21.816406 3.980469 21.828125 3.949219 C 21.828125 3.941406 21.832031 3.933594 21.832031 3.925781 C 21.839844 3.894531 21.851562 3.859375 21.875 3.828125 C 21.882812 3.820312 21.894531 3.808594 21.90625 3.800781 C 21.921875 3.789062 21.9375 3.777344 21.949219 3.757812 C 21.953125 3.753906 21.953125 3.746094 21.949219 3.738281 C 21.949219 3.734375 21.949219 3.722656 21.941406 3.714844 C 21.9375 3.714844 21.9375 3.714844 21.9375 3.710938 C 21.933594 3.707031 21.929688 3.703125 21.925781 3.699219 C 21.921875 3.695312 21.917969 3.691406 21.914062 3.691406 C 21.800781 3.65625 21.742188 3.582031 21.742188 3.464844 C 21.738281 3.445312 21.742188 3.425781 21.742188 3.40625 C 21.746094 3.363281 21.753906 3.316406 21.726562 3.273438 C 21.726562 3.273438 21.726562 3.273438 21.722656 3.273438 C 21.691406 3.230469 21.648438 3.203125 21.605469 3.175781 C 21.570312 3.152344 21.53125 3.125 21.503906 3.089844 C 21.484375 3.074219 21.472656 3.054688 21.457031 3.03125 C 21.441406 3.003906 21.421875 2.976562 21.398438 2.957031 C 21.394531 2.957031 21.394531 2.953125 21.394531 2.953125 C 21.332031 2.917969 21.257812 2.90625 21.1875 2.921875 C 21.1875 2.921875 21.1875 2.921875 21.183594 2.925781 C 21.144531 2.941406 21.113281 2.964844 21.078125 2.984375 C 21.066406 2.992188 21.054688 3 21.042969 3.003906 C 21.042969 3.003906 21.042969 3.007812 21.042969 3.007812 C 21.039062 3.007812 21.035156 3.011719 21.035156 3.015625 C 21.03125 3.015625 21.03125 3.019531 21.027344 3.019531 C 21.015625 3.039062 21 3.058594 20.988281 3.078125 C 20.988281 3.078125 20.984375 3.078125 20.984375 3.082031 C 20.964844 3.140625 20.945312 3.210938 20.964844 3.277344 C 20.984375 3.328125 21.03125 3.351562 21.070312 3.367188 C 21.09375 3.378906 21.113281 3.386719 21.132812 3.402344 C 21.15625 3.417969 21.179688 3.441406 21.199219 3.46875 C 21.226562 3.503906 21.246094 3.550781 21.265625 3.59375 C 21.28125 3.625 21.289062 3.664062 21.296875 3.703125 C 21.3125 3.773438 21.324219 3.84375 21.378906 3.894531 C 21.382812 3.898438 21.382812 3.898438 21.386719 3.898438 C 21.453125 3.921875 21.519531 3.949219 21.566406 4.003906 C 21.574219 4.011719 21.582031 4.019531 21.589844 4.027344 C 21.648438 4.082031 21.703125 4.140625 21.707031 4.210938 C 21.699219 4.246094 21.675781 4.277344 21.636719 4.300781 C 21.574219 4.347656 21.519531 4.390625 21.488281 4.464844 C 21.484375 4.472656 21.484375 4.480469 21.488281 4.488281 C 21.492188 4.492188 21.503906 4.496094 21.507812 4.496094 C 21.539062 4.492188 21.640625 4.488281 21.675781 4.578125 C 21.695312 4.628906 21.671875 4.683594 21.605469 4.75 C 21.601562 4.753906 21.597656 4.761719 21.601562 4.769531 C 21.601562 4.777344 21.605469 4.78125 21.613281 4.785156 C 21.679688 4.804688 21.734375 4.855469 21.757812 4.921875 L 21.761719 4.925781 C 21.777344 4.972656 21.796875 5.019531 21.777344 5.058594 C 21.761719 5.082031 21.742188 5.105469 21.722656 5.128906 C 21.707031 5.144531 21.691406 5.160156 21.679688 5.179688 C 21.652344 5.21875 21.632812 5.265625 21.609375 5.308594 C 21.597656 5.34375 21.578125 5.375 21.558594 5.410156 C 21.546875 5.4375 21.519531 5.460938 21.488281 5.484375 C 21.441406 5.527344 21.390625 5.570312 21.394531 5.644531 C 21.394531 5.664062 21.398438 5.683594 21.398438 5.703125 C 21.414062 5.824219 21.414062 5.914062 21.328125 5.929688 C 21.300781 5.933594 21.277344 5.921875 21.25 5.90625 C 21.234375 5.898438 21.21875 5.890625 21.199219 5.882812 C 21.191406 5.882812 21.183594 5.882812 21.175781 5.890625 C 21.152344 5.917969 21.144531 5.953125 21.136719 5.988281 C 21.128906 6.015625 21.125 6.039062 21.113281 6.058594 C 21.066406 6.15625 20.957031 6.207031 20.847656 6.246094 C 20.6875 6.304688 20.640625 6.269531 20.558594 6.210938 C 20.523438 6.183594 20.484375 6.15625 20.429688 6.132812 C 20.40625 6.117188 20.378906 6.109375 20.355469 6.101562 C 20.328125 6.089844 20.300781 6.082031 20.273438 6.070312 C 20.191406 6.003906 20.101562 6.039062 20.023438 6.082031 C 20.023438 6.082031 20.019531 6.082031 20.019531 6.085938 C 20.011719 6.09375 20 6.109375 19.988281 6.121094 C 19.980469 6.132812 19.964844 6.148438 19.957031 6.160156 C 19.945312 6.171875 19.933594 6.179688 19.921875 6.191406 C 19.882812 6.21875 19.835938 6.257812 19.84375 6.320312 C 19.84375 6.320312 19.84375 6.324219 19.84375 6.324219 C 19.851562 6.34375 19.859375 6.367188 19.867188 6.390625 C 19.890625 6.449219 19.914062 6.5 19.886719 6.546875 C 19.859375 6.582031 19.808594 6.589844 19.761719 6.59375 C 19.757812 6.59375 19.746094 6.597656 19.742188 6.597656 C 19.738281 6.597656 19.734375 6.597656 19.734375 6.597656 C 19.722656 6.609375 19.710938 6.617188 19.703125 6.621094 C 19.691406 6.628906 19.679688 6.640625 19.667969 6.648438 C 19.597656 6.679688 19.511719 6.6875 19.433594 6.691406 C 19.382812 6.691406 19.332031 6.671875 19.28125 6.652344 C 19.234375 6.636719 19.1875 6.617188 19.136719 6.613281 C 19.085938 6.609375 19.039062 6.628906 19.011719 6.664062 C 19.007812 6.664062 19.007812 6.671875 19.007812 6.671875 C 19 6.707031 19.011719 6.738281 19.023438 6.761719 C 19.050781 6.816406 19.09375 6.863281 19.132812 6.902344 L 19.136719 6.90625 C 19.171875 6.945312 19.191406 6.996094 19.199219 7.066406 C 19.207031 7.117188 19.199219 7.164062 19.191406 7.21875 C 19.1875 7.246094 19.183594 7.273438 19.183594 7.300781 C 19.164062 7.445312 19.144531 7.609375 19.023438 7.699219 C 18.917969 7.765625 18.855469 7.734375 18.800781 7.703125 C 18.753906 7.679688 18.710938 7.65625 18.660156 7.691406 C 18.660156 7.691406 18.65625 7.691406 18.65625 7.691406 C 18.625 7.714844 18.617188 7.753906 18.609375 7.785156 C 18.605469 7.800781 18.601562 7.820312 18.59375 7.832031 C 18.59375 7.832031 18.59375 7.835938 18.59375 7.835938 C 18.585938 7.863281 18.566406 7.886719 18.550781 7.910156 C 18.53125 7.941406 18.507812 7.972656 18.5 8.011719 C 18.5 8.015625 18.5 8.015625 18.5 8.019531 C 18.5 8.042969 18.511719 8.0625 18.519531 8.085938 C 18.527344 8.105469 18.535156 8.121094 18.535156 8.140625 C 18.539062 8.160156 18.53125 8.1875 18.515625 8.210938 C 18.480469 8.277344 18.390625 8.320312 18.308594 8.308594 C 18.289062 8.300781 18.265625 8.292969 18.246094 8.28125 C 18.234375 8.277344 18.226562 8.273438 18.214844 8.265625 C 18.203125 8.257812 18.1875 8.25 18.175781 8.242188 C 18.175781 8.242188 18.171875 8.242188 18.171875 8.242188 C 18.121094 8.226562 18.070312 8.230469 18.035156 8.234375 C 18.027344 8.234375 18.027344 8.238281 18.023438 8.238281 C 17.964844 8.285156 17.984375 8.382812 17.996094 8.445312 C 17.996094 8.449219 17.996094 8.449219 17.996094 8.453125 C 18.046875 8.585938 18.046875 8.683594 17.988281 8.78125 C 17.988281 8.78125 17.988281 8.78125 17.988281 8.785156 C 17.960938 8.851562 18.027344 8.914062 18.074219 8.960938 C 18.082031 8.96875 18.089844 8.976562 18.097656 8.984375 C 18.175781 9.054688 18.289062 9.097656 18.441406 9.113281 C 18.492188 9.113281 18.546875 9.109375 18.597656 9.101562 C 18.621094 9.101562 18.644531 9.097656 18.671875 9.09375 C 18.703125 9.089844 18.734375 9.09375 18.757812 9.113281 C 18.796875 9.144531 18.820312 9.199219 18.820312 9.25 C 18.820312 9.289062 18.796875 9.316406 18.773438 9.34375 C 18.773438 9.34375 18.773438 9.34375 18.769531 9.347656 C 18.765625 9.355469 18.761719 9.363281 18.757812 9.375 C 18.75 9.386719 18.746094 9.402344 18.738281 9.414062 C 18.71875 9.441406 18.691406 9.457031 18.664062 9.472656 C 18.644531 9.488281 18.621094 9.503906 18.601562 9.523438 C 18.59375 9.527344 18.59375 9.539062 18.597656 9.546875 C 18.632812 9.632812 18.617188 9.652344 18.582031 9.6875 C 18.5625 9.710938 18.539062 9.734375 18.519531 9.777344 C 18.464844 9.878906 18.40625 9.929688 18.332031 9.933594 C 18.238281 9.9375 18.128906 9.898438 18.089844 9.808594 C 18.066406 9.722656 18.128906 9.648438 18.183594 9.574219 C 18.195312 9.558594 18.207031 9.546875 18.21875 9.527344 C 18.257812 9.476562 18.246094 9.40625 18.242188 9.359375 C 18.242188 9.355469 18.238281 9.351562 18.234375 9.347656 C 18.226562 9.34375 18.210938 9.328125 18.195312 9.335938 L 18.183594 9.34375 C 18.15625 9.351562 18.128906 9.363281 18.097656 9.363281 C 18.082031 9.367188 18.066406 9.363281 18.046875 9.363281 C 18.015625 9.355469 17.972656 9.351562 17.941406 9.386719 C 17.941406 9.386719 17.941406 9.386719 17.941406 9.390625 L 17.933594 9.402344 C 17.910156 9.449219 17.890625 9.492188 17.839844 9.503906 C 17.785156 9.523438 17.722656 9.527344 17.660156 9.53125 C 17.636719 9.535156 17.613281 9.535156 17.59375 9.539062 C 17.554688 9.542969 17.527344 9.578125 17.523438 9.628906 C 17.519531 9.675781 17.53125 9.71875 17.546875 9.761719 C 17.558594 9.773438 17.566406 9.789062 17.570312 9.800781 C 17.597656 9.84375 17.625 9.882812 17.628906 9.929688 C 17.628906 9.953125 17.628906 9.972656 17.625 9.992188 C 17.625 10.007812 17.625 10.019531 17.625 10.035156 C 17.625 10.035156 17.625 10.035156 17.625 10.039062 C 17.636719 10.109375 17.636719 10.148438 17.621094 10.171875 C 17.605469 10.191406 17.566406 10.207031 17.496094 10.21875 C 17.492188 10.21875 17.484375 10.222656 17.480469 10.226562 C 17.457031 10.269531 17.453125 10.3125 17.449219 10.355469 C 17.445312 10.410156 17.441406 10.453125 17.402344 10.488281 C 17.390625 10.5 17.382812 10.507812 17.375 10.519531 C 17.367188 10.527344 17.359375 10.535156 17.351562 10.546875 C 17.351562 10.550781 17.347656 10.550781 17.347656 10.550781 C 17.34375 10.5625 17.339844 10.574219 17.335938 10.585938 C 17.328125 10.59375 17.328125 10.601562 17.324219 10.609375 C 17.316406 10.632812 17.292969 10.652344 17.273438 10.660156 C 17.273438 10.660156 17.269531 10.660156 17.269531 10.664062 C 17.25 10.675781 17.226562 10.6875 17.210938 10.699219 C 17.191406 10.710938 17.167969 10.722656 17.152344 10.734375 C 17.148438 10.742188 17.144531 10.746094 17.144531 10.75 C 17.132812 10.808594 17.160156 10.847656 17.210938 10.855469 C 17.253906 10.867188 17.292969 10.863281 17.332031 10.859375 C 17.367188 10.855469 17.402344 10.851562 17.433594 10.859375 C 17.492188 10.871094 17.546875 10.925781 17.539062 10.992188 C 17.527344 11.039062 17.488281 11.066406 17.445312 11.09375 C 17.429688 11.105469 17.414062 11.117188 17.398438 11.128906 C 17.394531 11.132812 17.390625 11.136719 17.390625 11.144531 C 17.390625 11.148438 17.390625 11.15625 17.394531 11.160156 C 17.429688 11.195312 17.46875 11.207031 17.507812 11.21875 C 17.515625 11.222656 17.523438 11.222656 17.53125 11.226562 C 17.597656 11.253906 17.707031 11.3125 17.757812 11.433594 C 17.757812 11.433594 17.757812 11.433594 17.757812 11.4375 L 17.761719 11.445312 C 17.78125 11.476562 17.800781 11.507812 17.855469 11.507812 C 17.96875 11.5 18.085938 11.5 18.175781 11.574219 C 18.230469 11.617188 18.292969 11.71875 18.234375 11.796875 C 18.21875 11.8125 18.207031 11.832031 18.1875 11.851562 C 18.175781 11.867188 18.164062 11.878906 18.152344 11.898438 C 18.148438 11.902344 18.136719 11.921875 18.136719 11.941406 C 18.140625 11.988281 18.164062 12.027344 18.1875 12.0625 C 18.199219 12.082031 18.207031 12.097656 18.214844 12.113281 C 18.238281 12.160156 18.253906 12.195312 18.265625 12.230469 C 18.269531 12.246094 18.273438 12.261719 18.277344 12.273438 C 18.3125 12.363281 18.34375 12.453125 18.335938 12.546875 C 18.332031 12.574219 18.324219 12.605469 18.320312 12.632812 C 18.304688 12.703125 18.289062 12.777344 18.292969 12.847656 C 18.300781 12.933594 18.308594 13.023438 18.378906 13.09375 C 18.429688 13.152344 18.488281 13.199219 18.546875 13.234375 C 18.5625 13.242188 18.582031 13.25 18.597656 13.257812 C 18.617188 13.261719 18.632812 13.265625 18.648438 13.273438 C 18.675781 13.292969 18.695312 13.316406 18.71875 13.34375 C 18.726562 13.355469 18.738281 13.367188 18.746094 13.378906 C 18.832031 13.472656 18.894531 13.582031 18.921875 13.695312 C 18.929688 13.734375 18.933594 13.777344 18.933594 13.816406 C 18.933594 13.867188 18.9375 13.921875 18.949219 13.972656 C 18.953125 13.980469 18.960938 13.988281 18.96875 13.988281 C 18.972656 13.988281 18.976562 13.988281 18.980469 13.988281 C 18.988281 13.988281 18.996094 13.984375 19.007812 13.980469 C 19.050781 13.957031 19.097656 13.953125 19.148438 13.949219 C 19.183594 13.945312 19.222656 13.941406 19.261719 13.929688 C 19.261719 13.929688 19.265625 13.929688 19.269531 13.925781 C 19.300781 13.898438 19.289062 13.847656 19.285156 13.820312 L 19.285156 13.816406 C 19.285156 13.816406 19.28125 13.8125 19.28125 13.8125 C 19.261719 13.777344 19.230469 13.761719 19.195312 13.746094 C 19.171875 13.738281 19.152344 13.726562 19.136719 13.710938 C 19.058594 13.621094 18.953125 13.484375 18.941406 13.324219 C 18.945312 13.265625 19.003906 13.226562 19.050781 13.199219 C 19.054688 13.199219 19.058594 13.195312 19.066406 13.191406 C 19.085938 13.179688 19.101562 13.171875 19.121094 13.171875 C 19.152344 13.175781 19.175781 13.191406 19.203125 13.203125 C 19.226562 13.214844 19.25 13.226562 19.273438 13.234375 C 19.300781 13.238281 19.324219 13.238281 19.347656 13.242188 C 19.375 13.242188 19.398438 13.246094 19.425781 13.25 C 19.433594 13.25 19.4375 13.253906 19.441406 13.253906 C 19.464844 13.257812 19.488281 13.265625 19.511719 13.257812 C 19.515625 13.257812 19.515625 13.257812 19.515625 13.253906 C 19.554688 13.230469 19.59375 13.207031 19.625 13.179688 C 19.636719 13.167969 19.652344 13.15625 19.667969 13.144531 C 19.695312 13.128906 19.722656 13.105469 19.742188 13.074219 C 19.746094 13.066406 19.746094 13.054688 19.746094 13.042969 C 19.746094 13.039062 19.746094 13.039062 19.746094 13.039062 C 19.738281 13.011719 19.726562 12.988281 19.714844 12.960938 C 19.691406 12.917969 19.671875 12.878906 19.691406 12.835938 C 19.703125 12.800781 19.734375 12.78125 19.773438 12.753906 C 19.816406 12.71875 19.875 12.714844 19.929688 12.734375 C 19.933594 12.738281 19.9375 12.738281 19.941406 12.738281 C 20.023438 12.730469 20.070312 12.730469 20.097656 12.753906 C 20.121094 12.773438 20.132812 12.8125 20.136719 12.878906 C 20.136719 12.890625 20.140625 12.910156 20.144531 12.925781 C 20.144531 12.941406 20.148438 12.960938 20.148438 12.976562 C 20.148438 12.984375 20.15625 12.996094 20.167969 13 C 20.199219 13.003906 20.226562 13 20.253906 12.992188 C 20.28125 12.988281 20.308594 12.988281 20.335938 12.988281 C 20.363281 12.988281 20.390625 12.992188 20.417969 12.992188 C 20.476562 13 20.535156 13.003906 20.597656 12.984375 C 20.605469 12.980469 20.613281 12.972656 20.613281 12.960938 C 20.601562 12.851562 20.574219 12.816406 20.546875 12.78125 C 20.511719 12.734375 20.476562 12.695312 20.492188 12.457031 C 20.492188 12.457031 20.492188 12.453125 20.492188 12.453125 C 20.492188 12.402344 20.46875 12.355469 20.449219 12.308594 C 20.4375 12.28125 20.425781 12.25 20.417969 12.222656 C 20.402344 12.171875 20.429688 12.125 20.453125 12.078125 C 20.460938 12.058594 20.472656 12.039062 20.480469 12.023438 C 20.484375 12.011719 20.488281 12.003906 20.492188 11.996094 C 20.503906 11.960938 20.519531 11.925781 20.523438 11.890625 C 20.523438 11.890625 20.523438 11.886719 20.523438 11.886719 C 20.527344 11.839844 20.519531 11.789062 20.5 11.722656 C 20.488281 11.691406 20.476562 11.664062 20.464844 11.632812 C 20.4375 11.5625 20.410156 11.5 20.40625 11.433594 C 20.40625 11.355469 20.417969 11.167969 20.554688 11.105469 C 20.570312 11.097656 20.589844 11.089844 20.613281 11.082031 C 20.632812 11.078125 20.652344 11.070312 20.671875 11.0625 C 20.675781 11.0625 20.675781 11.0625 20.675781 11.0625 C 20.695312 11.042969 20.699219 11.015625 20.699219 10.996094 C 20.699219 10.988281 20.699219 10.980469 20.699219 10.972656 C 20.703125 10.945312 20.710938 10.921875 20.71875 10.902344 C 20.777344 10.777344 20.808594 10.769531 20.921875 10.746094 C 20.933594 10.746094 20.945312 10.742188 20.953125 10.742188 C 20.957031 10.742188 20.960938 10.738281 20.964844 10.734375 C 21.027344 10.6875 21.011719 10.597656 21.003906 10.53125 C 21 10.523438 21 10.519531 21 10.511719 C 21 10.511719 21 10.507812 21 10.507812 C 20.9375 10.277344 20.984375 10.078125 21.140625 9.941406 C 21.171875 9.914062 21.207031 9.894531 21.246094 9.871094 C 21.308594 9.835938 21.367188 9.800781 21.402344 9.734375 C 21.402344 9.734375 21.40625 9.734375 21.40625 9.730469 L 21.410156 9.710938 C 21.425781 9.652344 21.441406 9.601562 21.476562 9.554688 C 21.496094 9.53125 21.519531 9.515625 21.546875 9.496094 C 21.558594 9.488281 21.574219 9.480469 21.585938 9.46875 C 21.652344 9.410156 21.640625 9.3125 21.628906 9.234375 C 21.625 9.226562 21.625 9.21875 21.621094 9.207031 C 21.582031 8.964844 21.484375 8.839844 21.34375 8.675781 L 21.316406 8.640625 C 21.230469 8.5 21.195312 8.328125 21.222656 8.179688 C 21.234375 8.148438 21.230469 8.117188 21.226562 8.085938 C 21.222656 8.074219 21.222656 8.058594 21.222656 8.046875 C 21.222656 8.015625 21.234375 7.988281 21.253906 7.972656 C 21.269531 7.960938 21.285156 7.957031 21.304688 7.960938 C 21.308594 7.960938 21.308594 7.960938 21.308594 7.960938 C 21.382812 7.957031 21.445312 8 21.503906 8.039062 C 21.519531 8.050781 21.535156 8.054688 21.550781 8.050781 C 21.582031 8.046875 21.609375 8.015625 21.628906 7.988281 L 21.628906 7.984375 C 21.640625 7.964844 21.652344 7.949219 21.671875 7.941406 C 21.675781 7.9375 21.6875 7.9375 21.695312 7.933594 C 21.726562 7.929688 21.765625 7.917969 21.777344 7.875 C 21.8125 7.765625 21.789062 7.660156 21.765625 7.554688 C 21.757812 7.515625 21.746094 7.472656 21.742188 7.433594 C 21.726562 7.332031 21.742188 7.226562 21.761719 7.125 C 21.773438 7.070312 21.78125 7.011719 21.789062 6.953125 C 21.789062 6.949219 21.789062 6.949219 21.789062 6.949219 C 21.777344 6.84375 21.769531 6.691406 21.820312 6.550781 C 21.824219 6.53125 21.832031 6.515625 21.839844 6.496094 C 21.847656 6.480469 21.855469 6.464844 21.859375 6.449219 C 21.859375 6.445312 21.859375 6.441406 21.863281 6.441406 C 21.863281 6.421875 21.859375 6.394531 21.855469 6.375 C 21.855469 6.367188 21.855469 6.363281 21.855469 6.359375 C 21.855469 6.359375 21.855469 6.355469 21.855469 6.355469 C 21.816406 6.21875 21.839844 6.082031 21.867188 5.945312 C 21.871094 5.921875 21.875 5.898438 21.878906 5.875 C 21.890625 5.78125 21.910156 5.6875 21.945312 5.589844 C 21.945312 5.589844 21.945312 5.585938 21.945312 5.585938 C 21.949219 5.5625 21.953125 5.535156 21.957031 5.511719 C 21.972656 5.441406 21.984375 5.367188 21.984375 5.292969 C 22.003906 5.242188 21.992188 5.199219 21.980469 5.15625 Z M 21.980469 5.15625 " fill-opacity="1" fill-rule="nonzero"/></g><path fill="#014d4e" d="M 14.839844 16.03125 C 14.824219 16.027344 14.808594 16.027344 14.792969 16.023438 C 14.769531 16.019531 14.75 16.011719 14.730469 16 C 14.707031 15.992188 14.683594 15.976562 14.65625 15.972656 C 14.648438 15.972656 14.644531 15.976562 14.640625 15.980469 C 14.636719 15.984375 14.632812 15.992188 14.632812 15.996094 C 14.632812 16 14.632812 16.003906 14.636719 16.007812 C 14.640625 16.035156 14.660156 16.054688 14.675781 16.070312 C 14.6875 16.078125 14.695312 16.085938 14.703125 16.097656 C 14.710938 16.105469 14.714844 16.121094 14.726562 16.132812 C 14.734375 16.144531 14.738281 16.15625 14.75 16.167969 C 14.75 16.171875 14.757812 16.175781 14.761719 16.179688 C 14.773438 16.183594 14.785156 16.183594 14.796875 16.179688 C 14.808594 16.179688 14.8125 16.179688 14.820312 16.183594 C 14.824219 16.183594 14.828125 16.1875 14.832031 16.1875 C 14.835938 16.1875 14.839844 16.1875 14.839844 16.183594 C 14.875 16.167969 14.960938 16.132812 14.9375 16.066406 C 14.9375 16.0625 14.933594 16.058594 14.929688 16.054688 C 14.90625 16.035156 14.871094 16.03125 14.839844 16.03125 Z M 14.839844 16.03125 " fill-opacity="1" fill-rule="nonzero"/><path fill="#014d4e" d="M 17.820312 14.449219 C 17.792969 14.425781 17.765625 14.410156 17.746094 14.382812 C 17.683594 14.308594 17.632812 14.308594 17.578125 14.3125 C 17.550781 14.3125 17.527344 14.3125 17.496094 14.308594 C 17.453125 14.296875 17.421875 14.265625 17.386719 14.234375 C 17.378906 14.222656 17.367188 14.214844 17.355469 14.203125 C 17.339844 14.183594 17.324219 14.160156 17.308594 14.140625 C 17.292969 14.125 17.28125 14.105469 17.265625 14.089844 L 17.261719 14.085938 C 17.242188 14.0625 17.214844 14.035156 17.179688 14.035156 C 17.179688 14.035156 17.179688 14.035156 17.175781 14.035156 C 17.164062 14.035156 17.15625 14.042969 17.15625 14.054688 C 17.15625 14.058594 17.15625 14.0625 17.152344 14.0625 C 17.152344 14.066406 17.152344 14.074219 17.152344 14.078125 C 17.167969 14.113281 17.191406 14.132812 17.21875 14.15625 C 17.226562 14.164062 17.238281 14.171875 17.246094 14.179688 C 17.316406 14.246094 17.347656 14.328125 17.324219 14.40625 C 17.320312 14.417969 17.316406 14.429688 17.308594 14.441406 C 17.296875 14.472656 17.28125 14.507812 17.292969 14.546875 C 17.292969 14.554688 17.300781 14.558594 17.308594 14.5625 C 17.34375 14.566406 17.375 14.5625 17.40625 14.5625 C 17.4375 14.558594 17.464844 14.558594 17.488281 14.5625 C 17.519531 14.566406 17.539062 14.578125 17.546875 14.597656 C 17.5625 14.625 17.542969 14.671875 17.527344 14.710938 C 17.519531 14.71875 17.523438 14.726562 17.527344 14.734375 C 17.53125 14.738281 17.539062 14.738281 17.542969 14.738281 C 17.546875 14.738281 17.546875 14.738281 17.550781 14.738281 C 17.566406 14.734375 17.582031 14.730469 17.597656 14.726562 C 17.667969 14.703125 17.742188 14.6875 17.8125 14.65625 C 17.855469 14.640625 17.886719 14.628906 17.917969 14.605469 C 17.925781 14.601562 17.929688 14.59375 17.925781 14.585938 C 17.914062 14.519531 17.867188 14.480469 17.820312 14.449219 Z M 17.820312 14.449219 " fill-opacity="1" fill-rule="nonzero"/><path fill="#014d4e" d="M 16.726562 14.660156 C 16.714844 14.644531 16.707031 14.632812 16.699219 14.617188 C 16.6875 14.601562 16.683594 14.589844 16.675781 14.570312 C 16.667969 14.554688 16.65625 14.539062 16.648438 14.519531 C 16.648438 14.519531 16.648438 14.515625 16.644531 14.515625 C 16.617188 14.492188 16.585938 14.476562 16.554688 14.464844 C 16.496094 14.449219 16.445312 14.429688 16.390625 14.410156 C 16.371094 14.402344 16.359375 14.386719 16.339844 14.371094 C 16.332031 14.359375 16.320312 14.347656 16.308594 14.339844 C 16.308594 14.339844 16.304688 14.339844 16.304688 14.335938 C 16.289062 14.324219 16.269531 14.316406 16.257812 14.308594 C 16.226562 14.292969 16.199219 14.28125 16.171875 14.257812 C 16.105469 14.210938 16.042969 14.15625 15.984375 14.105469 C 15.964844 14.089844 15.945312 14.074219 15.925781 14.058594 C 15.921875 14.054688 15.914062 14.050781 15.90625 14.054688 C 15.902344 14.054688 15.894531 14.0625 15.890625 14.066406 C 15.878906 14.132812 15.917969 14.1875 15.953125 14.230469 L 15.960938 14.242188 C 15.960938 14.242188 15.960938 14.246094 15.960938 14.246094 C 15.980469 14.261719 15.996094 14.28125 16.011719 14.296875 C 16.03125 14.320312 16.050781 14.34375 16.074219 14.363281 C 16.097656 14.386719 16.125 14.40625 16.148438 14.421875 C 16.175781 14.445312 16.203125 14.464844 16.226562 14.488281 C 16.246094 14.511719 16.316406 14.601562 16.285156 14.667969 C 16.277344 14.683594 16.261719 14.691406 16.242188 14.699219 C 16.234375 14.703125 16.222656 14.707031 16.210938 14.714844 C 16.207031 14.71875 16.203125 14.726562 16.203125 14.730469 C 16.203125 14.761719 16.210938 14.792969 16.21875 14.820312 C 16.222656 14.832031 16.226562 14.847656 16.230469 14.859375 C 16.230469 14.867188 16.234375 14.878906 16.234375 14.886719 C 16.242188 14.925781 16.253906 14.964844 16.277344 14.996094 C 16.285156 15 16.289062 15.003906 16.292969 15.003906 C 16.292969 15.003906 16.292969 15.003906 16.296875 15.003906 C 16.300781 15.003906 16.304688 15 16.308594 14.996094 C 16.351562 14.960938 16.355469 14.914062 16.355469 14.867188 C 16.355469 14.851562 16.355469 14.835938 16.359375 14.820312 C 16.363281 14.8125 16.363281 14.804688 16.367188 14.796875 C 16.378906 14.757812 16.386719 14.734375 16.414062 14.730469 C 16.417969 14.730469 16.417969 14.726562 16.421875 14.726562 C 16.429688 14.71875 16.441406 14.71875 16.453125 14.722656 C 16.460938 14.726562 16.46875 14.734375 16.46875 14.746094 C 16.46875 14.75 16.46875 14.75 16.46875 14.75 C 16.480469 14.785156 16.5 14.816406 16.515625 14.835938 C 16.519531 14.847656 16.53125 14.863281 16.550781 14.867188 C 16.554688 14.867188 16.554688 14.867188 16.554688 14.867188 C 16.609375 14.863281 16.671875 14.851562 16.71875 14.824219 C 16.722656 14.820312 16.722656 14.820312 16.726562 14.820312 C 16.746094 14.796875 16.765625 14.773438 16.773438 14.742188 C 16.777344 14.738281 16.777344 14.734375 16.773438 14.730469 C 16.761719 14.707031 16.742188 14.683594 16.726562 14.660156 Z M 16.726562 14.660156 " fill-opacity="1" fill-rule="nonzero"/><path fill="#014d4e" d="M 16.746094 13.152344 C 16.710938 13.148438 16.679688 13.144531 16.652344 13.136719 C 16.613281 13.125 16.574219 13.105469 16.535156 13.082031 C 16.46875 13.042969 16.398438 13.003906 16.316406 13.015625 C 16.308594 13.015625 16.304688 13.019531 16.300781 13.023438 C 16.296875 13.03125 16.296875 13.035156 16.296875 13.042969 C 16.308594 13.082031 16.34375 13.109375 16.375 13.132812 C 16.375 13.132812 16.375 13.132812 16.378906 13.132812 L 16.390625 13.136719 C 16.433594 13.15625 16.480469 13.171875 16.496094 13.214844 C 16.507812 13.234375 16.507812 13.253906 16.511719 13.273438 C 16.511719 13.292969 16.515625 13.308594 16.519531 13.328125 C 16.519531 13.328125 16.523438 13.328125 16.523438 13.332031 C 16.546875 13.367188 16.585938 13.394531 16.617188 13.402344 C 16.621094 13.402344 16.621094 13.402344 16.621094 13.402344 C 16.625 13.402344 16.625 13.402344 16.628906 13.402344 C 16.679688 13.386719 16.722656 13.359375 16.765625 13.332031 C 16.816406 13.296875 16.871094 13.261719 16.933594 13.257812 C 16.941406 13.257812 16.949219 13.253906 16.953125 13.242188 C 16.953125 13.234375 16.953125 13.226562 16.945312 13.222656 C 16.886719 13.175781 16.8125 13.164062 16.746094 13.152344 Z M 16.746094 13.152344 " fill-opacity="1" fill-rule="nonzero"/><path fill="#014d4e" d="M 20.484375 13.214844 C 20.480469 13.207031 20.46875 13.203125 20.460938 13.203125 C 20.457031 13.207031 20.445312 13.207031 20.4375 13.207031 C 20.433594 13.207031 20.429688 13.207031 20.425781 13.207031 C 20.425781 13.207031 20.425781 13.207031 20.421875 13.207031 C 20.417969 13.207031 20.410156 13.210938 20.402344 13.210938 C 20.390625 13.214844 20.378906 13.21875 20.363281 13.21875 C 20.355469 13.21875 20.34375 13.214844 20.335938 13.214844 C 20.332031 13.210938 20.328125 13.210938 20.320312 13.210938 C 20.316406 13.210938 20.316406 13.210938 20.316406 13.210938 C 20.300781 13.210938 20.285156 13.214844 20.273438 13.214844 C 20.261719 13.21875 20.253906 13.222656 20.242188 13.222656 C 20.234375 13.222656 20.230469 13.230469 20.226562 13.238281 C 20.214844 13.269531 20.214844 13.320312 20.238281 13.355469 C 20.253906 13.375 20.273438 13.386719 20.300781 13.386719 C 20.304688 13.386719 20.308594 13.386719 20.3125 13.382812 C 20.332031 13.371094 20.34375 13.359375 20.359375 13.347656 C 20.371094 13.335938 20.386719 13.328125 20.398438 13.320312 C 20.40625 13.3125 20.414062 13.308594 20.425781 13.304688 C 20.449219 13.292969 20.476562 13.277344 20.496094 13.253906 C 20.5 13.242188 20.5 13.234375 20.492188 13.226562 C 20.488281 13.226562 20.488281 13.222656 20.484375 13.214844 Z M 20.484375 13.214844 " fill-opacity="1" fill-rule="nonzero"/><path fill="#014d4e" d="M 19.945312 13.285156 C 19.941406 13.277344 19.933594 13.277344 19.925781 13.277344 C 19.921875 13.277344 19.917969 13.277344 19.914062 13.277344 C 19.90625 13.277344 19.898438 13.277344 19.894531 13.28125 C 19.890625 13.285156 19.886719 13.289062 19.886719 13.296875 C 19.882812 13.320312 19.878906 13.347656 19.882812 13.375 C 19.882812 13.378906 19.882812 13.378906 19.886719 13.382812 C 19.894531 13.402344 19.910156 13.421875 19.921875 13.4375 L 19.925781 13.445312 C 19.929688 13.449219 19.929688 13.453125 19.933594 13.457031 L 19.9375 13.460938 C 19.941406 13.464844 19.949219 13.46875 19.953125 13.46875 C 19.957031 13.46875 19.960938 13.46875 19.964844 13.464844 C 19.972656 13.460938 19.992188 13.449219 19.996094 13.425781 C 19.996094 13.417969 19.996094 13.414062 19.996094 13.40625 C 20 13.355469 19.976562 13.320312 19.945312 13.285156 Z M 19.945312 13.285156 " fill-opacity="1" fill-rule="nonzero"/><path fill="#014d4e" d="M 17.757812 14.089844 C 17.757812 14.089844 17.761719 14.09375 17.765625 14.09375 C 17.785156 14.101562 17.800781 14.113281 17.828125 14.113281 C 17.828125 14.113281 17.832031 14.113281 17.835938 14.113281 C 17.847656 14.113281 17.855469 14.101562 17.855469 14.09375 C 17.859375 14.0625 17.859375 14.03125 17.855469 14 C 17.855469 13.996094 17.855469 13.992188 17.851562 13.988281 C 17.796875 13.933594 17.710938 13.925781 17.621094 13.964844 C 17.613281 13.96875 17.609375 13.976562 17.609375 13.984375 C 17.609375 13.992188 17.613281 14 17.625 14.003906 C 17.675781 14.019531 17.722656 14.046875 17.757812 14.089844 Z M 17.757812 14.089844 " fill-opacity="1" fill-rule="nonzero"/><path fill="#014d4e" d="M 18.3125 13.742188 L 18.308594 13.734375 C 18.304688 13.726562 18.300781 13.71875 18.296875 13.714844 C 18.273438 13.6875 18.253906 13.660156 18.246094 13.628906 C 18.246094 13.628906 18.246094 13.625 18.246094 13.625 C 18.234375 13.601562 18.230469 13.574219 18.226562 13.546875 C 18.21875 13.515625 18.210938 13.480469 18.199219 13.449219 C 18.152344 13.351562 18.039062 13.273438 17.925781 13.3125 C 17.910156 13.320312 17.890625 13.328125 17.871094 13.335938 C 17.859375 13.34375 17.847656 13.351562 17.832031 13.355469 C 17.800781 13.367188 17.769531 13.371094 17.738281 13.378906 C 17.707031 13.386719 17.675781 13.390625 17.644531 13.402344 C 17.613281 13.414062 17.589844 13.425781 17.5625 13.4375 C 17.527344 13.457031 17.5 13.472656 17.464844 13.480469 C 17.4375 13.484375 17.410156 13.488281 17.382812 13.488281 C 17.378906 13.488281 17.378906 13.488281 17.378906 13.488281 C 17.351562 13.492188 17.316406 13.476562 17.285156 13.460938 C 17.242188 13.445312 17.199219 13.425781 17.167969 13.445312 C 17.148438 13.457031 17.136719 13.484375 17.132812 13.527344 C 17.132812 13.53125 17.136719 13.535156 17.136719 13.539062 C 17.15625 13.5625 17.175781 13.585938 17.195312 13.609375 C 17.230469 13.648438 17.265625 13.6875 17.285156 13.738281 C 17.292969 13.761719 17.308594 13.785156 17.339844 13.796875 C 17.339844 13.796875 17.339844 13.796875 17.34375 13.796875 C 17.34375 13.796875 17.347656 13.796875 17.351562 13.800781 C 17.367188 13.804688 17.386719 13.808594 17.40625 13.796875 C 17.410156 13.789062 17.417969 13.78125 17.414062 13.765625 C 17.414062 13.75 17.414062 13.734375 17.410156 13.71875 C 17.40625 13.675781 17.402344 13.648438 17.429688 13.628906 C 17.453125 13.609375 17.492188 13.605469 17.542969 13.617188 C 17.570312 13.625 17.597656 13.644531 17.621094 13.664062 C 17.628906 13.671875 17.632812 13.675781 17.640625 13.679688 C 17.644531 13.683594 17.652344 13.683594 17.65625 13.683594 C 17.664062 13.683594 17.667969 13.6875 17.675781 13.6875 C 17.675781 13.6875 17.675781 13.691406 17.679688 13.691406 C 17.683594 13.695312 17.691406 13.699219 17.699219 13.695312 C 17.714844 13.691406 17.730469 13.6875 17.75 13.679688 C 17.769531 13.675781 17.789062 13.667969 17.808594 13.667969 C 17.847656 13.671875 17.878906 13.671875 17.90625 13.671875 C 17.925781 13.671875 17.945312 13.671875 17.972656 13.671875 C 17.996094 13.675781 18.023438 13.6875 18.046875 13.699219 L 18.0625 13.707031 C 18.066406 13.707031 18.066406 13.707031 18.066406 13.707031 C 18.144531 13.726562 18.210938 13.773438 18.246094 13.835938 C 18.277344 13.894531 18.289062 13.988281 18.253906 14.039062 C 18.253906 14.042969 18.25 14.042969 18.25 14.042969 C 18.234375 14.085938 18.207031 14.097656 18.160156 14.089844 C 18.15625 14.089844 18.152344 14.089844 18.152344 14.089844 C 18.148438 14.089844 18.144531 14.089844 18.144531 14.089844 C 18.132812 14.085938 18.113281 14.085938 18.097656 14.101562 C 18.058594 14.144531 18.042969 14.210938 18.058594 14.28125 C 18.058594 14.28125 18.0625 14.285156 18.066406 14.289062 C 18.082031 14.308594 18.105469 14.3125 18.125 14.3125 C 18.132812 14.3125 18.136719 14.3125 18.140625 14.3125 C 18.144531 14.3125 18.148438 14.3125 18.15625 14.3125 C 18.15625 14.3125 18.160156 14.3125 18.160156 14.3125 C 18.167969 14.3125 18.175781 14.3125 18.183594 14.308594 C 18.203125 14.308594 18.226562 14.308594 18.246094 14.300781 C 18.25 14.300781 18.25 14.296875 18.25 14.296875 C 18.265625 14.289062 18.277344 14.277344 18.289062 14.265625 C 18.292969 14.261719 18.296875 14.257812 18.304688 14.25 C 18.3125 14.242188 18.320312 14.234375 18.332031 14.226562 C 18.351562 14.207031 18.371094 14.191406 18.386719 14.160156 C 18.414062 14.09375 18.441406 13.996094 18.40625 13.90625 C 18.382812 13.851562 18.347656 13.796875 18.3125 13.742188 Z M 18.3125 13.742188 " fill-opacity="1" fill-rule="nonzero"/><path fill="#014d4e" d="M 19.4375 13.542969 C 19.4375 13.542969 19.4375 13.539062 19.433594 13.539062 C 19.425781 13.535156 19.421875 13.53125 19.414062 13.527344 C 19.402344 13.519531 19.386719 13.511719 19.378906 13.5 C 19.371094 13.492188 19.355469 13.492188 19.347656 13.5 C 19.34375 13.503906 19.339844 13.515625 19.34375 13.519531 C 19.347656 13.542969 19.359375 13.554688 19.375 13.570312 C 19.378906 13.574219 19.382812 13.582031 19.382812 13.582031 C 19.386719 13.585938 19.386719 13.589844 19.390625 13.59375 C 19.394531 13.609375 19.40625 13.621094 19.417969 13.632812 C 19.421875 13.636719 19.421875 13.636719 19.425781 13.636719 C 19.4375 13.640625 19.445312 13.644531 19.449219 13.648438 C 19.453125 13.652344 19.457031 13.65625 19.460938 13.65625 C 19.464844 13.65625 19.464844 13.65625 19.46875 13.65625 C 19.46875 13.660156 19.472656 13.660156 19.476562 13.660156 C 19.476562 13.660156 19.480469 13.660156 19.480469 13.660156 C 19.488281 13.660156 19.496094 13.652344 19.496094 13.648438 C 19.5 13.644531 19.5 13.636719 19.496094 13.628906 C 19.480469 13.59375 19.460938 13.566406 19.4375 13.542969 Z M 19.4375 13.542969 " fill-opacity="1" fill-rule="nonzero"/></svg>