<svg xmlns="http://www.w3.org/2000/svg" xmlns:xlink="http://www.w3.org/1999/xlink" width="40" zoomAndPan="magnify" viewBox="0 0 30 30.000001" height="40" preserveAspectRatio="xMidYMid meet" version="1.0"><defs><clipPath id="abe20cbefe"><path d="M 4.5625 3 L 25.609375 3 L 25.609375 26.128906 L 4.5625 26.128906 Z M 4.5625 3 " clip-rule="nonzero"/></clipPath></defs><g clip-path="url(#abe20cbefe)"><path fill="#014d4e" d="M 21.125 26.023438 C 21.515625 25.082031 21.390625 24.914062 22.484375 24.824219 C 23.234375 24.058594 23.816406 23.222656 23.867188 22.101562 C 23.867188 22.101562 23.703125 21.03125 23.867188 20.976562 C 24.828125 20.371094 25.304688 20.652344 24.714844 19.496094 C 25.425781 19.453125 24.828125 17.484375 24.910156 17.003906 C 23.175781 15.457031 24.5 17.023438 22.113281 16.828125 C 22 16.25 21.886719 15.0625 21.875 14.46875 C 21.765625 14.175781 21.503906 13.394531 21.738281 13.113281 C 20.953125 12.832031 21.890625 11.769531 20.6875 12.175781 C 19.914062 12.023438 19.789062 10.613281 19.230469 12.066406 C 18.242188 12.140625 16.949219 11.582031 15.96875 11.601562 C 15.96875 11.601562 16.0625 9.773438 16.0625 9.773438 C 16.660156 8.855469 16.28125 7.4375 15.660156 6.628906 C 15.738281 5.238281 15.699219 5.316406 14.488281 4.652344 C 12.398438 2.902344 9.128906 4.765625 6.773438 4.875 C 6.601562 5.582031 5.980469 6.78125 5.382812 7.214844 C 5.554688 8.273438 5.027344 10.550781 4.691406 11.5625 C 4.566406 12.253906 4.992188 12.253906 5.457031 12.550781 C 5.457031 12.550781 6.300781 14.125 6.300781 14.125 C 6.785156 14.523438 7.832031 15.378906 8.417969 15.585938 C 8.523438 16.421875 8.945312 16.25 9.589844 16.425781 C 10.042969 16.742188 10.515625 16.84375 11.050781 16.71875 C 11.050781 16.71875 13.683594 18.621094 13.683594 18.621094 C 13.976562 18.757812 14.886719 18.96875 14.867188 19.40625 C 15.203125 19.277344 15.402344 19.214844 15.660156 19.515625 C 16.367188 19.742188 16.570312 20.0625 16.863281 20.703125 C 16.625 21.214844 16.023438 21.679688 15.878906 22.238281 C 15.105469 22.46875 15.21875 23.304688 15.292969 23.921875 C 15.054688 24.179688 14.457031 24.867188 14.160156 25.054688 C 14.160156 25.054688 14.140625 25.695312 14.140625 25.695312 L 16.378906 25.503906 C 16.511719 26.007812 17.46875 25.855469 17.832031 25.886719 C 17.832031 25.886719 19.175781 26.023438 19.175781 26.023438 C 20.421875 25.269531 20.113281 26.128906 21.125 26.023438 " fill-opacity="1" fill-rule="nonzero"/></g></svg>