<svg xmlns="http://www.w3.org/2000/svg" xmlns:xlink="http://www.w3.org/1999/xlink" width="40" zoomAndPan="magnify" viewBox="0 0 30 30.000001" height="40" preserveAspectRatio="xMidYMid meet" version="1.0"><defs><clipPath id="16ebbee28f"><path d="M 3.386719 3.976562 L 26.613281 3.976562 L 26.613281 25.027344 L 3.386719 25.027344 Z M 3.386719 3.976562 " clip-rule="nonzero"/></clipPath></defs><g clip-path="url(#16ebbee28f)"><path fill="#014d4e" d="M 26.191406 16.835938 L 26.394531 16.851562 L 26.476562 16.835938 L 26.519531 16.773438 L 26.613281 16.726562 L 26.613281 16.707031 L 26.570312 16.601562 L 26.488281 16.566406 L 26.472656 16.03125 L 26.511719 15.933594 L 26.570312 15.84375 L 26.5625 15.828125 L 26.410156 15.828125 L 26.410156 15.625 L 26.351562 15.5625 L 26.265625 15.527344 L 26.265625 15.445312 L 26.3125 15.328125 L 26.3125 15.257812 L 26.296875 15.191406 L 26.242188 15.097656 L 26.160156 15.035156 L 26.046875 15.003906 L 25.949219 14.964844 L 25.800781 14.894531 L 25.574219 14.894531 L 25.503906 14.765625 L 25.476562 14.671875 L 25.425781 14.59375 L 25.367188 14.550781 L 25.292969 14.480469 L 25.171875 14.410156 L 25.070312 14.34375 L 24.535156 14.34375 L 24.492188 14.199219 L 24.40625 14.089844 L 24.355469 13.96875 L 24.296875 13.855469 L 24.1875 13.636719 L 23.976562 13.398438 L 23.859375 13.398438 L 23.828125 13.304688 L 23.757812 13.253906 L 23.726562 13.023438 L 23.550781 12.792969 L 23.476562 12.710938 L 23.386719 12.671875 L 23.28125 12.605469 L 22.941406 12.238281 L 22.90625 12.117188 L 22.824219 12.070312 L 22.789062 11.835938 L 22.738281 11.777344 L 22.652344 11.675781 L 22.59375 11.585938 L 22.617188 11.546875 L 22.648438 11.371094 L 22.648438 11.226562 L 22.632812 11.15625 L 22.535156 11.140625 L 22.414062 11.050781 L 22.414062 10.863281 L 22.359375 10.800781 L 22.296875 10.730469 L 22.234375 10.640625 L 22.207031 10.582031 L 22.113281 10.445312 L 22.015625 10.425781 L 21.898438 10.425781 L 21.851562 10.351562 L 21.789062 10.351562 L 21.6875 10.300781 L 21.6875 10.15625 L 21.652344 10.078125 L 21.558594 9.996094 L 21.558594 9.730469 L 21.464844 9.679688 L 21.453125 8.5 L 21.542969 8.445312 L 21.558594 8.371094 L 21.558594 8.316406 L 21.503906 8.273438 L 21.441406 8.21875 L 21.378906 8.179688 L 21.375 8.125 L 21.394531 7.902344 L 21.242188 7.808594 L 21.214844 7.492188 L 21.121094 7.367188 L 21.050781 7.230469 L 20.992188 7.171875 L 20.898438 7.039062 L 20.859375 6.921875 L 20.734375 6.824219 L 20.378906 6.59375 L 20.277344 6.492188 L 20.234375 6.34375 L 20.164062 6.234375 L 20.015625 6.03125 L 19.859375 6.015625 L 19.339844 5.691406 L 19.164062 5.707031 L 19.0625 5.699219 L 18.976562 5.636719 L 18.433594 5.605469 L 17.984375 5.304688 L 17.902344 5.308594 L 17.621094 5.085938 L 17.527344 5.078125 L 17.445312 5.015625 L 17.257812 4.992188 L 17.21875 5.097656 L 16.964844 5.089844 L 16.902344 5.027344 L 16.789062 4.949219 L 16.574219 4.769531 L 16.09375 4.777344 L 16.066406 4.929688 L 15.363281 4.933594 L 15.207031 4.867188 L 15.027344 4.785156 L 14.90625 4.742188 L 14.714844 4.632812 L 14.417969 4.550781 L 14.21875 4.46875 L 13.933594 4.476562 L 13.839844 4.554688 L 13.585938 4.566406 L 13.53125 4.644531 L 13.449219 4.648438 L 13.328125 4.617188 L 13.261719 4.582031 L 13.132812 4.582031 L 13.03125 4.609375 L 12.921875 4.601562 L 12.1875 3.980469 L 12.003906 3.980469 C 12.003906 3.980469 11.980469 4.128906 11.976562 4.152344 C 11.972656 4.175781 11.859375 4.152344 11.859375 4.152344 L 11.847656 4.242188 L 11.757812 4.269531 L 11.65625 4.289062 L 11.566406 4.28125 L 11.484375 4.238281 L 11.367188 4.179688 L 11.230469 4.148438 L 10.863281 4.148438 L 10.714844 4.308594 L 10.507812 4.308594 L 10.390625 4.421875 L 10.066406 4.421875 L 10.023438 4.539062 L 9.308594 5.085938 L 9.132812 5.121094 L 9.050781 5.230469 L 8.925781 5.382812 L 8.792969 5.4375 L 8.691406 5.542969 L 8.546875 5.582031 C 8.546875 5.582031 8.460938 5.667969 8.449219 5.691406 C 8.441406 5.71875 8.40625 5.871094 8.40625 5.871094 L 8.183594 6.085938 L 8.089844 6.101562 L 8.015625 6.1875 L 7.90625 6.1875 L 7.828125 6.265625 L 7.738281 6.273438 L 7.65625 6.34375 C 7.65625 6.34375 6.457031 6.34375 6.449219 6.34375 C 6.441406 6.34375 6.195312 6.167969 6.070312 6.082031 C 6.027344 6.050781 5.972656 6.054688 5.9375 6.085938 C 5.921875 6.097656 5.910156 6.109375 5.90625 6.113281 L 5.886719 6.238281 C 5.886719 6.25 5.894531 6.253906 5.894531 6.261719 C 5.898438 6.269531 5.894531 6.277344 5.894531 6.285156 C 5.894531 6.300781 5.894531 6.316406 5.894531 6.332031 C 5.894531 6.355469 5.894531 6.382812 5.894531 6.40625 L 5.894531 6.554688 C 5.894531 6.558594 5.894531 6.5625 5.894531 6.566406 C 5.890625 6.582031 5.886719 6.605469 5.875 6.617188 C 5.871094 6.621094 5.867188 6.625 5.863281 6.625 C 5.855469 6.632812 5.851562 6.640625 5.847656 6.644531 C 5.835938 6.652344 5.832031 6.664062 5.824219 6.671875 C 5.820312 6.6875 5.816406 6.699219 5.804688 6.714844 C 5.796875 6.726562 5.78125 6.746094 5.769531 6.761719 C 5.761719 6.765625 5.753906 6.777344 5.75 6.785156 C 5.738281 6.800781 5.726562 6.808594 5.71875 6.824219 C 5.710938 6.839844 5.703125 6.855469 5.699219 6.875 C 5.695312 6.886719 5.699219 6.898438 5.699219 6.910156 C 5.699219 6.933594 5.695312 6.953125 5.699219 6.976562 C 5.699219 6.988281 5.703125 6.996094 5.703125 7.007812 C 5.707031 7.023438 5.714844 7.035156 5.71875 7.050781 C 5.71875 7.0625 5.714844 7.070312 5.722656 7.082031 C 5.726562 7.089844 5.734375 7.097656 5.734375 7.109375 C 5.734375 7.121094 5.734375 7.136719 5.734375 7.148438 C 5.734375 7.171875 5.734375 7.195312 5.734375 7.214844 C 5.734375 7.234375 5.734375 7.25 5.730469 7.265625 C 5.730469 7.277344 5.726562 7.28125 5.722656 7.289062 C 5.714844 7.296875 5.714844 7.308594 5.710938 7.316406 C 5.707031 7.328125 5.703125 7.339844 5.695312 7.351562 C 5.691406 7.363281 5.683594 7.375 5.683594 7.386719 C 5.679688 7.394531 5.671875 7.402344 5.664062 7.410156 C 5.65625 7.417969 5.644531 7.425781 5.640625 7.4375 C 5.640625 7.445312 5.640625 7.453125 5.640625 7.460938 C 5.640625 7.46875 5.640625 7.472656 5.640625 7.480469 C 5.640625 7.488281 5.640625 7.492188 5.632812 7.5 C 5.628906 7.507812 5.621094 7.515625 5.617188 7.523438 C 5.613281 7.53125 5.605469 7.539062 5.59375 7.542969 C 5.582031 7.550781 5.570312 7.546875 5.566406 7.5625 C 5.5625 7.570312 5.566406 7.582031 5.566406 7.59375 C 5.566406 7.605469 5.566406 7.617188 5.570312 7.632812 C 5.570312 7.644531 5.570312 7.640625 5.582031 7.648438 C 5.585938 7.648438 5.589844 7.65625 5.59375 7.65625 C 5.597656 7.65625 5.605469 7.65625 5.613281 7.65625 C 5.621094 7.660156 5.625 7.660156 5.636719 7.660156 C 5.640625 7.660156 5.644531 7.664062 5.648438 7.664062 C 5.65625 7.671875 5.664062 7.6875 5.664062 7.695312 C 5.667969 7.707031 5.667969 7.71875 5.675781 7.730469 C 5.675781 7.730469 5.679688 7.730469 5.679688 7.734375 C 5.683594 7.738281 5.683594 7.746094 5.6875 7.75 C 5.695312 7.761719 5.703125 7.777344 5.710938 7.785156 C 5.722656 7.796875 5.734375 7.808594 5.746094 7.820312 C 5.75 7.828125 5.75 7.832031 5.757812 7.839844 C 5.761719 7.84375 5.765625 7.84375 5.769531 7.847656 C 5.78125 7.855469 5.789062 7.867188 5.800781 7.875 C 5.804688 7.878906 5.8125 7.878906 5.816406 7.890625 C 5.824219 7.902344 5.824219 7.910156 5.828125 7.925781 C 5.832031 7.941406 5.839844 7.949219 5.835938 7.96875 C 5.835938 7.996094 5.835938 8.027344 5.835938 8.058594 C 5.835938 8.085938 5.835938 8.121094 5.835938 8.152344 C 5.835938 8.175781 5.839844 8.203125 5.835938 8.226562 C 5.835938 8.242188 5.832031 8.253906 5.832031 8.273438 C 5.832031 8.289062 5.828125 8.300781 5.828125 8.316406 C 5.824219 8.328125 5.828125 8.339844 5.828125 8.355469 C 5.828125 8.367188 5.824219 8.375 5.824219 8.386719 C 5.824219 8.414062 5.800781 8.417969 5.785156 8.433594 C 5.777344 8.4375 5.765625 8.4375 5.761719 8.449219 C 5.753906 8.457031 5.753906 8.460938 5.753906 8.472656 C 5.75 8.492188 5.75 8.511719 5.75 8.535156 C 5.75 8.546875 5.75 8.5625 5.75 8.574219 C 5.75 8.589844 5.753906 8.597656 5.753906 8.613281 C 5.757812 8.664062 5.753906 8.710938 5.753906 8.757812 C 5.753906 8.804688 5.753906 8.851562 5.753906 8.898438 C 5.753906 8.914062 5.753906 8.921875 5.75 8.933594 C 5.75 8.9375 5.742188 8.949219 5.742188 8.949219 C 5.738281 8.957031 5.746094 8.949219 5.734375 8.960938 C 5.726562 8.964844 5.71875 8.96875 5.707031 8.976562 C 5.699219 8.980469 5.683594 8.988281 5.683594 9 L 5.597656 9.0625 C 5.59375 9.070312 5.585938 9.074219 5.582031 9.078125 C 5.574219 9.082031 5.570312 9.09375 5.566406 9.101562 C 5.5625 9.109375 5.554688 9.117188 5.550781 9.125 C 5.546875 9.132812 5.546875 9.144531 5.539062 9.152344 C 5.535156 9.164062 5.53125 9.175781 5.527344 9.1875 C 5.523438 9.195312 5.519531 9.199219 5.515625 9.207031 C 5.511719 9.21875 5.511719 9.226562 5.507812 9.234375 C 5.507812 9.238281 5.503906 9.242188 5.503906 9.246094 C 5.5 9.25 5.5 9.253906 5.5 9.261719 C 5.5 9.269531 5.496094 9.273438 5.488281 9.28125 C 5.484375 9.289062 5.484375 9.292969 5.480469 9.300781 C 5.476562 9.308594 5.46875 9.3125 5.460938 9.316406 C 5.453125 9.320312 5.449219 9.324219 5.445312 9.328125 C 5.425781 9.339844 5.40625 9.355469 5.386719 9.367188 C 5.382812 9.371094 5.375 9.378906 5.367188 9.382812 C 5.363281 9.386719 5.359375 9.390625 5.351562 9.394531 C 5.335938 9.410156 5.316406 9.425781 5.304688 9.441406 C 5.292969 9.457031 5.285156 9.480469 5.277344 9.5 C 5.265625 9.523438 5.25 9.550781 5.230469 9.570312 C 5.222656 9.585938 5.210938 9.589844 5.195312 9.597656 C 5.1875 9.601562 5.179688 9.605469 5.171875 9.609375 C 5.164062 9.613281 5.15625 9.613281 5.148438 9.617188 C 5.128906 9.617188 5.109375 9.621094 5.09375 9.625 C 5.078125 9.625 5.070312 9.636719 5.058594 9.644531 C 5.035156 9.675781 5.011719 9.703125 4.992188 9.734375 C 4.972656 9.761719 4.941406 9.769531 4.917969 9.785156 C 4.910156 9.792969 4.90625 9.800781 4.898438 9.804688 C 4.898438 9.808594 4.894531 9.8125 4.894531 9.816406 C 4.882812 9.832031 4.871094 9.839844 4.855469 9.847656 C 4.847656 9.855469 4.839844 9.855469 4.828125 9.855469 C 4.816406 9.859375 4.804688 9.863281 4.789062 9.863281 C 4.78125 9.863281 4.777344 9.867188 4.769531 9.867188 C 4.757812 9.871094 4.75 9.867188 4.738281 9.867188 C 4.714844 9.867188 4.691406 9.867188 4.667969 9.875 C 4.664062 9.875 4.65625 9.878906 4.652344 9.882812 C 4.644531 9.886719 4.632812 9.894531 4.625 9.898438 C 4.609375 9.910156 4.589844 9.917969 4.574219 9.929688 C 4.5625 9.9375 4.550781 9.941406 4.542969 9.945312 C 4.527344 9.949219 4.519531 9.964844 4.511719 9.972656 C 4.507812 9.980469 4.503906 9.984375 4.503906 9.992188 C 4.5 10 4.492188 10.003906 4.484375 10.007812 C 4.476562 10.019531 4.460938 10.019531 4.449219 10.019531 C 4.441406 10.019531 4.433594 10.019531 4.429688 10.019531 C 4.421875 10.019531 4.417969 10.015625 4.410156 10.015625 C 4.398438 10.011719 4.382812 10.011719 4.371094 10.003906 C 4.359375 10 4.351562 9.988281 4.339844 9.984375 C 4.335938 9.976562 4.328125 9.972656 4.320312 9.964844 C 4.3125 9.960938 4.300781 9.957031 4.292969 9.953125 C 4.289062 9.953125 4.28125 9.953125 4.277344 9.949219 C 4.273438 9.949219 4.273438 9.945312 4.273438 9.945312 C 4.269531 9.941406 4.265625 9.941406 4.261719 9.941406 C 4.253906 9.9375 4.253906 9.925781 4.25 9.921875 C 4.242188 9.917969 4.242188 9.910156 4.238281 9.902344 C 4.230469 9.894531 4.214844 9.886719 4.203125 9.878906 C 4.199219 9.875 4.191406 9.875 4.183594 9.871094 C 4.179688 9.871094 4.175781 9.867188 4.167969 9.867188 C 4.15625 9.863281 4.144531 9.859375 4.132812 9.859375 C 4.121094 9.855469 4.113281 9.855469 4.101562 9.855469 C 4.097656 9.855469 4.085938 9.855469 4.078125 9.855469 C 4.070312 9.859375 4.066406 9.871094 4.0625 9.875 C 4.058594 9.882812 4.050781 9.890625 4.042969 9.902344 C 4.039062 9.910156 4.039062 9.914062 4.03125 9.917969 C 4.03125 9.917969 4.027344 9.921875 4.027344 9.921875 C 4.019531 9.925781 4.019531 9.925781 4.015625 9.925781 C 4 9.933594 3.984375 9.941406 3.976562 9.949219 C 3.972656 9.953125 3.96875 9.957031 3.96875 9.960938 C 3.964844 9.964844 3.964844 9.96875 3.960938 9.972656 C 3.960938 9.972656 3.957031 9.976562 3.953125 9.976562 C 3.945312 9.984375 3.9375 9.992188 3.929688 10 C 3.921875 10.007812 3.917969 10.011719 3.910156 10.019531 C 3.902344 10.023438 3.898438 10.027344 3.890625 10.03125 C 3.882812 10.035156 3.878906 10.039062 3.871094 10.042969 C 3.863281 10.046875 3.859375 10.050781 3.855469 10.050781 C 3.847656 10.054688 3.839844 10.054688 3.835938 10.058594 C 3.828125 10.066406 3.816406 10.074219 3.8125 10.082031 C 3.808594 10.09375 3.8125 10.109375 3.8125 10.121094 C 3.8125 10.136719 3.8125 10.152344 3.8125 10.167969 C 3.8125 10.175781 3.8125 10.1875 3.8125 10.195312 C 3.8125 10.203125 3.808594 10.207031 3.808594 10.214844 C 3.808594 10.226562 3.808594 10.242188 3.808594 10.253906 C 3.808594 10.261719 3.804688 10.265625 3.804688 10.269531 C 3.800781 10.277344 3.800781 10.28125 3.800781 10.285156 C 3.800781 10.292969 3.796875 10.300781 3.792969 10.308594 C 3.789062 10.3125 3.785156 10.320312 3.777344 10.328125 C 3.773438 10.335938 3.765625 10.335938 3.757812 10.339844 C 3.75 10.34375 3.75 10.347656 3.742188 10.347656 C 3.738281 10.347656 3.730469 10.351562 3.726562 10.351562 C 3.714844 10.351562 3.703125 10.351562 3.695312 10.351562 C 3.691406 10.355469 3.683594 10.355469 3.675781 10.359375 C 3.667969 10.359375 3.660156 10.363281 3.65625 10.367188 C 3.652344 10.378906 3.65625 10.394531 3.65625 10.402344 C 3.65625 10.410156 3.65625 10.417969 3.65625 10.425781 C 3.652344 10.429688 3.652344 10.4375 3.652344 10.445312 C 3.648438 10.449219 3.648438 10.449219 3.644531 10.453125 C 3.644531 10.453125 3.644531 10.457031 3.644531 10.460938 C 3.644531 10.464844 3.640625 10.472656 3.636719 10.472656 C 3.628906 10.480469 3.609375 10.496094 3.601562 10.496094 C 3.585938 10.496094 3.570312 10.496094 3.554688 10.5 C 3.546875 10.5 3.53125 10.503906 3.519531 10.507812 C 3.515625 10.511719 3.511719 10.515625 3.511719 10.515625 C 3.507812 10.519531 3.5 10.527344 3.496094 10.53125 C 3.492188 10.539062 3.492188 10.542969 3.488281 10.550781 C 3.488281 10.550781 3.484375 10.554688 3.484375 10.558594 C 3.480469 10.5625 3.476562 10.570312 3.472656 10.574219 C 3.46875 10.582031 3.464844 10.585938 3.460938 10.589844 C 3.460938 10.597656 3.460938 10.605469 3.457031 10.613281 C 3.453125 10.613281 3.449219 10.621094 3.445312 10.625 C 3.441406 10.628906 3.4375 10.632812 3.433594 10.636719 C 3.425781 10.648438 3.414062 10.664062 3.414062 10.679688 C 3.410156 10.691406 3.40625 10.703125 3.40625 10.71875 C 3.402344 10.726562 3.402344 10.730469 3.402344 10.738281 C 3.402344 10.746094 3.402344 10.753906 3.402344 10.757812 C 3.398438 10.769531 3.394531 10.777344 3.394531 10.789062 C 3.394531 10.796875 3.394531 10.796875 3.390625 10.804688 C 3.386719 10.816406 3.386719 10.835938 3.386719 10.847656 C 3.386719 10.859375 3.386719 10.867188 3.386719 10.875 C 3.386719 10.882812 3.390625 10.890625 3.390625 10.898438 C 3.390625 10.914062 3.390625 10.929688 3.398438 10.945312 C 3.402344 10.957031 3.402344 10.96875 3.410156 10.976562 C 3.414062 10.984375 3.414062 10.984375 3.417969 10.988281 C 3.425781 11 3.433594 11.011719 3.441406 11.019531 C 3.449219 11.027344 3.464844 11.027344 3.472656 11.03125 C 3.484375 11.042969 3.476562 11.050781 3.480469 11.0625 C 3.484375 11.074219 3.496094 11.078125 3.507812 11.082031 C 3.507812 11.082031 3.511719 11.082031 3.515625 11.082031 C 3.519531 11.082031 3.519531 11.085938 3.523438 11.085938 C 3.527344 11.089844 3.53125 11.089844 3.539062 11.09375 C 3.550781 11.09375 3.558594 11.089844 3.570312 11.09375 C 3.570312 11.09375 3.574219 11.097656 3.574219 11.097656 C 3.578125 11.097656 3.582031 11.097656 3.585938 11.097656 C 3.59375 11.097656 3.601562 11.101562 3.605469 11.105469 C 3.613281 11.109375 3.621094 11.113281 3.625 11.121094 C 3.625 11.121094 3.625 11.128906 3.628906 11.132812 C 3.632812 11.136719 3.644531 11.144531 3.644531 11.152344 L 3.660156 11.199219 C 3.660156 11.199219 3.65625 11.21875 3.652344 11.222656 C 3.652344 11.226562 3.628906 11.242188 3.625 11.246094 C 3.625 11.246094 3.589844 11.273438 3.589844 11.273438 C 3.578125 11.273438 3.578125 11.3125 3.574219 11.324219 C 3.570312 11.332031 3.566406 11.34375 3.5625 11.351562 C 3.554688 11.363281 3.558594 11.371094 3.554688 11.382812 C 3.554688 11.394531 3.542969 11.402344 3.535156 11.414062 C 3.53125 11.425781 3.523438 11.441406 3.511719 11.449219 C 3.496094 11.472656 3.460938 11.480469 3.453125 11.511719 C 3.445312 11.539062 3.453125 11.574219 3.453125 11.601562 C 3.453125 11.617188 3.457031 11.632812 3.460938 11.644531 C 3.460938 11.65625 3.460938 11.667969 3.460938 11.675781 C 3.460938 11.6875 3.457031 11.703125 3.460938 11.71875 C 3.460938 11.730469 3.464844 11.742188 3.46875 11.75 C 3.480469 11.785156 3.472656 11.820312 3.472656 11.851562 C 3.472656 11.878906 3.472656 11.90625 3.472656 11.933594 C 3.472656 11.964844 3.472656 11.996094 3.464844 12.03125 C 3.460938 12.046875 3.460938 12.066406 3.460938 12.082031 C 3.457031 12.097656 3.449219 12.117188 3.445312 12.132812 C 3.4375 12.1875 3.457031 12.242188 3.484375 12.289062 C 3.5 12.3125 3.511719 12.328125 3.53125 12.34375 C 3.550781 12.355469 3.566406 12.371094 3.578125 12.390625 C 3.589844 12.410156 3.601562 12.429688 3.613281 12.449219 C 3.628906 12.46875 3.65625 12.488281 3.667969 12.511719 C 3.679688 12.53125 3.691406 12.554688 3.707031 12.574219 C 3.722656 12.59375 3.738281 12.613281 3.75 12.636719 C 3.761719 12.660156 3.785156 12.675781 3.792969 12.699219 C 3.796875 12.710938 3.804688 12.71875 3.808594 12.730469 C 3.808594 12.742188 3.808594 12.757812 3.808594 12.769531 C 3.808594 12.78125 3.8125 12.800781 3.816406 12.8125 C 3.816406 12.820312 3.824219 12.828125 3.828125 12.835938 C 3.835938 12.851562 3.84375 12.867188 3.851562 12.878906 C 3.855469 12.882812 3.855469 12.882812 3.859375 12.886719 C 3.863281 12.886719 3.859375 12.894531 3.863281 12.894531 C 3.871094 12.902344 3.878906 12.90625 3.882812 12.917969 C 3.894531 12.929688 3.898438 12.941406 3.90625 12.953125 C 3.925781 12.976562 3.945312 12.980469 3.972656 12.980469 C 3.992188 12.980469 4.003906 12.976562 4.015625 12.984375 C 4.03125 12.992188 4.042969 13 4.050781 13.011719 C 4.058594 13.023438 4.058594 13.042969 4.070312 13.054688 C 4.078125 13.066406 4.085938 13.070312 4.097656 13.082031 C 4.105469 13.089844 4.117188 13.105469 4.128906 13.109375 C 4.140625 13.113281 4.160156 13.113281 4.171875 13.113281 C 4.183594 13.117188 4.195312 13.113281 4.207031 13.121094 C 4.230469 13.132812 4.253906 13.140625 4.277344 13.15625 C 4.289062 13.160156 4.304688 13.164062 4.316406 13.171875 C 4.320312 13.175781 4.320312 13.183594 4.320312 13.1875 C 4.324219 13.191406 4.328125 13.191406 4.332031 13.195312 C 4.34375 13.210938 4.347656 13.230469 4.359375 13.246094 C 4.367188 13.253906 4.382812 13.261719 4.390625 13.269531 C 4.40625 13.28125 4.414062 13.296875 4.421875 13.3125 C 4.429688 13.332031 4.429688 13.351562 4.441406 13.371094 C 4.457031 13.40625 4.484375 13.429688 4.523438 13.433594 C 4.550781 13.433594 4.578125 13.429688 4.605469 13.425781 C 4.617188 13.421875 4.652344 13.417969 4.660156 13.425781 C 4.667969 13.429688 4.675781 13.453125 4.675781 13.460938 C 4.683594 13.476562 4.679688 13.492188 4.679688 13.507812 C 4.679688 13.523438 4.683594 13.542969 4.679688 13.5625 C 4.679688 13.585938 4.664062 13.589844 4.644531 13.601562 C 4.621094 13.617188 4.617188 13.613281 4.617188 13.644531 C 4.617188 13.683594 4.609375 13.730469 4.632812 13.765625 C 4.644531 13.785156 4.664062 13.785156 4.679688 13.800781 C 4.683594 13.808594 4.691406 13.8125 4.695312 13.820312 C 4.703125 13.832031 4.699219 13.84375 4.703125 13.855469 C 4.707031 13.882812 4.710938 13.894531 4.730469 13.914062 C 4.753906 13.929688 4.773438 13.949219 4.796875 13.964844 C 4.816406 13.976562 4.832031 13.988281 4.84375 14.011719 C 4.847656 14.019531 4.847656 14.027344 4.851562 14.035156 C 4.851562 14.042969 4.859375 14.050781 4.863281 14.058594 C 4.875 14.082031 4.898438 14.113281 4.925781 14.121094 C 4.953125 14.128906 4.984375 14.117188 5.011719 14.125 C 5.039062 14.128906 5.0625 14.160156 5.082031 14.183594 C 5.109375 14.207031 5.132812 14.222656 5.160156 14.238281 C 5.183594 14.25 5.203125 14.273438 5.21875 14.292969 C 5.230469 14.316406 5.226562 14.339844 5.226562 14.363281 C 5.226562 14.371094 5.226562 14.382812 5.226562 14.390625 C 5.222656 14.402344 5.222656 14.40625 5.222656 14.417969 C 5.21875 14.441406 5.203125 14.457031 5.199219 14.484375 C 5.199219 14.535156 5.199219 14.585938 5.199219 14.636719 C 5.199219 14.660156 5.199219 14.6875 5.199219 14.710938 C 5.203125 14.730469 5.207031 14.75 5.207031 14.773438 C 5.207031 14.796875 5.210938 14.820312 5.214844 14.839844 C 5.21875 14.863281 5.222656 14.882812 5.226562 14.902344 C 5.238281 14.929688 5.226562 14.960938 5.234375 14.984375 C 5.242188 15.007812 5.25 15.03125 5.25 15.054688 C 5.253906 15.066406 5.25 15.082031 5.25 15.09375 C 5.25 15.105469 5.253906 15.113281 5.257812 15.125 C 5.265625 15.148438 5.261719 15.171875 5.269531 15.195312 C 5.277344 15.210938 5.285156 15.210938 5.300781 15.222656 C 5.3125 15.230469 5.316406 15.230469 5.328125 15.230469 C 5.351562 15.230469 5.375 15.238281 5.398438 15.242188 C 5.441406 15.253906 5.496094 15.25 5.542969 15.25 C 5.566406 15.25 5.59375 15.25 5.617188 15.25 C 5.625 15.25 5.644531 15.246094 5.65625 15.253906 C 5.660156 15.257812 5.664062 15.273438 5.664062 15.28125 C 5.667969 15.300781 5.679688 15.316406 5.683594 15.339844 C 5.683594 15.351562 5.683594 15.363281 5.683594 15.371094 C 5.6875 15.382812 5.691406 15.390625 5.695312 15.398438 C 5.707031 15.4375 5.726562 15.476562 5.765625 15.5 C 5.777344 15.507812 5.789062 15.515625 5.800781 15.523438 C 5.816406 15.535156 5.839844 15.546875 5.851562 15.5625 C 5.855469 15.566406 5.859375 15.574219 5.863281 15.582031 C 5.871094 15.589844 5.875 15.59375 5.878906 15.601562 C 5.890625 15.613281 5.894531 15.628906 5.898438 15.644531 C 5.90625 15.683594 5.894531 15.722656 5.894531 15.757812 L 5.800781 15.835938 C 5.789062 15.855469 5.796875 15.875 5.800781 15.898438 C 5.804688 15.914062 5.808594 15.929688 5.8125 15.945312 C 5.816406 15.957031 5.824219 15.96875 5.828125 15.980469 C 5.835938 15.996094 5.847656 16.015625 5.851562 16.035156 C 5.855469 16.050781 5.867188 16.066406 5.867188 16.082031 C 5.867188 16.097656 5.867188 16.109375 5.863281 16.121094 C 5.863281 16.125 5.859375 16.136719 5.859375 16.140625 C 5.855469 16.148438 5.851562 16.144531 5.847656 16.148438 C 5.839844 16.164062 5.839844 16.167969 5.839844 16.183594 C 5.839844 16.199219 5.839844 16.214844 5.839844 16.230469 C 5.839844 16.25 5.847656 16.261719 5.855469 16.277344 C 5.859375 16.292969 5.863281 16.3125 5.867188 16.332031 C 5.871094 16.359375 5.867188 16.390625 5.867188 16.421875 C 5.867188 16.4375 5.867188 16.449219 5.867188 16.46875 C 5.867188 16.476562 5.863281 16.480469 5.863281 16.488281 C 5.859375 16.511719 5.863281 16.535156 5.847656 16.550781 C 5.84375 16.558594 5.839844 16.5625 5.835938 16.570312 C 5.832031 16.582031 5.828125 16.597656 5.828125 16.609375 C 5.824219 16.628906 5.816406 16.644531 5.816406 16.664062 C 5.816406 16.699219 5.820312 16.734375 5.816406 16.765625 C 5.8125 16.785156 5.8125 16.800781 5.808594 16.820312 C 5.808594 16.832031 5.800781 16.84375 5.796875 16.855469 C 5.792969 16.871094 5.785156 16.886719 5.78125 16.902344 C 5.78125 16.917969 5.773438 16.914062 5.757812 16.925781 C 5.738281 16.941406 5.722656 16.960938 5.707031 16.980469 C 5.695312 16.988281 5.683594 17 5.671875 17.007812 C 5.664062 17.015625 5.660156 17.023438 5.652344 17.03125 C 5.640625 17.046875 5.632812 17.078125 5.632812 17.097656 C 5.628906 17.113281 5.632812 17.121094 5.628906 17.136719 C 5.625 17.148438 5.617188 17.164062 5.617188 17.175781 C 5.613281 17.1875 5.617188 17.203125 5.613281 17.214844 C 5.609375 17.226562 5.582031 17.230469 5.570312 17.238281 C 5.554688 17.242188 5.554688 17.242188 5.554688 17.261719 C 5.554688 17.273438 5.554688 17.285156 5.554688 17.292969 C 5.554688 17.324219 5.558594 17.34375 5.570312 17.375 C 5.582031 17.402344 5.59375 17.417969 5.621094 17.429688 C 5.640625 17.441406 5.65625 17.453125 5.675781 17.46875 C 5.691406 17.480469 5.707031 17.496094 5.722656 17.511719 C 5.734375 17.515625 5.738281 17.519531 5.746094 17.53125 C 5.757812 17.550781 5.769531 17.570312 5.777344 17.59375 C 5.789062 17.628906 5.800781 17.667969 5.808594 17.707031 C 5.8125 17.742188 5.796875 17.796875 5.820312 17.828125 C 5.824219 17.832031 5.832031 17.839844 5.839844 17.84375 C 5.84375 17.851562 5.847656 17.855469 5.851562 17.859375 C 5.859375 17.867188 5.859375 17.878906 5.863281 17.886719 C 5.871094 17.917969 5.867188 17.945312 5.875 17.972656 C 5.886719 18 5.886719 18.039062 5.910156 18.058594 C 5.925781 18.074219 5.953125 18.074219 5.972656 18.085938 C 6 18.097656 6.042969 18.09375 6.054688 18.121094 C 6.0625 18.136719 6.0625 18.148438 6.0625 18.164062 C 6.0625 18.179688 6.054688 18.183594 6.050781 18.199219 C 6.042969 18.226562 6.050781 18.261719 6.050781 18.289062 C 6.050781 18.320312 6.042969 18.351562 6.042969 18.378906 C 6.042969 18.394531 6.039062 18.410156 6.046875 18.421875 C 6.054688 18.433594 6.074219 18.457031 6.089844 18.460938 C 6.101562 18.464844 6.117188 18.460938 6.128906 18.460938 C 6.140625 18.464844 6.152344 18.464844 6.164062 18.46875 C 6.1875 18.476562 6.226562 18.488281 6.246094 18.507812 C 6.257812 18.519531 6.257812 18.542969 6.269531 18.550781 C 6.292969 18.566406 6.335938 18.558594 6.359375 18.558594 C 6.386719 18.558594 6.414062 18.558594 6.441406 18.558594 C 6.457031 18.558594 6.472656 18.554688 6.484375 18.558594 C 6.496094 18.566406 6.5 18.578125 6.507812 18.585938 C 6.515625 18.59375 6.523438 18.597656 6.527344 18.605469 C 6.535156 18.621094 6.535156 18.632812 6.542969 18.644531 C 6.546875 18.660156 6.550781 18.671875 6.5625 18.679688 C 6.566406 18.6875 6.574219 18.699219 6.582031 18.703125 C 6.597656 18.722656 6.617188 18.730469 6.632812 18.746094 C 6.65625 18.773438 6.679688 18.792969 6.699219 18.820312 C 6.707031 18.835938 6.714844 18.847656 6.726562 18.859375 C 6.734375 18.863281 6.742188 18.875 6.75 18.882812 C 6.769531 18.902344 6.792969 18.921875 6.808594 18.941406 C 6.820312 18.960938 6.835938 18.980469 6.851562 19 C 6.886719 19.035156 6.933594 19.054688 6.976562 19.070312 C 7.015625 19.082031 7.050781 19.125 7.0625 19.164062 C 7.066406 19.183594 7.058594 19.207031 7.066406 19.226562 C 7.074219 19.25 7.074219 19.28125 7.097656 19.300781 C 7.109375 19.308594 7.128906 19.300781 7.144531 19.304688 C 7.164062 19.308594 7.179688 19.316406 7.195312 19.324219 C 7.210938 19.324219 7.222656 19.324219 7.238281 19.328125 C 7.257812 19.335938 7.285156 19.34375 7.300781 19.351562 C 7.324219 19.367188 7.3125 19.402344 7.328125 19.425781 C 7.335938 19.445312 7.367188 19.46875 7.390625 19.476562 C 7.410156 19.484375 7.433594 19.496094 7.449219 19.511719 C 7.472656 19.53125 7.488281 19.554688 7.5 19.582031 C 7.515625 19.605469 7.53125 19.621094 7.535156 19.648438 C 7.535156 19.671875 7.539062 19.707031 7.527344 19.726562 C 7.523438 19.734375 7.519531 19.75 7.515625 19.757812 C 7.507812 19.765625 7.496094 19.765625 7.488281 19.769531 C 7.46875 19.785156 7.460938 19.808594 7.472656 19.828125 C 7.484375 19.847656 7.507812 19.851562 7.519531 19.867188 C 7.535156 19.878906 7.535156 19.90625 7.53125 19.925781 C 7.53125 19.949219 7.519531 19.972656 7.515625 19.992188 C 7.515625 20.011719 7.515625 20.03125 7.515625 20.046875 C 7.515625 20.058594 7.519531 20.070312 7.515625 20.082031 C 7.515625 20.089844 7.515625 20.117188 7.507812 20.128906 C 7.5 20.136719 7.449219 20.136719 7.46875 20.164062 C 7.472656 20.171875 7.492188 20.179688 7.5 20.1875 C 7.507812 20.199219 7.511719 20.210938 7.515625 20.222656 C 7.527344 20.242188 7.523438 20.257812 7.523438 20.28125 C 7.527344 20.300781 7.535156 20.332031 7.550781 20.34375 C 7.558594 20.351562 7.578125 20.355469 7.585938 20.359375 C 7.597656 20.367188 7.609375 20.367188 7.621094 20.367188 C 7.640625 20.375 7.664062 20.367188 7.683594 20.371094 C 7.707031 20.378906 7.707031 20.40625 7.714844 20.425781 C 7.71875 20.4375 7.726562 20.460938 7.742188 20.46875 C 7.746094 20.472656 7.761719 20.46875 7.769531 20.46875 C 7.789062 20.46875 7.808594 20.472656 7.832031 20.460938 C 7.847656 20.457031 7.867188 20.4375 7.886719 20.4375 C 7.90625 20.433594 7.925781 20.433594 7.945312 20.429688 C 7.957031 20.425781 7.964844 20.414062 7.976562 20.410156 C 7.988281 20.40625 8 20.398438 8.007812 20.394531 C 8.023438 20.394531 8.035156 20.398438 8.050781 20.394531 C 8.0625 20.390625 8.074219 20.382812 8.085938 20.394531 C 8.085938 20.394531 8.109375 20.445312 8.109375 20.449219 C 8.113281 20.453125 8.125 20.484375 8.132812 20.5 C 8.140625 20.515625 8.214844 20.578125 8.214844 20.578125 C 8.265625 20.578125 8.328125 20.585938 8.378906 20.578125 C 8.382812 20.558594 8.375 20.527344 8.398438 20.511719 C 8.40625 20.503906 8.417969 20.507812 8.425781 20.503906 C 8.449219 20.503906 8.464844 20.496094 8.488281 20.503906 C 8.5 20.507812 8.515625 20.519531 8.527344 20.527344 C 8.535156 20.535156 8.542969 20.542969 8.550781 20.550781 C 8.558594 20.558594 8.570312 20.5625 8.582031 20.566406 C 8.601562 20.578125 8.625 20.578125 8.648438 20.585938 C 8.671875 20.597656 8.695312 20.597656 8.71875 20.609375 C 8.769531 20.628906 8.828125 20.636719 8.878906 20.664062 C 8.910156 20.679688 8.941406 20.691406 8.976562 20.691406 C 9.03125 20.691406 9.085938 20.691406 9.136719 20.691406 C 9.160156 20.691406 9.167969 20.691406 9.1875 20.699219 C 9.195312 20.703125 9.207031 20.699219 9.210938 20.703125 C 9.21875 20.707031 9.21875 20.710938 9.226562 20.714844 C 9.25 20.726562 9.277344 20.738281 9.300781 20.753906 C 9.324219 20.769531 9.351562 20.785156 9.371094 20.800781 C 9.382812 20.808594 9.394531 20.816406 9.402344 20.828125 C 9.417969 20.839844 9.4375 20.84375 9.449219 20.859375 C 9.46875 20.882812 9.492188 20.898438 9.515625 20.914062 C 9.527344 20.921875 9.535156 20.933594 9.550781 20.9375 C 9.570312 20.945312 9.585938 20.957031 9.605469 20.960938 C 9.628906 20.964844 9.648438 20.976562 9.671875 20.976562 C 9.691406 20.980469 9.703125 20.992188 9.722656 20.996094 C 9.757812 21.003906 9.785156 21.03125 9.808594 21.050781 C 9.820312 21.0625 9.828125 21.070312 9.839844 21.078125 C 9.84375 21.085938 9.851562 21.085938 9.859375 21.09375 C 9.867188 21.101562 9.875 21.109375 9.882812 21.121094 C 9.910156 21.144531 9.941406 21.164062 9.964844 21.1875 C 9.976562 21.199219 9.992188 21.207031 10 21.222656 C 10.011719 21.238281 10.027344 21.257812 10.039062 21.273438 C 10.050781 21.292969 10.070312 21.308594 10.082031 21.328125 C 10.089844 21.347656 10.101562 21.363281 10.113281 21.378906 C 10.144531 21.417969 10.164062 21.464844 10.203125 21.5 C 10.222656 21.519531 10.242188 21.542969 10.265625 21.558594 C 10.273438 21.566406 10.285156 21.574219 10.296875 21.582031 C 10.3125 21.597656 10.324219 21.617188 10.34375 21.625 C 10.359375 21.636719 10.375 21.636719 10.390625 21.640625 C 10.421875 21.652344 10.433594 21.679688 10.425781 21.710938 C 10.421875 21.742188 10.394531 21.765625 10.394531 21.800781 C 10.394531 21.808594 10.398438 21.820312 10.398438 21.828125 C 10.402344 21.839844 10.398438 21.851562 10.402344 21.863281 C 10.410156 21.886719 10.425781 21.917969 10.449219 21.929688 C 10.472656 21.941406 10.492188 21.964844 10.519531 21.972656 C 10.578125 22 10.644531 22.035156 10.675781 22.089844 C 10.691406 22.121094 10.714844 22.144531 10.738281 22.167969 C 10.753906 22.183594 10.761719 22.195312 10.777344 22.207031 C 10.785156 22.214844 10.796875 22.21875 10.804688 22.226562 C 10.832031 22.246094 10.855469 22.265625 10.890625 22.277344 C 10.96875 22.308594 11.039062 22.351562 11.113281 22.375 C 11.148438 22.386719 11.183594 22.402344 11.222656 22.402344 C 11.25 22.402344 11.28125 22.402344 11.3125 22.402344 C 11.378906 22.402344 11.449219 22.402344 11.519531 22.402344 C 11.546875 22.402344 11.578125 22.402344 11.609375 22.402344 C 11.625 22.402344 11.648438 22.398438 11.664062 22.402344 C 11.683594 22.40625 11.695312 22.414062 11.714844 22.414062 C 11.746094 22.414062 11.777344 22.425781 11.804688 22.429688 C 11.824219 22.429688 11.839844 22.429688 11.855469 22.433594 C 11.871094 22.4375 11.886719 22.4375 11.898438 22.441406 C 11.910156 22.445312 11.917969 22.453125 11.929688 22.453125 C 11.933594 22.457031 11.941406 22.453125 11.945312 22.453125 C 11.960938 22.457031 11.972656 22.46875 11.980469 22.484375 C 11.988281 22.5 11.992188 22.511719 11.996094 22.523438 C 11.996094 22.539062 12 22.550781 12.003906 22.566406 C 12.007812 22.582031 12.019531 22.597656 12.027344 22.613281 C 12.03125 22.628906 12.035156 22.644531 12.039062 22.660156 C 12.050781 22.675781 12.0625 22.6875 12.066406 22.707031 C 12.070312 22.722656 12.0625 22.738281 12.066406 22.753906 C 12.070312 22.773438 12.089844 22.789062 12.097656 22.804688 C 12.109375 22.835938 12.125 22.859375 12.152344 22.878906 C 12.164062 22.886719 12.171875 22.894531 12.183594 22.902344 C 12.199219 22.914062 12.214844 22.917969 12.226562 22.925781 C 12.261719 22.949219 12.289062 22.984375 12.324219 23.007812 C 12.347656 23.023438 12.378906 23.019531 12.40625 23.019531 C 12.4375 23.019531 12.464844 23.015625 12.496094 23.019531 C 12.527344 23.019531 12.554688 23.035156 12.574219 23.058594 C 12.59375 23.085938 12.597656 23.097656 12.632812 23.097656 C 12.660156 23.097656 12.6875 23.097656 12.714844 23.097656 C 12.738281 23.097656 12.765625 23.097656 12.792969 23.097656 C 12.816406 23.097656 12.835938 23.101562 12.847656 23.082031 C 12.859375 23.070312 12.867188 23.054688 12.875 23.039062 C 12.890625 23.027344 12.902344 23.023438 12.914062 23.03125 C 12.9375 23.050781 12.957031 23.082031 12.972656 23.101562 C 12.992188 23.132812 13.007812 23.164062 13.035156 23.191406 C 13.042969 23.199219 13.050781 23.210938 13.058594 23.21875 C 13.066406 23.226562 13.082031 23.234375 13.09375 23.242188 C 13.109375 23.261719 13.125 23.285156 13.140625 23.304688 C 13.144531 23.3125 13.148438 23.3125 13.152344 23.324219 C 13.15625 23.332031 13.160156 23.335938 13.164062 23.34375 C 13.171875 23.363281 13.191406 23.367188 13.210938 23.367188 C 13.230469 23.367188 13.265625 23.359375 13.28125 23.347656 C 13.300781 23.332031 13.3125 23.304688 13.332031 23.285156 C 13.339844 23.273438 13.351562 23.265625 13.363281 23.265625 C 13.378906 23.265625 13.382812 23.273438 13.390625 23.285156 C 13.402344 23.292969 13.410156 23.300781 13.417969 23.308594 C 13.433594 23.324219 13.449219 23.320312 13.464844 23.320312 C 13.492188 23.320312 13.519531 23.3125 13.550781 23.3125 C 13.578125 23.3125 13.605469 23.304688 13.632812 23.304688 C 13.703125 23.304688 13.773438 23.296875 13.839844 23.316406 C 13.863281 23.324219 13.871094 23.351562 13.882812 23.371094 C 13.894531 23.398438 13.90625 23.421875 13.914062 23.449219 C 13.917969 23.460938 13.925781 23.46875 13.933594 23.476562 C 13.933594 23.484375 13.933594 23.488281 13.9375 23.496094 C 13.9375 23.496094 13.945312 23.5 13.949219 23.507812 C 13.953125 23.515625 13.953125 23.523438 13.957031 23.527344 C 13.96875 23.539062 14.003906 23.558594 14.023438 23.558594 C 14.050781 23.5625 14.074219 23.566406 14.097656 23.566406 C 14.109375 23.566406 14.128906 23.5625 14.140625 23.566406 C 14.144531 23.570312 14.144531 23.578125 14.152344 23.578125 C 14.15625 23.582031 14.160156 23.578125 14.164062 23.578125 C 14.179688 23.582031 14.175781 23.585938 14.183594 23.597656 C 14.1875 23.605469 14.195312 23.605469 14.199219 23.609375 C 14.210938 23.621094 14.210938 23.632812 14.222656 23.636719 C 14.234375 23.652344 14.257812 23.65625 14.273438 23.671875 C 14.292969 23.6875 14.316406 23.703125 14.335938 23.71875 C 14.359375 23.730469 14.378906 23.726562 14.402344 23.726562 C 14.441406 23.726562 14.472656 23.726562 14.503906 23.738281 C 14.511719 23.742188 14.527344 23.742188 14.535156 23.75 C 14.535156 23.753906 14.535156 23.761719 14.535156 23.765625 C 14.539062 23.769531 14.542969 23.773438 14.546875 23.773438 C 14.558594 23.785156 14.566406 23.800781 14.578125 23.808594 C 14.585938 23.816406 14.601562 23.820312 14.613281 23.820312 C 14.628906 23.828125 14.648438 23.835938 14.667969 23.839844 C 14.675781 23.84375 14.746094 23.84375 14.746094 23.84375 L 14.898438 23.847656 L 14.960938 23.847656 L 15.015625 23.871094 L 15.109375 23.910156 C 15.117188 23.90625 15.132812 23.902344 15.140625 23.902344 C 15.15625 23.90625 15.160156 23.917969 15.167969 23.925781 C 15.175781 23.9375 15.191406 23.949219 15.199219 23.960938 C 15.207031 23.96875 15.210938 23.972656 15.222656 23.976562 C 15.230469 23.980469 15.234375 23.992188 15.246094 23.996094 C 15.253906 24 15.253906 24 15.261719 24.003906 C 15.269531 24.011719 15.277344 24.015625 15.28125 24.023438 C 15.289062 24.03125 15.292969 24.042969 15.300781 24.050781 C 15.304688 24.066406 15.3125 24.074219 15.324219 24.082031 C 15.332031 24.085938 15.339844 24.09375 15.347656 24.097656 C 15.363281 24.101562 15.382812 24.097656 15.398438 24.097656 C 15.421875 24.097656 15.445312 24.097656 15.46875 24.097656 C 15.488281 24.097656 15.507812 24.105469 15.53125 24.109375 C 15.539062 24.113281 15.546875 24.113281 15.554688 24.121094 C 15.582031 24.140625 15.589844 24.167969 15.597656 24.199219 C 15.601562 24.214844 15.597656 24.238281 15.597656 24.257812 C 15.597656 24.261719 15.597656 24.269531 15.597656 24.277344 C 15.597656 24.285156 15.59375 24.292969 15.589844 24.300781 C 15.585938 24.304688 15.585938 24.316406 15.585938 24.324219 C 15.589844 24.328125 15.59375 24.332031 15.601562 24.335938 C 15.613281 24.347656 15.640625 24.371094 15.65625 24.351562 C 15.65625 24.347656 15.660156 24.34375 15.660156 24.339844 C 15.664062 24.335938 15.667969 24.332031 15.667969 24.328125 C 15.671875 24.324219 15.675781 24.316406 15.679688 24.308594 C 15.683594 24.304688 15.683594 24.300781 15.6875 24.296875 C 15.695312 24.292969 15.699219 24.289062 15.707031 24.285156 C 15.722656 24.273438 15.742188 24.261719 15.753906 24.242188 C 15.761719 24.234375 15.765625 24.210938 15.777344 24.207031 C 15.789062 24.203125 15.808594 24.210938 15.816406 24.210938 C 15.824219 24.214844 15.832031 24.226562 15.835938 24.234375 C 15.839844 24.238281 15.84375 24.246094 15.851562 24.253906 C 15.855469 24.257812 15.855469 24.257812 15.863281 24.257812 C 15.875 24.257812 15.886719 24.257812 15.898438 24.257812 C 15.929688 24.257812 15.964844 24.257812 15.996094 24.257812 C 16.015625 24.257812 16.039062 24.257812 16.058594 24.257812 C 16.070312 24.261719 16.085938 24.261719 16.097656 24.265625 C 16.113281 24.269531 16.121094 24.273438 16.132812 24.273438 C 16.144531 24.273438 16.152344 24.273438 16.160156 24.28125 C 16.167969 24.289062 16.171875 24.300781 16.175781 24.308594 C 16.183594 24.328125 16.199219 24.351562 16.222656 24.359375 C 16.226562 24.359375 16.230469 24.359375 16.238281 24.359375 C 16.246094 24.363281 16.25 24.367188 16.257812 24.367188 C 16.261719 24.367188 16.269531 24.367188 16.273438 24.367188 C 16.277344 24.371094 16.285156 24.375 16.292969 24.375 C 16.296875 24.378906 16.296875 24.382812 16.300781 24.390625 C 16.304688 24.394531 16.308594 24.394531 16.308594 24.398438 C 16.316406 24.402344 16.316406 24.410156 16.328125 24.414062 C 16.332031 24.417969 16.335938 24.417969 16.339844 24.417969 C 16.34375 24.421875 16.34375 24.421875 16.347656 24.421875 C 16.351562 24.421875 16.359375 24.421875 16.367188 24.421875 C 16.375 24.421875 16.386719 24.421875 16.398438 24.421875 C 16.414062 24.417969 16.425781 24.417969 16.441406 24.417969 C 16.453125 24.417969 16.460938 24.414062 16.46875 24.410156 C 16.472656 24.410156 16.480469 24.410156 16.484375 24.410156 C 16.492188 24.40625 16.507812 24.394531 16.511719 24.386719 C 16.523438 24.378906 16.527344 24.375 16.539062 24.371094 C 16.550781 24.363281 16.566406 24.355469 16.578125 24.351562 C 16.585938 24.351562 16.59375 24.351562 16.597656 24.347656 C 16.605469 24.34375 16.613281 24.34375 16.621094 24.339844 C 16.628906 24.339844 16.636719 24.335938 16.644531 24.332031 C 16.65625 24.328125 16.664062 24.332031 16.671875 24.328125 C 16.679688 24.324219 16.691406 24.316406 16.695312 24.308594 C 16.699219 24.304688 16.695312 24.304688 16.699219 24.300781 C 16.699219 24.296875 16.703125 24.292969 16.703125 24.289062 C 16.703125 24.285156 16.703125 24.28125 16.703125 24.273438 C 16.707031 24.261719 16.71875 24.265625 16.730469 24.265625 C 16.753906 24.265625 16.78125 24.265625 16.804688 24.265625 C 16.816406 24.265625 16.828125 24.261719 16.839844 24.261719 C 16.855469 24.261719 16.867188 24.253906 16.878906 24.253906 C 16.894531 24.253906 16.902344 24.246094 16.917969 24.246094 C 16.929688 24.246094 16.945312 24.246094 16.957031 24.246094 C 16.972656 24.246094 16.992188 24.246094 17.003906 24.253906 C 17.011719 24.257812 17.019531 24.265625 17.027344 24.277344 C 17.03125 24.285156 17.03125 24.296875 17.035156 24.304688 C 17.039062 24.316406 17.039062 24.324219 17.046875 24.332031 C 17.050781 24.34375 17.0625 24.351562 17.066406 24.363281 C 17.070312 24.367188 17.074219 24.375 17.078125 24.375 C 17.082031 24.378906 17.085938 24.386719 17.089844 24.390625 C 17.09375 24.394531 17.097656 24.394531 17.101562 24.398438 C 17.105469 24.402344 17.109375 24.40625 17.113281 24.410156 C 17.125 24.417969 17.132812 24.421875 17.140625 24.425781 C 17.164062 24.441406 17.1875 24.449219 17.203125 24.46875 C 17.210938 24.476562 17.21875 24.488281 17.230469 24.496094 C 17.238281 24.5 17.242188 24.507812 17.25 24.507812 C 17.253906 24.507812 17.257812 24.507812 17.261719 24.507812 C 17.269531 24.507812 17.28125 24.507812 17.292969 24.507812 C 17.296875 24.507812 17.304688 24.503906 17.3125 24.503906 C 17.316406 24.503906 17.320312 24.507812 17.324219 24.503906 C 17.328125 24.503906 17.332031 24.5 17.335938 24.5 C 17.34375 24.5 17.355469 24.5 17.363281 24.5 C 17.378906 24.5 17.386719 24.5 17.402344 24.503906 C 17.410156 24.507812 17.417969 24.507812 17.421875 24.515625 C 17.425781 24.515625 17.425781 24.519531 17.429688 24.523438 C 17.433594 24.53125 17.441406 24.542969 17.449219 24.550781 C 17.457031 24.558594 17.46875 24.566406 17.476562 24.578125 C 17.480469 24.582031 17.484375 24.589844 17.488281 24.59375 C 17.492188 24.597656 17.5 24.601562 17.5 24.605469 C 17.503906 24.617188 17.511719 24.625 17.515625 24.632812 C 17.519531 24.636719 17.519531 24.644531 17.523438 24.652344 C 17.527344 24.65625 17.53125 24.660156 17.535156 24.664062 C 17.539062 24.671875 17.539062 24.675781 17.542969 24.679688 C 17.546875 24.683594 17.546875 24.683594 17.550781 24.683594 C 17.558594 24.6875 17.558594 24.695312 17.5625 24.699219 C 17.570312 24.703125 17.574219 24.707031 17.582031 24.710938 C 17.59375 24.722656 17.605469 24.734375 17.617188 24.746094 C 17.621094 24.753906 17.632812 24.757812 17.640625 24.765625 C 17.652344 24.769531 17.660156 24.773438 17.667969 24.785156 C 17.679688 24.792969 17.695312 24.800781 17.710938 24.796875 L 17.871094 24.890625 C 17.882812 24.898438 17.890625 24.90625 17.90625 24.910156 C 17.917969 24.910156 17.933594 24.910156 17.945312 24.910156 C 17.964844 24.910156 17.988281 24.910156 18.007812 24.910156 C 18.035156 24.910156 18.054688 24.90625 18.082031 24.894531 C 18.105469 24.882812 18.132812 24.878906 18.15625 24.863281 C 18.175781 24.851562 18.195312 24.839844 18.210938 24.828125 C 18.21875 24.824219 18.21875 24.816406 18.230469 24.8125 C 18.238281 24.8125 18.246094 24.8125 18.253906 24.8125 C 18.261719 24.808594 18.273438 24.796875 18.28125 24.792969 C 18.300781 24.78125 18.300781 24.753906 18.316406 24.742188 C 18.339844 24.722656 18.359375 24.71875 18.386719 24.707031 C 18.417969 24.699219 18.453125 24.703125 18.484375 24.703125 C 18.496094 24.703125 18.5 24.703125 18.507812 24.695312 C 18.519531 24.683594 18.527344 24.667969 18.539062 24.652344 C 18.5625 24.625 18.597656 24.628906 18.636719 24.628906 C 18.65625 24.628906 18.679688 24.636719 18.699219 24.644531 C 18.71875 24.652344 18.738281 24.664062 18.75 24.683594 C 18.761719 24.699219 18.769531 24.722656 18.792969 24.726562 C 18.839844 24.738281 18.890625 24.722656 18.9375 24.726562 C 18.960938 24.730469 18.960938 24.757812 18.976562 24.773438 C 18.984375 24.785156 18.996094 24.789062 19.007812 24.792969 C 19.011719 24.796875 19.019531 24.800781 19.027344 24.804688 C 19.03125 24.808594 19.039062 24.804688 19.050781 24.808594 C 19.054688 24.808594 19.0625 24.8125 19.070312 24.816406 C 19.085938 24.820312 19.109375 24.832031 19.121094 24.84375 C 19.128906 24.855469 19.128906 24.867188 19.136719 24.882812 C 19.144531 24.894531 19.152344 24.902344 19.152344 24.917969 C 19.152344 24.929688 19.152344 24.941406 19.152344 24.953125 C 19.15625 24.964844 19.160156 24.96875 19.171875 24.976562 C 19.175781 24.984375 19.179688 24.992188 19.191406 25 C 19.195312 25 19.203125 25.003906 19.210938 25.007812 C 19.230469 25.019531 19.253906 25.023438 19.277344 25.03125 C 19.308594 25.042969 19.335938 25.046875 19.371094 25.046875 C 19.394531 25.046875 19.398438 25.046875 19.410156 25.023438 C 19.421875 25.007812 19.425781 24.988281 19.433594 24.96875 C 19.441406 24.949219 19.445312 24.929688 19.457031 24.914062 C 19.472656 24.898438 19.484375 24.886719 19.496094 24.871094 C 19.5 24.855469 19.511719 24.824219 19.523438 24.816406 C 19.53125 24.808594 19.554688 24.804688 19.5625 24.800781 C 19.574219 24.796875 19.582031 24.800781 19.589844 24.800781 C 19.601562 24.796875 19.609375 24.792969 19.617188 24.792969 C 19.632812 24.792969 19.648438 24.792969 19.660156 24.792969 C 19.675781 24.792969 19.6875 24.78125 19.703125 24.78125 C 19.710938 24.777344 19.714844 24.78125 19.722656 24.777344 C 19.742188 24.769531 19.75 24.75 19.75 24.730469 C 19.753906 24.714844 19.753906 24.695312 19.773438 24.679688 C 19.789062 24.667969 19.820312 24.675781 19.839844 24.675781 C 19.851562 24.675781 19.859375 24.675781 19.867188 24.683594 C 19.871094 24.683594 19.886719 24.691406 19.890625 24.695312 C 19.894531 24.703125 19.890625 24.707031 19.898438 24.714844 C 19.90625 24.71875 19.921875 24.722656 19.929688 24.722656 C 19.984375 24.726562 20.039062 24.71875 20.09375 24.722656 C 20.105469 24.722656 20.117188 24.726562 20.125 24.730469 C 20.136719 24.730469 20.144531 24.730469 20.15625 24.734375 C 20.171875 24.738281 20.183594 24.75 20.195312 24.761719 C 20.203125 24.769531 20.207031 24.773438 20.210938 24.785156 C 20.214844 24.792969 20.214844 24.800781 20.21875 24.808594 C 20.234375 24.824219 20.273438 24.816406 20.285156 24.800781 C 20.292969 24.792969 20.292969 24.78125 20.300781 24.769531 C 20.304688 24.761719 20.3125 24.753906 20.320312 24.746094 C 20.332031 24.734375 20.347656 24.722656 20.355469 24.703125 C 20.363281 24.6875 20.359375 24.667969 20.367188 24.652344 C 20.371094 24.632812 20.382812 24.613281 20.398438 24.597656 C 20.40625 24.582031 20.425781 24.570312 20.445312 24.570312 C 20.449219 24.570312 20.460938 24.574219 20.464844 24.570312 C 20.472656 24.566406 20.472656 24.5625 20.476562 24.558594 C 20.492188 24.542969 20.511719 24.53125 20.519531 24.511719 C 20.527344 24.492188 20.535156 24.472656 20.539062 24.457031 C 20.542969 24.433594 20.5625 24.414062 20.582031 24.40625 C 20.601562 24.402344 20.628906 24.40625 20.648438 24.40625 C 20.65625 24.40625 20.667969 24.40625 20.675781 24.40625 C 20.6875 24.410156 20.691406 24.417969 20.699219 24.421875 C 20.710938 24.421875 20.722656 24.421875 20.730469 24.429688 C 20.742188 24.4375 20.75 24.445312 20.757812 24.445312 C 20.777344 24.457031 20.808594 24.460938 20.824219 24.445312 C 20.835938 24.433594 20.835938 24.414062 20.851562 24.410156 C 20.871094 24.40625 20.898438 24.410156 20.917969 24.410156 C 20.9375 24.410156 20.953125 24.410156 20.972656 24.410156 C 21.007812 24.410156 21.023438 24.402344 21.039062 24.4375 C 21.042969 24.445312 21.039062 24.453125 21.046875 24.460938 C 21.050781 24.46875 21.066406 24.472656 21.074219 24.472656 C 21.113281 24.476562 21.152344 24.472656 21.1875 24.472656 C 21.199219 24.472656 21.210938 24.476562 21.21875 24.472656 C 21.230469 24.46875 21.230469 24.460938 21.234375 24.453125 C 21.242188 24.4375 21.25 24.429688 21.265625 24.429688 C 21.277344 24.429688 21.308594 24.421875 21.320312 24.429688 C 21.332031 24.4375 21.332031 24.460938 21.34375 24.46875 C 21.359375 24.484375 21.402344 24.472656 21.421875 24.472656 C 21.445312 24.472656 21.464844 24.46875 21.488281 24.46875 C 21.523438 24.464844 21.558594 24.445312 21.59375 24.445312 C 21.617188 24.445312 21.617188 24.449219 21.632812 24.464844 C 21.644531 24.472656 21.65625 24.488281 21.667969 24.496094 C 21.675781 24.503906 21.679688 24.511719 21.691406 24.511719 C 21.695312 24.515625 21.703125 24.511719 21.710938 24.515625 C 21.730469 24.515625 21.742188 24.519531 21.765625 24.519531 C 21.785156 24.519531 21.8125 24.523438 21.832031 24.519531 C 21.851562 24.515625 21.875 24.496094 21.886719 24.484375 C 21.898438 24.476562 21.910156 24.464844 21.917969 24.453125 C 21.925781 24.445312 21.925781 24.4375 21.9375 24.429688 C 21.957031 24.417969 21.980469 24.421875 22 24.421875 C 22.042969 24.421875 22.089844 24.425781 22.128906 24.417969 C 22.148438 24.410156 22.167969 24.398438 22.183594 24.386719 C 22.1875 24.382812 22.195312 24.378906 22.203125 24.375 C 22.207031 24.371094 22.210938 24.359375 22.21875 24.355469 C 22.25 24.328125 22.296875 24.351562 22.328125 24.332031 C 22.34375 24.324219 22.347656 24.304688 22.363281 24.292969 C 22.378906 24.28125 22.390625 24.273438 22.402344 24.257812 C 22.417969 24.238281 22.425781 24.179688 22.464844 24.183594 C 22.476562 24.1875 22.492188 24.210938 22.5 24.21875 C 22.507812 24.222656 22.507812 24.234375 22.515625 24.238281 C 22.519531 24.242188 22.53125 24.246094 22.539062 24.246094 C 22.554688 24.253906 22.574219 24.25 22.589844 24.25 C 22.601562 24.25 22.628906 24.257812 22.640625 24.25 C 22.644531 24.246094 22.65625 24.230469 22.660156 24.226562 C 22.664062 24.222656 22.660156 24.214844 22.660156 24.207031 C 22.664062 24.191406 22.671875 24.183594 22.691406 24.183594 C 22.707031 24.183594 22.714844 24.183594 22.730469 24.191406 C 22.738281 24.195312 22.75 24.199219 22.757812 24.203125 C 22.765625 24.207031 22.777344 24.210938 22.785156 24.214844 C 22.796875 24.21875 22.796875 24.21875 22.804688 24.226562 C 22.808594 24.230469 22.8125 24.234375 22.820312 24.238281 C 22.835938 24.25 22.84375 24.25 22.859375 24.25 C 22.882812 24.25 22.886719 24.25 22.894531 24.230469 C 22.902344 24.210938 22.917969 24.210938 22.933594 24.21875 C 22.953125 24.222656 22.96875 24.230469 22.992188 24.230469 C 23.007812 24.230469 23.023438 24.230469 23.042969 24.230469 C 23.0625 24.230469 23.082031 24.230469 23.101562 24.230469 C 23.121094 24.230469 23.125 24.21875 23.136719 24.207031 C 23.152344 24.1875 23.160156 24.195312 23.183594 24.191406 C 23.203125 24.191406 23.214844 24.171875 23.226562 24.160156 C 23.25 24.132812 23.289062 24.15625 23.316406 24.144531 C 23.328125 24.140625 23.335938 24.132812 23.347656 24.132812 C 23.355469 24.132812 23.363281 24.132812 23.371094 24.132812 C 23.394531 24.132812 23.410156 24.132812 23.417969 24.105469 C 23.425781 24.09375 23.433594 24.074219 23.4375 24.058594 C 23.445312 24.042969 23.445312 24.019531 23.457031 24.003906 C 23.464844 23.984375 23.476562 23.980469 23.492188 23.976562 C 23.507812 23.96875 23.519531 23.957031 23.539062 23.957031 C 23.570312 23.957031 23.605469 23.953125 23.636719 23.960938 C 23.652344 23.96875 23.667969 23.976562 23.683594 23.988281 C 23.695312 24 23.703125 24.019531 23.714844 24.027344 C 23.730469 24.03125 23.757812 24.027344 23.773438 24.027344 C 23.789062 24.027344 23.804688 24.027344 23.820312 24.027344 C 23.835938 24.027344 23.859375 24.027344 23.875 24.035156 C 23.886719 24.042969 23.890625 24.058594 23.898438 24.070312 C 23.90625 24.078125 23.914062 24.082031 23.917969 24.09375 C 23.921875 24.097656 23.921875 24.105469 23.929688 24.113281 C 23.941406 24.125 23.957031 24.121094 23.972656 24.121094 C 23.988281 24.121094 24.007812 24.121094 24.023438 24.121094 C 24.039062 24.121094 24.054688 24.128906 24.070312 24.128906 C 24.089844 24.128906 24.113281 24.132812 24.128906 24.128906 C 24.152344 24.125 24.167969 24.097656 24.183594 24.089844 C 24.191406 24.082031 24.199219 24.082031 24.207031 24.078125 C 24.214844 24.074219 24.222656 24.066406 24.230469 24.058594 C 24.242188 24.050781 24.253906 24.042969 24.265625 24.03125 C 24.273438 24.023438 24.28125 24.007812 24.292969 24 C 24.304688 23.988281 24.3125 23.980469 24.332031 23.976562 C 24.347656 23.976562 24.367188 23.976562 24.382812 23.976562 C 24.402344 23.976562 24.40625 23.964844 24.425781 23.964844 C 24.4375 23.960938 24.457031 23.960938 24.472656 23.957031 C 24.480469 23.953125 24.480469 23.945312 24.492188 23.945312 C 24.5 23.945312 24.503906 23.945312 24.511719 23.945312 C 24.542969 23.9375 24.53125 23.882812 24.53125 23.859375 C 24.53125 23.835938 24.53125 23.835938 24.550781 23.824219 C 24.566406 23.816406 24.574219 23.8125 24.59375 23.808594 C 24.605469 23.804688 24.617188 23.804688 24.632812 23.796875 C 24.640625 23.796875 24.644531 23.796875 24.652344 23.796875 C 24.664062 23.792969 24.675781 23.78125 24.683594 23.773438 C 24.691406 23.769531 24.699219 23.769531 24.703125 23.765625 C 24.707031 23.761719 24.707031 23.753906 24.710938 23.75 C 24.71875 23.738281 24.730469 23.730469 24.734375 23.722656 C 24.753906 23.695312 24.777344 23.671875 24.800781 23.652344 C 24.8125 23.640625 24.824219 23.636719 24.839844 23.625 C 24.851562 23.609375 24.859375 23.597656 24.871094 23.582031 C 24.875 23.578125 24.878906 23.574219 24.882812 23.570312 C 24.886719 23.566406 24.882812 23.5625 24.886719 23.558594 C 24.890625 23.550781 24.894531 23.550781 24.898438 23.542969 C 24.910156 23.535156 24.921875 23.527344 24.9375 23.519531 C 24.957031 23.511719 24.976562 23.519531 25 23.515625 C 25.007812 23.515625 25.011719 23.511719 25.019531 23.511719 C 25.027344 23.507812 25.03125 23.511719 25.039062 23.511719 C 25.050781 23.507812 25.046875 23.503906 25.054688 23.496094 C 25.0625 23.492188 25.074219 23.5 25.082031 23.496094 C 25.085938 23.496094 25.089844 23.492188 25.09375 23.492188 C 25.101562 23.488281 25.105469 23.488281 25.117188 23.484375 C 25.132812 23.472656 25.152344 23.464844 25.171875 23.449219 C 25.183594 23.433594 25.199219 23.429688 25.199219 23.410156 C 25.199219 23.390625 25.203125 23.371094 25.195312 23.355469 C 25.195312 23.339844 25.191406 23.332031 25.191406 23.3125 C 25.191406 23.300781 25.191406 23.285156 25.195312 23.273438 C 25.203125 23.257812 25.21875 23.257812 25.234375 23.25 C 25.246094 23.242188 25.257812 23.226562 25.265625 23.214844 C 25.273438 23.210938 25.28125 23.191406 25.289062 23.191406 L 25.316406 23.097656 C 25.324219 23.085938 25.332031 23.066406 25.332031 23.054688 C 25.335938 23.03125 25.351562 23.03125 25.367188 23.015625 C 25.378906 23.007812 25.390625 22.984375 25.394531 22.96875 C 25.398438 22.960938 25.398438 22.949219 25.402344 22.9375 C 25.402344 22.929688 25.40625 22.921875 25.40625 22.910156 C 25.40625 22.898438 25.402344 22.890625 25.410156 22.882812 C 25.414062 22.875 25.425781 22.871094 25.429688 22.867188 C 25.441406 22.863281 25.457031 22.855469 25.464844 22.839844 C 25.472656 22.828125 25.476562 22.8125 25.476562 22.800781 C 25.476562 22.78125 25.480469 22.757812 25.472656 22.746094 C 25.464844 22.726562 25.441406 22.71875 25.421875 22.71875 C 25.398438 22.71875 25.402344 22.710938 25.398438 22.691406 C 25.394531 22.675781 25.390625 22.660156 25.386719 22.640625 C 25.386719 22.625 25.386719 22.609375 25.386719 22.589844 C 25.386719 22.570312 25.386719 22.546875 25.378906 22.527344 C 25.371094 22.519531 25.355469 22.507812 25.34375 22.5 C 25.339844 22.496094 25.328125 22.488281 25.320312 22.480469 C 25.316406 22.476562 25.316406 22.464844 25.3125 22.457031 C 25.308594 22.441406 25.300781 22.429688 25.300781 22.414062 C 25.296875 22.394531 25.296875 22.375 25.308594 22.359375 C 25.3125 22.347656 25.308594 22.339844 25.320312 22.335938 C 25.328125 22.332031 25.335938 22.328125 25.339844 22.320312 C 25.367188 22.300781 25.390625 22.277344 25.367188 22.246094 C 25.355469 22.230469 25.34375 22.214844 25.332031 22.195312 C 25.324219 22.183594 25.328125 22.164062 25.328125 22.148438 C 25.328125 22.132812 25.328125 22.109375 25.324219 22.097656 C 25.320312 22.089844 25.3125 22.085938 25.3125 22.082031 C 25.308594 22.066406 25.308594 22.046875 25.308594 22.035156 C 25.308594 22.015625 25.308594 22 25.308594 21.984375 C 25.308594 21.964844 25.316406 21.941406 25.300781 21.929688 C 25.292969 21.921875 25.285156 21.917969 25.277344 21.917969 C 25.269531 21.914062 25.265625 21.917969 25.261719 21.917969 C 25.253906 21.914062 25.238281 21.894531 25.234375 21.890625 C 25.226562 21.875 25.226562 21.863281 25.226562 21.847656 C 25.226562 21.832031 25.222656 21.816406 25.226562 21.804688 C 25.234375 21.785156 25.257812 21.785156 25.273438 21.785156 C 25.289062 21.785156 25.296875 21.777344 25.300781 21.761719 C 25.300781 21.757812 25.300781 21.753906 25.300781 21.75 C 25.304688 21.746094 25.308594 21.742188 25.308594 21.738281 C 25.308594 21.734375 25.3125 21.726562 25.3125 21.71875 C 25.316406 21.707031 25.316406 21.691406 25.316406 21.675781 C 25.316406 21.660156 25.316406 21.644531 25.316406 21.628906 C 25.316406 21.613281 25.308594 21.59375 25.304688 21.578125 C 25.300781 21.542969 25.304688 21.503906 25.304688 21.464844 C 25.304688 21.449219 25.304688 21.433594 25.308594 21.421875 C 25.308594 21.414062 25.308594 21.40625 25.308594 21.398438 C 25.3125 21.390625 25.324219 21.382812 25.332031 21.378906 C 25.335938 21.375 25.34375 21.371094 25.347656 21.367188 C 25.355469 21.363281 25.359375 21.363281 25.371094 21.363281 C 25.394531 21.359375 25.398438 21.339844 25.398438 21.320312 C 25.398438 21.285156 25.398438 21.246094 25.394531 21.210938 C 25.386719 21.179688 25.402344 21.140625 25.386719 21.113281 C 25.378906 21.097656 25.382812 21.085938 25.375 21.070312 C 25.363281 21.0625 25.351562 21.054688 25.34375 21.046875 C 25.335938 21.039062 25.335938 21.039062 25.335938 21.03125 C 25.332031 21.023438 25.328125 21.015625 25.320312 21.007812 C 25.3125 20.992188 25.304688 20.972656 25.300781 20.957031 C 25.296875 20.941406 25.296875 20.925781 25.296875 20.90625 C 25.296875 20.894531 25.296875 20.878906 25.292969 20.863281 C 25.289062 20.859375 25.289062 20.851562 25.289062 20.847656 C 25.285156 20.84375 25.28125 20.84375 25.277344 20.839844 C 25.273438 20.835938 25.273438 20.828125 25.269531 20.824219 C 25.261719 20.820312 25.261719 20.820312 25.257812 20.8125 C 25.253906 20.808594 25.253906 20.800781 25.25 20.792969 C 25.242188 20.761719 25.242188 20.734375 25.242188 20.703125 C 25.242188 20.6875 25.246094 20.675781 25.261719 20.667969 C 25.273438 20.667969 25.285156 20.667969 25.296875 20.667969 C 25.328125 20.660156 25.328125 20.621094 25.328125 20.597656 C 25.328125 20.578125 25.328125 20.566406 25.324219 20.550781 C 25.320312 20.539062 25.324219 20.523438 25.324219 20.507812 C 25.324219 20.496094 25.320312 20.484375 25.328125 20.472656 C 25.335938 20.464844 25.34375 20.457031 25.351562 20.445312 C 25.363281 20.433594 25.378906 20.433594 25.386719 20.421875 C 25.398438 20.414062 25.402344 20.40625 25.410156 20.398438 C 25.425781 20.386719 25.433594 20.390625 25.429688 20.371094 C 25.429688 20.355469 25.429688 20.34375 25.429688 20.328125 C 25.425781 20.320312 25.425781 20.3125 25.425781 20.300781 C 25.425781 20.296875 25.425781 20.296875 25.421875 20.289062 C 25.414062 20.277344 25.417969 20.261719 25.414062 20.25 C 25.410156 20.238281 25.40625 20.234375 25.402344 20.226562 C 25.402344 20.21875 25.402344 20.214844 25.394531 20.207031 C 25.390625 20.203125 25.382812 20.199219 25.375 20.195312 C 25.371094 20.191406 25.367188 20.179688 25.359375 20.179688 C 25.351562 20.175781 25.34375 20.179688 25.335938 20.171875 C 25.328125 20.164062 25.328125 20.15625 25.320312 20.148438 C 25.304688 20.132812 25.28125 20.125 25.265625 20.109375 C 25.261719 20.101562 25.25 20.089844 25.246094 20.078125 C 25.246094 20.066406 25.246094 20.054688 25.246094 20.042969 C 25.246094 20.03125 25.242188 20.015625 25.253906 20.007812 C 25.257812 20 25.261719 20 25.265625 19.996094 C 25.269531 19.988281 25.273438 19.980469 25.277344 19.972656 C 25.285156 19.960938 25.292969 19.945312 25.292969 19.925781 C 25.292969 19.910156 25.285156 19.902344 25.273438 19.894531 C 25.269531 19.886719 25.265625 19.878906 25.265625 19.875 C 25.261719 19.867188 25.257812 19.863281 25.257812 19.855469 C 25.257812 19.84375 25.257812 19.832031 25.257812 19.816406 L 25.226562 19.742188 C 25.226562 19.738281 25.226562 19.738281 25.226562 19.734375 C 25.226562 19.734375 25.222656 19.730469 25.222656 19.726562 C 25.222656 19.726562 25.222656 19.722656 25.222656 19.722656 C 25.222656 19.722656 25.222656 19.71875 25.222656 19.71875 C 25.222656 19.71875 25.222656 19.714844 25.222656 19.714844 C 25.222656 19.710938 25.222656 19.710938 25.226562 19.707031 C 25.226562 19.707031 25.226562 19.703125 25.226562 19.703125 C 25.226562 19.699219 25.226562 19.699219 25.226562 19.695312 C 25.226562 19.695312 25.226562 19.691406 25.226562 19.691406 C 25.226562 19.6875 25.226562 19.6875 25.226562 19.683594 C 25.226562 19.683594 25.226562 19.679688 25.226562 19.679688 C 25.226562 19.675781 25.226562 19.671875 25.230469 19.671875 C 25.25 19.675781 25.269531 19.671875 25.28125 19.652344 C 25.289062 19.640625 25.289062 19.625 25.289062 19.609375 C 25.289062 19.59375 25.289062 19.574219 25.289062 19.554688 C 25.289062 19.535156 25.296875 19.519531 25.296875 19.503906 C 25.300781 19.476562 25.308594 19.453125 25.308594 19.425781 C 25.308594 19.410156 25.3125 19.390625 25.316406 19.371094 C 25.320312 19.339844 25.316406 19.304688 25.316406 19.273438 C 25.316406 19.257812 25.324219 19.25 25.332031 19.234375 C 25.339844 19.214844 25.351562 19.214844 25.367188 19.203125 C 25.378906 19.195312 25.386719 19.183594 25.398438 19.167969 C 25.402344 19.15625 25.40625 19.140625 25.40625 19.125 C 25.40625 19.109375 25.40625 19.09375 25.410156 19.074219 C 25.410156 19.0625 25.410156 19.058594 25.421875 19.050781 C 25.425781 19.046875 25.433594 19.042969 25.441406 19.039062 C 25.46875 19.019531 25.46875 18.984375 25.457031 18.953125 C 25.453125 18.941406 25.449219 18.933594 25.449219 18.921875 C 25.449219 18.914062 25.449219 18.90625 25.449219 18.898438 C 25.445312 18.886719 25.445312 18.878906 25.445312 18.867188 C 25.445312 18.855469 25.445312 18.84375 25.445312 18.832031 C 25.445312 18.816406 25.449219 18.804688 25.449219 18.789062 C 25.449219 18.765625 25.460938 18.746094 25.457031 18.722656 C 25.457031 18.707031 25.457031 18.695312 25.457031 18.679688 C 25.457031 18.667969 25.460938 18.65625 25.464844 18.640625 C 25.464844 18.632812 25.460938 18.625 25.464844 18.617188 C 25.464844 18.609375 25.472656 18.605469 25.472656 18.597656 C 25.476562 18.589844 25.472656 18.582031 25.472656 18.570312 C 25.472656 18.558594 25.480469 18.550781 25.480469 18.539062 C 25.480469 18.527344 25.480469 18.519531 25.484375 18.507812 C 25.488281 18.492188 25.480469 18.484375 25.496094 18.476562 C 25.503906 18.46875 25.515625 18.464844 25.523438 18.460938 C 25.539062 18.441406 25.550781 18.421875 25.5625 18.402344 C 25.578125 18.378906 25.5625 18.347656 25.5625 18.324219 C 25.5625 18.304688 25.554688 18.269531 25.570312 18.257812 C 25.578125 18.253906 25.582031 18.253906 25.585938 18.25 C 25.59375 18.246094 25.597656 18.238281 25.605469 18.238281 C 25.613281 18.234375 25.617188 18.238281 25.625 18.234375 C 25.632812 18.234375 25.640625 18.234375 25.648438 18.230469 C 25.65625 18.230469 25.675781 18.226562 25.679688 18.222656 C 25.691406 18.214844 25.691406 18.207031 25.695312 18.195312 C 25.703125 18.167969 25.699219 18.140625 25.699219 18.117188 C 25.699219 18.097656 25.703125 18.074219 25.707031 18.050781 C 25.714844 18.039062 25.714844 18.027344 25.726562 18.019531 C 25.730469 18.011719 25.734375 18.007812 25.738281 18.003906 C 25.742188 17.996094 25.75 17.996094 25.757812 17.988281 C 25.761719 17.984375 25.765625 17.980469 25.773438 17.976562 C 25.773438 17.972656 25.777344 17.972656 25.78125 17.964844 C 25.792969 17.957031 25.800781 17.945312 25.808594 17.933594 C 25.816406 17.929688 25.820312 17.925781 25.824219 17.917969 C 25.828125 17.914062 25.832031 17.90625 25.835938 17.902344 C 25.839844 17.894531 25.84375 17.890625 25.84375 17.886719 C 25.847656 17.882812 25.847656 17.875 25.847656 17.867188 C 25.851562 17.863281 25.855469 17.859375 25.855469 17.855469 C 25.859375 17.851562 25.859375 17.847656 25.855469 17.839844 C 25.855469 17.835938 25.859375 17.832031 25.859375 17.828125 C 25.863281 17.816406 25.859375 17.796875 25.863281 17.785156 C 25.867188 17.773438 25.871094 17.765625 25.878906 17.753906 C 25.886719 17.746094 25.882812 17.738281 25.890625 17.730469 C 25.890625 17.726562 25.898438 17.722656 25.902344 17.71875 C 25.914062 17.707031 25.929688 17.695312 25.941406 17.691406 C 25.957031 17.6875 25.972656 17.691406 25.984375 17.691406 C 25.992188 17.691406 26.003906 17.695312 26.007812 17.691406 C 26.011719 17.691406 26.019531 17.683594 26.023438 17.679688 C 26.03125 17.671875 26.039062 17.660156 26.050781 17.65625 C 26.058594 17.644531 26.074219 17.636719 26.085938 17.632812 C 26.097656 17.625 26.105469 17.621094 26.113281 17.613281 C 26.117188 17.609375 26.117188 17.605469 26.121094 17.601562 C 26.125 17.597656 26.128906 17.59375 26.132812 17.589844 C 26.140625 17.582031 26.144531 17.566406 26.148438 17.554688 C 26.152344 17.539062 26.160156 17.539062 26.167969 17.523438 C 26.175781 17.507812 26.179688 17.5 26.179688 17.480469 C 26.179688 17.453125 26.183594 17.421875 26.175781 17.398438 C 26.171875 17.386719 26.175781 17.386719 26.164062 17.378906 C 26.152344 17.371094 26.136719 17.359375 26.125 17.351562 C 26.113281 17.335938 26.117188 17.3125 26.117188 17.292969 C 26.117188 17.269531 26.121094 17.242188 26.136719 17.226562 C 26.144531 17.214844 26.15625 17.214844 26.160156 17.199219 C 26.164062 17.1875 26.167969 17.179688 26.175781 17.167969 C 26.1875 17.144531 26.1875 17.117188 26.1875 17.089844 C 26.1875 17.078125 26.1875 17.070312 26.183594 17.0625 C 26.175781 17.054688 26.167969 17.054688 26.160156 17.050781 C 26.140625 17.039062 26.136719 17.011719 26.140625 16.988281 C 26.144531 16.972656 26.167969 16.957031 26.167969 16.9375 Z M 26.191406 16.835938 " fill-opacity="1" fill-rule="nonzero"/></g></svg>