<svg xmlns="http://www.w3.org/2000/svg" xmlns:xlink="http://www.w3.org/1999/xlink" width="40" zoomAndPan="magnify" viewBox="0 0 30 30.000001" height="40" preserveAspectRatio="xMidYMid meet" version="1.0"><defs><clipPath id="6acb55f8ea"><path d="M 3.386719 6.257812 L 26.613281 6.257812 L 26.613281 22.949219 L 3.386719 22.949219 Z M 3.386719 6.257812 " clip-rule="nonzero"/></clipPath></defs><g clip-path="url(#6acb55f8ea)"><path fill="#014d4e" d="M 13.554688 22.316406 C 12.773438 22.472656 12.074219 21.964844 11.347656 21.867188 C 10.910156 21.636719 10.128906 22.332031 9.820312 21.703125 C 10.238281 20.816406 10.742188 21.402344 9.605469 20.644531 C 9.433594 20.640625 9.402344 20.480469 9.425781 20.339844 C 9.003906 20.289062 9.085938 20.027344 8.886719 19.785156 C 8.875 19.59375 9.074219 19.75 9.136719 19.566406 C 9.160156 19.347656 9.367188 19.480469 9.480469 19.53125 C 9.953125 19.316406 9.003906 19.152344 8.941406 18.886719 C 8.574219 18.894531 8.308594 19.34375 8.222656 19.710938 C 7.785156 19.695312 7.894531 18.96875 7.34375 19.101562 C 7.007812 19.019531 6.84375 19.234375 6.804688 18.761719 C 6.726562 18.644531 6.441406 18.667969 6.324219 18.671875 C 6.117188 18.386719 6.179688 18.261719 6.535156 18.328125 C 7.167969 18.136719 5.726562 17.859375 6.445312 17.753906 C 6.460938 17.628906 6.480469 17.449219 6.625 17.414062 C 6.511719 16.9375 5.785156 17.214844 5.796875 16.769531 C 5.796875 16.769531 5.707031 16.75 5.707031 16.75 L 5.671875 16.839844 C 5.417969 16.90625 5.253906 16.46875 5.007812 16.40625 C 5.199219 16.066406 4.414062 16.355469 4.9375 16.03125 C 4.941406 15.875 4.734375 15.890625 4.757812 15.742188 C 4.84375 15.628906 4.960938 15.210938 4.808594 15.132812 C 4.839844 15.359375 4.523438 15.265625 4.523438 15.097656 C 4.515625 14.894531 4.222656 14.902344 4.308594 14.703125 C 4.308594 14.703125 4.144531 14.753906 4.144531 14.753906 L 4.074219 14.558594 C 3.90625 14.410156 3.695312 14.601562 3.734375 14.230469 C 3.390625 13.960938 3.664062 13.71875 4.019531 13.894531 C 4.105469 13.554688 4.285156 13.882812 4.449219 13.949219 C 4.5 13.894531 4.667969 13.601562 4.738281 13.695312 C 4.710938 12.886719 5.683594 14.070312 5.871094 12.925781 C 6.074219 13.019531 6.179688 12.75 5.976562 12.671875 C 6.097656 12.554688 6.054688 12.246094 6.15625 12.132812 C 6.378906 12.296875 6.375 12.128906 6.390625 11.9375 C 6.519531 11.964844 6.621094 11.917969 6.640625 11.792969 C 6.386719 11.765625 6.644531 11.355469 6.785156 11.363281 C 6.847656 11.3125 6.71875 11.015625 6.894531 11.09375 C 7.199219 10.636719 6.671875 10.84375 7.253906 10.390625 C 7.390625 10.121094 7.480469 9.71875 7.664062 9.476562 C 7.972656 9.617188 7.839844 9.199219 7.773438 9.0625 C 7.921875 8.972656 8.023438 8.574219 8.238281 8.6875 C 8.34375 8.523438 8.375 8.175781 8.582031 8.09375 C 9.007812 8.292969 8.683594 7.636719 9.171875 8.074219 C 9.429688 8.097656 9.453125 7.777344 9.679688 7.824219 C 9.675781 7.785156 9.546875 7.519531 9.710938 7.644531 C 10.40625 7.15625 9.722656 7.230469 10.464844 7.214844 C 10.433594 6.90625 10.589844 6.816406 10.863281 6.871094 C 10.890625 7.058594 11.046875 7.167969 11.222656 7.269531 C 11.445312 7.390625 11.457031 7.335938 11.507812 7.125 C 11.707031 7.207031 11.851562 7.339844 12.027344 7.214844 C 12.378906 7.347656 12.179688 7.566406 12.65625 7.355469 C 12.847656 7.558594 12.726562 7.222656 12.925781 7.554688 C 13.277344 7.523438 13.511719 7.6875 13.714844 7.320312 C 14.027344 7.550781 14.183594 7.167969 14.34375 7.753906 C 14.578125 7.8125 14.835938 7.980469 14.832031 8.253906 C 15.863281 8.175781 15.300781 7.257812 17.019531 7.449219 C 17.285156 7.171875 18.019531 7.535156 18.082031 7.035156 C 18.445312 6.792969 18.164062 6.507812 18.726562 6.441406 C 18.726562 6.441406 18.960938 6.421875 18.960938 6.421875 C 18.914062 6.332031 19.058594 6.296875 19.121094 6.28125 C 19.71875 6.257812 20.046875 6.695312 20.234375 7.179688 C 20.375 7.140625 20.28125 7.382812 20.433594 7.375 C 20.382812 7.515625 20.261719 7.589844 20.488281 7.535156 C 20.507812 7.648438 20.40625 7.953125 20.59375 7.820312 C 20.6875 8.054688 20.679688 8.40625 20.828125 8.613281 C 21.121094 8.742188 20.992188 9.160156 21.347656 9.082031 C 21.472656 9.25 21.234375 9.253906 21.4375 9.441406 C 21.40625 9.59375 21.460938 9.835938 21.652344 9.726562 C 21.984375 10.085938 22.027344 10.53125 22.445312 10.785156 C 22.726562 10.683594 22.730469 11.28125 22.714844 11.433594 C 23.144531 12.007812 23.074219 12.84375 22.855469 13.425781 C 22.71875 13.246094 22.789062 13.476562 22.730469 13.535156 C 22.722656 13.777344 22.738281 14.121094 22.625 14.359375 C 22.773438 14.679688 22.679688 15.03125 22.839844 15.347656 C 22.914062 15.675781 22.566406 16.316406 23.089844 16.28125 C 23.097656 16.671875 23.4375 16.902344 23.773438 17 C 23.9375 17.03125 24.511719 17.234375 24.277344 16.910156 C 24.503906 16.917969 24.382812 16.871094 24.367188 16.734375 C 24.523438 16.710938 24.628906 16.875 24.742188 16.929688 C 25.03125 16.367188 26.039062 16.109375 26.464844 16.695312 C 26.464844 16.695312 26.554688 16.945312 26.554688 16.945312 C 26.417969 16.976562 26.546875 17.109375 26.554688 17.175781 C 26.308594 17.109375 26.464844 17.371094 26.609375 17.304688 C 26.34375 19.570312 25.691406 17.539062 24.492188 19.605469 C 23.878906 20.558594 23.933594 19.886719 24.042969 21.023438 C 23.988281 21.28125 24.039062 21.671875 23.863281 21.9375 C 24.039062 22.5625 22.207031 22.078125 22.246094 21.273438 C 22.042969 21.46875 21.675781 21.566406 21.636719 21.203125 C 21.511719 21.089844 21.542969 21.171875 21.472656 21.257812 C 21.160156 21.28125 20.71875 21.257812 20.648438 20.914062 C 19.734375 20.714844 18.839844 21.230469 17.917969 21.347656 C 16.96875 22.515625 16.355469 22.769531 14.972656 22.242188 C 14.460938 22.550781 14.042969 21.871094 13.554688 22.316406 " fill-opacity="1" fill-rule="nonzero"/></g></svg>