<svg xmlns="http://www.w3.org/2000/svg" xmlns:xlink="http://www.w3.org/1999/xlink" width="40" zoomAndPan="magnify" viewBox="0 0 30 30.000001" height="40" preserveAspectRatio="xMidYMid meet" version="1.0"><defs><clipPath id="04866c2667"><path d="M 6.929688 2.902344 L 22.898438 2.902344 L 22.898438 26.128906 L 6.929688 26.128906 Z M 6.929688 2.902344 " clip-rule="nonzero"/></clipPath></defs><g clip-path="url(#04866c2667)"><path fill="#014d4e" d="M 22.640625 18.910156 L 22.382812 18.351562 L 21.871094 17.96875 L 21.257812 17.644531 L 21.101562 17.246094 L 21.117188 16.640625 L 20.765625 16.390625 L 20.539062 15.828125 L 20.855469 14.75 L 21.210938 14.699219 L 21.589844 14.472656 L 21.679688 13.664062 L 21.847656 13.628906 L 21.820312 13.296875 L 21.398438 13.183594 L 21.148438 12.691406 L 21.144531 12.492188 L 20.953125 12.253906 L 21.304688 12.210938 L 21.429688 11.84375 L 21.835938 12.03125 L 22.125 11.890625 L 21.960938 11.539062 L 21.566406 11.4375 L 21.105469 11.011719 L 20.875 10.984375 L 20.316406 11.3125 L 19.828125 12.265625 L 19.410156 11.886719 L 19.203125 11.339844 L 17.785156 11.28125 L 17.667969 10.71875 L 16.902344 10.625 L 16.765625 10.167969 L 17.300781 10.105469 L 17.554688 9.945312 L 16.773438 9.292969 L 17.066406 9.214844 L 17.1875 8.871094 L 17.179688 8.6875 L 17.394531 8.597656 L 17.222656 8.339844 L 16.863281 8.128906 L 16.421875 8.128906 L 16.144531 7.992188 L 16.074219 7.632812 L 15.773438 7.832031 L 15.601562 7.582031 L 15.464844 7.640625 L 14.78125 6.796875 L 14.453125 6.773438 L 14.714844 6.445312 L 14.429688 6.003906 L 14.675781 5.753906 L 14.707031 5.121094 L 14.546875 5.082031 L 14.453125 5.269531 L 14.167969 5.253906 L 14.042969 4.8125 L 13.730469 4.582031 L 13.671875 4.414062 L 13.503906 4.511719 L 13.40625 4.117188 L 12.84375 3.914062 L 12.769531 3.566406 L 12.523438 3.191406 L 12.175781 3 L 11.992188 3 L 11.839844 2.902344 L 11.691406 3.0625 L 11.488281 2.902344 L 10.734375 3.222656 L 10.328125 2.902344 L 9.589844 3.070312 L 9.691406 3.210938 L 9.359375 3.652344 L 9.015625 3.648438 L 8.703125 3.832031 L 8.835938 3.953125 L 8.25 3.917969 L 8.148438 3.6875 L 7.996094 3.710938 L 7.882812 3.851562 L 7.945312 4.09375 L 7.730469 4.09375 L 7.730469 4.316406 L 6.949219 4.382812 L 6.9375 4.511719 L 7.03125 4.535156 L 7.320312 5.46875 L 7.496094 5.792969 L 7.234375 6.292969 L 7.53125 6.449219 L 7.761719 6.320312 L 8.101562 6.601562 L 8.03125 6.753906 L 7.65625 6.707031 L 7.746094 7.148438 L 7.519531 7.285156 L 8.035156 7.652344 L 8.554688 7.992188 L 9.359375 8.273438 L 9.289062 8.484375 L 8.953125 8.457031 L 8.8125 8.226562 L 8.667969 8.265625 L 8.746094 8.503906 L 8.359375 8.316406 L 8.253906 8.609375 L 7.988281 8.671875 L 8.054688 9.253906 L 7.898438 9.546875 L 8.234375 9.53125 L 8.199219 9.742188 L 7.953125 9.910156 L 7.65625 9.855469 L 7.78125 10.140625 L 8.339844 9.804688 L 8.535156 9.964844 L 8.789062 9.90625 L 9.121094 10.027344 L 9.023438 10.425781 L 8.992188 10.863281 L 8.714844 11.082031 L 8.347656 11.832031 L 8.167969 11.957031 L 8.222656 12.582031 L 8.054688 12.738281 L 8.316406 13.300781 L 8.425781 13.226562 L 8.558594 13.371094 L 8.929688 13.335938 L 9.265625 13.882812 L 9.503906 14.199219 L 9.851562 14.554688 L 9.925781 14.4375 L 10.0625 14.703125 L 9.824219 14.804688 L 9.671875 15.023438 L 9.246094 15.007812 L 8.589844 14.703125 L 8.855469 15.457031 L 9.492188 16.082031 L 9.730469 16.539062 L 9.550781 16.855469 L 9.570312 17.023438 L 9.273438 17.039062 L 9.050781 16.890625 L 8.960938 16.996094 L 8.652344 16.855469 L 8.496094 17.277344 L 8.539062 17.625 L 8.945312 17.832031 L 9.417969 18.058594 L 9.457031 18.324219 L 9.710938 18.484375 L 9.769531 18.847656 L 10.007812 18.878906 L 10.277344 19.207031 L 10.6875 19.277344 L 10.898438 19.628906 L 11.058594 19.566406 L 11.1875 19.679688 L 11.371094 19.484375 L 11.511719 19.832031 L 12.035156 20.285156 L 12.085938 20.1875 L 12.867188 20.636719 L 12.867188 21.011719 L 12.492188 21.046875 L 12.492188 21.28125 L 12.320312 21.417969 L 11.597656 21.304688 L 11.628906 21.628906 L 11.941406 21.9375 L 11.800781 22.105469 L 11.820312 22.4375 L 12.164062 22.691406 L 12.375 23.214844 L 12.460938 23.65625 L 12.867188 23.65625 L 13.027344 23.828125 L 13.390625 24.042969 L 13.632812 24.542969 L 13.65625 25.066406 L 13.925781 25.429688 L 13.925781 25.675781 L 13.671875 25.800781 L 13.828125 26 L 13.925781 26.128906 L 14.292969 26.058594 L 14.484375 25.710938 L 14.4375 25.015625 L 15.15625 24.660156 L 15.40625 24.59375 L 15.792969 24.234375 L 16.058594 24.488281 L 16.195312 24.746094 L 16.644531 24.75 L 16.542969 24.582031 L 16.835938 24.15625 L 17.074219 24.15625 L 17.148438 23.917969 L 17.375 24.042969 L 17.625 24 L 17.660156 23.992188 L 18.003906 24.089844 L 18.351562 23.980469 L 18.558594 23.628906 L 18.960938 23.75 L 19.03125 23.558594 L 19.464844 23.765625 L 19.761719 23.75 L 20.3125 23.375 L 20.550781 23.714844 L 20.945312 23.632812 L 21.375 22.796875 L 21.125 22.523438 L 20.894531 22.382812 L 20.992188 21.953125 L 20.949219 21.691406 L 21.136719 21.414062 L 20.890625 21.027344 L 21.09375 20.886719 L 21.230469 20.710938 L 21.542969 20.710938 L 21.804688 20.84375 L 22.125 20.742188 L 22.28125 20.160156 L 22.496094 20.085938 L 22.984375 19.546875 L 23.058594 19.105469 Z M 22.640625 18.910156 " fill-opacity="1" fill-rule="nonzero"/></g></svg>