<svg xmlns="http://www.w3.org/2000/svg" xmlns:xlink="http://www.w3.org/1999/xlink" width="40" zoomAndPan="magnify" viewBox="0 0 30 30.000001" height="40" preserveAspectRatio="xMidYMid meet" version="1.0"><defs><clipPath id="868924fb47"><path d="M 3.386719 7.679688 L 26.613281 7.679688 L 26.613281 21.46875 L 3.386719 21.46875 Z M 3.386719 7.679688 " clip-rule="nonzero"/></clipPath><clipPath id="ac0945941f"><path d="M 3.386719 14 L 4 14 L 4 15 L 3.386719 15 Z M 3.386719 14 " clip-rule="nonzero"/></clipPath></defs><g clip-path="url(#868924fb47)"><path fill="#014d4e" d="M 26.414062 14.933594 L 26.511719 14.789062 L 26.460938 14.789062 L 26.351562 14.433594 L 26.460938 14.351562 L 26.460938 14.09375 L 26.253906 14.0625 L 26.125 13.851562 L 26.203125 13.722656 L 25.882812 13.511719 L 25.65625 13.351562 L 25.460938 13.398438 L 25.347656 13.140625 L 25.1875 12.800781 L 25.300781 12.691406 L 25.265625 12.445312 L 25.492188 12.511719 L 25.414062 12.300781 L 25.507812 11.929688 L 25.882812 11.867188 L 25.734375 11.605469 L 25.589844 11.105469 L 25.605469 10.28125 L 25.816406 10.023438 L 25.65625 9.863281 L 25.136719 9.8125 L 24.878906 10.039062 L 24.703125 10.347656 L 24.667969 10.070312 L 24.929688 9.765625 L 24.878906 9.378906 L 24.667969 9.3125 L 24.589844 9.183594 L 24.832031 9.152344 L 24.863281 8.941406 L 25.058594 8.875 L 25.152344 8.941406 L 25.1875 8.78125 L 25.445312 8.667969 L 25.507812 8.441406 L 25.234375 8.230469 L 25.007812 8.277344 L 25.136719 8.214844 L 25.136719 7.972656 L 24.992188 7.679688 L 24.765625 7.859375 L 24.492188 8.164062 L 24.445312 8.34375 L 24.765625 8.410156 L 24.6875 8.539062 L 24.523438 8.410156 L 24.070312 8.410156 L 23.765625 8.746094 L 23.425781 8.941406 L 22.910156 9.359375 L 22.746094 9.636719 L 22.570312 10.007812 L 22.714844 10.105469 L 22.972656 10.105469 L 22.972656 10.28125 L 22.617188 10.378906 L 22.617188 10.203125 L 22.472656 10.203125 L 22.472656 10.621094 L 22.132812 11.042969 L 22.246094 11.21875 L 21.988281 11.234375 L 21.792969 11.121094 L 21.503906 11.121094 L 21.097656 11.671875 L 20.695312 11.71875 L 20.582031 11.625 L 20.210938 11.832031 L 19.695312 12.140625 L 19.582031 12.464844 L 19.839844 12.480469 L 19.839844 12.691406 L 19.515625 12.898438 L 19.113281 13.011719 L 19.175781 13.269531 L 18.917969 13.253906 L 18.609375 12.753906 L 18.140625 12.722656 L 17.996094 12.820312 L 18.140625 13.078125 L 17.785156 13.191406 L 17.542969 13.046875 L 17.207031 13.207031 L 16.945312 13.253906 L 16.945312 13.398438 L 16.414062 13.773438 L 16.414062 13.660156 L 16.65625 13.253906 L 16.769531 12.933594 L 16.945312 12.691406 L 16.753906 12.382812 L 16.476562 12.367188 L 16.253906 12.511719 L 16.253906 12.332031 L 16.027344 12.300781 L 16.253906 12.15625 L 15.992188 12.074219 L 15.785156 12.367188 L 15.65625 12.671875 L 15.332031 12.722656 L 14.832031 12.949219 L 14.539062 13.253906 L 14.539062 13.546875 L 13.910156 13.5625 L 13.910156 13.902344 L 14.101562 14.222656 L 14.101562 14.726562 L 13.988281 14.726562 L 13.988281 14.160156 L 13.796875 13.980469 L 13.601562 13.835938 L 13.601562 14.0625 L 13.488281 14.0625 L 13.601562 14.417969 L 13.328125 14.128906 L 13.441406 13.851562 L 13.296875 13.625 L 13.296875 13.902344 L 13.039062 14.144531 L 13.085938 14.449219 L 12.890625 14.917969 L 13.246094 15 L 13.34375 15.210938 L 13.34375 15.5 L 13.246094 15.242188 L 13.132812 15 L 12.925781 15.046875 L 12.941406 15.386719 L 12.503906 15.792969 L 12.292969 15.726562 L 12.195312 15.515625 L 12.40625 15.597656 L 12.761719 15.289062 L 12.777344 15.015625 L 12.792969 14.675781 L 12.957031 14.5 L 12.859375 14.078125 L 13.085938 13.835938 L 13.019531 13.644531 L 12.777344 13.511719 L 12.457031 13.902344 L 12.277344 14.046875 L 12.261719 14.320312 L 12.148438 14.515625 L 12.261719 14.515625 L 12.390625 14.839844 L 12.214844 15.015625 L 11.972656 14.578125 L 11.550781 14.175781 L 11.46875 13.886719 L 11.339844 13.902344 L 11.390625 14.191406 L 11.390625 14.449219 L 11.195312 14.515625 L 11.292969 14.351562 L 11.066406 14.351562 L 10.757812 14.289062 L 10.597656 14.207031 L 10.597656 14.046875 L 10.175781 14.046875 L 9.820312 14.0625 L 9.53125 14.207031 L 9.433594 14.03125 L 9.5 13.820312 L 9.691406 13.867188 L 9.742188 13.5625 L 9.546875 13.351562 L 9.546875 13.578125 L 9.238281 13.804688 L 9.238281 14.046875 L 9.09375 14.144531 L 8.949219 13.949219 L 8.398438 13.964844 L 8.398438 14.207031 L 8.304688 14.207031 L 8.125 14.015625 L 8.125 13.773438 L 7.949219 13.773438 L 7.914062 13.980469 L 8.011719 14.160156 L 7.785156 14.160156 L 7.769531 13.933594 L 7.707031 13.722656 L 7.898438 13.546875 L 8.011719 13.417969 L 8.011719 13.109375 L 8.078125 12.867188 L 8.078125 13.078125 L 8.191406 13.238281 L 8.191406 13.304688 L 8.351562 13.511719 L 8.511719 13.722656 L 8.902344 13.722656 L 9.015625 13.59375 L 9.09375 13.367188 L 8.964844 13.140625 L 8.964844 12.835938 L 8.886719 12.527344 L 8.707031 12.445312 L 8.820312 12.300781 L 8.828125 12.117188 L 8.699219 12.117188 L 8.601562 12.019531 L 8.480469 11.945312 L 8.027344 12.1875 L 8.0625 12.511719 L 7.753906 12.578125 L 7.335938 13.0625 L 7.042969 13.417969 L 6.832031 13.851562 L 5.992188 13.917969 L 6.042969 14.351562 L 5.734375 14.175781 L 5.25 14.402344 L 4.910156 15.175781 L 5.105469 15.4375 L 4.925781 15.664062 L 4.976562 16.261719 L 4.621094 16.097656 L 4.523438 16.519531 L 4.878906 16.777344 L 4.734375 16.890625 L 4.78125 17.101562 L 4.683594 17.261719 L 4.75 17.457031 L 4.992188 17.535156 L 5.152344 18.019531 L 5.234375 18.214844 L 5.054688 18.214844 L 4.925781 18.523438 L 4.78125 18.359375 L 4.492188 18.472656 L 4.699219 18.699219 L 4.441406 18.667969 L 4.199219 18.828125 L 3.890625 18.730469 L 4.039062 19.214844 L 4.117188 19.734375 L 4.28125 19.703125 L 4.394531 19.910156 L 4.636719 20.152344 L 4.636719 20.347656 L 4.957031 20.445312 L 5.054688 20.75 L 5.152344 21.121094 L 5.507812 21.15625 L 5.507812 20.703125 L 5.621094 20.542969 L 5.621094 20.28125 L 5.78125 20.039062 L 6.15625 20.089844 L 6.300781 19.832031 L 6.414062 19.589844 L 6.15625 19.328125 L 6.363281 18.957031 L 6.6875 18.828125 L 6.734375 19.007812 L 7.367188 18.699219 L 7.949219 19.007812 L 7.949219 19.183594 L 8.191406 19.523438 L 8.382812 19.441406 L 8.480469 19.539062 L 8.851562 19.457031 L 8.789062 19.832031 L 9.175781 19.910156 L 9.433594 19.734375 L 9.109375 19.476562 L 9.238281 19.378906 L 9.386719 19.199219 L 9.597656 19.328125 L 9.644531 19.234375 L 9.484375 19.007812 L 9.578125 18.910156 L 9.820312 19.007812 L 10.710938 19.039062 L 11.015625 18.972656 L 11.339844 19.183594 L 11.390625 19.492188 L 11.648438 19.554688 L 11.695312 19.78125 L 12.082031 19.652344 L 12.375 19.589844 L 12.308594 19.703125 L 12.746094 20.816406 L 13.054688 20.898438 L 13.503906 20.863281 L 13.714844 21.234375 L 13.894531 21.347656 L 14.054688 21.285156 L 14.457031 21.347656 L 14.734375 21.171875 L 15.28125 21.058594 L 15.734375 21.203125 L 16.300781 21.15625 L 16.347656 21.027344 L 16.363281 20.65625 L 16.589844 20.492188 L 17.058594 20.65625 L 17.207031 20.945312 L 17.511719 20.945312 L 17.707031 20.800781 L 18.207031 20.847656 L 18.320312 20.976562 L 18.902344 20.960938 L 19.289062 20.75 L 19.5625 20.523438 L 20.242188 20.445312 L 20.402344 20.234375 L 20.515625 20.023438 L 20.484375 19.652344 L 20.5 19.378906 L 20.386719 19.363281 L 20.421875 19.199219 L 20.839844 18.910156 L 21.066406 18.957031 L 21.339844 18.910156 L 21.875 19.363281 L 22.066406 19.636719 L 22.230469 19.554688 L 22.746094 19.589844 L 23.003906 19.878906 L 23.507812 19.328125 L 23.636719 19.378906 L 23.75 20.378906 L 23.554688 20.394531 L 23.441406 20.636719 L 23.652344 20.898438 L 23.652344 21.234375 L 23.75 21.285156 L 23.894531 20.929688 L 24.152344 20.929688 L 24.445312 20.542969 L 24.539062 19.605469 L 24.492188 18.488281 L 24.199219 18.117188 L 24.085938 17.714844 L 24.183594 17.617188 L 24.347656 17.714844 L 24.605469 18.199219 L 24.894531 18.488281 L 25.203125 19.121094 L 25.316406 19.007812 L 25.300781 18.84375 L 25.574219 18.84375 L 25.363281 18.699219 L 25.074219 18.488281 L 24.894531 18.167969 L 24.929688 17.988281 L 25.152344 17.988281 L 24.71875 17.617188 L 24.183594 17.101562 L 24.023438 16.808594 L 23.78125 16.761719 L 23.957031 17.003906 L 23.910156 17.148438 L 24.054688 17.519531 L 23.863281 17.421875 L 23.730469 17.214844 L 23.265625 17.214844 L 23.265625 17.421875 L 23.199219 17.617188 L 22.972656 17.308594 L 23.003906 17.617188 L 22.84375 17.375 L 22.601562 17.375 L 22.632812 17.003906 L 22.8125 16.40625 L 22.859375 15.582031 L 23.378906 15.0625 L 23.683594 14.886719 L 23.621094 14.742188 L 23.78125 14.628906 L 23.910156 14.515625 L 23.957031 14.726562 L 24.3125 14.386719 L 24.378906 14.109375 L 24.121094 14.09375 L 24.070312 13.609375 L 23.976562 13.238281 L 24.234375 12.949219 L 24.347656 13.125 L 24.574219 13.140625 L 24.554688 12.996094 L 24.554688 12.59375 L 24.363281 12.351562 L 24.378906 12.140625 L 24.652344 12.074219 L 24.574219 12.253906 L 24.863281 12.65625 L 24.863281 13.09375 L 25.007812 13.464844 L 25.105469 14.03125 L 24.976562 14.242188 L 25.089844 14.304688 L 25.363281 14.886719 L 26.253906 15.566406 L 26.574219 15.792969 L 26.574219 15.242188 L 26.414062 14.933594 " fill-opacity="1" fill-rule="nonzero"/></g><path fill="#014d4e" d="M 10.289062 13.660156 L 10.226562 13.511719 L 10.03125 13.660156 L 10.03125 13.804688 L 10.289062 13.804688 L 10.289062 13.660156 " fill-opacity="1" fill-rule="nonzero"/><path fill="#014d4e" d="M 15.1875 11.71875 L 15.507812 11.769531 L 15.621094 11.960938 L 15.878906 11.960938 L 15.976562 11.769531 L 15.800781 11.511719 L 15.605469 11.527344 L 15.507812 11.347656 L 15.316406 11.269531 L 15.332031 11.027344 L 15.1875 10.863281 L 15.039062 11.007812 L 15.039062 11.363281 L 15.121094 11.429688 L 15.1875 11.71875 " fill-opacity="1" fill-rule="nonzero"/><path fill="#014d4e" d="M 19.113281 11.511719 L 19.320312 11.414062 L 19.320312 11.15625 L 19.207031 11.15625 L 18.886719 11.234375 L 18.722656 11.476562 L 18.964844 11.769531 L 19.113281 11.511719 " fill-opacity="1" fill-rule="nonzero"/><path fill="#014d4e" d="M 19.789062 10.976562 L 19.789062 10.816406 L 19.5 10.945312 L 19.417969 11.15625 L 19.675781 11.15625 L 19.789062 10.976562 " fill-opacity="1" fill-rule="nonzero"/><path fill="#014d4e" d="M 19.742188 11.898438 L 19.660156 11.769531 L 19.417969 11.769531 L 19.484375 12.042969 L 19.742188 11.898438 " fill-opacity="1" fill-rule="nonzero"/><path fill="#014d4e" d="M 22.714844 8.667969 L 22.796875 8.585938 L 22.714844 8.390625 L 22.457031 8.503906 L 22.457031 8.8125 L 22.714844 8.925781 L 22.714844 8.667969 " fill-opacity="1" fill-rule="nonzero"/><g clip-path="url(#ac0945941f)"><path fill="#014d4e" d="M 3.796875 14.304688 L 3.796875 14.144531 L 3.425781 14.144531 L 3.425781 14.417969 L 3.730469 14.628906 L 3.890625 14.515625 L 3.796875 14.304688 " fill-opacity="1" fill-rule="nonzero"/></g><path fill="#014d4e" d="M 11.355469 13.511719 L 11.4375 13.046875 L 11.859375 12.769531 L 12.519531 12.464844 L 12.972656 12.464844 L 13.148438 12.253906 L 13.148438 12.042969 L 12.890625 12.171875 L 12.617188 12.171875 L 12.390625 12.109375 L 12.085938 12.242188 L 11.777344 12.382812 L 11.519531 12.625 L 11.355469 12.769531 L 10.90625 13.046875 L 10.90625 13.367188 L 11.355469 13.804688 L 11.355469 13.511719 " fill-opacity="1" fill-rule="nonzero"/></svg>