<svg xmlns="http://www.w3.org/2000/svg" xmlns:xlink="http://www.w3.org/1999/xlink" width="40" zoomAndPan="magnify" viewBox="0 0 30 30.000001" height="40" preserveAspectRatio="xMidYMid meet" version="1.0"><defs><clipPath id="0787198b43"><path d="M 3.492188 4.878906 L 26.71875 4.878906 L 26.71875 24.472656 L 3.492188 24.472656 Z M 3.492188 4.878906 " clip-rule="nonzero"/></clipPath></defs><g clip-path="url(#0787198b43)"><path fill="#014d4e" d="M 25.96875 16.339844 L 23.042969 16.136719 L 21.859375 14.816406 C 21.847656 14.761719 21.78125 14.542969 21.699219 14.542969 C 21.671875 14.542969 21.648438 14.550781 21.625 14.558594 C 21.605469 14.5625 21.585938 14.566406 21.574219 14.566406 C 21.5625 14.566406 21.550781 14.566406 21.546875 14.539062 C 21.535156 14.5 21.578125 14.441406 21.617188 14.390625 C 21.644531 14.355469 21.667969 14.320312 21.679688 14.285156 C 21.695312 14.242188 21.691406 14.199219 21.675781 14.175781 C 21.667969 14.164062 21.65625 14.15625 21.640625 14.15625 C 21.625 14.15625 21.605469 14.167969 21.585938 14.191406 C 21.550781 14.234375 21.441406 14.359375 21.316406 14.359375 C 21.296875 14.359375 21.273438 14.355469 21.253906 14.347656 C 21.125 14.296875 21.046875 14.199219 20.988281 14.117188 C 20.980469 14.105469 20.972656 14.097656 20.964844 14.089844 C 20.898438 14.003906 20.714844 13.742188 20.667969 13.5625 C 20.625 13.378906 20.601562 13.320312 20.492188 13.210938 C 20.464844 13.183594 20.441406 13.160156 20.417969 13.140625 C 20.351562 13.082031 20.304688 13.039062 20.265625 12.933594 C 20.238281 12.859375 20.195312 12.792969 20.15625 12.738281 C 20.117188 12.679688 20.078125 12.628906 20.074219 12.578125 C 20.0625 12.5 20.074219 12.402344 20.085938 12.378906 C 20.085938 12.378906 20.085938 12.382812 20.089844 12.382812 C 20.101562 12.410156 20.125 12.425781 20.15625 12.425781 C 20.179688 12.425781 20.210938 12.414062 20.230469 12.390625 C 20.257812 12.363281 20.269531 12.324219 20.265625 12.285156 C 20.261719 12.238281 20.222656 12.175781 20.175781 12.105469 C 20.121094 12.027344 20.058594 11.933594 20.058594 11.855469 C 20.058594 11.820312 20.0625 11.789062 20.0625 11.765625 C 20.070312 11.675781 20.078125 11.613281 19.960938 11.550781 C 19.847656 11.492188 19.609375 11.363281 19.5625 11.238281 C 19.546875 11.199219 19.527344 11.179688 19.496094 11.179688 C 19.472656 11.179688 19.453125 11.1875 19.429688 11.199219 C 19.414062 11.207031 19.394531 11.214844 19.382812 11.214844 C 19.375 11.214844 19.367188 11.214844 19.363281 11.207031 C 19.34375 11.1875 19.332031 11.144531 19.324219 11.105469 C 19.304688 11.039062 19.285156 10.96875 19.230469 10.964844 C 19.167969 10.957031 19.085938 10.910156 19.082031 10.882812 C 19.082031 10.882812 19.082031 10.878906 19.089844 10.871094 C 19.101562 10.863281 19.121094 10.855469 19.136719 10.847656 C 19.191406 10.820312 19.238281 10.800781 19.234375 10.769531 C 19.234375 10.75 19.210938 10.738281 19.191406 10.734375 C 19.15625 10.722656 19.109375 10.71875 19.066406 10.71875 C 19 10.714844 18.941406 10.714844 18.917969 10.675781 C 18.90625 10.648438 18.890625 10.636719 18.871094 10.636719 C 18.863281 10.636719 18.855469 10.640625 18.851562 10.640625 C 18.84375 10.644531 18.839844 10.644531 18.832031 10.644531 C 18.820312 10.644531 18.800781 10.640625 18.773438 10.59375 C 18.738281 10.539062 18.714844 10.429688 18.691406 10.335938 C 18.664062 10.203125 18.644531 10.128906 18.605469 10.117188 C 18.570312 10.109375 18.484375 10.066406 18.464844 9.902344 C 18.457031 9.816406 18.4375 9.78125 18.421875 9.753906 C 18.410156 9.730469 18.398438 9.710938 18.394531 9.671875 C 18.394531 9.640625 18.347656 9.617188 18.25 9.597656 C 18.179688 9.582031 18.082031 9.566406 17.960938 9.554688 C 17.769531 9.535156 17.578125 9.527344 17.546875 9.527344 C 17.527344 9.511719 17.40625 9.425781 17.40625 9.320312 C 17.40625 9.191406 17.40625 9.054688 17.320312 9 C 17.242188 8.945312 14.6875 8.699219 14.371094 8.671875 L 11.675781 6.320312 L 11.671875 6.320312 C 11.640625 6.300781 10.894531 5.886719 10.753906 5.824219 C 10.613281 5.757812 9.945312 5.226562 9.941406 5.222656 L 9.9375 5.222656 L 8.695312 4.878906 L 8.6875 4.878906 L 8.429688 5.089844 L 6.351562 5.585938 L 7.253906 6.808594 L 6.980469 6.96875 L 6.75 7.371094 L 5.949219 7.503906 L 5.628906 7.96875 L 5.175781 8.269531 L 4 7.984375 L 3.996094 7.996094 C 3.996094 8.003906 3.820312 8.570312 3.789062 8.644531 C 3.769531 8.683594 3.765625 8.753906 3.757812 8.816406 C 3.753906 8.878906 3.75 8.941406 3.734375 8.972656 C 3.730469 8.980469 3.726562 8.992188 3.71875 9.003906 C 3.550781 9.328125 3.492188 9.484375 3.515625 9.523438 C 3.519531 9.535156 3.527344 9.539062 3.539062 9.539062 L 3.804688 9.539062 C 3.980469 9.539062 4.054688 9.609375 4.085938 9.671875 C 4.125 9.738281 4.175781 9.796875 4.21875 9.851562 C 4.257812 9.898438 4.292969 9.9375 4.308594 9.972656 C 4.324219 10.003906 4.335938 10.042969 4.351562 10.085938 C 4.375 10.164062 4.410156 10.265625 4.457031 10.347656 C 4.492188 10.40625 4.542969 10.464844 4.589844 10.511719 C 4.636719 10.5625 4.679688 10.609375 4.679688 10.636719 C 4.679688 10.65625 4.675781 10.671875 4.675781 10.691406 C 4.667969 10.722656 4.664062 10.753906 4.679688 10.796875 C 4.691406 10.824219 4.722656 10.847656 4.761719 10.875 C 4.820312 10.914062 4.882812 10.960938 4.894531 11.023438 C 4.902344 11.066406 4.902344 11.101562 4.90625 11.132812 C 4.90625 11.1875 4.910156 11.238281 4.949219 11.296875 C 4.964844 11.320312 4.988281 11.351562 5.015625 11.382812 C 5.09375 11.472656 5.195312 11.59375 5.222656 11.730469 C 5.289062 12.082031 5.378906 12.160156 5.441406 12.164062 C 5.484375 12.167969 5.511719 12.179688 5.519531 12.195312 C 5.527344 12.207031 5.523438 12.230469 5.503906 12.261719 C 5.480469 12.304688 5.464844 12.371094 5.484375 12.433594 C 5.5 12.484375 5.539062 12.519531 5.59375 12.542969 C 5.71875 12.597656 5.777344 12.71875 5.824219 12.847656 C 5.832031 12.867188 5.835938 12.890625 5.84375 12.910156 C 5.867188 12.984375 5.886719 13.054688 5.976562 13.148438 C 6.085938 13.269531 6.113281 13.371094 6.0625 13.464844 C 6.046875 13.492188 6.03125 13.515625 6.015625 13.535156 C 5.976562 13.589844 5.949219 13.628906 5.980469 13.699219 C 5.996094 13.742188 6.039062 13.808594 6.085938 13.878906 C 6.136719 13.953125 6.199219 14.046875 6.199219 14.074219 C 6.199219 14.089844 6.191406 14.105469 6.183594 14.125 C 6.167969 14.160156 6.148438 14.210938 6.207031 14.253906 C 6.214844 14.261719 6.226562 14.269531 6.238281 14.277344 C 6.304688 14.328125 6.382812 14.390625 6.484375 14.390625 C 6.5625 14.390625 6.566406 14.394531 6.613281 14.433594 C 6.632812 14.449219 6.652344 14.46875 6.683594 14.492188 C 6.722656 14.519531 6.746094 14.535156 6.765625 14.546875 C 6.800781 14.570312 6.804688 14.574219 6.875 14.648438 C 6.914062 14.691406 6.976562 14.738281 7.042969 14.785156 C 7.140625 14.855469 7.253906 14.9375 7.257812 14.996094 C 7.261719 15.066406 7.285156 15.105469 7.308594 15.152344 C 7.324219 15.175781 7.339844 15.207031 7.359375 15.25 C 7.375 15.289062 7.394531 15.324219 7.417969 15.355469 C 7.453125 15.410156 7.484375 15.460938 7.484375 15.542969 C 7.484375 15.621094 7.523438 15.675781 7.554688 15.726562 C 7.582031 15.769531 7.609375 15.808594 7.609375 15.859375 C 7.609375 15.925781 7.628906 15.949219 7.664062 15.984375 C 7.6875 16.011719 7.71875 16.042969 7.757812 16.117188 C 7.835938 16.269531 7.953125 16.566406 7.898438 16.734375 C 7.882812 16.789062 7.867188 16.839844 7.855469 16.886719 C 7.832031 16.976562 7.8125 17.054688 7.78125 17.0625 C 7.703125 17.085938 7.703125 17.199219 7.703125 17.25 C 7.703125 17.285156 7.722656 17.320312 7.75 17.363281 C 7.785156 17.410156 7.820312 17.46875 7.832031 17.542969 C 7.847656 17.652344 7.855469 17.667969 7.886719 17.710938 C 7.894531 17.726562 7.90625 17.738281 7.914062 17.757812 C 7.941406 17.796875 7.929688 17.816406 7.910156 17.847656 C 7.894531 17.875 7.875 17.910156 7.875 17.96875 C 7.867188 18.09375 7.9375 18.230469 7.992188 18.34375 L 7.996094 18.351562 C 8.027344 18.410156 8.097656 18.511719 8.171875 18.625 C 8.234375 18.714844 8.296875 18.808594 8.34375 18.878906 C 8.359375 18.90625 8.375 18.933594 8.390625 18.960938 C 8.476562 19.109375 8.554688 19.246094 8.640625 19.273438 C 8.652344 19.28125 8.667969 19.28125 8.679688 19.28125 C 8.710938 19.28125 8.738281 19.269531 8.761719 19.257812 C 8.78125 19.25 8.800781 19.238281 8.816406 19.238281 C 8.828125 19.238281 8.847656 19.242188 8.871094 19.269531 C 8.902344 19.300781 8.925781 19.335938 8.953125 19.367188 C 9 19.429688 9.050781 19.492188 9.101562 19.523438 C 9.175781 19.5625 9.441406 19.859375 9.53125 19.960938 L 9.539062 19.972656 C 9.609375 20.054688 9.664062 20.113281 9.6875 20.175781 C 9.703125 20.207031 9.730469 20.230469 9.757812 20.253906 C 9.800781 20.289062 9.839844 20.320312 9.839844 20.371094 C 9.839844 20.46875 9.910156 20.644531 9.976562 20.757812 C 10.015625 20.820312 10.019531 20.882812 10.027344 20.933594 C 10.027344 20.964844 10.03125 20.992188 10.039062 21.015625 C 10.046875 21.039062 10.066406 21.0625 10.082031 21.082031 C 10.109375 21.117188 10.128906 21.140625 10.117188 21.171875 C 10.097656 21.226562 10.109375 21.355469 10.152344 21.417969 C 10.167969 21.445312 10.191406 21.460938 10.214844 21.460938 C 10.285156 21.464844 10.367188 21.492188 10.382812 21.675781 C 10.394531 21.808594 10.445312 22.058594 10.621094 22.226562 C 10.683594 22.289062 10.792969 22.371094 10.902344 22.449219 C 11.042969 22.554688 11.191406 22.664062 11.234375 22.726562 C 11.3125 22.84375 11.339844 22.996094 11.339844 23.070312 C 11.339844 23.152344 11.417969 23.308594 11.503906 23.367188 C 11.589844 23.421875 11.71875 23.582031 11.734375 23.742188 C 11.746094 23.824219 11.757812 23.890625 11.769531 23.949219 C 11.78125 24.003906 11.789062 24.050781 11.789062 24.089844 C 11.789062 24.125 11.8125 24.144531 11.851562 24.144531 C 11.910156 24.144531 11.996094 24.101562 12.054688 24.023438 C 12.089844 23.972656 12.117188 23.964844 12.144531 23.957031 C 12.175781 23.945312 12.207031 23.9375 12.242188 23.878906 C 12.265625 23.847656 12.292969 23.820312 12.316406 23.796875 C 12.371094 23.75 12.421875 23.703125 12.375 23.609375 C 12.324219 23.503906 12.351562 23.449219 12.378906 23.382812 C 12.382812 23.375 12.390625 23.367188 12.394531 23.355469 C 12.410156 23.320312 12.390625 23.292969 12.375 23.269531 C 12.351562 23.238281 12.332031 23.207031 12.390625 23.132812 C 12.503906 22.988281 12.519531 22.957031 12.464844 22.828125 C 12.457031 22.804688 12.457031 22.785156 12.464844 22.769531 C 12.484375 22.746094 12.527344 22.730469 12.585938 22.730469 C 12.628906 22.730469 12.675781 22.742188 12.710938 22.757812 C 12.742188 22.773438 12.773438 22.808594 12.804688 22.84375 C 12.867188 22.910156 12.9375 22.984375 13.058594 22.984375 C 13.152344 22.984375 13.199219 22.960938 13.242188 22.9375 C 13.285156 22.917969 13.324219 22.898438 13.398438 22.898438 C 13.46875 22.898438 13.578125 22.902344 13.707031 22.90625 C 13.882812 22.914062 14.085938 22.921875 14.261719 22.921875 C 14.5 22.921875 14.589844 22.945312 14.765625 22.992188 C 14.8125 23.007812 14.863281 23.019531 14.925781 23.035156 C 15.09375 23.078125 15.453125 23.09375 15.769531 23.105469 C 16.027344 23.117188 16.265625 23.128906 16.355469 23.148438 C 16.480469 23.179688 16.546875 23.257812 16.613281 23.335938 C 16.652344 23.378906 16.691406 23.425781 16.746094 23.464844 C 16.777344 23.488281 16.816406 23.5 16.863281 23.5 C 16.945312 23.5 17.035156 23.453125 17.097656 23.421875 C 17.121094 23.40625 17.144531 23.394531 17.160156 23.390625 C 17.246094 23.363281 17.503906 22.953125 17.527344 22.902344 C 17.558594 22.84375 18.023438 22.09375 18.128906 22.054688 C 18.171875 22.039062 18.300781 21.960938 18.464844 21.859375 C 18.722656 21.707031 19.074219 21.492188 19.175781 21.476562 C 19.207031 21.46875 19.347656 21.453125 19.554688 21.425781 C 20.363281 21.316406 22.257812 21.070312 22.53125 20.957031 C 22.867188 20.820312 25.84375 19.59375 25.871094 19.582031 L 25.878906 19.578125 L 26.5 17.144531 L 26.5 17.136719 L 25.96875 16.339844 " fill-opacity="1" fill-rule="nonzero"/></g></svg>