<svg xmlns="http://www.w3.org/2000/svg" xmlns:xlink="http://www.w3.org/1999/xlink" width="40" zoomAndPan="magnify" viewBox="0 0 30 30.000001" height="40" preserveAspectRatio="xMidYMid meet" version="1.0"><defs><clipPath id="856d93329d"><path d="M 3.386719 9.074219 L 5 9.074219 L 5 11 L 3.386719 11 Z M 3.386719 9.074219 " clip-rule="nonzero"/></clipPath><clipPath id="89aafa910b"><path d="M 3.386719 10 L 4 10 L 4 11 L 3.386719 11 Z M 3.386719 10 " clip-rule="nonzero"/></clipPath><clipPath id="40665b91b4"><path d="M 4 9.074219 L 5 9.074219 L 5 10 L 4 10 Z M 4 9.074219 " clip-rule="nonzero"/></clipPath><clipPath id="4d5a81f3e8"><path d="M 5 9.074219 L 8 9.074219 L 8 11 L 5 11 Z M 5 9.074219 " clip-rule="nonzero"/></clipPath><clipPath id="ad88b9ac7c"><path d="M 12 19 L 14 19 L 14 19.960938 L 12 19.960938 Z M 12 19 " clip-rule="nonzero"/></clipPath><clipPath id="030b36e1fe"><path d="M 26 19 L 26.613281 19 L 26.613281 19.960938 L 26 19.960938 Z M 26 19 " clip-rule="nonzero"/></clipPath></defs><g clip-path="url(#856d93329d)"><path fill="#014d4e" d="M 3.992188 9.972656 C 3.957031 9.929688 3.929688 9.878906 3.863281 9.914062 C 3.8125 9.945312 3.804688 9.992188 3.785156 10.035156 L 3.847656 10.011719 C 3.796875 10.03125 3.746094 10.046875 3.695312 10.066406 C 3.695312 10.066406 3.703125 10.066406 3.703125 10.066406 C 3.703125 10.066406 3.703125 10.066406 3.707031 10.070312 C 3.703125 10.074219 3.695312 10.074219 3.691406 10.082031 C 3.71875 10.117188 3.746094 10.101562 3.785156 10.101562 C 3.828125 10.101562 3.847656 10.125 3.890625 10.132812 C 3.914062 10.132812 3.914062 10.113281 3.945312 10.121094 C 3.960938 10.125 3.984375 10.144531 3.996094 10.15625 C 4.03125 10.171875 4.074219 10.183594 4.097656 10.210938 C 4.167969 10.15625 4.097656 9.929688 3.992188 9.972656 Z M 3.992188 9.972656 " fill-opacity="1" fill-rule="nonzero"/></g><g clip-path="url(#89aafa910b)"><path fill="#014d4e" d="M 3.558594 10.570312 C 3.515625 10.570312 3.476562 10.621094 3.46875 10.660156 C 3.441406 10.664062 3.414062 10.671875 3.386719 10.675781 C 3.410156 10.703125 3.425781 10.765625 3.457031 10.78125 C 3.484375 10.800781 3.570312 10.789062 3.585938 10.773438 C 3.601562 10.761719 3.617188 10.726562 3.632812 10.710938 C 3.65625 10.6875 3.679688 10.691406 3.660156 10.644531 C 3.65625 10.625 3.582031 10.570312 3.558594 10.570312 Z M 3.558594 10.570312 " fill-opacity="1" fill-rule="nonzero"/></g><g clip-path="url(#40665b91b4)"><path fill="#014d4e" d="M 4.472656 9.683594 C 4.46875 9.714844 4.492188 9.753906 4.519531 9.773438 C 4.519531 9.789062 4.523438 9.808594 4.523438 9.820312 C 4.550781 9.824219 4.574219 9.882812 4.609375 9.890625 C 4.652344 9.898438 4.660156 9.820312 4.652344 9.785156 C 4.648438 9.722656 4.488281 9.546875 4.472656 9.683594 Z M 4.472656 9.683594 " fill-opacity="1" fill-rule="nonzero"/></g><g clip-path="url(#4d5a81f3e8)"><path fill="#014d4e" d="M 6.488281 10.515625 C 6.53125 10.523438 6.511719 10.488281 6.539062 10.472656 C 6.613281 10.4375 6.632812 10.585938 6.683594 10.617188 C 6.726562 10.640625 6.726562 10.617188 6.765625 10.621094 C 6.808594 10.625 6.832031 10.652344 6.867188 10.671875 C 6.929688 10.695312 7.015625 10.652344 7.0625 10.6875 C 7.097656 10.710938 7.089844 10.746094 7.140625 10.753906 C 7.164062 10.761719 7.1875 10.753906 7.210938 10.761719 C 7.246094 10.765625 7.296875 10.792969 7.324219 10.816406 C 7.347656 10.832031 7.355469 10.867188 7.390625 10.867188 C 7.386719 10.839844 7.367188 10.820312 7.355469 10.792969 C 7.371094 10.777344 7.390625 10.789062 7.414062 10.789062 C 7.441406 10.789062 7.488281 10.78125 7.511719 10.789062 C 7.574219 10.800781 7.585938 10.878906 7.636719 10.90625 C 7.675781 10.792969 7.695312 10.898438 7.777344 10.867188 C 7.765625 10.761719 7.695312 10.792969 7.636719 10.726562 C 7.570312 10.660156 7.667969 10.546875 7.546875 10.511719 C 7.5 10.496094 7.476562 10.496094 7.445312 10.527344 C 7.421875 10.546875 7.441406 10.554688 7.410156 10.570312 C 7.40625 10.570312 7.371094 10.574219 7.367188 10.574219 C 7.316406 10.570312 7.335938 10.5625 7.308594 10.535156 C 7.269531 10.496094 7.273438 10.511719 7.230469 10.503906 C 7.171875 10.496094 7.117188 10.472656 7.085938 10.421875 C 7.066406 10.390625 7.066406 10.359375 7.035156 10.335938 C 7.003906 10.308594 6.992188 10.328125 6.960938 10.320312 C 6.890625 10.308594 6.878906 10.265625 6.839844 10.214844 C 6.804688 10.164062 6.738281 10.148438 6.714844 10.089844 C 6.6875 10.03125 6.71875 9.96875 6.683594 9.90625 C 6.644531 9.847656 6.582031 9.84375 6.539062 9.789062 C 6.515625 9.757812 6.511719 9.722656 6.476562 9.703125 C 6.449219 9.679688 6.410156 9.667969 6.378906 9.652344 C 6.316406 9.621094 6.261719 9.617188 6.199219 9.597656 C 6.085938 9.566406 6.058594 9.429688 5.945312 9.414062 C 5.828125 9.402344 5.777344 9.3125 5.683594 9.25 C 5.648438 9.21875 5.605469 9.167969 5.566406 9.152344 C 5.523438 9.132812 5.453125 9.117188 5.40625 9.109375 C 5.34375 9.09375 5.339844 9.113281 5.296875 9.160156 C 5.253906 9.207031 5.242188 9.179688 5.191406 9.191406 C 5.179688 9.234375 5.222656 9.25 5.242188 9.28125 C 5.257812 9.316406 5.234375 9.355469 5.253906 9.382812 C 5.273438 9.410156 5.328125 9.390625 5.355469 9.402344 C 5.390625 9.414062 5.40625 9.441406 5.429688 9.464844 C 5.441406 9.476562 5.484375 9.507812 5.519531 9.53125 C 5.546875 9.585938 5.574219 9.632812 5.652344 9.660156 C 5.753906 9.695312 5.84375 9.785156 5.914062 9.863281 C 6.007812 9.960938 6.0625 10.089844 6.152344 10.195312 C 6.199219 10.25 6.234375 10.308594 6.304688 10.335938 C 6.335938 10.347656 6.363281 10.347656 6.390625 10.371094 C 6.417969 10.414062 6.453125 10.503906 6.488281 10.515625 Z M 6.488281 10.515625 " fill-opacity="1" fill-rule="nonzero"/></g><path fill="#014d4e" d="M 7.921875 10.878906 C 7.929688 10.894531 7.976562 10.921875 7.992188 10.925781 C 8.015625 10.9375 8.105469 10.949219 8.128906 10.9375 C 8.21875 10.878906 8.140625 10.679688 8.019531 10.75 C 7.996094 10.765625 7.96875 10.792969 7.945312 10.816406 C 7.9375 10.816406 7.921875 10.820312 7.914062 10.820312 C 7.917969 10.832031 7.902344 10.851562 7.921875 10.878906 Z M 7.921875 10.878906 " fill-opacity="1" fill-rule="nonzero"/><path fill="#014d4e" d="M 5.925781 11.382812 C 5.875 11.367188 5.808594 11.375 5.804688 11.316406 C 5.800781 11.285156 5.824219 11.277344 5.808594 11.253906 C 5.796875 11.222656 5.753906 11.222656 5.730469 11.203125 C 5.679688 11.167969 5.6875 11.082031 5.621094 11.074219 C 5.574219 11.070312 5.546875 11.109375 5.535156 11.15625 C 5.507812 11.175781 5.480469 11.191406 5.453125 11.207031 C 5.453125 11.222656 5.433594 11.257812 5.433594 11.28125 C 5.441406 11.320312 5.472656 11.351562 5.496094 11.382812 C 5.535156 11.453125 5.503906 11.527344 5.476562 11.597656 C 5.46875 11.621094 5.453125 11.625 5.472656 11.65625 C 5.476562 11.667969 5.523438 11.695312 5.527344 11.695312 C 5.570312 11.683594 5.558594 11.613281 5.566406 11.585938 C 5.574219 11.550781 5.605469 11.507812 5.636719 11.570312 C 5.660156 11.609375 5.617188 11.65625 5.621094 11.695312 C 5.628906 11.746094 5.6875 11.722656 5.710938 11.746094 C 5.734375 11.769531 5.71875 11.828125 5.734375 11.855469 C 5.753906 11.886719 5.804688 11.949219 5.828125 11.945312 C 5.871094 11.933594 5.898438 11.871094 5.894531 11.847656 C 5.886719 11.785156 5.835938 11.730469 5.875 11.667969 C 5.886719 11.636719 5.914062 11.625 5.933594 11.601562 C 5.949219 11.582031 5.9375 11.5625 5.957031 11.546875 C 5.988281 11.523438 6.0625 11.554688 6.054688 11.492188 C 6.050781 11.441406 5.957031 11.398438 5.925781 11.382812 Z M 5.925781 11.382812 " fill-opacity="1" fill-rule="nonzero"/><path fill="#014d4e" d="M 5.644531 12.136719 C 5.648438 12.074219 5.617188 12.050781 5.597656 11.984375 C 5.578125 11.925781 5.574219 11.875 5.511719 11.839844 C 5.496094 11.859375 5.441406 11.910156 5.433594 11.933594 C 5.425781 11.976562 5.492188 12 5.503906 12.03125 C 5.523438 12.066406 5.523438 12.105469 5.53125 12.140625 C 5.53125 12.191406 5.535156 12.242188 5.542969 12.292969 C 5.570312 12.308594 5.59375 12.363281 5.625 12.386719 C 5.65625 12.410156 5.644531 12.417969 5.671875 12.378906 C 5.695312 12.34375 5.679688 12.316406 5.675781 12.289062 C 5.660156 12.238281 5.636719 12.199219 5.644531 12.136719 Z M 5.644531 12.136719 " fill-opacity="1" fill-rule="nonzero"/><path fill="#014d4e" d="M 5.429688 12.464844 C 5.421875 12.484375 5.421875 12.5 5.425781 12.515625 C 5.410156 12.535156 5.402344 12.558594 5.390625 12.578125 C 5.398438 12.605469 5.398438 12.660156 5.429688 12.679688 C 5.5 12.667969 5.558594 12.550781 5.542969 12.488281 C 5.519531 12.414062 5.453125 12.367188 5.429688 12.464844 Z M 5.429688 12.464844 " fill-opacity="1" fill-rule="nonzero"/><path fill="#014d4e" d="M 6.417969 12.085938 C 6.429688 12.128906 6.515625 12.242188 6.5625 12.203125 C 6.578125 12.199219 6.605469 12.1875 6.632812 12.179688 C 6.6875 12.226562 6.742188 12.277344 6.804688 12.207031 C 6.855469 12.148438 6.855469 12.046875 6.867188 11.972656 C 6.785156 11.9375 6.839844 11.894531 6.832031 11.832031 C 6.820312 11.773438 6.765625 11.777344 6.734375 11.738281 C 6.707031 11.707031 6.71875 11.65625 6.664062 11.644531 C 6.617188 11.628906 6.59375 11.667969 6.566406 11.6875 C 6.507812 11.746094 6.386719 11.769531 6.398438 11.871094 C 6.402344 11.910156 6.4375 11.949219 6.449219 11.984375 C 6.457031 12.023438 6.414062 12.050781 6.417969 12.085938 Z M 6.417969 12.085938 " fill-opacity="1" fill-rule="nonzero"/><path fill="#014d4e" d="M 6.410156 12.328125 C 6.382812 12.363281 6.414062 12.402344 6.441406 12.429688 C 6.449219 12.441406 6.449219 12.457031 6.453125 12.46875 C 6.492188 12.480469 6.527344 12.539062 6.566406 12.558594 C 6.628906 12.582031 6.652344 12.511719 6.640625 12.464844 C 6.632812 12.398438 6.460938 12.25 6.410156 12.328125 Z M 6.410156 12.328125 " fill-opacity="1" fill-rule="nonzero"/><path fill="#014d4e" d="M 7.261719 12.917969 C 7.265625 12.878906 7.246094 12.878906 7.222656 12.84375 C 7.207031 12.816406 7.195312 12.78125 7.15625 12.78125 C 7.109375 12.777344 7.066406 12.820312 7.046875 12.855469 C 7.019531 12.894531 6.988281 12.964844 6.972656 13.019531 C 6.945312 13.035156 6.921875 13.046875 6.894531 13.0625 C 6.945312 13.082031 6.890625 13.164062 6.871094 13.195312 C 6.878906 13.257812 6.910156 13.261719 6.945312 13.273438 C 7.007812 13.296875 7.015625 13.339844 7.0625 13.375 C 7.082031 13.390625 7.105469 13.394531 7.121094 13.410156 C 7.140625 13.421875 7.15625 13.445312 7.171875 13.464844 C 7.199219 13.488281 7.207031 13.496094 7.234375 13.476562 C 7.25 13.464844 7.269531 13.421875 7.261719 13.40625 C 7.246094 13.375 7.199219 13.386719 7.1875 13.363281 C 7.171875 13.34375 7.1875 13.285156 7.191406 13.265625 C 7.179688 13.246094 7.140625 13.21875 7.140625 13.195312 C 7.140625 13.140625 7.179688 13.167969 7.207031 13.160156 C 7.234375 13.148438 7.261719 13.125 7.273438 13.097656 C 7.289062 13.058594 7.261719 13.054688 7.25 13.023438 C 7.238281 12.984375 7.261719 12.960938 7.261719 12.917969 Z M 7.261719 12.917969 " fill-opacity="1" fill-rule="nonzero"/><path fill="#014d4e" d="M 7.699219 13.472656 C 7.675781 13.449219 7.660156 13.414062 7.632812 13.394531 C 7.585938 13.363281 7.558594 13.394531 7.515625 13.410156 C 7.496094 13.417969 7.484375 13.417969 7.460938 13.417969 C 7.441406 13.40625 7.421875 13.386719 7.40625 13.371094 C 7.371094 13.367188 7.34375 13.398438 7.34375 13.441406 C 7.34375 13.460938 7.363281 13.539062 7.371094 13.546875 C 7.410156 13.59375 7.457031 13.550781 7.488281 13.546875 C 7.523438 13.542969 7.574219 13.566406 7.609375 13.585938 C 7.640625 13.597656 7.835938 13.667969 7.800781 13.574219 C 7.792969 13.539062 7.722656 13.496094 7.699219 13.472656 Z M 7.40625 13.421875 L 7.410156 13.425781 C 7.40625 13.425781 7.398438 13.425781 7.40625 13.421875 Z M 7.40625 13.421875 " fill-opacity="1" fill-rule="nonzero"/><path fill="#014d4e" d="M 8.875 13.390625 C 8.84375 13.398438 8.820312 13.484375 8.792969 13.507812 C 8.785156 13.535156 8.777344 13.585938 8.792969 13.617188 C 8.785156 13.625 8.777344 13.636719 8.773438 13.640625 C 8.804688 13.683594 8.777344 13.714844 8.84375 13.691406 C 8.875 13.683594 8.929688 13.660156 8.949219 13.625 C 8.976562 13.574219 8.945312 13.535156 8.945312 13.476562 C 8.9375 13.449219 8.945312 13.367188 8.875 13.390625 Z M 8.875 13.390625 " fill-opacity="1" fill-rule="nonzero"/><path fill="#014d4e" d="M 16.464844 15.613281 C 16.46875 15.628906 16.488281 15.632812 16.492188 15.640625 C 16.503906 15.660156 16.496094 15.675781 16.503906 15.6875 C 16.511719 15.714844 16.566406 15.878906 16.613281 15.820312 C 16.640625 15.792969 16.589844 15.65625 16.585938 15.617188 C 16.582031 15.554688 16.644531 15.476562 16.605469 15.433594 C 16.539062 15.375 16.515625 15.453125 16.503906 15.507812 C 16.488281 15.523438 16.476562 15.535156 16.460938 15.550781 C 16.460938 15.566406 16.460938 15.59375 16.464844 15.613281 Z M 16.464844 15.613281 " fill-opacity="1" fill-rule="nonzero"/><path fill="#014d4e" d="M 16.175781 16.617188 C 16.1875 16.570312 16.15625 16.523438 16.152344 16.484375 C 16.148438 16.445312 16.164062 16.386719 16.125 16.371094 C 16.082031 16.359375 16.058594 16.40625 16.0625 16.441406 C 16.042969 16.46875 16.03125 16.492188 16.015625 16.519531 C 16.042969 16.539062 16.128906 16.773438 16.175781 16.617188 Z M 16.175781 16.617188 " fill-opacity="1" fill-rule="nonzero"/><path fill="#014d4e" d="M 17.554688 17.832031 C 17.550781 17.851562 17.546875 17.871094 17.542969 17.886719 C 17.574219 17.878906 17.570312 17.929688 17.578125 17.953125 C 17.667969 17.949219 17.703125 17.785156 17.664062 17.726562 C 17.59375 17.605469 17.546875 17.769531 17.554688 17.832031 Z M 17.554688 17.832031 " fill-opacity="1" fill-rule="nonzero"/><g clip-path="url(#ad88b9ac7c)"><path fill="#014d4e" d="M 13.816406 19.75 C 13.714844 19.707031 13.667969 19.625 13.574219 19.566406 C 13.484375 19.511719 13.363281 19.515625 13.265625 19.46875 C 13.21875 19.445312 13.175781 19.410156 13.128906 19.386719 C 13.113281 19.382812 13.089844 19.371094 13.0625 19.367188 C 13.03125 19.339844 12.992188 19.304688 12.984375 19.292969 C 12.933594 19.234375 12.875 19.238281 12.8125 19.203125 C 12.785156 19.1875 12.765625 19.152344 12.738281 19.136719 C 12.703125 19.121094 12.6875 19.140625 12.65625 19.136719 C 12.578125 19.128906 12.550781 19.019531 12.488281 19.136719 C 12.460938 19.191406 12.472656 19.195312 12.515625 19.234375 C 12.554688 19.265625 12.578125 19.3125 12.613281 19.339844 C 12.683594 19.394531 12.78125 19.292969 12.777344 19.4375 C 12.824219 19.457031 12.875 19.457031 12.914062 19.472656 C 12.957031 19.492188 12.980469 19.523438 13.019531 19.542969 C 13.089844 19.570312 13.058594 19.519531 13.109375 19.496094 C 13.160156 19.472656 13.183594 19.546875 13.183594 19.582031 C 13.261719 19.558594 13.261719 19.621094 13.328125 19.632812 C 13.394531 19.640625 13.414062 19.644531 13.457031 19.714844 C 13.46875 19.738281 13.496094 19.757812 13.511719 19.773438 C 13.535156 19.8125 13.507812 19.816406 13.515625 19.84375 C 13.53125 19.882812 13.546875 19.863281 13.582031 19.859375 C 13.628906 19.851562 13.628906 19.847656 13.660156 19.871094 C 13.6875 19.890625 13.699219 19.9375 13.742188 19.9375 C 13.78125 19.9375 13.785156 19.902344 13.785156 19.863281 C 13.835938 19.839844 13.921875 19.925781 13.964844 19.894531 C 14.023438 19.863281 13.84375 19.765625 13.816406 19.75 Z M 13.816406 19.75 " fill-opacity="1" fill-rule="nonzero"/></g><path fill="#014d4e" d="M 17.199219 17.695312 C 17.1875 17.628906 17.234375 17.558594 17.191406 17.496094 C 17.15625 17.441406 17.085938 17.441406 17.042969 17.378906 C 16.992188 17.300781 16.972656 17.199219 16.917969 17.121094 C 16.890625 17.078125 16.847656 17.039062 16.796875 17.066406 C 16.773438 17.078125 16.769531 17.117188 16.742188 17.117188 C 16.730469 17.117188 16.703125 17.097656 16.6875 17.09375 C 16.660156 17.085938 16.652344 17.078125 16.628906 17.074219 C 16.605469 17.074219 16.589844 17.085938 16.566406 17.078125 C 16.519531 17.066406 16.496094 17.019531 16.453125 17.015625 C 16.433594 17.015625 16.414062 17.027344 16.390625 17.023438 C 16.367188 17.019531 16.339844 17 16.320312 16.992188 C 16.28125 16.972656 16.242188 16.9375 16.203125 16.921875 C 16.160156 16.902344 16.117188 16.9375 16.089844 16.917969 C 16.0625 16.902344 16.058594 16.839844 16.027344 16.816406 C 15.992188 16.792969 15.9375 16.800781 15.902344 16.777344 C 15.859375 16.757812 15.847656 16.714844 15.8125 16.6875 C 15.78125 16.660156 15.746094 16.660156 15.710938 16.640625 C 15.679688 16.621094 15.648438 16.585938 15.613281 16.5625 C 15.574219 16.535156 15.546875 16.519531 15.5 16.511719 C 15.449219 16.5 15.445312 16.472656 15.402344 16.457031 C 15.324219 16.417969 15.292969 16.519531 15.207031 16.484375 C 15.199219 16.511719 15.210938 16.53125 15.207031 16.558594 C 15.203125 16.597656 15.179688 16.589844 15.167969 16.617188 C 15.144531 16.652344 15.160156 16.6875 15.160156 16.738281 C 15.207031 16.761719 15.230469 16.773438 15.28125 16.761719 C 15.3125 16.75 15.351562 16.742188 15.378906 16.726562 C 15.425781 16.765625 15.453125 16.84375 15.523438 16.785156 C 15.527344 16.785156 15.539062 16.789062 15.539062 16.789062 C 15.5625 16.808594 15.585938 16.828125 15.613281 16.851562 C 15.625 16.902344 15.625 16.949219 15.589844 17.003906 C 15.628906 17.023438 15.652344 17.050781 15.683594 17.066406 C 15.675781 17.128906 15.589844 17.117188 15.65625 17.175781 C 15.707031 17.222656 15.773438 17.195312 15.808594 17.261719 C 15.824219 17.277344 15.824219 17.320312 15.835938 17.339844 C 15.859375 17.363281 15.851562 17.34375 15.878906 17.347656 C 15.925781 17.363281 16.015625 17.355469 16.042969 17.402344 C 15.992188 17.464844 16.003906 17.476562 16.0625 17.507812 C 16.085938 17.523438 16.109375 17.53125 16.125 17.550781 C 16.136719 17.566406 16.132812 17.582031 16.15625 17.597656 C 16.191406 17.617188 16.253906 17.574219 16.285156 17.589844 C 16.308594 17.597656 16.339844 17.667969 16.355469 17.683594 C 16.394531 17.667969 16.410156 17.675781 16.445312 17.699219 C 16.496094 17.730469 16.484375 17.730469 16.539062 17.707031 C 16.570312 17.695312 16.621094 17.667969 16.65625 17.679688 C 16.691406 17.695312 16.695312 17.742188 16.722656 17.769531 C 16.785156 17.746094 16.863281 17.800781 16.929688 17.820312 C 16.929688 17.808594 16.933594 17.796875 16.929688 17.785156 C 17.007812 17.824219 17.011719 17.785156 17.074219 17.746094 C 17.101562 17.769531 17.140625 17.78125 17.167969 17.804688 C 17.207031 17.832031 17.234375 17.871094 17.265625 17.898438 C 17.285156 17.847656 17.371094 17.800781 17.328125 17.746094 C 17.261719 17.753906 17.214844 17.765625 17.199219 17.695312 Z M 17.199219 17.695312 " fill-opacity="1" fill-rule="nonzero"/><path fill="#014d4e" d="M 15.261719 15.128906 C 15.296875 15.15625 15.332031 15.160156 15.363281 15.1875 C 15.394531 15.210938 15.394531 15.253906 15.410156 15.285156 C 15.429688 15.324219 15.496094 15.402344 15.535156 15.417969 C 15.605469 15.449219 15.585938 15.355469 15.636719 15.328125 C 15.6875 15.355469 15.679688 15.410156 15.710938 15.449219 C 15.730469 15.472656 15.796875 15.492188 15.824219 15.492188 C 15.816406 15.414062 15.78125 15.339844 15.765625 15.265625 C 15.75 15.183594 15.734375 15.097656 15.679688 15.03125 C 15.625 14.960938 15.550781 14.910156 15.496094 14.84375 C 15.433594 14.773438 15.417969 14.71875 15.320312 14.703125 C 15.308594 14.792969 15.40625 14.832031 15.410156 14.910156 C 15.417969 15.027344 15.328125 14.917969 15.292969 14.875 C 15.253906 14.832031 15.25 14.773438 15.207031 14.730469 C 15.191406 14.707031 15.121094 14.679688 15.109375 14.652344 C 15.105469 14.628906 15.128906 14.605469 15.128906 14.582031 C 15.128906 14.554688 15.101562 14.5 15.09375 14.472656 C 15.140625 14.445312 15.148438 14.445312 15.132812 14.390625 C 15.121094 14.320312 15.082031 14.34375 15.046875 14.300781 C 15.019531 14.269531 15.027344 14.207031 14.996094 14.167969 C 14.964844 14.128906 14.953125 14.113281 14.933594 14.066406 C 14.917969 14.023438 14.875 14.003906 14.855469 13.976562 C 14.839844 13.949219 14.84375 13.910156 14.828125 13.878906 C 14.808594 13.84375 14.78125 13.796875 14.742188 13.785156 C 14.699219 13.765625 14.648438 13.769531 14.601562 13.746094 C 14.574219 13.734375 14.550781 13.710938 14.527344 13.691406 C 14.523438 13.671875 14.515625 13.648438 14.503906 13.628906 C 14.496094 13.609375 14.460938 13.542969 14.46875 13.519531 C 14.476562 13.488281 14.515625 13.5 14.527344 13.492188 C 14.550781 13.46875 14.542969 13.457031 14.554688 13.425781 C 14.570312 13.40625 14.605469 13.390625 14.617188 13.367188 C 14.640625 13.320312 14.574219 13.222656 14.546875 13.191406 C 14.503906 13.148438 14.464844 13.136719 14.445312 13.082031 C 14.4375 13.054688 14.441406 13.019531 14.417969 12.996094 C 14.414062 12.992188 14.375 12.984375 14.363281 12.972656 C 14.320312 12.945312 14.304688 12.90625 14.292969 12.863281 C 14.265625 12.796875 14.253906 12.789062 14.195312 12.757812 C 14.148438 12.730469 14.140625 12.664062 14.089844 12.652344 C 14.019531 12.628906 14.050781 12.707031 14.039062 12.753906 C 14.011719 12.714844 13.921875 12.667969 13.886719 12.660156 C 13.84375 12.644531 13.84375 12.664062 13.808594 12.621094 C 13.785156 12.601562 13.761719 12.554688 13.734375 12.554688 C 13.730469 12.601562 13.746094 12.664062 13.75 12.710938 C 13.761719 12.765625 13.800781 12.785156 13.832031 12.835938 C 13.839844 12.859375 13.832031 12.878906 13.84375 12.894531 C 13.859375 12.917969 13.898438 12.933594 13.921875 12.941406 C 13.96875 12.96875 13.976562 12.996094 14.007812 13.042969 C 14.011719 13.058594 14.023438 13.105469 14.042969 13.140625 C 14.011719 13.160156 13.976562 13.179688 13.945312 13.191406 C 13.964844 13.242188 13.910156 13.339844 13.9375 13.390625 C 13.964844 13.4375 13.996094 13.417969 13.988281 13.484375 C 13.984375 13.527344 13.960938 13.550781 13.976562 13.597656 C 13.996094 13.644531 14.023438 13.640625 14.050781 13.683594 C 14.074219 13.71875 14.078125 13.769531 14.101562 13.804688 C 14.125 13.84375 14.152344 13.867188 14.152344 13.914062 C 14.152344 13.976562 14.144531 13.988281 14.1875 14.046875 C 14.21875 14.089844 14.242188 14.132812 14.273438 14.179688 C 14.3125 14.230469 14.320312 14.277344 14.347656 14.328125 C 14.378906 14.398438 14.394531 14.378906 14.464844 14.402344 C 14.519531 14.421875 14.527344 14.453125 14.5625 14.5 C 14.648438 14.625 14.804688 14.644531 14.90625 14.734375 C 14.953125 14.773438 14.976562 14.824219 15.023438 14.859375 C 15.074219 14.898438 15.148438 14.921875 15.175781 14.976562 C 15.203125 15.011719 15.207031 15.074219 15.261719 15.128906 Z M 15.261719 15.128906 " fill-opacity="1" fill-rule="nonzero"/><path fill="#014d4e" d="M 12.734375 14.121094 C 12.757812 14.164062 12.835938 14.191406 12.84375 14.238281 C 12.878906 14.226562 12.933594 14.199219 12.960938 14.203125 C 13.003906 14.207031 13.007812 14.246094 13.035156 14.273438 C 13.054688 14.296875 13.0625 14.292969 13.082031 14.304688 C 13.105469 14.320312 13.113281 14.332031 13.132812 14.347656 C 13.160156 14.375 13.214844 14.414062 13.207031 14.339844 C 13.242188 14.351562 13.269531 14.375 13.308594 14.390625 C 13.34375 14.402344 13.386719 14.390625 13.429688 14.402344 C 13.433594 14.367188 13.417969 14.257812 13.386719 14.238281 C 13.335938 14.199219 13.285156 14.238281 13.238281 14.179688 C 13.203125 14.132812 13.160156 14.089844 13.101562 14.066406 C 13.0625 14.046875 13.035156 14.066406 13.007812 14.066406 C 12.96875 14.066406 12.96875 14.066406 12.933594 14.050781 C 12.886719 14.03125 12.839844 14.066406 12.792969 14.050781 C 12.789062 14.011719 12.785156 13.96875 12.785156 13.925781 C 12.785156 13.925781 12.785156 13.929688 12.789062 13.929688 C 12.792969 13.894531 12.75 13.847656 12.710938 13.855469 C 12.632812 13.867188 12.691406 13.925781 12.710938 13.964844 C 12.734375 14.011719 12.703125 14.070312 12.734375 14.121094 Z M 12.734375 14.121094 " fill-opacity="1" fill-rule="nonzero"/><path fill="#014d4e" d="M 12.175781 14.097656 C 12.144531 14.105469 12.132812 14.152344 12.128906 14.195312 C 12.117188 14.21875 12.101562 14.246094 12.085938 14.269531 C 12.101562 14.296875 12.101562 14.367188 12.148438 14.382812 C 12.203125 14.40625 12.21875 14.347656 12.230469 14.304688 C 12.246094 14.253906 12.285156 14.066406 12.175781 14.097656 Z M 12.175781 14.097656 " fill-opacity="1" fill-rule="nonzero"/><path fill="#014d4e" d="M 10.792969 14.011719 C 10.773438 13.996094 10.761719 13.980469 10.761719 13.976562 C 10.742188 13.972656 10.722656 13.972656 10.707031 13.976562 C 10.695312 14.023438 10.691406 14.042969 10.664062 14.078125 C 10.625 14.125 10.636719 14.121094 10.640625 14.171875 C 10.644531 14.207031 10.632812 14.257812 10.671875 14.273438 C 10.6875 14.277344 10.699219 14.253906 10.714844 14.253906 C 10.738281 14.253906 10.734375 14.253906 10.757812 14.265625 C 10.800781 14.28125 10.816406 14.316406 10.863281 14.324219 C 10.875 14.324219 10.972656 14.328125 10.988281 14.320312 C 11.003906 14.304688 10.992188 14.28125 10.992188 14.269531 C 10.996094 14.25 10.996094 14.230469 11 14.207031 C 11.015625 14.164062 11.027344 14.121094 11 14.078125 C 10.96875 14.027344 10.867188 14.015625 10.792969 14.011719 Z M 10.746094 14.015625 C 10.742188 14.003906 10.746094 14.011719 10.746094 14.015625 Z M 10.746094 14.015625 " fill-opacity="1" fill-rule="nonzero"/><path fill="#014d4e" d="M 14.042969 15.457031 C 13.949219 15.410156 13.957031 15.335938 13.890625 15.257812 C 13.835938 15.183594 13.738281 15.148438 13.65625 15.140625 C 13.574219 15.136719 13.539062 15.109375 13.480469 15.058594 C 13.445312 15.03125 13.429688 14.996094 13.394531 14.972656 C 13.382812 14.960938 13.347656 14.949219 13.339844 14.933594 C 13.328125 14.917969 13.332031 14.882812 13.316406 14.863281 C 13.296875 14.84375 13.28125 14.835938 13.257812 14.824219 C 13.238281 14.808594 13.179688 14.769531 13.160156 14.769531 C 13.113281 14.761719 13.027344 14.8125 12.988281 14.835938 C 12.9375 14.871094 12.914062 14.894531 12.859375 14.894531 C 12.789062 14.894531 12.75 14.863281 12.691406 14.84375 C 12.640625 14.820312 12.566406 14.796875 12.515625 14.808594 C 12.449219 14.828125 12.449219 14.847656 12.382812 14.800781 C 12.308594 14.746094 12.25 14.644531 12.152344 14.675781 C 12.132812 14.65625 12.117188 14.636719 12.097656 14.621094 C 12.050781 14.636719 11.96875 14.59375 11.925781 14.566406 C 11.847656 14.507812 11.835938 14.546875 11.820312 14.632812 C 11.804688 14.699219 11.730469 14.777344 11.742188 14.84375 C 11.75 14.878906 11.773438 14.902344 11.777344 14.945312 C 11.777344 14.980469 11.773438 15.011719 11.78125 15.050781 C 11.796875 15.085938 11.824219 15.113281 11.84375 15.152344 C 11.855469 15.179688 11.859375 15.222656 11.878906 15.246094 C 11.902344 15.277344 11.941406 15.289062 11.960938 15.324219 C 11.984375 15.355469 11.996094 15.402344 12.011719 15.4375 C 12.054688 15.527344 12.128906 15.601562 12.207031 15.660156 C 12.289062 15.726562 12.296875 15.605469 12.378906 15.628906 C 12.429688 15.640625 12.4375 15.679688 12.496094 15.675781 C 12.546875 15.675781 12.578125 15.675781 12.628906 15.6875 C 12.699219 15.707031 12.757812 15.699219 12.828125 15.691406 C 12.886719 15.6875 12.9375 15.707031 12.992188 15.726562 C 12.992188 15.710938 13.003906 15.699219 13.007812 15.683594 C 13.0625 15.699219 13.113281 15.667969 13.164062 15.667969 C 13.191406 15.667969 13.21875 15.683594 13.253906 15.683594 C 13.277344 15.683594 13.3125 15.667969 13.335938 15.679688 C 13.40625 15.699219 13.339844 15.730469 13.359375 15.769531 C 13.378906 15.8125 13.484375 15.839844 13.523438 15.859375 C 13.539062 15.863281 13.5625 15.886719 13.574219 15.886719 C 13.605469 15.886719 13.609375 15.859375 13.632812 15.859375 C 13.671875 15.859375 13.714844 15.933594 13.757812 15.945312 C 13.796875 15.960938 13.910156 15.976562 13.9375 15.945312 C 13.976562 15.910156 13.957031 15.863281 14.039062 15.894531 C 14.066406 15.90625 14.085938 15.929688 14.101562 15.921875 C 14.125 15.917969 14.140625 15.878906 14.160156 15.867188 C 14.195312 15.84375 14.242188 15.851562 14.277344 15.835938 C 14.273438 15.753906 14.226562 15.660156 14.195312 15.585938 C 14.148438 15.488281 14.125 15.5 14.042969 15.457031 Z M 14.042969 15.457031 " fill-opacity="1" fill-rule="nonzero"/><path fill="#014d4e" d="M 8.566406 13.09375 C 8.554688 13.0625 8.542969 13.011719 8.519531 12.992188 C 8.492188 13.035156 8.472656 13.039062 8.441406 13.066406 C 8.402344 13.09375 8.414062 13.117188 8.382812 13.160156 C 8.355469 13.144531 8.28125 13.074219 8.269531 13.046875 C 8.242188 12.988281 8.296875 12.917969 8.253906 12.863281 C 8.226562 12.828125 8.199219 12.832031 8.1875 12.785156 C 8.175781 12.746094 8.191406 12.730469 8.171875 12.691406 C 8.15625 12.667969 8.144531 12.65625 8.125 12.636719 C 8.117188 12.628906 8.078125 12.605469 8.078125 12.59375 C 8.074219 12.558594 8.105469 12.558594 8.121094 12.535156 C 8.140625 12.480469 8.09375 12.492188 8.050781 12.480469 C 8.003906 12.464844 7.980469 12.425781 7.9375 12.410156 C 7.878906 12.386719 7.859375 12.4375 7.808594 12.433594 C 7.789062 12.429688 7.722656 12.378906 7.71875 12.355469 C 7.710938 12.3125 7.765625 12.273438 7.753906 12.226562 C 7.675781 12.226562 7.710938 12.125 7.699219 12.066406 C 7.695312 12.039062 7.6875 12.003906 7.664062 11.988281 C 7.640625 11.972656 7.613281 11.984375 7.589844 11.964844 C 7.550781 11.945312 7.558594 11.910156 7.507812 11.898438 C 7.433594 11.878906 7.457031 11.921875 7.410156 11.953125 C 7.367188 11.980469 7.339844 11.957031 7.308594 12.007812 C 7.273438 12.050781 7.292969 12.101562 7.25 12.136719 C 7.214844 12.175781 7.171875 12.175781 7.144531 12.222656 C 7.121094 12.253906 7.109375 12.292969 7.089844 12.328125 C 7.023438 12.414062 6.9375 12.289062 6.894531 12.414062 C 6.871094 12.402344 6.828125 12.351562 6.808594 12.34375 C 6.792969 12.339844 6.730469 12.351562 6.714844 12.367188 C 6.660156 12.4375 6.804688 12.484375 6.828125 12.5 C 6.84375 12.527344 6.863281 12.554688 6.882812 12.585938 C 6.882812 12.605469 6.882812 12.628906 6.882812 12.644531 C 6.882812 12.652344 6.882812 12.65625 6.882812 12.65625 C 6.882812 12.65625 6.882812 12.652344 6.886719 12.65625 C 6.894531 12.667969 6.90625 12.6875 6.914062 12.707031 C 6.960938 12.695312 6.984375 12.667969 7.03125 12.675781 C 7.078125 12.679688 7.136719 12.6875 7.167969 12.652344 C 7.210938 12.605469 7.183594 12.550781 7.261719 12.558594 C 7.289062 12.5625 7.3125 12.585938 7.34375 12.578125 C 7.363281 12.570312 7.382812 12.542969 7.40625 12.535156 C 7.476562 12.507812 7.488281 12.558594 7.546875 12.585938 C 7.566406 12.570312 7.582031 12.554688 7.59375 12.542969 C 7.636719 12.582031 7.617188 12.621094 7.640625 12.664062 C 7.652344 12.695312 7.695312 12.707031 7.71875 12.730469 C 7.738281 12.746094 7.769531 12.804688 7.722656 12.816406 C 7.710938 12.820312 7.691406 12.789062 7.671875 12.789062 C 7.652344 12.789062 7.632812 12.792969 7.617188 12.804688 C 7.621094 12.847656 7.671875 12.871094 7.699219 12.894531 C 7.71875 12.914062 7.746094 12.941406 7.765625 12.964844 C 7.777344 12.984375 7.789062 13.019531 7.800781 13.035156 C 7.839844 13.0625 7.890625 13.023438 7.929688 13.035156 C 7.988281 13.046875 7.96875 13.097656 8.015625 13.132812 C 8.039062 13.144531 8.0625 13.132812 8.085938 13.140625 C 8.101562 13.144531 8.117188 13.179688 8.136719 13.179688 C 8.15625 13.183594 8.171875 13.15625 8.195312 13.164062 C 8.207031 13.167969 8.242188 13.210938 8.253906 13.222656 C 8.320312 13.308594 8.214844 13.40625 8.347656 13.464844 C 8.371094 13.472656 8.402344 13.472656 8.425781 13.492188 C 8.445312 13.507812 8.453125 13.542969 8.480469 13.550781 C 8.507812 13.5625 8.558594 13.527344 8.601562 13.496094 C 8.609375 13.496094 8.621094 13.496094 8.628906 13.496094 C 8.644531 13.496094 8.71875 13.484375 8.722656 13.46875 C 8.726562 13.457031 8.695312 13.441406 8.695312 13.425781 C 8.695312 13.414062 8.703125 13.398438 8.703125 13.386719 C 8.699219 13.332031 8.667969 13.339844 8.648438 13.292969 C 8.625 13.21875 8.761719 13.273438 8.761719 13.179688 C 8.746094 13.035156 8.628906 13.046875 8.566406 13.09375 Z M 8.566406 13.09375 " fill-opacity="1" fill-rule="nonzero"/><path fill="#014d4e" d="M 11.785156 13.070312 C 11.808594 13.085938 11.851562 13.074219 11.878906 13.089844 C 11.90625 13.105469 11.925781 13.125 11.953125 13.140625 C 11.976562 13.113281 11.996094 13.058594 11.980469 13.023438 C 11.953125 12.972656 11.898438 13.011719 11.871094 12.957031 C 11.859375 12.941406 11.871094 12.914062 11.859375 12.894531 C 11.855469 12.886719 11.828125 12.867188 11.828125 12.863281 C 11.824219 12.835938 11.847656 12.804688 11.859375 12.769531 C 11.910156 12.8125 11.960938 12.835938 12.023438 12.886719 C 12.09375 12.945312 12.148438 13.011719 12.210938 13.070312 C 12.25 13.105469 12.3125 13.179688 12.335938 13.113281 C 12.355469 13.058594 12.304688 13.035156 12.285156 12.992188 C 12.273438 12.957031 12.289062 12.921875 12.257812 12.894531 C 12.230469 12.867188 12.179688 12.890625 12.175781 12.835938 C 12.171875 12.792969 12.210938 12.753906 12.226562 12.714844 C 12.246094 12.660156 12.234375 12.664062 12.195312 12.632812 C 12.160156 12.605469 12.054688 12.5 12.007812 12.515625 C 11.996094 12.492188 11.996094 12.46875 11.984375 12.449219 C 11.96875 12.414062 11.933594 12.390625 11.910156 12.378906 C 11.832031 12.316406 11.742188 12.273438 11.664062 12.210938 C 11.617188 12.175781 11.570312 12.152344 11.523438 12.117188 C 11.492188 12.097656 11.476562 12.054688 11.449219 12.027344 C 11.386719 11.960938 11.324219 11.972656 11.246094 11.972656 C 11.179688 11.972656 11.140625 11.925781 11.085938 11.886719 C 11.023438 11.847656 11.015625 11.878906 10.960938 11.871094 C 10.921875 11.863281 10.859375 11.8125 10.816406 11.800781 C 10.769531 11.78125 10.734375 11.753906 10.695312 11.722656 C 10.648438 11.675781 10.632812 11.648438 10.570312 11.636719 C 10.511719 11.628906 10.515625 11.625 10.492188 11.570312 C 10.445312 11.460938 10.371094 11.449219 10.285156 11.390625 C 10.195312 11.328125 10.117188 11.25 10.042969 11.179688 C 10.011719 11.148438 9.996094 11.109375 9.945312 11.109375 C 9.886719 11.109375 9.894531 11.132812 9.84375 11.089844 C 9.816406 11.058594 9.78125 11.023438 9.738281 11.03125 C 9.714844 11.039062 9.710938 11.066406 9.679688 11.066406 C 9.664062 11.066406 9.640625 11.046875 9.628906 11.042969 C 9.597656 11.03125 9.550781 11.042969 9.523438 11.027344 C 9.488281 11.015625 9.464844 10.96875 9.425781 10.949219 C 9.40625 10.949219 9.359375 10.949219 9.320312 10.949219 C 9.28125 10.9375 9.246094 10.921875 9.203125 10.90625 C 9.15625 10.925781 9.078125 10.847656 9.050781 10.804688 C 9.027344 10.769531 9.019531 10.730469 8.976562 10.714844 C 8.953125 10.703125 8.878906 10.675781 8.867188 10.703125 C 8.855469 10.71875 8.898438 10.804688 8.902344 10.824219 C 8.917969 10.871094 8.925781 10.890625 8.96875 10.914062 C 9.003906 10.9375 9.046875 10.9375 9.082031 10.953125 C 9.121094 10.972656 9.136719 11 9.171875 11.023438 C 9.238281 11.070312 9.207031 11.058594 9.207031 11.132812 C 9.207031 11.171875 9.238281 11.207031 9.265625 11.230469 C 9.320312 11.222656 9.300781 11.125 9.335938 11.089844 C 9.300781 11.027344 9.402344 11.042969 9.410156 11.097656 C 9.414062 11.132812 9.375 11.152344 9.375 11.175781 C 9.375 11.207031 9.414062 11.226562 9.441406 11.242188 C 9.539062 11.285156 9.453125 11.175781 9.527344 11.171875 C 9.589844 11.171875 9.566406 11.292969 9.5625 11.328125 C 9.597656 11.34375 9.640625 11.320312 9.660156 11.351562 C 9.683594 11.382812 9.640625 11.421875 9.679688 11.453125 C 9.71875 11.492188 9.789062 11.46875 9.835938 11.507812 C 9.867188 11.542969 9.886719 11.578125 9.925781 11.605469 C 9.964844 11.632812 9.957031 11.621094 9.957031 11.671875 C 9.957031 11.726562 9.9375 11.726562 10.003906 11.722656 C 10.054688 11.722656 10.054688 11.707031 10.089844 11.753906 C 10.132812 11.800781 10.15625 11.824219 10.214844 11.835938 C 10.285156 11.851562 10.328125 11.851562 10.363281 11.914062 C 10.398438 11.980469 10.433594 12.007812 10.492188 12.054688 C 10.558594 12.105469 10.625 12.148438 10.691406 12.199219 C 10.722656 12.222656 10.765625 12.25 10.800781 12.261719 C 10.847656 12.28125 10.890625 12.277344 10.925781 12.300781 C 10.984375 12.332031 11.015625 12.390625 11.070312 12.425781 C 11.144531 12.464844 11.230469 12.484375 11.300781 12.53125 C 11.378906 12.582031 11.421875 12.667969 11.507812 12.695312 C 11.542969 12.707031 11.632812 12.726562 11.640625 12.769531 C 11.644531 12.8125 11.582031 12.832031 11.582031 12.878906 C 11.582031 12.886719 11.601562 12.960938 11.605469 12.96875 C 11.625 13.003906 11.628906 12.988281 11.664062 12.996094 C 11.691406 13.007812 11.683594 12.988281 11.714844 13.011719 C 11.769531 13.039062 11.757812 13.058594 11.785156 13.070312 Z M 11.785156 13.070312 " fill-opacity="1" fill-rule="nonzero"/><path fill="#014d4e" d="M 25.042969 17.316406 C 24.992188 17.300781 24.949219 17.324219 24.898438 17.320312 C 24.855469 17.320312 24.824219 17.296875 24.785156 17.289062 C 24.707031 17.273438 24.667969 17.320312 24.621094 17.367188 C 24.589844 17.371094 24.558594 17.375 24.527344 17.378906 C 24.523438 17.445312 24.46875 17.445312 24.429688 17.488281 C 24.402344 17.519531 24.425781 17.539062 24.417969 17.570312 C 24.40625 17.601562 24.375 17.617188 24.367188 17.648438 C 24.328125 17.726562 24.421875 17.765625 24.492188 17.765625 C 24.519531 17.765625 24.542969 17.75 24.570312 17.75 C 24.621094 17.75 24.621094 17.777344 24.644531 17.71875 C 24.671875 17.65625 24.648438 17.570312 24.734375 17.546875 C 24.753906 17.542969 24.824219 17.542969 24.84375 17.546875 C 24.875 17.554688 24.902344 17.605469 24.933594 17.605469 C 24.980469 17.605469 25 17.554688 25 17.523438 C 25 17.472656 24.976562 17.457031 25.027344 17.421875 C 25.054688 17.402344 25.101562 17.414062 25.109375 17.371094 C 25.113281 17.332031 25.074219 17.324219 25.042969 17.316406 Z M 25.042969 17.316406 " fill-opacity="1" fill-rule="nonzero"/><path fill="#014d4e" d="M 25.097656 16.566406 C 25.101562 16.574219 25.101562 16.582031 25.105469 16.589844 C 25.097656 16.609375 25.085938 16.625 25.078125 16.644531 C 25.113281 16.664062 25.109375 16.765625 25.171875 16.714844 C 25.199219 16.695312 25.230469 16.589844 25.230469 16.558594 C 25.238281 16.417969 25.097656 16.441406 25.097656 16.566406 Z M 25.097656 16.566406 " fill-opacity="1" fill-rule="nonzero"/><path fill="#014d4e" d="M 24.355469 16.773438 C 24.351562 16.738281 24.367188 16.699219 24.316406 16.714844 C 24.292969 16.71875 24.277344 16.757812 24.273438 16.785156 C 24.277344 16.8125 24.277344 16.839844 24.28125 16.867188 C 24.277344 16.878906 24.273438 16.894531 24.265625 16.910156 C 24.265625 16.914062 24.277344 16.929688 24.28125 16.941406 C 24.355469 16.929688 24.363281 16.835938 24.355469 16.773438 Z M 24.355469 16.773438 " fill-opacity="1" fill-rule="nonzero"/><path fill="#014d4e" d="M 25.738281 18.558594 C 25.753906 18.589844 25.773438 18.617188 25.789062 18.648438 C 25.765625 18.6875 25.777344 18.761719 25.789062 18.800781 C 25.808594 18.851562 25.851562 18.914062 25.886719 18.832031 C 25.894531 18.808594 25.886719 18.78125 25.894531 18.757812 C 25.90625 18.734375 25.929688 18.726562 25.933594 18.691406 C 25.964844 18.566406 25.824219 18.511719 25.738281 18.558594 Z M 25.738281 18.558594 " fill-opacity="1" fill-rule="nonzero"/><g clip-path="url(#030b36e1fe)"><path fill="#014d4e" d="M 26.546875 19.289062 C 26.515625 19.242188 26.449219 19.171875 26.394531 19.253906 C 26.386719 19.265625 26.367188 19.332031 26.363281 19.34375 C 26.355469 19.382812 26.347656 19.378906 26.378906 19.410156 C 26.410156 19.449219 26.445312 19.484375 26.488281 19.492188 C 26.488281 19.496094 26.488281 19.496094 26.488281 19.503906 C 26.515625 19.539062 26.570312 19.554688 26.59375 19.488281 C 26.613281 19.417969 26.585938 19.339844 26.546875 19.289062 Z M 26.546875 19.289062 " fill-opacity="1" fill-rule="nonzero"/></g></svg>