<svg xmlns="http://www.w3.org/2000/svg" xmlns:xlink="http://www.w3.org/1999/xlink" width="40" zoomAndPan="magnify" viewBox="0 0 30 30.000001" height="40" preserveAspectRatio="xMidYMid meet" version="1.0"><defs><clipPath id="a6b0b58160"><path d="M 3.386719 10 L 5 10 L 5 12 L 3.386719 12 Z M 3.386719 10 " clip-rule="nonzero"/></clipPath><clipPath id="62580e4385"><path d="M 5 10 L 14 10 L 14 23.675781 L 5 23.675781 Z M 5 10 " clip-rule="nonzero"/></clipPath><clipPath id="5c871ea102"><path d="M 14 5.53125 L 17 5.53125 L 17 7 L 14 7 Z M 14 5.53125 " clip-rule="nonzero"/></clipPath><clipPath id="b231b03bdc"><path d="M 25 8 L 26.613281 8 L 26.613281 10 L 25 10 Z M 25 8 " clip-rule="nonzero"/></clipPath></defs><path fill="#014d4e" d="M 5.414062 15.726562 C 5.382812 15.699219 5.316406 15.617188 5.269531 15.617188 C 5.199219 15.617188 5.203125 15.699219 5.1875 15.753906 C 5.132812 15.914062 5.089844 16 5.285156 16.074219 C 5.382812 16.113281 5.46875 16.117188 5.554688 16.125 C 5.585938 16.140625 5.617188 16.152344 5.648438 16.167969 C 5.648438 16.167969 5.644531 16.15625 5.644531 16.15625 C 5.761719 16.136719 5.855469 16.066406 5.753906 15.953125 C 5.648438 15.839844 5.515625 15.8125 5.414062 15.726562 Z M 5.414062 15.726562 " fill-opacity="1" fill-rule="nonzero"/><path fill="#014d4e" d="M 7.003906 16.238281 C 6.921875 16.1875 6.828125 16.082031 6.722656 16.117188 C 6.636719 16.152344 6.621094 16.265625 6.660156 16.34375 C 6.648438 16.359375 6.636719 16.375 6.628906 16.394531 C 6.691406 16.414062 6.792969 16.566406 6.871094 16.613281 C 6.914062 16.640625 6.957031 16.65625 7.003906 16.625 C 7.023438 16.609375 7.023438 16.574219 7.042969 16.554688 C 7.058594 16.53125 7.09375 16.523438 7.105469 16.5 C 7.203125 16.375 7.113281 16.300781 7.003906 16.238281 Z M 7.003906 16.238281 " fill-opacity="1" fill-rule="nonzero"/><path fill="#014d4e" d="M 11.683594 14.625 C 11.789062 14.65625 11.804688 14.714844 11.886719 14.785156 C 11.941406 14.835938 12.199219 15.007812 12.242188 14.964844 C 12.316406 14.886719 12.261719 14.585938 12.257812 14.480469 C 12.257812 14.382812 12.226562 14.378906 12.128906 14.328125 C 12.042969 14.285156 11.957031 14.265625 11.871094 14.242188 C 11.816406 14.234375 11.652344 14.195312 11.601562 14.21875 C 11.542969 14.25 11.554688 14.347656 11.570312 14.433594 C 11.558594 14.449219 11.546875 14.464844 11.542969 14.484375 C 11.570312 14.578125 11.601562 14.605469 11.683594 14.625 Z M 11.683594 14.625 " fill-opacity="1" fill-rule="nonzero"/><path fill="#014d4e" d="M 12.316406 13.75 C 12.257812 13.777344 12.246094 13.839844 12.242188 13.894531 C 12.234375 13.917969 12.230469 13.953125 12.226562 13.992188 C 12.203125 14.023438 12.175781 14.0625 12.15625 14.097656 C 12.203125 14.195312 12.304688 14.253906 12.417969 14.277344 C 12.460938 14.285156 12.527344 14.308594 12.558594 14.304688 C 12.644531 14.292969 12.617188 14.25 12.660156 14.191406 C 12.699219 14.140625 12.75 14.175781 12.71875 14.078125 C 12.699219 14.019531 12.644531 13.984375 12.601562 13.9375 C 12.535156 13.875 12.433594 13.691406 12.316406 13.75 Z M 12.316406 13.75 " fill-opacity="1" fill-rule="nonzero"/><path fill="#014d4e" d="M 11.933594 12.851562 C 11.914062 12.917969 11.902344 12.972656 11.886719 13.035156 C 11.875 13.089844 11.839844 13.144531 11.824219 13.195312 C 11.785156 13.234375 11.738281 13.265625 11.703125 13.308594 C 11.652344 13.378906 11.703125 13.445312 11.769531 13.496094 C 11.832031 13.550781 11.941406 13.617188 12.011719 13.578125 C 12.054688 13.554688 12.085938 13.507812 12.128906 13.492188 C 12.171875 13.46875 12.21875 13.453125 12.269531 13.425781 C 12.355469 13.375 12.441406 13.324219 12.488281 13.234375 C 12.515625 13.191406 12.546875 13.125 12.558594 13.078125 C 12.574219 13.019531 12.5625 12.953125 12.585938 12.902344 C 12.605469 12.847656 12.65625 12.847656 12.621094 12.765625 C 12.601562 12.707031 12.554688 12.695312 12.5 12.679688 C 12.386719 12.652344 12.285156 12.703125 12.167969 12.675781 C 12.015625 12.644531 11.988281 12.71875 11.933594 12.851562 Z M 11.933594 12.851562 " fill-opacity="1" fill-rule="nonzero"/><g clip-path="url(#a6b0b58160)"><path fill="#014d4e" d="M 4.136719 10.15625 C 4.09375 10.152344 4.035156 10.167969 3.984375 10.15625 C 3.925781 10.144531 3.878906 10.113281 3.816406 10.109375 C 3.65625 10.097656 3.410156 10.34375 3.492188 10.484375 C 3.484375 10.488281 3.480469 10.496094 3.472656 10.5 C 3.480469 10.496094 3.492188 10.496094 3.496094 10.488281 C 3.511719 10.574219 3.570312 10.648438 3.613281 10.71875 C 3.671875 10.804688 3.699219 10.90625 3.757812 10.988281 C 3.871094 11.15625 4.222656 11.261719 4.324219 11.054688 C 4.414062 10.875 4.316406 10.601562 4.300781 10.402344 C 4.292969 10.289062 4.265625 10.175781 4.136719 10.15625 Z M 4.136719 10.15625 " fill-opacity="1" fill-rule="nonzero"/></g><g clip-path="url(#62580e4385)"><path fill="#014d4e" d="M 12.898438 17.707031 C 12.964844 17.597656 12.964844 17.488281 13.015625 17.363281 C 13.101562 17.132812 13.335938 16.914062 13.261719 16.644531 C 13.203125 16.589844 13.121094 16.640625 13.074219 16.65625 C 13.003906 16.683594 12.929688 16.703125 12.855469 16.726562 C 12.847656 16.703125 12.835938 16.6875 12.832031 16.675781 C 12.785156 16.589844 12.730469 16.511719 12.648438 16.453125 C 12.546875 16.375 12.46875 16.3125 12.375 16.226562 C 12.304688 16.160156 12.21875 16.097656 12.125 16.09375 C 12.039062 16.085938 11.945312 16.113281 11.855469 16.109375 C 11.761719 16.101562 11.71875 16.058594 11.660156 15.996094 C 11.613281 15.945312 11.539062 15.894531 11.5 15.839844 C 11.453125 15.773438 11.445312 15.699219 11.4375 15.625 C 11.417969 15.53125 11.425781 15.507812 11.328125 15.484375 C 11.242188 15.46875 11.210938 15.46875 11.140625 15.398438 C 11.039062 15.292969 10.972656 15.253906 10.835938 15.207031 C 10.726562 15.167969 10.640625 15.078125 10.558594 15 C 10.457031 14.90625 10.472656 14.769531 10.425781 14.648438 C 10.371094 14.519531 10.226562 14.566406 10.171875 14.433594 C 10.152344 14.371094 10.144531 14.320312 10.109375 14.269531 C 10.082031 14.234375 10.011719 14.183594 10 14.15625 C 9.9375 14.109375 9.878906 14.066406 9.8125 14.019531 C 9.800781 13.949219 9.796875 13.878906 9.808594 13.832031 C 9.824219 13.738281 9.90625 13.652344 9.9375 13.5625 C 9.96875 13.453125 9.953125 13.367188 10.023438 13.273438 C 10.085938 13.1875 10.140625 13.121094 10.09375 13.007812 C 10.070312 12.953125 9.984375 12.832031 9.949219 12.820312 C 9.9375 12.789062 9.925781 12.75 9.914062 12.71875 C 9.980469 12.578125 10.023438 12.488281 10.121094 12.367188 C 10.179688 12.304688 10.15625 12.273438 10.179688 12.195312 C 10.195312 12.132812 10.253906 12.109375 10.296875 12.066406 C 10.394531 11.957031 10.386719 11.757812 10.308594 11.636719 C 10.238281 11.535156 10.144531 11.464844 10.09375 11.359375 C 10.054688 11.277344 10.066406 11.140625 9.972656 11.101562 C 9.9375 11.085938 9.867188 11.105469 9.820312 11.101562 C 9.753906 11.085938 9.695312 11.058594 9.625 11.046875 C 9.492188 11.03125 9.351562 11.085938 9.222656 11.042969 C 9.125 11.011719 9.078125 10.902344 8.964844 10.90625 C 8.855469 10.914062 8.835938 11.015625 8.824219 11.105469 C 8.808594 11.230469 8.777344 11.328125 8.746094 11.445312 C 8.683594 11.671875 8.660156 11.957031 8.691406 12.179688 C 8.722656 12.40625 8.648438 12.59375 8.617188 12.816406 C 8.597656 12.921875 8.59375 13.03125 8.578125 13.132812 C 8.5625 13.246094 8.539062 13.25 8.449219 13.289062 C 8.363281 13.324219 8.351562 13.421875 8.273438 13.425781 C 8.1875 13.433594 8.132812 13.382812 8.046875 13.421875 C 7.960938 13.453125 7.894531 13.492188 7.800781 13.511719 C 7.730469 13.53125 7.636719 13.554688 7.628906 13.625 C 7.5625 13.667969 7.5 13.707031 7.433594 13.746094 C 7.417969 13.746094 7.402344 13.746094 7.390625 13.746094 C 7.257812 13.738281 7.128906 13.710938 6.992188 13.71875 C 6.871094 13.722656 6.789062 13.765625 6.6875 13.839844 C 6.636719 13.878906 6.601562 13.921875 6.546875 13.941406 C 6.507812 13.960938 6.460938 13.941406 6.421875 13.964844 C 6.332031 14.007812 6.347656 14.113281 6.285156 14.175781 C 6.230469 14.222656 6.160156 14.183594 6.105469 14.226562 C 5.984375 14.328125 6.101562 14.570312 5.976562 14.652344 C 5.960938 14.664062 5.917969 14.65625 5.898438 14.667969 C 5.859375 14.683594 5.84375 14.710938 5.8125 14.726562 C 5.730469 14.769531 5.675781 14.726562 5.585938 14.738281 C 5.425781 14.753906 5.359375 14.953125 5.496094 15.050781 C 5.539062 15.082031 5.597656 15.09375 5.640625 15.128906 C 5.699219 15.183594 5.753906 15.253906 5.820312 15.300781 C 5.882812 15.339844 5.933594 15.351562 6.003906 15.335938 C 6.027344 15.328125 6.058594 15.308594 6.085938 15.300781 C 6.101562 15.296875 6.132812 15.308594 6.148438 15.308594 C 6.203125 15.308594 6.289062 15.296875 6.332031 15.269531 C 6.390625 15.230469 6.414062 15.15625 6.476562 15.128906 C 6.621094 15.058594 6.734375 15.230469 6.804688 15.285156 C 6.84375 15.335938 6.875 15.386719 6.90625 15.4375 C 6.804688 15.511719 6.65625 15.617188 6.722656 15.714844 C 6.785156 15.800781 6.84375 15.8125 6.875 15.914062 C 6.914062 16.03125 6.945312 16.042969 7.066406 16.039062 C 7.160156 16.03125 7.25 16.054688 7.34375 16.007812 C 7.394531 15.980469 7.445312 15.929688 7.492188 15.882812 C 7.503906 15.914062 7.519531 15.941406 7.53125 15.972656 C 7.5625 15.996094 7.628906 16.058594 7.675781 16.09375 C 7.734375 16.128906 7.820312 16.160156 7.859375 16.226562 C 7.875 16.257812 7.859375 16.300781 7.886719 16.339844 C 7.910156 16.371094 7.960938 16.367188 7.992188 16.375 C 8.078125 16.414062 8.117188 16.488281 8.175781 16.558594 C 8.289062 16.6875 8.433594 16.796875 8.605469 16.785156 C 8.753906 16.773438 9.054688 16.714844 9.179688 16.816406 C 9.25 16.871094 9.269531 16.972656 9.339844 17.03125 C 9.398438 17.082031 9.480469 17.132812 9.5625 17.15625 C 9.5625 17.183594 9.566406 17.203125 9.566406 17.21875 C 9.566406 17.355469 9.484375 17.554688 9.554688 17.671875 C 9.59375 17.742188 9.667969 17.742188 9.714844 17.800781 C 9.765625 17.863281 9.769531 17.945312 9.824219 18.007812 C 9.886719 18.078125 9.929688 18.117188 9.972656 18.203125 C 10.007812 18.265625 10.035156 18.363281 10.101562 18.375 C 10.238281 18.402344 10.429688 18.121094 10.554688 18.300781 C 10.582031 18.335938 10.570312 18.386719 10.585938 18.429688 C 10.597656 18.460938 10.628906 18.488281 10.644531 18.519531 C 10.679688 18.589844 10.664062 18.664062 10.671875 18.734375 C 10.625 18.789062 10.582031 18.835938 10.535156 18.886719 C 10.539062 18.878906 10.539062 18.878906 10.539062 18.886719 C 10.480469 18.957031 10.507812 19.0625 10.566406 19.117188 C 10.59375 19.144531 10.621094 19.128906 10.640625 19.160156 C 10.65625 19.1875 10.640625 19.214844 10.652344 19.238281 C 10.667969 19.28125 10.699219 19.304688 10.726562 19.34375 C 10.769531 19.40625 10.769531 19.433594 10.839844 19.472656 C 10.898438 19.496094 10.941406 19.492188 10.96875 19.5625 C 11.011719 19.675781 10.9375 19.816406 10.828125 19.859375 C 10.578125 19.964844 10.296875 19.792969 10.035156 19.824219 C 9.90625 19.839844 9.765625 19.902344 9.738281 20.039062 C 9.726562 20.117188 9.738281 20.175781 9.710938 20.238281 C 9.683594 20.296875 9.664062 20.335938 9.65625 20.40625 C 9.652344 20.484375 9.640625 20.527344 9.613281 20.605469 C 9.585938 20.691406 9.605469 20.726562 9.628906 20.8125 C 9.652344 20.890625 9.691406 20.964844 9.699219 21.039062 C 9.710938 21.097656 9.683594 21.179688 9.726562 21.226562 C 9.777344 21.164062 9.929688 21.171875 10.011719 21.105469 C 10.101562 21.023438 10.164062 20.933594 10.28125 20.882812 C 10.449219 20.820312 10.378906 20.933594 10.457031 21.019531 C 10.507812 21.066406 10.597656 21.0625 10.671875 21.066406 C 10.644531 21.125 10.613281 21.199219 10.609375 21.222656 C 10.585938 21.292969 10.671875 21.398438 10.695312 21.472656 C 10.730469 21.601562 10.773438 21.582031 10.882812 21.652344 C 11.015625 21.738281 10.929688 21.839844 10.921875 21.96875 C 10.910156 22.128906 10.996094 22.167969 11.117188 22.230469 C 11.167969 22.253906 11.222656 22.28125 11.246094 22.335938 C 11.265625 22.359375 11.253906 22.402344 11.265625 22.425781 C 11.28125 22.445312 11.316406 22.453125 11.332031 22.472656 C 11.410156 22.585938 11.308594 22.757812 11.457031 22.828125 C 11.515625 22.855469 11.585938 22.816406 11.632812 22.855469 C 11.683594 22.894531 11.667969 22.960938 11.71875 23.003906 C 11.769531 23.046875 11.867188 23.058594 11.914062 23.109375 C 11.957031 23.15625 11.988281 23.226562 12.003906 23.285156 C 12.019531 23.332031 12.019531 23.457031 12.085938 23.476562 C 12.144531 23.496094 12.253906 23.382812 12.289062 23.347656 C 12.371094 23.285156 12.433594 23.195312 12.519531 23.128906 C 12.546875 23.109375 12.578125 23.089844 12.613281 23.074219 C 12.726562 23.125 12.863281 23.144531 12.976562 23.140625 C 13.214844 23.125 13.078125 22.925781 13.042969 22.785156 C 13.003906 22.65625 13.007812 22.527344 12.886719 22.4375 C 12.761719 22.351562 12.644531 22.324219 12.558594 22.1875 C 12.390625 21.929688 12.617188 21.710938 12.554688 21.453125 C 12.519531 21.324219 12.535156 21.222656 12.460938 21.097656 C 12.386719 20.980469 12.332031 20.933594 12.300781 20.796875 C 12.269531 20.65625 12.246094 20.535156 12.253906 20.382812 C 12.253906 20.339844 12.261719 20.304688 12.273438 20.261719 C 12.300781 20.207031 12.332031 20.152344 12.359375 20.105469 C 12.359375 20.109375 12.359375 20.109375 12.359375 20.109375 C 12.398438 20.046875 12.449219 19.992188 12.511719 19.9375 C 12.589844 19.863281 12.621094 19.882812 12.726562 19.878906 C 12.8125 19.875 12.832031 19.808594 12.902344 19.789062 C 12.988281 19.761719 13.042969 19.804688 13.042969 19.679688 C 13.042969 19.535156 12.921875 19.472656 12.855469 19.367188 C 12.800781 19.289062 12.820312 19.214844 12.816406 19.128906 C 12.816406 19.046875 12.789062 18.980469 12.777344 18.90625 C 12.757812 18.71875 12.832031 18.5 12.726562 18.332031 C 12.742188 18.304688 12.757812 18.273438 12.769531 18.25 C 12.792969 18.179688 12.773438 18.121094 12.777344 18.050781 C 12.761719 17.941406 12.828125 17.816406 12.898438 17.707031 Z M 12.898438 17.707031 " fill-opacity="1" fill-rule="nonzero"/></g><path fill="#014d4e" d="M 11.042969 9.730469 C 11.109375 9.753906 11.128906 9.828125 11.195312 9.839844 C 11.246094 9.851562 11.3125 9.808594 11.367188 9.800781 C 11.441406 9.796875 11.480469 9.839844 11.488281 9.730469 C 11.496094 9.667969 11.445312 9.609375 11.402344 9.566406 C 11.328125 9.484375 11.238281 9.328125 11.117188 9.351562 C 11.015625 9.371094 10.929688 9.46875 10.878906 9.554688 C 10.824219 9.582031 10.769531 9.609375 10.722656 9.640625 C 10.785156 9.667969 10.816406 9.710938 10.894531 9.726562 C 10.929688 9.730469 11 9.714844 11.042969 9.730469 Z M 11.042969 9.730469 " fill-opacity="1" fill-rule="nonzero"/><path fill="#014d4e" d="M 11.753906 8.539062 C 11.78125 8.582031 11.757812 8.628906 11.785156 8.667969 C 11.839844 8.75 12 8.753906 12.082031 8.714844 C 12.167969 8.671875 12.160156 8.539062 12.175781 8.449219 C 12.199219 8.3125 12.191406 8.226562 12.039062 8.25 C 11.953125 8.257812 11.847656 8.300781 11.78125 8.367188 C 11.726562 8.382812 11.671875 8.40625 11.625 8.425781 C 11.652344 8.449219 11.730469 8.507812 11.753906 8.539062 Z M 11.753906 8.539062 " fill-opacity="1" fill-rule="nonzero"/><g clip-path="url(#5c871ea102)"><path fill="#014d4e" d="M 14.890625 5.953125 C 14.894531 5.976562 14.902344 5.996094 14.902344 6.023438 C 14.917969 6.039062 14.949219 6.117188 14.976562 6.136719 C 15.046875 6.1875 15.046875 6.121094 15.121094 6.117188 C 15.234375 6.105469 15.375 6.320312 15.476562 6.21875 C 15.539062 6.253906 15.683594 6.335938 15.761719 6.277344 C 15.808594 6.234375 15.777344 6.167969 15.792969 6.117188 C 15.820312 6.046875 15.847656 6.046875 15.90625 6.019531 C 16.011719 5.964844 16.128906 5.929688 16.226562 5.859375 C 16.277344 5.820312 16.441406 5.746094 16.46875 5.703125 C 16.570312 5.53125 16.265625 5.605469 16.199219 5.605469 C 16.078125 5.605469 15.96875 5.617188 15.839844 5.636719 C 15.675781 5.664062 15.582031 5.644531 15.425781 5.605469 C 15.375 5.59375 15.308594 5.609375 15.253906 5.59375 C 15.167969 5.566406 15.125 5.535156 15.03125 5.542969 C 14.878906 5.558594 14.730469 5.566406 14.773438 5.738281 C 14.796875 5.816406 14.835938 5.890625 14.890625 5.953125 Z M 14.890625 5.953125 " fill-opacity="1" fill-rule="nonzero"/></g><path fill="#014d4e" d="M 18.554688 8.429688 C 18.371094 8.328125 18.273438 8.191406 18.175781 8.007812 C 18.125 7.898438 18 7.652344 17.875 7.613281 C 17.6875 7.554688 17.625 7.769531 17.46875 7.796875 C 17.367188 7.8125 17.308594 7.808594 17.210938 7.847656 C 17.164062 7.867188 17.121094 7.890625 17.070312 7.898438 C 17.058594 7.90625 17.050781 7.90625 17.039062 7.90625 C 16.96875 7.890625 16.894531 7.871094 16.824219 7.847656 C 16.648438 7.78125 16.625 7.59375 16.453125 7.527344 C 16.367188 7.496094 16.3125 7.511719 16.25 7.453125 C 16.199219 7.40625 16.171875 7.3125 16.121094 7.277344 C 16.027344 7.210938 16.042969 7.277344 15.953125 7.289062 C 15.90625 7.292969 15.871094 7.246094 15.824219 7.234375 C 15.78125 7.226562 15.765625 7.246094 15.722656 7.25 C 15.570312 7.265625 15.4375 7.394531 15.289062 7.324219 C 15.183594 7.277344 15.066406 7.121094 14.992188 7.03125 C 14.894531 6.921875 14.777344 6.835938 14.691406 6.722656 C 14.621094 6.625 14.550781 6.480469 14.4375 6.429688 C 14.359375 6.390625 14.34375 6.449219 14.261719 6.449219 C 14.203125 6.449219 14.152344 6.390625 14.101562 6.378906 C 14.015625 6.363281 13.851562 6.464844 13.820312 6.519531 C 13.757812 6.535156 13.699219 6.546875 13.632812 6.558594 C 13.570312 6.503906 13.488281 6.4375 13.464844 6.421875 C 13.429688 6.394531 13.359375 6.332031 13.308594 6.332031 C 13.234375 6.335938 13.230469 6.410156 13.175781 6.449219 C 13.078125 6.507812 12.890625 6.421875 12.847656 6.59375 C 12.835938 6.648438 12.878906 6.75 12.890625 6.804688 C 12.90625 6.878906 12.90625 6.9375 12.90625 7.019531 C 12.898438 7.191406 13.035156 7.195312 13.09375 7.339844 C 13.121094 7.40625 13.105469 7.46875 13.121094 7.535156 C 13.144531 7.613281 13.1875 7.632812 13.230469 7.691406 C 13.332031 7.828125 13.234375 8.007812 13.386719 8.121094 C 13.472656 8.179688 13.535156 8.15625 13.621094 8.171875 C 13.703125 8.191406 13.742188 8.238281 13.800781 8.28125 C 13.957031 8.394531 14.132812 8.300781 14.316406 8.34375 C 14.519531 8.398438 14.679688 8.394531 14.832031 8.554688 C 14.90625 8.628906 14.945312 8.636719 15.03125 8.683594 C 15.054688 8.699219 15.078125 8.722656 15.097656 8.75 C 15.09375 8.785156 15.082031 8.824219 15.078125 8.855469 C 15.082031 8.929688 15.109375 9.011719 15.140625 9.09375 C 15.179688 9.179688 15.195312 9.269531 15.234375 9.355469 C 15.289062 9.488281 15.5625 9.613281 15.691406 9.652344 C 15.808594 9.683594 15.871094 9.726562 15.964844 9.808594 C 16.082031 9.722656 16.179688 9.800781 16.308594 9.730469 C 16.4375 9.816406 16.523438 10.066406 16.628906 10.183594 C 16.671875 10.230469 16.785156 10.367188 16.828125 10.371094 C 16.941406 10.390625 17.027344 10.21875 17.09375 10.15625 C 17.183594 10.070312 17.269531 10.058594 17.394531 10.058594 C 17.542969 10.058594 17.558594 10.058594 17.671875 9.980469 C 17.746094 9.925781 17.871094 9.9375 17.902344 9.839844 C 17.953125 9.710938 17.789062 9.542969 17.695312 9.484375 C 17.601562 9.425781 17.515625 9.375 17.429688 9.308594 C 17.378906 9.265625 17.3125 9.195312 17.25 9.160156 C 17.207031 9.140625 17.121094 9.15625 17.109375 9.097656 C 17.101562 9.054688 17.183594 8.988281 17.214844 8.972656 C 17.226562 8.8125 17.011719 8.695312 17.226562 8.597656 C 17.316406 8.554688 17.339844 8.539062 17.414062 8.46875 C 17.464844 8.421875 17.507812 8.371094 17.582031 8.394531 C 17.640625 8.410156 17.65625 8.480469 17.703125 8.507812 C 17.78125 8.542969 17.84375 8.511719 17.910156 8.558594 C 17.96875 8.601562 18.03125 8.699219 18.074219 8.753906 C 18.109375 8.796875 18.140625 8.910156 18.183594 8.929688 C 18.257812 8.96875 18.324219 8.898438 18.382812 8.867188 C 18.453125 8.835938 18.539062 8.828125 18.605469 8.78125 C 18.761719 8.683594 18.714844 8.515625 18.554688 8.429688 Z M 18.554688 8.429688 " fill-opacity="1" fill-rule="nonzero"/><g clip-path="url(#b231b03bdc)"><path fill="#014d4e" d="M 26.558594 9.265625 C 26.535156 9.179688 26.421875 9.125 26.359375 9.082031 C 26.3125 9.050781 26.230469 8.980469 26.183594 8.980469 C 26.035156 8.980469 25.921875 9.308594 25.988281 9.414062 C 25.988281 9.417969 25.988281 9.417969 25.992188 9.425781 C 25.984375 9.441406 25.972656 9.464844 25.964844 9.480469 C 26 9.484375 26.03125 9.613281 26.0625 9.660156 C 26.105469 9.726562 26.15625 9.78125 26.203125 9.84375 C 26.347656 10.046875 26.378906 9.839844 26.40625 9.683594 C 26.433594 9.558594 26.589844 9.382812 26.558594 9.265625 Z M 26.558594 9.265625 " fill-opacity="1" fill-rule="nonzero"/></g><path fill="#014d4e" d="M 24.273438 8.839844 C 24.136719 8.601562 24.015625 8.394531 23.824219 8.207031 C 23.75 8.128906 23.570312 8.097656 23.472656 8.164062 C 23.4375 8.191406 23.367188 8.328125 23.34375 8.425781 C 23.28125 8.5 23.234375 8.570312 23.191406 8.671875 C 23.214844 8.710938 23.253906 8.75 23.296875 8.765625 C 23.351562 8.785156 23.40625 8.757812 23.453125 8.773438 C 23.535156 8.808594 23.566406 8.945312 23.621094 9.015625 C 23.699219 9.128906 23.78125 9.101562 23.894531 9.144531 C 23.988281 9.183594 24.085938 9.253906 24.183594 9.300781 C 24.238281 9.328125 24.230469 9.371094 24.296875 9.316406 C 24.328125 9.289062 24.328125 9.214844 24.34375 9.183594 C 24.382812 9.101562 24.402344 9.113281 24.382812 9.027344 C 24.367188 8.957031 24.3125 8.898438 24.273438 8.839844 Z M 24.273438 8.839844 " fill-opacity="1" fill-rule="nonzero"/><path fill="#014d4e" d="M 23 10.855469 C 22.941406 10.726562 22.882812 10.640625 22.878906 10.496094 C 22.871094 10.347656 22.886719 10.273438 22.78125 10.171875 C 22.683594 10.082031 22.5625 10.027344 22.46875 9.941406 C 22.410156 9.882812 22.410156 9.84375 22.308594 9.824219 C 22.242188 9.8125 22.175781 9.816406 22.113281 9.84375 C 22.089844 9.855469 22.0625 9.875 22.039062 9.886719 C 21.996094 9.875 21.949219 9.867188 21.90625 9.859375 C 21.847656 9.988281 21.804688 10.160156 21.722656 10.3125 C 21.621094 10.496094 21.566406 10.667969 21.503906 10.863281 C 21.480469 10.941406 21.421875 11.019531 21.433594 11.101562 C 21.4375 11.214844 21.507812 11.214844 21.574219 11.277344 C 21.640625 11.355469 21.652344 11.460938 21.691406 11.550781 C 21.734375 11.65625 21.824219 11.699219 21.882812 11.789062 C 21.9375 11.875 21.960938 12.003906 21.996094 12.101562 C 22.019531 12.160156 22.039062 12.347656 22.105469 12.378906 C 22.175781 12.410156 22.382812 12.261719 22.441406 12.21875 C 22.5 12.175781 22.5625 12.136719 22.613281 12.101562 C 22.671875 12.0625 22.691406 12.0625 22.710938 11.992188 C 22.75 11.863281 22.714844 11.816406 22.839844 11.722656 C 22.949219 11.648438 23.035156 11.542969 23.136719 11.460938 C 23.242188 11.378906 23.277344 11.375 23.214844 11.226562 C 23.152344 11.089844 23.0625 10.984375 23 10.855469 Z M 23 10.855469 " fill-opacity="1" fill-rule="nonzero"/></svg>