<svg xmlns="http://www.w3.org/2000/svg" xmlns:xlink="http://www.w3.org/1999/xlink" width="40" zoomAndPan="magnify" viewBox="0 0 30 30.000001" height="40" preserveAspectRatio="xMidYMid meet" version="1.0"><defs><clipPath id="4dd900e77d"><path d="M 3.386719 4.574219 L 26.613281 4.574219 L 26.613281 24.167969 L 3.386719 24.167969 Z M 3.386719 4.574219 " clip-rule="nonzero"/></clipPath></defs><g clip-path="url(#4dd900e77d)"><path stroke-linecap="butt" transform="matrix(0.0249445, 0, 0, 0.0249445, 3.387096, 4.576094)" fill-opacity="1" fill="#014d4e" fill-rule="nonzero" stroke-linejoin="miter" d="M 176.783741 70.08061 L 176.783741 186.119553 L 122.444317 186.119553 L 122.131122 430.412065 L 122.131122 436.989171 L 118.05958 434.640205 L 112.42206 433.230825 L 101.147021 432.291238 L 95.352904 432.761032 L 92.220949 433.700618 L 89.558787 434.9534 L 87.366418 435.423194 L 84.077865 436.989171 L 82.825083 435.736389 L 80.632714 435.423194 L 79.693128 435.423194 L 78.12715 434.9534 L 72.959424 434.796802 L 71.550044 435.579791 L 69.670871 438.711747 L 67.791698 441.060713 L 66.538915 442.0003 L 64.972938 443.879473 L 62.623971 443.879473 L 62.623971 449.67359 L 65.442731 451.239568 C 65.442731 451.239568 65.755927 449.830188 65.912524 452.179154 C 66.069122 454.684719 66.069122 454.684719 66.069122 454.684719 L 66.695513 456.877087 L 66.538915 459.069456 L 65.755927 461.261825 L 66.695513 461.261825 L 66.695513 462.827802 L 66.069122 463.767389 L 64.503145 465.959758 L 62.623971 466.742746 L 62.623971 467.838931 L 64.033351 467.838931 L 63.876753 470.970886 L 59.961809 470.970886 L 56.203463 474.572635 L 54.167692 477.078199 L 52.91491 477.078199 L 52.91491 481.149741 L 50.565944 481.149741 C 50.565944 481.149741 50.879139 480.836545 49.626357 482.245925 C 48.530173 483.655305 48.530173 483.655305 48.530173 483.655305 L 49.313161 487.570249 L 50.879139 490.389009 L 51.035737 492.42478 L 50.565944 493.677562 L 46.024608 493.677562 L 44.145435 495.556735 L 38.821111 495.556735 L 37.411731 496.339724 L 35.062765 498.062299 L 33.183592 498.845288 L 33.183592 499.784875 L 32.400603 501.194254 L 32.400603 503.856416 C 32.400603 503.856416 32.557201 503.073428 34.279776 503.856416 C 35.845754 504.639405 35.845754 504.639405 35.845754 504.639405 L 36.158949 507.301567 L 35.845754 509.18074 C 35.845754 509.18074 35.532558 508.867545 36.158949 510.433523 C 36.628743 511.9995 36.628743 511.9995 36.628743 511.9995 L 36.628743 513.40888 L 36.158949 514.661662 L 34.906167 514.661662 L 34.749569 516.071042 L 36.78534 518.889802 L 41.170078 518.889802 L 42.266262 520.455779 L 43.362446 521.708562 L 42.266262 523.587735 L 41.170078 524.997115 L 41.170078 525.936701 L 39.917296 525.936701 L 38.664513 526.876288 L 37.724927 527.189483 L 37.568329 528.598863 L 36.315547 529.851645 L 32.557201 529.851645 L 31.304419 531.104427 L 28.485659 530.94783 L 28.485659 532.670405 L 27.232877 533.609992 L 23.944324 533.609992 L 23.161335 534.862774 L 23.161335 537.055142 L 22.06515 537.838131 L 18.776597 540.656891 L 18.463402 541.43988 L 17.523815 542.692662 L 16.271033 543.945444 L 15.957838 544.571835 L 15.957838 545.354824 L 18.150206 546.764204 L 18.776597 547.233997 L 19.246391 548.173584 L 18.933195 549.11317 L 18.463402 549.896159 L 18.150206 550.52255 L 19.872782 552.714919 L 20.342575 554.124299 L 21.438759 555.533679 L 22.534944 556.316667 L 23.787726 556.316667 L 23.787726 562.737176 L 24.570715 563.676762 L 25.197106 564.929544 C 25.197106 564.929544 25.980095 563.83336 26.606486 564.929544 C 27.232877 565.869131 27.232877 565.869131 27.232877 565.869131 L 27.389474 568.0615 L 27.389474 569.001086 L 25.980095 571.036857 L 23.317933 573.229226 L 22.221748 573.229226 L 22.06515 575.264997 L 21.125564 576.361181 L 20.342575 577.457366 L 19.559586 578.240354 L 19.402988 579.179941 L 15.80124 579.179941 L 15.80124 580.745919 L 12.199491 580.745919 L 12.199491 582.311896 L 11.103307 582.938287 L 10.476916 584.034472 L 10.16372 584.660863 L 8.127949 584.660863 L 7.658156 584.81746 L 7.658156 585.443852 L 6.561972 588.575807 L 4.526201 590.141784 L 4.526201 592.490751 L 3.743212 594.056729 L 3.743212 596.249097 L 2.960223 597.032086 L 2.647028 597.971673 L 0.767855 597.971673 L 0.767855 600.007444 L 2.020637 600.633835 L 3.116821 600.633835 L 3.743212 601.573421 L 3.586614 603.922388 L 3.586614 605.018572 L 4.526201 605.018572 L 5.152592 606.741147 L 6.248776 607.524136 L 6.71857 607.524136 L 7.658156 609.403309 L 8.597743 609.403309 L 10.16372 609.873103 L 11.5731 609.873103 L 12.356089 609.090114 C 12.356089 609.090114 12.199491 609.090114 13.139078 608.933516 C 14.235262 608.933516 13.608871 608.933516 14.235262 608.933516 C 14.861653 608.933516 14.861653 608.933516 14.861653 608.933516 L 16.427631 608.776918 L 17.21062 608.463723 L 18.776597 608.150527 L 19.872782 607.524136 L 21.125564 606.741147 L 21.908553 605.644963 L 22.221748 604.861974 L 22.534944 603.76579 L 22.534944 602.982801 L 23.47453 603.609192 L 24.414117 604.392181 L 26.29329 605.644963 L 29.738441 607.367539 L 31.93081 607.837332 L 33.340189 608.150527 L 34.123178 608.776918 L 35.532558 609.246712 L 37.098536 609.090114 L 37.098536 610.969287 L 36.158949 612.065471 L 35.689156 613.631449 L 34.749569 614.727633 L 34.436374 615.66722 L 34.123178 616.137013 L 33.966581 616.763404 L 31.461016 619.89536 L 31.617614 620.834946 L 32.244005 621.617935 L 33.496787 622.244326 L 34.592972 626.785661 L 35.062765 628.038443 L 35.219363 629.761019 L 35.689156 630.38741 L 36.158949 631.483594 L 36.78534 632.423181 L 37.724927 634.928745 L 37.411731 636.338125 L 37.724927 637.590907 L 37.568329 638.373896 L 37.098536 639.626678 L 36.941938 640.409667 L 36.472145 640.87946 L 36.472145 642.132242 L 36.628743 642.915231 L 36.941938 643.541622 L 39.447502 643.541622 L 40.073893 642.758633 L 40.230491 641.975644 L 41.483273 641.662449 L 42.109664 641.975644 L 43.988837 641.349253 L 45.085022 640.87946 L 46.337804 641.036058 L 46.494402 642.132242 L 45.554815 643.541622 L 44.771826 649.648935 L 43.675642 654.503465 L 42.42286 659.044801 L 42.109664 662.646549 L 42.266262 665.935102 L 43.362446 666.874689 L 47.433988 672.042415 L 49.156564 672.825404 L 52.131921 672.825404 L 53.228106 674.234784 C 53.228106 674.234784 53.071508 674.547979 53.541301 674.861175 C 54.167692 675.17437 54.167692 675.17437 54.167692 675.17437 L 54.480888 676.740348 L 54.32429 677.523337 C 54.32429 677.523337 55.420474 677.523337 55.73367 677.523337 C 56.203463 677.523337 62.937167 677.523337 62.937167 677.523337 L 62.937167 682.847661 L 63.876753 682.847661 L 64.972938 683.63065 L 65.599329 683.63065 L 65.442731 688.798376 L 64.033351 692.556722 L 62.310776 695.845275 L 61.527787 698.194242 L 61.214592 700.699806 L 60.744798 701.952588 L 59.961809 702.735577 L 59.648614 706.337325 L 62.623971 708.84289 L 63.876753 711.035258 L 65.912524 714.323811 L 66.538915 715.889789 L 67.321904 717.142571 L 68.574686 717.142571 L 70.767055 718.865147 L 73.116022 720.431124 L 74.838597 721.527309 L 76.404575 723.876275 L 80.162921 727.164828 L 83.608072 730.453381 L 95.039709 749.871504 L 103.026195 762.555923 L 104.122379 765.374682 L 104.278977 770.072615 C 104.278977 770.072615 104.592172 770.229213 104.74877 770.542409 C 104.74877 770.855604 104.74877 773.047973 104.74877 773.047973 L 104.905368 774.300755 L 104.905368 774.770548 L 103.652586 776.02333 L 106.001552 776.962917 L 124.32349 776.962917 L 126.985652 776.336526 L 127.14225 775.396939 L 127.455446 774.144157 L 127.925239 773.830962 L 128.55163 773.361168 L 129.804412 773.361168 L 131.37039 773.204571 L 131.996781 773.047973 L 133.562759 770.855604 L 137.321105 770.072615 L 139.670071 769.446224 L 140.922853 769.916018 L 142.175636 769.916018 L 143.27182 769.75942 L 144.6812 768.976431 L 145.150993 768.35004 L 148.752742 767.410453 L 149.692328 768.036844 L 150.475317 768.663236 L 158.774999 769.133029 L 161.280563 766.94066 L 162.376747 769.133029 L 163.786127 769.602822 L 165.508702 768.663236 L 167.231278 767.880247 L 173.651786 763.965303 L 174.434775 762.555923 L 174.74797 760.363554 L 179.915697 753.473252 L 179.445903 749.871504 L 178.97611 748.305526 L 178.662915 745.173571 L 179.132708 743.450995 L 179.915697 742.198213 L 183.360847 740.632236 L 197.767842 737.030487 L 204.971339 736.560694 L 209.356076 736.247498 L 210.922054 735.777705 L 212.801227 736.247498 L 215.463389 735.151314 L 217.655758 734.838118 L 219.848127 734.368325 L 221.257506 734.994716 L 224.232864 735.777705 L 225.798842 737.030487 L 225.798842 748.462124 L 229.087395 749.245113 L 231.749557 750.654493 L 233.472132 752.377068 L 234.411719 754.412839 L 237.230478 760.050358 L 240.205836 761.616336 L 243.337791 764.278498 L 247.722529 778.84209 L 250.071495 781.347654 L 252.420461 782.443839 L 255.709014 783.383425 L 262.129523 785.575794 L 270.272607 787.454967 L 281.391048 783.226828 L 289.847327 780.408068 L 313.650187 779.938275 L 320.070696 779.938275 L 323.672444 780.25147 L 327.117595 780.25147 L 330.406148 780.564666 L 331.972126 780.564666 L 335.104081 780.408068 L 342.777371 795.754649 L 381.457019 795.754649 L 382.866399 794.188671 L 382.553203 791.683107 L 383.962583 787.141772 L 386.624745 785.106001 L 397.586589 776.02333 L 397.586589 773.987559 L 401.344935 773.047973 L 403.380706 772.264984 L 426.557175 772.421582 L 426.557175 753.943046 L 448.950655 742.824604 C 448.950655 742.824604 452.865599 742.354811 454.588175 744.077387 C 456.154153 745.643364 474.945884 757.388196 476.825057 758.171185 C 478.547633 758.954174 484.968141 765.53128 484.968141 765.53128 L 492.328236 770.699006 L 496.712973 775.240342 L 498.278951 772.891375 L 523.021398 772.734777 L 528.972113 767.410453 L 541.499934 751.750677 L 549.956213 742.981202 L 551.991984 741.102029 C 551.991984 741.102029 556.689917 731.23637 557.942699 729.983588 C 559.352079 728.730806 560.291666 724.032873 561.074654 723.406482 C 561.857643 722.780091 563.423621 720.900917 564.989599 720.900917 C 566.555576 720.900917 572.036498 715.576593 572.036498 715.576593 L 578.770202 709.939074 L 586.443492 702.422381 L 588.635861 700.856404 L 583.624732 691.930331 L 584.564319 663.27294 L 569.06114 649.96213 L 603.512649 649.648935 L 605.705017 647.456566 L 606.488006 643.69822 L 605.391822 638.843689 L 605.391822 633.519365 L 620.738403 633.832561 L 635.145397 633.832561 L 631.543648 640.096471 L 631.073855 646.986773 L 628.724889 659.357996 L 624.653347 668.127471 C 624.653347 668.127471 632.170039 706.807119 632.170039 708.84289 C 632.170039 711.035258 631.230453 714.950202 631.230453 714.950202 L 643.914872 720.431124 L 647.203425 723.406482 L 654.56352 734.05513 L 660.044441 738.439867 L 662.23681 740.632236 L 668.030927 751.437481 L 672.259067 751.124286 L 673.355251 755.978817 L 673.355251 765.374682 L 670.223296 771.325398 L 667.561134 774.613951 L 667.091341 782.287241 L 666.778145 786.045587 L 679.462564 786.045587 L 679.462564 782.443839 L 686.822659 764.748291 L 686.822659 756.761805 L 692.773374 751.437481 L 692.773374 748.775319 L 694.182754 745.799962 L 694.182754 742.824604 L 692.773374 739.849247 L 692.773374 737.030487 L 691.67719 730.453381 L 690.581005 728.261012 L 690.894201 724.972459 L 696.844916 719.804733 L 699.976871 713.227627 L 708.43315 708.059901 L 715.323452 714.323811 L 717.985614 716.51618 L 717.985614 718.082158 L 719.864787 718.865147 L 722.683547 717.299169 L 722.683547 713.540823 L 724.56272 711.974845 L 726.128698 710.565465 L 727.538078 710.25227 L 729.260653 709.625878 C 728.947458 707.746705 727.851273 706.337325 727.851273 706.337325 L 727.224882 702.735577 L 728.164469 699.760219 L 729.260653 695.062286 L 729.260653 690.520951 L 727.538078 688.328583 L 729.260653 683.160856 L 731.139826 681.125085 L 732.549206 679.559108 L 732.549206 675.330968 L 734.741575 673.921588 L 735.211368 669.536851 L 734.741575 666.561493 L 732.549206 661.86356 C 732.549206 661.86356 739.126312 654.973259 740.69229 653.563879 C 742.258267 652.154499 745.077027 650.275326 745.077027 650.275326 L 745.077027 648.709348 L 750.871145 638.843689 L 759.640619 625.063086 L 766.530921 611.908874 L 768.72329 609.716505 L 771.228854 610.186298 L 773.57782 609.873103 L 775.770189 609.559907 L 778.745547 608.776918 L 785.322653 606.114756 L 789.70739 606.114756 L 791.273368 607.99393 L 794.561921 608.150527 L 794.718518 605.17517 L 794.875116 602.826203 L 795.34491 601.573421 L 795.658105 599.53765 L 795.658105 596.875488 L 794.248725 595.466108 C 793.778932 593.27374 793.778932 593.27374 793.778932 593.27374 L 795.658105 591.707762 L 795.658105 589.671991 L 797.224083 585.130656 L 800.825831 572.133042 L 801.295625 569.940673 L 807.559535 560.231612 L 807.559535 558.352438 C 807.559535 558.352438 808.499122 555.063885 808.499122 554.594092 C 808.499122 554.124299 810.378295 551.93193 810.378295 551.93193 L 811.161284 547.70379 L 811.944272 546.137813 L 812.414066 544.571835 L 813.51025 543.945444 L 813.666848 539.560707 L 812.414066 537.994729 L 812.414066 533.923187 L 813.666848 531.574221 L 815.389423 524.840517 L 817.268596 521.082171 L 817.425194 519.359595 L 816.955401 517.793617 L 816.015814 516.22764 L 815.076228 508.867545 L 813.980043 501.037657 L 812.570664 489.449422 L 811.944272 479.427165 L 811.474479 472.536864 L 810.69149 470.344495 L 810.534893 468.152126 L 811.944272 466.742746 L 812.727261 465.333366 L 813.51025 464.863573 L 816.485608 464.863573 L 818.677976 457.033685 L 822.749518 445.915244 L 825.255082 437.145769 L 825.255082 434.640205 L 829.953015 428.219696 L 832.771775 418.667233 L 834.807546 412.716518 L 835.590535 408.958171 L 836.530121 407.078998 L 837.626306 405.356423 L 839.035686 404.573434 L 839.035686 402.224468 L 838.409295 401.128283 L 838.096099 399.875501 L 839.662077 399.562306 L 839.975272 397.83973 L 840.445066 396.117155 L 839.662077 395.02097 L 837.156513 394.394579 L 836.060328 392.828602 L 834.964144 391.57582 L 834.807546 390.792831 L 835.120742 389.540049 L 836.060328 387.817473 L 836.060328 384.52892 L 836.530121 382.649747 L 836.999915 381.71016 L 838.252697 380.613976 L 840.445066 379.830987 L 842.637434 377.638619 L 843.420423 374.663261 L 842.95063 372.784088 L 842.324239 371.374708 L 842.794032 369.652133 L 842.637434 368.712546 L 842.637434 367.772959 L 843.577021 366.833373 L 843.577021 365.423993 L 842.167641 364.327809 L 843.577021 363.075027 L 843.577021 361.978842 L 844.36001 359.629876 L 843.577021 358.690289 L 843.577021 357.9073 L 844.36001 357.437507 L 845.76939 358.220496 L 846.865574 358.377094 L 847.491965 358.377094 L 848.431552 358.063898 L 849.527736 358.063898 L 851.250311 358.846887 L 852.189898 359.160082 L 852.972887 359.003485 L 854.85206 358.690289 L 855.948244 358.377094 L 857.044429 358.377094 L 858.610406 358.063898 L 860.176384 358.063898 L 861.429166 358.846887 L 862.055557 359.473278 L 863.308339 359.943071 L 863.93473 359.943071 L 865.970501 357.750703 L 867.223283 356.967714 C 867.223283 356.967714 868.006272 356.028127 868.16287 355.558334 C 868.16287 355.245138 868.476065 354.148954 868.476065 354.148954 L 870.198641 350.860401 L 871.608021 347.102055 L 871.294825 345.692675 L 870.825032 344.126697 L 874.42678 342.873915 L 875.992758 341.777731 L 877.402138 341.307937 L 885.232026 340.994742 L 885.232026 338.019384 L 886.015015 335.357222 L 886.32821 334.261038 L 887.580993 333.791245 L 889.773361 334.10444 L 889.773361 334.887429 L 890.55635 336.9232 L 891.652534 337.549591 L 892.748719 336.9232 L 893.531708 336.610004 L 894.627892 336.453407 L 896.19387 336.453407 L 896.19387 333.634647 L 897.603249 332.538463 L 898.386238 330.502692 L 899.795618 331.912071 L 901.204998 330.815887 L 902.45778 331.755474 L 903.397367 332.851658 L 904.336953 331.598876 L 905.27654 330.502692 L 906.372724 330.189496 L 907.938702 330.032898 L 908.878288 331.129083 L 908.878288 332.068669 L 911.383853 331.912071 L 912.166842 331.598876 L 912.480037 329.876301 L 912.94983 328.466921 L 913.576221 326.744345 L 916.864774 325.804759 L 919.057143 322.829401 L 919.99673 318.757859 L 922.972087 313.590133 L 922.972087 311.867558 L 930.332182 305.916843 L 930.332182 304.037669 L 928.766204 300.279323 L 927.67002 299.496334 L 924.694663 299.183139 L 923.128685 298.556748 L 921.562707 298.869943 L 921.249512 296.677575 L 920.623121 294.798401 L 919.057143 293.545619 L 918.900545 294.641804 L 915.925188 294.641804 L 914.35921 293.545619 L 914.672406 290.883457 L 915.455395 289.31748 L 913.576221 289.160882 L 912.793233 290.257066 L 912.636635 292.292837 L 911.227255 292.136239 L 909.191484 291.823044 L 908.878288 290.570262 L 907.625506 290.257066 L 906.059529 290.257066 L 905.119942 289.943871 L 903.240769 288.377893 L 903.240769 286.028927 L 903.553964 284.619547 L 905.589735 283.053569 L 905.902931 281.174396 L 904.963344 281.174396 L 902.927573 280.704603 L 901.518194 279.295223 L 899.012629 277.102854 L 898.229641 276.00667 L 894.471294 271.935128 L 892.748719 271.152139 L 890.243155 270.055955 L 888.677177 269.429564 L 887.111199 268.489977 L 886.171613 267.55039 L 885.388624 265.827815 L 884.605635 265.044826 L 882.726462 264.731631 L 881.317082 263.165653 L 880.534093 264.575033 L 877.558736 264.731631 L 875.679562 264.888228 L 873.487194 264.731631 L 867.536479 256.275351 L 866.440294 252.673603 L 866.440294 250.79443 L 864.717719 241.555162 L 863.93473 240.145782 L 862.838546 239.206195 L 862.055557 236.857229 L 862.055557 233.568676 L 861.585764 231.376307 L 861.429166 229.966927 L 861.429166 229.02734 L 860.489579 220.884257 L 857.514222 213.837357 L 857.827417 210.548804 L 858.767004 207.573447 L 858.923602 205.067883 L 859.080199 198.177581 L 857.67082 194.889028 L 855.478451 191.443877 L 855.165255 190.034497 L 854.538864 188.155324 L 855.635049 185.64976 L 856.574635 180.482034 L 855.635049 175.15771 L 855.165255 168.267408 L 855.165255 166.388235 L 855.321853 164.978855 L 854.85206 162.629889 L 855.008658 162.003497 L 857.201026 161.533704 L 857.514222 159.341335 L 857.044429 154.8 L 856.418037 152.764229 L 855.321853 149.94547 L 854.538864 148.222894 L 854.225669 145.560732 L 852.972887 143.994755 L 852.972887 136.947855 L 852.189898 134.285693 L 850.62392 130.99714 L 850.310725 129.274565 L 849.21454 126.925598 L 849.371138 126.142609 L 849.840931 125.359621 L 850.310725 123.167252 L 850.62392 121.601274 L 849.997529 120.348492 L 848.274954 118.782515 L 849.371138 117.216537 L 850.467322 116.903341 L 851.876702 117.059939 L 852.972887 118.939112 L 852.972887 120.035297 L 853.44268 120.818286 L 854.382267 121.131481 L 855.321853 121.757872 L 856.731233 122.227665 L 857.514222 123.637045 L 856.26144 125.359621 L 855.948244 126.142609 L 856.104842 127.708587 L 857.201026 129.431163 L 857.514222 130.527347 L 858.297211 129.431163 L 859.549993 129.274565 L 860.176384 128.648174 L 860.646177 127.082196 L 861.272568 126.142609 L 860.802775 125.046425 L 859.863188 123.32385 L 858.923602 122.071068 L 858.140613 120.974883 L 857.044429 119.408906 L 855.165255 116.903341 L 849.371138 112.048811 L 844.516607 104.532118 L 839.035686 92.317492 L 837.469708 84.644202 L 836.843317 79.633074 L 836.530121 71.959783 L 837.626306 70.08061 L 838.565892 67.418448 L 837.156513 65.226079 L 834.337753 62.250722 L 831.362395 59.745158 C 828.700233 60.528146 828.700233 60.528146 828.700233 60.528146 L 827.134256 59.745158 L 824.158898 56.7698 L 820.243954 52.54166 L 817.581792 52.54166 L 813.823446 48.939912 L 812.257468 47.843727 L 812.570664 44.085381 L 810.534893 44.085381 L 807.24634 41.893012 L 805.053971 39.700644 L 803.957787 35.942297 L 802.391809 33.749929 L 800.825831 31.870756 L 798.633463 31.870756 L 794.875116 30.461376 L 791.743161 29.834985 L 789.237597 29.365191 L 786.732032 29.051996 L 784.852859 28.582202 L 779.058742 23.727672 L 776.553178 19.969325 L 775.770189 17.776957 L 774.360809 16.367577 L 770.759061 12.452633 L 769.349681 8.381091 L 768.566692 6.032124 L 768.253496 4.152951 L 767.157312 1.334192 L 759.953815 7.911298 L 753.376709 13.862013 L 748.208983 18.873141 L 745.546821 21.222108 L 741.162083 22.631487 L 737.560335 19.969325 L 734.271782 18.873141 L 730.043642 18.090152 L 728.634262 22.161694 L 726.755089 26.546432 L 724.249525 33.749929 L 721.274167 40.327035 L 717.515821 46.590945 L 717.202625 49.566303 L 715.793245 51.445476 L 713.131083 52.54166 L 707.963357 53.324649 L 703.422022 55.047225 L 685.413279 57.709387 L 682.124726 67.731643 L 679.149369 78.850085 L 677.739989 82.921627 L 668.657318 83.704615 L 664.272581 84.174409 L 659.887844 84.487604 L 656.129497 84.8008 L 650.648575 85.113995 L 646.577034 80.729258 L 643.445078 78.067096 L 639.060341 74.621945 L 636.398179 73.055967 L 631.230453 69.454219 L 525.526962 69.141023 Z M 176.783741 70.08061 " stroke="#000000" stroke-width="1.532" stroke-opacity="1" stroke-miterlimit="10"/></g></svg>