<svg xmlns="http://www.w3.org/2000/svg" xmlns:xlink="http://www.w3.org/1999/xlink" width="40" zoomAndPan="magnify" viewBox="0 0 30 30.000001" height="40" preserveAspectRatio="xMidYMid meet" version="1.0"><defs><clipPath id="8c28649cba"><path d="M 9.671875 2.90625 L 20.324219 2.90625 L 20.324219 26.125 L 9.671875 26.125 Z M 9.671875 2.90625 " clip-rule="nonzero"/></clipPath></defs><path fill="#014d4e" d="M 14.894531 23.203125 C 14.867188 23.242188 14.679688 23.804688 14.679688 23.804688 L 14.273438 24.867188 C 14.273438 24.867188 14.140625 24.40625 14.214844 24.222656 C 14.285156 24.039062 14.332031 23.933594 14.332031 23.933594 C 14.332031 23.933594 14.589844 23.300781 14.601562 23.253906 C 14.613281 23.203125 14.894531 22.746094 14.894531 22.746094 C 14.894531 22.746094 14.921875 23.167969 14.894531 23.203125 " fill-opacity="1" fill-rule="nonzero"/><path fill="#014d4e" d="M 16.855469 21.667969 L 16.621094 21.960938 C 16.621094 21.960938 16.546875 22.183594 16.492188 22.34375 C 16.4375 22.507812 16.449219 22.515625 16.457031 22.65625 C 16.46875 22.792969 16.386719 22.890625 16.386719 22.890625 L 16.226562 23.160156 C 16.226562 23.160156 15.910156 23.585938 15.871094 23.636719 C 15.886719 23.597656 15.90625 23.367188 15.90625 23.367188 L 15.867188 22.71875 L 16 22.261719 L 16.339844 21.921875 L 16.855469 21.667969 " fill-opacity="1" fill-rule="nonzero"/><g clip-path="url(#8c28649cba)"><path fill="#014d4e" d="M 20.324219 8.371094 L 19.878906 8.402344 L 19.46875 8.523438 L 18.992188 8.339844 L 19.023438 8.859375 L 18.65625 9 L 18.363281 9.140625 L 18.394531 9.433594 C 18.394531 9.433594 18.167969 9.800781 18.15625 9.929688 C 18.148438 10.058594 18.15625 10.351562 18.15625 10.351562 L 18.4375 10.699219 C 18.4375 10.699219 18.070312 11.28125 18.070312 11.359375 C 18.070312 11.433594 17.703125 11.953125 17.703125 11.953125 L 16.847656 12.675781 L 16.230469 12.984375 L 15.847656 13.632812 L 15.523438 14.089844 L 15.320312 14.265625 L 15.515625 14.527344 L 15.304688 14.890625 L 15.136719 15.679688 L 15.09375 16.191406 L 15.09375 17.09375 L 15.476562 17.304688 L 15.875 17.507812 L 16.132812 17.757812 C 16.132812 17.757812 16.359375 18.015625 16.402344 18.042969 C 16.441406 18.066406 16.628906 18.578125 16.628906 18.578125 C 16.628906 18.578125 16.582031 18.652344 16.539062 18.746094 C 16.5 18.84375 16.386719 19.152344 16.34375 19.421875 C 16.304688 19.691406 16.207031 19.746094 16.207031 19.746094 L 15.761719 20.054688 L 14.671875 20.574219 L 14.601562 20.867188 L 14.542969 22.183594 L 14.339844 23.414062 L 14.011719 24.285156 L 13.796875 24.859375 C 13.796875 24.859375 12.660156 24.789062 12.628906 24.777344 C 12.59375 24.769531 12.585938 25.113281 12.585938 25.113281 L 12.433594 25.039062 L 12.164062 25.347656 L 12.34375 25.6875 L 12.089844 26.078125 L 11.765625 25.988281 L 11.515625 26.125 L 10.847656 25.921875 C 10.847656 25.921875 10.839844 25.582031 10.839844 25.550781 C 10.839844 25.519531 10.957031 25.316406 10.957031 25.316406 L 10.777344 25.039062 C 10.777344 25.039062 10.441406 24.410156 10.472656 24.398438 C 10.503906 24.390625 10.808594 24.519531 10.808594 24.519531 C 10.808594 24.519531 10.59375 24.171875 10.59375 24.140625 C 10.59375 24.109375 10.980469 24.203125 10.980469 24.203125 L 10.929688 23.878906 L 10.789062 23.792969 L 10.691406 23.554688 L 10.160156 22.328125 L 9.875 21.402344 L 9.828125 20.550781 L 9.671875 19.65625 L 9.867188 19.589844 C 9.867188 19.589844 10.011719 19.632812 10.019531 19.65625 C 10.023438 19.679688 10.144531 19.917969 10.144531 19.917969 C 10.144531 19.917969 10.410156 19.367188 10.398438 19.320312 C 10.386719 19.269531 10.300781 18.667969 10.320312 18.675781 C 10.34375 18.679688 10.628906 18.59375 10.628906 18.59375 L 10.480469 18.28125 L 10.835938 18.253906 L 11.113281 17.894531 L 11.160156 17.410156 L 11.230469 17.328125 L 11.046875 16.757812 L 10.960938 16.441406 L 11.351562 16.289062 L 11.613281 15.925781 L 11.355469 15.515625 L 11.050781 15.296875 L 11.132812 14.714844 L 11.171875 14.109375 C 11.171875 14.109375 11.070312 13.828125 11.078125 13.800781 C 11.089844 13.773438 11.160156 13.140625 11.160156 13.140625 L 11.269531 12.992188 L 11.132812 12.585938 L 11.402344 12.003906 L 11.851562 11.414062 L 12.226562 11.265625 L 12.726562 11.449219 L 12.882812 11.078125 L 12.917969 10.6875 L 12.601562 10.460938 L 12.863281 9.984375 L 13.246094 9.1875 L 13.332031 8.5625 L 13.332031 7.824219 L 13.78125 7.824219 L 14 7.710938 L 14.070312 7.335938 L 14.449219 6.675781 L 14.808594 6.34375 L 14.554688 5.734375 L 14.625 5.59375 L 14.75 5.519531 L 14.976562 4.953125 L 15.398438 4.660156 L 15.664062 4.855469 L 15.851562 4.492188 L 15.90625 3.894531 L 16.273438 3.894531 L 16.988281 4.195312 L 17.097656 4.054688 L 17.097656 3.761719 L 17.207031 3.457031 L 17.042969 2.960938 L 17.507812 2.90625 L 17.691406 3.34375 L 18.5 4.003906 L 19.027344 4.285156 L 19.359375 4.777344 L 19.359375 5.605469 L 19.574219 5.65625 L 19.546875 5.910156 L 19.457031 5.972656 L 19.710938 6.386719 L 19.828125 6.769531 L 19.699219 7.3125 L 19.867188 7.738281 L 20.03125 8.183594 L 20.324219 8.371094 " fill-opacity="1" fill-rule="nonzero"/></g></svg>