<svg xmlns="http://www.w3.org/2000/svg" xmlns:xlink="http://www.w3.org/1999/xlink" width="40" zoomAndPan="magnify" viewBox="0 0 30 30.000001" height="40" preserveAspectRatio="xMidYMid meet" version="1.0"><defs><clipPath id="3cc90aedfc"><path d="M 3.386719 7.578125 L 26.613281 7.578125 L 26.613281 21.367188 L 3.386719 21.367188 Z M 3.386719 7.578125 " clip-rule="nonzero"/></clipPath></defs><g clip-path="url(#3cc90aedfc)"><path fill="#014d4e" d="M 20.355469 17.441406 C 20.347656 17.441406 20.339844 17.441406 20.335938 17.441406 C 20.34375 17.453125 20.347656 17.449219 20.355469 17.441406 Z M 4.71875 17.679688 C 4.773438 17.777344 4.828125 17.859375 4.871094 17.964844 C 4.894531 18.019531 4.914062 18.09375 4.9375 18.15625 C 5.078125 18.34375 5.222656 18.621094 4.925781 18.710938 C 4.765625 18.761719 4.570312 18.746094 4.402344 18.734375 C 4.246094 18.726562 3.949219 18.761719 3.796875 18.707031 C 3.492188 18.597656 3.390625 18.210938 3.421875 17.886719 C 3.441406 17.714844 3.519531 17.5625 3.589844 17.402344 C 3.679688 17.199219 3.753906 16.996094 3.832031 16.789062 C 3.960938 16.453125 4.101562 16.121094 4.246094 15.792969 C 4.238281 15.703125 4.230469 15.605469 4.25 15.527344 C 4.273438 15.414062 4.375 15.320312 4.425781 15.214844 C 4.476562 15.101562 4.441406 14.984375 4.445312 14.863281 C 4.449219 14.707031 4.496094 14.625 4.589844 14.503906 C 4.816406 14.214844 5.042969 13.898438 5.175781 13.558594 C 5.21875 13.445312 5.242188 13.339844 5.320312 13.25 C 5.390625 13.164062 5.46875 13.085938 5.515625 12.988281 C 5.585938 12.84375 5.601562 12.6875 5.683594 12.554688 C 5.742188 12.46875 5.792969 12.390625 5.851562 12.3125 C 5.851562 12.238281 5.859375 12.164062 5.859375 12.085938 C 5.859375 12.023438 5.839844 11.964844 5.84375 11.90625 C 5.851562 11.851562 5.890625 11.820312 5.90625 11.773438 C 5.9375 11.660156 5.84375 11.5625 5.945312 11.464844 C 6.027344 11.386719 6.132812 11.332031 6.230469 11.289062 C 6.289062 11.265625 6.335938 11.242188 6.382812 11.214844 C 6.386719 11.070312 6.441406 10.964844 6.476562 10.816406 C 6.507812 10.644531 6.457031 10.496094 6.59375 10.355469 C 6.6875 10.261719 6.761719 10.117188 6.867188 10.046875 C 6.941406 10 7.03125 9.992188 7.105469 9.953125 C 7.179688 9.921875 7.222656 9.863281 7.285156 9.8125 C 7.402344 9.710938 7.546875 9.714844 7.691406 9.726562 C 7.78125 9.652344 7.882812 9.59375 7.96875 9.503906 C 8.070312 9.394531 8.1875 9.304688 8.289062 9.199219 C 8.398438 9.09375 8.503906 8.933594 8.65625 8.886719 C 8.730469 8.863281 8.804688 8.886719 8.878906 8.871094 C 8.957031 8.859375 9 8.808594 9.066406 8.769531 C 9.191406 8.691406 9.289062 8.753906 9.382812 8.832031 C 9.449219 8.785156 9.523438 8.753906 9.605469 8.796875 C 9.691406 8.847656 9.738281 8.957031 9.8125 9.023438 C 9.894531 9.085938 10.019531 9.109375 10.089844 9.195312 C 10.160156 9.28125 10.132812 9.394531 10.082031 9.484375 C 10.058594 9.523438 10.035156 9.558594 10.011719 9.597656 C 10.058594 9.761719 10.226562 9.863281 10.121094 10.070312 C 10.074219 10.160156 10.039062 10.230469 10.019531 10.328125 C 9.996094 10.449219 9.972656 10.519531 9.894531 10.613281 C 9.835938 10.683594 9.8125 10.742188 9.800781 10.808594 C 9.859375 10.78125 9.925781 10.761719 9.988281 10.730469 C 10.070312 10.683594 10.117188 10.59375 10.199219 10.542969 C 10.28125 10.492188 10.382812 10.480469 10.441406 10.386719 C 10.492188 10.304688 10.488281 10.199219 10.53125 10.113281 C 10.566406 10.03125 10.617188 9.972656 10.566406 9.882812 C 10.511719 9.796875 10.429688 9.769531 10.40625 9.664062 C 10.390625 9.558594 10.382812 9.457031 10.359375 9.355469 C 10.34375 9.269531 10.328125 9.140625 10.417969 9.085938 C 10.5 9.042969 10.59375 9.148438 10.675781 9.171875 C 10.769531 9.203125 10.824219 9.222656 10.863281 9.289062 C 10.964844 9.121094 11.152344 9.199219 11.308594 9.214844 C 11.402344 9.222656 11.46875 9.179688 11.558594 9.175781 C 11.617188 9.175781 11.664062 9.195312 11.710938 9.222656 C 11.765625 9.15625 11.820312 9.097656 11.859375 9.023438 C 11.910156 8.929688 11.945312 8.859375 12.050781 8.8125 C 12.238281 8.71875 12.488281 8.667969 12.652344 8.53125 C 12.730469 8.464844 12.761719 8.359375 12.835938 8.289062 C 12.917969 8.207031 13.015625 8.214844 13.117188 8.171875 C 13.222656 8.125 13.242188 8.03125 13.324219 7.960938 C 13.40625 7.890625 13.507812 7.894531 13.578125 7.8125 C 13.65625 7.714844 13.710938 7.632812 13.839844 7.601562 C 13.9375 7.578125 13.996094 7.625 14.035156 7.691406 C 14.195312 7.671875 14.351562 7.671875 14.507812 7.648438 C 14.582031 7.636719 14.6875 7.613281 14.742188 7.675781 C 14.808594 7.742188 14.765625 7.847656 14.789062 7.929688 C 14.804688 7.976562 14.828125 8.011719 14.851562 8.050781 C 14.925781 7.941406 15.023438 7.796875 15.140625 7.789062 C 15.222656 7.777344 15.28125 7.824219 15.347656 7.867188 C 15.40625 7.90625 15.488281 7.917969 15.539062 7.964844 C 15.578125 8.003906 15.597656 8.054688 15.617188 8.109375 C 15.847656 8.058594 15.976562 8.226562 16.128906 8.394531 C 16.253906 8.535156 16.589844 8.601562 16.378906 8.820312 C 16.332031 8.867188 16.300781 8.917969 16.28125 8.976562 C 16.394531 8.929688 16.523438 8.882812 16.617188 8.910156 C 16.769531 8.960938 16.785156 9.152344 16.730469 9.273438 C 16.707031 9.320312 16.6875 9.367188 16.675781 9.414062 C 16.734375 9.382812 16.808594 9.351562 16.875 9.375 C 16.953125 9.402344 16.972656 9.496094 17.015625 9.554688 C 17.0625 9.628906 17.144531 9.695312 17.140625 9.789062 C 17.136719 9.882812 17.054688 9.960938 16.996094 10.03125 C 16.898438 10.148438 16.785156 10.277344 16.757812 10.433594 C 16.746094 10.519531 16.734375 10.601562 16.667969 10.664062 C 16.617188 10.714844 16.539062 10.71875 16.492188 10.78125 C 16.441406 10.851562 16.457031 10.953125 16.378906 11.003906 C 16.359375 11.015625 16.34375 11.023438 16.324219 11.027344 C 16.320312 11.074219 16.3125 11.132812 16.289062 11.15625 C 16.25 11.207031 16.164062 11.179688 16.113281 11.214844 C 16.0625 11.253906 16.058594 11.308594 15.976562 11.308594 C 15.921875 11.3125 15.855469 11.273438 15.808594 11.25 C 15.695312 11.195312 15.554688 11.117188 15.429688 11.136719 C 15.328125 11.148438 15.191406 11.21875 15.140625 11.3125 C 15.109375 11.378906 15.097656 11.5 15.117188 11.605469 C 15.171875 11.558594 15.222656 11.503906 15.265625 11.441406 C 15.316406 11.363281 15.351562 11.296875 15.449219 11.296875 C 15.65625 11.289062 15.710938 11.445312 15.574219 11.585938 C 15.546875 11.613281 15.523438 11.640625 15.5 11.664062 C 15.523438 11.777344 15.550781 11.917969 15.683594 11.945312 C 15.863281 11.984375 15.859375 11.8125 15.902344 11.695312 C 15.949219 11.570312 16.117188 11.605469 16.230469 11.570312 C 16.359375 11.527344 16.429688 11.429688 16.476562 11.304688 C 16.527344 11.160156 16.589844 11.125 16.730469 11.070312 C 16.867188 11.015625 16.917969 10.933594 16.972656 10.804688 C 17.023438 10.679688 17.066406 10.515625 17.191406 10.4375 C 17.296875 10.378906 17.476562 10.355469 17.582031 10.421875 C 17.703125 10.496094 17.703125 10.664062 17.832031 10.734375 C 17.945312 10.789062 18.058594 10.792969 18.113281 10.886719 C 18.183594 10.738281 18.292969 10.792969 18.433594 10.875 C 18.53125 10.929688 18.816406 10.902344 18.804688 11.054688 C 18.796875 11.203125 18.589844 11.3125 18.511719 11.425781 C 18.410156 11.570312 18.398438 11.726562 18.339844 11.882812 C 18.273438 12.058594 18.136719 12.136719 18.183594 12.308594 C 18.246094 12.234375 18.3125 12.15625 18.367188 12.074219 C 18.4375 11.976562 18.460938 11.871094 18.503906 11.757812 C 18.589844 11.503906 18.898438 11.476562 18.988281 11.230469 C 19.035156 11.097656 19.050781 10.953125 19.132812 10.835938 C 19.203125 10.738281 19.308594 10.691406 19.414062 10.644531 C 19.585938 10.570312 19.890625 10.382812 19.929688 10.683594 C 19.949219 10.835938 19.957031 10.949219 20.054688 11.078125 C 20.121094 11.167969 20.152344 11.242188 20.15625 11.335938 C 20.238281 11.40625 20.320312 11.480469 20.410156 11.539062 C 20.472656 11.574219 20.660156 11.609375 20.644531 11.703125 C 20.636719 11.785156 20.464844 11.851562 20.40625 11.894531 C 20.304688 11.964844 20.21875 12.046875 20.152344 12.15625 C 20.085938 12.261719 20.050781 12.382812 19.996094 12.5 C 20.03125 12.523438 20.074219 12.539062 20.121094 12.53125 C 20.199219 12.257812 20.394531 12.167969 20.601562 11.996094 C 20.699219 11.914062 20.832031 11.832031 20.960938 11.867188 C 21.101562 11.898438 21.058594 12.023438 21.128906 12.117188 C 21.207031 12.222656 21.289062 12.261719 21.308594 12.371094 C 21.453125 12.453125 21.585938 12.5625 21.738281 12.632812 C 21.8125 12.664062 21.882812 12.699219 21.949219 12.75 C 22.015625 12.796875 22.074219 12.863281 22.160156 12.863281 C 22.238281 12.863281 22.3125 12.816406 22.394531 12.816406 C 22.472656 12.816406 22.550781 12.828125 22.632812 12.832031 C 22.777344 12.84375 22.921875 12.960938 23.023438 12.816406 C 23.105469 12.703125 23.179688 12.585938 23.304688 12.558594 C 23.289062 12.472656 23.273438 12.367188 23.328125 12.300781 C 23.394531 12.226562 23.535156 12.246094 23.617188 12.246094 C 23.84375 12.25 24.089844 12.199219 24.308594 12.257812 C 24.507812 12.3125 24.652344 12.492188 24.820312 12.605469 C 25.003906 12.726562 24.992188 12.949219 25.113281 13.117188 C 25.179688 13.207031 25.253906 13.285156 25.21875 13.402344 C 25.195312 13.484375 25.144531 13.558594 25.097656 13.628906 C 25.152344 13.65625 25.214844 13.675781 25.277344 13.679688 C 25.363281 13.683594 25.460938 13.636719 25.539062 13.660156 C 25.613281 13.683594 25.625 13.753906 25.679688 13.796875 C 25.75 13.847656 25.839844 13.816406 25.914062 13.851562 C 26.097656 13.945312 25.914062 14.222656 25.847656 14.335938 C 25.765625 14.488281 25.703125 14.652344 25.636719 14.816406 C 25.582031 14.960938 25.527344 15.097656 25.484375 15.246094 C 25.578125 15.273438 25.695312 15.316406 25.746094 15.394531 C 25.8125 15.5 25.753906 15.664062 25.703125 15.757812 C 25.675781 15.808594 25.632812 15.851562 25.609375 15.902344 C 25.585938 15.953125 25.585938 16.007812 25.566406 16.058594 C 25.527344 16.183594 25.40625 16.203125 25.292969 16.226562 C 25.199219 16.25 25.105469 16.265625 25.019531 16.304688 C 25.152344 16.34375 25.277344 16.386719 25.417969 16.351562 C 25.589844 16.308594 25.742188 16.226562 25.921875 16.238281 C 26.015625 16.242188 26.109375 16.265625 26.203125 16.265625 C 26.292969 16.265625 26.425781 16.234375 26.503906 16.28125 C 26.582031 16.328125 26.570312 16.433594 26.574219 16.515625 C 26.578125 16.59375 26.609375 16.707031 26.574219 16.785156 C 26.476562 16.996094 26.359375 16.699219 26.300781 16.566406 C 26.207031 16.574219 26.117188 16.605469 26.058594 16.683594 C 25.988281 16.785156 25.992188 16.945312 25.832031 16.921875 C 25.703125 16.902344 25.609375 16.863281 25.480469 16.875 C 25.34375 16.882812 25.21875 16.886719 25.101562 16.96875 C 25.003906 17.039062 24.933594 17.132812 24.804688 17.160156 C 24.671875 17.191406 24.5625 17.15625 24.457031 17.074219 C 24.355469 17 24.246094 16.898438 24.109375 16.933594 C 23.992188 16.96875 23.925781 17.074219 23.796875 17.027344 C 23.738281 17.007812 23.691406 16.96875 23.636719 16.949219 C 23.578125 16.925781 23.511719 16.921875 23.449219 16.898438 C 23.335938 16.859375 23.25 16.777344 23.15625 16.699219 C 23.097656 16.71875 23.042969 16.742188 22.992188 16.769531 C 22.929688 16.804688 22.847656 16.902344 22.777344 16.839844 C 22.714844 16.792969 22.730469 16.664062 22.695312 16.597656 C 22.632812 16.445312 22.519531 16.328125 22.375 16.257812 C 22.464844 16.425781 22.511719 16.621094 22.550781 16.808594 C 22.613281 17.070312 22.328125 17.027344 22.148438 17.054688 C 22.050781 17.070312 21.96875 17.113281 21.875 17.140625 C 21.78125 17.167969 21.695312 17.148438 21.597656 17.144531 C 21.382812 17.136719 21.261719 17.328125 21.066406 17.375 C 20.863281 17.421875 20.628906 17.46875 20.417969 17.457031 C 20.347656 17.542969 20.269531 17.609375 20.164062 17.648438 C 20.003906 17.707031 19.824219 17.6875 19.667969 17.75 C 19.394531 17.851562 19.160156 18.023438 18.9375 18.195312 C 18.820312 18.285156 18.707031 18.28125 18.574219 18.308594 C 18.441406 18.335938 18.367188 18.441406 18.257812 18.515625 C 18.152344 18.589844 18.035156 18.652344 17.933594 18.734375 C 17.824219 18.824219 17.757812 18.785156 17.660156 18.699219 C 17.542969 18.589844 17.453125 18.46875 17.410156 18.320312 C 17.375 18.203125 17.324219 18.117188 17.25 18.035156 C 17.234375 18.1875 17.191406 18.359375 17.109375 18.492188 C 17.167969 18.589844 17.203125 18.703125 17.304688 18.769531 C 17.414062 18.832031 17.609375 18.9375 17.507812 19.101562 C 17.472656 19.152344 17.410156 19.183594 17.367188 19.230469 C 17.316406 19.285156 17.292969 19.367188 17.246094 19.425781 C 17.15625 19.535156 16.9375 19.546875 16.808594 19.519531 C 16.738281 19.507812 16.703125 19.460938 16.65625 19.410156 C 16.605469 19.363281 16.550781 19.324219 16.492188 19.296875 C 16.449219 19.390625 16.425781 19.5 16.425781 19.589844 C 16.425781 19.71875 16.519531 19.902344 16.4375 20.011719 C 16.320312 19.945312 16.195312 19.730469 16.0625 19.710938 C 16.082031 19.773438 16.089844 19.839844 16.089844 19.902344 C 16.089844 20.011719 16.039062 20.050781 15.980469 20.132812 C 15.941406 20.203125 15.949219 20.304688 15.863281 20.34375 C 15.777344 20.382812 15.664062 20.316406 15.574219 20.316406 C 15.503906 20.3125 15.441406 20.335938 15.378906 20.367188 C 15.433594 20.421875 15.5 20.480469 15.585938 20.46875 C 15.660156 20.464844 15.71875 20.410156 15.796875 20.433594 C 15.855469 20.449219 15.886719 20.527344 15.949219 20.539062 C 16.015625 20.554688 16.058594 20.503906 16.113281 20.484375 C 16.257812 20.425781 16.375 20.535156 16.3125 20.679688 C 16.289062 20.742188 16.238281 20.796875 16.210938 20.851562 C 16.179688 20.917969 16.160156 20.992188 16.117188 21.054688 C 16.019531 21.191406 15.921875 21.050781 15.855469 20.941406 C 15.808594 20.933594 15.773438 20.96875 15.777344 21.054688 C 15.78125 21.144531 15.839844 21.246094 15.753906 21.3125 C 15.71875 21.335938 15.667969 21.335938 15.625 21.347656 C 15.578125 21.367188 15.542969 21.398438 15.496094 21.414062 C 15.386719 21.445312 15.371094 21.367188 15.324219 21.292969 C 15.277344 21.21875 15.21875 21.152344 15.160156 21.089844 C 15.09375 21.105469 15.027344 21.109375 14.96875 21.066406 C 14.878906 21.007812 14.839844 20.90625 14.742188 20.851562 C 14.652344 20.800781 14.597656 20.773438 14.535156 20.691406 C 14.46875 20.582031 14.398438 20.511719 14.265625 20.480469 C 14.171875 20.457031 14.089844 20.46875 14.035156 20.375 C 14.003906 20.316406 13.957031 20.171875 13.996094 20.105469 C 14.070312 19.96875 14.351562 20.136719 14.46875 20.132812 C 14.648438 20.132812 14.804688 20.1875 14.976562 20.222656 C 14.96875 20.074219 14.910156 19.984375 14.738281 19.949219 C 14.566406 19.917969 14.46875 19.828125 14.363281 19.703125 C 14.328125 19.742188 14.285156 19.769531 14.234375 19.78125 C 14.136719 19.808594 14.046875 19.773438 13.957031 19.84375 C 13.894531 19.890625 13.863281 19.964844 13.789062 19.914062 C 13.734375 19.871094 13.695312 19.773438 13.652344 19.71875 C 13.625 19.679688 13.597656 19.640625 13.550781 19.628906 C 13.507812 19.617188 13.464844 19.640625 13.429688 19.632812 C 13.332031 19.613281 13.382812 19.511719 13.3125 19.460938 C 13.246094 19.414062 13.132812 19.46875 13.058594 19.445312 C 12.976562 19.417969 12.898438 19.339844 12.835938 19.285156 C 12.699219 19.179688 12.539062 19.082031 12.382812 19.007812 C 12.304688 19.085938 12.21875 19.152344 12.15625 19.25 C 12.097656 19.347656 12.074219 19.585938 11.925781 19.601562 C 11.792969 19.609375 11.71875 19.4375 11.652344 19.347656 C 11.492188 19.121094 11.171875 19.039062 10.953125 18.878906 C 11.011719 18.785156 11.109375 18.8125 11.199219 18.820312 C 11.195312 18.757812 11.207031 18.699219 11.253906 18.6875 C 11.320312 18.667969 11.441406 18.777344 11.488281 18.820312 C 11.605469 18.921875 11.765625 19.132812 11.910156 18.945312 C 11.925781 18.921875 11.949219 18.878906 11.96875 18.832031 C 11.910156 18.722656 11.847656 18.628906 11.730469 18.546875 C 11.671875 18.503906 11.617188 18.464844 11.5625 18.417969 C 11.519531 18.378906 11.410156 18.332031 11.386719 18.277344 C 11.363281 18.214844 11.4375 18.160156 11.425781 18.09375 C 11.421875 18.042969 11.375 18.015625 11.34375 17.976562 C 11.203125 17.800781 11.195312 17.550781 11.007812 17.410156 C 10.996094 17.46875 10.996094 17.527344 11.007812 17.585938 C 11.019531 17.660156 11.125 17.804688 11.078125 17.875 C 11.023438 17.953125 10.847656 17.878906 10.773438 17.871094 C 10.679688 17.859375 10.554688 17.90625 10.46875 17.859375 C 10.417969 17.828125 10.382812 17.761719 10.359375 17.691406 C 10.355469 17.695312 10.351562 17.703125 10.347656 17.707031 C 10.3125 17.734375 10.296875 17.800781 10.253906 17.8125 C 10.1875 17.835938 10.0625 17.773438 9.988281 17.777344 C 9.855469 17.777344 9.847656 17.757812 9.765625 17.65625 C 9.734375 17.617188 9.6875 17.597656 9.65625 17.5625 C 9.613281 17.503906 9.636719 17.492188 9.648438 17.433594 C 9.671875 17.328125 9.597656 17.3125 9.5 17.300781 C 9.519531 17.195312 9.523438 17.097656 9.539062 16.996094 C 9.546875 16.910156 9.542969 16.828125 9.589844 16.753906 C 9.632812 16.683594 9.695312 16.617188 9.75 16.546875 C 9.824219 16.449219 9.867188 16.273438 9.800781 16.160156 C 9.761719 16.257812 9.726562 16.359375 9.667969 16.449219 C 9.597656 16.550781 9.472656 16.613281 9.433594 16.730469 C 9.394531 16.855469 9.394531 16.984375 9.351562 17.109375 C 9.332031 17.160156 9.289062 17.21875 9.300781 17.277344 C 9.308594 17.347656 9.363281 17.347656 9.402344 17.394531 C 9.464844 17.464844 9.453125 17.59375 9.449219 17.695312 C 9.363281 17.703125 9.253906 17.613281 9.179688 17.597656 C 9.125 17.589844 9.054688 17.597656 9.015625 17.566406 C 8.976562 17.539062 8.957031 17.476562 8.921875 17.445312 C 8.839844 17.375 8.699219 17.324219 8.59375 17.347656 C 8.460938 17.375 8.457031 17.5 8.402344 17.597656 C 8.355469 17.671875 8.328125 17.65625 8.253906 17.617188 C 8.210938 17.597656 8.167969 17.574219 8.125 17.554688 C 8.074219 17.660156 7.984375 17.777344 7.898438 17.773438 C 7.792969 17.765625 7.71875 17.53125 7.605469 17.617188 C 7.554688 17.65625 7.578125 17.730469 7.503906 17.753906 C 7.449219 17.773438 7.351562 17.742188 7.289062 17.742188 C 7.101562 17.753906 7.082031 17.667969 7.0625 17.5 C 7.054688 17.40625 7.023438 17.289062 6.941406 17.238281 C 6.914062 17.316406 6.890625 17.402344 6.894531 17.488281 C 6.902344 17.574219 6.972656 17.785156 6.878906 17.851562 C 6.800781 17.90625 6.640625 17.730469 6.578125 17.6875 C 6.460938 17.609375 6.488281 17.515625 6.414062 17.40625 C 6.363281 17.332031 6.289062 17.328125 6.214844 17.347656 C 6.21875 17.445312 6.222656 17.539062 6.253906 17.632812 C 6.292969 17.753906 6.355469 17.808594 6.4375 17.894531 C 6.53125 17.980469 6.507812 18.050781 6.40625 18.117188 C 6.359375 18.144531 6.3125 18.164062 6.273438 18.210938 C 6.242188 18.253906 6.226562 18.308594 6.179688 18.335938 C 6.089844 18.398438 5.992188 18.332031 5.921875 18.261719 C 5.839844 18.351562 5.769531 18.460938 5.644531 18.347656 C 5.539062 18.257812 5.46875 18.105469 5.4375 17.976562 C 5.417969 17.910156 5.414062 17.863281 5.351562 17.824219 C 5.300781 17.789062 5.1875 17.78125 5.160156 17.726562 C 5.113281 17.625 5.359375 17.445312 5.417969 17.378906 C 5.507812 17.289062 5.550781 17.21875 5.542969 17.117188 C 5.488281 17.148438 5.4375 17.183594 5.390625 17.222656 C 5.292969 17.308594 5.085938 17.496094 5.007812 17.269531 C 4.957031 17.121094 5.152344 16.972656 5.265625 16.859375 C 5.222656 16.808594 5.175781 16.746094 5.125 16.757812 C 4.980469 16.78125 4.828125 17.125 4.65625 17.003906 C 4.585938 16.953125 4.578125 16.828125 4.460938 16.847656 C 4.414062 16.855469 4.34375 16.90625 4.292969 16.953125 C 4.308594 17.003906 4.332031 17.054688 4.371094 17.109375 C 4.511719 17.265625 4.605469 17.472656 4.71875 17.679688 Z M 4.71875 17.679688 " fill-opacity="1" fill-rule="nonzero"/></g></svg>