<svg xmlns="http://www.w3.org/2000/svg" xmlns:xlink="http://www.w3.org/1999/xlink" width="40" zoomAndPan="magnify" viewBox="0 0 30 30.000001" height="40" preserveAspectRatio="xMidYMid meet" version="1.0"><defs><clipPath id="5c7c68dfc9"><path d="M 6.507812 2.902344 L 23.203125 2.902344 L 23.203125 26.128906 L 6.507812 26.128906 Z M 6.507812 2.902344 " clip-rule="nonzero"/></clipPath></defs><g clip-path="url(#5c7c68dfc9)"><path fill="#014d4e" d="M 23.15625 26.109375 C 22.960938 26.058594 22.785156 25.972656 22.617188 25.875 C 22.542969 25.832031 22.472656 25.785156 22.402344 25.746094 C 22.320312 25.703125 22.269531 25.640625 22.28125 25.546875 C 22.296875 25.414062 22.402344 25.292969 22.5 25.285156 C 22.59375 25.28125 22.679688 25.265625 22.773438 25.246094 C 22.929688 25.207031 23.0625 25.28125 23.136719 25.433594 C 23.1875 25.535156 23.242188 25.625 23.339844 25.695312 C 23.464844 25.789062 23.488281 25.945312 23.398438 26.015625 C 23.328125 26.070312 23.242188 26.09375 23.15625 26.109375 Z M 6.679688 3.160156 C 6.664062 3.191406 6.628906 3.214844 6.605469 3.246094 C 6.507812 3.359375 6.515625 3.453125 6.640625 3.539062 C 6.726562 3.601562 6.808594 3.664062 6.882812 3.734375 C 6.976562 3.816406 7.09375 3.816406 7.191406 3.761719 C 7.335938 3.679688 7.472656 3.570312 7.605469 3.464844 C 7.6875 3.394531 7.703125 3.269531 7.628906 3.222656 C 7.453125 3.101562 7.289062 2.945312 7.035156 2.972656 C 6.875 2.933594 6.757812 3.003906 6.679688 3.160156 Z M 18.746094 19.910156 C 18.648438 19.933594 18.59375 20.058594 18.660156 20.113281 C 18.78125 20.207031 18.910156 20.289062 19.0625 20.316406 C 19.109375 20.328125 19.160156 20.304688 19.195312 20.265625 C 19.226562 20.230469 19.222656 20.1875 19.195312 20.160156 C 19.132812 20.089844 19.082031 20.015625 19.03125 19.9375 C 19.007812 19.898438 18.953125 19.890625 18.910156 19.890625 C 18.855469 19.894531 18.800781 19.898438 18.746094 19.910156 Z M 11.320312 8.957031 C 11.332031 8.921875 11.324219 8.886719 11.292969 8.867188 C 11.214844 8.8125 11.136719 8.753906 11.03125 8.75 C 10.917969 8.746094 10.773438 8.851562 10.765625 8.949219 C 10.757812 9.011719 10.9375 9.164062 11.019531 9.167969 C 11.085938 9.167969 11.300781 9.019531 11.320312 8.957031 Z M 11.320312 8.957031 " fill-opacity="1" fill-rule="nonzero"/></g></svg>