<svg xmlns="http://www.w3.org/2000/svg" xmlns:xlink="http://www.w3.org/1999/xlink" width="40" zoomAndPan="magnify" viewBox="0 0 30 30.000001" height="40" preserveAspectRatio="xMidYMid meet" version="1.0"><defs><clipPath id="739be3dccc"><path d="M 3.386719 6.894531 L 26.613281 6.894531 L 26.613281 22.136719 L 3.386719 22.136719 Z M 3.386719 6.894531 " clip-rule="nonzero"/></clipPath></defs><g clip-path="url(#739be3dccc)"><path fill="#014d4e" d="M 5.761719 20.347656 C 5.90625 20.242188 6.050781 20.234375 6.203125 20.328125 C 6.324219 20.386719 6.449219 20.410156 6.578125 20.40625 C 6.679688 20.378906 6.769531 20.332031 6.84375 20.257812 C 6.929688 20.1875 7.007812 20.105469 7.085938 20.03125 C 7.167969 19.953125 7.175781 19.953125 7.230469 19.902344 C 7.175781 19.859375 7.140625 19.824219 7.097656 19.796875 C 6.882812 19.660156 6.730469 19.472656 6.640625 19.234375 C 6.558594 18.9375 6.375 18.746094 6.082031 18.652344 C 5.914062 18.578125 5.765625 18.476562 5.636719 18.34375 C 5.519531 18.234375 5.378906 18.179688 5.214844 18.1875 C 5.03125 18.1875 4.972656 18.121094 4.886719 17.957031 C 4.8125 17.820312 4.785156 17.675781 4.804688 17.523438 C 4.828125 17.367188 4.890625 17.234375 4.996094 17.121094 C 5.15625 16.910156 5.222656 16.671875 5.199219 16.40625 C 5.1875 16.351562 5.15625 16.316406 5.105469 16.296875 C 4.972656 16.253906 4.855469 16.28125 4.757812 16.375 C 4.703125 16.4375 4.632812 16.46875 4.550781 16.46875 C 4.464844 16.46875 4.398438 16.4375 4.34375 16.375 C 4.28125 16.332031 4.226562 16.28125 4.175781 16.230469 C 4.050781 16.097656 4.066406 16.0625 4.175781 15.917969 C 4.234375 15.839844 4.257812 15.753906 4.253906 15.660156 C 4.234375 15.570312 4.261719 15.5 4.34375 15.453125 C 4.628906 15.222656 4.921875 14.992188 5.1875 14.742188 C 5.277344 14.632812 5.34375 14.511719 5.382812 14.375 C 5.433594 14.25 5.351562 14.15625 5.214844 14.164062 C 5.097656 14.171875 4.984375 14.171875 4.867188 14.164062 C 4.808594 14.144531 4.753906 14.113281 4.707031 14.074219 C 4.617188 14.007812 4.527344 13.949219 4.433594 13.898438 C 4.355469 13.867188 4.277344 13.84375 4.195312 13.828125 C 4.066406 13.765625 3.949219 13.785156 3.851562 13.894531 C 3.796875 13.933594 3.738281 13.945312 3.671875 13.925781 C 3.644531 13.925781 3.636719 13.832031 3.621094 13.777344 C 3.609375 13.726562 3.558594 13.628906 3.558594 13.558594 C 3.503906 13.40625 3.441406 13.25 3.394531 13.09375 C 3.394531 13.066406 3.433594 13.015625 3.460938 12.984375 C 3.574219 12.886719 3.695312 12.792969 3.804688 12.679688 C 3.835938 12.628906 3.84375 12.574219 3.828125 12.515625 C 3.828125 12.410156 3.828125 12.375 3.949219 12.328125 C 4.203125 12.214844 4.449219 12.074219 4.695312 11.941406 C 4.742188 11.910156 4.769531 11.867188 4.785156 11.8125 C 4.824219 11.683594 4.902344 11.589844 5.019531 11.527344 C 5.136719 11.460938 5.257812 11.449219 5.386719 11.488281 C 5.59375 11.542969 5.625 11.527344 5.671875 11.320312 L 5.796875 10.765625 C 5.816406 10.675781 5.871094 10.648438 5.957031 10.671875 L 6.351562 10.769531 C 6.402344 10.78125 6.449219 10.78125 6.496094 10.769531 C 6.648438 10.738281 6.804688 10.699219 6.957031 10.65625 C 7.121094 10.609375 7.273438 10.628906 7.417969 10.722656 C 7.570312 10.8125 7.71875 10.910156 7.871094 10.988281 C 7.9375 11.019531 8.003906 11.019531 8.066406 10.988281 C 8.394531 10.898438 8.65625 10.992188 8.855469 11.265625 C 8.882812 11.324219 8.917969 11.375 8.953125 11.429688 C 9.011719 11.523438 9.089844 11.546875 9.191406 11.5 C 9.289062 11.488281 9.382812 11.488281 9.480469 11.5 C 9.578125 11.511719 9.675781 11.511719 9.773438 11.5 C 9.886719 11.46875 9.992188 11.480469 10.089844 11.539062 C 10.160156 11.570312 10.226562 11.574219 10.300781 11.558594 C 10.484375 11.523438 10.644531 11.480469 10.84375 11.433594 C 10.933594 11.402344 11 11.429688 11.035156 11.523438 C 11.144531 11.710938 11.300781 11.769531 11.507812 11.699219 C 11.5625 11.667969 11.617188 11.664062 11.675781 11.683594 C 11.734375 11.707031 11.769531 11.75 11.789062 11.808594 C 11.847656 11.925781 11.910156 12.039062 11.976562 12.15625 C 12.085938 12.066406 12.132812 11.949219 12.117188 11.808594 C 12.117188 11.582031 12.140625 11.527344 12.371094 11.503906 C 12.660156 11.464844 12.863281 11.3125 12.980469 11.042969 C 13.03125 10.933594 13.113281 10.871094 13.234375 10.859375 C 13.335938 10.84375 13.4375 10.835938 13.539062 10.828125 C 13.667969 10.847656 13.75 10.792969 13.785156 10.671875 C 13.828125 10.5625 13.84375 10.449219 13.890625 10.347656 C 13.984375 10.152344 14.085938 9.960938 14.195312 9.777344 C 14.226562 9.734375 14.320312 9.734375 14.386719 9.722656 C 14.453125 9.707031 14.507812 9.722656 14.539062 9.695312 C 14.769531 9.492188 14.765625 9.488281 14.988281 9.722656 C 15.03125 9.671875 15.066406 9.613281 15.105469 9.566406 C 15.148438 9.519531 15.269531 9.390625 15.359375 9.308594 C 15.394531 9.28125 15.433594 9.261719 15.476562 9.257812 C 15.714844 9.234375 15.953125 9.207031 16.191406 9.199219 C 16.300781 9.203125 16.402344 9.226562 16.5 9.277344 C 16.683594 9.367188 16.878906 9.386719 17.078125 9.332031 C 17.273438 9.292969 17.46875 9.265625 17.667969 9.253906 C 17.769531 9.25 17.871094 9.25 17.972656 9.253906 C 18.195312 9.246094 18.359375 9.335938 18.472656 9.527344 C 18.515625 9.585938 18.570312 9.613281 18.640625 9.617188 C 18.9375 9.617188 19.058594 9.476562 19.09375 9.179688 C 19.101562 9.121094 19.128906 9.074219 19.179688 9.039062 C 19.300781 8.992188 19.433594 8.972656 19.558594 8.929688 C 19.652344 8.910156 19.734375 8.867188 19.804688 8.804688 C 19.878906 8.675781 19.980469 8.652344 20.109375 8.730469 C 20.34375 8.835938 20.566406 8.820312 20.78125 8.679688 C 20.945312 8.570312 21.128906 8.519531 21.328125 8.53125 C 21.53125 8.542969 21.707031 8.617188 21.855469 8.746094 C 21.957031 8.808594 22.058594 8.859375 22.164062 8.90625 C 22.257812 8.960938 22.347656 9.027344 22.441406 9.082031 C 22.535156 9.136719 22.546875 9.132812 22.597656 9.15625 C 22.621094 9.105469 22.636719 9.054688 22.640625 9 C 22.628906 8.828125 22.558594 8.6875 22.429688 8.578125 C 22.304688 8.496094 22.253906 8.382812 22.273438 8.234375 C 22.273438 8.09375 22.304688 7.953125 22.308594 7.8125 C 22.324219 7.71875 22.324219 7.628906 22.308594 7.539062 C 22.277344 7.425781 22.308594 7.382812 22.417969 7.359375 C 22.472656 7.351562 22.523438 7.339844 22.574219 7.324219 C 22.695312 7.28125 22.808594 7.222656 22.917969 7.152344 C 23.058594 7.058594 23.167969 6.96875 23.347656 7.082031 C 23.449219 7.113281 23.546875 7.105469 23.640625 7.058594 C 23.882812 6.945312 24.136719 6.90625 24.40625 6.941406 C 24.457031 6.957031 24.503906 6.976562 24.546875 7.007812 C 24.601562 7.050781 24.648438 7.101562 24.699219 7.148438 C 24.953125 7.351562 24.960938 7.515625 24.726562 7.746094 C 24.699219 7.792969 24.6875 7.839844 24.699219 7.894531 C 24.699219 7.9375 24.757812 7.976562 24.753906 8.007812 C 24.703125 8.28125 24.929688 8.390625 25.050781 8.570312 C 25.148438 8.699219 25.273438 8.78125 25.429688 8.820312 C 25.460938 8.847656 25.476562 8.882812 25.476562 8.925781 C 25.445312 9.015625 25.421875 9.136719 25.351562 9.1875 C 25.175781 9.300781 25.160156 9.316406 25.308594 9.464844 C 25.457031 9.613281 25.621094 9.765625 25.773438 9.917969 C 25.867188 10.042969 25.96875 10.15625 26.078125 10.265625 C 26.175781 10.398438 26.222656 10.546875 26.222656 10.710938 C 26.226562 10.828125 26.28125 10.910156 26.386719 10.957031 C 26.457031 10.988281 26.523438 11.03125 26.585938 11.078125 C 26.613281 11.101562 26.605469 11.15625 26.617188 11.195312 C 26.625 11.238281 26.535156 11.222656 26.503906 11.195312 C 26.3125 11.136719 26.140625 11.035156 25.996094 10.894531 C 25.890625 10.8125 25.773438 10.746094 25.652344 10.695312 C 25.582031 10.652344 25.507812 10.617188 25.433594 10.585938 C 25.144531 10.457031 24.867188 10.484375 24.609375 10.664062 C 24.578125 10.6875 24.539062 10.699219 24.5 10.707031 C 24.402344 10.722656 24.328125 10.773438 24.277344 10.859375 C 24.230469 10.949219 24.222656 11.039062 24.261719 11.132812 C 24.292969 11.195312 24.316406 11.265625 24.324219 11.339844 C 24.332031 11.539062 24.410156 11.703125 24.558594 11.835938 C 24.605469 11.894531 24.621094 11.957031 24.605469 12.03125 C 24.585938 12.101562 24.542969 12.152344 24.476562 12.183594 C 24.445312 12.183594 24.398438 12.183594 24.355469 12.183594 C 24.277344 12.15625 24.199219 12.140625 24.117188 12.136719 C 23.929688 12.195312 23.773438 12.148438 23.648438 12.003906 C 23.519531 11.84375 23.402344 11.835938 23.257812 12.003906 C 23.179688 12.089844 23.019531 12.105469 22.875 12.160156 C 22.875 12.207031 22.914062 12.277344 22.929688 12.34375 C 22.949219 12.40625 22.929688 12.527344 22.820312 12.566406 C 22.734375 12.609375 22.652344 12.660156 22.582031 12.726562 C 22.554688 12.75 22.53125 12.804688 22.5 12.804688 C 22.21875 12.835938 22.027344 13.109375 21.71875 13.082031 C 21.621094 13.082031 21.515625 13.175781 21.414062 13.226562 C 21.3125 13.273438 21.1875 13.34375 21.066406 13.390625 C 20.984375 13.414062 20.941406 13.46875 20.941406 13.558594 C 20.929688 13.652344 20.894531 13.734375 20.84375 13.8125 C 20.816406 13.863281 20.777344 13.894531 20.71875 13.898438 C 20.664062 13.90625 20.617188 13.886719 20.578125 13.84375 C 20.363281 13.746094 20.144531 13.738281 19.917969 13.816406 C 19.878906 13.851562 19.859375 13.894531 19.851562 13.945312 C 19.863281 14.078125 19.8125 14.183594 19.699219 14.261719 C 19.597656 14.332031 19.554688 14.425781 19.566406 14.550781 C 19.570312 14.691406 19.582031 14.828125 19.609375 14.964844 C 19.664062 15.199219 19.910156 15.207031 20.058594 15.335938 C 20.058594 15.335938 20.09375 15.335938 20.113281 15.359375 C 20.488281 15.558594 20.457031 15.5625 20.339844 15.871094 C 20.277344 16.050781 20.261719 16.238281 20.285156 16.429688 C 20.328125 16.65625 20.285156 16.863281 20.160156 17.054688 C 20.089844 17.15625 20.160156 17.375 20.195312 17.523438 C 20.230469 17.671875 20.246094 17.71875 20.089844 17.738281 C 20.03125 17.746094 19.976562 17.773438 19.9375 17.816406 C 19.835938 17.945312 19.75 17.90625 19.644531 17.816406 C 19.492188 17.683594 19.320312 17.648438 19.128906 17.71875 C 19.089844 17.734375 19.058594 17.761719 19.035156 17.796875 C 18.988281 17.921875 18.90625 17.957031 18.785156 17.902344 C 18.632812 17.863281 18.582031 17.902344 18.570312 18.050781 C 18.554688 18.199219 18.488281 18.214844 18.375 18.210938 C 18.175781 18.207031 18 18.265625 17.839844 18.382812 C 17.746094 18.441406 17.644531 18.492188 17.539062 18.527344 C 17.324219 18.613281 17.152344 18.753906 17.019531 18.941406 C 17.105469 19.023438 17.195312 19.101562 17.292969 19.175781 C 17.378906 19.246094 17.457031 19.234375 17.527344 19.144531 C 17.6875 18.980469 17.691406 18.988281 17.792969 19.203125 C 17.859375 19.347656 17.957031 19.480469 18.03125 19.621094 C 18.054688 19.664062 18.066406 19.742188 18.03125 19.761719 C 17.988281 19.800781 17.9375 19.8125 17.878906 19.804688 C 17.660156 19.792969 17.480469 19.871094 17.339844 20.042969 C 17.320312 20.074219 17.277344 20.097656 17.265625 20.128906 C 17.246094 20.171875 17.238281 20.21875 17.242188 20.265625 C 17.277344 20.359375 17.300781 20.457031 17.316406 20.558594 C 17.304688 20.839844 17.421875 21.050781 17.660156 21.191406 C 17.894531 21.359375 17.890625 21.359375 17.71875 21.582031 C 17.542969 21.800781 17.558594 21.769531 17.332031 21.707031 C 17.046875 21.625 16.964844 21.648438 16.804688 21.902344 C 16.75 21.980469 16.707031 22.039062 16.605469 22.011719 C 16.585938 22.003906 16.566406 22.003906 16.546875 22.011719 C 16.347656 22.105469 16.199219 22.011719 16.085938 21.859375 C 15.972656 21.707031 15.828125 21.585938 15.691406 21.460938 C 15.644531 21.40625 15.582031 21.382812 15.511719 21.378906 C 15.269531 21.382812 15.054688 21.308594 14.867188 21.15625 C 14.78125 21.101562 14.691406 21.050781 14.59375 21.007812 C 14.574219 21.109375 14.546875 21.203125 14.515625 21.300781 C 14.492188 21.375 14.445312 21.441406 14.382812 21.492188 C 14.234375 21.558594 14.078125 21.609375 13.917969 21.644531 C 13.84375 21.636719 13.792969 21.601562 13.761719 21.535156 C 13.6875 21.191406 13.34375 21.140625 13.132812 20.949219 C 13.105469 20.917969 13.039062 20.929688 12.992188 20.949219 C 12.855469 20.949219 12.828125 20.929688 12.859375 20.796875 C 12.859375 20.75 12.886719 20.707031 12.898438 20.667969 C 12.9375 20.519531 12.886719 20.414062 12.742188 20.359375 C 12.578125 20.261719 12.425781 20.144531 12.285156 20.011719 C 12.234375 19.960938 12.25 19.835938 12.242188 19.742188 C 12.234375 19.648438 12.292969 19.589844 12.1875 19.554688 C 12.085938 19.519531 12.035156 19.582031 11.988281 19.671875 C 11.921875 19.882812 11.792969 20.050781 11.605469 20.167969 C 11.5625 20.1875 11.539062 20.265625 11.527344 20.320312 C 11.5 20.429688 11.5 20.554688 11.460938 20.667969 C 11.433594 20.769531 11.378906 20.855469 11.300781 20.925781 C 11.09375 21.078125 10.875 21.214844 10.652344 21.339844 C 10.527344 21.398438 10.394531 21.445312 10.257812 21.480469 C 10.230469 21.480469 10.195312 21.464844 10.160156 21.453125 L 9.789062 21.335938 C 9.753906 21.320312 9.722656 21.300781 9.695312 21.277344 C 9.570312 21.167969 9.527344 21.164062 9.445312 21.308594 C 9.363281 21.449219 9.261719 21.527344 9.097656 21.476562 C 9.007812 21.464844 8.914062 21.464844 8.820312 21.476562 C 8.53125 21.492188 8.277344 21.402344 8.058594 21.207031 C 7.925781 21.125 7.789062 21.117188 7.648438 21.183594 C 7.628906 21.183594 7.648438 21.269531 7.648438 21.3125 C 7.648438 21.351562 7.75 21.484375 7.746094 21.5625 C 7.746094 21.765625 7.683594 21.796875 7.484375 21.769531 C 7.296875 21.714844 7.152344 21.777344 7.054688 21.945312 C 6.996094 22.070312 6.90625 22.101562 6.78125 22.035156 C 6.710938 22.007812 6.625 22 6.558594 21.964844 C 6.496094 21.9375 6.449219 21.898438 6.414062 21.839844 C 6.367188 21.746094 6.289062 21.679688 6.1875 21.648438 C 6.085938 21.613281 5.984375 21.621094 5.890625 21.671875 L 5.828125 21.710938 C 5.660156 21.820312 5.480469 21.890625 5.3125 21.738281 C 5.25 21.707031 5.1875 21.683594 5.121094 21.667969 C 4.90625 21.589844 4.882812 21.566406 4.882812 21.34375 C 4.902344 21.25 4.871094 21.175781 4.796875 21.117188 C 4.714844 21.058594 4.738281 21.003906 4.832031 20.976562 L 5.585938 20.777344 C 5.640625 20.777344 5.707031 20.777344 5.753906 20.777344 C 5.832031 20.753906 5.894531 20.714844 5.945312 20.652344 C 5.960938 20.617188 5.90625 20.53125 5.871094 20.476562 C 5.839844 20.429688 5.804688 20.386719 5.761719 20.347656 Z M 5.761719 20.347656 " fill-opacity="1" fill-rule="evenodd"/></g></svg>