<svg xmlns="http://www.w3.org/2000/svg" xmlns:xlink="http://www.w3.org/1999/xlink" width="40" zoomAndPan="magnify" viewBox="0 0 30 30.000001" height="40" preserveAspectRatio="xMidYMid meet" version="1.0"><defs><clipPath id="2c363fc8e6"><path d="M 3.386719 8.738281 L 26.613281 8.738281 L 26.613281 20.351562 L 3.386719 20.351562 Z M 3.386719 8.738281 " clip-rule="nonzero"/></clipPath></defs><g clip-path="url(#2c363fc8e6)"><path fill="#014d4e" d="M 4.503906 13.621094 C 4.566406 13.546875 4.671875 13.410156 4.804688 13.378906 C 4.9375 13.347656 5.136719 13.375 5.183594 13.46875 C 5.230469 13.566406 5.375 13.714844 5.554688 13.660156 C 5.734375 13.609375 5.851562 13.527344 5.902344 13.519531 C 5.949219 13.511719 5.976562 13.453125 6.089844 13.582031 C 6.203125 13.710938 6.277344 13.726562 6.414062 13.648438 C 6.554688 13.574219 6.5625 13.492188 6.699219 13.476562 C 6.839844 13.464844 7.007812 13.550781 7.09375 13.402344 C 7.175781 13.257812 7.210938 13.15625 7.253906 13.089844 C 7.292969 13.019531 7.359375 12.929688 7.402344 12.933594 C 7.445312 12.941406 7.59375 12.976562 7.675781 12.914062 C 7.753906 12.851562 7.785156 12.707031 7.835938 12.566406 C 7.882812 12.425781 7.84375 12.421875 7.96875 12.414062 C 8.089844 12.40625 8.257812 12.355469 8.457031 12.34375 C 8.660156 12.332031 8.753906 12.226562 8.773438 12.179688 C 8.789062 12.128906 8.839844 12.003906 8.839844 11.621094 C 8.839844 11.238281 9.09375 11.207031 9.042969 10.957031 C 8.996094 10.710938 9.09375 10.832031 9.269531 10.703125 C 9.445312 10.570312 9.375 10.496094 9.523438 10.484375 C 9.671875 10.476562 9.976562 10.535156 10.066406 10.347656 C 10.15625 10.160156 10.183594 10.222656 10.199219 10.09375 C 10.21875 9.964844 10.351562 9.898438 10.484375 9.765625 C 10.621094 9.632812 10.757812 9.480469 10.828125 9.4375 C 10.898438 9.390625 10.972656 9.347656 11.015625 9.386719 C 11.058594 9.429688 11.066406 9.515625 11.132812 9.476562 C 11.195312 9.441406 11.210938 9.371094 11.273438 9.371094 C 11.332031 9.375 11.429688 9.460938 11.46875 9.46875 C 11.507812 9.476562 11.585938 9.476562 11.652344 9.40625 C 11.71875 9.335938 11.734375 9.28125 11.828125 9.324219 C 11.921875 9.363281 11.964844 9.34375 12.03125 9.351562 C 12.097656 9.359375 12.148438 9.367188 12.167969 9.542969 C 12.183594 9.71875 12.214844 9.75 12.199219 9.855469 C 12.1875 9.960938 12.15625 10 12.246094 10.050781 C 12.335938 10.105469 12.429688 10.125 12.492188 10.046875 C 12.554688 9.964844 12.65625 9.917969 12.695312 9.945312 C 12.734375 9.972656 12.796875 10.023438 12.785156 10.058594 C 12.777344 10.089844 12.839844 10.042969 12.929688 10.035156 C 13.019531 10.027344 13.089844 10.042969 13.078125 9.875 C 13.070312 9.707031 13.050781 9.699219 13.121094 9.683594 C 13.191406 9.667969 13.210938 9.609375 13.242188 9.5 C 13.269531 9.390625 13.265625 9.253906 13.421875 9.261719 C 13.578125 9.273438 13.757812 9.265625 13.796875 9.214844 C 13.839844 9.164062 13.835938 9.171875 13.820312 9.082031 C 13.800781 8.992188 13.851562 8.980469 13.925781 8.902344 C 14.003906 8.820312 14.054688 8.746094 14.105469 8.769531 C 14.160156 8.789062 14.261719 8.75 14.332031 8.871094 C 14.402344 8.992188 14.457031 9.070312 14.484375 9.378906 C 14.511719 9.683594 14.699219 9.714844 14.785156 9.742188 C 14.867188 9.773438 14.960938 9.769531 14.921875 9.875 C 14.882812 9.984375 14.832031 10.027344 14.9375 10.007812 C 15.046875 9.988281 15.078125 9.933594 15.121094 9.996094 C 15.167969 10.058594 15.167969 10.078125 15.242188 10.042969 C 15.316406 10.007812 15.328125 9.960938 15.378906 10 C 15.429688 10.035156 15.503906 10.003906 15.503906 10.152344 C 15.503906 10.300781 15.492188 10.421875 15.519531 10.472656 C 15.550781 10.527344 15.519531 10.546875 15.503906 10.617188 C 15.488281 10.691406 15.546875 10.6875 15.570312 10.738281 C 15.59375 10.789062 15.542969 10.808594 15.519531 10.855469 C 15.496094 10.90625 15.492188 10.898438 15.46875 11.011719 C 15.445312 11.128906 15.378906 11.109375 15.402344 11.199219 C 15.421875 11.285156 15.402344 11.351562 15.5 11.351562 C 15.597656 11.351562 15.683594 11.34375 15.785156 11.265625 C 15.886719 11.1875 16.023438 11.085938 16.117188 11.109375 C 16.207031 11.132812 16.269531 11.15625 16.324219 11.230469 C 16.378906 11.304688 16.507812 11.464844 16.578125 11.398438 C 16.648438 11.335938 16.691406 11.347656 16.695312 11.191406 C 16.695312 11.035156 16.679688 10.988281 16.734375 10.941406 C 16.792969 10.890625 16.824219 10.722656 16.824219 10.675781 C 16.824219 10.628906 16.835938 10.578125 16.898438 10.578125 C 16.960938 10.578125 17.007812 10.59375 17.03125 10.542969 C 17.058594 10.492188 17.070312 10.410156 17.117188 10.394531 C 17.167969 10.378906 17.324219 10.402344 17.394531 10.378906 C 17.46875 10.355469 17.554688 10.261719 17.566406 10.183594 C 17.582031 10.105469 17.601562 10.035156 17.652344 10.050781 C 17.703125 10.066406 17.777344 10.144531 17.859375 10.101562 C 17.941406 10.058594 18 9.96875 18.046875 9.980469 C 18.09375 9.992188 18.171875 10.058594 18.210938 10.101562 C 18.253906 10.148438 18.359375 10.128906 18.496094 10.164062 C 18.632812 10.203125 18.636719 10.152344 18.699219 10.089844 C 18.765625 10.027344 18.800781 10.03125 18.867188 10.050781 C 18.933594 10.066406 18.960938 9.984375 19.046875 9.976562 C 19.132812 9.972656 19.144531 9.863281 19.226562 10.019531 C 19.3125 10.179688 19.324219 10.34375 19.445312 10.367188 C 19.570312 10.394531 19.71875 10.351562 19.769531 10.441406 C 19.820312 10.53125 20.019531 10.671875 20.097656 10.640625 C 20.171875 10.609375 20.234375 10.542969 20.292969 10.445312 C 20.347656 10.347656 20.308594 10.324219 20.464844 10.300781 C 20.617188 10.28125 20.675781 10.320312 20.683594 10.226562 C 20.691406 10.132812 20.75 10.101562 20.621094 10.046875 C 20.492188 9.992188 20.4375 9.980469 20.472656 9.933594 C 20.507812 9.890625 20.570312 9.886719 20.621094 9.855469 C 20.671875 9.824219 20.792969 9.792969 20.832031 9.828125 C 20.867188 9.859375 20.878906 9.980469 20.980469 9.988281 C 21.082031 9.992188 21.246094 9.992188 21.253906 9.75 C 21.261719 9.503906 21.933594 9.855469 22.003906 9.902344 C 22.074219 9.949219 22.046875 9.929688 22.125 9.894531 C 22.207031 9.859375 22.3125 9.882812 22.390625 9.855469 C 22.46875 9.828125 22.433594 9.75 22.601562 9.753906 C 22.769531 9.761719 22.8125 9.785156 22.941406 9.8125 C 23.070312 9.84375 23.109375 9.75 23.128906 9.871094 C 23.144531 9.996094 23.082031 10.027344 23.160156 10.03125 C 23.238281 10.039062 23.277344 10.050781 23.3125 10.109375 C 23.347656 10.171875 23.351562 10.214844 23.40625 10.113281 C 23.457031 10.011719 23.453125 9.953125 23.554688 10.003906 C 23.65625 10.050781 23.617188 10.074219 23.792969 10.148438 C 23.96875 10.21875 24.023438 10.136719 24.105469 10.238281 C 24.1875 10.34375 24.320312 10.457031 24.335938 10.585938 C 24.355469 10.714844 24.402344 10.734375 24.390625 10.855469 C 24.382812 10.980469 24.378906 11.007812 24.429688 11.042969 C 24.480469 11.082031 24.59375 11.050781 24.71875 11.113281 C 24.84375 11.175781 24.824219 11.265625 24.984375 11.285156 C 25.144531 11.304688 25.152344 11.222656 25.199219 11.28125 C 25.242188 11.339844 25.347656 11.523438 25.597656 11.496094 C 25.851562 11.472656 25.828125 11.492188 25.890625 11.558594 C 25.953125 11.625 26.101562 11.730469 26.234375 11.765625 C 26.371094 11.800781 26.542969 11.746094 26.546875 11.863281 C 26.550781 11.980469 26.613281 11.953125 26.582031 12.113281 C 26.550781 12.277344 26.429688 12.363281 26.320312 12.441406 C 26.207031 12.519531 26.226562 12.5625 26.199219 12.636719 C 26.167969 12.710938 26.066406 12.726562 26.097656 12.800781 C 26.128906 12.875 26.214844 12.855469 26.171875 12.972656 C 26.132812 13.09375 25.953125 13.144531 25.949219 13.238281 C 25.945312 13.335938 26.003906 13.441406 26.011719 13.503906 C 26.019531 13.5625 25.835938 13.753906 25.8125 13.851562 C 25.789062 13.945312 25.84375 14.179688 25.792969 14.25 C 25.742188 14.320312 25.589844 14.417969 25.566406 14.46875 C 25.542969 14.523438 25.457031 14.613281 25.414062 14.671875 C 25.371094 14.726562 25.132812 14.804688 25.117188 14.886719 C 25.101562 14.964844 25.117188 14.976562 25.109375 15.078125 C 25.105469 15.179688 25.066406 15.195312 25.132812 15.285156 C 25.199219 15.378906 25.199219 15.40625 25.164062 15.488281 C 25.125 15.566406 25.070312 15.589844 25.078125 15.738281 C 25.082031 15.882812 25.136719 16.046875 25.058594 16.109375 C 24.976562 16.171875 24.898438 16.175781 24.796875 16.167969 C 24.695312 16.160156 24.726562 16.140625 24.570312 16.191406 C 24.417969 16.246094 24.167969 16.25 24.109375 16.265625 C 24.050781 16.28125 23.984375 16.316406 23.816406 16.371094 C 23.644531 16.425781 23.394531 16.429688 23.335938 16.300781 C 23.277344 16.175781 22.988281 15.8125 22.929688 15.714844 C 22.875 15.617188 22.929688 15.613281 22.910156 15.535156 C 22.886719 15.457031 22.722656 15.433594 22.691406 15.460938 C 22.65625 15.488281 22.59375 15.480469 22.527344 15.296875 C 22.457031 15.113281 22.265625 15.097656 22.214844 15.082031 C 22.164062 15.0625 22.183594 15.039062 22.09375 15.09375 C 22 15.144531 21.847656 15.125 21.785156 15.171875 C 21.71875 15.222656 21.695312 15.261719 21.648438 15.316406 C 21.597656 15.375 21.625 15.421875 21.527344 15.390625 C 21.429688 15.359375 21.375 15.324219 21.332031 15.351562 C 21.289062 15.378906 21.105469 15.535156 21.011719 15.535156 C 20.917969 15.539062 20.800781 15.515625 20.746094 15.488281 C 20.691406 15.460938 20.632812 15.429688 20.558594 15.4375 C 20.484375 15.445312 20.496094 15.464844 20.429688 15.449219 C 20.363281 15.433594 20.359375 15.417969 20.289062 15.429688 C 20.21875 15.445312 20.171875 15.460938 20.113281 15.414062 C 20.054688 15.363281 19.878906 15.128906 19.722656 15.089844 C 19.566406 15.050781 19.546875 15.167969 19.429688 15.15625 C 19.3125 15.144531 19.117188 15.078125 19.046875 15.113281 C 18.972656 15.152344 18.839844 15.277344 18.546875 15.308594 C 18.25 15.339844 18.382812 15.5 18.371094 15.585938 C 18.359375 15.671875 18.3125 15.796875 18.140625 15.957031 C 17.972656 16.117188 18.066406 16.347656 18.023438 16.417969 C 17.980469 16.488281 17.863281 16.621094 17.824219 16.6875 C 17.789062 16.753906 17.757812 16.808594 17.714844 16.894531 C 17.675781 16.980469 17.570312 17.109375 17.421875 17.042969 C 17.273438 16.972656 17.230469 17.011719 17.195312 17.0625 C 17.160156 17.109375 16.988281 17.054688 16.949219 17.109375 C 16.910156 17.164062 16.949219 17.191406 16.90625 17.289062 C 16.863281 17.386719 16.714844 17.5625 16.550781 17.570312 C 16.386719 17.578125 16.3125 17.550781 16.265625 17.628906 C 16.214844 17.707031 16.214844 17.820312 16.121094 17.84375 C 16.027344 17.867188 15.984375 17.886719 15.9375 17.820312 C 15.890625 17.757812 15.839844 17.6875 15.785156 17.6875 C 15.726562 17.6875 15.625 17.75 15.546875 17.726562 C 15.46875 17.699219 15.445312 17.757812 15.4375 17.589844 C 15.433594 17.421875 15.394531 17.328125 15.347656 17.351562 C 15.300781 17.375 15.203125 17.457031 15.097656 17.382812 C 14.988281 17.308594 15.066406 17.257812 14.984375 17.234375 C 14.902344 17.207031 14.957031 17.164062 14.785156 17.234375 C 14.613281 17.304688 14.425781 17.441406 14.394531 17.535156 C 14.363281 17.628906 14.363281 17.664062 14.375 17.75 C 14.390625 17.839844 14.441406 17.875 14.371094 17.9375 C 14.300781 18.003906 14.054688 18.054688 13.707031 18.042969 C 13.359375 18.027344 13.324219 18.230469 13.242188 18.246094 C 13.15625 18.261719 13.058594 18.277344 12.960938 18.199219 C 12.859375 18.121094 12.753906 18.140625 12.574219 18.183594 C 12.394531 18.222656 12.128906 18.269531 12.019531 18.277344 C 11.90625 18.285156 11.667969 18.285156 11.628906 18.324219 C 11.585938 18.363281 11.542969 18.433594 11.546875 18.515625 C 11.550781 18.597656 11.390625 18.640625 11.367188 18.734375 C 11.34375 18.828125 11.394531 18.917969 11.351562 19.015625 C 11.308594 19.117188 11.246094 19.238281 11.324219 19.335938 C 11.40625 19.4375 11.433594 19.445312 11.53125 19.523438 C 11.632812 19.601562 11.789062 19.6875 11.703125 19.753906 C 11.617188 19.824219 11.496094 19.808594 11.398438 19.769531 C 11.300781 19.734375 11.136719 19.738281 11.128906 19.863281 C 11.121094 19.988281 11.089844 20.03125 11.042969 20.042969 C 10.996094 20.054688 10.945312 20.121094 10.417969 20.027344 C 9.890625 19.929688 9.617188 20.191406 9.464844 20.222656 C 9.3125 20.25 9.09375 20.273438 8.945312 20.222656 C 8.796875 20.171875 8.378906 20.03125 8.238281 20.03125 C 8.097656 20.035156 7.984375 20.058594 7.863281 20.074219 C 7.746094 20.089844 7.3125 20.113281 7.214844 20.058594 C 7.121094 20.007812 6.613281 19.882812 6.371094 19.613281 C 6.125 19.339844 6.097656 19.351562 6.042969 19.296875 C 5.992188 19.242188 5.96875 19.113281 5.78125 18.902344 C 5.589844 18.695312 5.644531 18.636719 5.441406 18.5625 C 5.238281 18.484375 5.140625 18.46875 5.050781 18.382812 C 4.960938 18.296875 4.78125 18.457031 4.664062 18.355469 C 4.546875 18.25 4.480469 18.285156 4.453125 18.246094 C 4.425781 18.210938 4.363281 18.207031 4.351562 17.960938 C 4.339844 17.714844 4.339844 17.679688 4.265625 17.636719 C 4.1875 17.59375 4.09375 17.527344 3.949219 17.351562 C 3.800781 17.179688 4.035156 16.988281 3.855469 16.777344 C 3.679688 16.566406 3.699219 16.730469 3.628906 16.484375 C 3.558594 16.238281 3.550781 16.25 3.476562 16.15625 C 3.40625 16.0625 3.386719 15.859375 3.476562 15.742188 C 3.566406 15.625 3.730469 15.339844 3.878906 15.230469 C 4.027344 15.121094 4.046875 14.984375 4.003906 14.847656 C 3.964844 14.714844 3.941406 14.679688 4.0625 14.550781 C 4.1875 14.417969 4.167969 14.277344 4.167969 14.15625 C 4.171875 14.039062 4.226562 13.976562 4.308594 13.867188 C 4.386719 13.761719 4.453125 13.679688 4.503906 13.621094 " fill-opacity="1" fill-rule="nonzero"/></g></svg>