<svg xmlns="http://www.w3.org/2000/svg" xmlns:xlink="http://www.w3.org/1999/xlink" width="40" zoomAndPan="magnify" viewBox="0 0 30 30.000001" height="40" preserveAspectRatio="xMidYMid meet" version="1.0"><defs><clipPath id="b05f8eae8b"><path d="M 3.664062 2.902344 L 26.164062 2.902344 L 26.164062 26.128906 L 3.664062 26.128906 Z M 3.664062 2.902344 " clip-rule="nonzero"/></clipPath></defs><g clip-path="url(#b05f8eae8b)"><path fill="#014d4e" d="M 9.699219 20.742188 L 9.21875 20.691406 L 9.910156 19.730469 L 9.835938 19.652344 C 9.476562 19.992188 9.234375 20.523438 8.582031 20.320312 C 8.089844 20.164062 7.546875 20.128906 7.429688 19.480469 C 6.777344 19.640625 6.699219 18.902344 6.226562 18.777344 C 6.234375 18.742188 6.242188 18.703125 6.246094 18.667969 L 6.972656 18.464844 C 6.664062 18.160156 6.402344 17.800781 6.707031 17.355469 C 6.425781 16.992188 6.164062 16.644531 5.808594 16.183594 L 4.683594 16.570312 C 4.769531 15.957031 4.308594 15.515625 3.96875 15.007812 C 3.84375 14.824219 3.851562 14.546875 3.800781 14.308594 C 4.230469 14.246094 4.546875 14.300781 4.792969 14.695312 C 4.929688 14.917969 5.230469 15.035156 5.457031 15.199219 L 5.542969 15.089844 C 5.402344 14.980469 5.273438 14.859375 5.125 14.765625 C 4.910156 14.632812 4.9375 14.515625 5.117188 14.378906 C 5.324219 14.21875 5.515625 14.035156 5.730469 13.886719 C 5.816406 13.828125 5.945312 13.824219 6.054688 13.816406 C 6.273438 13.808594 6.496094 13.816406 6.726562 13.734375 L 6.417969 13.652344 L 6.671875 13.128906 C 6.324219 13.6875 5.765625 13.453125 5.214844 13.601562 L 5.628906 13.125 L 5.542969 13.050781 C 5.3125 13.328125 5.3125 13.328125 4.761719 13.101562 C 5.25 13.464844 4.996094 13.78125 4.75 14.121094 C 4.699219 14.082031 4.625 14.050781 4.589844 13.992188 C 4.164062 13.335938 4.03125 12.609375 4.117188 11.84375 C 4.136719 11.652344 4.21875 11.527344 4.484375 11.59375 C 4.746094 11.660156 5.03125 11.609375 5.320312 11.554688 C 5.070312 11.425781 4.578125 11.566406 4.8125 11.070312 L 3.707031 10.699219 C 3.730469 10.484375 3.671875 10.164062 3.796875 10.058594 C 4.042969 9.851562 4.375 9.800781 4.695312 10.039062 C 4.890625 10.191406 5.609375 9.910156 5.746094 9.597656 C 5.875 9.3125 6.207031 9.113281 6.097656 8.695312 C 6.050781 8.519531 6.148438 8.273438 6.527344 8.375 C 6.925781 8.484375 7.449219 8.097656 7.640625 7.6875 C 7.664062 7.632812 7.6875 7.539062 7.726562 7.527344 C 8.183594 7.417969 8.15625 7 8.300781 6.679688 C 8.429688 6.390625 8.640625 6.140625 8.792969 5.863281 C 8.859375 5.742188 8.824219 5.542969 8.914062 5.464844 C 9.359375 5.066406 9.492188 4.558594 9.558594 3.996094 C 9.570312 3.894531 9.78125 3.777344 9.921875 3.738281 C 10.359375 3.613281 10.800781 3.503906 11.25 3.421875 C 11.371094 3.398438 11.542969 3.457031 11.640625 3.539062 C 11.949219 3.800781 12.273438 3.859375 12.660156 3.738281 C 12.910156 3.660156 13.164062 3.601562 13.421875 3.570312 C 13.785156 3.519531 14.097656 3.445312 14.027344 2.996094 C 14.078125 2.964844 14.097656 2.9375 14.121094 2.9375 C 15.6875 2.925781 17.253906 2.902344 18.820312 2.910156 C 19.382812 2.914062 19.421875 2.992188 19.5625 3.550781 C 19.597656 3.695312 19.710938 3.863281 19.835938 3.941406 C 20.378906 4.273438 20.765625 4.714844 21.011719 5.308594 C 21.113281 5.558594 21.316406 5.773438 21.503906 5.976562 C 21.742188 6.234375 21.902344 6.5 21.933594 6.875 C 21.949219 7.085938 22.136719 7.28125 22.296875 7.410156 C 22.601562 7.628906 22.976562 7.800781 23.179688 8.089844 C 23.292969 8.25 23.132812 8.617188 23.058594 8.878906 C 23.027344 8.988281 22.867188 9.058594 22.8125 9.167969 C 22.558594 9.671875 22.695312 9.882812 23.257812 9.894531 C 23.871094 9.902344 23.898438 9.949219 23.808594 10.535156 C 23.699219 11.242188 23.730469 11.914062 24.34375 12.429688 C 24.4375 12.507812 24.503906 12.632812 24.578125 12.738281 C 24.746094 12.976562 24.691406 13.273438 24.421875 13.320312 C 23.734375 13.445312 23.636719 14.035156 23.402344 14.519531 C 23.253906 14.828125 23.132812 15.148438 23 15.46875 C 22.945312 15.601562 22.898438 15.734375 22.890625 15.882812 C 23.183594 15.484375 23.394531 15.433594 23.855469 15.617188 C 23.976562 15.664062 24.1875 15.660156 24.269531 15.585938 C 24.5625 15.316406 24.8125 15 25.089844 14.710938 C 25.246094 14.554688 25.410156 14.320312 25.597656 14.292969 C 26.152344 14.210938 26.324219 14.386719 26.179688 14.90625 C 26.082031 15.242188 25.972656 15.574219 25.882812 15.914062 C 25.851562 16.027344 25.847656 16.140625 25.871094 16.253906 C 25.960938 16.664062 25.8125 16.898438 25.402344 16.953125 C 25.257812 16.972656 25.113281 16.976562 24.96875 16.964844 C 24.589844 16.933594 24.402344 17.164062 24.132812 17.398438 C 23.511719 17.925781 23.757812 18.574219 23.714844 19.191406 C 23.699219 19.371094 23.710938 19.554688 23.710938 19.757812 C 23.050781 19.910156 22.710938 20.4375 22.324219 20.910156 C 22.019531 21.28125 21.707031 21.589844 21.25 21.820312 C 20.683594 22.109375 20.179688 22.566406 19.738281 23.035156 C 19.394531 23.398438 19.09375 23.761719 18.601562 23.941406 C 18.238281 24.074219 18.066406 24.535156 18.164062 24.78125 C 18.0625 25.011719 17.996094 25.183594 17.910156 25.34375 C 17.773438 25.59375 17.671875 25.972656 17.46875 26.046875 C 17.234375 26.128906 16.84375 26.011719 16.621094 25.847656 C 15.714844 25.167969 14.820312 24.496094 13.71875 24.125 C 12.351562 23.664062 11.007812 23.121094 9.628906 22.523438 L 10.375 22.429688 C 10.246094 22.378906 10.117188 22.328125 9.988281 22.28125 C 9.898438 22.246094 9.804688 22.214844 9.714844 22.183594 C 9.75 22.089844 9.777344 21.992188 9.824219 21.902344 C 10.027344 21.511719 10.429688 21.472656 10.769531 21.527344 C 11.269531 21.609375 11.566406 21.273438 12.011719 21.136719 C 11.628906 20.984375 11.636719 21.011719 11.308594 21.144531 C 10.996094 21.273438 10.671875 21.363281 10.335938 21.410156 C 9.960938 21.464844 9.808594 21.285156 9.699219 20.742188 Z M 9.699219 20.742188 " fill-opacity="1" fill-rule="nonzero"/></g><path fill="#014d4e" d="M 9.261719 22.648438 C 9.136719 22.195312 8.9375 21.972656 8.539062 21.878906 C 7.796875 21.703125 7.066406 21.488281 6.328125 21.289062 C 6.609375 20.890625 7 20.847656 7.429688 20.859375 C 7.6875 20.871094 7.964844 20.875 8.199219 20.792969 C 8.679688 20.625 9.058594 20.898438 9.441406 21.058594 C 9.785156 21.203125 9.601562 21.570312 9.558594 21.847656 C 9.535156 22.019531 9.507812 22.195312 9.453125 22.359375 C 9.417969 22.464844 9.328125 22.554688 9.261719 22.648438 Z M 9.261719 22.648438 " fill-opacity="1" fill-rule="nonzero"/></svg>