<svg xmlns="http://www.w3.org/2000/svg" xmlns:xlink="http://www.w3.org/1999/xlink" width="40" zoomAndPan="magnify" viewBox="0 0 30 30.000001" height="40" preserveAspectRatio="xMidYMid meet" version="1.0"><defs><clipPath id="448bc71e7e"><path d="M 5.449219 3 L 24.320312 3 L 24.320312 26.128906 L 5.449219 26.128906 Z M 5.449219 3 " clip-rule="nonzero"/></clipPath></defs><g clip-path="url(#448bc71e7e)"><path fill="#014d4e" d="M 11.34375 23.878906 C 11.214844 23.871094 11.082031 23.871094 10.949219 23.878906 C 10.878906 23.890625 10.816406 23.925781 10.769531 23.984375 C 10.6875 24.101562 10.574219 24.148438 10.433594 24.125 C 10.195312 24.152344 10.015625 24.0625 9.890625 23.859375 C 9.863281 23.824219 9.824219 23.804688 9.777344 23.800781 C 9.453125 23.773438 9.195312 23.886719 9 24.148438 C 8.800781 24.464844 8.464844 24.488281 8.144531 24.519531 C 7.789062 24.582031 7.453125 24.527344 7.132812 24.355469 C 6.914062 24.238281 6.691406 24.125 6.464844 24.011719 C 6.355469 23.953125 6.347656 23.886719 6.402344 23.773438 C 6.460938 23.664062 6.535156 23.433594 6.625 23.277344 C 6.71875 23.109375 6.835938 22.953125 6.96875 22.8125 C 7.070312 22.722656 7.101562 22.613281 7.0625 22.488281 C 7.023438 22.316406 6.964844 22.148438 6.917969 21.976562 C 6.757812 21.394531 6.59375 20.8125 6.449219 20.226562 C 6.40625 20.023438 6.382812 19.820312 6.382812 19.613281 C 6.363281 19.265625 6.46875 18.960938 6.695312 18.695312 C 6.878906 18.46875 7.066406 18.253906 7.269531 18.039062 C 7.417969 17.902344 7.472656 17.738281 7.425781 17.542969 C 7.414062 17.4375 7.429688 17.339844 7.472656 17.246094 C 7.582031 17.066406 7.554688 16.910156 7.394531 16.773438 C 7.324219 16.664062 7.273438 16.550781 7.234375 16.425781 C 7.234375 16.394531 7.234375 16.34375 7.234375 16.328125 C 6.996094 16.117188 7.042969 15.730469 6.738281 15.550781 C 6.4375 15.367188 6.238281 15.175781 5.992188 15.007812 C 5.796875 14.894531 5.691406 14.722656 5.671875 14.496094 C 5.671875 14.261719 5.671875 14.027344 5.671875 13.796875 C 5.671875 13.472656 5.640625 13.152344 5.613281 12.828125 C 5.597656 12.757812 5.566406 12.703125 5.515625 12.65625 C 5.421875 12.535156 5.433594 12.425781 5.554688 12.328125 C 5.628906 12.25 5.675781 12.160156 5.699219 12.054688 C 5.746094 11.824219 5.824219 11.757812 6.050781 11.839844 C 6.28125 11.921875 6.527344 12.054688 6.777344 12.125 C 6.921875 12.15625 7.070312 12.15625 7.214844 12.125 C 7.324219 12.125 7.429688 12.046875 7.539062 12.042969 C 7.679688 12.046875 7.789062 11.988281 7.871094 11.871094 C 8.027344 11.652344 8.1875 11.433594 8.347656 11.222656 C 8.398438 11.109375 8.484375 11.039062 8.609375 11.011719 C 8.730469 10.984375 8.839844 11.011719 8.933594 11.09375 C 9.011719 11.140625 9.097656 11.167969 9.191406 11.179688 L 10.984375 11.25 C 11.132812 11.265625 11.238281 11.207031 11.304688 11.074219 C 11.375 10.988281 11.457031 10.914062 11.550781 10.851562 C 11.617188 10.804688 11.679688 10.75 11.738281 10.683594 C 12.066406 10.253906 12.386719 9.816406 12.707031 9.378906 C 12.808594 9.210938 12.960938 9.121094 13.160156 9.109375 C 13.257812 9.105469 13.34375 9.066406 13.410156 8.992188 C 14.066406 8.164062 14.964844 7.632812 15.789062 7.015625 C 16.054688 6.8125 16.34375 6.640625 16.625 6.445312 C 16.832031 6.285156 17.066406 6.1875 17.328125 6.160156 C 17.417969 6.140625 17.496094 6.097656 17.5625 6.035156 C 17.71875 5.875 17.90625 5.773438 18.125 5.734375 C 18.230469 5.71875 18.324219 5.679688 18.40625 5.617188 C 18.65625 5.449219 18.925781 5.390625 19.222656 5.433594 C 19.535156 5.492188 19.796875 5.402344 20.015625 5.171875 C 20.125 5.058594 20.257812 5.023438 20.410156 5.0625 C 20.667969 5.113281 20.765625 5.042969 20.890625 4.8125 C 20.96875 4.671875 21.0625 4.535156 21.167969 4.410156 C 21.214844 4.367188 21.269531 4.339844 21.332031 4.328125 L 22.167969 4.148438 C 22.304688 4.117188 22.386719 4.027344 22.414062 3.890625 C 22.449219 3.628906 22.585938 3.445312 22.832031 3.34375 C 22.855469 3.34375 22.894531 3.316406 22.898438 3.296875 C 22.9375 3.066406 23.164062 3.128906 23.296875 3.046875 C 23.328125 3.03125 23.359375 3.03125 23.390625 3.046875 C 23.550781 3.226562 23.792969 3.136719 23.984375 3.234375 C 24.007812 3.234375 24.089844 3.164062 24.144531 3.128906 L 24.261719 3.019531 C 24.292969 3.070312 24.351562 3.113281 24.355469 3.164062 C 24.402344 3.632812 24.441406 4.097656 24.46875 4.5625 C 24.453125 4.652344 24.410156 4.722656 24.328125 4.765625 C 24.183594 4.832031 24.074219 4.933594 24 5.074219 C 23.945312 5.1875 23.871094 5.289062 23.785156 5.382812 C 23.671875 5.503906 23.628906 5.644531 23.664062 5.808594 C 23.75 6.269531 23.832031 6.726562 23.925781 7.1875 C 23.976562 7.328125 23.9375 7.433594 23.804688 7.507812 C 23.6875 7.578125 23.59375 7.683594 23.480469 7.753906 C 23.394531 7.800781 23.304688 7.832031 23.210938 7.84375 C 23.0625 7.867188 23.011719 7.941406 23.039062 8.082031 C 23.082031 8.285156 23.121094 8.496094 23.15625 8.703125 C 23.183594 8.828125 23.199219 8.953125 23.199219 9.078125 C 23.1875 9.34375 23.246094 9.59375 23.382812 9.824219 C 23.410156 9.898438 23.410156 9.972656 23.382812 10.046875 C 23.304688 10.277344 23.21875 10.511719 23.121094 10.734375 C 23.035156 10.890625 23.046875 11.035156 23.15625 11.179688 C 23.414062 11.582031 23.65625 12 23.902344 12.398438 C 24.125 12.730469 24.273438 13.089844 24.34375 13.484375 C 24.464844 13.890625 24.519531 14.308594 24.503906 14.734375 C 24.464844 15.011719 24.402344 15.289062 24.320312 15.558594 C 24.273438 15.652344 24.199219 15.71875 24.101562 15.75 C 23.921875 15.804688 23.792969 15.914062 23.710938 16.082031 C 23.632812 16.320312 23.488281 16.503906 23.273438 16.636719 C 23.207031 16.671875 23.175781 16.785156 23.136719 16.867188 C 23.085938 17.015625 23.023438 17.160156 22.945312 17.296875 C 22.714844 17.683594 22.585938 18.097656 22.554688 18.542969 C 22.546875 18.726562 22.476562 18.882812 22.335938 19.003906 C 22.199219 19.125 22.039062 19.179688 21.855469 19.164062 C 21.660156 19.125 21.480469 19.160156 21.3125 19.269531 C 21.148438 19.382812 21.042969 19.535156 21.007812 19.730469 C 20.964844 19.855469 20.90625 19.972656 20.832031 20.082031 C 20.664062 20.324219 20.613281 20.589844 20.6875 20.875 C 20.710938 21.144531 20.71875 21.421875 20.722656 21.691406 C 20.695312 21.894531 20.765625 22.050781 20.933594 22.171875 C 20.984375 22.199219 21.011719 22.242188 21.019531 22.300781 C 21.027344 22.359375 21.007812 22.410156 20.964844 22.449219 C 20.652344 22.746094 20.460938 23.109375 20.390625 23.535156 C 20.378906 23.609375 20.347656 23.675781 20.304688 23.738281 C 20.035156 24.15625 19.867188 24.613281 19.800781 25.105469 C 19.761719 25.285156 19.6875 25.355469 19.5 25.34375 C 19.042969 25.316406 18.585938 25.296875 18.128906 25.292969 C 17.675781 25.289062 17.214844 25.292969 16.761719 25.3125 C 16.363281 25.339844 16 25.464844 15.667969 25.683594 C 15.605469 25.726562 15.558594 25.78125 15.527344 25.847656 C 15.476562 25.957031 15.402344 25.984375 15.3125 25.929688 C 15.070312 25.8125 14.84375 25.832031 14.628906 25.988281 C 14.542969 26.035156 14.453125 26.042969 14.363281 26.011719 C 14.03125 25.835938 13.707031 25.640625 13.386719 25.453125 C 13.25 25.363281 13.199219 25.238281 13.242188 25.078125 C 13.242188 24.992188 13.222656 24.910156 13.171875 24.832031 C 13.078125 24.691406 13.054688 24.539062 13.097656 24.375 C 13.15625 24.222656 13.117188 24.097656 12.988281 24 C 12.828125 23.878906 12.644531 23.777344 12.484375 23.65625 C 12.324219 23.53125 12.265625 23.449219 12.15625 23.351562 C 12.042969 23.253906 12.03125 23.242188 11.96875 23.242188 C 11.796875 23.25 11.652344 23.316406 11.53125 23.4375 C 11.414062 23.5625 11.351562 23.707031 11.34375 23.878906 Z M 11.34375 23.878906 " fill-opacity="1" fill-rule="evenodd"/></g></svg>