<svg xmlns="http://www.w3.org/2000/svg" xmlns:xlink="http://www.w3.org/1999/xlink" width="40" zoomAndPan="magnify" viewBox="0 0 30 30.000001" height="40" preserveAspectRatio="xMidYMid meet" version="1.0"><defs><clipPath id="981f321ae2"><path d="M 3.386719 4.949219 L 26.613281 4.949219 L 26.613281 23.820312 L 3.386719 23.820312 Z M 3.386719 4.949219 " clip-rule="nonzero"/></clipPath></defs><g clip-path="url(#981f321ae2)"><path fill="#014d4e" d="M 26.574219 21.21875 C 26.527344 20.84375 26.269531 20.660156 26.105469 20.34375 C 25.992188 20.125 25.921875 19.914062 25.785156 19.707031 C 25.628906 19.46875 25.644531 19.550781 25.449219 19.664062 C 25.285156 19.757812 25.210938 19.71875 25.09375 19.585938 C 24.953125 19.421875 25.0625 19.402344 25.0625 19.210938 C 25.0625 19.078125 24.90625 18.941406 24.816406 18.863281 C 24.648438 18.714844 24.5 18.59375 24.351562 18.421875 C 24.246094 18.292969 24.046875 18.152344 24.074219 18.011719 C 24.078125 17.976562 24.171875 17.851562 24.195312 17.800781 C 24.234375 17.710938 24.285156 17.621094 24.320312 17.53125 C 24.425781 17.25 24.332031 16.925781 24.195312 16.671875 C 24.09375 16.488281 24.074219 16.460938 24.183594 16.269531 C 24.261719 16.128906 24.285156 16.027344 24.304688 15.863281 C 24.347656 15.558594 24.261719 15.3125 24.136719 15.023438 C 24.03125 14.769531 23.820312 14.601562 23.730469 14.34375 C 23.726562 14.304688 23.714844 14.226562 23.699219 14.140625 C 23.792969 14.03125 23.894531 13.910156 23.917969 13.757812 C 23.957031 13.550781 23.792969 13.382812 23.644531 13.257812 C 23.53125 13.15625 23.394531 13.078125 23.304688 12.957031 C 23.21875 12.84375 23.167969 12.699219 23.085938 12.582031 C 22.949219 12.382812 22.644531 12.007812 22.429688 11.902344 C 22.25 11.8125 22.007812 11.832031 21.832031 11.710938 C 21.679688 11.605469 21.578125 11.339844 21.453125 11.191406 C 21.316406 11.03125 21.121094 10.988281 21.074219 10.78125 C 21.015625 10.53125 21.011719 10.261719 20.921875 10.019531 C 20.894531 9.953125 20.847656 9.800781 20.761719 9.777344 C 20.671875 9.757812 20.648438 9.847656 20.578125 9.863281 C 20.46875 9.886719 20.53125 9.914062 20.4375 9.820312 C 20.367188 9.757812 20.335938 9.644531 20.273438 9.578125 C 20.140625 9.433594 19.953125 9.339844 19.878906 9.152344 C 19.804688 8.960938 19.839844 8.738281 19.699219 8.570312 C 19.640625 8.507812 19.539062 8.480469 19.492188 8.40625 C 19.441406 8.324219 19.457031 8.195312 19.445312 8.101562 C 19.425781 7.949219 19.382812 7.808594 19.355469 7.652344 C 19.335938 7.527344 19.359375 7.375 19.28125 7.269531 C 19.109375 7.027344 18.628906 7.007812 18.375 6.902344 C 18.28125 6.859375 18.101562 6.675781 18.007812 6.683594 C 17.820312 6.707031 17.828125 6.921875 17.601562 6.796875 C 17.488281 6.730469 17.449219 6.609375 17.335938 6.558594 C 17.183594 6.488281 17.140625 6.589844 17 6.601562 C 16.910156 6.34375 16.6875 6.273438 16.492188 6.113281 C 16.40625 6.046875 16.355469 5.953125 16.277344 5.878906 C 16.195312 5.792969 16.09375 5.773438 15.992188 5.703125 C 15.847656 5.605469 15.78125 5.441406 15.671875 5.320312 C 15.488281 5.113281 15.464844 5.199219 15.246094 5.234375 C 15.109375 5.261719 14.90625 5.144531 14.832031 5.28125 C 14.832031 5.277344 14.832031 5.273438 14.828125 5.265625 C 14.765625 5.328125 14.703125 5.394531 14.640625 5.460938 C 14.519531 5.296875 14.34375 5.15625 14.207031 5.140625 C 13.917969 5.101562 13.621094 5.292969 13.359375 5.171875 C 13.242188 5.117188 13.105469 4.964844 12.984375 4.957031 C 12.878906 4.949219 12.769531 5.054688 12.683594 5.113281 C 12.378906 5.328125 12.089844 5.394531 11.714844 5.339844 C 11.382812 5.292969 11.109375 5.296875 10.808594 5.488281 C 10.675781 5.574219 10.644531 5.644531 10.480469 5.628906 C 10.363281 5.621094 10.265625 5.554688 10.148438 5.539062 C 9.90625 5.503906 9.574219 5.757812 9.367188 5.667969 C 9.238281 5.609375 9.09375 5.445312 8.980469 5.355469 C 8.878906 5.273438 8.832031 5.175781 8.699219 5.1875 C 8.589844 5.199219 8.507812 5.304688 8.441406 5.367188 C 8.214844 5.578125 8.023438 5.792969 7.882812 6.0625 C 7.75 6.308594 7.636719 6.570312 7.519531 6.828125 C 7.460938 6.957031 7.402344 7.078125 7.3125 7.183594 C 7.21875 7.300781 7.101562 7.390625 7.066406 7.542969 C 7.042969 7.628906 7.082031 7.710938 7.078125 7.792969 C 7.070312 7.902344 7.027344 8.007812 7.027344 8.117188 C 7.027344 8.300781 7.09375 8.503906 6.964844 8.664062 C 6.859375 8.804688 6.679688 8.867188 6.597656 9.03125 C 6.519531 9.1875 6.523438 9.363281 6.433594 9.519531 C 6.257812 9.832031 6.113281 10.089844 5.875 10.347656 C 5.648438 10.59375 5.488281 10.921875 5.332031 11.210938 C 5.320312 11.242188 5.304688 11.300781 5.285156 11.359375 C 5.015625 11.46875 4.921875 11.542969 4.710938 11.765625 C 4.613281 11.863281 4.546875 11.980469 4.441406 12.070312 C 4.308594 12.179688 4.140625 12.261719 4.03125 12.390625 C 3.917969 12.519531 3.84375 12.648438 3.71875 12.769531 C 3.597656 12.886719 3.464844 13.007812 3.386719 13.152344 C 3.539062 13.246094 3.703125 13.289062 3.839844 13.417969 C 4 13.574219 4.003906 13.683594 4.070312 13.878906 C 4.125 14.019531 4.171875 13.976562 4.277344 14.066406 C 4.378906 14.15625 4.347656 14.226562 4.386719 14.335938 C 4.429688 14.449219 4.492188 14.496094 4.59375 14.542969 C 4.710938 14.59375 4.71875 14.558594 4.847656 14.5625 C 5.140625 14.578125 4.90625 14.925781 4.878906 15.117188 C 5.046875 15.28125 5.136719 15.628906 5.410156 15.632812 C 5.394531 15.753906 5.382812 15.871094 5.378906 15.992188 C 5.511719 16.039062 5.878906 16.371094 6.007812 16.308594 C 6.117188 16.253906 6.097656 16.042969 6.152344 15.960938 C 6.21875 15.871094 6.363281 15.796875 6.460938 15.734375 C 6.527344 15.691406 6.675781 15.597656 6.75 15.582031 C 6.898438 15.550781 6.960938 15.632812 7.082031 15.710938 C 7.417969 15.933594 7.488281 15.550781 7.789062 15.550781 C 7.949219 15.550781 8.089844 15.710938 8.152344 15.84375 C 8.175781 15.902344 8.1875 15.96875 8.203125 16.035156 C 8.066406 15.980469 7.929688 15.929688 7.792969 15.882812 C 7.585938 15.875 7.59375 16.214844 7.34375 16.128906 C 7.132812 16.054688 6.988281 15.886719 6.75 15.902344 C 6.574219 15.917969 6.605469 15.980469 6.558594 16.125 C 6.523438 16.234375 6.414062 16.308594 6.402344 16.402344 C 6.386719 16.554688 6.539062 16.582031 6.605469 16.683594 C 6.675781 16.78125 6.664062 16.898438 6.644531 17.007812 C 6.621094 17.152344 6.585938 17.207031 6.484375 17.308594 C 6.417969 17.371094 6.4375 17.378906 6.332031 17.417969 C 6.269531 17.445312 6.21875 17.445312 6.167969 17.5 C 6.148438 17.414062 6.105469 17.308594 6.121094 17.226562 C 6.144531 17.113281 6.289062 17.046875 6.300781 16.949219 C 6.332031 16.722656 5.992188 16.578125 5.828125 16.675781 C 5.679688 16.765625 5.570312 17.039062 5.617188 17.203125 C 5.648438 17.308594 5.773438 17.378906 5.8125 17.492188 C 5.84375 17.59375 5.800781 17.664062 5.796875 17.757812 C 5.78125 17.960938 6.074219 18.316406 6.265625 18.375 C 6.265625 18.378906 6.265625 18.390625 6.265625 18.394531 L 10.101562 18.40625 C 10.148438 18.320312 10.195312 18.230469 10.234375 18.136719 C 10.300781 17.984375 10.417969 17.71875 10.550781 17.65625 C 10.660156 17.605469 10.851562 17.636719 10.957031 17.671875 C 11.101562 17.726562 11.085938 17.730469 11.238281 17.71875 C 11.507812 17.699219 11.863281 17.550781 12.109375 17.644531 C 12.378906 17.75 12.542969 18 12.800781 18.121094 C 13.011719 18.222656 13.304688 18.210938 13.539062 18.203125 C 13.664062 18.199219 13.734375 18.167969 13.832031 18.246094 C 13.90625 18.304688 13.980469 18.414062 14.070312 18.484375 C 14.269531 18.636719 14.507812 18.796875 14.765625 18.746094 C 14.914062 18.722656 15.085938 18.621094 15.238281 18.574219 C 15.386719 18.53125 15.523438 18.464844 15.671875 18.425781 C 15.988281 18.347656 16.195312 18.464844 16.457031 18.632812 C 16.648438 18.753906 16.816406 18.964844 16.511719 19.0625 C 16.390625 19.105469 16.273438 19.074219 16.152344 19.144531 C 16.035156 19.207031 16.058594 19.28125 15.984375 19.363281 C 15.894531 19.464844 15.59375 19.476562 15.460938 19.515625 C 15.199219 19.601562 14.964844 19.808594 14.671875 19.765625 C 14.195312 19.703125 13.769531 19.476562 13.351562 19.273438 C 13.242188 19.222656 13.121094 19.199219 13.011719 19.164062 C 12.914062 19.132812 12.820312 19.0625 12.726562 19.039062 C 12.582031 18.996094 12.550781 19.070312 12.421875 19.105469 C 12.316406 19.132812 12.183594 19.121094 12.074219 19.097656 C 11.75 19.023438 11.820312 18.609375 11.550781 18.421875 C 11.414062 18.546875 11.289062 18.722656 11.203125 18.886719 C 11.140625 19.007812 11.125 19.242188 10.988281 19.300781 C 10.917969 19.332031 10.601562 19.269531 10.511719 19.25 C 10.386719 19.21875 10.28125 19.089844 10.144531 19.117188 C 10.042969 19.136719 9.96875 19.242188 9.875 19.28125 C 9.773438 19.3125 9.652344 19.304688 9.554688 19.332031 C 9.347656 19.390625 9.257812 19.492188 9.167969 19.671875 C 9.070312 19.871094 9.09375 20.101562 8.835938 20.171875 C 8.636719 20.222656 8.425781 20.144531 8.230469 20.109375 C 8.03125 20.070312 7.824219 20.15625 7.625 20.15625 C 7.441406 20.15625 7.246094 20.117188 7.054688 20.101562 C 6.890625 20.089844 5.894531 20.109375 5.890625 20.148438 C 5.800781 20.148438 5.710938 20.148438 5.621094 20.144531 C 5.515625 20.230469 5.417969 20.320312 5.320312 20.417969 C 5.34375 20.585938 5.3125 20.859375 5.3125 21.070312 C 5.3125 21.324219 5.171875 21.507812 5.121094 21.75 C 5.09375 21.875 5.132812 22 5.109375 22.121094 C 5.09375 22.242188 4.984375 22.375 5.050781 22.496094 C 5.101562 22.585938 5.257812 22.585938 5.289062 22.675781 C 5.332031 22.785156 5.183594 22.980469 5.132812 23.070312 C 4.945312 23.375 5.058594 23.613281 5.378906 23.796875 C 5.785156 24.027344 6.082031 24.082031 6.449219 23.738281 C 6.621094 23.582031 6.792969 23.589844 7.007812 23.5 C 7.175781 23.433594 7.417969 23.238281 7.597656 23.21875 C 7.808594 23.195312 8 23.417969 8.214844 23.417969 C 8.457031 23.417969 8.71875 23.402344 8.957031 23.386719 C 9.132812 23.375 9.335938 23.492188 9.5 23.433594 C 9.644531 23.378906 9.828125 23.164062 9.949219 23.074219 C 10.128906 22.941406 10.300781 22.886719 10.507812 22.8125 C 10.859375 22.691406 11.261719 22.59375 11.59375 22.421875 L 19.367188 22.539062 C 19.382812 22.570312 19.398438 22.59375 19.410156 22.617188 C 19.5 22.789062 19.570312 22.972656 19.65625 23.148438 C 19.789062 23.417969 19.917969 23.378906 20.125 23.21875 C 20.226562 23.136719 20.214844 23.136719 20.351562 23.136719 C 20.519531 23.136719 20.484375 23.144531 20.578125 23.257812 C 20.699219 23.40625 20.828125 23.589844 21.019531 23.554688 C 21.273438 23.507812 21.378906 23.449219 21.546875 23.660156 C 21.675781 23.644531 21.832031 23.582031 21.953125 23.605469 C 22.089844 23.636719 22.195312 23.777344 22.332031 23.832031 C 22.625 23.953125 22.972656 23.570312 23.246094 23.460938 C 23.367188 23.410156 23.566406 23.347656 23.683594 23.386719 C 23.824219 23.433594 23.984375 23.648438 24.136719 23.660156 C 24.292969 23.675781 24.378906 23.496094 24.488281 23.429688 C 24.625 23.34375 24.800781 23.347656 24.957031 23.359375 C 25.230469 23.375 25.492188 23.386719 25.765625 23.375 C 25.871094 23.371094 25.992188 23.34375 26.113281 23.328125 C 26.085938 23.191406 26.058594 23.046875 26.085938 22.917969 C 26.101562 22.832031 26.171875 22.773438 26.175781 22.667969 C 26.179688 22.59375 26.160156 22.527344 26.160156 22.453125 C 26.148438 22.261719 26.179688 22.210938 26.277344 22.058594 C 26.449219 21.808594 26.613281 21.515625 26.574219 21.21875 Z M 26.574219 21.21875 " fill-opacity="1" fill-rule="nonzero"/></g></svg>