<svg xmlns="http://www.w3.org/2000/svg" xmlns:xlink="http://www.w3.org/1999/xlink" width="40" zoomAndPan="magnify" viewBox="0 0 30 30.000001" height="40" preserveAspectRatio="xMidYMid meet" version="1.0"><defs><clipPath id="bafdfe242d"><path d="M 6.101562 2.902344 L 24 2.902344 L 24 26.128906 L 6.101562 26.128906 Z M 6.101562 2.902344 " clip-rule="nonzero"/></clipPath></defs><g clip-path="url(#bafdfe242d)"><path fill="#014d4e" d="M 23.847656 5.945312 C 23.757812 5.730469 23.648438 5.492188 23.59375 5.367188 C 23.578125 5.292969 23.578125 5.148438 23.558594 4.914062 L 23.558594 4.839844 C 23.558594 4.769531 23.539062 4.605469 23.449219 4.480469 C 23.394531 4.390625 23.394531 4.335938 23.433594 4.242188 C 23.503906 4.117188 23.539062 3.992188 23.578125 3.863281 C 23.59375 3.808594 23.613281 3.773438 23.632812 3.71875 C 23.667969 3.628906 23.667969 3.519531 23.613281 3.429688 C 23.578125 3.339844 23.484375 3.265625 23.394531 3.246094 L 23.195312 3.191406 C 22.980469 3.121094 22.78125 3.066406 22.5625 2.992188 C 22.527344 2.976562 22.253906 2.902344 22.035156 3.03125 C 21.835938 3.140625 21.65625 3.285156 21.492188 3.410156 C 21.402344 3.484375 21.3125 3.539062 21.222656 3.609375 C 21.148438 3.628906 21.078125 3.644531 20.984375 3.644531 C 20.878906 3.664062 20.75 3.683594 20.640625 3.71875 C 20.550781 3.738281 20.441406 3.753906 20.351562 3.773438 C 20.0625 3.808594 19.773438 3.863281 19.480469 4.007812 C 19.410156 4.042969 19.320312 4.042969 19.191406 4.027344 C 19.082031 4.007812 18.757812 3.917969 18.449219 4.152344 C 18.414062 4.191406 18.339844 4.207031 18.269531 4.242188 C 18.25 4.261719 18.214844 4.261719 18.195312 4.28125 L 17.632812 4.296875 C 17.378906 4.296875 17.128906 4.316406 16.855469 4.316406 C 16.78125 4.316406 16.65625 4.335938 16.546875 4.390625 C 16.382812 4.480469 15.695312 4.859375 15.496094 4.96875 C 15.316406 4.933594 15.132812 4.894531 14.953125 4.859375 C 14.773438 4.824219 14.589844 4.789062 14.410156 4.75 C 14.28125 4.734375 14.121094 4.75 14.011719 4.824219 C 13.8125 4.933594 13.558594 5.078125 13.324219 5.222656 C 13.015625 5.421875 12.777344 5.546875 12.527344 5.511719 C 12.472656 5.511719 12.417969 5.511719 12.398438 5.511719 C 12.234375 5.53125 12.164062 5.511719 12.109375 5.476562 C 12.035156 5.421875 11.945312 5.386719 11.875 5.347656 C 11.855469 5.332031 11.820312 5.332031 11.78125 5.3125 C 11.566406 5.042969 10.460938 3.773438 10.460938 3.773438 C 10.386719 3.683594 10.277344 3.644531 10.152344 3.644531 C 10.042969 3.664062 9.933594 3.71875 9.878906 3.828125 C 9.808594 3.9375 9.425781 4.589844 9.28125 4.804688 C 8.992188 5.222656 9.046875 5.929688 9.355469 6.328125 C 9.535156 6.582031 9.734375 6.816406 9.933594 7.050781 C 9.933594 7.050781 10.332031 7.558594 10.476562 7.6875 C 10.640625 7.847656 10.804688 7.976562 10.96875 8.121094 L 11.128906 8.246094 C 11.222656 8.320312 11.3125 8.410156 11.457031 8.464844 C 12.472656 8.828125 13.484375 9.191406 14.480469 9.550781 L 16.167969 10.148438 C 16.347656 10.203125 16.511719 10.242188 16.710938 10.222656 C 16.855469 10.222656 17.019531 10.203125 17.164062 10.203125 C 15.769531 11.597656 14.375 12.996094 12.976562 14.390625 C 12.433594 14.40625 11.945312 14.40625 11.4375 14.40625 C 11.203125 14.40625 11.003906 14.460938 10.804688 14.550781 L 10.660156 14.625 C 10.316406 14.789062 9.953125 14.949219 9.644531 15.277344 C 9.480469 15.441406 9.265625 15.566406 8.957031 15.621094 C 8.773438 15.65625 8.558594 15.710938 8.375 15.820312 C 8.03125 16 7.632812 16.21875 7.433594 16.671875 C 7.417969 16.707031 7.273438 16.960938 7.21875 17.035156 C 7.144531 17.179688 7.054688 17.304688 6.964844 17.414062 C 6.820312 17.578125 6.636719 17.742188 6.457031 17.902344 C 6.382812 17.976562 6.292969 18.050781 6.222656 18.121094 C 6.148438 18.175781 6.113281 18.265625 6.113281 18.375 L 6.113281 24.480469 C 6.113281 24.570312 6.148438 24.644531 6.203125 24.714844 C 6.273438 24.804688 7 25.804688 7.144531 25.984375 C 7.21875 26.074219 7.308594 26.128906 7.417969 26.128906 C 7.417969 26.128906 7.433594 26.128906 7.433594 26.128906 C 7.542969 26.128906 7.632812 26.074219 7.707031 26.003906 C 7.707031 26.003906 8.738281 24.804688 9.082031 24.425781 C 9.101562 24.40625 9.121094 24.390625 9.136719 24.371094 C 9.246094 24.261719 9.375 24.101562 9.425781 23.863281 C 9.445312 23.808594 9.464844 23.738281 9.480469 23.683594 C 9.535156 23.683594 9.574219 23.683594 9.625 23.664062 C 9.734375 23.648438 9.84375 23.59375 9.933594 23.519531 C 10.023438 23.429688 10.117188 23.339844 10.1875 23.230469 C 10.261719 23.15625 10.332031 23.085938 10.40625 22.996094 C 10.476562 22.921875 10.53125 22.851562 10.605469 22.777344 C 10.75 22.613281 10.894531 22.453125 11.039062 22.304688 C 11.566406 21.835938 12.089844 21.363281 12.617188 20.910156 L 13.105469 20.496094 C 13.160156 20.441406 13.214844 20.402344 13.25 20.386719 C 13.46875 20.277344 13.703125 20.1875 13.921875 20.078125 C 14.121094 19.988281 14.320312 19.898438 14.519531 19.804688 C 14.664062 19.734375 14.773438 19.625 14.84375 19.550781 C 14.972656 19.40625 15.097656 19.246094 15.226562 19.101562 C 15.515625 18.738281 15.804688 18.394531 16.148438 18.101562 C 16.476562 17.832031 17.433594 16.945312 17.472656 16.90625 C 17.578125 16.816406 17.707031 16.691406 17.816406 16.546875 C 17.996094 16.238281 18.179688 15.929688 18.359375 15.621094 C 18.449219 15.476562 18.523438 15.332031 18.613281 15.167969 L 18.628906 15.132812 C 18.667969 15.078125 18.703125 15.003906 18.722656 14.988281 C 18.921875 14.789062 19.554688 14.171875 19.679688 14.046875 C 19.753906 13.972656 19.808594 13.882812 19.84375 13.773438 C 19.882812 13.648438 19.933594 13.519531 19.972656 13.410156 C 20.007812 13.320312 20.027344 13.230469 20.0625 13.15625 C 20.097656 13.066406 20.117188 12.996094 20.152344 12.902344 C 20.207031 12.722656 20.261719 12.542969 20.351562 12.394531 C 20.550781 11.980469 20.785156 11.582031 21.058594 11.109375 C 21.257812 10.785156 21.367188 10.476562 21.421875 10.148438 C 21.457031 10.09375 21.511719 10.058594 21.546875 10.023438 C 21.636719 9.933594 21.746094 9.824219 21.820312 9.695312 C 22.054688 9.351562 22.273438 8.992188 22.488281 8.644531 L 22.707031 8.320312 C 22.761719 8.246094 22.796875 8.15625 22.796875 8.085938 C 22.851562 7.792969 22.886719 7.59375 22.941406 7.394531 C 22.980469 7.214844 23.035156 7.050781 23.070312 6.816406 C 23.125 6.796875 23.449219 6.652344 23.648438 6.542969 C 23.757812 6.492188 23.832031 6.382812 23.847656 6.273438 L 23.867188 6.21875 C 23.867188 6.128906 23.882812 6.039062 23.847656 5.945312 Z M 23.847656 5.945312 " fill-opacity="1" fill-rule="nonzero"/></g></svg>