<svg xmlns="http://www.w3.org/2000/svg" xmlns:xlink="http://www.w3.org/1999/xlink" width="40" zoomAndPan="magnify" viewBox="0 0 30 30.000001" height="40" preserveAspectRatio="xMidYMid meet" version="1.0"><defs><clipPath id="fe05e15a14"><path d="M 3.632812 2.902344 L 26.132812 2.902344 L 26.132812 26.128906 L 3.632812 26.128906 Z M 3.632812 2.902344 " clip-rule="nonzero"/></clipPath></defs><g clip-path="url(#fe05e15a14)"><path fill="#014d4e" d="M 25.222656 18.386719 C 25.183594 18.453125 25.121094 18.515625 25.054688 18.582031 C 24.886719 18.746094 24.789062 18.859375 24.894531 19.058594 C 25.019531 19.296875 24.953125 19.363281 24.847656 19.585938 C 24.761719 19.761719 24.851562 19.980469 24.851562 20.183594 C 24.851562 20.699219 24.667969 21.265625 24.308594 21.652344 C 24.160156 21.808594 24.101562 21.949219 24.015625 22.144531 C 23.941406 22.3125 23.890625 22.574219 23.757812 22.695312 C 23.667969 22.78125 23.539062 22.800781 23.425781 22.859375 C 23.246094 22.949219 23.296875 23.109375 23.167969 23.207031 C 23.085938 23.269531 22.828125 23.296875 22.726562 23.3125 C 22.617188 23.328125 22.378906 23.375 22.300781 23.285156 C 22.136719 23.105469 22.378906 22.832031 22.214844 22.65625 C 21.96875 22.386719 21.773438 22.757812 21.519531 22.75 C 21.324219 22.746094 21.105469 22.421875 20.957031 22.296875 C 20.867188 22.21875 20.824219 22.207031 20.816406 22.085938 C 20.816406 21.972656 20.875 21.882812 20.847656 21.765625 C 20.683594 21.742188 20.570312 21.828125 20.453125 21.914062 C 20.335938 22 20.222656 22.105469 20.09375 22.179688 C 19.9375 22.269531 19.875 22.246094 19.722656 22.179688 C 19.464844 22.0625 19.355469 22.332031 19.113281 22.285156 C 19.074219 22.273438 18.960938 22.257812 18.867188 22.242188 C 18.777344 22.324219 18.703125 22.421875 18.617188 22.511719 C 18.519531 22.621094 18.359375 22.761719 18.203125 22.710938 C 18.078125 22.667969 17.929688 22.527344 17.789062 22.523438 C 17.601562 22.511719 17.339844 22.613281 17.171875 22.671875 C 17.019531 22.730469 16.597656 22.925781 16.453125 22.847656 C 16.351562 22.792969 16.320312 22.589844 16.207031 22.539062 C 16.058594 22.476562 15.929688 22.632812 15.792969 22.589844 C 15.5625 22.511719 15.425781 21.871094 15.195312 22.324219 C 15.023438 22.667969 15.15625 23.089844 14.726562 23.234375 C 14.601562 23.273438 14.121094 23.464844 14.167969 23.65625 C 14.1875 23.710938 14.398438 23.777344 14.449219 23.800781 C 14.597656 23.875 14.597656 23.902344 14.648438 24.042969 C 14.691406 24.164062 14.765625 24.226562 14.859375 24.3125 C 14.996094 24.429688 15.089844 24.558594 15.195312 24.691406 C 15.433594 24.996094 15.53125 25.28125 15.382812 25.652344 C 15.285156 25.875 15.21875 26.125 14.933594 26.054688 C 14.691406 26 14.4375 25.921875 14.226562 25.796875 C 14.121094 25.738281 14.03125 25.65625 13.90625 25.628906 C 13.804688 25.609375 13.6875 25.625 13.59375 25.578125 C 13.421875 25.5 13.3125 25.34375 13.109375 25.316406 C 12.914062 25.292969 12.714844 25.386719 12.519531 25.355469 C 12.328125 25.320312 12.246094 25.199219 12.117188 25.070312 C 11.976562 24.921875 11.863281 24.921875 11.679688 24.957031 C 11.523438 24.992188 11.394531 25.039062 11.253906 24.945312 C 11.128906 24.859375 11.015625 24.703125 10.925781 24.574219 C 10.820312 24.421875 10.71875 24.253906 10.597656 24.121094 C 10.476562 23.992188 10.472656 23.925781 10.4375 23.765625 C 10.433594 23.765625 10.433594 23.765625 10.433594 23.773438 C 10.421875 23.726562 10.417969 23.683594 10.40625 23.636719 C 10.347656 23.628906 10.292969 23.597656 10.257812 23.582031 C 10.085938 23.46875 10.1875 23.15625 10.074219 22.976562 C 10.007812 22.871094 9.957031 22.820312 9.910156 22.691406 C 9.871094 22.578125 9.839844 22.484375 9.816406 22.363281 C 9.75 22.027344 9.675781 21.753906 9.453125 21.488281 C 9.253906 21.257812 9.222656 20.960938 9.066406 20.703125 C 8.945312 20.507812 8.785156 20.453125 8.726562 20.226562 C 8.699219 20.125 8.675781 20.070312 8.710938 19.96875 C 8.746094 19.867188 8.761719 19.878906 8.746094 19.773438 C 8.734375 19.695312 8.6875 19.632812 8.671875 19.554688 C 8.65625 19.46875 8.675781 19.441406 8.6875 19.359375 C 8.710938 19.140625 8.609375 18.992188 8.566406 18.800781 C 8.554688 18.746094 8.570312 18.613281 8.527344 18.574219 C 8.457031 18.515625 8.390625 18.601562 8.320312 18.578125 C 8.140625 18.53125 8.230469 18.269531 8.222656 18.132812 C 8.210938 17.859375 8.296875 17.179688 7.863281 17.214844 C 7.695312 17.226562 7.582031 17.367188 7.414062 17.304688 C 7.324219 17.277344 7.335938 17.230469 7.242188 17.265625 C 7.179688 17.289062 7.140625 17.386719 7.078125 17.417969 C 6.914062 17.488281 6.820312 17.320312 6.6875 17.292969 C 6.574219 17.269531 6.410156 17.347656 6.289062 17.359375 C 6.160156 17.371094 5.980469 17.433594 5.859375 17.339844 C 5.753906 17.25 5.804688 17.085938 5.816406 16.960938 C 5.832031 16.828125 5.84375 16.753906 5.765625 16.640625 C 5.679688 16.519531 5.664062 16.519531 5.691406 16.363281 C 5.691406 16.328125 5.699219 16.25 5.699219 16.171875 C 5.648438 16.125 5.601562 16.058594 5.5625 16.023438 C 5.492188 15.957031 5.417969 15.917969 5.332031 15.867188 C 5.152344 15.761719 5.09375 15.621094 5.023438 15.429688 C 4.957031 15.238281 4.925781 15.019531 4.851562 14.839844 C 4.765625 14.640625 4.617188 14.554688 4.4375 14.453125 C 4.199219 14.320312 3.878906 14.175781 3.824219 13.898438 C 3.796875 13.746094 3.746094 13.628906 3.695312 13.488281 C 3.65625 13.371094 3.632812 13.070312 3.667969 12.949219 C 3.742188 12.722656 4.128906 12.660156 4.324219 12.597656 C 4.367188 12.414062 4.378906 12.253906 4.378906 12.066406 C 4.386719 11.875 4.289062 11.65625 4.386719 11.503906 C 4.453125 11.390625 4.59375 11.359375 4.65625 11.269531 C 4.722656 11.167969 4.6875 11.011719 4.738281 10.910156 C 4.785156 10.820312 4.894531 10.796875 4.945312 10.730469 C 4.992188 10.660156 4.980469 10.621094 4.996094 10.542969 C 5.015625 10.492188 5.058594 10.441406 5.066406 10.394531 C 5.085938 10.144531 4.746094 10.003906 4.683594 9.777344 C 4.597656 9.484375 4.839844 9.332031 4.933594 9.085938 C 5.066406 9.070312 5.242188 9.113281 5.351562 9.035156 C 5.460938 8.957031 5.441406 8.800781 5.550781 8.710938 C 5.660156 8.621094 5.742188 8.609375 5.871094 8.640625 C 5.957031 8.664062 6.074219 8.75 6.160156 8.738281 C 6.367188 8.710938 6.488281 8.441406 6.734375 8.523438 C 6.84375 8.558594 6.882812 8.648438 7.003906 8.640625 C 7.113281 8.636719 7.203125 8.570312 7.285156 8.511719 C 7.488281 8.382812 7.667969 8.34375 7.898438 8.339844 C 7.929688 8.339844 8.019531 8.332031 8.109375 8.332031 C 8.109375 8.332031 8.109375 8.328125 8.105469 8.328125 C 8.054688 8.242188 7.949219 8.1875 7.9375 8.09375 C 8.078125 7.929688 7.871094 7.621094 8.042969 7.515625 C 8.246094 7.390625 8.414062 7.738281 8.464844 7.886719 C 8.476562 7.867188 8.492188 7.84375 8.492188 7.851562 C 8.566406 7.8125 8.636719 7.773438 8.710938 7.726562 C 8.683594 7.515625 8.671875 7.273438 8.539062 7.117188 C 8.480469 7.050781 8.492188 7.003906 8.40625 7.054688 C 8.359375 7.082031 8.378906 7.160156 8.335938 7.1875 C 8.195312 7.273438 8.117188 7.042969 8.03125 6.976562 C 8.054688 6.9375 8.117188 6.875 8.109375 6.832031 C 8.105469 6.710938 8.078125 6.78125 8 6.746094 C 7.859375 6.691406 7.78125 6.683594 7.878906 6.542969 C 8.042969 6.3125 8.25 6.34375 8.148438 6.011719 C 8.390625 5.769531 8.683594 5.566406 8.765625 5.21875 C 8.800781 5.085938 8.800781 4.917969 8.847656 4.792969 C 8.894531 4.660156 8.980469 4.589844 8.992188 4.433594 C 9.003906 4.277344 8.953125 4.183594 9.054688 4.074219 C 9.164062 3.957031 9.199219 3.945312 9.222656 3.773438 C 9.238281 3.644531 9.242188 3.492188 9.351562 3.414062 C 9.40625 3.375 9.484375 3.367188 9.542969 3.316406 C 9.597656 3.273438 9.625 3.199219 9.6875 3.15625 C 9.753906 3.105469 9.949219 2.925781 10.023438 2.917969 C 10.109375 2.910156 10.179688 3.007812 10.25 3.058594 C 10.25 3.058594 10.253906 3.066406 10.253906 3.066406 C 10.304688 3.105469 10.355469 3.144531 10.410156 3.179688 C 10.5 3.1875 10.585938 3.199219 10.675781 3.210938 C 10.894531 3.179688 11.21875 3.261719 11.453125 3.351562 C 11.71875 3.453125 12.003906 3.347656 12.285156 3.359375 C 12.566406 3.367188 12.804688 3.570312 13.074219 3.636719 C 13.222656 3.675781 13.394531 3.660156 13.546875 3.675781 C 13.726562 3.695312 13.902344 3.746094 14.074219 3.789062 C 14.269531 3.839844 14.394531 3.957031 14.601562 3.980469 C 14.753906 3.996094 14.886719 3.996094 15.015625 4.085938 C 15.152344 4.175781 15.292969 4.234375 15.4375 4.3125 C 15.59375 4.394531 15.632812 4.394531 15.71875 4.210938 C 15.761719 4.109375 15.78125 4.160156 15.722656 4.054688 C 15.671875 3.957031 15.554688 3.878906 15.492188 3.789062 C 15.332031 3.566406 15.5625 3.558594 15.734375 3.515625 C 15.902344 3.46875 15.929688 3.316406 16.101562 3.285156 C 16.347656 3.238281 16.621094 3.324219 16.875 3.324219 C 17.199219 3.324219 17.503906 3.195312 17.820312 3.269531 C 17.972656 3.300781 18.070312 3.390625 18.214844 3.441406 C 18.394531 3.503906 18.585938 3.453125 18.769531 3.507812 C 19.246094 3.660156 19.761719 3.753906 20.234375 3.925781 C 20.234375 3.925781 20.234375 3.925781 20.238281 3.925781 C 20.195312 3.835938 20.144531 3.746094 20.140625 3.726562 C 20.082031 3.648438 19.925781 3.578125 19.953125 3.457031 C 19.992188 3.300781 20.210938 3.359375 20.3125 3.308594 C 20.457031 3.234375 20.457031 3.089844 20.648438 3.089844 C 20.800781 3.089844 20.953125 3.132812 21.09375 3.171875 C 21.421875 3.257812 21.75 3.40625 22.089844 3.449219 C 22.292969 3.46875 22.488281 3.480469 22.691406 3.515625 C 22.886719 3.542969 23.039062 3.625 23.234375 3.625 C 23.566406 3.625 23.863281 3.699219 24.140625 3.878906 C 24.234375 3.835938 24.335938 3.789062 24.429688 3.75 C 24.425781 3.753906 24.417969 3.761719 24.417969 3.773438 C 24.6875 3.722656 24.839844 3.90625 25.046875 4.023438 C 25.261719 4.144531 25.519531 4.082031 25.75 4.195312 C 25.871094 4.253906 25.992188 4.332031 26.113281 4.382812 C 26.230469 4.429688 26.316406 4.441406 26.339844 4.585938 C 26.359375 4.722656 26.289062 4.84375 26.253906 4.972656 C 26.214844 5.113281 26.25 5.257812 26.242188 5.40625 C 26.230469 5.585938 26.1875 5.757812 26.140625 5.933594 C 26.089844 6.117188 26.011719 6.164062 25.867188 6.273438 C 25.777344 6.347656 25.554688 6.464844 25.507812 6.570312 C 25.453125 6.699219 25.570312 6.839844 25.429688 6.964844 C 25.34375 7.03125 25.210938 7.054688 25.113281 7.117188 C 25.03125 7.167969 24.957031 7.234375 24.875 7.285156 C 24.710938 7.386719 24.546875 7.515625 24.519531 7.710938 C 24.492188 7.914062 24.488281 8.058594 24.324219 8.203125 C 24.171875 8.332031 23.9375 8.460938 23.898438 8.675781 C 23.882812 8.769531 23.949219 8.855469 23.929688 8.949219 C 23.921875 9.035156 23.839844 9.097656 23.800781 9.164062 C 23.691406 9.359375 23.734375 9.5625 23.746094 9.792969 C 23.753906 9.886719 23.734375 10.035156 23.773438 10.117188 C 23.8125 10.195312 23.902344 10.234375 23.949219 10.308594 C 24.027344 10.4375 24.039062 10.617188 23.972656 10.75 C 23.960938 10.773438 23.949219 10.789062 23.929688 10.808594 C 23.953125 10.886719 23.976562 10.964844 23.988281 11.003906 C 23.976562 11.128906 23.988281 11.230469 23.941406 11.347656 C 23.902344 11.464844 23.851562 11.554688 23.859375 11.683594 C 23.863281 11.816406 23.902344 11.941406 23.902344 12.074219 C 23.902344 12.210938 23.875 12.324219 23.953125 12.429688 C 24.054688 12.558594 24.058594 12.546875 24.066406 12.726562 C 24.070312 12.855469 24.117188 12.988281 24.105469 13.121094 C 24.09375 13.25 23.972656 13.367188 24.148438 13.410156 C 24.207031 13.429688 24.25 13.386719 24.300781 13.421875 C 24.347656 13.457031 24.398438 13.578125 24.417969 13.628906 C 24.5 13.792969 24.605469 13.898438 24.476562 14.050781 C 24.414062 14.125 24.378906 14.085938 24.378906 14.191406 C 24.378906 14.234375 24.441406 14.320312 24.457031 14.359375 C 24.515625 14.5 24.480469 14.660156 24.546875 14.78125 C 24.628906 14.914062 24.757812 14.976562 24.816406 15.128906 C 24.890625 15.296875 24.90625 15.398438 25.121094 15.425781 C 25.328125 15.453125 25.304688 15.480469 25.402344 15.667969 C 25.472656 15.804688 25.621094 15.957031 25.660156 16.105469 C 25.671875 16.15625 25.632812 16.222656 25.691406 16.261719 C 25.742188 16.292969 25.84375 16.222656 25.90625 16.261719 C 26.019531 16.332031 26.007812 16.582031 25.957031 16.683594 C 25.851562 16.894531 25.949219 16.96875 26.007812 17.191406 C 26.097656 17.5625 25.765625 17.65625 25.59375 17.921875 C 25.523438 18.023438 25.523438 18.125 25.496094 18.230469 C 25.46875 18.351562 25.46875 18.347656 25.367188 18.382812 C 25.324219 18.371094 25.273438 18.382812 25.222656 18.386719 Z M 25.222656 18.386719 " fill-opacity="1" fill-rule="nonzero"/></g></svg>