<svg xmlns="http://www.w3.org/2000/svg" xmlns:xlink="http://www.w3.org/1999/xlink" width="40" zoomAndPan="magnify" viewBox="0 0 30 30.000001" height="40" preserveAspectRatio="xMidYMid meet" version="1.0"><defs><clipPath id="0586706577"><path d="M 3.386719 6.488281 L 26.613281 6.488281 L 26.613281 22.457031 L 3.386719 22.457031 Z M 3.386719 6.488281 " clip-rule="nonzero"/></clipPath></defs><g clip-path="url(#0586706577)"><path fill="#014d4e" d="M 10.648438 18.707031 L 9.210938 17.816406 L 8.703125 16.484375 L 8.511719 16.332031 C 7.964844 15.867188 7.289062 15.609375 6.761719 15.136719 C 6.605469 14.929688 6.761719 14.617188 6.554688 14.402344 C 6.535156 14.363281 6.523438 14.316406 6.511719 14.261719 C 6.453125 14.226562 6.382812 14.179688 6.332031 14.15625 C 6.234375 14.105469 6.148438 14.035156 6.078125 13.953125 C 6.011719 13.886719 5.992188 13.847656 5.90625 13.828125 C 5.832031 13.804688 5.757812 13.828125 5.683594 13.828125 C 5.597656 13.828125 5.558594 13.796875 5.488281 13.757812 C 5.410156 13.714844 5.324219 13.707031 5.242188 13.695312 C 5.101562 13.675781 4.878906 13.679688 4.785156 13.570312 C 4.703125 13.472656 4.640625 13.296875 4.597656 13.179688 C 4.480469 13.164062 4.375 13.078125 4.257812 13.0625 C 4.144531 13.046875 4.023438 13.109375 3.917969 13.058594 C 3.832031 13.023438 3.722656 12.921875 3.644531 12.859375 C 3.570312 12.800781 3.441406 12.679688 3.414062 12.585938 C 3.386719 12.515625 3.441406 12.421875 3.449219 12.34375 C 3.457031 12.257812 3.464844 12.152344 3.449219 12.066406 C 3.425781 11.953125 3.40625 11.894531 3.453125 11.789062 C 3.492188 11.691406 3.527344 11.589844 3.542969 11.484375 C 3.558594 11.34375 3.585938 11.375 3.710938 11.347656 C 3.785156 11.332031 3.863281 11.289062 3.929688 11.28125 C 4.007812 11.292969 4.085938 11.308594 4.167969 11.324219 C 4.195312 11.316406 4.226562 11.3125 4.257812 11.308594 C 4.242188 11.324219 4.347656 11.28125 4.382812 11.265625 C 4.453125 11.242188 4.519531 11.214844 4.585938 11.175781 C 4.699219 11.109375 4.796875 11.058594 4.925781 11.058594 C 5.066406 11.058594 5.207031 11.105469 5.34375 11.09375 C 5.421875 11.089844 5.492188 11.085938 5.542969 11.023438 C 5.597656 10.953125 5.574219 10.878906 5.597656 10.800781 C 5.652344 10.632812 5.871094 10.707031 5.9375 10.574219 C 5.957031 10.527344 5.9375 10.421875 5.953125 10.367188 C 5.976562 10.265625 6.007812 10.195312 6.09375 10.128906 C 6.234375 10.023438 6.386719 10.027344 6.554688 10.015625 C 6.628906 10.011719 6.710938 9.996094 6.785156 10.015625 C 6.898438 10.046875 6.867188 10.097656 6.972656 10.046875 C 7.089844 9.988281 7.15625 9.960938 7.289062 9.945312 C 7.367188 9.9375 7.484375 9.886719 7.554688 9.929688 C 7.640625 9.988281 7.636719 10.125 7.632812 10.199219 C 7.625 10.269531 7.671875 10.351562 7.660156 10.421875 C 7.808594 10.410156 7.878906 10.386719 7.890625 10.554688 C 7.890625 10.578125 7.875 10.597656 7.878906 10.625 C 7.882812 10.632812 7.929688 10.675781 7.941406 10.695312 C 7.964844 10.734375 7.960938 10.792969 7.964844 10.84375 C 8.085938 10.863281 8.113281 10.867188 8.164062 10.972656 C 8.1875 11.027344 8.183594 11.019531 8.234375 11.066406 C 8.265625 11.09375 8.292969 11.121094 8.316406 11.160156 C 8.339844 11.210938 8.335938 11.273438 8.359375 11.324219 C 8.386719 11.375 8.394531 11.375 8.4375 11.417969 C 8.464844 11.453125 8.496094 11.496094 8.523438 11.546875 C 8.578125 11.566406 8.636719 11.585938 8.695312 11.601562 C 8.789062 11.566406 8.882812 11.65625 8.976562 11.691406 C 9.089844 11.738281 9.164062 11.683594 9.265625 11.640625 C 9.363281 11.605469 9.464844 11.589844 9.5625 11.585938 C 9.675781 11.574219 9.726562 11.519531 9.8125 11.472656 C 10.03125 11.351562 10.238281 11.449219 10.460938 11.445312 C 10.613281 11.445312 10.773438 11.398438 10.925781 11.429688 C 10.980469 11.4375 11.035156 11.460938 11.09375 11.46875 C 11.167969 11.484375 11.230469 11.453125 11.300781 11.464844 C 11.472656 11.480469 11.472656 11.667969 11.53125 11.78125 C 11.578125 11.867188 11.648438 11.929688 11.699219 12.011719 L 12.949219 11.996094 L 13.015625 11.789062 L 13.554688 11.226562 L 14.394531 11.226562 L 14.394531 10.597656 L 15.199219 10.246094 L 15.722656 10.507812 C 15.820312 10.5625 15.933594 10.621094 16.054688 10.640625 C 16.210938 10.691406 16.316406 10.953125 16.476562 11.003906 C 16.582031 11.003906 16.738281 11.003906 16.808594 11.214844 L 16.917969 11.347656 L 17.019531 11.207031 L 17.839844 11.199219 L 18.769531 10.039062 L 18.992188 9.496094 L 19.175781 9.390625 L 19.945312 8.769531 L 19.753906 8.453125 L 19.71875 7.488281 L 19.210938 6.980469 L 20.402344 6.980469 L 20.402344 6.507812 L 21.453125 6.507812 L 21.363281 6.695312 L 21.125 7.832031 C 21.230469 8.015625 21.332031 8.257812 21.3125 8.488281 C 21.289062 8.703125 21.503906 8.875 21.441406 9.089844 C 21.425781 9.140625 21.398438 9.203125 21.363281 9.261719 L 21.851562 9.460938 L 22.796875 10.472656 C 22.796875 10.472656 22.929688 10.992188 22.675781 11.632812 L 23.460938 11.671875 L 23.378906 13.148438 L 22.675781 13.613281 L 21.679688 13.644531 C 21.679688 13.679688 21.679688 13.707031 21.679688 13.726562 C 21.644531 13.851562 21.761719 14.003906 21.683594 14.128906 C 21.648438 14.191406 21.585938 14.261719 21.542969 14.316406 C 21.519531 14.359375 21.425781 14.445312 21.417969 14.488281 C 21.398438 14.597656 21.726562 14.667969 21.8125 14.695312 C 21.90625 14.726562 21.988281 14.777344 22.070312 14.832031 C 22.109375 14.859375 22.140625 14.898438 22.175781 14.925781 C 22.226562 14.960938 22.257812 14.953125 22.328125 14.96875 C 22.429688 14.992188 22.535156 15.027344 22.621094 15.082031 C 22.707031 15.132812 22.796875 15.136719 22.890625 15.183594 C 22.984375 15.234375 22.984375 15.308594 23.027344 15.40625 C 23.078125 15.527344 23.183594 15.585938 23.253906 15.695312 C 23.324219 15.792969 23.355469 15.917969 23.414062 16.023438 C 23.492188 16.148438 23.617188 16.167969 23.746094 16.238281 C 23.890625 16.320312 23.925781 16.398438 24.027344 16.519531 C 24.109375 16.613281 24.234375 16.648438 24.339844 16.714844 C 24.503906 16.8125 24.574219 16.933594 24.605469 17.113281 C 24.648438 17.363281 24.777344 17.535156 24.894531 17.757812 C 24.992188 17.953125 25.136719 18.152344 25.207031 18.359375 C 25.242188 18.464844 25.273438 18.585938 25.292969 18.699219 C 25.296875 18.71875 25.296875 18.742188 25.296875 18.769531 L 26.613281 19.332031 L 26.613281 20.710938 L 24.019531 20.710938 C 24.007812 20.730469 23.996094 20.753906 23.992188 20.769531 C 23.953125 20.855469 23.910156 20.894531 23.839844 20.953125 C 23.6875 21.085938 23.5 21.175781 23.355469 21.308594 C 23.183594 21.464844 23.070312 21.679688 22.859375 21.792969 C 22.761719 21.84375 22.652344 21.871094 22.554688 21.925781 C 22.464844 21.976562 22.394531 22.066406 22.308594 22.117188 C 22.210938 22.167969 22.140625 22.144531 22.042969 22.125 C 21.957031 22.109375 21.859375 22.117188 21.765625 22.113281 C 21.671875 22.109375 21.570312 22.117188 21.472656 22.132812 C 21.386719 22.144531 21.296875 22.144531 21.230469 22.144531 C 21.191406 22.132812 21.148438 22.125 21.109375 22.109375 C 21.042969 22.164062 20.992188 22.1875 20.90625 22.210938 C 20.710938 22.25 20.527344 22.214844 20.328125 22.289062 C 20.171875 22.351562 20.03125 22.402344 19.871094 22.433594 C 19.761719 22.453125 19.660156 22.519531 19.554688 22.472656 C 19.46875 22.433594 19.449219 22.332031 19.382812 22.273438 C 19.308594 22.214844 19.179688 22.25 19.078125 22.238281 C 18.96875 22.230469 18.871094 22.183594 18.765625 22.167969 C 18.664062 22.152344 18.535156 22.167969 18.4375 22.1875 C 18.335938 22.210938 18.234375 22.265625 18.128906 22.253906 C 18.089844 22.25 18.042969 22.238281 17.996094 22.226562 L 17.1875 22.488281 L 14.96875 20.683594 C 14.859375 20.695312 14.789062 20.816406 14.683594 20.878906 C 14.550781 20.953125 14.300781 20.855469 14.15625 20.824219 C 13.941406 20.773438 13.71875 20.824219 13.5 20.769531 C 13.476562 20.761719 13.453125 20.757812 13.429688 20.746094 C 13.382812 20.761719 13.332031 20.777344 13.300781 20.796875 C 13.207031 20.859375 13.140625 20.929688 13.054688 21 C 12.902344 21.121094 12.800781 21.15625 12.628906 21.078125 C 12.488281 21.011719 12.332031 20.960938 12.179688 20.910156 C 12.066406 20.875 12.011719 20.816406 11.921875 20.738281 C 11.667969 20.507812 11.445312 20.226562 11.285156 19.921875 C 11.230469 19.816406 11.164062 19.746094 11.078125 19.664062 C 10.992188 19.582031 10.96875 19.488281 10.929688 19.375 C 10.878906 19.246094 10.804688 19.128906 10.746094 19.003906 C 10.699219 18.890625 10.671875 18.800781 10.648438 18.707031 Z M 10.648438 18.707031 " fill-opacity="1" fill-rule="nonzero"/></g></svg>