<svg xmlns="http://www.w3.org/2000/svg" xmlns:xlink="http://www.w3.org/1999/xlink" width="40" zoomAndPan="magnify" viewBox="0 0 30 30.000001" height="40" preserveAspectRatio="xMidYMid meet" version="1.0"><defs><clipPath id="cdbb1d4a8b"><path d="M 6.992188 11.808594 L 17.996094 11.808594 L 17.996094 26.128906 L 6.992188 26.128906 Z M 6.992188 11.808594 " clip-rule="nonzero"/></clipPath><clipPath id="f41bdd8362"><path d="M 18.003906 2.902344 L 22.953125 2.902344 L 22.953125 8.992188 L 18.003906 8.992188 Z M 18.003906 2.902344 " clip-rule="nonzero"/></clipPath></defs><g clip-path="url(#cdbb1d4a8b)"><path fill="#014d4e" d="M 7.527344 20.84375 C 7.464844 20.675781 7.394531 20.503906 7.316406 20.339844 C 6.84375 19.339844 6.921875 18.1875 7.320312 17.183594 C 7.605469 16.46875 7.957031 15.777344 8.433594 15.167969 C 8.878906 14.59375 9.527344 13.859375 10.246094 13.644531 C 10.488281 13.574219 10.777344 13.644531 11.007812 13.554688 C 11.238281 13.464844 11.386719 13.167969 11.5 12.964844 C 11.664062 12.671875 11.878906 12.398438 12.1875 12.253906 C 13.175781 11.792969 14.773438 11.488281 15.59375 12.40625 C 15.828125 12.671875 16.132812 12.800781 16.429688 12.976562 C 16.828125 13.214844 16.425781 13.34375 16.421875 13.660156 C 16.421875 13.933594 16.761719 13.9375 16.929688 14.035156 C 17.148438 14.15625 17.363281 14.457031 17.417969 14.699219 C 17.460938 14.894531 17.417969 15.09375 17.453125 15.289062 C 17.511719 15.59375 18.121094 15.921875 17.972656 16.257812 C 17.929688 16.359375 17.832031 16.355469 17.753906 16.421875 C 17.65625 16.503906 17.597656 16.636719 17.5625 16.753906 C 17.484375 16.996094 17.503906 17.261719 17.476562 17.511719 C 17.425781 18.03125 17.15625 19.277344 16.542969 19.449219 C 16.453125 19.472656 16.359375 19.480469 16.265625 19.503906 C 15.742188 19.628906 15.582031 20.136719 15.378906 20.570312 C 15.191406 20.988281 14.875 21.316406 14.539062 21.617188 C 14.347656 21.785156 14.105469 21.960938 14.039062 22.222656 C 13.960938 22.515625 14.1875 22.730469 13.882812 22.96875 C 13.679688 23.125 13.394531 23.070312 13.164062 23.183594 C 12.84375 23.347656 12.851562 23.730469 12.539062 23.917969 C 12.3125 24.046875 12.0625 24.050781 11.839844 23.9375 C 11.554688 23.792969 11.28125 23.710938 11.027344 23.976562 C 10.71875 24.296875 10.871094 24.921875 10.65625 25.296875 C 10.519531 25.535156 10.339844 25.558594 10.101562 25.5625 C 9.847656 25.5625 9.867188 25.65625 9.722656 25.855469 C 9.421875 26.273438 8.851562 26.203125 8.683594 25.710938 C 8.605469 25.472656 8.695312 25.273438 8.746094 25.046875 C 8.855469 24.542969 9.113281 23.902344 8.9375 23.390625 C 8.78125 22.9375 8.429688 22.609375 8.160156 22.226562 C 7.871094 21.804688 7.710938 21.316406 7.527344 20.84375 " fill-opacity="1" fill-rule="nonzero"/></g><g clip-path="url(#f41bdd8362)"><path fill="#014d4e" d="M 19.34375 5.929688 C 19.214844 6.140625 19.003906 6.292969 18.726562 6.300781 C 18.578125 6.308594 18.527344 6.226562 18.441406 6.125 C 18.339844 6.003906 18.285156 5.960938 18.167969 6.066406 C 18.089844 6.132812 17.960938 6.261719 18.023438 6.375 C 18.054688 6.4375 18.117188 6.476562 18.171875 6.519531 C 18.3125 6.628906 18.324219 6.875 18.339844 7.039062 C 18.359375 7.210938 18.359375 7.386719 18.339844 7.558594 C 18.320312 7.6875 18.234375 7.867188 18.34375 7.976562 C 18.484375 8.117188 18.65625 7.832031 18.816406 7.832031 C 19.089844 7.832031 19.164062 8.25 19.414062 8.304688 C 19.5 8.328125 19.535156 8.246094 19.621094 8.25 C 19.886719 8.269531 19.914062 8.800781 20.238281 8.742188 C 20.3125 8.730469 20.449219 8.457031 20.519531 8.566406 C 20.535156 8.589844 20.535156 8.621094 20.535156 8.652344 C 20.535156 8.71875 20.488281 8.902344 20.546875 8.953125 C 20.683594 9.082031 20.800781 8.8125 20.800781 8.714844 C 20.796875 8.511719 20.648438 8.308594 20.789062 8.117188 C 20.855469 8.035156 20.960938 7.996094 21.0625 7.992188 C 21.191406 7.984375 21.550781 8.097656 21.617188 7.917969 C 21.675781 7.746094 21.460938 7.582031 21.492188 7.40625 C 21.53125 7.191406 21.714844 7.027344 21.734375 6.804688 C 21.753906 6.605469 21.636719 6.410156 21.679688 6.21875 C 21.714844 6.046875 21.878906 5.878906 22.023438 5.785156 C 22.199219 5.675781 22.363281 5.792969 22.550781 5.75 C 22.664062 5.726562 22.792969 5.539062 22.835938 5.433594 C 22.890625 5.304688 22.832031 5.109375 22.789062 4.980469 C 22.75 4.863281 22.683594 4.75 22.585938 4.675781 C 22.394531 4.535156 22.128906 4.613281 21.925781 4.683594 C 21.851562 4.710938 21.464844 4.886719 21.417969 4.757812 C 21.402344 4.722656 21.414062 4.683594 21.429688 4.652344 C 21.511719 4.445312 21.71875 4.1875 21.925781 4.09375 C 22.019531 4.050781 22.105469 4.121094 22.191406 4.101562 C 22.265625 4.082031 22.304688 4.003906 22.347656 3.945312 C 22.40625 3.871094 22.480469 3.710938 22.582031 3.679688 C 22.683594 3.648438 22.765625 3.746094 22.863281 3.75 C 22.914062 3.753906 22.964844 3.722656 22.984375 3.675781 C 23.109375 3.40625 22.6875 3.164062 22.515625 3.050781 C 22.335938 2.9375 22.257812 2.882812 22.066406 3.011719 C 21.878906 3.136719 21.710938 3.257812 21.492188 3.144531 C 21.289062 3.039062 21.121094 2.882812 20.878906 2.90625 C 20.683594 2.921875 20.5625 3.046875 20.410156 3.148438 C 20.199219 3.292969 20.070312 3.371094 19.8125 3.28125 C 19.699219 3.242188 19.535156 3.191406 19.457031 3.308594 C 19.355469 3.457031 19.460938 3.75 19.464844 3.917969 C 19.476562 4.128906 19.449219 4.347656 19.410156 4.554688 C 19.367188 4.789062 19.414062 5.011719 19.460938 5.238281 C 19.511719 5.476562 19.46875 5.730469 19.34375 5.929688 " fill-opacity="1" fill-rule="nonzero"/></g></svg>