<svg xmlns="http://www.w3.org/2000/svg" xmlns:xlink="http://www.w3.org/1999/xlink" width="40" zoomAndPan="magnify" viewBox="0 0 30 30.000001" height="40" preserveAspectRatio="xMidYMid meet" version="1.0"><defs><clipPath id="11901ca13e"><path d="M 3.386719 8.78125 L 26.613281 8.78125 L 26.613281 20.394531 L 3.386719 20.394531 Z M 3.386719 8.78125 " clip-rule="nonzero"/></clipPath></defs><g clip-path="url(#11901ca13e)"><path fill="#014d4e" d="M 3.65625 11.304688 L 3.464844 11.140625 L 3.394531 11.035156 L 3.394531 10.796875 L 3.628906 10.761719 L 3.660156 10.667969 L 3.796875 10.644531 L 3.828125 10.925781 L 3.910156 10.96875 L 4.042969 11.046875 L 4.203125 10.996094 L 4.226562 10.933594 L 4.394531 10.886719 L 4.410156 10.792969 L 5.179688 10.796875 L 5.257812 10.894531 L 5.390625 10.996094 L 5.441406 11.074219 C 5.441406 11.074219 5.535156 11.140625 5.535156 11.15625 C 5.535156 11.167969 5.570312 11.492188 5.570312 11.492188 L 5.652344 11.535156 C 5.652344 11.535156 5.6875 11.632812 5.699219 11.640625 C 5.710938 11.648438 5.9375 11.679688 5.9375 11.679688 L 5.9375 12.261719 L 6.03125 12.3125 L 6.074219 12.417969 L 6.898438 12.425781 L 6.988281 12.414062 C 6.988281 12.414062 7.035156 12.335938 7.042969 12.328125 C 7.046875 12.320312 7.058594 12.285156 7.058594 12.285156 L 7.132812 12.242188 L 7.164062 12.167969 L 7.179688 11.984375 L 7.113281 11.917969 L 7.023438 11.816406 L 6.566406 11.804688 L 6.535156 11.289062 L 6.464844 11.210938 L 6.402344 11.136719 L 6.351562 11.074219 C 6.351562 11.074219 6.296875 11.085938 6.289062 11.0625 C 6.28125 11.039062 6.253906 10.972656 6.253906 10.972656 L 6.144531 10.945312 L 6.097656 10.941406 L 6.089844 10.886719 L 6.4375 10.914062 L 6.46875 11.023438 L 7.195312 11.046875 L 7.214844 11.125 L 7.3125 11.164062 L 7.363281 11.65625 L 7.410156 11.691406 L 7.472656 11.855469 L 7.628906 11.949219 L 7.707031 12.027344 L 7.707031 12.117188 L 7.785156 12.175781 L 7.835938 12.285156 L 8.097656 12.3125 L 8.132812 12.46875 L 8.183594 12.53125 L 8.234375 12.765625 L 8.433594 12.835938 L 8.550781 12.917969 L 9.691406 12.933594 L 9.785156 12.820312 L 10.710938 12.816406 L 10.742188 13.226562 C 10.742188 13.226562 11.390625 13.726562 11.363281 14.132812 L 11.402344 14.265625 L 11.488281 14.265625 L 11.835938 14.640625 L 12.097656 14.671875 L 12.246094 14.601562 L 12.378906 14.539062 L 12.445312 14.417969 L 12.484375 14.417969 L 12.484375 14.632812 L 12.53125 14.71875 L 12.65625 14.914062 L 12.730469 14.996094 L 12.765625 15.09375 L 12.828125 15.167969 L 12.867188 15.289062 L 12.972656 15.332031 L 13.058594 15.410156 L 13.230469 15.441406 L 13.320312 15.414062 L 13.410156 15.363281 L 13.453125 15.300781 L 13.46875 15.21875 L 13.453125 15.0625 L 13.378906 14.871094 L 13.355469 14.835938 L 13.3125 14.539062 L 13.28125 14.484375 L 13.230469 14.449219 L 13.191406 14.378906 C 13.191406 14.378906 13.183594 14.3125 13.179688 14.308594 C 13.179688 14.300781 13.203125 14.179688 13.203125 14.179688 L 13.304688 14.148438 L 13.328125 14.050781 L 13.320312 14 L 13.308594 13.960938 L 13.21875 13.949219 L 13.171875 13.835938 L 12.832031 13.808594 C 12.832031 13.808594 12.894531 13.519531 12.566406 13.34375 L 12.542969 12.984375 L 12.4375 12.847656 L 12.453125 12.65625 L 12.558594 12.617188 L 12.675781 12.519531 L 12.71875 12.167969 L 12.894531 12.117188 L 13.136719 12.03125 L 13.324219 11.945312 L 13.605469 11.890625 L 13.6875 11.804688 L 13.957031 11.730469 L 14.105469 11.675781 L 14.332031 11.652344 L 14.363281 11.554688 L 14.582031 11.503906 L 14.664062 11.371094 L 14.734375 11.28125 L 14.871094 11.277344 L 14.96875 11.179688 L 15.078125 11.140625 L 15.078125 10.933594 L 15.175781 10.867188 L 15.25 10.542969 L 15.3125 10.488281 L 15.351562 10.28125 L 15.457031 10.230469 L 15.480469 10.164062 L 16.21875 10.125 L 16.289062 10.066406 L 16.570312 10.007812 L 16.636719 9.921875 L 16.839844 9.835938 L 16.878906 9.496094 L 16.976562 9.324219 L 17.085938 9.226562 L 17.125 9.046875 C 17.125 9.046875 17.214844 8.992188 17.214844 8.976562 C 17.214844 8.964844 17.234375 8.78125 17.234375 8.78125 L 17.777344 8.78125 L 17.828125 8.882812 L 19.15625 8.894531 C 19.15625 8.894531 19.851562 9.273438 20.449219 9.507812 C 21.042969 9.742188 21.5625 10.273438 21.5625 10.273438 L 21.957031 10.292969 L 22.015625 10.1875 L 22.082031 10.140625 L 22.144531 10.054688 L 22.238281 10.003906 L 22.257812 9.917969 L 22.394531 9.90625 L 22.433594 9.988281 L 22.625 10.046875 L 22.675781 10.117188 L 22.820312 10.167969 L 22.902344 10.242188 L 23 10.269531 L 23.085938 10.339844 L 23.222656 10.414062 L 23.308594 10.429688 L 23.351562 10.523438 L 24.191406 10.542969 L 24.285156 10.496094 L 24.308594 10.417969 L 24.441406 10.375 L 24.507812 10.308594 L 24.613281 10.25 L 24.644531 10.171875 L 24.738281 10.128906 L 24.773438 10.042969 L 24.941406 10.011719 L 25.160156 10.027344 L 25.207031 10.125 L 25.425781 10.171875 L 25.542969 10.285156 L 25.628906 10.335938 L 25.695312 10.410156 L 25.820312 10.558594 L 25.867188 10.660156 L 25.941406 10.734375 L 26.03125 10.832031 L 26.101562 10.871094 L 26.167969 10.851562 C 26.167969 10.851562 26.21875 10.808594 26.230469 10.800781 C 26.238281 10.792969 26.28125 10.753906 26.28125 10.753906 L 26.320312 10.699219 L 26.382812 10.648438 L 26.40625 10.640625 L 26.464844 10.625 L 26.492188 10.621094 L 26.605469 10.621094 L 26.605469 10.667969 L 26.558594 10.691406 L 26.441406 10.710938 L 26.433594 10.773438 L 26.339844 10.828125 L 26.308594 10.855469 L 26.28125 10.910156 L 26.21875 10.949219 L 26.125 10.96875 L 26.058594 11.007812 L 26.070312 11.28125 L 25.9375 11.324219 L 25.902344 11.441406 L 25.933594 11.535156 L 25.972656 11.585938 L 26.039062 11.625 L 26.074219 12.085938 L 26.167969 12.15625 L 26.191406 12.230469 L 26.296875 12.289062 L 26.296875 12.316406 L 26.183594 12.34375 L 26.179688 12.433594 L 26.035156 12.457031 L 25.964844 12.488281 L 25.941406 12.578125 L 25.921875 12.601562 L 25.851562 12.625 L 25.820312 12.667969 L 25.800781 13.066406 L 25.546875 13.113281 L 25.476562 13.203125 L 25.332031 13.230469 L 25.296875 13.320312 L 25.191406 13.367188 L 25.164062 13.433594 L 25.0625 13.5 L 25.050781 13.601562 L 24.960938 13.671875 L 24.925781 13.910156 L 24.839844 14.015625 L 24.738281 14.1875 L 24.691406 14.292969 L 24.667969 14.503906 L 24.664062 14.679688 L 24.734375 14.785156 L 24.839844 14.929688 L 24.914062 14.960938 L 24.957031 15.054688 L 25.222656 15.074219 L 25.308594 15.058594 L 25.414062 15.058594 L 25.503906 15.070312 L 25.507812 15.097656 L 25.308594 15.121094 L 25.300781 15.207031 L 25.050781 15.226562 L 25.046875 15.433594 L 25.035156 15.519531 L 25.078125 15.550781 L 25.15625 15.609375 L 25.15625 15.667969 L 25.117188 15.699219 L 25.039062 15.699219 L 24.816406 15.792969 L 24.710938 15.886719 L 24.054688 16.519531 L 23.929688 16.578125 L 23.921875 16.867188 L 23.992188 16.9375 L 24.082031 17.132812 L 24.15625 17.191406 L 24.214844 17.363281 L 24.289062 17.429688 L 24.292969 17.476562 L 23.820312 17.476562 L 23.804688 17.605469 L 23.691406 17.640625 L 23.65625 17.746094 L 23.578125 17.792969 L 23.53125 17.988281 L 23.550781 18.207031 L 23.3125 18.257812 L 23.265625 18.457031 L 23.152344 18.515625 L 23.152344 18.722656 L 22.835938 18.761719 L 22.773438 18.851562 L 22.285156 18.871094 L 22.28125 19.359375 L 22.207031 19.414062 L 22.121094 19.550781 L 22.035156 19.621094 L 21.933594 19.667969 L 21.898438 19.863281 L 21.773438 19.894531 L 21.761719 20 L 21.660156 20 L 21.65625 20.105469 L 21.183594 20.128906 L 21.121094 20.246094 L 21.109375 19.910156 L 21.011719 19.851562 L 21.007812 19.351562 L 21.105469 19.296875 L 21.117188 18.832031 L 21.039062 18.753906 L 20.945312 18.726562 L 20.863281 18.707031 L 20.9375 18.65625 L 20.96875 18.472656 L 21.023438 17.949219 L 21.105469 17.929688 L 21.140625 17.605469 L 21.226562 17.546875 L 21.246094 17.058594 L 21.078125 16.878906 L 20.792969 16.714844 L 20.582031 16.65625 L 20.40625 16.5625 L 20.148438 16.457031 L 19.898438 16.390625 C 19.898438 16.390625 19.4375 16.371094 19.421875 16.371094 C 19.410156 16.371094 19.019531 16.40625 19.019531 16.40625 L 18.664062 16.527344 L 18.421875 16.667969 L 18.335938 16.820312 L 18.15625 16.933594 L 18.046875 17.039062 L 17.980469 17.183594 L 17.882812 17.253906 L 17.878906 17.460938 L 17.894531 17.535156 L 18.007812 17.578125 L 18.015625 18.007812 L 18.015625 18.042969 L 18.125 18.039062 L 18.121094 18.222656 C 18.121094 18.222656 18.039062 18.234375 18.035156 18.246094 C 18.03125 18.253906 18.011719 18.632812 18.011719 18.632812 L 17.960938 18.632812 C 17.960938 18.632812 17.972656 18.269531 17.972656 18.257812 C 17.972656 18.246094 17.964844 17.886719 17.964844 17.878906 C 17.964844 17.871094 17.945312 17.644531 17.945312 17.644531 L 17.890625 17.601562 C 17.890625 17.601562 17.824219 17.609375 17.8125 17.589844 C 17.804688 17.570312 17.753906 17.496094 17.753906 17.496094 L 17.65625 17.476562 L 17.480469 17.464844 L 17.445312 17.363281 C 17.445312 17.363281 17.074219 17.351562 17.066406 17.347656 C 17.054688 17.347656 16.738281 17.34375 16.738281 17.34375 L 16.636719 17.402344 L 16.597656 17.480469 L 16.496094 17.523438 L 16.464844 17.589844 L 16.371094 17.621094 L 16.335938 17.71875 L 16.246094 17.738281 L 16.242188 17.84375 L 15.847656 17.851562 L 15.824219 17.738281 L 15.722656 17.710938 L 15.691406 17.628906 L 15.597656 17.585938 L 15.5625 17.496094 L 15.476562 17.460938 L 15.433594 17.226562 L 15.355469 17.179688 C 15.355469 17.179688 15.328125 17.074219 15.320312 17.0625 C 15.316406 17.050781 15.289062 16.972656 15.289062 16.972656 L 15.152344 16.96875 L 14.949219 16.957031 L 14.828125 16.992188 L 14.789062 17.039062 L 14.734375 17.128906 L 14.65625 17.1875 L 14.613281 17.324219 L 14.507812 17.355469 L 14.488281 17.457031 C 14.488281 17.457031 14.386719 17.484375 14.386719 17.492188 C 14.386719 17.5 14.363281 17.585938 14.363281 17.585938 L 14.21875 17.601562 L 14.191406 16.613281 L 14.101562 16.585938 L 14.070312 16.511719 L 13.996094 16.460938 L 13.878906 16.441406 L 13.777344 16.359375 L 13.609375 16.320312 L 13.375 16.257812 L 13.191406 16.285156 L 13.023438 16.328125 L 12.363281 16.34375 L 12.308594 16.457031 L 12.136719 16.457031 L 12.109375 16.570312 L 12.089844 16.609375 L 12.0625 16.59375 L 12.042969 16.472656 L 11.957031 16.441406 L 11.933594 16.085938 L 11.855469 15.988281 C 11.855469 15.988281 11.820312 15.988281 11.816406 15.976562 C 11.8125 15.96875 11.753906 15.851562 11.753906 15.851562 L 11.5625 15.828125 L 11.503906 15.714844 L 11.195312 15.703125 L 11.113281 15.699219 L 11.113281 15.691406 L 11.195312 15.671875 L 11.199219 15.410156 L 11.191406 15.316406 L 11.429688 15.308594 L 11.46875 15.210938 L 11.585938 15.195312 L 11.683594 15.175781 L 11.703125 15.0625 L 11.769531 15.050781 L 11.820312 15.007812 C 11.820312 15.007812 11.828125 14.925781 11.828125 14.921875 C 11.828125 14.917969 11.804688 14.84375 11.804688 14.84375 L 11.765625 14.734375 C 11.765625 14.734375 11.71875 14.71875 11.71875 14.710938 C 11.71875 14.699219 11.6875 14.59375 11.6875 14.59375 L 11.628906 14.507812 L 11.558594 14.445312 L 11.476562 14.378906 L 11.421875 14.332031 L 11.371094 14.257812 C 11.371094 14.257812 11.320312 14.132812 11.320312 14.125 C 11.320312 14.113281 11.230469 14.039062 11.230469 14.039062 L 11.167969 13.867188 L 11.027344 13.808594 L 10.996094 13.710938 C 10.996094 13.710938 10.835938 13.691406 10.828125 13.683594 C 10.820312 13.675781 10.722656 13.554688 10.722656 13.554688 L 10.644531 13.457031 L 10.453125 13.425781 L 10.417969 13.332031 L 10.171875 13.3125 L 10.066406 13.210938 L 8.46875 13.203125 L 8.4375 13.289062 L 8.007812 13.335938 L 7.941406 13.425781 L 7.710938 13.457031 L 7.679688 13.542969 L 7.570312 13.609375 L 7.5625 13.933594 L 7.476562 13.988281 L 7.453125 14.066406 L 7.460938 14.25 L 7.449219 14.507812 L 7.453125 14.671875 L 7.417969 14.695312 L 7.417969 14.351562 L 7.398438 14.082031 L 7.308594 14.050781 L 7.257812 13.949219 L 7.117188 13.886719 L 7.0625 13.84375 L 6.976562 13.84375 L 6.90625 13.867188 L 6.839844 13.917969 L 6.796875 13.941406 L 6.542969 13.941406 L 6.535156 13.320312 L 6.421875 13.3125 L 6.386719 13.175781 L 6.339844 13.132812 L 6.265625 13.117188 L 6.175781 13.121094 L 6.128906 13.148438 L 6.0625 13.191406 L 5.910156 13.183594 L 5.757812 13.085938 L 5.71875 12.976562 L 5.664062 12.914062 L 5.632812 12.839844 L 5.542969 12.8125 L 5.542969 12.652344 L 5.601562 12.617188 L 5.660156 12.492188 C 5.660156 12.492188 5.648438 12.375 5.644531 12.359375 C 5.636719 12.34375 5.589844 12.25 5.589844 12.25 L 5.554688 12.199219 L 5.523438 12.066406 C 5.523438 12.066406 5.425781 12.058594 5.410156 12.039062 C 5.394531 12.015625 5.3125 11.917969 5.3125 11.917969 C 5.3125 11.917969 5.21875 11.847656 5.207031 11.84375 C 5.199219 11.839844 4.917969 11.785156 4.917969 11.785156 L 4.792969 11.660156 L 4.742188 11.566406 C 4.742188 11.566406 4.570312 11.535156 4.5625 11.53125 C 4.558594 11.527344 4.488281 11.4375 4.488281 11.4375 L 4.222656 11.410156 L 4.105469 11.320312 L 3.960938 11.292969 L 3.777344 11.300781 Z M 3.65625 11.304688 " fill-opacity="1" fill-rule="nonzero"/></g><path fill="#014d4e" d="M 12.078125 13.910156 L 12.035156 14.023438 L 11.996094 14.058594 L 12.019531 14.125 L 12.039062 14.269531 L 12.078125 14.332031 C 12.078125 14.332031 12.136719 14.195312 12.140625 14.191406 C 12.140625 14.1875 12.191406 14.109375 12.191406 14.109375 L 12.210938 14.058594 L 12.121094 14.011719 Z M 12.078125 13.910156 " fill-opacity="1" fill-rule="nonzero"/><path fill="#014d4e" d="M 25.851562 17.71875 C 25.851562 17.78125 25.820312 17.8125 25.757812 17.8125 C 25.699219 17.8125 25.667969 17.78125 25.667969 17.71875 C 25.667969 17.660156 25.699219 17.628906 25.757812 17.628906 C 25.820312 17.628906 25.851562 17.660156 25.851562 17.71875 Z M 25.851562 17.71875 " fill-opacity="1" fill-rule="nonzero"/></svg>