<svg xmlns="http://www.w3.org/2000/svg" xmlns:xlink="http://www.w3.org/1999/xlink" width="40" zoomAndPan="magnify" viewBox="0 0 30 30.000001" height="40" preserveAspectRatio="xMidYMid meet" version="1.0"><defs><clipPath id="38a0148a69"><path d="M 3.386719 4.441406 L 26.613281 4.441406 L 26.613281 24.765625 L 3.386719 24.765625 Z M 3.386719 4.441406 " clip-rule="nonzero"/></clipPath></defs><g clip-path="url(#38a0148a69)"><path fill="#014d4e" d="M 6.769531 6.25 C 7.296875 6.6875 7.644531 6.53125 7.796875 6.5625 C 7.953125 6.59375 8.265625 6.71875 8.078125 6.90625 C 7.890625 7.09375 7.890625 7.09375 7.890625 7.09375 L 8.136719 7.25 C 8.136719 7.25 8.421875 6.96875 8.671875 7 C 8.921875 7.03125 9.542969 7.125 9.542969 7.125 C 9.542969 7.125 10.074219 6.6875 10.480469 6.75 C 10.886719 6.8125 11.570312 5.9375 12.445312 6.0625 C 13.316406 6.1875 13.535156 6.625 13.878906 6.8125 C 14.222656 7 14.8125 6.84375 15.0625 6.90625 C 15.3125 6.96875 15.3125 7.1875 15.71875 7.09375 C 16.121094 7 17.992188 6.625 18.429688 6.28125 C 18.867188 5.9375 19.894531 5.535156 20.175781 5.628906 C 20.457031 5.722656 20.332031 5.191406 21.234375 5.160156 C 22.140625 5.128906 22.359375 5.441406 23.011719 5.378906 C 23.667969 5.316406 25.414062 5.128906 26.160156 4.441406 C 26.410156 4.472656 26.597656 4.785156 26.566406 4.972656 C 26.535156 5.160156 26.570312 5.410156 26.570312 5.410156 L 24.664062 7.25 L 23.136719 7.746094 L 22.761719 8.683594 L 22.761719 9.617188 L 23.136719 10.585938 L 23.074219 11.394531 L 22.605469 11.863281 C 22.605469 11.863281 22.855469 12.359375 22.730469 12.609375 C 22.605469 12.859375 22.578125 14.542969 22.578125 14.542969 L 21.640625 16.164062 C 21.640625 16.164062 20.675781 16.320312 20.582031 16.351562 C 19.738281 16.945312 7.425781 24.300781 7.425781 24.300781 L 7.175781 24.582031 L 5.679688 24.269531 L 4.929688 23.585938 L 4.523438 23.710938 L 4.523438 23.085938 L 4.183594 22.992188 L 3.964844 22.742188 L 3.621094 22.492188 C 3.777344 22.277344 4.027344 21.839844 4.027344 21.839844 L 3.902344 21.558594 C 3.902344 21.558594 3.402344 20.46875 3.621094 20.25 C 3.839844 20.03125 4.554688 19.71875 4.523438 19.5 C 4.492188 19.28125 4.152344 19.25 4.152344 19.25 C 4.152344 19.25 4.398438 18.378906 4.835938 18.378906 C 5.273438 18.378906 5.617188 18.660156 5.648438 18.378906 C 5.679688 18.097656 5.398438 17.972656 5.398438 17.972656 C 5.398438 17.972656 5.804688 17.441406 5.992188 17.472656 C 6.175781 17.503906 5.992188 17.378906 6.175781 17.164062 C 6.363281 16.945312 6.675781 16.789062 6.675781 16.789062 L 6.332031 16.53125 L 6.332031 16.289062 L 6.082031 16.101562 L 6.082031 15.882812 L 5.742188 15.789062 L 5.460938 15.667969 L 5.679688 15.449219 L 5.773438 15.199219 L 5.242188 15.042969 L 4.214844 14.980469 C 4.214844 14.980469 4.027344 14.605469 3.964844 13.890625 C 3.902344 13.171875 4.246094 12.953125 4.089844 12.640625 C 3.933594 12.332031 4.214844 12.515625 3.933594 12.082031 C 3.652344 11.644531 3.417969 11.269531 3.566406 10.988281 C 3.714844 10.707031 3.652344 10.617188 3.777344 10.398438 C 3.902344 10.179688 4.554688 10.023438 4.554688 10.023438 L 4.867188 10.460938 C 4.867188 10.460938 4.929688 9.960938 5.085938 9.867188 C 5.242188 9.773438 5.554688 9.710938 5.648438 9.710938 C 5.742188 9.710938 5.585938 9.117188 5.585938 9.117188 C 5.585938 9.117188 5.554688 8.714844 5.929688 8.714844 C 6.300781 8.714844 6.300781 8.964844 6.582031 8.808594 C 6.863281 8.652344 6.394531 8.152344 6.269531 7.871094 C 6.144531 7.589844 6.425781 7.527344 6.394531 7.25 C 6.363281 6.96875 6.617188 6.125 6.769531 6.25 " fill-opacity="1" fill-rule="nonzero"/></g></svg>