<svg xmlns="http://www.w3.org/2000/svg" xmlns:xlink="http://www.w3.org/1999/xlink" width="40" zoomAndPan="magnify" viewBox="0 0 30 30.000001" height="40" preserveAspectRatio="xMidYMid meet" version="1.0"><defs><clipPath id="9233923d2b"><path d="M 5.144531 2.902344 L 24.742188 2.902344 L 24.742188 26.128906 L 5.144531 26.128906 Z M 5.144531 2.902344 " clip-rule="nonzero"/></clipPath></defs><g clip-path="url(#9233923d2b)"><path fill="#014d4e" d="M 5.242188 14.585938 C 5.140625 13.964844 5.277344 13.417969 5.453125 12.871094 C 5.507812 12.707031 5.578125 12.5625 5.695312 12.433594 C 6.425781 11.609375 7.148438 10.78125 7.871094 9.953125 C 8.070312 9.726562 8.195312 9.445312 8.367188 9.199219 C 8.929688 8.394531 9.3125 7.492188 9.714844 6.601562 C 9.8125 6.382812 9.855469 6.140625 9.925781 5.910156 C 9.996094 5.691406 10.113281 5.503906 10.296875 5.359375 C 11.140625 4.679688 11.984375 4 12.824219 3.320312 C 12.984375 3.191406 13.167969 3.109375 13.355469 3.050781 C 13.597656 2.972656 13.84375 2.90625 14.101562 2.910156 C 14.351562 2.910156 14.582031 2.972656 14.792969 3.097656 C 16.703125 4.210938 18.613281 5.332031 20.523438 6.449219 C 20.867188 6.648438 21.21875 6.664062 21.578125 6.503906 C 21.796875 6.410156 22.015625 6.3125 22.230469 6.210938 C 22.292969 6.183594 22.347656 6.175781 22.402344 6.230469 C 22.757812 6.601562 23.21875 6.746094 23.707031 6.835938 C 23.8125 6.855469 23.914062 6.886719 24.019531 6.90625 C 24.097656 6.921875 24.121094 6.957031 24.085938 7.027344 C 24.082031 7.035156 24.078125 7.046875 24.074219 7.050781 C 23.871094 7.382812 23.949219 7.722656 24.046875 8.058594 C 24.113281 8.277344 24.179688 8.496094 24.230469 8.722656 C 24.292969 9.015625 24.265625 9.292969 24.144531 9.566406 C 24.042969 9.804688 23.953125 10.046875 23.84375 10.28125 C 23.6875 10.621094 23.65625 10.972656 23.710938 11.335938 C 23.761719 11.652344 23.792969 11.96875 23.832031 12.285156 C 23.867188 12.578125 23.9375 12.855469 24.089844 13.117188 C 24.253906 13.394531 24.398438 13.683594 24.5625 13.960938 C 24.699219 14.183594 24.683594 14.433594 24.722656 14.671875 C 24.84375 15.386719 24.800781 16.105469 24.78125 16.820312 C 24.773438 17.191406 24.78125 17.558594 24.773438 17.929688 C 24.769531 18.289062 24.757812 18.652344 24.753906 19.011719 C 24.753906 19.101562 24.726562 19.121094 24.640625 19.09375 C 24.496094 19.042969 24.386719 18.949219 24.289062 18.84375 C 24.171875 18.714844 24.023438 18.671875 23.855469 18.671875 C 23.59375 18.671875 23.328125 18.671875 23.066406 18.671875 C 22.996094 18.671875 22.925781 18.675781 22.945312 18.769531 C 23.011719 19.09375 22.90625 19.402344 22.847656 19.710938 C 22.652344 20.753906 22.449219 21.796875 22.257812 22.839844 C 22.207031 23.117188 22.253906 23.40625 22.257812 23.6875 C 22.265625 24.128906 22.292969 24.570312 22.300781 25.011719 C 22.304688 25.195312 22.351562 25.355469 22.449219 25.503906 C 22.535156 25.640625 22.597656 25.789062 22.613281 25.953125 C 22.621094 26.074219 22.582031 26.121094 22.457031 26.117188 C 22.035156 26.101562 21.617188 26.097656 21.195312 26.09375 C 20.003906 26.078125 18.808594 26.074219 17.617188 26.054688 C 17.152344 26.046875 16.6875 26.070312 16.226562 26.03125 C 15.742188 25.992188 15.261719 25.894531 14.796875 25.75 C 13.472656 25.339844 12.152344 24.933594 10.828125 24.527344 C 10.574219 24.449219 10.382812 24.289062 10.210938 24.09375 C 10.15625 24.03125 10.105469 23.960938 10.0625 23.890625 C 9.695312 23.273438 9.128906 22.851562 8.582031 22.417969 C 8.507812 22.359375 8.441406 22.292969 8.363281 22.242188 C 8.085938 22.066406 7.902344 21.800781 7.75 21.523438 C 7.667969 21.363281 7.640625 21.183594 7.675781 21.003906 C 7.726562 20.769531 7.816406 20.542969 7.816406 20.292969 C 7.816406 20.035156 7.726562 19.824219 7.554688 19.640625 C 7.550781 19.632812 7.542969 19.625 7.539062 19.621094 C 7.113281 19.296875 6.867188 18.851562 6.71875 18.347656 C 6.710938 18.316406 6.695312 18.285156 6.6875 18.253906 C 6.664062 18.179688 6.628906 18.160156 6.574219 18.230469 C 6.507812 18.3125 6.421875 18.375 6.335938 18.4375 C 6.121094 18.605469 5.875 18.664062 5.609375 18.671875 C 5.523438 18.675781 5.492188 18.636719 5.464844 18.5625 C 5.378906 18.304688 5.367188 18.03125 5.316406 17.761719 C 5.246094 17.390625 5.238281 17.011719 5.238281 16.632812 C 5.246094 15.9375 5.242188 15.242188 5.242188 14.585938 Z M 5.242188 14.585938 " fill-opacity="1" fill-rule="nonzero"/></g></svg>