<svg xmlns="http://www.w3.org/2000/svg" xmlns:xlink="http://www.w3.org/1999/xlink" width="40" zoomAndPan="magnify" viewBox="0 0 30 30.000001" height="40" preserveAspectRatio="xMidYMid meet" version="1.0"><defs><clipPath id="be7d72ad58"><path d="M 3.386719 6.96875 L 26.613281 6.96875 L 26.613281 22.210938 L 3.386719 22.210938 Z M 3.386719 6.96875 " clip-rule="nonzero"/></clipPath></defs><g clip-path="url(#be7d72ad58)"><path fill="#014d4e" d="M 20.609375 13.125 C 20.792969 13.199219 20.964844 13.246094 21.082031 13.394531 C 21.195312 13.535156 21.191406 13.613281 21.023438 13.695312 C 20.824219 13.796875 20.617188 13.894531 20.417969 14 C 20.242188 14.097656 20.054688 14.082031 19.878906 14.042969 C 19.695312 14.003906 19.511719 14.003906 19.332031 13.96875 C 19.207031 13.949219 19.078125 13.917969 18.949219 13.910156 C 18.859375 13.902344 18.785156 13.921875 18.726562 14 C 18.679688 14.066406 18.617188 14.097656 18.5625 14 C 18.542969 13.964844 18.507812 13.953125 18.476562 13.960938 C 18.351562 14 18.214844 13.988281 18.101562 14.054688 C 17.625 14.316406 17.625 14.324219 17.074219 14.230469 C 16.832031 14.1875 16.617188 14.234375 16.421875 14.382812 C 16.191406 14.558594 15.957031 14.738281 15.726562 14.914062 C 15.632812 14.984375 15.519531 15.007812 15.40625 15.019531 C 15.324219 15.027344 15.242188 15.042969 15.160156 15.050781 C 14.96875 15.070312 14.78125 15.125 14.589844 15.121094 C 14.507812 15.121094 14.457031 15.082031 14.425781 15.007812 C 14.324219 14.785156 14.21875 14.558594 14.121094 14.332031 C 14.082031 14.242188 14.042969 14.21875 13.964844 14.300781 C 13.835938 14.433594 13.652344 14.4375 13.492188 14.488281 C 13.445312 14.5 13.410156 14.476562 13.386719 14.433594 C 13.292969 14.246094 13.292969 14.050781 13.382812 13.859375 C 13.417969 13.785156 13.464844 13.78125 13.507812 13.855469 C 13.527344 13.890625 13.542969 13.933594 13.585938 13.929688 C 13.632812 13.925781 13.632812 13.878906 13.640625 13.84375 C 13.707031 13.558594 13.890625 13.339844 14.019531 13.089844 C 14.050781 13.03125 14.132812 12.964844 14.0625 12.902344 C 13.992188 12.835938 13.9375 12.929688 13.882812 12.964844 C 13.761719 13.042969 13.648438 13.128906 13.542969 13.230469 C 13.53125 13.242188 13.519531 13.261719 13.503906 13.261719 C 13.332031 13.265625 13.347656 13.417969 13.339844 13.507812 C 13.308594 13.746094 13.164062 13.890625 13.003906 14.046875 C 12.730469 14.3125 12.371094 14.347656 12.039062 14.457031 C 11.875 14.511719 11.804688 14.453125 11.75 14.285156 C 11.691406 14.101562 11.636719 13.921875 11.644531 13.722656 C 11.652344 13.53125 11.722656 13.359375 11.789062 13.179688 C 11.808594 13.125 11.84375 13.09375 11.910156 13.09375 C 11.976562 13.097656 12.003906 13.128906 12.019531 13.195312 C 12.027344 13.234375 12.046875 13.273438 12.070312 13.308594 C 12.101562 13.355469 12.15625 13.382812 12.207031 13.382812 C 12.265625 13.382812 12.25 13.320312 12.261719 13.285156 C 12.304688 13.15625 12.339844 13.027344 12.382812 12.902344 C 12.503906 12.542969 12.734375 12.238281 12.914062 11.910156 C 13.042969 11.679688 13.183594 11.457031 13.253906 11.203125 C 13.261719 11.171875 13.277344 11.128906 13.246094 11.109375 C 13.214844 11.085938 13.183594 11.121094 13.15625 11.136719 C 12.960938 11.273438 12.765625 11.414062 12.574219 11.554688 C 12.375 11.699219 12.1875 11.863281 12.007812 12.027344 C 11.933594 12.09375 11.84375 12.066406 11.796875 11.972656 C 11.734375 11.855469 11.742188 11.722656 11.707031 11.597656 C 11.683594 11.519531 11.65625 11.4375 11.644531 11.355469 C 11.625 11.144531 11.71875 10.960938 11.777344 10.773438 C 11.914062 10.351562 12.0625 9.933594 12.199219 9.515625 C 12.21875 9.449219 12.210938 9.371094 12.210938 9.300781 C 12.210938 9.039062 12.207031 8.777344 12.207031 8.519531 C 12.207031 8.359375 12.285156 8.3125 12.433594 8.378906 C 12.8125 8.550781 13.191406 8.726562 13.574219 8.894531 C 13.761719 8.976562 13.890625 9.132812 14.042969 9.253906 C 14.367188 9.515625 14.671875 9.804688 14.988281 10.078125 C 15.40625 10.4375 15.828125 10.796875 16.25 11.152344 C 16.394531 11.277344 16.53125 11.417969 16.683594 11.535156 C 16.875 11.6875 17.050781 11.855469 17.230469 12.019531 C 17.375 12.144531 17.570312 12.152344 17.734375 12.234375 C 17.984375 12.355469 18.25 12.332031 18.511719 12.332031 C 18.929688 12.332031 19.34375 12.316406 19.761719 12.246094 C 20.167969 12.175781 20.558594 12.078125 20.945312 11.9375 C 20.992188 11.921875 21.039062 11.910156 21.078125 11.875 C 21.308594 11.660156 21.539062 11.449219 21.773438 11.238281 C 21.90625 11.117188 22 10.96875 22.105469 10.828125 C 22.222656 10.675781 22.332031 10.519531 22.542969 10.480469 C 22.699219 10.449219 22.851562 10.402344 23.007812 10.378906 C 23.09375 10.367188 23.171875 10.4375 23.246094 10.480469 C 23.574219 10.65625 23.898438 10.839844 24.226562 11.015625 C 24.34375 11.078125 24.390625 11.160156 24.402344 11.292969 C 24.421875 11.546875 24.351562 11.730469 24.132812 11.890625 C 23.84375 12.109375 23.59375 12.382812 23.320312 12.625 C 23.113281 12.808594 22.894531 12.988281 22.707031 13.199219 C 22.605469 13.316406 22.507812 13.4375 22.402344 13.550781 C 22.304688 13.65625 22.203125 13.628906 22.152344 13.492188 C 22.058594 13.238281 21.964844 12.984375 21.875 12.730469 C 21.859375 12.695312 21.855469 12.652344 21.855469 12.617188 C 21.863281 12.523438 21.828125 12.511719 21.75 12.550781 C 21.390625 12.730469 21.03125 12.910156 20.667969 13.089844 C 20.65625 13.09375 20.640625 13.105469 20.609375 13.125 Z M 14.476562 13.671875 C 14.578125 13.800781 14.628906 13.96875 14.796875 14.027344 C 14.902344 14.066406 15.003906 14.113281 15.109375 14.15625 C 15.136719 14.167969 15.167969 14.207031 15.195312 14.160156 C 15.214844 14.125 15.21875 14.082031 15.191406 14.054688 C 15.140625 14.003906 15.097656 13.953125 15.035156 13.921875 C 14.851562 13.835938 14.664062 13.757812 14.476562 13.671875 Z M 6.40625 18.234375 C 6.40625 17.972656 6.40625 17.710938 6.40625 17.449219 C 6.402344 17.289062 6.292969 17.214844 6.144531 17.265625 C 6.097656 17.28125 6.046875 17.28125 5.996094 17.28125 C 5.824219 17.289062 5.65625 17.328125 5.488281 17.351562 C 5.285156 17.375 5.085938 17.417969 4.882812 17.433594 C 4.648438 17.449219 4.597656 17.503906 4.621094 17.734375 C 4.625 17.765625 4.625 17.796875 4.621094 17.824219 C 4.605469 18.1875 4.652344 18.550781 4.585938 18.917969 C 4.554688 19.101562 4.527344 19.296875 4.511719 19.488281 C 4.503906 19.613281 4.5 19.75 4.460938 19.871094 C 4.367188 20.160156 4.25 20.441406 4.140625 20.726562 C 4.027344 21.035156 3.75 21.203125 3.53125 21.414062 C 3.453125 21.488281 3.402344 21.554688 3.410156 21.660156 C 3.414062 21.714844 3.410156 21.769531 3.410156 21.824219 C 3.414062 22.007812 3.496094 22.058594 3.65625 21.976562 C 4.164062 21.726562 4.667969 21.472656 5.171875 21.21875 C 5.238281 21.1875 5.304688 21.152344 5.34375 21.078125 C 5.472656 20.816406 5.601562 20.554688 5.75 20.300781 C 5.886719 20.070312 6 19.824219 6.128906 19.589844 C 6.265625 19.332031 6.453125 19.089844 6.410156 18.761719 C 6.386719 18.589844 6.40625 18.410156 6.40625 18.234375 Z M 10.699219 16.011719 C 10.699219 15.917969 10.667969 15.871094 10.5625 15.886719 C 10.34375 15.917969 10.128906 15.945312 9.910156 15.972656 C 9.824219 15.984375 9.796875 16.035156 9.800781 16.121094 C 9.804688 16.332031 9.8125 16.542969 9.785156 16.75 C 9.722656 17.214844 9.652344 17.671875 9.242188 17.980469 C 9.234375 17.988281 9.222656 18 9.21875 18.007812 C 9.191406 18.085938 9.171875 18.171875 9.226562 18.238281 C 9.277344 18.296875 9.335938 18.238281 9.386719 18.214844 C 9.609375 18.105469 9.832031 17.992188 10.054688 17.882812 C 10.117188 17.851562 10.164062 17.808594 10.195312 17.746094 C 10.296875 17.542969 10.394531 17.335938 10.515625 17.140625 C 10.660156 16.90625 10.753906 16.660156 10.699219 16.421875 C 10.699219 16.257812 10.699219 16.132812 10.699219 16.011719 Z M 26.570312 7.433594 C 26.589844 7.273438 26.488281 7.164062 26.410156 7.050781 C 26.382812 7.007812 26.332031 6.96875 26.269531 7 C 26.101562 7.074219 25.9375 7.160156 25.847656 7.335938 C 25.796875 7.4375 25.746094 7.542969 25.671875 7.625 C 25.46875 7.84375 25.546875 8.066406 25.644531 8.289062 C 25.675781 8.363281 25.738281 8.382812 25.820312 8.367188 C 25.914062 8.34375 25.996094 8.285156 26.085938 8.261719 C 26.25 8.222656 26.320312 8.074219 26.441406 7.992188 C 26.601562 7.882812 26.566406 7.722656 26.566406 7.570312 C 26.566406 7.527344 26.5625 7.476562 26.570312 7.433594 Z M 24.398438 9.371094 C 24.5 9.285156 24.605469 9.203125 24.707031 9.117188 C 24.890625 8.953125 24.890625 8.890625 24.726562 8.703125 C 24.71875 8.695312 24.710938 8.6875 24.703125 8.675781 C 24.632812 8.59375 24.5625 8.574219 24.460938 8.636719 C 24.207031 8.785156 23.980469 8.964844 23.777344 9.175781 C 23.699219 9.253906 23.714844 9.320312 23.8125 9.375 C 23.90625 9.425781 24.007812 9.402344 24.117188 9.414062 C 24.203125 9.398438 24.308594 9.449219 24.398438 9.371094 Z M 20.777344 10.917969 C 20.742188 10.753906 20.648438 10.714844 20.515625 10.816406 C 20.394531 10.910156 20.320312 11.046875 20.269531 11.191406 C 20.234375 11.292969 20.320312 11.441406 20.394531 11.4375 C 20.574219 11.433594 20.78125 11.222656 20.78125 11.011719 C 20.78125 11.003906 20.785156 10.960938 20.777344 10.917969 Z M 19.863281 11.800781 C 19.933594 11.75 19.925781 11.691406 19.875 11.625 C 19.828125 11.566406 19.78125 11.535156 19.707031 11.582031 C 19.597656 11.648438 19.503906 11.726562 19.410156 11.8125 C 19.386719 11.835938 19.359375 11.855469 19.367188 11.898438 C 19.378906 11.941406 19.417969 11.949219 19.457031 11.957031 C 19.488281 11.960938 19.523438 11.960938 19.585938 11.96875 C 19.699219 11.988281 19.769531 11.867188 19.863281 11.800781 Z M 19.863281 11.800781 " fill-opacity="1" fill-rule="nonzero"/></g></svg>