<svg xmlns="http://www.w3.org/2000/svg" xmlns:xlink="http://www.w3.org/1999/xlink" width="40" zoomAndPan="magnify" viewBox="0 0 30 30.000001" height="40" preserveAspectRatio="xMidYMid meet" version="1.0"><defs><clipPath id="ffca76b6a7"><path d="M 7.464844 2.902344 L 22.707031 2.902344 L 22.707031 26.128906 L 7.464844 26.128906 Z M 7.464844 2.902344 " clip-rule="nonzero"/></clipPath></defs><g clip-path="url(#ffca76b6a7)"><path fill="#014d4e" d="M 22.335938 8.667969 L 22.335938 8.660156 L 21.117188 8.011719 L 21.105469 8.007812 L 11.5625 2.933594 L 11.539062 2.921875 L 11.519531 2.933594 L 10.148438 3.632812 L 10.144531 3.636719 L 10.390625 5.070312 L 10.402344 5.859375 L 10.402344 5.867188 L 10.410156 5.871094 C 10.4375 5.875 10.480469 5.894531 10.484375 5.902344 C 10.496094 5.925781 10.90625 6.527344 10.96875 6.621094 L 10.894531 6.746094 L 10.894531 6.914062 L 11.46875 7.523438 L 11.113281 8.082031 L 10.835938 9.890625 L 10.675781 12.476562 L 9.574219 13.621094 L 9.511719 13.683594 L 8.695312 14.628906 L 8.253906 15.265625 L 8.25 15.269531 C 8.25 15.277344 8.21875 15.472656 8.246094 15.539062 L 8.074219 15.632812 L 8.074219 15.839844 L 7.785156 15.914062 L 7.917969 16.601562 L 7.875 16.601562 L 7.796875 16.695312 L 7.570312 16.695312 L 7.464844 16.777344 L 7.464844 16.957031 L 7.574219 16.957031 L 7.5625 17.003906 L 7.53125 17.078125 L 7.609375 17.109375 L 7.609375 17.246094 L 7.621094 17.292969 L 7.628906 17.429688 L 7.792969 17.5625 L 7.824219 17.691406 L 7.863281 17.746094 L 7.921875 17.785156 L 7.933594 17.8125 L 7.925781 17.898438 L 8.089844 17.898438 L 8.109375 17.957031 L 8.203125 17.957031 L 8.242188 17.910156 L 8.273438 17.90625 L 8.304688 17.898438 L 8.296875 17.941406 C 8.289062 17.949219 8.261719 17.964844 8.242188 17.988281 C 8.222656 18.015625 8.210938 18.046875 8.210938 18.050781 L 8.195312 18.113281 L 8.253906 18.128906 L 8.28125 18.113281 L 8.28125 18.234375 L 8.238281 18.269531 L 8.292969 18.324219 L 8.289062 18.351562 L 8.25 18.378906 L 8.246094 18.425781 L 8.253906 18.582031 L 8.371094 18.648438 L 8.398438 18.675781 L 8.417969 18.71875 L 8.429688 18.765625 L 8.449219 18.796875 L 8.492188 18.835938 L 8.511719 18.835938 L 8.589844 18.804688 L 8.636719 18.777344 L 8.652344 18.769531 L 8.675781 18.765625 L 8.683594 18.78125 L 8.6875 18.804688 L 8.707031 18.832031 L 8.753906 18.832031 L 8.789062 18.804688 L 8.808594 18.777344 L 8.84375 18.707031 L 8.847656 18.679688 L 8.851562 18.644531 L 8.839844 18.601562 L 8.816406 18.582031 L 8.8125 18.570312 L 8.855469 18.535156 L 8.894531 18.523438 L 8.925781 18.53125 L 8.960938 18.558594 L 9.015625 18.566406 L 9.050781 18.574219 L 9.105469 18.585938 L 9.140625 18.574219 L 9.167969 18.527344 L 9.207031 18.46875 L 9.234375 18.417969 L 9.246094 18.382812 L 9.246094 18.378906 L 9.269531 18.417969 L 9.324219 18.484375 L 9.375 18.515625 L 9.421875 18.542969 L 9.507812 18.542969 L 9.566406 18.601562 L 9.578125 18.601562 L 9.601562 18.613281 L 9.632812 18.617188 L 9.707031 18.957031 L 9.726562 19.007812 L 9.730469 19.25 L 9.730469 19.324219 L 9.742188 19.390625 L 9.804688 19.425781 L 9.882812 19.453125 L 9.960938 19.496094 L 9.960938 19.59375 L 9.949219 19.6875 L 9.953125 19.761719 L 10 19.832031 L 9.992188 19.917969 L 9.953125 19.984375 L 9.960938 20.042969 L 10.046875 20.21875 L 10.046875 20.292969 L 9.972656 20.34375 L 9.925781 20.578125 L 9.878906 20.648438 L 9.890625 20.929688 L 9.910156 20.996094 L 9.917969 21.054688 L 9.929688 21.085938 L 9.929688 21.324219 L 10.011719 21.464844 L 10.054688 21.503906 L 10.054688 21.546875 L 10.019531 21.582031 L 10.003906 21.632812 L 10.125 21.714844 L 10.152344 21.746094 C 10.171875 21.796875 10.199219 21.890625 10.199219 21.902344 C 10.199219 21.929688 10.230469 22.011719 10.234375 22.019531 L 10.320312 22.066406 L 10.496094 22.277344 L 10.757812 22.433594 L 10.792969 22.460938 L 10.738281 22.476562 L 10.65625 22.511719 L 10.542969 22.546875 C 10.515625 22.542969 10.371094 22.527344 10.363281 22.527344 C 10.355469 22.527344 10.257812 22.507812 10.199219 22.492188 L 10.09375 22.460938 L 10 22.453125 L 9.9375 22.464844 L 9.933594 22.46875 C 9.929688 22.480469 9.925781 22.488281 9.921875 22.488281 C 9.910156 22.488281 9.878906 22.492188 9.875 22.492188 L 9.863281 22.492188 C 9.855469 22.492188 9.851562 22.488281 9.84375 22.488281 C 9.804688 22.476562 9.753906 22.46875 9.753906 22.46875 L 9.695312 22.457031 L 9.652344 22.460938 L 9.589844 22.527344 L 9.570312 22.546875 L 9.558594 22.550781 L 9.550781 22.558594 L 9.449219 22.558594 L 9.378906 22.503906 L 9.316406 22.46875 C 9.316406 22.46875 9.277344 22.449219 9.257812 22.441406 C 9.234375 22.429688 9.175781 22.414062 9.171875 22.410156 L 9.167969 22.410156 L 8.640625 22.425781 L 8.636719 22.429688 C 8.632812 22.4375 8.414062 22.855469 8.3125 22.894531 L 8.296875 22.898438 L 9.035156 23.796875 L 9.558594 24.160156 L 9.570312 24.164062 L 9.671875 24.238281 L 10.097656 24.671875 L 10.4375 25.632812 L 10.441406 25.640625 L 10.515625 25.625 L 10.574219 25.636719 L 10.582031 25.65625 L 10.578125 25.867188 L 10.488281 26.015625 L 10.765625 26.015625 L 10.859375 26.109375 L 10.957031 26.109375 L 10.988281 26.101562 L 11.082031 26.070312 L 11.167969 26.054688 L 11.339844 25.929688 L 11.765625 25.820312 L 11.800781 25.808594 L 11.820312 25.742188 L 11.78125 25.722656 L 11.792969 25.695312 L 11.820312 25.671875 L 11.917969 25.597656 L 11.945312 25.5625 L 12.007812 25.539062 L 12.035156 25.53125 L 12.035156 25.664062 L 12.132812 25.738281 L 12.132812 25.851562 L 12.394531 26.015625 L 12.472656 25.890625 L 12.75 25.773438 L 12.871094 25.828125 L 13.046875 25.617188 L 13.105469 25.597656 L 13.195312 25.578125 L 13.265625 25.496094 L 13.335938 25.578125 L 13.410156 25.441406 L 13.515625 25.488281 L 13.566406 25.394531 L 13.585938 25.363281 L 13.917969 25.433594 L 14.195312 25.335938 L 14.9375 25.335938 L 14.9375 25.332031 C 14.945312 25.328125 15.066406 25.199219 15.070312 25.097656 C 15.101562 25.078125 15.265625 24.980469 15.300781 24.953125 C 15.332031 24.921875 15.621094 24.585938 15.632812 24.574219 L 15.707031 24.425781 L 15.6875 24.355469 L 15.589844 24.261719 L 15.480469 24.222656 L 15.378906 24.179688 L 15.378906 24.117188 C 15.394531 24.09375 15.519531 23.941406 15.628906 23.933594 C 15.75 23.925781 15.933594 23.914062 15.933594 23.914062 C 15.933594 23.914062 16.316406 23.933594 16.425781 23.933594 C 16.535156 23.933594 16.75 23.902344 16.757812 23.902344 L 16.894531 23.839844 L 16.945312 23.800781 L 17.039062 23.746094 C 17.054688 23.738281 17.109375 23.722656 17.128906 23.734375 C 17.15625 23.753906 17.1875 23.761719 17.207031 23.761719 C 17.21875 23.761719 17.269531 23.753906 17.273438 23.753906 L 17.304688 23.746094 L 17.363281 23.761719 L 17.46875 23.761719 L 17.53125 23.75 L 17.570312 23.734375 L 17.625 23.707031 L 17.667969 23.6875 L 17.695312 23.675781 L 17.726562 23.628906 L 17.734375 23.582031 L 17.734375 23.511719 L 17.929688 23.492188 L 17.960938 23.4375 L 18 23.40625 L 18.035156 23.398438 L 18.09375 23.394531 L 18.125 23.355469 L 18.125 23.324219 L 18.15625 23.289062 L 18.15625 23.238281 L 18.191406 23.199219 L 18.257812 23.15625 L 18.320312 23.136719 L 18.367188 23.113281 L 18.386719 23.0625 L 18.40625 23 L 18.40625 22.925781 L 18.460938 22.875 L 18.570312 22.742188 L 18.710938 22.609375 L 18.765625 22.5625 L 18.839844 22.535156 L 18.878906 22.535156 L 18.945312 22.527344 L 19.109375 22.289062 L 19.1875 22.175781 L 19.273438 22.160156 L 19.339844 22.15625 L 19.398438 22.136719 L 19.460938 22.019531 L 19.464844 21.917969 L 19.449219 21.820312 L 19.429688 21.777344 L 19.417969 21.738281 L 19.417969 21.660156 L 19.429688 21.621094 L 19.433594 21.59375 L 19.601562 21.496094 L 19.71875 21.472656 L 19.804688 21.441406 L 19.839844 21.421875 L 19.871094 21.378906 L 19.90625 21.316406 L 19.917969 21.289062 L 19.976562 21.28125 L 20.0625 21.28125 L 20.109375 21.269531 L 20.140625 21.210938 L 20.183594 21.152344 L 20.246094 21.113281 L 20.289062 21.109375 L 20.347656 21.097656 L 20.382812 21.085938 L 20.433594 21.054688 L 20.464844 21.035156 L 20.503906 21.035156 L 20.558594 21.0625 L 20.609375 21.066406 L 20.683594 21.066406 L 20.722656 21.058594 L 20.777344 21.054688 L 20.847656 21.066406 L 20.871094 21.066406 L 20.902344 21.085938 L 20.945312 21.089844 L 20.992188 21.109375 L 21.085938 21.144531 L 21.125 20.976562 L 21.136719 20.941406 L 21.195312 20.675781 L 21.195312 20.554688 L 21.136719 20.402344 L 21.125 20.382812 L 20.9375 20.453125 L 20.917969 20.335938 L 20.839844 20.320312 L 20.78125 20.296875 L 20.707031 20.226562 L 20.660156 20.179688 L 20.640625 20.148438 C 20.640625 20.128906 20.601562 19.90625 20.652344 19.75 C 20.707031 19.589844 20.722656 19.460938 20.722656 19.457031 L 20.726562 19.445312 L 20.460938 19.523438 L 20.484375 19.410156 L 20.511719 19.359375 L 20.527344 19.3125 L 20.480469 19.238281 L 20.328125 18.90625 L 20.464844 18.660156 L 20.089844 18.492188 L 19.984375 18.640625 L 19.714844 18.664062 L 19.566406 18.402344 L 19.613281 18.238281 L 19.652344 18.148438 L 19.714844 18.050781 L 19.753906 17.996094 L 19.835938 17.949219 L 19.976562 17.890625 L 20.015625 17.875 L 20.1875 17.65625 L 20.191406 17.65625 L 20.121094 17.367188 L 20.121094 17.3125 L 20.089844 17.265625 L 20.015625 17.207031 L 19.992188 17.128906 L 19.96875 17.078125 L 19.957031 17.03125 L 19.917969 16.964844 L 20.09375 16.746094 L 20.542969 16.503906 L 20.539062 16.324219 L 20.40625 16.261719 L 20.414062 16.105469 L 20.414062 16.101562 L 20.316406 15.871094 L 20.464844 15.757812 L 20.578125 15.726562 L 20.675781 15.691406 L 20.746094 15.664062 L 20.714844 15.441406 L 20.8125 15.359375 L 20.855469 15.199219 L 21.050781 15.0625 L 21.054688 15.058594 L 21.136719 14.734375 L 21.140625 14.714844 L 21.136719 14.703125 L 21.023438 14.46875 L 21.144531 14.347656 L 21.292969 14.195312 L 21.503906 14.222656 L 21.675781 14.234375 L 21.75 14.21875 L 21.878906 14.125 L 22.105469 14.117188 L 22.320312 14.144531 L 22.527344 14.207031 Z M 22.335938 8.667969 " fill-opacity="1" fill-rule="nonzero"/></g></svg>