<svg xmlns="http://www.w3.org/2000/svg" xmlns:xlink="http://www.w3.org/1999/xlink" width="40" zoomAndPan="magnify" viewBox="0 0 30 30.000001" height="40" preserveAspectRatio="xMidYMid meet" version="1.0"><defs><clipPath id="4622444942"><path d="M 10.542969 2.902344 L 19.253906 2.902344 L 19.253906 26.128906 L 10.542969 26.128906 Z M 10.542969 2.902344 " clip-rule="nonzero"/></clipPath></defs><g clip-path="url(#4622444942)"><path fill="#014d4e" d="M 15.761719 25.15625 L 15.875 25.503906 C 15.875 25.503906 16.054688 25.628906 16.089844 25.699219 C 16.125 25.769531 16.164062 25.929688 16.164062 25.929688 L 16.617188 25.929688 L 16.742188 26.125 C 16.742188 26.125 16.882812 26.011719 17.0625 26 C 17.238281 25.992188 17.820312 25.796875 17.820312 25.796875 L 18.433594 25.644531 L 18.601562 25.617188 L 18.699219 25.546875 L 18.992188 25.449219 L 19.207031 25.402344 L 19.242188 25.386719 L 19.320312 25.339844 C 19.320312 25.339844 19.394531 25.3125 19.417969 25.3125 C 19.445312 25.3125 19.382812 25.207031 19.382812 25.207031 L 19.320312 25.003906 L 19.285156 24.734375 L 19.214844 24.53125 L 19.097656 24.386719 L 19.027344 24.367188 L 18.902344 24.308594 L 18.921875 24.226562 L 18.921875 24.109375 L 18.804688 24.03125 L 18.832031 23.957031 L 18.726562 23.929688 L 18.566406 23.859375 C 18.566406 23.859375 18.566406 23.832031 18.539062 23.71875 C 18.511719 23.601562 18.476562 23.519531 18.476562 23.519531 L 18.386719 23.429688 L 18.53125 23.21875 L 18.601562 23.128906 L 18.539062 22.949219 L 18.523438 22.78125 L 18.496094 22.628906 L 18.53125 22.558594 L 18.511719 22.46875 L 18.351562 22.34375 L 18.332031 22.023438 L 18.6875 22.03125 L 18.6875 19.804688 L 18.734375 19.742188 L 18.777344 19.714844 L 18.820312 19.75 L 18.855469 19.6875 C 18.855469 19.6875 18.847656 19.644531 18.828125 19.617188 C 18.8125 19.589844 18.757812 19.539062 18.757812 19.539062 L 18.730469 19.492188 L 18.710938 19.296875 C 18.710938 19.296875 18.710938 19.253906 18.710938 19.214844 C 18.710938 19.179688 18.695312 19.082031 18.695312 19.082031 L 18.640625 18.96875 L 18.640625 18.292969 L 18.621094 18.09375 L 18.621094 17.800781 L 18.648438 17.703125 L 18.683594 16.992188 L 18.667969 16.582031 L 18.65625 16.296875 L 18.640625 16.089844 L 18.640625 15.894531 L 18.628906 15.769531 L 18.621094 15.679688 L 18.585938 15.566406 L 18.585938 15.476562 L 18.578125 15.394531 L 18.621094 15.316406 L 18.703125 15.199219 L 18.730469 15.15625 L 18.675781 15.039062 L 18.640625 14.960938 L 18.632812 14.835938 L 18.632812 14.335938 L 18.640625 13.640625 L 18.640625 13.417969 L 18.648438 13.082031 L 18.621094 12.574219 L 18.328125 12.085938 L 18.230469 11.941406 L 18.035156 11.78125 L 17.851562 11.558594 L 17.753906 11.40625 L 17.664062 11.335938 L 17.601562 10.847656 L 17.558594 10.5625 L 17.550781 10.472656 L 17.417969 10.492188 L 17.300781 10.285156 C 17.300781 10.285156 17.28125 10.234375 17.292969 10.207031 C 17.300781 10.179688 17.390625 10.0625 17.390625 10.0625 L 17.421875 9.964844 L 17.441406 9.796875 L 17.441406 9.746094 L 17.421875 8.988281 L 17.394531 8.195312 L 17.023438 7.929688 L 16.113281 7.386719 L 15.410156 6.90625 L 14.804688 6.46875 L 14.714844 6.390625 C 14.714844 6.390625 14.761719 5.855469 14.777344 5.792969 C 14.796875 5.730469 14.894531 5.472656 14.894531 5.472656 C 14.894531 5.472656 14.902344 5.347656 14.902344 5.3125 C 14.902344 5.277344 14.902344 5.207031 14.894531 5.167969 C 14.882812 5.132812 14.859375 5.042969 14.859375 5.042969 C 14.859375 5.042969 14.832031 4.859375 14.894531 4.785156 C 14.957031 4.714844 15.046875 4.597656 15.046875 4.597656 L 15.160156 4.484375 L 15.195312 4.332031 L 15.195312 4.269531 L 15.300781 4.101562 L 15.347656 4.058594 L 15.300781 3.96875 L 15.285156 3.871094 L 15.355469 3.703125 L 15.355469 3.558594 L 14.144531 3.585938 L 13.597656 3.824219 L 13.5 3.894531 L 13.535156 3.726562 L 13.507812 3.648438 L 13.425781 3.601562 L 13.5 3.539062 L 13.347656 3.496094 L 11.941406 3.183594 L 11.15625 3.039062 L 10.660156 2.90625 L 10.542969 2.90625 L 10.550781 3.03125 L 10.640625 3.113281 L 10.777344 3.164062 L 10.902344 3.128906 L 11.035156 3.085938 L 11.257812 3.183594 L 11.308594 3.273438 L 11.335938 3.46875 L 11.363281 3.65625 L 11.273438 3.734375 L 11.191406 3.777344 L 11.148438 3.949219 L 11.09375 4.105469 L 11.050781 4.214844 L 11.078125 4.355469 L 11.035156 4.5 L 10.902344 4.613281 L 10.882812 4.722656 L 10.855469 4.84375 L 10.792969 4.941406 L 10.925781 5.289062 L 11.132812 5.335938 L 11.238281 5.378906 L 11.328125 5.398438 L 11.417969 5.441406 L 11.496094 5.585938 L 11.613281 5.636719 L 11.648438 5.664062 L 11.746094 5.71875 L 11.859375 5.78125 L 11.90625 6.039062 C 11.90625 6.039062 11.949219 6.164062 11.957031 6.191406 C 11.96875 6.21875 12.074219 6.359375 12.074219 6.359375 L 12.117188 6.332031 L 12.199219 6.214844 L 12.25 6.324219 L 12.332031 6.277344 L 12.429688 6.332031 L 12.429688 6.234375 C 12.429688 6.234375 12.527344 6.226562 12.527344 6.253906 C 12.527344 6.28125 12.578125 6.324219 12.578125 6.324219 L 12.578125 6.386719 L 12.515625 6.429688 L 12.515625 6.464844 L 12.613281 6.484375 L 12.613281 6.554688 L 12.632812 6.597656 L 12.640625 6.632812 L 12.722656 6.644531 L 12.640625 6.769531 L 12.785156 6.769531 L 12.925781 6.714844 L 12.988281 6.722656 L 12.988281 6.8125 L 12.972656 6.867188 L 12.917969 6.867188 L 12.867188 6.972656 L 12.820312 7 L 12.8125 7.105469 C 12.8125 7.105469 12.8125 7.195312 12.8125 7.230469 C 12.8125 7.265625 12.804688 7.320312 12.804688 7.320312 L 12.804688 7.445312 L 12.832031 7.542969 L 12.820312 7.65625 L 12.792969 7.71875 L 12.804688 7.753906 L 12.867188 7.773438 L 12.988281 7.855469 L 13.035156 7.882812 L 13.085938 7.882812 L 13.097656 7.925781 L 13.0625 8.03125 L 13.050781 8.09375 L 12.972656 8.058594 L 12.847656 8.03125 L 12.820312 8.148438 L 12.8125 8.28125 L 12.863281 8.351562 L 12.933594 8.457031 L 12.855469 8.53125 L 12.8125 8.601562 C 12.8125 8.601562 12.792969 8.691406 12.800781 8.71875 C 12.8125 8.746094 12.8125 8.851562 12.8125 8.851562 L 12.800781 8.914062 L 12.75 8.992188 L 12.722656 9.074219 L 12.703125 9.128906 L 12.710938 9.179688 L 12.730469 9.234375 L 12.667969 9.359375 L 12.667969 9.402344 C 12.667969 9.402344 12.703125 9.464844 12.730469 9.492188 C 12.757812 9.519531 12.765625 9.574219 12.765625 9.574219 L 12.792969 9.644531 L 12.835938 9.707031 L 12.878906 9.734375 C 12.878906 9.734375 12.90625 9.796875 12.878906 9.804688 C 12.851562 9.8125 12.84375 9.886719 12.84375 9.886719 L 12.890625 9.9375 L 12.90625 10.035156 L 12.84375 10.117188 L 12.75 10.144531 L 12.613281 10.164062 L 12.523438 10.164062 L 12.453125 10.152344 L 12.433594 10.1875 L 12.382812 10.1875 L 12.285156 10.179688 L 12.230469 10.179688 L 12.222656 10.25 C 12.222656 10.25 12.277344 10.332031 12.277344 10.355469 C 12.277344 10.382812 12.339844 10.429688 12.339844 10.429688 L 12.382812 10.410156 L 12.460938 10.410156 L 12.507812 10.429688 L 12.585938 10.417969 L 12.597656 10.464844 L 12.5625 10.496094 L 12.5 10.53125 L 12.445312 10.558594 L 12.402344 10.585938 L 12.332031 10.585938 L 12.25 10.550781 L 12.214844 10.605469 L 12.234375 10.695312 L 12.304688 10.765625 L 12.429688 10.855469 L 12.632812 10.8125 L 12.679688 10.75 L 12.757812 10.660156 L 12.757812 10.597656 L 12.792969 10.527344 L 12.988281 10.519531 L 13.078125 10.519531 L 13.175781 10.492188 L 13.28125 10.523438 L 13.378906 10.558594 L 13.441406 10.585938 L 13.496094 10.660156 L 13.539062 10.75 L 13.644531 10.777344 L 13.742188 10.855469 L 13.761719 10.972656 L 13.742188 11.132812 L 13.691406 11.210938 L 13.691406 11.257812 L 13.71875 11.347656 L 13.628906 11.425781 L 13.574219 11.480469 L 13.484375 11.703125 L 13.554688 11.761719 L 13.574219 11.835938 C 13.574219 11.835938 13.496094 11.941406 13.496094 11.96875 C 13.496094 11.996094 13.476562 12.074219 13.476562 12.074219 L 13.433594 12.101562 L 13.34375 12.128906 L 13.371094 12.261719 L 13.351562 12.324219 L 13.28125 12.398438 L 13.269531 12.539062 L 13.296875 12.691406 L 13.34375 12.878906 L 13.414062 12.96875 C 13.414062 12.96875 13.484375 13.03125 13.511719 13.085938 C 13.539062 13.136719 13.589844 13.253906 13.589844 13.253906 L 13.589844 13.296875 L 13.636719 13.339844 L 13.617188 13.429688 L 13.484375 13.472656 L 13.472656 13.609375 L 13.414062 13.671875 L 13.394531 13.722656 C 13.394531 13.722656 13.359375 13.742188 13.351562 13.714844 C 13.339844 13.6875 13.269531 13.679688 13.269531 13.679688 L 13.226562 13.6875 L 13.164062 13.75 L 13.117188 13.785156 C 13.117188 13.785156 13.058594 13.777344 13.03125 13.769531 C 13.003906 13.757812 12.957031 13.757812 12.957031 13.757812 L 12.957031 13.804688 L 12.992188 13.835938 L 13.003906 13.871094 L 12.957031 13.945312 L 13.152344 14.273438 L 13.171875 14.390625 L 13.242188 14.480469 L 13.296875 14.59375 L 13.394531 14.628906 L 13.546875 14.746094 C 13.546875 14.746094 13.546875 14.78125 13.574219 14.78125 C 13.601562 14.78125 13.589844 14.769531 13.652344 14.832031 C 13.714844 14.894531 13.832031 14.949219 13.832031 14.949219 L 13.902344 15.019531 L 14 15.039062 L 14.089844 15.101562 L 14.1875 15.164062 L 14.222656 15.277344 L 14.230469 15.394531 L 14.230469 15.484375 L 14.328125 15.535156 L 14.390625 15.570312 L 14.460938 15.605469 L 14.460938 15.765625 L 14.496094 15.855469 L 14.515625 15.980469 L 14.480469 16.085938 L 14.410156 16.113281 L 14.300781 16.167969 L 14.222656 16.203125 L 14.125 16.203125 L 14.054688 16.273438 L 14.019531 16.378906 L 13.964844 16.421875 L 13.914062 16.449219 L 13.886719 16.523438 L 13.929688 16.574219 C 13.929688 16.574219 13.957031 16.601562 13.957031 16.636719 C 13.957031 16.671875 13.929688 16.71875 13.929688 16.71875 L 13.902344 16.789062 L 13.910156 17.164062 L 13.953125 17.269531 L 13.953125 17.386719 L 13.917969 17.5 L 13.929688 17.589844 L 14.019531 17.847656 C 14.019531 17.847656 14.027344 17.984375 14.027344 18.007812 C 14.027344 18.035156 14.007812 18.097656 14.007812 18.097656 L 14.027344 18.265625 L 14.007812 18.339844 L 14.027344 18.429688 L 14 18.507812 C 13.992188 18.542969 14 18.667969 14 18.667969 L 14.027344 18.773438 L 14.007812 18.808594 L 13.9375 18.792969 L 13.902344 18.773438 L 13.867188 18.898438 L 13.816406 19.011719 L 13.816406 19.191406 L 13.734375 19.226562 L 13.628906 19.289062 L 13.53125 19.449219 L 13.511719 19.617188 L 13.496094 19.742188 L 13.527344 19.820312 L 13.441406 19.847656 L 13.527344 19.9375 L 13.582031 20.042969 L 13.726562 20.179688 L 13.832031 20.242188 L 13.9375 20.222656 L 13.980469 20.152344 L 14.0625 20.1875 L 14.125 20.195312 L 14.1875 20.523438 L 14.222656 20.570312 L 14.179688 20.648438 L 14.167969 20.722656 L 14.125 20.890625 L 14.097656 21.03125 L 14.035156 21.175781 L 13.964844 21.308594 L 13.929688 21.378906 C 13.929688 21.378906 13.9375 21.425781 13.945312 21.453125 C 13.957031 21.480469 13.992188 21.503906 14 21.550781 C 14.007812 21.59375 14.007812 21.621094 14.007812 21.621094 L 13.972656 21.691406 L 13.902344 21.753906 L 13.921875 21.816406 L 13.941406 21.914062 L 13.886719 21.992188 L 13.804688 22.011719 L 13.726562 22.03125 L 13.671875 22.074219 L 13.617188 22.109375 L 13.554688 22.144531 L 13.539062 22.296875 L 13.617188 22.296875 L 13.714844 22.316406 L 13.761719 22.40625 L 13.742188 22.457031 L 13.722656 22.539062 L 13.652344 22.617188 L 13.632812 22.691406 L 13.597656 22.761719 L 13.589844 22.832031 L 13.671875 22.824219 L 13.75 22.84375 L 13.859375 22.886719 L 13.8125 22.921875 L 13.777344 22.9375 L 13.796875 23.046875 L 13.804688 23.097656 L 13.878906 23.132812 L 14 23.152344 L 14.109375 23.214844 L 14.117188 23.375 L 14.097656 23.515625 L 14.082031 23.632812 L 14.089844 23.667969 L 14.160156 23.765625 L 14.1875 23.800781 L 14.222656 23.816406 L 14.339844 23.84375 L 14.339844 23.917969 L 14.410156 23.960938 L 14.492188 23.960938 C 14.492188 23.960938 14.589844 23.925781 14.589844 23.960938 C 14.589844 23.996094 14.554688 24.074219 14.554688 24.074219 L 14.464844 24.136719 L 14.472656 24.324219 L 14.535156 24.46875 L 14.578125 24.566406 L 14.632812 24.644531 L 14.703125 24.679688 L 14.730469 24.742188 L 14.828125 24.796875 L 14.945312 24.796875 L 15.023438 24.832031 L 15.058594 24.867188 L 15.15625 24.9375 L 15.199219 24.980469 L 15.273438 25.042969 L 15.300781 25.105469 L 15.308594 25.148438 Z M 15.761719 25.15625 " fill-opacity="1" fill-rule="nonzero"/></g></svg>