<svg xmlns="http://www.w3.org/2000/svg" xmlns:xlink="http://www.w3.org/1999/xlink" width="40" zoomAndPan="magnify" viewBox="0 0 30 30.000001" height="40" preserveAspectRatio="xMidYMid meet" version="1.0"><defs><clipPath id="9a79c4192c"><path d="M 8.683594 2.902344 L 21.023438 2.902344 L 21.023438 26.128906 L 8.683594 26.128906 Z M 8.683594 2.902344 " clip-rule="nonzero"/></clipPath></defs><g clip-path="url(#9a79c4192c)"><path fill="#014d4e" d="M 12.53125 2.933594 C 12.503906 2.945312 12.457031 2.984375 12.421875 3.015625 C 12.34375 3.105469 12.214844 3.125 12.046875 3.078125 C 11.824219 3.015625 11.757812 3.039062 11.84375 3.148438 C 11.871094 3.1875 11.902344 3.25 11.917969 3.296875 L 11.945312 3.382812 L 11.894531 3.433594 C 11.820312 3.507812 11.640625 3.539062 11.503906 3.503906 C 11.328125 3.457031 11.222656 3.554688 11.175781 3.800781 C 11.148438 3.960938 11.101562 4.015625 11.039062 3.964844 C 11 3.933594 10.976562 3.933594 10.945312 3.960938 C 10.929688 3.976562 10.898438 3.984375 10.859375 3.984375 C 10.816406 3.984375 10.789062 3.992188 10.765625 4.011719 C 10.746094 4.027344 10.691406 4.0625 10.648438 4.089844 L 10.566406 4.140625 L 10.410156 4.113281 C 10.285156 4.09375 10.246094 4.089844 10.191406 4.101562 L 10.121094 4.113281 L 10.078125 4.066406 C 10.023438 4.003906 10.003906 3.996094 9.898438 3.984375 C 9.714844 3.960938 9.710938 3.964844 9.695312 4.101562 C 9.683594 4.214844 9.660156 4.253906 9.582031 4.277344 C 9.464844 4.316406 9.421875 4.359375 9.421875 4.441406 C 9.421875 4.460938 9.40625 4.496094 9.394531 4.519531 C 9.332031 4.621094 9.292969 4.902344 9.332031 4.980469 C 9.382812 5.082031 9.367188 5.125 9.210938 5.269531 C 9.078125 5.390625 9.070312 5.40625 9.148438 5.476562 C 9.21875 5.539062 9.246094 5.605469 9.246094 5.703125 C 9.246094 5.75 9.25 5.808594 9.257812 5.832031 C 9.269531 5.886719 9.261719 5.902344 9.214844 5.902344 C 9.203125 5.902344 9.144531 5.925781 9.085938 5.953125 C 8.945312 6.019531 8.914062 6.023438 8.863281 5.984375 C 8.773438 5.917969 8.6875 5.964844 8.707031 6.074219 C 8.71875 6.136719 8.808594 6.40625 8.835938 6.464844 C 8.871094 6.53125 8.890625 6.535156 8.980469 6.488281 L 9.058594 6.449219 L 9.058594 6.515625 C 9.058594 6.605469 9.085938 6.6875 9.152344 6.796875 C 9.226562 6.917969 9.230469 6.949219 9.191406 7.042969 C 9.132812 7.164062 9.183594 7.324219 9.332031 7.480469 C 9.410156 7.566406 9.4375 7.585938 9.589844 7.679688 C 9.640625 7.710938 9.679688 7.738281 9.679688 7.746094 C 9.683594 7.800781 9.757812 7.90625 9.882812 8.039062 C 10 8.15625 10.035156 8.203125 10.089844 8.300781 C 10.140625 8.394531 10.160156 8.425781 10.191406 8.4375 C 10.335938 8.496094 10.371094 8.566406 10.378906 8.789062 C 10.386719 8.929688 10.410156 9 10.5 9.128906 C 10.5625 9.222656 10.59375 9.292969 10.605469 9.367188 C 10.640625 9.582031 10.792969 9.636719 10.945312 9.488281 C 10.972656 9.460938 10.996094 9.445312 11 9.453125 C 11.015625 9.617188 10.917969 9.789062 10.800781 9.808594 C 10.738281 9.820312 10.699219 9.84375 10.65625 9.886719 C 10.625 9.921875 10.609375 9.925781 10.5625 9.925781 C 10.46875 9.925781 10.46875 9.929688 10.488281 10.078125 C 10.5 10.1875 10.5 10.234375 10.488281 10.351562 C 10.464844 10.527344 10.464844 10.679688 10.484375 10.789062 C 10.507812 10.917969 10.5 10.957031 10.441406 10.957031 C 10.386719 10.957031 10.332031 10.996094 10.269531 11.085938 C 10.222656 11.15625 10.222656 11.15625 10.164062 11.15625 C 9.835938 11.15625 9.851562 11.546875 10.199219 12.09375 C 10.265625 12.195312 10.351562 12.351562 10.390625 12.441406 C 10.472656 12.628906 10.492188 12.65625 10.621094 12.753906 C 11.023438 13.0625 10.992188 13.035156 11.097656 13.210938 C 11.152344 13.296875 11.214844 13.394531 11.246094 13.421875 C 11.273438 13.449219 11.296875 13.484375 11.296875 13.5 C 11.296875 13.550781 11.324219 13.601562 11.351562 13.609375 C 11.378906 13.617188 11.382812 13.625 11.382812 13.703125 C 11.382812 13.753906 11.394531 13.824219 11.410156 13.882812 C 11.457031 14.03125 11.460938 14.09375 11.4375 14.1875 C 11.425781 14.238281 11.421875 14.289062 11.425781 14.324219 C 11.433594 14.375 11.429688 14.382812 11.382812 14.429688 C 11.246094 14.570312 11.238281 14.683594 11.363281 14.753906 C 11.375 14.761719 11.386719 14.808594 11.394531 14.875 C 11.414062 15.046875 11.554688 15.269531 11.707031 15.371094 C 11.789062 15.421875 11.789062 15.421875 11.796875 15.605469 C 11.800781 15.726562 11.804688 15.746094 11.84375 15.824219 C 11.882812 15.902344 11.886719 15.910156 11.886719 16.050781 L 11.886719 16.191406 L 11.933594 16.191406 L 11.984375 16.1875 L 11.988281 16.253906 C 11.988281 16.296875 12.003906 16.351562 12.027344 16.410156 C 12.078125 16.53125 12.089844 16.585938 12.074219 16.617188 C 12.035156 16.679688 11.996094 16.722656 11.941406 16.746094 C 11.878906 16.769531 11.828125 16.832031 11.828125 16.878906 C 11.828125 16.925781 11.765625 17.03125 11.714844 17.066406 C 11.640625 17.113281 11.625 17.160156 11.671875 17.199219 L 11.703125 17.226562 L 11.675781 17.246094 C 11.621094 17.28125 11.582031 17.335938 11.566406 17.386719 C 11.53125 17.511719 11.410156 17.660156 11.308594 17.691406 C 11.207031 17.71875 11.167969 17.769531 11.160156 17.875 C 11.152344 17.984375 11.132812 18.019531 11.058594 18.0625 C 11.03125 18.078125 10.984375 18.109375 10.953125 18.128906 C 10.828125 18.203125 10.75 18.425781 10.820312 18.5 L 10.847656 18.53125 L 10.8125 18.597656 C 10.773438 18.667969 10.765625 18.699219 10.730469 18.917969 C 10.707031 19.0625 10.644531 19.199219 10.539062 19.347656 C 10.421875 19.507812 10.398438 19.570312 10.390625 19.730469 C 10.382812 19.847656 10.378906 19.863281 10.355469 19.886719 C 10.316406 19.921875 10.320312 19.960938 10.363281 20.011719 L 10.402344 20.054688 L 10.355469 20.078125 C 10.289062 20.105469 10.277344 20.121094 10.265625 20.210938 C 10.257812 20.265625 10.234375 20.328125 10.195312 20.402344 C 10.121094 20.554688 10.109375 20.632812 10.15625 20.714844 C 10.175781 20.742188 10.195312 20.769531 10.203125 20.769531 C 10.246094 20.769531 10.25 20.84375 10.210938 20.871094 C 10.121094 20.933594 10.089844 20.972656 10.039062 21.101562 C 9.976562 21.269531 9.972656 21.292969 9.996094 21.359375 C 10.015625 21.414062 10.015625 21.414062 9.984375 21.480469 C 9.882812 21.679688 10.136719 22.242188 10.3125 22.203125 C 10.386719 22.1875 10.445312 22.085938 10.433594 22 C 10.425781 21.941406 10.453125 21.917969 10.5625 21.90625 C 10.621094 21.898438 10.625 21.898438 10.625 21.925781 C 10.625 21.96875 10.664062 22.023438 10.703125 22.03125 C 10.746094 22.039062 10.75 22.046875 10.761719 22.164062 C 10.789062 22.429688 10.859375 22.523438 10.980469 22.449219 L 11.039062 22.417969 L 11.066406 22.453125 C 11.078125 22.472656 11.113281 22.511719 11.136719 22.539062 C 11.1875 22.597656 11.191406 22.613281 11.175781 22.773438 C 11.167969 22.851562 11.164062 22.855469 11.136719 22.855469 C 11.074219 22.855469 11.113281 22.9375 11.195312 22.980469 L 11.222656 22.996094 L 11.195312 23.011719 C 11.148438 23.03125 11.152344 23.066406 11.214844 23.144531 C 11.324219 23.28125 11.390625 23.277344 11.4375 23.128906 C 11.445312 23.113281 11.457031 23.089844 11.46875 23.082031 C 11.488281 23.070312 11.492188 23.058594 11.480469 23.027344 C 11.445312 22.90625 11.480469 22.886719 11.53125 22.996094 C 11.566406 23.066406 11.574219 23.105469 11.601562 23.261719 C 11.605469 23.289062 11.632812 23.332031 11.679688 23.386719 C 11.722656 23.429688 11.753906 23.472656 11.753906 23.476562 C 11.753906 23.503906 11.847656 23.550781 11.902344 23.550781 C 11.953125 23.550781 11.953125 23.554688 11.953125 23.589844 C 11.953125 23.632812 12.019531 23.703125 12.117188 23.769531 C 12.167969 23.804688 12.179688 23.835938 12.171875 23.929688 C 12.160156 24.058594 12.238281 24.175781 12.476562 24.398438 C 12.574219 24.488281 12.609375 24.53125 12.640625 24.59375 C 12.675781 24.660156 12.691406 24.679688 12.742188 24.707031 C 12.804688 24.738281 12.816406 24.753906 12.867188 24.871094 C 12.898438 24.945312 12.917969 24.960938 12.929688 24.921875 C 12.933594 24.910156 12.964844 24.847656 12.996094 24.789062 C 13.039062 24.699219 13.050781 24.660156 13.058594 24.585938 C 13.074219 24.4375 13.105469 24.449219 13.203125 24.640625 C 13.210938 24.660156 13.332031 24.738281 13.371094 24.75 C 13.386719 24.753906 13.421875 24.769531 13.445312 24.785156 C 13.480469 24.804688 13.511719 24.8125 13.640625 24.8125 C 13.8125 24.816406 13.855469 24.835938 13.855469 24.910156 C 13.855469 25.007812 14.042969 25.144531 14.148438 25.125 C 14.3125 25.09375 14.359375 25.386719 14.21875 25.59375 C 14.132812 25.714844 14.136719 25.816406 14.226562 25.886719 C 14.25 25.90625 14.292969 25.953125 14.320312 25.992188 C 14.414062 26.128906 14.539062 26.105469 14.636719 25.929688 C 14.667969 25.875 14.6875 25.859375 14.746094 25.832031 C 14.785156 25.8125 14.855469 25.777344 14.902344 25.753906 C 15.027344 25.6875 15.078125 25.695312 15.128906 25.789062 C 15.179688 25.894531 15.21875 25.910156 15.347656 25.882812 C 15.566406 25.839844 15.660156 25.757812 15.710938 25.558594 C 15.730469 25.480469 15.742188 25.464844 15.8125 25.398438 C 15.917969 25.292969 15.933594 25.226562 15.890625 25.082031 C 15.878906 25.046875 15.71875 24.878906 15.691406 24.878906 C 15.671875 24.878906 15.425781 24.675781 15.402344 24.640625 C 15.386719 24.617188 15.355469 24.566406 15.332031 24.527344 C 15.304688 24.484375 15.273438 24.421875 15.257812 24.382812 C 15.1875 24.203125 15.082031 24.097656 14.910156 24.035156 C 14.851562 24.015625 14.792969 23.984375 14.777344 23.972656 C 14.722656 23.921875 14.671875 23.925781 14.558594 24 C 14.429688 24.082031 14.410156 24.085938 14.304688 24.066406 C 13.742188 23.949219 13.296875 23.226562 13.25 22.351562 C 13.234375 22.03125 13.195312 21.878906 13.074219 21.691406 C 13.007812 21.585938 12.988281 21.582031 12.957031 21.671875 C 12.910156 21.796875 12.875 21.78125 12.777344 21.578125 C 12.703125 21.417969 12.664062 21.285156 12.644531 21.070312 C 12.601562 20.667969 12.5625 20.511719 12.492188 20.441406 C 12.410156 20.355469 12.296875 20.335938 12.179688 20.390625 C 12.136719 20.410156 12.089844 20.421875 12.054688 20.421875 C 12.007812 20.421875 11.984375 20.429688 11.933594 20.46875 C 11.816406 20.558594 11.710938 20.558594 11.628906 20.476562 L 11.585938 20.433594 L 11.613281 20.410156 C 11.699219 20.339844 11.675781 20.148438 11.558594 19.941406 C 11.476562 19.800781 11.460938 19.730469 11.480469 19.589844 C 11.492188 19.53125 11.496094 19.433594 11.496094 19.371094 C 11.492188 19.230469 11.515625 19.167969 11.585938 19.089844 C 11.652344 19.015625 11.65625 19.011719 11.605469 18.984375 C 11.582031 18.972656 11.546875 18.949219 11.523438 18.929688 L 11.484375 18.898438 L 11.539062 18.882812 C 11.625 18.859375 11.648438 18.832031 11.640625 18.75 C 11.628906 18.632812 11.722656 18.40625 11.871094 18.199219 C 11.984375 18.042969 12.007812 17.972656 12.011719 17.8125 C 12.011719 17.664062 12.015625 17.652344 12.070312 17.652344 C 12.15625 17.652344 12.207031 17.570312 12.15625 17.511719 C 12.117188 17.472656 12.167969 17.167969 12.234375 17.042969 C 12.277344 16.960938 12.433594 16.707031 12.484375 16.640625 C 12.539062 16.566406 12.539062 16.566406 12.53125 16.488281 C 12.523438 16.382812 12.535156 16.359375 12.660156 16.230469 C 12.800781 16.082031 12.867188 15.945312 12.855469 15.820312 C 12.851562 15.800781 12.847656 15.746094 12.84375 15.703125 C 12.835938 15.660156 12.816406 15.570312 12.796875 15.503906 C 12.699219 15.175781 12.738281 14.925781 12.921875 14.726562 C 13 14.644531 12.992188 14.628906 12.828125 14.421875 C 12.738281 14.316406 12.777344 14.242188 12.964844 14.144531 C 13.015625 14.121094 13.066406 14.089844 13.082031 14.070312 L 13.113281 14.039062 L 13.140625 14.0625 C 13.179688 14.101562 13.308594 14.105469 13.457031 14.078125 L 13.574219 14.054688 L 13.585938 14.003906 C 13.59375 13.972656 13.601562 13.949219 13.609375 13.949219 C 13.625 13.949219 13.714844 14 13.753906 14.027344 C 13.808594 14.066406 13.976562 14.113281 14.035156 14.109375 L 14.089844 14.105469 L 14.046875 14.148438 C 13.996094 14.203125 13.988281 14.226562 14.007812 14.257812 C 14.035156 14.296875 14.039062 14.378906 14.015625 14.445312 C 13.980469 14.542969 13.972656 14.617188 13.992188 14.671875 C 14.007812 14.71875 14.003906 14.722656 13.96875 14.765625 C 13.921875 14.816406 13.917969 14.859375 13.945312 14.929688 C 13.992188 15.03125 13.957031 15.128906 13.875 15.148438 C 13.855469 15.15625 13.839844 15.164062 13.839844 15.167969 C 13.839844 15.175781 13.835938 15.183594 13.835938 15.191406 C 13.835938 15.207031 14.003906 15.332031 14.058594 15.351562 C 14.097656 15.363281 14.15625 15.367188 14.335938 15.359375 C 14.589844 15.351562 14.636719 15.355469 14.714844 15.410156 C 14.761719 15.441406 14.808594 15.453125 14.808594 15.429688 C 14.808594 15.40625 14.886719 15.378906 14.957031 15.378906 C 15.011719 15.378906 15.066406 15.367188 15.15625 15.335938 C 15.339844 15.273438 15.355469 15.277344 15.46875 15.421875 C 15.523438 15.492188 15.546875 15.503906 15.59375 15.476562 C 15.613281 15.464844 15.621094 15.464844 15.640625 15.492188 C 15.65625 15.507812 15.6875 15.535156 15.714844 15.546875 C 15.746094 15.558594 15.765625 15.578125 15.765625 15.589844 C 15.765625 15.617188 15.863281 15.726562 15.957031 15.8125 L 16.027344 15.878906 L 16.019531 15.941406 L 16.011719 16 L 16.105469 16.042969 C 16.160156 16.066406 16.230469 16.089844 16.265625 16.09375 C 16.378906 16.105469 16.390625 16.113281 16.46875 16.195312 C 16.566406 16.296875 16.613281 16.285156 16.613281 16.160156 C 16.613281 16.113281 16.621094 16.117188 16.691406 16.195312 C 16.742188 16.25 16.753906 16.273438 16.761719 16.332031 C 16.777344 16.433594 16.824219 16.523438 16.890625 16.597656 C 16.925781 16.632812 16.96875 16.695312 16.988281 16.738281 C 17.039062 16.839844 17.105469 16.863281 17.148438 16.792969 C 17.164062 16.769531 17.125 16.628906 17.011719 16.292969 C 16.890625 15.933594 16.875 15.816406 16.9375 15.710938 C 16.980469 15.636719 16.980469 15.628906 16.925781 15.523438 C 16.867188 15.414062 16.753906 15.296875 16.65625 15.246094 C 16.554688 15.195312 16.546875 15.183594 16.554688 14.980469 C 16.5625 14.769531 16.546875 14.703125 16.449219 14.523438 C 16.359375 14.359375 16.351562 14.328125 16.34375 14.109375 L 16.335938 13.941406 L 16.421875 13.921875 C 16.472656 13.910156 16.535156 13.902344 16.566406 13.902344 C 16.644531 13.902344 16.664062 13.882812 16.648438 13.824219 C 16.621094 13.742188 16.699219 13.652344 16.800781 13.652344 C 16.851562 13.652344 16.894531 13.578125 16.933594 13.441406 C 16.953125 13.363281 16.96875 13.34375 17.039062 13.265625 C 17.125 13.171875 17.183594 13.074219 17.183594 13.015625 C 17.183594 12.988281 17.191406 12.980469 17.222656 12.964844 C 17.246094 12.957031 17.277344 12.929688 17.292969 12.910156 C 17.324219 12.867188 17.492188 12.78125 17.566406 12.765625 C 17.589844 12.761719 17.679688 12.734375 17.765625 12.707031 C 18.125 12.597656 18.214844 12.585938 18.300781 12.648438 C 18.34375 12.679688 18.359375 12.683594 18.421875 12.683594 C 18.488281 12.679688 18.5 12.683594 18.535156 12.714844 C 18.582031 12.75 18.601562 12.75 18.671875 12.707031 C 18.707031 12.683594 18.714844 12.683594 18.742188 12.703125 C 18.78125 12.726562 18.792969 12.726562 18.902344 12.683594 C 19.015625 12.640625 19.0625 12.636719 19.164062 12.664062 C 19.28125 12.699219 19.425781 12.695312 19.546875 12.652344 C 19.660156 12.617188 19.675781 12.613281 19.902344 12.625 C 20.144531 12.640625 20.132812 12.636719 20.148438 12.710938 C 20.167969 12.800781 20.203125 12.851562 20.257812 12.882812 C 20.363281 12.933594 20.398438 12.925781 20.523438 12.804688 C 20.613281 12.714844 20.71875 12.632812 20.742188 12.632812 C 20.746094 12.632812 20.746094 12.644531 20.746094 12.660156 C 20.746094 12.78125 21.03125 12.488281 21.085938 12.308594 C 21.105469 12.234375 21.113281 12.183594 21.113281 12.039062 C 21.113281 11.863281 21.117188 11.855469 21.152344 11.769531 C 21.222656 11.613281 21.222656 11.585938 21.132812 11.480469 C 21.042969 11.367188 21.042969 11.382812 21.113281 11.292969 C 21.183594 11.207031 21.203125 11.144531 21.21875 10.988281 C 21.226562 10.921875 21.242188 10.828125 21.253906 10.78125 C 21.300781 10.566406 21.207031 10.394531 21.015625 10.359375 C 20.871094 10.335938 20.8125 10.253906 20.867188 10.164062 C 20.886719 10.132812 20.914062 10.113281 21.019531 10.074219 C 21.117188 10.035156 20.9375 9.941406 20.699219 9.902344 C 20.453125 9.863281 20.414062 9.835938 20.324219 9.65625 C 20.269531 9.546875 20.242188 9.507812 20.152344 9.414062 C 20.015625 9.273438 20.015625 9.273438 20.007812 9.125 C 20.003906 9.054688 19.992188 8.941406 19.980469 8.867188 C 19.953125 8.667969 19.960938 8.507812 20.011719 8.382812 C 20.058594 8.269531 20.070312 8.171875 20.046875 8.03125 C 20.007812 7.796875 19.957031 7.71875 19.796875 7.609375 C 19.46875 7.394531 19.261719 7.167969 19.070312 6.816406 C 19.046875 6.773438 19.003906 6.703125 18.96875 6.652344 C 18.9375 6.605469 18.902344 6.550781 18.894531 6.53125 C 18.8125 6.371094 18.644531 6.273438 18.550781 6.320312 C 18.511719 6.339844 18.507812 6.339844 18.496094 6.324219 C 18.46875 6.289062 18.429688 6.273438 18.359375 6.273438 C 18.304688 6.273438 18.28125 6.265625 18.210938 6.21875 C 18.101562 6.148438 18.023438 6.132812 17.863281 6.144531 C 17.613281 6.160156 17.519531 6.226562 17.519531 6.382812 C 17.519531 6.410156 17.507812 6.425781 17.488281 6.433594 C 17.457031 6.453125 17.285156 6.636719 17.261719 6.675781 C 17.253906 6.691406 17.246094 6.734375 17.246094 6.773438 C 17.246094 6.859375 17.230469 6.871094 17.128906 6.871094 C 17.007812 6.871094 16.945312 6.898438 16.808594 7 L 16.75 7.046875 L 16.730469 6.980469 C 16.707031 6.910156 16.660156 6.882812 16.539062 6.859375 C 16.40625 6.832031 16.300781 6.78125 16.117188 6.652344 C 15.875 6.476562 15.832031 6.476562 15.667969 6.644531 L 15.558594 6.757812 L 15.460938 6.757812 C 15.320312 6.757812 15.257812 6.792969 15.238281 6.875 C 15.21875 6.945312 15.1875 6.984375 15.101562 7.035156 C 15.023438 7.082031 14.996094 7.125 14.996094 7.191406 C 14.996094 7.257812 14.980469 7.273438 14.800781 7.355469 C 14.636719 7.429688 14.59375 7.464844 14.519531 7.582031 C 14.453125 7.683594 14.441406 7.683594 14.332031 7.597656 C 14.277344 7.550781 14.238281 7.53125 14.214844 7.53125 C 14.167969 7.53125 14.160156 7.511719 14.191406 7.484375 C 14.203125 7.472656 14.21875 7.441406 14.226562 7.414062 C 14.257812 7.292969 14.378906 7.082031 14.460938 7.003906 C 14.503906 6.960938 14.546875 6.910156 14.558594 6.890625 C 14.585938 6.839844 14.589844 6.578125 14.566406 6.542969 C 14.554688 6.527344 14.550781 6.484375 14.550781 6.4375 C 14.550781 6.34375 14.519531 6.289062 14.445312 6.238281 C 14.386719 6.199219 14.402344 6.15625 14.5 6.082031 C 14.65625 5.960938 14.683594 5.902344 14.683594 5.695312 C 14.679688 5.550781 14.679688 5.546875 14.722656 5.476562 C 14.78125 5.371094 14.808594 5.164062 14.765625 5.140625 C 14.703125 5.101562 14.6875 5.078125 14.671875 5.011719 C 14.664062 4.972656 14.644531 4.890625 14.628906 4.828125 C 14.578125 4.628906 14.574219 4.65625 14.667969 4.566406 C 14.777344 4.457031 14.773438 4.328125 14.660156 4.324219 C 14.644531 4.324219 14.578125 4.320312 14.511719 4.320312 C 14.417969 4.320312 14.375 4.3125 14.300781 4.285156 C 14.105469 4.210938 14.074219 4.214844 13.945312 4.324219 C 13.8125 4.4375 13.816406 4.4375 13.761719 4.390625 C 13.707031 4.34375 13.679688 4.339844 13.609375 4.382812 C 13.542969 4.417969 13.542969 4.417969 13.542969 4.394531 C 13.542969 4.386719 13.527344 4.355469 13.507812 4.328125 C 13.414062 4.199219 13.410156 4.128906 13.492188 4.023438 C 13.5625 3.9375 13.625 3.734375 13.636719 3.566406 C 13.644531 3.417969 13.636719 3.394531 13.550781 3.371094 C 13.453125 3.347656 13.355469 3.25 13.355469 3.175781 C 13.355469 3.085938 13.257812 3.019531 13.128906 3.019531 L 13.035156 3.019531 L 13.023438 3.074219 C 12.984375 3.214844 12.898438 3.257812 12.914062 3.125 C 12.925781 3.0625 12.914062 3.050781 12.855469 3.039062 C 12.808594 3.03125 12.753906 3.003906 12.6875 2.945312 C 12.640625 2.910156 12.589844 2.90625 12.53125 2.933594 M 12.5 19.589844 C 12.460938 19.628906 12.578125 19.820312 12.683594 19.886719 L 12.734375 19.921875 L 12.65625 19.929688 C 12.550781 19.9375 12.546875 19.941406 12.550781 20.097656 C 12.550781 20.351562 12.753906 20.46875 12.769531 20.226562 C 12.769531 20.1875 12.78125 20.144531 12.792969 20.132812 C 12.804688 20.117188 12.824219 20.085938 12.84375 20.0625 C 12.878906 20.011719 12.882812 19.949219 12.847656 19.941406 C 12.816406 19.933594 12.816406 19.929688 12.855469 19.886719 C 12.921875 19.804688 12.878906 19.722656 12.75 19.683594 C 12.710938 19.671875 12.660156 19.648438 12.636719 19.628906 C 12.550781 19.558594 12.535156 19.554688 12.5 19.589844 " fill-opacity="1" fill-rule="evenodd"/></g></svg>