<svg xmlns="http://www.w3.org/2000/svg" xmlns:xlink="http://www.w3.org/1999/xlink" width="40" zoomAndPan="magnify" viewBox="0 0 30 30.000001" height="40" preserveAspectRatio="xMidYMid meet" version="1.0"><defs><clipPath id="95a62e99df"><path d="M 3.386719 6.632812 L 26.613281 6.632812 L 26.613281 22.601562 L 3.386719 22.601562 Z M 3.386719 6.632812 " clip-rule="nonzero"/></clipPath></defs><path fill="#014d4e" d="M 13.746094 10.523438 L 13.671875 10.523438 L 13.605469 10.527344 L 13.546875 10.519531 L 13.464844 10.511719 C 13.460938 10.511719 13.460938 10.511719 13.460938 10.511719 L 13.417969 10.53125 L 13.367188 10.566406 L 13.324219 10.570312 C 13.300781 10.5625 13.261719 10.550781 13.253906 10.550781 C 13.242188 10.542969 13.207031 10.53125 13.207031 10.527344 C 13.203125 10.527344 13.199219 10.527344 13.199219 10.53125 L 13.144531 10.578125 C 13.144531 10.578125 13.144531 10.578125 13.144531 10.582031 L 13.109375 10.628906 C 13.109375 10.632812 13.109375 10.632812 13.109375 10.632812 C 13.109375 10.636719 13.113281 10.636719 13.113281 10.640625 L 13.152344 10.660156 C 13.152344 10.660156 13.15625 10.660156 13.15625 10.660156 L 13.191406 10.667969 C 13.199219 10.675781 13.28125 10.730469 13.292969 10.738281 C 13.308594 10.753906 13.34375 10.773438 13.34375 10.773438 C 13.347656 10.773438 13.402344 10.816406 13.421875 10.820312 C 13.441406 10.828125 13.496094 10.839844 13.5 10.84375 L 13.601562 10.847656 C 13.601562 10.847656 13.601562 10.847656 13.605469 10.84375 L 13.644531 10.816406 L 13.703125 10.773438 L 13.765625 10.710938 C 13.765625 10.710938 13.765625 10.710938 13.765625 10.707031 L 13.796875 10.640625 L 13.820312 10.535156 C 13.820312 10.53125 13.820312 10.527344 13.816406 10.527344 C 13.8125 10.527344 13.8125 10.527344 13.8125 10.527344 Z M 13.746094 10.523438 " fill-opacity="1" fill-rule="nonzero"/><g clip-path="url(#95a62e99df)"><path fill="#014d4e" d="M 26.582031 18.964844 L 26.5625 18.910156 L 26.53125 18.808594 C 26.53125 18.808594 26.527344 18.808594 26.527344 18.804688 L 26.101562 18.617188 L 25.898438 18.390625 L 25.84375 18.300781 L 25.851562 18.089844 L 25.960938 17.964844 L 26.0625 17.898438 L 26.203125 17.816406 C 26.207031 17.8125 26.207031 17.8125 26.207031 17.808594 L 26.183594 17.71875 C 26.183594 17.714844 26.179688 17.714844 26.179688 17.714844 L 26.050781 17.683594 L 25.972656 17.660156 L 25.886719 17.558594 L 25.96875 17.421875 L 25.976562 17.386719 L 25.984375 17.371094 L 26.039062 17.203125 C 26.039062 17.203125 26.039062 17.203125 26.039062 17.199219 L 26.019531 17.140625 L 25.878906 16.890625 C 25.878906 16.890625 25.878906 16.890625 25.875 16.890625 L 25.753906 16.769531 L 25.644531 16.367188 L 25.542969 15.972656 L 25.59375 15.652344 L 25.65625 15.4375 L 25.664062 15.382812 C 25.664062 15.378906 25.664062 15.378906 25.664062 15.375 L 25.597656 15.21875 C 25.597656 15.21875 25.597656 15.21875 25.597656 15.214844 L 25.519531 15.117188 C 25.519531 15.117188 25.519531 15.117188 25.515625 15.117188 L 25.273438 14.941406 L 24.796875 14.796875 L 24.53125 14.734375 L 24.429688 14.71875 C 24.425781 14.71875 24.425781 14.71875 24.425781 14.71875 L 24.308594 14.796875 L 24.15625 14.734375 L 23.980469 14.664062 C 23.980469 14.664062 23.976562 14.664062 23.972656 14.664062 L 23.890625 14.726562 L 23.746094 14.652344 C 23.746094 14.652344 23.746094 14.652344 23.742188 14.652344 L 23.59375 14.621094 C 23.59375 14.621094 23.589844 14.621094 23.589844 14.621094 L 23.496094 14.632812 C 23.496094 14.632812 23.496094 14.632812 23.496094 14.636719 L 23.46875 14.660156 L 23.398438 14.699219 C 23.398438 14.699219 23.394531 14.703125 23.394531 14.703125 L 23.394531 14.800781 L 23.316406 14.898438 C 23.3125 14.902344 23.3125 14.90625 23.3125 14.90625 L 23.320312 14.945312 L 23.324219 15.074219 C 23.324219 15.074219 23.324219 15.078125 23.328125 15.078125 L 23.398438 15.128906 L 23.40625 15.140625 L 23.382812 15.148438 L 23.210938 15.199219 L 23.113281 15.222656 L 22.96875 15.222656 L 22.828125 15.167969 L 22.703125 15.054688 C 22.703125 15.054688 22.703125 15.050781 22.699219 15.050781 L 22.632812 15.042969 C 22.617188 15.042969 22.578125 15.039062 22.5625 15.035156 C 22.554688 15.03125 22.515625 14.988281 22.484375 14.949219 L 22.472656 14.777344 C 22.472656 14.773438 22.472656 14.773438 22.46875 14.773438 L 22.214844 14.511719 L 22.21875 14.292969 C 22.21875 14.292969 22.21875 14.292969 22.21875 14.289062 L 22.144531 14.179688 L 22.09375 14.058594 L 22.09375 13.914062 L 22.140625 13.75 L 22.167969 13.71875 L 22.429688 13.667969 C 22.429688 13.667969 22.433594 13.664062 22.433594 13.660156 L 22.433594 13.523438 C 22.433594 13.523438 22.433594 13.519531 22.433594 13.519531 L 22.378906 13.40625 C 22.378906 13.402344 22.378906 13.402344 22.378906 13.402344 L 22.355469 13.386719 C 22.355469 13.386719 22.351562 13.386719 22.351562 13.386719 L 22.300781 13.378906 L 22.253906 13.371094 L 22.125 13.296875 L 22.050781 13.113281 L 21.988281 13.023438 L 21.96875 12.953125 L 21.949219 12.890625 L 21.941406 12.820312 C 21.941406 12.820312 21.941406 12.816406 21.941406 12.816406 L 21.90625 12.75 L 21.886719 12.707031 C 21.886719 12.707031 21.886719 12.707031 21.882812 12.707031 L 21.851562 12.683594 C 21.851562 12.683594 21.851562 12.683594 21.851562 12.679688 L 21.789062 12.664062 L 21.753906 12.550781 L 21.753906 12.480469 L 21.769531 12.398438 C 21.769531 12.398438 21.769531 12.394531 21.769531 12.394531 L 21.738281 12.289062 L 21.882812 12.113281 L 21.933594 12.078125 C 21.933594 12.078125 21.933594 12.074219 21.933594 12.070312 C 21.933594 12.070312 21.933594 12.066406 21.933594 12.066406 L 21.8125 11.941406 C 21.8125 11.9375 21.808594 11.9375 21.808594 11.9375 L 21.753906 11.933594 L 21.636719 11.910156 C 21.636719 11.910156 21.632812 11.910156 21.632812 11.910156 L 21.460938 11.945312 L 21.335938 11.96875 C 21.335938 11.96875 21.332031 11.96875 21.332031 11.96875 L 20.796875 12.289062 L 20.335938 12.351562 L 19.234375 12.445312 L 18.628906 12.457031 C 18.628906 12.457031 18.625 12.457031 18.625 12.457031 L 18.066406 12.632812 C 18.066406 12.632812 18.0625 12.632812 18.0625 12.636719 L 17.933594 12.746094 C 17.933594 12.746094 17.933594 12.746094 17.929688 12.75 L 17.753906 13 L 17.667969 13.148438 L 17.625 13.175781 L 17.523438 13.171875 L 16.972656 12.828125 L 16.824219 12.742188 C 16.824219 12.742188 16.820312 12.742188 16.820312 12.742188 L 16.800781 12.738281 L 16.730469 12.742188 C 16.726562 12.742188 16.726562 12.742188 16.726562 12.742188 L 16.691406 12.78125 L 16.65625 12.832031 L 16.597656 12.867188 L 16.519531 12.890625 L 16.398438 12.820312 C 16.398438 12.820312 16.398438 12.820312 16.394531 12.820312 L 16.292969 12.824219 L 16.277344 12.824219 C 16.273438 12.824219 16.273438 12.824219 16.269531 12.824219 L 16.230469 12.859375 L 16.167969 12.917969 L 16.074219 12.878906 L 16.035156 12.71875 L 16.039062 12.691406 L 16.046875 12.625 L 16.058594 12.558594 C 16.058594 12.558594 16.058594 12.554688 16.058594 12.554688 L 16.019531 12.398438 C 16.019531 12.398438 16.019531 12.394531 16.015625 12.394531 L 15.964844 12.332031 L 15.832031 12.277344 C 15.832031 12.277344 15.828125 12.277344 15.828125 12.277344 L 15.78125 12.273438 L 15.714844 12.285156 L 15.636719 12.289062 L 15.492188 12.238281 L 15.308594 12.070312 L 15.195312 11.886719 C 15.195312 11.886719 15.195312 11.886719 15.191406 11.882812 L 15.082031 11.792969 C 15.082031 11.792969 15.082031 11.792969 15.078125 11.792969 C 15.074219 11.792969 14.957031 11.78125 14.910156 11.792969 C 14.867188 11.800781 14.546875 11.929688 14.535156 11.933594 L 14.367188 12.03125 L 14.273438 12.089844 L 14.207031 12.132812 L 14.097656 12.222656 L 13.960938 12.292969 L 13.746094 12.363281 L 13.609375 12.394531 C 13.609375 12.394531 13.605469 12.394531 13.605469 12.394531 L 13.425781 12.503906 L 13.378906 12.535156 L 13.339844 12.570312 L 13.285156 12.574219 L 13.203125 12.597656 L 13.085938 12.527344 L 13.003906 12.46875 L 12.957031 12.285156 L 13.011719 12.164062 L 13.046875 12.050781 L 13.054688 11.945312 C 13.054688 11.945312 13.054688 11.941406 13.050781 11.941406 L 12.890625 11.789062 C 12.890625 11.789062 12.890625 11.785156 12.886719 11.785156 L 12.863281 11.785156 L 12.808594 11.78125 L 12.761719 11.777344 L 12.640625 11.769531 L 12.621094 11.773438 L 12.613281 11.777344 L 12.386719 11.855469 L 12.191406 11.777344 L 12.1875 11.773438 L 12.15625 11.761719 L 12.152344 11.761719 C 12.152344 11.761719 12.148438 11.761719 12.148438 11.761719 L 12.144531 11.761719 L 12.113281 11.777344 L 12.03125 11.816406 L 11.960938 11.863281 C 11.960938 11.863281 11.960938 11.863281 11.957031 11.867188 L 11.933594 11.898438 L 11.902344 11.925781 L 11.851562 11.941406 L 11.820312 11.941406 L 11.753906 11.878906 L 11.726562 11.855469 L 11.683594 11.828125 C 11.679688 11.828125 11.644531 11.8125 11.632812 11.808594 C 11.621094 11.804688 11.59375 11.792969 11.59375 11.792969 C 11.589844 11.792969 11.589844 11.792969 11.585938 11.792969 L 11.546875 11.796875 L 11.5 11.8125 L 11.414062 11.839844 L 11.378906 11.855469 L 10.957031 11.859375 L 10.378906 11.859375 L 9.601562 11.898438 L 9.492188 11.886719 L 9.414062 11.789062 L 9.414062 11.757812 L 9.421875 11.339844 L 9.226562 10.953125 L 9.199219 10.894531 L 9.332031 10.636719 C 9.332031 10.636719 9.332031 10.632812 9.332031 10.632812 L 9.332031 10.542969 L 9.351562 10.296875 L 9.460938 10.25 L 9.601562 10.558594 L 9.613281 10.578125 C 9.617188 10.578125 9.621094 10.582031 9.625 10.578125 L 9.902344 10.425781 C 9.902344 10.425781 9.90625 10.421875 9.90625 10.417969 L 9.882812 10.152344 L 9.972656 10.109375 C 9.972656 10.109375 9.972656 10.105469 9.976562 10.101562 L 10.003906 9.953125 L 10.140625 9.960938 C 10.140625 9.960938 10.140625 9.960938 10.144531 9.957031 L 10.25 9.871094 L 10.320312 9.929688 C 10.320312 9.929688 10.324219 9.929688 10.328125 9.929688 L 10.714844 9.699219 L 11.257812 9.765625 L 12.089844 10.066406 C 12.089844 10.066406 12.09375 10.066406 12.09375 10.066406 L 12.359375 10.011719 L 12.625 9.914062 L 13.089844 9.980469 L 13.066406 10.199219 C 13.066406 10.199219 13.066406 10.199219 13.070312 10.203125 L 13.152344 10.316406 C 13.152344 10.320312 13.15625 10.320312 13.15625 10.320312 C 13.160156 10.320312 13.164062 10.320312 13.164062 10.316406 L 13.371094 10.152344 C 13.371094 10.152344 13.375 10.148438 13.375 10.148438 L 13.5 9.816406 L 13.714844 9.734375 C 13.714844 9.734375 13.71875 9.734375 13.71875 9.734375 L 13.910156 9.515625 L 14.554688 9.449219 C 14.554688 9.449219 14.558594 9.445312 14.558594 9.441406 L 14.566406 9.207031 C 14.566406 9.207031 14.566406 9.203125 14.566406 9.203125 C 14.5625 9.203125 14.558594 9.203125 14.558594 9.203125 L 14.441406 9.214844 C 14.441406 9.214844 14.4375 9.214844 14.4375 9.214844 L 14.363281 9.261719 L 14.273438 9.320312 L 14.195312 9.328125 L 13.988281 9.292969 C 13.984375 9.292969 13.980469 9.292969 13.980469 9.292969 L 13.546875 9.613281 L 13.226562 9.308594 L 13.171875 9.089844 C 13.171875 9.089844 13.171875 9.085938 13.167969 9.085938 L 13.058594 9.070312 L 12.992188 8.984375 C 12.992188 8.980469 12.988281 8.980469 12.988281 8.980469 L 12.875 8.957031 L 12.808594 8.9375 C 12.800781 8.925781 12.75 8.867188 12.738281 8.847656 C 12.722656 8.824219 12.683594 8.78125 12.683594 8.777344 L 12.589844 8.703125 L 12.523438 8.648438 L 12.484375 8.589844 L 12.617188 8.476562 L 12.675781 8.445312 L 12.78125 8.4375 C 12.78125 8.4375 12.785156 8.433594 12.785156 8.433594 L 12.84375 8.34375 C 12.863281 8.320312 12.925781 8.253906 12.945312 8.242188 C 12.976562 8.226562 13.066406 8.195312 13.066406 8.195312 L 13.125 8.183594 C 13.128906 8.183594 13.128906 8.179688 13.128906 8.179688 L 13.199219 8.085938 L 13.277344 8.039062 C 13.28125 8.039062 13.28125 8.035156 13.28125 8.035156 L 13.332031 7.921875 L 13.429688 7.914062 C 13.433594 7.914062 13.4375 7.910156 13.4375 7.910156 L 13.484375 7.832031 L 13.582031 7.785156 L 13.671875 7.710938 L 13.71875 7.660156 C 13.722656 7.65625 13.722656 7.65625 13.722656 7.652344 C 13.722656 7.652344 13.71875 7.648438 13.71875 7.648438 L 13.597656 7.566406 C 13.597656 7.566406 13.511719 7.542969 13.492188 7.527344 L 13.429688 7.484375 L 13.414062 7.449219 L 13.472656 7.382812 C 13.472656 7.382812 13.476562 7.378906 13.476562 7.378906 L 13.484375 7.296875 C 13.484375 7.292969 13.484375 7.292969 13.480469 7.289062 L 13.441406 7.238281 C 13.441406 7.238281 13.441406 7.234375 13.441406 7.234375 L 13.316406 7.175781 L 13.207031 6.945312 C 13.207031 6.941406 13.203125 6.941406 13.203125 6.941406 L 13.042969 6.847656 L 12.945312 6.757812 L 12.917969 6.703125 L 12.863281 6.636719 C 12.863281 6.632812 12.859375 6.632812 12.855469 6.632812 L 12.609375 6.65625 C 12.605469 6.65625 12.601562 6.660156 12.601562 6.664062 L 12.617188 6.855469 L 12.578125 6.945312 L 12.542969 7.011719 L 12.488281 7.078125 L 12.359375 7.183594 L 12.007812 7.332031 L 11.722656 7.5 L 11.386719 7.6875 L 11.109375 7.746094 L 10.777344 7.859375 L 10.605469 7.972656 L 10.511719 8.027344 L 10.1875 7.8125 L 9.878906 7.597656 L 9.742188 7.542969 C 9.742188 7.542969 9.738281 7.542969 9.734375 7.546875 L 9.667969 7.613281 L 9.578125 7.679688 C 9.574219 7.683594 9.546875 7.695312 9.503906 7.734375 C 9.449219 7.777344 9.429688 7.800781 9.429688 7.800781 C 9.425781 7.804688 9.425781 7.804688 9.425781 7.804688 L 9.425781 8.351562 L 9.25 8.429688 C 9.246094 8.429688 9.246094 8.433594 9.246094 8.4375 L 9.253906 8.820312 C 9.253906 8.824219 9.253906 8.824219 9.253906 8.824219 L 9.394531 9.046875 L 9.34375 9.117188 L 9.269531 9.175781 L 9.148438 9.242188 C 9.148438 9.242188 9.144531 9.246094 9.148438 9.25 L 9.207031 9.550781 L 9.097656 9.679688 L 8.855469 9.613281 L 8.742188 9.597656 L 8.558594 9.570312 C 8.554688 9.570312 7.988281 9.585938 7.757812 9.632812 C 7.527344 9.675781 7.367188 9.753906 7.367188 9.753906 L 7.15625 9.824219 C 7.152344 9.824219 7.152344 9.824219 7.152344 9.824219 C 7.152344 9.828125 7.152344 9.832031 7.152344 9.832031 L 7.199219 9.976562 C 7.199219 9.976562 7.203125 9.980469 7.207031 9.980469 L 7.433594 9.914062 L 7.816406 9.824219 L 7.910156 9.785156 L 8.039062 9.773438 L 8.132812 9.75 L 8.230469 9.75 L 8.320312 9.84375 L 8.222656 9.914062 L 8.128906 9.957031 L 8.050781 9.996094 C 8.050781 9.996094 8.046875 9.996094 8.046875 9.996094 L 7.988281 10.058594 L 7.949219 10.125 L 7.921875 10.171875 C 7.917969 10.1875 7.84375 10.472656 7.839844 10.507812 C 7.835938 10.546875 7.851562 10.640625 7.851562 10.640625 L 7.847656 10.714844 L 7.835938 10.746094 L 7.777344 10.820312 L 7.753906 10.855469 L 7.722656 10.871094 L 7.6875 10.898438 L 7.601562 10.921875 L 7.5625 10.902344 L 7.542969 10.871094 L 7.53125 10.828125 L 7.527344 10.78125 L 7.53125 10.730469 L 7.5 10.644531 C 7.5 10.640625 7.5 10.640625 7.496094 10.640625 L 7.464844 10.625 C 7.460938 10.625 7.460938 10.625 7.457031 10.625 L 7.40625 10.632812 C 7.40625 10.632812 7.402344 10.632812 7.402344 10.632812 L 7.371094 10.65625 C 7.367188 10.65625 7.367188 10.65625 7.367188 10.660156 L 7.335938 10.765625 L 7.3125 10.839844 L 7.304688 10.871094 L 7.226562 10.914062 L 7.171875 10.945312 L 7.128906 10.976562 L 7.066406 11.023438 C 7.066406 11.023438 7.066406 11.023438 7.066406 11.027344 L 7.046875 11.105469 L 7.03125 11.191406 L 7.003906 11.269531 L 6.96875 11.34375 L 6.90625 11.527344 L 6.84375 11.667969 L 6.824219 11.761719 L 6.824219 11.78125 L 6.789062 11.820312 L 6.726562 11.875 L 6.683594 11.902344 L 6.625 11.925781 L 6.558594 11.945312 L 6.5 11.960938 L 6.351562 11.917969 L 6.175781 11.878906 L 6.027344 11.855469 L 5.789062 11.882812 L 5.644531 11.835938 L 5.507812 11.835938 L 5.1875 11.8125 L 4.992188 11.78125 L 4.972656 11.777344 L 4.910156 11.769531 L 4.890625 11.765625 L 4.882812 11.765625 L 4.824219 11.757812 L 4.570312 11.65625 C 4.570312 11.65625 4.566406 11.65625 4.566406 11.65625 L 4.398438 11.652344 L 4.273438 11.675781 L 4.171875 11.722656 L 4.085938 11.765625 L 4.085938 11.769531 L 4.058594 11.78125 L 4.054688 11.785156 L 4 11.8125 L 3.878906 11.898438 L 3.773438 12.011719 L 3.703125 12.097656 C 3.703125 12.097656 3.703125 12.097656 3.703125 12.101562 L 3.679688 12.152344 L 3.667969 12.199219 L 3.652344 12.257812 L 3.609375 12.460938 L 3.609375 12.527344 L 3.582031 12.605469 L 3.542969 12.636719 L 3.5 12.695312 L 3.402344 12.761719 C 3.398438 12.761719 3.398438 12.765625 3.398438 12.769531 L 3.40625 12.9375 L 3.46875 13.042969 C 3.46875 13.042969 3.472656 13.046875 3.472656 13.046875 L 3.617188 13.117188 L 3.882812 13.25 L 3.972656 13.308594 L 4.042969 13.359375 L 4.078125 13.398438 C 4.101562 13.414062 4.136719 13.449219 4.140625 13.453125 C 4.148438 13.46875 4.183594 13.496094 4.1875 13.5 L 4.210938 13.523438 L 4.363281 13.796875 L 4.429688 13.910156 C 4.429688 13.910156 4.429688 13.910156 4.433594 13.910156 L 4.507812 13.976562 C 4.511719 13.984375 4.53125 14.007812 4.546875 14.011719 C 4.554688 14.011719 4.617188 14.035156 4.617188 14.035156 L 4.675781 14.0625 L 4.796875 14.105469 L 4.839844 14.125 L 4.976562 14.148438 L 5.121094 14.136719 L 5.21875 14.113281 L 5.292969 14.09375 L 5.335938 14.082031 L 5.476562 14.238281 L 5.5625 14.316406 L 5.59375 14.417969 L 5.550781 14.472656 L 5.460938 14.535156 C 5.457031 14.535156 5.457031 14.535156 5.457031 14.539062 L 5.449219 14.578125 C 5.449219 14.578125 5.449219 14.582031 5.449219 14.582031 L 5.484375 14.648438 L 5.507812 14.695312 L 5.523438 14.734375 L 5.527344 14.765625 L 5.523438 14.796875 L 5.5 14.835938 L 5.476562 14.878906 C 5.476562 14.882812 5.476562 14.882812 5.476562 14.886719 L 5.476562 14.902344 C 5.476562 14.902344 5.476562 14.902344 5.476562 14.90625 L 5.589844 15.136719 L 5.589844 15.210938 L 5.605469 15.269531 L 5.605469 15.308594 L 5.714844 15.816406 L 5.71875 15.921875 C 5.71875 15.925781 5.71875 15.925781 5.722656 15.925781 L 5.972656 16.199219 C 5.972656 16.199219 5.972656 16.199219 5.972656 16.203125 L 6.222656 16.363281 L 6.433594 16.480469 L 6.585938 16.542969 L 6.636719 16.589844 L 6.667969 16.664062 L 6.65625 16.734375 L 6.632812 16.867188 L 6.507812 17.160156 L 6.453125 17.273438 L 6.390625 17.378906 L 6.390625 17.382812 L 6.382812 17.394531 L 6.378906 17.398438 L 6.304688 17.503906 C 6.304688 17.503906 6.304688 17.507812 6.304688 17.507812 L 6.277344 17.652344 L 6.273438 17.734375 L 6.265625 17.816406 C 6.265625 17.820312 6.265625 17.820312 6.265625 17.820312 L 6.296875 17.890625 C 6.300781 17.894531 6.304688 17.910156 6.300781 17.910156 C 6.292969 17.917969 6.242188 17.941406 6.222656 17.953125 L 6.164062 17.9375 L 6.097656 17.9375 L 6.023438 17.953125 L 5.902344 17.984375 L 5.820312 18.007812 L 5.714844 18.03125 C 5.714844 18.03125 5.714844 18.035156 5.710938 18.035156 L 5.671875 18.082031 L 5.34375 18.644531 L 5.230469 18.753906 L 5.011719 18.992188 L 4.890625 19.125 L 4.683594 19.261719 C 4.683594 19.261719 4.679688 19.265625 4.679688 19.265625 L 4.617188 19.375 L 4.5625 19.480469 C 4.5625 19.480469 4.5625 19.480469 4.5625 19.484375 L 4.507812 19.75 L 4.476562 19.988281 L 4.484375 20.253906 L 4.546875 20.363281 C 4.546875 20.363281 4.546875 20.363281 4.546875 20.367188 L 4.636719 20.449219 L 4.691406 20.785156 C 4.691406 20.789062 4.695312 20.789062 4.695312 20.792969 L 4.769531 20.851562 L 4.878906 20.890625 L 5.105469 21.03125 L 5.222656 21.113281 L 5.371094 21.253906 C 5.371094 21.253906 5.371094 21.253906 5.375 21.253906 L 5.488281 21.308594 L 5.558594 21.355469 C 5.5625 21.359375 5.566406 21.359375 5.566406 21.355469 L 5.734375 21.238281 L 5.886719 21.140625 L 6.007812 21.082031 L 6.132812 21.066406 C 6.132812 21.066406 6.136719 21.066406 6.136719 21.066406 L 6.210938 21.023438 L 6.257812 20.988281 C 6.257812 20.988281 6.257812 20.988281 6.261719 20.984375 L 6.335938 20.886719 L 6.394531 20.832031 L 6.46875 20.8125 L 6.820312 20.757812 L 6.96875 20.714844 L 7.085938 20.679688 L 7.15625 20.644531 L 7.1875 20.636719 L 7.257812 20.632812 C 7.257812 20.632812 7.261719 20.632812 7.261719 20.632812 L 7.324219 20.613281 L 7.355469 20.597656 C 7.359375 20.597656 7.359375 20.597656 7.359375 20.59375 C 7.371094 20.5625 7.382812 20.523438 7.386719 20.519531 C 7.390625 20.511719 7.40625 20.476562 7.410156 20.464844 L 7.484375 20.382812 L 7.539062 20.367188 L 7.566406 20.375 L 7.578125 20.398438 L 7.574219 20.433594 L 7.574219 20.472656 L 7.578125 20.527344 C 7.578125 20.527344 7.582031 20.53125 7.582031 20.53125 C 7.585938 20.53125 7.585938 20.535156 7.585938 20.53125 L 7.613281 20.523438 L 7.679688 20.480469 L 7.753906 20.433594 L 7.78125 20.410156 C 7.78125 20.410156 7.78125 20.40625 7.78125 20.40625 L 7.785156 20.394531 C 7.785156 20.394531 7.785156 20.394531 7.785156 20.390625 L 7.792969 20.351562 L 7.792969 20.285156 L 7.820312 20.253906 L 7.847656 20.246094 L 7.902344 20.253906 L 7.949219 20.289062 L 8.015625 20.296875 L 8.039062 20.289062 L 8.058594 20.269531 C 8.058594 20.269531 8.0625 20.265625 8.0625 20.261719 L 8.070312 20.226562 L 8.089844 20.191406 L 8.105469 20.179688 L 8.121094 20.1875 L 8.144531 20.203125 L 8.171875 20.210938 C 8.171875 20.210938 8.226562 20.230469 8.242188 20.199219 C 8.257812 20.175781 8.269531 20.101562 8.269531 20.089844 L 8.28125 20.070312 L 8.332031 20.058594 L 8.402344 20.109375 L 8.738281 20.367188 L 8.820312 20.40625 L 8.996094 20.507812 L 9.046875 20.550781 C 9.046875 20.550781 9.050781 20.550781 9.050781 20.550781 L 9.152344 20.582031 C 9.152344 20.582031 9.152344 20.582031 9.15625 20.582031 L 9.226562 20.578125 L 9.410156 20.535156 L 9.472656 20.5 C 9.472656 20.5 9.476562 20.5 9.476562 20.5 L 9.492188 20.472656 C 9.492188 20.472656 9.492188 20.46875 9.492188 20.46875 L 9.5 20.4375 L 9.503906 20.375 L 9.503906 20.332031 L 9.519531 20.28125 C 9.519531 20.28125 9.519531 20.277344 9.519531 20.277344 L 9.515625 20.214844 C 9.515625 20.214844 9.515625 20.214844 9.511719 20.210938 L 9.476562 20.15625 C 9.476562 20.15625 9.472656 20.15625 9.472656 20.15625 L 9.410156 20.121094 L 9.351562 19.875 L 9.320312 19.777344 L 9.363281 19.699219 L 9.53125 19.457031 L 9.707031 19.242188 L 9.789062 19.191406 L 9.871094 19.125 C 9.871094 19.125 9.875 19.125 9.875 19.125 L 9.921875 19.039062 L 9.964844 19.019531 L 10.019531 19.019531 L 10.089844 19.035156 L 10.183594 19.0625 L 10.257812 19.066406 L 10.34375 19.039062 L 10.410156 19.019531 L 10.636719 18.992188 L 10.765625 18.988281 C 10.765625 18.988281 10.765625 18.988281 10.769531 18.988281 L 10.882812 18.957031 L 10.957031 18.925781 L 11.035156 18.921875 L 11.082031 18.949219 L 11.207031 19.0625 L 11.304688 19.097656 L 11.390625 19.144531 L 11.425781 19.167969 C 11.453125 19.191406 11.480469 19.214844 11.480469 19.222656 C 11.484375 19.230469 11.515625 19.277344 11.523438 19.292969 C 11.523438 19.292969 11.523438 19.296875 11.523438 19.296875 L 11.570312 19.328125 C 11.570312 19.328125 11.574219 19.332031 11.578125 19.332031 L 11.664062 19.332031 C 11.664062 19.332031 11.664062 19.332031 11.667969 19.328125 C 11.679688 19.320312 11.722656 19.289062 11.726562 19.28125 C 11.730469 19.273438 11.753906 19.234375 11.753906 19.234375 L 11.765625 19.171875 L 11.789062 19.132812 L 12.003906 19.003906 C 12.007812 19.003906 12.007812 19 12.007812 19 L 12.046875 18.914062 L 12.066406 18.789062 L 12.136719 18.675781 C 12.148438 18.664062 12.1875 18.636719 12.191406 18.628906 C 12.199219 18.621094 12.207031 18.453125 12.207031 18.441406 C 12.207031 18.414062 12.164062 18.296875 12.15625 18.285156 C 12.15625 18.285156 12.15625 18.28125 12.15625 18.28125 L 11.929688 18.054688 C 11.9375 17.972656 11.949219 17.878906 11.945312 17.871094 C 11.941406 17.863281 11.921875 17.789062 11.917969 17.78125 C 11.921875 17.742188 11.933594 17.699219 11.941406 17.691406 C 11.957031 17.6875 11.96875 17.683594 11.976562 17.683594 C 11.980469 17.683594 12 17.6875 12.019531 17.691406 C 12.023438 17.691406 12.054688 17.695312 12.066406 17.691406 C 12.082031 17.6875 12.101562 17.679688 12.101562 17.679688 C 12.105469 17.679688 12.109375 17.675781 12.109375 17.671875 L 12.117188 17.621094 L 12.148438 17.570312 L 12.195312 17.558594 L 12.277344 17.53125 L 12.304688 17.523438 C 12.3125 17.519531 12.425781 17.460938 12.441406 17.40625 C 12.445312 17.398438 12.445312 17.390625 12.449219 17.378906 C 12.449219 17.371094 12.453125 17.371094 12.453125 17.363281 C 12.464844 17.308594 12.480469 17.238281 12.480469 17.226562 L 12.523438 17.144531 L 12.589844 17.089844 L 12.632812 17.070312 L 12.839844 16.902344 C 12.839844 16.902344 12.84375 16.902344 12.84375 16.902344 L 12.863281 16.847656 C 12.863281 16.847656 12.863281 16.84375 12.863281 16.84375 L 12.882812 16.5625 L 12.933594 16.476562 L 12.980469 16.421875 L 13.011719 16.394531 L 13.035156 16.386719 C 13.039062 16.386719 13.039062 16.378906 13.039062 16.378906 L 13.039062 16.304688 L 13.058594 16.261719 C 13.0625 16.257812 13.074219 16.246094 13.078125 16.234375 C 13.078125 16.222656 13.078125 16.183594 13.078125 16.183594 L 13.085938 16.15625 L 13.097656 16.074219 L 13.175781 15.945312 L 13.234375 15.914062 C 13.234375 15.914062 13.234375 15.914062 13.234375 15.910156 L 13.25 15.894531 L 13.285156 15.855469 C 13.300781 15.847656 13.324219 15.835938 13.328125 15.835938 C 13.332031 15.835938 13.339844 15.835938 13.351562 15.832031 C 13.386719 15.828125 13.4375 15.824219 13.441406 15.824219 L 13.511719 15.785156 L 13.546875 15.789062 L 13.585938 15.792969 L 13.625 15.800781 L 13.714844 15.808594 C 13.71875 15.808594 13.722656 15.808594 13.722656 15.804688 L 13.75 15.773438 L 13.785156 15.753906 L 13.796875 15.75 L 13.816406 15.738281 L 13.882812 15.765625 C 13.886719 15.765625 13.90625 15.773438 13.921875 15.769531 C 13.9375 15.765625 13.957031 15.75 13.960938 15.746094 C 13.96875 15.730469 13.980469 15.71875 13.984375 15.714844 C 13.988281 15.714844 14.015625 15.714844 14.042969 15.71875 L 14.070312 15.75 C 14.070312 15.75 14.074219 15.75 14.074219 15.75 L 14.105469 15.765625 C 14.15625 15.78125 14.230469 15.816406 14.238281 15.835938 C 14.242188 15.855469 14.25 15.878906 14.257812 15.890625 C 14.265625 15.90625 14.269531 15.914062 14.269531 15.914062 C 14.269531 15.914062 14.273438 15.917969 14.273438 15.917969 L 14.28125 15.921875 L 14.308594 15.941406 L 14.363281 15.988281 C 14.367188 15.992188 14.371094 15.992188 14.371094 15.992188 L 14.445312 15.972656 L 14.46875 15.976562 L 14.472656 15.996094 L 14.460938 16.039062 L 14.460938 16.082031 C 14.460938 16.085938 14.460938 16.085938 14.460938 16.085938 L 14.46875 16.101562 C 14.46875 16.101562 14.472656 16.105469 14.472656 16.105469 L 14.496094 16.117188 C 14.496094 16.117188 14.5 16.117188 14.5 16.117188 L 14.53125 16.117188 L 14.546875 16.121094 L 14.558594 16.140625 L 14.570312 16.167969 L 14.585938 16.199219 C 14.585938 16.199219 14.585938 16.199219 14.589844 16.199219 C 14.597656 16.210938 14.65625 16.253906 14.667969 16.257812 C 14.679688 16.261719 14.726562 16.261719 14.738281 16.261719 C 14.738281 16.261719 14.742188 16.261719 14.742188 16.261719 C 14.753906 16.257812 14.777344 16.253906 14.78125 16.257812 C 14.792969 16.269531 14.835938 16.3125 14.839844 16.316406 L 14.867188 16.324219 L 14.882812 16.328125 C 14.886719 16.328125 14.886719 16.328125 14.886719 16.328125 L 14.949219 16.308594 L 14.964844 16.320312 L 15.003906 16.355469 C 15.003906 16.355469 15.007812 16.359375 15.007812 16.359375 C 15.007812 16.359375 15.039062 16.367188 15.054688 16.367188 C 15.066406 16.367188 15.082031 16.371094 15.089844 16.371094 C 15.09375 16.382812 15.105469 16.410156 15.105469 16.421875 C 15.105469 16.429688 15.105469 16.433594 15.105469 16.4375 C 15.105469 16.460938 15.105469 16.476562 15.109375 16.484375 C 15.113281 16.492188 15.136719 16.503906 15.144531 16.507812 C 15.144531 16.507812 15.148438 16.507812 15.148438 16.507812 C 15.160156 16.507812 15.183594 16.511719 15.1875 16.511719 C 15.195312 16.515625 15.203125 16.519531 15.203125 16.523438 C 15.203125 16.527344 15.203125 16.542969 15.203125 16.5625 C 15.203125 16.574219 15.199219 16.582031 15.199219 16.589844 C 15.199219 16.589844 15.203125 16.597656 15.203125 16.605469 C 15.210938 16.613281 15.214844 16.628906 15.214844 16.632812 C 15.214844 16.640625 15.226562 16.65625 15.230469 16.664062 L 15.222656 16.6875 L 15.222656 16.695312 L 15.207031 16.722656 L 15.203125 16.734375 C 15.203125 16.785156 15.207031 16.871094 15.207031 16.878906 C 15.207031 16.882812 15.195312 16.898438 15.179688 16.914062 L 15.148438 16.914062 C 15.144531 16.914062 15.144531 16.914062 15.140625 16.917969 C 15.140625 16.917969 15.089844 16.96875 15.113281 17.035156 C 15.132812 17.085938 15.136719 17.113281 15.136719 17.121094 L 15.089844 17.164062 C 15.085938 17.164062 15.085938 17.164062 15.085938 17.167969 L 15.082031 17.28125 C 15.066406 17.308594 15.042969 17.347656 15.042969 17.359375 C 15.042969 17.359375 15.042969 17.359375 15.042969 17.363281 C 15.042969 17.363281 15.042969 17.371094 15.042969 17.375 C 15.042969 17.375 15.042969 17.378906 15.042969 17.378906 C 15.042969 17.394531 15.042969 17.417969 15.046875 17.417969 L 15.0625 17.484375 C 15.0625 17.496094 15.0625 17.515625 15.0625 17.519531 C 15.0625 17.519531 15.0625 17.519531 15.058594 17.523438 C 15.050781 17.527344 15.042969 17.53125 15.027344 17.566406 L 15 17.613281 C 15 17.617188 15 17.617188 15 17.621094 L 15.019531 17.65625 C 15.019531 17.660156 15.023438 17.660156 15.027344 17.660156 C 15.027344 17.660156 15.054688 17.671875 15.054688 17.691406 C 15.050781 17.71875 15.035156 17.734375 15.035156 17.738281 L 15.019531 17.761719 L 14.996094 17.789062 C 14.992188 17.792969 14.992188 17.796875 14.992188 17.796875 L 15.007812 17.839844 C 15.007812 17.84375 15.011719 17.84375 15.011719 17.847656 L 15.035156 17.859375 C 15.035156 17.859375 15.039062 17.859375 15.039062 17.859375 L 15.113281 17.867188 L 15.195312 17.914062 L 15.214844 17.921875 C 15.214844 17.921875 15.214844 17.921875 15.21875 17.921875 C 15.21875 17.921875 15.234375 17.925781 15.246094 17.925781 C 15.257812 17.925781 15.269531 17.921875 15.28125 17.917969 C 15.285156 17.917969 15.289062 17.917969 15.292969 17.917969 C 15.300781 17.914062 15.355469 17.882812 15.363281 17.878906 L 15.382812 17.863281 L 15.421875 17.859375 C 15.421875 17.859375 15.425781 17.859375 15.425781 17.859375 L 15.476562 17.824219 L 15.53125 17.824219 L 15.566406 17.828125 L 15.625 17.820312 C 15.628906 17.820312 15.628906 17.820312 15.628906 17.820312 L 15.65625 17.789062 C 15.664062 17.789062 15.671875 17.785156 15.699219 17.777344 C 15.734375 17.765625 15.746094 17.753906 15.746094 17.75 L 15.808594 17.691406 L 15.835938 17.699219 L 15.851562 17.734375 C 15.851562 17.738281 15.855469 17.738281 15.855469 17.738281 L 15.890625 17.753906 L 15.921875 17.773438 C 15.917969 17.789062 15.90625 17.84375 15.898438 17.867188 C 15.886719 17.898438 15.871094 17.945312 15.871094 17.945312 C 15.871094 17.945312 15.871094 17.949219 15.871094 17.949219 L 15.871094 17.992188 C 15.878906 18.039062 15.886719 18.117188 15.886719 18.132812 C 15.878906 18.152344 15.867188 18.183594 15.863281 18.1875 C 15.859375 18.195312 15.835938 18.234375 15.835938 18.234375 L 15.808594 18.28125 L 15.792969 18.3125 C 15.792969 18.320312 15.78125 18.378906 15.792969 18.402344 C 15.800781 18.417969 15.816406 18.453125 15.820312 18.464844 L 15.789062 18.664062 C 15.789062 18.667969 15.792969 18.761719 15.804688 18.789062 C 15.808594 18.808594 15.808594 18.839844 15.808594 18.847656 L 15.78125 18.878906 C 15.773438 18.882812 15.746094 18.894531 15.742188 18.902344 C 15.738281 18.90625 15.726562 18.921875 15.71875 18.929688 C 15.71875 18.929688 15.714844 18.933594 15.714844 18.9375 C 15.714844 18.941406 15.699219 19.054688 15.726562 19.109375 C 15.753906 19.160156 15.769531 19.183594 15.773438 19.191406 L 15.78125 19.230469 L 15.773438 19.265625 L 15.757812 19.433594 L 15.753906 19.480469 L 15.738281 19.566406 L 15.726562 19.617188 C 15.726562 19.621094 15.726562 19.621094 15.726562 19.621094 L 15.742188 19.648438 L 15.746094 19.675781 L 15.746094 19.804688 L 15.71875 19.863281 L 15.636719 20.109375 L 15.609375 20.253906 L 15.589844 20.324219 C 15.589844 20.324219 15.589844 20.328125 15.589844 20.328125 L 15.613281 20.535156 L 15.628906 20.59375 L 15.632812 20.632812 L 15.632812 20.679688 L 15.652344 20.738281 L 15.65625 21.03125 C 15.65625 21.03125 15.65625 21.03125 15.65625 21.035156 L 15.714844 21.109375 L 15.734375 21.136719 C 15.738281 21.15625 15.746094 21.3125 15.761719 21.355469 C 15.777344 21.398438 15.808594 21.441406 15.8125 21.441406 C 15.839844 21.464844 15.863281 21.488281 15.867188 21.492188 C 15.867188 21.496094 15.867188 21.503906 15.871094 21.515625 C 15.875 21.546875 15.886719 21.601562 15.894531 21.632812 C 15.902344 21.671875 15.929688 21.699219 15.941406 21.707031 L 15.945312 21.710938 C 15.957031 21.722656 15.984375 21.742188 15.984375 21.742188 L 16.027344 21.769531 C 16.03125 21.78125 16.070312 21.832031 16.074219 21.851562 C 16.082031 21.871094 16.101562 21.902344 16.101562 21.90625 L 16.128906 21.941406 C 16.128906 21.941406 16.132812 21.945312 16.132812 21.945312 C 16.136719 21.945312 16.152344 21.957031 16.160156 21.96875 C 16.167969 21.980469 16.179688 22.015625 16.183594 22.023438 L 16.1875 22.070312 C 16.1875 22.070312 16.191406 22.097656 16.195312 22.109375 C 16.195312 22.121094 16.207031 22.144531 16.207031 22.148438 L 16.230469 22.175781 L 16.261719 22.203125 L 16.28125 22.21875 C 16.28125 22.234375 16.285156 22.289062 16.292969 22.304688 C 16.296875 22.320312 16.355469 22.367188 16.367188 22.378906 C 16.386719 22.382812 16.417969 22.386719 16.425781 22.386719 C 16.429688 22.382812 16.464844 22.371094 16.464844 22.371094 L 16.496094 22.363281 L 16.519531 22.363281 L 16.546875 22.378906 L 16.5625 22.386719 C 16.5625 22.386719 16.566406 22.386719 16.566406 22.386719 L 16.628906 22.394531 L 16.65625 22.398438 C 16.65625 22.398438 16.65625 22.398438 16.660156 22.398438 L 16.695312 22.390625 L 16.753906 22.375 L 16.792969 22.355469 L 16.84375 22.34375 L 16.875 22.328125 L 16.921875 22.316406 L 16.960938 22.300781 C 16.960938 22.300781 16.964844 22.300781 16.964844 22.296875 L 16.988281 22.273438 L 17.019531 22.226562 L 17.039062 22.210938 L 17.09375 22.199219 L 17.117188 22.191406 C 17.117188 22.191406 17.117188 22.1875 17.121094 22.183594 L 17.136719 22.140625 L 17.160156 22.097656 C 17.1875 22.0625 17.261719 21.964844 17.277344 21.953125 C 17.296875 21.9375 17.359375 21.921875 17.363281 21.921875 L 17.472656 21.863281 L 17.507812 21.832031 L 17.535156 21.796875 L 17.582031 21.753906 L 17.648438 21.707031 L 17.679688 21.679688 L 17.75 21.660156 C 17.753906 21.660156 17.8125 21.65625 17.832031 21.648438 C 17.851562 21.640625 17.871094 21.625 17.875 21.625 C 17.875 21.625 17.875 21.625 17.875 21.621094 L 17.875 21.550781 L 17.890625 21.523438 L 17.925781 21.519531 L 17.980469 21.519531 C 17.980469 21.519531 17.980469 21.519531 17.984375 21.519531 L 18.023438 21.488281 C 18.023438 21.488281 18.023438 21.488281 18.027344 21.484375 L 18.085938 21.410156 L 18.164062 21.351562 L 18.199219 21.339844 C 18.203125 21.339844 18.203125 21.339844 18.203125 21.339844 L 18.226562 21.296875 L 18.257812 21.253906 L 18.269531 21.246094 L 18.308594 21.25 L 18.371094 21.246094 C 18.371094 21.246094 18.375 21.246094 18.375 21.242188 L 18.441406 21.15625 C 18.457031 21.152344 18.523438 21.136719 18.535156 21.128906 C 18.550781 21.125 18.609375 21.074219 18.621094 21.066406 L 18.660156 21.015625 L 18.765625 21.003906 C 18.765625 21.003906 18.769531 21.003906 18.769531 21.003906 C 18.777344 21 18.808594 20.988281 18.820312 20.988281 C 18.828125 20.984375 18.859375 20.984375 18.878906 20.984375 C 18.886719 20.992188 18.90625 21.007812 18.910156 21.015625 C 18.921875 21.03125 18.941406 21.035156 18.945312 21.035156 C 18.945312 21.035156 18.949219 21.035156 18.953125 21.03125 C 18.953125 21.03125 18.960938 21.03125 18.976562 21.027344 C 19.003906 21.023438 19.027344 21.023438 19.035156 21.023438 L 19.066406 21.042969 L 19.097656 21.054688 C 19.101562 21.058594 19.121094 21.058594 19.128906 21.058594 C 19.136719 21.054688 19.160156 21.03125 19.171875 21.019531 L 19.222656 20.996094 L 19.273438 20.976562 L 19.320312 20.976562 C 19.324219 20.976562 19.324219 20.976562 19.324219 20.972656 L 19.371094 20.941406 L 19.421875 20.941406 L 19.453125 20.9375 C 19.453125 20.9375 19.46875 20.941406 19.476562 20.9375 C 19.488281 20.933594 19.496094 20.917969 19.503906 20.910156 L 19.523438 20.882812 L 19.5625 20.851562 L 19.609375 20.828125 C 19.613281 20.828125 19.613281 20.824219 19.617188 20.820312 L 19.625 20.746094 L 19.628906 20.722656 L 19.65625 20.691406 L 19.675781 20.667969 C 19.675781 20.667969 19.675781 20.664062 19.675781 20.664062 L 19.683594 20.617188 L 19.679688 20.5625 L 19.683594 20.539062 L 19.695312 20.515625 L 19.8125 20.4375 L 19.839844 20.410156 C 19.839844 20.410156 19.839844 20.410156 19.84375 20.40625 L 19.855469 20.378906 L 19.859375 20.367188 L 19.882812 20.355469 L 19.921875 20.339844 L 19.945312 20.324219 C 19.949219 20.324219 19.949219 20.324219 19.949219 20.324219 L 19.960938 20.292969 L 19.96875 20.257812 L 19.976562 20.242188 L 20.007812 20.207031 L 20.054688 20.1875 L 20.097656 20.160156 L 20.140625 20.117188 C 20.140625 20.117188 20.140625 20.113281 20.140625 20.109375 L 20.140625 20.023438 C 20.144531 20.019531 20.175781 19.996094 20.203125 19.984375 C 20.207031 19.984375 20.207031 19.980469 20.207031 19.976562 L 20.214844 19.921875 L 20.238281 19.878906 L 20.261719 19.863281 L 20.292969 19.855469 L 20.328125 19.855469 L 20.371094 19.863281 L 20.410156 19.867188 L 20.441406 19.871094 L 20.460938 19.871094 C 20.464844 19.871094 20.464844 19.871094 20.46875 19.871094 L 20.511719 19.835938 L 20.535156 19.828125 L 20.574219 19.84375 L 20.648438 19.859375 C 20.648438 19.859375 20.648438 19.859375 20.652344 19.859375 L 20.691406 19.84375 L 20.722656 19.808594 L 20.753906 19.800781 L 20.78125 19.800781 C 20.78125 19.800781 20.785156 19.800781 20.785156 19.800781 L 20.8125 19.777344 C 20.816406 19.773438 20.816406 19.773438 20.816406 19.773438 L 20.824219 19.667969 L 20.832031 19.648438 L 20.824219 19.609375 L 20.824219 19.585938 L 20.84375 19.554688 L 20.859375 19.515625 L 20.878906 19.488281 L 20.902344 19.476562 L 20.933594 19.476562 C 20.933594 19.476562 20.9375 19.476562 20.9375 19.472656 L 20.980469 19.425781 L 21 19.414062 L 21.039062 19.414062 L 21.0625 19.410156 C 21.0625 19.410156 21.0625 19.40625 21.066406 19.40625 L 21.082031 19.382812 L 21.089844 19.363281 L 21.128906 19.339844 L 21.191406 19.328125 C 21.191406 19.328125 21.195312 19.328125 21.195312 19.324219 C 21.195312 19.324219 21.199219 19.328125 21.207031 19.332031 C 21.234375 19.355469 21.257812 19.363281 21.261719 19.363281 L 21.277344 19.371094 C 21.28125 19.371094 21.28125 19.371094 21.285156 19.371094 L 21.3125 19.363281 L 21.335938 19.347656 L 21.363281 19.335938 L 21.382812 19.332031 L 21.410156 19.339844 L 21.441406 19.339844 C 21.445312 19.339844 21.445312 19.339844 21.449219 19.339844 L 21.480469 19.285156 L 21.511719 19.277344 L 21.539062 19.28125 L 21.5625 19.289062 C 21.566406 19.289062 21.582031 19.292969 21.589844 19.289062 C 21.597656 19.285156 21.613281 19.273438 21.617188 19.269531 L 21.640625 19.257812 L 21.660156 19.257812 C 21.660156 19.257812 21.671875 19.25 21.683594 19.253906 C 21.695312 19.257812 21.722656 19.257812 21.722656 19.257812 C 21.722656 19.257812 21.742188 19.257812 21.75 19.257812 C 21.757812 19.253906 21.828125 19.21875 21.84375 19.210938 L 21.875 19.183594 L 21.898438 19.175781 L 21.933594 19.1875 L 21.96875 19.203125 L 21.996094 19.207031 L 22.050781 19.207031 L 22.09375 19.214844 L 22.117188 19.226562 L 22.144531 19.257812 L 22.164062 19.273438 L 22.183594 19.300781 L 22.214844 19.332031 L 22.238281 19.347656 C 22.238281 19.347656 22.242188 19.347656 22.242188 19.347656 L 22.3125 19.367188 C 22.316406 19.367188 22.316406 19.367188 22.316406 19.367188 L 22.382812 19.351562 L 22.484375 19.3125 L 22.519531 19.300781 L 22.574219 19.300781 L 22.640625 19.328125 L 22.667969 19.347656 L 22.746094 19.609375 L 22.757812 19.648438 L 22.738281 19.667969 L 22.6875 19.6875 C 22.6875 19.6875 22.6875 19.6875 22.683594 19.6875 L 22.640625 19.71875 L 22.605469 19.726562 L 22.53125 19.726562 C 22.527344 19.726562 22.523438 19.730469 22.523438 19.730469 L 22.5 19.835938 C 22.5 19.835938 22.5 19.839844 22.503906 19.84375 L 22.570312 19.898438 C 22.570312 19.898438 22.574219 19.898438 22.574219 19.898438 L 22.597656 19.90625 L 22.640625 20.003906 C 22.640625 20.003906 22.644531 20.003906 22.644531 20.003906 L 22.6875 20.03125 C 22.6875 20.03125 22.6875 20.035156 22.691406 20.03125 L 22.777344 20.023438 L 22.839844 20.015625 C 22.839844 20.015625 22.839844 20.015625 22.839844 20.011719 L 23.226562 19.738281 L 23.308594 19.664062 L 23.328125 19.667969 L 23.355469 19.6875 C 23.355469 19.6875 23.359375 19.6875 23.359375 19.6875 L 23.398438 19.695312 L 23.429688 19.699219 C 23.429688 19.699219 23.429688 19.699219 23.433594 19.699219 L 23.664062 19.578125 L 23.855469 19.515625 L 23.914062 19.5 C 23.917969 19.5 23.917969 19.496094 23.917969 19.496094 L 24.046875 19.289062 L 24.164062 19.246094 L 24.253906 19.21875 C 24.253906 19.21875 24.257812 19.21875 24.257812 19.21875 L 24.304688 19.1875 L 24.390625 19.171875 C 24.402344 19.179688 24.453125 19.203125 24.460938 19.207031 C 24.472656 19.210938 24.527344 19.234375 24.53125 19.234375 L 24.59375 19.25 L 24.71875 19.234375 L 24.800781 19.21875 L 24.894531 19.214844 L 24.957031 19.269531 L 25 19.3125 L 25.042969 19.339844 L 25.09375 19.359375 L 25.164062 19.375 C 25.167969 19.375 25.167969 19.375 25.171875 19.375 L 25.25 19.3125 L 25.304688 19.304688 L 25.355469 19.3125 L 25.429688 19.3125 C 25.433594 19.3125 25.433594 19.3125 25.433594 19.3125 L 25.472656 19.285156 L 25.535156 19.285156 L 25.601562 19.300781 L 25.878906 19.453125 L 25.921875 19.550781 L 25.953125 19.632812 L 25.984375 19.710938 C 25.984375 19.714844 25.988281 19.714844 25.992188 19.71875 C 25.992188 19.71875 25.996094 19.71875 25.996094 19.714844 L 26.148438 19.59375 L 26.261719 19.496094 L 26.375 19.464844 L 26.578125 19.410156 C 26.582031 19.410156 26.585938 19.410156 26.585938 19.402344 L 26.585938 19.292969 L 26.578125 19.257812 L 26.550781 19.203125 L 26.519531 19.152344 L 26.585938 19.066406 L 26.601562 19.035156 C 26.601562 19.035156 26.601562 19.035156 26.601562 19.03125 Z M 26.582031 18.964844 " fill-opacity="1" fill-rule="nonzero"/></g></svg>