<svg xmlns="http://www.w3.org/2000/svg" xmlns:xlink="http://www.w3.org/1999/xlink" width="40" zoomAndPan="magnify" viewBox="0 0 30 30.000001" height="40" preserveAspectRatio="xMidYMid meet" version="1.0"><defs><clipPath id="2432fa9628"><path d="M 3.386719 7.285156 L 26.613281 7.285156 L 26.613281 21.804688 L 3.386719 21.804688 Z M 3.386719 7.285156 " clip-rule="nonzero"/></clipPath></defs><g clip-path="url(#2432fa9628)"><path fill="#014d4e" d="M 4.019531 7.921875 C 3.996094 7.976562 3.996094 8.042969 3.964844 8.105469 C 3.933594 8.164062 3.902344 8.167969 3.84375 8.15625 C 3.785156 8.144531 3.726562 8.125 3.738281 8.058594 C 3.773438 7.84375 3.632812 7.710938 3.527344 7.558594 C 3.507812 7.53125 3.492188 7.503906 3.472656 7.472656 C 3.445312 7.429688 3.445312 7.390625 3.484375 7.351562 C 3.523438 7.3125 3.5625 7.289062 3.617188 7.324219 C 3.839844 7.460938 3.984375 7.648438 4.019531 7.921875 Z M 26.273438 21.078125 C 26.222656 21.042969 26.160156 20.976562 26.085938 21.054688 C 26.019531 21.121094 26.035156 21.1875 26.070312 21.261719 C 26.128906 21.394531 26.226562 21.503906 26.300781 21.628906 C 26.335938 21.691406 26.386719 21.742188 26.464844 21.714844 C 26.535156 21.691406 26.5625 21.628906 26.5625 21.554688 C 26.523438 21.359375 26.441406 21.191406 26.273438 21.078125 Z M 9.347656 10.941406 C 9.320312 10.917969 9.285156 10.890625 9.25 10.921875 C 9.210938 10.957031 9.234375 10.988281 9.25 11.023438 C 9.285156 11.089844 9.355469 11.132812 9.359375 11.214844 C 9.359375 11.265625 9.355469 11.332031 9.429688 11.328125 C 9.503906 11.324219 9.492188 11.253906 9.503906 11.207031 C 9.496094 11.089844 9.429688 11.011719 9.347656 10.941406 Z M 9.347656 10.941406 " fill-opacity="1" fill-rule="nonzero"/></g></svg>