<svg xmlns="http://www.w3.org/2000/svg" xmlns:xlink="http://www.w3.org/1999/xlink" width="40" zoomAndPan="magnify" viewBox="0 0 30 30.000001" height="40" preserveAspectRatio="xMidYMid meet" version="1.0"><defs><clipPath id="6a7871ac2f"><path d="M 3.386719 7.78125 L 26.613281 7.78125 L 26.613281 21.570312 L 3.386719 21.570312 Z M 3.386719 7.78125 " clip-rule="nonzero"/></clipPath></defs><g clip-path="url(#6a7871ac2f)"><path fill="#014d4e" d="M 14.472656 7.867188 C 14.449219 7.882812 14.40625 7.929688 14.382812 7.964844 C 14.359375 8.003906 14.316406 8.058594 14.285156 8.089844 C 14.246094 8.125 14.21875 8.167969 14.207031 8.210938 C 14.195312 8.246094 14.164062 8.308594 14.136719 8.351562 C 14.109375 8.394531 14.0625 8.476562 14.03125 8.535156 C 13.964844 8.65625 13.964844 8.65625 13.875 8.6875 C 13.792969 8.71875 13.753906 8.769531 13.753906 8.851562 C 13.753906 8.929688 13.71875 8.996094 13.652344 9.03125 C 13.5625 9.078125 13.558594 9.121094 13.625 9.191406 C 13.65625 9.226562 13.707031 9.292969 13.734375 9.34375 C 13.800781 9.464844 13.8125 9.472656 13.914062 9.476562 C 13.992188 9.476562 14 9.480469 14.042969 9.53125 C 14.117188 9.617188 14.25 9.597656 14.304688 9.492188 C 14.390625 9.324219 14.4375 9.074219 14.425781 8.871094 C 14.414062 8.710938 14.4375 8.632812 14.523438 8.519531 C 14.59375 8.425781 14.597656 8.402344 14.609375 8.132812 C 14.617188 7.816406 14.597656 7.78125 14.472656 7.867188 M 23.972656 9.679688 C 23.835938 9.726562 23.632812 9.863281 23.511719 9.984375 C 23.316406 10.1875 22.96875 10.429688 22.675781 10.574219 C 22.515625 10.648438 22.480469 10.648438 22.390625 10.558594 C 22.3125 10.476562 22.289062 10.472656 22.183594 10.535156 C 22.050781 10.609375 21.746094 10.820312 21.6875 10.878906 C 21.652344 10.910156 21.609375 10.933594 21.570312 10.945312 C 21.492188 10.960938 21.371094 11.042969 21.347656 11.097656 C 21.335938 11.125 21.316406 11.140625 21.300781 11.140625 C 21.175781 11.144531 21.113281 11.171875 21.113281 11.222656 C 21.113281 11.339844 20.878906 11.191406 20.703125 10.96875 C 20.667969 10.921875 20.652344 10.914062 20.582031 10.902344 C 20.476562 10.890625 20.390625 10.84375 20.296875 10.757812 C 20.097656 10.570312 20.039062 10.554688 19.898438 10.65625 C 19.8125 10.71875 19.800781 10.722656 19.765625 10.683594 C 19.710938 10.621094 19.578125 10.714844 19.558594 10.828125 C 19.546875 10.902344 19.492188 10.960938 19.433594 10.960938 C 19.351562 10.960938 19.3125 10.984375 19.175781 11.125 C 19.058594 11.25 19.035156 11.265625 18.980469 11.277344 C 18.910156 11.289062 18.871094 11.3125 18.871094 11.339844 C 18.871094 11.417969 18.746094 11.449219 18.664062 11.386719 C 18.613281 11.351562 18.574219 11.355469 18.511719 11.394531 L 18.460938 11.429688 L 18.386719 11.394531 C 18.296875 11.355469 18.277344 11.351562 18.242188 11.390625 C 18.230469 11.40625 18.207031 11.414062 18.195312 11.410156 C 18.160156 11.398438 18.125 11.414062 18.109375 11.453125 C 18.097656 11.488281 18.066406 11.496094 18.042969 11.464844 C 18.015625 11.433594 17.96875 11.4375 17.945312 11.480469 C 17.933594 11.503906 17.917969 11.511719 17.902344 11.503906 C 17.882812 11.5 17.859375 11.511719 17.820312 11.554688 C 17.75 11.632812 17.628906 11.648438 17.628906 11.582031 C 17.628906 11.523438 17.546875 11.503906 17.511719 11.554688 L 17.492188 11.585938 L 17.484375 11.554688 C 17.476562 11.53125 17.464844 11.527344 17.363281 11.527344 C 17.257812 11.527344 17.253906 11.527344 17.21875 11.476562 C 17.195312 11.449219 17.160156 11.417969 17.132812 11.402344 C 17.109375 11.386719 17.085938 11.363281 17.082031 11.347656 C 17.070312 11.316406 17.019531 11.292969 16.960938 11.292969 C 16.929688 11.292969 16.90625 11.277344 16.867188 11.238281 C 16.804688 11.167969 16.761719 11.15625 16.679688 11.1875 C 16.617188 11.214844 16.617188 11.210938 16.539062 11.179688 C 16.34375 11.097656 16.136719 11.136719 15.945312 11.292969 C 15.785156 11.421875 15.75 11.441406 15.632812 11.460938 C 15.523438 11.476562 15.503906 11.488281 15.421875 11.578125 C 15.339844 11.664062 15.257812 11.679688 15.21875 11.621094 C 15.1875 11.578125 15.128906 11.601562 15.089844 11.667969 C 15.035156 11.773438 14.945312 11.785156 14.839844 11.703125 C 14.789062 11.660156 14.78125 11.660156 14.675781 11.660156 C 14.582031 11.660156 14.558594 11.652344 14.523438 11.628906 C 14.480469 11.59375 14.476562 11.589844 14.429688 11.609375 C 14.382812 11.625 14.371094 11.667969 14.398438 11.726562 C 14.472656 11.875 14.21875 11.949219 13.972656 11.847656 C 13.859375 11.796875 13.816406 11.808594 13.722656 11.898438 L 13.660156 11.960938 L 13.597656 11.941406 C 13.492188 11.914062 13.414062 11.960938 13.46875 12.023438 C 13.496094 12.050781 13.515625 12.136719 13.496094 12.136719 C 13.488281 12.136719 13.476562 12.121094 13.464844 12.101562 C 13.421875 12.023438 13.339844 12.011719 13.320312 12.082031 C 13.308594 12.117188 13.265625 12.113281 13.203125 12.078125 C 13.160156 12.050781 13.132812 12.046875 13.007812 12.042969 C 12.84375 12.039062 12.855469 12.035156 12.726562 12.140625 C 12.6875 12.171875 12.65625 12.183594 12.597656 12.1875 C 12.535156 12.191406 12.515625 12.203125 12.480469 12.242188 C 12.4375 12.285156 12.429688 12.289062 12.367188 12.28125 C 12.285156 12.269531 12.226562 12.300781 12.238281 12.351562 C 12.242188 12.375 12.238281 12.386719 12.214844 12.390625 C 12.199219 12.398438 12.167969 12.410156 12.144531 12.417969 C 12.113281 12.433594 12.085938 12.433594 12.042969 12.425781 C 11.996094 12.414062 11.96875 12.417969 11.863281 12.453125 C 11.796875 12.472656 11.675781 12.503906 11.597656 12.515625 C 11.425781 12.539062 11.382812 12.554688 11.363281 12.589844 C 11.355469 12.605469 11.324219 12.625 11.289062 12.636719 C 11.257812 12.644531 11.222656 12.660156 11.210938 12.675781 C 11.199219 12.6875 11.167969 12.703125 11.144531 12.707031 C 11.078125 12.722656 10.90625 12.925781 10.90625 12.992188 C 10.90625 13.003906 10.890625 13.050781 10.871094 13.101562 C 10.808594 13.253906 10.796875 13.378906 10.796875 13.839844 C 10.796875 14.320312 10.796875 14.320312 10.683594 14.476562 C 10.574219 14.628906 10.550781 14.652344 10.496094 14.652344 C 10.332031 14.652344 10.148438 14.898438 10.136719 15.136719 C 10.128906 15.277344 10.070312 15.480469 9.992188 15.636719 C 9.933594 15.753906 9.925781 15.761719 9.851562 15.785156 C 9.796875 15.804688 9.773438 15.847656 9.773438 15.9375 C 9.773438 15.96875 9.75 16.03125 9.714844 16.105469 L 9.65625 16.21875 L 9.65625 16.394531 C 9.65625 16.65625 9.714844 16.773438 9.902344 16.894531 C 10.0625 16.996094 10.21875 16.960938 10.25 16.808594 C 10.265625 16.746094 10.535156 16.546875 10.605469 16.546875 C 10.703125 16.546875 10.785156 16.445312 10.820312 16.273438 C 10.863281 16.082031 10.933594 16.046875 10.976562 16.199219 C 10.996094 16.257812 11.078125 16.339844 11.121094 16.339844 C 11.148438 16.339844 11.335938 16.546875 11.363281 16.613281 C 11.414062 16.722656 11.402344 17.109375 11.339844 17.375 C 11.316406 17.472656 11.320312 17.597656 11.351562 17.75 C 11.378906 17.890625 11.34375 17.957031 11.246094 17.957031 C 11.167969 17.957031 11.089844 17.996094 10.992188 18.085938 C 10.820312 18.246094 10.757812 18.242188 10.6875 18.082031 C 10.632812 17.953125 10.535156 17.925781 10.296875 17.972656 C 10.257812 17.980469 10.183594 17.984375 10.128906 17.984375 L 10.035156 17.984375 L 10.035156 18.070312 C 10.035156 18.132812 10.027344 18.164062 10.007812 18.195312 C 9.980469 18.230469 9.976562 18.25 9.984375 18.347656 C 9.988281 18.410156 10 18.542969 10.007812 18.640625 C 10.027344 18.898438 10.050781 19 10.117188 19.097656 C 10.148438 19.144531 10.171875 19.195312 10.171875 19.214844 C 10.171875 19.246094 10.230469 19.3125 10.257812 19.3125 C 10.265625 19.3125 10.269531 19.324219 10.269531 19.335938 C 10.269531 19.375 10.308594 19.421875 10.359375 19.445312 C 10.425781 19.46875 10.445312 19.511719 10.457031 19.625 C 10.472656 19.792969 10.488281 19.851562 10.539062 19.921875 C 10.644531 20.066406 10.652344 20.105469 10.664062 20.414062 C 10.671875 20.589844 10.691406 20.679688 10.738281 20.75 C 10.78125 20.808594 10.789062 20.804688 10.835938 20.703125 C 10.949219 20.464844 11.183594 20.328125 11.492188 20.324219 C 11.621094 20.324219 11.652344 20.296875 11.765625 20.101562 C 11.804688 20.03125 11.867188 19.945312 11.898438 19.914062 C 11.949219 19.863281 11.957031 19.847656 11.945312 19.820312 C 11.925781 19.773438 11.941406 19.761719 12.03125 19.761719 C 12.125 19.761719 12.15625 19.738281 12.179688 19.648438 C 12.210938 19.535156 12.253906 19.476562 12.496094 19.246094 C 12.828125 18.925781 12.855469 18.910156 13.089844 18.855469 C 13.253906 18.820312 13.335938 18.78125 13.453125 18.683594 C 13.566406 18.585938 13.730469 18.5 13.855469 18.476562 C 13.988281 18.449219 13.992188 18.445312 14.152344 18.289062 C 14.34375 18.097656 14.421875 18.078125 14.578125 18.175781 C 14.800781 18.3125 15.101562 18.234375 15.222656 18.003906 C 15.253906 17.949219 15.300781 17.929688 15.378906 17.9375 C 15.460938 17.949219 15.507812 17.925781 15.550781 17.855469 C 15.570312 17.820312 15.597656 17.792969 15.605469 17.792969 C 15.617188 17.792969 15.648438 17.78125 15.679688 17.765625 C 15.757812 17.722656 15.792969 17.726562 15.816406 17.78125 C 15.851562 17.855469 15.925781 17.871094 15.925781 17.800781 C 15.925781 17.75 16 17.621094 16.050781 17.589844 C 16.109375 17.546875 16.203125 17.546875 16.390625 17.585938 C 16.734375 17.652344 16.753906 17.644531 17.027344 17.382812 C 17.21875 17.203125 17.324219 17.082031 17.324219 17.046875 C 17.324219 17.039062 17.332031 17.015625 17.339844 16.992188 L 17.355469 16.957031 L 17.363281 16.988281 C 17.375 17.035156 17.40625 17.03125 17.441406 16.980469 C 17.457031 16.957031 17.488281 16.929688 17.515625 16.921875 C 17.546875 16.910156 17.597656 16.855469 17.703125 16.730469 C 17.800781 16.609375 17.851562 16.554688 17.867188 16.558594 C 17.902344 16.566406 17.929688 16.539062 17.945312 16.476562 C 17.953125 16.445312 17.972656 16.417969 17.992188 16.40625 C 18.007812 16.398438 18.09375 16.34375 18.179688 16.285156 C 18.417969 16.128906 18.570312 16.078125 18.753906 16.097656 C 18.949219 16.117188 18.992188 16.117188 19.109375 16.125 C 19.300781 16.132812 19.394531 16.105469 19.550781 15.992188 C 19.703125 15.886719 20.125 15.8125 20.320312 15.855469 L 20.398438 15.871094 L 20.4375 15.828125 C 20.460938 15.800781 20.484375 15.785156 20.507812 15.785156 C 20.5625 15.785156 20.625 15.667969 20.695312 15.433594 C 20.746094 15.261719 21.054688 14.707031 21.167969 14.585938 C 21.234375 14.515625 21.265625 14.4375 21.246094 14.40625 C 21.230469 14.382812 21.28125 14.375 21.363281 14.390625 L 21.449219 14.410156 L 21.488281 14.363281 C 21.613281 14.210938 21.652344 14.167969 21.726562 14.109375 C 21.773438 14.074219 21.839844 14.035156 21.871094 14.019531 L 21.933594 13.992188 L 21.996094 14.019531 L 22.054688 14.050781 L 22.089844 14.011719 C 22.109375 13.988281 22.128906 13.953125 22.132812 13.933594 C 22.140625 13.886719 22.1875 13.875 22.21875 13.914062 C 22.261719 13.964844 22.300781 13.964844 22.402344 13.917969 L 22.496094 13.875 L 22.566406 13.910156 C 22.609375 13.929688 22.679688 13.953125 22.730469 13.960938 C 22.777344 13.96875 22.835938 13.988281 22.863281 14 C 22.921875 14.039062 22.929688 14.039062 22.984375 13.988281 C 23.011719 13.964844 23.042969 13.945312 23.050781 13.945312 C 23.074219 13.945312 23.261719 13.765625 23.394531 13.617188 C 23.46875 13.535156 23.476562 13.53125 23.53125 13.535156 C 23.589844 13.539062 23.59375 13.535156 23.71875 13.40625 C 23.824219 13.296875 23.855469 13.269531 23.910156 13.257812 C 23.976562 13.238281 23.984375 13.238281 24.078125 13.273438 C 24.210938 13.324219 24.300781 13.292969 24.316406 13.1875 C 24.320312 13.152344 24.332031 13.132812 24.34375 13.132812 C 24.402344 13.132812 24.472656 13.058594 24.472656 12.996094 C 24.472656 12.945312 24.558594 12.796875 24.636719 12.714844 C 24.714844 12.628906 24.78125 12.527344 24.9375 12.25 C 24.980469 12.171875 25.019531 12.109375 25.027344 12.109375 C 25.03125 12.109375 25.046875 12.085938 25.054688 12.0625 C 25.082031 11.996094 25.171875 11.910156 25.3125 11.804688 C 25.492188 11.667969 25.582031 11.574219 25.628906 11.476562 C 25.652344 11.421875 25.679688 11.386719 25.699219 11.375 C 25.71875 11.367188 25.746094 11.332031 25.761719 11.300781 C 25.78125 11.257812 25.800781 11.234375 25.832031 11.222656 C 25.929688 11.179688 26.050781 11.023438 26.050781 10.933594 C 26.050781 10.886719 26.085938 10.859375 26.160156 10.851562 L 26.234375 10.84375 L 26.238281 10.617188 C 26.242188 10.359375 26.25 10.375 26.089844 10.34375 C 25.820312 10.292969 25.742188 10.238281 25.628906 10.007812 C 25.523438 9.796875 25.355469 9.761719 25.257812 9.929688 C 25.167969 10.082031 24.960938 10.148438 24.679688 10.109375 C 24.597656 10.101562 24.535156 10.035156 24.511719 9.933594 C 24.492188 9.859375 24.449219 9.824219 24.371094 9.824219 C 24.300781 9.824219 24.210938 9.789062 24.210938 9.757812 C 24.210938 9.707031 24.050781 9.652344 23.972656 9.679688 M 26.355469 10.582031 C 26.242188 10.722656 26.328125 10.980469 26.472656 10.933594 C 26.601562 10.890625 26.609375 10.742188 26.492188 10.609375 C 26.425781 10.535156 26.394531 10.53125 26.355469 10.582031 M 6.089844 17.9375 C 6.035156 17.957031 5.976562 18 5.917969 18.058594 C 5.761719 18.203125 5.738281 18.214844 5.5625 18.210938 C 5.46875 18.207031 5.402344 18.214844 5.390625 18.222656 C 5.378906 18.234375 5.363281 18.234375 5.339844 18.222656 C 5.277344 18.195312 5.238281 18.222656 5.238281 18.292969 C 5.238281 18.328125 5.226562 18.335938 5.132812 18.378906 C 5.0625 18.410156 5.007812 18.449219 4.957031 18.503906 L 4.878906 18.578125 L 4.789062 18.578125 C 4.683594 18.578125 4.601562 18.609375 4.589844 18.648438 C 4.585938 18.667969 4.570312 18.675781 4.546875 18.675781 C 4.445312 18.675781 4.367188 18.742188 4.335938 18.859375 C 4.292969 19.015625 4.203125 19.128906 4.089844 19.167969 C 4.03125 19.1875 4.015625 19.199219 4.011719 19.230469 C 4.003906 19.265625 3.992188 19.269531 3.9375 19.28125 C 3.878906 19.292969 3.871094 19.296875 3.855469 19.347656 C 3.824219 19.441406 3.699219 19.515625 3.683594 19.449219 C 3.671875 19.40625 3.613281 19.417969 3.589844 19.46875 C 3.574219 19.507812 3.5625 19.515625 3.515625 19.519531 C 3.386719 19.527344 3.386719 19.613281 3.515625 19.804688 C 3.570312 19.886719 3.617188 19.976562 3.640625 20.042969 C 3.71875 20.277344 3.84375 20.414062 3.898438 20.324219 C 3.921875 20.28125 3.9375 20.289062 3.984375 20.347656 C 4.09375 20.492188 4.253906 20.5 4.253906 20.359375 C 4.253906 20.316406 4.261719 20.308594 4.300781 20.289062 C 4.359375 20.257812 4.371094 20.230469 4.34375 20.1875 C 4.328125 20.164062 4.324219 20.148438 4.335938 20.144531 C 4.34375 20.144531 4.363281 20.121094 4.378906 20.09375 C 4.402344 20.054688 4.414062 20.046875 4.429688 20.058594 C 4.464844 20.089844 4.507812 20.070312 4.539062 20.007812 C 4.578125 19.917969 4.6875 19.917969 4.761719 20.015625 C 4.78125 20.042969 4.828125 20.097656 4.859375 20.132812 C 4.957031 20.242188 5.019531 20.382812 5.011719 20.472656 C 5.003906 20.542969 5.007812 20.550781 5.042969 20.585938 C 5.082031 20.621094 5.085938 20.628906 5.085938 20.746094 C 5.085938 20.8125 5.089844 20.882812 5.097656 20.898438 C 5.105469 20.914062 5.101562 20.9375 5.082031 20.96875 C 5.054688 21.011719 5.054688 21.023438 5.070312 21.113281 C 5.089844 21.230469 5.101562 21.238281 5.203125 21.175781 C 5.253906 21.144531 5.304688 21.125 5.332031 21.125 C 5.363281 21.125 5.390625 21.109375 5.441406 21.0625 C 5.476562 21.03125 5.539062 20.988281 5.578125 20.96875 C 5.660156 20.925781 5.679688 20.898438 5.652344 20.859375 C 5.640625 20.839844 5.644531 20.824219 5.671875 20.785156 C 5.726562 20.707031 5.71875 20.632812 5.660156 20.597656 C 5.574219 20.546875 5.582031 20.488281 5.691406 20.390625 C 5.8125 20.277344 5.855469 20.109375 5.800781 19.980469 C 5.773438 19.90625 5.808594 19.820312 5.871094 19.8125 C 5.925781 19.804688 5.96875 19.742188 5.96875 19.679688 C 5.96875 19.636719 5.992188 19.621094 6.070312 19.613281 C 6.148438 19.601562 6.195312 19.550781 6.21875 19.457031 C 6.238281 19.390625 6.246094 19.378906 6.332031 19.335938 C 6.398438 19.300781 6.402344 19.289062 6.371094 19.09375 C 6.355469 18.988281 6.363281 18.933594 6.40625 18.796875 C 6.429688 18.734375 6.425781 18.667969 6.402344 18.5 C 6.398438 18.449219 6.402344 18.421875 6.4375 18.347656 C 6.566406 18.0625 6.363281 17.824219 6.089844 17.9375 " fill-opacity="1" fill-rule="evenodd"/></g></svg>