<svg xmlns="http://www.w3.org/2000/svg" xmlns:xlink="http://www.w3.org/1999/xlink" width="40" zoomAndPan="magnify" viewBox="0 0 30 30.000001" height="40" preserveAspectRatio="xMidYMid meet" version="1.0"><defs><clipPath id="c1ec9ba03f"><path d="M 3.386719 6.519531 L 26.613281 6.519531 L 26.613281 22.484375 L 3.386719 22.484375 Z M 3.386719 6.519531 " clip-rule="nonzero"/></clipPath></defs><g clip-path="url(#c1ec9ba03f)"><path fill="#014d4e" d="M 3.824219 10.210938 C 3.824219 10.179688 3.824219 10.148438 3.820312 10.117188 C 3.820312 10.117188 3.820312 10.113281 3.820312 10.113281 C 3.757812 9.96875 3.847656 9.890625 3.925781 9.769531 C 4.007812 9.644531 4.027344 9.519531 4.132812 9.414062 C 4.164062 9.488281 4.175781 9.589844 4.210938 9.65625 C 4.257812 9.75 4.308594 9.671875 4.375 9.753906 C 4.402344 9.785156 4.394531 9.84375 4.445312 9.851562 C 4.488281 9.855469 4.503906 9.800781 4.53125 9.796875 C 4.609375 9.792969 4.601562 9.910156 4.648438 9.964844 C 4.707031 9.933594 4.742188 9.863281 4.8125 9.90625 C 4.828125 9.914062 4.851562 9.9375 4.871094 9.964844 C 4.894531 9.933594 4.921875 9.90625 4.960938 9.886719 C 5.039062 9.847656 5.09375 9.863281 5.148438 9.910156 C 5.234375 9.984375 5.199219 10.105469 5.269531 10.179688 C 5.28125 10.1875 5.332031 10.191406 5.355469 10.207031 C 5.382812 10.226562 5.402344 10.261719 5.421875 10.292969 C 5.488281 10.375 5.480469 10.398438 5.574219 10.386719 C 5.722656 10.367188 5.894531 10.386719 6.007812 10.242188 C 6.140625 10.078125 6.015625 9.804688 5.957031 9.640625 C 5.898438 9.484375 5.734375 9.339844 5.828125 9.183594 C 5.878906 9.097656 5.921875 9.058594 5.90625 8.964844 C 5.898438 8.894531 5.859375 8.816406 5.824219 8.753906 C 5.734375 8.613281 5.644531 8.457031 5.550781 8.324219 C 5.496094 8.253906 5.441406 8.1875 5.40625 8.105469 C 5.375 8.03125 5.371094 7.953125 5.34375 7.871094 C 5.277344 7.679688 5.183594 7.824219 5.054688 7.886719 C 4.925781 7.953125 4.808594 8.011719 4.71875 8.121094 C 4.6875 8.160156 4.644531 8.25 4.601562 8.269531 C 4.542969 8.296875 4.519531 8.253906 4.460938 8.246094 C 4.320312 8.226562 4.328125 8.394531 4.285156 8.503906 C 4.238281 8.621094 4.15625 8.714844 4.132812 8.84375 C 4.117188 8.9375 4.183594 9.125 4.109375 9.207031 C 4.074219 9.25 3.902344 9.234375 3.867188 9.167969 C 3.828125 9.097656 3.925781 8.96875 3.925781 8.898438 C 3.925781 8.796875 3.859375 8.714844 3.851562 8.613281 C 3.847656 8.570312 3.867188 8.527344 3.851562 8.480469 C 3.832031 8.429688 3.804688 8.429688 3.757812 8.390625 C 3.609375 8.257812 3.757812 8.050781 3.675781 7.871094 C 3.671875 7.851562 3.667969 7.824219 3.664062 7.785156 C 3.714844 7.75 3.769531 7.707031 3.78125 7.691406 C 4.027344 7.53125 4.191406 7.277344 4.441406 7.136719 C 4.582031 7.058594 4.71875 7.070312 4.867188 7.011719 C 4.9375 6.984375 5.015625 6.941406 5.085938 6.929688 C 5.15625 6.914062 5.238281 6.929688 5.308594 6.910156 C 5.457031 6.867188 5.535156 6.757812 5.695312 6.824219 C 5.792969 6.867188 5.804688 6.871094 5.914062 6.84375 C 6.019531 6.816406 6.042969 6.839844 6.128906 6.886719 C 6.242188 6.953125 6.265625 6.894531 6.375 6.851562 C 6.472656 6.816406 6.511719 6.847656 6.585938 6.921875 C 6.648438 6.988281 6.664062 7.082031 6.722656 7.148438 C 6.765625 7.195312 6.824219 7.21875 6.871094 7.269531 C 6.925781 7.320312 6.972656 7.382812 7.035156 7.429688 C 7.144531 7.511719 7.214844 7.566406 7.285156 7.683594 C 7.347656 7.78125 7.433594 7.820312 7.511719 7.894531 C 7.597656 7.976562 7.675781 8.019531 7.632812 8.140625 C 7.621094 8.183594 7.609375 8.25 7.578125 8.28125 C 7.570312 8.292969 7.558594 8.296875 7.550781 8.304688 C 7.582031 8.355469 7.609375 8.40625 7.617188 8.414062 C 7.683594 8.5 7.714844 8.582031 7.753906 8.679688 C 7.800781 8.796875 7.871094 8.796875 7.960938 8.871094 C 8.039062 8.941406 8.09375 9.105469 8.128906 9.203125 C 8.15625 9.277344 8.148438 9.304688 8.210938 9.351562 C 8.257812 9.390625 8.332031 9.441406 8.382812 9.476562 C 8.425781 9.5 8.394531 9.519531 8.445312 9.511719 C 8.472656 9.507812 8.539062 9.441406 8.574219 9.429688 C 8.628906 9.40625 8.691406 9.394531 8.753906 9.398438 C 8.832031 9.410156 8.871094 9.433594 8.941406 9.417969 C 9.003906 9.40625 9.054688 9.363281 9.125 9.355469 C 9.269531 9.351562 9.359375 9.511719 9.488281 9.523438 C 9.578125 9.53125 9.65625 9.476562 9.738281 9.464844 C 9.808594 9.457031 9.894531 9.480469 9.964844 9.492188 C 10.085938 9.511719 10.207031 9.53125 10.328125 9.550781 C 10.421875 9.566406 10.519531 9.625 10.621094 9.605469 C 10.710938 9.589844 10.777344 9.523438 10.835938 9.460938 C 10.847656 9.457031 10.851562 9.445312 10.859375 9.441406 C 10.832031 9.371094 10.792969 9.273438 10.777344 9.234375 C 10.734375 9.136719 10.699219 9.042969 10.664062 8.9375 C 10.648438 8.898438 10.625 8.847656 10.621094 8.804688 C 10.621094 8.734375 10.652344 8.71875 10.6875 8.660156 C 10.730469 8.570312 10.761719 8.453125 10.769531 8.355469 C 10.78125 8.238281 10.777344 8.167969 10.890625 8.113281 C 10.96875 8.074219 10.96875 8.058594 11.011719 8 C 11.039062 7.960938 11.074219 7.90625 11.109375 7.882812 C 11.207031 7.820312 11.335938 7.808594 11.429688 7.738281 C 11.550781 7.65625 11.574219 7.578125 11.722656 7.640625 C 11.742188 7.648438 11.757812 7.683594 11.78125 7.6875 C 11.828125 7.695312 11.851562 7.664062 11.890625 7.648438 C 11.945312 7.632812 11.996094 7.605469 12.050781 7.582031 C 12.128906 7.554688 12.199219 7.558594 12.246094 7.484375 C 12.292969 7.414062 12.28125 7.355469 12.289062 7.285156 C 12.308594 7.113281 12.4375 7.09375 12.5625 7.171875 C 12.617188 7.207031 12.671875 7.253906 12.730469 7.269531 C 12.785156 7.28125 12.847656 7.246094 12.894531 7.296875 C 12.929688 7.332031 12.902344 7.410156 12.925781 7.457031 C 12.949219 7.519531 13.027344 7.570312 13.082031 7.589844 C 13.28125 7.65625 13.132812 7.414062 13.085938 7.328125 C 13.042969 7.257812 12.988281 7.1875 12.964844 7.105469 C 12.945312 7.035156 12.96875 6.96875 12.914062 6.929688 C 12.851562 6.882812 12.582031 6.832031 12.746094 6.726562 C 12.914062 6.617188 13.070312 6.773438 13.230469 6.746094 C 13.335938 6.730469 13.320312 6.640625 13.359375 6.59375 C 13.421875 6.519531 13.535156 6.558594 13.582031 6.605469 C 13.664062 6.6875 13.707031 6.800781 13.789062 6.882812 C 13.835938 6.921875 13.847656 6.941406 13.902344 6.960938 C 13.949219 6.980469 14.042969 6.957031 14.085938 6.980469 C 14.148438 7.019531 14.1875 7.101562 14.246094 7.148438 C 14.269531 7.167969 14.324219 7.195312 14.335938 7.214844 C 14.371094 7.261719 14.367188 7.328125 14.394531 7.382812 C 14.4375 7.457031 14.414062 7.433594 14.507812 7.4375 C 14.570312 7.4375 14.597656 7.445312 14.65625 7.464844 C 14.769531 7.5 14.871094 7.519531 14.980469 7.558594 C 15.007812 7.570312 15.0625 7.589844 15.109375 7.617188 C 15.121094 7.617188 15.128906 7.617188 15.140625 7.617188 C 15.214844 7.617188 15.34375 7.601562 15.398438 7.65625 C 15.46875 7.714844 15.464844 7.84375 15.46875 7.921875 C 15.480469 8.03125 15.5625 8.09375 15.519531 8.207031 C 15.496094 8.269531 15.449219 8.285156 15.480469 8.34375 C 15.503906 8.394531 15.605469 8.410156 15.648438 8.429688 C 15.746094 8.46875 15.882812 8.558594 15.84375 8.691406 C 15.800781 8.820312 15.644531 8.695312 15.578125 8.792969 C 15.53125 8.851562 15.671875 9.007812 15.691406 9.09375 C 15.714844 9.214844 15.597656 9.296875 15.609375 9.410156 C 15.621094 9.492188 15.722656 9.554688 15.785156 9.617188 C 15.851562 9.679688 15.898438 9.757812 15.980469 9.796875 C 16.042969 9.824219 16.121094 9.828125 16.1875 9.871094 C 16.246094 9.914062 16.285156 9.988281 16.351562 10.03125 C 16.421875 9.929688 16.601562 9.90625 16.71875 9.890625 C 16.855469 9.871094 16.984375 9.933594 17.105469 9.988281 C 17.242188 10.050781 17.34375 10.121094 17.492188 10.070312 C 17.542969 10.050781 17.59375 10.027344 17.628906 9.984375 C 17.667969 9.945312 17.6875 9.855469 17.722656 9.832031 C 17.792969 9.785156 17.847656 9.855469 17.914062 9.882812 C 18.019531 9.917969 18.082031 9.921875 18.179688 9.988281 C 18.253906 10.042969 18.332031 10.058594 18.398438 10.121094 C 18.460938 10.179688 18.507812 10.25 18.574219 10.296875 C 18.699219 10.386719 18.695312 10.339844 18.714844 10.492188 C 18.730469 10.601562 18.761719 10.710938 18.78125 10.816406 C 18.808594 10.976562 18.785156 11.203125 18.894531 11.332031 C 19.042969 11.511719 19.253906 11.683594 19.316406 11.917969 C 19.359375 12.074219 19.367188 12.25 19.367188 12.421875 C 19.519531 12.558594 19.675781 12.691406 19.824219 12.839844 C 19.964844 12.980469 20.121094 13.148438 20.289062 13.257812 C 20.507812 13.394531 20.753906 13.507812 20.960938 13.65625 C 21.039062 13.710938 21.117188 13.78125 21.199219 13.832031 C 21.285156 13.886719 21.390625 13.917969 21.46875 13.984375 C 21.535156 14.035156 21.550781 14.105469 21.601562 14.164062 C 21.667969 14.234375 21.769531 14.25 21.855469 14.277344 C 22.066406 14.347656 22.179688 14.535156 22.425781 14.488281 C 22.617188 14.457031 22.78125 14.667969 22.929688 14.785156 C 23.027344 14.855469 23.078125 14.933594 23.199219 14.964844 C 23.316406 14.992188 23.378906 14.984375 23.484375 15.054688 C 23.550781 15.101562 23.625 15.125 23.671875 15.179688 C 23.714844 15.21875 23.761719 15.296875 23.800781 15.347656 C 23.824219 15.382812 23.847656 15.46875 23.882812 15.484375 C 23.917969 15.5 24.042969 15.46875 24.085938 15.46875 C 24.164062 15.46875 24.238281 15.453125 24.304688 15.492188 C 24.347656 15.523438 24.359375 15.578125 24.394531 15.613281 C 24.441406 15.65625 24.515625 15.664062 24.566406 15.695312 C 24.652344 15.75 24.753906 15.800781 24.847656 15.855469 C 24.917969 15.863281 24.988281 15.871094 25.0625 15.882812 C 25.191406 15.894531 25.316406 15.875 25.445312 15.898438 C 25.667969 15.941406 25.789062 16.171875 26.019531 16.203125 C 26.164062 16.21875 26.359375 16.167969 26.488281 16.242188 C 26.601562 16.308594 26.554688 16.484375 26.496094 16.582031 C 26.421875 16.726562 26.371094 16.855469 26.367188 17.023438 C 26.367188 17.191406 26.3125 17.332031 26.371094 17.488281 C 26.417969 17.628906 26.445312 17.757812 26.265625 17.796875 C 26.175781 17.816406 26.054688 17.800781 25.960938 17.796875 C 25.835938 17.785156 25.746094 17.773438 25.695312 17.667969 C 25.648438 17.574219 25.582031 17.53125 25.519531 17.457031 C 25.445312 17.511719 25.371094 17.550781 25.28125 17.507812 C 25.195312 17.464844 25.179688 17.378906 25.066406 17.414062 C 24.90625 17.460938 24.882812 17.683594 24.804688 17.804688 C 24.78125 17.839844 24.753906 17.871094 24.730469 17.90625 C 24.710938 17.933594 24.691406 17.992188 24.667969 18.019531 C 24.621094 18.058594 24.519531 18.054688 24.460938 18.058594 C 24.300781 18.070312 24.125 18.035156 23.960938 18.042969 C 23.8125 18.042969 23.734375 18.15625 23.609375 18.230469 C 23.582031 18.25 23.53125 18.285156 23.484375 18.320312 C 23.484375 18.367188 23.484375 18.410156 23.484375 18.441406 C 23.484375 18.503906 23.488281 18.558594 23.484375 18.621094 C 23.480469 18.691406 23.496094 18.738281 23.503906 18.800781 C 23.519531 19.03125 23.292969 19.148438 23.242188 19.355469 C 23.195312 19.542969 23.328125 19.785156 23.179688 19.953125 C 23.066406 20.089844 22.859375 20.117188 22.761719 20.253906 C 22.699219 20.339844 22.714844 20.375 22.601562 20.394531 C 22.511719 20.410156 22.421875 20.414062 22.328125 20.421875 C 22.261719 20.464844 22.21875 20.550781 22.164062 20.613281 C 22.109375 20.667969 22.078125 20.679688 21.992188 20.6875 C 21.914062 20.695312 21.847656 20.664062 21.765625 20.679688 C 21.6875 20.695312 21.605469 20.742188 21.53125 20.773438 C 21.34375 20.832031 21.175781 20.921875 20.984375 20.976562 C 20.90625 20.992188 20.84375 21.011719 20.769531 21.046875 C 20.6875 21.082031 20.667969 21.082031 20.675781 21.167969 C 20.695312 21.285156 20.761719 21.351562 20.679688 21.46875 C 20.601562 21.582031 20.582031 21.613281 20.566406 21.75 C 20.558594 21.867188 20.578125 21.992188 20.4375 22.007812 C 20.316406 22.019531 20.222656 21.992188 20.117188 22.054688 C 20.035156 22.101562 19.679688 22.445312 19.617188 22.398438 C 19.570312 22.347656 19.519531 22.292969 19.480469 22.234375 C 19.457031 22.257812 19.429688 22.277344 19.40625 22.300781 C 19.355469 22.351562 19.261719 22.488281 19.1875 22.5 C 19.097656 22.507812 19.097656 22.398438 19.09375 22.332031 C 19.082031 22.242188 19.050781 22.195312 19.027344 22.121094 C 18.914062 22.121094 18.824219 22.160156 18.753906 22.050781 C 18.722656 22.003906 18.71875 21.960938 18.675781 21.921875 C 18.652344 21.90625 18.558594 21.832031 18.53125 21.828125 C 18.429688 21.804688 18.335938 21.917969 18.257812 21.953125 C 18.15625 21.992188 18.027344 21.96875 17.925781 21.941406 C 17.824219 21.914062 17.789062 21.84375 17.714844 21.773438 C 17.664062 21.726562 17.605469 21.640625 17.550781 21.601562 C 17.492188 21.566406 17.425781 21.59375 17.359375 21.59375 C 17.253906 21.589844 17.269531 21.542969 17.238281 21.453125 C 17.210938 21.371094 17.191406 21.363281 17.242188 21.285156 C 17.285156 21.21875 17.34375 21.179688 17.3125 21.089844 C 17.28125 20.980469 17.121094 20.9375 17.085938 20.832031 C 17.058594 20.75 17.1875 20.597656 17.210938 20.503906 C 17.230469 20.433594 17.234375 20.371094 17.207031 20.296875 C 17.175781 20.226562 17.097656 20.183594 17.070312 20.117188 C 17.035156 20.027344 17.109375 19.871094 17.105469 19.769531 C 17.101562 19.65625 17.097656 19.519531 17.070312 19.40625 C 17.070312 19.386719 17.0625 19.351562 17.054688 19.316406 C 16.851562 19.300781 16.691406 19.390625 16.492188 19.441406 C 16.355469 19.480469 16.308594 19.457031 16.179688 19.414062 C 16.085938 19.378906 15.984375 19.398438 15.894531 19.371094 C 15.8125 19.347656 15.804688 19.300781 15.746094 19.242188 C 15.671875 19.171875 15.597656 19.148438 15.542969 19.054688 C 15.457031 18.898438 15.382812 18.726562 15.261719 18.59375 C 15.210938 18.542969 15.199219 18.523438 15.128906 18.507812 C 15.0625 18.492188 14.980469 18.53125 14.929688 18.5 C 14.902344 18.476562 14.878906 18.390625 14.851562 18.355469 C 14.804688 18.300781 14.785156 18.304688 14.710938 18.296875 C 14.644531 18.292969 14.550781 18.324219 14.484375 18.308594 C 14.425781 18.296875 14.367188 18.214844 14.328125 18.179688 C 14.195312 18.058594 14.15625 18 14.121094 17.824219 C 14.101562 17.75 14.085938 17.671875 14.082031 17.597656 C 14.078125 17.550781 14.082031 17.484375 14.054688 17.441406 C 13.984375 17.324219 13.867188 17.390625 13.761719 17.394531 C 13.671875 17.398438 13.511719 17.367188 13.441406 17.316406 C 13.367188 17.257812 13.300781 17.113281 13.195312 17.121094 C 13.09375 17.125 13.085938 17.210938 12.964844 17.160156 C 12.917969 17.140625 12.90625 17.113281 12.851562 17.121094 C 12.792969 17.128906 12.777344 17.183594 12.730469 17.195312 C 12.679688 17.210938 12.558594 17.191406 12.496094 17.1875 C 12.445312 17.183594 12.285156 17.167969 12.246094 17.140625 C 12.1875 17.089844 12.207031 16.945312 12.152344 16.886719 C 12.101562 16.824219 11.984375 16.828125 11.90625 16.808594 C 11.761719 16.777344 11.640625 16.710938 11.527344 16.605469 C 11.519531 16.601562 11.515625 16.597656 11.507812 16.59375 C 11.320312 16.605469 11.109375 16.578125 10.96875 16.507812 C 10.878906 16.464844 10.761719 16.414062 10.714844 16.328125 C 10.664062 16.238281 10.675781 16.121094 10.648438 16.023438 C 10.582031 15.792969 10.492188 15.742188 10.265625 15.828125 C 10.167969 15.863281 10.140625 15.84375 10.050781 15.808594 C 9.957031 15.773438 9.871094 15.757812 9.769531 15.753906 C 9.625 15.75 9.492188 15.707031 9.351562 15.75 C 9.285156 15.769531 9.191406 15.792969 9.144531 15.839844 C 9.09375 15.890625 9.117188 15.914062 9.09375 15.980469 C 9.039062 16.125 8.925781 16.03125 8.8125 16.023438 C 8.699219 16.007812 8.605469 16.050781 8.488281 16.019531 C 8.230469 15.945312 7.941406 15.847656 7.667969 15.917969 C 7.570312 15.945312 7.542969 16.023438 7.441406 16.042969 C 7.335938 16.058594 7.21875 16.03125 7.128906 16.097656 C 7.03125 16.179688 6.96875 16.238281 6.847656 16.28125 C 6.757812 16.316406 6.617188 16.363281 6.550781 16.4375 C 6.492188 16.5 6.527344 16.59375 6.472656 16.644531 C 6.457031 16.664062 6.390625 16.683594 6.359375 16.703125 C 6.308594 16.738281 6.292969 16.773438 6.269531 16.824219 C 6.234375 16.910156 6.207031 17.003906 6.109375 17.066406 C 6.035156 17.113281 5.957031 17.121094 5.875 17.136719 C 5.707031 17.167969 5.527344 17.195312 5.367188 17.128906 C 5.367188 17.128906 5.367188 17.128906 5.359375 17.125 C 5.242188 17.183594 5.253906 17.296875 5.121094 17.21875 C 5.078125 17.195312 5.035156 17.167969 4.992188 17.15625 C 4.933594 17.128906 4.90625 17.144531 4.851562 17.140625 C 4.777344 17.128906 4.8125 17.15625 4.78125 17.078125 C 4.761719 17.035156 4.742188 16.988281 4.730469 16.945312 C 4.710938 16.871094 4.707031 16.785156 4.683594 16.707031 C 4.664062 16.636719 4.625 16.523438 4.640625 16.464844 C 4.648438 16.429688 4.65625 16.394531 4.671875 16.355469 C 4.652344 16.238281 4.664062 16.117188 4.691406 16.003906 C 4.734375 15.816406 4.746094 15.621094 4.789062 15.433594 C 4.832031 15.25 4.882812 15.03125 4.855469 14.84375 C 4.84375 14.753906 4.804688 14.679688 4.84375 14.59375 C 4.875 14.53125 4.941406 14.476562 4.988281 14.421875 C 5.082031 14.304688 5.039062 14.1875 5.121094 14.074219 C 5.125 14.058594 5.152344 14.019531 5.183594 13.976562 C 5.144531 13.945312 5.117188 13.914062 5.105469 13.890625 C 5.074219 13.824219 5.070312 13.75 5.027344 13.683594 C 4.933594 13.546875 4.738281 13.523438 4.695312 13.34375 C 4.675781 13.269531 4.699219 13.203125 4.640625 13.15625 C 4.601562 13.121094 4.574219 13.140625 4.542969 13.09375 C 4.53125 13.074219 4.539062 13.035156 4.53125 13.011719 C 4.503906 12.964844 4.433594 12.910156 4.378906 12.898438 C 4.34375 12.894531 4.300781 12.921875 4.257812 12.917969 C 4.230469 12.914062 4.199219 12.894531 4.167969 12.890625 C 3.933594 12.875 4.121094 13.164062 3.984375 13.191406 C 3.878906 13.097656 3.835938 12.898438 3.785156 12.773438 C 3.742188 12.671875 3.777344 12.671875 3.851562 12.597656 C 3.914062 12.542969 3.964844 12.484375 4.019531 12.433594 C 4.074219 12.382812 4.308594 12.054688 4.277344 12.285156 C 4.261719 12.382812 4.109375 12.535156 4.304688 12.554688 C 4.371094 12.558594 4.542969 12.492188 4.59375 12.46875 C 4.632812 12.492188 4.675781 12.511719 4.71875 12.535156 C 4.730469 12.480469 4.738281 12.421875 4.71875 12.371094 C 4.683594 12.273438 4.59375 12.324219 4.550781 12.242188 C 4.519531 12.191406 4.515625 12.023438 4.539062 11.96875 C 4.570312 11.90625 4.671875 11.839844 4.730469 11.792969 C 4.671875 11.671875 4.640625 11.667969 4.515625 11.695312 C 4.371094 11.734375 4.433594 11.636719 4.320312 11.59375 C 4.234375 11.558594 4.140625 11.632812 4.039062 11.582031 C 3.972656 11.554688 3.917969 11.511719 3.847656 11.488281 C 3.824219 11.550781 3.832031 11.644531 3.785156 11.695312 C 3.71875 11.773438 3.695312 11.679688 3.652344 11.613281 C 3.578125 11.492188 3.59375 11.386719 3.53125 11.273438 C 3.464844 11.144531 3.398438 11.019531 3.460938 10.871094 C 3.511719 10.753906 3.5625 10.648438 3.585938 10.523438 C 3.601562 10.429688 3.59375 10.316406 3.695312 10.257812 C 3.695312 10.257812 3.695312 10.253906 3.695312 10.253906 C 3.742188 10.261719 3.785156 10.238281 3.824219 10.210938 Z M 3.824219 10.210938 " fill-opacity="1" fill-rule="nonzero"/></g></svg>