<svg xmlns="http://www.w3.org/2000/svg" xmlns:xlink="http://www.w3.org/1999/xlink" width="40" zoomAndPan="magnify" viewBox="0 0 30 30.000001" height="40" preserveAspectRatio="xMidYMid meet" version="1.0"><defs><clipPath id="99cc274df2"><path d="M 9.238281 2.902344 L 20.851562 2.902344 L 20.851562 26.128906 L 9.238281 26.128906 Z M 9.238281 2.902344 " clip-rule="nonzero"/></clipPath></defs><g clip-path="url(#99cc274df2)"><path fill="#014d4e" d="M 11.621094 5.867188 C 11.621094 5.867188 12.261719 5.242188 12.316406 5.171875 C 12.371094 5.101562 12.496094 4.742188 12.5625 4.703125 C 12.632812 4.660156 12.761719 4.605469 12.917969 4.523438 C 13.070312 4.4375 13.222656 4.253906 13.363281 4.136719 C 13.527344 4.003906 13.757812 3.859375 13.9375 3.792969 C 14.113281 3.722656 14.421875 3.46875 14.585938 3.386719 C 14.753906 3.304688 15.054688 3.269531 15.207031 3.269531 C 15.359375 3.269531 15.40625 3.191406 15.625 3.097656 C 15.847656 3 15.847656 2.902344 16.054688 3.097656 C 16.261719 3.289062 16.179688 3.691406 16.179688 3.691406 C 16.179688 3.691406 16.332031 3.707031 16.429688 3.652344 C 16.527344 3.597656 16.597656 3.582031 16.539062 3.5 C 16.484375 3.417969 16.402344 3.5 16.484375 3.417969 C 16.566406 3.335938 17.105469 3.386719 17.300781 3.5 C 17.34375 3.523438 17.316406 3.609375 17.300781 3.734375 C 17.285156 3.855469 17.230469 3.886719 17.382812 4.011719 C 17.535156 4.136719 17.617188 4.246094 17.660156 4.289062 C 17.703125 4.328125 17.8125 4.425781 17.8125 4.425781 L 17.648438 4.59375 L 17.5 4.703125 C 17.5 4.703125 17.382812 4.746094 17.578125 4.855469 C 17.769531 4.96875 17.949219 5.023438 18.128906 4.925781 C 18.40625 4.777344 18.628906 4.496094 18.726562 4.425781 C 18.824219 4.359375 18.976562 4.304688 19.113281 4.261719 C 19.253906 4.222656 19.378906 3.957031 19.585938 3.957031 C 19.792969 3.957031 19.847656 4.09375 19.863281 4.191406 C 19.878906 4.289062 19.78125 4.414062 19.738281 4.539062 C 19.695312 4.664062 19.53125 4.757812 19.503906 4.84375 C 19.476562 4.925781 19.367188 5.273438 19.269531 5.449219 C 19.171875 5.632812 19.046875 5.699219 18.980469 5.742188 C 18.910156 5.78125 18.769531 5.878906 18.714844 6.003906 C 18.660156 6.128906 18.617188 6.28125 18.507812 6.433594 C 18.398438 6.585938 18.339844 6.683594 18.285156 6.820312 C 18.230469 6.960938 18.1875 7.113281 18.300781 7.390625 C 18.410156 7.667969 18.5 7.78125 18.609375 7.851562 C 18.722656 7.921875 18.949219 8.011719 18.992188 8.027344 C 18.992188 8.027344 19.15625 8.191406 19.226562 8.261719 C 19.300781 8.335938 19.40625 8.460938 19.488281 8.46875 C 19.566406 8.476562 19.800781 8.558594 19.867188 8.65625 C 19.945312 8.777344 19.773438 8.925781 19.765625 9.03125 C 19.753906 9.140625 19.816406 9.203125 19.867188 9.417969 C 19.917969 9.632812 19.925781 9.945312 19.996094 10.007812 C 20.070312 10.070312 20.238281 10.117188 20.238281 10.117188 C 20.238281 10.117188 20.121094 10.222656 20.023438 10.320312 C 19.925781 10.421875 19.476562 10.984375 19.40625 11.089844 C 19.335938 11.199219 19.289062 11.269531 19.101562 11.441406 C 18.914062 11.609375 18.941406 11.558594 18.832031 11.726562 C 18.726562 11.898438 18.242188 12.523438 18.101562 12.59375 C 17.957031 12.667969 17.894531 12.675781 17.722656 12.773438 C 17.554688 12.871094 17.585938 12.738281 17.5 12.980469 C 17.417969 13.222656 17.320312 13.445312 17.0625 13.667969 C 16.800781 13.894531 16.550781 14.386719 16.613281 14.566406 C 16.675781 14.742188 16.796875 15.203125 17.328125 15.261719 C 17.902344 15.324219 18.464844 15.378906 18.503906 15.433594 C 18.539062 15.488281 18.671875 15.789062 18.691406 15.90625 C 18.707031 16.023438 18.753906 16.078125 18.808594 16.078125 C 18.859375 16.078125 18.878906 16.140625 18.957031 15.96875 C 19.039062 15.800781 19.128906 15.71875 19.21875 15.726562 C 19.308594 15.738281 19.558594 15.84375 19.558594 15.84375 C 19.558594 15.84375 19.460938 15.988281 19.414062 15.980469 C 19.414062 15.980469 19.613281 16.257812 19.710938 16.300781 C 19.808594 16.34375 19.882812 16.355469 19.882812 16.417969 C 19.882812 16.480469 19.640625 16.488281 19.640625 16.488281 C 19.640625 16.488281 19.863281 16.757812 20.203125 16.730469 C 20.203125 16.730469 20.292969 16.972656 20.570312 16.828125 C 20.570312 16.828125 20.625 18.082031 20.605469 18.226562 C 20.589844 18.367188 20.550781 19.050781 20.570312 19.148438 C 20.589844 19.246094 20.757812 19.390625 20.738281 19.46875 C 20.722656 19.550781 20.664062 19.828125 20.460938 19.863281 C 20.257812 19.898438 20.078125 19.90625 19.945312 19.972656 C 19.808594 20.035156 19.164062 20.453125 19.09375 20.515625 C 19.023438 20.578125 18.726562 21.0625 18.644531 21.109375 C 18.566406 21.152344 18.429688 21.144531 18.359375 21.222656 C 18.289062 21.304688 18.25 21.394531 18.242188 21.484375 C 18.234375 21.574219 18.136719 21.699219 18.101562 21.753906 C 18.0625 21.804688 17.832031 21.894531 17.722656 21.894531 C 17.617188 21.894531 17.390625 22.136719 17.304688 22.269531 C 17.214844 22.40625 17.007812 22.878906 17.132812 23.792969 C 17.257812 24.707031 17.222656 24.785156 17.167969 24.867188 C 17.113281 24.949219 16.875 25.503906 16.660156 25.574219 C 16.445312 25.644531 16.105469 25.707031 15.96875 25.746094 C 15.835938 25.78125 15.011719 26.128906 15.011719 26.128906 L 14.089844 20.636719 L 11.753906 19.320312 C 11.753906 19.320312 11.699219 18.71875 11.621094 18.628906 C 11.546875 18.539062 11.242188 18.058594 11.253906 17.941406 C 11.261719 17.824219 11.207031 17.296875 10.949219 17.179688 C 10.6875 17.0625 9.980469 16.75 9.890625 16.6875 C 9.800781 16.625 9.585938 16.167969 9.640625 15.988281 C 9.695312 15.808594 9.75 15.273438 9.507812 14.960938 C 9.265625 14.648438 9.238281 14.199219 9.472656 14.027344 C 9.703125 13.859375 10.089844 13.636719 10.152344 13.5 C 10.214844 13.367188 10.355469 13.035156 10.472656 12.964844 C 10.589844 12.890625 11.171875 12.613281 11.226562 12.570312 C 11.277344 12.527344 11.582031 12.058594 11.65625 11.945312 C 11.726562 11.828125 11.886719 11.71875 11.933594 11.667969 C 11.976562 11.613281 12.101562 10.96875 12.113281 10.886719 C 12.121094 10.808594 12.15625 10.886719 12.28125 10.78125 C 12.40625 10.671875 12.453125 10.464844 12.433594 10.339844 C 12.414062 10.214844 12.113281 9.652344 12.085938 9.597656 C 12.058594 9.542969 11.949219 8.460938 11.949219 8.382812 C 11.949219 8.300781 11.726562 7.53125 11.726562 7.476562 C 11.726562 7.421875 11.898438 6.582031 11.914062 6.527344 C 11.933594 6.476562 12.121094 6.261719 12.085938 6.207031 C 12.050781 6.152344 11.726562 5.957031 11.691406 5.945312 C 11.652344 5.9375 11.621094 5.867188 11.621094 5.867188 Z M 11.621094 5.867188 " fill-opacity="1" fill-rule="nonzero"/></g></svg>