<svg xmlns="http://www.w3.org/2000/svg" xmlns:xlink="http://www.w3.org/1999/xlink" width="40" zoomAndPan="magnify" viewBox="0 0 30 30.000001" height="40" preserveAspectRatio="xMidYMid meet" version="1.0"><defs><clipPath id="27fab316a1"><path d="M 3.386719 9.609375 L 26.613281 9.609375 L 26.613281 19.769531 L 3.386719 19.769531 Z M 3.386719 9.609375 " clip-rule="nonzero"/></clipPath></defs><g clip-path="url(#27fab316a1)"><path fill="#014d4e" d="M 5.832031 12.226562 L 5.839844 12.3125 L 5.777344 12.289062 L 5.707031 12.277344 L 5.71875 12.222656 L 5.742188 12.230469 L 5.726562 12.183594 L 5.773438 12.183594 L 5.777344 12.199219 L 5.785156 12.1875 L 5.816406 12.210938 L 5.800781 12.253906 L 5.8125 12.261719 Z M 5.644531 12.0625 L 5.710938 12.105469 L 5.730469 12.09375 L 5.753906 12.105469 L 5.820312 12.074219 L 5.835938 12.066406 L 5.835938 12.054688 L 5.84375 12.054688 L 5.902344 12.027344 L 5.933594 11.996094 L 5.878906 11.957031 L 5.851562 11.957031 L 5.828125 11.917969 L 5.820312 11.933594 L 5.800781 11.941406 L 5.800781 11.9375 L 5.789062 11.929688 L 5.765625 11.949219 L 5.753906 11.9375 L 5.707031 11.957031 L 5.703125 11.972656 L 5.6875 11.953125 L 5.65625 11.972656 L 5.640625 12 L 5.652344 12.023438 Z M 5.597656 12.273438 L 5.628906 12.269531 L 5.636719 12.25 L 5.683594 12.230469 L 5.667969 12.207031 L 5.707031 12.175781 L 5.667969 12.152344 L 5.640625 12.132812 L 5.609375 12.171875 L 5.605469 12.195312 L 5.578125 12.222656 L 5.59375 12.246094 Z M 6.839844 12.175781 L 6.859375 12.207031 L 6.898438 12.1875 L 6.902344 12.164062 L 6.890625 12.132812 L 6.925781 12.09375 L 6.839844 12.09375 L 6.855469 12.132812 Z M 3.917969 13.316406 L 3.90625 13.292969 L 3.914062 13.277344 L 3.898438 13.246094 L 3.882812 13.242188 L 3.871094 13.230469 L 3.851562 13.242188 L 3.804688 13.234375 L 3.75 13.246094 L 3.75 13.289062 L 3.8125 13.3125 L 3.875 13.355469 Z M 3.804688 12.800781 L 3.835938 12.773438 L 3.832031 12.714844 L 3.804688 12.746094 L 3.789062 12.742188 L 3.785156 12.757812 L 3.78125 12.757812 L 3.78125 12.746094 L 3.792969 12.734375 L 3.785156 12.714844 L 3.792969 12.652344 L 3.761719 12.640625 L 3.761719 12.628906 L 3.75 12.609375 L 3.691406 12.617188 L 3.621094 12.652344 L 3.546875 12.65625 L 3.402344 12.753906 L 3.386719 12.808594 L 3.4375 12.824219 L 3.488281 12.867188 L 3.519531 12.851562 L 3.558594 12.855469 L 3.566406 12.84375 L 3.609375 12.847656 L 3.722656 12.804688 L 3.75 12.808594 Z M 26.589844 17.15625 L 26.609375 17.199219 L 26.601562 17.222656 L 26.574219 17.257812 L 26.550781 17.261719 L 26.53125 17.289062 L 26.542969 17.347656 L 26.5625 17.371094 L 26.566406 17.445312 L 26.523438 17.402344 L 26.523438 17.394531 L 26.519531 17.398438 L 26.464844 17.382812 L 26.441406 17.390625 L 26.433594 17.378906 L 26.414062 17.394531 L 26.378906 17.359375 L 26.375 17.359375 L 26.328125 17.398438 L 26.308594 17.402344 L 26.277344 17.441406 L 26.273438 17.464844 L 26.242188 17.480469 L 26.222656 17.503906 L 26.171875 17.539062 L 26.148438 17.546875 L 26.109375 17.574219 L 26.066406 17.570312 L 26.039062 17.582031 L 26.058594 17.613281 L 26.011719 17.65625 L 25.996094 17.714844 L 25.964844 17.695312 L 25.929688 17.691406 L 25.898438 17.660156 L 25.859375 17.597656 L 25.875 17.582031 L 25.871094 17.570312 L 25.832031 17.535156 L 25.816406 17.503906 L 25.816406 17.484375 L 25.871094 17.394531 L 25.902344 17.398438 L 25.925781 17.390625 L 25.929688 17.367188 L 25.910156 17.347656 L 25.921875 17.324219 L 25.917969 17.28125 L 25.894531 17.265625 L 25.875 17.234375 L 25.855469 17.238281 L 25.820312 17.210938 L 25.785156 17.203125 L 25.753906 17.175781 L 25.703125 17.191406 L 25.65625 17.171875 L 25.632812 17.195312 L 25.628906 17.179688 L 25.609375 17.214844 L 25.570312 17.222656 L 25.570312 17.253906 L 25.558594 17.257812 L 25.558594 17.28125 L 25.519531 17.324219 L 25.4375 17.328125 L 25.433594 17.332031 L 25.433594 17.355469 L 25.410156 17.378906 L 25.375 17.316406 L 25.34375 17.316406 L 25.308594 17.304688 L 25.257812 17.308594 L 25.246094 17.304688 L 25.195312 17.316406 L 25.1875 17.332031 L 25.144531 17.328125 L 25.136719 17.308594 L 25.121094 17.3125 L 25.097656 17.300781 L 25.082031 17.277344 L 25.015625 17.300781 L 24.960938 17.28125 L 24.960938 17.265625 L 24.945312 17.257812 L 24.890625 17.238281 L 24.859375 17.210938 L 24.835938 17.199219 L 24.828125 17.175781 L 24.800781 17.175781 L 24.789062 17.210938 L 24.765625 17.214844 L 24.714844 17.195312 L 24.710938 17.175781 L 24.699219 17.175781 L 24.671875 17.152344 L 24.535156 17.109375 L 24.523438 17.121094 L 24.488281 17.121094 L 24.476562 17.132812 L 24.453125 17.136719 L 24.429688 17.136719 L 24.414062 17.167969 L 24.367188 17.175781 L 24.34375 17.199219 L 24.230469 17.15625 L 24.214844 17.144531 L 24.1875 17.152344 L 24.171875 17.105469 L 24.144531 17.097656 L 24.082031 17.15625 L 24.074219 17.195312 L 24.035156 17.199219 L 24.042969 17.210938 L 24.035156 17.195312 L 24.015625 17.203125 L 24.011719 17.226562 L 23.988281 17.226562 L 23.980469 17.238281 L 23.984375 17.261719 L 23.941406 17.300781 L 23.945312 17.316406 L 23.917969 17.347656 L 23.894531 17.410156 L 23.875 17.421875 L 23.855469 17.414062 L 23.808594 17.421875 L 23.804688 17.433594 L 23.769531 17.4375 L 23.753906 17.425781 L 23.65625 17.46875 L 23.628906 17.46875 L 23.601562 17.492188 L 23.597656 17.449219 L 23.601562 17.441406 L 23.574219 17.398438 L 23.558594 17.351562 L 23.582031 17.308594 L 23.582031 17.285156 L 23.554688 17.265625 L 23.542969 17.246094 L 23.519531 17.242188 L 23.515625 17.21875 L 23.496094 17.234375 L 23.464844 17.214844 L 23.441406 17.222656 L 23.417969 17.214844 L 23.417969 17.199219 L 23.230469 17.359375 L 23.195312 17.367188 L 23.128906 17.398438 L 23.09375 17.398438 L 22.9375 17.441406 L 22.816406 17.464844 L 22.753906 17.464844 L 22.648438 17.507812 L 22.582031 17.515625 L 22.292969 17.515625 L 22.261719 17.523438 L 22.238281 17.539062 L 22.214844 17.535156 L 22.199219 17.507812 L 22.164062 17.488281 L 22.109375 17.488281 L 21.859375 17.433594 L 21.796875 17.445312 L 21.792969 17.460938 L 21.769531 17.46875 L 21.738281 17.441406 L 21.71875 17.445312 L 21.691406 17.4375 L 21.683594 17.449219 L 21.601562 17.46875 L 21.53125 17.511719 L 21.472656 17.53125 L 21.40625 17.578125 L 21.261719 17.601562 L 21.199219 17.679688 L 21.046875 17.761719 L 20.980469 17.816406 L 20.84375 17.847656 L 20.804688 17.890625 L 20.753906 17.902344 L 20.601562 17.960938 L 20.542969 18 L 20.414062 18.011719 L 20.328125 18.046875 L 20.261719 18.050781 L 20.152344 18.085938 L 19.976562 18.101562 L 19.808594 18.132812 L 19.800781 18.132812 L 19.628906 18.082031 L 19.578125 18.074219 L 19.410156 18.089844 L 19.234375 18.082031 L 19.152344 18.023438 L 19.054688 17.929688 L 19.007812 17.871094 L 18.8125 17.789062 L 18.730469 17.789062 L 18.640625 17.753906 L 18.609375 17.777344 L 18.558594 17.773438 L 18.550781 17.789062 L 18.449219 17.824219 L 18.433594 17.84375 L 18.394531 17.847656 L 18.390625 17.851562 L 18.390625 17.882812 L 18.367188 17.902344 L 18.339844 17.890625 L 18.28125 17.90625 L 18.230469 17.949219 L 18.113281 17.992188 L 18.089844 18.015625 L 17.984375 18 L 17.960938 18.019531 L 17.929688 18.011719 L 17.882812 18.046875 L 17.816406 18.082031 L 17.742188 18.117188 L 17.738281 18.140625 L 17.714844 18.179688 L 17.667969 18.179688 L 17.636719 18.160156 L 17.476562 18.125 L 17.472656 18.132812 L 17.390625 18.113281 L 17.320312 18.148438 L 17.296875 18.117188 L 17.289062 18.128906 L 17.269531 18.117188 L 17.257812 18.152344 L 17.234375 18.175781 L 17.191406 18.160156 L 17.1875 18.140625 L 17.144531 18.128906 L 17.136719 18.089844 L 17.144531 18.066406 L 17.167969 18.058594 L 17.175781 18.042969 L 17.167969 18.027344 L 17.140625 18.027344 L 17.113281 18.015625 L 17.113281 17.992188 L 17.109375 17.984375 L 17.035156 17.953125 L 17 17.960938 L 16.890625 17.933594 L 16.890625 17.9375 L 16.878906 17.929688 L 16.871094 17.925781 L 16.871094 17.917969 L 16.835938 17.894531 L 16.742188 17.878906 L 16.753906 17.914062 L 16.714844 17.933594 L 16.710938 17.957031 L 16.675781 17.992188 L 16.695312 18.027344 L 16.691406 18.046875 L 16.667969 18.09375 L 16.625 18.128906 L 16.628906 18.183594 L 16.644531 18.230469 L 16.621094 18.324219 L 16.589844 18.359375 L 16.585938 18.382812 L 16.605469 18.417969 L 16.601562 18.441406 L 16.609375 18.449219 L 16.609375 18.472656 L 16.625 18.484375 L 16.632812 18.511719 L 16.664062 18.507812 L 16.652344 18.550781 L 16.679688 18.578125 L 16.679688 18.585938 L 16.71875 18.597656 L 16.734375 18.621094 L 16.722656 18.652344 L 16.777344 18.660156 L 16.753906 18.703125 L 16.769531 18.726562 L 16.769531 18.75 L 16.722656 18.78125 L 16.6875 18.773438 L 16.6875 18.785156 L 16.667969 18.804688 L 16.605469 18.777344 L 16.582031 18.796875 L 16.558594 18.765625 L 16.535156 18.765625 L 16.53125 18.800781 L 16.515625 18.792969 L 16.480469 18.832031 L 16.421875 18.816406 L 16.390625 18.796875 L 16.386719 18.796875 L 16.40625 18.828125 L 16.367188 18.851562 L 16.363281 18.863281 L 16.386719 18.890625 L 16.378906 18.9375 L 16.390625 18.953125 L 16.398438 18.980469 L 16.402344 18.988281 L 16.398438 18.996094 L 16.382812 19.007812 L 16.382812 19.105469 L 16.320312 19.140625 L 16.277344 19.109375 L 16.273438 19.109375 L 16.269531 19.128906 L 16.289062 19.171875 L 16.269531 19.195312 L 16.242188 19.199219 L 16.210938 19.179688 L 16.15625 19.199219 L 16.132812 19.238281 L 16.128906 19.289062 L 16.132812 19.316406 L 16.117188 19.386719 L 16.09375 19.410156 L 16.070312 19.382812 L 16.0625 19.351562 L 16.039062 19.328125 L 15.890625 19.292969 L 15.914062 19.226562 L 15.90625 19.210938 L 15.882812 19.210938 L 15.828125 19.242188 L 15.789062 19.226562 L 15.800781 19.171875 L 15.867188 19.097656 L 15.867188 19.09375 L 15.765625 18.886719 L 15.640625 18.707031 L 15.625 18.671875 L 15.625 18.628906 L 15.660156 18.601562 L 15.671875 18.570312 L 15.714844 18.554688 L 15.722656 18.515625 L 15.75 18.484375 L 15.765625 18.484375 L 15.78125 18.445312 L 15.867188 18.402344 L 15.941406 18.308594 L 16.003906 18.28125 L 16.078125 18.226562 L 16.121094 18.222656 L 16.132812 18.175781 L 16.144531 18.15625 L 16.144531 18.117188 L 16.121094 18.066406 L 16.132812 18.035156 L 16.117188 18.003906 L 16.136719 17.972656 L 16.132812 17.949219 L 16.074219 17.859375 L 16.027344 17.804688 L 15.960938 17.761719 L 15.910156 17.738281 L 15.851562 17.796875 L 15.816406 17.820312 L 15.78125 17.878906 L 15.730469 17.917969 L 15.71875 17.945312 L 15.648438 17.992188 L 15.605469 17.984375 L 15.554688 18.003906 L 15.535156 17.992188 L 15.507812 17.992188 L 15.496094 18.011719 L 15.496094 18.035156 L 15.507812 18.039062 L 15.503906 18.058594 L 15.519531 18.050781 L 15.519531 18.019531 L 15.585938 18.0625 L 15.484375 18.136719 L 15.472656 18.15625 L 15.464844 18.226562 L 15.4375 18.25 L 15.398438 18.265625 L 15.382812 18.289062 L 15.359375 18.296875 L 15.339844 18.285156 L 15.289062 18.269531 L 15.214844 18.261719 L 15.195312 18.265625 L 15.195312 18.28125 L 15.09375 18.339844 L 15.085938 18.3125 L 15.058594 18.292969 L 14.691406 18.074219 L 14.640625 18.058594 L 14.578125 18.058594 L 14.570312 18.066406 L 14.5625 18.058594 L 14.539062 18.058594 L 14.554688 18.042969 L 14.535156 18.003906 L 14.511719 17.980469 L 14.445312 17.945312 L 14.390625 17.929688 L 14.257812 17.9375 L 14.222656 17.96875 L 14.15625 17.992188 L 14.148438 18.003906 L 14.136719 18.035156 L 14.054688 18.082031 L 13.996094 18.148438 L 13.910156 18.191406 L 13.867188 18.238281 L 13.804688 18.273438 L 13.753906 18.347656 L 13.703125 18.394531 L 13.683594 18.441406 L 13.636719 18.464844 L 13.613281 18.503906 L 13.582031 18.519531 L 13.578125 18.652344 L 13.535156 18.703125 L 13.511719 18.6875 L 13.5 18.691406 L 13.460938 18.730469 L 13.441406 18.792969 L 13.402344 18.78125 L 13.402344 18.734375 L 13.390625 18.703125 L 13.355469 18.667969 L 13.324219 18.664062 L 13.296875 18.695312 L 13.304688 18.71875 L 13.277344 18.726562 L 13.28125 18.730469 L 13.242188 18.785156 L 13.1875 18.820312 L 13.125 18.871094 L 13.121094 18.882812 L 13.128906 18.890625 L 13.128906 18.917969 L 13.097656 18.941406 L 13.074219 18.910156 L 13.074219 18.898438 L 13.054688 18.898438 L 13.054688 18.851562 L 13.046875 18.847656 L 13.011719 18.859375 L 12.996094 18.871094 L 12.957031 18.949219 L 12.917969 18.949219 L 12.90625 18.925781 L 12.835938 18.90625 L 12.777344 18.929688 L 12.75 18.957031 L 12.726562 18.933594 L 12.695312 18.933594 L 12.6875 18.917969 L 12.628906 18.949219 L 12.519531 18.949219 L 12.445312 18.933594 L 12.429688 18.941406 L 12.351562 19.066406 L 12.351562 19.015625 L 12.324219 19 L 12.207031 18.984375 L 12.121094 19.027344 L 12.082031 19.066406 L 12.050781 19.085938 L 12.03125 19.117188 L 11.984375 19.09375 L 11.851562 19.070312 L 11.730469 18.988281 L 11.703125 19 L 11.636719 18.972656 L 11.605469 18.9375 L 11.503906 18.875 L 11.472656 18.824219 L 11.410156 18.792969 L 11.382812 18.738281 L 11.375 18.710938 L 11.304688 18.640625 L 11.246094 18.515625 L 11.203125 18.472656 L 11.183594 18.441406 L 11.136719 18.386719 L 11.074219 18.335938 L 11.0625 18.335938 L 11.058594 18.351562 L 11.027344 18.355469 L 11.023438 18.332031 L 10.996094 18.3125 L 10.945312 18.304688 L 10.871094 18.265625 L 10.808594 18.25 L 10.789062 18.238281 L 10.765625 18.242188 L 10.765625 18.21875 L 10.734375 18.191406 L 10.644531 18.171875 L 10.605469 18.136719 L 10.503906 18.074219 L 10.398438 18.027344 L 10.292969 18 L 10.300781 17.980469 L 10.296875 17.976562 L 10.269531 17.953125 L 10.230469 17.9375 L 9.988281 17.902344 L 9.84375 17.867188 L 9.585938 17.882812 L 9.578125 17.871094 L 9.542969 17.882812 L 9.5 17.863281 L 9.46875 17.824219 L 9.445312 17.828125 L 9.402344 17.863281 L 9.335938 17.949219 L 9.320312 18.050781 L 9.335938 18.089844 L 9.332031 18.136719 L 9.3125 18.175781 L 9.3125 18.207031 L 9.320312 18.230469 L 9.324219 18.238281 L 9.34375 18.230469 L 9.355469 18.257812 L 9.3125 18.335938 L 9.308594 18.355469 L 9.292969 18.363281 L 9.292969 18.378906 L 9.253906 18.445312 L 9.261719 18.453125 L 9.246094 18.488281 L 9.222656 18.492188 L 9.222656 18.496094 L 9.207031 18.539062 L 9.21875 18.558594 L 9.242188 18.578125 L 9.246094 18.609375 L 9.265625 18.609375 L 9.269531 18.644531 L 9.207031 18.671875 L 9.21875 18.6875 L 9.21875 18.726562 L 9.164062 18.765625 L 9.15625 18.777344 L 9.15625 18.792969 L 9.109375 18.832031 L 9.089844 18.820312 L 9.09375 18.78125 L 9.078125 18.765625 L 9.097656 18.75 L 9.097656 18.742188 L 9.085938 18.738281 L 9.054688 18.75 L 9 18.703125 L 8.953125 18.675781 L 8.84375 18.675781 L 8.808594 18.691406 L 8.808594 18.734375 L 8.777344 18.761719 L 8.777344 18.753906 L 8.757812 18.78125 L 8.710938 18.777344 L 8.691406 18.753906 L 8.683594 18.765625 L 8.609375 18.808594 L 8.601562 18.824219 L 8.539062 18.816406 L 8.527344 18.796875 L 8.511719 18.800781 L 8.507812 18.820312 L 8.496094 18.820312 L 8.507812 18.828125 L 8.476562 18.847656 L 8.425781 18.863281 L 8.40625 18.875 L 8.410156 18.890625 L 8.339844 18.941406 L 8.292969 18.917969 L 8.304688 18.914062 L 8.296875 18.910156 L 8.292969 18.914062 L 8.273438 18.90625 L 8.214844 18.953125 L 8.207031 18.925781 L 8.179688 18.933594 L 8.21875 18.898438 L 8.191406 18.875 L 8.214844 18.847656 L 8.199219 18.847656 L 8.183594 18.863281 L 8.109375 18.867188 L 8.140625 18.839844 L 8.132812 18.839844 L 8.125 18.828125 L 8.042969 18.828125 L 8 18.820312 L 7.960938 18.796875 L 7.953125 18.796875 L 7.929688 18.816406 L 7.910156 18.761719 L 7.914062 18.753906 L 7.902344 18.742188 L 7.894531 18.742188 L 7.886719 18.78125 L 7.863281 18.796875 L 7.8125 18.761719 L 7.746094 18.703125 L 7.734375 18.691406 L 7.695312 18.644531 L 7.671875 18.644531 L 7.664062 18.640625 L 7.660156 18.644531 L 7.640625 18.625 L 7.621094 18.628906 L 7.613281 18.601562 L 7.582031 18.597656 L 7.59375 18.574219 L 7.539062 18.574219 L 7.5625 18.554688 L 7.539062 18.558594 L 7.546875 18.515625 L 7.570312 18.492188 L 7.574219 18.492188 L 7.5625 18.480469 L 7.578125 18.472656 L 7.558594 18.4375 L 7.539062 18.414062 L 7.558594 18.363281 L 7.570312 18.316406 L 7.53125 18.3125 L 7.527344 18.296875 L 7.496094 18.304688 L 7.496094 18.332031 L 7.457031 18.332031 L 7.421875 18.3125 L 7.445312 18.289062 L 7.457031 18.292969 L 7.464844 18.285156 L 7.449219 18.285156 L 7.464844 18.183594 L 7.507812 18.195312 L 7.507812 18.148438 L 7.539062 18.152344 L 7.558594 18.171875 L 7.558594 18.160156 L 7.535156 18.125 L 7.484375 18.113281 L 7.441406 18.066406 L 7.414062 18.074219 L 7.378906 18.042969 L 7.355469 18.035156 L 7.351562 18.023438 L 7.328125 18.039062 L 7.324219 18.0625 L 7.316406 18.0625 L 7.300781 18.089844 L 7.28125 18.085938 L 7.277344 18.101562 L 7.265625 18.09375 L 7.265625 18.109375 L 7.28125 18.117188 L 7.261719 18.132812 L 7.265625 18.136719 L 7.265625 18.140625 L 7.300781 18.136719 L 7.324219 18.171875 L 7.289062 18.179688 L 7.269531 18.203125 L 7.285156 18.238281 L 7.257812 18.238281 L 7.234375 18.261719 L 7.195312 18.207031 L 7.195312 18.175781 L 7.203125 18.171875 L 7.195312 18.148438 L 7.148438 18.167969 L 7.171875 18.113281 L 7.15625 18.09375 L 7.089844 18.070312 L 7.011719 18.09375 L 7.019531 18.066406 L 7.015625 18.066406 L 7.015625 18.050781 L 7.011719 18.050781 L 6.992188 18.085938 L 6.957031 18.074219 L 6.953125 18.042969 L 6.945312 18.015625 L 6.960938 17.996094 L 6.949219 17.972656 L 6.96875 17.953125 L 6.925781 17.90625 L 6.902344 17.90625 L 6.898438 17.902344 L 6.898438 17.90625 L 6.878906 17.914062 L 6.886719 17.925781 L 6.871094 17.957031 L 6.839844 17.945312 L 6.839844 17.9375 L 6.820312 17.949219 L 6.796875 17.910156 L 6.804688 17.902344 L 6.773438 17.90625 L 6.753906 17.882812 L 6.753906 17.863281 L 6.765625 17.828125 L 6.777344 17.824219 L 6.777344 17.816406 L 6.773438 17.8125 L 6.765625 17.824219 L 6.734375 17.84375 L 6.714844 17.847656 L 6.753906 17.851562 L 6.75 17.890625 L 6.714844 17.949219 L 6.683594 17.945312 L 6.648438 17.914062 L 6.609375 17.90625 L 6.625 17.933594 L 6.550781 17.933594 L 6.550781 17.929688 L 6.546875 17.949219 L 6.566406 17.957031 L 6.566406 17.980469 L 6.589844 17.980469 L 6.613281 18.027344 L 6.570312 18.058594 L 6.558594 18.027344 L 6.546875 18.035156 L 6.542969 18.046875 L 6.511719 18.070312 L 6.507812 18.09375 L 6.441406 18.109375 L 6.425781 18.105469 L 6.4375 18.113281 L 6.414062 18.140625 L 6.414062 18.15625 L 6.363281 18.238281 L 6.335938 18.25 L 6.320312 18.242188 L 6.296875 18.265625 L 6.242188 18.292969 L 6.246094 18.265625 L 6.203125 18.3125 L 6.195312 18.273438 L 6.171875 18.25 L 6.1875 18.238281 L 6.164062 18.21875 L 6.179688 18.195312 L 6.210938 18.183594 L 6.261719 18.199219 L 6.285156 18.191406 L 6.296875 18.195312 L 6.324219 18.152344 L 6.320312 18.140625 L 6.320312 18.152344 L 6.269531 18.140625 L 6.289062 18.109375 L 6.277344 18.109375 L 6.257812 18.117188 L 6.246094 18.113281 L 6.21875 18.125 L 6.171875 18.109375 L 6.171875 18.085938 L 6.191406 18.066406 L 6.214844 18.0625 L 6.230469 18.039062 L 6.246094 18.035156 L 6.257812 18.035156 L 6.289062 18.011719 L 6.335938 18 L 6.320312 17.996094 L 6.3125 17.972656 L 6.332031 17.945312 L 6.3125 17.949219 L 6.3125 17.960938 L 6.289062 17.972656 L 6.277344 17.957031 L 6.257812 17.96875 L 6.242188 17.960938 L 6.222656 17.976562 L 6.199219 17.976562 L 6.1875 17.992188 L 6.171875 17.980469 L 6.148438 18.003906 L 6.121094 17.980469 L 6.125 17.996094 L 6.085938 18 L 6.085938 17.992188 L 6.058594 18 L 6.042969 17.992188 L 6.023438 17.996094 L 6.019531 17.972656 L 6 17.960938 L 5.992188 17.976562 L 5.910156 17.96875 L 5.875 18.011719 L 5.882812 18.027344 L 5.875 18.050781 L 5.859375 18.058594 L 5.855469 18.125 L 5.828125 18.105469 L 5.808594 18.109375 L 5.792969 18.09375 L 5.769531 18.101562 L 5.753906 18.085938 L 5.730469 18.089844 L 5.722656 18.085938 L 5.707031 18.101562 L 5.699219 18.085938 L 5.675781 18.101562 L 5.65625 18.089844 L 5.605469 18.128906 L 5.589844 18.105469 L 5.523438 18.105469 L 5.503906 18.09375 L 5.503906 18.082031 L 5.4375 18.070312 L 5.464844 18.050781 L 5.449219 18.015625 L 5.519531 18.027344 L 5.527344 18.019531 L 5.527344 18.011719 L 5.511719 17.996094 L 5.542969 17.957031 L 5.5625 17.960938 L 5.585938 17.933594 L 5.609375 17.949219 L 5.613281 17.949219 L 5.632812 17.957031 L 5.726562 17.929688 L 5.753906 17.933594 L 5.769531 17.914062 L 5.765625 17.890625 L 5.789062 17.886719 L 5.789062 17.863281 L 5.851562 17.882812 L 5.863281 17.902344 L 5.921875 17.902344 L 6.015625 17.859375 L 6.058594 17.871094 L 6.125 17.863281 L 6.144531 17.882812 L 6.246094 17.882812 L 6.265625 17.886719 L 6.289062 17.882812 L 6.300781 17.878906 L 6.296875 17.863281 L 6.304688 17.851562 L 6.304688 17.847656 L 6.277344 17.859375 L 6.214844 17.839844 L 6.242188 17.824219 L 6.21875 17.8125 L 6.265625 17.777344 L 6.277344 17.78125 L 6.28125 17.773438 L 6.285156 17.773438 L 6.285156 17.769531 L 6.269531 17.769531 L 6.285156 17.746094 L 6.214844 17.722656 L 6.261719 17.710938 L 6.261719 17.679688 L 6.289062 17.683594 L 6.285156 17.664062 L 6.367188 17.65625 L 6.386719 17.664062 L 6.398438 17.660156 L 6.425781 17.667969 L 6.425781 17.664062 L 6.433594 17.664062 L 6.417969 17.65625 L 6.464844 17.636719 L 6.480469 17.648438 L 6.484375 17.644531 L 6.480469 17.613281 L 6.453125 17.601562 L 6.5 17.589844 L 6.5 17.566406 L 6.511719 17.621094 L 6.503906 17.613281 L 6.613281 17.570312 L 6.609375 17.554688 L 6.558594 17.558594 L 6.519531 17.574219 L 6.460938 17.574219 L 6.425781 17.589844 L 6.371094 17.582031 L 6.375 17.601562 L 6.335938 17.617188 L 6.324219 17.589844 L 6.246094 17.597656 L 6.199219 17.582031 L 6.191406 17.597656 L 6.152344 17.605469 L 6.128906 17.589844 L 6.105469 17.597656 L 6.085938 17.589844 L 6.011719 17.613281 L 5.988281 17.636719 L 5.917969 17.648438 L 5.917969 17.636719 L 5.910156 17.636719 L 5.882812 17.625 L 5.863281 17.636719 L 5.839844 17.625 L 5.816406 17.640625 L 5.800781 17.636719 L 5.789062 17.664062 L 5.742188 17.65625 L 5.726562 17.644531 L 5.699219 17.679688 L 5.667969 17.65625 L 5.644531 17.648438 L 5.636719 17.660156 L 5.589844 17.65625 L 5.546875 17.613281 L 5.527344 17.582031 L 5.511719 17.617188 L 5.496094 17.597656 L 5.488281 17.617188 L 5.449219 17.648438 L 5.457031 17.59375 L 5.417969 17.601562 L 5.417969 17.640625 L 5.382812 17.664062 L 5.386719 17.683594 L 5.363281 17.691406 L 5.351562 17.683594 L 5.316406 17.6875 L 5.300781 17.660156 L 5.304688 17.617188 L 5.296875 17.578125 L 5.273438 17.566406 L 5.261719 17.527344 L 5.28125 17.511719 L 5.285156 17.480469 L 5.300781 17.484375 L 5.304688 17.46875 L 5.304688 17.464844 L 5.300781 17.417969 L 5.339844 17.394531 L 5.375 17.421875 L 5.371094 17.410156 L 5.390625 17.398438 L 5.382812 17.359375 L 5.433594 17.390625 L 5.441406 17.371094 L 5.476562 17.382812 L 5.476562 17.390625 L 5.511719 17.378906 L 5.484375 17.414062 L 5.53125 17.417969 L 5.550781 17.460938 L 5.574219 17.472656 L 5.570312 17.488281 L 5.585938 17.472656 L 5.585938 17.460938 L 5.636719 17.433594 L 5.644531 17.414062 L 5.664062 17.414062 L 5.664062 17.398438 L 5.652344 17.398438 L 5.640625 17.371094 L 5.640625 17.367188 L 5.644531 17.34375 L 5.613281 17.316406 L 5.667969 17.308594 L 5.6875 17.277344 L 5.726562 17.21875 L 5.726562 17.203125 L 5.710938 17.210938 L 5.710938 17.203125 L 5.707031 17.210938 L 5.679688 17.199219 L 5.652344 17.253906 L 5.65625 17.261719 L 5.636719 17.277344 L 5.574219 17.242188 L 5.617188 17.226562 L 5.609375 17.214844 L 5.621094 17.210938 L 5.617188 17.199219 L 5.621094 17.195312 L 5.617188 17.195312 L 5.613281 17.210938 L 5.597656 17.210938 L 5.597656 17.222656 L 5.554688 17.238281 L 5.546875 17.214844 L 5.570312 17.191406 L 5.578125 17.160156 L 5.59375 17.152344 L 5.605469 17.121094 L 5.597656 17.113281 L 5.554688 17.15625 L 5.507812 17.152344 L 5.476562 17.121094 L 5.464844 17.058594 L 5.511719 17.019531 L 5.527344 17.015625 L 5.527344 17 L 5.511719 16.988281 L 5.480469 17 L 5.453125 17.054688 L 5.429688 17.058594 L 5.417969 17.054688 L 5.417969 17.058594 L 5.4375 17.082031 L 5.414062 17.101562 L 5.363281 17.078125 L 5.355469 17.078125 L 5.339844 17.101562 L 5.316406 17.105469 L 5.230469 17.070312 L 5.253906 17.042969 L 5.257812 16.992188 L 5.277344 16.988281 L 5.265625 16.972656 L 5.28125 16.910156 L 5.277344 16.902344 L 5.25 16.898438 L 5.238281 16.816406 L 5.21875 16.824219 L 5.207031 16.800781 L 5.210938 16.777344 L 5.230469 16.769531 L 5.238281 16.746094 L 5.261719 16.746094 L 5.261719 16.742188 L 5.234375 16.71875 L 5.160156 16.683594 L 5.050781 16.65625 L 5.019531 16.664062 L 5.027344 16.644531 L 5.007812 16.636719 L 5.027344 16.585938 L 5.050781 16.574219 L 5.128906 16.589844 L 5.265625 16.542969 L 5.285156 16.527344 L 5.304688 16.5 L 5.324219 16.410156 L 5.320312 16.394531 L 5.304688 16.394531 L 5.285156 16.363281 L 5.296875 16.324219 L 5.316406 16.3125 L 5.320312 16.28125 L 5.320312 16.277344 L 5.316406 16.277344 L 5.308594 16.253906 L 5.328125 16.234375 L 5.328125 16.21875 L 5.308594 16.175781 L 5.296875 16.167969 L 5.261719 16.152344 L 5.214844 16.164062 L 5.160156 16.152344 L 5.121094 16.109375 L 5.078125 16.105469 L 5.074219 16.078125 L 5.054688 16.058594 L 5.015625 16.050781 L 4.976562 16.019531 L 4.945312 16.019531 L 4.898438 16.035156 L 4.875 16.054688 L 4.855469 16.089844 L 4.832031 16.085938 L 4.804688 16.011719 L 4.808594 15.972656 L 4.785156 15.941406 L 4.789062 15.929688 L 4.769531 15.910156 L 4.773438 15.894531 L 4.753906 15.878906 L 4.75 15.878906 L 4.742188 15.894531 L 4.703125 15.863281 L 4.71875 15.8125 L 4.703125 15.804688 L 4.671875 15.820312 L 4.589844 15.820312 L 4.566406 15.832031 L 4.558594 15.929688 L 4.539062 15.929688 L 4.546875 15.964844 L 4.527344 15.984375 L 4.503906 15.984375 L 4.480469 15.96875 L 4.484375 15.945312 L 4.472656 15.96875 L 4.425781 15.945312 L 4.394531 15.878906 L 4.394531 15.867188 L 4.386719 15.875 L 4.363281 15.859375 L 4.363281 15.851562 L 4.324219 15.855469 L 4.324219 15.859375 L 4.246094 15.796875 L 4.246094 15.785156 L 4.230469 15.796875 L 4.1875 15.804688 L 4.144531 15.773438 L 4.121094 15.742188 L 4.097656 15.738281 L 4.070312 15.746094 L 4.046875 15.726562 L 4.050781 15.675781 L 4.078125 15.675781 L 4.089844 15.683594 L 4.101562 15.679688 L 4.105469 15.671875 L 4.105469 15.628906 L 4.121094 15.632812 L 4.113281 15.613281 L 4.105469 15.546875 L 4.144531 15.582031 L 4.191406 15.589844 L 4.167969 15.609375 L 4.167969 15.617188 L 4.179688 15.621094 L 4.195312 15.582031 L 4.203125 15.640625 L 4.21875 15.652344 L 4.226562 15.644531 L 4.226562 15.554688 L 4.269531 15.613281 L 4.292969 15.589844 L 4.3125 15.585938 L 4.335938 15.546875 L 4.339844 15.546875 L 4.335938 15.542969 L 4.335938 15.515625 L 4.316406 15.507812 L 4.320312 15.496094 L 4.3125 15.488281 L 4.304688 15.457031 L 4.347656 15.460938 L 4.371094 15.5 L 4.375 15.5 L 4.386719 15.476562 L 4.367188 15.453125 L 4.300781 15.410156 L 4.292969 15.410156 L 4.28125 15.433594 L 4.261719 15.457031 L 4.238281 15.453125 L 4.234375 15.414062 L 4.257812 15.371094 L 4.226562 15.332031 L 4.226562 15.316406 L 4.203125 15.253906 L 4.191406 15.144531 L 4.203125 15.105469 L 4.25 15.09375 L 4.273438 15.074219 L 4.304688 15.082031 L 4.34375 15.082031 L 4.390625 15.121094 L 4.40625 15.117188 L 4.425781 15.140625 L 4.414062 15.148438 L 4.441406 15.191406 L 4.457031 15.191406 L 4.46875 15.261719 L 4.515625 15.300781 L 4.535156 15.296875 L 4.558594 15.414062 L 4.527344 15.433594 L 4.507812 15.414062 L 4.503906 15.414062 L 4.507812 15.433594 L 4.5 15.464844 L 4.503906 15.460938 L 4.523438 15.480469 L 4.539062 15.53125 L 4.558594 15.546875 L 4.558594 15.597656 L 4.585938 15.636719 L 4.59375 15.636719 L 4.597656 15.632812 L 4.574219 15.570312 L 4.566406 15.515625 L 4.574219 15.5 L 4.574219 15.476562 L 4.605469 15.449219 L 4.652344 15.449219 L 4.660156 15.472656 L 4.65625 15.480469 L 4.691406 15.542969 L 4.722656 15.554688 L 4.761719 15.53125 L 4.882812 15.515625 L 4.992188 15.464844 L 5.039062 15.464844 L 5.058594 15.488281 L 5.070312 15.488281 L 5.101562 15.476562 L 5.128906 15.425781 L 5.152344 15.425781 L 5.148438 15.410156 L 5.128906 15.410156 L 5.101562 15.4375 L 5.058594 15.410156 L 5.039062 15.417969 L 5.019531 15.414062 L 4.984375 15.417969 L 4.9375 15.4375 L 4.90625 15.460938 L 4.859375 15.410156 L 4.847656 15.375 L 4.816406 15.347656 L 4.808594 15.324219 L 4.8125 15.304688 L 4.773438 15.292969 L 4.742188 15.257812 L 4.769531 15.234375 L 4.753906 15.238281 L 4.703125 15.183594 L 4.660156 15.183594 L 4.652344 15.148438 L 4.628906 15.125 L 4.632812 15.082031 L 4.640625 15.078125 L 4.628906 15.0625 L 4.617188 14.992188 L 4.636719 14.960938 L 4.664062 14.964844 L 4.726562 14.945312 L 4.761719 14.921875 L 4.769531 14.949219 L 4.789062 14.9375 L 4.816406 14.96875 L 4.820312 14.96875 L 4.835938 14.914062 L 4.863281 14.929688 L 4.816406 14.863281 L 4.808594 14.816406 L 4.851562 14.835938 L 4.902344 14.792969 L 4.902344 14.816406 L 4.914062 14.792969 L 5.007812 14.742188 L 5.042969 14.730469 L 5.078125 14.695312 L 5.074219 14.675781 L 5.070312 14.671875 L 5.0625 14.671875 L 5.0625 14.679688 L 5.050781 14.683594 L 5.058594 14.703125 L 5.03125 14.707031 L 4.992188 14.695312 L 4.953125 14.667969 L 4.921875 14.667969 L 4.855469 14.699219 L 4.832031 14.691406 L 4.828125 14.671875 L 4.792969 14.667969 L 4.785156 14.648438 L 4.765625 14.640625 L 4.761719 14.582031 L 4.769531 14.546875 L 4.761719 14.546875 L 4.761719 14.503906 L 4.863281 14.453125 L 4.871094 14.445312 L 4.859375 14.414062 L 4.816406 14.355469 L 4.785156 14.328125 L 4.742188 14.320312 L 4.730469 14.328125 L 4.726562 14.316406 L 4.714844 14.316406 L 4.722656 14.304688 L 4.71875 14.292969 L 4.683594 14.25 L 4.691406 14.207031 L 4.675781 14.171875 L 4.65625 14.164062 L 4.582031 14.160156 L 4.527344 14.140625 L 4.558594 14.097656 L 4.558594 14.074219 L 4.5625 14.074219 L 4.558594 14.074219 L 4.539062 14.046875 L 4.539062 14.035156 L 4.523438 14.035156 L 4.539062 14 L 4.542969 14 L 4.539062 13.992188 L 4.542969 13.984375 L 4.507812 13.96875 L 4.546875 13.941406 L 4.574219 13.945312 L 4.597656 13.957031 L 4.640625 13.945312 L 4.613281 14 L 4.609375 14 L 4.609375 14.015625 L 4.617188 14.027344 L 4.660156 14.007812 L 4.660156 14.027344 L 4.730469 13.984375 L 4.765625 13.949219 L 4.761719 13.878906 L 4.792969 13.867188 L 4.808594 13.878906 L 4.828125 13.871094 L 4.832031 13.808594 L 4.875 13.8125 L 4.921875 13.800781 L 4.9375 13.714844 L 4.945312 13.703125 L 4.921875 13.671875 L 4.878906 13.667969 L 4.863281 13.699219 L 4.839844 13.691406 L 4.820312 13.703125 L 4.792969 13.691406 L 4.746094 13.6875 L 4.726562 13.699219 L 4.691406 13.691406 L 4.59375 13.710938 L 4.480469 13.742188 L 4.382812 13.757812 L 4.269531 13.800781 L 4.257812 13.832031 L 4.226562 13.816406 L 4.195312 13.828125 L 4.148438 13.816406 L 4.117188 13.828125 L 4.097656 13.867188 L 4.078125 13.835938 L 4.054688 13.855469 L 3.988281 13.859375 L 3.96875 13.871094 L 3.9375 13.867188 L 3.882812 13.832031 L 3.875 13.816406 L 3.882812 13.777344 L 3.898438 13.761719 L 3.894531 13.746094 L 3.90625 13.734375 L 3.925781 13.644531 L 3.964844 13.609375 L 3.992188 13.539062 L 4 13.5 L 3.96875 13.378906 L 3.992188 13.355469 L 3.992188 13.316406 L 4.003906 13.28125 L 3.964844 13.246094 L 3.980469 13.230469 L 3.980469 13.203125 L 3.992188 13.164062 L 3.980469 13.144531 L 4.023438 13.003906 L 4.046875 12.976562 L 4.136719 12.988281 L 4.191406 12.964844 L 4.234375 12.902344 L 4.246094 12.84375 L 4.257812 12.828125 L 4.285156 12.828125 L 4.296875 12.8125 L 4.285156 12.78125 L 4.246094 12.808594 L 4.210938 12.839844 L 4.164062 12.878906 L 4.09375 12.914062 L 4.082031 12.933594 L 4.058594 12.929688 L 4.039062 12.945312 L 4.003906 12.941406 L 3.992188 12.910156 L 4.039062 12.832031 L 4.078125 12.746094 L 4.097656 12.734375 L 4.117188 12.695312 L 4.113281 12.675781 L 4.125 12.664062 L 4.125 12.640625 L 4.136719 12.625 L 4.113281 12.585938 L 4.058594 12.550781 L 4.09375 12.539062 L 4.097656 12.53125 L 4.09375 12.519531 L 4.050781 12.511719 L 4.125 12.449219 L 4.160156 12.441406 L 4.171875 12.421875 L 4.203125 12.410156 L 4.207031 12.417969 L 4.21875 12.398438 L 4.238281 12.386719 L 4.238281 12.378906 L 4.269531 12.363281 L 4.28125 12.34375 L 4.300781 12.339844 L 4.359375 12.292969 L 4.410156 12.277344 L 4.472656 12.230469 L 4.542969 12.195312 L 4.582031 12.179688 L 4.652344 12.183594 L 4.660156 12.179688 L 4.679688 12.136719 L 4.738281 12.082031 L 4.730469 12.117188 L 4.746094 12.121094 L 4.773438 12.109375 L 4.816406 12.070312 L 4.8125 12.019531 L 4.785156 11.984375 L 4.773438 11.976562 L 4.742188 11.972656 L 4.703125 11.988281 L 4.671875 11.988281 L 4.652344 12 L 4.542969 12 L 4.523438 12.007812 L 4.449219 12.074219 L 4.40625 12.066406 L 4.382812 12.042969 L 4.359375 12.039062 L 4.304688 12.066406 L 4.257812 12.050781 L 4.171875 12.082031 L 4.070312 12.070312 L 3.980469 12.082031 L 3.925781 12.0625 L 3.875 12.015625 L 3.867188 11.988281 L 3.871094 11.941406 L 3.859375 11.875 L 3.824219 11.828125 L 3.894531 11.828125 L 3.945312 11.808594 L 3.949219 11.769531 L 3.972656 11.730469 L 4.050781 11.667969 L 4.046875 11.667969 L 4.046875 11.636719 L 4.050781 11.636719 L 4.039062 11.621094 L 4.070312 11.617188 L 4.070312 11.574219 L 4.101562 11.585938 L 4.105469 11.5625 L 4.128906 11.527344 L 4.15625 11.574219 L 4.160156 11.574219 L 4.160156 11.570312 L 4.144531 11.539062 L 4.148438 11.507812 L 4.171875 11.515625 L 4.191406 11.496094 L 4.226562 11.492188 L 4.1875 11.429688 L 4.234375 11.402344 L 4.246094 11.378906 L 4.21875 11.355469 L 4.195312 11.351562 L 4.203125 11.328125 L 4.183594 11.289062 L 4.183594 11.269531 L 4.207031 11.246094 L 4.1875 11.246094 L 4.167969 11.222656 L 4.195312 11.199219 L 4.195312 11.183594 L 4.210938 11.175781 L 4.191406 11.152344 L 4.164062 11.132812 L 4.171875 11.109375 L 4.183594 11.105469 L 4.179688 11.085938 L 4.1875 11.0625 L 4.171875 11.039062 L 4.183594 11 L 4.21875 10.984375 L 4.238281 11.003906 L 4.28125 11 L 4.324219 10.957031 L 4.347656 10.953125 L 4.351562 10.925781 L 4.382812 10.914062 L 4.394531 10.878906 L 4.414062 10.878906 L 4.417969 10.863281 L 4.460938 10.859375 L 4.507812 10.886719 L 4.542969 10.871094 L 4.558594 10.859375 L 4.5625 10.800781 L 4.558594 10.761719 L 4.535156 10.75 L 4.535156 10.691406 L 4.523438 10.65625 L 4.523438 10.613281 L 4.507812 10.566406 L 4.515625 10.535156 L 4.503906 10.492188 L 4.519531 10.46875 L 4.515625 10.445312 L 4.492188 10.441406 L 4.4375 10.421875 L 4.382812 10.359375 L 4.394531 10.347656 L 4.367188 10.347656 L 4.339844 10.324219 L 4.328125 10.328125 L 4.253906 10.300781 L 4.191406 10.234375 L 4.195312 10.195312 L 4.238281 10.085938 L 4.273438 10.070312 L 4.449219 10.070312 L 4.460938 10.042969 L 4.476562 10.03125 L 4.476562 10.011719 L 4.484375 10.003906 L 4.476562 9.988281 L 4.496094 9.957031 L 4.46875 9.921875 L 4.542969 9.855469 L 4.550781 9.820312 L 4.613281 9.847656 L 4.671875 9.84375 L 4.707031 9.855469 L 4.714844 9.84375 L 4.761719 9.800781 L 4.792969 9.832031 L 4.816406 9.835938 L 4.820312 9.820312 L 4.855469 9.808594 L 4.898438 9.8125 L 4.921875 9.789062 L 4.960938 9.792969 L 4.964844 9.789062 L 4.984375 9.765625 L 4.976562 9.726562 L 5.015625 9.722656 L 5.03125 9.703125 L 5.03125 9.65625 L 5.070312 9.652344 L 5.09375 9.636719 L 5.148438 9.652344 L 5.171875 9.679688 L 5.195312 9.667969 L 5.214844 9.679688 L 5.234375 9.667969 L 5.238281 9.683594 L 5.238281 9.660156 L 5.257812 9.65625 L 5.261719 9.636719 L 5.304688 9.617188 L 5.320312 9.625 L 5.347656 9.617188 L 5.355469 9.632812 L 5.382812 9.632812 L 5.390625 9.652344 L 5.40625 9.652344 L 5.410156 9.660156 L 5.421875 9.65625 L 5.4375 9.691406 L 5.476562 9.699219 L 5.507812 9.78125 L 5.527344 9.789062 L 5.53125 9.800781 L 5.550781 9.800781 L 5.570312 9.839844 L 5.59375 9.839844 L 5.597656 9.859375 L 5.621094 9.863281 L 5.636719 9.84375 L 5.679688 9.925781 L 5.683594 9.929688 L 5.6875 9.929688 L 5.707031 9.890625 L 5.730469 9.890625 L 5.753906 9.863281 L 5.742188 9.84375 L 5.785156 9.863281 L 5.792969 9.847656 L 5.800781 9.859375 L 5.820312 9.847656 L 5.820312 9.855469 L 5.835938 9.84375 L 5.839844 9.835938 L 5.851562 9.835938 L 5.839844 9.820312 L 5.898438 9.832031 L 5.90625 9.816406 L 5.953125 9.839844 L 5.988281 9.855469 L 5.984375 9.863281 L 5.988281 9.863281 L 5.988281 9.867188 L 5.992188 9.863281 L 5.992188 9.859375 L 5.996094 9.859375 L 6 9.847656 L 5.996094 9.84375 L 5.996094 9.816406 L 6.019531 9.78125 L 6.035156 9.792969 L 6.042969 9.769531 L 6.042969 9.753906 L 6.046875 9.757812 L 6.054688 9.753906 L 6.058594 9.765625 L 6.085938 9.796875 L 6.121094 9.800781 L 6.125 9.824219 L 6.140625 9.808594 L 6.144531 9.820312 L 6.148438 9.816406 L 6.164062 9.824219 L 6.179688 9.8125 L 6.179688 9.820312 L 6.195312 9.808594 L 6.230469 9.820312 L 6.269531 9.820312 L 6.304688 9.886719 L 6.300781 9.941406 L 6.320312 10 L 6.277344 10.003906 L 6.242188 9.988281 L 6.234375 9.996094 L 6.21875 10.019531 L 6.21875 10.082031 L 6.242188 10.144531 L 6.289062 10.199219 L 6.285156 10.234375 L 6.289062 10.242188 L 6.367188 10.335938 L 6.34375 10.359375 L 6.351562 10.394531 L 6.402344 10.457031 L 6.414062 10.46875 L 6.464844 10.5 L 6.457031 10.507812 L 6.457031 10.511719 L 6.5 10.554688 L 6.5 10.558594 L 6.503906 10.558594 L 6.554688 10.605469 L 6.824219 10.753906 L 6.90625 10.792969 L 6.976562 10.835938 L 7.027344 10.855469 L 7.058594 10.84375 L 7.0625 10.863281 L 7.175781 10.917969 L 7.375 10.996094 L 7.460938 11.015625 L 7.464844 11.015625 L 7.46875 10.996094 L 7.507812 11 L 7.515625 11.011719 L 7.523438 11.003906 L 7.574219 11.035156 L 7.582031 11.046875 L 7.574219 11.070312 L 7.578125 11.085938 L 7.625 11.050781 L 7.664062 11.058594 L 7.671875 11.050781 L 7.667969 11.042969 L 7.734375 11.035156 L 7.757812 11.042969 L 7.847656 11.070312 L 7.90625 11.070312 L 8.039062 11.113281 L 8.136719 11.132812 L 8.164062 11.113281 L 8.246094 11.148438 L 8.308594 11.15625 L 8.363281 11.152344 L 8.445312 11.183594 L 8.476562 11.179688 L 8.542969 11.183594 L 8.683594 11.191406 L 8.847656 11.179688 L 8.851562 11.175781 L 8.855469 11.152344 L 8.886719 11.148438 L 8.890625 11.148438 L 8.886719 11.136719 L 8.898438 11.109375 L 8.933594 11.105469 L 8.949219 11.070312 L 8.996094 11.085938 L 9.042969 11.09375 L 9.089844 11.125 L 9.21875 11.171875 L 9.390625 11.199219 L 9.429688 11.203125 L 9.554688 11.269531 L 9.695312 11.289062 L 9.804688 11.292969 L 9.925781 11.285156 L 9.976562 11.265625 L 10.109375 11.25 L 10.210938 11.21875 L 10.246094 11.195312 L 10.25 11.171875 L 10.296875 11.128906 L 10.296875 11.113281 L 10.324219 11.082031 L 10.320312 11.027344 L 10.339844 10.980469 L 10.335938 10.972656 L 10.320312 10.972656 L 10.3125 10.953125 L 10.320312 10.902344 L 10.347656 10.902344 L 10.363281 10.886719 L 10.398438 10.882812 L 10.453125 10.84375 L 10.523438 10.816406 L 10.589844 10.800781 L 10.75 10.703125 L 10.761719 10.683594 L 10.847656 10.640625 L 10.902344 10.59375 L 11.0625 10.527344 L 11.121094 10.476562 L 11.21875 10.449219 L 11.269531 10.410156 L 11.269531 10.402344 L 11.253906 10.394531 L 11.324219 10.34375 L 11.324219 10.324219 L 11.339844 10.304688 L 11.359375 10.300781 L 11.40625 10.257812 L 11.46875 10.257812 L 11.480469 10.234375 L 11.496094 10.234375 L 11.496094 10.222656 L 11.53125 10.203125 L 11.542969 10.222656 L 11.558594 10.222656 L 11.566406 10.199219 L 11.609375 10.167969 L 11.625 10.171875 L 11.65625 10.148438 L 11.65625 10.128906 L 11.746094 10.109375 L 11.753906 10.085938 L 11.875 10.082031 L 11.910156 10.070312 L 11.921875 10.058594 L 11.988281 10.058594 L 12.011719 10.039062 L 12.140625 10.023438 L 12.25 9.976562 L 12.242188 9.949219 L 12.300781 9.929688 L 12.308594 9.910156 L 12.421875 9.878906 L 12.476562 9.867188 L 12.496094 9.847656 L 12.585938 9.8125 L 12.640625 9.777344 L 12.695312 9.765625 L 12.75 9.769531 L 12.777344 9.773438 L 12.789062 9.78125 L 12.90625 9.792969 L 12.988281 9.816406 L 13.132812 9.832031 L 13.214844 9.824219 L 13.238281 9.839844 L 13.402344 9.839844 L 13.566406 9.824219 L 13.625 9.835938 L 13.792969 9.878906 L 13.859375 9.890625 L 13.886719 9.886719 L 13.902344 9.875 L 13.925781 9.882812 L 13.96875 9.875 L 14.003906 9.855469 L 14.070312 9.847656 L 14.089844 9.832031 L 14.117188 9.84375 L 14.125 9.867188 L 14.160156 9.882812 L 14.308594 9.890625 L 14.375 9.890625 L 14.445312 9.878906 L 14.496094 9.855469 L 14.589844 9.769531 L 14.636719 9.6875 L 14.625 9.640625 L 14.660156 9.652344 L 14.730469 9.65625 L 14.78125 9.71875 L 14.777344 9.742188 L 14.8125 9.757812 L 14.871094 9.765625 L 14.914062 9.742188 L 14.949219 9.742188 L 14.976562 9.78125 L 14.972656 9.8125 L 14.890625 9.792969 L 14.867188 9.8125 L 14.851562 9.863281 L 14.84375 9.875 L 14.839844 9.941406 L 14.882812 10.019531 L 14.886719 10.042969 L 14.933594 10.101562 L 14.980469 10.128906 L 14.960938 10.148438 L 14.972656 10.175781 L 15.046875 10.234375 L 15.046875 10.253906 L 15.058594 10.261719 L 15.226562 10.320312 L 15.25 10.34375 L 15.289062 10.371094 L 15.351562 10.390625 L 15.472656 10.382812 L 15.617188 10.34375 L 15.808594 10.261719 L 15.882812 10.21875 L 15.90625 10.226562 L 15.921875 10.261719 L 15.976562 10.28125 L 16.023438 10.324219 L 16.078125 10.410156 L 16.101562 10.523438 L 16.089844 10.621094 L 16.109375 10.667969 L 16.226562 10.8125 L 16.234375 10.828125 L 16.273438 10.859375 L 16.359375 10.894531 L 16.355469 10.929688 L 16.363281 10.945312 L 16.40625 10.972656 L 16.421875 10.992188 L 16.492188 11.003906 L 16.523438 10.996094 L 16.597656 10.957031 L 16.613281 10.945312 L 16.632812 10.902344 L 16.667969 10.863281 L 16.675781 10.820312 L 16.734375 10.773438 L 16.769531 10.792969 L 16.765625 10.804688 L 16.769531 10.804688 L 16.84375 10.8125 L 17.003906 10.855469 L 17.160156 10.949219 L 17.203125 10.996094 L 17.203125 11.085938 L 17.210938 11.109375 L 17.257812 11.140625 L 17.367188 11.175781 L 17.527344 11.175781 L 17.519531 11.203125 L 17.523438 11.207031 L 17.648438 11.242188 L 17.679688 11.28125 L 17.710938 11.285156 L 17.75 11.308594 L 17.765625 11.339844 L 17.78125 11.351562 L 17.816406 11.363281 L 17.875 11.347656 L 17.894531 11.332031 L 17.902344 11.292969 L 17.949219 11.21875 L 17.992188 11.179688 L 18.023438 11.21875 L 18.082031 11.214844 L 18.101562 11.222656 L 18.136719 11.214844 L 18.117188 11.304688 L 18.121094 11.316406 L 18.152344 11.363281 L 18.230469 11.390625 L 18.238281 11.429688 L 18.25 11.4375 L 18.296875 11.429688 L 18.375 11.441406 L 18.484375 11.464844 L 18.496094 11.46875 L 18.503906 11.472656 L 18.605469 11.507812 L 18.71875 11.496094 L 18.769531 11.539062 L 18.808594 11.554688 L 18.8125 11.554688 L 18.847656 11.527344 L 18.863281 11.546875 L 18.882812 11.546875 L 18.894531 11.554688 L 18.945312 11.539062 L 18.953125 11.546875 L 19.011719 11.539062 L 19.054688 11.511719 L 19.125 11.449219 L 19.164062 11.453125 L 19.175781 11.480469 L 19.207031 11.492188 L 19.234375 11.488281 L 19.355469 11.394531 L 19.375 11.402344 L 19.398438 11.394531 L 19.429688 11.394531 L 19.507812 11.339844 L 19.527344 11.351562 L 19.589844 11.351562 L 19.613281 11.359375 L 19.679688 11.324219 L 19.746094 11.273438 L 19.765625 11.285156 L 19.796875 11.285156 L 19.820312 11.3125 L 19.84375 11.328125 L 19.878906 11.328125 L 19.957031 11.292969 L 20.058594 11.226562 L 20.082031 11.242188 L 20.148438 11.261719 L 20.246094 11.371094 L 20.324219 11.398438 L 20.335938 11.414062 L 20.359375 11.414062 L 20.421875 11.390625 L 20.457031 11.40625 L 20.492188 11.402344 L 20.558594 11.4375 L 20.589844 11.472656 L 20.609375 11.480469 L 20.679688 11.480469 L 20.753906 11.464844 L 20.773438 11.472656 L 20.8125 11.472656 L 20.863281 11.53125 L 20.90625 11.546875 L 20.972656 11.539062 L 21.027344 11.519531 L 21.132812 11.445312 L 21.175781 11.394531 L 21.21875 11.363281 L 21.269531 11.363281 L 21.367188 11.335938 L 21.394531 11.359375 L 21.40625 11.359375 L 21.460938 11.332031 L 21.488281 11.328125 L 21.535156 11.296875 L 21.617188 11.269531 L 21.730469 11.148438 L 21.820312 11.113281 L 21.851562 11.109375 L 21.890625 11.125 L 21.929688 11.101562 L 21.960938 11.09375 L 22.03125 11.0625 L 22.117188 10.996094 L 22.152344 10.953125 L 22.183594 10.945312 L 22.253906 10.894531 L 22.28125 10.867188 L 22.273438 10.863281 L 22.285156 10.859375 L 22.292969 10.847656 L 22.296875 10.855469 L 22.34375 10.835938 L 22.394531 10.800781 L 22.460938 10.789062 L 22.550781 10.660156 L 22.601562 10.625 L 22.632812 10.566406 L 22.675781 10.566406 L 22.738281 10.597656 L 22.753906 10.617188 L 22.808594 10.617188 L 22.847656 10.597656 L 22.867188 10.621094 L 22.863281 10.636719 L 22.890625 10.640625 L 22.921875 10.660156 L 22.945312 10.660156 L 22.957031 10.683594 L 22.972656 10.6875 L 22.988281 10.707031 L 23.050781 10.667969 L 23.074219 10.621094 L 23.144531 10.566406 L 23.1875 10.566406 L 23.207031 10.59375 L 23.253906 10.605469 L 23.300781 10.582031 L 23.378906 10.589844 L 23.421875 10.574219 L 23.445312 10.589844 L 23.453125 10.605469 L 23.46875 10.597656 L 23.546875 10.605469 L 23.589844 10.636719 L 23.601562 10.644531 L 23.621094 10.640625 L 23.636719 10.648438 L 23.6875 10.648438 L 23.746094 10.695312 L 23.765625 10.703125 L 23.796875 10.683594 L 23.8125 10.691406 L 23.824219 10.695312 L 23.808594 10.648438 L 23.828125 10.636719 L 23.835938 10.617188 L 23.878906 10.59375 L 23.871094 10.570312 L 23.890625 10.539062 L 23.886719 10.507812 L 23.921875 10.46875 L 24.046875 10.441406 L 24.097656 10.457031 L 24.140625 10.480469 L 24.160156 10.464844 L 24.230469 10.476562 L 24.222656 10.53125 L 24.210938 10.539062 L 24.207031 10.566406 L 24.1875 10.59375 L 24.199219 10.605469 L 24.191406 10.621094 L 24.234375 10.648438 L 24.246094 10.617188 L 24.269531 10.601562 L 24.304688 10.613281 L 24.304688 10.648438 L 24.335938 10.660156 L 24.355469 10.683594 L 24.386719 10.695312 L 24.386719 10.726562 L 24.414062 10.738281 L 24.414062 10.757812 L 24.433594 10.769531 L 24.453125 10.816406 L 24.457031 10.820312 L 24.472656 10.804688 L 24.496094 10.828125 L 24.542969 10.84375 L 24.59375 10.90625 L 24.648438 10.925781 L 24.660156 10.917969 L 24.691406 10.929688 L 24.691406 10.972656 L 24.605469 11.019531 L 24.609375 11.019531 L 24.636719 11.003906 L 24.671875 11.011719 L 24.652344 11.039062 L 24.695312 11.109375 L 24.816406 11.070312 L 24.859375 11.070312 L 24.949219 11.113281 L 24.988281 11.214844 L 24.964844 11.21875 L 24.957031 11.242188 L 24.964844 11.269531 L 24.984375 11.285156 L 24.980469 11.347656 L 24.992188 11.359375 L 25.027344 11.363281 L 25.03125 11.359375 L 25.035156 11.363281 L 25.058594 11.363281 L 25.050781 11.375 L 25.085938 11.398438 L 25.101562 11.398438 L 25.128906 11.417969 L 25.230469 11.503906 L 25.226562 11.535156 L 25.238281 11.550781 L 25.230469 11.582031 L 25.234375 11.640625 L 25.269531 11.683594 L 25.316406 11.824219 L 25.304688 11.851562 L 25.316406 11.875 L 25.308594 11.933594 L 25.277344 11.953125 L 25.28125 11.980469 L 25.257812 12.023438 L 25.214844 12.082031 L 25.214844 12.097656 L 25.1875 12.109375 L 25.195312 12.160156 L 25.179688 12.15625 L 25.183594 12.160156 L 25.167969 12.175781 L 25.144531 12.171875 L 25.082031 12.207031 L 25.082031 12.226562 L 25.070312 12.238281 L 25.140625 12.285156 L 25.160156 12.3125 L 25.152344 12.367188 L 25.128906 12.398438 L 25.121094 12.429688 L 25.171875 12.511719 L 25.167969 12.53125 L 25.171875 12.539062 L 25.203125 12.542969 L 25.230469 12.566406 L 25.226562 12.585938 L 25.234375 12.601562 L 25.226562 12.617188 L 25.238281 12.632812 L 25.207031 12.640625 L 25.261719 12.707031 L 25.273438 12.738281 L 25.195312 12.753906 L 25.191406 12.757812 L 25.191406 12.78125 L 25.195312 12.800781 L 25.21875 12.808594 L 25.21875 12.820312 L 25.234375 12.820312 L 25.257812 12.84375 L 25.324219 12.839844 L 25.351562 12.863281 L 25.394531 12.878906 L 25.402344 12.898438 L 25.433594 12.902344 L 25.492188 12.933594 L 25.550781 12.9375 L 25.59375 12.921875 L 25.617188 12.9375 L 25.738281 12.917969 L 25.816406 12.921875 L 25.816406 12.914062 L 25.929688 12.894531 L 26.035156 12.941406 L 26.074219 12.980469 L 26.121094 12.984375 L 26.140625 13.007812 L 26.199219 13.046875 L 26.242188 13.101562 L 26.289062 13.144531 L 26.289062 13.175781 L 26.34375 13.21875 L 26.347656 13.25 L 26.339844 13.265625 L 26.363281 13.257812 L 26.375 13.28125 L 26.375 13.289062 L 26.421875 13.320312 L 26.441406 13.316406 L 26.464844 13.332031 L 26.457031 13.359375 L 26.480469 13.363281 L 26.496094 13.402344 L 26.503906 13.398438 L 26.527344 13.40625 L 26.53125 13.445312 L 26.5625 13.449219 L 26.546875 13.453125 L 26.554688 13.453125 L 26.59375 13.492188 L 26.589844 13.5 L 26.597656 13.503906 L 26.589844 13.523438 L 26.613281 13.535156 L 26.585938 13.613281 L 26.566406 13.554688 L 26.464844 13.457031 L 26.410156 13.453125 L 26.371094 13.40625 L 26.347656 13.359375 L 26.195312 13.492188 L 26.191406 13.5 L 26.199219 13.515625 L 26.210938 13.558594 L 26.195312 13.621094 L 26.148438 13.675781 L 26.128906 13.691406 L 26.148438 13.785156 L 26.121094 13.832031 L 26.144531 13.878906 L 26.128906 13.925781 L 26.015625 13.96875 L 25.996094 13.96875 L 25.964844 14 L 25.929688 13.957031 L 25.90625 13.957031 L 25.882812 13.925781 L 25.855469 13.933594 L 25.839844 13.945312 L 25.78125 13.957031 L 25.722656 13.933594 L 25.695312 13.933594 L 25.679688 13.941406 L 25.683594 13.960938 L 25.660156 13.976562 L 25.660156 13.980469 L 25.683594 14 L 25.707031 14.039062 L 25.714844 14.089844 L 25.746094 14.101562 L 25.722656 14.15625 L 25.742188 14.179688 L 25.730469 14.214844 L 25.738281 14.230469 L 25.761719 14.253906 L 25.816406 14.273438 L 25.878906 14.347656 L 25.875 14.378906 L 25.898438 14.417969 L 25.863281 14.433594 L 25.859375 14.449219 L 25.875 14.472656 L 25.863281 14.496094 L 25.882812 14.535156 L 25.839844 14.550781 L 25.835938 14.566406 L 25.855469 14.585938 L 25.84375 14.617188 L 25.871094 14.632812 L 25.855469 14.660156 L 25.859375 14.671875 L 25.886719 14.679688 L 25.878906 14.722656 L 25.921875 14.757812 L 25.917969 14.78125 L 25.921875 14.785156 L 25.945312 14.769531 L 25.984375 14.804688 L 25.976562 14.828125 L 26.007812 14.859375 L 25.988281 14.871094 L 25.984375 14.890625 L 25.96875 14.898438 L 25.972656 14.925781 L 25.953125 14.960938 L 25.960938 14.980469 L 25.9375 15.007812 L 25.9375 15.011719 L 25.945312 15.015625 L 25.945312 15.050781 L 25.953125 15.058594 L 25.953125 15.09375 L 25.945312 15.105469 L 25.976562 15.125 L 26 15.160156 L 25.992188 15.1875 L 26 15.21875 L 25.988281 15.25 L 25.984375 15.292969 L 26 15.367188 L 25.984375 15.382812 L 25.972656 15.417969 L 25.988281 15.441406 L 25.992188 15.480469 L 25.976562 15.507812 L 25.988281 15.523438 L 26.035156 15.519531 L 26.058594 15.542969 L 26.144531 15.5 L 26.164062 15.546875 L 26.195312 15.550781 L 26.230469 15.582031 L 26.222656 15.605469 L 26.210938 15.609375 L 26.210938 15.644531 L 26.167969 15.671875 L 26.097656 15.726562 L 26.09375 15.742188 L 26.105469 15.769531 L 26.082031 15.886719 L 26.0625 15.90625 L 26.039062 15.910156 L 26.058594 15.960938 L 26.007812 15.96875 L 26.007812 15.984375 L 25.984375 16.011719 L 25.976562 16.058594 L 25.9375 16.097656 L 25.929688 16.128906 L 25.898438 16.171875 L 25.90625 16.207031 L 25.894531 16.234375 L 25.882812 16.234375 L 25.878906 16.265625 L 25.875 16.277344 L 25.910156 16.300781 L 25.941406 16.289062 L 25.949219 16.300781 L 25.976562 16.285156 L 26.035156 16.308594 L 26.074219 16.308594 L 26.101562 16.34375 L 26.085938 16.367188 L 26.085938 16.371094 L 26.105469 16.378906 L 26.117188 16.398438 L 26.152344 16.378906 L 26.144531 16.445312 L 26.160156 16.453125 L 26.164062 16.445312 L 26.222656 16.429688 L 26.261719 16.4375 L 26.308594 16.464844 L 26.347656 16.523438 L 26.363281 16.570312 L 26.296875 16.625 L 26.289062 16.65625 L 26.347656 16.71875 L 26.339844 16.75 L 26.332031 16.753906 L 26.347656 16.777344 L 26.332031 16.867188 L 26.316406 16.875 L 26.320312 16.945312 L 26.308594 16.957031 L 26.347656 16.964844 L 26.371094 16.976562 L 26.378906 17.003906 L 26.398438 17.023438 L 26.398438 17.042969 L 26.476562 17.058594 L 26.480469 17.097656 L 26.496094 17.113281 L 26.53125 17.128906 Z M 6.535156 17.886719 L 6.570312 17.890625 L 6.589844 17.882812 L 6.558594 17.859375 Z M 5.761719 9.875 L 5.761719 9.882812 L 5.765625 9.878906 Z M 4.285156 12.746094 L 4.28125 12.730469 L 4.285156 12.695312 L 4.277344 12.675781 L 4.3125 12.664062 L 4.339844 12.671875 L 4.4375 12.628906 L 4.484375 12.542969 L 4.515625 12.535156 L 4.535156 12.539062 L 4.570312 12.488281 L 4.632812 12.433594 L 4.632812 12.410156 L 4.722656 12.34375 L 4.75 12.339844 L 4.804688 12.355469 L 4.847656 12.351562 L 4.878906 12.355469 L 4.917969 12.335938 L 4.953125 12.367188 L 4.972656 12.375 L 5.0625 12.359375 L 5.128906 12.277344 L 5.21875 12.265625 L 5.261719 12.292969 L 5.273438 12.292969 L 5.273438 12.289062 L 5.382812 12.226562 L 5.410156 12.273438 L 5.421875 12.285156 L 5.429688 12.3125 L 5.453125 12.351562 L 5.40625 12.363281 L 5.398438 12.367188 L 5.421875 12.402344 L 5.554688 12.476562 L 5.617188 12.5 L 5.667969 12.511719 L 5.695312 12.5 L 5.746094 12.46875 L 5.785156 12.464844 L 5.835938 12.496094 L 5.878906 12.484375 L 5.902344 12.496094 L 5.929688 12.5 L 5.953125 12.492188 L 6 12.445312 L 6.0625 12.40625 L 6.011719 12.382812 L 5.976562 12.410156 L 5.957031 12.359375 L 5.90625 12.320312 L 5.917969 12.296875 L 5.917969 12.292969 L 5.878906 12.285156 L 5.839844 12.253906 L 5.835938 12.199219 L 5.882812 12.160156 L 5.972656 12.15625 L 5.96875 12.183594 L 6.007812 12.164062 L 6.023438 12.179688 L 6.035156 12.171875 L 6.054688 12.171875 L 6.253906 12.21875 L 6.28125 12.238281 L 6.257812 12.296875 L 6.191406 12.339844 L 6.171875 12.339844 L 6.167969 12.351562 L 6.140625 12.363281 L 6.121094 12.382812 L 6.128906 12.382812 L 6.148438 12.410156 L 6.179688 12.429688 L 6.203125 12.417969 L 6.242188 12.402344 L 6.378906 12.375 L 6.394531 12.375 L 6.402344 12.367188 L 6.527344 12.355469 L 6.597656 12.359375 L 6.636719 12.355469 L 6.730469 12.367188 L 6.84375 12.363281 L 6.9375 12.402344 L 7.027344 12.421875 L 7.035156 12.417969 L 7.035156 12.398438 L 7.085938 12.394531 L 7.160156 12.363281 L 7.191406 12.363281 L 7.234375 12.378906 L 7.292969 12.382812 L 7.351562 12.425781 L 7.414062 12.425781 L 7.503906 12.417969 L 7.515625 12.402344 L 7.527344 12.355469 L 7.554688 12.328125 L 7.574219 12.335938 L 7.617188 12.328125 L 7.617188 12.320312 L 7.539062 12.265625 L 7.480469 12.265625 L 7.414062 12.292969 L 7.402344 12.289062 L 7.3125 12.265625 L 7.261719 12.21875 L 7.167969 12.199219 L 7.167969 12.15625 L 7.183594 12.121094 L 7.21875 12.097656 L 7.304688 12.070312 L 7.355469 12.042969 L 7.375 12.023438 L 7.394531 11.988281 L 7.433594 11.972656 L 7.507812 11.964844 L 7.574219 11.976562 L 7.601562 11.972656 L 7.613281 11.949219 L 7.644531 11.960938 L 7.773438 11.957031 L 7.847656 11.933594 L 7.890625 11.886719 L 7.917969 11.886719 L 7.953125 11.90625 L 7.984375 11.894531 L 7.992188 11.894531 L 8 11.875 L 8.066406 11.816406 L 8.074219 11.863281 L 8.113281 11.910156 L 8.117188 11.910156 L 8.214844 11.894531 L 8.242188 11.882812 L 8.394531 11.851562 L 8.421875 11.839844 L 8.449219 11.847656 L 8.46875 11.839844 L 8.496094 11.839844 L 8.519531 11.859375 L 8.550781 11.859375 L 8.5625 11.851562 L 8.570312 11.828125 L 8.558594 11.820312 L 8.5625 11.804688 L 8.550781 11.804688 L 8.507812 11.808594 L 8.476562 11.824219 L 8.460938 11.820312 L 8.449219 11.828125 L 8.425781 11.824219 L 8.386719 11.839844 L 8.363281 11.832031 L 8.332031 11.792969 L 8.316406 11.785156 L 8.28125 11.78125 L 8.214844 11.785156 L 8.183594 11.773438 L 8.132812 11.800781 L 8.109375 11.792969 L 8.0625 11.800781 L 8.042969 11.78125 L 8.039062 11.78125 L 7.992188 11.800781 L 7.960938 11.800781 L 7.914062 11.824219 L 7.863281 11.804688 L 7.859375 11.773438 L 7.835938 11.761719 L 7.847656 11.738281 L 7.851562 11.738281 L 7.851562 11.734375 L 7.835938 11.71875 L 7.824219 11.730469 L 7.804688 11.726562 L 7.777344 11.730469 L 7.773438 11.75 L 7.746094 11.726562 L 7.734375 11.703125 L 7.761719 11.6875 L 7.753906 11.671875 L 7.769531 11.652344 L 7.738281 11.652344 L 7.75 11.636719 L 7.746094 11.628906 L 7.734375 11.625 L 7.71875 11.636719 L 7.613281 11.582031 L 7.570312 11.519531 L 7.503906 11.480469 L 7.488281 11.492188 L 7.480469 11.460938 L 7.460938 11.464844 L 7.4375 11.382812 L 7.433594 11.417969 L 7.371094 11.425781 L 7.355469 11.445312 L 7.339844 11.445312 L 7.328125 11.460938 L 7.265625 11.464844 L 7.242188 11.492188 L 7.203125 11.488281 L 7.152344 11.453125 L 7.128906 11.46875 L 7.078125 11.464844 L 7.039062 11.480469 L 6.976562 11.484375 L 6.9375 11.464844 L 6.945312 11.40625 L 6.933594 11.402344 L 6.914062 11.402344 L 6.898438 11.425781 L 6.890625 11.453125 L 6.789062 11.382812 L 6.730469 11.355469 L 6.644531 11.332031 L 6.535156 11.324219 L 6.503906 11.296875 L 6.5 11.296875 L 6.484375 11.308594 L 6.433594 11.304688 L 6.394531 11.3125 L 6.378906 11.324219 L 6.324219 11.332031 L 6.234375 11.382812 L 6.21875 11.402344 L 6.214844 11.445312 L 6.199219 11.453125 L 6.21875 11.460938 L 6.179688 11.484375 L 6.132812 11.472656 L 6.078125 11.480469 L 6.054688 11.46875 L 6.023438 11.4375 L 5.925781 11.398438 L 5.839844 11.417969 L 5.753906 11.445312 L 5.644531 11.464844 L 5.597656 11.558594 L 5.578125 11.667969 L 5.5 11.734375 L 5.441406 11.796875 L 5.410156 11.882812 L 5.386719 11.910156 L 5.316406 11.960938 L 5.253906 11.996094 L 5.238281 12.019531 L 5.171875 12.046875 L 5.101562 12.054688 L 5.078125 12.066406 L 5.03125 12.109375 L 5.019531 12.132812 L 4.941406 12.152344 L 4.898438 12.164062 L 4.847656 12.203125 L 4.714844 12.253906 L 4.679688 12.289062 L 4.660156 12.292969 L 4.65625 12.296875 L 4.664062 12.34375 L 4.640625 12.351562 L 4.632812 12.378906 L 4.609375 12.367188 L 4.589844 12.375 L 4.589844 12.386719 L 4.574219 12.398438 L 4.582031 12.425781 L 4.523438 12.5 L 4.507812 12.5 L 4.496094 12.519531 L 4.433594 12.542969 L 4.414062 12.5625 L 4.394531 12.601562 L 4.347656 12.632812 L 4.335938 12.644531 L 4.328125 12.65625 L 4.28125 12.671875 L 4.257812 12.691406 L 4.253906 12.691406 L 4.253906 12.714844 L 4.273438 12.765625 Z M 6.335938 17.957031 L 6.34375 17.953125 L 6.355469 17.957031 L 6.363281 17.949219 L 6.371094 17.945312 L 6.375 17.933594 L 6.335938 17.933594 Z M 6.550781 17.929688 L 6.535156 17.890625 L 6.53125 17.914062 Z M 23.429688 17.171875 Z M 4.714844 15.410156 L 4.726562 15.359375 L 4.703125 15.328125 L 4.703125 15.28125 L 4.675781 15.253906 L 4.648438 15.257812 L 4.632812 15.371094 L 4.671875 15.382812 L 4.664062 15.398438 Z M 4.714844 15.410156 " fill-opacity="1" fill-rule="nonzero"/></g></svg>