<svg xmlns="http://www.w3.org/2000/svg" xmlns:xlink="http://www.w3.org/1999/xlink" width="40" zoomAndPan="magnify" viewBox="0 0 30 30.000001" height="40" preserveAspectRatio="xMidYMid meet" version="1.0"><defs><clipPath id="0874d2574d"><path d="M 6.136719 2.902344 L 23.550781 2.902344 L 23.550781 26.128906 L 6.136719 26.128906 Z M 6.136719 2.902344 " clip-rule="nonzero"/></clipPath></defs><g clip-path="url(#0874d2574d)"><path fill="#014d4e" d="M 10.875 25.007812 L 10.800781 25.019531 L 10.679688 25.109375 C 10.640625 25.164062 10.613281 25.242188 10.597656 25.339844 C 10.566406 25.53125 10.75 25.601562 10.800781 25.421875 C 10.820312 25.367188 10.871094 25.285156 10.914062 25.238281 C 10.9375 25.214844 10.957031 25.195312 10.96875 25.175781 L 10.972656 25.171875 L 10.949219 25.078125 C 10.929688 25.042969 10.90625 25.015625 10.875 25.007812 Z M 12.160156 23.566406 C 12.234375 23.570312 12.300781 23.589844 12.328125 23.613281 L 12.386719 23.660156 L 12.3125 23.722656 C 12.246094 23.777344 12.242188 23.785156 12.269531 23.855469 C 12.320312 23.984375 12.242188 24.011719 12.035156 23.9375 C 11.761719 23.84375 11.714844 23.652344 11.945312 23.585938 C 12.007812 23.566406 12.089844 23.5625 12.160156 23.566406 Z M 11.980469 22.988281 C 12.042969 22.992188 12.113281 23.007812 12.148438 23.035156 C 12.238281 23.113281 12.160156 23.332031 12.011719 23.40625 C 11.878906 23.476562 11.828125 23.386719 11.894531 23.203125 C 11.914062 23.148438 11.914062 23.121094 11.894531 23.097656 C 11.878906 23.085938 11.867188 23.050781 11.867188 23.027344 C 11.867188 23 11.921875 22.988281 11.980469 22.988281 Z M 11.738281 22.699219 C 11.742188 22.695312 11.746094 22.710938 11.746094 22.730469 C 11.746094 22.75 11.730469 22.769531 11.710938 22.769531 C 11.667969 22.769531 11.660156 22.730469 11.703125 22.710938 C 11.71875 22.707031 11.738281 22.699219 11.738281 22.699219 Z M 12.410156 22.308594 C 12.441406 22.308594 12.46875 22.320312 12.46875 22.332031 C 12.46875 22.347656 12.449219 22.359375 12.421875 22.359375 C 12.398438 22.359375 12.371094 22.347656 12.363281 22.332031 C 12.351562 22.320312 12.375 22.308594 12.410156 22.308594 Z M 11.867188 22.308594 C 11.90625 22.308594 11.925781 22.382812 11.894531 22.414062 C 11.859375 22.449219 11.804688 22.398438 11.828125 22.347656 C 11.835938 22.328125 11.851562 22.308594 11.867188 22.308594 Z M 12.457031 21.777344 C 12.476562 21.777344 12.496094 21.796875 12.496094 21.816406 C 12.496094 21.835938 12.476562 21.851562 12.457031 21.851562 C 12.4375 21.851562 12.421875 21.835938 12.421875 21.816406 C 12.421875 21.796875 12.4375 21.777344 12.457031 21.777344 Z M 11.570312 21.636719 C 11.589844 21.640625 11.601562 21.652344 11.601562 21.671875 C 11.601562 21.691406 11.578125 21.707031 11.554688 21.707031 C 11.503906 21.707031 11.488281 21.679688 11.519531 21.648438 C 11.535156 21.636719 11.554688 21.632812 11.570312 21.636719 Z M 10.785156 21.613281 C 10.816406 21.617188 10.839844 21.632812 10.835938 21.644531 C 10.824219 21.679688 10.75 21.675781 10.738281 21.636719 C 10.730469 21.617188 10.746094 21.609375 10.785156 21.613281 Z M 10.5625 21.199219 C 10.613281 21.199219 10.628906 21.257812 10.585938 21.285156 C 10.558594 21.300781 10.515625 21.257812 10.515625 21.21875 C 10.515625 21.207031 10.535156 21.199219 10.5625 21.199219 Z M 12.421875 20.433594 C 12.441406 20.4375 12.457031 20.453125 12.464844 20.46875 C 12.46875 20.488281 12.453125 20.5 12.425781 20.5 C 12.371094 20.5 12.339844 20.46875 12.367188 20.441406 C 12.378906 20.429688 12.402344 20.429688 12.421875 20.433594 Z M 11.574219 20.382812 C 11.589844 20.386719 11.601562 20.402344 11.601562 20.425781 C 11.601562 20.453125 11.589844 20.476562 11.578125 20.476562 C 11.546875 20.476562 11.503906 20.414062 11.519531 20.394531 C 11.539062 20.378906 11.558594 20.375 11.574219 20.382812 Z M 10.605469 20.042969 C 10.632812 20.042969 10.660156 20.058594 10.667969 20.078125 C 10.675781 20.097656 10.667969 20.113281 10.648438 20.113281 C 10.632812 20.113281 10.605469 20.097656 10.585938 20.078125 C 10.5625 20.046875 10.566406 20.042969 10.605469 20.042969 Z M 14.777344 19.191406 C 14.894531 19.191406 14.90625 19.332031 14.765625 19.519531 C 14.546875 19.808594 14.257812 19.859375 14.257812 19.609375 C 14.257812 19.457031 14.285156 19.429688 14.628906 19.238281 C 14.6875 19.203125 14.738281 19.191406 14.777344 19.191406 Z M 8.679688 15.921875 C 8.726562 15.921875 8.765625 15.945312 8.839844 15.992188 C 8.902344 16.03125 9.039062 16.109375 9.136719 16.15625 C 9.511719 16.34375 9.617188 16.46875 9.414062 16.488281 C 9.140625 16.511719 8.828125 16.570312 8.742188 16.617188 C 8.558594 16.710938 8.144531 16.964844 8.085938 17.015625 L 8.035156 17.035156 L 8.070312 17.167969 L 8.078125 17.277344 L 8.101562 17.320312 C 8.117188 17.34375 8.136719 17.371094 8.160156 17.398438 C 8.207031 17.453125 8.273438 17.550781 8.304688 17.617188 C 8.382812 17.785156 8.410156 17.800781 8.757812 17.925781 C 9.25 18.105469 9.8125 18.433594 9.953125 18.621094 C 9.972656 18.644531 10 18.679688 10.019531 18.699219 C 10.039062 18.71875 10.042969 18.734375 10.039062 18.742188 L 10.035156 18.742188 L 10.082031 18.804688 C 10.105469 18.84375 10.117188 18.890625 10.117188 18.9375 C 10.117188 18.984375 10.105469 19.03125 10.082031 19.070312 L 10.074219 19.082031 L 10.050781 19.125 C 10.015625 19.171875 9.964844 19.214844 9.910156 19.234375 L 9.863281 19.25 L 9.855469 19.253906 L 9.84375 19.253906 L 9.828125 19.261719 C 9.828125 19.339844 9.828125 19.421875 9.828125 19.5 C 9.828125 19.632812 9.816406 19.816406 9.804688 19.910156 C 9.777344 20.128906 9.828125 20.449219 9.960938 20.902344 C 9.984375 20.984375 10.003906 21.046875 10.015625 21.097656 L 10.03125 21.167969 L 10.070312 21.257812 L 10.074219 21.253906 L 10.097656 21.324219 L 10.121094 21.410156 L 10.140625 21.4375 C 10.1875 21.515625 10.269531 21.730469 10.28125 21.828125 C 10.316406 22.132812 10.480469 22.28125 10.984375 22.457031 C 11.125 22.507812 11.273438 22.652344 11.324219 22.785156 C 11.347656 22.847656 11.425781 23.027344 11.5 23.179688 C 11.667969 23.53125 11.675781 23.59375 11.585938 23.753906 C 11.566406 23.789062 11.546875 23.820312 11.53125 23.84375 L 11.503906 23.867188 L 11.433594 23.988281 L 11.328125 24.09375 L 11.339844 24.09375 L 11.289062 24.179688 C 11.242188 24.253906 11.238281 24.289062 11.246094 24.503906 C 11.246094 24.566406 11.25 24.609375 11.25 24.644531 C 11.25 24.65625 11.25 24.667969 11.25 24.675781 L 11.261719 24.761719 L 11.25 24.957031 L 11.304688 24.960938 C 11.535156 24.964844 11.570312 24.980469 11.527344 25.058594 C 11.464844 25.179688 11.542969 25.210938 11.699219 25.132812 C 11.816406 25.074219 11.839844 25.03125 11.859375 24.839844 C 11.878906 24.652344 11.921875 24.601562 12.074219 24.601562 C 12.386719 24.601562 12.484375 24.292969 12.492188 23.261719 C 12.496094 22.992188 12.503906 22.925781 12.558594 22.78125 C 12.59375 22.6875 12.652344 22.523438 12.6875 22.417969 L 12.757812 22.226562 L 12.742188 21.714844 L 12.730469 21.203125 L 12.808594 21.039062 C 12.921875 20.804688 13.441406 20.308594 13.574219 20.308594 C 13.632812 20.308594 13.429688 20.589844 13.09375 20.980469 C 12.976562 21.117188 12.957031 21.210938 13.023438 21.375 C 13.148438 21.683594 13.089844 22.453125 12.914062 22.828125 C 12.8125 23.046875 12.855469 23.449219 13.015625 23.761719 C 13.046875 23.828125 13.074219 23.902344 13.074219 23.929688 C 13.074219 23.953125 13.089844 23.976562 13.109375 23.976562 C 13.222656 23.976562 13.460938 24.445312 13.460938 24.667969 C 13.460938 24.769531 13.382812 24.96875 13.308594 25.066406 C 13.28125 25.101562 13.152344 25.132812 12.980469 25.15625 L 12.820312 25.171875 C 12.820312 25.171875 12.820312 25.171875 12.820312 25.175781 L 12.765625 25.175781 C 12.726562 25.175781 12.722656 25.164062 12.660156 25.1875 C 12.59375 25.214844 12.503906 25.273438 12.386719 25.335938 C 12.328125 25.367188 12.230469 25.4375 12.148438 25.476562 L 12.046875 25.523438 L 11.9375 25.582031 C 11.847656 25.636719 11.761719 25.6875 11.710938 25.722656 L 11.320312 25.992188 L 11.125 26.125 L 11.011719 26.085938 C 10.941406 26.0625 10.863281 26.050781 10.820312 26.0625 C 10.777344 26.070312 10.722656 26.078125 10.695312 26.082031 C 10.667969 26.085938 10.632812 26.097656 10.613281 26.109375 C 10.449219 26.210938 10.0625 25.90625 10.097656 25.695312 C 10.101562 25.65625 10.097656 25.613281 10.082031 25.605469 C 10.042969 25.582031 10.050781 25.390625 10.09375 25.3125 C 10.113281 25.273438 10.128906 25.207031 10.128906 25.160156 C 10.128906 25.117188 10.167969 24.980469 10.214844 24.863281 C 10.261719 24.746094 10.320312 24.585938 10.347656 24.511719 C 10.371094 24.4375 10.402344 24.367188 10.414062 24.351562 C 10.449219 24.308594 10.46875 24.191406 10.449219 24.164062 C 10.441406 24.148438 10.4375 24.078125 10.441406 24.007812 C 10.445312 23.871094 10.355469 23.609375 10.1875 23.273438 C 10.089844 23.078125 9.960938 22.652344 9.921875 22.386719 C 9.890625 22.1875 9.824219 22.050781 9.472656 21.445312 L 9.398438 21.316406 L 9.359375 19.933594 L 9.152344 19.523438 C 8.859375 18.941406 8.730469 18.761719 8.3125 18.351562 C 7.824219 17.871094 7.519531 17.480469 7.519531 17.332031 C 7.519531 17.3125 7.492188 17.214844 7.457031 17.117188 C 7.355469 16.835938 7.445312 16.480469 7.640625 16.398438 C 7.683594 16.378906 7.847656 16.296875 8 16.21875 C 8.15625 16.140625 8.363281 16.039062 8.460938 15.996094 C 8.574219 15.949219 8.632812 15.921875 8.679688 15.921875 Z M 9.277344 15.523438 C 9.546875 15.519531 9.910156 15.617188 9.910156 15.730469 C 9.910156 15.878906 9.730469 15.902344 9.515625 15.78125 C 9.386719 15.710938 9.167969 15.652344 9.011719 15.648438 C 8.96875 15.648438 9 15.601562 9.058594 15.566406 C 9.109375 15.539062 9.1875 15.523438 9.277344 15.523438 Z M 8.238281 15.507812 C 8.3125 15.5 8.433594 15.550781 8.507812 15.632812 C 8.574219 15.703125 8.5625 15.734375 8.46875 15.757812 C 8.429688 15.765625 8.335938 15.808594 8.261719 15.855469 C 8.105469 15.949219 8.074219 15.957031 8.074219 15.898438 C 8.074219 15.835938 8.152344 15.566406 8.175781 15.535156 C 8.191406 15.519531 8.210938 15.511719 8.238281 15.507812 Z M 8.207031 14.773438 C 8.257812 14.761719 8.300781 14.785156 8.320312 14.851562 C 8.332031 14.886719 8.355469 14.960938 8.371094 15.019531 C 8.402344 15.136719 8.410156 15.136719 8.621094 15.191406 C 8.699219 15.210938 8.726562 15.230469 8.734375 15.269531 C 8.761719 15.414062 8.636719 15.507812 8.550781 15.40625 C 8.503906 15.34375 8.210938 15.308594 8.0625 15.34375 C 7.996094 15.363281 7.898438 15.53125 7.871094 15.679688 C 7.839844 15.839844 7.796875 15.769531 7.796875 15.558594 C 7.796875 15.378906 7.804688 15.359375 7.890625 15.222656 C 7.941406 15.144531 8.015625 15.011719 8.058594 14.929688 C 8.101562 14.84375 8.160156 14.789062 8.207031 14.773438 Z M 23.628906 12.984375 C 23.621094 12.988281 23.613281 12.996094 23.609375 13.011719 C 23.601562 13.039062 23.566406 13.085938 23.527344 13.113281 C 23.453125 13.167969 23.433594 13.234375 23.492188 13.234375 C 23.542969 13.234375 23.660156 13.113281 23.667969 13.050781 C 23.671875 13.015625 23.664062 12.992188 23.648438 12.984375 C 23.640625 12.976562 23.632812 12.976562 23.628906 12.984375 Z M 18.25 11.984375 C 18.277344 11.984375 18.304688 12 18.324219 12.019531 C 18.378906 12.074219 18.328125 12.128906 18.230469 12.121094 C 18.152344 12.113281 18.113281 12.039062 18.171875 12.003906 C 18.199219 11.984375 18.226562 11.980469 18.25 11.984375 Z M 6.324219 11.257812 C 6.394531 11.246094 6.523438 11.28125 6.664062 11.351562 C 6.980469 11.511719 7.070312 11.523438 7.164062 11.433594 C 7.472656 11.136719 7.742188 11.371094 7.460938 11.6875 C 7.3125 11.851562 7.300781 11.90625 7.382812 11.992188 L 7.441406 12.046875 L 7.4375 12.050781 L 7.453125 12.0625 C 7.480469 12.097656 7.496094 12.136719 7.496094 12.175781 C 7.496094 12.214844 7.480469 12.25 7.453125 12.285156 L 7.449219 12.289062 C 7.449219 12.296875 7.449219 12.304688 7.449219 12.3125 C 7.4375 12.335938 7.417969 12.367188 7.386719 12.40625 C 7.28125 12.542969 7.285156 12.613281 7.410156 12.757812 C 7.453125 12.808594 7.523438 12.917969 7.566406 12.996094 C 7.660156 13.167969 7.6875 13.1875 7.847656 13.171875 C 7.996094 13.15625 8.019531 13.179688 7.964844 13.285156 C 7.910156 13.398438 7.945312 13.46875 8.074219 13.488281 C 8.339844 13.535156 8.445312 13.753906 8.339844 14.03125 C 8.304688 14.121094 8.292969 14.199219 8.300781 14.265625 C 8.304688 14.324219 8.304688 14.371094 8.292969 14.371094 C 8.253906 14.371094 8.007812 14.0625 7.980469 13.976562 C 7.890625 13.703125 7.777344 13.515625 7.539062 13.242188 C 7.402344 13.085938 7.246094 12.902344 7.1875 12.832031 C 7.117188 12.746094 7.058594 12.703125 7.007812 12.691406 C 6.90625 12.671875 6.535156 12.460938 6.363281 12.328125 C 6.03125 12.074219 6.066406 11.90625 6.453125 11.882812 C 6.78125 11.863281 6.847656 11.734375 6.597656 11.59375 C 6.40625 11.484375 6.246094 11.332031 6.277344 11.28125 C 6.285156 11.269531 6.300781 11.257812 6.324219 11.257812 Z M 16.265625 10.21875 C 16.304688 10.222656 16.339844 10.234375 16.359375 10.253906 C 16.398438 10.304688 16.371094 10.363281 16.304688 10.363281 C 16.160156 10.363281 16.105469 10.3125 16.167969 10.25 C 16.191406 10.226562 16.226562 10.21875 16.265625 10.21875 Z M 16.917969 9.789062 C 16.949219 9.792969 16.972656 9.8125 16.972656 9.832031 C 16.972656 9.847656 16.949219 9.867188 16.917969 9.871094 C 16.878906 9.878906 16.863281 9.871094 16.863281 9.832031 C 16.863281 9.792969 16.878906 9.785156 16.917969 9.789062 Z M 13.128906 9.777344 C 13.199219 9.761719 13.320312 9.78125 13.351562 9.8125 C 13.382812 9.84375 13.300781 9.90625 13.226562 9.90625 C 13.097656 9.90625 13.015625 9.800781 13.128906 9.777344 Z M 8.15625 9.582031 C 8.472656 9.570312 8.816406 9.695312 9.058594 9.933594 C 9.660156 10.519531 9.605469 10.597656 8.738281 10.433594 C 8.492188 10.386719 8.449219 10.371094 8.289062 10.265625 C 8.042969 10.101562 7.875 10.113281 7.6875 10.300781 C 7.628906 10.359375 7.496094 10.660156 7.496094 10.730469 C 7.496094 10.789062 7.367188 11.039062 7.332031 11.050781 C 7.191406 11.085938 6.839844 11.089844 6.78125 11.054688 C 6.699219 11 6.703125 10.992188 6.882812 10.804688 C 7.039062 10.644531 7.246094 10.351562 7.382812 10.097656 C 7.402344 10.0625 7.425781 10.03125 7.445312 10.003906 L 7.472656 9.980469 L 7.519531 9.886719 C 7.539062 9.855469 7.558594 9.828125 7.574219 9.8125 L 7.65625 9.753906 L 7.671875 9.738281 C 7.703125 9.710938 7.769531 9.679688 7.855469 9.644531 C 7.949219 9.609375 8.050781 9.585938 8.15625 9.582031 Z M 19.136719 9.0625 C 19.179688 9.0625 19.222656 9.078125 19.265625 9.109375 C 19.339844 9.167969 19.328125 9.199219 19.21875 9.242188 C 19.074219 9.304688 18.9375 9.207031 19.027344 9.109375 C 19.054688 9.078125 19.09375 9.0625 19.136719 9.0625 Z M 9.945312 8.328125 C 10.054688 8.347656 10.066406 8.371094 10.070312 8.550781 C 10.074219 8.757812 10.085938 8.78125 10.195312 8.761719 C 10.296875 8.746094 10.34375 8.777344 10.34375 8.855469 C 10.34375 8.972656 10.15625 9.035156 10.03125 8.960938 C 9.9375 8.902344 9.9375 8.902344 9.851562 8.984375 C 9.582031 9.226562 9.582031 9.226562 9.65625 9.675781 C 9.675781 9.78125 9.695312 9.929688 9.703125 10.003906 C 9.714844 10.078125 9.746094 10.195312 9.78125 10.269531 C 9.882812 10.488281 9.914062 10.582031 9.878906 10.582031 C 9.835938 10.582031 9.632812 10.367188 9.585938 10.273438 C 9.5625 10.226562 9.5 10.160156 9.441406 10.125 C 9.382812 10.089844 9.316406 10.023438 9.289062 9.976562 C 9.179688 9.792969 9.039062 9.644531 8.921875 9.589844 C 8.84375 9.554688 8.800781 9.519531 8.800781 9.496094 C 8.800781 9.414062 9 9.183594 9.113281 9.132812 L 9.273438 9.058594 C 9.300781 9.042969 9.382812 8.984375 9.457031 8.925781 C 9.589844 8.820312 9.617188 8.777344 9.65625 8.59375 C 9.664062 8.558594 9.714844 8.476562 9.769531 8.417969 C 9.859375 8.324219 9.878906 8.3125 9.945312 8.328125 Z M 11.136719 8.164062 C 11.296875 8.175781 11.480469 8.214844 11.507812 8.265625 C 11.664062 8.589844 11.667969 8.625 11.5625 8.625 C 11.5 8.625 11.40625 8.550781 11.40625 8.496094 C 11.40625 8.4375 11.339844 8.402344 11.164062 8.382812 C 10.976562 8.363281 10.855469 8.285156 10.882812 8.207031 C 10.894531 8.183594 10.933594 8.171875 10.988281 8.167969 C 11.03125 8.164062 11.082031 8.164062 11.136719 8.164062 Z M 11.921875 7.953125 C 11.941406 7.949219 11.957031 7.957031 11.988281 7.976562 C 12.136719 8.054688 12.125 8.3125 11.972656 8.3125 C 11.839844 8.3125 11.757812 8.105469 11.855469 8.011719 C 11.886719 7.976562 11.90625 7.960938 11.921875 7.953125 Z M 11.511719 7.714844 C 11.539062 7.707031 11.53125 7.738281 11.496094 7.785156 C 11.417969 7.886719 11.265625 7.898438 11.214844 7.804688 C 11.1875 7.753906 11.210938 7.742188 11.394531 7.726562 C 11.449219 7.722656 11.5 7.714844 11.511719 7.714844 Z M 10.109375 7.472656 C 10.128906 7.46875 10.164062 7.484375 10.226562 7.519531 C 10.320312 7.570312 10.414062 7.730469 10.382812 7.78125 C 10.339844 7.851562 10.078125 7.644531 10.078125 7.535156 C 10.078125 7.496094 10.085938 7.472656 10.109375 7.472656 Z M 10.070312 6.089844 C 10.105469 6.078125 10.144531 6.148438 10.164062 6.261719 C 10.183594 6.382812 10.304688 6.652344 10.363281 6.699219 C 10.457031 6.777344 10.957031 6.714844 11.074219 6.609375 C 11.117188 6.566406 11.214844 6.597656 11.214844 6.65625 C 11.214844 6.707031 11.085938 6.894531 10.996094 6.992188 L 10.980469 7.003906 L 10.964844 7.03125 C 10.949219 7.0625 10.9375 7.089844 10.933594 7.113281 L 10.933594 7.121094 L 10.921875 7.285156 C 10.921875 7.316406 10.921875 7.34375 10.917969 7.367188 L 10.910156 7.421875 L 10.90625 7.433594 C 10.890625 7.683594 10.890625 7.683594 10.601562 7.488281 C 10.285156 7.277344 9.929688 6.417969 10.039062 6.128906 C 10.046875 6.109375 10.058594 6.09375 10.070312 6.089844 Z M 12.636719 4.023438 C 12.660156 4.023438 12.6875 4.023438 12.722656 4.027344 C 12.796875 4.03125 12.859375 4.046875 12.886719 4.0625 L 12.890625 4.070312 L 12.90625 4.074219 C 12.925781 4.085938 12.9375 4.09375 12.945312 4.105469 C 12.972656 4.152344 12.929688 4.273438 12.863281 4.324219 C 12.84375 4.335938 12.820312 4.347656 12.792969 4.359375 L 12.742188 4.378906 L 12.738281 4.382812 C 12.707031 4.402344 12.644531 4.429688 12.53125 4.472656 C 12.304688 4.5625 12.277344 4.5625 12.277344 4.5 C 12.277344 4.40625 12.035156 4.460938 11.761719 4.617188 C 11.691406 4.65625 11.582031 4.703125 11.515625 4.726562 C 11.414062 4.757812 11.363281 4.796875 11.253906 4.929688 C 10.960938 5.269531 10.761719 5.300781 10.839844 4.996094 C 10.859375 4.910156 11.210938 4.425781 11.269531 4.402344 C 11.300781 4.390625 11.507812 4.355469 11.734375 4.332031 C 12.253906 4.265625 12.300781 4.253906 12.453125 4.125 C 12.546875 4.046875 12.570312 4.023438 12.636719 4.023438 Z M 15.65625 2.902344 C 15.714844 2.902344 15.765625 2.90625 15.824219 2.917969 C 15.933594 2.941406 16.097656 3.003906 16.136719 3.042969 L 16.136719 3.050781 L 16.160156 3.054688 C 16.371094 3.136719 16.691406 3.148438 17.46875 3.109375 C 18.300781 3.066406 19.097656 3.074219 19.332031 3.132812 C 19.566406 3.1875 19.878906 3.390625 20.058594 3.570312 L 20.148438 3.675781 L 20.15625 3.675781 C 20.160156 3.675781 20.164062 3.6875 20.191406 3.726562 C 20.207031 3.746094 20.222656 3.773438 20.246094 3.804688 L 20.25 3.8125 L 20.253906 3.804688 C 20.253906 3.804688 20.257812 3.808594 20.261719 3.820312 L 20.261719 3.828125 L 20.308594 3.910156 L 20.359375 3.988281 L 20.367188 3.992188 L 20.363281 3.996094 L 20.457031 4.148438 C 20.550781 4.300781 20.679688 4.480469 20.761719 4.640625 C 20.804688 4.722656 20.859375 4.828125 20.902344 4.917969 L 20.925781 4.976562 L 21 5.082031 C 21.054688 5.140625 21.117188 5.203125 21.191406 5.265625 L 21.402344 5.453125 L 21.742188 6.128906 C 21.929688 6.5 22.136719 6.886719 22.199219 6.988281 C 22.265625 7.089844 22.347656 7.257812 22.382812 7.363281 C 22.417969 7.46875 22.496094 7.652344 22.554688 7.777344 C 22.664062 8 22.664062 8.003906 22.695312 8.390625 C 22.75 9.050781 22.855469 9.5 23.203125 10.527344 C 23.355469 10.972656 23.386719 11.097656 23.410156 11.320312 C 23.425781 11.464844 23.445312 11.664062 23.453125 11.765625 C 23.46875 11.890625 23.5 12.007812 23.558594 12.140625 C 23.964844 13.054688 23.9375 13.210938 23.261719 13.648438 C 23.230469 13.671875 23.011719 13.859375 22.78125 14.070312 C 22.195312 14.601562 21.550781 15.046875 21.367188 15.046875 C 21.335938 15.046875 20.453125 15.472656 20.246094 15.589844 C 20.019531 15.714844 19.664062 15.984375 19.578125 16.089844 C 19.511719 16.171875 19.363281 16.261719 19.121094 16.363281 C 18.71875 16.535156 18.351562 16.726562 18.316406 16.785156 C 18.273438 16.855469 18.066406 17.101562 17.960938 17.207031 C 17.90625 17.261719 17.828125 17.296875 17.636719 17.351562 C 17.496094 17.390625 17.335938 17.457031 17.265625 17.5 C 17.199219 17.542969 17.109375 17.597656 17.070312 17.621094 C 16.996094 17.667969 16.910156 17.75 16.824219 17.859375 C 16.785156 17.914062 16.757812 17.925781 16.6875 17.921875 C 16.621094 17.917969 16.59375 17.929688 16.574219 17.964844 C 16.554688 18.003906 16.523438 18.015625 16.445312 18.015625 C 16.382812 18.015625 16.328125 18.027344 16.308594 18.050781 C 16.292969 18.070312 16.242188 18.089844 16.191406 18.097656 C 16.144531 18.105469 16.050781 18.125 15.988281 18.140625 C 15.8125 18.183594 15.785156 18.132812 15.941406 18.054688 C 16.011719 18.015625 16.082031 17.957031 16.121094 17.898438 C 16.199219 17.785156 16.410156 17.667969 16.613281 17.628906 L 16.808594 17.589844 C 16.839844 17.585938 16.898438 17.546875 16.941406 17.511719 C 16.988281 17.472656 17.078125 17.429688 17.148438 17.410156 C 17.292969 17.378906 17.324219 17.339844 17.324219 17.199219 C 17.324219 17.082031 17.34375 17.058594 17.464844 17.011719 C 17.566406 16.976562 17.847656 16.804688 17.980469 16.699219 C 18.015625 16.667969 18.097656 16.636719 18.171875 16.628906 C 18.316406 16.609375 18.339844 16.597656 18.707031 16.378906 C 19.097656 16.144531 19.269531 16.019531 19.339844 15.910156 C 19.402344 15.8125 19.398438 15.816406 20.050781 15.492188 C 20.242188 15.398438 20.394531 15.296875 20.535156 15.179688 C 20.851562 14.910156 21.148438 14.722656 21.367188 14.648438 C 21.886719 14.472656 22.140625 14.289062 22.304688 13.972656 C 22.339844 13.90625 22.414062 13.800781 22.464844 13.734375 C 22.609375 13.558594 22.632812 13.460938 22.574219 13.234375 C 22.566406 13.195312 22.582031 13.152344 22.609375 13.121094 L 22.613281 13.121094 L 22.6875 13.027344 L 22.6875 13.023438 L 22.730469 12.984375 L 22.734375 12.976562 C 22.738281 12.964844 22.738281 12.957031 22.742188 12.960938 L 22.742188 12.96875 L 22.78125 12.933594 L 22.878906 12.867188 L 22.898438 12.839844 C 22.917969 12.816406 22.945312 12.785156 22.980469 12.75 C 23.152344 12.570312 23.1875 12.488281 23.144531 12.371094 C 23.113281 12.292969 23.117188 12.28125 23.164062 12.25 C 23.230469 12.207031 23.230469 12.183594 23.144531 12.019531 C 23.089844 11.921875 23.070312 11.851562 23.070312 11.757812 C 23.066406 11.484375 23.027344 11.3125 22.917969 11.070312 C 22.851562 10.929688 22.769531 10.695312 22.722656 10.507812 C 22.675781 10.328125 22.578125 9.984375 22.503906 9.742188 C 22.390625 9.367188 22.367188 9.238281 22.332031 8.921875 C 22.269531 8.324219 22.214844 8.125 21.972656 7.648438 C 21.859375 7.421875 21.695312 7.050781 21.609375 6.816406 C 21.3125 6.027344 21.140625 5.757812 20.578125 5.222656 C 20.183594 4.84375 19.820312 4.449219 19.691406 4.257812 C 19.65625 4.210938 19.585938 4.117188 19.527344 4.042969 C 19.457031 3.953125 19.425781 3.894531 19.425781 3.839844 C 19.425781 3.457031 18.519531 3.273438 17.332031 3.414062 C 17.117188 3.441406 17.070312 3.4375 16.886719 3.398438 C 16.585938 3.332031 15.972656 3.332031 15.847656 3.402344 C 15.386719 3.652344 15.324219 3.667969 15.050781 3.582031 C 14.953125 3.554688 14.832031 3.507812 14.78125 3.480469 C 14.65625 3.417969 14.503906 3.4375 14.273438 3.554688 C 13.730469 3.820312 13.824219 3.492188 14.371094 3.207031 L 14.40625 3.1875 C 14.441406 3.15625 14.5 3.125 14.535156 3.101562 C 14.574219 3.074219 14.621094 3.050781 14.679688 3.027344 L 14.714844 3.015625 L 14.722656 3.003906 L 14.726562 3.011719 L 14.882812 2.96875 C 15.035156 2.9375 15.304688 2.917969 15.460938 2.910156 C 15.539062 2.90625 15.601562 2.902344 15.65625 2.902344 Z M 15.65625 2.902344 " fill-opacity="1" fill-rule="evenodd"/></g></svg>