<svg xmlns="http://www.w3.org/2000/svg" xmlns:xlink="http://www.w3.org/1999/xlink" width="40" zoomAndPan="magnify" viewBox="0 0 30 30.000001" height="40" preserveAspectRatio="xMidYMid meet" version="1.0"><defs><clipPath id="8676c9c123"><path d="M 8.859375 2.902344 L 21.199219 2.902344 L 21.199219 26.128906 L 8.859375 26.128906 Z M 8.859375 2.902344 " clip-rule="nonzero"/></clipPath></defs><g clip-path="url(#8676c9c123)"><path fill="#014d4e" d="M 13.3125 25.789062 C 13.289062 25.804688 13.265625 25.824219 13.246094 25.851562 C 13.195312 25.917969 13.179688 26.050781 13.085938 26.066406 C 13.046875 26.007812 13.050781 25.941406 13.042969 25.875 C 13.035156 25.816406 13.03125 25.734375 12.996094 25.691406 C 12.960938 25.640625 12.898438 25.644531 12.875 25.574219 C 12.855469 25.515625 12.871094 25.472656 12.898438 25.417969 C 12.941406 25.332031 12.957031 25.320312 12.957031 25.242188 C 12.957031 25.183594 12.9375 25.148438 12.957031 25.082031 C 12.976562 25.003906 13.011719 24.941406 13 24.863281 C 12.988281 24.785156 12.933594 24.710938 12.914062 24.632812 C 12.890625 24.539062 12.886719 24.4375 12.867188 24.34375 C 12.835938 24.1875 12.789062 24.035156 12.667969 23.941406 C 12.554688 23.847656 12.589844 23.765625 12.570312 23.617188 C 12.554688 23.460938 12.480469 23.449219 12.371094 23.363281 C 12.277344 23.292969 12.269531 23.214844 12.214844 23.117188 C 12.171875 23.035156 12.085938 22.933594 12.015625 22.875 C 11.90625 22.785156 11.757812 22.789062 11.648438 22.726562 C 11.542969 22.671875 11.601562 22.527344 11.515625 22.472656 C 11.394531 22.402344 11.351562 22.546875 11.285156 22.378906 C 11.257812 22.304688 11.195312 22.210938 11.109375 22.15625 C 11.011719 22.097656 10.957031 22.21875 10.867188 22.171875 C 10.804688 22.140625 10.765625 22.03125 10.703125 21.984375 C 10.621094 21.917969 10.535156 21.886719 10.480469 21.796875 C 10.429688 21.714844 10.414062 21.640625 10.339844 21.570312 C 10.269531 21.503906 10.203125 21.484375 10.148438 21.402344 C 10.097656 21.328125 10.054688 21.25 10.089844 21.164062 C 10.109375 21.109375 10.171875 21.058594 10.214844 21.070312 C 10.226562 21.050781 10.234375 21.03125 10.242188 21.011719 C 10.242188 21.011719 10.242188 21.011719 10.242188 21.007812 C 10.214844 20.859375 10.207031 20.757812 10.101562 20.636719 C 9.976562 20.488281 9.960938 20.289062 9.867188 20.117188 C 9.75 19.910156 9.660156 19.753906 9.605469 19.515625 C 9.554688 19.308594 9.617188 19.085938 9.464844 18.917969 C 9.332031 18.769531 9.167969 18.707031 9.019531 18.589844 C 8.859375 18.46875 9.085938 18.492188 9.082031 18.367188 C 9.082031 18.265625 8.867188 18.289062 8.886719 18.132812 C 8.894531 18.082031 8.949219 18.070312 8.972656 18.035156 C 9.039062 17.953125 9.007812 18.011719 8.972656 17.914062 C 8.933594 17.800781 9.015625 17.703125 9.027344 17.582031 C 9.039062 17.460938 9.046875 17.40625 9.132812 17.316406 C 9.273438 17.175781 9.140625 17.265625 9.109375 17.144531 C 9.085938 17.050781 9.21875 16.988281 9.238281 16.933594 C 9.257812 16.875 9.203125 16.828125 9.207031 16.773438 C 9.214844 16.660156 9.234375 16.738281 9.292969 16.707031 C 9.378906 16.65625 9.355469 16.59375 9.304688 16.496094 C 9.292969 16.476562 9.242188 16.417969 9.238281 16.398438 C 9.234375 16.324219 9.273438 16.355469 9.316406 16.320312 C 9.375 16.277344 9.46875 16.199219 9.46875 16.121094 C 9.46875 16.058594 9.40625 16.027344 9.386719 15.972656 C 9.367188 15.921875 9.375 15.828125 9.40625 15.765625 C 9.46875 15.648438 9.460938 15.707031 9.382812 15.605469 C 9.292969 15.488281 9.425781 15.515625 9.449219 15.40625 C 9.371094 15.300781 9.527344 15.058594 9.382812 15.019531 C 9.375 14.949219 9.375 14.878906 9.375 14.808594 C 9.324219 14.746094 9.273438 14.683594 9.265625 14.671875 C 9.269531 14.667969 9.273438 14.660156 9.273438 14.660156 C 9.234375 14.566406 9.417969 14.378906 9.464844 14.285156 C 9.492188 14.226562 9.488281 14.089844 9.519531 14.050781 C 9.578125 13.976562 9.667969 14.074219 9.71875 14.035156 C 9.785156 13.988281 9.683594 13.871094 9.664062 13.828125 C 9.625 13.71875 9.675781 13.675781 9.707031 13.570312 C 9.738281 13.46875 9.722656 13.40625 9.816406 13.335938 C 9.910156 13.265625 9.960938 13.238281 10.011719 13.128906 C 10.042969 13.066406 10.074219 13.019531 10.101562 12.960938 C 10.128906 12.910156 10.125 12.859375 10.144531 12.8125 C 10.183594 12.722656 10.289062 12.667969 10.34375 12.585938 C 10.40625 12.492188 10.441406 12.351562 10.476562 12.25 C 10.519531 12.125 10.515625 11.960938 10.636719 11.878906 C 10.757812 11.800781 10.847656 11.816406 10.898438 11.664062 C 10.941406 11.542969 10.976562 11.453125 11.078125 11.363281 C 11.199219 11.257812 11.277344 11.253906 11.296875 11.089844 C 11.316406 10.953125 11.363281 10.742188 11.46875 10.648438 C 11.578125 10.550781 11.683594 10.667969 11.6875 10.460938 C 11.6875 10.40625 11.652344 10.328125 11.664062 10.277344 C 11.679688 10.207031 11.757812 10.144531 11.792969 10.082031 C 11.914062 9.867188 11.980469 9.578125 12.171875 9.402344 C 12.179688 9.316406 12.183594 9.230469 12.191406 9.148438 C 12.3125 9.046875 12.453125 8.972656 12.523438 8.789062 C 12.542969 8.742188 12.546875 8.683594 12.578125 8.640625 C 12.613281 8.597656 12.671875 8.582031 12.703125 8.546875 C 12.769531 8.472656 12.8125 8.355469 12.851562 8.265625 C 12.890625 8.164062 12.945312 8.0625 12.96875 7.957031 C 12.988281 7.878906 13.003906 7.746094 13.066406 7.683594 C 13.117188 7.632812 13.289062 7.652344 13.316406 7.59375 C 13.339844 7.550781 13.277344 7.53125 13.277344 7.488281 C 13.277344 7.4375 13.320312 7.410156 13.351562 7.378906 C 13.550781 7.167969 13.769531 7.363281 13.996094 7.242188 C 13.953125 7.125 13.878906 7.160156 13.8125 7.085938 C 13.847656 7.058594 13.929688 6.996094 13.949219 6.953125 C 13.976562 6.902344 13.945312 6.820312 13.984375 6.777344 C 14.023438 6.726562 14.089844 6.75 14.136719 6.714844 C 14.183594 6.675781 14.210938 6.585938 14.238281 6.53125 C 14.300781 6.410156 14.308594 6.28125 14.332031 6.144531 C 14.34375 6.074219 14.355469 6.070312 14.390625 6.027344 C 14.402344 6.011719 14.433594 6.015625 14.449219 5.988281 C 14.464844 5.960938 14.453125 5.890625 14.460938 5.855469 C 14.472656 5.785156 14.488281 5.703125 14.535156 5.648438 C 14.589844 5.585938 14.679688 5.5625 14.722656 5.476562 C 14.75 5.417969 14.742188 5.355469 14.773438 5.296875 C 14.8125 5.222656 14.910156 5.183594 14.949219 5.109375 C 14.988281 5.035156 14.953125 4.929688 14.996094 4.847656 C 15.0625 4.714844 15.191406 4.679688 15.304688 4.605469 C 15.417969 4.53125 15.503906 4.472656 15.628906 4.429688 C 15.761719 4.382812 15.863281 4.308594 15.988281 4.242188 C 16.230469 4.113281 16.484375 4.167969 16.726562 4.066406 C 16.898438 3.996094 17.09375 3.941406 17.277344 3.902344 C 17.316406 3.835938 17.351562 3.769531 17.390625 3.703125 C 17.394531 3.703125 17.394531 3.699219 17.394531 3.699219 C 17.394531 3.699219 17.394531 3.703125 17.390625 3.703125 C 17.414062 3.539062 17.679688 3.539062 17.753906 3.390625 C 17.800781 3.296875 17.824219 3.203125 17.902344 3.125 C 17.984375 3.046875 18.09375 3.042969 18.191406 2.996094 C 18.359375 2.921875 18.578125 2.917969 18.683594 3.101562 C 18.738281 3.191406 18.75 3.28125 18.824219 3.359375 C 18.855469 3.394531 18.886719 3.4375 18.921875 3.472656 C 18.96875 3.519531 19.003906 3.511719 19.050781 3.527344 C 19.125 3.558594 19.140625 3.566406 19.171875 3.636719 C 19.207031 3.714844 19.191406 3.714844 19.253906 3.757812 C 19.351562 3.828125 19.433594 3.832031 19.449219 3.972656 C 19.550781 3.976562 19.65625 3.972656 19.753906 3.996094 C 19.835938 4.015625 19.882812 4.0625 19.921875 4.121094 C 19.953125 4.121094 19.980469 4.121094 20.011719 4.117188 C 20.007812 4.113281 20.003906 4.113281 20 4.113281 C 20.039062 4.101562 20.097656 4.074219 20.132812 4.074219 C 20.203125 4.078125 20.183594 4.121094 20.230469 4.140625 C 20.308594 4.175781 20.410156 4.078125 20.492188 4.105469 C 20.59375 4.140625 20.550781 4.296875 20.574219 4.378906 C 20.585938 4.421875 20.621094 4.464844 20.628906 4.507812 C 20.636719 4.558594 20.617188 4.617188 20.628906 4.667969 C 20.664062 4.789062 20.761719 4.773438 20.855469 4.761719 C 20.941406 4.65625 21.128906 4.890625 20.964844 5 C 20.847656 5.078125 20.707031 5 20.601562 5.097656 C 20.539062 5.15625 20.5625 5.230469 20.5 5.285156 C 20.417969 5.359375 20.371094 5.332031 20.316406 5.449219 C 20.230469 5.652344 20.074219 5.816406 20.015625 6.035156 C 19.953125 6.285156 19.925781 6.539062 19.976562 6.804688 C 20 6.941406 19.984375 7.085938 20.011719 7.230469 C 20.035156 7.363281 20.101562 7.4375 20.15625 7.554688 C 20.203125 7.652344 20.183594 7.6875 20.179688 7.785156 C 20.175781 7.878906 20.226562 7.949219 20.234375 8.042969 C 20.238281 8.074219 20.253906 8.144531 20.242188 8.171875 C 20.207031 8.246094 20.210938 8.1875 20.140625 8.195312 C 20.003906 8.210938 20.035156 8.261719 20.082031 8.355469 C 20.140625 8.472656 20.113281 8.503906 20.007812 8.578125 C 19.886719 8.664062 19.839844 8.757812 19.808594 8.90625 C 19.777344 9.042969 19.738281 9.175781 19.71875 9.316406 C 19.707031 9.394531 19.667969 9.453125 19.613281 9.5 C 19.613281 9.578125 19.617188 9.65625 19.625 9.730469 C 19.625 9.734375 19.625 9.742188 19.625 9.746094 C 19.625 9.746094 19.625 9.746094 19.625 9.742188 C 19.632812 9.792969 19.597656 9.8125 19.5625 9.851562 C 19.484375 9.933594 19.5 9.917969 19.488281 10.011719 C 19.464844 10.203125 19.195312 10.238281 19.078125 10.382812 C 19.027344 10.445312 18.988281 10.53125 18.949219 10.609375 C 18.933594 10.640625 18.898438 10.6875 18.894531 10.722656 C 18.886719 10.777344 18.921875 10.792969 18.925781 10.839844 C 18.933594 10.996094 18.742188 11.125 18.703125 11.28125 C 18.683594 11.363281 18.644531 11.46875 18.667969 11.542969 C 18.6875 11.625 18.777344 11.691406 18.808594 11.773438 C 18.890625 11.984375 18.667969 12.058594 18.609375 12.230469 C 18.574219 12.335938 18.554688 12.453125 18.519531 12.566406 C 18.484375 12.6875 18.507812 12.796875 18.492188 12.921875 C 18.484375 12.972656 18.46875 13.050781 18.445312 13.089844 C 18.414062 13.148438 18.351562 13.171875 18.34375 13.25 C 18.332031 13.359375 18.367188 13.484375 18.351562 13.605469 C 18.332031 13.753906 18.210938 13.859375 18.175781 14.011719 C 18.132812 14.191406 18.113281 14.371094 18.070312 14.550781 C 18.035156 14.683594 18.054688 14.789062 18.023438 14.925781 C 18.007812 14.992188 17.972656 15.070312 17.925781 15.140625 C 17.933594 15.152344 17.941406 15.167969 17.945312 15.183594 C 17.964844 15.226562 18.011719 15.304688 18.007812 15.351562 C 18.003906 15.398438 17.945312 15.429688 17.933594 15.480469 C 17.921875 15.53125 17.949219 15.585938 17.945312 15.640625 C 17.941406 15.710938 17.914062 15.800781 17.890625 15.863281 C 17.835938 15.996094 17.722656 16.121094 17.699219 16.269531 C 17.679688 16.386719 17.753906 16.507812 17.648438 16.605469 C 17.578125 16.671875 17.496094 16.679688 17.441406 16.773438 C 17.394531 16.851562 17.382812 16.949219 17.382812 17.039062 C 17.382812 17.082031 17.402344 17.128906 17.390625 17.171875 C 17.371094 17.230469 17.339844 17.21875 17.308594 17.257812 C 17.175781 17.417969 17.285156 17.597656 17.308594 17.777344 C 17.339844 18.007812 17.121094 17.945312 17 18.070312 C 16.933594 18.136719 16.957031 18.210938 16.933594 18.292969 C 16.910156 18.375 16.859375 18.449219 16.832031 18.523438 C 16.785156 18.660156 16.75 18.855469 16.660156 18.972656 C 16.605469 19.046875 16.542969 19.03125 16.488281 19.089844 C 16.457031 19.121094 16.421875 19.230469 16.398438 19.277344 C 16.335938 19.402344 16.269531 19.464844 16.15625 19.5625 C 16.148438 19.570312 16.058594 19.640625 15.992188 19.691406 C 15.992188 19.789062 15.960938 19.902344 15.960938 19.992188 C 15.960938 20.160156 15.894531 20.175781 15.78125 20.296875 C 15.683594 20.402344 15.585938 20.511719 15.480469 20.617188 C 15.339844 20.75 15.164062 20.820312 15.027344 20.9375 C 14.890625 21.058594 14.882812 21.140625 14.835938 21.308594 C 14.808594 21.398438 14.792969 21.496094 14.742188 21.578125 C 14.703125 21.636719 14.648438 21.65625 14.605469 21.707031 C 14.507812 21.824219 14.507812 22.011719 14.46875 22.152344 C 14.417969 22.347656 14.332031 22.535156 14.265625 22.726562 C 14.214844 22.875 14.152344 23.015625 14.09375 23.160156 C 14.042969 23.277344 14.070312 23.398438 14.074219 23.527344 C 14.082031 23.800781 14.058594 24.082031 14.042969 24.359375 C 14.039062 24.476562 14.007812 24.5625 13.988281 24.671875 C 13.964844 24.785156 14.035156 24.847656 14.050781 24.953125 C 14.0625 25.027344 14.078125 25.175781 14.058594 25.246094 C 14.042969 25.296875 13.996094 25.320312 13.980469 25.363281 C 13.957031 25.410156 13.976562 25.460938 13.960938 25.507812 C 13.925781 25.609375 13.804688 25.597656 13.757812 25.703125 C 13.710938 25.808594 13.753906 25.882812 13.777344 25.980469 C 13.808594 26.113281 13.765625 26.082031 13.671875 26.019531 C 13.609375 25.976562 13.503906 25.90625 13.453125 25.898438 C 13.417969 25.867188 13.367188 25.828125 13.3125 25.789062 Z M 13.3125 25.789062 " fill-opacity="1" fill-rule="nonzero"/></g></svg>