<svg xmlns="http://www.w3.org/2000/svg" xmlns:xlink="http://www.w3.org/1999/xlink" width="40" zoomAndPan="magnify" viewBox="0 0 30 30.000001" height="40" preserveAspectRatio="xMidYMid meet" version="1.0"><defs><clipPath id="0900762a55"><path d="M 3.824219 2.902344 L 26.324219 2.902344 L 26.324219 26.128906 L 3.824219 26.128906 Z M 3.824219 2.902344 " clip-rule="nonzero"/></clipPath></defs><g clip-path="url(#0900762a55)"><path fill="#014d4e" d="M 25.941406 22.734375 C 25.886719 22.691406 25.820312 22.703125 25.753906 22.695312 C 25.613281 22.632812 25.480469 22.546875 25.351562 22.460938 C 25.25 22.378906 25.15625 22.285156 25.042969 22.214844 C 24.957031 22.144531 24.882812 22.050781 24.8125 21.960938 C 24.769531 21.828125 24.78125 21.683594 24.765625 21.542969 C 24.753906 21.429688 24.710938 21.320312 24.664062 21.214844 C 24.628906 21.152344 24.589844 21.09375 24.558594 21.03125 C 24.542969 20.96875 24.546875 20.902344 24.542969 20.839844 C 24.542969 20.703125 24.53125 20.570312 24.496094 20.4375 C 24.46875 20.347656 24.46875 20.222656 24.378906 20.167969 C 24.339844 20.144531 24.296875 20.148438 24.25 20.140625 C 24.226562 20.121094 24.222656 20.09375 24.214844 20.070312 C 24.199219 19.984375 24.191406 19.886719 24.246094 19.8125 C 24.351562 19.566406 24.136719 19.265625 23.972656 19.085938 C 23.628906 18.820312 24.058594 18.507812 24.148438 18.226562 C 24.199219 18.03125 24.199219 17.828125 24.195312 17.625 C 24.207031 17.421875 24.210938 17.300781 24.019531 17.195312 C 23.984375 17.160156 23.945312 17.125 23.914062 17.085938 C 23.867188 17.003906 23.851562 16.898438 23.863281 16.800781 C 23.886719 16.671875 23.996094 16.585938 24.070312 16.484375 C 24.136719 16.390625 24.210938 16.308594 24.273438 16.210938 C 24.445312 15.902344 24.339844 15.757812 24.167969 15.488281 C 24.011719 15.25 23.757812 15.101562 23.550781 14.910156 C 23.472656 14.863281 23.394531 14.828125 23.308594 14.792969 C 23.242188 14.765625 23.167969 14.722656 23.148438 14.644531 C 23.097656 14.507812 23.132812 14.355469 23.097656 14.214844 C 23.074219 14.113281 23 14.035156 22.949219 13.945312 C 22.886719 13.84375 22.90625 13.710938 22.90625 13.597656 C 22.910156 13.464844 22.914062 13.324219 22.953125 13.191406 C 22.980469 13.089844 23.058594 13.011719 23.125 12.929688 C 23.183594 12.851562 23.242188 12.773438 23.296875 12.695312 C 23.390625 12.566406 23.445312 12.421875 23.503906 12.28125 C 23.609375 12.097656 23.675781 11.898438 23.691406 11.6875 C 23.722656 11.472656 23.773438 11.257812 23.726562 11.039062 C 23.710938 10.933594 23.734375 10.824219 23.695312 10.726562 C 23.597656 10.609375 23.464844 10.519531 23.34375 10.421875 C 23.015625 10.117188 22.632812 9.890625 22.277344 9.613281 C 21.84375 9.308594 21.441406 8.953125 20.957031 8.730469 C 20.890625 8.679688 20.839844 8.613281 20.785156 8.550781 C 20.726562 8.460938 20.660156 8.347656 20.535156 8.351562 C 20.480469 8.351562 20.417969 8.371094 20.367188 8.347656 C 20.335938 8.148438 20.53125 8.03125 20.601562 7.863281 C 20.625 7.796875 20.609375 7.726562 20.589844 7.660156 C 20.566406 7.566406 20.5625 7.472656 20.535156 7.378906 C 20.492188 7.238281 20.324219 7.191406 20.203125 7.132812 C 19.851562 6.972656 19.492188 6.800781 19.152344 6.601562 C 18.445312 6.132812 17.664062 5.789062 16.964844 5.308594 C 16.808594 5.179688 16.636719 5.085938 16.46875 4.976562 C 16.042969 4.691406 15.625 4.417969 15.179688 4.15625 C 14.929688 4.03125 14.699219 3.875 14.453125 3.742188 C 14.089844 3.554688 13.734375 3.363281 13.378906 3.160156 C 13.320312 3.125 13.269531 3.078125 13.207031 3.042969 C 13.1875 3.027344 13.152344 3.011719 13.117188 3.023438 C 13.113281 3.027344 13.109375 3.027344 13.105469 3.03125 C 13.101562 3.03125 13.097656 3.03125 13.09375 3.035156 C 13.078125 3.039062 13.0625 3.042969 13.046875 3.050781 C 13.039062 3.054688 13.035156 3.054688 13.03125 3.058594 C 13 3.066406 12.972656 3.085938 12.96875 3.128906 C 12.90625 3.191406 12.835938 3.253906 12.777344 3.324219 C 12.707031 3.414062 12.605469 3.496094 12.578125 3.613281 C 12.5625 3.703125 12.550781 3.792969 12.503906 3.882812 C 12.398438 4.039062 12.1875 4.089844 12.097656 4.265625 C 12.019531 4.410156 11.945312 4.550781 11.859375 4.6875 C 11.8125 4.761719 11.808594 4.847656 11.78125 4.925781 C 11.660156 4.964844 11.507812 4.941406 11.40625 5.042969 C 11.332031 5.117188 11.277344 5.214844 11.261719 5.316406 C 11.226562 5.460938 11.390625 5.5 11.492188 5.53125 C 11.71875 5.628906 11.972656 5.59375 12.199219 5.511719 C 12.300781 5.476562 12.378906 5.394531 12.480469 5.363281 C 12.652344 5.652344 12.097656 5.71875 11.941406 5.855469 C 11.753906 6.078125 11.714844 6.089844 11.433594 6.015625 C 11.316406 5.992188 11.226562 5.921875 11.128906 5.859375 C 10.964844 5.773438 10.871094 5.800781 10.734375 5.910156 C 10.632812 5.945312 10.460938 5.980469 10.355469 6.003906 C 10.25 6.015625 10.148438 5.957031 10.046875 5.992188 C 9.929688 6 9.894531 5.898438 9.816406 5.832031 C 9.742188 5.734375 9.621094 5.664062 9.503906 5.617188 C 9.320312 5.539062 9.042969 5.792969 8.929688 5.917969 C 8.910156 5.953125 8.902344 5.992188 8.925781 6.027344 C 8.9375 6.054688 8.976562 6.109375 8.925781 6.121094 C 8.699219 6.191406 8.675781 6.300781 8.632812 6.515625 C 8.621094 6.558594 8.609375 6.617188 8.582031 6.660156 C 8.546875 6.699219 8.5 6.726562 8.449219 6.746094 C 8.414062 6.683594 8.382812 6.605469 8.371094 6.527344 C 8.367188 6.359375 8.546875 6.210938 8.484375 6.03125 C 8.460938 5.960938 8.390625 5.917969 8.332031 5.875 C 8.234375 5.777344 8.300781 5.628906 8.3125 5.507812 C 8.335938 5.402344 8.328125 5.292969 8.25 5.214844 C 8.207031 5.164062 8.136719 5.136719 8.140625 5.0625 C 8.140625 4.941406 8.15625 4.8125 8.207031 4.699219 C 8.273438 4.554688 8.320312 4.398438 8.375 4.246094 C 8.453125 4.097656 8.558594 3.960938 8.597656 3.789062 C 8.652344 3.5625 8.691406 3.128906 8.46875 2.984375 C 8.390625 2.933594 8.296875 2.941406 8.207031 2.929688 C 8.144531 2.917969 8.074219 2.917969 8.011719 2.925781 C 7.816406 2.929688 7.621094 2.914062 7.425781 2.902344 C 7.164062 2.910156 6.902344 2.90625 6.640625 2.917969 C 6.507812 2.921875 6.386719 2.964844 6.265625 3.015625 C 6.171875 3.046875 6.085938 3.070312 6.011719 3.109375 C 5.933594 3.140625 5.847656 3.152344 5.765625 3.167969 C 5.550781 3.207031 5.46875 3.421875 5.582031 3.601562 C 5.65625 3.707031 5.71875 3.835938 5.816406 3.925781 C 5.898438 3.992188 6 4.011719 6.097656 4.050781 C 6.226562 4.128906 6.296875 4.289062 6.328125 4.4375 C 6.34375 4.550781 6.308594 4.664062 6.308594 4.78125 C 6.296875 4.898438 6.273438 5.019531 6.324219 5.128906 C 6.414062 5.316406 6.488281 5.515625 6.40625 5.722656 C 6.320312 5.929688 6.066406 5.8125 5.90625 5.910156 C 5.796875 5.96875 5.75 6.089844 5.695312 6.195312 C 5.601562 6.378906 5.554688 6.585938 5.488281 6.78125 C 5.46875 6.832031 5.480469 6.882812 5.5 6.929688 C 5.507812 6.988281 5.496094 7.054688 5.535156 7.105469 C 5.613281 7.199219 5.730469 7.292969 5.859375 7.285156 C 5.949219 7.28125 6.046875 7.234375 6.128906 7.273438 C 6.175781 7.300781 6.199219 7.347656 6.226562 7.390625 C 6.261719 7.441406 6.296875 7.492188 6.300781 7.554688 C 6.3125 7.699219 6.191406 7.820312 6.078125 7.894531 C 6.003906 7.957031 5.953125 8.039062 5.894531 8.113281 C 5.792969 8.234375 5.691406 8.355469 5.609375 8.492188 C 5.507812 8.648438 5.460938 8.832031 5.394531 9.003906 C 5.332031 9.15625 5.238281 9.296875 5.164062 9.441406 C 5.0625 9.660156 4.886719 9.796875 4.695312 9.933594 C 4.558594 10.046875 4.460938 10.195312 4.273438 10.230469 C 4.203125 10.253906 4.144531 10.300781 4.078125 10.328125 C 4.066406 10.332031 4.054688 10.335938 4.046875 10.34375 C 4.035156 10.347656 4.023438 10.351562 4.015625 10.359375 C 4.003906 10.363281 3.996094 10.367188 3.988281 10.375 C 3.882812 10.671875 3.824219 11.003906 3.882812 11.320312 C 3.910156 11.441406 4.019531 11.519531 4.09375 11.613281 C 4.167969 11.738281 4.246094 11.878906 4.238281 12.03125 C 4.226562 12.246094 4.171875 12.472656 4.261719 12.679688 C 4.300781 12.800781 4.375 12.898438 4.414062 13.019531 C 4.441406 13.183594 4.453125 13.351562 4.382812 13.503906 C 4.3125 13.644531 4.140625 13.742188 4.152344 13.914062 C 4.160156 14.019531 4.15625 14.132812 4.210938 14.226562 C 4.257812 14.304688 4.304688 14.378906 4.359375 14.449219 C 4.433594 14.535156 4.523438 14.605469 4.605469 14.691406 C 4.652344 14.742188 4.695312 14.804688 4.75 14.847656 C 4.941406 14.96875 5.113281 14.738281 5.335938 14.996094 C 5.503906 15.171875 5.632812 15.386719 5.738281 15.605469 C 5.785156 15.769531 5.71875 15.9375 5.683594 16.097656 C 5.625 16.382812 5.710938 16.667969 5.75 16.949219 C 5.808594 17.234375 6 17.457031 6.1875 17.667969 C 6.269531 17.777344 6.335938 17.886719 6.40625 18.011719 C 6.460938 18.085938 6.519531 18.152344 6.566406 18.238281 C 6.621094 18.351562 6.640625 18.472656 6.6875 18.582031 C 6.738281 18.710938 6.824219 18.851562 6.898438 18.980469 C 6.96875 19.074219 7.015625 19.171875 7.0625 19.285156 C 7.082031 19.367188 7.160156 19.398438 7.238281 19.40625 C 7.519531 19.421875 7.671875 19.5 7.863281 19.707031 C 7.941406 19.777344 7.996094 19.871094 8.089844 19.921875 C 8.15625 19.960938 8.234375 19.957031 8.308594 19.976562 C 8.394531 20.015625 8.5 20.003906 8.578125 20.066406 C 8.640625 20.121094 8.675781 20.207031 8.761719 20.238281 C 8.902344 20.296875 9.046875 20.335938 9.191406 20.371094 C 9.277344 20.394531 9.367188 20.429688 9.457031 20.425781 C 9.550781 20.421875 9.636719 20.425781 9.722656 20.464844 C 9.898438 20.558594 10.046875 20.6875 10.21875 20.773438 C 10.347656 20.835938 10.480469 20.890625 10.621094 20.9375 C 10.820312 21.039062 11.027344 21.128906 11.230469 21.222656 C 11.3125 21.246094 11.398438 21.242188 11.480469 21.265625 C 11.605469 21.3125 11.71875 21.390625 11.847656 21.433594 C 12.015625 21.503906 12.199219 21.53125 12.382812 21.503906 C 12.503906 21.507812 12.628906 21.550781 12.742188 21.589844 C 13.011719 21.679688 12.992188 21.316406 13.257812 21.4375 C 13.324219 21.464844 13.386719 21.484375 13.4375 21.539062 C 13.507812 21.605469 13.535156 21.699219 13.609375 21.773438 C 13.695312 21.875 13.777344 21.96875 13.847656 22.082031 C 13.929688 22.234375 13.980469 22.410156 14.03125 22.574219 C 14.078125 22.761719 14.066406 22.960938 14.089844 23.152344 C 14.097656 23.324219 14.167969 23.480469 14.222656 23.636719 C 14.246094 23.757812 14.242188 23.882812 14.226562 24 C 14.203125 24.148438 14.152344 24.296875 14.179688 24.449219 C 14.203125 24.65625 14.296875 24.855469 14.429688 25.019531 C 14.558594 25.171875 14.71875 25.296875 14.832031 25.460938 C 14.871094 25.539062 14.902344 25.621094 14.941406 25.699219 C 14.984375 25.835938 15.128906 25.792969 15.242188 25.800781 C 15.445312 25.789062 15.648438 25.78125 15.851562 25.769531 C 15.964844 25.765625 16.078125 25.75 16.179688 25.703125 C 16.265625 25.667969 16.332031 25.601562 16.417969 25.570312 C 16.777344 25.472656 17.132812 25.742188 17.359375 25.996094 C 17.488281 26.128906 17.683594 26.082031 17.847656 26.097656 C 18.050781 26.101562 18.265625 26.101562 18.453125 26.015625 C 18.585938 25.960938 18.710938 25.875 18.859375 25.886719 C 19.082031 25.894531 19.261719 26.054688 19.484375 26.078125 C 19.632812 26.085938 19.785156 26.054688 19.929688 26.019531 C 20.070312 25.992188 20.210938 25.964844 20.34375 25.902344 C 20.492188 25.839844 20.59375 25.734375 20.699219 25.609375 C 20.769531 25.546875 20.828125 25.46875 20.871094 25.382812 C 20.976562 25.125 21.300781 25.105469 21.539062 25.171875 C 21.730469 25.238281 21.925781 25.339844 22.136719 25.316406 C 22.304688 25.285156 22.46875 25.214844 22.613281 25.117188 C 22.714844 25.035156 22.828125 24.984375 22.957031 24.949219 C 23.175781 24.890625 23.410156 24.890625 23.636719 24.875 C 23.824219 24.871094 23.972656 24.738281 24.125 24.648438 C 24.277344 24.5625 24.449219 24.476562 24.617188 24.410156 C 24.738281 24.371094 24.84375 24.300781 24.960938 24.253906 C 25.074219 24.207031 25.203125 24.195312 25.300781 24.121094 C 25.550781 23.917969 25.675781 23.589844 25.960938 23.417969 C 26.054688 23.367188 26.167969 23.277344 26.175781 23.15625 C 26.148438 23 26.078125 22.828125 25.941406 22.734375 Z M 25.941406 22.734375 " fill-opacity="1" fill-rule="nonzero"/></g><path fill="#014d4e" d="M 10.75 5.378906 C 10.859375 5.402344 10.96875 5.414062 11.078125 5.4375 C 11.1875 5.453125 11.214844 5.355469 11.1875 5.269531 C 11.15625 5.175781 11.136719 5.070312 11.054688 5.003906 C 10.972656 4.929688 10.863281 4.949219 10.761719 4.957031 C 10.738281 4.949219 10.714844 4.925781 10.683594 4.933594 C 10.554688 4.890625 10.441406 5.117188 10.527344 5.214844 C 10.597656 5.269531 10.664062 5.34375 10.75 5.378906 Z M 10.75 5.378906 " fill-opacity="1" fill-rule="nonzero"/><path fill="#014d4e" d="M 8.636719 5.574219 C 8.617188 5.546875 8.585938 5.53125 8.554688 5.515625 C 8.484375 5.476562 8.40625 5.527344 8.382812 5.597656 C 8.367188 5.664062 8.390625 5.738281 8.417969 5.800781 C 8.4375 5.835938 8.460938 5.855469 8.488281 5.886719 C 8.511719 5.933594 8.550781 5.972656 8.605469 5.984375 C 8.707031 6.015625 8.804688 5.910156 8.78125 5.808594 C 8.757812 5.71875 8.714844 5.632812 8.636719 5.574219 Z M 8.636719 5.574219 " fill-opacity="1" fill-rule="nonzero"/><path fill="#014d4e" d="M 8.582031 4.226562 C 8.570312 4.222656 8.5625 4.222656 8.554688 4.226562 C 8.5625 4.222656 8.570312 4.222656 8.578125 4.226562 C 8.511719 4.207031 8.472656 4.273438 8.441406 4.324219 C 8.375 4.421875 8.34375 4.585938 8.460938 4.664062 C 8.585938 4.730469 8.699219 4.628906 8.722656 4.503906 C 8.738281 4.445312 8.753906 4.382812 8.734375 4.324219 C 8.714844 4.265625 8.644531 4.207031 8.582031 4.226562 Z M 8.582031 4.226562 " fill-opacity="1" fill-rule="nonzero"/><path fill="#014d4e" d="M 10.960938 4.828125 C 11.128906 4.867188 11.265625 4.632812 11.152344 4.503906 C 11.09375 4.449219 10.996094 4.46875 10.9375 4.515625 C 10.847656 4.523438 10.765625 4.621094 10.789062 4.710938 C 10.816406 4.78125 10.894531 4.804688 10.960938 4.828125 Z M 10.960938 4.828125 " fill-opacity="1" fill-rule="nonzero"/><path fill="#014d4e" d="M 11.53125 4.949219 C 11.578125 4.945312 11.625 4.929688 11.664062 4.898438 C 11.707031 4.871094 11.746094 4.835938 11.78125 4.800781 C 11.828125 4.75 11.84375 4.636719 11.765625 4.609375 C 11.699219 4.5 11.539062 4.507812 11.460938 4.601562 C 11.386719 4.6875 11.292969 4.84375 11.398438 4.941406 C 11.433594 4.964844 11.484375 4.953125 11.53125 4.949219 Z M 11.53125 4.949219 " fill-opacity="1" fill-rule="nonzero"/><path fill="#014d4e" d="M 24.820312 17.335938 C 24.757812 17.394531 24.691406 17.441406 24.636719 17.507812 C 24.589844 17.550781 24.542969 17.59375 24.496094 17.636719 C 24.445312 17.675781 24.386719 17.714844 24.367188 17.785156 C 24.34375 17.964844 24.511719 18.113281 24.675781 18.140625 C 24.894531 18.171875 24.933594 17.859375 25.015625 17.71875 C 25.046875 17.636719 25.070312 17.550781 25.101562 17.46875 C 25.136719 17.394531 25.152344 17.296875 25.09375 17.230469 C 25.027344 17.078125 24.882812 17.273438 24.820312 17.335938 Z M 24.820312 17.335938 " fill-opacity="1" fill-rule="nonzero"/><path fill="#014d4e" d="M 23.492188 13.53125 C 23.464844 13.660156 23.535156 13.820312 23.664062 13.867188 C 23.675781 14.03125 23.664062 14.214844 23.777344 14.351562 C 23.90625 14.472656 24.019531 14.65625 24.203125 14.6875 C 24.300781 14.6875 24.390625 14.597656 24.386719 14.5 C 24.386719 14.421875 24.347656 14.351562 24.328125 14.28125 C 24.429688 14 24.222656 13.996094 24.125 13.796875 C 24.03125 13.691406 24.058594 13.546875 24.054688 13.417969 C 24.046875 13.296875 23.914062 13.230469 23.804688 13.277344 C 23.6875 13.332031 23.542969 13.402344 23.492188 13.53125 Z M 23.492188 13.53125 " fill-opacity="1" fill-rule="nonzero"/><path fill="#014d4e" d="M 24.410156 12.652344 C 24.492188 12.675781 24.566406 12.640625 24.625 12.585938 C 24.851562 12.496094 24.984375 12.257812 25.015625 12.023438 C 25.011719 11.875 25.089844 11.734375 25.085938 11.585938 C 25.0625 11.523438 25.050781 11.445312 25.007812 11.386719 C 24.9375 11.320312 24.824219 11.328125 24.738281 11.359375 C 24.632812 11.382812 24.546875 11.460938 24.503906 11.558594 C 24.46875 11.644531 24.527344 11.730469 24.582031 11.796875 C 24.597656 11.828125 24.582031 11.863281 24.59375 11.898438 C 24.46875 12.070312 24.183594 12.207031 24.234375 12.460938 C 24.269531 12.539062 24.320312 12.628906 24.410156 12.652344 Z M 24.410156 12.652344 " fill-opacity="1" fill-rule="nonzero"/></svg>