<svg xmlns="http://www.w3.org/2000/svg" xmlns:xlink="http://www.w3.org/1999/xlink" width="40" zoomAndPan="magnify" viewBox="0 0 30 30.000001" height="40" preserveAspectRatio="xMidYMid meet" version="1.0"><defs><clipPath id="0ee0590e1c"><path d="M 3.386719 6.777344 L 26.613281 6.777344 L 26.613281 22.019531 L 3.386719 22.019531 Z M 3.386719 6.777344 " clip-rule="nonzero"/></clipPath></defs><g clip-path="url(#0ee0590e1c)"><path fill="#014d4e" d="M 15.632812 18.875 L 15.996094 18.96875 L 15.988281 18.992188 L 15.664062 18.921875 L 15.597656 18.894531 L 15.53125 18.871094 L 15.460938 18.8125 L 15.421875 18.746094 L 15.417969 18.675781 L 15.4375 18.632812 L 15.464844 18.636719 L 15.464844 18.738281 L 15.480469 18.78125 L 15.507812 18.820312 L 15.574219 18.851562 L 15.636719 18.84375 L 15.664062 18.871094 Z M 17.953125 21.808594 L 18.003906 21.777344 L 18.015625 21.726562 L 18.003906 21.511719 L 18.023438 21.476562 L 18.027344 21.414062 L 18.058594 21.417969 L 18.078125 21.410156 L 18.09375 21.375 L 18.105469 21.304688 L 18.085938 21.183594 L 18.089844 21.144531 L 18.035156 20.992188 L 17.972656 20.902344 L 17.890625 20.832031 L 17.820312 20.796875 L 17.777344 20.835938 L 17.71875 20.839844 L 17.691406 20.890625 L 17.644531 20.890625 L 17.601562 20.839844 L 17.550781 20.824219 L 17.5 20.789062 L 17.390625 20.652344 L 17.292969 20.566406 L 17.199219 20.503906 L 17.136719 20.488281 L 17.015625 20.496094 L 16.875 20.589844 L 16.648438 20.523438 L 16.683594 20.484375 L 16.683594 20.472656 L 16.636719 20.425781 L 16.722656 20.308594 L 16.78125 20.257812 L 16.878906 20.195312 L 16.925781 20.183594 L 16.933594 20.1875 L 16.9375 20.171875 L 17.050781 20.105469 L 17.070312 20.121094 L 17.085938 20.109375 L 17.09375 20.113281 L 17.105469 20.09375 L 17.074219 20.09375 L 17.082031 20.066406 L 17.199219 19.96875 L 17.4375 19.835938 L 17.488281 19.824219 L 17.507812 19.792969 L 17.519531 19.714844 L 17.519531 19.710938 L 17.53125 19.671875 L 17.554688 19.675781 L 17.550781 19.703125 L 17.558594 19.722656 L 17.601562 19.757812 L 17.628906 19.761719 L 17.761719 19.703125 L 17.863281 19.609375 L 17.890625 19.628906 L 17.898438 19.617188 L 17.917969 19.613281 L 17.917969 19.59375 L 17.941406 19.578125 L 17.964844 19.578125 L 17.96875 19.605469 L 18.007812 19.589844 L 18.011719 19.609375 L 18.042969 19.550781 L 18.058594 19.554688 L 18.109375 19.507812 L 18.148438 19.546875 L 18.171875 19.550781 L 18.1875 19.570312 L 18.179688 19.480469 L 18.210938 19.480469 L 18.25 19.441406 L 18.28125 19.445312 L 18.273438 19.421875 L 18.175781 19.417969 L 18.15625 19.425781 L 18.152344 19.445312 L 18.097656 19.425781 L 18.125 19.386719 L 18.105469 19.222656 L 18.136719 19.171875 L 18.097656 19.070312 L 18.09375 19.058594 L 18.074219 19.050781 L 18.050781 19.089844 L 18.03125 19.089844 L 18.023438 19.117188 L 17.992188 19.128906 L 17.992188 19.136719 L 18.046875 19.175781 L 18.035156 19.195312 L 17.984375 19.183594 L 17.96875 19.195312 L 17.964844 19.222656 L 18.007812 19.285156 L 17.945312 19.28125 L 17.90625 19.253906 L 17.878906 19.261719 L 17.867188 19.300781 L 17.742188 19.132812 L 17.734375 19.140625 L 17.722656 19.203125 L 17.671875 19.195312 L 17.664062 19.144531 L 17.695312 19.144531 L 17.703125 19.109375 L 17.679688 19.09375 L 17.644531 19.082031 L 17.597656 19.097656 L 17.597656 19.15625 L 17.558594 19.136719 L 17.566406 19.078125 L 17.589844 19.050781 L 17.570312 19.019531 L 17.554688 19.054688 L 17.476562 19.117188 L 17.40625 19.09375 L 17.386719 19.066406 L 17.351562 19.058594 L 17.347656 19.066406 L 17.355469 19.082031 L 17.339844 19.113281 L 17.355469 19.136719 L 17.320312 19.152344 L 17.257812 19.144531 L 17.21875 19.15625 L 17.117188 19.136719 L 17.082031 19.144531 L 17.003906 19.121094 L 16.980469 19.132812 L 16.976562 19.144531 L 16.890625 19.164062 L 16.863281 19.152344 L 16.804688 19.164062 L 16.734375 19.199219 L 16.746094 19.199219 L 16.875 19.222656 L 16.988281 19.261719 L 17.003906 19.265625 L 17.058594 19.257812 L 17.132812 19.214844 L 17.179688 19.257812 L 17.203125 19.261719 L 17.222656 19.238281 L 17.269531 19.273438 L 17.347656 19.28125 L 17.40625 19.316406 L 17.328125 19.339844 L 17.132812 19.324219 L 16.996094 19.296875 L 16.992188 19.296875 L 16.96875 19.285156 L 16.710938 19.226562 L 16.710938 19.234375 L 16.644531 19.21875 L 16.269531 19.101562 L 16.273438 19.078125 L 16.292969 19.082031 L 16.300781 19.070312 L 16.292969 19.035156 L 16.253906 19.03125 L 16.207031 18.976562 L 16.171875 18.976562 L 16.113281 18.933594 L 16.09375 18.886719 L 16.070312 18.875 L 16.058594 18.890625 L 15.964844 18.875 L 15.933594 18.84375 L 15.921875 18.808594 L 15.878906 18.800781 L 15.855469 18.847656 L 15.738281 18.84375 L 15.710938 18.871094 L 15.699219 18.800781 L 15.671875 18.792969 L 15.6875 18.757812 L 15.726562 18.726562 L 15.78125 18.703125 L 15.894531 18.699219 L 15.941406 18.683594 L 15.988281 18.660156 L 16.007812 18.621094 L 16.046875 18.621094 L 16.058594 18.613281 L 16.023438 18.523438 L 16.0625 18.492188 L 16.050781 18.492188 L 16.019531 18.515625 L 15.984375 18.515625 L 15.796875 18.441406 L 15.734375 18.429688 L 15.699219 18.4375 L 15.675781 18.46875 L 15.671875 18.488281 L 15.707031 18.523438 L 15.667969 18.523438 L 15.566406 18.414062 L 15.46875 18.332031 L 15.417969 18.25 L 15.4375 18.234375 L 15.46875 18.28125 L 15.523438 18.308594 L 15.613281 18.308594 L 15.75 18.289062 L 15.816406 18.328125 L 15.875 18.34375 L 15.882812 18.347656 L 15.914062 18.355469 L 15.949219 18.34375 L 15.960938 18.363281 L 16.050781 18.394531 L 16.125 18.398438 L 16.167969 18.386719 L 16.230469 18.386719 L 16.328125 18.417969 L 16.402344 18.425781 L 16.441406 18.433594 L 16.402344 18.410156 L 16.4375 18.398438 L 16.417969 18.394531 L 16.417969 18.371094 L 16.433594 18.371094 L 16.421875 18.34375 L 16.4375 18.328125 L 16.410156 18.304688 L 16.441406 18.296875 L 16.441406 18.273438 L 16.433594 18.265625 L 16.375 18.234375 L 16.230469 18.296875 L 16.183594 18.191406 L 16.125 18.1875 L 16.039062 18.109375 L 15.945312 18.101562 L 15.917969 18.144531 L 15.792969 18.191406 L 15.761719 18.164062 L 15.707031 18.152344 L 15.628906 18.121094 L 15.5625 18.121094 L 15.523438 18.144531 L 15.480469 18.210938 L 15.429688 18.167969 L 15.390625 18.152344 L 15.316406 18.148438 L 15.296875 18.167969 L 15.246094 18.164062 L 15.222656 18.207031 L 15.136719 18.183594 L 15.066406 18.1875 L 14.992188 18.160156 L 14.789062 18.207031 L 14.558594 18.292969 L 14.507812 18.285156 L 14.457031 18.304688 L 14.433594 18.363281 L 14.445312 18.378906 L 14.449219 18.386719 L 14.464844 18.367188 L 14.488281 18.480469 L 14.457031 18.613281 L 14.414062 18.640625 L 14.367188 18.703125 L 14.285156 18.875 L 14.207031 19.011719 L 14.148438 19.078125 L 14.113281 19.15625 L 13.976562 19.296875 L 13.773438 19.550781 L 13.125 20.074219 L 13.027344 20.1875 L 13.011719 20.25 L 13.003906 20.25 L 13.03125 20.277344 L 13.023438 20.261719 L 13.046875 20.226562 L 13.082031 20.253906 L 13.136719 20.246094 L 13.167969 20.257812 L 13.183594 20.246094 L 13.207031 20.269531 L 13.1875 20.300781 L 13.203125 20.339844 L 13.183594 20.390625 L 13.203125 20.519531 L 13.167969 20.628906 L 13.175781 20.707031 L 13.144531 20.710938 L 13.136719 20.734375 L 13.085938 20.746094 L 13.066406 20.726562 L 13.042969 20.652344 L 13.066406 20.613281 L 13.058594 20.546875 L 13.042969 20.503906 L 12.976562 20.417969 L 12.914062 20.375 L 12.824219 20.351562 L 12.761719 20.3125 L 12.667969 20.320312 L 12.636719 20.300781 L 12.589844 20.339844 L 12.527344 20.332031 L 12.503906 20.355469 L 12.464844 20.363281 L 12.453125 20.390625 L 12.417969 20.414062 L 12.324219 20.441406 L 12.199219 20.515625 L 12.175781 20.519531 L 12.160156 20.542969 L 12.164062 20.582031 L 12.140625 20.613281 L 12.09375 20.597656 L 12.046875 20.542969 L 12.007812 20.542969 L 11.972656 20.507812 L 11.953125 20.507812 L 11.945312 20.519531 L 11.96875 20.539062 L 11.957031 20.570312 L 11.902344 20.601562 L 11.910156 20.621094 L 11.949219 20.644531 L 11.949219 20.679688 L 11.84375 20.710938 L 11.738281 20.679688 L 11.636719 20.667969 L 11.355469 20.535156 L 11.273438 20.390625 L 11.269531 20.308594 L 11.179688 20.269531 L 11.230469 20.183594 L 11.316406 20.105469 L 11.425781 20.144531 L 11.492188 20.128906 L 11.480469 20.167969 L 11.492188 20.207031 L 11.574219 20.1875 L 11.542969 20.054688 L 11.617188 20.039062 L 11.582031 19.902344 L 11.523438 19.902344 L 11.578125 19.792969 L 11.617188 19.753906 L 11.675781 19.761719 L 11.675781 19.753906 L 11.65625 19.6875 L 11.722656 19.699219 L 11.820312 19.675781 L 11.808594 19.609375 L 11.914062 19.578125 L 11.882812 19.421875 L 11.890625 19.398438 L 11.882812 19.351562 L 11.910156 19.347656 L 11.90625 19.328125 L 12.175781 19.265625 L 12.203125 19.195312 L 12.132812 19.101562 L 12.277344 18.925781 L 12.136719 18.808594 L 12.195312 18.675781 L 12.109375 18.429688 L 12.234375 18.417969 L 12.234375 18.414062 L 12.191406 18.414062 L 12.183594 18.375 L 12.242188 18.371094 L 12.253906 18.347656 L 12.296875 18.332031 L 12.40625 18.328125 L 12.40625 18.273438 L 12.523438 18.242188 L 12.527344 18.351562 L 12.535156 18.351562 L 12.550781 18.394531 L 12.507812 18.433594 L 12.542969 18.519531 L 12.5 18.574219 L 12.515625 18.578125 L 12.542969 18.554688 L 12.542969 18.53125 L 12.597656 18.5 L 12.609375 18.515625 L 12.613281 18.515625 L 12.589844 18.460938 L 12.609375 18.449219 L 12.59375 18.417969 L 12.632812 18.398438 L 12.628906 18.363281 L 12.667969 18.335938 L 12.714844 18.441406 L 12.796875 18.355469 L 12.878906 18.4375 L 12.851562 18.476562 L 12.867188 18.496094 L 12.945312 18.511719 L 12.964844 18.613281 L 12.988281 18.605469 L 12.996094 18.625 L 13.0625 18.617188 L 13.046875 18.488281 L 13.082031 18.46875 L 13.09375 18.496094 L 13.144531 18.488281 L 13.148438 18.476562 L 13.125 18.429688 L 13.15625 18.410156 L 13.210938 18.449219 L 13.230469 18.523438 L 13.277344 18.5625 L 13.257812 18.582031 L 13.328125 18.621094 L 13.328125 18.601562 L 13.402344 18.539062 L 13.464844 18.574219 L 13.480469 18.558594 L 13.515625 18.570312 L 13.566406 18.539062 L 13.605469 18.574219 L 13.648438 18.542969 L 13.632812 18.515625 L 13.628906 18.511719 L 13.621094 18.515625 L 13.621094 18.535156 L 13.589844 18.511719 L 13.585938 18.523438 L 13.535156 18.511719 L 13.542969 18.488281 L 13.496094 18.488281 L 13.5 18.460938 L 13.441406 18.441406 L 13.472656 18.429688 L 13.457031 18.40625 L 13.464844 18.386719 L 13.457031 18.386719 L 13.457031 18.371094 L 13.453125 18.371094 L 13.441406 18.390625 L 13.410156 18.390625 L 13.414062 18.378906 L 13.394531 18.371094 L 13.378906 18.371094 L 13.378906 18.351562 L 13.347656 18.347656 L 13.355469 18.328125 L 13.332031 18.316406 L 13.339844 18.304688 L 13.332031 18.289062 L 13.320312 18.289062 L 13.316406 18.265625 L 13.394531 18.246094 L 13.390625 18.242188 L 13.390625 18.207031 L 13.417969 18.171875 L 13.402344 18.089844 L 13.4375 18.011719 L 13.4375 17.898438 L 13.382812 17.792969 L 13.425781 17.765625 L 13.433594 17.765625 L 13.425781 17.753906 L 13.414062 17.746094 L 13.355469 17.789062 L 13.316406 17.710938 L 13.328125 17.703125 L 13.320312 17.664062 L 13.292969 17.667969 L 13.28125 17.683594 L 13.152344 17.710938 L 13.113281 17.589844 L 13.019531 17.59375 L 13.007812 17.539062 L 12.925781 17.5625 L 12.894531 17.507812 L 12.949219 17.5 L 12.957031 17.359375 L 12.984375 17.34375 L 12.96875 17.261719 L 12.90625 17.269531 L 12.90625 17.300781 L 12.863281 17.3125 L 12.84375 17.238281 L 12.820312 17.242188 L 12.816406 17.195312 L 12.925781 17.167969 L 12.886719 16.957031 L 12.949219 16.941406 L 12.921875 16.753906 L 12.851562 16.765625 L 12.835938 16.777344 L 12.835938 16.792969 L 12.859375 16.804688 L 12.832031 16.824219 L 12.832031 16.875 L 12.742188 16.917969 L 12.734375 16.882812 L 12.699219 16.890625 L 12.675781 16.792969 L 12.695312 16.777344 L 12.691406 16.742188 L 12.625 16.761719 L 12.597656 16.617188 L 12.554688 16.636719 L 12.507812 16.691406 L 12.503906 16.605469 L 12.441406 16.667969 L 12.421875 16.597656 L 12.410156 16.609375 L 12.386719 16.578125 L 12.429688 16.546875 L 12.429688 16.484375 L 12.386719 16.503906 L 12.328125 16.390625 L 12.425781 16.359375 L 12.425781 16.339844 L 12.464844 16.289062 L 12.453125 16.261719 L 12.464844 16.253906 L 12.445312 16.253906 L 12.46875 16.199219 L 12.46875 16.152344 L 12.480469 16.144531 L 12.449219 16.082031 L 12.464844 16.039062 L 12.507812 16.011719 L 12.535156 15.929688 L 12.523438 15.925781 L 12.484375 15.953125 L 12.449219 15.902344 L 12.449219 15.871094 L 12.484375 15.8125 L 12.542969 15.769531 L 12.484375 15.773438 L 12.484375 15.78125 L 12.449219 15.78125 L 12.417969 15.574219 L 12.382812 15.574219 L 12.386719 15.59375 L 12.339844 15.59375 L 12.34375 15.644531 L 12.320312 15.628906 L 12.324219 15.648438 L 12.285156 15.664062 L 12.234375 15.660156 L 12.15625 15.597656 L 12.097656 15.636719 L 12.03125 15.542969 L 12.03125 15.519531 L 11.976562 15.476562 L 11.996094 15.421875 L 11.996094 15.414062 L 11.964844 15.40625 L 11.996094 15.378906 L 12.007812 15.351562 L 11.992188 15.316406 L 11.957031 15.316406 L 11.949219 15.304688 L 11.90625 15.316406 L 11.886719 15.292969 L 11.800781 15.3125 L 11.785156 15.273438 L 11.742188 15.277344 L 11.738281 15.265625 L 11.695312 15.25 L 11.667969 15.226562 L 11.65625 15.234375 L 11.640625 15.222656 L 11.597656 15.261719 L 11.582031 15.261719 L 11.597656 15.277344 L 11.570312 15.304688 L 11.5625 15.332031 L 11.558594 15.394531 L 11.578125 15.4375 L 11.5 15.414062 L 11.4375 15.308594 L 11.460938 15.265625 L 11.453125 15.222656 L 11.410156 15.214844 L 11.371094 15.289062 L 11.324219 15.296875 L 11.292969 15.277344 L 11.300781 15.226562 L 11.351562 15.191406 L 11.371094 15.152344 L 11.371094 15.109375 L 11.355469 15.089844 L 11.324219 15.117188 L 11.300781 15.101562 L 11.171875 15.171875 L 11.140625 15.144531 L 11.140625 15.078125 L 11.121094 15.0625 L 11.105469 15.0625 L 11.097656 15.085938 L 11.058594 15.117188 L 11.023438 15.109375 L 11.003906 15.070312 L 11.023438 14.984375 L 11.011719 14.957031 L 10.984375 14.941406 L 10.851562 14.925781 L 10.773438 14.863281 L 10.746094 14.78125 L 10.683594 14.753906 L 10.640625 14.703125 L 10.589844 14.683594 L 10.515625 14.714844 L 10.457031 14.710938 L 10.382812 14.667969 L 10.402344 14.621094 L 10.332031 14.65625 L 10.289062 14.6875 L 10.253906 14.691406 L 10.21875 14.773438 L 10.132812 14.773438 L 10.113281 14.746094 L 10.117188 14.71875 L 10.105469 14.710938 L 10.105469 14.734375 L 10.085938 14.710938 L 10.085938 14.714844 L 10.0625 14.710938 L 10.011719 14.855469 L 9.980469 14.832031 L 9.941406 14.847656 L 9.910156 14.8125 L 9.894531 14.808594 L 9.859375 14.835938 L 9.816406 14.847656 L 9.75 14.769531 L 9.742188 14.738281 L 9.730469 14.753906 L 9.699219 14.753906 L 9.703125 14.757812 L 9.71875 14.820312 L 9.710938 14.847656 L 9.679688 14.828125 L 9.660156 14.832031 L 9.648438 14.878906 L 9.566406 14.855469 L 9.558594 14.875 L 9.503906 14.820312 L 9.503906 14.792969 L 9.484375 14.765625 L 9.453125 14.773438 L 9.367188 14.765625 L 9.335938 14.800781 L 9.296875 14.777344 L 9.351562 14.859375 L 9.382812 14.875 L 9.402344 14.859375 L 9.429688 14.882812 L 9.441406 14.953125 L 9.414062 14.996094 L 9.382812 15 L 9.347656 14.980469 L 9.335938 14.953125 L 9.316406 14.964844 L 9.265625 14.898438 L 9.277344 14.925781 L 9.246094 14.933594 L 9.246094 14.941406 L 9.214844 14.964844 L 9.214844 14.980469 L 9.175781 15.023438 L 9.191406 15.054688 L 9.183594 15.089844 L 9.175781 15.085938 L 9.179688 15.101562 L 9.132812 15.105469 L 9.121094 15.097656 L 9.117188 15.097656 L 9.113281 15.148438 L 9.082031 15.132812 L 9.078125 15.144531 L 9.039062 15.164062 L 8.972656 15.144531 L 8.957031 15.167969 L 8.9375 15.171875 L 8.949219 15.207031 L 8.910156 15.183594 L 8.863281 15.210938 L 8.847656 15.191406 L 8.832031 15.210938 L 8.824219 15.207031 L 8.824219 15.210938 L 8.804688 15.210938 L 8.804688 15.214844 L 8.8125 15.25 L 8.765625 15.304688 L 8.738281 15.40625 L 8.660156 15.460938 L 8.640625 15.550781 L 8.621094 15.578125 L 8.515625 15.613281 L 8.457031 15.59375 L 8.3125 15.625 L 8.273438 15.617188 L 8.265625 15.636719 L 8.234375 15.644531 L 8.199219 15.625 L 8.160156 15.636719 L 8.140625 15.660156 L 8.089844 15.683594 L 7.964844 15.679688 L 7.921875 15.664062 L 7.851562 15.683594 L 7.5 15.726562 L 7.441406 15.769531 L 7.398438 15.769531 L 7.382812 15.828125 L 7.316406 15.917969 L 7.316406 15.957031 L 7.289062 15.964844 L 7.273438 15.976562 L 7.25 16.027344 L 7.175781 16.054688 L 7.167969 16.050781 L 7.148438 16.089844 L 7.105469 16.070312 L 7.09375 16.082031 L 6.992188 16.078125 L 6.9375 16.089844 L 6.925781 16.027344 L 6.875 15.972656 L 6.875 15.949219 L 6.855469 15.925781 L 6.859375 15.90625 L 6.804688 15.894531 L 6.800781 15.871094 L 6.777344 15.890625 L 6.753906 15.863281 L 6.710938 15.867188 L 6.703125 15.835938 L 6.667969 15.820312 L 6.65625 15.789062 L 6.667969 15.757812 L 6.640625 15.71875 L 6.621094 15.707031 L 6.613281 15.660156 L 6.601562 15.660156 L 6.585938 15.675781 L 6.558594 15.625 L 6.550781 15.621094 L 6.535156 15.640625 L 6.496094 15.636719 L 6.476562 15.65625 L 6.382812 15.617188 L 6.339844 15.640625 L 6.324219 15.691406 L 6.269531 15.722656 L 6.242188 15.703125 L 6.1875 15.738281 L 6.160156 15.738281 L 6.117188 15.761719 L 6.070312 15.71875 L 5.964844 15.722656 L 5.9375 15.675781 L 5.90625 15.648438 L 5.867188 15.65625 L 5.835938 15.621094 L 5.804688 15.636719 L 5.792969 15.621094 L 5.773438 15.625 L 5.761719 15.65625 L 5.683594 15.664062 L 5.660156 15.6875 L 5.625 15.664062 L 5.597656 15.59375 L 5.542969 15.5625 L 5.511719 15.558594 L 5.398438 15.582031 L 5.332031 15.535156 L 5.269531 15.542969 L 5.234375 15.519531 L 5.226562 15.554688 L 5.1875 15.617188 L 5.121094 15.597656 L 5.101562 15.574219 L 5.078125 15.578125 L 5.058594 15.550781 L 5.027344 15.542969 L 4.996094 15.511719 L 4.960938 15.511719 L 4.964844 15.472656 L 4.917969 15.457031 L 4.894531 15.433594 L 4.910156 15.398438 L 4.882812 15.375 L 4.878906 15.355469 L 4.871094 15.371094 L 4.789062 15.359375 L 4.773438 15.324219 L 4.769531 15.324219 L 4.753906 15.332031 L 4.738281 15.367188 L 4.714844 15.375 L 4.726562 15.390625 L 4.699219 15.414062 L 4.710938 15.4375 L 4.695312 15.457031 L 4.707031 15.472656 L 4.6875 15.5 L 4.695312 15.503906 L 4.683594 15.539062 L 4.605469 15.542969 L 4.574219 15.574219 L 4.519531 15.53125 L 4.503906 15.535156 L 4.464844 15.515625 L 4.464844 15.519531 L 4.484375 15.535156 L 4.5 15.613281 L 4.414062 15.640625 L 4.402344 15.605469 L 4.339844 15.582031 L 4.332031 15.554688 L 4.367188 15.511719 L 4.382812 15.453125 L 4.375 15.457031 L 4.363281 15.410156 L 4.335938 15.394531 L 4.316406 15.355469 L 4.316406 15.339844 L 4.300781 15.371094 L 4.292969 15.328125 L 4.285156 15.328125 L 4.277344 15.324219 L 4.277344 15.328125 L 4.25 15.347656 L 4.230469 15.324219 L 4.210938 15.324219 L 4.125 15.375 L 4.003906 15.335938 L 4.015625 15.308594 L 4.003906 15.253906 L 4.011719 15.25 L 4.007812 15.242188 L 3.992188 15.246094 L 3.972656 15.199219 L 3.984375 15.167969 L 3.941406 15.148438 L 3.917969 15.109375 L 3.917969 15.097656 L 3.890625 15.089844 L 3.898438 15.070312 L 3.890625 15.070312 L 3.855469 15.097656 L 3.78125 15.089844 L 3.746094 15.097656 L 3.714844 15.128906 L 3.652344 15.027344 L 3.644531 14.980469 L 3.617188 14.945312 L 3.621094 14.898438 L 3.566406 14.882812 L 3.519531 14.828125 L 3.546875 14.789062 L 3.527344 14.789062 L 3.492188 14.765625 L 3.40625 14.8125 L 3.394531 14.730469 L 3.425781 14.46875 L 3.457031 14.398438 L 3.503906 14.359375 L 3.519531 14.359375 L 3.546875 14.316406 L 3.617188 14.257812 L 3.65625 14.242188 L 3.679688 14.15625 L 3.679688 14.148438 L 3.65625 14.128906 L 3.660156 14.09375 L 3.710938 14.023438 L 3.695312 13.960938 L 3.703125 13.902344 L 3.734375 13.867188 L 3.761719 13.855469 L 3.773438 13.796875 L 3.761719 13.773438 L 3.828125 13.675781 L 3.835938 13.640625 L 3.871094 13.621094 L 3.898438 13.628906 L 3.917969 13.617188 L 3.90625 13.59375 L 3.925781 13.574219 L 3.925781 13.484375 L 3.960938 13.449219 L 3.984375 13.441406 L 4.042969 13.476562 L 4.078125 13.535156 L 4.105469 13.550781 L 4.128906 13.53125 L 4.195312 13.546875 L 4.21875 13.519531 L 4.28125 13.578125 L 4.3125 13.578125 L 4.332031 13.621094 L 4.367188 13.613281 L 4.367188 13.609375 L 4.34375 13.582031 L 4.347656 13.578125 L 4.335938 13.578125 L 4.347656 13.546875 L 4.335938 13.515625 L 4.363281 13.46875 L 4.332031 13.457031 L 4.324219 13.441406 L 4.296875 13.445312 L 4.273438 13.40625 L 4.242188 13.386719 L 4.238281 13.359375 L 4.199219 13.367188 L 4.171875 13.347656 L 4.191406 13.308594 L 4.167969 13.351562 L 4.136719 13.308594 L 4.175781 13.230469 L 4.15625 13.226562 L 4.148438 13.199219 L 4.15625 13.167969 L 4.179688 13.160156 L 4.195312 13.03125 L 4.191406 12.945312 L 4.128906 12.691406 L 4.085938 12.679688 L 4.050781 12.605469 L 4.085938 12.582031 L 4.125 12.5 L 4.234375 12.355469 L 4.242188 12.3125 L 4.269531 12.277344 L 4.296875 12.269531 L 4.320312 12.246094 L 4.355469 12.1875 L 4.382812 12.164062 L 4.417969 12.101562 L 4.46875 12.058594 L 4.484375 11.988281 L 4.523438 11.980469 L 4.648438 11.75 L 4.773438 11.601562 L 4.777344 11.5625 L 4.8125 11.546875 L 4.855469 11.492188 L 4.855469 11.449219 L 4.882812 11.449219 L 4.910156 11.429688 L 5.105469 11.222656 L 5.246094 11.128906 L 5.316406 11.023438 L 5.375 10.996094 L 5.394531 10.914062 L 5.433594 10.882812 L 5.535156 10.847656 L 5.707031 10.828125 L 5.773438 10.835938 L 5.785156 10.789062 L 5.824219 10.765625 L 5.886719 10.578125 L 5.90625 10.457031 L 5.898438 10.429688 L 5.90625 10.40625 L 5.898438 10.40625 L 5.886719 10.375 L 5.894531 10.34375 L 5.890625 10.328125 L 5.863281 10.320312 L 5.871094 10.242188 L 5.851562 10.242188 L 5.808594 10.222656 L 5.804688 10.164062 L 5.792969 10.160156 L 5.8125 10.132812 L 5.769531 10.140625 L 5.75 10.117188 L 5.738281 10.078125 L 5.746094 10.03125 L 5.78125 9.980469 L 5.804688 9.96875 L 5.871094 9.972656 L 5.871094 9.980469 L 5.933594 9.972656 L 5.972656 9.941406 L 5.976562 9.933594 L 5.953125 9.929688 L 5.898438 9.894531 L 5.855469 9.890625 L 5.746094 9.761719 L 5.730469 9.6875 L 5.660156 9.628906 L 5.683594 9.625 L 5.675781 9.601562 L 5.683594 9.585938 L 5.675781 9.582031 L 5.667969 9.515625 L 5.648438 9.503906 L 5.628906 9.523438 L 5.621094 9.472656 L 5.601562 9.457031 L 5.605469 9.429688 L 5.585938 9.410156 L 5.597656 9.375 L 5.613281 9.375 L 5.613281 9.351562 L 5.585938 9.332031 L 5.5625 9.335938 L 5.539062 9.289062 L 5.511719 9.277344 L 5.472656 9.230469 L 5.441406 9.226562 L 5.449219 9.191406 L 5.429688 9.171875 L 5.429688 9.121094 L 5.390625 9.078125 L 5.371094 9.078125 L 5.359375 9.089844 L 5.328125 9.066406 L 5.335938 9.046875 L 5.324219 9.027344 L 5.316406 8.96875 L 5.335938 8.957031 L 5.332031 8.957031 L 5.355469 8.894531 L 5.371094 8.894531 L 5.371094 8.882812 L 5.378906 8.871094 L 5.359375 8.855469 L 5.402344 8.832031 L 5.402344 8.824219 L 5.375 8.8125 L 5.386719 8.804688 L 5.367188 8.78125 L 5.371094 8.769531 L 5.332031 8.761719 L 5.328125 8.714844 L 5.359375 8.691406 L 5.355469 8.675781 L 5.351562 8.671875 L 5.328125 8.679688 L 5.292969 8.652344 L 5.289062 8.617188 L 5.3125 8.613281 L 5.316406 8.625 L 5.359375 8.632812 L 5.367188 8.628906 L 5.316406 8.535156 L 5.351562 8.5 L 5.355469 8.480469 L 5.324219 8.460938 L 5.273438 8.375 L 5.355469 8.335938 L 5.375 8.304688 L 5.417969 8.316406 L 5.515625 8.277344 L 5.535156 8.300781 L 5.535156 8.328125 L 5.566406 8.320312 L 5.699219 8.355469 L 5.644531 8.410156 L 5.644531 8.425781 L 5.6875 8.417969 L 5.78125 8.449219 L 5.808594 8.410156 L 5.875 8.375 L 5.933594 8.28125 L 6.125 8.175781 L 6.179688 8.113281 L 6.152344 8.007812 L 6.214844 7.910156 L 6.207031 7.886719 L 6.28125 7.832031 L 6.402344 7.832031 L 6.523438 7.816406 L 6.597656 7.789062 L 6.65625 7.808594 L 6.714844 7.800781 L 6.746094 7.828125 L 6.757812 7.828125 L 6.84375 7.765625 L 6.875 7.769531 L 6.882812 7.796875 L 6.972656 7.765625 L 6.992188 7.800781 L 7.023438 7.800781 L 7.066406 7.761719 L 7.09375 7.757812 L 7.191406 7.6875 L 7.25 7.6875 L 7.320312 7.652344 L 7.363281 7.671875 L 7.40625 7.65625 L 7.507812 7.722656 L 7.59375 7.742188 L 7.605469 7.757812 L 7.683594 7.757812 L 7.695312 7.734375 L 7.730469 7.75 L 7.753906 7.71875 L 7.839844 7.75 L 7.992188 7.769531 L 8.058594 7.75 L 8.066406 7.75 L 8.054688 7.703125 L 8.082031 7.695312 L 8.152344 7.714844 L 8.148438 7.746094 L 8.152344 7.75 L 8.28125 7.769531 L 8.347656 7.738281 L 8.378906 7.734375 L 8.433594 7.75 L 8.4375 7.769531 L 8.492188 7.78125 L 8.550781 7.847656 L 8.578125 7.84375 L 8.578125 7.871094 L 8.597656 7.867188 L 8.613281 7.878906 L 8.648438 7.859375 L 8.746094 7.863281 L 8.765625 7.878906 L 8.832031 7.871094 L 8.886719 7.839844 L 8.890625 7.929688 L 8.914062 7.925781 L 8.945312 7.96875 L 8.976562 7.976562 L 8.984375 8.003906 L 9.054688 8.007812 L 9.070312 7.976562 L 9.113281 7.964844 L 9.117188 7.941406 L 9.15625 7.953125 L 9.257812 7.949219 L 9.28125 7.976562 L 9.335938 7.996094 L 9.347656 8.023438 L 9.34375 8.054688 L 9.382812 8.074219 L 9.386719 8.089844 L 9.449219 8.070312 L 9.492188 8.109375 L 9.542969 8.113281 L 9.574219 8.132812 L 9.632812 8.070312 L 9.917969 8.058594 L 9.925781 8.285156 L 9.96875 8.28125 L 10.011719 8.316406 L 9.972656 8.386719 L 9.972656 8.410156 L 10.082031 8.40625 L 10.109375 8.378906 L 10.152344 8.402344 L 10.183594 8.40625 L 10.183594 8.398438 L 10.230469 8.375 L 10.246094 8.398438 L 10.269531 8.382812 L 10.289062 8.410156 L 10.277344 8.4375 L 10.292969 8.445312 L 10.300781 8.429688 L 10.296875 8.429688 L 10.292969 8.367188 L 10.316406 8.339844 L 10.339844 8.363281 L 10.355469 8.339844 L 10.453125 8.40625 L 10.480469 8.386719 L 10.535156 8.398438 L 10.546875 8.410156 L 10.589844 8.410156 L 10.601562 8.453125 L 10.585938 8.511719 L 10.535156 8.5625 L 10.527344 8.605469 L 10.523438 8.605469 L 10.601562 8.671875 L 10.613281 8.671875 L 10.664062 8.554688 L 10.710938 8.550781 L 10.722656 8.542969 L 10.691406 8.472656 L 10.707031 8.410156 L 10.671875 8.386719 L 10.730469 8.34375 L 10.816406 8.378906 L 10.835938 8.410156 L 10.832031 8.453125 L 10.839844 8.453125 L 10.855469 8.425781 L 10.910156 8.425781 L 10.867188 8.492188 L 10.960938 8.484375 L 11.003906 8.453125 L 11.039062 8.460938 L 11.074219 8.402344 L 11.105469 8.398438 L 11.121094 8.375 L 11.125 8.324219 L 11.246094 8.242188 L 11.269531 8.265625 L 11.253906 8.375 L 11.28125 8.367188 L 11.367188 8.480469 L 11.375 8.535156 L 11.410156 8.519531 L 11.511719 8.429688 L 11.582031 8.4375 L 11.59375 8.449219 L 11.636719 8.453125 L 11.636719 8.472656 L 11.757812 8.480469 L 11.761719 8.503906 L 11.75 8.507812 L 11.757812 8.519531 L 11.746094 8.527344 L 11.796875 8.734375 L 11.804688 8.738281 L 11.867188 8.671875 L 11.867188 8.761719 L 11.875 8.789062 L 11.886719 8.777344 L 11.890625 8.730469 L 11.902344 8.726562 L 11.894531 8.691406 L 11.871094 8.660156 L 11.957031 8.5 L 11.996094 8.488281 L 12.070312 8.4375 L 12.160156 8.429688 L 12.171875 8.464844 L 12.183594 8.464844 L 12.21875 8.4375 L 12.320312 8.304688 L 12.40625 8.300781 L 12.425781 8.320312 L 12.410156 8.355469 L 12.433594 8.363281 L 12.425781 8.386719 L 12.460938 8.417969 L 12.464844 8.464844 L 12.515625 8.480469 L 12.527344 8.566406 L 12.511719 8.632812 L 12.535156 8.675781 L 12.535156 8.699219 L 12.578125 8.714844 L 12.609375 8.832031 L 12.605469 8.863281 L 12.632812 8.855469 L 12.660156 8.820312 L 12.699219 8.800781 L 12.8125 8.824219 L 12.832031 8.789062 L 12.824219 8.738281 L 12.859375 8.65625 L 12.921875 8.695312 L 12.941406 8.679688 L 12.941406 8.644531 L 12.964844 8.636719 L 12.984375 8.605469 L 13 8.617188 L 13.011719 8.609375 L 13.023438 8.613281 L 13.027344 8.605469 L 13.074219 8.585938 L 13.085938 8.566406 L 13.128906 8.566406 L 13.144531 8.605469 L 13.148438 8.65625 L 13.128906 8.667969 L 13.148438 8.714844 L 13.1875 8.734375 L 13.1875 8.714844 L 13.21875 8.707031 L 13.234375 8.726562 L 13.265625 8.710938 L 13.300781 8.730469 L 13.3125 8.695312 L 13.300781 8.679688 L 13.328125 8.65625 L 13.375 8.644531 L 13.417969 8.675781 L 13.433594 8.652344 L 13.457031 8.65625 L 13.476562 8.648438 L 13.484375 8.609375 L 13.621094 8.644531 L 13.609375 8.613281 L 13.632812 8.597656 L 13.671875 8.632812 L 13.6875 8.585938 L 13.734375 8.628906 L 13.792969 8.648438 L 13.847656 8.691406 L 13.90625 8.761719 L 13.949219 8.773438 L 13.917969 8.792969 L 13.9375 8.875 L 13.898438 8.90625 L 13.90625 8.917969 L 13.992188 9.003906 L 14.078125 9.007812 L 14.066406 9.070312 L 14.125 9.058594 L 14.164062 9.09375 L 14.246094 9.050781 L 14.25 9.042969 L 14.238281 9.023438 L 14.242188 9.019531 L 14.21875 9.003906 L 14.269531 8.949219 L 14.292969 8.941406 L 14.28125 8.902344 L 14.304688 8.863281 L 14.265625 8.78125 L 14.238281 8.789062 L 14.21875 8.769531 L 14.207031 8.710938 L 14.261719 8.691406 L 14.222656 8.671875 L 14.210938 8.617188 L 14.191406 8.597656 L 14.207031 8.527344 L 14.175781 8.550781 L 14.140625 8.492188 L 14.140625 8.464844 L 14.148438 8.460938 L 14.144531 8.460938 L 14.113281 8.421875 L 14.136719 8.390625 L 14.160156 8.398438 L 14.148438 8.386719 L 14.148438 8.378906 L 14.117188 8.367188 L 14.121094 8.328125 L 14.144531 8.296875 L 14.121094 8.265625 L 14.15625 8.242188 L 14.183594 8.273438 L 14.191406 8.273438 L 14.199219 8.253906 L 14.179688 8.183594 L 14.261719 8.167969 L 14.265625 8.128906 L 14.285156 8.089844 L 14.25 8.097656 L 14.242188 8.066406 L 14.273438 8.046875 L 14.292969 8.046875 L 14.292969 8.035156 L 14.3125 8.011719 L 14.289062 7.949219 L 14.351562 7.921875 L 14.367188 7.863281 L 14.410156 7.824219 L 14.425781 7.78125 L 14.496094 7.789062 L 14.519531 7.75 L 14.5 7.695312 L 14.53125 7.671875 L 14.539062 7.675781 L 14.539062 7.664062 L 14.582031 7.636719 L 14.597656 7.644531 L 14.601562 7.644531 L 14.597656 7.617188 L 14.617188 7.613281 L 14.609375 7.601562 L 14.636719 7.558594 L 14.640625 7.570312 L 14.644531 7.558594 L 14.632812 7.539062 L 14.65625 7.535156 L 14.640625 7.511719 L 14.664062 7.496094 L 14.644531 7.46875 L 14.671875 7.457031 L 14.660156 7.433594 L 14.6875 7.429688 L 14.6875 7.398438 L 14.734375 7.390625 L 14.734375 7.414062 L 14.753906 7.417969 L 14.851562 7.394531 L 14.890625 7.394531 L 14.953125 7.367188 L 14.984375 7.417969 L 15.054688 7.4375 L 15.054688 7.464844 L 15.070312 7.480469 L 15.097656 7.496094 L 15.140625 7.476562 L 15.167969 7.429688 L 15.15625 7.417969 L 15.175781 7.371094 L 15.246094 7.34375 L 15.238281 7.320312 L 15.285156 7.292969 L 15.359375 7.292969 L 15.382812 7.34375 L 15.402344 7.347656 L 15.441406 7.328125 L 15.554688 7.351562 L 15.644531 7.351562 L 15.707031 7.371094 L 15.714844 7.390625 L 15.789062 7.355469 L 15.832031 7.386719 L 15.894531 7.363281 L 15.945312 7.382812 L 16.023438 7.4375 L 16.019531 7.472656 L 16.003906 7.492188 L 16.027344 7.488281 L 16.175781 7.527344 L 16.183594 7.507812 L 16.226562 7.511719 L 16.246094 7.457031 L 16.3125 7.453125 L 16.351562 7.425781 L 16.382812 7.417969 L 16.429688 7.390625 L 16.433594 7.351562 L 16.460938 7.347656 L 16.464844 7.328125 L 16.519531 7.304688 L 16.464844 7.3125 L 16.5 7.21875 L 16.472656 7.148438 L 16.503906 7.09375 L 16.554688 7.097656 L 16.5625 7.09375 L 16.554688 7.074219 L 16.558594 7.042969 L 16.539062 7.042969 L 16.496094 6.953125 L 16.496094 6.914062 L 16.515625 6.890625 L 16.574219 6.890625 L 16.617188 6.917969 L 16.648438 6.910156 L 16.679688 6.933594 L 16.703125 6.910156 L 16.765625 6.914062 L 16.804688 6.960938 L 16.835938 6.953125 L 16.941406 7.035156 L 16.960938 7.066406 L 17.023438 7.03125 L 17.039062 7.046875 L 17.078125 7.035156 L 17.097656 7.042969 L 17.121094 7.003906 L 17.199219 7.019531 L 17.203125 7.074219 L 17.21875 7.078125 L 17.285156 7.019531 L 17.324219 7.019531 L 17.332031 6.992188 L 17.386719 6.953125 L 17.414062 6.898438 L 17.445312 6.914062 L 17.445312 6.933594 L 17.476562 6.902344 L 17.507812 6.859375 L 17.546875 6.871094 L 17.550781 6.808594 L 17.574219 6.804688 L 17.582031 6.777344 L 17.601562 6.804688 L 17.613281 6.796875 L 17.734375 6.851562 L 17.746094 6.839844 L 17.773438 6.851562 L 17.816406 6.808594 L 17.847656 6.808594 L 17.886719 6.839844 L 17.882812 6.855469 L 17.890625 6.859375 L 17.886719 6.851562 L 17.925781 6.804688 L 17.945312 6.832031 L 18.007812 6.835938 L 18.023438 6.878906 L 18.003906 6.902344 L 17.980469 6.910156 L 17.96875 6.929688 L 18.046875 6.949219 L 18.046875 6.941406 L 18.027344 6.921875 L 18.042969 6.902344 L 18.078125 6.921875 L 18.109375 6.878906 L 18.175781 6.867188 L 18.195312 6.851562 L 18.199219 6.832031 L 18.253906 6.816406 L 18.273438 6.832031 L 18.34375 6.804688 L 18.417969 6.824219 L 18.445312 6.890625 L 18.425781 6.933594 L 18.457031 6.953125 L 18.484375 6.960938 L 18.492188 6.941406 L 18.523438 6.960938 L 18.554688 7.015625 L 18.550781 7.078125 L 18.570312 7.082031 L 18.574219 7.105469 L 18.625 7.117188 L 18.636719 7.164062 L 18.691406 7.175781 L 18.707031 7.222656 L 18.699219 7.25 L 18.773438 7.304688 L 18.761719 7.363281 L 18.738281 7.386719 L 18.753906 7.414062 L 18.71875 7.445312 L 18.726562 7.445312 L 18.753906 7.515625 L 18.746094 7.542969 L 18.75 7.578125 L 18.800781 7.597656 L 18.792969 7.640625 L 18.800781 7.660156 L 18.859375 7.660156 L 18.882812 7.722656 L 18.914062 7.75 L 18.90625 7.765625 L 18.957031 7.785156 L 18.957031 7.839844 L 18.964844 7.828125 L 19 7.828125 L 19.039062 7.867188 L 19.078125 7.882812 L 19.089844 7.910156 L 19.109375 7.914062 L 19.152344 7.957031 L 19.144531 8.035156 L 19.179688 8.085938 L 19.183594 8.136719 L 19.152344 8.191406 L 19.070312 8.214844 L 19.003906 8.199219 L 18.984375 8.230469 L 18.90625 8.246094 L 18.882812 8.238281 L 18.875 8.253906 L 18.816406 8.273438 L 18.777344 8.265625 L 18.738281 8.296875 L 18.75 8.292969 L 18.757812 8.320312 L 18.789062 8.320312 L 18.789062 8.335938 L 18.832031 8.328125 L 18.851562 8.425781 L 18.890625 8.421875 L 18.894531 8.460938 L 18.914062 8.445312 L 18.945312 8.511719 L 18.945312 8.554688 L 18.988281 8.5625 L 19.015625 8.597656 L 19.007812 8.628906 L 18.988281 8.628906 L 18.996094 8.6875 L 18.960938 8.699219 L 18.9375 8.730469 L 18.945312 8.761719 L 18.933594 8.792969 L 18.914062 8.796875 L 18.921875 8.816406 L 18.90625 8.820312 L 18.914062 8.839844 L 18.9375 8.839844 L 18.960938 8.871094 L 18.996094 8.863281 L 18.988281 8.886719 L 19 8.886719 L 19.046875 8.914062 L 19.058594 8.945312 L 19.019531 9 L 18.988281 9 L 18.996094 9.011719 L 18.980469 9.050781 L 18.972656 9.050781 L 18.964844 9.070312 L 18.9375 9.082031 L 18.953125 9.113281 L 18.921875 9.128906 L 19.015625 9.175781 L 19.035156 9.175781 L 19.105469 9.105469 L 19.171875 9.140625 L 19.1875 9.128906 L 19.242188 9.164062 L 19.257812 9.167969 L 19.269531 9.148438 L 19.304688 9.148438 L 19.347656 9.175781 L 19.371094 9.140625 L 19.460938 9.15625 L 19.472656 9.265625 L 19.519531 9.300781 L 19.535156 9.289062 L 19.59375 9.300781 L 19.609375 9.277344 L 19.644531 9.3125 L 19.660156 9.3125 L 19.664062 9.292969 L 19.707031 9.25 L 19.730469 9.265625 L 19.75 9.257812 L 19.769531 9.234375 L 19.800781 9.238281 L 19.804688 9.222656 L 19.855469 9.183594 L 19.898438 9.1875 L 19.945312 9.214844 L 19.949219 9.230469 L 19.957031 9.222656 L 19.972656 9.1875 L 20.050781 9.191406 L 20.09375 9.210938 L 20.0625 9.277344 L 20.074219 9.328125 L 20.0625 9.335938 L 20.078125 9.351562 L 20.082031 9.390625 L 20.125 9.414062 L 20.113281 9.445312 L 20.132812 9.472656 L 20.121094 9.503906 L 20.117188 9.503906 L 20.140625 9.558594 L 20.160156 9.566406 L 20.207031 9.527344 L 20.226562 9.539062 L 20.226562 9.535156 L 20.265625 9.519531 L 20.265625 9.5 L 20.332031 9.539062 L 20.371094 9.535156 L 20.386719 9.5625 L 20.414062 9.574219 L 20.421875 9.636719 L 20.386719 9.648438 L 20.367188 9.679688 L 20.320312 9.667969 L 20.351562 9.730469 L 20.324219 9.796875 L 20.328125 9.804688 L 20.378906 9.808594 L 20.378906 9.824219 L 20.402344 9.828125 L 20.421875 9.855469 L 20.425781 9.890625 L 20.402344 9.898438 L 20.421875 9.929688 L 20.40625 9.941406 L 20.425781 9.953125 L 20.445312 9.96875 L 20.441406 10.054688 L 20.476562 10.082031 L 20.511719 10.082031 L 20.535156 10.101562 L 20.511719 10.167969 L 20.519531 10.1875 L 20.492188 10.210938 L 20.511719 10.21875 L 20.496094 10.257812 L 20.507812 10.277344 L 20.539062 10.304688 L 20.527344 10.371094 L 20.484375 10.34375 L 20.410156 10.367188 L 20.40625 10.382812 L 20.449219 10.457031 L 20.410156 10.5 L 20.453125 10.535156 L 20.464844 10.597656 L 20.511719 10.675781 L 20.609375 10.734375 L 20.621094 10.707031 L 20.65625 10.757812 L 20.65625 10.882812 L 20.699219 10.90625 L 20.683594 10.925781 L 20.703125 10.945312 L 20.746094 10.945312 L 20.839844 10.941406 L 20.917969 10.863281 L 20.921875 10.847656 L 20.902344 10.828125 L 20.972656 10.78125 L 20.984375 10.800781 L 21 10.796875 L 21.011719 10.804688 L 21.035156 10.769531 L 21.089844 10.789062 L 21.269531 10.757812 L 21.398438 10.800781 L 21.417969 10.851562 L 21.433594 10.84375 L 21.496094 10.941406 L 21.558594 10.988281 L 21.542969 11.023438 L 21.570312 11.074219 L 21.652344 11.085938 L 21.644531 11.070312 L 21.695312 11.046875 L 21.746094 10.992188 L 21.765625 11.042969 L 21.816406 11.042969 L 21.835938 11.070312 L 21.875 11.078125 L 21.875 11.097656 L 21.894531 11.105469 L 21.945312 11.09375 L 21.964844 11.136719 L 21.941406 11.140625 L 21.945312 11.160156 L 21.925781 11.179688 L 21.976562 11.21875 L 22.015625 11.230469 L 22.042969 11.199219 L 22.0625 11.132812 L 22.082031 11.136719 L 22.101562 11.117188 L 22.140625 11.109375 L 22.167969 11.066406 L 22.25 11.042969 L 22.289062 11.003906 L 22.378906 10.96875 L 22.5 10.964844 L 22.53125 10.980469 L 22.585938 10.96875 L 22.585938 10.953125 L 22.644531 10.945312 L 22.660156 10.953125 L 22.828125 10.867188 L 22.855469 10.816406 L 22.890625 10.789062 L 22.992188 10.800781 L 23.078125 10.746094 L 23.109375 10.757812 L 23.097656 10.820312 L 23.074219 10.828125 L 23.074219 10.90625 L 23.097656 10.953125 L 23.121094 10.964844 L 23.144531 10.996094 L 23.191406 11.011719 L 23.207031 11.046875 L 23.238281 11.03125 L 23.300781 11.046875 L 23.285156 11.09375 L 23.285156 11.199219 L 23.269531 11.238281 L 23.304688 11.285156 L 23.304688 11.320312 L 23.386719 11.40625 L 23.445312 11.503906 L 23.492188 11.492188 L 23.566406 11.546875 L 23.613281 11.5625 L 23.65625 11.589844 L 23.710938 11.710938 L 23.738281 11.730469 L 23.753906 11.726562 L 23.816406 11.8125 L 23.804688 11.816406 L 23.90625 11.773438 L 23.910156 11.808594 L 23.945312 11.78125 L 23.9375 11.757812 L 23.980469 11.738281 L 23.980469 11.726562 L 24.003906 11.710938 L 23.96875 11.632812 L 23.960938 11.503906 L 24.089844 11.523438 L 24.144531 11.488281 L 24.175781 11.5 L 24.179688 11.527344 L 24.210938 11.625 L 24.207031 11.652344 L 24.273438 11.691406 L 24.292969 11.664062 L 24.359375 11.675781 L 24.355469 11.699219 L 24.363281 11.699219 L 24.378906 11.738281 L 24.417969 11.753906 L 24.488281 11.714844 L 24.539062 11.726562 L 24.570312 11.753906 L 24.601562 11.730469 L 24.601562 11.671875 L 24.628906 11.671875 L 24.671875 11.726562 L 24.632812 11.75 L 24.640625 11.792969 L 24.675781 11.808594 L 24.707031 11.859375 L 24.734375 11.863281 L 24.757812 11.898438 L 24.796875 11.898438 L 24.835938 11.925781 L 24.898438 11.917969 L 24.9375 11.953125 L 24.917969 11.976562 L 24.929688 12.015625 L 24.917969 12.019531 L 24.941406 12.0625 L 24.957031 12.0625 L 25.054688 12.003906 L 25.105469 12.015625 L 25.15625 11.980469 L 25.1875 11.925781 L 25.261719 11.871094 L 25.328125 11.984375 L 25.332031 12.046875 L 25.355469 12.097656 L 25.398438 12.140625 L 25.511719 12.171875 L 25.597656 12.132812 L 25.660156 12.144531 L 25.726562 12.175781 L 25.824219 12.1875 L 25.808594 12.246094 L 25.882812 12.421875 L 25.996094 12.457031 L 26.070312 12.535156 L 26.171875 12.527344 L 26.210938 12.515625 L 26.253906 12.457031 L 26.382812 12.441406 L 26.402344 12.453125 L 26.503906 12.414062 L 26.503906 12.464844 L 26.546875 12.523438 L 26.378906 12.625 L 26.367188 12.726562 L 26.425781 12.828125 L 26.503906 12.878906 L 26.570312 12.953125 L 26.550781 13.058594 L 26.605469 13.113281 L 26.597656 13.164062 L 26.570312 13.179688 L 26.492188 13.179688 L 26.417969 13.28125 L 26.359375 13.296875 L 26.246094 13.472656 L 26.242188 13.539062 L 26.15625 13.527344 L 26.070312 13.53125 L 26.015625 13.574219 L 25.921875 13.550781 L 25.910156 13.558594 L 25.921875 13.570312 L 25.894531 13.640625 L 25.902344 13.648438 L 25.925781 13.628906 L 25.957031 13.65625 L 26.003906 13.660156 L 26.011719 13.703125 L 26.054688 13.761719 L 26.035156 13.792969 L 26.046875 13.800781 L 26.054688 13.796875 L 26.089844 13.820312 L 26.09375 13.84375 L 26.113281 13.820312 L 26.128906 13.847656 L 26.210938 13.839844 L 26.253906 13.882812 L 26.285156 13.886719 L 26.300781 13.828125 L 26.347656 13.792969 L 26.390625 13.816406 L 26.421875 13.902344 L 26.28125 14.066406 L 26.054688 13.972656 L 26.066406 14.003906 L 26.046875 14.003906 L 26.039062 14.015625 L 26.046875 14.054688 L 26.027344 14.085938 L 26.03125 14.117188 L 25.992188 14.117188 L 25.992188 14.15625 L 25.972656 14.160156 L 25.972656 14.1875 L 25.953125 14.195312 L 25.957031 14.207031 L 25.953125 14.214844 L 25.964844 14.21875 L 25.96875 14.269531 L 25.949219 14.285156 L 25.953125 14.292969 L 25.953125 14.324219 L 25.933594 14.335938 L 25.9375 14.351562 L 25.902344 14.402344 L 25.925781 14.4375 L 25.996094 14.425781 L 26.007812 14.441406 L 26.054688 14.421875 L 26.078125 14.441406 L 26.113281 14.4375 L 26.109375 14.457031 L 26.140625 14.46875 L 26.164062 14.601562 L 26.136719 14.613281 L 26.136719 14.65625 L 26.203125 14.707031 L 26.195312 14.730469 L 26.21875 14.753906 L 26.214844 14.789062 L 26.234375 14.800781 L 26.214844 14.816406 L 26.222656 14.828125 L 26.265625 14.789062 L 26.246094 14.855469 L 26.265625 14.898438 L 26.179688 14.9375 L 26.136719 14.9375 L 26.132812 14.960938 L 26.175781 14.960938 L 26.183594 14.980469 L 26.195312 14.976562 L 26.222656 15.007812 L 26.222656 15.015625 L 26.257812 14.972656 L 26.265625 14.976562 L 26.28125 14.957031 L 26.316406 14.945312 L 26.363281 15.085938 L 26.34375 15.109375 L 26.34375 15.152344 L 26.257812 15.144531 L 26.253906 15.230469 L 26.21875 15.234375 L 26.203125 15.304688 L 26.171875 15.347656 L 26.164062 15.417969 L 26.136719 15.433594 L 26.183594 15.460938 L 26.191406 15.496094 L 26.054688 15.496094 L 26.070312 15.53125 L 26.101562 15.554688 L 26.09375 15.582031 L 26.101562 15.59375 L 26.101562 15.660156 L 26.082031 15.664062 L 26.070312 15.710938 L 26.070312 15.8125 L 26.03125 15.824219 L 26.03125 15.855469 L 25.988281 15.90625 L 25.832031 15.882812 L 25.765625 15.886719 L 25.738281 15.910156 L 25.71875 15.894531 L 25.699219 15.90625 L 25.644531 15.835938 L 25.617188 15.847656 L 25.601562 15.882812 L 25.5625 15.902344 L 25.523438 15.820312 L 25.355469 15.824219 L 25.347656 15.847656 L 25.242188 15.851562 L 25.234375 15.871094 L 25.136719 15.847656 L 25.136719 15.8125 L 24.984375 15.820312 L 24.894531 15.804688 L 24.890625 15.820312 L 24.839844 15.824219 L 24.832031 15.863281 L 24.835938 15.914062 L 24.785156 15.914062 L 24.773438 15.953125 L 24.792969 15.988281 L 24.785156 16.058594 L 24.757812 16.078125 L 24.765625 16.164062 L 24.691406 16.179688 L 24.691406 16.140625 L 24.628906 16.140625 L 24.632812 16.199219 L 24.585938 16.199219 L 24.585938 16.21875 L 24.5625 16.246094 L 24.363281 16.246094 L 24.359375 16.296875 L 24.226562 16.300781 L 24.226562 16.371094 L 24.171875 16.371094 L 24.167969 16.429688 L 24.144531 16.429688 L 24.144531 16.484375 L 24.15625 16.496094 L 24.152344 16.539062 L 24.171875 16.550781 L 24.171875 16.722656 L 24.152344 16.722656 L 24.152344 16.753906 L 24.105469 16.761719 L 24.070312 16.835938 L 24.070312 16.855469 L 24.21875 16.859375 L 24.207031 16.917969 L 24.210938 16.949219 L 24.191406 16.972656 L 24.152344 16.972656 L 24.148438 17 L 24.085938 17.011719 L 24.09375 17.035156 L 24.085938 17.179688 L 24.054688 17.238281 L 23.988281 17.324219 L 23.941406 17.335938 L 23.894531 17.253906 L 23.859375 17.242188 L 23.816406 17.289062 L 23.761719 17.273438 L 23.730469 17.277344 L 23.632812 17.25 L 23.507812 17.292969 L 23.390625 17.308594 L 23.296875 17.277344 L 23.191406 17.300781 L 23.171875 17.316406 L 23.179688 17.351562 L 23.132812 17.371094 L 22.9375 17.648438 L 22.886719 17.695312 L 22.804688 17.695312 L 22.863281 17.640625 L 22.855469 17.609375 L 22.820312 17.570312 L 22.761719 17.542969 L 22.707031 17.578125 L 22.675781 17.609375 L 22.621094 17.625 L 22.535156 17.671875 L 22.5 17.691406 L 22.449219 17.703125 L 22.347656 17.789062 L 22.292969 17.882812 L 22.234375 18.035156 L 22.164062 18.136719 L 22.097656 18.128906 L 22.160156 18.085938 L 22.164062 18.0625 L 22.214844 18.015625 L 22.226562 17.996094 L 22.203125 17.941406 L 22.152344 17.894531 L 22.085938 17.855469 L 21.960938 17.859375 L 21.914062 17.890625 L 21.710938 17.957031 L 21.664062 17.992188 L 21.570312 18.101562 L 21.4375 18.335938 L 21.394531 18.386719 L 21.363281 18.378906 L 21.320312 18.410156 L 21.292969 18.40625 L 21.296875 18.363281 L 21.324219 18.371094 L 21.339844 18.363281 L 21.355469 18.324219 L 21.382812 18.324219 L 21.433594 18.285156 L 21.484375 18.199219 L 21.484375 18.148438 L 21.457031 18.105469 L 21.402344 18.074219 L 21.363281 18.074219 L 21.304688 18.097656 L 21.195312 18.078125 L 21.074219 18.089844 L 21.007812 18.121094 L 20.824219 18.226562 L 20.652344 18.414062 L 20.46875 18.5 L 20.351562 18.65625 L 20.121094 19.039062 L 20.042969 19.097656 L 19.863281 19.164062 L 19.863281 19.097656 L 19.914062 19.054688 L 19.910156 19.03125 L 19.957031 19.007812 L 20.054688 18.988281 L 20.144531 18.945312 L 20.160156 18.882812 L 20.246094 18.761719 L 20.257812 18.703125 L 20.285156 18.699219 L 20.289062 18.695312 L 20.265625 18.65625 L 20.21875 18.648438 L 20.199219 18.554688 L 20.222656 18.519531 L 20.222656 18.496094 L 20.214844 18.480469 L 20.152344 18.457031 L 20.125 18.410156 L 20.117188 18.40625 L 20.132812 18.453125 L 20.164062 18.480469 L 20.167969 18.570312 L 20.136719 18.621094 L 20.0625 18.667969 L 20.039062 18.722656 L 20.050781 18.722656 L 20.03125 18.746094 L 19.996094 18.789062 L 19.9375 18.824219 L 19.765625 18.863281 L 19.6875 18.925781 L 19.664062 19 L 19.683594 19.039062 L 19.730469 19.34375 L 19.851562 19.671875 L 19.992188 19.945312 L 20.296875 20.363281 L 20.425781 20.503906 L 20.492188 20.558594 L 20.558594 20.589844 L 20.664062 20.539062 L 20.804688 20.503906 L 20.816406 20.476562 L 20.855469 20.4375 L 20.855469 20.425781 L 20.835938 20.402344 L 20.929688 20.320312 L 20.925781 20.273438 L 20.972656 20.246094 L 21.027344 20.269531 L 20.984375 20.308594 L 21.007812 20.351562 L 21.082031 20.414062 L 21.136719 20.4375 L 21.191406 20.433594 L 21.230469 20.402344 L 21.25 20.375 L 21.242188 20.316406 L 21.269531 20.292969 L 21.363281 20.257812 L 21.527344 20.234375 L 21.570312 20.253906 L 21.601562 20.246094 L 21.644531 20.261719 L 21.691406 20.296875 L 21.738281 20.277344 L 21.777344 20.28125 L 21.847656 20.335938 L 21.871094 20.339844 L 21.878906 20.335938 L 21.890625 20.308594 L 21.933594 20.3125 L 21.960938 20.351562 L 21.957031 20.375 L 22 20.40625 L 22.003906 20.433594 L 21.980469 20.445312 L 21.953125 20.5 L 21.863281 20.5 L 21.808594 20.472656 L 21.789062 20.480469 L 21.785156 20.507812 L 21.835938 20.542969 L 21.800781 20.578125 L 21.75 20.589844 L 21.738281 20.601562 L 21.753906 20.644531 L 21.707031 20.742188 L 21.730469 20.875 L 21.777344 20.957031 L 21.65625 21.035156 L 21.511719 21.042969 L 21.464844 21.09375 L 21.210938 21.046875 L 21.171875 21.054688 L 21.148438 21.082031 L 21.109375 21.101562 L 21.046875 21.09375 L 20.949219 21.128906 L 20.9375 21.097656 L 20.90625 21.082031 L 20.90625 21.046875 L 20.863281 21 L 20.757812 20.933594 L 20.628906 20.894531 L 20.519531 20.917969 L 20.449219 20.957031 L 20.386719 21.03125 L 20.386719 21.0625 L 20.449219 21.09375 L 20.347656 21.144531 L 20.34375 21.160156 L 20.351562 21.175781 L 20.390625 21.191406 L 20.371094 21.222656 L 20.285156 21.179688 L 20.21875 21.1875 L 20.207031 21.199219 L 20.214844 21.226562 L 20.1875 21.269531 L 20.125 21.285156 L 20.105469 21.332031 L 20.078125 21.394531 L 20.070312 21.460938 L 20 21.527344 L 19.945312 21.507812 L 19.949219 21.476562 L 19.929688 21.457031 L 19.898438 21.449219 L 19.882812 21.457031 L 19.847656 21.4375 L 19.800781 21.453125 L 19.800781 21.46875 L 19.753906 21.480469 L 19.726562 21.472656 L 19.546875 21.492188 L 19.476562 21.535156 L 19.394531 21.558594 L 19.203125 21.667969 L 19.148438 21.734375 L 19.089844 21.882812 L 19.066406 21.894531 L 19.0625 21.964844 L 19 21.953125 L 18.972656 21.972656 L 18.9375 22.035156 L 18.832031 22.058594 L 18.777344 22.175781 L 18.691406 22.191406 L 18.65625 22.21875 L 18.59375 22.222656 L 18.570312 22.238281 L 18.449219 22.214844 L 18.402344 22.214844 L 18.324219 22.242188 L 18.261719 22.246094 L 18.222656 22.183594 L 18.175781 22.191406 L 18.148438 22.171875 L 18.128906 22.089844 L 18.109375 22.058594 L 18.097656 22.054688 L 18.035156 22.066406 L 17.972656 22.039062 L 17.945312 22.054688 L 17.898438 21.988281 L 17.824219 21.933594 L 17.789062 21.882812 L 17.847656 21.851562 L 17.851562 21.832031 L 17.863281 21.847656 L 17.878906 21.832031 L 17.980469 21.808594 M 19.65625 19.027344 L 19.597656 19.03125 L 19.578125 19.007812 L 19.542969 19.015625 L 19.484375 18.988281 L 19.421875 19 L 19.417969 19.035156 L 19.449219 19.136719 L 19.398438 19.257812 L 19.371094 19.300781 L 19.339844 19.324219 L 19.441406 19.386719 L 19.460938 19.421875 L 19.433594 19.523438 L 19.339844 19.566406 L 19.339844 19.597656 L 19.292969 19.640625 L 19.289062 19.671875 L 19.230469 19.675781 L 19.234375 19.6875 L 19.316406 19.667969 L 19.394531 19.578125 L 19.460938 19.527344 L 19.554688 19.496094 L 19.59375 19.46875 L 19.621094 19.523438 L 19.597656 19.566406 L 19.5625 19.535156 L 19.496094 19.570312 L 19.480469 19.648438 L 19.597656 19.609375 L 19.601562 19.648438 L 19.609375 19.648438 L 19.640625 19.679688 L 19.605469 19.730469 L 19.59375 19.734375 L 19.585938 19.769531 L 19.535156 19.773438 L 19.503906 19.804688 L 19.515625 19.8125 L 19.519531 19.824219 L 19.582031 19.796875 L 19.597656 19.800781 L 19.625 19.777344 L 19.742188 19.742188 L 19.75 19.761719 L 19.699219 19.804688 L 19.703125 19.804688 L 19.703125 19.832031 L 19.746094 19.800781 L 19.78125 19.847656 L 19.753906 19.863281 L 19.753906 19.875 L 19.765625 19.882812 L 19.789062 19.867188 L 19.871094 19.855469 L 19.863281 19.902344 L 19.882812 19.925781 L 19.9375 19.945312 L 20.019531 20.101562 L 20.054688 20.238281 L 20.015625 20.28125 L 19.960938 20.300781 L 19.949219 20.320312 L 19.980469 20.40625 L 20.019531 20.457031 L 20.078125 20.5 L 20.089844 20.5 L 20.101562 20.480469 L 20.15625 20.488281 L 20.257812 20.558594 L 20.359375 20.597656 L 20.382812 20.625 L 20.347656 20.660156 L 20.363281 20.667969 L 20.371094 20.644531 L 20.476562 20.621094 L 20.476562 20.589844 L 20.425781 20.585938 L 20.382812 20.515625 L 20.332031 20.484375 L 20.304688 20.425781 L 20.285156 20.433594 L 20.175781 20.246094 L 20.117188 20.167969 L 20.078125 20.136719 L 19.988281 20 L 19.960938 19.980469 L 19.933594 19.910156 L 19.914062 19.894531 L 19.894531 19.894531 L 19.847656 19.742188 L 19.816406 19.703125 L 19.8125 19.703125 L 19.808594 19.695312 L 19.800781 19.6875 L 19.804688 19.6875 L 19.78125 19.597656 L 19.753906 19.570312 L 19.746094 19.570312 L 19.738281 19.609375 L 19.707031 19.636719 L 19.664062 19.640625 L 19.648438 19.605469 L 19.679688 19.535156 L 19.691406 19.429688 L 19.679688 19.410156 L 19.679688 19.34375 L 19.703125 19.367188 L 19.691406 19.34375 L 19.664062 19.335938 L 19.667969 19.300781 L 19.660156 19.300781 L 19.644531 19.234375 L 19.628906 19.214844 L 19.621094 19.214844 L 19.601562 19.28125 L 19.617188 19.28125 L 19.601562 19.359375 L 19.542969 19.339844 L 19.460938 19.253906 L 19.53125 19.261719 L 19.554688 19.285156 L 19.585938 19.28125 L 19.558594 19.226562 L 19.515625 19.203125 L 19.53125 19.164062 L 19.523438 19.144531 L 19.472656 19.128906 L 19.472656 19.089844 L 19.546875 19.101562 L 19.605469 19.078125 L 19.628906 19.140625 L 19.644531 19.117188 L 19.636719 19.03125 Z M 14.664062 7.605469 L 14.660156 7.601562 Z M 19.308594 19.367188 L 19.292969 19.339844 L 19.285156 19.335938 L 19.277344 19.339844 L 19.257812 19.351562 L 19.230469 19.429688 L 19.253906 19.449219 L 19.242188 19.507812 L 19.246094 19.53125 L 19.265625 19.523438 L 19.292969 19.441406 L 19.339844 19.46875 L 19.347656 19.464844 L 19.308594 19.367188 M 19 19.28125 L 19.003906 19.246094 L 19.042969 19.242188 L 19.066406 19.222656 L 19.121094 19.289062 L 19.144531 19.351562 L 19.222656 19.417969 L 19.203125 19.328125 L 19.210938 19.308594 L 19.203125 19.300781 L 19.128906 19.28125 L 19.132812 19.242188 L 19.160156 19.207031 L 19.164062 19.207031 L 19.152344 19.152344 L 19.144531 19.15625 L 19.148438 19.214844 L 19.113281 19.214844 L 19.097656 19.132812 L 19.152344 19.074219 L 19.1875 19.074219 L 19.183594 19.066406 L 19.226562 19.070312 L 19.234375 19.070312 L 19.207031 19.066406 L 19.179688 19.035156 L 19.160156 19.035156 L 19.148438 19.011719 L 19.140625 19.011719 L 19.089844 18.957031 L 19.050781 18.96875 L 19.023438 18.925781 L 19.023438 18.902344 L 19.007812 18.953125 L 19.019531 18.988281 L 19.042969 18.976562 L 19.0625 19.007812 L 19.035156 19.054688 L 19.027344 19.128906 L 18.980469 19.136719 L 18.976562 19.027344 L 18.933594 18.972656 L 18.902344 18.890625 L 18.875 18.867188 L 18.855469 18.824219 L 18.820312 18.789062 L 18.816406 18.789062 L 18.800781 18.828125 L 18.808594 18.828125 L 18.84375 18.949219 L 18.882812 18.984375 L 18.875 19.015625 L 18.820312 19.054688 L 18.828125 19.058594 L 18.792969 19.128906 L 18.761719 19.074219 L 18.753906 19.070312 L 18.730469 19.097656 L 18.695312 19.09375 L 18.691406 19.050781 L 18.675781 19.035156 L 18.664062 19.058594 L 18.664062 19.089844 L 18.636719 19.09375 L 18.550781 18.933594 L 18.519531 18.90625 L 18.492188 18.902344 L 18.449219 18.914062 L 18.4375 18.890625 L 18.429688 18.902344 L 18.382812 18.910156 L 18.3125 18.851562 L 18.300781 18.871094 L 18.25 18.871094 L 18.242188 18.886719 L 18.277344 18.949219 L 18.230469 18.957031 L 18.21875 18.953125 L 18.222656 18.976562 L 18.230469 18.972656 L 18.257812 18.984375 L 18.253906 19.019531 L 18.261719 19.035156 L 18.277344 19.039062 L 18.296875 19.027344 L 18.332031 19.074219 L 18.355469 19.039062 L 18.339844 19.035156 L 18.332031 18.984375 L 18.363281 18.957031 L 18.398438 18.988281 L 18.425781 19.03125 L 18.425781 19.058594 L 18.398438 19.097656 L 18.40625 19.117188 L 18.457031 19.15625 L 18.464844 19.195312 L 18.484375 19.175781 L 18.5 19.171875 L 18.488281 19.160156 L 18.511719 19.121094 L 18.625 19.109375 L 18.683594 19.160156 L 18.707031 19.160156 L 18.714844 19.203125 L 18.726562 19.160156 L 18.777344 19.203125 L 18.800781 19.195312 L 18.855469 19.21875 L 18.875 19.214844 L 18.914062 19.246094 L 18.941406 19.203125 L 18.976562 19.234375 L 18.960938 19.277344 L 18.964844 19.296875 L 19.007812 19.304688 L 19.003906 19.296875 L 19.007812 19.289062 Z M 18.777344 19.386719 L 18.828125 19.386719 L 18.820312 19.40625 L 18.855469 19.398438 L 18.863281 19.382812 L 18.855469 19.320312 L 18.796875 19.378906 L 18.773438 19.371094 M 18.796875 18.933594 L 18.78125 18.976562 L 18.796875 18.992188 L 18.808594 19.007812 L 18.816406 18.976562 L 18.800781 18.933594 Z M 19.25 19.074219 L 19.242188 19.082031 L 19.246094 19.101562 L 19.25 19.089844 L 19.316406 19.058594 L 19.347656 19.117188 L 19.355469 19.097656 L 19.355469 19.015625 L 19.328125 18.996094 L 19.304688 18.964844 L 19.296875 18.964844 L 19.289062 18.972656 L 19.289062 18.992188 L 19.316406 19.046875 L 19.273438 19.054688 L 19.269531 19.074219 Z M 16.496094 18.449219 L 16.5625 18.433594 L 16.585938 18.414062 L 16.574219 18.414062 L 16.527344 18.425781 L 16.5 18.4375 Z M 16.339844 18.984375 L 16.316406 18.976562 L 16.335938 18.992188 Z M 16.339844 18.984375 " fill-opacity="1" fill-rule="nonzero"/></g></svg>