<svg xmlns="http://www.w3.org/2000/svg" xmlns:xlink="http://www.w3.org/1999/xlink" width="40" zoomAndPan="magnify" viewBox="0 0 30 30.000001" height="40" preserveAspectRatio="xMidYMid meet" version="1.0"><defs><clipPath id="14f71cf60a"><path d="M 3.835938 2.902344 L 26.335938 2.902344 L 26.335938 26.128906 L 3.835938 26.128906 Z M 3.835938 2.902344 " clip-rule="nonzero"/></clipPath></defs><g clip-path="url(#14f71cf60a)"><path fill="#014d4e" d="M 26.070312 12.195312 C 26.050781 12.148438 26.035156 12.097656 26.011719 12.050781 C 25.980469 11.988281 25.960938 11.957031 25.976562 11.875 C 25.980469 11.828125 25.976562 11.777344 25.980469 11.734375 C 25.980469 11.679688 26.027344 11.644531 26.019531 11.597656 C 26.007812 11.554688 25.996094 11.484375 25.96875 11.453125 C 25.964844 11.449219 25.960938 11.4375 25.953125 11.425781 C 25.929688 11.316406 25.84375 11.21875 25.820312 11.109375 C 25.804688 11.035156 25.789062 10.964844 25.757812 10.890625 C 25.722656 10.804688 25.65625 10.730469 25.632812 10.640625 C 25.613281 10.589844 25.613281 10.523438 25.609375 10.472656 C 25.597656 10.414062 25.558594 10.371094 25.589844 10.320312 C 25.613281 10.277344 25.664062 10.246094 25.695312 10.207031 C 25.726562 10.171875 25.769531 10.113281 25.773438 10.0625 C 25.78125 10.027344 25.773438 9.957031 25.757812 9.925781 C 25.738281 9.890625 25.695312 9.890625 25.65625 9.863281 C 25.605469 9.820312 25.597656 9.703125 25.589844 9.640625 C 25.582031 9.617188 25.578125 9.550781 25.546875 9.539062 C 25.515625 9.527344 25.488281 9.578125 25.457031 9.570312 C 25.414062 9.566406 25.414062 9.523438 25.402344 9.488281 C 25.386719 9.445312 25.359375 9.414062 25.335938 9.375 C 25.292969 9.3125 25.242188 9.242188 25.210938 9.171875 C 25.195312 9.136719 25.195312 9.105469 25.195312 9.0625 C 25.195312 8.992188 25.191406 8.957031 25.175781 8.894531 C 25.179688 8.792969 25.148438 8.6875 25.089844 8.613281 C 25.054688 8.5625 25.011719 8.539062 24.96875 8.496094 C 24.929688 8.464844 24.894531 8.433594 24.847656 8.425781 C 24.800781 8.421875 24.757812 8.453125 24.707031 8.441406 C 24.644531 8.433594 24.613281 8.382812 24.585938 8.332031 C 24.566406 8.289062 24.550781 8.242188 24.519531 8.214844 C 24.492188 8.1875 24.453125 8.171875 24.433594 8.144531 C 24.359375 8.050781 24.371094 7.9375 24.355469 7.828125 C 24.332031 7.722656 24.355469 7.574219 24.289062 7.484375 C 24.253906 7.429688 24.179688 7.34375 24.109375 7.320312 C 24.039062 7.292969 23.945312 7.3125 23.914062 7.238281 C 23.859375 7.132812 23.835938 6.96875 23.851562 6.863281 C 23.839844 6.824219 23.824219 6.792969 23.808594 6.757812 C 23.800781 6.726562 23.796875 6.691406 23.792969 6.667969 C 23.769531 6.585938 23.734375 6.511719 23.695312 6.4375 C 23.664062 6.378906 23.605469 6.347656 23.648438 6.273438 C 23.671875 6.242188 23.707031 6.222656 23.710938 6.179688 C 23.71875 6.152344 23.703125 6.121094 23.691406 6.09375 C 23.679688 6.066406 23.660156 6.042969 23.652344 6.015625 C 23.644531 5.976562 23.652344 6 23.660156 5.972656 C 23.664062 5.945312 23.675781 5.882812 23.710938 5.867188 C 23.734375 5.855469 23.75 5.871094 23.777344 5.867188 C 23.796875 5.859375 23.816406 5.824219 23.824219 5.808594 C 23.855469 5.730469 23.839844 5.617188 23.84375 5.53125 C 23.855469 5.441406 23.867188 5.347656 23.851562 5.261719 C 23.839844 5.199219 23.84375 5.171875 23.78125 5.15625 C 23.738281 5.144531 23.664062 5.140625 23.632812 5.101562 C 23.613281 5.082031 23.617188 5.050781 23.601562 5.023438 C 23.578125 5.003906 23.542969 4.988281 23.523438 4.964844 C 23.480469 4.929688 23.449219 4.878906 23.394531 4.902344 C 23.378906 4.90625 23.347656 4.929688 23.324219 4.9375 C 23.304688 4.953125 23.289062 4.992188 23.261719 4.996094 C 23.214844 5.011719 23.214844 4.9375 23.191406 4.914062 C 23.171875 4.878906 23.140625 4.839844 23.109375 4.824219 C 23.085938 4.8125 23.066406 4.816406 23.050781 4.800781 C 23.035156 4.785156 23.039062 4.757812 23.023438 4.742188 C 22.992188 4.699219 22.976562 4.714844 22.933594 4.726562 C 22.871094 4.742188 22.785156 4.765625 22.714844 4.742188 C 22.722656 4.699219 22.773438 4.679688 22.78125 4.636719 C 22.742188 4.621094 22.695312 4.621094 22.664062 4.589844 C 22.636719 4.558594 22.65625 4.535156 22.6875 4.507812 C 22.714844 4.484375 22.746094 4.476562 22.785156 4.472656 C 22.8125 4.46875 22.871094 4.460938 22.890625 4.445312 C 22.945312 4.398438 22.890625 4.296875 22.832031 4.296875 C 22.796875 4.296875 22.757812 4.308594 22.722656 4.296875 C 22.679688 4.292969 22.652344 4.277344 22.609375 4.28125 C 22.558594 4.285156 22.492188 4.308594 22.449219 4.324219 C 22.425781 4.324219 22.402344 4.320312 22.375 4.320312 C 22.375 4.308594 22.382812 4.296875 22.382812 4.28125 C 22.386719 4.246094 22.414062 4.207031 22.425781 4.171875 C 22.441406 4.128906 22.46875 4.097656 22.457031 4.054688 C 22.449219 4.023438 22.445312 3.980469 22.425781 3.953125 C 22.386719 3.898438 22.285156 3.863281 22.269531 3.800781 C 22.253906 3.746094 22.3125 3.6875 22.308594 3.625 C 22.300781 3.59375 22.296875 3.566406 22.296875 3.535156 C 22.296875 3.507812 22.3125 3.476562 22.308594 3.449219 C 22.296875 3.378906 22.210938 3.414062 22.210938 3.34375 C 22.210938 3.289062 22.253906 3.265625 22.246094 3.207031 C 22.238281 3.164062 22.21875 3.101562 22.195312 3.0625 C 22.152344 2.984375 22.054688 2.953125 21.972656 2.902344 L 20.019531 4.859375 L 18.65625 4.824219 L 17.984375 4.304688 C 16.917969 5.054688 15.480469 4.859375 15.480469 4.859375 L 14.644531 5.40625 C 14.707031 5.710938 14.570312 5.8125 14.570312 5.8125 C 14.113281 5.722656 14.097656 5.484375 14.097656 5.484375 L 13.617188 5.457031 C 13.566406 5.078125 13.21875 4.738281 13.023438 4.578125 C 13.007812 4.601562 12.996094 4.617188 12.984375 4.636719 C 12.941406 4.710938 12.890625 4.742188 12.824219 4.796875 C 12.761719 4.84375 12.703125 4.898438 12.652344 4.953125 C 12.585938 5.027344 12.519531 5.054688 12.417969 5.042969 C 12.253906 5.019531 12.078125 5.0625 11.984375 5.203125 C 11.972656 5.214844 11.960938 5.226562 11.953125 5.242188 C 11.941406 5.234375 11.929688 5.226562 11.917969 5.21875 C 11.871094 5.191406 11.828125 5.183594 11.777344 5.160156 C 11.691406 5.128906 11.617188 5.078125 11.527344 5.042969 C 11.472656 5.023438 11.417969 5.011719 11.367188 4.980469 C 11.324219 4.949219 11.289062 4.90625 11.25 4.871094 C 11.171875 4.800781 11.082031 4.753906 10.988281 4.710938 C 10.921875 4.683594 10.898438 4.722656 10.832031 4.710938 C 10.742188 4.695312 10.667969 4.65625 10.578125 4.664062 C 10.515625 4.667969 10.460938 4.707031 10.402344 4.726562 C 10.320312 4.753906 10.246094 4.769531 10.164062 4.816406 C 10.121094 4.84375 10.082031 4.875 10.042969 4.90625 C 10.011719 4.933594 9.984375 4.980469 9.949219 4.996094 C 9.921875 5.007812 9.882812 5.007812 9.859375 5.011719 C 9.832031 5.019531 9.804688 5.035156 9.777344 5.039062 C 9.726562 5.054688 9.671875 5.0625 9.625 5.097656 C 9.582031 5.136719 9.566406 5.191406 9.535156 5.242188 C 9.519531 5.261719 9.503906 5.285156 9.496094 5.308594 C 9.492188 5.324219 9.503906 5.351562 9.492188 5.367188 C 9.476562 5.40625 9.421875 5.449219 9.398438 5.480469 C 9.332031 5.546875 9.3125 5.632812 9.269531 5.71875 C 9.253906 5.75 9.210938 5.785156 9.214844 5.828125 C 9.222656 5.871094 9.253906 5.882812 9.285156 5.855469 C 9.324219 5.828125 9.359375 5.710938 9.414062 5.734375 C 9.429688 5.761719 9.445312 5.785156 9.460938 5.8125 C 9.464844 5.824219 9.488281 5.851562 9.503906 5.878906 C 9.488281 5.894531 9.476562 5.910156 9.476562 5.914062 C 9.414062 6.03125 9.503906 6.167969 9.421875 6.285156 C 9.402344 6.316406 9.375 6.339844 9.359375 6.371094 C 9.339844 6.414062 9.332031 6.433594 9.289062 6.460938 C 9.25 6.488281 9.238281 6.507812 9.222656 6.554688 C 9.199219 6.625 9.175781 6.675781 9.132812 6.734375 C 9.046875 6.839844 8.941406 6.925781 8.914062 7.0625 C 8.902344 7.136719 8.894531 7.203125 8.867188 7.269531 C 8.84375 7.335938 8.824219 7.394531 8.804688 7.457031 C 8.789062 7.5 8.78125 7.535156 8.777344 7.582031 C 8.769531 7.664062 8.792969 7.691406 8.84375 7.746094 C 8.898438 7.804688 8.972656 7.839844 9.03125 7.890625 C 9.09375 7.949219 9.136719 8.054688 9.167969 8.136719 C 9.199219 8.21875 9.226562 8.339844 9.222656 8.433594 C 9.214844 8.480469 9.199219 8.53125 9.183594 8.574219 C 9.175781 8.613281 9.164062 8.671875 9.132812 8.695312 C 9.085938 8.738281 8.988281 8.753906 8.96875 8.820312 C 8.957031 8.851562 8.972656 8.914062 8.988281 8.957031 C 8.976562 8.976562 8.972656 9 8.972656 9 C 8.972656 9.0625 8.914062 9.148438 8.882812 9.207031 C 8.863281 9.242188 8.835938 9.273438 8.820312 9.3125 C 8.804688 9.347656 8.804688 9.375 8.796875 9.417969 C 8.792969 9.464844 8.753906 9.496094 8.730469 9.539062 C 8.707031 9.578125 8.71875 9.601562 8.722656 9.652344 C 8.730469 9.757812 8.695312 9.851562 8.675781 9.949219 C 8.671875 9.980469 8.644531 10.039062 8.648438 10.0625 C 8.660156 10.101562 8.707031 10.117188 8.746094 10.121094 C 8.804688 10.132812 8.863281 10.132812 8.917969 10.132812 C 8.96875 10.132812 9.027344 10.113281 9.046875 10.160156 C 9.0625 10.203125 9.027344 10.261719 9.050781 10.300781 C 9.078125 10.34375 9.152344 10.367188 9.183594 10.402344 C 9.222656 10.441406 9.234375 10.503906 9.28125 10.53125 C 9.3125 10.546875 9.371094 10.550781 9.402344 10.53125 C 9.476562 10.476562 9.433594 10.355469 9.488281 10.296875 C 9.539062 10.234375 9.609375 10.238281 9.671875 10.269531 C 9.730469 10.296875 9.769531 10.320312 9.808594 10.359375 C 9.84375 10.394531 9.867188 10.433594 9.898438 10.46875 C 9.933594 10.5 9.980469 10.53125 10.027344 10.558594 C 10.015625 10.574219 10 10.59375 9.996094 10.609375 C 9.972656 10.640625 9.925781 10.671875 9.96875 10.707031 C 9.996094 10.726562 10.066406 10.730469 10.097656 10.738281 C 10.148438 10.742188 10.203125 10.753906 10.253906 10.765625 C 10.328125 10.773438 10.367188 10.746094 10.4375 10.714844 C 10.46875 10.707031 10.550781 10.652344 10.578125 10.683594 C 10.59375 10.707031 10.574219 10.816406 10.574219 10.847656 C 10.585938 10.992188 10.664062 11.054688 10.773438 11.132812 C 10.832031 11.171875 10.917969 11.234375 10.949219 11.292969 C 10.964844 11.320312 10.976562 11.355469 10.988281 11.398438 C 10.976562 11.414062 10.972656 11.425781 10.964844 11.429688 C 10.859375 11.574219 10.789062 11.734375 10.675781 11.871094 C 10.59375 11.972656 10.476562 12.039062 10.402344 12.148438 C 10.328125 12.257812 10.25 12.363281 10.171875 12.46875 C 10.097656 12.570312 10.039062 12.671875 9.96875 12.777344 C 9.910156 12.875 9.832031 12.953125 9.730469 13.003906 C 9.597656 13.070312 9.480469 13.136719 9.386719 13.25 C 9.34375 13.296875 9.3125 13.335938 9.257812 13.367188 C 9.222656 13.386719 9.195312 13.414062 9.164062 13.433594 C 9.121094 13.460938 9.078125 13.464844 9.042969 13.492188 C 8.960938 13.558594 8.902344 13.625 8.808594 13.671875 C 8.734375 13.714844 8.6875 13.757812 8.632812 13.828125 C 8.601562 13.871094 8.558594 13.890625 8.523438 13.929688 C 8.511719 13.949219 8.5 13.964844 8.492188 13.980469 C 8.457031 14.039062 8.417969 14.085938 8.382812 14.140625 C 8.367188 14.160156 8.359375 14.183594 8.34375 14.207031 C 8.300781 14.289062 8.230469 14.332031 8.160156 14.390625 C 8.070312 14.457031 8.019531 14.558594 7.945312 14.644531 C 7.90625 14.6875 7.863281 14.726562 7.824219 14.765625 C 7.769531 14.808594 7.707031 14.839844 7.664062 14.890625 C 7.617188 14.945312 7.59375 15.019531 7.53125 15.066406 C 7.460938 15.113281 7.363281 15.136719 7.28125 15.152344 C 7.21875 15.167969 7.132812 15.148438 7.082031 15.195312 C 7.050781 15.226562 7.054688 15.3125 7.023438 15.335938 C 6.976562 15.371094 6.953125 15.28125 6.921875 15.261719 C 6.851562 15.222656 6.769531 15.273438 6.714844 15.316406 C 6.667969 15.355469 6.636719 15.421875 6.625 15.484375 C 6.613281 15.550781 6.609375 15.566406 6.566406 15.613281 C 6.519531 15.660156 6.480469 15.691406 6.503906 15.761719 C 6.519531 15.808594 6.539062 15.824219 6.53125 15.871094 C 6.523438 15.890625 6.511719 15.910156 6.511719 15.929688 C 6.511719 15.953125 6.53125 15.972656 6.523438 16 C 6.519531 16.042969 6.476562 16.070312 6.445312 16.09375 C 6.371094 16.152344 6.316406 16.222656 6.28125 16.3125 C 6.257812 16.359375 6.253906 16.386719 6.199219 16.382812 C 6.175781 16.375 6.148438 16.371094 6.121094 16.359375 C 6.105469 16.367188 6.089844 16.367188 6.074219 16.371094 C 6.019531 16.382812 5.96875 16.382812 5.914062 16.398438 C 5.746094 16.441406 5.566406 16.539062 5.511719 16.714844 C 5.492188 16.785156 5.484375 16.84375 5.492188 16.910156 C 5.496094 16.980469 5.515625 17.042969 5.507812 17.117188 C 5.496094 17.191406 5.476562 17.257812 5.4375 17.324219 C 5.417969 17.367188 5.394531 17.410156 5.402344 17.457031 C 5.40625 17.496094 5.425781 17.527344 5.425781 17.5625 C 5.425781 17.605469 5.410156 17.628906 5.421875 17.667969 C 5.4375 17.710938 5.449219 17.738281 5.457031 17.78125 C 5.464844 17.824219 5.476562 17.859375 5.484375 17.898438 C 5.5 17.972656 5.507812 18.050781 5.453125 18.109375 C 5.394531 18.171875 5.335938 18.242188 5.277344 18.304688 C 5.171875 18.421875 5.089844 18.523438 5.039062 18.671875 C 5.035156 18.6875 5.03125 18.734375 5.023438 18.773438 C 5.019531 18.816406 5.03125 18.871094 5.023438 18.910156 C 5.019531 18.96875 5.003906 19.027344 4.988281 19.085938 C 4.972656 19.144531 4.957031 19.203125 4.945312 19.257812 C 4.933594 19.3125 4.929688 19.371094 4.871094 19.375 C 4.824219 19.382812 4.757812 19.359375 4.71875 19.398438 C 4.679688 19.429688 4.691406 19.507812 4.675781 19.550781 C 4.632812 19.664062 4.503906 19.6875 4.503906 19.820312 C 4.503906 19.875 4.527344 19.921875 4.542969 19.96875 C 4.550781 19.996094 4.574219 20.070312 4.585938 20.082031 C 4.589844 20.097656 4.589844 20.113281 4.59375 20.128906 C 4.574219 20.164062 4.546875 20.203125 4.535156 20.230469 C 4.425781 20.398438 4.46875 20.683594 4.398438 20.882812 C 4.363281 21 4.296875 21.125 4.273438 21.246094 C 4.246094 21.375 4.25 21.507812 4.238281 21.640625 C 4.230469 21.734375 4.191406 21.882812 4.203125 21.960938 C 4.21875 22.09375 4.363281 22.089844 4.296875 22.226562 C 4.246094 22.34375 4.15625 22.386719 4.15625 22.507812 C 4.15625 22.570312 4.179688 22.625 4.164062 22.6875 C 4.148438 22.746094 4.097656 22.792969 4.085938 22.859375 C 4.058594 23.007812 4.132812 23.164062 4.125 23.320312 C 4.117188 23.429688 4.125 23.585938 4.097656 23.679688 C 4.015625 23.695312 3.890625 23.695312 3.863281 23.757812 C 3.835938 23.84375 3.890625 23.996094 3.902344 24.078125 C 3.90625 24.128906 3.878906 24.15625 3.878906 24.203125 C 3.878906 24.261719 3.925781 24.304688 3.941406 24.363281 C 3.976562 24.480469 3.949219 24.597656 3.90625 24.703125 C 3.878906 24.78125 3.859375 24.828125 3.886719 24.910156 C 3.910156 24.976562 3.960938 25.015625 3.964844 25.078125 C 3.96875 25.121094 3.933594 25.167969 3.941406 25.21875 C 3.953125 25.28125 4.011719 25.332031 4.015625 25.40625 C 4.027344 25.566406 3.953125 25.644531 4.15625 25.667969 C 4.222656 25.671875 4.339844 25.695312 4.410156 25.679688 C 4.488281 25.652344 4.472656 25.613281 4.519531 25.5625 C 4.636719 25.441406 4.738281 25.640625 4.828125 25.5625 C 4.867188 25.53125 4.867188 25.433594 4.917969 25.386719 C 4.929688 25.382812 4.933594 25.375 4.945312 25.367188 C 4.964844 25.417969 4.988281 25.464844 5.003906 25.503906 C 5.003906 25.589844 5.066406 25.570312 5.105469 25.625 C 5.128906 25.667969 5.121094 25.695312 5.128906 25.746094 C 5.152344 25.832031 5.195312 26.023438 5.269531 26.074219 C 5.34375 26.128906 5.539062 26.011719 5.601562 25.96875 C 5.644531 25.9375 5.679688 25.867188 5.722656 25.847656 C 5.773438 25.828125 5.835938 25.851562 5.882812 25.828125 C 5.953125 25.785156 5.972656 25.664062 6.074219 25.621094 C 6.125 25.597656 6.183594 25.605469 6.234375 25.578125 C 6.28125 25.550781 6.324219 25.488281 6.355469 25.445312 C 6.433594 25.359375 6.472656 25.257812 6.554688 25.191406 C 6.679688 25.09375 6.777344 25.046875 6.851562 24.898438 C 6.90625 24.789062 6.949219 24.65625 7.023438 24.554688 C 7.074219 24.492188 7.148438 24.441406 7.203125 24.375 C 7.21875 24.359375 7.230469 24.335938 7.234375 24.316406 C 7.292969 24.347656 7.355469 24.375 7.421875 24.402344 C 7.460938 24.386719 7.527344 24.34375 7.574219 24.3125 C 7.636719 24.3125 7.738281 24.347656 7.808594 24.367188 C 7.929688 24.410156 7.988281 24.40625 8.121094 24.386719 C 8.230469 24.367188 8.382812 24.40625 8.46875 24.332031 C 8.574219 24.238281 8.613281 24.121094 8.761719 24.078125 L 12.910156 24.078125 C 12.882812 24.015625 12.851562 23.929688 12.832031 23.886719 C 12.820312 23.710938 12.957031 23.355469 12.640625 23.4375 C 12.585938 23.355469 12.613281 23.234375 12.644531 23.148438 C 12.6875 23.050781 12.789062 23.027344 12.832031 22.925781 C 12.851562 22.878906 12.832031 22.84375 12.863281 22.789062 C 12.894531 22.746094 12.941406 22.738281 12.972656 22.699219 C 13.046875 22.605469 12.9375 22.566406 12.949219 22.449219 C 12.953125 22.34375 13.023438 22.257812 13.089844 22.183594 C 13.132812 22.136719 13.175781 22.101562 13.195312 22.035156 C 13.21875 21.980469 13.207031 21.914062 13.261719 21.863281 C 13.308594 21.8125 13.359375 21.824219 13.417969 21.792969 C 13.476562 21.761719 13.503906 21.707031 13.535156 21.65625 C 13.59375 21.570312 13.652344 21.402344 13.730469 21.34375 C 13.78125 21.304688 13.863281 21.332031 13.890625 21.277344 C 13.929688 21.203125 13.847656 21.15625 13.804688 21.109375 C 13.769531 21.066406 13.722656 21.019531 13.695312 20.972656 C 13.664062 20.914062 13.691406 20.84375 13.648438 20.78125 C 13.601562 20.785156 13.550781 20.816406 13.507812 20.832031 C 13.488281 20.703125 13.535156 20.480469 13.683594 20.4375 C 13.757812 20.414062 13.847656 20.480469 13.921875 20.480469 C 13.988281 20.472656 14.035156 20.425781 14.097656 20.46875 C 14.175781 20.273438 13.972656 20.363281 13.929688 20.234375 C 14.085938 20.246094 14.144531 20.128906 14.289062 20.246094 C 14.351562 20.296875 14.34375 20.324219 14.4375 20.332031 C 14.523438 20.335938 14.5625 20.332031 14.589844 20.25 C 14.617188 20.175781 14.554688 20.128906 14.582031 20.066406 C 14.621094 19.964844 14.6875 20.042969 14.738281 20.085938 C 14.792969 20.128906 14.824219 20.183594 14.898438 20.140625 C 15.007812 20.074219 14.886719 20.015625 14.902344 19.945312 C 14.925781 19.84375 15.042969 19.90625 15.101562 19.921875 C 15.125 19.925781 15.164062 19.921875 15.191406 19.9375 C 15.214844 19.953125 15.25 20.011719 15.269531 20.023438 C 15.339844 20.042969 15.34375 19.964844 15.359375 19.878906 C 15.378906 19.769531 15.390625 19.726562 15.535156 19.726562 C 15.609375 19.726562 15.675781 19.769531 15.75 19.757812 C 15.835938 19.746094 15.851562 19.699219 15.953125 19.742188 C 15.996094 19.761719 16.070312 19.851562 16.128906 19.820312 C 16.21875 19.773438 16.089844 19.699219 16.105469 19.636719 C 16.128906 19.53125 16.21875 19.554688 16.191406 19.425781 C 16.171875 19.28125 16.164062 19.296875 16.285156 19.203125 C 16.378906 19.128906 16.335938 19.042969 16.402344 18.941406 C 16.46875 18.851562 16.582031 18.824219 16.5625 18.972656 C 16.558594 19.011719 16.484375 19.09375 16.503906 19.128906 C 16.519531 19.160156 16.582031 19.128906 16.59375 19.144531 C 16.632812 19.195312 16.527344 19.308594 16.574219 19.351562 C 16.632812 19.402344 16.742188 19.222656 16.765625 19.359375 C 16.78125 19.457031 16.640625 19.488281 16.609375 19.554688 C 16.542969 19.714844 16.699219 19.652344 16.785156 19.605469 C 16.890625 19.539062 16.988281 19.523438 17.097656 19.476562 C 17.199219 19.433594 17.265625 19.269531 17.367188 19.253906 C 17.496094 19.226562 17.410156 19.390625 17.414062 19.472656 C 17.421875 19.550781 17.480469 19.605469 17.542969 19.648438 C 17.644531 19.710938 17.738281 19.636719 17.859375 19.578125 C 17.976562 19.519531 18.152344 19.460938 18.226562 19.34375 C 18.246094 19.3125 18.273438 19.292969 18.257812 19.242188 C 18.238281 19.179688 18.183594 19.222656 18.164062 19.191406 C 18.125 19.144531 18.125 18.980469 18.242188 18.988281 C 18.320312 18.996094 18.34375 19.148438 18.433594 19.136719 C 18.480469 19.132812 18.503906 19.058594 18.523438 19.027344 C 18.570312 18.957031 18.554688 18.988281 18.566406 18.925781 C 18.570312 18.882812 18.550781 18.867188 18.566406 18.820312 C 18.585938 18.75 18.636719 18.730469 18.6875 18.703125 C 18.75 18.671875 18.953125 18.632812 18.925781 18.519531 C 18.894531 18.375 18.710938 18.550781 18.691406 18.417969 C 18.675781 18.320312 18.851562 18.304688 18.898438 18.253906 C 18.988281 18.152344 18.9375 18.113281 19.0625 18.199219 C 19.128906 18.242188 19.085938 18.257812 19.179688 18.242188 C 19.226562 18.230469 19.277344 18.1875 19.320312 18.167969 C 19.402344 18.230469 19.34375 18.304688 19.3125 18.378906 C 19.292969 18.4375 19.28125 18.507812 19.25 18.566406 C 19.292969 18.597656 19.34375 18.585938 19.394531 18.609375 C 19.433594 18.625 19.484375 18.683594 19.515625 18.6875 C 19.648438 18.707031 19.691406 18.570312 19.804688 18.707031 C 19.816406 18.722656 19.804688 18.761719 19.816406 18.773438 C 19.816406 18.773438 19.875 18.835938 19.875 18.824219 C 19.886719 18.863281 19.921875 18.878906 19.84375 18.925781 C 19.789062 18.957031 19.550781 18.945312 19.683594 19.085938 C 19.707031 19.105469 19.828125 19.148438 19.855469 19.160156 C 19.917969 19.191406 19.976562 19.207031 20.042969 19.234375 C 20.109375 19.257812 20.027344 19.308594 20.144531 19.296875 C 20.183594 19.292969 20.214844 19.265625 20.246094 19.238281 C 20.308594 19.191406 20.347656 19.128906 20.363281 19.054688 C 20.40625 18.863281 20.363281 18.761719 20.621094 18.761719 C 20.71875 18.761719 20.808594 18.757812 20.902344 18.746094 C 20.867188 18.789062 20.828125 18.824219 20.796875 18.867188 C 20.722656 18.996094 20.707031 19.019531 20.871094 19.035156 C 20.871094 19.117188 20.761719 19.183594 20.824219 19.257812 C 20.894531 19.339844 21.074219 19.292969 21.078125 19.183594 C 21.167969 19.175781 21.105469 19.355469 21.210938 19.386719 C 21.34375 19.429688 21.304688 19.242188 21.417969 19.238281 C 21.511719 19.226562 21.535156 19.328125 21.652344 19.25 C 21.730469 19.191406 21.742188 19.070312 21.851562 19.078125 C 21.898438 19.085938 21.941406 19.105469 21.984375 19.132812 L 22.394531 18.65625 C 22.386719 18.628906 22.386719 18.609375 22.382812 18.597656 C 22.382812 18.558594 22.398438 18.539062 22.410156 18.5 C 22.417969 18.460938 22.410156 18.433594 22.402344 18.390625 C 22.398438 18.347656 22.402344 18.34375 22.375 18.3125 C 22.355469 18.285156 22.34375 18.269531 22.328125 18.238281 C 22.367188 18.242188 22.414062 18.222656 22.449219 18.222656 C 22.484375 18.140625 22.53125 18.082031 22.53125 18 C 22.53125 17.90625 22.5625 17.859375 22.59375 17.78125 C 22.632812 17.691406 22.5625 17.59375 22.667969 17.546875 C 22.722656 17.519531 22.769531 17.503906 22.820312 17.480469 C 22.863281 17.457031 22.894531 17.46875 22.945312 17.464844 C 23.003906 17.457031 23.042969 17.398438 23.082031 17.363281 C 23.113281 17.332031 23.160156 17.289062 23.1875 17.25 C 23.242188 17.160156 23.183594 17.019531 23.242188 16.925781 C 23.273438 16.878906 23.378906 16.863281 23.425781 16.847656 C 23.5 16.828125 23.574219 16.796875 23.621094 16.730469 C 23.652344 16.6875 23.644531 16.640625 23.664062 16.59375 C 23.695312 16.53125 23.769531 16.507812 23.8125 16.445312 C 23.859375 16.359375 23.839844 16.265625 23.882812 16.1875 C 23.898438 16.160156 23.925781 16.136719 23.941406 16.113281 C 23.960938 16.074219 23.960938 16.039062 23.957031 15.996094 C 23.949219 15.910156 23.941406 15.839844 23.964844 15.761719 C 23.984375 15.71875 23.988281 15.699219 23.972656 15.648438 C 23.976562 15.644531 23.984375 15.632812 23.988281 15.628906 C 24.019531 15.617188 24.046875 15.539062 24.078125 15.519531 C 24.132812 15.484375 24.214844 15.539062 24.261719 15.558594 C 24.371094 15.597656 24.34375 15.480469 24.375 15.410156 C 24.386719 15.386719 24.402344 15.34375 24.421875 15.328125 C 24.453125 15.304688 24.511719 15.3125 24.542969 15.304688 C 24.640625 15.289062 24.640625 15.1875 24.714844 15.152344 C 24.757812 15.132812 24.820312 15.136719 24.863281 15.125 C 24.910156 15.113281 24.9375 15.109375 24.980469 15.109375 C 25.027344 15.113281 25.074219 15.097656 25.117188 15.082031 C 25.160156 15.066406 25.191406 15.03125 25.234375 15.023438 C 25.308594 15.015625 25.296875 15.058594 25.3125 14.972656 C 25.324219 14.917969 25.351562 14.871094 25.355469 14.816406 C 25.367188 14.710938 25.25 14.667969 25.253906 14.574219 C 25.261719 14.527344 25.285156 14.484375 25.261719 14.441406 C 25.242188 14.410156 25.195312 14.398438 25.191406 14.367188 C 25.265625 14.339844 25.375 14.335938 25.433594 14.28125 C 25.464844 14.25 25.460938 14.199219 25.472656 14.160156 C 25.488281 14.101562 25.515625 14.039062 25.539062 13.984375 C 25.566406 13.929688 25.582031 13.871094 25.605469 13.8125 C 25.625 13.746094 25.65625 13.722656 25.726562 13.710938 C 25.78125 13.699219 25.804688 13.714844 25.84375 13.667969 C 25.863281 13.636719 25.878906 13.597656 25.894531 13.566406 C 25.921875 13.523438 25.960938 13.488281 25.984375 13.445312 C 26.011719 13.402344 26.023438 13.34375 26.027344 13.292969 C 26.027344 13.261719 26.019531 13.234375 26 13.210938 C 26.007812 13.203125 26.011719 13.191406 26.011719 13.179688 C 26.023438 13.148438 26.023438 13.101562 26.023438 13.0625 C 26.023438 12.949219 26 12.832031 26 12.714844 C 26 12.628906 26.011719 12.535156 26.027344 12.453125 C 26.039062 12.394531 26.101562 12.355469 26.113281 12.296875 C 26.15625 12.269531 26.09375 12.242188 26.070312 12.195312 Z M 26.070312 12.195312 " fill-opacity="1" fill-rule="nonzero"/></g></svg>