<svg xmlns="http://www.w3.org/2000/svg" xmlns:xlink="http://www.w3.org/1999/xlink" width="40" zoomAndPan="magnify" viewBox="0 0 30 30.000001" height="40" preserveAspectRatio="xMidYMid meet" version="1.0"><defs><clipPath id="ca0b808716"><path d="M 3.386719 7.039062 L 26.613281 7.039062 L 26.613281 22 L 3.386719 22 Z M 3.386719 7.039062 " clip-rule="nonzero"/></clipPath></defs><g clip-path="url(#ca0b808716)"><path fill="#014d4e" d="M 26.503906 8.667969 C 26.460938 8.46875 26.28125 8.328125 26.1875 8.152344 C 26.085938 7.96875 26.058594 7.753906 25.933594 7.582031 C 25.8125 7.417969 25.585938 7.285156 25.398438 7.429688 C 25.230469 7.558594 25.214844 7.804688 25.15625 7.992188 C 25.089844 8.210938 24.953125 8.398438 24.816406 8.578125 C 24.667969 8.773438 24.503906 8.972656 24.285156 9.089844 C 23.875 9.304688 23.375 9.410156 23.210938 9.902344 C 23.144531 10.097656 23.171875 10.34375 23.019531 10.5 C 22.851562 10.667969 22.59375 10.636719 22.386719 10.707031 C 22.183594 10.773438 22.15625 10.949219 22.0625 11.117188 C 21.941406 11.335938 21.726562 11.464844 21.546875 11.628906 C 21.386719 11.773438 21.238281 12.039062 21.015625 12.097656 C 20.796875 12.15625 20.609375 11.953125 20.585938 11.75 C 20.5625 11.503906 20.730469 11.289062 20.714844 11.042969 C 20.707031 10.882812 20.578125 10.542969 20.359375 10.621094 C 20.277344 10.652344 20.226562 10.75 20.1875 10.820312 C 20.042969 10.636719 20.09375 10.492188 20.171875 10.289062 C 20.261719 10.074219 20.191406 9.882812 19.941406 9.835938 C 19.714844 9.792969 19.679688 9.996094 19.53125 10.109375 C 19.378906 10.226562 19.214844 10.203125 19.140625 10.417969 C 19.082031 10.59375 19.007812 10.847656 19.042969 11.03125 C 19.082031 11.238281 19.1875 11.394531 19.1875 11.609375 C 19.183594 11.761719 19.222656 12.09375 19.039062 12.152344 C 18.808594 12.226562 18.550781 11.964844 18.5625 11.746094 C 18.566406 11.609375 18.613281 11.484375 18.597656 11.347656 C 18.582031 11.203125 18.511719 11.058594 18.515625 10.914062 C 18.519531 10.785156 18.589844 10.703125 18.648438 10.601562 C 18.710938 10.488281 18.71875 10.375 18.710938 10.25 C 18.644531 10.289062 18.503906 10.386719 18.472656 10.277344 C 18.445312 10.183594 18.59375 9.972656 18.644531 9.898438 C 18.832031 9.613281 19.128906 9.730469 19.398438 9.609375 C 19.46875 9.578125 19.535156 9.535156 19.609375 9.515625 C 19.671875 9.503906 19.738281 9.519531 19.796875 9.503906 C 19.9375 9.46875 19.871094 9.347656 19.777344 9.289062 C 19.539062 9.136719 19.28125 9.125 19.03125 9.21875 C 18.921875 9.257812 18.761719 9.359375 18.644531 9.332031 C 18.585938 9.320312 18.550781 9.265625 18.492188 9.246094 C 18.421875 9.21875 18.347656 9.242188 18.277344 9.269531 C 18.230469 9.167969 18.296875 9.0625 18.386719 8.992188 C 18.371094 8.945312 18.285156 8.925781 18.238281 8.925781 C 18.15625 8.925781 18.140625 8.945312 18.113281 9.015625 C 18.089844 9.078125 18.097656 9.136719 18.035156 9.175781 C 17.953125 9.234375 17.945312 9.144531 17.863281 9.160156 C 17.6875 9.347656 17.601562 9.378906 17.359375 9.34375 C 17.230469 9.324219 16.863281 9.375 16.996094 9.167969 C 17.058594 9.070312 17.394531 8.804688 17.191406 8.707031 C 17.046875 8.636719 16.886719 8.722656 16.738281 8.628906 C 16.527344 8.5 16.390625 8.414062 16.132812 8.460938 C 15.859375 8.507812 15.878906 8.335938 15.710938 8.175781 C 15.546875 8.023438 15.3125 8.234375 15.125 8.226562 C 15.011719 8.226562 14.910156 8.175781 14.800781 8.160156 C 14.683594 8.144531 14.570312 8.167969 14.457031 8.1875 C 14.214844 8.234375 13.980469 8.175781 13.742188 8.203125 C 13.476562 8.230469 13.28125 8.289062 13.023438 8.1875 C 12.78125 8.089844 12.578125 8.066406 12.316406 8.058594 C 12.066406 8.050781 11.820312 8.015625 11.570312 8.011719 C 11.074219 7.996094 10.570312 8 10.078125 7.921875 C 9.5625 7.84375 9.050781 7.789062 8.527344 7.742188 C 7.984375 7.695312 7.429688 7.660156 6.890625 7.582031 C 6.648438 7.542969 6.40625 7.472656 6.171875 7.410156 C 6.066406 7.382812 5.96875 7.339844 5.871094 7.296875 C 5.820312 7.273438 5.773438 7.253906 5.722656 7.230469 C 5.675781 7.207031 5.625 7.191406 5.574219 7.171875 C 5.546875 7.160156 5.519531 7.152344 5.492188 7.144531 C 5.472656 7.140625 5.453125 7.121094 5.460938 7.101562 C 5.464844 7.089844 5.484375 7.070312 5.476562 7.058594 C 5.46875 7.039062 5.445312 7.050781 5.433594 7.054688 C 5.414062 7.066406 5.398438 7.070312 5.378906 7.074219 C 5.367188 7.078125 5.363281 7.070312 5.355469 7.0625 C 5.339844 7.050781 5.332031 7.050781 5.3125 7.050781 C 5.300781 7.050781 5.28125 7.050781 5.269531 7.054688 C 5.253906 7.054688 5.238281 7.078125 5.234375 7.089844 C 5.226562 7.109375 5.21875 7.128906 5.21875 7.148438 C 5.210938 7.1875 5.21875 7.226562 5.230469 7.261719 C 5.238281 7.289062 5.246094 7.3125 5.253906 7.335938 C 5.304688 7.5 5.261719 7.558594 5.101562 7.484375 C 5.003906 7.4375 4.949219 7.355469 4.851562 7.308594 C 4.785156 7.277344 4.613281 7.136719 4.535156 7.226562 C 4.503906 7.261719 4.523438 7.335938 4.523438 7.378906 C 4.527344 7.5625 4.480469 7.753906 4.460938 7.941406 C 4.398438 8.488281 4.273438 9.03125 4.101562 9.554688 C 4.050781 9.703125 4 9.847656 3.945312 9.996094 C 3.78125 10.414062 3.597656 10.832031 3.492188 11.273438 C 3.390625 11.691406 3.417969 12.117188 3.5 12.539062 C 3.519531 12.65625 3.546875 12.777344 3.574219 12.894531 C 3.679688 13.394531 3.765625 13.898438 3.875 14.394531 C 3.964844 14.800781 4.105469 15.171875 4.363281 15.5 C 4.839844 16.113281 5.445312 16.765625 6.179688 17.046875 C 6.585938 17.203125 6.972656 17.34375 7.335938 17.585938 C 7.746094 17.859375 8.125 18.214844 8.605469 18.359375 C 9.035156 18.488281 9.433594 18.351562 9.863281 18.324219 C 10.300781 18.292969 10.570312 18.550781 10.824219 18.875 C 11.09375 19.214844 11.359375 19.597656 11.800781 19.707031 C 12.167969 19.796875 12.566406 19.683594 12.910156 19.875 C 13.339844 20.113281 13.554688 20.640625 13.808594 21.035156 C 13.957031 21.265625 14.269531 21.769531 14.589844 21.5 C 14.886719 21.25 14.972656 20.761719 15.148438 20.429688 C 15.34375 20.0625 15.636719 19.8125 16.039062 19.699219 C 16.785156 19.488281 17.582031 19.648438 18.34375 19.644531 C 18.527344 19.644531 18.710938 19.640625 18.894531 19.632812 C 18.902344 19.613281 18.902344 19.59375 18.894531 19.574219 C 18.832031 19.574219 18.6875 19.519531 18.667969 19.453125 C 18.640625 19.359375 18.769531 19.289062 18.757812 19.226562 C 18.691406 19.214844 18.574219 19.265625 18.523438 19.234375 C 18.46875 19.199219 18.480469 19.117188 18.523438 19.074219 C 18.617188 18.976562 18.792969 19.066406 18.898438 18.953125 C 18.957031 18.894531 18.953125 18.859375 19.039062 18.835938 C 19.113281 18.816406 19.207031 18.808594 19.28125 18.804688 C 19.515625 18.796875 19.414062 18.9375 19.386719 19.078125 C 19.472656 19.113281 19.605469 19.03125 19.679688 19.007812 C 19.785156 18.972656 19.828125 18.933594 19.917969 18.863281 C 20.011719 18.789062 20.054688 18.78125 20.164062 18.8125 C 20.242188 18.839844 20.363281 18.929688 20.445312 18.925781 C 20.488281 19.050781 20.492188 19.050781 20.585938 19.128906 C 20.671875 19.203125 20.648438 19.28125 20.773438 19.257812 C 20.90625 19.230469 21.097656 19.097656 21.101562 18.949219 C 21.210938 18.894531 21.335938 18.996094 21.441406 19.050781 C 21.558594 19.113281 21.605469 19.21875 21.699219 19.308594 C 21.769531 19.375 21.976562 19.457031 21.972656 19.570312 C 21.972656 19.632812 21.890625 19.65625 21.90625 19.730469 C 21.917969 19.78125 21.992188 19.8125 22.011719 19.859375 C 22.035156 19.914062 22.023438 19.988281 22.042969 20.046875 C 22.066406 20.105469 22.109375 20.140625 22.144531 20.191406 C 22.230469 20.300781 22.226562 20.425781 22.304688 20.53125 C 22.355469 20.605469 22.421875 20.742188 22.492188 20.792969 C 22.554688 20.835938 22.613281 20.789062 22.675781 20.820312 C 22.722656 20.839844 22.769531 20.925781 22.789062 20.976562 C 22.808594 21.023438 22.804688 21.136719 22.863281 21.160156 C 22.945312 21.199219 22.980469 21.085938 23.058594 21.117188 C 23.136719 21.148438 23.09375 21.527344 23.289062 21.375 C 23.300781 21.484375 23.253906 21.554688 23.183594 21.636719 C 23.140625 21.6875 23.015625 21.78125 23.085938 21.851562 C 23.222656 21.988281 23.5625 21.730469 23.628906 21.609375 C 23.742188 21.390625 23.652344 21.175781 23.582031 20.964844 C 23.519531 20.765625 23.546875 20.550781 23.492188 20.351562 C 23.4375 20.15625 23.347656 19.996094 23.257812 19.816406 C 23.210938 19.714844 23.179688 19.601562 23.121094 19.503906 C 23.074219 19.425781 23.003906 19.371094 22.945312 19.300781 C 22.804688 19.128906 22.757812 18.886719 22.644531 18.691406 C 22.542969 18.515625 22.507812 18.285156 22.480469 18.082031 C 22.445312 17.8125 22.671875 17.644531 22.742188 17.398438 C 22.8125 17.15625 23.035156 17.039062 23.109375 16.804688 C 23.148438 16.800781 23.179688 16.769531 23.183594 16.726562 C 23.265625 16.71875 23.320312 16.527344 23.359375 16.464844 C 23.425781 16.351562 23.515625 16.25 23.585938 16.144531 C 23.65625 16.039062 23.6875 15.933594 23.78125 15.832031 C 23.839844 15.769531 23.890625 15.695312 23.953125 15.632812 C 24.128906 15.609375 24.175781 15.421875 24.292969 15.300781 C 24.339844 15.246094 24.417969 15.210938 24.453125 15.148438 C 24.5 15.066406 24.476562 14.953125 24.472656 14.863281 C 24.457031 14.679688 24.375 14.488281 24.304688 14.320312 C 24.265625 14.230469 24.203125 14.214844 24.125 14.164062 C 24.035156 14.097656 24.011719 14.027344 23.996094 13.921875 C 23.980469 13.824219 23.953125 13.742188 23.925781 13.648438 C 23.894531 13.558594 23.902344 13.457031 23.871094 13.363281 C 23.832031 13.261719 23.742188 13.175781 23.765625 13.058594 C 23.789062 12.933594 23.867188 12.953125 23.910156 13.054688 C 23.976562 13.21875 24.039062 13.414062 24.070312 13.589844 C 24.089844 13.691406 24.125 14.160156 24.296875 13.871094 C 24.359375 13.769531 24.320312 13.652344 24.339844 13.542969 C 24.359375 13.433594 24.4375 13.34375 24.457031 13.238281 C 24.480469 13.125 24.433594 13.078125 24.371094 12.996094 C 24.304688 12.914062 24.285156 12.832031 24.269531 12.726562 C 24.359375 12.671875 24.386719 12.632812 24.492188 12.625 C 24.554688 12.507812 24.5625 12.351562 24.5625 12.226562 C 24.558594 12.117188 24.582031 11.996094 24.582031 11.882812 C 24.585938 11.800781 24.582031 11.804688 24.660156 11.765625 C 24.726562 11.738281 24.785156 11.722656 24.847656 11.691406 C 24.964844 11.628906 25.101562 11.625 25.199219 11.523438 C 25.226562 11.496094 25.277344 11.433594 25.261719 11.390625 C 25.230469 11.320312 25.164062 11.394531 25.113281 11.351562 C 24.964844 11.21875 25.296875 11.191406 25.34375 11.160156 C 25.4375 11.105469 25.5 10.976562 25.605469 10.949219 C 25.742188 10.910156 25.777344 11.09375 25.925781 11.078125 C 25.988281 11.074219 26.082031 11.042969 26.125 10.996094 C 26.195312 10.914062 26.144531 10.90625 26.089844 10.851562 C 26.054688 10.8125 26.011719 10.761719 26.011719 10.703125 C 26.011719 10.664062 26.050781 10.628906 26.050781 10.582031 C 26.050781 10.550781 26.023438 10.515625 26.019531 10.480469 C 25.8125 10.523438 25.652344 10.503906 25.617188 10.265625 C 25.585938 10.046875 25.636719 9.769531 25.757812 9.585938 C 25.960938 9.28125 26.609375 9.132812 26.503906 8.667969 " fill-opacity="1" fill-rule="nonzero"/></g></svg>