<svg xmlns="http://www.w3.org/2000/svg" xmlns:xlink="http://www.w3.org/1999/xlink" width="40" zoomAndPan="magnify" viewBox="0 0 30 30.000001" height="40" preserveAspectRatio="xMidYMid meet" version="1.0"><defs><clipPath id="e52e67da63"><path d="M 3.386719 6.878906 L 26.613281 6.878906 L 26.613281 22.121094 L 3.386719 22.121094 Z M 3.386719 6.878906 " clip-rule="nonzero"/></clipPath></defs><g clip-path="url(#e52e67da63)"><path fill="#014d4e" d="M 11.929688 16.734375 C 11.929688 16.660156 11.941406 16.582031 11.925781 16.515625 C 11.929688 16.5 11.929688 16.492188 11.9375 16.476562 C 11.890625 16.410156 11.851562 16.339844 11.816406 16.285156 C 11.777344 16.222656 11.738281 16.160156 11.691406 16.097656 C 11.632812 16.015625 11.601562 15.921875 11.550781 15.832031 C 11.484375 15.707031 11.472656 15.640625 11.46875 15.503906 C 11.460938 15.414062 11.453125 15.269531 11.414062 15.183594 C 11.363281 15.089844 11.273438 15.015625 11.179688 14.972656 C 11.09375 14.929688 11.019531 14.867188 10.929688 14.835938 C 10.871094 14.816406 10.796875 14.800781 10.746094 14.835938 C 10.699219 14.871094 10.671875 14.910156 10.617188 14.941406 C 10.546875 14.980469 10.527344 15.007812 10.445312 14.976562 C 10.371094 14.953125 10.296875 14.910156 10.222656 14.882812 C 10.152344 14.851562 10.101562 14.808594 10.023438 14.800781 C 9.933594 14.796875 9.828125 14.792969 9.742188 14.8125 C 9.664062 14.828125 9.609375 14.851562 9.554688 14.796875 C 9.519531 14.761719 9.484375 14.71875 9.445312 14.683594 C 9.386719 14.628906 9.34375 14.632812 9.277344 14.601562 C 9.230469 14.582031 9.1875 14.542969 9.144531 14.519531 C 9.101562 14.488281 9.0625 14.457031 9.046875 14.402344 C 9.03125 14.34375 9.050781 14.359375 8.996094 14.320312 C 8.960938 14.292969 8.90625 14.277344 8.886719 14.234375 C 8.867188 14.195312 8.917969 14.160156 8.902344 14.140625 C 8.9375 14.113281 8.96875 14.089844 9 14.066406 C 8.988281 14.03125 8.976562 13.988281 8.972656 13.96875 C 8.957031 13.929688 8.878906 13.832031 8.902344 13.785156 C 8.953125 13.707031 9.230469 13.878906 9.296875 13.894531 C 9.285156 13.765625 9.175781 13.722656 9.097656 13.636719 C 9.054688 13.597656 9.03125 13.546875 8.996094 13.5 C 8.972656 13.472656 8.910156 13.453125 8.890625 13.421875 C 8.855469 13.367188 8.890625 13.355469 8.917969 13.3125 C 8.941406 13.265625 8.925781 13.226562 8.933594 13.1875 C 8.933594 13.179688 8.921875 13.171875 8.925781 13.15625 C 8.933594 13.132812 8.988281 13.089844 8.980469 13.066406 C 8.976562 13.019531 8.9375 13.027344 8.890625 13.019531 C 8.84375 13.003906 8.78125 12.988281 8.746094 12.949219 C 8.707031 12.910156 8.699219 12.855469 8.644531 12.824219 C 8.511719 12.765625 8.359375 12.828125 8.222656 12.777344 C 8.09375 12.734375 8.054688 12.609375 8.015625 12.496094 C 7.96875 12.359375 7.90625 12.378906 7.785156 12.402344 C 7.667969 12.414062 7.648438 12.390625 7.617188 12.292969 C 7.585938 12.191406 7.480469 12.179688 7.425781 12.097656 C 7.382812 12.03125 7.359375 11.867188 7.261719 11.867188 C 7.207031 11.96875 7.167969 12.078125 7.050781 12.078125 C 6.96875 12.078125 6.683594 12.015625 6.640625 12.097656 C 6.59375 12.171875 6.761719 12.242188 6.808594 12.265625 C 6.914062 12.320312 6.925781 12.410156 6.96875 12.515625 C 6.988281 12.566406 7.007812 12.738281 6.894531 12.714844 C 6.816406 12.695312 6.882812 12.566406 6.847656 12.511719 C 6.800781 12.433594 6.664062 12.433594 6.589844 12.390625 C 6.546875 12.367188 6.4375 12.277344 6.394531 12.339844 C 6.382812 12.367188 6.40625 12.414062 6.390625 12.445312 C 6.375 12.480469 6.320312 12.511719 6.296875 12.539062 C 6.257812 12.578125 6.230469 12.613281 6.210938 12.667969 C 6.203125 12.710938 6.207031 12.753906 6.1875 12.789062 C 6.066406 12.765625 5.949219 12.84375 5.839844 12.792969 C 5.773438 12.765625 5.753906 12.734375 5.679688 12.730469 C 5.59375 12.71875 5.585938 12.738281 5.519531 12.777344 C 5.480469 12.804688 5.429688 12.804688 5.390625 12.828125 C 5.34375 12.855469 5.320312 12.902344 5.296875 12.949219 C 5.246094 13.042969 5.199219 13.109375 5.105469 13.152344 C 5.015625 13.199219 4.980469 13.21875 4.957031 13.3125 C 4.9375 13.402344 4.925781 13.476562 4.921875 13.566406 C 4.917969 13.710938 4.867188 13.910156 4.929688 14.050781 C 4.960938 14.109375 5.03125 14.089844 5.054688 14.144531 C 5.082031 14.1875 5.03125 14.285156 4.992188 14.285156 C 4.964844 14.296875 4.9375 14.308594 4.910156 14.324219 L 3.417969 13.988281 L 4.410156 7.554688 L 7.730469 6.878906 L 7.785156 7.363281 L 10.546875 9.320312 L 11.695312 10.90625 L 13.371094 10.621094 L 14.925781 10.757812 L 15.648438 10.421875 C 15.648438 10.421875 15.765625 10.773438 16.101562 10.960938 C 16.433594 11.148438 16.542969 11.953125 16.542969 11.953125 L 16.90625 11.886719 L 16.949219 12.863281 L 16.851562 12.957031 L 16.828125 13.632812 L 17.582031 13.765625 L 17.660156 14.90625 L 19.417969 15 C 19.417969 15 19.980469 14.960938 19.777344 15.265625 C 19.769531 15.300781 19.761719 15.335938 19.757812 15.355469 C 19.742188 15.417969 19.707031 15.507812 19.734375 15.574219 C 19.773438 15.679688 19.921875 15.722656 20.007812 15.785156 C 20.035156 15.804688 20.089844 15.867188 20.132812 15.859375 C 20.195312 15.84375 20.175781 15.742188 20.171875 15.699219 C 20.160156 15.574219 20.125 15.433594 20.152344 15.308594 C 20.167969 15.246094 20.210938 15.195312 20.277344 15.195312 C 20.359375 15.191406 20.402344 15.253906 20.46875 15.285156 C 20.554688 15.179688 20.558594 15.015625 20.664062 14.925781 C 20.71875 14.875 20.785156 14.867188 20.820312 14.800781 C 20.839844 14.765625 20.859375 14.722656 20.863281 14.675781 C 20.867188 14.636719 20.859375 14.585938 20.875 14.554688 C 20.902344 14.484375 21.027344 14.441406 21.09375 14.410156 C 21.167969 14.367188 21.238281 14.339844 21.316406 14.328125 C 21.332031 14.328125 21.347656 14.328125 21.363281 14.328125 C 21.363281 14.285156 21.363281 14.234375 21.363281 14.210938 C 21.417969 14.074219 21.589844 14.011719 21.691406 13.921875 C 21.746094 13.875 21.785156 13.804688 21.859375 13.808594 C 21.929688 13.808594 21.984375 13.859375 22.039062 13.894531 C 22.042969 13.832031 22.058594 13.722656 22.128906 13.695312 C 22.160156 13.679688 22.1875 13.710938 22.21875 13.679688 C 22.25 13.65625 22.242188 13.605469 22.25 13.570312 C 22.273438 13.453125 22.363281 13.425781 22.453125 13.355469 C 22.484375 13.332031 22.546875 13.296875 22.5625 13.261719 C 22.582031 13.222656 22.550781 13.191406 22.585938 13.15625 C 22.667969 13.074219 22.746094 13.203125 22.820312 13.203125 C 22.882812 13.199219 22.894531 13.136719 22.921875 13.09375 C 22.949219 13.035156 22.996094 12.984375 23.054688 12.945312 C 23.191406 12.847656 23.390625 12.773438 23.554688 12.75 C 23.703125 12.722656 23.742188 12.855469 23.652344 12.953125 C 23.609375 13.007812 23.578125 13.023438 23.515625 13.039062 C 23.460938 13.054688 23.46875 13.039062 23.480469 13.109375 C 23.488281 13.191406 23.484375 13.207031 23.390625 13.222656 C 23.308594 13.234375 23.25 13.1875 23.179688 13.191406 C 23.164062 13.261719 23.226562 13.28125 23.234375 13.34375 C 23.246094 13.402344 23.183594 13.464844 23.136719 13.488281 C 23.082031 13.511719 23.027344 13.488281 22.976562 13.515625 C 22.90625 13.5625 22.875 13.65625 22.832031 13.722656 C 22.792969 13.785156 22.707031 13.855469 22.683594 13.925781 C 22.667969 13.976562 22.695312 14 22.648438 14.035156 C 22.585938 14.078125 22.488281 14.074219 22.421875 14.125 C 22.363281 14.167969 22.394531 14.183594 22.378906 14.242188 C 22.453125 14.25 22.519531 14.203125 22.59375 14.21875 C 22.703125 14.238281 22.738281 14.308594 22.820312 14.367188 C 22.910156 14.429688 22.886719 14.363281 22.929688 14.292969 C 22.980469 14.222656 23.128906 14.242188 23.183594 14.289062 C 23.226562 14.324219 23.234375 14.378906 23.238281 14.429688 C 23.246094 14.476562 23.207031 14.546875 23.214844 14.585938 C 23.234375 14.703125 23.339844 14.601562 23.398438 14.609375 C 23.464844 14.617188 23.484375 14.710938 23.554688 14.710938 C 23.59375 14.710938 23.597656 14.667969 23.628906 14.664062 C 23.648438 14.65625 23.695312 14.691406 23.714844 14.703125 C 23.75 14.71875 23.757812 14.722656 23.792969 14.710938 C 23.832031 14.699219 23.828125 14.652344 23.882812 14.671875 C 23.949219 14.699219 24.015625 14.828125 24.070312 14.882812 C 24.097656 14.851562 24.082031 14.8125 24.078125 14.773438 C 24.070312 14.71875 24.082031 14.664062 24.070312 14.609375 C 24.0625 14.507812 24.0625 14.464844 24.160156 14.414062 C 24.214844 14.386719 24.300781 14.363281 24.339844 14.3125 C 24.394531 14.25 24.367188 14.132812 24.390625 14.054688 C 24.414062 13.976562 24.46875 13.941406 24.503906 14.03125 C 24.53125 14.09375 24.53125 14.148438 24.59375 14.1875 C 24.683594 14.238281 24.695312 14.253906 24.710938 14.367188 C 24.71875 14.449219 24.726562 14.546875 24.71875 14.628906 C 24.730469 14.628906 24.734375 14.628906 24.738281 14.628906 C 24.828125 14.628906 24.910156 14.597656 24.992188 14.59375 C 25.070312 14.585938 25.09375 14.59375 25.125 14.652344 C 25.136719 14.6875 25.132812 14.757812 25.164062 14.78125 C 25.1875 14.796875 25.296875 14.765625 25.332031 14.765625 C 25.386719 14.761719 25.441406 14.761719 25.496094 14.765625 C 25.601562 14.773438 25.589844 14.851562 25.65625 14.921875 C 25.746094 15.015625 25.886719 14.984375 26.003906 14.992188 C 26.121094 14.992188 26.277344 14.910156 26.394531 14.945312 C 26.582031 15.007812 26.195312 15.242188 26.132812 15.269531 C 26.046875 15.316406 26.019531 15.355469 26.003906 15.449219 C 25.988281 15.550781 25.957031 15.539062 25.867188 15.554688 C 25.90625 15.664062 25.804688 15.640625 25.726562 15.625 C 25.617188 15.605469 25.511719 15.535156 25.527344 15.683594 C 25.53125 15.722656 25.542969 15.8125 25.488281 15.828125 C 25.460938 15.832031 25.4375 15.804688 25.414062 15.789062 C 25.324219 15.730469 25.277344 15.738281 25.207031 15.8125 C 25.132812 15.886719 25.046875 15.984375 25 16.078125 C 24.949219 16.171875 24.914062 16.292969 24.804688 16.339844 C 24.738281 16.371094 24.699219 16.335938 24.640625 16.320312 C 24.554688 16.300781 24.550781 16.359375 24.480469 16.371094 C 24.425781 16.382812 24.421875 16.316406 24.382812 16.277344 C 24.324219 16.226562 24.257812 16.203125 24.1875 16.1875 C 24.046875 16.15625 23.828125 16.167969 23.738281 16.28125 C 23.683594 16.351562 23.609375 16.4375 23.523438 16.464844 C 23.449219 16.496094 23.410156 16.5 23.351562 16.554688 C 23.316406 16.585938 23.28125 16.65625 23.238281 16.671875 C 23.164062 16.699219 23.152344 16.550781 23.128906 16.496094 C 23.101562 16.417969 23.074219 16.320312 23.035156 16.242188 C 23.03125 16.226562 23.027344 16.191406 23.015625 16.152344 C 22.917969 16.121094 22.820312 16.066406 22.71875 16.074219 C 22.746094 16.011719 22.820312 15.957031 22.875 15.914062 C 22.960938 15.84375 23.039062 15.769531 23.125 15.707031 C 23.175781 15.671875 23.253906 15.632812 23.253906 15.570312 C 23.253906 15.519531 23.207031 15.449219 23.175781 15.417969 C 23.125 15.363281 23.054688 15.324219 23.011719 15.269531 C 22.964844 15.21875 22.941406 15.160156 22.890625 15.121094 C 22.863281 15.097656 22.820312 15.050781 22.78125 15.0625 C 22.726562 15.074219 22.726562 15.140625 22.722656 15.179688 C 22.707031 15.289062 22.628906 15.304688 22.53125 15.355469 C 22.4375 15.40625 22.351562 15.449219 22.253906 15.484375 C 22.160156 15.515625 22.070312 15.554688 21.996094 15.613281 C 21.941406 15.652344 21.816406 15.789062 21.746094 15.753906 C 21.6875 15.722656 21.664062 15.644531 21.609375 15.605469 C 21.546875 15.558594 21.445312 15.558594 21.390625 15.523438 C 21.382812 15.523438 21.367188 15.523438 21.355469 15.523438 C 21.355469 15.535156 21.351562 15.539062 21.351562 15.550781 C 21.367188 15.597656 21.347656 15.6875 21.347656 15.75 C 21.347656 15.816406 21.351562 15.886719 21.355469 15.957031 C 21.363281 16.09375 21.363281 16.242188 21.335938 16.375 C 21.328125 16.4375 21.3125 16.496094 21.300781 16.554688 C 21.300781 16.554688 21.300781 16.554688 21.296875 16.554688 C 21.292969 16.554688 21.289062 16.554688 21.28125 16.554688 C 21.230469 16.550781 21.1875 16.539062 21.136719 16.535156 C 21.03125 16.582031 20.863281 16.585938 20.746094 16.625 C 20.621094 16.660156 20.460938 16.714844 20.359375 16.800781 C 20.457031 17.046875 20.730469 16.679688 20.875 16.769531 C 20.914062 16.792969 20.917969 16.871094 20.898438 16.898438 C 20.875 16.945312 20.808594 16.945312 20.765625 16.960938 C 20.699219 16.984375 20.601562 17.0625 20.613281 17.148438 C 20.621094 17.1875 20.6875 17.214844 20.679688 17.273438 C 20.664062 17.371094 20.59375 17.308594 20.542969 17.296875 C 20.480469 17.277344 20.46875 17.308594 20.488281 17.359375 C 20.53125 17.449219 20.515625 17.390625 20.445312 17.4375 C 20.351562 17.496094 20.488281 17.601562 20.445312 17.679688 C 20.433594 17.707031 20.390625 17.746094 20.371094 17.777344 C 20.34375 17.816406 20.335938 17.886719 20.289062 17.90625 C 20.242188 17.929688 20.195312 17.902344 20.144531 17.894531 C 20.078125 17.886719 20.015625 17.914062 19.945312 17.921875 C 19.828125 17.925781 19.664062 17.921875 19.546875 17.875 C 19.453125 17.839844 19.347656 17.777344 19.25 17.761719 C 19.210938 17.785156 19.167969 17.8125 19.128906 17.835938 C 19.082031 17.910156 18.976562 17.90625 18.902344 17.945312 C 18.78125 18.011719 18.851562 18.101562 18.921875 18.160156 C 18.96875 18.199219 18.984375 18.214844 18.96875 18.285156 C 18.957031 18.34375 18.90625 18.375 18.886719 18.421875 C 18.855469 18.503906 19.039062 18.558594 19.105469 18.597656 C 19.160156 18.632812 19.214844 18.652344 19.238281 18.710938 C 19.257812 18.757812 19.265625 18.8125 19.269531 18.863281 C 19.359375 18.847656 19.445312 18.832031 19.535156 18.816406 C 19.609375 18.800781 19.644531 18.816406 19.71875 18.835938 C 19.828125 18.867188 19.941406 18.910156 19.992188 19.023438 C 19.957031 19.070312 19.800781 19.109375 19.800781 19.1875 C 19.796875 19.28125 19.996094 19.234375 19.867188 19.339844 C 19.835938 19.367188 19.789062 19.371094 19.773438 19.40625 C 19.746094 19.449219 19.792969 19.511719 19.808594 19.550781 C 19.828125 19.59375 19.808594 19.625 19.816406 19.664062 C 19.828125 19.71875 19.867188 19.695312 19.921875 19.714844 C 20.046875 19.765625 20.027344 19.941406 20.046875 20.046875 C 20.0625 20.128906 20.113281 20.140625 20.171875 20.183594 C 20.246094 20.226562 20.257812 20.261719 20.242188 20.355469 C 20.230469 20.429688 20.1875 20.527344 20.140625 20.585938 C 20.101562 20.640625 20.042969 20.664062 20.03125 20.742188 C 20.023438 20.816406 20.078125 20.875 19.988281 20.886719 C 19.917969 20.894531 19.890625 20.875 19.84375 20.945312 C 19.773438 21.03125 19.769531 21.160156 19.722656 21.257812 C 19.671875 21.367188 19.628906 21.484375 19.582031 21.59375 C 19.539062 21.6875 19.527344 21.765625 19.523438 21.871094 C 19.523438 21.941406 19.519531 22.011719 19.519531 22.074219 C 19.519531 22.089844 19.511719 22.109375 19.507812 22.128906 C 19.472656 22.117188 19.4375 22.09375 19.402344 22.085938 C 19.324219 22.066406 19.265625 22.109375 19.195312 22.089844 C 19.160156 22.082031 19.136719 22.054688 19.101562 22.039062 C 19.066406 22.03125 19.03125 22.035156 18.996094 22.027344 C 18.9375 22.003906 18.960938 21.984375 18.894531 22.019531 C 18.871094 22.035156 18.847656 22.050781 18.816406 22.070312 C 18.722656 22.128906 18.703125 22.144531 18.613281 22.085938 C 18.546875 22.039062 18.476562 22.003906 18.421875 21.945312 C 18.382812 21.90625 18.308594 21.828125 18.253906 21.816406 C 18.203125 21.804688 18.128906 21.847656 18.082031 21.867188 C 17.960938 21.921875 17.875 21.886719 17.75 21.886719 C 17.734375 21.886719 17.710938 21.882812 17.675781 21.882812 C 17.679688 21.859375 17.691406 21.839844 17.699219 21.816406 C 17.71875 21.773438 17.753906 21.738281 17.761719 21.6875 C 17.769531 21.585938 17.660156 21.542969 17.640625 21.449219 C 17.625 21.382812 17.65625 21.324219 17.664062 21.257812 C 17.675781 21.199219 17.65625 21.152344 17.65625 21.097656 C 17.65625 21.070312 17.671875 21.019531 17.679688 20.988281 C 17.699219 20.941406 17.734375 20.941406 17.765625 20.898438 C 17.875 20.753906 17.539062 20.671875 17.464844 20.636719 C 17.390625 20.601562 17.375 20.554688 17.320312 20.507812 C 17.242188 20.429688 17.136719 20.4375 17.03125 20.410156 C 16.929688 20.386719 16.878906 20.34375 16.792969 20.285156 C 16.730469 20.246094 16.628906 20.242188 16.554688 20.238281 C 16.425781 20.226562 16.324219 20.273438 16.199219 20.203125 C 16.101562 20.140625 15.972656 20.09375 15.890625 20.011719 C 15.757812 19.882812 15.652344 19.730469 15.5 19.613281 C 15.398438 19.539062 15.265625 19.496094 15.15625 19.445312 C 15.023438 19.390625 14.914062 19.316406 14.804688 19.226562 C 14.734375 19.167969 14.667969 19.089844 14.578125 19.050781 C 14.566406 19.046875 14.535156 19.03125 14.507812 19.015625 C 14.46875 19.023438 14.425781 19.023438 14.398438 19.027344 C 14.328125 19.03125 14.277344 19.03125 14.226562 18.976562 C 14.164062 18.902344 14.144531 18.84375 14.054688 18.789062 C 13.964844 18.734375 13.878906 18.667969 13.804688 18.597656 C 13.675781 18.488281 13.59375 18.363281 13.492188 18.234375 C 13.40625 18.128906 13.269531 18.089844 13.15625 18.03125 C 13.027344 17.964844 12.941406 17.847656 12.828125 17.757812 C 12.683594 17.640625 12.550781 17.535156 12.378906 17.46875 C 12.199219 17.390625 11.980469 17.207031 11.921875 17.019531 C 11.945312 16.925781 11.9375 16.820312 11.929688 16.734375 Z M 11.929688 16.734375 " fill-opacity="1" fill-rule="nonzero"/></g></svg>