<svg xmlns="http://www.w3.org/2000/svg" xmlns:xlink="http://www.w3.org/1999/xlink" width="40" zoomAndPan="magnify" viewBox="0 0 30 30.000001" height="40" preserveAspectRatio="xMidYMid meet" version="1.0"><defs><clipPath id="97ee2b1b45"><path d="M 3.386719 6.625 L 25.160156 6.625 L 25.160156 23.316406 L 3.386719 23.316406 Z M 3.386719 6.625 " clip-rule="nonzero"/></clipPath></defs><g clip-path="url(#97ee2b1b45)"><path fill="#014d4e" d="M 5.15625 19.671875 L 4.828125 20.03125 L 3.390625 19.179688 L 4.902344 18.273438 L 5.324219 18.636719 L 7.089844 16.796875 L 6.699219 16.484375 C 6.699219 16.484375 6.90625 15.878906 8.039062 15.136719 L 8.460938 15.386719 L 9.191406 12.96875 L 8.800781 12.824219 L 8.902344 12.046875 L 9.539062 11.695312 L 9.886719 12.054688 L 11.753906 10.265625 L 11.332031 9.863281 L 11.652344 8.703125 L 13.128906 8.507812 L 13.265625 8.972656 L 14.230469 8.757812 L 14.207031 8.621094 C 14.207031 8.621094 15.441406 8.171875 16.222656 8.199219 L 16.238281 8.292969 L 17.433594 7.972656 L 17.34375 7.519531 L 20.160156 6.625 L 20.585938 9.121094 L 24.011719 10.253906 L 23.855469 16.148438 C 23.855469 16.148438 24.964844 16.671875 25.195312 17.804688 C 25.429688 18.945312 25.191406 19.910156 24.546875 20.511719 C 23.941406 21.074219 22.851562 21.703125 21.65625 19.945312 L 21.441406 19.96875 L 21.503906 20.113281 L 21.625 20.09375 L 21.738281 20.375 L 21.617188 20.429688 L 21.710938 20.5625 L 21.484375 20.660156 C 21.484375 20.660156 21.941406 22.222656 21.835938 22.890625 L 18.699219 22.914062 L 18.609375 23.296875 L 15.679688 22.636719 L 15.617188 23.0625 C 15.617188 23.0625 13.523438 23.050781 12.171875 22.386719 L 12.261719 21.820312 L 8.691406 21.4375 L 8.710938 21.890625 L 7.257812 22.167969 L 6.953125 21.785156 L 7.257812 21.414062 Z M 5.15625 19.671875 " fill-opacity="1" fill-rule="nonzero"/></g></svg>