<svg xmlns="http://www.w3.org/2000/svg" xmlns:xlink="http://www.w3.org/1999/xlink" width="40" zoomAndPan="magnify" viewBox="0 0 30 30.000001" height="40" preserveAspectRatio="xMidYMid meet" version="1.0"><defs><clipPath id="0772775117"><path d="M 12.210938 2.902344 L 19.324219 2.902344 L 19.324219 14.699219 L 12.210938 14.699219 Z M 12.210938 2.902344 " clip-rule="nonzero"/></clipPath><clipPath id="2c691f4546"><path d="M 10.621094 24.582031 L 12.976562 24.582031 L 12.976562 26.128906 L 10.621094 26.128906 Z M 10.621094 24.582031 " clip-rule="nonzero"/></clipPath></defs><g clip-path="url(#0772775117)"><path fill="#014d4e" d="M 12.820312 12.003906 C 12.746094 11.910156 12.703125 11.796875 12.679688 11.667969 C 12.648438 11.480469 12.605469 11.304688 12.46875 11.164062 C 12.375 11.070312 12.265625 11.039062 12.222656 10.902344 C 12.183594 10.777344 12.234375 10.671875 12.289062 10.5625 C 12.355469 10.433594 12.347656 10.308594 12.332031 10.167969 C 12.324219 10.074219 12.34375 9.980469 12.367188 9.890625 C 12.390625 9.792969 12.414062 9.683594 12.410156 9.582031 C 12.402344 9.476562 12.339844 9.351562 12.351562 9.246094 C 12.359375 9.167969 12.4375 9.128906 12.449219 9.054688 C 12.464844 8.960938 12.445312 8.878906 12.480469 8.789062 C 12.539062 8.628906 12.679688 8.511719 12.820312 8.429688 C 12.882812 8.394531 12.949219 8.371094 12.996094 8.316406 C 13.140625 8.132812 12.863281 7.960938 12.917969 7.769531 C 12.949219 7.671875 13.054688 7.636719 13.007812 7.523438 C 12.972656 7.433594 12.933594 7.339844 13.035156 7.273438 C 13.078125 7.246094 13.128906 7.238281 13.179688 7.230469 C 13.421875 7.191406 13.734375 7.214844 13.925781 7.03125 C 14.175781 6.796875 13.941406 6.410156 14.152344 6.167969 C 14.464844 5.8125 14.660156 5.398438 14.882812 4.984375 C 15.007812 4.75 15.167969 4.535156 15.226562 4.269531 C 15.273438 4.0625 15.328125 3.839844 15.445312 3.660156 C 15.59375 3.425781 15.875 3.304688 16.117188 3.195312 C 16.390625 3.074219 16.679688 2.910156 16.984375 2.902344 C 17.28125 2.894531 17.554688 3.105469 17.820312 3.203125 C 17.914062 3.238281 17.984375 3.199219 18.078125 3.191406 C 18.207031 3.171875 18.160156 3.210938 18.191406 3.285156 C 18.269531 3.453125 18.367188 3.464844 18.539062 3.484375 C 18.585938 3.492188 18.671875 3.507812 18.707031 3.539062 C 18.792969 3.617188 18.730469 3.597656 18.667969 3.667969 C 18.511719 3.851562 18.566406 4.097656 18.65625 4.300781 C 18.703125 4.402344 18.761719 4.5 18.824219 4.59375 C 18.957031 4.789062 19.117188 4.988281 19.207031 5.210938 C 19.316406 5.476562 19.28125 5.730469 19.28125 6.003906 C 19.28125 6.207031 19.328125 6.402344 19.359375 6.597656 C 19.398438 6.871094 19.351562 7.144531 19.34375 7.417969 C 19.332031 7.691406 19.324219 7.96875 19.3125 8.246094 C 19.300781 8.570312 19.335938 8.890625 19.324219 9.214844 C 19.316406 9.359375 19.304688 9.484375 19.210938 9.601562 C 19.066406 9.789062 19.019531 9.914062 18.976562 10.140625 C 18.925781 10.386719 18.796875 10.589844 18.703125 10.8125 C 18.5625 11.144531 18.324219 11.5 18.277344 11.859375 C 18.242188 12.140625 18.175781 12.550781 18.136719 12.851562 C 18.101562 13.15625 18.070312 13.617188 17.847656 13.617188 C 17.625 13.617188 17.449219 13.617188 17.359375 13.914062 C 17.335938 13.992188 17.3125 14.085938 17.265625 14.15625 C 17.21875 14.21875 17.140625 14.25 17.125 14.332031 C 17.113281 14.417969 17.15625 14.515625 17.09375 14.582031 C 16.929688 14.75 16.535156 14.53125 16.324219 14.585938 C 16.242188 14.609375 16.15625 14.699219 16.074219 14.695312 C 15.933594 14.695312 16.003906 14.601562 16.027344 14.523438 C 16.089844 14.285156 15.6875 14.242188 15.546875 14.140625 C 15.441406 14.066406 15.359375 13.945312 15.238281 13.882812 C 15.070312 13.796875 14.964844 13.914062 14.820312 13.980469 C 14.746094 14.015625 14.65625 14.035156 14.582031 14 C 14.445312 13.929688 14.515625 13.796875 14.589844 13.714844 C 14.824219 13.433594 14.585938 13.214844 14.296875 13.121094 C 14.175781 13.085938 14.050781 13.128906 13.933594 13.15625 C 13.84375 13.179688 13.660156 13.214844 13.578125 13.144531 C 13.480469 13.058594 13.582031 12.914062 13.601562 12.820312 C 13.640625 12.648438 13.511719 12.527344 13.378906 12.449219 C 13.222656 12.363281 13.09375 12.25 12.953125 12.140625 C 12.898438 12.097656 12.855469 12.054688 12.820312 12.003906 " fill-opacity="1" fill-rule="nonzero"/></g><path fill="#014d4e" d="M 13.152344 18.78125 C 13.15625 18.78125 13.15625 18.78125 13.15625 18.78125 C 13.355469 18.757812 13.550781 18.769531 13.746094 18.785156 C 13.859375 18.792969 14.003906 18.832031 14.101562 18.753906 C 14.160156 18.707031 14.171875 18.632812 14.199219 18.566406 C 14.25 18.460938 14.324219 18.378906 14.394531 18.289062 C 14.421875 18.253906 14.4375 18.207031 14.425781 18.164062 C 14.367188 17.898438 13.996094 18.308594 13.917969 18.125 C 13.90625 18.105469 13.90625 18.078125 13.90625 18.054688 C 13.921875 17.859375 14.074219 17.738281 14.21875 17.632812 C 14.464844 17.457031 14.679688 17.234375 14.917969 17.046875 C 14.992188 16.988281 15.035156 16.945312 15.128906 16.925781 C 15.253906 16.90625 15.511719 16.921875 15.554688 16.761719 C 15.574219 16.6875 15.59375 16.5625 15.660156 16.511719 C 15.738281 16.453125 15.847656 16.535156 15.882812 16.605469 C 15.925781 16.691406 15.886719 16.769531 15.832031 16.839844 C 15.71875 16.984375 15.648438 17.15625 15.507812 17.285156 C 15.394531 17.386719 15.1875 17.46875 15.136719 17.625 C 15.089844 17.761719 15.144531 17.914062 15.214844 18.027344 C 15.257812 18.09375 15.335938 18.167969 15.316406 18.253906 C 15.277344 18.398438 15.097656 18.53125 14.992188 18.628906 C 14.90625 18.707031 14.761719 18.757812 14.714844 18.875 C 14.6875 18.953125 14.75 19.054688 14.710938 19.128906 C 14.613281 19.296875 14.417969 19.015625 14.308594 19.050781 C 14.203125 19.085938 14.199219 19.179688 14.140625 19.257812 C 14.066406 19.355469 13.9375 19.292969 13.84375 19.265625 C 13.699219 19.222656 13.546875 19.210938 13.398438 19.1875 C 13.195312 19.15625 12.996094 19.125 12.796875 19.09375 C 12.71875 19.082031 12.429688 19.09375 12.378906 19.023438 C 12.339844 18.96875 12.429688 18.933594 12.476562 18.917969 C 12.578125 18.882812 12.691406 18.882812 12.796875 18.859375 C 12.914062 18.835938 13.035156 18.792969 13.152344 18.78125 " fill-opacity="1" fill-rule="nonzero"/><path fill="#014d4e" d="M 16.050781 20.503906 C 16.050781 20.507812 16.050781 20.507812 16.050781 20.511719 C 16.027344 20.578125 16.015625 20.65625 16.027344 20.726562 C 16.035156 20.804688 16.097656 20.882812 16.074219 20.964844 C 16.050781 21.054688 15.972656 21.117188 15.921875 21.1875 C 15.851562 21.277344 15.769531 21.375 15.789062 21.492188 C 15.8125 21.640625 16.0625 21.925781 16.222656 21.921875 C 16.410156 21.917969 16.410156 21.574219 16.433594 21.445312 C 16.464844 21.261719 16.515625 21.078125 16.625 20.925781 C 16.730469 20.773438 16.949219 20.667969 16.835938 20.449219 C 16.746094 20.277344 16.503906 20.164062 16.3125 20.210938 C 16.175781 20.242188 16.089844 20.378906 16.050781 20.503906 " fill-opacity="1" fill-rule="nonzero"/><path fill="#014d4e" d="M 13.265625 20.972656 C 13.25 20.960938 13.230469 20.953125 13.210938 20.949219 C 13.144531 20.941406 13.0625 21 13.023438 21.050781 C 12.921875 21.175781 13.066406 21.378906 13.132812 21.488281 C 13.21875 21.644531 13.3125 21.796875 13.339844 21.976562 C 13.363281 22.148438 13.425781 22.5625 13.140625 22.535156 C 12.96875 22.519531 12.792969 22.449219 12.628906 22.398438 C 12.550781 22.375 12.320312 22.273438 12.242188 22.339844 C 12.121094 22.441406 12.371094 22.644531 12.433594 22.707031 C 12.613281 22.886719 12.789062 22.796875 12.984375 22.828125 C 13.070312 22.839844 13.144531 22.886719 13.230469 22.90625 C 13.285156 22.917969 13.347656 22.917969 13.398438 22.894531 C 13.621094 22.789062 13.507812 22.371094 13.488281 22.1875 C 13.476562 22.109375 13.46875 21.992188 13.53125 21.929688 C 13.601562 21.859375 13.75 21.882812 13.839844 21.886719 C 14.023438 21.886719 14.191406 21.890625 14.167969 21.65625 C 14.152344 21.476562 14.140625 21.296875 14.125 21.113281 C 14.117188 21.070312 14.113281 21.019531 14.085938 20.984375 C 14.015625 20.894531 13.90625 20.992188 13.839844 21.027344 C 13.683594 21.101562 13.542969 21.160156 13.382812 21.070312 C 13.34375 21.046875 13.304688 21 13.265625 20.972656 " fill-opacity="1" fill-rule="nonzero"/><g clip-path="url(#2c691f4546)"><path fill="#014d4e" d="M 11.816406 24.996094 C 12.140625 25.105469 12.496094 25.109375 12.835938 25.144531 C 12.894531 25.148438 12.972656 25.171875 12.976562 25.234375 C 12.976562 25.269531 12.945312 25.304688 12.910156 25.316406 C 12.875 25.332031 12.839844 25.335938 12.800781 25.34375 C 12.6875 25.375 12.601562 25.46875 12.523438 25.554688 C 12.441406 25.640625 12.34375 25.726562 12.226562 25.738281 C 12.144531 25.742188 12.0625 25.707031 11.984375 25.683594 C 11.902344 25.664062 11.808594 25.65625 11.742188 25.707031 C 11.628906 25.800781 11.679688 26.015625 11.558594 26.101562 C 11.46875 26.160156 11.351562 26.113281 11.257812 26.066406 C 11.097656 25.984375 10.9375 25.902344 10.777344 25.824219 C 10.738281 25.804688 10.699219 25.785156 10.667969 25.753906 C 10.640625 25.722656 10.617188 25.683594 10.625 25.640625 C 10.632812 25.574219 10.703125 25.535156 10.769531 25.527344 C 10.835938 25.523438 10.898438 25.542969 10.964844 25.550781 C 11.046875 25.5625 11.136719 25.546875 11.199219 25.492188 C 11.257812 25.4375 11.28125 25.332031 11.226562 25.269531 C 11.164062 25.199219 11.042969 25.207031 10.984375 25.132812 C 10.929688 25.0625 10.976562 24.949219 11.050781 24.898438 C 11.128906 24.847656 11.222656 24.839844 11.3125 24.824219 C 11.402344 24.804688 11.496094 24.773438 11.546875 24.699219 C 11.5625 24.671875 11.570312 24.644531 11.589844 24.617188 C 11.609375 24.59375 11.640625 24.578125 11.667969 24.585938 C 11.699219 24.597656 11.710938 24.632812 11.71875 24.660156 C 11.742188 24.746094 11.765625 24.980469 11.863281 25.011719 L 11.816406 24.996094 " fill-opacity="1" fill-rule="nonzero"/></g></svg>