<svg xmlns="http://www.w3.org/2000/svg" xmlns:xlink="http://www.w3.org/1999/xlink" width="40" zoomAndPan="magnify" viewBox="0 0 30 30.000001" height="40" preserveAspectRatio="xMidYMid meet" version="1.0"><defs><clipPath id="aad04395fc"><path d="M 3.394531 5.226562 L 26.613281 5.226562 L 26.613281 23.832031 L 3.394531 23.832031 Z M 3.394531 5.226562 " clip-rule="nonzero"/></clipPath></defs><g clip-path="url(#aad04395fc)"><path fill="#014d4e" d="M 13.203125 23.082031 C 13.246094 23.082031 13.285156 23.089844 13.289062 23.117188 C 13.296875 23.175781 13.304688 23.1875 13.359375 23.160156 C 13.414062 23.132812 13.429688 23.242188 13.496094 23.1875 C 13.566406 23.132812 13.578125 23.117188 13.640625 23.132812 C 13.703125 23.144531 13.640625 23.289062 13.675781 23.332031 C 13.710938 23.375 13.703125 23.4375 13.628906 23.402344 C 13.550781 23.367188 13.558594 23.324219 13.511719 23.351562 C 13.460938 23.378906 13.488281 23.351562 13.398438 23.324219 C 13.3125 23.296875 13.414062 23.289062 13.289062 23.277344 C 13.164062 23.261719 13.214844 23.332031 13.136719 23.351562 C 13.0625 23.375 13.082031 23.402344 12.972656 23.421875 C 12.863281 23.441406 12.8125 23.492188 12.890625 23.53125 C 12.964844 23.574219 12.9375 23.613281 12.867188 23.664062 C 12.800781 23.710938 12.875 23.785156 12.785156 23.691406 C 12.695312 23.59375 12.71875 23.628906 12.664062 23.648438 C 12.605469 23.667969 12.640625 23.699219 12.558594 23.691406 C 12.476562 23.683594 12.539062 23.792969 12.441406 23.792969 C 12.34375 23.792969 12.277344 23.800781 12.25 23.746094 C 12.222656 23.691406 12.226562 23.648438 12.242188 23.582031 C 12.253906 23.511719 12.289062 23.40625 12.351562 23.414062 C 12.414062 23.421875 12.394531 23.523438 12.496094 23.511719 C 12.601562 23.496094 12.542969 23.566406 12.578125 23.511719 C 12.613281 23.457031 12.71875 23.429688 12.683594 23.386719 C 12.648438 23.347656 12.691406 23.289062 12.628906 23.277344 C 12.566406 23.261719 12.460938 23.242188 12.511719 23.160156 C 12.511719 23.160156 12.515625 23.132812 12.601562 23.132812 C 12.683594 23.132812 12.8125 23.097656 12.835938 23.152344 C 12.855469 23.207031 12.898438 23.1875 12.9375 23.175781 C 12.980469 23.160156 13.082031 23.175781 13.105469 23.125 C 13.113281 23.101562 13.160156 23.085938 13.203125 23.082031 Z M 12.316406 22.59375 C 12.378906 22.609375 12.332031 22.617188 12.371094 22.679688 C 12.414062 22.738281 12.378906 22.726562 12.332031 22.738281 C 12.28125 22.753906 12.324219 22.710938 12.269531 22.707031 C 12.214844 22.699219 12.234375 22.648438 12.234375 22.648438 C 12.1875 22.617188 12.253906 22.582031 12.316406 22.59375 Z M 14.84375 21.554688 C 14.902344 21.554688 14.855469 21.589844 14.855469 21.589844 C 14.828125 21.597656 14.78125 21.554688 14.84375 21.554688 Z M 13.960938 21.472656 C 13.976562 21.460938 13.996094 21.46875 14.015625 21.492188 C 14.046875 21.539062 14.125 21.507812 14.136719 21.589844 C 14.152344 21.671875 14.1875 21.636719 14.234375 21.617188 C 14.28125 21.597656 14.394531 21.554688 14.371094 21.617188 C 14.351562 21.679688 14.367188 21.789062 14.433594 21.753906 C 14.503906 21.71875 14.460938 21.726562 14.539062 21.691406 C 14.613281 21.65625 14.675781 21.699219 14.640625 21.742188 C 14.605469 21.78125 14.613281 21.890625 14.613281 22.03125 C 14.613281 22.167969 14.710938 22.152344 14.703125 22.222656 C 14.695312 22.292969 14.71875 22.3125 14.730469 22.445312 C 14.746094 22.574219 14.792969 22.800781 14.691406 22.796875 C 14.585938 22.789062 14.558594 22.746094 14.457031 22.71875 C 14.351562 22.691406 14.304688 22.636719 14.359375 22.574219 C 14.414062 22.511719 14.457031 22.492188 14.449219 22.402344 C 14.441406 22.3125 14.402344 22.339844 14.402344 22.25 C 14.402344 22.160156 14.421875 22.066406 14.371094 22.015625 C 14.324219 21.96875 14.179688 21.890625 14.105469 21.890625 C 14.027344 21.890625 13.953125 21.921875 13.871094 21.949219 C 13.785156 21.976562 13.722656 21.96875 13.648438 22.007812 C 13.574219 22.050781 13.664062 22.183594 13.574219 22.152344 C 13.484375 22.125 13.484375 22.140625 13.421875 22.085938 C 13.359375 22.03125 13.351562 21.996094 13.3125 21.996094 C 13.269531 21.996094 13.3125 22.007812 13.199219 22.058594 C 13.089844 22.105469 13.105469 22.121094 13.046875 22.070312 C 12.992188 22.023438 13.007812 22.023438 12.972656 21.996094 C 12.9375 21.96875 12.71875 21.898438 12.820312 21.863281 C 12.925781 21.832031 12.925781 21.859375 12.925781 21.859375 C 12.925781 21.859375 13.035156 21.90625 13.109375 21.890625 C 13.1875 21.878906 13.171875 21.835938 13.226562 21.84375 C 13.28125 21.851562 13.304688 21.78125 13.316406 21.746094 C 13.332031 21.714844 13.398438 21.699219 13.539062 21.699219 C 13.675781 21.699219 13.691406 21.863281 13.820312 21.851562 C 13.953125 21.835938 14.070312 21.789062 14.046875 21.742188 C 14.027344 21.691406 13.925781 21.628906 13.929688 21.546875 C 13.933594 21.507812 13.945312 21.480469 13.960938 21.472656 Z M 14.855469 21.277344 C 14.910156 21.277344 14.871094 21.300781 14.910156 21.375 C 14.953125 21.453125 14.925781 21.402344 14.835938 21.425781 C 14.746094 21.445312 14.757812 21.382812 14.757812 21.382812 C 14.746094 21.355469 14.800781 21.277344 14.855469 21.277344 Z M 16.292969 20.929688 C 16.324219 20.929688 16.367188 20.933594 16.402344 20.933594 C 16.46875 20.933594 16.519531 20.960938 16.429688 21.03125 C 16.339844 21.101562 16.394531 21.03125 16.34375 21.191406 C 16.296875 21.347656 16.378906 21.238281 16.421875 21.335938 C 16.460938 21.429688 16.277344 21.394531 16.257812 21.335938 C 16.234375 21.273438 16.226562 21.238281 16.171875 21.222656 C 16.117188 21.210938 16.0625 21.238281 15.980469 21.167969 C 15.898438 21.101562 16.179688 21.046875 16.179688 21.046875 C 16.257812 21.023438 16.222656 21.023438 16.226562 20.96875 C 16.230469 20.941406 16.257812 20.933594 16.292969 20.929688 Z M 8.613281 20.609375 C 8.613281 20.609375 8.675781 20.652344 8.75 20.644531 C 8.828125 20.636719 8.957031 20.605469 8.929688 20.660156 C 8.902344 20.714844 8.867188 20.78125 8.804688 20.769531 C 8.746094 20.753906 8.75 20.734375 8.675781 20.722656 C 8.597656 20.707031 8.550781 20.644531 8.613281 20.609375 Z M 9.304688 20.460938 C 9.335938 20.460938 9.332031 20.476562 9.378906 20.488281 C 9.441406 20.5 9.453125 20.5 9.539062 20.5 C 9.621094 20.5 9.613281 20.480469 9.660156 20.5625 C 9.710938 20.644531 9.660156 20.597656 9.585938 20.636719 C 9.511719 20.679688 9.566406 20.679688 9.453125 20.679688 C 9.34375 20.679688 9.378906 20.652344 9.316406 20.644531 C 9.253906 20.636719 9.191406 20.605469 9.101562 20.617188 C 9.011719 20.632812 9.082031 20.550781 9.082031 20.550781 C 9.128906 20.527344 9.179688 20.480469 9.261719 20.464844 C 9.28125 20.460938 9.296875 20.460938 9.304688 20.460938 Z M 16.800781 20.390625 C 16.835938 20.402344 16.890625 20.453125 16.945312 20.5 C 17.042969 20.582031 17.015625 20.578125 17.078125 20.636719 C 17.140625 20.699219 17.160156 20.734375 17.105469 20.796875 C 17.050781 20.859375 17.097656 20.867188 17.160156 20.90625 C 17.222656 20.949219 17.304688 20.949219 17.394531 20.960938 C 17.484375 20.976562 17.441406 21.050781 17.46875 21.183594 C 17.496094 21.3125 17.449219 21.238281 17.351562 21.277344 C 17.257812 21.320312 17.257812 21.222656 17.222656 21.183594 C 17.1875 21.140625 17.140625 21.160156 17.042969 21.15625 C 16.945312 21.148438 16.945312 21.128906 16.945312 21.03125 C 16.945312 20.933594 16.855469 20.871094 16.855469 20.871094 C 16.910156 20.859375 16.871094 20.8125 16.773438 20.78125 C 16.675781 20.753906 16.699219 20.671875 16.773438 20.671875 C 16.847656 20.671875 16.808594 20.582031 16.808594 20.582031 C 16.808594 20.582031 16.816406 20.605469 16.78125 20.460938 C 16.773438 20.421875 16.773438 20.402344 16.777344 20.394531 C 16.78125 20.386719 16.792969 20.386719 16.800781 20.390625 Z M 8.257812 20.1875 C 8.273438 20.191406 8.289062 20.199219 8.332031 20.199219 C 8.414062 20.199219 8.421875 20.300781 8.332031 20.355469 C 8.242188 20.410156 8.183594 20.398438 8.125 20.398438 C 8.0625 20.398438 8.066406 20.417969 7.992188 20.433594 C 7.917969 20.445312 7.929688 20.472656 7.9375 20.554688 C 7.945312 20.636719 7.902344 20.589844 7.839844 20.632812 C 7.777344 20.671875 7.757812 20.636719 7.695312 20.632812 C 7.632812 20.625 7.523438 20.527344 7.488281 20.5625 C 7.453125 20.597656 7.449219 20.605469 7.351562 20.597656 C 7.253906 20.589844 7.351562 20.460938 7.351562 20.460938 C 7.332031 20.398438 7.40625 20.328125 7.523438 20.355469 C 7.640625 20.382812 7.65625 20.300781 7.738281 20.292969 C 7.820312 20.285156 7.917969 20.273438 7.984375 20.265625 C 8.054688 20.257812 8.066406 20.238281 8.171875 20.203125 C 8.222656 20.1875 8.242188 20.183594 8.257812 20.1875 Z M 18.484375 20.085938 C 18.515625 20.097656 18.554688 20.191406 18.582031 20.253906 C 18.613281 20.335938 18.519531 20.363281 18.429688 20.371094 C 18.339844 20.375 18.375 20.4375 18.441406 20.5 C 18.511719 20.5625 18.511719 20.589844 18.394531 20.644531 C 18.277344 20.699219 18.351562 20.554688 18.234375 20.535156 C 18.117188 20.515625 18.113281 20.488281 17.964844 20.5 C 17.820312 20.515625 17.925781 20.398438 17.925781 20.398438 C 17.933594 20.371094 17.953125 20.402344 18.027344 20.363281 C 18.105469 20.320312 18.132812 20.265625 18.230469 20.300781 C 18.324219 20.335938 18.339844 20.210938 18.378906 20.203125 C 18.421875 20.199219 18.421875 20.171875 18.457031 20.101562 C 18.464844 20.082031 18.476562 20.078125 18.484375 20.085938 Z M 19.125 19.945312 C 19.132812 19.941406 19.144531 19.941406 19.152344 19.949219 C 19.195312 19.976562 19.207031 20.074219 19.152344 20.09375 C 19.097656 20.113281 19.089844 20.023438 19.089844 20.023438 C 19.097656 19.996094 19.105469 19.953125 19.125 19.945312 Z M 18.972656 19.722656 L 19.035156 19.761719 C 18.9375 19.8125 18.972656 19.722656 18.972656 19.722656 Z M 19.214844 19.542969 C 19.269531 19.542969 19.230469 19.597656 19.230469 19.597656 C 19.167969 19.617188 19.160156 19.542969 19.214844 19.542969 Z M 19.304688 19.359375 C 19.3125 19.363281 19.320312 19.378906 19.332031 19.398438 C 19.351562 19.441406 19.296875 19.40625 19.296875 19.40625 C 19.292969 19.371094 19.296875 19.359375 19.304688 19.359375 Z M 19.351562 19.039062 C 19.363281 19.042969 19.375 19.105469 19.402344 19.128906 C 19.4375 19.164062 19.421875 19.21875 19.339844 19.265625 C 19.257812 19.316406 19.285156 19.273438 19.285156 19.273438 C 19.257812 19.246094 19.207031 19.136719 19.207031 19.136719 C 19.207031 19.136719 19.222656 19.136719 19.277344 19.136719 C 19.332031 19.136719 19.304688 19.121094 19.332031 19.0625 C 19.339844 19.046875 19.34375 19.039062 19.351562 19.039062 Z M 14.992188 18.765625 C 14.992188 18.765625 15.132812 18.867188 15.117188 18.945312 C 15.105469 19.019531 15.109375 19.027344 15.035156 18.984375 C 14.960938 18.945312 14.964844 18.929688 14.960938 18.859375 C 14.953125 18.792969 15.054688 18.800781 14.992188 18.765625 Z M 3.570312 18.625 C 3.660156 18.605469 3.703125 18.6875 3.648438 18.703125 C 3.589844 18.714844 3.578125 18.792969 3.523438 18.800781 C 3.46875 18.804688 3.46875 18.8125 3.417969 18.765625 C 3.371094 18.714844 3.414062 18.6875 3.414062 18.6875 L 3.460938 18.6875 C 3.460938 18.6875 3.480469 18.648438 3.570312 18.625 Z M 8.9375 18.191406 C 8.945312 18.191406 8.953125 18.234375 8.984375 18.273438 C 9.027344 18.332031 9.046875 18.269531 9.011719 18.332031 C 8.980469 18.390625 8.917969 18.363281 8.917969 18.308594 C 8.917969 18.253906 8.921875 18.207031 8.921875 18.207031 C 8.929688 18.195312 8.933594 18.191406 8.9375 18.191406 Z M 15.261719 17.722656 C 15.339844 17.71875 15.386719 17.800781 15.496094 17.917969 C 15.609375 18.035156 15.648438 17.894531 15.726562 17.890625 C 15.800781 17.882812 15.785156 17.894531 15.835938 17.855469 C 15.882812 17.8125 15.855469 17.835938 15.882812 17.890625 C 15.910156 17.945312 15.910156 17.964844 16.007812 18 C 16.105469 18.035156 16.167969 17.953125 16.144531 17.902344 C 16.125 17.855469 16.144531 17.773438 16.261719 17.835938 C 16.378906 17.894531 16.46875 17.875 16.539062 18 C 16.609375 18.125 16.648438 18.117188 16.726562 18.308594 C 16.800781 18.503906 16.621094 18.363281 16.59375 18.53125 C 16.566406 18.695312 16.503906 18.652344 16.414062 18.683594 C 16.324219 18.710938 16.351562 18.613281 16.367188 18.53125 C 16.378906 18.449219 16.375 18.390625 16.144531 18.289062 C 15.917969 18.1875 15.980469 18.152344 15.855469 18.179688 C 15.730469 18.207031 15.539062 18.261719 15.53125 18.152344 C 15.523438 18.042969 15.421875 18.109375 15.3125 18.074219 C 15.199219 18.042969 15.199219 17.828125 15.199219 17.828125 C 15.199219 17.773438 15.1875 17.730469 15.261719 17.722656 Z M 4.273438 17.628906 C 4.351562 17.613281 4.386719 17.691406 4.433594 17.765625 C 4.480469 17.839844 4.453125 17.945312 4.542969 17.992188 C 4.632812 18.042969 4.589844 18.128906 4.535156 18.152344 C 4.480469 18.171875 4.425781 18.191406 4.34375 18.199219 C 4.261719 18.207031 4.289062 18.191406 4.210938 18.160156 C 4.136719 18.125 4.246094 18.027344 4.246094 18.027344 C 4.261719 18.019531 4.246094 17.992188 4.246094 17.953125 C 4.246094 17.910156 4.261719 17.902344 4.183594 17.863281 C 4.109375 17.820312 4.128906 17.765625 4.179688 17.75 C 4.226562 17.738281 4.199219 17.640625 4.273438 17.628906 Z M 9.164062 17.609375 C 9.175781 17.609375 9.183594 17.617188 9.1875 17.628906 C 9.199219 17.675781 9.109375 17.664062 9.109375 17.664062 C 9.09375 17.636719 9.136719 17.601562 9.164062 17.609375 Z M 14.671875 17.523438 C 14.769531 17.53125 14.867188 17.546875 14.882812 17.578125 C 14.917969 17.648438 14.988281 17.578125 14.972656 17.65625 C 14.960938 17.730469 14.953125 17.691406 14.960938 17.710938 C 14.960938 17.710938 14.917969 17.820312 14.960938 17.863281 C 15 17.902344 15.027344 18.070312 15.089844 18.101562 C 15.152344 18.136719 15.296875 18.316406 15.144531 18.296875 C 14.992188 18.273438 14.953125 18.304688 14.898438 18.269531 C 14.84375 18.234375 14.773438 18.253906 14.695312 18.273438 C 14.621094 18.296875 14.621094 18.363281 14.574219 18.441406 C 14.523438 18.515625 14.484375 18.621094 14.59375 18.605469 C 14.703125 18.59375 14.863281 18.652344 14.765625 18.714844 C 14.667969 18.777344 14.730469 18.875 14.621094 18.832031 C 14.511719 18.792969 14.65625 18.984375 14.558594 19.074219 C 14.460938 19.164062 14.386719 19.136719 14.40625 19.074219 C 14.429688 19.011719 14.367188 19.011719 14.3125 19.027344 C 14.253906 19.039062 14.164062 19.101562 14.207031 19.179688 C 14.25 19.253906 14.34375 19.246094 14.242188 19.273438 C 14.136719 19.300781 14.152344 19.34375 14.097656 19.324219 C 14.042969 19.300781 13.957031 19.226562 13.917969 19.226562 C 13.875 19.226562 13.863281 19.246094 13.863281 19.246094 C 13.863281 19.246094 13.835938 19.378906 13.738281 19.351562 C 13.640625 19.324219 13.65625 19.335938 13.59375 19.300781 C 13.53125 19.265625 13.550781 19.199219 13.433594 19.171875 C 13.316406 19.144531 13.316406 19.136719 13.277344 19.136719 C 13.234375 19.136719 13.1875 19.054688 13.199219 19 C 13.214844 18.945312 13.082031 18.917969 13.132812 18.882812 C 13.179688 18.847656 13.054688 18.894531 13 18.832031 C 12.945312 18.769531 12.945312 18.710938 12.890625 18.703125 C 12.835938 18.695312 12.867188 18.757812 12.722656 18.742188 C 12.578125 18.730469 12.40625 18.800781 12.476562 18.894531 C 12.542969 18.992188 12.488281 19.03125 12.542969 19.0625 C 12.601562 19.089844 12.566406 19.179688 12.648438 19.21875 C 12.730469 19.261719 12.703125 19.308594 12.765625 19.308594 C 12.828125 19.308594 12.863281 19.480469 12.898438 19.472656 C 12.929688 19.46875 12.925781 19.585938 12.847656 19.589844 C 12.773438 19.597656 12.675781 19.660156 12.667969 19.597656 C 12.664062 19.535156 12.46875 19.585938 12.324219 19.585938 C 12.179688 19.585938 12.160156 19.617188 12.097656 19.5625 C 12.035156 19.507812 11.992188 19.507812 11.992188 19.570312 C 11.992188 19.632812 12.054688 19.796875 11.917969 19.832031 C 11.777344 19.867188 11.738281 20.128906 11.65625 20.140625 C 11.574219 20.15625 11.550781 20.15625 11.550781 20.15625 C 11.550781 20.15625 11.523438 20.199219 11.441406 20.191406 C 11.359375 20.183594 11.261719 20.101562 11.21875 20.140625 C 11.179688 20.183594 11.171875 20.253906 11.117188 20.300781 C 11.0625 20.347656 11.007812 20.347656 10.925781 20.355469 C 10.839844 20.363281 10.773438 20.5 10.710938 20.507812 C 10.648438 20.515625 10.453125 20.570312 10.316406 20.492188 C 10.179688 20.417969 10.234375 20.328125 10.160156 20.28125 C 10.082031 20.230469 9.972656 20.238281 9.882812 20.230469 C 9.792969 20.226562 9.660156 20.285156 9.605469 20.308594 C 9.550781 20.328125 9.449219 20.375 9.371094 20.347656 C 9.296875 20.320312 9.269531 20.285156 9.199219 20.285156 C 9.128906 20.285156 9.097656 20.320312 8.945312 20.308594 C 8.792969 20.292969 8.714844 20.253906 8.832031 20.21875 C 8.949219 20.183594 8.949219 20.183594 9.054688 20.109375 C 9.15625 20.03125 8.980469 20.21875 9.214844 20.058594 C 9.449219 19.902344 9.34375 19.96875 9.449219 19.941406 C 9.550781 19.914062 9.46875 19.878906 9.597656 19.914062 C 9.730469 19.949219 9.6875 19.992188 9.8125 19.949219 C 9.9375 19.90625 10.082031 19.867188 10.136719 19.804688 C 10.191406 19.742188 10.214844 19.769531 10.332031 19.523438 C 10.449219 19.273438 10.511719 19.148438 10.578125 19.121094 C 10.648438 19.09375 10.882812 18.949219 10.953125 18.886719 C 11.019531 18.828125 11.125 18.742188 11.0625 18.683594 C 11 18.621094 11.011719 18.621094 10.929688 18.605469 C 10.847656 18.59375 10.777344 18.632812 10.75 18.539062 C 10.722656 18.441406 10.660156 18.359375 10.777344 18.289062 C 10.894531 18.21875 10.902344 18.21875 10.925781 18.152344 C 10.945312 18.082031 10.992188 18.042969 11.054688 18.109375 C 11.117188 18.179688 11.234375 18.226562 11.28125 18.191406 C 11.332031 18.160156 11.371094 18.136719 11.351562 18.089844 C 11.332031 18.042969 11.441406 17.9375 11.308594 17.894531 C 11.179688 17.855469 11.191406 17.777344 11.277344 17.800781 C 11.359375 17.820312 11.414062 17.839844 11.460938 17.792969 C 11.511719 17.746094 11.566406 17.664062 11.640625 17.667969 C 11.71875 17.675781 11.785156 17.640625 11.808594 17.703125 C 11.828125 17.765625 11.890625 17.808594 12.007812 17.808594 C 12.125 17.808594 12.152344 17.792969 12.304688 17.808594 C 12.457031 17.820312 12.339844 17.867188 12.460938 17.863281 C 12.585938 17.855469 12.683594 17.855469 12.828125 17.882812 C 12.972656 17.910156 13.027344 17.855469 13.007812 17.820312 C 12.988281 17.785156 13.015625 17.71875 13.105469 17.710938 C 13.191406 17.703125 13.164062 17.757812 13.214844 17.773438 C 13.261719 17.785156 13.296875 17.875 13.371094 17.894531 C 13.449219 17.917969 13.546875 18 13.574219 17.957031 C 13.601562 17.917969 13.71875 17.953125 13.738281 17.910156 C 13.757812 17.867188 13.765625 17.765625 13.875 17.808594 C 13.988281 17.847656 13.953125 17.863281 14.046875 17.847656 C 14.144531 17.835938 14.261719 17.800781 14.28125 17.746094 C 14.304688 17.691406 14.402344 17.558594 14.449219 17.539062 C 14.472656 17.527344 14.574219 17.519531 14.671875 17.523438 Z M 7.191406 17.453125 C 7.210938 17.453125 7.230469 17.453125 7.261719 17.457031 C 7.378906 17.460938 7.566406 17.511719 7.703125 17.496094 C 7.839844 17.484375 7.980469 17.523438 8.066406 17.550781 C 8.15625 17.578125 8.164062 17.632812 8.234375 17.664062 C 8.304688 17.691406 8.304688 17.722656 8.273438 17.785156 C 8.246094 17.847656 8.207031 17.875 8.273438 17.890625 C 8.34375 17.902344 8.496094 17.882812 8.496094 18.027344 C 8.496094 18.171875 8.476562 18.308594 8.398438 18.28125 C 8.324219 18.253906 8.304688 18.246094 8.253906 18.179688 C 8.207031 18.109375 8.117188 18.101562 8.128906 18.152344 C 8.144531 18.199219 8.164062 18.351562 8.0625 18.351562 C 7.957031 18.351562 7.875 18.335938 7.832031 18.308594 C 7.792969 18.28125 7.660156 18.261719 7.566406 18.226562 C 7.46875 18.191406 7.453125 18.1875 7.417969 18.109375 C 7.386719 18.035156 7.417969 18 7.308594 18.007812 C 7.199219 18.011719 7.234375 18.027344 7.152344 18.125 C 7.066406 18.21875 7.019531 18.1875 6.976562 18.160156 C 6.9375 18.128906 6.964844 18.035156 6.847656 18.035156 C 6.730469 18.035156 6.730469 18.074219 6.683594 18.097656 C 6.632812 18.117188 6.21875 18.109375 6.207031 18.097656 C 6.207031 18.097656 6.039062 18.101562 6.101562 18 C 6.164062 17.894531 6.136719 17.953125 6.234375 17.9375 C 6.328125 17.925781 6.363281 17.957031 6.460938 17.917969 C 6.558594 17.875 6.523438 17.785156 6.648438 17.773438 C 6.769531 17.757812 6.777344 17.808594 6.800781 17.746094 C 6.820312 17.683594 6.800781 17.695312 6.945312 17.683594 C 7.089844 17.667969 6.917969 17.601562 7.035156 17.523438 C 7.121094 17.46875 7.140625 17.453125 7.191406 17.453125 Z M 8.613281 17.378906 C 8.683594 17.386719 8.667969 17.421875 8.765625 17.460938 C 8.863281 17.503906 8.820312 17.488281 8.890625 17.503906 C 8.957031 17.515625 8.980469 17.523438 9 17.566406 C 9.019531 17.605469 8.980469 17.691406 8.929688 17.691406 C 8.882812 17.691406 8.804688 17.640625 8.738281 17.640625 C 8.667969 17.640625 8.683594 17.675781 8.59375 17.691406 C 8.503906 17.703125 8.558594 17.628906 8.460938 17.621094 C 8.363281 17.613281 8.359375 17.539062 8.359375 17.539062 C 8.273438 17.53125 8.378906 17.457031 8.460938 17.449219 C 8.542969 17.441406 8.542969 17.371094 8.613281 17.378906 Z M 15.566406 17.316406 C 15.621094 17.324219 15.648438 17.332031 15.667969 17.433594 C 15.691406 17.539062 15.574219 17.40625 15.574219 17.40625 C 15.613281 17.367188 15.511719 17.3125 15.566406 17.316406 Z M 16.371094 17.292969 C 16.375 17.289062 16.378906 17.292969 16.386719 17.304688 C 16.414062 17.34375 16.332031 17.359375 16.332031 17.359375 C 16.347656 17.34375 16.355469 17.296875 16.371094 17.292969 Z M 17.261719 16.890625 C 17.339844 16.890625 17.347656 16.960938 17.269531 16.972656 C 17.195312 16.988281 17.140625 17.105469 17.023438 17.160156 C 16.90625 17.214844 16.945312 17.167969 16.757812 17.125 C 16.574219 17.082031 16.546875 17.097656 16.449219 17.089844 C 16.351562 17.082031 16.414062 17.027344 16.414062 17.027344 C 16.257812 16.980469 16.394531 16.972656 16.429688 16.964844 C 16.460938 16.960938 16.46875 16.933594 16.523438 16.964844 C 16.582031 17 16.683594 17.007812 16.746094 16.972656 C 16.808594 16.9375 16.882812 16.910156 16.9375 16.910156 C 16.992188 16.910156 17.097656 16.910156 17.152344 16.925781 C 17.207031 16.9375 17.1875 16.890625 17.261719 16.890625 Z M 19.050781 16.4375 C 19.117188 16.441406 19.125 16.441406 19.152344 16.441406 C 19.179688 16.441406 19.3125 16.449219 19.285156 16.511719 C 19.257812 16.574219 19.289062 16.574219 19.195312 16.558594 C 19.097656 16.546875 19.078125 16.546875 19.050781 16.609375 C 19.023438 16.671875 19.007812 16.65625 18.945312 16.648438 C 18.882812 16.640625 18.882812 16.582031 18.917969 16.558594 C 18.953125 16.539062 18.953125 16.53125 18.953125 16.519531 C 18.953125 16.519531 18.980469 16.429688 19.050781 16.4375 Z M 18.464844 16.304688 C 18.472656 16.304688 18.480469 16.3125 18.492188 16.324219 C 18.53125 16.378906 18.53125 16.402344 18.523438 16.378906 C 18.523438 16.378906 18.546875 16.402344 18.492188 16.441406 C 18.4375 16.484375 18.457031 16.441406 18.449219 16.386719 C 18.445312 16.359375 18.445312 16.332031 18.453125 16.316406 C 18.453125 16.308594 18.460938 16.304688 18.464844 16.304688 Z M 14.144531 15.980469 C 14.195312 15.972656 14.242188 15.980469 14.269531 16.113281 C 14.296875 16.242188 14.351562 16.230469 14.386719 16.285156 C 14.421875 16.339844 14.449219 16.386719 14.496094 16.3125 C 14.546875 16.234375 14.664062 16.261719 14.71875 16.292969 C 14.773438 16.320312 14.785156 16.339844 14.875 16.339844 C 14.964844 16.339844 14.988281 16.375 15.019531 16.484375 C 15.054688 16.59375 15.042969 16.738281 14.953125 16.757812 C 14.863281 16.78125 14.730469 16.898438 14.71875 16.980469 C 14.703125 17.0625 14.621094 17.027344 14.566406 17.042969 C 14.511719 17.054688 14.441406 16.855469 14.441406 16.855469 C 14.457031 16.847656 14.429688 16.746094 14.371094 16.753906 C 14.316406 16.757812 14.28125 16.65625 14.242188 16.703125 C 14.199219 16.753906 14.160156 16.703125 14.109375 16.675781 C 14.0625 16.648438 14.105469 16.496094 14.144531 16.429688 C 14.1875 16.359375 14.1875 16.394531 14.109375 16.367188 C 14.035156 16.339844 14.105469 16.25 14.054688 16.1875 C 14.007812 16.125 14.097656 15.988281 14.144531 15.980469 Z M 18.84375 15.90625 C 18.855469 15.898438 18.871094 15.910156 18.882812 15.945312 C 18.910156 16.023438 18.84375 15.953125 18.84375 15.953125 C 18.832031 15.933594 18.835938 15.914062 18.84375 15.90625 Z M 16.054688 15.90625 C 16.0625 15.910156 16.070312 15.917969 16.070312 15.941406 C 16.070312 16.023438 15.960938 16.042969 16.054688 16.089844 C 16.152344 16.140625 16.035156 16.152344 16.125 16.179688 C 16.214844 16.207031 16.277344 16.175781 16.269531 16.234375 C 16.261719 16.296875 16.152344 16.464844 16.136719 16.59375 C 16.125 16.726562 16.054688 16.847656 16.152344 16.945312 C 16.152344 16.945312 16.269531 17.097656 16.269531 17.132812 C 16.269531 17.167969 16.257812 17.195312 16.257812 17.195312 C 16.257812 17.195312 16.261719 17.242188 16.199219 17.226562 C 16.136719 17.214844 16.152344 17.332031 16.054688 17.324219 C 15.960938 17.316406 16 17.476562 15.9375 17.457031 C 15.875 17.433594 15.871094 17.429688 15.871094 17.429688 C 15.871094 17.429688 15.808594 17.398438 15.78125 17.316406 C 15.753906 17.234375 15.738281 17.054688 15.808594 17.0625 C 15.875 17.070312 16.007812 17.070312 15.972656 16.972656 C 15.9375 16.875 15.835938 16.863281 15.898438 16.78125 C 15.960938 16.699219 15.953125 16.601562 15.863281 16.558594 C 15.773438 16.519531 15.820312 16.464844 15.847656 16.347656 C 15.875 16.230469 15.84375 16.214844 15.800781 16.132812 C 15.757812 16.050781 15.847656 15.90625 15.910156 15.925781 C 15.957031 15.941406 16.023438 15.894531 16.054688 15.90625 Z M 19.070312 15.890625 C 19.105469 15.886719 19.148438 15.902344 19.160156 15.925781 C 19.179688 15.972656 19.167969 16.027344 19.117188 16.050781 C 19.070312 16.070312 19.015625 15.960938 19.015625 15.960938 C 19 15.914062 19.03125 15.890625 19.070312 15.890625 Z M 21.199219 15.410156 C 21.226562 15.410156 21.253906 15.410156 21.28125 15.417969 C 21.335938 15.429688 21.398438 15.453125 21.457031 15.472656 C 21.574219 15.503906 21.648438 15.707031 21.753906 15.753906 C 21.855469 15.800781 21.933594 15.789062 21.972656 15.71875 C 22.015625 15.648438 22.03125 15.644531 22.089844 15.664062 C 22.152344 15.683594 22.148438 15.773438 22.140625 15.835938 C 22.132812 15.898438 22.132812 15.917969 22.070312 15.96875 C 22.007812 16.015625 22.023438 16.058594 22.105469 16.070312 C 22.1875 16.085938 22.269531 16.050781 22.324219 16.007812 C 22.382812 15.96875 22.492188 16.023438 22.546875 16.050781 C 22.601562 16.078125 22.65625 16.015625 22.679688 15.988281 C 22.699219 15.960938 22.691406 15.914062 22.800781 15.925781 C 22.914062 15.941406 23.023438 15.972656 23.050781 15.945312 C 23.078125 15.917969 23.113281 15.835938 23.070312 15.789062 C 23.03125 15.738281 23.050781 15.601562 23.105469 15.59375 C 23.160156 15.589844 23.332031 15.457031 23.386719 15.476562 C 23.445312 15.5 23.472656 15.59375 23.410156 15.679688 C 23.347656 15.761719 23.414062 15.78125 23.53125 15.773438 C 23.648438 15.765625 23.683594 15.699219 23.738281 15.628906 C 23.796875 15.5625 23.980469 15.554688 24.042969 15.582031 C 24.105469 15.609375 24.121094 15.503906 24.160156 15.511719 C 24.203125 15.519531 24.410156 15.484375 24.476562 15.472656 C 24.546875 15.457031 24.566406 15.566406 24.484375 15.589844 C 24.402344 15.609375 24.242188 15.734375 24.121094 15.816406 C 23.996094 15.898438 23.917969 15.871094 23.824219 15.90625 C 23.726562 15.941406 23.5 15.914062 23.347656 15.933594 C 23.195312 15.953125 23.214844 15.96875 23.140625 16.007812 C 23.0625 16.050781 23.121094 16.125 23.125 16.207031 C 23.132812 16.292969 23.089844 16.25 22.953125 16.304688 C 22.816406 16.359375 22.882812 16.410156 22.789062 16.421875 C 22.691406 16.4375 22.636719 16.332031 22.519531 16.375 C 22.402344 16.414062 22.519531 16.339844 22.332031 16.386719 C 22.148438 16.4375 22.242188 16.351562 22.132812 16.324219 C 22.023438 16.296875 21.972656 16.285156 21.828125 16.277344 C 21.683594 16.269531 21.816406 16.351562 21.753906 16.414062 C 21.691406 16.476562 21.792969 16.613281 21.738281 16.640625 C 21.683594 16.671875 21.746094 16.773438 21.773438 16.835938 C 21.800781 16.898438 21.835938 16.917969 21.851562 16.992188 C 21.863281 17.070312 21.773438 17.105469 21.734375 17.070312 C 21.691406 17.035156 21.582031 16.953125 21.476562 17.015625 C 21.375 17.078125 21.359375 17.027344 21.257812 17.027344 C 21.152344 17.027344 21.050781 17.019531 20.871094 17.078125 C 20.691406 17.132812 20.648438 17.351562 20.59375 17.351562 C 20.539062 17.351562 20.511719 17.460938 20.402344 17.46875 C 20.292969 17.476562 20.394531 17.476562 20.296875 17.546875 C 20.203125 17.613281 20.175781 17.71875 20.203125 17.820312 C 20.230469 17.925781 20.214844 18.042969 20.230469 18.1875 C 20.242188 18.332031 20.234375 18.378906 20.3125 18.414062 C 20.386719 18.449219 20.410156 18.578125 20.347656 18.59375 C 20.285156 18.605469 20.035156 18.632812 19.871094 18.632812 C 19.703125 18.632812 19.691406 18.675781 19.609375 18.785156 C 19.527344 18.894531 19.519531 18.785156 19.496094 18.730469 C 19.476562 18.675781 19.496094 18.515625 19.546875 18.46875 C 19.59375 18.421875 19.574219 18.164062 19.574219 18.164062 C 19.574219 18.164062 19.585938 18.042969 19.636719 18.019531 C 19.683594 18 19.726562 17.902344 19.773438 17.867188 C 19.820312 17.835938 19.925781 17.539062 19.703125 17.53125 C 19.484375 17.523438 19.683594 17.515625 19.671875 17.433594 C 19.65625 17.351562 19.800781 17.3125 19.863281 17.316406 C 19.925781 17.324219 19.9375 17.339844 20.023438 17.371094 C 20.105469 17.40625 20.144531 17.433594 20.125 17.371094 C 20.105469 17.3125 20.1875 17.304688 20.175781 17.242188 C 20.160156 17.179688 20.242188 17.199219 20.351562 17.226562 C 20.464844 17.253906 20.574219 17.132812 20.617188 17.082031 C 20.65625 17.035156 20.792969 16.792969 20.800781 16.710938 C 20.808594 16.628906 20.828125 16.492188 20.761719 16.449219 C 20.691406 16.410156 20.765625 16.296875 20.792969 16.269531 C 20.820312 16.242188 20.84375 16.175781 20.816406 16.070312 C 20.789062 15.96875 20.882812 15.890625 20.898438 15.816406 C 20.910156 15.738281 20.792969 15.691406 20.699219 15.566406 C 20.601562 15.445312 20.96875 15.539062 20.960938 15.476562 C 20.953125 15.417969 21.035156 15.5 21.125 15.4375 C 21.148438 15.421875 21.171875 15.414062 21.199219 15.410156 Z M 20.640625 15.359375 C 20.644531 15.363281 20.648438 15.367188 20.648438 15.382812 C 20.648438 15.4375 20.554688 15.449219 20.585938 15.386719 C 20.585938 15.386719 20.601562 15.375 20.617188 15.363281 C 20.625 15.359375 20.632812 15.359375 20.640625 15.359375 Z M 20.085938 15.269531 C 20.117188 15.285156 20.085938 15.328125 20.085938 15.328125 C 20.027344 15.328125 20.050781 15.257812 20.085938 15.269531 Z M 20.304688 15.265625 C 20.316406 15.269531 20.320312 15.285156 20.304688 15.300781 C 20.304688 15.300781 20.222656 15.328125 20.257812 15.285156 C 20.273438 15.265625 20.292969 15.261719 20.304688 15.265625 Z M 23.097656 15.105469 C 23.1875 15.105469 23.160156 15.148438 23.1875 15.1875 C 23.214844 15.230469 23.0625 15.242188 23.007812 15.269531 C 22.953125 15.300781 22.980469 15.203125 22.980469 15.203125 C 23.015625 15.1875 23.007812 15.105469 23.097656 15.105469 Z M 22.378906 15.0625 C 22.386719 15.0625 22.394531 15.066406 22.402344 15.070312 C 22.421875 15.082031 22.453125 15.105469 22.519531 15.121094 C 22.648438 15.148438 22.617188 15.097656 22.617188 15.140625 C 22.617188 15.183594 22.707031 15.265625 22.746094 15.292969 C 22.789062 15.320312 22.808594 15.292969 22.898438 15.359375 C 22.988281 15.429688 22.917969 15.421875 22.871094 15.492188 C 22.824219 15.5625 22.65625 15.503906 22.59375 15.527344 C 22.53125 15.546875 22.511719 15.472656 22.5 15.375 C 22.484375 15.277344 22.382812 15.210938 22.382812 15.210938 C 22.3125 15.1875 22.3125 15.140625 22.355469 15.085938 C 22.363281 15.070312 22.371094 15.066406 22.378906 15.0625 Z M 21.675781 15.03125 C 21.753906 15.023438 21.710938 15.132812 21.648438 15.175781 C 21.589844 15.214844 21.59375 15.300781 21.554688 15.300781 C 21.511719 15.300781 21.53125 15.382812 21.464844 15.375 C 21.394531 15.367188 21.320312 15.222656 21.320312 15.222656 C 21.304688 15.195312 21.304688 15.160156 21.402344 15.15625 C 21.5 15.148438 21.464844 15.140625 21.503906 15.105469 C 21.546875 15.070312 21.601562 15.039062 21.675781 15.03125 Z M 23.101562 14.371094 C 23.113281 14.375 23.128906 14.382812 23.148438 14.394531 C 23.222656 14.457031 23.292969 14.484375 23.160156 14.527344 C 23.03125 14.570312 23.125 14.601562 23.050781 14.609375 C 22.972656 14.617188 22.96875 14.597656 22.878906 14.597656 C 22.789062 14.597656 22.851562 14.519531 22.851562 14.519531 C 22.828125 14.472656 22.863281 14.472656 22.917969 14.464844 C 22.972656 14.457031 22.960938 14.429688 23.015625 14.417969 C 23.042969 14.410156 23.058594 14.390625 23.074219 14.378906 C 23.082031 14.371094 23.089844 14.371094 23.101562 14.371094 Z M 22.140625 5.875 C 22.152344 5.875 22.160156 5.882812 22.160156 5.90625 C 22.160156 5.957031 22.105469 5.90625 22.105469 5.90625 C 22.117188 5.886719 22.128906 5.875 22.140625 5.875 Z M 21.996094 5.515625 C 21.835938 5.523438 21.761719 5.542969 21.773438 5.613281 C 21.789062 5.679688 21.746094 5.660156 21.675781 5.671875 C 21.609375 5.6875 21.65625 5.722656 21.546875 5.722656 C 21.4375 5.722656 21.402344 5.726562 21.402344 5.761719 C 21.402344 5.761719 21.386719 5.933594 21.59375 5.933594 C 21.800781 5.933594 21.945312 5.914062 21.945312 5.960938 C 21.945312 6.011719 21.925781 6.011719 22.105469 5.996094 C 22.285156 5.984375 22.265625 5.996094 22.386719 6.011719 C 22.511719 6.023438 22.472656 6.082031 22.59375 6.09375 C 22.71875 6.109375 22.792969 6.164062 22.851562 6.171875 C 22.90625 6.175781 22.941406 6.191406 23.078125 6.222656 C 23.214844 6.257812 23.402344 6.210938 23.472656 6.15625 C 23.539062 6.101562 23.644531 5.894531 23.539062 5.96875 C 23.4375 6.046875 23.457031 6.121094 23.332031 6.113281 C 23.207031 6.109375 23.121094 6.105469 23.160156 6.03125 C 23.203125 5.957031 23.242188 5.929688 23.339844 5.914062 C 23.4375 5.902344 23.484375 5.742188 23.429688 5.6875 C 23.375 5.632812 23.382812 5.730469 23.257812 5.632812 C 23.132812 5.535156 23.214844 5.527344 23.097656 5.527344 C 22.980469 5.527344 22.863281 5.617188 22.925781 5.679688 C 22.988281 5.742188 23.023438 5.761719 23.035156 5.839844 C 23.050781 5.914062 22.933594 5.984375 22.863281 5.902344 C 22.796875 5.820312 22.761719 5.6875 22.679688 5.652344 C 22.59375 5.617188 22.53125 5.625 22.539062 5.671875 C 22.546875 5.722656 22.601562 5.75 22.621094 5.824219 C 22.644531 5.902344 22.582031 5.90625 22.519531 5.875 C 22.457031 5.839844 22.296875 5.851562 22.277344 5.816406 C 22.257812 5.785156 22.257812 5.667969 22.203125 5.632812 C 22.144531 5.597656 22.152344 5.507812 21.996094 5.515625 Z M 24.03125 5.226562 C 24.089844 5.222656 24.164062 5.230469 24.257812 5.230469 C 24.445312 5.230469 24.355469 5.273438 24.457031 5.289062 C 24.5625 5.300781 24.59375 5.320312 24.625 5.375 C 24.652344 5.433594 24.683594 5.410156 24.683594 5.410156 C 24.683594 5.410156 24.726562 5.410156 24.796875 5.425781 C 24.863281 5.4375 24.859375 5.472656 24.921875 5.554688 C 24.980469 5.640625 24.988281 5.597656 25.085938 5.625 C 25.183594 5.652344 25.242188 5.753906 25.3125 5.8125 C 25.382812 5.867188 25.421875 5.960938 25.503906 5.984375 C 25.589844 6.003906 25.753906 6.167969 25.808594 6.230469 C 25.863281 6.292969 26.058594 6.582031 26.132812 6.652344 C 26.207031 6.722656 26.449219 7.050781 26.519531 7.105469 C 26.589844 7.160156 26.589844 7.242188 26.59375 7.304688 C 26.601562 7.367188 26.574219 7.472656 26.582031 7.59375 C 26.589844 7.71875 26.484375 7.691406 26.429688 7.71875 C 26.375 7.746094 26.195312 7.710938 26.140625 7.644531 C 26.085938 7.574219 25.894531 7.320312 25.816406 7.285156 C 25.742188 7.25 25.644531 7.203125 25.636719 7.148438 C 25.628906 7.09375 25.742188 7.132812 25.800781 7.160156 C 25.863281 7.1875 25.953125 7.257812 26.011719 7.332031 C 26.066406 7.410156 26.132812 7.375 26.160156 7.3125 C 26.1875 7.25 26.265625 7.328125 26.320312 7.355469 C 26.375 7.382812 26.4375 7.3125 26.449219 7.238281 C 26.464844 7.160156 26.355469 7.175781 26.347656 7.078125 C 26.339844 6.984375 26.230469 7.015625 26.214844 7.070312 C 26.203125 7.128906 26.121094 7.183594 26.050781 7.195312 C 25.980469 7.210938 25.980469 7.113281 25.90625 7.058594 C 25.832031 7.003906 25.796875 6.996094 25.691406 6.988281 C 25.589844 6.984375 25.597656 7.042969 25.480469 7.042969 C 25.363281 7.042969 25.386719 6.941406 25.3125 6.949219 C 25.238281 6.953125 25.230469 6.90625 25.09375 6.871094 C 24.953125 6.835938 24.953125 6.816406 24.941406 6.722656 C 24.925781 6.625 24.773438 6.652344 24.625 6.597656 C 24.472656 6.542969 24.117188 6.519531 23.890625 6.492188 C 23.664062 6.464844 23.648438 6.492188 23.367188 6.464844 C 23.085938 6.4375 23.097656 6.355469 22.933594 6.328125 C 22.765625 6.300781 22.636719 6.300781 22.402344 6.230469 C 22.167969 6.164062 22.238281 6.140625 22.167969 6.136719 C 22.097656 6.128906 22.03125 6.257812 21.96875 6.222656 C 21.90625 6.191406 21.824219 6.101562 21.734375 6.09375 C 21.644531 6.085938 21.554688 6.175781 21.484375 6.191406 C 21.414062 6.203125 21.394531 6.15625 21.332031 6.066406 C 21.269531 5.976562 21.035156 5.8125 21.035156 5.8125 C 21.03125 5.761719 20.90625 5.722656 20.84375 5.613281 C 20.78125 5.5 20.78125 5.398438 20.960938 5.390625 C 21.140625 5.382812 21.207031 5.40625 21.222656 5.363281 C 21.238281 5.320312 21.382812 5.316406 21.414062 5.363281 C 21.449219 5.410156 21.601562 5.40625 21.628906 5.316406 C 21.65625 5.226562 21.820312 5.273438 21.933594 5.265625 C 22.042969 5.261719 22.195312 5.292969 22.242188 5.292969 C 22.292969 5.292969 22.417969 5.328125 22.503906 5.382812 C 22.59375 5.4375 22.710938 5.445312 22.734375 5.410156 C 22.753906 5.378906 22.800781 5.398438 22.851562 5.410156 C 22.898438 5.425781 23.097656 5.453125 23.152344 5.46875 C 23.210938 5.480469 23.449219 5.453125 23.554688 5.46875 C 23.65625 5.480469 23.863281 5.363281 23.910156 5.28125 C 23.9375 5.238281 23.976562 5.226562 24.03125 5.226562 Z M 24.03125 5.226562 " fill-opacity="1" fill-rule="evenodd"/></g></svg>