<svg xmlns="http://www.w3.org/2000/svg" xmlns:xlink="http://www.w3.org/1999/xlink" width="40" zoomAndPan="magnify" viewBox="0 0 30 30.000001" height="40" preserveAspectRatio="xMidYMid meet" version="1.0"><defs><clipPath id="f19f886964"><path d="M 3.386719 10.566406 L 26.613281 10.566406 L 26.613281 18.550781 L 3.386719 18.550781 Z M 3.386719 10.566406 " clip-rule="nonzero"/></clipPath></defs><g clip-path="url(#f19f886964)"><path fill="#014d4e" d="M 26.554688 12.433594 C 26.519531 12.402344 26.4375 12.398438 26.394531 12.394531 C 26.3125 12.394531 26.28125 12.382812 26.222656 12.320312 C 26.160156 12.253906 26.140625 12.21875 26.039062 12.210938 C 25.949219 12.207031 25.859375 12.179688 25.773438 12.1875 C 25.699219 12.191406 25.613281 12.21875 25.542969 12.1875 C 25.496094 12.15625 25.457031 12.097656 25.410156 12.070312 C 25.375 12.089844 25.351562 12.164062 25.335938 12.234375 C 25.289062 12.253906 25.226562 12.273438 25.191406 12.289062 C 25.132812 12.289062 25.03125 12.339844 24.972656 12.359375 C 24.878906 12.390625 24.839844 12.496094 24.742188 12.511719 C 24.710938 12.46875 24.582031 12.449219 24.527344 12.4375 C 24.480469 12.429688 24.464844 12.433594 24.421875 12.449219 C 24.355469 12.46875 24.390625 12.457031 24.324219 12.4375 C 24.199219 12.394531 24.234375 12.496094 24.167969 12.558594 C 24.09375 12.617188 23.972656 12.5625 23.890625 12.550781 C 23.804688 12.535156 23.648438 12.5 23.578125 12.441406 C 23.503906 12.382812 23.527344 12.25 23.457031 12.199219 C 23.402344 12.167969 23.398438 12.214844 23.34375 12.214844 C 23.296875 12.214844 23.242188 12.171875 23.195312 12.164062 C 23.058594 12.136719 22.960938 12.238281 22.832031 12.246094 C 22.675781 12.253906 22.507812 12.257812 22.355469 12.25 C 22.207031 12.238281 22.105469 12.109375 22.050781 12.308594 C 21.992188 12.3125 21.921875 12.320312 21.867188 12.3125 C 21.816406 12.308594 21.78125 12.273438 21.738281 12.265625 C 21.671875 12.25 21.589844 12.257812 21.550781 12.316406 C 21.523438 12.289062 21.488281 12.265625 21.441406 12.257812 C 21.394531 12.253906 21.34375 12.277344 21.300781 12.265625 C 21.261719 12.253906 21.210938 12.226562 21.179688 12.207031 C 21.097656 12.167969 21.046875 12.109375 20.960938 12.089844 C 20.84375 12.070312 20.714844 12.074219 20.601562 12.046875 C 20.546875 12.03125 20.492188 11.945312 20.4375 11.949219 C 20.328125 11.960938 20.34375 12.109375 20.289062 12.164062 C 20.230469 12.214844 20.121094 12.171875 20.046875 12.171875 C 19.984375 12.171875 19.828125 12.144531 19.78125 12.171875 C 19.699219 12.214844 19.792969 12.277344 19.679688 12.28125 C 19.621094 12.28125 19.539062 12.265625 19.480469 12.257812 C 19.488281 12.171875 19.4375 12.113281 19.347656 12.132812 C 19.308594 12.136719 19.238281 12.171875 19.210938 12.195312 C 19.191406 12.214844 19.214844 12.246094 19.1875 12.257812 C 19.15625 12.277344 19.042969 12.253906 19.007812 12.246094 C 18.917969 12.230469 18.859375 12.195312 18.761719 12.207031 C 18.714844 12.214844 18.597656 12.230469 18.582031 12.296875 C 18.566406 12.355469 18.648438 12.382812 18.601562 12.4375 C 18.578125 12.460938 18.5 12.484375 18.472656 12.511719 C 18.429688 12.542969 18.410156 12.597656 18.363281 12.632812 C 18.269531 12.703125 18.136719 12.625 18.039062 12.695312 C 18.070312 12.757812 18.214844 12.765625 18.277344 12.765625 C 18.328125 12.765625 18.371094 12.746094 18.417969 12.746094 C 18.492188 12.742188 18.480469 12.765625 18.53125 12.789062 C 18.582031 12.820312 18.683594 12.800781 18.722656 12.859375 C 18.777344 12.9375 18.664062 12.972656 18.605469 12.984375 C 18.464844 13.011719 18.316406 12.9375 18.171875 12.9375 C 18.140625 12.9375 18.085938 12.925781 18.054688 12.945312 C 18.027344 12.964844 18.035156 13.007812 18.015625 13.039062 C 17.945312 13.148438 17.929688 12.984375 17.855469 12.964844 C 17.820312 12.957031 17.792969 12.992188 17.761719 13.007812 C 17.726562 13.023438 17.683594 13.011719 17.644531 13.023438 C 17.582031 13.039062 17.558594 13.066406 17.550781 13.128906 C 17.523438 13.171875 17.5 13.214844 17.464844 13.253906 C 17.414062 13.207031 17.375 13.175781 17.304688 13.152344 C 17.257812 13.132812 17.195312 13.085938 17.140625 13.089844 C 17.070312 13.09375 17.027344 13.183594 16.972656 13.210938 C 16.855469 13.277344 16.746094 13.242188 16.652344 13.15625 C 16.601562 13.105469 16.546875 13.050781 16.5 12.988281 C 16.464844 12.945312 16.421875 12.859375 16.363281 12.828125 C 16.316406 12.804688 16.261719 12.828125 16.207031 12.824219 C 16.144531 12.816406 16.09375 12.785156 16.039062 12.753906 C 15.914062 12.667969 15.835938 12.535156 15.753906 12.410156 C 15.652344 12.25 15.570312 12.207031 15.394531 12.15625 C 15.300781 12.132812 15.15625 12.046875 15.082031 11.984375 C 14.894531 11.820312 14.792969 11.574219 14.679688 11.359375 C 14.640625 11.289062 14.566406 11.261719 14.507812 11.21875 C 14.4375 11.171875 14.328125 11.09375 14.273438 11.03125 C 14.203125 10.9375 14.097656 10.578125 13.941406 10.628906 C 13.792969 10.683594 13.855469 10.867188 13.820312 10.976562 C 13.804688 11.035156 13.761719 11.078125 13.746094 11.136719 C 13.734375 11.179688 13.738281 11.238281 13.734375 11.289062 C 13.699219 11.496094 13.601562 11.257812 13.550781 11.191406 C 13.453125 11.214844 13.371094 11.355469 13.335938 11.441406 C 13.324219 11.476562 13.296875 11.539062 13.277344 11.585938 C 13.265625 11.535156 13.25 11.476562 13.25 11.417969 C 13.25 11.359375 13.25 11.300781 13.25 11.242188 C 13.246094 11.1875 13.222656 11.160156 13.207031 11.109375 C 13.183594 11.011719 13.277344 10.957031 13.292969 10.863281 C 13.3125 10.726562 13.152344 10.765625 13.066406 10.769531 C 12.929688 10.773438 12.796875 10.769531 12.664062 10.800781 C 12.5625 10.824219 12.457031 10.835938 12.375 10.78125 C 12.292969 10.726562 12.238281 10.679688 12.136719 10.660156 C 12.015625 10.640625 11.914062 10.644531 11.792969 10.652344 C 11.679688 10.664062 11.542969 10.601562 11.425781 10.625 C 11.335938 10.644531 11.273438 10.722656 11.175781 10.746094 C 11.074219 10.773438 10.988281 10.824219 10.886719 10.855469 C 10.773438 10.894531 10.667969 10.933594 10.5625 10.972656 C 10.476562 11 10.449219 10.957031 10.363281 10.9375 C 10.304688 10.929688 10.222656 10.914062 10.160156 10.925781 C 10.019531 10.9375 9.917969 11.066406 9.859375 11.179688 C 9.785156 11.335938 9.71875 11.441406 9.570312 11.535156 C 9.507812 11.574219 9.441406 11.601562 9.378906 11.640625 C 9.320312 11.675781 9.277344 11.730469 9.214844 11.757812 C 9.199219 11.765625 9.183594 11.777344 9.164062 11.789062 C 8.832031 11.929688 8.46875 11.992188 8.125 12.09375 C 8.019531 12.128906 7.902344 12.074219 7.792969 12.074219 C 7.675781 12.074219 7.570312 12.050781 7.460938 12.023438 C 7.375 11.996094 7.285156 11.949219 7.195312 11.945312 C 7.101562 11.941406 6.992188 11.960938 6.890625 11.941406 C 6.765625 11.921875 6.640625 11.871094 6.519531 11.84375 C 6.378906 11.808594 6.253906 11.730469 6.117188 11.699219 C 5.925781 11.648438 5.75 11.539062 5.546875 11.515625 C 5.5 11.507812 5.441406 11.5 5.402344 11.535156 C 5.382812 11.554688 5.378906 11.597656 5.363281 11.605469 C 5.3125 11.640625 5.199219 11.625 5.136719 11.636719 C 5 11.65625 4.882812 11.722656 4.867188 11.867188 C 4.863281 11.910156 4.894531 11.988281 4.863281 12.023438 C 4.835938 12.046875 4.769531 12.03125 4.742188 12.03125 C 4.550781 12.042969 4.402344 12.214844 4.324219 12.375 C 4.285156 12.457031 4.277344 12.542969 4.253906 12.632812 C 4.234375 12.707031 4.191406 12.796875 4.203125 12.878906 C 4.210938 12.941406 4.261719 13 4.222656 13.0625 C 4.210938 13.085938 4.152344 13.113281 4.125 13.132812 C 4.050781 13.1875 3.996094 13.234375 4.015625 13.332031 C 4.039062 13.457031 4.097656 13.574219 4.136719 13.695312 C 4.175781 13.8125 4.242188 13.90625 4.28125 14.019531 C 4.324219 14.140625 4.367188 14.246094 4.425781 14.355469 C 4.527344 14.550781 4.550781 14.753906 4.597656 14.964844 C 4.609375 15.054688 4.601562 15.148438 4.621094 15.230469 C 4.632812 15.308594 4.683594 15.382812 4.707031 15.453125 C 4.722656 15.484375 4.75 15.554688 4.769531 15.605469 C 4.769531 15.613281 4.769531 15.625 4.769531 15.628906 C 4.734375 15.808594 4.710938 15.992188 4.6875 16.171875 C 4.671875 16.277344 4.648438 16.394531 4.601562 16.488281 C 4.546875 16.601562 4.460938 16.695312 4.402344 16.808594 C 4.34375 16.917969 4.300781 17.035156 4.210938 17.121094 C 4.109375 17.21875 4.011719 17.316406 3.917969 17.433594 C 3.765625 17.621094 3.625 17.832031 3.453125 18.007812 C 3.429688 18.03125 3.386719 18.070312 3.390625 18.105469 C 3.398438 18.144531 3.480469 18.199219 3.507812 18.226562 C 3.574219 18.289062 3.644531 18.414062 3.71875 18.453125 C 3.910156 18.171875 4.242188 17.964844 4.503906 17.757812 C 4.625 17.660156 4.722656 17.640625 4.871094 17.664062 C 4.992188 17.6875 5.179688 17.765625 5.296875 17.71875 C 5.355469 17.691406 5.386719 17.65625 5.453125 17.644531 C 5.523438 17.636719 5.605469 17.648438 5.679688 17.640625 C 5.878906 17.617188 6.046875 17.601562 6.238281 17.617188 C 6.335938 17.625 6.4375 17.605469 6.539062 17.601562 C 6.664062 17.597656 6.769531 17.554688 6.890625 17.535156 C 7 17.515625 7.085938 17.542969 7.191406 17.554688 C 7.285156 17.5625 7.410156 17.546875 7.488281 17.601562 C 7.570312 17.65625 7.59375 17.765625 7.679688 17.824219 C 7.734375 17.859375 7.765625 17.875 7.796875 17.945312 C 7.8125 17.972656 7.8125 18.046875 7.835938 18.066406 C 7.894531 18.105469 8.078125 17.921875 8.167969 17.808594 C 8.261719 17.789062 8.355469 17.765625 8.4375 17.726562 C 8.496094 17.699219 8.546875 17.660156 8.605469 17.636719 C 8.730469 17.582031 8.855469 17.5625 8.976562 17.523438 C 9.113281 17.480469 9.242188 17.425781 9.371094 17.371094 C 9.511719 17.304688 9.664062 17.210938 9.816406 17.203125 C 10.023438 17.195312 10.175781 17.152344 10.355469 17.046875 C 10.507812 16.953125 10.726562 16.96875 10.898438 16.957031 C 11.058594 16.949219 11.21875 16.925781 11.375 16.9375 C 11.445312 16.945312 11.503906 16.957031 11.558594 16.910156 C 11.609375 16.863281 11.628906 16.792969 11.710938 16.792969 C 11.792969 16.792969 11.847656 16.867188 11.910156 16.890625 C 11.945312 16.90625 11.972656 16.894531 12.011719 16.90625 C 12.050781 16.917969 12.058594 16.949219 12.089844 16.96875 C 12.144531 16.996094 12.238281 16.984375 12.316406 17 C 12.320312 17 12.320312 17 12.328125 17 C 12.363281 17.035156 12.402344 17.074219 12.4375 17.117188 C 12.457031 17.140625 12.472656 17.175781 12.496094 17.195312 C 12.542969 17.230469 12.621094 17.242188 12.675781 17.273438 C 12.703125 17.292969 12.742188 17.316406 12.769531 17.339844 C 12.789062 17.355469 12.835938 17.425781 12.851562 17.425781 C 12.910156 17.433594 12.898438 17.292969 12.890625 17.253906 C 12.882812 17.09375 12.835938 16.972656 12.765625 16.832031 C 12.734375 16.765625 12.707031 16.695312 12.6875 16.625 C 12.667969 16.5625 12.632812 16.417969 12.738281 16.511719 C 12.824219 16.59375 12.859375 16.726562 12.9375 16.808594 C 13.023438 16.898438 13.066406 16.96875 13.144531 16.832031 C 13.195312 16.742188 13.234375 16.652344 13.367188 16.683594 C 13.441406 16.703125 13.542969 16.742188 13.597656 16.792969 C 13.652344 16.847656 13.746094 17.074219 13.777344 16.890625 C 13.785156 16.832031 13.773438 16.792969 13.796875 16.742188 C 13.8125 16.707031 13.84375 16.644531 13.875 16.621094 C 13.929688 16.566406 13.921875 16.609375 13.984375 16.613281 C 14.039062 16.621094 14.070312 16.589844 14.109375 16.570312 C 14.25 16.503906 14.300781 16.640625 14.382812 16.742188 C 14.488281 16.867188 14.59375 16.84375 14.652344 16.6875 C 14.699219 16.546875 14.777344 16.410156 14.898438 16.316406 C 15.003906 16.234375 15.21875 16.191406 15.34375 16.222656 C 15.449219 16.257812 15.550781 16.335938 15.652344 16.382812 C 15.746094 16.460938 15.828125 16.523438 15.949219 16.578125 C 16.035156 16.613281 16.050781 16.671875 16.132812 16.605469 C 16.195312 16.550781 16.261719 16.507812 16.328125 16.460938 C 16.484375 16.355469 16.644531 16.28125 16.808594 16.195312 C 16.886719 16.152344 16.96875 16.105469 17.050781 16.136719 C 17.121094 16.160156 17.140625 16.238281 17.210938 16.253906 C 17.300781 16.277344 17.40625 16.179688 17.46875 16.121094 C 17.546875 16.042969 17.605469 16.058594 17.710938 16.070312 C 17.953125 16.089844 18.226562 16.160156 18.421875 15.957031 C 18.496094 15.878906 18.535156 15.773438 18.628906 15.726562 C 18.738281 15.675781 18.871094 15.695312 18.984375 15.671875 C 19.109375 15.648438 19.203125 15.566406 19.332031 15.554688 C 19.433594 15.550781 19.542969 15.582031 19.640625 15.5625 C 19.695312 15.550781 19.765625 15.511719 19.808594 15.472656 C 19.878906 15.410156 19.859375 15.328125 19.90625 15.261719 C 20.007812 15.121094 20.246094 15.039062 20.398438 14.976562 C 20.566406 14.910156 20.761719 14.800781 20.941406 14.789062 C 21.023438 14.78125 21.179688 14.820312 21.285156 14.800781 C 21.324219 14.820312 21.363281 14.84375 21.402344 14.863281 C 21.460938 14.859375 21.550781 14.914062 21.632812 14.902344 C 21.710938 14.894531 21.777344 14.8125 21.832031 14.757812 C 21.898438 14.695312 21.957031 14.625 22.03125 14.566406 C 22.125 14.476562 22.238281 14.484375 22.359375 14.445312 C 22.507812 14.394531 22.652344 14.347656 22.792969 14.273438 C 22.925781 14.207031 23.050781 14.125 23.179688 14.058594 C 23.285156 14.003906 23.402344 14.050781 23.515625 14.050781 C 23.644531 14.050781 23.597656 13.976562 23.628906 13.886719 C 23.664062 13.785156 23.820312 13.71875 23.886719 13.640625 C 23.972656 13.546875 24.007812 13.425781 24.097656 13.332031 C 24.199219 13.234375 24.371094 13.246094 24.496094 13.175781 C 24.585938 13.128906 24.644531 13.132812 24.746094 13.128906 C 24.832031 13.125 24.921875 13.085938 25.007812 13.089844 C 25.125 13.105469 25.1875 13.234375 25.292969 13.246094 C 25.359375 13.25 25.453125 13.171875 25.519531 13.152344 C 25.570312 13.140625 25.671875 13.09375 25.71875 13.105469 C 25.777344 13.121094 25.757812 13.175781 25.835938 13.175781 C 25.898438 13.175781 25.980469 13.109375 26.023438 13.074219 C 26.089844 13.023438 26.148438 12.96875 26.1875 12.890625 C 26.222656 12.824219 26.222656 12.804688 26.296875 12.785156 C 26.449219 12.742188 26.519531 12.722656 26.566406 12.578125 C 26.566406 12.550781 26.613281 12.484375 26.554688 12.433594 Z M 26.554688 12.433594 " fill-opacity="1" fill-rule="nonzero"/></g></svg>