<svg xmlns="http://www.w3.org/2000/svg" xmlns:xlink="http://www.w3.org/1999/xlink" width="40" zoomAndPan="magnify" viewBox="0 0 30 30.000001" height="40" preserveAspectRatio="xMidYMid meet" version="1.0"><defs><clipPath id="573f14ea0b"><path d="M 22 14 L 22.300781 14 L 22.300781 16 L 22 16 Z M 22 14 " clip-rule="nonzero"/></clipPath><clipPath id="99c3595ddc"><path d="M 21 15 L 22.300781 15 L 22.300781 17 L 21 17 Z M 21 15 " clip-rule="nonzero"/></clipPath><clipPath id="5697d45d42"><path d="M 7.785156 2.902344 L 19 2.902344 L 19 26.128906 L 7.785156 26.128906 Z M 7.785156 2.902344 " clip-rule="nonzero"/></clipPath></defs><path fill="#014d4e" d="M 17.003906 23.265625 C 16.949219 23.296875 16.890625 23.332031 16.839844 23.359375 C 16.835938 23.386719 16.855469 23.429688 16.859375 23.46875 C 16.863281 23.511719 16.847656 23.589844 16.855469 23.625 C 16.882812 23.761719 17.035156 23.714844 17.128906 23.667969 C 17.222656 23.625 17.304688 23.554688 17.25 23.4375 C 17.207031 23.347656 17.09375 23.304688 17.003906 23.265625 Z M 17.003906 23.265625 " fill-opacity="1" fill-rule="nonzero"/><path fill="#014d4e" d="M 20.871094 15.089844 C 20.792969 15.082031 20.691406 15.007812 20.601562 15.085938 C 20.605469 15.144531 20.660156 15.195312 20.664062 15.25 C 20.667969 15.328125 20.601562 15.363281 20.550781 15.425781 C 20.515625 15.472656 20.445312 15.574219 20.503906 15.628906 C 20.554688 15.683594 20.675781 15.613281 20.726562 15.597656 C 20.753906 15.65625 20.714844 15.75 20.78125 15.785156 C 20.855469 15.824219 20.910156 15.738281 20.945312 15.683594 C 21.027344 15.570312 20.953125 15.421875 20.855469 15.328125 C 20.863281 15.253906 20.871094 15.171875 20.871094 15.089844 Z M 20.871094 15.089844 " fill-opacity="1" fill-rule="nonzero"/><path fill="#014d4e" d="M 21.730469 14.804688 C 21.71875 14.695312 21.683594 14.59375 21.597656 14.523438 C 21.542969 14.476562 21.46875 14.449219 21.414062 14.46875 C 21.414062 14.53125 21.414062 14.59375 21.414062 14.65625 C 21.414062 14.652344 21.414062 14.648438 21.417969 14.648438 C 21.429688 14.75 21.46875 14.847656 21.542969 14.914062 C 21.660156 15.015625 21.75 14.941406 21.730469 14.804688 Z M 21.730469 14.804688 " fill-opacity="1" fill-rule="nonzero"/><g clip-path="url(#573f14ea0b)"><path fill="#014d4e" d="M 22.109375 14.925781 C 22.074219 14.964844 22.042969 15 22.011719 15.042969 C 22.042969 15.097656 22.078125 15.214844 22.160156 15.097656 C 22.210938 15.027344 22.164062 14.960938 22.109375 14.925781 Z M 22.109375 14.925781 " fill-opacity="1" fill-rule="nonzero"/></g><g clip-path="url(#99c3595ddc)"><path fill="#014d4e" d="M 21.625 15.917969 C 21.617188 16.011719 21.714844 16.03125 21.804688 16.007812 C 21.925781 15.972656 22.085938 15.757812 22.03125 15.625 C 21.929688 15.664062 21.636719 15.75 21.625 15.917969 Z M 21.625 15.917969 " fill-opacity="1" fill-rule="nonzero"/></g><g clip-path="url(#5697d45d42)"><path fill="#014d4e" d="M 18.542969 18.695312 C 18.511719 18.566406 18.515625 18.449219 18.5 18.320312 C 18.484375 18.214844 18.40625 18.160156 18.382812 18.070312 C 18.355469 17.964844 18.414062 17.84375 18.410156 17.738281 C 18.40625 17.703125 18.382812 17.675781 18.386719 17.636719 C 18.390625 17.589844 18.441406 17.539062 18.445312 17.484375 C 18.449219 17.394531 18.410156 17.355469 18.371094 17.28125 C 18.328125 17.203125 18.316406 17.121094 18.285156 17.042969 C 18.253906 16.96875 18.210938 16.894531 18.171875 16.816406 C 18.171875 16.691406 18.175781 16.558594 18.15625 16.4375 C 18.121094 16.21875 17.960938 16.113281 17.875 15.925781 C 17.800781 15.757812 17.824219 15.574219 17.707031 15.417969 C 17.652344 15.351562 17.589844 15.3125 17.53125 15.253906 C 17.4375 15.160156 17.375 15.027344 17.285156 14.929688 C 17.140625 14.769531 17 14.59375 16.875 14.421875 C 16.789062 14.308594 16.683594 14.144531 16.574219 14.054688 C 16.4375 13.9375 16.261719 13.878906 16.117188 13.78125 C 16.011719 13.710938 15.9375 13.59375 15.839844 13.515625 C 15.773438 13.460938 15.691406 13.425781 15.628906 13.375 C 15.472656 13.246094 15.363281 13.070312 15.222656 12.929688 C 15.085938 12.792969 14.941406 12.660156 14.820312 12.515625 C 14.597656 12.242188 14.339844 12.003906 14.085938 11.765625 C 13.988281 11.667969 13.90625 11.617188 13.910156 11.484375 C 13.910156 11.382812 13.9375 11.292969 13.890625 11.195312 C 13.835938 11.09375 13.738281 11.03125 13.648438 10.960938 C 13.5625 10.890625 13.488281 10.796875 13.398438 10.734375 C 13.304688 10.667969 13.21875 10.648438 13.136719 10.554688 C 13.074219 10.476562 13.007812 10.390625 12.964844 10.300781 C 12.929688 10.230469 12.917969 10.136719 12.882812 10.070312 C 12.835938 9.992188 12.769531 9.917969 12.71875 9.839844 C 12.695312 9.800781 12.660156 9.738281 12.625 9.679688 C 12.632812 9.667969 12.640625 9.65625 12.644531 9.644531 C 12.734375 9.636719 12.800781 9.542969 12.835938 9.453125 C 12.871094 9.359375 12.953125 9.269531 12.953125 9.179688 C 12.953125 9.125 12.921875 9.066406 12.925781 9.007812 C 12.929688 8.945312 12.929688 8.890625 12.941406 8.828125 C 12.96875 8.6875 13.050781 8.542969 13.097656 8.398438 C 13.148438 8.242188 13.230469 8.164062 13.382812 8.113281 C 13.570312 8.046875 13.707031 7.894531 13.828125 7.738281 C 13.933594 7.601562 13.984375 7.484375 14.015625 7.316406 C 14.054688 7.144531 14.140625 7.15625 14.257812 7.035156 C 14.324219 6.964844 14.316406 6.957031 14.273438 6.867188 C 14.265625 6.847656 14.230469 6.8125 14.230469 6.792969 C 14.230469 6.769531 14.277344 6.71875 14.273438 6.703125 C 14.246094 6.628906 14.152344 6.660156 14.121094 6.5625 C 14.113281 6.53125 14.113281 6.496094 14.117188 6.464844 C 14.144531 6.460938 14.175781 6.457031 14.207031 6.464844 C 14.289062 6.480469 14.324219 6.53125 14.375 6.59375 C 14.546875 6.789062 14.511719 6.53125 14.695312 6.5 C 14.800781 6.484375 14.828125 6.609375 14.9375 6.535156 C 15.011719 6.488281 15.0625 6.375 15.078125 6.296875 C 15.097656 6.210938 15.0625 6.152344 15.140625 6.097656 C 15.199219 6.058594 15.292969 6.0625 15.355469 6.03125 C 15.433594 5.988281 15.496094 5.914062 15.558594 5.851562 C 15.601562 5.8125 15.738281 5.71875 15.699219 5.644531 C 15.664062 5.570312 15.472656 5.609375 15.414062 5.59375 C 15.257812 5.554688 15.226562 5.382812 15.089844 5.296875 C 14.972656 5.226562 14.726562 5.164062 14.667969 5.027344 C 14.59375 4.871094 14.78125 4.707031 14.703125 4.558594 C 14.6875 4.527344 14.636719 4.523438 14.617188 4.496094 C 14.597656 4.46875 14.617188 4.441406 14.601562 4.414062 C 14.566406 4.355469 14.535156 4.289062 14.472656 4.253906 C 14.527344 4.128906 14.5625 4.078125 14.671875 3.984375 C 14.863281 3.824219 14.773438 3.765625 14.59375 3.71875 C 14.542969 3.703125 14.503906 3.683594 14.449219 3.679688 C 14.371094 3.679688 14.28125 3.742188 14.207031 3.726562 C 14.140625 3.710938 14.128906 3.65625 14.082031 3.628906 C 14.003906 3.582031 13.976562 3.585938 13.882812 3.589844 C 13.753906 3.597656 13.546875 3.617188 13.4375 3.542969 C 13.332031 3.480469 13.320312 3.367188 13.179688 3.351562 C 12.988281 3.332031 12.90625 3.316406 12.796875 3.144531 C 12.738281 3.058594 12.660156 2.917969 12.539062 2.921875 C 12.464844 3.121094 12.367188 3.101562 12.179688 3.132812 C 12.011719 3.164062 11.90625 3.285156 11.832031 3.429688 C 11.75 3.609375 11.691406 3.714844 11.492188 3.726562 C 11.425781 3.730469 11.363281 3.730469 11.300781 3.769531 C 11.222656 3.828125 11.261719 3.867188 11.21875 3.929688 C 11.128906 4.050781 11.039062 3.867188 10.921875 3.839844 C 10.78125 3.804688 10.664062 3.894531 10.574219 4 C 10.496094 4.085938 10.433594 4.308594 10.292969 4.273438 C 10.191406 4.242188 10.15625 4.09375 10.050781 4.058594 C 9.960938 4.125 9.9375 4.335938 9.789062 4.210938 C 9.683594 4.125 9.707031 3.917969 9.550781 3.898438 C 9.34375 3.875 9.328125 4.078125 9.292969 4.207031 C 9.261719 4.335938 9.121094 4.429688 8.984375 4.410156 C 8.851562 4.394531 8.835938 4.242188 8.792969 4.140625 C 8.746094 4.03125 8.683594 3.964844 8.574219 3.921875 C 8.410156 3.855469 8.003906 3.804688 8.011719 4.039062 C 8.015625 4.199219 8.023438 4.152344 7.894531 4.257812 C 7.785156 4.347656 7.824219 4.359375 7.871094 4.453125 C 7.941406 4.585938 7.921875 4.816406 8.023438 4.917969 C 8.074219 4.96875 8.167969 4.964844 8.226562 5.011719 C 8.296875 5.0625 8.332031 5.15625 8.375 5.222656 C 8.414062 5.289062 8.476562 5.621094 8.585938 5.519531 C 8.65625 5.453125 8.5625 5.148438 8.777344 5.296875 C 8.855469 5.355469 8.859375 5.46875 8.882812 5.554688 C 8.90625 5.644531 8.929688 5.738281 8.902344 5.835938 C 8.765625 5.761719 8.832031 5.9375 8.835938 5.996094 C 8.839844 6.136719 8.765625 6.085938 8.703125 6.191406 C 8.757812 6.257812 8.8125 6.292969 8.863281 6.367188 C 8.945312 6.472656 8.949219 6.496094 8.949219 6.621094 C 8.953125 6.765625 9.082031 6.910156 9.230469 6.929688 C 9.390625 6.949219 9.488281 6.824219 9.609375 6.972656 C 9.664062 7.046875 9.667969 7.121094 9.75 7.105469 C 9.824219 7.09375 9.859375 7.011719 9.902344 6.960938 C 9.984375 6.863281 10.074219 6.785156 10.191406 6.722656 C 10.199219 6.71875 10.28125 6.683594 10.363281 6.644531 C 10.40625 6.660156 10.449219 6.675781 10.476562 6.683594 C 10.621094 6.773438 10.785156 6.84375 10.929688 6.949219 C 10.996094 6.996094 11.140625 7.164062 11.113281 7.257812 C 11.085938 7.347656 10.824219 7.355469 10.863281 7.453125 C 10.890625 7.511719 10.980469 7.476562 11.03125 7.488281 C 11.09375 7.5 11.148438 7.542969 11.210938 7.554688 C 11.175781 7.691406 11.179688 7.839844 11.332031 7.855469 C 11.460938 7.867188 11.621094 7.859375 11.636719 8.039062 C 11.652344 8.214844 11.390625 8.265625 11.402344 8.394531 C 11.410156 8.476562 11.496094 8.476562 11.425781 8.589844 C 11.382812 8.648438 11.300781 8.6875 11.25 8.742188 C 11.191406 8.800781 11.160156 8.878906 11.066406 8.855469 C 10.988281 8.835938 10.925781 8.746094 10.835938 8.71875 C 10.699219 8.683594 10.746094 8.738281 10.644531 8.796875 C 10.574219 8.835938 10.523438 8.785156 10.445312 8.777344 C 10.109375 8.746094 10.511719 9.085938 10.433594 9.1875 C 10.40625 9.226562 10.257812 9.171875 10.246094 9.261719 C 10.230469 9.378906 10.515625 9.445312 10.585938 9.46875 C 10.753906 9.539062 10.984375 9.578125 11.140625 9.675781 C 11.265625 9.753906 11.300781 9.921875 11.425781 10 C 11.566406 10.082031 11.777344 10.039062 11.929688 10.085938 C 12.023438 10.113281 12.058594 10.140625 12.125 10.191406 C 12.097656 10.253906 12.066406 10.316406 12.03125 10.375 C 12.03125 10.371094 12.03125 10.367188 12.03125 10.371094 C 11.988281 10.46875 11.890625 10.480469 11.996094 10.582031 C 12.058594 10.644531 12.144531 10.703125 12.214844 10.765625 C 12.300781 10.84375 12.417969 10.824219 12.507812 10.894531 C 12.621094 10.976562 12.648438 11.125 12.703125 11.242188 C 12.769531 11.375 12.824219 11.507812 12.910156 11.632812 C 13.007812 11.78125 13.164062 11.878906 13.296875 11.992188 C 13.414062 12.09375 13.488281 12.230469 13.609375 12.335938 C 13.734375 12.445312 13.84375 12.441406 13.929688 12.605469 C 13.96875 12.671875 13.988281 12.773438 14.035156 12.835938 C 14.089844 12.894531 14.132812 12.882812 14.171875 12.988281 C 14.246094 13.1875 14.289062 13.449219 14.449219 13.605469 C 14.5 13.589844 14.515625 13.496094 14.5625 13.488281 C 14.621094 13.480469 14.652344 13.558594 14.679688 13.601562 C 14.722656 13.660156 14.777344 13.75 14.84375 13.785156 C 14.898438 13.820312 14.957031 13.804688 15.015625 13.832031 C 15.140625 13.886719 15.140625 14.085938 15.28125 14.125 C 15.394531 14.160156 15.546875 14.101562 15.519531 14.308594 C 15.5 14.460938 15.304688 14.460938 15.222656 14.570312 C 15.144531 14.6875 15.441406 14.910156 15.53125 15.015625 C 15.632812 15.132812 15.914062 15.363281 15.917969 15.535156 C 15.921875 15.714844 15.730469 15.804688 15.730469 15.957031 C 15.730469 16.050781 15.800781 16.128906 15.777344 16.230469 C 15.757812 16.34375 15.664062 16.417969 15.660156 16.542969 C 15.660156 16.578125 15.664062 16.730469 15.683594 16.851562 C 15.636719 16.902344 15.589844 16.945312 15.585938 16.949219 C 15.574219 17.171875 15.703125 17.332031 15.753906 17.542969 C 15.78125 17.667969 15.773438 17.800781 15.832031 17.917969 C 15.894531 18.046875 15.960938 18.121094 15.976562 18.269531 C 16 18.523438 15.9375 18.773438 15.941406 19.015625 C 15.941406 19.078125 15.980469 19.136719 15.953125 19.199219 C 15.933594 19.246094 15.875 19.257812 15.855469 19.296875 C 15.804688 19.402344 15.910156 19.582031 15.929688 19.683594 C 15.953125 19.796875 15.925781 19.96875 15.878906 20.074219 C 15.804688 20.242188 15.726562 20.144531 15.613281 20.140625 C 15.480469 20.132812 15.339844 20.230469 15.265625 20.324219 C 15.160156 20.457031 15.085938 20.445312 14.941406 20.5 C 14.878906 20.527344 14.84375 20.570312 14.789062 20.605469 C 14.730469 20.652344 14.671875 20.667969 14.605469 20.699219 C 14.578125 20.714844 14.566406 20.753906 14.53125 20.761719 C 14.46875 20.773438 14.488281 20.734375 14.433594 20.726562 C 14.351562 20.714844 14.3125 20.730469 14.257812 20.820312 C 14.195312 20.9375 14.308594 21.097656 14.144531 21.136719 C 13.96875 21.183594 13.765625 20.996094 13.582031 21.070312 C 13.535156 21.09375 13.445312 21.183594 13.425781 21.234375 C 13.386719 21.328125 13.453125 21.378906 13.476562 21.464844 C 13.5 21.539062 13.480469 21.632812 13.523438 21.695312 C 13.585938 21.792969 13.707031 21.753906 13.792969 21.796875 C 13.992188 21.90625 13.691406 21.964844 13.792969 22.082031 C 13.863281 22.15625 13.957031 22.109375 13.90625 22.246094 C 13.882812 22.328125 13.828125 22.335938 13.835938 22.433594 C 13.835938 22.445312 13.839844 22.46875 13.84375 22.5 C 13.761719 22.480469 13.632812 22.453125 13.589844 22.449219 C 13.511719 22.398438 13.449219 22.476562 13.363281 22.414062 C 13.289062 22.355469 13.289062 22.25 13.199219 22.21875 C 13.027344 22.148438 12.746094 22.351562 12.578125 22.375 C 12.480469 22.390625 12.394531 22.335938 12.296875 22.351562 C 12.144531 22.378906 12.195312 22.496094 12.164062 22.621094 C 12.105469 22.871094 11.875 22.984375 11.640625 23.011719 C 11.546875 23.023438 11.328125 23.066406 11.332031 23.179688 C 11.332031 23.234375 11.40625 23.316406 11.429688 23.371094 C 11.449219 23.433594 11.464844 23.492188 11.480469 23.554688 C 11.589844 23.5625 11.648438 23.441406 11.746094 23.472656 C 11.828125 23.503906 11.90625 23.617188 11.980469 23.660156 C 12.082031 23.714844 12.269531 23.652344 12.300781 23.808594 C 12.335938 24 12.140625 23.972656 12.0625 24.066406 C 12.023438 24.117188 12.050781 24.214844 12.042969 24.28125 C 12.03125 24.398438 12.023438 24.515625 12.011719 24.636719 C 11.988281 24.886719 11.933594 25.125 11.933594 25.382812 C 11.933594 25.449219 11.917969 25.535156 11.945312 25.601562 C 11.972656 25.660156 12.066406 25.675781 12.085938 25.726562 C 12.128906 25.832031 11.960938 25.820312 11.929688 25.914062 C 11.871094 26.113281 12.210938 25.996094 12.308594 25.976562 C 12.542969 25.933594 12.582031 25.8125 12.679688 25.617188 C 12.769531 25.421875 12.996094 25.269531 13.167969 25.144531 C 13.386719 24.992188 13.664062 24.90625 13.871094 24.75 C 14.097656 24.578125 13.820312 24.417969 13.6875 24.28125 C 13.613281 24.207031 13.261719 23.875 13.515625 23.886719 C 13.632812 23.894531 13.738281 24.019531 13.824219 24.089844 C 13.921875 24.160156 14.015625 24.230469 14.117188 24.304688 C 14.214844 24.375 14.484375 24.550781 14.457031 24.292969 C 14.445312 24.152344 14.257812 24.027344 14.15625 23.945312 C 14.085938 23.886719 13.921875 23.773438 13.929688 23.667969 C 13.945312 23.441406 14.390625 23.890625 14.488281 23.933594 C 14.59375 23.984375 14.628906 24 14.617188 23.871094 C 14.613281 23.84375 14.570312 23.804688 14.582031 23.773438 C 14.597656 23.734375 14.691406 23.707031 14.730469 23.683594 C 14.960938 23.542969 14.75 23.429688 14.621094 23.289062 C 14.679688 23.246094 14.816406 23.304688 14.84375 23.21875 C 14.855469 23.171875 14.777344 23.066406 14.695312 22.984375 C 14.734375 22.9375 14.777344 22.890625 14.796875 22.867188 C 14.894531 22.765625 15.019531 22.660156 15.140625 22.804688 C 15.195312 22.875 15.171875 22.964844 15.253906 22.984375 C 15.335938 23.003906 15.394531 22.914062 15.488281 22.960938 C 15.558594 22.996094 15.59375 23.0625 15.675781 23.023438 C 15.761719 22.988281 15.828125 22.894531 15.921875 22.847656 C 16.136719 22.75 16.339844 22.625 16.558594 22.539062 C 16.800781 22.441406 16.980469 22.351562 17.171875 22.179688 C 17.269531 22.09375 17.386719 22.015625 17.5 21.945312 C 17.554688 21.90625 17.59375 21.902344 17.644531 21.847656 C 17.683594 21.800781 17.714844 21.730469 17.753906 21.6875 C 17.835938 21.613281 17.957031 21.597656 18.054688 21.570312 C 18.152344 21.539062 18.175781 21.507812 18.222656 21.402344 C 18.328125 21.175781 18.578125 20.976562 18.542969 20.722656 C 18.515625 20.507812 18.484375 20.304688 18.476562 20.085938 C 18.472656 20.003906 18.453125 19.96875 18.523438 19.925781 C 18.566406 19.902344 18.617188 19.949219 18.652344 19.894531 C 18.714844 19.800781 18.492188 19.59375 18.488281 19.480469 C 18.484375 19.332031 18.59375 19.304688 18.671875 19.207031 C 18.773438 19.308594 18.722656 19.082031 18.710938 19.042969 C 18.632812 18.921875 18.574219 18.816406 18.542969 18.695312 Z M 18.542969 18.695312 " fill-opacity="1" fill-rule="nonzero"/></g></svg>