<svg xmlns="http://www.w3.org/2000/svg" xmlns:xlink="http://www.w3.org/1999/xlink" width="40" zoomAndPan="magnify" viewBox="0 0 30 30.000001" height="40" preserveAspectRatio="xMidYMid meet" version="1.0"><defs><clipPath id="ef777610e5"><path d="M 19 25 L 19.921875 25 L 19.921875 26.128906 L 19 26.128906 Z M 19 25 " clip-rule="nonzero"/></clipPath><clipPath id="5291b9d75b"><path d="M 9.757812 7 L 12 7 L 12 12 L 9.757812 12 Z M 9.757812 7 " clip-rule="nonzero"/></clipPath><clipPath id="7ad9ba5291"><path d="M 9.757812 3 L 11 3 L 11 4 L 9.757812 4 Z M 9.757812 3 " clip-rule="nonzero"/></clipPath><clipPath id="bc53da183b"><path d="M 9.757812 2.902344 L 10 2.902344 L 10 4 L 9.757812 4 Z M 9.757812 2.902344 " clip-rule="nonzero"/></clipPath></defs><g clip-path="url(#ef777610e5)"><path fill="#014d4e" d="M 20.140625 25.800781 C 20.027344 25.742188 19.996094 25.707031 19.871094 25.734375 C 19.839844 25.742188 19.78125 25.757812 19.730469 25.789062 C 19.726562 25.816406 19.726562 25.84375 19.726562 25.875 C 19.769531 25.917969 19.8125 26.027344 19.871094 26.078125 C 19.933594 26.125 20.078125 26.082031 20.140625 26.046875 C 20.195312 26.023438 20.222656 25.980469 20.230469 25.917969 C 20.238281 25.835938 20.203125 25.835938 20.140625 25.800781 Z M 20.140625 25.800781 " fill-opacity="1" fill-rule="nonzero"/></g><path fill="#014d4e" d="M 18.675781 23.550781 C 18.609375 23.515625 18.570312 23.519531 18.539062 23.453125 C 18.527344 23.429688 18.511719 23.398438 18.503906 23.371094 C 18.503906 23.347656 18.507812 23.324219 18.507812 23.3125 C 18.519531 23.273438 18.59375 23.148438 18.582031 23.109375 C 18.566406 23.046875 18.421875 23.0625 18.367188 23.085938 C 18.320312 23.109375 18.304688 23.152344 18.261719 23.175781 C 18.226562 23.195312 18.164062 23.191406 18.152344 23.234375 C 18.140625 23.28125 18.214844 23.34375 18.203125 23.394531 C 18.191406 23.453125 18.136719 23.46875 18.121094 23.511719 C 18.082031 23.613281 18.253906 23.757812 18.3125 23.828125 C 18.386719 23.914062 18.4375 23.992188 18.503906 24.082031 C 18.535156 24.128906 18.566406 24.144531 18.628906 24.148438 C 18.6875 24.152344 18.710938 24.125 18.761719 24.117188 C 18.808594 24.109375 18.859375 24.152344 18.894531 24.117188 C 18.933594 24.082031 18.921875 23.925781 18.917969 23.875 C 18.914062 23.691406 18.835938 23.636719 18.675781 23.550781 Z M 18.675781 23.550781 " fill-opacity="1" fill-rule="nonzero"/><path fill="#014d4e" d="M 18.460938 21.871094 C 18.519531 21.816406 18.527344 21.820312 18.515625 21.75 C 18.507812 21.6875 18.46875 21.640625 18.425781 21.597656 C 18.351562 21.535156 18.25 21.53125 18.191406 21.453125 C 18.167969 21.417969 18.160156 21.375 18.144531 21.339844 C 18.191406 21.332031 18.238281 21.324219 18.285156 21.320312 C 18.28125 21.320312 18.28125 21.320312 18.28125 21.316406 C 18.375 21.292969 18.261719 21.152344 18.214844 21.128906 C 18.105469 21.085938 18.019531 21.222656 18.019531 21.042969 C 18.019531 20.910156 17.980469 20.855469 17.835938 20.808594 C 17.714844 20.765625 17.589844 20.808594 17.515625 20.914062 C 17.484375 20.953125 17.421875 21.03125 17.410156 21.078125 C 17.386719 21.15625 17.449219 21.238281 17.460938 21.308594 C 17.464844 21.332031 17.460938 21.375 17.472656 21.398438 C 17.480469 21.414062 17.519531 21.441406 17.523438 21.449219 C 17.535156 21.515625 17.441406 21.546875 17.457031 21.605469 C 17.476562 21.671875 17.609375 21.679688 17.65625 21.691406 C 17.738281 21.714844 17.820312 21.738281 17.871094 21.804688 C 17.890625 21.824219 17.890625 21.851562 17.910156 21.867188 C 17.941406 21.890625 18.011719 21.878906 18.042969 21.882812 C 18.152344 21.890625 18.175781 21.929688 18.261719 21.984375 C 18.351562 22.046875 18.390625 21.933594 18.460938 21.871094 Z M 18.460938 21.871094 " fill-opacity="1" fill-rule="nonzero"/><path fill="#014d4e" d="M 15.085938 17.203125 C 15.070312 17.234375 14.863281 17.507812 15.050781 17.414062 C 15.121094 17.378906 15.316406 17.210938 15.21875 17.148438 C 15.171875 17.167969 15.128906 17.179688 15.085938 17.203125 Z M 15.085938 17.203125 " fill-opacity="1" fill-rule="nonzero"/><path fill="#014d4e" d="M 15.824219 17.410156 C 15.796875 17.367188 15.71875 17.242188 15.671875 17.226562 C 15.59375 17.199219 15.539062 17.328125 15.460938 17.320312 C 15.4375 17.320312 15.394531 17.289062 15.355469 17.285156 C 15.335938 17.292969 15.316406 17.304688 15.296875 17.316406 C 15.269531 17.332031 15.246094 17.34375 15.222656 17.359375 C 15.214844 17.410156 15.113281 17.488281 15.078125 17.535156 C 15.015625 17.617188 14.90625 17.695312 14.886719 17.796875 C 14.875 17.855469 14.886719 17.917969 14.953125 17.902344 C 14.996094 17.894531 15.042969 17.824219 15.078125 17.796875 C 15.132812 17.753906 15.152344 17.757812 15.214844 17.789062 C 15.253906 17.8125 15.296875 17.84375 15.316406 17.886719 C 15.335938 17.9375 15.304688 17.972656 15.335938 18.015625 C 15.363281 18.058594 15.425781 18.0625 15.46875 18.078125 C 15.492188 18.089844 15.539062 18.109375 15.546875 18.125 C 15.570312 18.144531 15.570312 18.183594 15.59375 18.199219 C 15.660156 18.246094 15.703125 18.164062 15.757812 18.148438 C 15.808594 18.140625 15.863281 18.175781 15.914062 18.171875 C 15.976562 18.167969 16.035156 18.113281 16.066406 18.0625 C 16.171875 17.898438 15.960938 17.75 15.890625 17.613281 C 15.851562 17.550781 15.875 17.480469 15.824219 17.410156 Z M 15.824219 17.410156 " fill-opacity="1" fill-rule="nonzero"/><path fill="#014d4e" d="M 15.9375 17.167969 C 15.984375 17.101562 15.914062 17.023438 15.847656 16.992188 C 15.8125 17.015625 15.78125 17.042969 15.746094 17.070312 C 15.753906 17.128906 15.867188 17.261719 15.9375 17.167969 Z M 15.9375 17.167969 " fill-opacity="1" fill-rule="nonzero"/><path fill="#014d4e" d="M 15.351562 16.960938 C 15.367188 17 15.367188 17.070312 15.410156 17.105469 C 15.445312 17.136719 15.527344 17.140625 15.554688 17.097656 C 15.597656 17.035156 15.5 16.882812 15.421875 16.855469 C 15.398438 16.886719 15.375 16.921875 15.351562 16.960938 Z M 15.351562 16.960938 " fill-opacity="1" fill-rule="nonzero"/><path fill="#014d4e" d="M 15.648438 15.683594 C 15.628906 15.660156 15.617188 15.636719 15.59375 15.621094 C 15.558594 15.640625 15.523438 15.664062 15.488281 15.6875 C 15.425781 15.71875 15.273438 15.917969 15.425781 15.921875 C 15.488281 15.921875 15.558594 15.863281 15.601562 15.824219 C 15.660156 15.78125 15.695312 15.753906 15.648438 15.683594 Z M 15.648438 15.683594 " fill-opacity="1" fill-rule="nonzero"/><path fill="#014d4e" d="M 16.132812 15.117188 C 16.109375 15.105469 16.082031 15.101562 16.058594 15.101562 C 16.03125 15.136719 16.007812 15.171875 15.984375 15.214844 C 15.988281 15.277344 15.996094 15.503906 16.117188 15.390625 C 16.1875 15.324219 16.265625 15.175781 16.132812 15.117188 Z M 16.132812 15.117188 " fill-opacity="1" fill-rule="nonzero"/><path fill="#014d4e" d="M 14.976562 14.929688 C 15.039062 14.972656 15.089844 14.96875 15.152344 14.933594 C 15.242188 14.890625 15.324219 14.886719 15.414062 14.894531 C 15.414062 14.894531 15.414062 14.894531 15.417969 14.894531 C 15.417969 14.894531 15.417969 14.894531 15.417969 14.890625 C 15.417969 14.890625 15.425781 14.894531 15.429688 14.894531 C 15.519531 14.925781 15.613281 14.980469 15.699219 15.027344 C 15.742188 15.050781 15.789062 15.109375 15.832031 15.066406 C 15.882812 15.015625 15.8125 14.976562 15.800781 14.933594 C 15.875 14.886719 15.78125 14.789062 15.722656 14.78125 C 15.636719 14.769531 15.601562 14.882812 15.507812 14.796875 C 15.449219 14.742188 15.421875 14.652344 15.371094 14.597656 C 15.296875 14.519531 15.292969 14.476562 15.179688 14.527344 C 15.058594 14.585938 15.089844 14.453125 15.046875 14.371094 C 15.019531 14.320312 14.929688 14.121094 14.84375 14.199219 C 14.804688 14.234375 14.847656 14.304688 14.832031 14.347656 C 14.808594 14.398438 14.757812 14.398438 14.75 14.453125 C 14.746094 14.488281 14.777344 14.542969 14.78125 14.582031 C 14.785156 14.605469 14.777344 14.640625 14.785156 14.660156 C 14.804688 14.714844 14.867188 14.71875 14.898438 14.773438 C 14.929688 14.828125 14.921875 14.890625 14.976562 14.929688 Z M 14.976562 14.929688 " fill-opacity="1" fill-rule="nonzero"/><path fill="#014d4e" d="M 15.308594 13.972656 C 15.296875 14.03125 15.339844 14.050781 15.386719 14.078125 C 15.445312 14.113281 15.464844 14.132812 15.53125 14.089844 C 15.652344 14.015625 15.492188 13.9375 15.398438 13.894531 C 15.363281 13.914062 15.332031 13.9375 15.296875 13.957031 C 15.300781 13.960938 15.304688 13.96875 15.308594 13.972656 Z M 15.308594 13.972656 " fill-opacity="1" fill-rule="nonzero"/><path fill="#014d4e" d="M 15.066406 14.046875 C 15.121094 14.023438 15.25 13.828125 15.140625 13.816406 C 15.148438 13.769531 15.117188 13.765625 15.082031 13.773438 C 15.046875 13.808594 15.011719 13.84375 14.972656 13.878906 C 15.03125 13.910156 14.910156 14.113281 15.066406 14.046875 Z M 15.066406 14.046875 " fill-opacity="1" fill-rule="nonzero"/><path fill="#014d4e" d="M 14.902344 13.476562 C 14.945312 13.460938 15 13.46875 15.042969 13.464844 C 15.085938 13.457031 15.066406 13.445312 15.117188 13.453125 C 15.144531 13.457031 15.164062 13.476562 15.191406 13.476562 C 15.261719 13.480469 15.292969 13.417969 15.335938 13.375 C 15.382812 13.320312 15.433594 13.296875 15.375 13.222656 C 15.324219 13.15625 15.226562 13.167969 15.160156 13.125 C 15.089844 13.082031 15.074219 13.03125 15.0625 12.953125 C 15.054688 12.871094 15.035156 12.804688 15.003906 12.730469 C 14.972656 12.664062 14.957031 12.589844 14.878906 12.597656 C 14.800781 12.605469 14.777344 12.652344 14.757812 12.714844 C 14.726562 12.792969 14.6875 12.835938 14.621094 12.890625 C 14.597656 12.90625 14.539062 12.933594 14.507812 12.96875 C 14.464844 12.964844 14.425781 12.964844 14.382812 12.957031 C 14.335938 12.894531 14.199219 13.046875 14.15625 13.066406 C 14.113281 13.09375 14.070312 13.105469 14.109375 13.175781 C 14.140625 13.226562 14.195312 13.199219 14.242188 13.207031 C 14.3125 13.21875 14.308594 13.269531 14.347656 13.3125 C 14.378906 13.347656 14.453125 13.367188 14.496094 13.390625 C 14.546875 13.421875 14.601562 13.449219 14.652344 13.46875 C 14.6875 13.484375 14.765625 13.542969 14.804688 13.542969 C 14.851562 13.550781 14.859375 13.5 14.902344 13.476562 Z M 14.902344 13.476562 " fill-opacity="1" fill-rule="nonzero"/><path fill="#014d4e" d="M 13.707031 13.726562 C 13.722656 13.667969 13.714844 13.617188 13.707031 13.554688 C 13.695312 13.5 13.695312 13.449219 13.648438 13.410156 C 13.609375 13.378906 13.550781 13.367188 13.507812 13.339844 C 13.460938 13.304688 13.464844 13.300781 13.445312 13.25 C 13.417969 13.183594 13.421875 13.195312 13.359375 13.183594 C 13.242188 13.164062 13.21875 13.113281 13.140625 13.027344 C 13.070312 12.945312 12.933594 12.953125 12.871094 12.878906 C 12.835938 12.839844 12.839844 12.6875 12.753906 12.699219 C 12.714844 12.707031 12.710938 12.769531 12.664062 12.738281 C 12.636719 12.722656 12.648438 12.65625 12.625 12.628906 C 12.578125 12.566406 12.472656 12.578125 12.5 12.496094 C 12.519531 12.445312 12.546875 12.464844 12.523438 12.40625 C 12.511719 12.375 12.476562 12.332031 12.453125 12.304688 C 12.410156 12.246094 12.324219 12.222656 12.308594 12.15625 C 12.300781 12.121094 12.328125 12.066406 12.3125 12.039062 C 12.292969 12.007812 12.246094 12.019531 12.21875 12.011719 C 12.152344 11.992188 12.109375 11.925781 12.03125 11.902344 C 11.945312 11.875 11.859375 11.925781 11.84375 12.015625 C 11.832031 12.089844 11.894531 12.152344 11.871094 12.234375 C 11.851562 12.292969 11.796875 12.339844 11.769531 12.402344 C 11.753906 12.425781 11.722656 12.484375 11.730469 12.515625 C 11.738281 12.558594 11.769531 12.550781 11.792969 12.570312 C 11.847656 12.625 11.773438 12.691406 11.820312 12.753906 C 11.839844 12.785156 11.871094 12.761719 11.890625 12.777344 C 11.910156 12.792969 11.914062 12.820312 11.925781 12.84375 C 12.003906 12.933594 12.160156 12.863281 12.160156 12.765625 C 12.183594 12.734375 12.207031 12.707031 12.234375 12.679688 C 12.269531 12.722656 12.308594 12.761719 12.34375 12.804688 C 12.363281 12.824219 12.40625 12.851562 12.410156 12.882812 C 12.414062 12.902344 12.398438 12.921875 12.402344 12.9375 C 12.410156 13.011719 12.496094 13.050781 12.488281 13.125 C 12.488281 13.136719 12.460938 13.15625 12.457031 13.175781 C 12.445312 13.210938 12.457031 13.265625 12.457031 13.300781 C 12.464844 13.445312 12.464844 13.566406 12.546875 13.695312 C 12.570312 13.730469 12.695312 13.851562 12.664062 13.90625 C 12.644531 13.945312 12.550781 13.910156 12.539062 13.972656 C 12.527344 14.042969 12.78125 14.195312 12.828125 14.171875 C 12.828125 14.167969 12.851562 14.132812 12.855469 14.128906 C 12.867188 14.117188 12.882812 14.117188 12.894531 14.113281 C 12.964844 14.074219 12.976562 14.089844 13.050781 14.085938 C 13.179688 14.074219 13 13.96875 13.097656 13.914062 C 13.183594 13.867188 13.410156 13.933594 13.472656 14.003906 C 13.539062 14.074219 13.566406 14.15625 13.652344 14.0625 C 13.707031 13.996094 13.769531 13.953125 13.796875 13.871094 C 13.773438 13.847656 13.730469 13.855469 13.714844 13.839844 C 13.660156 13.796875 13.695312 13.777344 13.707031 13.726562 Z M 13.707031 13.726562 " fill-opacity="1" fill-rule="nonzero"/><path fill="#014d4e" d="M 14.980469 10.816406 C 14.957031 10.777344 14.933594 10.789062 14.929688 10.730469 C 14.925781 10.6875 14.9375 10.644531 14.933594 10.605469 C 14.835938 10.605469 14.824219 10.738281 14.820312 10.8125 C 14.8125 10.886719 14.832031 10.953125 14.804688 11.023438 C 14.78125 11.097656 14.742188 11.164062 14.753906 11.242188 C 14.769531 11.378906 14.839844 11.5 14.878906 11.625 C 14.882812 11.640625 14.886719 11.683594 14.898438 11.726562 C 14.875 11.816406 14.847656 11.898438 14.921875 11.984375 C 14.953125 12.023438 14.984375 12.046875 14.996094 12.097656 C 15 12.132812 14.984375 12.171875 14.988281 12.210938 C 15 12.296875 15.097656 12.367188 15.171875 12.285156 C 15.222656 12.226562 15.21875 12.09375 15.207031 12.023438 C 15.1875 11.941406 15.183594 11.835938 15.140625 11.761719 C 15.164062 11.730469 15.199219 11.683594 15.1875 11.644531 C 15.175781 11.601562 15.113281 11.558594 15.089844 11.515625 C 15.054688 11.4375 15.070312 11.367188 15.035156 11.289062 C 14.992188 11.203125 14.96875 11.144531 14.980469 11.046875 C 14.984375 10.972656 15.023438 10.890625 14.980469 10.816406 Z M 14.980469 10.816406 " fill-opacity="1" fill-rule="nonzero"/><path fill="#014d4e" d="M 14.699219 9.121094 C 14.683594 9.222656 14.683594 9.304688 14.707031 9.40625 C 14.730469 9.511719 14.761719 9.613281 14.769531 9.71875 C 14.789062 9.886719 14.765625 10.054688 14.765625 10.230469 C 14.765625 10.246094 14.765625 10.292969 14.765625 10.335938 C 14.773438 10.351562 14.792969 10.367188 14.8125 10.378906 C 14.847656 10.398438 14.933594 10.433594 14.96875 10.398438 C 15.003906 10.371094 14.96875 10.257812 14.960938 10.21875 C 14.933594 10.140625 14.898438 10.109375 14.914062 10.023438 C 14.933594 9.875 14.933594 9.730469 14.886719 9.589844 C 14.847656 9.464844 14.824219 9.324219 14.816406 9.195312 C 14.8125 9.132812 14.804688 8.871094 14.726562 8.894531 C 14.621094 8.921875 14.710938 9.0625 14.699219 9.121094 Z M 14.699219 9.121094 " fill-opacity="1" fill-rule="nonzero"/><path fill="#014d4e" d="M 14.109375 10.539062 C 14.203125 10.507812 14.195312 10.363281 14.179688 10.261719 C 14.214844 10.234375 14.253906 10.203125 14.285156 10.171875 C 14.363281 10.011719 14.070312 10.078125 13.992188 10.109375 C 13.910156 10.140625 13.863281 10.125 13.777344 10.132812 C 13.667969 10.144531 13.65625 10.195312 13.597656 10.273438 C 13.542969 10.347656 13.253906 10.519531 13.371094 10.601562 C 13.445312 10.652344 13.535156 10.621094 13.621094 10.621094 C 13.695312 10.621094 13.789062 10.695312 13.851562 10.679688 C 13.886719 10.671875 13.976562 10.609375 14.007812 10.585938 C 14.023438 10.574219 14.03125 10.546875 14.046875 10.539062 C 14.074219 10.53125 14.097656 10.542969 14.109375 10.539062 Z M 14.109375 10.539062 " fill-opacity="1" fill-rule="nonzero"/><path fill="#014d4e" d="M 11.777344 11.519531 C 11.851562 11.613281 12.003906 11.582031 11.972656 11.453125 C 11.960938 11.402344 11.898438 11.339844 11.929688 11.296875 C 11.949219 11.269531 11.988281 11.285156 12.003906 11.261719 C 12.011719 11.25 12.015625 11.222656 12.015625 11.207031 C 11.96875 11.191406 11.875 11.164062 11.839844 11.152344 C 11.75 11.144531 11.675781 11.089844 11.578125 11.125 C 11.457031 11.167969 11.398438 11.261719 11.519531 11.34375 C 11.570312 11.378906 11.625 11.378906 11.675781 11.402344 C 11.730469 11.433594 11.742188 11.46875 11.777344 11.519531 Z M 11.777344 11.519531 " fill-opacity="1" fill-rule="nonzero"/><path fill="#014d4e" d="M 11.867188 11.089844 C 11.996094 11.09375 11.917969 10.941406 11.851562 10.890625 C 11.808594 10.914062 11.765625 10.9375 11.722656 10.964844 C 11.722656 10.964844 11.722656 10.964844 11.726562 10.964844 C 11.621094 11.03125 11.800781 11.085938 11.867188 11.089844 Z M 11.867188 11.089844 " fill-opacity="1" fill-rule="nonzero"/><g clip-path="url(#5291b9d75b)"><path fill="#014d4e" d="M 11.582031 10.976562 C 11.636719 10.9375 11.660156 10.855469 11.714844 10.8125 C 11.78125 10.765625 11.8125 10.769531 11.886719 10.777344 C 11.929688 10.777344 11.964844 10.796875 11.96875 10.734375 C 11.972656 10.644531 11.84375 10.53125 11.816406 10.441406 C 11.792969 10.367188 11.746094 10.230469 11.78125 10.160156 C 11.800781 10.164062 11.824219 10.164062 11.839844 10.175781 C 11.859375 10.085938 11.765625 9.992188 11.714844 9.925781 C 11.667969 9.859375 11.691406 9.878906 11.710938 9.800781 C 11.722656 9.730469 11.671875 9.625 11.648438 9.558594 C 11.617188 9.476562 11.597656 9.488281 11.519531 9.511719 C 11.472656 9.375 11.410156 9.269531 11.4375 9.121094 C 11.457031 9.027344 11.390625 8.96875 11.480469 8.90625 C 11.429688 8.835938 11.246094 8.828125 11.183594 8.898438 C 11.140625 8.945312 11.167969 9.039062 11.160156 9.105469 C 11.144531 9.203125 11.144531 9.296875 11.113281 9.390625 C 11.097656 9.453125 11.085938 9.570312 11.027344 9.609375 C 10.988281 9.636719 10.90625 9.628906 10.859375 9.621094 C 10.792969 9.609375 10.722656 9.589844 10.660156 9.570312 C 10.65625 9.566406 10.644531 9.566406 10.632812 9.5625 C 10.628906 9.535156 10.628906 9.511719 10.628906 9.496094 C 10.65625 9.382812 10.664062 9.273438 10.574219 9.199219 C 10.535156 9.167969 10.53125 9.195312 10.53125 9.140625 C 10.53125 9.113281 10.546875 9.089844 10.550781 9.066406 C 10.5625 8.992188 10.527344 8.917969 10.503906 8.847656 C 10.484375 8.773438 10.453125 8.695312 10.449219 8.617188 C 10.449219 8.539062 10.472656 8.527344 10.390625 8.496094 C 10.316406 8.464844 10.289062 8.414062 10.257812 8.339844 C 10.214844 8.25 10.164062 8.164062 10.125 8.070312 C 10.105469 8.03125 10.0625 7.882812 10.015625 7.871094 C 9.957031 7.859375 9.863281 8.011719 9.859375 8.0625 C 9.855469 8.101562 9.886719 8.148438 9.882812 8.183594 C 9.871094 8.226562 9.8125 8.230469 9.792969 8.265625 C 9.769531 8.304688 9.796875 8.367188 9.800781 8.40625 C 9.816406 8.476562 9.808594 8.53125 9.804688 8.601562 C 9.800781 8.742188 9.875 8.863281 9.917969 8.996094 C 9.929688 9.046875 9.941406 9.101562 9.960938 9.148438 C 9.976562 9.203125 9.976562 9.175781 10.011719 9.210938 C 10.066406 9.269531 10.003906 9.355469 10.035156 9.433594 C 10.054688 9.492188 10.089844 9.539062 10.101562 9.605469 C 10.113281 9.675781 10.097656 9.71875 10.136719 9.78125 C 10.175781 9.847656 10.203125 9.878906 10.1875 9.960938 C 10.171875 10.050781 10.15625 10.144531 10.128906 10.234375 C 10.113281 10.296875 10.078125 10.355469 10.089844 10.421875 C 10.105469 10.5 10.167969 10.5625 10.230469 10.609375 C 10.34375 10.695312 10.332031 10.847656 10.46875 10.917969 C 10.535156 10.953125 10.558594 10.945312 10.550781 11.035156 C 10.546875 11.078125 10.523438 11.136719 10.546875 11.175781 C 10.578125 11.222656 10.714844 11.253906 10.765625 11.257812 C 10.785156 11.191406 10.761719 11.132812 10.847656 11.109375 C 10.917969 11.089844 10.933594 11.125 10.976562 11.0625 C 11.019531 10.996094 11.015625 10.996094 11.097656 10.988281 C 11.199219 10.980469 11.304688 10.96875 11.410156 10.976562 C 11.480469 10.980469 11.527344 11.011719 11.582031 10.976562 Z M 11.582031 10.976562 " fill-opacity="1" fill-rule="nonzero"/></g><path fill="#014d4e" d="M 12.789062 6.414062 C 12.785156 6.417969 12.765625 6.433594 12.742188 6.457031 C 12.730469 6.453125 12.714844 6.453125 12.695312 6.457031 C 12.640625 6.464844 12.589844 6.492188 12.5625 6.542969 C 12.515625 6.625 12.566406 6.707031 12.542969 6.792969 C 12.527344 6.84375 12.484375 6.945312 12.574219 6.960938 C 12.632812 6.972656 12.691406 6.921875 12.753906 6.9375 C 12.820312 6.953125 12.875 6.996094 12.9375 6.949219 C 12.996094 6.910156 13.015625 6.863281 13.011719 6.796875 C 13.007812 6.730469 13.019531 6.691406 13.058594 6.625 C 13.089844 6.582031 13.128906 6.507812 13.070312 6.472656 C 13.035156 6.449219 12.96875 6.460938 12.921875 6.441406 C 12.871094 6.425781 12.832031 6.386719 12.789062 6.414062 Z M 12.789062 6.414062 " fill-opacity="1" fill-rule="nonzero"/><path fill="#014d4e" d="M 12.589844 5.449219 C 12.597656 5.460938 12.625 5.507812 12.648438 5.546875 C 12.628906 5.621094 12.617188 5.734375 12.648438 5.769531 C 12.722656 5.835938 12.808594 5.675781 12.796875 5.609375 C 12.789062 5.570312 12.761719 5.570312 12.796875 5.539062 C 12.816406 5.523438 12.859375 5.515625 12.890625 5.503906 C 12.9375 5.484375 13.03125 5.445312 13.003906 5.367188 C 12.992188 5.339844 12.964844 5.335938 12.949219 5.304688 C 12.933594 5.273438 12.960938 5.238281 12.941406 5.207031 C 12.925781 5.175781 12.894531 5.179688 12.871094 5.160156 C 12.835938 5.132812 12.855469 5.117188 12.839844 5.078125 C 12.789062 4.972656 12.5625 5.089844 12.527344 5.179688 C 12.515625 5.214844 12.480469 5.292969 12.484375 5.332031 C 12.496094 5.386719 12.566406 5.40625 12.589844 5.449219 Z M 12.589844 5.449219 " fill-opacity="1" fill-rule="nonzero"/><path fill="#014d4e" d="M 13.515625 4.832031 C 13.53125 4.679688 13.371094 4.75 13.300781 4.796875 C 13.269531 4.824219 13.238281 4.847656 13.242188 4.882812 C 13.28125 4.898438 13.320312 4.914062 13.363281 4.925781 C 13.375 4.894531 13.507812 4.921875 13.515625 4.832031 Z M 13.515625 4.832031 " fill-opacity="1" fill-rule="nonzero"/><path fill="#014d4e" d="M 12.308594 4.539062 C 12.355469 4.542969 12.445312 4.472656 12.40625 4.421875 C 12.390625 4.398438 12.363281 4.410156 12.339844 4.421875 C 12.316406 4.433594 12.304688 4.425781 12.285156 4.425781 C 12.285156 4.421875 12.28125 4.414062 12.28125 4.410156 C 12.285156 4.390625 12.300781 4.378906 12.320312 4.367188 C 12.335938 4.355469 12.371094 4.328125 12.351562 4.304688 C 12.328125 4.28125 12.28125 4.300781 12.257812 4.3125 C 12.226562 4.335938 12.203125 4.355469 12.195312 4.394531 C 12.1875 4.457031 12.242188 4.535156 12.308594 4.539062 Z M 12.308594 4.539062 " fill-opacity="1" fill-rule="nonzero"/><path fill="#014d4e" d="M 10.125 3.949219 C 10.085938 3.980469 10.109375 4.019531 10.125 4.054688 C 10.132812 4.058594 10.191406 4.148438 10.210938 4.183594 C 10.246094 4.179688 10.273438 4.148438 10.285156 4.117188 C 10.304688 4.058594 10.261719 4.039062 10.222656 4.003906 C 10.195312 3.96875 10.175781 3.910156 10.125 3.949219 Z M 10.125 3.949219 " fill-opacity="1" fill-rule="nonzero"/><g clip-path="url(#7ad9ba5291)"><path fill="#014d4e" d="M 10.054688 3.667969 C 10.128906 3.640625 10.199219 3.507812 10.132812 3.453125 C 10.058594 3.390625 9.945312 3.488281 9.960938 3.570312 C 9.964844 3.570312 10.023438 3.632812 10.054688 3.667969 Z M 10.054688 3.667969 " fill-opacity="1" fill-rule="nonzero"/></g><g clip-path="url(#bc53da183b)"><path fill="#014d4e" d="M 9.816406 3.203125 C 9.828125 3.246094 9.839844 3.289062 9.855469 3.332031 C 9.898438 3.316406 9.921875 3.273438 9.925781 3.230469 C 9.933594 3.183594 9.957031 2.90625 9.835938 2.984375 C 9.757812 3.03125 9.878906 3.171875 9.816406 3.203125 Z M 9.816406 3.203125 " fill-opacity="1" fill-rule="nonzero"/></g></svg>