<svg xmlns="http://www.w3.org/2000/svg" xmlns:xlink="http://www.w3.org/1999/xlink" width="40" zoomAndPan="magnify" viewBox="0 0 30 30.000001" height="40" preserveAspectRatio="xMidYMid meet" version="1.0"><defs><clipPath id="d28eebe8c0"><path d="M 3.386719 4.847656 L 26.613281 4.847656 L 26.613281 24.445312 L 3.386719 24.445312 Z M 3.386719 4.847656 " clip-rule="nonzero"/></clipPath></defs><g clip-path="url(#d28eebe8c0)"><path fill="#014d4e" d="M 3.90625 17.007812 C 3.644531 16.710938 3.394531 16.359375 3.398438 15.964844 C 3.398438 15.777344 3.476562 15.574219 3.648438 15.496094 C 3.703125 15.472656 3.769531 15.460938 3.808594 15.410156 C 3.859375 15.34375 3.832031 15.246094 3.851562 15.164062 C 3.898438 14.964844 4.191406 14.949219 4.367188 15.050781 C 4.546875 15.15625 4.695312 15.328125 4.894531 15.363281 C 5.125 15.40625 5.394531 15.265625 5.574219 15.414062 C 5.730469 15.542969 5.703125 15.816406 5.867188 15.933594 C 5.925781 15.976562 6 15.988281 6.066406 16.011719 C 6.316406 16.085938 6.519531 16.261719 6.734375 16.40625 C 6.953125 16.550781 7.214844 16.664062 7.46875 16.597656 C 7.402344 16.792969 7.46875 17.011719 7.570312 17.191406 C 7.671875 17.371094 7.8125 17.53125 7.914062 17.710938 C 8.027344 17.910156 8.097656 18.144531 8.269531 18.300781 C 8.585938 18.585938 9.113281 18.484375 9.464844 18.730469 C 9.75 18.929688 9.929688 19.355469 10.277344 19.332031 C 10.351562 19.324219 10.421875 19.296875 10.5 19.304688 C 10.601562 19.308594 10.6875 19.375 10.769531 19.429688 C 11.152344 19.691406 11.609375 19.84375 12.074219 19.867188 C 12.277344 19.875 12.5 19.867188 12.664062 19.984375 C 12.351562 20.386719 11.777344 20.441406 11.269531 20.46875 C 11.128906 20.476562 10.988281 20.484375 10.847656 20.492188 C 10.757812 20.496094 10.664062 20.5 10.574219 20.480469 C 10.328125 20.433594 10.097656 20.21875 9.863281 20.296875 C 9.808594 20.316406 9.757812 20.351562 9.703125 20.367188 C 9.628906 20.394531 9.546875 20.386719 9.46875 20.382812 C 8.796875 20.328125 8.121094 20.273438 7.449219 20.21875 C 7.351562 20.210938 7.253906 20.203125 7.15625 20.195312 C 6.945312 20.175781 6.734375 20.160156 6.519531 20.140625 C 6.296875 20.121094 6.070312 20.09375 5.863281 20.007812 C 5.488281 19.84375 5.21875 19.464844 5.195312 19.058594 C 4.953125 19.054688 4.75 18.855469 4.660156 18.632812 C 4.554688 18.363281 4.625 18.074219 4.519531 17.8125 C 4.398438 17.503906 4.121094 17.253906 3.90625 17.007812 Z M 11.042969 22.996094 C 11.242188 23.40625 11.886719 23.515625 12.269531 23.636719 C 12.375 23.667969 12.480469 23.707031 12.554688 23.789062 C 12.609375 23.851562 12.640625 23.933594 12.695312 23.996094 C 12.847656 24.171875 13.117188 24.164062 13.347656 24.140625 C 13.414062 24.132812 13.488281 24.125 13.542969 24.089844 C 13.609375 24.046875 13.644531 23.980469 13.683594 23.914062 C 14.160156 23.125 15.074219 22.695312 15.984375 22.539062 C 16.25 22.492188 16.554688 22.441406 16.6875 22.207031 C 16.703125 22.179688 16.714844 22.148438 16.707031 22.117188 C 16.695312 22.085938 16.667969 22.066406 16.640625 22.050781 C 16.464844 21.9375 16.289062 21.828125 16.109375 21.714844 C 16.039062 21.671875 15.960938 21.625 15.875 21.632812 C 15.8125 21.640625 15.757812 21.679688 15.703125 21.707031 C 15.429688 21.851562 15.085938 21.796875 14.804688 21.664062 C 14.527344 21.53125 14.285156 21.328125 14.023438 21.160156 C 13.910156 21.089844 13.789062 21.027344 13.65625 21.011719 C 13.484375 20.996094 13.316406 21.070312 13.160156 21.144531 C 12.691406 21.367188 12.234375 21.617188 11.796875 21.890625 C 11.460938 22.097656 10.824219 22.542969 11.042969 23 Z M 18.460938 12.4375 C 18.203125 12.503906 17.925781 12.503906 17.683594 12.617188 C 17.441406 12.730469 17.242188 13.015625 17.351562 13.257812 C 17.375 13.300781 17.402344 13.339844 17.425781 13.382812 C 17.484375 13.503906 17.492188 13.640625 17.503906 13.773438 C 17.527344 14.007812 17.582031 14.242188 17.664062 14.460938 C 17.6875 14.523438 17.714844 14.589844 17.765625 14.632812 C 17.824219 14.683594 17.90625 14.695312 17.984375 14.707031 C 18.167969 14.730469 18.347656 14.757812 18.53125 14.785156 C 18.472656 14.925781 18.632812 15.070312 18.785156 15.101562 C 18.933594 15.132812 19.101562 15.109375 19.238281 15.179688 C 19.148438 15.402344 19.359375 15.621094 19.492188 15.820312 C 19.722656 16.160156 19.75 16.589844 19.742188 17 C 19.957031 16.964844 20.230469 16.960938 20.328125 17.152344 C 20.351562 17.203125 20.363281 17.261719 20.390625 17.308594 C 20.472656 17.429688 20.660156 17.425781 20.777344 17.339844 C 20.898438 17.257812 20.964844 17.121094 21.039062 17 C 21.117188 16.878906 21.21875 16.753906 21.363281 16.730469 C 21.640625 16.675781 21.851562 17.011719 22.132812 17.054688 C 22.292969 17.078125 22.449219 17 22.59375 16.925781 C 22.738281 16.851562 22.90625 16.734375 22.882812 16.570312 C 22.871094 16.472656 22.78125 16.394531 22.683594 16.363281 C 22.585938 16.335938 22.460938 16.300781 22.359375 16.308594 C 22.304688 16.265625 22.226562 16.273438 22.160156 16.265625 C 22.089844 16.261719 22.007812 16.222656 22.003906 16.152344 C 22.003906 16.0625 22.136719 15.988281 22.089844 15.910156 C 22.058594 15.863281 21.988281 15.875 21.933594 15.851562 C 21.851562 15.816406 21.835938 15.699219 21.867188 15.617188 C 21.902344 15.53125 21.964844 15.464844 22.007812 15.382812 C 22.09375 15.222656 22.058594 15.003906 21.929688 14.875 C 21.871094 14.773438 21.902344 14.628906 22 14.5625 C 22.035156 14.539062 22.078125 14.523438 22.105469 14.492188 C 22.1875 14.386719 22.050781 14.21875 22.125 14.105469 C 22.175781 14.03125 22.285156 14.039062 22.367188 14 C 22.542969 13.921875 22.542969 13.671875 22.496094 13.484375 C 22.445312 13.296875 22.382812 13.078125 22.503906 12.929688 C 22.558594 12.863281 22.632812 12.828125 22.699219 12.78125 C 22.796875 12.707031 22.871094 12.605469 22.941406 12.503906 C 23.21875 12.105469 23.472656 11.6875 23.707031 11.261719 C 23.753906 11.175781 23.800781 11.070312 23.765625 10.980469 C 23.714844 10.859375 23.539062 10.808594 23.535156 10.683594 C 23.53125 10.589844 23.621094 10.523438 23.644531 10.433594 C 23.671875 10.335938 23.605469 10.226562 23.515625 10.175781 C 23.425781 10.125 23.320312 10.117188 23.21875 10.117188 C 23.152344 10.117188 23.085938 10.117188 23.027344 10.089844 C 22.953125 10.0625 22.898438 9.996094 22.847656 9.9375 C 22.675781 9.730469 22.496094 9.507812 22.453125 9.242188 C 22.410156 8.960938 22.519531 8.632812 22.339844 8.410156 C 22.292969 8.351562 22.230469 8.304688 22.171875 8.261719 C 21.992188 8.136719 21.8125 8.011719 21.636719 7.886719 C 21.523438 7.808594 21.410156 7.726562 21.339844 7.613281 C 21.28125 7.519531 21.25 7.40625 21.160156 7.347656 C 21.039062 7.269531 20.871094 7.335938 20.757812 7.429688 C 20.644531 7.523438 20.542969 7.644531 20.402344 7.691406 C 20.277344 7.730469 20.117188 7.710938 20.035156 7.816406 C 19.960938 7.914062 20.003906 8.054688 19.957031 8.167969 C 19.902344 8.292969 19.753906 8.34375 19.660156 8.441406 C 19.425781 8.6875 19.597656 9.144531 19.375 9.410156 C 19.34375 9.449219 19.304688 9.480469 19.28125 9.523438 C 19.238281 9.597656 19.238281 9.6875 19.226562 9.769531 C 19.195312 9.929688 19.105469 10.070312 19.050781 10.222656 C 19 10.375 18.996094 10.570312 19.121094 10.671875 C 19.152344 10.699219 19.1875 10.71875 19.210938 10.753906 C 19.234375 10.792969 19.230469 10.84375 19.226562 10.886719 C 19.183594 11.265625 19.113281 11.640625 19.011719 12.007812 C 18.941406 12.261719 18.722656 12.367188 18.460938 12.4375 Z M 19.675781 19.050781 C 19.578125 19.101562 19.597656 19.222656 19.679688 19.277344 C 19.785156 19.347656 20.007812 19.375 20.128906 19.363281 C 20.203125 19.355469 20.285156 19.316406 20.3125 19.246094 C 20.335938 19.175781 20.300781 19.105469 20.265625 19.039062 C 20.207031 18.941406 20.152344 18.835938 20.074219 18.753906 C 20.03125 18.710938 19.984375 18.671875 19.949219 18.625 C 19.90625 18.5625 19.882812 18.484375 19.832031 18.425781 C 19.78125 18.367188 19.707031 18.335938 19.628906 18.335938 C 19.589844 18.335938 19.550781 18.34375 19.519531 18.367188 C 19.460938 18.40625 19.4375 18.488281 19.445312 18.5625 C 19.457031 18.636719 19.492188 18.703125 19.527344 18.765625 C 19.578125 18.859375 19.632812 18.953125 19.675781 19.050781 Z M 23.292969 19.34375 C 23.359375 19.328125 23.433594 19.289062 23.460938 19.226562 C 23.503906 19.121094 23.425781 19.007812 23.417969 18.898438 C 23.414062 18.859375 23.421875 18.820312 23.417969 18.785156 C 23.417969 18.691406 23.378906 18.605469 23.332031 18.527344 C 23.304688 18.484375 23.273438 18.441406 23.230469 18.414062 C 23.191406 18.386719 23.136719 18.375 23.089844 18.390625 C 23.007812 18.417969 22.976562 18.515625 22.964844 18.601562 C 22.945312 18.746094 22.949219 18.898438 22.953125 19.042969 C 22.953125 19.070312 22.953125 19.097656 22.960938 19.125 C 22.992188 19.289062 23.128906 19.378906 23.292969 19.34375 Z M 23.253906 20.054688 C 23.285156 20.050781 23.320312 20.042969 23.347656 20.023438 C 23.425781 19.972656 23.441406 19.863281 23.433594 19.769531 C 23.433594 19.71875 23.425781 19.671875 23.402344 19.628906 C 23.390625 19.613281 23.378906 19.597656 23.359375 19.589844 C 23.34375 19.582031 23.324219 19.582031 23.308594 19.582031 C 23.234375 19.582031 23.15625 19.589844 23.097656 19.640625 C 23.058594 19.675781 23.035156 19.734375 23.03125 19.789062 C 23.011719 19.960938 23.039062 20.085938 23.253906 20.054688 Z M 22.886719 6.648438 C 22.945312 6.636719 23.015625 6.617188 23.03125 6.558594 C 23.039062 6.527344 23.027344 6.496094 23.015625 6.46875 C 22.957031 6.34375 22.828125 6.25 22.6875 6.234375 C 22.609375 6.226562 22.519531 6.25 22.480469 6.316406 C 22.441406 6.390625 22.476562 6.484375 22.535156 6.539062 C 22.644531 6.644531 22.746094 6.671875 22.886719 6.648438 Z M 23.265625 7.714844 C 23.375 7.738281 23.484375 7.738281 23.59375 7.726562 C 23.605469 7.722656 23.617188 7.722656 23.625 7.710938 C 23.632812 7.703125 23.632812 7.695312 23.632812 7.683594 C 23.632812 7.632812 23.625 7.582031 23.605469 7.535156 C 23.597656 7.511719 23.582031 7.484375 23.5625 7.464844 C 23.527344 7.4375 23.480469 7.429688 23.4375 7.429688 C 23.363281 7.425781 23.285156 7.441406 23.238281 7.5 C 23.191406 7.554688 23.210938 7.660156 23.28125 7.679688 M 21.875 5.640625 C 21.890625 5.640625 21.90625 5.636719 21.914062 5.625 C 21.941406 5.601562 21.925781 5.558594 21.90625 5.527344 C 21.832031 5.40625 21.75 5.289062 21.660156 5.175781 C 21.632812 5.144531 21.609375 5.113281 21.574219 5.089844 C 21.535156 5.066406 21.488281 5.054688 21.445312 5.046875 C 21.320312 5.027344 21.191406 5.015625 21.066406 5.011719 C 21.058594 5.109375 21.050781 5.214844 21.113281 5.292969 C 21.160156 5.351562 21.234375 5.375 21.300781 5.410156 C 21.519531 5.523438 21.609375 5.6875 21.875 5.640625 Z M 20.710938 5.039062 C 20.730469 5.082031 20.769531 5.121094 20.820312 5.136719 C 20.867188 5.15625 20.925781 5.144531 20.960938 5.105469 C 20.996094 5.070312 21.003906 5.019531 21.007812 4.96875 C 21.007812 4.945312 21.011719 4.917969 21 4.894531 C 20.96875 4.847656 20.898438 4.855469 20.839844 4.867188 C 20.796875 4.878906 20.753906 4.890625 20.71875 4.921875 C 20.6875 4.953125 20.667969 5.007812 20.695312 5.042969 M 26.355469 12.300781 C 26.386719 12.347656 26.464844 12.339844 26.511719 12.304688 C 26.566406 12.265625 26.601562 12.199219 26.605469 12.128906 C 26.609375 12.058594 26.582031 11.988281 26.53125 11.945312 C 26.507812 11.925781 26.484375 11.910156 26.457031 11.90625 C 26.386719 11.898438 26.335938 11.964844 26.296875 12.023438 C 26.277344 12.058594 26.253906 12.097656 26.257812 12.136719 C 26.261719 12.1875 26.304688 12.226562 26.34375 12.257812 M 26.253906 12.808594 C 26.339844 12.886719 26.53125 12.800781 26.578125 12.714844 C 26.597656 12.675781 26.597656 12.625 26.570312 12.59375 C 26.542969 12.566406 26.5 12.558594 26.460938 12.558594 C 26.433594 12.558594 26.40625 12.558594 26.382812 12.566406 C 26.292969 12.597656 26.15625 12.726562 26.253906 12.808594 Z M 24.703125 12.195312 C 24.707031 12.257812 24.757812 12.308594 24.816406 12.324219 C 24.875 12.34375 24.941406 12.335938 25 12.332031 C 25.027344 12.328125 25.058594 12.324219 25.078125 12.300781 C 25.09375 12.285156 25.09375 12.261719 25.097656 12.238281 C 25.105469 12.191406 25.109375 12.140625 25.101562 12.09375 C 25.09375 12.042969 25.070312 11.996094 25.027344 11.96875 C 24.988281 11.945312 24.9375 11.941406 24.890625 11.949219 C 24.835938 11.957031 24.78125 11.976562 24.746094 12.015625 C 24.707031 12.058594 24.691406 12.121094 24.71875 12.171875 M 24.621094 11.609375 C 24.652344 11.621094 24.691406 11.621094 24.726562 11.621094 C 24.820312 11.617188 24.914062 11.613281 25.003906 11.59375 C 25.050781 11.582031 25.097656 11.566406 25.128906 11.53125 C 25.160156 11.5 25.175781 11.441406 25.148438 11.40625 C 25.132812 11.386719 25.109375 11.375 25.089844 11.363281 C 24.996094 11.324219 24.886719 11.3125 24.789062 11.335938 C 24.703125 11.359375 24.429688 11.527344 24.621094 11.609375 Z M 24.621094 11.609375 " fill-opacity="1" fill-rule="nonzero"/></g></svg>