<svg xmlns="http://www.w3.org/2000/svg" xmlns:xlink="http://www.w3.org/1999/xlink" width="40" zoomAndPan="magnify" viewBox="0 0 30 30.000001" height="40" preserveAspectRatio="xMidYMid meet" version="1.0"><defs><clipPath id="e7021bfef2"><path d="M 15 15 L 26.613281 15 L 26.613281 20 L 15 20 Z M 15 15 " clip-rule="nonzero"/></clipPath><clipPath id="6678e5c46e"><path d="M 3.386719 9.230469 L 14 9.230469 L 14 16 L 3.386719 16 Z M 3.386719 9.230469 " clip-rule="nonzero"/></clipPath></defs><g clip-path="url(#e7021bfef2)"><path fill="#014d4e" d="M 26.464844 18.882812 C 26.386719 18.820312 26.386719 18.820312 26.363281 18.714844 C 26.34375 18.652344 26.308594 18.585938 26.261719 18.542969 C 26.203125 18.496094 26.132812 18.484375 26.066406 18.460938 C 26.019531 18.441406 25.992188 18.433594 25.941406 18.429688 C 25.90625 18.421875 25.867188 18.429688 25.84375 18.414062 C 25.738281 18.351562 25.707031 18.1875 25.605469 18.117188 C 25.542969 18.074219 25.460938 18.101562 25.394531 18.078125 C 25.332031 18.058594 25.277344 18.039062 25.222656 18.023438 C 25.195312 18.015625 25.078125 17.972656 25.082031 17.9375 C 25.085938 17.894531 25.167969 17.90625 25.148438 17.824219 C 25.082031 17.800781 25.019531 17.824219 24.957031 17.828125 C 24.941406 17.773438 24.949219 17.703125 24.890625 17.675781 C 24.886719 17.667969 24.816406 17.667969 24.804688 17.667969 C 24.746094 17.675781 24.75 17.65625 24.707031 17.710938 C 24.636719 17.804688 24.554688 17.933594 24.425781 17.941406 C 24.375 17.941406 24.292969 17.9375 24.230469 17.929688 C 24.269531 17.855469 24.304688 17.785156 24.382812 17.742188 C 24.457031 17.699219 24.722656 17.582031 24.6875 17.46875 C 24.679688 17.445312 24.625 17.390625 24.605469 17.371094 C 24.542969 17.296875 24.550781 17.324219 24.472656 17.339844 C 24.425781 17.347656 24.347656 17.351562 24.3125 17.308594 C 24.277344 17.265625 24.320312 17.207031 24.261719 17.175781 C 24.238281 17.160156 24.207031 17.195312 24.179688 17.179688 C 24.15625 17.164062 24.160156 17.140625 24.144531 17.117188 C 24.121094 17.074219 24.117188 17.011719 24.070312 16.988281 C 23.992188 17.011719 23.953125 17.070312 23.890625 16.996094 C 23.84375 16.933594 23.851562 16.839844 23.808594 16.777344 C 23.671875 16.808594 23.550781 16.695312 23.417969 16.78125 C 23.347656 16.824219 23.3125 16.855469 23.222656 16.828125 C 23.171875 16.808594 23.113281 16.765625 23.070312 16.738281 C 23.011719 16.710938 22.941406 16.679688 22.878906 16.691406 C 22.8125 16.699219 22.808594 16.742188 22.734375 16.691406 C 22.644531 16.625 22.609375 16.492188 22.480469 16.503906 C 22.421875 16.507812 22.363281 16.527344 22.304688 16.527344 C 22.246094 16.527344 22.203125 16.523438 22.144531 16.53125 C 22.085938 16.460938 22.011719 16.523438 21.957031 16.535156 C 21.90625 16.53125 21.847656 16.523438 21.792969 16.511719 C 21.71875 16.425781 21.644531 16.351562 21.574219 16.257812 C 21.519531 16.191406 21.492188 16.164062 21.40625 16.152344 C 21.34375 16.144531 21.285156 16.15625 21.234375 16.128906 C 21.171875 16.09375 21.117188 16.042969 21.050781 16.007812 C 20.992188 15.980469 20.941406 15.984375 20.878906 15.964844 C 20.726562 15.917969 20.667969 15.75 20.488281 15.753906 C 20.472656 15.800781 20.484375 15.855469 20.464844 15.902344 C 20.386719 15.84375 20.296875 15.808594 20.207031 15.765625 C 20.171875 15.75 20.125 15.734375 20.09375 15.722656 C 20.039062 15.6875 20.011719 15.609375 19.96875 15.5625 C 19.859375 15.449219 19.683594 15.339844 19.523438 15.328125 C 19.429688 15.324219 19.339844 15.328125 19.25 15.335938 C 19.191406 15.339844 19.136719 15.371094 19.082031 15.375 C 19.03125 15.378906 18.984375 15.367188 18.933594 15.375 C 18.863281 15.386719 18.800781 15.421875 18.726562 15.421875 C 18.667969 15.421875 18.621094 15.394531 18.570312 15.375 C 18.515625 15.355469 18.449219 15.328125 18.390625 15.339844 C 18.324219 15.355469 18.3125 15.414062 18.265625 15.457031 C 18.1875 15.523438 18.015625 15.566406 17.910156 15.570312 C 17.839844 15.578125 17.84375 15.546875 17.796875 15.617188 C 17.746094 15.675781 17.765625 15.6875 17.695312 15.6875 C 17.578125 15.6875 17.53125 15.648438 17.453125 15.75 C 17.417969 15.796875 17.425781 15.820312 17.378906 15.835938 C 17.34375 15.84375 17.261719 15.839844 17.226562 15.84375 C 17.132812 15.855469 17.03125 15.863281 16.941406 15.871094 C 16.941406 15.871094 16.945312 15.863281 16.945312 15.863281 C 16.894531 15.894531 16.835938 15.921875 16.789062 15.953125 C 16.730469 15.953125 16.671875 15.945312 16.613281 15.945312 C 16.597656 15.933594 16.535156 15.941406 16.5 15.933594 C 16.472656 15.921875 16.433594 15.894531 16.394531 15.898438 C 16.328125 15.898438 16.226562 15.976562 16.179688 16.019531 C 16.121094 16.074219 16.085938 16.164062 16.023438 16.207031 C 15.949219 16.261719 15.835938 16.269531 15.773438 16.351562 C 15.71875 16.421875 15.769531 16.488281 15.703125 16.554688 C 15.65625 16.605469 15.558594 16.640625 15.589844 16.730469 C 15.601562 16.773438 15.65625 16.785156 15.683594 16.820312 C 15.71875 16.863281 15.722656 16.898438 15.730469 16.945312 C 15.738281 16.984375 15.726562 17.039062 15.746094 17.074219 C 15.773438 17.117188 15.867188 17.144531 15.910156 17.164062 C 15.988281 17.199219 16.0625 17.234375 16.144531 17.257812 C 16.179688 17.265625 16.242188 17.265625 16.265625 17.285156 C 16.292969 17.304688 16.296875 17.347656 16.324219 17.367188 C 16.414062 17.449219 16.480469 17.339844 16.578125 17.34375 C 16.613281 17.410156 16.582031 17.5 16.613281 17.570312 C 16.652344 17.648438 16.710938 17.605469 16.78125 17.636719 C 16.941406 17.707031 16.996094 17.90625 17.164062 17.976562 C 17.230469 17.929688 17.175781 17.8125 17.234375 17.78125 C 17.300781 17.742188 17.347656 17.894531 17.367188 17.949219 C 17.402344 18.054688 17.460938 18.140625 17.511719 18.234375 C 17.546875 18.289062 17.566406 18.371094 17.605469 18.417969 C 17.628906 18.445312 17.683594 18.472656 17.71875 18.507812 C 17.742188 18.535156 17.792969 18.601562 17.820312 18.613281 C 17.859375 18.632812 17.890625 18.605469 17.933594 18.609375 C 18.035156 18.621094 18.011719 18.6875 18.050781 18.753906 C 18.097656 18.839844 18.203125 18.859375 18.296875 18.871094 C 18.367188 18.875 18.433594 18.875 18.507812 18.894531 C 18.550781 18.902344 18.601562 18.925781 18.644531 18.90625 C 18.75 18.863281 18.792969 18.757812 18.917969 18.734375 C 18.96875 18.726562 19.046875 18.738281 19.089844 18.714844 C 19.160156 18.675781 19.140625 18.613281 19.144531 18.546875 C 19.242188 18.507812 19.285156 18.550781 19.355469 18.605469 C 19.445312 18.671875 19.433594 18.601562 19.539062 18.605469 C 19.625 18.605469 19.765625 18.820312 19.773438 18.90625 C 19.6875 18.902344 19.570312 18.738281 19.496094 18.808594 C 19.378906 18.90625 19.703125 18.976562 19.753906 18.996094 C 19.824219 19.011719 19.886719 19.050781 19.945312 19.074219 C 20.023438 19.105469 20.09375 19.101562 20.179688 19.09375 C 20.261719 19.089844 20.363281 19.109375 20.441406 19.089844 C 20.460938 19.085938 20.480469 19.074219 20.503906 19.066406 C 20.511719 19.101562 20.527344 19.132812 20.535156 19.167969 C 20.507812 19.273438 20.746094 19.300781 20.777344 19.410156 C 20.785156 19.453125 20.773438 19.515625 20.789062 19.554688 C 20.824219 19.613281 20.894531 19.625 20.953125 19.625 C 21.011719 19.625 21.082031 19.59375 21.152344 19.597656 C 21.207031 19.605469 21.28125 19.636719 21.339844 19.617188 C 21.410156 19.589844 21.410156 19.507812 21.476562 19.480469 C 21.535156 19.453125 21.617188 19.464844 21.675781 19.464844 C 21.75 19.460938 21.816406 19.449219 21.890625 19.410156 C 21.964844 19.375 21.972656 19.355469 22.042969 19.410156 C 22.109375 19.46875 22.160156 19.472656 22.234375 19.511719 C 22.3125 19.550781 22.351562 19.597656 22.453125 19.597656 C 22.488281 19.597656 22.542969 19.589844 22.582031 19.585938 C 22.644531 19.570312 22.683594 19.527344 22.746094 19.511719 C 22.851562 19.484375 22.960938 19.523438 23.0625 19.535156 C 23.148438 19.550781 23.207031 19.488281 23.292969 19.488281 C 23.402344 19.484375 23.449219 19.515625 23.523438 19.589844 C 23.609375 19.679688 23.675781 19.609375 23.785156 19.574219 C 23.90625 19.542969 24.058594 19.570312 24.167969 19.609375 C 24.265625 19.640625 24.328125 19.640625 24.425781 19.640625 C 24.53125 19.640625 24.554688 19.632812 24.65625 19.59375 C 24.710938 19.574219 24.78125 19.566406 24.835938 19.554688 C 24.851562 19.550781 24.875 19.550781 24.898438 19.546875 C 24.980469 19.605469 25.0625 19.703125 25.191406 19.667969 C 25.25 19.648438 25.269531 19.617188 25.339844 19.625 C 25.40625 19.628906 25.46875 19.648438 25.539062 19.648438 C 25.609375 19.648438 25.691406 19.628906 25.757812 19.636719 C 25.816406 19.648438 25.84375 19.683594 25.902344 19.703125 C 25.988281 19.734375 26.09375 19.738281 26.1875 19.761719 C 26.261719 19.78125 26.300781 19.785156 26.324219 19.714844 C 26.347656 19.652344 26.328125 19.574219 26.363281 19.511719 C 26.402344 19.449219 26.46875 19.4375 26.492188 19.363281 C 26.550781 19.195312 26.613281 19.011719 26.464844 18.882812 Z M 26.464844 18.882812 " fill-opacity="1" fill-rule="nonzero"/></g><path fill="#014d4e" d="M 14.964844 16.101562 C 14.929688 16.070312 14.914062 16.03125 14.878906 16.003906 C 14.804688 15.957031 14.738281 15.976562 14.667969 16.007812 C 14.667969 16.058594 14.667969 16.105469 14.679688 16.148438 C 14.675781 16.1875 14.667969 16.230469 14.660156 16.269531 C 14.691406 16.304688 14.78125 16.335938 14.828125 16.367188 C 14.898438 16.417969 14.960938 16.492188 15.035156 16.425781 C 15.09375 16.378906 15.089844 16.25 15.054688 16.175781 C 15.03125 16.128906 15.007812 16.136719 14.964844 16.101562 Z M 14.964844 16.101562 " fill-opacity="1" fill-rule="nonzero"/><g clip-path="url(#6678e5c46e)"><path fill="#014d4e" d="M 13.523438 12.648438 C 13.535156 12.640625 13.542969 12.628906 13.546875 12.609375 C 13.566406 12.5625 13.546875 12.535156 13.546875 12.484375 C 13.542969 12.371094 13.527344 12.367188 13.464844 12.285156 C 13.421875 12.226562 13.4375 12.207031 13.429688 12.144531 C 13.417969 12.074219 13.394531 12.035156 13.347656 11.972656 C 13.304688 11.910156 13.261719 11.871094 13.234375 11.800781 C 13.21875 11.722656 13.207031 11.644531 13.160156 11.578125 C 13.09375 11.488281 12.941406 11.464844 12.925781 11.359375 C 12.917969 11.316406 12.953125 11.253906 12.914062 11.21875 C 12.875 11.183594 12.832031 11.222656 12.785156 11.21875 C 12.769531 11.109375 12.851562 11.054688 12.765625 10.96875 C 12.695312 10.898438 12.601562 10.824219 12.527344 10.769531 C 12.4375 10.699219 12.402344 10.613281 12.363281 10.511719 C 12.324219 10.414062 12.304688 10.382812 12.199219 10.421875 C 12.164062 10.363281 12.203125 10.300781 12.179688 10.246094 C 12.15625 10.191406 12.050781 10.121094 12.011719 10.066406 C 11.949219 9.988281 11.890625 9.921875 11.835938 9.839844 C 11.78125 9.769531 11.777344 9.664062 11.722656 9.589844 C 11.679688 9.535156 11.589844 9.492188 11.535156 9.433594 C 11.492188 9.386719 11.421875 9.328125 11.351562 9.328125 C 11.289062 9.328125 11.238281 9.375 11.175781 9.371094 C 11.125 9.367188 11.050781 9.335938 11.003906 9.3125 C 10.925781 9.273438 10.914062 9.238281 10.832031 9.273438 C 10.785156 9.292969 10.746094 9.332031 10.695312 9.355469 C 10.691406 9.359375 10.621094 9.390625 10.558594 9.417969 C 10.519531 9.398438 10.484375 9.378906 10.441406 9.367188 C 10.285156 9.316406 10.144531 9.347656 10.015625 9.4375 C 9.933594 9.496094 9.867188 9.523438 9.8125 9.617188 C 9.769531 9.679688 9.746094 9.777344 9.652344 9.777344 C 9.539062 9.777344 9.464844 9.660156 9.347656 9.664062 C 9.238281 9.664062 9.128906 9.722656 9.011719 9.671875 C 8.941406 9.644531 8.835938 9.496094 8.738281 9.542969 C 8.707031 9.5625 8.707031 9.636719 8.660156 9.660156 C 8.636719 9.671875 8.597656 9.660156 8.570312 9.667969 C 8.476562 9.695312 8.445312 9.777344 8.335938 9.773438 C 8.257812 9.769531 8.191406 9.75 8.113281 9.773438 C 8.078125 9.789062 8.070312 9.808594 8.019531 9.816406 C 7.964844 9.820312 7.972656 9.808594 7.921875 9.792969 C 7.847656 9.769531 7.789062 9.746094 7.707031 9.765625 C 7.628906 9.785156 7.558594 9.828125 7.492188 9.859375 C 7.328125 9.9375 7.199219 10.050781 7.023438 10.109375 C 6.949219 10.132812 6.890625 10.144531 6.8125 10.144531 C 6.746094 10.144531 6.695312 10.164062 6.621094 10.183594 C 6.554688 10.203125 6.484375 10.191406 6.421875 10.210938 C 6.339844 10.234375 6.339844 10.292969 6.28125 10.332031 C 6.21875 10.378906 5.984375 10.292969 6.046875 10.421875 C 6.074219 10.46875 6.097656 10.519531 6.121094 10.566406 C 6.074219 10.550781 6.027344 10.53125 5.980469 10.519531 C 5.980469 10.519531 5.984375 10.523438 5.984375 10.523438 C 5.949219 10.507812 5.921875 10.523438 5.882812 10.523438 C 5.882812 10.542969 5.867188 10.5625 5.863281 10.574219 C 5.832031 10.539062 5.785156 10.523438 5.753906 10.488281 C 5.714844 10.449219 5.695312 10.394531 5.644531 10.371094 C 5.53125 10.316406 5.4375 10.429688 5.382812 10.507812 C 5.3125 10.382812 5.105469 10.546875 4.984375 10.542969 C 4.941406 10.542969 4.894531 10.519531 4.851562 10.511719 C 4.765625 10.503906 4.785156 10.507812 4.722656 10.445312 C 4.664062 10.386719 4.59375 10.363281 4.511719 10.34375 C 4.425781 10.324219 4.324219 10.273438 4.230469 10.277344 C 4.21875 10.207031 4.175781 10.171875 4.101562 10.152344 C 4.027344 10.132812 3.988281 10.195312 3.917969 10.191406 C 3.867188 10.191406 3.796875 10.113281 3.746094 10.101562 C 3.644531 10.078125 3.558594 10.152344 3.484375 10.207031 C 3.53125 10.257812 3.429688 10.425781 3.414062 10.492188 C 3.386719 10.660156 3.472656 10.761719 3.601562 10.859375 C 3.746094 10.96875 3.863281 11.089844 3.976562 11.226562 C 4.015625 11.277344 4.0625 11.308594 4.101562 11.351562 C 4.15625 11.421875 4.160156 11.457031 4.222656 11.496094 C 4.351562 11.5625 4.496094 11.613281 4.601562 11.726562 C 4.679688 11.808594 4.75 11.894531 4.8125 11.988281 C 4.882812 12.085938 4.953125 12.117188 5.046875 12.183594 C 5.078125 12.203125 5.105469 12.242188 5.140625 12.253906 C 5.183594 12.273438 5.210938 12.25 5.25 12.28125 C 5.269531 12.292969 5.28125 12.332031 5.296875 12.355469 C 5.34375 12.414062 5.414062 12.453125 5.464844 12.511719 C 5.542969 12.601562 5.625 12.6875 5.710938 12.777344 C 5.800781 12.875 5.917969 12.945312 6.003906 13.046875 C 6.074219 13.132812 6.105469 13.234375 6.171875 13.320312 C 6.253906 13.421875 6.320312 13.492188 6.425781 13.570312 C 6.539062 13.652344 6.65625 13.765625 6.792969 13.816406 C 6.808594 13.820312 6.824219 13.824219 6.847656 13.835938 C 6.765625 13.960938 6.675781 14.148438 6.746094 14.277344 C 6.792969 14.359375 6.894531 14.429688 6.957031 14.5 C 7.023438 14.578125 7.039062 14.664062 7.101562 14.742188 C 7.183594 14.835938 7.289062 14.835938 7.398438 14.890625 C 7.476562 14.925781 7.496094 14.976562 7.519531 15.054688 C 7.542969 15.117188 7.621094 15.203125 7.617188 15.265625 C 7.726562 15.253906 7.820312 15.386719 7.933594 15.398438 C 8.046875 15.414062 8.128906 15.324219 8.234375 15.292969 C 8.355469 15.261719 8.503906 15.292969 8.617188 15.242188 C 8.742188 15.183594 8.785156 15.082031 8.945312 15.167969 C 9.058594 15.230469 9.214844 15.359375 9.328125 15.242188 C 9.402344 15.171875 9.371094 15.160156 9.476562 15.125 C 9.550781 15.101562 9.609375 15.097656 9.675781 15.085938 C 9.765625 15.074219 9.824219 15.113281 9.910156 15.105469 C 9.96875 15.105469 10.007812 15.066406 10.058594 15.050781 C 10.148438 15.015625 10.242188 15.003906 10.332031 14.972656 C 10.421875 14.9375 10.523438 14.929688 10.621094 14.925781 C 10.710938 14.917969 10.777344 14.9375 10.863281 14.960938 C 10.9375 14.988281 11.082031 15.039062 11.152344 15.011719 C 11.246094 14.976562 11.300781 14.789062 11.34375 14.714844 C 11.359375 14.683594 11.394531 14.644531 11.425781 14.601562 C 11.4375 14.605469 11.449219 14.613281 11.464844 14.621094 C 11.484375 14.625 11.523438 14.644531 11.542969 14.652344 C 11.570312 14.652344 11.574219 14.625 11.59375 14.625 C 11.691406 14.617188 11.761719 14.660156 11.824219 14.730469 C 11.898438 14.8125 11.84375 14.894531 11.929688 14.960938 C 12.003906 15.019531 12.070312 15.066406 12.121094 15.144531 C 12.191406 15.25 12.191406 15.25 12.304688 15.285156 C 12.371094 15.304688 12.421875 15.355469 12.484375 15.386719 C 12.554688 15.417969 12.632812 15.410156 12.699219 15.433594 C 12.785156 15.464844 12.785156 15.535156 12.867188 15.453125 C 12.886719 15.433594 12.890625 15.402344 12.910156 15.386719 C 12.925781 15.371094 12.9375 15.378906 12.953125 15.367188 C 12.976562 15.339844 13 15.3125 13.023438 15.285156 C 13.097656 15.191406 13.144531 15.140625 13.128906 15.019531 C 13.125 14.960938 13.097656 14.90625 13.09375 14.847656 C 13.082031 14.792969 13.105469 14.738281 13.097656 14.683594 C 13.085938 14.601562 13.035156 14.558594 13.035156 14.476562 C 13.109375 14.40625 13.066406 14.324219 13.117188 14.246094 C 13.160156 14.175781 13.21875 14.203125 13.28125 14.175781 C 13.4375 14.097656 13.390625 13.933594 13.359375 13.800781 C 13.417969 13.714844 13.5 13.636719 13.546875 13.542969 C 13.585938 13.464844 13.609375 13.378906 13.671875 13.3125 C 13.730469 13.253906 13.8125 13.238281 13.8125 13.144531 C 13.808594 13.007812 13.605469 12.882812 13.609375 12.757812 C 13.585938 12.734375 13.554688 12.691406 13.523438 12.648438 Z M 13.523438 12.648438 " fill-opacity="1" fill-rule="nonzero"/></g></svg>