<svg xmlns="http://www.w3.org/2000/svg" xmlns:xlink="http://www.w3.org/1999/xlink" width="40" zoomAndPan="magnify" viewBox="0 0 30 30.000001" height="40" preserveAspectRatio="xMidYMid meet" version="1.0"><defs><clipPath id="ef097ecf61"><path d="M 5.855469 2.902344 L 24 2.902344 L 24 26.128906 L 5.855469 26.128906 Z M 5.855469 2.902344 " clip-rule="nonzero"/></clipPath></defs><g clip-path="url(#ef097ecf61)"><path fill="#014d4e" d="M 5.941406 20.09375 C 6.027344 20.265625 6.207031 20.609375 6.359375 20.894531 C 6.515625 21.179688 6.648438 21.402344 6.75 21.511719 C 6.847656 21.621094 6.917969 21.613281 6.980469 21.691406 C 7.042969 21.769531 7.105469 21.933594 7.277344 22.460938 C 7.449219 22.984375 7.730469 23.871094 7.933594 24.519531 C 8.140625 25.164062 8.273438 25.566406 8.339844 25.78125 C 8.40625 25.992188 8.414062 26.011719 8.445312 26.015625 C 8.480469 26.015625 8.542969 26.003906 8.679688 25.960938 C 8.8125 25.914062 9.027344 25.84375 9.179688 25.738281 C 9.335938 25.632812 9.433594 25.492188 9.53125 25.363281 C 9.628906 25.234375 9.726562 25.113281 9.855469 25.011719 C 9.984375 24.910156 10.148438 24.828125 10.304688 24.738281 C 10.460938 24.648438 10.609375 24.550781 10.738281 24.480469 C 10.871094 24.414062 10.976562 24.367188 11.121094 24.28125 C 11.265625 24.199219 11.445312 24.070312 11.640625 23.875 C 11.839844 23.683594 12.054688 23.425781 12.191406 23.207031 C 12.328125 22.988281 12.390625 22.8125 12.535156 22.652344 C 12.683594 22.492188 12.914062 22.347656 13.132812 22.230469 C 13.347656 22.113281 13.546875 22.027344 13.65625 21.960938 C 13.761719 21.894531 13.777344 21.847656 13.828125 21.695312 C 13.878906 21.542969 13.964844 21.285156 14.011719 21.109375 C 14.054688 20.9375 14.058594 20.851562 14.03125 20.578125 C 14.003906 20.300781 13.945312 19.839844 13.882812 19.429688 C 13.820312 19.019531 13.753906 18.660156 13.707031 18.367188 C 13.660156 18.070312 13.636719 17.839844 13.617188 17.679688 C 13.601562 17.515625 13.589844 17.421875 13.601562 17.320312 C 13.613281 17.222656 13.648438 17.121094 13.679688 17.070312 C 13.714844 17.019531 13.75 17.019531 13.796875 17.019531 C 13.847656 17.015625 13.910156 17.015625 13.933594 16.988281 C 13.957031 16.960938 13.941406 16.914062 13.9375 16.875 C 13.9375 16.835938 13.953125 16.8125 13.964844 16.78125 C 13.976562 16.75 13.988281 16.714844 14.003906 16.644531 C 14.019531 16.574219 14.042969 16.464844 14.085938 16.347656 C 14.132812 16.230469 14.199219 16.101562 14.265625 16.015625 C 14.332031 15.929688 14.394531 15.882812 14.414062 15.832031 C 14.4375 15.785156 14.417969 15.726562 14.507812 15.609375 C 14.597656 15.492188 14.789062 15.316406 14.914062 15.203125 C 15.035156 15.09375 15.089844 15.046875 15.117188 14.992188 C 15.140625 14.9375 15.140625 14.871094 15.160156 14.832031 C 15.179688 14.789062 15.21875 14.769531 15.28125 14.703125 C 15.34375 14.640625 15.433594 14.53125 15.503906 14.464844 C 15.570312 14.398438 15.617188 14.371094 15.660156 14.359375 C 15.699219 14.347656 15.734375 14.347656 15.761719 14.324219 C 15.785156 14.304688 15.804688 14.261719 15.832031 14.21875 C 15.863281 14.179688 15.90625 14.148438 15.945312 14.132812 C 15.980469 14.117188 16.007812 14.125 16.035156 14.109375 C 16.058594 14.097656 16.085938 14.058594 16.09375 14.023438 C 16.101562 13.988281 16.097656 13.949219 16.144531 13.894531 C 16.195312 13.84375 16.300781 13.773438 16.386719 13.699219 C 16.476562 13.628906 16.550781 13.550781 16.609375 13.507812 C 16.671875 13.46875 16.71875 13.457031 16.765625 13.441406 C 16.808594 13.425781 16.84375 13.402344 16.90625 13.332031 C 16.964844 13.261719 17.046875 13.140625 17.113281 13.035156 C 17.183594 12.925781 17.238281 12.832031 17.300781 12.746094 C 17.363281 12.664062 17.429688 12.589844 17.515625 12.542969 C 17.601562 12.496094 17.699219 12.472656 17.765625 12.4375 C 17.832031 12.402344 17.867188 12.355469 17.925781 12.261719 C 17.984375 12.167969 18.0625 12.023438 18.171875 11.886719 C 18.28125 11.75 18.417969 11.617188 18.542969 11.503906 C 18.667969 11.394531 18.78125 11.308594 18.839844 11.238281 C 18.898438 11.171875 18.898438 11.121094 18.953125 11.039062 C 19.007812 10.957031 19.113281 10.839844 19.175781 10.765625 C 19.242188 10.6875 19.269531 10.648438 19.300781 10.632812 C 19.335938 10.617188 19.375 10.625 19.40625 10.621094 C 19.441406 10.621094 19.464844 10.613281 19.480469 10.574219 C 19.5 10.535156 19.515625 10.46875 19.558594 10.394531 C 19.605469 10.320312 19.679688 10.238281 19.738281 10.199219 C 19.792969 10.160156 19.832031 10.160156 19.875 10.128906 C 19.921875 10.097656 19.972656 10.035156 20.117188 9.894531 C 20.261719 9.753906 20.496094 9.527344 20.691406 9.339844 C 20.882812 9.148438 21.035156 8.992188 21.164062 8.902344 C 21.292969 8.808594 21.398438 8.78125 21.523438 8.757812 C 21.648438 8.730469 21.789062 8.703125 21.890625 8.667969 C 21.992188 8.632812 22.050781 8.585938 22.144531 8.523438 C 22.238281 8.464844 22.367188 8.386719 22.496094 8.320312 C 22.625 8.253906 22.753906 8.195312 22.863281 8.140625 C 22.976562 8.085938 23.066406 8.035156 23.128906 7.984375 C 23.1875 7.9375 23.214844 7.894531 23.253906 7.863281 C 23.296875 7.832031 23.355469 7.816406 23.398438 7.792969 C 23.441406 7.773438 23.472656 7.746094 23.484375 7.710938 C 23.496094 7.671875 23.488281 7.621094 23.484375 7.582031 C 23.480469 7.542969 23.476562 7.515625 23.507812 7.464844 C 23.542969 7.417969 23.609375 7.351562 23.644531 7.289062 C 23.679688 7.222656 23.6875 7.164062 23.710938 7.109375 C 23.738281 7.054688 23.785156 7.003906 23.839844 6.957031 C 23.894531 6.90625 23.960938 6.863281 24.003906 6.78125 C 24.050781 6.703125 24.074219 6.589844 24.09375 6.507812 C 24.117188 6.421875 24.128906 6.371094 24.113281 6.3125 C 24.097656 6.253906 24.050781 6.183594 23.878906 6.035156 C 23.703125 5.886719 23.402344 5.652344 23.136719 5.441406 C 22.867188 5.226562 22.636719 5.027344 22.3125 4.757812 C 21.988281 4.488281 21.574219 4.144531 21.222656 3.863281 C 20.875 3.585938 20.589844 3.367188 20.40625 3.226562 C 20.222656 3.085938 20.140625 3.023438 20.097656 3 C 20.050781 2.976562 20.039062 2.992188 19.882812 3.242188 C 19.730469 3.488281 19.433594 3.96875 18.945312 4.695312 C 18.457031 5.421875 17.773438 6.398438 17.414062 6.898438 C 17.054688 7.402344 17.015625 7.429688 16.980469 7.441406 C 16.945312 7.453125 16.910156 7.449219 16.875 7.441406 C 16.84375 7.433594 16.808594 7.425781 16.800781 7.4375 C 16.792969 7.453125 16.808594 7.492188 16.820312 7.527344 C 16.832031 7.5625 16.84375 7.597656 16.832031 7.640625 C 16.820312 7.679688 16.78125 7.726562 16.316406 8.308594 C 15.851562 8.890625 14.960938 10.007812 14.140625 11.011719 C 13.320312 12.019531 12.566406 12.914062 12.082031 13.476562 C 11.59375 14.039062 11.375 14.269531 11.175781 14.464844 C 10.980469 14.65625 10.804688 14.8125 10.691406 14.929688 C 10.574219 15.050781 10.519531 15.132812 10.457031 15.199219 C 10.394531 15.265625 10.328125 15.316406 10.230469 15.394531 C 10.136719 15.472656 10.011719 15.582031 9.894531 15.699219 C 9.773438 15.820312 9.660156 15.953125 9.441406 16.203125 C 9.222656 16.449219 8.90625 16.8125 8.582031 17.15625 C 8.261719 17.5 7.941406 17.828125 7.605469 18.171875 C 7.273438 18.515625 6.929688 18.882812 6.679688 19.140625 C 6.429688 19.398438 6.273438 19.546875 6.175781 19.636719 C 6.082031 19.726562 6.039062 19.757812 6.007812 19.78125 C 5.976562 19.804688 5.953125 19.816406 5.933594 19.832031 C 5.914062 19.851562 5.898438 19.867188 5.886719 19.882812 C 5.875 19.894531 5.863281 19.90625 5.855469 19.914062 C 5.851562 19.917969 5.851562 19.917969 5.941406 20.09375 Z M 5.941406 20.09375 " fill-opacity="1" fill-rule="evenodd"/></g></svg>