<svg xmlns="http://www.w3.org/2000/svg" xmlns:xlink="http://www.w3.org/1999/xlink" width="40" zoomAndPan="magnify" viewBox="0 0 30 30.000001" height="40" preserveAspectRatio="xMidYMid meet" version="1.0"><defs><clipPath id="8c1c7a4f68"><path d="M 4.273438 2.902344 L 26 2.902344 L 26 26.128906 L 4.273438 26.128906 Z M 4.273438 2.902344 " clip-rule="nonzero"/></clipPath></defs><g clip-path="url(#8c1c7a4f68)"><path fill="#014d4e" d="M 25.71875 12.828125 L 25.101562 13.644531 L 25.101562 14.527344 L 24.558594 14.613281 L 24.503906 15.261719 L 23.808594 15.871094 L 23.601562 16.445312 L 23.808594 17.085938 L 23.253906 17.5625 L 22.800781 17.644531 L 22.429688 18.042969 L 22.953125 18.78125 L 23.148438 19.4375 L 22.363281 19.578125 L 21.648438 19.1875 L 21.410156 19.921875 L 20.664062 19.921875 L 19.757812 21.269531 L 20.066406 21.796875 L 18.664062 21.78125 L 18.238281 20.96875 L 17.414062 20.175781 L 16.191406 21.300781 L 15.414062 21.5 L 13.15625 22.625 L 13.316406 24.796875 L 12.707031 25.890625 L 11.566406 26.109375 L 11.25 25.699219 L 10.769531 25.078125 L 11.566406 24.6875 L 11.566406 23.921875 L 10.722656 22.78125 L 10.644531 21.136719 L 9.875 19.578125 L 8.75 18.902344 L 8.238281 18.359375 L 6.972656 18.359375 L 6.703125 16.980469 L 6.054688 15.351562 L 4.960938 14.550781 L 4.894531 13.507812 L 5.34375 12.988281 L 4.367188 12.019531 L 4.273438 11.007812 L 6.53125 11.363281 L 7.066406 10.9375 L 7.066406 10.195312 L 8.238281 10.078125 L 9.097656 9.988281 L 9.648438 9.71875 L 10.429688 9.246094 L 10.285156 8.84375 L 9.773438 8.339844 L 9.949219 7.863281 L 10.660156 7.8125 L 10.9375 7.058594 L 11.617188 7.246094 L 12.011719 6.597656 L 12.246094 5.839844 L 12.171875 5.039062 L 11.609375 4.359375 L 11.214844 3.808594 L 12.070312 3.601562 L 12.792969 3.296875 L 13.371094 3.058594 L 14.074219 2.921875 L 14.410156 3.441406 L 14.734375 3.945312 L 14.234375 3.945312 L 13.886719 4.222656 L 14.628906 4.644531 L 15.476562 5.160156 L 16.253906 5.039062 L 16.847656 5.347656 L 17.054688 4.902344 L 17.433594 5.214844 L 17.984375 6.164062 L 18.109375 7.152344 L 18.871094 7.152344 L 19.035156 7.925781 L 19.265625 8.875 L 20.359375 9.113281 L 21.171875 9.433594 L 21.015625 10.269531 L 20.871094 11.019531 L 20.652344 11.402344 L 21.140625 11.558594 L 22.769531 11.609375 L 23.347656 12.175781 L 23.976562 12.652344 L 25.121094 12.175781 Z M 25.71875 12.828125 " fill-opacity="1" fill-rule="nonzero"/></g></svg>