<svg xmlns="http://www.w3.org/2000/svg" xmlns:xlink="http://www.w3.org/1999/xlink" width="40" zoomAndPan="magnify" viewBox="0 0 30 30.000001" height="40" preserveAspectRatio="xMidYMid meet" version="1.0"><defs><clipPath id="4b3557819d"><path d="M 3.386719 10.191406 L 26.613281 10.191406 L 26.613281 18.898438 L 3.386719 18.898438 Z M 3.386719 10.191406 " clip-rule="nonzero"/></clipPath></defs><g clip-path="url(#4b3557819d)"><path fill="#014d4e" d="M 17.238281 16.890625 L 17.824219 16.75 L 17.394531 16.484375 L 17.242188 16.425781 L 17.09375 16.417969 L 16.789062 16.460938 L 16.632812 16.449219 L 16.335938 16.332031 L 16.160156 16.246094 L 16.0625 16.175781 L 16.023438 16.039062 L 16.105469 15.945312 L 16.367188 15.808594 L 16.195312 15.6875 L 16.011719 15.625 L 15.820312 15.605469 L 15.613281 15.621094 L 15.378906 15.660156 L 15.277344 15.644531 L 15.191406 15.578125 L 15.132812 15.453125 L 15.070312 15.15625 L 14.996094 15.027344 L 14.835938 14.929688 L 14.613281 14.886719 L 14.371094 14.890625 L 13.351562 15.039062 L 13.125 15.140625 L 13.191406 15.214844 L 13.269531 15.257812 L 13.359375 15.273438 L 13.457031 15.253906 L 13.421875 15.386719 L 13.46875 15.457031 L 13.5625 15.503906 L 13.65625 15.574219 L 13.707031 15.644531 L 13.789062 15.808594 L 13.839844 15.890625 L 13.992188 16.039062 L 14.167969 16.152344 L 14.558594 16.324219 L 14.460938 16.402344 L 14.367188 16.515625 L 14.125 16.90625 L 14.054688 16.996094 L 13.953125 17.050781 L 13.773438 17.101562 L 13.90625 17.269531 L 14.203125 17.292969 L 15.425781 17.121094 L 15.640625 17.140625 L 15.578125 17.191406 L 15.421875 17.257812 L 15.363281 17.304688 L 15.351562 17.34375 L 15.363281 17.386719 L 15.371094 17.433594 L 15.335938 17.488281 L 15.5 17.574219 L 15.65625 17.546875 L 15.960938 17.398438 L 16.125 17.363281 L 16.449219 17.328125 L 16.617188 17.273438 L 16.734375 17.199219 L 16.945312 17.035156 L 17.0625 16.960938 Z M 3.628906 12.5 L 3.617188 12.558594 L 3.609375 12.621094 L 3.625 12.710938 L 3.765625 13.085938 L 3.9375 13.4375 L 4.058594 13.609375 L 4.179688 13.6875 L 4.261719 13.664062 L 4.34375 13.601562 L 4.414062 13.523438 L 4.460938 13.453125 L 4.484375 13.347656 L 4.46875 13.289062 L 4.492188 13.253906 L 4.628906 13.238281 L 4.855469 13.265625 L 4.867188 13.371094 L 4.792969 13.53125 L 4.761719 13.71875 L 4.828125 13.898438 L 4.949219 13.964844 L 5.097656 13.992188 L 5.253906 14.050781 L 5.054688 14.160156 L 4.46875 14.003906 L 4.207031 14.054688 L 4.707031 14.328125 L 4.550781 14.460938 L 4.699219 14.636719 L 5.105469 14.878906 L 5.199219 14.972656 L 5.359375 15.1875 L 5.460938 15.277344 L 5.765625 15.488281 L 5.992188 15.589844 L 6.222656 15.617188 L 6.707031 15.570312 L 6.921875 15.519531 L 7.292969 15.339844 L 7.5 15.265625 L 7.460938 15.230469 L 7.335938 15.148438 L 7.308594 15.121094 L 7.308594 15.066406 L 7.371094 14.855469 L 7.375 14.773438 L 7.355469 14.730469 L 7.355469 14.695312 L 7.410156 14.636719 L 7.449219 14.613281 L 7.503906 14.59375 L 7.558594 14.578125 L 7.605469 14.582031 L 7.699219 14.652344 L 7.761719 14.738281 L 7.835938 14.785156 L 7.972656 14.734375 L 8.042969 14.644531 L 8.128906 14.515625 L 8.203125 14.453125 L 8.257812 14.554688 L 8.242188 14.664062 L 8.148438 14.859375 L 8.144531 14.976562 L 8.210938 15.09375 L 8.308594 15.148438 L 8.429688 15.160156 L 8.5625 15.152344 L 8.859375 15.074219 L 9.367188 14.792969 L 9.65625 14.714844 L 9.550781 14.839844 L 9.433594 14.953125 L 9.363281 15.070312 L 9.410156 15.199219 L 9.542969 15.277344 L 9.71875 15.300781 L 9.898438 15.285156 L 10.050781 15.257812 L 9.824219 15.359375 L 9.582031 15.390625 L 8.921875 15.390625 L 8.707031 15.421875 L 8.550781 15.496094 L 8.566406 15.640625 L 8.371094 15.636719 L 8.199219 15.675781 L 7.851562 15.804688 L 7.109375 15.980469 L 7.125 16.015625 L 7.148438 16.097656 L 7.167969 16.128906 L 6.90625 15.984375 L 6.761719 15.941406 L 6.628906 15.972656 L 6.554688 16.0625 L 6.539062 16.183594 L 6.5625 16.308594 L 6.605469 16.421875 L 6.8125 16.636719 L 7.097656 16.730469 L 7.414062 16.738281 L 7.710938 16.691406 L 7.847656 16.648438 L 8.113281 16.527344 L 8.25 16.484375 L 8.421875 16.46875 L 8.757812 16.511719 L 8.929688 16.515625 L 9.53125 16.402344 L 9.695312 16.386719 L 9.777344 16.417969 L 9.910156 16.640625 L 9.476562 16.65625 L 7.898438 16.886719 L 7.804688 16.917969 L 7.742188 16.96875 L 7.628906 17.113281 L 7.566406 17.152344 L 7.414062 17.140625 L 7.222656 17.085938 L 7.03125 17.058594 L 6.882812 17.132812 L 6.898438 17.386719 L 7.214844 17.59375 L 7.875 17.832031 L 8.035156 17.921875 L 8.472656 18.253906 L 8.964844 18.5 L 9.125 18.59375 L 9.273438 18.699219 L 9.441406 18.792969 L 9.621094 18.832031 L 9.8125 18.769531 L 9.894531 18.699219 L 9.90625 18.640625 L 9.890625 18.574219 L 9.882812 18.484375 L 9.894531 18.398438 L 9.910156 18.351562 L 10.035156 18.1875 L 10.105469 18.113281 L 10.125 18.074219 L 10.117188 18.054688 L 10.054688 17.996094 L 10.046875 17.96875 L 10.082031 17.90625 L 10.25 17.71875 L 10.460938 17.421875 L 10.582031 17.292969 L 10.742188 17.203125 L 11.085938 17.128906 L 11.1875 17.042969 L 11.261719 16.832031 L 11.289062 16.21875 L 11.339844 16.078125 L 11.488281 16.011719 L 11.652344 16.023438 L 11.796875 16 L 11.898438 15.84375 L 11.894531 15.808594 L 11.867188 15.703125 L 11.863281 15.652344 L 11.875 15.605469 L 11.894531 15.550781 L 11.917969 15.496094 L 11.945312 15.453125 L 12.007812 15.367188 L 12.082031 15.292969 L 12.5 14.929688 L 12.628906 14.847656 L 12.796875 14.800781 L 13.917969 14.675781 L 14.132812 14.636719 L 14.25 14.542969 L 14.164062 14.378906 L 13.988281 14.261719 L 13.585938 14.09375 L 13.398438 13.984375 L 13.664062 13.804688 L 13.546875 13.722656 L 13.386719 13.640625 L 13.214844 13.589844 L 13.074219 13.601562 L 13.027344 13.640625 L 13.003906 13.734375 L 12.972656 13.769531 L 12.867188 13.808594 L 12.804688 13.789062 L 12.761719 13.734375 L 12.695312 13.671875 L 12.554688 13.597656 L 12.433594 13.5625 L 12.300781 13.550781 L 12.046875 13.554688 L 11.980469 13.546875 L 11.917969 13.527344 L 11.839844 13.484375 L 11.773438 13.425781 L 11.722656 13.371094 L 11.660156 13.328125 L 11.5625 13.316406 L 11.699219 13.128906 L 11.707031 12.90625 L 11.613281 12.6875 L 11.4375 12.523438 L 11.191406 12.488281 L 10.960938 12.613281 L 10.546875 12.992188 L 10.585938 12.871094 L 10.589844 12.648438 L 10.613281 12.539062 L 10.699219 12.390625 L 10.773438 12.304688 L 10.792969 12.210938 L 10.714844 12.03125 L 10.59375 11.925781 L 10.460938 11.835938 L 10.324219 11.765625 L 10.035156 11.660156 L 9.964844 11.644531 L 9.898438 11.640625 L 9.859375 11.660156 L 9.816406 11.695312 L 9.785156 11.730469 L 9.765625 11.746094 L 9.554688 11.644531 L 9.328125 11.453125 L 9.109375 11.378906 L 8.933594 11.625 L 8.933594 11.664062 L 8.960938 11.742188 L 8.960938 11.777344 L 8.941406 11.820312 L 8.890625 11.875 L 8.742188 12.113281 L 8.714844 12.1875 L 8.695312 12.304688 L 8.699219 12.417969 L 8.71875 12.535156 L 9.214844 13.996094 L 8.917969 13.8125 L 8.667969 13.539062 L 8.113281 12.582031 L 7.863281 12.253906 L 7.566406 12.082031 L 7.230469 12.214844 L 7.082031 12.351562 L 6.972656 12.472656 L 6.898438 12.613281 L 6.878906 12.800781 L 6.878906 12.980469 L 6.859375 13.074219 L 6.785156 13.066406 L 6.554688 12.890625 L 6.402344 12.8125 L 6.332031 12.769531 L 6.285156 12.714844 L 6.230469 12.589844 L 6.191406 12.542969 L 6.027344 12.488281 L 5.8125 12.488281 L 5.40625 12.539062 L 5.648438 12.425781 L 5.867188 12.34375 L 6.089844 12.289062 L 6.355469 12.253906 L 6.546875 12.207031 L 6.730469 12.117188 L 6.785156 12.007812 L 6.585938 11.902344 L 6.339844 11.886719 L 6.101562 11.9375 L 5.628906 12.078125 L 5.21875 12.03125 L 5.074219 12.058594 L 5.136719 12.234375 L 4.933594 12.175781 L 4.574219 12.027344 L 4.367188 12.007812 L 4.25 12.019531 L 4.191406 12.03125 L 4.140625 12.050781 L 4.109375 12.085938 L 4.042969 12.191406 L 4.027344 12.214844 L 3.972656 12.203125 L 3.855469 12.117188 L 3.796875 12.082031 L 3.605469 12.054688 L 3.5625 12.136719 L 3.632812 12.421875 Z M 3.449219 14.433594 L 3.617188 14.652344 L 3.859375 15.066406 L 3.960938 15.167969 L 4.078125 15.222656 L 4.332031 15.28125 L 4.457031 15.332031 L 4.574219 15.433594 L 4.695312 15.546875 L 4.820312 15.632812 L 4.964844 15.628906 L 4.839844 15.40625 L 4.609375 15.183594 L 4.34375 15.023438 L 4.105469 15.007812 L 4.105469 14.90625 L 4.066406 14.851562 L 4.015625 14.8125 L 3.976562 14.742188 L 3.964844 14.671875 L 3.96875 14.566406 L 3.957031 14.496094 L 3.867188 14.351562 L 3.726562 14.253906 L 3.558594 14.191406 L 3.394531 14.164062 L 3.398438 14.316406 Z M 11.324219 10.730469 L 11.390625 10.75 L 11.453125 10.722656 L 11.515625 10.675781 L 11.628906 10.5625 L 11.492188 10.511719 L 11.273438 10.457031 L 11.085938 10.46875 L 11.046875 10.609375 L 11.097656 10.636719 Z M 21.269531 14.289062 L 21.523438 14.234375 L 21.75 14.214844 L 22.203125 14.238281 L 22.410156 14.21875 L 22.648438 14.160156 L 22.546875 14.128906 L 22.1875 14.152344 L 22.054688 14.132812 L 21.828125 14.042969 L 21.703125 14.011719 L 21.480469 14.011719 L 21.253906 14.074219 L 21.03125 14.171875 L 20.828125 14.28125 L 21.023438 14.324219 Z M 19.621094 14.453125 L 19.464844 14.382812 L 19.339844 14.4375 L 19.421875 14.613281 L 19.585938 14.722656 L 19.78125 14.742188 L 19.941406 14.636719 L 19.789062 14.5625 Z M 11.246094 11.320312 L 11.476562 11.375 L 11.742188 11.414062 L 11.664062 11.488281 L 11.578125 11.546875 L 11.488281 11.59375 L 11.390625 11.636719 L 11.183594 11.707031 L 11.15625 11.769531 L 11.207031 11.886719 L 11.335938 12.011719 L 11.523438 12.097656 L 11.726562 12.15625 L 11.902344 12.183594 L 12.355469 12.195312 L 13.234375 12.121094 L 13.683594 12.152344 L 13.574219 12.261719 L 13.441406 12.34375 L 13.296875 12.394531 L 13.152344 12.410156 L 12.84375 12.390625 L 12.695312 12.417969 L 12.566406 12.496094 L 12.921875 12.660156 L 13.777344 12.933594 L 13.945312 12.96875 L 14.402344 12.996094 L 15.777344 12.921875 L 15.671875 13.246094 L 15.914062 13.394531 L 16.304688 13.4375 L 16.820312 13.457031 L 16.9375 13.441406 L 17.042969 13.394531 L 17.460938 13.132812 L 17.617188 13.070312 L 17.78125 13.046875 L 18.148438 13.078125 L 18.320312 13.058594 L 18.515625 12.964844 L 18.628906 12.867188 L 18.789062 12.617188 L 18.882812 12.5 L 19.175781 12.289062 L 19.851562 11.984375 L 20.136719 11.769531 L 20.0625 11.410156 L 19.925781 11.175781 L 19.695312 11.046875 L 19.328125 10.992188 L 18.972656 10.984375 L 18.804688 10.96875 L 17.953125 10.683594 L 17.761719 10.582031 L 17.707031 10.5625 L 17.65625 10.566406 L 17.5625 10.605469 L 17.519531 10.609375 L 17.464844 10.574219 L 17.371094 10.472656 L 17.324219 10.449219 L 17.238281 10.449219 L 17.214844 10.480469 L 17.203125 10.519531 L 17.152344 10.554688 L 17.082031 10.558594 L 16.929688 10.542969 L 16.871094 10.550781 L 16.8125 10.59375 L 16.714844 10.734375 L 16.667969 10.796875 L 16.523438 10.898438 L 16.375 10.949219 L 16.210938 10.964844 L 16.027344 10.957031 L 16.191406 10.394531 L 16.195312 10.28125 L 16.0625 10.191406 L 15.890625 10.203125 L 15.582031 10.328125 L 15.46875 10.355469 L 15.410156 10.355469 L 15.378906 10.382812 L 15.339844 10.484375 L 15.332031 10.578125 L 15.351562 10.796875 L 15.351562 10.894531 L 15.335938 11.0625 L 15.296875 11.21875 L 15.21875 11.324219 L 15.074219 11.332031 L 14.683594 11.109375 L 14.636719 11.046875 L 14.59375 10.90625 L 14.558594 10.851562 L 14.390625 10.765625 L 14.195312 10.765625 L 13.988281 10.777344 L 13.796875 10.742188 L 13.191406 10.34375 L 12.855469 10.195312 L 12.507812 10.222656 L 12.65625 10.5 L 12.671875 10.625 L 12.644531 10.820312 L 12.511719 10.742188 L 12.347656 10.609375 L 12.1875 10.5 L 12.066406 10.496094 L 12.035156 10.636719 L 12.140625 10.808594 L 12.296875 10.957031 L 12.429688 11.03125 L 12.21875 11.132812 L 12.058594 11.101562 L 11.894531 11.015625 L 11.679688 10.9375 L 11.472656 10.925781 L 11.226562 10.949219 L 10.988281 11.003906 L 10.796875 11.097656 L 11.027344 11.234375 Z M 24.839844 11.285156 L 24.445312 11.203125 L 26.164062 10.8125 L 26.375 10.804688 L 26.605469 10.855469 L 26.210938 11.03125 L 25.523438 11.203125 L 24.839844 11.285156 " fill-opacity="1" fill-rule="nonzero"/></g></svg>