<svg xmlns="http://www.w3.org/2000/svg" xmlns:xlink="http://www.w3.org/1999/xlink" width="40" zoomAndPan="magnify" viewBox="0 0 30 30.000001" height="40" preserveAspectRatio="xMidYMid meet" version="1.0"><defs><clipPath id="39b346ff57"><path d="M 3.386719 7.128906 L 26.613281 7.128906 L 26.613281 21.644531 L 3.386719 21.644531 Z M 3.386719 7.128906 " clip-rule="nonzero"/></clipPath></defs><g clip-path="url(#39b346ff57)"><path fill="#014d4e" d="M 26.480469 12.261719 C 26.265625 11.761719 24.472656 7.792969 24.34375 7.488281 C 24.238281 7.253906 24.023438 7.128906 23.769531 7.199219 C 23.679688 7.21875 22.855469 7.359375 22.53125 7.433594 C 21.777344 7.578125 21.023438 7.71875 20.25 7.773438 C 19.496094 7.828125 18.636719 7.898438 17.808594 8.042969 C 17.667969 8.0625 17.539062 8.097656 17.449219 8.152344 C 17.21875 8.257812 16.300781 8.726562 16.050781 8.832031 C 15.746094 8.976562 15.351562 9.191406 15.082031 9.605469 C 15.042969 9.640625 15.007812 9.695312 14.972656 9.75 C 14.957031 9.785156 14.917969 9.800781 14.902344 9.839844 C 14.847656 9.890625 14.792969 9.964844 14.738281 10.019531 C 14.398438 10.429688 14.039062 10.84375 13.914062 11.4375 C 13.914062 11.4375 13.914062 11.453125 13.894531 11.472656 C 13.714844 11.582031 13.554688 11.6875 13.375 11.796875 C 13.375 11.796875 13.355469 11.796875 13.355469 11.796875 C 13.320312 11.742188 13.285156 11.707031 13.25 11.671875 C 13.160156 11.582031 13.085938 11.492188 13.035156 11.402344 C 12.910156 11.183594 12.65625 10.96875 12.207031 11.09375 C 12.082031 11.132812 11.921875 11.167969 11.8125 11.167969 C 11.453125 11.132812 10.214844 10.988281 10.214844 10.988281 C 9.964844 10.953125 9.75 10.933594 9.585938 10.808594 C 9.496094 10.738281 9.371094 10.699219 9.246094 10.699219 C 8.957031 10.71875 7.917969 10.753906 7.917969 10.753906 C 7.898438 10.753906 7.878906 10.753906 7.84375 10.753906 C 7.71875 10.753906 7.628906 10.738281 7.558594 10.738281 C 7.484375 10.738281 7.414062 10.753906 7.179688 10.824219 C 7.054688 10.863281 6.839844 10.914062 6.75 10.933594 C 6.679688 10.914062 6.550781 10.898438 6.5 10.878906 C 6.425781 10.808594 6.15625 10.574219 6.15625 10.574219 C 5.921875 10.359375 5.566406 10.269531 5.257812 10.339844 C 5.117188 10.378906 4.953125 10.429688 4.847656 10.539062 C 4.703125 10.664062 4.683594 10.863281 4.667969 11.042969 C 4.632812 11.257812 4.632812 11.472656 4.632812 11.6875 C 4.632812 11.902344 4.632812 12.117188 4.667969 12.335938 C 4.558594 12.496094 4.273438 12.835938 4.21875 12.910156 C 4.074219 13.035156 3.679688 13.429688 3.699219 13.734375 L 3.714844 13.914062 C 3.714844 14.113281 3.734375 14.148438 3.734375 14.308594 C 3.734375 14.363281 3.714844 14.398438 3.679688 14.433594 C 3.445312 14.722656 3.609375 15.386719 3.609375 15.386719 C 3.644531 15.511719 3.839844 16.300781 3.839844 16.300781 C 3.859375 16.390625 3.875 16.445312 3.914062 16.519531 C 3.949219 16.589844 4.074219 16.914062 4.109375 17.003906 C 4.128906 17.074219 4.164062 17.34375 4.21875 17.59375 C 4.308594 18.097656 4.363281 18.457031 4.398438 18.566406 C 4.433594 18.746094 4.523438 18.90625 4.667969 19.03125 C 4.683594 19.085938 4.722656 19.265625 4.722656 19.265625 C 4.722656 19.320312 4.738281 19.390625 4.738281 19.425781 C 4.738281 19.535156 4.683594 20.125 4.683594 20.125 C 4.683594 20.214844 4.667969 20.34375 4.738281 20.484375 C 4.847656 20.683594 4.988281 20.953125 5.152344 21.222656 C 5.3125 21.472656 6.695312 21.90625 7.359375 21.90625 C 7.59375 21.90625 7.84375 21.796875 7.988281 21.597656 C 8.203125 21.472656 9.15625 21.1875 9.460938 21.113281 C 9.785156 21.042969 10.015625 20.882812 10.179688 20.628906 C 10.195312 20.613281 10.285156 20.503906 10.304688 20.46875 C 10.339844 20.414062 10.394531 20.378906 10.464844 20.378906 C 10.84375 20.304688 11.21875 20.234375 11.578125 20.253906 C 11.796875 20.269531 11.992188 20.269531 12.207031 20.253906 C 12.511719 20.214844 12.855469 20.199219 13.175781 19.964844 C 13.195312 19.964844 13.265625 19.949219 13.265625 19.949219 C 13.394531 19.910156 13.984375 19.785156 13.984375 19.785156 C 14.058594 19.769531 14.148438 19.75 14.253906 19.679688 C 14.328125 19.625 14.632812 19.355469 14.703125 19.300781 C 14.738281 19.265625 14.8125 19.230469 14.867188 19.191406 C 14.867188 19.191406 14.957031 19.140625 14.992188 19.140625 C 15.0625 19.101562 15.171875 19.066406 15.261719 18.976562 C 15.332031 18.925781 15.332031 18.925781 15.386719 18.941406 C 15.402344 18.960938 15.511719 18.996094 15.546875 19.011719 C 15.601562 19.03125 15.710938 19.085938 15.851562 19.050781 C 16.015625 19.011719 16.570312 18.941406 16.644531 18.941406 C 16.839844 18.941406 16.984375 18.886719 17.109375 18.746094 C 17.253906 18.601562 17.398438 18.457031 17.539062 18.332031 C 17.667969 18.242188 19.101562 17.308594 19.445312 17.183594 C 19.480469 17.164062 19.496094 17.164062 19.515625 17.164062 C 19.675781 17.21875 19.839844 17.199219 20 17.144531 C 20.089844 17.109375 20.289062 17.003906 20.289062 17.003906 C 20.414062 16.949219 24.5625 15.386719 24.5625 15.386719 C 24.703125 15.316406 24.792969 15.171875 24.757812 15.007812 C 24.742188 14.9375 24.742188 14.882812 24.722656 14.8125 C 24.703125 14.652344 24.667969 14.488281 24.632812 14.328125 C 24.632812 14.308594 24.9375 13.769531 25.011719 13.644531 C 25.242188 13.554688 26.070312 13.214844 26.070312 13.214844 C 26.25 13.140625 26.390625 13 26.464844 12.835938 C 26.554688 12.640625 26.554688 12.441406 26.480469 12.261719 Z M 8.007812 21.546875 Z M 8.007812 21.546875 " fill-opacity="1" fill-rule="nonzero"/></g></svg>