<svg xmlns="http://www.w3.org/2000/svg" xmlns:xlink="http://www.w3.org/1999/xlink" width="40" zoomAndPan="magnify" viewBox="0 0 30 30.000001" height="40" preserveAspectRatio="xMidYMid meet" version="1.0"><defs><clipPath id="b70bac4e81"><path d="M 6.203125 2.902344 L 23.621094 2.902344 L 23.621094 26 L 6.203125 26 Z M 6.203125 2.902344 " clip-rule="nonzero"/></clipPath></defs><g clip-path="url(#b70bac4e81)"><path fill="#014d4e" d="M 7.8125 8.367188 C 7.917969 8.011719 8.027344 7.652344 8.132812 7.292969 C 8.167969 7.171875 8.214844 7.042969 8.328125 6.992188 C 8.527344 6.902344 8.742188 7.136719 8.957031 7.09375 C 9.03125 7.078125 9.097656 7.027344 9.152344 6.972656 C 9.414062 6.710938 9.53125 6.316406 9.449219 5.957031 C 9.828125 6.097656 10.296875 5.75 10.269531 5.34375 C 10.265625 5.246094 10.234375 5.144531 10.269531 5.054688 C 10.324219 4.917969 10.488281 4.871094 10.609375 4.789062 C 10.789062 4.660156 10.875 4.4375 11.027344 4.28125 C 11.183594 4.128906 11.503906 4.085938 11.582031 4.289062 C 11.65625 4.476562 11.460938 4.648438 11.285156 4.742188 C 11.113281 4.832031 10.898438 4.957031 10.914062 5.15625 C 10.921875 5.308594 11.070312 5.414062 11.214844 5.460938 C 11.359375 5.507812 11.519531 5.515625 11.652344 5.585938 C 11.722656 5.746094 11.554688 6.003906 11.714844 6.070312 C 11.773438 6.09375 11.839844 6.0625 11.90625 6.066406 C 12.03125 6.074219 12.113281 6.207031 12.148438 6.328125 C 12.183594 6.453125 12.195312 6.589844 12.277344 6.6875 C 12.410156 6.839844 12.644531 6.828125 12.84375 6.867188 C 13.039062 6.90625 13.257812 7.109375 13.148438 7.277344 C 13.101562 7.351562 13.007812 7.382812 12.964844 7.460938 C 12.867188 7.621094 13.0625 7.792969 13.164062 7.953125 C 13.308594 8.179688 13.238281 8.519531 13.011719 8.671875 C 13.039062 8.722656 13.0625 8.773438 13.085938 8.824219 C 13.273438 8.699219 13.492188 8.957031 13.714844 8.980469 C 13.984375 9 14.234375 8.675781 14.476562 8.796875 C 14.601562 8.859375 14.640625 9.011719 14.710938 9.132812 C 14.78125 9.25 14.949219 9.351562 15.046875 9.253906 C 15.128906 9.023438 15.214844 8.792969 15.296875 8.558594 C 15.316406 8.503906 15.335938 8.445312 15.375 8.402344 C 15.507812 8.261719 15.75 8.347656 15.886719 8.484375 C 16.019531 8.625 16.121094 8.808594 16.296875 8.886719 C 16.371094 8.914062 16.449219 8.925781 16.523438 8.933594 C 16.859375 8.976562 17.195312 9.019531 17.53125 9.0625 C 17.890625 9.105469 18.28125 9.078125 18.609375 9.234375 C 18.605469 9.339844 18.601562 9.441406 18.597656 9.542969 C 19.011719 9.714844 19.390625 9.964844 19.714844 10.273438 C 19.777344 10.335938 19.835938 10.398438 19.875 10.472656 C 19.917969 10.554688 19.933594 10.644531 19.941406 10.734375 C 19.96875 11.007812 19.933594 11.285156 19.839844 11.542969 C 19.796875 11.664062 19.644531 11.796875 19.5625 11.695312 C 19.535156 11.660156 19.535156 11.609375 19.511719 11.570312 C 19.488281 11.527344 19.410156 11.519531 19.40625 11.566406 C 19.265625 11.636719 19.375 11.851562 19.503906 11.941406 C 19.632812 12.03125 19.792969 12.183594 19.703125 12.3125 C 19.289062 12.601562 18.921875 12.953125 18.613281 13.351562 C 18.429688 13.589844 18.25 13.863281 17.96875 13.972656 C 18.066406 14.253906 17.945312 14.589844 17.695312 14.746094 C 17.539062 14.847656 17.308594 14.914062 17.289062 15.101562 C 17.28125 15.179688 17.320312 15.261719 17.3125 15.339844 C 17.300781 15.5 17.128906 15.589844 16.984375 15.671875 C 16.84375 15.753906 16.695312 15.910156 16.769531 16.058594 C 16.882812 16.21875 17.160156 16.117188 17.316406 16.238281 C 17.378906 16.285156 17.410156 16.363281 17.4375 16.4375 C 17.523438 16.671875 17.589844 16.921875 17.738281 17.125 C 17.882812 17.328125 18.140625 17.480469 18.382812 17.417969 C 18.40625 17.570312 18.425781 17.722656 18.449219 17.875 C 18.609375 17.886719 18.769531 17.898438 18.933594 17.910156 C 19.054688 18.152344 18.945312 18.484375 18.703125 18.609375 C 18.519531 18.902344 18.269531 19.179688 17.960938 19.335938 C 17.730469 19.453125 17.464844 19.535156 17.328125 19.753906 C 17.144531 20.050781 17.316406 20.457031 17.585938 20.679688 C 17.652344 20.734375 17.734375 20.816406 17.691406 20.894531 C 17.65625 20.957031 17.566406 20.953125 17.496094 20.945312 C 17.238281 20.90625 16.96875 20.902344 16.726562 20.996094 C 16.480469 21.089844 16.273438 21.300781 16.242188 21.5625 C 16.222656 21.730469 16.28125 21.898438 16.261719 22.070312 C 16.234375 22.375 15.925781 22.621094 15.621094 22.589844 C 15.628906 23.019531 15.847656 23.425781 16.15625 23.71875 C 16.464844 24.015625 16.855469 24.214844 17.257812 24.363281 C 17.355469 24.402344 17.460938 24.4375 17.539062 24.507812 C 17.617188 24.582031 17.660156 24.699219 17.613281 24.796875 C 17.59375 24.835938 17.558594 24.871094 17.519531 24.898438 C 17.320312 25.042969 17.058594 25.0625 16.820312 25.117188 C 16.578125 25.175781 16.316406 25.308594 16.261719 25.546875 C 16.019531 25.515625 15.980469 25.1875 15.871094 24.96875 C 15.753906 24.730469 15.488281 24.578125 15.226562 24.59375 C 15.183594 24.59375 15.136719 24.601562 15.105469 24.628906 C 15.058594 24.667969 15.050781 24.734375 15.039062 24.792969 C 14.996094 25.058594 14.902344 25.320312 14.761719 25.550781 C 14.597656 25.835938 14.25 26.101562 13.964844 25.941406 C 13.84375 25.871094 13.773438 25.746094 13.671875 25.652344 C 13.570312 25.5625 13.394531 25.515625 13.304688 25.613281 C 13.265625 25.660156 13.25 25.722656 13.207031 25.761719 C 13.082031 25.871094 12.898438 25.683594 12.890625 25.515625 C 12.878906 25.351562 12.9375 25.167969 12.84375 25.03125 C 12.714844 24.84375 12.414062 24.910156 12.242188 25.058594 C 12.070312 25.210938 11.949219 25.421875 11.742188 25.515625 C 11.503906 24.976562 11.972656 24.382812 11.976562 23.792969 C 11.980469 23.675781 11.949219 23.535156 11.839844 23.484375 C 11.722656 23.421875 11.582031 23.503906 11.464844 23.570312 C 11.277344 23.683594 11.066406 23.773438 10.84375 23.777344 C 10.625 23.785156 10.394531 23.699219 10.269531 23.515625 C 10.597656 23.332031 10.929688 23.144531 11.1875 22.871094 C 11.445312 22.597656 11.617188 22.21875 11.554688 21.851562 C 11.53125 21.722656 11.480469 21.597656 11.382812 21.519531 C 11.28125 21.4375 11.128906 21.414062 11.027344 21.492188 C 10.976562 21.53125 10.9375 21.589844 10.882812 21.625 C 10.699219 21.738281 10.496094 21.515625 10.394531 21.324219 C 10.101562 20.769531 9.808594 20.21875 9.515625 19.664062 C 10.183594 19.671875 10.851562 19.679688 11.519531 19.6875 C 11.636719 20.160156 11.6875 20.648438 11.667969 21.136719 C 11.902344 21.234375 12.195312 21.285156 12.429688 21.382812 C 12.539062 21.429688 12.652344 21.472656 12.753906 21.539062 C 12.871094 21.621094 12.96875 21.726562 13.082031 21.8125 C 13.40625 22.058594 13.863281 22.148438 14.226562 21.972656 C 14.59375 21.796875 14.816406 21.332031 14.667969 20.957031 C 14.613281 20.820312 14.519531 20.703125 14.4375 20.578125 C 14.074219 20.035156 13.898438 19.320312 13.332031 18.992188 C 13.15625 18.890625 12.949219 18.835938 12.804688 18.695312 C 12.613281 18.507812 12.570312 18.214844 12.4375 17.984375 C 12.164062 17.523438 11.558594 17.363281 11.222656 16.945312 C 11.171875 16.878906 11.121094 16.800781 11.128906 16.71875 C 11.140625 16.597656 11.257812 16.519531 11.363281 16.464844 C 11.679688 16.296875 12.011719 16.15625 12.351562 16.050781 C 12.410156 15.898438 12.277344 15.738281 12.128906 15.667969 C 11.984375 15.597656 11.8125 15.570312 11.6875 15.464844 C 11.507812 15.320312 11.480469 15.019531 11.628906 14.84375 C 11.789062 14.652344 11.542969 14.328125 11.390625 14.128906 C 11.238281 13.933594 11.046875 13.75 10.992188 13.503906 C 11.34375 13.40625 11.695312 13.308594 12.046875 13.210938 C 12.074219 13.203125 12.105469 13.195312 12.128906 13.171875 C 12.183594 13.125 12.164062 13.027344 12.109375 12.976562 C 12.050781 12.929688 11.976562 12.914062 11.902344 12.902344 C 11.679688 12.867188 11.457031 12.832031 11.234375 12.796875 C 11.132812 12.78125 11.023438 12.757812 10.960938 12.675781 C 10.894531 12.59375 10.90625 12.476562 10.929688 12.375 C 11.003906 12.09375 11.203125 11.84375 11.460938 11.707031 C 11.558594 11.621094 11.511719 11.449219 11.402344 11.382812 C 11.289062 11.316406 11.152344 11.328125 11.027344 11.359375 C 10.902344 11.390625 10.777344 11.433594 10.648438 11.421875 C 10.53125 11.410156 10.421875 11.351562 10.308594 11.320312 C 10.042969 11.25 9.730469 11.320312 9.515625 11.152344 C 9.292969 10.984375 9.25 10.621094 8.988281 10.515625 C 8.855469 10.464844 8.707031 10.5 8.5625 10.503906 C 8.269531 10.515625 7.96875 10.398438 7.761719 10.191406 C 7.71875 10.144531 7.671875 10.089844 7.65625 10.027344 C 7.617188 9.894531 7.695312 9.757812 7.792969 9.660156 C 7.9375 9.515625 8.128906 9.425781 8.292969 9.304688 C 8.460938 9.1875 8.613281 9.015625 8.628906 8.8125 C 8.632812 8.753906 8.621094 8.695312 8.589844 8.648438 C 8.542969 8.589844 8.464844 8.566406 8.394531 8.550781 C 8.171875 8.496094 8.03125 8.425781 7.808594 8.371094 Z M 7.164062 4.3125 C 7.28125 4.253906 7.359375 4.144531 7.425781 4.035156 C 7.507812 4.039062 7.589844 4.042969 7.667969 4.015625 C 7.746094 3.988281 7.816406 3.929688 7.835938 3.851562 C 7.863281 3.746094 7.789062 3.636719 7.703125 3.566406 C 7.617188 3.496094 7.511719 3.449219 7.4375 3.367188 C 7.390625 3.320312 7.359375 3.257812 7.320312 3.203125 C 7.246094 3.105469 7.152344 3.015625 7.039062 2.972656 C 6.921875 2.925781 6.785156 2.929688 6.683594 2.996094 C 6.597656 3.054688 6.542969 3.144531 6.476562 3.21875 C 6.40625 3.296875 6.316406 3.363281 6.261719 3.453125 C 6.207031 3.546875 6.203125 3.683594 6.292969 3.746094 C 6.355469 3.789062 6.4375 3.777344 6.511719 3.765625 C 6.558594 3.757812 6.605469 3.75 6.652344 3.742188 C 6.671875 3.738281 6.699219 3.734375 6.71875 3.742188 C 6.738281 3.753906 6.75 3.777344 6.761719 3.800781 C 6.839844 4 6.761719 4.507812 7.164062 4.3125 Z M 21.636719 12.472656 C 21.546875 12.511719 21.398438 12.507812 21.339844 12.597656 C 21.167969 12.851562 21.589844 12.894531 21.71875 12.949219 C 21.773438 12.972656 21.8125 13.015625 21.851562 13.058594 C 22.113281 13.347656 22.324219 13.679688 22.480469 14.039062 C 22.511719 14.113281 22.546875 14.191406 22.617188 14.226562 C 22.742188 14.28125 22.878906 14.148438 22.914062 14.011719 C 22.949219 13.878906 22.9375 13.726562 23.011719 13.609375 C 23.082031 13.496094 23.210938 13.4375 23.320312 13.363281 C 23.632812 13.144531 23.789062 12.75 23.773438 12.371094 C 23.753906 11.992188 23.574219 11.632812 23.324219 11.34375 C 23.222656 11.226562 23.109375 11.113281 23.058594 10.96875 C 22.90625 10.886719 22.691406 10.96875 22.632812 11.128906 C 22.609375 11.183594 22.605469 11.242188 22.582031 11.296875 C 22.546875 11.375 22.476562 11.433594 22.417969 11.496094 C 22.222656 11.703125 22.125 11.984375 21.953125 12.210938 C 21.871094 12.316406 21.761719 12.414062 21.636719 12.46875 Z M 21.636719 12.472656 " fill-opacity="1" fill-rule="nonzero"/></g></svg>