<svg xmlns="http://www.w3.org/2000/svg" xmlns:xlink="http://www.w3.org/1999/xlink" width="40" zoomAndPan="magnify" viewBox="0 0 30 30.000001" height="40" preserveAspectRatio="xMidYMid meet" version="1.0"><defs><clipPath id="d37f0ad401"><path d="M 4.492188 2.902344 L 25.539062 2.902344 L 25.539062 26 L 4.492188 26 Z M 4.492188 2.902344 " clip-rule="nonzero"/></clipPath></defs><g clip-path="url(#d37f0ad401)"><path fill="#014d4e" d="M 12.707031 2.964844 C 12.601562 2.953125 12.523438 2.964844 12.46875 2.964844 L 12.429688 2.964844 C 11.65625 3.019531 10.894531 3.074219 10.101562 3.316406 L 10.089844 3.324219 L 10.074219 3.328125 C 9.554688 3.523438 9.105469 3.722656 8.917969 3.6875 C 8.894531 3.675781 8.875 3.667969 8.808594 3.632812 C 8.710938 3.585938 8.546875 3.515625 8.339844 3.515625 C 8.195312 3.515625 8.054688 3.53125 7.902344 3.59375 C 7.753906 3.65625 7.574219 3.765625 7.464844 3.980469 C 7.390625 4.132812 7.378906 4.34375 7.394531 4.445312 C 7.398438 4.421875 7.402344 4.429688 7.246094 4.539062 C 7.074219 4.664062 6.730469 4.828125 6.601562 5.289062 L 6.601562 5.296875 L 6.597656 5.304688 C 6.496094 5.707031 6.550781 5.964844 6.542969 6.007812 C 6.515625 6.101562 6.351562 6.199219 6.023438 6.398438 L 6 6.410156 C 5.449219 6.777344 4.976562 7.246094 4.65625 7.890625 C 4.601562 8 4.492188 8.171875 4.492188 8.464844 C 4.492188 8.847656 4.695312 9.03125 4.816406 9.164062 C 4.9375 9.292969 5.046875 9.410156 5.023438 9.375 L 5.035156 9.394531 L 5.050781 9.414062 C 5.085938 9.457031 5.101562 9.625 5.015625 9.886719 C 4.945312 10.085938 4.753906 10.335938 4.601562 10.703125 C 4.488281 10.941406 4.492188 11.160156 4.492188 11.214844 L 4.492188 11.441406 L 4.839844 11.792969 L 4.867188 11.816406 C 5.347656 12.1875 5.757812 12.550781 6.109375 12.953125 L 6.097656 12.933594 C 6.378906 13.285156 6.664062 13.414062 6.902344 13.558594 C 7.203125 13.742188 7.609375 14.011719 8.171875 13.898438 C 8.414062 13.851562 8.578125 13.757812 8.703125 13.707031 C 8.828125 13.648438 8.898438 13.636719 8.890625 13.636719 C 8.851562 13.636719 8.917969 13.640625 9.015625 13.667969 C 9.097656 13.691406 9.222656 13.726562 9.382812 13.734375 C 9.984375 13.820312 10.402344 13.503906 10.582031 13.433594 C 10.566406 13.4375 10.648438 13.421875 10.738281 13.441406 C 10.824219 13.464844 10.910156 13.515625 10.921875 13.53125 L 10.960938 13.570312 L 11.003906 13.597656 C 10.972656 13.574219 10.992188 13.582031 11.046875 13.664062 C 11.101562 13.746094 11.195312 13.894531 11.378906 14.023438 C 11.652344 14.222656 11.9375 14.238281 12.203125 14.195312 C 12.214844 14.210938 12.21875 14.207031 12.226562 14.226562 C 12.28125 14.335938 12.300781 14.480469 12.300781 14.40625 C 12.300781 14.425781 12.292969 14.46875 12.269531 14.578125 C 12.246094 14.671875 12.214844 14.835938 12.253906 15.03125 C 12.308594 15.636719 12.421875 16.164062 12.859375 16.726562 C 13.191406 17.152344 13.335938 17.488281 13.34375 18.011719 C 13.320312 18.214844 13.226562 18.453125 13.097656 18.753906 C 12.964844 19.0625 12.796875 19.4375 12.796875 19.90625 C 12.796875 20.476562 13.097656 20.890625 13.335938 21.214844 C 13.574219 21.539062 13.765625 21.8125 13.804688 21.964844 C 13.832031 22.082031 13.832031 22.351562 13.910156 22.671875 C 14.042969 23.25 14.292969 23.746094 14.585938 24.214844 L 14.589844 24.21875 L 14.59375 24.230469 C 14.769531 24.492188 14.820312 24.515625 14.832031 24.53125 L 14.832031 24.746094 C 14.832031 25.316406 15.199219 25.730469 15.671875 25.921875 L 15.703125 25.929688 C 16.101562 26.0625 16.378906 25.945312 16.597656 25.886719 C 16.929688 25.855469 17.351562 25.792969 17.78125 25.648438 C 18.238281 25.5 18.710938 25.292969 19.023438 24.84375 L 19.058594 24.796875 L 19.078125 24.746094 C 19.226562 24.402344 19.425781 24.070312 19.621094 23.871094 C 19.703125 23.789062 19.816406 23.6875 19.921875 23.515625 C 19.980469 23.417969 19.972656 23.246094 19.988281 23.097656 L 20.113281 23.097656 L 20.167969 23.085938 C 20.496094 23.019531 20.734375 22.777344 20.84375 22.542969 C 20.953125 22.308594 20.980469 22.074219 20.921875 21.824219 C 20.859375 21.542969 20.710938 21.355469 20.617188 21.238281 C 20.542969 21.148438 20.523438 21.113281 20.5 21.078125 C 20.511719 21.058594 20.511719 21.042969 20.53125 21.023438 C 20.621094 20.925781 20.757812 20.808594 20.832031 20.765625 C 21.144531 20.613281 21.648438 20.433594 21.925781 19.878906 L 21.9375 19.859375 L 21.945312 19.835938 C 22.101562 19.445312 22.101562 18.996094 21.945312 18.601562 L 21.972656 18.699219 C 21.847656 18.074219 21.640625 17.59375 21.59375 17.15625 L 21.59375 17.128906 L 21.585938 17.101562 C 21.535156 16.835938 21.742188 16.402344 22.015625 15.910156 C 22.175781 15.675781 22.441406 15.441406 22.730469 15.25 L 22.742188 15.242188 L 22.753906 15.230469 C 23.324219 14.804688 24.09375 14.171875 24.671875 13.453125 C 24.964844 13.09375 25.210938 12.714844 25.351562 12.296875 C 25.492188 11.878906 25.507812 11.382812 25.273438 10.949219 L 24.945312 10.355469 L 24.433594 10.796875 C 24.191406 11.003906 23.59375 11.222656 23.144531 11.269531 C 23.074219 11.265625 23 11.253906 22.984375 11.257812 C 22.972656 11.246094 22.964844 11.234375 22.972656 11.242188 L 22.941406 11.183594 L 22.894531 11.132812 C 22.675781 10.875 22.511719 10.285156 21.957031 9.808594 L 21.945312 9.796875 L 21.929688 9.785156 C 21.660156 9.585938 21.511719 9.503906 21.433594 9.398438 L 21.410156 9.367188 L 21.382812 9.339844 C 21.292969 9.25 21.183594 9.007812 21.074219 8.675781 L 21.070312 8.667969 C 20.773438 7.820312 20.773438 7.035156 20.347656 6 L 20.339844 5.980469 L 20.332031 5.964844 C 20.285156 5.867188 20.222656 5.726562 20.109375 5.558594 C 19.988281 5.394531 19.738281 5.164062 19.398438 5.164062 L 18.972656 5.164062 L 18.933594 5.167969 C 18.699219 5.203125 18.429688 5.136719 18.085938 5 C 17.75 4.871094 17.363281 4.6875 16.910156 4.585938 C 16.765625 4.539062 16.617188 4.511719 16.445312 4.527344 C 16.273438 4.539062 16.058594 4.589844 15.871094 4.773438 C 15.683594 4.964844 15.652344 5.152344 15.621094 5.273438 C 15.589844 5.253906 15.535156 5.210938 15.367188 5.101562 C 14.980469 4.828125 14.539062 4.695312 14.125 4.558594 C 13.890625 4.480469 13.757812 4.410156 13.574219 4.332031 C 13.582031 4.320312 13.589844 4.300781 13.59375 4.292969 C 13.683594 4.019531 13.632812 3.808594 13.554688 3.621094 C 13.480469 3.429688 13.367188 3.25 13.15625 3.109375 L 13.128906 3.09375 L 13.097656 3.074219 C 12.945312 3 12.816406 2.972656 12.707031 2.964844 Z M 24.679688 17.816406 C 24.511719 18.148438 24.292969 18.53125 24.019531 18.695312 C 23.800781 18.808594 23.523438 18.917969 23.414062 19.136719 C 23.25 19.414062 23.414062 19.742188 23.359375 20.015625 C 23.359375 20.125 23.304688 20.238281 23.246094 20.347656 C 23.195312 20.621094 23.25 20.953125 23.359375 21.226562 C 23.414062 21.390625 23.523438 21.613281 23.691406 21.667969 C 23.800781 21.667969 23.964844 21.613281 24.074219 21.503906 C 24.183594 21.390625 24.292969 21.171875 24.347656 21.007812 C 24.402344 20.84375 24.402344 20.675781 24.402344 20.511719 C 24.460938 20.015625 24.734375 19.519531 24.84375 19.027344 C 24.902344 18.695312 24.902344 18.367188 24.84375 18.039062 C 24.789062 17.925781 24.734375 17.816406 24.679688 17.816406 Z M 19.726562 23.097656 L 19.730469 23.097656 C 19.730469 23.097656 19.726562 23.097656 19.726562 23.101562 C 19.714844 23.105469 19.765625 23.097656 19.726562 23.097656 Z M 19.726562 23.097656 " fill-opacity="1" fill-rule="nonzero"/></g></svg>