<svg xmlns="http://www.w3.org/2000/svg" xmlns:xlink="http://www.w3.org/1999/xlink" width="40" zoomAndPan="magnify" viewBox="0 0 30 30.000001" height="40" preserveAspectRatio="xMidYMid meet" version="1.0"><defs><clipPath id="53246cb6d1"><path d="M 3.386719 4.457031 L 26.613281 4.457031 L 26.613281 24.777344 L 3.386719 24.777344 Z M 3.386719 4.457031 " clip-rule="nonzero"/></clipPath></defs><g clip-path="url(#53246cb6d1)"><path fill="#014d4e" d="M 7.902344 10.964844 C 7.960938 10.992188 8.03125 11.015625 8.046875 11.027344 C 8.109375 11.03125 8.101562 11.109375 8.15625 11.144531 C 8.304688 11.070312 8.398438 10.976562 8.523438 10.871094 C 8.601562 10.808594 8.671875 10.789062 8.773438 10.792969 C 8.890625 10.796875 8.902344 10.796875 9 10.722656 C 9.160156 10.589844 9.316406 10.652344 9.503906 10.644531 C 9.585938 10.636719 9.628906 10.628906 9.707031 10.574219 C 9.738281 10.554688 9.824219 10.464844 9.851562 10.476562 C 9.933594 10.511719 9.816406 10.882812 9.777344 10.945312 C 9.851562 11 9.902344 10.992188 9.90625 11.097656 C 9.914062 11.203125 9.878906 11.300781 9.953125 11.378906 C 10.015625 11.441406 10.109375 11.445312 10.183594 11.5 C 10.246094 11.546875 10.265625 11.628906 10.308594 11.691406 C 10.375 11.660156 10.40625 11.59375 10.484375 11.613281 C 10.566406 11.632812 10.613281 11.738281 10.703125 11.761719 C 10.773438 11.789062 10.835938 11.757812 10.914062 11.773438 C 10.980469 11.789062 11.066406 11.832031 11.132812 11.855469 C 11.308594 11.925781 11.496094 11.914062 11.660156 11.972656 C 11.769531 12.007812 11.875 12.011719 11.984375 11.996094 C 12.101562 11.976562 12.160156 11.992188 12.269531 12.042969 C 12.355469 12.085938 12.480469 12.074219 12.546875 12.121094 C 12.601562 12.15625 12.667969 12.28125 12.679688 12.339844 C 12.75 12.257812 12.71875 12.101562 12.851562 12.058594 C 12.878906 12.136719 12.957031 12.101562 13.019531 12.078125 C 13.058594 12.007812 13.097656 11.941406 13.140625 11.871094 C 13.140625 11.855469 13.121094 11.707031 13.136719 11.675781 C 13.160156 11.617188 13.242188 11.625 13.273438 11.5625 C 13.316406 11.476562 13.238281 11.4375 13.320312 11.371094 C 13.378906 11.324219 13.523438 11.269531 13.566406 11.324219 C 13.628906 11.394531 13.566406 11.578125 13.605469 11.644531 C 13.632812 11.6875 13.738281 11.703125 13.785156 11.734375 C 13.859375 11.785156 13.90625 11.851562 13.964844 11.917969 C 14.011719 11.972656 14.085938 11.980469 14.125 12.027344 C 14.175781 12.089844 14.152344 12.210938 14.171875 12.289062 C 14.207031 12.421875 14.253906 12.464844 14.371094 12.542969 C 14.410156 12.566406 14.4375 12.605469 14.472656 12.628906 C 14.488281 12.640625 14.519531 12.644531 14.53125 12.65625 C 14.550781 12.675781 14.5625 12.71875 14.582031 12.734375 C 14.679688 12.796875 14.671875 12.675781 14.75 12.652344 C 14.8125 12.628906 14.933594 12.699219 14.996094 12.738281 C 15.039062 12.769531 15.074219 12.816406 15.121094 12.84375 C 15.179688 12.878906 15.167969 12.863281 15.214844 12.863281 C 15.28125 12.867188 15.265625 12.851562 15.324219 12.890625 C 15.371094 12.914062 15.402344 12.96875 15.453125 12.988281 C 15.546875 13.03125 15.636719 12.953125 15.730469 12.984375 C 15.847656 13.023438 15.941406 13.144531 16.019531 13.238281 C 16.054688 13.277344 16.085938 13.335938 16.128906 13.371094 C 16.160156 13.398438 16.214844 13.390625 16.238281 13.445312 C 16.269531 13.542969 16.144531 13.652344 16.167969 13.753906 C 16.183594 13.8125 16.253906 13.859375 16.289062 13.90625 C 16.308594 13.933594 16.320312 13.953125 16.335938 13.980469 C 16.382812 13.925781 16.433594 13.875 16.480469 13.816406 C 16.480469 13.828125 16.523438 13.847656 16.546875 13.871094 C 16.585938 13.90625 16.617188 13.984375 16.636719 14.03125 C 16.664062 14.085938 16.652344 14.140625 16.699219 14.175781 C 16.742188 14.203125 16.765625 14.171875 16.808594 14.21875 C 16.890625 14.304688 16.878906 14.449219 16.953125 14.542969 C 17.03125 14.648438 17.015625 14.71875 17.027344 14.84375 C 17.03125 14.882812 17.035156 14.953125 17.066406 14.980469 C 17.128906 15.027344 17.164062 14.964844 17.210938 14.949219 C 17.28125 14.929688 17.296875 14.949219 17.351562 14.976562 C 17.375 14.984375 17.40625 14.980469 17.425781 14.996094 C 17.453125 15.011719 17.445312 15.042969 17.472656 15.050781 C 17.550781 15.078125 17.585938 15 17.628906 14.96875 C 17.691406 14.917969 17.714844 14.921875 17.796875 14.914062 C 17.839844 14.90625 17.914062 14.921875 17.9375 14.914062 C 18 14.890625 18.027344 14.824219 18.074219 14.78125 C 18.1875 14.664062 18.28125 14.679688 18.390625 14.757812 C 18.417969 14.773438 18.425781 14.746094 18.449219 14.78125 C 18.46875 14.8125 18.441406 14.855469 18.433594 14.886719 C 18.410156 14.945312 18.375 15.011719 18.339844 15.058594 C 18.402344 15.105469 18.53125 15.105469 18.609375 15.113281 C 18.632812 15.121094 18.675781 15.136719 18.710938 15.140625 L 18.679688 12.621094 C 18.628906 12.613281 18.578125 12.605469 18.523438 12.605469 C 18.523438 12.605469 18.519531 12.605469 18.515625 12.605469 C 18.519531 12.605469 18.519531 12.605469 18.523438 12.605469 C 18.523438 12.605469 18.523438 12.605469 18.53125 12.609375 C 18.488281 12.625 18.449219 12.644531 18.40625 12.65625 C 18.34375 12.671875 18.328125 12.65625 18.265625 12.652344 C 18.199219 12.644531 18.105469 12.675781 18.070312 12.734375 C 17.964844 12.882812 18.09375 12.898438 18.152344 13.007812 C 18.222656 13.136719 18.09375 13.128906 18.011719 13.082031 C 17.960938 13.050781 17.921875 13.023438 17.859375 13.019531 C 17.851562 13.019531 17.828125 13.023438 17.820312 13.023438 C 17.808594 13.023438 17.761719 13.007812 17.753906 13.007812 C 17.722656 13.007812 17.667969 13.007812 17.648438 12.992188 C 17.589844 12.960938 17.632812 12.90625 17.539062 12.914062 C 17.496094 12.921875 17.457031 12.960938 17.414062 12.972656 C 17.363281 12.976562 17.300781 12.976562 17.25 12.988281 C 17.09375 13.007812 17.09375 12.847656 17.019531 12.726562 C 16.941406 12.59375 16.8125 12.511719 16.734375 12.386719 C 16.699219 12.324219 16.671875 12.25 16.652344 12.171875 C 16.589844 12.167969 16.527344 12.152344 16.480469 12.121094 C 16.398438 12.0625 16.355469 11.988281 16.257812 11.941406 C 16.054688 11.847656 16.109375 11.550781 15.957031 11.394531 C 15.894531 11.328125 15.808594 11.230469 15.828125 11.128906 C 15.84375 11.058594 15.960938 10.96875 16 10.898438 C 16.066406 10.757812 16.097656 10.667969 16.085938 10.519531 C 16.082031 10.410156 16.117188 10.296875 16.160156 10.203125 C 16.191406 10.128906 16.238281 10.078125 16.253906 10.003906 C 16.269531 9.941406 16.242188 9.902344 16.242188 9.84375 C 16.246094 9.761719 16.308594 9.625 16.382812 9.609375 C 16.429688 9.570312 16.480469 9.527344 16.527344 9.480469 C 16.496094 9.414062 16.460938 9.347656 16.445312 9.277344 C 16.429688 9.179688 16.433594 9.039062 16.433594 8.9375 C 16.433594 8.851562 16.429688 8.832031 16.394531 8.765625 C 16.367188 8.714844 16.308594 8.65625 16.316406 8.597656 C 16.320312 8.484375 16.441406 8.386719 16.445312 8.257812 C 16.449219 8.125 16.417969 7.980469 16.382812 7.863281 C 16.457031 7.832031 16.539062 7.789062 16.578125 7.722656 C 16.546875 7.703125 16.457031 7.6875 16.433594 7.648438 C 16.402344 7.585938 16.464844 7.488281 16.441406 7.417969 C 16.417969 7.359375 16.367188 7.328125 16.363281 7.261719 C 16.351562 7.191406 16.398438 7.09375 16.324219 7.046875 C 16.179688 7.1875 16.175781 6.828125 16.164062 6.777344 C 16.097656 6.757812 15.890625 6.726562 15.910156 6.632812 C 15.9375 6.503906 16.273438 6.460938 16.289062 6.34375 C 16.351562 6.316406 16.417969 6.285156 16.480469 6.257812 C 16.554688 6.121094 16.695312 6.015625 16.808594 5.902344 C 16.910156 5.796875 16.957031 5.695312 17.019531 5.5625 C 17.046875 5.507812 17.105469 5.433594 17.109375 5.378906 C 17.113281 5.320312 17.082031 5.226562 17.066406 5.164062 C 17.066406 5.144531 17.0625 5.085938 17.050781 5.023438 L 20.757812 4.460938 C 20.777344 4.503906 20.792969 4.546875 20.796875 4.5625 C 20.839844 4.777344 20.96875 4.957031 21.117188 5.101562 C 21.21875 5.195312 21.375 5.277344 21.398438 5.417969 C 21.457031 5.394531 21.527344 5.363281 21.589844 5.347656 C 21.675781 5.324219 21.664062 5.339844 21.75 5.382812 C 21.804688 5.410156 21.761719 5.417969 21.824219 5.402344 C 21.859375 5.394531 21.871094 5.339844 21.90625 5.332031 C 22 5.304688 22.023438 5.398438 22.078125 5.441406 C 22.199219 5.527344 22.378906 5.429688 22.386719 5.625 C 22.390625 5.714844 22.375 5.773438 22.445312 5.828125 C 22.484375 5.859375 22.539062 5.871094 22.578125 5.90625 C 22.609375 5.933594 22.628906 5.988281 22.65625 6.011719 C 22.722656 6.058594 22.746094 5.957031 22.832031 5.953125 C 22.933594 5.949219 22.960938 6.0625 23.074219 6.011719 C 23.230469 6.027344 23.109375 6.25 23.226562 6.3125 C 23.277344 6.34375 23.371094 6.273438 23.433594 6.289062 C 23.496094 6.304688 23.5625 6.359375 23.625 6.382812 C 23.703125 6.414062 23.757812 6.457031 23.832031 6.46875 C 23.929688 6.476562 23.972656 6.472656 24.058594 6.507812 C 24.183594 6.554688 24.277344 6.667969 24.339844 6.785156 C 24.417969 6.796875 24.496094 6.8125 24.574219 6.824219 C 24.589844 6.804688 24.640625 6.804688 24.679688 6.792969 C 24.734375 6.855469 24.78125 6.917969 24.824219 6.992188 C 24.9375 6.960938 25 6.960938 25.0625 7.046875 C 25.085938 7.078125 25.097656 7.144531 25.117188 7.167969 C 25.171875 7.21875 25.222656 7.199219 25.273438 7.234375 C 25.269531 7.339844 25.25 7.40625 25.210938 7.503906 C 25.347656 7.570312 25.359375 7.601562 25.457031 7.5 C 25.539062 7.539062 25.695312 7.539062 25.730469 7.640625 C 25.757812 7.722656 25.695312 7.722656 25.773438 7.785156 C 25.820312 7.820312 25.871094 7.835938 25.917969 7.886719 C 25.984375 7.960938 26.007812 7.996094 25.996094 8.101562 C 25.984375 8.183594 25.980469 8.164062 25.929688 8.230469 C 25.855469 8.328125 25.980469 8.429688 25.902344 8.535156 C 25.902344 8.535156 25.90625 8.542969 25.90625 8.542969 C 25.960938 8.519531 26.0625 8.484375 26.105469 8.519531 C 26.152344 8.5625 26.113281 8.671875 26.160156 8.707031 C 26.234375 8.765625 26.292969 8.699219 26.3125 8.828125 C 26.328125 8.929688 26.296875 8.992188 26.34375 9.097656 C 26.414062 9.253906 26.613281 9.453125 26.472656 9.625 C 26.429688 9.679688 26.339844 9.695312 26.28125 9.730469 C 26.21875 9.765625 26.191406 9.8125 26.152344 9.863281 C 26.113281 9.917969 26.074219 10.035156 26.03125 10.058594 C 25.996094 10.078125 25.933594 10.050781 25.898438 10.0625 C 25.828125 10.074219 25.761719 10.117188 25.699219 10.15625 C 25.679688 10.164062 25.664062 10.179688 25.648438 10.195312 C 25.660156 10.273438 25.675781 10.351562 25.703125 10.417969 C 25.726562 10.472656 25.773438 10.507812 25.796875 10.554688 C 25.824219 10.601562 25.871094 10.726562 25.867188 10.789062 C 25.84375 10.90625 25.699219 10.984375 25.660156 11.09375 C 25.628906 11.167969 25.652344 11.261719 25.535156 11.238281 C 25.554688 11.292969 25.527344 11.339844 25.523438 11.390625 C 25.511719 11.5 25.523438 11.46875 25.601562 11.503906 C 25.710938 11.5625 25.710938 11.660156 25.691406 11.785156 C 25.675781 11.867188 25.664062 11.960938 25.648438 12.039062 C 25.632812 12.117188 25.597656 12.167969 25.617188 12.246094 C 25.632812 12.320312 25.675781 12.351562 25.664062 12.425781 C 25.660156 12.503906 25.621094 12.574219 25.621094 12.65625 C 25.628906 12.738281 25.664062 12.800781 25.699219 12.878906 C 25.730469 12.945312 25.820312 13.050781 25.8125 13.121094 C 25.882812 13.117188 25.953125 13.050781 26.011719 13.050781 C 26.066406 13.050781 26.078125 13.113281 26.125 13.136719 C 26.09375 13.277344 25.945312 13.277344 25.851562 13.367188 C 25.808594 13.40625 25.789062 13.460938 25.742188 13.484375 C 25.679688 13.515625 25.652344 13.46875 25.597656 13.476562 C 25.492188 13.480469 25.503906 13.59375 25.425781 13.640625 C 25.320312 13.707031 25.304688 13.59375 25.226562 13.578125 C 25.171875 13.5625 25.09375 13.609375 25.050781 13.636719 C 25.070312 13.699219 25.019531 13.746094 25.011719 13.800781 C 25.003906 13.832031 25.035156 13.847656 25.019531 13.890625 C 25 13.9375 24.964844 13.921875 24.949219 13.953125 C 24.886719 14.050781 25.019531 14.191406 24.988281 14.316406 C 24.972656 14.382812 24.875 14.433594 24.839844 14.496094 C 24.816406 14.539062 24.785156 14.605469 24.78125 14.648438 C 24.769531 14.734375 24.824219 14.726562 24.871094 14.804688 C 24.941406 14.921875 24.878906 15.105469 24.734375 15.125 C 24.746094 15.171875 24.714844 15.207031 24.714844 15.261719 C 24.714844 15.28125 24.753906 15.316406 24.746094 15.34375 C 24.722656 15.378906 24.683594 15.347656 24.65625 15.375 C 24.632812 15.40625 24.648438 15.453125 24.625 15.484375 C 24.558594 15.578125 24.433594 15.507812 24.332031 15.503906 C 24.339844 15.5625 24.351562 15.625 24.367188 15.679688 C 24.367188 15.675781 24.371094 15.675781 24.371094 15.675781 C 24.402344 15.742188 24.507812 15.671875 24.558594 15.742188 C 24.609375 15.816406 24.53125 15.925781 24.507812 15.988281 C 24.570312 16.023438 24.617188 16.003906 24.679688 16.011719 C 24.761719 16.027344 24.738281 16.039062 24.777344 16.109375 C 24.832031 16.226562 24.933594 16.273438 24.925781 16.421875 C 25.039062 16.480469 25.175781 16.234375 25.296875 16.273438 C 25.371094 16.296875 25.371094 16.433594 25.371094 16.535156 C 25.203125 16.582031 25.035156 16.652344 24.863281 16.695312 C 24.722656 16.734375 24.589844 16.78125 24.449219 16.804688 C 24.300781 16.835938 24.164062 16.914062 24.015625 16.953125 C 23.726562 17.019531 23.4375 17.042969 23.164062 17.148438 C 23.050781 17.191406 22.960938 17.269531 22.851562 17.320312 C 22.753906 17.367188 22.648438 17.371094 22.539062 17.375 C 22.34375 17.382812 22.199219 17.421875 22.054688 17.558594 C 21.875 17.71875 21.722656 17.691406 21.496094 17.730469 C 21.390625 17.746094 21.285156 17.75 21.175781 17.761719 C 21.078125 17.769531 21.015625 17.828125 20.941406 17.878906 C 20.871094 17.925781 20.800781 17.9375 20.730469 17.96875 C 20.679688 17.988281 20.617188 18.03125 20.558594 18.035156 C 20.511719 18.035156 20.460938 18.007812 20.410156 18.015625 C 20.269531 18.03125 20.019531 18.0625 19.929688 18.164062 C 19.878906 18.222656 19.882812 18.242188 19.8125 18.269531 C 19.746094 18.296875 19.636719 18.300781 19.582031 18.316406 C 19.542969 18.335938 19.496094 18.355469 19.453125 18.371094 C 19.453125 18.371094 19.453125 18.378906 19.453125 18.378906 C 19.457031 18.414062 19.441406 18.457031 19.453125 18.488281 C 19.457031 18.511719 19.484375 18.519531 19.488281 18.542969 C 19.503906 18.601562 19.5 18.621094 19.5 18.679688 C 19.5 18.773438 19.503906 18.71875 19.542969 18.777344 C 19.589844 18.851562 19.65625 18.917969 19.703125 19 C 19.730469 19.050781 19.769531 19.121094 19.78125 19.171875 C 19.789062 19.222656 19.773438 19.269531 19.785156 19.316406 C 19.605469 19.363281 19.882812 19.660156 19.691406 19.648438 C 19.667969 19.648438 19.613281 19.617188 19.578125 19.613281 C 19.527344 19.609375 19.46875 19.609375 19.417969 19.609375 C 19.339844 19.613281 19.242188 19.597656 19.167969 19.613281 C 19.132812 19.625 19.097656 19.652344 19.070312 19.660156 C 19.023438 19.667969 19.007812 19.652344 18.964844 19.648438 C 18.871094 19.644531 18.835938 19.644531 18.753906 19.597656 C 18.679688 19.5625 18.628906 19.539062 18.550781 19.566406 C 18.46875 19.597656 18.410156 19.714844 18.328125 19.714844 C 18.246094 19.722656 18.058594 19.550781 18.0625 19.773438 C 17.933594 19.800781 17.785156 19.789062 17.664062 19.835938 C 17.589844 19.863281 17.503906 19.894531 17.429688 19.925781 C 17.367188 19.949219 17.347656 19.984375 17.300781 20.03125 C 17.222656 20.117188 17.171875 20.234375 17.050781 20.246094 C 17 20.25 16.96875 20.226562 16.917969 20.25 C 16.871094 20.277344 16.839844 20.355469 16.796875 20.394531 C 16.796875 20.394531 16.796875 20.402344 16.792969 20.402344 C 16.804688 20.472656 16.808594 20.5625 16.8125 20.582031 C 16.804688 20.671875 16.8125 20.757812 16.804688 20.84375 C 16.792969 20.910156 16.773438 20.960938 16.777344 21.027344 C 16.78125 21.074219 16.8125 21.132812 16.796875 21.175781 C 16.777344 21.230469 16.730469 21.195312 16.703125 21.230469 C 16.664062 21.292969 16.75 21.382812 16.699219 21.460938 C 16.648438 21.539062 16.5 21.539062 16.425781 21.554688 C 16.316406 21.574219 16.207031 21.601562 16.097656 21.621094 C 15.914062 21.65625 15.714844 21.722656 15.550781 21.816406 C 15.46875 21.871094 15.433594 21.910156 15.402344 21.984375 C 15.375 22.039062 15.367188 22.097656 15.296875 22.117188 C 15.101562 22.179688 14.914062 22.035156 14.765625 22.257812 C 14.726562 22.316406 14.71875 22.386719 14.675781 22.445312 C 14.609375 22.554688 14.539062 22.625 14.496094 22.742188 C 14.472656 22.796875 14.4375 22.839844 14.421875 22.898438 C 14.40625 22.96875 14.441406 23.042969 14.390625 23.105469 C 14.347656 23.15625 14.265625 23.152344 14.207031 23.175781 C 14.164062 23.199219 14.125 23.234375 14.085938 23.257812 C 14.058594 23.273438 13.996094 23.289062 13.933594 23.304688 C 13.929688 23.351562 13.929688 23.398438 13.921875 23.425781 C 13.890625 23.582031 13.839844 23.554688 13.726562 23.660156 C 13.683594 23.695312 13.664062 23.753906 13.621094 23.789062 C 13.570312 23.835938 13.5 23.839844 13.445312 23.886719 C 13.390625 23.945312 13.382812 24.058594 13.363281 24.136719 C 13.28125 24.425781 13.078125 24.285156 12.859375 24.339844 C 12.757812 24.363281 12.75 24.472656 12.671875 24.515625 C 12.574219 24.570312 12.488281 24.449219 12.402344 24.40625 C 12.339844 24.375 12.289062 24.355469 12.238281 24.3125 C 12.214844 24.296875 12.191406 24.265625 12.164062 24.261719 C 12.09375 24.230469 11.972656 24.238281 11.910156 24.230469 C 11.859375 24.199219 11.8125 24.171875 11.765625 24.136719 C 11.730469 24.152344 11.6875 24.164062 11.644531 24.171875 C 11.550781 24.199219 11.496094 24.246094 11.414062 24.300781 C 11.34375 24.347656 11.304688 24.40625 11.214844 24.363281 C 11.144531 24.332031 11.105469 24.253906 11.027344 24.226562 C 10.945312 24.195312 10.859375 24.183594 10.789062 24.125 C 10.75 24.09375 10.71875 24.03125 10.664062 24.007812 C 10.53125 23.9375 10.347656 24.085938 10.21875 24.117188 C 10.199219 24.058594 10.15625 24.09375 10.125 24.078125 C 10.089844 24.0625 10.070312 24.039062 10.039062 24.011719 C 10.007812 23.984375 9.964844 23.949219 9.929688 23.933594 C 9.867188 23.902344 9.757812 23.917969 9.707031 23.882812 C 9.652344 23.847656 9.648438 23.777344 9.613281 23.722656 C 9.566406 23.652344 9.5 23.539062 9.425781 23.5 C 9.335938 23.453125 9.214844 23.492188 9.121094 23.453125 C 9.027344 23.410156 8.941406 23.363281 8.839844 23.332031 C 8.761719 23.304688 8.71875 23.296875 8.652344 23.316406 C 8.601562 23.332031 8.554688 23.378906 8.492188 23.375 C 8.425781 23.367188 8.324219 23.316406 8.257812 23.296875 C 8.164062 23.265625 8.070312 23.253906 7.976562 23.230469 C 7.96875 23.230469 7.941406 23.222656 7.910156 23.21875 L 6.375 23.707031 L 4.542969 22.03125 L 3.808594 21.429688 C 3.738281 21.027344 3.496094 20.738281 3.496094 20.738281 L 3.386719 14.238281 L 7.386719 14.238281 C 7.292969 14.125 7.175781 14.046875 7.070312 13.925781 C 6.980469 13.828125 7.085938 13.652344 7.113281 13.523438 C 7.136719 13.402344 7.121094 13.347656 7.191406 13.246094 C 7.261719 13.136719 7.355469 12.957031 7.324219 12.820312 C 7.296875 12.714844 7.183594 12.691406 7.164062 12.605469 C 7.132812 12.496094 7.179688 12.355469 7.175781 12.246094 C 7.167969 12.125 7.121094 12.078125 7.191406 11.988281 C 7.257812 11.898438 7.28125 11.863281 7.246094 11.746094 C 7.226562 11.671875 7.113281 11.570312 7.105469 11.503906 C 7.101562 11.429688 7.214844 11.359375 7.265625 11.316406 C 7.207031 11.203125 7.199219 11.171875 7.296875 11.082031 C 7.414062 10.980469 7.34375 10.964844 7.277344 10.851562 C 7.191406 10.710938 7.289062 10.492188 7.152344 10.363281 C 7.167969 10.3125 7.210938 10.242188 7.214844 10.191406 C 7.222656 10.109375 7.175781 10.113281 7.128906 10.066406 C 6.996094 9.949219 7.132812 9.917969 7.253906 9.921875 C 7.351562 9.925781 7.445312 9.988281 7.484375 10.078125 C 7.53125 10.179688 7.527344 10.25 7.660156 10.285156 C 7.761719 10.3125 7.886719 10.3125 7.984375 10.316406 C 8 10.375 7.992188 10.429688 7.984375 10.488281 C 7.972656 10.566406 7.976562 10.566406 8.003906 10.628906 C 8.046875 10.746094 8.035156 10.777344 7.976562 10.890625 C 7.957031 10.902344 7.929688 10.933594 7.902344 10.964844 Z M 7.902344 10.964844 " fill-opacity="1" fill-rule="nonzero"/></g></svg>