<svg xmlns="http://www.w3.org/2000/svg" xmlns:xlink="http://www.w3.org/1999/xlink" width="40" zoomAndPan="magnify" viewBox="0 0 30 30.000001" height="40" preserveAspectRatio="xMidYMid meet" version="1.0"><defs><clipPath id="0c12aed1f1"><path d="M 3.386719 4.441406 L 26.613281 4.441406 L 26.613281 24.765625 L 3.386719 24.765625 Z M 3.386719 4.441406 " clip-rule="nonzero"/></clipPath></defs><g clip-path="url(#0c12aed1f1)"><path fill="#014d4e" d="M 24.820312 21.339844 C 24.707031 21.28125 24.660156 21.359375 24.601562 21.417969 C 23.746094 22.308594 22.882812 23.191406 22.03125 24.085938 C 21.867188 24.257812 21.679688 24.390625 21.484375 24.519531 C 21.429688 24.554688 21.378906 24.578125 21.332031 24.507812 C 21.308594 24.472656 21.273438 24.464844 21.230469 24.46875 C 21.210938 24.472656 21.183594 24.476562 21.171875 24.464844 C 21.046875 24.355469 20.910156 24.375 20.757812 24.375 C 20.617188 24.378906 20.472656 24.304688 20.328125 24.28125 C 20.046875 24.230469 19.777344 24.265625 19.507812 24.351562 C 19.398438 24.386719 19.28125 24.335938 19.171875 24.324219 C 19.078125 24.316406 18.996094 24.324219 18.910156 24.355469 C 18.707031 24.4375 18.507812 24.457031 18.324219 24.304688 C 18.296875 24.28125 18.253906 24.261719 18.21875 24.265625 C 18.042969 24.289062 17.890625 24.222656 17.734375 24.160156 C 17.671875 24.132812 17.632812 24.082031 17.578125 24.054688 C 17.359375 23.960938 17.125 23.921875 16.910156 23.816406 C 16.785156 23.757812 16.613281 23.785156 16.460938 23.804688 C 16.300781 23.820312 16.15625 23.949219 15.980469 23.882812 C 15.917969 23.859375 15.859375 23.910156 15.800781 23.941406 C 15.734375 23.976562 15.671875 23.976562 15.613281 23.921875 C 15.53125 23.847656 15.421875 23.796875 15.371094 23.683594 C 15.351562 23.632812 15.308594 23.621094 15.257812 23.621094 C 15.1875 23.621094 15.121094 23.625 15.054688 23.621094 C 14.722656 23.601562 14.546875 23.261719 14.714844 22.980469 C 14.796875 22.84375 14.789062 22.835938 14.640625 22.773438 C 14.542969 22.730469 14.445312 22.703125 14.335938 22.703125 C 14.261719 22.707031 14.191406 22.679688 14.128906 22.648438 C 13.929688 22.542969 13.710938 22.488281 13.511719 22.375 C 13.417969 22.320312 13.292969 22.308594 13.179688 22.355469 C 13.0625 22.40625 12.957031 22.386719 12.851562 22.328125 C 12.683594 22.226562 12.496094 22.1875 12.300781 22.199219 C 12.113281 22.210938 11.929688 22.160156 11.746094 22.140625 C 11.621094 22.128906 11.472656 21.90625 11.488281 21.777344 C 11.492188 21.746094 11.492188 21.71875 11.480469 21.691406 C 11.3125 21.402344 11.175781 21.089844 10.871094 20.898438 C 10.71875 20.804688 10.660156 20.664062 10.671875 20.457031 C 10.6875 20.207031 10.722656 19.964844 10.773438 19.722656 C 10.78125 19.679688 10.78125 19.625 10.769531 19.585938 C 10.714844 19.425781 10.703125 19.277344 10.761719 19.113281 C 10.796875 19.019531 10.753906 18.945312 10.632812 18.929688 C 10.328125 18.882812 10.019531 18.882812 9.710938 18.882812 C 9.6875 18.882812 9.660156 18.882812 9.636719 18.886719 C 9.488281 18.914062 9.476562 18.914062 9.5 18.765625 C 9.542969 18.460938 9.488281 18.179688 9.367188 17.898438 C 9.3125 17.765625 9.226562 17.695312 9.085938 17.691406 C 9.03125 17.6875 8.976562 17.691406 8.945312 17.644531 C 8.859375 17.523438 8.746094 17.5 8.609375 17.5 C 8.511719 17.496094 8.421875 17.457031 8.332031 17.414062 C 8.214844 17.355469 8.074219 17.339844 7.964844 17.289062 C 7.769531 17.195312 7.539062 17.121094 7.414062 16.910156 C 7.359375 16.816406 7.269531 16.769531 7.167969 16.742188 C 7.050781 16.714844 6.953125 16.671875 6.894531 16.5625 C 6.886719 16.546875 6.875 16.53125 6.859375 16.523438 C 6.746094 16.488281 6.644531 16.460938 6.683594 16.292969 C 6.695312 16.246094 6.613281 16.207031 6.546875 16.210938 C 6.277344 16.214844 6.121094 16.085938 6.046875 15.828125 C 6 15.664062 5.925781 15.503906 5.871094 15.339844 C 5.820312 15.195312 5.738281 15.070312 5.648438 14.953125 C 5.566406 14.84375 5.546875 14.726562 5.601562 14.59375 C 5.648438 14.480469 5.582031 14.308594 5.472656 14.207031 C 5.335938 14.085938 5.167969 13.992188 5.105469 13.800781 C 5.097656 13.777344 5.074219 13.753906 5.078125 13.730469 C 5.089844 13.503906 4.960938 13.386719 4.800781 13.246094 C 4.625 13.09375 4.453125 12.925781 4.292969 12.75 C 4.265625 12.71875 4.234375 12.683594 4.230469 12.644531 C 4.1875 12.433594 4.042969 12.273438 3.976562 12.078125 C 3.949219 11.996094 3.890625 11.933594 3.8125 11.886719 C 3.578125 11.75 3.488281 11.511719 3.421875 11.273438 C 3.386719 11.15625 3.472656 11.0625 3.523438 10.96875 C 3.546875 10.921875 3.589844 10.945312 3.625 10.964844 C 3.933594 11.144531 4.265625 11.148438 4.585938 11.023438 C 4.808594 10.941406 4.960938 11.039062 5.125 11.140625 C 5.167969 11.171875 5.203125 11.214844 5.257812 11.238281 C 5.289062 11.25 5.328125 11.269531 5.320312 11.308594 C 5.304688 11.378906 5.316406 11.429688 5.386719 11.464844 C 5.480469 11.511719 5.574219 11.558594 5.679688 11.519531 C 5.886719 11.445312 6.082031 11.335938 6.277344 11.234375 C 6.34375 11.199219 6.378906 11.195312 6.445312 11.238281 C 6.542969 11.296875 6.664062 11.324219 6.78125 11.328125 C 6.871094 11.332031 6.953125 11.347656 7.027344 11.386719 C 7.132812 11.445312 7.238281 11.496094 7.359375 11.515625 C 7.417969 11.527344 7.464844 11.566406 7.507812 11.605469 C 7.648438 11.730469 7.769531 11.71875 7.941406 11.652344 C 8.09375 11.59375 8.253906 11.53125 8.414062 11.488281 C 8.625 11.429688 8.859375 11.410156 9.007812 11.207031 C 9.0625 11.132812 9.132812 11.070312 9.117188 10.964844 C 9.109375 10.886719 9.164062 10.84375 9.210938 10.792969 C 9.566406 10.441406 9.914062 10.078125 10.292969 9.75 C 10.40625 9.648438 10.476562 9.527344 10.503906 9.382812 C 10.53125 9.234375 10.617188 9.117188 10.699219 8.996094 C 11.140625 8.359375 11.019531 8.464844 11.726562 8.171875 C 11.902344 8.097656 12.066406 8.007812 12.214844 7.882812 C 12.339844 7.773438 12.488281 7.695312 12.644531 7.636719 C 12.917969 7.539062 13.183594 7.433594 13.453125 7.332031 C 13.507812 7.3125 13.5625 7.28125 13.613281 7.285156 C 13.808594 7.296875 13.941406 7.175781 14.03125 7.042969 C 14.117188 6.925781 14.234375 6.785156 14.144531 6.609375 C 14.132812 6.585938 14.125 6.554688 14.132812 6.535156 C 14.203125 6.371094 14.140625 6.191406 14.191406 6.027344 C 14.203125 5.988281 14.210938 5.941406 14.210938 5.902344 C 14.195312 5.660156 14.351562 5.476562 14.589844 5.46875 C 14.691406 5.46875 14.773438 5.441406 14.816406 5.339844 C 14.835938 5.296875 14.867188 5.261719 14.90625 5.238281 C 15.273438 5.007812 15.636719 4.773438 16.082031 4.730469 C 16.089844 4.730469 16.101562 4.730469 16.105469 4.726562 C 16.382812 4.515625 16.742188 4.648438 17.035156 4.488281 C 17.121094 4.441406 17.234375 4.476562 17.332031 4.507812 C 17.5 4.5625 17.664062 4.574219 17.832031 4.515625 C 17.847656 4.511719 17.863281 4.511719 17.882812 4.503906 C 18.003906 4.476562 18.113281 4.589844 18.207031 4.5625 C 18.324219 4.53125 18.414062 4.511719 18.523438 4.566406 C 18.546875 4.578125 18.585938 4.585938 18.609375 4.574219 C 18.769531 4.507812 18.773438 4.617188 18.773438 4.722656 C 18.777344 4.972656 18.785156 5.222656 18.78125 5.472656 C 18.78125 5.574219 18.816406 5.609375 18.914062 5.609375 C 19.269531 5.601562 19.621094 5.605469 19.972656 5.601562 C 20.140625 5.597656 20.292969 5.628906 20.414062 5.75 C 20.460938 5.796875 20.519531 5.820312 20.5625 5.773438 C 20.636719 5.683594 20.746094 5.679688 20.835938 5.625 C 20.875 5.601562 20.921875 5.597656 20.96875 5.605469 C 21.085938 5.628906 21.203125 5.65625 21.316406 5.683594 C 21.375 5.699219 21.425781 5.726562 21.453125 5.773438 C 21.652344 6.109375 21.984375 6.1875 22.328125 6.203125 C 22.546875 6.210938 22.714844 6.273438 22.847656 6.441406 C 22.890625 6.496094 22.9375 6.546875 23 6.574219 C 23.097656 6.617188 23.164062 6.675781 23.171875 6.789062 C 23.179688 6.875 23.261719 6.882812 23.328125 6.894531 C 23.554688 6.941406 23.785156 6.925781 24.011719 6.917969 C 24.175781 6.914062 24.332031 6.933594 24.488281 6.992188 C 24.789062 7.113281 25.085938 7.230469 25.390625 7.34375 C 25.488281 7.382812 25.554688 7.433594 25.5625 7.550781 C 25.570312 7.664062 25.628906 7.710938 25.742188 7.675781 C 25.808594 7.65625 25.871094 7.671875 25.933594 7.6875 C 26.050781 7.714844 26.164062 7.734375 26.273438 7.660156 C 26.34375 7.617188 26.378906 7.648438 26.359375 7.730469 C 26.308594 7.957031 26.257812 8.179688 26.046875 8.320312 C 25.976562 8.371094 25.980469 8.421875 26.023438 8.496094 C 26.121094 8.667969 26.234375 8.832031 26.3125 9.015625 C 26.351562 9.105469 26.375 9.195312 26.378906 9.289062 C 26.382812 9.402344 26.390625 9.507812 26.503906 9.574219 C 26.558594 9.605469 26.542969 9.664062 26.515625 9.710938 C 26.460938 9.8125 26.40625 9.914062 26.34375 10.007812 C 26.277344 10.117188 26.292969 10.1875 26.398438 10.25 C 26.5625 10.351562 26.574219 10.371094 26.503906 10.542969 C 26.472656 10.625 26.476562 10.710938 26.480469 10.796875 C 26.488281 10.886719 26.46875 10.960938 26.378906 11.007812 C 26.328125 11.03125 26.296875 11.078125 26.304688 11.132812 C 26.316406 11.269531 26.316406 11.402344 26.292969 11.539062 C 26.273438 11.679688 26.332031 11.804688 26.375 11.933594 C 26.402344 12.019531 26.421875 12.105469 26.367188 12.1875 C 26.316406 12.261719 26.34375 12.316406 26.398438 12.367188 C 26.433594 12.398438 26.472656 12.421875 26.507812 12.453125 C 26.613281 12.546875 26.613281 12.585938 26.511719 12.6875 C 26.46875 12.730469 26.429688 12.769531 26.464844 12.839844 C 26.496094 12.902344 26.453125 12.949219 26.402344 12.976562 C 26.335938 13.011719 26.269531 13.054688 26.195312 13.078125 C 26.097656 13.109375 26.078125 13.179688 26.105469 13.265625 C 26.128906 13.332031 26.160156 13.390625 26.191406 13.453125 C 26.234375 13.539062 26.257812 13.621094 26.230469 13.722656 C 26.199219 13.839844 26.140625 13.910156 26.007812 13.894531 C 25.890625 13.882812 25.785156 13.929688 25.679688 13.96875 C 25.566406 14.011719 25.539062 14.082031 25.582031 14.1875 C 25.601562 14.238281 25.625 14.28125 25.5625 14.332031 C 25.5 14.386719 25.554688 14.460938 25.570312 14.523438 C 25.585938 14.585938 25.652344 14.570312 25.699219 14.566406 C 25.953125 14.539062 26.097656 14.707031 26.042969 14.957031 C 26.019531 15.058594 25.996094 15.164062 25.980469 15.269531 C 25.96875 15.359375 25.933594 15.441406 25.867188 15.503906 C 25.8125 15.558594 25.792969 15.617188 25.785156 15.695312 C 25.777344 15.804688 25.746094 15.910156 25.914062 15.914062 C 25.960938 15.914062 25.976562 15.96875 25.972656 16.015625 C 25.96875 16.136719 25.964844 16.261719 25.953125 16.382812 C 25.949219 16.433594 25.925781 16.488281 25.980469 16.519531 C 26.03125 16.546875 26.089844 16.542969 26.140625 16.511719 C 26.167969 16.496094 26.191406 16.46875 26.21875 16.449219 C 26.296875 16.402344 26.367188 16.433594 26.355469 16.519531 C 26.339844 16.648438 26.382812 16.726562 26.496094 16.769531 C 26.5625 16.796875 26.5625 16.84375 26.558594 16.90625 C 26.539062 17.113281 26.449219 17.308594 26.480469 17.523438 C 26.488281 17.578125 26.441406 17.582031 26.402344 17.574219 C 26.339844 17.5625 26.304688 17.59375 26.289062 17.648438 C 26.28125 17.671875 26.273438 17.707031 26.253906 17.714844 C 26.074219 17.816406 26.078125 17.988281 26.070312 18.160156 C 26.066406 18.246094 26.027344 18.316406 25.972656 18.375 C 25.796875 18.566406 25.632812 18.769531 25.523438 19.007812 C 25.472656 19.125 25.375 19.152344 25.253906 19.148438 C 24.976562 19.140625 24.867188 19.273438 24.910156 19.550781 C 24.933594 19.699219 24.949219 19.851562 24.972656 20.003906 C 25 20.167969 24.960938 20.3125 24.847656 20.441406 C 24.753906 20.546875 24.667969 20.65625 24.582031 20.765625 C 24.550781 20.796875 24.542969 20.816406 24.570312 20.871094 C 24.644531 21.023438 24.738281 21.171875 24.820312 21.339844 Z M 24.820312 21.339844 " fill-opacity="1" fill-rule="nonzero"/></g></svg>